<?xml version="1.0" encoding="utf-8"?>
<!-- Generator: Adobe Illustrator 22.0.1, SVG Export Plug-In . SVG Version: 6.00 Build 0)  -->
<svg version="1.1" id="designs" xmlns="http://www.w3.org/2000/svg" xmlns:xlink="http://www.w3.org/1999/xlink" x="0px" y="0px"
	 width="32px" height="32px" viewBox="0 0 32 32" style="enable-background:new 0 0 32 32;" xml:space="preserve">
<style type="text/css">
	.scienceandfiction_een{fill:#2B4099;}
	.scienceandfiction_twee{fill:#CC2954;}
</style>
<path class="scienceandfiction_twee" d="M12,14c1.103,0,2,0.897,2,2s-0.897,2-2,2s-2-0.897-2-2v-2H12z M12,13H9v3
	c0,1.657,1.343,3,3,3s3-1.343,3-3S13.657,13,12,13L12,13z M22,14v2c0,1.103-0.897,2-2,2s-2-0.897-2-2s0.897-2,2-2H22z M23,13h-3
	c-1.657,0-3,1.343-3,3s1.343,3,3,3s3-1.343,3-3V13L23,13z M17,25h1v3.5h-1V25z M21,25h-0.999v3.5H21V25z M15,25h-0.999v3.5H15V25z
	 M12,25h-0.999v3.5H12V25z M16.219,20l0.5,2h-1.438l0.5-2H16.219z M17,19h-2l-1,4h4L17,19L17,19z"/>
<path class="scienceandfiction_een" d="M16,4c5.514,0,10,4.486,10,10c0,2.247-0.719,4.358-2.079,6.106l-0.383,0.492l0.273,0.56
	C23.936,21.415,24,21.699,24,22c0,0.85-0.532,1.603-1.324,1.874L22,24.105v0.715V28H10v-3.18v-0.715l-0.676-0.231
	C8.532,23.603,8,22.85,8,22c0-0.301,0.064-0.585,0.189-0.842l0.273-0.56l-0.383-0.492C6.719,18.358,6,16.247,6,14
	C6,8.486,10.486,4,16,4z M16,3C9.92,3,5,7.92,5,14c0,2.53,0.85,4.87,2.29,6.72C7.1,21.11,7,21.54,7,22c0,1.31,0.83,2.42,2,2.82V29
	h14v-4.18c1.17-0.4,2-1.51,2-2.82c0-0.46-0.1-0.89-0.29-1.28C26.15,18.87,27,16.53,27,14C27,7.92,22.08,3,16,3L16,3z"/>
</svg>