<?xml version="1.0" encoding="utf-8"?>
<!-- Generator: Adobe Illustrator 22.0.1, SVG Export Plug-In . SVG Version: 6.00 Build 0)  -->
<svg version="1.1" id="designs" xmlns="http://www.w3.org/2000/svg" xmlns:xlink="http://www.w3.org/1999/xlink" x="0px" y="0px"
	 width="32px" height="32px" viewBox="0 0 32 32" style="enable-background:new 0 0 32 32;" xml:space="preserve">
<style type="text/css">
	.scienceandfiction_een{fill:#2B4099;}
	.scienceandfiction_twee{fill:#CC2954;}
</style>
<path class="scienceandfiction_twee" d="M17,20.355l1.854,1.854l-0.707,0.707L16.5,21.269l-1.646,1.646l-0.707-0.707L16,20.355
	v-2.953c0-0.96-1.58-2.08-3.34-2.34c-0.25-0.04-0.5-0.06-0.76-0.06c-0.31,0-0.6,0.02-0.86,0.06c-0.92,0.12-2.074,0.709-2.534,1.059
	v-1.18c0.55-0.3,1.694-0.779,2.404-0.869c0.29-0.05,0.63-0.07,0.99-0.07c0.31,0,0.61,0.02,0.92,0.07c1.42,0.21,2.93,0.96,3.68,1.97
	c0.75-1.01,2.26-1.76,3.69-1.97c0.3-0.05,0.6-0.07,0.91-0.07c0.36,0,0.7,0.02,1.02,0.07c0.68,0.09,1.824,0.569,2.384,0.869
	c0,0.364,0,1.18,0,1.18c-0.46-0.34-1.624-0.939-2.534-1.059c-0.27-0.04-0.56-0.06-0.87-0.06c-0.26,0-0.51,0.02-0.76,0.06
	c-1.76,0.26-3.34,1.38-3.34,2.34V20.355z M15,27h3v-1h-3V27z M13,17c-0.551,0-1,0.449-1,1s0.449,1,1,1s1-0.449,1-1S13.551,17,13,17z
	 M13,16c1.105,0,2,0.895,2,2s-0.895,2-2,2s-2-0.895-2-2S11.895,16,13,16L13,16z M20,17c-0.551,0-1,0.449-1,1s0.449,1,1,1
	s1-0.449,1-1S20.551,17,20,17z M20,16c1.105,0,2,0.895,2,2s-0.895,2-2,2s-2-0.895-2-2S18.895,16,20,16L20,16z"/>
<path class="scienceandfiction_een" d="M17,5h-1V4h1V5z M27,20.17L26,24v4h-3v-1l-5,3h-3l-5-3v1H7v-4l-1-3.88V13
	c0-4.5,3.74-8.13,8.46-8.85L15,2h3l0.54,2.15C23.26,4.87,27,8.531,27,13C27,13.242,27,20.17,27,20.17z M7,15h1c0.001-0.21,0-2,0-2
	c0.46-4.75,4.12-7,8.5-7c4.28,0,8.04,2.21,8.5,7c0,0,0,2-0.001,2h1C26,15,26,13,26,13c0-4.899-5.031-7.96-8.27-7.96L17.22,3h-1.44
	l-0.51,2.04C12.062,5.04,7,8.041,7,13C7,13.13,7,15,7,15z M8.01,19H7v0.99L7.252,21h1.256L8.01,19z M7,18h1v-2H7V18z M9,25H8v2h1V25
	z M9.254,24l-0.497-2H7.501L8,24H9.254z M21.061,27H19v-1h3.22L24,19c0,0,0.01-5.89,0-6c-0.37-3.84-3.2-6-7.5-6S9.37,9.18,9,13
	c-0.01,0.12,0,6,0,6l1.78,7H14v1h-2.061l3.341,2h2.44L21.061,27z M25,25h-1v2h1V25z M25,24l0.504-2H24.25l-0.5,2H25z M26,19h-1
	l-0.5,2h1.256L26,20.03V19z M26,16h-1v2h1V16z"/>
</svg>