<?xml version="1.0" encoding="utf-8"?>
<!-- Generator: Adobe Illustrator 22.0.1, SVG Export Plug-In . SVG Version: 6.00 Build 0)  -->
<svg version="1.1" id="designs" xmlns="http://www.w3.org/2000/svg" xmlns:xlink="http://www.w3.org/1999/xlink" x="0px" y="0px"
	 width="32px" height="32px" viewBox="0 0 32 32" style="enable-background:new 0 0 32 32;" xml:space="preserve">
<style type="text/css">
	.scienceandfiction_een{fill:#2B4099;}
	.scienceandfiction_twee{fill:#CC2954;}
</style>
<path class="scienceandfiction_twee" d="M20,1h1v1h-1V1z M25,4h1V3h-1V4z M19,31h1v-1h-1V31z M27,30h1v-1h-1V30z M28,8h1V7h-1V8z
	 M30,16h1v-1h-1V16z M1,17h1v-1H1V17z M28,24h1v-1h-1V24z M2,26h1v-1H2V26z M4,30h1v-1H4V30z M9,31h1v-1H9V31z M3,4h1V3H3V4z M2,9h1
	V8H2V9z M9,3h1V2H9V3z"/>
<path class="scienceandfiction_een" d="M15.5,15c0.828,0,1.5,0.672,1.5,1.5S16.328,18,15.5,18S14,17.328,14,16.5S14.672,15,15.5,15z
	 M15.5,14c-1.378,0-2.5,1.122-2.5,2.5s1.122,2.5,2.5,2.5s2.5-1.122,2.5-2.5S16.878,14,15.5,14L15.5,14z M16,5v2.118l3-1.5v0.847
	l-3,2V13c0.635,0.078,1.671,0.639,2.262,1.271l3.883-2.316l0.181-3.601l0.727-0.434l0.248,3.345l1.819-1.085l0.512,0.859
	l-1.819,1.085l2.825,1.808l-0.727,0.434l-3.254-1.552l-3.865,2.305c0.267,0.669,0.284,2.234,0,2.762l3.865,2.305l3.254-1.552
	l0.727,0.434l-2.825,1.808l1.819,1.085l-0.512,0.859l-1.819-1.085l-0.248,3.345l-0.727-0.434l-0.181-3.601l-3.883-2.316
	C17.982,19.112,16.68,19.941,16,20v4.535l3,2v0.847l-3-1.5V28h-1v-2.118l-3,1.5v-0.847l3-2L15,20
	c-0.561-0.059-1.782-0.698-2.262-1.271l-3.883,2.316l-0.181,3.601L7.947,25.08l-0.248-3.345L5.879,22.82l-0.512-0.859l1.819-1.085
	l-2.825-1.808l0.727-0.434l3.254,1.552l3.865-2.305c-0.314-0.558-0.261-2.358,0-2.762l-3.865-2.305l-3.254,1.552l-0.727-0.434
	l2.825-1.808l-1.819-1.085l0.512-0.859l1.819,1.085L7.947,7.92l0.727,0.434l0.181,3.601l3.883,2.316C13.11,13.78,14.38,13.055,15,13
	l0-4.535l-3-2V5.618l3,1.5V5H16z M17,5.5V4h-3v1.5L11,4v3l3,2v3.275c-0.501,0.178-0.955,0.442-1.357,0.774l-2.816-1.68L9.646,7.769
	L7.069,6.233L6.821,9.578L5.532,8.809l-1.537,2.576l1.288,0.769l-2.825,1.808l2.577,1.537l3.254-1.552l2.799,1.669
	C11.032,15.902,11,16.197,11,16.5s0.032,0.598,0.089,0.884L8.29,19.053l-3.254-1.552l-2.577,1.537l2.825,1.808l-1.288,0.769
	l1.537,2.576l1.288-0.768l0.248,3.345l2.577-1.537l0.181-3.601l2.816-1.68c0.401,0.333,0.856,0.596,1.357,0.774V24l-3,2v3l3-1.5V29
	h3v-1.5l3,1.5v-3l-3-2v-3.275c0.501-0.178,0.955-0.442,1.357-0.774l2.816,1.68l0.181,3.601l2.577,1.537l0.248-3.345l1.288,0.768
	l1.537-2.576l-1.288-0.769l2.825-1.808l-2.577-1.537l-3.254,1.552l-2.799-1.669C19.968,17.098,20,16.803,20,16.5
	s-0.032-0.598-0.089-0.884l2.799-1.669l3.254,1.552l2.577-1.537l-2.825-1.808l1.288-0.769l-1.537-2.576l-1.288,0.768l-0.248-3.345
	l-2.577,1.537l-0.181,3.601l-2.816,1.68c-0.401-0.333-0.856-0.596-1.357-0.774V9l3-2V4L17,5.5z"/>
</svg>