<?xml version="1.0" encoding="utf-8"?>
<!-- Generator: Adobe Illustrator 22.0.1, SVG Export Plug-In . SVG Version: 6.00 Build 0)  -->
<svg version="1.1" id="designs" xmlns="http://www.w3.org/2000/svg" xmlns:xlink="http://www.w3.org/1999/xlink" x="0px" y="0px"
	 width="32px" height="32px" viewBox="0 0 32 32" style="enable-background:new 0 0 32 32;" xml:space="preserve">
<style type="text/css">
	.scienceandfiction_een{fill:#2B4099;}
	.scienceandfiction_twee{fill:#CC2954;}
</style>
<path class="scienceandfiction_twee" d="M15,14l-2,2v3l2,2h1l2-2v-3l-2-2H15z M17,18.586L15.586,20h-0.172L14,18.586v-2.172
	L15.414,15h0.172L17,16.414V18.586z M7,23.5h1v2H7V23.5z M5,23.5h1v2H5V23.5z M11,23.5h1v2h-1V23.5z M9,23.5h1v2H9V23.5z M15,23.5h1
	v2h-1V23.5z M13,23.5h1v2h-1V23.5z M19,23.5h1v2h-1V23.5z M17,23.5h1v2h-1V23.5z M23,23.5h1v2h-1V23.5z M26,23.5v2h-1v-2H26z
	 M21,23.5h1v2h-1V23.5z"/>
<path class="scienceandfiction_een" d="M7,21h3v-3H7V21z M8,19h1v1H8V19z M21,21h3v-3h-3V21z M22,19h1v1h-1V19z M27,23V12h-1l-4,3
	h-1l-5-9h-1l-5.083,9H9l-4-3H4v11H3v3h25v-3H27z M5,13.25L8.667,16H10.5l4.997-8.846L20.412,16h1.922L26,13.25V23H5V13.25z M27,25H4
	v-1h23V25z"/>
</svg>