<?xml version="1.0" encoding="utf-8"?>
<!-- Generator: Adobe Illustrator 22.0.1, SVG Export Plug-In . SVG Version: 6.00 Build 0)  -->
<svg version="1.1" id="designs" xmlns="http://www.w3.org/2000/svg" xmlns:xlink="http://www.w3.org/1999/xlink" x="0px" y="0px"
	 width="32px" height="32px" viewBox="0 0 32 32" style="enable-background:new 0 0 32 32;" xml:space="preserve">
<style type="text/css">
	.scienceandfiction_een{fill:#2B4099;}
	.scienceandfiction_twee{fill:#CC2954;}
</style>
<path class="scienceandfiction_een" d="M21,25v3H11v-3H21z M22,24H10v5h12V24L22,24z"/>
<path class="scienceandfiction_twee" d="M15,9l0,2h3v6h1.826L16,21.463L12.174,17H14V9H15z M16,8h-3v8h-3l6,7l6-7h-3v-6h-3L16,8
	L16,8z M18,6v1h-1V6H18z M19,5h-3v3h3V5L19,5z M15,3v1h-1V3H15z M16,2h-3v3h3V2L16,2z"/>
</svg>