<?xml version="1.0" encoding="utf-8"?>
<!-- Generator: Adobe Illustrator 22.0.1, SVG Export Plug-In . SVG Version: 6.00 Build 0)  -->
<svg version="1.1" id="designs" xmlns="http://www.w3.org/2000/svg" xmlns:xlink="http://www.w3.org/1999/xlink" x="0px" y="0px"
	 width="32px" height="32px" viewBox="0 0 32 32" style="enable-background:new 0 0 32 32;" xml:space="preserve">
<style type="text/css">
	.scienceandfiction_een{fill:#2B4099;}
	.scienceandfiction_twee{fill:#CC2954;}
</style>
<path class="scienceandfiction_twee" d="M9.5,15c1.933,0,3.5-1.567,3.5-3.5S11.433,8,9.5,8S6,9.567,6,11.5S7.567,15,9.5,15z M9.5,9
	c1.378,0,2.5,1.121,2.5,2.5S10.878,14,9.5,14S7,12.879,7,11.5S8.122,9,9.5,9z M9.5,13c0.828,0,1.5-0.672,1.5-1.5S10.328,10,9.5,10
	S8,10.672,8,11.5S8.672,13,9.5,13z M9.5,11c0.276,0,0.5,0.224,0.5,0.5S9.776,12,9.5,12S9,11.776,9,11.5S9.224,11,9.5,11z M13,20H7
	v-1h6V20z M6,20H5v-1h1V20z M4,20H3v-1h1V20z M22,20h-6v-1h6V20z M14,19h1v1h-1V19z M25,19h3v1h-3V19z M24,20h-1v-1h1V20z M14,27h6
	v1h-6V27z M8,27h3v1H9L8,27z M12,27h1v1h-1V27z M8,24H5l-1-1h4V24z M21,27h2l-1,1h-1V27z M17,24h-6v-1h6V24z M9,24v-1h1v1H9z M20,23
	h7l-1.167,1H20V23z M18,24v-1h1v1H18z M14,6H8l1-1h5V6z M23,6h-6V5h5L23,6z M16,13h5v1h-5V13z M15,14h-1v-1h1V14z M28,13v1h-4v-1H28
	z M23,14h-1v-1h1V14z M16,6h-1V5h1V6z M18,10h-4V9h4V10z M20,9v1h-1V9H20z M21,9h5l1,1h-6V9z"/>
<path class="scienceandfiction_een" d="M17.443,3.136C7.913,1.807-0.048,10.438,2.471,20.121c1.191,4.578,4.83,8.218,9.408,9.408
	c9.683,2.519,18.314-5.442,16.985-14.972C28.042,8.663,23.337,3.958,17.443,3.136z M15.5,4C22.224,4,27.734,9.34,28,16H3
	C3.278,9.352,8.785,4,15.5,4z M15.5,29C8.768,29,3.252,23.672,3,17h25C27.735,23.66,22.224,29,15.5,29z"/>
</svg>