<?xml version="1.0" encoding="utf-8"?>
<!-- Generator: Adobe Illustrator 22.0.1, SVG Export Plug-In . SVG Version: 6.00 Build 0)  -->
<svg version="1.1" id="designs" xmlns="http://www.w3.org/2000/svg" xmlns:xlink="http://www.w3.org/1999/xlink" x="0px" y="0px"
	 width="32px" height="32px" viewBox="0 0 32 32" style="enable-background:new 0 0 32 32;" xml:space="preserve">
<style type="text/css">
	.scienceandfiction_een{fill:#2B4099;}
	.scienceandfiction_twee{fill:#CC2954;}
</style>
<path class="scienceandfiction_twee" d="M28,10v10c0,2.21-0.9,4.21-2.34,5.66C24.21,27.1,22.21,28,20,28
	c-3.42,0-6.318-2.078-7.525-5.263c0.33-0.06,0.647-0.206,0.957-0.306C14.553,25.263,17.06,27,20,27c3.86,0,7-3.14,7-7v-9h-7.5v-1H28
	z M23.5,16c-0.827,0-1.5,0.673-1.5,1.5s0.673,1.5,1.5,1.5s1.5-0.673,1.5-1.5S24.327,16,23.5,16z M23.5,15c1.381,0,2.5,1.119,2.5,2.5
	S24.881,20,23.5,20S21,18.881,21,17.5S22.119,15,23.5,15L23.5,15z M23.854,23.646C22.808,22.601,21.403,22,20,22
	c-1.392,0-2.742,0.584-3.804,1.646l0.707,0.707C17.776,23.481,18.876,23,20,23c1.14,0,2.286,0.493,3.146,1.353L23.854,23.646z
	 M21.617,14H26v-1h-5l-1,2h-0.5v1h1.117L21.617,14z M21.617,14H26v-1h-5l-1,2h-0.5v1h1.117L21.617,14z"/>
<path class="scienceandfiction_een" d="M11,12.5c0-1.381-1.119-2.5-2.5-2.5S6,11.119,6,12.5S7.119,15,8.5,15S11,13.881,11,12.5z
	 M7,12.5C7,11.673,7.673,11,8.5,11s1.5,0.673,1.5,1.5S9.327,14,8.5,14S7,13.327,7,12.5z M15.5,10c-1.381,0-2.5,1.119-2.5,2.5
	s1.119,2.5,2.5,2.5s2.5-1.119,2.5-2.5S16.881,10,15.5,10z M15.5,14c-0.827,0-1.5-0.673-1.5-1.5s0.673-1.5,1.5-1.5s1.5,0.673,1.5,1.5
	S16.327,14,15.5,14z M8.854,17.646c0.865,0.865,2.012,1.361,3.146,1.361s2.281-0.496,3.146-1.361l0.707,0.707
	C14.802,19.405,13.397,20,12,20s-2.802-0.595-3.854-1.646L8.854,17.646z M6.378,9.378L5.671,8.671c1.512-1.511,4.146-1.511,5.657,0
	l-0.707,0.707C9.488,8.246,7.512,8.246,6.378,9.378z M13.378,9.378l-0.707-0.707C13.427,7.916,14.432,7.5,15.5,7.5
	c1.069,0,2.073,0.416,2.828,1.171l-0.707,0.707C16.488,8.246,14.512,8.246,13.378,9.378z M4,5v10c0,4.42,3.5,8,8,8s8-4.45,8-8V5H4z
	 M19,15c0,3.151-3.23,7-7,7c-3.925,0-7-3.075-7-7V6h14V15z"/>
</svg>