<?xml version="1.0" encoding="utf-8"?>
<!-- Generator: Adobe Illustrator 22.0.1, SVG Export Plug-In . SVG Version: 6.00 Build 0)  -->
<svg version="1.1" id="designs" xmlns="http://www.w3.org/2000/svg" xmlns:xlink="http://www.w3.org/1999/xlink" x="0px" y="0px"
	 width="32px" height="32px" viewBox="0 0 32 32" style="enable-background:new 0 0 32 32;" xml:space="preserve">
<style type="text/css">
	.scienceandfiction_een{fill:#2B4099;}
	.scienceandfiction_twee{fill:#CC2954;}
</style>
<path class="scienceandfiction_een" d="M24.5,11.5c0,1.378-1.121,2.5-2.5,2.5H2v-1h20c0.827,0,1.5-0.673,1.5-1.5S22.827,10,22,10V9
	C23.379,9,24.5,10.122,24.5,11.5z M19,19H2v1h17c0.827,0,1.5,0.673,1.5,1.5S19.827,23,19,23v1c1.379,0,2.5-1.122,2.5-2.5
	S20.379,19,19,19z"/>
<path class="scienceandfiction_twee" d="M26,16H15v-1h11c0.827,0,1.5-0.673,1.5-1.5S26.827,12,26,12v-1c1.379,0,2.5,1.122,2.5,2.5
	S27.379,16,26,16z M24,17H12v1h12c0.827,0,1.5,0.673,1.5,1.5S24.827,21,24,21v1c1.379,0,2.5-1.122,2.5-2.5S25.379,17,24,17z M2,18h7
	v-1H2V18z M10,18h1v-1h-1V18z M29,10v1h1v-1H29z M27,8h-1v1h1V8z M12,15H2v1h10V15z M14,15h-1v1h1V15z M28,18h1v-1h-1V18z M23,25h1
	v-1h-1V25z M27,23h1v-1h-1V23z"/>
</svg>