<?xml version="1.0" encoding="utf-8"?>
<!-- Generator: Adobe Illustrator 22.0.1, SVG Export Plug-In . SVG Version: 6.00 Build 0)  -->
<svg version="1.1" id="designs" xmlns="http://www.w3.org/2000/svg" xmlns:xlink="http://www.w3.org/1999/xlink" x="0px" y="0px"
	 width="32px" height="32px" viewBox="0 0 32 32" style="enable-background:new 0 0 32 32;" xml:space="preserve">
<style type="text/css">
	.scienceandfiction_een{fill:#2B4099;}
	.scienceandfiction_twee{fill:#CC2954;}
</style>
<path class="scienceandfiction_een" d="M3.777,13.541C5.048,14.011,6,14.599,6,15v3c0,0.401-0.952,0.989-2.223,1.459L5.088,16.5
	L3.777,13.541z M2,12l1.994,4.5L2,21c0,0,5-1,5-3c0-0.75,0-2,0-3C7,13,2,12,2,12L2,12z M26,14c1.003,0,2.348,1.433,3,2.317v0.367
	C28.35,17.569,27.009,19,26,19h-1v-5H26z M26,13h-2v7h2c2,0,4-3,4-3v-1C30,16,28,13,26,13L26,13z"/>
<path class="scienceandfiction_twee" d="M23,16h1v1h-1v2h-1v-2h-1v3h-1v-3h-1v4h-1v-4h-1v4h-1v-4h-1v4h-1v-4h-1v3h-1v-3h-1v2h-1v-2
	H9v1H8v-1H7v-1h1v-1h1v1h1v-2h1v2h1v-3h1v3h1v-4h1v4h1v-4h1v4h1v-4h1v4h1v-3h1v3h1v-2h1V16z M26,16v1h1v-1H26z"/>
</svg>