<?xml version="1.0" encoding="utf-8"?>
<!-- Generator: Adobe Illustrator 22.0.1, SVG Export Plug-In . SVG Version: 6.00 Build 0)  -->
<svg version="1.1" id="designs" xmlns="http://www.w3.org/2000/svg" xmlns:xlink="http://www.w3.org/1999/xlink" x="0px" y="0px"
	 width="32px" height="32px" viewBox="0 0 32 32" style="enable-background:new 0 0 32 32;" xml:space="preserve">
<style type="text/css">
	.scienceandfiction_een{fill:#2B4099;}
	.scienceandfiction_twee{fill:#CC2954;}
</style>
<path class="scienceandfiction_twee" d="M17,16v3H8v-3h1v2h7v-2H17z"/>
<g>
	<g>
		<path class="scienceandfiction_een" d="M27,27V11l-3-3h-6V7l-3-3h-5L9.311,4.689L7.146,2.525L5.025,4.646l2.164,2.164L7,7v1H6v3h1
			v2h4v3h3v-3h4v-2h4v6c-1.658,0-3,1.343-3,3H6v1h13.184c0.413,1.163,1.512,2,2.816,2v4H4v3h25v-3H27z M7.146,3.939l1.414,1.414
			L7.854,6.061L6.439,4.646L7.146,3.939z M8,7.414L10.414,5h4.172L17,7.414V8H8V7.414z M13,15h-1v-2h1V15z M17,12H8v-1h9V12z M20,20
			c0-1.103,0.897-2,2-2c1.141,0,2,0.906,2,2c0,1.071-0.812,2-2,2C20.897,22,20,21.103,20,20z M23,22.816
			c1.166-0.411,2-1.514,2-2.816s-0.834-2.405-2-2.816V10H7V9h16.59L26,11.41V27h-3V22.816z M28,29H5v-1h23V29z"/>
	</g>
	<g>
		<path class="scienceandfiction_een" d="M27,27V11l-3-3h-6V7l-3-3h-5L9.311,4.689L7.146,2.525L5.025,4.646l2.164,2.164L7,7v1H6v3h1
			v2h4v3h3v-3h4v-2h4v6c-1.658,0-3,1.343-3,3H6v1h13.184c0.413,1.163,1.512,2,2.816,2v4H4v3h25v-3H27z M7.146,3.939l1.414,1.414
			L7.854,6.061L6.439,4.646L7.146,3.939z M8,7.414L10.414,5h4.172L17,7.414V8H8V7.414z M13,15h-1v-2h1V15z M17,12H8v-1h9V12z M20,20
			c0-1.103,0.897-2,2-2c1.141,0,2,0.906,2,2c0,1.071-0.812,2-2,2C20.897,22,20,21.103,20,20z M23,22.816
			c1.166-0.411,2-1.514,2-2.816s-0.834-2.405-2-2.816V10H7V9h16.59L26,11.41V27h-3V22.816z M28,29H5v-1h23V29z"/>
	</g>
</g>
</svg>