<?xml version="1.0" encoding="utf-8"?>
<!-- Generator: Adobe Illustrator 22.0.1, SVG Export Plug-In . SVG Version: 6.00 Build 0)  -->
<svg version="1.1" id="designs" xmlns="http://www.w3.org/2000/svg" xmlns:xlink="http://www.w3.org/1999/xlink" x="0px" y="0px"
	 width="32px" height="32px" viewBox="0 0 32 32" style="enable-background:new 0 0 32 32;" xml:space="preserve">
<style type="text/css">
	.scienceandfiction_twee{fill:#CC2954;}
	.scienceandfiction_een{fill:#2B4099;}
</style>
<path class="scienceandfiction_twee" d="M8,23v6H7v-6H8L8,23z M6,24H5v4h1V24L6,24z M10,23H9v6h1V23L10,23z M12,24h-1v4h1V24L12,24z
	 M14,23h-1v6h1V23L14,23z M16,22h-1v8h1V22L16,22z M18,23h-1v6h1V23L18,23z M20,24h-1v4h1V24L20,24z M22,23h-1v6h1V23L22,23z M24,23
	h-1v6h1V23L24,23z M26,24h-1v4h1V24L26,24z"/>
<path class="scienceandfiction_een" d="M21.227,5c-0.325,0-0.649,0.04-0.964,0.1C19.06,3.8,17.371,3,15.5,3
	c-1.871,0-3.56,0.8-4.763,2.1C10.422,5.04,10.097,5,9.773,5C7.138,5,5,7.24,5,10s2.138,5,4.773,5c0.325,0,0.649-0.04,0.964-0.1
	C11.94,16.2,13.629,17,15.5,17c1.871,0,3.56-0.8,4.763-2.1c0.315,0.06,0.64,0.1,0.964,0.1C23.862,15,26,12.76,26,10
	S23.862,5,21.227,5z M15.489,16h0.021c-0.004,0-0.007,0-0.011,0S15.493,16,15.489,16z M24,12.691v-0.69h-1v1.508
	c-0.313,0.178-0.643,0.326-1,0.405V12h-1v1.976c-0.174-0.011-0.344-0.019-0.55-0.058L20,13.832V12h-1v2.718
	c-0.312,0.262-0.647,0.484-1,0.668V12h-1v3.785c-0.325,0.093-0.658,0.158-1,0.189V12h-1v3.975c-0.342-0.031-0.675-0.096-1-0.189V12
	h-1v3.386c-0.353-0.184-0.688-0.406-1-0.667V12h-1v1.832l-0.45,0.086c-0.206,0.039-0.375,0.047-0.55,0.058V12H9v1.914
	c-0.357-0.079-0.687-0.227-1-0.405V12H7v0.691C6.385,11.979,6,11.039,6,10c0-2.206,1.692-4,3.773-4c0.232,0,1.322,0.186,1.322,0.186
	l0.377-0.407C12.532,4.632,13.963,4,15.5,4c1.537,0,2.968,0.632,4.029,1.779l0.377,0.407c0,0,1.09-0.186,1.322-0.186
	C23.308,6,25,7.794,25,10C25,11.039,24.615,11.979,24,12.691z"/>
</svg>