<?xml version="1.0" encoding="utf-8"?>
<!-- Generator: Adobe Illustrator 22.0.1, SVG Export Plug-In . SVG Version: 6.00 Build 0)  -->
<svg version="1.1" id="designs" xmlns="http://www.w3.org/2000/svg" xmlns:xlink="http://www.w3.org/1999/xlink" x="0px" y="0px"
	 width="32px" height="32px" viewBox="0 0 32 32" style="enable-background:new 0 0 32 32;" xml:space="preserve">
<style type="text/css">
	.scienceandfiction_een{fill:#2B4099;}
	.scienceandfiction_twee{fill:#CC2954;}
</style>
<path class="scienceandfiction_twee" d="M17.5,25v1h-4v-1H17.5L17.5,25z M17,23h-3l-0.5,1h4L17,23L17,23z M17.5,27h-4v1h4V27
	L17.5,27z M15.595,3H15v2h0.577l1.009-1.04L15.595,3z M16,2l2,1.938L16,6h-2V2H16L16,2z"/>
<path class="scienceandfiction_een" d="M5.5,24C6.328,24,7,23.328,7,22.5S6.328,21,5.5,21S4,21.672,4,22.5S4.672,24,5.5,24z M5.5,22
	C5.776,22,6,22.224,6,22.5S5.776,23,5.5,23S5,22.776,5,22.5S5.224,22,5.5,22z M25.5,24c0.828,0,1.5-0.672,1.5-1.5S26.328,21,25.5,21
	S24,21.672,24,22.5S24.672,24,25.5,24z M25.5,22c0.276,0,0.5,0.224,0.5,0.5S25.776,23,25.5,23S25,22.776,25,22.5S25.224,22,25.5,22z
	 M18.5,16c-0.828,0-1.5,0.672-1.5,1.5s0.672,1.5,1.5,1.5s1.5-0.672,1.5-1.5S19.328,16,18.5,16z M18.5,18c-0.276,0-0.5-0.224-0.5-0.5
	s0.224-0.5,0.5-0.5s0.5,0.224,0.5,0.5S18.776,18,18.5,18z M12.5,16c-0.828,0-1.5,0.672-1.5,1.5s0.672,1.5,1.5,1.5s1.5-0.672,1.5-1.5
	S13.328,16,12.5,16z M12.5,18c-0.276,0-0.5-0.224-0.5-0.5s0.224-0.5,0.5-0.5s0.5,0.224,0.5,0.5S12.776,18,12.5,18z M26,14v2h-1v-2
	h-2v-4h-3v2h-1v-2h-3v2h-1v-2V6h-1v4h-2v2h-1v-2H8v4H6v2H5v-2H2v16h27V14H26z M9,11h1v2h3v-2h1v2h3v-2h1v2h3v-2h1v3H9V11z M3,15h1v2
	h3v-2h1v3H3V15z M8,29H3V19h5V29z M14,29v-5.5c0-0.827,0.673-1.5,1.5-1.5s1.5,0.673,1.5,1.5V29H14z M22,29h-4v-5.5
	c0-1.381-1.119-2.5-2.5-2.5S13,22.119,13,23.5V29H9V15h13V29z M28,29h-5V19h5V29z M23,18v-3h1v2h3v-2h1v3H23z"/>
</svg>