<?xml version="1.0" encoding="utf-8"?>
<!-- Generator: Adobe Illustrator 22.0.1, SVG Export Plug-In . SVG Version: 6.00 Build 0)  -->
<svg version="1.1" id="designs" xmlns="http://www.w3.org/2000/svg" xmlns:xlink="http://www.w3.org/1999/xlink" x="0px" y="0px"
	 width="32px" height="32px" viewBox="0 0 32 32" style="enable-background:new 0 0 32 32;" xml:space="preserve">
<style type="text/css">
	.scienceandfiction_een{fill:#2B4099;}
	.scienceandfiction_twee{fill:#CC2954;}
</style>
<path class="scienceandfiction_twee" d="M16,5v4h-1V5H16L16,5z M24.692,8.601l-2.828,2.828l0.707,0.707l2.828-2.828L24.692,8.601
	L24.692,8.601z M6.308,8.601L5.601,9.308l2.828,2.828l0.707-0.707L6.308,8.601L6.308,8.601z M29,18h-4v1h4V18L29,18z M6,18H2v1h4V18
	L6,18z M21,18.5c0-3.032-2.468-5.5-5.5-5.5c-1.47,0-2.851,0.572-3.889,1.611l0.707,0.707C13.167,14.468,14.298,14,15.5,14
	c2.481,0,4.5,2.019,4.5,4.5c0,0.798-0.211,1.581-0.61,2.266l0.863,0.504C20.742,20.433,21,19.475,21,18.5z M15.5,11
	C11.36,11,8,14.36,8,18.5c0,1.47,0.43,2.85,1.17,4h1.22C9.52,21.4,9,20.01,9,18.5c0-3.58,2.92-6.5,6.5-6.5s6.5,2.92,6.5,6.5
	c0,1.29-0.35,2.49-1,3.5v0.5h0.83c0.74-1.15,1.17-2.53,1.17-4C23,14.36,19.64,11,15.5,11z"/>
<path class="scienceandfiction_een" d="M11,22v1H7v-1H11L11,22z M18,22h-4v1h4V22L18,22z M13,22h-1v1h1V22L13,22z M6,22H5v1h1V22
	L6,22z M27,22h-1v1h1V22L27,22z M25,22h-4v1h4V22L25,22z M20,22h-1v1h1V22L20,22z M10,26H6v1h4V26L10,26z M17,26h-4v1h4V26L17,26z
	 M12,26h-1v1h1V26L12,26z M26,26h-1v1h1V26L26,26z M30,24h-1v1h1V24L30,24z M5,26H4v1h1V26L5,26z M24,26h-4v1h4V26L24,26z M19,26h-1
	v1h1V26L19,26z M7,24H3v1h4V24L7,24z M14,24h-4v1h4V24L14,24z M9,24H8v1h1V24L9,24z M23,24h-1v1h1V24L23,24z M21,24h-4v1h4V24L21,24
	z M28,24h-4v1h4V24L28,24z M16,24h-1v1h1V24L16,24z"/>
</svg>