<?xml version="1.0" encoding="utf-8"?>
<!-- Generator: Adobe Illustrator 22.0.1, SVG Export Plug-In . SVG Version: 6.00 Build 0)  -->
<svg version="1.1" id="designs" xmlns="http://www.w3.org/2000/svg" xmlns:xlink="http://www.w3.org/1999/xlink" x="0px" y="0px"
	 width="32px" height="32px" viewBox="0 0 32 32" style="enable-background:new 0 0 32 32;" xml:space="preserve">
<style type="text/css">
	.scienceandfiction_twee{fill:#CC2954;}
	.scienceandfiction_een{fill:#2B4099;}
</style>
<path class="scienceandfiction_twee" d="M17,19.5V9l1-2.12V2l0,0h-5v4.94L14,9v10.5h1V8.77l-1-2.06V3h3v3.656l-1,2.12V19.5H17z"/>
<path class="scienceandfiction_een" d="M19,19h-7v1h1v7.5c0,1.381,1.119,2.5,2.5,2.5s2.5-1.119,2.5-2.5V20h1V19z M17,21h-2v1h2v1h-2
	v1h2v1h-2v1h2v1h-2v1h1.908c-0.207,0.581-0.757,1-1.408,1c-0.827,0-1.5-0.673-1.5-1.5V20h3V21z"/>
</svg>