<?xml version="1.0" encoding="utf-8"?>
<!-- Generator: Adobe Illustrator 22.0.1, SVG Export Plug-In . SVG Version: 6.00 Build 0)  -->
<svg version="1.1" id="designs" xmlns="http://www.w3.org/2000/svg" xmlns:xlink="http://www.w3.org/1999/xlink" x="0px" y="0px"
	 width="32px" height="32px" viewBox="0 0 32 32" style="enable-background:new 0 0 32 32;" xml:space="preserve">
<style type="text/css">
	.scienceandfiction_een{fill:#2B4099;}
	.scienceandfiction_twee{fill:#CC2954;}
</style>
<path class="scienceandfiction_twee" d="M17,12v-2h-3v2h-2v3h2v4h3v-4h2v-3H17z M18,14h-2v4h-1v-4h-2v-1h2v-2h1v2h2V14z M14,21h5v1
	h-5V21z M13,22h-1v-1h1V22z M12,23h5v1h-5V23z M18,23h1v1h-1V23z"/>
<path class="scienceandfiction_een" d="M24,11.5C24,6.806,20.194,3,15.5,3c-3.453,0-6.418,2.062-7.749,5.019
	C7.746,8.024,7.739,8.028,7.733,8.033l0.007,0.007C7.268,9.098,7,10.267,7,11.5V30h17V11.5z M10.73,29
	c0.171-0.292,0.27-0.639,0.27-1c0-1,0-0.999,0-0.999h0c0-0.552,0.449-1,1-1S13,26.448,13,27h1c0-1.103-0.896-1.999-1.999-1.999
	c-0.871,0-1.607,0.563-1.88,1.343C9.801,26.126,9.415,25.999,9,25.999v1c0.545,0,1.006,0.465,1.006,1.015
	c0,0.543-0.451,0.985-1.006,0.985V29H8V11.5c0-1.006,0.202-1.964,0.563-2.841c0.391-0.29,0.939-0.273,1.292,0.082
	c0.189,0.188,0.292,0.439,0.292,0.707c0,0.267-0.104,0.519-0.292,0.707l0.707,0.707c0.377-0.378,0.585-0.88,0.585-1.414
	c0-0.535-0.208-1.037-0.585-1.414c-0.378-0.378-0.871-0.568-1.367-0.58C10.531,5.379,12.855,4,15.5,4
	c1.233,0,2.395,0.305,3.422,0.834C18.369,5.188,18,5.801,18,6.5c0,0,0,0.001,0,0.001h0v0.498c0,0.552-0.448,1-1,1
	c-0.551,0-1-0.448-1-1h-1c0,1.103,0.897,2,2,2c0.727,0,1.358-0.394,1.708-0.975c0.351,0.302,0.8,0.491,1.298,0.491v-1
	C19.461,7.515,19,7.05,19,6.5c0-0.542,0.449-0.982,1.002-0.984C21.818,6.885,23,9.055,23,11.5v4.777
	c-0.295-0.172-0.634-0.278-0.999-0.278c-1.103,0-2,0.897-2,2h1c0-0.552,0.448-1,1-1c0.55,0,0.996,0.446,0.999,0.995V29H10.73z
	 M20,19h1v1h-1V19z"/>
</svg>