<?xml version="1.0" encoding="utf-8"?>
<!-- Generator: Adobe Illustrator 22.0.1, SVG Export Plug-In . SVG Version: 6.00 Build 0)  -->
<svg version="1.1" id="designs" xmlns="http://www.w3.org/2000/svg" xmlns:xlink="http://www.w3.org/1999/xlink" x="0px" y="0px"
	 width="32px" height="32px" viewBox="0 0 32 32" style="enable-background:new 0 0 32 32;" xml:space="preserve">
<style type="text/css">
	.scienceandfiction_een{fill:#2B4099;}
	.scienceandfiction_twee{fill:#CC2954;}
</style>
<path class="scienceandfiction_twee" d="M13,6H7V5h6V6z M22,5h-6v1h6V5z M15,5h-1v1h1V5z M23,5v1h1V5H23z M22,9h-3v1h3V9z M10,10h6
	V9h-6V10z M17,11h-5v1h5V11z M8,10h1V9H8V10z M18,10V9h-1v1H18z M17,15h-1v1h1V15z M18,7h-6v1h6V7z M10,7v1h1V7H10z M19,7v1h1V7H19z
	 M20,13h-4v1h4V13z M13,13h-2v1h2V13z M15,14v-1h-1v1H15z M18,22h2v-1h-2V22z M18,19h-1v1h1V19z M16,22h1v-1h-1V22z M13,18v-1h-1v1
	H13z M14,30h1v-1h-1V30z M13,28v1h1v-1H13z M11,29h1v-1h-1V29z M12,27v1h1v-1H12z M11,26h-1v1h1V26z M18,30h1v-1h-1V30z M16,31h1v-1
	h-1V31z M19,29h1v-1h-1V29z M21,29h1v-1h-1V29z M22,27h1v-1h-1V27z M20,27v1h1v-1H20z M21,17h-1v1h1V17z M19,17h-5v1h5V17z"/>
<path class="scienceandfiction_een" d="M9,8H7C5.622,8,4.5,6.879,4.5,5.5S5.622,3,7,3v1C6.173,4,5.5,4.673,5.5,5.5S6.173,7,7,7h2V8z
	 M18,11v1h2c0.827,0,1.5,0.673,1.5,1.5S20.827,15,20,15h-2v1h2c1.379,0,2.5-1.121,2.5-2.5c0-0.565-0.195-1.081-0.512-1.5H24v-1H18z
	 M15,15h-4v1h4V15z M19,20h2v-1h-2V20z M23,7h-2v1h2c0.275,0,0.5,0.225,0.5,0.5S23.275,9,23,9v1c0.827,0,1.5-0.673,1.5-1.5
	S23.827,7,23,7z M15.5,27.5c0,0.827,0.673,1.5,1.5,1.5v-1c-0.276,0-0.5-0.225-0.5-0.5S16.724,27,17,27v-1
	C16.173,26,15.5,26.673,15.5,27.5z M10,12h1v-1h-1c-0.827,0-1.5,0.673-1.5,1.5S9.173,14,10,14v-1c-0.276,0-0.5-0.225-0.5-0.5
	S9.724,12,10,12z M16,23c-0.827,0-1.5-0.673-1.5-1.5S15.173,20,16,20v-1c-1.378,0-2.5,1.121-2.5,2.5S14.622,24,16,24V23z M18,23h-1
	v1h1c0.552,0,1,0.448,1,1s-0.448,1-1,1v1c1.103,0,2-0.897,2-2S19.103,23,18,23z M25,3H11v1h14c0.552,0,1,0.448,1,1s-0.448,1-1,1v1
	c1.103,0,2-0.897,2-2S26.103,3,25,3z"/>
</svg>