<?xml version="1.0" encoding="utf-8"?>
<!-- Generator: Adobe Illustrator 22.0.1, SVG Export Plug-In . SVG Version: 6.00 Build 0)  -->
<svg version="1.1" id="designs" xmlns="http://www.w3.org/2000/svg" xmlns:xlink="http://www.w3.org/1999/xlink" x="0px" y="0px"
	 width="32px" height="32px" viewBox="0 0 32 32" style="enable-background:new 0 0 32 32;" xml:space="preserve">
<style type="text/css">
	.scienceandfiction_een{fill:#2B4099;}
	.scienceandfiction_twee{fill:#CC2954;}
</style>
<path class="scienceandfiction_twee" d="M18.988,28.858l-0.977-0.217l0.809-3.638l-3,1l1.191-5.362l0.977,0.217l-0.809,3.638l3-1
	L18.988,28.858z M14.18,18.497l-3,1l0.977-4.418l-0.977-0.217L9.82,21.003l3-1l-0.809,3.638l0.977,0.217L14.18,18.497z"/>
<path class="scienceandfiction_een" d="M23.497,10h-1c0-1.103-0.897-2-2-2c-0.331,0-0.65,0.089-0.937,0.242
	C19.624,8.486,19.669,8.737,19.669,9h-1c0-1.103-0.897-2-2-2c-0.503,0-0.985,0.188-1.355,0.529l-0.678-0.735
	C15.192,6.282,15.914,6,16.669,6c1.036,0,1.951,0.528,2.49,1.329C19.573,7.122,20.026,7,20.497,7C22.152,7,23.497,8.346,23.497,10z
	 M26,10c0,2.76-2.117,5-4.752,5c-0.325,0-0.649-0.04-0.964-0.1c-1.203,1.3-2.892,2.1-4.763,2.1s-3.56-0.8-4.763-2.1
	c-0.315,0.06-0.64,0.1-0.964,0.1c-2.635,0-4.773-2.24-4.773-5s2.138-5,4.773-5c0.325,0,0.649,0.04,0.964,0.1
	C11.96,3.8,13.65,3,15.521,3s3.56,0.8,4.763,2.1c0.315-0.06,0.64-0.1,0.964-0.1C23.883,5,26,7.24,26,10z M25.021,10
	c0-2.206-1.692-4-3.773-4c-0.232,0-1.322,0.186-1.322,0.186L19.55,5.779C18.489,4.632,17.058,4,15.521,4s-2.968,0.632-4.029,1.779
	l-0.377,0.407c0,0-1.09-0.186-1.322-0.186c-2.08,0-3.773,1.794-3.773,4s1.692,4,3.773,4c0.232,0,1.322-0.186,1.322-0.186
	l0.377,0.407C12.553,15.368,13.984,16,15.521,16s2.968-0.632,4.029-1.779l0.377-0.407c0,0,1.09,0.186,1.322,0.186
	C23.328,14,25.021,12.206,25.021,10z"/>
</svg>