<?xml version="1.0" encoding="utf-8"?>
<!-- Generator: Adobe Illustrator 22.0.1, SVG Export Plug-In . SVG Version: 6.00 Build 0)  -->
<svg version="1.1" id="designs" xmlns="http://www.w3.org/2000/svg" xmlns:xlink="http://www.w3.org/1999/xlink" x="0px" y="0px"
	 width="32px" height="32px" viewBox="0 0 32 32" style="enable-background:new 0 0 32 32;" xml:space="preserve">
<style type="text/css">
	.scienceandfiction_een{fill:#2B4099;}
	.scienceandfiction_twee{fill:#CC2954;}
</style>
<path class="scienceandfiction_een" d="M20,29v2h-9v-2l3-1V14.5h1v14.22l-3,1V30h7v-0.28l-3-1V14.5h1V28L20,29z"/>
<path class="scienceandfiction_twee" d="M16,2h-1l-3.999,3H11v0v8h3v2h3v-2h3V5L16,2z M19,12h-2v-1h-1v3h-1v-3h-1v1h-2v-2h1V9h-1V8
	h2V7h-2V6h3V5h-2.333l2.666-2h0.333L19,5.5V12z"/>
</svg>