<?xml version="1.0" encoding="utf-8"?>
<!-- Generator: Adobe Illustrator 22.0.1, SVG Export Plug-In . SVG Version: 6.00 Build 0)  -->
<svg version="1.1" xmlns="http://www.w3.org/2000/svg" xmlns:xlink="http://www.w3.org/1999/xlink" x="0px" y="0px" width="32px"
	 height="32px" viewBox="0 0 32 32" style="enable-background:new 0 0 32 32;" xml:space="preserve">
<style type="text/css">
	.scienceandfiction_een{fill:#2B4099;}
	.scienceandfiction_twee{fill:#CC2954;}
	.st0{fill:#0B1719;}
</style>
<g id="verbs">
</g>
<g id="designs">
	<path class="scienceandfiction_een" d="M22,21v-0.031V5l-2-4l-2,4v15.969V21h-0.809l-1.139,2.276l0.895,0.447L17.809,22H18v9h4v-9
		h0.191l0.861,1.724l0.895-0.447L22.809,21H22z M20,3.236l1,2v9.041C20.705,14.106,20.366,14,20,14s-0.705,0.106-1,0.277V5.236
		L20,3.236z M21,16h-2c0-0.551,0.449-1,1-1S21,15.449,21,16z M19,17h2v2h-2V17z M19,20.969V20h2v0.969V21c0,0.551-0.449,1-1,1
		s-1-0.449-1-1V20.969z M19,30v-7.277C19.295,22.894,19.634,23,20,23s0.705-0.106,1-0.277V30H19z M13,21v-0.031V5l-2-4L9,5v15.969
		V21H8.191l-1.138,2.276l0.895,0.447L8.809,22H9v9h4v-9h0.191l0.862,1.724l0.895-0.447L13.809,21H13z M11,3.236l1,2v9.041
		C11.705,14.106,11.366,14,11,14s-0.705,0.106-1,0.277V5.236L11,3.236z M12,16h-2c0-0.551,0.449-1,1-1S12,15.449,12,16z M10,17h2v2
		h-2V17z M10,20.969V20h2v0.969V21c0,0.551-0.449,1-1,1s-1-0.449-1-1V20.969z M10,30v-7.277C10.295,22.894,10.634,23,11,23
		s0.705-0.106,1-0.277V30H10z"/>
	<path class="scienceandfiction_twee" d="M27.5,7H27V2h-4v1h1v4h1v19h-1v1h1v2h1v-2h1v-1h-1V11.489C26.419,11.805,26.935,12,27.5,12
		c1.381,0,2.5-1.119,2.5-2.5S28.881,7,27.5,7z M25,3h1v3h-1V3z M27.5,11c-0.827,0-1.5-0.673-1.5-1.5V8h1.5C28.327,8,29,8.673,29,9.5
		S28.327,11,27.5,11z M6,7h1V3h1V2H4v5H3.5C2.119,7,1,8.119,1,9.5S2.119,12,3.5,12c0.565,0,1.081-0.195,1.5-0.511V26H4v1h1v2h1v-2h1
		v-1H6V7z M6,3v3H5V3H6z M3.5,11C2.673,11,2,10.327,2,9.5S2.673,8,3.5,8H5v1.5C5,10.327,4.327,11,3.5,11z"/>
</g>
</svg>