<?xml version="1.0" encoding="utf-8"?>
<!-- Generator: Adobe Illustrator 22.0.1, SVG Export Plug-In . SVG Version: 6.00 Build 0)  -->
<svg version="1.1" id="designs" xmlns="http://www.w3.org/2000/svg" xmlns:xlink="http://www.w3.org/1999/xlink" x="0px" y="0px"
	 width="32px" height="32px" viewBox="0 0 32 32" style="enable-background:new 0 0 32 32;" xml:space="preserve">
<style type="text/css">
	.scienceandfiction_een{fill:#2B4099;}
	.scienceandfiction_twee{fill:#CC2954;}
</style>
<path class="scienceandfiction_twee" d="M11.5,6h8V5h-8V6z M11.5,4h8V3h-8V4z M11.5,12h8v-1h-8V12z M11.5,10h8V9h-8V10z M11.5,18h8
	v-1h-8V18z M11.5,16h8v-1h-8V16z M11.5,24h8v-1h-8V24z M11.5,22h8v-1h-8V22z M11.5,30h8v-1h-8V30z M11.5,28h8v-1h-8V28z"/>
<path class="scienceandfiction_een" d="M21,3v27h-1V3H21z M22,2h-3v29h3V2L22,2z M11,3v27h-1V3H11z M12,2H9v29h3V2L12,2z"/>
</svg>