<?xml version="1.0" encoding="utf-8"?>
<!-- Generator: Adobe Illustrator 22.0.1, SVG Export Plug-In . SVG Version: 6.00 Build 0)  -->
<svg version="1.1" id="designs" xmlns="http://www.w3.org/2000/svg" xmlns:xlink="http://www.w3.org/1999/xlink" x="0px" y="0px"
	 width="32px" height="32px" viewBox="0 0 32 32" style="enable-background:new 0 0 32 32;" xml:space="preserve">
<style type="text/css">
	.scienceandfiction_een{fill:#2B4099;}
	.scienceandfiction_twee{fill:#CC2954;}
</style>
<path class="scienceandfiction_twee" d="M19.5,3C18.672,3,18,3.672,18,4.5V8h1v2h-4v3.482h1V11h4V8h1V4.5C21,3.672,20.328,3,19.5,3z
	 M20,7h-1V4.5C19,4.224,19.224,4,19.5,4S20,4.224,20,4.5V7z"/>
<path class="scienceandfiction_een" d="M22,21H10v6h12V21z M21,26H11v-4h10V26z M26,16h-2.46c-1.97-1.854-4.617-3-7.54-3
	s-5.569,1.146-7.54,3H6v4h1v9h18v-9h1V16z M16,14c2.191,0,4.287,0.711,6.004,2H9.996C11.713,14.711,13.809,14,16,14z M24,28H8v-8h16
	V28z M25,19H7v-2h18V19z M17,23v1h-2v-1H17L17,23z"/>
</svg>