<?xml version="1.0" encoding="utf-8"?>
<!-- Generator: Adobe Illustrator 22.0.1, SVG Export Plug-In . SVG Version: 6.00 Build 0)  -->
<svg version="1.1" id="designs" xmlns="http://www.w3.org/2000/svg" xmlns:xlink="http://www.w3.org/1999/xlink" x="0px" y="0px"
	 width="32px" height="32px" viewBox="0 0 32 32" style="enable-background:new 0 0 32 32;" xml:space="preserve">
<style type="text/css">
	.scienceandfiction_een{fill:#2B4099;}
	.scienceandfiction_twee{fill:#CC2954;}
</style>
<path class="scienceandfiction_twee" d="M12,3h1v1h-1V3z M14,20.502V9h1l7,1V3l-7,1h-1V2h-3v2h-1v5h1v11.502h1V9h1v11.502H14z
	 M15.071,8H11V5h4.071L19,4.439v4.123L15.071,8z M21,8.847l-1-0.143V4.296l1-0.143V8.847z"/>
<path class="scienceandfiction_een" d="M15,21h1v-1H9v1h1v7.5c0,1.381,1.119,2.5,2.5,2.5s2.5-1.119,2.5-2.5V21z M14,22h-2v1h2v1h-2
	v1h2v1h-2v1h2v1h-2v1h1.908c-0.207,0.581-0.757,1-1.408,1c-0.827,0-1.5-0.673-1.5-1.5V21h3V22z"/>
</svg>