<?xml version="1.0" encoding="utf-8"?>
<!-- Generator: Adobe Illustrator 22.0.1, SVG Export Plug-In . SVG Version: 6.00 Build 0)  -->
<svg version="1.1" id="designs" xmlns="http://www.w3.org/2000/svg" xmlns:xlink="http://www.w3.org/1999/xlink" x="0px" y="0px"
	 width="32px" height="32px" viewBox="0 0 32 32" style="enable-background:new 0 0 32 32;" xml:space="preserve">
<style type="text/css">
	.scienceandfiction_een{fill:#2B4099;}
	.scienceandfiction_twee{fill:#CC2954;}
</style>
<path class="scienceandfiction_twee" d="M23,20h-0.044l0.029,0.021L21,22.667V25h-1v-2.667L21.75,20H19v1h-1v-2h5V20z M20.5,27
	c3.04,0,5.5-2.46,5.5-5.5c0-3.04-2.46-5.5-5.5-5.5c-0.45,0-0.89,0.05-1.31,0.16c-0.38,0.64-0.84,1.22-1.37,1.74
	c0.75-0.57,1.67-0.9,2.68-0.9c2.48,0,4.5,2.02,4.5,4.5c0,2.48-2.02,4.5-4.5,4.5S16,23.98,16,21.5c0-1.17,0.44-2.23,1.19-3.03
	c-0.56,0.46-1.19,0.86-1.86,1.17C15.11,20.22,15,20.85,15,21.5C15,24.54,17.46,27,20.5,27z M20.5,12h-0.01
	c-0.02,0.34-0.06,0.67-0.11,1h0.12c4.69,0,8.5,3.81,8.5,8.5S25.19,30,20.5,30S12,26.19,12,21.5c0-0.34,0.02-0.68,0.06-1.02
	c-0.18,0.01-0.37,0.02-0.56,0.02c-0.15,0-0.3,0-0.45-0.01C11.02,20.82,11,21.16,11,21.5c0,5.25,4.25,9.5,9.5,9.5s9.5-4.25,9.5-9.5
	S25.75,12,20.5,12z"/>
<path class="scienceandfiction_een" d="M13,8c-1.105,0-2,0.895-2,2v3c0,1.105,0.895,2,2,2s2-0.895,2-2v-3C15,8.895,14.105,8,13,8z
	 M14,13c0,0.551-0.449,1-1,1s-1-0.449-1-1v-3c0-0.551,0.449-1,1-1s1,0.449,1,1V13z M8,8h2v7H9V9H8V8z M11.5,2
	C6.253,2,2,6.253,2,11.5S6.253,21,11.5,21s9.5-4.253,9.5-9.5S16.747,2,11.5,2z M11.5,3c2.59,0,4.909,1.168,6.469,3H5.031
	C6.591,4.168,8.91,3,11.5,3z M11.5,20c-2.59,0-4.909-1.168-6.469-3H18C16.44,18.832,14.09,20,11.5,20z M19.975,12H16v1h3.859
	c-0.061,0.34-0.136,0.675-0.236,1H16v1h3.237c-0.158,0.347-0.338,0.68-0.539,1H4.302c-0.201-0.32-0.382-0.653-0.539-1H7v-1H3.376
	c-0.1-0.325-0.175-0.66-0.236-1H7v-1H3.025C3.016,11.834,3,11.669,3,11.5s0.016-0.334,0.025-0.5H7v-1H3.141
	c0.061-0.34,0.136-0.675,0.236-1H7V8H3.763C3.92,7.653,4.101,7.32,4.302,7h14.396c0.201,0.32,0.382,0.653,0.539,1H16v1h3.624
	c0.1,0.325,0.175,0.66,0.236,1H16v1h3.975C19.984,11.166,20,11.331,20,11.5S19.984,11.834,19.975,12z"/>
</svg>