<?xml version="1.0" encoding="utf-8"?>
<!-- Generator: Adobe Illustrator 22.0.1, SVG Export Plug-In . SVG Version: 6.00 Build 0)  -->
<svg version="1.1" id="designs" xmlns="http://www.w3.org/2000/svg" xmlns:xlink="http://www.w3.org/1999/xlink" x="0px" y="0px"
	 width="32px" height="32px" viewBox="0 0 32 32" style="enable-background:new 0 0 32 32;" xml:space="preserve">
<style type="text/css">
	.scienceandfiction_een{fill:#2B4099;}
	.scienceandfiction_twee{fill:#CC2954;}
</style>
<path class="scienceandfiction_twee" d="M5,4v1H4V4H5L5,4z M6,5H5v1h1V5L6,5z M5,6H4v1h1V6L5,6z M6,7H5v1h1V7L6,7z M5,8H4v1h1V8L5,8
	z M6,9H5v1h1V9L6,9z M5,10H4v1h1V10L5,10z M7,4H6v1h1V4L7,4z M8,5H7v1h1V5L8,5z M7,6H6v1h1V6L7,6z M8,7H7v1h1V7L8,7z M7,8H6v1h1V8
	L7,8z M8,9H7v1h1V9L8,9z M7,10H6v1h1V10L7,10z M9,4H8v1h1V4L9,4z M10,5H9v1h1V5L10,5z M9,6H8v1h1V6L9,6z M10,7H9v1h1V7L10,7z M9,8H8
	v1h1V8L9,8z M10,9H9v1h1V9L10,9z M9,10H8v1h1V10L9,10z M11,4h-1v1h1V4L11,4z M12,5h-1v1h1V5L12,5z M11,6h-1v1h1V6L11,6z M12,7h-1v1
	h1V7L12,7z M11,8h-1v1h1V8L11,8z M12,9h-1v1h1V9L12,9z M11,10h-1v1h1V10L11,10z M13,4h-1v1h1V4L13,4z M14,5h-1v1h1V5L14,5z M13,6h-1
	v1h1V6L13,6z M14,7h-1v1h1V7L14,7z M13,8h-1v1h1V8L13,8z M14,9h-1v1h1V9L14,9z M13,10h-1v1h1V10L13,10z M15,4h-1v1h1V4L15,4z M16,5
	h-1v1h1V5L16,5z M15,6h-1v1h1V6L15,6z M16,7h-1v1h1V7L16,7z M15,8h-1v1h1V8L15,8z M16,9h-1v1h1V9L16,9z M15,10h-1v1h1V10L15,10z
	 M17,4h-1v1h1V4L17,4z M18,5h-1v1h1V5L18,5z M17,6h-1v1h1V6L17,6z M18,7h-1v1h1V7L18,7z M17,8h-1v1h1V8L17,8z M18,9h-1v1h1V9L18,9z
	 M17,10h-1v1h1V10L17,10z M19,4h-1v1h1V4L19,4z M20,5h-1v1h1V5L20,5z M19,6h-1v1h1V6L19,6z M20,7h-1v1h1V7L20,7z M19,8h-1v1h1V8
	L19,8z M20,9h-1v1h1V9L20,9z M19,10h-1v1h1V10L19,10z M21,4h-1v1h1V4L21,4z M22,5h-1v1h1V5L22,5z M21,6h-1v1h1V6L21,6z M22,7h-1v1h1
	V7L22,7z M21,8h-1v1h1V8L21,8z M22,9h-1v1h1V9L22,9z M21,10h-1v1h1V10L21,10z M23,4h-1v1h1V4L23,4z M24,5h-1v1h1V5L24,5z M23,6h-1v1
	h1V6L23,6z M24,7h-1v1h1V7L24,7z M23,8h-1v1h1V8L23,8z M24,9h-1v1h1V9L24,9z M23,10h-1v1h1V10L23,10z M25,4h-1v1h1V4L25,4z M26,5h-1
	v1h1V5L26,5z M25,6h-1v1h1V6L25,6z M26,7h-1v1h1V7L26,7z M25,8h-1v1h1V8L25,8z M26,9h-1v1h1V9L26,9z M25,10h-1v1h1V10L25,10z M27,4
	h-1v1h1V4L27,4z M28,5h-1v1h1V5L28,5z M27,6h-1v1h1V6L27,6z M28,7h-1v1h1V7L28,7z M27,8h-1v1h1V8L27,8z M28,9h-1v1h1V9L28,9z M27,10
	h-1v1h1V10L27,10z"/>
<path class="scienceandfiction_een" d="M3,3v26h1V12h24v17h1V3H3z M4,11V4h24v7H4z"/>
</svg>