<?xml version="1.0" encoding="utf-8"?>
<!-- Generator: Adobe Illustrator 22.0.1, SVG Export Plug-In . SVG Version: 6.00 Build 0)  -->
<svg version="1.1" id="designs" xmlns="http://www.w3.org/2000/svg" xmlns:xlink="http://www.w3.org/1999/xlink" x="0px" y="0px"
	 width="32px" height="32px" viewBox="0 0 32 32" style="enable-background:new 0 0 32 32;" xml:space="preserve">
<style type="text/css">
	.scienceandfiction_een{fill:#2B4099;}
	.scienceandfiction_twee{fill:#CC2954;}
</style>
<path class="scienceandfiction_twee" d="M25,30.5V28h-3v2.5h1V29h1v1.5H25z M13,30.5V29h3v1.5h1V28h-5v2.5H13z M15,16h-1v-1h1V16z
	 M15,18h-1v-1h1V18z M15,20h-1v-1h1V20z M15,22h-1v-1h1V22z M15,26h-1v-1h1V26z M15,24h-1v-1h1V24z M13,16h-1v-1h1V16z M13,18h-1v-1
	h1V18z M15,12h-1v-1h1V12z M15,14h-1v-1h1V14z M13,12h-1v-1h1V12z M13,14h-1v-1h1V14z M13,20h-1v-1h1V20z M13,22h-1v-1h1V22z M13,26
	h-1v-1h1V26z M13,24h-1v-1h1V24z M17,16h-1v-1h1V16z M17,18h-1v-1h1V18z M17,12h-1v-1h1V12z M17,14h-1v-1h1V14z M17,20h-1v-1h1V20z
	 M17,22h-1v-1h1V22z M17,26h-1v-1h1V26z M17,24h-1v-1h1V24z M6,23H5v-1h1V23z M6,25H5v-1h1V25z M6,26v1H5v-1H6z M7,22h1v1H7V22z
	 M7,24h1v1H7V24z M7,26h1v1H7V26z M5,21v1H4v-1H5z M5,23v1H4v-1H5z M5,25v1H4v-1H5z M4,27h1v1H4V27z M7,22H6v-1h1V22z M6,23h1v1H6
	V23z M6,25h1v1H6V25z M6,27h1v1H6V27z M8,21h1v1H8V21z M8,24v-1h1v1H8z M8,26v-1h1v1H8z M8,28v-1h1v1H8z M23,25h-1v-1h1V25z M20,24
	h1v1h-1V24z M20,26h1v1h-1V26z M23,27h-1v-1h1V27z M24,24v3h3v-3H24z M26,26h-1v-1h1V26z"/>
<path class="scienceandfiction_een" d="M24,22v-2h-1v2h-4V8h-1V6h-2V2h-1v2h-2v2h-2v2h-1v11H2v12h27v-9H24z M14,5h1v1h-1V5z M12,7h1
	h3h1v1h-5V7z M10,30H3V20h7V30z M18,30h-7V9h7V30z M28,30h-9v-7h9V30z"/>
</svg>