<?xml version="1.0" encoding="utf-8"?>
<!-- Generator: Adobe Illustrator 22.0.1, SVG Export Plug-In . SVG Version: 6.00 Build 0)  -->
<svg version="1.1" id="designs" xmlns="http://www.w3.org/2000/svg" xmlns:xlink="http://www.w3.org/1999/xlink" x="0px" y="0px"
	 width="32px" height="32px" viewBox="0 0 32 32" style="enable-background:new 0 0 32 32;" xml:space="preserve">
<style type="text/css">
	.scienceandfiction_een{fill:#2B4099;}
	.scienceandfiction_twee{fill:#CC2954;}
</style>
<path class="scienceandfiction_twee" d="M6.5,16c2.481,0,4.5,2.019,4.5,4.5S8.981,25,6.5,25S2,22.981,2,20.5S4.019,16,6.5,16z
	 M6.5,15C3.462,15,1,17.462,1,20.5S3.462,26,6.5,26s5.5-2.462,5.5-5.5S9.538,15,6.5,15L6.5,15z M25.5,16c2.481,0,4.5,2.019,4.5,4.5
	S27.981,25,25.5,25S21,22.981,21,20.5S23.019,16,25.5,16z M25.5,15c-3.038,0-5.5,2.462-5.5,5.5s2.462,5.5,5.5,5.5s5.5-2.462,5.5-5.5
	S28.538,15,25.5,15L25.5,15z M5,22H4v1h1V22z M7,23H6v1h1V23z M4,20H3v1h1V20z M24,22h-1v1h1V22z M26,23h-1v1h1V23z M23,20h-1v1h1
	V20z"/>
<path class="scienceandfiction_een" d="M25.543,20.723L20.768,6H17v1h3.046l1.296,4H11.86l-0.667-2H12V8H9v1h1.14l0.739,2.218L6,20
	v1h9l7.237-7.237l2.354,7.268L25.543,20.723z M11.308,12.505L13.806,20H7L11.308,12.505z M14.792,19.794L12.194,12h9.465l0.24,0.687
	L14.792,19.794z"/>
</svg>