<?xml version="1.0" encoding="utf-8"?>
<!-- Generator: Adobe Illustrator 22.0.1, SVG Export Plug-In . SVG Version: 6.00 Build 0)  -->
<svg version="1.1" id="designs" xmlns="http://www.w3.org/2000/svg" xmlns:xlink="http://www.w3.org/1999/xlink" x="0px" y="0px"
	 width="32px" height="32px" viewBox="0 0 32 32" style="enable-background:new 0 0 32 32;" xml:space="preserve">
<style type="text/css">
	.scienceandfiction_een{fill:#2B4099;}
	.scienceandfiction_twee{fill:#CC2954;}
</style>
<path class="scienceandfiction_een" d="M29,5H18V3h-4v2H3v4h2v15h11v2.092c-0.581,0.207-1,0.756-1,1.408c0,0.828,0.672,1.5,1.5,1.5
	s1.5-0.672,1.5-1.5c0-0.652-0.419-1.202-1-1.408V24h10V9h2V5z M16.5,28c-0.276,0-0.5-0.224-0.5-0.5s0.224-0.5,0.5-0.5
	s0.5,0.224,0.5,0.5S16.776,28,16.5,28z M15,4h2v1h-2V4z M26,23H6V9h20V23z M28,8H4V6h24V8z"/>
<path class="scienceandfiction_twee" d="M11.5,12C9.015,12,7,14.015,7,16.5S9.015,21,11.5,21s4.5-2.015,4.5-4.5S13.985,12,11.5,12z
	 M8,16.5c0-1.93,1.57-3.5,3.5-3.5c1.759,0,3.204,1.308,3.449,3H11v3.949C9.308,19.704,8,18.259,8,16.5z M12,19.949V17h2.949
	C14.728,18.527,13.527,19.728,12,19.949z M17,12h1v1h-1V12z M25,12v1h-6v-1H25z M17,14h1v1h-1V14z M19,14h6v1h-6V14z M17,16h1v1h-1
	V16z M19,16h6v1h-6V16z M17,18h1v1h-1V18z M19,18h6v1h-6V18z M22,20l3,0v1h-3V20z"/>
</svg>