<?xml version="1.0" encoding="utf-8"?>
<!-- Generator: Adobe Illustrator 22.0.1, SVG Export Plug-In . SVG Version: 6.00 Build 0)  -->
<svg version="1.1" id="designs" xmlns="http://www.w3.org/2000/svg" xmlns:xlink="http://www.w3.org/1999/xlink" x="0px" y="0px"
	 width="32px" height="32px" viewBox="0 0 32 32" style="enable-background:new 0 0 32 32;" xml:space="preserve">
<style type="text/css">
	.scienceandfiction_een{fill:#2B4099;}
	.scienceandfiction_twee{fill:#CC2954;}
</style>
<path class="scienceandfiction_een" d="M16,6c5.514,0,10,4.486,10,10s-4.486,10-10,10S6,21.514,6,16S10.486,6,16,6z M16,5
	C9.925,5,5,9.925,5,16s4.925,11,11,11s11-4.925,11-11S22.075,5,16,5L16,5z M16,4c6.617,0,12,5.383,12,12s-5.383,12-12,12
	S4,22.617,4,16S9.383,4,16,4z M16,3C8.82,3,3,8.82,3,16s5.82,13,13,13s13-5.82,13-13S23.18,3,16,3L16,3z"/>
<path class="scienceandfiction_twee" d="M22.5,13c-0.235,0-0.458,0.043-0.674,0.104C21.928,12.751,22,12.385,22,12
	c0-2.209-1.791-4-4-4s-4,1.791-4,4s1.791,4,4,4c0.735,0,1.414-0.212,2.006-0.558c0,0.02-0.006,0.038-0.006,0.058
	c0,1.381,1.119,2.5,2.5,2.5s2.5-1.119,2.5-2.5S23.881,13,22.5,13z M15,12c0-1.654,1.346-3,3-3s3,1.346,3,3s-1.346,3-3,3
	S15,13.654,15,12z M22.5,17c-0.827,0-1.5-0.673-1.5-1.5s0.673-1.5,1.5-1.5s1.5,0.673,1.5,1.5S23.327,17,22.5,17z M11.5,11
	c0.276,0,0.5,0.224,0.5,0.5S11.776,12,11.5,12S11,11.776,11,11.5S11.224,11,11.5,11z M11.5,10c-0.828,0-1.5,0.672-1.5,1.5
	s0.672,1.5,1.5,1.5s1.5-0.672,1.5-1.5S12.328,10,11.5,10L11.5,10z M16.5,18c0.276,0,0.5,0.224,0.5,0.5S16.776,19,16.5,19
	S16,18.776,16,18.5S16.224,18,16.5,18z M16.5,17c-0.828,0-1.5,0.672-1.5,1.5s0.672,1.5,1.5,1.5s1.5-0.672,1.5-1.5S17.328,17,16.5,17
	L16.5,17z M11,15c0.551,0,1,0.449,1,1v4c0,0.551-0.449,1-1,1s-1-0.449-1-1v-4C10,15.449,10.449,15,11,15z M11,14
	c-1.105,0-2,0.895-2,2v4c0,1.105,0.895,2,2,2s2-0.895,2-2v-4C13,14.895,12.105,14,11,14L11,14z"/>
</svg>