<?xml version="1.0" encoding="utf-8"?>
<!-- Generator: Adobe Illustrator 22.0.1, SVG Export Plug-In . SVG Version: 6.00 Build 0)  -->
<svg version="1.1" id="designs" xmlns="http://www.w3.org/2000/svg" xmlns:xlink="http://www.w3.org/1999/xlink" x="0px" y="0px"
	 width="32px" height="32px" viewBox="0 0 32 32" style="enable-background:new 0 0 32 32;" xml:space="preserve">
<style type="text/css">
	.scienceandfiction_twee{fill:#CC2954;}
	.scienceandfiction_een{fill:#2B4099;}
</style>
<path class="scienceandfiction_een" d="M26,2H7L5,6v1v1.5C5,9.328,5.672,10,6.5,10C6.676,10,6.843,9.964,7,9.908V21H6v10h21V21h-1
	V9.908C26.157,9.964,26.324,10,26.5,10c0.828,0,1.5-0.672,1.5-1.5V7V6L26,2z M7.618,3h17.764l1.5,3H26h-1h-1h-1h-1h-1h-1h-1h-1h-1
	h-1h-1h-1h-1h-1h-1h-1H9H8H7H6.118L7.618,3z M25,8.5C25,8.776,24.776,9,24.5,9S24,8.776,24,8.5V7h1V8.5z M23,8.5
	C23,8.776,22.776,9,22.5,9S22,8.776,22,8.5V7h1V8.5z M21,8.5C21,8.776,20.776,9,20.5,9S20,8.776,20,8.5V7h1V8.5z M19,8.5
	C19,8.776,18.776,9,18.5,9S18,8.776,18,8.5V7h1V8.5z M17,8.5C17,8.776,16.776,9,16.5,9S16,8.776,16,8.5V7h1V8.5z M15,8.5
	C15,8.776,14.776,9,14.5,9S14,8.776,14,8.5V7h1V8.5z M13,8.5C13,8.776,12.776,9,12.5,9S12,8.776,12,8.5V7h1V8.5z M11,8.5
	C11,8.776,10.776,9,10.5,9S10,8.776,10,8.5V7h1V8.5z M9,8.5C9,8.776,8.776,9,8.5,9S8,8.776,8,8.5V7h1V8.5z M6.5,9
	C6.224,9,6,8.776,6,8.5V7h1v1.5C7,8.776,6.776,9,6.5,9z M26,30H7v-8h12h3h4V30z M18,17.5l0.8,3.5H8V9.908
	C8.157,9.964,8.324,10,8.5,10c0.386,0,0.734-0.15,1-0.389C9.766,9.85,10.114,10,10.5,10s0.734-0.15,1-0.389
	C11.766,9.85,12.114,10,12.5,10s0.734-0.15,1-0.389C13.766,9.85,14.114,10,14.5,10s0.734-0.15,1-0.389
	C15.766,9.85,16.114,10,16.5,10s0.734-0.15,1-0.389C17.766,9.85,18.114,10,18.5,10s0.734-0.15,1-0.389
	C19.766,9.85,20.114,10,20.5,10s0.734-0.15,1-0.389C21.766,9.85,22.114,10,22.5,10s0.734-0.15,1-0.389
	C23.766,9.85,24.114,10,24.5,10c0.176,0,0.343-0.036,0.5-0.092V21h-2.8l0.8-3.5h-1L21.18,21h-1.36L19,17.5H18z M27,8.5
	C27,8.776,26.776,9,26.5,9S26,8.776,26,8.5V7h1V8.5z"/>
<path class="scienceandfiction_twee" d="M10,22h1v8h-1V22z M12,30h1v-8h-1V30z M14,30h1v-8h-1V30z M22,30h1v-8h-1V30z M20,30h1v-8
	h-1V30z M8,30h1v-8H8V30z M24,22v8h1v-8H24z M16,30h1v-8h-1V30z M18,30h1v-8h-1V30z M24,16.5c0,0.828-0.672,1.5-1.5,1.5
	c-0.386,0-0.734-0.15-1-0.389C21.234,17.85,20.886,18,20.5,18s-0.734-0.15-1-0.389C19.234,17.85,18.886,18,18.5,18
	c-0.828,0-1.5-0.672-1.5-1.5c0-0.693,0.472-1.27,1.11-1.442C18.04,14.885,18,14.698,18,14.5c0-0.693,0.472-1.27,1.11-1.442
	C19.04,12.885,19,12.698,19,12.5c0-0.828,0.672-1.5,1.5-1.5s1.5,0.672,1.5,1.5c0,0.198-0.04,0.385-0.11,0.558
	C22.528,13.23,23,13.807,23,14.5c0,0.198-0.04,0.385-0.11,0.558C23.528,15.23,24,15.807,24,16.5z M22,14.5
	c0-0.276-0.224-0.5-0.5-0.5S21,14.224,21,14.5s0.224,0.5,0.5,0.5S22,14.776,22,14.5z M20,12.5c0,0.276,0.224,0.5,0.5,0.5
	s0.5-0.224,0.5-0.5S20.776,12,20.5,12S20,12.224,20,12.5z M19,14.5c0,0.276,0.224,0.5,0.5,0.5s0.5-0.224,0.5-0.5S19.776,14,19.5,14
	S19,14.224,19,14.5z M19,16.5c0-0.276-0.224-0.5-0.5-0.5S18,16.224,18,16.5s0.224,0.5,0.5,0.5S19,16.776,19,16.5z M21,16.5
	c0-0.276-0.224-0.5-0.5-0.5S20,16.224,20,16.5s0.224,0.5,0.5,0.5S21,16.776,21,16.5z M23,16.5c0-0.276-0.224-0.5-0.5-0.5
	S22,16.224,22,16.5s0.224,0.5,0.5,0.5S23,16.776,23,16.5z"/>
</svg>