<?xml version="1.0" encoding="utf-8"?>
<!-- Generator: Adobe Illustrator 22.0.1, SVG Export Plug-In . SVG Version: 6.00 Build 0)  -->
<svg version="1.1" id="designs" xmlns="http://www.w3.org/2000/svg" xmlns:xlink="http://www.w3.org/1999/xlink" x="0px" y="0px"
	 width="32px" height="32px" viewBox="0 0 32 32" style="enable-background:new 0 0 32 32;" xml:space="preserve">
<style type="text/css">
	.scienceandfiction_een{fill:#2B4099;}
	.scienceandfiction_twee{fill:#CC2954;}
</style>
<path class="scienceandfiction_een" d="M15,12v-1h-1.186C13.352,9.611,11.969,8.396,10,8.083V8h1V3H7v5h0.999v0.083
	C6.031,8.396,4.648,9.611,4.186,11H3v1h1v17H3v1h12v-1h-1V12H15z M8,4h2v3H8V4z M9,9c1.899,0,3.241,0.919,3.761,2H5.239
	C5.759,9.919,7.101,9,9,9z M13,29H5V12h8V29z"/>
<path class="scienceandfiction_twee" d="M20,8h-4V7h4V8z M14,7v1h1V7H14z M23,7v1h4V7H23z M23,3v1h4V3H23z M24,5v1h4V5H24z M21,7v1
	h1V7H21z M29,7h-1v1h1V7L29,7z M21,3v1h1V3H21z M28,3v1h1V3H28z M12,5v1h3V5H12z M16,5v1h1V5H16z M9,5v1h1V5H9z M16,3v1h4V3H16z
	 M14,3v1h1V3H14z M18,5v1h3V5H18z M22,5v1h1V5H22z M12,11.5h-1V16h1V11.5z M11,17v1h1v-1H11z M10,11.5H9V14h1V11.5z M9,15v1h1v-1H9z
	"/>
</svg>