<?xml version="1.0" encoding="utf-8"?>
<!-- Generator: Adobe Illustrator 22.0.1, SVG Export Plug-In . SVG Version: 6.00 Build 0)  -->
<svg version="1.1" id="designs" xmlns="http://www.w3.org/2000/svg" xmlns:xlink="http://www.w3.org/1999/xlink" x="0px" y="0px"
	 width="32px" height="32px" viewBox="0 0 32 32" style="enable-background:new 0 0 32 32;" xml:space="preserve">
<style type="text/css">
	.scienceandfiction_een{fill:#2B4099;}
	.scienceandfiction_twee{fill:#CC2954;}
</style>
<path class="scienceandfiction_twee" d="M17,19.5V7h1V6h1v1h3V2l0,0h-3v1h-1V2H9v3h3v2h2v12.5h1V6h-2V4h-3V3h7v1h3V3h1v3h-1V5h-3v1
	h-1v13.5H17z"/>
<path class="scienceandfiction_een" d="M18,20h1v-1h-7v1h1v7.5c0,1.381,1.119,2.5,2.5,2.5s2.5-1.119,2.5-2.5V20z M17,21h-2v1h2v1h-2
	v1h2v1h-2v1h2v1h-2v1h1.908c-0.207,0.581-0.757,1-1.408,1c-0.827,0-1.5-0.673-1.5-1.5V20h3V21z"/>
</svg>