<?xml version="1.0" encoding="utf-8"?>
<!-- Generator: Adobe Illustrator 22.0.1, SVG Export Plug-In . SVG Version: 6.00 Build 0)  -->
<svg version="1.1" id="designs" xmlns="http://www.w3.org/2000/svg" xmlns:xlink="http://www.w3.org/1999/xlink" x="0px" y="0px"
	 width="32px" height="32px" viewBox="0 0 32 32" style="enable-background:new 0 0 32 32;" xml:space="preserve">
<style type="text/css">
	.scienceandfiction_een{fill:#2B4099;}
	.scienceandfiction_twee{fill:#CC2954;}
</style>
<path class="scienceandfiction_twee" d="M22,19.5v-4h-1v4H22z M20,19.5v-4h-1v4H20z M22,12.5V11h1V8h-5v3h1v1.5h1V11h1v1.5H22z
	 M22,10h-3V9h3V10z"/>
<path class="scienceandfiction_een" d="M24,19h-7v1h1v7.5c0,1.381,1.119,2.5,2.5,2.5s2.5-1.119,2.5-2.5V20h1V19z M22,21h-2v1h2v1h-2
	v1h2v1h-2v1h2v1h-2v1h1.908c-0.207,0.581-0.757,1-1.408,1c-0.827,0-1.5-0.673-1.5-1.5V20h3V21z M24,6V4l-5-2H7v4h1v6H7v4h1v14h3V16
	h12v-4H11V6H24z M8,3h10.807L23,4.677V5H8V3z M10,29H9V16h1V29z M22,13v2H8v-2H22z M10,12H9V6h1V12z"/>
</svg>