<?xml version="1.0" encoding="utf-8"?>
<!-- Generator: Adobe Illustrator 22.0.1, SVG Export Plug-In . SVG Version: 6.00 Build 0)  -->
<svg version="1.1" id="designs" xmlns="http://www.w3.org/2000/svg" xmlns:xlink="http://www.w3.org/1999/xlink" x="0px" y="0px"
	 width="32px" height="32px" viewBox="0 0 32 32" style="enable-background:new 0 0 32 32;" xml:space="preserve">
<style type="text/css">
	.scienceandfiction_een{fill:#2B4099;}
	.scienceandfiction_twee{fill:#CC2954;}
</style>
<path class="scienceandfiction_twee" d="M19,3v5.5h-1V3H19L19,3z M19,26.5h-1V29l1,1v-3V26.5z M15,28v1h1v-1H15z M16,29v1h1v-1H16z
	 M29,29h-9v1h9V29L29,29z M14,27v1h1v-1H14z M13,28v1h1v-1H13z M14,29v1h1v-1H14z"/>
<path class="scienceandfiction_een" d="M20,5h-1V4h1V3h1v3h-1V5z M23,11v3h-1v-1h-1v1h-1v1.511c0.604,0.457,1,1.173,1,1.989v4
	c0,0.815-0.396,1.532-1,1.989V25l-1,2h-1l-1-2v-1.511c-0.604-0.457-1-1.173-1-1.989v-4c0-0.815,0.396-1.532,1-1.989V14H4v-3h1V5H4V4
	h2V2h3v2h3V2h3v2h3v1h-2v6h1V8h3v3h1v1h1v-1H23z M18,11h1V9h-1V11z M13,4h1V3h-1V4z M12,5v6h1.842H15V5H12L12,5z M10,5v6h1V5H10z
	 M7,4h1V3H7V4z M6,11h3V5H6h0V11z M18,24v0.764l0.5,1l0.5-1V24H18z M20,18h-2v-1h1.908c-0.207-0.581-0.757-1-1.408-1
	c-0.827,0-1.5,0.673-1.5,1.5v4c0,0.827,0.673,1.5,1.5,1.5c0.651,0,1.201-0.419,1.408-1H18v-1h2v-1h-2v-1h2V18z M19,14h-1v1h1V14z
	 M20,13v-1H5v1H20z"/>
</svg>