<?xml version="1.0" encoding="utf-8"?>
<!-- Generator: Adobe Illustrator 22.0.1, SVG Export Plug-In . SVG Version: 6.00 Build 0)  -->
<svg version="1.1" id="designs" xmlns="http://www.w3.org/2000/svg" xmlns:xlink="http://www.w3.org/1999/xlink" x="0px" y="0px"
	 width="32px" height="32px" viewBox="0 0 32 32" style="enable-background:new 0 0 32 32;" xml:space="preserve">
<style type="text/css">
	.scienceandfiction_een{fill:#2B4099;}
	.scienceandfiction_twee{fill:#CC2954;}
</style>
<path class="scienceandfiction_twee" d="M16,11.37l-0.285-0.198C14.612,10.405,13.327,10,12,10h-2V9h2c1.419,0,2.795,0.4,4,1.161
	C17.205,9.4,18.581,9,20,9h2v1h-2c-1.309,0-2.628,0.416-3.715,1.171L16,11.37z M10,14v2c0,1.103,0.897,2,2,2h2v-2
	c0-1.103-0.897-2-2-2H10z M12,13c1.657,0,3,1.343,3,3v3h-3c-1.657,0-3-1.343-3-3v-3H12L12,13z M16,14.332C15,13,14.042,11.9,12,12H8
	v-1h4c1.512,0,2.967,0.636,4,1.727C17.033,11.636,18.488,11,20,11h4v1h-4C18,12,17,13,16,14.332z M20,14c-1.103,0-2,0.897-2,2v2h2
	c1.103,0,2-0.897,2-2v-2H20z M23,13v3c0,1.657-1.343,3-3,3h-3v-3c0-1.657,1.343-3,3-3H23L23,13z M18,22h-1v-2h1V22z M15,22h-1v-2h1
	V22z M20,23v2h-1v-1h-1v1h-1v-1h-1v1h-1v-1h-1v1h-1v-1h-1v-1H20z"/>
<path class="scienceandfiction_een" d="M12,15c0.552,0,1,0.448,1,1s-0.448,1-1,1s-1-0.448-1-1S11.448,15,12,15L12,15z M20,15
	c-0.552,0-1,0.448-1,1s0.448,1,1,1s1-0.448,1-1S20.552,15,20,15L20,15z M30,3v5l-2,2h-1.42c0.28,0.95,0.42,1.96,0.42,3
	c0,2.53-0.85,4.87-2.29,6.72C24.9,20.11,25,20.459,25,21c0,1.521-9,10-9,10s-9-8.5-9-10c0-0.46,0.1-0.89,0.29-1.28
	C5.85,17.87,5,15.53,5,13c0-1.04,0.14-2.05,0.42-3H4L2,8V3l3,4h1.78C8.74,3.99,12.14,2,16,2s7.26,1.99,9.22,5H27L30,3z M8,9V8H4.5
	L3,6v1.586L4.414,9H8z M14.413,28L16,29.586L17.586,28H14.413z M25.54,10H23V7h0.99C22.17,4.57,19.26,3,16,3S9.83,4.57,8.01,7H9v3
	H6.46C6.16,10.95,6,11.95,6,13c0,2.25,0.72,4.36,2.08,6.11l0.38,0.49c0,0-0.46,0.603-0.46,1.4c0,0.359,0.797,1.172,4.3,4.9
	c1.083,1.153,1.69,1.1,3.7,1.1s2.5,0.062,3.7-1.1c3.718-3.602,4.3-4.712,4.3-4.9c0-0.463-0.46-1.4-0.46-1.4l0.38-0.49
	C25.28,17.36,26,15.25,26,13C26,11.95,25.84,10.95,25.54,10z M29,6l-1.5,2H24v1h3.586L29,7.586V6z"/>
</svg>