<?xml version="1.0" encoding="utf-8"?>
<!-- Generator: Adobe Illustrator 22.0.1, SVG Export Plug-In . SVG Version: 6.00 Build 0)  -->
<svg version="1.1" id="designs" xmlns="http://www.w3.org/2000/svg" xmlns:xlink="http://www.w3.org/1999/xlink" x="0px" y="0px"
	 width="32px" height="32px" viewBox="0 0 32 32" style="enable-background:new 0 0 32 32;" xml:space="preserve">
<style type="text/css">
	.scienceandfiction_een{fill:#2B4099;}
	.scienceandfiction_twee{fill:#CC2954;}
</style>
<path class="scienceandfiction_twee" d="M16,12c3.86,0,7,3.14,7,7s-3.14,7-7,7s-7-3.14-7-7S12.14,12,16,12z M16,11
	c-4.418,0-8,3.582-8,8s3.582,8,8,8s8-3.582,8-8S20.418,11,16,11L16,11z M16,14c2.757,0,5,2.243,5,5s-2.243,5-5,5s-5-2.243-5-5
	S13.243,14,16,14z M16,13c-3.314,0-6,2.686-6,6s2.686,6,6,6s6-2.686,6-6S19.314,13,16,13L16,13z M23,6v1h-2V6H23z M24,5h-4v3h4V5
	L24,5z M13,6H8v1h5V6L13,6z M15,6h-1v1h1V6L15,6z"/>
<path class="scienceandfiction_een" d="M5,3v26h22V3H5z M26,28H6V10h20V28z M26,9H6V4h20V9z"/>
</svg>