<?xml version="1.0" encoding="utf-8"?>
<!-- Generator: Adobe Illustrator 22.0.1, SVG Export Plug-In . SVG Version: 6.00 Build 0)  -->
<svg version="1.1" id="designs" xmlns="http://www.w3.org/2000/svg" xmlns:xlink="http://www.w3.org/1999/xlink" x="0px" y="0px"
	 width="32px" height="32px" viewBox="0 0 32 32" style="enable-background:new 0 0 32 32;" xml:space="preserve">
<style type="text/css">
	.scienceandfiction_een{fill:#2B4099;}
	.scienceandfiction_twee{fill:#CC2954;}
</style>
<path class="scienceandfiction_twee" d="M29.5,18H21v-5.5h1V17h6.5L29.5,18z M16,14h4v4h-4V14z M17,17h2v-2h-2V17z"/>
<path class="scienceandfiction_een" d="M25,22l5-2v-2l-5-6h-6V9.908C19.424,9.757,19.757,9.424,19.908,9H29V8h-9.092
	c-0.207-0.581-0.756-1-1.408-1s-1.202,0.419-1.408,1H8v1h9.092C17.243,9.424,17.576,9.757,18,9.908V12h-4v1H5v-1H2v4h2l10,1.818V20
	l2,2v3h-4v1h17v-2h-1v1h-4v-3H25z M18.5,8C18.776,8,19,8.224,19,8.5S18.776,9,18.5,9S18,8.776,18,8.5S18.224,8,18.5,8z M4.09,15H3
	v-2h1v1h10v2.802L4.09,15z M15,19.586V13h9.532L29,18.362v0.961L24.807,21h-8.393L15,19.586z M23,25h-6v-3h6V25z"/>
</svg>