<?xml version="1.0" encoding="utf-8"?>
<!-- Generator: Adobe Illustrator 22.0.1, SVG Export Plug-In . SVG Version: 6.00 Build 0)  -->
<svg version="1.1" id="designs" xmlns="http://www.w3.org/2000/svg" xmlns:xlink="http://www.w3.org/1999/xlink" x="0px" y="0px"
	 width="32px" height="32px" viewBox="0 0 32 32" style="enable-background:new 0 0 32 32;" xml:space="preserve">
<style type="text/css">
	.scienceandfiction_twee{fill:#CC2954;}
	.scienceandfiction_een{fill:#2B4099;}
</style>
<path class="scienceandfiction_twee" d="M11,15.5c0,0.828,0.672,1.5,1.5,1.5s1.5-0.672,1.5-1.5V7h-2.5v1H13v7.5
	c0,0.276-0.224,0.5-0.5,0.5S12,15.776,12,15.5H11z M19,10.305L16.535,7.62l-0.737,0.677L18,10.695V12h1V10.305z M15,5v1h2.5V5H15z
	 M22,17h-3v1h3V17z M12,26h-1v1h1V26L12,26z M12,25v1h1v-1H12z M14,23h-1v1h1V23L14,23z M16,12v1h1v-1H16z M15,28h-1v1h1V28L15,28z"
	/>
<path class="scienceandfiction_een" d="M22.09,31H9v-9.618l2-4V1h5.768l2.376,3.563L18.207,5.5L24,11.293v1.545l-2.409,0.964
	L23,19.5L21.809,22h-2.374l1.559,2.418L22.09,31z M10,30h10.91l-0.886-5.312L17.565,21h3.626l0.778-1.558l-1.324-5.297l-0.987,0.329
	l-0.316-0.948l1.5-0.5L23,12.162v-0.455L16.793,5.5l1.063-1.063L16.232,2H12v15.618l-2,4V30z"/>
</svg>