<?xml version="1.0" encoding="utf-8"?>
<!-- Generator: Adobe Illustrator 22.0.1, SVG Export Plug-In . SVG Version: 6.00 Build 0)  -->
<svg version="1.1" id="designs" xmlns="http://www.w3.org/2000/svg" xmlns:xlink="http://www.w3.org/1999/xlink" x="0px" y="0px"
	 width="32px" height="32px" viewBox="0 0 32 32" style="enable-background:new 0 0 32 32;" xml:space="preserve">
<style type="text/css">
	.scienceandfiction_een{fill:#2B4099;}
	.scienceandfiction_twee{fill:#CC2954;}
</style>
<path class="scienceandfiction_twee" d="M13.5,5C12.672,5,12,5.672,12,6.5S12.672,8,13.5,8S15,7.328,15,6.5S14.328,5,13.5,5z
	 M13.5,7C13.224,7,13,6.776,13,6.5S13.224,6,13.5,6S14,6.224,14,6.5S13.776,7,13.5,7z M22,4v1h-1V4H22z M20,5h1v1h-1V5z M24,5h1v1
	h-1V5z M26,5h1v1h-1V5z M29,5l-0.5,1H28V5H29z M24,4v1h-1V4H24z M26,4v1h-1V4H26z M28,4v1h-1V4H28z M22,5h1v1h-1V5z M18,27h1v1h-1
	V27z M16,28h1v1h-1V28z M16,25h1v1h-1V25z M14,26h1v1h-1V26z M7.5,25C6.672,25,6,25.672,6,26.5S6.672,28,7.5,28S9,27.328,9,26.5
	S8.328,25,7.5,25z M7.5,27C7.224,27,7,26.776,7,26.5S7.224,26,7.5,26S8,26.224,8,26.5S7.776,27,7.5,27z"/>
<path class="scienceandfiction_een" d="M15,15v-3h1V9H8v3h1v3L2.295,27.625C1.458,29.121,2.502,31,4.177,31h15.646
	c1.675,0,2.72-1.879,1.882-3.375L15,15z M9,10h6v1H9V10z M10,15.249V12h4v3.249L18.117,23H5.884L10,15.249z M20.818,29.412
	C20.715,29.589,20.41,30,19.823,30H4.177c-0.587,0-0.892-0.411-0.995-0.588c-0.237-0.405-0.243-0.891-0.004-1.318L5.353,24h13.295
	l2.185,4.113C21.061,28.522,21.055,29.007,20.818,29.412z M27.5,2H19V1h-3v7h3V7h8.5C28.881,7,30,5.881,30,4.5S28.881,2,27.5,2z
	 M17,7V2h1v5H17z M27.5,6H19V3h8.5C28.327,3,29,3.673,29,4.5S28.327,6,27.5,6z"/>
</svg>