<?xml version="1.0" encoding="utf-8"?>
<!-- Generator: Adobe Illustrator 22.0.1, SVG Export Plug-In . SVG Version: 6.00 Build 0)  -->
<svg version="1.1" id="designs" xmlns="http://www.w3.org/2000/svg" xmlns:xlink="http://www.w3.org/1999/xlink" x="0px" y="0px"
	 width="32px" height="32px" viewBox="0 0 32 32" style="enable-background:new 0 0 32 32;" xml:space="preserve">
<style type="text/css">
	.scienceandfiction_een{fill:#2B4099;}
	.scienceandfiction_twee{fill:#CC2954;}
</style>
<path class="scienceandfiction_een" d="M27,10h-3c0-1.06-0.223-2.07-0.616-3C22.119,4.07,19.07,2,15.5,2S8.881,4.07,7.616,7
	C7.223,7.93,7,8.94,7,10H4v5h2v2h19v-2h2V10z M8.085,9H14V8H8.313C8.378,7.797,8.45,7.595,8.534,7.396
	C8.594,7.258,8.675,7.133,8.743,7H14V6H9.366c0.269-0.361,0.566-0.697,0.897-1H14V4h-2.338c1.136-0.632,2.447-1,3.838-1
	c3.079,0,5.813,1.726,6.963,4.389C22.819,8.233,23,9.111,23,10H8C8,9.664,8.034,9.331,8.085,9z M24,16H7v-1h17V16z M26,14H5v-3h21
	V14z"/>
<path class="scienceandfiction_twee" d="M10,12v1H9v-1H10L10,12z M7,12H6v1h1V12L7,12z M13,12h-1v1h1V12L13,12z M16,12h-1v1h1V12
	L16,12z M19,12h-1v1h1V12L19,12z M22,12h-1v1h1V12L22,12z M25,12h-1v1h1V12L25,12z M16,20h-1v4h1V20L16,20z M16,18h-1v1h1V18L16,18z
	 M10,20H9v4h1V20L10,20z M10,18H9v1h1V18L10,18z M19,18h-1v3h1V18L19,18z M19,22h-1v1h1V22L19,22z M22,20h-1v4h1V20L22,20z M22,18
	h-1v1h1V18L22,18z M13,18h-1v3h1V18L13,18z M13,22h-1v1h1V22L13,22z M16,27h-1v3h1V27L16,27z M16,25h-1v1h1V25L16,25z M10,27H9v3h1
	V27L10,27z M10,25H9v1h1V25L10,25z M19,24h-1v3h1V24L19,24z M19,28h-1v1h1V28L19,28z M22,27h-1v3h1V27L22,27z M22,25h-1v1h1V25
	L22,25z M13,24h-1v3h1V24L13,24z M13,28h-1v1h1V28L13,28z"/>
</svg>