<?xml version="1.0" encoding="utf-8"?>
<!-- Generator: Adobe Illustrator 22.0.1, SVG Export Plug-In . SVG Version: 6.00 Build 0)  -->
<svg version="1.1" id="designs" xmlns="http://www.w3.org/2000/svg" xmlns:xlink="http://www.w3.org/1999/xlink" x="0px" y="0px"
	 width="32px" height="32px" viewBox="0 0 32 32" style="enable-background:new 0 0 32 32;" xml:space="preserve">
<style type="text/css">
	.scienceandfiction_een{fill:#2B4099;}
	.scienceandfiction_twee{fill:#CC2954;}
</style>
<path class="scienceandfiction_twee" d="M15.5,2C15.776,2,16,2.224,16,2.5V4h-1V2.5C15,2.224,15.224,2,15.5,2z M15.5,1
	C14.672,1,14,1.672,14,2.5V5h3V2.5C17,1.672,16.328,1,15.5,1L15.5,1z M11,10v5h3v-5H11z M13,14h-1v-1h1V14z M12,12v-1h1v1H12z
	 M17,10v5h3v-5H17z M19,14h-1v-1h1V14z M18,12v-1h1v1H18z"/>
<path class="scienceandfiction_een" d="M11,27h3v-3h-3V27z M12,25h1v1h-1V25z M11,23h3v-3h-3V23z M12,21h1v1h-1V21z M20,24h-3v3h3
	V24z M19,26h-1v-1h1V26z M20,20h-3v3h3V20z M19,22h-1v-1h1V22z M11,19h3v-3h-3V19z M12,17h1v1h-1V17z M20,16h-3v3h3V16z M19,18h-1
	v-1h1V18z M23,9V6h-1V5l-6.125-1h-0.938L9,5v1H8v3h1v19H8v3h15v-3h-1V9H23z M10,5.846L15.021,5h0.773L21,5.85V6H10V5.846z M9,7h13v1
	H9V7z M10,9h5v19h-5V9z M22,30H9v-1h13V30z M21,28h-5V9h5V28z"/>
</svg>