<?xml version="1.0" encoding="utf-8"?>
<!-- Generator: Adobe Illustrator 22.0.1, SVG Export Plug-In . SVG Version: 6.00 Build 0)  -->
<svg version="1.1" id="designs" xmlns="http://www.w3.org/2000/svg" xmlns:xlink="http://www.w3.org/1999/xlink" x="0px" y="0px"
	 width="32px" height="32px" viewBox="0 0 32 32" style="enable-background:new 0 0 32 32;" xml:space="preserve">
<style type="text/css">
	.scienceandfiction_een{fill:#2B4099;}
	.scienceandfiction_twee{fill:#CC2954;}
</style>
<path class="scienceandfiction_twee" d="M17,9.33V3.94l2,3.34v1.39l-2.12,2.83l-0.75-1L17,9.33z M10.923,17.521l3.207-4.361l0.75,1
	l-2.498,3.361h1.256L15.5,14.99l1.9,2.531h1.215L12,8.657v-1.38l2-3.333v5.378l6.147,8.199h1.249L17.5,12.33L20,9V7l-3-5h-1v7
	l-0.5,0.66L15,8.99V2h-1l-3,5v1.99l2.5,3.34l-3.84,5.191H10.923z"/>
<path class="scienceandfiction_een" d="M9,17v1h1v11c0,1.118,0.871,2,2,2c1.1,0,2-0.9,2-2V17H9z M13,18v11c0,0.551-0.449,1-1,1
	c-0.6,0-1-0.471-1-1h1v-1h-1v-1h1v-1h-1v-1h1v-1h-1v-1h1v-1h-1v-4H13z M22,17h-5v12c0,1.098,0.871,2,2,2c1.1,0,2-0.9,2-2V18h1V17z
	 M20,22h-1v1h1v1h-1v1h1v1h-1v1h1v1h-1v1h1c0,0.551-0.449,1-1,1c-0.588,0-1-0.42-1-1V18h2V22z"/>
</svg>