<?xml version="1.0" encoding="utf-8"?>
<!-- Generator: Adobe Illustrator 22.0.1, SVG Export Plug-In . SVG Version: 6.00 Build 0)  -->
<svg version="1.1" id="designs" xmlns="http://www.w3.org/2000/svg" xmlns:xlink="http://www.w3.org/1999/xlink" x="0px" y="0px"
	 width="32px" height="32px" viewBox="0 0 32 32" style="enable-background:new 0 0 32 32;" xml:space="preserve">
<style type="text/css">
	.scienceandfiction_een{fill:#2B4099;}
	.scienceandfiction_twee{fill:#CC2954;}
</style>
<path class="scienceandfiction_een" d="M26.705,27.625L19,13V9h1V6h-9v3h1v4L4.295,27.625C3.458,29.122,4.502,31,6.177,31h18.646
	C26.498,31,27.542,29.122,26.705,27.625z M12,7h7v1h-7V7z M13,13.247V9h5v4.247L22.084,21H8.916L13,13.247z M25.818,29.412
	C25.715,29.589,25.41,30,24.823,30H6.177c-0.587,0-0.892-0.411-0.995-0.588c-0.237-0.405-0.243-0.89-0.002-1.321L8.389,22h14.222
	l3.221,6.113C26.061,28.522,26.056,29.007,25.818,29.412z"/>
<path class="scienceandfiction_twee" d="M22,27v1h-1v-1H22L22,27z M20,28h-1v1h1V28L20,28z M20,25h-1v1h1V25L20,25z M18,26h-1v1h1
	V26L18,26z M19,23h-1v1h1V23L19,23z M13.5,3C13.224,3,13,3.224,13,3.5S13.224,4,13.5,4S14,3.776,14,3.5S13.776,3,13.5,3z M13.5,2
	C14.328,2,15,2.671,15,3.5S14.328,5,13.5,5S12,4.329,12,3.5S12.672,2,13.5,2L13.5,2z M10.5,26c-0.276,0-0.5,0.224-0.5,0.5
	s0.224,0.5,0.5,0.5s0.5-0.224,0.5-0.5S10.776,26,10.5,26z M10.5,25c0.828,0,1.5,0.671,1.5,1.5S11.328,28,10.5,28S9,27.329,9,26.5
	S9.672,25,10.5,25L10.5,25z M15,10h-1v1h1V10L15,10z M17,14h-1v1h1V14L17,14z M14,16h-1v1h1V16L14,16z"/>
</svg>