<?xml version="1.0" encoding="utf-8"?>
<!-- Generator: Adobe Illustrator 22.0.1, SVG Export Plug-In . SVG Version: 6.00 Build 0)  -->
<svg version="1.1" id="designs" xmlns="http://www.w3.org/2000/svg" xmlns:xlink="http://www.w3.org/1999/xlink" x="0px" y="0px"
	 width="32px" height="32px" viewBox="0 0 32 32" style="enable-background:new 0 0 32 32;" xml:space="preserve">
<style type="text/css">
	.scienceandfiction_een{fill:#2B4099;}
	.scienceandfiction_twee{fill:#CC2954;}
</style>
<path class="scienceandfiction_twee" d="M21,17.5c0,0.276-0.224,0.5-0.5,0.5S20,17.776,20,17.5s0.224-0.5,0.5-0.5S21,17.224,21,17.5
	z M22,17.5c0-0.828-0.672-1.5-1.5-1.5S19,16.672,19,17.5s0.672,1.5,1.5,1.5S22,18.328,22,17.5L22,17.5z M28,13H17.5v1H27v13H14v-7.5
	h-1V28h15V13z M25,23.5c0,0.276-0.224,0.5-0.5,0.5S24,23.776,24,23.5s0.224-0.5,0.5-0.5S25,23.224,25,23.5z M26,23.5
	c0-0.828-0.672-1.5-1.5-1.5S23,22.672,23,23.5s0.672,1.5,1.5,1.5S26,24.328,26,23.5L26,23.5z M21,23.5c0,0.276-0.224,0.5-0.5,0.5
	S20,23.776,20,23.5s0.224-0.5,0.5-0.5S21,23.224,21,23.5z M22,23.5c0-0.828-0.672-1.5-1.5-1.5S19,22.672,19,23.5s0.672,1.5,1.5,1.5
	S22,24.328,22,23.5L22,23.5z M17,23.5c0,0.276-0.224,0.5-0.5,0.5S16,23.776,16,23.5s0.224-0.5,0.5-0.5S17,23.224,17,23.5z M18,23.5
	c0-0.828-0.672-1.5-1.5-1.5S15,22.672,15,23.5s0.672,1.5,1.5,1.5S18,24.328,18,23.5L18,23.5z M25,17.5c0,0.276-0.224,0.5-0.5,0.5
	S24,17.776,24,17.5s0.224-0.5,0.5-0.5S25,17.224,25,17.5z M26,17.5c0-0.828-0.672-1.5-1.5-1.5S23,16.672,23,17.5s0.672,1.5,1.5,1.5
	S26,18.328,26,17.5L26,17.5z"/>
<path class="scienceandfiction_een" d="M17,19H4V6h13V19z M18,20V5H3v15H18L18,20z M8,9.5C8,9.776,7.776,10,7.5,10S7,9.776,7,9.5
	S7.224,9,7.5,9S8,9.224,8,9.5z M9,9.5C9,8.672,8.328,8,7.5,8S6,8.672,6,9.5S6.672,11,7.5,11S9,10.328,9,9.5L9,9.5z M8,15.5
	C8,15.776,7.776,16,7.5,16S7,15.776,7,15.5S7.224,15,7.5,15S8,15.224,8,15.5z M9,15.5C9,14.672,8.328,14,7.5,14S6,14.672,6,15.5
	S6.672,17,7.5,17S9,16.328,9,15.5L9,15.5z M14,15.5c0,0.276-0.224,0.5-0.5,0.5S13,15.776,13,15.5s0.224-0.5,0.5-0.5
	S14,15.224,14,15.5z M15,15.5c0-0.828-0.672-1.5-1.5-1.5S12,14.672,12,15.5s0.672,1.5,1.5,1.5S15,16.328,15,15.5L15,15.5z M11,12.5
	c0,0.276-0.224,0.5-0.5,0.5S10,12.776,10,12.5s0.224-0.5,0.5-0.5S11,12.224,11,12.5z M12,12.5c0-0.828-0.672-1.5-1.5-1.5
	S9,11.672,9,12.5S9.672,14,10.5,14S12,13.328,12,12.5L12,12.5z M14,9.5c0,0.276-0.224,0.5-0.5,0.5S13,9.776,13,9.5S13.224,9,13.5,9
	S14,9.224,14,9.5z M15,9.5C15,8.672,14.328,8,13.5,8S12,8.672,12,9.5s0.672,1.5,1.5,1.5S15,10.328,15,9.5L15,9.5z"/>
</svg>