<?xml version="1.0" encoding="utf-8"?>
<!-- Generator: Adobe Illustrator 22.0.1, SVG Export Plug-In . SVG Version: 6.00 Build 0)  -->
<svg version="1.1" id="designs" xmlns="http://www.w3.org/2000/svg" xmlns:xlink="http://www.w3.org/1999/xlink" x="0px" y="0px"
	 width="32px" height="32px" viewBox="0 0 32 32" style="enable-background:new 0 0 32 32;" xml:space="preserve">
<style type="text/css">
	.scienceandfiction_een{fill:#2B4099;}
	.scienceandfiction_twee{fill:#CC2954;}
</style>
<path class="scienceandfiction_een" d="M23,31h5l-1-5V10h-3v1h-1V9c0-3.866-3.134-7-7-7S9,5.134,9,9v2H8v-1H5v16l-1,5h5l-1-5V16h1v9
	h1.333L11,27h3.6L13,31h6l-1.6-4H21l0.667-2H23v-9h1v10L23,31z M24.22,30l0.6-3h1.36l0.6,3H24.22z M16,3c3.308,0,6,2.691,6,6v1H10V9
	C10,5.691,12.692,3,16,3z M5.22,30l0.6-3h1.36l0.6,3H5.22z M7,26H6V11h1V26z M8,15v-3h1v3H8z M17.523,30h-3.046l1.2-3h0.646
	L17.523,30z M20.279,26h-8.558l-0.333-1h9.225L20.279,26z M22,24H10V11h12V24z M23,15v-3h1v3H23z M25,11h1v15h-1V11z"/>
<path class="scienceandfiction_twee" d="M20,12v1h-6v-1H20L20,12z M13,12h-1v1h1V12L13,12z M12,8h-1v1h1V8L12,8z M16,6h-1v1h1V6
	L16,6z M19,8h-1v1h1V8L19,8z M21,8h-1v1h1V8L21,8z M18,14h-6v1h6V14L18,14z M20,14h-1v1h1V14L20,14z M20,16h-6v1h6V16L20,16z M13,16
	h-1v1h1V16L13,16z M17,19h-2v3h2V19z M18,18v5h-4v-5H18L18,18z M15.5,5C14.673,5,14,5.673,14,6.5S14.673,8,15.5,8
	C16.327,8,17,7.327,17,6.5S16.327,5,15.5,5z M15.5,4C16.881,4,18,5.119,18,6.5S16.881,9,15.5,9S13,7.881,13,6.5S14.119,4,15.5,4
	L15.5,4z"/>
</svg>