<?xml version="1.0" encoding="utf-8"?>
<!-- Generator: Adobe Illustrator 22.0.1, SVG Export Plug-In . SVG Version: 6.00 Build 0)  -->
<svg version="1.1" id="designs" xmlns="http://www.w3.org/2000/svg" xmlns:xlink="http://www.w3.org/1999/xlink" x="0px" y="0px"
	 width="32px" height="32px" viewBox="0 0 32 32" style="enable-background:new 0 0 32 32;" xml:space="preserve">
<style type="text/css">
	.scienceandfiction_een{fill:#2B4099;}
	.scienceandfiction_twee{fill:#CC2954;}
</style>
<path class="scienceandfiction_twee" d="M26,22h-6.18c-0.22,0.38-0.49,0.72-0.82,1h6v6h-9v-4h-4v-1.5h-1V26c0,2.21,1.79,4,4,4h11
	c2.21,0,4-1.79,4-4C30,23.79,28.21,22,26,22z M12,26h3v3C13.35,29,12,27.65,12,26z M26,29v-6c1.65,0,3,1.35,3,3
	C29,27.65,27.65,29,26,29z M11,8v8.5h1V13h6v3.5c0.36,0.09,0.69,0.32,1,0.5V8H11z M18,12h-6v-1h6V12z M18,10h-6V9h6V10z"/>
<path class="scienceandfiction_een" d="M17,16h-7V2H2v18c0,2.209,1.791,4,4,4h11c2.209,0,4-1.791,4-4S19.209,16,17,16z M9,3v1H3V3H9
	z M9,5v1H3V5H9z M6,23L6,23c-1.654,0-3-1.346-3-3h3V23z M16,23H7v-4H3V7h6v10h7V23z M17,23v-6c1.654,0,3,1.346,3,3S18.654,23,17,23z
	"/>
</svg>