<?xml version="1.0" encoding="utf-8"?>
<!-- Generator: Adobe Illustrator 22.0.1, SVG Export Plug-In . SVG Version: 6.00 Build 0)  -->
<svg version="1.1" id="designs" xmlns="http://www.w3.org/2000/svg" xmlns:xlink="http://www.w3.org/1999/xlink" x="0px" y="0px"
	 width="32px" height="32px" viewBox="0 0 32 32" style="enable-background:new 0 0 32 32;" xml:space="preserve">
<style type="text/css">
	.scienceandfiction_een{fill:#2B4099;}
	.scienceandfiction_twee{fill:#CC2954;}
</style>
<path class="scienceandfiction_twee" d="M14,7c0.551,0,1,0.448,1,1s-0.449,1-1,1s-1-0.448-1-1S13.449,7,14,7z M14,6
	c-1.105,0-2,0.896-2,2s0.895,2,2,2s2-0.896,2-2S15.105,6,14,6L14,6z M15,20c2.206,0,4,1.794,4,4s-1.794,4-4,4s-4-1.794-4-4
	S12.794,20,15,20z M15,19c-2.761,0-5,2.239-5,5s2.239,5,5,5s5-2.239,5-5S17.761,19,15,19L15,19z M15,22c1.103,0,2,0.897,2,2
	s-0.897,2-2,2s-2-0.897-2-2S13.897,22,15,22z M15,21c-1.657,0-3,1.343-3,3s1.343,3,3,3s3-1.343,3-3S16.657,21,15,21L15,21z M14.9,12
	h-1.03c0.09,0.32,0.13,0.65,0.13,1c0,2.21-1.79,4-4,4c-1.08,0-2.07-0.43-2.79-1.13c-0.17,0.3-0.32,0.61-0.46,0.93
	C7.62,17.55,8.76,18,10,18c2.76,0,5-2.24,5-5C15,12.66,14.97,12.32,14.9,12z M12.82,12h-1.09C11.9,12.29,12,12.64,12,13
	c0,1.1-0.9,2-2,2c-0.65,0-1.23-0.32-1.6-0.8c-0.23,0.25-0.44,0.51-0.64,0.79C8.3,15.61,9.11,16,10,16c1.66,0,3-1.34,3-3
	C13,12.65,12.94,12.31,12.82,12z M24.98,19.87C24.67,19.96,24.34,20,24,20c-2.21,0-4-1.79-4-4c0-1.19,0.52-2.26,1.34-2.99
	c-0.27-0.21-0.55-0.41-0.84-0.59C19.58,13.34,19,14.6,19,16c0,2.76,2.24,5,5,5c0.34,0,0.67-0.03,0.99-0.1C25,20.77,25,20.63,25,20.5
	C25,20.29,24.99,20.08,24.98,19.87z M24.64,17.89C24.44,17.96,24.22,18,24,18c-1.1,0-2-0.9-2-2c0-0.65,0.31-1.22,0.79-1.59
	c-0.22-0.26-0.45-0.51-0.69-0.73C21.43,14.23,21,15.06,21,16c0,1.66,1.34,3,3,3c0.3,0,0.58-0.04,0.85-0.13
	C24.8,18.54,24.73,18.21,24.64,17.89z M11,10h-1v1h1V10z M19,8h-1v1h1V8L19,8z M19,10v1h2v-1H19z M17,10v1h1v-1H17z"/>
<path class="scienceandfiction_een" d="M21.22,11.7L22,10.14c0-1.691-1.255-4.537-4-5.659V1h-1v3.164
	c-0.316-0.07-0.652-0.112-1-0.136V2h-1v2.028c-4.144,0.287-6,4.054-6,6.112l0.78,1.56C6.9,13.57,5,16.81,5,20.5
	C5,26.3,9.7,31,15.5,31S26,26.3,26,20.5C26,16.81,24.1,13.57,21.22,11.7z M15.5,5c3.683,0,5.361,3.133,5.492,4.921L20.452,11h-9.904
	l-0.54-1.079C10.139,8.133,11.817,5,15.5,5z M15.5,30C10.26,30,6,25.74,6,20.5c0-3.71,2.14-6.93,5.24-8.5h8.52
	c3.1,1.57,5.24,4.79,5.24,8.5C25,25.74,20.74,30,15.5,30z"/>
</svg>