<?xml version="1.0" encoding="utf-8"?>
<!-- Generator: Adobe Illustrator 22.0.1, SVG Export Plug-In . SVG Version: 6.00 Build 0)  -->
<svg version="1.1" id="designs" xmlns="http://www.w3.org/2000/svg" xmlns:xlink="http://www.w3.org/1999/xlink" x="0px" y="0px"
	 width="32px" height="32px" viewBox="0 0 32 32" style="enable-background:new 0 0 32 32;" xml:space="preserve">
<style type="text/css">
	.scienceandfiction_een{fill:#2B4099;}
	.scienceandfiction_twee{fill:#CC2954;}
</style>
<path class="scienceandfiction_een" d="M11,16.5h-1v-3h1V16.5z M10,19.5v3h1v-3H10z M22,1h-1v2.5h1V1L22,1z M22,6.5h-1v3h1V7V6.5z
	 M11,1h-1l0,2.5h1L11,1L11,1z M11,6.5h-1v3h1V6.5z M21,19.5v3h1v-3H21z M22,12.5h-1v3h1V13V12.5z M23,29.5
	c0,0.828-0.672,1.5-1.5,1.5S20,30.328,20,29.5c0-0.652,0.419-1.202,1-1.408V26.5h1v1.592C22.581,28.298,23,28.848,23,29.5z M22,29.5
	c0-0.276-0.224-0.5-0.5-0.5S21,29.224,21,29.5s0.224,0.5,0.5,0.5S22,29.776,22,29.5z M12,29.5c0,0.828-0.672,1.5-1.5,1.5
	S9,30.328,9,29.5c0-0.652,0.419-1.202,1-1.408V26.5h1v1.592C11.581,28.298,12,28.848,12,29.5z M11,29.5c0-0.276-0.224-0.5-0.5-0.5
	S10,29.224,10,29.5s0.224,0.5,0.5,0.5S11,29.776,11,29.5z"/>
<path class="scienceandfiction_twee" d="M10.5,17c0.827,0,1.5,0.673,1.5,1.5V19H9v-0.5C9,17.673,9.673,17,10.5,17z M10.5,16
	C9.119,16,8,17.119,8,18.5V20h5v-1.5C13,17.119,11.881,16,10.5,16L10.5,16z M23.5,24H23v-2h-3v2h-0.5c-0.828,0-1.5,0.672-1.5,1.5
	s0.672,1.5,1.5,1.5h4c0.828,0,1.5-0.672,1.5-1.5S24.328,24,23.5,24z M21,23h1v1h-1V23z M23.5,26h-4c-0.276,0-0.5-0.224-0.5-0.5
	s0.224-0.5,0.5-0.5h4c0.276,0,0.5,0.224,0.5,0.5S23.776,26,23.5,26z M12.5,9h-4C7.672,9,7,9.672,7,10.5S7.672,12,8.5,12H9v2h3v-2
	h0.5c0.828,0,1.5-0.672,1.5-1.5S13.328,9,12.5,9z M11,13h-1v-1h1V13z M12.5,11h-4C8.224,11,8,10.776,8,10.5S8.224,10,8.5,10h4
	c0.276,0,0.5,0.224,0.5,0.5S12.776,11,12.5,11z M21.5,15c-1.381,0-2.5,1.119-2.5,2.5s1.119,2.5,2.5,2.5s2.5-1.119,2.5-2.5
	S22.881,15,21.5,15z M21.5,19c-0.651,0-1.201-0.419-1.408-1H21v-1h-0.908c0.207-0.581,0.757-1,1.408-1c0.827,0,1.5,0.673,1.5,1.5
	S22.327,19,21.5,19z M10.5,22C9.119,22,8,23.119,8,24.5S9.119,27,10.5,27s2.5-1.119,2.5-2.5S11.881,22,10.5,22z M10.5,26
	C9.673,26,9,25.327,9,24.5c0-0.651,0.419-1.201,1-1.408V24h1v-0.908c0.581,0.207,1,0.757,1,1.408C12,25.327,11.327,26,10.5,26z
	 M21.5,4C22.327,4,23,4.673,23,5.5V6h-3V5.5C20,4.673,20.673,4,21.5,4z M21.5,3C20.119,3,19,4.119,19,5.5V7h5V5.5
	C24,4.119,22.881,3,21.5,3L21.5,3z M12,4v0.5C12,5.327,11.327,6,10.5,6S9,5.327,9,4.5V4H12z M13,3H8v1.5C8,5.881,9.119,7,10.5,7
	S13,5.881,13,4.5V3L13,3z M21.5,10c0.827,0,1.5,0.673,1.5,1.5V12h-3v-0.5C20,10.673,20.673,10,21.5,10z M21.5,9
	c-1.381,0-2.5,1.119-2.5,2.5V13h5v-1.5C24,10.119,22.881,9,21.5,9L21.5,9z"/>
</svg>