<?xml version="1.0" encoding="utf-8"?>
<!-- Generator: Adobe Illustrator 22.0.1, SVG Export Plug-In . SVG Version: 6.00 Build 0)  -->
<svg version="1.1" id="designs" xmlns="http://www.w3.org/2000/svg" xmlns:xlink="http://www.w3.org/1999/xlink" x="0px" y="0px"
	 width="32px" height="32px" viewBox="0 0 32 32" style="enable-background:new 0 0 32 32;" xml:space="preserve">
<style type="text/css">
	.scienceandfiction_een{fill:#2B4099;}
	.scienceandfiction_twee{fill:#CC2954;}
</style>
<path class="scienceandfiction_twee" d="M16,24h1v1h-1V24z M17,23v1h1v-1H17z M16,24v-1h-1v1H16z M15,24h-1v1h1V24z M17,23v-1h-1v1
	H17z M15,23v-1h-1v1H15z M14,23h-1v1h1V23z M17,26h1v-1h-1V26z M15,25v1h1v-1H15z M14,25h-1v1h1V25z M16,29h1v-1h-1V29z M17,27v1h1
	v-1H17z M15,27v1h1v-1H15z M14,29h1v-1h-1V29z M16,26v1h1v-1H16z M18,24v1h1v-1H18z M20,24v-1h-1v1H20z M18,21h-1v1h1V21z M16,21h-1
	v1h1V21z M19,23v-1h-1v1H19z M20,26v-1h-1v1H20z M18,27h1v-1h-1V27z M14,26v1h1v-1H14z M12,24v1h1v-1H12z M12,26v1h1v-1H12z M13,27
	v1h1v-1H13z M19,28v0.34c-0.28,0.27-0.6,0.49-0.94,0.66H18v-1H19z M20,27v0.06c-0.17,0.34-0.39,0.66-0.66,0.94H19v-1H20z M13,22v1
	h-1v-0.06c0.17-0.34,0.39-0.66,0.66-0.94H13z M14,21v1h-1v-0.34c0.28-0.27,0.6-0.49,0.94-0.66H14z"/>
<path class="scienceandfiction_een" d="M11,10c-2.209,0-4,1.791-4,4s1.791,4,4,4s4-1.791,4-4S13.209,10,11,10z M11,17
	c-1.654,0-3-1.346-3-3s1.346-3,3-3s3,1.346,3,3S12.654,17,11,17z M11,12c-1.105,0-2,0.896-2,2s0.895,2,2,2s2-0.896,2-2
	S12.105,12,11,12z M11,15c-0.551,0-1-0.449-1-1s0.449-1,1-1s1,0.449,1,1S11.551,15,11,15z M21,12c-1.105,0-2,0.896-2,2s0.895,2,2,2
	s2-0.896,2-2S22.105,12,21,12z M21,15c-0.551,0-1-0.449-1-1s0.449-1,1-1s1,0.449,1,1S21.551,15,21,15z M25,14c0-2.209-1.791-4-4-4
	s-4,1.791-4,4s1.791,4,4,4S25,16.209,25,14z M21,17c-1.654,0-3-1.346-3-3s1.346-3,3-3s3,1.346,3,3S22.654,17,21,17z M25.914,21.379
	l-0.707,0.707l-0.891-0.891C25.986,19.266,27,16.753,27,14c0-6.08-4.92-11-11-11C9.92,3,5,7.92,5,14c0,2.679,0.959,5.13,2.548,7.038
	L6.5,22.086l-0.707-0.707L3.672,23.5l3.536,3.536l2.121-2.122l-0.707-0.707l1.144-1.144c0.434,0.299,0.889,0.571,1.365,0.807
	C11.04,24.23,11,24.61,11,25c0,2.76,2.24,5,5,5s5-2.24,5-5c0-0.39-0.04-0.77-0.13-1.13c0.412-0.205,0.808-0.437,1.189-0.689
	l1.027,1.026l-0.707,0.707l2.121,2.122l3.536-3.536L25.914,21.379z M7.914,24.914l-0.707,0.708L5.086,23.5l0.707-0.707L7.914,24.914
	L7.914,24.914L7.914,24.914z M7.914,23.5l-0.707-0.707l0.707-0.708l0.707,0.708L7.914,23.5z M16,29c-2.206,0-4-1.794-4-4
	c0-0.323,0.034-0.622,0.102-0.894c0.068-0.281,0.159-0.548,0.267-0.778C13.018,21.914,14.443,21,16,21s2.982,0.914,3.634,2.333
	c0.105,0.225,0.196,0.492,0.266,0.78C19.966,24.378,20,24.677,20,25C20,27.206,18.206,29,16,29z M20.54,22.91
	C19.75,21.19,18.01,20,16,20s-3.75,1.19-4.54,2.91C8.22,21.25,6,17.88,6,14C6,8.49,10.49,4,16,4s10,4.49,10,10
	C26,17.88,23.78,21.25,20.54,22.91z M23.086,22.793l0.707-0.708l0.707,0.708l-0.354,0.354L23.793,23.5L23.086,22.793z
	 M23.793,24.914l2.121-2.121l0.707,0.707L24.5,25.622L23.793,24.914z"/>
</svg>