<?xml version="1.0" encoding="utf-8"?>
<!-- Generator: Adobe Illustrator 22.0.1, SVG Export Plug-In . SVG Version: 6.00 Build 0)  -->
<svg version="1.1" id="designs" xmlns="http://www.w3.org/2000/svg" xmlns:xlink="http://www.w3.org/1999/xlink" x="0px" y="0px"
	 width="32px" height="32px" viewBox="0 0 32 32" style="enable-background:new 0 0 32 32;" xml:space="preserve">
<style type="text/css">
	.scienceandfiction_een{fill:#2B4099;}
	.scienceandfiction_twee{fill:#CC2954;}
</style>
<path class="scienceandfiction_een" d="M12.531,17v-1h6.975v1H12.531z M21,21v6H11v-6H21z M20,22h-8v4h8V22z M21,21v6H11v-6H21z
	 M20,22h-8v4h8V22z M11,21h10v6H11V21z M12,26h8v-4h-8V26z M25,7v22H7V7h1V3h4v4h2V5h4v2h2V3h4v4H25z M21,7h2V4h-2V7z M15,7h2V6h-2
	V7z M9,7h2V4H9V7z M24,8h-2v7.521h-1V8h-1v7.521h-1V8h-6v7.521h-1V8h-1v7.521h-1V8H8v8h2.506v1H8v11h16V17h-2.469v-1H24V8z"/>
<path class="scienceandfiction_twee" d="M21,16v1.5c0,0.276-0.224,0.5-0.5,0.5S20,17.776,20,17.5V16H21z M22,15h-3v2.5
	c0,0.828,0.672,1.5,1.5,1.5s1.5-0.672,1.5-1.5V15L22,15z M12,16v1.5c0,0.276-0.224,0.5-0.5,0.5S11,17.776,11,17.5V16H12z M13,15h-3
	v2.5c0,0.828,0.672,1.5,1.5,1.5s1.5-0.672,1.5-1.5V15L13,15z"/>
</svg>