<?xml version="1.0" encoding="utf-8"?>
<!-- Generator: Adobe Illustrator 22.0.1, SVG Export Plug-In . SVG Version: 6.00 Build 0)  -->
<svg version="1.1" id="designs" xmlns="http://www.w3.org/2000/svg" xmlns:xlink="http://www.w3.org/1999/xlink" x="0px" y="0px"
	 width="32px" height="32px" viewBox="0 0 32 32" style="enable-background:new 0 0 32 32;" xml:space="preserve">
<style type="text/css">
	.scienceandfiction_een{fill:#2B4099;}
	.scienceandfiction_twee{fill:#CC2954;}
</style>
<path class="scienceandfiction_twee" d="M5,21.5h1v9H5V21.5z M7,30.5h1v-9H7V30.5z M9,30.5h1v-9H9V30.5z M11,30.5h1v-9h-1V30.5z
	 M21,30.5h1v-9h-1V30.5z M19,30.5h1v-9h-1V30.5z M23,30.5h1v-9h-1V30.5z M25,21.5v9h1v-9H25z M17,6h-1v1.5h-1V2h2l2,1.938L17,6z
	 M16.577,5l1.009-1.04L16.595,3H16v2H16.577z"/>
<path class="scienceandfiction_een" d="M17,7h-3L2,18v2.5c0,0.652,0.419,1.202,1,1.408V31h25v-9.092c0.581-0.207,1-0.756,1-1.408V18
	L17,7z M16.611,8L27.52,18h-5.103L16.583,8H16.611z M26,20.5c0,0.276-0.224,0.5-0.5,0.5S25,20.776,25,20.5V19h1V20.5z M24,20.5
	c0,0.276-0.224,0.5-0.5,0.5S23,20.776,23,20.5V19h1V20.5z M22,20.5c0,0.276-0.224,0.5-0.5,0.5S21,20.776,21,20.5V19h1V20.5z
	 M20,20.5c0,0.276-0.224,0.5-0.5,0.5S19,20.776,19,20.5V19h1V20.5z M18,20.5c0,0.276-0.224,0.5-0.5,0.5S17,20.776,17,20.5V19h1V20.5
	z M16,20.5c0,0.276-0.224,0.5-0.5,0.5S15,20.776,15,20.5V19h1V20.5z M14,20.5c0,0.276-0.224,0.5-0.5,0.5S13,20.776,13,20.5V19h1
	V20.5z M12,20.5c0,0.276-0.224,0.5-0.5,0.5S11,20.776,11,20.5V19h1V20.5z M10,20.5c0,0.276-0.224,0.5-0.5,0.5S9,20.776,9,20.5V19h1
	V20.5z M8,20.5C8,20.776,7.776,21,7.5,21S7,20.776,7,20.5V19h1V20.5z M6,20.5C6,20.776,5.776,21,5.5,21S5,20.776,5,20.5V19h1V20.5z
	 M9.741,18L15.5,8.128L21.259,18H9.741z M14.389,8h0.028L8.583,18H3.48L14.389,8z M4,19v1.5C4,20.776,3.776,21,3.5,21
	S3,20.776,3,20.5V19H4z M4,30v-8.092c0.187-0.066,0.356-0.167,0.5-0.297C4.766,21.85,5.114,22,5.5,22s0.734-0.15,1-0.389
	C6.766,21.85,7.114,22,7.5,22s0.734-0.15,1-0.389C8.766,21.85,9.114,22,9.5,22s0.734-0.15,1-0.389C10.766,21.85,11.114,22,11.5,22
	s0.734-0.15,1-0.389C12.766,21.85,13.114,22,13.5,22s0.734-0.15,1-0.389c0.08,0.072,0.167,0.134,0.261,0.187L12.3,30H4z M13.344,30
	l2.156-7.187L17.656,30H13.344z M18.7,30l-2.461-8.202c0.094-0.053,0.181-0.115,0.261-0.187C16.766,21.85,17.114,22,17.5,22
	s0.734-0.15,1-0.389C18.766,21.85,19.114,22,19.5,22s0.734-0.15,1-0.389C20.766,21.85,21.114,22,21.5,22s0.734-0.15,1-0.389
	C22.766,21.85,23.114,22,23.5,22s0.734-0.15,1-0.389C24.766,21.85,25.114,22,25.5,22s0.734-0.15,1-0.389
	c0.144,0.13,0.313,0.231,0.5,0.297V30H18.7z M28,20.5c0,0.276-0.224,0.5-0.5,0.5S27,20.776,27,20.5V19h1V20.5z"/>
</svg>