<?xml version="1.0" encoding="utf-8"?>
<!-- Generator: Adobe Illustrator 21.1.0, SVG Export Plug-In . SVG Version: 6.00 Build 0)  -->
<svg version="1.1" id="designs" xmlns="http://www.w3.org/2000/svg" xmlns:xlink="http://www.w3.org/1999/xlink" x="0px" y="0px"
	 width="32px" height="32px" viewBox="0 0 32 32" style="enable-background:new 0 0 32 32;" xml:space="preserve">
<style type="text/css">
	.sketchy_een{fill:#111918;}
</style>
<path class="sketchy_een" d="M19.409,22.617c0.008-0.001,0.015-0.002,0.022-0.004c0.011-0.001,0.022-0.003,0.032-0.004
	C19.446,22.612,19.427,22.615,19.409,22.617z M19.338,22.627c0.024-0.003,0.048-0.007,0.072-0.01
	c-0.037,0.005-0.073,0.01-0.109,0.015C19.313,22.631,19.325,22.629,19.338,22.627z M30.996,20.8
	c-0.018,0.434-0.062,0.864-0.133,1.293c-0.062,0.378-0.177,0.74-0.326,1.094c-0.099,0.237-0.201,0.472-0.304,0.708
	c-0.066,0.155-0.127,0.318-0.207,0.466c-0.177,0.324-0.388,0.631-0.601,0.933c-0.181,0.259-0.392,0.483-0.623,0.696
	c-0.115,0.104-0.239,0.199-0.366,0.287c-0.117,0.082-0.229,0.131-0.368,0.185c-0.251,0.103-0.529,0.143-0.794,0.187
	c-0.306,0.052-0.617,0.086-0.927,0.107c-0.111,0.006-0.221,0.016-0.332,0.022c-0.308,0.016-0.623-0.08-0.844-0.302
	c-0.338-0.338-0.41-0.834-0.525-1.279c-0.087-0.332-0.199-0.65-0.324-0.968c-0.14-0.297-0.329-0.572-0.527-0.835
	c-0.209-0.262-0.422-0.513-0.681-0.728c-0.139-0.101-0.28-0.194-0.435-0.269c-0.09-0.034-0.181-0.065-0.271-0.096
	c-0.199,0.155-0.467,0.238-0.701,0.148c-0.384-0.147-0.744-0.322-1.095-0.526c-0.032,0.079-0.054,0.161-0.089,0.24
	c-0.082,0.185-0.306,0.326-0.491,0.378c-0.121,0.033-0.245,0.031-0.367,0.008c-0.074,0.031-0.151,0.051-0.235,0.065
	c-0.999,0.134-2.013,0.106-3.017,0.104c-0.466,0-0.931-0.008-1.393-0.042c-0.523-0.04-1.045-0.038-1.568-0.044
	c-0.282-0.003-0.523-0.159-0.67-0.382l0,0c-0.196-0.054-0.331-0.174-0.448-0.325c-0.256,0.11-0.518,0.213-0.785,0.285
	c-0.147,0.042-0.296,0.072-0.446,0.097c-0.153,0.026-0.306,0.046-0.46,0.066c-0.084,0.01-0.181,0.026-0.267,0.02
	c-0.229-0.016-0.432-0.052-0.631-0.173c-0.089-0.054-0.181-0.135-0.259-0.209c-0.09-0.088-0.181-0.179-0.267-0.271
	c-0.002-0.002-0.003-0.004-0.005-0.005c-0.3,0.263-0.569,0.554-0.821,0.863c-0.141,0.194-0.274,0.393-0.403,0.596
	c-0.139,0.219-0.285,0.436-0.402,0.665c-0.259,0.509-0.43,1.068-0.73,1.554c-0.119,0.193-0.247,0.382-0.41,0.541
	c-0.109,0.105-0.235,0.243-0.372,0.3c-0.219,0.093-0.316,0.125-0.547,0.149c-0.183,0.018-0.37,0.038-0.553,0.038
	c-0.312,0.002-0.623-0.07-0.925-0.143c-0.175-0.04-0.342-0.09-0.509-0.159c-0.147-0.06-0.299-0.119-0.436-0.199
	c-0.127-0.076-0.247-0.171-0.362-0.263c-0.318-0.257-0.511-0.621-0.68-0.987c-0.183-0.396-0.352-0.804-0.499-1.214
	c-0.07-0.201-0.137-0.4-0.185-0.607c-0.042-0.189-0.068-0.382-0.101-0.573c-0.078-0.436-0.161-0.871-0.217-1.313
	c-0.107-0.848-0.064-1.715,0.018-2.565c0.026-0.253,0.05-0.513,0.103-0.762c0.038-0.189,0.084-0.376,0.125-0.563
	c0.086-0.412,0.163-0.824,0.283-1.228c0.129-0.43,0.302-0.848,0.484-1.256c0.167-0.37,0.386-0.706,0.629-1.031
	c0.277-0.372,0.573-0.728,0.865-1.09c0.273-0.338,0.543-0.681,0.84-0.997c0.027-0.028,0.063-0.04,0.093-0.063
	c-0.008-0.044-0.019-0.086-0.026-0.13c-0.04-0.243-0.04-0.456,0.088-0.677c0.053-0.091,0.125-0.168,0.206-0.234
	c0.041-0.098,0.097-0.191,0.171-0.274c0.42-0.47,0.899-0.871,1.415-1.23c0.444-0.31,0.911-0.581,1.371-0.862
	c0.48-0.294,0.967-0.539,1.492-0.742c0.352-0.135,0.724-0.213,1.088-0.311c0.018-0.159,0.031-0.317,0.052-0.476
	c0-0.145,0.036-0.281,0.111-0.406c0.027-0.046,0.075-0.071,0.11-0.11c0.04-0.127,0.099-0.247,0.193-0.343
	c0.169-0.167,0.358-0.215,0.585-0.241c1.279-0.142,2.565-0.168,3.851-0.168c0.41,0,0.82,0.003,1.229,0.005
	c0.774,0.004,1.548,0.03,2.32,0.068c0.749,0.037,1.488,0.161,2.229,0.28c0.096-0.041,0.2-0.064,0.309-0.064
	c0.43,0,0.804,0.364,0.798,0.8c-0.002,0.132-0.006,0.265-0.009,0.397c0.089,0.019,0.176,0.047,0.265,0.088
	c0.505,0.235,0.991,0.5,1.47,0.782c0.468,0.277,0.907,0.585,1.341,0.911c0.47,0.352,0.927,0.708,1.315,1.15
	c0.374,0.422,0.716,0.869,1.057,1.317c-0.038-0.05-0.076-0.101-0.115-0.151c0.169,0.221,0.348,0.44,0.482,0.686
	c0.171,0.317,0.203,0.647,0.149,0.999c0.065,0.058,0.124,0.123,0.181,0.199c0.492,0.661,0.933,1.377,1.299,2.117
	c0.189,0.376,0.38,0.752,0.563,1.132c0.193,0.4,0.346,0.822,0.474,1.25c0.113,0.376,0.191,0.762,0.247,1.152
	c0.062,0.434,0.129,0.87,0.151,1.311C30.984,20.032,31.01,20.418,30.996,20.8z M8.158,20.464c-0.155-0.203-0.319-0.401-0.46-0.615
	c-0.215-0.326-0.41-0.667-0.603-1.005c-0.211-0.37-0.386-0.76-0.565-1.144c-0.193-0.414-0.38-0.83-0.553-1.252
	c-0.338-0.812-0.609-1.651-0.872-2.489c-0.057-0.183-0.1-0.37-0.151-0.555c-0.29,0.323-0.592,0.635-0.861,0.976
	c-0.132,0.178-0.262,0.358-0.381,0.547c-0.127,0.199-0.229,0.412-0.327,0.625c-0.156,0.387-0.291,0.78-0.394,1.184
	c-0.108,0.416-0.185,0.846-0.254,1.272c-0.112,0.901-0.179,1.829-0.089,2.735c0.076,0.491,0.17,0.979,0.276,1.463
	c0.104,0.483,0.277,0.94,0.466,1.396c0.109,0.249,0.228,0.493,0.382,0.718c0.044,0.047,0.091,0.091,0.14,0.133
	c0.066,0.042,0.133,0.079,0.203,0.114c0.208,0.076,0.427,0.131,0.646,0.168c0.18,0.016,0.361,0.014,0.542,0.002
	c0.01-0.01,0.02-0.021,0.03-0.031c0.223-0.336,0.382-0.713,0.546-1.078c0.191-0.422,0.408-0.812,0.659-1.2
	C6.999,21.713,7.536,21.045,8.158,20.464z M10.595,20.772c-0.003,0-0.006-0.001-0.009-0.001c0,0,0.001,0.001,0.001,0.001
	C10.589,20.771,10.592,20.772,10.595,20.772z M11.647,20.475c-0.136-0.33-0.275-0.659-0.392-0.996
	c-0.318-0.905-0.549-1.825-0.724-2.766c-0.165-0.878-0.306-1.771-0.374-2.662c-0.064-0.83-0.046-1.658-0.048-2.491
	c0-0.834-0.014-1.672,0.026-2.505c0.007-0.142,0.02-0.283,0.028-0.424C9.913,8.703,9.664,8.785,9.424,8.88
	C9.059,9.053,8.713,9.26,8.366,9.467c-0.36,0.211-0.71,0.436-1.05,0.678c-0.393,0.32-0.747,0.679-1.083,1.059
	c0.119,0.806,0.248,1.61,0.462,2.397c0.218,0.803,0.481,1.591,0.795,2.362c0.319,0.727,0.661,1.436,1.07,2.117
	c0.187,0.314,0.386,0.617,0.585,0.923c0.207,0.314,0.436,0.613,0.662,0.914c0.153,0.188,0.316,0.365,0.48,0.545
	c0.088,0.095,0.176,0.19,0.268,0.28c0.042-0.001,0.083-0.004,0.125-0.007C11.011,20.678,11.333,20.592,11.647,20.475z
	 M18.592,21.128c0.216-0.005,0.431-0.03,0.646-0.049c0.007-0.014,0.015-0.028,0.022-0.042c0.127-0.328,0.236-0.664,0.354-0.995
	c0.135-0.38,0.275-0.76,0.378-1.15c0.207-0.783,0.392-1.569,0.513-2.37c0.015-0.12,0.031-0.239,0.046-0.358
	c0.094-0.772,0.199-1.552,0.211-2.33c0.014-0.838,0.014-1.677,0-2.513c-0.014-0.818-0.068-1.632-0.137-2.447
	c-0.032-0.386-0.074-0.77-0.094-1.156c-0.011-0.223-0.011-0.447-0.016-0.671c-0.265-0.053-0.534-0.092-0.802-0.13
	c-1.306-0.16-2.616-0.197-3.929-0.191c-0.706,0.002-1.417,0.004-2.121,0.062c-0.591,0.048-1.18,0.124-1.768,0.196
	c-0.035,0.224-0.071,0.448-0.107,0.672c-0.073,0.576-0.13,1.152-0.146,1.734c-0.018,0.653-0.018,1.307-0.02,1.962
	c-0.002,0.653-0.002,1.309,0.022,1.962c0.02,0.572,0.092,1.14,0.162,1.708c0.219,1.566,0.622,3.099,1.233,4.557
	c0.058,0.138,0.116,0.276,0.174,0.413c0.15,0.347,0.292,0.717,0.522,1.02c0.001,0.002,0.001,0.005,0.002,0.007
	c0.439,0.02,0.88,0.048,1.317,0.089c0.454,0.04,0.905,0.054,1.361,0.058c0.474,0.004,0.949,0.002,1.423-0.014
	C18.089,21.144,18.34,21.136,18.592,21.128z M21.201,20.332c0.159,0.109,0.319,0.21,0.482,0.307
	c0.213-0.192,0.431-0.379,0.629-0.585c0.229-0.24,0.453-0.477,0.662-0.73c0.26-0.351,0.505-0.715,0.755-1.075
	c0.237-0.342,0.472-0.681,0.7-1.029c0.259-0.4,0.523-0.802,0.732-1.23c0.177-0.366,0.35-0.737,0.512-1.11
	c0.176-0.442,0.341-0.886,0.493-1.335c0.143-0.424,0.309-0.852,0.392-1.295c0.001-0.017,0.002-0.034,0.003-0.05
	c-0.006-0.02-0.012-0.041-0.018-0.061c-0.148-0.288-0.364-0.545-0.559-0.799c0.038,0.05,0.076,0.1,0.115,0.151
	c-0.402-0.505-0.83-0.99-1.33-1.397c-0.464-0.354-0.941-0.705-1.446-0.993c-0.395-0.225-0.803-0.42-1.215-0.61
	c0.022,0.359,0.045,0.719,0.073,1.078c0.084,1.057,0.086,2.115,0.088,3.176c0.002,0.39,0.01,0.784-0.006,1.176
	c-0.016,0.422-0.05,0.844-0.084,1.266c-0.07,0.846-0.145,1.701-0.314,2.535c-0.082,0.402-0.181,0.802-0.279,1.2
	c-0.089,0.36-0.177,0.722-0.287,1.076c-0.034,0.11-0.075,0.218-0.112,0.327C21.19,20.327,21.196,20.328,21.201,20.332z
	 M29.439,18.898c-0.109-0.712-0.28-1.399-0.541-2.07c-0.234-0.528-0.5-1.04-0.785-1.541c-0.197-0.349-0.427-0.68-0.663-1.006
	c-0.108,0.289-0.215,0.579-0.334,0.863c-0.169,0.406-0.356,0.802-0.551,1.196c-0.169,0.34-0.342,0.671-0.545,0.991
	c-0.209,0.33-0.428,0.653-0.645,0.977c-0.201,0.3-0.402,0.599-0.601,0.901c-0.209,0.316-0.414,0.637-0.645,0.939
	c-0.232,0.303-0.481,0.585-0.747,0.856c0.025,0.011,0.05,0.02,0.075,0.031c0.263,0.119,0.513,0.318,0.734,0.5
	c0.42,0.346,0.736,0.782,1.055,1.22c0.137,0.187,0.286,0.38,0.382,0.593c0.121,0.261,0.227,0.529,0.332,0.796
	c0.126,0.322,0.212,0.659,0.314,0.99c0.045-0.003,0.09-0.005,0.135-0.007c0.182-0.01,0.363-0.023,0.543-0.046
	c0.094-0.012,0.187-0.024,0.281-0.036c0.103-0.016,0.204-0.037,0.304-0.067c0.034-0.019,0.067-0.04,0.099-0.062
	c0.082-0.069,0.161-0.143,0.241-0.214c0.119-0.103,0.231-0.208,0.333-0.325c0.085-0.121,0.167-0.243,0.25-0.365
	c0.098-0.141,0.203-0.281,0.281-0.436c0.142-0.28,0.275-0.567,0.402-0.856c0.157-0.403,0.28-0.809,0.353-1.235
	C29.586,20.622,29.544,19.762,29.439,18.898z"/>
</svg>