<?xml version="1.0" encoding="utf-8"?>
<!-- Generator: Adobe Illustrator 21.1.0, SVG Export Plug-In . SVG Version: 6.00 Build 0)  -->
<svg version="1.1" id="designs" xmlns="http://www.w3.org/2000/svg" xmlns:xlink="http://www.w3.org/1999/xlink" x="0px" y="0px"
	 width="32px" height="32px" viewBox="0 0 32 32" style="enable-background:new 0 0 32 32;" xml:space="preserve">
<style type="text/css">
	.sketchy_een{fill:#111918;}
</style>
<path class="sketchy_een" d="M19.236,26.893c0.028-0.012,0.056-0.024,0.084-0.036c-0.036,0.016-0.072,0.031-0.108,0.046
	C19.22,26.9,19.228,26.896,19.236,26.893z M19.36,26.84c-0.012,0.005-0.024,0.01-0.036,0.015c-0.002,0.001-0.003,0.001-0.004,0.002
	C19.333,26.851,19.346,26.845,19.36,26.84z M6.822,21.617c-0.008-0.019-0.016-0.039-0.024-0.058
	c-0.019-0.044-0.038-0.089-0.057-0.133C6.768,21.489,6.795,21.553,6.822,21.617z M24.8,10.93c0.017,0.013,0.034,0.026,0.051,0.039
	c-0.018-0.014-0.037-0.028-0.056-0.042C24.797,10.927,24.798,10.928,24.8,10.93z M13.797,18.009c0-0.459-0.383-0.842-0.842-0.842
	c-0.459,0-0.842,0.383-0.842,0.842s0.383,0.842,0.842,0.842C13.414,18.851,13.797,18.468,13.797,18.009z M19.99,19.122
	c0.459,0,0.842-0.383,0.842-0.842c0-0.459-0.383-0.842-0.842-0.842c-0.459,0-0.842,0.383-0.842,0.842
	C19.148,18.739,19.531,19.122,19.99,19.122z M18.895,21.557c-0.067,0-0.134,0.01-0.201,0.03c-0.523,0.161-1.071,0.277-1.613,0.359
	c-0.787,0.075-1.572-0.008-2.354-0.107c-0.171-0.027-0.343-0.054-0.513-0.081c-0.231-0.039-0.432-0.039-0.641,0.083
	c-0.187,0.109-0.325,0.288-0.382,0.497c-0.059,0.214-0.028,0.449,0.083,0.641c0.1,0.168,0.295,0.351,0.497,0.38
	c0.899,0.139,1.804,0.233,2.717,0.216c0.888-0.017,1.773-0.236,2.613-0.519c0.393-0.131,0.646-0.519,0.532-0.936
	C19.542,21.795,19.227,21.557,18.895,21.557z M29.524,18.354c0.004,0.85,0.004,1.698-0.083,2.543
	c-0.093,0.914-0.234,1.822-0.401,2.726c-0.147,0.801-0.358,1.591-0.647,2.354c-0.298,0.792-0.664,1.564-1.032,2.327
	c-0.12,0.248-0.238,0.48-0.408,0.699c-0.345,0.445-1.034,0.47-1.423,0.07c-0.253-0.26-0.41-0.589-0.611-0.886
	c-0.012-0.013-0.025-0.026-0.037-0.039c-0.225,0.052-0.444,0.136-0.66,0.223c-0.58,0.254-1.146,0.541-1.692,0.865
	c-0.267,0.157-0.528,0.321-0.801,0.47c-0.197,0.108-0.416,0.228-0.635,0.269c-0.283,0.054-0.53,0.025-0.784-0.118
	c-0.25-0.143-0.378-0.387-0.465-0.646c-0.037-0.11-0.05-0.327-0.048-0.455c0.002-0.043,0.002-0.085,0.004-0.13
	c0.006-0.083,0.012-0.168,0.017-0.252c0.014-0.151,0.033-0.3,0.05-0.451c0.039-0.323,0.072-0.646,0.112-0.97
	c0.019-0.149,0.034-0.299,0.052-0.447c-0.234,0.121-0.466,0.245-0.709,0.349c-0.029,0.012-0.059,0.025-0.088,0.038
	c-0.016,0.007-0.032,0.014-0.048,0.02c0.008-0.003,0.016-0.007,0.024-0.01c-0.192,0.083-0.384,0.168-0.58,0.24
	c-0.167,0.062-0.339,0.108-0.511,0.153c-0.445,0.12-0.906,0.184-1.369,0.165c-0.391-0.017-0.786-0.052-1.167-0.137
	c-0.356-0.079-0.701-0.234-1.039-0.368c-0.339-0.135-0.681-0.248-1.024-0.368c-0.354-0.126-0.707-0.259-1.061-0.391
	c-0.437-0.163-0.87-0.336-1.295-0.525c0.108,0.139,0.183,0.308,0.192,0.497c0.027,0.503,0.054,1.005,0.091,1.506
	c0.021,0.283,0.043,0.563,0.045,0.846c0,0.112-0.004,0.223-0.012,0.335c-0.014,0.168-0.039,0.401-0.137,0.546
	c-0.05,0.078-0.107,0.151-0.167,0.223c-0.072,0.056-0.143,0.11-0.217,0.165c-0.095,0.072-0.358,0.135-0.474,0.128
	c-0.217-0.016-0.368-0.054-0.565-0.139c-0.093-0.041-0.18-0.087-0.265-0.139c-0.087-0.054-0.17-0.112-0.25-0.172
	c-0.199-0.147-0.401-0.292-0.604-0.434c-0.118-0.083-0.235-0.167-0.35-0.253c-0.007,0.172-0.039,0.341-0.13,0.497
	c-0.112,0.192-0.314,0.354-0.536,0.393c-0.151,0.039-0.302,0.039-0.451,0c-0.068-0.029-0.135-0.058-0.203-0.087
	c-0.147-0.062-0.269-0.178-0.391-0.281c-0.141-0.12-0.286-0.238-0.422-0.366c-0.308-0.29-0.59-0.606-0.858-0.935
	c-0.308-0.379-0.635-0.776-0.883-1.2c-0.465-0.794-0.821-1.649-1.084-2.528C3.237,23.411,2.982,22.55,2.8,21.669
	c-0.37-1.802-0.383-3.674-0.242-5.501c0.041-0.54,0.103-1.074,0.194-1.609c0.074-0.443,0.197-0.877,0.327-1.305
	c0.277-0.912,0.648-1.787,1.065-2.644c0.188-0.389,0.397-0.77,0.606-1.15C4.976,9.054,5.21,8.653,5.467,8.266
	C6,7.465,6.638,6.756,7.355,6.117c0.71-0.633,1.44-1.272,2.232-1.802c0.383-0.258,0.772-0.507,1.185-0.718
	C11.178,3.39,11.59,3.2,12.006,3.016c0.457-0.201,0.918-0.391,1.392-0.552c0.42-0.143,0.857-0.227,1.293-0.308
	C15.167,2.068,15.659,2,16.143,2c0.451,0,0.898,0.035,1.345,0.087c0.49,0.058,0.987,0.108,1.471,0.213
	c0.459,0.099,0.929,0.194,1.37,0.352c0.974,0.35,1.924,0.761,2.875,1.163c0.209,0.087,0.37,0.348,0.428,0.556
	c0.02,0.072,0.013,0.146,0.015,0.219c0.404,0.35,0.796,0.717,1.173,1.094c0.472,0.472,0.964,0.919,1.415,1.411
	c0.523,0.569,1.038,1.171,1.431,1.843c0.362,0.617,0.666,1.258,0.91,1.932c0.286,0.788,0.499,1.605,0.648,2.429
	c0.153,0.854,0.223,1.715,0.254,2.582C29.507,16.707,29.518,17.53,29.524,18.354z M19.766,25.005
	c0.168-0.102,0.325-0.226,0.49-0.335c0.038-0.093,0.089-0.181,0.17-0.262c0.15-0.15,0.354-0.232,0.566-0.241
	c0.057-0.042,0.12-0.077,0.176-0.12c0.357-0.282,0.703-0.574,1.036-0.882c0.367-0.342,0.729-0.688,1.049-1.075
	c0.291-0.398,0.524-0.829,0.728-1.278c0.28-0.726,0.444-1.491,0.556-2.26c0.093-0.935,0.114-1.867,0.116-2.806
	c0.004-0.895-0.052-1.782-0.145-2.671c-0.011-0.064-0.024-0.128-0.038-0.193c-0.657-0.446-1.277-0.94-1.877-1.462
	c-0.664-0.577-1.283-1.229-1.822-1.928c0.001,0.002,0.002,0.003,0.004,0.005c-0.012-0.015-0.024-0.031-0.036-0.046h0
	c0.006,0.008,0.012,0.016,0.018,0.024c-0.006-0.008-0.013-0.016-0.019-0.023c-0.233,0.146-0.453,0.315-0.671,0.483
	c-1.141,0.911-2.266,1.833-3.435,2.708c-0.552,0.414-1.123,0.807-1.707,1.173c-0.302,0.19-0.61,0.364-0.937,0.509
	c-0.329,0.146-0.66,0.284-0.992,0.423c-0.911,0.397-1.803,0.837-2.728,1.197c-0.426,0.165-0.869,0.296-1.303,0.436
	c-0.438,0.141-0.883,0.267-1.334,0.354c-0.021,0.004-0.042,0.003-0.064,0.006c0.014,0.702,0.034,1.405,0.103,2.105
	c0.055,0.344,0.122,0.681,0.212,1.018c0.087,0.325,0.202,0.642,0.325,0.956c0.218,0.468,0.485,0.898,0.79,1.312
	c0.126,0.155,0.253,0.314,0.398,0.454c0.154,0.148,0.313,0.288,0.478,0.422c0.385,0.29,0.776,0.565,1.193,0.809
	c0.457,0.266,0.929,0.49,1.415,0.698c0.95,0.39,1.907,0.761,2.85,1.162c-0.02-0.009-0.041-0.018-0.061-0.026
	c0.178,0.075,0.357,0.15,0.539,0.212c0.171,0.059,0.347,0.094,0.524,0.122c0.328,0.036,0.658,0.051,0.987,0.027
	c0.321-0.063,0.638-0.152,0.946-0.266C18.781,25.522,19.288,25.296,19.766,25.005z M20.578,9.267c0,0-0.001-0.001-0.001-0.001
	c-0.016-0.007-0.032-0.014-0.049-0.019C20.544,9.253,20.561,9.26,20.578,9.267z M28.014,17.775
	c-0.008-1.189-0.019-2.377-0.145-3.561c-0.173-1.121-0.454-2.219-0.869-3.276c-0.146-0.328-0.302-0.648-0.476-0.964
	c-0.186-0.337-0.407-0.653-0.63-0.965c-0.521-0.653-1.099-1.247-1.702-1.825c-0.323-0.308-0.631-0.627-0.958-0.927
	c-0.315-0.29-0.635-0.572-0.969-0.839c-0.494-0.214-0.988-0.427-1.479-0.641c-0.421-0.179-0.846-0.361-1.287-0.478
	c-0.502-0.131-1.003-0.237-1.515-0.317c-0.372-0.048-0.744-0.093-1.117-0.115c-0.242-0.015-0.48-0.025-0.722-0.025
	c-0.209,0-0.416,0.021-0.623,0.037c0.052-0.007,0.103-0.015,0.155-0.022c-0.141,0.018-0.283,0.037-0.424,0.057
	c0.013-0.002,0.027-0.003,0.04-0.005c-0.073,0.01-0.145,0.019-0.218,0.028c0.081-0.01,0.165-0.021,0.246-0.031
	c-0.841,0.112-1.643,0.373-2.428,0.685c-0.562,0.239-1.115,0.49-1.656,0.777c-0.569,0.3-1.095,0.676-1.611,1.061
	c-0.461,0.365-0.924,0.73-1.357,1.13c-0.232,0.215-0.47,0.43-0.681,0.666c-0.188,0.21-0.363,0.422-0.535,0.64
	c-0.735,1.084-1.365,2.229-1.902,3.423c-0.194,0.484-0.37,0.971-0.52,1.472c-0.153,0.51-0.261,1.021-0.345,1.543
	c-0.083,0.814-0.139,1.629-0.152,2.445c-0.015,0.827,0.028,1.645,0.112,2.466c0.118,0.766,0.272,1.515,0.499,2.257
	c0.224,0.737,0.441,1.475,0.72,2.193c0.15,0.342,0.301,0.691,0.49,1.012c0.221,0.375,0.469,0.726,0.728,1.074
	c0.089,0.11,0.18,0.219,0.273,0.326c0.048-0.098,0.12-0.179,0.191-0.263c0.105-0.126,0.308-0.211,0.459-0.25
	c0.176-0.045,0.329-0.019,0.501,0.015c0.167,0.035,0.343,0.157,0.478,0.256c0.079,0.058,0.155,0.12,0.232,0.182
	c0.131,0.107,0.258,0.219,0.389,0.327c0.217,0.157,0.44,0.302,0.661,0.452c-0.008-0.124-0.017-0.247-0.026-0.371
	c-0.029-0.418-0.07-0.836-0.101-1.254c-0.035-0.439,0.39-0.805,0.804-0.81c-0.115-0.061-0.236-0.107-0.347-0.174
	c-0.339-0.199-0.662-0.418-0.978-0.65c-0.341-0.254-0.697-0.507-0.985-0.821c-0.306-0.329-0.579-0.685-0.838-1.051
	c-0.245-0.345-0.429-0.721-0.595-1.106c-0.354-0.853-0.592-1.745-0.688-2.667c-0.095-0.927-0.128-1.86-0.149-2.793
	c-0.009-0.4,0.316-0.727,0.7-0.778c0.028-0.039,0.046-0.086,0.08-0.12c0.186-0.186,0.395-0.242,0.647-0.269
	c0.026-0.002,0.053-0.005,0.079-0.008c0.527-0.088,1.031-0.245,1.54-0.408c0.488-0.154,0.968-0.319,1.442-0.511
	c0.889-0.384,1.772-0.783,2.665-1.157c-0.068,0.027-0.137,0.056-0.205,0.085c0.329-0.145,0.654-0.29,0.962-0.48
	c0.304-0.188,0.606-0.377,0.904-0.575c0.608-0.4,1.19-0.835,1.77-1.275c0.037-0.029,0.075-0.058,0.112-0.086
	c-0.004,0.003-0.008,0.006-0.012,0.009c0.633-0.49,1.247-0.999,1.862-1.51c0.263-0.219,0.527-0.436,0.796-0.645
	c0.292-0.229,0.583-0.482,0.925-0.631c0.211-0.091,0.294-0.118,0.525-0.143c0.047-0.009,0.094-0.014,0.142-0.014
	c0.071,0,0.142,0.01,0.213,0.031c0.252,0.037,0.484,0.168,0.672,0.339c0.285,0.258,0.496,0.592,0.751,0.877
	c0.238,0.265,0.478,0.526,0.724,0.784c0.466,0.488,1.007,0.903,1.542,1.314c-0.002-0.002-0.005-0.004-0.007-0.005
	c0.004,0.003,0.008,0.006,0.012,0.009c0.057,0.044,0.115,0.088,0.172,0.132c-0.041-0.032-0.081-0.063-0.121-0.094
	c0.276,0.207,0.569,0.39,0.86,0.572c0.42,0.261,0.583,0.807,0.327,1.245l-0.001,0.002c0.038,0.263,0.066,0.527,0.09,0.792
	c0.027,0.3,0.048,0.6,0.066,0.9c0.033,0.61,0.025,1.218,0.015,1.827c-0.01,0.633-0.035,1.272-0.104,1.903
	c-0.074,0.685-0.168,1.37-0.358,2.035c-0.234,0.813-0.554,1.595-1.01,2.309c-0.428,0.67-1.005,1.241-1.595,1.767
	c-0.411,0.367-0.849,0.702-1.295,1.025c-0.037,0.537-0.085,1.072-0.147,1.608c-0.032,0.284-0.059,0.568-0.086,0.852
	c0.09-0.047,0.179-0.094,0.27-0.14c0.457-0.232,0.916-0.455,1.384-0.66c0.252-0.11,0.509-0.217,0.768-0.308
	c0.455-0.161,0.949-0.29,1.419-0.104c0.196,0.079,0.378,0.174,0.53,0.325c0.071,0.071,0.135,0.145,0.196,0.221
	c0.043-0.089,0.085-0.178,0.127-0.266c0.172-0.359,0.339-0.72,0.499-1.085c0.28-0.686,0.494-1.384,0.672-2.105
	c0.17-0.699,0.265-1.419,0.366-2.129c0.074-0.584,0.139-1.17,0.159-1.76C28.024,19.123,28.018,18.449,28.014,17.775z"/>
</svg>