<?xml version="1.0" encoding="utf-8"?>
<!-- Generator: Adobe Illustrator 21.1.0, SVG Export Plug-In . SVG Version: 6.00 Build 0)  -->
<svg version="1.1" id="designs" xmlns="http://www.w3.org/2000/svg" xmlns:xlink="http://www.w3.org/1999/xlink" x="0px" y="0px"
	 width="32px" height="32px" viewBox="0 0 32 32" style="enable-background:new 0 0 32 32;" xml:space="preserve">
<style type="text/css">
	.sketchy_een{fill:#111918;}
</style>
<path class="sketchy_een" d="M20.446,30c-0.298,0-0.595-0.004-0.892-0.016l-0.421-0.014c-0.252-0.007-0.504-0.014-0.755-0.029
	c-0.389-0.023-0.775-0.044-1.165-0.046l-0.306-0.001c-0.665,0-1.33,0.006-1.996,0.012c-0.581,0.004-2.423,0.006-2.423,0.006
	c-0.738-0.004-1.473-0.011-2.209-0.025c0,0-0.453-0.023-0.557-0.024H9.147c-0.196-0.006-0.391-0.007-0.587-0.007l-0.49-0.001
	c-0.161,0-0.856,0.012-0.856,0.012c-0.108,0-0.214-0.002-0.321-0.008c0,0-0.837-0.042-1.076-0.05
	c-0.576-0.021-1.151-0.024-1.727-0.027l-0.287-0.001c-0.434-0.002-0.8-0.367-0.8-0.797c0-0.433,0.359-0.8,0.784-0.8
	c0.238,0.004,1.981,0.055,1.981,0.055l-0.135-0.167c-0.128-0.159-0.193-0.328-0.192-0.502l0.024-6.476
	c0.001-0.726,0.002-1.452,0.032-2.179l0.025-0.671c0.023-0.65,0.045-1.3,0.098-1.948c0.071-0.86,0.166-1.715,0.261-2.574
	l0.029-0.258c0.111-1.017,0.24-2.035,0.393-3.047c0.17-1.129,0.337-1.983,0.54-2.77c0.124-0.478,0.297-0.96,0.525-1.472
	c0.162-0.364,0.377-0.731,0.695-1.19C8.239,4.74,8.412,4.497,8.599,4.262C8.782,4.034,9.004,3.85,9.198,3.695
	c0.424-0.342,0.799-0.58,1.179-0.749l0.363-0.168c0.32-0.149,0.642-0.299,0.973-0.414c0.42-0.149,0.847-0.219,1.358-0.279
	C13.519,2.029,13.97,2,14.413,2c0.45,0,0.897,0.029,1.326,0.086c0.779,0.101,1.558,0.291,2.312,0.474l0.464,0.113
	c0.984,0.236,1.892,0.707,2.703,1.402c0.647,0.554,1.24,1.23,1.923,2.193c0.514,0.73,0.938,1.585,1.335,2.69
	c0.309,0.867,0.532,1.751,0.664,2.626c0.058,0.392,0.122,0.784,0.186,1.175c0.095,0.582,0.191,1.166,0.266,1.751
	c0.126,0.958,0.234,1.824,0.287,2.71c0.047,0.761,0.113,1.519,0.178,2.278l0.046,0.54c0.058,0.674,0.084,1.348,0.11,2.025
	l0.055,1.268c0.036,0.78,0.072,1.56,0.087,2.342c0.008,0.41,0.011,0.821,0.014,1.23c0.003,0.467,0.007,0.934,0.018,1.401
	l0.002,0.102l0.101-0.004c0.384-0.012,0.768-0.03,1.149-0.074c0.121-0.019,0.237-0.038,0.353-0.062
	c0.072-0.014,0.145-0.021,0.215-0.021c0.223,0,0.411,0.075,0.557,0.221c0.149,0.147,0.234,0.35,0.234,0.559
	c0,0.208-0.086,0.409-0.233,0.555c-0.157,0.16-0.34,0.209-0.567,0.232c-0.485,0.052-0.971,0.092-1.458,0.117
	c-0.142,0.008-0.282,0.009-0.424,0.011c-0.125,0.001-0.25,0.002-0.375,0.008c-0.273,0.013-0.547,0.024-0.819,0.024
	C25.122,29.971,20.738,30,20.446,30z M24.687,28.433l-0.003-0.105c-0.014-0.546-0.021-1.093-0.028-1.639l-0.018-1.214
	c-0.019-0.922-0.05-1.842-0.089-2.763c-0.017-0.39-0.025-0.782-0.032-1.172c-0.012-0.581-0.024-1.163-0.064-1.744
	c-0.015-0.216-0.034-0.433-0.055-0.648c-0.024-0.253-0.047-0.505-0.062-0.757l-0.09-1.446c-0.058-0.871-0.166-1.746-0.273-2.561
	c0,0-0.277-1.761-0.304-1.939c-0.04-0.281-0.081-0.562-0.136-0.839c-0.182-0.934-0.449-1.842-0.791-2.699
	c-0.172-0.4-0.326-0.731-0.519-1.047c-0.239-0.389-0.494-0.763-0.769-1.125c-0.435-0.541-0.908-1.019-1.456-1.472
	c-0.349-0.253-0.71-0.466-1.107-0.657c-0.414-0.152-0.839-0.246-1.249-0.336l-0.368-0.083c-0.507-0.117-1.02-0.229-1.537-0.306
	c-0.404-0.043-0.809-0.063-1.215-0.063c-0.509,0-1.038,0.031-1.572,0.093c-0.4,0.067-0.79,0.182-1.235,0.364l-0.27,0.115
	c-0.426,0.181-0.768,0.366-1.077,0.582C10.103,5.194,9.9,5.389,9.725,5.596C9.326,6.132,9.037,6.599,8.813,7.07
	c-0.395,0.997-0.599,2.056-0.796,3.079l-0.038,0.199c-0.212,1.099-0.363,2.212-0.509,3.289c-0.135,1.048-0.229,2.003-0.286,2.915
	c-0.099,1.588-0.139,3.321-0.124,5.453c0.008,1.122,0.011,2.244,0.014,3.367l0.007,2.201c0.001,0.238-0.115,0.42-0.213,0.531
	l-0.144,0.163c0,0,0.811,0.021,0.966,0.021l1.384-0.003c0.427,0.004,0.856,0.02,1.284,0.034c0.332,0.013,0.664,0.025,0.996,0.03
	c0.358,0.007,1.79,0.018,2.147,0.024c0.818,0.015,1.637,0.019,2.455,0.021l1.881-0.012c0.147,0,0.293,0.003,0.44,0.01
	c0.399,0.021,0.798,0.037,1.2,0.037c0.166,0,1.147-0.013,1.147-0.013c0.365,0.008,0.731,0.01,1.097,0.01l0.398-0.001L24.687,28.433z
	 M13.041,17.893c-0.064,0-0.128-0.008-0.19-0.026c-0.192-0.053-0.306-0.166-0.439-0.342c-0.116-0.153-0.226-0.31-0.336-0.466
	l-0.25-0.35c-0.233-0.273-0.506-0.515-0.725-0.711l-0.029-0.025l-0.12,0.005c-0.06,0-0.119-0.009-0.179-0.021l-0.126-0.026
	l0.017,0.412c0.007,0.209,0.015,0.419,0.036,0.628c0.021,0.213-0.116,0.458-0.252,0.595c-0.16,0.159-0.38,0.251-0.604,0.251
	c-0.23,0-0.458-0.1-0.626-0.275c-0.156-0.163-0.238-0.368-0.23-0.576c0.005-0.137,0-0.272-0.006-0.408
	c-0.006-0.147-0.013-0.291-0.004-0.437c0.01-0.161,0.026-0.322,0.04-0.483c0.016-0.167,0.031-0.334,0.041-0.503
	c0.048-0.749,0.046-1.498-0.004-2.289c-0.012-0.192,0.071-0.388,0.228-0.536c0.071-0.175,0.131-0.278,0.21-0.358
	c0.143-0.142,0.321-0.214,0.576-0.235c0.138-0.011,0.277-0.018,0.417-0.018c0.387,0,0.715,0.055,1.003,0.166
	c0.239,0.094,0.416,0.164,0.541,0.257c0.171,0.123,0.31,0.228,0.421,0.365c0.129,0.154,0.205,0.243,0.247,0.332
	c0.135,0.285,0.2,0.511,0.234,0.808c0.022,0.191,0.039,0.438-0.022,0.648c-0.087,0.293-0.255,0.55-0.528,0.807l-0.076,0.072
	l0.073,0.073c0.236,0.237,0.465,0.479,0.675,0.741c0.103,0.134,0.202,0.272,0.302,0.411c0.105,0.146,0.209,0.292,0.32,0.435
	c0.103,0.135,0.11,0.384,0.064,0.549c-0.049,0.179-0.171,0.336-0.333,0.433C13.297,17.859,13.17,17.893,13.041,17.893L13.041,17.893
	z M10.62,13.296l-0.021,0.098l0.002,0.15c0.004,0.267,0.008,0.531,0.006,0.797l-0.001,0.164l0.15-0.074
	c0.154-0.078,0.296-0.168,0.434-0.268c0.076-0.065,0.142-0.125,0.205-0.192l0.03-0.032l-0.006-0.104
	c-0.015-0.076-0.032-0.136-0.051-0.196l-0.133-0.158c-0.081-0.053-0.148-0.09-0.217-0.125c-0.09-0.03-0.167-0.048-0.245-0.063
	l-0.033-0.003L10.62,13.296z M15.418,17.851c-0.074,0-0.147-0.009-0.217-0.029c-0.205-0.057-0.385-0.196-0.494-0.38
	c-0.093-0.158-0.123-0.325-0.096-0.538c0.014-0.191,0.011-0.379,0.008-0.566l-0.002-0.229c-0.002-0.401-0.006-0.806-0.015-1.206
	c-0.013-0.653-0.061-1.303-0.109-1.953l-0.044-0.61c-0.012-0.181,0.057-0.362,0.194-0.509c0.156-0.167,0.377-0.268,0.59-0.268
	c0.426,0,0.755,0.332,0.782,0.79c0.022,0.375,0.04,0.748,0.059,1.123c0.026,0.515,0.051,1.03,0.086,1.545l0.031,0.409
	c0.022,0.272,0.044,0.545,0.051,0.818l0.004,0.151c0.009,0.295,0.018,0.573-0.034,0.854c-0.038,0.205-0.222,0.393-0.377,0.483
	C15.71,17.813,15.566,17.851,15.418,17.851z M18.827,17.705c-0.434,0-0.777-0.346-0.8-0.805c-0.007-0.157-0.007-0.316-0.006-0.474
	c0-0.161,0.001-0.323-0.007-0.484l-0.018-0.382c-0.012-0.209-0.024-0.418-0.024-0.628c0-0.254-0.017-0.507-0.033-0.759
	c-0.011-0.155-0.021-0.31-0.028-0.465c-0.017-0.458-0.033-0.899-0.044-1.342c-0.007-0.341,0.237-0.65,0.594-0.752
	c0.184-0.124,0.329-0.178,0.473-0.178c0.198,0.005,0.376,0.022,0.554,0.037l0.104,0.009c0.245,0.02,0.458,0.036,0.663,0.091
	c0.092,0.024,0.182,0.051,0.269,0.082c0.127,0.046,0.31,0.117,0.424,0.194c0.277,0.191,0.494,0.403,0.68,0.666
	c0.116,0.162,0.211,0.356,0.293,0.593c0.076,0.214,0.109,0.398,0.102,0.564c-0.02,0.404-0.06,0.868-0.302,1.231
	c-0.204,0.301-0.402,0.509-0.642,0.673c-0.149,0.102-0.302,0.184-0.464,0.262c-0.152,0.072-0.311,0.136-0.469,0.199l-0.081,0.032
	l-0.035,0.014c-0.107,0.058-0.215,0.074-0.318,0.083l-0.094,0.009l0.007,0.208c0.006,0.171,0.013,0.343-0.002,0.515
	c-0.022,0.261-0.091,0.432-0.232,0.573C19.242,17.619,19.036,17.705,18.827,17.705z M19.468,13.224l-0.001,0.074
	c-0.001,0.15-0.002,0.3,0.002,0.45c0.005,0.211,0.019,0.423,0.033,0.634l0.018,0.269l0.221-0.076
	c0.155-0.075,0.306-0.154,0.449-0.251l0.101-0.098c0.042-0.064,0.072-0.113,0.097-0.163c0.029-0.169,0.03-0.252,0.027-0.336
	c-0.052-0.125-0.097-0.204-0.149-0.281c-0.057-0.063-0.104-0.112-0.154-0.157l-0.149-0.087c-0.088-0.031-0.161-0.053-0.238-0.071
	l-0.104-0.004L19.468,13.224z"/>
</svg>