<?xml version="1.0" encoding="utf-8"?>
<!-- Generator: Adobe Illustrator 21.1.0, SVG Export Plug-In . SVG Version: 6.00 Build 0)  -->
<svg version="1.1" id="designs" xmlns="http://www.w3.org/2000/svg" xmlns:xlink="http://www.w3.org/1999/xlink" x="0px" y="0px"
	 width="32px" height="32px" viewBox="0 0 32 32" style="enable-background:new 0 0 32 32;" xml:space="preserve">
<style type="text/css">
	.sketchy_een{fill:#111918;}
</style>
<path class="sketchy_een" d="M27.719,21.429c-0.017-0.462-0.058-0.925-0.141-1.379c-0.07-0.38-0.207-0.745-0.35-1.103
	c-0.164-0.404-0.365-0.784-0.566-1.17c-0.093-0.182-0.187-0.363-0.286-0.541c-0.185-0.336-0.413-0.641-0.695-0.902
	c-0.118-0.109-0.246-0.211-0.373-0.313c0.128-0.061,0.256-0.148,0.307-0.27c0.319-0.751,0.608-1.52,0.832-2.304
	c0.102-0.355,0.16-0.726,0.224-1.089c0.075-0.413,0.135-0.828,0.203-1.244c0.07-0.421,0.122-0.84,0.133-1.267
	c0.012-0.398,0-0.796-0.021-1.192c-0.023-0.425-0.075-0.85-0.141-1.269c-0.056-0.355-0.124-0.711-0.234-1.054
	c-0.131-0.406-0.29-0.798-0.487-1.176c-0.183-0.352-0.413-0.684-0.637-1.01c-0.232-0.34-0.498-0.678-0.786-0.975
	c-0.133-0.139-0.268-0.278-0.419-0.4c-0.131-0.106-0.265-0.212-0.404-0.309c-0.193-0.133-0.427-0.218-0.647-0.295
	c-0.282-0.099-0.589-0.129-0.884-0.158C22.287,2.002,22.225,2,22.164,2c-0.145,0-0.29,0.014-0.434,0.031
	c-0.147,0.019-0.292,0.041-0.436,0.071C21.09,2.145,20.895,2.24,20.714,2.34c-0.377,0.207-0.713,0.535-0.906,0.921
	c-0.249,0.494-0.38,1.052-0.328,1.605c0.035,0.388,0.095,0.773,0.129,1.161c0.053,0.603-0.001,1.208-0.075,1.809
	c-0.054,0.349-0.12,0.693-0.201,1.036c-0.082,0.344-0.185,0.671-0.314,0.996c-0.328,0.729-0.767,1.402-1.186,2.081
	c-0.001,0-0.001-0.001-0.002-0.001c-0.4-0.207-0.827-0.321-1.269-0.38c-0.261-0.037-0.521-0.079-0.784-0.093
	c-0.18-0.01-0.361-0.016-0.542-0.016c-0.297,0-0.593,0.018-0.886,0.072c-0.888,0.164-1.732,0.467-2.547,0.854
	c-0.749,0.357-1.506,0.744-2.19,1.217c-0.751,0.519-1.489,1.054-2.159,1.676c-0.662,0.614-1.248,1.3-1.798,2.012
	c-0.253,0.328-0.492,0.668-0.713,1.018c-0.245,0.388-0.431,0.809-0.56,1.25c-0.06,0.199-0.081,0.407-0.104,0.612
	c-0.025,0.241,0.023,0.489,0.064,0.724c0.056,0.326,0.286,0.628,0.508,0.859c0.199,0.207,0.498,0.336,0.767,0.411
	c0.301,0.083,0.62,0.066,0.925,0.019c0.243-0.037,0.483-0.095,0.713-0.182c0.268-0.1,0.533-0.207,0.796-0.317
	c0.284-0.122,0.576-0.24,0.848-0.388c0.272-0.149,0.539-0.305,0.801-0.473c0.492-0.317,0.96-0.67,1.437-1.008
	c0.489-0.346,0.969-0.705,1.464-1.039c0.472-0.32,0.95-0.62,1.466-0.863c0.082-0.032,0.167-0.051,0.25-0.079
	c-0.402,0.452-0.831,0.878-1.283,1.281c-0.601,0.535-1.201,1.067-1.83,1.566c-0.545,0.418-1.102,0.822-1.681,1.193
	c-0.67,0.431-1.387,0.829-1.931,1.423c-0.147,0.162-0.288,0.336-0.409,0.516c-0.139,0.207-0.241,0.436-0.328,0.668
	c-0.056,0.154-0.108,0.313-0.133,0.477c-0.019,0.137-0.039,0.272-0.048,0.409c-0.012,0.149,0.015,0.309,0.035,0.454
	c0.077,0.539,0.365,1.018,0.792,1.354c0.373,0.294,0.813,0.473,1.279,0.56c0.392,0.071,0.79,0.133,1.188,0.168
	c0.365,0.029,0.73,0.033,1.095,0.029c0.413-0.002,0.813-0.044,1.221-0.102c0.371-0.054,0.728-0.137,1.091-0.23
	c0.377-0.097,0.742-0.216,1.107-0.348c0.324-0.118,0.649-0.226,0.968-0.357c0.753-0.311,1.491-0.701,2.175-1.143
	c0.678-0.441,1.323-0.931,1.965-1.426c-0.081,0.217-0.158,0.435-0.247,0.648c-0.155,0.367-0.272,0.736-0.38,1.118
	c-0.106,0.382-0.226,0.761-0.295,1.151c-0.023,0.139-0.037,0.28-0.056,0.419c-0.029,0.222,0.01,0.444,0.041,0.662
	c0.048,0.323,0.16,0.643,0.326,0.923c0.137,0.23,0.336,0.415,0.579,0.531c0.259,0.126,0.52,0.172,0.805,0.209
	c0.344,0.041,0.697-0.033,1.027-0.124c0.394-0.11,0.79-0.266,1.151-0.458c0.726-0.382,1.385-0.892,2.016-1.414
	c0.321-0.263,0.628-0.531,0.908-0.836c0.29-0.313,0.548-0.664,0.8-1.01c0.492-0.682,0.883-1.45,1.124-2.256
	c0.108-0.357,0.212-0.726,0.265-1.097c0.035-0.245,0.071-0.491,0.077-0.74C27.73,21.846,27.724,21.638,27.719,21.429z M19.169,12.98
	c0.363-0.61,0.73-1.222,1.049-1.856c0.168-0.336,0.311-0.684,0.448-1.033c0.11-0.28,0.178-0.57,0.239-0.863
	c0.145-0.672,0.22-1.362,0.253-2.047c0.014-0.309,0.021-0.616,0.002-0.925C21.138,5.903,21.085,5.55,21.036,5.2
	c-0.034-0.273-0.059-0.54-0.039-0.814c0.033-0.14,0.078-0.277,0.128-0.411c0.019-0.036,0.038-0.07,0.059-0.103
	c0.053-0.058,0.109-0.112,0.167-0.164c0.065-0.043,0.131-0.081,0.2-0.117c0.129-0.04,0.258-0.068,0.389-0.09
	c0.198-0.013,0.389-0.009,0.584,0.009c0.155,0.029,0.306,0.069,0.453,0.123c0.089,0.045,0.172,0.095,0.254,0.151
	c0.351,0.287,0.654,0.614,0.943,0.965c0.338,0.457,0.648,0.936,0.891,1.45c0.184,0.486,0.308,0.984,0.389,1.498
	c0.123,0.966,0.167,1.95,0.059,2.919c-0.096,0.698-0.195,1.398-0.348,2.087c-0.075,0.342-0.178,0.676-0.288,1.008
	c-0.112,0.335-0.223,0.67-0.351,0.999c-0.047,0.107-0.095,0.214-0.148,0.319c-0.052,0.107-0.073,0.219-0.079,0.331
	c-0.286-0.142-0.582-0.265-0.881-0.377c-0.404-0.153-0.863-0.224-1.292-0.251c-0.137-0.009-0.273-0.014-0.409-0.014
	c-0.251,0-0.502,0.015-0.754,0.043c-0.203,0.021-0.4,0.06-0.597,0.102c-0.191,0.043-0.374,0.12-0.553,0.2
	c-0.024-0.163-0.043-0.326-0.076-0.487c-0.046-0.218-0.116-0.433-0.183-0.645c-0.099-0.319-0.265-0.606-0.456-0.874
	C19.121,13.029,19.151,13.01,19.169,12.98z M19.348,18.947c-0.006,0.007-0.012,0.015-0.017,0.022
	c-0.002,0.002-0.003,0.004-0.005,0.006C19.333,18.966,19.34,18.956,19.348,18.947L19.348,18.947z M14.162,16.076
	c-0.214,0.052-0.419,0.143-0.622,0.224c-0.249,0.1-0.489,0.214-0.726,0.338c-0.373,0.193-0.722,0.436-1.07,0.672
	c-0.353,0.24-0.691,0.506-1.039,0.757c-0.323,0.232-0.649,0.462-0.971,0.695c-0.382,0.28-0.767,0.566-1.172,0.811
	c-0.398,0.243-0.807,0.447-1.231,0.633c-0.333,0.129-0.663,0.247-1.012,0.318c-0.08,0.005-0.159,0.007-0.24,0.003
	c-0.01-0.003-0.021-0.005-0.031-0.008c-0.011-0.006-0.023-0.012-0.034-0.019c-0.003-0.005-0.006-0.011-0.01-0.016
	c-0.006-0.02-0.011-0.041-0.016-0.061c-0.006-0.103-0.006-0.205,0.001-0.308c0.042-0.201,0.104-0.395,0.174-0.589
	c0.279-0.579,0.655-1.099,1.043-1.613c0.319-0.404,0.654-0.788,1.01-1.162c0.377-0.395,0.786-0.752,1.21-1.099
	c0.482-0.366,0.973-0.72,1.492-1.028c0.598-0.352,1.216-0.665,1.844-0.953c0.614-0.249,1.241-0.437,1.896-0.554
	c0.243-0.019,0.483-0.028,0.727-0.02c0.198,0.006,0.393,0.028,0.589,0.051c0.31,0.049,0.613,0.102,0.909,0.204
	c0.187,0.09,0.362,0.196,0.534,0.315c0.1,0.085,0.192,0.176,0.28,0.275c0.088,0.124,0.169,0.253,0.238,0.389
	c0.103,0.287,0.17,0.585,0.224,0.885c0.008,0.063,0.016,0.127,0.023,0.19c0.024,0.209,0.066,0.384,0.199,0.544
	c-0.129-0.032-0.258-0.06-0.381-0.092c-0.409-0.11-0.859-0.137-1.284-0.127C15.859,15.752,14.992,15.874,14.162,16.076z
	 M19.181,22.741c-0.646,0.489-1.293,0.977-1.951,1.453c-0.707,0.513-1.494,0.925-2.29,1.284c-0.472,0.191-0.959,0.357-1.443,0.508
	c-0.537,0.165-1.084,0.297-1.638,0.385c-0.717,0.081-1.442,0.064-2.159-0.021c-0.333-0.049-0.666-0.097-0.985-0.208
	c-0.075-0.039-0.147-0.081-0.218-0.127c-0.06-0.055-0.116-0.113-0.169-0.173c-0.018-0.028-0.035-0.055-0.05-0.084
	c-0.023-0.071-0.042-0.141-0.057-0.214c-0.003-0.074-0.003-0.148,0.001-0.222c0.026-0.132,0.061-0.259,0.105-0.388
	c0.065-0.136,0.136-0.264,0.221-0.388c0.174-0.208,0.362-0.398,0.572-0.571c0.539-0.397,1.116-0.742,1.661-1.129
	c0.659-0.465,1.3-0.962,1.918-1.475c0.591-0.492,1.157-1.012,1.723-1.533c0.583-0.539,1.139-1.095,1.615-1.732
	c0.159-0.214,0.311-0.433,0.462-0.653c0.31-0.012,0.621-0.008,0.933,0.024c0.289,0.05,0.578,0.124,0.864,0.188
	c0.02,0.005,0.039,0.002,0.059,0.005c0.029,0.025,0.05,0.056,0.083,0.077c0.057,0.036,0.112,0.074,0.167,0.113
	c0.118,0.101,0.228,0.205,0.33,0.322c0.157,0.242,0.286,0.501,0.41,0.762c-0.012,0.018-0.025,0.035-0.037,0.052
	c-0.311,0.373-0.667,0.707-1.029,1.032c-0.357,0.321-0.732,0.626-1.11,0.924c-0.588,0.441-1.21,0.838-1.851,1.199
	c-0.67,0.377-1.336,0.753-2.02,1.107c-0.425,0.218-0.547,0.803-0.315,1.199c0.249,0.425,0.776,0.537,1.199,0.315
	c0.317-0.168,0.63-0.34,0.939-0.519c0.265-0.155,0.519-0.323,0.786-0.473c0.593-0.336,1.172-0.695,1.732-1.082
	c0.589-0.406,1.13-0.879,1.682-1.331c0.272-0.222,0.536-0.457,0.785-0.707c0.038,0.106,0.08,0.21,0.103,0.321
	c0.018,0.255-0.011,0.511-0.04,0.765C19.868,22.103,19.547,22.448,19.181,22.741z M26.152,22.302
	c-0.099,0.604-0.256,1.197-0.477,1.767c-0.28,0.614-0.642,1.176-1.047,1.714c-0.244,0.302-0.502,0.583-0.786,0.851
	c-0.267,0.25-0.549,0.484-0.836,0.711c-0.452,0.336-0.918,0.651-1.428,0.889c-0.293,0.11-0.585,0.208-0.891,0.269
	c-0.09,0.006-0.18,0.005-0.27,0c-0.053-0.012-0.105-0.026-0.156-0.042c-0.015-0.025-0.03-0.051-0.044-0.078
	c-0.04-0.132-0.073-0.265-0.098-0.4c-0.006-0.127,0.002-0.25,0.015-0.375c0.063-0.342,0.165-0.673,0.261-1.006
	c0.09-0.311,0.181-0.617,0.297-0.92c0.285-0.656,0.571-1.314,0.738-2.01c0.079-0.334,0.122-0.68,0.18-1.02
	c0.071-0.423,0.137-0.848,0.178-1.277c0.029-0.303,0.008-0.591-0.052-0.892c-0.056-0.274-0.189-0.535-0.305-0.79
	c-0.145-0.324-0.294-0.649-0.442-0.971c-0.143-0.307-0.288-0.614-0.446-0.912c-0.16-0.301-0.35-0.579-0.583-0.832
	c-0.023-0.025-0.046-0.049-0.07-0.072c0.22-0.163,0.445-0.315,0.695-0.436c0.177-0.062,0.354-0.107,0.539-0.143
	c0.388-0.037,0.77-0.038,1.159,0.001c0.204,0.031,0.405,0.068,0.602,0.128c0.182,0.055,0.36,0.125,0.537,0.197
	c0.307,0.146,0.586,0.32,0.86,0.52c0.206,0.162,0.404,0.328,0.576,0.526c0.195,0.282,0.345,0.594,0.506,0.893
	c0.148,0.272,0.289,0.545,0.417,0.827c0.145,0.377,0.261,0.755,0.335,1.153C26.177,21.145,26.195,21.725,26.152,22.302z"/>
</svg>