<?xml version="1.0" encoding="utf-8"?>
<!-- Generator: Adobe Illustrator 21.1.0, SVG Export Plug-In . SVG Version: 6.00 Build 0)  -->
<svg version="1.1" id="designs" xmlns="http://www.w3.org/2000/svg" xmlns:xlink="http://www.w3.org/1999/xlink" x="0px" y="0px"
	 width="32px" height="32px" viewBox="0 0 32 32" style="enable-background:new 0 0 32 32;" xml:space="preserve">
<style type="text/css">
	.sketchy_een{fill:#111918;}
</style>
<path class="sketchy_een" d="M15.216,29.996c-0.477-0.015-0.983-0.067-1.595-0.161c-0.477-0.075-0.954-0.154-1.423-0.267
	c-0.459-0.11-0.957-0.287-1.479-0.528c-1.694-0.779-3.142-2.295-4.076-4.27c-0.265-0.56-0.432-1.023-0.526-1.458
	c-0.109-0.512-0.205-1.023-0.272-1.543c-0.125-0.95-0.172-1.914-0.138-2.864c0.08-2.398,0.343-4.328,0.827-6.075
	c0.564-2.041,1.374-3.932,2.408-5.621l0.079-0.13c0.195-0.321,0.39-0.644,0.619-0.942c0.267-0.349,0.547-0.676,0.841-1.001
	c0.36-0.396,0.767-0.739,1.118-1.021c0.446-0.358,0.85-0.651,1.235-0.896c0.241-0.155,0.439-0.283,0.647-0.387
	c0.252-0.128,0.508-0.244,0.767-0.356l0,0c0.371-0.157,0.748-0.296,1.128-0.428c0.07-0.024,0.143-0.036,0.218-0.036
	c0.048,0,0.095,0.005,0.142,0.014C15.845,2.01,15.917,2,15.987,2c0.4,0.039,0.761,0.113,1.199,0.237
	c0.37,0.105,0.737,0.215,1.102,0.33c0.285,0.089,0.559,0.198,0.831,0.312c0.426,0.178,0.839,0.382,1.263,0.623
	c0.377,0.214,0.766,0.436,1.119,0.695c0.375,0.271,0.803,0.604,1.146,1.017c0.352,0.42,0.655,0.838,0.927,1.278
	c0.386,0.624,0.724,1.3,1.051,1.953l0.257,0.509c0.098,0.194,0.196,0.391,0.283,0.594l0.255,0.591
	c0.038,0.078,0.07,0.161,0.101,0.244c0.371,0.953,0.601,1.955,0.719,3.067c0.101,0.969,0.065,1.933,0.02,2.838
	c-0.095,1.935-0.248,3.983-0.958,5.878c-0.38,1.021-0.829,1.96-1.337,2.793c-0.258,0.42-0.57,0.838-0.929,1.243l-0.071,0.081
	c-0.303,0.344-0.607,0.689-0.934,1.009c-0.465,0.456-0.848,0.771-1.242,1.022c-0.36,0.229-0.732,0.425-1.18,0.65
	c-0.737,0.371-1.594,0.651-2.698,0.882C16.414,29.948,15.924,30,15.454,30L15.216,29.996z M14.671,4.073
	c-0.384,0.189-0.749,0.375-1.09,0.604c-0.288,0.196-0.568,0.397-0.844,0.606c-0.635,0.522-1.183,1.069-1.677,1.676
	c-0.394,0.533-0.774,1.136-1.164,1.846C9.604,9.34,9.337,9.882,9.083,10.434c-0.405,1-0.675,1.774-0.876,2.515
	c-0.128,0.472-0.25,0.944-0.35,1.424c-0.086,0.409-0.15,0.821-0.21,1.235c-0.268,2.183-0.294,4.111-0.08,5.899
	c0.129,0.867,0.299,1.554,0.535,2.166c0.285,0.615,0.618,1.175,1.02,1.72c0.422,0.513,0.833,0.93,1.258,1.278
	c0.487,0.35,0.946,0.62,1.408,0.83c0.528,0.203,0.962,0.334,1.373,0.418c0.439,0.088,0.882,0.169,1.326,0.234
	c0.382,0.043,0.757,0.072,1.133,0.072h0c0.193,0,0.386-0.008,0.58-0.025c0.9-0.153,1.653-0.352,2.309-0.608
	c0.717-0.32,1.298-0.646,1.783-0.998c0.617-0.538,1.216-1.167,1.836-1.93c0.487-0.685,0.919-1.471,1.361-2.483
	c0.227-0.591,0.405-1.148,0.547-1.709c0.115-0.469,0.213-0.984,0.299-1.574c0.106-0.967,0.158-1.937,0.199-2.843
	c0.048-1.056,0.033-1.938-0.048-2.775c-0.131-0.844-0.335-1.641-0.611-2.373c-0.023-0.046-0.037-0.085-0.049-0.123
	c-0.261-0.596-0.552-1.163-0.844-1.731l-0.239-0.468c-0.391-0.782-0.743-1.428-1.182-2.034c-0.277-0.334-0.559-0.623-0.866-0.889
	c-0.697-0.512-1.443-0.947-2.221-1.296c-0.344-0.137-0.69-0.248-1.037-0.36l-0.796-0.249c0,0,0.12,0.356,0.151,0.442l-0.01,0.004
	l0.17,0.404l0.01-0.004c0.208,0.441,0.425,0.873,0.657,1.296l0.059,0.107c0.131,0.238,0.267,0.483,0.346,0.738
	c0.134,0.431,0.104,0.86-0.086,1.241c-0.091,0.184-0.207,0.35-0.33,0.515c-0.373,0.507-0.782,0.983-1.17,1.423l-0.306,0.342
	c-0.207,0.229-0.413,0.459-0.609,0.696l-0.066,0.08l0.082,0.063l0.446,0.374c0.299,0.256,0.596,0.512,0.885,0.775
	c0.698,0.641,1.268,1.184,1.727,1.849c0.225,0.328,0.333,0.623,0.338,0.928c0.003,0.355-0.216,0.698-0.407,0.957
	c-0.289,0.39-0.59,0.766-0.905,1.135l-0.391,0.463c-0.421,0.497-0.843,0.995-1.271,1.487c-0.124,0.143-0.31,0.222-0.523,0.222
	c-0.218,0-0.433-0.085-0.575-0.227c-0.3-0.3-0.298-0.776,0.003-1.107c0.671-0.734,1.31-1.521,1.907-2.263
	c0.15-0.194,0.294-0.39,0.422-0.597l0.035-0.058l-0.039-0.055c-0.755-0.937-1.646-1.698-2.507-2.434l-0.455-0.39
	c-0.231-0.201-0.456-0.426-0.535-0.714c-0.098-0.355-0.016-0.735,0.233-1.069c0.237-0.318,0.486-0.621,0.753-0.912
	c0.509-0.553,0.921-1.028,1.297-1.498c0.16-0.21,0.314-0.422,0.438-0.651l-0.029-0.195c-0.12-0.268-0.247-0.522-0.373-0.777
	c-0.153-0.307-0.305-0.614-0.441-0.929c-0.16-0.374-0.362-0.869-0.501-1.383l-0.029-0.108L14.671,4.073z"/>
<path class="sketchy_een" d="M14.244,2.469c-0.008,0.003-0.015,0.007-0.023,0.01c-0.007,0.003-0.014,0.006-0.021,0.009
	C14.215,2.482,14.23,2.476,14.244,2.469z M19.123,2.875c0.004,0.001,0.008,0.004,0.012,0.006c0.009,0.004,0.018,0.007,0.027,0.01
	C19.149,2.885,19.136,2.88,19.123,2.875z"/>
</svg>