<?xml version="1.0" encoding="utf-8"?>
<!-- Generator: Adobe Illustrator 21.1.0, SVG Export Plug-In . SVG Version: 6.00 Build 0)  -->
<svg version="1.1" id="designs" xmlns="http://www.w3.org/2000/svg" xmlns:xlink="http://www.w3.org/1999/xlink" x="0px" y="0px"
	 width="32px" height="32px" viewBox="0 0 32 32" style="enable-background:new 0 0 32 32;" xml:space="preserve">
<style type="text/css">
	.sketchy_een{fill:#111918;}
</style>
<path class="sketchy_een" d="M17.109,4.502c-0.004-0.001-0.008,0-0.013-0.001c-0.007-0.001-0.014-0.003-0.022-0.004
	C17.086,4.499,17.097,4.5,17.109,4.502z M24.459,7.481L24.459,7.481c-0.006-0.004-0.011-0.009-0.016-0.013
	C24.448,7.473,24.454,7.477,24.459,7.481z M16.992,4.485c0.017,0.002,0.033,0.005,0.05,0.007c0.075,0.009,0.15,0.02,0.225,0.029
	C17.176,4.51,17.084,4.497,16.992,4.485z M17.024,4.49c0.017,0.002,0.034,0.005,0.051,0.007c-0.011-0.002-0.021-0.003-0.032-0.005
	C17.036,4.491,17.03,4.491,17.024,4.49z M27.943,21.307c-0.226,0.44-0.477,0.838-0.788,1.222c-0.267,0.331-0.566,0.63-0.85,0.945
	c-0.303,0.335-0.604,0.669-0.935,0.976c-0.345,0.321-0.715,0.618-1.093,0.899c-0.667,0.497-1.402,0.923-2.163,1.264
	c-0.551,0.246-1.04,0.6-1.582,0.858c-0.293,0.141-0.604,0.172-0.895,0c-0.071-0.041-0.126-0.102-0.183-0.16
	c-0.035-0.014-0.073-0.016-0.107-0.036c-0.129-0.073-0.246-0.161-0.362-0.253c-0.193-0.134-0.399-0.252-0.609-0.353
	c-0.156-0.075-0.297-0.174-0.45-0.257c-0.125-0.071-0.256-0.134-0.388-0.194c-0.293-0.119-0.592-0.222-0.904-0.277
	c-0.318-0.031-0.634-0.032-0.952,0.003c-0.475,0.075-0.952,0.198-1.401,0.371c-0.332,0.152-0.641,0.341-0.935,0.557
	c-0.168,0.132-0.334,0.267-0.503,0.398c-0.111,0.111-0.242,0.188-0.392,0.23c-0.158,0.042-0.315,0.042-0.473,0
	c-0.096-0.026-0.182-0.076-0.263-0.131c-0.093-0.018-0.185-0.041-0.272-0.089c-0.679-0.374-1.38-0.701-2.072-1.052
	c-0.82-0.418-1.575-0.951-2.276-1.545c-0.319-0.273-0.632-0.555-0.955-0.822c-0.325-0.271-0.624-0.555-0.921-0.856
	c-0.204-0.208-0.402-0.408-0.58-0.638c-0.172-0.222-0.357-0.438-0.499-0.681c-0.099-0.17-0.188-0.343-0.271-0.521
	c-0.198-0.432-0.353-0.867-0.489-1.321c-0.121-0.404-0.174-0.82-0.232-1.236c-0.125-0.937-0.172-1.876-0.141-2.818
	c0.008-0.293,0.024-0.578,0.063-0.869c0.03-0.202,0.077-0.4,0.129-0.598c0.121-0.469,0.277-0.913,0.479-1.355
	c0.374-0.818,0.812-1.596,1.276-2.367c0.226-0.38,0.487-0.739,0.749-1.095C6.008,9.093,6.313,8.679,6.66,8.302
	c0.321-0.351,0.65-0.683,1.01-0.994c0.372-0.317,0.776-0.62,1.182-0.895c0.81-0.547,1.711-1.034,2.648-1.323
	c0.915-0.279,1.832-0.501,2.785-0.61c0.426-0.049,0.862-0.055,1.291-0.065c0.074-0.002,0.148-0.003,0.221-0.003
	c0.435,0,0.862,0.031,1.299,0.089c0.369,0.053,0.728,0.136,1.094,0.205c0.325,0.063,0.652,0.119,0.976,0.182
	c0.616,0.121,1.23,0.309,1.812,0.545c0.652,0.263,1.291,0.559,1.893,0.921c0.557,0.335,1.073,0.729,1.586,1.127
	c0.528,0.406,1.07,0.807,1.499,1.325c0.448,0.541,0.814,1.127,1.171,1.729c0.473,0.808,0.85,1.677,1.141,2.567
	c0.139,0.42,0.277,0.834,0.382,1.266c0.119,0.491,0.206,0.986,0.273,1.487C29.172,17.716,28.798,19.639,27.943,21.307z
	 M27.15,16.086c-0.078-0.521-0.191-1.03-0.317-1.543c-0.073-0.299-0.184-0.588-0.285-0.879c-0.083-0.245-0.163-0.489-0.255-0.731
	c-0.216-0.499-0.445-0.988-0.727-1.456c-0.273-0.448-0.557-0.883-0.867-1.305c-0.26-0.305-0.548-0.581-0.854-0.838
	c-0.362-0.276-0.723-0.55-1.082-0.828c0.063,0.049,0.125,0.097,0.188,0.147c-0.738-0.538-1.532-0.999-2.365-1.373
	c-0.55-0.227-1.114-0.439-1.687-0.586c-0.353-0.089-0.711-0.139-1.068-0.2c-0.312-0.054-0.621-0.123-0.933-0.178
	c-0.449-0.05-0.898-0.083-1.351-0.063c-0.461,0.021-0.923,0.04-1.383,0.081c-0.988,0.152-1.946,0.452-2.88,0.803
	C10.524,7.48,9.82,7.94,9.152,8.437C8.855,8.677,8.557,8.92,8.29,9.194c-0.289,0.296-0.562,0.6-0.821,0.922
	c-0.449,0.592-0.869,1.202-1.246,1.843c-0.373,0.636-0.711,1.293-1.007,1.967c-0.185,0.469-0.326,0.958-0.407,1.456
	c-0.046,0.49-0.041,0.986-0.039,1.479c0.002,0.475,0.031,0.942,0.089,1.413c0.045,0.308,0.09,0.618,0.179,0.916
	c0.086,0.29,0.179,0.578,0.287,0.861c0.138,0.301,0.294,0.59,0.484,0.863c0.157,0.201,0.318,0.403,0.496,0.584
	c0.255,0.261,0.509,0.537,0.79,0.77c0.319,0.261,0.636,0.525,0.951,0.79c0.266,0.224,0.526,0.455,0.8,0.673
	c0.283,0.211,0.57,0.424,0.872,0.604c0.291,0.174,0.584,0.347,0.875,0.519c0.287,0.17,0.574,0.339,0.873,0.483
	c0.203,0.097,0.402,0.202,0.602,0.305c0.055-0.042,0.11-0.084,0.166-0.125c0.654-0.477,1.359-0.858,2.149-1.062
	c0.43-0.111,0.873-0.206,1.317-0.24c0.107-0.008,0.214-0.011,0.32-0.011c0.33,0,0.657,0.034,0.987,0.078
	c0.349,0.049,0.658,0.158,0.982,0.291c0.37,0.151,0.717,0.323,1.054,0.535c0.22,0.135,0.456,0.234,0.669,0.376
	c0.122,0.082,0.239,0.166,0.359,0.248c0.135-0.071,0.271-0.14,0.406-0.216c0.321-0.18,0.654-0.329,0.986-0.483
	c0.721-0.335,1.402-0.766,2.04-1.24c0.439-0.353,0.851-0.735,1.234-1.148c0.359-0.388,0.72-0.775,1.058-1.181
	c0.325-0.448,0.57-0.936,0.792-1.442c0.257-0.646,0.44-1.333,0.548-2.02C27.203,17.362,27.214,16.729,27.15,16.086z M22.239,14.565
	c-0.238,0.285-0.485,0.562-0.733,0.84c-0.258,0.289-0.517,0.578-0.794,0.848c-0.258,0.25-0.527,0.489-0.77,0.753
	c-0.24,0.259-0.471,0.523-0.711,0.78c-0.223,0.242-0.453,0.478-0.671,0.725c0.02,0.024,0.045,0.044,0.064,0.069
	c0.182,0.236,0.307,0.44,0.416,0.717c0.065,0.168,0.109,0.341,0.143,0.517c0.044,0.232,0.075,0.477,0.063,0.715
	c-0.02,0.382-0.107,0.711-0.283,1.05c-0.111,0.216-0.271,0.432-0.432,0.612c-0.156,0.174-0.331,0.347-0.531,0.467
	c-0.37,0.228-0.814,0.353-1.24,0.42c-0.402,0.063-0.81,0.061-1.202-0.057c-0.358-0.109-0.705-0.252-1.01-0.473
	c-0.329-0.242-0.63-0.541-0.81-0.911c-0.101-0.208-0.196-0.42-0.255-0.644c-0.063-0.236-0.091-0.499-0.071-0.745
	c0.022-0.248,0.046-0.541,0.141-0.774c0.137-0.339,0.273-0.642,0.523-0.919c0.196-0.218,0.414-0.396,0.652-0.568
	c0.029-0.021,0.06-0.039,0.094-0.054c0.066-0.107,0.159-0.197,0.276-0.257c0.224-0.115,0.458-0.214,0.707-0.248
	c0.108-0.015,0.2-0.026,0.297-0.026c0.033,0,0.068,0.001,0.103,0.004c0.121,0.012,0.24,0.03,0.36,0.048
	c0.214,0.03,0.434,0.077,0.64,0.148c0.053,0.018,0.104,0.044,0.156,0.065c0.034-0.068,0.069-0.135,0.124-0.192
	c0.45-0.463,0.862-0.959,1.283-1.448c0.436-0.505,0.917-0.968,1.351-1.477c0.452-0.529,0.883-1.075,1.357-1.588
	c0.421-0.456,0.827-0.922,1.214-1.407c0.139-0.186,0.275-0.375,0.408-0.565c0.129-0.188,0.283-0.331,0.509-0.392
	c0.074-0.021,0.15-0.031,0.226-0.031c0.15,0,0.3,0.04,0.432,0.116c0.19,0.111,0.333,0.297,0.392,0.511
	c0.055,0.204,0.042,0.477-0.087,0.656c-0.479,0.677-1.044,1.283-1.596,1.897C22.726,14.018,22.472,14.281,22.239,14.565z
	 M15.947,19.076L15.947,19.076c0.014-0.006,0.028-0.011,0.041-0.016C15.975,19.065,15.961,19.07,15.947,19.076z M15.938,19.081
	c0.003-0.001,0.005-0.002,0.007-0.003h0l0,0C15.942,19.079,15.94,19.079,15.938,19.081z M15.834,19.124
	c0.008-0.003,0.015-0.006,0.023-0.01C15.85,19.117,15.842,19.12,15.834,19.124C15.834,19.123,15.834,19.123,15.834,19.124z
	 M17.651,20.615c0.008-0.127,0.005-0.254-0.003-0.382c-0.026-0.136-0.06-0.268-0.106-0.399c-0.021-0.041-0.043-0.081-0.067-0.12
	c-0.095-0.107-0.201-0.206-0.311-0.298c-0.106-0.072-0.218-0.132-0.334-0.187c-0.182-0.066-0.375-0.111-0.568-0.145
	c-0.075-0.008-0.15-0.013-0.226-0.012c-0.069,0.015-0.137,0.033-0.205,0.055c-0.07,0.107-0.166,0.192-0.279,0.273
	c-0.027,0.019-0.053,0.038-0.08,0.057c-0.086,0.076-0.167,0.157-0.244,0.242c-0.038,0.059-0.071,0.12-0.102,0.183
	c-0.027,0.08-0.047,0.16-0.063,0.242c-0.009,0.101-0.012,0.201-0.007,0.302c0.022,0.101,0.051,0.198,0.086,0.294
	c0.053,0.101,0.11,0.198,0.173,0.292c0.056,0.059,0.114,0.115,0.176,0.169c0.098,0.068,0.199,0.128,0.305,0.182
	c0.132,0.049,0.267,0.088,0.404,0.118c0.131,0.007,0.259,0,0.391-0.013c0.163-0.03,0.321-0.071,0.477-0.126
	c0.047-0.023,0.092-0.049,0.136-0.077c0.091-0.081,0.173-0.168,0.251-0.261c0.058-0.083,0.109-0.167,0.155-0.256
	C17.627,20.705,17.639,20.661,17.651,20.615z M8.211,17.457c-0.261,0.002-0.522,0.016-0.784,0.02
	c-0.32,0.004-0.639,0.007-0.957,0.014c-0.408,0.009-0.748,0.333-0.748,0.748c0,0.397,0.34,0.764,0.748,0.748
	c0.581-0.021,1.161-0.054,1.741-0.066c0.399-0.007,0.732-0.327,0.732-0.732C8.942,17.792,8.61,17.457,8.211,17.457z M24.678,17.276
	c-0.032-0.002-0.064-0.003-0.096-0.003c-0.19,0-0.383,0.031-0.571,0.043c-0.272,0.017-0.544,0.037-0.817,0.065
	c-0.208,0.021-0.382,0.07-0.536,0.222c-0.141,0.143-0.222,0.337-0.222,0.537c0,0.201,0.08,0.394,0.222,0.536
	c0.127,0.129,0.347,0.244,0.536,0.223c0.492-0.058,0.988-0.126,1.483-0.134c0.405-0.005,0.743-0.333,0.743-0.743
	c0-0.197-0.079-0.387-0.218-0.527C25.057,17.348,24.881,17.29,24.678,17.276z M16.573,11.032c0.426,0,0.734-0.344,0.755-0.755
	c0.024-0.491,0.057-0.979,0.082-1.47c0.021-0.419-0.367-0.771-0.771-0.771c-0.431,0-0.753,0.351-0.771,0.771
	c-0.017,0.489-0.03,0.979-0.05,1.47C15.798,10.687,16.174,11.032,16.573,11.032z M10.9,11.711c-0.116-0.1-0.228-0.206-0.34-0.312
	c-0.244-0.228-0.477-0.468-0.704-0.713c-0.149-0.162-0.358-0.239-0.568-0.239c-0.218,0-0.437,0.082-0.593,0.239
	c-0.324,0.322-0.308,0.835,0,1.161c0.228,0.242,0.464,0.469,0.711,0.69c0.201,0.177,0.426,0.331,0.616,0.519
	c0.312,0.305,0.82,0.31,1.13,0c0.314-0.313,0.303-0.817,0-1.13C11.077,11.847,10.984,11.783,10.9,11.711z"/>
</svg>