<?xml version="1.0" encoding="utf-8"?>
<!-- Generator: Adobe Illustrator 21.1.0, SVG Export Plug-In . SVG Version: 6.00 Build 0)  -->
<svg version="1.1" id="designs" xmlns="http://www.w3.org/2000/svg" xmlns:xlink="http://www.w3.org/1999/xlink" x="0px" y="0px"
	 width="32px" height="32px" viewBox="0 0 32 32" style="enable-background:new 0 0 32 32;" xml:space="preserve">
<style type="text/css">
	.sketchy_een{fill:#111918;}
</style>
<path class="sketchy_een" d="M22.775,31c-0.113,0-0.223-0.008-0.335-0.015c-0.114-0.008-0.227-0.016-0.342-0.016h-0.773
	l-0.565-0.013c-0.284-0.007-0.569-0.014-0.854-0.016l-0.164-0.001c-0.458,0-0.913,0.013-1.371,0.025
	c-0.333,0.009-0.667,0.018-1.002,0.023l-0.467,0.003c-0.484,0-0.968-0.009-1.452-0.017l-0.891-0.013
	c-0.625-0.007-1.25-0.013-1.876-0.013l-0.751,0.003l-0.437,0.009c-0.176,0.005-0.353,0.01-0.53,0.01
	c-0.136,0-0.271-0.003-0.406-0.011c-0.431-0.024-0.862-0.064-1.291-0.114c-0.141,0.045-0.233,0.065-0.323,0.065
	c-0.235,0-0.463-0.095-0.628-0.261c-0.143-0.142-0.284-0.396-0.259-0.62c0.028-0.284,0.027-0.57,0.026-0.854
	c0-0.179-0.001-0.359,0.005-0.537l0.01-0.244c0.017-0.405,0.034-0.808,0.044-1.214c0.007-0.309,0.005-0.616,0.003-0.924
	c0,0,0.006-1.703,0.005-2.024c-0.002-0.965-0.026-1.926-0.06-2.89c-0.024-0.759-0.004-1.531,0.015-2.278l0.011-0.451
	c0.024-0.924,0.048-1.846,0.084-2.768c0.043-1.108,0.041-2.195,0.034-3.112c0-0.134,0.041-0.267,0.13-0.415
	c0.024-0.446,0.375-0.786,0.807-0.798c0.725-0.02,1.452-0.024,2.178-0.024l1.607-0.001c0.524-0.002,1.049-0.01,1.574-0.018
	l0.227-0.004c0.005-0.62-0.02-1.189-0.044-1.756l-0.001-0.039l-0.113-0.025c-0.037-0.009-0.074-0.017-0.11-0.029
	c-0.37-0.136-0.792-0.324-1.12-0.688c-0.211-0.238-0.367-0.47-0.476-0.709c-0.195-0.436-0.304-0.862-0.335-1.303
	c-0.031-0.479,0.033-0.982,0.194-1.535c0.195-0.662,0.488-1.356,0.869-2.063c0.284-0.529,0.627-1.149,1.02-1.739
	C14.908,1.186,15.176,1,15.483,1c0.337,0.019,0.585,0.146,0.771,0.369c0.09,0.105,0.173,0.215,0.257,0.324
	c0.26,0.336,0.455,0.681,0.649,1.037c0.124,0.228,0.24,0.461,0.356,0.695l0.203,0.405c0.205,0.396,0.437,0.845,0.595,1.295
	c0.312,0.902,0.264,1.902-0.135,2.815c-0.151,0.348-0.366,0.685-0.676,1.059c-0.117,0.143-0.249,0.289-0.423,0.402
	c-0.097,0.063-0.193,0.121-0.294,0.175c-0.103,0.057-0.212,0.102-0.321,0.147l-0.097,0.041l-0.027,0.164
	c0.004,0.194,0.009,0.387,0.018,0.581c0.006,0.155,0.049,0.753,0.056,0.898l0.344,0.044c0.443-0.006,0.887-0.012,1.33-0.012
	c0.299,0,0.598-0.006,0.897-0.013c0.298-0.006,0.597-0.013,0.896-0.013c0.25,0,0.5,0.005,0.75,0.018l1.223,0.057
	c0.277,0.014,0.551,0.043,0.825,0.079l0.426,0.057c0.185,0.025,0.379,0.205,0.476,0.368c0.093,0.161,0.123,0.362,0.083,0.564
	c0.133,0.206,0.2,0.38,0.205,0.558c0.024,0.67,0.008,1.337-0.008,2.006c-0.009,0.37-0.018,0.74-0.02,1.111
	c-0.008,1.027-0.004,2.054,0,3.082c0.003,0.92-0.016,1.839-0.035,2.758c-0.018,0.876-0.035,1.752-0.034,2.629
	c0,0.64,0.037,1.275,0.075,1.91l0.044,0.797c0.022,0.461,0.027,0.921,0.033,1.382c0.005,0.364,0.01,0.727,0.023,1.092
	c0.008,0.27-0.144,0.533-0.407,0.703c-0.182,0.266-0.442,0.412-0.725,0.417H22.775z M13.233,29.405c0.653,0,1.306,0.01,1.958,0.028
	c0.418,0.013,0.834,0.018,1.251,0.018c0.515,0,1.029-0.008,1.545-0.021c0.45-0.011,0.898-0.027,1.347-0.044
	c0.388-0.014,1.512-0.051,1.512-0.051c0.27-0.011,0.541-0.021,0.812-0.021h0.524c0.052-0.283,0.053-0.517,0.048-0.749
	c-0.01-0.493-0.024-0.987-0.046-1.477l-0.034-0.614c-0.018-0.3-0.035-0.599-0.045-0.898c-0.014-0.376-0.009-0.752-0.004-1.129
	l0.004-0.353c0.005-0.938,0.027-1.873,0.05-2.81c0.021-0.863,0.041-1.726,0.048-2.591c0.011-1.705,0.024-3.637-0.07-5.508
	c-0.742-0.129-1.491-0.178-2.403-0.202c-0.496-0.013-0.991-0.018-1.486-0.018c-0.673,0-1.345,0.009-2.017,0.018
	c-0.535,0.006-2.052,0.017-2.052,0.017l-0.934,0.004l-0.049,0.587c0,0.305-0.001,0.609,0.004,0.914
	c0.008,0.426,0.041,0.882,0.104,1.433c0.073,0.471,0.152,0.823,0.259,1.143c0.048,0.099,0.098,0.187,0.155,0.272l0.107,0.111
	c0.161-0.089,0.246-0.184,0.332-0.28c0.082-0.092,0.165-0.184,0.254-0.27c0.12-0.119,0.253-0.222,0.39-0.318
	c0.122-0.083,0.272-0.157,0.4-0.196c0.124-0.037,0.286-0.079,0.44-0.079c0.179,0.012,0.303,0.027,0.427,0.05
	c0.089,0.033,0.18,0.076,0.267,0.126c0.135,0.072,0.29,0.228,0.415,0.422c0.167,0.253,0.291,0.584,0.36,0.959
	c0.062,0.321,0.107,0.644,0.139,0.968c0.048,0.478,0.079,0.958,0.112,1.437c0.039,0.603,0.079,1.205,0.151,1.805
	c0.052,0.332,0.111,0.663,0.179,0.992c0.059,0.291,0.121,0.581,0.223,0.861c0.034,0.069,0.069,0.128,0.107,0.188l0.091,0.093
	c0.052,0.034,0.097,0.06,0.145,0.084l0.195-0.031l0.11-0.113c0.067-0.099,0.121-0.195,0.171-0.296
	c0.108-0.295,0.184-0.601,0.243-0.968c0.08-0.832,0.095-1.673,0.099-2.456c0.003-0.267,0.026-0.478,0.076-0.665
	c0.043-0.158,0.116-0.322,0.184-0.471c0.097-0.203,0.281-0.399,0.549-0.582c0.095-0.066,0.211-0.1,0.334-0.1
	c0.255,0,0.51,0.142,0.634,0.355c0.094,0.165,0.121,0.364,0.071,0.547c-0.039,0.139-0.115,0.252-0.238,0.357
	c-0.039,0.101-0.058,0.181-0.073,0.262c-0.02,0.254-0.02,0.506-0.02,0.755l-0.001,0.288c-0.002,0.431-0.006,0.86-0.036,1.289
	c-0.034,0.539-0.093,0.974-0.186,1.368c-0.06,0.269-0.164,0.527-0.258,0.744c-0.099,0.226-0.224,0.427-0.393,0.631
	c-0.072,0.084-0.141,0.159-0.22,0.23c-0.131,0.115-0.238,0.191-0.318,0.226c-0.267,0.118-0.534,0.223-0.835,0.223
	c-0.149,0-0.285-0.014-0.402-0.039c-0.128-0.027-0.229-0.072-0.345-0.122c-0.478-0.204-0.853-0.558-1.029-0.974
	c-0.106-0.253-0.191-0.465-0.241-0.704c-0.041-0.187-0.081-0.374-0.107-0.562c-0.121-0.838-0.178-1.694-0.233-2.523l-0.049-0.782
	c-0.03-0.517-0.06-1.037-0.119-1.552c-0.045-0.26-0.096-0.511-0.178-0.757c-0.238,0.126-0.374,0.288-0.51,0.453
	c-0.192,0.233-0.373,0.398-0.588,0.537c-0.109,0.071-0.286,0.121-0.409,0.154c-0.101,0.018-0.208,0.029-0.316,0.037
	c-0.101-0.006-0.209-0.018-0.314-0.037c-0.1-0.024-0.192-0.058-0.278-0.105c-0.574-0.243-1.032-0.848-1.228-1.619
	c-0.063-0.246-0.1-0.5-0.137-0.751c-0.164-1.123-0.193-2.229-0.221-3.299l-0.005-0.17l-1.68,0.017
	c-0.061,1.002-0.09,1.953-0.132,2.906c-0.043,0.947-0.05,1.949-0.024,3.061l0.017,0.869c0.012,0.642,0.023,1.284,0.053,1.925
	c0.032,0.681,0.032,1.362,0.032,2.044l0.002,0.746c0.006,0.917,0.01,1.836,0.004,2.755c-0.002,0.254-0.015,0.508-0.027,0.761
	c-0.009,0.184-0.018,0.368-0.023,0.553l-0.011,0.592c0.366,0.089,0.689,0.121,1.011,0.121c0.335,0,0.655-0.007,0.975-0.013
	l0.655-0.012L13.233,29.405z M15.482,3.066c-0.357,0.552-0.687,1.158-0.98,1.802c-0.185,0.469-0.315,0.906-0.399,1.336
	c-0.018,0.216-0.014,0.419,0.003,0.628c0.034,0.182,0.078,0.351,0.136,0.521c0.057,0.12,0.117,0.229,0.185,0.336
	c0.057,0.065,0.112,0.12,0.169,0.175c0.071,0.048,0.136,0.086,0.205,0.123c0.161,0.056,0.315,0.098,0.475,0.128l0.388,0.037
	c0.124,0.013,0.222,0.033,0.311,0.064c0.108-0.041,0.175-0.081,0.24-0.121c0.054-0.052,0.097-0.099,0.137-0.148
	c0.142-0.197,0.265-0.396,0.372-0.609c0.079-0.22,0.133-0.437,0.17-0.659c0.016-0.189,0.018-0.37,0.006-0.555
	c-0.053-0.272-0.139-0.542-0.277-0.883c-0.205-0.473-0.418-0.945-0.647-1.405c-0.13-0.26-0.265-0.518-0.412-0.769l-0.041-0.071
	L15.482,3.066z M15.979,2.36l0.058,0.089l-0.035-0.119L15.979,2.36z"/>
</svg>