<?xml version="1.0" encoding="utf-8"?>
<!-- Generator: Adobe Illustrator 21.1.0, SVG Export Plug-In . SVG Version: 6.00 Build 0)  -->
<svg version="1.1" id="designs" xmlns="http://www.w3.org/2000/svg" xmlns:xlink="http://www.w3.org/1999/xlink" x="0px" y="0px"
	 width="32px" height="32px" viewBox="0 0 32 32" style="enable-background:new 0 0 32 32;" xml:space="preserve">
<style type="text/css">
	.sketchy_een{fill:#111918;}
</style>
<path class="sketchy_een" d="M28.22,27.037c-0.002-0.815-0.008-1.628-0.03-2.443c-0.01-0.454-0.371-0.835-0.833-0.835
	c-0.237,0-0.459,0.114-0.617,0.286c-0.032-0.004-0.065-0.012-0.098-0.012c-0.068,0-0.137,0.008-0.208,0.021
	c-0.028,0.005-0.056,0.009-0.084,0.014c-0.052,0.005-0.105,0.006-0.157,0.01c0.014-0.115,0.031-0.23,0.046-0.345
	c-0.01,0.074-0.02,0.147-0.03,0.221c0.11-0.819,0.201-1.64,0.303-2.459c0.048-0.38,0.078-0.765,0.114-1.146
	c0.036-0.386,0.026-0.773,0.016-1.162c-0.02-0.793-0.072-1.58-0.247-2.355c-0.189-0.825-0.381-1.664-0.747-2.431
	c-0.303-0.64-0.693-1.247-1.12-1.811c-0.263-0.345-0.534-0.674-0.865-0.955c-0.311-0.265-0.65-0.508-0.984-0.743
	c-0.305-0.215-0.634-0.403-0.961-0.584c-0.327-0.181-0.658-0.359-1-0.51c-0.767-0.341-1.558-0.586-2.365-0.813
	c-0.271-0.076-0.536-0.171-0.807-0.255c-0.249-0.078-0.504-0.14-0.757-0.203c-0.524-0.133-1.053-0.233-1.587-0.319
	C15.17,7.64,15.151,7.071,15.135,6.5c-0.005-0.191-0.08-0.361-0.187-0.507c-0.014-0.108-0.049-0.214-0.105-0.309
	c-0.072-0.121-0.169-0.219-0.293-0.293c-0.126-0.074-0.263-0.11-0.41-0.11c-0.05-0.006-0.101-0.001-0.152-0.001
	c-0.06-0.561-0.132-1.121-0.174-1.683c-0.018-0.243-0.04-0.484-0.078-0.725c-0.018-0.112-0.076-0.215-0.128-0.315
	c-0.048-0.096-0.223-0.277-0.325-0.321c-0.096-0.042-0.187-0.088-0.289-0.114c-0.114-0.028-0.233-0.034-0.351-0.046
	c-0.359-0.034-0.723-0.054-1.082-0.064C11.283,2.005,11.002,2,10.721,2c-0.542,0-1.085,0.018-1.623,0.072
	c-0.189,0.02-0.399,0.024-0.576,0.096C8.366,2.232,8.261,2.273,8.143,2.399C8.049,2.501,7.954,2.648,7.922,2.786
	c-0.04,0.175-0.05,0.359-0.058,0.54C7.848,3.662,7.88,3.997,7.872,4.334c-0.005,0.201-0.025,0.4-0.05,0.599
	C7.806,5.046,7.791,5.159,7.776,5.272C7.409,5.31,7.119,5.619,7.079,5.983C7.022,6.095,6.985,6.216,6.992,6.347
	c0.036,0.751,0.08,1.5,0.082,2.252c0,0.723,0,1.449-0.008,2.172c-0.012,1.307,0,2.612-0.004,3.918c0,0.28,0.146,0.521,0.355,0.683
	c0,0,0,0,0,0.001c0,0.468,0.395,0.871,0.867,0.865c0.009,0,0.017,0,0.026,0c0.011,0.287,0.024,0.575,0.024,0.863
	c0,0.381-0.016,0.759-0.03,1.14c-0.014,0.426,0.014,0.893,0.205,1.281c0.088,0.181,0.237,0.317,0.406,0.422
	c0.201,0.128,0.452,0.14,0.682,0.149c0.128,0.006,0.255,0.004,0.383,0.002c0.086,0,0.171-0.002,0.257-0.002
	c0.843,0.012,1.682,0.042,2.525,0.02c0.403-0.01,0.801-0.014,1.202-0.074c0.371-0.056,0.675-0.353,0.785-0.703
	c0.074-0.233,0.08-0.496,0.102-0.739c0.04-0.43,0.052-0.861,0.096-1.291c0.02-0.205,0.048-0.412,0.066-0.62
	c0.009-0.118,0.002-0.235,0-0.352c0.012,0.001,0.024,0,0.036,0.001c0.46,0.036,0.847-0.413,0.847-0.847
	c0-0.185-0.076-0.355-0.184-0.499c-0.03-0.592-0.045-1.184-0.074-1.774c-0.002-0.033-0.006-0.066-0.007-0.1
	c0.346,0.086,0.691,0.174,1.031,0.287c0.444,0.147,0.883,0.307,1.316,0.485c0.418,0.181,0.817,0.377,1.194,0.634
	c0.267,0.227,0.502,0.478,0.727,0.75c0.345,0.47,0.628,0.972,0.871,1.502c0.274,0.693,0.464,1.403,0.578,2.139
	c0.115,0.974,0.179,1.966,0.072,2.942c-0.054,0.353-0.113,0.706-0.179,1.057c-0.062,0.325-0.12,0.66-0.237,0.968
	c-0.039,0.103-0.043,0.222-0.025,0.338c-0.444,0.001-0.889,0.004-1.333,0.003c-0.646,0-1.291,0-1.937,0.002
	c-0.371,0.002-0.741,0.012-1.112,0.016c0.027-0.125,0.026-0.258,0.001-0.395c-0.025-0.148-0.051-0.297-0.075-0.445
	c-0.025-0.251-0.034-0.517-0.16-0.739c-0.118-0.205-0.307-0.363-0.536-0.427c-0.13-0.036-0.269-0.046-0.405-0.058
	c-0.373-0.032-0.751-0.026-1.124-0.038c-0.767-0.028-1.534-0.072-2.302-0.114c-1.001-0.054-2.005-0.111-3.008-0.111
	c-0.576,0-1.152,0.019-1.727,0.068c-0.279,0.024-0.63,0.052-0.879,0.205c-0.155,0.098-0.291,0.193-0.389,0.355
	c-0.06,0.096-0.104,0.201-0.133,0.311c-0.058,0.201-0.078,0.426-0.094,0.634c-0.026,0.295-0.029,0.593-0.037,0.889
	c-0.247,0.007-0.494,0.004-0.741,0.012c-0.232,0.008-0.438,0.114-0.584,0.275c-0.324,0.119-0.576,0.425-0.564,0.785
	c0.02,0.612,0.028,1.224-0.012,1.835c-0.016,0.253-0.042,0.506-0.058,0.757c-0.02,0.313-0.02,0.624-0.022,0.935
	c-0.003,0.373,0.266,0.68,0.611,0.773c0.112,0.06,0.233,0.103,0.367,0.102c0.867-0.01,1.73-0.062,2.596-0.094
	c0.799-0.03,1.6-0.034,2.401-0.056c0.801-0.024,1.602-0.058,2.405-0.064c0.751-0.008,1.505-0.02,2.258-0.026
	c1.566-0.012,3.13-0.064,4.697-0.074c1.586-0.008,3.172-0.026,4.759,0.018c0.426,0.013,0.845,0.042,1.266,0.093
	c-0.027-0.004-0.053-0.007-0.08-0.011c0.033,0.004,0.066,0.009,0.099,0.013c0.038,0.005,0.076,0.009,0.114,0.015
	c-0.016-0.002-0.032-0.004-0.049-0.006c0.532,0.071,1.062,0.135,1.601,0.147c0.045,0.001,0.084-0.018,0.128-0.025
	C27.062,29.913,27.25,30,27.461,30c0.414,0,0.813-0.361,0.791-0.793C28.216,28.484,28.22,27.762,28.22,27.037z M8.812,14.519
	c-0.068-1.223-0.049-2.45-0.067-3.674c-0.012-0.739-0.02-1.479-0.032-2.218c-0.011-0.586-0.016-1.17-0.028-1.754
	c0.809,0.003,1.618-0.006,2.428-0.013c0.48-0.004,0.958-0.002,1.439-0.004c0.286-0.001,0.574-0.001,0.862,0.005
	c0.067,1.436,0.216,2.865,0.369,4.294c0.07,0.666,0.134,1.335,0.179,2.003c0.034,0.496,0.03,0.99,0.022,1.485
	c-0.913-0.003-1.825-0.027-2.738-0.062C10.436,14.55,9.624,14.529,8.812,14.519z M12.19,3.634c0.007,0.27,0.002,0.542,0.012,0.811
	c0.012,0.287,0.03,0.575,0.047,0.862c-0.357,0.001-0.713,0.001-1.07,0.003c-0.504,0-1.01,0.012-1.516,0
	C9.594,5.309,9.525,5.306,9.457,5.305C9.502,4.908,9.543,4.507,9.53,4.111C9.524,3.947,9.511,3.782,9.502,3.617
	C10.394,3.536,11.297,3.545,12.19,3.634z M13.229,17.465c-0.003,0.342,0.006,0.685-0.009,1.026c-0.483,0.028-0.972,0.011-1.452,0
	c-0.54-0.014-1.082-0.047-1.62-0.1c-0.053-0.721-0.055-1.447-0.072-2.171c0.615-0.002,1.229,0.005,1.842,0.032
	c0.445,0.02,0.892,0.02,1.338,0.023C13.253,16.673,13.232,17.069,13.229,17.465z M21.348,14.402c-0.375-0.5-0.779-0.962-1.293-1.327
	c-0.482-0.341-1.006-0.57-1.556-0.785c-0.46-0.183-0.923-0.359-1.389-0.528c-0.502-0.181-1.02-0.321-1.536-0.466
	c-0.026-0.007-0.052-0.006-0.078-0.011c-0.003-0.033-0.004-0.066-0.007-0.098c-0.038-0.45-0.091-0.897-0.143-1.345
	c0.224,0.037,0.448,0.077,0.669,0.13c0.41,0.1,0.819,0.213,1.224,0.333c0.432,0.13,0.863,0.273,1.295,0.405
	c0.413,0.126,0.82,0.275,1.221,0.439c0.828,0.371,1.612,0.844,2.338,1.389c0.194,0.151,0.385,0.306,0.568,0.472
	c0.201,0.182,0.378,0.394,0.547,0.608c0.224,0.303,0.426,0.619,0.619,0.942c0.189,0.314,0.372,0.627,0.525,0.959
	c0.157,0.403,0.286,0.821,0.399,1.239c0.114,0.418,0.216,0.836,0.283,1.264c0.058,0.551,0.058,1.106,0.054,1.659
	c-0.004,0.534-0.07,1.069-0.137,1.6c-0.133,0.964-0.293,1.925-0.457,2.884c-0.612,0.012-1.225,0.032-1.839,0.042
	c0.085-0.3,0.129-0.616,0.184-0.92c0.07-0.401,0.139-0.803,0.195-1.208c0.122-0.855,0.108-1.72,0.036-2.581
	c-0.076-0.897-0.197-1.799-0.492-2.652C22.278,15.982,21.9,15.135,21.348,14.402z M7.389,23.574
	c0.071-0.014,0.143-0.026,0.216-0.036c0.658-0.068,1.319-0.103,1.981-0.101c0.691,0.002,1.381,0.044,2.07,0.086
	c0.644,0.036,1.283,0.076,1.927,0.1c0.478,0.018,0.96,0.018,1.439,0.049c0.012,0.127,0.024,0.254,0.037,0.382
	c0.008,0.078,0.027,0.146,0.046,0.215c-0.666,0.029-1.331,0.07-1.998,0.082c-1.532,0.03-3.063-0.018-4.595-0.022
	c-0.381-0.001-0.762,0.015-1.143,0.019C7.372,24.088,7.37,23.83,7.389,23.574z M24.778,28.03c-0.179-0.005-0.359-0.007-0.538-0.007
	c-0.572,0-1.145,0.02-1.717,0.029c-0.819,0.01-1.64,0.006-2.459,0.002c-0.789-0.006-1.58-0.01-2.369-0.002
	c-1.52,0.014-3.039,0.046-4.559,0.044c-1.576-0.002-3.156,0.048-4.733,0.096c-0.998,0.031-1.998,0.041-2.998,0.046
	c0.039-0.765,0.1-1.529,0.113-2.296c0.66-0.037,1.321-0.08,1.981-0.105c0.516-0.02,1.034-0.018,1.55-0.018
	c0.225,0.002,0.452,0.002,0.677,0c0.747-0.004,1.497-0.002,2.244-0.006c0.771-0.004,1.538-0.04,2.308-0.086
	c0.789-0.05,1.578-0.082,2.367-0.09c0.763-0.008,1.526-0.004,2.29-0.004c0.753-0.002,1.507-0.002,2.258,0.002
	c0.767,0.004,1.534,0.032,2.302,0.028c0.283-0.002,0.566-0.012,0.849-0.02c0.281-0.006,0.562,0,0.841-0.01
	c0.249-0.008,0.498-0.032,0.745-0.048c0.214-0.014,0.427-0.043,0.641-0.071c0.028,0.494,0.054,0.988,0.059,1.483
	c0.004,0.396,0.013,0.791,0.021,1.187c-0.29-0.016-0.58-0.034-0.869-0.067C25.448,28.082,25.115,28.04,24.778,28.03z M25.126,29.647
	c0.022,0.003,0.044,0.006,0.066,0.009c-0.028-0.004-0.056-0.007-0.085-0.011C25.114,29.646,25.12,29.647,25.126,29.647z"/>
</svg>