<?xml version="1.0" encoding="utf-8"?>
<!-- Generator: Adobe Illustrator 21.1.0, SVG Export Plug-In . SVG Version: 6.00 Build 0)  -->
<svg version="1.1" id="designs" xmlns="http://www.w3.org/2000/svg" xmlns:xlink="http://www.w3.org/1999/xlink" x="0px" y="0px"
	 width="32px" height="32px" viewBox="0 0 32 32" style="enable-background:new 0 0 32 32;" xml:space="preserve">
<style type="text/css">
	.sketchy_een{fill:#111918;}
</style>
<path class="sketchy_een" d="M29.291,3.677c-0.413-0.559-0.966-1.028-1.639-1.238c-0.307-0.096-0.624-0.146-0.947-0.161
	c-0.037-0.001-0.074-0.002-0.111-0.002c-0.268,0-0.535,0.04-0.798,0.075c0.028-0.003,0.056-0.007,0.084-0.01
	c-0.195,0.027-0.388,0.061-0.578,0.12c-0.196,0.062-0.388,0.129-0.58,0.202c-0.471,0.183-0.918,0.394-1.356,0.644
	c-0.769,0.436-1.543,0.872-2.281,1.36c-0.776,0.515-1.503,1.086-2.21,1.691c-0.676,0.576-1.349,1.165-2.047,1.715
	c-0.648,0.494-1.282,1.001-1.903,1.53c-0.544,0.461-1.053,0.961-1.56,1.46c-0.528,0.521-1.057,1.045-1.599,1.554
	c-0.539,0.508-1.073,1.016-1.578,1.558c-0.014,0.012-0.034,0.018-0.047,0.031c-0.016,0.016-0.023,0.038-0.037,0.055
	c-0.022,0.024-0.045,0.045-0.067,0.069c-0.015,0.017-0.021,0.038-0.035,0.056c-0.048,0.005-0.095,0.007-0.143,0.021
	c-2.137,0.629-4.232,1.386-6.286,2.25c-0.317,0.13-0.641,0.249-0.948,0.398c-0.218,0.106-0.346,0.317-0.393,0.548
	c-0.037,0.064-0.072,0.129-0.088,0.205c-0.098,0.48-0.175,0.986-0.133,1.478c0.035,0.411,0.125,0.809,0.229,1.208
	c0.202,0.771,0.403,1.537,0.74,2.263c0.329,0.707,0.713,1.403,1.162,2.039c0.265,0.377,0.594,0.696,0.897,1.038
	c0.271,0.305,0.561,0.584,0.863,0.857c0.227,0.206,0.446,0.415,0.688,0.603c0.296,0.229,0.609,0.428,0.928,0.625
	c0.555,0.34,1.159,0.615,1.75,0.884c0.601,0.275,1.22,0.58,1.873,0.703c0.703,0.133,1.418,0.227,2.135,0.219
	c0.326-0.005,0.605-0.212,0.716-0.503c0.204-0.101,0.37-0.278,0.448-0.51c0.186-0.565,0.4-1.12,0.58-1.687
	c0.204-0.632,0.394-1.268,0.576-1.908c0.374-1.318,0.778-2.625,1.108-3.956c0.171-0.042,0.333-0.112,0.458-0.248
	c0.565-0.613,1.178-1.182,1.773-1.764c0.644-0.626,1.303-1.235,1.95-1.858c1.299-1.249,2.536-2.563,3.86-3.787
	c0.676-0.628,1.328-1.283,1.991-1.927c0.665-0.644,1.295-1.314,1.871-2.039c0.311-0.394,0.59-0.811,0.826-1.255
	c0.158-0.298,0.298-0.605,0.384-0.932c0.06-0.234,0.1-0.471,0.135-0.711C30.1,5.627,29.907,4.513,29.291,3.677z M14.55,22.743
	c-0.169,0.647-0.355,1.291-0.54,1.935c-0.183,0.638-0.359,1.28-0.555,1.916c-0.167,0.534-0.365,1.059-0.556,1.586
	c-0.285-0.004-0.569-0.016-0.853-0.05c-0.242-0.034-0.487-0.074-0.723-0.136c0.017-0.036,0.039-0.066,0.054-0.105
	c0.477-1.285,0.975-2.562,1.496-3.831c0.142-0.322,0.285-0.643,0.428-0.965c0.098-0.213,0.15-0.411,0.086-0.647
	c-0.058-0.209-0.2-0.392-0.388-0.503c-0.129-0.075-0.277-0.114-0.425-0.114c-0.075,0-0.149,0.01-0.222,0.03
	c-0.19,0.052-0.421,0.198-0.503,0.386c-0.182,0.415-0.355,0.83-0.532,1.247c0.008-0.019,0.016-0.038,0.025-0.056
	c-0.277,0.672-0.513,1.362-0.762,2.043c-0.235,0.64-0.512,1.265-0.762,1.901c-0.502-0.238-0.985-0.503-1.458-0.794
	c0.026-0.05,0.069-0.089,0.085-0.145c0.022-0.055,0.043-0.109,0.065-0.164c0.21-0.454,0.467-0.89,0.725-1.315
	c0.319-0.524,0.64-1.045,0.991-1.549c0.259-0.369,0.069-0.917-0.296-1.13c-0.127-0.074-0.274-0.113-0.42-0.113
	c-0.073,0-0.145,0.01-0.216,0.029c-0.219,0.062-0.369,0.198-0.494,0.38c-0.355,0.521-0.657,1.076-0.966,1.624
	c-0.154,0.271-0.304,0.542-0.457,0.811c-0.114,0.202-0.23,0.403-0.344,0.605c-0.187-0.167-0.38-0.326-0.555-0.502
	c-0.181-0.181-0.348-0.377-0.521-0.567c-0.152-0.167-0.306-0.332-0.453-0.505c-0.44-0.629-0.807-1.319-1.117-2.021
	c-0.178-0.462-0.306-0.938-0.414-1.421c-0.088-0.385-0.193-0.767-0.258-1.156c-0.025-0.273-0.007-0.542,0.022-0.814
	c0.015-0.081,0.031-0.163,0.047-0.244c0.043-0.02,0.086-0.041,0.13-0.06c0.134-0.056,0.267-0.112,0.4-0.169
	c-0.067,0.029-0.134,0.058-0.2,0.086c0.957-0.404,1.935-0.751,2.913-1.103c1.086-0.392,2.202-0.692,3.312-1.009
	c0.118-0.034,0.224-0.091,0.315-0.165c0.304,0.351,0.601,0.708,0.926,1.042c0.43,0.444,0.888,0.863,1.326,1.301
	c0.421,0.419,0.838,0.844,1.266,1.257c0.225,0.217,0.463,0.421,0.694,0.632c0.089,0.08,0.18,0.155,0.271,0.229
	c-0.032,0.059-0.066,0.116-0.081,0.183C14.888,21.323,14.732,22.036,14.55,22.743z M28.141,6.473
	c-0.041,0.233-0.085,0.465-0.164,0.689c-0.198,0.424-0.448,0.822-0.722,1.201c-0.537,0.675-1.114,1.313-1.731,1.916
	c-0.661,0.647-1.31,1.304-1.985,1.939c-1.32,1.241-2.638,2.486-3.962,3.722c-0.653,0.609-1.322,1.201-1.975,1.808
	c-0.479,0.445-0.957,0.89-1.437,1.335c-0.021-0.018-0.044-0.035-0.065-0.053c-0.234-0.2-0.457-0.415-0.682-0.628
	c-0.428-0.407-0.847-0.826-1.27-1.239c-0.215-0.209-0.453-0.392-0.674-0.594c-0.248-0.227-0.484-0.465-0.721-0.699
	c-0.306-0.301-0.585-0.628-0.857-0.96c0.442-0.469,0.881-0.942,1.344-1.391c0.369,0.378,0.738,0.756,1.111,1.131
	c0.39,0.392,0.77,0.801,1.21,1.137c0.129,0.075,0.267,0.112,0.417,0.113c0.219,0,0.43-0.088,0.584-0.242c0.3-0.3,0.344-0.878,0-1.17
	c-0.175-0.148-0.329-0.329-0.486-0.496c-0.173-0.182-0.346-0.367-0.517-0.549c-0.353-0.374-0.709-0.745-1.064-1.115
	c0.262-0.247,0.521-0.496,0.782-0.742c0.669-0.632,1.374-1.22,2.096-1.789c0.757-0.596,1.499-1.211,2.246-1.818
	c0.302-0.246,0.609-0.485,0.916-0.724c0.715-0.547,1.456-1.061,2.241-1.506c0.382-0.215,0.778-0.409,1.164-0.619
	c0.371-0.202,0.738-0.412,1.122-0.587c0.388-0.152,0.781-0.279,1.191-0.351c0.211-0.02,0.421-0.03,0.632-0.015
	c0.118,0.023,0.235,0.05,0.348,0.086c0.093,0.051,0.182,0.107,0.27,0.167c0.106,0.094,0.202,0.195,0.296,0.303
	c0.071,0.104,0.135,0.212,0.192,0.325c0.073,0.205,0.122,0.416,0.157,0.63C28.172,5.953,28.167,6.21,28.141,6.473z"/>
</svg>