<?xml version="1.0" encoding="utf-8"?>
<!-- Generator: Adobe Illustrator 21.1.0, SVG Export Plug-In . SVG Version: 6.00 Build 0)  -->
<svg version="1.1" id="designs" xmlns="http://www.w3.org/2000/svg" xmlns:xlink="http://www.w3.org/1999/xlink" x="0px" y="0px"
	 width="32px" height="32px" viewBox="0 0 32 32" style="enable-background:new 0 0 32 32;" xml:space="preserve">
<style type="text/css">
	.sketchy_een{fill:#111918;}
</style>
<path class="sketchy_een" d="M15.261,8.128c0,0.439-0.369,0.816-0.81,0.81c-0.445-0.006-0.887-0.004-1.332-0.004
	c-0.296,0-0.591,0-0.885-0.002c-0.74-0.006-1.476,0.02-2.215,0.036c-0.468,0.01-0.859-0.397-0.859-0.857
	c0-0.47,0.391-0.853,0.859-0.857c0.071,0,0.142-0.001,0.213-0.001c0.693,0,1.386,0.025,2.079,0.046
	c0.712,0.02,1.427,0.024,2.139,0.022C14.892,7.317,15.261,7.69,15.261,8.128z M25.468,22.236c-0.001,0.002-0.003,0.003-0.005,0.005
	c-0.006,0.007-0.011,0.015-0.017,0.022C25.454,22.254,25.461,22.245,25.468,22.236z M28.376,18.235
	c-0.51,0.71-1.016,1.425-1.53,2.131c-0.22,0.306-0.452,0.603-0.671,0.911c-0.231,0.326-0.455,0.654-0.712,0.964
	c-0.112,0.135-0.227,0.239-0.411,0.29c-0.105,0.029-0.214,0.033-0.321,0.017c-0.056,0.011-0.108,0.034-0.167,0.034
	c-0.704-0.008-1.405-0.002-2.109-0.048c-0.395-0.024-0.788-0.044-1.181-0.062c-0.397-0.018-0.794-0.01-1.191-0.016
	c-0.786-0.011-1.574-0.022-2.363-0.034c0.006,0.04,0.024,0.076,0.024,0.117c-0.006,0.693-0.032,1.385-0.014,2.078
	c0.016,0.637,0.028,1.274,0.034,1.913c0.008,0.627,0.006,1.256,0.02,1.885C17.79,28.708,17.792,29,17.8,29.291
	c0.004,0.256,0.026,0.514-0.006,0.77c0,0.147-0.038,0.284-0.109,0.411c-0.073,0.121-0.171,0.218-0.292,0.29
	c-0.167,0.097-0.363,0.121-0.551,0.087c-0.062,0.016-0.121,0.039-0.187,0.039c-0.697,0.002-1.397,0.069-2.092,0.111
	c-0.234,0.014-0.445-0.093-0.598-0.258c-0.271-0.129-0.466-0.402-0.465-0.717c0.014-2.52-0.014-5.043,0.063-7.561
	c0.002-0.075,0.026-0.144,0.047-0.213c-0.385-0.007-0.771-0.015-1.156-0.033c-0.452-0.024-0.83-0.361-0.83-0.831
	c0-0.184,0.077-0.36,0.191-0.507c-0.019-0.069-0.043-0.136-0.042-0.211c0.002-0.496-0.02-0.99-0.026-1.486
	c-0.004-0.435,0-0.869-0.004-1.302c-0.01-1.02-0.083-2.034-0.034-3.054c0.018-0.373,0.251-0.686,0.59-0.8
	c0.147-0.206,0.378-0.348,0.648-0.358c0.269-0.008,0.54-0.014,0.81-0.021c-0.022-0.356-0.032-0.712-0.038-1.068
	c0-0.016,0.008-0.029,0.009-0.045c-0.341-0.001-0.682-0.007-1.024-0.006c-0.839,0.002-1.679,0.002-2.52-0.014
	c-0.842-0.02-1.687,0.009-2.529-0.041c-0.247,0.037-0.506-0.02-0.681-0.211c-0.552-0.607-1.032-1.278-1.582-1.887
	c-0.141-0.155-0.288-0.302-0.425-0.458C4.8,9.726,4.649,9.52,4.495,9.319C4.197,8.934,3.905,8.547,3.619,8.154
	C3.498,7.989,3.487,7.729,3.538,7.541C3.594,7.343,3.727,7.17,3.903,7.067c0.022-0.013,0.048-0.009,0.071-0.019
	c0.033-0.061,0.063-0.124,0.112-0.177C4.11,6.846,4.132,6.82,4.154,6.794c0.157-0.208,0.31-0.418,0.471-0.626
	C4.583,6.222,4.543,6.273,4.503,6.325c0.329-0.431,0.631-0.883,0.941-1.33c0.383-0.552,0.792-1.082,1.203-1.611
	c0.121-0.157,0.375-0.232,0.562-0.232c0.065,0,0.125,0.022,0.186,0.037c0.129-0.082,0.272-0.143,0.434-0.143
	c0.421,0,0.839,0.004,1.26,0.01c1.42,0.023,2.838,0.075,4.257,0.088c0.003-0.117,0.005-0.234,0.009-0.351
	c0.002-0.101,0.006-0.202,0.01-0.304c0.004-0.147-0.006-0.319,0.046-0.454c0.095-0.25,0.24-0.518,0.502-0.633
	c0.173-0.075,0.322-0.129,0.504-0.161c0.282-0.047,0.565-0.082,0.847-0.119c0.31-0.041,0.62-0.08,0.931-0.111
	C16.265,1.004,16.335,1,16.405,1c0.196,0,0.389,0.029,0.581,0.084c0.145,0.04,0.292,0.057,0.421,0.143
	c0.081,0.052,0.161,0.103,0.22,0.179c0.101,0.099,0.169,0.218,0.208,0.355c0.069,0.169,0.075,0.367,0.093,0.55
	c0.029,0.296,0.062,0.591,0.1,0.885c0.001,0.008,0.002,0.015,0.003,0.023c0.047,0,0.094,0.003,0.141,0.001
	c0.161-0.004,0.319-0.028,0.478-0.03c0.348-0.008,0.619,0.224,0.745,0.521c0.079,0.124,0.136,0.262,0.139,0.417
	c0.012,0.74-0.002,1.482-0.012,2.223c-0.01,0.653-0.058,1.304-0.075,1.957c-0.014,0.637-0.014,1.278,0.002,1.917
	c0.006,0.316,0.014,0.633,0.028,0.949c0.008,0.165,0.03,0.335,0.022,0.5c-0.02,0.427-0.341,0.782-0.782,0.782
	c-0.06,0-0.117-0.021-0.175-0.035c-0.124,0.067-0.258,0.113-0.405,0.107c-0.097-0.004-0.194,0.006-0.292,0.008
	c-0.016,0.335-0.034,0.669-0.05,1.004c-0.001,0.023-0.012,0.043-0.015,0.066c0.349,0.002,0.698,0.007,1.047,0.006
	c0.83,0,1.661-0.026,2.492,0.002c0.79,0.026,1.582,0.063,2.371,0.012c0.304-0.019,0.563,0.176,0.706,0.431
	c0.385,0.255,0.751,0.532,1.116,0.816c0.298,0.232,0.568,0.488,0.839,0.748c0.27,0.256,0.548,0.502,0.831,0.744
	c0.265,0.228,0.538,0.448,0.793,0.688c0.034,0.014,0.069,0.024,0.1,0.042c0.187,0.107,0.325,0.29,0.383,0.496
	C28.515,17.79,28.501,18.062,28.376,18.235z M16.148,13.597c0.013,0,0.026,0,0.038,0c-0.001-0.02-0.012-0.037-0.011-0.057
	c0.004-0.33,0.011-0.659,0.017-0.989c-0.271-0.007-0.542-0.006-0.811-0.007c0.001,0.012,0.007,0.023,0.007,0.035
	c0.002,0.252,0.002,0.504,0.002,0.756c-0.001,0.093,0.007,0.185,0.007,0.277C15.647,13.607,15.897,13.597,16.148,13.597z
	 M15.055,2.777c0.002,0.131,0.004,0.262,0.007,0.393c0.402,0.008,0.804,0.012,1.206,0.019c0.044,0.001,0.089,0.002,0.133,0.003
	c-0.012-0.2-0.016-0.4-0.037-0.599c-0.121-0.002-0.24,0.006-0.361,0.019C15.688,2.657,15.369,2.708,15.055,2.777z M13.42,10.897
	c0.796,0.002,1.592-0.002,2.387-0.002c0.652,0,1.304-0.032,1.953-0.108c0.066-0.009,0.131-0.015,0.197-0.023
	c0.001-0.189,0.002-0.378,0.001-0.566c-0.002-0.647-0.004-1.296,0-1.943c0.004-0.645,0.052-1.288,0.042-1.933
	c-0.007-0.501-0.026-1.003-0.042-1.505c-0.067-0.001-0.133-0.008-0.2-0.009c-1.586-0.014-3.169-0.032-4.755-0.044
	c-0.814-0.006-1.623-0.081-2.435-0.085C9.656,4.673,8.741,4.703,7.828,4.711C7.761,4.712,7.7,4.688,7.637,4.673
	C7.421,4.945,7.204,5.216,6.99,5.488C6.416,6.249,5.889,7.046,5.322,7.814c0.224,0.319,0.444,0.639,0.679,0.95
	c0.167,0.197,0.351,0.378,0.526,0.571C6.705,9.531,6.88,9.734,7.051,9.938c0.248,0.297,0.504,0.59,0.77,0.872
	c0.183,0.013,0.367,0.027,0.551,0.037c0.828,0.046,1.657,0.071,2.485,0.065C11.712,10.907,12.567,10.895,13.42,10.897z
	 M15.74,29.272c0.161-0.004,0.324-0.009,0.487-0.01c0.001-0.053,0.005-0.105,0.006-0.158c0.004-0.284,0.01-0.568,0.014-0.853
	c0.01-0.601,0.014-1.205,0.008-1.808c-0.006-0.615-0.032-1.23-0.065-1.846c-0.036-0.687-0.05-1.371-0.054-2.058
	c-0.001-0.067,0.022-0.128,0.038-0.191c-0.344-0.025-0.688-0.051-1.033-0.071c0.014,0.061,0.037,0.12,0.035,0.185
	c-0.05,1.314-0.119,2.622-0.113,3.937c0.003,0.966,0.005,1.934,0.022,2.901C15.303,29.292,15.521,29.279,15.74,29.272z
	 M26.585,17.918c-0.264-0.241-0.528-0.48-0.795-0.717c-0.353-0.313-0.691-0.646-1.056-0.947c-0.392-0.295-0.797-0.575-1.211-0.839
	c-0.061-0.039-0.105-0.093-0.153-0.143c-0.179-0.003-0.358-0.005-0.538-0.009c-0.794-0.016-1.586-0.077-2.379-0.085
	c-0.828-0.01-1.655-0.014-2.483-0.016c-0.814-0.004-1.631-0.026-2.447,0c-0.708,0.024-1.416,0.063-2.123,0.096
	c-0.042,0.892-0.049,1.783-0.044,2.676c0.006,0.889,0.001,1.778,0.032,2.668c0.495,0.026,0.99,0.055,1.486,0.074
	c0.841,0.032,1.681,0.115,2.522,0.145c0.818,0.028,1.641,0.044,2.461,0.032c0.812-0.012,1.625-0.002,2.437,0.026
	c0.756,0.026,1.512,0.004,2.268-0.046c0.001,0,0.003,0.001,0.004,0.001c0.088-0.115,0.169-0.233,0.255-0.349
	c0.222-0.304,0.449-0.603,0.661-0.915C25.858,19.024,26.217,18.468,26.585,17.918z M21.57,16.893
	c-0.698,0.026-1.397,0.016-2.096,0.008c-0.372-0.005-0.744-0.011-1.116-0.011c-0.474,0-0.947,0.009-1.42,0.036
	c-0.441,0.026-0.81,0.349-0.81,0.812c0,0.417,0.369,0.843,0.81,0.81c0.818-0.062,1.635-0.107,2.455-0.121
	c0.724-0.012,1.451-0.008,2.177,0c0.417,0.004,0.766-0.353,0.766-0.768C22.336,17.253,21.987,16.878,21.57,16.893z M15.185,1.131
	c0.026-0.003,0.052-0.006,0.078-0.009c0.004-0.001,0.008-0.001,0.012-0.002C15.245,1.123,15.215,1.127,15.185,1.131z"/>
</svg>