<?xml version="1.0" encoding="utf-8"?>
<!-- Generator: Adobe Illustrator 21.1.0, SVG Export Plug-In . SVG Version: 6.00 Build 0)  -->
<svg version="1.1" id="designs" xmlns="http://www.w3.org/2000/svg" xmlns:xlink="http://www.w3.org/1999/xlink" x="0px" y="0px"
	 width="32px" height="32px" viewBox="0 0 32 32" style="enable-background:new 0 0 32 32;" xml:space="preserve">
<style type="text/css">
	.sketchy_een{fill:#111918;}
</style>
<path class="sketchy_een" d="M22.609,3.101c-0.011-0.435-0.355-0.799-0.797-0.799c-0.423,0-0.812,0.364-0.797,0.799
	c0.018,0.565,0.03,1.131,0.043,1.697c-0.278,0.006-0.557-0.007-0.834-0.017c-0.084-0.003-0.169-0.007-0.254-0.011
	c0.001-0.108,0.003-0.216,0.003-0.322c-0.002-0.469,0.03-0.936,0.046-1.405c0.013-0.433-0.372-0.793-0.793-0.793
	c-0.437,0-0.787,0.36-0.793,0.793c-0.006,0.469,0.006,0.938,0,1.405c-0.001,0.088,0.002,0.177,0.003,0.267
	c-0.461-0.012-0.922-0.023-1.383-0.036c-0.002-0.154-0.003-0.308-0.007-0.463c-0.01-0.469,0.013-0.938,0-1.407
	C17.033,2.368,16.686,2,16.236,2c-0.429,0-0.827,0.368-0.81,0.81c0.024,0.612,0.054,1.225,0.078,1.839
	c-0.425-0.01-0.849-0.016-1.274-0.022c-0.005-0.535-0.007-1.068-0.006-1.604c0-0.437-0.366-0.801-0.801-0.801
	c-0.431,0-0.81,0.364-0.801,0.801c0.011,0.534,0.02,1.067,0.028,1.6c-0.447,0.005-0.895,0.008-1.342,0.029
	c-0.036,0.001-0.072,0.004-0.108,0.006c0.002-0.027,0-0.055,0.002-0.082c0.036-0.564,0.08-1.129,0.124-1.693
	c0.03-0.41-0.368-0.755-0.755-0.755c-0.431,0-0.73,0.345-0.755,0.755C9.72,4.477,9.705,6.071,9.72,7.666
	c0.004,0.379-0.013,0.761-0.025,1.14C9.686,9.195,9.68,9.584,9.665,9.971c-0.027,0.77-0.072,1.54-0.101,2.311
	c-0.057,1.512-0.172,3.025-0.189,4.539c-0.015,1.544,0.093,3.092,0.25,4.627c0.067,0.66,0.133,1.319,0.215,1.977
	c0.086,0.679,0.212,1.348,0.343,2.017c0.122,0.618,0.248,1.233,0.378,1.849c0.106,0.508,0.23,1.016,0.309,1.529
	c0.021,0.182,0.041,0.442,0.147,0.581c0.002-0.002,0.005-0.004,0.007-0.005c0.017,0.029,0.04,0.053,0.06,0.079
	c0.041,0.105,0.1,0.202,0.181,0.283c0.141,0.141,0.374,0.261,0.58,0.24c0.751-0.072,1.504-0.137,2.259-0.164
	c0.669-0.023,1.338-0.021,2.009-0.019c1.365,0.004,2.732,0.004,4.097,0.021c0.431,0.006,0.789-0.362,0.789-0.789
	c0-0.05-0.02-0.095-0.03-0.144c0.023-0.044,0.054-0.082,0.068-0.13c0.233-0.755,0.397-1.525,0.566-2.295
	c0.166-0.753,0.353-1.5,0.469-2.265c0.126-0.824,0.259-1.645,0.336-2.477c0.036-0.387,0.078-0.772,0.101-1.161
	c0.025-0.4,0.032-0.803,0.038-1.203c0.025-1.624-0.015-3.245-0.04-4.867c-0.023-1.578,0.019-3.161,0.076-4.737
	c0.038-1.068,0.032-2.135,0.034-3.203C22.62,5.41,22.639,4.255,22.609,3.101z M16.916,11.645c-1.531,0.004-3.062,0.04-4.592,0.025
	c-0.433-0.005-0.865-0.008-1.298-0.011c0.021-0.422,0.033-0.845,0.05-1.267c1.481,0.083,2.965,0.026,4.446,0.011
	c1.559-0.013,3.119-0.029,4.678-0.036c0.278-0.001,0.556-0.021,0.834-0.038c0,0.008,0,0.017,0,0.025
	c-0.011,0.427-0.01,0.854-0.013,1.281C19.653,11.638,18.285,11.641,16.916,11.645z M13.792,6.247
	c0.852-0.008,1.701,0.013,2.551,0.032c0.866,0.019,1.729,0.04,2.595,0.063C19.318,6.354,19.7,6.373,20.079,6.4
	c0.331,0.023,0.666,0.06,0.999,0.061c0,0.492,0.002,0.983,0,1.475c-0.001,0.287-0.011,0.573-0.016,0.859
	c-0.654,0.035-1.308,0.063-1.964,0.06c-0.787-0.004-1.575-0.011-2.362,0.002c-1.63,0.029-3.258,0.048-4.886-0.025
	c-0.243-0.011-0.485-0.034-0.727-0.052c0.011-0.606,0.021-1.212,0.016-1.818c-0.001-0.201,0.014-0.401,0.015-0.602
	C12.034,6.298,12.912,6.256,13.792,6.247z M21.04,19.891c-0.029,0.776-0.101,1.552-0.196,2.324c-0.006,0.055-0.013,0.11-0.019,0.164
	c-0.138,0.997-0.302,1.995-0.545,2.97c-0.242,0.974-0.419,1.96-0.73,2.916c-0.882,0.012-1.763,0.007-2.645-0.006
	c-0.616-0.008-1.232-0.016-1.848-0.016c-0.912,0-1.824,0.026-2.735,0.088c-0.043-0.148-0.087-0.297-0.124-0.448
	c-0.128-0.526-0.242-1.058-0.349-1.588c-0.107-0.539-0.212-1.079-0.337-1.615c-0.131-0.556-0.235-1.113-0.315-1.681
	c-0.093-0.719-0.176-1.438-0.236-2.161c-0.069-0.801-0.107-1.603-0.145-2.408c-0.036-0.745-0.046-1.491-0.029-2.236
	c0.015-0.755,0.078-1.508,0.118-2.261c0.015-0.277,0.029-0.554,0.045-0.831c0.784-0.005,1.567-0.014,2.349-0.019
	c0.744-0.006,1.485,0.011,2.229,0.021c1.504,0.017,3.006,0.044,4.51,0.044c0.325,0,0.651,0.004,0.977,0.007
	c0.008,1.423,0.036,2.844,0.047,4.268C21.069,18.246,21.07,19.069,21.04,19.891z M18.297,19.597
	c-0.065-0.147-0.139-0.273-0.229-0.404c-0.13-0.187-0.273-0.311-0.454-0.446c-0.225-0.17-0.465-0.276-0.728-0.379
	c-0.102-0.028-0.205-0.036-0.308-0.025c-0.02-0.014-0.04-0.028-0.061-0.04c-0.132-0.078-0.269-0.11-0.411-0.11
	c-0.077,0-0.154,0.009-0.234,0.026c-0.257,0.052-0.507,0.114-0.747,0.215c-0.355,0.147-0.673,0.347-0.911,0.652
	c-0.261,0.335-0.418,0.705-0.469,1.127c-0.036,0.307-0.01,0.612,0.082,0.906c0.09,0.292,0.284,0.553,0.517,0.745
	c0.13,0.107,0.259,0.215,0.4,0.305c0.246,0.156,0.52,0.263,0.803,0.328c0.269,0.063,0.526,0.04,0.795,0.002
	c0.261-0.034,0.519-0.09,0.753-0.217c0.322-0.175,0.623-0.4,0.873-0.671c0.214-0.233,0.337-0.496,0.444-0.787
	c0.059-0.158,0.057-0.349,0.057-0.515c-0.017-0.124-0.032-0.248-0.05-0.372C18.394,19.818,18.352,19.706,18.297,19.597z
	 M16.7,20.185c0.007,0.017,0.013,0.034,0.019,0.052c-0.008-0.019-0.015-0.037-0.023-0.056C16.697,20.183,16.698,20.184,16.7,20.185z
	 M16.693,20.171c-0.001-0.002-0.003-0.004-0.004-0.006c-0.007-0.016-0.014-0.033-0.02-0.049
	C16.677,20.134,16.686,20.152,16.693,20.171z M15.662,19.967c-0.025,0.019-0.05,0.038-0.075,0.058l-0.001,0
	C15.611,20.005,15.636,19.986,15.662,19.967z M15.584,20.027L15.584,20.027L15.584,20.027c-0.001,0.001-0.004,0.003-0.006,0.005
	C15.58,20.03,15.582,20.029,15.584,20.027z M16.729,20.451c-0.007,0.012-0.014,0.023-0.021,0.035
	c-0.055,0.06-0.112,0.117-0.172,0.172c-0.074,0.051-0.148,0.099-0.226,0.144c-0.063,0.02-0.127,0.037-0.192,0.051
	c-0.07,0.005-0.138,0.008-0.208,0.006c-0.059-0.016-0.116-0.033-0.172-0.052c-0.066-0.037-0.129-0.076-0.191-0.119
	c-0.049-0.044-0.097-0.088-0.142-0.135c-0.002-0.009-0.005-0.018-0.007-0.027c-0.003-0.065-0.004-0.13-0.001-0.196
	c0.007-0.027,0.014-0.053,0.023-0.08c0.028-0.055,0.057-0.107,0.09-0.158c0.01-0.01,0.02-0.019,0.03-0.028
	c0.032-0.021,0.066-0.041,0.1-0.058c0.186-0.064,0.377-0.11,0.57-0.15c0.013,0.008,0.026,0.015,0.039,0.021
	c0.117,0.055,0.223,0.115,0.327,0.185c0.027,0.025,0.053,0.05,0.079,0.076c0.027,0.046,0.053,0.092,0.077,0.139
	c0.006,0.021,0.012,0.042,0.017,0.064c0,0.011,0.001,0.023,0.001,0.035C16.744,20.402,16.737,20.427,16.729,20.451z"/>
</svg>