<?xml version="1.0" encoding="utf-8"?>
<!-- Generator: Adobe Illustrator 21.1.0, SVG Export Plug-In . SVG Version: 6.00 Build 0)  -->
<svg version="1.1" id="designs" xmlns="http://www.w3.org/2000/svg" xmlns:xlink="http://www.w3.org/1999/xlink" x="0px" y="0px"
	 width="32px" height="32px" viewBox="0 0 32 32" style="enable-background:new 0 0 32 32;" xml:space="preserve">
<style type="text/css">
	.sketchy_een{fill:#111918;}
</style>
<path class="sketchy_een" d="M29.998,24.881c0.015-0.364-0.053-0.717-0.168-1.062c-0.019-0.057-0.034-0.115-0.053-0.172
	c-0.081-0.262-0.249-0.492-0.492-0.628c-0.215-0.121-0.451-0.134-0.69-0.149c-0.069-0.004-0.139-0.006-0.208-0.006
	c-0.265,0-0.529,0.027-0.792,0.068c-0.08,0.012-0.161,0.026-0.241,0.039c0.003-0.008,0.005-0.015,0.008-0.023
	c0.098-0.218,0.202-0.434,0.246-0.67c0.079-0.423,0.117-0.873,0.079-1.303c-0.015-0.155-0.034-0.311-0.062-0.464
	c-0.038-0.207-0.147-0.413-0.23-0.602c-0.109-0.243-0.304-0.458-0.496-0.634c-0.16-0.145-0.341-0.272-0.515-0.4
	c-0.219-0.164-0.451-0.306-0.685-0.449c-0.102-0.063-0.211-0.117-0.321-0.168c0.02-0.047,0.042-0.092,0.06-0.142
	c0.115-0.317,0.185-0.619,0.209-0.958c0.032-0.449-0.034-0.888-0.113-1.326c-0.085-0.47-0.332-0.868-0.619-1.237
	c-0.255-0.332-0.604-0.579-0.985-0.745c-0.007-0.003-0.014-0.005-0.021-0.008c0.057-0.214,0.087-0.438,0.099-0.657
	c0.034-0.656-0.049-1.302-0.394-1.877c-0.147-0.245-0.353-0.438-0.555-0.636c-0.157-0.153-0.33-0.294-0.517-0.407
	c-0.132-0.079-0.271-0.139-0.4-0.222c0.016-0.021,0.036-0.04,0.052-0.061c0.064-0.087,0.115-0.187,0.166-0.283
	c0.109-0.196,0.241-0.411,0.285-0.63c0.083-0.406,0.023-0.819-0.117-1.207c-0.072-0.202-0.151-0.402-0.249-0.594
	c-0.06-0.115-0.132-0.219-0.209-0.321c0.011,0.014,0.022,0.028,0.033,0.042c-0.017-0.022-0.035-0.045-0.052-0.067
	c-0.026-0.034-0.053-0.069-0.08-0.103c0.008,0.01,0.016,0.021,0.024,0.031c-0.104-0.131-0.214-0.259-0.343-0.37
	c-0.219-0.185-0.428-0.285-0.696-0.392c-0.13-0.049-0.285-0.057-0.417-0.074c-0.149-0.017-0.298-0.026-0.445-0.032
	c-0.33-0.017-0.664-0.002-0.994,0.006c-0.3,0.008-0.598,0.004-0.896,0c-0.011,0-0.022,0-0.032,0
	c0.001-0.062,0.002-0.124,0.001-0.185c-0.002-0.332-0.013-0.668-0.036-0.998c-0.021-0.264-0.034-0.534-0.102-0.792
	c-0.075-0.277-0.162-0.583-0.311-0.828c-0.121-0.198-0.264-0.402-0.436-0.558C16.966,2.345,16.594,2.2,16.17,2.173
	c-0.051-0.004-0.102-0.005-0.153-0.005c-0.41,0-0.834,0.112-1.183,0.318c-0.473,0.277-0.739,0.785-0.873,1.296
	c-0.106,0.409-0.136,0.83-0.13,1.251c0.005,0.307,0.03,0.616,0.065,0.924c-0.009,0-0.018,0-0.027,0
	c-0.366,0.002-0.732,0.004-1.096-0.002c-0.134-0.002-0.268-0.005-0.401-0.005c-0.266,0-0.531,0.012-0.795,0.069
	c-0.409,0.087-0.853,0.187-1.196,0.436c-0.287,0.211-0.553,0.483-0.698,0.813C9.608,7.434,9.544,7.598,9.489,7.77
	C9.43,7.955,9.412,8.151,9.404,8.345C9.387,8.671,9.41,8.988,9.476,9.309c0.055,0.262,0.187,0.509,0.326,0.736
	c0.015,0.024,0.033,0.044,0.048,0.068c-0.142,0.072-0.287,0.138-0.426,0.218c-0.294,0.168-0.573,0.347-0.839,0.56
	c-0.102,0.081-0.187,0.185-0.277,0.279c-0.119,0.123-0.224,0.255-0.328,0.394c-0.098,0.13-0.172,0.283-0.236,0.432
	c-0.096,0.223-0.179,0.441-0.238,0.675c-0.064,0.257-0.113,0.526-0.096,0.792c0.012,0.204,0.059,0.404,0.126,0.599
	c-0.198,0.1-0.388,0.215-0.562,0.347c-0.194,0.147-0.358,0.307-0.526,0.479c-0.241,0.245-0.415,0.547-0.573,0.849
	c-0.134,0.258-0.223,0.532-0.281,0.815c-0.07,0.338-0.136,0.717-0.089,1.066c0.023,0.189,0.047,0.372,0.117,0.549
	c0.016,0.04,0.038,0.073,0.054,0.112c-0.183,0.163-0.362,0.33-0.555,0.481c0.057-0.042,0.113-0.087,0.17-0.13
	c-0.179,0.138-0.36,0.268-0.515,0.434c-0.164,0.177-0.304,0.387-0.438,0.587c-0.198,0.3-0.319,0.653-0.451,0.985
	c-0.141,0.349-0.194,0.707-0.241,1.079c-0.051,0.392-0.062,0.777,0.064,1.158c0.039,0.119,0.093,0.232,0.148,0.344
	C3.671,23.24,3.484,23.263,3.3,23.319c-0.39,0.117-0.73,0.287-0.934,0.662c-0.185,0.338-0.292,0.736-0.328,1.12
	c-0.03,0.304-0.06,0.628-0.017,0.932c0.045,0.336,0.077,0.681,0.185,1.005c0.109,0.321,0.23,0.666,0.428,0.947
	c0.164,0.228,0.355,0.475,0.607,0.611c0.258,0.141,0.549,0.187,0.841,0.198c0.326,0.011,0.651,0.019,0.975,0.047
	c0.783,0.066,1.573,0.091,2.358,0.117c0.805,0.026,1.611,0.043,2.416,0.043c0.364,0.002,0.728-0.002,1.092-0.004
	c0.407-0.004,0.811-0.009,1.217-0.006c0.741,0.004,1.481,0,2.224-0.004c0.841-0.004,1.681-0.008,2.524-0.004
	c0.794,0.006,1.583-0.019,2.377-0.06c0.741-0.036,1.481-0.068,2.222-0.092c0.762-0.021,1.522-0.083,2.282-0.109
	c0.641-0.019,1.279-0.006,1.92-0.006c0.387,0,0.779-0.019,1.166-0.055c0.343-0.03,0.696-0.013,1.028-0.121
	c0.151-0.049,0.302-0.113,0.445-0.181c0.16-0.074,0.307-0.23,0.432-0.355c0.123-0.123,0.23-0.262,0.33-0.404
	c0.258-0.37,0.387-0.809,0.56-1.222c-0.028,0.066-0.055,0.132-0.083,0.196c0.143-0.338,0.281-0.666,0.353-1.028
	C29.962,25.324,29.987,25.103,29.998,24.881z M25.733,22.809c0.006-0.014,0.012-0.029,0.017-0.043l0,0
	C25.745,22.78,25.739,22.795,25.733,22.809z M20.737,7.974c0.008,0.01,0.016,0.021,0.024,0.031
	c-0.009-0.011-0.017-0.022-0.026-0.033C20.736,7.972,20.736,7.973,20.737,7.974z M15.556,4.471c0.02-0.138,0.046-0.276,0.088-0.409
	c0.023-0.041,0.048-0.081,0.074-0.121c0.024-0.014,0.049-0.027,0.074-0.039c0.051-0.017,0.102-0.03,0.155-0.041
	c0.076-0.006,0.152-0.01,0.228-0.009c0.008,0.005,0.016,0.01,0.024,0.015c0.011,0.011,0.023,0.023,0.034,0.034
	c0.053,0.079,0.099,0.162,0.14,0.247c0.076,0.198,0.134,0.4,0.172,0.609c0.045,0.401,0.057,0.811,0.056,1.219
	c-0.301-0.002-0.602-0.004-0.903-0.011c-0.054-0.242-0.102-0.485-0.142-0.73C15.533,4.983,15.534,4.724,15.556,4.471z M9.128,13.254
	c0.023-0.11,0.054-0.217,0.084-0.326c0.029-0.106,0.059-0.211,0.096-0.314c0.049-0.1,0.104-0.196,0.168-0.287
	c0.088-0.104,0.18-0.202,0.283-0.291c0.186-0.127,0.387-0.235,0.583-0.34c0.14-0.075,0.282-0.148,0.425-0.215
	c0.19-0.063,0.391-0.091,0.588-0.125c0.048-0.008,0.089-0.044,0.135-0.065c0.009,0.001,0.017,0.004,0.026,0.005
	c0.247,0.038,0.462,0.043,0.687-0.089c0.2-0.117,0.349-0.311,0.411-0.534c0.064-0.232,0.032-0.483-0.089-0.689
	c-0.104-0.177-0.319-0.381-0.534-0.411c-0.138-0.019-0.275-0.043-0.41-0.08c-0.067-0.067-0.129-0.14-0.189-0.213
	C11.32,9.173,11.257,9.064,11.2,8.951c-0.024-0.073-0.043-0.148-0.058-0.224c-0.006-0.094-0.006-0.189,0-0.282
	c0.025-0.125,0.062-0.247,0.105-0.366c0.014-0.026,0.028-0.052,0.043-0.077c0.028-0.032,0.057-0.063,0.087-0.093
	c0.028-0.016,0.056-0.031,0.084-0.045c0.174-0.064,0.349-0.11,0.53-0.143c0.334-0.029,0.671-0.02,1.007-0.02
	c0.398-0.002,0.796-0.011,1.194-0.017c0.792-0.015,1.586-0.041,2.377-0.047c0.607-0.006,1.213,0.002,1.82,0.019
	c0.258,0.009,0.517-0.004,0.779-0.019c0.351-0.02,0.704-0.038,1.054-0.004c0.074,0.014,0.147,0.031,0.218,0.055
	c0.022,0.01,0.044,0.022,0.065,0.034c0.063,0.059,0.122,0.123,0.178,0.188c0.07,0.103,0.133,0.209,0.188,0.322
	c0.049,0.13,0.092,0.265,0.12,0.401c0.003,0.039,0.006,0.079,0.006,0.118c-0.008,0.025-0.017,0.05-0.026,0.075
	c-0.085,0.182-0.189,0.349-0.307,0.511c-0.034,0.04-0.07,0.079-0.107,0.116c-0.076,0.048-0.156,0.092-0.237,0.132
	c-0.171,0.061-0.347,0.105-0.521,0.155C19.561,9.805,19.324,9.86,19.079,9.9c-0.565,0.061-1.14,0.06-1.707,0.089
	c-0.283,0.013-0.564,0.04-0.847,0.049c-0.304,0.011-0.609,0.009-0.913,0.009c-0.402-0.002-0.805-0.017-1.209-0.013
	c-0.247,0.002-0.496,0.015-0.741-0.006c-0.419-0.036-0.77,0.377-0.77,0.77c0,0.413,0.349,0.777,0.77,0.768
	c0.168-0.002,0.338-0.002,0.509,0c0.168,0,0.338,0.002,0.509-0.002c0.27-0.006,0.538-0.023,0.809-0.034
	c0.37-0.015,0.741-0.013,1.109-0.03c0.777-0.034,1.556-0.01,2.333-0.049c0.445-0.023,0.885-0.104,1.315-0.217
	c0.161-0.042,0.316-0.087,0.468-0.138c0.05,0.027,0.097,0.058,0.154,0.079c0.072,0.027,0.144,0.052,0.215,0.08
	c0.086,0.04,0.168,0.084,0.248,0.137c0.127,0.081,0.26,0.151,0.387,0.233c0.067,0.062,0.131,0.127,0.196,0.191
	c0.113,0.113,0.228,0.22,0.333,0.339c0.018,0.028,0.035,0.056,0.051,0.085c0.048,0.136,0.087,0.275,0.114,0.417
	c0.022,0.226,0.023,0.461,0.004,0.688c-0.019,0.089-0.047,0.174-0.079,0.257c-0.026,0.057-0.056,0.112-0.089,0.165
	c-0.046,0.053-0.094,0.104-0.146,0.152c-0.065,0.045-0.132,0.087-0.202,0.124c-0.067,0.022-0.136,0.037-0.206,0.049
	c-0.463,0.052-0.922,0.082-1.388,0.101c-0.785,0.032-1.569,0.057-2.352,0.064c-1.6,0.013-3.203,0.006-4.801-0.034
	c-0.524-0.015-1.047-0.049-1.571-0.049c-0.503,0-1.007-0.03-1.507-0.085c-0.242-0.041-0.483-0.096-0.715-0.18
	c-0.012-0.006-0.024-0.012-0.036-0.019c-0.007-0.007-0.015-0.014-0.022-0.021c-0.046-0.071-0.086-0.144-0.123-0.22
	c-0.022-0.058-0.042-0.118-0.058-0.178C9.121,13.396,9.123,13.324,9.128,13.254z M9.23,13.824c0.015,0.011,0.031,0.023,0.046,0.035
	c-0.001-0.001-0.002-0.001-0.003-0.002C9.259,13.845,9.245,13.834,9.23,13.824z M7.175,16.955c0.022-0.128,0.049-0.258,0.089-0.382
	c0.085-0.169,0.19-0.33,0.295-0.488c0.087-0.095,0.187-0.184,0.287-0.267c0.146-0.101,0.307-0.176,0.47-0.247
	c0.107-0.041,0.215-0.075,0.325-0.109c0.027-0.008,0.047-0.027,0.072-0.038c0.022,0.009,0.038,0.02,0.061,0.029
	c0.215,0.081,0.453,0.147,0.679,0.179c0.813,0.115,1.63,0.117,2.448,0.132c0.79,0.017,1.577-0.011,2.365-0.019
	c0.783-0.009,1.564,0.019,2.348,0.028c0.822,0.006,1.643-0.038,2.465-0.06c0.381-0.011,0.76-0.021,1.141-0.034
	c0.296-0.011,0.592-0.006,0.888-0.026c0.289-0.019,0.577-0.06,0.862-0.098c0.16-0.023,0.311-0.049,0.46-0.109
	c0.203-0.082,0.398-0.167,0.574-0.295c0.082,0.067,0.169,0.129,0.273,0.172c0.073,0.036,0.143,0.077,0.212,0.122
	c0.092,0.081,0.181,0.166,0.263,0.258c0.068,0.107,0.128,0.216,0.182,0.329c0.048,0.148,0.075,0.303,0.098,0.458
	c0.026,0.256,0.035,0.515,0.013,0.771c-0.026,0.129-0.07,0.254-0.116,0.377c-0.041,0.084-0.087,0.163-0.14,0.239
	c-0.06,0.071-0.123,0.141-0.191,0.204c-0.044,0.027-0.089,0.052-0.135,0.075c-0.121,0.041-0.242,0.067-0.369,0.088
	c-0.255,0.023-0.511,0.022-0.763,0.045c-0.336,0.032-0.673,0.051-1.011,0.066c-0.815,0.034-1.632,0.038-2.448,0.07
	c-1.683,0.064-3.369,0.153-5.055,0.166c-0.783,0.004-1.569,0.002-2.354-0.002c-0.76-0.006-1.526-0.003-2.282-0.084
	c-0.27-0.042-0.53-0.098-0.791-0.18c-0.18-0.057-0.356-0.124-0.531-0.195c-0.089-0.04-0.167-0.086-0.244-0.139
	c-0.134-0.115-0.26-0.239-0.377-0.372c-0.015-0.024-0.028-0.049-0.041-0.074c-0.014-0.043-0.026-0.085-0.036-0.129
	C7.154,17.265,7.161,17.109,7.175,16.955z M5.32,21.793c0.032-0.19,0.076-0.379,0.139-0.561c0.075-0.212,0.161-0.417,0.245-0.623
	c0.048-0.094,0.105-0.183,0.166-0.269c0.075-0.088,0.153-0.171,0.24-0.249c0.258-0.189,0.515-0.38,0.769-0.574
	c0.186,0.099,0.396,0.161,0.593,0.233c0.143,0.053,0.285,0.102,0.432,0.145c0.17,0.049,0.341,0.1,0.515,0.138
	c0.253,0.06,0.519,0.079,0.779,0.1c0.39,0.032,0.787,0.026,1.179,0.021c0.819-0.006,1.637,0,2.456,0.006
	c0.851,0.009,1.701,0.013,2.552-0.015c0.824-0.026,1.645-0.092,2.469-0.128c0.419-0.017,0.836-0.04,1.254-0.055
	c0.419-0.015,0.836-0.013,1.256-0.017c0.7-0.009,1.403,0.006,2.103-0.03c0.37-0.019,0.745-0.049,1.111-0.106
	c0.282-0.043,0.548-0.167,0.793-0.314c0.036,0.015,0.065,0.042,0.104,0.05c0.098,0.021,0.19,0.05,0.282,0.083
	c0.267,0.133,0.518,0.31,0.758,0.487c0.15,0.12,0.296,0.242,0.426,0.384c0.044,0.067,0.082,0.135,0.117,0.207
	c0.021,0.062,0.041,0.125,0.055,0.188c0.025,0.288,0.023,0.573-0.007,0.86c-0.026,0.159-0.064,0.316-0.122,0.466
	c-0.063,0.147-0.126,0.293-0.187,0.439c-0.021,0.047-0.045,0.092-0.073,0.135c-0.015,0.016-0.03,0.033-0.045,0.048
	c-0.113,0.038-0.23,0.068-0.346,0.088c-0.375,0.041-0.756,0.058-1.131,0.083c-0.598,0.04-1.198,0.064-1.796,0.102
	c-1.569,0.1-3.139,0.175-4.71,0.202c-0.805,0.015-1.609,0.053-2.411,0.087c-0.839,0.036-1.675,0.038-2.514,0.03
	c-0.594-0.004-1.185,0.006-1.777,0.017c-1.005,0.019-2.007,0.036-3.009-0.026c-0.441-0.029-0.881-0.046-1.318-0.085
	c-0.13-0.02-0.26-0.045-0.387-0.083c-0.159-0.083-0.311-0.173-0.458-0.275C5.702,22.88,5.6,22.769,5.501,22.649
	c-0.065-0.092-0.125-0.187-0.178-0.286c-0.013-0.041-0.025-0.083-0.036-0.125C5.286,22.091,5.302,21.941,5.32,21.793z
	 M28.142,25.741c-0.091,0.214-0.176,0.432-0.261,0.65c-0.06,0.121-0.131,0.239-0.208,0.35c-0.05,0.052-0.103,0.102-0.157,0.149
	c-0.055,0.015-0.111,0.028-0.167,0.039c-0.252,0.022-0.505,0.011-0.757,0.04c-0.472,0.055-0.949,0.106-1.426,0.136
	c-0.726,0.049-1.452,0.074-2.177,0.115c-0.728,0.04-1.454,0.081-2.182,0.123c-0.762,0.043-1.522,0.079-2.284,0.102
	c-0.592,0.019-1.181,0.017-1.773,0.017c-0.196,0-0.394,0-0.59,0c-0.664,0.002-1.326,0-1.988-0.004
	c-0.928-0.002-1.856-0.006-2.784-0.002c-1.217,0.009-2.437,0.021-3.656-0.021c-0.651-0.023-1.303-0.06-1.952-0.109
	c-0.512-0.039-1.021-0.095-1.529-0.152c-0.02-0.004-0.04-0.009-0.06-0.014c-0.004-0.002-0.009-0.005-0.013-0.008
	c-0.028-0.027-0.054-0.055-0.08-0.083c-0.084-0.125-0.156-0.256-0.22-0.393c-0.119-0.313-0.203-0.638-0.261-0.969
	c-0.011-0.172-0.003-0.347,0.012-0.52c0.017-0.075,0.04-0.148,0.067-0.222c0.001-0.002,0.002-0.004,0.003-0.006
	c0.054-0.012,0.108-0.022,0.162-0.034C3.933,24.911,4,24.895,4.068,24.882c0.192-0.015,0.386-0.013,0.579-0.009
	c0.106,0.002,0.215,0.004,0.323,0.002c0.175-0.002,0.329-0.067,0.468-0.157c0.151,0.064,0.304,0.12,0.459,0.152
	c0.428,0.089,0.868,0.083,1.305,0.079c0.389-0.004,0.777,0.015,1.166,0.019c0.402,0.004,0.805-0.004,1.205-0.004
	c0.407-0.002,0.809-0.019,1.215-0.023c0.385-0.004,0.773,0,1.16,0.002c1.624,0.004,3.246-0.043,4.865-0.119
	c0.83-0.038,1.66-0.055,2.49-0.081c0.398-0.013,0.796-0.028,1.194-0.034c0.181-0.002,0.362,0,0.543,0.002
	c0.2,0,0.4,0.002,0.602-0.002c0.69-0.013,1.377-0.072,2.067-0.074c0.468-0.002,0.941-0.028,1.405-0.07
	c0.032-0.003,0.064-0.008,0.096-0.011c0.175,0.1,0.338,0.094,0.531,0.067c0.023-0.003,0.047-0.005,0.07-0.009
	c-0.026,0.004-0.051,0.007-0.077,0.011c0.387-0.051,0.775-0.081,1.164-0.111c0.456-0.034,0.916-0.077,1.373-0.045
	c0.016,0.058,0.03,0.118,0.042,0.177c0.013,0.157,0.016,0.315,0.005,0.472c-0.052,0.285-0.148,0.554-0.26,0.823
	C28.087,25.871,28.114,25.807,28.142,25.741z"/>
</svg>