<?xml version="1.0" encoding="utf-8"?>
<!-- Generator: Adobe Illustrator 21.1.0, SVG Export Plug-In . SVG Version: 6.00 Build 0)  -->
<svg version="1.1" id="designs" xmlns="http://www.w3.org/2000/svg" xmlns:xlink="http://www.w3.org/1999/xlink" x="0px" y="0px"
	 width="32px" height="32px" viewBox="0 0 32 32" style="enable-background:new 0 0 32 32;" xml:space="preserve">
<style type="text/css">
	.sketchy_een{fill:#111918;}
</style>
<path class="sketchy_een" d="M28.97,14.378c0.104-0.376-0.074-0.768-0.399-0.954c-1.161-1.069-2.295-2.166-3.458-3.234
	c-0.616-0.566-1.232-1.125-1.865-1.669c-0.642-0.554-1.282-1.111-1.885-1.705c-0.744-0.728-1.45-1.494-2.206-2.208
	c-0.857-0.806-1.615-1.711-2.391-2.594c-0.148-0.169-0.362-0.248-0.578-0.248c-0.152,0-0.296,0.051-0.429,0.123
	c-0.052-0.01-0.102-0.03-0.155-0.03c-0.22,0-0.441,0.086-0.616,0.245c-0.724,0.658-1.438,1.33-2.16,1.99
	C12.15,4.715,11.434,5.29,10.75,5.9C9.469,7.043,8.253,8.257,6.969,9.394c-0.644,0.57-1.234,1.191-1.863,1.775
	c-0.566,0.523-1.159,1.021-1.765,1.498c-0.136,0.107-0.203,0.297-0.233,0.479l0,0c-0.132,0.226-0.124,0.484-0.027,0.707
	c0.021,0.817,0.045,1.635,0.047,2.453c0,0.824-0.024,1.649-0.028,2.475c-0.006,0.84-0.034,1.683-0.058,2.523
	c-0.026,0.846-0.028,1.695-0.036,2.541c-0.01,0.925-0.004,1.847,0.022,2.77c0.028,0.923,0.026,1.855,0.166,2.768
	c0.01,0.066,0.039,0.131,0.075,0.194c0.098,0.369,0.424,0.666,0.819,0.655c0.939-0.024,1.875-0.072,2.814-0.1
	c0.513-0.014,1.029-0.01,1.542-0.008c0.291,0.002,0.582,0.004,0.875,0.002c0.812-0.004,1.623,0.018,2.433,0.02
	c0.854,0.002,1.709-0.018,2.563-0.024c0.859-0.006,1.717-0.026,2.573-0.056c0.437-0.016,0.873-0.03,1.31-0.042
	c0.439-0.01,0.879,0.004,1.318,0.022c0.887,0.034,1.769,0.064,2.656,0.066c0.862,0,1.729-0.018,2.589,0.01
	c0.55,0.018,1.097,0.026,1.647,0.028c0.265,0.002,0.531,0,0.796,0.008c0.322,0.01,0.625,0.014,0.921-0.132
	c0.197-0.026,0.386-0.101,0.526-0.242c0.156-0.156,0.287-0.413,0.265-0.64c-0.034-0.391-0.048-0.78-0.07-1.171
	c-0.02-0.367-0.052-0.732-0.066-1.099c-0.03-0.808-0.028-1.621-0.044-2.431c-0.038-1.719-0.014-3.438-0.024-5.157
	c-0.009-1.532,0.066-3.062,0.083-4.594C28.873,14.602,28.937,14.498,28.97,14.378z M21.322,20.432
	c0.436-0.376,0.872-0.752,1.306-1.13c0.642-0.558,1.297-1.093,1.969-1.615c0.092-0.071,0.184-0.142,0.276-0.212
	c-0.052,0.04-0.106,0.08-0.158,0.12c0.526-0.405,1.057-0.808,1.561-1.242c0.299-0.255,0.592-0.511,0.88-0.776
	c0.01-0.01,0.02-0.02,0.03-0.03c0,0.51,0.006,1.02-0.007,1.531c-0.018,0.84-0.066,1.679-0.08,2.519
	c-0.028,1.721-0.064,3.444-0.078,5.165c-0.006,0.697-0.011,1.395,0.006,2.092c-0.051-0.05-0.101-0.101-0.153-0.151
	c-0.421-0.407-0.836-0.818-1.238-1.246c-0.401-0.429-0.818-0.836-1.228-1.258c-0.416-0.427-0.807-0.874-1.178-1.341
	C22.609,22.038,21.974,21.229,21.322,20.432z M6.295,12.451c0.642-0.594,1.218-1.25,1.869-1.829
	c0.624-0.558,1.199-1.163,1.805-1.741c0.638-0.606,1.274-1.216,1.92-1.813c0.66-0.61,1.36-1.173,2.044-1.757
	c0.666-0.567,1.312-1.155,1.961-1.742c0.523,0.578,1.05,1.151,1.588,1.713c0.285,0.297,0.59,0.574,0.883,0.86
	c0.289,0.283,0.562,0.578,0.84,0.869C19.79,7.622,20.386,8.23,21.011,8.8c0.612,0.556,1.26,1.071,1.877,1.621
	c0.852,0.754,1.679,1.542,2.515,2.315c0.397,0.367,0.796,0.73,1.183,1.107c0.008,0.008,0.016,0.016,0.024,0.023
	c-0.386,0.396-0.773,0.791-1.189,1.157c-0.447,0.391-0.901,0.772-1.37,1.139c-0.81,0.607-1.613,1.218-2.395,1.86
	c-0.774,0.635-1.525,1.295-2.312,1.914c-0.617,0.472-1.232,0.944-1.824,1.45c-0.255,0.219-0.511,0.437-0.768,0.654
	c-0.08,0.067-0.16,0.135-0.24,0.202c-0.066-0.049-0.134-0.095-0.2-0.141c-0.193-0.134-0.379-0.273-0.568-0.411
	c-0.353-0.261-0.705-0.522-1.056-0.787c-0.345-0.268-0.689-0.538-1.036-0.804c0.027,0.02,0.054,0.04,0.08,0.061
	c-0.983-0.758-1.983-1.49-2.968-2.242c0.006,0.004,0.012,0.009,0.017,0.013c-0.041-0.031-0.081-0.063-0.122-0.094
	c-1.049-0.816-2.056-1.684-3.089-2.519c-0.523-0.423-1.047-0.844-1.585-1.25c-0.273-0.206-0.554-0.401-0.839-0.591
	c0.092-0.079,0.185-0.157,0.274-0.239C5.712,12.973,6.009,12.718,6.295,12.451z M4.842,27.412c-0.002,0.002-0.004,0.004-0.006,0.006
	c-0.007-0.196-0.013-0.391-0.022-0.586c-0.036-0.796-0.052-1.591-0.058-2.389c-0.008-0.852-0.016-1.705-0.024-2.559
	c-0.006-0.846,0.01-1.691,0.002-2.537c-0.01-0.915-0.026-1.831-0.036-2.748c-0.005-0.518-0.008-1.036-0.009-1.555
	c0.372,0.25,0.735,0.511,1.092,0.784c0.836,0.66,1.644,1.35,2.458,2.038c0.889,0.748,1.786,1.482,2.705,2.191
	c0.058,0.045,0.116,0.09,0.175,0.135c0,0,0,0,0,0.001c-0.001-0.001-0.002-0.001-0.003-0.002c0.001,0.001,0.002,0.001,0.003,0.002
	l0,0c-0.002-0.001-0.003-0.002-0.005-0.004c0,0,0.001,0.001,0.002,0.002c-0.003-0.002-0.006-0.005-0.009-0.007
	c-0.001-0.001-0.002-0.002-0.003-0.003c0,0,0.002,0.001,0.002,0.002c-0.039-0.03-0.079-0.06-0.119-0.09
	c0.041,0.032,0.084,0.064,0.125,0.095c0.002,0.001,0.004,0.003,0.006,0.004c-0.479,0.598-0.953,1.199-1.432,1.798
	c-0.534,0.67-1.093,1.316-1.679,1.942c-0.532,0.572-1.089,1.121-1.611,1.705c-0.257,0.287-0.499,0.588-0.748,0.883
	C5.389,26.825,5.115,27.118,4.842,27.412z M10.623,17.808c0.009,0.007,0.018,0.013,0.026,0.02c0.005,0.004,0.011,0.008,0.016,0.012
	C10.651,17.829,10.637,17.819,10.623,17.808z M24.24,28.406c-0.461,0-0.923-0.002-1.384,0c-0.86,0.002-1.721-0.004-2.579-0.036
	c-0.451-0.018-0.903-0.036-1.354-0.05c-0.117-0.003-0.233-0.005-0.35-0.005c-0.31,0-0.621,0.009-0.929,0.017
	c-0.873,0.018-1.743,0.058-2.616,0.064c-0.867,0.004-1.733,0.028-2.6,0.026c-1.629-0.002-3.255-0.048-4.884,0.02
	c-0.444,0.018-0.889,0.026-1.334,0.034c0.146-0.176,0.29-0.353,0.438-0.528c0.263-0.309,0.505-0.634,0.766-0.945
	c0.495-0.59,0.985-1.185,1.504-1.755c1.155-1.272,2.232-2.618,3.33-3.939c0.04-0.048,0.079-0.096,0.119-0.144
	c0.886,0.694,1.766,1.395,2.66,2.078c-0.056-0.042-0.112-0.086-0.17-0.13c0.148,0.114,0.297,0.231,0.443,0.349
	c0.19,0.15,0.373,0.319,0.584,0.443c0.011,0.006,0.023,0.006,0.035,0.012c0.017,0.021,0.025,0.048,0.044,0.068
	c0.325,0.327,0.897,0.341,1.219,0c0.511-0.538,1.099-1.005,1.657-1.492c0.422-0.372,0.863-0.721,1.302-1.071
	c0.569,0.672,1.137,1.345,1.679,2.037c0.401,0.525,0.81,1.039,1.254,1.526c0.421,0.465,0.865,0.913,1.282,1.382
	c0.413,0.467,0.83,0.925,1.268,1.368c0.213,0.215,0.423,0.431,0.628,0.654c0.004,0.005,0.009,0.01,0.013,0.014
	c-0.266-0.003-0.531-0.007-0.796-0.009C25.058,28.39,24.649,28.406,24.24,28.406z M10.81,19.954
	c0.045,0.034,0.089,0.068,0.133,0.103c0.01,0.008,0.019,0.016,0.029,0.024C10.918,20.038,10.864,19.996,10.81,19.954z"/>
</svg>