<?xml version="1.0" encoding="utf-8"?>
<!-- Generator: Adobe Illustrator 21.1.0, SVG Export Plug-In . SVG Version: 6.00 Build 0)  -->
<svg version="1.1" id="designs" xmlns="http://www.w3.org/2000/svg" xmlns:xlink="http://www.w3.org/1999/xlink" x="0px" y="0px"
	 width="32px" height="32px" viewBox="0 0 32 32" style="enable-background:new 0 0 32 32;" xml:space="preserve">
<style type="text/css">
	.sketchy_een{fill:#111918;}
</style>
<path class="sketchy_een" d="M23.708,21.966c0,0.347-0.29,0.636-0.636,0.636c-0.347,0-0.636-0.29-0.636-0.636
	s0.29-0.636,0.636-0.636C23.419,21.33,23.708,21.62,23.708,21.966z M10.373,21.511c-0.322,0-0.589,0.267-0.589,0.589
	c0,0.322,0.267,0.589,0.589,0.589s0.589-0.267,0.589-0.589C10.962,21.778,10.695,21.511,10.373,21.511z M30.812,23.174
	c0.003,0.084,0.006,0.168-0.016,0.25c-0.108,0.391-0.465,0.624-0.846,0.617c0.005,0.001,0.01,0.001,0.015,0.002
	c-0.008-0.001-0.017-0.001-0.025-0.002c-0.02,0-0.041-0.002-0.061-0.004c-0.106-0.004-0.214,0.001-0.32,0.006
	c-0.085,0.006-0.169,0.009-0.25,0.008c-0.127,0-0.252,0.008-0.379,0.013c-0.151,0.008-0.303,0.015-0.455,0.01
	c-0.737-0.023-1.475,0.061-2.208,0.133c-0.007,0.001-0.014-0.004-0.021-0.004c-0.031,0.044-0.054,0.091-0.088,0.134
	c-0.261,0.328-0.553,0.635-0.892,0.881c-0.326,0.237-0.697,0.464-1.081,0.582c-0.265,0.08-0.532,0.127-0.807,0.161
	c-0.273,0.032-0.511,0.015-0.786-0.026c-0.197-0.032-0.394-0.083-0.585-0.146c-0.231-0.078-0.472-0.161-0.682-0.288
	c-0.299-0.178-0.589-0.377-0.828-0.634c-0.197-0.21-0.353-0.451-0.494-0.702c-0.261,0.051-0.52,0.052-0.788,0.05
	c-0.224-0.002-0.449-0.002-0.672-0.008c-0.438-0.013-0.875-0.017-1.312-0.021c-0.466-0.006-0.93,0.023-1.396,0.025
	c-0.595,0.004-1.189,0.008-1.784,0.002c-0.002,0-0.003-0.001-0.005-0.001c-0.058,0.102-0.106,0.208-0.178,0.303
	c-0.244,0.324-0.498,0.663-0.818,0.917c-0.256,0.203-0.513,0.362-0.805,0.504c-0.322,0.157-0.644,0.292-1,0.339
	c-0.384,0.053-0.773,0.083-1.159,0.043c-0.335-0.034-0.693-0.078-1.008-0.205c-0.335-0.136-0.716-0.273-1.015-0.481
	c-0.356-0.246-0.669-0.525-0.915-0.883c-0.115-0.166-0.213-0.344-0.303-0.525c-1.653-0.087-3.309-0.045-4.964-0.033
	c-0.22,0.001-0.416-0.103-0.555-0.258C1.132,23.783,0.994,23.56,1,23.302c0.013-0.487,0.061-0.97,0.081-1.456
	c0.015-0.339,0.021-0.676,0.044-1.013c0.051-0.72,0.127-1.439,0.222-2.152c0.051-0.383,0.1-0.765,0.18-1.142
	c0.07-0.329,0.188-0.64,0.301-0.954c0.068-0.191,0.138-0.386,0.235-0.564c0.112-0.205,0.267-0.388,0.436-0.549
	c0.301-0.288,0.633-0.559,0.998-0.76c0.347-0.191,0.733-0.305,1.106-0.436c0.356-0.125,0.716-0.233,1.072-0.354
	c0.358-0.123,0.712-0.256,1.07-0.381c0.159-0.055,0.32-0.108,0.487-0.15c0.084-0.021,0.169-0.038,0.253-0.06
	c0.049-0.088,0.091-0.181,0.13-0.273c0.123-0.304,0.233-0.611,0.323-0.928c0.087-0.311,0.189-0.617,0.259-0.932
	c0.055-0.248,0.11-0.492,0.178-0.737c0.078-0.274,0.187-0.534,0.3-0.794c0.076-0.191,0.141-0.388,0.221-0.579
	c0.081-0.191,0.17-0.379,0.252-0.568c0.055-0.129,0.11-0.258,0.18-0.377c0.189-0.333,0.398-0.636,0.648-0.93
	c0.216-0.25,0.413-0.492,0.686-0.686c0.371-0.267,0.841-0.379,1.284-0.47c0.419-0.087,0.845-0.142,1.271-0.182
	c0.439-0.04,0.879-0.085,1.32-0.096c0.852-0.025,1.706,0.004,2.557-0.04c0.841-0.044,1.678-0.068,2.521-0.068
	c0.441,0,0.883-0.005,1.325-0.005c0.375,0,0.751,0.004,1.126,0.019c0.771,0.032,1.532,0.155,2.288,0.309
	c0.186,0.038,0.373,0.068,0.561,0.104c0.161,0.03,0.337,0.047,0.489,0.106c0.205,0.08,0.411,0.152,0.616,0.227
	c0.133,0.049,0.263,0.104,0.392,0.161c0.201,0.085,0.366,0.203,0.526,0.35c0.144,0.131,0.209,0.314,0.219,0.5
	c0.16,0.289,0.314,0.58,0.436,0.887c0.102,0.254,0.172,0.517,0.246,0.78c0.131,0.453,0.267,0.905,0.367,1.366
	c0.123,0.553,0.233,1.11,0.371,1.661c0.146,0.578,0.288,1.157,0.419,1.74c0.182,0.82,0.35,1.644,0.562,2.458
	c0.099,0.379,0.22,0.75,0.322,1.127c0.108,0.392,0.208,0.784,0.305,1.178c0.087,0.354,0.174,0.708,0.261,1.061
	c0.08,0.316,0.172,0.629,0.244,0.947c0.076,0.341,0.146,0.688,0.203,1.034c0.053,0.328,0.078,0.655,0.106,0.985
	C31.014,22.859,30.931,23.031,30.812,23.174z M24.994,13.127c0.322,0.023,0.642,0.049,0.964,0.053
	c0.318,0.004,0.633,0.01,0.951-0.004c0.119-0.004,0.24-0.001,0.36,0c-0.031-0.131-0.058-0.263-0.09-0.393
	c-0.093-0.369-0.189-0.737-0.273-1.108c-0.078-0.333-0.133-0.67-0.214-1.004c-0.004-0.015-0.007-0.031-0.011-0.046
	c-0.051,0.012-0.1,0.032-0.154,0.032c-0.495-0.002-0.995-0.019-1.489,0.034c-0.249,0.041-0.495,0.095-0.742,0.144
	c-0.19,0.038-0.379,0.072-0.569,0.102c0.005,0.226,0.033,0.452,0.058,0.675c0.03,0.282,0.061,0.565,0.097,0.848
	c0.027,0.196,0.055,0.398,0.1,0.593C24.317,13.082,24.655,13.104,24.994,13.127z M24.037,13.261L24.037,13.261c0,0,0,0.001,0,0.001
	c0.005,0.006,0.01,0.012,0.015,0.019C24.047,13.274,24.042,13.267,24.037,13.261z M9.311,13.237c-0.02,0.054-0.042,0.106-0.062,0.16
	c0.554-0.04,1.109-0.082,1.664-0.106c0.503-0.022,1.003-0.037,1.503-0.094c0.021-0.3-0.005-0.604-0.02-0.904
	c-0.013-0.262-0.019-0.525-0.046-0.785c-0.029-0.168-0.065-0.334-0.097-0.5c-0.209-0.004-0.419-0.005-0.628-0.008
	c-0.348-0.003-0.692,0.006-1.038,0.042c-0.212,0.038-0.405,0.028-0.598-0.07c-0.114,0.395-0.211,0.793-0.333,1.188
	C9.544,12.521,9.44,12.883,9.311,13.237z M5.891,22.658c0.168-0.003,0.338-0.006,0.508-0.011c-0.009-0.185,0-0.372,0.011-0.557
	c0.005-0.086,0.02-0.173,0.028-0.259c-0.03-0.001-0.059,0.001-0.089,0c-0.347-0.013-0.691-0.057-1.038-0.078
	c-0.88-0.052-1.766-0.002-2.647,0.045c-0.014,0.298-0.02,0.597-0.028,0.895c0.708,0.014,1.417,0.031,2.126,0.017
	c0.193-0.004,0.384-0.013,0.576-0.034C5.521,22.656,5.707,22.662,5.891,22.658z M12.848,21.992c-0.04-0.213-0.107-0.416-0.187-0.616
	c-0.067-0.138-0.147-0.265-0.236-0.389c-0.153-0.182-0.325-0.345-0.509-0.496c-0.171-0.116-0.356-0.219-0.543-0.306
	c-0.146-0.05-0.296-0.089-0.443-0.137c-0.22-0.074-0.443-0.134-0.672-0.176c-0.063-0.003-0.126-0.002-0.188,0.002
	c-0.174,0.006-0.338-0.046-0.477-0.136c-0.048,0.013-0.095,0.028-0.143,0.045c-0.089,0.044-0.173,0.093-0.256,0.149
	c-0.123,0.105-0.237,0.218-0.34,0.343c-0.19,0.265-0.351,0.551-0.49,0.846c-0.086,0.228-0.15,0.461-0.193,0.701
	c-0.033,0.327-0.049,0.654-0.024,0.981c0.018,0.085,0.04,0.167,0.068,0.25c0.115,0.251,0.244,0.493,0.4,0.719
	c0.091,0.103,0.191,0.197,0.297,0.286c0.178,0.124,0.373,0.223,0.571,0.312c0.256,0.098,0.521,0.17,0.792,0.217
	c0.245,0.027,0.491,0.041,0.736,0.024c0.144-0.029,0.283-0.072,0.421-0.125c0.199-0.09,0.393-0.191,0.572-0.314
	c0.159-0.14,0.299-0.303,0.432-0.469c0.108-0.151,0.201-0.307,0.283-0.472c0.05-0.142,0.087-0.287,0.113-0.435
	C12.858,22.527,12.87,22.258,12.848,21.992z M25.151,21.431c-0.021-0.11-0.049-0.218-0.085-0.324
	c-0.058-0.112-0.128-0.216-0.204-0.319c-0.159-0.198-0.331-0.389-0.522-0.556c-0.153-0.101-0.318-0.188-0.477-0.277
	c-0.136-0.074-0.27-0.149-0.408-0.216c-0.079-0.026-0.159-0.048-0.241-0.066c-0.021-0.005-0.042-0.01-0.062-0.016
	c-0.286,0.059-0.568,0.132-0.842,0.236c-0.056,0.028-0.109,0.058-0.161,0.09c-0.106,0.094-0.206,0.195-0.299,0.303
	c-0.159,0.23-0.292,0.486-0.408,0.742c-0.057,0.154-0.1,0.308-0.131,0.47c-0.033,0.303-0.049,0.604-0.022,0.911
	c0.026,0.154,0.06,0.303,0.112,0.451c0.107,0.224,0.229,0.441,0.371,0.644c0.072,0.085,0.149,0.165,0.232,0.239
	c0.137,0.093,0.284,0.175,0.433,0.246c0.186,0.071,0.373,0.128,0.568,0.168c0.133,0.009,0.265,0.004,0.398-0.009
	c0.139-0.025,0.276-0.055,0.41-0.1c0.197-0.091,0.389-0.191,0.569-0.313c0.171-0.151,0.337-0.314,0.485-0.489
	c0.066-0.099,0.121-0.203,0.172-0.31c0.044-0.119,0.076-0.239,0.099-0.364C25.174,22.197,25.185,21.807,25.151,21.431z
	 M25.682,19.006c0.151,0.155,0.295,0.326,0.43,0.496c0.034,0.043,0.069,0.088,0.103,0.131c0.1-0.047,0.209-0.076,0.325-0.076
	c0.003,0,0.007,0,0.01,0c0.682,0.008,1.364,0.026,2.045,0.032c0.055,0,0.105,0.022,0.157,0.033
	c-0.154-0.688-0.312-1.375-0.497-2.056c-0.25-0.926-0.443-1.866-0.638-2.804c-0.197,0.005-0.393,0.014-0.589,0.017
	c-0.585,0.008-1.172,0.038-1.758-0.009c-0.364-0.03-0.724-0.055-1.089-0.062c-0.299-0.008-0.623,0.004-0.907-0.093
	c-0.091-0.03-0.21-0.078-0.284-0.117c-0.098-0.051-0.18-0.125-0.265-0.193c-0.146-0.117-0.263-0.377-0.294-0.553
	c-0.059-0.333-0.106-0.674-0.11-1.013c-0.004-0.337-0.002-0.672-0.021-1.01c-0.021-0.365-0.068-0.733-0.047-1.1
	c0.015-0.246,0.047-0.474,0.172-0.689c0.116-0.201,0.349-0.36,0.572-0.411c0.165-0.039,0.334-0.053,0.503-0.071
	c0.483-0.073,0.96-0.167,1.448-0.211c0.448-0.041,0.898-0.056,1.349-0.063c-0.034-0.107-0.059-0.217-0.097-0.322
	c-0.132-0.279-0.294-0.542-0.448-0.809c-0.008-0.013-0.007-0.028-0.014-0.041c-0.271-0.103-0.547-0.19-0.814-0.305
	c-0.236-0.078-0.492-0.092-0.734-0.129c-0.267-0.042-0.528-0.108-0.795-0.144c-0.005-0.001-0.009-0.001-0.014-0.002
	c-0.033-0.004-0.066-0.009-0.099-0.013c0.013,0.002,0.025,0.003,0.038,0.005c-0.181-0.025-0.362-0.054-0.544-0.079
	c-0.017-0.002-0.034-0.003-0.051-0.005c-0.767-0.068-1.536-0.055-2.303-0.055c-0.854,0-1.71,0.008-2.562,0.042
	c-0.426,0.015-0.85,0.051-1.277,0.062c-0.407,0.011-0.816,0.006-1.225,0.017c-0.825,0.024-1.643,0.073-2.461,0.164
	c-0.384,0.062-0.763,0.157-1.127,0.287c-0.049,0.025-0.096,0.052-0.142,0.082c-0.196,0.178-0.37,0.39-0.537,0.595
	c-0.187,0.259-0.339,0.542-0.478,0.831c0.519-0.049,1.045-0.032,1.564-0.048c0.186-0.006,0.386-0.028,0.583-0.028
	c0.221,0,0.438,0.028,0.627,0.138c0.206,0.121,0.401,0.352,0.443,0.593c0.019,0.115,0.036,0.231,0.044,0.347
	c0.007,0.095,0.014,0.189,0.024,0.284c0.054,0.351,0.118,0.703,0.12,1.059c0.002,0.259-0.013,0.517-0.009,0.775
	c0.004,0.165,0.008,0.328,0.004,0.491c-0.004,0.095-0.008,0.189-0.019,0.284c-0.017,0.153-0.026,0.337-0.08,0.489
	c-0.08,0.218-0.165,0.394-0.318,0.568c-0.146,0.167-0.324,0.265-0.526,0.343c-0.177,0.07-0.377,0.071-0.567,0.09
	c-0.136,0.021-0.275,0.043-0.412,0.043c-0.125,0-0.252-0.004-0.377-0.002c-0.301,0.008-0.604,0.017-0.905,0.026
	c-0.716,0.027-1.434,0.129-2.148,0.188c-0.161,0.013-0.304-0.052-0.43-0.142c-0.12,0.057-0.245,0.106-0.379,0.132
	c-0.142,0.026-0.284,0.055-0.424,0.089c-0.354,0.089-0.695,0.214-1.04,0.337c-0.637,0.23-1.289,0.42-1.922,0.667
	c-0.152,0.073-0.295,0.161-0.432,0.259c-0.155,0.127-0.307,0.259-0.443,0.405c-0.05,0.077-0.094,0.156-0.134,0.239
	c-0.267,0.689-0.386,1.406-0.486,2.136c0.01-0.074,0.019-0.15,0.028-0.223c-0.055,0.417-0.114,0.835-0.172,1.253
	c0.203-0.005,0.405-0.01,0.607-0.01c0.214,0,0.428,0.002,0.642,0.006c0.413,0.006,0.824,0.011,1.235,0.038
	c0.356,0.023,0.712,0.049,1.068,0.053c0.184,0.003,0.367-0.008,0.551-0.016c0.236-0.46,0.532-0.895,0.911-1.238
	c0.248-0.227,0.513-0.443,0.82-0.583c0.231-0.106,0.47-0.195,0.72-0.24c0.197-0.036,0.396-0.066,0.595-0.093
	c0.071-0.02,0.142-0.03,0.213-0.03c0.071,0,0.142,0.01,0.213,0.03c0.026,0.007,0.052,0.016,0.077,0.025
	c0.295,0.025,0.592,0.091,0.87,0.176c0.178,0.053,0.364,0.095,0.538,0.161c0.517,0.195,0.956,0.474,1.362,0.85
	c0.191,0.178,0.359,0.373,0.511,0.578c0.122-0.082,0.258-0.142,0.413-0.142c0.004,0,0.009,0,0.013,0
	c0.61,0.009,1.218,0.019,1.828,0.028c0.244,0.004,0.49,0.011,0.735,0.006c0.172-0.002,0.345-0.019,0.517-0.023
	c0.422-0.008,0.775,0.36,0.775,0.777c0,0.409-0.352,0.793-0.775,0.776c-0.439-0.021-0.875-0.015-1.314,0
	c-0.515,0.015-1.029,0.021-1.544,0.02c0.061,0.261,0.103,0.526,0.106,0.799c0.001,0.188-0.007,0.378-0.022,0.567
	c0.448,0.012,0.896,0.028,1.345,0.028c0.451-0.002,0.9-0.028,1.35-0.038c0.439-0.009,0.879-0.011,1.32-0.023
	c0.332-0.01,0.668-0.002,1-0.021c-0.007-0.065-0.019-0.129-0.023-0.193c-0.03-0.453,0.017-0.924,0.102-1.367
	c0.074-0.388,0.239-0.75,0.439-1.091c0.195-0.337,0.405-0.68,0.695-0.945c0.178-0.163,0.364-0.333,0.57-0.458
	c0.182-0.112,0.381-0.193,0.58-0.267c0.409-0.155,0.841-0.258,1.271-0.333c0.007-0.001,0.014-0.002,0.021-0.003
	c0.091-0.03,0.183-0.042,0.277-0.042c0.083,0,0.167,0.01,0.255,0.025c0.405,0.074,0.761,0.292,1.121,0.483
	C25.123,18.588,25.435,18.751,25.682,19.006z M29.298,22.428c-0.005-0.099-0.006-0.199-0.017-0.298
	c-0.054-0.38-0.13-0.755-0.212-1.129c-0.134,0.103-0.294,0.176-0.474,0.178c-0.577,0.006-1.154,0.007-1.732,0.005
	c0.005,0.037,0.015,0.068,0.019,0.106c0.028,0.278,0.019,0.559,0.008,0.839c-0.006,0.144-0.017,0.29-0.029,0.436
	C27.674,22.522,28.488,22.498,29.298,22.428z M20.37,10.643c0.059,0.318,0.091,0.65,0.104,0.974
	c0.013,0.295-0.028,0.585-0.044,0.879c-0.015,0.273-0.025,0.545-0.045,0.816c-0.023,0.288-0.045,0.627-0.208,0.873
	c-0.21,0.316-0.517,0.443-0.884,0.456c-0.292,0.01-0.58,0.038-0.867,0.07c-0.35,0.04-0.703,0.07-1.057,0.074
	c-0.186,0.002-0.371,0-0.557,0c-0.161-0.002-0.326,0.004-0.485-0.017c-0.316-0.042-0.659-0.104-0.869-0.377
	c-0.116-0.148-0.17-0.21-0.227-0.394c-0.03-0.099-0.04-0.206-0.051-0.307c-0.006-0.061-0.011-0.119-0.013-0.178
	c-0.009-0.161-0.028-0.318-0.044-0.477c-0.015-0.165-0.011-0.33-0.015-0.494c-0.011-0.75-0.074-1.5-0.083-2.252
	c-0.006-0.396,0.333-0.725,0.725-0.725c0.052,0,0.103,0.006,0.153,0.017c0.12-0.067,0.257-0.107,0.402-0.115
	c0.282-0.015,0.564-0.01,0.847-0.019c0.292-0.008,0.583-0.028,0.875-0.028c0.316,0,0.625,0.025,0.939,0.068
	c0.17,0.023,0.341,0.047,0.5,0.114c0.288,0.121,0.6,0.278,0.741,0.581C20.276,10.334,20.34,10.478,20.37,10.643z M18.853,12.495
	c-0.002-0.275-0.002-0.549-0.031-0.823c-0.026-0.166-0.057-0.33-0.105-0.491c-0.111-0.031-0.225-0.053-0.338-0.071
	c-0.128-0.016-0.256-0.031-0.384-0.032c-0.189-0.002-0.379,0-0.566,0.004c-0.317,0.006-0.636,0.001-0.953,0.016
	c0.005,0.171,0.015,0.342,0.036,0.51c0.048,0.371,0.073,0.743,0.114,1.115c0.024,0.161,0.049,0.32,0.072,0.48l0.001,0
	c-0.002-0.014-0.004-0.028-0.006-0.043c0.002,0.014,0.004,0.028,0.006,0.043c0.425,0.026,0.848,0.019,1.274-0.01
	c0.256-0.019,0.508-0.061,0.761-0.081c0.034-0.003,0.069-0.005,0.103-0.007C18.85,12.902,18.853,12.699,18.853,12.495z"/>
</svg>