<?xml version="1.0" encoding="utf-8"?>
<!-- Generator: Adobe Illustrator 21.1.0, SVG Export Plug-In . SVG Version: 6.00 Build 0)  -->
<svg version="1.1" id="designs" xmlns="http://www.w3.org/2000/svg" xmlns:xlink="http://www.w3.org/1999/xlink" x="0px" y="0px"
	 width="32px" height="32px" viewBox="0 0 32 32" style="enable-background:new 0 0 32 32;" xml:space="preserve">
<style type="text/css">
	.sketchy_een{fill:#111918;}
</style>
<path class="sketchy_een" d="M30,26.716c-0.016-0.728-0.014-1.456-0.016-2.186c-0.004-0.41-0.316-0.744-0.713-0.805
	c-0.036-0.219-0.156-0.407-0.332-0.534c-0.015-0.614-0.022-1.227-0.03-1.841c-0.01-0.839-0.018-1.679-0.023-2.52
	c-0.012-1.65-0.092-3.299-0.096-4.949c-0.002-1.434,0.022-2.867-0.014-4.299c-0.016-0.675-0.039-1.354-0.074-2.029
	c-0.022-0.411-0.067-0.816-0.125-1.225c-0.049-0.341-0.168-0.693-0.354-0.98c-0.207-0.321-0.442-0.626-0.708-0.902
	c-0.141-0.147-0.33-0.216-0.523-0.233c-0.107-0.051-0.222-0.086-0.347-0.093c-0.245-0.014-0.487-0.012-0.732-0.008
	c-0.133,0-0.266,0.002-0.397,0c-0.385-0.004-0.769-0.014-1.155-0.027c-0.812-0.028-1.626-0.047-2.44-0.069
	c-1.223-0.035-2.446-0.033-3.669-0.031c-0.407,0-0.814,0-1.221-0.002c-1.622-0.006-3.243-0.002-4.863-0.039
	c-0.834-0.02-1.665-0.051-2.497-0.078C8.87,3.839,8.07,3.823,7.272,3.786C6.442,3.749,5.61,3.741,4.779,3.737
	c-0.001,0-0.002,0-0.003,0c-0.433,0-0.793,0.365-0.793,0.796c0,0.006,0.004,0.012,0.004,0.018C3.749,4.835,3.522,5.137,3.467,5.51
	C3.432,5.75,3.401,5.993,3.381,6.236C3.352,6.578,3.36,6.926,3.364,7.269C3.37,7.975,3.375,8.682,3.375,9.388
	c0,0.726,0,1.454,0.029,2.178c0.029,0.738,0.098,1.469,0.117,2.207c0.01,0.344,0.012,0.691,0.02,1.035
	c0.003,0.161,0.065,0.303,0.15,0.428c0.035,0.288,0.22,0.529,0.483,0.632c0.002,0.06-0.006,0.118,0.008,0.178
	c0.053,0.233,0.114,0.464,0.158,0.698c0.011,0.194-0.005,0.384,0.042,0.58c0.074,0.325,0.342,0.558,0.646,0.663
	c0.196,0.067,0.419,0.057,0.624,0.057c0.524,0,1.045-0.047,1.57-0.037c-0.02,0.629-0.035,1.272,0.069,1.893
	c0.059,0.336,0.43,0.571,0.751,0.571c0.139,0,0.27-0.037,0.391-0.106c0.157-0.092,0.331-0.278,0.358-0.466
	c0.039-0.262,0.049-0.513,0.045-0.777c-0.005-0.359,0.015-0.716,0.033-1.073c0.532,0.019,1.07,0.104,1.602,0.067
	c0.217-0.016,0.409-0.076,0.566-0.235c0.009-0.009,0.013-0.023,0.022-0.033c0.451-0.017,0.809-0.388,0.814-0.837
	c0.004-0.339-0.006-0.679-0.016-1.019c0.045,0,0.09,0.002,0.135,0.002c0.009,0,0.017-0.005,0.026-0.005
	c0.117,0.018,0.238,0.015,0.353-0.016c0.442-0.123,0.71-0.595,0.589-1.037c-0.073-0.265-0.114-0.538-0.149-0.812
	c0.561-0.008,1.122-0.018,1.683-0.02c0.389-0.002,0.779-0.004,1.168,0.006c0.326,0.009,0.652,0.026,0.979,0.038
	c0.019,0.615,0.039,1.229,0.062,1.843c0.029,0.791,0.016,1.581,0.033,2.372c0.016,0.773,0.043,1.546,0.07,2.319
	c0.025,0.734,0.078,1.466,0.078,2.202c0,0.054,0,0.107,0,0.161c-1.111,0.008-2.223,0.018-3.334,0.02
	c-0.814,0.002-1.628,0.016-2.442,0.031c-0.836,0.018-1.667,0.067-2.501,0.108c-1.849,0.094-3.7,0.104-5.552,0.186
	c-0.329,0.015-0.616,0.208-0.737,0.497c-0.125,0.151-0.187,0.322-0.203,0.523C2.049,25.251,1.995,26.102,2,26.945
	c0.001,0.304,0.182,0.566,0.435,0.706c0.098,0.342,0.405,0.636,0.777,0.61c1.775-0.123,3.546-0.268,5.325-0.315
	c0.791-0.021,1.581-0.01,2.372-0.01c0.83,0,1.657-0.006,2.487-0.021c1.695-0.029,3.389-0.051,5.084-0.074
	c1.654-0.021,3.303-0.045,4.957-0.027c0.91,0.008,1.82,0.008,2.73,0.012c0.896,0.006,1.787-0.064,2.683-0.08
	c0.227-0.004,0.43-0.104,0.576-0.259C29.754,27.377,30.009,27.075,30,26.716z M9.256,16.515c-0.421,0-0.843-0.021-1.264-0.031
	c-0.432-0.01-0.865-0.014-1.299-0.012c-0.228,0-0.458,0.002-0.687-0.005c-0.026-0.182-0.065-0.36-0.1-0.54c0.031,0,0.063,0,0.094,0
	c0.832-0.004,1.661-0.008,2.495,0.01c0.565,0.013,1.129,0.025,1.694,0.035c0.012,0.183,0.015,0.366,0.016,0.549
	C9.888,16.524,9.571,16.515,9.256,16.515z M18.319,20.995c-0.031-0.783-0.033-1.566-0.039-2.348
	c-0.01-1.603-0.022-3.203-0.033-4.804c0-0.11-0.002-0.221-0.002-0.331c-0.006-0.444-0.368-0.814-0.814-0.814
	c-0.044,0-0.085,0.019-0.128,0.026c-0.111-0.062-0.233-0.107-0.367-0.112c-0.806-0.027-1.611-0.047-2.419-0.049
	c-0.869-0.002-1.738-0.028-2.607-0.031c-0.001,0-0.002,0-0.003,0c-0.435,0-0.799,0.367-0.799,0.804c0,0.032,0.015,0.06,0.019,0.091
	c-0.078,0.185-0.088,0.365-0.056,0.571c0.021,0.142,0.045,0.284,0.068,0.427c-0.258,0.002-0.517,0.008-0.775,0.011
	c-0.603,0.008-1.207,0.016-1.81,0.006c-1.162-0.018-2.324-0.04-3.486-0.06c-0.026-0.649-0.059-1.299-0.1-1.949
	c-0.047-0.736-0.041-1.474-0.041-2.211c0-0.742,0-1.481,0.01-2.223C4.945,7.343,4.925,6.686,4.99,6.03
	c0.001-0.015,0.003-0.03,0.005-0.045c0.01-0.066,0.023-0.132,0.038-0.198C5.117,5.631,5.22,5.489,5.33,5.343
	c0.003-0.004,0.002-0.01,0.004-0.015c0.693-0.005,1.386-0.011,2.078,0.013c0.806,0.03,1.612,0.035,2.417,0.059
	c1.624,0.047,3.25,0.08,4.875,0.1c1.634,0.02,3.268,0.02,4.902,0.035c0.806,0.008,1.611,0.012,2.415,0.039
	c0.814,0.029,1.628,0.082,2.442,0.112c0.36,0.014,0.718,0.028,1.078,0.037c0.28,0.009,0.56,0.015,0.839,0.025
	c0.089,0.094,0.176,0.19,0.259,0.292c0.078,0.102,0.158,0.204,0.22,0.316c0.065,0.197,0.111,0.396,0.149,0.602
	c0.083,0.734,0.11,1.47,0.15,2.207c0.043,0.818,0.068,1.638,0.074,2.46c0.012,1.618,0.022,3.239,0.08,4.857
	c0.023,0.64,0.053,1.28,0.068,1.92c0.014,0.605,0.012,1.209,0.014,1.814c0.002,0.941,0.008,1.882,0.006,2.824
	c-1.29,0.011-2.58,0.004-3.87,0.001c-0.839-0.002-1.679-0.02-2.52-0.02c-0.826,0-1.652,0.006-2.479,0.016
	c-0.052,0-0.104,0-0.157,0.001C18.365,22.356,18.348,21.676,18.319,20.995z M24.063,26.236c-1.663,0.01-3.327,0.033-4.99,0.064
	c-1.693,0.033-3.383,0.055-5.076,0.055c-0.822,0.002-1.644-0.002-2.466-0.006c-0.793-0.004-1.583,0.02-2.376,0.037
	c-0.969,0.02-1.937,0.035-2.906,0.069c-0.872,0.032-1.743,0.085-2.614,0.14c0.004-0.544,0.036-1.089,0.083-1.632
	c1.548-0.075,3.096-0.14,4.644-0.207c0.802-0.035,1.603-0.09,2.405-0.108c0.855-0.02,1.712-0.033,2.567-0.043
	c0.885-0.012,1.769-0.008,2.654-0.006c0.757,0.004,1.517,0.006,2.276-0.002c1.661-0.016,3.323-0.023,4.984,0.008
	c0.853,0.018,1.706,0.023,2.562,0.021c0.438,0,0.879-0.002,1.317,0.004c0.4,0.004,0.8,0.021,1.199,0.031
	c0.009,0.501,0.022,1.002,0.028,1.503c-0.623,0.019-1.245,0.048-1.868,0.058C25.677,26.236,24.871,26.23,24.063,26.236z
	 M19.508,10.047c0.086-0.139,0.157-0.28,0.221-0.431c0.084-0.199,0.153-0.391,0.196-0.604c0.035-0.176,0.065-0.356,0.055-0.536
	c-0.01-0.184-0.053-0.364-0.112-0.538c-0.065-0.196-0.147-0.395-0.264-0.568C19.475,7.184,19.33,7,19.131,6.884
	c-0.123-0.073-0.253-0.131-0.386-0.182c-0.154-0.157-0.371-0.253-0.608-0.27c-0.142-0.01-0.282-0.015-0.422-0.015
	c-0.349,0-0.692,0.035-1.036,0.135c-0.385,0.112-0.722,0.335-1.002,0.618c-0.159,0.162-0.288,0.362-0.413,0.552
	c-0.178,0.27-0.327,0.558-0.38,0.878c-0.084,0.513,0.023,1.064,0.339,1.483c0.196,0.262,0.409,0.462,0.681,0.648
	c0.19,0.129,0.427,0.215,0.638,0.292c0.569,0.206,1.162,0.104,1.728-0.051C18.792,10.829,19.221,10.508,19.508,10.047z
	 M18.381,8.573c-0.029,0.145-0.067,0.284-0.117,0.422c-0.058,0.113-0.121,0.22-0.191,0.326c-0.013,0.014-0.026,0.027-0.039,0.041
	c-0.04,0.026-0.08,0.049-0.122,0.072c-0.166,0.052-0.334,0.093-0.506,0.124c-0.073,0.005-0.143,0.005-0.214,0.002
	c-0.074-0.018-0.146-0.039-0.218-0.063c-0.086-0.043-0.169-0.088-0.25-0.14c-0.053-0.051-0.103-0.104-0.151-0.158
	c-0.024-0.037-0.046-0.074-0.067-0.112c-0.006-0.021-0.012-0.042-0.017-0.062c-0.002-0.041-0.003-0.083-0.003-0.125
	c0.01-0.04,0.021-0.079,0.032-0.119c0.07-0.136,0.156-0.263,0.247-0.387c0.054-0.06,0.108-0.117,0.167-0.173
	c0.036-0.024,0.073-0.047,0.111-0.069c0.084-0.027,0.168-0.048,0.255-0.066c0.234-0.017,0.464-0.008,0.697,0.009
	c0.088,0.039,0.173,0.08,0.256,0.127c0.023,0.037,0.045,0.075,0.066,0.114c0.025,0.074,0.047,0.148,0.064,0.223
	C18.381,8.562,18.381,8.568,18.381,8.573z M21.569,10.667c0.217,0.17,0.44,0.288,0.706,0.366c0.108,0.031,0.221,0.047,0.333,0.066
	c0.278,0.047,0.562,0.076,0.843,0.055c0.358-0.027,0.683-0.133,1.01-0.276c0.16-0.07,0.313-0.192,0.444-0.303
	c0.166-0.141,0.29-0.301,0.421-0.474c0.172-0.225,0.288-0.483,0.38-0.75c0.045-0.133,0.08-0.27,0.112-0.409
	c0.104-0.469,0.039-0.947-0.25-1.336c-0.121-0.164-0.254-0.313-0.399-0.458c-0.252-0.25-0.579-0.389-0.91-0.503
	c-0.076-0.026-0.153-0.035-0.23-0.032C23.904,6.506,23.72,6.41,23.552,6.41c-0.017,0-0.033,0.001-0.05,0.003
	c-0.589,0.072-1.215,0.146-1.671,0.571c-0.294,0.27-0.534,0.579-0.718,0.935c-0.096,0.188-0.178,0.387-0.247,0.589
	c-0.135,0.393-0.115,0.806,0.002,1.201C20.982,10.092,21.259,10.425,21.569,10.667z M22.487,8.807
	c0.086-0.186,0.181-0.366,0.298-0.534c0.052-0.059,0.105-0.115,0.163-0.168c0.006-0.003,0.011-0.007,0.017-0.01
	c0.129-0.038,0.259-0.065,0.393-0.088c0.048-0.006,0.097-0.012,0.145-0.017c0.061-0.007,0.119-0.015,0.174-0.027
	c0.059,0.035,0.123,0.064,0.192,0.09c0.017,0.007,0.034,0.014,0.051,0.021c0.073,0.035,0.144,0.072,0.213,0.115
	c0.076,0.073,0.147,0.15,0.214,0.231c0.011,0.016,0.021,0.032,0.031,0.048c0,0.02,0,0.039,0,0.059
	c-0.031,0.144-0.078,0.286-0.127,0.425c-0.054,0.107-0.115,0.208-0.184,0.305c-0.055,0.062-0.113,0.121-0.176,0.177
	c-0.047,0.031-0.095,0.061-0.146,0.088c-0.109,0.037-0.22,0.065-0.333,0.087c-0.11,0.007-0.218,0.004-0.328-0.005
	c-0.146-0.027-0.291-0.059-0.433-0.107C22.641,9.492,22.63,9.486,22.62,9.48c-0.066-0.062-0.128-0.127-0.187-0.194
	c-0.001-0.002-0.003-0.004-0.004-0.006c-0.01-0.037-0.02-0.073-0.028-0.11C22.4,9.144,22.4,9.118,22.4,9.093
	C22.424,8.996,22.453,8.901,22.487,8.807z M23.962,17.596c0,0.464-0.387,0.851-0.851,0.851c-0.464,0-0.851-0.387-0.851-0.851
	c0-0.464,0.388-0.851,0.851-0.851C23.574,16.744,23.962,17.132,23.962,17.596z M23.918,20.019c0,0.462-0.385,0.847-0.847,0.847
	c-0.462,0-0.847-0.385-0.847-0.847c0-0.462,0.385-0.847,0.847-0.847C23.532,19.172,23.918,19.557,23.918,20.019z"/>
</svg>