<?xml version="1.0" encoding="utf-8"?>
<!-- Generator: Adobe Illustrator 21.1.0, SVG Export Plug-In . SVG Version: 6.00 Build 0)  -->
<svg version="1.1" id="designs" xmlns="http://www.w3.org/2000/svg" xmlns:xlink="http://www.w3.org/1999/xlink" x="0px" y="0px"
	 width="32px" height="32px" viewBox="0 0 32 32" style="enable-background:new 0 0 32 32;" xml:space="preserve">
<style type="text/css">
	.sketchy_een{fill:#111918;}
</style>
<path class="sketchy_een" d="M29.85,10.825c-0.012-0.33-0.015-0.659-0.023-0.987c-0.019-0.728-0.015-1.455-0.012-2.183
	c0.002-0.691,0.008-1.38,0.029-2.07c0.023-0.745,0.094-1.488,0.154-2.231c0.018-0.224-0.088-0.426-0.249-0.572
	c-0.039-0.101-0.096-0.194-0.173-0.272c-0.133-0.132-0.361-0.255-0.555-0.23c-0.323,0.04-0.649,0.025-0.973,0.036
	c-0.33,0.013-0.66,0.013-0.991,0.023c-0.739,0.019-1.478,0.021-2.217,0.01c-0.351-0.004-0.703-0.002-1.052,0.002
	C23.402,2.356,23.016,2.36,22.63,2.35c-0.812-0.019-1.622-0.048-2.434-0.092c-0.012-0.001-0.024-0.001-0.035-0.001
	c-0.121,0-0.231,0.041-0.333,0.099c-0.028-0.003-0.053-0.022-0.081-0.022c-0.07,0-0.14,0.009-0.208,0.028
	c-0.217,0.06-0.348,0.192-0.474,0.365c-0.549,0.743-1.112,1.474-1.663,2.216c-0.463,0.623-0.918,1.251-1.387,1.869
	c-0.524,0.676-1.045,1.349-1.54,2.048c-0.445,0.63-0.885,1.267-1.342,1.889c-0.468,0.641-0.946,1.277-1.401,1.928
	c-0.463,0.662-0.91,1.332-1.357,2.004c-0.365,0.547-0.737,1.089-1.102,1.636C9.047,16.651,8.843,17,8.635,17.346
	c-0.072-0.081-0.143-0.163-0.216-0.244c-0.461-0.506-0.941-0.996-1.423-1.484c-0.015-0.177-0.078-0.35-0.215-0.487
	c-0.152-0.152-0.364-0.232-0.575-0.232c-0.204,0-0.407,0.075-0.552,0.232c-0.708,0.76-1.467,1.478-2.208,2.208
	c-0.288,0.283-0.299,0.738-0.067,1.056c0.034,0.114,0.087,0.222,0.18,0.307C3.909,19.02,4.253,19.348,4.57,19.7
	c0.281,0.31,0.542,0.638,0.801,0.966c0.204,0.271,0.406,0.544,0.623,0.805c-0.018,0.015-0.041,0.021-0.058,0.038
	c-0.303,0.305-0.603,0.616-0.916,0.914c-0.286,0.273-0.582,0.538-0.872,0.806c-0.344,0.317-0.687,0.632-1.019,0.958
	c-0.374,0.367-0.716,0.768-1.014,1.2c-0.164,0.24-0.13,0.547,0.009,0.793c-0.001,0.012-0.007,0.023-0.007,0.035
	c0,0.227,0.092,0.407,0.238,0.574c0.451,0.518,0.925,1.018,1.39,1.526c0.196,0.215,0.417,0.401,0.626,0.601
	c0.107,0.1,0.203,0.211,0.305,0.319c0.142,0.15,0.275,0.276,0.444,0.401c0.157,0.119,0.417,0.129,0.599,0.079
	c0.172-0.047,0.316-0.161,0.419-0.303c0.04-0.027,0.082-0.046,0.122-0.079c0.659-0.532,1.313-1.069,1.954-1.62
	c0.538-0.461,1.058-0.941,1.613-1.378c0.082-0.065,0.137-0.165,0.174-0.273c0.341,0.374,0.685,0.744,1.014,1.13
	c0.136,0.16,0.272,0.319,0.403,0.482c0.012,0.018,0.025,0.036,0.037,0.055c0.217,0.334,0.647,0.472,1.004,0.263
	c0.005-0.003,0.009-0.009,0.014-0.013c0.108-0.013,0.213-0.045,0.295-0.103c0.513-0.365,0.998-0.758,1.471-1.169
	c0.268-0.233,0.525-0.478,0.786-0.718c0.103-0.01,0.205-0.039,0.301-0.096c0.355-0.207,0.48-0.678,0.271-1.033
	c-0.09-0.155-0.23-0.298-0.351-0.432c-0.09-0.102-0.179-0.203-0.273-0.301c-0.211-0.221-0.413-0.447-0.622-0.67
	c-0.095-0.1-0.186-0.204-0.28-0.305c0.569-0.392,1.117-0.815,1.678-1.22c0.705-0.511,1.421-1.006,2.121-1.521
	c0.637-0.466,1.267-0.945,1.903-1.413c0.691-0.511,1.396-0.996,2.112-1.471c0.601-0.399,1.19-0.814,1.787-1.221
	c0.612-0.419,1.248-0.804,1.881-1.194c0.611-0.376,1.229-0.739,1.833-1.123c0.683-0.432,1.367-0.864,2.058-1.284
	c0.337-0.206,0.467-0.62,0.329-0.98c0.001-0.005,0.006-0.009,0.007-0.015C29.825,11.412,29.86,11.126,29.85,10.825z M8.001,25.923
	c-0.275,0.242-0.555,0.478-0.837,0.71c-0.523,0.431-1.065,0.839-1.602,1.254c-0.034-0.038-0.064-0.079-0.101-0.113
	c-0.088-0.083-0.188-0.152-0.278-0.232c-0.119-0.104-0.223-0.223-0.326-0.338c-0.385-0.428-0.76-0.867-1.134-1.304
	c0.017-0.023,0.033-0.047,0.049-0.07c0.227-0.272,0.453-0.544,0.703-0.796c0.278-0.282,0.559-0.566,0.845-0.843
	c0.551-0.53,1.124-1.038,1.687-1.557c0.436,0.511,0.864,1.028,1.313,1.528c0.248,0.275,0.501,0.545,0.745,0.826
	c0.017,0.02,0.035,0.04,0.052,0.061c-0.139,0.031-0.274,0.086-0.384,0.19C8.487,25.466,8.252,25.702,8.001,25.923z M11.307,25.302
	c-0.209-0.228-0.43-0.447-0.632-0.683c-0.221-0.261-0.449-0.516-0.676-0.774c-0.505-0.574-1.018-1.138-1.511-1.726
	c-0.478-0.57-1.004-1.102-1.469-1.684c-0.032-0.04-0.065-0.081-0.097-0.121c-0.339-0.444-0.68-0.886-1.024-1.322
	c-0.263-0.336-0.552-0.649-0.85-0.953c0.367-0.371,0.73-0.746,1.091-1.123c0.409,0.394,0.817,0.788,1.197,1.212
	c0.488,0.541,0.975,1.081,1.463,1.618c0.513,0.564,1.054,1.104,1.58,1.657c0.488,0.516,0.993,1.021,1.486,1.534
	c0.472,0.49,0.92,1.002,1.378,1.505c0.174,0.19,0.342,0.388,0.515,0.581c-0.364,0.313-0.738,0.617-1.111,0.917
	c-0.162,0.121-0.327,0.238-0.491,0.356c-0.06-0.07-0.115-0.144-0.174-0.214C11.762,25.82,11.539,25.557,11.307,25.302z
	 M26.323,12.837c-0.647,0.436-1.306,0.856-1.962,1.279c-0.71,0.455-1.417,0.92-2.114,1.396c-0.668,0.455-1.346,0.898-2.01,1.357
	c-1.213,0.841-2.377,1.747-3.575,2.609c-0.591,0.426-1.188,0.847-1.776,1.281c-0.301,0.223-0.603,0.442-0.91,0.657
	c-0.296,0.204-0.612,0.376-0.92,0.563c-0.016,0.009-0.024,0.025-0.039,0.035c-0.018-0.02-0.037-0.04-0.055-0.06
	c-0.309-0.33-0.632-0.648-0.952-0.968c0.004-0.004,0.011-0.006,0.015-0.01c0.549-0.655,1.125-1.294,1.762-1.864
	c0.595-0.532,1.148-1.104,1.709-1.67c0.566-0.572,1.121-1.156,1.691-1.722c0.607-0.601,1.231-1.181,1.839-1.776
	c0.562-0.549,1.117-1.104,1.69-1.641c0.587-0.553,1.185-1.096,1.759-1.665c1.125-1.114,2.289-2.187,3.454-3.258
	c0.299-0.278,0.278-0.781,0-1.062C25.785,6.174,25.588,6.1,25.391,6.1c-0.192,0-0.384,0.071-0.523,0.217
	c-0.534,0.561-1.108,1.087-1.676,1.613c-0.626,0.578-1.244,1.163-1.857,1.757c-0.572,0.555-1.167,1.085-1.753,1.626
	c-0.616,0.57-1.202,1.171-1.799,1.761c-0.566,0.562-1.16,1.098-1.732,1.655c-0.564,0.551-1.115,1.119-1.682,1.67
	c-0.57,0.557-1.133,1.115-1.741,1.628c-0.637,0.534-1.225,1.131-1.769,1.761c-0.057-0.061-0.114-0.121-0.171-0.182
	c-0.259-0.278-0.53-0.547-0.785-0.829c-0.066-0.074-0.132-0.149-0.198-0.223c0.337-0.599,0.684-1.191,1.056-1.769
	c0.401-0.622,0.812-1.236,1.213-1.858c0.442-0.683,0.891-1.357,1.355-2.026c0.465-0.668,0.95-1.323,1.427-1.981
	c0.536-0.742,1.051-1.497,1.593-2.232c0.63-0.804,1.268-1.599,1.903-2.399c0.651-0.823,1.312-1.639,1.952-2.471
	c0.809,0.034,1.617,0.029,2.426,0.021c0.737-0.008,1.473,0,2.21,0.012c0.365,0.006,0.73,0.029,1.094,0.025
	c0.374-0.004,0.749-0.015,1.123-0.013c0.33,0.002,0.66,0.002,0.991-0.004c0.114-0.001,0.227-0.007,0.341-0.012
	c-0.064,1.24-0.061,2.48-0.061,3.722c0.002,0.687,0.004,1.377,0.015,2.064c0.006,0.309,0.012,0.618,0.012,0.927
	c0.002,0.241,0.006,0.487-0.013,0.729c-0.001,0.008-0.003,0.017-0.004,0.025c-0.013,0.071-0.011,0.137-0.011,0.204
	C27.651,11.946,26.986,12.389,26.323,12.837z"/>
</svg>