<?xml version="1.0" encoding="utf-8"?>
<!-- Generator: Adobe Illustrator 21.1.0, SVG Export Plug-In . SVG Version: 6.00 Build 0)  -->
<svg version="1.1" id="designs" xmlns="http://www.w3.org/2000/svg" xmlns:xlink="http://www.w3.org/1999/xlink" x="0px" y="0px"
	 width="32px" height="32px" viewBox="0 0 32 32" style="enable-background:new 0 0 32 32;" xml:space="preserve">
<style type="text/css">
	.sketchy_een{fill:#111918;}
</style>
<path class="sketchy_een" d="M25.296,28.168c-0.053-0.333-0.108-0.665-0.153-1c0.001,0.008,0.002,0.016,0.003,0.024
	c-0.034-0.25-0.066-0.5-0.1-0.751c0,0.002,0.001,0.004,0.001,0.004c-0.001-0.009-0.003-0.021-0.004-0.032
	c-0.007-0.054-0.014-0.108-0.022-0.162c0.002,0.016,0.004,0.031,0.007,0.046c-0.082-0.628-0.154-1.258-0.243-1.886
	c-0.083-0.588-0.179-1.177-0.262-1.767c0.002,0.013,0.003,0.025,0.005,0.038c-0.002-0.013-0.003-0.026-0.005-0.039l0,0.001
	c0-0.001,0-0.001,0-0.001c-0.007-0.052-0.015-0.104-0.021-0.155c0.007,0.049,0.014,0.097,0.02,0.145
	c-0.332-2.639-0.493-5.295-0.846-7.93c-0.063-0.454-0.135-0.907-0.201-1.361c-0.071-0.556-0.113-1.112-0.134-1.672
	c-0.015-0.444-0.359-0.814-0.816-0.814c-0.008,0-0.014,0.004-0.022,0.005c-0.134-0.156-0.324-0.262-0.541-0.262
	c-0.003,0-0.006,0-0.01,0c-0.578,0.007-1.156,0.037-1.734,0.062c-0.066-0.335-0.141-0.668-0.197-1.004
	c-0.068-0.419-0.133-0.841-0.192-1.26c-0.132-1.02-0.23-2.045-0.371-3.064c0.004,0.03,0.008,0.059,0.012,0.089
	c-0.007-0.052-0.014-0.104-0.021-0.155c0.003,0.025,0.007,0.05,0.01,0.076c-0.094-0.718-0.183-1.44-0.276-2.158
	c-0.028-0.225-0.07-0.406-0.236-0.574c-0.054-0.055-0.122-0.089-0.189-0.125c-0.007-0.013-0.006-0.028-0.014-0.041
	c-0.094-0.161-0.281-0.331-0.474-0.363c-0.253-0.043-0.503-0.053-0.76-0.062C17.311,2.011,17.113,2,16.914,2
	c-0.446,0-0.894,0.028-1.339,0.049C15.116,2.072,14.659,2.106,14.2,2.1c-0.544-0.004-1.086-0.021-1.629-0.028
	c-0.427-0.007-0.782,0.359-0.782,0.78c0,0.01,0.005,0.018,0.006,0.028c-0.049,0.109-0.081,0.224-0.096,0.355
	c-0.096,0.856-0.178,1.713-0.27,2.569c-0.093,0.847-0.2,1.693-0.314,2.538c0.003-0.02,0.005-0.04,0.008-0.06
	c-0.1,0.761-0.18,1.523-0.278,2.282c-0.007,0.052-0.014,0.103-0.021,0.154c-0.58,0.002-1.16,0-1.741,0.014
	c-0.24,0.006-0.448,0.124-0.592,0.298c-0.055,0.033-0.114,0.061-0.161,0.107c-0.161,0.161-0.215,0.346-0.236,0.565
	c-0.076,0.822-0.161,1.642-0.255,2.462c-0.091,0.78-0.193,1.562-0.251,2.347c-0.117,1.545-0.219,3.091-0.34,4.636
	c-0.098,1.228-0.181,2.458-0.263,3.688c-0.076,1.157-0.139,2.318-0.28,3.469c-0.012,0.079-0.025,0.157-0.045,0.234
	c-0.149,0.365-0.005,0.805,0.341,1.007c0.034,0.02,0.074,0.023,0.111,0.037c0.088,0.073,0.189,0.131,0.293,0.149
	c0.839,0.149,1.681,0.166,2.532,0.189c0.754,0.019,1.508,0.04,2.261,0.055c0.965,0.021,1.933,0.019,2.9,0.017
	c0.482,0,0.967-0.002,1.451,0c0.686,0.004,1.372,0.013,2.057,0c0.712-0.013,1.423-0.028,2.135-0.019
	c0.601,0.01,1.202,0.008,1.802,0.008c0.68,0,1.357,0.015,2.029-0.1c0.05-0.008,0.095-0.044,0.143-0.069
	c0.1-0.014,0.197-0.046,0.294-0.095C25.585,29.436,25.373,28.658,25.296,28.168z M15.515,3.583c0.701-0.025,1.408-0.027,2.11,0.027
	c0.132,0.937,0.285,1.87,0.418,2.807c0.089,0.674,0.169,1.349,0.26,2.021c0.065,0.471,0.136,0.939,0.213,1.409
	c0.045,0.283,0.099,0.564,0.151,0.845c-0.326,0.003-0.652,0.013-0.977,0.013c-0.091-0.833-0.198-1.664-0.29-2.495
	c-0.106-0.964-0.176-1.931-0.263-2.896c-0.017-0.202-0.068-0.374-0.215-0.521c-0.138-0.14-0.329-0.217-0.523-0.217
	c-0.195,0-0.385,0.078-0.523,0.217c-0.127,0.126-0.234,0.336-0.215,0.521c0.093,0.965,0.193,1.931,0.293,2.896
	c0.088,0.833,0.191,1.667,0.288,2.5c-0.187,0-0.374,0-0.561,0.001c-0.15,0.001-0.299,0-0.449,0c0.131-0.117,0.258-0.324,0.247-0.508
	C15.432,9.468,15.455,8.735,15.47,8c0.01-0.416-0.288-0.782-0.715-0.807c-0.4-0.024-0.8,0.3-0.805,0.716
	c-0.01,0.736,0.009,1.471,0.048,2.206c0.01,0.205,0.044,0.375,0.186,0.535c0.022,0.025,0.054,0.039,0.08,0.061
	c-0.392,0-0.784,0.003-1.177,0c-0.225-0.002-0.451,0.002-0.676,0.002c0.058-0.541,0.111-1.082,0.181-1.622
	c0.246-1.818,0.477-3.638,0.692-5.46c0.297-0.001,0.594-0.002,0.892-0.004C14.623,3.623,15.069,3.598,15.515,3.583z M22.983,28.476
	c-0.348-0.002-0.695-0.002-1.043-0.009c-0.678-0.014-1.353-0.04-2.031-0.032c-0.769,0.007-1.538,0.026-2.309,0.028
	c-0.699,0-1.398,0-2.097,0.002c-1.179,0.004-2.358-0.006-3.535-0.059c-0.603-0.028-1.205-0.055-1.81-0.076
	c-0.583-0.019-1.166-0.022-1.745-0.085c-0.04-0.006-0.079-0.014-0.119-0.021c0.005-0.078,0.012-0.156,0.017-0.234
	c0.025-0.38,0.051-0.758,0.076-1.138c0.049-0.784,0.104-1.57,0.151-2.354c0.094-1.543,0.206-3.087,0.35-4.627
	c0.098-1.056,0.174-2.112,0.257-3.17c0.08-1.036,0.19-2.072,0.324-3.102c0.061-0.443,0.11-0.888,0.16-1.333
	c0.588-0.021,1.176-0.045,1.763-0.058c0.731-0.015,1.462-0.022,2.193-0.028c1.511-0.011,3.023-0.043,4.536-0.04
	c0.657,0.002,1.311-0.002,1.969-0.028c0.552-0.022,1.105-0.029,1.659-0.035c0.058,0.764,0.168,1.522,0.297,2.276
	c0.129,0.765,0.244,1.532,0.349,2.299c-0.003-0.025-0.006-0.05-0.009-0.075c0.006,0.046,0.012,0.091,0.018,0.137
	c0.003,0.021,0.006,0.042,0.009,0.064c-0.002-0.014-0.004-0.028-0.006-0.042c0.169,1.312,0.301,2.626,0.442,3.941
	c0.076,0.697,0.14,1.394,0.232,2.087c0.091,0.68,0.192,1.355,0.285,2.033c0.148,1.119,0.278,2.241,0.426,3.361
	c0.005,0.037,0.01,0.073,0.015,0.11c-0.001-0.005-0.001-0.011-0.002-0.017c0.002,0.014,0.004,0.027,0.005,0.041
	c-0.001-0.008-0.002-0.016-0.003-0.024c0.001,0.009,0.002,0.018,0.004,0.027c0.008,0.058,0.01,0.116,0.018,0.174
	C23.546,28.486,23.263,28.478,22.983,28.476z M25.042,26.415c-0.005-0.039-0.01-0.077-0.015-0.116
	c0.007,0.048,0.013,0.096,0.019,0.144C25.044,26.433,25.043,26.424,25.042,26.415z M23.697,14.868
	c-0.007-0.055-0.015-0.109-0.023-0.164c-0.002-0.015-0.004-0.029-0.006-0.044C23.678,14.729,23.688,14.798,23.697,14.868z
	 M22.405,16.736c-0.004-0.027-0.008-0.055-0.011-0.083c0.003,0.021,0.006,0.041,0.008,0.062
	C22.403,16.721,22.404,16.729,22.405,16.736z M24.522,22.645c0-0.003-0.001-0.007-0.001-0.011
	C24.521,22.637,24.521,22.64,24.522,22.645L24.522,22.645z M18.289,8.344c0.004,0.031,0.01,0.062,0.014,0.093
	c0.005,0.037,0.009,0.074,0.014,0.111C18.307,8.48,18.298,8.412,18.289,8.344z M19.627,21.75c0-0.707,0-1.412,0-2.118
	c0.002-0.682-0.015-1.364-0.019-2.048c-0.006-0.758,0.013-1.515,0.019-2.275c0.002-0.429-0.361-0.786-0.786-0.786
	c-0.077,0-0.148,0.023-0.22,0.045c-0.057-0.018-0.112-0.042-0.173-0.042c-0.016,0-0.032,0-0.048,0.002
	c-0.752,0.066-1.508,0.066-2.263,0.064c-0.147,0-0.295,0-0.442,0c-0.969,0-1.938-0.017-2.908-0.022
	c-0.265-0.002-0.491,0.148-0.627,0.359c-0.149,0.145-0.244,0.345-0.246,0.566c-0.017,1.441-0.019,2.883-0.034,4.324
	c-0.008,0.712-0.013,1.425-0.017,2.135c-0.003,0.567,0.005,1.136-0.009,1.703c-0.07,0.112-0.121,0.236-0.121,0.376
	c0,0.4,0.338,0.748,0.742,0.741c0.958-0.013,1.914-0.051,2.874-0.053c0.491,0,0.981,0.026,1.47,0.055
	c0.503,0.028,1.005,0.053,1.508,0.074c0.315,0.013,0.583-0.212,0.684-0.497c0.353-0.069,0.615-0.37,0.625-0.739
	c0.009-0.283-0.004-0.568-0.008-0.854C19.627,22.424,19.627,22.086,19.627,21.75z M15.46,23.289c-0.029,0-0.058,0-0.088,0
	c-0.463,0.004-0.924,0.016-1.387,0.014c-0.208,0-0.416-0.002-0.624-0.004c0.003-0.448,0.003-0.896,0.001-1.344
	c0-0.71,0.006-1.423,0.026-2.135c0.021-0.686,0.032-1.373,0.047-2.059c0.011-0.561,0.029-1.122,0.044-1.682
	c0.732-0.012,1.463-0.029,2.193-0.03c0.472,0,0.943,0.002,1.415,0c0.323-0.003,0.65-0.007,0.975-0.021
	c0.013,1.202,0.038,2.402,0.046,3.604c0.009,1.25,0.018,2.5-0.004,3.748C17.223,23.359,16.343,23.289,15.46,23.289z"/>
</svg>