<?xml version="1.0" encoding="utf-8"?>
<!-- Generator: Adobe Illustrator 21.1.0, SVG Export Plug-In . SVG Version: 6.00 Build 0)  -->
<svg version="1.1" id="designs" xmlns="http://www.w3.org/2000/svg" xmlns:xlink="http://www.w3.org/1999/xlink" x="0px" y="0px"
	 width="32px" height="32px" viewBox="0 0 32 32" style="enable-background:new 0 0 32 32;" xml:space="preserve">
<style type="text/css">
	.sketchy_een{fill:#111918;}
</style>
<path class="sketchy_een" d="M28.997,27.639c-0.061-0.57-0.077-1.139-0.085-1.713c-0.008-0.665-0.022-1.328-0.014-1.991
	c0.008-0.724,0.02-1.448,0.004-2.173c-0.016-0.752-0.032-1.501-0.034-2.251c-0.004-0.778-0.002-1.555-0.026-2.333
	c-0.024-0.809-0.069-1.618-0.112-2.427c-0.085-1.632-0.071-3.268-0.073-4.901c-0.004-1.936,0.034-3.872-0.093-5.805
	c-0.017-0.252-0.137-0.47-0.317-0.618c-0.153-0.217-0.396-0.365-0.682-0.376c-0.073-0.003-0.145-0.004-0.218-0.004
	c-0.171,0-0.342,0.007-0.512,0.012c-0.322,0.012-0.643,0.016-0.967,0.016c-0.716-0.004-1.432,0.014-2.147,0.018
	c-1.628,0.012-3.256,0.053-4.882,0.11c-0.776,0.028-1.553,0.02-2.328,0.032c-0.795,0.014-1.59,0.004-2.384-0.01
	c-1.64-0.028-3.281,0.002-4.921,0.004c-0.791,0.002-1.582,0.014-2.374,0.02c-0.89,0.008-1.78,0.006-2.67,0.053
	c-0.01,0-0.019,0.006-0.029,0.007c-0.096-0.044-0.2-0.072-0.31-0.072c-0.41,0-0.762,0.345-0.758,0.76
	C3.074,4.785,3.08,5.573,3.064,6.364C3.05,7.171,3.04,7.98,3.034,8.789c-0.008,1.399-0.053,2.8-0.026,4.199
	c0.014,0.773,0.053,1.549,0.069,2.324c0.016,0.752,0.045,1.504,0.061,2.255c0.018,0.736,0.03,1.472,0.041,2.208
	c0.012,0.665,0.037,1.332,0.036,1.999c0,0.999,0.01,1.999,0.002,2.999c-0.004,0.519-0.024,1.038-0.034,1.557
	c-0.01,0.477-0.055,0.955-0.067,1.432c-0.004,0.218,0.102,0.411,0.258,0.547c0.104,0.344,0.415,0.617,0.791,0.608
	c0.882-0.024,1.764-0.055,2.648-0.079c0.823-0.02,1.646-0.016,2.468-0.01c0.773,0.006,1.551,0.035,2.322,0.069
	c0.839,0.038,1.677,0.026,2.516,0.034c0.799,0.006,1.596,0.02,2.395,0.022c0.835,0.002,1.663-0.061,2.494-0.103
	c0.848-0.041,1.697-0.061,2.545-0.085c0.742-0.022,1.482-0.061,2.224-0.079c0.399-0.008,0.797-0.014,1.196-0.022
	c0.381-0.006,0.762-0.036,1.141-0.047c0.655-0.02,1.306,0.002,1.961-0.036c0.359-0.021,0.671-0.228,0.8-0.543
	C28.953,27.914,29.012,27.775,28.997,27.639z M26.116,26.932c-0.381,0.014-0.76,0.049-1.141,0.067
	c-0.399,0.02-0.797,0.025-1.196,0.035c-1.59,0.033-3.179,0.079-4.769,0.154c-0.831,0.039-1.661,0.093-2.494,0.097
	c-0.799,0.004-1.596,0.018-2.395,0.021c-1.614,0.004-3.224-0.057-4.838-0.061c-0.383,0-0.766,0.004-1.146,0.01
	c-0.442,0.004-0.882,0.01-1.322,0.006c-0.739-0.005-1.477-0.017-2.215-0.016c0.009-0.425,0.03-0.849,0.037-1.274
	c0.01-0.643,0.014-1.285,0.014-1.928c0.004-1.275-0.002-2.547-0.02-3.822c-0.01-0.72-0.004-1.44-0.008-2.161
	c-0.004-0.761-0.018-1.525-0.032-2.287c-0.014-0.752-0.012-1.504-0.039-2.255c-0.026-0.734-0.018-1.466-0.024-2.2
	c-0.01-1.135,0.002-2.269,0.004-3.404c0.001-0.993,0.023-1.984,0.039-2.975c0.768-0.05,1.537-0.101,2.305-0.124
	C7.721,4.79,8.565,4.793,9.412,4.793c1.634,0,3.264-0.027,4.897,0.01c1.588,0.035,3.181,0.028,4.771-0.018
	c1.612-0.045,3.224-0.047,4.836-0.065c0.335-0.004,0.671,0,1.006,0.004s0.671,0.008,1.008,0.004
	c0.241-0.002,0.483,0.004,0.726,0.008c0.117,0.003,0.234,0,0.351,0.001c0.047,0.683,0.089,1.366,0.105,2.052
	c0.02,0.849,0.028,1.699,0.028,2.549c0,1.644-0.045,3.289-0.008,4.933c0.02,0.789,0.055,1.576,0.079,2.366
	c0.022,0.787,0.02,1.573,0.02,2.36c0,1.474-0.002,2.948,0.002,4.424c0.004,0.775,0.01,1.551,0.038,2.326
	c0.01,0.31,0.014,0.62,0.028,0.927c0.004,0.075,0.012,0.148,0.018,0.223c-0.026,0.002-0.052,0.005-0.078,0.006
	C26.865,26.924,26.491,26.92,26.116,26.932z M10.926,24.268c0.156,0.156,0.243,0.369,0.243,0.588c0,0.434-0.377,0.853-0.831,0.831
	c-0.18-0.01-0.353,0.008-0.535,0.028c-0.278,0.03-0.556,0.061-0.837,0.083c-0.635,0.047-1.269,0.075-1.906,0.085
	c-0.47,0.006-0.86-0.397-0.86-0.862c0-0.118,0.025-0.231,0.07-0.334c0.001-0.009-0.003-0.019-0.001-0.028
	c0.045-0.333,0.039-0.683,0.051-1.018c0.02-0.606,0.024-1.216,0.032-1.821c0.004-0.428,0.353-0.785,0.783-0.785
	c0.42,0,0.797,0.357,0.785,0.785c-0.016,0.606-0.073,1.213-0.071,1.821c0,0.173-0.003,0.348-0.001,0.523
	c0.698,0.005,1.398,0.003,2.09-0.073c0.06-0.012,0.12-0.024,0.18-0.035c0.074-0.014,0.148-0.022,0.22-0.022
	C10.556,24.032,10.758,24.102,10.926,24.268z M10.739,6.37c-0.132,0-0.263,0.03-0.381,0.093C9.97,6.483,9.577,6.458,9.192,6.454
	C8.596,6.448,8.001,6.432,7.407,6.419C7.076,6.411,6.792,6.613,6.638,6.89C6.364,7.026,6.16,7.302,6.168,7.624
	c0.02,0.631,0.036,1.261,0.03,1.892c-0.002,0.274-0.006,0.546-0.018,0.821c-0.01,0.217-0.024,0.436-0.012,0.653
	c0.026,0.462,0.367,0.85,0.852,0.85c0.225,0,0.442-0.091,0.602-0.249c0.105-0.106,0.178-0.233,0.219-0.377
	c0.036-0.136,0.039-0.274,0.01-0.411c-0.04-0.429-0.043-0.857-0.039-1.288c0.004-0.441,0.006-0.882,0.007-1.322
	c0.557,0,1.115-0.003,1.674-0.024c0.243-0.01,0.487-0.022,0.732-0.04c0.324-0.024,0.665-0.038,0.955-0.197
	c0.401-0.221,0.529-0.764,0.302-1.15C11.326,6.518,11.032,6.37,10.739,6.37z M7.842,10.766c0-0.001,0-0.001-0.001-0.002
	c-0.002-0.016-0.004-0.032-0.006-0.047C7.838,10.733,7.84,10.75,7.842,10.766z M20.691,7.703c-0.152-0.154-0.239-0.363-0.239-0.58
	c0-0.217,0.087-0.428,0.239-0.58c0.164-0.164,0.357-0.223,0.58-0.241c0.452-0.035,0.904-0.071,1.356-0.099
	c0.388-0.022,0.778-0.04,1.166-0.075c0.196-0.031,0.391-0.067,0.59-0.093c0.017-0.002,0.035-0.003,0.052-0.003
	c0.186,0,0.395,0.117,0.518,0.24c0.031,0.031,0.047,0.073,0.072,0.108c0.34,0.106,0.585,0.414,0.593,0.785
	c0.018,0.677,0.014,1.354,0.002,2.03c-0.007,0.353,0.009,0.698,0.043,1.047c0.032,0.137,0.03,0.273-0.005,0.41
	c-0.039,0.138-0.109,0.256-0.209,0.359c-0.152,0.152-0.361,0.237-0.576,0.237c-0.213,0-0.422-0.087-0.574-0.237
	c-0.138-0.14-0.258-0.373-0.239-0.576c0.016-0.156,0.006-0.314,0.002-0.47c-0.008-0.257-0.018-0.513-0.028-0.77
	c-0.022-0.512-0.043-1.023-0.064-1.535c-0.081,0.002-0.163-0.001-0.244,0.007c-0.245,0.022-0.489,0.051-0.734,0.083
	c-0.572,0.069-1.146,0.136-1.721,0.194C21.066,7.963,20.833,7.843,20.691,7.703z M25.661,23.433c-0.02,0.324-0.068,0.66-0.052,0.987
	c0.108,0.236,0.095,0.516-0.037,0.741c-0.179,0.305-0.548,0.458-0.893,0.371c-0.15,0.138-0.349,0.226-0.568,0.237
	c-0.339,0.018-0.685,0.014-1.026,0.014c-0.683,0-1.363-0.012-2.046-0.053c-0.481-0.028-0.884-0.379-0.884-0.884
	c0-0.437,0.373-0.886,0.83-0.886c0.018,0,0.036,0.001,0.054,0.002c0.541,0.041,1.083,0.073,1.624,0.104
	c0.229,0.012,0.458,0.03,0.687,0.045c0.122,0.009,0.251,0.029,0.374,0.024c0.128-0.017,0.256-0.029,0.387-0.028
	c0.003,0,0.005,0.001,0.008,0.002c0.015-0.248,0.035-0.496,0.038-0.744c0.004-0.517,0.002-1.032,0.012-1.549
	c0.01-0.426,0.349-0.783,0.783-0.783c0.414,0,0.797,0.357,0.781,0.783C25.716,22.356,25.697,22.895,25.661,23.433z"/>
</svg>