<?xml version="1.0" encoding="utf-8"?>
<!-- Generator: Adobe Illustrator 21.1.0, SVG Export Plug-In . SVG Version: 6.00 Build 0)  -->
<svg version="1.1" id="designs" xmlns="http://www.w3.org/2000/svg" xmlns:xlink="http://www.w3.org/1999/xlink" x="0px" y="0px"
	 width="32px" height="32px" viewBox="0 0 32 32" style="enable-background:new 0 0 32 32;" xml:space="preserve">
<style type="text/css">
	.sketchy_een{fill:#111918;}
</style>
<path class="sketchy_een" d="M29.972,23.754c-0.015-0.055-0.05-0.102-0.076-0.152c-0.025-0.337-0.022-0.679-0.034-1.016
	c-0.013-0.381-0.023-0.765-0.034-1.146c-0.021-0.793-0.042-1.584-0.04-2.375c0.002-0.769,0.032-1.533,0.06-2.3
	c0.03-0.785,0.032-1.573,0.032-2.358c0-1.091-0.042-2.183-0.032-3.274c0.009-1.103,0.025-2.207-0.025-3.31
	c-0.019-0.446-0.359-0.82-0.82-0.82c-0.229,0-0.45,0.112-0.607,0.28c-0.114-0.062-0.238-0.107-0.375-0.109
	c-0.376-0.004-0.753-0.019-1.129-0.019c-0.38,0-0.759,0.015-1.139,0.025c-0.751,0.017-1.505,0.013-2.256,0.021
	c-1.531,0.019-3.061,0.032-4.59-0.008c-1.622-0.042-3.246-0.019-4.868-0.011c-0.667,0.004-1.333,0.002-1.998,0
	c-0.921-0.004-1.843-0.006-2.764,0.002c-0.948,0.01-1.894,0.021-2.842,0.021c-1.003,0-2.005-0.034-3.01-0.045
	c-0.046-0.001-0.086,0.018-0.13,0.026C3.159,7.074,2.992,6.997,2.807,6.997c-0.438,0-0.793,0.363-0.797,0.797
	c-0.008,0.85,0.008,1.698,0.051,2.545c0.04,0.791,0.055,1.582,0.06,2.375c0.006,0.772,0.006,1.544,0.021,2.317
	c0.003,0.177,0.012,0.354,0.018,0.531C2.065,15.692,2,15.843,2,16.006c0,0.181,0.074,0.352,0.191,0.49
	c0.012,0.312,0.025,0.625,0.031,0.937c0.015,0.78,0.038,1.561,0.057,2.342c-0.016,0.063-0.04,0.125-0.04,0.19
	c0,0.085,0.024,0.161,0.048,0.236c0.005,0.264,0.014,0.528,0.016,0.792c0.004,0.561-0.009,1.122-0.009,1.682
	c0,0.244-0.004,0.487-0.002,0.733c0,0.274,0.008,0.551-0.023,0.825c-0.023,0.193,0.094,0.414,0.225,0.546
	c0.143,0.144,0.342,0.225,0.546,0.225c0.272,0,0.484-0.145,0.62-0.349c1.202-0.062,2.404-0.088,3.607-0.1
	c0.029-0.001,0.056,0.003,0.084-0.001c0.343-0.003,0.686-0.01,1.029-0.012c0.816-0.006,1.631,0.042,2.447,0.066
	c0.804,0.024,1.609,0.03,2.413,0.034c0.415,0.002,0.831,0,1.246-0.002c0.417-0.002,0.833-0.004,1.248-0.002
	c0.791,0.002,1.582,0.038,2.373,0.058c0.78,0.021,1.562,0.017,2.343,0.021c0.793,0.002,1.586,0.025,2.379,0.045
	c1.08,0.028,2.162,0.038,3.242,0.045c0.536,0.004,1.071,0.002,1.605,0.009c0.576,0.006,1.157,0.019,1.728-0.062
	c0.196-0.028,0.391-0.211,0.485-0.374C29.998,24.192,30.029,23.963,29.972,23.754z M27.955,18.915
	c-0.369,0.048-0.734,0.089-1.105,0.102c-0.199,0.007-0.398,0.016-0.597,0.025c-0.002-0.841-0.019-1.683-0.049-2.524
	c0.361,0.004,0.722,0.006,1.083,0.012c0.236,0.005,0.474,0.011,0.712,0.011c0.118,0,0.239,0.003,0.36,0.002
	c-0.004,0.271-0.001,0.542-0.009,0.813c-0.014,0.501-0.021,1.002-0.027,1.503C28.202,18.885,28.078,18.9,27.955,18.915z
	 M3.807,23.019c-0.002-0.307-0.002-0.613-0.007-0.919c-0.008-0.438-0.018-0.876-0.026-1.314c0.65,0.016,1.301,0.031,1.951,0.026
	c0.219,0,0.437,0.001,0.656,0.001c0.004,0.108,0.012,0.215,0.015,0.323c0.015,0.489,0.008,0.976,0.011,1.465
	c0.001,0.129-0.01,0.256-0.016,0.383C5.53,22.989,4.668,22.991,3.807,23.019z M28.33,12.865c0.022,0.675,0.038,1.351,0.043,2.027
	c-0.021,0.001-0.042,0.001-0.063,0.002c-0.185,0.009-0.37,0.006-0.555,0.006c-0.346,0.002-0.693,0.015-1.039,0.023
	c-0.196,0.004-0.391,0.007-0.586,0.01c-0.037-0.52-0.07-1.038-0.116-1.557c-0.015-0.165-0.014-0.33-0.025-0.495
	c0.72,0.004,1.441,0.006,2.16,0.02C28.212,12.902,28.27,12.879,28.33,12.865z M24.537,12.987c0.015,0.657,0.058,1.314,0.083,1.971
	c-0.126,0.003-0.251,0.002-0.377,0.006c-0.568,0.02-1.134,0.042-1.701,0.061c-0.011-0.235-0.019-0.471-0.031-0.706
	c-0.024-0.477-0.022-0.954-0.027-1.432c0.05,0,0.1,0.001,0.15,0.001c0.634,0,1.268-0.006,1.902-0.01
	C24.537,12.914,24.536,12.951,24.537,12.987z M21.081,15.06c-0.586,0.006-1.171,0.01-1.757,0.025
	c-0.149,0.004-0.297,0.012-0.446,0.018c-0.038-0.748-0.073-1.496-0.1-2.244c0.505,0.004,1.011,0.007,1.516,0.013
	c0.253,0.003,0.505,0.003,0.758,0.005c-0.001,0.16-0.001,0.32-0.001,0.48C21.05,13.926,21.066,14.493,21.081,15.06z M17.377,13.055
	c0.012,0.702,0.022,1.404,0.035,2.106c-0.139,0.006-0.279,0.011-0.418,0.017c-0.57,0.022-1.14,0.033-1.71,0.046
	c-0.021-0.572-0.038-1.143-0.075-1.715c-0.016-0.249-0.028-0.498-0.042-0.746c0.734,0.027,1.469,0.05,2.204,0.07
	C17.371,12.907,17.376,12.98,17.377,13.055z M13.668,12.987c0.035,0.754,0.065,1.508,0.079,2.261
	c-0.856,0.006-1.713,0.016-2.569,0.026c-0.013-0.231-0.031-0.462-0.041-0.693c-0.027-0.617-0.062-1.233-0.089-1.85
	c0.666-0.012,1.333-0.022,1.999-0.021c0.206,0,0.412,0.012,0.618,0.015C13.666,12.813,13.664,12.9,13.668,12.987z M9.717,13.256
	c0.037,0.681,0.052,1.362,0.072,2.041c-0.057,0.002-0.115,0.001-0.172,0.003c-0.697,0.025-1.396,0.031-2.095,0.044
	c-0.003-0.147-0.005-0.294-0.009-0.441c-0.017-0.686-0.049-1.371-0.069-2.057c0.262-0.016,0.523-0.033,0.785-0.042
	c0.488-0.017,0.977-0.028,1.466-0.042C9.704,12.927,9.708,13.092,9.717,13.256z M6.224,17.936c0.026,0.439,0.053,0.878,0.08,1.317
	c-0.855-0.01-1.71-0.036-2.564-0.074c-0.018-0.627-0.036-1.254-0.046-1.882c-0.003-0.162-0.009-0.323-0.014-0.484
	c0.096,0.001,0.191,0.003,0.287,0.003c0.415,0,0.831-0.002,1.246-0.004c0.327-0.002,0.654-0.005,0.981-0.005
	C6.196,17.184,6.202,17.56,6.224,17.936z M3.634,14.984c-0.004-0.67-0.002-1.34-0.002-2.01c0.759-0.009,1.518-0.019,2.276-0.045
	c0.064-0.002,0.128-0.008,0.192-0.01c0.005,0.101,0.006,0.202,0.012,0.302c0.044,0.716,0.074,1.432,0.08,2.149
	c-0.847-0.002-1.702,0.007-2.55-0.045C3.64,15.211,3.635,15.098,3.634,14.984z M6.041,10.825c0.005,0.206,0.009,0.411,0.013,0.617
	c-0.812,0.003-1.622-0.009-2.434-0.014c-0.013-0.593-0.029-1.187-0.035-1.78C3.581,9.329,3.59,9.009,3.595,8.69
	C4.387,8.687,5.178,8.672,5.97,8.654C5.986,9.378,6.024,10.101,6.041,10.825z M7.763,19.258c-0.066-0.667-0.151-1.334-0.187-2.004
	c-0.008-0.151-0.01-0.303-0.015-0.454c0.021,0,0.042,0,0.062,0c0.737-0.015,1.474-0.02,2.21-0.032
	c0.007,0.35,0.003,0.698,0.016,1.047c0.013,0.395,0.066,0.789,0.104,1.182c0.007,0.086,0.009,0.174,0.012,0.262
	c-0.496,0-0.993-0.003-1.489,0.002C8.238,19.263,8.001,19.257,7.763,19.258z M11.514,19.264c-0.02-0.124-0.04-0.248-0.058-0.373
	c-0.082-0.665-0.141-1.332-0.183-2c-0.003-0.048-0.005-0.096-0.008-0.144c0.394-0.004,0.789-0.015,1.183-0.017
	c0.447-0.002,0.893-0.02,1.34-0.025c0.013,0.23,0.029,0.459,0.035,0.69c0.015,0.628,0.028,1.261,0.004,1.89
	c-0.144,0.001-0.288,0.003-0.432,0.004C12.768,19.291,12.141,19.277,11.514,19.264z M15.363,19.271
	c-0.019-0.481-0.014-0.962-0.013-1.443c0.001-0.385-0.015-0.768-0.024-1.152c0.696-0.015,1.392-0.016,2.087-0.039
	c0.013,0,0.027,0,0.04-0.001c0.009,0.282,0.013,0.564,0.024,0.846c0.013,0.355,0.025,0.712,0.038,1.067
	c0.007,0.235,0.029,0.469,0.038,0.703C16.823,19.261,16.093,19.266,15.363,19.271z M19.083,19.226
	c-0.021-0.225-0.042-0.451-0.059-0.677c-0.026-0.355-0.028-0.712-0.045-1.067c-0.014-0.296-0.026-0.592-0.037-0.888
	c0.284-0.008,0.568-0.021,0.853-0.023c0.346-0.002,0.691-0.002,1.037-0.002c0.091,0,0.182-0.002,0.273-0.001
	c0.009,0.476,0.024,0.952,0.02,1.429c-0.002,0.153-0.004,0.304,0.011,0.457c0.015,0.157,0.036,0.315,0.047,0.474
	c0.005,0.087,0.029,0.167,0.057,0.246c-0.127,0.001-0.253,0.004-0.38,0.005C20.266,19.187,19.675,19.209,19.083,19.226z
	 M22.706,18.72c-0.003-0.018-0.007-0.035-0.01-0.053c-0.075-0.662-0.06-1.327-0.083-1.992c-0.001-0.041-0.004-0.082-0.005-0.123
	c0.447-0.011,0.894-0.024,1.34-0.034c0.239-0.005,0.478-0.004,0.718-0.004c0.009,0.337,0.019,0.674,0.026,1.012
	c0.012,0.524,0.009,1.048,0.011,1.572c-0.437,0.015-0.873,0.032-1.311,0.045c-0.233,0.007-0.466,0.006-0.699,0.01
	C22.731,19.016,22.734,18.87,22.706,18.72z M28.023,8.771c0.069,0.002,0.132-0.021,0.197-0.038c0.025,0.514,0.056,1.028,0.063,1.542
	c0.005,0.338,0.013,0.676,0.018,1.014c-0.051-0.009-0.099-0.031-0.153-0.028c-0.425,0.025-0.852,0.015-1.276,0.021
	c-0.312,0.003-0.623,0.011-0.934,0.018c0.01-0.845,0.038-1.691,0.057-2.536c0.235-0.006,0.471-0.013,0.706-0.012
	C27.142,8.756,27.581,8.76,28.023,8.771z M24.487,8.774c0.011,0.625,0.025,1.25,0.036,1.875c0.004,0.228,0.003,0.455,0.004,0.682
	c-0.384,0.009-0.768,0.017-1.151,0.025c-0.307,0.007-0.613,0.005-0.919,0.004c-0.003-0.551-0.002-1.101-0.025-1.651
	c-0.013-0.317-0.032-0.632-0.058-0.946c0.121,0.001,0.241,0.007,0.362,0.008C23.321,8.776,23.904,8.774,24.487,8.774z M20.843,8.73
	c0.004,0.025,0.008,0.051,0.011,0.076c0.092,0.752,0.146,1.514,0.179,2.27c0.004,0.095,0.003,0.192,0.005,0.288
	c-0.765,0.009-1.53,0.02-2.296,0.011c-0.004-0.213-0.014-0.425-0.015-0.637c-0.005-0.685,0.014-1.369-0.002-2.053
	C19.431,8.705,20.137,8.716,20.843,8.73z M16.473,8.658c0.233-0.001,0.465,0.004,0.698,0.005c0.023,0.285,0.049,0.57,0.066,0.857
	c0.025,0.406,0.045,0.812,0.062,1.218c0.009,0.201,0.012,0.402,0.02,0.603c-0.727-0.02-1.454-0.033-2.181-0.051
	c0-0.046-0.001-0.093,0-0.14c0.008-0.833,0.025-1.666,0.018-2.498c0.157,0.001,0.315,0.003,0.472,0.004
	C15.909,8.658,16.192,8.658,16.473,8.658z M13.182,8.635c0.133,0.001,0.265,0.002,0.397,0.003c0.027,0.688,0.053,1.376,0.067,2.064
	c0.004,0.186,0.002,0.372,0.002,0.558c-0.109-0.001-0.219-0.001-0.328-0.002c-0.766,0-1.532,0.014-2.298,0.031
	c0.008-0.461,0.022-0.923,0.038-1.384c0.014-0.428,0.029-0.854,0.043-1.28C11.797,8.63,12.49,8.629,13.182,8.635z M9.59,8.62
	c-0.01,0.901,0.008,1.803,0.041,2.706c-0.211,0.006-0.422,0.011-0.633,0.016c-0.521,0.012-1.041,0.038-1.561,0.062
	c0.025-0.925,0.068-1.85,0.077-2.774c0.298-0.004,0.597-0.014,0.895-0.015C8.803,8.614,9.196,8.619,9.59,8.62z M21.864,23.195
	c-0.795-0.021-1.59-0.01-2.385-0.017c-1.596-0.017-3.191-0.093-4.787-0.094c-0.816,0-1.629,0.011-2.443-0.002
	C11.428,23.067,10.607,23.04,9.786,23c-0.493-0.023-0.987-0.031-1.481-0.031c-0.111,0-0.222,0.002-0.334,0.003
	c-0.002-0.064-0.01-0.128-0.01-0.192c-0.002-0.342-0.015-0.68-0.034-1.02c-0.018-0.317-0.04-0.633-0.057-0.95
	c0.062,0,0.124,0,0.185,0c0.825-0.011,1.648-0.032,2.475-0.026c0.816,0.008,1.63,0.028,2.445,0.021
	c0.746-0.006,1.492-0.004,2.237-0.004c0.887,0.002,1.777,0.004,2.666-0.01c0.855-0.01,1.713-0.055,2.568-0.074
	c0.853-0.019,1.707-0.015,2.558-0.024c0.569-0.006,1.139-0.006,1.709-0.011c0,0.503-0.004,1.005-0.005,1.508
	c-0.001,0.354-0.005,0.708-0.018,1.062c-0.155,0-0.311,0.001-0.466,0C23.439,23.244,22.652,23.216,21.864,23.195z M26.598,23.253
	c-0.112,0-0.224,0-0.335,0c-0.006-0.14-0.014-0.281-0.015-0.419c-0.004-0.382-0.002-0.763,0-1.146
	c0.001-0.348,0.002-0.698,0.005-1.047c0.329-0.013,0.658-0.024,0.987-0.04c0.247-0.013,0.495-0.038,0.742-0.059
	c0.115-0.01,0.231-0.017,0.346-0.025c0,0.011,0,0.022,0,0.033c0.033,0.89,0.043,1.781,0.053,2.671
	c-0.191,0.006-0.383,0.019-0.573,0.022C27.404,23.253,27,23.253,26.598,23.253z"/>
</svg>