<?xml version="1.0" encoding="utf-8"?>
<!-- Generator: Adobe Illustrator 21.1.0, SVG Export Plug-In . SVG Version: 6.00 Build 0)  -->
<svg version="1.1" id="designs" xmlns="http://www.w3.org/2000/svg" xmlns:xlink="http://www.w3.org/1999/xlink" x="0px" y="0px"
	 width="32px" height="32px" viewBox="0 0 32 32" style="enable-background:new 0 0 32 32;" xml:space="preserve">
<style type="text/css">
	.sketchy_een{fill:#111918;}
</style>
<path class="sketchy_een" d="M8.107,16.281c0.002,0.002,0.004,0.005,0.006,0.008c-0.009-0.012-0.018-0.024-0.027-0.036
	C8.093,16.262,8.1,16.272,8.107,16.281z M8.113,16.289c0.005,0.006,0.01,0.013,0.015,0.019c-0.003-0.004-0.006-0.008-0.01-0.013
	C8.116,16.293,8.114,16.291,8.113,16.289z M28.057,10.417c-0.002,0.066,0,0.13-0.01,0.201c-0.055,0.395-0.268,0.768-0.424,1.129
	c-0.073,0.17-0.148,0.345-0.231,0.507c-0.087,0.166-0.201,0.318-0.302,0.474c-0.136,0.211-0.3,0.401-0.468,0.585
	c-0.166,0.178-0.332,0.361-0.503,0.535c-0.18,0.185-0.349,0.387-0.543,0.557c-0.215,0.188-0.424,0.383-0.645,0.568
	c-0.531,0.442-1.054,0.888-1.601,1.309c0.055-0.041,0.107-0.083,0.162-0.124c-0.484,0.393-0.914,0.837-1.364,1.267
	c-0.499,0.474-1.007,0.938-1.506,1.413c-0.3,0.284-0.602,0.557-0.926,0.817c-0.302,0.241-0.606,0.48-0.898,0.734
	c-0.632,0.547-1.275,1.084-1.887,1.654c-0.651,0.602-1.283,1.22-1.915,1.838c-0.551,0.54-1.137,1.039-1.631,1.636
	c-0.227,0.309-0.444,0.624-0.681,0.924c-0.246,0.313-0.498,0.622-0.747,0.935c-0.345,0.454-0.685,0.914-1.041,1.362
	c-0.345,0.434-0.677,0.906-1.111,1.259c-0.231,0.186-0.47,0.391-0.746,0.515c-0.274,0.124-0.551,0.227-0.839,0.314
	c-0.545,0.168-1.174,0.239-1.735,0.101c-0.316-0.079-0.628-0.229-0.914-0.387c-0.426-0.233-0.833-0.59-1.09-1.005
	c-0.217-0.351-0.375-0.756-0.48-1.153c-0.071-0.273-0.122-0.565-0.103-0.851c0.016-0.247,0.034-0.503,0.099-0.742
	c0.12-0.432,0.278-0.88,0.486-1.277c0.215-0.409,0.523-0.752,0.829-1.094c0.276-0.308,0.578-0.59,0.88-0.874
	c0.322-0.301,0.651-0.585,0.998-0.856c0.522-0.399,1.056-0.778,1.578-1.173c-0.013,0.01-0.026,0.021-0.039,0.031
	c0.494-0.384,0.988-0.767,1.491-1.138c0.059-0.045,0.118-0.091,0.176-0.137c-0.057,0.045-0.114,0.087-0.17,0.132
	c0.163-0.133,0.291-0.284,0.42-0.448c0.032-0.042,0.066-0.082,0.095-0.126c0.061-0.09,0.1-0.19,0.151-0.284
	c-0.407-0.486-0.811-0.975-1.228-1.453c-0.235-0.268-0.492-0.511-0.732-0.776c-0.283-0.317-0.527-0.669-0.783-1.007
	c0.029,0.038,0.059,0.076,0.088,0.113c-0.032-0.042-0.065-0.084-0.097-0.126c-0.004-0.005-0.007-0.01-0.011-0.014
	c-0.1-0.13-0.201-0.26-0.293-0.397c-0.074-0.109-0.144-0.221-0.221-0.33c-0.126-0.153-0.256-0.304-0.355-0.475
	c-0.166-0.284-0.296-0.584-0.416-0.89c-0.105-0.265-0.237-0.539-0.302-0.819c-0.079-0.338-0.067-0.687,0.051-1.02
	c0.105-0.298,0.261-0.565,0.488-0.788c0.209-0.205,0.464-0.353,0.742-0.442c0.228-0.074,0.477-0.124,0.722-0.124
	c0.174,0,0.346,0.025,0.508,0.085c0.486,0.18,0.88,0.547,1.253,0.9c0.32,0.302,0.624,0.626,0.93,0.945
	c0.282,0.292,0.559,0.588,0.839,0.88c0.284,0.296,0.549,0.606,0.829,0.902c0.284,0.3,0.561,0.6,0.831,0.912
	c0.118,0.135,0.232,0.275,0.35,0.412c0.149-0.133,0.298-0.266,0.447-0.399c0.04-0.036,0.079-0.074,0.119-0.111
	c-0.247-0.265-0.492-0.531-0.742-0.794c-0.399-0.416-0.774-0.853-1.176-1.269c-0.413-0.428-0.839-0.843-1.236-1.289
	c-0.468-0.527-0.926-1.06-1.382-1.599c-0.162-0.188-0.266-0.385-0.266-0.641c0-0.241,0.095-0.472,0.266-0.642
	c0.168-0.17,0.401-0.266,0.64-0.266c0.221,0,0.497,0.089,0.643,0.266c0.45,0.545,0.886,1.103,1.33,1.652
	c0.377,0.464,0.788,0.894,1.202,1.323c0.397,0.417,0.776,0.853,1.174,1.271c0.262,0.277,0.524,0.555,0.789,0.831
	c0.162-0.152,0.323-0.307,0.49-0.454c-0.658-0.798-1.355-1.564-2.025-2.352c-0.803-0.944-1.63-1.86-2.538-2.708
	c-0.349-0.324-0.328-0.906,0-1.234c0.169-0.169,0.389-0.251,0.609-0.251c0.225,0,0.45,0.085,0.623,0.251
	c0.955,0.922,1.786,1.968,2.645,2.979c0.389,0.458,0.79,0.908,1.182,1.364c0.219,0.257,0.436,0.515,0.653,0.774
	c0.021,0.025,0.044,0.051,0.065,0.076c0.181-0.167,0.365-0.331,0.548-0.496c-0.631-0.726-1.291-1.426-1.911-2.162
	c-0.815-0.971-1.64-1.936-2.469-2.895c-0.158-0.184-0.261-0.379-0.261-0.628c0-0.235,0.095-0.462,0.261-0.628
	c0.166-0.166,0.393-0.262,0.628-0.262c0.217,0,0.482,0.089,0.628,0.262c0.563,0.669,1.092,1.365,1.624,2.057
	c0.498,0.635,0.992,1.274,1.546,1.862c0.393,0.417,0.775,0.842,1.163,1.263c0.144-0.137,0.291-0.271,0.435-0.409
	c-0.053-0.065-0.104-0.133-0.159-0.196c-0.292-0.334-0.6-0.655-0.888-0.991c-0.61-0.712-1.163-1.467-1.731-2.21
	c0.008,0.01,0.015,0.02,0.022,0.03c-0.48-0.606-0.967-1.204-1.496-1.767c-0.312-0.334-0.33-0.857,0-1.188
	c0.16-0.158,0.387-0.244,0.611-0.244c0.214,0,0.427,0.078,0.576,0.244c0.842,0.935,1.54,1.986,2.304,2.985
	c0.413,0.517,0.839,1.021,1.278,1.519c0.212,0.241,0.423,0.486,0.633,0.729c0.038-0.038,0.081-0.072,0.117-0.112
	c0.064-0.069,0.127-0.138,0.189-0.208c-0.173-0.212-0.346-0.423-0.523-0.63c-0.338-0.399-0.679-0.799-1.026-1.19
	c-0.334-0.377-0.63-0.786-0.9-1.21c-0.237-0.373-0.454-0.736-0.61-1.151c-0.134-0.349-0.201-0.695-0.241-1.066
	c-0.026-0.237-0.051-0.494-0.032-0.734c0.016-0.243,0.051-0.49,0.132-0.721c0.122-0.343,0.28-0.724,0.551-0.975
	c0.178-0.166,0.367-0.326,0.592-0.426c0.142-0.061,0.284-0.119,0.432-0.164c0.196-0.057,0.41-0.1,0.615-0.1c0.013,0,0.027,0,0.04,0
	c0.519,0.014,0.981,0.142,1.433,0.397c0.426,0.241,0.794,0.553,1.147,0.888c0.278,0.263,0.551,0.533,0.788,0.831
	c0.298,0.375,0.578,0.761,0.866,1.141c0.25,0.324,0.499,0.648,0.748,0.973c-0.007-0.008-0.013-0.016-0.02-0.025
	c0.274,0.354,0.55,0.714,0.861,1.034c0.217,0.223,0.442,0.434,0.634,0.677c0.255,0.326,0.515,0.651,0.721,1.013
	c0.12,0.209,0.235,0.424,0.339,0.643c0.077,0.162,0.146,0.328,0.211,0.494c0.124,0.326,0.156,0.685,0.146,1.032
	C28.123,10.211,28.098,10.318,28.057,10.417z M23.59,5.925c0.019,0.024,0.038,0.049,0.057,0.073
	c-0.011-0.014-0.022-0.028-0.033-0.042C23.606,5.945,23.598,5.935,23.59,5.925z M10.198,20.408c0.031-0.024,0.062-0.047,0.093-0.071
	c-0.028,0.021-0.057,0.043-0.085,0.065C10.204,20.404,10.201,20.406,10.198,20.408z M26.429,10.173
	c0.002-0.016,0.011-0.031,0.016-0.047c0-0.009-0.005-0.017-0.006-0.026c0-0.061-0.002-0.121-0.006-0.182
	c-0.023-0.116-0.054-0.229-0.095-0.341c-0.231-0.498-0.53-0.951-0.857-1.389c-0.218-0.265-0.471-0.497-0.693-0.759
	c-0.377-0.45-0.741-0.911-1.099-1.375c0.005,0.006,0.01,0.013,0.015,0.02c-0.05-0.064-0.099-0.127-0.148-0.192
	c-0.029-0.037-0.057-0.074-0.086-0.11c-0.09-0.114-0.179-0.228-0.267-0.342c0.047,0.059,0.091,0.117,0.138,0.176
	c-0.297-0.383-0.581-0.775-0.873-1.161c-0.389-0.487-0.823-0.946-1.306-1.342c-0.168-0.116-0.342-0.221-0.523-0.315
	c-0.083-0.028-0.168-0.052-0.254-0.069c-0.071-0.005-0.141-0.007-0.212-0.004c-0.086,0.019-0.171,0.044-0.255,0.073
	c-0.02,0.011-0.039,0.022-0.059,0.034c-0.033,0.03-0.064,0.061-0.095,0.093c-0.004,0.007-0.008,0.013-0.011,0.02
	c-0.053,0.14-0.099,0.28-0.132,0.425c-0.016,0.224-0.005,0.452,0.018,0.676c0.026,0.158,0.062,0.312,0.115,0.462
	c0.115,0.242,0.255,0.468,0.407,0.691c0.185,0.273,0.361,0.553,0.557,0.82c0.35,0.442,0.715,0.873,1.082,1.302
	c0.397,0.464,0.817,0.906,1.224,1.362c0.334,0.373,0.369,0.932,0,1.301c-0.062,0.063-0.142,0.104-0.222,0.145
	c-0.176,0.177-0.332,0.37-0.503,0.552c-0.193,0.206-0.403,0.396-0.61,0.589c-0.04,0.093-0.093,0.18-0.164,0.251
	c-0.081,0.081-0.18,0.138-0.286,0.178c-0.228,0.212-0.452,0.427-0.681,0.64c-0.302,0.28-0.608,0.555-0.912,0.831
	c-0.34,0.308-0.669,0.628-1.003,0.942c-0.124,0.115-0.252,0.228-0.377,0.342c-0.078,0.133-0.199,0.229-0.333,0.302
	c-0.079,0.071-0.157,0.145-0.237,0.215c-0.316,0.278-0.614,0.572-0.914,0.868c-0.681,0.675-1.352,1.356-2.055,2.006
	c-0.359,0.333-0.912,0.355-1.267,0c-0.006-0.006-0.008-0.014-0.013-0.02c-0.091-0.041-0.179-0.094-0.25-0.171
	c-0.353-0.381-0.665-0.803-1.001-1.198c-0.371-0.43-0.756-0.845-1.127-1.275c-0.387-0.448-0.788-0.888-1.198-1.315
	c-0.351-0.37-0.702-0.746-1.098-1.069c-0.074-0.053-0.148-0.104-0.226-0.149c-0.005-0.001-0.009-0.003-0.014-0.004
	c-0.015,0-0.031,0.001-0.046,0.001c-0.057,0.011-0.112,0.025-0.167,0.043c-0.012,0.007-0.025,0.014-0.037,0.021
	c-0.031,0.029-0.06,0.06-0.088,0.091c-0.006,0.01-0.012,0.019-0.018,0.029c-0.009,0.028-0.017,0.056-0.024,0.084
	c-0.001,0.024-0.001,0.048,0,0.073c0.058,0.276,0.165,0.542,0.272,0.803c0.078,0.177,0.164,0.35,0.278,0.507
	c0.079,0.109,0.162,0.215,0.241,0.324c0.217,0.295,0.429,0.594,0.653,0.886c0.203,0.264,0.408,0.526,0.644,0.762
	c0.243,0.241,0.476,0.489,0.695,0.752c0.547,0.653,1.139,1.261,1.711,1.891c0.326,0.361,0.355,0.904,0,1.259
	c-0.062,0.062-0.141,0.104-0.22,0.145c-0.07,0.132-0.131,0.269-0.222,0.393c-0.099,0.134-0.203,0.261-0.31,0.387
	c-0.109,0.132-0.221,0.278-0.353,0.387c-0.334,0.28-0.699,0.521-1.048,0.782c0.057-0.045,0.112-0.087,0.168-0.132
	C10.18,22.5,9.7,22.881,9.203,23.243c-0.388,0.282-0.781,0.559-1.168,0.843c-0.721,0.579-1.387,1.219-1.988,1.923
	c-0.128,0.188-0.228,0.387-0.321,0.595c-0.078,0.201-0.141,0.406-0.18,0.618c-0.012,0.171-0.016,0.34-0.005,0.511
	c0.031,0.146,0.076,0.288,0.128,0.428c0.07,0.143,0.151,0.281,0.241,0.413c0.079,0.089,0.161,0.173,0.251,0.252
	c0.137,0.09,0.278,0.169,0.428,0.237c0.133,0.052,0.268,0.099,0.408,0.13c0.114,0.006,0.228,0.008,0.343,0.001
	c0.278-0.054,0.552-0.14,0.817-0.237c0.169-0.082,0.33-0.176,0.485-0.282c0.532-0.457,0.972-1.003,1.414-1.545
	c0.446-0.544,0.888-1.088,1.326-1.637c0.298-0.398,0.572-0.816,0.912-1.18c0.322-0.347,0.649-0.695,0.993-1.02
	c0.62-0.58,1.245-1.157,1.861-1.741c0.61-0.58,1.226-1.153,1.861-1.705c0.622-0.537,1.261-1.052,1.895-1.571
	c0.306-0.251,0.58-0.541,0.87-0.811c0.286-0.266,0.588-0.513,0.878-0.774c0.266-0.241,0.527-0.487,0.782-0.738
	c0.239-0.231,0.458-0.484,0.703-0.709c0.239-0.221,0.46-0.46,0.699-0.681c0.235-0.217,0.474-0.427,0.715-0.636
	c0.729-0.627,1.41-1.326,2.022-2.067c0.161-0.218,0.307-0.439,0.43-0.685c0.122-0.242,0.246-0.483,0.358-0.731
	C26.392,10.354,26.414,10.266,26.429,10.173z M7.138,22.711c0.01-0.008,0.021-0.016,0.031-0.024
	c0.027-0.021,0.054-0.042,0.081-0.062C7.212,22.654,7.175,22.683,7.138,22.711z M7.373,26.389c-0.44,0-0.809,0.369-0.809,0.809
	s0.369,0.809,0.809,0.809s0.809-0.369,0.809-0.809S7.813,26.389,7.373,26.389z"/>
</svg>