<?xml version="1.0" encoding="utf-8"?>
<!-- Generator: Adobe Illustrator 21.1.0, SVG Export Plug-In . SVG Version: 6.00 Build 0)  -->
<svg version="1.1" id="designs" xmlns="http://www.w3.org/2000/svg" xmlns:xlink="http://www.w3.org/1999/xlink" x="0px" y="0px"
	 width="32px" height="32px" viewBox="0 0 32 32" style="enable-background:new 0 0 32 32;" xml:space="preserve">
<style type="text/css">
	.sketchy_een{fill:#111918;}
</style>
<path class="sketchy_een" d="M23.684,29.031c-0.031-0.32-0.092-0.639-0.146-0.957c-0.092-0.535-0.186-1.068-0.381-1.578
	c-0.135-0.35-0.283-0.709-0.475-1.031c-0.176-0.299-0.387-0.58-0.602-0.854c-0.131-0.166-0.303-0.314-0.457-0.459
	c-0.225-0.209-0.482-0.396-0.74-0.564c-0.256-0.166-0.512-0.336-0.791-0.459c-0.125-0.054-0.25-0.1-0.375-0.145
	c-0.008-0.76,0.01-1.52-0.014-2.28c-0.014-0.453-0.367-0.832-0.83-0.832c-0.083,0-0.162,0.025-0.24,0.05
	c-0.064-0.017-0.127-0.04-0.196-0.039c-0.041,0.001-0.082-0.001-0.123-0.001c-0.006-0.154-0.014-0.308-0.02-0.462
	c-0.016-0.381-0.029-0.76-0.039-1.141c-0.021-0.789-0.057-1.578-0.066-2.367c-0.012-0.783-0.012-1.566-0.02-2.348
	c-0.01-0.791-0.043-1.58-0.068-2.369c-0.043-1.428-0.018-2.855-0.059-4.281c-0.02-0.701-0.049-1.4-0.062-2.102
	c-0.014-0.75-0.004-1.5-0.002-2.25c0-0.061-0.022-0.116-0.035-0.173c0.099-0.149,0.168-0.324,0.168-0.51
	c0-0.227-0.081-0.447-0.221-0.607c-0.15-0.17-0.33-0.232-0.537-0.25c-0.152-0.013-0.306-0.018-0.46-0.018
	c-0.17,0-0.34,0.006-0.507,0.012c-0.568,0.021-1.136,0.047-1.702,0.109c-0.217,0.023-0.4,0.082-0.561,0.262
	c-0.147,0.168-0.231,0.398-0.231,0.635c0,0.036,0.015,0.07,0.019,0.105c-0.016,0.069-0.037,0.136-0.042,0.212
	c-0.062,0.96-0.095,1.919-0.134,2.881c-0.034,0.866-0.042,1.732-0.023,2.6c0.04,1.706,0.077,3.411,0.103,5.119
	c0.018,1.177,0.031,2.357,0.063,3.537c0.016,0.572,0.019,1.146,0.022,1.719c0.003,0.558-0.014,1.12,0.018,1.678
	c0.002,0.044,0.021,0.082,0.029,0.125c-0.184-0.005-0.369-0.012-0.552-0.013c-0.273,0-0.508,0.148-0.659,0.358
	c-0.173,0.148-0.289,0.362-0.297,0.607c-0.025,0.656,0.01,1.316,0.076,1.969c-0.477,0.196-0.946,0.414-1.363,0.716
	c-0.309,0.225-0.574,0.471-0.83,0.75c-0.285,0.311-0.582,0.611-0.812,0.967c-0.207,0.32-0.383,0.668-0.551,1.01
	c-0.186,0.377-0.344,0.758-0.465,1.158c-0.186,0.615-0.256,1.285-0.242,1.926c0.002,0.141,0.01,0.281,0.018,0.422
	c0.02,0.292,0.173,0.542,0.401,0.69c0.103,0.113,0.229,0.215,0.369,0.237c0.811,0.127,1.625,0.111,2.443,0.111
	c0.723,0,1.439,0.027,2.16,0.074c0.359,0.023,0.721,0.016,1.08,0.014c0.369-0.004,0.738-0.002,1.109-0.002
	c0.775,0,1.553-0.006,2.328-0.01c0.459-0.002,0.918-0.014,1.377-0.016c0.471-0.002,0.941-0.002,1.41-0.033
	c0.675-0.044,1.353-0.098,2.01-0.265c0.013,0,0.022,0.007,0.035,0.007c0.201,0,0.396-0.082,0.539-0.225
	c0.094-0.094,0.16-0.207,0.195-0.336c0.035-0.129,0.037-0.258,0.005-0.387C23.707,29.496,23.706,29.262,23.684,29.031z
	 M20.363,29.456c-0.754,0.014-1.51,0.012-2.266,0.014c-0.764,0.002-1.527-0.014-2.291-0.023c-0.732-0.01-1.469-0.012-2.201-0.055
	c-0.674-0.037-1.344-0.074-2.02-0.064c-0.561,0.01-1.119-0.009-1.678-0.057c-0.002-0.262,0.002-0.524,0.029-0.784
	c0.064-0.405,0.156-0.812,0.305-1.193c0.192-0.431,0.42-0.855,0.696-1.237c0.151-0.179,0.319-0.34,0.483-0.508
	c0.145-0.147,0.289-0.294,0.449-0.425c0.299-0.218,0.611-0.401,0.946-0.557c0.273-0.093,0.548-0.177,0.816-0.277
	c0.215-0.082,0.389-0.188,0.508-0.391c0.115-0.197,0.146-0.436,0.086-0.654c-0.029-0.106-0.079-0.204-0.145-0.29
	c-0.003-0.017,0.004-0.033,0-0.05c-0.019-0.088-0.038-0.175-0.053-0.263c-0.026-0.235-0.042-0.468-0.037-0.706
	c0.003-0.109,0.011-0.219,0.016-0.328c0.432-0.024,0.864-0.052,1.295-0.047c0.438,0.006,0.803-0.369,0.803-0.801
	c0-0.334-0.221-0.629-0.522-0.745c0.009-0.052,0.03-0.102,0.028-0.157c-0.04-0.812-0.037-1.628-0.05-2.442
	c-0.013-0.838-0.053-1.676-0.06-2.514c-0.014-1.694-0.026-3.386-0.072-5.079c-0.033-1.179-0.068-2.359-0.061-3.538
	c0.007-1.159,0.089-2.316,0.173-3.471c0.278-0.031,0.555-0.055,0.833-0.071c0.011,1.583,0.068,3.163,0.079,4.744
	c0.006,0.789,0.004,1.578,0.002,2.367c-0.004,0.814,0.02,1.627,0.057,2.441c0.062,1.404,0.027,2.812,0.068,4.219
	c0.021,0.703,0.059,1.406,0.096,2.107c0.018,0.344,0.033,0.688,0.053,1.031c0.018,0.367,0,0.744,0.066,1.105
	c0.022,0.119,0.082,0.218,0.158,0.304c0.139,0.243,0.389,0.417,0.683,0.415c0.148-0.002,0.296-0.002,0.443-0.004
	c0.013,0.218,0.028,0.435,0.034,0.653c0.011,0.36,0.023,0.721,0.045,1.081c-0.024,0.047-0.053,0.09-0.068,0.144
	c-0.111,0.404,0.133,0.893,0.559,0.986c0.257,0.055,0.513,0.105,0.759,0.194c0.15,0.075,0.288,0.167,0.43,0.258
	c0.152,0.096,0.303,0.189,0.446,0.295c0.22,0.177,0.438,0.37,0.619,0.587c0.267,0.365,0.502,0.743,0.689,1.155
	c0.035,0.087,0.054,0.179,0.086,0.267c-0.532-0.016-1.064-0.043-1.596-0.067c-0.229-0.01-0.459-0.006-0.688-0.004
	c-0.129,0.002-0.26,0.004-0.387,0.002c-0.373-0.004-0.746-0.02-1.117-0.039c-0.729-0.041-1.459-0.041-2.188-0.047
	c-0.77-0.006-1.537-0.016-2.307-0.035c-0.184-0.004-0.367-0.01-0.551-0.014c-0.003,0-0.007,0-0.01,0
	c-0.419,0-0.767,0.363-0.767,0.778c0,0.422,0.354,0.781,0.777,0.777c0.787-0.004,1.574-0.041,2.361-0.045
	c0.381-0.004,0.764-0.01,1.145,0c0.367,0.01,0.732,0.033,1.1,0.031c0.348,0,0.695,0.023,1.043,0.027
	c0.377,0.004,0.756,0.006,1.133,0.012c0.725,0.014,1.449,0.07,2.176,0.072c0.087,0,0.175,0.002,0.262,0.002
	c0.001,0.004,0.002,0.009,0.003,0.013c0.036,0.167,0.075,0.334,0.103,0.502c0.009,0.087,0.011,0.176,0.017,0.263
	c-0.051,0.009-0.1,0.024-0.151,0.031C21.485,29.421,20.922,29.445,20.363,29.456z"/>
</svg>