<?xml version="1.0" encoding="utf-8"?>
<!-- Generator: Adobe Illustrator 21.1.0, SVG Export Plug-In . SVG Version: 6.00 Build 0)  -->
<svg version="1.1" id="designs" xmlns="http://www.w3.org/2000/svg" xmlns:xlink="http://www.w3.org/1999/xlink" x="0px" y="0px"
	 width="32px" height="32px" viewBox="0 0 32 32" style="enable-background:new 0 0 32 32;" xml:space="preserve">
<style type="text/css">
	.sketchy_een{fill:#111918;}
</style>
<path class="sketchy_een" d="M27.551,9.142c-0.017-0.466,0.006-0.93-0.009-1.396c-0.009-0.326,0.002-0.653,0-0.979
	c-0.002-0.39-0.004-0.782-0.009-1.172c-0.003-0.268-0.143-0.498-0.345-0.65c-0.036-0.09-0.088-0.174-0.158-0.243
	c-0.144-0.144-0.312-0.197-0.509-0.212c-0.021-0.002-0.043,0-0.064-0.001c-0.003-0.032-0.004-0.065-0.007-0.097
	c-0.011-0.106-0.011-0.214-0.017-0.32c-0.015-0.225-0.044-0.449-0.051-0.676c-0.004-0.159-0.004-0.318-0.021-0.477
	c-0.017-0.169-0.038-0.354-0.144-0.498c-0.106-0.142-0.152-0.186-0.295-0.292c-0.114-0.081-0.307-0.108-0.439-0.117
	C25.364,2.003,25.247,2,25.131,2c-0.094,0-0.188,0.002-0.282,0.003c-0.11,0.004-0.22,0.006-0.328,0.004
	c-0.623-0.002-1.246,0.028-1.871,0.028c-0.309,0-0.623-0.013-0.932,0.017c-0.21,0.019-0.388,0.04-0.58,0.136
	C20.934,2.291,20.775,2.5,20.72,2.721c-0.034,0.142-0.032,0.276-0.03,0.419c0.002,0.172-0.004,0.347,0.008,0.519
	c0.008,0.137,0.03,0.272,0.026,0.41c-0.03,0.149-0.067,0.297-0.098,0.445c-0.182,0.06-0.329,0.181-0.422,0.343
	c-0.163,0.146-0.27,0.353-0.273,0.585c-0.009,0.765-0.017,1.53-0.019,2.293c0,0.288-0.006,0.574,0,0.862
	c0.006,0.29-0.011,0.58,0,0.869c0.002,0.038,0.018,0.072,0.024,0.108C19.839,9.7,19.77,9.85,19.77,10.019
	c0,0.401,0.337,0.748,0.742,0.742c0.581-0.008,1.163-0.023,1.744-0.038c0.29-0.008,0.579-0.013,0.869-0.017
	c-0.003,0.042-0.011,0.083-0.008,0.126c0-0.003-0.001-0.005-0.001-0.008c0,0.004,0.001,0.008,0.001,0.012
	c0.001,0.02,0.003,0.04,0.005,0.06c0.008,0.115,0.003,0.231,0.003,0.347c0,0.144,0.008,0.29,0.006,0.434
	c-0.002,0.208-0.013,0.417-0.017,0.625c-0.004,0.292,0.013,0.581,0.004,0.873c-0.008,0.28-0.038,0.557-0.036,0.837
	c0,0.267-0.017,0.534-0.021,0.801c-0.006,0.307,0.01,0.614,0,0.92c-0.021,0.712-0.042,1.424-0.072,2.134
	c-0.017,0.42-0.055,0.839-0.076,1.259c-0.008,0.172-0.009,0.349-0.011,0.521c-0.002,0.19-0.017,0.377-0.037,0.564
	c-0.019,0.099-0.042,0.197-0.077,0.292c-0.117,0.254-0.251,0.493-0.407,0.725c-0.032,0.034-0.066,0.066-0.101,0.097
	c-0.186,0.127-0.384,0.229-0.588,0.322c-0.243,0.095-0.489,0.164-0.744,0.215c-0.085,0.003-0.171-0.003-0.256-0.011
	c-0.233-0.039-0.465-0.097-0.688-0.172c-0.02-0.011-0.039-0.024-0.058-0.038c0.014,0.011,0.028,0.021,0.041,0.032
	c-0.001,0-0.002,0-0.002-0.001c-0.061-0.046-0.122-0.092-0.183-0.138c-0.074-0.057-0.15-0.115-0.218-0.181
	c-0.061-0.101-0.111-0.212-0.159-0.32c-0.099-0.268-0.165-0.557-0.216-0.839c-0.078-0.73-0.1-1.464-0.137-2.196
	c-0.017-0.362-0.045-0.722-0.061-1.083c-0.015-0.411-0.017-0.82-0.013-1.233c0.004-0.381-0.032-0.754-0.062-1.134
	c-0.03-0.381-0.059-0.761-0.1-1.142c-0.047-0.434-0.097-0.865-0.178-1.295c-0.081-0.43-0.195-0.864-0.42-1.242
	c-0.176-0.299-0.35-0.602-0.557-0.881c-0.278-0.371-0.619-0.653-1.004-0.909c-0.305-0.205-0.638-0.364-0.951-0.553
	c-0.263-0.161-0.545-0.206-0.846-0.235c-0.161-0.015-0.323-0.027-0.484-0.027c-0.021,0-0.042,0-0.064,0.001
	c-0.417,0.006-0.824,0.049-1.227,0.159c-0.324,0.089-0.642,0.193-0.92,0.383c-0.222,0.15-0.424,0.314-0.595,0.517
	c-0.206,0.242-0.401,0.506-0.574,0.773c-0.303,0.468-0.485,1.006-0.684,1.523c-0.091,0.237-0.142,0.492-0.208,0.737
	c-0.087,0.316-0.133,0.638-0.189,0.962c-0.061,0.354-0.089,0.714-0.127,1.07c-0.038,0.348-0.072,0.691-0.072,1.042
	c0.003,0.637,0.008,1.275,0.015,1.911c-0.733,0.007-1.466,0.009-2.198-0.01c-0.65-0.015-1.301-0.011-1.951,0.008
	c-0.065,0.002-0.123,0.023-0.183,0.04c-0.028-0.003-0.053-0.017-0.081-0.017c-0.443,0-0.816,0.371-0.814,0.814
	c0.004,1.564-0.062,3.127-0.074,4.691c-0.008,1.061,0.004,2.123,0.019,3.184c0.004,0.267-0.017,0.553,0.055,0.812
	c0.11,0.392,0.508,0.627,0.901,0.562c0.15,0.007,0.3,0.006,0.45,0.009c0.024,0.316,0.049,0.634,0.023,0.949
	c-0.033,0.175-0.076,0.348-0.07,0.528c0.009,0.299,0.091,0.547,0.288,0.776c0.241,0.282,0.629,0.318,0.972,0.311
	c0.381-0.009,0.761-0.019,1.142-0.034c0.373-0.013,0.744,0,1.117,0.002c0.405,0,0.812,0.008,1.218,0.006
	c0.386-0.002,0.769-0.023,1.155-0.03c0.646-0.009,1.293-0.036,1.939-0.038c0.083,0,0.167,0.006,0.248,0.017
	c0.159,0.019,0.276,0.015,0.447-0.019c0.155-0.032,0.343-0.161,0.451-0.271c0.14-0.144,0.195-0.28,0.265-0.466
	c0.047-0.123,0.047-0.263,0.061-0.394c0.026-0.267,0.042-0.538,0.036-0.809c-0.004-0.114-0.009-0.227-0.013-0.343
	c-0.002-0.041-0.004-0.084-0.006-0.125c0.05,0.01,0.099,0.03,0.15,0.03c0.396,0,0.799-0.35,0.769-0.769
	c-0.028-0.403-0.062-0.805-0.068-1.21c-0.008-0.564-0.009-1.129-0.023-1.695c-0.034-1.424-0.03-2.848-0.019-4.272
	c0-0.054-0.02-0.101-0.031-0.152c0.025-0.424,0.05-0.848,0.08-1.271c0.03-0.413-0.367-0.758-0.758-0.758
	c-0.005,0-0.008,0.003-0.013,0.003c-0.101-0.044-0.208-0.072-0.329-0.083c-0.331-0.029-0.664-0.037-0.997-0.037
	c-0.126,0-0.252,0.001-0.377,0.003c-0.172,0.002-0.345,0.017-0.517,0.028c-0.205,0.011-0.409,0.009-0.614,0.006
	c-0.108,0-0.216-0.002-0.322-0.002c-0.282,0.001-0.565,0.006-0.848,0.009c-0.021-0.622-0.056-1.245-0.062-1.867
	c-0.007-0.597,0.092-1.199,0.172-1.792c0.103-0.671,0.266-1.331,0.519-1.962c0.027-0.064,0.054-0.128,0.081-0.191
	c0.07-0.165,0.144-0.329,0.238-0.482c0.096-0.156,0.208-0.304,0.318-0.452c0.102-0.127,0.213-0.25,0.334-0.358
	c0.115-0.078,0.238-0.147,0.365-0.207c0.222-0.078,0.452-0.147,0.684-0.191c0.319-0.032,0.638-0.041,0.956-0.013
	c0.022,0.005,0.044,0.011,0.065,0.017c0.185,0.094,0.362,0.209,0.544,0.307c0.217,0.117,0.424,0.253,0.624,0.395
	c0.11,0.093,0.211,0.193,0.306,0.3c0.228,0.323,0.434,0.66,0.601,1.017c0.172,0.505,0.267,1.031,0.343,1.559
	c0.087,0.687,0.15,1.377,0.174,2.068c0.015,0.394,0,0.79,0.015,1.184c0.017,0.394,0.032,0.788,0.038,1.184
	c0.013,0.775,0.042,1.547,0.07,2.32c0.015,0.43,0.093,0.85,0.188,1.269c0.053,0.241,0.157,0.462,0.269,0.68
	c0.036,0.068,0.068,0.138,0.112,0.203c0.117,0.178,0.256,0.312,0.417,0.445c0.062,0.051,0.127,0.1,0.191,0.15
	c0.129,0.102,0.246,0.223,0.396,0.295c0.513,0.244,1.138,0.371,1.706,0.341c0.331-0.017,0.663-0.116,0.979-0.212
	c0.231-0.07,0.455-0.18,0.672-0.282c0.104-0.047,0.206-0.102,0.307-0.157c0.379-0.212,0.733-0.576,0.926-0.962
	c0.146-0.294,0.305-0.581,0.388-0.901c0.08-0.307,0.148-0.6,0.161-0.92c0.015-0.345,0.006-0.693,0.002-1.04
	c-0.002-0.178-0.008-0.356,0.006-0.534c0.013-0.169,0.025-0.337,0.026-0.508c0.004-0.371,0.023-0.742,0.028-1.114
	c0.011-0.657,0.03-1.318,0.061-1.975c0.025-0.544,0.051-1.085,0.102-1.627c0.042-0.422,0.044-0.85,0.078-1.275
	c0.017-0.205,0.017-0.411,0.028-0.615c0.015-0.254,0.005-0.507-0.033-0.758c0.244-0.012,0.484-0.041,0.726-0.05
	c0.191-0.006,0.383-0.006,0.576-0.004c0.222,0,0.445,0,0.667-0.011c0.403-0.021,0.741-0.322,0.741-0.74c0-0.052-0.019-0.1-0.03-0.15
	C27.461,9.561,27.56,9.362,27.551,9.142z M12.723,28.247c-0.598,0.045-1.195,0.104-1.795,0.119
	c-0.343,0.009-0.684,0.008-1.025,0.004c-0.309-0.002-0.619-0.004-0.928,0.002c-0.474,0.01-0.954,0.025-1.431-0.001
	c-0.005-0.31-0.005-0.621-0.014-0.931c0.05,0,0.1-0.001,0.151-0.001c0.737-0.004,1.473-0.021,2.212-0.013
	c0.343,0.004,0.687,0.002,1.032,0c0.413-0.004,0.826-0.006,1.24,0c0.155,0.004,0.311-0.004,0.466-0.009
	c0.176-0.009,0.352-0.017,0.528-0.011c0.079,0.002,0.158-0.003,0.237-0.004c0.004,0.06-0.004,0.119,0.016,0.178
	c0.002,0.005,0.003,0.009,0.005,0.014c0.019,0.207,0.031,0.415,0.03,0.622C13.206,28.217,12.964,28.228,12.723,28.247z
	 M12.546,18.752c0.434,0.006,0.865,0.055,1.299,0.061c0.213,0.002,0.421,0.015,0.63,0.034c-0.001,0.12-0.003,0.24-0.001,0.359
	c-0.063,0.113-0.108,0.237-0.107,0.373c0.006,0.731,0.042,1.46,0.076,2.189c0.032,0.684,0.017,1.367,0.036,2.053
	c0.015,0.557,0.03,1.115,0.047,1.674c0.003,0.098,0.006,0.197,0.01,0.296c-0.165,0.01-0.331,0.015-0.496,0.015
	c-0.097,0-0.191,0-0.286,0c-0.339,0.006-0.676,0.021-1.015,0.032c-0.36,0.011-0.716,0.026-1.074,0.025
	c-0.373-0.002-0.746-0.002-1.117-0.004c-0.542-0.002-1.081,0.011-1.621,0.023c-0.937,0.021-1.875,0.044-2.81-0.015
	c-0.028-0.002-0.055-0.004-0.083-0.006c-0.003-0.146-0.012-0.292-0.016-0.437C6,24.858,5.981,24.292,5.979,23.728
	c-0.002-0.775-0.002-1.547,0.017-2.32c0.008-0.364,0.015-0.725,0.03-1.089c0.015-0.386,0.057-0.775,0.083-1.161
	c0.008-0.121,0.01-0.242,0.016-0.363c0.668-0.033,1.337-0.069,2.006-0.073c0.746-0.008,1.496,0.002,2.242,0.011
	C11.099,18.743,11.823,18.739,12.546,18.752z M19.999,21.683c0.001,0,0.001,0.001,0.002,0.001c0.04,0.031,0.081,0.062,0.12,0.092
	C20.08,21.745,20.04,21.714,19.999,21.683z M22.283,3.521c0.191-0.008,0.384-0.009,0.574-0.016c0.295-0.011,0.591-0.008,0.886-0.009
	c0.237-0.002,0.473-0.002,0.71-0.002c0.123-0.001,0.247-0.002,0.372-0.001c-0.001,0.134-0.002,0.267,0.005,0.4
	c0.008,0.127,0.008,0.254,0.006,0.381c-0.001,0.071,0.011,0.141,0.018,0.211c-0.008,0-0.015,0-0.023-0.001
	c-0.261-0.01-0.523,0-0.782,0c-0.519,0-1.038-0.004-1.557-0.01c-0.09-0.001-0.181-0.002-0.271-0.004
	c0.036-0.25,0.065-0.501,0.066-0.753C22.287,3.652,22.285,3.587,22.283,3.521z M25.977,9.173c-0.117,0.004-0.233,0.009-0.349,0.014
	c-0.21,0.008-0.42,0.015-0.629,0.025c-0.472,0.025-0.943,0.068-1.415,0.093c-0.485,0.027-0.972,0.009-1.456-0.004
	c-0.215-0.005-0.43-0.006-0.645-0.01c-0.02-0.231-0.041-0.462-0.045-0.695c-0.006-0.288-0.004-0.574-0.006-0.862
	c-0.003-0.597,0.032-1.192,0.061-1.789c0.312-0.017,0.623-0.036,0.935-0.047c0.532-0.019,1.064-0.025,1.596-0.028
	c0.626-0.004,1.249,0.021,1.873,0.044c0.036,0.595,0.089,1.19,0.084,1.786c-0.002,0.479,0.008,0.962-0.011,1.441
	C25.971,9.153,25.977,9.162,25.977,9.173z"/>
</svg>