<?xml version="1.0" encoding="utf-8"?>
<!-- Generator: Adobe Illustrator 21.1.0, SVG Export Plug-In . SVG Version: 6.00 Build 0)  -->
<svg version="1.1" id="designs" xmlns="http://www.w3.org/2000/svg" xmlns:xlink="http://www.w3.org/1999/xlink" x="0px" y="0px"
	 width="32px" height="32px" viewBox="0 0 32 32" style="enable-background:new 0 0 32 32;" xml:space="preserve">
<style type="text/css">
	.sketchy_een{fill:#111918;}
</style>
<path class="sketchy_een" d="M14.256,21.12c-0.216,0-0.424-0.086-0.575-0.239c-0.153-0.151-0.239-0.359-0.239-0.575
	c0-0.061,0.022-0.129,0.037-0.196c-0.134-0.149-0.223-0.338-0.216-0.548c0.034-1.091,0.086-2.181,0.115-3.274
	c0.029-1.171-0.048-2.342-0.13-3.509c-0.031-0.449,0.399-0.825,0.825-0.825c0.472,0,0.798,0.376,0.825,0.825
	c0.073,1.186,0.096,2.368,0.071,3.557c-0.015,0.788-0.017,1.577-0.017,2.365c0.083-0.068,0.167-0.133,0.249-0.202
	c0.464-0.385,0.949-0.74,1.427-1.107c0.217-0.168,0.434-0.336,0.648-0.509c0.29-0.237,0.563-0.495,0.863-0.72
	c0.103-0.078,0.247-0.11,0.386-0.11c0.08,0,0.159,0.011,0.227,0.03c0.199,0.053,0.371,0.187,0.474,0.365
	c0.109,0.183,0.138,0.407,0.08,0.613c-0.057,0.21-0.189,0.355-0.365,0.476c-0.017,0.012-0.035,0.024-0.053,0.036
	c-0.304,0.242-0.602,0.491-0.904,0.734c-0.359,0.287-0.725,0.567-1.088,0.848c-0.319,0.253-0.625,0.519-0.933,0.785
	c-0.372,0.321-0.751,0.632-1.133,0.942C14.656,21.023,14.49,21.12,14.256,21.12z M28.543,8.747
	c-0.039,0.082-0.083,0.163-0.146,0.234c-0.607,0.676-1.152,1.415-1.803,2.051c-0.263,0.259-0.654,0.307-0.972,0.155
	c-0.299,0.146-0.676,0.108-0.919-0.141c-0.34-0.351-0.701-0.674-1.059-1.006c-0.117,0.158-0.23,0.318-0.351,0.473
	c0.044-0.055,0.088-0.113,0.132-0.168c-0.104,0.133-0.208,0.266-0.311,0.4c0.016-0.02,0.031-0.04,0.047-0.06
	c-0.02,0.025-0.039,0.051-0.059,0.076c-0.024,0.031-0.047,0.062-0.071,0.092c0.019-0.025,0.039-0.051,0.058-0.076
	c-0.152,0.195-0.304,0.389-0.461,0.579c-0.059,0.072-0.147,0.123-0.239,0.163c0.126,0.147,0.259,0.286,0.384,0.435
	c0.317,0.38,0.642,0.753,0.942,1.146c0.281,0.367,0.521,0.756,0.756,1.156c0.458,0.775,0.84,1.603,1.012,2.493
	c0.174,0.898,0.147,1.815,0.103,2.724c-0.025,0.497-0.078,0.989-0.155,1.482c-0.067,0.42-0.141,0.84-0.258,1.249
	c-0.258,0.896-0.653,1.742-1.182,2.51c-0.52,0.751-1.156,1.4-1.803,2.038c-0.638,0.628-1.335,1.211-2.084,1.702
	c-0.754,0.497-1.568,0.905-2.437,1.161c-0.418,0.122-0.839,0.206-1.268,0.273c-0.462,0.071-0.93,0.117-1.398,0.113
	c-0.89-0.01-1.78-0.107-2.661-0.229c-0.814-0.113-1.639-0.248-2.412-0.537c-0.464-0.174-0.926-0.367-1.373-0.586
	c-0.363-0.18-0.707-0.409-1.045-0.636c-0.751-0.504-1.431-1.075-2.017-1.767c-0.39-0.46-0.775-0.955-1.026-1.509
	c-0.187-0.418-0.382-0.839-0.535-1.272c-0.145-0.411-0.273-0.825-0.39-1.243c-0.13-0.468-0.191-0.957-0.202-1.44
	c-0.019-0.89,0.071-1.797,0.229-2.672c0.071-0.399,0.16-0.8,0.281-1.188c0.149-0.481,0.33-0.942,0.541-1.4
	c0.367-0.8,0.825-1.555,1.339-2.269c0.525-0.726,1.093-1.406,1.795-1.965c0.378-0.304,0.758-0.605,1.152-0.888
	c0.35-0.248,0.722-0.447,1.11-0.625c0.434-0.197,0.867-0.399,1.308-0.575c0.313-0.124,0.634-0.214,0.956-0.304
	c-0.065-0.516-0.13-1.032-0.167-1.552c-0.029-0.382-0.055-0.764-0.074-1.148c-0.019-0.374-0.046-0.751,0.006-1.125
	c0.036-0.273,0.069-0.554,0.172-0.812c0.084-0.212,0.166-0.403,0.304-0.584c0.147-0.199,0.309-0.374,0.499-0.535
	c0.36-0.308,0.831-0.561,1.316-0.561c0.032,0,0.064,0.001,0.096,0.003c0.241,0.017,0.539,0.076,0.735,0.222
	c0.181,0.136,0.34,0.265,0.479,0.445c0.183,0.237,0.323,0.476,0.426,0.76c0.036,0.101,0.073,0.202,0.101,0.306
	c0.05,0.181,0.086,0.361,0.115,0.546c0.061,0.428,0.096,0.854,0.105,1.285c0.015,0.663,0,1.327-0.015,1.99
	c0.317,0.04,0.633,0.093,0.941,0.166c0.479,0.113,0.93,0.29,1.383,0.478c0.069,0.028,0.134,0.064,0.202,0.093
	c0.264-0.288,0.535-0.572,0.794-0.865c0.294-0.332,0.573-0.68,0.854-1.026c0.014-0.018,0.042-0.024,0.059-0.04
	c-0.414-0.382-0.83-0.763-1.251-1.136c-0.344-0.306-0.309-0.881,0-1.19c0.001-0.001,0.003-0.002,0.004-0.003
	c0.014-0.028,0.014-0.06,0.032-0.086c0.26-0.38,0.586-0.707,0.903-1.039c0.269-0.281,0.544-0.556,0.818-0.833
	c0.161-0.162,0.378-0.243,0.594-0.243c0.008,0,0.015,0.004,0.022,0.004c0.035-0.061,0.065-0.125,0.114-0.174
	C21.782,2.077,21.988,2,22.195,2c0.215,0,0.431,0.083,0.601,0.239c1.014,0.934,1.992,1.902,2.955,2.89
	c0.46,0.474,0.921,0.949,1.391,1.415c0.208,0.208,0.418,0.414,0.634,0.615c0.22,0.204,0.447,0.403,0.653,0.621
	C28.682,8.046,28.72,8.438,28.543,8.747z M20.251,9.675c0.185,0.11,0.376,0.208,0.556,0.33c0.182,0.123,0.353,0.263,0.519,0.409
	c0.04-0.074,0.084-0.146,0.142-0.22c0.013-0.016,0.027-0.033,0.04-0.05c0.314-0.412,0.614-0.835,0.914-1.258
	c-0.086-0.082-0.173-0.161-0.258-0.243c-0.178-0.174-0.358-0.347-0.537-0.522c-0.023,0.032-0.037,0.065-0.063,0.097
	c-0.298,0.363-0.602,0.72-0.923,1.062C20.514,9.416,20.382,9.544,20.251,9.675z M14.191,4.103l0.001,0.001
	c0.019,0.015,0.037,0.029,0.056,0.043C14.23,4.132,14.211,4.117,14.191,4.103z M14.182,4.097c0.003,0.002,0.005,0.004,0.008,0.006
	c0,0,0,0,0,0C14.187,4.1,14.184,4.098,14.182,4.097z M13.393,6.648c0.048,0.595,0.106,1.187,0.176,1.78
	c0.004,0.026,0.007,0.051,0.011,0.077c0.313-0.059,0.627-0.107,0.942-0.152c0.069-1.102,0.123-2.21,0.01-3.309
	c-0.038-0.221-0.09-0.436-0.163-0.648c-0.039-0.077-0.081-0.15-0.129-0.221c-0.03-0.033-0.06-0.065-0.092-0.096
	c-0.014-0.004-0.028-0.008-0.042-0.012c-0.013,0.004-0.027,0.007-0.04,0.011c-0.078,0.039-0.153,0.083-0.226,0.131
	c-0.1,0.089-0.192,0.184-0.279,0.287c-0.035,0.054-0.066,0.108-0.095,0.164c-0.046,0.14-0.078,0.28-0.105,0.423
	C13.312,5.604,13.35,6.127,13.393,6.648z M22.359,14.16c-0.351-0.431-0.725-0.841-1.088-1.263c-0.389-0.454-0.809-0.877-1.262-1.266
	c-0.759-0.544-1.595-0.948-2.446-1.323c-0.307-0.125-0.615-0.237-0.938-0.318c-0.29-0.074-0.586-0.123-0.883-0.167
	c-0.132-0.011-0.263-0.021-0.393-0.028c-0.014-0.001-0.027-0.001-0.041-0.003c-0.103,0.044-0.214,0.064-0.339,0.081
	c-0.141,0.018-0.282,0.037-0.423,0.055c-1.031,0.167-2.061,0.419-3.032,0.805c-0.426,0.186-0.852,0.374-1.269,0.581
	c-0.439,0.218-0.831,0.51-1.22,0.806c-0.291,0.225-0.585,0.451-0.843,0.709c-0.281,0.28-0.54,0.571-0.787,0.879
	c-0.326,0.441-0.634,0.895-0.924,1.363c-0.27,0.439-0.489,0.918-0.698,1.392c-0.279,0.729-0.461,1.481-0.589,2.25
	c-0.1,0.822-0.141,1.661-0.071,2.487c0.121,0.696,0.351,1.375,0.606,2.033c0.086,0.2,0.173,0.399,0.261,0.598
	c0.158,0.359,0.374,0.678,0.601,0.998c0.197,0.25,0.4,0.498,0.627,0.721c0.259,0.252,0.523,0.49,0.803,0.715
	c0.354,0.26,0.718,0.515,1.096,0.738c0.367,0.213,0.746,0.393,1.135,0.561c0.832,0.329,1.695,0.526,2.578,0.656
	c1.083,0.139,2.177,0.237,3.266,0.123c0.312-0.046,0.622-0.1,0.929-0.176c0.298-0.073,0.585-0.171,0.874-0.276
	c0.386-0.171,0.756-0.358,1.12-0.574c0.363-0.215,0.7-0.469,1.038-0.723c0.863-0.692,1.658-1.489,2.356-2.35
	c0.188-0.26,0.381-0.522,0.535-0.802c0.15-0.275,0.287-0.553,0.418-0.837c0.132-0.346,0.244-0.694,0.329-1.056
	c0.079-0.332,0.134-0.67,0.181-1.007c0.057-0.517,0.084-1.035,0.09-1.556c0.005-0.51,0.009-1.014-0.034-1.519
	c-0.037-0.22-0.079-0.438-0.138-0.654c-0.058-0.218-0.141-0.426-0.222-0.636c-0.01-0.024-0.02-0.049-0.031-0.073
	c-0.151-0.343-0.344-0.665-0.538-0.983C22.792,14.791,22.585,14.471,22.359,14.16z M26.711,8.354
	c-0.028-0.029-0.059-0.056-0.087-0.085c-0.21-0.223-0.422-0.441-0.636-0.663c-0.445-0.46-0.89-0.919-1.347-1.37
	c-0.83-0.823-1.692-1.614-2.559-2.399c-0.002,0.002-0.002,0.004-0.004,0.005c-0.267,0.267-0.537,0.533-0.804,0.8
	c-0.146,0.147-0.297,0.295-0.445,0.445c0.384,0.35,0.77,0.697,1.14,1.063c0.449,0.447,0.886,0.903,1.327,1.358
	c0.72,0.745,1.495,1.433,2.254,2.137C25.965,9.24,26.342,8.801,26.711,8.354z M21.529,21.228c-0.064-0.018-0.127-0.026-0.189-0.026
	c-0.314,0-0.589,0.215-0.69,0.525c-0.034,0.107-0.073,0.213-0.113,0.321c-0.264,0.582-0.608,1.127-0.987,1.64
	c-0.328,0.415-0.675,0.817-1.08,1.158c-0.507,0.371-1.067,0.659-1.641,0.912c-0.197,0.07-0.393,0.123-0.598,0.16
	c-0.466,0.041-0.927,0.04-1.398,0.022c-0.42-0.015-0.774,0.365-0.774,0.774c0,0.432,0.353,0.758,0.774,0.774
	c0.879,0.029,1.776-0.002,2.592-0.367c0.317-0.143,0.628-0.298,0.934-0.464c0.361-0.197,0.691-0.428,1.01-0.686
	c0.302-0.243,0.56-0.521,0.81-0.816c0.262-0.306,0.51-0.625,0.743-0.951c0.201-0.285,0.384-0.584,0.563-0.881
	c0.208-0.346,0.363-0.724,0.5-1.102c0.013-0.038,0.027-0.076,0.04-0.117C22.152,21.736,21.888,21.326,21.529,21.228z"/>
</svg>