<?xml version="1.0" encoding="utf-8"?>
<!-- Generator: Adobe Illustrator 21.1.0, SVG Export Plug-In . SVG Version: 6.00 Build 0)  -->
<svg version="1.1" id="designs" xmlns="http://www.w3.org/2000/svg" xmlns:xlink="http://www.w3.org/1999/xlink" x="0px" y="0px"
	 width="32px" height="32px" viewBox="0 0 32 32" style="enable-background:new 0 0 32 32;" xml:space="preserve">
<style type="text/css">
	.sketchy_een{fill:#111918;}
</style>
<path class="sketchy_een" d="M27.274,16.313c-0.016,0-0.032,0-0.048,0.001c-0.302,0.019-0.604,0.043-0.907,0.066
	c0.019-1.002,0.054-2.003,0.09-3.005c0.018-0.495-0.425-0.906-0.906-0.906c-0.319,0-0.579,0.174-0.74,0.42
	c-0.295-0.028-0.591-0.051-0.886-0.076c0.001-0.516,0.006-1.031-0.022-1.548c0.167,0,0.334,0.001,0.502-0.007
	c0.453-0.02,0.83-0.363,0.83-0.83c0-0.437-0.377-0.854-0.83-0.832c-0.055,0.003-0.111,0-0.166,0.002
	c-0.036-0.334-0.071-0.667-0.13-0.999c-0.08-0.447-0.206-0.87-0.387-1.289c-0.307-0.715-0.753-1.373-1.309-1.922
	c-0.623-0.617-1.341-1.124-2.122-1.517c-0.399-0.2-0.81-0.397-1.23-0.545c-0.363-0.126-0.735-0.228-1.108-0.321
	c-0.259-0.063-0.524-0.097-0.791-0.119c0.006-0.335,0.03-0.671,0.039-1.008C17.164,1.401,16.743,1,16.27,1
	c-0.487,0-0.874,0.401-0.882,0.882c-0.007,0.359-0.017,0.721-0.005,1.081c-0.053,0.008-0.106,0.012-0.159,0.02
	c-0.411,0.066-0.81,0.165-1.202,0.303c-0.413,0.144-0.81,0.357-1.192,0.565c-0.411,0.223-0.796,0.483-1.15,0.786
	c-0.363,0.309-0.667,0.647-0.928,1.044C10.275,6.404,9.916,7.195,9.6,7.999C9.423,8.448,9.267,8.901,9.143,9.367
	c-0.007,0.027-0.001,0.053-0.005,0.08C9.11,9.449,9.083,9.449,9.056,9.45c-0.479,0.026-0.878,0.379-0.878,0.878
	c0,0.457,0.399,0.91,0.878,0.88c0.004,0,0.007,0,0.011-0.001c0.006,0.367,0.016,0.735,0.023,1.103
	c0.006,0.314,0.004,0.632,0.032,0.945c-0.303-0.022-0.608-0.034-0.913-0.034c-0.127,0-0.254,0.001-0.381,0.002
	c-0.146,0-0.295,0.002-0.439,0c-0.104,0-0.204,0.025-0.297,0.062c0.002-0.059,0.003-0.118,0.004-0.177
	c0.012-0.461-0.393-0.846-0.846-0.846c-0.465,0-0.838,0.385-0.844,0.846c-0.014,0.786-0.002,1.571,0,2.359
	c0,0.189,0.001,0.377,0.002,0.566c-0.02-0.003-0.035-0.01-0.055-0.012c-0.095-0.013-0.191-0.017-0.286-0.017
	c-0.101,0-0.202,0.005-0.303,0.009c-0.535,0.02-0.98,0.429-0.98,0.98c0,0.517,0.445,1.002,0.98,0.98
	c0.196-0.008,0.393-0.024,0.589-0.032c0.048-0.002,0.089-0.022,0.135-0.03c0.053,0.622,0.113,1.243,0.18,1.863
	c0.074,0.681,0.126,1.359,0.142,2.044c0.01,0.445,0.365,0.818,0.818,0.818c0.427,0,0.846-0.373,0.818-0.818
	c-0.008-0.151-0.016-0.302-0.022-0.453c0.306-0.003,0.612-0.008,0.918-0.017c0.21-0.006,0.419-0.011,0.629-0.01
	c0.054,0.684,0.116,1.368,0.163,2.054c0.048,0.683,0.052,1.369,0.054,2.054c0,0.693,0.022,1.387,0.028,2.08
	c0.004,0.321,0.002,0.641,0.002,0.962c0.001,0.185-0.002,0.371-0.002,0.556c-0.04,0-0.08-0.001-0.119-0.001
	c-0.002,0-0.005,0-0.007,0c-0.476,0-0.873,0.405-0.873,0.88c0,0.479,0.401,0.878,0.88,0.878c0.645,0.002,1.295-0.008,1.942-0.018
	c1.15-0.016,2.301-0.034,3.451,0.006c0.874,0.03,1.749,0.028,2.623,0.032c0.882,0.002,1.763,0.02,2.645,0.034
	c0.802,0.012,1.605,0.058,2.407,0.092c0.389,0.018,0.776,0.02,1.162,0.026c0.389,0.008,0.784,0.042,1.17,0.022
	c0.471-0.024,0.866-0.375,0.866-0.864c0-0.229-0.092-0.451-0.255-0.613c-0.108-0.106-0.234-0.18-0.381-0.222
	c-0.134-0.035-0.266-0.039-0.4-0.014c-0.205,0.011-0.411,0.009-0.616,0.003c-0.031-0.605-0.085-1.209-0.123-1.816
	c-0.042-0.647-0.05-1.296-0.058-1.946c-0.015-1.353,0.003-2.705,0.019-4.058c0.291-0.005,0.581-0.01,0.871-0.02
	c0.063-0.002,0.12-0.025,0.179-0.039c0.027,0.463,0.402,0.845,0.876,0.845c0.477,0,0.896-0.401,0.886-0.884
	c-0.018-0.995-0.034-1.989-0.047-2.984c0.305-0.028,0.609-0.056,0.914-0.086c0.273-0.026,0.501-0.09,0.699-0.291
	c0.186-0.184,0.291-0.439,0.291-0.699C28.216,16.807,27.791,16.313,27.274,16.313z M11.405,8.1c0.265-0.58,0.588-1.146,0.967-1.661
	c0.246-0.287,0.518-0.536,0.81-0.774c0.432-0.299,0.888-0.567,1.366-0.784c0.428-0.16,0.861-0.279,1.312-0.357
	c0.456-0.053,0.91-0.07,1.369-0.038c0.529,0.084,1.062,0.222,1.561,0.416c0.67,0.291,1.315,0.62,1.905,1.053
	c0.356,0.287,0.681,0.605,0.974,0.958c0.205,0.284,0.376,0.585,0.521,0.905c0.159,0.407,0.258,0.827,0.324,1.258
	c0.02,0.176,0.029,0.351,0.039,0.526c-0.169-0.004-0.338-0.007-0.507-0.011c-0.84-0.02-1.677-0.042-2.517-0.09
	c-0.84-0.046-1.677-0.064-2.515-0.086c-0.868-0.022-1.735-0.078-2.601-0.078c-0.083,0-0.167,0-0.25,0
	c-1.063,0-2.125,0.016-3.188,0.046C11.103,8.947,11.24,8.518,11.405,8.1z M23.47,19.784c-0.087,0-0.174,0-0.261,0.001
	c-0.358,0-0.664,0.235-0.784,0.556c-0.34,0.115-0.593,0.43-0.593,0.805c-0.002,0.761,0.014,1.521,0.038,2.282
	c0.022,0.689,0.024,1.379,0.044,2.07c0.008,0.321,0.012,0.641,0.02,0.962c0.008,0.327,0.04,0.651,0.06,0.976
	c0.034,0.601,0.078,1.201,0.118,1.802c-0.054-0.001-0.109-0.003-0.163-0.004c-0.234-0.006-0.467-0.019-0.701-0.03
	c-0.027-0.378-0.018-0.76-0.016-1.139c0-0.435-0.004-0.87-0.004-1.307c0.002-1.01,0.006-2.022-0.012-3.034
	c-0.01-0.457-0.377-0.84-0.842-0.84c-0.449,0-0.854,0.383-0.842,0.84c0.028,1.012,0.06,2.024,0.066,3.034
	c0.002,0.413-0.002,0.826-0.002,1.237c0.002,0.382-0.002,0.769,0.025,1.151c-0.079-0.001-0.158-0.007-0.237-0.008
	c-1.731-0.01-3.461-0.02-5.192-0.056c-0.559-0.01-1.118-0.01-1.677-0.008c-0.232,0-0.465,0-0.697-0.002
	c-0.299-0.001-0.599-0.007-0.898-0.01c-0.005-0.191-0.012-0.383-0.011-0.575c0-0.321-0.002-0.641-0.004-0.962
	c-0.002-0.693-0.016-1.387-0.03-2.08c-0.012-0.659-0.018-1.321-0.05-1.98c-0.036-0.783-0.076-1.565-0.128-2.349
	c-0.024-0.36-0.229-0.673-0.545-0.803c-0.079-0.272-0.279-0.505-0.565-0.585c-0.277-0.074-0.565-0.072-0.852-0.07
	c-0.1,0-0.202,0.002-0.301-0.002c-0.381-0.01-0.765-0.019-1.146-0.023c-0.069-0.668-0.137-1.336-0.181-2.006
	c-0.046-0.698-0.074-1.393-0.068-2.092c0.002-0.242,0.012-0.484,0.017-0.726c0.103,0.046,0.215,0.075,0.333,0.075
	c0.339,0,0.679,0,1.018-0.006c0.321-0.006,0.649-0.034,0.968-0.002c0.349,0.038,0.687-0.273,0.773-0.589
	c0.014-0.051,0.007-0.104,0.011-0.157c0.148-0.037,0.289-0.098,0.399-0.207c0.102-0.104,0.174-0.227,0.214-0.369
	c0.037-0.139,0.04-0.277,0.008-0.415c-0.024-0.275-0.022-0.552-0.022-0.828c0.002-0.402,0.004-0.804,0.004-1.206
	c0.394-0.021,0.788-0.041,1.183-0.051c0.834-0.022,1.669-0.01,2.503-0.002c0.864,0.008,1.727,0.044,2.589,0.06
	c0.856,0.016,1.711,0.032,2.565,0.082c0.814,0.046,1.629,0.09,2.445,0.084c0.019,0,0.038,0,0.057,0
	c0.02,0.294,0.046,0.587,0.062,0.881c0.014,0.295,0.008,0.589,0.002,0.886c-0.003,0.175,0.065,0.33,0.16,0.467
	c-0.009,0.049-0.029,0.096-0.029,0.145c0,0.236,0.096,0.467,0.263,0.635c0.178,0.178,0.391,0.244,0.637,0.262
	c0.46,0.034,0.922,0.058,1.385,0.079c-0.007,1.026-0.004,2.052-0.015,3.078c-0.007,0.707,0.006,1.414,0.013,2.121
	c-0.054-0.012-0.105-0.034-0.161-0.036C24.103,19.787,23.787,19.784,23.47,19.784z M10.772,13.097c0,0.003,0.001,0.007,0.001,0.01
	l0-0.001C10.773,13.103,10.772,13.1,10.772,13.097z M20.319,15.029c-0.315-0.453-0.733-0.798-1.19-1.1
	c-0.403-0.267-0.846-0.451-1.303-0.599c-0.204-0.066-0.413-0.116-0.621-0.162c-0.116-0.026-0.234-0.046-0.353-0.066
	c-0.152-0.024-0.301-0.04-0.455-0.046c-0.018-0.001-0.037-0.001-0.056-0.001c-0.194,0-0.395,0.045-0.584,0.085
	c-0.088,0.022-0.176,0.048-0.263,0.074c-0.147,0.043-0.275,0.123-0.375,0.226c-0.113,0.026-0.225,0.057-0.336,0.092
	c-0.319,0.102-0.639,0.234-0.916,0.419c-0.435,0.291-0.796,0.695-1.104,1.114c-0.267,0.363-0.483,0.748-0.617,1.182
	c-0.134,0.437-0.208,0.9-0.198,1.357c0.056,2.429,2.721,3.841,4.906,3.629c0.503-0.05,1.006-0.104,1.493-0.254
	c0.341-0.104,0.677-0.247,0.976-0.443c0.208-0.138,0.405-0.299,0.581-0.473c0.16-0.16,0.289-0.351,0.427-0.531
	c0.275-0.359,0.443-0.816,0.561-1.249c0.066-0.247,0.086-0.513,0.112-0.763c0.032-0.339-0.004-0.677-0.08-1.008
	C20.804,15.991,20.628,15.472,20.319,15.029z M19.337,17.361c-0.043,0.23-0.1,0.45-0.179,0.668c-0.092,0.182-0.197,0.352-0.314,0.52
	c-0.113,0.134-0.231,0.26-0.364,0.375c-0.119,0.082-0.24,0.156-0.37,0.22c-0.3,0.11-0.61,0.179-0.925,0.234
	c-0.351,0.042-0.702,0.072-1.055,0.051c-0.321-0.056-0.633-0.132-0.943-0.237c-0.25-0.12-0.482-0.26-0.712-0.42
	c-0.114-0.096-0.22-0.196-0.32-0.307c-0.105-0.151-0.203-0.306-0.287-0.47c-0.04-0.112-0.073-0.227-0.098-0.344
	c-0.015-0.2-0.01-0.399,0.008-0.599c0.04-0.219,0.092-0.432,0.168-0.641c0.1-0.203,0.216-0.392,0.348-0.577
	c0.148-0.174,0.303-0.337,0.477-0.485c0.082-0.052,0.164-0.1,0.251-0.143c0.236-0.09,0.475-0.159,0.724-0.204
	c0.215-0.021,0.43-0.027,0.646-0.029c0.19-0.002,0.367-0.068,0.509-0.178c0.351,0.069,0.697,0.162,1.031,0.288
	c0.246,0.12,0.481,0.258,0.706,0.414c0.111,0.097,0.215,0.201,0.315,0.311c0.07,0.102,0.132,0.206,0.189,0.318
	c0.094,0.264,0.153,0.536,0.203,0.811C19.354,17.079,19.35,17.219,19.337,17.361z M18.715,27.118
	c0.096,0.427-0.124,0.866-0.559,0.986c-0.401,0.11-0.9-0.13-0.988-0.559c-0.084-0.423-0.1-0.87-0.118-1.298
	c-0.016-0.437-0.028-0.872-0.028-1.307c-0.002-0.447,0.373-0.818,0.818-0.818c0.443,0,0.82,0.371,0.818,0.818
	c-0.002,0.411,0,0.823,0.002,1.236c0.002,0.28,0.008,0.559,0.037,0.837C18.701,27.048,18.708,27.083,18.715,27.118z"/>
</svg>