<?xml version="1.0" encoding="utf-8"?>
<!-- Generator: Adobe Illustrator 21.1.0, SVG Export Plug-In . SVG Version: 6.00 Build 0)  -->
<svg version="1.1" id="designs" xmlns="http://www.w3.org/2000/svg" xmlns:xlink="http://www.w3.org/1999/xlink" x="0px" y="0px"
	 width="32px" height="32px" viewBox="0 0 32 32" style="enable-background:new 0 0 32 32;" xml:space="preserve">
<style type="text/css">
	.sketchy_een{fill:#111918;}
</style>
<path class="sketchy_een" d="M29.115,23.507c-0.141-0.799-0.376-1.575-0.596-2.354c-0.149-0.524-0.304-1.045-0.455-1.571
	c-0.006-0.019-0.012-0.038-0.017-0.058c0.216-0.122,0.432-0.243,0.649-0.363c0.411-0.226,0.541-0.78,0.31-1.175
	c-0.159-0.273-0.448-0.422-0.744-0.422c-0.147,0-0.296,0.037-0.432,0.114c-0.124,0.069-0.25,0.133-0.375,0.2
	c-0.094-0.229-0.186-0.46-0.306-0.676c-0.138-0.245-0.279-0.485-0.426-0.724c-0.242-0.393-0.48-0.795-0.681-1.214
	c0.324-0.245,0.647-0.492,0.99-0.712c0.401-0.256,0.564-0.776,0.313-1.202c-0.154-0.263-0.474-0.443-0.787-0.443
	c-0.146,0-0.29,0.039-0.415,0.127c-0.22,0.157-0.434,0.321-0.659,0.47c-0.067,0.044-0.133,0.089-0.2,0.133
	c-0.128-0.219-0.252-0.44-0.394-0.649c-0.26-0.382-0.527-0.755-0.824-1.11c-0.164-0.198-0.331-0.392-0.498-0.587
	c0.255-0.384,0.522-0.758,0.8-1.127c0.347-0.458,0.688-0.917,1.038-1.372c0.091-0.116,0.182-0.232,0.275-0.346
	c0.145-0.181,0.245-0.352,0.245-0.594c0-0.22-0.088-0.436-0.245-0.593c-0.157-0.157-0.373-0.245-0.592-0.245
	c-0.153,0-0.292,0.038-0.424,0.115c-0.126,0.074-0.225,0.174-0.3,0.3c-0.237,0.312-0.455,0.636-0.669,0.965
	c-0.224,0.34-0.461,0.667-0.707,0.99c0.01-0.013,0.02-0.025,0.03-0.038c-0.19,0.243-0.381,0.486-0.567,0.732
	c-0.194-0.167-0.396-0.327-0.594-0.479c-0.177-0.135-0.356-0.267-0.541-0.392c0.158-0.248,0.253-0.533,0.345-0.814
	c0.09-0.281,0.166-0.569,0.17-0.868c0.002-0.246-0.027-0.506-0.09-0.743c-0.107-0.403-0.256-0.809-0.434-1.185
	C21.167,5.302,21.043,5,20.854,4.73c-0.235-0.338-0.526-0.638-0.826-0.917c-0.342-0.315-0.709-0.623-1.095-0.883
	c-0.321-0.216-0.652-0.438-0.996-0.619c-0.443-0.235-0.935-0.283-1.431-0.306C16.435,2.002,16.363,2,16.291,2
	c-0.332,0-0.676,0.036-0.983,0.146c-0.291,0.101-0.558,0.245-0.829,0.382c-0.241,0.122-0.484,0.245-0.722,0.373
	c-0.342,0.187-0.636,0.449-0.94,0.692c-0.289,0.229-0.579,0.457-0.843,0.715c-0.294,0.287-0.558,0.602-0.805,0.931
	c-0.118,0.157-0.22,0.315-0.302,0.495c-0.176,0.378-0.315,0.755-0.313,1.179c0.002,0.336,0.103,0.684,0.195,1.007
	c0.151,0.533,0.405,1.022,0.717,1.479c0.021,0.031,0.049,0.052,0.072,0.081c-0.084,0.046-0.171,0.087-0.252,0.136
	c-0.426,0.256-0.819,0.555-1.192,0.877c-0.128-0.173-0.26-0.342-0.404-0.503c-0.136-0.151-0.256-0.315-0.39-0.47
	C8.841,8.991,8.367,8.481,7.92,7.944C7.775,7.77,7.504,7.682,7.284,7.682c-0.237,0-0.468,0.095-0.636,0.262
	C6.479,8.112,6.384,8.344,6.384,8.581c0,0.254,0.105,0.449,0.264,0.636c0.485,0.572,1.021,1.099,1.489,1.684
	c-0.001-0.002-0.003-0.004-0.004-0.006c0.089,0.115,0.178,0.23,0.267,0.346c0.073,0.1,0.14,0.205,0.207,0.312
	c0.06,0.098,0.139,0.178,0.226,0.246c-0.438,0.521-0.855,1.057-1.239,1.622c-0.2,0.294-0.4,0.585-0.598,0.879
	c-0.068-0.174-0.182-0.333-0.35-0.441c-0.117-0.074-0.233-0.151-0.354-0.22c-0.115-0.063-0.235-0.113-0.348-0.178
	c-0.271-0.153-0.531-0.327-0.797-0.489c-0.133-0.08-0.281-0.118-0.428-0.118c-0.302,0-0.602,0.158-0.761,0.429
	c-0.239,0.411-0.096,0.948,0.312,1.189c0.268,0.159,0.537,0.317,0.814,0.459c0.105,0.053,0.212,0.099,0.317,0.153
	c0.136,0.071,0.256,0.164,0.382,0.25c0.15,0.103,0.326,0.12,0.499,0.1c-0.001,0.002-0.003,0.004-0.004,0.007
	c-0.453,0.799-0.807,1.64-1.124,2.498c-0.004,0.012-0.009,0.024-0.013,0.036c-0.326-0.122-0.663-0.213-0.991-0.328
	c-0.053-0.026-0.105-0.053-0.156-0.082c-0.141-0.081-0.297-0.12-0.45-0.12c-0.311,0-0.615,0.158-0.782,0.443
	c-0.247,0.42-0.101,0.988,0.323,1.233c0.327,0.187,0.669,0.277,1.026,0.371c0.158,0.042,0.314,0.085,0.468,0.138
	c0.002,0.001,0.004,0.002,0.006,0.003c0.007,0.003,0.014,0.003,0.021,0.006c-0.066,0.257-0.134,0.514-0.198,0.773
	c-0.193,0.786-0.392,1.571-0.524,2.37c-0.147,0.895-0.252,1.787-0.292,2.693c-0.019,0.403,0.023,0.814,0.069,1.214
	c0.054,0.47,0.157,0.931,0.31,1.38c0.157,0.457,0.505,0.823,0.923,1.055c0.212,0.115,0.436,0.205,0.661,0.291
	c0.333,0.126,0.696,0.241,1.049,0.291c0.233,0.032,0.457,0.061,0.692,0.053c0.268-0.01,0.535-0.073,0.789-0.149
	c0.449-0.132,0.875-0.35,1.28-0.577c0.73-0.411,1.37-0.952,1.946-1.554c0.266,0.247,0.528,0.498,0.816,0.725
	c-0.023-0.018-0.046-0.035-0.069-0.052c0.052,0.041,0.104,0.081,0.157,0.121c0.006,0.004,0.011,0.009,0.017,0.013
	c-0.003-0.002-0.006-0.005-0.009-0.007c0.208,0.159,0.419,0.31,0.659,0.42c0.312,0.145,0.652,0.287,0.994,0.344
	c0.397,0.069,0.797,0.138,1.196,0.201c0.428,0.067,0.856,0.136,1.29,0.144c0.443,0.008,0.896-0.073,1.33-0.14
	c0.262-0.038,0.51-0.113,0.763-0.189c0.434-0.134,0.854-0.308,1.263-0.505c0.344-0.166,0.652-0.397,0.95-0.634
	c0.068-0.056,0.132-0.117,0.198-0.176c0.143,0.149,0.276,0.309,0.429,0.447c0.191,0.17,0.411,0.315,0.615,0.468
	c0.174,0.13,0.346,0.262,0.518,0.392c0.352,0.262,0.734,0.459,1.137,0.627c0.713,0.3,1.481,0.371,2.246,0.302
	c0.457-0.04,0.914-0.101,1.351-0.241c0.235-0.076,0.472-0.162,0.69-0.279c0.321-0.174,0.571-0.428,0.745-0.747
	c0.216-0.399,0.331-0.847,0.459-1.279c0.118-0.405,0.216-0.799,0.268-1.221C29.434,25.305,29.271,24.395,29.115,23.507z
	 M19.84,6.585c0.108,0.274,0.207,0.559,0.263,0.849c0.004,0.059,0.005,0.118,0.003,0.177C20.059,7.837,20,8.061,19.921,8.278
	c-0.025,0.049-0.052,0.097-0.082,0.143c0.002-0.002,0.003-0.004,0.005-0.007c-0.08,0.117-0.125,0.245-0.14,0.391
	c-0.165,0.001-0.33,0.011-0.495,0.021c-0.001-0.146-0.024-0.292-0.104-0.401c-0.233-0.316-0.442-0.65-0.61-1.004
	c-0.02-0.063-0.035-0.125-0.047-0.192c-0.022-0.194-0.04-0.387-0.032-0.581c0.035-0.178,0.085-0.349,0.146-0.521
	c0.096-0.202,0.209-0.399,0.336-0.583c0.051-0.057,0.109-0.109,0.168-0.16c0.107,0.119,0.219,0.234,0.322,0.356
	C19.567,6.002,19.71,6.295,19.84,6.585z M15.8,3.851c0.113-0.044,0.228-0.078,0.347-0.103c0.254-0.025,0.507-0.026,0.762-0.003
	c0.069,0.014,0.136,0.031,0.203,0.052c0.153,0.077,0.296,0.169,0.44,0.263c0.13,0.085,0.259,0.171,0.387,0.259
	c-0.225,0.242-0.413,0.534-0.582,0.814c-0.231,0.378-0.39,0.807-0.466,1.242c-0.038,0.226-0.05,0.451-0.038,0.68
	c0.015,0.321,0.042,0.642,0.151,0.948c0.111,0.307,0.258,0.598,0.422,0.88c-0.079,0.001-0.158,0.005-0.239,0
	c-0.189-0.012-0.379-0.012-0.568-0.022C16.508,8.802,16.39,8.76,16.26,8.76c-0.008,0-0.016,0-0.024,0
	c-0.078-0.021-0.156-0.035-0.238-0.035c-0.071,0-0.145,0.01-0.222,0.031c-0.017,0.005-0.03,0.018-0.046,0.023
	c-0.182,0.007-0.365,0.014-0.547,0.02c0.094-0.223,0.178-0.451,0.242-0.686c0.111-0.405,0.164-0.843,0.187-1.261
	c0.017-0.323,0-0.64-0.082-0.956c-0.063-0.243-0.174-0.478-0.289-0.699c-0.147-0.284-0.333-0.574-0.561-0.816
	c0.038-0.02,0.073-0.047,0.112-0.065C15.125,4.156,15.462,3.999,15.8,3.851z M12.408,6.338c0.062-0.117,0.137-0.226,0.216-0.335
	c0.22-0.267,0.474-0.504,0.74-0.724c0.027,0.022,0.045,0.051,0.075,0.07c0.003,0.002,0.007,0.004,0.01,0.007
	c0.05,0.047,0.097,0.097,0.142,0.149c0.135,0.198,0.247,0.415,0.346,0.634c0.04,0.108,0.072,0.217,0.095,0.329
	c0.01,0.216-0.005,0.435-0.029,0.651c-0.044,0.283-0.101,0.561-0.199,0.831c-0.117,0.247-0.251,0.488-0.38,0.728
	c-0.032,0.06-0.043,0.124-0.06,0.187c-0.075,0.01-0.152,0.015-0.226,0.027c-0.004-0.143-0.032-0.284-0.117-0.406
	c-0.199-0.285-0.378-0.57-0.527-0.884c-0.089-0.25-0.15-0.516-0.195-0.78c-0.002-0.035-0.003-0.069-0.003-0.103
	C12.328,6.591,12.364,6.464,12.408,6.338z M5.598,27.529c-0.002-0.002-0.003-0.005-0.005-0.008c0.002,0.003,0.004,0.006,0.007,0.009
	L5.598,27.529z M5.6,27.533c0.001,0,0.002,0.001,0.003,0.002c0.018,0.023,0.036,0.047,0.054,0.07
	C5.636,27.582,5.617,27.558,5.6,27.533z M9.452,26.988C8.997,27.315,8.511,27.584,8,27.813c-0.21,0.082-0.42,0.149-0.64,0.191
	c-0.116,0.007-0.229,0.007-0.343-0.001c-0.381-0.067-0.763-0.176-1.124-0.312c-0.08-0.038-0.157-0.079-0.233-0.124
	c-0.032-0.03-0.063-0.06-0.094-0.091c-0.105-0.29-0.179-0.587-0.232-0.891c-0.045-0.414-0.072-0.83-0.059-1.247
	c0.014-0.437,0.057-0.87,0.11-1.302c0.166-1.109,0.378-2.211,0.639-3.303c0.136-0.573,0.269-1.145,0.468-1.701
	c0.182-0.507,0.376-1.01,0.58-1.509c0.667-1.461,1.551-2.818,2.501-4.113c0.507-0.637,1.057-1.234,1.672-1.771
	c0.485-0.357,0.997-0.654,1.546-0.906c0.265-0.104,0.533-0.191,0.813-0.242c0.578-0.062,1.162-0.062,1.746-0.062
	c0.094,0,0.188-0.002,0.282-0.002c0.036,0.019,0.065,0.046,0.104,0.061c-0.01,0.669-0.014,1.339-0.014,2.007
	c0,0.757-0.059,1.508-0.092,2.261c-0.033,0.728,0,1.451,0.002,2.179c0.004,0.724,0.002,1.451,0.004,2.175
	c0,0.396,0.009,0.794,0.019,1.19c-0.213,0.37-0.436,0.739-0.69,1.08c-0.392,0.477-0.866,0.87-1.271,1.334
	c-0.434,0.497-0.866,0.994-1.328,1.468c-0.468,0.482-0.969,0.933-1.447,1.405C10.441,26.066,9.978,26.557,9.452,26.988z
	 M19.532,26.624c-0.268,0.194-0.55,0.362-0.85,0.5c-0.544,0.217-1.116,0.39-1.696,0.479c-0.223,0.027-0.448,0.049-0.673,0.044
	c-0.202-0.005-0.404-0.023-0.605-0.046c-0.421-0.062-0.838-0.147-1.259-0.216c-0.275-0.044-0.548-0.118-0.811-0.215
	c-0.122-0.06-0.238-0.13-0.348-0.209c-0.276-0.226-0.53-0.472-0.781-0.724c0.167-0.171,0.33-0.346,0.498-0.516
	c0.547-0.556,1.074-1.13,1.581-1.722c0.252-0.292,0.522-0.566,0.799-0.835c0.304-0.292,0.581-0.593,0.841-0.927
	c0.091-0.118,0.168-0.243,0.25-0.365c0.129,0.233,0.26,0.465,0.403,0.689c0.161,0.252,0.319,0.51,0.501,0.747
	c0.188,0.246,0.383,0.488,0.575,0.733c0.552,0.744,1.035,1.537,1.634,2.246c0.048,0.057,0.097,0.116,0.145,0.173
	C19.668,26.515,19.6,26.57,19.532,26.624z M27.715,25.988c-0.063,0.348-0.175,0.675-0.307,1.001
	c-0.118,0.276-0.24,0.551-0.397,0.807c-0.002,0.002-0.004,0.004-0.007,0.007c-0.066,0.043-0.135,0.081-0.206,0.117
	c-0.348,0.125-0.711,0.199-1.077,0.257c-0.3,0.029-0.596,0.02-0.896-0.012c-0.246-0.045-0.479-0.121-0.713-0.212
	c-0.564-0.266-1.051-0.643-1.548-1.016c-0.382-0.315-0.713-0.7-1.048-1.063c-0.368-0.402-0.737-0.809-1.082-1.234
	c-0.301-0.406-0.595-0.815-0.91-1.213c-0.279-0.355-0.576-0.692-0.865-1.04c-0.229-0.31-0.45-0.631-0.639-0.967
	c-0.25-0.449-0.47-0.913-0.701-1.372c-0.033-0.066-0.087-0.112-0.138-0.161c-0.009-0.567,0.002-1.133-0.004-1.699
	c-0.008-0.757-0.027-1.514-0.044-2.271c-0.015-0.707,0.006-1.414,0.04-2.121c0.036-0.77,0.048-1.54,0.069-2.311
	c0.008-0.294,0.021-0.588,0.032-0.883c0.156-0.006,0.312-0.005,0.467-0.022c0.369-0.036,0.74-0.034,1.108-0.046
	c0.379-0.009,0.754-0.043,1.131-0.005c0.083,0.013,0.165,0.029,0.245,0.052c0.177,0.099,0.346,0.218,0.509,0.34
	c0.198,0.159,0.385,0.331,0.573,0.499c0.182,0.163,0.334,0.359,0.487,0.549c0.421,0.514,0.852,1.022,1.263,1.544
	c0.261,0.357,0.521,0.719,0.749,1.099c0.247,0.413,0.443,0.845,0.656,1.277c0.218,0.441,0.461,0.868,0.707,1.294
	c0.259,0.445,0.524,0.887,0.727,1.363c0.202,0.487,0.39,0.977,0.553,1.479c0.174,0.535,0.355,1.066,0.531,1.6
	c0.174,0.531,0.336,1.061,0.459,1.605c0.112,0.495,0.19,0.998,0.261,1.5C27.745,25.15,27.752,25.569,27.715,25.988z M26.4,23.639
	c0.111,0.428-0.134,0.879-0.566,0.998c-0.407,0.111-0.902-0.136-0.996-0.566c-0.08-0.373-0.185-0.74-0.277-1.108
	c-0.072-0.292-0.154-0.573-0.26-0.852c-0.06-0.129-0.125-0.254-0.185-0.383c-0.113-0.245-0.218-0.491-0.313-0.742
	c-0.191-0.501-0.378-1.001-0.554-1.506c-0.155-0.44,0.17-0.933,0.594-1.049c0.077-0.021,0.152-0.031,0.226-0.031
	c0.377,0,0.701,0.259,0.825,0.627c0.12,0.355,0.235,0.711,0.354,1.068c0.066,0.2,0.129,0.404,0.203,0.603
	c0.081,0.167,0.179,0.325,0.267,0.489c0.136,0.25,0.243,0.535,0.313,0.812C26.17,22.542,26.26,23.096,26.4,23.639z"/>
</svg>