<?xml version="1.0" encoding="utf-8"?>
<!-- Generator: Adobe Illustrator 21.1.0, SVG Export Plug-In . SVG Version: 6.00 Build 0)  -->
<svg version="1.1" id="designs" xmlns="http://www.w3.org/2000/svg" xmlns:xlink="http://www.w3.org/1999/xlink" x="0px" y="0px"
	 width="32px" height="32px" viewBox="0 0 32 32" style="enable-background:new 0 0 32 32;" xml:space="preserve">
<style type="text/css">
	.sketchy_een{fill:#111918;}
</style>
<path class="sketchy_een" d="M29.579,14.416c-0.229-0.313-0.491-0.558-0.81-0.777c-0.382-0.264-0.81-0.447-1.192-0.71
	c-0.19-0.163-0.361-0.341-0.522-0.533c-0.193-0.271-0.357-0.553-0.523-0.842c-0.21-0.364-0.435-0.72-0.651-1.08
	c-0.443-0.737-0.987-1.396-1.557-2.039c-0.269-0.304-0.549-0.606-0.849-0.88c-0.354-0.321-0.728-0.616-1.113-0.899
	c-0.71-0.516-1.503-0.872-2.3-1.228c-0.833-0.373-1.682-0.701-2.581-0.87c-0.434-0.082-0.889-0.127-1.334-0.127
	c-0.026,0-0.053,0-0.079,0c-0.491,0.006-0.974,0.06-1.461,0.127c-0.839,0.118-1.665,0.291-2.456,0.599
	c-0.785,0.304-1.54,0.737-2.237,1.209C9.208,6.844,8.588,7.41,8.086,8.101c-0.437,0.599-0.822,1.249-1.17,1.904
	c-0.345,0.648-0.664,1.314-0.97,1.982c-0.142,0.314-0.275,0.633-0.447,0.934c-0.153,0.267-0.322,0.525-0.505,0.772
	c-0.095,0.114-0.192,0.224-0.303,0.323c-0.125,0.087-0.254,0.165-0.392,0.233c-0.387,0.149-0.779,0.287-1.154,0.465
	c-0.227,0.108-0.433,0.266-0.601,0.451c-0.235,0.26-0.377,0.573-0.479,0.904c-0.11,0.353-0.067,0.73,0.029,1.078
	c0.042,0.156,0.121,0.302,0.185,0.452c0.11,0.25,0.283,0.491,0.462,0.697c0.283,0.327,0.626,0.579,1.028,0.745
	c0.5,0.205,1.018,0.307,1.554,0.333c0.027,0.032,0.055,0.065,0.082,0.098c0.25,0.345,0.439,0.716,0.616,1.104
	c0.203,0.492,0.402,0.981,0.677,1.44c0.133,0.221,0.289,0.429,0.443,0.635c0.196,0.261,0.389,0.521,0.588,0.778
	c0.526,0.664,1.124,1.272,1.758,1.833c0.337,0.298,0.705,0.555,1.095,0.776c0.37,0.208,0.764,0.372,1.153,0.537
	c0.425,0.181,0.849,0.356,1.292,0.489c0.406,0.123,0.82,0.216,1.24,0.287c0.86,0.144,1.75,0.23,2.624,0.215
	c0.884-0.015,1.773-0.164,2.61-0.451c0.847-0.291,1.677-0.631,2.447-1.089c0.783-0.464,1.511-1.047,2.15-1.694
	c0.333-0.339,0.628-0.726,0.901-1.112c0.233-0.333,0.475-0.662,0.687-1.009c0.187-0.306,0.356-0.62,0.514-0.941
	c0.144-0.292,0.275-0.591,0.433-0.877c0.312-0.578,0.618-1.165,1.004-1.697c0.333-0.387,0.735-0.691,1.13-1.011
	c0.196-0.158,0.395-0.308,0.574-0.485c0.115-0.116,0.216-0.249,0.314-0.377c0.25-0.331,0.358-0.708,0.345-1.122
	C29.987,15.273,29.831,14.761,29.579,14.416z M3.757,16.592c0.001,0.005,0.001,0.01,0.002,0.015c0,0,0-0.001,0-0.001
	C3.757,16.602,3.757,16.597,3.757,16.592z M3.758,16.609l0.001,0.002c0.003,0.022,0.006,0.045,0.01,0.067
	C3.764,16.655,3.761,16.632,3.758,16.609z M28.322,15.884c-0.098,0.11-0.204,0.209-0.318,0.302
	c-0.531,0.392-1.087,0.757-1.545,1.238c-0.262,0.275-0.477,0.604-0.678,0.926c-0.193,0.308-0.368,0.625-0.545,0.941
	c-0.325,0.583-0.587,1.201-0.932,1.774c-0.33,0.556-0.704,1.088-1.094,1.603c-0.202,0.247-0.411,0.485-0.639,0.709
	c-0.192,0.189-0.399,0.36-0.608,0.528c-0.333,0.244-0.674,0.474-1.034,0.679c-0.324,0.185-0.664,0.342-1.006,0.491
	c-0.739,0.3-1.486,0.559-2.273,0.689c-0.902,0.088-1.804,0.049-2.704-0.063c-0.78-0.127-1.526-0.333-2.256-0.63
	c-0.617-0.263-1.231-0.534-1.779-0.927c-0.448-0.366-0.867-0.773-1.277-1.183c-0.387-0.387-0.725-0.813-1.06-1.245
	c-0.211-0.278-0.415-0.563-0.581-0.873c-0.162-0.306-0.294-0.622-0.437-0.938c-0.148-0.329-0.314-0.648-0.504-0.955
	c-0.237-0.372-0.539-0.699-0.839-1.017c-0.068-0.072-0.148-0.126-0.234-0.166c-0.151-0.113-0.339-0.182-0.54-0.187
	c-0.135-0.003-0.269-0.006-0.402-0.016c-0.215-0.041-0.426-0.101-0.631-0.177c-0.058-0.032-0.113-0.066-0.167-0.103
	c-0.088-0.08-0.168-0.163-0.245-0.251c-0.07-0.107-0.134-0.216-0.191-0.33C3.787,16.65,3.77,16.59,3.755,16.529
	c0.011-0.048,0.024-0.095,0.039-0.143c0.015-0.028,0.032-0.056,0.049-0.083c0.002-0.002,0.004-0.004,0.007-0.007
	c0.139-0.089,0.287-0.161,0.439-0.228c0.304-0.123,0.611-0.238,0.903-0.385c0.137-0.069,0.262-0.162,0.383-0.252
	c0.202-0.15,0.377-0.3,0.531-0.497c0.252-0.316,0.485-0.645,0.687-0.994c0.189-0.323,0.335-0.666,0.487-1.004
	c0.607-1.359,1.254-2.717,2.14-3.919c0.299-0.362,0.625-0.693,0.987-0.99c0.348-0.247,0.705-0.468,1.075-0.681
	c0.385-0.218,0.77-0.43,1.171-0.613c0.367-0.145,0.735-0.275,1.122-0.363c0.412-0.093,0.829-0.169,1.249-0.234
	c0.349-0.043,0.695-0.076,1.046-0.08c0.335-0.005,0.668,0.024,1,0.063c0.36,0.068,0.708,0.157,1.057,0.27
	c0.297,0.096,0.586,0.214,0.873,0.334c0.442,0.193,0.887,0.383,1.317,0.599c0.466,0.237,0.898,0.512,1.321,0.818
	c0.419,0.336,0.812,0.692,1.17,1.093c0.36,0.403,0.716,0.815,1.053,1.238c0.301,0.409,0.564,0.836,0.821,1.274
	c0.142,0.241,0.293,0.478,0.425,0.726c0.123,0.237,0.25,0.469,0.406,0.687c0.366,0.516,0.795,0.97,1.332,1.311
	c0.206,0.129,0.431,0.231,0.647,0.341c0.186,0.093,0.363,0.198,0.531,0.318c0.066,0.057,0.128,0.116,0.187,0.18
	c0.031,0.046,0.06,0.094,0.086,0.144c0.027,0.082,0.051,0.165,0.069,0.249c0.002,0.036,0.003,0.071,0.002,0.106
	C28.354,15.835,28.339,15.86,28.322,15.884z M7.687,23.377c0.014,0.018,0.028,0.035,0.042,0.053c0.02,0.025,0.039,0.051,0.059,0.076
	C7.754,23.463,7.721,23.42,7.687,23.377z M24.377,18.332c0.054,0.191,0.04,0.455-0.081,0.622c-0.092,0.129-0.187,0.256-0.281,0.385
	c-0.497,0.672-0.98,1.359-1.521,1.998c-0.262,0.312-0.537,0.61-0.83,0.895c-0.32,0.31-0.679,0.58-1.036,0.845
	c-0.658,0.489-1.38,0.899-2.175,1.122c-0.389,0.108-0.787,0.183-1.188,0.223c-0.332,0.032-0.664,0.043-0.997,0.07
	c-0.219,0.043-0.425,0.031-0.622-0.083c-0.183-0.106-0.318-0.283-0.375-0.487c-0.058-0.209-0.027-0.438,0.083-0.627
	c0.098-0.167,0.289-0.34,0.487-0.374c0.312-0.054,0.62-0.04,0.934-0.062c0.197-0.012,0.392-0.029,0.588-0.05
	c0.197-0.03,0.393-0.067,0.586-0.12c0.221-0.061,0.434-0.138,0.646-0.222c0.514-0.232,0.977-0.542,1.427-0.882
	c0.607-0.486,1.136-1.05,1.622-1.656c0.435-0.585,0.836-1.196,1.258-1.791c0.125-0.179,0.266-0.312,0.481-0.372
	c0.07-0.019,0.142-0.028,0.213-0.028c0.143,0,0.285,0.038,0.408,0.109C24.186,17.955,24.321,18.13,24.377,18.332z"/>
</svg>