<?xml version="1.0" encoding="utf-8"?>
<!-- Generator: Adobe Illustrator 21.1.0, SVG Export Plug-In . SVG Version: 6.00 Build 0)  -->
<svg version="1.1" id="designs" xmlns="http://www.w3.org/2000/svg" xmlns:xlink="http://www.w3.org/1999/xlink" x="0px" y="0px"
	 width="32px" height="32px" viewBox="0 0 32 32" style="enable-background:new 0 0 32 32;" xml:space="preserve">
<style type="text/css">
	.sketchy_een{fill:#111918;}
</style>
<path class="sketchy_een" d="M15.523,17.146c0.199-0.154,0.337-0.385,0.337-0.643c0-0.419-0.373-0.855-0.819-0.819
	c-0.035,0.003-0.071,0.002-0.105,0.004c-0.086-0.136-0.161-0.278-0.241-0.419c-0.096-0.171-0.204-0.334-0.297-0.509
	c-0.218-0.415-0.448-0.823-0.672-1.234c-0.114-0.208-0.248-0.401-0.375-0.599c-0.114-0.177-0.214-0.36-0.334-0.532
	c-0.177-0.254-0.324-0.519-0.476-0.788c-0.199-0.36-0.391-0.723-0.573-1.091c0.012-0.054,0.037-0.109,0.031-0.16
	c-0.053-0.409-0.01-0.831,0.022-1.24c0.018-0.248,0.029-0.495,0.037-0.743c0.008-0.299,0.033-0.593,0.035-0.892
	c0.003-0.352-0.23-0.652-0.545-0.771c-0.038-0.034-0.061-0.081-0.106-0.107c-0.12-0.071-0.25-0.106-0.387-0.106
	c-0.059,0-0.117,0.006-0.172,0.019c-0.099-0.001-0.199-0.009-0.298-0.013c-0.173-0.008-0.348-0.016-0.523-0.02
	C9.527,6.467,8.992,6.461,8.456,6.461c-0.296,0-0.548,0.17-0.694,0.41C7.58,7.029,7.457,7.255,7.45,7.514
	C7.432,8.092,7.462,8.668,7.458,9.244C7.456,9.546,7.454,9.849,7.46,10.151c0.004,0.256,0.026,0.501,0.065,0.757
	c0.003,0.011,0.014,0.019,0.018,0.03c-0.252,0.369-0.506,0.735-0.752,1.107c-0.31,0.47-0.615,0.941-0.931,1.407
	c-0.308,0.454-0.574,0.933-0.863,1.399c-0.131,0.21-0.254,0.425-0.377,0.64c-0.387,0.049-0.698,0.403-0.698,0.791
	c0,0.197,0.08,0.368,0.196,0.506l0,0.001c-0.029,0.79-0.004,1.58-0.024,2.37c-0.02,0.735-0.085,1.466-0.106,2.201
	c-0.039,1.368-0.018,2.737-0.012,4.105c0.004,1.014,0.024,2.028,0.014,3.042c-0.004,0.303-0.002,0.605-0.008,0.906
	c-0.004,0.256,0.014,0.519-0.022,0.774c-0.026,0.193,0.1,0.426,0.232,0.558c0.147,0.147,0.35,0.232,0.558,0.232
	c0.014,0,0.027-0.007,0.041-0.008c0.033,0.005,0.062,0.02,0.096,0.022c0.348,0.018,0.694,0.008,1.041,0
	c0.252-0.008,0.503-0.014,0.757-0.012c0.56,0.006,1.122-0.024,1.682-0.053c0.684-0.037,1.375-0.033,2.061-0.035
	c0.35,0,0.7,0.016,1.049,0.018c0.122,0.002,0.242,0,0.364-0.002s0.244-0.004,0.366-0.004c0.442,0,0.886-0.035,1.328-0.033
	c0.147,0.002,0.297-0.004,0.446-0.01c0.252-0.01,0.505-0.022,0.753,0c0.254,0.021,0.473-0.13,0.614-0.334
	c0.197-0.102,0.346-0.261,0.423-0.477c0.061-0.175,0.031-0.415,0.026-0.599c-0.006-0.159-0.014-0.318-0.022-0.477
	c-0.016-0.316-0.035-0.633-0.041-0.949c-0.012-0.605-0.006-1.212-0.049-1.816c-0.022-0.291-0.031-0.584-0.035-0.876
	c-0.002-0.181-0.02-0.359-0.028-0.54c-0.012-0.338-0.01-0.676-0.024-1.014c-0.014-0.33-0.031-0.66-0.037-0.99
	c-0.012-0.682-0.028-1.364-0.071-2.043c-0.047-0.719-0.029-1.448-0.018-2.169C15.48,18.097,15.503,17.621,15.523,17.146z
	 M10.459,8.039c0.019,0.35,0.039,0.701,0.033,1.052c-0.004,0.309-0.026,0.618-0.046,0.927C9.98,9.982,9.515,9.946,9.048,9.924
	C9.047,9.697,9.05,9.47,9.049,9.244C9.048,8.859,9.081,8.474,9.115,8.091c0.293-0.009,0.586-0.015,0.88-0.028
	C10.149,8.056,10.304,8.048,10.459,8.039z M7.439,13.694c0.267-0.392,0.54-0.78,0.825-1.159c0.24-0.308,0.473-0.621,0.704-0.935
	c0.6,0.015,1.202,0.016,1.803,0.027c0.288,0.516,0.605,1.013,0.937,1.503c0.25,0.367,0.458,0.759,0.694,1.134
	c0.118,0.185,0.218,0.377,0.316,0.574c0.112,0.222,0.236,0.442,0.352,0.662c0.038,0.073,0.075,0.146,0.112,0.219
	c-0.237,0.004-0.473,0.006-0.71,0c-0.8-0.02-1.598-0.075-2.395-0.108c-0.395-0.016-0.788-0.029-1.181-0.043
	c-0.2-0.006-0.401-0.021-0.601-0.012c-0.674,0.027-1.349,0.011-2.023-0.016c0.163-0.285,0.331-0.567,0.499-0.849
	C6.977,14.348,7.213,14.024,7.439,13.694z M13.708,29.408c-0.389,0.03-0.774,0.022-1.163,0.026
	c-0.497,0.004-0.992,0.029-1.489,0.024c-0.328-0.004-0.656-0.031-0.984-0.033c-0.328-0.004-0.658-0.018-0.986-0.018
	c-0.715-0.002-1.429-0.029-2.144-0.055c-0.267-0.008-0.534-0.008-0.802,0c-0.136,0.006-0.271-0.014-0.407-0.026
	c-0.077-0.006-0.155-0.012-0.232-0.018c0-0.063-0.005-0.127-0.005-0.19c0.002-0.444-0.004-0.89-0.02-1.332
	c-0.01-0.236,0-0.472-0.002-0.707c0-0.289-0.004-0.58-0.006-0.87c0-0.67,0.035-1.342,0.022-2.014
	c-0.004-0.24-0.014-0.481-0.01-0.721c0.002-0.279,0.024-0.558,0.033-0.837c0.026-0.629,0.002-1.256,0.01-1.885
	c0.004-0.295,0.026-0.589,0.041-0.882c0.018-0.354,0.024-0.709,0.031-1.065c0.01-0.573,0.049-1.145,0.084-1.716
	c0.504-0.009,1.009-0.022,1.513-0.027c0.338-0.006,0.678-0.018,1.014,0.012c0.193,0.018,0.379,0.018,0.572,0.016
	c0.354-0.002,0.709,0.018,1.063,0.024c0.405,0.01,0.81,0.031,1.214,0.047c0.77,0.029,1.541,0.049,2.311,0.09
	c0.059,0.002,0.119,0.008,0.178,0.014c0.149,0.021,0.297,0.04,0.45,0.033c0.008,0,0.016,0,0.023,0c-0.006,0.337-0.014,0.673,0,1.01
	c0.016,0.383,0.039,0.766,0.051,1.15c0.012,0.352,0.004,0.701,0.012,1.051c0.006,0.312,0.028,0.623,0.043,0.935
	c0.016,0.36,0.018,0.715,0.016,1.075c0,0.346,0.018,0.692,0.02,1.035c0.004,0.55,0.026,1.099,0.024,1.647
	c0,0.464,0.01,0.929,0.016,1.393c0.004,0.279,0,0.556-0.002,0.833c0,0.144-0.012,0.287-0.01,0.43c0,0.177,0.01,0.354,0.014,0.531
	c0.008,0.32,0.028,0.637,0.028,0.957c0,0.007,0.001,0.015,0.001,0.022C14.055,29.38,13.882,29.394,13.708,29.408z M12.948,7.987
	c-0.059-0.216-0.029-0.45,0.083-0.642c0.1-0.171,0.297-0.348,0.499-0.383c0.786-0.135,1.574-0.255,2.366-0.361
	c-0.008,0.001-0.017,0.002-0.025,0.003c0.023-0.003,0.047-0.006,0.07-0.009c0.035-0.005,0.071-0.01,0.106-0.014
	c0.094-0.013,0.188-0.026,0.282-0.038c-0.037,0.005-0.075,0.01-0.112,0.016c0.059-0.008,0.117-0.016,0.175-0.024
	c0.01-0.001,0.019-0.002,0.029-0.004c-0.005,0.001-0.011,0.001-0.017,0.002c0.012-0.002,0.025-0.003,0.037-0.005
	c0.321-0.042,0.643-0.081,0.964-0.115c0.013-0.001,0.027-0.002,0.041-0.002c0.168,0,0.352,0.098,0.462,0.21
	c0.134,0.134,0.208,0.314,0.208,0.503c0,0.308-0.214,0.611-0.521,0.686c-1.201,0.291-2.411,0.523-3.623,0.759
	c-0.226,0.043-0.436,0.035-0.641-0.085C13.145,8.376,13.005,8.195,12.948,7.987z M16.391,6.534
	c-0.021,0.003-0.042,0.005-0.063,0.008C16.349,6.54,16.371,6.537,16.391,6.534c0.046-0.007,0.091-0.012,0.135-0.018
	c-0.028,0.004-0.057,0.008-0.085,0.012c-0.016,0.002-0.031,0.004-0.047,0.006c0.003,0,0.006-0.001,0.009-0.001
	C16.399,6.533,16.395,6.534,16.391,6.534z M12.601,10.192c0.111-0.406,0.476-0.644,0.87-0.644c0.073,0,0.147,0.008,0.221,0.025
	c1.269,0.291,2.527,0.617,3.777,0.986c0.405,0.12,0.654,0.54,0.54,0.953c-0.053,0.194-0.183,0.362-0.356,0.464
	c-0.195,0.114-0.383,0.114-0.597,0.079c-1.287-0.21-2.56-0.503-3.836-0.772C12.748,11.182,12.479,10.636,12.601,10.192z
	 M27.986,5.398c-0.086-0.232-0.183-0.47-0.312-0.682c-0.13-0.212-0.291-0.418-0.45-0.607c-0.09-0.11-0.202-0.198-0.308-0.291
	c-0.165-0.143-0.328-0.283-0.503-0.415c-0.11-0.083-0.277-0.146-0.401-0.191c-0.102-0.035-0.202-0.067-0.307-0.096
	c-0.149-0.039-0.303-0.065-0.456-0.086c-0.27-0.04-0.541-0.066-0.815-0.066c-0.035,0-0.071,0-0.106,0.001
	c-0.151,0.004-0.301,0.024-0.452,0.043c-0.216,0.03-0.432,0.055-0.645,0.114c-0.326,0.088-0.635,0.232-0.941,0.371
	c-0.173,0.079-0.305,0.285-0.354,0.46c-0.055,0.198-0.026,0.415,0.077,0.593c0.208,0.354,0.698,0.499,1.053,0.275
	c0.102-0.064,0.206-0.121,0.314-0.173c0.166-0.065,0.332-0.12,0.508-0.153c0.322-0.036,0.652-0.049,0.974-0.017
	c0.233,0.038,0.467,0.085,0.692,0.158c0.051,0.026,0.1,0.055,0.147,0.088c0.194,0.155,0.386,0.314,0.548,0.504
	c0.1,0.137,0.191,0.279,0.261,0.433C26.545,5.75,26.578,5.839,26.6,5.93c0.005,0.108,0,0.216-0.011,0.324
	c-0.038,0.199-0.106,0.39-0.18,0.58c-0.105,0.215-0.245,0.398-0.384,0.594c-0.096,0.136-0.167,0.288-0.265,0.425
	c-0.099,0.121-0.204,0.241-0.319,0.346c-0.174,0.111-0.387,0.196-0.513,0.352c-0.136,0.163-0.226,0.33-0.226,0.546
	c0,0.21,0.084,0.393,0.224,0.546c0.075,0.083,0.155,0.126,0.248,0.173c0.05,0.026,0.098,0.056,0.145,0.088
	c0.073,0.064,0.14,0.133,0.202,0.208c0.045,0.065,0.087,0.132,0.125,0.203c0.037,0.11,0.066,0.227,0.088,0.342
	c0.007,0.145-0.009,0.296-0.027,0.442c-0.025,0.165-0.066,0.33-0.124,0.487c-0.06,0.127-0.129,0.25-0.209,0.366
	c-0.133,0.154-0.283,0.299-0.441,0.427c-0.241,0.178-0.497,0.34-0.768,0.469c-0.113,0.041-0.23,0.072-0.348,0.094
	c-0.122,0.009-0.242,0.007-0.366-0.006c-0.212-0.024-0.422-0.037-0.637-0.041c-0.189-0.004-0.407,0.025-0.588,0.061
	c-0.318,0.063-0.603,0.352-0.658,0.668c-0.018,0.1-0.025,0.2-0.035,0.3c-0.027,0.16-0.065,0.321-0.121,0.472
	c-0.054,0.12-0.111,0.241-0.183,0.351c-0.091,0.103-0.19,0.202-0.293,0.291c-0.053,0.035-0.107,0.067-0.164,0.097
	c-0.067,0.024-0.134,0.044-0.203,0.058c-0.169,0.01-0.338-0.002-0.506-0.021c-0.144-0.028-0.285-0.068-0.422-0.118
	c-0.086-0.041-0.169-0.087-0.248-0.14c-0.089-0.079-0.168-0.166-0.242-0.261c0.041,0.053,0.083,0.106,0.124,0.159
	c-0.159-0.204-0.35-0.414-0.469-0.648c-0.134-0.346-0.244-0.702-0.366-1.052c-0.073-0.21-0.185-0.383-0.383-0.497
	c-0.193-0.114-0.426-0.144-0.643-0.084c-0.208,0.057-0.389,0.196-0.497,0.383c-0.104,0.179-0.159,0.442-0.084,0.643
	c0.163,0.436,0.336,0.875,0.544,1.293c0.092,0.191,0.22,0.358,0.348,0.525c0.173,0.224,0.336,0.468,0.552,0.654
	c0.183,0.157,0.373,0.281,0.591,0.379c0.261,0.12,0.531,0.228,0.815,0.277c0.312,0.055,0.631,0.067,0.949,0.051
	c0.31-0.016,0.57-0.096,0.845-0.242c0.248-0.13,0.477-0.301,0.662-0.509c0.141-0.161,0.285-0.326,0.401-0.505
	c0.118-0.181,0.185-0.395,0.265-0.592c0.066-0.165,0.111-0.33,0.144-0.498c0.064,0.006,0.128,0.014,0.192,0.022
	c0.146,0.024,0.291,0.054,0.44,0.07c0.12,0.012,0.248-0.012,0.367-0.02c0.519-0.039,1.028-0.267,1.448-0.566
	c0.322-0.23,0.66-0.456,0.925-0.753c0.143-0.159,0.281-0.326,0.399-0.505c0.085-0.129,0.142-0.275,0.203-0.418
	c0.073-0.175,0.135-0.337,0.17-0.527c0.035-0.183,0.063-0.369,0.079-0.554c0.026-0.301,0.049-0.597-0.039-0.892
	c-0.033-0.114-0.077-0.226-0.112-0.34c-0.094-0.294-0.254-0.529-0.442-0.767c0.148-0.153,0.276-0.327,0.404-0.495
	c0.06-0.078,0.122-0.156,0.173-0.241c0.051-0.088,0.102-0.175,0.161-0.259c0.147-0.21,0.293-0.403,0.397-0.643
	c0.108-0.246,0.216-0.501,0.285-0.76c0.061-0.232,0.073-0.479,0.079-0.717C28.082,5.814,28.059,5.596,27.986,5.398z M20.462,15.211
	c0.027-0.004,0.054-0.008,0.081-0.011c0.003,0,0.006,0,0.008-0.001C20.521,15.203,20.492,15.207,20.462,15.211z M22.983,14.203
	c0.003-0.02,0.005-0.04,0.008-0.06c0.002-0.013,0.004-0.026,0.006-0.039C22.992,14.136,22.988,14.169,22.983,14.203z M26.903,12.283
	c0.009-0.021,0.012-0.042,0.02-0.063c0.017-0.04,0.04-0.077,0.056-0.116C26.954,12.163,26.929,12.224,26.903,12.283z M26.925,8.726
	c0.021-0.027,0.038-0.055,0.059-0.081c0.018-0.023,0.038-0.045,0.055-0.068C27.002,8.626,26.962,8.677,26.925,8.726z M22.082,1.315
	c0,0-0.001-0.001-0.001-0.001c0.005,0.002,0.01,0.004,0.015,0.006C22.09,1.319,22.086,1.317,22.082,1.315z M17.745,5.695
	c0.419,0.114,0.9-0.14,1.004-0.57c0.078-0.32,0.143-0.637,0.189-0.961C18.935,4.182,18.933,4.2,18.93,4.219
	C18.947,4.13,18.97,4.041,19,3.954c0.073-0.147,0.161-0.288,0.258-0.421c0.23-0.283,0.474-0.549,0.755-0.782
	c0.071-0.051,0.144-0.097,0.222-0.137c0.052-0.017,0.105-0.031,0.161-0.042c0.128-0.015,0.256-0.03,0.386-0.045
	c0.103-0.013,0.21-0.03,0.317-0.031l0.002,0c0.126,0.054,0.252,0.11,0.37,0.178c0.352,0.208,0.821,0.085,1.028-0.269
	c0.1-0.173,0.128-0.385,0.075-0.58c-0.047-0.171-0.177-0.371-0.344-0.448c-0.044-0.02-0.088-0.039-0.133-0.057
	c0.031,0.013,0.061,0.026,0.091,0.039c-0.034-0.014-0.068-0.029-0.103-0.044l-0.002-0.001c-0.002-0.001-0.004-0.001-0.006-0.002
	c-0.004-0.002-0.008-0.004-0.012-0.005c0.005,0.002,0.011,0.005,0.017,0.007c-0.074-0.035-0.146-0.076-0.22-0.114
	C21.65,1.087,21.431,1,21.193,1c-0.03,0-0.06,0.001-0.09,0.004c-0.261,0.026-0.525,0.033-0.786,0.055
	c-0.175,0.014-0.35,0.033-0.521,0.071c-0.134,0.03-0.259,0.09-0.383,0.144c-0.073,0.031-0.136,0.077-0.198,0.124
	c-0.143,0.112-0.283,0.224-0.421,0.346c-0.116,0.102-0.228,0.208-0.334,0.322c-0.086,0.09-0.157,0.198-0.236,0.295
	c-0.193,0.242-0.387,0.478-0.531,0.751c-0.116,0.218-0.21,0.454-0.265,0.694c-0.071,0.299-0.175,0.59-0.253,0.886
	C17.063,5.121,17.315,5.575,17.745,5.695z M22.035,1.296c0.002,0.001,0.005,0.002,0.007,0.003c-0.012-0.005-0.024-0.01-0.035-0.014
	C22.017,1.289,22.026,1.292,22.035,1.296z M18.958,4.013c-0.002,0.015-0.004,0.029-0.005,0.044l0,0
	C18.954,4.042,18.956,4.028,18.958,4.013z M18.952,4.058L18.952,4.058L18.952,4.058c-0.003,0.028-0.007,0.057-0.011,0.086
	C18.945,4.115,18.948,4.087,18.952,4.058z M13.226,21.548c0.016,1.281-0.179,2.553-0.185,3.834c-0.002,0.381,0.004,0.768,0.018,1.15
	c0.004,0.141,0.016,0.285,0.014,0.428c0,0.104-0.004,0.209,0.002,0.312c0.012,0.075,0.023,0.15,0.03,0.226
	c0.035,0.436-0.393,0.804-0.804,0.804c-0.438,0-0.802-0.365-0.802-0.804c0-0.277-0.002-0.56,0.018-0.837
	c0.029-0.389,0.024-0.782,0.037-1.173c0.022-0.544,0.075-1.089,0.084-1.635c0.016-0.768,0.018-1.537-0.01-2.305
	c-0.014-0.436,0.375-0.8,0.8-0.8C12.867,20.748,13.22,21.111,13.226,21.548z"/>
</svg>