<?xml version="1.0" encoding="utf-8"?>
<!-- Generator: Adobe Illustrator 21.1.0, SVG Export Plug-In . SVG Version: 6.00 Build 0)  -->
<svg version="1.1" id="designs" xmlns="http://www.w3.org/2000/svg" xmlns:xlink="http://www.w3.org/1999/xlink" x="0px" y="0px"
	 width="32px" height="32px" viewBox="0 0 32 32" style="enable-background:new 0 0 32 32;" xml:space="preserve">
<style type="text/css">
	.sketchy_een{fill:#111918;}
</style>
<path class="sketchy_een" d="M24.805,15.746c0.006-0.544-0.008-1.083-0.09-1.623c-0.084-0.553-0.281-1.07-0.528-1.572
	c-0.275-0.557-0.669-1.05-1.164-1.429c-0.396-0.304-0.893-0.476-1.392-0.476c-0.094,0-0.188,0.006-0.281,0.019
	c-0.27,0.036-0.535,0.083-0.8,0.135c-0.066-0.078-0.121-0.165-0.193-0.238c-0.208-0.216-0.473-0.395-0.752-0.5
	c-0.255-0.096-0.528-0.118-0.799-0.137c-0.097-0.008-0.195-0.006-0.293-0.009c-0.015-0.245-0.029-0.49-0.042-0.734
	c-0.024-0.408-0.026-0.818-0.026-1.227c0.004-1.694,0.214-3.437-0.196-5.101c-0.055-0.222-0.153-0.434-0.243-0.642
	c-0.082-0.185-0.206-0.381-0.349-0.524c-0.112-0.114-0.237-0.234-0.373-0.318c-0.179-0.112-0.367-0.19-0.565-0.261
	C16.495,1.028,16.244,1,15.998,1c-0.102,0-0.204,0.005-0.302,0.013c-0.181,0.014-0.361,0.043-0.538,0.076
	c-0.22,0.041-0.436,0.151-0.634,0.253c-0.253,0.131-0.463,0.359-0.624,0.585c-0.045,0.063-0.088,0.128-0.13,0.192
	c-0.126,0.196-0.212,0.432-0.3,0.646c-0.143,0.353-0.247,0.713-0.308,1.089c-0.071,0.44-0.114,0.881-0.139,1.323
	C13,5.559,13.006,5.94,12.975,6.318c-0.033,0.395-0.096,0.785-0.131,1.18c-0.037,0.4-0.031,0.805-0.047,1.207
	c-0.023,0.554-0.029,1.108-0.039,1.661c-0.435,0.009-0.856,0.126-1.238,0.347c-0.13,0.076-0.263,0.175-0.375,0.271
	c-0.177,0.153-0.312,0.357-0.434,0.556c-0.133,0.212-0.21,0.475-0.275,0.716c-0.173,0.638-0.167,1.301-0.155,1.955
	c0.004,0.218,0.02,0.436,0.029,0.654c-0.088,0.067-0.177,0.133-0.265,0.198c-0.206,0.153-0.42,0.302-0.605,0.477
	c-0.32,0.302-0.622,0.62-0.926,0.938c-0.326,0.342-0.62,0.712-0.87,1.115c-0.13,0.208-0.226,0.444-0.304,0.675
	C7.263,18.5,7.227,18.732,7.2,18.975c-0.022,0.188,0.018,0.395,0.045,0.579c0.126,0.868,0.652,1.61,1.091,2.344
	c0.473,0.787,1.013,1.551,1.645,2.218c0.205,0.217,0.425,0.415,0.652,0.606c0,0-0.001,0.001-0.001,0.002
	c-0.055,0.109-0.092,0.227-0.09,0.356c0.014,0.817,0.051,1.631,0.041,2.446c-0.008,0.791-0.012,1.578-0.045,2.367
	c-0.006,0.149,0.047,0.281,0.121,0.402c0.06,0.388,0.386,0.693,0.786,0.695c0.328,0.002,0.656,0,0.983-0.002
	c0.479-0.002,0.956-0.006,1.435,0.002c0.752,0.014,1.504,0.01,2.255,0.01c0.817,0.002,1.633-0.004,2.448-0.02
	c0.387-0.006,0.771-0.027,1.158-0.045c0.379-0.018,0.758-0.016,1.137-0.018c0.257-0.002,0.514,0,0.771,0
	c0.096,0,0.192,0.002,0.289,0.004c0.167,0.004,0.334,0.008,0.5-0.004c0.21-0.016,0.395-0.074,0.546-0.228
	c0.145-0.143,0.226-0.342,0.226-0.546c0-0.014-0.008-0.026-0.008-0.04c0.002-0.006,0.008-0.01,0.009-0.016
	c0.035-0.135,0.039-0.268,0.01-0.401c-0.023-0.302-0.02-0.606-0.036-0.909c-0.02-0.389-0.039-0.779-0.071-1.168
	c-0.075-0.874-0.078-1.747-0.098-2.622c-0.008-0.345-0.223-0.642-0.529-0.762c0.086-0.128,0.189-0.244,0.267-0.379
	c0.208-0.353,0.424-0.703,0.654-1.042c0.477-0.705,0.907-1.421,1.129-2.25c0.116-0.428,0.196-0.862,0.241-1.303
	c0.043-0.41,0.033-0.824,0.029-1.237C24.782,17.258,24.795,16.502,24.805,15.746z M20.145,29.421
	c-0.773,0.037-1.545,0.059-2.318,0.055c-1.559-0.006-3.121,0.012-4.677-0.053c-0.328-0.014-0.657-0.022-0.986-0.033
	c0.01-0.601,0.006-1.202,0-1.804c-0.007-0.584,0.003-1.169,0.009-1.754c1.47-0.034,2.94-0.091,4.412-0.094
	c0.781-0.002,1.56-0.008,2.342-0.014c0.363-0.002,0.726-0.004,1.089,0c0.373,0.002,0.748-0.002,1.121,0.029
	c0.087,0.008,0.173,0.018,0.26,0.028c0.029,0.61,0.057,1.22,0.093,1.829c0.024,0.389,0.037,0.779,0.047,1.168
	c0.004,0.205,0.003,0.412,0.005,0.618C21.075,29.4,20.609,29.398,20.145,29.421z M23.176,16.916
	c-0.046,0.83-0.013,1.668-0.103,2.494c-0.066,0.417-0.162,0.831-0.3,1.23c-0.226,0.491-0.514,0.939-0.816,1.389
	c-0.308,0.459-0.567,0.95-0.892,1.397c-0.093,0.115-0.188,0.227-0.288,0.336c-0.116,0.125-0.177,0.278-0.209,0.435
	c-0.051,0-0.102-0.004-0.153-0.004c-0.142,0-0.284,0.002-0.426,0.004c-0.769,0.014-1.537,0.033-2.306,0.033
	c-0.779,0-1.56,0.02-2.342,0.018c-0.86-0.004-1.717-0.012-2.577-0.018c-0.09-0.001-0.179-0.001-0.269-0.001
	c-0.005-0.036,0.002-0.073-0.008-0.108c-0.065-0.24-0.214-0.398-0.412-0.538c-0.091-0.063-0.179-0.127-0.267-0.192
	c-0.397-0.332-0.769-0.684-1.102-1.083c-0.316-0.425-0.606-0.877-0.884-1.326c-0.278-0.446-0.586-0.886-0.809-1.364
	c-0.057-0.151-0.105-0.305-0.139-0.463c-0.004-0.065-0.005-0.13-0.003-0.196c0.025-0.115,0.059-0.227,0.097-0.338
	c0.096-0.192,0.212-0.371,0.338-0.546c0.199-0.24,0.415-0.465,0.632-0.692c0.149-0.157,0.309-0.303,0.466-0.453
	c0.016,0.317,0.037,0.634,0.046,0.951c0.014,0.457,0.373,0.84,0.842,0.84c0.446,0,0.858-0.383,0.84-0.84
	c-0.031-0.838-0.13-1.67-0.157-2.507c-0.016-0.434-0.018-0.867-0.02-1.303c-0.002-0.357,0.003-0.716,0.035-1.072
	c0.036-0.203,0.08-0.4,0.142-0.596c0.035-0.065,0.073-0.127,0.114-0.188c0.006-0.006,0.011-0.012,0.017-0.017
	c0.074-0.049,0.149-0.094,0.228-0.135c0.055-0.016,0.109-0.03,0.164-0.042c0.023-0.001,0.047,0,0.07,0
	c-0.01,0.696-0.025,1.393-0.025,2.089c0,0.489,0.408,0.897,0.895,0.897c0.485,0,0.903-0.408,0.897-0.897
	c-0.01-0.885-0.041-1.772-0.049-2.658c-0.006-0.832,0.028-1.664,0.059-2.495c0.018-0.406,0.014-0.815,0.039-1.219
	c0.022-0.395,0.075-0.785,0.114-1.178c0.074-0.73,0.061-1.463,0.141-2.193c0.063-0.417,0.16-0.821,0.311-1.214
	c0.059-0.128,0.126-0.251,0.203-0.369c0.012-0.012,0.024-0.025,0.037-0.037c0.056-0.036,0.114-0.069,0.173-0.099
	c0.097-0.03,0.193-0.052,0.293-0.07c0.124-0.011,0.246-0.014,0.371-0.009c0.077,0.016,0.152,0.035,0.228,0.059
	c0.017,0.009,0.033,0.019,0.049,0.029c0.043,0.038,0.083,0.077,0.122,0.12c0.043,0.073,0.083,0.146,0.12,0.222
	c0.091,0.268,0.151,0.541,0.199,0.82c0.086,0.783,0.089,1.575,0.054,2.361c-0.035,0.815-0.061,1.631-0.053,2.448
	c0.01,0.805,0.063,1.612,0.088,2.416c0.012,0.402,0.018,0.807,0.031,1.209c0.006,0.182,0.014,0.367,0.024,0.552
	c0.01,0.188,0.041,0.377,0.047,0.565c0.012,0.448,0.363,0.823,0.822,0.823c0.432,0,0.842-0.375,0.82-0.823
	c-0.011-0.24-0.077-0.467-0.123-0.7c-0.035-0.358-0.032-0.715-0.036-1.074c0-0.005,0-0.01,0-0.015c0.158,0,0.316-0.007,0.474,0.004
	c0.037,0.022,0.073,0.044,0.109,0.067c0.102,0.09,0.195,0.185,0.282,0.287c0.086,0.13,0.161,0.261,0.227,0.4
	c0.109,0.299,0.183,0.603,0.239,0.916c0.054,0.476,0.079,0.959,0.063,1.438c-0.014,0.426,0.367,0.783,0.781,0.783
	c0.436,0,0.769-0.357,0.781-0.783c0.014-0.43,0.002-0.862-0.027-1.29c-0.025-0.361-0.087-0.731-0.18-1.089
	c0.085-0.016,0.17-0.036,0.256-0.052c0.04-0.003,0.08-0.004,0.121-0.006c0.06,0.014,0.118,0.031,0.177,0.05
	c0.071,0.037,0.14,0.077,0.207,0.122c0.126,0.111,0.24,0.234,0.35,0.362c0.232,0.326,0.415,0.675,0.576,1.041
	c0.085,0.225,0.14,0.462,0.185,0.697C23.279,15.326,23.22,16.116,23.176,16.916z"/>
</svg>