<?xml version="1.0" encoding="utf-8"?>
<!-- Generator: Adobe Illustrator 21.1.0, SVG Export Plug-In . SVG Version: 6.00 Build 0)  -->
<svg version="1.1" id="designs" xmlns="http://www.w3.org/2000/svg" xmlns:xlink="http://www.w3.org/1999/xlink" x="0px" y="0px"
	 width="32px" height="32px" viewBox="0 0 32 32" style="enable-background:new 0 0 32 32;" xml:space="preserve">
<style type="text/css">
	.sketchy_een{fill:#111918;}
</style>
<path class="sketchy_een" d="M29.495,26.69c-0.029-0.78-0.039-1.56-0.06-2.34c-0.045-1.586-0.078-3.171-0.078-4.759
	c0-1.338,0.01-2.676,0.006-4.014c-0.006-1.453,0.041-2.906,0.047-4.359c0.002-0.423-0.355-0.778-0.778-0.778
	c-0.169,0-0.319,0.068-0.448,0.163c-0.011,0.002-0.022,0.003-0.033,0.005c-0.682,0.079-1.367,0.077-2.051,0.108
	c-0.672,0.032-1.342,0.083-2.012,0.143v-0.002c-0.016-1.557-0.037-3.117-0.027-4.674c0.006-1.135,0.059-2.268,0.084-3.401
	C24.154,2.355,23.783,2,23.364,2c-0.099,0-0.191,0.023-0.277,0.057c-0.006,0-0.012-0.004-0.018-0.004c-0.016,0-0.033,0-0.049,0.002
	c-0.583,0.06-1.168,0.058-1.755,0.058c-0.187,0-0.375,0.002-0.562,0.002c-0.811,0.008-1.623,0.006-2.432-0.006
	c-0.825-0.014-1.648-0.044-2.471-0.037c-0.854,0.006-1.707,0.023-2.559,0.035c-1.322,0.02-2.643,0.018-3.965,0.039
	c-0.333,0.006-0.621,0.215-0.74,0.509C8.465,2.777,8.413,2.91,8.409,3.058C8.385,3.982,8.387,4.905,8.377,5.829
	C8.372,6.676,8.331,7.521,8.282,8.367C8.25,8.936,8.233,9.505,8.213,10.075c-0.339,0.028-0.677,0.047-1.016,0.064
	c-0.443,0.023-0.885,0.066-1.328,0.101c-0.895,0.072-1.791,0.127-2.69,0.123c-0.417-0.004-0.767,0.351-0.767,0.767
	c0,0.104,0.022,0.203,0.061,0.294c0.005,0.854,0.018,1.707,0.016,2.56c0,0.808-0.033,1.613-0.051,2.42
	c-0.018,0.839-0.014,1.678-0.016,2.516c-0.004,0.833,0.002,1.662,0.029,2.495c0.045,1.328,0.031,2.658,0.041,3.989
	c0.01,1.238,0.043,2.489-0.092,3.723c-0.012,0.114,0.019,0.236,0.072,0.349c0.007,0.017,0.018,0.03,0.026,0.046
	c0.038,0.07,0.081,0.133,0.13,0.188c0.008,0.008,0.013,0.018,0.021,0.025c0.002,0.002,0.005,0.006,0.007,0.009
	C2.821,29.908,3.044,30,3.276,30c0.059,0,0.109-0.022,0.163-0.033c0.809,0.024,1.619,0.028,2.43,0.03
	c0.388,0,0.776-0.016,1.164-0.025c0.419-0.009,0.841-0.004,1.26-0.002c0.854,0.006,1.709-0.009,2.563-0.011
	c0.363,0,0.728,0.002,1.092,0.004c0.415,0.002,0.831,0.004,1.248,0.002c1.627-0.006,3.252-0.023,4.878-0.055
	c0.852-0.016,1.707-0.043,2.559-0.074c0.78-0.029,1.562-0.035,2.343-0.045c0.932-0.012,1.867-0.037,2.799-0.043
	c0.903-0.008,1.806,0.014,2.711,0.021c0.014,0,0.026-0.007,0.039-0.008c0.084,0.03,0.172,0.055,0.267,0.055
	c0.437,0,0.811-0.369,0.808-0.81C29.595,28.233,29.525,27.463,29.495,26.69z M27.793,23.149c-0.144,0.02-0.287,0.039-0.429,0.059
	c0.066-0.01,0.132-0.019,0.198-0.028c0.012-0.002,0.024-0.003,0.036-0.005c-0.585,0.074-1.182,0.07-1.773,0.066
	c-0.158,0-0.314-0.002-0.47-0.002c-0.061,0-0.122,0-0.183,0c-0.001-0.435-0.002-0.869-0.002-1.304
	c-0.002-0.789,0.015-1.578-0.012-2.364c0.444-0.019,0.887-0.034,1.331-0.036c0.449-0.003,0.894-0.037,1.34-0.068
	c-0.001,0.54-0.012,1.08-0.01,1.619c0.001,0.684,0.016,1.367,0.024,2.05c-0.001,0-0.003,0-0.004,0
	c-0.066,0.013-0.134,0.023-0.201,0.032C27.69,23.163,27.741,23.155,27.793,23.149z M4.183,23.437
	c-0.007-0.494-0.011-0.988-0.021-1.481c-0.008-0.425-0.035-0.851-0.051-1.275c-0.007-0.179-0.005-0.357-0.008-0.535
	c0.046,0.008,0.089,0.028,0.138,0.026c0.96-0.031,1.917-0.093,2.875-0.152c0.014-0.001,0.029-0.001,0.043-0.001
	c-0.033,1.118-0.06,2.234-0.08,3.351c-0.327,0.014-0.653,0.022-0.979,0.039C5.461,23.44,4.822,23.437,4.183,23.437z M8.652,22.227
	c0.036-0.752,0.074-1.503,0.103-2.255c0.301-0.004,0.601-0.007,0.901-0.012c0.461-0.008,0.921-0.025,1.382-0.042
	c-0.04,0.569-0.052,1.14-0.052,1.71c0,0.349,0.012,0.698,0.029,1.045c0.011,0.206,0.028,0.413,0.04,0.619
	c-0.154,0.002-0.307,0.012-0.46,0.013c-0.653,0.006-1.307,0.008-1.96,0.017C8.639,22.957,8.635,22.591,8.652,22.227z M12.562,23.249
	c-0.058-0.558-0.084-1.123-0.077-1.682c0.009-0.567,0.042-1.132,0.095-1.695c0.771-0.018,1.543-0.042,2.314-0.065
	c0.009,0,0.019,0,0.028,0c-0.005,0.609-0.009,1.217,0.017,1.827c0.022,0.515,0.071,1.033,0.08,1.551
	c-0.657,0.006-1.315,0.014-1.97,0.051C12.887,23.244,12.724,23.242,12.562,23.249z M16.574,23.174
	c-0.013-0.196-0.03-0.393-0.045-0.589c-0.023-0.316-0.033-0.636-0.041-0.952c-0.011-0.623,0.005-1.245,0.021-1.868
	c0.304-0.008,0.608-0.021,0.913-0.023c0.627-0.004,1.255-0.018,1.883-0.044c0,1.165,0.009,2.331,0.008,3.496
	c0,0.002,0.001,0.005,0.001,0.005c-0.447-0.006-0.894-0.016-1.341-0.022C17.506,23.17,17.04,23.173,16.574,23.174z M20.847,21.415
	c0.01-0.592,0.019-1.182,0.025-1.772c0.524-0.019,1.047-0.043,1.572-0.047c0.248,0,0.497,0,0.745,0c0.139,0,0.278-0.005,0.417-0.005
	c0.033,0.722,0.065,1.443,0.074,2.165c0.006,0.496-0.004,0.992-0.01,1.488c-0.235,0.001-0.47,0.002-0.704,0.002
	c-0.709,0.002-1.418-0.009-2.126-0.021c0-0.011,0.007-0.021,0.006-0.032C20.812,22.601,20.837,22.006,20.847,21.415z M14.569,3.658
	c0.85,0.008,1.701,0.008,2.549,0.047c0.837,0.039,1.672,0.084,2.51,0.098c0.581,0.008,1.161,0.018,1.742,0.02
	c0.403,0.001,0.803-0.002,1.203-0.022c-0.006,0.555-0.012,1.111-0.018,1.666c-0.008,0.794-0.029,1.59-0.041,2.384
	c-0.01,0.782-0.016,1.564-0.021,2.347c-0.006,0.745-0.01,1.49,0.025,2.235c0.032,0.697,0.04,1.395,0.042,2.093
	c-0.104,0.005-0.208,0.014-0.313,0.017c-0.827,0.02-1.652,0.031-2.479,0.021c-1.597-0.02-3.195-0.016-4.792-0.014
	c-1.135,0.002-2.268,0.037-3.404,0.078c-0.589,0.021-1.178,0.037-1.769,0.049c-0.007,0-0.015,0-0.022,0
	c0.001-0.177,0.001-0.354,0.004-0.531c0.006-0.39,0.016-0.78,0.018-1.168c0.006-0.817,0.014-1.635,0.037-2.452
	c0.045-1.64,0.117-3.283,0.146-4.923c0.011-0.625,0.032-1.248,0.05-1.872C11.546,3.689,13.057,3.643,14.569,3.658z M7.133,11.713
	c0.347,0,0.694,0.002,1.042-0.01c-0.007,0.504-0.018,1.007-0.016,1.511c0.003,0.482,0.002,0.966-0.009,1.449
	c-0.114-0.002-0.228-0.001-0.343-0.002c-0.435-0.004-0.8,0.367-0.8,0.8c0,0.435,0.365,0.793,0.8,0.797
	c0.866,0.004,1.73-0.014,2.598-0.025c0.794-0.011,1.588-0.011,2.383-0.015c1.623-0.008,3.248,0.023,4.87,0.042
	c1.157,0.016,2.313,0.047,3.472,0.037c0.556-0.004,1.114,0.002,1.672-0.016c0.532-0.018,1.065-0.041,1.597-0.051
	c0.49-0.009,0.899-0.402,0.899-0.899c0-0.48-0.404-0.899-0.889-0.899c-0.003,0-0.007,0-0.01,0c-0.076,0.001-0.151,0.009-0.226,0.011
	c-0.009-0.428-0.021-0.857-0.03-1.286c-0.004-0.268-0.017-0.535-0.028-0.803c0.699-0.076,1.399-0.15,2.104-0.159
	c0.396-0.006,0.79-0.002,1.186,0.004c0.151,0.002,0.302-0.007,0.452-0.012c0.009,1.377,0.019,2.753-0.009,4.13
	c-0.009,0.452-0.003,0.904-0.008,1.356c-0.74,0.065-1.482,0.117-2.223,0.165c-0.829,0.055-1.656,0.092-2.485,0.094
	c-0.852,0.001-1.707,0.001-2.559,0.048c-0.419,0.023-0.837,0.049-1.256,0.072c-0.437,0.025-0.874,0.025-1.311,0.035
	c-1.685,0.033-3.367,0.111-5.052,0.162c-0.895,0.027-1.789,0.07-2.684,0.111c-0.833,0.039-1.666,0.057-2.499,0.086
	c-1.178,0.043-2.354,0.09-3.532,0.121c-0.055,0.001-0.104,0.022-0.156,0.034c-0.005-1.052-0.006-2.104-0.03-3.157
	c-0.028-1.194-0.006-2.39,0.005-3.585c0.594-0.034,1.186-0.081,1.781-0.116C6.271,11.719,6.702,11.715,7.133,11.713z M6.253,28.44
	c-0.697,0.032-1.393,0.024-2.089,0.004c0.038-1.166,0.04-2.333,0.034-3.5c0.753-0.012,1.506-0.038,2.258-0.058
	c0.2-0.005,0.399-0.001,0.599-0.003c-0.011,1.171-0.022,2.341-0.015,3.512C6.778,28.411,6.516,28.428,6.253,28.44z M21.317,28.104
	c-0.833,0.021-1.664,0.045-2.495,0.053c-1.625,0.02-3.248,0.043-4.872,0.053c-0.804,0.004-1.605-0.002-2.409,0.014
	c-0.847,0.014-1.689,0.059-2.534,0.088c-0.13,0.004-0.26,0.01-0.391,0.014c-0.012-0.646,0.008-1.292,0.01-1.939
	c0.001-0.504-0.002-1.008-0.004-1.512c0.063,0,0.126-0.001,0.189-0.001c0.813,0.004,1.627,0.029,2.44,0.041
	c0.819,0.012,1.635-0.041,2.454-0.068c0.825-0.027,1.652-0.02,2.479-0.02c0.85-0.002,1.699-0.006,2.547,0.014
	c1.636,0.039,3.273,0.113,4.911,0.129c0.006,0,0.013,0,0.019,0c-0.015,1.033-0.02,2.066-0.01,3.1
	C22.873,28.088,22.095,28.084,21.317,28.104z M25.189,28.025c-0.004-0.482-0.011-0.964-0.011-1.447
	c0.001-0.533-0.001-1.065-0.003-1.599c0.273,0.001,0.546,0.004,0.819,0.005c0.624,0.001,1.249-0.015,1.869-0.086
	c0.002,0.077,0.001,0.154,0.003,0.23c0.016,0.651,0.021,1.305,0.053,1.957c0.013,0.292,0.019,0.583,0.029,0.874
	C27.028,27.975,26.109,27.998,25.189,28.025z M12.349,7.375c0-0.421,0.371-0.841,0.813-0.813c0.54,0.035,1.083,0.068,1.625,0.068
	c0.527,0.002,1.053-0.02,1.58-0.037c0.926-0.029,1.855-0.033,2.776-0.146c0.018-0.002,0.036-0.003,0.054-0.003
	c0.2,0,0.422,0.123,0.555,0.255c0.16,0.16,0.252,0.38,0.252,0.608c0,0.226-0.092,0.447-0.252,0.606
	c-0.174,0.176-0.371,0.227-0.609,0.252c-0.462,0.05-0.928,0.062-1.393,0.078c-0.474,0.016-0.946,0.016-1.42,0.01
	c-1.055-0.016-2.112-0.004-3.168-0.064C12.719,8.164,12.349,7.84,12.349,7.375z M12.297,10.224c0-0.431,0.369-0.825,0.809-0.811
	c0.609,0.02,1.215,0.05,1.824,0.054c0.525,0.002,1.051-0.031,1.576-0.048c1.003-0.035,2.005-0.031,3.008-0.066
	c0.009,0,0.017,0,0.025,0c0.457,0,0.833,0.411,0.833,0.858c0,0.468-0.39,0.854-0.858,0.856c-1.003,0.006-2.005-0.031-3.008-0.033
	c-0.527,0-1.051,0.014-1.576,0.021c-0.609,0.01-1.215-0.006-1.824-0.021C12.665,11.021,12.297,10.672,12.297,10.224z"/>
</svg>