<?xml version="1.0" encoding="utf-8"?>
<!-- Generator: Adobe Illustrator 21.1.0, SVG Export Plug-In . SVG Version: 6.00 Build 0)  -->
<svg version="1.1" id="designs" xmlns="http://www.w3.org/2000/svg" xmlns:xlink="http://www.w3.org/1999/xlink" x="0px" y="0px"
	 width="32px" height="32px" viewBox="0 0 32 32" style="enable-background:new 0 0 32 32;" xml:space="preserve">
<style type="text/css">
	.sketchy_een{fill:#111918;}
</style>
<path class="sketchy_een" d="M15.637,13.315l-0.026-0.202c-0.034-0.12-0.094-0.224-0.185-0.316
	c-0.063-0.063-0.137-0.114-0.275-0.212c-0.017-0.057-0.04-0.11-0.069-0.158c-0.085-0.146-0.257-0.307-0.423-0.331
	c-0.472-0.072-0.944-0.12-1.422-0.153c-0.333-0.022-0.671-0.044-1.007-0.044L12.087,11.9c-0.281,0.004-0.556,0.034-0.881,0.073
	c-0.153,0.018-0.274,0.031-0.399,0.104c-0.215,0.126-0.31,0.335-0.353,0.489c-0.053,0.192-0.039,0.413-0.019,0.727
	c0.04,0.776,0.081,1.578,0.282,2.341c0.036,0.139,0.086,0.274,0.153,0.455c0.046,0.121,0.097,0.242,0.154,0.359
	c0.097,0.202,0.289,0.347,0.602,0.456c0.085,0.028,0.187,0.035,0.287,0.043l0.29,0.02l0.918,0.037
	c0.334,0.015,0.669,0.026,1.003,0.035c0,0,0.546,0.019,0.632,0.019c0.183,0,0.321-0.016,0.447-0.053
	c0.126-0.035,0.254-0.109,0.344-0.199c0.118-0.114,0.171-0.239,0.227-0.39c0.05-0.13,0.044-0.31,0.036-0.551l-0.006-0.239
	c-0.009-0.354-0.018-0.709-0.039-1.061C15.744,14.169,15.698,13.776,15.637,13.315z M14.459,15.694h-0.099
	c-0.219,0-0.438-0.01-0.654-0.021l-0.129-0.006c-0.434-0.017-0.868-0.039-1.302-0.079l-0.063-0.006l-0.022-0.06
	c-0.071-0.193-0.133-0.389-0.183-0.59c-0.078-0.326-0.139-0.654-0.187-0.988c-0.023-0.184-0.042-0.37-0.061-0.577v-0.1l0.161-0.001
	c0.158,0,0.315,0.005,0.473,0.016c0.505,0.034,1.007,0.088,1.511,0.151l0.331,0.054l0.063,0.269c0.037,0.151,0.073,0.3,0.1,0.459
	c0.058,0.53,0.082,0.968,0.076,1.379L14.459,15.694z M10.086,7.353c0.03,0.204,0.066,0.407,0.103,0.61
	c0.034,0.191,0.068,0.383,0.098,0.576c0.065,0.448,0.141,0.808,0.238,1.134c0.088,0.292,0.185,0.572,0.398,0.78
	c0.3,0.292,0.78,0.329,1.164,0.359c0.438,0.033,0.876,0.05,1.316,0.064c0,0,1.013,0.04,1.105,0.04c0.332,0,0.563-0.047,0.746-0.151
	c0.25-0.145,0.42-0.393,0.467-0.682c0.03-0.189,0.044-0.374,0.051-0.565c0.01-0.263,0.016-0.525,0.01-0.788
	c-0.01-0.571-0.033-1.144-0.062-1.713L15.683,6.23c-0.014-0.216-0.043-0.391-0.14-0.6c-0.062-0.138-0.169-0.227-0.284-0.314
	c-0.109-0.087-0.219-0.166-0.368-0.189c-0.115-0.018-0.22-0.023-0.327-0.023l-0.263,0.007c-0.062,0.002-0.123,0.012-0.255,0.024
	c-0.101-0.048-0.208-0.072-0.32-0.073l-1.456-0.007c-0.397,0.001-0.808,0.002-1.203,0.063c-0.123,0.017-0.24,0.058-0.329,0.092
	c-0.267,0.1-0.536,0.219-0.652,0.489c-0.079,0.19-0.086,0.206-0.107,0.417C9.974,6.172,9.973,6.226,9.974,6.28
	c0.003,0.082,0.007,0.164,0.015,0.245C10.011,6.803,10.047,7.077,10.086,7.353z M11.556,6.541c0.159-0.009,0.319-0.013,0.479-0.013
	c0.306,0,0.614,0.014,0.921,0.028c0.259,0.011,0.517,0.023,0.782,0.026c0.118,0,0.237-0.03,0.343-0.087l0.144-0.018l0.019,0.39
	l0.032,0.42c0.017,0.214,0.034,0.428,0.046,0.667c0.023,0.472,0.045,0.947,0.025,1.42l-0.004,0.091L14.249,9.47
	c-0.136,0.006-0.272,0.009-0.408,0.009c-0.474,0-0.99-0.036-1.629-0.117l-0.196-0.04l-0.018-0.056
	c-0.108-0.35-0.189-0.705-0.255-1.066l-0.114-0.589c-0.051-0.258-0.102-0.516-0.148-0.781l-0.031-0.285L11.556,6.541z M17.026,7.066
	c0.017,0.24,0.039,0.48,0.066,0.72c0.032,0.29,0.082,0.575,0.131,0.861c0.031,0.174,0.061,0.347,0.088,0.524l0.061,0.58
	c0.017,0.166,0.032,0.335,0.07,0.492c0.054,0.212,0.208,0.415,0.401,0.527c0.205,0.12,0.462,0.14,0.733,0.16
	c0.199,0.013,0.398,0.017,0.597,0.021l0.292,0.005c0.291,0.005,0.582,0.01,0.873,0.022l0.194,0.008
	c0.154,0.006,0.309,0.013,0.462,0.013c0.189,0,0.377-0.01,0.565-0.044c0.197-0.035,0.37-0.168,0.542-0.416
	c0.118-0.169,0.136-0.452,0.148-0.659c0.009-0.162,0.012-0.323,0.015-0.484l0.002-0.107c0.004-0.369,0.008-0.741,0.006-1.11
	c0-0.343-0.019-0.689-0.036-1.032l-0.007-0.138c-0.008-0.145-0.016-0.291-0.033-0.469C22.179,6.36,22.162,6.171,22.1,6.005
	c-0.054-0.145-0.106-0.266-0.189-0.382c-0.148-0.211-0.315-0.339-0.541-0.416c-0.099-0.034-0.214-0.05-0.361-0.05
	c-0.061,0-0.121,0.002-0.181,0.006c-0.104,0.006-0.203,0.031-0.386,0.071c-0.102-0.057-0.212-0.086-0.34-0.086
	c-0.487,0.01-0.971,0.033-1.457,0.064l-0.219,0.011c-0.137,0.006-0.274,0.013-0.411,0.024c-0.266,0.021-0.558,0.069-0.717,0.259
	c-0.115,0.137-0.208,0.256-0.259,0.424c-0.046,0.151-0.055,0.312-0.056,0.464c-0.001,0.155,0.012,0.311,0.026,0.466L17.026,7.066z
	 M19.046,6.6l1.052-0.001c0.142-0.002,0.279-0.045,0.49-0.133c0.038,0.015,0.077,0.027,0.117,0.034l0.08,0.091L20.8,6.655
	c0.057,0.505,0.091,1.016,0.107,1.524c0.014,0.437,0.027,0.884,0.003,1.325L20.905,9.6L19.991,9.59
	c-0.374-0.006-0.75-0.013-1.122-0.043l-0.081-0.006l-0.115-0.779c-0.028-0.167-0.059-0.333-0.09-0.499
	c-0.034-0.178-0.069-0.357-0.098-0.54c-0.027-0.212-0.05-0.426-0.071-0.639l-0.046-0.473C18.367,6.611,18.855,6.6,19.046,6.6z
	 M27.75,18.442c-0.137-0.138-0.281-0.179-0.515-0.209c-0.175-0.023-0.352-0.024-0.53-0.025l-0.981-0.019l0.001-0.395
	c0.001-0.446,0.003-0.891-0.002-1.336c-0.005-0.374-0.014-0.747-0.022-1.12c-0.013-0.544-0.025-1.088-0.026-1.632
	c-0.004-1.845-0.031-3.688-0.06-5.532l-0.007-0.39c-0.012-0.655-0.024-1.31-0.029-1.967c-0.005-0.517,0.003-1.033,0.011-1.549
	l0.006-0.424l0.699-0.003l0.527,0.011c0.203,0,0.351-0.015,0.483-0.051c0.319-0.085,0.55-0.389,0.55-0.722
	c0-0.332-0.232-0.635-0.551-0.722c-0.142-0.038-0.296-0.044-0.428-0.044l-2.196,0.008c-0.708,0-1.417-0.008-2.127-0.026
	c-0.734-0.017-1.467-0.022-2.2-0.027c-1.002-0.006-2.005-0.013-3.007-0.051c-1.988-0.075-3.749-0.116-5.385-0.124L9.427,2.07
	l-1.58,0.003c-0.3,0-0.6-0.002-0.899-0.009c-0.46-0.01-0.921-0.026-1.381-0.041L4.827,2C4.408,2,4.04,2.38,4.04,2.812
	c0,0.44,0.365,0.804,0.814,0.81c0.282,0.006,0.564,0.006,0.887,0.006h0.303L6.038,3.737C5.936,5.24,5.873,6.856,5.836,8.973
	c-0.024,1.423-0.004,2.844,0.017,4.266l0.017,1.225c0.009,0.834,0.004,1.668,0,2.502l-0.004,0.887L5.12,17.819
	c-0.408,0-0.779,0.391-0.779,0.821c0,0.448,0.354,0.8,0.822,0.82c0.111,0.005,0.7,0.013,0.7,0.013l-0.001,0.099
	c-0.021,1.938-0.058,3.876-0.108,5.814c-0.033,1.238-0.014,2.495,0.056,3.739c0.021,0.363,0.225,0.671,0.539,0.803
	C6.454,29.976,6.553,30,6.653,30h0.009c0.457-0.008,0.913-0.027,1.37-0.045c0.463-0.019,0.927-0.038,1.39-0.046
	c0.431-0.008,0.862-0.011,1.293-0.013c0.352-0.002,0.703-0.003,1.055-0.009c0.257-0.005,0.514-0.017,0.772-0.03
	c0,0,1.322-0.052,1.754-0.071c0.862-0.041,1.724-0.078,2.588-0.078c1.396,0.002,2.793,0.008,4.189,0.014
	c0.688,0.002,1.375,0.006,2.062,0.033l0.126,0.005c0.253,0.01,0.505,0.02,0.821,0.025l0.268,0.002c0.254,0,0.505-0.008,0.75-0.046
	c0.075-0.021,0.139-0.069,0.246-0.148l0.087-0.055l0.011-0.003c0.143-0.102,0.304-0.276,0.331-0.457
	c0.047-0.334,0.038-0.661,0.029-1.006l-0.003-0.104c-0.01-0.334-0.013-0.67-0.016-1.004c0,0-0.017-0.943-0.026-1.314
	c-0.011-0.422-0.022-0.844-0.025-1.266c-0.007-0.567-0.004-1.135-0.001-1.702l0.003-0.927l-0.008-2.106l0.174,0
	c0,0,0.284,0.009,0.375,0.009l0.997,0c0.178,0,0.348-0.077,0.481-0.216c0.129-0.137,0.204-0.317,0.204-0.495
	C27.96,18.759,27.883,18.575,27.75,18.442z M7.48,9.165c0.011-0.534,0.022-1.068,0.029-1.602C7.516,7.045,7.54,6.528,7.564,6.012
	l0.023-0.521c0.024-0.554,0.075-1.107,0.125-1.659l0.018-0.2h2.291c0.772-0.006,1.544-0.01,2.315-0.01
	c0.988,0,1.977,0.007,2.966,0.028c0.761,0.016,1.521,0.039,2.281,0.062c0.993,0.03,1.987,0.06,2.98,0.074l1.344,0.02
	c0.699,0.011,1.398,0.023,2.097,0.029l0.099,0.001l0.003,0.546c0.003,0.567,0.006,1.134-0.003,1.701l-0.008,0.605
	c-0.01,0.69-0.021,1.38-0.021,2.07l0.001,1.961c0.001,1.188,0.002,2.376-0.005,3.564c-0.002,0.464,0.008,2.266,0.006,2.702
	c0,0.328-0.009,0.655-0.017,0.982l-0.005,0.207l-1.175-0.007c-1.643-0.002-3.401-0.011-5.13-0.062l-1.009-0.036
	c-0.553-0.021-1.106-0.041-1.659-0.052l-3.239-0.06c-0.692-0.011-1.384-0.023-2.076-0.026l-0.508-0.002
	c-0.556-0.002-1.112-0.003-1.668-0.011l-0.099-0.001l-0.003-1.257c-0.001-1.206-0.003-2.412-0.032-3.618
	C7.427,11.747,7.454,10.434,7.48,9.165z M16.486,28.24c-0.494,0.012-0.989,0.024-1.482,0.048l-0.669,0.028l0-1.23
	c0.001-0.795,0.002-1.59-0.012-2.385l-0.002-0.104l1.435,0.012c0.189,0,0.914,0.016,0.914,0.016l0.013,0.202
	c0.037,0.541,0.073,1.081,0.084,1.625l0.003,0.263c0.003,0.262,0.007,0.523,0.02,0.783l0.03,0.734L16.486,28.24z M24.106,28.245
	c0,0-1.06-0.036-1.431-0.044c-0.318-0.007-0.634-0.01-0.95-0.01c-0.391,0-3.413,0.015-3.413,0.015s-0.027-0.498-0.033-0.699
	c-0.011-0.269-0.01-0.54-0.009-0.811l0.001-0.242c0-0.705-0.014-1.409-0.061-2.129l-0.02-0.069l0.015-0.034
	c0.039-0.088,0.059-0.177,0.059-0.266c0-0.369-0.303-0.669-0.688-0.684c-0.259-0.009-0.519-0.01-0.779-0.01h-0.4
	c0,0-0.516-0.001-0.703-0.006c-0.567-0.012-1.132-0.034-1.698-0.056l-0.489-0.018c-0.361,0-0.677,0.329-0.668,0.745l0.021,0.083
	l-0.017,0.034c-0.053,0.11-0.077,0.214-0.073,0.317c0.05,1.369,0.067,2.634,0.064,3.912l0.006,0.103l-0.103,0.003
	c-0.592,0.018-1.185,0.032-1.836,0.032c-0.001,0-0.003,0-0.003,0c-0.641,0-1.279,0.012-1.917,0.037
	c-0.372,0.015-0.744,0.018-1.115,0.021l-0.36,0.003l-0.035-0.857c-0.011-0.35-0.023-0.701-0.024-1.051
	c-0.001-0.557,0.013-1.115,0.027-1.672l0.02-0.858c0.018-0.91,0.012-1.82,0.004-2.73c-0.004-0.505-0.003-1.009,0-1.513l0.001-0.29
	l2.945-0.012c0.504,0,1.008,0.006,1.512,0.012l1.756,0.013c0.68,0.002,1.361,0.004,2.041,0.02l1.048,0.031
	c0.549,0.018,1.099,0.035,1.649,0.041c0.56,0.005,1.118,0.006,1.678,0.006l3.413-0.01l0.484,0.009l-0.002,0.102
	c-0.037,1.999-0.032,3.649,0.016,5.191l0.066,2.013c0.012,0.352,0.012,0.702,0.008,1.051L24.106,28.245z M17.202,14.329
	c0.034,0.289,0.052,0.578,0.071,0.869l0.009,0.145c0.014,0.197,0.032,0.397,0.074,0.591c0.065,0.291,0.242,0.536,0.526,0.726
	c0.242,0.162,0.552,0.194,0.848,0.213c0.188,0.011,0.375,0.016,0.601,0.023l0.367,0.009c0.243,0.006,0.486,0.013,0.73,0.014
	c0.002,0,0.005,0,0.007,0c0.164,0,0.327,0,0.492-0.013c0.24-0.018,0.407-0.065,0.556-0.158c0.25-0.158,0.374-0.406,0.434-0.588
	c0.073-0.213,0.086-0.452,0.1-0.711c0.01-0.179,0.01-0.359,0.01-0.614c-0.004-0.3-0.037-0.596-0.07-0.894l-0.049-0.477
	c-0.026-0.293-0.053-0.595-0.14-0.871c-0.015-0.049-0.034-0.095-0.061-0.159c-0.077-0.18-0.149-0.327-0.325-0.429
	c-0.052-0.03-0.111-0.055-0.222-0.104c-0.134-0.163-0.315-0.258-0.541-0.258c-0.003,0-0.005,0-0.008,0
	c-0.441,0.039-0.881,0.076-1.322,0.101c-0.171,0.01-0.342,0.015-0.513,0.02c-0.221,0.006-0.444,0.012-0.664,0.031
	c-0.135,0.012-0.27,0.031-0.405,0.056c-0.153,0.027-0.299,0.1-0.471,0.239c-0.154,0.122-0.254,0.344-0.266,0.593
	c-0.008,0.146,0.018,0.299,0.043,0.446L17.202,14.329z M19.152,13.191c0.401-0.01,0.802-0.024,1.203-0.048l0.091-0.006l0.032,0.207
	l0.102,0.797c0.066,0.509,0.089,0.922,0.07,1.301l-0.092,0.096l-0.672-0.008c-0.355-0.001-0.709-0.021-1.063-0.059l-0.084-0.036
	l-0.033-0.288c-0.044-0.38-0.088-0.76-0.163-1.136c-0.045-0.234-0.151-0.82-0.151-0.82L19.152,13.191z"/>
</svg>