<?xml version="1.0" encoding="utf-8"?>
<!-- Generator: Adobe Illustrator 21.1.0, SVG Export Plug-In . SVG Version: 6.00 Build 0)  -->
<svg version="1.1" id="designs" xmlns="http://www.w3.org/2000/svg" xmlns:xlink="http://www.w3.org/1999/xlink" x="0px" y="0px"
	 width="32px" height="32px" viewBox="0 0 32 32" style="enable-background:new 0 0 32 32;" xml:space="preserve">
<style type="text/css">
	.sketchy_een{fill:#111918;}
</style>
<path class="sketchy_een" d="M29.988,19.752c0-0.323,0.008-0.647,0.008-0.972c0-0.688-0.002-1.376-0.027-2.064
	c-0.014-0.366-0.02-0.735-0.027-1.104c-0.008-0.373-0.035-0.745-0.055-1.119c-0.031-0.61-0.051-1.221-0.065-1.831
	c-0.008-0.343-0.018-0.688-0.023-1.033c-0.006-0.376-0.004-0.753-0.035-1.127c-0.029-0.323-0.055-0.641-0.049-0.965
	c0.008-0.386,0.018-1.772,0.025-2.159c0-0.049,0.002-0.098,0.002-0.147c0.003-0.197-0.079-0.373-0.202-0.513
	c0.093-0.104,0.171-0.22,0.207-0.351c0.063-0.229,0.031-0.48-0.09-0.686c-0.104-0.178-0.316-0.375-0.529-0.408
	c-0.645-0.096-1.294-0.077-1.943-0.125c-0.376-0.028-0.751-0.071-1.127-0.088c-0.233-0.01-0.465-0.008-0.696-0.006
	c-0.133,0-0.267,0-0.398-0.002c-0.374-0.006-0.749-0.01-1.123-0.006c-0.131,0.002-0.261,0-0.392-0.002
	c-0.19-0.002-0.38-0.006-0.57,0.002c-0.772,0.031-1.549,0.029-2.321,0.018c-0.896-0.012-1.792-0.043-2.69-0.059
	C17.674,5.001,17.483,5,17.292,5c-0.565,0-1.129,0.012-1.693,0.028c-0.774,0.021-1.549,0.008-2.323,0.018
	c-0.492,0.006-0.984,0.004-1.476,0.002c-0.314,0-0.627-0.002-0.939-0.002C10.212,5.049,9.563,5.11,8.912,5.11
	c-0.549,0-1.1,0.01-1.651,0.016C7.047,5.13,6.838,5.13,6.626,5.13c-0.125,0-0.253,0-0.378,0c-0.3,0.002-0.594,0.021-0.892,0.039
	C5.009,5.188,4.66,5.187,4.313,5.194C3.826,5.204,3.34,5.222,2.854,5.24C2.409,5.255,2.036,5.6,2.036,6.057
	c0,0.145,0.053,0.28,0.125,0.404C2.065,6.591,1.997,6.742,2,6.913c0.006,0.331,0.026,1.665,0.02,1.996
	c-0.004,0.267,0,0.533,0.004,0.802c0.004,0.298,0.018,0.598,0.014,0.896c-0.006,0.288-0.002,0.574,0.012,0.861
	c0.018,0.353,0.014,0.704,0.016,1.057c0,0.272,0.016,0.547,0.023,0.821c0.018,0.555,0.024,1.115,0.018,1.672
	c-0.004,0.345,0.006,0.688,0.012,1.033c0.004,0.308-0.004,0.615,0.008,0.923c0.025,0.622,0.018,1.247,0.022,1.87
	c0.004,0.637,0.002,1.276-0.014,1.913c-0.016,0.643-0.008,1.286-0.014,1.927c-0.004,0.502,0.019,2.006-0.031,2.506
	c-0.001,0.003-0.001,0.005-0.002,0.008c-0.066,0.3,0.03,0.602,0.243,0.795c-0.007,0.043-0.025,0.084-0.025,0.128
	c0,0.231,0.092,0.455,0.255,0.618c0.147,0.147,0.404,0.284,0.62,0.257c0.492-0.063,0.982-0.11,1.476-0.143
	c0.38-0.025,0.757-0.047,1.137-0.023c0.702,0.043,1.406,0.074,2.109,0.078c0.806,0.004,1.609-0.01,2.415-0.031
	c0.38-0.01,0.759-0.035,1.137-0.045c0.402-0.012,0.804-0.006,1.206-0.01c0.78-0.008,1.561-0.016,2.341-0.004
	c0.382,0.006,0.765,0.033,1.147,0.043c0.38,0.012,0.761,0.004,1.139,0.01c0.392,0.006,0.784-0.002,1.178-0.004
	c0.398-0.002,0.798,0.014,1.196,0.014c0.792-0.002,1.59-0.02,2.38,0.025c0.267,0.016,0.533,0.008,0.8,0.006
	c0.327-0.004,0.653,0.01,0.978,0.012c0.653,0.004,1.304,0.049,1.957,0.037c0.229-0.004,0.459,0,0.69,0
	c0.331,0.004,0.665,0.006,0.998-0.01c0.454-0.021,0.906-0.074,1.358-0.136c0.022-0.003,0.045-0.005,0.067-0.009
	c0.235-0.039,0.463-0.247,0.578-0.445c0.109-0.187,0.135-0.405,0.107-0.618c0.197-0.151,0.329-0.381,0.346-0.649
	c0.031-0.531,0.018-2.064,0.016-2.596c-0.002-0.304-0.004-0.61-0.004-0.914c0-0.296,0.027-0.586,0.055-0.878
	C30.015,20.39,29.99,20.072,29.988,19.752z M27.682,25.044c-0.274,0.027-0.555,0.028-0.83,0.037
	c-0.412,0.016-0.82,0.039-1.233,0.043c-0.41,0.002-0.816,0.016-1.225,0.004c-0.416-0.01-0.827-0.004-1.243,0
	c-0.739,0.004-1.478-0.016-2.217-0.026c-0.445-0.004-0.89,0.002-1.335,0.008c-0.378,0.006-0.757,0.01-1.133,0.008
	c-0.772-0.004-1.545-0.008-2.317-0.026c-0.798-0.016-1.594-0.059-2.392-0.045c-0.365,0.006-0.729,0.033-1.096,0.029
	c-0.402-0.004-0.804-0.004-1.206,0.006c-0.806,0.021-1.608,0.092-2.413,0.092c-0.933,0.002-1.862-0.004-2.796-0.037
	c-0.867-0.03-1.735-0.003-2.598,0.075c0.043-0.698,0.037-1.809,0.042-2.263c0.006-0.624,0.004-1.245,0.012-1.866
	c0.018-1.282,0.041-2.564,0.031-3.846c-0.002-0.288-0.012-0.576-0.02-0.863c-0.012-0.349,0.002-0.698-0.004-1.047
	c-0.008-0.576,0.008-1.153-0.002-1.729c-0.012-0.598-0.039-1.192-0.047-1.79c-0.008-0.614-0.022-1.229-0.045-1.843
	C3.608,9.817,3.588,9.67,3.578,9.521C3.567,9.36,3.57,9.199,3.567,9.039C3.561,8.664,3.572,7.288,3.57,6.913
	c0-0.027-0.013-0.05-0.016-0.076c0.275-0.014,0.55-0.025,0.825-0.043C4.75,6.769,5.12,6.733,5.491,6.722
	C6.206,6.7,6.928,6.708,7.645,6.72c0.596,0.012,1.194,0.018,1.79-0.012c0.772-0.039,1.547-0.049,2.321-0.047
	c1.055,0.004,2.109,0,3.164-0.006c2.16-0.01,4.321-0.022,6.481,0.045c0.349,0.012,0.7,0.014,1.051,0.031
	c0.251,0.012,0.5,0.035,0.751,0.033c0.616-0.002,1.233-0.004,1.849-0.008c0.612-0.004,1.227,0.002,1.833,0.079
	c0.316,0.039,0.631,0.059,0.947,0.088c0.124,0.013,0.248,0.018,0.373,0.024c-0.035,0.089-0.058,0.183-0.058,0.283
	c-0.002,0.727-0.002,2.455,0.055,3.178c0.029,0.38,0.049,0.757,0.051,1.137c0.002,0.345-0.008,0.688,0.008,1.033
	c0.026,0.608,0.026,1.215,0.061,1.823c0.022,0.368,0.053,0.737,0.061,1.108c0.006,0.374,0.006,0.749,0.02,1.123
	c0.024,0.69,0.02,1.38,0.02,2.07c-0.002,0.641,0.031,1.286,0.006,1.927c-0.012,0.298-0.069,0.59-0.078,0.886
	c-0.012,0.304-0.006,0.606-0.006,0.91c0.002,0.515-0.002,1.924-0.051,2.524c-0.103,0.018-0.206,0.038-0.31,0.054
	C27.882,25.017,27.782,25.03,27.682,25.044z M28.577,26.849c0.081-0.011,0.163-0.022,0.245-0.034c0.005,0,0.009,0,0.014-0.001
	C28.749,26.826,28.663,26.838,28.577,26.849z M26.6,12.541c-0.039-0.431-0.027-0.865-0.023-1.298
	c0.004-0.641,0.004-1.282-0.004-1.923c-0.002-0.235-0.106-0.446-0.267-0.598c-0.036-0.155-0.099-0.302-0.212-0.414
	c-0.145-0.145-0.386-0.271-0.598-0.249C25.19,8.09,24.88,8.057,24.576,8.053c-0.112-0.002-0.224,0-0.335,0
	c-0.186,0-0.37,0-0.557-0.012c-0.327-0.02-0.655-0.008-0.982-0.016c-0.296-0.006-0.592,0.018-0.888,0.018
	c-0.743,0.002-1.486,0-2.227-0.01c-0.176,0-0.353,0-0.529,0c-0.206,0.002-0.412,0.002-0.618-0.002c-0.149,0-0.298,0.002-0.447,0.004
	c-0.188,0.002-0.378,0.006-0.567,0c-0.32-0.008-0.639-0.002-0.961,0c-0.374,0-0.747-0.012-1.119-0.01
	c-0.327,0.002-0.653,0-0.98-0.002c-0.325-0.004-0.653-0.008-0.978-0.006c-0.745,0.006-1.49-0.01-2.237-0.012
	c-0.288-0.002-0.576,0-0.865,0.002S9.712,8.012,9.424,8.01C9.139,8.008,8.855,8.02,8.571,8.022c-0.304,0-0.608-0.004-0.912,0.004
	C7.402,8.031,7.146,8.047,6.891,8.039C6.497,8.028,6.103,8.008,5.709,8C5.703,8,5.698,8,5.692,8C5.264,8,4.911,8.374,4.911,8.798
	c0,0.124,0.035,0.238,0.087,0.343c0,0.002-0.001,0.004-0.002,0.007c-0.027,0.639-0.035,1.278-0.035,1.919
	c0,0.473-0.01,0.945,0,1.417c0.004,0.247,0.004,0.492,0.008,0.737c0.006,0.271,0.037,0.535,0.065,0.802
	c0.02,0.206,0.039,0.412,0.043,0.617c0.002,0.186,0,0.375,0.018,0.561c0.022,0.219,0.075,0.406,0.235,0.568
	c0.02,0.02,0.048,0.029,0.071,0.047c0.002,0.148,0.028,0.294,0.104,0.422c0.076,0.129,0.178,0.233,0.308,0.31
	c0.135,0.078,0.28,0.117,0.435,0.117c0.455,0.055,0.91,0.081,1.366,0.102c0.198,0.01,0.396,0.006,0.594,0.004
	c0.157-0.002,0.314-0.004,0.471-0.002c0.567,0.012,1.135,0.006,1.702-0.029c0.304-0.02,0.608-0.014,0.914-0.02
	c0.371-0.008,0.741-0.012,1.114-0.016c0.653-0.008,1.306-0.008,1.959,0.03c1.519,0.082,3.043,0.067,4.564,0.067
	c0.692,0,1.386,0.008,2.08,0.018c0.302,0.004,0.608,0.002,0.912-0.002c0.422-0.004,0.843-0.008,1.263,0.006
	c0.214,0.008,0.427,0.008,0.643,0.006c0.237,0,0.474-0.002,0.712,0.008c0.353,0.014,0.704,0.008,1.059,0.008
	c0.465,0,0.853-0.388,0.853-0.853c0-0.073-0.025-0.144-0.045-0.215c0.186-0.157,0.314-0.379,0.301-0.633
	c-0.02-0.406-0.016-0.813-0.026-1.219C26.671,13.462,26.641,13.002,26.6,12.541z M11.229,15.081
	c-0.288-0.004-0.576,0.006-0.865,0.018c-0.278,0.01-0.557,0.02-0.835,0.016c-0.198-0.002-0.396,0.002-0.594,0.004
	c-0.214,0.004-0.425,0.006-0.637,0.002c-0.523-0.008-1.043-0.052-1.56-0.109c-0.016-0.002-0.032-0.004-0.049-0.007
	c-0.003-0.121-0.002-0.242-0.007-0.363c-0.01-0.206-0.016-0.412-0.037-0.617C6.59,13.512,6.57,13,6.553,12.485
	c-0.016-0.472-0.029-0.943-0.027-1.417c0.003-0.493,0.033-0.985,0.062-1.476c0.069-0.001,0.137,0,0.206-0.001
	c0.335-0.006,0.671-0.01,1.006-0.01c0.653,0.002,1.306,0.004,1.959,0.004c0.64-0.002,1.28,0.011,1.922,0.022
	c-0.023,1.133-0.022,2.264-0.043,3.397c-0.01,0.563-0.014,1.125-0.016,1.688c-0.001,0.13,0,0.261,0,0.392
	C11.49,15.082,11.359,15.083,11.229,15.081z M15.318,15.179c-0.641-0.031-1.278-0.081-1.921-0.086c-0.062,0-0.124,0-0.186-0.001
	c0-0.05-0.003-0.099-0.003-0.149c0-0.222-0.002-0.445-0.004-0.667c-0.006-0.527-0.014-1.053-0.02-1.58
	c-0.009-1.024,0.061-2.047,0.108-3.07c0.164,0.001,0.329,0.006,0.493,0.006c0.274-0.002,0.547,0.01,0.823,0.021
	c0.18,0.008,0.363,0,0.545,0c0.192,0,0.384,0.012,0.578,0.014c0.131,0.002,0.263,0.002,0.396,0c0.237,0,0.474-0.002,0.714,0.004
	c0.145,0.004,0.292,0.002,0.439-0.002c0.174-0.002,0.349-0.006,0.523,0c0.004,0,0.009,0,0.013,0c0,0.018-0.011,0.034-0.009,0.053
	c0.047,0.608,0.086,1.216,0.131,1.821c0.018,0.249,0.043,0.498,0.039,0.747c-0.004,0.251-0.012,0.502-0.012,0.753
	c0.003,0.725-0.034,1.454-0.001,2.18c-0.091,0-0.182,0.001-0.273,0.002C16.901,15.228,16.11,15.22,15.318,15.179z M22.141,15.203
	c-0.329,0.004-0.659,0.004-0.986,0.002c-0.388,0-0.776-0.002-1.165,0.004c-0.17,0.003-0.341,0.002-0.512,0.003
	c0.001-0.261,0.01-0.523,0.018-0.783c0.012-0.449,0.016-0.898,0.022-1.349c0.018-1.122,0.004-2.239-0.071-3.358
	c-0.001-0.014-0.008-0.026-0.01-0.04C19.625,9.684,19.813,9.688,20,9.686c0.343-0.004,0.686,0.008,1.027,0.01
	c0.092,0.002,0.184,0,0.276,0c0.294,0,0.59,0,0.882,0.02c0.235,0.016,0.469,0.008,0.704,0.006c0.318-0.004,0.637-0.002,0.955,0.002
	c0.265,0.004,0.531,0.037,0.796,0.033c0.096-0.001,0.191,0.001,0.287-0.001c0.011,0.472,0.022,0.944,0.031,1.417
	c0.01,0.447,0,0.896,0.023,1.341c0.026,0.453,0.029,0.91,0.037,1.365c0.006,0.422,0.008,0.845-0.012,1.266
	c0,0.005,0.003,0.009,0.002,0.013C24.054,15.195,23.096,15.19,22.141,15.203z M23.487,18.982c-0.304-0.125-0.643-0.153-0.963-0.225
	c-0.224-0.051-0.441-0.096-0.67-0.116c-0.163-0.014-0.327-0.014-0.49-0.016c-0.028,0-0.056,0-0.084,0
	c-0.346,0-0.691,0.022-1.036,0.042c-0.468,0.027-0.923,0.138-1.378,0.246c-0.119-0.075-0.251-0.129-0.399-0.124
	c-0.886,0.028-1.768,0.041-2.654,0.02c-0.581-0.015-1.161-0.034-1.741-0.034c-0.125,0-0.249,0.001-0.374,0.003
	c-0.371,0.008-0.739,0.03-1.11,0.055c-0.347,0.021-0.696,0.023-1.045,0.023c-0.6,0-1.202-0.02-1.802,0.006
	c-0.647,0.03-1.294,0.053-1.939,0.102c-0.372,0.027-0.759,0.102-1.07,0.318c-0.304,0.21-0.496,0.49-0.625,0.833
	C6.032,20.305,6.012,20.517,6,20.721c-0.027,0.494,0.122,1.049,0.459,1.417c0.435,0.478,1.141,0.514,1.745,0.541
	c0.355,0.018,0.712,0.016,1.067,0.049c0.353,0.035,0.706,0.051,1.061,0.061c0.67,0.021,1.339-0.012,2.009-0.022
	c0.357-0.006,0.714-0.025,1.072-0.029c0.41-0.006,0.82-0.002,1.229-0.006c0.133,0,0.267,0.002,0.402,0.004
	c0.2,0.002,0.402,0.004,0.604-0.002c0.331-0.008,0.659-0.027,0.99-0.018c0.371,0.012,0.743,0,1.116-0.012
	c0.278-0.008,0.557-0.018,0.837-0.018c0.063,0,0.125,0.002,0.19,0.002c0.194,0.001,0.368-0.079,0.508-0.199
	c0.26,0.084,0.519,0.174,0.783,0.242c0.355,0.09,0.735,0.112,1.1,0.118c0.345,0.006,0.692,0.004,1.037-0.01
	c0.376-0.016,0.774-0.027,1.137-0.139c0.202-0.062,0.402-0.147,0.588-0.249c0.174-0.1,0.329-0.247,0.47-0.39
	c0.196-0.194,0.371-0.425,0.461-0.686c0.069-0.196,0.106-0.414,0.098-0.622c-0.018-0.482-0.239-0.876-0.559-1.223
	C24.159,19.267,23.814,19.117,23.487,18.982z M16.834,21.156c-0.643,0.014-1.286,0.041-1.931,0.041
	c-0.771,0-1.539,0.004-2.307,0.031c-0.674,0.023-1.347,0.037-2.021,0.012c-0.461-0.02-0.921-0.051-1.38-0.096
	c-0.434-0.042-0.869-0.055-1.303-0.099c-0.072-0.015-0.143-0.032-0.214-0.053c-0.012-0.043-0.023-0.086-0.032-0.129
	c-0.002-0.051-0.001-0.102,0.001-0.153c0.007-0.031,0.014-0.062,0.023-0.092c0.007-0.004,0.014-0.007,0.021-0.011
	c0.077-0.027,0.156-0.047,0.237-0.063c1.198-0.133,2.41-0.081,3.615-0.133c1.423-0.061,2.845-0.135,4.27-0.086
	c0.696,0.023,1.389,0.038,2.084,0.037c0.016,0.26,0.023,0.52,0.026,0.781C17.56,21.15,17.196,21.148,16.834,21.156z M23.434,20.813
	c-0.005,0.019-0.01,0.038-0.015,0.058c-0.014,0.024-0.029,0.047-0.045,0.07c-0.053,0.059-0.109,0.115-0.167,0.168
	c-0.072,0.048-0.147,0.089-0.224,0.126c-0.094,0.033-0.187,0.061-0.283,0.081c-0.387,0.036-0.774,0.043-1.163,0.049
	c-0.338,0.003-0.67,0.004-1.006-0.031c-0.188-0.032-0.37-0.088-0.553-0.146c-0.148-0.045-0.297-0.09-0.445-0.135
	c-0.009-0.105-0.02-0.21-0.026-0.315c-0.007-0.132-0.008-0.264-0.011-0.397c0.259-0.071,0.519-0.144,0.781-0.197
	c0.252-0.019,0.503-0.021,0.755-0.023c0.245,0,0.49-0.011,0.733,0.009c0.225,0.038,0.448,0.095,0.671,0.144
	c0.212,0.049,0.422,0.098,0.627,0.173c0.079,0.038,0.154,0.08,0.226,0.127c0.034,0.031,0.066,0.063,0.097,0.098
	c0.015,0.024,0.03,0.048,0.043,0.073c0.002,0.006,0.004,0.012,0.005,0.018C23.434,20.78,23.434,20.797,23.434,20.813z"/>
</svg>