<?xml version="1.0" encoding="utf-8"?>
<!-- Generator: Adobe Illustrator 21.1.0, SVG Export Plug-In . SVG Version: 6.00 Build 0)  -->
<svg version="1.1" id="designs" xmlns="http://www.w3.org/2000/svg" xmlns:xlink="http://www.w3.org/1999/xlink" x="0px" y="0px"
	 width="32px" height="32px" viewBox="0 0 32 32" style="enable-background:new 0 0 32 32;" xml:space="preserve">
<style type="text/css">
	.sketchy_een{fill:#111918;}
</style>
<path class="sketchy_een" d="M29.793,21.012c-0.148-0.088-0.295-0.11-0.451-0.099c0.008-0.001,0.017-0.002,0.025-0.003
	c-0.266,0.025-0.533,0.023-0.799,0.021c-0.095,0-0.192-0.002-0.287-0.002c-0.386,0.002-0.77,0.006-1.155,0.01
	c-0.731,0.008-1.462,0.01-2.191,0.043c-0.746,0.033-1.487,0.114-2.233,0.126c-0.766,0.014-1.531,0.008-2.297,0
	c-1.562-0.016-3.125-0.019-4.687-0.035c-0.752-0.008-1.502,0.006-2.255,0.031c-0.772,0.023-1.543,0.031-2.317,0.039
	c-0.711,0.008-1.425,0.031-2.136,0.031c-0.735,0-1.467-0.004-2.2-0.002c-0.853,0.002-1.704,0.002-2.557,0.002
	c-0.682-0.002-1.363-0.002-2.045-0.002c-0.417,0-0.766,0.347-0.766,0.766c0,0.415,0.349,0.772,0.766,0.768
	c0.839-0.01,1.679-0.039,2.518-0.054c0.614-0.01,1.228-0.006,1.842-0.005c-0.003,0.032-0.019,0.06-0.017,0.093
	c0.037,0.754,0.062,1.508,0.097,2.264c0.014,0.308,0.043,0.616,0.064,0.925c0.027,0.388,0.056,0.779,0.136,1.159
	c0.079,0.378,0.361,0.677,0.725,0.793c0.221,0.07,0.458,0.089,0.688,0.105c0.18,0.012,0.364,0.025,0.547,0.008
	c0.223-0.021,0.446-0.058,0.669-0.093c0.06-0.01,0.118-0.019,0.176-0.033c0.085-0.021,0.171-0.06,0.242-0.109
	c0.097-0.064,0.242-0.186,0.293-0.299c0.064-0.143,0.107-0.269,0.13-0.423c0.021-0.145,0.039-0.291,0.056-0.438
	c0.043-0.374,0.066-0.748,0.078-1.124c0.027-0.93,0.016-1.861,0.031-2.79c0-0.019-0.01-0.036-0.011-0.055
	c0.401-0.006,0.802-0.012,1.204-0.014c0.783-0.006,1.566-0.025,2.349-0.031c0.746-0.006,1.491-0.004,2.235-0.006
	c1.513-0.002,3.027,0.009,4.54,0.021c0.004,0.803,0.023,1.606,0.029,2.409c0.002,0.359,0.017,0.715,0.041,1.074
	c0.027,0.413,0.043,0.859,0.235,1.237c0.235,0.465,0.746,0.583,1.214,0.64c0.264,0.031,0.523,0.017,0.789,0.016
	c0.116-0.002,0.235,0,0.353-0.002c0.39-0.01,0.756-0.186,0.934-0.549c0.196-0.399,0.258-0.845,0.314-1.281
	c0.089-0.684,0.083-1.382,0.097-2.07c0.011-0.519,0.021-1.038,0.019-1.557c0.141-0.007,0.282-0.017,0.423-0.021
	c0.698-0.019,1.398-0.017,2.096-0.012c0.353,0.002,0.706,0.008,1.06,0.008c0.395,0,0.81,0.033,1.202-0.041
	c0.421-0.078,0.655-0.582,0.549-0.967C30.099,21.285,29.967,21.114,29.793,21.012z M8.06,26.484
	c-0.004-0.003-0.007-0.006-0.011-0.009C8.053,26.479,8.057,26.482,8.06,26.484C8.06,26.485,8.06,26.484,8.06,26.484z M8.927,26.498
	c-0.029,0.004-0.058,0.008-0.087,0.012c-0.194,0.018-0.391,0.014-0.587,0c-0.053-0.538-0.051-1.087-0.067-1.624
	c-0.019-0.717-0.012-1.433-0.041-2.148c-0.002-0.034-0.016-0.062-0.022-0.095c0.29,0,0.579,0,0.869-0.001
	c-0.001,0.014-0.008,0.027-0.008,0.042c0.019,0.657,0.012,1.314,0.01,1.971C8.991,25.271,8.991,25.887,8.927,26.498z M23.242,24.127
	c-0.004,0.683-0.013,1.377-0.086,2.057c-0.015,0.096-0.031,0.192-0.052,0.286c-0.213,0.009-0.428,0.005-0.636-0.015
	c-0.001,0-0.001,0-0.002,0c-0.127-1.28-0.06-2.577-0.054-3.859c0.23-0.001,0.46,0.001,0.69-0.002
	c0.051-0.001,0.102-0.005,0.153-0.007C23.256,23.101,23.245,23.615,23.242,24.127z M30.124,13.207
	c-0.359,0.024-0.712-0.011-1.068-0.054c-0.219-0.031-0.437-0.065-0.651-0.123c-0.232-0.062-0.456-0.147-0.679-0.234
	c-0.768-0.343-1.499-0.807-2.173-1.313c-0.167-0.141-0.33-0.285-0.486-0.438c-0.18-0.175-0.339-0.374-0.498-0.568
	c-0.238-0.322-0.447-0.651-0.621-1.013c-0.259-0.674-0.433-1.368-0.558-2.08c-0.036-0.303-0.067-0.607-0.069-0.912
	c-0.004-0.419,0.002-0.836,0.016-1.252c0.012-0.386-0.293-0.699-0.656-0.772c-0.152-0.155-0.361-0.253-0.586-0.253
	c-0.452,0-0.82,0.374-0.822,0.824c-0.007,0.874-0.007,1.749-0.011,2.623c-0.069,0.268-0.165,0.532-0.27,0.789
	c-0.202,0.468-0.401,0.938-0.643,1.388c-0.249,0.468-0.534,0.909-0.85,1.334c-0.373,0.461-0.807,0.877-1.27,1.248
	c-0.258,0.189-0.524,0.352-0.815,0.488c-0.445,0.173-0.9,0.278-1.371,0.353c-0.46,0.047-0.909,0.033-1.368-0.016
	c-0.632-0.103-1.234-0.297-1.826-0.536c-0.219-0.094-0.438-0.191-0.642-0.312c-0.24-0.141-0.47-0.295-0.694-0.46
	c-0.349-0.288-0.664-0.602-0.95-0.953c-0.116-0.162-0.228-0.324-0.331-0.494c-0.101-0.164-0.18-0.335-0.257-0.51
	C9.816,9.587,9.665,9.215,9.523,8.838c-0.078-0.209-0.145-0.423-0.207-0.64C9.283,8.083,9.259,7.967,9.234,7.849
	c-0.011-0.053-0.02-0.106-0.029-0.158C9.197,7.6,9.181,7.509,9.172,7.42C9.125,6.942,9.16,6.451,9.166,5.972
	C9.168,5.826,9.114,5.697,9.04,5.581C9.046,5.454,9.05,5.327,9.056,5.2c0.021-0.427-0.372-0.781-0.783-0.781
	c-0.44,0-0.764,0.357-0.783,0.781C7.477,5.517,7.477,5.835,7.47,6.152C7.467,6.173,7.459,6.19,7.457,6.211
	c-0.011,0.09-0.021,0.18-0.033,0.269C7.318,7.129,7.18,7.775,7.035,8.415c-0.137,0.61-0.339,1.205-0.574,1.783
	c-0.332,0.733-0.699,1.453-1.165,2.11c-0.094,0.115-0.189,0.229-0.289,0.339c-0.109,0.119-0.233,0.223-0.359,0.323
	c-0.394,0.286-0.81,0.537-1.253,0.74c-0.142,0.05-0.283,0.088-0.43,0.116c-0.105,0.004-0.207-0.001-0.31-0.01
	C2.44,13.77,2.231,13.712,2.021,13.64c-0.415-0.145-0.88,0.161-0.992,0.564c-0.12,0.442,0.147,0.851,0.564,0.992
	c0.459,0.155,0.96,0.24,1.444,0.2c0.167-0.014,0.327-0.061,0.488-0.103c0.027,0.431,0.049,0.863,0.057,1.295
	c0.006,0.359,0.006,0.717,0.012,1.078c0.003,0.28,0.005,0.563-0.014,0.843c-0.498-0.012-0.997-0.028-1.495-0.02
	c-0.446,0.006-0.818,0.364-0.818,0.816c0,0.438,0.372,0.826,0.818,0.816c0.411-0.008,0.824-0.025,1.235-0.027
	c0.392-0.004,0.783,0.01,1.175,0.014c0.76,0.008,1.516-0.016,2.276-0.023c1.584-0.017,3.168-0.041,4.751-0.023
	c1.557,0.017,3.111,0.016,4.666,0.008c1.595-0.006,3.187-0.091,4.782-0.101c0.595-0.002,1.19-0.002,1.785,0
	c0.795,0,1.59,0.002,2.384-0.008c0.585-0.006,1.173,0.002,1.76,0.012c0.791,0.012,1.582,0.023,2.375-0.006
	c0.425-0.016,0.779-0.343,0.779-0.779c0-0.438-0.355-0.764-0.779-0.779c-0.386-0.016-0.775-0.002-1.161-0.002
	c-0.368,0.002-0.735-0.014-1.103-0.016c-0.169-0.002-0.338-0.002-0.507-0.002c0.065-0.114,0.111-0.239,0.103-0.376
	c-0.047-0.859-0.107-1.718-0.134-2.578c-0.016-0.464-0.015-0.929-0.021-1.393c0.029,0.016,0.056,0.034,0.085,0.05
	c0.539,0.291,1.113,0.541,1.714,0.669c0.33,0.072,0.675,0.099,1.01,0.136c0.287,0.033,0.574,0.064,0.863,0.062
	C30.601,14.955,31,14.562,31,14.083C31,13.629,30.601,13.176,30.124,13.207z M13.439,14.566c0.386,0.116,0.779,0.176,1.178,0.224
	c-0.02,1.212-0.042,2.425-0.039,3.639c0,0.035,0.016,0.066,0.021,0.1c-0.648,0.004-1.295,0.002-1.942,0.002
	c-0.048-0.708-0.058-1.419-0.062-2.129c-0.003-0.718-0.011-1.436-0.023-2.153C12.858,14.361,13.143,14.478,13.439,14.566z
	 M6.288,18.518c-0.379,0.003-0.758-0.001-1.137,0c0.025-0.272,0.023-0.547,0.02-0.82c-0.004-0.349-0.008-0.698-0.008-1.049
	c0-0.711-0.017-1.423-0.055-2.133c0.081-0.055,0.17-0.097,0.248-0.156c0.353-0.266,0.684-0.531,0.963-0.876
	c0.264-0.326,0.504-0.667,0.711-1.031c0.148-0.259,0.278-0.529,0.409-0.798c0.003,1.055,0.004,2.11,0.012,3.164
	c0.004,0.615,0.019,1.231,0.004,1.846c-0.006,0.324-0.019,0.647-0.041,0.969c-0.019,0.298-0.057,0.592-0.081,0.889
	C6.985,18.521,6.637,18.516,6.288,18.518z M9.576,18.532c-0.251,0-0.502-0.001-0.753-0.003c0.015-0.701,0.077-1.4,0.086-2.101
	c0.014-0.764,0.014-1.528,0.016-2.291c0.005-0.948,0-1.897-0.002-2.846c0.143,0.24,0.299,0.473,0.471,0.696
	c0.225,0.289,0.469,0.572,0.746,0.812c0.257,0.223,0.535,0.421,0.814,0.617c-0.005,0.039-0.023,0.073-0.021,0.113
	c0.037,0.932,0.093,1.863,0.118,2.795c0.01,0.423,0.016,0.845,0.021,1.268c0.004,0.313,0.01,0.626,0.02,0.938
	c-0.193-0.001-0.387,0.001-0.58,0C10.2,18.532,9.888,18.532,9.576,18.532z M16.186,18.526c-0.003,0-0.005,0-0.008,0
	c0.005-0.033,0.02-0.063,0.02-0.097c0.006-0.599,0.006-1.2,0.021-1.799c0.016-0.617,0.057-1.232,0.081-1.849
	c0.245-0.039,0.489-0.084,0.732-0.134c0.357-0.074,0.698-0.207,1.032-0.351c0.001,0.086,0.003,0.173,0.004,0.259
	c0.004,0.487-0.01,0.971-0.031,1.458c-0.037,0.83-0.065,1.661-0.127,2.49c-0.126,0.004-0.252,0.011-0.378,0.013
	C17.084,18.526,16.634,18.526,16.186,18.526z M19.875,18.441c-0.144,0.001-0.287,0.009-0.431,0.013
	c0.017-0.34,0.037-0.679,0.059-1.019c0.029-0.465,0.043-0.932,0.066-1.4c0.045-0.939,0.067-1.878,0.075-2.818
	c0.439-0.393,0.849-0.821,1.206-1.287c0.151-0.197,0.284-0.41,0.422-0.618c0.022,1.165,0.052,2.329,0.065,3.495
	c0.008,0.591,0.019,1.183,0.014,1.772c-0.006,0.62-0.005,1.242-0.066,1.859C20.814,18.438,20.345,18.438,19.875,18.441z
	 M24.915,15.434c0.031,0.861,0.081,1.719,0.093,2.578c0.002,0.14,0.049,0.265,0.113,0.381c-0.176,0.001-0.352,0.002-0.528,0.002
	c-0.604,0.002-1.208,0.021-1.812,0.032c0.008-1.495,0.044-2.99,0.056-4.485c0.008-1.056-0.004-2.112-0.014-3.167
	c0.21,0.365,0.466,0.702,0.73,1.03c0.256,0.318,0.539,0.603,0.849,0.868c0.13,0.111,0.278,0.204,0.415,0.308
	C24.838,13.8,24.885,14.616,24.915,15.434z"/>
</svg>