<?xml version="1.0" encoding="utf-8"?>
<!-- Generator: Adobe Illustrator 21.1.0, SVG Export Plug-In . SVG Version: 6.00 Build 0)  -->
<svg version="1.1" id="designs" xmlns="http://www.w3.org/2000/svg" xmlns:xlink="http://www.w3.org/1999/xlink" x="0px" y="0px"
	 width="32px" height="32px" viewBox="0 0 32 32" style="enable-background:new 0 0 32 32;" xml:space="preserve">
<style type="text/css">
	.sketchy_een{fill:#111918;}
</style>
<path class="sketchy_een" d="M25.153,19.112c0.032,1.663-0.024,3.326,0.02,4.99c0.012,0.433-0.369,0.796-0.794,0.796
	c-0.421,0-0.812-0.363-0.796-0.796c0.032-0.812,0.03-1.623,0.026-2.435c-0.004-0.804-0.01-1.609-0.042-2.411
	c-0.034-0.847-0.078-1.689-0.082-2.537c-0.004-0.867-0.016-1.733-0.02-2.601c-0.004-1.827-0.049-3.651-0.083-5.478
	c-1.721-0.162-3.453-0.144-5.18-0.175c-0.83-0.014-1.659-0.044-2.489-0.07c-0.838-0.026-1.675-0.066-2.513-0.058
	c-0.818,0.006-1.637,0.044-2.453,0.092C10.102,8.466,9.458,8.51,8.816,8.574c0.064,1.769,0.042,3.537,0.047,5.309
	c0.004,1.719,0.006,3.438,0.006,5.157c0.002,0.816,0.014,1.629,0.018,2.445c0.003,0.561-0.006,1.124-0.003,1.685
	c0.904,0.001,1.808,0,2.713-0.003c0.291-0.001,0.581-0.003,0.872-0.003c0.515,0,1.031,0.007,1.547,0.038
	c0.844,0.05,1.687,0.092,2.533,0.104c0.788,0.01,1.576-0.002,2.363-0.002c0.798-0.002,1.597-0.004,2.395-0.036
	c0.421-0.016,0.772,0.365,0.772,0.772c0,0.429-0.351,0.762-0.772,0.772c-0.523,0.014-1.047,0.054-1.57,0.044
	c-0.463-0.008-0.923-0.018-1.386-0.02c-0.828-0.004-1.655-0.01-2.485-0.022c-0.818-0.012-1.633-0.072-2.453-0.098
	c-1.697-0.05-3.392,0.086-5.088,0.092c-0.188,0-0.356-0.077-0.495-0.187c-0.327-0.107-0.576-0.407-0.574-0.768
	c0.002-0.419,0.02-0.84,0.022-1.26c0-0.469,0-0.939,0.004-1.41C7.296,20.229,7.3,19.276,7.3,18.321
	c0.004-1.653,0.012-3.309,0.006-4.964c-0.002-0.85-0.008-1.699-0.034-2.547C7.244,9.896,7.186,8.985,7.134,8.074
	C7.126,7.919,7.181,7.782,7.259,7.657C7.277,7.57,7.299,7.482,7.345,7.404c0.098-0.167,0.297-0.353,0.499-0.383
	c0.608-0.088,1.215-0.14,1.829-0.154c0.53-0.012,1.061-0.014,1.589-0.022c0.693-0.012,1.386-0.034,2.079-0.034
	c0.328,0,0.655,0.005,0.983,0.018c1.677,0.066,3.354,0.146,5.032,0.158c0.323,0.004,0.646,0.002,0.969,0.002
	c0.469,0,0.935-0.002,1.402,0.006c0.409,0.008,0.816,0.026,1.223,0.042c0.355,0.014,0.71,0.002,1.067,0.018
	c0.47,0.019,0.821,0.408,0.798,0.866c0.193,0.162,0.325,0.397,0.327,0.665c0.016,1.801-0.036,3.6-0.044,5.399
	c-0.002,0.874-0.002,1.747,0,2.621C25.099,17.443,25.137,18.276,25.153,19.112z M29,27.435c0,0.219-0.088,0.431-0.241,0.584
	c-0.156,0.154-0.367,0.241-0.584,0.241c-0.035,0-0.074-0.016-0.112-0.021c-0.124-0.005-0.248-0.027-0.365-0.088
	c-0.255-0.132-0.493-0.292-0.751-0.415c-0.171-0.064-0.341-0.125-0.518-0.169c-0.344-0.025-0.689-0.008-1.033,0.021
	c-0.352,0.061-0.694,0.153-1.029,0.279c-0.644,0.298-1.272,0.682-1.988,0.757c-0.239,0.026-0.481,0.002-0.72-0.022
	c-0.237-0.026-0.463-0.064-0.688-0.144c-0.132-0.046-0.257-0.11-0.381-0.174c-0.095-0.05-0.195-0.1-0.289-0.158
	c-0.049,0.045-0.098,0.088-0.15,0.13c-0.168,0.138-0.355,0.295-0.548,0.397c-0.349,0.183-0.74,0.287-1.135,0.289
	c-0.656,0.002-1.328-0.189-1.815-0.648c-0.028-0.026-0.054-0.054-0.08-0.082c-0.071,0.057-0.144,0.111-0.219,0.162
	c-0.193,0.134-0.423,0.257-0.652,0.309c-0.09,0.02-0.177,0.036-0.267,0.05c-0.16,0.026-0.369,0.068-0.533,0.048
	c-0.337-0.038-0.674-0.092-0.989-0.221c-0.15-0.06-0.309-0.112-0.447-0.199c-0.15-0.098-0.323-0.216-0.439-0.355
	c-0.004-0.004-0.007-0.009-0.011-0.013c-0.189,0.113-0.382,0.218-0.604,0.268c-0.263,0.06-0.538,0.102-0.81,0.076
	c-0.13-0.01-0.255-0.026-0.385-0.044c-0.154-0.024-0.305-0.052-0.457-0.092c-0.327-0.084-0.65-0.193-0.963-0.319
	c-0.344-0.136-0.699-0.294-1.063-0.366c-0.204-0.016-0.409-0.011-0.613,0.007c-0.151,0.028-0.296,0.066-0.44,0.118
	c-0.266,0.135-0.507,0.306-0.745,0.482c-0.167,0.137-0.333,0.275-0.498,0.414c-0.17,0.142-0.341,0.235-0.568,0.235
	c-0.197,0-0.384-0.081-0.532-0.211c-0.152-0.009-0.302-0.041-0.436-0.119c-0.453-0.265-0.614-0.869-0.347-1.324
	c0.046-0.077,0.088-0.154,0.126-0.233c0.079-0.207,0.146-0.417,0.193-0.634c0.006-0.103,0.005-0.204-0.002-0.307
	c-0.04-0.198-0.094-0.39-0.162-0.58c-0.158-0.308-0.367-0.588-0.535-0.894c-0.255-0.465-0.513-0.947-0.626-1.47
	c-0.106-0.487-0.15-0.965-0.046-1.456c0.072-0.341,0.179-0.664,0.359-0.965c0.057-0.095,0.119-0.183,0.187-0.267
	c-0.104-0.132-0.202-0.271-0.29-0.414c-0.169-0.277-0.331-0.586-0.377-0.909c-0.028-0.2-0.076-0.413-0.056-0.616
	c0.02-0.217,0.044-0.435,0.106-0.644c0.102-0.347,0.269-0.652,0.495-0.933c0.096-0.12,0.202-0.225,0.316-0.321
	c-0.036-0.045-0.074-0.089-0.113-0.131c-0.333-0.361-0.688-0.714-0.87-1.181c-0.235-0.606-0.167-1.33,0.096-1.913
	c0.161-0.353,0.404-0.633,0.692-0.875c-0.149-0.164-0.294-0.343-0.401-0.535c-0.126-0.221-0.221-0.455-0.315-0.688
	c-0.108-0.261-0.156-0.564-0.179-0.844c-0.04-0.512,0.114-1.043,0.389-1.476C3.75,8.5,3.996,8.189,4.177,7.842
	c0.036-0.103,0.064-0.206,0.086-0.314c0.008-0.131,0.012-0.261,0.006-0.393c-0.051-0.218-0.126-0.429-0.206-0.64
	C3.784,5.907,3.416,5.364,3.111,4.79C2.89,4.375,3.003,3.855,3.42,3.609c0.061-0.035,0.127-0.06,0.195-0.079
	c0.091-0.075,0.194-0.135,0.309-0.166c0.199-0.056,0.477-0.042,0.65,0.084c0.271,0.199,0.55,0.389,0.83,0.576
	c0.189,0.128,0.38,0.247,0.583,0.348C6.057,4.396,6.128,4.418,6.2,4.437c0.042,0.002,0.083,0.001,0.125,0
	C6.447,4.406,6.567,4.365,6.685,4.32c0.383-0.189,0.73-0.426,1.098-0.643c0.235-0.14,0.489-0.24,0.74-0.341
	C8.842,3.21,9.169,3.163,9.51,3.123c0.169-0.02,0.337-0.03,0.509-0.024c0.311,0.01,0.608,0.116,0.887,0.25
	c0.197,0.094,0.393,0.193,0.576,0.313c0.229,0.149,0.445,0.325,0.674,0.479c0.171-0.153,0.344-0.303,0.539-0.434
	c0.146-0.098,0.297-0.189,0.449-0.279c0.239-0.142,0.497-0.291,0.776-0.329c0.166-0.022,0.321-0.041,0.477-0.041
	c0.114,0,0.229,0.01,0.35,0.037c0.096,0.02,0.191,0.042,0.283,0.074c0.15,0.048,0.293,0.106,0.439,0.167
	c0.122,0.052,0.245,0.102,0.353,0.182c0.187,0.135,0.367,0.277,0.536,0.435c0.042,0.038,0.083,0.076,0.124,0.115
	c0.158-0.115,0.31-0.238,0.472-0.346c0.433-0.287,0.929-0.375,1.432-0.441c0.076-0.01,0.158-0.024,0.231-0.024
	c0.14,0.002,0.321,0.006,0.453,0.046c0.172,0.052,0.341,0.118,0.501,0.201c0.134,0.07,0.269,0.142,0.389,0.233
	c0.129,0.098,0.255,0.195,0.369,0.306c0.053-0.033,0.106-0.065,0.16-0.097c0.146-0.084,0.309-0.154,0.465-0.213
	c0.124-0.048,0.251-0.098,0.383-0.122c0.243-0.046,0.499-0.09,0.746-0.074c0.247,0.014,0.505,0.032,0.74,0.112
	c0.283,0.094,0.538,0.221,0.776,0.399c0.084,0.063,0.166,0.128,0.249,0.194c0.186,0.133,0.381,0.243,0.587,0.34
	c0.13,0.048,0.26,0.091,0.393,0.126c0.151,0.009,0.302,0.001,0.452-0.013c0.22-0.045,0.424-0.117,0.631-0.2
	c0.303-0.126,0.605-0.252,0.908-0.378c0.274-0.12,0.538-0.251,0.795-0.409c0.369-0.225,0.87-0.082,1.085,0.285
	c0.079,0.136,0.099,0.297,0.088,0.457c0.097,0.247,0.101,0.529-0.047,0.763c-0.282,0.444-0.559,0.891-0.787,1.365
	c-0.057,0.157-0.099,0.316-0.129,0.48c-0.006,0.093-0.008,0.185-0.005,0.278c0.017,0.073,0.038,0.144,0.064,0.216
	c0.332,0.709,0.826,1.361,0.987,2.14c0.096,0.462,0.136,0.947,0.002,1.41c-0.086,0.303-0.227,0.586-0.409,0.844
	c-0.085,0.119-0.173,0.235-0.264,0.348c0.131,0.163,0.262,0.328,0.362,0.514c0.142,0.269,0.273,0.552,0.321,0.858
	c0.064,0.407,0.038,0.82-0.07,1.219c-0.108,0.401-0.257,0.792-0.493,1.137c-0.009,0.013-0.018,0.025-0.026,0.038
	c0.105,0.113,0.198,0.237,0.28,0.373c0.231,0.387,0.313,0.818,0.367,1.256c0.036,0.303,0.038,0.63-0.068,0.919
	c-0.13,0.351-0.303,0.658-0.556,0.935c-0.052,0.056-0.106,0.11-0.159,0.165c0.122,0.166,0.225,0.332,0.311,0.525
	c0.1,0.225,0.189,0.451,0.255,0.688c0.116,0.421,0.088,0.865-0.01,1.286c-0.185,0.799-0.57,1.533-0.723,2.336
	c-0.005,0.074-0.005,0.146-0.002,0.22c0.056,0.284,0.141,0.56,0.224,0.836c0.075,0.246,0.154,0.494,0.245,0.734
	c0.107,0.22,0.232,0.425,0.381,0.622c-0.006-0.008-0.013-0.016-0.019-0.024C28.927,27.082,29,27.232,29,27.435z M16.231,4.226
	c0.007,0,0.013-0.001,0.019-0.002c0,0,0.001,0,0.001,0C16.244,4.224,16.238,4.225,16.231,4.226z M26.56,25.981
	c-0.12-0.367-0.223-0.743-0.251-1.123c-0.05-0.65,0.193-1.284,0.415-1.885c0.155-0.418,0.292-0.833,0.373-1.271
	c0.006-0.087,0.007-0.171,0.003-0.257c-0.029-0.111-0.064-0.218-0.103-0.326c-0.061-0.13-0.128-0.254-0.205-0.375
	c-0.086-0.091-0.179-0.17-0.27-0.26c-0.197-0.198-0.319-0.435-0.331-0.718c-0.014-0.285,0.114-0.522,0.291-0.734
	c0.205-0.243,0.456-0.443,0.666-0.683c0.017-0.028,0.034-0.056,0.049-0.085c0.014-0.043,0.026-0.087,0.037-0.132
	c0.001-0.042,0.001-0.083-0.001-0.125c-0.036-0.185-0.082-0.365-0.143-0.542c-0.024-0.046-0.05-0.09-0.078-0.133
	c-0.018-0.019-0.036-0.037-0.055-0.055c-0.119-0.069-0.245-0.118-0.364-0.19c-0.223-0.137-0.373-0.343-0.447-0.592
	c-0.1-0.333,0.026-0.656,0.241-0.906c0.082-0.096,0.181-0.179,0.269-0.273c0.071-0.078,0.14-0.156,0.209-0.237
	c0.071-0.104,0.134-0.212,0.191-0.326c0.056-0.155,0.103-0.313,0.134-0.476c0.006-0.096,0.008-0.192,0.004-0.289
	c-0.015-0.068-0.034-0.134-0.056-0.199c-0.055-0.111-0.116-0.219-0.185-0.323c-0.062-0.069-0.128-0.134-0.198-0.196
	c-0.162-0.115-0.319-0.233-0.43-0.404c-0.239-0.367-0.162-0.84,0.128-1.153c0.1-0.108,0.225-0.192,0.333-0.293
	c0.076-0.069,0.144-0.141,0.211-0.216c0.097-0.134,0.185-0.273,0.262-0.42c0.019-0.06,0.034-0.119,0.047-0.179
	c0.005-0.092,0.006-0.181,0.003-0.272c-0.033-0.16-0.077-0.315-0.131-0.472C27.04,9.57,26.88,9.288,26.715,9.009
	c-0.353-0.592-0.698-1.232-0.632-1.948c0.034-0.355,0.088-0.698,0.225-1.029c0.009-0.022,0.02-0.043,0.029-0.064
	c-0.149,0.061-0.299,0.119-0.453,0.161c-0.197,0.054-0.399,0.08-0.602,0.104c-0.203,0.026-0.399,0.038-0.604,0.018
	c-0.417-0.044-0.872-0.183-1.24-0.383c-0.263-0.142-0.499-0.318-0.731-0.504c-0.074-0.052-0.15-0.099-0.23-0.143
	c-0.077-0.027-0.154-0.051-0.234-0.069c-0.132-0.009-0.262-0.01-0.395,0.001c-0.089,0.019-0.175,0.043-0.261,0.073
	c-0.135,0.065-0.263,0.139-0.388,0.225c-0.06,0.049-0.119,0.099-0.179,0.149c-0.168,0.138-0.321,0.259-0.533,0.319
	c-0.183,0.052-0.365,0.062-0.55,0.018c-0.383-0.092-0.574-0.394-0.782-0.688c-0.047-0.052-0.095-0.102-0.146-0.149
	c-0.106-0.07-0.215-0.132-0.33-0.187c-0.008-0.003-0.016-0.005-0.024-0.007c-0.023,0-0.046,0.001-0.069,0.002
	c-0.19,0.033-0.378,0.074-0.562,0.132c-0.141,0.073-0.271,0.158-0.399,0.251c-0.16,0.126-0.319,0.253-0.485,0.374
	c-0.397,0.289-0.917,0.335-1.336,0.054c-0.211-0.142-0.397-0.303-0.574-0.481c-0.104-0.104-0.207-0.205-0.318-0.301
	c-0.035-0.022-0.071-0.043-0.107-0.062c-0.137-0.052-0.276-0.094-0.419-0.128c-0.032-0.001-0.065,0-0.097,0.001
	c-0.048,0.011-0.094,0.025-0.141,0.04c-0.215,0.115-0.421,0.244-0.623,0.383c-0.11,0.09-0.216,0.186-0.317,0.287
	c-0.066,0.066-0.132,0.132-0.201,0.193c-0.195,0.176-0.483,0.335-0.756,0.315c-0.249-0.018-0.469-0.078-0.682-0.209
	c-0.082-0.052-0.162-0.106-0.237-0.161c-0.146-0.108-0.286-0.225-0.428-0.338c-0.249-0.184-0.503-0.348-0.781-0.48
	c-0.056-0.02-0.112-0.035-0.168-0.048c-0.158,0-0.312,0.015-0.467,0.034C9.292,4.795,9.111,4.85,8.93,4.917
	C8.598,5.076,8.302,5.281,7.988,5.474c-0.463,0.285-0.981,0.55-1.528,0.61C6.177,6.115,5.9,6.068,5.632,5.984
	c0.068,0.173,0.136,0.345,0.189,0.525c0.215,0.736,0.144,1.617-0.253,2.283C5.354,9.154,5.086,9.482,4.884,9.851
	C4.859,9.924,4.84,9.997,4.823,10.074c-0.002,0.052-0.002,0.103,0,0.155c0.032,0.168,0.074,0.331,0.134,0.493
	c0.054,0.113,0.114,0.222,0.184,0.327c0.101,0.116,0.211,0.223,0.327,0.327c0.106,0.096,0.223,0.185,0.311,0.297
	c0.074,0.092,0.152,0.182,0.207,0.287c0.06,0.116,0.142,0.327,0.124,0.465c-0.01,0.088-0.022,0.174-0.034,0.261
	c-0.03,0.08-0.064,0.158-0.102,0.233c-0.038,0.08-0.126,0.174-0.199,0.233c-0.208,0.168-0.447,0.278-0.67,0.421
	c-0.072,0.062-0.138,0.127-0.203,0.198c-0.017,0.027-0.033,0.053-0.048,0.081c-0.027,0.076-0.051,0.152-0.07,0.231
	c-0.005,0.094-0.004,0.186,0.003,0.28c0.012,0.062,0.027,0.123,0.045,0.184c0.029,0.053,0.062,0.104,0.096,0.155
	c0.15,0.175,0.315,0.338,0.46,0.516c0.087,0.108,0.171,0.215,0.264,0.313c0.057,0.018,0.114,0.042,0.171,0.074
	c0.054,0.032,0.11,0.062,0.164,0.096c0.158,0.096,0.293,0.229,0.385,0.389c0.168,0.289,0.148,0.614,0.006,0.907
	c-0.116,0.235-0.355,0.369-0.568,0.501c-0.094,0.057-0.187,0.116-0.277,0.179c-0.067,0.06-0.13,0.121-0.19,0.187
	c-0.033,0.054-0.064,0.108-0.092,0.165c-0.023,0.072-0.042,0.144-0.057,0.217c-0.003,0.073-0.002,0.146,0.003,0.219
	c0.013,0.061,0.028,0.121,0.046,0.18c0.079,0.147,0.166,0.289,0.262,0.426c0.123,0.144,0.254,0.272,0.398,0.393
	c0.082,0.059,0.164,0.117,0.241,0.183c0.339,0.289,0.399,0.82,0.18,1.197c-0.163,0.279-0.464,0.405-0.726,0.571
	c-0.016,0.016-0.032,0.031-0.048,0.048c-0.028,0.046-0.055,0.092-0.08,0.139c-0.033,0.107-0.059,0.215-0.08,0.325
	c-0.005,0.091-0.004,0.181,0.001,0.272c0.036,0.187,0.083,0.372,0.148,0.55c0.151,0.317,0.324,0.628,0.509,0.926
	c0.104,0.166,0.229,0.323,0.323,0.495c0.124,0.223,0.231,0.459,0.313,0.702c0.154,0.459,0.234,0.952,0.193,1.436
	c0.482-0.226,1.017-0.365,1.554-0.365c0.137,0,0.273,0.009,0.408,0.026c0.245,0.034,0.477,0.072,0.71,0.15
	c0.102,0.034,0.203,0.068,0.305,0.104c0.197,0.076,0.393,0.156,0.594,0.225c0.361,0.126,0.72,0.235,1.095,0.301
	c0.112,0.009,0.223,0.013,0.335,0.009c0.055-0.012,0.109-0.026,0.164-0.042c0.199-0.103,0.381-0.231,0.578-0.338
	c0.13-0.07,0.261-0.128,0.401-0.179c0.205-0.074,0.497-0.012,0.684,0.098c0.214,0.125,0.338,0.331,0.468,0.531
	c0.034,0.035,0.068,0.068,0.104,0.1c0.043,0.025,0.085,0.048,0.129,0.07c0.162,0.06,0.328,0.108,0.498,0.146
	c0.082,0.004,0.162,0.003,0.244-0.003c0.077-0.015,0.151-0.032,0.226-0.056c0.066-0.036,0.13-0.074,0.193-0.115
	c0.096-0.089,0.18-0.188,0.268-0.288c0.317-0.361,0.818-0.475,1.244-0.243c0.311,0.167,0.513,0.47,0.769,0.708
	c0.045,0.028,0.09,0.055,0.137,0.08c0.112,0.04,0.226,0.07,0.343,0.094c0.088,0.005,0.173,0.005,0.261,0
	c0.072-0.016,0.141-0.034,0.211-0.057c0.104-0.058,0.204-0.123,0.302-0.19c0.162-0.137,0.305-0.288,0.454-0.442
	c0.249-0.257,0.6-0.399,0.955-0.301c0.208,0.056,0.363,0.195,0.52,0.332c0.135,0.09,0.276,0.169,0.422,0.239
	c0.124,0.039,0.246,0.067,0.374,0.09c0.145,0.015,0.291,0.025,0.436,0.019c0.21-0.05,0.41-0.13,0.61-0.212
	c0.389-0.173,0.76-0.381,1.164-0.519c0.427-0.146,0.875-0.255,1.328-0.291c0.219-0.018,0.439-0.026,0.66-0.028
	C26.198,25.959,26.381,25.964,26.56,25.981z"/>
</svg>