<?xml version="1.0" encoding="utf-8"?>
<!-- Generator: Adobe Illustrator 21.1.0, SVG Export Plug-In . SVG Version: 6.00 Build 0)  -->
<svg version="1.1" id="designs" xmlns="http://www.w3.org/2000/svg" xmlns:xlink="http://www.w3.org/1999/xlink" x="0px" y="0px"
	 width="32px" height="32px" viewBox="0 0 32 32" style="enable-background:new 0 0 32 32;" xml:space="preserve">
<style type="text/css">
	.sketchy_een{fill:#111918;}
</style>
<path class="sketchy_een" d="M25.697,22.133c0.005-0.041,0.011-0.082,0.016-0.123c-0.004,0.033-0.009,0.065-0.013,0.098
	C25.699,22.117,25.698,22.125,25.697,22.133z M28.974,12.263c-0.221,1.085-0.447,2.167-0.62,3.258
	c-0.152,0.939-0.314,1.877-0.447,2.82c-0.087,0.71-0.169,1.42-0.255,2.13c0,0.069-0.008,0.138-0.025,0.205
	c-0.052,0.426-0.105,0.853-0.16,1.279c-0.093,0.712-0.183,1.426-0.292,2.135c-0.083,0.537-0.174,1.074-0.251,1.613
	c-0.04,0.32-0.076,0.641-0.125,0.961c-0.038,0.265-0.058,0.557-0.149,0.809c-0.043,0.122-0.103,0.228-0.177,0.322
	c-0.016,0.212-0.098,0.415-0.248,0.564c-0.183,0.183-0.384,0.23-0.628,0.261c-0.682,0.083-1.37,0.047-2.054,0.081
	c-0.696,0.034-1.396,0.03-2.093,0.046c-0.714,0.018-1.423,0.05-2.137,0.058c-0.743,0.008-1.491,0.004-2.232-0.018
	c-0.895-0.024-1.787-0.034-2.68-0.083c-0.883-0.048-1.763-0.042-2.646-0.03c-0.873,0.012-1.743,0.027-2.616,0.054
	c-0.926,0.027-1.857-0.008-2.781-0.05c-0.158-0.007-0.3-0.062-0.43-0.134c-0.18-0.032-0.352-0.102-0.481-0.231
	c-0.181-0.181-0.239-0.39-0.262-0.636c-0.036-0.368-0.04-0.739-0.07-1.109c-0.028-0.335-0.065-0.67-0.107-1.005
	c-0.104-0.755-0.225-1.509-0.363-2.261c-0.145-0.785-0.302-1.57-0.439-2.357c-0.145-0.841-0.318-1.678-0.443-2.523
	c-0.127-0.86-0.205-1.725-0.32-2.588c0.01,0.071,0.02,0.143,0.03,0.215c-0.187-1.372-0.374-2.742-0.471-4.123
	c-0.029-0.405,0.324-0.736,0.705-0.798c0.132-0.086,0.274-0.142,0.424-0.142c0.211,0,0.425,0.082,0.595,0.233
	c0.343,0.31,0.687,0.614,1.049,0.901c0.305,0.22,0.629,0.415,0.948,0.615c0.189-0.472,0.38-0.943,0.565-1.415
	c0.153-0.39,0.302-0.781,0.457-1.171C7.95,9.624,8.139,9.05,8.529,8.628c0.177-0.19,0.429-0.287,0.681-0.287
	c0.153,0,0.306,0.036,0.443,0.108c0.215,0.113,0.34,0.284,0.483,0.471c0.107,0.141,0.197,0.294,0.278,0.451
	c0.187,0.356,0.396,0.692,0.608,1.032c0.173,0.276,0.331,0.562,0.49,0.847c0.092-0.197,0.184-0.394,0.275-0.591
	c0.29-0.63,0.571-1.267,0.881-1.887c0.314-0.632,0.61-1.272,0.926-1.904c0.293-0.589,0.58-1.179,0.846-1.783
	c0.158-0.394,0.306-0.792,0.446-1.193c0.121-0.351,0.426-0.598,0.785-0.598c0.014,0,0.028,0.005,0.042,0.006
	c0.125-0.072,0.267-0.11,0.41-0.11c0.073,0,0.146,0.01,0.216,0.03c0.185,0.049,0.415,0.194,0.493,0.379
	c0.068,0.155,0.133,0.31,0.201,0.465c0.316,0.739,0.694,1.439,1.068,2.147c0.175,0.328,0.352,0.654,0.509,0.99
	c0.171,0.362,0.332,0.731,0.497,1.098c0.322,0.717,0.634,1.439,0.952,2.159c0.155,0.354,0.34,0.692,0.511,1.04
	c0.005,0.01,0.009,0.02,0.014,0.03c0.325-0.428,0.659-0.85,0.995-1.27c0.207-0.26,0.417-0.515,0.632-0.767
	c0.131-0.155,0.258-0.342,0.417-0.469c0.093-0.071,0.183-0.149,0.284-0.21c0.153-0.092,0.304-0.12,0.479-0.135
	c0.022-0.002,0.045-0.003,0.067-0.003c0.177,0,0.346,0.068,0.5,0.152c0.264,0.145,0.437,0.439,0.586,0.694
	c0.093,0.157,0.177,0.316,0.258,0.479c0.187,0.372,0.374,0.746,0.513,1.139c0.149,0.419,0.303,0.837,0.458,1.255
	c0.114-0.083,0.223-0.173,0.341-0.252c0.4-0.27,0.814-0.53,1.207-0.815c0.1-0.098,0.219-0.166,0.353-0.204
	c0.073-0.019,0.145-0.028,0.218-0.028c0.073,0,0.145,0.009,0.218,0.028c0.043,0.012,0.078,0.041,0.118,0.06
	c0.047,0.004,0.095,0.006,0.14,0.019c0.217,0.06,0.406,0.203,0.519,0.397C29.01,11.806,29.022,12.029,28.974,12.263z M24.976,26.886
	c0.046-0.173,0.072-0.355,0.096-0.53c0.03-0.201,0.058-0.403,0.087-0.604c0.001-0.008,0.003-0.016,0.004-0.024
	c-0.079,0-0.158-0.002-0.237-0.001c-0.239,0-0.477,0.004-0.714-0.002c-0.537-0.01-1.076-0.012-1.612-0.034
	c-0.533-0.02-1.068-0.023-1.6-0.03c-0.561-0.008-1.121-0.021-1.682-0.024c-1.64-0.004-3.28-0.067-4.92-0.079
	c-1.709-0.012-3.418,0.063-5.126,0.118c-0.116,0.053-0.242,0.09-0.377,0.098c-0.705,0.048-1.409,0.112-2.113,0.177
	c0.012,0.092,0.029,0.184,0.039,0.276c0.025,0.232,0.047,0.464,0.07,0.697C7.516,26.964,8.142,27.006,8.771,27
	c0.747-0.01,1.493-0.054,2.238-0.074c0.759-0.02,1.521-0.04,2.278-0.038c0.73,0.002,1.455,0.065,2.185,0.091
	c1.757,0.062,3.519,0.078,5.278,0.034c0.829-0.022,1.658-0.02,2.487-0.054C23.816,26.936,24.397,26.92,24.976,26.886z
	 M27.003,13.436c-0.148,0.098-0.299,0.191-0.443,0.296c-0.302,0.245-0.595,0.498-0.888,0.755c-0.324,0.286-0.799,0.32-1.119,0
	c-0.161-0.162-0.234-0.403-0.219-0.635c-0.021-0.042-0.051-0.078-0.067-0.123c-0.155-0.451-0.288-0.913-0.425-1.37
	c-0.13-0.429-0.25-0.86-0.414-1.278c-0.042-0.098-0.086-0.196-0.131-0.293c-0.102,0.121-0.201,0.242-0.3,0.36
	c-0.266,0.319-0.531,0.641-0.789,0.968c-0.255,0.339-0.491,0.69-0.728,1.044c-0.172,0.259-0.451,0.404-0.741,0.406
	c-0.061,0.037-0.121,0.076-0.191,0.096c-0.439,0.121-0.863-0.146-0.998-0.567c-0.048-0.156-0.108-0.309-0.17-0.46
	c-0.139-0.324-0.3-0.633-0.456-0.947c-0.165-0.328-0.302-0.668-0.447-1.004c-0.306-0.704-0.624-1.401-0.95-2.097
	c-0.318-0.682-0.68-1.34-1.038-2.002c-0.18-0.331-0.357-0.662-0.528-0.996c-0.49,1.166-1.051,2.304-1.579,3.452
	c-0.336,0.731-0.662,1.469-0.982,2.208c-0.316,0.735-0.622,1.473-0.98,2.19c-0.083,0.168-0.231,0.273-0.395,0.347
	c-0.014,0.009-0.021,0.023-0.036,0.032c-0.374,0.219-0.924,0.104-1.131-0.296c-0.35-0.68-0.662-1.382-1.058-2.036
	c-0.172-0.287-0.37-0.557-0.548-0.842c-0.213,0.546-0.418,1.097-0.609,1.651c-0.245,0.704-0.507,1.399-0.737,2.109
	c-0.145,0.45-0.596,0.736-1.068,0.606c-0.217-0.06-0.406-0.205-0.519-0.399c-0.023-0.04-0.033-0.096-0.051-0.145
	c-0.119-0.089-0.237-0.18-0.355-0.271c-0.338-0.25-0.694-0.478-1.027-0.734c-0.044-0.034-0.083-0.071-0.127-0.104
	c0.047,0.515,0.103,1.029,0.169,1.542c0.115,0.838,0.229,1.679,0.36,2.517c0.266,1.69,0.616,3.368,0.936,5.047
	c0.097,0.513,0.176,1.029,0.259,1.543c0.593-0.041,1.186-0.071,1.779-0.071c0.21,0,0.42,0.002,0.63,0.007
	c0.151,0.003,0.289,0.051,0.416,0.118c0.718-0.011,1.438-0.014,2.155-0.012c0.368,0,0.736,0,1.105-0.002
	c1.042-0.004,2.081-0.044,3.123-0.044c0.068,0,0.135,0,0.203,0c0.64,0.004,1.284,0.004,1.924,0.004c0.992,0,1.986-0.002,2.978,0.01
	c0.499,0.006,0.998,0.006,1.497,0.004c0.35,0,0.7,0,1.05,0c0.187,0.002,0.374,0,0.561-0.002c0.217-0.002,0.435-0.004,0.654-0.002
	c0.287,0.003,0.572,0.002,0.858,0.003c0.097-0.628,0.191-1.256,0.278-1.885c-0.002,0.013-0.003,0.025-0.005,0.038
	c0.003-0.021,0.005-0.042,0.008-0.062c0.008-0.057,0.016-0.113,0.024-0.17c-0.004,0.024-0.007,0.048-0.01,0.072
	c0.069-0.523,0.136-1.048,0.207-1.572c0.003-0.154,0.036-0.312,0.061-0.464c0.167-1.311,0.331-2.619,0.563-3.918
	C26.701,15.183,26.85,14.309,27.003,13.436z M18.135,17.301c0.147,0.249,0.227,0.491,0.231,0.779
	c0.006,0.318-0.167,0.579-0.356,0.817c-0.111,0.142-0.229,0.28-0.344,0.42c-0.197,0.24-0.386,0.487-0.588,0.723
	c-0.109,0.125-0.221,0.249-0.336,0.368c-0.131,0.134-0.285,0.245-0.437,0.356c-0.063,0.051-0.126,0.104-0.19,0.155
	c-0.171,0.137-0.314,0.249-0.525,0.318c-0.201,0.068-0.346,0.048-0.549,0.02c-0.278-0.04-0.519-0.25-0.688-0.463
	c-0.115-0.145-0.229-0.288-0.366-0.413c-0.183-0.167-0.362-0.336-0.527-0.521c-0.159-0.177-0.298-0.368-0.453-0.545
	c-0.215-0.249-0.477-0.463-0.66-0.735c-0.282-0.419-0.266-0.944,0.032-1.35c0.155-0.211,0.326-0.406,0.489-0.607
	c0.447-0.593,0.879-1.199,1.32-1.798c0.141-0.192,0.288-0.34,0.527-0.405c0.077-0.021,0.157-0.032,0.236-0.032
	c0.154,0,0.307,0.04,0.441,0.118c0.293-0.074,0.619-0.001,0.84,0.227c0.262,0.271,0.425,0.632,0.636,0.942
	c0.158,0.23,0.322,0.457,0.492,0.681c0.096,0.121,0.194,0.24,0.296,0.356C17.819,16.898,18.01,17.087,18.135,17.301z M14.443,17.357
	c0.004-0.005,0.008-0.01,0.012-0.015c0.006-0.007,0.012-0.015,0.018-0.022C14.463,17.332,14.453,17.344,14.443,17.357z
	 M16.562,17.992c-0.241-0.285-0.485-0.568-0.715-0.863c-0.208-0.264-0.401-0.536-0.595-0.808c-0.238,0.308-0.479,0.613-0.718,0.92
	c-0.001,0.001-0.003,0.003-0.004,0.005c0,0,0.001-0.001,0.001-0.002c-0.002,0.002-0.003,0.005-0.005,0.007
	c-0.016,0.021-0.031,0.041-0.047,0.061c-0.005,0.006-0.009,0.013-0.014,0.019c0.013-0.017,0.026-0.033,0.039-0.05
	c-0.021,0.027-0.042,0.054-0.062,0.081c-0.111,0.147-0.219,0.296-0.326,0.446c-0.017,0.023-0.034,0.045-0.05,0.068
	c0.07,0.075,0.139,0.15,0.203,0.229c0.155,0.189,0.306,0.38,0.475,0.557c0.165,0.175,0.354,0.328,0.521,0.501
	c0.047,0.048,0.092,0.099,0.135,0.151c0.044-0.038,0.086-0.077,0.128-0.118c0.153-0.151,0.3-0.31,0.437-0.475
	C16.166,18.477,16.365,18.235,16.562,17.992z M14.526,17.25c-0.008,0.01-0.015,0.02-0.023,0.029
	c0.009-0.011,0.018-0.022,0.026-0.034C14.529,17.246,14.528,17.248,14.526,17.25z M25.093,16.454
	c-0.155-0.153-0.366-0.24-0.582-0.24s-0.427,0.087-0.58,0.24c-0.169,0.169-0.213,0.354-0.241,0.581
	c-0.109,0.869-0.201,1.74-0.278,2.612c-0.06,0.702-0.173,1.397-0.235,2.099c-0.032,0.356,0.27,0.694,0.594,0.783
	c0.211,0.058,0.439,0.028,0.626-0.082c0.163-0.095,0.344-0.288,0.372-0.485c0.093-0.628,0.119-1.267,0.191-1.898
	c0.076-0.656,0.147-1.312,0.231-1.968c-0.01,0.072-0.02,0.146-0.03,0.217c0.058-0.425,0.115-0.851,0.173-1.278
	C25.36,16.834,25.229,16.592,25.093,16.454z"/>
</svg>