<?xml version="1.0" encoding="utf-8"?>
<!-- Generator: Adobe Illustrator 21.1.0, SVG Export Plug-In . SVG Version: 6.00 Build 0)  -->
<svg version="1.1" id="designs" xmlns="http://www.w3.org/2000/svg" xmlns:xlink="http://www.w3.org/1999/xlink" x="0px" y="0px"
	 width="32px" height="32px" viewBox="0 0 32 32" style="enable-background:new 0 0 32 32;" xml:space="preserve">
<style type="text/css">
	.sketchy_een{fill:#111918;}
</style>
<path class="sketchy_een" d="M10.83,23.941c0,0.404-0.338,0.742-0.742,0.742c-0.404,0-0.742-0.338-0.742-0.742
	s0.338-0.742,0.742-0.742C10.492,23.199,10.83,23.537,10.83,23.941z M21.829,23.471c-0.374,0-0.687,0.313-0.687,0.687
	c0,0.374,0.313,0.687,0.687,0.687c0.374,0,0.687-0.313,0.687-0.687C22.516,23.784,22.203,23.471,21.829,23.471z M29.909,22.448
	c-0.057,0.431-0.2,0.866-0.42,1.244c-0.217,0.375-0.507,0.692-0.904,0.883c-0.29,0.14-0.589,0.193-0.9,0.245
	c-0.138,0.021-0.264,0.017-0.388-0.009c-0.022,0.162-0.05,0.322-0.085,0.476c-0.111,0.492-0.277,0.95-0.5,1.4
	c-0.088,0.179-0.208,0.345-0.328,0.501c-0.174,0.227-0.345,0.448-0.546,0.65c-0.196,0.195-0.422,0.378-0.649,0.536
	c-0.158,0.111-0.317,0.231-0.49,0.319c-0.361,0.185-0.727,0.364-1.122,0.465c-0.374,0.095-0.752,0.15-1.139,0.164
	c-0.49,0.019-0.988-0.059-1.473-0.13c-0.416-0.061-0.811-0.171-1.202-0.33c-0.486-0.196-0.946-0.41-1.379-0.709
	c-0.528-0.366-1.076-0.849-1.372-1.427c-0.28-0.549-0.391-1.12-0.441-1.73c-0.003-0.035,0.001-0.072-0.001-0.107
	c-0.108,0.057-0.224,0.097-0.352,0.097c-0.349,0.001-0.698-0.018-1.047-0.036c-0.01,0.065-0.014,0.131-0.026,0.197
	c-0.076,0.46-0.183,0.91-0.381,1.335c-0.193,0.414-0.46,0.818-0.771,1.154c-0.715,0.767-1.675,1.314-2.716,1.488
	c-0.465,0.079-0.914,0.124-1.385,0.088c-0.483-0.036-0.971-0.088-1.434-0.231c-0.465-0.145-0.908-0.335-1.328-0.585
	c-0.431-0.255-0.851-0.543-1.181-0.927c-0.343-0.396-0.588-0.833-0.765-1.325c-0.081-0.229-0.127-0.466-0.158-0.707
	c-0.084,0.033-0.172,0.056-0.266,0.059c-0.277,0.01-0.555-0.001-0.832-0.036c-0.36-0.045-0.692-0.129-1.015-0.303
	c-0.097-0.053-0.187-0.109-0.277-0.175c-0.088-0.061-0.17-0.128-0.248-0.203c-0.101-0.124-0.198-0.248-0.282-0.383
	c-0.114-0.187-0.135-0.407-0.081-0.608c-0.002-0.252,0.002-0.506,0.003-0.758c0.01-1.543,0.134-3.083,0.185-4.626
	c0.055-1.604,0.036-3.21,0.061-4.814c0.025-1.585,0.133-3.17,0.212-4.753c0.08-1.624,0.154-3.247,0.183-4.87
	c-0.148-0.138-0.245-0.33-0.245-0.542c0-0.405,0.34-0.748,0.746-0.748c0.001,0,0.002,0,0.003,0c1.162,0.004,2.323,0.05,3.487,0.071
	c1.576,0.03,3.149,0.03,4.725,0.049c0.362,0.004,0.723,0.004,1.083,0.027c0.368,0.023,0.736,0.048,1.104,0.061
	c0.164,0.008,0.33,0.013,0.494,0.023c0.185,0.009,0.34,0.036,0.507,0.118c0.214,0.101,0.319,0.295,0.404,0.501
	c0.059,0.143,0.044,0.332,0.057,0.488c0.011,0.134,0.031,0.269,0.044,0.405c0.005,0.044-0.018,0.09-0.026,0.136
	c0.085,0.093,0.156,0.198,0.175,0.312c0.187,1.162,0.362,2.323,0.71,3.451c0.166,0.543,0.33,1.089,0.511,1.629
	c0.165,0.485,0.323,0.974,0.515,1.449c0.266,0.592,0.562,1.156,0.948,1.678c0.084,0.104,0.171,0.205,0.268,0.295
	c0.002,0.001,0.004,0.002,0.006,0.003c0.031-0.004,0.058-0.019,0.09-0.02c0.15-0.003,0.299-0.004,0.449-0.004
	c1.404,0,2.803,0.138,4.18,0.42c0.366,0.074,0.731,0.156,1.095,0.244c0.402,0.095,0.78,0.231,1.158,0.397
	c0.719,0.314,1.385,0.744,1.99,1.242c0.319,0.261,0.62,0.538,0.898,0.839c0.313,0.337,0.624,0.683,0.881,1.066
	c0.212,0.317,0.401,0.65,0.555,1.001c0.172,0.385,0.347,0.792,0.41,1.213C30.033,20.661,30.031,21.553,29.909,22.448z M13.59,24.667
	c0.016-0.212,0.014-0.417-0.004-0.628c-0.07-0.396-0.187-0.771-0.336-1.144c-0.116-0.25-0.249-0.48-0.409-0.704
	c-0.167-0.193-0.35-0.364-0.548-0.527c-0.344-0.25-0.717-0.472-1.103-0.653c-0.22-0.076-0.44-0.137-0.67-0.181
	c-0.041-0.008-0.08-0.02-0.117-0.034c-0.075,0.009-0.15,0.019-0.225,0.029c-0.213,0.035-0.432,0.06-0.641,0.118
	c-0.157,0.043-0.308,0.094-0.458,0.151c-0.174,0.087-0.336,0.184-0.495,0.294c-0.325,0.275-0.611,0.587-0.878,0.918
	c-0.255,0.351-0.471,0.723-0.655,1.115c-0.117,0.314-0.194,0.638-0.251,0.969c-0.024,0.245-0.034,0.486-0.02,0.731
	c0.036,0.19,0.085,0.374,0.147,0.558c0.074,0.154,0.158,0.3,0.254,0.442c0.128,0.148,0.264,0.282,0.413,0.408
	c0.309,0.215,0.639,0.406,0.981,0.567c0.362,0.138,0.735,0.239,1.119,0.302c0.147,0.018,0.296,0.035,0.443,0.043
	c0.206,0.012,0.408,0.006,0.613-0.005c0.338-0.053,0.67-0.126,0.992-0.245c0.269-0.126,0.52-0.27,0.761-0.44
	c0.189-0.169,0.358-0.347,0.518-0.541c0.116-0.17,0.221-0.341,0.313-0.526C13.456,25.357,13.535,25.015,13.59,24.667z
	 M25.604,23.886c-0.043-0.218-0.108-0.428-0.186-0.637c-0.088-0.188-0.181-0.37-0.299-0.54c-0.226-0.262-0.479-0.5-0.746-0.718
	c-0.351-0.243-0.716-0.445-1.105-0.619c-0.24-0.091-0.484-0.169-0.735-0.236c-0.016-0.004-0.032-0.009-0.048-0.015
	c-0.182,0.025-0.364,0.049-0.547,0.074c-0.53,0.081-1.056,0.208-1.552,0.418c0.065-0.029,0.132-0.056,0.196-0.084
	c-0.07,0.029-0.14,0.059-0.21,0.089c-0.386,0.176-0.741,0.378-1.081,0.625c-0.176,0.149-0.335,0.307-0.484,0.48
	c-0.102,0.152-0.193,0.305-0.278,0.467c-0.096,0.255-0.163,0.511-0.213,0.78c-0.031,0.36-0.027,0.714,0.007,1.073
	c0.039,0.224,0.091,0.442,0.166,0.657c0.058,0.118,0.125,0.229,0.2,0.337c0.157,0.181,0.332,0.341,0.515,0.496
	c0.309,0.218,0.631,0.402,0.974,0.561c0.246,0.1,0.494,0.197,0.75,0.26c0.237,0.06,0.479,0.099,0.721,0.135
	c0.366,0.033,0.727,0.052,1.092,0.024c0.253-0.046,0.5-0.111,0.742-0.199c0.309-0.147,0.59-0.32,0.865-0.52
	c0.225-0.199,0.425-0.41,0.614-0.64c0.146-0.211,0.267-0.426,0.374-0.656c0.113-0.315,0.2-0.632,0.26-0.962
	C25.615,24.316,25.621,24.104,25.604,23.886z M28.431,20.27c-0.052-0.292-0.135-0.569-0.241-0.844
	c-0.182-0.38-0.388-0.736-0.631-1.08c-0.448-0.549-0.95-1.051-1.498-1.499c-0.485-0.362-0.999-0.697-1.555-0.938
	c-0.03-0.013-0.06-0.025-0.09-0.038c0.01,0.004,0.02,0.009,0.03,0.013c-0.515-0.196-1.047-0.322-1.583-0.444
	c-0.516-0.117-1.033-0.217-1.553-0.302c-1.006-0.123-2.016-0.173-3.029-0.129c-0.151,0.006-0.287-0.047-0.41-0.123
	c-0.129-0.006-0.254-0.034-0.381-0.092c-0.204-0.097-0.395-0.25-0.546-0.419c-0.199-0.225-0.383-0.467-0.554-0.716
	c-0.011,0-0.02,0.006-0.03,0.006c-0.458-0.012-0.914-0.012-1.37-0.023c-0.467-0.012-0.933-0.035-1.398-0.048
	c-1.005-0.032-2.014,0.011-3.02,0.015c-0.423,0.002-0.774-0.353-0.774-0.774c0-0.42,0.349-0.774,0.771-0.774
	c0.001,0,0.002,0,0.003,0c0.542,0.002,1.083,0.008,1.623,0.014c0.488,0.003,0.977-0.002,1.463,0.011
	c0.644,0.018,1.287,0.029,1.931,0.042c-0.195-0.452-0.367-0.913-0.522-1.38c-0.078,0.028-0.16,0.051-0.247,0.05
	c-1.429-0.009-2.859,0.002-4.288-0.057c-0.422-0.017-0.776-0.339-0.776-0.776c0-0.396,0.337-0.777,0.744-0.777
	c0.011,0,0.022,0,0.032,0.001c0.74,0.036,1.48,0.074,2.22,0.078c0.229,0.002,0.46,0,0.689-0.002c0.383-0.005,0.768-0.001,1.15,0.011
	c-0.146-0.47-0.288-0.941-0.407-1.417c-0.52,0.021-1.041,0.009-1.56,0.009c-0.744,0-1.486-0.019-2.23-0.048
	c-0.431-0.015-0.79-0.347-0.79-0.79c0-0.406,0.342-0.791,0.76-0.791c0.01,0,0.02,0,0.03,0c0.742,0.033,1.488,0.084,2.23,0.081
	c0.412-0.003,0.823-0.014,1.234-0.024c-0.061-0.334-0.12-0.669-0.176-1.004c-0.024-0.14-0.019-0.27,0.008-0.398
	c-0.065-0.082-0.128-0.165-0.157-0.268c-0.01-0.067-0.021-0.135-0.031-0.204c-0.002,0-0.004,0-0.005,0
	c-0.244-0.013-0.488-0.03-0.731-0.049c-0.765-0.063-1.53-0.076-2.297-0.092C9.684,4.268,8.898,4.256,8.112,4.237
	C7.328,4.22,6.542,4.201,5.758,4.182C5.237,4.169,4.716,4.174,4.195,4.175c-0.006,0.19-0.009,0.381-0.017,0.571
	C4.113,6.418,4.094,8.093,4.035,9.766c-0.027,0.776-0.055,1.553-0.078,2.331C3.932,12.898,3.934,13.7,3.934,14.5
	c0,1.572,0.021,3.144-0.063,4.715c-0.042,0.773-0.08,1.545-0.115,2.318c-0.033,0.747-0.058,1.5-0.033,2.249
	c0.048,0.028,0.095,0.059,0.145,0.084c0.101,0.033,0.203,0.058,0.308,0.079c0.195,0.021,0.391,0.033,0.588,0.035
	c0.112,0,0.217,0.03,0.314,0.076c0.13-0.776,0.391-1.516,0.823-2.187c0.494-0.769,1.131-1.446,1.879-1.973
	c0.368-0.259,0.824-0.427,1.255-0.547c0.494-0.139,1.019-0.194,1.526-0.257c0.018-0.002,0.037-0.003,0.056-0.003
	c0.053,0,0.107,0.009,0.161,0.024c0.068,0.002,0.138,0.011,0.209,0.025c0.656,0.124,1.242,0.406,1.803,0.763
	c0.301,0.195,0.584,0.42,0.855,0.654c0.254,0.221,0.462,0.486,0.654,0.761c0.185,0.265,0.317,0.557,0.439,0.853
	c0.113,0.271,0.217,0.544,0.299,0.826c0.036,0.122,0.059,0.247,0.084,0.371c0.367,0.029,0.734,0.059,1.101,0.064
	c0.162,0.003,0.306,0.065,0.432,0.152c0.097-0.494,0.249-0.993,0.517-1.422c0.17-0.273,0.359-0.542,0.586-0.771
	c0.231-0.234,0.496-0.431,0.761-0.627c0.376-0.28,0.807-0.479,1.238-0.658c0.395-0.164,0.794-0.282,1.209-0.383
	c0.446-0.108,0.91-0.156,1.364-0.219c0.062-0.016,0.124-0.026,0.186-0.028c0.083-0.026,0.17-0.04,0.259-0.04
	c0.074,0,0.149,0.009,0.223,0.029c0.938,0.253,1.845,0.687,2.585,1.324c0.399,0.345,0.824,0.723,1.089,1.185
	c0.237,0.412,0.42,0.845,0.551,1.303c0.005,0.018,0.006,0.038,0.011,0.056c0.013-0.004,0.025-0.017,0.038-0.019
	c0.22-0.034,0.437-0.069,0.65-0.132c0.032-0.018,0.064-0.036,0.095-0.055c0.011-0.011,0.022-0.022,0.033-0.033
	c0.078-0.112,0.145-0.23,0.206-0.353c0.076-0.212,0.132-0.428,0.171-0.65C28.487,21.483,28.494,20.875,28.431,20.27z"/>
</svg>