<?xml version="1.0" encoding="utf-8"?>
<!-- Generator: Adobe Illustrator 21.1.0, SVG Export Plug-In . SVG Version: 6.00 Build 0)  -->
<svg version="1.1" id="designs" xmlns="http://www.w3.org/2000/svg" xmlns:xlink="http://www.w3.org/1999/xlink" x="0px" y="0px"
	 width="32px" height="32px" viewBox="0 0 32 32" style="enable-background:new 0 0 32 32;" xml:space="preserve">
<style type="text/css">
	.sketchy_een{fill:#111918;}
</style>
<path class="sketchy_een" d="M15.398,30.996c-0.886-0.014-1.769-0.028-2.655-0.057l-0.462-0.011
	c-0.246-0.005-0.492-0.01-0.737-0.021c-0.399-0.02-0.793-0.058-1.189-0.1c-0.186,0.108-0.33,0.157-0.475,0.157
	c-0.456,0-0.83-0.374-0.834-0.834c-0.016-1.318,0.059-2.659,0.131-3.956l0.059-1.095c0.053-1.053,0.117-1.858,0.206-2.608
	c0.113-0.976,0.257-1.958,0.429-2.919c0.156-0.868,0.36-1.751,0.607-2.624c0.126-0.455,0.26-0.907,0.401-1.357l0.092-0.292
	c0.104-0.331,0.208-0.663,0.334-0.986c0.32-0.822,0.72-1.665,1.261-2.651c0.415-0.76,0.811-1.527,1.203-2.299
	c-0.212-0.412-0.46-0.753-0.707-1.093l-0.248-0.346c-0.404-0.575-0.809-1.149-1.219-1.72h-0.049l-0.059,0.026
	c-0.018,0.549-0.035,1.097-0.049,1.645c-0.009,0.384-0.032,0.779,0.006,1.162c0.028,0.285,0.074,0.608-0.08,0.87
	c-0.116,0.198-0.308,0.346-0.527,0.406c-0.07,0.019-0.144,0.028-0.219,0.028c-0.356,0-0.779-0.224-0.862-0.641
	C9.662,9.224,9.669,8.74,9.676,8.272l0.003-0.414c-0.003-0.555-0.003-1.11,0.007-1.665L9.501,6.142H9.233
	c-0.187,0-0.368-0.01-0.553-0.045C8.408,6.046,8.159,5.873,8.015,5.633C7.727,5.15,7.772,4.539,7.811,4.001
	C7.844,3.537,7.842,3.082,7.84,2.624c0-0.301,0.09-0.504,0.253-0.657c0.119-0.33,0.409-0.543,0.735-0.55L9.837,1.4l0.792-0.006
	c0.595-0.002,1.191-0.004,1.787-0.036c0.455-0.024,0.909-0.06,1.364-0.095c0.434-0.034,0.867-0.068,1.302-0.092
	c0.852-0.047,1.703-0.069,2.557-0.083l0.736-0.008c0.595-0.004,1.19-0.009,1.796-0.044c0.113,0,0.183,0.025,0.257,0.052
	C20.592,1.028,20.706,1,20.818,1c0.217,0,0.431,0.089,0.588,0.244c0.167,0.168,0.218,0.359,0.244,0.594
	c0.026,0.268,0.004,0.552-0.019,0.825c-0.01,0.12-0.019,0.239-0.024,0.358c-0.018,0.414-0.04,0.83-0.074,1.245L21.52,4.401
	c-0.032,0.375-0.065,0.753-0.111,1.13l-0.016,0.136c-0.013,0.116-0.025,0.23-0.05,0.343c-0.057,0.258-0.168,0.477-0.36,0.711
	l-0.249,0.305c-0.398,0.531-0.768,1.082-1.139,1.631l-0.446,0.655l-0.028,0.073c0.014,0.029,0.02,0.063,0.027,0.098
	c0.414,0.737,0.792,1.409,1.167,2.083c0.477,0.854,0.841,1.747,1.134,2.507c0.336,0.879,0.661,1.729,0.927,2.582
	c0.155,0.487,0.281,0.983,0.4,1.481c0.165,0.237,0.225,0.509,0.17,0.743l0.067,0.32c0.175,0.854,0.32,1.716,0.453,2.576
	c0.051,0.326,0.085,0.654,0.12,0.982l0.048,0.452c0.048,0.422,0.095,0.844,0.123,1.268c0.043,0.619,0.108,1.235,0.171,1.85
	l0.067,0.642c0.031,0.32,0.055,0.642,0.079,0.963c0.033,0.445,0.067,0.891,0.119,1.333c0.01,0.062,0.018,0.12,0.022,0.176
	c0.012,0.184-0.023,0.336-0.106,0.478c-0.058,0.099-0.145,0.186-0.267,0.267c-0.057,0.215-0.126,0.358-0.229,0.461
	c-0.177,0.175-0.381,0.217-0.575,0.235c-0.333,0.034-0.663,0.038-0.996,0.038l-1.978,0.003c-0.7,0-1.399,0.008-2.1,0.031
	C17.264,30.977,16.567,31,15.868,31L15.398,30.996z M13.47,16.407c-0.349,0-0.699,0.019-1.048,0.039
	c-0.197,0.548-0.348,1.061-0.482,1.578c-0.164,0.639-0.284,1.282-0.403,1.939c-0.119,0.651-0.226,1.304-0.322,1.962
	c-0.088,0.696-0.161,1.393-0.211,2.09c-0.025,0.362-0.123,2.017-0.123,2.017c-0.072,1.056-0.113,2.113-0.142,3.173
	c0.678,0.113,1.31,0.154,1.946,0.184c0.841,0.041,1.683,0.059,2.526,0.059c0.911,0,1.822-0.021,2.733-0.053
	c0.849-0.03,1.698-0.044,2.549-0.053c0.66-0.006,1.325-0.014,1.986-0.048c0.012-0.377-0.016-0.701-0.042-1.023l-0.055-0.626
	l-0.076-0.743c-0.041-0.38-0.081-0.76-0.113-1.141l-0.053-0.686c-0.031-0.421-0.063-0.842-0.109-1.261
	c-0.062-0.573-0.13-1.146-0.198-1.72c-0.12-0.824-0.267-1.655-0.457-2.571c-0.449-0.062-0.85-0.073-1.253-0.084l-0.356-0.01
	c-0.904-0.025-1.807-0.075-2.712-0.124l-0.053-0.003l-0.017,0.097c-0.035,0.922-0.085,1.845-0.15,2.764l-0.032,0.517
	c-0.018,0.306-0.037,0.61-0.062,0.915l-0.018,0.229c-0.032,0.417-0.065,0.849-0.159,1.257c-0.077,0.34-0.239,0.661-0.482,0.953
	c-0.268,0.321-0.656,0.56-1.152,0.71c-0.511,0.156-1.059,0.203-1.577,0.238c0,0-0.002,0-0.003,0c-0.533,0-0.894-0.475-0.894-0.9
	c0-0.493,0.404-0.896,0.9-0.898c0.207-0.002,0.412-0.011,0.617-0.029c0.208-0.036,0.406-0.084,0.602-0.147l0.122-0.073l0.114-0.148
	c0.049-0.152,0.082-0.307,0.108-0.464c0.114-0.96,0.165-1.943,0.214-2.892l0.018-0.344c0.03-0.584,0.05-1.167,0.063-1.751
	c0.015-0.617-0.001-1.118-0.051-1.576c-0.064-0.34-0.138-0.618-0.233-0.877c-0.041-0.084-0.083-0.161-0.13-0.235l-0.12-0.081
	c-0.17-0.058-0.333-0.099-0.502-0.129C13.941,16.415,13.706,16.407,13.47,16.407z M14.077,14.624
	c0.274,0.005,0.631,0.023,0.963,0.111c0.306,0.085,0.563,0.205,0.763,0.356c0.241,0.182,0.399,0.345,0.529,0.544
	c0.112,0.172,0.187,0.343,0.267,0.533c0.146,0.351,0.247,0.752,0.317,1.26l0.874,0.092c0.689,0.043,3.091,0.182,3.091,0.182
	c-0.264-1.223-0.678-2.418-1.214-3.718c-0.463-1.081-1.046-2.089-1.778-3.271c-0.523-0.049-1.006-0.071-1.488-0.092l-1.083-0.049
	c-0.072-0.004-0.138-0.024-0.209-0.046l-0.521,0.801c-0.504,0.932-1.024,1.895-1.463,2.878c-0.033,0.081-0.164,0.45-0.164,0.45
	l0.404-0.015c0.197-0.008,0.394-0.017,0.591-0.017L14.077,14.624z M16.795,2.705c-0.791,0-1.581,0.01-2.372,0.046
	c-0.334,0.016-0.668,0.035-1.001,0.055c-0.547,0.031-1.094,0.064-1.643,0.08c-0.514,0.015-2.312,0.056-2.312,0.056L9.411,3.154
	C9.397,3.585,9.382,4.031,9.421,4.465c0.246,0.059,0.446,0.063,0.645,0.067l0.68,0.021c0.341,0.011,0.682,0.023,1.022,0.028
	c0.209,0.005,0.406,0.088,0.556,0.235c0.256,0.069,0.402,0.181,0.551,0.393c0.364,0.516,0.715,1.042,1.065,1.568l0.264,0.395
	l0.272,0.395c0.24,0.342,0.488,0.697,0.682,1.07L15.31,8.65l2.285,0.138c0.069-0.151,0.103-0.242,0.156-0.32l1.652-2.348
	c0.104-0.145,0.211-0.293,0.299-0.449c0.034-0.118,0.054-0.226,0.073-0.334c0.07-0.558,0.137-1.152,0.161-1.74
	c0.013-0.277,0.024-0.555,0.031-0.833l-0.273-0.051L16.795,2.705z"/>
</svg>