<?xml version="1.0" encoding="utf-8"?>
<!-- Generator: Adobe Illustrator 21.1.0, SVG Export Plug-In . SVG Version: 6.00 Build 0)  -->
<svg version="1.1" id="designs" xmlns="http://www.w3.org/2000/svg" xmlns:xlink="http://www.w3.org/1999/xlink" x="0px" y="0px"
	 width="32px" height="32px" viewBox="0 0 32 32" style="enable-background:new 0 0 32 32;" xml:space="preserve">
<style type="text/css">
	.sketchy_een{fill:#111918;}
</style>
<path class="sketchy_een" d="M29.955,11.088c-0.003-0.029-0.021-0.053-0.027-0.082c-0.01-0.023-0.009-0.046-0.022-0.068
	c0-0.001-0.001-0.001-0.002-0.002c-0.054-0.168-0.146-0.322-0.315-0.408c-0.155-0.079-0.313-0.106-0.476-0.125l0-0.001
	c0.007-0.174,0.035-0.346,0.027-0.521c-0.011-0.238-0.027-0.477-0.035-0.715c-0.02-0.55,0.04-1.1,0.026-1.65
	c-0.005-0.227-0.115-0.425-0.277-0.562c-0.034-0.059-0.064-0.121-0.113-0.17c-0.097-0.095-0.213-0.161-0.343-0.2
	c-0.07-0.018-0.139-0.027-0.208-0.027c-0.054,0-0.108,0.006-0.163,0.017c-0.148,0.01-0.298,0.008-0.447,0.007
	c-0.119,0-0.238-0.002-0.356,0.002c-0.339,0.015-0.68,0.035-1.018,0.064c-0.704,0.062-1.417,0.051-2.123,0.07
	c-0.757,0.018-1.514,0.018-2.27,0.037c-0.746,0.018-1.494,0.016-2.242,0.007c-1.494-0.019-2.989-0.011-4.483-0.033
	c-0.722-0.009-1.447-0.04-2.169-0.088c-0.763-0.05-1.518-0.048-2.281-0.011c-0.55,0.026-1.098,0.051-1.648,0.068
	C8.428,6.713,7.867,6.702,7.304,6.691c-0.579-0.011-1.161-0.011-1.74-0.02C4.983,6.659,4.402,6.632,3.821,6.604
	C3.404,6.586,3.058,6.966,3.058,7.367c0,0.001,0.001,0.002,0.001,0.003C2.968,7.506,2.902,7.659,2.902,7.832
	C2.9,8.457,2.915,9.084,2.948,9.709c0.018,0.349,0.004,0.695,0.072,1.038c0.012,0.061,0.043,0.115,0.072,0.169
	c-0.113,0.045-0.211,0.116-0.29,0.208c-0.295,0.044-0.574,0.24-0.633,0.542c-0.141,0.698-0.125,1.403-0.138,2.11
	c-0.005,0.306-0.007,0.612-0.009,0.918c-0.004,0.253-0.024,0.506-0.016,0.759c0.003,0.098,0.026,0.19,0.061,0.277
	c-0.004,0.033-0.02,0.062-0.02,0.096c0,0.402,0.35,0.79,0.768,0.766c0.017-0.001,0.033-0.002,0.05-0.002
	c0.006,0.242,0.011,0.483,0.022,0.726c0.013,0.279,0.007,0.565,0.04,0.843c0,0.003,0.002,0.006,0.002,0.01
	c-0.028,0.079-0.052,0.162-0.052,0.252c0,0.407,0.356,0.805,0.779,0.779c0.411-0.024,0.82-0.046,1.23-0.051
	c0.354-0.005,0.706,0.039,1.057,0.084c0.298,0.054,0.589,0.131,0.883,0.209c0.236,0.062,0.472,0.123,0.701,0.207
	c0.231,0.113,0.448,0.244,0.657,0.395c0.346,0.277,0.693,0.562,0.978,0.903c0.309,0.431,0.593,0.898,0.811,1.383
	c0.163,0.476,0.224,0.978,0.304,1.472c0.011,0.125,0.008,0.247-0.003,0.374c-0.017,0.21,0.087,0.399,0.242,0.533
	c0.071,0.338,0.364,0.631,0.725,0.612c0.387-0.02,0.774-0.04,1.161-0.042c0.363,0,0.721,0.035,1.082,0.064
	c0.589,0.046,1.181,0.046,1.771,0.046c0.114,0,0.229,0,0.345,0c0.337,0.002,0.677,0.002,1.016,0.002c0.337,0,0.677-0.002,1.016,0
	c0.315,0.002,0.629,0.022,0.944,0.033c0.292,0.009,0.583,0.011,0.873,0.018c0.143,0.004,0.288,0,0.433-0.004
	c0.209-0.005,0.42-0.011,0.629,0.004c0.311,0.021,0.57-0.216,0.662-0.499c0.199-0.088,0.364-0.248,0.411-0.469
	c0.085-0.393,0.213-0.767,0.362-1.138c0.279-0.601,0.605-1.174,1-1.704c0.465-0.557,0.989-1.077,1.553-1.534
	c0.512-0.381,1.052-0.723,1.63-0.997c0.322-0.122,0.653-0.21,0.992-0.268c0.324-0.035,0.649-0.062,0.973-0.088
	c0.218-0.018,0.407-0.075,0.567-0.235c0.149-0.15,0.233-0.354,0.233-0.566c0-0.09-0.023-0.177-0.052-0.261
	c0-0.014,0.008-0.027,0.008-0.042c-0.024-0.631-0.004-1.263-0.005-1.895c0.073,0.025,0.147,0.047,0.223,0.047
	c0.418,0,0.71-0.335,0.733-0.733c0.009-0.167,0.004-0.335,0.004-0.502c-0.002-0.295,0-0.59,0.007-0.885
	c0.009-0.315,0.016-0.631,0.026-0.946c0.009-0.271,0.044-0.54,0.08-0.808c0.022-0.132,0.043-0.264,0.065-0.395
	C30.009,11.37,29.998,11.228,29.955,11.088z M28.212,14.234c-0.244-0.002-0.49,0.004-0.733,0.004
	c-0.493,0.002-0.985,0.009-1.478,0.018c-0.83,0.018-1.662,0.02-2.494,0.03c0.023-0.071,0.047-0.143,0.041-0.213
	c-0.039-0.39-0.022-0.787-0.016-1.177c0.005-0.302,0.019-0.604,0.032-0.905c0.918-0.073,1.836-0.129,2.758-0.144
	c0.288-0.005,0.578-0.007,0.865-0.002c0.092,0.002,0.183,0.002,0.277,0c0.143-0.002,0.286-0.004,0.429,0.004
	c0.156,0.007,0.312,0.013,0.468,0.018c0.021,0.001,0.043,0.002,0.064,0.003c-0.014,0.174-0.027,0.348-0.029,0.524
	c-0.007,0.361-0.009,0.722-0.02,1.083c-0.008,0.25-0.017,0.502-0.026,0.753C28.304,14.231,28.258,14.234,28.212,14.234z
	 M8.075,12.367c0.003,0.538-0.002,1.076,0.005,1.614c0.005,0.388-0.006,0.777-0.026,1.164c-0.201,0.004-0.403,0.005-0.605,0.003
	c-0.513-0.006-1.025-0.031-1.536-0.061c-0.352-0.02-0.706-0.019-1.058-0.015c-0.163,0-0.326,0.002-0.49,0
	c-0.293-0.002-0.586-0.009-0.878-0.014c-0.009-0.344-0.006-0.688-0.001-1.03c0.007-0.504,0.024-1.004,0.074-1.506
	c0.009-0.052,0.021-0.104,0.031-0.155c0.448,0.005,0.897,0.005,1.346,0.002c0.359-0.002,0.719-0.004,1.08-0.004
	c0.271,0.002,0.545-0.004,0.818-0.009C7.248,12.35,7.662,12.35,8.075,12.367z M25.661,17.671c-0.79,0.332-1.505,0.814-2.174,1.344
	c-0.306,0.244-0.589,0.513-0.862,0.794c-0.255,0.26-0.506,0.524-0.739,0.805c-0.508,0.612-0.906,1.307-1.221,2.035
	c-0.196,0.45-0.373,0.915-0.509,1.387c-0.094,0-0.188,0.005-0.282,0.005c-0.275-0.002-0.55,0-0.823,0
	c-0.644-0.002-1.287-0.011-1.931-0.013c-0.686-0.002-1.37-0.02-2.055-0.031c-0.363-0.004-0.726-0.015-1.089-0.029
	c-0.347-0.015-0.689-0.052-1.032-0.09c-0.416-0.049-0.835-0.069-1.254-0.071c-0.035-0.202-0.078-0.402-0.113-0.602
	c-0.062-0.359-0.106-0.724-0.227-1.071c-0.136-0.381-0.326-0.744-0.51-1.104c-0.238-0.462-0.512-0.937-0.884-1.302
	c-0.266-0.26-0.554-0.502-0.842-0.737c-0.354-0.29-0.722-0.532-1.148-0.7c-0.314-0.125-0.64-0.202-0.963-0.295
	c-0.181-0.051-0.363-0.106-0.55-0.139c-0.22-0.04-0.442-0.067-0.665-0.095c-0.352-0.048-0.703-0.096-1.057-0.117
	c-0.092-0.006-0.184-0.006-0.276-0.008c0.001-0.114-0.001-0.228-0.001-0.342c0.001-0.26,0.003-0.521,0.004-0.782
	c0.478-0.018,0.956-0.029,1.435-0.017c0.497,0.011,0.992,0.015,1.489,0.011c0.244-0.002,0.488-0.004,0.732,0
	c0.2,0.006,0.403-0.005,0.601,0.02c-0.012-0.002-0.024-0.003-0.036-0.005c0.146,0.011,0.281-0.006,0.419-0.086
	c0.215-0.127,0.35-0.361,0.35-0.609c0-0.036-0.015-0.069-0.021-0.104c0.08-0.119,0.138-0.252,0.133-0.403
	c-0.007-0.183,0.002-0.367-0.002-0.55c-0.007-0.264-0.018-0.524-0.005-0.789c0.029-0.62,0.072-1.236,0.072-1.857
	c0.001-0.132-0.043-0.252-0.103-0.362c0.013-0.15-0.006-0.303-0.083-0.435c-0.086-0.147-0.264-0.315-0.442-0.339
	c-0.143-0.02-0.258-0.029-0.4-0.024c-0.106,0.005-0.215,0.005-0.323,0.007c-0.222,0.004-0.446,0-0.667-0.002
	c-0.468-0.005-0.937-0.004-1.404-0.004c-0.445,0-0.893-0.004-1.34-0.026c-0.139-0.007-0.279-0.014-0.418-0.022
	c0.068-0.114,0.116-0.239,0.108-0.378c-0.017-0.273-0.006-0.555-0.002-0.831C4.558,9.184,4.583,8.66,4.598,8.135
	c0.211,0,0.422,0.006,0.633,0.004c0.308-0.002,0.616-0.003,0.924-0.002c0.781,0.007,1.56,0.009,2.341,0
	C8.874,8.134,9.251,8.11,9.629,8.099c0.383-0.013,0.766-0.022,1.15-0.035c0.748-0.025,1.492,0.017,2.24,0.044
	c0.741,0.026,1.485,0.055,2.228,0.062c0.735,0.006,1.47-0.005,2.206-0.005c0.763,0,1.525-0.006,2.29,0.005
	c0.735,0.013,1.47,0.022,2.206,0.013c0.559-0.007,1.118-0.007,1.678,0.002c0.557,0.011,1.113,0.035,1.67,0.039
	c0.495,0.002,0.981-0.046,1.474-0.083c0.292-0.021,0.586-0.016,0.88-0.019c0.002,0.303,0.008,0.606,0.005,0.91
	c-0.003,0.374,0.003,0.752-0.036,1.124c-0.011,0.074-0.02,0.149-0.028,0.224c-0.376,0.018-0.752,0.038-1.127,0.047
	c-0.594,0.015-1.188,0.053-1.782,0.068c-0.634,0.015-1.265,0.013-1.898,0.061c-0.204,0.017-0.381,0.072-0.53,0.22
	c-0.139,0.139-0.218,0.33-0.218,0.528c0,0.04,0.016,0.075,0.023,0.114c-0.003,0.027-0.016,0.05-0.016,0.077
	c-0.007,0.468-0.007,0.935,0.011,1.403c0.015,0.39,0.044,0.787,0.018,1.177c-0.013,0.207,0.084,0.395,0.232,0.53
	c-0.101,0.129-0.171,0.282-0.171,0.458c0,0.407,0.35,0.783,0.768,0.768c0.537-0.02,1.073-0.073,1.608-0.106
	c0.497-0.031,0.996-0.029,1.492-0.031c0.246,0,0.491,0,0.737,0c0.166,0.001,0.332,0,0.498,0c0.03,0.518,0.055,1.038,0.05,1.557
	C26.731,17.332,26.183,17.452,25.661,17.671z"/>
</svg>