<?xml version="1.0" encoding="utf-8"?>
<!-- Generator: Adobe Illustrator 21.1.0, SVG Export Plug-In . SVG Version: 6.00 Build 0)  -->
<svg version="1.1" id="designs" xmlns="http://www.w3.org/2000/svg" xmlns:xlink="http://www.w3.org/1999/xlink" x="0px" y="0px"
	 width="32px" height="32px" viewBox="0 0 32 32" style="enable-background:new 0 0 32 32;" xml:space="preserve">
<style type="text/css">
	.sketchy_een{fill:#111918;}
</style>
<path class="sketchy_een" d="M26.698,13.287c-0.105-0.18-0.318-0.38-0.532-0.411c-0.175-0.026-0.339-0.035-0.507-0.035
	c-0.094,0-0.19,0.003-0.288,0.008c-0.045,0.002-0.09,0.004-0.135,0.007c0-0.03,0.003-0.06,0.003-0.089
	c0.005-0.424,0.007-0.848-0.002-1.27c-0.011-0.508,0.018-1.041-0.207-1.509c-0.117-0.246-0.403-0.38-0.672-0.38
	c-0.068,0-0.135,0.008-0.198,0.026c-0.416,0.114-0.636,0.538-0.54,0.947c0.026,0.39-0.011,0.792-0.018,1.181
	c-0.006,0.371-0.011,0.74-0.017,1.11c-0.052-0.001-0.104-0.001-0.156-0.001c-0.339-0.001-0.677,0.001-1.015,0.003
	c-0.024-0.276-0.052-0.551-0.074-0.825c-0.039-0.453-0.099-0.905-0.147-1.358c-0.095-0.925-0.22-1.841-0.402-2.752
	c-0.167-0.833-0.263-1.685-0.536-2.493c-0.299-0.885-0.716-1.779-1.459-2.375c-0.519-0.417-1.105-0.771-1.76-0.918
	c-0.319-0.072-0.644-0.121-0.971-0.143C16.99,2.002,16.917,2,16.843,2c-0.324,0-0.647,0.047-0.964,0.117
	c-0.101-0.037-0.208-0.06-0.32-0.067c-0.289-0.017-0.577,0.035-0.864,0.078c-0.428,0.049-0.857,0.076-1.28,0.159
	c-0.556,0.108-1.107,0.325-1.573,0.648c-0.439,0.305-0.859,0.663-1.197,1.078c-0.327,0.406-0.584,0.843-0.835,1.296
	c-0.966,1.74-0.92,3.811-0.912,5.738c0.003,0.736,0.018,1.47,0.073,2.202c-0.305,0.015-0.609,0.032-0.914,0.047
	c-0.007-0.698-0.008-1.397-0.019-2.095c-0.009-0.464-0.382-0.85-0.85-0.85c-0.455,0-0.861,0.385-0.85,0.85
	c0.017,0.726,0.039,1.452,0.057,2.18c-0.118,0.006-0.235,0.011-0.353,0.018C5.573,13.425,5.18,13.77,5.18,14.26
	c0,0.446,0.393,0.892,0.861,0.861c0.137-0.009,0.273-0.021,0.41-0.031c0.018,0.351,0.04,0.702,0.077,1.053
	c0.086,0.81,0.127,1.625,0.231,2.434c0.059,0.461,0.125,0.914,0.235,1.366c0.103,0.419,0.259,0.828,0.431,1.223
	c0.305,0.698,0.654,1.38,1.043,2.032c0.215,0.36,0.448,0.721,0.718,1.043c0.266,0.316,0.573,0.569,0.907,0.813
	c0.27,0.198,0.571,0.367,0.876,0.507c0.426,0.195,0.857,0.376,1.302,0.527c0.408,0.136,0.81,0.251,1.234,0.327
	c0.027,0.005,0.055,0.006,0.082,0.01c-0.024,0.452-0.048,0.904-0.056,1.355c-0.007,0.433-0.053,0.894,0.035,1.32
	c0.007,0.032,0.03,0.056,0.041,0.086c0,0.007-0.004,0.014-0.004,0.021c0,0.433,0.36,0.791,0.791,0.793
	c0.747,0.002,1.492-0.004,2.24-0.017c0.587-0.011,1.177-0.009,1.764-0.022c0.309-0.006,0.576-0.197,0.686-0.47
	c0.109-0.04,0.211-0.098,0.295-0.181c0.101-0.101,0.171-0.22,0.209-0.358c0.035-0.132,0.038-0.262,0.009-0.394
	c-0.02-0.313-0.006-0.626-0.013-0.939c-0.009-0.461-0.02-0.92-0.04-1.379c-0.002-0.043-0.02-0.081-0.027-0.122
	c0.058-0.026,0.119-0.045,0.176-0.073c0.233-0.117,0.439-0.268,0.643-0.43c0.261-0.206,0.512-0.424,0.771-0.633
	c0.314-0.251,0.576-0.534,0.819-0.857c0.45-0.606,0.826-1.267,1.191-1.924c0.419-0.755,0.782-1.553,1.054-2.374
	c0.242-0.727,0.435-1.474,0.587-2.227c0.173-0.846,0.29-1.7,0.356-2.561c0.011-0.133,0.021-0.266,0.033-0.399
	c0.076-0.003,0.151-0.006,0.227-0.009c0.184-0.009,0.373-0.024,0.556-0.002c0.162,0,0.312-0.04,0.452-0.121
	c0.2-0.117,0.349-0.31,0.409-0.534C26.852,13.744,26.819,13.493,26.698,13.287z M18.127,21.332c-0.282,0.12-0.56,0.249-0.839,0.375
	c-0.471,0.178-0.965,0.263-1.461,0.336c-0.378,0.046-0.761,0.064-1.142,0.03c-0.348-0.056-0.68-0.137-1.013-0.256
	c-0.255-0.124-0.493-0.271-0.727-0.433c-0.169-0.14-0.325-0.29-0.472-0.454c-0.19-0.267-0.352-0.559-0.49-0.854
	c-0.232-0.616-0.396-1.248-0.567-1.883c-0.177-0.664-0.322-1.338-0.419-2.02c-0.056-0.473-0.089-0.947-0.128-1.422
	c0.254-0.014,0.508-0.032,0.762-0.041c0.91-0.033,1.821-0.033,2.733-0.035c0.865-0.002,1.727-0.029,2.592-0.048
	c0.771-0.015,1.542-0.066,2.311-0.064c0.46,0.001,0.919,0.005,1.378,0.016c-0.014,0.169-0.026,0.338-0.04,0.506
	c-0.043,0.543-0.063,1.085-0.126,1.626c-0.116,0.742-0.267,1.487-0.538,2.19c-0.243,0.546-0.544,1.069-0.902,1.549
	c-0.224,0.272-0.467,0.524-0.738,0.752c-0.12,0.082-0.243,0.154-0.376,0.216C17.991,21.389,18.059,21.361,18.127,21.332z
	 M10.687,12.313c0-0.031,0.001-0.062,0.001-0.094c0.539-0.007,1.078-0.012,1.616-0.044c0.439-0.026,0.808-0.349,0.808-0.808
	c0-0.438-0.365-0.808-0.805-0.808c-0.001,0-0.002,0-0.003,0c-0.534,0.003-1.069,0.003-1.603,0.004c0.002-0.124,0-0.248,0.003-0.372
	c0.004-0.151,0.012-0.302,0.018-0.453c0.067,0.018,0.132,0.041,0.204,0.038c0.452-0.018,0.905-0.042,1.357-0.07
	c0.424-0.026,0.778-0.334,0.778-0.778c0-0.424-0.354-0.778-0.778-0.778c-0.452,0-0.905,0.009-1.357,0.024
	c-0.026,0.001-0.047,0.013-0.072,0.016c0.07-0.367,0.165-0.726,0.28-1.081c0.047,0.01,0.09,0.029,0.139,0.031
	c0.532,0.028,1.067,0.002,1.601-0.029c0.437-0.026,0.802-0.345,0.802-0.804c0-0.437-0.365-0.802-0.802-0.802
	c-0.296,0-0.592,0.002-0.887,0c0.018-0.025,0.033-0.052,0.051-0.078c0.203-0.23,0.423-0.435,0.658-0.631
	c0.206-0.145,0.415-0.276,0.641-0.386c0.598-0.218,1.22-0.347,1.849-0.452c0.124-0.012,0.246-0.016,0.374-0.009
	c0.158,0.01,0.308-0.029,0.441-0.102c0.074-0.014,0.147-0.026,0.22-0.037c0.329-0.035,0.655-0.041,0.984-0.009
	c0.244,0.043,0.485,0.098,0.719,0.18c0.252,0.121,0.489,0.266,0.716,0.428c0.143,0.119,0.275,0.245,0.398,0.385
	c0.097,0.138,0.164,0.293,0.245,0.44c-0.315,0.014-0.631,0.026-0.946,0.042c-0.433,0.022-0.795,0.345-0.795,0.797
	c0,0.415,0.362,0.819,0.795,0.795c0.504-0.027,1.009-0.056,1.513-0.086c0.038,0.166,0.079,0.331,0.111,0.499
	c0.028,0.156,0.054,0.312,0.079,0.468c-0.031,0-0.061-0.001-0.092-0.001c-0.512,0-1.024,0.014-1.535,0.023
	c-0.49,0.011-0.898,0.4-0.898,0.898c0,0.479,0.408,0.912,0.898,0.898c0.638-0.017,1.275-0.043,1.913-0.065
	c0.018,0.143,0.035,0.286,0.053,0.429c-0.001-0.007-0.002-0.014-0.003-0.021c0.031,0.236,0.05,0.474,0.074,0.711
	c-0.063-0.016-0.124-0.035-0.192-0.04c-0.547-0.037-1.096-0.075-1.639-0.141c-0.017-0.002-0.034-0.003-0.051-0.003
	c-0.182,0-0.383,0.112-0.502,0.232c-0.147,0.145-0.229,0.345-0.229,0.551c0,0.207,0.083,0.408,0.229,0.553
	c0.158,0.158,0.336,0.206,0.553,0.229c0.545,0.059,1.092,0.073,1.639,0.094c0.117,0.005,0.225-0.028,0.325-0.077
	c0.025,0.286,0.046,0.571,0.064,0.857c-0.826,0.001-1.648,0.042-2.473,0.089c-0.876,0.05-1.751,0.061-2.629,0.077
	c-0.771,0.013-1.542,0.011-2.313,0.018c-0.753,0.009-1.505,0.042-2.258,0.086c-0.085,0.005-0.169,0.008-0.254,0.013
	C10.7,12.877,10.69,12.595,10.687,12.313z M16.686,28.474c-0.487-0.014-0.976-0.025-1.465-0.037
	c0.008-0.247,0.033-0.495,0.049-0.736c0.025-0.353,0.05-0.705,0.074-1.057c0.154,0.017,0.309,0.034,0.463,0.053
	c0.344,0.052,0.689,0.111,1.038,0.101c0.346-0.01,0.691-0.101,1.029-0.189c0.044,0.626,0.09,1.254,0.105,1.881
	C17.548,28.499,17.115,28.485,16.686,28.474z M23.375,16.029c-0.004,0.028-0.007,0.057-0.011,0.085
	c0.003-0.028,0.007-0.055,0.01-0.082c-0.108,0.767-0.252,1.525-0.427,2.279c-0.176,0.755-0.427,1.476-0.722,2.19
	c-0.223,0.515-0.472,1.01-0.743,1.501c-0.244,0.442-0.507,0.883-0.803,1.292c-0.314,0.382-0.707,0.686-1.095,0.991
	c-0.228,0.168-0.459,0.323-0.716,0.446c-0.295,0.11-0.594,0.182-0.903,0.249c-0.343,0.075-0.684,0.166-1.03,0.226
	c-0.194,0.013-0.383-0.001-0.575-0.023c-0.752-0.104-1.505-0.192-2.258-0.292c-0.644-0.101-1.257-0.301-1.857-0.545
	c-0.261-0.116-0.519-0.235-0.77-0.37c-0.202-0.108-0.392-0.237-0.577-0.372c-0.206-0.172-0.392-0.356-0.563-0.563
	c-0.589-0.821-1.065-1.725-1.476-2.648c-0.11-0.284-0.202-0.571-0.284-0.864c-0.078-0.281-0.124-0.57-0.165-0.859
	c-0.071-0.604-0.1-1.21-0.152-1.816c-0.05-0.604-0.13-1.204-0.16-1.81c-0.001-0.029-0.001-0.058-0.002-0.087
	c0.343-0.03,0.686-0.058,1.029-0.086c0.066,0.632,0.131,1.264,0.234,1.893c0.141,0.866,0.349,1.718,0.586,2.561
	c0.121,0.428,0.248,0.85,0.407,1.265c0.198,0.505,0.483,0.973,0.815,1.401c0.417,0.536,0.997,0.942,1.595,1.252
	c0.62,0.321,1.3,0.437,1.986,0.505c0.626,0.064,1.283-0.055,1.898-0.143c0.307-0.044,0.617-0.119,0.912-0.213
	c0.268-0.086,0.525-0.207,0.783-0.32c0.197-0.077,0.397-0.149,0.584-0.249c0.255-0.136,0.483-0.31,0.703-0.496
	c0.36-0.299,0.663-0.631,0.94-1.01c0.523-0.712,0.927-1.525,1.197-2.366c0.294-0.916,0.448-1.889,0.519-2.847
	c0.036-0.491,0.089-0.982,0.127-1.473c0.366,0.012,0.731,0.03,1.098,0.029c-0.032,0.454-0.075,0.908-0.132,1.359
	c0.005-0.041,0.011-0.081,0.017-0.123C23.388,15.94,23.382,15.985,23.375,16.029z M23.377,16.018c0,0.004-0.001,0.007-0.001,0.011
	c0,0.001,0,0.002,0,0.003C23.376,16.027,23.376,16.023,23.377,16.018z"/>
</svg>