<?xml version="1.0" encoding="utf-8"?>
<!-- Generator: Adobe Illustrator 21.1.0, SVG Export Plug-In . SVG Version: 6.00 Build 0)  -->
<svg version="1.1" id="designs" xmlns="http://www.w3.org/2000/svg" xmlns:xlink="http://www.w3.org/1999/xlink" x="0px" y="0px"
	 width="32px" height="32px" viewBox="0 0 32 32" style="enable-background:new 0 0 32 32;" xml:space="preserve">
<style type="text/css">
	.sketchy_een{fill:#111918;}
</style>
<path class="sketchy_een" d="M18.537,21.654c0.007,0.017,0.015,0.035,0.022,0.052c0.001,0.001,0.001,0.003,0.001,0.004
	C18.553,21.691,18.545,21.672,18.537,21.654z M30.476,11.975c-0.055,0.055-0.12,0.085-0.183,0.121
	c-0.038,0.148-0.1,0.289-0.219,0.397c-0.289,0.267-0.565,0.548-0.858,0.811c-0.111,0.099-0.233,0.192-0.354,0.279
	c-0.308,0.223-0.678,0.198-1.03,0.142c-0.322-0.051-0.627-0.107-0.931-0.231c-0.161-0.066-0.323-0.125-0.49-0.168
	c-0.132,0.073-0.255,0.156-0.376,0.244c-0.296,0.253-0.576,0.519-0.851,0.792c-0.275,0.269-0.565,0.524-0.836,0.797
	c-0.565,0.564-1.085,1.172-1.635,1.748c-0.293,0.305-0.567,0.625-0.844,0.947c-0.239,0.275-0.5,0.532-0.743,0.801
	c-0.361,0.397-0.751,0.777-1.092,1.195c-0.051,0.07-0.098,0.142-0.139,0.218c-0.001,0.032-0.002,0.065-0.001,0.097
	c0.043,0.193,0.112,0.385,0.186,0.57c0.088,0.192,0.182,0.381,0.257,0.581c0.087,0.233,0.113,0.528,0.026,0.767
	c-0.107,0.287-0.253,0.512-0.457,0.739c-0.306,0.344-0.67,0.629-0.981,0.965c-0.314,0.336-0.874,0.316-1.19,0
	c-0.035-0.034-0.05-0.079-0.078-0.117c-0.138-0.036-0.272-0.093-0.384-0.195c-0.431-0.391-0.868-0.775-1.281-1.184
	c-0.249-0.249-0.492-0.508-0.759-0.739c-0.271-0.237-0.544-0.471-0.811-0.714c-0.068-0.062-0.138-0.122-0.207-0.183
	c-0.472,0.396-0.952,0.782-1.429,1.173c-0.51,0.417-0.992,0.87-1.483,1.305c-0.49,0.431-0.969,0.872-1.459,1.303
	c-0.49,0.433-0.983,0.86-1.457,1.313c-0.587,0.562-1.159,1.145-1.762,1.694c-0.558,0.508-1.109,1.022-1.663,1.536
	c-0.255,0.237-0.516,0.469-0.771,0.708c-0.188,0.174-0.366,0.356-0.561,0.522c-0.129,0.111-0.259,0.223-0.393,0.328
	c-0.107,0.085-0.21,0.168-0.33,0.237c-0.059,0.034-0.113,0.071-0.168,0.111c-0.164,0.125-0.439,0.136-0.627,0.083
	c-0.145-0.04-0.265-0.13-0.367-0.238c-0.023-0.01-0.05-0.011-0.072-0.024c-0.344-0.2-0.522-0.716-0.279-1.064
	c0.049-0.071,0.095-0.142,0.14-0.214c0.393-0.651,0.811-1.289,1.236-1.918c0.223-0.328,0.463-0.641,0.7-0.957
	c0.223-0.3,0.435-0.609,0.658-0.909c0.476-0.641,0.923-1.303,1.394-1.947c0.229-0.31,0.441-0.631,0.668-0.943
	c0.252-0.342,0.512-0.679,0.773-1.015c-0.019,0.024-0.038,0.048-0.057,0.072c0.638-0.832,1.279-1.66,1.923-2.486
	c0.544-0.712,1.084-1.428,1.679-2.095c-0.074-0.067-0.148-0.132-0.221-0.2c-0.279-0.257-0.577-0.49-0.868-0.733
	c-0.577-0.484-1.173-0.945-1.763-1.411c-0.119-0.011-0.235-0.041-0.34-0.102c-0.362-0.213-0.552-0.757-0.295-1.125
	c0.265-0.374,0.536-0.745,0.834-1.095c0.085-0.101,0.168-0.207,0.263-0.298c0.229-0.223,0.534-0.336,0.848-0.356
	c0.657-0.038,1.269,0.214,1.859,0.47c0.006-0.004,0.012-0.009,0.018-0.013c0.289-0.235,0.544-0.492,0.786-0.776
	c0.506-0.587,1.006-1.182,1.55-1.736c0.534-0.542,1.032-1.117,1.556-1.669c0.216-0.229,0.451-0.437,0.666-0.666
	C15.592,7.319,15.764,7.1,15.957,6.9c0.259-0.267,0.53-0.52,0.795-0.779c0.163-0.161,0.336-0.318,0.484-0.494
	c0.031-0.043,0.062-0.087,0.091-0.132c-0.047-0.092-0.095-0.184-0.138-0.279c-0.063-0.144-0.14-0.281-0.223-0.413
	c-0.093-0.148-0.184-0.31-0.212-0.484c-0.047-0.308-0.043-0.647,0.134-0.921c0.068-0.104,0.148-0.2,0.228-0.295
	c0.108-0.162,0.198-0.335,0.338-0.476c0.099-0.101,0.214-0.188,0.316-0.289c0.069-0.069,0.13-0.146,0.194-0.217
	c0.056-0.063,0.115-0.121,0.171-0.183c0.029-0.043,0.058-0.086,0.088-0.127c0.055-0.073,0.115-0.162,0.186-0.229
	c0.017-0.015,0.032-0.031,0.049-0.045c0.039-0.114,0.096-0.22,0.183-0.306C18.789,1.083,18.993,1,19.203,1
	c0.229,0,0.391,0.095,0.563,0.233c0.116,0.092,0.231,0.183,0.347,0.275c0.729,0.559,1.44,1.141,2.146,1.731
	c0.366,0.305,0.734,0.607,1.089,0.925c0.326,0.293,0.654,0.583,0.99,0.866c0.595,0.5,1.174,1.018,1.746,1.544
	c0.554,0.508,1.125,1,1.675,1.514c0.275,0.259,0.542,0.526,0.822,0.783c0.269,0.251,0.532,0.506,0.791,0.769
	c0.249,0.257,0.496,0.52,0.743,0.781c0.119,0.125,0.245,0.243,0.362,0.37C30.786,11.126,30.81,11.642,30.476,11.975z M12.969,19.554
	c-0.085-0.076-0.173-0.15-0.258-0.228c-0.263-0.241-0.506-0.502-0.757-0.755c-0.086-0.087-0.179-0.167-0.267-0.252
	c-0.479,0.491-0.947,0.989-1.377,1.524c-0.455,0.569-0.906,1.143-1.354,1.718l0.001-0.001c-0.384,0.5-0.765,1.001-1.155,1.496
	c-0.229,0.298-0.449,0.601-0.67,0.903c-0.227,0.308-0.461,0.607-0.682,0.919c-0.235,0.334-0.461,0.674-0.694,1.01
	c-0.191,0.275-0.391,0.541-0.586,0.812c0.27-0.245,0.545-0.485,0.812-0.734c0.581-0.544,1.159-1.091,1.736-1.637
	c0.306-0.291,0.621-0.573,0.935-0.854c0.31-0.275,0.605-0.564,0.909-0.846C10.686,21.592,11.823,20.569,12.969,19.554z
	 M26.391,13.322c-0.001,0-0.002,0-0.003-0.001c-0.016,0.007-0.033,0.014-0.049,0.022C26.357,13.336,26.374,13.329,26.391,13.322z
	 M26.419,13.31l-0.002,0h0C26.417,13.31,26.418,13.31,26.419,13.31L26.419,13.31z M28.738,11.3
	c-0.143-0.157-0.286-0.315-0.429-0.474c-0.239-0.267-0.482-0.534-0.733-0.791c-0.261-0.271-0.516-0.55-0.789-0.809
	c-0.267-0.253-0.544-0.496-0.82-0.743c-0.581-0.524-1.151-1.058-1.73-1.586c-0.585-0.532-1.174-1.06-1.777-1.572
	c-0.583-0.497-1.168-0.998-1.765-1.481c-0.432-0.326-0.88-0.633-1.322-0.946c-0.098,0.125-0.198,0.243-0.302,0.36
	c-0.067,0.075-0.125,0.152-0.194,0.223c-0.078,0.081-0.159,0.156-0.235,0.237c-0.052,0.085-0.098,0.174-0.151,0.258
	c-0.02,0.032-0.043,0.062-0.065,0.093c0.023,0.046,0.047,0.093,0.069,0.14c0.067,0.14,0.123,0.285,0.18,0.429
	c0.068,0.154,0.139,0.306,0.19,0.465c0.113,0.34,0.091,0.682-0.075,0.998c-0.148,0.283-0.344,0.579-0.581,0.791
	c-0.316,0.283-0.617,0.587-0.919,0.884c-0.273,0.273-0.522,0.569-0.789,0.848c-0.217,0.227-0.445,0.443-0.66,0.672
	c-0.261,0.279-0.52,0.558-0.775,0.844c-0.498,0.556-1.038,1.073-1.536,1.627c-0.522,0.585-1.01,1.204-1.601,1.722
	c-0.077,0.069-0.158,0.134-0.239,0.2c-0.097,0.079-0.196,0.156-0.304,0.22c-0.148,0.089-0.299,0.117-0.465,0.134
	c-0.235,0.024-0.451-0.073-0.658-0.164c-0.184-0.081-0.36-0.176-0.541-0.261c-0.153-0.057-0.311-0.114-0.471-0.151
	c-0.034-0.001-0.067-0.002-0.101-0.001c-0.021,0.021-0.04,0.044-0.06,0.067C9.009,13.649,8.931,13.77,8.85,13.89
	c0.558,0.474,1.1,0.967,1.662,1.436c0.611,0.512,1.212,1.036,1.807,1.566c0.563,0.502,1.081,1.054,1.645,1.554
	c0.558,0.496,1.131,0.981,1.71,1.453c0.53,0.431,1.036,0.886,1.546,1.342c0.235,0.208,0.463,0.423,0.698,0.629
	c0.093,0.082,0.19,0.162,0.285,0.242c0.123-0.126,0.251-0.247,0.366-0.381c-0.003-0.007-0.005-0.014-0.008-0.021
	c0.003,0.007,0.006,0.013,0.008,0.02l0,0c-0.003-0.008-0.007-0.016-0.01-0.023c-0.055-0.127-0.11-0.255-0.146-0.39
	c-0.038-0.148-0.075-0.295-0.107-0.445c-0.087-0.388-0.134-0.765-0.057-1.159c0.071-0.366,0.297-0.672,0.532-0.949
	c0.202-0.239,0.425-0.459,0.641-0.688c0.562-0.595,1.141-1.172,1.696-1.775c0.291-0.32,0.605-0.619,0.9-0.935
	c0.306-0.326,0.595-0.668,0.898-0.996c0.289-0.314,0.597-0.609,0.903-0.906c0.299-0.295,0.587-0.603,0.886-0.896
	c0.158-0.154,0.322-0.297,0.492-0.435c0.192-0.154,0.38-0.293,0.601-0.403c0.279-0.138,0.548-0.166,0.85-0.111
	c0.275,0.051,0.532,0.17,0.786,0.284c0.176,0.066,0.355,0.117,0.54,0.15c0.013,0.001,0.025,0.003,0.038,0.004
	c0.044-0.044,0.087-0.089,0.129-0.135C28.336,11.707,28.533,11.5,28.738,11.3z M22.83,12.388c0.308,0.306,0.336,0.866,0,1.17
	c-0.419,0.378-0.84,0.755-1.265,1.127c-0.212,0.186-0.429,0.372-0.625,0.577c-0.19,0.2-0.38,0.405-0.571,0.603
	c-0.388,0.407-0.795,0.801-1.157,1.232c-0.3,0.36-0.606,0.72-0.896,1.09c-0.068,0.108-0.156,0.196-0.266,0.26
	c-0.119,0.071-0.249,0.105-0.389,0.105c-0.202,0-0.401-0.081-0.542-0.225c-0.308-0.306-0.283-0.779,0-1.087
	c0.358-0.393,0.67-0.82,1.018-1.218c0.37-0.425,0.771-0.822,1.153-1.236c0.38-0.413,0.761-0.82,1.166-1.21
	c0.409-0.391,0.797-0.799,1.204-1.188c0.164-0.157,0.378-0.238,0.592-0.238C22.462,12.15,22.67,12.228,22.83,12.388z M18.341,18.152
	c-0.005,0.006-0.01,0.013-0.015,0.019c0,0,0,0.001,0,0.001C18.331,18.165,18.336,18.159,18.341,18.152z"/>
</svg>