<?xml version="1.0" encoding="utf-8"?>
<!-- Generator: Adobe Illustrator 21.1.0, SVG Export Plug-In . SVG Version: 6.00 Build 0)  -->
<svg version="1.1" id="designs" xmlns="http://www.w3.org/2000/svg" xmlns:xlink="http://www.w3.org/1999/xlink" x="0px" y="0px"
	 width="32px" height="32px" viewBox="0 0 32 32" style="enable-background:new 0 0 32 32;" xml:space="preserve">
<style type="text/css">
	.sketchy_een{fill:#111918;}
</style>
<path class="sketchy_een" d="M25.81,16.069c0.048-0.221,0.02-0.455-0.093-0.649c-0.108-0.181-0.325-0.387-0.544-0.418
	c-0.059-0.008-0.117-0.005-0.175-0.012c-0.047-0.239-0.089-0.48-0.16-0.712c-0.1-0.323-0.199-0.644-0.287-0.968
	c-0.104-0.384-0.261-0.763-0.49-1.091c-0.215-0.304-0.448-0.592-0.679-0.884c-0.246-0.329-0.487-0.664-0.747-0.982
	c-0.277-0.333-0.637-0.574-0.988-0.819c-0.337-0.235-0.673-0.464-1.012-0.693c-0.37-0.251-0.765-0.424-1.179-0.59
	c-0.159-0.071-0.317-0.146-0.475-0.22c0.122-0.351,0.17-0.732,0.204-1.095c0.024-0.253-0.018-0.51-0.06-0.759
	c-0.034-0.191-0.114-0.391-0.211-0.556c-0.131-0.221-0.355-0.436-0.552-0.603c-0.193-0.164-0.39-0.301-0.621-0.402
	C17.63,4.565,17.52,4.519,17.408,4.48c0.112-0.221,0.245-0.427,0.393-0.629c0.291-0.355,0.596-0.709,0.946-1.009
	c0.143-0.1,0.289-0.189,0.448-0.266c-0.066,0.028-0.131,0.056-0.197,0.083c0.03-0.014,0.058-0.026,0.086-0.038
	c0.209-0.088,0.372-0.173,0.492-0.376c0.112-0.191,0.141-0.422,0.084-0.633c-0.058-0.208-0.195-0.385-0.378-0.492
	C19.161,1.05,18.999,1,18.847,1c-0.071,0-0.14,0.011-0.201,0.036c-0.295,0.117-0.597,0.245-0.854,0.436
	c-0.289,0.215-0.552,0.446-0.813,0.693c-0.426,0.407-0.835,0.871-1.107,1.396c-0.143,0.275-0.269,0.567-0.368,0.86
	c-0.02,0.061-0.041,0.122-0.061,0.184c-0.342,0.08-0.684,0.185-0.987,0.357c-0.311,0.18-0.514,0.472-0.687,0.777
	c-0.157,0.277-0.295,0.56-0.339,0.878c-0.049,0.351-0.102,0.671-0.025,1.013c-0.078,0.028-0.156,0.057-0.233,0.084
	c-0.428,0.151-0.852,0.313-1.269,0.494c-0.374,0.165-0.721,0.348-1.058,0.582c-0.354,0.247-0.681,0.516-0.98,0.829
	c-0.58,0.609-1.195,1.187-1.647,1.9C8.115,11.681,8.04,11.86,7.96,12.033c-0.086,0.188-0.173,0.376-0.257,0.566
	c-0.191,0.422-0.384,0.846-0.532,1.287c-0.113,0.338-0.188,0.688-0.248,1.038c-0.074,0.035-0.137,0.089-0.198,0.146
	c-0.373,0.095-0.647,0.42-0.657,0.817c-0.01,0.482-0.012,0.962,0.006,1.444c0.016,0.47,0.086,0.954,0.165,1.416
	c0.082,0.472,0.203,0.935,0.339,1.393c0.143,0.492,0.321,0.976,0.554,1.432c0.209,0.412,0.462,0.8,0.715,1.187
	c0.267,0.408,0.56,0.803,0.872,1.177c0.277,0.333,0.578,0.644,0.872,0.962c0.285,0.307,0.623,0.542,0.972,0.771
	c0.223,0.146,0.464,0.265,0.693,0.398c0.219,0.127,0.42,0.279,0.649,0.392c0.303,0.149,0.615,0.303,0.944,0.393
	c0.269,0.074,0.54,0.144,0.807,0.225c0.327,0.098,0.669,0.129,1.008,0.167c0.155,0.018,0.31,0.022,0.465,0.035
	c-0.006,0.656-0.002,1.312,0.023,1.967c-0.167-0.002-0.335,0-0.502-0.004c-0.749-0.018-1.5-0.042-2.249-0.082
	c-0.013,0-0.027-0.001-0.04-0.001c-0.468,0-0.852,0.44-0.852,0.894c0,0.5,0.406,0.874,0.892,0.892c0.749,0.03,1.5,0.014,2.249-0.002
	c0.689-0.014,1.378-0.008,2.065-0.012c0.599,0,1.197-0.01,1.797,0.006c0.201,0.006,0.4,0.004,0.602,0.022
	c0.169,0.014,0.339,0.034,0.508,0.042c0.474,0.022,0.87-0.414,0.87-0.872c0-0.492-0.396-0.849-0.87-0.873
	c-0.37-0.018-0.739-0.022-1.109-0.02c-0.549,0.006-1.096,0.016-1.645,0.017c-0.013-0.372-0.029-0.744-0.026-1.115
	c0.001-0.304,0.007-0.607,0.011-0.911c0.151-0.022,0.302-0.04,0.453-0.063c0.319-0.039,0.637-0.079,0.956-0.126
	c0.208-0.028,0.415-0.058,0.619-0.109c0.209-0.052,0.42-0.104,0.629-0.157c0.45-0.114,0.892-0.307,1.311-0.506
	c0.341-0.162,0.709-0.311,1.018-0.528c0.219-0.155,0.398-0.333,0.582-0.528c0.153-0.164,0.319-0.317,0.466-0.486
	c0.327-0.375,0.613-0.779,0.88-1.197c0.239-0.371,0.418-0.785,0.619-1.177c0.203-0.392,0.434-0.769,0.647-1.155
	c0.215-0.391,0.357-0.807,0.444-1.241c0.054-0.261,0.094-0.521,0.143-0.783c0.048-0.253,0.108-0.502,0.155-0.755
	c0.12-0.633,0.193-1.289,0.153-1.936C25.92,16.33,25.874,16.194,25.81,16.069z M15.081,7.069c0.019-0.112,0.044-0.223,0.08-0.331
	c0.054-0.105,0.116-0.209,0.182-0.307c0.301-0.095,0.614-0.153,0.923-0.213c0.083-0.016,0.16-0.046,0.229-0.088
	c0.011,0,0.022,0,0.033-0.001c0.137-0.001,0.272-0.007,0.407,0c0.068,0.015,0.133,0.034,0.199,0.055
	c0.073,0.037,0.143,0.078,0.212,0.123c0.068,0.061,0.133,0.125,0.195,0.192c0.013,0.046,0.023,0.093,0.033,0.14
	c0.014,0.178,0.01,0.355-0.005,0.534c-0.028,0.135-0.064,0.267-0.107,0.396c-0.027,0.05-0.055,0.097-0.086,0.144
	c-0.046,0.055-0.094,0.107-0.145,0.156c-0.036,0.022-0.072,0.043-0.109,0.062c-0.202,0.07-0.403,0.121-0.613,0.161
	c-0.124,0.008-0.245,0.008-0.369,0c-0.07-0.015-0.138-0.034-0.205-0.056c-0.126-0.062-0.248-0.134-0.364-0.214
	c-0.146-0.123-0.279-0.253-0.403-0.397c-0.03-0.047-0.058-0.093-0.083-0.142c-0.003-0.01-0.007-0.021-0.01-0.032
	C15.074,7.189,15.076,7.129,15.081,7.069z M8.977,13.589c0.123-0.275,0.247-0.55,0.379-0.821c0.113-0.226,0.242-0.436,0.387-0.639
	c0.292-0.337,0.616-0.645,0.928-0.964c0.293-0.298,0.576-0.602,0.901-0.868c0.187-0.142,0.379-0.287,0.585-0.397
	c0.259-0.138,0.526-0.257,0.795-0.376c-0.012,0.005-0.024,0.01-0.037,0.015c0.004-0.001,0.007-0.003,0.011-0.005
	c0.016-0.006,0.032-0.013,0.048-0.02c-0.005,0.002-0.01,0.004-0.015,0.006c0.016-0.006,0.031-0.013,0.047-0.02
	c0.002-0.001,0.004-0.001,0.005-0.002c-0.007,0.003-0.013,0.006-0.02,0.009C13,9.502,13.01,9.498,13.019,9.494
	c0.259-0.106,0.523-0.199,0.785-0.297c0.185-0.069,0.366-0.134,0.559-0.171c0.03,0.025,0.057,0.052,0.087,0.076
	c0.359,0.281,0.763,0.496,1.215,0.582c0.629,0.122,1.263,0.014,1.852-0.213c0.118-0.045,0.234-0.094,0.347-0.147
	c0.052,0.028,0.1,0.058,0.159,0.083c0.032,0.014,0.066,0.028,0.098,0.042c-0.066-0.028-0.131-0.056-0.197-0.083
	c0.205,0.1,0.402,0.217,0.606,0.324c0.229,0.122,0.468,0.217,0.701,0.333c0.42,0.21,0.808,0.51,1.18,0.797
	c0.015,0.012,0.03,0.023,0.045,0.035c-0.021-0.016-0.042-0.032-0.063-0.047c0.165,0.125,0.328,0.25,0.493,0.374
	c0.185,0.153,0.353,0.329,0.505,0.515c0.227,0.309,0.438,0.629,0.669,0.936c0.26,0.345,0.545,0.681,0.736,1.07
	c0.11,0.297,0.192,0.602,0.307,0.898c0.038,0.097,0.058,0.198,0.086,0.298c-0.074-0.003-0.149-0.006-0.223-0.008
	c-0.787-0.018-1.579,0.024-2.366,0.054c-0.858,0.034-1.713,0.062-2.571,0.058c-0.868-0.004-1.737-0.012-2.607-0.026
	c-0.679-0.012-1.358-0.004-2.037-0.016c-0.677-0.012-1.354-0.046-2.032-0.036c-0.633,0.01-1.265,0.042-1.896,0.036
	c-0.286-0.002-0.571-0.016-0.855-0.029c0.034-0.178,0.061-0.357,0.102-0.534C8.765,14.117,8.869,13.852,8.977,13.589z
	 M23.786,18.952c-0.075,0.471-0.132,0.932-0.299,1.38c-0.237,0.523-0.535,1.021-0.799,1.531c-0.147,0.285-0.287,0.576-0.458,0.847
	c-0.138,0.219-0.284,0.435-0.438,0.642c-0.141,0.173-0.287,0.338-0.442,0.498c-0.15,0.152-0.292,0.314-0.45,0.459
	c-0.255,0.167-0.541,0.284-0.821,0.403c-0.597,0.234-1.225,0.371-1.856,0.472c-0.588,0.066-1.179,0.121-1.768,0.178
	c-0.522,0.049-1.062,0.019-1.584-0.042c-0.318-0.049-0.632-0.112-0.945-0.189c-0.297-0.071-0.59-0.136-0.877-0.239
	c-0.305-0.145-0.59-0.315-0.884-0.486c-0.33-0.193-0.681-0.362-0.997-0.58c-0.206-0.18-0.398-0.378-0.594-0.565
	c-0.282-0.268-0.537-0.552-0.779-0.855c-0.481-0.638-0.93-1.304-1.276-2.025c-0.322-0.82-0.566-1.685-0.699-2.555
	c-0.048-0.436-0.051-0.872-0.045-1.309c0.707,0.029,1.415,0.055,2.12,0.043c0.809-0.012,1.615-0.042,2.424-0.028
	c1.685,0.028,3.372,0.056,5.059,0.063c0.572,0.004,1.145-0.002,1.719-0.006c0.753-0.006,1.508-0.012,2.263-0.002
	c0.582,0.008,1.165,0.012,1.747,0.028c0.325,0.009,0.651,0.047,0.977,0.081c-0.01,0.304-0.024,0.608-0.058,0.91
	C23.955,18.056,23.856,18.501,23.786,18.952z M21.854,19.786c-0.054,0.231-0.139,0.46-0.221,0.685
	c-0.114,0.311-0.237,0.624-0.372,0.926c-0.088,0.191-0.209,0.369-0.327,0.542c-0.149,0.221-0.309,0.438-0.498,0.627
	c-0.351,0.351-0.765,0.646-1.173,0.922c-0.251,0.169-0.52,0.323-0.797,0.446c-0.382,0.171-0.767,0.294-1.171,0.404
	c-0.46,0.125-0.95-0.151-1.078-0.611c-0.125-0.457,0.151-0.956,0.611-1.078c0.32-0.083,0.638-0.161,0.947-0.277
	c0.444-0.202,0.856-0.441,1.251-0.729c0.231-0.184,0.44-0.381,0.628-0.611c0.068-0.09,0.132-0.183,0.188-0.281
	c0.068-0.12,0.124-0.248,0.179-0.375c0.131-0.324,0.258-0.667,0.325-1.007c0.068-0.35,0.424-0.571,0.766-0.571
	c0.067,0,0.133,0.008,0.196,0.026C21.731,18.939,21.952,19.369,21.854,19.786z"/>
</svg>