<?xml version="1.0" encoding="utf-8"?>
<!-- Generator: Adobe Illustrator 21.1.0, SVG Export Plug-In . SVG Version: 6.00 Build 0)  -->
<svg version="1.1" id="designs" xmlns="http://www.w3.org/2000/svg" xmlns:xlink="http://www.w3.org/1999/xlink" x="0px" y="0px"
	 width="32px" height="32px" viewBox="0 0 32 32" style="enable-background:new 0 0 32 32;" xml:space="preserve">
<style type="text/css">
	.sketchy_een{fill:#111918;}
</style>
<path class="sketchy_een" d="M15.045,25.601c-0.002-0.661-0.034-1.32-0.049-1.981c-0.015-0.771-0.04-1.541-0.072-2.312
	c-0.023-0.565-0.076-1.129-0.093-1.695c-0.017-0.594-0.011-1.191-0.017-1.787c-0.006-0.547-0.04-1.096-0.051-1.642
	c-0.015-0.638,0.029-1.278,0.046-1.917c0.008-0.274-0.151-0.509-0.372-0.653c-0.004-0.008-0.004-0.017-0.008-0.024
	c-0.116-0.2-0.362-0.377-0.604-0.377c-0.016,0-0.033,0-0.049,0.002c-0.038,0.003-0.076,0.008-0.114,0.013
	c-0.232,0.026-0.47,0.014-0.703,0.014c-0.282,0.002-0.564,0.002-0.846-0.002c-0.407-0.004-0.813,0.005-1.219,0.011
	c-0.008-0.038-0.016-0.076-0.023-0.115c-0.034-0.319-0.049-0.642-0.067-0.96c-0.019-0.37-0.044-0.739-0.055-1.107
	c-0.011-0.308-0.009-0.616-0.014-0.924c0.154,0.012,0.309,0.026,0.463,0.029c0.128,0.002,0.255,0.002,0.383,0.013
	c0.166,0.015,0.33,0.002,0.495,0.023c-0.072-0.01-0.147-0.019-0.219-0.029c0.013,0,0.025,0.002,0.036,0.004
	c0.23,0.034,0.427,0.04,0.636-0.082c0.185-0.108,0.322-0.288,0.379-0.493c0.057-0.213,0.027-0.444-0.084-0.634
	c-0.135-0.23-0.432-0.438-0.712-0.41c-0.293,0.033-0.598,0.037-0.893,0.038c-0.13,0.002-0.259,0.01-0.387,0.008
	c-0.04-0.001-0.081-0.001-0.121-0.003c-0.003-0.251-0.007-0.503-0.011-0.754c0.142-0.005,0.284-0.017,0.427-0.018
	c0.345,0,0.688,0.013,1.032,0.009c0.444-0.002,0.813-0.367,0.813-0.813c0-0.452-0.37-0.804-0.813-0.813
	c-0.072-0.001-0.143-0.002-0.215-0.002c-0.265,0-0.53,0.009-0.794,0.014c-0.154,0.003-0.307,0.017-0.462,0.023
	c-0.001-0.19-0.003-0.381-0.001-0.571c0.141,0.006,0.283,0.005,0.426,0.003c0.232-0.002,0.467-0.004,0.697,0.025
	c-0.07-0.01-0.143-0.019-0.213-0.029c0.093,0.013,0.186,0.025,0.28,0.037c0.02,0.003,0.039,0.007,0.059,0.011
	c0.227,0.044,0.438,0.034,0.644-0.084c0.187-0.11,0.326-0.292,0.383-0.501c0.059-0.215,0.029-0.449-0.084-0.642
	c-0.074-0.126-0.173-0.227-0.299-0.301c-0.131-0.074-0.272-0.112-0.423-0.114c-0.158-0.017-0.318,0.012-0.476,0.014
	c-0.21,0.001-0.423,0.007-0.632,0.001c-0.11-0.002-0.221-0.006-0.332-0.008c0.004-0.051,0.007-0.103,0.01-0.155
	c0.023-0.337,0.017-0.678,0.013-1.017C10.735,2.419,10.323,2,9.818,2C9.325,2,8.885,2.419,8.896,2.922
	c0.008,0.384,0.041,0.772,0.036,1.157c-0.124,0.01-0.248,0.023-0.374,0.025C8.371,4.108,8.18,4.108,7.992,4.108
	c-0.168-0.002-0.337-0.002-0.505,0C7.043,4.112,6.673,4.474,6.673,4.921c0,0.436,0.37,0.829,0.813,0.815
	c0.322-0.009,0.644-0.022,0.964-0.049C8.6,5.675,8.746,5.666,8.893,5.667C8.892,5.892,8.895,6.115,8.902,6.339
	c-0.14-0.004-0.281-0.004-0.42-0.009C8.097,6.317,7.71,6.296,7.325,6.281C6.881,6.264,6.51,6.666,6.51,7.096
	c0,0.452,0.371,0.804,0.815,0.815c0.324,0.007,0.648,0.004,0.971,0.002c0.217-0.002,0.433-0.001,0.649,0
	c0.005,0.224,0.016,0.448,0.018,0.672c-0.535-0.018-1.07-0.044-1.606-0.062c-0.007,0-0.015,0-0.022,0
	c-0.409,0-0.746,0.367-0.746,0.77c0,0.424,0.349,0.76,0.768,0.768c0.545,0.011,1.091,0.015,1.636,0.022
	C9,10.212,9.006,10.341,9.007,10.471c0.002,0.267,0.002,0.533,0.004,0.8c0.004,0.269,0.032,0.535,0.051,0.804
	c0.019,0.271,0.025,0.543,0.05,0.813c0.012,0.128,0.021,0.255,0.024,0.382c-0.308,0.005-0.615,0.015-0.923,0.012
	c-0.688-0.005-1.373-0.011-2.059,0.019c-0.203,0.009-0.389,0.091-0.526,0.221c-0.27,0.113-0.464,0.38-0.464,0.687
	c0.002,0.375,0.002,0.75-0.008,1.124c-0.006,0.242-0.027,0.482-0.034,0.724c-0.025,0.705-0.11,1.408-0.137,2.112
	c-0.049,1.299-0.017,2.596-0.03,3.896c-0.004,0.311-0.015,0.619-0.025,0.93c-0.01,0.32,0.011,0.638,0.019,0.958
	c0.01,0.347,0.017,0.693,0.017,1.042c0,0.31,0.03,0.619,0.046,0.929c0.021,0.379,0.067,0.754,0.078,1.133
	C5.1,27.49,5.093,27.926,5.135,28.36c0.023,0.211,0.036,0.425,0.036,0.638c-0.001,0.142,0.048,0.268,0.116,0.383
	C5.369,29.728,5.671,30.005,6.041,30c0.39-0.006,0.783-0.015,1.173-0.036c0.339-0.017,0.678-0.055,1.019-0.067
	c0.672-0.021,1.349-0.011,2.021-0.007c0.343,0,0.684-0.012,1.027-0.004c0.291,0.006,0.583,0.013,0.876,0.023
	c0.291,0.011,0.583,0.017,0.874,0.021c0.322,0.005,0.64-0.004,0.962,0.022c0.261,0.022,0.487-0.128,0.638-0.334
	c0.269-0.132,0.459-0.407,0.464-0.723c0.006-0.413,0.004-0.831-0.019-1.244C15.036,26.969,15.049,26.285,15.045,25.601z
	 M10.061,14.653c0.642-0.004,1.284-0.01,1.926,0.002c0.307,0.006,0.611,0.019,0.916,0.025c0.106,0.002,0.212,0.005,0.319,0.006
	c0.007,0.694,0.036,1.386,0.06,2.081c0.011,0.362,0.002,0.724-0.002,1.085c-0.006,0.416-0.004,0.829-0.01,1.244
	c-0.006,0.383-0.013,0.764,0.01,1.146c0.027,0.393,0.04,0.785,0.053,1.177c0.025,0.762,0.03,1.525,0.027,2.288
	c-0.001,0.279,0.008,0.558,0.013,0.836c-0.083,0.004-0.166,0.006-0.25,0.012c-0.305,0.021-0.608,0.025-0.912,0.027
	c-0.663,0.002-1.324,0.032-1.987,0.043c-0.665,0.014-1.331,0.046-1.998,0.05c-0.36,0.002-0.718,0-1.076-0.002
	c-0.215-0.001-0.43-0.001-0.644-0.002c-0.001-0.249,0.001-0.499-0.008-0.747c-0.013-0.318-0.01-0.636-0.006-0.956
	c0.004-0.324,0.021-0.648,0.025-0.972c0.006-0.35,0-0.703,0.002-1.053c0.004-0.6,0.006-1.2,0-1.8
	c-0.004-0.345-0.013-0.69,0.002-1.035c0.015-0.373,0.048-0.745,0.069-1.118c0.019-0.33,0.019-0.659,0.021-0.991
	c0.002-0.238-0.013-0.474,0-0.712c0.009-0.165,0.013-0.329,0.022-0.493C7.773,14.723,8.917,14.657,10.061,14.653z M12.201,28.337
	c-0.65,0.017-1.297,0.048-1.947,0.055c-0.295,0.004-0.591,0.004-0.886,0.004c-0.36,0-0.72,0-1.08,0.006
	c-0.35,0.006-0.699,0.021-1.05,0.027c-0.184,0.003-0.368-0.001-0.552-0.004c-0.019-0.217-0.034-0.434-0.035-0.651
	c-0.002-0.434-0.038-0.863-0.059-1.295c-0.005-0.112-0.018-0.224-0.029-0.335c0.532-0.027,1.064-0.062,1.597-0.062
	c0.326,0,0.653,0.004,0.979,0.017c0.343,0.013,0.688-0.004,1.03-0.008c0.672-0.003,1.345,0.004,2.017,0.008
	c0.303,0,0.604-0.01,0.905,0.023c0.1,0.01,0.203,0.003,0.305,0.008c0.002,0.2,0.004,0.399,0.01,0.6
	c0.006,0.223,0.031,0.448,0.044,0.67c0.013,0.223,0.015,0.448,0.021,0.67c0.002,0.083,0.001,0.166,0.001,0.249
	c-0.136,0.002-0.271,0.005-0.408,0.003C12.778,28.316,12.488,28.332,12.201,28.337z M27.031,27.813
	c-0.025-0.535-0.055-1.074-0.072-1.612c-0.019-0.558-0.036-1.118-0.065-1.676c-0.03-0.581-0.03-1.162-0.04-1.743
	c-0.04-2.377-0.042-4.756-0.091-7.133c-0.011-0.493-0.013-0.985-0.027-1.48c-0.008-0.312-0.032-0.625-0.048-0.937
	c-0.017-0.322-0.03-0.636-0.074-0.957c0.002,0.012,0.003,0.023,0.005,0.035c-0.036-0.281-0.067-0.564-0.073-0.848
	c-0.008-0.259-0.011-0.519-0.029-0.777c-0.048-0.676,0-1.354-0.042-2.032c-0.029-0.435-0.345-0.798-0.8-0.798
	c-0.104,0-0.208,0.024-0.306,0.066c-0.015,0-0.027-0.008-0.042-0.007c-0.434,0.034-0.87,0.03-1.307,0.034
	c-0.627,0.004-1.255,0.006-1.882,0.009c-0.615,0.002-1.229,0.008-1.844-0.002c-0.739-0.011-1.478-0.049-2.217-0.066
	c-0.006,0-0.013,0-0.019,0c-0.244,0-0.453,0.131-0.595,0.317c-0.179,0.15-0.298,0.37-0.312,0.622
	c-0.046,0.823-0.017,1.646-0.042,2.468c-0.017,0.536-0.05,1.074-0.013,1.61c0.044,0.651,0.059,1.303,0.074,1.954
	c0.015,0.655-0.008,1.309,0.021,1.962c0.03,0.695,0.095,1.389,0.109,2.082c0.011,0.626,0.023,1.251,0.015,1.878
	c-0.006,0.606,0.027,1.209,0.027,1.813c0,0.76-0.01,1.518-0.011,2.276c-0.004,1.326-0.01,2.651-0.034,3.975
	c-0.005,0.257,0.113,0.487,0.293,0.651c0.14,0.247,0.398,0.417,0.7,0.426c0.41,0.014,0.817,0.008,1.227,0.012
	c0.347,0.002,0.691,0.017,1.038,0.017c0.484,0.002,0.971,0.019,1.453-0.015c0.663-0.048,1.33-0.046,1.992-0.052
	c0.314-0.002,0.629,0.016,0.945,0.021c0.099,0.002,0.2,0.01,0.301,0.015c0.168,0.012,0.335-0.001,0.503-0.001
	c0.09,0,0.179-0.004,0.269-0.01c0.117-0.008,0.226-0.039,0.327-0.085c0.181-0.025,0.355-0.094,0.484-0.224
	c0.19-0.19,0.254-0.425,0.236-0.674c0.003,0.023,0.006,0.047,0.009,0.07C27.026,28.607,27.051,28.207,27.031,27.813z M22.138,9.415
	c0.931,0.01,1.863,0.003,2.793,0.033c0.025,0.405,0.043,0.812,0.039,1.218c-0.002,0.259,0.01,0.516,0.015,0.775
	c0.009,0.383,0.083,0.764,0.138,1.142c0.065,0.556,0.072,1.123,0.07,1.681c-0.004,0.543,0.01,1.086,0.021,1.626
	c0.025,1.227,0.025,2.45,0.006,3.676c-0.017,1.143-0.011,2.286,0.006,3.429c0.008,0.491,0.012,0.981,0.033,1.472
	c-0.055,0.003-0.11,0.007-0.164,0.011c-0.133,0.009-0.265,0.007-0.396,0.005c-0.152-0.004-0.305-0.005-0.455,0.008
	c-0.263,0.023-0.53,0.026-0.794,0.049c-0.316,0.029-0.632,0.04-0.951,0.053c-0.23,0.008-0.461,0.029-0.691,0.031
	c-0.326,0.004-0.65,0.002-0.975-0.004c-0.592-0.013-1.181,0.007-1.77,0.042c-0.002-0.671-0.005-1.343-0.014-2.015
	c-0.008-0.609-0.051-1.219-0.057-1.831c-0.006-0.626-0.006-1.253-0.03-1.882c-0.015-0.379-0.046-0.758-0.07-1.135
	c-0.019-0.32-0.015-0.638-0.027-0.956c-0.019-0.651-0.019-1.303-0.019-1.955c0-0.301-0.017-0.602-0.025-0.901
	c-0.008-0.354,0.008-0.707-0.032-1.057c-0.061-0.533-0.059-1.072-0.076-1.605c-0.021-0.628,0.002-1.253,0.038-1.879
	c0.494-0.012,0.988-0.026,1.482-0.033C20.867,9.407,21.502,9.409,22.138,9.415z M24.916,28.375c-0.32,0-0.64,0.023-0.958,0.021
	c-0.343-0.004-0.684-0.012-1.027-0.015c-0.168-0.002-0.333,0.003-0.499,0.007c-0.152,0.004-0.305,0.008-0.455,0.006
	c-0.474,0-0.949,0.023-1.423,0.017c-0.493-0.006-0.985-0.035-1.476-0.064c-0.003-0.118-0.006-0.236-0.006-0.354
	c0.002-0.292,0.01-0.583,0.01-0.874c-0.002-0.309-0.004-0.617-0.007-0.925c0.214-0.022,0.428-0.047,0.643-0.063
	c0.347-0.025,0.703-0.063,1.051-0.056c0.577,0.012,1.156,0.065,1.731,0.038c0.318-0.015,0.634-0.034,0.951-0.045
	c0.265-0.01,0.53-0.034,0.794-0.019c0.139,0.008,0.278,0.002,0.417-0.006c0.145-0.006,0.29-0.013,0.434-0.006
	c0.076,0.004,0.154,0.011,0.231,0.017c0.004,0.121,0.011,0.241,0.016,0.361c0.017,0.49,0.036,0.979,0.055,1.467
	c0.007,0.159,0.013,0.32,0.017,0.481C25.248,28.37,25.082,28.375,24.916,28.375z"/>
</svg>