<?xml version="1.0" encoding="utf-8"?>
<!-- Generator: Adobe Illustrator 21.1.0, SVG Export Plug-In . SVG Version: 6.00 Build 0)  -->
<svg version="1.1" id="designs" xmlns="http://www.w3.org/2000/svg" xmlns:xlink="http://www.w3.org/1999/xlink" x="0px" y="0px"
	 width="32px" height="32px" viewBox="0 0 32 32" style="enable-background:new 0 0 32 32;" xml:space="preserve">
<style type="text/css">
	.sketchy_een{fill:#111918;}
</style>
<path class="sketchy_een" d="M14.609,18.074c0.294,0,0.589,0.002,0.885,0c1.592-0.002,3.183,0.011,4.775,0.013
	c1.589,0.002,3.175,0.03,4.764,0.026c0.387-0.002,0.772-0.01,1.158-0.017c0.394-0.007,0.792-0.013,1.185-0.053
	c0.138-0.013,0.275-0.034,0.413-0.055c0.226-0.036,0.438-0.157,0.609-0.31c0.255-0.228,0.379-0.543,0.43-0.874
	c0.048-0.306,0.058-0.615,0.065-0.923c0.016,0,0.033,0,0.049,0c0.06,0.014,0.119,0.038,0.18,0.038c0.224,0,0.441-0.091,0.6-0.249
	c0.166-0.168,0.23-0.368,0.247-0.598c0.058-0.794,0.017-1.581-0.017-2.375c-0.019-0.421-0.049-0.834-0.134-1.249
	c-0.087-0.428-0.223-0.828-0.396-1.228c-0.081-0.185-0.206-0.355-0.321-0.521c-0.153-0.217-0.323-0.43-0.517-0.613
	c-0.191-0.181-0.442-0.332-0.677-0.449c-0.24-0.121-0.485-0.221-0.736-0.309c-0.381-0.138-0.781-0.232-1.177-0.321
	c-0.489-0.108-0.979-0.194-1.477-0.259c-1.764-0.228-3.542-0.262-5.321-0.264c-0.02,0-0.039,0-0.058,0
	c-0.875,0-1.744,0.041-2.617,0.113c-0.955,0.079-1.904,0.215-2.851,0.349c-1.736,0.249-3.487,0.472-5.136,1.096
	C8.073,9.219,7.618,9.415,7.167,9.617c-0.362,0.16-0.704,0.342-1.034,0.56c-0.368,0.243-0.736,0.494-1.06,0.796
	c-0.325,0.302-0.625,0.63-0.883,0.991c-0.174,0.24-0.358,0.474-0.511,0.728c-0.172,0.289-0.309,0.585-0.438,0.896
	c-0.128,0.309-0.16,0.666-0.202,0.994c-0.027,0.206-0.037,0.415-0.057,0.622c-0.05,0.246-0.038,0.477,0.091,0.698
	c0.075,0.128,0.186,0.224,0.309,0.301c-0.131,0.174-0.249,0.358-0.348,0.548c-0.179,0.343-0.317,0.708-0.421,1.081
	c-0.157,0.572-0.302,1.145-0.428,1.726c-0.081,0.37-0.14,0.747-0.172,1.126c-0.025,0.285-0.008,0.574,0.006,0.859
	c0.032,0.724,0.083,1.451,0.136,2.173c0.019,0.245,0.085,0.457,0.262,0.634c0.12,0.12,0.276,0.187,0.44,0.224
	c0.151,0.224,0.395,0.381,0.68,0.381c0.743,0.002,1.489-0.023,2.23-0.045c0.785-0.024,1.57-0.051,2.353-0.079
	c0.794-0.028,1.589-0.021,2.383-0.038c0.766-0.015,1.53-0.038,2.296-0.058c0.757-0.023,1.515-0.013,2.274-0.006
	c0.828,0.008,1.657,0.01,2.485,0.01c1.6,0,3.202,0,4.802,0.038c1.04,0.025,2.079,0.03,3.119,0.079
	c1.089,0.051,2.179,0.087,3.268,0.142c0.34,0.016,0.627-0.229,0.736-0.535c0.015-0.013,0.036-0.019,0.05-0.034
	c0.17-0.17,0.223-0.362,0.245-0.592c0.023-0.215,0.019-0.432,0.006-0.647c-0.017-0.276-0.053-0.555-0.132-0.817
	c-0.147-0.485-0.457-0.941-0.794-1.311c-0.27-0.294-0.647-0.49-1.008-0.651c-0.415-0.185-0.832-0.36-1.264-0.504
	c-0.375-0.125-0.76-0.191-1.153-0.245c-0.466-0.066-0.928-0.111-1.398-0.14c-0.777-0.045-1.557-0.098-2.334-0.143
	c-1.638-0.094-3.277-0.109-4.919-0.113c-0.762,0-1.525,0-2.287,0c-0.915,0-1.83,0-2.743-0.004c-0.097,0-0.193-0.001-0.29-0.001
	c-0.02,0-0.04,0-0.06,0c0-0.383-0.019-0.768-0.076-1.145C12.419,18.077,13.514,18.072,14.609,18.074z M27.287,16.485
	c-0.721,0.079-1.45,0.078-2.173,0.081c-0.798,0.004-1.594,0.007-2.392,0.002c-1.615-0.009-3.23-0.011-4.845-0.032
	c-2.317-0.026-4.632-0.032-6.949-0.002c-0.066,0.001-0.126,0.024-0.188,0.04c-0.141-0.203-0.298-0.393-0.474-0.569
	c0.413-0.019,0.825-0.046,1.239-0.051c0.772-0.011,1.542-0.024,2.313-0.028c0.774-0.002,1.549-0.013,2.325-0.04
	c0.785-0.028,1.57-0.024,2.355-0.051c1.625-0.057,3.245-0.094,4.872-0.081c0.821,0.006,1.64,0.042,2.46,0.066
	c0.487,0.015,0.975,0.022,1.462,0.032c0,0.061-0.005,0.121-0.002,0.181c0.006,0.149,0.01,0.296,0.001,0.444
	C27.287,16.48,27.287,16.483,27.287,16.485z M27.419,16.456L27.419,16.456c0.007-0.006,0.015-0.012,0.023-0.018
	C27.434,16.445,27.426,16.451,27.419,16.456z M5.043,14.032c0.091-0.198,0.192-0.39,0.305-0.577c0.13-0.213,0.284-0.417,0.432-0.619
	c0.248-0.301,0.527-0.591,0.825-0.841C6.948,11.743,7.3,11.5,7.671,11.295c0.355-0.197,0.735-0.357,1.11-0.515
	c0.506-0.207,1.018-0.399,1.544-0.54c0.53-0.141,1.072-0.245,1.609-0.349c0.566-0.111,1.138-0.187,1.704-0.283
	c0.553-0.094,1.108-0.183,1.663-0.263c0.71-0.091,1.421-0.174,2.133-0.214c0.817-0.045,1.63-0.053,2.447-0.049
	c1.521,0.005,3.035,0.02,4.547,0.198c0.825,0.129,1.638,0.309,2.421,0.599c0.2,0.095,0.387,0.206,0.569,0.331
	c0.071,0.064,0.135,0.132,0.198,0.204c0.132,0.186,0.247,0.381,0.351,0.585c0.132,0.359,0.215,0.735,0.275,1.114
	c0.041,0.417,0.047,0.837,0.067,1.255c0.016,0.315,0.015,0.63,0.005,0.944c-0.042,0-0.084,0-0.127,0
	c-0.57,0.004-1.14,0.006-1.709-0.008c-0.838-0.017-1.674-0.064-2.511-0.081c-0.651-0.013-1.302-0.02-1.953-0.02
	c-0.987,0-1.974,0.016-2.96,0.054c-1.557,0.06-3.117,0.068-4.675,0.085c-1.553,0.015-3.108,0.042-4.662,0.077
	c-0.174,0.004-0.347,0.006-0.521,0.009c-0.301,0.005-0.559,0.178-0.699,0.426c-0.46-0.148-0.946-0.218-1.434-0.218
	c-0.225,0-0.449,0.013-0.671,0.035c-0.251,0.026-0.502,0.064-0.749,0.123c-0.249,0.059-0.489,0.166-0.723,0.272
	c-0.032,0.015-0.061,0.035-0.092,0.051c0.012-0.121,0.023-0.242,0.035-0.363C4.905,14.507,4.96,14.268,5.043,14.032z M13.339,20.816
	c0.477-0.006,0.957-0.002,1.436,0c0.319,0.002,0.638,0.004,0.957,0.002c1.687-0.002,3.374-0.028,5.057,0.062
	c0.694,0.036,1.387,0.109,2.079,0.175c0.688,0.068,1.377,0.096,2.062,0.178c0.27,0.04,0.536,0.088,0.801,0.153
	c0.25,0.059,0.491,0.151,0.728,0.249c0.374,0.163,0.744,0.328,1.08,0.559c0.065,0.058,0.125,0.119,0.182,0.186
	c0.099,0.135,0.194,0.273,0.272,0.42c0.04,0.116,0.07,0.233,0.093,0.354c0.008,0.085,0.002,0.172,0.006,0.258
	c-0.621-0.013-1.243-0.016-1.864-0.036c-0.813-0.025-1.626-0.081-2.44-0.108c-1.609-0.053-3.221-0.085-4.832-0.083
	c-1.594,0.002-3.192,0.025-4.787,0c-0.371-0.006-0.742-0.008-1.112-0.008c-1.159,0-2.317,0.022-3.476,0.025
	c-0.506,0-1.011-0.004-1.517,0.011c-0.538,0.015-1.075,0.042-1.611,0.064c-0.846,0.034-1.692,0.028-2.537,0.008
	c-0.034-0.437-0.064-0.874-0.067-1.313c-0.002-0.425-0.006-0.854,0.034-1.276c0.08-0.512,0.196-1.021,0.321-1.524
	c0.119-0.488,0.232-0.975,0.413-1.445c0.076-0.166,0.159-0.327,0.26-0.48c0.055-0.062,0.114-0.12,0.177-0.176
	c0.265-0.196,0.542-0.379,0.838-0.522c0.207-0.071,0.416-0.122,0.631-0.16c0.354-0.038,0.699-0.045,1.054-0.01
	c0.192,0.032,0.38,0.072,0.566,0.133c0.199,0.102,0.388,0.218,0.571,0.347c0.211,0.178,0.41,0.37,0.588,0.579
	c0.077,0.109,0.148,0.22,0.209,0.338c0.061,0.186,0.104,0.375,0.136,0.568c0.062,0.58,0.045,1.167,0.017,1.75
	c-0.025,0.466,0.408,0.857,0.855,0.857c0.128,0,0.25-0.036,0.364-0.09C11.699,20.843,12.519,20.824,13.339,20.816z M7.976,18.779
	c0,0.447-0.374,0.821-0.821,0.821c-0.447,0-0.821-0.374-0.821-0.821s0.374-0.821,0.821-0.821
	C7.603,17.958,7.976,18.332,7.976,18.779z"/>
</svg>