<?xml version="1.0" encoding="utf-8"?>
<!-- Generator: Adobe Illustrator 21.1.0, SVG Export Plug-In . SVG Version: 6.00 Build 0)  -->
<svg version="1.1" id="designs" xmlns="http://www.w3.org/2000/svg" xmlns:xlink="http://www.w3.org/1999/xlink" x="0px" y="0px"
	 width="32px" height="32px" viewBox="0 0 32 32" style="enable-background:new 0 0 32 32;" xml:space="preserve">
<style type="text/css">
	.sketchy_een{fill:#111918;}
</style>
<path class="sketchy_een" d="M13.001,30c-0.405-0.005-0.839-0.086-1.328-0.249c-0.262-0.087-0.516-0.188-0.771-0.296
	c-0.228-0.099-0.368-0.159-0.501-0.234c-0.353-0.2-0.695-0.475-1.015-0.815c-0.278-0.295-0.558-0.591-0.809-0.909
	c-0.548-0.693-1.148-1.509-1.309-2.425c-0.049-0.281-0.024-0.482,0.086-0.671c0.113-0.192,0.301-0.337,0.516-0.396
	c0.074-0.02,0.149-0.03,0.224-0.03c0.386,0,0.731,0.261,0.839,0.635c0.033,0.112,0.073,0.219,0.116,0.325
	c0.234,0.508,0.552,0.957,0.832,1.33c0.174,0.214,0.361,0.417,0.547,0.618l0.079,0.087c0.131,0.146,0.264,0.292,0.408,0.425
	l-0.007,0.009l0.045,0.035l0.007-0.003c0.022,0.019,0.043,0.038,0.065,0.056c0.238,0.16,0.5,0.303,0.808,0.442
	c0.382,0.148,0.706,0.243,1.024,0.3c0.074,0.004,0.143,0.006,0.21,0.006c0.179,0,0.357-0.012,0.536-0.031
	c0.404-0.073,0.826-0.199,1.294-0.387c0.255-0.116,0.47-0.237,0.662-0.37c0.404-0.342,0.735-0.762,1.055-1.168l0.081-0.103
	c0.273-0.377,0.504-0.785,0.727-1.179c0.125-0.222,0.252-0.445,0.386-0.664c0.259-0.423,0.546-0.823,0.833-1.224l0.369-0.519
	l0.354-0.514c0.285-0.415,0.569-0.83,0.871-1.234c0.309-0.417,0.637-0.817,0.965-1.219l0.425-0.522
	c0.449-0.599,0.869-1.238,1.287-1.956c0.425-0.734,0.742-1.342,0.996-1.916c0.32-0.821,0.543-1.591,0.682-2.356
	c0.056-0.526,0.047-1.05,0.031-1.494c-0.018-0.476-0.054-0.952-0.108-1.427c-0.097-0.669-0.233-1.226-0.415-1.703
	c-0.265-0.572-0.613-1.069-0.886-1.438c-0.152-0.186-0.31-0.365-0.468-0.544l-0.149-0.17c-0.16-0.184-0.327-0.357-0.512-0.516
	c-0.363-0.252-0.756-0.465-1.135-0.671l-0.366-0.2c-0.19-0.105-0.385-0.193-0.582-0.28l-0.857-0.397
	c-0.287-0.115-0.626-0.241-0.983-0.309c-0.524-0.054-1.057-0.058-1.571-0.061l-0.243-0.001c-0.387,0-0.768,0.01-1.155,0.05
	c-0.303,0.05-0.599,0.124-0.895,0.197l-0.198,0.049c-0.111,0.026-0.597,0.123-0.597,0.123c-0.229,0.051-0.445,0.12-0.662,0.205
	c-0.551,0.248-1.105,0.583-1.744,1.054c-0.4,0.321-0.793,0.69-1.274,1.196c-0.11,0.121-0.22,0.24-0.321,0.364L9.375,7.056
	L9.231,7.247C9.145,7.364,8.847,7.792,8.847,7.792c-0.14,0.202-0.281,0.404-0.416,0.611c-0.302,0.463-0.58,0.979-0.848,1.579
	l-0.177,0.46c-0.095,0.252-0.206,0.398-0.384,0.502c-0.127,0.074-0.273,0.114-0.422,0.114c-0.074,0-0.149-0.01-0.221-0.029
	C6.172,10.97,5.99,10.831,5.88,10.644c-0.096-0.165-0.163-0.434-0.084-0.636c0.309-0.788,0.64-1.465,1.015-2.069
	c0.296-0.477,0.623-0.94,0.948-1.4c0,0,0.209-0.294,0.267-0.369c0.039-0.069,0.083-0.126,0.134-0.178
	c0.302-0.364,0.616-0.695,0.986-1.037C9.75,4.396,10.244,4,10.746,3.673l0.135-0.088c0.296-0.193,0.597-0.39,0.915-0.544
	c0.186-0.089,0.376-0.175,0.567-0.259c0.237-0.101,0.405-0.172,0.584-0.215c0.104-0.025,0.208-0.049,0.313-0.071
	c0.282-0.059,0.56-0.127,0.839-0.197l0.416-0.101c0.396-0.093,0.823-0.155,1.303-0.188C15.93,2.003,16.042,2,16.155,2
	C16.283,2,16.9,2.014,16.9,2.014c0.406,0.004,0.812,0.008,1.218,0.038c0.283,0.023,0.54,0.043,0.773,0.118
	c0.182,0.059,0.365,0.12,0.542,0.188c0.309,0.122,0.605,0.263,0.903,0.405l0.328,0.156c0.414,0.192,0.811,0.401,1.207,0.628
	c0.123,0.071,0.25,0.139,0.376,0.207c0.223,0.121,0.447,0.242,0.66,0.379c0.424,0.276,0.754,0.62,1.019,0.921
	c0.366,0.414,0.673,0.798,0.939,1.174c0.281,0.396,0.487,0.743,0.648,1.094c0.182,0.397,0.325,0.816,0.438,1.279
	c0.115,0.472,0.168,0.965,0.211,1.43c0.04,0.426,0.06,0.854,0.067,1.283c0.01,0.48,0.02,0.927-0.021,1.363
	c-0.045,0.474-0.14,0.965-0.3,1.545c-0.23,0.836-0.58,1.71-1.073,2.673c-0.399,0.78-0.847,1.538-1.329,2.253
	c-0.402,0.593-0.863,1.158-1.308,1.704l-0.468,0.577c-0.355,0.47-0.677,0.959-1,1.448l-0.366,0.551
	c-0.14,0.208-0.284,0.414-0.427,0.619c-0.336,0.481-0.683,0.978-0.975,1.504c-0.222,0.403-0.426,0.774-0.655,1.131
	c-0.26,0.411-0.564,0.797-0.857,1.17l-0.065,0.081c-0.218,0.272-0.441,0.555-0.712,0.777c-0.334,0.276-0.709,0.495-1.217,0.711
	c-0.359,0.149-0.742,0.305-1.126,0.412C13.934,29.942,13.495,30,13.065,30H13.001z M8.779,21.175c-0.339,0-0.664-0.251-0.755-0.584
	c-0.114-0.413,0.123-0.83,0.551-0.97c0.306-0.099,0.609-0.208,0.908-0.329c0.232-0.11,0.46-0.248,0.702-0.424
	c0.101-0.087,0.193-0.177,0.278-0.273c0.086-0.127,0.159-0.254,0.222-0.387c0.031-0.084,0.054-0.164,0.073-0.246
	c-0.015-0.133-0.033-0.193-0.053-0.253c-0.123-0.107-0.213-0.153-0.307-0.195c-0.168-0.071-0.334-0.143-0.494-0.224L9.7,17.196
	c-0.091-0.04-0.183-0.081-0.271-0.127c-0.487-0.261-0.835-0.606-1.005-0.997c-0.192-0.434-0.29-0.943-0.292-1.511
	c0-0.545,0.13-1.078,0.243-1.481c0.116-0.416,0.249-0.861,0.442-1.295c0.171-0.387,0.361-0.761,0.565-1.132
	c0.315-0.569,0.705-1.156,1.191-1.794c0.342-0.452,0.628-0.781,0.927-1.067c0.273-0.262,0.601-0.527,1.03-0.836
	c0.297-0.212,0.609-0.39,0.901-0.516c0.352-0.153,0.734-0.27,1.168-0.358c0.351-0.073,0.67-0.109,0.976-0.109
	c0.114,0,0.229,0.005,0.344,0.016c0.467,0.042,0.883,0.104,1.272,0.19c0.766,0.168,1.529,0.6,2.205,1.249
	c0.67,0.641,1.133,1.327,1.375,2.04c0.13,0.389,0.148,0.816,0.166,1.229l0.006,0.121c0.015,0.36,0.029,0.719,0.029,1.078
	c0,0.439-0.37,0.809-0.809,0.809c-0.439,0-0.802-0.364-0.81-0.81l-0.004-0.367c-0.004-0.437-0.008-0.875-0.05-1.309
	c-0.025-0.128-0.057-0.248-0.099-0.367c-0.128-0.273-0.279-0.529-0.45-0.763c-0.218-0.265-0.479-0.525-0.779-0.776
	c-0.236-0.166-0.495-0.317-0.751-0.44c-0.292-0.105-0.623-0.182-1.046-0.246C15.94,7.6,15.71,7.582,15.479,7.582
	c-0.111,0-0.222,0.004-0.335,0.014c-0.359,0.062-0.667,0.139-0.947,0.236c-0.336,0.161-0.666,0.36-0.987,0.593
	c-0.445,0.359-0.812,0.719-1.126,1.102c-0.785,1.063-1.385,2.064-1.835,3.061c-0.212,0.528-0.371,1.075-0.475,1.626
	c-0.023,0.256-0.022,0.504,0.002,0.763c0.024,0.13,0.052,0.254,0.094,0.376l0.052,0.096c0.049,0.049,0.101,0.094,0.154,0.138
	c0.174,0.125,0.359,0.228,0.543,0.33c0.123,0.068,0.248,0.127,0.374,0.186c0.093,0.043,0.186,0.087,0.277,0.134
	c0.157,0.08,0.306,0.183,0.43,0.297c0.224,0.209,0.337,0.452,0.442,0.704c0.177,0.422,0.182,0.901,0.015,1.349
	c-0.154,0.414-0.339,0.747-0.58,1.048c-0.207,0.256-0.469,0.452-0.719,0.632c-0.587,0.421-1.273,0.678-1.867,0.873
	C8.921,21.163,8.851,21.175,8.779,21.175z"/>
</svg>