<?xml version="1.0" encoding="utf-8"?>
<!-- Generator: Adobe Illustrator 21.1.0, SVG Export Plug-In . SVG Version: 6.00 Build 0)  -->
<svg version="1.1" id="designs" xmlns="http://www.w3.org/2000/svg" xmlns:xlink="http://www.w3.org/1999/xlink" x="0px" y="0px"
	 width="32px" height="32px" viewBox="0 0 32 32" style="enable-background:new 0 0 32 32;" xml:space="preserve">
<style type="text/css">
	.sketchy_een{fill:#111918;}
</style>
<path class="sketchy_een" d="M29.949,25.204c0.01-0.69,0.019-1.38-0.004-2.073c-0.012-0.349-0.041-0.698-0.06-1.047
	c-0.021-0.363-0.025-0.725-0.031-1.088c-0.012-0.772-0.037-1.54-0.083-2.309c-0.047-0.766-0.095-1.532-0.091-2.3
	c0.004-0.812,0.023-1.625,0.027-2.437c0.008-1.621,0.041-3.244,0.06-4.867c0-0.02,0-0.04,0.001-0.06
	c0.091-0.095,0.168-0.203,0.203-0.33c0.05-0.188,0.039-0.444-0.079-0.607c-0.126-0.177-0.254-0.353-0.411-0.504
	c-0.14-0.134-0.283-0.268-0.425-0.399c-0.147-0.136-0.281-0.275-0.407-0.431c-0.132-0.164-0.275-0.318-0.411-0.476
	c-0.084-0.124-0.154-0.254-0.227-0.386c-0.092-0.167-0.202-0.319-0.318-0.47c-0.099-0.132-0.186-0.27-0.283-0.404
	c-0.076-0.105-0.157-0.209-0.248-0.302c-0.068-0.07-0.18-0.163-0.254-0.203c-0.07-0.041-0.145-0.074-0.225-0.101
	c-0.078-0.01-0.157-0.021-0.237-0.031c-0.01-0.001-0.021-0.002-0.032-0.002c-0.118,0-0.302,0.061-0.389,0.114
	c-0.103,0.06-0.194,0.136-0.273,0.221c-0.111,0.118-0.207,0.258-0.297,0.394c-0.12,0.182-0.213,0.38-0.32,0.57
	c-0.219,0.39-0.429,0.785-0.667,1.163c-0.045,0.071-0.097,0.138-0.142,0.208c-0.125-0.204-0.246-0.411-0.38-0.612
	c-0.079-0.118-0.14-0.24-0.196-0.37c-0.089-0.202-0.2-0.353-0.335-0.527c-0.126-0.161-0.284-0.295-0.42-0.45
	c-0.113-0.16-0.212-0.33-0.315-0.496c-0.083-0.138-0.173-0.266-0.273-0.392C22.338,4.116,22.252,4.054,22.163,4
	c-0.142-0.086-0.289-0.115-0.44-0.115c-0.078,0-0.158,0.008-0.239,0.02c-0.326,0.048-0.584,0.326-0.789,0.564
	c-0.157,0.182-0.287,0.388-0.432,0.578c0.005-0.006,0.01-0.013,0.015-0.019c-0.292,0.38-0.574,0.765-0.841,1.163
	c-0.11,0.165-0.209,0.337-0.314,0.505c-0.044-0.043-0.084-0.089-0.128-0.131c-0.136-0.128-0.277-0.246-0.407-0.38
	c-0.184-0.188-0.404-0.328-0.614-0.48c-0.186-0.159-0.355-0.329-0.512-0.515c-0.183-0.274-0.357-0.554-0.534-0.832
	c-0.165-0.258-0.443-0.411-0.73-0.411c-0.138,0-0.279,0.036-0.41,0.113c-0.113,0.067-0.2,0.167-0.27,0.278
	C15.439,4.376,15.362,4.422,15.3,4.49c-0.415,0.459-0.739,0.983-1.08,1.497c-0.287,0.431-0.593,0.848-0.896,1.268
	c-0.149-0.168-0.287-0.346-0.437-0.515c-0.178-0.202-0.38-0.382-0.57-0.572c-0.186-0.184-0.368-0.374-0.549-0.566
	c-0.32-0.345-0.609-0.731-0.96-1.045c-0.068-0.062-0.134-0.122-0.196-0.188c-0.101-0.105-0.211-0.242-0.341-0.304
	c-0.157-0.075-0.298-0.122-0.454-0.122c-0.063,0-0.129,0.008-0.2,0.025C9.442,4.009,9.318,4.102,9.184,4.219
	C9.076,4.315,8.997,4.455,8.908,4.572C8.785,4.732,8.664,4.894,8.56,5.068C8.44,5.27,8.318,5.469,8.195,5.671
	C8.012,5.975,7.801,6.258,7.603,6.55C7.46,6.424,7.319,6.295,7.17,6.177C7.04,6.074,6.918,5.969,6.802,5.851
	c-0.103-0.105-0.19-0.223-0.297-0.326C6.4,5.428,6.286,5.339,6.177,5.246c-0.12-0.103-0.221-0.219-0.318-0.343
	C5.873,4.921,5.887,4.94,5.902,4.958C5.753,4.769,5.611,4.601,5.407,4.455C5.288,4.37,5.142,4.333,4.993,4.333
	c-0.158,0-0.318,0.042-0.449,0.112c-0.109,0.06-0.202,0.151-0.297,0.233C4.149,4.763,4.05,4.846,3.961,4.941
	c-0.107,0.114-0.2,0.244-0.299,0.366C3.121,5.998,2.53,6.651,2.101,7.423c-0.148,0.265-0.125,0.58,0.028,0.823
	c0.006,1.42,0.024,2.839,0.021,4.261c-0.006,1.398-0.064,2.796-0.014,4.196c0.027,0.745,0.033,1.487,0.05,2.232
	c0.019,0.719,0.076,1.435,0.093,2.154c0.017,0.731,0.025,1.462,0.027,2.193c0.002,0.682,0.027,1.365,0.033,2.048
	c0.002,0.49,0.002,0.981,0.002,1.472c0,0.158,0.064,0.299,0.153,0.419c0.04,0.431,0.4,0.787,0.84,0.783
	C4.211,28,5.09,27.986,5.966,27.955c0.803-0.027,1.607-0.076,2.41-0.064c0.537,0.008,1.076,0.002,1.615-0.004
	c0.995-0.012,1.989-0.023,2.98,0.05c0.372,0.029,0.739,0.054,1.111,0.064c0.353,0.008,0.706,0.027,1.059,0.045
	c0.77,0.039,1.54,0.035,2.311,0.045c1.512,0.016,3.027,0.033,4.541,0.019c1.204-0.01,2.408-0.054,3.614-0.056
	c0.283,0,0.566,0.01,0.849,0.006c0.322-0.004,0.646-0.014,0.968-0.016c0.289-0.004,0.576-0.01,0.865-0.01
	c0.229,0,0.452,0.004,0.681-0.023c0.009-0.001,0.016-0.004,0.025-0.005c0.072,0.022,0.144,0.044,0.22,0.044
	c0.438,0,0.756-0.355,0.776-0.778c0.017-0.341-0.016-0.694-0.029-1.035C29.947,25.892,29.945,25.549,29.949,25.204z M3.766,26.297
	c-0.021-0.513-0.02-1.028-0.033-1.539c-0.017-0.667-0.052-1.332-0.06-1.997c-0.006-0.752-0.002-1.507-0.023-2.259
	c-0.012-0.349-0.037-0.698-0.052-1.045c-0.019-0.388-0.019-0.776-0.021-1.164c0-0.702-0.012-1.402-0.023-2.102
	c-0.012-0.686,0.006-1.375,0.019-2.061c0.012-0.723,0.033-1.446,0.035-2.172c0.004-0.708-0.002-1.416,0.002-2.123
	c0.006-0.574,0.016-1.148,0.019-1.722c0-0.038-0.016-0.072-0.022-0.109c0.165-0.288,0.332-0.573,0.529-0.84
	C4.352,6.89,4.582,6.627,4.801,6.355c0.035-0.044,0.072-0.087,0.109-0.129c0.058,0.061,0.119,0.12,0.184,0.176
	c0.122,0.107,0.25,0.208,0.361,0.328c0.124,0.132,0.231,0.277,0.359,0.405c0.132,0.13,0.279,0.242,0.415,0.368
	c0.132,0.12,0.256,0.248,0.388,0.37c0.142,0.13,0.286,0.26,0.43,0.389c0.099,1.62,0.152,3.241,0.12,4.863
	c-0.029,1.52,0.023,3.042,0.021,4.562c-0.002,1.464,0.017,2.93,0.014,4.394c-0.002,0.719-0.019,1.439-0.029,2.158
	c-0.011,0.692-0.051,1.385-0.069,2.077C5.991,26.334,4.878,26.309,3.766,26.297z M15.374,26.47c-0.723-0.043-1.448-0.052-2.17-0.111
	c-0.756-0.06-1.516-0.085-2.274-0.087c-0.443-0.003-0.885-0.005-1.327-0.005c-0.162,0-0.324,0-0.486,0.001
	c-0.144,0-0.288,0.009-0.432,0.012c-0.028-1.46,0.018-2.919,0.012-4.379c-0.004-1.516,0.012-3.035,0.014-4.553
	c0-0.712,0-1.421-0.01-2.131c-0.008-0.75,0.008-1.501-0.01-2.249c-0.017-0.754-0.002-1.507-0.002-2.261
	c0.002-0.828-0.01-1.655-0.052-2.482C8.702,8.07,8.703,7.903,8.669,7.74c0.244-0.369,0.489-0.736,0.717-1.115
	C9.5,6.435,9.627,6.253,9.753,6.07c0.044-0.063,0.086-0.126,0.129-0.19c0.059,0.061,0.116,0.124,0.174,0.188
	c0.283,0.316,0.572,0.626,0.871,0.929c0.33,0.332,0.683,0.64,0.981,0.999c0.138,0.165,0.268,0.333,0.407,0.495
	c0.011,0.013,0.024,0.025,0.036,0.038c0.07,0.826,0.126,1.652,0.156,2.479c0.027,0.809,0.033,1.617,0.049,2.426
	c0.031,1.542,0.066,3.081,0.052,4.625c-0.012,1.107-0.037,2.216-0.05,3.325c-0.006,0.529-0.021,1.059-0.039,1.586
	c-0.016,0.508-0.012,1.02-0.062,1.526c0.003-0.029,0.007-0.058,0.011-0.087c-0.018,0.177-0.011,0.334,0.088,0.502
	c0.099,0.171,0.266,0.299,0.456,0.351c0.198,0.054,0.413,0.027,0.588-0.076c0.116-0.068,0.208-0.159,0.275-0.275
	c0.068-0.118,0.103-0.246,0.103-0.384c0.039-0.32,0.014-0.652,0.021-0.973c0.01-0.361,0.023-0.719,0.025-1.078
	c0.006-0.762,0.016-1.524,0.027-2.286c0.023-1.534,0.064-3.07,0.076-4.603c0.008-1.154-0.025-2.305-0.021-3.459
	c0.004-0.611,0.01-1.222,0.004-1.832c-0.005-0.468-0.041-0.933-0.072-1.399c0.131-0.071,0.243-0.166,0.333-0.296
	c0.359-0.516,0.714-1.034,1.057-1.559c0.216-0.328,0.431-0.656,0.661-0.975c0.092,0.121,0.179,0.249,0.284,0.356
	c0.285,0.29,0.599,0.535,0.923,0.775c0.123,0.111,0.225,0.242,0.345,0.356c0.101,0.099,0.208,0.192,0.306,0.291
	c0.042,0.042,0.085,0.083,0.127,0.125c-0.012,0.054-0.034,0.106-0.033,0.164c0.006,0.828,0.081,1.65,0.109,2.478
	c0.027,0.754,0.031,1.509,0.033,2.263c0,0.789-0.008,1.58,0.017,2.37c0.027,0.77,0.047,1.542,0.06,2.313
	c0.027,1.538,0.035,3.079-0.004,4.617c-0.019,0.752-0.006,1.507-0.002,2.259c0.006,0.685,0.016,1.377-0.064,2.057
	c0.001-0.008,0.002-0.016,0.003-0.024c-0.003,0.031,0.003,0.06,0.002,0.09c-0.151-0.003-0.303-0.004-0.454-0.007
	C16.951,26.528,16.162,26.518,15.374,26.47z M26.871,26.52c-0.652,0.015-1.305,0.026-1.958,0.035
	c0.006-0.703,0.006-1.404,0.015-2.104c0.006-0.376,0.002-0.752,0.014-1.127c0.014-0.368,0.037-0.735,0.047-1.103
	c0.019-0.749,0.043-1.499,0.039-2.249c-0.004-0.745-0.006-1.489,0.006-2.234c0.014-0.909,0.027-1.817,0.029-2.728
	c0.002-0.421-0.351-0.772-0.772-0.772c-0.419,0-0.774,0.351-0.772,0.772c0.004,0.853,0.021,1.706,0.014,2.559
	c-0.006,0.768-0.012,1.536-0.006,2.306c0.004,0.743-0.019,1.485-0.035,2.228c-0.014,0.731-0.068,1.464-0.079,2.197
	c-0.004,0.365-0.019,0.731-0.025,1.097c-0.002,0.202-0.016,0.403-0.023,0.605c-0.007,0.186-0.009,0.37-0.024,0.556
	c-0.369,0-0.737,0.019-1.106,0.025c-0.735,0.01-1.472,0.014-2.209,0c-0.107-0.002-0.213-0.004-0.319-0.005
	c0.001-0.01,0.007-0.018,0.008-0.028c0.064-0.683,0.041-1.375,0.047-2.059c0.008-0.762,0.016-1.526,0.033-2.288
	c0.017-0.754,0.019-1.507,0.004-2.261c-0.014-0.772-0.056-1.542-0.07-2.313c-0.014-0.783-0.019-1.569-0.05-2.354
	c-0.031-0.793-0.01-1.588-0.01-2.383c0-0.737,0.004-1.476-0.008-2.214c-0.01-0.594-0.023-1.188-0.032-1.782
	c0.132-0.072,0.252-0.166,0.334-0.303c0.372-0.616,0.686-1.272,1.082-1.873c0.193-0.293,0.399-0.58,0.609-0.862
	c0.062,0.091,0.126,0.181,0.195,0.269c0.132,0.167,0.287,0.309,0.426,0.467c0.102,0.164,0.164,0.344,0.25,0.518
	c0.095,0.188,0.225,0.363,0.33,0.547c0.134,0.232,0.275,0.46,0.415,0.689c-0.001,0.694-0.005,1.39,0.014,2.085
	c0.014,0.423,0.345,0.778,0.778,0.778c0.425,0,0.776-0.355,0.778-0.778c0.001-0.477,0.01-0.953,0.018-1.43
	c0.031-0.035,0.065-0.063,0.094-0.103c0.378-0.528,0.708-1.084,1.028-1.648c0.171-0.303,0.331-0.615,0.506-0.918
	c0.058,0.08,0.115,0.161,0.167,0.247c0.097,0.163,0.178,0.333,0.283,0.49c0.12,0.184,0.271,0.349,0.417,0.514
	c0.112,0.13,0.213,0.27,0.324,0.399c0.095,0.114,0.206,0.215,0.314,0.318c0.068,0.065,0.131,0.135,0.198,0.201
	c0,0.001,0,0.001,0,0.002c-0.002,1.685,0.035,3.372,0.033,5.057c-0.002,0.795-0.016,1.59-0.021,2.387
	c-0.004,0.754,0.017,1.507,0.07,2.261c0.105,1.518,0.138,3.036,0.184,4.557c0.019,0.681,0.006,1.359-0.017,2.042
	c-0.019,0.56,0.005,1.12,0.017,1.678C27.924,26.505,27.397,26.508,26.871,26.52z"/>
</svg>