<?xml version="1.0" encoding="utf-8"?>
<!-- Generator: Adobe Illustrator 21.1.0, SVG Export Plug-In . SVG Version: 6.00 Build 0)  -->
<svg version="1.1" id="designs" xmlns="http://www.w3.org/2000/svg" xmlns:xlink="http://www.w3.org/1999/xlink" x="0px" y="0px"
	 width="32px" height="32px" viewBox="0 0 32 32" style="enable-background:new 0 0 32 32;" xml:space="preserve">
<style type="text/css">
	.sketchy_een{fill:#111918;}
</style>
<path class="sketchy_een" d="M26.196,29.71c0-0.015,0.009-0.028,0.007-0.044c-0.029-0.351-0.004-0.711-0.002-1.064
	c0.002-0.388,0.008-0.764-0.045-1.148c-0.01-0.086-0.027-0.168-0.049-0.251c-0.101-0.374-0.368-0.647-0.735-0.762
	c-0.174-0.054-0.366-0.045-0.552-0.049c0.007-0.421-0.008-0.842-0.026-1.263c-0.012-0.237-0.116-0.452-0.28-0.597
	c-0.122-0.314-0.43-0.541-0.782-0.541c-0.177,0.001-0.355,0.003-0.532,0.005c-0.017-0.463-0.033-0.927-0.038-1.39
	c-0.008-0.631-0.031-1.261-0.029-1.892c0.004-0.857,0.006-1.713-0.006-2.57c-0.012-0.791-0.043-1.58-0.062-2.368
	c-0.016-0.672-0.029-1.341-0.021-2.013c0.005-0.626,0.028-1.254,0.044-1.881c0.192,0.003,0.385,0.007,0.576,0.021
	c0.247,0.018,0.462-0.117,0.608-0.306c0.181-0.026,0.354-0.096,0.483-0.227c0.107-0.105,0.179-0.23,0.22-0.376
	c0.037-0.135,0.041-0.27,0.011-0.406c-0.02-0.268-0.01-0.542-0.023-0.808c-0.023-0.491-0.002-0.982-0.014-1.473
	c-0.001-0.026-0.013-0.049-0.016-0.075c0.01-0.05,0.031-0.097,0.031-0.149c0-0.435-0.359-0.781-0.789-0.787
	c-0.959-0.016-1.919-0.092-2.878-0.123c-0.76-0.025-1.52-0.07-2.28-0.084c-0.783-0.016-1.565-0.031-2.348-0.043
	c-0.048,0-0.096-0.005-0.144-0.006c0.022-0.075,0.037-0.151,0.028-0.223c-0.011-0.101-0.029-0.201-0.042-0.302
	c0.237-0.034,0.466-0.1,0.67-0.239c0.316-0.216,0.499-0.481,0.639-0.828c0.094-0.24,0.136-0.499,0.162-0.756
	c0.027-0.267,0.016-0.54,0.006-0.809c-0.01-0.298-0.029-0.61-0.123-0.896c-0.092-0.279-0.222-0.55-0.355-0.811
	c-0.047-0.094-0.105-0.183-0.166-0.269c-0.068-0.099-0.144-0.193-0.218-0.288c-0.055-0.07-0.118-0.127-0.186-0.181
	c0.01,0.008,0.02,0.015,0.03,0.023c-0.01-0.008-0.02-0.015-0.03-0.023c-0.043-0.035-0.088-0.068-0.135-0.104
	c0.041,0.032,0.082,0.064,0.123,0.095c-0.204-0.157-0.399-0.289-0.659-0.352c-0.189-0.049-0.39-0.072-0.585-0.078
	C15.66,1,15.637,1,15.614,1c-0.381,0-0.784,0.095-1.113,0.278c-0.277,0.154-0.466,0.407-0.647,0.659
	c-0.203,0.286-0.351,0.602-0.448,0.939c-0.107,0.37-0.158,0.752-0.121,1.136c0.031,0.316,0.109,0.598,0.224,0.891
	c0.144,0.366,0.29,0.735,0.598,0.996c0.2,0.17,0.427,0.288,0.674,0.37c0.003,0.018,0,0.034,0.003,0.053
	c0.037,0.217,0.076,0.432,0.117,0.649c-0.18-0.007-0.36-0.014-0.539-0.021c-0.744-0.029-1.487-0.035-2.231-0.049
	c-0.667-0.012-1.334-0.017-2.001-0.017S8.795,6.89,8.128,6.896C7.8,6.9,7.469,6.908,7.14,6.924c-0.163,0.008-0.308,0.069-0.438,0.15
	c-0.315,0.123-0.524,0.43-0.545,0.787C6.131,8.283,6.137,8.704,6.139,9.127c0.002,0.181,0.008,0.362,0.014,0.542
	c0.006,0.148-0.004,0.3,0.012,0.448c0.023,0.195,0.076,0.357,0.193,0.505c-0.056,0.113-0.094,0.236-0.094,0.372
	c0,0.46,0.394,0.881,0.865,0.865c0.409-0.014,0.817-0.033,1.226-0.053c0.058,1.675,0.143,3.352,0.231,5.027
	c0.043,0.838,0.062,1.674,0.076,2.514c0.012,0.842,0.039,1.686,0.047,2.529c0.004,0.464,0.014,0.928,0.037,1.393
	c0.013,0.281,0.029,0.562,0.039,0.843c-0.115,0.012-0.232,0.015-0.347,0.033c-0.456,0.074-0.82,0.415-0.949,0.85
	c-0.07,0.244-0.096,0.505-0.119,0.758c-0.02,0.213-0.038,0.428-0.048,0.643c-0.079,0.014-0.158,0.028-0.237,0.042
	c-0.053,0.003-0.104,0.003-0.156,0c-0.039-0.002-0.078-0.006-0.117-0.008c-0.271-0.016-0.493,0.113-0.694,0.273
	c-0.329,0.263-0.343,0.752-0.368,1.138c-0.037,0.618,0.025,1.241-0.014,1.859c-0.008,0.132,0.03,0.252,0.089,0.364
	c-0.003,0.026-0.016,0.051-0.016,0.078c0,0.226,0.092,0.448,0.253,0.608c0.148,0.146,0.392,0.271,0.606,0.251
	c0.811-0.08,1.619-0.183,2.436-0.177c0.758,0.004,1.514,0.039,2.274,0.037c0.401,0,0.801-0.002,1.202-0.006
	c0.415-0.002,0.83,0.037,1.243,0.043c0.781,0.01,1.563-0.004,2.344-0.008c1.582-0.01,3.163-0.01,4.745-0.047
	c0.824-0.021,1.649-0.023,2.473-0.023c0.378-0.002,0.756-0.002,1.132-0.012c0.265-0.006,0.53-0.018,0.797-0.012
	c0.057,0.002,0.115,0.004,0.173,0.008c0.427,0.023,0.783-0.372,0.783-0.781C26.266,29.913,26.24,29.808,26.196,29.71z M18.145,11.8
	c-0.006,0.622,0.043,1.249,0.071,1.87c0.033,0.725,0.053,1.452,0.07,2.179c0.014,0.696,0.037,1.391,0.062,2.085
	c0.012,0.364,0.027,0.727,0.037,1.091c0,0.001,0,0.003,0,0.004c-0.792-0.02-1.58-0.067-2.372-0.074
	c-0.55-0.004-1.101-0.033-1.651-0.049c-0.431-0.014-0.862-0.026-1.294-0.039c0.003-0.346,0.017-0.692,0.028-1.037
	c0.021-0.686,0.035-1.374,0.058-2.06c0.023-0.672,0.107-1.339,0.123-2.013c0.019-0.677,0.056-1.356,0.081-2.035
	c0.488,0.009,0.977,0.02,1.466,0.023c0.805,0.006,1.61,0.01,2.416,0.033C17.54,11.785,17.842,11.791,18.145,11.8z M11.68,11.719
	c-0.003,0.657,0.019,1.312,0.011,1.969c-0.008,0.688-0.068,1.372-0.123,2.056c-0.027,0.339-0.031,0.68-0.047,1.017
	c-0.018,0.345-0.031,0.69-0.039,1.035c-0.016,0.641-0.06,1.282-0.049,1.923c0.006,0.454,0.374,0.832,0.83,0.832
	c0.052,0,0.101-0.021,0.151-0.03c0.018,0.002,0.034,0.011,0.053,0.011c0.61,0.012,1.216,0.004,1.824-0.014
	c0.557-0.016,1.105,0,1.66,0.027c0.522,0.027,1.046,0.049,1.567,0.076c0.175,0.01,0.347,0.039,0.522,0.045
	c0.17,0.008,0.341,0.002,0.513,0.008c0.135,0.004,0.258-0.039,0.372-0.1c0.081,0.028,0.165,0.052,0.255,0.052
	c0.425,0,0.811-0.364,0.799-0.799c-0.037-1.329-0.158-2.652-0.212-3.979c-0.029-0.707-0.031-1.413-0.027-2.12
	c0.003-0.628,0.013-1.258,0.044-1.886c0.255,0.006,0.51,0.016,0.764,0.02c0.304,0.006,0.608,0.005,0.912,0.006
	c-0.003,0.778,0.026,1.554,0.041,2.333c0.018,0.838,0.029,1.676,0.045,2.514c0.033,1.66,0.043,3.321,0.01,4.983
	c-0.008,0.417-0.01,0.83,0.004,1.247c0.012,0.345,0.023,0.694,0.012,1.041c-0.143-0.005-0.285-0.006-0.427-0.01
	c-0.552-0.018-1.105-0.028-1.657-0.028c-0.312,0-0.625,0.003-0.937,0.01c-0.824,0.018-1.645,0.06-2.471,0.074
	c-0.822,0.012-1.643,0.021-2.465,0.029c-0.836,0.006-1.672,0.01-2.508,0.016c-0.241,0.002-0.482-0.002-0.722-0.006
	c-0.048-0.592-0.098-1.181-0.118-1.776c-0.014-0.409-0.004-0.82-0.012-1.228c-0.008-0.427-0.021-0.857-0.033-1.284
	c-0.025-0.84-0.027-1.68-0.068-2.52c-0.041-0.801-0.107-1.606-0.103-2.411c0.004-1.023,0.014-2.046-0.006-3.069
	c0-0.016-0.008-0.029-0.01-0.044C10.583,11.727,11.132,11.723,11.68,11.719z M9.008,26.392c0.005-0.223,0.009-0.447,0.024-0.67
	c1.226-0.104,2.46-0.075,3.688-0.075c1.672-0.002,3.346-0.039,5.016-0.082c0.988-0.025,1.974-0.035,2.96-0.025
	c0.477,0.004,0.953,0.039,1.428,0.068c0.376,0.023,0.753,0.039,1.129,0.049c0.006,0.223,0.003,0.446-0.01,0.669
	c-0.016,0-0.032,0.001-0.048,0.001c-0.32,0.002-0.641,0.012-0.963,0.016c-0.811,0.014-1.623,0.049-2.434,0.088
	c-1.727,0.078-3.457,0.076-5.187,0.105c-1.011,0.018-2.019,0.062-3.03,0.049c-0.514-0.006-1.027-0.018-1.541-0.031
	c-0.343-0.009-0.688-0.016-1.032-0.038C9.007,26.475,9.007,26.434,9.008,26.392z M15.101,3.097c0.062-0.124,0.134-0.243,0.213-0.357
	c0.017-0.019,0.034-0.037,0.052-0.054c0.004-0.002,0.008-0.005,0.012-0.007c0.066-0.02,0.133-0.036,0.201-0.05
	c0.064-0.003,0.128-0.002,0.192,0.001c0.021,0.005,0.042,0.01,0.063,0.016c0.022,0.012,0.043,0.025,0.064,0.038
	c0.013,0.014,0.026,0.027,0.039,0.041c0.118,0.174,0.214,0.358,0.302,0.55c0.04,0.108,0.072,0.217,0.093,0.331
	c0.037,0.346,0.049,0.699,0.026,1.045c-0.009,0.042-0.018,0.084-0.029,0.125c-0.152-0.118-0.341-0.189-0.543-0.184
	c-0.15,0.002-0.301,0.016-0.451,0.014c-0.009-0.002-0.017-0.005-0.026-0.008c-0.003-0.001-0.005-0.003-0.008-0.004
	c-0.01-0.01-0.02-0.02-0.029-0.03c-0.043-0.072-0.08-0.148-0.114-0.225c-0.061-0.15-0.116-0.302-0.151-0.46
	c-0.011-0.115-0.018-0.229-0.012-0.344C15.021,3.387,15.053,3.241,15.101,3.097z M9.083,8.502c0.698,0.008,1.399-0.012,2.099-0.014
	c0.756-0.002,1.514,0.014,2.272,0.016c0.76,0.004,1.52,0.008,2.28,0.055c0.787,0.049,1.575,0.045,2.364,0.064
	c0.77,0.018,1.541,0.047,2.311,0.086c0.67,0.033,1.337,0.066,2.007,0.099c0.282,0.013,0.563,0.032,0.844,0.046
	c0.017,0.309,0.036,0.618,0.045,0.927c0.004,0.179,0,0.358-0.001,0.537c-0.662,0.015-1.325-0.007-1.986-0.014
	c-0.834-0.008-1.668-0.016-2.502-0.035c-0.797-0.018-1.596-0.037-2.393-0.062c-0.828-0.025-1.656-0.021-2.481-0.045
	c-1.115-0.037-2.231-0.025-3.346-0.033c-0.715-0.004-1.43-0.012-2.145-0.012c-0.216,0-0.431,0.004-0.647,0.006
	c0-0.002,0-0.004,0-0.006C7.798,10.055,7.79,9.993,7.782,9.932c-0.028-0.284-0.01-0.576-0.008-0.861
	c0.002-0.173,0.013-0.345,0.025-0.517C8.226,8.525,8.653,8.498,9.083,8.502z M23.674,29.342c-0.822,0.021-1.643,0.021-2.465,0.027
	c-0.789,0.008-1.578,0.023-2.364,0.035c-0.789,0.01-1.575,0-2.364,0c-0.776,0-1.553-0.008-2.329-0.023
	c-0.815-0.014-1.631-0.057-2.448-0.078c-1.088-0.028-2.176-0.09-3.263-0.09c-0.353,0-0.705,0.013-1.058,0.029
	c0-0.364,0.001-0.729,0.031-1.09c0.166-0.021,0.332-0.051,0.495-0.077c0.024-0.004,0.047-0.016,0.071-0.023
	c0.21,0.068,0.44,0.085,0.663,0.086c0.809,0.004,1.623-0.023,2.434-0.027c1.707-0.01,3.412-0.074,5.121-0.09
	c1.682-0.014,3.365-0.07,5.047-0.072c0.703-0.002,1.403,0.014,2.105,0.025c0.16,0.003,0.333,0.021,0.5,0.012
	c0.029,0.011,0.05,0.033,0.081,0.041c0.22,0.058,0.448,0.106,0.677,0.121c0.013,0.2,0.018,0.4,0.021,0.598
	c0.001,0.185,0.006,0.371,0.007,0.556C24.315,29.323,23.995,29.335,23.674,29.342z"/>
</svg>