<?xml version="1.0" encoding="utf-8"?>
<!-- Generator: Adobe Illustrator 21.1.0, SVG Export Plug-In . SVG Version: 6.00 Build 0)  -->
<svg version="1.1" id="designs" xmlns="http://www.w3.org/2000/svg" xmlns:xlink="http://www.w3.org/1999/xlink" x="0px" y="0px"
	 width="32px" height="32px" viewBox="0 0 32 32" style="enable-background:new 0 0 32 32;" xml:space="preserve">
<style type="text/css">
	.sketchy_een{fill:#111918;}
</style>
<path class="sketchy_een" d="M29.824,7.748c-0.053-0.807-0.279-1.595-0.661-2.305c-0.211-0.393-0.507-0.731-0.786-1.076
	c-0.135-0.178-0.259-0.364-0.417-0.522c-0.129-0.131-0.267-0.255-0.406-0.376c-0.392-0.34-0.835-0.643-1.292-0.888
	c-0.307-0.164-0.631-0.309-0.969-0.402c-0.328-0.091-0.679-0.131-1.019-0.156C24.098,2.008,23.918,2,23.736,2
	c-0.38,0-0.764,0.036-1.121,0.131c-0.392,0.105-0.752,0.285-1.112,0.463c-0.297,0.144-0.582,0.313-0.865,0.481
	c-0.239,0.143-0.455,0.317-0.672,0.489c-0.188,0.14-0.382,0.272-0.569,0.415c-0.158,0.119-0.319,0.235-0.487,0.338
	c-0.516,0.319-0.94,0.746-1.355,1.183c-0.178,0.189-0.242,0.441-0.209,0.682c-0.044,0.258,0.009,0.531,0.212,0.71
	c0.291,0.255,0.574,0.516,0.849,0.787c0.168,0.164,0.315,0.346,0.477,0.514c0.224,0.229,0.441,0.466,0.644,0.715
	c0.11,0.158,0.206,0.313,0.377,0.422c0.303,0.192,0.675,0.131,0.954-0.065c0.165-0.114,0.313-0.25,0.467-0.378
	c0.036-0.025,0.073-0.048,0.112-0.069c0.031-0.009,0.062-0.017,0.094-0.024c0.043-0.002,0.086-0.003,0.129-0.001
	c0.134,0.025,0.265,0.059,0.392,0.105c0.044,0.022,0.087,0.045,0.128,0.072c0.019,0.017,0.038,0.035,0.056,0.053
	c0.001,0.006,0.003,0.012,0.004,0.018c0,0.013,0.001,0.027,0,0.04c-0.015,0.059-0.033,0.116-0.053,0.172
	C22.146,9.35,22.1,9.444,22.044,9.531c-0.059,0.07-0.121,0.137-0.19,0.199c-0.202,0.155-0.367,0.308-0.453,0.576
	c-0.103,0.318,0.006,0.647,0.19,0.908c0.245,0.346,0.53,0.665,0.789,1.001c-0.008-0.01-0.016-0.02-0.023-0.03
	c0.219,0.276,0.446,0.543,0.67,0.816c0.221,0.272,0.469,0.519,0.695,0.786c-0.559,0.44-1.086,0.916-1.619,1.388
	c-0.251,0.222-0.516,0.429-0.77,0.653c-0.257,0.229-0.505,0.473-0.762,0.702c-0.56,0.497-1.116,0.995-1.69,1.474
	c-0.554,0.462-1.128,0.903-1.696,1.348c0.015-0.012,0.03-0.023,0.046-0.034c-0.645,0.495-1.28,0.993-1.905,1.512
	c-0.56,0.465-1.116,0.932-1.662,1.413c-0.538,0.475-1.078,0.95-1.603,1.44c-0.556,0.524-1.078,1.082-1.607,1.634
	c-0.196,0.206-0.398,0.406-0.605,0.599c-0.216,0.198-0.449,0.378-0.677,0.562c-0.09,0.074-0.18,0.148-0.269,0.222
	c0.055-0.243,0.092-0.491,0.09-0.746c-0.002-0.204-0.045-0.412-0.087-0.611c-0.024-0.127-0.053-0.253-0.091-0.376
	c-0.077-0.239-0.186-0.473-0.291-0.7c-0.115-0.245-0.289-0.457-0.469-0.655c-0.172-0.188-0.364-0.35-0.59-0.475
	c-0.156-0.088-0.318-0.155-0.483-0.223c-0.101-0.105-0.233-0.194-0.364-0.212c-0.339-0.048-0.677-0.097-1.019-0.097
	c-0.065,0-0.129,0.002-0.194,0.005c-0.219,0.013-0.423,0.05-0.621,0.109C4.893,22.498,5,22.276,5.117,22.061
	c0.354-0.649,0.708-1.3,1.043-1.959c0.336-0.657,0.694-1.302,1.049-1.951c0.352-0.645,0.7-1.294,1.059-1.937
	c0.372-0.673,0.752-1.339,1.124-2.01c0.374-0.669,0.758-1.331,1.144-1.994c0.374-0.639,0.702-1.3,1.045-1.957
	c0.344-0.659,0.685-1.32,1.039-1.973c0.455-0.839,0.93-1.666,1.369-2.515c0.186-0.362,0.095-0.807-0.269-1.021
	c-0.113-0.066-0.245-0.099-0.378-0.099c-0.26,0-0.522,0.125-0.643,0.366c-0.346,0.693-0.663,1.401-1.013,2.089
	c-0.334,0.655-0.681,1.304-1.035,1.949c-0.354,0.647-0.685,1.304-1.039,1.951c-0.358,0.651-0.746,1.286-1.102,1.939
	c-0.73,1.343-1.474,2.683-2.22,4.018c-0.356,0.641-0.73,1.272-1.09,1.909c-0.36,0.637-0.687,1.292-1.035,1.935
	c-0.311,0.574-0.619,1.142-0.898,1.733c-0.235,0.503-0.489,1.003-0.685,1.523c-0.137,0.36-0.218,0.758-0.269,1.138
	c-0.032,0.233-0.067,0.469-0.087,0.704c-0.008,0.085-0.002,0.169-0.003,0.254c-0.038,0.355-0.044,0.713,0.012,1.071
	c0.049,0.326,0.14,0.627,0.277,0.928c0.103,0.224,0.263,0.416,0.411,0.607c0.081,0.105,0.164,0.2,0.259,0.291
	c0.133,0.129,0.273,0.239,0.421,0.348c0.113,0.086,0.247,0.141,0.383,0.19c0.089,0.12,0.203,0.223,0.358,0.267
	c0.41,0.117,0.843,0.16,1.268,0.136c0.423-0.026,0.861-0.115,1.25-0.287c0.295-0.129,0.576-0.293,0.857-0.447
	c0.291-0.158,0.584-0.317,0.859-0.501c0.564-0.382,1.078-0.841,1.609-1.266c0.277-0.222,0.556-0.437,0.807-0.685
	c0.261-0.257,0.514-0.522,0.77-0.783c0.89-0.912,1.834-1.767,2.798-2.602c0.467-0.406,0.93-0.819,1.411-1.209
	c0.48-0.388,0.956-0.781,1.441-1.162c0.613-0.463,1.217-0.935,1.819-1.412c0.546-0.431,1.062-0.89,1.585-1.347
	c0.269-0.237,0.542-0.469,0.813-0.704c0.253-0.22,0.495-0.455,0.744-0.683c0.235-0.216,0.481-0.421,0.72-0.633
	c0.231-0.204,0.46-0.406,0.698-0.601c0.325-0.248,0.656-0.49,0.985-0.733c0.004,0.001,0.007,0.005,0.011,0.006
	c0.124,0.034,0.252,0.024,0.375-0.006c0.107,0.054,0.222,0.09,0.343,0.09c0.222,0,0.39-0.089,0.554-0.23
	c0.21-0.178,0.408-0.368,0.605-0.562c0.196-0.194,0.414-0.368,0.613-0.56c0.317-0.305,0.641-0.617,0.922-0.96
	c0.271-0.33,0.516-0.69,0.736-1.058c0.091-0.152,0.188-0.305,0.269-0.461c0.127-0.241,0.226-0.501,0.309-0.76
	c0.057-0.18,0.113-0.362,0.156-0.546c0.065-0.269,0.087-0.544,0.115-0.819C29.83,8.636,29.856,8.187,29.824,7.748z M3.769,26.137
	c0.045-0.224,0.118-0.444,0.2-0.659c0.087-0.173,0.19-0.336,0.303-0.494c0.146-0.168,0.303-0.319,0.474-0.461
	c0.131-0.091,0.267-0.168,0.409-0.237c0.085-0.029,0.17-0.053,0.258-0.071c0.112-0.007,0.224-0.006,0.336,0.007
	c0.145,0.021,0.289,0.044,0.433,0.068c0.045,0.007,0.089,0.013,0.131,0.016c0.07,0.045,0.149,0.08,0.235,0.116
	c0.004,0.002,0.007,0.004,0.011,0.005c-0.05-0.022-0.101-0.042-0.15-0.063c0.127,0.058,0.249,0.128,0.366,0.205
	c0.055,0.056,0.108,0.113,0.158,0.172c0.079,0.113,0.145,0.226,0.204,0.35c0.079,0.203,0.14,0.404,0.18,0.619
	c0.015,0.167,0.019,0.329,0.005,0.495c-0.05,0.276-0.125,0.546-0.221,0.81c-0.084,0.175-0.183,0.34-0.296,0.498
	C6.73,27.6,6.643,27.674,6.554,27.746c-0.131,0.097-0.264,0.185-0.409,0.255c-0.215,0.084-0.433,0.154-0.66,0.193
	c-0.171,0.016-0.333,0.015-0.503-0.001c-0.138-0.026-0.273-0.061-0.404-0.107c-0.048-0.025-0.094-0.052-0.139-0.082
	c-0.139-0.117-0.265-0.244-0.382-0.383c-0.063-0.092-0.121-0.187-0.171-0.288c-0.06-0.169-0.099-0.347-0.131-0.524
	C3.735,26.584,3.745,26.361,3.769,26.137z M28.226,7.667c0.007,0.048,0.013,0.096,0.02,0.144c-0.003-0.02-0.006-0.041-0.009-0.061
	c0,0.002,0,0.004,0.001,0.006c-0.002-0.013-0.004-0.026-0.005-0.038c0.002,0.011,0.003,0.022,0.005,0.032
	C28.233,7.722,28.229,7.695,28.226,7.667c-0.003-0.024-0.007-0.048-0.01-0.071c0.005,0.034,0.009,0.067,0.014,0.101
	c-0.002-0.011-0.003-0.023-0.005-0.035c0-0.002-0.001-0.004-0.001-0.005c0,0,0,0.001,0,0.002c-0.001-0.007-0.002-0.014-0.003-0.021
	c-0.002-0.013-0.004-0.026-0.005-0.038c0,0.001,0,0.002,0,0.003c-0.003-0.02-0.006-0.039-0.008-0.059
	c0.003,0.017,0.005,0.035,0.008,0.052c-0.005-0.037-0.01-0.074-0.014-0.111C28.21,7.546,28.218,7.607,28.226,7.667z M20.579,7.741
	c-0.004-0.005-0.007-0.009-0.011-0.014c0.007,0.008,0.013,0.017,0.02,0.025C20.586,7.749,20.583,7.745,20.579,7.741z M28.239,8.541
	c-0.007,0.254-0.026,0.506-0.055,0.758c-0.054,0.343-0.145,0.692-0.27,1.016c-0.11,0.231-0.249,0.448-0.383,0.665
	c-0.133,0.215-0.275,0.425-0.426,0.63c-0.257,0.315-0.552,0.597-0.832,0.89c-0.204,0.216-0.431,0.402-0.647,0.603
	c-0.109,0.1-0.223,0.196-0.334,0.294c-0.242-0.324-0.48-0.65-0.743-0.958c-0.314-0.365-0.645-0.721-0.948-1.094
	c-0.155-0.206-0.309-0.415-0.445-0.634c0.001-0.001,0.002-0.002,0.002-0.003c0.089-0.111,0.178-0.226,0.259-0.342
	c0.077-0.115,0.123-0.249,0.168-0.378c0.053-0.148,0.111-0.291,0.141-0.443c0.053-0.293,0.047-0.526,0.004-0.819
	c-0.069-0.487-0.475-0.924-0.892-1.155c-0.396-0.222-0.851-0.299-1.302-0.303c-0.328-0.004-0.651,0.071-0.922,0.261
	c-0.043,0.03-0.085,0.061-0.127,0.093c-0.065-0.082-0.131-0.162-0.201-0.239c-0.121-0.135-0.253-0.261-0.376-0.394
	c-0.262-0.281-0.518-0.567-0.781-0.846c0.028-0.032,0.057-0.063,0.085-0.095c0.086-0.095,0.173-0.191,0.269-0.277
	c0.076-0.05,0.155-0.095,0.236-0.138c0.148-0.079,0.279-0.18,0.412-0.283c0.374-0.287,0.756-0.566,1.13-0.855
	c-0.053,0.042-0.105,0.081-0.156,0.121c0.51-0.391,1.097-0.695,1.688-0.95c0.157-0.058,0.317-0.103,0.481-0.133
	c0.41-0.043,0.812-0.044,1.222-0.002c0.248,0.046,0.491,0.119,0.727,0.207c0.254,0.121,0.503,0.272,0.729,0.44
	c0.1,0.08,0.199,0.16,0.3,0.239c0.137,0.108,0.262,0.227,0.387,0.348c0.087,0.082,0.174,0.162,0.253,0.253
	c0.182,0.243,0.369,0.481,0.558,0.72c0.199,0.282,0.364,0.586,0.505,0.9c0.122,0.314,0.213,0.653,0.265,0.985
	C28.257,7.928,28.249,8.236,28.239,8.541z M17.129,19.396c0.019-0.015,0.038-0.03,0.057-0.044c-0.016,0.012-0.032,0.025-0.047,0.037
	C17.136,19.391,17.132,19.394,17.129,19.396z"/>
</svg>