<?xml version="1.0" encoding="utf-8"?>
<!-- Generator: Adobe Illustrator 21.1.0, SVG Export Plug-In . SVG Version: 6.00 Build 0)  -->
<svg version="1.1" id="designs" xmlns="http://www.w3.org/2000/svg" xmlns:xlink="http://www.w3.org/1999/xlink" x="0px" y="0px"
	 width="32px" height="32px" viewBox="0 0 32 32" style="enable-background:new 0 0 32 32;" xml:space="preserve">
<style type="text/css">
	.sketchy_een{fill:#111918;}
</style>
<path class="sketchy_een" d="M14.961,3.792c-0.028,0.004-0.056,0.007-0.084,0.011c0.02-0.003,0.04-0.005,0.059-0.008
	C14.945,3.794,14.953,3.793,14.961,3.792z M29.997,15.937c-0.023,0.923-0.254,1.852-0.509,2.735
	c-0.252,0.875-0.523,1.769-0.935,2.582c-0.401,0.79-0.846,1.568-1.361,2.29c-0.526,0.734-1.154,1.409-1.796,2.042
	c-0.325,0.323-0.66,0.631-1.008,0.929c-0.374,0.319-0.763,0.635-1.181,0.896c-0.755,0.472-1.568,0.825-2.381,1.185
	c-0.472,0.211-0.941,0.426-1.425,0.604c-0.395,0.145-0.807,0.261-1.219,0.35c-0.484,0.103-0.968,0.19-1.461,0.242
	c-0.422,0.043-0.848,0.089-1.272,0.062c-0.497-0.029-0.987-0.089-1.471-0.201c-0.432-0.099-0.861-0.219-1.293-0.319
	c-0.478-0.11-0.929-0.255-1.38-0.447c-0.408-0.172-0.809-0.364-1.202-0.565c-0.067-0.034-0.112-0.09-0.164-0.139
	c-0.462,0.127-0.92,0.265-1.382,0.393c-0.573,0.157-1.152,0.3-1.729,0.443c-0.602,0.147-1.198,0.31-1.796,0.474
	c-0.635,0.176-1.283,0.306-1.926,0.455c-0.449,0.103-0.914-0.132-1.041-0.592c-0.024-0.087-0.022-0.177-0.017-0.267
	c-0.005-0.014-0.016-0.025-0.02-0.04c-0.064-0.234-0.019-0.447,0.087-0.658c0.565-1.144,1.115-2.296,1.651-3.455
	c0.12-0.259,0.238-0.515,0.372-0.763c0.137-0.252,0.252-0.509,0.374-0.768c0.171-0.361,0.359-0.712,0.542-1.067
	c-0.155-0.155-0.322-0.297-0.463-0.468c-0.256-0.308-0.515-0.645-0.722-0.991c-0.207-0.346-0.343-0.724-0.548-1.07
	c-0.219-0.37-0.37-0.765-0.528-1.165c-0.074-0.188-0.153-0.374-0.215-0.565c-0.06-0.182-0.093-0.372-0.13-0.561
	c-0.099-0.501-0.17-1.01-0.217-1.518c-0.041-0.418-0.054-0.838-0.066-1.256c-0.012-0.447-0.002-0.894,0.05-1.339
	c0.062-0.505,0.116-1.02,0.252-1.514c0.132-0.48,0.294-0.948,0.492-1.407c0.356-0.819,0.801-1.603,1.303-2.344
	c0.3-0.441,0.619-0.867,0.956-1.281c0.281-0.346,0.579-0.691,0.908-0.991C6.842,5.223,7.655,4.65,8.493,4.176
	c0.842-0.474,1.717-0.867,2.615-1.223c0.807-0.319,1.628-0.563,2.491-0.679c0.077-0.01,0.153-0.021,0.228-0.031
	c0.014-0.002,0.028-0.004,0.042-0.005c0.15-0.021,0.299-0.041,0.449-0.063c0.182-0.023,0.364-0.05,0.548-0.066
	c0.362-0.029,0.724-0.048,1.086-0.062c0.232-0.008,0.464-0.02,0.696-0.02c0.12,0,0.241,0.003,0.361,0.012
	c0.426,0.029,0.852,0.066,1.276,0.132c0.35,0.054,0.693,0.143,1.039,0.23c0.765,0.188,1.504,0.447,2.224,0.772
	c0.416,0.186,0.821,0.391,1.223,0.606c0.395,0.213,0.774,0.451,1.159,0.687c0.41,0.25,0.815,0.494,1.192,0.794
	c0.362,0.29,0.72,0.586,1.057,0.904c0.312,0.298,0.588,0.641,0.857,0.979c0.294,0.366,0.561,0.749,0.819,1.14
	c0.509,0.767,0.941,1.581,1.239,2.454c0.134,0.391,0.242,0.792,0.362,1.19s0.221,0.801,0.304,1.208
	c0.097,0.486,0.147,0.987,0.19,1.481C29.985,15.056,30.008,15.495,29.997,15.937z M28.245,13.858
	c-0.091-0.551-0.213-1.095-0.374-1.632c-0.157-0.526-0.31-1.046-0.509-1.559c-0.199-0.44-0.442-0.852-0.698-1.263
	c-0.246-0.398-0.508-0.791-0.788-1.167c-0.25-0.322-0.506-0.653-0.801-0.933c-0.311-0.296-0.636-0.571-0.97-0.84
	c-0.25-0.183-0.51-0.351-0.778-0.511c-0.281-0.168-0.556-0.354-0.842-0.517c-0.548-0.312-1.11-0.604-1.687-0.862
	c-0.482-0.196-0.97-0.386-1.477-0.511c-0.482-0.119-0.966-0.238-1.456-0.315c-0.487-0.044-0.974-0.083-1.465-0.057
	c-0.479,0.025-0.964,0.046-1.44,0.102c0.032-0.004,0.065-0.009,0.098-0.013c-0.041,0.005-0.081,0.011-0.122,0.016
	c-0.034,0.004-0.068,0.008-0.101,0.013c0.014-0.002,0.028-0.003,0.042-0.005c-0.065,0.009-0.13,0.017-0.195,0.026
	c0.037-0.005,0.074-0.01,0.111-0.014c0.006-0.001,0.011-0.002,0.017-0.002c-0.002,0-0.004,0.001-0.006,0.001
	c0.035-0.004,0.069-0.009,0.104-0.013c-0.041,0.006-0.083,0.011-0.124,0.017c-0.175,0.028-0.35,0.055-0.526,0.081
	c-0.072,0.021-0.147,0.033-0.222,0.035c-0.086,0.014-0.172,0.028-0.258,0.043c-0.329,0.056-0.65,0.139-0.97,0.23
	c-0.596,0.166-1.162,0.41-1.729,0.651c0.009-0.004,0.019-0.008,0.028-0.012c-0.627,0.277-1.233,0.608-1.823,0.954
	C8.759,6.107,8.265,6.483,7.777,6.851C7.268,7.275,6.836,7.778,6.418,8.29c-0.647,0.868-1.215,1.804-1.667,2.787
	c-0.141,0.336-0.279,0.676-0.367,1.027c-0.097,0.386-0.177,0.772-0.237,1.163c-0.116,1.045-0.109,2.111,0.018,3.154
	c0.056,0.378,0.104,0.768,0.216,1.132c0.096,0.314,0.208,0.626,0.328,0.933c0.07,0.147,0.147,0.289,0.218,0.436
	c0.086,0.177,0.163,0.357,0.239,0.538c-0.011-0.027-0.022-0.054-0.034-0.081c0.198,0.471,0.461,0.89,0.76,1.297
	c0.258,0.301,0.544,0.565,0.849,0.818c0.174,0.145,0.263,0.416,0.263,0.635c0,0.236-0.095,0.465-0.263,0.633
	c-0.016,0.016-0.039,0.023-0.056,0.038c-0.016,0.041-0.019,0.085-0.041,0.124c-0.217,0.383-0.406,0.782-0.6,1.177
	c-0.211,0.426-0.428,0.846-0.648,1.268c-0.232,0.443-0.439,0.898-0.664,1.345c-0.213,0.425-0.407,0.857-0.594,1.292
	c0.003-0.007,0.006-0.015,0.009-0.022c-0.005,0.011-0.009,0.022-0.014,0.033c-0.001,0.001-0.001,0.003-0.002,0.004h0
	c0.001-0.001,0.001-0.003,0.002-0.004c0.002-0.004,0.003-0.008,0.005-0.012c-0.002,0.005-0.004,0.01-0.007,0.016
	c0.156-0.032,0.313-0.06,0.468-0.099c0.6-0.151,1.194-0.323,1.796-0.47c0.579-0.141,1.161-0.273,1.732-0.436
	c0.565-0.161,1.125-0.35,1.701-0.472c0.066-0.014,0.133-0.021,0.199-0.021c0.185,0,0.361,0.059,0.503,0.165
	c0.16-0.001,0.314,0.029,0.469,0.102c0.349,0.167,0.71,0.314,1.065,0.468c0.224,0.09,0.453,0.172,0.687,0.229
	c0.267,0.064,0.534,0.12,0.799,0.186c0.511,0.132,1.013,0.288,1.534,0.38c0.293,0.034,0.589,0.059,0.883,0.05
	c0.325-0.011,0.646-0.037,0.967-0.072c0.837-0.129,1.649-0.33,2.436-0.645c0.617-0.272,1.234-0.541,1.843-0.83
	c0.568-0.269,1.1-0.579,1.611-0.943c1.077-0.854,2.079-1.828,2.936-2.904c0.309-0.429,0.6-0.875,0.855-1.338
	C26.863,20.92,27.11,20.471,27.32,20c0.237-0.602,0.424-1.219,0.607-1.839c0.177-0.596,0.313-1.201,0.405-1.814
	C28.414,15.52,28.349,14.683,28.245,13.858z M12.067,13.325c0.594-0.019,1.185-0.06,1.779-0.077
	c0.561-0.017,1.123-0.021,1.684-0.031c0.528-0.008,1.055-0.006,1.583-0.015c0.252-0.004,0.505,0,0.757-0.004
	c0.137-0.002,0.271-0.004,0.408-0.006c0.122,0,0.246,0.017,0.366,0.002c0.228-0.029,0.412-0.072,0.579-0.24
	c0.153-0.153,0.24-0.364,0.24-0.581c0-0.452-0.387-0.821-0.823-0.821c-0.071,0-0.143,0.01-0.216,0.031
	c-0.004,0.002-0.008,0.003-0.012,0.004c-0.204,0.013-0.409,0.01-0.613,0.01c-0.25,0-0.499,0.012-0.747,0.017
	c-0.532,0.008-1.061,0.035-1.593,0.05c-1.132,0.029-2.261,0.035-3.393,0.052c-0.439,0.006-0.805,0.362-0.805,0.805
	C11.262,12.948,11.628,13.337,12.067,13.325z M18.903,14.595c-0.002,0-0.005,0-0.007,0c-0.494,0.004-0.989,0.027-1.485,0.031
	c-0.54,0.002-1.08,0.012-1.622,0.041c-0.577,0.031-1.154,0.052-1.732,0.068c-0.643,0.017-1.289-0.012-1.93-0.023
	c-0.455-0.006-0.836,0.385-0.836,0.834c0,0.455,0.381,0.836,0.836,0.834c1.212-0.002,2.423-0.083,3.637-0.11
	c0.528-0.012,1.055-0.01,1.583-0.017c0.515-0.004,1.034-0.017,1.549,0.008c0.455,0.023,0.836-0.395,0.836-0.834
	C19.731,14.98,19.355,14.595,18.903,14.595z M18.568,17.758c-0.013,0-0.027,0-0.04,0c-0.114,0-0.226,0.002-0.34,0.033
	c-0.03,0.008-0.059,0.018-0.087,0.029c-0.853,0.007-1.707-0.009-2.559-0.015c-1.099-0.008-2.199-0.054-3.298-0.041
	c-0.465,0.004-0.856,0.385-0.856,0.854c0,0.459,0.391,0.867,0.856,0.856c0.557-0.014,1.111-0.045,1.667-0.045
	c0.544-0.002,1.086,0.01,1.63,0.012c0.501,0.002,1.001,0.021,1.502,0.035c0.259,0.01,0.519,0.006,0.778,0.004
	c0.094-0.001,0.187-0.002,0.281-0.002c0.027,0.011,0.056,0.021,0.085,0.029c0.128,0.035,0.252,0.031,0.381,0.031
	c0.486,0.004,0.892-0.405,0.892-0.89C19.46,18.166,19.055,17.756,18.568,17.758z"/>
</svg>