<?xml version="1.0" encoding="utf-8"?>
<!-- Generator: Adobe Illustrator 21.1.0, SVG Export Plug-In . SVG Version: 6.00 Build 0)  -->
<svg version="1.1" id="designs" xmlns="http://www.w3.org/2000/svg" xmlns:xlink="http://www.w3.org/1999/xlink" x="0px" y="0px"
	 width="32px" height="32px" viewBox="0 0 32 32" style="enable-background:new 0 0 32 32;" xml:space="preserve">
<style type="text/css">
	.sketchy_een{fill:#111918;}
</style>
<path class="sketchy_een" d="M20.439,27.571c-0.273,0-0.532-0.042-0.768-0.125c-0.622-0.222-1.085-0.676-1.272-1.248
	c-0.125-0.389-0.186-0.824-0.198-1.41L18.2,24.663c0,0-0.327,0.09-0.37,0.099c-0.576,0.123-1.205,0.183-1.923,0.183
	c-0.312,0-0.624-0.011-0.936-0.029c-0.497-0.028-1.009-0.089-1.52-0.183c-0.429-0.078-0.845-0.158-1.226-0.289
	c-0.912-0.313-1.756-0.806-2.442-1.427c-0.368-0.336-0.685-0.689-0.968-1.078c-0.291-0.397-0.532-0.831-0.738-1.326
	c-0.183-0.437-0.244-0.9-0.304-1.347c-0.056-0.422-0.075-0.822-0.059-1.223c0.019-0.476,0.39-0.849,0.845-0.849
	c0.11,0,0.223,0.026,0.336,0.077c0.214,0.003,0.797,0.021,0.797,0.021L9.7,16.796c0.019-0.855,0.042-1.627,0.13-2.413
	c0.044-0.416,0.115-0.96,0.262-1.492c0.072-0.26,0.162-0.513,0.269-0.76c0.08-0.189,0.156-0.366,0.258-0.513
	c0.315-0.454,0.739-0.856,1.261-1.195c0.473-0.308,0.925-0.536,1.38-0.698c1-0.356,1.921-0.553,2.817-0.602l0.154-0.008l0.045-0.141
	c-0.141-0.279-0.286-0.52-0.443-0.736c-0.314-0.377-0.666-0.722-1.082-1.061c-0.283-0.19-0.553-0.344-0.836-0.477
	c-0.646-0.249-1.371-0.434-2.224-0.57c-0.3-0.035-0.594-0.058-0.89-0.058c-0.12,0-0.24,0.004-0.361,0.012
	c-0.272,0.045-0.532,0.097-0.793,0.156C9.377,6.304,9.117,6.4,8.856,6.498C8.521,6.646,8.277,6.777,8.061,6.927
	C7.859,7.091,7.672,7.26,7.503,7.449C7.343,7.68,7.221,7.911,7.109,8.155C6.96,8.559,6.848,9.007,6.755,9.575L6.692,9.95
	c-0.057,0.341-0.114,0.682-0.164,1.023c-0.023,0.198-0.038,0.331-0.059,0.464l0.109,0.475c0.067,0.276,0.134,0.553,0.21,0.828
	c0.158,0.565,0.313,1.168,0.321,1.769c0.009,0.729-0.117,1.341-0.376,1.818c-0.161,0.294-0.381,0.555-0.654,0.776
	c-0.316,0.254-0.624,0.402-0.941,0.45c-0.175,0.028-0.352,0.054-0.529,0.061c-0.088,0.004-0.177,0.006-0.266,0.006
	c-0.95,0-1.719-0.22-2.287-0.655C1.7,16.693,1.39,16.438,1.204,16.06c-0.161-0.325-0.231-0.709-0.195-1.08
	c0.048-0.533,0.165-0.968,0.369-1.368c0.399-0.79,1.002-1.488,1.697-1.966c0.407-0.28,0.814-0.488,1.212-0.616
	c0.179-0.058,0.363-0.103,0.548-0.137l0.073-0.013l0.032-0.077c0,0,0.032-0.291,0.045-0.372c0.042-0.284,0.087-0.566,0.136-0.847
	C5.229,8.965,5.336,8.41,5.524,7.866C5.682,7.416,5.881,7.02,6.1,6.719C6.312,6.42,6.532,6.173,6.771,5.962
	c0.388-0.344,0.715-0.571,1.057-0.738c0.357-0.173,0.713-0.321,1.058-0.439c0.438-0.152,0.899-0.241,1.25-0.301
	c0.226-0.038,0.452-0.055,0.679-0.055c0.264,0,0.528,0.022,0.791,0.058c0.94,0.122,1.939,0.29,2.873,0.687
	c0.536,0.229,0.947,0.468,1.295,0.751c0.355,0.29,0.668,0.585,0.955,0.903c0.192,0.21,0.364,0.443,0.531,0.675
	c0.137,0.19,0.231,0.32,0.309,0.458c0.215,0.384,0.387,0.802,0.531,1.164l0.023,0.056l0.06,0.007c0.276,0.03,0.553,0.06,0.826,0.111
	c0.206,0.037,0.409,0.08,0.611,0.13l0.08,0.02l0.035-0.073c0.202-0.412,0.429-0.849,0.723-1.249l0.104-0.144
	c0.119-0.165,0.239-0.332,0.382-0.474c0.215-0.209,0.463-0.397,0.757-0.574c0.157-0.094,0.331-0.173,0.502-0.24
	c0.256-0.1,0.462-0.146,0.651-0.146c0.045,0,0.088,0.002,0.134,0.008c0.235,0.029,0.415,0.09,0.585,0.196l0.149,0.103
	c0.318,0.234,0.521,0.494,0.622,0.796c0.315,0.961-0.377,1.854-0.687,2.194c-0.22,0.241-0.407,0.414-0.605,0.562
	c-0.078,0.057-0.163,0.103-0.249,0.15l-0.164,0.09l0.099,0.124c0.468,0.246,0.836,0.474,1.157,0.717
	c0.332,0.252,0.76,0.593,1.128,0.993c0.315,0.343,0.596,0.711,0.877,1.081c0.061,0.077,0.41,0.494,0.41,0.494l0.069-0.139
	c0.212-0.421,0.427-0.748,0.672-1.029c0.292-0.333,0.558-0.63,0.862-0.889c0.36-0.309,0.749-0.624,1.163-0.838
	c0.227-0.117,0.404-0.17,0.61-0.182c0.002,0,0.003,0,0.005,0c0.216,0,0.413,0.093,0.62,0.276c0.142,0.124,0.226,0.338,0.296,0.551
	c0.028,0.082,0.05,0.167,0.073,0.25c0.091,0.37,0.171,0.726,0.23,1.085c0.043,0.272,0.083,0.513,0.088,0.752
	c0.006,0.197-0.013,0.394-0.032,0.588c-0.073,0.66-0.146,1.327-0.661,1.764c-0.06,0.05-0.122,0.097-0.187,0.14l-0.088,0.058
	l0.169,0.233c0.293,0.429,0.378,0.933,0.45,1.499c0.08,0.605,0.073,1.105-0.021,1.575c-0.046,0.231-0.103,0.458-0.16,0.686
	c-0.062,0.248-0.124,0.495-0.172,0.746c-0.019,0.103-0.071,0.197-0.164,0.296l-0.038,0.041l0.023,0.096
	c0.006,0.236-0.08,0.443-0.229,0.592c-0.151,0.151-0.352,0.234-0.566,0.234c-0.199,0-0.365-0.07-0.573-0.241l-0.284-0.232
	c-0.23-0.186-0.462-0.374-0.682-0.573c-0.277-0.252-0.527-0.52-0.762-0.82c-0.291-0.368-0.505-0.686-0.675-1.001l-0.064-0.119
	l-0.294,0.294l-0.319,0.331c-0.268,0.282-0.538,0.563-0.826,0.823c-0.32,0.287-0.648,0.57-0.983,0.839
	c-0.216,0.174-0.433,0.347-0.667,0.495l-0.523,0.33c-0.147,0.094-0.292,0.191-0.437,0.289c-0.214,0.145-0.429,0.29-0.651,0.42
	c-0.067,0.04-0.136,0.073-0.204,0.107l-0.272,0.142l0.123,0.095c0.215,0.166,0.428,0.337,0.629,0.517
	c0.311,0.281,0.518,0.539,0.652,0.812c0.113,0.231,0.179,0.464,0.196,0.694c0.018,0.216-0.002,0.408-0.057,0.556
	c-0.138,0.368-0.294,0.61-0.52,0.808c-0.206,0.18-0.474,0.323-0.796,0.425C21.032,27.524,20.732,27.571,20.439,27.571z
	 M19.864,24.604c-0.001,0.284,0.006,0.565,0.032,0.847c0.018,0.107,0.036,0.206,0.065,0.303l0.053,0.097
	c0.129,0.105,0.191,0.141,0.255,0.173l0.1,0.028c0.095,0.01,0.178,0.015,0.262,0.015c0.184-0.027,0.297-0.055,0.412-0.091
	l0.112-0.059l0.085-0.092l0.023-0.115l-0.03-0.109c-0.032-0.065-0.059-0.112-0.088-0.158c-0.225-0.254-0.474-0.454-0.71-0.639
	c-0.137-0.1-0.274-0.195-0.415-0.285l-0.154-0.099V24.604z M9.423,19.163c0.058,0.372,0.133,0.671,0.236,0.948
	c0.161,0.343,0.365,0.685,0.611,1.023c0.257,0.31,0.551,0.605,0.877,0.879c0.397,0.29,0.821,0.539,1.268,0.743
	c0.513,0.199,1.084,0.34,1.802,0.446c0.625,0.062,1.189,0.092,1.729,0.092c0.354,0,0.709-0.013,1.062-0.042
	c0.727-0.116,1.439-0.31,2.123-0.58c0.503-0.221,1.152-0.523,1.752-0.92l0.381-0.258c0.179-0.121,0.357-0.243,0.54-0.358
	l0.205-0.128c0.187-0.116,0.373-0.232,0.55-0.36c0.66-0.529,1.265-1.074,1.804-1.623c0.257-0.26,0.475-0.481,0.7-0.695l0.173-0.161
	c0.132-0.12,0.263-0.242,0.382-0.374c0.135-0.175,0.275-0.276,0.449-0.325c0.069-0.019,0.14-0.029,0.211-0.029
	c0.145,0,0.287,0.038,0.412,0.11c0.151,0.033,0.237,0.045,0.307,0.086c0.171,0.1,0.255,0.243,0.334,0.44
	c0.042,0.105,0.077,0.213,0.111,0.321l0.063,0.195c0.117,0.237,0.261,0.467,0.459,0.734c0.237,0.296,0.511,0.58,0.842,0.871
	l0.125,0.11l0.087-0.352c0.054-0.217,0.109-0.435,0.152-0.655c0.025-0.309,0.004-0.599-0.033-0.943
	c-0.03-0.206-0.077-0.47-0.165-0.725c-0.071-0.135-0.149-0.246-0.229-0.356c-0.107-0.128-0.219-0.241-0.339-0.348
	c-0.238-0.212-0.478-0.472-0.458-0.791c0.02-0.334,0.169-0.599,0.412-0.727c0.109-0.059,0.229-0.106,0.358-0.14
	c0.168-0.046,0.285-0.077,0.398-0.116l0.097-0.056l0.066-0.079c0.055-0.172,0.086-0.331,0.108-0.496
	c0.029-0.212,0.054-0.423,0.057-0.634c0.003-0.219-0.015-0.438-0.038-0.655l-0.079-0.501l-0.135,0.111
	c-0.434,0.356-0.832,0.758-1.183,1.194c-0.122,0.191-0.222,0.375-0.319,0.569c-0.111,0.285-0.204,0.566-0.289,0.853
	c-0.059,0.199-0.193,0.364-0.376,0.465l-0.082,0.106c-0.158,0.158-0.396,0.252-0.637,0.252c-0.235,0-0.44-0.087-0.577-0.247
	c-0.464-0.539-0.901-1.117-1.323-1.676l-0.14-0.185c-0.349-0.427-0.749-0.832-1.228-1.239c-0.229-0.173-0.457-0.335-0.702-0.475
	c-0.315-0.18-0.636-0.345-0.959-0.508c-0.519-0.262-1.04-0.514-1.572-0.745c-0.541-0.211-1.144-0.364-1.903-0.484
	c-0.507-0.061-0.973-0.09-1.428-0.09c-0.325,0-0.65,0.015-0.975,0.049c-0.703,0.114-1.367,0.29-1.978,0.526
	c-0.377,0.175-0.709,0.368-1.021,0.59c-0.187,0.153-0.356,0.31-0.511,0.487c-0.082,0.132-0.145,0.253-0.204,0.377
	c-0.161,0.429-0.275,0.872-0.344,1.324c-0.06,0.519-0.098,1.036-0.124,1.555c-0.015,0.29-0.025,0.581-0.029,0.872l-0.001,0.297
	c0,0.18,0,0.36-0.009,0.539l-0.005,0.1l0.271,0.013c0.463,0.02,0.925,0.031,1.387,0.042l0.9,0.025l1.373,0.049
	c0.962,0.036,1.924,0.072,2.888,0.083c0.41,0.004,0.743,0.337,0.743,0.742c0,0.352-0.297,0.746-0.694,0.746
	c-0.496-0.033-0.955-0.044-1.411-0.054c-0.271-0.006-0.541-0.012-0.811-0.023l-0.787-0.037c-0.44-0.022-0.879-0.044-1.32-0.055
	l-0.781-0.017c-1.175-0.026-2.349-0.052-3.524-0.053H9.405L9.423,19.163z M5.057,12.424c-0.158,0.033-0.314,0.077-0.467,0.131
	c-0.281,0.131-0.534,0.278-0.761,0.44c-0.243,0.203-0.465,0.429-0.686,0.694c-0.145,0.203-0.267,0.41-0.374,0.627
	c-0.064,0.177-0.108,0.347-0.14,0.521c-0.012,0.132-0.015,0.252-0.01,0.375l0.03,0.121c0.107,0.13,0.198,0.215,0.292,0.295
	c0.115,0.082,0.225,0.151,0.341,0.211c0.207,0.072,0.405,0.115,0.606,0.149c0.171,0.016,0.334,0.025,0.498,0.025
	c0.116,0,0.232-0.004,0.348-0.013c0.078-0.016,0.142-0.032,0.204-0.052l0.145-0.086c0.075-0.066,0.134-0.125,0.19-0.187
	c0.024-0.037,0.044-0.071,0.063-0.104l0.014,0.007L5.337,15.57c0.021-0.037,0.04-0.072,0.058-0.108
	c0.068-0.185,0.116-0.362,0.15-0.546c0.028-0.287,0.03-0.544,0.008-0.794c-0.054-0.313-0.13-0.614-0.207-0.913l-0.193-0.806
	L5.057,12.424z M22.691,7.988c-0.172,0.087-0.325,0.177-0.472,0.28c-0.121,0.101-0.225,0.201-0.323,0.312
	c-0.195,0.268-0.373,0.556-0.551,0.887l-0.106,0.198l0.218-0.053c0.168-0.04,0.332-0.09,0.494-0.15
	c0.125-0.06,0.234-0.123,0.341-0.196c0.178-0.155,0.328-0.318,0.471-0.488c0.087-0.12,0.161-0.236,0.227-0.36l0.018-0.069
	l0.023,0.005l-0.022-0.009l0.004-0.014l0.017,0.006l-0.016-0.01l0.033-0.126l-0.005-0.119l-0.079-0.091L22.927,7.97l-0.101-0.025
	L22.691,7.988z M14.933,15.249c-0.424,0-0.782-0.358-0.782-0.782c0-0.424,0.358-0.782,0.782-0.782c0.424,0,0.783,0.358,0.783,0.782
	C15.716,14.891,15.357,15.249,14.933,15.249z"/>
</svg>