<?xml version="1.0" encoding="utf-8"?>
<!-- Generator: Adobe Illustrator 21.1.0, SVG Export Plug-In . SVG Version: 6.00 Build 0)  -->
<svg version="1.1" id="designs" xmlns="http://www.w3.org/2000/svg" xmlns:xlink="http://www.w3.org/1999/xlink" x="0px" y="0px"
	 width="32px" height="32px" viewBox="0 0 32 32" style="enable-background:new 0 0 32 32;" xml:space="preserve">
<style type="text/css">
	.sketchy_een{fill:#111918;}
</style>
<path class="sketchy_een" d="M16.336,28.993c-0.581,0-1.205-0.039-1.854-0.118l-0.105-0.013c-0.454-0.054-0.909-0.108-1.357-0.2
	c-0.367-0.073-0.745-0.18-1.193-0.336c-0.527-0.182-1.087-0.38-1.614-0.623c-0.434-0.2-0.853-0.429-1.267-0.668
	c-0.952-0.546-1.67-1.09-2.259-1.71L6.59,25.222c-0.673-0.705-1.369-1.434-1.907-2.257c-0.32-0.493-0.572-0.964-0.768-1.442
	c-0.202-0.49-0.379-0.932-0.5-1.39c-0.117-0.447-0.204-0.932-0.284-1.574c-0.06-0.478-0.106-0.961-0.122-1.443
	c-0.035-1.036,0.031-2.055,0.199-3.028c0.215-1.247,0.483-2.222,0.844-3.069C4.42,10.163,4.9,9.297,5.519,8.374
	c0.693-1.03,1.315-1.799,1.955-2.419C8.28,5.173,9.082,4.566,9.926,4.1c0.921-0.509,1.922-0.845,2.976-1.001l0.025-0.003h0
	c0.423-0.056,0.787-0.085,1.146-0.089c0.287,0,0.507,0.013,0.726,0.026l0.19,0.01c0.638,0.034,1.273,0.082,1.91,0.13
	c0.265,0.023,0.44,0.094,0.586,0.239c0.031,0.032,0.062,0.069,0.088,0.107c0.628,0.054,1.262,0.08,1.858,0.243
	c0.166,0.045,0.327,0.106,0.486,0.167l1.045,0.375c0.73,0.26,1.335,0.533,1.852,0.838l0.196,0.115c0.204,0.118,0.407,0.237,0.6,0.37
	c0.237,0.165,0.467,0.343,0.696,0.522c0.858,0.666,1.563,1.308,2.152,1.961c0.424,0.469,0.717,0.846,0.953,1.222
	c0.247,0.393,0.465,0.802,0.674,1.216c0.263,0.526,0.444,0.965,0.568,1.383c0.131,0.445,0.219,0.924,0.285,1.554
	c0.095,0.884,0.082,1.797-0.04,2.795c-0.081,0.671-0.17,1.18-0.289,1.65c-0.114,0.452-0.264,0.901-0.419,1.341
	c-0.402,1.123-0.85,2.071-1.373,2.896c-1.056,1.669-2.448,3.183-4.134,4.499c-0.524,0.393-1.113,0.762-1.853,1.161
	c-0.774,0.417-1.479,0.7-2.158,0.863c-0.806,0.197-1.578,0.297-2.294,0.299H16.336z M14.327,4.65c-0.334,0-0.668,0.013-1.001,0.044
	c-0.672,0.107-1.332,0.291-1.969,0.547c-0.688,0.324-1.292,0.682-1.851,1.096C9.125,6.654,8.764,6.981,8.414,7.325
	C8.079,7.656,7.781,8.022,7.505,8.366c-0.913,1.234-1.553,2.29-2.015,3.326c-0.348,0.92-0.601,1.921-0.776,3.065
	c-0.129,1.142-0.125,2.298,0.013,3.538c0.054,0.399,0.11,0.785,0.214,1.15c0.111,0.395,0.254,0.812,0.439,1.274
	c0.134,0.303,0.278,0.593,0.446,0.878c0.163,0.277,0.349,0.541,0.536,0.804c0.348,0.429,0.722,0.825,1.099,1.223
	c0.359,0.38,0.75,0.78,1.179,1.129c0.744,0.531,1.561,0.998,2.434,1.39c0.529,0.208,1.067,0.393,1.604,0.55
	c0.472,0.138,0.936,0.215,1.329,0.272c0.755,0.093,1.422,0.138,2.043,0.138c0.399,0,0.797-0.019,1.191-0.061
	c0.332-0.048,0.716-0.111,1.086-0.214c0.36-0.099,0.712-0.222,1.06-0.361c0.849-0.388,1.624-0.838,2.308-1.342
	c1.14-0.935,2.065-1.847,2.832-2.79c0.632-0.854,1.173-1.793,1.611-2.793c0.212-0.534,0.405-1.074,0.574-1.619
	c0.17-0.555,0.297-1.123,0.389-1.736c0.113-0.967,0.124-1.859,0.035-2.73c-0.043-0.282-0.095-0.556-0.17-0.83
	c-0.068-0.252-0.161-0.497-0.259-0.738c-0.33-0.727-0.722-1.404-1.168-2.017c-0.654-0.794-1.413-1.533-2.326-2.264
	c-0.834-0.628-1.648-1.115-2.493-1.49c-0.273-0.105-1.277-0.479-1.277-0.479c-0.403-0.15-0.729-0.241-1.057-0.296
	c-0.249-0.027-0.491-0.045-0.734-0.063c-0.391-0.028-0.672-0.19-0.819-0.439l-0.309-0.069C15.804,4.713,15.06,4.65,14.327,4.65z
	 M15.28,24.968c-0.472-0.017-1.025-0.047-1.552-0.156c-0.418-0.088-0.805-0.236-1.213-0.395c-0.382-0.147-0.673-0.26-0.947-0.403
	c-0.198-0.101-0.386-0.223-0.571-0.344c-0.429-0.279-0.831-0.603-1.202-0.913c-0.31-0.257-0.668-0.57-0.975-0.947
	c-0.357-0.435-0.624-0.858-0.817-1.293c-0.366-0.822-0.61-1.776-0.769-3.004c-0.059-0.448-0.067-0.914-0.025-1.427
	c0.051-0.608,0.118-1.097,0.209-1.539c0.194-0.948,0.434-1.947,0.871-2.825c0.467-0.94,1.222-1.787,1.828-2.468
	c0.127-0.142,0.313-0.22,0.524-0.22c0.213,0,0.425,0.084,0.565,0.224c0.295,0.295,0.293,0.767-0.003,1.097
	c-0.301,0.334-0.593,0.672-0.878,1.018c-0.335,0.456-0.58,0.849-0.775,1.245c-0.265,0.732-0.46,1.548-0.598,2.505
	c-0.07,0.613-0.134,1.338-0.075,2.099c0.147,0.937,0.351,1.734,0.626,2.444c0.155,0.324,0.337,0.626,0.558,0.931
	c0.364,0.423,0.774,0.764,1.165,1.071c0.549,0.414,1.018,0.708,1.477,0.923c0.551,0.223,1.143,0.444,1.766,0.552
	c0.403,0.044,0.806,0.071,1.208,0.071c0.254,0,0.507-0.011,0.758-0.034c0.798-0.133,1.549-0.332,2.237-0.591
	c0.565-0.257,1.003-0.505,1.386-0.784c0.52-0.423,0.952-0.848,1.324-1.305c0.303-0.406,0.545-0.779,0.744-1.144
	c0.21-0.384,0.391-0.777,0.564-1.177c0.173-0.429,0.386-0.997,0.492-1.614c0.078-0.669,0.095-1.211,0.056-1.71
	c-0.068-0.397-0.179-0.785-0.35-1.234c-0.306-0.694-0.646-1.286-1.039-1.817c-0.316-0.393-0.742-0.896-1.256-1.326
	c-0.376-0.263-0.784-0.487-1.293-0.712c-0.337-0.138-0.668-0.272-1.009-0.366c-0.309-0.082-0.619-0.146-0.934-0.194
	c-0.383-0.041-0.764-0.071-1.144-0.071c-0.115,0-0.231,0.003-0.348-0.008c0,0-0.177,0.027-0.184,0.03
	c-0.082,0.018-0.15,0.026-0.216,0.026c-0.077,0-0.155-0.011-0.233-0.032L15.01,9.055c-0.185-0.111-0.332-0.302-0.389-0.518
	c-0.062-0.226-0.031-0.473,0.087-0.678c0.103-0.175,0.312-0.369,0.512-0.4c0.372-0.056,0.692-0.083,1.006-0.083
	c0.12,0,0.24,0.004,0.362,0.012c0.508,0.033,1.05,0.079,1.568,0.183c0.419,0.086,0.848,0.218,1.349,0.418
	c0.561,0.224,1.063,0.431,1.54,0.707c0.434,0.253,0.843,0.575,1.217,0.958c0.736,0.75,1.334,1.57,1.775,2.437
	c0.431,0.843,0.877,1.847,0.915,2.908c0.014,0.377,0.003,0.78-0.033,1.233c-0.045,0.581-0.105,1.061-0.251,1.519
	c-0.158,0.498-0.358,0.978-0.566,1.467c-0.164,0.391-0.343,0.773-0.546,1.145c-0.466,0.856-1.093,1.656-1.813,2.312
	c-0.417,0.379-0.833,0.695-1.233,0.94c-0.719,0.443-1.53,0.758-2.344,0.976c-0.438,0.117-1.019,0.262-1.614,0.336
	c-0.286,0.036-0.575,0.05-0.863,0.05C15.553,24.976,15.416,24.973,15.28,24.968z M12.286,18.155c-0.173,0-0.336-0.023-0.496-0.068
	c-0.189-0.054-0.368-0.118-0.547-0.203c-0.105-0.043-0.193-0.09-0.277-0.142c-0.169-0.128-0.299-0.224-0.412-0.342
	c-0.134-0.14-0.206-0.294-0.3-0.514c-0.092-0.219-0.127-0.467-0.107-0.735c0.02-0.276,0.069-0.543,0.135-0.735
	c0.062-0.188,0.132-0.401,0.238-0.557c0.195-0.293,0.381-0.496,0.623-0.679c0.176-0.133,0.364-0.223,0.609-0.325
	c0.15-0.084,0.276-0.12,0.42-0.122c0.135,0.002,0.258,0.036,0.374,0.103c0.086,0.051,0.159,0.116,0.218,0.193l0.206,0.133
	c0.155,0.072,0.275,0.127,0.374,0.202c0.292,0.218,0.519,0.39,0.658,0.629c0.104,0.184,0.185,0.393,0.244,0.637
	c0.112,0.473,0.012,1.082-0.26,1.587c-0.172,0.32-0.387,0.548-0.656,0.699c-0.121,0.064-0.298,0.13-0.438,0.162
	C12.669,18.13,12.471,18.155,12.286,18.155z M11.914,15.473c-0.072,0.093-0.1,0.14-0.126,0.188
	c-0.062,0.175-0.089,0.291-0.111,0.409l-0.004,0.136l0.11,0.213l0.168,0.109c0.136,0.051,0.225,0.077,0.318,0.099l0.268-0.031
	l0.137-0.11c0.089-0.192,0.116-0.28,0.138-0.371l0.005-0.172l-0.024-0.106l-0.184-0.229c-0.131-0.094-0.223-0.149-0.318-0.201
	l-0.207-0.117L11.914,15.473z M19.533,17.622c-0.364,0-0.735-0.091-1.073-0.261c-0.225-0.116-0.413-0.265-0.575-0.456
	c-0.178-0.211-0.422-0.525-0.486-0.821c-0.068-0.319-0.13-0.736-0.01-1.127c0.072-0.231,0.164-0.428,0.275-0.585
	c0.246-0.337,0.483-0.603,0.747-0.837c0.159-0.14,0.355-0.217,0.549-0.217l0.144-0.026c0.099-0.044,0.204-0.067,0.311-0.067
	c0.351,0,0.638,0.077,0.931,0.248c0.167,0.096,0.317,0.223,0.462,0.348c0.107,0.095,0.213,0.198,0.304,0.311
	c0.221,0.277,0.451,0.563,0.533,0.886c0.068,0.263,0.145,0.649,0.025,0.96c-0.086,0.225-0.133,0.351-0.199,0.461
	c-0.242,0.389-0.527,0.692-0.825,0.874C20.314,17.515,19.93,17.622,19.533,17.622z M19.569,16.066l0.137-0.031
	c0.165-0.105,0.223-0.157,0.281-0.218l0.183-0.289l-0.144-0.241c-0.132-0.157-0.241-0.269-0.358-0.372l-0.189-0.118l-0.244-0.036
	l-0.12,0.093c-0.07,0.068-0.128,0.131-0.184,0.196c-0.052,0.072-0.079,0.115-0.105,0.16l-0.037,0.106l0.001,0.123l0.033,0.132
	c0.055,0.117,0.084,0.165,0.115,0.212l0.124,0.135l0.109,0.073c0.096,0.034,0.17,0.055,0.246,0.073h0.01L19.569,16.066z"/>
</svg>