<?xml version="1.0" encoding="utf-8"?>
<!-- Generator: Adobe Illustrator 21.1.0, SVG Export Plug-In . SVG Version: 6.00 Build 0)  -->
<svg version="1.1" id="designs" xmlns="http://www.w3.org/2000/svg" xmlns:xlink="http://www.w3.org/1999/xlink" x="0px" y="0px"
	 width="32px" height="32px" viewBox="0 0 32 32" style="enable-background:new 0 0 32 32;" xml:space="preserve">
<style type="text/css">
	.sketchy_een{fill:#111918;}
</style>
<path class="sketchy_een" d="M16.531,29c-0.185-0.011-0.377-0.051-0.587-0.126c-0.148-0.052-0.334-0.125-0.465-0.218
	c-0.378-0.26-0.629-0.524-0.766-0.806c-0.131-0.272-0.231-0.548-0.315-0.87c-0.05-0.197-0.107-0.39-0.177-0.58
	c-0.038-0.078-0.077-0.15-0.12-0.219l-0.094-0.093c-0.1-0.063-0.195-0.113-0.294-0.159c-0.353-0.132-0.715-0.229-1.077-0.291
	c-0.197-0.021-0.391-0.033-0.585-0.047c-0.182-0.012-0.365-0.025-0.547-0.043c-0.296-0.028-0.588-0.057-0.855-0.144
	c-0.168-0.054-0.334-0.114-0.5-0.173c-0.22-0.079-0.39-0.133-0.56-0.188c-0.324-0.103-0.658-0.21-0.967-0.358
	c-0.383-0.182-0.77-0.372-1.141-0.574c-0.475-0.257-0.892-0.57-1.273-0.87c-0.498-0.394-0.935-0.924-1.264-1.534
	c-0.524-0.975-0.878-1.792-1.114-2.572c-0.148-0.491-0.277-0.936-0.355-1.406c-0.084-0.509-0.157-1.023-0.205-1.538
	c-0.077-0.836-0.075-1.734,0.008-2.825c0.092-1.222,0.304-2.447,0.509-3.631c0.111-0.641,0.222-1.282,0.316-1.925l0.068-0.627
	C4.198,6.95,4.249,6.759,4.417,6.591c0.159-0.157,0.368-0.244,0.589-0.244C5.227,6.249,5.368,6.2,5.509,6.2
	c0.212,0,0.42,0.087,0.572,0.238c0.161,0.161,0.209,0.34,0.236,0.575l0.126,1.025l0.083-0.116C6.735,7.46,6.95,7.068,7.182,6.725
	C7.725,5.921,8.285,5.22,8.895,4.584c0.319-0.329,0.698-0.636,1.128-0.909c0.48-0.305,0.957-0.609,1.489-0.672
	c0.005,0,0.01,0,0.016,0c0.378,0,0.67,0.163,0.812,0.404c0.128,0.22,0.159,0.499,0.091,0.828l0.26-0.021
	c0.1-0.041,0.199-0.083,0.302-0.117c0.414-0.137,0.836-0.212,1.195-0.267c0.895-0.136,1.674-0.202,2.382-0.202
	c0.126,0,0.252,0.002,0.377,0.007c0.427,0.016,0.85,0.062,1.276,0.112c0.537,0.066,0.974,0.157,1.372,0.286
	c0.562,0.181,0.982,0.342,1.364,0.523l0.063,0.029l0.101-0.022l0.026-0.205c0.027-0.195,0.218-0.402,0.392-0.504
	c0.13-0.076,0.298-0.122,0.448-0.122c0.075,0,0.145,0.011,0.209,0.034c0.183,0.066,0.261,0.115,0.414,0.236
	c0.044,0.032,0.084,0.066,0.121,0.102l0.13,0.123c0.118,0.106,0.241,0.208,0.365,0.311l0.099,0.081
	c0.193,0.159,0.388,0.319,0.578,0.481c0.476,0.406,0.916,0.896,1.384,1.541c0.334,0.463,0.681,0.962,0.921,1.512
	c0.145,0.337,0.281,0.676,0.4,1.026l0.021,0.061l0.065-0.005c0.097-0.063,0.163-0.106,0.235-0.139
	c0.187-0.085,0.308-0.126,0.527-0.142c0.01,0,0.021,0,0.03,0c0.146,0,0.243,0.018,0.334,0.037c0.435,0.092,0.759,0.578,0.821,0.994
	c0.064,0.453,0.1,0.91,0.12,1.366c0.038,0.822,0.033,1.673-0.014,2.603l-0.007,0.128c-0.021,0.402-0.042,0.805-0.087,1.205
	c-0.057,0.508-0.136,1.014-0.216,1.521c-0.077,0.486-0.148,0.91-0.259,1.327c-0.123,0.459-0.271,0.912-0.433,1.361
	c-0.31,0.848-0.716,1.706-1.24,2.623c-0.242,0.422-0.485,0.843-0.757,1.247c-0.386,0.57-0.925,1.28-1.675,1.71
	c-0.415,0.239-0.885,0.442-1.4,0.604c-0.456,0.144-0.927,0.229-1.37,0.303c-0.07,0.011-0.135,0.011-0.201,0.012
	c-0.427,0.124-0.737,0.198-1.031,0.236c-0.288,0.039-0.577,0.052-0.866,0.065c-0.151,0.007-0.302,0.014-0.454,0.024
	c-0.068,0.141-0.086,0.244-0.106,0.347c-0.041,0.223-0.081,0.446-0.159,0.658c-0.135,0.38-0.291,0.777-0.569,1.084
	c-0.345,0.381-0.802,0.592-1.287,0.592L16.531,29z M5.369,10.085c-0.082,0.454-0.163,0.908-0.231,1.365
	c-0.131,1.012-0.205,1.834-0.235,2.587c-0.03,0.766,0.004,1.54,0.104,2.366c0.079,0.509,0.168,1.084,0.33,1.619
	c0.149,0.491,0.31,0.974,0.501,1.45c0.283,0.631,0.604,1.294,1.032,1.883c0.224,0.258,0.471,0.467,0.683,0.639
	c0.287,0.204,0.597,0.414,0.94,0.58l0.951,0.464c0.196,0.071,0.39,0.134,0.583,0.197c0.161,0.052,0.323,0.105,0.482,0.161
	c0.299,0.103,0.638,0.22,0.992,0.283c0.176,0.017,0.347,0.03,0.519,0.043c0.216,0.017,0.432,0.033,0.648,0.057
	c0.552,0.06,1.04,0.169,1.492,0.331c0.273,0.098,0.588,0.224,0.859,0.418c0.297,0.211,0.516,0.443,0.654,0.691
	c0.101,0.176,0.182,0.358,0.255,0.546c0.083,0.214,0.142,0.435,0.2,0.656c0.046,0.175,0.092,0.35,0.151,0.522
	c0.023,0.045,0.044,0.081,0.067,0.117l0.169,0.125l0.037,0.01l0.079-0.014c0.034-0.057,0.064-0.116,0.093-0.176
	c0.084-0.238,0.148-0.497,0.201-0.818c0.089-0.532,0.165-0.981,0.526-1.26c0.213-0.166,0.401-0.284,0.629-0.317
	c0.153-0.023,0.274-0.041,0.395-0.051c0.163-0.016,0.323-0.022,0.485-0.026c0.294-0.003,0.588-0.01,0.882-0.038
	c0.092-0.015,0.179-0.039,0.267-0.063l0.159-0.041c-0.122-0.332-0.254-0.604-0.362-0.882c-0.151-0.393-0.242-0.811-0.323-1.18
	c-0.164-0.758-0.333-1.541-0.611-2.276c-0.046-0.098-0.093-0.189-0.147-0.279c-0.062-0.068-0.12-0.123-0.179-0.176
	c-0.089-0.06-0.174-0.112-0.26-0.16c-0.114-0.038-0.219-0.065-0.327-0.086c-0.113-0.006-0.219-0.008-0.324-0.008
	c-0.259,0-0.517,0.012-0.775,0.024c-0.204,0.009-0.409,0.019-0.614,0.023l-0.112,0.001c-0.863,0-1.592-0.179-2.165-0.532
	c-0.307-0.189-0.635-0.521-0.878-0.888c-0.22-0.339-0.355-0.642-0.415-0.924c-0.029-0.147-0.055-0.296-0.077-0.446
	c-0.05-0.347-0.088-0.694-0.127-1.042l-0.05-0.441c-0.013-0.059-0.02-0.114-0.021-0.17c-0.07-0.412-0.165-0.773-0.289-1.108
	c-0.085-0.175-0.176-0.338-0.282-0.497c-0.045-0.05-0.086-0.094-0.131-0.136c-0.152-0.105-0.305-0.188-0.466-0.265
	c-0.516-0.193-1.006-0.322-1.504-0.398l-0.286-0.042c-0.431-0.062-0.878-0.126-1.287-0.29c-0.925-0.371-1.962-0.843-2.572-1.758
	c-0.078-0.117-0.145-0.242-0.212-0.367L5.404,9.96L5.369,10.085z M20.024,14.916c-0.059,0.013-0.115,0.028-0.172,0.046
	c-0.111,0.093-0.186,0.175-0.259,0.262c-0.127,0.182-0.231,0.364-0.325,0.559c-0.204,0.547-0.36,1.142-0.48,1.825
	c0.345,0.157,0.613,0.286,0.852,0.451c0.17,0.118,0.36,0.26,0.489,0.42c0.16,0.193,0.31,0.376,0.4,0.586l0.063,0.144
	c0.038,0.088,0.077,0.176,0.111,0.263c0.248,0.652,0.409,1.342,0.521,1.871l0.09,0.439c0.039,0.194,0.077,0.387,0.122,0.579
	c0.066,0.284,0.152,0.557,0.257,0.828c0.07,0.147,0.146,0.283,0.234,0.416c0.114,0.127,0.167,0.211,0.218,0.324l0.211-0.015
	c0.123-0.033,0.245-0.067,0.366-0.112c0.226-0.106,0.439-0.223,0.64-0.364c0.23-0.198,0.433-0.402,0.624-0.629
	c0.669-0.911,1.267-1.955,1.779-3.107c0.298-0.735,0.521-1.404,0.679-2.045c0.145-0.583,0.231-1.19,0.315-1.776l0.04-0.279
	c0.106-0.871,0.15-1.73,0.193-2.682c0.025-0.573,0.042-1.148,0.025-1.721c-0.627,0.494-1.099,1.1-1.557,1.686
	c-0.18,0.231-0.36,0.462-0.545,0.689l-0.081,0.1c-0.178,0.219-0.357,0.438-0.553,0.641c-0.41,0.42-0.857,0.707-1.369,0.878
	c-0.409,0.135-0.773,0.201-1.11,0.201c-0.276,0-0.538-0.046-0.78-0.137l-0.254-0.099c-0.233-0.094-0.466-0.186-0.712-0.24h-0.006
	H20.024z M10.378,5.321C9.939,5.692,9.518,6.139,9.05,6.729c-0.242,0.336-0.454,0.63-0.633,0.946
	c-0.172,0.3-0.321,0.606-0.462,0.923C7.808,8.969,7.667,9.337,7.537,9.713c-0.03,0.088-0.078,0.163-0.126,0.231
	c0.36,0.307,0.735,0.487,1.056,0.632c0.373,0.135,0.692,0.222,1.007,0.275l0.175,0.02c0.284,0.033,0.569,0.066,0.851,0.115
	c0.327,0.059,0.645,0.139,0.97,0.244c0.42,0.135,0.858,0.289,1.205,0.552l0.093,0.07c0.126,0.094,0.257,0.191,0.355,0.312
	c0.119,0.146,0.238,0.292,0.336,0.455c0.075,0.122,0.149,0.245,0.21,0.376c0.173,0.355,0.302,0.708,0.383,1.05
	c0.04,0.169,0.076,0.336,0.106,0.507c0.023,0.13,0.041,0.234,0.046,0.338l0.11,0.935c0.046,0.322,0.1,0.663,0.209,0.986
	c0.054,0.106,0.109,0.201,0.172,0.294c0.095,0.11,0.19,0.207,0.293,0.299c0.047,0.029,0.088,0.052,0.129,0.074
	c0.181,0.065,0.359,0.108,0.542,0.145c0.122,0.01,0.237,0.014,0.352,0.014c0.3,0,0.599-0.026,0.899-0.053l0.103-0.009
	c0.092-0.332,0.151-0.62,0.221-0.905c0.079-0.334,0.172-0.67,0.28-0.998c-0.517-0.503-0.821-1.04-0.913-1.617
	c-0.058-0.362-0.036-0.718-0.015-1.062c0.026-0.412,0.056-0.879,0.02-1.338c-0.033-0.204-0.075-0.399-0.138-0.592
	c-0.032-0.063-0.063-0.117-0.097-0.169c-0.074-0.081-0.146-0.15-0.221-0.216c-0.193-0.134-0.386-0.245-0.595-0.342
	c-0.231-0.091-0.465-0.175-0.707-0.228c-0.265-0.057-0.533-0.099-0.802-0.137l-0.133-0.016C13.673,9.927,13.429,9.9,13.2,9.834
	c-0.328-0.095-0.584-0.191-0.806-0.303c-0.238-0.121-0.466-0.251-0.682-0.408c-0.399-0.291-0.835-0.657-1.055-1.173
	c-0.131-0.311-0.257-0.653-0.288-1.053c-0.016-0.207,0.006-0.404,0.032-0.609c0.04-0.301,0.082-0.603,0.145-0.901l0.027-0.126
	l-0.085-0.018L10.378,5.321z M18.355,11.191c0.04,0.248,0.085,0.574,0.085,0.901c-0.001,0.252-0.021,0.503-0.041,0.755
	c-0.024,0.298-0.047,0.595-0.039,0.893l0.048,0.183l0.073-0.016c0.194-0.203,0.363-0.367,0.552-0.448l0.126-0.057
	c0.12-0.055,0.242-0.111,0.368-0.134c0.197-0.035,0.386-0.063,0.578-0.063c0.144,0,0.277,0.016,0.407,0.05
	c0.283,0.073,0.558,0.191,0.824,0.304c0.146,0.055,0.28,0.1,0.421,0.136l0.147,0.005l0.104-0.002
	c0.201-0.042,0.393-0.101,0.579-0.171c0.108-0.055,0.207-0.113,0.303-0.179c0.312-0.267,0.581-0.576,0.826-0.871
	c0.225-0.267,0.443-0.54,0.66-0.817c0.274-0.352,0.547-0.704,0.84-1.042c-0.07-0.264-0.13-0.452-0.191-0.638
	c-0.096-0.3-0.193-0.6-0.304-0.897c-0.16-0.362-0.324-0.676-0.503-0.961c-0.197-0.319-0.413-0.625-0.633-0.927
	c-0.198-0.239-0.409-0.461-0.629-0.674c-0.167,0.546-0.295,1.086-0.467,1.635c-0.225,0.712-0.586,1.36-1.018,1.823
	c-0.529,0.567-1.272,0.952-2.088,1.084c-0.286,0.046-0.587,0.068-0.92,0.068h-0.06L18.355,11.191z M16.385,5.22
	c-0.661,0.012-1.246,0.05-1.788,0.114c-0.288,0.045-0.576,0.091-0.853,0.174c-0.306,0.091-0.601,0.204-0.897,0.322l-0.651,0.286
	c-0.048,0.021-0.094,0.034-0.141,0.048l-0.032,0.009L11.971,6.22c-0.019,0.178-0.033,0.356-0.024,0.536
	c0.026,0.118,0.056,0.224,0.093,0.329c0.055,0.108,0.113,0.206,0.176,0.301c0.077,0.086,0.155,0.159,0.238,0.229
	c0.222,0.157,0.449,0.287,0.688,0.402C13.413,8.113,13.691,8.182,14,8.23l0.171,0.019c0.544,0.059,1.106,0.121,1.626,0.296
	c0.3,0.1,0.639,0.213,0.935,0.378c0.138,0.079,0.229,0.131,0.315,0.194c0.161,0.111,0.33,0.232,0.476,0.369l0.088,0.013
	c0.067,0,0.134,0.003,0.207,0.013l0.131,0.018c0.187,0.019,0.375,0.028,0.563,0.028c0.186,0,0.374-0.009,0.56-0.025
	c0.189-0.032,0.369-0.074,0.547-0.136c0.148-0.071,0.283-0.146,0.415-0.233c0.11-0.095,0.207-0.192,0.299-0.298
	c0.174-0.252,0.316-0.503,0.437-0.771c0.164-0.427,0.291-0.901,0.402-1.497c-0.245-0.204-0.479-0.328-0.709-0.45
	c-0.234-0.126-0.452-0.233-0.674-0.332c-0.645-0.249-1.199-0.403-1.746-0.49c-0.41-0.051-0.948-0.11-1.492-0.11L16.385,5.22z"/>
</svg>