<?xml version="1.0" encoding="utf-8"?>
<!-- Generator: Adobe Illustrator 21.1.0, SVG Export Plug-In . SVG Version: 6.00 Build 0)  -->
<svg version="1.1" id="designs" xmlns="http://www.w3.org/2000/svg" xmlns:xlink="http://www.w3.org/1999/xlink" x="0px" y="0px"
	 width="32px" height="32px" viewBox="0 0 32 32" style="enable-background:new 0 0 32 32;" xml:space="preserve">
<style type="text/css">
	.sketchy_een{fill:#111918;}
</style>
<path class="sketchy_een" d="M24.295,25.49c0-0.003,0.002-0.006,0.002-0.01c0-0.256-0.019-0.511-0.021-0.767
	c-0.002-0.295,0.002-0.59,0.01-0.883c0.017-0.675,0-1.349,0.002-2.022c0-1.478,0-2.958,0.008-4.437
	c0.006-0.732-0.021-1.463-0.042-2.193c-0.019-0.769,0.01-1.538-0.004-2.305c-0.013-0.748-0.048-1.497-0.106-2.245
	c-0.058-0.767-0.058-1.536-0.065-2.305c-0.002-0.403-0.004-0.806-0.006-1.208c0-0.052-0.021-0.099-0.031-0.149
	c0.137-0.144,0.227-0.333,0.227-0.56c0-0.461-0.384-0.842-0.842-0.844c-0.148,0-0.293-0.002-0.44-0.004
	c-0.071-0.042-0.146-0.08-0.213-0.127c-0.047-0.043-0.088-0.087-0.13-0.134c-0.178-0.249-0.346-0.505-0.481-0.778
	c-0.061-0.169-0.105-0.338-0.136-0.515c-0.029-0.315-0.039-0.63-0.046-0.946c-0.004-0.256-0.131-0.478-0.316-0.629
	c-0.128-0.227-0.36-0.395-0.631-0.384c-0.665,0.029-1.328,0.006-1.995,0.004c-0.676-0.002-1.355-0.002-2.033-0.011
	c-0.37-0.006-0.74-0.019-1.112-0.025c-0.378-0.004-0.754,0-1.131-0.006C14.496,2.002,14.232,2,13.969,2
	c-0.437,0-0.874,0.006-1.312,0.013c-0.407,0.008-0.811,0.006-1.218,0.004c-0.279-0.002-0.561-0.002-0.842-0.002
	c-0.146,0.001-0.276,0.055-0.392,0.129c-0.003,0-0.005-0.001-0.007-0.001c-0.212,0-0.418,0.085-0.57,0.235
	c-0.098,0.1-0.168,0.22-0.206,0.357c-0.039,0.143-0.039,0.285,0,0.428c0.006,0.044,0.012,0.088,0.018,0.132
	c0.02,0.231,0.042,0.463,0.026,0.696C9.44,4.111,9.408,4.23,9.368,4.348C9.254,4.577,9.105,4.788,8.953,4.993
	C8.842,5.13,8.714,5.252,8.595,5.382C8.497,5.381,8.398,5.379,8.3,5.379c-0.438,0.002-0.8,0.362-0.8,0.8
	c0,0.257,0.139,0.486,0.338,0.635C7.826,6.865,7.806,6.912,7.803,6.966C7.767,7.77,7.78,8.575,7.78,9.381
	c0.002,0.723,0.002,1.446-0.004,2.168c-0.008,0.779-0.025,1.557-0.027,2.338c-0.002,0.798,0.023,1.596,0.027,2.394
	c0.006,0.767,0.006,1.532,0.06,2.299c0.054,0.757,0.069,1.519,0.069,2.28c-0.002,0.707-0.002,1.415-0.008,2.122
	C7.89,23.638,7.9,24.296,7.886,24.955c-0.004,0.152-0.006,0.305-0.013,0.457c-0.003,0.045,0.017,0.085,0.023,0.128
	c-0.063,0.11-0.109,0.23-0.109,0.365c0,0.344,0.251,0.642,0.578,0.725c0.063,0.153,0.159,0.292,0.314,0.368
	c0.183,0.088,0.362,0.179,0.528,0.291c0.018,0.018,0.035,0.035,0.052,0.053c0.061,0.098,0.118,0.199,0.169,0.302
	c0.062,0.184,0.099,0.374,0.129,0.565c0.031,0.275,0.044,0.547,0.035,0.824c-0.015,0.436,0.376,0.798,0.798,0.798
	c0.043,0,0.083-0.019,0.125-0.026c0.048,0.011,0.093,0.03,0.144,0.033c0.761,0.048,1.53,0.027,2.293,0.008
	c0.755-0.021,1.515,0.002,2.272,0.006c0.781,0.004,1.561,0.011,2.34,0.023c0.376,0.004,0.75,0.012,1.125,0.015
	c0.368,0.004,0.738,0.037,1.106,0.05c0.208,0.008,0.414,0.023,0.622,0.029c0.11,0.006,0.222,0.002,0.333,0
	c0.092-0.002,0.185-0.004,0.279-0.004c0.318,0.006,0.632,0.021,0.95,0.033c0.42,0.017,0.771-0.364,0.771-0.771
	c0-0.095-0.023-0.187-0.057-0.274c0.164-0.154,0.269-0.369,0.284-0.611c0.015-0.292,0.013-0.584,0.039-0.874
	c0.02-0.113,0.049-0.223,0.086-0.333c0.018-0.033,0.037-0.065,0.057-0.097c0.088-0.103,0.186-0.197,0.282-0.293
	c0.099,0.003,0.199,0.006,0.298,0.009c0.412,0.014,0.757-0.354,0.757-0.755C24.5,25.81,24.422,25.63,24.295,25.49z M21.53,25.22
	c-0.694-0.023-1.384-0.056-2.079-0.06c-1.515-0.011-3.03-0.01-4.544-0.015c-0.722-0.003-1.443-0.008-2.164-0.008
	c-0.33,0-0.66,0.001-0.99,0.004c-0.509,0.006-1.018,0.023-1.526,0.017c-0.262-0.004-0.526-0.004-0.789-0.007
	c-0.007-0.472,0.006-0.944,0.006-1.416c0-0.145-0.001-0.289-0.002-0.434c0.347-0.019,0.697-0.035,1.042-0.075
	c0.374-0.044,0.744-0.099,1.117-0.152c0.191-0.024,0.383-0.049,0.573-0.083c0.175-0.031,0.349-0.079,0.522-0.123
	c0.33-0.081,0.649-0.197,0.975-0.287c0.368-0.104,0.736-0.2,1.087-0.351c0.33-0.143,0.642-0.304,0.944-0.497
	c0.353-0.227,0.686-0.486,0.987-0.779c0.249-0.243,0.47-0.511,0.701-0.769c0.528-0.595,0.954-1.262,1.297-1.981
	c0.116-0.243,0.225-0.491,0.33-0.74c0.089-0.21,0.143-0.441,0.206-0.659c0.125-0.441,0.241-0.885,0.37-1.326
	c0.127-0.428,0.249-0.854,0.387-1.278c0.136-0.416,0.27-0.831,0.424-1.241c0.153-0.318,0.36-0.612,0.573-0.894
	c0.156-0.191,0.325-0.364,0.514-0.523c0.226-0.165,0.462-0.306,0.715-0.427c0.123-0.043,0.249-0.074,0.377-0.097
	c0.034-0.003,0.068-0.004,0.102-0.005c0.017,0.287,0.039,0.574,0.049,0.861c0.025,0.755,0.069,1.511,0.075,2.266
	c0.008,0.746,0.033,1.492,0.042,2.238c0.037,2.82,0.012,5.639-0.037,8.457c-0.002,0.118-0.006,0.235-0.012,0.352
	c-0.072,0.016-0.14,0.036-0.207,0.07C22.241,25.245,21.885,25.233,21.53,25.22z M11.579,21.565
	c-0.307,0.038-0.615,0.077-0.923,0.096c-0.407,0.023-0.813,0.032-1.222,0.048c0-0.013,0-0.025,0-0.038
	c0-0.077-0.002-0.154-0.003-0.23c0.354-0.034,0.707-0.057,1.059-0.107c0.152-0.019,0.303-0.083,0.445-0.137
	c0.22-0.085,0.439-0.177,0.651-0.281c0.702-0.345,1.336-0.829,1.885-1.38c0.243-0.245,0.464-0.516,0.676-0.788
	c0.287-0.368,0.555-0.732,0.773-1.147c0.172-0.331,0.333-0.667,0.505-0.996c0.181-0.349,0.362-0.698,0.53-1.052
	c0.27-0.568,0.501-1.152,0.773-1.719c0.268-0.557,0.575-1.079,0.93-1.584c0.26-0.322,0.537-0.621,0.849-0.899
	c0.333-0.297,0.67-0.589,1.014-0.87c0.279-0.206,0.562-0.388,0.876-0.54c0.65-0.249,1.326-0.448,2.012-0.566
	c0.061-0.005,0.123-0.008,0.185-0.012c0.004,0.071,0.005,0.143,0.009,0.214c-0.212,0.009-0.425,0.024-0.629,0.076
	c-0.164,0.04-0.32,0.12-0.474,0.189c-0.135,0.062-0.27,0.125-0.399,0.197c-0.299,0.164-0.572,0.36-0.838,0.573
	c-0.245,0.192-0.446,0.439-0.638,0.685c-0.164,0.212-0.324,0.422-0.466,0.649c-0.187,0.293-0.308,0.625-0.432,0.95
	c-0.183,0.476-0.347,0.966-0.49,1.457c-0.066,0.222-0.118,0.447-0.177,0.671c-0.066,0.241-0.143,0.478-0.214,0.719
	c-0.138,0.464-0.238,0.937-0.413,1.389c-0.287,0.643-0.639,1.254-1.06,1.819c-0.17,0.214-0.351,0.422-0.524,0.635
	c-0.2,0.245-0.414,0.468-0.653,0.673c-0.347,0.251-0.714,0.461-1.105,0.637c-0.384,0.144-0.786,0.237-1.179,0.352
	C12.472,21.373,12.032,21.496,11.579,21.565z M21.438,7.075c0.316,0.03,0.635,0.044,0.95,0.079c0.036,0.006,0.073,0.01,0.109,0.016
	c0.005,0.234,0.022,0.467,0.031,0.7c-0.263,0.027-0.521,0.071-0.777,0.136c-0.185,0.048-0.37,0.094-0.555,0.141
	c-0.382,0.094-0.75,0.22-1.116,0.353c-0.418,0.15-0.794,0.356-1.154,0.613c-0.343,0.241-0.661,0.518-0.975,0.794
	c-0.303,0.266-0.603,0.534-0.89,0.815c-0.316,0.312-0.576,0.684-0.831,1.048c-0.436,0.619-0.777,1.31-1.093,1.995
	c-0.322,0.701-0.646,1.397-1.025,2.07c-0.183,0.324-0.349,0.657-0.524,0.985c-0.179,0.336-0.39,0.641-0.617,0.942
	c-0.36,0.457-0.773,0.858-1.222,1.224c-0.372,0.272-0.765,0.498-1.183,0.686c-0.121,0.045-0.241,0.086-0.365,0.113
	c-0.261,0.026-0.525,0.042-0.786,0.054c-0.002-0.138-0.002-0.276-0.005-0.415c-0.008-0.391-0.04-0.781-0.058-1.172
	c-0.019-0.38-0.029-0.761-0.037-1.143c-0.017-0.794-0.012-1.588-0.015-2.382c-0.004-0.771-0.004-1.54,0.012-2.311
	c0.033-1.509-0.012-3.022,0.058-4.531c0.013-0.307,0.033-0.615,0.05-0.921c0-0.003-0.002-0.006-0.002-0.009
	c1.274-0.029,2.547-0.057,3.821-0.076c0.445-0.006,0.892-0.006,1.339-0.004c0.351,0,0.701,0,1.054-0.004
	c0.806-0.008,1.609,0.006,2.415,0.029c0.748,0.023,1.499,0.037,2.247,0.085C20.675,7.01,21.056,7.041,21.438,7.075z M12.834,3.464
	c0.532-0.023,1.066-0.021,1.6-0.021c0.17,0.002,0.339,0.002,0.509,0c0.744-0.004,1.484,0.012,2.226,0.033
	c0.669,0.017,1.336,0.023,2.004,0.035c0.274,0.006,0.549,0.004,0.825,0.004c0.12,0,0.24,0.003,0.36,0.003
	c0.02,0.273,0.046,0.544,0.096,0.814c0.075,0.404,0.222,0.797,0.42,1.158c-0.021-0.001-0.043-0.002-0.064-0.003
	c-0.399-0.025-0.798-0.035-1.195-0.044c-0.786-0.019-1.571-0.056-2.357-0.071c-0.266-0.005-0.531-0.007-0.797-0.007
	c-0.516,0-1.032,0.007-1.548,0.011c-0.364,0.002-0.727,0.002-1.089,0.002c-0.759,0-1.519-0.002-2.276,0.017
	c-0.332,0.009-0.662,0.001-0.993-0.001c0.073-0.103,0.15-0.204,0.201-0.32c0.216-0.494,0.298-1.022,0.289-1.553
	C11.642,3.504,12.239,3.49,12.834,3.464z M20.209,28.475c-0.374,0.014-0.75-0.012-1.124-0.027c-0.378-0.015-0.755-0.025-1.133-0.025
	c-0.781-0.002-1.559-0.006-2.34-0.025c-0.738-0.017-1.476-0.048-2.214-0.056c-0.436-0.004-0.871,0.002-1.305-0.017
	c-0.319-0.014-0.636-0.041-0.954-0.065c-0.03-0.309-0.073-0.616-0.148-0.911c-0.064-0.258-0.202-0.51-0.355-0.745
	c0.076-0.002,0.151-0.005,0.227-0.007c0.451-0.008,0.902-0.004,1.353,0c0.293,0.004,0.584,0.006,0.877,0.004
	c1.528-0.004,3.057-0.033,4.585-0.035c1.035,0,2.074-0.027,3.105,0.05c0.244,0.019,0.487,0.03,0.731,0.047
	c-0.056,0.167-0.101,0.338-0.133,0.507c-0.069,0.38-0.112,0.786-0.073,1.174c0.004,0.043,0.019,0.08,0.026,0.121
	c-0.086,0-0.173,0.003-0.258,0.003C20.787,28.465,20.496,28.465,20.209,28.475z M19.646,11.266c-0.008,0.01-0.014,0.02-0.021,0.03
	c-0.005,0.006-0.01,0.012-0.015,0.019C19.621,11.298,19.634,11.282,19.646,11.266z"/>
</svg>