<?xml version="1.0" encoding="utf-8"?>
<!-- Generator: Adobe Illustrator 21.1.0, SVG Export Plug-In . SVG Version: 6.00 Build 0)  -->
<svg version="1.1" id="designs" xmlns="http://www.w3.org/2000/svg" xmlns:xlink="http://www.w3.org/1999/xlink" x="0px" y="0px"
	 width="32px" height="32px" viewBox="0 0 32 32" style="enable-background:new 0 0 32 32;" xml:space="preserve">
<style type="text/css">
	.sketchy_een{fill:#111918;}
</style>
<path class="sketchy_een" d="M22.317,15.196c-0.006-0.013-0.011-0.026-0.017-0.04c-0.009-0.022-0.018-0.044-0.028-0.066
	C22.287,15.126,22.302,15.161,22.317,15.196z M6.145,26.865L6.145,26.865c0.01-0.001,0.019-0.002,0.029-0.004
	C6.164,26.863,6.154,26.864,6.145,26.865z M6.099,26.872c0.015-0.002,0.03-0.004,0.045-0.006h0
	C6.13,26.868,6.114,26.87,6.099,26.872z M30.949,8.835c-0.083,0.292-0.267,0.586-0.502,0.78c-0.143,0.117-0.287,0.231-0.433,0.344
	c0.003-0.003,0.007-0.005,0.01-0.008c-0.075,0.06-0.138,0.128-0.211,0.19c-0.186,0.154-0.355,0.247-0.586,0.324
	c-0.312,0.104-0.642,0.158-0.96,0.043c-0.241-0.085-0.46-0.202-0.663-0.355c-0.064-0.049-0.12-0.104-0.182-0.155
	c-0.027,0.022-0.047,0.048-0.076,0.069c-0.448,0.32-0.906,0.624-1.349,0.949c-0.37,0.297-0.725,0.61-1.095,0.907
	c-0.409,0.324-0.829,0.638-1.222,0.981c-0.158,0.138-0.31,0.283-0.472,0.418c-0.195,0.162-0.395,0.32-0.588,0.484
	c-0.178,0.148-0.355,0.298-0.533,0.448c-0.072,0.06-0.142,0.124-0.212,0.188c0.033,0.044,0.071,0.084,0.103,0.129
	c0.135,0.185,0.232,0.381,0.322,0.587c0.165,0.398,0.303,0.811,0.353,1.239c0.028,0.25,0.004,0.501-0.047,0.748
	c-0.067,0.318-0.219,0.579-0.424,0.827c-0.225,0.274-0.612,0.44-0.952,0.521c-0.022,0.005-0.045,0.005-0.067,0.01
	c0.035,0.394,0.027,0.802,0.002,1.196c-0.028,0.458-0.026,0.92-0.111,1.375c-0.049,0.262-0.15,0.525-0.312,0.738
	c-0.146,0.193-0.308,0.369-0.484,0.537c-0.227,0.217-0.48,0.404-0.75,0.566c-0.164,0.099-0.34,0.199-0.529,0.237
	c-0.081,0.017-0.162,0.027-0.244,0.039c0.104,0.104,0.203,0.213,0.286,0.337c0.239,0.354,0.421,0.865,0.377,1.299
	c-0.041,0.422-0.113,0.882-0.377,1.23c-0.113,0.15-0.221,0.292-0.367,0.409c-0.152,0.121-0.306,0.243-0.468,0.354
	c-0.093,0.063-0.19,0.119-0.292,0.166c-0.15,0.069-0.328,0.15-0.496,0.174c-0.237,0.034-0.44,0.043-0.675,0.028
	c-0.239-0.016-0.478-0.034-0.717-0.071c-0.267-0.042-0.521-0.16-0.756-0.292c-0.278-0.158-0.578-0.409-0.742-0.693
	c-0.146-0.257-0.237-0.535-0.28-0.825c-0.03-0.2-0.065-0.401-0.039-0.601c0.026-0.197,0.047-0.389,0.099-0.58
	c0.077-0.281,0.176-0.553,0.324-0.806c0.015-0.026,0.036-0.048,0.052-0.074c-0.143-0.001-0.286-0.003-0.427-0.003
	c-0.152,0-0.302,0.002-0.452-0.002c-0.602-0.01-1.2-0.057-1.801-0.099c-0.249-0.018-0.5-0.028-0.75-0.04
	c-0.316-0.014-0.632-0.002-0.948-0.029c-0.31-0.028-0.616-0.034-0.928-0.032c-0.373,0.002-0.744-0.022-1.116-0.034
	c-0.125-0.003-0.25-0.011-0.374-0.016c0.144,0.231,0.276,0.479,0.348,0.741c0.093,0.333,0.091,0.638,0.039,0.973
	c-0.03,0.186-0.069,0.374-0.138,0.549c-0.117,0.292-0.243,0.5-0.454,0.737c-0.197,0.225-0.411,0.446-0.681,0.584
	c-0.176,0.089-0.363,0.172-0.555,0.228c-0.095,0.029-0.188,0.046-0.283,0.061h0c-0.174,0.024-0.33,0.046-0.504,0.032
	c-0.174-0.014-0.349-0.036-0.523-0.062c-0.302-0.045-0.616-0.146-0.875-0.312c-0.312-0.203-0.638-0.466-0.798-0.812
	c-0.126-0.268-0.211-0.531-0.274-0.819c-0.077-0.359-0.105-0.72-0.026-1.08c0.059-0.271,0.168-0.545,0.324-0.772
	c0.072-0.104,0.144-0.21,0.221-0.311c-0.014-0.008-0.029-0.012-0.043-0.02c-0.276-0.164-0.559-0.359-0.798-0.573
	c-0.462-0.409-0.719-0.985-0.748-1.599c-0.008-0.182-0.004-0.365-0.012-0.549c-0.008-0.186-0.016-0.371,0.004-0.559
	c0.057-0.543,0.008-1.082-0.018-1.626c-0.002-0.033,0.014-0.062,0.017-0.094c-0.121-0.07-0.237-0.149-0.355-0.254
	C1.429,17.18,1.159,16.773,1.09,16.36c-0.045-0.267-0.075-0.533-0.087-0.804c-0.012-0.271,0.016-0.527,0.061-0.793
	c0.043-0.253,0.136-0.492,0.253-0.721c0.146-0.289,0.371-0.577,0.646-0.75c0.438-0.276,0.987-0.276,1.489-0.308
	c0.174-0.012,0.349-0.015,0.524-0.015c0.146,0,0.292,0.002,0.438,0.003c0.377,0.002,0.754,0.004,1.131,0.018
	c0.312,0.012,0.622,0.044,0.934,0.058c0.324,0.012,0.648,0.006,0.971,0.02c0.413,0.016,0.825,0.043,1.238,0.053
	c0.819,0.022,1.639,0.049,2.458,0.077c0.869,0.028,1.735,0.055,2.604,0.057c0.73,0.002,1.461,0.002,2.192,0.022
	c0.357,0.012,0.715,0.01,1.07,0.006c0.276-0.002,0.553-0.004,0.829,0c0.472,0.008,0.94,0.051,1.412,0.071
	c0.355,0.016,0.713,0.063,1.066,0.115c0.08,0.012,0.164,0.036,0.247,0.054c0.05-0.054,0.099-0.11,0.165-0.149
	c0.002-0.001,0.004-0.002,0.006-0.004c0.157-0.13,0.309-0.267,0.466-0.399c0.231-0.194,0.464-0.383,0.693-0.579
	c0.195-0.17,0.381-0.35,0.576-0.519c0.227-0.2,0.462-0.389,0.699-0.579c0.513-0.409,1.033-0.812,1.542-1.226
	c0.525-0.43,1.077-0.828,1.625-1.229c-0.087-0.116-0.18-0.228-0.261-0.349c-0.158-0.233-0.314-0.501-0.375-0.778
	c-0.075-0.351-0.103-0.721-0.012-1.07c0.036-0.138,0.089-0.282,0.176-0.395c0.053-0.069,0.108-0.135,0.163-0.203
	c0.156-0.222,0.299-0.455,0.465-0.672c0.075-0.128,0.178-0.231,0.308-0.308c0.134-0.077,0.278-0.117,0.434-0.117
	c0.026,0,0.051,0.001,0.077,0.004c0.022-0.016,0.045-0.031,0.069-0.045c0.126-0.075,0.248-0.101,0.376-0.101
	c0.073,0,0.148,0.009,0.227,0.021c0.083,0.012,0.164,0.031,0.241,0.063c0.227,0.093,0.312,0.142,0.503,0.294
	c0.731,0.574,1.305,1.309,1.83,2.069C30.878,7.715,31.107,8.27,30.949,8.835z M2.898,16.262l0.001,0.001h0
	c-0.002-0.001-0.004-0.003-0.006-0.004C2.895,16.259,2.897,16.261,2.898,16.262z M2.934,16.289
	c-0.011-0.008-0.022-0.017-0.033-0.025h0C2.911,16.272,2.923,16.281,2.934,16.289z M6.526,24.267
	c-0.014-0.061-0.032-0.121-0.052-0.18c-0.082-0.163-0.18-0.317-0.286-0.467c-0.003-0.003-0.006-0.006-0.008-0.009
	c-0.035-0.02-0.07-0.039-0.106-0.058C5.998,23.53,5.92,23.51,5.843,23.491c-0.052-0.004-0.104-0.008-0.157-0.01
	c-0.145-0.006-0.283-0.045-0.403-0.111c-0.049,0.029-0.097,0.059-0.143,0.09c-0.063,0.056-0.123,0.114-0.178,0.176
	c-0.05,0.073-0.096,0.147-0.136,0.224c-0.013,0.044-0.023,0.088-0.032,0.133c-0.008,0.105-0.01,0.209-0.004,0.314
	c0.027,0.143,0.066,0.284,0.115,0.42c0.026,0.052,0.053,0.104,0.084,0.153c0.028,0.028,0.056,0.055,0.086,0.082
	c0.053,0.035,0.108,0.067,0.164,0.096c0.078,0.025,0.156,0.045,0.236,0.061c0.142,0.009,0.283,0.007,0.426-0.004
	c0.059-0.014,0.117-0.031,0.174-0.051c0.029-0.015,0.057-0.031,0.085-0.048c0.091-0.086,0.178-0.181,0.26-0.278
	c0.011-0.018,0.022-0.036,0.032-0.054c0.03-0.09,0.054-0.181,0.072-0.273C6.526,24.363,6.527,24.315,6.526,24.267z M17.708,24.693
	c-0.014-0.065-0.032-0.131-0.052-0.195c-0.036-0.066-0.076-0.13-0.118-0.193c-0.017-0.019-0.034-0.037-0.053-0.055
	c-0.141-0.093-0.286-0.175-0.437-0.253c-0.074-0.026-0.148-0.05-0.223-0.072c-0.106-0.032-0.202-0.083-0.284-0.149
	c-0.032,0.006-0.063,0.014-0.095,0.021c-0.029,0.03-0.057,0.06-0.085,0.091c-0.112,0.161-0.214,0.333-0.298,0.51
	c-0.043,0.121-0.078,0.246-0.102,0.372c-0.007,0.106-0.005,0.209,0.003,0.314c0.011,0.057,0.025,0.114,0.043,0.169
	c0.001,0.001,0.002,0.003,0.003,0.004c0.022,0.024,0.045,0.047,0.068,0.07c0.086,0.057,0.174,0.111,0.265,0.158
	c0.144,0.038,0.295,0.055,0.444,0.074c0.096,0.013,0.193,0.027,0.289,0.028c0.008-0.002,0.016-0.004,0.024-0.007
	c0.055-0.031,0.107-0.066,0.158-0.104c0.126-0.101,0.249-0.206,0.358-0.324c0.007-0.011,0.013-0.022,0.02-0.034
	c0.029-0.094,0.05-0.191,0.068-0.288C17.706,24.787,17.708,24.74,17.708,24.693z M19.297,19.632
	c0.015-0.352,0.031-0.705,0.035-1.058c-0.552-0.022-1.105-0.053-1.656-0.07c-0.788-0.026-1.572-0.106-2.357-0.125
	c-1.41-0.03-2.817-0.059-4.225-0.077c-0.203-0.002-0.407-0.018-0.612-0.028c-0.253-0.01-0.507-0.004-0.76-0.014
	c-0.43-0.016-0.869-0.045-1.301-0.012c-0.436,0.036-0.804-0.391-0.804-0.803c0-0.421,0.365-0.832,0.804-0.806
	c0.49,0.028,0.979,0.045,1.467,0.077c0.272,0.018,0.545,0.016,0.817,0.025c0.229,0.008,0.46,0.026,0.689,0.03
	c1.495,0.031,2.987,0.033,4.482,0.051c0.752,0.008,1.504,0.061,2.257,0.073c0.397,0.006,0.794,0.016,1.191,0.006
	c0.369-0.007,0.742-0.006,1.11-0.043c0.111-0.017,0.222-0.039,0.329-0.073c0.015-0.008,0.03-0.017,0.045-0.026
	c0.009-0.03,0.017-0.06,0.023-0.09c0.003-0.088,0-0.177-0.008-0.266c-0.043-0.251-0.109-0.501-0.194-0.739
	c-0.039-0.076-0.082-0.148-0.132-0.219c-0.069-0.083-0.14-0.16-0.22-0.232c-0.015-0.01-0.03-0.019-0.046-0.028
	c-0.163-0.051-0.335-0.086-0.505-0.114c-0.987-0.097-1.982-0.132-2.972-0.171c-0.699-0.028-1.396-0.063-2.095-0.073
	c-0.825-0.012-1.653-0.01-2.478-0.014c-0.849-0.004-1.7-0.012-2.549-0.014c-0.419,0-0.839,0.01-1.256-0.006
	c-0.393-0.016-0.784-0.033-1.175-0.053c-0.33-0.016-0.661-0.018-0.991-0.038c-0.308-0.018-0.614-0.051-0.924-0.057
	c-0.365-0.006-0.731,0.004-1.096,0.012c-0.305,0.007-0.609,0.011-0.912,0.046c-0.118,0.019-0.236,0.042-0.351,0.073
	c-0.013,0.013-0.025,0.026-0.037,0.039c-0.04,0.059-0.077,0.119-0.11,0.182c-0.033,0.104-0.055,0.21-0.072,0.318
	c-0.019,0.221-0.01,0.445,0.011,0.666c0.007,0.035,0.016,0.069,0.026,0.104c0.014,0.025,0.028,0.05,0.044,0.074
	c0.015,0.016,0.03,0.031,0.046,0.046c0.023,0.014,0.046,0.028,0.07,0.041c0.035,0.01,0.07,0.019,0.105,0.027
	c0.252,0.021,0.5,0.021,0.755,0.021c0.228,0,0.456,0.003,0.683-0.018c0.184-0.035,0.365-0.081,0.547-0.121
	c0.239-0.047,0.466-0.035,0.681,0.091c0.197,0.115,0.344,0.306,0.405,0.527c0.12,0.434-0.144,0.995-0.616,1.086
	c-0.316,0.059-0.644,0.126-0.965,0.144c-0.089,0.006-0.176,0.006-0.265,0.006c-0.061,0-0.124,0-0.186,0
	c-0.103,0.002-0.203,0-0.305,0.001c0.011,0.496,0.017,0.991,0.007,1.486c-0.004,0.203,0.01,0.397,0.03,0.598
	c0.016,0.151,0.014,0.304,0.023,0.456c0.005,0.018,0.01,0.036,0.015,0.054c0.035,0.071,0.072,0.14,0.114,0.207
	c0.081,0.092,0.168,0.177,0.261,0.257c0.081,0.056,0.164,0.108,0.251,0.155c0.099,0.03,0.199,0.053,0.301,0.07
	c1.023,0.122,2.06,0.122,3.087,0.201c0.594,0.045,1.193,0.087,1.789,0.097c0.555,0.008,1.108,0.043,1.662,0.055
	c0.251,0.006,0.5,0.028,0.748,0.045c0.288,0.018,0.575,0.032,0.861,0.057c0.655,0.058,1.321,0.099,1.978,0.077
	c0.397-0.014,0.794,0.002,1.191,0.008c0.503,0.011,1.017-0.004,1.517-0.062c0.181-0.026,0.362-0.053,0.544-0.078
	c0.127-0.019,0.249-0.041,0.368-0.08c0.138-0.069,0.273-0.148,0.401-0.235c0.129-0.116,0.24-0.248,0.35-0.381
	c0.005-0.009,0.011-0.018,0.016-0.027c0.011-0.037,0.021-0.074,0.029-0.112C19.322,20.452,19.281,20.042,19.297,19.632z
	 M29.441,8.378c-0.005-0.019-0.011-0.037-0.017-0.055c-0.09-0.181-0.199-0.353-0.318-0.516c-0.276-0.34-0.576-0.661-0.903-0.953
	c-0.124-0.112-0.255-0.215-0.383-0.32c-0.014-0.012-0.029-0.024-0.043-0.037c-0.105,0.132-0.211,0.264-0.314,0.398
	c-0.016,0.021-0.031,0.041-0.047,0.062c-0.033,0.045-0.067,0.089-0.101,0.132c-0.002,0.003-0.004,0.007-0.007,0.01
	c-0.002,0.046-0.002,0.093,0,0.139c0.01,0.042,0.022,0.084,0.037,0.126c0.12,0.244,0.273,0.466,0.437,0.683
	c0.237,0.301,0.487,0.591,0.782,0.834c0.051,0.037,0.104,0.071,0.158,0.102c0.018-0.005,0.035-0.011,0.053-0.017
	c0.01-0.006,0.021-0.012,0.031-0.018c0.091-0.082,0.177-0.171,0.271-0.25C29.197,8.596,29.33,8.494,29.441,8.378z"/>
</svg>