<?xml version="1.0" encoding="utf-8"?>
<!-- Generator: Adobe Illustrator 21.1.0, SVG Export Plug-In . SVG Version: 6.00 Build 0)  -->
<svg version="1.1" id="designs" xmlns="http://www.w3.org/2000/svg" xmlns:xlink="http://www.w3.org/1999/xlink" x="0px" y="0px"
	 width="32px" height="32px" viewBox="0 0 32 32" style="enable-background:new 0 0 32 32;" xml:space="preserve">
<style type="text/css">
	.sketchy_een{fill:#111918;}
</style>
<path class="sketchy_een" d="M30.199,7.995c-0.028-0.211-0.066-0.422-0.122-0.628c-0.068-0.247-0.175-0.482-0.285-0.712
	c-0.179-0.377-0.438-0.713-0.703-1.032c-0.235-0.283-0.502-0.536-0.771-0.787c-0.299-0.279-0.58-0.574-0.871-0.863
	c-0.309-0.307-0.632-0.6-0.957-0.889c-0.341-0.303-0.676-0.61-1.04-0.883c-0.319-0.239-0.654-0.442-1.016-0.608
	c-0.428-0.197-0.863-0.389-1.329-0.482C22.822,1.054,22.53,1,22.24,1c-0.047,0-0.095,0.001-0.142,0.004
	c-0.287,0.018-0.572,0.058-0.851,0.132c-0.632,0.167-1.126,0.572-1.612,0.984c-0.664,0.566-1.323,1.148-1.939,1.764
	c-0.616,0.614-1.194,1.261-1.837,1.849c-0.313,0.287-0.634,0.568-0.925,0.879c-0.331,0.355-0.636,0.727-0.931,1.112
	c-0.797,1.038-1.69,2.359-1.293,3.725c0.116,0.396,0.287,0.785,0.48,1.15c0.209,0.397,0.486,0.756,0.761,1.111
	c0.048,0.061,0.096,0.121,0.145,0.182c-0.177,0.199-0.356,0.396-0.533,0.596c-0.242-0.196-0.48-0.395-0.728-0.583
	c-0.367-0.279-0.765-0.482-1.2-0.636c-0.28-0.1-0.587-0.135-0.883-0.135c-0.039,0-0.078,0.001-0.117,0.002
	c-0.177,0.004-0.369,0.032-0.54,0.062c-0.287,0.048-0.546,0.157-0.809,0.281c-0.498,0.233-0.925,0.634-1.313,1.016
	c-1.265,1.25-2.328,2.688-3.35,4.135c-0.484,0.683-0.955,1.377-1.371,2.104c-0.444,0.771-0.875,1.554-1.202,2.383
	c-0.167,0.425-0.269,0.863-0.315,1.317c-0.06,0.6,0.022,1.18,0.345,1.704c0.251,0.411,0.582,0.735,0.925,1.066
	c0.305,0.295,0.628,0.574,0.953,0.849c0.375,0.315,0.781,0.586,1.2,0.841c0.341,0.209,0.674,0.428,1.008,0.646
	c0.668,0.432,1.321,0.859,2.079,1.12c0.337,0.117,0.682,0.203,1.032,0.259c0.239,0.036,0.48,0.072,0.719,0.08
	c0.422,0.014,0.795-0.104,1.174-0.265c0.43-0.183,0.823-0.466,1.186-0.759c0.337-0.273,0.652-0.57,0.959-0.875
	c0.61-0.606,1.158-1.257,1.696-1.929c0.524-0.652,1.048-1.305,1.566-1.963c0.534-0.678,1.068-1.379,1.513-2.12
	c0.205-0.339,0.377-0.688,0.518-1.056c0.175-0.462,0.275-1.008,0.221-1.497c-0.038-0.359-0.159-0.683-0.289-1.018
	c-0.08-0.207-0.159-0.417-0.249-0.622c0.173-0.183,0.35-0.364,0.522-0.549c0.301,0.188,0.6,0.377,0.919,0.532
	c0.303,0.15,0.616,0.289,0.945,0.365c0.271,0.064,0.548,0.094,0.825,0.11c0.343,0.02,0.68-0.082,0.988-0.213
	c0.116-0.05,0.223-0.104,0.331-0.167c0.241-0.144,0.462-0.325,0.672-0.514c0.309-0.279,0.606-0.584,0.883-0.897
	c0.592-0.67,1.178-1.345,1.772-2.015c0.315-0.353,0.618-0.711,0.929-1.066c0.311-0.353,0.644-0.686,0.963-1.03
	c0.644-0.703,1.242-1.467,1.67-2.322c0.215-0.428,0.411-0.903,0.488-1.379c0.05-0.299,0.084-0.594,0.088-0.895
	C30.285,8.565,30.239,8.28,30.199,7.995z M22.5,11.996c-0.193-0.316-0.449-0.602-0.713-0.851c-0.327-0.309-0.652-0.632-1.006-0.911
	c-0.197-0.155-0.399-0.319-0.612-0.456c-0.095-0.062-0.211-0.103-0.32-0.145c0.203-0.244,0.398-0.495,0.609-0.733
	c0.45-0.508,0.885-1.051,1.403-1.492c0.054-0.038,0.109-0.073,0.167-0.104c0.155-0.049,0.311-0.084,0.471-0.113
	c0.066-0.005,0.132-0.007,0.198-0.004c0.067,0.016,0.132,0.036,0.197,0.059c0.234,0.112,0.452,0.247,0.663,0.399
	c0.221,0.184,0.433,0.374,0.621,0.59c0.056,0.082,0.106,0.166,0.151,0.253c0.042,0.127,0.074,0.255,0.099,0.387
	c0.01,0.118,0.012,0.234,0.006,0.354c-0.031,0.152-0.073,0.298-0.124,0.446c-0.176,0.373-0.394,0.71-0.64,1.041
	C23.302,11.165,22.895,11.571,22.5,11.996z M18.945,11.242c0.063,0.014,0.128,0.021,0.195,0.018
	c0.014-0.001,0.028-0.002,0.042-0.002c0.158,0.089,0.304,0.202,0.448,0.314c0.272,0.217,0.53,0.449,0.799,0.669
	c0.238,0.197,0.469,0.401,0.674,0.633c0.023,0.034,0.044,0.069,0.064,0.104c-0.002,0.005-0.003,0.01-0.005,0.015
	c-0.122,0.244-0.278,0.467-0.442,0.685c-0.898,1.137-1.856,2.222-2.821,3.304c-1.114,1.251-2.288,2.445-3.533,3.567
	c-0.244,0.222-0.502,0.432-0.761,0.636c-0.23,0.17-0.461,0.327-0.713,0.459c-0.035,0.012-0.07,0.023-0.106,0.033
	c-0.025,0-0.049,0-0.074-0.001c-0.085-0.017-0.17-0.037-0.253-0.064c-0.088-0.048-0.172-0.104-0.253-0.165
	c-0.275-0.219-0.548-0.438-0.778-0.703c-0.104-0.145-0.201-0.295-0.281-0.454c-0.003-0.01-0.006-0.02-0.009-0.03
	c0-0.016-0.001-0.032,0-0.048c0.013-0.049,0.027-0.098,0.043-0.147c0.235-0.5,0.585-0.952,0.918-1.388
	c1.022-1.308,2.157-2.525,3.269-3.757c0.576-0.64,1.166-1.261,1.78-1.865C17.754,12.457,18.351,11.85,18.945,11.242z M9.456,20.553
	c0.01-0.013,0.021-0.025,0.032-0.038c0.01,0.069,0.004,0.137,0.021,0.206c0.06,0.251,0.207,0.504,0.345,0.725
	c0.225,0.365,0.5,0.695,0.829,0.969c0.179,0.148,0.365,0.289,0.548,0.428c0.122,0.094,0.247,0.175,0.387,0.237
	c0.193,0.087,0.405,0.144,0.62,0.182c-0.36,0.406-0.738,0.794-1.153,1.141c-0.083,0.061-0.167,0.12-0.252,0.177
	c-0.145,0.1-0.298,0.177-0.457,0.249c-0.113,0.041-0.222,0.075-0.338,0.1c-0.124,0.007-0.245,0.008-0.369-0.002
	c-0.122-0.025-0.242-0.058-0.36-0.097c-0.087-0.046-0.169-0.098-0.249-0.155c-0.237-0.2-0.448-0.42-0.646-0.659
	c-0.117-0.171-0.213-0.348-0.301-0.534c-0.043-0.122-0.077-0.245-0.101-0.371c-0.001-0.035-0.001-0.069,0-0.104
	c0.023-0.093,0.052-0.183,0.084-0.272c0.192-0.4,0.437-0.767,0.67-1.143C8.987,21.238,9.209,20.887,9.456,20.553z M17.187,20.901
	c-0.044,0.237-0.11,0.466-0.196,0.691c-0.375,0.792-0.915,1.491-1.45,2.181c-0.687,0.871-1.402,1.721-2.092,2.589
	c-0.692,0.871-1.452,1.721-2.324,2.419c-0.232,0.167-0.466,0.322-0.722,0.448c-0.083,0.028-0.167,0.052-0.252,0.072
	c-0.134,0.007-0.264,0.003-0.397-0.01c-0.418-0.071-0.828-0.191-1.224-0.345c-0.553-0.254-1.066-0.581-1.579-0.907
	c-0.303-0.193-0.604-0.391-0.915-0.574c-0.299-0.177-0.59-0.358-0.87-0.563c-0.286-0.23-0.563-0.471-0.836-0.717
	c-0.246-0.218-0.49-0.447-0.705-0.698c-0.078-0.118-0.147-0.238-0.209-0.364c-0.014-0.051-0.027-0.103-0.038-0.154
	c-0.008-0.164-0.003-0.325,0.009-0.488c0.065-0.387,0.179-0.751,0.324-1.115c0.202-0.447,0.437-0.878,0.678-1.307
	c0.253-0.45,0.506-0.901,0.779-1.339c0.577-0.925,1.203-1.823,1.868-2.687c0.754-0.963,1.536-1.916,2.487-2.689
	c0.181-0.125,0.364-0.238,0.561-0.337c0.102-0.038,0.204-0.069,0.311-0.093c0.156-0.013,0.312-0.016,0.469-0.005
	c0.153,0.033,0.302,0.074,0.45,0.126c0.231,0.115,0.445,0.252,0.655,0.405c0.144,0.114,0.282,0.234,0.423,0.352
	c-0.396,0.435-0.786,0.876-1.158,1.331c-0.034-0.029-0.061-0.065-0.1-0.088c-0.123-0.072-0.264-0.109-0.406-0.109
	c-0.07,0-0.14,0.009-0.208,0.027c-0.219,0.06-0.347,0.193-0.476,0.367c-0.159,0.211-0.316,0.422-0.476,0.632
	c-0.511,0.642-1.066,1.248-1.557,1.905c-0.237,0.319-0.448,0.654-0.66,0.99c-0.205,0.327-0.42,0.648-0.598,0.99
	c-0.126,0.241-0.227,0.496-0.297,0.759c-0.138,0.53,0.01,1.11,0.237,1.592c0.082,0.169,0.163,0.335,0.263,0.494
	c0.128,0.211,0.295,0.405,0.454,0.592c0.313,0.367,0.701,0.709,1.126,0.939c0.383,0.209,0.855,0.287,1.285,0.309
	c0.387,0.02,0.767-0.066,1.122-0.209c0.265-0.108,0.516-0.219,0.755-0.379c0.185-0.124,0.365-0.257,0.54-0.399
	c0.285-0.231,0.54-0.494,0.797-0.755c0.488-0.5,0.905-1.064,1.363-1.586c0.145-0.167,0.237-0.349,0.237-0.574
	c0-0.079-0.023-0.154-0.046-0.229c0.306-0.243,0.612-0.487,0.904-0.745c0.535-0.471,1.043-0.968,1.546-1.469
	c0.056,0.16,0.108,0.321,0.144,0.485C17.192,20.741,17.192,20.819,17.187,20.901z M28.162,10.178
	c-0.215,0.429-0.464,0.831-0.745,1.218c-0.428,0.514-0.891,0.99-1.355,1.468c-0.498,0.514-0.973,1.052-1.461,1.574
	c-0.452,0.484-0.889,0.98-1.327,1.475c-0.425,0.477-0.857,0.968-1.346,1.382c-0.099,0.07-0.199,0.134-0.306,0.191
	c-0.04,0.013-0.08,0.025-0.121,0.036c-0.114,0.004-0.228,0.002-0.342-0.006c-0.187-0.04-0.364-0.096-0.542-0.164
	c-0.203-0.095-0.403-0.194-0.601-0.298c0.225-0.246,0.449-0.492,0.664-0.746c0.332-0.39,0.64-0.801,0.952-1.208
	c0.182-0.022,0.359-0.089,0.498-0.225c0.305-0.299,0.62-0.59,0.911-0.903c0.287-0.309,0.554-0.638,0.845-0.943
	c0.293-0.305,0.584-0.608,0.855-0.931c0.299-0.355,0.61-0.735,0.835-1.142c0.233-0.428,0.438-0.883,0.512-1.367
	c0.032-0.219,0.054-0.428,0.038-0.648c-0.01-0.142-0.03-0.287-0.056-0.425c-0.034-0.185-0.082-0.367-0.155-0.542
	c-0.114-0.275-0.231-0.488-0.417-0.721c-0.126-0.159-0.263-0.307-0.417-0.442c-0.349-0.309-0.711-0.61-1.116-0.845
	c-0.12-0.07-0.241-0.132-0.369-0.189c-0.155-0.072-0.315-0.133-0.478-0.181c-0.173-0.048-0.367-0.056-0.544-0.062
	c-0.017-0.001-0.035-0.001-0.053-0.001c-0.185,0-0.393,0.036-0.567,0.067c-0.257,0.048-0.518,0.104-0.751,0.229
	c-0.52,0.279-0.911,0.737-1.293,1.174c-0.339,0.385-0.674,0.775-1.012,1.16c-0.367,0.415-0.737,0.825-1.088,1.256
	c-0.149,0.181-0.249,0.359-0.249,0.604c0,0.062,0.022,0.119,0.035,0.178c-0.453,0.483-0.903,0.969-1.364,1.445
	c-0.3,0.31-0.603,0.615-0.904,0.922c-0.055-0.066-0.109-0.133-0.163-0.2c-0.122-0.161-0.24-0.325-0.341-0.502
	c-0.098-0.172-0.183-0.35-0.262-0.532c-0.076-0.196-0.141-0.391-0.185-0.598c-0.003-0.065-0.003-0.128,0.001-0.192
	c0.034-0.155,0.077-0.303,0.132-0.451c0.268-0.574,0.614-1.096,0.986-1.607c0.373-0.467,0.769-0.908,1.212-1.312
	c0.504-0.46,1-0.927,1.483-1.411c0.48-0.48,0.974-0.943,1.479-1.399c0.48-0.433,0.958-0.872,1.463-1.278
	c0.127-0.091,0.256-0.176,0.395-0.249c0.148-0.053,0.296-0.097,0.451-0.131c0.156-0.015,0.311-0.021,0.468-0.012
	c0.318,0.055,0.626,0.138,0.931,0.253c0.396,0.179,0.771,0.38,1.123,0.635c0.616,0.509,1.202,1.068,1.743,1.654
	c0.277,0.299,0.548,0.602,0.841,0.887c0.257,0.249,0.503,0.505,0.732,0.779c0.168,0.229,0.319,0.468,0.442,0.724
	c0.082,0.234,0.136,0.469,0.176,0.713c0.029,0.293,0.035,0.582,0.014,0.877C28.385,9.55,28.287,9.864,28.162,10.178z M13.932,13.686
	c0.006,0.008,0.013,0.016,0.019,0.024c0.01,0.013,0.02,0.027,0.031,0.041C13.965,13.73,13.949,13.708,13.932,13.686z"/>
</svg>