<?xml version="1.0" encoding="utf-8"?>
<!-- Generator: Adobe Illustrator 21.1.0, SVG Export Plug-In . SVG Version: 6.00 Build 0)  -->
<svg version="1.1" id="designs" xmlns="http://www.w3.org/2000/svg" xmlns:xlink="http://www.w3.org/1999/xlink" x="0px" y="0px"
	 width="32px" height="32px" viewBox="0 0 32 32" style="enable-background:new 0 0 32 32;" xml:space="preserve">
<style type="text/css">
	.sketchy_een{fill:#111918;}
</style>
<path class="sketchy_een" d="M27.249,18.026c-0.175-0.185-0.4-0.33-0.616-0.466c-0.319-0.196-0.709-0.327-1.078-0.4
	c-0.242-0.047-0.491-0.077-0.739-0.077c-0.079,0-0.158,0.003-0.237,0.01c-0.441,0.036-0.871,0.18-1.262,0.384
	c-0.287,0.15-0.535,0.343-0.791,0.541c-0.088,0.069-0.162,0.149-0.241,0.226c-0.568-0.394-1.146-0.771-1.746-1.116
	c-0.344-0.198-0.703-0.375-1.055-0.562c-0.341-0.184-0.68-0.371-1.021-0.557c-0.224-0.121-0.447-0.247-0.671-0.368
	c0.137-0.09,0.275-0.178,0.412-0.267c0.684-0.445,1.374-0.882,2.094-1.265c0.695-0.37,1.407-0.7,2.124-1.019
	c0.107,0.085,0.214,0.172,0.327,0.247c0.189,0.127,0.405,0.21,0.616,0.294c0.361,0.148,0.757,0.195,1.144,0.202
	c0.946,0.018,1.888-0.364,2.59-0.987c0.311-0.275,0.596-0.612,0.807-0.969c0.319-0.543,0.478-1.148,0.439-1.78
	c-0.034-0.559-0.207-1.121-0.503-1.597c-0.327-0.528-0.908-0.937-1.501-1.117c-0.274-0.083-0.556-0.117-0.839-0.117
	c-0.364,0-0.73,0.055-1.083,0.133c-0.66,0.144-1.294,0.403-1.808,0.855c-0.253,0.223-0.469,0.489-0.655,0.773
	c-0.237,0.364-0.343,0.782-0.387,1.21c-0.02,0.204,0.021,0.452,0.057,0.648c0.027,0.139,0.057,0.277,0.104,0.411
	c0.037,0.111,0.084,0.219,0.127,0.328c-0.717,0.32-1.428,0.649-2.115,1.031c-0.687,0.382-1.36,0.791-2.022,1.217
	c-0.29,0.187-0.577,0.378-0.864,0.569c0.001-0.096-0.001-0.192,0-0.288c0.009-1.417,0.059-2.831,0.098-4.246
	c0.001-0.045-0.017-0.085-0.024-0.128c0.324-0.115,0.628-0.281,0.893-0.501c0.284-0.237,0.516-0.542,0.716-0.851
	c0.18-0.278,0.3-0.596,0.411-0.909c0.112-0.316,0.168-0.678,0.173-1.012c0.007-0.343-0.034-0.7-0.127-1.03
	c-0.098-0.345-0.244-0.696-0.459-0.985c-0.134-0.182-0.277-0.353-0.444-0.507c-0.184-0.17-0.387-0.319-0.587-0.469
	c-0.357-0.271-0.775-0.411-1.21-0.491C16.215,3.009,16.138,3,16.062,3c-0.102,0-0.2,0.016-0.297,0.055
	c-0.096-0.011-0.195-0.003-0.292,0.028c-0.489,0.156-0.985,0.33-1.415,0.618c-0.428,0.287-0.826,0.712-1.057,1.175
	c-0.203,0.409-0.341,0.844-0.419,1.294c-0.041,0.241-0.075,0.484-0.08,0.73c-0.005,0.248,0.045,0.505,0.103,0.746
	c0.095,0.389,0.273,0.78,0.493,1.116c0.252,0.384,0.637,0.7,1.046,0.905c0.398,0.198,0.834,0.301,1.276,0.327
	c-0.031,1.45-0.02,2.9-0.011,4.35c-0.368-0.196-0.733-0.397-1.101-0.592c-0.673-0.355-1.346-0.71-2.02-1.058
	c-0.487-0.252-0.981-0.485-1.473-0.722c0.071-0.381,0.122-0.803,0.088-1.189c-0.037-0.405-0.166-0.75-0.327-1.121
	c-0.112-0.256-0.277-0.494-0.487-0.681c-0.055-0.186-0.174-0.35-0.353-0.442C9.283,8.306,8.82,8.071,8.331,7.93
	C8.094,7.863,7.833,7.838,7.58,7.838c-0.077,0-0.154,0.002-0.228,0.006C7.08,7.858,6.805,7.898,6.543,7.969
	C6.302,8.033,6.054,8.144,5.836,8.264C5.604,8.392,5.397,8.538,5.188,8.704c-0.166,0.13-0.305,0.293-0.439,0.453
	C4.578,9.363,4.417,9.579,4.274,9.804c-0.246,0.387-0.427,0.825-0.53,1.271C3.691,11.3,3.655,11.539,3.65,11.771
	c-0.009,0.425,0.08,0.828,0.252,1.216c0.175,0.4,0.427,0.753,0.746,1.051c0.362,0.339,0.784,0.555,1.239,0.737
	c0.361,0.143,0.716,0.216,1.099,0.266c0.573,0.075,1.123-0.141,1.635-0.362c0.653-0.284,1.193-0.745,1.6-1.32
	c0.454,0.21,0.907,0.424,1.35,0.655c0.696,0.361,1.39,0.73,2.085,1.094c0.394,0.205,0.78,0.423,1.169,0.634
	c-0.371,0.227-0.74,0.455-1.109,0.685c-1.326,0.828-2.619,1.711-3.912,2.589c-0.148-0.122-0.295-0.247-0.456-0.353
	c-0.134-0.088-0.284-0.15-0.428-0.218c-0.225-0.105-0.457-0.196-0.694-0.268c-0.193-0.059-0.386-0.083-0.58-0.083
	c-0.205,0-0.41,0.026-0.616,0.065c-0.386,0.073-0.75,0.226-1.08,0.439c-0.444,0.287-0.782,0.7-1.085,1.124
	c-0.243,0.336-0.412,0.725-0.541,1.116c-0.091,0.277-0.123,0.585-0.132,0.876c-0.009,0.243,0.025,0.484,0.066,0.723
	c0.134,0.776,0.669,1.455,1.34,1.847c0.216,0.125,0.462,0.221,0.698,0.303c0.184,0.064,0.366,0.116,0.557,0.152
	c0.216,0.041,0.435,0.064,0.655,0.082c0.359,0.03,0.71-0.02,1.057-0.112c1.164-0.309,2.261-1.273,2.484-2.491
	c0.052-0.279,0.095-0.566,0.07-0.85c-0.03-0.337-0.093-0.634-0.234-0.941c-0.037-0.08-0.09-0.151-0.134-0.227
	c1.134-0.783,2.275-1.56,3.44-2.298c0.415-0.262,0.837-0.515,1.257-0.769c0.027,0.647,0.087,1.293,0.142,1.94
	c0.101,1.197,0.126,2.401,0.161,3.601c-0.193,0.088-0.384,0.179-0.568,0.289c-0.198,0.12-0.378,0.266-0.56,0.409
	c-0.209,0.164-0.371,0.377-0.532,0.585c-0.271,0.353-0.459,0.78-0.571,1.208c-0.207,0.785,0.007,1.626,0.46,2.281
	c0.145,0.209,0.303,0.405,0.484,0.58c0.321,0.312,0.723,0.487,1.13,0.653c0.387,0.157,0.805,0.266,1.221,0.305
	c0.682,0.066,1.351-0.093,1.911-0.493c0.407-0.291,0.76-0.687,0.985-1.137c0.248-0.491,0.439-1.028,0.469-1.583
	c0.029-0.573-0.139-1.137-0.387-1.646c-0.25-0.514-0.623-0.989-1.11-1.297c-0.405-0.255-0.882-0.371-1.335-0.514
	c-0.037-0.012-0.074-0.012-0.111-0.017c-0.025-0.461-0.048-0.922-0.078-1.384c-0.023-0.373-0.039-0.748-0.068-1.121
	c-0.025-0.362-0.064-0.725-0.096-1.089c-0.036-0.393-0.073-0.787-0.102-1.18c-0.015-0.222-0.016-0.444-0.021-0.666
	c0.324,0.177,0.645,0.36,0.971,0.535c0.327,0.177,0.651,0.355,0.978,0.534c0.321,0.177,0.653,0.339,0.966,0.528
	c0.618,0.373,1.21,0.784,1.796,1.204c-0.118,0.41-0.218,0.829-0.221,1.257c-0.002,0.521,0.187,1.057,0.475,1.489
	c0.641,0.971,1.717,1.713,2.915,1.656c0.955-0.046,1.903-0.493,2.513-1.235c0.269-0.328,0.51-0.675,0.689-1.062
	c0.087-0.191,0.166-0.382,0.223-0.584c0.062-0.218,0.084-0.448,0.107-0.669c0.08-0.723-0.255-1.406-0.641-1.992
	C27.525,18.345,27.391,18.178,27.249,18.026z M23.279,10.023c0.059-0.114,0.125-0.222,0.198-0.329
	c0.105-0.123,0.216-0.236,0.337-0.341c0.134-0.089,0.27-0.168,0.414-0.239c0.284-0.103,0.572-0.174,0.87-0.225
	c0.193-0.02,0.385-0.03,0.58-0.019c0.1,0.021,0.198,0.047,0.296,0.081c0.097,0.048,0.189,0.102,0.279,0.163
	c0.061,0.055,0.12,0.112,0.176,0.173c0.047,0.072,0.089,0.144,0.129,0.221c0.065,0.182,0.11,0.365,0.145,0.555
	c0.012,0.144,0.015,0.286,0.005,0.431c-0.023,0.117-0.053,0.231-0.093,0.343c-0.086,0.178-0.188,0.345-0.302,0.506
	c-0.14,0.162-0.287,0.313-0.45,0.453c-0.132,0.088-0.266,0.167-0.409,0.238c-0.202,0.073-0.406,0.127-0.618,0.166
	c-0.166,0.012-0.331,0.012-0.499,0c-0.169-0.032-0.333-0.078-0.494-0.137c-0.043-0.022-0.086-0.045-0.128-0.069
	c0.012-0.17-0.036-0.326-0.11-0.49c-0.058-0.127-0.115-0.255-0.172-0.383c-0.09-0.228-0.168-0.454-0.215-0.693
	c-0.003-0.066-0.004-0.131-0.001-0.196C23.234,10.161,23.254,10.092,23.279,10.023z M9.216,10.453
	c-0.018-0.041-0.036-0.083-0.053-0.124c-0.018-0.044-0.037-0.088-0.054-0.131C9.145,10.284,9.181,10.37,9.216,10.453z M8.468,12.866
	c-0.205,0.139-0.419,0.255-0.644,0.358c-0.16,0.059-0.318,0.107-0.483,0.141c-0.078,0.003-0.154,0.003-0.231-0.001
	c-0.252-0.051-0.493-0.128-0.732-0.219c-0.15-0.072-0.293-0.151-0.432-0.243c-0.111-0.093-0.215-0.192-0.311-0.301
	c-0.082-0.119-0.155-0.243-0.22-0.374c-0.027-0.08-0.051-0.161-0.071-0.244c-0.01-0.142-0.009-0.281,0.002-0.425
	c0.038-0.208,0.09-0.41,0.162-0.609c0.121-0.255,0.262-0.494,0.426-0.725c0.123-0.147,0.252-0.283,0.396-0.411
	C6.497,9.699,6.672,9.6,6.857,9.513c0.122-0.041,0.246-0.072,0.373-0.098c0.19-0.017,0.377-0.019,0.567-0.003
	c0.118,0.026,0.229,0.063,0.342,0.102c0.209,0.093,0.414,0.193,0.617,0.297C8.793,9.882,8.842,9.947,8.906,10
	c0.052,0.045,0.102,0.091,0.149,0.141c0.039,0.06,0.074,0.122,0.106,0.187c0.058,0.153,0.109,0.309,0.144,0.468
	C9.317,11,9.302,11.204,9.279,11.405c-0.034,0.211-0.085,0.413-0.157,0.613c-0.079,0.158-0.169,0.307-0.271,0.454
	C8.733,12.613,8.608,12.745,8.468,12.866z M9.563,21.661c-0.031,0.154-0.072,0.303-0.124,0.451
	c-0.054,0.106-0.114,0.205-0.181,0.303c-0.128,0.15-0.267,0.287-0.415,0.417c-0.138,0.099-0.279,0.19-0.431,0.267
	c-0.177,0.065-0.356,0.121-0.541,0.16c-0.185,0.013-0.37,0.003-0.556-0.014c-0.242-0.044-0.471-0.108-0.703-0.194
	c-0.129-0.06-0.255-0.125-0.375-0.204c-0.082-0.07-0.158-0.144-0.23-0.225c-0.064-0.096-0.121-0.195-0.173-0.299
	c-0.031-0.094-0.053-0.188-0.071-0.286c-0.014-0.174-0.013-0.344,0.001-0.52c0.032-0.167,0.077-0.326,0.134-0.486
	c0.099-0.205,0.215-0.396,0.347-0.584c0.148-0.176,0.304-0.343,0.478-0.492c0.106-0.072,0.216-0.136,0.331-0.193
	c0.13-0.045,0.261-0.075,0.396-0.101c0.078-0.007,0.155-0.01,0.234-0.008c0.122,0.027,0.239,0.067,0.357,0.111
	c0.221,0.102,0.432,0.214,0.632,0.353c0.061,0.051,0.121,0.102,0.183,0.154c0.091,0.078,0.185,0.141,0.289,0.182
	c0.131,0.187,0.254,0.38,0.357,0.582c0.026,0.077,0.048,0.156,0.066,0.236C9.575,21.403,9.573,21.532,9.563,21.661z M14.935,8.324
	c-0.087-0.044-0.17-0.092-0.252-0.146c-0.081-0.068-0.157-0.139-0.229-0.217c-0.072-0.109-0.135-0.221-0.193-0.338
	c-0.069-0.181-0.125-0.365-0.163-0.556c-0.01-0.157-0.006-0.31,0.009-0.466c0.051-0.288,0.119-0.568,0.216-0.845
	c0.067-0.139,0.142-0.27,0.228-0.398c0.091-0.107,0.187-0.207,0.293-0.299c0.139-0.094,0.286-0.17,0.438-0.241
	c0.202-0.075,0.405-0.143,0.611-0.209c0.003-0.001,0.005-0.002,0.008-0.002c0.148,0.034,0.295,0.073,0.439,0.123
	c0.171,0.089,0.328,0.199,0.483,0.314c0.144,0.119,0.278,0.247,0.401,0.389c0.06,0.092,0.112,0.187,0.162,0.285
	c0.064,0.171,0.111,0.345,0.144,0.525c0.009,0.148,0.008,0.293-0.003,0.44c-0.04,0.219-0.097,0.43-0.175,0.639
	c-0.085,0.174-0.185,0.336-0.298,0.494c-0.098,0.117-0.2,0.226-0.313,0.33c-0.093,0.063-0.19,0.119-0.291,0.169
	c-0.157,0.053-0.316,0.089-0.479,0.117c-0.201,0.018-0.397,0.024-0.597,0.009C15.225,8.411,15.079,8.373,14.935,8.324z
	 M17.609,24.038c0.11,0.054,0.215,0.115,0.317,0.184c0.078,0.071,0.149,0.146,0.217,0.227c0.119,0.171,0.22,0.348,0.309,0.537
	c0.055,0.155,0.099,0.312,0.131,0.473c0.005,0.093,0.005,0.185,0,0.277c-0.04,0.206-0.1,0.404-0.174,0.601
	c-0.087,0.18-0.185,0.348-0.297,0.511c-0.087,0.098-0.176,0.19-0.274,0.276c-0.096,0.065-0.194,0.123-0.297,0.175
	c-0.089,0.031-0.178,0.057-0.271,0.076c-0.125,0.008-0.249,0.006-0.375-0.002c-0.314-0.058-0.613-0.15-0.91-0.264
	c-0.123-0.059-0.241-0.124-0.353-0.2c-0.091-0.084-0.173-0.173-0.252-0.266c-0.09-0.134-0.172-0.271-0.244-0.417
	c-0.031-0.087-0.058-0.174-0.078-0.265c-0.009-0.115-0.01-0.229-0.002-0.345c0.028-0.141,0.065-0.277,0.113-0.413
	c0.077-0.158,0.164-0.307,0.263-0.452c0.079-0.089,0.161-0.171,0.25-0.251c0.219-0.155,0.447-0.284,0.687-0.407
	c0.198-0.079,0.398-0.152,0.598-0.224c0.023-0.008,0.045-0.017,0.066-0.026C17.226,23.908,17.418,23.969,17.609,24.038z
	 M26.643,20.525c-0.028,0.156-0.066,0.308-0.119,0.459c-0.116,0.247-0.251,0.483-0.408,0.705c-0.114,0.134-0.236,0.259-0.368,0.376
	c-0.127,0.087-0.257,0.164-0.395,0.232c-0.169,0.058-0.34,0.101-0.515,0.132c-0.126,0.009-0.248,0.01-0.373,0.001
	c-0.108-0.022-0.213-0.054-0.317-0.091c-0.128-0.067-0.249-0.142-0.368-0.224c-0.175-0.15-0.333-0.312-0.482-0.487
	c-0.076-0.109-0.143-0.221-0.202-0.339c-0.032-0.094-0.057-0.187-0.077-0.284c-0.004-0.099-0.001-0.195,0.007-0.292
	c0.049-0.242,0.117-0.479,0.188-0.716c0.046-0.153,0.041-0.311-0.004-0.457c0.139-0.153,0.291-0.291,0.453-0.422
	c0.176-0.125,0.355-0.234,0.549-0.328c0.143-0.053,0.286-0.097,0.434-0.126c0.129-0.007,0.256-0.004,0.385,0.003
	c0.207,0.037,0.406,0.092,0.605,0.163c0.124,0.061,0.241,0.131,0.353,0.21c0.068,0.059,0.131,0.122,0.191,0.19
	c0.145,0.203,0.269,0.417,0.379,0.642c0.035,0.097,0.064,0.193,0.088,0.294C26.653,20.285,26.652,20.404,26.643,20.525z"/>
</svg>