<?xml version="1.0" encoding="utf-8"?>
<!-- Generator: Adobe Illustrator 21.1.0, SVG Export Plug-In . SVG Version: 6.00 Build 0)  -->
<svg version="1.1" id="designs" xmlns="http://www.w3.org/2000/svg" xmlns:xlink="http://www.w3.org/1999/xlink" x="0px" y="0px"
	 width="32px" height="32px" viewBox="0 0 32 32" style="enable-background:new 0 0 32 32;" xml:space="preserve">
<style type="text/css">
	.sketchy_een{fill:#111918;}
</style>
<path class="sketchy_een" d="M22.217,21.374c-0.003-0.007-0.006-0.013-0.008-0.02c0.015,0.034,0.029,0.067,0.043,0.101
	C22.24,21.428,22.229,21.401,22.217,21.374z M22.282,21.525l-0.001-0.001C22.281,21.524,22.281,21.525,22.282,21.525L22.282,21.525
	L22.282,21.525z M20.911,18.449c-0.003-0.008-0.007-0.017-0.01-0.025c0.003,0.006,0.005,0.013,0.008,0.019
	C20.909,18.445,20.91,18.447,20.911,18.449z M25.997,30.062c0,0.418-0.365,0.823-0.801,0.801c-1.354-0.071-2.711-0.024-4.067,0.002
	c-0.697,0.014-1.395,0.02-2.092,0.039c-0.673,0.018-1.346,0.065-2.019,0.075c-0.791,0.012-1.579,0.034-2.368,0.012
	c-0.803-0.024-1.604-0.107-2.407-0.105c-1.719,0.002-3.441,0.073-5.162,0.112c-0.34,0.008-0.637-0.216-0.763-0.516
	c-0.133-0.109-0.24-0.247-0.286-0.412c-0.065-0.231-0.012-0.428,0.083-0.639c0.069-0.154,0.138-0.309,0.205-0.464
	c0.278-0.68,0.52-1.371,0.775-2.058c0.276-0.74,0.578-1.47,0.856-2.21c0.284-0.76,0.558-1.527,0.833-2.291
	c0.547-1.513,0.967-3.066,1.49-4.586c0.531-1.543,1.146-3.054,1.697-4.59c0.29-0.805,0.562-1.614,0.88-2.409
	c0.305-0.764,0.665-1.502,0.993-2.256c0.225-0.554,0.441-1.113,0.658-1.67c-0.175-0.089-0.347-0.182-0.509-0.302
	c-0.16-0.12-0.272-0.217-0.393-0.373c-0.081-0.103-0.148-0.191-0.219-0.296c-0.055-0.079-0.107-0.162-0.156-0.245
	c-0.239-0.408-0.43-0.852-0.507-1.32c-0.034-0.217-0.089-0.479-0.063-0.702c0.047-0.397,0.109-0.758,0.292-1.119
	c0.112-0.221,0.227-0.418,0.387-0.61c0.215-0.258,0.477-0.44,0.777-0.584c0.276-0.132,0.58-0.227,0.882-0.276
	c0.166-0.028,0.335-0.063,0.505-0.067C15.518,1,15.539,1,15.56,1c0.164,0,0.317,0.014,0.487,0.039
	c0.097,0.008,0.193,0.028,0.284,0.059c0.162,0.065,0.339,0.118,0.485,0.217c0.118,0.081,0.229,0.164,0.341,0.253
	c0.073,0.059,0.146,0.118,0.213,0.185c0.178,0.178,0.339,0.379,0.474,0.592c0.304,0.483,0.523,1.121,0.507,1.693
	c-0.016,0.608-0.158,1.241-0.503,1.75c-0.262,0.385-0.622,0.653-1.044,0.839c-0.057,0.025-0.113,0.047-0.17,0.07
	c0.211,0.627,0.416,1.255,0.617,1.884c0.262,0.827,0.531,1.652,0.839,2.464c0.312,0.815,0.639,1.626,0.949,2.443
	c0.302,0.789,0.602,1.577,0.89,2.372c0.174,0.477,0.356,0.95,0.534,1.425c0.098,0.094,0.181,0.196,0.222,0.342
	c0.028,0.1,0.034,0.204,0.021,0.306c0.031,0.078,0.056,0.156,0.088,0.234c0.002,0.004,0.003,0.008,0.005,0.012
	c0.009,0.021,0.017,0.042,0.026,0.063c0.013,0.03,0.026,0.06,0.039,0.09c0.012,0.031,0.025,0.062,0.038,0.092
	c-0.012-0.029-0.025-0.057-0.038-0.086c0.015,0.035,0.03,0.07,0.046,0.105c0.012,0.029,0.024,0.057,0.036,0.086
	c-0.011-0.027-0.022-0.054-0.033-0.08c0.204,0.466,0.427,0.922,0.637,1.386c0.208,0.462,0.41,0.928,0.608,1.393
	c-0.005-0.013-0.01-0.026-0.016-0.039c0.011,0.027,0.022,0.054,0.033,0.08c0.016,0.037,0.032,0.075,0.048,0.112
	c-0.006-0.014-0.013-0.029-0.019-0.043c0.002,0.005,0.004,0.01,0.006,0.015c-0.004-0.009-0.008-0.018-0.012-0.027
	c0.007,0.016,0.013,0.031,0.02,0.047c0.02,0.049,0.04,0.097,0.061,0.145c-0.009-0.022-0.018-0.043-0.026-0.065
	c0.01,0.024,0.02,0.047,0.03,0.071c0,0,0,0.001,0.001,0.001l0-0.001c0,0.001,0.001,0.002,0.002,0.004
	c0.017,0.039,0.033,0.078,0.05,0.117c0.064,0.127,0.112,0.265,0.168,0.4c0.047,0.112,0.093,0.223,0.14,0.335
	c0.061,0.148,0.122,0.296,0.18,0.446c0.297,0.749,0.579,1.507,0.884,2.254c0.638,1.496,1.349,2.957,2.131,4.384
	c0.05,0.091,0.076,0.188,0.092,0.285C25.971,29.848,25.997,29.953,25.997,30.062z M22.283,21.53
	c0.015,0.035,0.029,0.071,0.044,0.106c0.002,0.003,0.003,0.007,0.005,0.01C22.316,21.607,22.299,21.568,22.283,21.53z M14.619,3.606
	c-0.003,0.076-0.003,0.149,0,0.225c0.04,0.218,0.094,0.431,0.169,0.64c0.085,0.171,0.183,0.333,0.292,0.492l0.001,0.001
	c0.052,0.033,0.104,0.065,0.156,0.096c0.07-0.039,0.146-0.068,0.227-0.085c0.215-0.047,0.425-0.107,0.631-0.18
	c0.04-0.02,0.079-0.041,0.118-0.063c0.028-0.028,0.056-0.057,0.082-0.086c0.024-0.038,0.046-0.076,0.067-0.115
	c0.034-0.1,0.063-0.2,0.085-0.303c0.007-0.106,0.008-0.212,0.003-0.319c-0.034-0.154-0.08-0.302-0.135-0.449
	c-0.049-0.093-0.1-0.182-0.158-0.268c-0.083-0.092-0.17-0.176-0.263-0.257c-0.02-0.013-0.04-0.025-0.061-0.036
	c-0.036-0.011-0.072-0.021-0.108-0.029c-0.084-0.002-0.168-0.001-0.251,0.004c-0.16,0.034-0.314,0.078-0.467,0.133
	c-0.062,0.034-0.121,0.069-0.18,0.107c-0.002,0.002-0.004,0.004-0.006,0.006c-0.052,0.086-0.097,0.173-0.14,0.262
	C14.656,3.456,14.636,3.53,14.619,3.606z M14.069,11.877c-0.052,0.136-0.103,0.272-0.154,0.409c1.138,0.846,2.242,1.736,3.362,2.605
	c0.274,0.206,0.551,0.41,0.826,0.615c-0.463-1.252-0.942-2.496-1.435-3.739c-0.312-0.787-0.596-1.586-0.88-2.384
	c-0.085-0.24-0.172-0.479-0.257-0.719c-0.082,0.182-0.155,0.368-0.239,0.549c-0.33,0.707-0.683,1.399-1,2.114
	C14.214,11.509,14.139,11.692,14.069,11.877z M12.268,16.593c-0.084,0.222-0.155,0.448-0.236,0.671
	c0.124,0.042,0.239,0.103,0.353,0.194c0.377,0.306,0.738,0.629,1.111,0.937c0.324,0.265,0.652,0.526,0.983,0.784
	c0.404,0.307,0.814,0.609,1.223,0.913c0.669,0.497,1.324,1.012,1.995,1.502c0.657,0.481,1.314,0.963,1.975,1.435
	c0.665,0.477,1.324,0.963,1.975,1.46c0.059,0.045,0.116,0.094,0.174,0.141c-0.096-0.244-0.194-0.487-0.291-0.73
	c-0.207-0.518-0.419-1.034-0.633-1.549c-0.022-0.042-0.04-0.086-0.055-0.131c-0.097-0.233-0.194-0.465-0.291-0.697
	c-0.338-0.785-0.715-1.553-1.047-2.339c-0.135-0.319-0.247-0.647-0.373-0.969c-0.905-0.672-1.807-1.35-2.701-2.034
	c-0.541-0.414-1.085-0.823-1.636-1.221c-0.493-0.357-0.993-0.705-1.488-1.06c-0.039,0.103-0.077,0.207-0.117,0.309
	C12.881,15.003,12.57,15.798,12.268,16.593z M16.616,29.429c-0.055-0.039-0.111-0.08-0.166-0.119
	c-0.663-0.468-1.312-0.953-1.965-1.431c-0.702-0.513-1.405-1.026-2.088-1.563c-0.645-0.507-1.271-1.04-1.918-1.546
	c-0.253-0.193-0.507-0.388-0.76-0.582c-0.182,0.504-0.363,1.008-0.547,1.51c-0.444,1.207-0.856,2.426-1.283,3.64
	c0.495-0.003,0.99-0.007,1.486-0.005c0.726,0,1.454,0,2.18-0.01c0.339-0.004,0.679-0.012,1.02,0.004
	c0.33,0.014,0.661,0.039,0.993,0.057c0.679,0.041,1.358,0.053,2.04,0.057C15.942,29.441,16.279,29.432,16.616,29.429z
	 M23.848,29.305c-0.113-0.219-0.226-0.438-0.335-0.659c-0.206-0.418-0.384-0.848-0.567-1.275c-0.133-0.035-0.253-0.094-0.372-0.187
	c-0.518-0.405-1.006-0.848-1.523-1.258c-0.3-0.228-0.602-0.453-0.908-0.675c-0.661-0.479-1.328-0.949-1.989-1.425
	c-0.685-0.493-1.379-0.973-2.048-1.488c-1.285-0.989-2.612-1.919-3.897-2.909c-0.247-0.19-0.492-0.38-0.737-0.57
	c-0.251,0.764-0.489,1.533-0.726,2.302c-0.142,0.461-0.302,0.917-0.457,1.374c0.08,0.042,0.157,0.091,0.236,0.153
	c0.618,0.485,1.225,0.981,1.817,1.5c0.541,0.477,1.09,0.937,1.655,1.381c0.897,0.677,1.805,1.34,2.712,2.001
	c0.442,0.322,0.886,0.637,1.332,0.951c0.191,0.136,0.397,0.245,0.594,0.371c0.236,0.149,0.457,0.32,0.671,0.5
	c0.364-0.006,0.729-0.016,1.093-0.018c0.833-0.006,1.667-0.022,2.5-0.039C23.216,29.33,23.532,29.316,23.848,29.305z M12.221,19.439
	c-0.004-0.003-0.008-0.006-0.012-0.009c-0.007-0.006-0.015-0.011-0.022-0.016C12.198,19.422,12.209,19.43,12.221,19.439z"/>
</svg>