<?xml version="1.0" encoding="utf-8"?>
<!-- Generator: Adobe Illustrator 21.1.0, SVG Export Plug-In . SVG Version: 6.00 Build 0)  -->
<svg version="1.1" id="designs" xmlns="http://www.w3.org/2000/svg" xmlns:xlink="http://www.w3.org/1999/xlink" x="0px" y="0px"
	 width="32px" height="32px" viewBox="0 0 32 32" style="enable-background:new 0 0 32 32;" xml:space="preserve">
<style type="text/css">
	.sketchy_een{fill:#111918;}
</style>
<path class="sketchy_een" d="M29.863,14.486c-0.087-0.497-0.239-0.975-0.485-1.418c-0.087-0.157-0.212-0.305-0.33-0.442
	c-0.159-0.182-0.339-0.328-0.533-0.468c-0.224-0.163-0.497-0.264-0.755-0.357c-0.212-0.076-0.438-0.112-0.66-0.146
	c-0.279-0.042-0.563-0.072-0.844-0.089c-0.215-0.013-0.433-0.022-0.65-0.03c-0.004-0.388-0.017-0.775-0.046-1.162
	c-0.032-0.436-0.099-0.87-0.182-1.297c-0.076-0.395-0.2-0.767-0.352-1.137c-0.285-0.67-0.589-1.329-0.981-1.945
	c-0.233-0.366-0.48-0.722-0.785-1.033c-0.288-0.294-0.612-0.563-0.948-0.8c-0.635-0.449-1.297-0.863-2.048-1.09
	c-0.734-0.222-1.494-0.362-2.256-0.449c-0.37-0.042-0.74-0.083-1.111-0.11c-0.177-0.012-0.355-0.017-0.532-0.017
	c-0.202,0-0.404,0.006-0.605,0.015c-0.787,0.038-1.57,0.121-2.346,0.254c-1.521,0.258-3.072,0.884-4.143,2.021
	C8.748,5.341,8.257,5.959,7.895,6.632C7.552,7.269,7.304,7.948,7.076,8.635c-0.121,0.364-0.233,0.73-0.32,1.104
	c-0.093,0.396-0.137,0.806-0.188,1.208c-0.013,0.1-0.017,0.201-0.028,0.302c-0.201-0.005-0.403-0.013-0.604-0.017
	c-0.103-0.002-0.206-0.004-0.309-0.004c-0.363,0-0.721,0.021-1.079,0.114c-0.296,0.076-0.571,0.241-0.819,0.415
	c-0.315,0.222-0.556,0.491-0.768,0.812c-0.137,0.203-0.233,0.448-0.322,0.671c-0.08,0.199-0.159,0.4-0.218,0.605
	c-0.265,0.906-0.356,1.851-0.393,2.793c-0.015,0.434-0.034,0.87-0.027,1.306c0.004,0.195,0.015,0.393,0.038,0.586
	c0.034,0.275,0.055,0.563,0.133,0.831c0.138,0.472,0.307,0.958,0.561,1.379c0.193,0.319,0.448,0.597,0.749,0.813
	c0.339,0.243,0.713,0.411,1.106,0.55c0.37,0.131,0.774,0.178,1.16,0.228c0.197,0.025,0.393,0.045,0.592,0.044
	c0.203-0.002,0.406-0.036,0.607-0.061c0.233-0.03,0.421-0.074,0.592-0.247c0.005-0.005,0.007-0.013,0.012-0.018
	c0.344-0.097,0.638-0.405,0.612-0.777c-0.044-0.654-0.049-1.31-0.066-1.966c-0.021-0.724-0.08-1.449-0.106-2.173
	c-0.043-1.143-0.061-2.288-0.087-3.432c0.115-0.144,0.194-0.319,0.198-0.515c0.007-0.319,0.085-1.986,0.134-2.395
	c0.157-0.992,0.466-1.954,0.842-2.884c0.251-0.552,0.564-1.059,0.919-1.55c0.27-0.329,0.554-0.645,0.881-0.919
	c0.325-0.224,0.673-0.412,1.032-0.582c0.76-0.301,1.564-0.469,2.372-0.58c0.632-0.079,1.266-0.128,1.902-0.143
	c0.641-0.016,1.286,0.04,1.923,0.118c0.364,0.056,0.726,0.119,1.085,0.205c0.33,0.081,0.656,0.16,0.973,0.277
	c0.512,0.241,0.997,0.548,1.452,0.884c0.278,0.229,0.548,0.469,0.78,0.743c0.252,0.349,0.487,0.71,0.7,1.084
	c0.217,0.379,0.401,0.779,0.582,1.177c0.205,0.525,0.327,1.076,0.41,1.635c0.06,0.515,0.083,1.032,0.094,1.551
	c-0.185,0.175-0.295,0.43-0.273,0.686c-0.099,0.131-0.159,0.293-0.159,0.467c0.002,0.849,0.019,1.699,0.015,2.549
	c-0.004,0.832-0.019,1.665-0.028,2.499c-0.01,0.787-0.042,1.581,0.002,2.368c0.006,0.107,0.017,0.213,0.027,0.32
	c-0.057,0.081-0.099,0.174-0.121,0.276c-0.156,0.745-0.305,1.493-0.563,2.21c-0.086,0.183-0.183,0.358-0.297,0.527
	c-0.232,0.274-0.493,0.514-0.772,0.743c-0.239,0.18-0.484,0.351-0.733,0.517c-0.268,0.178-0.548,0.322-0.838,0.457
	c-0.505,0.182-1.015,0.308-1.547,0.387c-0.003,0-0.005,0.001-0.008,0.001c-0.009-0.026-0.017-0.054-0.027-0.08
	c-0.138-0.372-0.334-0.7-0.641-0.958c-0.229-0.192-0.497-0.324-0.787-0.396c-0.192-0.049-0.394-0.063-0.592-0.08
	c-0.197-0.017-0.396-0.027-0.594-0.032c-0.102-0.004-0.203-0.005-0.304-0.005c-0.273,0-0.545,0.014-0.817,0.047
	c-0.415,0.049-0.817,0.152-1.217,0.265c-0.393,0.11-0.783,0.294-1.001,0.656c-0.192,0.322-0.326,0.677-0.385,1.047
	c-0.076,0.476-0.078,0.967,0.03,1.439c0.091,0.402,0.26,0.779,0.578,1.052c0.3,0.254,0.688,0.404,1.071,0.485
	c0.446,0.095,0.899,0.165,1.354,0.212c0.722,0.078,1.54,0.072,2.154-0.362c0.155-0.11,0.292-0.231,0.419-0.37
	c0.169-0.188,0.273-0.393,0.368-0.622c0.066-0.159,0.121-0.32,0.163-0.485c0.021-0.085,0.036-0.171,0.053-0.257
	c0.03,0.002,0.061,0.021,0.09,0.017c0.745-0.097,1.519-0.188,2.221-0.476c0.374-0.154,0.738-0.315,1.087-0.525
	c0.305-0.184,0.614-0.372,0.901-0.586c0.328-0.246,0.643-0.499,0.931-0.791c0.391-0.398,0.65-0.868,0.85-1.38
	c0.167-0.43,0.291-0.875,0.401-1.323c0.106,0.012,0.211,0.022,0.316,0.028c0.453,0.028,0.939-0.002,1.382-0.093
	c0.455-0.093,0.876-0.252,1.288-0.466c0.192-0.099,0.381-0.25,0.531-0.408c0.205-0.216,0.411-0.466,0.546-0.736
	c0.184-0.364,0.338-0.749,0.434-1.147c0.205-0.84,0.283-1.693,0.3-2.556C30.011,16.119,30.004,15.286,29.863,14.486z M5.988,20.661
	c-0.346-0.055-0.682-0.128-1.014-0.247c-0.172-0.083-0.337-0.179-0.494-0.288c-0.049-0.045-0.095-0.092-0.14-0.142
	c-0.119-0.172-0.216-0.352-0.302-0.542c-0.068-0.18-0.131-0.361-0.188-0.543c-0.052-0.164-0.082-0.337-0.109-0.509
	c-0.047-0.46-0.048-0.915-0.035-1.378c0.013-0.49,0.041-0.974,0.093-1.461c0.091-0.594,0.231-1.163,0.449-1.723
	c0.074-0.155,0.155-0.305,0.248-0.45c0.059-0.067,0.121-0.129,0.187-0.189c0.097-0.064,0.195-0.123,0.299-0.177
	C5.11,12.97,5.238,12.94,5.37,12.916c0.327-0.026,0.658-0.024,0.988-0.011c0.028,0.704,0.055,1.408,0.072,2.113
	c0.015,0.705,0,1.409,0.008,2.114c0.006,0.707,0.036,1.415,0.049,2.12c0.008,0.473,0.007,0.946,0.017,1.419
	C6.333,20.678,6.163,20.676,5.988,20.661z M17.332,26.551c-0.006,0.083-0.014,0.165-0.023,0.248
	c-0.045,0.256-0.108,0.504-0.195,0.749c-0.031,0.064-0.064,0.124-0.103,0.183c-0.027,0.029-0.056,0.056-0.085,0.083
	c-0.057,0.039-0.116,0.074-0.177,0.107c-0.092,0.031-0.186,0.052-0.281,0.069c-0.37,0.029-0.734,0.011-1.102-0.03
	c-0.386-0.059-0.767-0.134-1.134-0.269c-0.031-0.016-0.061-0.033-0.09-0.051c-0.011-0.011-0.021-0.021-0.032-0.032
	c-0.004-0.007-0.008-0.013-0.012-0.02c-0.049-0.149-0.086-0.299-0.114-0.453c-0.016-0.196-0.02-0.39-0.005-0.587
	c0.025-0.135,0.062-0.267,0.109-0.397c0.016-0.032,0.033-0.063,0.051-0.094c0.321-0.109,0.66-0.18,0.995-0.235
	c0.571-0.062,1.141-0.045,1.712,0.018c0.097,0.017,0.191,0.039,0.286,0.071c0.017,0.009,0.033,0.019,0.049,0.029
	c0.028,0.026,0.054,0.052,0.081,0.079c0.034,0.056,0.063,0.113,0.09,0.172c0.012,0.034,0.024,0.068,0.035,0.102
	C17.356,26.373,17.337,26.46,17.332,26.551z M25.404,20.64c0.001,0.007,0.002,0.014,0.003,0.021h0
	C25.406,20.654,25.405,20.647,25.404,20.64z M28.378,18.219c-0.074,0.456-0.177,0.906-0.338,1.34
	c-0.063,0.137-0.132,0.269-0.213,0.396c-0.087,0.103-0.178,0.199-0.279,0.289c-0.094,0.059-0.189,0.109-0.289,0.156
	c-0.279,0.106-0.566,0.18-0.86,0.231c-0.328,0.031-0.662,0.052-0.99,0.03c-0.056-0.532-0.065-1.064-0.07-1.601
	c-0.006-0.683-0.015-1.363-0.025-2.046c-0.018-1.265-0.004-2.529,0-3.794c0.025-0.019,0.056-0.031,0.078-0.053
	c0.222-0.002,0.444,0.006,0.664,0.013c0.286,0.011,0.571,0.034,0.854,0.067c0.205,0.037,0.402,0.083,0.596,0.152
	c0.082,0.042,0.161,0.087,0.239,0.137c0.092,0.081,0.176,0.167,0.257,0.26c0.057,0.085,0.107,0.173,0.153,0.264
	c0.11,0.3,0.186,0.604,0.238,0.918C28.512,16.048,28.503,17.148,28.378,18.219z M25.085,8.07c-0.018-0.044-0.04-0.086-0.058-0.13
	c-0.007-0.017-0.012-0.035-0.019-0.052C25.033,7.948,25.058,8.009,25.085,8.07z"/>
</svg>