<?xml version="1.0" encoding="utf-8"?>
<!-- Generator: Adobe Illustrator 21.1.0, SVG Export Plug-In . SVG Version: 6.00 Build 0)  -->
<svg version="1.1" id="designs" xmlns="http://www.w3.org/2000/svg" xmlns:xlink="http://www.w3.org/1999/xlink" x="0px" y="0px"
	 width="32px" height="32px" viewBox="0 0 32 32" style="enable-background:new 0 0 32 32;" xml:space="preserve">
<style type="text/css">
	.sketchy_een{fill:#111918;}
</style>
<path class="sketchy_een" d="M28.68,17.705c-0.104-0.133-0.238-0.244-0.41-0.291c-1.674-0.459-3.377-0.814-5.075-1.168
	c-0.831-0.172-1.669-0.312-2.504-0.466c-0.78-0.146-1.564-0.279-2.33-0.484c-0.03-0.008-0.059-0.016-0.089-0.023
	c-0.115-0.056-0.24-0.085-0.367-0.085c-0.14,0-0.281,0.036-0.414,0.113c-0.032,0.019-0.051,0.05-0.08,0.072
	c-0.074,0-0.148-0.006-0.219,0.014c-0.486,0.134-0.745,0.632-0.631,1.11c0.004,0.015,0.008,0.03,0.012,0.045
	c0.044,0.508,0.039,1.021,0.059,1.532c0.011,0.298,0.032,0.594,0.036,0.893c0.002,0.318-0.015,0.631-0.042,0.947
	c-0.061,0.395-0.146,0.786-0.284,1.159c-0.058,0.114-0.122,0.222-0.193,0.328c-0.019-0.021-0.037-0.041-0.055-0.062
	c-0.259-0.365-0.459-0.76-0.656-1.162c-0.23-0.473-0.469-0.942-0.685-1.421c-0.136-0.342-0.27-0.686-0.382-1.035
	c-0.136-0.418-0.245-0.843-0.384-1.257c-0.229-0.686-0.46-1.374-0.644-2.073c0.146-0.002,0.287-0.031,0.432-0.095
	c0.487-0.214,0.971-0.43,1.455-0.652c0.191-0.09,0.338-0.315,0.392-0.51c0.061-0.222,0.031-0.46-0.086-0.658
	c-0.111-0.191-0.296-0.334-0.51-0.394c-0.073-0.02-0.142-0.029-0.21-0.029c-0.153,0-0.298,0.046-0.448,0.115
	c-0.459,0.216-0.916,0.436-1.371,0.656c-0.004-0.019-0.007-0.037-0.011-0.056c-0.099-0.417-0.239-0.822-0.361-1.231
	c-0.059-0.193-0.115-0.387-0.17-0.581c0.119-0.014,0.235-0.047,0.352-0.103c0.382-0.183,0.772-0.352,1.162-0.521
	c0.195-0.086,0.346-0.325,0.399-0.522c0.063-0.226,0.031-0.47-0.088-0.671c-0.113-0.195-0.302-0.34-0.52-0.401
	c-0.074-0.021-0.144-0.029-0.213-0.029c-0.157,0-0.304,0.048-0.46,0.117c-0.382,0.171-0.747,0.363-1.112,0.566
	c-0.031-0.101-0.065-0.202-0.095-0.303c-0.139-0.464-0.313-0.915-0.491-1.363c0.084-0.021,0.168-0.043,0.252-0.083
	c0.396-0.189,0.789-0.39,1.181-0.589c0.434-0.22,0.554-0.82,0.319-1.219c-0.168-0.289-0.458-0.432-0.759-0.432
	c-0.154,0-0.312,0.038-0.458,0.113c-0.382,0.195-0.758,0.399-1.135,0.607c-0.084-0.247-0.167-0.493-0.255-0.738
	c-0.099-0.279-0.214-0.552-0.35-0.814c-0.128-0.249-0.331-0.47-0.506-0.681c-0.26-0.312-0.564-0.571-0.883-0.82
	C8.597,2.912,8.39,2.751,8.165,2.629C7.939,2.507,7.696,2.411,7.45,2.335C6.645,2.085,5.79,2,4.949,2C4.921,2,4.893,2,4.866,2
	C4.674,2.002,4.483,2.018,4.292,2.027c-0.1,0.005-0.193,0.032-0.283,0.064c-0.1-0.042-0.208-0.066-0.316-0.066
	c-0.482,0-0.839,0.39-0.858,0.856C2.817,3.357,2.821,3.833,2.831,4.309c0.004,0.21,0.008,0.422,0.01,0.633
	c0.004,0.254,0.021,0.487,0.057,0.74c0.013,0.094,0.063,0.186,0.128,0.27C3.024,5.966,3.016,5.98,3.016,5.995
	c0,0.499,0.398,0.841,0.874,0.872C4.12,6.883,4.351,6.9,4.581,6.922c0.211,0.032,0.419,0.071,0.622,0.134
	c0.073,0.04,0.142,0.083,0.21,0.13c0.056,0.049,0.11,0.1,0.162,0.155c0.073,0.224,0.117,0.455,0.162,0.686
	c0.05,0.243,0.097,0.485,0.143,0.73c0.086,0.455,0.155,0.914,0.239,1.369c0.078,0.439,0.14,0.881,0.208,1.321
	c0.075,0.472,0.17,0.937,0.264,1.405c0.09,0.46,0.161,0.925,0.258,1.386c0.094,0.445,0.212,0.885,0.319,1.329
	c0.113,0.466,0.241,0.931,0.352,1.397c0.109,0.457,0.214,0.914,0.334,1.367c0.247,0.921,0.528,1.835,0.824,2.741
	c0.304,0.935,0.7,1.831,1.116,2.718c0.377,0.797,0.791,1.571,1.265,2.311c0.51,0.795,1.126,1.525,1.823,2.16
	c0.734,0.667,1.651,1.053,2.582,1.361c0.499,0.166,1.017,0.239,1.537,0.298c0.447,0.051,0.9,0.091,1.351,0.08
	c1.909-0.048,3.802-0.847,5.088-2.274c0.292-0.325,0.568-0.666,0.837-1.007c0.277-0.354,0.593-0.669,0.889-1.005
	c0.629-0.706,1.11-1.521,1.6-2.326c0.442-0.729,0.864-1.468,1.252-2.227c0.178-0.342,0.357-0.684,0.52-1.034
	c0.134-0.289,0.245-0.593,0.419-0.86c0.084-0.13,0.157-0.273,0.191-0.426C29.251,18.385,29.062,17.936,28.68,17.705z M16.25,21.491
	c-0.004,0-0.007,0.001-0.011,0.001l0,0C16.243,21.492,16.246,21.491,16.25,21.491z M26.593,19.401
	c-0.233,0.501-0.493,0.986-0.753,1.476c-0.287,0.539-0.593,1.062-0.914,1.583c-0.314,0.505-0.629,1.006-0.981,1.483
	c-0.193,0.239-0.399,0.468-0.606,0.698c-0.284,0.313-0.542,0.646-0.798,0.983c-0.355,0.453-0.727,0.898-1.172,1.263
	c-0.378,0.278-0.776,0.52-1.203,0.718c-0.44,0.175-0.9,0.322-1.366,0.405c-0.668,0.063-1.349,0.036-2.016-0.043
	c-0.577-0.105-1.125-0.282-1.673-0.493c-0.321-0.147-0.638-0.316-0.927-0.52c-0.274-0.226-0.533-0.469-0.783-0.723
	c-0.268-0.273-0.502-0.583-0.739-0.886c-0.407-0.55-0.75-1.148-1.077-1.75c-0.34-0.625-0.645-1.274-0.932-1.927
	c-0.339-0.844-0.626-1.707-0.878-2.582c-0.138-0.481-0.275-0.961-0.403-1.445c-0.117-0.44-0.212-0.885-0.319-1.327
	c-0.22-0.908-0.474-1.812-0.646-2.729C8.234,12.664,8.03,11.746,7.9,10.817C7.743,9.703,7.548,8.593,7.355,7.484
	c-0.023-0.14-0.05-0.277-0.078-0.415C7.206,6.725,7.049,6.429,6.82,6.167C6.608,5.924,6.333,5.72,6.054,5.559
	c-0.296-0.17-0.656-0.233-0.986-0.298C4.886,5.226,4.703,5.201,4.519,5.18C4.493,4.859,4.502,4.534,4.507,4.214
	C4.51,4.072,4.517,3.932,4.52,3.792c0.508-0.026,1.012-0.044,1.521,0.005C6.445,3.862,6.852,3.958,7.236,4.1
	c0.22,0.112,0.425,0.24,0.627,0.384c0.226,0.187,0.432,0.385,0.623,0.61c0.129,0.178,0.242,0.359,0.338,0.558
	C9.131,6.444,9.39,7.253,9.709,8.04c0.164,0.401,0.327,0.803,0.449,1.22c0.124,0.418,0.247,0.835,0.378,1.25
	c0.13,0.403,0.247,0.807,0.348,1.217c0.101,0.415,0.245,0.818,0.352,1.231c0.105,0.397,0.166,0.809,0.25,1.212
	c0.09,0.43,0.208,0.849,0.344,1.266c0.147,0.445,0.298,0.889,0.447,1.332c0.157,0.466,0.289,0.94,0.449,1.405
	c0.164,0.482,0.369,0.958,0.579,1.418c0.201,0.439,0.422,0.868,0.615,1.311c0.147,0.351,0.299,0.701,0.496,1.027
	c0.08,0.136,0.168,0.264,0.26,0.39c0.262,0.357,0.537,0.655,0.959,0.818c0.172,0.067,0.359,0.094,0.545,0.084
	c0.266-0.011,0.499-0.103,0.73-0.228c0.327-0.172,0.564-0.51,0.759-0.816c0.222-0.35,0.369-0.757,0.487-1.152
	c0.126-0.43,0.18-0.885,0.22-1.329c0.036-0.396,0.036-0.799,0.027-1.197c-0.008-0.365-0.021-0.73-0.025-1.095
	c-0.001-0.136-0.002-0.275-0.002-0.414c0.085,0.012,0.171,0.023,0.25,0.036c0.388,0.063,0.776,0.126,1.164,0.189
	c0.847,0.137,1.69,0.291,2.531,0.451c1.547,0.295,3.077,0.651,4.594,1.067C26.811,18.958,26.698,19.176,26.593,19.401z
	 M24.386,20.512c0.059,0.216,0.017,0.413-0.08,0.61c-0.214,0.43-0.43,0.862-0.663,1.283c-0.208,0.378-0.438,0.743-0.663,1.112
	c-0.193,0.317-0.396,0.629-0.594,0.944c-0.218,0.35-0.471,0.671-0.724,0.994c-0.073,0.096-0.145,0.193-0.218,0.291
	c-0.071,0.121-0.166,0.216-0.287,0.289c-0.126,0.073-0.262,0.109-0.407,0.109c-0.212,0-0.419-0.086-0.568-0.235
	c-0.319-0.319-0.298-0.816,0-1.137c0.134-0.145,0.256-0.298,0.375-0.454c0.426-0.561,0.809-1.146,1.184-1.741
	c0.457-0.721,0.828-1.485,1.202-2.253c0.124-0.256,0.404-0.386,0.68-0.386c0.141,0,0.282,0.034,0.4,0.103
	C24.201,20.143,24.333,20.315,24.386,20.512z"/>
</svg>