<?xml version="1.0" encoding="utf-8"?>
<!-- Generator: Adobe Illustrator 21.1.0, SVG Export Plug-In . SVG Version: 6.00 Build 0)  -->
<svg version="1.1" id="designs" xmlns="http://www.w3.org/2000/svg" xmlns:xlink="http://www.w3.org/1999/xlink" x="0px" y="0px"
	 width="32px" height="32px" viewBox="0 0 32 32" style="enable-background:new 0 0 32 32;" xml:space="preserve">
<style type="text/css">
	.sketchy_een{fill:#111918;}
</style>
<path class="sketchy_een" d="M29.629,14.971c-0.196-0.213-0.398-0.419-0.583-0.639c-0.232-0.279-0.451-0.569-0.684-0.846
	c-0.52-0.626-1.035-1.258-1.563-1.876c-0.537-0.63-1.054-1.276-1.606-1.893c-0.556-0.622-1.112-1.244-1.685-1.853
	c-0.441-0.469-0.89-0.929-1.339-1.391c-0.428-0.441-0.85-0.89-1.282-1.329c-0.439-0.449-0.899-0.879-1.342-1.323
	c-0.498-0.5-0.939-1.046-1.403-1.576C17.996,2.077,17.786,2,17.574,2c-0.111,0-0.222,0.022-0.325,0.062
	c-0.042-0.007-0.082-0.024-0.124-0.024c-0.205,0-0.411,0.078-0.572,0.227c-0.296,0.277-0.584,0.562-0.88,0.837
	c-0.271,0.253-0.524,0.522-0.792,0.781c-0.462,0.447-0.903,0.918-1.376,1.354c-0.543,0.5-1.067,1.011-1.582,1.537
	c-0.498,0.505-0.999,1.003-1.501,1.505C9.917,8.781,9.376,9.248,8.857,9.74c-0.571,0.539-1.141,1.08-1.71,1.623
	c-0.554,0.526-1.105,1.06-1.627,1.618c-0.511,0.547-1.043,1.075-1.559,1.616c-0.46,0.481-0.909,0.979-1.401,1.427
	c-0.163,0.15-0.22,0.368-0.199,0.579c-0.058,0.114-0.1,0.238-0.102,0.374c-0.009,0.428-0.004,0.858-0.013,1.288
	c-0.011,0.4-0.036,0.801-0.043,1.201c-0.017,0.811-0.077,1.619-0.089,2.43c-0.021,1.593,0.062,3.186,0.1,4.777
	c0.008,0.379,0.019,0.758,0.026,1.135c0.008,0.371,0.023,0.752-0.019,1.122c-0.023,0.204,0.1,0.439,0.239,0.577
	c0.151,0.151,0.36,0.238,0.575,0.238c0.117,0,0.226-0.027,0.326-0.071c0.778-0.027,1.555-0.05,2.333-0.022
	c0.815,0.028,1.631,0.021,2.445,0.068c0.398,0.023,0.796,0.051,1.195,0.066c0.368,0.015,0.735,0.008,1.103,0.015
	c0.337,0.008,0.677,0.017,1.012,0.049c0.305,0.028,0.607,0.058,0.913,0.066c0.343,0.008,0.684,0.006,1.028,0.015
	c0.33,0.009,0.658,0.06,0.99,0.07c0.295,0.008,0.548-0.158,0.708-0.389c0.225,0.022,0.457-0.045,0.641-0.206
	c0.189-0.168,0.371-0.334,0.549-0.513c0.241-0.243,0.488-0.483,0.735-0.72c0.534-0.507,1.06-1.022,1.603-1.518
	c0.569-0.52,1.114-1.063,1.676-1.591c0.575-0.541,1.109-1.124,1.697-1.653c0.285-0.256,0.575-0.511,0.854-0.779
	c0.283-0.27,0.564-0.543,0.85-0.809c0.577-0.534,1.165-1.056,1.736-1.593c0.567-0.534,1.159-1.041,1.746-1.554
	c0.592-0.518,1.161-1.061,1.744-1.589c0.126-0.115,0.251-0.228,0.377-0.343c0.122-0.109,0.178-0.258,0.204-0.412
	c0.17-0.119,0.303-0.288,0.359-0.488C29.945,15.524,29.846,15.211,29.629,14.971z M26.419,17.359
	c-0.586,0.545-1.201,1.061-1.797,1.595c-0.584,0.52-1.167,1.041-1.746,1.565c-0.556,0.507-1.078,1.048-1.635,1.554
	c-0.3,0.273-0.601,0.545-0.884,0.833c-0.266,0.272-0.526,0.547-0.797,0.811c-0.292,0.283-0.594,0.552-0.886,0.833
	c-0.275,0.266-0.545,0.537-0.828,0.798c-0.547,0.505-1.114,0.992-1.663,1.497c-0.266,0.241-0.53,0.484-0.782,0.739
	c-0.198,0.198-0.39,0.402-0.603,0.584c-0.05,0.043-0.101,0.084-0.151,0.126c-0.085-0.029-0.172-0.055-0.266-0.058
	c-0.611-0.021-1.222-0.017-1.833-0.028c-0.616-0.011-1.231-0.055-1.848-0.074c-0.373-0.011-0.748-0.013-1.122-0.019
	c-0.377-0.008-0.752-0.036-1.129-0.058c-0.822-0.049-1.648-0.04-2.472-0.049c-0.669-0.007-1.341-0.02-2.012-0.02
	c-0.033,0-0.066,0.001-0.099,0.001c0.007-0.374,0.016-0.748,0.019-1.121c0.002-0.379-0.006-0.756-0.009-1.135
	c-0.004-0.405,0.002-0.811-0.013-1.214c-0.026-0.814-0.066-1.627-0.051-2.442c0.015-0.813,0.045-1.623,0.051-2.436
	c0.004-0.42,0.004-0.839,0.013-1.259c0.009-0.469,0.045-0.935,0.062-1.403c0.003-0.079-0.022-0.152-0.042-0.225
	c0.368-0.373,0.739-0.742,1.1-1.121c0.255-0.266,0.518-0.522,0.771-0.79c0.26-0.277,0.518-0.558,0.777-0.837
	c1.058-1.133,2.245-2.147,3.394-3.184c0.53-0.479,1.071-0.948,1.589-1.439c0.515-0.486,1.012-0.992,1.503-1.503
	c0.507-0.53,1.031-1.048,1.578-1.538c0.221-0.198,0.422-0.411,0.633-0.62c0.247-0.245,0.496-0.49,0.741-0.739
	c0.258-0.264,0.513-0.535,0.784-0.786c0.166-0.153,0.336-0.302,0.505-0.451c0.229,0.25,0.456,0.503,0.695,0.743
	c0.294,0.294,0.613,0.566,0.924,0.841c0.637,0.567,1.216,1.19,1.812,1.799c0.594,0.609,1.195,1.214,1.774,1.84
	c0.56,0.607,1.099,1.231,1.646,1.848c0.539,0.609,1.035,1.254,1.557,1.876c0.485,0.578,0.948,1.174,1.413,1.767
	c0.2,0.266,0.392,0.538,0.589,0.807c0.122,0.167,0.236,0.34,0.351,0.512C27.488,16.297,26.972,16.847,26.419,17.359z M13.7,17.179
	c-0.441,0.428-0.879,0.856-1.346,1.254c-0.173,0.147-0.353,0.243-0.586,0.243c-0.219,0-0.43-0.089-0.584-0.243
	c-0.155-0.155-0.243-0.366-0.243-0.584c0-0.202,0.083-0.452,0.243-0.586c0.483-0.4,0.965-0.799,1.437-1.214
	c0.441-0.39,0.896-0.764,1.333-1.158c0.452-0.409,0.89-0.837,1.335-1.256c0.224-0.211,0.452-0.422,0.673-0.637
	c0.17-0.168,0.322-0.356,0.503-0.509c0.172-0.144,0.364-0.237,0.576-0.237c0.068,0,0.137,0.009,0.208,0.029
	c0.202,0.055,0.377,0.19,0.483,0.37c0.109,0.187,0.14,0.413,0.081,0.622c-0.058,0.213-0.192,0.36-0.37,0.483
	c-0.012,0.008-0.025,0.017-0.036,0.025c-0.393,0.32-0.771,0.659-1.142,1.002c-0.432,0.398-0.843,0.818-1.276,1.216
	C14.56,16.393,14.12,16.775,13.7,17.179z M20.816,15.246c0.218,0.373,0.086,0.822-0.252,1.062c-0.078,0.073-0.148,0.153-0.225,0.227
	c-0.102,0.102-0.207,0.202-0.311,0.304c-0.255,0.249-0.515,0.49-0.775,0.733c-0.481,0.454-0.997,0.875-1.495,1.312
	c-0.539,0.475-1.075,0.956-1.599,1.45c-0.507,0.481-0.98,1.001-1.471,1.501c-0.298,0.304-0.807,0.3-1.107,0
	c-0.302-0.302-0.302-0.807,0-1.109c0.258-0.258,0.528-0.505,0.794-0.758c0.258-0.247,0.515-0.498,0.777-0.743
	c0.518-0.485,1.039-0.969,1.565-1.448c0.507-0.464,1.016-0.928,1.516-1.399c0.268-0.255,0.535-0.507,0.801-0.762
	c0.111-0.107,0.217-0.217,0.324-0.328c0.119-0.123,0.234-0.222,0.371-0.328c0.101-0.078,0.246-0.109,0.386-0.109
	c0.08,0,0.159,0.01,0.226,0.028C20.541,14.935,20.712,15.069,20.816,15.246z M9.684,22.334c-0.168-0.247-0.349-0.413-0.59-0.588
	c-0.381-0.274-0.872-0.348-1.337-0.348c-0.053,0-0.106,0.001-0.158,0.003c-0.356,0.013-0.722,0.066-1.06,0.179
	c-0.276,0.093-0.482,0.315-0.536,0.583c-0.269,0.365-0.479,0.789-0.563,1.23c-0.081,0.428-0.036,0.854,0.104,1.265
	c0.07,0.207,0.17,0.407,0.273,0.6c0.217,0.396,0.543,0.652,0.963,0.805c0.285,0.104,0.611,0.136,0.912,0.111
	c0.277-0.023,0.532-0.085,0.782-0.207c0.128-0.062,0.251-0.132,0.373-0.204c0.209-0.126,0.415-0.26,0.583-0.439
	c0.145-0.151,0.266-0.326,0.375-0.503c0.183-0.298,0.223-0.666,0.258-1.005c0.026-0.264-0.004-0.52-0.045-0.781
	C9.98,22.787,9.825,22.542,9.684,22.334z M8.46,23.849C8.447,23.925,8.432,24,8.41,24.074c-0.031,0.06-0.065,0.119-0.103,0.175
	c-0.046,0.052-0.094,0.101-0.145,0.147c-0.121,0.082-0.246,0.155-0.377,0.22c-0.031,0.01-0.062,0.019-0.094,0.027
	c-0.089,0.005-0.176,0.004-0.265-0.002c-0.058-0.013-0.114-0.028-0.171-0.047c-0.026-0.013-0.051-0.028-0.076-0.043
	c-0.003-0.003-0.006-0.006-0.009-0.009c-0.079-0.119-0.149-0.243-0.211-0.371c-0.036-0.102-0.068-0.203-0.09-0.308
	c-0.006-0.079-0.008-0.156-0.003-0.236c0.009-0.043,0.019-0.085,0.031-0.128c0.078-0.153,0.165-0.302,0.261-0.444
	c0.028-0.033,0.056-0.066,0.085-0.099c0.188-0.014,0.377-0.015,0.565,0c0.082,0.015,0.163,0.033,0.243,0.057
	c0.041,0.022,0.081,0.045,0.12,0.07c0.045,0.04,0.088,0.081,0.129,0.125c0.049,0.071,0.094,0.144,0.135,0.22
	c0.012,0.041,0.022,0.081,0.031,0.123C8.471,23.652,8.469,23.749,8.46,23.849z"/>
</svg>