<?xml version="1.0" encoding="utf-8"?>
<!-- Generator: Adobe Illustrator 21.1.0, SVG Export Plug-In . SVG Version: 6.00 Build 0)  -->
<svg version="1.1" id="designs" xmlns="http://www.w3.org/2000/svg" xmlns:xlink="http://www.w3.org/1999/xlink" x="0px" y="0px"
	 width="32px" height="32px" viewBox="0 0 32 32" style="enable-background:new 0 0 32 32;" xml:space="preserve">
<style type="text/css">
	.sketchy_een{fill:#111918;}
</style>
<path class="sketchy_een" d="M10.578,26.071c0,0.46-0.384,0.844-0.845,0.844c-0.46,0-0.845-0.384-0.845-0.844
	s0.384-0.845,0.845-0.845C10.193,25.226,10.578,25.61,10.578,26.071z M13.3,9.587c0.004,1.19,0.025,2.38-0.025,3.571
	c-0.068,1.563-0.052,3.132-0.014,4.697c0.019,0.765,0.041,1.528,0.037,2.293c-0.002,0.386-0.002,0.771,0,1.157
	c0,0.416,0.023,0.829-0.035,1.241c-0.027,0.192-0.206,0.385-0.365,0.478c-0.184,0.107-0.41,0.136-0.616,0.08
	c-0.118-0.032-0.222-0.1-0.313-0.182c-0.301-0.01-0.604-0.001-0.904,0.001c-0.39,0-0.782-0.006-1.173-0.013
	c-0.429-0.006-0.858-0.012-1.287,0.002c-0.462,0.011-0.922,0.029-1.382,0.031c-0.13,0-0.25-0.038-0.361-0.093
	c-0.333-0.11-0.591-0.417-0.584-0.783c0.008-0.437,0.043-0.874,0.047-1.312c0.004-0.522,0.006-1.047,0.006-1.569
	c-0.002-1.066,0.004-2.13,0.012-3.196c0.01-1.588-0.037-3.177-0.06-4.767C6.27,10.414,6.264,9.604,6.264,8.794
	c0-0.392,0.006-0.786-0.006-1.178c-0.011-0.378-0.04-0.753-0.069-1.129C6.121,6.364,6.071,6.232,6.071,6.087
	c0-0.462,0.384-0.843,0.845-0.845c0.534-0.002,1.068-0.004,1.604,0c0.202,0.002,0.404,0,0.606,0C9.355,5.24,9.582,5.238,9.811,5.24
	c0.417,0.004,0.837,0.021,1.254,0.021c0.412-0.002,0.817-0.029,1.229-0.064c0.018-0.001,0.035-0.002,0.053-0.002
	c0.036,0,0.067,0.019,0.102,0.025c0.021-0.002,0.041-0.013,0.062-0.013c0.437,0,0.775,0.357,0.786,0.784
	C13.329,7.189,13.298,8.389,13.3,9.587z M11.725,20.624c-0.002-0.552-0.014-1.105-0.029-1.656c-0.013-0.519-0.013-1.037-0.01-1.555
	c-0.031-0.003-0.06,0-0.092-0.005c-0.002,0-0.005-0.001-0.007-0.001c-0.312-0.029-0.626-0.023-0.94-0.028
	c-0.342-0.006-0.682-0.016-1.023-0.018c-0.575-0.006-1.148,0.029-1.722,0.055c0.001,0.235,0.002,0.471,0.004,0.707
	c0.006,0.693,0,1.388-0.006,2.081c-0.002,0.355-0.004,0.713,0.008,1.066c0,0.01,0.001,0.019,0.001,0.029
	c0.255,0.004,0.509,0.007,0.764,0.01c0.406,0.004,0.812-0.01,1.219-0.016c0.293-0.003,0.585-0.009,0.877-0.009
	c0.109,0,0.218,0.001,0.327,0.003c0.118,0.002,0.239,0.002,0.359,0.002c0.09,0,0.18,0.006,0.27,0.006
	C11.725,21.072,11.725,20.849,11.725,20.624z M11.786,12.014c-0.669-0.032-1.336-0.083-2.006-0.1c-0.641-0.017-1.28,0-1.92,0.015
	c0.007,0.484,0.011,0.968,0.018,1.453c0.009,0.809,0.011,1.617,0.014,2.425c0.619-0.008,1.239-0.01,1.858-0.033
	c0.355-0.012,0.713-0.025,1.07-0.029c0.182-0.004,0.365-0.006,0.548-0.008c0.014,0,0.027,0,0.041,0c0.098,0,0.194,0.018,0.29,0.028
	c0-0.066,0.001-0.132,0.002-0.197c0.002-0.806,0.012-1.606,0.052-2.41C11.772,12.777,11.781,12.396,11.786,12.014z M11.801,8.418
	c-0.003-0.523-0.028-1.046-0.048-1.569c-0.025,0.001-0.049,0.001-0.074,0.002c-0.204,0.01-0.41,0.018-0.614,0.016
	c-0.417-0.004-0.837-0.012-1.254-0.006c-0.657,0.009-1.314,0.029-1.97,0.046c0.032,1.003-0.008,2.006-0.005,3.011
	c0,0.165,0.005,0.329,0.006,0.493c0.178,0.002,0.355,0.003,0.533,0.006c0.485,0.008,0.971,0.015,1.458,0.006
	c0.384-0.006,0.769-0.013,1.153-0.006c0.27,0.006,0.541,0.008,0.811,0.018C11.8,9.763,11.804,9.091,11.801,8.418z M28.359,12.37
	c0.023,0.17,0.007,0.344-0.095,0.49c-0.247,0.355-0.487,0.713-0.736,1.066c-0.483,0.693-1,1.361-1.478,2.058
	c-0.219,0.32-0.425,0.648-0.631,0.975c-0.219,0.35-0.462,0.678-0.705,1.01c-0.487,0.668-0.946,1.357-1.423,2.033
	c-0.476,0.678-0.973,1.34-1.468,2.004c-0.482,0.649-0.949,1.309-1.412,1.973c-0.441,0.631-0.903,1.249-1.355,1.872
	c-0.225,0.311-0.445,0.627-0.662,0.944c-0.219,0.32-0.427,0.65-0.652,0.965c-0.221,0.313-0.448,0.622-0.678,0.928
	c-0.235,0.312-0.454,0.633-0.695,0.942c-0.118,0.154-0.367,0.229-0.551,0.229c-0.02,0-0.038-0.01-0.058-0.012
	c-0.141,0.094-0.299,0.162-0.476,0.153c-0.122-0.006-0.243-0.011-0.363-0.017c-0.829-0.035-1.658-0.043-2.487-0.037
	c-0.856,0.004-1.713-0.016-2.567-0.018c-0.868,0-1.734-0.021-2.6-0.045c-0.864-0.023-1.728-0.01-2.592-0.039
	c-0.456-0.014-0.837-0.369-0.837-0.835c0-0.125,0.036-0.243,0.09-0.353c-0.003-1.614-0.002-3.228-0.061-4.841
	c-0.062-1.699-0.163-3.396-0.214-5.097c-0.049-1.662,0.002-3.326,0.018-4.99c0.014-1.713,0.012-3.427,0.017-5.14
	c0.004-0.817-0.014-1.633-0.014-2.45c0.002-0.889-0.021-1.777-0.029-2.666C3.643,3.353,3.67,3.239,3.716,3.135
	c-0.026-0.078-0.05-0.158-0.05-0.245c0-0.43,0.36-0.82,0.797-0.82c0.007,0,0.015,0,0.022,0C4.83,2.081,5.176,2.093,5.524,2.1
	C6.353,2.12,7.18,2.133,8.009,2.127C8.824,2.122,9.64,2.149,10.453,2.16c0.812,0.012,1.623,0.006,2.435,0.016
	c0.604,0.006,1.21,0.024,1.815,0.017C14.853,2.08,15.029,2,15.225,2c0.482,0,0.88,0.4,0.882,0.88c0,0.129,0.003,0.257,0.003,0.386
	c0.001,0,0.003,0.001,0.004,0.001c0.253,0.121,0.506,0.237,0.759,0.354c0.479,0.198,0.957,0.39,1.441,0.577
	c0.495,0.192,1,0.365,1.499,0.549c0.485,0.181,0.984,0.328,1.478,0.491c0.588,0.198,1.19,0.365,1.728,0.685
	c0.384,0.231,0.524,0.738,0.295,1.128c-0.015,0.026-0.041,0.042-0.059,0.065c-0.103,0.324-0.216,0.644-0.328,0.965
	c0.827,0.511,1.646,1.033,2.435,1.601c0.454,0.326,0.891,0.676,1.351,0.998c0.212,0.147,0.421,0.299,0.629,0.452
	c0.099,0.072,0.198,0.146,0.295,0.218c0.12,0.089,0.25,0.173,0.361,0.274c0.103,0.093,0.182,0.2,0.266,0.313
	C28.351,12.052,28.368,12.215,28.359,12.37z M14.59,10.984c0.017-0.876,0.014-1.751-0.019-2.625
	c-0.035-0.899-0.062-1.798-0.103-2.697c-0.027-0.618-0.062-1.234-0.09-1.852c-0.04-0.001-0.079-0.003-0.119-0.004
	c-1.592-0.015-3.184-0.035-4.776-0.07c-0.819-0.019-1.639-0.045-2.46-0.041c-0.557,0.002-1.113,0.005-1.67,0.008
	C5.345,4.607,5.337,5.511,5.349,6.416c0.014,0.899,0.039,1.8,0.043,2.699c0.006,1.726-0.014,3.452-0.029,5.178
	c-0.016,1.664-0.004,3.328,0.041,4.992c0.023,0.823,0.031,1.645,0.072,2.466c0.043,0.878,0.095,1.755,0.126,2.635
	c0.027,0.802,0.012,1.604,0.05,2.406c0.022,0.473,0.031,0.946,0.042,1.419c1.496,0.062,2.993,0.075,4.49,0.066
	c0.868-0.006,1.736-0.002,2.604-0.039c0.417-0.017,0.833-0.049,1.25-0.052c0.09-0.001,0.181,0.001,0.272,0.001
	c0.035-0.567,0.07-1.133,0.086-1.703c0.025-0.846,0.029-1.689,0.027-2.536c-0.006-1.736-0.002-3.47,0.058-5.206
	c0.062-1.769,0.056-3.538,0.058-5.308C14.54,12.617,14.575,11.802,14.59,10.984z M16.148,5.074c0.007,0.164,0.008,0.328,0.017,0.493
	c0.049,0.846,0.08,1.695,0.124,2.542c0.047,0.887,0.068,1.775,0.049,2.662c-0.017,0.827-0.052,1.654-0.056,2.481
	c-0.006,0.876,0,1.75-0.004,2.623c-0.004,0.878-0.033,1.751-0.06,2.627c-0.033,1.105-0.04,2.211-0.042,3.317
	c0.364-0.893,0.718-1.79,1.073-2.685c0.202-0.507,0.394-1.018,0.59-1.526c0.202-0.524,0.417-1.045,0.614-1.571
	c0.291-0.777,0.532-1.569,0.804-2.351c0.27-0.769,0.522-1.542,0.798-2.307c0.278-0.767,0.575-1.524,0.849-2.291
	c0.245-0.686,0.457-1.381,0.667-2.077c-0.46-0.178-0.935-0.315-1.404-0.468c-0.497-0.161-0.984-0.349-1.478-0.524
	c-0.532-0.19-1.07-0.369-1.602-0.559C16.768,5.346,16.461,5.203,16.148,5.074z M17.461,22.802c-0.001,0.002-0.002,0.004-0.002,0.005
	c0.003-0.007,0.006-0.013,0.009-0.02C17.465,22.792,17.463,22.797,17.461,22.802z M26.554,12.517
	c-0.265-0.203-0.529-0.406-0.797-0.602c-0.41-0.299-0.804-0.619-1.231-0.893c-0.449-0.288-0.897-0.573-1.355-0.849
	c-0.275-0.166-0.552-0.326-0.829-0.488c-0.087,0.228-0.171,0.457-0.26,0.685c-0.204,0.526-0.404,1.052-0.59,1.584
	c-0.19,0.546-0.361,1.095-0.546,1.643c-0.268,0.802-0.53,1.608-0.814,2.406c-0.266,0.744-0.581,1.472-0.866,2.208
	c-0.289,0.742-0.59,1.479-0.868,2.227c-0.27,0.73-0.553,1.458-0.856,2.175c-0.023,0.052-0.045,0.106-0.067,0.159
	c0.013-0.029,0.025-0.058,0.038-0.088c-0.023,0.054-0.046,0.108-0.069,0.162c-0.003,0.008-0.007,0.016-0.01,0.025
	c0.003-0.007,0.006-0.014,0.009-0.021c-0.137,0.315-0.28,0.627-0.416,0.944c-0.188,0.467-0.366,0.939-0.517,1.421
	c-0.153,0.489-0.266,0.995-0.371,1.498c-0.005,0.229-0.015,0.458-0.022,0.686c0.319-0.459,0.637-0.918,0.946-1.385
	c0.431-0.649,0.885-1.278,1.336-1.913c0.452-0.635,0.899-1.276,1.342-1.918c0.466-0.679,0.955-1.34,1.439-2.006
	c0.487-0.67,0.963-1.346,1.443-2.021c0.476-0.668,0.982-1.312,1.443-1.99c0.458-0.676,0.911-1.353,1.388-2.017
	c0.243-0.336,0.482-0.676,0.709-1.023C26.292,12.923,26.423,12.721,26.554,12.517z"/>
</svg>