<?xml version="1.0" encoding="utf-8"?>
<!-- Generator: Adobe Illustrator 21.1.0, SVG Export Plug-In . SVG Version: 6.00 Build 0)  -->
<svg version="1.1" id="designs" xmlns="http://www.w3.org/2000/svg" xmlns:xlink="http://www.w3.org/1999/xlink" x="0px" y="0px"
	 width="32px" height="32px" viewBox="0 0 32 32" style="enable-background:new 0 0 32 32;" xml:space="preserve">
<style type="text/css">
	.sketchy_een{fill:#111918;}
</style>
<path class="sketchy_een" d="M25.474,12.848c-0.03-1.637-0.172-3.27-0.177-4.908c-0.004-0.7-0.008-1.4-0.026-2.101
	c-0.003-0.115-0.032-0.224-0.077-0.324c0.023-0.124,0.025-0.248-0.009-0.372c-0.047-0.323-0.176-0.625-0.315-0.916
	c-0.134-0.285-0.285-0.53-0.481-0.775c-0.215-0.276-0.506-0.491-0.791-0.689c-0.283-0.198-0.587-0.356-0.921-0.447
	c-0.736-0.2-1.497-0.275-2.256-0.298C20.159,2.01,19.9,2,19.64,2c-0.068,0-0.136,0-0.204,0.002c-0.349,0.01-0.698,0.016-1.048,0.019
	c-0.729,0.008-1.459,0.008-2.19,0.009c-0.738,0.002-1.478,0.017-2.216,0.006c-0.744-0.011-1.487-0.019-2.231-0.024
	c-0.391-0.004-0.781-0.004-1.172-0.004C10.221,2.01,9.859,2.002,9.5,2.04C9.128,2.082,8.768,2.132,8.422,2.278
	c-0.181,0.076-0.361,0.153-0.53,0.251c-0.115,0.066-0.217,0.149-0.32,0.229C7.39,2.9,7.232,3.039,7.109,3.246
	C7.01,3.412,6.929,3.608,6.863,3.788c-0.127,0.341-0.14,0.706-0.124,1.069c-0.035,0.087-0.057,0.18-0.057,0.278
	c0.006,0.855-0.002,1.707-0.04,2.562C6.606,8.521,6.58,9.343,6.538,10.167c-0.081,1.629-0.087,3.26-0.083,4.891
	c0.004,1.618,0.04,3.235,0.07,4.853c0.013,0.785,0.032,1.57,0.04,2.354c0.008,0.763-0.002,1.525,0,2.286
	c0.004,1.506,0.013,3.013,0.006,4.517c0.011-0.073,0.021-0.147,0.03-0.221c-0.002,0.015-0.004,0.032-0.006,0.047
	c-0.034,0.234-0.042,0.43,0.083,0.642c0.109,0.185,0.289,0.325,0.496,0.381c0.071,0.02,0.143,0.014,0.216,0.014
	c0.089,0.036,0.184,0.059,0.285,0.058c1.61-0.009,3.22-0.045,4.83-0.053c0.772-0.004,1.544,0.015,2.316,0.032
	c0.717,0.017,1.436,0.034,2.156,0.032c0.445,0,0.891-0.006,1.335-0.015c0.419-0.01,0.838-0.047,1.257-0.061
	c0.167-0.006,0.315-0.072,0.442-0.164c0.099-0.015,0.197-0.042,0.288-0.095c0.125-0.074,0.223-0.174,0.296-0.296
	c0.076-0.13,0.113-0.268,0.113-0.417c0.015-0.136,0.008-0.277,0.008-0.411c0.002-0.191,0.006-0.381,0.009-0.57
	c0.001-0.042,0-0.083,0-0.125c0.659,0.013,1.316,0.026,1.975,0.066c0.319,0.019,0.64,0.036,0.961,0.04
	c0.247,0.002,0.5,0.017,0.746-0.011c0.228-0.026,0.417-0.073,0.585-0.242c0.155-0.154,0.242-0.366,0.242-0.585
	c0-0.035-0.016-0.067-0.02-0.103c0.067-0.121,0.116-0.253,0.122-0.4c0.026-0.676,0.004-1.355,0.006-2.033
	c0.002-0.697,0.013-1.395,0.049-2.092c0.04-0.794,0.085-1.591,0.117-2.388c0.032-0.798,0.04-1.593,0.038-2.392
	C25.54,16.087,25.504,14.467,25.474,12.848z M23.593,22.969c-0.544,0.042-1.089,0.011-1.633-0.003
	c-0.242-0.006-0.483-0.011-0.724-0.011c-0.183,0-0.366,0.01-0.549,0.015c-0.004-0.223-0.01-0.445-0.01-0.668
	c0-0.208-0.001-0.417-0.002-0.626c0.155-0.003,0.31-0.004,0.466-0.008c0.362-0.005,0.725,0.008,1.089,0.013
	c0.328,0.006,0.657,0.006,0.987,0.012c0.164,0.003,0.328-0.002,0.493-0.008c0.017,0,0.034,0,0.05-0.001
	c-0.028,0.418-0.059,0.836-0.078,1.254c-0.001,0.016,0,0.031-0.001,0.046C23.651,22.982,23.624,22.967,23.593,22.969z M8.243,23.58
	c0.731-0.023,1.461-0.056,2.193-0.087c0.8-0.034,1.603-0.028,2.403-0.017c1.087,0.017,2.176,0.017,3.264,0.017
	c0.449,0,0.897,0,1.346,0c0.56,0.002,1.119,0.004,1.679,0.015c0.01,0.421,0.02,0.843,0.024,1.264c0,0.023,0,0.047,0,0.07
	c-0.627,0.05-1.251,0.093-1.879,0.102c-0.736,0.011-1.47,0.007-2.205,0.005c-0.738,0-1.476,0.009-2.212,0.017
	c-0.772,0.009-1.542,0.019-2.312,0.017c-0.765,0-1.529-0.014-2.292-0.019c0-0.115,0.001-0.229,0.001-0.344
	C8.253,24.272,8.246,23.926,8.243,23.58z M8.239,4.241C8.278,4.15,8.316,4.059,8.353,3.967C8.361,3.952,8.37,3.936,8.379,3.921
	c0.028-0.029,0.058-0.056,0.088-0.083c0.104-0.071,0.213-0.129,0.326-0.183c0.215-0.081,0.433-0.132,0.66-0.167
	c0.686-0.075,1.385-0.057,2.072-0.046c0.759,0.011,1.518,0.042,2.278,0.064c0.719,0.021,1.438,0.047,2.159,0.051
	c0.732,0.006,1.467,0,2.199,0.009c0.995,0.013,1.996,0.024,2.985,0.144c0.244,0.039,0.487,0.081,0.728,0.134
	c0.178,0.038,0.357,0.076,0.529,0.134c0.176,0.089,0.339,0.194,0.499,0.311c0.099,0.082,0.187,0.17,0.27,0.267
	c0.112,0.162,0.207,0.336,0.289,0.515c0.045,0.117,0.081,0.232,0.104,0.355c0.004,0.029,0.009,0.057,0.014,0.084l0,0.002l0-0.001
	c0.018,0.092,0.049,0.176,0.092,0.256c-0.002,0.024-0.014,0.046-0.014,0.071c0.059,1.728,0.091,3.457,0.174,5.182
	c0.04,0.804,0.049,1.606,0.049,2.411c0,0.804,0.017,1.608,0.026,2.414c0.014,1.447,0.002,2.894-0.068,4.341
	c-0.208,0.016-0.415,0.033-0.624,0.036c-0.33,0.006-0.659,0.008-0.987,0.013c-0.364,0.006-0.727,0.023-1.089,0.021
	c-0.157,0-0.314-0.003-0.471-0.005c0-0.105-0.001-0.211-0.001-0.316c-0.004-0.81,0.006-1.618-0.008-2.426
	c-0.013-0.8-0.068-1.599-0.081-2.399c-0.03-1.616,0.013-3.23,0.038-4.844c0.013-0.817,0.059-1.635,0.077-2.452
	c0.011-0.417-0.357-0.768-0.768-0.768c-0.423,0-0.761,0.351-0.768,0.768c-0.011,0.857-0.025,1.712-0.034,2.567
	c-0.009,0.813-0.051,1.625-0.068,2.439c-0.017,0.806-0.021,1.612-0.017,2.418c0.002,0.796,0.036,1.593,0.043,2.39
	c0.012,1.424,0.015,2.849,0.02,4.274c-0.044,0-0.087-0.001-0.131-0.001c-0.305,0-0.61,0.012-0.915,0.013
	c-0.357,0.004-0.712,0.002-1.066,0.008c-0.757,0.017-1.512,0.036-2.269,0.049c-1.589,0.024-3.179,0.049-4.768,0.053
	c-0.575,0-1.149,0.013-1.724,0.022c-0.009-0.703-0.014-1.406-0.018-2.107c-0.009-1.62-0.064-3.241-0.1-4.859
	c-0.019-0.804-0.011-1.61-0.009-2.414c0.004-0.813,0-1.629,0.013-2.442C8.131,9.4,8.133,8.577,8.154,7.756
	c0.017-0.728,0.047-1.454,0.062-2.18c0.021-0.068,0.042-0.137,0.037-0.211c-0.024-0.312-0.068-0.63-0.047-0.943
	C8.23,4.3,8.265,4.182,8.313,4.067C8.288,4.126,8.264,4.184,8.239,4.241z M17.437,28.448c-0.429-0.004-0.855-0.004-1.282-0.004
	c-0.306,0-0.612,0-0.915-0.002c-0.759-0.005-1.516-0.024-2.275-0.019c-0.774,0.005-1.55,0.034-2.324,0.042
	c-0.798,0.007-1.597-0.01-2.395-0.02c-0.001-0.119-0.002-0.239-0.002-0.358c-0.002-0.383-0.002-0.766,0-1.149
	c0-0.16,0.001-0.32,0.002-0.48c0.742-0.008,1.483-0.029,2.225-0.035c0.8-0.004,1.599,0.006,2.399,0.019
	c0.712,0.011,1.423,0.009,2.137,0.022c0.736,0.015,1.472,0.025,2.208,0.027c0.349,0,0.696-0.002,1.044-0.021
	c0.296-0.016,0.591-0.045,0.886-0.068c-0.002,0.211,0,0.423-0.002,0.634c-0.007,0.455-0.006,0.916-0.034,1.371
	C18.553,28.433,17.997,28.454,17.437,28.448z M20.724,26.206c-0.004-0.501-0.009-1.002-0.01-1.503c0-0.057-0.002-0.113-0.003-0.17
	c0.139-0.009,0.277-0.021,0.416-0.027c0.278-0.013,0.555-0.002,0.832,0.013c0.268,0.011,0.534,0.032,0.802,0.047
	c0.307,0.016,0.598-0.004,0.898-0.045c0.001,0.219,0.001,0.438,0.001,0.656c0.001,0.373-0.002,0.747-0.006,1.12
	c-0.305-0.005-0.609-0.011-0.914-0.023C22.07,26.248,21.397,26.226,20.724,26.206z M7.624,2.714C7.605,2.729,7.59,2.744,7.571,2.758
	C7.542,2.781,7.51,2.801,7.48,2.823C7.528,2.788,7.575,2.75,7.624,2.714z"/>
</svg>