<?xml version="1.0" encoding="utf-8"?>
<!-- Generator: Adobe Illustrator 21.1.0, SVG Export Plug-In . SVG Version: 6.00 Build 0)  -->
<svg version="1.1" id="designs" xmlns="http://www.w3.org/2000/svg" xmlns:xlink="http://www.w3.org/1999/xlink" x="0px" y="0px"
	 width="32px" height="32px" viewBox="0 0 32 32" style="enable-background:new 0 0 32 32;" xml:space="preserve">
<style type="text/css">
	.sketchy_een{fill:#111918;}
</style>
<path class="sketchy_een" d="M29.815,19.126c-0.045-0.829-0.025-1.662-0.061-2.494c-0.003-0.073-0.027-0.138-0.046-0.206
	c0.016-0.116,0.009-0.236-0.023-0.35c-0.059-0.217-0.205-0.407-0.401-0.522c-0.195-0.114-0.379-0.122-0.587-0.099
	c0.029-0.004,0.058-0.008,0.088-0.012c-0.231,0.03-0.46,0.048-0.693,0.037c-0.247-0.047-0.485-0.122-0.72-0.212
	c-0.32-0.15-0.615-0.342-0.898-0.551c-0.362-0.297-0.674-0.64-0.971-1.003c-0.253-0.345-0.474-0.702-0.66-1.087
	c-0.233-0.591-0.393-1.209-0.492-1.837c-0.085-0.847-0.035-1.692,0.02-2.538c0.031-0.471-0.418-0.866-0.864-0.866
	c-0.064,0-0.118,0.023-0.177,0.036c-0.108-0.054-0.225-0.092-0.352-0.094c-0.235-0.003-0.47-0.013-0.705-0.021
	c0.046-0.118,0.094-0.235,0.13-0.358c0.063-0.223,0.082-0.463,0.104-0.694c0.037-0.417-0.051-0.86-0.139-1.267
	c-0.086-0.395-0.254-0.77-0.432-1.13c-0.221-0.45-0.583-0.821-0.977-1.126c-0.426-0.334-0.907-0.559-1.443-0.637
	c-0.27-0.04-0.534-0.064-0.801-0.064c-0.132,0-0.265,0.006-0.399,0.019c-0.401,0.039-0.805,0.092-1.194,0.199
	c-0.389,0.104-0.743,0.284-1.094,0.472c-0.081-0.053-0.155-0.116-0.239-0.165c-0.229-0.131-0.481-0.225-0.723-0.325
	c-0.313-0.131-0.647-0.203-0.987-0.225C14.011,2.002,13.942,2,13.874,2c-0.48,0-0.957,0.104-1.399,0.289
	c-0.256,0.108-0.508,0.209-0.743,0.356c-0.231,0.143-0.446,0.328-0.645,0.516c-0.18,0.174-0.332,0.379-0.483,0.575
	c-0.137,0.182-0.268,0.365-0.383,0.561C9.895,4.86,9.832,5.52,9.871,6.154c0.024,0.383,0.136,0.741,0.271,1.092
	c-0.787,0.002-1.577-0.03-2.363-0.051c-0.007,0-0.014,0-0.02,0c-0.125,0-0.24,0.038-0.345,0.093
	C7.059,7.406,6.779,7.733,6.792,8.121c0.027,0.774,0.035,1.552-0.012,2.324c-0.042,0.686-0.11,1.374-0.196,2.056
	c-0.08,0.517-0.179,1.024-0.363,1.513c-0.099,0.206-0.216,0.397-0.345,0.582c-0.115,0.138-0.238,0.269-0.375,0.385
	c-0.099,0.071-0.202,0.136-0.309,0.194c-0.103,0.034-0.207,0.059-0.314,0.079c-0.314,0.031-0.63,0.039-0.946,0.043
	c-0.047,0.002-0.094,0.002-0.139,0c-0.111,0-0.221,0-0.33,0.01c-0.121,0.01-0.242,0.023-0.356,0.059
	c-0.215,0.072-0.287,0.125-0.461,0.266c-0.182,0.149-0.264,0.362-0.35,0.575c-0.025,0.065-0.033,0.137-0.043,0.205
	c-0.027,0.162-0.045,0.321-0.055,0.485c-0.012,0.192-0.014,0.385-0.014,0.577c0,0.405,0.002,0.809,0,1.212
	c-0.001,0.27,0.132,0.507,0.328,0.671c0.036,0.106,0.089,0.2,0.161,0.284c-0.044,0.135-0.064,0.278-0.018,0.421
	c0.115,0.35,0.197,0.696,0.25,1.06c0.051,0.344,0.119,0.682,0.197,1.02c0.084,0.358,0.147,0.719,0.24,1.075
	c0.111,0.428,0.246,0.845,0.434,1.245c0.174,0.366,0.334,0.743,0.551,1.085c0.211,0.332,0.448,0.653,0.682,0.966
	c0.25,0.338,0.518,0.665,0.813,0.966c0.317,0.321,0.702,0.577,1.077,0.823c0.307,0.203,0.639,0.367,0.974,0.514
	c0.393,0.174,0.788,0.338,1.2,0.465c0.809,0.246,1.64,0.399,2.479,0.479c0.807,0.076,1.615,0.084,2.424,0.123
	c0.811,0.039,1.623,0.086,2.436,0.106c1.666,0.043,3.343-0.062,4.985-0.366c0.856-0.16,1.687-0.385,2.475-0.764
	c0.809-0.389,1.511-0.956,2.18-1.55c0.493-0.44,0.936-0.919,1.335-1.448c0.194-0.256,0.379-0.52,0.555-0.79
	c0.209-0.325,0.362-0.676,0.512-1.032c0.24-0.573,0.414-1.179,0.604-1.769c0.102-0.319,0.201-0.636,0.268-0.964
	c0.078-0.385,0.094-0.778,0.102-1.169c0.188-0.16,0.315-0.386,0.315-0.663c0-0.002-0.001-0.004-0.001-0.006
	C29.79,19.365,29.822,19.25,29.815,19.126z M18.154,3.747c0.334-0.035,0.66-0.044,0.994-0.015c0.167,0.028,0.328,0.066,0.49,0.12
	c0.126,0.063,0.243,0.134,0.359,0.213c0.139,0.118,0.268,0.243,0.39,0.379c0.104,0.157,0.191,0.322,0.273,0.493
	c0.095,0.261,0.163,0.525,0.208,0.8c0.015,0.183,0.018,0.361,0.004,0.543c-0.036,0.175-0.083,0.343-0.144,0.511
	c-0.073,0.154-0.157,0.301-0.251,0.445c-0.002,0-0.004,0-0.006,0c-0.788-0.033-1.576-0.029-2.365-0.057
	c-0.073-0.002-0.146-0.003-0.219-0.006c0.072-0.281,0.12-0.569,0.107-0.856c-0.021-0.463-0.135-0.942-0.283-1.382
	c-0.111-0.333-0.272-0.645-0.455-0.943c0.026-0.014,0.051-0.029,0.077-0.043C17.599,3.852,17.874,3.793,18.154,3.747z M4.642,17.154
	c0.522-0.037,1.046-0.125,1.499-0.403c0.899-0.553,1.501-1.48,1.816-2.469c0.27-0.841,0.338-1.744,0.428-2.616
	c0.088-0.858,0.149-1.714,0.18-2.573c0.003-0.088,0-0.176,0.001-0.263c0.587,0.002,1.174,0.009,1.76-0.011
	c0.311-0.01,0.621-0.031,0.931-0.05c0.193,0.143,0.393,0.277,0.606,0.394c0.428,0.238,0.977,0.108,1.226-0.321
	c0.242-0.412,0.106-0.993-0.321-1.226c-0.195-0.106-0.388-0.21-0.57-0.336c-0.08-0.069-0.157-0.141-0.228-0.218
	c-0.085-0.133-0.156-0.273-0.221-0.416c-0.071-0.193-0.128-0.385-0.167-0.586c-0.015-0.189-0.019-0.378-0.008-0.569
	c0.017-0.093,0.038-0.184,0.066-0.275c0.101-0.202,0.224-0.387,0.357-0.569c0.147-0.177,0.303-0.338,0.48-0.488
	c0.137-0.091,0.277-0.167,0.425-0.237c0.216-0.083,0.43-0.158,0.657-0.205c0.162-0.013,0.322-0.018,0.485-0.01
	c0.197,0.04,0.384,0.102,0.57,0.175c0.217,0.104,0.422,0.217,0.618,0.353c0.139,0.122,0.268,0.249,0.387,0.388
	c0.116,0.174,0.217,0.355,0.307,0.544c0.104,0.278,0.175,0.566,0.226,0.861c0.017,0.169,0.023,0.338,0.013,0.51
	c-0.036,0.169-0.085,0.33-0.147,0.492c-0.049,0.105-0.104,0.206-0.166,0.303c-0.102,0.11-0.211,0.21-0.327,0.308
	c-0.18,0.151-0.272,0.43-0.272,0.657c0,0.232,0.108,0.493,0.272,0.657c0.174,0.174,0.411,0.272,0.657,0.272
	c0.27,0,0.455-0.113,0.657-0.272c0.093-0.073,0.159-0.173,0.24-0.258c0.214,0.007,0.428,0.009,0.642,0.022
	c0.837,0.049,1.675,0.057,2.512,0.088c0.795,0.03,1.588,0.074,2.383,0.11c-0.024,0.617-0.033,1.237,0.027,1.85
	c0.088,0.923,0.328,1.855,0.712,2.698c0.352,0.768,0.87,1.447,1.449,2.057c0.332,0.35,0.714,0.653,1.116,0.919
	c0.36,0.235,0.737,0.424,1.146,0.561c0.309,0.104,0.628,0.182,0.954,0.209c0.035,0.003,0.069-0.002,0.104,0
	c0.023,0.469,0.036,0.939,0.039,1.408c-0.262,0.013-0.524,0.018-0.785-0.004c-0.551-0.111-1.075-0.308-1.594-0.519
	c-0.558-0.252-1.071-0.588-1.561-0.954c-0.446-0.358-0.862-0.744-1.225-1.186c-0.489-0.664-0.936-1.358-1.275-2.108
	c-0.26-0.646-0.46-1.311-0.571-1.998c-0.024-0.205-0.044-0.408-0.054-0.613c-0.025-0.454-0.362-0.835-0.837-0.835
	c-0.027,0-0.053,0.014-0.08,0.017c-0.064-0.018-0.126-0.042-0.216-0.042c-1.355,0.039-2.711,0.119-4.066,0.139
	c-1.482,0.02-2.969,0.027-4.453,0.006c-0.442-0.006-0.809,0.373-0.809,0.809c0,0.017,0.009,0.031,0.01,0.048
	c-0.033,0.039-0.082,0.063-0.109,0.109c-0.078,0.135-0.117,0.278-0.117,0.434c-0.026,0.194-0.05,0.389-0.074,0.583
	c-0.073,0.485-0.185,0.965-0.315,1.439c-0.135,0.492-0.27,0.986-0.456,1.462c-0.131,0.282-0.283,0.547-0.462,0.801
	c-0.296,0.358-0.627,0.684-0.989,0.976c-0.356,0.257-0.723,0.489-1.122,0.675c-0.435,0.165-0.884,0.268-1.345,0.339
	c-0.563,0.065-1.124,0.068-1.688,0.051c0.008-0.358,0.019-0.717,0.052-1.073C4.231,17.169,4.438,17.168,4.642,17.154z
	 M27.311,22.195c-0.137,0.397-0.267,0.799-0.423,1.191c-0.127,0.282-0.263,0.558-0.432,0.82c-0.172,0.267-0.352,0.527-0.54,0.782
	c-0.521,0.636-1.125,1.201-1.761,1.722c-0.194,0.15-0.386,0.302-0.596,0.428c-0.262,0.156-0.533,0.294-0.808,0.422
	c-0.951,0.372-1.953,0.539-2.962,0.677c-1.389,0.181-2.79,0.227-4.189,0.171c-0.717-0.029-1.433-0.053-2.15-0.082
	c-0.702-0.031-1.404-0.043-2.104-0.122c-0.858-0.126-1.703-0.316-2.512-0.639c-0.265-0.116-0.528-0.235-0.783-0.369
	c-0.285-0.15-0.557-0.33-0.818-0.516c-0.339-0.286-0.629-0.612-0.904-0.958c-0.237-0.321-0.486-0.645-0.695-0.983
	c-0.119-0.193-0.213-0.395-0.309-0.6c-0.082-0.173-0.167-0.344-0.247-0.518c-0.114-0.307-0.208-0.623-0.287-0.94
	c-0.084-0.334-0.147-0.671-0.229-1.007C4.48,21.349,4.417,21.02,4.37,20.69c-0.035-0.247-0.105-0.479-0.169-0.715
	c0.12,0.002,0.24,0.007,0.36,0.007c0.446-0.002,0.886-0.055,1.329-0.115c0.399-0.053,0.796-0.125,1.179-0.246
	c0.405-0.125,0.794-0.305,1.163-0.514c0.741-0.416,1.429-0.966,1.988-1.607c0.307-0.35,0.573-0.729,0.778-1.146
	c0.205-0.413,0.362-0.852,0.489-1.294c0.133-0.465,0.254-0.931,0.36-1.405c0.111-0.5,0.188-1.001,0.258-1.509
	c0.001-0.008,0-0.015,0.001-0.023c0.543-0.011,1.086-0.025,1.629-0.041c0.717-0.022,1.433-0.031,2.148-0.043
	c0.667-0.014,1.335-0.008,2.002-0.029c0.544-0.018,1.089-0.025,1.634-0.027c0.081,0.588,0.195,1.172,0.396,1.726
	c0.295,0.807,0.682,1.584,1.138,2.311c0.463,0.741,0.979,1.439,1.621,2.033c0.34,0.313,0.702,0.598,1.073,0.872
	c0.332,0.246,0.672,0.467,1.042,0.649c0.338,0.166,0.696,0.295,1.048,0.426c0.301,0.113,0.602,0.215,0.913,0.287
	c0.313,0.072,0.632,0.103,0.952,0.114c-0.005,0.17-0.005,0.341-0.021,0.511C27.596,21.351,27.456,21.773,27.311,22.195z
	 M25.597,22.372c0.053,0.197,0.043,0.477-0.086,0.647c-0.197,0.262-0.393,0.526-0.579,0.796c-0.172,0.254-0.348,0.508-0.555,0.735
	c-0.403,0.44-0.874,0.811-1.38,1.13c-0.231,0.146-0.465,0.295-0.712,0.409c-0.33,0.154-0.669,0.262-1.022,0.35
	c-0.581,0.147-1.181,0.244-1.779,0.281c-0.428,0.027-0.786-0.377-0.786-0.786c0-0.444,0.358-0.764,0.786-0.784
	c0.156-0.009,0.312-0.021,0.468-0.038c0.498-0.078,0.986-0.208,1.456-0.384c0.406-0.19,0.781-0.446,1.144-0.708
	c0.275-0.226,0.527-0.469,0.756-0.743c0.26-0.363,0.491-0.745,0.755-1.105c0.133-0.182,0.274-0.321,0.502-0.385
	c0.072-0.02,0.146-0.03,0.221-0.03c0.148,0,0.296,0.039,0.424,0.114C25.399,21.981,25.538,22.163,25.597,22.372z"/>
</svg>