<?xml version="1.0" encoding="utf-8"?>
<!-- Generator: Adobe Illustrator 21.1.0, SVG Export Plug-In . SVG Version: 6.00 Build 0)  -->
<svg version="1.1" id="designs" xmlns="http://www.w3.org/2000/svg" xmlns:xlink="http://www.w3.org/1999/xlink" x="0px" y="0px"
	 width="32px" height="32px" viewBox="0 0 32 32" style="enable-background:new 0 0 32 32;" xml:space="preserve">
<style type="text/css">
	.sketchy_een{fill:#111918;}
</style>
<path class="sketchy_een" d="M23.066,15.959c-0.215-0.433-0.524-0.805-0.828-1.181c-0.251-0.311-0.508-0.611-0.791-0.892
	c-0.573-0.573-1.228-1.056-1.967-1.39c-0.388-0.176-0.775-0.352-1.176-0.491c-0.384-0.134-0.781-0.227-1.182-0.292
	c-0.101-0.016-0.197-0.026-0.291-0.026c-0.126,0-0.248,0.019-0.369,0.068c-0.197-0.078-0.39-0.068-0.609-0.036
	c-1.052,0.152-2.086,0.352-3.104,0.665c-0.35,0.109-0.694,0.227-1.02,0.396c-0.227,0.117-0.445,0.296-0.639,0.458
	c-0.105,0.085-0.21,0.17-0.31,0.261c-0.385,0.356-0.737,0.766-1.028,1.202c-0.571,0.864-1.062,1.77-1.394,2.754
	c-0.154,0.458-0.295,0.917-0.376,1.394c-0.111,0.629-0.174,1.301-0.099,1.938c0.077,0.67,0.263,1.311,0.534,1.927
	c0.192,0.439,0.435,0.836,0.714,1.224c0.299,0.415,0.662,0.781,1.028,1.135c0.384,0.37,0.807,0.7,1.24,1.002
	c0.779,0.543,1.637,0.967,2.576,1.146c1.05,0.202,2.149,0.208,3.199-0.004c0.996-0.204,1.934-0.668,2.817-1.159
	c0.451-0.249,0.864-0.553,1.265-0.874c0.427-0.342,0.769-0.755,1.099-1.187c0.287-0.374,0.52-0.809,0.73-1.231
	c0.233-0.475,0.443-0.965,0.593-1.473c0.156-0.524,0.223-1.065,0.259-1.611c0.036-0.534-0.049-1.08-0.14-1.604
	C23.667,17.349,23.396,16.625,23.066,15.959z M22.214,20.164c-0.081,0.501-0.216,0.977-0.398,1.453
	c-0.26,0.575-0.565,1.126-0.933,1.639c-0.291,0.35-0.615,0.664-0.969,0.951c-0.63,0.46-1.309,0.831-2.015,1.158
	c-0.476,0.191-0.957,0.331-1.462,0.418c-0.618,0.062-1.226,0.042-1.845-0.02c-0.427-0.071-0.839-0.177-1.245-0.329
	c-0.515-0.237-0.982-0.542-1.442-0.876c-0.533-0.432-1.02-0.911-1.455-1.442c-0.211-0.309-0.4-0.628-0.566-0.964
	c-0.183-0.469-0.321-0.946-0.407-1.443c-0.036-0.444-0.003-0.885,0.049-1.326c0.124-0.682,0.349-1.327,0.595-1.976
	c0.046-0.109,0.092-0.217,0.137-0.327c-0.031,0.075-0.063,0.151-0.094,0.226c0.333-0.699,0.733-1.361,1.191-1.984
	c0.143-0.17,0.288-0.331,0.443-0.492c0.126-0.131,0.274-0.247,0.418-0.361c0.155-0.114,0.313-0.217,0.485-0.303
	c1.158-0.42,2.384-0.617,3.6-0.793c0.093,0.063,0.194,0.11,0.297,0.129c0.52,0.095,1.021,0.242,1.511,0.436
	c0.266,0.116,0.532,0.227,0.79,0.359c0.267,0.134,0.522,0.294,0.764,0.469c0.596,0.5,1.106,1.072,1.593,1.676
	c0.229,0.31,0.393,0.673,0.545,1.031c0.177,0.468,0.309,0.941,0.401,1.433C22.246,19.329,22.247,19.74,22.214,20.164z
	 M27.312,16.974c-0.144-0.868-0.449-1.706-0.88-2.475c-0.229-0.411-0.465-0.812-0.755-1.185c-0.261-0.334-0.54-0.645-0.842-0.939
	c-0.302-0.292-0.617-0.573-0.925-0.86c-0.293-0.275-0.591-0.54-0.902-0.791c-0.692-0.562-1.489-0.955-2.286-1.342
	c-0.366-0.176-0.735-0.342-1.115-0.49c-0.148-0.058-0.301-0.105-0.455-0.149c0.081-0.092,0.149-0.194,0.183-0.315
	c0.017-0.041,0.034-0.082,0.051-0.122c0.322-0.736,0.693-1.449,1.05-2.169c0.011-0.021,0.012-0.043,0.021-0.064
	c0.195-0.294,0.162-0.678-0.081-0.943c-0.178-0.194-0.346-0.394-0.524-0.587c-0.176-0.192-0.366-0.372-0.542-0.565
	c-0.19-0.208-0.366-0.427-0.554-0.635c-0.18-0.198-0.363-0.384-0.535-0.588c-0.046-0.062-0.092-0.123-0.138-0.185
	c-0.109-0.152-0.235-0.263-0.406-0.33c-0.123-0.063-0.253-0.105-0.403-0.123C16.326,2.01,15.372,2.002,14.417,2
	c-0.144,0-0.275,0.043-0.396,0.106c-0.002,0-0.004-0.001-0.007-0.001c-0.194,0-0.433,0.077-0.561,0.231
	c-0.256,0.31-0.499,0.63-0.744,0.949c-0.416,0.533-0.849,1.046-1.285,1.563c-0.142,0.168-0.237,0.342-0.237,0.571
	c0,0.084,0.023,0.166,0.049,0.245c-0.009,0.157,0.011,0.316,0.092,0.461c0.497,0.896,1.019,1.783,1.609,2.621
	C12.73,8.825,12.524,8.908,12.32,9c-0.785,0.356-1.536,0.777-2.242,1.27c-0.384,0.269-0.757,0.552-1.107,0.862
	c-0.342,0.301-0.641,0.661-0.941,1.004c-0.587,0.67-1.153,1.378-1.635,2.129c-0.991,1.534-1.627,3.347-1.791,5.168
	c-0.038,0.427-0.063,0.85-0.032,1.279c0.036,0.508,0.091,1.01,0.172,1.513c0.136,0.858,0.449,1.714,0.882,2.465
	c0.239,0.411,0.524,0.793,0.819,1.163c0.263,0.33,0.534,0.652,0.826,0.959c0.291,0.304,0.611,0.575,0.941,0.836
	c0.388,0.303,0.787,0.583,1.216,0.825c0.403,0.226,0.854,0.396,1.293,0.538c0.386,0.125,0.779,0.22,1.17,0.318
	c0.393,0.099,0.791,0.178,1.184,0.273c0.37,0.091,0.739,0.174,1.115,0.241c0.48,0.087,0.971,0.146,1.461,0.156
	c0.467,0.01,0.927-0.05,1.388-0.113c0.399-0.055,0.791-0.14,1.184-0.231c0.36-0.083,0.724-0.174,1.076-0.289
	c0.838-0.277,1.649-0.694,2.361-1.212c0.382-0.277,0.753-0.571,1.101-0.89c0.308-0.283,0.607-0.577,0.913-0.862
	c0.589-0.543,1.202-1.085,1.696-1.722c0.277-0.358,0.544-0.72,0.777-1.107c0.243-0.403,0.417-0.866,0.595-1.299
	c0.166-0.409,0.305-0.818,0.413-1.246c0.113-0.449,0.17-0.91,0.223-1.368C27.482,18.773,27.459,17.854,27.312,16.974z M14.334,3.745
	c0.028,0.003,0.053,0.017,0.083,0.017c0.54-0.002,1.081-0.012,1.621-0.014c0.343,0,0.682,0.023,1.023,0.041
	c0.132,0.156,0.271,0.306,0.422,0.449c0.219,0.208,0.421,0.427,0.619,0.658c0.043,0.05,0.091,0.095,0.134,0.143
	c-0.36,0.006-0.721,0.021-1.079,0.016c-0.316-0.004-0.631-0.04-0.947-0.049c-0.23-0.008-0.46-0.011-0.69-0.011
	c-0.16,0-0.32,0.001-0.48,0.003C14.585,5,14.207,5.373,14.207,5.83c0,0.447,0.378,0.84,0.832,0.833
	c0.39-0.006,0.781-0.02,1.17-0.014c0.316,0.004,0.631,0.025,0.947,0.04c0.318,0.012,0.639,0.01,0.959,0.012
	c0.075,0,0.151-0.001,0.226,0c-0.164,0.367-0.334,0.731-0.499,1.099c-0.093,0.208-0.143,0.398-0.081,0.626
	c-0.562-0.108-1.127-0.195-1.699-0.23c-0.127-0.008-0.248,0.018-0.358,0.067c-0.112-0.053-0.227-0.074-0.345-0.074
	c-0.078,0-0.157,0.009-0.238,0.025c-0.187,0.035-0.373,0.078-0.56,0.116c-0.029-0.048-0.045-0.101-0.084-0.144
	c-0.052-0.056-0.102-0.114-0.15-0.172c-0.56-0.77-0.992-1.622-1.44-2.462c0.093-0.134,0.182-0.271,0.281-0.402
	C13.549,4.673,13.941,4.209,14.334,3.745z M25.659,19.83c-0.057,0.366-0.127,0.73-0.231,1.086c-0.107,0.376-0.247,0.738-0.397,1.098
	c-0.134,0.301-0.272,0.597-0.439,0.883c-0.14,0.24-0.303,0.467-0.469,0.689c-0.46,0.565-0.974,1.076-1.504,1.577
	c-0.57,0.538-1.118,1.089-1.729,1.579c-0.253,0.187-0.513,0.363-0.782,0.527c-0.269,0.164-0.56,0.295-0.848,0.425
	c-0.417,0.16-0.849,0.268-1.287,0.366c-0.449,0.1-0.9,0.181-1.355,0.247c-0.344,0.042-0.69,0.072-1.037,0.078
	c-0.36,0.005-0.718-0.025-1.076-0.067c-0.582-0.089-1.156-0.224-1.729-0.356c-0.667-0.155-1.334-0.33-1.975-0.575
	c-0.249-0.109-0.492-0.226-0.73-0.362c-0.253-0.148-0.491-0.32-0.725-0.498c-0.312-0.25-0.621-0.508-0.894-0.803
	c-0.287-0.308-0.56-0.629-0.822-0.96c-0.191-0.253-0.373-0.509-0.54-0.778c-0.154-0.246-0.28-0.505-0.396-0.768
	c-0.205-0.534-0.339-1.083-0.435-1.647c-0.048-0.401-0.086-0.802-0.099-1.207c-0.011-0.401,0.027-0.803,0.074-1.202
	c0.076-0.45,0.162-0.895,0.294-1.333c0.135-0.451,0.295-0.891,0.471-1.329c0.198-0.429,0.419-0.837,0.666-1.241
	c0.217-0.355,0.466-0.693,0.719-1.025c0.609-0.767,1.257-1.505,1.993-2.152c0.423-0.319,0.86-0.628,1.315-0.902
	c0.497-0.297,1.02-0.552,1.551-0.787c0.754-0.272,1.542-0.408,2.328-0.554c0.001,0,0.003,0,0.004-0.001
	c0.144,0.092,0.306,0.132,0.488,0.146c0.181,0.013,0.36,0.033,0.539,0.053c0.91,0.135,1.822,0.351,2.682,0.681
	c0.481,0.213,0.955,0.446,1.422,0.688c0.467,0.244,0.918,0.506,1.342,0.817c0.422,0.334,0.829,0.688,1.236,1.039
	c0.421,0.362,0.806,0.759,1.161,1.186c0.337,0.466,0.62,0.97,0.862,1.492c0.174,0.45,0.307,0.901,0.389,1.378
	c0.044,0.417,0.067,0.828,0.058,1.248C25.742,18.988,25.706,19.409,25.659,19.83z"/>
</svg>