<?xml version="1.0" encoding="utf-8"?>
<!-- Generator: Adobe Illustrator 21.1.0, SVG Export Plug-In . SVG Version: 6.00 Build 0)  -->
<svg version="1.1" id="designs" xmlns="http://www.w3.org/2000/svg" xmlns:xlink="http://www.w3.org/1999/xlink" x="0px" y="0px"
	 width="32px" height="32px" viewBox="0 0 32 32" style="enable-background:new 0 0 32 32;" xml:space="preserve">
<style type="text/css">
	.sketchy_een{fill:#111918;}
</style>
<path class="sketchy_een" d="M8.049,5.617c-0.004,0.01-0.008,0.02-0.012,0.03C8.015,5.701,7.993,5.754,7.97,5.807
	C7.996,5.744,8.024,5.681,8.049,5.617z M8.008,5.718C8.013,5.705,8.018,5.693,8.024,5.68c0.002-0.004,0.003-0.007,0.004-0.011
	C8.021,5.685,8.014,5.702,8.008,5.718z M8.162,5.35C8.147,5.385,8.133,5.42,8.119,5.454c0-0.001,0.001-0.002,0.001-0.003
	C8.134,5.417,8.148,5.384,8.162,5.35z M8.119,5.454C8.106,5.483,8.093,5.513,8.081,5.542c0.002-0.004,0.003-0.007,0.005-0.011
	C8.069,5.57,8.053,5.609,8.037,5.648C8.034,5.655,8.031,5.662,8.028,5.669C8.048,5.623,8.067,5.576,8.086,5.53
	C8.097,5.505,8.108,5.479,8.119,5.454z M25.828,14.196c-0.026,0.443-0.089,0.886-0.168,1.321c-0.071,0.386-0.14,0.781-0.273,1.151
	c-0.257,0.718-0.625,1.406-1.016,2.058c-0.437,0.724-0.975,1.376-1.657,1.88c-0.348,0.259-0.708,0.469-1.111,0.633
	c-0.36,0.146-0.73,0.267-1.109,0.356c-0.36,0.085-0.726,0.154-1.093,0.208c-0.429,0.061-0.862,0.128-1.295,0.15
	c-0.129,0.007-0.26,0.008-0.389,0.013c-0.037,1.195-0.116,2.39-0.142,3.585c-0.01,0.53-0.012,1.058-0.014,1.586
	c0,0.275-0.006,0.55-0.02,0.823c-0.006,0.115-0.009,0.228-0.011,0.343c0.244,0.006,0.488,0.005,0.732,0.013
	c0.793,0.026,1.582,0.036,2.375,0.038c0.358,0.002,0.716,0,1.076-0.002c0.423-0.004,0.846-0.008,1.271-0.004
	c0.451,0.006,0.826,0.374,0.826,0.826c0,0.433-0.378,0.848-0.826,0.826c-0.512-0.026-1.026-0.014-1.538-0.024
	c-0.492-0.008-0.985-0.008-1.477-0.018c-1.605-0.028-3.209-0.117-4.816-0.113c-0.797,0.002-1.594,0.022-2.39,0.038
	c-0.815,0.018-1.633,0.038-2.448-0.012c-0.439-0.028-0.807-0.346-0.807-0.807c0-0.401,0.342-0.808,0.76-0.808
	c0.015,0,0.031,0.001,0.046,0.002c0.528,0.04,1.058,0.067,1.586,0.073c0.53,0.004,1.058-0.016,1.588-0.03
	c0.806-0.023,1.613-0.032,2.419-0.029c0.075-0.93,0.087-1.862,0.132-2.792c0.03-0.571,0.069-1.141,0.079-1.712
	c0.01-0.595,0.018-1.192,0.029-1.787c-1.002-0.024-1.999-0.124-2.964-0.411c-0.787-0.233-1.55-0.575-2.272-0.965
	c-0.326-0.176-0.651-0.362-0.949-0.583c-0.362-0.265-0.69-0.564-1.042-0.84c0.019,0.015,0.037,0.029,0.056,0.044
	c-0.297-0.231-0.576-0.467-0.833-0.747c-0.285-0.31-0.548-0.653-0.777-1.006c-0.413-0.641-0.761-1.348-0.967-2.084
	c-0.229-0.826-0.281-1.7-0.249-2.555c0.032-0.856,0.15-1.702,0.326-2.541c0.158-0.759,0.425-1.497,0.662-2.234
	C7.26,7.672,7.385,7.284,7.525,6.903C7.676,6.489,7.852,6.086,8.024,5.68C8.056,5.603,8.088,5.527,8.12,5.451
	c0.425-0.998,0.904-1.977,1.353-2.965C9.556,2.3,9.777,2.157,9.967,2.106c0.071-0.02,0.145-0.029,0.218-0.029
	c0.003,0,0.006,0.001,0.01,0.001C10.292,2.03,10.399,2,10.512,2c0.006,0,0.011,0,0.017,0c0.767,0.016,1.534,0.047,2.303,0.049
	c0.285,0.002,0.571,0,0.858-0.002c0.461-0.004,0.923-0.008,1.386,0.004c0.767,0.018,1.534,0.024,2.303,0.018
	c0.823-0.006,1.645,0.014,2.468,0.014c0.745,0.002,1.489-0.016,2.232-0.049c0.439-0.018,0.805,0.38,0.805,0.805
	c0,0.086-0.024,0.165-0.05,0.242c0.055,0.101,0.113,0.199,0.16,0.305c0.073,0.166,0.14,0.336,0.216,0.502
	c0.138,0.305,0.299,0.601,0.441,0.902c0.36,0.753,0.69,1.522,0.989,2.301c0.289,0.749,0.484,1.534,0.69,2.309
	c0.217,0.826,0.399,1.659,0.473,2.511C25.868,12.674,25.878,13.433,25.828,14.196z M9.292,6.734C9.116,7.165,8.959,7.604,8.81,8.045
	c0.431,0.026,0.862,0.055,1.294,0.07c0.5,0.018,1.002,0.018,1.503,0.036c0.564,0.022,1.125,0.045,1.689,0.055
	c0.536,0.008,1.074,0.004,1.609,0.01c1.522,0.018,3.045,0.012,4.567,0.012c0.785,0,1.57,0.006,2.355-0.006
	c0.376-0.006,0.751-0.032,1.129-0.049c0.137-0.007,0.275-0.012,0.413-0.018c-0.009-0.03-0.015-0.061-0.024-0.092
	c-0.118-0.378-0.262-0.747-0.413-1.113c-0.242-0.566-0.495-1.125-0.793-1.665c-0.148-0.265-0.297-0.528-0.415-0.807
	c-0.117-0.275-0.241-0.53-0.399-0.781c-0.008-0.012-0.007-0.027-0.014-0.039c-0.103,0.002-0.205,0.01-0.308,0.007
	c-0.338-0.01-0.676-0.03-1.014-0.036c-0.658-0.012-1.319-0.01-1.977-0.006c-0.939,0.002-1.878,0.008-2.815-0.036
	c-0.939-0.042-1.878-0.03-2.816-0.02c-0.536,0.007-1.07,0.009-1.603,0.005c-0.253,0.523-0.521,1.039-0.77,1.566
	C9.757,5.665,9.522,6.198,9.292,6.734z M24.192,11.743c-0.105-0.707-0.26-1.4-0.434-2.092c-0.418,0.009-0.834,0.027-1.253,0.043
	c-0.522,0.022-1.046,0.03-1.57,0.028c-0.536,0-1.07,0-1.605,0.002c-0.536,0-1.07,0.002-1.605,0c-1.556,0-3.112-0.026-4.668-0.04
	c-0.761-0.006-1.522-0.032-2.286-0.036C9.956,9.642,9.143,9.639,8.328,9.594c-0.205,0.7-0.38,1.403-0.491,2.126
	c-0.096,0.839-0.13,1.685-0.048,2.527c0.068,0.4,0.17,0.785,0.317,1.163c0.133,0.292,0.267,0.583,0.426,0.861
	c0.148,0.262,0.326,0.51,0.509,0.752c0.229,0.275,0.464,0.534,0.735,0.767c0.171,0.129,0.343,0.257,0.504,0.399
	c0.149,0.132,0.299,0.265,0.454,0.392c0.637,0.462,1.333,0.832,2.052,1.152c0.702,0.278,1.416,0.475,2.161,0.599
	c0.628,0.07,1.266,0.099,1.898,0.097c0.622-0.002,1.247-0.024,1.866-0.096c0.381-0.054,0.762-0.113,1.14-0.191
	c0.413-0.087,0.81-0.201,1.203-0.35c0.289-0.135,0.562-0.304,0.822-0.49c0.312-0.26,0.583-0.548,0.837-0.866
	c0.225-0.312,0.419-0.652,0.602-0.989c0.161-0.295,0.316-0.591,0.454-0.899c0.232-0.587,0.365-1.21,0.463-1.833
	C24.347,13.73,24.313,12.724,24.192,11.743z M22.558,12.27c-0.429,0-0.793,0.36-0.791,0.791c0.002,0.356-0.001,0.707-0.034,1.06
	c-0.025,0.152-0.054,0.302-0.101,0.448c-0.057,0.181-0.129,0.358-0.201,0.533c-0.101,0.23-0.208,0.458-0.315,0.685
	c-0.136,0.289-0.292,0.553-0.476,0.811c-0.165,0.2-0.341,0.379-0.539,0.549c-0.17,0.119-0.349,0.214-0.539,0.3
	c-0.03,0.011-0.061,0.022-0.092,0.031c-0.413,0.138-0.678,0.548-0.558,0.983c0.055,0.2,0.188,0.374,0.368,0.477
	c0.263,0.154,0.54,0.125,0.805,0c0.221-0.103,0.443-0.216,0.647-0.35c0.269-0.182,0.52-0.39,0.757-0.611
	c0.239-0.223,0.435-0.512,0.621-0.781c0.142-0.206,0.247-0.435,0.356-0.658c0.243-0.504,0.49-1.02,0.654-1.556
	c0.19-0.617,0.225-1.279,0.229-1.92C23.353,12.63,22.989,12.27,22.558,12.27z"/>
</svg>