<?xml version="1.0" encoding="utf-8"?>
<!-- Generator: Adobe Illustrator 21.1.0, SVG Export Plug-In . SVG Version: 6.00 Build 0)  -->
<svg version="1.1" id="designs" xmlns="http://www.w3.org/2000/svg" xmlns:xlink="http://www.w3.org/1999/xlink" x="0px" y="0px"
	 width="32px" height="32px" viewBox="0 0 32 32" style="enable-background:new 0 0 32 32;" xml:space="preserve">
<style type="text/css">
	.sketchy_een{fill:#111918;}
</style>
<path class="sketchy_een" d="M25.617,12.117c-0.047-0.625-0.165-1.228-0.359-1.82c-0.065-0.198-0.146-0.414-0.27-0.583
	c-0.101-0.142-0.209-0.281-0.328-0.408c-0.212-0.223-0.46-0.411-0.706-0.596c-0.276-0.218-0.541-0.447-0.833-0.646
	c-0.112-0.076-0.229-0.141-0.342-0.214c-0.062-0.085-0.138-0.16-0.229-0.213c-0.059-0.035-0.129-0.035-0.195-0.052
	c-0.026-0.015-0.05-0.034-0.077-0.048c-0.334-0.178-0.689-0.319-1.038-0.465c-0.344-0.146-0.693-0.271-1.048-0.389
	c-0.304-0.103-0.607-0.211-0.911-0.313c-0.309-0.106-0.626-0.186-0.942-0.271c-0.556-0.151-1.114-0.279-1.678-0.384
	c-0.01-0.264-0.016-0.529-0.018-0.794c-0.008-0.697,0.021-1.397-0.013-2.094c-0.023-0.45-0.359-0.824-0.824-0.824
	c-0.425,0-0.858,0.374-0.824,0.824c0.049,0.697,0.074,1.395,0.101,2.094c0.011,0.302,0.025,0.604,0.024,0.905
	c-0.145,0.021-0.289,0.042-0.434,0.063c-0.451,0.058-0.901,0.102-1.35,0.169c-0.351,0.051-0.702,0.135-1.05,0.211
	c-0.307,0.067-0.613,0.139-0.907,0.253c-0.402,0.156-0.801,0.336-1.184,0.531C9.419,7.435,8.694,7.873,8.068,8.458
	c-0.636,0.596-1.145,1.313-1.467,2.124c-0.095,0.237-0.116,0.516-0.158,0.765c-0.068,0.387-0.091,0.763-0.065,1.154
	c0.025,0.368,0.044,0.757,0.156,1.114c0.059,0.192,0.137,0.387,0.243,0.558c0.077,0.126,0.165,0.242,0.255,0.358
	c0.128,0.168,0.255,0.338,0.395,0.496c0.112,0.129,0.252,0.237,0.385,0.344c0.164,0.13,0.331,0.248,0.501,0.36
	c-0.048,0.321-0.073,0.648-0.103,0.971c-0.036,0.363-0.055,0.727-0.076,1.091c-0.044,0.788-0.025,1.579,0.03,2.365
	c0.057,0.82,0.19,1.633,0.376,2.432c0.087,0.378,0.205,0.746,0.317,1.116c0.116,0.38,0.241,0.75,0.389,1.118
	c0.158,0.389,0.33,0.782,0.545,1.145c0.196,0.327,0.433,0.626,0.695,0.904c0.194,0.205,0.431,0.372,0.643,0.558
	c0.27,0.234,0.53,0.49,0.847,0.661c0.289,0.156,0.571,0.317,0.866,0.458c0.321,0.154,0.626,0.326,0.938,0.499
	c0.345,0.19,0.721,0.332,1.084,0.486c0.37,0.156,0.738,0.311,1.122,0.433c0.189,0.061,0.382,0.028,0.555-0.049
	c0.027-0.004,0.054,0.003,0.081-0.003c0.306-0.066,0.592-0.252,0.867-0.395c0.309-0.161,0.647-0.26,0.951-0.425
	c0.315-0.171,0.617-0.387,0.907-0.594c0.328-0.234,0.659-0.469,0.957-0.742c0.315-0.29,0.568-0.632,0.826-0.974
	c0.245-0.323,0.501-0.638,0.725-0.976c0.438-0.659,0.795-1.353,1.033-2.111c0.177-0.568,0.315-1.154,0.372-1.746
	c0.065-0.685,0.038-1.371,0.047-2.058c0.004-0.332,0.021-0.664,0.029-0.999c0.009-0.313,0.053-0.625,0.057-0.938
	c0.006-0.342-0.002-0.681,0.013-1.023c0.014-0.297,0.043-0.594,0.07-0.892c0.215-0.119,0.362-0.329,0.403-0.574
	c0.011-0.013,0.026-0.021,0.037-0.034c0.047-0.059,0.094-0.12,0.141-0.182c0.154-0.188,0.328-0.358,0.51-0.52
	c0.152-0.135,0.277-0.262,0.402-0.425c0.065-0.085,0.116-0.184,0.165-0.277c0.159-0.3,0.289-0.611,0.406-0.93
	C25.651,12.796,25.64,12.438,25.617,12.117z M19.496,7.992c0.392,0.127,0.782,0.252,1.166,0.407
	c0.126,0.054,0.247,0.118,0.371,0.175c-0.266,0.392-0.522,0.79-0.769,1.195c-0.097-0.162-0.2-0.32-0.293-0.484
	c-0.264-0.457-0.509-0.924-0.761-1.388C19.304,7.93,19.401,7.961,19.496,7.992z M13.734,8.915c0.447,0.719,0.888,1.442,1.319,2.171
	c-0.288,0.493-0.593,0.976-0.894,1.462c-0.186,0.296-0.368,0.596-0.562,0.888c-0.066,0.1-0.132,0.2-0.196,0.302
	c-0.051-0.066-0.103-0.131-0.153-0.196c-0.437-0.582-0.862-1.174-1.297-1.759c0.034-0.055,0.067-0.111,0.101-0.167
	C12.604,10.71,13.17,9.814,13.734,8.915z M11.162,13.124c0.011,0.015,0.024,0.028,0.035,0.043c0.316,0.415,0.628,0.832,0.945,1.247
	c-0.438-0.005-0.876-0.013-1.314-0.013c-0.12,0-0.239,0.006-0.358,0.008c0.158-0.309,0.321-0.615,0.484-0.919
	C11.02,13.367,11.093,13.247,11.162,13.124z M14.806,14.214c0.184-0.323,0.378-0.638,0.568-0.957
	c0.159-0.267,0.322-0.531,0.483-0.795c0.195,0.343,0.388,0.686,0.588,1.026c0.167,0.281,0.342,0.558,0.516,0.835
	c0.041,0.067,0.083,0.135,0.124,0.203c-0.633-0.031-1.268-0.072-1.901-0.095c-0.163-0.007-0.326-0.001-0.49-0.004
	C14.731,14.356,14.767,14.284,14.806,14.214z M17.585,9.697c0.158-0.232,0.317-0.463,0.474-0.695
	c0.225,0.368,0.448,0.736,0.68,1.098c0.227,0.354,0.462,0.702,0.697,1.05c-0.063,0.105-0.125,0.211-0.188,0.315
	c-0.366,0.609-0.729,1.222-1.107,1.826c-0.007,0.01-0.013,0.021-0.02,0.032c-0.12-0.178-0.241-0.355-0.355-0.536
	c-0.361-0.576-0.694-1.168-1.025-1.761C17.017,10.58,17.289,10.131,17.585,9.697z M19.372,13.873
	c0.295-0.49,0.594-0.978,0.898-1.461c0.48,0.736,0.981,1.46,1.451,2.203c-0.273-0.021-0.551-0.023-0.824-0.022
	c-0.29,0.004-0.581-0.019-0.871-0.019c-0.292,0.002-0.585,0-0.877-0.008c-0.064-0.001-0.128,0-0.191,0.001
	C19.093,14.333,19.234,14.103,19.372,13.873z M17.235,7.402c-0.445,0.696-0.872,1.403-1.284,2.12
	c-0.071-0.139-0.142-0.28-0.215-0.418c-0.303-0.578-0.64-1.141-0.977-1.7c0.242-0.031,0.484-0.062,0.726-0.095
	c0.091-0.01,0.182-0.019,0.273-0.023c0.103-0.006,0.202-0.03,0.292-0.068c0.348,0.047,0.697,0.092,1.043,0.155
	C17.142,7.38,17.188,7.392,17.235,7.402z M11.421,8.191c0.395-0.16,0.805-0.28,1.217-0.39c-0.238,0.409-0.48,0.816-0.715,1.227
	c-0.296,0.517-0.588,1.035-0.884,1.552c-0.395-0.507-0.794-1.013-1.195-1.519C10.344,8.726,10.87,8.435,11.421,8.191z M8.12,12.761
	c-0.041-0.412-0.052-0.822-0.005-1.234c0.031-0.22,0.065-0.434,0.142-0.645c0.058-0.129,0.119-0.257,0.188-0.38
	c0.067-0.126,0.153-0.241,0.238-0.357c0.429,0.516,0.863,1.029,1.296,1.542c0.036,0.057,0.08,0.109,0.13,0.155
	c0.042,0.049,0.081,0.1,0.123,0.149c-0.206,0.356-0.417,0.708-0.612,1.07c-0.173,0.319-0.327,0.649-0.492,0.972
	c-0.023,0.045-0.048,0.089-0.071,0.134c-0.029-0.019-0.061-0.033-0.09-0.052c-0.138-0.114-0.266-0.234-0.383-0.37
	c-0.129-0.175-0.256-0.352-0.355-0.545C8.182,13.058,8.148,12.911,8.12,12.761z M21.801,17.517
	c-0.002,0.291-0.011,0.577-0.036,0.866c-0.019,0.211-0.046,0.417-0.059,0.628c-0.032,0.545-0.042,1.094-0.047,1.638
	c-0.005,0.482,0.002,0.961-0.051,1.44c-0.106,0.619-0.272,1.218-0.504,1.801c-0.35,0.77-0.865,1.463-1.375,2.134
	c-0.264,0.328-0.551,0.618-0.878,0.884c-0.389,0.294-0.802,0.585-1.246,0.795c-0.188,0.075-0.375,0.149-0.563,0.225
	c-0.214,0.084-0.413,0.193-0.618,0.291c-0.053,0.016-0.107,0.025-0.16,0.035c-0.514-0.156-1.027-0.327-1.524-0.529
	c-0.195-0.09-0.377-0.202-0.566-0.301c-0.207-0.11-0.421-0.211-0.634-0.309c-0.211-0.099-0.412-0.211-0.615-0.321
	c-0.161-0.088-0.317-0.175-0.465-0.28c-0.192-0.154-0.38-0.312-0.574-0.464c-0.234-0.185-0.452-0.393-0.643-0.62
	c-0.253-0.354-0.448-0.737-0.629-1.132c-0.428-1.065-0.708-2.185-0.875-3.32c-0.095-0.804-0.134-1.607-0.117-2.414
	c0.014-0.727,0.049-1.458,0.132-2.181c0.016-0.106,0.033-0.211,0.049-0.317c0.061-0.038,0.111-0.088,0.162-0.141
	c0.625-0.042,1.249-0.087,1.874-0.109c0.721-0.023,1.443-0.029,2.164-0.034c0.353-0.002,0.706-0.01,1.059-0.004
	c0.351,0.006,0.704,0.032,1.055,0.046c0.697,0.026,1.391,0.093,2.086,0.125c0.323,0.013,0.649,0.03,0.972,0.032
	c0.34,0.002,0.676,0.015,1.016,0.023c0.556,0.013,1.113,0.061,1.667,0.12C21.828,16.588,21.803,17.053,21.801,17.517z
	 M23.949,13.066c-0.067,0.155-0.139,0.309-0.228,0.452c-0.134,0.144-0.284,0.274-0.421,0.413c-0.048,0.049-0.087,0.104-0.132,0.156
	c-0.25-0.379-0.496-0.762-0.761-1.132c-0.224-0.311-0.454-0.621-0.678-0.934c-0.199-0.281-0.376-0.575-0.566-0.864
	c-0.013-0.02-0.026-0.039-0.039-0.058c0.398-0.599,0.811-1.188,1.237-1.768c0.074,0.051,0.148,0.101,0.22,0.153
	c0.075,0.065,0.148,0.133,0.222,0.199c0.11,0.098,0.23,0.187,0.349,0.276c0.175,0.143,0.337,0.292,0.484,0.465
	c0.049,0.071,0.093,0.143,0.133,0.219c0.147,0.422,0.247,0.854,0.314,1.295c0.022,0.214,0.038,0.427,0.024,0.642
	C24.072,12.746,24.006,12.907,23.949,13.066z M20.68,20.581c0.121,0.211,0.12,0.41,0.083,0.64c-0.076,0.48-0.156,0.96-0.27,1.431
	c-0.103,0.42-0.271,0.811-0.448,1.203c-0.137,0.302-0.326,0.571-0.52,0.841c-0.146,0.201-0.302,0.389-0.469,0.571
	c-0.102,0.112-0.214,0.218-0.315,0.334c-0.33,0.381-0.976,0.251-1.213-0.158c-0.201-0.344-0.101-0.871,0.277-1.057
	c0.027-0.012,0.052-0.027,0.077-0.042c0.12-0.107,0.229-0.228,0.33-0.352c0.18-0.261,0.352-0.538,0.486-0.825
	c0.062-0.151,0.12-0.305,0.164-0.461c0.058-0.202,0.092-0.406,0.123-0.612c0.003-0.022,0.006-0.044,0.009-0.066
	c0.054-0.416,0.107-0.833,0.166-1.248c0.028-0.201,0.216-0.399,0.382-0.497c0.128-0.075,0.274-0.113,0.42-0.113
	c0.074,0,0.148,0.01,0.219,0.03C20.391,20.257,20.572,20.397,20.68,20.581z"/>
</svg>