<?xml version="1.0" encoding="utf-8"?>
<!-- Generator: Adobe Illustrator 21.1.0, SVG Export Plug-In . SVG Version: 6.00 Build 0)  -->
<svg version="1.1" id="designs" xmlns="http://www.w3.org/2000/svg" xmlns:xlink="http://www.w3.org/1999/xlink" x="0px" y="0px"
	 width="32px" height="32px" viewBox="0 0 32 32" style="enable-background:new 0 0 32 32;" xml:space="preserve">
<style type="text/css">
	.sketchy_een{fill:#111918;}
</style>
<path class="sketchy_een" d="M21.424,28.558c0.006,0.008,0.011,0.015,0.017,0.022C21.435,28.573,21.43,28.566,21.424,28.558
	L21.424,28.558z M22.681,27.701c0.003,0.004,0.006,0.008,0.009,0.012c0.037,0.048,0.074,0.095,0.11,0.143
	C22.762,27.805,22.72,27.752,22.681,27.701z M26.356,26.99c0,0.188-0.076,0.443-0.233,0.563c-0.281,0.219-0.563,0.435-0.846,0.65
	c-0.648,0.509-1.286,1.032-1.906,1.573C23.213,29.914,23.044,30,22.83,30c-0.202,0-0.396-0.08-0.539-0.224
	c-0.108-0.107-0.166-0.257-0.195-0.411c-0.098-0.066-0.184-0.146-0.262-0.251c-0.133-0.178-0.26-0.357-0.393-0.534
	c0.029,0.038,0.059,0.075,0.088,0.113c-0.035-0.045-0.07-0.09-0.104-0.135c0,0-0.001-0.001-0.002-0.002c0,0,0.001,0.001,0.001,0.001
	c-0.001-0.001-0.001-0.001-0.002-0.002c-0.397-0.513-0.783-1.033-1.177-1.551c-0.651-0.821-1.364-1.591-2.05-2.384
	c-0.355-0.412-0.698-0.837-1.053-1.251c-0.286-0.331-0.567-0.666-0.848-1.001c-0.125,0.15-0.247,0.301-0.379,0.44
	c-0.353,0.373-0.718,0.729-1.063,1.108c-0.351,0.384-0.718,0.749-1.074,1.125c-0.435,0.459-0.861,0.927-1.292,1.39
	c-0.331,0.357-0.929,0.335-1.265,0c-0.189-0.189-0.264-0.439-0.247-0.685c-0.133-0.099-0.244-0.232-0.295-0.402
	c-0.145-0.47-0.237-0.963-0.349-1.443c-0.114-0.486-0.225-0.974-0.337-1.461c-0.357-1.539-0.678-3.086-1.055-4.621
	c-0.194-0.798-0.404-1.592-0.582-2.394c-0.176-0.792-0.333-1.59-0.512-2.382C7.485,11.427,7.071,9.822,6.687,8.21
	C6.495,7.408,6.326,6.6,6.158,5.793C5.972,4.895,5.803,3.995,5.666,3.087C5.63,2.848,5.627,2.642,5.754,2.424
	C5.866,2.232,6.052,2.089,6.266,2.03C6.34,2.01,6.416,2,6.492,2c0.093,0,0.183,0.02,0.272,0.049
	c0.133,0.003,0.268,0.033,0.363,0.106C7.751,2.633,8.37,3.115,8.99,3.597c-0.051-0.041-0.104-0.08-0.155-0.122
	c0.292,0.224,0.586,0.443,0.882,0.659c0.665,0.48,1.327,0.96,1.978,1.457c0.686,0.521,1.406,0.988,2.117,1.47
	c0.672,0.459,1.351,0.906,2.035,1.345c0.684,0.439,1.38,0.868,2.043,1.341c0.333,0.237,0.659,0.488,0.998,0.716
	c0.339,0.225,0.68,0.447,1.021,0.668c0.7,0.451,1.382,0.931,2.066,1.406c0.647,0.449,1.284,0.914,1.943,1.347
	c0.325,0.212,0.647,0.427,0.97,0.641c0.169,0.112,0.335,0.226,0.502,0.337c0.227,0.153,0.471,0.292,0.669,0.482
	c0.329,0.316,0.318,0.865,0,1.182c-0.157,0.157-0.37,0.245-0.592,0.245c-0.053,0-0.097-0.015-0.145-0.024
	c-0.198,0.088-0.396,0.176-0.588,0.273c-0.21,0.106-0.427,0.192-0.645,0.281c-0.307,0.137-0.611,0.276-0.922,0.403
	c-0.503,0.224-0.982,0.5-1.484,0.728c-0.43,0.194-0.858,0.39-1.286,0.586c0.72,1.016,1.421,2.048,2.166,3.046
	c0.54,0.678,1.103,1.337,1.661,2c0.271,0.319,0.531,0.647,0.788,0.976c0.263,0.333,0.555,0.657,0.776,1.017
	c0.037,0.061,0.049,0.129,0.068,0.196c0.096,0.038,0.186,0.095,0.264,0.174C26.271,26.577,26.356,26.781,26.356,26.99z
	 M24.401,26.938c-0.012-0.017-0.028-0.027-0.04-0.045c-0.432-0.636-0.918-1.241-1.389-1.851c0.006,0.007,0.011,0.014,0.017,0.022
	c-0.702-0.906-1.447-1.776-2.113-2.709c-0.672-0.939-1.374-1.855-2.057-2.786c-0.122-0.167-0.133-0.431-0.082-0.624
	c0.008-0.027,0.027-0.049,0.038-0.075c-0.082-0.176-0.11-0.374-0.058-0.56c0.051-0.188,0.192-0.408,0.376-0.49
	c0.574-0.26,1.159-0.501,1.741-0.746c0.442-0.189,0.872-0.402,1.302-0.619c0.381-0.191,0.77-0.358,1.163-0.523
	c0.135-0.058,0.26-0.131,0.391-0.193c-0.343-0.236-0.684-0.474-1.021-0.719c-1.329-0.969-2.676-1.914-4.05-2.815
	c-0.337-0.221-0.671-0.447-0.998-0.682c-0.314-0.224-0.618-0.459-0.935-0.676c-0.69-0.469-1.394-0.92-2.09-1.378
	c-0.69-0.457-1.372-0.927-2.059-1.392c-0.355-0.239-0.708-0.478-1.051-0.731c-0.335-0.249-0.663-0.508-0.994-0.759
	C9.827,6.083,9.147,5.605,8.474,5.113C8.188,4.904,7.905,4.691,7.62,4.48c0.078,0.475,0.143,0.952,0.23,1.426
	c0.298,1.643,0.692,3.266,1.084,4.888c0.19,0.786,0.378,1.572,0.543,2.365c0.167,0.812,0.32,1.625,0.5,2.435
	c0.174,0.792,0.371,1.58,0.547,2.372c0.173,0.769,0.335,1.539,0.502,2.31c0.171,0.78,0.353,1.559,0.527,2.337
	c0.088,0.394,0.182,0.784,0.28,1.174c0.051,0.199,0.097,0.402,0.15,0.603c0.552-0.561,1.107-1.119,1.652-1.688
	c0.355-0.371,0.727-0.722,1.074-1.096c0.165-0.176,0.325-0.357,0.48-0.539c0.157-0.182,0.298-0.38,0.48-0.539
	c0.174-0.153,0.369-0.251,0.608-0.251c0.227,0,0.447,0.09,0.608,0.251c0.077,0.077,0.137,0.172,0.18,0.276
	c0.007,0.008,0.021,0.01,0.027,0.019c0.863,1.059,1.727,2.117,2.621,3.146c0.439,0.502,0.867,1.012,1.282,1.533
	c0.42,0.529,0.818,1.074,1.229,1.61c-0.041-0.051-0.08-0.104-0.122-0.155c0.196,0.251,0.391,0.505,0.586,0.757
	c0.104,0.134,0.205,0.27,0.307,0.405C23.472,27.732,23.937,27.336,24.401,26.938z"/>
</svg>