<?xml version="1.0" encoding="utf-8"?>
<!-- Generator: Adobe Illustrator 21.1.0, SVG Export Plug-In . SVG Version: 6.00 Build 0)  -->
<svg version="1.1" id="designs" xmlns="http://www.w3.org/2000/svg" xmlns:xlink="http://www.w3.org/1999/xlink" x="0px" y="0px"
	 width="32px" height="32px" viewBox="0 0 32 32" style="enable-background:new 0 0 32 32;" xml:space="preserve">
<style type="text/css">
	.sketchy_een{fill:#111918;}
</style>
<path class="sketchy_een" d="M30.328,9.182c-0.201-0.201-0.408-0.396-0.607-0.599c-0.213-0.217-0.434-0.424-0.65-0.637
	c-0.261-0.257-0.503-0.529-0.756-0.794c-0.268-0.28-0.551-0.547-0.839-0.808c-0.593-0.539-1.191-1.068-1.764-1.631
	c-0.545-0.535-1.104-1.06-1.669-1.575c-0.67-0.617-1.333-1.239-1.955-1.906C21.939,1.076,21.734,1,21.527,1
	c-0.213,0-0.426,0.08-0.58,0.234c-0.314,0.314-0.308,0.827,0,1.142c0.338,0.345,0.7,0.666,1.064,0.984
	c-0.382,0.387-0.765,0.774-1.152,1.157c-0.219,0.219-0.41,0.465-0.619,0.692c-0.203,0.219-0.41,0.432-0.611,0.65
	c-0.412,0.442-0.845,0.859-1.251,1.307c-0.209,0.229-0.414,0.459-0.631,0.682c-0.087,0.09-0.182,0.177-0.272,0.269
	c-0.517-0.477-1.022-0.968-1.502-1.48c-0.155-0.165-0.369-0.244-0.584-0.244c-0.221,0-0.443,0.084-0.604,0.244
	c-0.324,0.324-0.32,0.859,0,1.185c0.203,0.207,0.421,0.397,0.636,0.59c-0.253,0.316-0.508,0.629-0.769,0.938
	c-0.259,0.302-0.545,0.581-0.829,0.859c-0.559,0.549-1.108,1.11-1.665,1.661c-0.279,0.276-0.559,0.551-0.839,0.827
	c-0.278,0.275-0.523,0.583-0.776,0.879c-0.507,0.599-1.026,1.185-1.549,1.766c-0.493,0.549-1.008,1.076-1.545,1.583
	c-0.253,0.239-0.499,0.481-0.744,0.728c-0.101,0.101-0.203,0.201-0.3,0.304c-0.084,0.089-0.164,0.182-0.253,0.267
	c-0.084,0.061-0.154,0.137-0.208,0.22c-0.272,0.131-0.458,0.409-0.469,0.731c-0.022,0.615-0.004,1.229-0.004,1.846
	c0,0.253,0,0.503,0.016,0.756c0.018,0.29,0.028,0.583,0.042,0.873c0.02,0.418,0.022,0.837,0.066,1.253
	c0.05,0.469,0.103,0.939,0.133,1.412c0,0.006,0.003,0.01,0.004,0.016c-0.697,0.654-1.364,1.342-2.013,2.042
	c-0.35,0.38-0.71,0.748-1.058,1.13c-0.27,0.297-0.518,0.632-0.823,0.896c-0.055,0.038-0.109,0.078-0.153,0.124
	c-0.326,0.338-0.336,0.883,0,1.221C1.844,30.909,2.065,31,2.293,31c0.155,0,0.3-0.04,0.436-0.117
	C2.8,30.84,2.863,30.79,2.918,30.732c0.294-0.265,0.553-0.569,0.819-0.862c0.362-0.398,0.734-0.788,1.1-1.181
	c0.39-0.42,0.766-0.849,1.152-1.269c0.342-0.37,0.717-0.705,1.097-1.035c0.347,0.005,0.693,0.009,1.039,0.009
	c0.272-0.002,0.543-0.012,0.813-0.008c0.28,0.006,0.561,0.012,0.843,0.012c0.527-0.002,1.056-0.016,1.583-0.006
	c0.593,0.008,1.188,0.056,1.78,0.084c0.181,0.008,0.342-0.064,0.482-0.167c0.159-0.025,0.312-0.084,0.431-0.205
	c0.314-0.32,0.609-0.658,0.913-0.987c0.372-0.402,0.756-0.796,1.11-1.213c0.364-0.428,0.724-0.859,1.1-1.279
	c0.424-0.475,0.835-0.955,1.225-1.46c-0.042,0.054-0.082,0.105-0.123,0.159c0.374-0.471,0.788-0.907,1.195-1.347
	c0.422-0.455,0.821-0.931,1.249-1.382c0.414-0.434,0.861-0.837,1.273-1.273c0.43-0.456,0.849-0.922,1.301-1.355
	c0.038,0.041,0.077,0.08,0.114,0.121c0.143,0.162,0.306,0.304,0.454,0.46c0.113,0.136,0.245,0.237,0.427,0.287
	c0.215,0.06,0.45,0.03,0.641-0.084c0.374-0.219,0.553-0.762,0.3-1.14c-0.143-0.211-0.32-0.386-0.503-0.561
	c-0.125-0.123-0.241-0.257-0.362-0.384c-0.228-0.248-0.476-0.475-0.717-0.71c0.05-0.057,0.099-0.113,0.15-0.169
	c0.155-0.169,0.306-0.342,0.457-0.513c0.45-0.507,0.879-1.03,1.343-1.526c0.44-0.467,0.861-0.953,1.287-1.434
	C27.252,9.91,27.628,9.519,28,9.124c0.391,0.403,0.796,0.795,1.158,1.227c0.29,0.344,0.871,0.298,1.17,0
	C30.646,10.031,30.644,9.502,30.328,9.182z M20.606,16.579c-0.111,0.112-0.224,0.222-0.336,0.333
	c-0.068-0.063-0.132-0.13-0.201-0.191c-0.139-0.125-0.273-0.253-0.408-0.38c-0.308-0.294-0.609-0.595-0.913-0.889
	c-0.173-0.165-0.397-0.249-0.621-0.249c-0.22,0-0.439,0.082-0.606,0.249c-0.326,0.326-0.346,0.903,0,1.227
	c0.296,0.278,0.591,0.559,0.893,0.829c0.227,0.204,0.462,0.402,0.686,0.609c-0.069,0.075-0.142,0.148-0.211,0.224
	c-0.19,0.208-0.379,0.417-0.57,0.623l0,0c-0.465-0.428-0.887-0.905-1.337-1.351c-0.169-0.168-0.394-0.253-0.619-0.253
	c-0.224,0-0.448,0.084-0.616,0.253c-0.334,0.334-0.342,0.905,0,1.237c0.453,0.44,0.943,0.847,1.388,1.297
	c0.02,0.021,0.048,0.028,0.07,0.046c-0.211,0.25-0.411,0.511-0.625,0.759c-0.096,0.109-0.192,0.217-0.288,0.326
	c-0.435-0.467-0.884-0.921-1.337-1.37c-0.171-0.17-0.399-0.256-0.627-0.256c-0.227,0-0.454,0.085-0.625,0.256
	c-0.338,0.338-0.346,0.915,0,1.251c0.276,0.273,0.557,0.541,0.843,0.804c0.208,0.19,0.425,0.372,0.629,0.569
	c-0.286,0.321-0.57,0.645-0.862,0.961c-0.045,0.048-0.089,0.098-0.134,0.146c-0.049-0.047-0.095-0.096-0.143-0.146
	c-0.117-0.121-0.227-0.249-0.34-0.376c-0.263-0.294-0.525-0.591-0.79-0.885c-0.162-0.181-0.393-0.265-0.627-0.265
	c-0.245,0-0.492,0.093-0.664,0.265c-0.364,0.362-0.338,0.927,0,1.293c0.259,0.28,0.521,0.561,0.792,0.831
	c0.123,0.123,0.247,0.247,0.372,0.368c0.01,0.01,0.022,0.019,0.033,0.029c-0.153-0.003-0.306-0.007-0.458-0.007
	c-0.836,0-1.672,0.035-2.507,0.05c-0.559,0.012-1.118,0.02-1.673,0.06c-0.323,0.023-0.649,0.026-0.974,0.032
	c-0.007-0.122-0.016-0.244-0.021-0.366c-0.008-0.265-0.024-0.531-0.04-0.796c-0.022-0.392-0.016-0.784-0.034-1.176
	c-0.024-0.525-0.088-1.05-0.084-1.575c0.003-0.5,0.034-0.999,0.061-1.498c0.022-0.018,0.053-0.022,0.074-0.043
	c0.115-0.091,0.213-0.215,0.314-0.322c0.101-0.107,0.203-0.217,0.306-0.324c0.241-0.245,0.491-0.483,0.744-0.718
	c0.551-0.517,1.084-1.044,1.593-1.603c0.529-0.579,1.05-1.162,1.563-1.752c0.257-0.296,0.513-0.593,0.786-0.873
	c0.273-0.282,0.553-0.555,0.831-0.833c0.553-0.555,1.094-1.124,1.647-1.681c0.573-0.581,1.142-1.164,1.663-1.792
	c0.008-0.009,0.011-0.02,0.019-0.029c0.028,0.024,0.054,0.05,0.082,0.074c0.294,0.259,0.595,0.511,0.885,0.778
	c0.3,0.276,0.589,0.569,0.883,0.853c0.625,0.601,1.251,1.197,1.874,1.802c0.275,0.267,0.555,0.523,0.839,0.78
	c0.268,0.243,0.513,0.511,0.764,0.77c0.08,0.082,0.16,0.165,0.239,0.247C21.634,15.372,21.164,16.014,20.606,16.579z M24.508,10.591
	c-0.467,0.471-0.877,0.998-1.321,1.492c-0.161,0.181-0.338,0.346-0.499,0.527c-0.06,0.067-0.117,0.139-0.174,0.21
	c-0.21-0.192-0.423-0.38-0.634-0.568c-0.611-0.555-1.211-1.122-1.802-1.699c-0.451-0.441-0.9-0.886-1.364-1.313
	c0.064-0.064,0.128-0.127,0.192-0.191c0.217-0.219,0.422-0.448,0.627-0.676c0.402-0.445,0.831-0.873,1.253-1.301
	c0.43-0.434,0.792-0.927,1.213-1.367c0.251-0.261,0.523-0.499,0.788-0.742c0.161-0.149,0.316-0.302,0.473-0.454
	c0.387,0.371,0.773,0.743,1.157,1.117c0.269,0.263,0.527,0.537,0.804,0.792c0.298,0.274,0.605,0.543,0.903,0.82
	c0.264,0.246,0.531,0.488,0.785,0.744C26.126,8.87,25.341,9.753,24.508,10.591z"/>
</svg>