<?xml version="1.0" encoding="utf-8"?>
<!-- Generator: Adobe Illustrator 21.1.0, SVG Export Plug-In . SVG Version: 6.00 Build 0)  -->
<svg version="1.1" id="designs" xmlns="http://www.w3.org/2000/svg" xmlns:xlink="http://www.w3.org/1999/xlink" x="0px" y="0px"
	 width="32px" height="32px" viewBox="0 0 32 32" style="enable-background:new 0 0 32 32;" xml:space="preserve">
<style type="text/css">
	.sketchy_een{fill:#111918;}
</style>
<path class="sketchy_een" d="M21.841,19.319c-0.188-0.41-0.452-0.802-0.729-1.155c-0.309-0.392-0.681-0.699-1.117-0.947
	c-0.412-0.234-0.862-0.41-1.309-0.563c-0.396-0.135-0.804-0.256-1.212-0.343c-0.487-0.107-0.984-0.154-1.48-0.212
	c-0.212-0.024-0.424-0.054-0.638-0.079c-0.265-0.034-0.529-0.038-0.796-0.038c-0.234,0-0.446,0.106-0.591,0.272
	c-0.256,0.096-0.507,0.207-0.739,0.352c-0.388,0.244-0.749,0.539-1.091,0.844c-0.644,0.573-1.163,1.294-1.571,2.05
	c-0.097,0.182-0.18,0.372-0.263,0.561c-0.105,0.232-0.208,0.471-0.287,0.713c-0.153,0.471-0.206,0.969-0.236,1.462
	c-0.028,0.466-0.006,0.923,0.081,1.385c0.085,0.454,0.254,0.883,0.464,1.294c0.196,0.384,0.456,0.733,0.733,1.062
	c0.291,0.349,0.63,0.67,1.006,0.925c0.38,0.258,0.79,0.454,1.232,0.58c0.46,0.133,0.939,0.19,1.414,0.24
	c0.392,0.044,0.79,0.059,1.185,0.065c0.46,0.008,0.911-0.014,1.363-0.103c0.452-0.089,0.901-0.263,1.317-0.452
	c0.363-0.164,0.701-0.355,1.022-0.592c0.721-0.533,1.422-1.165,1.87-1.955c0.228-0.398,0.406-0.812,0.555-1.246
	c0.059-0.174,0.097-0.359,0.133-0.537c0.042-0.208,0.085-0.414,0.113-0.624c0.036-0.261,0.069-0.521,0.087-0.784
	c0.02-0.299-0.01-0.59-0.063-0.885C22.216,20.161,22.031,19.729,21.841,19.319z M18.473,18.339c0.345,0.155,0.687,0.326,0.996,0.544
	c0.053,0.047,0.097,0.101,0.147,0.151c-0.491,0.331-0.98,0.665-1.466,1.002c-0.162-0.165-0.341-0.312-0.547-0.42
	c-0.246-0.129-0.499-0.188-0.764-0.225c-0.03-0.526-0.069-1.052-0.116-1.578C17.32,17.938,17.908,18.111,18.473,18.339z
	 M16.996,22.402c-0.048,0.056-0.098,0.11-0.153,0.16c-0.085,0.057-0.173,0.107-0.264,0.152c-0.068,0.022-0.136,0.04-0.205,0.055
	c-0.104,0.007-0.205,0.007-0.309,0c-0.062-0.014-0.124-0.031-0.184-0.051c-0.077-0.041-0.15-0.086-0.222-0.135
	c-0.046-0.041-0.089-0.084-0.13-0.13c-0.052-0.079-0.1-0.16-0.143-0.245c-0.021-0.063-0.039-0.125-0.054-0.189
	c-0.004-0.071-0.005-0.141-0.002-0.213c0.02-0.094,0.046-0.186,0.077-0.277c0.021-0.041,0.043-0.081,0.067-0.12
	c0.025-0.026,0.051-0.05,0.078-0.074c0.117-0.081,0.239-0.151,0.367-0.212c0.142-0.046,0.286-0.079,0.432-0.112
	c0.088-0.02,0.169-0.056,0.241-0.104c0.004,0,0.008,0.001,0.013,0.001c0.066,0.016,0.131,0.035,0.195,0.058
	c0.058,0.03,0.114,0.062,0.169,0.098c0.046,0.044,0.09,0.089,0.133,0.137c0.046,0.068,0.088,0.137,0.125,0.21
	c0.017,0.051,0.032,0.103,0.044,0.155c0.003,0.069,0.003,0.136,0,0.205c-0.021,0.105-0.047,0.207-0.08,0.309
	C17.133,22.193,17.068,22.298,16.996,22.402z M13.595,18.283c0.252-0.186,0.51-0.347,0.793-0.482
	c0.193-0.069,0.387-0.134,0.583-0.194c0.038-0.012,0.074-0.026,0.109-0.042c0.036,0.003,0.072,0.007,0.108,0.01
	c0.065,0.655,0.133,1.31,0.204,1.964c-0.297,0.112-0.575,0.268-0.825,0.461c-0.061-0.076-0.131-0.147-0.216-0.204
	c-0.455-0.301-0.913-0.6-1.372-0.895C13.18,18.691,13.371,18.474,13.595,18.283z M11.518,21.664
	c0.003-0.019,0.005-0.038,0.008-0.057c0.044-0.301,0.149-0.588,0.257-0.873c0.068-0.156,0.15-0.305,0.226-0.457
	c0.039,0.035,0.07,0.078,0.116,0.106c0.462,0.29,0.928,0.575,1.399,0.849c0.061,0.035,0.127,0.046,0.192,0.064
	c-0.065,0.252-0.097,0.513-0.083,0.762c0.004,0.069,0.023,0.137,0.034,0.205c-0.032,0.023-0.067,0.038-0.099,0.064
	c-0.411,0.341-0.822,0.683-1.239,1.019c-0.203,0.151-0.407,0.297-0.624,0.43c-0.003,0.002-0.004,0.004-0.007,0.006
	c-0.087-0.244-0.157-0.49-0.201-0.746c-0.042-0.476-0.015-0.949,0.028-1.426C11.522,21.629,11.52,21.646,11.518,21.664z
	 M13.441,25.734c-0.197-0.099-0.381-0.213-0.559-0.342c-0.121-0.108-0.226-0.23-0.338-0.346c0.667-0.383,1.279-0.851,1.88-1.331
	c0.02,0.019,0.036,0.042,0.057,0.06c0.294,0.256,0.637,0.428,1.002,0.53c0.028,0.602,0.059,1.204,0.091,1.805
	c-0.286-0.019-0.573-0.039-0.857-0.073C14.28,25.971,13.857,25.882,13.441,25.734z M18.325,25.565
	c-0.166,0.098-0.342,0.18-0.519,0.257c-0.227,0.089-0.46,0.161-0.696,0.223c-0.016-0.599-0.034-1.198-0.059-1.797
	c0.272-0.101,0.526-0.245,0.757-0.425c0.533,0.284,1.067,0.566,1.597,0.857c-0.173,0.171-0.333,0.356-0.523,0.51
	C18.702,25.322,18.519,25.452,18.325,25.565z M20.688,21.985c-0.074,0.478-0.178,0.938-0.346,1.393
	c-0.011,0.024-0.028,0.045-0.039,0.069c-0.02-0.015-0.033-0.037-0.056-0.049c-0.241-0.139-0.481-0.278-0.722-0.417
	c-0.27-0.156-0.542-0.309-0.814-0.462c0.042-0.13,0.075-0.264,0.097-0.401c0.037-0.23,0.038-0.451,0.02-0.673
	c0.556-0.361,1.11-0.726,1.661-1.093c0.001,0.001,0.001,0.002,0.002,0.004c0.093,0.249,0.177,0.502,0.225,0.764
	C20.736,21.407,20.718,21.697,20.688,21.985z M24.676,17.949c-0.17-0.404-0.464-0.753-0.733-1.091
	c-0.244-0.305-0.515-0.594-0.784-0.876c-0.666-0.695-1.509-1.147-2.328-1.634c-0.458-0.273-0.951-0.485-1.47-0.616
	c-0.508-0.128-1.022-0.196-1.541-0.258c-0.451-0.063-0.902-0.12-1.353-0.173c-0.137-0.115-0.312-0.185-0.501-0.185
	c-0.001,0-0.002,0-0.004,0c-0.469,0-0.945,0.012-1.408,0.099c-0.218,0.041-0.428,0.1-0.637,0.167
	c-0.034-0.758-0.1-1.514-0.136-2.272c-0.038-0.788-0.032-1.581,0.059-2.363c0.029-0.205,0.058-0.413,0.104-0.614
	c0.048-0.205,0.11-0.401,0.184-0.597c0.097-0.209,0.199-0.414,0.313-0.615c0.099-0.178,0.229-0.34,0.355-0.501
	c0.152-0.186,0.306-0.363,0.489-0.518c0.16-0.111,0.324-0.213,0.499-0.3c0.224-0.08,0.452-0.131,0.686-0.17
	c0.381-0.035,0.753-0.032,1.135,0.003c0.268,0.047,0.523,0.126,0.778,0.22c0.103,0.045,0.206,0.093,0.303,0.148
	c0.131,0.076,0.255,0.158,0.377,0.245c0.129,0.111,0.248,0.229,0.358,0.358c0.088,0.127,0.166,0.257,0.235,0.396
	c0.165,0.437,0.271,0.892,0.349,1.352c0.109,0.992,0.05,1.997-0.057,2.988c-0.001,0.007,0.004,0.014,0.004,0.021
	c-0.065,0.165-0.09,0.345-0.044,0.517c0.057,0.208,0.196,0.388,0.382,0.497c0.204,0.119,0.414,0.127,0.64,0.083
	c0.298-0.057,0.597-0.12,0.897-0.172c0.386-0.042,0.777-0.053,1.164-0.022c0.053,0.01,0.105,0.022,0.156,0.038
	c0.007,0.003,0.014,0.005,0.021,0.007c0.006,0.002,0.013,0.004,0.019,0.007c-0.002-0.001-0.004-0.001-0.005-0.002
	c0.281,0.089,0.584,0.038,0.806-0.184c0.147-0.147,0.23-0.349,0.23-0.557c0-0.13-0.05-0.274-0.123-0.399
	c0.067-0.112,0.116-0.235,0.112-0.372c-0.02-0.737-0.067-1.47-0.123-2.205c-0.063-0.808-0.155-1.618-0.376-2.399
	C23.599,5.621,23.444,5.26,23.294,4.9c-0.162-0.392-0.331-0.776-0.557-1.139c-0.442-0.705-1.088-1.29-1.795-1.719
	c-0.319-0.194-0.65-0.368-0.988-0.525c-0.384-0.178-0.763-0.307-1.179-0.392C18.332,1.034,17.88,1,17.427,1
	c-0.36,0-0.721,0.021-1.078,0.053c-0.406,0.038-0.816,0.103-1.216,0.182c-0.374,0.073-0.753,0.156-1.115,0.281
	c-0.418,0.145-0.85,0.305-1.218,0.555c-0.357,0.24-0.672,0.521-0.969,0.832c-0.315,0.327-0.584,0.689-0.846,1.062
	c-0.261,0.374-0.468,0.763-0.64,1.187c-0.149,0.359-0.265,0.727-0.349,1.105c-0.085,0.39-0.141,0.788-0.218,1.183
	C9.616,8.271,9.511,9.101,9.495,9.951c-0.014,0.796-0.006,1.595,0.01,2.391c0.02,1.014,0.026,2.026,0.026,3.039
	c0,0.126,0.037,0.242,0.091,0.349c-0.171,0.154-0.349,0.3-0.509,0.464c-0.303,0.315-0.6,0.664-0.838,1.032
	c-0.214,0.333-0.406,0.683-0.584,1.036c-0.396,0.779-0.614,1.61-0.794,2.462c-0.089,0.412-0.137,0.832-0.172,1.254
	c-0.032,0.39-0.044,0.798,0.004,1.189c0.097,0.808,0.283,1.616,0.529,2.391c0.281,0.883,0.759,1.674,1.361,2.375
	c0.271,0.317,0.606,0.588,0.957,0.814c0.311,0.204,0.638,0.378,0.957,0.57c0.305,0.184,0.578,0.422,0.895,0.59
	c0.386,0.204,0.8,0.351,1.208,0.507c0.353,0.135,0.711,0.258,1.078,0.351c0.406,0.105,0.836,0.141,1.25,0.18
	c0.366,0.032,0.733,0.059,1.099,0.054c0.424-0.008,0.818-0.131,1.226-0.222c0.38-0.085,0.765-0.156,1.147-0.244
	c0.351-0.079,0.685-0.196,1.022-0.319c0.357-0.129,0.715-0.261,1.056-0.426c0.368-0.178,0.715-0.39,1.046-0.632
	c0.715-0.521,1.292-1.181,1.761-1.929c0.42-0.668,0.818-1.351,1.187-2.048c0.19-0.361,0.366-0.741,0.479-1.133
	c0.119-0.416,0.178-0.856,0.23-1.286c0.048-0.404,0.069-0.81,0.077-1.216c0.008-0.374,0.02-0.751,0.004-1.125
	C25.259,19.573,25.005,18.724,24.676,17.949z M11.145,8.61c0.094-0.552,0.214-1.1,0.321-1.65c0.091-0.47,0.223-0.924,0.397-1.369
	c0.195-0.39,0.432-0.751,0.689-1.105c0.271-0.331,0.577-0.633,0.904-0.909c0.23-0.165,0.47-0.299,0.729-0.417
	c0.582-0.223,1.19-0.363,1.806-0.457c0.73-0.088,1.465-0.115,2.2-0.055c0.352,0.057,0.686,0.148,1.018,0.28
	c0.494,0.225,0.968,0.486,1.406,0.807c0.229,0.192,0.442,0.396,0.634,0.625c0.14,0.194,0.266,0.393,0.38,0.607
	c0.115,0.216,0.211,0.443,0.309,0.67c0.277,0.67,0.463,1.36,0.575,2.076c0.11,0.899,0.164,1.81,0.174,2.717
	c-0.085-0.004-0.17-0.012-0.255-0.012c-0.052,0-0.104,0.001-0.156,0.003c-0.228,0.008-0.455,0.038-0.681,0.067
	c0.029-0.538,0.042-1.077,0.047-1.612c0.004-0.454-0.057-0.901-0.121-1.349c-0.061-0.432-0.176-0.872-0.331-1.28
	c-0.299-0.782-0.883-1.424-1.608-1.838c-0.438-0.252-0.923-0.434-1.416-0.539C17.844,3.8,17.51,3.769,17.178,3.769
	c-0.179,0-0.357,0.009-0.531,0.026c-0.743,0.067-1.502,0.246-2.11,0.695c-0.263,0.194-0.501,0.396-0.715,0.644
	c-0.145,0.168-0.275,0.349-0.41,0.527C13.194,5.948,13,6.257,12.846,6.584c-0.178,0.382-0.355,0.769-0.426,1.187
	c-0.073,0.436-0.137,0.874-0.176,1.313c-0.067,0.741-0.048,1.49-0.03,2.232c0.02,0.8,0.055,1.601,0.069,2.401
	c0.001,0.084,0.027,0.161,0.051,0.237c-0.427,0.173-0.844,0.369-1.23,0.618c-0.008-0.348-0.011-0.697-0.027-1.044
	c-0.024-0.567-0.057-1.133-0.069-1.7C10.988,10.757,11.015,9.676,11.145,8.61z M23.636,22.758c-0.072,0.466-0.168,0.921-0.34,1.363
	c-0.214,0.477-0.473,0.933-0.737,1.385c-0.285,0.489-0.587,0.975-0.922,1.43c-0.25,0.3-0.52,0.581-0.819,0.833
	c-0.451,0.332-0.933,0.6-1.449,0.821c-0.44,0.18-0.883,0.353-1.344,0.462c-0.299,0.071-0.602,0.125-0.905,0.18
	c-0.27,0.048-0.535,0.118-0.806,0.168c-0.509,0.041-1.029-0.026-1.532-0.09c-0.373-0.058-0.736-0.135-1.098-0.249
	c-0.393-0.126-0.786-0.26-1.17-0.414c-0.193-0.086-0.381-0.179-0.555-0.299c-0.188-0.129-0.37-0.267-0.567-0.386
	c-0.194-0.115-0.396-0.218-0.588-0.337c-0.186-0.114-0.367-0.234-0.545-0.358c-0.25-0.216-0.472-0.453-0.682-0.708
	c-0.257-0.355-0.48-0.734-0.662-1.132c-0.278-0.729-0.478-1.489-0.611-2.257c-0.057-0.591-0.015-1.185,0.049-1.775
	c0.116-0.764,0.277-1.532,0.557-2.253c0.215-0.461,0.453-0.917,0.747-1.333c0.207-0.249,0.426-0.485,0.655-0.712
	c0.23-0.228,0.484-0.431,0.733-0.636c0.262-0.199,0.53-0.391,0.808-0.569c0.28-0.178,0.575-0.326,0.877-0.461
	c0.362-0.149,0.727-0.285,1.096-0.413c0.345-0.119,0.687-0.224,1.044-0.288c0.214-0.017,0.426-0.026,0.639-0.03
	c0.085,0.068,0.182,0.12,0.281,0.136c0.394,0.066,0.793,0.09,1.189,0.135c0.354,0.05,0.71,0.103,1.065,0.15
	c0.47,0.074,0.934,0.185,1.381,0.349c0.352,0.166,0.685,0.369,1.021,0.561c0.355,0.205,0.702,0.423,1.033,0.662
	c0.509,0.427,0.956,0.924,1.371,1.44c0.156,0.218,0.298,0.439,0.415,0.68c0.171,0.461,0.306,0.938,0.394,1.421
	c0.041,0.389,0.047,0.778,0.045,1.169C23.702,21.856,23.683,22.307,23.636,22.758z"/>
</svg>