<?xml version="1.0" encoding="utf-8"?>
<!-- Generator: Adobe Illustrator 21.1.0, SVG Export Plug-In . SVG Version: 6.00 Build 0)  -->
<svg version="1.1" id="designs" xmlns="http://www.w3.org/2000/svg" xmlns:xlink="http://www.w3.org/1999/xlink" x="0px" y="0px"
	 width="32px" height="32px" viewBox="0 0 32 32" style="enable-background:new 0 0 32 32;" xml:space="preserve">
<style type="text/css">
	.sketchy_een{fill:#111918;}
</style>
<path class="sketchy_een" d="M29.919,11.654c0.009-0.303,0.028-0.605,0.033-0.908c0.004-0.308-0.007-0.62-0.009-0.928
	c-0.007-0.655,0.019-1.309,0.056-1.964c0.022-0.427-0.375-0.783-0.783-0.783c-0.034,0-0.063,0.015-0.096,0.019
	c-0.152-0.157-0.362-0.257-0.594-0.26c-0.376-0.004-0.751-0.011-1.127-0.016c0.004-0.165,0.007-0.331,0.01-0.497
	c0.005-0.276-0.153-0.51-0.371-0.652c-0.154-0.182-0.375-0.305-0.63-0.311c-0.871-0.018-1.741-0.018-2.612-0.043
	c-0.819-0.024-1.637-0.058-2.458-0.072c-1.662-0.028-3.323-0.056-4.987-0.063c-0.728-0.002-1.454,0-2.181,0
	c-0.895,0.002-1.79,0.004-2.685-0.004C10.689,5.166,9.89,5.123,9.092,5.11c-0.273-0.004-0.547-0.005-0.82-0.005
	c-0.526,0-1.052,0.005-1.579,0.009C6.129,5.12,5.563,5.121,4.998,5.125C4.755,5.126,4.545,5.248,4.401,5.426
	C4.165,5.51,3.967,5.696,3.908,5.95C3.741,6.676,3.559,7.4,3.418,8.132c-0.136,0.706-0.301,1.402-0.472,2.1
	c-0.173,0.706-0.29,1.426-0.473,2.13c-0.162,0.616-0.317,1.231-0.453,1.851c-0.058,0.264,0.015,0.524,0.175,0.716
	c0.041,0.42,0.384,0.723,0.803,0.742c0.269,0.013,0.539,0.01,0.809,0.014c-0.154,0.853-0.305,1.706-0.478,2.554
	c-0.163,0.798-0.316,1.6-0.447,2.404c-0.132,0.798-0.286,1.593-0.425,2.39c-0.137,0.795-0.265,1.591-0.382,2.387
	c-0.02,0.132-0.025,0.253-0.009,0.372c-0.01,0.056-0.033,0.109-0.033,0.166c0,0.483,0.427,0.973,0.936,0.936
	c0.769-0.056,1.537-0.115,2.308-0.15c0.653-0.028,1.311-0.033,1.964-0.03c0.681,0.002,1.361,0.002,2.042,0.022
	c0.654,0.018,1.303,0.08,1.957,0.044c0.369-0.021,0.674-0.265,0.759-0.614c0.084-0.095,0.151-0.206,0.171-0.322
	c0.132-0.776,0.342-1.537,0.509-2.306c0.163-0.756,0.254-1.524,0.405-2.284c0.041-0.208,0.085-0.416,0.127-0.624
	c0.616-0.059,1.226-0.116,1.83-0.263c0.291-0.072,0.568-0.201,0.837-0.33c0.252-0.121,0.498-0.252,0.737-0.397
	c0.152-0.093,0.292-0.21,0.427-0.321c0.13-0.108,0.225-0.252,0.327-0.384c0.147-0.191,0.236-0.433,0.336-0.65
	c0.271-0.594,0.516-1.203,0.748-1.814c0.026-0.07,0.02-0.15,0.018-0.229c0.709-0.005,1.418-0.012,2.125-0.031
	c0.819-0.022,1.637-0.054,2.456-0.054c0.904,0,1.808,0.017,2.714,0.02c0.258,0.001,0.484-0.128,0.639-0.317
	c0.024,0.003,0.046,0.015,0.071,0.015c0.21,0,0.414-0.084,0.564-0.232c0.158-0.158,0.217-0.347,0.232-0.564
	c0.05-0.667,0.049-1.338,0.08-2.006c0.598,0.023,1.19,0.073,1.784,0.128c0.21,0.021,0.447-0.1,0.59-0.245
	c0.156-0.156,0.245-0.37,0.245-0.59c0-0.145-0.05-0.281-0.121-0.405C29.891,11.865,29.916,11.762,29.919,11.654z M16.363,17.328
	c-0.117,0.274-0.236,0.555-0.4,0.802c-0.042,0.045-0.087,0.086-0.134,0.127c-0.269,0.184-0.561,0.328-0.859,0.46
	c-0.316,0.113-0.642,0.186-0.972,0.244c-0.15,0.016-0.301,0.01-0.452,0.013c0.016-0.077,0.031-0.154,0.047-0.23
	c0.175-0.825,0.373-1.646,0.565-2.469c0.866-0.012,1.733-0.02,2.599-0.023C16.628,16.612,16.506,16.974,16.363,17.328z
	 M20.663,14.53c-1.652,0.028-3.305,0.074-4.957,0.083c-0.78,0.004-1.56-0.004-2.341-0.013c-0.459-0.005-0.841,0.388-0.841,0.843
	c0,0.095,0.025,0.186,0.057,0.273c-0.381,1.672-0.717,3.353-1.067,5.033c-0.16,0.769-0.28,1.547-0.446,2.313
	c-0.152,0.691-0.336,1.377-0.476,2.07c-1.091-0.101-2.181-0.184-3.278-0.208c-0.35-0.007-0.7-0.011-1.05-0.011
	c-0.795,0-1.589,0.025-2.383,0.063c0.011-0.082,0.024-0.164,0.036-0.245c0.061-0.405,0.13-0.81,0.199-1.212
	c0.136-0.784,0.278-1.565,0.394-2.354c0.117-0.811,0.24-1.625,0.401-2.428c0.178-0.889,0.36-1.777,0.525-2.67
	c0.025-0.134,0.023-0.261,0.001-0.385c0.219-0.004,0.439-0.007,0.658-0.01c0.436-0.008,0.873-0.017,1.309-0.021
	c0.388-0.003,0.782-0.051,1.17-0.026c0.21,0.037,0.407,0.025,0.599-0.087c0.182-0.108,0.317-0.284,0.373-0.487
	c0.058-0.21,0.028-0.44-0.082-0.628c-0.152-0.258-0.412-0.386-0.702-0.403c-0.124-0.008-0.249-0.01-0.374-0.01
	c-0.284,0-0.57,0.015-0.85,0.025c-0.176,0.005-0.351,0.026-0.525,0.037c-0.267,0.017-0.531,0.02-0.798,0.026
	c-0.507,0.013-1.016,0.017-1.522,0.008c-0.341-0.006-0.679-0.028-1.018-0.046c0.093-0.417,0.186-0.834,0.283-1.251
	c0.165-0.722,0.282-1.456,0.451-2.176c0.16-0.68,0.31-1.361,0.455-2.044C4.999,7.951,5.177,7.32,5.34,6.686
	c1.464,0.018,2.928,0.019,4.393,0.045c0.789,0.013,1.576,0.045,2.365,0.043c0.834-0.002,1.667,0,2.501,0
	c3.273-0.004,6.546,0.05,9.818,0.178c0.469,0.018,0.938,0.031,1.407,0.045c0.004,0.578,0.011,1.156,0.013,1.736
	c0.004,0.737-0.02,1.474-0.032,2.211c-0.002,0.121-0.011,0.241-0.015,0.362c-0.272-0.001-0.544-0.003-0.816-0.003
	c-0.36,0.002-0.722,0.004-1.084-0.002c-0.728-0.009-1.457-0.032-2.185-0.032c-0.778,0-1.558,0.013-2.336,0.017
	c-0.743,0.006-1.485-0.009-2.226-0.017c-1.539-0.011-3.076-0.015-4.615-0.002c-0.743,0.008-1.487,0.008-2.232,0
	c-0.694-0.005-1.387-0.031-2.081-0.035c-0.403-0.004-0.806-0.007-1.21-0.009c-0.001,0-0.002,0-0.003,0
	c-0.409,0-0.749,0.345-0.749,0.754c0,0.401,0.342,0.765,0.752,0.752c0.631-0.018,1.264-0.009,1.894,0.002
	c0.711,0.011,1.42,0.03,2.129,0.041c1.513,0.024,3.028,0.03,4.541,0.035c0.789,0.002,1.576,0.021,2.365,0.039
	c0.744,0.019,1.489,0.021,2.233,0.021c0.759,0,1.521-0.009,2.28-0.013c0.739-0.004,1.482-0.015,2.222,0.004
	c0.217,0.005,0.433,0.015,0.65,0.023c0.116,0.084,0.25,0.142,0.401,0.155c-0.025,0.485-0.03,0.97-0.036,1.455
	C24.011,14.495,22.335,14.5,20.663,14.53z M27.384,11.476c0.001-0.178,0.01-0.355,0.011-0.533c0-0.737-0.035-1.474-0.032-2.211
	c0.001-0.071,0.003-0.142,0.004-0.213c0.353-0.007,0.707-0.015,1.06-0.026c0,0.432,0.004,0.864-0.004,1.295
	c-0.004,0.31-0.002,0.618-0.015,0.928c-0.011,0.262-0.027,0.524-0.036,0.787c-0.287-0.01-0.574-0.029-0.862-0.029
	C27.468,11.474,27.426,11.476,27.384,11.476z"/>
</svg>