<?xml version="1.0" encoding="utf-8"?>
<!-- Generator: Adobe Illustrator 21.1.0, SVG Export Plug-In . SVG Version: 6.00 Build 0)  -->
<svg version="1.1" id="designs" xmlns="http://www.w3.org/2000/svg" xmlns:xlink="http://www.w3.org/1999/xlink" x="0px" y="0px"
	 width="32px" height="32px" viewBox="0 0 32 32" style="enable-background:new 0 0 32 32;" xml:space="preserve">
<style type="text/css">
	.sketchy_een{fill:#111918;}
</style>
<path class="sketchy_een" d="M15.627,29c-0.305,0-0.61-0.01-0.917-0.031c-1.207-0.083-2.17-0.276-3.029-0.609
	c-0.909-0.35-1.794-0.773-2.63-1.254c-0.924-0.53-1.78-1.178-2.496-1.741c-0.826-0.65-1.478-1.46-1.887-2.343
	c-0.278-0.597-0.486-1.102-0.656-1.589l-0.085-0.241c-0.126-0.356-0.252-0.713-0.345-1.078c-0.253-0.974-0.377-1.986-0.37-3.007
	c0.008-1.153,0.117-2.229,0.322-3.198c0.181-0.864,0.513-1.774,1.045-2.866C5.041,10.1,5.591,9.228,6.262,8.381
	c0.313-0.395,0.633-0.781,0.958-1.167C7.52,6.855,7.827,6.493,8.158,6.163C8.48,5.843,8.826,5.506,9.2,5.215
	c0.392-0.306,0.837-0.653,1.335-0.905c0.5-0.253,1.011-0.472,1.519-0.651c0.475-0.166,0.974-0.267,1.355-0.335
	C14.441,3.137,15.534,3.028,16.656,3c0,0,0.001,0,0.001,0c0.202,0,0.381,0.072,0.524,0.202c0.457,0.075,0.855,0.133,1.254,0.194
	l0.386,0.056c0.498,0.07,1.014,0.142,1.493,0.307c0.66,0.227,1.297,0.531,1.894,0.905c0.552,0.342,1.048,0.654,1.522,1
	c0.946,0.691,1.718,1.375,2.362,2.088c0.387,0.43,0.736,0.907,1.026,1.317c0.311,0.442,0.56,0.864,0.764,1.289
	c0.25,0.528,0.447,1.05,0.587,1.551c0.124,0.449,0.271,1.041,0.299,1.644c0.04,0.86,0.017,1.782-0.072,2.742
	c-0.096,1.084-0.272,2.078-0.535,3.039c-0.262,0.947-0.655,1.891-1.17,2.805c-0.22,0.398-0.474,0.783-0.756,1.148
	c-0.355,0.461-0.685,0.889-1.048,1.287c-0.727,0.799-1.517,1.489-2.346,2.052c-0.408,0.278-0.836,0.523-1.265,0.766l-0.145,0.081
	c-0.371,0.209-0.745,0.42-1.131,0.599c-0.463,0.214-0.959,0.434-1.481,0.568c-0.475,0.121-0.969,0.209-1.47,0.261
	C16.739,28.969,16.176,29,15.627,29L15.627,29z M13.206,25.502c-0.095,0.466-0.188,0.817-0.304,1.136l-0.076,0.187l0.094,0.048
	c0.388,0.113,0.746,0.194,1.096,0.25c0.591,0.068,1.178,0.102,1.748,0.102c0.512,0,1.027-0.028,1.531-0.081
	c0.662-0.101,1.258-0.256,1.826-0.475c0.567-0.256,1.106-0.557,1.629-0.847c0.646-0.359,1.156-0.679,1.606-1.009
	c0.436-0.346,0.845-0.713,1.218-1.091c0.438-0.442,0.828-0.92,1.117-1.286c0.316-0.42,0.55-0.77,0.738-1.103
	c0.088-0.155,0.164-0.314,0.241-0.473l0.138-0.282l-1.202-0.59l-0.158,0.231c-0.159,0.262-0.446,0.424-0.748,0.424
	c-0.147,0-0.292-0.039-0.42-0.114c-0.196-0.115-0.342-0.313-0.398-0.544c-0.054-0.22-0.023-0.44,0.091-0.621l0.189-0.279
	l-0.069-0.057c-0.23-0.189-0.39-0.319-0.544-0.458c-0.453-0.404-0.902-0.87-1.337-1.386l-0.07-0.084l-0.233,0.224
	c-0.15,0.151-0.352,0.233-0.572,0.233c-0.219,0-0.425-0.083-0.577-0.234c-0.31-0.312-0.309-0.818,0.003-1.152
	c0.057-0.061,0.288-0.279,0.342-0.333l0.056-0.059l-0.233-0.343c-0.217-0.339-0.417-0.708-0.598-1.096
	c-0.24-0.512-0.452-0.975-0.617-1.462l-0.026-0.075l-0.123-0.146l-0.158,0.014c-0.39,0.034-0.779,0.069-1.168,0.097
	c0,0-0.001,0-0.002,0c-0.483,0-0.809-0.432-0.809-0.817c0-0.5,0.415-0.79,0.826-0.817l0.98-0.062l-0.07-0.329
	c-0.037-0.172-0.075-0.343-0.103-0.517c-0.089-0.523-0.127-1.007-0.119-1.479l0.002-0.085L17.043,8.49
	c-0.181-0.034-0.341-0.151-0.451-0.327c-0.126-0.203-0.169-0.461-0.11-0.674c0.056-0.204,0.192-0.381,0.374-0.487
	c0.123-0.072,0.253-0.107,0.4-0.107c0.074,0,0.153,0.008,0.235,0.026l0.545,0.121l0.01-0.114c0.047-0.565,0.112-1.129,0.191-1.69
	l0.014-0.097l-0.559-0.094c-0.34-0.058-0.678-0.115-1.018-0.166l-0.346-0.041c-0.21-0.023-0.381-0.062-0.533-0.181
	c-0.556,0.009-1.042,0.054-1.529,0.113c-0.373,0.057-0.74,0.12-1.104,0.206c-0.346,0.083-0.712,0.201-1.118,0.363
	c-0.303,0.136-0.558,0.25-0.798,0.389c-0.264,0.152-0.515,0.317-0.761,0.496C9.906,6.683,9.421,7.133,9,7.601
	C8.53,8.121,8.08,8.654,7.642,9.202L7.303,9.67l1.21,0.962l0.146-0.146c0.172-0.157,0.389-0.244,0.612-0.244
	c0.218,0,0.424,0.086,0.579,0.241c0.308,0.308,0.32,0.859,0.025,1.154l-0.073,0.074l0.075,0.071
	c0.557,0.522,0.963,1.105,1.327,1.665c0.172,0.263,0.326,0.536,0.471,0.814l0.046,0.089l0.183-0.088
	c0.133-0.069,0.282-0.106,0.43-0.106c0.298,0,0.565,0.151,0.713,0.404c0.114,0.196,0.141,0.452,0.07,0.686
	c-0.062,0.205-0.19,0.364-0.362,0.448l-0.372,0.178l0.033,0.086c0.515,1.319,0.841,2.559,0.997,3.79l0.01,0.078l0.078,0.009
	c0.341,0.041,0.596,0.254,0.683,0.57c0.055,0.201,0.026,0.423-0.081,0.61c-0.107,0.187-0.276,0.32-0.477,0.374l-0.074,0.022
	l-0.016,0.08c0.018,0.68,0.023,1.41-0.059,2.15l-0.008,0.076l0.07,0.04l0.323,0.128c0.216,0.085,0.383,0.182,0.5,0.38
	c0.11,0.188,0.139,0.419,0.081,0.631c-0.093,0.338-0.444,0.612-0.784,0.612c-0.074,0-0.146-0.012-0.214-0.037l-0.11-0.04
	L13.206,25.502z M6.253,11.462c-0.136,0.259-0.272,0.518-0.392,0.786c-0.173,0.433-0.326,0.864-0.456,1.306
	c-0.138,0.465-0.219,0.944-0.274,1.309c-0.067,0.639-0.105,1.27-0.116,1.878c-0.008,0.508,0.023,1.051,0.096,1.709
	c0.093,0.584,0.209,1.083,0.354,1.53c0.182,0.561,0.376,1.119,0.592,1.67c0.108,0.254,0.22,0.505,0.357,0.742
	c0.146,0.248,0.299,0.484,0.465,0.716c0.314,0.361,0.674,0.701,1.138,1.076c0.759,0.577,1.397,1.014,2.012,1.378
	c0.349,0.207,0.708,0.398,1.073,0.58l0.099,0.05l0.085-0.241l0.061-0.132c0.11-0.289,0.202-0.614,0.281-0.994l0.017-0.081
	l-0.804-0.342c-0.178-0.077-0.326-0.314-0.374-0.497c-0.061-0.218-0.03-0.454,0.084-0.649c0.109-0.188,0.292-0.329,0.503-0.389
	c0.068-0.018,0.134-0.027,0.2-0.027c0.162,0,0.317,0.057,0.46,0.118l0.133,0.057l0.035-0.132c0.024-0.465,0.023-0.932,0.006-1.398
	l-0.003-0.093l-0.872-0.039c-0.469-0.02-0.823-0.372-0.823-0.819c0-0.429,0.371-0.819,0.777-0.819l0.768,0.049l-0.023-0.127
	c-0.11-0.608-0.23-1.137-0.368-1.617c-0.142-0.5-0.327-0.991-0.473-1.363l-0.037-0.095l-0.305,0.127
	c-0.109,0.047-0.218,0.093-0.329,0.135c-0.059,0.022-0.127,0.033-0.202,0.033c-0.148,0-0.315-0.045-0.445-0.121
	c-0.19-0.113-0.334-0.299-0.392-0.51c-0.059-0.22-0.027-0.46,0.087-0.655c0.108-0.183,0.262-0.301,0.516-0.395l0.376-0.136
	l-0.057-0.104c-0.23-0.43-0.479-0.818-0.813-1.283c-0.167-0.205-0.341-0.394-0.52-0.577L8.667,12.99l-0.34,0.484
	c-0.161,0.227-0.317,0.348-0.523,0.405c-0.073,0.02-0.15,0.03-0.227,0.03c-0.155,0-0.306-0.04-0.438-0.117
	c-0.192-0.113-0.337-0.302-0.395-0.518c-0.053-0.189-0.05-0.475,0.081-0.657c0.119-0.165,0.247-0.326,0.375-0.486L7.4,11.877
	l-0.55-0.435L6.432,11.12L6.253,11.462z M25.033,17.051c0.231,0,0.457,0.093,0.618,0.257c0.164,0.163,0.259,0.389,0.259,0.62
	c0,0.234-0.092,0.398-0.249,0.602l-0.075,0.096l0.82,0.417l0.034-0.117c0.211-0.713,0.372-1.449,0.48-2.186
	c0.064-0.572,0.102-1.143,0.125-1.715c0.022-0.521,0.034-1.083-0.014-1.659c-0.102-0.579-0.268-1.151-0.521-1.811
	c-0.295-0.642-0.674-1.27-1.163-1.925c-0.344-0.43-0.68-0.804-1.027-1.146C24,8.169,23.639,7.852,23.149,7.456
	c-0.462-0.346-0.941-0.662-1.425-0.97c-0.595-0.378-1.104-0.662-1.603-0.895c-0.054-0.021-0.102-0.034-0.152-0.048l-0.111-0.037
	l-0.096-0.028l-0.131,0.814c-0.031,0.262-0.048,0.52-0.064,0.779L19.546,7.38l0.438,0.099c0.187,0.046,0.348,0.17,0.453,0.348
	c0.11,0.187,0.142,0.408,0.087,0.608c-0.052,0.192-0.183,0.361-0.357,0.463c-0.112,0.067-0.235,0.099-0.375,0.099
	c-0.067,0-0.136-0.007-0.206-0.02l-0.123-0.023l0.005,0.126c0.01,0.246,0.025,0.491,0.049,0.736
	c0.048,0.311,0.114,0.612,0.179,0.913l0.055,0.255l0.246-0.014c0.098-0.007,0.198-0.013,0.297-0.014
	c0.425,0,0.782,0.359,0.782,0.784c0,0.408-0.321,0.734-0.761,0.775l-0.133,0.012l0.152,0.405c0.206,0.47,0.424,0.899,0.67,1.315
	c0.045,0.077,0.094,0.151,0.145,0.225l0.135,0.205l0.21-0.199c0.179-0.161,0.403-0.249,0.628-0.249c0.222,0,0.424,0.085,0.583,0.245
	c0.165,0.165,0.259,0.412,0.25,0.662c-0.008,0.219-0.094,0.411-0.244,0.541l-0.404,0.356l0.064,0.076
	c0.191,0.224,0.391,0.442,0.602,0.646c0.333,0.321,0.687,0.62,1.045,0.913l0.082,0.066l0.175-0.247
	c0.08-0.134,0.183-0.237,0.316-0.316C24.728,17.09,24.872,17.051,25.033,17.051z"/>
</svg>