<?xml version="1.0" encoding="utf-8"?>
<!-- Generator: Adobe Illustrator 21.1.0, SVG Export Plug-In . SVG Version: 6.00 Build 0)  -->
<svg version="1.1" id="designs" xmlns="http://www.w3.org/2000/svg" xmlns:xlink="http://www.w3.org/1999/xlink" x="0px" y="0px"
	 width="32px" height="32px" viewBox="0 0 32 32" style="enable-background:new 0 0 32 32;" xml:space="preserve">
<style type="text/css">
	.sketchy_een{fill:#111918;}
</style>
<path class="sketchy_een" d="M28.173,15.354c-0.3-0.437-0.665-0.814-1.13-1.081c-0.082-0.046-0.167-0.09-0.254-0.13
	c0.091-0.15,0.154-0.319,0.221-0.479c0.053-0.125,0.092-0.261,0.12-0.394c0.177-0.849,0.224-1.818-0.308-2.558
	c-0.141-0.194-0.284-0.371-0.459-0.533c-0.19-0.181-0.428-0.328-0.655-0.459c-0.367-0.21-0.771-0.349-1.185-0.426
	c-0.371-0.069-0.751-0.108-1.13-0.112c-0.157,0-0.314,0.004-0.471,0.018c-0.015,0.001-0.031,0.003-0.046,0.004
	c0.031-0.058,0.056-0.119,0.073-0.183c0.067-0.243,0.018-0.463-0.09-0.683c-0.165-0.337-0.337-0.669-0.555-0.977
	c-0.302-0.424-0.704-0.773-1.143-1.048c-0.369-0.231-0.771-0.392-1.193-0.494c-0.008-0.002-0.016-0.001-0.025-0.003
	c0.026-0.209,0.044-0.419,0.047-0.629c0.006-0.351-0.051-0.702-0.143-1.042c-0.226-0.82-0.736-1.685-1.538-2.042
	c-0.492-0.22-1.004-0.379-1.553-0.349c-0.496,0.027-0.973,0.143-1.42,0.361c-0.324,0.159-0.63,0.371-0.89,0.624
	c-0.024,0.023-0.047,0.047-0.07,0.071c-0.101-0.139-0.202-0.277-0.307-0.412c-0.239-0.306-0.53-0.579-0.857-0.783
	c-0.384-0.239-0.838-0.42-1.283-0.512c-0.222-0.047-0.447-0.073-0.675-0.094C11.185,1.003,11.115,1,11.045,1
	c-0.361,0-0.717,0.086-1.049,0.226c-0.373,0.159-0.734,0.418-1.032,0.69C8.831,2.038,8.703,2.163,8.582,2.297
	c-0.292,0.316-0.494,0.678-0.63,1.087C7.828,3.756,7.777,4.168,7.766,4.56C7.757,4.879,7.787,5.19,7.827,5.503
	C7.341,5.587,6.871,5.749,6.44,5.996c-0.73,0.42-1.381,0.99-1.765,1.751c-0.206,0.406-0.314,0.859-0.347,1.31
	c-0.047,0.639,0.065,1.271,0.418,1.816c0.198,0.304,0.443,0.584,0.68,0.859c-0.167,0.122-0.329,0.255-0.48,0.396
	c-0.32,0.298-0.59,0.645-0.843,1.002c-0.484,0.681-0.722,1.504-0.794,2.328c-0.033,0.381,0.018,0.761,0.082,1.136
	c0.12,0.7,0.616,1.226,1.167,1.632c0.314,0.233,0.635,0.467,0.989,0.638c0.156,0.077,0.314,0.148,0.475,0.214
	c-0.069,0.123-0.138,0.247-0.198,0.375c-0.104,0.218-0.204,0.447-0.265,0.681c-0.069,0.255-0.108,0.512-0.141,0.775
	c-0.024,0.182-0.012,0.376,0.012,0.559c0.031,0.251,0.061,0.504,0.124,0.751c0.084,0.339,0.202,0.673,0.404,0.961
	c0.173,0.247,0.379,0.451,0.606,0.643c0.608,0.508,1.385,0.812,2.179,0.81c0.005,0.63,0.012,1.261,0.01,1.891
	c-0.002,0.392-0.016,0.785-0.037,1.177c-0.019,0.386-0.037,0.774-0.081,1.157c-0.033,0.2-0.079,0.395-0.149,0.585
	c-0.015,0.034-0.019,0.068-0.03,0.102c-0.136,0.146-0.224,0.338-0.224,0.549c0,0.439,0.367,0.81,0.806,0.808
	c0.639-0.004,1.277-0.022,1.916-0.03c0.306-0.002,0.614,0,0.922,0.002c0.237,0.002,0.479,0.004,0.718,0.002
	c0.152-0.001,0.287-0.058,0.407-0.135c0.112-0.01,0.222-0.038,0.319-0.094c0.169-0.098,0.294-0.261,0.345-0.449
	c0.064-0.234,0.008-0.443-0.116-0.63c0.003,0.004,0.005,0.007,0.008,0.01c-0.041-0.056-0.075-0.114-0.106-0.174
	c-0.1-0.294-0.143-0.6-0.186-0.907c-0.084-0.688-0.082-1.379-0.078-2.071c0.005-0.589,0.033-1.179,0.054-1.768
	c0.099,0.012,0.197,0.031,0.296,0.041c0.43,0.039,0.86-0.02,1.249-0.189c0.379,0.282,0.821,0.466,1.278,0.58
	c0.321,0.079,0.665,0.096,1.001,0.057c0.012,0.575,0.026,1.151,0.031,1.726c0.009,0.748,0.017,1.488-0.065,2.23
	c-0.035,0.215-0.084,0.421-0.166,0.624c-0.001,0.003,0,0.007-0.001,0.01c-0.075,0.123-0.13,0.259-0.13,0.407
	c0,0.441,0.365,0.798,0.804,0.804c0.383,0.006,0.767,0.002,1.151,0c0.279-0.002,0.557-0.004,0.838-0.004
	c0.557,0,1.114,0.057,1.671,0.057c0.424-0.002,0.777-0.355,0.777-0.779c0-0.332-0.217-0.611-0.512-0.722
	c-0.008-0.018-0.008-0.038-0.017-0.055c-0.038-0.072-0.074-0.145-0.109-0.219c-0.078-0.214-0.14-0.428-0.18-0.651
	c-0.023-0.271-0.026-0.543-0.035-0.813c-0.01-0.33-0.023-0.659-0.043-0.989c-0.026-0.43-0.034-0.861-0.04-1.292
	c0.363,0.062,0.738,0.06,1.099-0.002c0.463-0.078,0.918-0.206,1.347-0.394c0.369-0.161,0.737-0.371,1.01-0.675
	c0.32-0.355,0.537-0.747,0.706-1.191c0.151-0.4,0.218-0.851,0.222-1.277c0.001-0.154-0.008-0.306-0.023-0.458
	c0.255-0.036,0.503-0.103,0.739-0.215c0.439-0.208,0.826-0.51,1.181-0.839c0.639-0.588,1.098-1.347,1.277-2.203
	C28.797,17.263,28.748,16.19,28.173,15.354z M10.107,29.3c0.042-0.268,0.071-0.536,0.088-0.807c0.029-0.48,0.043-0.965,0.049-1.448
	c0.006-0.492-0.002-0.985,0-1.479c0.002-0.445,0.009-0.891,0.014-1.337c0.013-0.008,0.029-0.012,0.042-0.02
	c0.2-0.132,0.387-0.28,0.571-0.431c0.083,0.065,0.168,0.127,0.258,0.184c0.168,0.104,0.342,0.184,0.515,0.269
	c-0.014,1.024-0.011,2.051,0.013,3.075c0.012,0.545,0.067,1.081,0.163,1.616c0.022,0.132,0.051,0.263,0.076,0.394
	C11.3,29.314,10.703,29.31,10.107,29.3z M12.982,23.106c-0.207-0.036-0.409-0.087-0.607-0.161c-0.209-0.101-0.409-0.219-0.597-0.351
	c-0.064-0.055-0.124-0.114-0.187-0.171c-0.249-0.226-0.588-0.394-0.932-0.292c-0.345,0.105-0.57,0.382-0.836,0.607
	c-0.161,0.118-0.324,0.228-0.501,0.318c-0.078,0.026-0.157,0.047-0.238,0.063c-0.157,0.011-0.312,0.013-0.47,0.002
	c-0.162-0.034-0.318-0.082-0.475-0.137c-0.193-0.093-0.374-0.199-0.551-0.32c-0.113-0.099-0.218-0.203-0.317-0.316
	c-0.051-0.076-0.096-0.153-0.136-0.234c-0.088-0.254-0.152-0.509-0.196-0.773c-0.013-0.167-0.015-0.331-0.004-0.5
	c0.037-0.208,0.09-0.408,0.164-0.609c0.071-0.156,0.151-0.306,0.24-0.454c0.143-0.239,0.306-0.465,0.404-0.729
	c0.1-0.263,0.092-0.596-0.08-0.83c-0.177-0.243-0.386-0.363-0.667-0.453c-0.167-0.055-0.333-0.108-0.497-0.17
	c-0.388-0.181-0.74-0.406-1.085-0.657c-0.144-0.119-0.278-0.246-0.401-0.386c-0.025-0.041-0.048-0.081-0.069-0.124
	c-0.038-0.117-0.068-0.233-0.093-0.355c-0.025-0.266-0.024-0.527,0.001-0.793c0.051-0.275,0.125-0.536,0.221-0.795
	c0.124-0.248,0.263-0.48,0.42-0.707c0.214-0.262,0.442-0.506,0.702-0.723c0.103-0.071,0.207-0.135,0.319-0.194
	c0.036-0.014,0.073-0.029,0.111-0.043c0.284-0.106,0.537-0.233,0.696-0.502c0.149-0.253,0.161-0.63-0.006-0.877
	c-0.08-0.122-0.173-0.229-0.275-0.335c-0.268-0.279-0.518-0.573-0.762-0.875c-0.101-0.137-0.192-0.276-0.27-0.428
	c-0.028-0.09-0.051-0.18-0.07-0.271C5.929,9.385,5.932,9.24,5.942,9.095C5.971,8.937,6.009,8.781,6.06,8.626
	C6.119,8.505,6.187,8.391,6.263,8.28c0.16-0.182,0.329-0.35,0.514-0.505c0.265-0.187,0.541-0.347,0.835-0.485
	c0.208-0.078,0.42-0.141,0.638-0.182c0.127-0.008,0.253-0.004,0.38-0.014C8.878,7.077,9.107,7,9.288,6.822
	c0.19-0.19,0.279-0.447,0.279-0.712c-0.002-0.216-0.078-0.447-0.12-0.661c-0.03-0.152-0.056-0.306-0.082-0.46
	c-0.026-0.27-0.03-0.538-0.01-0.81c0.028-0.166,0.064-0.328,0.117-0.488c0.042-0.085,0.09-0.168,0.143-0.247
	c0.135-0.153,0.279-0.293,0.432-0.43c0.186-0.137,0.379-0.26,0.587-0.363c0.075-0.026,0.151-0.046,0.229-0.063
	c0.151-0.008,0.297-0.002,0.446,0.013c0.259,0.049,0.506,0.124,0.75,0.22c0.138,0.069,0.267,0.148,0.392,0.236
	c0.176,0.151,0.334,0.314,0.481,0.492c0.12,0.161,0.236,0.324,0.357,0.485c0.226,0.298,0.449,0.661,0.843,0.751
	c0.337,0.078,0.647-0.029,0.888-0.269c0.082-0.08,0.147-0.182,0.222-0.271c0.122-0.144,0.253-0.274,0.396-0.396
	c0.114-0.077,0.232-0.144,0.355-0.206c0.166-0.058,0.335-0.101,0.508-0.133c0.133-0.01,0.265-0.01,0.397-0.002
	c0.158,0.033,0.31,0.081,0.46,0.138c0.093,0.047,0.182,0.097,0.269,0.153c0.037,0.036,0.072,0.072,0.106,0.11
	c0.102,0.155,0.192,0.314,0.271,0.481c0.061,0.175,0.109,0.352,0.148,0.533c0.01,0.188-0.001,0.374-0.022,0.562
	c-0.021,0.127-0.045,0.253-0.069,0.381c-0.014,0.073-0.009,0.142-0.012,0.212c-0.086,0.044-0.173,0.087-0.255,0.139
	c-0.398,0.249-0.696,0.583-0.967,0.959c-0.208,0.288-0.333,0.643-0.445,0.975c-0.097,0.287-0.155,0.588-0.195,0.888
	c-0.071-0.015-0.143-0.026-0.214-0.036c-0.475-0.071-0.936-0.047-1.397,0.098c-0.408,0.129-0.786,0.347-1.096,0.641
	c-0.29,0.275-0.5,0.608-0.665,0.969c-0.165,0.363-0.271,0.74-0.349,1.128c-0.047,0.222-0.08,0.459-0.075,0.685
	c0.002,0.081,0.008,0.157,0.016,0.235c0.031,0.31,0.11,0.577,0.243,0.859c0.142,0.303,0.326,0.575,0.529,0.837
	c-0.237,0.118-0.466,0.253-0.678,0.412c-0.302,0.228-0.573,0.463-0.814,0.755c-0.137,0.165-0.263,0.339-0.377,0.522
	c-0.113,0.183-0.191,0.382-0.274,0.58c-0.026,0.064-0.051,0.128-0.075,0.192c-0.078,0.216-0.096,0.447-0.128,0.673
	c-0.025,0.204,0.006,0.435,0.043,0.635c0.043,0.223,0.124,0.433,0.22,0.641c0.204,0.437,0.524,0.824,0.898,1.124
	c0.377,0.3,0.773,0.504,1.23,0.655c0.145,0.047,0.294,0.079,0.441,0.108c0.015,0.003,0.029,0.006,0.044,0.009
	c0,0.409-0.032,0.821-0.032,1.227c-0.001,0.373,0.066,0.753,0.177,1.118C13.565,23.131,13.27,23.133,12.982,23.106z M18.58,29.37
	c0.037-0.245,0.062-0.493,0.089-0.737c0.049-0.437,0.047-0.877,0.043-1.316c-0.01-0.943,0-1.885-0.01-2.828
	c0-0.011-0.006-0.021-0.007-0.032c0.087-0.064,0.175-0.126,0.257-0.196c0.168,0.137,0.338,0.273,0.511,0.405
	c-0.006,0.041-0.025,0.079-0.024,0.122c0.024,0.889,0.096,1.775,0.12,2.664c0.014,0.475-0.002,0.949,0.073,1.42
	c0.028,0.179,0.085,0.351,0.142,0.523c-0.07-0.001-0.141-0.007-0.211-0.007C19.235,29.389,18.908,29.38,18.58,29.37z M26.945,17.564
	c-0.045,0.284-0.111,0.559-0.211,0.829c-0.086,0.174-0.183,0.339-0.294,0.496c-0.161,0.183-0.341,0.347-0.53,0.501
	c-0.164,0.116-0.332,0.218-0.512,0.307c-0.063,0.02-0.126,0.037-0.19,0.051c-0.383,0.018-0.823-0.04-1.152,0.166
	c-0.224,0.139-0.384,0.322-0.465,0.579c-0.069,0.22-0.047,0.443,0.008,0.665c0.03,0.127,0.062,0.252,0.086,0.38
	c0.017,0.214,0.016,0.427-0.001,0.642c-0.037,0.188-0.086,0.37-0.151,0.551c-0.067,0.135-0.143,0.263-0.226,0.388
	c-0.059,0.067-0.12,0.131-0.186,0.192c-0.136,0.093-0.276,0.172-0.425,0.245c-0.284,0.107-0.576,0.185-0.875,0.237
	c-0.133,0.011-0.263,0.011-0.396,0.001c-0.074-0.016-0.146-0.036-0.217-0.06c-0.234-0.121-0.447-0.277-0.659-0.433
	c-0.214-0.155-0.428-0.309-0.637-0.467c-0.117-0.095-0.233-0.189-0.354-0.278c-0.251-0.187-0.6-0.251-0.898-0.155
	c-0.333,0.109-0.585,0.361-0.847,0.582c-0.161,0.113-0.33,0.212-0.508,0.298c-0.127,0.046-0.254,0.083-0.387,0.114
	c-0.105,0.008-0.208,0.008-0.314,0.002c-0.179-0.037-0.352-0.088-0.525-0.15c-0.098-0.048-0.192-0.101-0.283-0.161
	c-0.031-0.029-0.06-0.058-0.089-0.089c-0.053-0.079-0.1-0.159-0.144-0.244c-0.07-0.191-0.121-0.382-0.161-0.583
	c-0.054-0.565-0.021-1.135-0.023-1.702c-0.002-0.365-0.069-0.71-0.324-0.987c-0.188-0.206-0.449-0.31-0.716-0.367
	c-0.26-0.057-0.513-0.12-0.761-0.211c-0.145-0.073-0.282-0.155-0.416-0.248c-0.118-0.101-0.226-0.207-0.327-0.323
	c-0.066-0.099-0.126-0.199-0.179-0.304c-0.025-0.074-0.046-0.148-0.062-0.223c-0.003-0.069-0.001-0.136,0.004-0.204
	c0.029-0.126,0.065-0.248,0.109-0.368c0.083-0.165,0.175-0.32,0.28-0.472c0.154-0.181,0.319-0.344,0.5-0.495
	c0.216-0.149,0.439-0.277,0.676-0.388c0.155-0.058,0.31-0.109,0.466-0.161c0.2-0.067,0.4-0.149,0.543-0.31
	c0.275-0.304,0.343-0.743,0.131-1.106c-0.118-0.2-0.29-0.371-0.449-0.541c-0.095-0.101-0.184-0.207-0.271-0.314
	c-0.15-0.204-0.282-0.414-0.396-0.64c-0.02-0.059-0.036-0.117-0.05-0.178c-0.006-0.11-0.005-0.219,0.002-0.33
	c0.049-0.27,0.116-0.537,0.211-0.795c0.06-0.124,0.125-0.243,0.2-0.358c0.065-0.072,0.134-0.14,0.207-0.205
	c0.084-0.056,0.17-0.106,0.261-0.153c0.123-0.045,0.248-0.081,0.376-0.107c0.096-0.005,0.191-0.005,0.287,0.001
	c0.127,0.025,0.251,0.058,0.373,0.103c0.15,0.065,0.298,0.132,0.449,0.191c0.18,0.073,0.435,0.118,0.622,0.043
	c0.147-0.059,0.296-0.104,0.404-0.231c0.126-0.145,0.182-0.251,0.251-0.432c0.073-0.188,0.045-0.457,0.049-0.661
	c0.005-0.167,0.014-0.332,0.03-0.497c0.048-0.273,0.119-0.539,0.215-0.799c0.067-0.133,0.139-0.26,0.221-0.382
	c0.087-0.096,0.178-0.185,0.275-0.269c0.101-0.067,0.203-0.13,0.311-0.186c0.107-0.037,0.212-0.066,0.323-0.089
	c0.089-0.003,0.175-0.002,0.263,0.002c0.171,0.035,0.336,0.086,0.501,0.145c0.157,0.079,0.303,0.172,0.448,0.274
	c0.131,0.108,0.256,0.222,0.368,0.351c0.204,0.3,0.365,0.626,0.523,0.953c-0.063,0.196-0.044,0.419,0.058,0.617
	c0.116,0.226,0.249,0.5,0.431,0.681c0.263,0.261,0.6,0.332,0.955,0.296c0.382-0.038,0.755-0.038,1.134,0.003
	c0.268,0.045,0.527,0.108,0.782,0.201c0.179,0.087,0.349,0.187,0.514,0.3c0.085,0.074,0.163,0.152,0.237,0.237
	c0.05,0.077,0.095,0.155,0.136,0.237c0.019,0.063,0.035,0.125,0.049,0.188c0.011,0.183,0.004,0.365-0.015,0.548
	c-0.037,0.228-0.088,0.449-0.166,0.667c-0.057,0.111-0.121,0.217-0.191,0.319c-0.091,0.105-0.186,0.203-0.288,0.296
	c-0.11,0.1-0.212,0.198-0.292,0.324c-0.153,0.245-0.204,0.627-0.026,0.876c0.141,0.196,0.294,0.341,0.532,0.408
	c0.092,0.027,0.186,0.037,0.281,0.053c0.177,0.027,0.35,0.067,0.519,0.125c0.125,0.061,0.244,0.129,0.359,0.206
	c0.107,0.095,0.203,0.195,0.296,0.303c0.085,0.123,0.161,0.25,0.231,0.383c0.043,0.122,0.078,0.245,0.104,0.372
	C26.972,17.078,26.967,17.32,26.945,17.564z M11.046,16.696c-0.004,0.01-0.008,0.019-0.011,0.029
	c-0.003,0.007-0.007,0.014-0.01,0.022C11.032,16.73,11.039,16.713,11.046,16.696z"/>
</svg>