<?xml version="1.0" encoding="utf-8"?>
<!-- Generator: Adobe Illustrator 21.1.0, SVG Export Plug-In . SVG Version: 6.00 Build 0)  -->
<svg version="1.1" id="designs" xmlns="http://www.w3.org/2000/svg" xmlns:xlink="http://www.w3.org/1999/xlink" x="0px" y="0px"
	 width="32px" height="32px" viewBox="0 0 32 32" style="enable-background:new 0 0 32 32;" xml:space="preserve">
<style type="text/css">
	.sketchy_een{fill:#111918;}
</style>
<path class="sketchy_een" d="M29.952,26.327c-0.057-0.316-0.188-0.642-0.37-0.906c-0.193-0.282-0.437-0.485-0.718-0.674
	c-0.324-0.218-0.758-0.256-1.136-0.256c-0.221,0-0.441,0.032-0.659,0.069c-0.339-0.45-0.669-0.907-1.022-1.346
	c-0.366-0.457-0.756-0.952-1.241-1.298c0.157-0.126,0.313-0.253,0.468-0.381c0.749-0.619,1.337-1.419,1.875-2.219
	c0.507-0.756,0.965-1.538,1.342-2.365c0.417-0.913,0.605-1.873,0.691-2.869c0.036-0.44,0.034-0.877,0.013-1.317
	c-0.025-0.49-0.078-0.994-0.203-1.469c-0.245-0.936-0.615-1.834-1.028-2.711c-0.406-0.865-0.973-1.641-1.62-2.346
	c-0.345-0.375-0.737-0.71-1.145-1.015c-0.362-0.272-0.749-0.513-1.126-0.762c-0.873-0.577-1.873-0.979-2.874-1.264
	c-0.473-0.134-0.948-0.262-1.432-0.348c-0.548-0.098-1.107-0.126-1.662-0.146c-0.01,0-0.021-0.001-0.031-0.001
	c-0.285,0-0.534,0.149-0.708,0.363c-0.375,0.086-0.691,0.414-0.673,0.815c0.038,0.889,0.069,1.777,0.063,2.667
	c-0.006,0.831-0.015,1.662-0.015,2.493c0,1.395,0.018,2.791,0.041,4.187c-0.395-0.003-0.789-0.007-1.183-0.005
	c-0.276,0.002-0.553,0.004-0.829,0.002c-0.887,0-1.773-0.006-2.658-0.01c-0.609-0.002-1.219-0.012-1.828-0.021
	c-0.095-0.239-0.2-0.474-0.306-0.706c-0.197-0.425-0.416-0.833-0.651-1.237C8.9,10.518,8.475,9.777,8.131,9.002
	c-0.06-0.151-0.116-0.303-0.172-0.457c-0.061-0.17-0.124-0.339-0.203-0.504c-0.111-0.229-0.4-0.438-0.645-0.498
	c-0.414-0.1-0.833-0.069-1.252-0.06C4.88,7.504,3.901,7.474,2.921,7.46c-0.004,0-0.009,0-0.013,0C2.412,7.46,2,7.89,2,8.383
	c0,0.506,0.419,0.919,0.921,0.921C3.633,9.31,4.346,9.315,5.058,9.291c0.421-0.014,0.851-0.05,1.276-0.046
	c0.131,0.351,0.264,0.699,0.419,1.042c0.214,0.471,0.431,0.944,0.668,1.403c0.226,0.437,0.467,0.866,0.697,1.3
	c0.019,0.037,0.034,0.076,0.053,0.113c-0.508-0.03-1.017-0.047-1.524-0.09c-0.021-0.002-0.042-0.003-0.062-0.003
	c-0.39,0-0.71,0.321-0.818,0.687c-0.134,0.151-0.255,0.386-0.228,0.589c0.132,1.003,0.329,1.994,0.611,2.966
	c0.123,0.429,0.268,0.856,0.429,1.273c0.101,0.26,0.222,0.513,0.341,0.764c0.096,0.205,0.193,0.416,0.318,0.603
	c0.285,0.437,0.592,0.856,0.915,1.264c0.285,0.36,0.631,0.665,0.992,0.946c-0.006,0.005-0.012,0.009-0.017,0.014
	c-0.322,0.283-0.62,0.586-0.887,0.925c-0.149,0.189-0.297,0.381-0.425,0.586c-0.107,0.167-0.178,0.353-0.255,0.534
	c-0.037,0.088-0.062,0.177-0.081,0.267c-0.315,0.092-0.621,0.208-0.918,0.348c-0.268,0.126-0.517,0.316-0.73,0.517
	c-0.266,0.253-0.41,0.607-0.54,0.944c-0.071,0.188-0.088,0.416-0.092,0.617c-0.002,0.195,0.036,0.396,0.08,0.588
	c0.088,0.383,0.339,0.731,0.603,1.013c0.124,0.132,0.287,0.237,0.433,0.347c0.174,0.128,0.393,0.22,0.594,0.295
	c0.358,0.132,0.726,0.197,1.107,0.201c0.35,0.002,0.709-0.073,1.036-0.197c0.234-0.086,0.452-0.209,0.638-0.379
	c0.136-0.126,0.245-0.272,0.356-0.421c0.18-0.233,0.274-0.534,0.368-0.812c0.088-0.252,0.121-0.519,0.151-0.785
	c0.004-0.1-0.004-0.199-0.023-0.299c-0.011-0.125-0.031-0.247-0.059-0.368c-0.038-0.188-0.134-0.372-0.216-0.54
	c-0.132-0.268-0.337-0.502-0.569-0.688c-0.145-0.114-0.283-0.213-0.448-0.294c0.051-0.083,0.106-0.162,0.164-0.241
	c0.315-0.375,0.658-0.722,1.033-1.039c0.087-0.06,0.187-0.101,0.279-0.154c0.355,0.176,0.717,0.339,1.087,0.486
	c0.427,0.17,0.871,0.285,1.323,0.372c0.452,0.088,0.902,0.176,1.356,0.26c0.919,0.17,1.865,0.256,2.801,0.22
	c0.954-0.038,1.915-0.121,2.847-0.328c0.435-0.096,0.877-0.195,1.296-0.346c0.496-0.178,0.977-0.385,1.45-0.619
	c0.18-0.089,0.351-0.201,0.528-0.299c0.067,0.114,0.152,0.216,0.273,0.283c0.047,0.022,0.093,0.049,0.137,0.078
	c0.327,0.282,0.604,0.609,0.881,0.942c0.288,0.345,0.585,0.682,0.865,1.033c0.035,0.045,0.071,0.091,0.106,0.137
	c-0.154,0.228-0.294,0.46-0.416,0.709c-0.08,0.168-0.153,0.343-0.222,0.517c-0.172,0.442-0.096,0.912,0.096,1.331
	c0.28,0.611,0.871,0.975,1.486,1.186c0.335,0.113,0.712,0.142,1.063,0.124c0.389-0.021,0.753-0.126,1.097-0.306
	c0.301-0.159,0.523-0.417,0.724-0.684c0.174-0.23,0.283-0.484,0.389-0.752C30.029,27.079,30.019,26.687,29.952,26.327z M9.04,26.712
	c-0.041,0.222-0.098,0.438-0.171,0.651c-0.036,0.071-0.076,0.14-0.119,0.207c-0.034,0.036-0.069,0.071-0.106,0.105
	c-0.015,0.008-0.03,0.017-0.045,0.025c-0.124,0.042-0.25,0.076-0.379,0.102c-0.144,0.01-0.286,0.01-0.429,0.002
	c-0.154-0.034-0.304-0.078-0.453-0.129c-0.098-0.049-0.191-0.102-0.284-0.162c-0.084-0.073-0.163-0.15-0.238-0.233
	c-0.036-0.056-0.069-0.112-0.101-0.17c-0.019-0.06-0.036-0.119-0.05-0.181c-0.004-0.073-0.004-0.145-0.001-0.219
	c0.021-0.084,0.046-0.166,0.074-0.247c0.017-0.033,0.035-0.066,0.055-0.098c0.039-0.041,0.079-0.081,0.121-0.119
	c0.12-0.079,0.242-0.151,0.371-0.216c0.332-0.126,0.672-0.223,1.019-0.3c0.14,0.065,0.272,0.138,0.399,0.223
	c0.052,0.047,0.101,0.095,0.149,0.145c0.038,0.062,0.074,0.124,0.109,0.188c0.033,0.101,0.058,0.201,0.078,0.304
	C9.042,26.632,9.041,26.672,9.04,26.712z M20.457,5.035c0.444,0.125,0.884,0.256,1.315,0.424c0.454,0.201,0.893,0.424,1.316,0.688
	c0.218,0.136,0.427,0.287,0.643,0.425c0.191,0.123,0.377,0.247,0.56,0.381c0.474,0.398,0.883,0.841,1.271,1.322
	c0.221,0.3,0.421,0.61,0.59,0.943c0.182,0.357,0.337,0.724,0.492,1.091c0.254,0.635,0.451,1.286,0.575,1.959
	c0.041,0.386,0.06,0.771,0.061,1.155c-0.128,0-0.256,0-0.385,0c-0.46-0.002-0.921-0.004-1.383-0.012
	c-0.908-0.015-1.815,0-2.723,0.012c-0.929,0.011-1.857,0.008-2.784-0.052c-0.543-0.034-1.086-0.067-1.63-0.096
	c-0.01-1.324,0.011-2.65,0.017-3.975c0.004-0.833,0.004-1.666,0.01-2.499c0.006-0.71,0.015-1.42,0.007-2.13
	c0.25,0.013,0.5,0.024,0.749,0.051C19.597,4.802,20.026,4.916,20.457,5.035z M21.455,21.95c-0.825,0.317-1.676,0.541-2.549,0.685
	c-1.151,0.139-2.31,0.149-3.461,0.02c-0.555-0.087-1.104-0.205-1.655-0.31c-0.291-0.056-0.588-0.109-0.873-0.193
	c-0.262-0.077-0.515-0.167-0.769-0.267c-0.218-0.101-0.425-0.216-0.634-0.329c-0.064-0.081-0.141-0.152-0.231-0.204
	c-0.081-0.047-0.183-0.078-0.287-0.097c-0.205-0.127-0.41-0.252-0.608-0.394c-0.376-0.314-0.713-0.654-1.022-1.035
	c-0.208-0.28-0.408-0.565-0.6-0.855c-0.203-0.309-0.352-0.656-0.502-0.992c-0.205-0.519-0.389-1.048-0.543-1.585
	c-0.14-0.486-0.234-0.978-0.321-1.474c0.785,0.044,1.569,0.072,2.357,0.072c0.929,0.002,1.859-0.021,2.79-0.035
	c1.572-0.023,3.148-0.022,4.721,0.015c0.098,0.043,0.205,0.07,0.318,0.07c0.1,0,0.198-0.023,0.289-0.06
	c0.064,0.002,0.129,0.001,0.193,0.003c0.852,0.031,1.702,0.115,2.554,0.159c0.864,0.046,1.727,0.051,2.593,0.05
	c0.848,0,1.698-0.004,2.549,0.019c0.427,0.011,0.852,0.025,1.281,0.031c0.015,0,0.03,0,0.045,0
	c-0.079,0.333-0.172,0.662-0.298,0.982c-0.232,0.525-0.475,1.042-0.76,1.54c-0.321,0.556-0.669,1.092-1.047,1.61
	c-0.204,0.257-0.411,0.512-0.649,0.741c-0.258,0.248-0.538,0.474-0.818,0.697C22.883,21.272,22.172,21.635,21.455,21.95z
	 M28.399,27.022c-0.053,0.101-0.109,0.197-0.172,0.29c-0.049,0.057-0.1,0.111-0.154,0.162c-0.038,0.024-0.077,0.047-0.116,0.068
	c-0.078,0.024-0.156,0.043-0.236,0.06c-0.146,0.009-0.291,0.008-0.437-0.002c-0.132-0.027-0.26-0.062-0.388-0.106
	c-0.084-0.042-0.165-0.088-0.245-0.139c-0.043-0.039-0.085-0.079-0.126-0.12c-0.015-0.026-0.03-0.052-0.044-0.079
	c-0.004-0.012-0.007-0.023-0.01-0.035c0.015-0.046,0.03-0.093,0.046-0.138c0.162-0.339,0.358-0.654,0.574-0.965
	c0.002-0.002,0.004-0.005,0.005-0.008c0.029-0.005,0.057-0.01,0.085-0.014c0.058-0.01,0.116-0.02,0.174-0.03
	c0.207-0.019,0.411-0.022,0.618-0.006c0.042,0.009,0.084,0.02,0.125,0.032c0.015,0.009,0.03,0.018,0.045,0.027
	c0.054,0.05,0.105,0.101,0.155,0.155c0.029,0.046,0.055,0.093,0.079,0.141c0.037,0.102,0.068,0.204,0.091,0.31
	c0.003,0.057,0.003,0.114,0.001,0.171C28.448,26.872,28.425,26.947,28.399,27.022z M23.836,18.034
	c-0.314,0.41-0.624,0.839-1.003,1.191c-0.341,0.314-0.718,0.591-1.097,0.857c-0.728,0.51-1.543,0.853-2.373,1.161
	c-0.387,0.144-0.829-0.157-0.931-0.528c-0.113-0.412,0.136-0.803,0.529-0.931c0.249-0.081,0.495-0.169,0.739-0.267
	c0.337-0.148,0.669-0.309,0.986-0.501c0.284-0.173,0.555-0.361,0.821-0.56c0.315-0.266,0.581-0.566,0.84-0.886
	c0.072-0.094,0.145-0.187,0.216-0.281c0.121-0.159,0.237-0.282,0.44-0.337c0.064-0.018,0.131-0.027,0.197-0.027
	c0.13,0,0.259,0.034,0.372,0.1c0.165,0.098,0.287,0.257,0.337,0.44C23.957,17.638,23.949,17.887,23.836,18.034z"/>
</svg>