<?xml version="1.0" encoding="utf-8"?>
<!-- Generator: Adobe Illustrator 21.1.0, SVG Export Plug-In . SVG Version: 6.00 Build 0)  -->
<svg version="1.1" id="designs" xmlns="http://www.w3.org/2000/svg" xmlns:xlink="http://www.w3.org/1999/xlink" x="0px" y="0px"
	 width="32px" height="32px" viewBox="0 0 32 32" style="enable-background:new 0 0 32 32;" xml:space="preserve">
<style type="text/css">
	.sketchy_een{fill:#111918;}
</style>
<path class="sketchy_een" d="M30.943,17.124c-0.078-0.497-0.276-0.964-0.48-1.42c-0.352-0.787-0.905-1.488-1.504-2.102
	c-0.338-0.346-0.694-0.672-1.102-0.94c-0.237-0.155-0.509-0.255-0.771-0.356c-0.087-0.033-0.179-0.062-0.268-0.089
	c-0.206-0.06-0.412-0.105-0.624-0.142c-0.251-0.043-0.503-0.072-0.756-0.095c-0.057-0.005-0.115-0.007-0.172-0.007
	c-0.141,0-0.282,0.013-0.422,0.027c-0.439,0.043-0.886,0.127-1.302,0.277c0.069-0.125,0.118-0.26,0.116-0.411
	c-0.01-0.453-0.014-0.904-0.039-1.354c-0.019-0.383-0.066-0.764-0.103-1.144c-0.047-0.464-0.109-0.931-0.194-1.389
	c-0.074-0.394-0.187-0.779-0.309-1.16c-0.276-0.859-0.577-1.751-1.123-2.481c-0.2-0.266-0.402-0.511-0.659-0.727
	c-0.198-0.165-0.406-0.326-0.626-0.466c-0.361-0.225-0.725-0.476-1.109-0.663c-0.842-0.411-1.762-0.495-2.679-0.603
	c-0.407-0.057-0.813-0.12-1.226-0.121c-0.005,0-0.009,0-0.014,0c-0.258,0-0.517,0.051-0.771,0.097
	c-0.208,0.039-0.414,0.082-0.618,0.134c-0.241,0.062-0.476,0.152-0.696,0.268c-0.173,0.093-0.332,0.216-0.488,0.334
	c-0.358,0.272-0.703,0.563-1.028,0.876c-0.657,0.633-1.193,1.36-1.685,2.126c-0.48,0.748-0.715,1.657-0.843,2.528
	C9.394,8.493,9.341,8.872,9.308,9.25C9.281,9.234,9.258,9.213,9.23,9.198C8.843,8.984,8.454,8.774,8.015,8.692
	C7.756,8.645,7.493,8.614,7.229,8.614c-0.029,0-0.057,0-0.086,0.001C6.892,8.622,6.624,8.69,6.383,8.766
	C6.07,8.865,5.758,8.978,5.47,9.139C5.105,9.345,4.8,9.621,4.563,9.969c-0.529,0.777-0.818,1.727-0.87,2.662
	c-0.029,0.503,0.031,1.008,0.099,1.506c0.045,0.34,0.181,0.655,0.323,0.964c0.021,0.045,0.045,0.088,0.067,0.133
	c-0.156,0.027-0.312,0.05-0.462,0.097c-0.218,0.066-0.429,0.167-0.631,0.268c-0.185,0.093-0.369,0.188-0.538,0.305
	c-0.194,0.134-0.377,0.282-0.558,0.433c-0.144,0.12-0.262,0.293-0.371,0.443c-0.068,0.091-0.128,0.188-0.187,0.288
	c-0.113,0.194-0.208,0.398-0.286,0.608c-0.101,0.268-0.13,0.56-0.146,0.845c-0.01,0.187,0.01,0.375,0.029,0.561
	c0.025,0.251,0.056,0.509,0.122,0.756c0.049,0.179,0.124,0.357,0.216,0.519c0.144,0.251,0.338,0.426,0.571,0.591
	c0.291,0.204,0.647,0.338,0.989,0.431c0.42,0.117,0.865,0.167,1.3,0.179c0.245,0.006,0.49-0.008,0.734-0.014
	c0.274-0.008,0.55-0.008,0.824-0.01c0.563-0.006,1.123-0.037,1.685-0.058c1.01-0.036,2.02-0.044,3.029-0.118
	c0.062,0.016,0.121,0.039,0.187,0.041c0.562,0.013,1.124,0.017,1.686,0.026c-0.008,0.556-0.017,1.111-0.003,1.668
	c0.016,0.674,0.068,1.346,0.101,2.021c0.031,0.614,0.068,1.228,0.078,1.844c0.008,0.63,0.018,1.261,0.006,1.892
	c-0.004,0.2,0.081,0.382,0.213,0.518c-0.005,0.036-0.022,0.068-0.022,0.106c0,0.412,0.352,0.781,0.771,0.771
	c0.952-0.025,1.904-0.076,2.854-0.13c0.841-0.047,1.685-0.045,2.526-0.054c0.406-0.006,0.746-0.336,0.746-0.746
	c0-0.024-0.012-0.046-0.014-0.071c0.072-0.115,0.124-0.243,0.123-0.386c-0.002-1.294-0.06-2.586-0.064-3.878
	c-0.003-1.221,0.032-2.439,0.077-3.658c0.516,0.013,1.033,0.013,1.55-0.013c0.093,0.041,0.194,0.063,0.3,0.059
	c0.816-0.027,1.626-0.124,2.44-0.144c0.383-0.01,0.766-0.012,1.146-0.025c0.383-0.014,0.764-0.043,1.144-0.06
	c0.431-0.019,0.863-0.05,1.29-0.115c0.377-0.058,0.734-0.173,1.088-0.313c0.216-0.086,0.427-0.175,0.635-0.276
	c0.21-0.105,0.396-0.245,0.577-0.394c0.317-0.262,0.532-0.653,0.713-1.016c0.101-0.198,0.2-0.408,0.255-0.622
	c0.039-0.152,0.06-0.303,0.08-0.459C31.02,17.662,30.987,17.404,30.943,17.124z M19.468,19.75c-0.009,0-0.019-0.001-0.028-0.001
	c-0.147,0-0.276,0.059-0.392,0.138c-0.013-0.001-0.025-0.008-0.038-0.008c-0.429,0-0.758,0.352-0.771,0.771
	c-0.041,1.442-0.006,2.885-0.008,4.329c-0.002,0.655,0.004,1.31,0.004,1.964c0,0.34,0.006,0.678,0.008,1.018
	c0.003,0.203,0.001,0.408,0,0.613c-0.187,0-0.373,0.002-0.559,0.004c-0.429,0.006-0.859,0.033-1.288,0.054
	c-0.774,0.036-1.548,0.043-2.323,0.055c-0.008-0.567,0.002-1.135-0.002-1.701c-0.002-0.626-0.037-1.251-0.07-1.875
	c-0.033-0.666-0.074-1.333-0.082-1.999c-0.01-0.766,0.033-1.533,0.058-2.297c0.014-0.437-0.375-0.8-0.8-0.8
	c-0.057,0-0.105,0.021-0.158,0.032c-0.144-0.129-0.333-0.212-0.54-0.224c-0.206-0.011-0.413-0.017-0.619-0.026
	c0.143-0.152,0.286-0.304,0.429-0.454c0.478-0.505,0.97-0.997,1.455-1.496c0.233-0.239,0.457-0.486,0.694-0.721
	c0.249-0.251,0.507-0.49,0.75-0.742c0.332-0.342,0.66-0.688,0.988-1.033c0.896,0.871,1.819,1.714,2.715,2.585
	c0.603,0.587,1.165,1.22,1.715,1.861C20.226,19.788,19.846,19.766,19.468,19.75z M29.214,18.267
	c-0.086,0.193-0.178,0.381-0.298,0.555c-0.05,0.059-0.103,0.115-0.158,0.168c-0.093,0.062-0.191,0.115-0.292,0.163
	c-0.337,0.13-0.676,0.247-1.031,0.309c-0.934,0.11-1.874,0.191-2.813,0.219c-0.707,0.021-1.41,0.07-2.114,0.109
	c-0.035-0.065-0.072-0.129-0.123-0.188c-0.8-0.919-1.556-1.877-2.427-2.734c-0.472-0.462-0.956-0.913-1.426-1.376
	c-0.511-0.503-1.01-1.016-1.514-1.523c-0.103-0.104-0.232-0.159-0.366-0.192c-0.003-0.003-0.004-0.008-0.008-0.011
	c-0.147-0.147-0.353-0.224-0.558-0.224c-0.198,0-0.395,0.072-0.536,0.224c-0.472,0.511-0.929,1.032-1.405,1.537
	c-0.233,0.249-0.48,0.484-0.723,0.725c-0.243,0.243-0.472,0.499-0.711,0.746c-0.484,0.497-0.981,0.981-1.459,1.486
	c-0.21,0.221-0.426,0.439-0.631,0.664c-0.221,0.243-0.437,0.486-0.666,0.719c-0.064,0.065-0.108,0.142-0.144,0.221
	c-0.272,0.019-0.544,0.05-0.817,0.057c-0.6,0.016-1.201,0.004-1.801,0.014c-0.408,0.008-0.816,0.006-1.222,0.006
	c-0.204,0-0.41,0-0.612,0c-0.528,0.002-1.061,0.031-1.588-0.021c-0.213-0.039-0.426-0.09-0.63-0.162
	c-0.113-0.053-0.223-0.111-0.327-0.18c-0.004-0.004-0.009-0.008-0.013-0.013c-0.007-0.012-0.013-0.024-0.02-0.036
	c-0.029-0.089-0.052-0.178-0.07-0.27c-0.026-0.286-0.032-0.573-0.008-0.858c0.015-0.073,0.033-0.145,0.056-0.217
	c0.081-0.164,0.174-0.319,0.279-0.468c0.105-0.117,0.221-0.219,0.342-0.318c0.208-0.143,0.426-0.268,0.654-0.374
	c0.162-0.06,0.33-0.097,0.5-0.126c0.168-0.018,0.336-0.032,0.507-0.04c0.285-0.014,0.529-0.159,0.688-0.371
	c0.149-0.038,0.292-0.099,0.401-0.208c0.34-0.342,0.321-0.876,0-1.22C6.054,14.98,5.98,14.901,5.908,14.82
	c-0.159-0.229-0.289-0.475-0.409-0.727c-0.049-0.139-0.082-0.278-0.107-0.422c-0.038-0.416-0.048-0.826-0.011-1.24
	c0.063-0.352,0.159-0.689,0.281-1.026c0.091-0.192,0.195-0.376,0.314-0.554c0.046-0.052,0.094-0.101,0.145-0.147
	c0.122-0.084,0.248-0.161,0.382-0.227c0.225-0.088,0.457-0.163,0.693-0.21c0.099-0.001,0.196,0.002,0.294,0.009
	c0.144,0.028,0.283,0.061,0.421,0.108c0.234,0.115,0.467,0.236,0.686,0.379c0.113,0.108,0.206,0.231,0.319,0.344
	c0.289,0.286,0.738,0.306,1.067,0.087c0.049,0.009,0.093,0.03,0.145,0.03c0.431,0,0.855-0.377,0.83-0.83
	c-0.016-0.241-0.033-0.484-0.047-0.727C10.9,9.45,10.916,9.229,10.939,9.012c0.097-0.669,0.24-1.322,0.483-1.955
	C11.68,6.5,12.026,6,12.392,5.507c0.217-0.266,0.447-0.515,0.69-0.759c0.25-0.25,0.529-0.47,0.808-0.69
	c0.159-0.118,0.32-0.228,0.496-0.318c0.3-0.103,0.615-0.166,0.929-0.215c0.249-0.023,0.497-0.014,0.746,0.009
	c0.446,0.067,0.89,0.126,1.337,0.186c-0.078-0.01-0.157-0.021-0.237-0.031c0.457,0.066,0.914,0.149,1.348,0.309
	c0.211,0.104,0.409,0.235,0.609,0.355c0.232,0.14,0.462,0.281,0.686,0.433c0.2,0.165,0.386,0.338,0.555,0.535
	c0.232,0.326,0.409,0.681,0.573,1.046c0.362,0.891,0.621,1.819,0.765,2.768c0.108,0.908,0.194,1.815,0.195,2.729
	c0,0.133,0.036,0.257,0.09,0.371c-0.007,0.116-0.008,0.232-0.02,0.349c-0.023,0.235-0.041,0.469-0.06,0.703
	c-0.032,0.062-0.061,0.126-0.093,0.203c-0.049,0.12-0.033,0.346,0,0.464c0.045,0.165,0.111,0.256,0.223,0.383
	c0.198,0.223,0.552,0.297,0.832,0.22c0.146-0.041,0.272-0.115,0.379-0.22c0.023-0.019,0.043-0.042,0.061-0.066
	c0.142-0.093,0.292-0.17,0.448-0.24c0.332-0.131,0.665-0.225,1.015-0.283c0.182-0.018,0.366-0.036,0.549-0.032
	c0.154,0.004,0.305,0.02,0.457,0.038c0.338,0.058,0.66,0.144,0.979,0.263c0.17,0.082,0.328,0.18,0.486,0.284
	c0.394,0.325,0.75,0.687,1.083,1.077c0.29,0.395,0.536,0.809,0.741,1.255c0.114,0.309,0.207,0.619,0.267,0.942
	c0.006,0.094,0.006,0.186,0,0.281C29.302,17.997,29.265,18.132,29.214,18.267z"/>
</svg>