<?xml version="1.0" encoding="utf-8"?>
<!-- Generator: Adobe Illustrator 21.1.0, SVG Export Plug-In . SVG Version: 6.00 Build 0)  -->
<svg version="1.1" id="designs" xmlns="http://www.w3.org/2000/svg" xmlns:xlink="http://www.w3.org/1999/xlink" x="0px" y="0px"
	 width="32px" height="32px" viewBox="0 0 32 32" style="enable-background:new 0 0 32 32;" xml:space="preserve">
<style type="text/css">
	.sketchy_een{fill:#111918;}
</style>
<path class="sketchy_een" d="M29.467,23.592c-0.058-0.109-0.161-0.227-0.259-0.305c-0.317-0.257-0.651-0.448-1.046-0.558
	c-0.26-0.074-0.527-0.101-0.794-0.123c-0.245-0.383-0.462-0.791-0.651-1.204c-0.018-0.049-0.034-0.099-0.047-0.151
	c-0.021-0.086-0.06-0.164-0.111-0.232c-0.013-0.483-0.017-0.966-0.014-1.449c0.002-0.348-0.01-0.693-0.018-1.038
	c-0.008-0.37-0.004-0.739-0.014-1.109c-0.022-0.703-0.042-1.406-0.038-2.109c0.002-0.62,0.033-1.236,0.066-1.854
	c0.194-0.01,0.386-0.04,0.578-0.064c0.109,0.055,0.226,0.092,0.352,0.092c0.215,0,0.422-0.086,0.572-0.237
	c0.165-0.165,0.215-0.349,0.239-0.574c0.014-0.143,0.032-0.285,0.028-0.43c-0.007-0.215-0.045-0.429-0.08-0.642
	c-0.029-0.278-0.033-0.558-0.039-0.838c-0.006-0.365-0.006-0.731,0.016-1.094c0.024-0.381-0.283-0.695-0.637-0.785
	c-0.16-0.128-0.35-0.219-0.565-0.219c-0.006,0-0.011,0-0.017,0c-0.733,0.016-1.47,0.064-2.195,0.163
	c0.08-0.012,0.161-0.022,0.241-0.032c-0.319,0.036-0.647,0.044-0.968,0.054c-0.382,0.012-0.761,0.024-1.143,0.036
	c-0.38,0.012-0.759-0.008-1.137-0.016c-0.43-0.012-0.858-0.01-1.285,0.004c-0.89,0.03-1.776,0.034-2.665,0.03
	c-0.287-0.003-0.574,0-0.86,0.001c-0.003-0.019,0.004-0.036-0.001-0.055c0-0.001-0.001-0.003-0.001-0.004
	c-0.026-0.33,0.006-0.672,0.011-1c0.009-0.409,0.025-0.818,0.03-1.227c0.168-0.048,0.332-0.109,0.482-0.203
	c0.552-0.345,0.99-0.872,1.127-1.516c0.094-0.444,0.137-0.94-0.028-1.372c-0.092-0.243-0.199-0.478-0.335-0.701
	c-0.076-0.127-0.171-0.241-0.261-0.36c-0.187-0.241-0.498-0.349-0.783-0.4c-0.179-0.031-0.345-0.037-0.508,0.019
	C16.596,2.035,16.474,2,16.357,2c-0.017,0-0.035,0.001-0.052,0.002c-0.235,0.022-0.468,0.05-0.701,0.082
	c-0.42,0.06-0.795,0.271-1.109,0.548c-0.229,0.201-0.398,0.462-0.524,0.737c-0.088,0.197-0.159,0.384-0.199,0.593
	c-0.03,0.163-0.048,0.329-0.062,0.494c-0.01,0.116-0.012,0.235-0.006,0.353c0.014,0.271,0.066,0.456,0.183,0.699
	c0.07,0.147,0.189,0.269,0.291,0.398c0.122,0.153,0.277,0.267,0.438,0.38c0.199,0.139,0.432,0.243,0.666,0.318
	c0.005,0.389,0.021,0.776,0.029,1.164c0.007,0.356,0.041,0.729,0.014,1.087c-0.002,0.01,0,0.019-0.002,0.03
	c-0.02,0-0.039-0.001-0.059-0.001c-0.53-0.004-1.062-0.008-1.593-0.012c-0.384-0.004-0.767-0.026-1.151-0.02
	c-0.422,0.004-0.844,0-1.265,0c-0.721,0-1.436,0.006-2.155,0.05C8.237,8.957,7.371,9.017,6.505,9.021
	c-0.693,0.002-1.388-0.03-2.083-0.034c-0.44-0.004-0.805,0.37-0.805,0.805c0,0.01,0.005,0.018,0.006,0.028
	c-0.022,0.075-0.048,0.149-0.05,0.231c-0.012,0.58-0.054,1.165-0.03,1.745c0.01,0.217,0.026,0.434,0.028,0.651
	c0,0.181-0.01,0.36,0.006,0.54c0.022,0.231,0.078,0.426,0.247,0.594c0.157,0.159,0.374,0.247,0.596,0.247
	c0.207,0,0.416-0.092,0.576-0.235c0.001,0.743,0.012,1.487,0.038,2.229c0.014,0.368,0.026,0.735,0.036,1.103
	c0.01,0.372-0.002,0.743-0.004,1.115c0,0.179-0.002,0.357-0.008,0.536c-0.006,0.171-0.032,0.34-0.04,0.508
	c-0.018,0.367-0.022,0.737-0.022,1.105c0.002,0.574,0.028,1.148,0.077,1.72c-0.293,0.094-0.579,0.216-0.847,0.365
	c-0.147,0.082-0.281,0.201-0.41,0.311c-0.076,0.064-0.149,0.131-0.217,0.203c-0.177,0.183-0.341,0.378-0.492,0.583
	c-0.408,0.558-0.548,1.255-0.643,1.924c-0.034,0.251-0.054,0.496-0.062,0.749c-0.008,0.189-0.018,0.382,0.004,0.57
	c0.024,0.217,0.05,0.434,0.102,0.647c0.052,0.221,0.157,0.442,0.273,0.635c0.056,0.094,0.112,0.189,0.179,0.277
	c0.133,0.185,0.277,0.358,0.426,0.528c0.155,0.177,0.337,0.315,0.524,0.458c0.291,0.221,0.637,0.351,0.974,0.488
	c0.315,0.127,0.629,0.225,0.962,0.293c0.231,0.046,0.464,0.076,0.701,0.05c0.339-0.04,0.611-0.138,0.922-0.281
	c0.301-0.137,0.584-0.315,0.876-0.474c0.283-0.153,0.546-0.362,0.785-0.574c0.125-0.112,0.225-0.245,0.327-0.375
	c0.115-0.147,0.233-0.289,0.345-0.438c0.092-0.125,0.153-0.269,0.213-0.41c0.143-0.329,0.273-0.667,0.07-1.014
	c-0.102-0.175-0.279-0.307-0.474-0.361c-0.245-0.068-0.45,0.002-0.667,0.1c-0.027,0.012-0.054,0.024-0.081,0.036
	c-0.02,0.006-0.041,0.011-0.062,0.016c-0.259,0.021-0.515,0.026-0.775-0.002c-0.149-0.021-0.298-0.046-0.442-0.091
	c-0.031-0.016-0.062-0.033-0.092-0.052c-0.059-0.055-0.115-0.112-0.168-0.172c-0.011-0.018-0.023-0.036-0.033-0.055
	c-0.025-0.09-0.045-0.181-0.062-0.273c-0.006-0.061-0.009-0.122-0.008-0.186c0.029-0.151,0.069-0.298,0.122-0.443
	c0.138-0.275,0.296-0.528,0.477-0.774c0.042-0.049,0.084-0.096,0.131-0.14c0.085-0.058,0.172-0.114,0.258-0.17
	c0.359-0.233,0.508-0.693,0.283-1.077c-0.08-0.137-0.2-0.242-0.337-0.308c-0.116-0.194-0.304-0.345-0.535-0.417
	c-0.161-0.05-0.323-0.1-0.486-0.147c-0.14-0.04-0.275-0.064-0.415-0.085c0-0.001,0-0.002,0-0.003
	c0.027,0.003,0.053,0.006,0.08,0.009c-0.027-0.003-0.053-0.007-0.08-0.01c-0.027-0.21-0.053-0.42-0.066-0.63
	c-0.02-0.351-0.008-0.705-0.002-1.057c0.004-0.359,0.014-0.719,0.03-1.079c0.018-0.364,0.002-0.725,0.002-1.089
	c0-0.713-0.016-1.428-0.018-2.143c0-0.75,0.01-1.501,0.019-2.251c0.283-0.003,0.566-0.008,0.849-0.007
	c0.295,0,0.591-0.004,0.886-0.006c0.384-0.002,0.769-0.046,1.155-0.066c0.761-0.042,1.526-0.046,2.292-0.044
	c0.807,0.002,1.615-0.002,2.422-0.002c0.328,0,0.654,0.015,0.982,0.021c0.028,0.873,0.095,1.744,0.097,2.618
	c0.002,0.499,0.035,0.996,0.036,1.494c-0.097,0.015-0.194,0.036-0.288,0.073c-0.311,0.121-0.594,0.275-0.819,0.528
	c-0.265,0.299-0.502,0.629-0.649,1c-0.12,0.305-0.171,0.619-0.205,0.944c-0.074,0.673-0.03,1.362,0.141,2.016
	c0.1,0.39,0.209,0.773,0.394,1.133c0.058,0.116,0.122,0.231,0.189,0.344c0.024,0.038,0.048,0.078,0.074,0.115
	c0.145,0.203,0.253,0.303,0.454,0.452c0.331,0.241,0.723,0.38,1.115,0.484c0.197,0.05,0.404,0.08,0.605,0.094
	c0.187,0.012,0.372-0.02,0.554-0.048c0.167-0.024,0.331-0.064,0.49-0.119c0.143-0.048,0.279-0.104,0.412-0.173
	c0.169-0.088,0.319-0.225,0.462-0.354c0.265-0.239,0.494-0.52,0.701-0.812c0.197-0.277,0.329-0.616,0.414-0.946
	c0.096-0.38,0.096-0.791,0.062-1.179c-0.036-0.418-0.084-0.837-0.189-1.243c-0.135-0.528-0.448-0.982-0.805-1.386
	c-0.135-0.151-0.277-0.297-0.438-0.422c-0.074-0.058-0.149-0.121-0.229-0.171c-0.102-0.062-0.215-0.1-0.325-0.147
	c-0.062-0.025-0.126-0.047-0.189-0.07c-0.081-0.04-0.159-0.084-0.238-0.129c-0.006-0.159-0.016-0.318-0.02-0.479
	c-0.006-0.335-0.064-0.667-0.07-1.002c-0.017-0.876-0.02-1.753-0.028-2.63c0.668-0.019,1.337-0.039,2.005-0.032
	c0.721,0.008,1.442,0.004,2.163,0.006c0.388,0.002,0.777-0.008,1.165-0.008c0.39,0.002,0.783-0.008,1.169,0.042
	c0.175,0.022,0.344,0.02,0.52,0.012c0.163-0.006,0.319,0.004,0.482,0.008c0.144,0.005,0.289,0,0.433,0
	c-0.012,0.587-0.011,1.175-0.022,1.764c-0.012,0.715-0.036,1.43-0.04,2.145c-0.004,1.167,0.027,2.334,0.041,3.502
	c-0.05,0.051-0.103,0.1-0.145,0.162c-0.269,0.394-0.496,0.801-0.699,1.233c-0.08,0.172-0.15,0.356-0.237,0.529
	c-0.187,0.032-0.372,0.069-0.56,0.106c-0.106,0.02-0.215,0.036-0.321,0.066c-0.119,0.032-0.231,0.08-0.347,0.115
	c-0.181,0.056-0.364,0.092-0.542,0.149c-0.197,0.06-0.366,0.147-0.522,0.279c-0.201,0.173-0.325,0.466-0.311,0.727
	c0.02,0.357,0.193,0.613,0.41,0.878c0.13,0.159,0.299,0.277,0.458,0.406c0.175,0.139,0.333,0.295,0.506,0.434
	c0.02,0.016,0.04,0.032,0.061,0.049c-0.023,0.165-0.044,0.33-0.055,0.495c-0.016,0.279-0.026,0.558-0.032,0.838
	c-0.01,0.462-0.076,1.004,0.135,1.432c0.102,0.207,0.323,0.388,0.55,0.444c0.293,0.072,0.562,0,0.813-0.157
	c0.303-0.191,0.568-0.428,0.807-0.691c0.235-0.256,0.453-0.541,0.706-0.783c0.082,0.059,0.166,0.116,0.248,0.176
	c0.132,0.107,0.264,0.214,0.406,0.31c0.092,0.062,0.191,0.116,0.283,0.183c0.186,0.137,0.405,0.202,0.618,0.281
	c0.151,0.07,0.302,0.143,0.475,0.139c0.446-0.01,0.767-0.321,0.882-0.737c0.05-0.179,0.062-0.367,0.08-0.55
	c0.016-0.155,0.036-0.311,0.036-0.464c0.002-0.183-0.034-0.362-0.074-0.538c-0.044-0.183-0.074-0.368-0.108-0.554
	c-0.018-0.091-0.036-0.183-0.061-0.272c0.054-0.047,0.108-0.092,0.163-0.136c0.13-0.095,0.263-0.185,0.388-0.287
	c0.104-0.08,0.191-0.181,0.283-0.273c0.11-0.115,0.253-0.255,0.315-0.396c0.066-0.151,0.112-0.255,0.106-0.426
	C29.599,23.882,29.549,23.745,29.467,23.592z M15.549,4.545c0.02-0.11,0.044-0.22,0.078-0.327c0.03-0.062,0.062-0.123,0.097-0.182
	c0.012-0.013,0.025-0.025,0.037-0.037c0.025-0.015,0.05-0.03,0.076-0.043c0.017-0.005,0.034-0.009,0.051-0.013
	c0.139-0.008,0.279-0.013,0.417-0.026c0.181-0.015,0.345-0.052,0.492-0.137c0.043,0.082,0.082,0.166,0.119,0.25
	c0.019,0.052,0.035,0.105,0.048,0.16c0.007,0.132,0.007,0.266-0.002,0.4c-0.008,0.035-0.017,0.07-0.028,0.104
	c-0.016,0.028-0.032,0.055-0.05,0.081c-0.061,0.069-0.125,0.136-0.193,0.198c-0.027,0.017-0.054,0.033-0.081,0.049
	c-0.037,0.01-0.073,0.018-0.111,0.025c-0.108,0.01-0.216,0.014-0.324,0.008c-0.112-0.022-0.223-0.053-0.332-0.088
	c-0.086-0.049-0.169-0.103-0.251-0.157c-0.018-0.026-0.036-0.053-0.053-0.081C15.541,4.667,15.544,4.606,15.549,4.545z M7.204,27.65
	c0.162,0.047,0.349,0.057,0.527,0.072c-0.085,0.049-0.171,0.095-0.258,0.139c-0.232,0.118-0.468,0.235-0.707,0.342
	c-0.09,0.032-0.179,0.057-0.272,0.078c-0.074,0.004-0.148,0.004-0.222,0c-0.168-0.035-0.333-0.087-0.494-0.148
	c-0.288-0.128-0.573-0.257-0.835-0.432c-0.183-0.156-0.345-0.326-0.501-0.511c-0.083-0.119-0.159-0.241-0.225-0.37
	c-0.033-0.107-0.056-0.214-0.075-0.323c-0.021-0.288-0.006-0.58,0.022-0.869c0.055-0.337,0.139-0.677,0.256-0.998
	c0.049-0.094,0.104-0.184,0.164-0.271c0.165-0.184,0.333-0.358,0.519-0.517c0.112-0.071,0.229-0.134,0.349-0.191
	c0.111-0.042,0.225-0.081,0.34-0.108c0.102-0.004,0.205-0.001,0.306-0.001c0.07,0,0.141,0.001,0.211,0.004
	c-0.038,0.054-0.076,0.109-0.113,0.163c-0.199,0.287-0.339,0.629-0.46,0.954c-0.078,0.207-0.137,0.46-0.145,0.679
	c-0.008,0.197,0.028,0.394,0.064,0.589c0.038,0.215,0.094,0.422,0.185,0.621c0.08,0.173,0.201,0.317,0.323,0.46
	C6.438,27.329,6.806,27.534,7.204,27.65z M17.034,19.303c0.027,0.015,0.054,0.03,0.08,0.047c0.188,0.164,0.357,0.343,0.514,0.536
	c0.052,0.077,0.097,0.156,0.138,0.239c0.085,0.245,0.146,0.5,0.19,0.757c0.033,0.317,0.051,0.636,0.031,0.953
	c-0.02,0.094-0.049,0.183-0.083,0.273c-0.06,0.128-0.129,0.248-0.208,0.362c-0.137,0.165-0.287,0.316-0.45,0.454
	c-0.049,0.034-0.099,0.065-0.151,0.094c-0.105,0.03-0.212,0.053-0.321,0.073c-0.092,0.007-0.183,0.008-0.274,0.003
	c-0.192-0.039-0.373-0.096-0.558-0.163c-0.095-0.048-0.185-0.103-0.272-0.164c-0.007-0.007-0.014-0.013-0.021-0.02
	c-0.097-0.151-0.183-0.312-0.264-0.472c-0.051-0.156-0.084-0.318-0.123-0.475c-0.043-0.174-0.082-0.348-0.113-0.525
	c-0.033-0.359-0.019-0.723,0.022-1.083c0.022-0.121,0.052-0.238,0.093-0.354c0.064-0.123,0.142-0.235,0.223-0.346
	c0.048-0.057,0.099-0.11,0.153-0.161c0.016-0.01,0.032-0.019,0.049-0.027c0.004-0.001,0.008-0.003,0.012-0.004
	c0.057-0.003,0.113-0.005,0.169-0.009c0.277-0.018,0.554-0.066,0.829-0.11c0.002,0,0.003-0.001,0.005-0.001
	C16.814,19.222,16.924,19.262,17.034,19.303z M23.44,11.916c-0.229,0.012-0.458,0.004-0.689-0.004
	C22.59,11.906,22.43,11.9,22.269,11.9c-0.386,0-0.771-0.01-1.157-0.008c-0.731,0.002-1.46-0.002-2.189-0.006
	c-0.777-0.004-1.553-0.016-2.328-0.012c-0.777,0.004-1.555,0.014-2.332,0.014c-0.813,0-1.625,0.014-2.436,0.036
	c-0.773,0.02-1.545,0.008-2.316,0.036c-0.364,0.012-0.727,0.032-1.091,0.04c-0.295,0.006-0.591,0.032-0.886,0.028
	c-0.394-0.006-0.787-0.038-1.181-0.05c-0.379-0.013-0.759-0.016-1.14-0.019c0-0.044,0-0.087-0.002-0.131
	c-0.01-0.417,0.021-0.831,0.051-1.245c0.64-0.009,1.281-0.015,1.919-0.038c0.846-0.028,1.689-0.076,2.535-0.054
	c0.663,0.018,1.328,0.018,1.992,0.016c0.771,0,1.545,0,2.318,0.026c0.639,0.022,1.281,0.002,1.92-0.014
	c0.858-0.022,1.715,0.004,2.575,0.008c0.882,0.006,1.766,0.006,2.647,0.03c0.41,0.012,0.817,0.05,1.227,0.056
	c0.175,0.004,0.349,0.012,0.526,0.018c0.201,0.006,0.402-0.01,0.603-0.012c0.362-0.008,0.721-0.018,1.083-0.018
	c0.307,0,0.613,0.006,0.918,0.006c0.213,0,0.428-0.002,0.641-0.004c0.138,0,0.276-0.016,0.413-0.017
	c0.017,0.278,0.038,0.556,0.048,0.833c0.006,0.135,0.015,0.27,0.026,0.405c-0.442,0.034-0.889,0.042-1.33,0.039
	C24.695,11.862,24.069,11.888,23.44,11.916z M27.073,24.695c-0.074,0.06-0.151,0.119-0.223,0.183
	c-0.221,0.205-0.265,0.502-0.211,0.781c0.027,0.137,0.106,0.238,0.191,0.335c0.007,0.012,0.013,0.023,0.02,0.035
	c0.047,0.136,0.081,0.275,0.109,0.415c0.019,0.094,0.041,0.188,0.062,0.282c-0.173-0.115-0.341-0.237-0.508-0.362
	c-0.274-0.23-0.555-0.5-0.942-0.49c-0.295,0.008-0.508,0.131-0.727,0.311c-0.056,0.048-0.112,0.096-0.167,0.145
	c-0.183,0.163-0.333,0.361-0.494,0.544c-0.044,0.05-0.089,0.1-0.133,0.15c0.009-0.193,0.024-0.386,0.045-0.575
	c0.021-0.118,0.046-0.234,0.074-0.35c0.066-0.275,0.064-0.514-0.058-0.775c-0.109-0.229-0.38-0.414-0.593-0.567
	c-0.084-0.07-0.164-0.145-0.244-0.22c0.232-0.069,0.477-0.11,0.716-0.148c0.173-0.012,0.338-0.01,0.514-0.044
	c0.235-0.046,0.476-0.247,0.582-0.456c0.043-0.084,0.076-0.171,0.111-0.258c0.109-0.241,0.238-0.474,0.367-0.706
	c0.044-0.081,0.09-0.16,0.136-0.239c0.077,0.175,0.156,0.349,0.239,0.52c0.187,0.38,0.372,0.819,0.828,0.928
	c0.157,0.038,0.277,0.028,0.428,0.014c0.084-0.008,0.169-0.005,0.254,0.002c0.081,0.014,0.162,0.03,0.242,0.05
	C27.484,24.363,27.278,24.528,27.073,24.695z"/>
</svg>