<?xml version="1.0" encoding="utf-8"?>
<!-- Generator: Adobe Illustrator 21.1.0, SVG Export Plug-In . SVG Version: 6.00 Build 0)  -->
<svg version="1.1" id="designs" xmlns="http://www.w3.org/2000/svg" xmlns:xlink="http://www.w3.org/1999/xlink" x="0px" y="0px"
	 width="32px" height="32px" viewBox="0 0 32 32" style="enable-background:new 0 0 32 32;" xml:space="preserve">
<style type="text/css">
	.sketchy_een{fill:#111918;}
</style>
<path class="sketchy_een" d="M24.876,17.457c-0.036-1.713-0.101-3.426-0.128-5.141c-0.027-1.726-0.107-3.449-0.138-5.173
	c-0.017-0.99-0.01-1.979-0.004-2.969c0.001-0.273-0.145-0.506-0.353-0.659c-0.019-0.088-0.037-0.178-0.087-0.246
	c-0.138-0.189-0.272-0.379-0.433-0.547c-0.22-0.232-0.517-0.383-0.815-0.48c-0.235-0.077-0.496-0.096-0.743-0.113
	c-0.174-0.013-0.35-0.021-0.526-0.029c-0.821-0.038-1.644-0.059-2.465-0.069c-0.827-0.008-1.652,0-2.477-0.015
	C16.179,2.005,15.649,2,15.121,2c-0.33,0-0.66,0.002-0.989,0.007c-1.125,0.013-2.245,0.065-3.365,0.153
	C10.244,2.2,9.695,2.223,9.193,2.384C8.77,2.52,8.38,2.763,8.097,3.105C7.894,3.35,7.729,3.612,7.57,3.89
	C7.555,3.918,7.553,3.949,7.541,3.978C7.305,4.127,7.136,4.377,7.139,4.671c0.008,1.788-0.036,3.575-0.05,5.365
	c-0.013,1.776-0.011,3.556,0.015,5.334c0.025,1.702-0.023,3.405,0.021,5.107c0.044,1.719,0.065,3.438,0.061,5.156
	c-0.001,0.439-0.001,0.882-0.013,1.323c-0.062,0.119-0.101,0.247-0.09,0.386c0.012,0.135,0.031,0.268,0.045,0.402
	c-0.001,0.01,0,0.02-0.002,0.03c-0.01,0.078,0.007,0.16,0.032,0.241c0.008,0.06,0.011,0.12,0.02,0.18
	c0.057,0.411,0.26,0.771,0.536,1.074c0.389,0.427,0.967,0.515,1.502,0.599c0.915,0.144,1.843,0.144,2.768,0.119
	c0.856-0.021,1.711-0.017,2.565-0.042c0.873-0.025,1.744-0.042,2.616-0.044c0.681-0.004,1.361-0.046,2.04-0.084
	c0.658-0.036,1.317-0.063,1.973-0.107c0.637-0.042,1.284-0.029,1.918-0.122c0.297-0.046,0.578-0.134,0.846-0.276
	c0.138-0.071,0.26-0.174,0.377-0.272c0.216-0.184,0.327-0.444,0.433-0.697c0.04-0.149,0.04-0.299,0-0.448
	c-0.029-0.107-0.081-0.206-0.148-0.293c0.063-0.118,0.109-0.246,0.112-0.388c0.017-0.787,0.057-1.573,0.105-2.358
	c0.025-0.394,0.038-0.79,0.056-1.185c0.017-0.389,0.038-0.775,0.04-1.164C24.922,20.824,24.913,19.142,24.876,17.457z M9.376,4.098
	c0.018-0.019,0.036-0.039,0.055-0.057C9.516,3.985,9.602,3.935,9.692,3.89c0.139-0.046,0.279-0.077,0.425-0.102
	c1.647-0.193,3.318-0.207,4.973-0.218c0.431-0.004,0.861,0.019,1.292,0.027c0.435,0.01,0.869,0.017,1.303,0.033
	c0.835,0.027,1.671,0.044,2.507,0.073c0.362,0.013,0.722,0.042,1.081,0.073c0.284,0.025,0.568,0.042,0.849,0.071
	c0.092,0.016,0.181,0.037,0.27,0.064c0.018,0.01,0.036,0.02,0.054,0.03c0.033,0.033,0.063,0.066,0.093,0.102
	c0.077,0.101,0.154,0.202,0.232,0.301c0.049,0.049,0.117,0.066,0.174,0.101c0.014,1.699,0.088,3.395,0.125,5.093
	c0.036,1.74,0.04,3.478,0.092,5.216c0.05,1.682,0.08,3.367,0.09,5.051c0.004,0.757,0.008,1.515,0.002,2.272
	c-0.124,0.011-0.247,0.022-0.372,0.024c-0.356,0.008-0.71,0.017-1.064,0.027c-0.789,0.021-1.575-0.004-2.364-0.013
	c-1.552-0.019-3.103-0.084-4.655-0.113c-1.028-0.017-2.057-0.015-3.087-0.021c-0.944-0.007-1.888-0.043-2.834-0.058
	c-0.012-0.624-0.024-1.248-0.037-1.874c-0.019-0.852-0.017-1.707-0.023-2.561c-0.015-1.73-0.046-3.462-0.057-5.195
	c-0.013-1.749-0.025-3.499-0.004-5.248c0.008-0.7,0.032-1.402,0.041-2.103C8.875,4.881,8.944,4.81,8.994,4.721
	C9.115,4.507,9.234,4.297,9.376,4.098z M23.151,27.804c-0.023,0.014-0.047,0.028-0.071,0.04c-0.099,0.034-0.198,0.06-0.3,0.079
	c-0.197,0.016-0.392,0.014-0.589,0.014c-0.109,0-0.218,0-0.325,0.002c-0.392,0.008-0.787,0.036-1.179,0.057
	c-0.838,0.046-1.677,0.098-2.513,0.14c-0.856,0.042-1.713,0.021-2.567,0.052c-0.861,0.033-1.723,0.061-2.584,0.084
	c-0.986,0.029-1.967,0.051-2.952-0.032c-0.19-0.031-0.377-0.073-0.566-0.113C9.325,28.088,9.143,28.055,8.967,28
	c-0.005-0.003-0.011-0.006-0.016-0.01c0,0-0.001-0.001-0.001-0.001c-0.005-0.008-0.01-0.017-0.015-0.025
	c-0.014-0.05-0.026-0.101-0.037-0.153c-0.007-0.066-0.011-0.133-0.017-0.2c0.063-0.782,0.026-1.573,0.028-2.356
	c0-0.576-0.005-1.151-0.009-1.726c0.724-0.011,1.445-0.034,2.168-0.05c0.756-0.013,1.51-0.011,2.264-0.013
	c0.783,0,1.564,0.006,2.345,0.017c0.794,0.011,1.587,0.031,2.381,0.054c1.022,0.031,2.046,0.002,3.07,0.031
	c0.469,0.013,0.938,0.034,1.407,0.031c0.224-0.002,0.446-0.008,0.67-0.004c0.004,0,0.008,0,0.012,0
	c-0.011,0.361-0.012,0.723-0.031,1.084c-0.044,0.846-0.09,1.692-0.157,2.536c-0.015,0.189,0.065,0.357,0.179,0.499
	c-0.013,0.025-0.027,0.05-0.04,0.074C23.162,27.793,23.157,27.798,23.151,27.804z M16.58,25.476c0,0.454-0.379,0.833-0.833,0.833
	s-0.833-0.379-0.833-0.833s0.379-0.833,0.833-0.833S16.58,25.023,16.58,25.476z"/>
</svg>