<?xml version="1.0" encoding="utf-8"?>
<!-- Generator: Adobe Illustrator 21.1.0, SVG Export Plug-In . SVG Version: 6.00 Build 0)  -->
<svg version="1.1" id="designs" xmlns="http://www.w3.org/2000/svg" xmlns:xlink="http://www.w3.org/1999/xlink" x="0px" y="0px"
	 width="32px" height="32px" viewBox="0 0 32 32" style="enable-background:new 0 0 32 32;" xml:space="preserve">
<style type="text/css">
	.sketchy_een{fill:#111918;}
</style>
<path class="sketchy_een" d="M13.532,31c-0.299,0-0.606-0.059-0.912-0.176c-0.24-0.09-0.492-0.189-0.721-0.331
	c-0.264-0.167-0.615-0.448-0.787-0.835c-0.107-0.24-0.198-0.446-0.243-0.66c-0.051-0.234-0.082-0.468-0.11-0.705
	c-0.043-0.387-0.055-0.778-0.066-1.168l-0.009-0.235c-0.012-0.307-0.025-0.62,0.002-0.923c0.023-0.256,0.093-0.426,0.232-0.566
	c0.148-0.147,0.353-0.232,0.563-0.232c0.209,0,0.413,0.085,0.561,0.233c0.163,0.163,0.21,0.344,0.232,0.566
	c0.021,0.21,0.031,0.42,0.041,0.631c0.008,0.178,0.016,0.356,0.031,0.533l0.026,0.323c0.018,0.233,0.037,0.466,0.063,0.698
	c0.035,0.212,0.079,0.417,0.147,0.618c0.029,0.058,0.09,0.161,0.09,0.161l0.072,0.072c0.111,0.074,0.226,0.14,0.348,0.198
	c0.124,0.048,0.246,0.09,0.372,0.12l0.108,0.002c0.079,0,0.159-0.003,0.239-0.009c0.106-0.021,0.204-0.045,0.301-0.075l0.095-0.055
	l0.081-0.081l0.071-0.122c0.058-0.173,0.094-0.342,0.121-0.513c0.059-0.569,0.057-1.149,0.055-1.71v-0.549
	c0.003-0.436,0.012-0.873,0.021-1.31c0.008-0.396,0.016-0.791,0.02-1.187c0.02-1.736,0.074-3.293,0.166-4.759
	c-0.188-0.269-0.301-0.481-0.415-0.692c-0.103-0.192-0.206-0.383-0.329-0.563c-0.092-0.104-0.184-0.197-0.284-0.285
	c-0.16-0.109-0.321-0.199-0.489-0.28c-0.143-0.048-0.281-0.082-0.422-0.109c-0.086-0.007-0.167-0.011-0.247-0.011
	c-0.089,0-0.178,0.004-0.269,0.012c-0.215,0.037-0.419,0.088-0.623,0.157c-0.195,0.095-0.372,0.204-0.544,0.327
	c-0.211,0.17-0.409,0.346-0.587,0.548c-0.059,0.084-0.111,0.165-0.163,0.246c-0.062,0.097-0.124,0.194-0.193,0.288
	c-0.171,0.235-0.326,0.389-0.609,0.487c-0.06,0.021-0.126,0.031-0.197,0.031c-0.176,0-0.341-0.063-0.447-0.117
	c-0.148-0.075-0.226-0.181-0.324-0.315c-0.091-0.122-0.147-0.261-0.202-0.396l-0.063-0.149c-0.087-0.193-0.179-0.382-0.296-0.557
	c-0.087-0.097-0.175-0.181-0.269-0.261c-0.135-0.09-0.268-0.166-0.409-0.233c-0.16-0.056-0.314-0.1-0.474-0.131l-0.12-0.004
	c-0.069,0-0.137,0.003-0.206,0.008c-0.163,0.032-0.312,0.075-0.462,0.129c-0.193,0.093-0.364,0.201-0.533,0.322
	c-0.214,0.181-0.412,0.385-0.607,0.625c-0.119,0.162-0.232,0.321-0.346,0.483c-0.157,0.218-0.301,0.329-0.497,0.381
	c-0.071,0.021-0.144,0.03-0.218,0.03c-0.146,0-0.291-0.039-0.417-0.112c-0.184-0.108-0.321-0.288-0.378-0.494
	c-0.054-0.194-0.027-0.431,0.067-0.589l0.01-0.255c0.005-0.406,0.01-0.812,0.039-1.215c0.065-0.872,0.151-1.9,0.304-2.908
	c0.065-0.421,0.174-0.838,0.281-1.23c0.115-0.422,0.238-0.843,0.38-1.258c0.299-0.884,0.649-1.818,1.18-2.66
	c0.525-0.833,1.134-1.6,1.809-2.279c0.636-0.64,1.36-1.208,2.154-1.689C9.71,4.003,10.068,3.784,10.443,3.6
	c0.429-0.209,0.887-0.425,1.351-0.576c0.92-0.291,1.907-0.366,2.761-0.413c0.011-0.209,0.006-0.351,0.032-0.494
	c0.023-0.125,0.102-0.507,0.102-0.507C14.773,1.214,15.174,1,15.509,1c0.072,0,0.143,0.009,0.209,0.027
	c0.433,0.119,0.683,0.563,0.583,1.033l-0.093,0.458c0.397,0.064,0.745,0.07,1.091,0.096c0.448,0.032,0.922,0.072,1.369,0.166
	c0.445,0.094,0.854,0.207,1.25,0.346c0.43,0.15,0.85,0.339,1.249,0.56C21.464,3.848,21.766,4,22.067,4.153l0.215,0.109
	c0.442,0.226,0.85,0.434,1.227,0.684c0.452,0.3,0.841,0.583,1.189,0.865c0.372,0.3,0.663,0.588,0.89,0.882
	c0.238,0.305,0.464,0.616,0.692,0.927l0.225,0.308c0.511,0.695,0.928,1.457,1.239,2.264c0.337,0.871,0.578,1.796,0.769,2.585
	c0.242,0.995,0.268,2.034,0.293,3.038c0.017,0.666,0.034,1.356,0.114,2.027c0.025,0.21-0.112,0.457-0.249,0.596
	c-0.028,0.028-0.066,0.049-0.104,0.072l-0.013,0.007l-0.079,0.08c-0.175,0.189-0.4,0.278-0.626,0.278
	c-0.223,0-0.419-0.083-0.551-0.234c-0.223-0.257-0.467-0.528-0.739-0.77c-0.045-0.03-0.084-0.052-0.124-0.074
	c-0.075-0.024-0.14-0.041-0.207-0.056c-0.113-0.006-0.217-0.009-0.32-0.009c-0.196,0-0.391,0.009-0.588,0.026
	c-0.307,0.052-0.568,0.119-0.802,0.202c-0.403,0.186-0.773,0.401-1.103,0.64c-0.103,0.09-0.195,0.182-0.281,0.281l-0.133,0.173
	c-0.13,0.162-0.31,0.245-0.482,0.316c-0.04,0.017-0.106,0.026-0.183,0.026c-0.094,0-0.202-0.013-0.273-0.034
	c-0.134-0.036-0.302-0.135-0.39-0.231c-0.097-0.102-0.187-0.22-0.267-0.352l-0.116-0.194c-0.132-0.224-0.263-0.446-0.413-0.658
	c-0.199-0.245-0.388-0.443-0.578-0.609c-0.078-0.052-0.153-0.097-0.229-0.137c-0.121-0.036-0.233-0.06-0.347-0.08l-0.14-0.004
	c-0.097,0-0.193,0.006-0.29,0.015c-0.466,0.079-0.9,0.224-1.228,0.342c-0.315,0.143-0.601,0.305-0.854,0.481
	c-0.114,0.1-0.211,0.207-0.302,0.319l-0.121,0.161c-0.137,0.183-0.273,0.365-0.417,0.541c-0.055,0.627-0.093,1.226-0.098,1.829
	c-0.006,0.765-0.006,1.53-0.002,2.294c0.006,0.752,0.008,1.504-0.01,2.257c-0.019,0.682-0.033,1.363-0.033,2.047
	c0,0.459-0.03,0.89-0.092,1.317c-0.057,0.394-0.159,0.897-0.454,1.3c-0.335,0.461-0.787,0.767-1.307,0.887
	c-0.321,0.075-0.583,0.11-0.824,0.112H13.532z M19.824,15.544c0.302,0.027,0.537,0.049,0.725,0.128
	c0.286,0.118,0.531,0.239,0.795,0.448c0.117,0.093,0.225,0.193,0.33,0.3c0.3,0.306,0.537,0.594,0.726,0.88l0.072,0.114
	c-0.006-0.01,0.265-0.194,0.29-0.211c0.109-0.074,0.221-0.144,0.335-0.21c0.441-0.257,0.915-0.517,1.43-0.632
	c0.37-0.085,0.655-0.132,0.924-0.151l0.114-0.009c0.152-0.012,0.308-0.024,0.461-0.024c0.093,0,0.185,0.004,0.274,0.017
	c0.324,0.041,0.615,0.119,0.829,0.203l-0.009-0.552l-0.012-0.531c-0.012-0.512-0.024-1.023-0.08-1.531
	c-0.095-0.572-0.246-1.139-0.38-1.625c-0.121-0.439-0.272-0.954-0.461-1.448c-0.266-0.594-0.494-1.03-0.741-1.416
	c-0.22-0.343-0.468-0.669-0.715-0.995c0,0-0.413-0.548-0.417-0.54c-0.248-0.284-0.52-0.548-0.83-0.804
	c-0.615-0.46-1.239-0.846-1.909-1.183l-0.364-0.179c-0.237-0.115-0.474-0.23-0.704-0.357c-0.336-0.185-0.598-0.328-0.872-0.454
	c-0.601-0.232-1.155-0.388-1.698-0.477c-0.681-0.076-1.388-0.115-2.106-0.115c-0.762,0-1.554,0.044-2.357,0.129
	c-0.596,0.094-1.121,0.229-1.605,0.416c-0.835,0.369-1.655,0.848-2.44,1.423c-0.414,0.337-0.761,0.65-1.063,0.961
	C8.047,7.445,7.729,7.812,7.364,8.272C7.1,8.637,6.855,9.008,6.629,9.394c-0.221,0.376-0.401,0.773-0.534,1.077
	c-0.519,1.291-0.86,2.439-1.042,3.509c-0.072,0.583-0.118,1.165-0.163,1.748L4.86,15.97c0.216-0.184,0.484-0.312,0.748-0.415
	c0.357-0.138,0.728-0.208,1.106-0.208c0.158,0,0.314,0.011,0.469,0.034c0.74,0.112,1.487,0.51,1.998,1.064
	c0.096,0.103,0.181,0.214,0.259,0.33c0.359-0.282,0.675-0.52,0.92-0.696c0.344-0.249,0.72-0.427,1.117-0.529
	c0.159-0.041,0.315-0.075,0.477-0.097c0.243-0.036,0.402-0.06,0.557-0.06c0.395,0.012,0.831,0.044,1.194,0.195
	c0.388,0.164,0.796,0.349,1.145,0.663c0.295,0.264,0.549,0.592,0.756,0.974l0.057,0.122l0.177-0.216
	c0.275-0.315,0.627-0.571,1.141-0.833c0.782-0.397,1.565-0.645,2.327-0.735c0.121-0.014,0.241-0.025,0.362-0.025
	C19.721,15.537,19.772,15.539,19.824,15.544z M24.634,14.525c-0.151,0-0.298-0.04-0.425-0.115c-0.166-0.098-0.35-0.291-0.388-0.501
	l-0.024-0.138c-0.081-0.459-0.164-0.919-0.279-1.373c-0.111-0.433-0.255-0.877-0.428-1.318c-0.193-0.43-0.395-0.795-0.619-1.12
	c-0.236-0.286-0.487-0.55-0.743-0.812c-0.31-0.322-0.311-0.836-0.001-1.145c0.15-0.148,0.361-0.234,0.58-0.234
	s0.419,0.083,0.562,0.234c0.435,0.456,0.851,0.909,1.171,1.435c0.302,0.497,0.533,0.966,0.707,1.433
	c0.154,0.403,0.31,0.815,0.41,1.234c0.052,0.217,0.096,0.436,0.14,0.655c0.047,0.233,0.094,0.465,0.15,0.697
	c0.11,0.461-0.149,0.918-0.59,1.04C24.785,14.515,24.709,14.525,24.634,14.525z"/>
</svg>