<?xml version="1.0" encoding="utf-8"?>
<!-- Generator: Adobe Illustrator 21.1.0, SVG Export Plug-In . SVG Version: 6.00 Build 0)  -->
<svg version="1.1" id="designs" xmlns="http://www.w3.org/2000/svg" xmlns:xlink="http://www.w3.org/1999/xlink" x="0px" y="0px"
	 width="32px" height="32px" viewBox="0 0 32 32" style="enable-background:new 0 0 32 32;" xml:space="preserve">
<style type="text/css">
	.sketchy_een{fill:#111918;}
</style>
<path class="sketchy_een" d="M30.878,12.161c-0.307-0.403-0.678-0.748-1.027-1.115c-0.3-0.315-0.607-0.622-0.916-0.93
	c-0.636-0.632-1.256-1.279-1.84-1.959c-0.286-0.33-0.561-0.666-0.859-0.983c-0.29-0.311-0.586-0.615-0.872-0.93
	c-0.622-0.678-1.239-1.363-1.875-2.031c-0.477-0.5-0.953-1.004-1.432-1.504c-0.042-0.044-0.097-0.066-0.146-0.098
	c-0.038-0.174-0.106-0.341-0.234-0.468c-0.184-0.184-0.422-0.273-0.66-0.273c-0.244,0-0.49,0.094-0.68,0.273
	c-0.706,0.668-1.397,1.352-2.104,2.02c-0.672,0.639-1.331,1.285-2.041,1.884C15.5,6.628,14.842,7.256,14.2,7.89
	c-0.647,0.636-1.313,1.254-1.97,1.879c-1.004,0.951-1.995,1.915-2.995,2.873c-0.447,0.428-0.903,0.851-1.365,1.264
	c-0.51,0.458-0.983,0.947-1.474,1.424c-0.278,0.268-0.324,0.686-0.166,1.021c0.001,0.231,0.088,0.462,0.256,0.644
	c0.163,0.176,0.335,0.344,0.499,0.52c-0.413,0.48-0.822,0.964-1.257,1.426c-0.229,0.246-0.466,0.481-0.695,0.727
	c-0.218,0.233-0.435,0.468-0.664,0.695c-0.452,0.447-0.901,0.899-1.352,1.348C2.603,22.12,2.2,22.534,1.74,22.895
	c-0.105,0.107-0.178,0.233-0.22,0.378c-0.018,0.066-0.012,0.134-0.014,0.201c-0.091,0.041-0.18,0.093-0.255,0.168
	c-0.328,0.327-0.342,0.899,0,1.222c0.859,0.817,1.709,1.64,2.531,2.495c0.69,0.715,1.317,1.499,1.932,2.281
	c0.016,0.022,0.031,0.045,0.047,0.067c0.128,0.189,0.283,0.332,0.51,0.395c0.221,0.059,0.462,0.027,0.659-0.088
	c0.074-0.043,0.135-0.109,0.193-0.175c0.316-0.014,0.633-0.019,0.95-0.026c0.475-0.009,0.951-0.017,1.428-0.019
	c1.109-0.006,2.218,0.019,3.327,0.036c0.395,0.005,0.724-0.27,0.843-0.628c0.028-0.021,0.057-0.033,0.086-0.056
	c0.189-0.149,0.33-0.353,0.485-0.535c0.174-0.204,0.363-0.393,0.548-0.586c0.418-0.437,0.832-0.878,1.224-1.338
	c0.031-0.037,0.048-0.077,0.075-0.115c0.143,0.122,0.277,0.253,0.425,0.371c0.197,0.155,0.378,0.265,0.638,0.265
	c0.239,0,0.47-0.097,0.638-0.265c0.083-0.083,0.148-0.182,0.192-0.289c0.292-0.099,0.515-0.339,0.729-0.553
	c0.143-0.143,0.283-0.288,0.422-0.435c0.3-0.317,0.611-0.626,0.913-0.939c0.613-0.63,1.224-1.26,1.829-1.898
	c1.264-1.331,2.486-2.701,3.767-4.017c0.393-0.403,0.781-0.808,1.149-1.235c0.384-0.45,0.758-0.907,1.182-1.319
	c0.412-0.401,0.844-0.781,1.266-1.172c0.468-0.433,0.926-0.878,1.378-1.331c0.199-0.199,0.279-0.47,0.259-0.736
	c0.032-0.059,0.072-0.114,0.09-0.179C31.023,12.636,31.015,12.338,30.878,12.161z M13.523,26.761
	c-0.178,0.199-0.355,0.399-0.533,0.598c-0.16,0.18-0.311,0.372-0.502,0.521c-0.045,0.036-0.068,0.098-0.101,0.149
	c-0.029,0-0.059,0-0.088,0c-0.426,0-0.85,0.003-1.275,0.006c-0.496,0.004-0.991,0.008-1.485,0.006
	c-0.479-0.002-0.958,0.008-1.436,0.027c-0.468,0.017-0.943-0.004-1.409,0.036c-0.023,0.002-0.042,0.011-0.064,0.013
	c-0.01-0.011-0.019-0.023-0.029-0.035c-0.174-0.202-0.347-0.408-0.519-0.611c-0.355-0.414-0.714-0.823-1.077-1.229
	c-0.66-0.737-1.356-1.442-2.061-2.135c0.207-0.158,0.417-0.313,0.603-0.496c0.212-0.208,0.424-0.416,0.636-0.622
	c0.46-0.447,0.905-0.905,1.352-1.363c0.458-0.466,0.899-0.947,1.357-1.413c0.451-0.465,0.884-0.945,1.314-1.429
	c0.748,0.777,1.489,1.562,2.243,2.334c0.62,0.634,1.218,1.285,1.859,1.896c0.64,0.609,1.281,1.216,1.909,1.84
	c0.176,0.175,0.36,0.342,0.541,0.511c-0.011,0.011-0.029,0.015-0.039,0.026C14.329,25.855,13.928,26.309,13.523,26.761z
	 M27.144,14.534c-0.325,0.302-0.643,0.611-0.951,0.932c-0.326,0.34-0.626,0.706-0.939,1.056c-0.626,0.706-1.298,1.369-1.94,2.058
	c-0.645,0.689-1.275,1.392-1.913,2.088c-0.701,0.767-1.407,1.529-2.125,2.281c-0.653,0.682-1.292,1.387-1.989,2.026
	c-0.075,0.027-0.136,0.078-0.198,0.126c-0.52-0.43-1.023-0.88-1.515-1.338c-0.641-0.594-1.268-1.205-1.905-1.804
	c-0.664-0.626-1.292-1.287-1.924-1.942c-0.609-0.628-1.224-1.25-1.814-1.894c-0.602-0.658-1.198-1.321-1.797-1.983
	c1.049-1.063,2.127-2.097,3.204-3.132c1.289-1.239,2.606-2.451,3.9-3.686c0.515-0.489,1.033-0.974,1.56-1.451
	c0.527-0.475,1.084-0.916,1.609-1.39c0.86-0.78,1.715-1.566,2.567-2.355c1.278,1.312,2.587,2.597,3.833,3.94
	c0.59,0.639,1.121,1.329,1.712,1.97c0.594,0.643,1.224,1.249,1.835,1.875c0.237,0.243,0.457,0.499,0.678,0.755
	C28.411,13.296,27.793,13.931,27.144,14.534z M25.936,12.922c0.334,0.334,0.317,0.863,0,1.199c-0.349,0.37-0.699,0.735-1.063,1.092
	c-0.607,0.596-1.231,1.17-1.823,1.781c-0.279,0.29-0.571,0.567-0.848,0.861c-0.279,0.296-0.561,0.594-0.851,0.882
	c-0.603,0.596-1.163,1.226-1.739,1.848c-0.275,0.298-0.552,0.594-0.829,0.89c-0.229,0.247-0.474,0.485-0.691,0.742
	c-0.003,0.004-0.005,0.008-0.008,0.012c-0.229,0.37-0.71,0.51-1.094,0.286c-0.359-0.21-0.527-0.731-0.286-1.094
	c0.149-0.227,0.342-0.416,0.529-0.611c0.143-0.151,0.288-0.302,0.428-0.454c0.567-0.611,1.13-1.229,1.68-1.854
	c0.275-0.313,0.575-0.607,0.869-0.903c0.288-0.292,0.569-0.588,0.851-0.886c1.21-1.279,2.474-2.503,3.675-3.791
	c0.155-0.167,0.371-0.247,0.588-0.247C25.548,12.675,25.774,12.76,25.936,12.922z"/>
</svg>