<?xml version="1.0" encoding="utf-8"?>
<!-- Generator: Adobe Illustrator 21.1.0, SVG Export Plug-In . SVG Version: 6.00 Build 0)  -->
<svg version="1.1" id="designs" xmlns="http://www.w3.org/2000/svg" xmlns:xlink="http://www.w3.org/1999/xlink" x="0px" y="0px"
	 width="32px" height="32px" viewBox="0 0 32 32" style="enable-background:new 0 0 32 32;" xml:space="preserve">
<style type="text/css">
	.sketchy_een{fill:#111918;}
</style>
<path class="sketchy_een" d="M28.685,27.576c-0.037-0.696-0.086-1.394-0.14-2.089c-0.057-0.737-0.084-1.476-0.131-2.214
	c-0.047-0.739-0.133-1.472-0.209-2.206c-0.082-0.803-0.158-1.606-0.226-2.409c-0.06-0.696-0.154-1.392-0.244-2.083
	c-0.089-0.697-0.182-1.393-0.278-2.088c-0.101-0.816-0.178-1.634-0.258-2.451c-0.078-0.795-0.166-1.591-0.234-2.39
	c-0.068-0.793-0.152-1.587-0.228-2.38c-0.074-0.795-0.062-1.594-0.049-2.392c0.001-0.083,0.003-0.167,0.005-0.25
	c0.176-0.157,0.291-0.391,0.291-0.616c0-0.214-0.086-0.423-0.238-0.573c-0.067-0.068-0.157-0.128-0.255-0.173
	C26.343,3.103,26.136,3,25.911,3c-0.211,0-0.4,0.088-0.543,0.223c-0.261,0.012-0.52,0.024-0.779,0.027
	c-0.622,0.008-1.24,0.074-1.856,0.146c-0.411,0.047-0.778,0.127-1.144,0.329c-0.37,0.205-0.513,0.635-0.513,1.031
	c0,0.236,0.039,0.474,0.051,0.709c0.028,0.55,0.032,1.094-0.021,1.642c-0.439-0.001-0.883-0.048-1.311-0.099
	c-0.067-0.01-0.134-0.021-0.201-0.033c-0.051-0.224-0.084-0.456-0.118-0.681c-0.029-0.266-0.045-0.533-0.067-0.8
	c-0.014-0.16-0.031-0.318-0.051-0.476c-0.031-0.267-0.072-0.485-0.181-0.733c-0.099-0.224-0.265-0.458-0.478-0.585
	c-0.183-0.109-0.355-0.158-0.569-0.166c-0.062-0.002-0.123,0.006-0.183,0.008c-0.162,0.006-0.324,0.004-0.487,0.002
	c-0.327-0.004-0.655-0.016-0.984-0.018c-0.329,0-0.661-0.008-0.992,0c-0.433,0.01-0.854,0.045-1.283,0.101
	c-0.14,0.019-0.363,0.074-0.47,0.158c-0.082,0.062-0.164,0.125-0.246,0.189c-0.127,0.127-0.189,0.269-0.242,0.437
	c-0.07,0.212-0.027,0.44,0,0.657c0.045,0.359,0.093,0.716,0.142,1.073c0.031,0.237,0.059,0.479,0.066,0.72
	c-0.243-0.002-0.487-0.013-0.727-0.023c-0.404-0.016-0.806-0.037-1.208-0.078c-0.074-0.235-0.119-0.48-0.152-0.724
	c0.01,0.076,0.021,0.154,0.031,0.23c-0.082-0.61-0.201-1.214-0.298-1.824c-0.029-0.179-0.051-0.337-0.154-0.499
	c-0.148-0.232-0.366-0.357-0.626-0.437c-0.148-0.045-0.292-0.094-0.444-0.117C9.243,3.29,8.606,3.315,7.969,3.317
	C7.321,3.319,6.673,3.342,6.025,3.375C6.007,3.369,5.992,3.354,5.973,3.349C5.896,3.328,5.818,3.317,5.739,3.317
	c-0.154,0-0.308,0.04-0.441,0.119C5.166,3.514,5.062,3.62,4.984,3.75c-0.08,0.136-0.119,0.285-0.121,0.443
	c-0.123,0.924-0.179,1.85-0.218,2.781C4.606,7.91,4.536,8.843,4.448,9.777c-0.173,1.84-0.288,3.688-0.357,5.536
	c-0.033,0.893-0.09,1.783-0.138,2.676c-0.053,0.936-0.086,1.873-0.119,2.809c-0.062,1.752-0.292,3.489-0.394,5.237
	c-0.027,0.45-0.045,0.906-0.097,1.356c-0.002,0.01-0.003,0.02-0.005,0.03c-0.043,0.251-0.041,0.474,0.092,0.7
	c0.008,0.013,0.022,0.021,0.03,0.034c0,0.003-0.002,0.006-0.002,0.009c0,0.458,0.38,0.832,0.836,0.836
	c0.443,0.002,0.885-0.01,1.327-0.027c0.413-0.017,0.823-0.017,1.236-0.01c0.394,0.006,0.786,0.01,1.179-0.012
	c0.411-0.021,0.823-0.043,1.236-0.047c0.402-0.006,0.803-0.012,1.206-0.016c0.413-0.006,0.828-0.037,1.242-0.053
	c0.799-0.029,1.596-0.043,2.395-0.039c0.444,0.004,0.889,0.002,1.335,0c0.333,0,0.667-0.002,1.002-0.002
	c0.764,0.002,1.528-0.057,2.29-0.088c0.801-0.033,1.602-0.016,2.401-0.045c0.823-0.029,1.647-0.062,2.471-0.062
	c0.653-0.002,1.306,0.012,1.959,0.014c0.62,0,1.236,0.035,1.856,0.059c0.274,0.01,0.513-0.136,0.674-0.344
	C28.433,28.229,28.704,27.933,28.685,27.576z M6.495,5.059L6.495,5.059C6.489,5.101,6.484,5.142,6.477,5.185
	C6.483,5.143,6.489,5.101,6.495,5.059z M25.687,26.996c-0.187,0-0.376-0.002-0.563,0.004c-0.801,0.023-1.604,0.01-2.407,0.031
	c-1.589,0.041-3.175,0.082-4.764,0.142c-0.782,0.029-1.563,0.021-2.347,0.037c-0.316,0.006-0.63,0.006-0.945,0.006
	c-0.466-0.002-0.932-0.002-1.394,0.016c-0.821,0.035-1.645,0.055-2.466,0.076c-0.4,0.01-0.797,0.006-1.197,0.006
	c-0.405-0.002-0.807,0.016-1.212,0.031c-0.335,0.014-0.671,0.031-1.006,0.025c-0.326-0.004-0.649-0.018-0.975-0.027
	c-0.398-0.01-0.795-0.01-1.191-0.01c-0.027,0-0.053,0-0.079,0c0.014-0.281,0.019-0.562,0.026-0.842
	c0.01-0.417,0.033-0.834,0.058-1.251c0.027-0.427,0.053-0.854,0.09-1.279c0.039-0.44,0.09-0.879,0.121-1.322
	c0.129-1.826,0.14-3.66,0.261-5.487c0.06-0.908,0.088-1.817,0.129-2.725c0.043-0.959,0.121-1.916,0.185-2.875
	c0.029-0.435,0.053-0.869,0.082-1.306c0.033-0.444,0.08-0.887,0.111-1.331c0.064-0.912,0.103-1.826,0.179-2.737
	c0.032-0.374,0.066-0.748,0.113-1.12C6.979,5.03,7.461,5,7.945,4.976c0.283-0.014,0.565-0.031,0.85-0.037
	c0.229-0.006,0.462-0.014,0.693,0.004C9.511,4.948,9.535,4.953,9.559,4.96c0.009,0.08,0.017,0.16,0.027,0.236
	c-0.01-0.072-0.02-0.144-0.029-0.216c0.047,0.357,0.09,0.711,0.105,1.07c0.016,0.435,0.029,0.889,0.175,1.304
	C9.929,7.615,10.029,7.817,10.2,8.03c0.263,0.322,0.667,0.384,1.054,0.409c0.437,0.029,0.875,0.027,1.312,0.029
	c0.384,0,0.768,0.006,1.152,0.004c0.347,0,0.745-0.016,0.996-0.294c0.158-0.175,0.257-0.365,0.304-0.598
	c0.031-0.16,0.049-0.339,0.045-0.503c-0.01-0.382-0.051-0.76-0.07-1.14c-0.013-0.225-0.03-0.454-0.039-0.682
	c0.213-0.019,0.424-0.028,0.638-0.035c0.306-0.012,0.614-0.029,0.922-0.027c0.381,0.004,0.769,0.003,1.153,0.024
	c0.034,0.339,0.045,0.677,0.054,1.017c0.012,0.45,0.074,0.902,0.14,1.347c0.012,0.074,0.021,0.148,0.037,0.22
	c0.049,0.222,0.158,0.407,0.302,0.581c0.306,0.37,0.846,0.368,1.284,0.411c0.388,0.037,0.772,0.053,1.162,0.057
	c0.388,0.004,0.764,0.006,1.148-0.07c0.31-0.06,0.614-0.253,0.76-0.54c0.148-0.294,0.172-0.647,0.207-0.969
	c0.074-0.683,0.112-1.371,0.165-2.055c0.312-0.078,0.638-0.121,0.957-0.164c0.4-0.047,0.804-0.075,1.206-0.11
	c0.014-0.001,0.029-0.003,0.043-0.005c0.007,0.477,0.003,0.955,0.024,1.432c0.035,0.795,0.136,1.583,0.211,2.374
	c0.078,0.805,0.129,1.612,0.211,2.415c0.078,0.797,0.158,1.594,0.247,2.39c0.077,0.682,0.168,1.363,0.261,2.045
	c-0.001-0.011-0.003-0.022-0.004-0.034c0.002,0.019,0.005,0.038,0.007,0.056c0.007,0.049,0.013,0.098,0.02,0.147
	c-0.005-0.032-0.009-0.064-0.014-0.096c0.1,0.772,0.191,1.545,0.277,2.32c0.086,0.795,0.144,1.592,0.228,2.388
	c0.078,0.748,0.177,1.497,0.228,2.249c0.053,0.754,0.082,1.512,0.131,2.269c0.042,0.684,0.073,1.369,0.101,2.054
	c-0.237,0.015-0.473,0.031-0.711,0.043C26.127,27,25.907,26.998,25.687,26.996z M26.094,15.665
	c-0.003-0.025-0.006-0.049-0.009-0.073c0.001,0.008,0.002,0.015,0.003,0.023C26.09,15.631,26.092,15.648,26.094,15.665z
	 M18.58,13.237c-0.156-0.883-0.483-1.781-1.117-2.433c-0.226-0.236-0.526-0.405-0.826-0.524c-0.125-0.049-0.247-0.086-0.378-0.107
	c-0.15-0.023-0.302-0.043-0.454-0.057c-0.043-0.004-0.087-0.006-0.131-0.006c-0.181,0-0.366,0.032-0.541,0.066
	c-0.234,0.043-0.45,0.146-0.665,0.246c-0.24,0.109-0.456,0.271-0.635,0.462c-0.216,0.232-0.35,0.494-0.472,0.778
	c-0.16,0.393-0.294,0.785-0.352,1.21c-0.074,0.538-0.084,1.076-0.08,1.62c0.004,0.454,0.016,0.906,0.021,1.361
	c0.006,0.536-0.01,1.072-0.021,1.608c-0.008,0.375,0.269,0.681,0.617,0.772c0.154,0.162,0.369,0.267,0.608,0.274
	c0.678,0.02,1.355,0.037,2.033,0.035c0.286-0.002,0.575-0.014,0.862-0.01c0.24,0.006,0.478,0.027,0.717,0.02
	c0.108-0.004,0.211-0.029,0.306-0.071c0.416-0.029,0.835-0.396,0.797-0.839c-0.055-0.667-0.078-1.331-0.101-2.002
	C18.738,14.841,18.72,14.027,18.58,13.237z M16.185,16.922c-0.543-0.023-1.085-0.053-1.628-0.078
	c0.003-0.546,0.004-1.092,0.01-1.639c0.005-0.664-0.013-1.333,0.052-1.996c0.051-0.285,0.133-0.559,0.238-0.828
	c0.055-0.12,0.115-0.235,0.187-0.346c0.023-0.026,0.048-0.051,0.073-0.075c0.078-0.048,0.159-0.092,0.242-0.132
	c0.075-0.024,0.152-0.043,0.229-0.059c0.114-0.006,0.225-0.005,0.337,0.003c0.059,0.013,0.117,0.028,0.174,0.046
	c0.066,0.035,0.13,0.072,0.192,0.113c0.072,0.065,0.137,0.132,0.2,0.205c0.089,0.134,0.167,0.271,0.236,0.415
	c0.083,0.202,0.161,0.409,0.213,0.62c0.05,0.204,0.095,0.407,0.13,0.612c0.076,0.659,0.085,1.331,0.098,1.992
	c0.007,0.394,0.003,0.787,0.001,1.181c-0.026-0.001-0.053-0.003-0.079-0.005C16.787,16.94,16.485,16.936,16.185,16.922z
	 M13.385,11.6c-0.009,0.021-0.017,0.042-0.026,0.063c-0.01,0.024-0.02,0.048-0.03,0.072C13.347,11.69,13.366,11.645,13.385,11.6z
	 M25.534,24.28c0.146,0.427-0.162,0.902-0.575,1.015c-0.411,0.113-0.926-0.135-1.015-0.577c-0.148-0.731-0.129-1.487-0.211-2.226
	c-0.071-0.653-0.118-1.309-0.197-1.961c-0.156-1.007-0.248-2.018-0.347-3.032c-0.107-1.088-0.205-2.177-0.318-3.263
	c-0.021-0.208,0.101-0.446,0.244-0.587c0.154-0.156,0.366-0.244,0.587-0.244c0.218,0,0.431,0.088,0.587,0.244
	c0.166,0.166,0.22,0.359,0.242,0.587c0.168,1.738,0.228,3.486,0.434,5.223c0.061,0.428,0.141,0.851,0.185,1.281
	c0.039,0.357,0.058,0.717,0.101,1.076c0.045,0.374,0.074,0.752,0.109,1.129c0.032,0.344,0.057,0.69,0.095,1.033
	C25.474,24.08,25.499,24.18,25.534,24.28z"/>
</svg>