<?xml version="1.0" encoding="utf-8"?>
<!-- Generator: Adobe Illustrator 21.1.0, SVG Export Plug-In . SVG Version: 6.00 Build 0)  -->
<svg version="1.1" id="designs" xmlns="http://www.w3.org/2000/svg" xmlns:xlink="http://www.w3.org/1999/xlink" x="0px" y="0px"
	 width="32px" height="32px" viewBox="0 0 32 32" style="enable-background:new 0 0 32 32;" xml:space="preserve">
<style type="text/css">
	.sketchy_een{fill:#111918;}
</style>
<path class="sketchy_een" d="M24.63,22.665c-0.002-0.003-0.004-0.005-0.006-0.008c0.005,0.006,0.01,0.013,0.015,0.019
	C24.636,22.672,24.633,22.668,24.63,22.665z M28.037,26.076c0,0.408-0.348,0.781-0.768,0.768c-1.043-0.033-2.088-0.031-3.133-0.069
	c-0.814-0.031-1.63-0.05-2.446-0.073c-0.785-0.025-1.57-0.05-2.357-0.054c-0.535-0.003-1.069-0.001-1.603,0
	c0.028,0.174,0.057,0.348,0.085,0.523c0.063,0.408,0.106,0.818,0.09,1.232c-0.004,0.091-0.006,0.181-0.013,0.271
	c-0.012,0.146-0.013,0.312-0.062,0.45c-0.065,0.192-0.15,0.391-0.316,0.52c-0.158,0.123-0.296,0.219-0.496,0.271
	c-0.319,0.085-0.639,0.073-0.964,0.081c-0.356,0.006-0.714,0.01-1.068-0.01c-0.485-0.027-1.003-0.094-1.28-0.55
	c-0.115-0.192-0.167-0.404-0.202-0.622c-0.063-0.414-0.09-0.831-0.127-1.249c-0.028-0.312-0.05-0.624-0.07-0.936
	c-1.152-0.014-2.304-0.029-3.456-0.022c-1.699,0.01-3.396,0.11-5.096,0.148c-0.433,0.01-0.793-0.368-0.793-0.793
	c0-0.402,0.312-0.721,0.701-0.772c0.062-0.188,0.194-0.388,0.373-0.47c0.116-0.055,0.223-0.12,0.327-0.191
	c0.392-0.325,0.718-0.7,1.034-1.099c0.198-0.26,0.392-0.521,0.561-0.8c0.187-0.308,0.366-0.62,0.527-0.941
	c0.314-0.621,0.599-1.26,0.883-1.896c0.12-0.29,0.233-0.583,0.333-0.881c0.018-0.054,0.036-0.108,0.054-0.162
	c-0.333,0.015-0.672,0.004-1.005-0.028c-0.14-0.015-0.292-0.029-0.433-0.062c-0.142-0.033-0.31-0.069-0.425-0.156
	c-0.148-0.11-0.308-0.219-0.393-0.393c-0.089-0.177-0.146-0.333-0.139-0.535c0.01-0.319,0.169-0.645,0.418-0.849
	c0.118-0.097,0.243-0.188,0.365-0.279c0.448-0.354,0.89-0.721,1.305-1.113c0.248-0.233,0.498-0.466,0.724-0.72
	c0.202-0.228,0.395-0.463,0.584-0.701c0.273-0.368,0.543-0.743,0.744-1.152c0.158-0.317,0.307-0.635,0.448-0.957
	c-0.227-0.025-0.454-0.039-0.681-0.061c-0.192-0.017-0.391-0.048-0.581-0.089c-0.383-0.083-0.706-0.312-0.818-0.698
	c-0.096-0.335,0.05-0.7,0.31-0.918c0.119-0.102,0.241-0.2,0.368-0.294c0.192-0.145,0.395-0.274,0.588-0.417
	c0.706-0.572,1.367-1.224,1.932-1.933c0.478-0.629,0.927-1.269,1.302-1.966c0.392-0.731,0.739-1.475,1.066-2.234
	c0.074-0.191,0.149-0.38,0.223-0.569c0.087-0.216,0.185-0.389,0.393-0.51C15.182,2.039,15.333,2,15.484,2
	c0.075,0,0.151,0.01,0.224,0.03c0.214,0.06,0.398,0.202,0.51,0.393c0.055,0.094,0.094,0.215,0.111,0.339
	c0.009,0.012,0.021,0.022,0.029,0.035c0.383,0.6,0.747,1.212,1.13,1.813c0.317,0.498,0.663,0.977,1.02,1.447
	c0.607,0.762,1.267,1.472,2.024,2.086c0.286,0.214,0.58,0.417,0.862,0.635c0.318,0.246,0.63,0.5,0.947,0.748
	c0.12,0.092,0.241,0.181,0.365,0.268c0.19,0.135,0.395,0.25,0.583,0.387c0.177,0.127,0.346,0.25,0.45,0.446
	c0.112,0.208,0.166,0.483,0.075,0.708c-0.102,0.258-0.25,0.441-0.483,0.593c-0.06,0.04-0.121,0.075-0.187,0.102
	c-0.25,0.108-0.485,0.187-0.754,0.229c-0.262,0.041-0.525,0.067-0.791,0.089c-0.105,0.009-0.21,0.017-0.314,0.023
	c0.06,0.15,0.121,0.299,0.181,0.448c0.134,0.305,0.282,0.6,0.463,0.88c0.173,0.267,0.359,0.524,0.55,0.778
	c0.728,0.886,1.533,1.729,2.436,2.441c0.172,0.132,0.341,0.266,0.495,0.42c0.115,0.115,0.235,0.239,0.318,0.379
	c0.139,0.237,0.185,0.475,0.131,0.749c-0.094,0.472-0.566,0.679-0.991,0.749c-0.239,0.038-0.481,0.063-0.724,0.087
	c-0.4,0.036-0.816,0.067-1.218,0.056c-0.117-0.002-0.234-0.006-0.351-0.012c0.27,0.569,0.599,1.101,0.926,1.642
	c0.19,0.314,0.381,0.629,0.583,0.937c0.167,0.253,0.354,0.494,0.54,0.735c-0.009-0.012-0.018-0.023-0.028-0.035
	c0.011,0.014,0.022,0.028,0.034,0.042c0.028,0.036,0.056,0.073,0.084,0.11c-0.025-0.033-0.049-0.066-0.075-0.098
	c0.291,0.367,0.595,0.729,0.923,1.064c0.317,0.324,0.657,0.615,1.011,0.895c0.142,0.107,0.287,0.21,0.435,0.308
	c0.097,0.016,0.19,0.049,0.276,0.101c0.071,0.046,0.144,0.09,0.216,0.135c0.147,0.09,0.247,0.223,0.32,0.368
	C27.952,25.687,28.037,25.873,28.037,26.076z M10.951,11.805c0,0,0.001-0.001,0.001-0.001c-0.034-0.004-0.069-0.009-0.103-0.014
	C10.883,11.795,10.917,11.8,10.951,11.805z M16.264,28.371c0.012-0.27,0.004-0.536-0.024-0.807
	c-0.052-0.307-0.105-0.614-0.155-0.922c-0.351,0-0.703-0.001-1.053-0.004c0.029,0.583,0.061,1.168,0.123,1.749
	c0.353,0.028,0.705,0.03,1.058-0.007C16.231,28.377,16.247,28.374,16.264,28.371z M24.984,25.275
	c-0.174-0.156-0.356-0.304-0.513-0.478c-0.595-0.662-1.145-1.355-1.647-2.088c-0.229-0.335-0.423-0.695-0.633-1.041
	c-0.216-0.356-0.439-0.706-0.647-1.066c-0.233-0.404-0.456-0.845-0.585-1.293c-0.065-0.227-0.127-0.481-0.1-0.72
	c0.031-0.292,0.142-0.604,0.423-0.75c0.189-0.098,0.371-0.141,0.585-0.137c0.087,0.002,0.173,0.01,0.26,0.017
	c0.442,0.036,0.889,0.043,1.335,0.024c-0.114-0.11-0.226-0.223-0.336-0.338c-0.435-0.458-0.864-0.926-1.282-1.399
	c-0.458-0.52-0.868-1.076-1.239-1.657c-0.351-0.551-0.56-1.184-0.809-1.783c-0.058-0.132-0.118-0.264-0.167-0.401
	c-0.052-0.148-0.104-0.304-0.089-0.464c0.025-0.231,0.089-0.396,0.241-0.57c0.248-0.285,0.668-0.325,1.02-0.344
	c0.199-0.012,0.398-0.02,0.596-0.028c-0.112-0.085-0.223-0.171-0.334-0.257c-0.591-0.447-1.231-0.835-1.794-1.319
	c-0.562-0.481-1.08-1.005-1.561-1.568c-0.784-0.917-1.461-1.911-2.12-2.919c-0.136,0.286-0.269,0.572-0.42,0.85
	c-0.391,0.722-0.791,1.439-1.282,2.099c-0.279,0.375-0.566,0.747-0.86,1.108c-0.25,0.306-0.531,0.583-0.814,0.856
	c-0.209,0.203-0.426,0.396-0.648,0.582c0.169,0.015,0.337,0.034,0.507,0.057c0.368,0.054,0.689,0.316,0.789,0.677
	c0.106,0.385-0.094,0.793-0.246,1.139c-0.077,0.175-0.158,0.35-0.237,0.523c-0.158,0.344-0.306,0.697-0.487,1.03
	c-0.2,0.364-0.437,0.701-0.687,1.033c-0.283,0.377-0.587,0.741-0.904,1.089c-0.271,0.298-0.572,0.572-0.866,0.845
	c-0.151,0.14-0.303,0.28-0.456,0.419c0.121-0.013,0.241-0.028,0.363-0.036c0.083-0.006,0.169-0.011,0.252-0.002
	c0.112,0.013,0.239,0.006,0.343,0.05c0.083,0.035,0.166,0.069,0.248,0.104c0.058,0.044,0.115,0.089,0.173,0.135
	c0.362,0.291,0.354,0.799,0.242,1.203c-0.112,0.402-0.264,0.797-0.408,1.187c-0.31,0.835-0.697,1.647-1.083,2.448
	c-0.196,0.406-0.408,0.801-0.635,1.191c-0.214,0.364-0.45,0.704-0.704,1.039c-0.21,0.277-0.43,0.553-0.662,0.818
	c0.352-0.004,0.703-0.008,1.055-0.013C8.915,25.12,9.668,25.1,10.423,25.1c0.034,0,0.068,0,0.102,0c0.777,0,1.555,0.019,2.332,0.023
	c1.563,0.008,3.123,0.042,4.684,0.046c0.316,0.002,0.633,0.002,0.949,0.002c0.497-0.002,0.995-0.002,1.491,0.004
	c0.831,0.01,1.661,0.033,2.492,0.046C23.311,25.232,24.147,25.255,24.984,25.275z"/>
</svg>