<?xml version="1.0" encoding="utf-8"?>
<!-- Generator: Adobe Illustrator 21.1.0, SVG Export Plug-In . SVG Version: 6.00 Build 0)  -->
<svg version="1.1" id="designs" xmlns="http://www.w3.org/2000/svg" xmlns:xlink="http://www.w3.org/1999/xlink" x="0px" y="0px"
	 width="32px" height="32px" viewBox="0 0 32 32" style="enable-background:new 0 0 32 32;" xml:space="preserve">
<style type="text/css">
	.sketchy_een{fill:#111918;}
</style>
<path class="sketchy_een" d="M19.692,18.733c-0.158-0.156-0.247-0.371-0.247-0.593c0-0.241,0.101-0.411,0.247-0.593
	c0.072-0.091,0.146-0.183,0.219-0.275c0.147-0.201,0.28-0.403,0.389-0.625c0.077-0.23,0.13-0.464,0.17-0.703
	c0.038-0.342,0.053-0.687,0.062-1.031c0.009-0.331,0.006-0.668-0.027-0.998c-0.002-0.01-0.003-0.019-0.005-0.029
	c-0.04-0.219-0.036-0.419,0.081-0.616c0.105-0.18,0.277-0.312,0.478-0.368c0.069-0.019,0.14-0.029,0.211-0.029
	c0.141,0,0.282,0.037,0.406,0.11c0.16,0.093,0.34,0.284,0.368,0.478c0.065,0.46,0.091,0.923,0.103,1.389
	c0.01,0.389-0.002,0.784-0.049,1.17c-0.032,0.269-0.077,0.53-0.142,0.79c-0.057,0.229-0.148,0.443-0.241,0.658
	c-0.2,0.468-0.526,0.867-0.838,1.265c-0.128,0.164-0.393,0.245-0.593,0.245C20.061,18.978,19.848,18.889,19.692,18.733z
	 M28.609,26.883c-0.038,0.289-0.071,0.585-0.154,0.865c-0.084,0.291-0.217,0.559-0.341,0.834c-0.091,0.225-0.183,0.451-0.282,0.675
	c-0.052,0.119-0.163,0.219-0.286,0.294c-0.066,0.142-0.162,0.268-0.298,0.348c-0.19,0.111-0.383,0.119-0.593,0.077
	c-0.622-0.119-1.231-0.281-1.84-0.453c-1.5-0.423-2.98-0.909-4.471-1.359c-0.745-0.225-1.458-0.535-2.195-0.78
	c-0.826-0.277-1.66-0.532-2.478-0.832c-0.184-0.068-0.331-0.167-0.441-0.326c-0.134,0.042-0.269,0.083-0.404,0.125
	c-0.759,0.239-1.513,0.488-2.278,0.707c-0.771,0.221-1.541,0.447-2.306,0.69c-0.403,0.128-0.804,0.263-1.207,0.389
	c-0.381,0.119-0.769,0.217-1.152,0.326c-0.411,0.117-0.822,0.229-1.231,0.35c-0.433,0.126-0.862,0.209-1.306,0.269
	c-0.283,0.036-0.605,0.043-0.869-0.067c-0.146-0.061-0.296-0.115-0.403-0.241c-0.065-0.075-0.128-0.15-0.178-0.235
	c-0.067-0.111-0.109-0.243-0.128-0.371c-0.026-0.16-0.04-0.322-0.073-0.48c-0.036-0.164-0.091-0.322-0.14-0.482
	c-0.051-0.174-0.095-0.35-0.119-0.53c-0.024-0.156-0.059-0.322-0.039-0.482c0.024-0.18,0.036-0.29,0.126-0.451
	c0.049-0.091,0.115-0.17,0.184-0.247c0.14-0.156,0.373-0.249,0.563-0.318c0.083-0.032,0.166-0.061,0.251-0.089
	c0.172-0.055,0.342-0.113,0.514-0.168c0.767-0.247,1.517-0.534,2.276-0.8c0.403-0.142,0.812-0.271,1.219-0.399
	c0.383-0.121,0.761-0.255,1.144-0.375c0.035-0.011,0.071-0.019,0.106-0.03c-0.228-0.125-0.453-0.256-0.682-0.379
	c-0.304-0.162-0.599-0.34-0.903-0.502c-0.285-0.152-0.573-0.298-0.862-0.445c-0.658-0.334-1.336-0.626-2.005-0.939
	c-0.294-0.136-0.601-0.267-0.879-0.435c-0.257-0.152-0.496-0.36-0.577-0.66c-0.075-0.279-0.02-0.547,0.024-0.824
	c0.067-0.435,0.261-0.858,0.49-1.233c0.168-0.275,0.37-0.553,0.579-0.798c0.23-0.271,0.611-0.427,0.977-0.427
	c0.117,0,0.233,0.016,0.341,0.05c0.414,0.128,0.813,0.323,1.213,0.496c0.559,0.237,1.11,0.482,1.653,0.752
	c-0.147-0.473-0.271-0.954-0.359-1.435c-0.148-0.808-0.231-1.632-0.259-2.452c-0.012-0.387-0.038-0.773-0.028-1.162
	c0.004-0.196,0.004-0.393,0.02-0.587c0.024-0.267,0.038-0.569,0.176-0.806c0.196-0.332,0.597-0.508,0.972-0.407
	c0.17,0.045,0.328,0.132,0.48,0.219c0.129,0.071,0.256,0.147,0.383,0.222c0.019-0.329,0.071-0.66,0.129-0.983
	c0.121-0.666,0.298-1.326,0.52-1.966c0.237-0.682,0.52-1.353,0.913-1.962c0.37-0.569,0.769-1.116,1.168-1.666
	c0.29-0.399,0.581-0.798,0.903-1.172c0.265-0.306,0.549-0.595,0.838-0.875c0.14-0.136,0.284-0.267,0.429-0.399
	c0.166-0.15,0.344-0.318,0.551-0.413c0.188-0.083,0.318-0.124,0.526-0.13c0.006,0,0.012,0,0.018,0c0.1,0,0.229,0.03,0.328,0.062
	c0.178,0.059,0.328,0.15,0.478,0.259c0.19,0.138,0.385,0.29,0.545,0.464c0.531,0.573,1.002,1.231,1.387,1.911
	c0.19,0.334,0.387,0.662,0.565,1.004c0.008,0.015,0.015,0.031,0.023,0.046c0.032-0.068,0.065-0.135,0.098-0.203
	c0.202-0.413,0.569-0.729,1.023-0.729c0.067,0,0.138,0.006,0.208,0.022c0.403,0.081,0.678,0.451,0.909,0.759
	c0.077,0.105,0.15,0.211,0.223,0.32c0.302,0.454,0.557,0.96,0.782,1.458c0.245,0.541,0.431,1.103,0.644,1.658
	c0.128,0.3,0.257,0.603,0.37,0.911c0.103,0.283,0.186,0.573,0.269,0.861c0.196,0.682,0.312,1.367,0.399,2.069
	c0.095,0.765,0.184,1.529,0.148,2.3c-0.039,0.861-0.124,1.741-0.348,2.577c-0.053,0.202-0.136,0.395-0.215,0.589
	c-0.089,0.225-0.186,0.448-0.292,0.666c-0.001,0.001-0.002,0.003-0.002,0.004c0.098-0.038,0.195-0.081,0.293-0.118
	c0.239-0.091,0.48-0.176,0.727-0.243c0.162-0.043,0.34-0.075,0.508-0.079c0.012,0,0.024,0,0.034,0c0.213,0,0.397,0.038,0.591,0.128
	c0.221,0.103,0.421,0.304,0.53,0.522c0.217,0.435,0.413,0.895,0.559,1.361c0.061,0.198,0.119,0.395,0.19,0.589
	c0.132,0.362,0.156,0.769-0.055,1.104c-0.296,0.472-0.838,0.537-1.324,0.688c-0.68,0.209-1.346,0.466-2.035,0.646
	c-0.499,0.131-0.999,0.263-1.498,0.395c0.439,0.14,0.88,0.275,1.319,0.413c1.16,0.362,2.29,0.804,3.456,1.146
	c0.248,0.072,0.423,0.267,0.5,0.498c0.044,0.004,0.089,0.006,0.132,0.018c0.207,0.057,0.389,0.198,0.5,0.385
	C28.57,26.591,28.609,26.731,28.609,26.883z M11.925,22.754c0.064-0.015,0.127-0.031,0.191-0.046
	c0.192-0.046,0.383-0.095,0.575-0.139c-0.422-0.261-0.838-0.541-1.201-0.879c-0.192-0.18-0.366-0.377-0.539-0.573
	c-0.215-0.241-0.427-0.486-0.618-0.747c-0.034-0.046-0.061-0.097-0.093-0.143c-0.583-0.278-1.162-0.562-1.742-0.845
	c-0.306-0.152-0.613-0.306-0.927-0.443c-0.278-0.122-0.56-0.24-0.84-0.359c-0.003-0.001-0.006-0.002-0.008-0.003
	c0.001,0,0.003,0.001,0.004,0.002c-0.005-0.002-0.009-0.004-0.014-0.006c0.003,0.001,0.007,0.003,0.01,0.004
	c-0.005-0.002-0.01-0.004-0.015-0.006c-0.043-0.018-0.085-0.036-0.128-0.054c0.008,0.003,0.017,0.007,0.025,0.01
	c-0.019-0.008-0.037-0.016-0.056-0.024c0.005,0.002,0.011,0.005,0.016,0.007c-0.013-0.006-0.027-0.011-0.041-0.017
	c-0.157-0.066-0.315-0.133-0.477-0.183c-0.194,0.26-0.377,0.527-0.516,0.819c-0.025,0.07-0.047,0.14-0.065,0.212
	c0.085,0.045,0.172,0.087,0.257,0.13c0.281,0.14,0.561,0.275,0.846,0.405c0.561,0.259,1.118,0.524,1.67,0.802
	c0.292,0.148,0.581,0.298,0.869,0.454c0.277,0.15,0.539,0.324,0.814,0.476c0.603,0.334,1.219,0.638,1.816,0.978
	C11.812,22.629,11.87,22.691,11.925,22.754z M15.234,24.534c0.792-0.243,1.583-0.496,2.375-0.743
	c0.771-0.241,1.531-0.502,2.292-0.767c0.381-0.132,0.765-0.259,1.15-0.377c0.379-0.119,0.765-0.215,1.146-0.328
	c0.383-0.115,0.777-0.198,1.158-0.32c0.352-0.111,0.699-0.235,1.053-0.34c0.328-0.097,0.648-0.209,0.972-0.316
	c0.109-0.036,0.217-0.071,0.328-0.105c-0.03-0.097-0.057-0.194-0.091-0.288c-0.081-0.231-0.174-0.458-0.267-0.686
	c0.022,0.049,0.042,0.099,0.063,0.148c-0.02-0.049-0.042-0.099-0.061-0.15H25.35c-0.51,0.118-1.005,0.327-1.491,0.516
	c-0.088,0.025-0.176,0.052-0.263,0.078c-0.233,0.067-0.46,0.146-0.688,0.227c-0.466,0.167-0.923,0.366-1.383,0.547l0,0
	c-0.001,0.001-0.003,0.001-0.004,0.002c-0.253,0.101-0.504,0.202-0.755,0.3c-0.227,0.091-0.457,0.178-0.686,0.266c0,0,0,0,0,0
	c-0.005,0.002-0.009,0.004-0.014,0.005c-0.478,0.184-0.96,0.358-1.438,0.545c-0.156,0.061-0.314,0.119-0.472,0.176
	c-0.11,0.039-0.219,0.083-0.327,0.127c-0.406,0.096-0.839-0.211-0.945-0.598c-0.059-0.213-0.028-0.445,0.083-0.636
	c0.115-0.194,0.285-0.304,0.494-0.377c0.745-0.263,1.5-0.508,2.247-0.765c0.377-0.128,0.761-0.227,1.142-0.344
	c0.012-0.004,0.023-0.008,0.035-0.011c0.204-0.139,0.408-0.277,0.608-0.423c0.188-0.154,0.367-0.314,0.528-0.498
	c0.156-0.223,0.283-0.468,0.409-0.707c0.117-0.215,0.217-0.439,0.316-0.662c0.111-0.279,0.227-0.563,0.296-0.856
	c0.065-0.271,0.117-0.541,0.158-0.816c0.069-0.634,0.105-1.271,0.081-1.911c-0.02-0.565-0.093-1.13-0.166-1.691
	c-0.115-0.796-0.316-1.567-0.569-2.332c-0.126-0.383-0.296-0.747-0.431-1.126c-0.128-0.368-0.247-0.735-0.385-1.101
	c-0.188-0.419-0.397-0.83-0.636-1.223c-0.138,0.286-0.283,0.569-0.433,0.85c-0.213,0.405-0.767,0.526-1.148,0.302
	c-0.076-0.045-0.132-0.106-0.187-0.168C19.138,7.897,18.97,7.784,18.88,7.6c-0.148-0.306-0.279-0.618-0.441-0.921
	c-0.158-0.3-0.324-0.597-0.488-0.893c-0.292-0.526-0.614-1.031-0.973-1.511c-0.146-0.177-0.3-0.341-0.471-0.493
	c-0.279,0.232-0.539,0.489-0.788,0.75c-0.295,0.306-0.588,0.618-0.855,0.948c-0.392,0.519-0.775,1.047-1.134,1.591
	c-0.34,0.512-0.632,1.042-0.879,1.602c-0.312,0.808-0.535,1.639-0.676,2.494c-0.039,0.343-0.056,0.687-0.047,1.034
	c0.004,0.227,0.01,0.441-0.03,0.668c-0.032,0.196-0.138,0.336-0.259,0.486c-0.148,0.184-0.405,0.229-0.62,0.255
	c-0.241,0.03-0.484-0.134-0.682-0.255c-0.134-0.083-0.271-0.166-0.411-0.243c-0.008-0.004-0.015-0.009-0.023-0.013
	c0.005,0.331,0.027,0.662,0.046,0.989c0.034,0.545,0.093,1.086,0.16,1.627c0.12,0.838,0.313,1.673,0.615,2.465
	c0.211,0.458,0.465,0.889,0.763,1.296c0.375,0.465,0.771,0.921,1.228,1.305c0.496,0.37,1.027,0.678,1.592,0.928
	c0.198,0.076,0.399,0.144,0.604,0.205c0.429,0.128,0.695,0.571,0.575,1.012c-0.091,0.329-0.393,0.567-0.725,0.598
	c-0.271,0.088-0.543,0.174-0.817,0.248c-0.417,0.113-0.84,0.2-1.261,0.296c-0.403,0.093-0.802,0.198-1.203,0.292
	c-0.828,0.196-1.63,0.447-2.432,0.723c-0.776,0.269-1.551,0.539-2.32,0.828C6.564,26.047,6.2,26.183,5.831,26.31
	c-0.267,0.091-0.537,0.172-0.804,0.265c0.01,0.034,0.02,0.065,0.03,0.097c0.049,0.14,0.117,0.273,0.16,0.413
	c0.036,0.111,0.063,0.223,0.089,0.336c0.028-0.002,0.053-0.004,0.081-0.008c0.478-0.079,0.943-0.207,1.413-0.33
	c0.512-0.134,1.027-0.259,1.537-0.405c0.788-0.223,1.571-0.478,2.353-0.723c0.779-0.243,1.561-0.472,2.337-0.719
	C13.764,25.002,14.495,24.757,15.234,24.534z M25.974,28.248c0.12,0.032,0.242,0.053,0.363,0.081
	c0.123-0.282,0.262-0.556,0.393-0.835c0.061-0.168,0.1-0.343,0.145-0.517c-1.149-0.323-2.267-0.738-3.4-1.11
	c-1.181-0.385-2.376-0.725-3.569-1.075c-0.135,0.045-0.271,0.088-0.406,0.134c-0.649,0.22-1.312,0.403-1.97,0.595
	c0.222,0.08,0.443,0.165,0.666,0.244c0.741,0.265,1.472,0.561,2.221,0.8c0.733,0.235,1.47,0.447,2.199,0.688
	c0.743,0.249,1.49,0.476,2.243,0.684C25.231,28.04,25.601,28.151,25.974,28.248z M6.576,18.514
	c-0.004-0.002-0.008-0.003-0.012-0.005c0.005,0.002,0.01,0.004,0.015,0.006C6.578,18.515,6.577,18.515,6.576,18.514z M6.583,18.517
	c-0.002-0.001-0.004-0.002-0.006-0.003l-0.002-0.001C6.577,18.515,6.58,18.516,6.583,18.517z"/>
</svg>