<?xml version="1.0" encoding="utf-8"?>
<!-- Generator: Adobe Illustrator 21.1.0, SVG Export Plug-In . SVG Version: 6.00 Build 0)  -->
<svg version="1.1" id="designs" xmlns="http://www.w3.org/2000/svg" xmlns:xlink="http://www.w3.org/1999/xlink" x="0px" y="0px"
	 width="32px" height="32px" viewBox="0 0 32 32" style="enable-background:new 0 0 32 32;" xml:space="preserve">
<style type="text/css">
	.sketchy_een{fill:#111918;}
</style>
<path class="sketchy_een" d="M31,8.291c0.004-0.304-0.18-0.565-0.434-0.704c-0.047-0.365-0.36-0.699-0.746-0.675
	c-0.692,0.041-1.389,0.027-2.083,0.035c-0.739,0.008-1.476,0.008-2.215,0.008c-1.572,0-3.143-0.057-4.715-0.061
	c-0.912-0.002-1.825-0.01-2.738-0.01c-0.198,0-0.395,0.005-0.593,0.005c-0.156-0.269-0.299-0.542-0.448-0.815
	c-0.184-0.343-0.38-0.678-0.568-1.019c-0.092-0.165-0.176-0.333-0.265-0.502c-0.082-0.159-0.151-0.325-0.241-0.48
	c-0.198-0.334-0.556-0.529-0.941-0.529c-0.008,0-0.015,0-0.023,0c-0.176,0.002-0.353,0.022-0.527,0.029
	c-0.433,0.022-0.872,0.016-1.299,0.09c-0.18,0.031-0.349,0.08-0.508,0.174c-0.231,0.137-0.349,0.353-0.443,0.594
	c-0.047,0.12-0.092,0.241-0.131,0.363c-0.1,0.31-0.153,0.629-0.257,0.937c-0.131,0.39-0.263,0.782-0.386,1.176
	c-0.002,0.007,0,0.014-0.002,0.021c-0.141,0.001-0.283-0.001-0.424,0.001c-0.433,0.006-0.794,0.357-0.794,0.794
	c0,0.016,0.008,0.029,0.009,0.045c-0.174,0.141-0.295,0.345-0.286,0.579c0.029,0.805,0.057,1.609,0.063,2.414
	c0.004,0.428-0.003,0.857-0.009,1.285c-0.297,0-0.596-0.002-0.893,0.008c-0.335,0.01-0.668,0.045-1.001,0.076
	C7.83,12.158,7.56,12.18,7.289,12.207c-0.172,0.018-0.345,0.041-0.513,0.067c-0.263,0.043-0.512,0.19-0.694,0.38
	c-0.253,0.268-0.455,0.59-0.653,0.9c-0.18,0.282-0.355,0.568-0.508,0.87c-0.266,0.528-0.49,1.096-0.826,1.587
	c-0.005,0.003-0.011,0.006-0.017,0.009c-0.22,0.077-0.448,0.135-0.671,0.195c-0.292,0.078-0.582,0.159-0.872,0.241
	c-0.263,0.073-0.517,0.139-0.768,0.247c-0.122,0.053-0.219,0.122-0.321,0.214c-0.251,0.225-0.319,0.533-0.353,0.851
	c-0.033,0.31-0.035,0.625-0.059,0.937c-0.025,0.335-0.031,0.668-0.025,1.003C1.02,20.369,1.02,21.036,1,21.7
	c-0.002,0.064,0.022,0.12,0.035,0.18c-0.001,0.011-0.007,0.021-0.007,0.032c-0.008,0.161-0.016,0.323-0.018,0.484
	c0,0.137,0.01,0.28,0.053,0.412c0.047,0.137,0.127,0.308,0.239,0.408c0.063,0.059,0.131,0.112,0.202,0.161
	c0.088,0.039,0.176,0.076,0.268,0.11c0.145,0.053,0.325,0.049,0.478,0.065c0.059,0.006,0.12,0.006,0.178,0.008
	c0.09,0.006,0.182,0.006,0.274,0.008c0.206,0.004,0.411,0.002,0.619,0.002c0.38,0.001,0.76,0.01,1.14,0.016
	c-0.324,0.383-0.47,0.862-0.557,1.348c-0.041,0.229-0.071,0.462-0.092,0.696c-0.025,0.286,0.039,0.574,0.161,0.835
	c0.122,0.265,0.312,0.527,0.545,0.707c0.388,0.3,0.78,0.559,1.241,0.733c0.866,0.323,1.87,0.28,2.681-0.167
	c0.378-0.208,0.717-0.523,0.917-0.907c0.298-0.57,0.261-1.264,0.033-1.854c-0.18-0.47-0.412-0.913-0.774-1.272
	c-0.021-0.021-0.046-0.038-0.067-0.059c0.778,0.005,1.556-0.006,2.334-0.011c1.715-0.014,3.431-0.02,5.148-0.025
	c1.676-0.004,3.355-0.01,5.033-0.004c0.772,0.004,1.544,0.047,2.316,0.094c0.432,0.027,0.864,0.03,1.296,0.041
	c-0.127,0.126-0.255,0.251-0.353,0.405c-0.106,0.165-0.172,0.355-0.245,0.533c-0.131,0.325-0.216,0.67-0.29,1.011
	c-0.065,0.294-0.07,0.58-0.012,0.876c0.039,0.192,0.116,0.366,0.198,0.543c0.086,0.19,0.239,0.355,0.374,0.511
	c0.08,0.09,0.171,0.17,0.259,0.253c0.212,0.196,0.451,0.349,0.723,0.447c0.192,0.069,0.384,0.098,0.586,0.122
	c0.382,0.047,0.751-0.012,1.119-0.116c0.261-0.073,0.508-0.167,0.753-0.276c0.376-0.169,0.68-0.494,0.923-0.817
	c0.323-0.425,0.582-0.898,0.696-1.425c0.033-0.151,0.061-0.308,0.073-0.461c0.02-0.253-0.029-0.496-0.123-0.731
	c-0.116-0.294-0.247-0.553-0.455-0.796c-0.007-0.008-0.016-0.011-0.023-0.019c0.337-0.001,0.673,0.006,1.01-0.004
	c0.403-0.012,0.729-0.303,0.793-0.693c0.111-0.137,0.188-0.303,0.187-0.489c-0.006-0.753,0.004-1.505,0.02-2.258
	c0.016-0.8,0.018-1.599,0.023-2.401c0.014-1.668,0.016-3.335,0.051-5.003c0.014-0.758-0.008-1.517-0.004-2.275
	C30.961,9.882,30.988,9.086,31,8.291z M13.467,5.196c0.001,0,0.001,0,0.002,0c-0.005,0.004-0.009,0.007-0.014,0.011
	C13.459,5.203,13.463,5.199,13.467,5.196z M13.465,5.923c0.067-0.255,0.114-0.511,0.184-0.762c0.226-0.022,0.452-0.036,0.679-0.041
	c0.127-0.003,0.255-0.011,0.383-0.013c0.077,0.15,0.143,0.308,0.213,0.456c0.125,0.259,0.251,0.519,0.38,0.776
	c0.094,0.187,0.181,0.378,0.269,0.568c-0.609,0.01-1.219,0.021-1.828,0.017c-0.191-0.001-0.382,0.002-0.572,0.001
	C13.273,6.592,13.375,6.259,13.465,5.923z M7.867,26.059c-0.011,0.02-0.023,0.039-0.035,0.058c-0.026,0.027-0.053,0.054-0.081,0.08
	c-0.09,0.062-0.183,0.118-0.28,0.168c-0.099,0.032-0.198,0.055-0.299,0.074c-0.153,0.011-0.304,0.01-0.457-0.001
	c-0.166-0.032-0.326-0.078-0.485-0.138c-0.206-0.1-0.4-0.221-0.586-0.354c-0.056-0.052-0.107-0.105-0.156-0.162
	c-0.011-0.017-0.021-0.035-0.031-0.053c-0.002-0.005-0.003-0.01-0.004-0.016c0-0.112,0.007-0.222,0.018-0.333
	c0.035-0.218,0.079-0.438,0.152-0.646c0.019-0.038,0.039-0.076,0.061-0.112C5.725,24.58,5.768,24.54,5.814,24.5
	c0.116-0.08,0.233-0.153,0.355-0.222c0.001,0,0.001,0,0.001,0C6.438,24.338,6.7,24.406,6.956,24.5
	c0.091,0.043,0.178,0.09,0.263,0.145c0.111,0.099,0.214,0.203,0.314,0.313c0.084,0.123,0.156,0.249,0.222,0.384
	c0.058,0.16,0.103,0.322,0.137,0.489c0.003,0.04,0.004,0.079,0.003,0.119C7.887,25.987,7.878,26.023,7.867,26.059z M22.969,22.081
	c-0.423-0.014-0.845-0.033-1.268-0.039c-0.233-0.004-0.466-0.002-0.698,0c-0.163,0.002-0.325,0.004-0.486,0.002
	c-0.978-0.006-1.956-0.004-2.934-0.004c-0.733,0-1.466,0.002-2.199-0.002c-0.833-0.002-1.668-0.002-2.501-0.006
	c-0.845-0.002-1.691-0.016-2.536,0.004c-1.317,0.029-2.636,0.027-3.953-0.01c-0.696-0.02-1.391-0.029-2.087-0.051
	c-0.52-0.016-1.043-0.019-1.562-0.055c0-0.002,0-0.005,0-0.007c0.002-0.049-0.019-0.092-0.026-0.139
	c0.002-0.025,0.015-0.047,0.014-0.073c-0.014-0.629-0.02-1.256-0.035-1.883c-0.015-0.558-0.005-1.112,0.048-1.666
	c0.607-0.201,1.249-0.298,1.863-0.474c0.286-0.082,0.512-0.212,0.739-0.402c0.17-0.141,0.288-0.378,0.392-0.574
	c0.202-0.369,0.367-0.748,0.528-1.134c0.245-0.562,0.555-1.106,0.916-1.603c0.001-0.001,0.002-0.002,0.003-0.003
	c0.148-0.007,0.295-0.008,0.442-0.012c0.372-0.012,0.731-0.053,1.099-0.104c-0.078,0.012-0.159,0.022-0.237,0.031
	c0.497-0.065,0.994-0.054,1.493-0.049c-0.006,1.304-0.012,2.608-0.02,3.912c-0.006,0.805-0.029,1.609-0.069,2.412
	c-0.022,0.429,0.374,0.788,0.788,0.788c0.431,0,0.786-0.359,0.788-0.788c0.002-0.723,0.01-1.446,0.012-2.171
	c0.004-0.756-0.01-1.513-0.01-2.271c-0.002-1.581-0.012-3.163,0.002-4.744c0.007-0.819,0.013-1.64-0.004-2.459
	c0.757-0.016,1.514-0.033,2.271-0.05c0.78-0.02,1.56-0.065,2.34-0.096c1.572-0.063,3.149-0.057,4.723-0.053
	c1.572,0.002,3.143,0.061,4.715,0.078c0.739,0.008,1.476,0.008,2.215,0.016c0.546,0.008,1.094,0.008,1.64,0.024
	c0.002,0.798,0.02,1.595,0.024,2.393c0.004,0.843-0.006,1.683-0.029,2.524c-0.051,1.656-0.08,3.31-0.076,4.966
	c0.003,1.288-0.006,2.577-0.018,3.865c-0.157,0.006-0.314,0.011-0.47,0.013c-0.368,0.002-0.739-0.002-1.107-0.006
	c-0.768-0.012-1.536-0.004-2.305-0.016c-0.396-0.006-0.792-0.037-1.188-0.053C23.796,22.097,23.382,22.093,22.969,22.081z
	 M27.58,25.47c-0.026,0.135-0.058,0.266-0.102,0.396c-0.082,0.172-0.175,0.337-0.281,0.494c-0.06,0.068-0.123,0.132-0.191,0.193
	c-0.056,0.035-0.113,0.068-0.172,0.098c-0.186,0.069-0.376,0.124-0.571,0.163c-0.078,0.003-0.155,0-0.232-0.006
	c-0.065-0.013-0.129-0.03-0.193-0.05c-0.003-0.002-0.007-0.004-0.01-0.006c-0.107-0.096-0.205-0.196-0.299-0.304
	c-0.03-0.045-0.057-0.09-0.083-0.137c-0.011-0.037-0.021-0.074-0.029-0.112c-0.001-0.022-0.001-0.044,0-0.066
	c0.062-0.317,0.155-0.63,0.273-0.932c0.034-0.067,0.069-0.131,0.109-0.195c0.009-0.009,0.018-0.018,0.028-0.027
	c0.095-0.067,0.191-0.128,0.293-0.182c0.113-0.033,0.227-0.054,0.345-0.077c0.052-0.01,0.101-0.025,0.147-0.045
	c0.012,0.004,0.024,0.008,0.037,0.012c0.09,0.027,0.178,0.056,0.265,0.087c0.163,0.079,0.321,0.163,0.471,0.262
	c0.023,0.021,0.045,0.043,0.067,0.065c0.049,0.078,0.092,0.158,0.133,0.24C27.585,25.384,27.583,25.427,27.58,25.47z M23.383,14.444
	c-0.014-0.082-0.025-0.169-0.049-0.249c-0.08-0.286-0.257-0.519-0.517-0.662c-0.339-0.184-0.756-0.196-1.135-0.219
	c-0.071-0.004-0.143-0.007-0.215-0.01c-0.037-0.398-0.075-0.796-0.238-1.165c-0.172-0.392-0.596-0.523-0.976-0.625
	c-0.286-0.076-0.59-0.11-0.886-0.131c-0.039-0.003-0.079-0.004-0.119-0.004c-0.185,0-0.381,0.029-0.551,0.079
	c-0.255,0.073-0.476,0.198-0.672,0.374c-0.216,0.194-0.304,0.504-0.345,0.78c-0.027,0.184-0.049,0.368-0.071,0.553
	c-0.009,0.083-0.018,0.165-0.023,0.246c-0.06-0.003-0.12-0.005-0.181-0.007c-0.27-0.01-0.529-0.018-0.798,0.024
	c-0.47,0.073-0.823,0.4-0.945,0.858c-0.075,0.288-0.063,0.606-0.051,0.901c0.012,0.268,0.027,0.535,0.078,0.802
	c0.027,0.139,0.073,0.251,0.129,0.384c0.112,0.259,0.341,0.414,0.596,0.513c0.161,0.063,0.343,0.069,0.515,0.084
	c0.121,0.01,0.245,0.014,0.366,0.02c0.062,0.003,0.124,0.004,0.186,0.005c0.02,0.326,0.03,0.652,0.159,0.961
	c0.084,0.2,0.159,0.359,0.319,0.513c0.249,0.241,0.559,0.3,0.892,0.337c0.286,0.033,0.574,0.041,0.862,0.049
	c0.229,0.006,0.462,0.025,0.694,0.014c0.106-0.006,0.214-0.022,0.319-0.043c0.118-0.023,0.337-0.133,0.417-0.233
	c0.092-0.118,0.19-0.227,0.221-0.38c0.022-0.11,0.035-0.219,0.039-0.329c0.009-0.217-0.008-0.434-0.018-0.651
	c0.347-0.022,0.697-0.017,1.045-0.023c0.114-0.002,0.247-0.008,0.357-0.035c0.186-0.049,0.316-0.133,0.459-0.259
	c0.219-0.19,0.292-0.537,0.292-0.809c0-0.259-0.026-0.517-0.047-0.774C23.473,15.034,23.434,14.736,23.383,14.444z M21.861,14.659
	c0,0.001,0,0.002,0.001,0.003c-0.003-0.004-0.006-0.008-0.009-0.012C21.855,14.653,21.858,14.656,21.861,14.659z M19.153,12.789
	c0.005-0.006,0.01-0.012,0.015-0.018C19.162,12.777,19.158,12.783,19.153,12.789L19.153,12.789z M21.384,16.874L21.384,16.874
	c0.001-0.002,0.001-0.004,0.002-0.006C21.385,16.87,21.384,16.872,21.384,16.874z M21.639,15.691
	c-0.174,0.01-0.349,0.018-0.523,0.031c-0.263,0.022-0.537,0.041-0.774,0.169c-0.325,0.176-0.533,0.541-0.504,0.911
	c0.01,0.121,0.025,0.243,0.041,0.363c0.009,0.074,0.016,0.149,0.022,0.223c-0.247-0.004-0.496-0.024-0.738-0.05
	c-0.042-0.007-0.084-0.014-0.126-0.022c-0.015-0.054-0.028-0.108-0.038-0.164c-0.044-0.456-0.05-1.003-0.409-1.326
	c-0.245-0.219-0.547-0.278-0.864-0.286c-0.177-0.003-0.353-0.01-0.529-0.027c-0.017-0.172-0.028-0.346-0.027-0.519
	c0.079,0.004,0.157,0.011,0.236,0.017c0.265,0.022,0.529,0.041,0.794,0.059c0.435,0.027,0.799-0.375,0.815-0.787
	c0.09-0.167,0.12-0.366,0.067-0.56c-0.005-0.017-0.01-0.034-0.015-0.051c-0.008-0.21,0.009-0.416,0.033-0.624
	c0.009-0.057,0.019-0.114,0.032-0.171c0.018-0.004,0.037-0.008,0.056-0.012c0.137-0.009,0.273-0.007,0.411,0.005
	c0.108,0.021,0.213,0.051,0.317,0.088c0.015,0.061,0.027,0.123,0.038,0.186c0.05,0.56-0.021,1.253,0.538,1.566
	c0.257,0.145,0.543,0.112,0.823,0.108c0.175-0.002,0.349,0.007,0.523,0.024c0.024,0.004,0.047,0.007,0.071,0.011
	c0.013,0.063,0.023,0.127,0.033,0.19c0.019,0.17,0.03,0.341,0.04,0.512c0.003,0.04,0.005,0.08,0.008,0.121
	C21.871,15.679,21.755,15.684,21.639,15.691z"/>
</svg>