<?xml version="1.0" encoding="utf-8"?>
<!-- Generator: Adobe Illustrator 21.1.0, SVG Export Plug-In . SVG Version: 6.00 Build 0)  -->
<svg version="1.1" id="designs" xmlns="http://www.w3.org/2000/svg" xmlns:xlink="http://www.w3.org/1999/xlink" x="0px" y="0px"
	 width="32px" height="32px" viewBox="0 0 32 32" style="enable-background:new 0 0 32 32;" xml:space="preserve">
<style type="text/css">
	.sketchy_een{fill:#111918;}
</style>
<path class="sketchy_een" d="M20.64,28.018c-0.345,0-0.697-0.025-1.046-0.076c-0.241-0.033-0.466-0.064-0.678-0.125
	c-0.382-0.111-0.733-0.283-0.996-0.421c-0.186-0.099-0.369-0.214-0.541-0.334c-0.329-0.234-0.623-0.45-0.874-0.716
	c-0.348-0.37-0.807-0.958-1.015-1.658c-0.066-0.219-0.099-0.458-0.132-0.694l-1.23-0.07l-1.459-0.002
	c-0.109,0.208-0.178,0.378-0.251,0.546c-0.173,0.397-0.419,0.782-0.776,1.213c-0.286,0.348-0.607,0.714-1.022,1.035
	c-0.463,0.355-0.877,0.593-1.303,0.749c-0.435,0.158-0.847,0.263-1.26,0.318c-0.353,0.049-0.693,0.074-1.011,0.074
	c-0.658,0-1.256-0.107-1.777-0.316c-0.395-0.162-0.844-0.346-1.215-0.617c-0.436-0.319-0.777-0.635-1.075-0.995
	c-0.432-0.518-0.751-1.117-0.923-1.732c-0.161-0.571-0.233-1.031-0.228-1.445c0.01-0.883,0.183-1.596,0.514-2.121
	c0.123-0.192,0.25-0.383,0.386-0.57c0.137-0.192,0.28-0.385,0.445-0.555c-0.151-0.224-0.235-0.425-0.236-0.635
	c-0.002-0.547-0.022-1.091-0.042-1.634l-0.052-1.722c-0.017-0.57-0.033-1.14-0.036-1.711c-0.002-0.518,0.005-3.286,0.005-3.286
	c0.003-0.6,0.006-1.2,0-1.798c-0.01-0.967-0.02-1.934-0.022-2.901c-0.424-0.084-0.801-0.13-1.175-0.188
	c-0.208-0.031-0.405-0.222-0.5-0.387C1.001,5.046,0.97,4.809,1.03,4.595c0.057-0.21,0.199-0.394,0.388-0.507
	C1.542,4.017,1.67,3.982,1.821,3.982c0.081,0,0.164,0.01,0.251,0.024l0.548,0.083l0.179,0.022c0.594,0.071,1.169,0.08,1.704,0.08
	l0.92-0.004C5.85,4.188,6.277,4.195,6.704,4.202c0.428,0.006,0.855,0.013,1.283,0.014l0.264,0.001c0.775,0,1.548-0.008,2.321-0.022
	c0.214-0.003,0.426-0.021,0.638-0.038c0.148-0.012,0.297-0.024,0.446-0.031c0.334-0.014,0.664-0.03,0.999-0.063
	c0.002,0,0.004,0,0.006,0c0.249,0,0.464,0.125,0.586,0.25c0.085,0.084,0.15,0.196,0.197,0.342c0.24,0.195,0.361,0.429,0.35,0.666
	c-0.086,1.604-0.13,3.187-0.132,4.706c0,0-0.004,2.523-0.001,3.198c1.443,0.134,2.834,0.192,4.181,0.22l-0.089-0.267l-0.375-0.526
	c-0.181-0.251-0.363-0.501-0.527-0.763c-0.435-0.692-0.924-1.424-1.497-2.237l-0.067-0.076c-0.145-0.145-0.228-0.346-0.228-0.55
	c0-0.197,0.069-0.362,0.23-0.553l0.436-0.514c0.42-0.499,0.841-0.998,1.29-1.471C17.1,6.4,17.184,6.308,17.268,6.214
	c0.174-0.195,0.35-0.391,0.55-0.557c0.329-0.274,0.637-0.403,0.97-0.403c0.236,0.01,0.417,0.039,0.599,0.068l0.099,0.016
	c0.586,0.075,1.178,0.145,1.767,0.19c0.411,0.031,0.773,0.058,1.112,0.228c0.256,0.128,0.495,0.328,0.712,0.596
	c0.161,0.199,0.325,0.396,0.489,0.592c0.211,0.252,0.42,0.504,0.625,0.762c0.2,0.253,0.429,0.549,0.617,0.864
	c0.159,0.27,0.303,0.571,0.441,0.918c0.076,0.191,0.016,0.461-0.083,0.63c-0.1,0.167-0.261,0.294-0.455,0.359l-0.173,0.397
	c-0.162,0.418-0.323,0.836-0.49,1.251c-0.15,0.369-0.299,0.739-0.453,1.103l-0.163,0.377l0.394,0.091l0.36,0.022
	c0.484,0.03,0.836,0.381,0.836,0.833l-0.032,0.15l0.184,0.247c0.093,0.109,0.186,0.218,0.276,0.329
	c0.567,0.709,1.05,1.48,1.519,2.224l0.549,0.867c0.258,0.403,0.514,0.805,0.764,1.213c0.404,0.654,0.861,1.395,1.273,2.154
	c0.215,0.391,0.431,0.779,0.658,1.162l0.119,0.202c0.179,0.305,0.359,0.609,0.56,0.9c0.101,0.145,0.132,0.329,0.091,0.521
	c-0.049,0.22-0.186,0.416-0.367,0.523l-0.133,0.05c-0.155,0.166-0.359,0.257-0.574,0.257c-0.247-0.001-0.494-0.012-0.741-0.022
	l-1.651-0.054c-0.638-0.02-1.276-0.045-1.914-0.073c-0.298,0.541-0.556,0.922-0.858,1.227c-0.558,0.559-1.29,0.995-2.116,1.255
	c-0.42,0.132-0.922,0.273-1.457,0.314C20.993,28.011,20.817,28.018,20.64,28.018z M17.16,24.077
	c0.022,0.104,0.054,0.209,0.098,0.298c0.087,0.176,0.194,0.345,0.309,0.503c0.161,0.185,0.326,0.351,0.509,0.507
	c0.395,0.283,0.711,0.476,1.029,0.631c0.304,0.11,0.607,0.167,0.837,0.205c0.209,0.019,0.413,0.027,0.616,0.027
	c0.179,0,0.36-0.007,0.541-0.021c0.38-0.068,0.765-0.175,1.217-0.341c0.324-0.152,0.607-0.315,0.868-0.5
	c0.145-0.126,0.272-0.258,0.395-0.401c0.188-0.267,0.357-0.571,0.519-0.935c0.131-0.362,0.23-0.743,0.306-1.17
	c0.032-0.308,0.038-0.594,0.017-0.879c-0.063-0.362-0.15-0.686-0.266-0.996c-0.106-0.225-0.22-0.437-0.356-0.641
	c-0.137-0.165-0.281-0.314-0.438-0.451c-0.308-0.218-0.616-0.396-0.947-0.548c-0.189-0.074-0.375-0.148-0.558-0.225
	c-0.062,0.002-0.098,0.005-0.133,0.005l-0.359-0.021c-0.308-0.019-0.618-0.038-0.927-0.038c-0.145,0-0.29,0.004-0.434,0.015
	c-0.262,0.044-0.516,0.111-0.763,0.199c-0.165,0.079-0.315,0.17-0.46,0.271c-0.233,0.2-0.46,0.435-0.716,0.743
	c-0.267,0.369-0.493,0.766-0.696,1.216c-0.068,0.181-0.121,0.361-0.17,0.543l0.562,0.058l0.513-0.005
	c0.425-0.006,0.85-0.019,1.275-0.036l0.229-0.012c0.175-0.009,0.353-0.019,0.529-0.019c0.107,0,0.212,0.004,0.316,0.012
	c0.292,0.025,0.487,0.105,0.652,0.267c0.17,0.17,0.267,0.406,0.267,0.648c0,0.478-0.413,0.913-0.865,0.913
	c-0.151-0.008-0.256-0.01-0.361-0.01c-0.148,0-0.77,0.018-0.77,0.018l-1.24,0.012c-0.154,0.001-0.308,0-0.462,0
	c-0.223,0-0.479-0.015-0.709-0.015C17.141,23.956,17.149,24.023,17.16,24.077z M7.144,19.719c-0.235,0-0.47,0.008-0.705,0.029
	c-0.283,0.055-0.547,0.131-0.813,0.227c-0.339,0.157-0.651,0.337-0.959,0.551c-0.157,0.134-0.294,0.277-0.424,0.432
	c-0.159,0.217-0.338,0.46-0.471,0.721c-0.077,0.219-0.131,0.441-0.171,0.664c-0.021,0.278-0.011,0.55,0.011,0.821
	c0.057,0.316,0.137,0.612,0.245,0.911c0.106,0.225,0.221,0.437,0.361,0.637c0.233,0.281,0.439,0.498,0.653,0.684
	c0.254,0.178,0.521,0.334,0.82,0.479c0.328,0.127,0.644,0.216,0.97,0.272c0.142,0.012,0.277,0.016,0.413,0.016
	c0.241,0,0.48-0.015,0.72-0.041c0.409-0.077,0.772-0.177,1.114-0.308c0.255-0.125,0.501-0.274,0.756-0.459
	c0.261-0.229,0.508-0.495,0.803-0.864c0.089-0.123,0.158-0.253,0.228-0.383l0.064-0.118c-1.197-0.076-2.349-0.084-3.502-0.121
	c-0.494-0.017-0.882-0.404-0.882-0.881c0-0.469,0.397-0.881,0.849-0.881l0.27,0.01c0.841,0.031,1.682,0.064,2.523,0.064l1.08-0.005
	l-0.026-0.113c-0.031-0.135-0.062-0.27-0.108-0.402c-0.14-0.294-0.32-0.585-0.569-0.92c-0.254-0.303-0.551-0.588-0.966-0.925
	c-0.099,0.003-0.155,0.009-0.208,0.009c-0.261-0.013-0.479-0.028-0.697-0.044C8.063,19.752,7.603,19.719,7.144,19.719z
	 M22.242,17.582c0.073,0,0.148,0.01,0.221,0.029c0.127,0.054,0.263,0.104,0.398,0.154c0.236,0.087,0.473,0.174,0.699,0.29
	c0.267,0.137,0.525,0.285,0.773,0.456c0.526,0.36,0.963,0.873,1.297,1.527c0.49,0.958,0.698,2.003,0.586,2.941
	c-0.022,0.188-0.053,0.38-0.085,0.57l0.409,0.077c0.346,0.018,0.692,0.036,1.041,0.043l1.277,0.017l-0.001-0.075
	c-0.184-0.321-0.365-0.647-0.546-0.971c-0.368-0.664-0.763-1.313-1.16-1.965c0,0-0.467-0.759-0.669-1.082
	c-0.217-0.346-0.434-0.693-0.646-1.044c-0.37-0.606-0.776-1.251-1.229-1.864c-0.372-0.464-0.754-0.916-1.154-1.354
	c-1.488-0.177-3.032-0.273-5.036-0.327c-0.474-0.013-0.949-0.03-1.425-0.048l-1.189-0.04c-0.774-0.025-1.546-0.058-2.317-0.096
	c-0.198,0.187-0.415,0.286-0.632,0.286c-0.44,0-0.804-0.365-0.813-0.814l0-0.212l-0.009-0.103c0.002-0.841,0.018-3.952,0.018-3.952
	c0-1.253,0.004-2.709,0.053-4.141l0.002-0.062l-0.12,0.019c-0.29,0.02-0.511,0.024-0.732,0.024c-0.308,0-0.616-0.008-0.923-0.016
	L9.701,5.838H7.823c-0.239,0-0.478-0.002-0.716-0.006C6.23,5.821,5.353,5.821,4.476,5.821C4.416,6.55,4.41,7.229,4.403,7.908
	L4.395,8.88c-0.004,0.532-0.001,1.065,0.001,1.597l0.003,1.569c0,0.656,0.001,1.309,0.014,1.966l0.012,0.59
	c0.013,0.632,0.026,1.264,0.048,1.897l0.068,2.029l0.137-0.068c0.137-0.068,0.275-0.136,0.418-0.188
	c0.485-0.177,0.973-0.279,1.492-0.311c0.165-0.01,0.331-0.015,0.496-0.015c0.456,0,0.914,0.032,1.37,0.065l0.255,0.018
	c0.08-0.035,0.138-0.059,0.198-0.075c0.066-0.018,0.128-0.026,0.193-0.026c0.127,0,0.254,0.033,0.424,0.11
	c0.632,0.286,1.17,0.741,1.667,1.182c0.177,0.158,0.327,0.342,0.475,0.524c0.277,0.343,0.461,0.605,0.618,0.868
	c0.248,0.423,0.413,0.919,0.502,1.516l2.59,0.028c0.139-0.461,0.241-0.802,0.37-1.112c0.234-0.562,0.467-1,0.733-1.38
	c0.344-0.492,0.716-0.909,1.105-1.241c0.659-0.561,1.573-0.912,2.508-0.961c0.129-0.007,0.259-0.009,0.387-0.009
	c0.328,0,0.657,0.018,0.985,0.034l0.219,0.011c0.13,0.007,0.255,0.039,0.371,0.097C22.137,17.587,22.19,17.582,22.242,17.582z
	 M18.832,6.811c-0.165,0.142-0.307,0.293-0.448,0.443l-0.108,0.115c-0.211,0.219-0.416,0.44-0.615,0.671
	c-0.236,0.272-0.464,0.552-0.692,0.831l-0.15,0.184c0.314,0.524,0.621,0.995,0.928,1.466l0.287,0.439
	c0.211,0.322,0.432,0.635,0.663,0.946l0.572,0.791c0.082,0.101,0.167,0.196,0.253,0.291c0.116,0.123,0.187,0.286,0.207,0.471
	l0.236,0.05c0.565,0.016,1.131,0.031,1.694,0.061c0.095-0.166,0.157-0.268,0.24-0.348c0.073-0.123,0.124-0.245,0.174-0.365
	c0.354-0.862,0.656-1.671,0.958-2.479l0.04-0.108l-0.208-0.099c-0.895-0.103-1.782-0.112-2.616-0.112l-1.427-0.002
	c-0.385-0.006-0.699-0.318-0.699-0.697c0-0.377,0.313-0.697,0.682-0.697c0,0,1.754,0.034,2.424,0.05
	c0.333,0.008,0.668,0.025,1.003,0.043l0.76,0.043l-0.075-0.115L22.122,7.66c0,0-0.096-0.122-0.128-0.161l0.001-0.005l-0.003,0.002
	c-0.073-0.086-0.14-0.162-0.213-0.232c-0.05-0.033-0.094-0.06-0.137-0.082c-0.103-0.033-0.199-0.052-0.298-0.069l-1.336-0.179
	c-0.303-0.035-0.604-0.073-0.903-0.114c-0.072-0.009-0.14-0.017-0.209-0.021l-0.008-0.009l-0.001,0.009
	c-0.007-0.001-0.032-0.002-0.032-0.002L18.832,6.811z M8.9,13.885c-0.137,0-0.274-0.006-0.411-0.013
	c-0.152-0.009-0.303-0.016-0.455-0.016L7.53,13.867c-0.062,0-0.124-0.001-0.187-0.005c-0.354-0.024-0.72-0.049-1.023-0.238
	c-0.278-0.176-0.46-0.468-0.512-0.821c-0.061-0.438-0.09-0.88-0.109-1.322c-0.041-0.865-0.044-1.732-0.047-2.598L5.651,8.564
	c0-0.277,0.153-0.539,0.399-0.683c0.047-0.219,0.131-0.393,0.262-0.524C6.457,7.212,6.627,7.141,6.9,7.114
	c0.096-0.009,0.192-0.013,0.288-0.013c0.189,0,0.379,0.014,0.567,0.027c0.126,0.01,0.504,0.028,0.504,0.028
	c0.138,0.006,0.276,0.011,0.413,0.024c0.395,0.031,0.702,0.055,0.956,0.2c0.609,0.341,0.636,1.073,0.658,1.661l0.044,1.096
	c0.016,0.43,0.026,0.863,0.022,1.296c-0.006,0.479-0.021,0.987-0.133,1.452c-0.099,0.421-0.26,0.685-0.506,0.829
	c-0.191,0.109-0.392,0.16-0.653,0.167L8.9,13.885z M7.357,12.254l0.76-0.01l0.52,0.008c0.104-0.592,0.111-1.197,0.071-1.896
	L8.616,8.835C8.4,8.776,8.23,8.771,8.06,8.766L7.788,8.755C7.632,8.748,7.477,8.741,7.321,8.741H7.277L7.223,9.187
	c-0.005,0.498-0.011,0.996,0.008,1.493c0.017,0.502,0.057,1.001,0.121,1.527l0.099-0.003L7.352,12.21L7.357,12.254z M22.041,7.676
	l0.047-0.028l-0.033,0.03L22.041,7.676z M22.032,7.675L22.032,7.675L22.032,7.675z"/>
</svg>