<?xml version="1.0" encoding="utf-8"?>
<!-- Generator: Adobe Illustrator 21.1.0, SVG Export Plug-In . SVG Version: 6.00 Build 0)  -->
<svg version="1.1" id="designs" xmlns="http://www.w3.org/2000/svg" xmlns:xlink="http://www.w3.org/1999/xlink" x="0px" y="0px"
	 width="32px" height="32px" viewBox="0 0 32 32" style="enable-background:new 0 0 32 32;" xml:space="preserve">
<style type="text/css">
	.sketchy_een{fill:#111918;}
</style>
<path class="sketchy_een" d="M29.554,21.519c-0.13-0.257-0.385-0.458-0.682-0.433c-0.271,0.021-0.544,0.018-0.817,0.012
	c-0.008-0.027-0.017-0.054-0.027-0.08c-0.068-0.84-0.007-1.688-0.048-2.528c-0.024-0.531-0.022-1.064-0.041-1.596
	c-0.025-0.739-0.041-1.478-0.049-2.219c-0.001-0.042-0.019-0.079-0.025-0.119c0.359,0.008,0.719,0.014,1.078,0.031
	c0.114,0.006,0.223-0.02,0.322-0.065c0.399-0.019,0.739-0.354,0.736-0.762c-0.004-0.257-0.039-0.514-0.047-0.771
	c-0.01-0.296-0.018-0.592-0.026-0.888c-0.02-0.629-0.029-1.26-0.043-1.892c-0.031-1.457-0.006-2.913,0.023-4.37
	c0.006-0.368,0.016-0.735,0.02-1.104c0.006-0.421-0.352-0.771-0.767-0.782c-0.132-0.131-0.314-0.213-0.511-0.217
	c-0.602-0.012-1.204,0.008-1.803,0.008c-0.719,0-1.441,0-2.162-0.006c-0.745-0.006-1.49-0.012-2.235-0.014
	c-0.774-0.004-1.541-0.061-2.313-0.096c-0.425-0.018-0.853-0.016-1.278-0.018c-0.419,0-0.839-0.016-1.26-0.014
	c-0.304,0.002-0.606,0.002-0.908,0c-0.199,0-0.397-0.001-0.596-0.001c-0.489,0-0.978,0.003-1.466,0.019
	C14.51,3.622,14.401,3.652,14.3,3.698c-0.342,0.082-0.63,0.382-0.614,0.749c0.004,0.088,0.012,0.176,0.016,0.265
	c-0.058,0.003-0.116,0.006-0.178,0.016c-0.274,0.044-0.548,0.094-0.823,0.137c-0.173,0.013-0.349-0.001-0.52,0.022
	c-0.253,0.033-0.216,0.016-0.445,0.118c-0.151,0.069-0.223,0.182-0.318,0.308c-0.1,0.131-0.133,0.308-0.161,0.469
	c-0.016,0.104-0.021,0.211-0.031,0.316C10.745,6.121,10.26,6.136,9.78,6.174C9.666,6.184,9.552,6.2,9.438,6.216
	C9.229,6.241,9.064,6.267,8.882,6.39C8.792,6.45,8.708,6.519,8.624,6.585c-0.228,0.172-0.46,0.338-0.677,0.526
	c-0.21,0.185-0.41,0.381-0.626,0.556C7.039,7.882,6.761,8.097,6.5,8.341C6.308,8.519,6.106,8.682,5.908,8.852
	C5.861,8.893,5.836,8.948,5.804,8.999C5.724,8.992,5.643,8.983,5.562,8.979c-0.229-0.012-0.459-0.006-0.69-0.018
	c-0.69-0.03-1.378-0.084-2.07-0.108c-0.008,0-0.017,0-0.025,0C2.351,8.853,2,9.238,2,9.655c0,0.447,0.365,0.792,0.802,0.804
	c0.555,0.014,1.11,0.028,1.664,0.031c0.382,0.002,0.77,0.02,1.151,0.064c-0.069-0.008-0.139-0.018-0.21-0.027
	c0.242,0.033,0.477,0.05,0.716,0.063c0.158,0.103,0.318,0.203,0.467,0.317c0.151,0.116,0.316,0.212,0.467,0.327l-0.001-0.001
	c0.072,0.056,0.147,0.111,0.225,0.16c0.106,0.067,0.218,0.127,0.323,0.196c0.13,0.083,0.256,0.173,0.381,0.265
	c0.041,0.034,0.082,0.068,0.123,0.102c0.106,0.091,0.221,0.148,0.346,0.185c0.153,0.194,0.378,0.327,0.64,0.329
	c0.404,0.002,0.81,0.004,1.213,0.012c0.278,0.003,0.558,0.001,0.835,0.022c0.01,0.003,0.019,0.006,0.029,0.009
	c0.063,0.018,0.126,0.011,0.189,0.013c0.019,0.041,0.029,0.086,0.048,0.124c0.114,0.231,0.347,0.366,0.576,0.453
	c0.192,0.074,0.412,0.074,0.616,0.086c0.145,0.006,0.29,0.012,0.433,0.016c0.304,0.005,0.611,0.015,0.915-0.005
	c0,0.022,0.002,0.045,0.001,0.067c0,0.104-0.002,0.206,0,0.31c0.005,0.353,0.242,0.647,0.565,0.749
	c0.146,0.147,0.348,0.24,0.567,0.242c0.784,0.011,1.566-0.054,2.348-0.091c0.112,0.432,0.236,0.858,0.344,1.29
	c0.069,0.267,0.116,0.537,0.196,0.802c0.031,0.1,0.065,0.2,0.104,0.298c0.08,0.206,0.122,0.294,0.263,0.465
	c0.122,0.145,0.3,0.226,0.474,0.284c0.157,0.053,0.335,0.059,0.498,0.072c0.113,0.01,0.227,0.016,0.341,0.029
	c0.143,0.021,0.286,0.041,0.43,0.05c0.087,0.005,0.17-0.006,0.254-0.012c-0.005,0.178-0.016,0.354-0.02,0.533
	c-0.014,0.5-0.043,1.002-0.059,1.501c-0.014,0.405-0.019,0.808-0.029,1.212c-0.524-0.013-1.049-0.042-1.575-0.056
	c-0.007,0-0.013,0-0.02,0c-0.225,0-0.426,0.107-0.57,0.267c-0.283,0.134-0.505,0.413-0.479,0.736c0.043,0.545,0.09,1.09,0.122,1.637
	c0.025,0.427,0.039,0.855,0.061,1.282c0.024,0.427,0.037,0.855,0.075,1.282c0.025,0.306,0.063,0.61,0.078,0.916
	c0.008,0.168,0.073,0.318,0.163,0.447c0.04,0.398,0.368,0.702,0.771,0.711c0.837,0.022,1.67,0.018,2.507-0.014
	c0.719-0.029,1.441-0.039,2.16-0.037c0.376,0.002,0.753,0.002,1.129,0.004c0.335,0.004,0.67,0.029,1.008,0.045
	c0.676,0.033,1.357,0.008,2.031,0.067c0.267,0.021,0.535,0.047,0.8,0.082c-0.071-0.01-0.143-0.02-0.214-0.03
	c0.235,0.033,0.461,0.055,0.698,0.061c0.437,0.012,0.802-0.372,0.802-0.802c0-0.016-0.008-0.028-0.009-0.044
	c0.094-0.132,0.161-0.282,0.148-0.451c-0.051-0.649-0.043-1.298-0.047-1.949c-0.002-0.443-0.01-0.884-0.004-1.327
	c0.008-0.547,0.039-1.094,0.053-1.641C29.92,21.911,29.768,21.674,29.554,21.519z M9.532,7.761L9.532,7.761
	C9.529,7.763,9.525,7.765,9.521,7.766C9.524,7.765,9.528,7.763,9.532,7.761z M10.441,10.865c-0.436-0.023-0.872-0.038-1.308-0.048
	c-0.282-0.23-0.583-0.441-0.899-0.622c-0.267-0.151-0.538-0.316-0.785-0.499C7.4,9.66,7.349,9.626,7.3,9.588
	c0.029-0.024,0.059-0.047,0.086-0.072c0.16-0.139,0.312-0.287,0.476-0.422c0.255-0.183,0.513-0.362,0.753-0.568
	c0.202-0.173,0.392-0.355,0.602-0.52c0.117-0.089,0.237-0.174,0.364-0.249c0.524-0.037,1.05-0.032,1.574-0.05
	c-0.007,0.376-0.026,0.751-0.039,1.129c-0.026,0.696-0.009,1.385,0.042,2.079C10.918,10.893,10.678,10.878,10.441,10.865z
	 M21.933,16.606c0.033-0.606,0.08-1.206,0.086-1.813c0-0.112-0.024-0.219-0.068-0.318c0.179,0,0.357,0.006,0.536,0.006
	c0.796,0,1.592-0.002,2.388,0c0.448,0.001,0.897,0.019,1.346,0.032c-0.011,0.055-0.033,0.105-0.032,0.163
	c0.022,0.753,0.11,1.502,0.131,2.254c0.016,0.547,0.008,1.096,0.037,1.643c0.022,0.41,0.037,0.815,0.037,1.225
	c-0.002,0.282,0.004,0.561,0.02,0.841c0.006,0.139,0.014,0.278,0.018,0.416c0,0.003,0,0.007,0,0.01
	c-0.148-0.003-0.296-0.007-0.443-0.008c-0.351-0.002-0.7-0.002-1.051-0.014c-0.692-0.024-1.382-0.049-2.074-0.053
	c-0.332-0.003-0.664,0.005-0.997,0.01c-0.012-0.89,0.065-1.779,0.054-2.669C21.913,17.757,21.903,17.18,21.933,16.606z
	 M13.211,11.642c-0.143-0.001-0.286-0.004-0.429-0.012c-0.02-0.248-0.032-0.497-0.054-0.743c-0.043-0.494-0.069-0.99-0.071-1.484
	c-0.002-0.518,0.033-1.033,0.043-1.551c0.008-0.445,0.018-0.893,0.058-1.338c0.351-0.028,0.699-0.079,1.047-0.129
	c0.013,0.177,0.019,0.355,0.033,0.531c0.061,0.737,0.084,1.468,0.073,2.207c-0.014,0.753-0.012,1.504,0.002,2.254
	c0.002,0.088,0.003,0.175,0.005,0.263C13.683,11.646,13.446,11.645,13.211,11.642z M15.522,12.97
	c-0.002-0.029-0.001-0.059-0.003-0.088c-0.02-0.335-0.031-0.672-0.045-1.008c-0.031-0.764-0.045-1.525-0.049-2.288
	c-0.004-0.712,0-1.431-0.061-2.141c-0.064-0.752-0.068-1.501-0.09-2.255c0.558-0.026,1.117-0.057,1.675-0.062
	c0.635-0.006,1.272-0.014,1.907-0.016c0.308,0,0.616,0,0.923-0.006c0.372-0.008,0.745,0.018,1.115,0.039
	c0.759,0.043,1.519,0.037,2.278,0.033c0.98-0.006,1.958-0.012,2.939-0.016c0.749-0.004,1.5-0.012,2.249,0.02
	c0.005,0.663,0.019,1.326,0.026,1.989c0.006,0.725,0.004,1.451,0.01,2.174c0.006,0.678,0.026,1.354,0.024,2.033
	c-0.002,0.53,0.005,1.063,0.025,1.595c-1.275,0.012-2.548-0.029-3.821-0.029c-1.613,0-3.227,0-4.84-0.035
	c-0.115-0.003-0.231-0.004-0.346-0.004c-0.635,0-1.269,0.036-1.903,0.051C16.864,12.974,16.193,12.98,15.522,12.97z M20.063,16.187
	c0.006,0,0.013,0.001,0.019,0.002c0.023,0.003,0.047,0.007,0.07,0.01C20.122,16.194,20.093,16.19,20.063,16.187z M19.994,16.176
	c-0.149-0.021-0.299-0.043-0.448-0.063l0,0c0.01,0.001,0.02,0.002,0.03,0.003c-0.01-0.001-0.02-0.003-0.03-0.004
	c-0.17-0.541-0.286-1.099-0.41-1.653c0.291,0.001,0.581-0.014,0.872-0.004c0.156,0.006,0.311,0.001,0.467,0.005
	c-0.048,0.103-0.079,0.214-0.078,0.333c0.005,0.462,0.011,0.922-0.005,1.383c-0.026,0.001-0.052,0.001-0.078,0.001
	C20.207,16.18,20.101,16.183,19.994,16.176z M27.654,26.738c-0.676-0.008-1.353-0.006-2.027-0.021
	c-0.714-0.018-1.423-0.018-2.135-0.016c-0.725,0.002-1.451,0.002-2.174,0.02c-0.618,0.018-1.239-0.015-1.858-0.045
	c-0.014-0.166-0.026-0.331-0.046-0.496c-0.053-0.424-0.051-0.849-0.082-1.272c-0.031-0.425-0.053-0.854-0.065-1.28
	c-0.011-0.357-0.015-0.713-0.023-1.07c0.201-0.002,0.402-0.001,0.602-0.005c0.369-0.008,0.739-0.016,1.11-0.014
	c0.731,0.006,1.462,0,2.192,0.006c1.404,0.014,2.805,0.114,4.209,0.106c0.293-0.001,0.584-0.004,0.876-0.007
	c0.002,0.395,0.006,0.789,0.01,1.184c0.006,0.443-0.002,0.884-0.004,1.327c-0.003,0.538,0.006,1.074,0.016,1.61
	C28.055,26.755,27.856,26.741,27.654,26.738z M24.589,11.061c0-0.222,0.088-0.437,0.245-0.594c0.143-0.143,0.386-0.271,0.596-0.247
	c0.123,0.014,0.243,0.034,0.364,0.054c0.009,0.001,0.019,0.001,0.028,0.002c0-0.021,0-0.043,0-0.064c0.004-0.267,0.01-0.535,0-0.8
	c-0.024-0.749-0.049-1.496-0.051-2.245c-0.004-0.449,0.376-0.823,0.823-0.823s0.825,0.375,0.823,0.823
	c-0.002,0.627-0.039,1.259-0.01,1.886c0.018,0.408,0.037,0.814,0.045,1.223c0.004,0.184,0.014,0.368,0.033,0.551
	c0.031,0.288-0.076,0.567-0.278,0.771c-0.212,0.216-0.49,0.265-0.776,0.3c-0.335,0.041-0.667,0.02-1.002,0.004
	C24.972,11.881,24.589,11.536,24.589,11.061z"/>
</svg>