<?xml version="1.0" encoding="utf-8"?>
<!-- Generator: Adobe Illustrator 21.1.0, SVG Export Plug-In . SVG Version: 6.00 Build 0)  -->
<svg version="1.1" id="designs" xmlns="http://www.w3.org/2000/svg" xmlns:xlink="http://www.w3.org/1999/xlink" x="0px" y="0px"
	 width="32px" height="32px" viewBox="0 0 32 32" style="enable-background:new 0 0 32 32;" xml:space="preserve">
<style type="text/css">
	.sketchy_een{fill:#111918;}
</style>
<path class="sketchy_een" d="M27.69,16.938c-0.149-0.756-0.462-1.469-0.762-2.175c-0.141-0.332-0.31-0.651-0.474-0.971
	c-0.159-0.308-0.312-0.621-0.476-0.927c-0.352-0.649-0.74-1.285-1.228-1.839c-0.441-0.501-0.957-0.934-1.482-1.345
	c-0.06-0.047-0.12-0.093-0.179-0.139c0.006,0.005,0.013,0.01,0.019,0.014c-0.428-0.332-0.842-0.7-1.315-0.971
	c-0.322-0.185-0.647-0.368-1.001-0.484c-0.143-0.046-0.281-0.099-0.422-0.151c-0.149-0.056-0.31-0.091-0.46-0.143
	c-0.161-0.054-0.324-0.099-0.486-0.143c-0.087-0.023-0.177-0.046-0.267-0.068c0.04-0.1,0.078-0.202,0.081-0.316
	c0.002-0.069-0.006-0.137-0.016-0.205c-0.012-0.152-0.017-0.304-0.036-0.456c-0.04-0.31-0.089-0.617-0.149-0.923
	c-0.05-0.249-0.137-0.505-0.324-0.685c-0.215-0.209-0.47-0.302-0.764-0.32c-0.026-0.001-0.052-0.002-0.077-0.002
	c-0.184,0-0.369,0.034-0.552,0.042c-0.091,0.005-0.181,0.007-0.272,0.012c0-0.026-0.001-0.053-0.001-0.08
	c0-0.245-0.004-0.49-0.012-0.734c-0.024-0.69-0.002-1.375,0.002-2.065C17.036,1.394,16.638,1,16.168,1s-0.868,0.394-0.866,0.866
	c0.004,0.677,0.022,1.355,0.03,2.032c0.002,0.245,0,0.491,0.002,0.736c0,0.058-0.002,0.118-0.003,0.177
	c-0.394,0.011-0.788,0.021-1.181,0.03c-0.063,0.001-0.119,0.024-0.177,0.038c-0.02-0.001-0.037-0.011-0.057-0.011
	c-0.265,0-0.523,0.107-0.71,0.294c-0.171,0.171-0.316,0.456-0.294,0.708c0.03,0.31,0.062,0.619,0.101,0.929
	c0.032,0.273,0.054,0.552,0.116,0.818c-0.121,0.039-0.241,0.08-0.363,0.114c-0.649,0.181-1.319,0.334-1.92,0.649
	c-0.318,0.165-0.617,0.374-0.915,0.573c-0.326,0.217-0.647,0.44-0.955,0.681c-0.48,0.378-0.945,0.794-1.361,1.242
	c-0.523,0.561-1.011,1.174-1.367,1.853c-0.159,0.302-0.308,0.609-0.468,0.909c-0.157,0.296-0.314,0.589-0.446,0.895
	c-0.259,0.595-0.474,1.206-0.629,1.837c-0.092,0.368-0.175,0.734-0.221,1.11c-0.044,0.37-0.074,0.74-0.113,1.11
	c-0.056,0.565-0.103,1.132-0.141,1.699c-0.022,0.324-0.028,0.649-0.024,0.973c0.006,0.366,0.064,0.73,0.125,1.09
	c0.054,0.318,0.117,0.633,0.191,0.945c0.096,0.398,0.247,0.774,0.41,1.15c0.241,0.559,0.599,1.075,0.963,1.56
	c0.426,0.571,0.876,1.128,1.381,1.634c0.478,0.48,1.007,0.915,1.574,1.291c0.197,0.133,0.408,0.241,0.611,0.362
	c0.296,0.177,0.597,0.32,0.919,0.442c0.647,0.251,1.309,0.466,1.96,0.708c0.354,0.133,0.728,0.213,1.096,0.298
	c0.408,0.096,0.82,0.173,1.24,0.197c0.78,0.046,1.564,0.066,2.344,0.064c0.806,0,1.614-0.135,2.39-0.348
	c0.374-0.103,0.744-0.237,1.114-0.36c0.414-0.139,0.816-0.306,1.216-0.486c0.322-0.147,0.643-0.292,0.949-0.466
	c0.35-0.203,0.675-0.462,0.991-0.712c0.581-0.458,1.023-1.076,1.5-1.63c0.273-0.318,0.537-0.643,0.772-0.987
	c0.199-0.289,0.37-0.595,0.531-0.907c0.201-0.386,0.384-0.788,0.531-1.198c0.121-0.338,0.213-0.685,0.306-1.033
	c0.076-0.283,0.153-0.565,0.219-0.85c0.08-0.358,0.109-0.732,0.145-1.096c0.03-0.326,0.064-0.649,0.082-0.977
	c0.018-0.334,0.014-0.667,0.02-1.001C27.8,18.273,27.818,17.608,27.69,16.938z M26.323,19.28c-0.015,0.704-0.062,1.412-0.149,2.112
	c-0.053,0.338-0.133,0.669-0.22,1c-0.112,0.423-0.233,0.841-0.383,1.253c-0.155,0.351-0.33,0.698-0.514,1.033
	c-0.181,0.33-0.396,0.635-0.622,0.934c-0.298,0.359-0.614,0.703-0.924,1.053c-0.283,0.316-0.57,0.622-0.899,0.892
	c-0.302,0.224-0.612,0.444-0.947,0.616c-0.326,0.168-0.663,0.319-1,0.464c-0.496,0.183-1.003,0.334-1.509,0.491
	c-0.476,0.149-0.972,0.245-1.465,0.327c-0.531,0.054-1.074,0.042-1.608,0.027c-0.554-0.015-1.115-0.028-1.667-0.089
	c-0.522-0.094-1.046-0.227-1.552-0.383c-0.253-0.078-0.501-0.187-0.748-0.279c-0.239-0.088-0.48-0.165-0.714-0.261
	c0.062,0.026,0.125,0.052,0.185,0.078c-0.219-0.093-0.438-0.183-0.658-0.274c-0.328-0.142-0.622-0.331-0.93-0.512
	c-0.289-0.169-0.565-0.355-0.833-0.555c-0.676-0.544-1.245-1.181-1.78-1.862c-0.396-0.522-0.773-1.072-1.047-1.669
	c-0.13-0.324-0.229-0.652-0.309-0.994c-0.076-0.333-0.129-0.67-0.181-1.007c-0.062-0.602-0.03-1.215,0.01-1.819
	c0.048-0.699,0.108-1.392,0.195-2.085c0.069-0.472,0.189-0.932,0.325-1.391c0.108-0.365,0.227-0.73,0.367-1.086
	c0.188-0.428,0.404-0.845,0.618-1.262c0.125-0.241,0.247-0.484,0.378-0.724c0.12-0.222,0.266-0.425,0.417-0.626
	c0.565-0.711,1.209-1.369,1.912-1.945c0.26-0.195,0.526-0.38,0.793-0.562c0.262-0.179,0.536-0.358,0.824-0.495
	c0.306-0.117,0.624-0.213,0.941-0.295c0.269-0.07,0.545-0.123,0.814-0.205c0.455-0.142,0.903-0.299,1.375-0.382
	c0.4-0.033,0.81,0.021,1.208,0.036c0.446,0.018,0.818-0.386,0.818-0.818c0-0.458-0.372-0.806-0.818-0.82
	c-0.227-0.007-0.454-0.012-0.68-0.012c-0.104,0-0.207,0.001-0.31,0.004c-0.001-0.008,0-0.015-0.001-0.023
	c0-0.002-0.001-0.004-0.001-0.007c-0.028-0.24-0.046-0.481-0.066-0.722c0.412-0.033,0.824-0.069,1.236-0.1
	c0.293-0.02,0.583-0.024,0.876-0.02c0.1,0.002,0.199-0.002,0.299-0.004c0.039-0.001,0.078-0.003,0.117-0.004
	c0.002,0.01,0.003,0.019,0.005,0.029c0.024,0.209,0.04,0.416,0.026,0.626c-0.007,0.029-0.016,0.058-0.029,0.087
	c-0.084,0.207-0.018,0.499,0.09,0.681c0.097,0.168,0.256,0.287,0.435,0.361c-0.019,0.066-0.042,0.131-0.042,0.203
	c0,0.401,0.329,0.741,0.728,0.753c0.136,0.03,0.269,0.07,0.404,0.099c0.183,0.04,0.364,0.096,0.541,0.155
	c0.151,0.05,0.308,0.082,0.46,0.137c0.122,0.044,0.246,0.084,0.368,0.129c0.111,0.054,0.219,0.116,0.33,0.17
	c0.163,0.078,0.324,0.153,0.478,0.247c0.408,0.243,0.782,0.557,1.158,0.849c-0.021-0.016-0.041-0.031-0.062-0.047
	c0.546,0.427,1.094,0.893,1.531,1.435c0.327,0.434,0.619,0.886,0.883,1.361c0.298,0.537,0.565,1.098,0.825,1.655
	c0.282,0.675,0.56,1.376,0.68,2.096C26.378,17.981,26.338,18.63,26.323,19.28z M23.285,9.695c-0.006-0.005-0.012-0.01-0.019-0.014
	c-0.012-0.01-0.025-0.019-0.037-0.029C23.248,9.666,23.267,9.681,23.285,9.695z M19.338,24.347c0.002,0.001,0.003,0.002,0.005,0.004
	c0.002,0.001,0.003,0.002,0.005,0.004C19.345,24.352,19.341,24.349,19.338,24.347z M17.521,22.454
	c0.002,0.001,0.005,0.002,0.007,0.003c-0.031-0.013-0.063-0.027-0.094-0.039c0.035,0.014,0.07,0.029,0.105,0.044
	C17.533,22.459,17.527,22.457,17.521,22.454z M21.451,23.417c0.012-0.03,0.023-0.061,0.035-0.09
	c0.011-0.026,0.024-0.052,0.035-0.078C21.497,23.305,21.473,23.361,21.451,23.417z M23.423,19.868
	c-0.129-0.081-0.261-0.158-0.384-0.248c-0.2-0.162-0.389-0.335-0.585-0.502c-0.099-0.084-0.203-0.161-0.316-0.227
	c-0.041-0.024-0.083-0.047-0.124-0.072c-0.124-0.201-0.233-0.417-0.33-0.632c-0.042-0.111-0.077-0.224-0.117-0.333
	c-0.062-0.171-0.136-0.338-0.209-0.504c-0.099-0.259-0.187-0.523-0.278-0.785c-0.068-0.197-0.175-0.358-0.358-0.466
	c-0.121-0.07-0.258-0.106-0.396-0.106c-0.069,0-0.138,0.009-0.205,0.028c-0.115,0.032-0.216,0.096-0.304,0.175
	c-0.259,0.026-0.507,0.155-0.625,0.397c-0.241,0.492-0.43,1.005-0.639,1.512c0.009-0.023,0.018-0.045,0.028-0.067
	c-0.071,0.174-0.134,0.349-0.206,0.523c-0.006,0.015-0.012,0.029-0.018,0.044c-0.009,0.021-0.019,0.043-0.03,0.063
	c-0.039,0.036-0.082,0.067-0.124,0.099c-0.148,0.108-0.315,0.19-0.474,0.284c-0.133,0.078-0.263,0.157-0.394,0.237
	c-0.233,0.151-0.434,0.328-0.691,0.44c0.021-0.009,0.042-0.018,0.063-0.027c-0.196,0.084-0.374,0.173-0.552,0.3
	c-0.211,0.149-0.366,0.292-0.446,0.549c-0.08,0.251-0.02,0.509,0.099,0.736c0.119,0.227,0.356,0.392,0.557,0.541
	c0.183,0.135,0.4,0.217,0.597,0.33c0.193,0.111,0.383,0.219,0.586,0.308c-0.003-0.001-0.005-0.002-0.008-0.003
	c0.005,0.002,0.01,0.004,0.014,0.006c0.019,0.008,0.038,0.017,0.057,0.025c-0.028-0.011-0.055-0.023-0.083-0.035
	c0.15,0.066,0.296,0.139,0.446,0.202c0.137,0.201,0.258,0.407,0.371,0.629c0.224,0.446,0.612,0.763,0.998,1.062
	c0.293,0.218,0.619,0.417,0.988,0.44c0.302,0.02,0.585-0.191,0.732-0.438c0.056-0.101,0.094-0.215,0.135-0.324
	c0.035-0.094,0.066-0.188,0.101-0.281c0.062-0.14,0.126-0.279,0.187-0.42c0.055-0.129,0.113-0.258,0.154-0.392
	c0.028-0.092,0.053-0.183,0.083-0.273c0.033-0.013,0.066-0.027,0.1-0.041c0.056-0.026,0.11-0.057,0.165-0.084
	c0.238-0.093,0.482-0.177,0.703-0.31c0.129-0.076,0.257-0.163,0.38-0.247c0.123-0.086,0.253-0.155,0.372-0.241
	c0.094-0.068,0.168-0.144,0.23-0.23c0.1-0.037,0.194-0.091,0.271-0.167c0.139-0.141,0.219-0.332,0.219-0.531
	c0-0.261-0.128-0.455-0.321-0.607C23.704,20.088,23.577,19.965,23.423,19.868z M21.981,18.794c0,0,0.002,0.002,0.002,0.003
	c-0.007-0.009-0.014-0.018-0.022-0.027C21.968,18.779,21.974,18.787,21.981,18.794z M21.586,20.265
	c-0.018-0.014-0.037-0.028-0.055-0.042c-0.013-0.01-0.026-0.02-0.039-0.03c-0.003-0.002-0.006-0.005-0.009-0.007
	C21.517,20.212,21.551,20.239,21.586,20.265z M21.478,20.183c0.001,0,0.001,0.001,0.002,0.001c-0.017-0.013-0.034-0.026-0.051-0.039
	C21.445,20.158,21.461,20.171,21.478,20.183z M18.337,18.653c-0.001,0.003-0.003,0.006-0.004,0.009l0,0
	C18.334,18.659,18.336,18.656,18.337,18.653z M21.815,22.476c-0.003,0.004-0.007,0.009-0.01,0.013
	c0.024-0.051,0.048-0.104,0.07-0.158C21.855,22.38,21.835,22.428,21.815,22.476z M21.574,21.165
	c-0.111,0.046-0.222,0.092-0.333,0.14c0.036-0.016,0.072-0.032,0.108-0.047c-0.217,0.092-0.509,0.127-0.667,0.314
	c-0.109,0.127-0.155,0.193-0.205,0.356c-0.01,0.034-0.022,0.068-0.032,0.101c-0.02,0.06-0.036,0.119-0.056,0.177
	c-0.07,0.201-0.123,0.408-0.205,0.605c0.024-0.056,0.048-0.113,0.072-0.169c-0.067,0.157-0.134,0.313-0.201,0.469
	c-0.102-0.091-0.2-0.188-0.287-0.292c-0.076-0.102-0.147-0.205-0.202-0.319c-0.07-0.145-0.123-0.298-0.193-0.44
	c-0.091-0.185-0.201-0.386-0.346-0.533c-0.137-0.137-0.32-0.231-0.507-0.267c-0.038-0.008-0.073-0.017-0.109-0.029
	c-0.197-0.091-0.386-0.19-0.579-0.287c-0.052-0.027-0.103-0.054-0.154-0.081c0.26-0.168,0.516-0.342,0.796-0.477
	c0.195-0.096,0.384-0.189,0.571-0.299c0.267-0.159,0.551-0.261,0.708-0.561c0.161-0.306,0.22-0.665,0.332-0.992
	c0.027-0.059,0.058-0.115,0.085-0.174c0.073,0.201,0.141,0.404,0.226,0.6c0.048,0.113,0.111,0.219,0.165,0.33
	c0.063,0.128,0.139,0.229,0.224,0.339c-0.026-0.034-0.053-0.068-0.079-0.102c0.04,0.052,0.074,0.109,0.115,0.161
	c0.119,0.165,0.223,0.267,0.398,0.38c0.105,0.068,0.224,0.109,0.329,0.173c0.191,0.16,0.381,0.321,0.569,0.484
	c0.033,0.029,0.069,0.05,0.103,0.077C22.009,20.934,21.8,21.068,21.574,21.165z M14.673,16.986c0.121,0.143,0.241,0.255,0.394,0.368
	c0.195,0.143,0.4,0.239,0.633,0.314c0.227,0.074,0.48,0.094,0.714,0.046c0.173-0.036,0.336-0.104,0.493-0.185
	c0.151-0.076,0.279-0.217,0.402-0.334c0.076-0.074,0.153-0.147,0.221-0.227c0.058-0.07,0.115-0.145,0.167-0.219
	c0.084-0.119,0.127-0.273,0.175-0.41c0.123-0.346,0.163-0.722,0.078-1.081c-0.048-0.199-0.151-0.41-0.267-0.581
	c-0.136-0.2-0.279-0.345-0.462-0.484c-0.103-0.119-0.246-0.221-0.393-0.246c-0.169-0.028-0.331-0.045-0.496-0.045
	c-0.068,0-0.137,0.003-0.208,0.009c-0.115,0.01-0.255,0.018-0.36,0.046c-0.139,0.036-0.263,0.086-0.394,0.147
	c-0.159,0.072-0.281,0.159-0.418,0.269c-0.177,0.145-0.318,0.33-0.428,0.527c-0.253,0.452-0.338,1.055-0.157,1.546
	C14.444,16.657,14.526,16.814,14.673,16.986z M16.13,16.207c-0.01-0.001-0.019-0.002-0.028-0.004
	C16.112,16.204,16.122,16.205,16.13,16.207L16.13,16.207z M15.872,15.774c0.007-0.031,0.015-0.062,0.025-0.092
	c0.026-0.049,0.054-0.097,0.085-0.143c0.008-0.008,0.015-0.016,0.023-0.024c0.018-0.005,0.036-0.01,0.054-0.015
	c0.123-0.003,0.246-0.003,0.369,0.006c0.029,0.005,0.058,0.009,0.086,0.012c0.007,0.012,0.014,0.024,0.02,0.036
	c0.008,0.025,0.016,0.051,0.022,0.077c0,0.017,0,0.033,0,0.05c-0.018,0.082-0.042,0.161-0.071,0.24
	c-0.007,0.014-0.014,0.029-0.021,0.043c-0.083,0.083-0.176,0.154-0.269,0.226c-0.01,0.003-0.019,0.006-0.029,0.009
	c-0.029-0.008-0.057-0.017-0.085-0.027c-0.02-0.012-0.04-0.024-0.059-0.037c-0.049-0.044-0.094-0.092-0.136-0.141
	c-0.006-0.017-0.011-0.035-0.016-0.053C15.867,15.884,15.868,15.829,15.872,15.774z M17.857,25.02
	c-0.038-0.092-0.076-0.185-0.119-0.277c-0.024-0.056-0.058-0.109-0.094-0.157c-0.131-0.177-0.265-0.324-0.46-0.43
	c-0.063-0.034-0.129-0.06-0.196-0.076c-0.098-0.041-0.205-0.061-0.323-0.074c-0.14-0.014-0.279-0.026-0.416-0.026
	c-0.169,0-0.337,0.018-0.505,0.073c-0.306,0.1-0.565,0.249-0.814,0.448c-0.185,0.147-0.33,0.348-0.472,0.533
	c-0.131,0.171-0.229,0.366-0.296,0.571c-0.129,0.4-0.078,0.846,0.064,1.234c0.153,0.42,0.424,0.782,0.842,0.959
	c0.31,0.133,0.603,0.215,0.943,0.229c0.219,0.008,0.44-0.036,0.653-0.074c0.195-0.034,0.358-0.088,0.541-0.167
	c0.38-0.165,0.567-0.561,0.659-0.937c0.129-0.531,0.145-1.067,0.07-1.606C17.925,25.165,17.885,25.091,17.857,25.02z M16.485,25.564
	c0.002,0.004,0.003,0.008,0.004,0.011C16.488,25.571,16.487,25.567,16.485,25.564L16.485,25.564z M16.265,25.477
	c-0.027,0.012-0.054,0.023-0.081,0.034l0,0C16.21,25.5,16.237,25.488,16.265,25.477z M16.482,26.214
	c-0.016,0.091-0.033,0.182-0.054,0.272c-0.124,0.012-0.248,0.019-0.372,0.013c-0.029-0.007-0.057-0.014-0.085-0.023
	c-0.051-0.026-0.102-0.053-0.152-0.082c-0.013-0.019-0.024-0.039-0.036-0.059c-0.017-0.051-0.032-0.103-0.044-0.155
	c-0.002-0.048-0.001-0.096,0.002-0.144c0.009-0.039,0.019-0.077,0.031-0.115c0.03-0.055,0.063-0.109,0.099-0.161
	c0.044-0.049,0.09-0.095,0.139-0.138c0.048-0.034,0.098-0.066,0.15-0.094c0.007-0.002,0.013-0.004,0.02-0.006
	c0.008,0,0.015,0.001,0.023,0.001c0.091,0.013,0.181,0.026,0.272,0.039c0.007,0.013,0.014,0.027,0.021,0.04
	C16.509,25.807,16.501,26.011,16.482,26.214z"/>
</svg>