<?xml version="1.0" encoding="utf-8"?>
<!-- Generator: Adobe Illustrator 21.1.0, SVG Export Plug-In . SVG Version: 6.00 Build 0)  -->
<svg version="1.1" id="designs" xmlns="http://www.w3.org/2000/svg" xmlns:xlink="http://www.w3.org/1999/xlink" x="0px" y="0px"
	 width="32px" height="32px" viewBox="0 0 32 32" style="enable-background:new 0 0 32 32;" xml:space="preserve">
<style type="text/css">
	.sketchy_een{fill:#111918;}
</style>
<path class="sketchy_een" d="M23.594,27.992c-0.078,0-0.155-0.004-0.232-0.011c-0.224-0.02-0.452-0.044-0.672-0.086l-0.583-0.121
	c-0.266-0.051-0.53-0.1-0.787-0.182c-0.164-0.055-0.324-0.118-0.483-0.183c-0.241-0.1-0.406-0.168-0.555-0.264
	c-0.375-0.237-0.694-0.504-0.946-0.79c-0.273-0.309-0.486-0.661-0.64-0.933c-0.188-0.331-0.336-0.669-0.439-1.008
	c-0.103-0.34-0.197-0.679-0.278-1.025c-0.1-0.417-0.149-0.853-0.186-1.229c-0.07-0.71-0.121-1.42-0.154-2.134
	c-0.02-0.44-0.029-0.88-0.039-1.32c-0.007-0.322-0.014-0.645-0.024-0.968c-0.024-0.748-0.044-1.496-0.057-2.244l-0.022-0.883
	c-0.014-0.464-0.027-0.929-0.029-1.394c-0.004-0.778-0.008-1.555-0.008-2.33c-0.001-0.789-0.002-1.515,0.028-2.24l0.009-0.206
	c0.014-0.31,0.028-0.621,0.036-0.933l0.017-1.094c0.005-0.193,0.018-0.384,0.033-0.576l0.016-0.219l-0.087,0.055
	c-0.447,0-0.824-0.38-0.824-0.831c0-0.45,0.379-0.829,0.826-0.829c0.236,0.002,0.467,0.008,0.699,0.014
	c0.274,0.007,0.549,0.015,0.823,0.015h0.163c0.406,0,0.813-0.006,1.217-0.013c0.27-0.004,0.539-0.006,0.808-0.006
	c0.803,0,1.605,0.016,2.406,0.031l1.535,0.026c0.606,0.01,1.212,0.018,1.82,0.02l0.444,0.002c0.507,0,1.052-0.01,1.602-0.074
	c0.061-0.015,0.123-0.021,0.184-0.021c0.067,0,0.137,0.01,0.208,0.029c0.134,0.037,0.248,0.103,0.348,0.2
	C29.916,4.388,30,4.59,30,4.796c0,0.205-0.084,0.408-0.231,0.557c-0.174,0.173-0.378,0.214-0.553,0.231
	c-0.154,0.015-0.307,0.021-0.46,0.027l-0.182,0.009l-0.007,0.095l-0.01,0.171c-0.018,0.481-0.017,0.963-0.015,1.445v0.673
	c-0.006,0.722-0.008,1.444-0.002,2.168c0.004,0.431,0.003,0.863,0.002,1.295v0.864c0.002,0.77,0.004,1.539-0.006,2.31l-0.002,0.38
	c-0.001,0.237-0.002,0.475-0.009,0.713l-0.007,0.212c-0.01,0.302-0.019,0.603-0.021,0.906l-0.002,0.764c0,0.484,0,0.968-0.009,1.453
	c-0.012,0.704-0.039,1.408-0.092,2.111c-0.016,0.204-0.065,1.077-0.065,1.077c-0.026,0.436-0.078,0.865-0.144,1.295
	c-0.062,0.413-0.179,0.804-0.345,1.161l-0.067,0.146c-0.127,0.275-0.255,0.552-0.402,0.815c-0.139,0.248-0.271,0.433-0.412,0.584
	c-0.091,0.097-0.19,0.185-0.289,0.273l-0.102,0.091c-0.324,0.294-0.588,0.506-0.856,0.687c-0.329,0.224-0.718,0.368-1.122,0.508
	C24.261,27.931,23.916,27.992,23.594,27.992z M19.902,21.095c-0.232,0-0.464,0.007-0.698,0.017l0.063,0.122
	c0.034,0.386,0.068,0.772,0.117,1.155c0.053,0.345,0.132,0.688,0.226,1.027c0.069,0.249,0.143,0.497,0.235,0.739
	c0.148,0.317,0.343,0.639,0.575,0.956c0.148,0.176,0.316,0.333,0.497,0.482c0.148,0.106,0.303,0.197,0.47,0.276
	c0.315,0.122,0.629,0.212,0.925,0.267l0.381,0.075c0.182,0.037,0.364,0.074,0.548,0.103c0.094,0.01,0.192,0.015,0.29,0.015
	c0.092,0,0.186-0.004,0.277-0.013c0.22-0.041,0.453-0.113,0.754-0.234c0.155-0.075,0.3-0.167,0.442-0.27
	c0.137-0.113,0.269-0.232,0.4-0.357c0.143-0.131,0.285-0.263,0.412-0.41c0.222-0.335,0.405-0.707,0.57-1.061
	c0.121-0.324,0.209-0.682,0.284-1.155c0.064-0.538,0.091-1.08,0.119-1.622l0.008-0.145c0.031-0.594,0.043-1.185,0.049-1.778
	c0.007-0.739,0.009-1.477,0.003-2.215c-0.004-0.557,0.014-1.114,0.032-1.671l0.017-0.553c0.015-0.618,0.017-1.233,0.018-1.85
	l-0.61,0.068c-0.285,0.006-0.57,0.013-0.854,0.025c-0.707,0.031-1.417,0.055-2.124,0.066c-0.252,0.004-1.512,0.004-1.512,0.004
	h-0.646c-0.563,0.006-1.127,0.03-1.69,0.055l-0.534,0.022l0.043,0.144l0.001,0.289c0.008,0.423,0.05,1.903,0.05,1.903
	c0.144-0.022,0.301-0.03,0.464-0.03c0.143,0,0.291,0.006,0.438,0.015c0.327,0.017,0.653,0.018,0.98,0.018l0.178,0.001
	c0.441,0.002,0.799,0.36,0.799,0.799c0,0.441-0.358,0.8-0.799,0.801c-0.001,0-0.001,0-0.002,0c-0.226,0-0.423-0.01-0.621-0.019
	c-0.187-0.01-0.373-0.019-0.56-0.02l-0.887-0.001l0.067,0.593l0.053,1.8l0.185-0.052c0.416,0,0.831,0.023,1.248,0.049l0.398,0.019
	c0.229,0.011,0.457,0.021,0.685,0.041c0.25,0.021,0.417,0.09,0.559,0.233c0.149,0.149,0.234,0.354,0.234,0.563
	c0,0.433-0.342,0.775-0.794,0.795l-0.163,0.004c-0.244,0-0.486-0.022-0.729-0.044l-0.247-0.021
	C20.316,21.101,20.109,21.095,19.902,21.095z M22.262,11.597c0.37,0,0.741-0.003,1.109-0.014l0.763-0.026
	c0.447-0.017,0.893-0.033,1.339-0.041c0.223-0.004,1.051-0.03,1.051-0.03c0.204-0.004,0.332-0.006,0.457-0.015l-0.036-0.628
	l0.007-0.452c0.013-0.913,0.01-1.826,0.008-2.738L26.958,6.08l0.006-0.405l-0.265-0.001l-1.105,0.015
	c-0.447,0.006-0.892,0.013-1.338,0.013c-0.669,0-1.339-0.012-2.007-0.022l-0.264-0.005c-0.521-0.01-1.041-0.014-1.563-0.017
	l-1.296-0.009c0.022,0.392,0.015,0.747,0.008,1.103c-0.01,0.473-0.028,0.86-0.048,1.248c0.673-0.06,1.331-0.066,1.988-0.1
	c0.001,0,0.002,0,0.002,0c0.454,0,0.82,0.382,0.82,0.819c0,0.215-0.088,0.426-0.24,0.579c-0.146,0.146-0.317,0.218-0.575,0.24
	c-0.157,0.014-0.315,0.018-0.473,0.018c0,0-0.569-0.01-0.695-0.01c-0.296,0.001-0.591,0.018-0.886,0.034
	c-0.021,0.573-0.035,1.193-0.038,1.812v0.172c0.264,0.018,0.556,0.019,0.854,0.019c0.1,0,0.2,0,0.301,0
	C20.495,11.585,22.262,11.597,22.262,11.597z M8.907,27.992c-0.077,0-0.155-0.004-0.231-0.011c-0.224-0.02-0.452-0.044-0.673-0.086
	l-0.58-0.121c-0.266-0.05-0.531-0.1-0.789-0.182c-0.165-0.055-0.325-0.118-0.483-0.183c-0.241-0.1-0.405-0.168-0.554-0.264
	c-0.374-0.236-0.693-0.503-0.947-0.79c-0.271-0.307-0.484-0.66-0.639-0.933c-0.189-0.333-0.337-0.671-0.439-1.008
	c-0.104-0.34-0.197-0.679-0.278-1.025c-0.091-0.381-0.141-0.767-0.186-1.229c-0.071-0.71-0.121-1.42-0.154-2.134
	c-0.02-0.444-0.03-0.887-0.039-1.331c-0.007-0.319-0.013-0.638-0.024-0.958c-0.024-0.748-0.045-1.496-0.057-2.244L2.81,14.626
	c-0.014-0.47-0.027-0.939-0.029-1.409l-0.007-2.33c-0.002-0.747-0.004-1.495,0.028-2.24L2.81,8.45
	c0.014-0.313,0.028-0.627,0.036-0.942l0.017-1.094c0.005-0.19,0.019-0.38,0.033-0.569l0.017-0.226L2.824,5.674
	C2.377,5.674,2,5.294,2,4.843c0-0.45,0.378-0.829,0.825-0.829c0.237,0.002,0.468,0.008,0.7,0.014
	c0.274,0.007,0.549,0.015,0.823,0.015H4.51c0.406,0,0.813-0.006,1.218-0.013c0.27-0.004,0.539-0.006,0.808-0.006
	c0.802,0,1.604,0.016,2.406,0.031l1.536,0.026c0.606,0.01,1.212,0.018,1.819,0.02l0.443,0.002c0.507,0,1.052-0.01,1.602-0.074
	c0.061-0.015,0.123-0.021,0.184-0.021c0.067,0,0.137,0.01,0.209,0.029c0.135,0.037,0.249,0.103,0.347,0.201
	c0.147,0.148,0.231,0.35,0.231,0.557s-0.084,0.409-0.231,0.557c-0.173,0.173-0.377,0.214-0.553,0.231
	c-0.153,0.015-0.307,0.021-0.46,0.027l-0.228,0.011c0,0,0.012,1.238,0.014,1.724l0,0.658c-0.006,0.722-0.008,1.444-0.002,2.168
	c0.003,0.427,0.002,2.159,0.002,2.159c0.002,0.77,0.003,1.539-0.006,2.31l-0.001,0.355c-0.001,0.246-0.002,0.491-0.009,0.738
	l-0.008,0.257c-0.009,0.287-0.019,0.574-0.02,0.861l-0.001,0.725c0,0.497,0,0.994-0.009,1.492c-0.011,0.704-0.039,1.408-0.093,2.111
	c-0.016,0.201-0.026,0.403-0.037,0.605l-0.028,0.472c-0.026,0.436-0.078,0.865-0.145,1.295c-0.062,0.413-0.178,0.804-0.344,1.161
	L13.09,24.85c-0.128,0.277-0.258,0.557-0.406,0.823c-0.137,0.246-0.268,0.431-0.41,0.584c-0.092,0.098-0.192,0.186-0.292,0.275
	l-0.1,0.09c-0.323,0.293-0.587,0.505-0.857,0.687c-0.331,0.225-0.719,0.369-1.121,0.508C9.574,27.931,9.229,27.992,8.907,27.992z
	 M5.216,21.095c-0.233,0-0.465,0.007-0.698,0.017l0.063,0.118c0.035,0.387,0.069,0.774,0.118,1.159
	c0.053,0.345,0.131,0.688,0.225,1.027c0.07,0.249,0.144,0.497,0.235,0.739c0.149,0.319,0.337,0.633,0.575,0.956
	c0.149,0.176,0.317,0.333,0.498,0.482c0.148,0.106,0.302,0.197,0.47,0.276c0.321,0.124,0.625,0.211,0.925,0.267l0.383,0.075
	c0.181,0.037,0.363,0.075,0.546,0.103c0.095,0.01,0.192,0.015,0.29,0.015c0.093,0,0.186-0.004,0.278-0.013
	c0.218-0.041,0.452-0.113,0.754-0.234c0.154-0.075,0.3-0.167,0.441-0.27c0.137-0.113,0.269-0.232,0.4-0.357
	c0.144-0.131,0.286-0.263,0.413-0.41c0.206-0.312,0.377-0.65,0.569-1.061c0.122-0.324,0.21-0.682,0.285-1.155
	c0.065-0.549,0.093-1.102,0.12-1.655l0.006-0.112c0.032-0.594,0.043-1.185,0.048-1.778c0.007-0.739,0.009-1.477,0.004-2.215
	c-0.004-0.557,0.013-1.114,0.031-1.671l0.017-0.553c0.018-0.763,0.022-1.523,0.022-2.286c0.001-0.502,0.011-1.004,0.02-1.506
	l0.012-0.661c0.004-0.288,0.005-1.189,0.005-1.189c-0.189,0.059-0.43,0.065-0.67,0.07c-0.279,0.007-0.557,0.013-0.834,0.025
	c-0.707,0.031-1.417,0.055-2.124,0.066C8.389,9.368,7.128,9.368,7.128,9.368H6.483c-0.556,0.006-1.111,0.03-1.667,0.054L4.294,9.444
	c0.026,0.619,0.013,1.284,0.009,1.949l0,0.461l0.606-0.046l0.656,0.004l0.972-0.008l0.393,0.004
	c0.445,0.011,0.806,0.372,0.806,0.805c0,0.438-0.361,0.807-0.787,0.807l-0.476-0.015c-0.298-0.012-0.597-0.022-0.897-0.022
	c-0.377,0.002-0.703,0.015-1.029,0.027l-0.293,0.012l0.047,0.085v0.163c0.009,0.431,0.051,1.903,0.051,1.903
	c0.143-0.022,0.3-0.03,0.463-0.03c0.143,0,0.291,0.006,0.439,0.015c0.326,0.017,0.653,0.018,0.979,0.018l0.179,0.001
	c0.44,0.002,0.798,0.36,0.798,0.799c0,0.441-0.358,0.8-0.799,0.801c0,0-0.001,0-0.002,0c-0.225,0-0.423-0.01-0.62-0.019
	c-0.187-0.01-0.374-0.019-0.561-0.02l-0.886-0.001l0.066,0.563l0.053,1.829l0.185-0.052c0.416,0,0.831,0.023,1.248,0.049
	l0.398,0.019c0.229,0.011,0.458,0.021,0.686,0.041c0.25,0.021,0.417,0.091,0.558,0.233c0.148,0.15,0.233,0.355,0.233,0.563
	c0,0.433-0.341,0.775-0.793,0.795l-0.163,0.004c-0.243,0-0.486-0.022-0.729-0.044l-0.247-0.021
	C5.629,21.101,5.422,21.095,5.216,21.095z M4.481,5.649C4.46,6.073,4.453,6.453,4.445,6.836C4.439,7.18,4.423,7.52,4.406,7.863
	C4.761,7.8,5.168,7.796,5.576,7.796c0.31,0,1.962,0.012,1.962,0.012c0.382,0,0.765-0.004,1.147-0.016l0.851-0.028
	c0.417-0.016,0.834-0.03,1.25-0.038l1.166-0.032c0.123-0.002,0.198-0.002,0.32-0.012l0-0.363L12.271,6.08l0.006-0.408l-0.265,0.002
	l-1.105,0.015c-0.447,0.006-0.892,0.013-1.338,0.013c-0.669,0-1.338-0.012-2.006-0.022L7.299,5.674
	c-0.521-0.01-1.042-0.014-1.563-0.017L4.481,5.649z M24.541,24.353c-0.139,0-0.276-0.037-0.395-0.107
	c-0.36-0.209-0.481-0.666-0.28-1.062c0.031-0.061,0.06-0.123,0.088-0.185c0.107-0.283,0.185-0.583,0.241-0.939
	c0.051-0.469,0.063-0.945,0.076-1.419l0.011-0.387c0.013-0.406,0.017-0.812,0.02-1.216l0.024-1.889
	c0.003-0.421,0.346-0.764,0.766-0.764c0.423,0,0.767,0.343,0.767,0.765l0.014,0.917c0.011,0.516,0.021,1.032,0.011,1.548
	c-0.013,0.701-0.052,1.403-0.101,2.102c-0.03,0.425-0.092,0.832-0.185,1.209c-0.078,0.32-0.208,0.628-0.334,0.925l-0.047,0.111
	c-0.078,0.181-0.297,0.315-0.468,0.363C24.681,24.343,24.612,24.353,24.541,24.353z M9.854,24.353c-0.139,0-0.276-0.037-0.395-0.107
	c-0.361-0.209-0.481-0.666-0.28-1.062L9.267,23c0.107-0.284,0.183-0.583,0.241-0.939c0.05-0.469,0.062-0.945,0.075-1.419
	l0.011-0.387c0.013-0.4,0.017-0.8,0.02-1.2l0.012-0.928c0.008-0.581,0.017-1.161,0.014-1.74c-0.002-0.602-0.018-1.203-0.034-1.802
	l-0.008-0.307c-0.006-0.199,0.072-0.391,0.218-0.542c0.151-0.156,0.358-0.244,0.566-0.244c0.426,0,0.778,0.352,0.784,0.784
	c0.005,0.316,0.007,0.632,0.005,0.946c-0.005,0.735-0.007,1.467,0.002,2.201l0.012,0.66c0.011,0.511,0.021,1.023,0.01,1.534
	c-0.013,0.701-0.052,1.403-0.102,2.102c-0.029,0.423-0.091,0.83-0.184,1.209c-0.078,0.318-0.206,0.624-0.331,0.92l-0.049,0.117
	c-0.078,0.181-0.298,0.315-0.47,0.363C9.994,24.343,9.924,24.353,9.854,24.353z"/>
</svg>