<?xml version="1.0" encoding="utf-8"?>
<!-- Generator: Adobe Illustrator 21.1.0, SVG Export Plug-In . SVG Version: 6.00 Build 0)  -->
<svg version="1.1" id="designs" xmlns="http://www.w3.org/2000/svg" xmlns:xlink="http://www.w3.org/1999/xlink" x="0px" y="0px"
	 width="32px" height="32px" viewBox="0 0 32 32" style="enable-background:new 0 0 32 32;" xml:space="preserve">
<style type="text/css">
	.sketchy_een{fill:#111918;}
</style>
<path class="sketchy_een" d="M30.947,22.405c-0.003-0.131-0.027-0.26-0.102-0.375c-0.01-0.013-0.019-0.027-0.027-0.041
	c-0.105-0.29-0.177-0.592-0.279-0.883c-0.129-0.369-0.27-0.735-0.397-1.106c-0.258-0.759-0.528-1.516-0.797-2.272
	c-0.272-0.771-0.538-1.543-0.824-2.308c-0.288-0.771-0.536-1.553-0.797-2.332c-0.497-1.476-0.89-2.984-1.398-4.454
	c-0.268-0.777-0.495-1.565-0.753-2.346c-0.209-0.642-0.411-1.287-0.618-1.93c0.002-0.021,0.007-0.041,0.009-0.062
	c0.019-0.174-0.077-0.363-0.191-0.5c-0.008-0.012-0.015-0.023-0.023-0.034c-0.008-0.008-0.013-0.022-0.02-0.03
	c-0.014-0.014-0.033-0.019-0.048-0.032c-0.047-0.048-0.09-0.101-0.15-0.136c-0.033-0.019-0.071-0.014-0.106-0.028
	c-0.144-0.133-0.331-0.22-0.534-0.22c-0.125,0.002-0.23,0.028-0.344,0.068c-0.171,0.059-0.317,0.162-0.42,0.294
	c-0.577,0.374-1.178,0.713-1.773,1.053c-0.677,0.389-1.343,0.799-2.024,1.182c-0.699,0.395-1.385,0.81-2.076,1.218
	c-0.677,0.401-1.361,0.793-2.04,1.19c-0.701,0.411-1.394,0.832-2.086,1.257c-0.729,0.447-1.464,0.884-2.191,1.331
	c-0.711,0.437-1.438,0.844-2.171,1.241c-0.717,0.387-1.426,0.791-2.116,1.228c-0.437,0.276-0.874,0.548-1.325,0.801
	c-0.433,0.242-0.854,0.507-1.285,0.749c-0.421,0.236-0.868,0.427-1.277,0.685c-0.197,0.123-0.383,0.26-0.576,0.387
	c-0.164,0.108-0.328,0.216-0.492,0.325c-0.308,0.049-0.576,0.246-0.667,0.575c-0.113,0.411,0.135,0.922,0.574,1.011
	c1.714,0.356,3.43,0.707,5.137,1.114c0.824,0.197,1.645,0.413,2.467,0.622c0.749,0.189,1.512,0.336,2.268,0.495
	c0.326,0.068,0.656,0.125,0.981,0.187c0.107,0.02,0.213,0.04,0.32,0.06c0.138,0.564,0.278,1.127,0.435,1.689
	c0.185,0.671,0.336,1.355,0.536,2.024c0.099,0.334,0.207,0.667,0.304,1.003c0.099,0.346,0.183,0.697,0.298,1.039
	c0.101,0.3,0.216,0.594,0.332,0.89c0.131,0.342,0.238,0.689,0.336,1.043c0.121,0.435,0.586,0.699,1.023,0.58
	c0.065-0.018,0.118-0.057,0.176-0.09c0.008-0.004,0.017-0.004,0.025-0.009c0.005-0.003,0.007-0.007,0.011-0.01
	c0.074-0.047,0.135-0.104,0.191-0.171c0.013-0.016,0.029-0.03,0.04-0.047c0.047-0.065,0.08-0.134,0.107-0.209
	c0.007-0.018,0.019-0.032,0.026-0.05c0.085-0.237,0.179-0.473,0.276-0.707c0.402-0.937,0.833-1.854,1.321-2.75
	c0.514-0.939,1.024-1.885,1.471-2.858c0.627,0.046,1.251,0.106,1.875,0.187c0.694,0.108,1.373,0.283,2.062,0.411
	c0.705,0.129,1.41,0.26,2.115,0.381c0.715,0.123,1.422,0.272,2.137,0.389c0.342,0.056,0.683,0.107,1.025,0.155
	c0.348,0.05,0.697,0.097,1.037,0.187c0.443,0.115,0.912-0.141,1.035-0.586C31.017,22.723,30.996,22.559,30.947,22.405z
	 M11.503,18.53c-0.757-0.151-1.518-0.294-2.27-0.477c-1.651-0.405-3.305-0.795-4.952-1.212c-0.137-0.034-0.275-0.062-0.412-0.095
	c0.124-0.07,0.241-0.153,0.369-0.214c0.342-0.163,0.677-0.332,1.005-0.522c0.33-0.195,0.654-0.397,0.987-0.584
	c0.713-0.397,1.371-0.878,2.074-1.287c0.739-0.431,1.506-0.81,2.253-1.228c0.709-0.397,1.392-0.836,2.096-1.243
	c0.727-0.419,1.448-0.85,2.169-1.281c1.379-0.822,2.785-1.595,4.15-2.441c0.411-0.254,0.83-0.497,1.247-0.741
	c0.445-0.26,0.878-0.536,1.317-0.808c0.11-0.069,0.225-0.131,0.336-0.199c-0.417,0.573-0.839,1.143-1.242,1.726
	c-0.473,0.685-0.951,1.367-1.408,2.062c-0.457,0.695-0.866,1.42-1.329,2.116c-0.737,1.106-1.45,2.231-2.229,3.309
	c-0.405,0.56-0.801,1.126-1.198,1.69c-0.35,0.496-0.671,1.016-1.035,1.503c-0.028,0.032-0.06,0.06-0.092,0.086
	c-0.034,0.005-0.069,0.004-0.102,0.013c-0.092,0.026-0.167,0.074-0.241,0.123C12.498,18.728,12.001,18.631,11.503,18.53z
	 M18.358,20.7c-0.256,0.598-0.512,1.198-0.806,1.778c-0.284,0.56-0.582,1.112-0.884,1.661c-0.27,0.487-0.516,0.985-0.754,1.487
	c-0.101-0.306-0.179-0.62-0.262-0.93c-0.091-0.348-0.187-0.695-0.292-1.041c-0.201-0.667-0.364-1.351-0.53-2.026
	c-0.087-0.356-0.183-0.711-0.262-1.069c-0.046-0.204-0.085-0.41-0.125-0.615c0.006-0.028,0.002-0.058,0.005-0.087
	c0.007-0.007,0.018-0.009,0.025-0.017c0.189-0.205,0.338-0.447,0.493-0.677c0.109-0.161,0.218-0.322,0.326-0.481
	c0.228-0.336,0.465-0.661,0.699-0.989c0.469-0.656,0.934-1.317,1.392-1.978c0.455-0.654,0.86-1.339,1.295-2.006
	c0.453-0.695,0.914-1.386,1.349-2.094c0.731-1.188,1.529-2.332,2.316-3.486c0.112-0.165,0.231-0.325,0.348-0.487
	c-0.211,0.727-0.438,1.45-0.652,2.176c-0.441,1.506-0.838,3.029-1.359,4.511c-0.177,0.508-0.342,1.023-0.516,1.531
	c-0.179,0.514-0.369,1.025-0.56,1.535c-0.191,0.507-0.379,1.015-0.548,1.532c-0.16,0.492-0.27,0.998-0.414,1.494
	C18.52,20.493,18.408,20.582,18.358,20.7z M24.629,20.95c-0.395-0.073-0.791-0.147-1.182-0.23c-0.411-0.085-0.818-0.187-1.232-0.262
	c-0.634-0.115-1.272-0.207-1.912-0.282c0.029-0.114,0.055-0.229,0.087-0.343c0.107-0.383,0.25-0.755,0.387-1.126
	c0.266-0.715,0.518-1.432,0.779-2.149c0.268-0.741,0.522-1.49,0.777-2.235c0.254-0.739,0.443-1.496,0.642-2.251
	c0.33-1.242,0.691-2.473,1.061-3.705c0.092-0.306,0.172-0.616,0.259-0.924c0.181,0.582,0.355,1.167,0.544,1.746
	c0.256,0.785,0.489,1.575,0.723,2.366c0.234,0.787,0.491,1.561,0.751,2.34c0.25,0.749,0.497,1.498,0.775,2.239
	c0.28,0.747,0.546,1.5,0.814,2.251c0.264,0.733,0.526,1.464,0.781,2.199c0.121,0.35,0.262,0.693,0.379,1.045
	c0.008,0.025,0.014,0.051,0.022,0.076C27.593,21.493,26.109,21.226,24.629,20.95z"/>
</svg>