<?xml version="1.0" encoding="utf-8"?>
<!-- Generator: Adobe Illustrator 21.1.0, SVG Export Plug-In . SVG Version: 6.00 Build 0)  -->
<svg version="1.1" id="designs" xmlns="http://www.w3.org/2000/svg" xmlns:xlink="http://www.w3.org/1999/xlink" x="0px" y="0px"
	 width="32px" height="32px" viewBox="0 0 32 32" style="enable-background:new 0 0 32 32;" xml:space="preserve">
<style type="text/css">
	.sketchy_een{fill:#111918;}
</style>
<path class="sketchy_een" d="M29.968,21.518c0.004-0.648,0.006-1.295,0.025-1.941c0.004-0.162,0.008-0.324,0.002-0.486
	c-0.008-0.207-0.053-0.367-0.141-0.551c-0.086-0.184-0.234-0.299-0.395-0.414c-0.137-0.098-0.322-0.143-0.48-0.201
	c-0.074-0.027-0.149-0.053-0.223-0.08c-0.135-0.068-0.26-0.153-0.381-0.243c-0.216-0.17-0.43-0.347-0.615-0.549
	c-0.034-0.054-0.065-0.11-0.093-0.167c-0.075-0.209-0.125-0.422-0.163-0.641c-0.025-0.252-0.026-0.5-0.003-0.752
	c0.032-0.174,0.079-0.343,0.139-0.511c0.047-0.092,0.099-0.179,0.156-0.264c0.09-0.101,0.187-0.191,0.291-0.278
	c0.216-0.146,0.45-0.253,0.681-0.37c0.305-0.154,0.596-0.299,0.781-0.605c0.197-0.324,0.121-0.768,0.115-1.131
	c-0.004-0.311-0.008-0.621-0.008-0.932c-0.004-0.654,0.016-1.311,0.045-1.965c0.031-0.682,0.068-1.362,0.148-2.04
	c0.016-0.12,0.033-0.24,0.049-0.361c0.006-0.045,0.003-0.085,0.007-0.128c0.045-0.1,0.072-0.209,0.072-0.323
	c0-0.447-0.369-0.801-0.809-0.811c-0.135-0.003-0.271-0.004-0.406-0.004c-0.611,0-1.221,0.022-1.832,0.033
	c-0.793,0.012-1.586,0.016-2.381,0.02c-1.611,0.006-3.223,0.006-4.834,0.006c-1.613,0-3.227-0.01-4.84,0.025
	c-0.811,0.018-1.619,0.055-2.43,0.074c-0.795,0.018-1.592,0.023-2.389,0.043C8.875,6,7.692,6.01,6.508,6.029
	C5.977,6.039,5.45,6.057,4.92,6.084C4.313,6.115,3.706,6.115,3.096,6.1C2.82,6.092,2.583,6.258,2.447,6.486
	C2.246,6.649,2.108,6.888,2.11,7.161c0.012,1.812-0.025,3.625-0.045,5.436c-0.018,1.691-0.018,3.383-0.039,5.072
	c-0.01,0.637-0.025,1.271-0.023,1.906c0,0.648-0.012,1.301,0.031,1.947c0.041,0.621,0.072,1.238,0.082,1.861
	c0.01,0.553,0.004,1.104,0.002,1.658c0,0.118,0.028,0.229,0.074,0.331c-0.001,0.016-0.009,0.029-0.009,0.045
	c0,0.445,0.365,0.797,0.805,0.807c0.844,0.016,1.688-0.008,2.531-0.02c0.773-0.014,1.547,0,2.32,0.002
	c1.654,0.004,3.309,0.008,4.961-0.008c0.834-0.006,1.666-0.039,2.498-0.062c0.846-0.025,1.691-0.033,2.539-0.055
	c1.697-0.045,3.393-0.094,5.09-0.139c1.035-0.027,2.07-0.059,3.105-0.055c0.494,0,0.988,0.01,1.482,0.023
	c0.16,0.006,0.32,0.004,0.48,0.004c0.275,0,0.549,0,0.822,0.021c0.192,0.017,0.363-0.064,0.508-0.179
	c0.277-0.06,0.522-0.256,0.595-0.543c0.074-0.295,0.072-0.629,0.074-0.934c0-0.311-0.004-0.621-0.01-0.932
	C29.974,22.738,29.966,22.127,29.968,21.518z M27.37,24.192c-1.086,0-2.173,0.025-3.255,0.068c-0.936,0.037-1.87,0.055-2.805,0.078
	c-0.008-0.201-0.008-0.403-0.005-0.603c0.004-0.383,0.008-0.764,0.008-1.146c0-0.457-0.383-0.84-0.84-0.84
	c-0.455,0-0.846,0.383-0.84,0.84c0.004,0.389,0.012,0.775,0.023,1.162c0.005,0.209,0.005,0.421,0.012,0.633
	c-0.189,0.005-0.378,0.011-0.567,0.016c-1.699,0.045-3.398,0.092-5.096,0.152c-1.311,0.049-2.621,0.047-3.93,0.045
	c-0.352-0.002-0.703-0.002-1.055-0.002c-0.98,0.002-1.965-0.002-2.945,0.014c-0.23,0.004-0.461,0.006-0.689,0.012
	c-0.242,0.008-0.484,0.031-0.727,0.033c-0.302,0.004-0.605-0.003-0.909-0.013c-0.006-0.159-0.012-0.319-0.014-0.478
	c-0.004-0.377,0.004-0.754,0.002-1.131c-0.002-0.76-0.084-1.518-0.098-2.277c-0.016-0.793,0.004-1.586,0.008-2.379
	c0.004-0.799,0.025-1.598,0.041-2.396c0.014-0.701,0.039-1.402,0.041-2.104c0.002-0.725,0.004-1.447,0.014-2.17
	c0.019-1.362,0.1-2.721,0.124-4.082c0.166-0.005,0.332,0,0.499-0.011c0.371-0.025,0.74-0.053,1.113-0.061
	C6.276,7.533,7.073,7.521,7.87,7.516c1.596-0.014,3.193-0.057,4.789-0.096c1.629-0.041,3.254-0.088,4.883-0.094
	c0.699-0.003,1.398,0,2.097,0.001c-0.004,0.031-0.019,0.058-0.019,0.09c-0.006,0.5-0.012,1.002,0.021,1.502
	c0.016,0.232,0.082,0.436,0.25,0.605c0.158,0.158,0.379,0.25,0.604,0.25c0.471,0,0.848-0.389,0.854-0.855
	c0.008-0.5,0.023-1.002,0.031-1.502c0-0.032-0.015-0.059-0.018-0.089c0.326,0.001,0.653,0,0.979,0c1.176,0,2.352,0.002,3.527,0.012
	c0.784,0.007,1.57,0.024,2.355,0.038c-0.081,0.883-0.11,1.77-0.157,2.656c-0.027,0.512-0.027,1.025-0.033,1.537
	c-0.002,0.254-0.006,0.508-0.01,0.762c-0.001,0.076-0.001,0.152,0,0.228c-0.046,0.021-0.093,0.041-0.138,0.061
	c-0.156,0.065-0.312,0.132-0.463,0.211c-0.207,0.109-0.389,0.25-0.572,0.398c-0.402,0.326-0.68,0.76-0.863,1.24
	c-0.285,0.74-0.285,1.57-0.125,2.338c0.082,0.393,0.213,0.809,0.441,1.141c0.248,0.359,0.598,0.627,0.939,0.889
	c0.191,0.146,0.381,0.293,0.59,0.412c0.177,0.1,0.369,0.167,0.561,0.234c0.022,0.382,0.016,0.767,0.017,1.148
	c0.004,0.504,0.006,1.008,0.01,1.514c0.002,0.479,0.004,0.959,0.014,1.438c0.004,0.205,0.011,0.412,0.012,0.619
	C28.087,24.198,27.729,24.192,27.37,24.192z M21.296,11.556c0,0.369,0,0.738-0.018,1.105c-0.023,0.465-0.371,0.854-0.854,0.854
	c-0.477,0-0.838-0.389-0.854-0.854c-0.012-0.369-0.014-0.736-0.014-1.105c0-0.473,0.395-0.869,0.869-0.869
	C20.899,10.687,21.296,11.084,21.296,11.556z M19.723,17.386c-0.168-0.168-0.229-0.365-0.248-0.596
	c-0.033-0.42-0.043-0.842-0.055-1.266c-0.012-0.473,0.404-0.867,0.869-0.867c0.479,0,0.859,0.395,0.867,0.867
	c0.008,0.422,0.014,0.844,0.006,1.266c-0.008,0.459-0.377,0.844-0.844,0.844C20.096,17.634,19.879,17.544,19.723,17.386z
	 M21.28,19.447c-0.002,0.303-0.008,0.607-0.008,0.91c-0.002,0.459-0.381,0.842-0.842,0.842c-0.477,0-0.818-0.385-0.842-0.842
	c-0.016-0.303-0.014-0.607-0.016-0.91c-0.002-0.465,0.389-0.854,0.854-0.854S21.282,18.982,21.28,19.447z M15.188,13.432
	c0.148,0.148,0.232,0.354,0.232,0.564c0,0.209-0.084,0.414-0.232,0.562c-0.139,0.139-0.363,0.252-0.564,0.234
	c-0.441-0.041-0.895-0.023-1.338-0.021c-0.562,0.004-1.125,0.029-1.689,0.035c-0.566,0.006-1.131,0.006-1.695,0.033
	c-0.586,0.029-1.174,0.031-1.76,0.023c-0.449-0.006-0.822-0.369-0.822-0.822c0-0.443,0.373-0.832,0.822-0.824
	c0.607,0.012,1.215,0.031,1.824,0.023c0.559-0.008,1.117-0.029,1.676-0.029c0.566,0,1.131-0.006,1.695-0.008
	c0.246,0,0.494-0.002,0.74-0.008c0.108-0.002,0.218-0.007,0.327-0.007c0.074,0,0.147,0.002,0.22,0.009
	C14.842,13.219,15.028,13.272,15.188,13.432z M14.729,17.34c0.15,0.15,0.236,0.357,0.236,0.57c0,0.342-0.244,0.705-0.592,0.777
	c-0.402,0.082-0.807,0.117-1.217,0.115c-0.518,0-1.033,0-1.551-0.006c-0.479-0.002-0.959,0.002-1.438,0.006
	c-0.66,0.004-1.322,0.01-1.982-0.004c-0.461-0.008-0.846-0.377-0.846-0.844c0-0.447,0.385-0.861,0.846-0.844
	c1.141,0.041,2.279,0.068,3.42,0.059c0.518-0.004,1.033,0.002,1.551-0.008c0.336-0.006,0.668-0.016,1.002-0.057
	c0.018-0.002,0.035-0.003,0.053-0.003C14.399,17.102,14.606,17.217,14.729,17.34z"/>
</svg>