<?xml version="1.0" encoding="utf-8"?>
<!-- Generator: Adobe Illustrator 21.1.0, SVG Export Plug-In . SVG Version: 6.00 Build 0)  -->
<svg version="1.1" id="designs" xmlns="http://www.w3.org/2000/svg" xmlns:xlink="http://www.w3.org/1999/xlink" x="0px" y="0px"
	 width="32px" height="32px" viewBox="0 0 32 32" style="enable-background:new 0 0 32 32;" xml:space="preserve">
<style type="text/css">
	.sketchy_een{fill:#111918;}
</style>
<path class="sketchy_een" d="M16.688,15.834c-0.289-0.338-0.623-0.645-0.955-0.939c-0.244-0.216-0.493-0.42-0.758-0.607
	c-0.218-0.153-0.464-0.26-0.707-0.364c-0.295-0.126-0.584-0.248-0.892-0.332c-0.269-0.073-0.536-0.151-0.812-0.203
	c-0.089-0.017-0.175-0.027-0.26-0.027c-0.132,0-0.26,0.025-0.386,0.086c-0.88,0.12-1.761,0.263-2.571,0.644
	c-0.859,0.405-1.611,0.994-2.252,1.69c-0.627,0.676-1.13,1.494-1.49,2.339C5.214,19.043,4.88,20,4.819,21.006
	c-0.029,0.485,0.024,1.008,0.189,1.466c0.088,0.251,0.195,0.487,0.334,0.713c0.145,0.234,0.336,0.448,0.523,0.651
	c0.605,0.664,1.433,1.093,2.234,1.47c0.841,0.397,1.688,0.764,2.616,0.898c0.472,0.069,0.931,0.093,1.405,0.059
	c0.479-0.033,0.959-0.106,1.413-0.263c0.88-0.305,1.694-0.808,2.352-1.466c0.316-0.316,0.58-0.69,0.823-1.063
	c0.212-0.326,0.399-0.666,0.554-1.024c0.185-0.43,0.318-0.859,0.395-1.323c0.079-0.481,0.118-0.967,0.151-1.452
	c0.065-0.894,0.116-1.822-0.287-2.651C17.309,16.584,17.004,16.201,16.688,15.834z M16.161,19.234
	c-0.024,0.411-0.052,0.823-0.1,1.233c-0.067,0.415-0.165,0.813-0.312,1.206c-0.214,0.465-0.484,0.908-0.784,1.324
	c-0.207,0.251-0.435,0.476-0.686,0.683c-0.343,0.248-0.704,0.465-1.087,0.644c-0.325,0.124-0.653,0.21-0.998,0.268
	c-0.412,0.045-0.817,0.055-1.229,0.015c-0.492-0.084-0.957-0.229-1.418-0.413c-0.694-0.311-1.386-0.66-2.001-1.112
	c-0.231-0.194-0.437-0.408-0.632-0.64c-0.085-0.123-0.16-0.248-0.226-0.382c-0.054-0.162-0.098-0.325-0.13-0.492
	c-0.017-0.263-0.009-0.521,0.017-0.783c0.105-0.652,0.29-1.289,0.527-1.905c0.267-0.597,0.585-1.151,0.971-1.677
	c0.327-0.398,0.683-0.759,1.079-1.088c0.354-0.258,0.726-0.485,1.124-0.671c0.588-0.214,1.186-0.316,1.806-0.403
	c-0.013,0.002-0.025,0.003-0.038,0.005c0.047-0.006,0.094-0.012,0.141-0.019c0.362,0.088,0.73,0.195,1.079,0.328
	c0.321,0.144,0.629,0.298,0.917,0.503c0.568,0.464,1.131,0.958,1.596,1.526c0.113,0.157,0.215,0.319,0.302,0.492
	c0.037,0.112,0.068,0.223,0.091,0.339C16.196,18.554,16.18,18.894,16.161,19.234z M28.31,22.458c0.344-0.055,0.703-0.135,0.987-0.35
	c0.193-0.146,0.338-0.301,0.466-0.505c0.083-0.132,0.138-0.285,0.175-0.435C29.99,20.964,30,20.732,30,20.52
	c0-0.399-0.055-0.819-0.141-1.21c-0.122-0.55-0.597-0.92-1.12-1.059c-0.206-0.055-0.428-0.065-0.641-0.081
	c-0.189-0.012-0.375-0.022-0.564-0.026c-0.296-0.008-0.594-0.01-0.892-0.015c-0.034-0.219-0.066-0.439-0.106-0.658
	c-0.126-0.679-0.252-1.359-0.38-2.039c0.374-0.012,0.748-0.028,1.12-0.062c0.261-0.023,0.521-0.053,0.778-0.1
	c0.354-0.067,0.721-0.14,1.028-0.338c0.342-0.222,0.582-0.554,0.67-0.953c0.037-0.171,0.051-0.352,0.079-0.524
	c0.065-0.419,0.14-0.849,0.11-1.273c-0.033-0.47-0.185-0.892-0.424-1.295c-0.169-0.283-0.444-0.542-0.782-0.595
	c-0.178-0.027-0.337-0.038-0.51-0.038c-0.028,0-0.055,0-0.084,0.001c-0.373,0.008-0.747,0.025-1.118,0.039
	c-0.812,0.03-1.621,0.061-2.433,0.075c-0.869,0.014-1.737,0.024-2.606,0.035c-1.25,0.018-2.5,0.037-3.749,0.063
	c-0.589,0.012-1.179,0.041-1.769,0.043c-0.66,0-1.325-0.049-1.985-0.081c-0.01,0-0.019,0.005-0.029,0.005
	c-0.23-0.064-0.462-0.118-0.696-0.161c0-0.068,0.001-0.135-0.012-0.207c-0.106-0.562-0.23-1.12-0.34-1.682
	c-0.118-0.599-0.238-1.199-0.399-1.788c-0.161-0.593-0.336-1.185-0.511-1.772c-0.187-0.631-0.413-1.25-0.645-1.863
	c-0.039-0.102-0.084-0.193-0.141-0.275c-0.127-0.314-0.434-0.54-0.791-0.541c-0.693-0.002-1.386-0.007-2.08-0.007
	c-0.576,0-1.152,0.003-1.728,0.015c-0.472,0.01-0.867,0.387-0.867,0.868c0,0.003,0.002,0.006,0.002,0.009
	C6.213,3.113,6.19,3.201,6.19,3.294c0.002,0.401,0.012,0.8,0.002,1.199c-0.008,0.385-0.035,0.77-0.053,1.154
	C6.103,6.344,6.098,7.044,6.088,7.743c-0.02,1.468-0.092,2.934-0.096,4.404c0,0.149,0.054,0.283,0.127,0.404
	c-0.693,0.648-1.304,1.364-1.842,2.146c-0.507,0.733-0.961,1.527-1.315,2.344c-0.208,0.483-0.395,0.969-0.556,1.47
	c-0.14,0.444-0.224,0.908-0.287,1.368c-0.079,0.566-0.138,1.13-0.112,1.702c0.024,0.54,0.086,1.089,0.206,1.615
	c0.12,0.529,0.326,1.034,0.554,1.525c0.244,0.521,0.536,0.985,0.896,1.437c0.672,0.841,1.541,1.476,2.464,2.012
	c0.829,0.483,1.741,0.837,2.649,1.138c0.405,0.134,0.833,0.224,1.256,0.289c0.121,0.019,0.242,0.038,0.364,0.056
	c0.056,0.013,0.114,0.022,0.171,0.025c0.338,0.048,0.677,0.091,1.018,0.122c0.444,0.041,0.892,0.073,1.338,0.061
	c0.523-0.016,1.038-0.132,1.531-0.301c0.874-0.301,1.684-0.792,2.441-1.317c1.775-1.228,2.918-3.162,3.708-5.129
	c0.086-0.215,0.16-0.434,0.227-0.655c0.319,0.023,0.642,0.017,0.963,0.025c0.383,0.008,0.768,0.027,1.152,0.047
	c0.76,0.036,1.521,0.087,2.281,0.083c0.2-0.001,0.399-0.016,0.598-0.021c0.081,0.464,0.17,0.926,0.297,1.379
	c-0.35,0.151-0.689,0.324-0.994,0.564c-0.175,0.138-0.332,0.285-0.474,0.46c-0.242,0.297-0.393,0.605-0.521,0.963
	c-0.181,0.501-0.177,1.059-0.051,1.568c0.084,0.342,0.289,0.676,0.517,0.939c0.151,0.175,0.31,0.303,0.495,0.444
	c0.153,0.118,0.308,0.234,0.476,0.33c0.252,0.144,0.525,0.261,0.804,0.342c0.446,0.13,0.922,0.069,1.36-0.061
	c0.255-0.077,0.511-0.189,0.739-0.324c0.379-0.222,0.66-0.532,0.902-0.892c0.324-0.481,0.462-1.067,0.536-1.633
	c0.083-0.629-0.012-1.281-0.364-1.824c-0.316-0.485-0.729-0.912-1.256-1.161c-0.193-0.092-0.389-0.145-0.594-0.191
	c-0.096-0.317-0.174-0.637-0.235-0.961c0.051-0.002,0.102-0.003,0.154-0.006C27.846,22.518,28.08,22.495,28.31,22.458z M28.15,25.76
	c0.023,0.07,0.043,0.141,0.059,0.213c0.004,0.115,0.001,0.227-0.009,0.341c-0.048,0.257-0.115,0.507-0.203,0.753
	c-0.065,0.133-0.137,0.259-0.218,0.381c-0.045,0.05-0.092,0.097-0.141,0.143c-0.089,0.055-0.179,0.104-0.272,0.15
	c-0.127,0.045-0.255,0.082-0.387,0.109c-0.004,0-0.009,0-0.013,0c-0.065-0.015-0.128-0.033-0.192-0.054
	c-0.222-0.11-0.428-0.24-0.627-0.383c-0.074-0.066-0.144-0.133-0.213-0.204c-0.036-0.055-0.069-0.11-0.1-0.168
	c-0.016-0.051-0.031-0.101-0.043-0.153c-0.002-0.072-0.002-0.144,0.002-0.216c0.027-0.13,0.06-0.256,0.102-0.383
	c0.039-0.074,0.081-0.144,0.127-0.213c0.072-0.076,0.146-0.148,0.224-0.216c0.204-0.134,0.415-0.245,0.635-0.347
	c0.116-0.042,0.231-0.083,0.347-0.12c0.163-0.054,0.308-0.14,0.427-0.25c0.018,0.012,0.036,0.023,0.054,0.035
	c0.09,0.084,0.172,0.174,0.25,0.268C28.029,25.547,28.092,25.651,28.15,25.76z M28.264,19.767c0.025,0.005,0.05,0.011,0.074,0.017
	c0.001,0.004,0.001,0.008,0.002,0.012c0.034,0.316,0.044,0.64,0.018,0.956c-0.005,0.026-0.011,0.051-0.018,0.076
	c-0.001,0.001-0.001,0.002-0.002,0.003c-0.012,0.007-0.024,0.013-0.036,0.02c-0.17,0.058-0.343,0.096-0.519,0.126
	c-0.203,0.021-0.407,0.03-0.61,0.048c-0.09-0.438-0.179-0.875-0.266-1.313C27.36,19.717,27.814,19.722,28.264,19.767z
	 M21.158,18.227c-0.049-0.395-0.113-0.79-0.22-1.171c-0.145-0.52-0.343-1.024-0.576-1.511c0.636-0.002,1.272-0.035,1.909-0.046
	c0.697-0.011,1.394-0.027,2.093-0.035c0.163,0.806,0.334,1.612,0.512,2.417c0.02,0.089,0.034,0.179,0.052,0.269
	c-0.236,0.009-0.472,0.006-0.709,0.025c-0.379,0.029-0.758,0.061-1.138,0.073c-0.403,0.01-0.806-0.002-1.207-0.008
	C21.636,18.235,21.397,18.229,21.158,18.227z M19.822,11.979c1.737-0.002,3.476,0.004,5.213,0.02
	c0.601,0.006,1.203,0.004,1.802-0.012c0.287-0.008,0.576-0.012,0.863-0.01c0.067,0.002,0.136,0,0.202,0c0.064,0,0.127,0,0.191,0
	c0.018,0.062,0.032,0.125,0.044,0.188c0.016,0.242-0.001,0.482-0.03,0.723c-0.029,0.217-0.058,0.433-0.085,0.65
	c-0.239,0.08-0.491,0.132-0.74,0.174c-1.211,0.14-2.423,0.158-3.641,0.182c-0.641,0.014-1.281,0.03-1.924,0.03
	c-0.238,0.002-0.474-0.004-0.709-0.008c-0.367-0.006-0.735-0.014-1.1-0.002c-0.157,0.006-0.297,0.063-0.423,0.141
	c-0.226-0.316-0.469-0.621-0.737-0.901c-0.307-0.318-0.658-0.591-1.004-0.863c-0.12-0.094-0.246-0.18-0.367-0.273
	C18.192,11.991,19.007,11.979,19.822,11.979z M10.417,3.85c0.18,0.442,0.362,0.884,0.507,1.339c0.187,0.583,0.367,1.171,0.534,1.761
	c0.299,1.049,0.53,2.117,0.758,3.184c-0.094,0.013-0.189,0.025-0.271,0.069c-0.491,0.013-0.981,0.028-1.467,0.089
	c-0.619,0.077-1.181,0.269-1.751,0.513c-0.387,0.164-0.758,0.358-1.115,0.58c-0.003-0.489-0.006-0.979-0.005-1.468
	c0.002-0.701,0.026-1.401,0.027-2.103C7.636,7.1,7.636,6.385,7.666,5.672C7.69,5.071,7.724,4.473,7.745,3.873
	C8.636,3.846,9.526,3.832,10.417,3.85z M19.483,20.618c-0.12,0.759-0.322,1.489-0.603,2.208c-0.41,0.925-0.903,1.801-1.505,2.614
	c-0.378,0.463-0.79,0.878-1.253,1.254c-0.608,0.449-1.26,0.865-1.949,1.179c-0.318,0.119-0.637,0.213-0.97,0.274
	c-0.539,0.047-1.084,0.009-1.62-0.04c-0.283-0.024-0.563-0.06-0.844-0.095c-0.149-0.021-0.297-0.043-0.445-0.069
	c-0.28-0.046-0.558-0.113-0.833-0.184C8.949,27.626,8.45,27.43,7.96,27.226c-0.683-0.307-1.327-0.677-1.936-1.11
	c-0.373-0.304-0.706-0.637-1.016-1.006c-0.289-0.401-0.518-0.825-0.722-1.275c-0.196-0.496-0.335-1-0.425-1.527
	c-0.04-0.348-0.067-0.696-0.074-1.047c-0.007-0.378,0.027-0.756,0.067-1.131c0.12-0.799,0.334-1.561,0.631-2.313
	c0.427-0.947,0.934-1.84,1.546-2.681c0.589-0.729,1.247-1.386,1.979-1.975c0.502-0.365,1.034-0.664,1.599-0.922
	c0.339-0.128,0.677-0.229,1.032-0.301c0.487-0.05,0.977-0.058,1.468-0.068c0.146-0.004,0.285-0.039,0.41-0.1
	c0.166,0.017,0.332,0.035,0.499,0.055c0.519,0.082,1.03,0.204,1.52,0.395c0.618,0.282,1.173,0.651,1.714,1.059
	c0.318,0.249,0.636,0.499,0.941,0.766c0.282,0.244,0.532,0.521,0.766,0.81c0.399,0.55,0.735,1.14,1.015,1.758
	c0.23,0.584,0.4,1.174,0.502,1.792C19.553,19.145,19.557,19.878,19.483,20.618z M24.236,21.155
	c-1.029-0.014-2.061-0.075-3.089-0.162c0.037-0.264,0.067-0.529,0.087-0.793c0.008-0.119,0.006-0.238,0.01-0.357
	c0.635,0,1.271,0,1.905-0.021c0.589-0.02,1.173-0.09,1.763-0.1c0.105-0.002,0.211,0,0.317-0.002c0.016,0.08,0.029,0.16,0.045,0.24
	c0.081,0.39,0.169,0.779,0.256,1.167C25.099,21.142,24.668,21.16,24.236,21.155z"/>
</svg>