<?xml version="1.0" encoding="utf-8"?>
<!-- Generator: Adobe Illustrator 21.1.0, SVG Export Plug-In . SVG Version: 6.00 Build 0)  -->
<svg version="1.1" id="designs" xmlns="http://www.w3.org/2000/svg" xmlns:xlink="http://www.w3.org/1999/xlink" x="0px" y="0px"
	 width="32px" height="32px" viewBox="0 0 32 32" style="enable-background:new 0 0 32 32;" xml:space="preserve">
<style type="text/css">
	.sketchy_een{fill:#111918;}
</style>
<path class="sketchy_een" d="M27.475,15.905c-0.073-0.431-0.241-0.817-0.516-1.159c-0.39-0.483-0.906-0.84-1.395-1.215
	c-0.012-0.009-0.028-0.011-0.041-0.019c-0.021-0.303-0.041-0.607-0.068-0.909c-0.039-0.419-0.097-0.835-0.147-1.254
	c-0.058-0.493-0.11-0.989-0.234-1.472c-0.118-0.458-0.269-0.896-0.442-1.335c-0.344-0.869-0.711-1.737-1.184-2.544
	c-0.261-0.446-0.539-0.869-0.858-1.275c-0.288-0.365-0.599-0.682-0.964-0.968c-0.404-0.319-0.842-0.587-1.306-0.811
	c-0.46-0.224-0.931-0.444-1.422-0.593C18.145,2.125,17.359,2,16.572,2c-0.146,0-0.291,0.004-0.437,0.013
	c-0.456,0.027-0.916,0.039-1.37,0.089c-0.502,0.054-1.005,0.145-1.499,0.253c-0.937,0.205-1.876,0.537-2.683,1.063
	C10.204,3.665,9.852,3.96,9.508,4.252C9.197,4.515,8.9,4.803,8.648,5.125C8.347,5.508,8.059,5.89,7.812,6.309
	C7.584,6.7,7.366,7.096,7.167,7.503c-0.394,0.794-0.674,1.64-0.85,2.507c-0.174,0.846-0.209,1.716-0.315,2.572
	c-0.07,0.483-0.138,0.966-0.201,1.449c-0.027,0.02-0.054,0.031-0.081,0.052c-0.137,0.108-0.272,0.216-0.404,0.328
	c-0.224,0.193-0.402,0.441-0.556,0.692c-0.199,0.321-0.286,0.728-0.28,1.101c0.006,0.419,0.166,0.812,0.369,1.169
	c0.309,0.541,0.914,0.86,1.495,1.02c0.365,0.102,0.74,0.089,1.107,0.027c0.235-0.04,0.461-0.134,0.693-0.192
	c0.015,0,0.029,0,0.044,0c0.017,0.004,0.035,0.009,0.052,0.014c0.072,0.038,0.14,0.08,0.208,0.125
	c0.283,0.248,0.522,0.552,0.776,0.828c0.058,0.063,0.125,0.114,0.184,0.174c-0.063,0.338-0.13,0.675-0.169,1.018
	c-0.025,0.207-0.046,0.417-0.064,0.624c-0.041,0.491,0.064,1.026,0.241,1.484c0.335,0.875,1.054,1.537,1.467,2.371
	c0.054,0.146,0.096,0.293,0.127,0.446c0,0.007,0,0.015,0,0.023c-0.015,0.067-0.034,0.133-0.055,0.199
	c-0.146,0.139-0.304,0.261-0.453,0.4c-0.224,0.211-0.442,0.431-0.62,0.684c-0.286,0.4-0.471,0.866-0.433,1.364
	c0.017,0.228,0.066,0.454,0.137,0.67c0.093,0.288,0.243,0.5,0.429,0.732c0.116,0.116,0.255,0.197,0.415,0.242
	c0.243,0.066,0.508,0.033,0.726-0.095c0.211-0.122,0.369-0.328,0.433-0.562c0.06-0.22,0.05-0.537-0.095-0.728
	c-0.038-0.048-0.07-0.096-0.1-0.147c-0.023-0.074-0.041-0.148-0.056-0.225c0-0.002,0-0.003,0-0.005c0-0.001,0.001-0.002,0.001-0.003
	c0.038-0.072,0.079-0.142,0.123-0.21c0.226-0.253,0.48-0.466,0.735-0.694c0.361-0.323,0.564-0.781,0.632-1.256
	c0.021-0.114,0.035-0.23,0.039-0.346c0.01-0.164-0.035-0.346-0.064-0.508c-0.046-0.251-0.149-0.496-0.253-0.728
	c-0.197-0.439-0.485-0.825-0.765-1.213c-0.232-0.323-0.49-0.643-0.674-0.998c-0.062-0.182-0.106-0.371-0.14-0.562
	c-0.014-0.272,0.019-0.544,0.055-0.815c0.016-0.094,0.038-0.185,0.055-0.278c0.258,0.037,0.521,0.049,0.78,0.035
	c0.185-0.008,0.394-0.019,0.568-0.064c0.207-0.053,0.391-0.142,0.565-0.247c-0.027,0.137-0.062,0.271-0.08,0.411
	c-0.012,0.106-0.027,0.211-0.037,0.317c-0.021,0.228,0.002,0.437,0.039,0.663c0.039,0.249,0.151,0.493,0.243,0.728
	c0.172,0.442,0.383,0.865,0.622,1.275c0.106,0.18,0.24,0.344,0.357,0.518c0.095,0.142,0.178,0.287,0.251,0.439
	c0.055,0.163,0.099,0.326,0.133,0.494c0.005,0.089,0.007,0.177,0.005,0.267c-0.03,0.132-0.073,0.26-0.122,0.387
	c-0.189,0.388-0.435,0.746-0.615,1.139c-0.259,0.572-0.527,1.217-0.485,1.86c0.029,0.462,0.363,0.848,0.848,0.848
	c0.224,0,0.442-0.089,0.599-0.249c0.145-0.143,0.272-0.388,0.249-0.599c-0.011-0.111-0.011-0.219-0.002-0.328
	c0.053-0.252,0.126-0.493,0.217-0.735c0.178-0.38,0.393-0.741,0.571-1.122c0.133-0.286,0.265-0.593,0.313-0.906
	c0.058-0.375,0.027-0.744-0.05-1.115c-0.104-0.498-0.33-0.949-0.616-1.364c-0.264-0.389-0.489-0.79-0.688-1.214
	c-0.096-0.232-0.187-0.47-0.24-0.713c-0.001-0.086,0.005-0.17,0.014-0.254c0.056-0.328,0.143-0.646,0.236-0.963
	c0.064,0.047,0.123,0.101,0.189,0.142c0.12,0.079,0.245,0.145,0.375,0.207c0.317,0.151,0.632,0.205,0.981,0.23
	c0.018,0.001,0.039-0.003,0.057-0.002c-0.005,0.197-0.008,0.394,0.014,0.59c0.056,0.485,0.201,0.943,0.423,1.379
	c0.104,0.207,0.253,0.396,0.386,0.587c0.361,0.518,0.718,1.024,0.992,1.592c0.089,0.234,0.161,0.469,0.21,0.715
	c0.004,0.079,0.003,0.158-0.002,0.237c-0.018,0.075-0.038,0.147-0.064,0.219c-0.197,0.397-0.464,0.756-0.643,1.165
	c-0.207,0.477-0.388,0.977-0.5,1.484c-0.102,0.454,0.131,0.921,0.595,1.049c0.22,0.06,0.46,0.029,0.657-0.085
	c0.172-0.102,0.361-0.305,0.392-0.51c0.061-0.389,0.173-0.766,0.311-1.134c0.086-0.184,0.18-0.361,0.288-0.535
	c0.122-0.199,0.247-0.394,0.354-0.601c0.151-0.292,0.238-0.587,0.276-0.914c0.033-0.278,0.006-0.533-0.039-0.806
	c-0.039-0.224-0.106-0.438-0.178-0.653c-0.17-0.5-0.431-0.979-0.728-1.414c-0.3-0.436-0.663-0.858-0.9-1.334
	c-0.06-0.174-0.107-0.351-0.141-0.532c-0.019-0.359,0.017-0.721,0.053-1.08c0.102-0.079,0.2-0.164,0.3-0.241
	c0.081-0.065,0.161-0.133,0.241-0.2c0.044-0.03,0.088-0.057,0.135-0.082c0.118-0.043,0.236-0.081,0.356-0.113
	c0.184,0.159,0.368,0.329,0.558,0.489c-0.102,0.691-0.158,1.406,0.005,2.084c0.077,0.321,0.245,0.643,0.419,0.92
	c0.114,0.185,0.259,0.356,0.394,0.522c0.143,0.177,0.287,0.352,0.428,0.53c0.152,0.215,0.285,0.431,0.402,0.666
	c0.076,0.213,0.133,0.427,0.174,0.651c0.029,0.252,0.045,0.502,0.03,0.756c-0.039,0.195-0.101,0.381-0.174,0.567
	c-0.187,0.436-0.371,0.874-0.51,1.329c-0.145,0.475-0.222,0.97-0.28,1.462c-0.027,0.224,0.112,0.487,0.265,0.641
	C21.024,29.905,21.259,30,21.497,30c0.24,0,0.473-0.095,0.641-0.265c0.18-0.178,0.249-0.394,0.267-0.641
	c0.009-0.122,0.02-0.244,0.032-0.367c0.043-0.254,0.095-0.504,0.164-0.751c0.077-0.281,0.191-0.55,0.303-0.818
	c-0.021,0.05-0.042,0.101-0.063,0.152c0.108-0.249,0.222-0.498,0.311-0.752c0.124-0.361,0.17-0.738,0.172-1.117
	c0.002-0.211-0.031-0.423-0.058-0.632c-0.035-0.263-0.075-0.516-0.153-0.771c-0.149-0.473-0.379-0.891-0.674-1.287
	c-0.258-0.347-0.546-0.666-0.82-0.998c-0.093-0.133-0.172-0.271-0.244-0.417c-0.035-0.1-0.063-0.201-0.084-0.305
	c-0.017-0.261,0.005-0.521,0.033-0.78c0.007-0.001,0.014,0,0.021,0c0.272-0.035,0.477-0.093,0.715-0.232
	c0.182-0.106,0.35-0.27,0.489-0.425c0.141-0.157,0.274-0.342,0.388-0.52c0.135-0.213,0.265-0.43,0.41-0.635
	c0.019-0.021,0.038-0.041,0.058-0.061c0.06-0.016,0.12-0.03,0.181-0.042c0.056-0.004,0.112-0.006,0.168-0.004
	c0.18,0.04,0.357,0.086,0.536,0.129c0.263,0.064,0.535,0.095,0.804,0.13c0.317,0.044,0.692,0.006,0.983-0.116
	c0.278-0.116,0.493-0.232,0.719-0.433c0.162-0.143,0.288-0.315,0.41-0.491C27.535,17.076,27.568,16.452,27.475,15.905z
	 M11.394,27.708c-0.004,0.01-0.008,0.02-0.013,0.03c0,0.001-0.001,0.001-0.002,0.002C11.385,27.73,11.39,27.719,11.394,27.708z
	 M11.379,27.744c0-0.001,0.001-0.001,0.001-0.002c-0.007,0.016-0.013,0.032-0.02,0.048C11.366,27.774,11.372,27.759,11.379,27.744z
	 M19.062,19.112c0.021-0.004,0.042-0.008,0.064-0.01c0.001,0,0.001,0.001,0.002,0.001C19.106,19.106,19.084,19.109,19.062,19.112z
	 M21.057,18.242c0.014,0.006,0.029,0.012,0.043,0.018l0,0C21.085,18.255,21.071,18.249,21.057,18.242L21.057,18.242z M21.132,18.261
	c0.015-0.011,0.03-0.023,0.044-0.035c-0.014,0.012-0.028,0.024-0.043,0.036C21.134,18.262,21.133,18.262,21.132,18.261z
	 M25.477,16.364c-0.012,0.02-0.024,0.04-0.036,0.06c-0.009,0.01-0.019,0.019-0.029,0.029c-0.028,0.018-0.057,0.034-0.085,0.05
	c-0.012,0.003-0.024,0.006-0.036,0.009c-0.12,0.005-0.24,0.001-0.36-0.011c-0.176-0.027-0.351-0.057-0.526-0.084
	c-0.249-0.037-0.498-0.079-0.75-0.058c-0.209,0.019-0.417,0.048-0.626,0.079c-0.41,0.064-0.753,0.278-1.047,0.564
	c-0.153,0.149-0.272,0.344-0.388,0.524c-0.137,0.216-0.272,0.434-0.414,0.646c-0.023,0.026-0.046,0.052-0.069,0.077
	c-0.066-0.037-0.131-0.077-0.194-0.119c-0.119-0.096-0.238-0.193-0.357-0.289c-0.17-0.137-0.336-0.284-0.531-0.384
	c-0.29-0.151-0.639-0.245-0.966-0.207c-0.315,0.037-0.63,0.102-0.931,0.203c-0.313,0.106-0.547,0.276-0.802,0.479
	c-0.08,0.065-0.161,0.129-0.242,0.194c-0.008,0.006-0.016,0.012-0.024,0.018c0.011-0.008,0.021-0.017,0.032-0.025
	c-0.127,0.095-0.258,0.172-0.397,0.24c-0.117,0.041-0.234,0.072-0.354,0.097c-0.038,0.002-0.076,0.002-0.114,0.001
	c-0.067-0.015-0.131-0.032-0.195-0.053c-0.123-0.065-0.239-0.136-0.355-0.213c-0.134-0.11-0.265-0.222-0.397-0.333
	c-0.155-0.126-0.313-0.251-0.479-0.363c-0.317-0.214-0.755-0.27-1.124-0.187c-0.638,0.145-1.045,0.669-1.515,1.08
	c-0.053,0.036-0.107,0.069-0.164,0.1c-0.006,0.001-0.013,0.003-0.019,0.005c-0.21,0.017-0.418,0.026-0.628,0.013
	c-0.101-0.021-0.198-0.048-0.298-0.082c-0.105-0.048-0.206-0.101-0.304-0.163c-0.317-0.273-0.605-0.584-0.904-0.879
	c-0.153-0.151-0.313-0.29-0.487-0.423c-0.249-0.189-0.518-0.313-0.821-0.396c-0.363-0.1-0.753-0.039-1.109,0.05
	c-0.132,0.033-0.26,0.07-0.391,0.099c-0.034,0-0.069,0-0.103-0.002c-0.085-0.019-0.167-0.043-0.249-0.073
	c-0.078-0.041-0.154-0.085-0.229-0.132c-0.016-0.014-0.031-0.029-0.047-0.044c-0.015-0.024-0.029-0.048-0.042-0.073
	c-0.02-0.058-0.037-0.115-0.051-0.174c0-0.019,0-0.038,0.001-0.056c0.004-0.015,0.008-0.029,0.012-0.044
	C6.35,16.082,6.37,16.05,6.39,16.019c0.2-0.224,0.442-0.401,0.68-0.585c0.093-0.072,0.162-0.183,0.209-0.303
	c0.028-0.022,0.063-0.034,0.089-0.059c0.193-0.193,0.249-0.408,0.278-0.67c0.075-0.667,0.141-1.335,0.207-2.003
	c0.059-0.567,0.09-1.136,0.158-1.701c0.124-0.723,0.318-1.42,0.589-2.101C8.945,7.841,9.351,7.111,9.843,6.44
	c0.374-0.463,0.81-0.859,1.276-1.23c0.177-0.134,0.355-0.267,0.547-0.377c0.251-0.142,0.511-0.266,0.773-0.385
	c0.631-0.243,1.293-0.386,1.961-0.485c0.513-0.063,1.024-0.073,1.539-0.106c0.485-0.031,0.961-0.02,1.446,0.024
	c0.466,0.078,0.928,0.207,1.368,0.371c0.645,0.284,1.273,0.605,1.849,1.016c0.27,0.234,0.506,0.489,0.736,0.764
	c0.681,0.919,1.193,1.951,1.646,2.999c0.242,0.595,0.434,1.189,0.536,1.821c0.099,0.892,0.199,1.79,0.226,2.688
	c-0.031-0.004-0.06-0.017-0.091-0.017c-0.081,0-0.164,0.013-0.244,0.04c-0.326,0.11-0.651,0.182-0.987,0.242
	c-0.324,0.059-0.644,0.129-0.968,0.181c-0.81,0.089-1.633,0.066-2.448,0.062c-0.877-0.004-1.75-0.033-2.627-0.077
	c-0.848-0.042-1.694-0.05-2.542-0.083c-0.446-0.017-0.893-0.029-1.339-0.05c-0.458-0.023-0.916-0.073-1.377-0.102
	c-0.433-0.027-0.796,0.384-0.796,0.798c0,0.45,0.363,0.775,0.796,0.798c0.906,0.044,1.812,0.05,2.716,0.095
	c0.417,0.021,0.835,0.027,1.25,0.06c0.431,0.033,0.86,0.068,1.292,0.1c0.875,0.06,1.748,0.124,2.627,0.135
	c0.44,0.004,0.881,0.004,1.323,0.014c0.413,0.01,0.823,0.017,1.236-0.021c0.423-0.037,0.833-0.116,1.248-0.193
	c0.361-0.068,0.726-0.118,1.082-0.201c0.202-0.047,0.356-0.178,0.472-0.337c0.067,0.072,0.139,0.14,0.226,0.204
	c0.057,0.042,0.114,0.083,0.17,0.126c0.229,0.186,0.442,0.38,0.64,0.598c0.02,0.031,0.038,0.062,0.056,0.094
	c0.012,0.043,0.022,0.086,0.031,0.13c0.003,0.051,0.005,0.102,0.005,0.153C25.49,16.314,25.484,16.339,25.477,16.364z"/>
</svg>