<?xml version="1.0" encoding="utf-8"?>
<!-- Generator: Adobe Illustrator 21.1.0, SVG Export Plug-In . SVG Version: 6.00 Build 0)  -->
<svg version="1.1" id="designs" xmlns="http://www.w3.org/2000/svg" xmlns:xlink="http://www.w3.org/1999/xlink" x="0px" y="0px"
	 width="32px" height="32px" viewBox="0 0 32 32" style="enable-background:new 0 0 32 32;" xml:space="preserve">
<style type="text/css">
	.sketchy_een{fill:#111918;}
</style>
<path class="sketchy_een" d="M13.975,28.722L13.975,28.722c0.007,0.003,0.014,0.006,0.021,0.009
	C13.989,28.728,13.982,28.725,13.975,28.722z M13.926,28.701c0.016,0.007,0.033,0.014,0.049,0.021c0,0-0.001,0-0.001,0
	C13.958,28.715,13.942,28.708,13.926,28.701z M30,17.578c0.006,0.363-0.047,0.763-0.184,1.101c-0.077,0.186-0.143,0.392-0.253,0.565
	c-0.084,0.13-0.177,0.253-0.273,0.377c-0.381,0.479-0.846,0.854-1.356,1.189c-0.414,0.275-0.84,0.532-1.27,0.783
	c-0.049,0.029-0.103,0.036-0.156,0.052c-0.122,0.54-0.299,1.069-0.529,1.566c-0.316,0.677-0.789,1.266-1.311,1.796
	c-0.555,0.565-1.205,1.044-1.827,1.533c-0.644,0.506-1.295,1.022-2.004,1.438c-0.351,0.206-0.72,0.379-1.089,0.551
	c-0.365,0.173-0.726,0.357-1.099,0.514c-0.226,0.098-0.457,0.202-0.697,0.263c-0.23,0.059-0.455,0.092-0.691,0.122
	c-0.338,0.043-0.691,0.022-1.028-0.02c-0.398-0.049-0.783-0.11-1.162-0.249c-0.368-0.136-0.734-0.285-1.096-0.438
	c0,0-0.001,0-0.001-0.001c-0.054-0.023-0.108-0.046-0.163-0.069c0.038,0.017,0.076,0.033,0.115,0.049
	c-0.247-0.103-0.494-0.206-0.741-0.309c-0.325-0.132-0.657-0.243-0.975-0.388c-0.267-0.122-0.524-0.255-0.777-0.4
	c-0.493-0.283-0.966-0.606-1.417-0.952c-0.373-0.285-0.734-0.589-1.093-0.893c-0.3-0.253-0.589-0.518-0.844-0.818
	c-0.204-0.239-0.418-0.5-0.565-0.781c-0.1-0.19-0.186-0.389-0.271-0.587c-0.152-0.361-0.305-0.722-0.435-1.093
	c-0.139,0.116-0.299,0.173-0.483,0.187c-0.385,0.027-0.755,0.02-1.136-0.033c-0.597-0.082-1.146-0.343-1.611-0.724
	c-0.608-0.498-0.991-1.172-1.289-1.886c-0.314-0.75-0.43-1.648-0.049-2.398c0.133-0.261,0.316-0.443,0.557-0.608
	c0.061-0.039,0.245-0.114,0.338-0.128c0.09-0.013,0.18-0.03,0.272-0.038c-0.003-0.153-0.002-0.307,0.005-0.46
	c0.018-0.436,0.069-0.881,0.155-1.309c0.077-0.387,0.169-0.763,0.298-1.134c0.034-0.097,0.07-0.194,0.107-0.292
	c-0.034,0.003-0.069,0.006-0.103,0.009c-0.345,0.027-0.716-0.012-0.975-0.271c-0.243-0.243-0.31-0.602-0.218-0.924
	c0.067-0.234,0.224-0.461,0.347-0.669c0.21-0.355,0.432-0.699,0.673-1.036c0.52-0.724,1.152-1.348,1.79-1.968
	c0.591-0.577,1.177-1.154,1.815-1.68c0.389-0.32,0.781-0.634,1.195-0.92c0.172-0.12,0.351-0.228,0.53-0.336
	C8.98,5.815,8.934,5.769,8.886,5.724C8.761,5.605,8.635,5.489,8.51,5.371C8.215,5.092,7.907,4.778,7.797,4.376
	C7.705,4.043,7.779,3.623,8.031,3.375c0.173-0.171,0.373-0.281,0.606-0.349c0.147-0.045,0.296-0.08,0.449-0.112
	c0.389-0.082,0.787-0.139,1.181-0.19c0.865-0.108,1.724-0.177,2.597-0.177c0.012,0,0.025,0,0.037,0c0.885,0,1.784,0.067,2.647,0.265
	c0.803,0.182,1.594,0.387,2.357,0.695c0.422,0.169,0.83,0.392,1.225,0.618c0.396,0.224,0.779,0.463,1.15,0.73
	c0.032,0.023,0.055,0.051,0.084,0.076c0.877-0.32,1.765-0.629,2.68-0.807c0.292-0.055,0.587-0.108,0.883-0.141
	c0.096-0.009,0.2-0.027,0.3-0.027c0.029,0,0.057,0.002,0.085,0.005c0.214,0.026,0.412,0.047,0.602,0.159
	c0.131,0.077,0.281,0.218,0.357,0.349c0.413,0.704-0.09,1.454-0.399,2.112c-0.019,0.059-0.035,0.116-0.048,0.175
	c0,0.006,0,0.011,0,0.017c0.041,0.071,0.085,0.139,0.132,0.206c0.205,0.244,0.436,0.462,0.674,0.674
	c0.267,0.239,0.524,0.485,0.771,0.742c0.528,0.546,1.081,1.075,1.564,1.664c0.52,0.638,0.989,1.331,1.338,2.078
	c0.365,0.785,0.559,1.625,0.646,2.486c0.033,0.347,0.059,0.699,0.029,1.05c-0.03,0.381-0.095,0.754-0.193,1.123
	c0.051,0.102,0.092,0.208,0.121,0.302C29.952,17.251,29.998,17.419,30,17.578z M4.891,11.905c0.082,0.003,0.163,0.013,0.234,0.038
	c0.169,0.061,0.324,0.116,0.453,0.247c0.12,0.122,0.218,0.249,0.263,0.418c0.071,0.265,0.051,0.524-0.041,0.783
	c-0.057,0.159-0.118,0.316-0.181,0.475c-0.135,0.345-0.267,0.689-0.375,1.046c-0.095,0.316-0.156,0.645-0.206,0.973
	c-0.044,0.394-0.052,0.784-0.021,1.179c0.193,0.062,0.389,0.11,0.581,0.179c0.202,0.073,0.402,0.156,0.601,0.242
	c-0.012-0.154-0.023-0.309-0.036-0.463c-0.023-0.29,0.154-0.539,0.39-0.694c0.033-0.157,0.096-0.307,0.21-0.42
	c0.169-0.169,0.355-0.218,0.585-0.243c0.378-0.044,0.757-0.066,1.135-0.11c0.367-0.053,0.732-0.11,1.096-0.175
	c0.412-0.075,0.81-0.192,1.207-0.32c0.826-0.264,1.635-0.582,2.439-0.904c0.572-0.248,1.131-0.519,1.676-0.825
	c0.514-0.287,0.998-0.633,1.472-0.98c0.483-0.382,0.942-0.784,1.387-1.212c0.5-0.479,0.952-1.007,1.401-1.533
	c0.145-0.169,0.357-0.246,0.572-0.246c0.23,0,0.463,0.088,0.621,0.246c0.101,0.101,0.161,0.229,0.201,0.365
	c0.145,0.071,0.274,0.173,0.359,0.32c0.196,0.336,0.391,0.669,0.591,0.999c0.124,0.205,0.268,0.398,0.413,0.588
	c0.514,0.633,1.095,1.207,1.725,1.728c0.474,0.338,0.982,0.605,1.511,0.851c0.121,0.049,0.243,0.094,0.368,0.131
	c0.192,0.057,0.387,0.106,0.577,0.171c0.418,0.145,0.691,0.553,0.567,1.001c-0.019,0.07-0.06,0.129-0.097,0.19
	c0.03,0.229,0.055,0.459,0.08,0.688c0.172-0.087,0.342-0.178,0.519-0.254c0.159-0.069,0.32-0.135,0.483-0.188
	c0.219-0.069,0.467-0.133,0.702-0.133c0.03,0,0.061,0.001,0.091,0.003c0.01,0.001,0.021,0.002,0.031,0.003
	c0.001-0.007,0.003-0.013,0.004-0.02c0.038-0.398,0.024-0.787-0.022-1.182c-0.09-0.565-0.229-1.127-0.435-1.662
	c-0.304-0.673-0.696-1.304-1.137-1.894c-0.288-0.361-0.596-0.702-0.913-1.039c-0.357-0.379-0.716-0.758-1.087-1.122
	c-0.387-0.377-0.818-0.708-1.16-1.128c-0.273-0.334-0.495-0.687-0.522-1.126c-0.024-0.361,0.08-0.699,0.237-1.021
	c0.039-0.078,0.079-0.156,0.118-0.234c-1.017,0.189-1.975,0.584-2.94,0.952c-0.198,0.075-0.461,0.02-0.638-0.084
	c-0.08-0.046-0.145-0.111-0.205-0.18c-0.11-0.011-0.217-0.044-0.3-0.103c-0.653-0.476-1.341-0.874-2.072-1.214
	c-0.447-0.163-0.899-0.295-1.366-0.395c-0.479-0.103-0.958-0.205-1.441-0.28c-0.699-0.066-1.406-0.104-2.109-0.097
	c-0.717,0.009-1.425,0.053-2.136,0.132c-0.136,0.02-0.272,0.041-0.408,0.064c0.117,0.114,0.234,0.227,0.348,0.342
	c0.122,0.126,0.251,0.247,0.369,0.377c0.102,0.112,0.196,0.23,0.283,0.355c0.08,0.116,0.131,0.355,0.131,0.493
	c0,0.13-0.049,0.391-0.131,0.497c-0.063,0.08-0.124,0.161-0.186,0.241c-0.057,0.043-0.114,0.088-0.173,0.133
	c-0.088,0.067-0.175,0.13-0.273,0.182c-0.075,0.043-0.149,0.086-0.226,0.128C9.901,7.286,9.716,7.392,9.536,7.506
	c-0.301,0.191-0.587,0.398-0.87,0.612C8.055,8.61,7.471,9.122,6.91,9.669c-0.575,0.558-1.15,1.112-1.665,1.728
	C5.121,11.563,5.003,11.733,4.891,11.905z M6.325,21.149c0.068-0.003,0.129,0.02,0.192,0.036c-0.061-0.506-0.087-1.018-0.13-1.521
	c-0.011-0.135-0.025-0.271-0.038-0.406c-0.037-0.015-0.077-0.017-0.112-0.039c-0.189-0.115-0.385-0.217-0.587-0.309
	c-0.511-0.2-1.036-0.347-1.567-0.48c-0.105,0.006-0.211,0.003-0.316-0.001c-0.05-0.002-0.1-0.003-0.149-0.004
	c-0.012,0.04-0.022,0.081-0.031,0.122c-0.006,0.117-0.005,0.233,0.004,0.35c0.048,0.236,0.125,0.461,0.213,0.684
	c0.137,0.274,0.281,0.538,0.458,0.787c0.115,0.137,0.238,0.26,0.372,0.377c0.139,0.098,0.28,0.184,0.433,0.259
	c0.149,0.055,0.297,0.095,0.454,0.124C5.789,21.156,6.056,21.159,6.325,21.149z M25.168,18.322c-0.007-0.728-0.031-1.453-0.11-2.177
	c-0.117-0.036-0.235-0.07-0.349-0.117c-0.351-0.145-0.697-0.3-1.038-0.469c-0.614-0.302-1.168-0.71-1.664-1.181
	c-0.453-0.43-0.903-0.867-1.293-1.358c-0.226-0.287-0.465-0.571-0.659-0.879c-0.126-0.2-0.246-0.403-0.368-0.605
	c-0.313,0.332-0.634,0.657-0.973,0.966c-0.534,0.489-1.101,0.942-1.69,1.362c-0.693,0.497-1.425,0.934-2.192,1.309
	c-0.809,0.394-1.65,0.716-2.488,1.042c-0.777,0.302-1.574,0.599-2.398,0.752c-0.683,0.126-1.372,0.212-2.061,0.291
	c0.042,0.666,0.064,1.334,0.12,2c0.054,0.619,0.088,1.239,0.162,1.857c0.054,0.329,0.127,0.657,0.237,0.971
	c0.103,0.299,0.229,0.591,0.351,0.885c0.04,0.094,0.078,0.189,0.124,0.279c0.087,0.174,0.192,0.335,0.302,0.492
	c0.537,0.653,1.201,1.203,1.865,1.723c0.627,0.47,1.297,0.903,2.009,1.232c0.526,0.215,1.055,0.424,1.584,0.63
	c0.499,0.194,1.007,0.372,1.535,0.461c0.346,0.038,0.694,0.055,1.041,0.024c0.283-0.056,0.553-0.143,0.821-0.248
	c0.347-0.151,0.686-0.318,1.03-0.476c0.353-0.163,0.703-0.328,1.036-0.532c0.593-0.364,1.15-0.779,1.702-1.203
	c0.478-0.374,0.952-0.752,1.401-1.164c0.353-0.328,0.676-0.7,0.976-1.081c0.216-0.302,0.389-0.623,0.543-0.96
	c0.167-0.441,0.298-0.898,0.377-1.363C25.185,19.968,25.175,19.143,25.168,18.322z M28.361,17.733
	c-0.138,0.033-0.271,0.081-0.404,0.132c-0.426,0.199-0.831,0.434-1.237,0.67c-0.001,0.404-0.007,0.809-0.017,1.214
	c0.219-0.138,0.45-0.26,0.658-0.412c0.244-0.196,0.462-0.412,0.662-0.652c0.072-0.101,0.138-0.203,0.195-0.314
	c0.059-0.162,0.104-0.324,0.136-0.493C28.357,17.828,28.36,17.781,28.361,17.733z M28.398,17.735c0-0.001-0.001-0.003-0.002-0.004h0
	C28.397,17.732,28.398,17.734,28.398,17.735z M14.225,18.459c0-0.465-0.389-0.854-0.854-0.854s-0.854,0.389-0.854,0.854
	s0.389,0.854,0.854,0.854S14.225,18.924,14.225,18.459z M19.782,18.06c-0.455,0-0.836,0.381-0.836,0.836
	c0,0.455,0.381,0.836,0.836,0.836s0.836-0.381,0.836-0.836C20.618,18.44,20.237,18.06,19.782,18.06z M19.953,22.727
	c-0.118-0.068-0.28-0.118-0.433-0.118c-0.071,0-0.141,0.011-0.203,0.036c-0.202,0.082-0.42,0.124-0.634,0.159
	c-0.252,0.041-0.501,0.091-0.752,0.131c-0.926,0.106-1.879,0.079-2.805-0.03c-0.361-0.057-0.72-0.122-1.079-0.181
	c-0.235-0.039-0.443-0.039-0.657,0.086c-0.19,0.11-0.334,0.296-0.391,0.508c-0.061,0.22-0.029,0.459,0.084,0.657
	c0.102,0.173,0.302,0.357,0.51,0.391c0.595,0.096,1.195,0.19,1.798,0.237c0.483,0.039,0.969,0.045,1.454,0.047
	c0.573,0.004,1.138-0.035,1.705-0.131c0.473-0.08,0.969-0.143,1.403-0.365c0.328-0.167,0.473-0.591,0.379-0.932
	C20.274,23.015,20.137,22.834,19.953,22.727z"/>
</svg>