<?xml version="1.0" encoding="utf-8"?>
<!-- Generator: Adobe Illustrator 21.1.0, SVG Export Plug-In . SVG Version: 6.00 Build 0)  -->
<svg version="1.1" id="designs" xmlns="http://www.w3.org/2000/svg" xmlns:xlink="http://www.w3.org/1999/xlink" x="0px" y="0px"
	 width="32px" height="32px" viewBox="0 0 32 32" style="enable-background:new 0 0 32 32;" xml:space="preserve">
<style type="text/css">
	.sketchy_een{fill:#111918;}
</style>
<path class="sketchy_een" d="M9.31,5.324C9.309,5.326,9.307,5.328,9.306,5.33c-0.042,0.054-0.085,0.107-0.126,0.16
	C9.223,5.435,9.267,5.38,9.31,5.324z M25.053,14.579c-0.014,0.885-0.01,1.769-0.008,2.655c0.002,0.856,0.02,1.716,0.002,2.572
	c-0.016,0.864-0.028,1.73-0.117,2.59c-0.052,0.479-0.115,0.965-0.252,1.43c-0.125,0.43-0.25,0.864-0.41,1.284
	c-0.357,0.931-0.945,1.741-1.589,2.496c-0.608,0.715-1.438,1.207-2.284,1.591c-0.905,0.41-1.862,0.677-2.857,0.755
	c-0.45,0.036-0.903,0.036-1.357,0.046c-0.424,0.008-0.844-0.002-1.268-0.038c-0.44-0.036-0.878-0.097-1.32-0.127
	c-0.475-0.03-0.959-0.046-1.421-0.178c-0.325-0.095-0.646-0.218-0.931-0.4c-0.166-0.107-0.327-0.222-0.483-0.341
	c-0.4-0.305-0.791-0.612-1.145-0.969c-0.775-0.781-1.197-1.876-1.569-2.889C7.888,24.632,7.765,24.2,7.662,23.76
	c-0.119-0.501-0.166-1.024-0.214-1.537c-0.038-0.41-0.048-0.82-0.089-1.23c-0.044-0.436-0.095-0.872-0.117-1.31
	C7.2,18.854,7.16,18.028,7.162,17.198c0.002-0.806,0.032-1.617,0.018-2.423c-0.006-0.339-0.012-0.676-0.03-1.012
	c-0.023-0.421-0.026-0.841-0.076-1.259c-0.067-0.502-0.125-1.004-0.15-1.511c-0.009-0.178,0.057-0.344,0.167-0.475
	c0.143-0.856,0.319-1.709,0.653-2.511C7.941,7.54,8.147,7.08,8.397,6.638C8.657,6.173,8.978,5.75,9.306,5.33
	c0.348-0.451,0.696-0.906,1.128-1.282c0.481-0.418,1.001-0.763,1.545-1.09c0.388-0.232,0.789-0.44,1.222-0.573
	c0.44-0.133,0.899-0.196,1.353-0.246c0.293-0.031,0.59-0.058,0.887-0.071C15.542,2.026,15.651,2,15.764,2
	c0.119,0,0.23,0.028,0.331,0.073c0.389,0.017,0.778,0.042,1.163,0.099c0.464,0.069,0.901,0.182,1.331,0.371
	c0.408,0.178,0.798,0.392,1.179,0.622c0.699,0.424,1.375,0.882,2.041,1.353c0.357,0.253,0.693,0.553,0.965,0.894
	c0.311,0.39,0.583,0.812,0.862,1.226c0.509,0.753,0.842,1.591,1.074,2.467c0.242,0.919,0.309,1.886,0.349,2.833
	C25.093,12.818,25.069,13.697,25.053,14.579z M16.83,3.835c-0.076-0.009-0.153-0.008-0.23-0.016
	c0.003,0.342,0.009,0.684,0.012,1.026c0.006,0.654,0.026,1.308,0.036,1.961c0.016,1.242,0.026,2.484,0.107,3.725
	c0,0.007-0.004,0.012-0.003,0.019c0.95-0.007,1.901-0.011,2.851-0.022c0.787-0.01,1.573-0.026,2.358-0.048
	c0.339-0.008,0.676-0.008,1.014-0.016c0.066-0.002,0.132-0.008,0.199-0.011c-0.047-0.295-0.101-0.59-0.18-0.876
	c-0.1-0.37-0.228-0.733-0.368-1.091c-0.312-0.666-0.739-1.287-1.172-1.88c-0.184-0.219-0.385-0.427-0.603-0.614
	c-0.218-0.156-0.441-0.302-0.655-0.461c-0.254-0.188-0.511-0.368-0.777-0.539c-0.514-0.327-1.031-0.647-1.583-0.905
	C17.508,3.969,17.174,3.891,16.83,3.835z M9.298,8.559c-0.271,0.682-0.411,1.405-0.526,2.13c0.965,0.007,1.932,0.02,2.897,0.001
	c1.072-0.02,2.142-0.089,3.214-0.115c0.083-0.002,0.166-0.001,0.248-0.003c-0.001-0.014-0.008-0.026-0.009-0.04
	c-0.063-1.24-0.054-2.483-0.079-3.725c-0.019-1.002-0.049-2.002-0.079-3.004c-0.175,0.014-0.352,0.015-0.527,0.035
	c-0.364,0.059-0.725,0.142-1.072,0.27c-0.268,0.128-0.522,0.283-0.777,0.438c-0.256,0.154-0.51,0.306-0.752,0.48
	c-0.213,0.174-0.423,0.352-0.609,0.554c-0.181,0.194-0.348,0.4-0.513,0.608c-0.3,0.395-0.589,0.795-0.844,1.224
	C9.651,7.78,9.469,8.166,9.298,8.559z M23.323,12.111c-0.084,0-0.169,0.004-0.254,0.003c-0.151,0-0.301,0-0.45,0
	c-0.495,0.006-0.989,0.008-1.482,0.018c-0.539,0.008-1.076,0.034-1.613,0.036c-0.537,0.004-1.076,0.014-1.613,0.016
	c-0.424,0.002-0.848,0-1.272-0.002c-1.163-0.004-2.326-0.01-3.489,0.055c-0.798,0.046-1.601,0.038-2.401,0.048
	c-0.713,0.008-1.427,0.016-2.14,0.021c0.039,0.239,0.083,0.476,0.104,0.717c0.063,0.749,0.155,1.504,0.156,2.257
	c0.002,0.832,0.024,1.662,0.055,2.495c0.034,0.828,0.103,1.66,0.204,2.484c0.053,0.442,0.115,0.884,0.162,1.33
	c0.036,0.356,0.063,0.713,0.103,1.069c0.066,0.404,0.144,0.806,0.27,1.197c0.112,0.352,0.239,0.696,0.378,1.037
	c0.222,0.493,0.46,0.976,0.77,1.42c0.255,0.293,0.554,0.546,0.857,0.79c0.265,0.198,0.534,0.396,0.828,0.546
	c0.22,0.078,0.444,0.137,0.674,0.18c0.358,0.042,0.717,0.077,1.075,0.124c0.416,0.054,0.834,0.117,1.252,0.139
	c0.777,0.045,1.574,0.042,2.35-0.046c0.539-0.09,1.062-0.231,1.571-0.428c0.499-0.221,0.986-0.467,1.432-0.78
	c0.174-0.149,0.341-0.305,0.498-0.474c0.131-0.143,0.252-0.294,0.372-0.446c0.311-0.42,0.604-0.855,0.83-1.326
	c0.264-0.667,0.471-1.368,0.584-2.078c0.055-0.455,0.101-0.912,0.117-1.37c0.065-1.755,0.052-3.513,0.061-5.268
	C23.321,14.621,23.374,13.363,23.323,12.111z M21.492,17.271c-0.232,0-0.454,0.093-0.616,0.255
	c-0.176,0.177-0.232,0.376-0.256,0.616c-0.057,0.563-0.111,1.125-0.147,1.69c-0.028,0.453-0.05,0.906-0.103,1.357
	c-0.047,0.283-0.116,0.555-0.217,0.824c-0.177,0.388-0.384,0.759-0.581,1.134c-0.203,0.388-0.412,0.771-0.67,1.127
	c-0.137,0.16-0.28,0.309-0.438,0.447c-0.135,0.092-0.272,0.175-0.418,0.247c-0.166,0.058-0.333,0.102-0.507,0.131
	c-0.2,0.031-0.394,0.21-0.493,0.378c-0.111,0.19-0.141,0.422-0.083,0.634c0.057,0.206,0.196,0.386,0.38,0.493
	c0.206,0.121,0.406,0.121,0.634,0.083c0.404-0.065,0.789-0.228,1.141-0.434c0.458-0.268,0.818-0.652,1.137-1.068
	c0.246-0.321,0.448-0.669,0.642-1.022c0.184-0.337,0.372-0.672,0.553-1.009c0.188-0.356,0.359-0.737,0.462-1.127
	c0.109-0.412,0.147-0.844,0.188-1.266c0.085-0.874,0.168-1.748,0.262-2.619c0.024-0.218-0.107-0.468-0.254-0.616
	C21.945,17.365,21.722,17.271,21.492,17.271z"/>
</svg>