<?xml version="1.0" encoding="utf-8"?>
<!-- Generator: Adobe Illustrator 21.1.0, SVG Export Plug-In . SVG Version: 6.00 Build 0)  -->
<svg version="1.1" id="designs" xmlns="http://www.w3.org/2000/svg" xmlns:xlink="http://www.w3.org/1999/xlink" x="0px" y="0px"
	 width="32px" height="32px" viewBox="0 0 32 32" style="enable-background:new 0 0 32 32;" xml:space="preserve">
<style type="text/css">
	.sketchy_een{fill:#111918;}
</style>
<path class="sketchy_een" d="M26.661,10.551c-0.041-0.557-0.057-1.115-0.055-1.674c0.006-0.639-0.008-1.276-0.008-1.916
	c0-1.346,0.006-2.693-0.018-4.039c-0.008-0.454-0.372-0.832-0.832-0.832c-0.231,0-0.445,0.104-0.6,0.265
	c-0.791-0.006-1.584-0.017-2.374-0.033c-0.793-0.016-1.586-0.008-2.379-0.002c-1.621,0.012-3.24-0.029-4.862-0.06
	c-0.717-0.014-1.432-0.035-2.149-0.037c-0.711,0-1.42,0.008-2.132,0.006C9.702,2.223,8.151,2.189,6.6,2.175
	C6.464,2.073,6.303,2,6.113,2C5.669,2,5.24,2.386,5.263,2.848C5.314,3.773,5.37,4.699,5.363,5.626
	C5.355,6.435,5.306,7.241,5.328,8.05c0.023,0.83,0.053,1.658,0.037,2.488c-0.014,0.826-0.035,1.65-0.039,2.479
	c-0.016,3.17-0.014,6.342-0.01,9.515c0,1.097-0.006,2.194-0.014,3.293c-0.008,1.095-0.043,2.192-0.074,3.287
	C5.215,29.597,5.643,30,6.119,30c0.174,0,0.33-0.066,0.469-0.156c1.647,0.068,3.298,0.093,4.945,0.094
	c0.803,0,1.604,0.014,2.406,0.029c0.846,0.018,1.693,0.012,2.541,0.01c0.777,0,1.555,0.004,2.334-0.002
	c0.77-0.004,1.539-0.043,2.311-0.056c0.774-0.016,1.547-0.004,2.321-0.039c0.399-0.018,0.797-0.039,1.196-0.054
	c0.364-0.014,0.731-0.006,1.095-0.027c0.444-0.023,0.816-0.353,0.816-0.816c0-0.037-0.016-0.07-0.021-0.106
	c0.092-0.13,0.159-0.28,0.16-0.449c0.008-1.424,0.053-2.847,0.055-4.271c0-0.77,0.006-1.537,0.002-2.307
	c-0.004-0.758-0.031-1.516-0.033-2.274c-0.002-1.497-0.006-2.993,0.037-4.488C26.794,13.573,26.772,12.061,26.661,10.551z
	 M8.789,25.758c-0.53,0-0.931,0.432-0.949,0.949c-0.01,0.318-0.016,0.635-0.016,0.953c-0.001,0.194-0.003,0.392,0.007,0.589
	c-0.271-0.012-0.543-0.023-0.815-0.036c0.012-1.25,0.051-2.501,0.043-3.75c-0.008-1.615-0.012-3.231-0.002-4.846
	c0.01-1.569,0.014-3.137,0.016-4.704c0.004-1.652,0.027-3.305,0.012-4.957C7.079,9.387,7.066,8.82,7.035,8.251
	c-0.031-0.579-0.029-1.159-0.027-1.74c0.004-0.908,0-1.813-0.022-2.719C7.327,3.791,7.669,3.786,8.01,3.783
	c0.008,0.505,0.028,1.01,0.028,1.515C8.041,5.752,8.417,6.13,8.873,6.13c0.446,0,0.84-0.378,0.832-0.832
	c-0.008-0.51,0.002-1.02,0.007-1.53c0.426-0.005,0.852-0.007,1.277-0.011c-0.014,1.234-0.045,2.468-0.047,3.702
	c0,0.77-0.006,1.537-0.002,2.307c0.004,0.758,0.031,1.516,0.033,2.274c0.002,1.496,0.006,2.993-0.037,4.487
	c-0.041,1.514-0.02,3.026,0.092,4.536c0.041,0.557,0.057,1.115,0.055,1.674c-0.006,0.639,0.008,1.276,0.008,1.915
	c0,1.223-0.001,2.446,0.016,3.669c-0.481-0.001-0.962-0.007-1.443-0.014c-0.002-0.534,0.05-1.07,0.078-1.602
	C9.766,26.191,9.288,25.758,8.789,25.758z M18.584,28.391c-0.805-0.006-1.609,0-2.412-0.006c-1.137-0.007-2.272-0.029-3.408-0.044
	c-0.019-0.758-0.04-1.517-0.047-2.276c-0.006-0.777,0.006-1.557,0.008-2.334c0-0.721,0.01-1.44-0.025-2.161
	c-0.037-0.76-0.103-1.52-0.125-2.282c-0.043-1.483-0.025-2.971,0-4.456c0.025-1.504,0.012-3.008-0.016-4.513
	c-0.025-1.257-0.035-2.515-0.02-3.772c0.011-0.931,0.033-1.863,0.047-2.796c0.14,0,0.28,0,0.42,0c0.413,0,0.826-0.012,1.237,0.002
	c0.824,0.025,1.646,0.023,2.471,0.045c0.86,0.022,1.722,0.03,2.583,0.037c-0.015,1.168-0.046,2.336-0.039,3.503
	c0.008,1.615,0.012,3.231,0.002,4.846c-0.01,1.568-0.014,3.137-0.016,4.704c-0.004,1.652-0.027,3.305-0.012,4.957
	c0.006,0.569,0.019,1.136,0.051,1.705c0.031,0.579,0.029,1.159,0.027,1.74c-0.005,1.032-0.002,2.06,0.032,3.09
	C19.09,28.382,18.838,28.393,18.584,28.391z M23.785,28.311c0.001-0.025,0.001-0.051,0.002-0.077
	c0.002-0.199,0.002-0.396,0.004-0.592c0.002-0.473-0.004-0.947-0.01-1.42c-0.004-0.501-0.413-0.92-0.92-0.92
	c-0.493,0-0.927,0.419-0.92,0.92c0.013,0.708,0.035,1.417,0.063,2.125c-0.328,0-0.655-0.001-0.981,0.007
	c-0.039-0.726-0.075-1.452-0.068-2.18c0.008-0.809,0.056-1.615,0.035-2.424c-0.023-0.83-0.053-1.658-0.037-2.488
	c0.014-0.826,0.035-1.65,0.039-2.479c0.016-3.17,0.014-6.343,0.01-9.515c0-1.097,0.006-2.194,0.014-3.293
	c0.005-0.707,0.028-1.416,0.048-2.124c0.402,0.006,0.803,0.017,1.205,0.026c-0.01,0.389-0.014,0.78-0.017,1.171
	c0,0.144,0.002,0.286,0,0.431c-0.002,0.158,0.02,0.308,0.047,0.462c0.068,0.362,0.458,0.614,0.807,0.614
	c0.44,0,0.853-0.38,0.836-0.836c-0.01-0.224,0.008-0.446,0.021-0.67c0.021-0.379,0.034-0.759,0.047-1.137
	c0.31,0.006,0.619,0.014,0.929,0.017c0.013,0.541,0.029,1.081,0.034,1.622c0.006,0.777-0.006,1.557-0.008,2.334
	c0,0.721-0.01,1.44,0.025,2.161c0.037,0.76,0.103,1.52,0.125,2.282c0.043,1.483,0.025,2.971,0,4.456
	c-0.025,1.504-0.012,3.008,0.016,4.513c0.025,1.257,0.035,2.516,0.019,3.772c-0.013,1.051-0.04,2.101-0.053,3.154
	C24.66,28.262,24.223,28.292,23.785,28.311z M8.052,9.766c0.01-0.481-0.01-0.959-0.01-1.44c0.002-0.45,0.374-0.824,0.826-0.824
	c0.444,0,0.83,0.374,0.824,0.824c-0.008,0.481-0.045,0.959-0.025,1.44c0.019,0.44-0.382,0.807-0.807,0.807
	C8.426,10.573,8.042,10.207,8.052,9.766z M8.928,12.05c-0.436,0-0.846,0.378-0.826,0.828c0.025,0.604,0.09,1.204,0.113,1.808
	c0.016,0.442,0.357,0.812,0.812,0.812c0.214,0,0.421-0.088,0.573-0.238c0.101-0.101,0.172-0.222,0.208-0.359
	c0.036-0.131,0.039-0.263,0.009-0.394c-0.019-0.206-0.023-0.412-0.031-0.619c-0.012-0.337-0.019-0.674-0.031-1.011
	C9.743,12.428,9.39,12.05,8.928,12.05z M9.81,14.475c0-0.002-0.001-0.003-0.001-0.005c0-0.002,0-0.004,0-0.006
	C9.809,14.467,9.81,14.471,9.81,14.475z M9.788,19.124c-0.021,0.433-0.345,0.797-0.797,0.797c-0.435,0-0.797-0.362-0.797-0.797
	c0.002-0.553,0.018-1.109,0.043-1.66c0.021-0.444,0.357-0.816,0.816-0.816c0.425,0,0.844,0.372,0.816,0.816
	c-0.019,0.32-0.045,0.637-0.062,0.957C9.794,18.655,9.801,18.889,9.788,19.124z M9.705,22.122c0.002,0.199,0.004,0.398-0.004,0.596
	c-0.01,0.175-0.027,0.353-0.023,0.526c0.014,0.45-0.384,0.824-0.822,0.824c-0.218,0-0.429-0.088-0.583-0.242
	c-0.14-0.14-0.263-0.376-0.242-0.583c0.018-0.173,0.006-0.351-0.002-0.526c-0.006-0.199-0.012-0.397-0.018-0.596
	c-0.01-0.462,0.394-0.848,0.848-0.848C9.323,21.274,9.701,21.66,9.705,22.122z M24.063,8.138c0.039,0.563,0.076,1.126,0.109,1.689
	c0.025,0.464-0.407,0.852-0.852,0.852c-0.351,0-0.758-0.257-0.82-0.625c-0.109-0.629-0.136-1.278-0.185-1.916
	C22.28,7.663,22.74,7.265,23.19,7.265C23.691,7.265,24.03,7.665,24.063,8.138z M24.026,12.454c0.002,0.357-0.002,0.711-0.002,1.068
	c0,0.446-0.374,0.82-0.82,0.82c-0.46,0-0.805-0.374-0.822-0.82c-0.012-0.357-0.021-0.711-0.029-1.068
	c-0.008-0.456,0.388-0.836,0.838-0.836C23.648,11.618,24.024,11.998,24.026,12.454z M23.955,16.688
	c-0.002,0.512-0.008,1.023-0.014,1.535c-0.006,0.481-0.398,0.883-0.883,0.883c-0.491,0-0.867-0.401-0.883-0.883
	c-0.016-0.512-0.016-1.023-0.018-1.535c0-0.489,0.409-0.898,0.898-0.898S23.955,16.199,23.955,16.688z M23.947,21.248
	c-0.002,0.464-0.018,0.926-0.025,1.389c-0.01,0.454-0.374,0.834-0.836,0.834c-0.468,0-0.818-0.38-0.836-0.834
	c-0.018-0.464-0.033-0.926-0.039-1.389c-0.006-0.474,0.399-0.867,0.867-0.867C23.551,20.381,23.947,20.774,23.947,21.248z"/>
</svg>