<?xml version="1.0" encoding="utf-8"?>
<!-- Generator: Adobe Illustrator 21.1.0, SVG Export Plug-In . SVG Version: 6.00 Build 0)  -->
<svg version="1.1" id="designs" xmlns="http://www.w3.org/2000/svg" xmlns:xlink="http://www.w3.org/1999/xlink" x="0px" y="0px"
	 width="32px" height="32px" viewBox="0 0 32 32" style="enable-background:new 0 0 32 32;" xml:space="preserve">
<style type="text/css">
	.sketchy_een{fill:#111918;}
</style>
<path class="sketchy_een" d="M20.502,30c-0.253,0-0.504-0.109-0.687-0.298c-0.174-0.181-0.266-0.41-0.258-0.647
	c0.008-0.212-0.006-0.374-0.023-0.586l-0.103-0.007c0,0-0.741-0.026-0.985-0.034c-0.271-0.009-0.542-0.017-0.814-0.031
	c-0.359-0.018-0.718-0.018-1.077-0.018c0,0-1.778-0.015-2.225-0.015l-0.515,0.002c-0.433,0.004-0.864,0.018-1.296,0.032
	c-0.313,0.01-1.959,0.06-1.959,0.06l-0.035,0.061c-0.016,0.159-0.031,0.317-0.036,0.477c-0.016,0.526-0.429,0.938-0.94,0.938
	c-0.248,0-0.492-0.104-0.671-0.286c-0.177-0.179-0.272-0.412-0.268-0.655c0.002-0.16,0.013-0.319,0.025-0.478l-0.11-0.031
	c-0.324-0.008-0.648-0.046-0.969-0.084L7.39,28.381c-0.24-0.029-0.422-0.08-0.587-0.246c-0.156-0.156-0.246-0.373-0.246-0.595
	c0-0.157,0.055-0.316,0.164-0.473c-0.032-0.037-0.054-0.116-0.047-0.204c0.033-0.396,0.06-0.793,0.087-1.19l0.033-0.481
	c0.034-0.468,0.049-0.938,0.063-1.408c0.01-0.328,0.02-0.656,0.037-0.983c0.022-0.441,0.334-0.786,0.758-0.838
	c0.002-0.094,0.062-0.199,0.141-0.287c0.413-0.458,0.832-0.913,1.266-1.351l0.088-0.088c0.23-0.231,0.46-0.463,0.7-0.683
	c-0.044-0.09-0.067-0.227-0.089-0.364l-0.212-1.166c-0.094-0.494-0.176-0.993-0.258-1.49l-0.055-0.338
	c-0.106-0.634-0.217-1.266-0.327-1.899c-0.16-0.915-0.32-1.829-0.466-2.746C8.149,9.724,7.935,8.199,7.771,6.76
	C7.77,6.811,7.749,6.833,7.72,6.85C7.59,6.925,7.443,6.965,7.293,6.965c-0.075,0-0.148-0.01-0.219-0.029
	C6.856,6.875,6.667,6.721,6.554,6.514C6.448,6.318,6.425,6.1,6.488,5.9C6.589,5.581,6.672,5.255,6.755,4.93l0.098-0.38
	C6.999,4.002,7.15,3.455,7.309,2.91c0.107-0.368,0.447-0.628,0.827-0.631c0.085-0.041,0.192-0.068,0.309-0.077
	c0.736-0.055,1.473-0.09,2.211-0.125l0.359-0.017c0.513-0.024,1.024-0.03,1.535-0.03l1.718,0.006c0.388,0,0.776-0.003,1.165-0.015
	c0.593-0.018,1.185-0.018,1.779-0.018L18.26,2c0.51,0,1.021,0.007,1.532,0.044l0.318,0.024c0.251,0.019,0.503,0.039,0.756,0.053
	c0.157,0.008,0.313,0.009,0.471,0.011c0.133,0.001,0.268,0.002,0.401,0.008c0.44,0.018,0.783,0.363,0.783,0.785
	c0.05,0.123,0.099,0.215,0.13,0.311l0.08,0.251c0.102,0.32,0.205,0.641,0.303,0.962l0.078,0.272
	c0.046,0.162,0.091,0.325,0.147,0.483c0.042,0.06,0.077,0.136,0.102,0.223c0.04,0.145,0.04,0.291,0,0.436l-0.045,0.097
	c-0.017,0.448-0.378,0.822-0.79,0.822l-0.253-0.009c0.064,0.054,0.061,0.169,0.042,0.298c-0.056,0.369-0.121,0.738-0.184,1.106
	l-0.035,0.199c0.052-0.011,0.108-0.016,0.167-0.016c0.124,0,0.261,0.02,0.398,0.046l0.679,0.118
	c0.227,0.043,0.439,0.134,0.634,0.226c0.127,0.062,0.213,0.104,0.288,0.163c0.124,0.093,0.237,0.178,0.336,0.299
	c0.078,0.099,0.151,0.192,0.212,0.3c0.117,0.205,0.263,0.477,0.356,0.761c0.275,0.833,0.399,1.562,0.378,2.228
	c-0.027,0.819-0.248,1.61-0.639,2.287c-0.194,0.336-0.446,0.669-0.748,0.991c-0.21,0.226-0.442,0.396-0.687,0.506
	c-0.213,0.097-0.425,0.185-0.649,0.248c-0.384,0.106-0.784,0.152-1.091,0.181c-0.055,0.005-0.111,0.007-0.166,0.007
	c-0.224,0-0.446-0.037-0.666-0.075l-0.032,0.054c-0.029,0.245-0.107,0.842-0.115,0.895c0,0-0.079,0.681-0.121,1.105l-0.052,0.526
	c0.479,0.541,0.867,0.966,1.248,1.342c0.195,0.191,0.391,0.383,0.598,0.562l0.292,0.239c0.091,0.076,0.169,0.166,0.248,0.256
	c0.142,0.161,0.206,0.293,0.245,0.459c0.141,0.129,0.223,0.327,0.217,0.533c-0.011,0.358-0.027,0.715-0.043,1.072
	c-0.025,0.55-0.051,1.101-0.055,1.653l-0.002,0.238c-0.007,0.621-0.014,1.242,0.016,1.86c0.032,0.118,0.031,0.241-0.005,0.367
	c-0.052,0.191-0.18,0.359-0.352,0.46c-0.198,0.165-0.412,0.262-0.595,0.262c-0.199-0.016-0.348-0.018-0.498-0.018l-0.409,0
	c-0.019,0.149-0.015,0.35-0.038,0.553c-0.03,0.26-0.089,0.472-0.276,0.662C20.993,29.9,20.75,30,20.502,30z M16.942,26.885
	c0.35,0,0.7,0.001,1.049,0.016c0.717,0.028,1.435,0.03,2.155,0.032c0.007,0,0.014,0,0.02,0c0.355,0,0.624-0.006,0.892-0.012
	l0.779-0.023l-0.052-0.246v-1.217c-0.001-0.687,0.015-1.373,0.03-2.058l0.014-0.584c-0.237-0.216-0.509-0.45-0.778-0.684
	c-0.154-0.133-0.308-0.266-0.456-0.402c-0.449-0.406-0.888-0.857-1.308-1.339c-0.858-0.022-1.745-0.035-2.63-0.035
	c-0.429,0-0.857,0.003-1.285,0.008c-0.702,0.011-1.403,0.027-2.104,0.043c-0.686,0.016-1.371,0.032-2.056,0.042
	c-0.339,0.34-0.632,0.65-0.924,0.959l-0.133,0.14c-0.383,0.407-0.754,0.823-1.125,1.24c-0.161,0.181-0.293,0.251-0.471,0.287
	L8.54,23.91l-0.033,0.516c-0.016,0.268-0.031,0.537-0.061,0.802c-0.056,0.484-0.092,0.968-0.127,1.453l-0.014,0.189l0.236-0.012
	c0.663,0.03,1.326,0.039,1.99,0.039c0.597,0,1.195-0.008,1.792-0.015l1.845-0.016c0.565,0,1.13,0.005,1.695,0.014
	C16.039,26.885,16.942,26.885,16.942,26.885z M15.373,18.84c0.452,0.003,2.14,0.004,2.14,0.004l1.567-0.019l0.012-0.548
	c0.027-0.275,0.054-0.549,0.087-0.824c0.043-0.352,0.094-0.702,0.146-1.052l0.089-0.622l0.053-0.41
	c0.082-0.65,0.164-1.3,0.282-1.944c0.037-0.204,0.068-0.408,0.099-0.613l0.055-0.354l-0.127,0.053
	c-0.235-0.006-0.47-0.012-0.705-0.015l-1.37-0.016c-0.806-0.01-1.613-0.021-2.421-0.021l-5.167,0.04l0.035,0.225
	c0.025,0.164,0.049,0.329,0.078,0.493c0.078,0.436,0.162,0.872,0.246,1.307l0.155,0.81c0.135,0.719,0.276,1.436,0.419,2.153
	c0.089,0.449,0.184,0.899,0.287,1.346c0.364-0.018,0.743-0.025,1.129-0.025C12.785,18.811,14.73,18.836,15.373,18.84z M21.162,14.95
	c0.126,0.036,0.253,0.071,0.38,0.098l0.13,0.003c0.158,0,0.315-0.015,0.472-0.033c0.182-0.031,0.363-0.077,0.54-0.143
	c0.091-0.042,0.185-0.089,0.273-0.145c0.127-0.11,0.249-0.235,0.361-0.369c0.147-0.2,0.275-0.411,0.387-0.636
	c0.114-0.299,0.199-0.594,0.25-0.873c0.024-0.312,0.018-0.64-0.018-0.969c-0.07-0.403-0.186-0.813-0.344-1.214
	c-0.138-0.276-0.303-0.494-0.627-0.534c-0.001,0-0.453-0.056-0.453-0.056c-0.125-0.017-0.249-0.035-0.374-0.044
	c-0.024,0-0.047,0-0.067,0c-0.096,0-0.151,0.004-0.205,0.009l-0.087,0.23c-0.041,0.239-0.082,0.478-0.116,0.718l-0.282,1.932
	l-0.122,0.746c-0.054,0.327-0.109,0.654-0.156,0.982l-0.04,0.345l0.011-0.054L21.162,14.95z M9.863,10.879
	c0.709,0.001,1.416,0.009,2.123,0.023c0.42,0.008,0.841,0.025,1.261,0.041l0.944,0.034C14.972,10.999,15.753,11,16.535,11
	c0.469,0.001,0.938,0.013,1.406,0.025l0.85,0.02l0.271,0.002c0.305,0,0.609-0.007,0.913-0.014l0.193-0.004l0.158-1.615
	c0.113-0.928,0.227-1.856,0.355-2.781c-0.136,0.01-0.282,0.014-0.433,0.014c-0.201,0-0.413-0.006-0.624-0.013l-0.222-0.007
	c-0.298-0.01-0.597-0.012-0.895-0.012l-2.781,0.007c-0.342,0-1.936-0.018-1.936-0.018c-0.623,0-1.248,0.018-1.871,0.036
	l-0.296,0.008c-0.753,0.02-1.503,0.033-2.257,0.04l0.123,0.733c0.097,1.042,0.193,2.086,0.331,3.123l0.018,0.144L9.863,10.879z
	 M12.233,3.56c-0.429,0-0.857,0.01-1.285,0.045L8.814,3.78L8.727,4.177L8.433,5.148L8.997,5.16l0.927,0.005
	c0.374,0,0.748-0.003,1.123-0.011c1.209-0.028,2.419-0.041,3.63-0.054l1.242-0.005c0.361,0,0.725,0,1.088-0.007
	c0.525-0.009,1.051-0.01,1.576-0.01c0,0,0.419,0,0.422,0c0.227,0,0.401-0.005,0.575-0.01l0.403-0.009
	c0.32,0,0.603,0.018,0.888,0.037l0.712,0.052l-0.126-0.145c-0.161-0.456-0.305-0.884-0.448-1.312l-0.104-0.017
	c-0.441-0.02-0.809-0.038-1.179-0.067c-0.373-0.026-0.746-0.052-1.123-0.054h-1.068c-0.331,0.001-0.662,0.008-0.993,0.015
	c-0.354,0.007-0.708,0.014-1.062,0.014l-1.009-0.004c-0.46-0.001-0.92-0.001-1.381-0.01C12.805,3.565,12.519,3.56,12.233,3.56z
	 M15.128,24.986c-0.434,0-0.801-0.367-0.801-0.801c0-0.435,0.367-0.802,0.801-0.802c0.435,0,0.802,0.367,0.802,0.802
	C15.93,24.619,15.563,24.986,15.128,24.986z M18.784,24.857c-0.467,0-0.861-0.394-0.861-0.861c0-0.467,0.394-0.862,0.861-0.862
	c0.467,0,0.861,0.395,0.861,0.862C19.645,24.463,19.251,24.857,18.784,24.857z M11.267,24.765c-0.456,0-0.841-0.385-0.841-0.841
	c0-0.456,0.385-0.841,0.841-0.841s0.841,0.385,0.841,0.841C12.108,24.379,11.723,24.765,11.267,24.765z"/>
</svg>