<?xml version="1.0" encoding="utf-8"?>
<!-- Generator: Adobe Illustrator 21.1.0, SVG Export Plug-In . SVG Version: 6.00 Build 0)  -->
<svg version="1.1" id="designs" xmlns="http://www.w3.org/2000/svg" xmlns:xlink="http://www.w3.org/1999/xlink" x="0px" y="0px"
	 width="32px" height="32px" viewBox="0 0 32 32" style="enable-background:new 0 0 32 32;" xml:space="preserve">
<style type="text/css">
	.sketchy_een{fill:#111918;}
</style>
<path class="sketchy_een" d="M29.401,10.64c0.237-0.315,0.447-0.68,0.516-1.074c0.065-0.365,0.095-0.757,0.078-1.128
	c-0.017-0.378-0.302-0.694-0.694-0.694c-0.362,0-0.716,0.315-0.694,0.694c0.009,0.16-0.002,0.32-0.02,0.481
	c-0.022,0.141-0.048,0.282-0.093,0.418c-0.094,0.185-0.209,0.355-0.332,0.522c-0.367,0.442-0.831,0.782-1.286,1.131
	c-0.125-0.1-0.25-0.202-0.382-0.292c-0.157-0.106-0.324-0.2-0.487-0.298c-0.323-0.194-0.638-0.393-0.966-0.578
	c-0.347-0.194-0.707-0.356-1.074-0.511c-0.362-0.151-0.71-0.293-1.107-0.313c-0.012-0.001-0.023-0.001-0.034-0.001
	c-0.079,0-0.152,0.025-0.224,0.051c-0.044-0.279-0.103-0.555-0.205-0.819c-0.157-0.405-0.336-0.807-0.6-1.154
	c-0.291-0.382-0.593-0.731-0.997-1.001c-0.364-0.244-0.77-0.431-1.176-0.591c-0.393-0.156-0.834-0.198-1.258-0.198
	c-0.057,0-0.114,0.001-0.17,0.002c-0.432,0.011-0.88,0.097-1.296,0.22c-0.572,0.172-1.085,0.474-1.553,0.839
	c-0.416,0.326-0.772,0.708-1.052,1.158c-0.13,0.207-0.259,0.419-0.369,0.638c-0.076,0.155-0.14,0.311-0.205,0.47
	c-0.002,0.004-0.002,0.008-0.004,0.012c-0.012,0-0.023-0.007-0.035-0.006c-0.185,0.012-0.375,0.038-0.564,0.047
	c-0.029-0.061-0.056-0.122-0.085-0.181c-0.095-0.198-0.194-0.393-0.295-0.587c-0.14-0.272-0.304-0.522-0.509-0.751
	C12,6.889,11.647,6.66,11.289,6.66c-0.101,0-0.203,0.018-0.302,0.06c-0.196,0.084-0.235,0.099-0.399,0.235
	c-0.041,0.037-0.078,0.076-0.114,0.119c-0.089,0.106-0.17,0.22-0.246,0.336c-0.147,0.231-0.25,0.498-0.345,0.751
	c-0.073,0.196-0.136,0.397-0.19,0.6c-0.016,0.06-0.03,0.122-0.044,0.185C9.615,8.955,9.581,8.965,9.548,8.977
	C9.249,9.08,8.962,9.24,8.681,9.38c-0.52,0.259-1.05,0.544-1.527,0.878C6.641,10.616,6.166,11,5.739,11.457
	c-0.447,0.477-0.802,1.037-1.12,1.605c-0.025,0.045-0.03,0.094-0.046,0.141c-0.291-0.024-0.581-0.051-0.873-0.061
	c-0.149-0.006-0.319-0.02-0.49-0.02c-0.245,0-0.49,0.029-0.677,0.155c-0.132,0.091-0.22,0.17-0.304,0.308
	c-0.047,0.076-0.073,0.162-0.108,0.244c-0.041,0.103-0.045,0.254-0.056,0.352c-0.019,0.158-0.013,0.323-0.021,0.483
	c-0.011,0.345-0.028,0.688-0.037,1.033C1.995,16.05,2,16.403,2.013,16.757c0.011,0.296-0.013,0.6,0.015,0.897
	c0.022,0.227,0.048,0.418,0.164,0.621c0.121,0.214,0.323,0.332,0.543,0.418c0.153,0.06,0.323,0.065,0.483,0.082
	c0.297,0.03,0.599,0.029,0.899,0.027c0.087,0.485,0.21,0.963,0.422,1.408c0.071,0.149,0.134,0.298,0.2,0.449
	c0.063,0.147,0.153,0.282,0.239,0.416c0.151,0.237,0.312,0.463,0.48,0.685c-0.002-0.002-0.003-0.004-0.005-0.007
	c0.3,0.393,0.58,0.805,0.94,1.148c0.356,0.339,0.777,0.617,1.208,0.85c0.419,0.227,0.861,0.421,1.32,0.556
	c0.307,0.09,0.615,0.176,0.923,0.263c0.007,0.146,0.012,0.292,0.02,0.437c0.006,0.136,0.007,0.27,0.007,0.406
	c-0.002,0.237,0.041,0.46,0.14,0.677c0.134,0.298,0.464,0.477,0.776,0.522c0.229,0.034,0.455,0.049,0.686,0.056
	c0.317,0.011,0.636,0.011,0.955,0.011c0.123,0.002,0.246,0.002,0.371,0c0.185,0,0.371,0,0.556,0.002
	c0.131,0.004,0.263,0.009,0.393,0.017c0.054,0.002,0.108,0.008,0.162,0.011c0.043,0.004,0.084,0.007,0.129,0.007
	c0.177,0.002,0.291-0.047,0.447-0.116c0.416-0.185,0.559-0.705,0.638-1.115c0.047-0.247,0.069-0.495,0.084-0.744
	c0.609,0.015,1.219,0.021,1.829,0.022c0.386,0.002,0.772,0,1.158,0.006c0.342,0.003,0.688-0.004,1.029,0.03
	c0.036,0.006,0.073,0.011,0.109,0.016c-0.01,0.165-0.032,0.331-0.051,0.494c-0.024,0.196-0.024,0.403,0.039,0.593
	c0.084,0.255,0.25,0.462,0.487,0.591c0.209,0.114,0.41,0.14,0.643,0.168c0.328,0.037,0.658,0.03,0.988,0.022
	c0.356-0.009,0.714-0.022,1.07-0.03c0.343-0.007,0.69-0.002,1.033,0.015c0.065,0.002,0.132,0.008,0.199,0.009
	c0.214,0.004,0.403-0.056,0.593-0.151c0.332-0.168,0.488-0.567,0.565-0.908c0.086-0.377,0.129-0.779,0.103-1.165
	c-0.006-0.107-0.024-0.213-0.037-0.319c0.244-0.123,0.489-0.245,0.73-0.373c0.311-0.168,0.604-0.364,0.887-0.572
	c0.324-0.241,0.641-0.49,0.932-0.77c0.298-0.289,0.546-0.636,0.794-0.968c0.222-0.293,0.401-0.613,0.565-0.941
	c0.175-0.351,0.354-0.714,0.462-1.093c0.116-0.408,0.164-0.839,0.205-1.26c0.034-0.337,0.071-0.675,0.091-1.014
	c0.022-0.39-0.019-0.768-0.071-1.156c-0.048-0.36-0.157-0.71-0.24-1.063c-0.084-0.343-0.185-0.673-0.304-1.003
	c-0.13-0.362-0.276-0.727-0.479-1.055c-0.175-0.286-0.373-0.559-0.575-0.826c0.248-0.199,0.495-0.399,0.732-0.613
	C28.959,11.19,29.186,10.925,29.401,10.64z M15.366,8.972c0.144-0.32,0.314-0.633,0.518-0.919c0.156-0.183,0.33-0.345,0.515-0.499
	c0.241-0.174,0.504-0.32,0.773-0.445c0.265-0.094,0.532-0.164,0.809-0.211c0.25-0.023,0.499-0.024,0.75-0.005
	c0.166,0.03,0.324,0.074,0.483,0.132c0.265,0.123,0.523,0.261,0.766,0.423c0.15,0.129,0.283,0.272,0.408,0.424
	c0.126,0.179,0.229,0.37,0.322,0.57c0.085,0.23,0.146,0.463,0.187,0.704c0.033,0.331,0.041,0.667,0.016,1
	c-0.048,0.262-0.127,0.514-0.223,0.763c-0.043,0.09-0.089,0.179-0.136,0.266c-0.068,0.126-0.099,0.262-0.11,0.397
	c-0.189,0-0.379,0.008-0.567,0.004c-0.69-0.013-1.376-0.076-2.064-0.088c-0.565-0.009-1.13-0.006-1.695-0.011
	c-0.047-0.069-0.097-0.134-0.165-0.183c-0.133-0.199-0.247-0.409-0.356-0.625c-0.006-0.039,0.005-0.082-0.009-0.117
	c-0.134-0.339-0.263-0.682-0.332-1.041c-0.004-0.062-0.005-0.123-0.002-0.185C15.283,9.206,15.322,9.088,15.366,8.972z
	 M19.69,24.866L19.69,24.866c0.025,0.003,0.05,0.007,0.075,0.01C19.74,24.873,19.715,24.869,19.69,24.866z M20.625,25.03
	c-0.005-0.004-0.009-0.007-0.014-0.011C20.616,25.023,20.621,25.027,20.625,25.03L20.625,25.03z M28.221,16.237
	c0.033,0.356,0.03,0.703-0.008,1.059c-0.039,0.29-0.082,0.58-0.129,0.868c-0.058,0.355-0.129,0.698-0.258,1.031
	c-0.226,0.505-0.491,0.989-0.818,1.434c-0.136,0.171-0.274,0.341-0.423,0.502c-0.17,0.186-0.368,0.343-0.564,0.5
	c-0.303,0.225-0.623,0.431-0.953,0.613c-0.446,0.244-0.917,0.444-1.374,0.664c-0.017,0.008-0.025,0.025-0.041,0.034
	c-0.096,0.044-0.188,0.1-0.263,0.177c-0.149,0.147-0.287,0.406-0.259,0.623c0.028,0.224,0.057,0.447,0.088,0.67
	c0.02,0.205,0.021,0.411,0.006,0.616c-0.01,0-0.021,0-0.031,0c-0.08,0-0.162-0.002-0.242,0c-0.259,0.006-0.52,0.009-0.779,0.017
	c-0.408,0.012-0.814,0.04-1.222,0.023c0-0.005,0-0.01,0.001-0.015c0.013-0.27,0.007-0.535-0.034-0.804
	c-0.047-0.324-0.231-0.667-0.544-0.804c-0.207-0.091-0.33-0.116-0.557-0.14c-0.05-0.004-0.099-0.008-0.147-0.013
	c-0.137-0.019-0.275-0.036-0.414-0.038c-0.211,0-0.421,0.013-0.632,0.017c-0.425,0.009-0.852,0.011-1.277,0.011
	c-0.956-0.002-1.909-0.032-2.864-0.089c-0.391-0.023-0.711,0.323-0.75,0.695c-0.08,0.124-0.137,0.262-0.13,0.416
	c0.008,0.221,0.003,0.436-0.015,0.655c-0.01,0.055-0.02,0.11-0.033,0.164c-0.067-0.002-0.134-0.004-0.2-0.006
	c-0.244-0.006-0.488-0.007-0.733-0.009c-0.397-0.003-0.8,0-1.199-0.023c-0.001-0.089-0.001-0.178-0.003-0.266
	c-0.006-0.319-0.013-0.638-0.022-0.955c-0.011-0.432-0.352-0.792-0.792-0.792c-0.101,0-0.2,0.023-0.292,0.061
	c-0.061-0.01-0.122-0.021-0.182-0.032c-0.166-0.03-0.328-0.075-0.49-0.116c-0.297-0.078-0.595-0.162-0.882-0.274
	C8.4,22.549,8.06,22.345,7.743,22.117c-0.253-0.213-0.477-0.44-0.683-0.699c-0.216-0.286-0.424-0.58-0.617-0.88
	c-0.117-0.179-0.231-0.362-0.334-0.55c-0.095-0.172-0.175-0.357-0.255-0.54c-0.126-0.334-0.201-0.692-0.26-1.042
	c-0.013-0.112-0.025-0.224-0.038-0.336c-0.024-0.214-0.069-0.392-0.227-0.548c-0.101-0.101-0.231-0.158-0.368-0.191
	c-0.118-0.075-0.247-0.128-0.392-0.115c-0.198,0.017-0.391,0.043-0.589,0.05c-0.138,0.004-0.277,0.003-0.415-0.004
	c-0.003-0.087-0.005-0.174-0.008-0.26c-0.013-0.326-0.034-0.653-0.034-0.979c0.001-0.426,0.01-0.853,0.039-1.279
	c0.083,0.006,0.164,0.013,0.244,0.019c0.384,0.026,0.764,0.067,1.145,0.116c0.203,0.026,0.444-0.103,0.582-0.24
	c0.108-0.108,0.169-0.248,0.205-0.395c0.145-0.071,0.276-0.168,0.357-0.317c0.215-0.394,0.432-0.782,0.693-1.148
	c0.277-0.327,0.571-0.623,0.902-0.894c0.352-0.258,0.721-0.486,1.097-0.711c0.361-0.214,0.734-0.425,1.117-0.599
	c0.143-0.053,0.289-0.094,0.44-0.117c-0.02,0.003-0.04,0.005-0.06,0.008c0.233-0.034,0.45-0.091,0.619-0.284
	c0.19-0.214,0.252-0.453,0.306-0.721c0.051-0.237,0.11-0.468,0.184-0.696c0.027,0.058,0.052,0.117,0.077,0.176
	c0.055,0.141,0.108,0.283,0.156,0.425c0.108,0.321,0.239,0.671,0.561,0.837c0.216,0.112,0.418,0.155,0.658,0.166
	c0.108,0.006,0.222-0.015,0.33-0.026c0.17-0.019,0.339-0.041,0.507-0.062c0.012-0.001,0.021-0.006,0.033-0.007
	c0.063,0.249,0.145,0.491,0.239,0.73c0.025,0.064,0.059,0.117,0.089,0.173c0.026,0.07,0.045,0.141,0.076,0.209
	c0.006,0.013,0.012,0.025,0.018,0.038c-0.419-0.016-0.839-0.032-1.26-0.034c-0.001,0-0.002,0-0.003,0
	c-0.412,0-0.757,0.348-0.757,0.759c0,0.414,0.347,0.763,0.761,0.761c0.393-0.002,0.787-0.007,1.18-0.004
	c0.319,0.004,0.638,0.026,0.958,0.032c0.671,0.009,1.346,0.004,2.019-0.004c0.345-0.004,0.692-0.007,1.038-0.006
	c0.337,0.004,0.679,0.039,1.016,0.054c0.526,0.024,1.05,0.024,1.575,0.022c0.16,0,0.321,0,0.481,0
	c0.468,0.002,0.936,0.009,1.404,0.011c0.332,0,0.664-0.043,0.996-0.022c0.418,0.024,0.768-0.369,0.768-0.768
	c0-0.392-0.351-0.804-0.768-0.768c-0.381,0.032-0.763,0.054-1.146,0.076c0.075-0.202,0.145-0.405,0.192-0.617
	c0.03-0.137,0.039-0.273,0.054-0.409c0.039,0.011,0.075,0.026,0.117,0.033c0.279,0.056,0.541,0.156,0.804,0.264
	c0.47,0.207,0.927,0.452,1.372,0.712c0.246,0.144,0.49,0.289,0.736,0.432c0.197,0.114,0.382,0.254,0.563,0.394
	c0.262,0.212,0.502,0.43,0.715,0.691c0.253,0.337,0.484,0.687,0.667,1.067c0.135,0.333,0.272,0.668,0.35,1.018
	C28.056,15.49,28.158,15.858,28.221,16.237z"/>
</svg>