<?xml version="1.0" encoding="utf-8"?>
<!-- Generator: Adobe Illustrator 21.1.0, SVG Export Plug-In . SVG Version: 6.00 Build 0)  -->
<svg version="1.1" id="designs" xmlns="http://www.w3.org/2000/svg" xmlns:xlink="http://www.w3.org/1999/xlink" x="0px" y="0px"
	 width="32px" height="32px" viewBox="0 0 32 32" style="enable-background:new 0 0 32 32;" xml:space="preserve">
<style type="text/css">
	.sketchy_een{fill:#111918;}
</style>
<path class="sketchy_een" d="M28.79,19.552c-0.004-0.361-0.01-0.725-0.01-1.088c0.002-0.799-0.004-1.598-0.01-2.395
	c-0.008-0.777-0.067-1.549-0.082-2.324c-0.014-0.803-0.014-1.606-0.018-2.408c-0.008-1.08-0.026-2.159,0.004-3.237
	c0.031-1.246,0.082-2.493,0.143-3.738c0.016-0.318-0.197-0.596-0.477-0.722c-0.031-0.048-0.054-0.102-0.095-0.143
	c-0.087-0.087-0.193-0.146-0.308-0.187c-0.13-0.077-0.273-0.135-0.412-0.122c-0.371,0.035-0.738,0.071-1.109,0.088
	c-0.391,0.018-0.783,0.018-1.174,0.023c-0.826,0.01-1.653,0.018-2.479,0.028c-1.682,0.023-3.365,0.043-5.047,0.029
	c-0.801-0.006-1.604-0.002-2.407-0.025c-0.81-0.025-1.612-0.088-2.418-0.177c-0.323-0.045-0.647-0.088-0.969-0.133
	C11.839,3.009,11.758,3,11.681,3c-0.133,0-0.259,0.026-0.391,0.104c-0.179,0.104-0.312,0.279-0.371,0.479
	c-0.32,0.293-0.64,0.586-0.952,0.891c-0.3,0.296-0.593,0.603-0.889,0.905C8.789,5.671,8.488,5.956,8.202,6.25
	C7.935,6.525,7.682,6.813,7.42,7.096C6.873,7.689,6.292,8.25,5.773,8.871C5.518,9.175,5.271,9.487,4.996,9.778
	c-0.277,0.292-0.565,0.573-0.84,0.866C4.075,10.729,4,10.819,3.92,10.905c-0.411,0.062-0.731,0.408-0.734,0.831
	c-0.02,1.802,0.024,3.612,0.149,5.41c0.112,1.6,0.139,3.208,0.139,4.811c0.002,0.473,0.006,0.946,0.01,1.419
	c0.004,0.477-0.01,0.952-0.01,1.429c0,0.944-0.031,1.894,0.018,2.837c0.017,0.315,0.19,0.585,0.446,0.732
	c0.141,0.273,0.42,0.47,0.743,0.469c0.911-0.006,1.824-0.023,2.735-0.02c0.854,0.002,1.708,0.014,2.562,0.016
	c0.823,0.004,1.647,0.002,2.469,0.031c0.803,0.029,1.608,0.067,2.413,0.073c1.129,0.008,2.256,0.02,3.384,0.033
	c0.548,0.006,1.097,0.02,1.645,0.02c0.169,0,0.342,0.002,0.512,0.002c0.379,0.002,0.762,0.006,1.141-0.012
	c0.343-0.015,0.643-0.216,0.769-0.516c0.502-0.56,0.971-1.148,1.462-1.717c0.506-0.585,1.05-1.137,1.549-1.729
	c0.495-0.587,0.989-1.176,1.5-1.749c0.591-0.666,1.162-1.341,1.645-2.091c0.039-0.06,0.051-0.128,0.07-0.194
	c0.103-0.104,0.193-0.267,0.232-0.407c0.041-0.151,0.031-0.308,0.027-0.463C28.794,19.931,28.792,19.743,28.79,19.552z M5.19,25.928
	c-0.003,0.004-0.006,0.007-0.009,0.011c0-0.205,0.001-0.41,0-0.615c0-0.75-0.018-1.502-0.006-2.253
	c0.012-0.762,0.012-1.527,0.002-2.289c-0.012-0.828-0.051-1.655-0.084-2.481c-0.041-1.062-0.153-2.118-0.192-3.18
	c-0.031-0.857-0.025-1.713-0.013-2.569c1.615-0.052,3.229-0.098,4.846-0.093c0.439,0.001,0.878,0.008,1.318,0.013
	c0.001,0.476,0.001,0.952,0.003,1.429c0.002,0.87,0.01,1.737-0.006,2.607c-0.016,0.897,0.002,1.796-0.033,2.693
	c-0.005,0.154,0.051,0.291,0.129,0.415c-0.555,0.586-1.104,1.176-1.641,1.777c-0.294,0.328-0.587,0.654-0.899,0.962
	c-0.289,0.287-0.595,0.556-0.883,0.84c-0.3,0.294-0.575,0.616-0.864,0.92c-0.287,0.302-0.573,0.607-0.856,0.911
	C5.724,25.322,5.453,25.62,5.19,25.928z M12.622,19.408c0.018-0.068,0.042-0.134,0.04-0.208c-0.059-1.596-0.002-3.196,0-4.792
	c0.001-0.642-0.011-1.284-0.013-1.927c0.663,0.006,1.325,0.011,1.988-0.002c1.027-0.02,2.053-0.037,3.078-0.059
	c0.489-0.012,0.976-0.008,1.464-0.014c0.247-0.002,0.495,0.002,0.742,0.006c0.239,0.002,0.479,0.004,0.719,0.002
	c-0.098,1.516-0.126,3.035-0.104,4.555c0.014,0.773,0.071,1.547,0.11,2.32c0.006,0.109,0.011,0.218,0.017,0.327
	c-0.115-0.006-0.23-0.014-0.346-0.019c-0.811-0.033-1.62-0.061-2.428-0.076c-0.919-0.02-1.835-0.014-2.752-0.039
	C14.299,19.46,13.461,19.434,12.622,19.408z M22.21,18.754c-0.065-1.064-0.1-2.126-0.092-3.192c0.006-0.587,0.022-1.174,0.051-1.759
	c0.031-0.654,0.1-1.305,0.157-1.955c0.006-0.068-0.018-0.13-0.032-0.194c0.343-0.4,0.689-0.797,1.024-1.205
	c0.257-0.314,0.512-0.632,0.783-0.936c0.289-0.324,0.581-0.644,0.868-0.968c0.524-0.589,1.048-1.18,1.559-1.782
	c0.224-0.263,0.439-0.532,0.658-0.799c-0.007,0.369-0.019,0.738-0.027,1.108c-0.018,0.821-0.059,1.639-0.071,2.462
	c-0.02,1.555-0.018,3.114,0.022,4.668c0.012,0.52,0.049,1.04,0.061,1.561c0.014,0.552,0.014,1.105,0.014,1.659
	c0,0.489,0,0.978-0.002,1.466c-0.002,0.238-0.008,0.475-0.01,0.71c0,0.029,0,0.058,0,0.086c-0.219,0.01-0.438,0.017-0.657,0.025
	c-0.4,0.014-0.799,0.026-1.199,0.03c-0.83,0.008-1.659,0.008-2.489-0.014c-0.191-0.005-0.381-0.018-0.571-0.027
	C22.239,19.385,22.228,19.07,22.21,18.754z M14.448,4.858c0.589,0.02,1.18,0.02,1.771,0.02c0.237,0,0.473,0,0.711,0
	c1.702,0.01,3.402,0.047,5.104,0.025c0.946-0.012,1.894-0.023,2.841-0.012c0.36,0.004,0.721,0.012,1.081,0.018
	c-0.183,0.231-0.363,0.464-0.553,0.689c-0.514,0.611-1.042,1.211-1.576,1.804c-0.275,0.304-0.557,0.603-0.832,0.909
	c-0.271,0.3-0.528,0.615-0.787,0.927c-0.455,0.546-0.923,1.079-1.398,1.606c-0.031-0.002-0.058-0.018-0.089-0.016
	c-0.45,0.03-0.899,0.016-1.351,0.004c-0.273-0.008-0.544-0.014-0.815-0.014c-0.722,0.006-1.447-0.002-2.169-0.002
	c-1.249,0-2.497,0.042-3.746,0.071c-0.005-0.457,0-0.914-0.009-1.371c-0.02-0.915-0.02-1.832-0.014-2.748
	c0.003-0.677,0.04-1.353,0.096-2.028C13.288,4.796,13.866,4.84,14.448,4.858z M7.114,9.784c0.257-0.3,0.532-0.581,0.809-0.866
	c0.55-0.565,1.036-1.19,1.588-1.755c0.504-0.514,1.023-1.02,1.551-1.511c-0.005,0.259-0.012,0.517-0.014,0.776
	c-0.004,0.856-0.008,1.71-0.016,2.566c-0.005,0.641,0.006,1.281,0.012,1.921c-0.951,0.011-1.902,0.023-2.854,0.015
	c-0.7-0.005-1.399,0.006-2.099,0.009c0.08-0.083,0.163-0.163,0.241-0.247C6.602,10.396,6.855,10.086,7.114,9.784z M20.097,27.345
	c-0.287,0-0.573,0-0.858,0.004c-0.801,0.014-1.6,0.004-2.401-0.012c-0.491-0.008-0.982-0.008-1.472-0.008
	c-0.3,0-0.605,0-0.905-0.004c-0.785-0.006-1.568-0.059-2.354-0.067c-1.219-0.014-2.44-0.014-3.659-0.021
	c-0.601-0.004-1.197-0.031-1.796-0.051c-0.118-0.004-0.236-0.003-0.354-0.006c0.245-0.294,0.491-0.585,0.741-0.874
	c0.267-0.308,0.55-0.605,0.824-0.907c0.291-0.324,0.581-0.648,0.875-0.966c0.277-0.298,0.573-0.577,0.86-0.866
	c0.302-0.3,0.595-0.611,0.881-0.925c0.503-0.55,1.022-1.086,1.544-1.619c0.926,0.021,1.852,0.024,2.78,0.024
	c0.797,0,1.596-0.026,2.393,0.01c0.84,0.037,1.684,0.026,2.524,0.081c0.342,0.023,0.684,0.055,1.025,0.086
	c0.007,0.153,0.018,0.306,0.024,0.46c0.037,0.982,0.086,1.963,0.149,2.945c0.033,0.493,0.037,0.985,0.039,1.478
	c0.001,0.407,0.003,0.815-0.024,1.221C20.656,27.335,20.376,27.346,20.097,27.345z M24.945,23.086
	c-0.414,0.487-0.824,0.976-1.264,1.439c-0.393,0.414-0.781,0.829-1.162,1.253c-0.001-0.088,0-0.177-0.001-0.265
	c-0.008-0.738-0.067-1.474-0.104-2.212c-0.034-0.659-0.059-1.319-0.085-1.979c0.888,0.025,1.777,0.033,2.665,0.033
	c0.467,0,0.933-0.014,1.399-0.024c-0.071,0.096-0.133,0.199-0.205,0.294C25.782,22.121,25.36,22.6,24.945,23.086z"/>
</svg>