<?xml version="1.0" encoding="utf-8"?>
<!-- Generator: Adobe Illustrator 21.1.0, SVG Export Plug-In . SVG Version: 6.00 Build 0)  -->
<svg version="1.1" id="designs" xmlns="http://www.w3.org/2000/svg" xmlns:xlink="http://www.w3.org/1999/xlink" x="0px" y="0px"
	 width="32px" height="32px" viewBox="0 0 32 32" style="enable-background:new 0 0 32 32;" xml:space="preserve">
<style type="text/css">
	.sketchy_een{fill:#111918;}
</style>
<path class="sketchy_een" d="M17.081,26.681c-0.77-0.01-1.539-0.015-2.309-0.015c0,0-0.45,0-0.451,0
	c-0.967,0-1.875-0.024-2.798-0.071c-0.399-0.021-0.8-0.022-1.2-0.024l-1.687-0.014l-1.471,0.004l-1.363,0.012l-1.376-0.001
	c-0.511,0-1.022-0.004-1.534-0.025c-0.446-0.018-0.797-0.366-0.798-0.792v-0.027L2.056,25.66c-0.071-0.31-0.06-0.573-0.047-0.852
	c0.004-0.107,0.009-0.214,0.01-0.322l0.008-1.045c0.008-0.691,0.026-1.38,0.046-2.07l0.021-0.693c0.017-0.52,0.033-1.04,0.035-1.56
	c0.001-0.39-0.01-2.163-0.01-2.163l0.004-2.592c0.002-0.433,0.008-0.868,0.024-1.3c0.008-0.268,0.025-0.534,0.041-0.8l0.029-0.488
	c0.023-0.446,0.034-0.893,0.046-1.34c0.009-0.376,0.019-0.752,0.036-1.128l0.027-0.676C2.351,7.96,2.377,7.288,2.423,6.616
	C2.432,6.481,2.474,6.355,2.552,6.23C2.606,5.825,2.9,5.557,3.283,5.535c0.96-0.058,1.922-0.087,2.883-0.117l1.078-0.034
	C7.921,5.359,8.6,5.353,9.277,5.346l0.739-0.008c0.921-0.014,1.842-0.022,2.764-0.022c1.135,0,2.221,0.039,3.306,0.078
	c0.768,0.028,1.536,0.056,2.304,0.069c0.188,0.003,0.376,0.004,0.565,0.004c0.403,0,0.808-0.006,1.211-0.012l0.922-0.012
	l0.998-0.004c0.589,0,1.177,0.005,1.765,0.016l0.285,0.004c0.324,0.005,0.647,0.01,0.972,0.028l0.464,0.027
	c0.341,0.02,0.683,0.04,1.025,0.055c0.101,0.006,0.205,0.006,0.31,0.006c0.118,0,0.238,0,0.357,0.006
	c0.205,0.013,0.412,0.031,0.619,0.051c0.13,0.013,0.26,0.022,0.39,0.031c0.196,0.014,0.392,0.028,0.586,0.054
	c0.175,0.001,0.321,0.04,0.458,0.12c0.133,0.078,0.24,0.185,0.319,0.317c0.107,0.186,0.14,0.412,0.09,0.636
	c0.029,0.142,0.046,0.202,0.046,0.261c-0.015,0.711-0.029,1.424-0.036,2.139c-0.006,0.481,0.003,0.961,0.012,1.441
	c0,0,0.02,1.299,0.024,1.691c0.007,0.829,0.015,1.657,0.058,2.485c0,0,0.068,1.044,0.08,1.287c0.017,0.343,0.028,0.686,0.038,1.028
	l0.01,0.308c0.026,0.883,0.051,1.769,0.037,2.655c-0.005,0.366-0.02,0.734-0.033,1.101c-0.02,0.509-0.039,1.018-0.034,1.526
	l0.002,0.267c0.007,0.739,0.013,1.503-0.087,2.251l-0.005,0.034l0.048,0.086c0.134,0.42,0,0.89-0.347,1.053
	c-0.273,0.128-0.577,0.188-0.957,0.188c-0.247-0.004-0.412-0.01-0.576-0.017c-0.166-0.006-0.331-0.013-0.498-0.016l-0.4-0.002
	c-0.333,0-0.667,0.005-1,0.01l-0.649,0.008c-0.602,0.004-1.203,0.019-1.804,0.034l-1.013,0.024H21.25c0,0-2.092,0.027-2.425,0.033
	c-0.449,0.008-0.897,0.017-1.346,0.017L17.081,26.681z M8.839,6.75c-1.653,0-3.274,0.095-4.926,0.201L3.825,6.956L3.819,7.043
	C3.772,7.666,3.725,8.289,3.702,8.914c-0.013,0.388-0.017,0.775-0.021,1.163c-0.003,0.311-0.006,0.622-0.015,0.933l-0.028,0.862
	c-0.015,0.448-0.03,0.897-0.038,1.344c-0.007,0.506-0.007,1.012-0.007,1.518l-0.003,1.27c-0.004,1.499-0.009,2.998-0.039,4.499
	c-0.009,0.427-0.023,0.855-0.037,1.283c-0.034,1.019-0.069,2.072-0.031,3.109l0.003,0.092l0.092,0.004
	c0.527,0.025,1.054,0.047,1.582,0.047c0.411,0,0.822-0.013,1.231-0.048c0.741-0.062,1.497-0.069,2.227-0.077l0.675-0.008
	c0.419-0.008,0.838-0.011,1.256-0.011c0.528,0,1.056,0.005,1.584,0.016c0.546,0.01,1.092,0.01,1.638,0.011
	c0.399,0,1.649,0.007,1.649,0.007s1.855-0.014,2.268-0.014l1.496,0.01c0.731,0.006,1.461,0.012,2.191,0.012
	c0.616,0,1.231-0.004,1.845-0.016l0.629-0.013c0.725-0.015,1.451-0.03,2.177-0.03l1.745,0.014l0.494-0.014l0.076-0.383
	c0.038-0.382,0.045-0.757,0.052-1.133l0.028-1.158c0.004-0.136,0.012-0.271,0.021-0.407c0.009-0.151,0.018-0.303,0.021-0.455
	c0.029-1.279,0.031-2.407,0.008-3.451c-0.015-0.766-0.06-1.599-0.141-2.622c-0.064-0.811-0.125-1.684-0.138-2.57l-0.003-0.631
	c0-0.246,0-0.493-0.005-0.74c-0.004-0.257-0.038-1.351-0.038-1.351c-0.017-0.836-0.023-1.672-0.02-2.508l0.001-0.09l-0.09-0.01
	c-0.694-0.08-1.435-0.135-2.33-0.177c-0.502-0.023-1.003-0.04-1.505-0.058l-1.198-0.044c-0.791-0.032-1.585-0.034-2.377-0.035
	l-0.388-0.001c-0.923-0.002-1.847-0.016-2.769-0.041c-0.291-0.008-0.582-0.03-0.873-0.051l-1.856-0.114
	c-0.653-0.043-1.307-0.047-1.961-0.05c-0.288-0.002-0.577-0.003-0.865-0.008c-0.924-0.018-1.85-0.031-2.773-0.037L8.839,6.75z
	 M11.739,21.347c-0.429,0-0.853-0.008-1.28-0.015L9.91,21.323c-0.888-0.013-1.807-0.027-2.703-0.118
	c-0.251-0.026-0.454-0.08-0.631-0.258c-0.165-0.164-0.259-0.391-0.259-0.623c0-0.09,0.027-0.181,0.055-0.266
	c0.045-0.871,0.112-1.514,0.222-2.109l0.023-0.124c0.105-0.577,0.214-1.174,0.497-1.675c0.241-0.425,0.571-0.793,0.953-1.063
	l0.095-0.067L8.08,14.934c-0.292-0.319-0.562-0.668-0.64-1.082c-0.019-0.105-0.036-0.211-0.051-0.317
	c-0.035-0.217-0.059-0.363-0.053-0.475c0.021-0.403,0.129-0.791,0.323-1.154c0.209-0.391,0.501-0.703,0.894-0.951
	c0.285-0.181,0.641-0.318,1.087-0.419c0.25-0.056,0.453-0.082,0.639-0.082c0.621,0.03,1.176,0.331,1.55,0.787
	c0.326,0.398,0.518,0.884,0.606,1.53c0.023,0.18,0.029,0.356,0.015,0.538c-0.006,0.076-0.014,0.15-0.023,0.228
	c-0.027,0.22-0.066,0.364-0.154,0.571c-0.09,0.211-0.225,0.386-0.367,0.571l-0.069,0.09l0.022,0.143
	c0.256,0.152,0.467,0.288,0.625,0.455c0.282,0.301,0.539,0.704,0.786,1.231c0.215,0.462,0.353,0.896,0.42,1.324
	c0.069,0.45,0.132,0.893,0.142,1.343l0.007,0.358c0.005,0.307,0.011,0.614,0.027,0.922c0.009,0.185-0.062,0.369-0.203,0.516
	c-0.151,0.158-0.364,0.253-0.57,0.253l-0.113-0.02C12.567,21.344,12.14,21.347,11.739,21.347z M10.045,16.044
	c-0.307,0.048-0.629,0.107-0.952,0.215c-0.065,0.034-0.112,0.062-0.158,0.093c-0.112,0.098-0.205,0.193-0.293,0.294
	c-0.089,0.131-0.159,0.254-0.225,0.383c-0.097,0.276-0.157,0.551-0.214,0.825c-0.052,0.236-0.093,0.473-0.129,0.713
	c-0.029,0.288-0.046,0.572-0.059,0.857L8.012,19.52l0.096,0.008c0.941,0.083,1.663,0.123,2.34,0.132l0.488,0.002l1.37-0.007
	l-0.003-0.103c-0.009-0.309-0.027-0.618-0.06-0.924c-0.066-0.439-0.154-0.803-0.279-1.149c-0.145-0.319-0.321-0.629-0.524-0.929
	c-0.044-0.049-0.079-0.084-0.116-0.118c-0.102-0.071-0.202-0.132-0.304-0.188l0.006-0.017l-0.111-0.047l-0.003,0.006
	c-0.016-0.008-0.032-0.016-0.048-0.024c-0.154-0.054-0.297-0.09-0.444-0.119c-0.072-0.006-0.132-0.008-0.192-0.008
	C10.166,16.036,10.106,16.039,10.045,16.044z M10.156,11.969c-0.192,0.041-0.362,0.096-0.53,0.16
	c-0.099,0.05-0.184,0.099-0.268,0.154c-0.067,0.057-0.12,0.107-0.171,0.162c-0.052,0.077-0.089,0.141-0.123,0.208
	c-0.043,0.115-0.075,0.219-0.1,0.329c-0.002,0.083,0.001,0.142,0.006,0.2c0.025,0.139,0.053,0.264,0.092,0.389l0.069,0.119
	c0.075,0.083,0.143,0.15,0.215,0.212c0.16,0.117,0.318,0.219,0.486,0.305l0.288,0.117l0.05-0.052
	c0.172-0.18,0.339-0.364,0.498-0.556c0.064-0.089,0.12-0.173,0.169-0.263c0.039-0.27,0.043-0.46,0.027-0.653
	c-0.028-0.146-0.061-0.279-0.105-0.41c-0.04-0.077-0.074-0.134-0.112-0.19c-0.005-0.005-0.01-0.011-0.015-0.016l0.016-0.01
	l-0.017,0.008c-0.007-0.007-0.014-0.015-0.021-0.022l0.006-0.004l-0.083-0.07l-0.137-0.084l-0.116-0.036h-0.014L10.156,11.969z
	 M16.803,17.827c-0.215,0-0.42-0.088-0.577-0.248c-0.154-0.157-0.243-0.37-0.243-0.583c0-0.454,0.373-0.827,0.832-0.83
	c0,0,2.418,0.013,2.798,0.013l1.266-0.012c0.29-0.005,0.58-0.01,0.871-0.01c0.16,0,0.809,0.017,0.972,0.017
	c0.204,0,0.406-0.007,0.609-0.028c0.001,0,0.002,0,0.004,0c0.226,0,0.424,0.115,0.539,0.23c0.146,0.146,0.229,0.347,0.229,0.552
	c0,0.424-0.345,0.768-0.786,0.782c-0.129,0.004-0.782,0.006-0.782,0.006l-0.787,0.022c-0.306,0.007-0.61,0.008-0.915,0.008l-0.611,0
	c-0.627,0.001-1.253,0.022-1.88,0.042c-0.51,0.017-1.02,0.033-1.53,0.039H16.803z M17.363,14.234c-0.413,0-0.763-0.352-0.763-0.769
	s0.348-0.769,0.76-0.769l0.293,0.001c1.003,0,1.919-0.041,2.798-0.125c0.294-0.029,0.588-0.045,0.883-0.061l0.417-0.025
	c0.22-0.012,0.446-0.031,0.668-0.056c0.049-0.006,0.096-0.008,0.145-0.008c0.132,0,0.277,0.018,0.457,0.058
	c0.189,0.043,0.353,0.167,0.462,0.348c0.119,0.198,0.156,0.44,0.099,0.649c-0.057,0.203-0.193,0.38-0.374,0.485
	c-0.128,0.074-0.263,0.11-0.408,0.11c-0.145-0.018-0.3-0.025-0.455-0.025c-0.174,0-0.348,0.008-0.523,0.017l-0.421,0.017
	c-0.331,0.012-0.665,0.025-0.995,0.042c-0.233,0.012-1.182,0.042-1.422,0.054c-0.538,0.028-1.078,0.054-1.617,0.056H17.363z"/>
</svg>