<?xml version="1.0" encoding="utf-8"?>
<!-- Generator: Adobe Illustrator 21.1.0, SVG Export Plug-In . SVG Version: 6.00 Build 0)  -->
<svg version="1.1" id="designs" xmlns="http://www.w3.org/2000/svg" xmlns:xlink="http://www.w3.org/1999/xlink" x="0px" y="0px"
	 width="32px" height="32px" viewBox="0 0 32 32" style="enable-background:new 0 0 32 32;" xml:space="preserve">
<style type="text/css">
	.sketchy_een{fill:#111918;}
</style>
<path class="sketchy_een" d="M17.891,7.431c-0.155-0.114-0.337-0.182-0.513-0.257c-0.134-0.056-0.269-0.103-0.41-0.134
	c-0.058-0.013-0.117-0.019-0.174-0.02c-0.143-0.124-0.328-0.201-0.528-0.201c-0.209,0-0.42,0.002-0.629,0.011
	c-0.302,0.012-0.556,0.097-0.827,0.223c-0.139,0.066-0.261,0.167-0.383,0.26C14.318,7.395,14.2,7.478,14.107,7.58
	c-0.103,0.116-0.197,0.246-0.281,0.377c-0.255,0.397-0.437,0.858-0.554,1.314c-0.06,0.226-0.077,0.465-0.093,0.699
	c-0.006,0.085-0.01,0.17-0.014,0.256c-0.006,0.167,0.008,0.312,0.031,0.48c0.066,0.476,0.271,0.879,0.602,1.227
	c0.141,0.149,0.316,0.275,0.488,0.387c0.226,0.147,0.455,0.271,0.726,0.325c0.399,0.079,0.799,0.217,1.212,0.186
	c0.447-0.037,0.875-0.205,1.243-0.463c0.196-0.137,0.383-0.292,0.569-0.441c0.176-0.141,0.308-0.327,0.441-0.507
	c0.294-0.395,0.405-0.856,0.451-1.338c0.046-0.463,0.101-0.941-0.085-1.382C18.639,8.208,18.329,7.747,17.891,7.431z M17.307,10.087
	c-0.02,0.115-0.05,0.225-0.089,0.334c-0.042,0.088-0.09,0.173-0.144,0.255c-0.102,0.114-0.218,0.214-0.336,0.309
	c-0.104,0.077-0.213,0.144-0.328,0.201c-0.08,0.03-0.161,0.057-0.245,0.077c-0.047,0.001-0.094,0-0.142-0.003
	c-0.093-0.018-0.186-0.039-0.278-0.06c-0.133-0.029-0.273-0.05-0.404-0.089c-0.097-0.053-0.191-0.118-0.281-0.184
	c-0.089-0.075-0.172-0.155-0.249-0.242c-0.02-0.03-0.038-0.061-0.055-0.092c-0.024-0.076-0.043-0.153-0.058-0.231
	c-0.009-0.166,0-0.336,0.018-0.501c0.036-0.194,0.097-0.376,0.17-0.561c0.078-0.169,0.171-0.333,0.278-0.486
	c0.06-0.07,0.123-0.136,0.191-0.197c0.09-0.064,0.184-0.124,0.28-0.175c0.014-0.004,0.029-0.008,0.044-0.012
	c0.195-0.009,0.393,0.008,0.586,0.008c0.052,0,0.104-0.005,0.154-0.015c0.047,0.025,0.097,0.045,0.15,0.059
	c0.033,0.008,0.066,0.017,0.098,0.027c0.097,0.049,0.192,0.105,0.281,0.166c0.046,0.04,0.089,0.082,0.13,0.126
	c0.078,0.113,0.151,0.237,0.213,0.361c0.02,0.061,0.036,0.122,0.049,0.185C17.357,9.591,17.336,9.842,17.307,10.087z M18.288,14.948
	c-0.132-0.19-0.279-0.339-0.453-0.484c-0.356-0.3-0.813-0.554-1.272-0.635c-0.096-0.017-0.188-0.026-0.278-0.021
	c-0.095-0.045-0.201-0.071-0.311-0.071c-0.005,0-0.011,0-0.016,0c-0.352,0.01-0.722,0.025-1.065,0.116
	c-0.215,0.058-0.418,0.165-0.602,0.288c-0.42,0.283-0.755,0.647-0.985,1.1c-0.255,0.499-0.445,1.024-0.447,1.591
	c0,0.296,0.052,0.594,0.093,0.887c0.037,0.267,0.153,0.511,0.302,0.734c0.203,0.308,0.418,0.615,0.71,0.846
	c0.207,0.163,0.331,0.244,0.585,0.341c0.105,0.039,0.209,0.068,0.318,0.087c0.259,0.046,0.521,0.083,0.782,0.106
	c0.48,0.046,0.968-0.06,1.372-0.329c0.476-0.312,0.871-0.736,1.161-1.223c0.194-0.325,0.379-0.67,0.451-1.045
	c0.052-0.269,0.072-0.55,0.081-0.823c0.01-0.273-0.006-0.56-0.097-0.819C18.539,15.374,18.423,15.141,18.288,14.948z M17.045,16.888
	c-0.02,0.093-0.047,0.183-0.079,0.272c-0.083,0.167-0.187,0.324-0.297,0.474c-0.094,0.109-0.194,0.208-0.303,0.301
	c-0.073,0.051-0.149,0.097-0.229,0.138c-0.072,0.025-0.145,0.048-0.219,0.066c-0.119,0.003-0.237-0.01-0.358-0.026
	c0.041,0.005,0.082,0.011,0.124,0.017c-0.143-0.019-0.286-0.034-0.428-0.05c-0.061-0.012-0.121-0.027-0.18-0.046
	c-0.025-0.014-0.05-0.03-0.074-0.046c-0.085-0.075-0.164-0.157-0.235-0.248c0.045,0.056,0.087,0.112,0.13,0.168
	c-0.129-0.166-0.271-0.334-0.374-0.52c-0.043-0.136-0.072-0.276-0.095-0.417c-0.013-0.133-0.012-0.267-0.002-0.4
	c0.028-0.133,0.073-0.261,0.123-0.387c0.084-0.187,0.177-0.364,0.293-0.531c0.047-0.051,0.097-0.098,0.149-0.143
	c0.082-0.057,0.166-0.108,0.255-0.152c0.039-0.012,0.077-0.023,0.117-0.031c0.197-0.015,0.397-0.012,0.594-0.014
	c0.003,0,0.007,0,0.01,0c0.102,0.055,0.208,0.085,0.322,0.094c0.023,0.005,0.047,0.012,0.07,0.019
	c0.131,0.065,0.26,0.142,0.381,0.225c0.048,0.044,0.093,0.091,0.136,0.139c0.049,0.076,0.09,0.157,0.128,0.239
	c0.017,0.049,0.031,0.097,0.044,0.148C17.059,16.41,17.062,16.654,17.045,16.888z M18.602,23.347
	c-0.023-0.17-0.068-0.346-0.124-0.509c-0.046-0.132-0.106-0.261-0.167-0.387c-0.077-0.161-0.19-0.294-0.3-0.436
	c-0.048-0.058-0.097-0.118-0.145-0.176c-0.151-0.182-0.325-0.322-0.513-0.463c-0.176-0.133-0.393-0.224-0.608-0.275
	c-0.067-0.016-0.135-0.023-0.201-0.023c-0.034-0.029-0.071-0.055-0.11-0.078c-0.129-0.076-0.254-0.102-0.385-0.102
	c-0.073,0-0.149,0.008-0.228,0.021c-0.29,0.047-0.569,0.103-0.846,0.199c-0.234,0.083-0.476,0.168-0.678,0.315
	c-0.488,0.354-0.797,0.864-1.007,1.423c-0.101,0.269-0.132,0.581-0.163,0.863c-0.029,0.267-0.035,0.546-0.012,0.813
	c0.05,0.565,0.244,1.105,0.695,1.477c0.414,0.343,0.896,0.587,1.434,0.662c0.271,0.037,0.556,0.075,0.83,0.044
	c0.329-0.035,0.658-0.089,0.943-0.275c0.379-0.251,0.691-0.581,0.987-0.923c0.095-0.11,0.19-0.223,0.269-0.344
	c0.074-0.114,0.124-0.246,0.172-0.374c0.076-0.203,0.112-0.418,0.143-0.634c0.017-0.123,0.035-0.246,0.043-0.369
	C18.644,23.643,18.623,23.504,18.602,23.347z M15.18,22.691c0.016-0.007,0.031-0.013,0.047-0.019
	C15.211,22.678,15.195,22.685,15.18,22.691L15.18,22.691z M15.178,22.691L15.178,22.691c-0.003,0.001-0.006,0.003-0.009,0.004
	C15.172,22.694,15.175,22.692,15.178,22.691z M17.11,24.164c-0.017,0.092-0.039,0.182-0.067,0.271
	c-0.012,0.022-0.026,0.044-0.039,0.065c-0.157,0.185-0.335,0.357-0.523,0.513c-0.063,0.045-0.128,0.087-0.197,0.123
	c-0.05,0.016-0.101,0.03-0.153,0.041c-0.181,0.013-0.363,0.004-0.542-0.015c-0.158-0.026-0.317-0.065-0.469-0.119
	c-0.089-0.045-0.176-0.096-0.258-0.153c-0.051-0.044-0.099-0.089-0.144-0.137c-0.008-0.015-0.017-0.029-0.025-0.044
	c-0.023-0.067-0.041-0.135-0.055-0.205c-0.021-0.264-0.012-0.534,0.018-0.796c0.027-0.171,0.066-0.337,0.123-0.5
	c0.055-0.112,0.122-0.217,0.191-0.32c0.044-0.049,0.091-0.095,0.14-0.139c0.061-0.039,0.125-0.074,0.19-0.106
	c0.143-0.052,0.289-0.094,0.439-0.12c0.112-0.015,0.223-0.029,0.334-0.044c0.075,0.057,0.162,0.101,0.257,0.126
	c0.012,0.003,0.024,0.007,0.036,0.01c0.033,0.019,0.064,0.039,0.095,0.06c0.076,0.067,0.144,0.138,0.209,0.214
	c0.122,0.162,0.239,0.324,0.326,0.508c0.046,0.118,0.088,0.239,0.117,0.36C17.123,23.893,17.122,24.029,17.11,24.164z M18.58,24.243
	c0.004-0.025,0.005-0.051,0.009-0.076c0.002-0.016,0.005-0.031,0.008-0.047C18.591,24.162,18.586,24.203,18.58,24.243z
	 M23.931,20.003c0.193-0.273,0.393-0.543,0.593-0.81c0.496-0.633,1.013-1.254,1.531-1.869c0.286-0.339,0.596-0.658,0.883-0.997
	c0.325-0.383,0.643-0.774,0.962-1.161c0.139-0.17,0.234-0.337,0.234-0.565c0-0.211-0.085-0.416-0.234-0.565
	c-0.104-0.104-0.24-0.163-0.382-0.198c-0.096-0.045-0.199-0.077-0.31-0.084c-0.387-0.025-0.776-0.023-1.163-0.021
	c-0.161,0.002-0.323,0.002-0.482,0c-0.375-0.003-0.751-0.011-1.128-0.011c-0.223,0-0.445,0.015-0.667,0.023
	c0.001-0.013,0.001-0.026,0.002-0.039c0.018-0.273,0.01-0.546,0.007-0.82c0.063-0.034,0.131-0.065,0.171-0.117
	c0.285-0.368,0.573-0.73,0.85-1.102c0.202-0.268,0.392-0.544,0.592-0.812c0.344-0.427,0.702-0.842,1.041-1.273
	c-0.002,0.002-0.003,0.004-0.004,0.006c0.459-0.581,0.966-1.119,1.411-1.711c0.12-0.159,0.13-0.422,0.079-0.606
	c-0.054-0.196-0.186-0.366-0.362-0.469c-0.005-0.003-0.01-0.001-0.015-0.004c-0.129-0.157-0.311-0.268-0.516-0.268
	c-0.017,0-0.034,0.001-0.052,0.002c-0.273,0.023-0.544,0.05-0.819,0.058c-0.286,0.008-0.573,0.015-0.859,0.015
	c-0.562,0.002-1.122-0.018-1.683-0.029c0.013-0.471,0.027-0.942,0.045-1.413c0.005-0.117-0.023-0.227-0.07-0.328
	c0.088-0.475-0.275-0.999-0.787-0.969c-0.242,0.013-0.482,0.002-0.724-0.01c-0.195-0.01-0.391-0.019-0.585-0.017
	c-0.399,0.006-0.797-0.002-1.194-0.002c-0.106,0-0.212,0-0.317,0c-0.51,0-1.02,0.002-1.53,0.017
	c-0.083-0.274-0.174-0.544-0.333-0.791c-0.163-0.25-0.345-0.439-0.587-0.61c-0.192-0.135-0.418-0.219-0.639-0.294
	C16.72,2.102,16.548,2.06,16.37,2.032C16.22,2.01,16.077,2,15.933,2c-0.105,0-0.21,0.005-0.32,0.015
	c-0.31,0.025-0.567,0.083-0.846,0.223c-0.081,0.042-0.159,0.093-0.232,0.145c-0.132,0.095-0.269,0.192-0.377,0.314
	c-0.168,0.192-0.292,0.391-0.391,0.621c-0.07,0.159-0.13,0.306-0.166,0.474c-0.009,0.044-0.008,0.091-0.016,0.135
	c-0.395,0.002-0.791,0.002-1.186,0.01c-0.447,0.008-0.892,0-1.34,0.021c-0.252,0.01-0.503,0.027-0.755,0.035
	c-0.199,0.006-0.397,0.006-0.594,0.004c-0.112,0-0.227,0-0.339,0C9.016,4,8.72,4.242,8.618,4.568
	C8.413,4.724,8.266,4.955,8.281,5.223c0.031,0.581,0.051,1.161,0.073,1.74C8.201,6.963,8.047,6.959,7.899,6.971
	C7.583,6.993,7.264,6.991,6.948,6.991c-0.691,0-1.382-0.044-2.073-0.052c-0.002,0-0.005,0-0.007,0c-0.183,0-0.346,0.076-0.479,0.187
	c-0.107,0.04-0.208,0.097-0.29,0.179C3.95,7.454,3.867,7.657,3.867,7.868c0,0.223,0.089,0.401,0.232,0.563
	c0.36,0.41,0.703,0.836,1.07,1.239c0.362,0.397,0.739,0.782,1.101,1.183c0.341,0.377,0.697,0.738,1.049,1.105
	c0.309,0.322,0.633,0.642,0.913,0.99c0.002,0.003,0.004,0.006,0.006,0.009c0.068,0.094,0.144,0.169,0.23,0.232
	c-0.001,0.182,0.004,0.364,0.005,0.546c-0.018,0-0.037,0.001-0.055,0c-0.114-0.002-0.227-0.004-0.339-0.004
	c-0.31,0.002-0.617-0.004-0.925-0.017c-0.697-0.031-1.392-0.099-2.089-0.128c-0.009,0-0.019-0.001-0.028-0.001
	c-0.421,0-0.768,0.385-0.768,0.796c0,0.117,0.028,0.225,0.074,0.324c0.014,0.099,0.04,0.197,0.095,0.269
	c0.343,0.453,0.697,0.894,1.063,1.328c0.29,0.343,0.602,0.662,0.91,0.987c0.337,0.356,0.666,0.72,0.999,1.08
	c0.28,0.299,0.552,0.614,0.805,0.937c0.004,0.005,0.007,0.01,0.01,0.016c0.005,0.007,0.011,0.011,0.016,0.018
	c-0.009-0.011-0.017-0.022-0.026-0.033c-0.002-0.002-0.004-0.005-0.006-0.007c0,0,0,0.001,0,0.001
	c-0.007-0.009-0.014-0.019-0.022-0.028c0.002,0.002,0.003,0.004,0.005,0.006c-0.01-0.013-0.019-0.026-0.029-0.039
	c0.027,0.035,0.055,0.07,0.082,0.106c0.051,0.069,0.104,0.133,0.166,0.183c-0.002,0.408-0.007,0.815-0.01,1.223
	c-0.168,0.013-0.336,0.035-0.498,0.044c-0.203,0.011-0.405-0.008-0.608-0.01c-0.732-0.012-1.465-0.019-2.197,0.021
	c-0.222,0.012-0.425,0.102-0.572,0.246c-0.116,0.039-0.226,0.095-0.312,0.182c-0.319,0.319-0.298,0.815,0,1.136
	c0.377,0.408,0.77,0.801,1.163,1.196c0.149,0.153,0.3,0.306,0.455,0.451c0.178,0.164,0.364,0.321,0.536,0.49
	c0.657,0.647,1.27,1.342,1.966,1.949c-0.011,0.453-0.037,0.906-0.045,1.358c-0.004,0.201-0.031,0.399-0.039,0.598
	c-0.008,0.223-0.01,0.449-0.035,0.67c-0.025,0.209,0.103,0.453,0.246,0.596c0.157,0.157,0.374,0.246,0.596,0.246
	c0.006,0,0.012-0.004,0.018-0.004c0.103,0.05,0.215,0.081,0.335,0.076c0.813-0.035,1.626-0.091,2.441-0.11
	c0.337-0.008,0.676-0.012,1.014-0.016c0.378-0.002,0.751-0.025,1.129-0.052c0.676-0.048,1.355-0.052,2.033-0.05
	c0.666,0,1.332-0.075,1.996-0.108c0.859-0.044,1.723-0.114,2.584-0.091c0.302,0.01,0.614-0.014,0.916-0.029
	c0.3-0.017,0.596-0.015,0.896-0.015c0.004,0,0.007-0.002,0.011-0.002c0.072,0.019,0.143,0.043,0.218,0.043
	c0.227,0,0.445-0.091,0.606-0.251c0.107-0.106,0.18-0.232,0.221-0.377c0.038-0.143,0.04-0.285,0.007-0.428
	c-0.026-0.341-0.001-0.684-0.007-1.024c-0.003-0.175-0.005-0.35-0.008-0.525c0.034-0.025,0.079-0.039,0.103-0.071
	c0.155-0.198,0.301-0.402,0.451-0.603c0.243-0.305,0.509-0.589,0.772-0.878c0.31-0.341,0.598-0.699,0.892-1.053
	c0.215-0.257,0.472-0.474,0.707-0.714c0.383-0.391,0.743-0.807,1.094-1.227c0.141-0.168,0.236-0.341,0.236-0.569
	c0-0.033-0.015-0.064-0.019-0.096c0-0.006,0.004-0.013,0.004-0.019c0-0.403-0.338-0.773-0.748-0.773c-0.007,0-0.015,0-0.022,0
	c-0.412,0.015-0.827,0.019-1.237,0.052c-0.505,0.041-1.012,0.025-1.52,0.012c-0.24-0.006-0.478-0.009-0.717-0.01
	c0.003-0.162,0.004-0.324,0.007-0.486C23.638,20.364,23.793,20.196,23.931,20.003z M24.427,15.242
	c0.368-0.013,0.734-0.019,1.101-0.021c0.111,0,0.222,0.002,0.334,0.004c-0.038,0.051-0.077,0.101-0.116,0.152
	c0.004-0.005,0.008-0.01,0.012-0.016c-0.484,0.614-0.991,1.212-1.496,1.808c-0.258,0.303-0.503,0.616-0.745,0.932
	c0.039-0.638,0.108-1.275,0.142-1.912c0.014-0.294,0.025-0.588,0.036-0.883C23.938,15.281,24.182,15.251,24.427,15.242z
	 M25.757,8.061c-0.184,0.235-0.372,0.469-0.554,0.706c0.039-0.05,0.077-0.101,0.116-0.151c-0.304,0.389-0.621,0.767-0.939,1.142
	c-0.235,0.278-0.448,0.573-0.664,0.864c0-0.125-0.005-0.251-0.004-0.376c0.002-0.313-0.031-0.625-0.056-0.937
	c-0.029-0.341-0.033-0.681-0.045-1.024c-0.002-0.063-0.002-0.126-0.004-0.19c0.551-0.01,1.102-0.029,1.654-0.029
	C25.427,8.065,25.592,8.062,25.757,8.061z M15.345,3.785c0.048-0.053,0.1-0.102,0.155-0.149c0.027-0.017,0.054-0.034,0.082-0.049
	c0.048-0.015,0.096-0.026,0.145-0.036c0.128-0.012,0.255-0.014,0.384-0.004c0.164,0.033,0.324,0.083,0.481,0.141
	c0.041,0.021,0.079,0.044,0.117,0.069c0.038,0.034,0.073,0.07,0.108,0.108c0.004,0.005,0.007,0.011,0.01,0.017
	c-0.196,0.003-0.392,0.004-0.587,0.01c-0.321,0.01-0.643,0.01-0.964,0.014C15.299,3.866,15.32,3.824,15.345,3.785z M7.764,10.317
	C7.467,9.994,7.181,9.659,6.887,9.332C6.631,9.047,6.38,8.76,6.138,8.463c0.227-0.008,0.455-0.017,0.682-0.017
	c0.321,0,0.643,0.002,0.964,0.016c0.132,0.004,0.261,0.016,0.391,0.017c0.029,0.002,0.06,0.002,0.091,0.002c0.041,0,0.082,0,0.124,0
	c0.002,0,0.003,0,0.004,0c0.007,0.311,0.031,0.621,0.043,0.93c0.02,0.545,0.036,1.091,0.045,1.636
	C8.242,10.806,7.996,10.57,7.764,10.317z M8.017,16.863c-0.288-0.317-0.577-0.637-0.869-0.952c-0.206-0.223-0.388-0.468-0.573-0.709
	c0.194,0.004,0.388,0.005,0.581,0.015c0.308,0.015,0.616,0.006,0.925,0.015c0.134,0.006,0.268,0.002,0.404,0
	c0.005,0.523,0.01,1.046-0.01,1.568c-0.007,0.182-0.008,0.366-0.014,0.549C8.312,17.188,8.164,17.026,8.017,16.863z M6.924,22.98
	c-0.167-0.153-0.314-0.325-0.463-0.494c-0.041-0.046-0.081-0.092-0.122-0.137c0.3-0.011,0.601-0.02,0.901-0.011
	c0.186,0.004,0.366,0.01,0.552,0.004c0.195-0.008,0.393-0.041,0.589-0.053c-0.015,0.707-0.025,1.414-0.031,2.121
	c-0.309-0.317-0.612-0.641-0.921-0.957C7.269,23.288,7.095,23.135,6.924,22.98z M20.183,28.077
	c-0.557,0.014-1.109,0.083-1.667,0.122c-0.339,0.023-0.676,0.07-1.014,0.103c-0.327,0.031-0.658,0.046-0.989,0.052
	c-0.536,0.008-1.074,0.01-1.611,0.004c-0.579-0.006-1.154,0.068-1.732,0.072c-0.573,0.006-1.144-0.008-1.715-0.019
	c-0.513-0.012-1.024-0.014-1.535-0.013c0.006-0.193,0.003-0.387,0.014-0.58c0.015-0.26,0.021-0.521,0.029-0.78
	c0.01-0.335-0.006-0.668-0.002-1.001c0.008-0.743-0.002-1.485-0.01-2.228c-0.008-0.807,0.002-1.612,0.012-2.42
	c0.01-0.8,0.008-1.601,0.039-2.4c0.029-0.766,0.064-1.533,0.095-2.298c0.033-0.805,0.021-1.611,0.025-2.416
	c0.002-0.41,0.016-0.821,0.01-1.231c-0.002-0.188-0.014-0.375-0.023-0.563c-0.019-0.379-0.01-0.763-0.01-1.142
	c-0.002-0.654,0.01-1.309-0.031-1.961c-0.019-0.312-0.037-0.623-0.045-0.937c-0.008-0.302,0.004-0.604-0.01-0.908
	C9.998,7.184,9.967,6.839,9.973,6.489c0.004-0.308,0.002-0.617-0.001-0.925c0.432-0.028,0.864-0.061,1.296-0.069
	c0.559-0.012,1.117,0.004,1.676-0.027c0.714-0.039,1.429-0.058,2.145-0.085c0.513-0.019,1.026-0.013,1.539-0.01
	c0.248,0.002,0.496,0.004,0.743,0.002c0.59-0.002,1.181-0.006,1.771,0.021c0.257,0.011,0.515,0.011,0.772,0.017
	c0.217,0.006,0.436,0.025,0.654,0.027c0.325,0.002,0.652,0.002,0.98,0.008c0.163,0.002,0.327,0.001,0.491,0.002
	c-0.006,0.729,0.009,1.456,0.014,2.185c0.004,0.36,0.025,0.72,0.023,1.08c-0.004,0.35,0.029,0.693,0.05,1.041
	c0.058,0.954,0.002,1.907,0.002,2.861c0.002,1.349,0.033,2.704-0.062,4.052c-0.027,0.399-0.066,0.798-0.101,1.196
	c-0.031,0.36-0.039,0.722-0.048,1.084c-0.01,0.372-0.006,0.745-0.004,1.117c0.002,0.662,0.025,1.322,0.031,1.984
	c0.008,0.728,0.008,1.456,0.002,2.183c-0.008,0.687-0.035,1.373-0.048,2.06c-0.004,0.236-0.014,0.474-0.019,0.71
	c-0.006,0.259-0.031,0.517-0.039,0.774c-0.001,0.072-0.01,0.145-0.017,0.218C21.277,28.023,20.731,28.064,20.183,28.077z
	 M25.359,22.493c-0.051,0.061-0.099,0.124-0.15,0.184c-0.132,0.155-0.271,0.302-0.418,0.443c-0.145,0.143-0.272,0.299-0.397,0.46
	c0.009-0.012,0.018-0.024,0.028-0.036c-0.05,0.064-0.1,0.129-0.15,0.193c-0.259,0.325-0.541,0.629-0.816,0.939
	c0.001-0.712,0.001-1.424,0.003-2.136C24.091,22.523,24.725,22.506,25.359,22.493z M8.242,19.341
	c0.001,0.002,0.003,0.003,0.005,0.005c0.02,0.025,0.039,0.051,0.059,0.076C8.284,19.396,8.263,19.369,8.242,19.341z"/>
</svg>