<?xml version="1.0" encoding="utf-8"?>
<!-- Generator: Adobe Illustrator 21.1.0, SVG Export Plug-In . SVG Version: 6.00 Build 0)  -->
<svg version="1.1" id="designs" xmlns="http://www.w3.org/2000/svg" xmlns:xlink="http://www.w3.org/1999/xlink" x="0px" y="0px"
	 width="32px" height="32px" viewBox="0 0 32 32" style="enable-background:new 0 0 32 32;" xml:space="preserve">
<style type="text/css">
	.sketchy_een{fill:#111918;}
</style>
<path class="sketchy_een" d="M24.89,26.343c0.037-0.028,0.073-0.057,0.109-0.085c0.026-0.021,0.053-0.041,0.079-0.061
	C25.016,26.247,24.954,26.295,24.89,26.343z M29.992,16.44c-0.056,0.944-0.209,1.863-0.457,2.775
	c-0.247,0.898-0.515,1.807-0.949,2.635c-0.453,0.871-1.011,1.699-1.638,2.455c-0.586,0.708-1.227,1.38-1.948,1.952
	c-0.545,0.417-1.108,0.799-1.688,1.167c-0.566,0.359-1.217,0.578-1.845,0.802c-0.61,0.219-1.225,0.423-1.835,0.642
	c-0.251,0.088-0.495,0.187-0.76,0.229c-0.325,0.054-0.654,0.099-0.981,0.141c0.082-0.01,0.166-0.022,0.251-0.032
	c-0.525,0.07-1.057,0.156-1.588,0.179c-0.423,0.016-0.85,0.006-1.275,0.006c-0.407,0-0.81-0.024-1.217-0.058
	c-0.275-0.022-0.549-0.05-0.822-0.094c-0.182-0.028-0.353-0.088-0.529-0.134c-0.385-0.101-0.78-0.179-1.149-0.331
	c-0.182-0.076-0.365-0.148-0.545-0.221c-0.255-0.104-0.533-0.192-0.766-0.343c-0.325-0.207-0.65-0.415-0.975-0.622
	c-0.337-0.215-0.688-0.389-1.041-0.576c-0.409-0.215-0.782-0.461-1.145-0.748c-0.329-0.259-0.62-0.56-0.937-0.833
	c-0.335-0.287-0.662-0.577-0.959-0.904c-0.335-0.367-0.656-0.738-0.955-1.133c-0.263-0.349-0.461-0.754-0.684-1.129
	c-0.223-0.371-0.397-0.77-0.57-1.165c-0.19-0.441-0.385-0.878-0.547-1.33c-0.203-0.556-0.383-1.113-0.427-1.707
	c-0.042-0.566,0.062-1.129,0.138-1.689c0.056-0.427,0.142-0.848,0.237-1.269c0.207-0.92,0.433-1.831,0.788-2.708
	c0.375-0.924,0.86-1.799,1.468-2.593c0.604-0.792,1.304-1.482,2.026-2.164c0.349-0.329,0.696-0.66,1.037-1.001
	c0.337-0.339,0.668-0.684,1.027-1c0.768-0.676,1.626-1.239,2.535-1.708c0.423-0.219,0.876-0.381,1.328-0.534
	c0.401-0.136,0.812-0.265,1.223-0.367c0.479-0.123,0.961-0.197,1.45-0.261c0.343-0.045,0.684-0.075,1.026-0.081
	c0.121-0.058,0.244-0.081,0.371-0.081c0.081,0,0.164,0.009,0.249,0.025c0.433,0.083,0.844,0.231,1.267,0.353
	c0.213,0.06,0.429,0.114,0.64,0.187c0.216,0.073,0.423,0.165,0.633,0.256c0.423,0.168,0.857,0.308,1.281,0.474
	c0.519,0.205,1.011,0.453,1.494,0.73c0.423,0.241,0.842,0.483,1.269,0.716c0.295,0.165,0.596,0.327,0.866,0.53
	c0.269,0.202,0.483,0.425,0.71,0.667c0.297,0.315,0.61,0.614,0.91,0.923c0.373,0.381,0.708,0.802,1.027,1.227
	c0.568,0.756,1.115,1.526,1.614,2.329c0.231,0.375,0.431,0.768,0.612,1.169c0.108,0.241,0.205,0.487,0.253,0.748
	c0.036,0.19,0.068,0.383,0.104,0.574C29.773,14.481,30.052,15.448,29.992,16.44z M25.125,10.4c0.068-0.038,0.134-0.079,0.199-0.123
	c0.074-0.064,0.142-0.13,0.208-0.203c0.007-0.01,0.015-0.02,0.022-0.03c0.028-0.039,0.059-0.071,0.09-0.106
	c-0.011-0.015-0.022-0.03-0.033-0.045c-0.246-0.311-0.518-0.598-0.784-0.89c-0.12,0.004-0.24-0.001-0.36,0.01
	c-0.059,0.012-0.117,0.025-0.175,0.043c-0.033,0.018-0.066,0.037-0.097,0.057c-0.059,0.054-0.115,0.111-0.168,0.171
	c-0.045,0.067-0.086,0.137-0.123,0.209c-0.016,0.048-0.03,0.096-0.043,0.146c-0.002,0.049-0.002,0.099,0.001,0.148
	c0.01,0.041,0.022,0.081,0.035,0.121c0.012,0.023,0.024,0.046,0.038,0.069c0.061,0.042,0.125,0.081,0.19,0.114
	C24.452,10.215,24.781,10.335,25.125,10.4z M24.071,10.074c-0.027-0.012-0.054-0.023-0.081-0.035
	C24.017,10.051,24.044,10.062,24.071,10.074C24.071,10.074,24.071,10.074,24.071,10.074z M4.09,15.017
	c-0.12,0.525-0.222,1.054-0.302,1.585c0.016,0,0.03-0.009,0.046-0.008c0.107,0.006,0.211,0.007,0.315,0.001
	c0.08-0.018,0.158-0.04,0.235-0.065c0.053-0.028,0.105-0.057,0.155-0.089c0.022-0.021,0.043-0.042,0.064-0.064
	c0.036-0.057,0.07-0.115,0.102-0.176c0.023-0.064,0.043-0.129,0.059-0.195c0.001-0.028,0-0.055-0.001-0.083
	c-0.038-0.183-0.088-0.364-0.152-0.54c-0.015-0.029-0.03-0.058-0.047-0.086c-0.01-0.01-0.02-0.02-0.031-0.029
	C4.393,15.172,4.24,15.097,4.09,15.017z M4.661,16.312L4.661,16.312c0.004-0.01,0.008-0.019,0.012-0.029
	C4.669,16.293,4.665,16.303,4.661,16.312z M5.799,22.458c-0.003-0.003-0.005-0.007-0.008-0.011c0,0,0.001,0.001,0.001,0.001
	C5.795,22.452,5.797,22.456,5.799,22.458z M21.492,26.211c-0.044-0.045-0.089-0.087-0.13-0.142
	c-0.011-0.012-0.022-0.024-0.033-0.036c-0.081-0.024-0.163-0.042-0.246-0.057c-0.288-0.028-0.57-0.025-0.859,0.003
	c-0.098,0.017-0.194,0.037-0.29,0.062c-0.015,0.009-0.029,0.018-0.044,0.027c-0.054,0.051-0.104,0.104-0.153,0.159
	c-0.094,0.136-0.18,0.275-0.255,0.424c-0.024,0.075-0.045,0.149-0.062,0.226c-0.002,0.026,0.004,0.052,0.003,0.079
	c0.155-0.053,0.311-0.105,0.467-0.155C20.43,26.624,20.963,26.42,21.492,26.211z M28.263,15.666
	c-0.09-0.488-0.205-0.973-0.315-1.458c-0.087-0.389-0.161-0.783-0.297-1.159c-0.301-0.605-0.653-1.18-1.028-1.738
	c-0.276,0.281-0.611,0.52-0.977,0.645c-0.421,0.144-0.914,0.068-1.338-0.058c-0.333-0.099-0.678-0.195-0.991-0.345
	c-0.241-0.114-0.473-0.267-0.654-0.465c-0.155-0.172-0.245-0.355-0.331-0.558c-0.098-0.247-0.168-0.491-0.172-0.763
	c-0.004-0.237,0.024-0.481,0.104-0.704c0.15-0.419,0.377-0.798,0.706-1.099c0.162-0.147,0.335-0.271,0.521-0.372
	c-0.065-0.066-0.125-0.136-0.195-0.197c-0.502-0.355-1.07-0.592-1.592-0.917c-0.434-0.272-0.873-0.537-1.34-0.75
	c-0.3-0.122-0.603-0.241-0.906-0.351c-0.342-0.124-0.674-0.256-1.008-0.395c-0.321-0.117-0.65-0.209-0.973-0.319
	c-0.219-0.074-0.437-0.15-0.659-0.215c-0.015,0-0.03,0-0.045-0.001c-0.539-0.036-1.065,0-1.6,0.062
	c-0.199,0.026-0.399,0.053-0.592,0.101c-0.261,0.064-0.519,0.132-0.776,0.203c-0.472,0.13-0.938,0.283-1.394,0.458
	c-0.786,0.363-1.524,0.814-2.218,1.332C9.477,7.23,8.821,7.922,8.12,8.571C7.733,8.928,7.346,9.285,6.969,9.654
	c-0.313,0.307-0.601,0.639-0.886,0.974c-0.509,0.682-0.946,1.401-1.318,2.167C4.684,13,4.615,13.209,4.544,13.417
	c0.04,0.016,0.081,0.028,0.119,0.052c0.158,0.101,0.323,0.187,0.487,0.273c0.305,0.163,0.568,0.359,0.774,0.64
	c0.229,0.315,0.349,0.722,0.439,1.097c0.132,0.545,0.046,1.097-0.213,1.594c-0.443,0.853-1.374,1.308-2.318,1.261
	c-0.015,0-0.028-0.008-0.043-0.01c0.101,0.385,0.232,0.76,0.385,1.129c0.224,0.519,0.459,1.04,0.726,1.54
	c0.13,0.245,0.283,0.479,0.425,0.718c0.147,0.245,0.288,0.5,0.46,0.729c0.361,0.432,0.738,0.849,1.163,1.222
	c0.41,0.362,0.817,0.736,1.245,1.078c0.249,0.185,0.508,0.362,0.782,0.508c0.313,0.168,0.638,0.317,0.955,0.477
	c0.305,0.154,0.59,0.349,0.89,0.514c0.158,0.086,0.311,0.187,0.469,0.271c0.108,0.058,0.219,0.109,0.331,0.159
	c0.758,0.305,1.54,0.568,2.35,0.693c0.704,0.079,1.42,0.111,2.126,0.117c0.552,0.005,1.107-0.047,1.657-0.11
	c-0.025-0.286-0.027-0.563,0.035-0.848c0.046-0.207,0.116-0.411,0.211-0.602c0.154-0.307,0.361-0.587,0.588-0.844
	c0.301-0.343,0.702-0.576,1.149-0.648c0.211-0.034,0.429-0.062,0.644-0.066c0.039-0.001,0.079-0.002,0.118-0.002
	c0.334,0,0.668,0.038,0.995,0.104c0.213,0.042,0.445,0.096,0.63,0.215c0.187,0.118,0.337,0.252,0.469,0.423
	c0.098,0.101,0.166,0.215,0.205,0.349c0.006,0.021,0.005,0.042,0.009,0.063c0.022-0.014,0.044-0.027,0.066-0.041
	c0.341-0.219,0.676-0.443,1.001-0.683c0.78-0.64,1.483-1.385,2.12-2.167c0.497-0.669,0.968-1.368,1.323-2.124
	c0.413-1.017,0.715-2.089,0.893-3.172C28.276,16.776,28.314,16.22,28.263,15.666z M22.35,10.571
	c-0.006-0.014-0.011-0.028-0.017-0.042c-0.015-0.034-0.029-0.068-0.044-0.104C22.31,10.475,22.33,10.523,22.35,10.571z
	 M19.699,14.219c-0.158,0.099-0.331,0.175-0.507,0.237c-0.182,0.066-0.371,0.088-0.564,0.114c-0.357,0.048-0.738,0.012-1.081-0.094
	c-0.365-0.112-0.696-0.291-0.987-0.542c-0.257-0.223-0.487-0.542-0.602-0.864c-0.124-0.355-0.114-0.722-0.052-1.087
	c0.05-0.287,0.146-0.563,0.315-0.804c0.195-0.275,0.461-0.487,0.746-0.664c0.166-0.102,0.335-0.188,0.519-0.256
	c0.142-0.054,0.283-0.084,0.431-0.115c0.099-0.021,0.195-0.03,0.29-0.024c0.091-0.081,0.2-0.142,0.32-0.176
	c0.067-0.019,0.131-0.027,0.193-0.027c0.143,0,0.276,0.044,0.419,0.107c0.515,0.229,0.923,0.694,1.189,1.188
	c0.088,0.166,0.188,0.349,0.225,0.535c0.038,0.183,0.094,0.393,0.074,0.578c-0.02,0.203-0.046,0.403-0.1,0.6
	C20.384,13.431,20.166,13.928,19.699,14.219z M18.991,12.32c0.001-0.042,0-0.083-0.002-0.125c-0.009-0.045-0.02-0.089-0.034-0.133
	c-0.067-0.132-0.143-0.258-0.226-0.381c-0.012-0.013-0.024-0.026-0.036-0.039c-0.09,0.076-0.197,0.131-0.319,0.156
	c-0.124,0.025-0.244,0.051-0.364,0.088c-0.127,0.063-0.248,0.137-0.366,0.217c-0.008,0.007-0.016,0.015-0.023,0.022
	c-0.007,0.012-0.014,0.023-0.02,0.035c-0.015,0.056-0.028,0.112-0.039,0.169c-0.004,0.056-0.005,0.112-0.003,0.168
	c0.022,0.037,0.044,0.072,0.068,0.107c0.028,0.033,0.057,0.063,0.089,0.094c0.069,0.048,0.14,0.092,0.215,0.133
	c0.1,0.036,0.2,0.065,0.305,0.089c0.113,0.007,0.225,0.006,0.337,0c0.06-0.012,0.119-0.027,0.178-0.046
	c0.025-0.013,0.049-0.027,0.073-0.042c0.022-0.035,0.043-0.071,0.062-0.108C18.927,12.592,18.963,12.458,18.991,12.32z
	 M14.599,19.755c0.06,0.197,0.086,0.389,0.086,0.594c0,0.337-0.15,0.684-0.351,0.948c-0.098,0.131-0.197,0.269-0.323,0.373
	c-0.09,0.074-0.178,0.146-0.271,0.215c-0.391,0.291-0.844,0.54-1.34,0.574c-0.341,0.024-0.696-0.036-1.019-0.151
	c-0.349-0.124-0.698-0.291-0.947-0.577c-0.13-0.15-0.253-0.295-0.331-0.479c-0.094-0.221-0.156-0.415-0.174-0.656
	c-0.038-0.527,0.193-1.083,0.507-1.494c0.219-0.285,0.459-0.523,0.772-0.71c0.16-0.096,0.327-0.182,0.493-0.267
	c0.107-0.053,0.216-0.09,0.327-0.105c0.09-0.043,0.187-0.071,0.281-0.071c0.015,0,0.031,0,0.046,0.002
	c0.377,0.036,0.76,0.084,1.093,0.279c0.187,0.108,0.359,0.234,0.503,0.393c0.094,0.102,0.172,0.225,0.251,0.341
	c0.086,0.126,0.162,0.259,0.227,0.397C14.49,19.488,14.558,19.621,14.599,19.755z M12.619,19.554
	c0.019,0.015,0.038,0.03,0.058,0.045c0,0,0,0,0.001,0C12.659,19.584,12.639,19.569,12.619,19.554z M11.604,20.476
	c-0.011-0.027-0.023-0.054-0.035-0.082C11.579,20.423,11.59,20.45,11.604,20.476L11.604,20.476z M13.04,20.236
	c-0.017-0.058-0.036-0.115-0.057-0.172c-0.071-0.138-0.149-0.27-0.234-0.398c-0.006-0.006-0.013-0.013-0.019-0.019
	c-0.035-0.022-0.071-0.043-0.107-0.063c-0.023-0.007-0.046-0.014-0.069-0.021c-0.002,0.001-0.005,0.002-0.007,0.003
	c-0.211,0.105-0.421,0.21-0.617,0.338c-0.047,0.043-0.09,0.088-0.133,0.136c-0.047,0.071-0.089,0.144-0.128,0.22
	c-0.021,0.068-0.04,0.136-0.056,0.205c0.004,0.017,0.009,0.034,0.014,0.051c0.038,0.039,0.076,0.077,0.116,0.115
	c0.033,0.019,0.065,0.036,0.099,0.053c0.114,0.042,0.229,0.077,0.349,0.103c0.031,0.001,0.063,0.002,0.094,0.002
	c0.045-0.013,0.088-0.026,0.132-0.042c0.135-0.07,0.263-0.149,0.388-0.236c0.057-0.05,0.111-0.102,0.163-0.157
	C12.994,20.315,13.017,20.276,13.04,20.236z M13.044,20.205c-0.019-0.045-0.039-0.09-0.058-0.135l0.001,0.003l0,0
	C13.006,20.117,13.025,20.161,13.044,20.205L13.044,20.205z M23.984,18.893c0.463,0.672,0.449,1.56,0.016,2.244
	c-0.265,0.421-0.636,0.812-1.131,0.944c-0.421,0.112-0.826,0.104-1.251,0.036c-0.138-0.022-0.275-0.054-0.407-0.102
	c-0.273-0.094-0.576-0.247-0.768-0.465c-0.263-0.299-0.443-0.605-0.592-0.973c-0.05-0.123-0.092-0.255-0.112-0.385
	c-0.02-0.14-0.06-0.287-0.05-0.431c0.004-0.11,0.016-0.22,0.036-0.329c0.008-0.078,0.024-0.154,0.048-0.23
	c0.042-0.106,0.088-0.213,0.136-0.317c0.164-0.227,0.321-0.415,0.549-0.577c0.12-0.086,0.251-0.159,0.385-0.219
	c0.253-0.114,0.507-0.23,0.782-0.279c0.146-0.024,0.295-0.05,0.441-0.072c0.087-0.014,0.17-0.023,0.251-0.023
	c0.143,0,0.279,0.028,0.417,0.109c0.012,0.007,0.024,0.015,0.036,0.022c0.112,0.014,0.219,0.048,0.301,0.11
	C23.43,18.229,23.729,18.52,23.984,18.893z M21.411,19.699c0.015-0.02,0.029-0.039,0.044-0.058
	C21.439,19.659,21.424,19.679,21.411,19.699L21.411,19.699z M22.579,20.021c0-0.046-0.001-0.091-0.003-0.137
	c-0.042-0.074-0.089-0.145-0.138-0.214c-0.065-0.075-0.134-0.145-0.207-0.211c-0.209,0.037-0.413,0.084-0.615,0.157
	c-0.07,0.034-0.139,0.068-0.206,0.107c0,0.008,0,0.015,0,0.023c0.017,0.072,0.037,0.142,0.061,0.211
	c0.047,0.09,0.101,0.174,0.159,0.257c0.023,0.027,0.048,0.053,0.073,0.079c0.022,0.014,0.045,0.026,0.067,0.039
	c0.081,0.025,0.162,0.046,0.244,0.063c0.097,0.006,0.192,0.004,0.289-0.002c0.02-0.005,0.041-0.01,0.061-0.016
	c0.002-0.001,0.004-0.002,0.006-0.003c0.029-0.029,0.058-0.058,0.085-0.088c0.032-0.049,0.062-0.099,0.091-0.15
	C22.559,20.098,22.569,20.06,22.579,20.021z M10.1,11.794c-0.307-0.022-0.626-0.09-0.898-0.239c-0.181-0.1-0.345-0.214-0.507-0.343
	c-0.062-0.05-0.134-0.101-0.189-0.159c-0.156-0.176-0.261-0.333-0.351-0.551C8.022,10.178,8.06,9.805,8.156,9.472
	c0.09-0.313,0.233-0.604,0.387-0.889C8.585,8.507,8.638,8.44,8.701,8.384C8.712,8.36,8.724,8.336,8.738,8.313
	C8.832,8.15,9.027,7.97,9.221,7.94c0.342-0.051,0.691-0.138,1.04-0.138c0.037,0,0.074,0.001,0.112,0.003
	c0.205,0.012,0.429,0.058,0.622,0.134c0.275,0.11,0.537,0.218,0.76,0.425c0.269,0.25,0.499,0.577,0.592,0.937
	c0.076,0.292,0.112,0.644,0.008,0.935c-0.102,0.291-0.235,0.547-0.447,0.772c-0.277,0.297-0.608,0.515-0.981,0.67
	C10.665,11.786,10.378,11.814,10.1,11.794z M9.707,9.899C9.705,9.883,9.703,9.867,9.701,9.851c0.001,0.016,0.002,0.031,0.005,0.046
	C9.706,9.897,9.706,9.898,9.707,9.899z M9.759,10.062c-0.005-0.011-0.01-0.022-0.014-0.034c0,0-0.001,0.002-0.001,0.003
	C9.748,10.041,9.753,10.051,9.759,10.062z M10.002,10.1c0.034,0.009,0.068,0.018,0.103,0.024c0.07,0.006,0.139,0.009,0.209,0.008
	c0.017-0.004,0.035-0.009,0.052-0.015c0.056-0.03,0.11-0.062,0.163-0.096c0.062-0.055,0.121-0.112,0.176-0.173
	c0.012-0.02,0.024-0.04,0.035-0.06c0.001-0.005,0.003-0.011,0.004-0.016c-0.005-0.018-0.01-0.036-0.015-0.054
	c-0.019-0.034-0.04-0.068-0.062-0.101c-0.019-0.021-0.038-0.042-0.059-0.062c-0.042-0.024-0.084-0.046-0.127-0.068
	c-0.068-0.023-0.137-0.044-0.207-0.061c-0.082-0.002-0.163,0.001-0.246,0.009c-0.012,0.002-0.024,0.004-0.036,0.006
	C9.935,9.549,9.877,9.656,9.824,9.766C9.802,9.827,9.782,9.889,9.764,9.952c0.006,0.005,0.011,0.01,0.017,0.015
	C9.853,10.016,9.926,10.061,10.002,10.1z"/>
</svg>