<?xml version="1.0" encoding="utf-8"?>
<!-- Generator: Adobe Illustrator 21.1.0, SVG Export Plug-In . SVG Version: 6.00 Build 0)  -->
<svg version="1.1" id="designs" xmlns="http://www.w3.org/2000/svg" xmlns:xlink="http://www.w3.org/1999/xlink" x="0px" y="0px"
	 width="32px" height="32px" viewBox="0 0 32 32" style="enable-background:new 0 0 32 32;" xml:space="preserve">
<style type="text/css">
	.sketchy_een{fill:#111918;}
</style>
<path class="sketchy_een" d="M8.876,19.466c0.045,0.019,0.091,0.038,0.136,0.057c0.015,0.006,0.03,0.013,0.046,0.019
	C8.997,19.519,8.936,19.492,8.876,19.466z M30.998,22.408c0.016,0.41-0.081,0.837-0.21,1.225c-0.054,0.169-0.125,0.333-0.192,0.496
	c-0.071,0.174-0.135,0.363-0.248,0.517c-0.226,0.301-0.478,0.623-0.767,0.87c-0.351,0.297-0.753,0.529-1.188,0.678
	c-0.212,0.075-0.43,0.139-0.652,0.172c-0.176,0.026-0.353,0.061-0.531,0.071c-0.242,0.014-0.48-0.018-0.718-0.065
	c-0.416-0.079-0.767-0.294-1.083-0.563c-0.081-0.067-0.153-0.139-0.228-0.214c-0.18-0.18-0.367-0.408-0.472-0.644
	c-0.188-0.424-0.317-0.851-0.432-1.299c-0.092-0.363-0.188-0.729-0.32-1.078c-0.113-0.236-0.245-0.462-0.392-0.677
	c-0.055-0.062-0.111-0.12-0.171-0.176c-0.05-0.033-0.102-0.062-0.155-0.09c-0.059-0.018-0.119-0.033-0.18-0.045
	c-0.021-0.001-0.043-0.001-0.064,0c-0.157,0.037-0.304,0.092-0.452,0.153c-0.155,0.067-0.311,0.137-0.455,0.225
	c-0.145,0.089-0.278,0.19-0.412,0.292c-0.022,0.017-0.057,0.016-0.082,0.029c-0.076,0.113-0.14,0.233-0.221,0.345
	c-0.313,0.434-0.678,0.821-1.061,1.192c-0.69,0.666-1.473,1.263-2.328,1.697c-0.464,0.236-0.958,0.414-1.457,0.557
	c-0.416,0.119-0.839,0.238-1.263,0.323c-0.496,0.099-0.999,0.172-1.505,0.21c-0.496,0.038-0.987,0.056-1.481,0.121
	c-0.122,0.016-0.253-0.03-0.372-0.094c-0.046,0.022-0.082,0.062-0.132,0.077c-0.151,0.04-0.303,0.04-0.452,0
	c-0.056-0.016-0.103-0.051-0.154-0.077c-0.204,0.01-0.409,0.016-0.613,0.017c-0.569,0.006-1.118-0.103-1.673-0.218
	c-0.506-0.105-1.001-0.216-1.491-0.383c-0.559-0.19-1.112-0.396-1.622-0.694c-0.401-0.236-0.773-0.512-1.144-0.791
	c-0.416-0.311-0.825-0.624-1.202-0.981c-0.367-0.343-0.722-0.734-0.995-1.158c-0.286-0.446-0.488-0.928-0.68-1.42
	c-0.163-0.417-0.325-0.823-0.434-1.259c-0.121-0.494-0.202-0.991-0.246-1.499c-0.04-0.448-0.093-0.906-0.059-1.356
	c0.037-0.466,0.117-0.927,0.185-1.389c0.05-0.426,0.092-0.853,0.168-1.274c0.067-0.361,0.178-0.7,0.305-1.045
	c0.145-0.391,0.276-0.797,0.46-1.172c0.159-0.327,0.325-0.648,0.502-0.964c0.468-0.839,1.071-1.59,1.775-2.244
	C5.101,8.158,5.799,7.51,6.596,6.988c0.379-0.25,0.799-0.452,1.206-0.656c0.44-0.218,0.902-0.397,1.37-0.549
	c0.416-0.135,0.845-0.224,1.275-0.301c0.502-0.093,1.011-0.188,1.523-0.216c0.087-0.005,0.174-0.008,0.262-0.008
	c0.353,0,0.71,0.037,1.06,0.066C13.646,5.357,14,5.392,14.354,5.424c0.01,0,0.021-0.004,0.031-0.004
	c0.033,0,0.063,0.012,0.095,0.016c0.038,0.003,0.076,0.007,0.113,0.01c0.529,0.044,1.045,0.119,1.557,0.26
	c0.519,0.145,1.005,0.371,1.473,0.636c0.825,0.466,1.606,1.017,2.294,1.668c0.333,0.315,0.652,0.642,0.954,0.985
	c0.355,0.401,0.708,0.813,0.995,1.267c0.26,0.412,0.488,0.831,0.68,1.275c0.206,0.474,0.387,0.958,0.571,1.44
	c0.357,0.938,0.593,1.903,0.654,2.907c0.032,0.529-0.042,1.077-0.117,1.6c-0.067,0.456-0.184,0.896-0.327,1.333
	c-0.125,0.38-0.289,0.748-0.455,1.112c0.066-0.006,0.132-0.02,0.199-0.02c0.154,0,0.309,0.016,0.465,0.048
	c0.248,0.048,0.529,0.139,0.738,0.286c0.157,0.109,0.345,0.23,0.472,0.379c0.208,0.244,0.399,0.504,0.567,0.777
	c0.454,0.74,0.604,1.599,0.912,2.398c0.051,0.11,0.106,0.216,0.172,0.319c0.087,0.098,0.179,0.188,0.278,0.273
	c0.034,0.023,0.068,0.044,0.104,0.065c0.062,0.019,0.124,0.034,0.187,0.048c0.076,0.003,0.15,0.002,0.226-0.003
	c0.225-0.04,0.445-0.092,0.66-0.169c0.132-0.065,0.26-0.138,0.382-0.22c0.163-0.148,0.322-0.307,0.466-0.475
	c0.08-0.127,0.144-0.265,0.205-0.403c0.079-0.201,0.149-0.408,0.195-0.62c0.006-0.097,0.006-0.193-0.002-0.291
	c-0.038-0.514,0.46-0.946,0.948-0.946c0.25,0,0.492,0.101,0.67,0.276c0.186,0.188,0.256,0.412,0.276,0.67
	C30.994,22.351,30.996,22.379,30.998,22.408z M13.084,20.861c-0.539-0.121-1.078-0.245-1.606-0.415
	c-0.839-0.269-1.654-0.582-2.467-0.923c-0.587-0.249-1.161-0.527-1.718-0.84c-0.543-0.307-1.089-0.611-1.612-0.952
	c-0.888-0.581-1.781-1.148-2.694-1.686c-0.024,0.164-0.045,0.329-0.071,0.493c-0.039,0.39-0.037,0.78-0.018,1.169
	c0.737,0.516,1.454,1.06,2.2,1.567c0.434,0.297,0.867,0.603,1.332,0.851c0.422,0.227,0.853,0.428,1.292,0.619
	c0.874,0.353,1.766,0.701,2.68,0.943c0.464,0.123,0.934,0.23,1.404,0.333c0.254,0.056,0.51,0.093,0.766,0.135
	c0.045-0.096,0.092-0.191,0.135-0.288C12.842,21.535,12.964,21.198,13.084,20.861z M3.895,12.736
	c-0.058,0.12-0.125,0.236-0.18,0.358c-0.138,0.345-0.275,0.69-0.384,1.042c-0.022,0.07-0.034,0.142-0.052,0.212
	c1.093,0.635,2.125,1.361,3.168,2.073c0.979,0.667,2.031,1.218,3.112,1.697c0.012,0.005,0.024,0.01,0.036,0.015
	c-0.007-0.003-0.015-0.006-0.022-0.009c0.103,0.043,0.206,0.087,0.309,0.131c0.719,0.301,1.465,0.54,2.214,0.751
	c0.483,0.136,0.974,0.23,1.467,0.316c0.031-0.113,0.068-0.225,0.099-0.338c0.133-0.478,0.268-0.958,0.377-1.443
	c0.008-0.036,0.013-0.073,0.021-0.109c-0.266-0.068-0.533-0.135-0.798-0.208c-0.821-0.228-1.646-0.458-2.441-0.761
	c-0.849-0.325-1.691-0.692-2.49-1.124c-0.75-0.403-1.489-0.831-2.207-1.289c-0.389-0.248-0.779-0.496-1.17-0.74
	c-0.331-0.207-0.685-0.415-1.044-0.569C3.905,12.74,3.9,12.739,3.895,12.736z M12.702,14.007c-0.053,0.451-0.07,0.903-0.086,1.356
	c0.572,0.153,1.153,0.27,1.737,0.372c0.116-1.044,0.211-2.1,0.195-3.149c-0.01-0.595-0.016-1.192-0.065-1.785
	c-0.046-0.551-0.104-1.099-0.17-1.646c-0.073-0.441-0.159-0.872-0.266-1.307c-0.001-0.005-0.003-0.009-0.004-0.014
	c-0.269,0.921-0.543,1.839-0.761,2.772c-0.131,0.557-0.206,1.128-0.303,1.691C12.883,12.864,12.789,13.434,12.702,14.007z
	 M11.6,7.271c-0.432,0.067-0.861,0.153-1.286,0.24c-0.022,0.005-0.044,0.012-0.066,0.017c-0.299,0.874-0.633,1.734-0.918,2.611
	c-0.318,0.977-0.494,1.974-0.636,2.988c-0.025,0.206-0.046,0.413-0.061,0.619c0.563,0.307,1.136,0.597,1.722,0.859
	c0.234,0.094,0.471,0.177,0.707,0.262c0.041-0.514,0.096-1.026,0.182-1.538c0.125-0.736,0.282-1.467,0.41-2.203
	c0.131-0.763,0.333-1.509,0.529-2.258c0.138-0.537,0.271-1.075,0.406-1.612C12.258,7.239,11.928,7.236,11.6,7.271z M4.818,11.159
	c-0.041,0.057-0.073,0.119-0.113,0.176c0.345,0.171,0.681,0.357,1.003,0.575c0.491,0.332,0.981,0.665,1.481,0.984
	c0.143-0.957,0.286-1.916,0.577-2.84c0.178-0.567,0.371-1.126,0.567-1.687C8.349,8.32,8.362,8.272,8.378,8.225
	C8.295,8.27,8.207,8.309,8.125,8.356C7.801,8.535,7.493,8.724,7.194,8.94C6.779,9.27,6.375,9.615,5.98,9.972
	c-0.236,0.214-0.482,0.426-0.702,0.66C5.118,10.802,4.965,10.978,4.818,11.159z M11.152,25.051c0.286-0.428,0.532-0.884,0.74-1.353
	c-0.006,0.016-0.013,0.032-0.019,0.048c0.017-0.041,0.036-0.082,0.053-0.124c-0.146-0.032-0.291-0.066-0.437-0.102
	c-0.365-0.091-0.732-0.182-1.1-0.278c-0.777-0.208-1.529-0.482-2.28-0.769c-0.815-0.311-1.618-0.641-2.385-1.061
	c-0.69-0.375-1.338-0.837-1.981-1.285c-0.166-0.116-0.336-0.225-0.503-0.34c0.105,0.355,0.229,0.705,0.367,1.051
	c0.161,0.347,0.344,0.664,0.567,0.973c0.248,0.299,0.512,0.575,0.801,0.838c0.274,0.251,0.572,0.479,0.864,0.71
	c0.449,0.338,0.919,0.653,1.435,0.879c0.04,0.017,0.079,0.033,0.119,0.05c0.469,0.184,0.938,0.357,1.427,0.482
	c0.424,0.108,0.852,0.223,1.285,0.299C10.456,25.088,10.804,25.075,11.152,25.051z M13.956,24.84
	c0.408-0.068,0.808-0.162,1.206-0.271c0.04-0.071,0.077-0.144,0.121-0.212c0.101-0.157,0.204-0.313,0.299-0.472
	c0.178-0.307,0.329-0.625,0.475-0.946c0.201-0.507,0.367-1.023,0.531-1.543c0.184-0.575,0.361-1.154,0.5-1.741
	c0.272-1.139,0.513-2.294,0.693-3.451c0.217-1.789,0.253-3.623,0.028-5.414c-0.009-0.062-0.017-0.124-0.025-0.186
	c-0.062-0.434-0.166-0.86-0.265-1.286c-0.059-0.259-0.118-0.518-0.177-0.777c-0.432-0.292-0.88-0.563-1.353-0.779
	c-0.136-0.046-0.278-0.072-0.416-0.111c0.022,0.111,0.053,0.22,0.072,0.331c0.121,0.704,0.196,1.412,0.26,2.122
	c0.057,0.63,0.081,1.261,0.101,1.892c0.018,0.609,0.02,1.219-0.012,1.828c-0.048,0.884-0.119,1.769-0.246,2.647
	c-0.121,0.831-0.291,1.655-0.504,2.468c-0.212,0.813-0.426,1.624-0.678,2.425c-0.249,0.794-0.571,1.554-0.908,2.312
	c-0.171,0.417-0.342,0.834-0.531,1.245c0.048-0.004,0.095-0.012,0.143-0.016C13.501,24.887,13.728,24.866,13.956,24.84z
	 M21.055,19.125c0.123-0.296,0.242-0.594,0.337-0.897c0.107-0.345,0.19-0.691,0.254-1.044c0.06-0.562,0.075-1.121,0.022-1.684
	c-0.169-1.003-0.519-1.95-0.9-2.891c-0.268-0.601-0.578-1.171-0.96-1.704c-0.182-0.224-0.383-0.431-0.576-0.646
	c0.085,0.556,0.153,1.117,0.194,1.675c0.05,0.658,0.077,1.323,0.058,1.981c-0.02,0.692-0.044,1.392-0.123,2.08
	c-0.101,0.874-0.264,1.735-0.43,2.597c-0.163,0.843-0.351,1.677-0.587,2.502c-0.226,0.791-0.466,1.584-0.761,2.352
	c-0.026,0.068-0.056,0.136-0.083,0.205c0.197-0.121,0.391-0.246,0.582-0.38c0.562-0.453,1.067-0.966,1.535-1.517
	C20.211,20.937,20.657,20.052,21.055,19.125z"/>
</svg>