<?xml version="1.0" encoding="utf-8"?>
<!-- Generator: Adobe Illustrator 21.1.0, SVG Export Plug-In . SVG Version: 6.00 Build 0)  -->
<svg version="1.1" id="designs" xmlns="http://www.w3.org/2000/svg" xmlns:xlink="http://www.w3.org/1999/xlink" x="0px" y="0px"
	 width="32px" height="32px" viewBox="0 0 32 32" style="enable-background:new 0 0 32 32;" xml:space="preserve">
<style type="text/css">
	.sketchy_een{fill:#111918;}
</style>
<path class="sketchy_een" d="M23.322,17.783c0.021-0.026,0.041-0.053,0.061-0.08c0.022-0.029,0.045-0.058,0.067-0.087
	C23.407,17.674,23.364,17.729,23.322,17.783z M25.603,10.448c0.032,0.871-0.093,1.742-0.264,2.594
	c-0.16,0.804-0.386,1.599-0.694,2.356c-0.334,0.818-0.731,1.601-1.263,2.305c-0.262,0.339-0.528,0.667-0.82,0.981
	c-0.231,0.248-0.479,0.483-0.733,0.708c-0.532,0.478-1.079,0.931-1.647,1.365c-0.293,0.229-0.579,0.468-0.89,0.671
	c-0.331,0.217-0.7,0.369-1.068,0.516c-0.233,0.091-0.472,0.149-0.716,0.194c0.036,0.098,0.084,0.191,0.116,0.29
	c0.069,0.207,0.138,0.41,0.183,0.625c0.091,0.463-0.043,0.917-0.451,1.179c-0.313,0.201-0.712,0.24-1.072,0.278
	c-0.1,0.011-0.202,0.008-0.303,0.016c-0.032,0.204-0.063,0.408-0.112,0.609c-0.043,0.18-0.101,0.356-0.14,0.537
	c0,0.023,0,0.047,0.001,0.07c0.007,0.026,0.014,0.051,0.021,0.076c0.049,0.086,0.104,0.167,0.163,0.247
	c0.217,0.266,0.447,0.524,0.629,0.816c0.11,0.177,0.191,0.353,0.27,0.548c0.087,0.211,0.164,0.479,0.152,0.706
	c-0.014,0.262-0.061,0.558-0.211,0.783c-0.106,0.156-0.221,0.304-0.345,0.445c-0.112,0.128-0.229,0.25-0.347,0.374
	c-0.195,0.209-0.387,0.419-0.569,0.64c-0.05,0.069-0.099,0.139-0.147,0.21C15.183,30.838,14.937,31,14.631,31
	c-0.219,0-0.43-0.087-0.587-0.244c-0.154-0.154-0.244-0.367-0.244-0.587c0-0.242,0.102-0.404,0.244-0.587
	c0.201-0.256,0.41-0.503,0.631-0.741c0.219-0.234,0.445-0.463,0.651-0.71c0.002-0.003,0.003-0.005,0.005-0.008
	c-0.016-0.064-0.035-0.127-0.057-0.189c-0.071-0.142-0.154-0.273-0.244-0.403c-0.125-0.154-0.255-0.306-0.378-0.464
	c-0.175-0.223-0.321-0.426-0.424-0.694c-0.124-0.317-0.142-0.651-0.087-0.982c0.043-0.248,0.14-0.477,0.185-0.723
	c0.013-0.073,0.022-0.145,0.034-0.218c-0.024-0.005-0.048-0.006-0.071-0.011c-0.365-0.073-0.7-0.223-0.889-0.564
	c-0.122-0.219-0.162-0.481-0.146-0.731c0.028-0.396,0.11-0.749,0.282-1.108c0.042-0.088,0.096-0.17,0.142-0.256
	c-0.086-0.024-0.175-0.042-0.259-0.072c-0.416-0.152-0.83-0.333-1.21-0.558c-0.777-0.461-1.484-1.049-2.109-1.699
	c-0.298-0.311-0.593-0.623-0.869-0.952c-0.307-0.363-0.615-0.745-0.861-1.153c-0.475-0.787-0.846-1.614-1.163-2.476
	c-0.146-0.396-0.246-0.808-0.343-1.218c-0.095-0.4-0.185-0.806-0.258-1.212c-0.15-0.857-0.26-1.746-0.193-2.618
	c0.067-0.899,0.223-1.798,0.57-2.637c0.193-0.465,0.398-0.919,0.643-1.36c0.203-0.365,0.432-0.713,0.678-1.049
	C8.823,4.07,9.442,3.423,10.1,2.844c0.719-0.631,1.589-1.015,2.478-1.342c0.81-0.298,1.677-0.436,2.537-0.483
	C15.316,1.008,15.517,1,15.717,1c0.228,0,0.457,0.011,0.685,0.04c0.459,0.059,0.915,0.118,1.36,0.242
	c0.863,0.24,1.697,0.574,2.503,0.96c0.345,0.164,0.688,0.341,0.997,0.566c0.365,0.268,0.723,0.548,1.049,0.863
	c0.623,0.601,1.263,1.224,1.746,1.949c0.473,0.71,0.867,1.465,1.122,2.283c0.126,0.402,0.229,0.812,0.305,1.226
	C25.563,9.565,25.587,10.007,25.603,10.448z M14.616,22.797c0.001,0,0.001,0,0.002,0c-0.004-0.003-0.009-0.006-0.013-0.01
	C14.609,22.791,14.613,22.794,14.616,22.797z M16.093,22.902c-0.047-0.14-0.1-0.277-0.154-0.413
	c-0.041-0.091-0.083-0.18-0.126-0.269c-0.01-0.021-0.012-0.043-0.021-0.064c-0.062-0.017-0.121-0.039-0.178-0.071
	c-0.055-0.003-0.11-0.008-0.165-0.011c-0.006,0.011-0.005,0.024-0.012,0.035c-0.147,0.236-0.312,0.469-0.443,0.718
	c-0.006,0.019-0.012,0.038-0.017,0.057c0.024,0.004,0.048,0.009,0.071,0.013C15.398,22.926,15.746,22.933,16.093,22.902z
	 M23.954,9.5c-0.103-0.623-0.265-1.222-0.494-1.811c-0.247-0.523-0.539-1.008-0.875-1.478c-0.282-0.337-0.584-0.648-0.898-0.954
	c-0.313-0.304-0.623-0.607-0.961-0.881c-0.037-0.029-0.075-0.058-0.112-0.087c0.001,0,0.001,0.001,0.002,0.001
	c-0.481-0.372-1.036-0.631-1.589-0.877c-0.78-0.314-1.576-0.576-2.404-0.721c-0.32-0.038-0.644-0.076-0.967-0.067
	c-0.362,0.01-0.721,0.042-1.079,0.087c-0.322,0.048-0.637,0.108-0.955,0.194c-0.297,0.081-0.586,0.193-0.871,0.309
	c-0.487,0.218-0.959,0.462-1.397,0.768C10.754,4.477,10.219,5.04,9.732,5.64C9.524,5.927,9.325,6.219,9.14,6.524
	C8.947,6.841,8.787,7.174,8.633,7.51C8.523,7.775,8.414,8.042,8.34,8.317C8.254,8.632,8.186,8.948,8.128,9.269
	c-0.094,0.831-0.086,1.658,0.01,2.492c0.096,0.588,0.214,1.17,0.348,1.75c0.128,0.548,0.316,1.077,0.523,1.599
	c0.156,0.359,0.318,0.721,0.52,1.056c0.213,0.355,0.442,0.691,0.69,1.021c0.627,0.734,1.301,1.414,2.05,2.022
	c0.25,0.181,0.502,0.357,0.77,0.514c0.204,0.118,0.417,0.219,0.633,0.313c0.435,0.15,0.888,0.255,1.343,0.331
	c0.209,0.018,0.418,0.023,0.628,0.033c0.204,0.011,0.394,0.085,0.541,0.206c0.269,0.01,0.537-0.009,0.805-0.04
	c0.158-0.025,0.315-0.055,0.471-0.102c0.152-0.044,0.3-0.101,0.447-0.161c0.296-0.137,0.569-0.297,0.835-0.484
	c0.299-0.234,0.602-0.462,0.904-0.694c0.443-0.352,0.877-0.72,1.282-1.117c0.415-0.406,0.794-0.834,1.156-1.286
	c0.403-0.55,0.717-1.145,1.002-1.764c0.434-1.088,0.712-2.226,0.878-3.383C24.037,10.885,24.032,10.19,23.954,9.5z M22.079,12.082
	c-0.065-0.018-0.132-0.026-0.199-0.026c-0.135,0-0.27,0.035-0.388,0.103c-0.15,0.089-0.323,0.272-0.349,0.455
	c-0.072,0.516-0.139,1.03-0.319,1.519c-0.076,0.17-0.155,0.337-0.243,0.501c-0.101,0.189-0.226,0.366-0.351,0.54
	c-0.244,0.298-0.503,0.574-0.783,0.84c-0.299,0.282-0.595,0.568-0.912,0.831c-0.198,0.147-0.401,0.281-0.619,0.397
	c-0.374,0.203-0.489,0.712-0.28,1.07c0.104,0.175,0.272,0.304,0.467,0.359c0.14,0.036,0.278,0.036,0.416,0
	c0.131-0.036,0.245-0.102,0.342-0.198c0.217-0.164,0.434-0.326,0.642-0.498c0.201-0.164,0.386-0.347,0.574-0.526
	c0.213-0.201,0.43-0.396,0.643-0.597c0.193-0.181,0.361-0.384,0.532-0.585c0.199-0.238,0.384-0.491,0.544-0.757
	c0.128-0.207,0.231-0.436,0.333-0.658c0.134-0.292,0.242-0.583,0.317-0.895c0.073-0.309,0.118-0.625,0.164-0.94
	c0.03-0.211,0.036-0.392-0.077-0.585C22.434,12.262,22.269,12.135,22.079,12.082z"/>
</svg>