<?xml version="1.0" encoding="utf-8"?>
<!-- Generator: Adobe Illustrator 21.1.0, SVG Export Plug-In . SVG Version: 6.00 Build 0)  -->
<svg version="1.1" id="designs" xmlns="http://www.w3.org/2000/svg" xmlns:xlink="http://www.w3.org/1999/xlink" x="0px" y="0px"
	 width="32px" height="32px" viewBox="0 0 32 32" style="enable-background:new 0 0 32 32;" xml:space="preserve">
<style type="text/css">
	.sketchy_een{fill:#111918;}
</style>
<path class="sketchy_een" d="M22.217,23.765c-0.126-0.516-0.373-1.002-0.679-1.435c-0.177-0.25-0.375-0.474-0.59-0.691
	c-0.145-0.148-0.31-0.286-0.487-0.396c0.16-0.155,0.263-0.369,0.259-0.604c-0.062-3.18-0.05-6.36-0.109-9.54
	c-0.016-0.813-0.008-1.625-0.033-2.438c-0.023-0.831-0.056-1.668-0.136-2.497c-0.082-0.862-0.206-1.739-0.514-2.555
	c-0.167-0.441-0.398-0.839-0.672-1.221c-0.148-0.204-0.297-0.406-0.462-0.594C18.532,1.501,18.165,1.282,17.8,1.15
	C17.476,1.034,17.133,1,16.79,1c-0.105,0-0.21,0.003-0.314,0.008c-0.445,0.021-0.893,0.07-1.32,0.196
	c-0.499,0.149-0.971,0.4-1.369,0.734c-0.328,0.274-0.59,0.588-0.831,0.94c-0.454,0.668-0.714,1.471-0.897,2.252
	c-0.194,0.837-0.313,1.701-0.375,2.557c-0.027,0.379-0.014,0.761-0.006,1.141c0.008,0.41,0.019,0.819,0.045,1.229
	c0.05,0.854,0.05,1.708,0.066,2.562c0.014,0.81,0.047,1.617,0.07,2.425c0.023,0.837,0.041,1.673,0.058,2.51
	c0.023,1.016,0.01,2.029,0.006,3.045c-0.319,0.238-0.631,0.484-0.903,0.775c-0.239,0.256-0.452,0.54-0.621,0.846
	c-0.132,0.241-0.245,0.511-0.34,0.769c-0.149,0.392-0.26,0.796-0.32,1.211c-0.07,0.476-0.12,0.965-0.058,1.444
	c0.064,0.495,0.144,0.973,0.293,1.45c0.148,0.47,0.369,0.912,0.648,1.316c0.27,0.386,0.586,0.72,0.942,1.029
	c0.34,0.293,0.695,0.573,1.089,0.79c0.819,0.456,1.741,0.679,2.671,0.753c0.388,0.031,0.78,0.019,1.167-0.025
	c0.252-0.027,0.501-0.074,0.747-0.14c0.248-0.068,0.491-0.182,0.722-0.295c0.718-0.349,1.442-0.726,2.091-1.194
	c0.744-0.538,1.347-1.283,1.73-2.118c0.126-0.274,0.254-0.549,0.351-0.837c0.103-0.307,0.153-0.621,0.188-0.943
	C22.377,24.889,22.347,24.295,22.217,23.765z M20.461,26.217c-0.164,0.373-0.347,0.731-0.58,1.066
	c-0.203,0.245-0.421,0.466-0.665,0.668c-0.647,0.448-1.37,0.788-2.091,1.105c-0.196,0.07-0.393,0.121-0.599,0.161
	c-0.47,0.044-0.938,0.023-1.408-0.027c-0.416-0.066-0.82-0.176-1.212-0.328c-0.323-0.148-0.625-0.321-0.915-0.526
	c-0.32-0.256-0.621-0.528-0.885-0.842c-0.159-0.226-0.294-0.458-0.412-0.705c-0.13-0.356-0.221-0.713-0.291-1.085
	c-0.044-0.418-0.042-0.831,0-1.249c0.067-0.396,0.17-0.773,0.318-1.147c0.088-0.187,0.18-0.368,0.295-0.539
	c0.199-0.234,0.425-0.434,0.663-0.628c0.129-0.096,0.258-0.191,0.387-0.284c0.188-0.134,0.33-0.281,0.392-0.511
	c0.027-0.094,0.027-0.191,0.02-0.288c0.063-0.116,0.107-0.242,0.107-0.381c-0.01-1.706-0.068-3.411-0.093-5.115
	c-0.012-0.813-0.023-1.627-0.052-2.44c-0.029-0.848-0.023-1.697-0.049-2.545c-0.034-1.182-0.097-2.362,0.035-3.54
	c0.065-0.464,0.14-0.928,0.25-1.385c0.103-0.432,0.245-0.851,0.411-1.264c0.131-0.285,0.288-0.554,0.469-0.81
	c0.13-0.15,0.269-0.289,0.42-0.417c0.162-0.106,0.328-0.202,0.502-0.286c0.179-0.061,0.357-0.108,0.542-0.142
	c0.378-0.042,0.758-0.076,1.136-0.047c0.073,0.016,0.143,0.036,0.214,0.058c0.054,0.029,0.107,0.06,0.158,0.093
	c0.104,0.093,0.197,0.193,0.286,0.299c0.224,0.306,0.424,0.621,0.587,0.963c0.206,0.554,0.332,1.134,0.419,1.717
	c0.186,1.622,0.215,3.258,0.234,4.889c0.01,0.825,0.025,1.65,0.023,2.475c0,0.811-0.014,1.623-0.021,2.434
	c-0.014,1.673-0.052,3.347-0.039,5.02c0.002,0.268,0.138,0.499,0.336,0.656c-0.062,0.056-0.124,0.111-0.169,0.189
	c-0.241,0.41-0.089,0.93,0.309,1.174c0.052,0.033,0.104,0.068,0.154,0.105c0.155,0.133,0.302,0.276,0.433,0.432
	c0.153,0.212,0.297,0.435,0.413,0.669c0.082,0.22,0.143,0.442,0.184,0.672c0.03,0.312,0.034,0.621,0.004,0.933
	C20.63,25.726,20.556,25.972,20.461,26.217z M18.782,23.544c-0.149-0.283-0.328-0.544-0.547-0.778
	c-0.227-0.241-0.536-0.425-0.835-0.565c-0.117-0.054-0.24-0.091-0.359-0.138c-0.028-0.54-0.038-1.082-0.043-1.62
	c-0.008-0.821-0.017-1.642-0.041-2.464c-0.049-1.673-0.016-3.345,0.064-5.018c0.008-0.153,0.016-0.309,0.021-0.464
	c0.021-0.425-0.369-0.78-0.779-0.78c-0.439,0-0.763,0.355-0.78,0.78c-0.037,0.912-0.058,1.823-0.066,2.735
	c-0.002,0.412-0.004,0.823-0.014,1.235c-0.008,0.386-0.039,0.775-0.049,1.161c-0.041,1.522-0.032,3.046,0.048,4.565
	c-0.477,0.203-0.94,0.411-1.354,0.734c-0.388,0.303-0.685,0.732-0.874,1.182c-0.169,0.408-0.21,0.864-0.2,1.301
	c0.021,0.924,0.524,1.811,1.328,2.273c0.425,0.245,0.891,0.347,1.371,0.406c0.231,0.027,0.478-0.027,0.705-0.066
	c0.19-0.033,0.375-0.099,0.557-0.167c0.248-0.091,0.497-0.2,0.728-0.33c0.412-0.233,0.736-0.588,0.992-0.98
	c0.134-0.206,0.239-0.46,0.322-0.691c0.124-0.347,0.184-0.705,0.163-1.075c-0.012-0.206-0.039-0.414-0.089-0.615
	C18.997,23.948,18.885,23.74,18.782,23.544z M17.267,25.316c-0.068,0.138-0.141,0.271-0.227,0.399
	c-0.058,0.065-0.119,0.126-0.183,0.184c-0.117,0.075-0.239,0.138-0.363,0.196c-0.189,0.064-0.377,0.122-0.572,0.161
	c-0.054,0.003-0.106,0.003-0.16,0.001c-0.132-0.028-0.259-0.065-0.386-0.111c-0.076-0.038-0.15-0.079-0.222-0.124
	c-0.041-0.039-0.079-0.08-0.117-0.122c-0.051-0.076-0.098-0.154-0.141-0.235c-0.03-0.089-0.053-0.18-0.072-0.272
	c-0.01-0.163-0.007-0.325,0.007-0.487c0.017-0.077,0.036-0.153,0.059-0.229c0.041-0.079,0.085-0.155,0.135-0.229
	c0.056-0.065,0.115-0.127,0.178-0.185c0.201-0.131,0.417-0.234,0.634-0.337c0.112-0.045,0.223-0.09,0.336-0.133
	c0.082-0.032,0.156-0.067,0.226-0.109c0.012-0.002,0.025,0,0.037-0.003c0.016,0.006,0.031,0.011,0.047,0.017
	c0.148,0.072,0.291,0.149,0.429,0.24c0.05,0.045,0.097,0.091,0.141,0.14c0.096,0.148,0.178,0.304,0.255,0.462
	c0.018,0.052,0.032,0.104,0.044,0.158c0.007,0.104,0.009,0.207,0.005,0.311C17.334,25.114,17.302,25.215,17.267,25.316z"/>
</svg>