<?xml version="1.0" encoding="utf-8"?>
<!-- Generator: Adobe Illustrator 21.1.0, SVG Export Plug-In . SVG Version: 6.00 Build 0)  -->
<svg version="1.1" id="designs" xmlns="http://www.w3.org/2000/svg" xmlns:xlink="http://www.w3.org/1999/xlink" x="0px" y="0px"
	 width="32px" height="32px" viewBox="0 0 32 32" style="enable-background:new 0 0 32 32;" xml:space="preserve">
<style type="text/css">
	.sketchy_een{fill:#111918;}
</style>
<path class="sketchy_een" d="M6.698,29.936c0.013,0.002,0.026,0.004,0.039,0.005c0.017,0.002,0.033,0.005,0.05,0.007
	C6.757,29.944,6.727,29.94,6.698,29.936z M7.621,24.028c-0.415,0-0.759,0.345-0.759,0.759s0.345,0.76,0.759,0.76
	s0.759-0.345,0.759-0.76S8.036,24.028,7.621,24.028z M26.149,11.092c0.095,0.905,0.126,1.817-0.035,2.714
	c-0.081,0.448-0.2,0.887-0.32,1.325c-0.114,0.415-0.231,0.829-0.382,1.232c-0.167,0.448-0.366,0.907-0.634,1.306
	c-0.244,0.364-0.506,0.736-0.823,1.042c-0.391,0.376-0.837,0.667-1.312,0.92c-0.234,0.126-0.482,0.233-0.73,0.329
	c-0.196,0.076-0.395,0.153-0.603,0.196c-0.482,0.101-0.971,0.126-1.463,0.157c-0.44,0.029-0.88,0.066-1.321,0.052
	c-0.469-0.014-0.945-0.089-1.409-0.157c-0.382-0.054-0.761-0.145-1.133-0.248c-0.409-0.11-0.812-0.264-1.19-0.457
	c-0.343-0.175-0.645-0.409-0.947-0.647c-0.147-0.031-0.284-0.103-0.39-0.219c-0.484-0.531-0.976-1.095-1.321-1.728
	c-0.322-0.593-0.583-1.244-0.734-1.901c-0.103-0.45-0.145-0.915-0.174-1.374c-0.031-0.448-0.035-0.885,0.014-1.331
	c0.052-0.463,0.11-0.942,0.238-1.389c0.128-0.45,0.318-0.883,0.513-1.308c0.184-0.403,0.389-0.783,0.637-1.151
	c0.263-0.391,0.562-0.767,0.878-1.118c0.62-0.684,1.327-1.279,2.158-1.691c0.777-0.384,1.608-0.76,2.474-0.885
	c0.216-0.032,0.434-0.06,0.653-0.06c0.046,0,0.092,0.001,0.138,0.004c0.265,0.016,0.527,0.041,0.789,0.079
	c0.403,0.06,0.81,0.118,1.203,0.227c0.481,0.132,0.942,0.335,1.387,0.552c0.368,0.18,0.717,0.399,1.042,0.647
	c0.397,0.304,0.765,0.614,1.093,0.994c0.326,0.374,0.622,0.777,0.885,1.196c0.246,0.393,0.43,0.833,0.577,1.273
	C26.06,10.126,26.101,10.624,26.149,11.092z M13.909,18.902c-0.019-0.015-0.038-0.029-0.056-0.043h-0.001
	C13.871,18.873,13.89,18.888,13.909,18.902z M21.538,18.309c-0.016,0.006-0.031,0.013-0.046,0.019
	c0.001-0.001,0.003-0.001,0.004-0.002c-0.068,0.029-0.136,0.056-0.202,0.085C21.375,18.378,21.457,18.344,21.538,18.309z
	 M21.686,18.247c-0.042,0.017-0.084,0.035-0.126,0.053c-0.063,0.027-0.127,0.053-0.19,0.081
	C21.474,18.337,21.581,18.292,21.686,18.247z M24.508,11.055c-0.065-0.417-0.156-0.815-0.302-1.209
	c-0.088-0.187-0.184-0.369-0.287-0.548c-0.101-0.177-0.224-0.342-0.346-0.505c-0.308-0.384-0.634-0.74-1.015-1.053
	c-0.438-0.321-0.891-0.595-1.386-0.82c-0.29-0.117-0.582-0.22-0.889-0.295c-0.291-0.071-0.586-0.121-0.882-0.166
	c-0.335-0.037-0.662-0.052-0.998-0.022c-0.436,0.083-0.866,0.214-1.282,0.37c-0.54,0.242-1.065,0.506-1.545,0.851
	c-0.504,0.419-0.95,0.888-1.361,1.401C14.019,9.32,13.827,9.59,13.67,9.878c-0.162,0.3-0.307,0.608-0.446,0.92
	c-0.102,0.258-0.193,0.515-0.259,0.785c-0.055,0.225-0.092,0.452-0.126,0.68c-0.035,0.323-0.059,0.643-0.039,0.969
	c0.019,0.312,0.05,0.621,0.085,0.93c0.044,0.266,0.095,0.533,0.179,0.792c0.079,0.247,0.171,0.489,0.269,0.73
	c0.164,0.357,0.358,0.69,0.586,1.01c0.097,0.12,0.197,0.237,0.299,0.352c0.156,0.003,0.315,0.042,0.435,0.125
	c0.254,0.18,0.494,0.382,0.759,0.546c0.208,0.129,0.424,0.236,0.646,0.335c0.681,0.261,1.399,0.406,2.119,0.515
	c0.453,0.051,0.901,0.058,1.356,0.041c0.418-0.015,0.835-0.023,1.251-0.067c0.243-0.05,0.474-0.124,0.706-0.214
	c0.372-0.156,0.736-0.375,1.068-0.613c0.232-0.197,0.435-0.416,0.627-0.651c0.253-0.347,0.468-0.713,0.647-1.104
	c0.16-0.412,0.289-0.834,0.404-1.26c0.124-0.449,0.238-0.897,0.322-1.354C24.638,12.584,24.596,11.818,24.508,11.055z
	 M16.669,23.852c-0.046-0.006-0.092-0.013-0.138-0.02c-0.038-0.005-0.076-0.01-0.114-0.015
	C16.503,23.829,16.586,23.84,16.669,23.852z M29.366,13.591c-0.054,0.477-0.126,0.943-0.238,1.41
	c-0.097,0.401-0.24,0.796-0.374,1.188c-0.575,1.68-1.273,3.371-2.424,4.749c-0.271,0.324-0.562,0.63-0.872,0.918
	c-0.351,0.329-0.715,0.653-1.131,0.895c-0.399,0.234-0.849,0.395-1.288,0.537c-0.401,0.13-0.806,0.24-1.219,0.324
	c-0.453,0.091-0.914,0.161-1.376,0.215c-0.432,0.05-0.868,0.101-1.304,0.126c-0.867,0.05-1.747-0.008-2.608-0.121
	c-0.304-0.045-0.595-0.103-0.895-0.185c-0.254-0.072-0.504-0.149-0.758-0.217c-0.251-0.068-0.501-0.137-0.75-0.21
	c-0.007,0.01-0.013,0.019-0.019,0.029c-0.415,0.581-0.843,1.151-1.232,1.75c-0.448,0.686-0.872,1.387-1.31,2.079
	c-0.254,0.405-0.531,0.787-0.825,1.163c-0.254,0.323-0.539,0.597-0.86,0.85c-0.403,0.32-0.882,0.556-1.37,0.717
	c-0.341,0.112-0.686,0.176-1.046,0.192c-0.245,0.011-0.488-0.023-0.731-0.057c-0.369-0.055-0.728-0.124-1.085-0.251
	c-0.37-0.132-0.748-0.269-1.089-0.467c-0.165-0.095-0.32-0.201-0.471-0.316c-0.232-0.178-0.463-0.347-0.651-0.575
	c-0.289-0.351-0.494-0.728-0.659-1.153c-0.157-0.397-0.196-0.853-0.182-1.275c0.014-0.459,0.048-0.936,0.141-1.383
	c0.097-0.465,0.262-0.909,0.473-1.333c0.087-0.178,0.207-0.343,0.322-0.504c0.153-0.213,0.312-0.422,0.479-0.626
	c0.252-0.308,0.55-0.57,0.866-0.814c0.38-0.295,0.771-0.57,1.176-0.831c0.67-0.43,1.329-0.88,1.964-1.36
	c0.407-0.339,0.792-0.695,1.167-1.07c0.044-0.044,0.099-0.067,0.15-0.099c-0.151-0.352-0.296-0.706-0.423-1.068
	c-0.151-0.428-0.248-0.864-0.324-1.312c-0.155-0.932-0.294-1.866-0.287-2.815c0.006-0.934,0.097-1.873,0.355-2.774
	c0.258-0.897,0.703-1.719,1.195-2.505c0.492-0.786,1.118-1.49,1.761-2.154c0.614-0.635,1.253-1.242,2.021-1.693
	c0.736-0.434,1.54-0.777,2.346-1.062c0.401-0.141,0.81-0.219,1.228-0.279c0.44-0.062,0.878-0.147,1.319-0.184
	C18.825,2.015,19.121,2,19.417,2c0.573,0,1.145,0.055,1.703,0.203c0.781,0.207,1.531,0.539,2.244,0.911
	c0.709,0.37,1.378,0.829,1.978,1.356c0.587,0.515,1.133,1.095,1.643,1.688c0.579,0.674,1.1,1.426,1.451,2.249
	c0.335,0.787,0.593,1.612,0.746,2.457C29.342,11.755,29.468,12.687,29.366,13.591z M27.657,11.56
	c-0.124-0.836-0.321-1.667-0.635-2.455c-0.251-0.537-0.557-1.044-0.903-1.525c-0.311-0.389-0.64-0.766-0.985-1.127
	c-0.356-0.373-0.716-0.757-1.126-1.074c-0.354-0.272-0.716-0.542-1.104-0.761c-0.422-0.237-0.859-0.445-1.301-0.644
	c-0.475-0.189-0.959-0.327-1.465-0.412c-0.578-0.06-1.161-0.046-1.738,0.022c-0.236,0.036-0.472,0.077-0.708,0.116
	c-0.236,0.039-0.475,0.066-0.709,0.122c-0.437,0.102-0.851,0.268-1.265,0.439C15.105,4.539,14.5,4.85,13.956,5.25
	c-0.381,0.317-0.734,0.664-1.075,1.023c-0.37,0.386-0.734,0.778-1.07,1.194c-0.507,0.69-0.943,1.419-1.308,2.194
	c-0.171,0.452-0.291,0.915-0.382,1.39c-0.109,0.945-0.083,1.889,0.03,2.831c0.072,0.481,0.153,0.963,0.238,1.443
	c0.048,0.266,0.095,0.535,0.18,0.791c0.071,0.216,0.15,0.425,0.233,0.635c0.118,0.268,0.241,0.535,0.361,0.804
	c0.107,0.231,0.163,0.446,0.093,0.701c-0.064,0.229-0.215,0.426-0.419,0.544c-0.088,0.052-0.186,0.078-0.284,0.097
	c-0.04,0.1-0.1,0.194-0.181,0.273c-0.357,0.353-0.723,0.682-1.114,0.992c-0.401,0.316-0.818,0.608-1.23,0.907
	c-0.65,0.471-1.326,0.908-1.967,1.389c-0.348,0.283-0.655,0.594-0.937,0.941c-0.194,0.266-0.373,0.537-0.513,0.837
	c-0.108,0.287-0.183,0.577-0.234,0.878c-0.037,0.386-0.069,0.775-0.035,1.162c0.028,0.14,0.065,0.274,0.112,0.408
	c0.079,0.159,0.169,0.309,0.27,0.455c0.083,0.092,0.172,0.174,0.267,0.253c0.241,0.177,0.487,0.332,0.758,0.459
	c0.437,0.173,0.879,0.308,1.342,0.39c0.188,0.017,0.373,0.023,0.563,0.012c0.22-0.045,0.434-0.111,0.645-0.189
	c0.223-0.104,0.431-0.219,0.632-0.362c0.119-0.095,0.239-0.192,0.338-0.307c0.113-0.126,0.221-0.256,0.327-0.387
	c0.299-0.405,0.561-0.836,0.818-1.269c0.262-0.444,0.537-0.88,0.804-1.321c0.227-0.374,0.457-0.746,0.705-1.104
	c0.242-0.348,0.505-0.679,0.752-1.024c0-0.002-0.002-0.004-0.002-0.005c-0.068-0.244-0.033-0.513,0.095-0.732
	c0.126-0.213,0.331-0.372,0.57-0.438c0.265-0.073,0.494-0.015,0.734,0.097c0.001,0,0.002,0.001,0.003,0.001
	c0.482,0.177,0.989,0.267,1.478,0.421c0.465,0.148,0.928,0.284,1.409,0.362c0.679,0.08,1.376,0.122,2.059,0.095
	c0.38-0.016,0.756-0.058,1.135-0.085c0.299-0.02,0.598-0.042,0.896-0.077c0.707-0.112,1.394-0.285,2.064-0.539
	c0.212-0.099,0.414-0.209,0.607-0.341c0.481-0.392,0.918-0.843,1.311-1.319c0.33-0.443,0.634-0.909,0.889-1.399
	c0.256-0.489,0.478-0.994,0.697-1.501c0.234-0.564,0.457-1.13,0.654-1.708c0.181-0.525,0.308-1.055,0.393-1.602
	C27.739,12.864,27.726,12.217,27.657,11.56z M23.004,12.247c-0.064-0.018-0.131-0.026-0.198-0.026c-0.345,0-0.7,0.225-0.773,0.578
	c-0.045,0.211-0.095,0.416-0.169,0.62c-0.175,0.375-0.393,0.72-0.636,1.053c-0.177,0.215-0.367,0.405-0.581,0.581
	c-0.307,0.217-0.623,0.4-0.964,0.558c-0.164,0.06-0.328,0.111-0.498,0.148c-0.224,0.018-0.444,0.015-0.668-0.008
	c-0.496-0.084-0.97-0.24-1.447-0.399c-0.42-0.14-0.887,0.159-1,0.568c-0.122,0.444,0.147,0.862,0.568,1
	c0.694,0.229,1.395,0.422,2.129,0.457c0.773,0.039,1.517-0.242,2.18-0.62c0.331-0.188,0.639-0.417,0.932-0.661
	c0.296-0.248,0.531-0.548,0.763-0.856c0.192-0.254,0.362-0.529,0.504-0.814c0.192-0.391,0.326-0.781,0.407-1.209
	c0.041-0.215,0.035-0.415-0.079-0.608C23.372,12.432,23.2,12.301,23.004,12.247z"/>
</svg>