<?xml version="1.0" encoding="utf-8"?>
<!-- Generator: Adobe Illustrator 21.1.0, SVG Export Plug-In . SVG Version: 6.00 Build 0)  -->
<svg version="1.1" id="designs" xmlns="http://www.w3.org/2000/svg" xmlns:xlink="http://www.w3.org/1999/xlink" x="0px" y="0px"
	 width="32px" height="32px" viewBox="0 0 32 32" style="enable-background:new 0 0 32 32;" xml:space="preserve">
<style type="text/css">
	.sketchy_een{fill:#111918;}
</style>
<path class="sketchy_een" d="M29.976,18.918c-0.004-0.857-0.018-1.714-0.04-2.571c-0.02-0.843-0.026-1.682-0.018-2.525
	c0.014-1.622,0.026-3.246,0.012-4.868c-0.018-1.996,0.026-3.995-0.108-5.988c-0.032-0.489-0.383-0.899-0.897-0.899
	c-0.084,0-0.165,0.027-0.246,0.052c-0.146,0.002-0.297,0.035-0.405,0.115c-0.769,0.571-1.514,1.16-2.217,1.81
	c-0.593,0.549-1.192,1.089-1.77,1.652c-0.613,0.593-1.236,1.177-1.852,1.768c-0.607,0.581-1.234,1.141-1.846,1.716
	c-0.605,0.567-1.208,1.134-1.802,1.71c-0.627,0.607-1.24,1.229-1.862,1.84c-1.232,1.202-2.381,2.485-3.587,3.715
	c-0.587,0.599-1.188,1.185-1.766,1.792c-0.615,0.643-1.262,1.252-1.884,1.884c-0.583,0.593-1.175,1.175-1.752,1.776
	c-0.545,0.567-1.101,1.119-1.644,1.688c-0.697,0.731-1.388,1.468-2.057,2.225c-0.318,0.358-0.647,0.707-0.977,1.053
	c-0.306,0.323-0.639,0.627-0.913,0.979c-0.146,0.186-0.248,0.353-0.248,0.599c0,0.047,0.019,0.09,0.027,0.135
	C2.05,28.707,2,28.845,2,28.992c0,0.226,0.09,0.445,0.25,0.605c0.172,0.172,0.37,0.226,0.605,0.25
	c0.871,0.088,1.736,0.112,2.609,0.054c0.815-0.054,1.628-0.07,2.447-0.078c0.875-0.01,1.75-0.046,2.625-0.064
	c0.805-0.016,1.61-0.058,2.417-0.062c1.672-0.01,3.344-0.03,5.016-0.026c0.859,0.002,1.718,0.002,2.575,0.002
	c0.855,0,1.706,0.008,2.559-0.016c0.887-0.024,1.774-0.036,2.661-0.048c0.24,0,0.483,0,0.723,0c0.242,0.002,0.485,0.002,0.727,0
	c0.132,0,0.266,0.002,0.401,0.002c0.322,0.004,0.647,0.008,0.967-0.026c0.107-0.01,0.203-0.03,0.294-0.062
	c0.056,0.012,0.11,0.035,0.167,0.035c0.477,0,0.861-0.395,0.867-0.867c0.004-0.401,0.024-0.799,0.048-1.198
	c0.024-0.404,0.024-0.811,0.026-1.218c0.004-0.809,0.008-1.618,0.012-2.429C30.006,22.205,29.98,20.561,29.976,18.918z
	 M27.401,27.929c-0.398-0.002-0.797,0.008-1.196,0.008c-0.799-0.002-1.596,0.01-2.395,0.038c-1.678,0.056-3.36,0.042-5.038,0.04
	c-1.702-0.002-3.404,0.02-5.107,0.028c-1.63,0.008-3.26,0.102-4.89,0.128c-0.959,0.016-1.912,0.002-2.872,0.056
	c-0.491,0.026-0.981,0.052-1.472,0.036c-0.06-0.002-0.118-0.012-0.177-0.014c0.007-0.008,0.014-0.016,0.022-0.024
	c0.26-0.27,0.521-0.543,0.777-0.817c0.254-0.272,0.485-0.565,0.727-0.845c0.262-0.302,0.529-0.601,0.799-0.897
	c0.108-0.119,0.226-0.23,0.336-0.348c0.203,0.186,0.407,0.368,0.599,0.566c0.322,0.33,0.877,0.322,1.202,0
	c0.32-0.322,0.336-0.885,0-1.203c-0.207-0.195-0.406-0.397-0.608-0.598c0.054-0.054,0.105-0.111,0.16-0.165
	c0.569-0.565,1.101-1.166,1.654-1.744c0.358-0.373,0.729-0.734,1.096-1.098c0.211,0.21,0.419,0.424,0.644,0.618
	c0.172,0.15,0.358,0.246,0.595,0.246c0.222,0,0.439-0.09,0.595-0.246c0.32-0.32,0.33-0.873,0-1.192
	c-0.214-0.206-0.415-0.428-0.621-0.645c0.448-0.448,0.892-0.899,1.337-1.349c0.568-0.572,1.12-1.158,1.678-1.74
	c0.216,0.195,0.43,0.392,0.626,0.605c0.302,0.33,0.855,0.306,1.161,0s0.33-0.857,0-1.16c-0.221-0.203-0.429-0.422-0.639-0.636
	c0.227-0.238,0.457-0.473,0.685-0.71c0.603-0.625,1.23-1.226,1.85-1.835c0.236,0.283,0.48,0.563,0.755,0.805
	c0.34,0.3,0.843,0.336,1.18,0c0.306-0.306,0.338-0.875,0-1.177c-0.146-0.13-0.3-0.264-0.431-0.409
	c-0.109-0.119-0.205-0.253-0.303-0.384c0.21-0.203,0.417-0.411,0.63-0.611c0.619-0.581,1.248-1.153,1.878-1.722
	c0.025-0.022,0.048-0.047,0.073-0.069c0.145,0.143,0.291,0.284,0.441,0.422c0.33,0.304,0.837,0.326,1.165,0
	c0.154-0.154,0.24-0.364,0.24-0.581c0-0.196-0.08-0.457-0.24-0.583c-0.148-0.116-0.275-0.259-0.402-0.401
	c0.194-0.187,0.391-0.371,0.587-0.556c0.597-0.563,1.18-1.139,1.782-1.696C26.88,5.52,27.486,4.981,28.11,4.46
	c0.017,0.424,0.029,0.848,0.026,1.273C28.13,6.511,28.12,7.288,28.12,8.067c0,1.632-0.006,3.266,0.004,4.9
	c0.004,0.813,0.004,1.628,0.016,2.441c0.014,0.867,0.066,1.734,0.096,2.601c0.03,0.833,0.026,1.668,0.038,2.501
	c0.01,0.825,0.026,1.648,0.028,2.473c0,0.949,0.004,1.898,0.01,2.848c0.002,0.469,0.004,0.937-0.014,1.406
	c-0.009,0.221-0.02,0.443-0.04,0.664C27.972,27.916,27.686,27.932,27.401,27.929z M24.046,15.989
	c0.169-0.14,0.333-0.286,0.503-0.425c0.164-0.136,0.248-0.395,0.248-0.601c0-0.222-0.09-0.441-0.248-0.599s-0.377-0.248-0.599-0.248
	c-0.24,0-0.422,0.098-0.601,0.248c-1.372,1.152-2.641,2.413-3.961,3.621c-0.589,0.539-1.157,1.097-1.732,1.65
	c-0.607,0.583-1.216,1.161-1.79,1.776c-0.292,0.314-0.587,0.625-0.893,0.927c-0.18,0.178-0.36,0.356-0.543,0.533
	c-0.156,0.15-0.322,0.288-0.471,0.447c-0.308,0.33-0.328,0.845,0,1.173c0.289,0.289,0.722,0.296,1.046,0.082
	c0.047,0.008,0.09,0.028,0.139,0.027c0.711-0.026,1.422-0.042,2.133-0.052c0.124,0,0.25,0,0.374,0.002
	c0.188,0.002,0.376,0.006,0.565-0.004c0.308-0.016,0.615-0.048,0.921-0.068c0.723-0.046,1.45-0.032,2.173-0.018
	c0.511,0.008,1.023,0.018,1.534,0.006c0.128-0.003,0.245-0.041,0.354-0.094c0.053,0.058,0.108,0.116,0.176,0.156
	c0.357,0.208,0.907,0.104,1.099-0.288c0.23-0.475,0.27-1.019,0.294-1.538c0.024-0.561,0.034-1.123,0.038-1.684
	c0.01-1.396,0.032-2.79,0.038-4.183C24.845,16.388,24.484,16.021,24.046,15.989z M22.843,22.838
	c-0.298,0.016-0.593,0.038-0.889,0.038c-0.282,0.002-0.563-0.002-0.845-0.006c-0.657-0.008-1.318-0.012-1.973,0.034
	c-0.294,0.02-0.585,0.052-0.879,0.082c-0.304,0.03-0.617,0.02-0.923,0.018c-0.228-0.001-0.456,0.003-0.683,0.001
	c0.002-0.002,0.004-0.004,0.006-0.006c0.256-0.278,0.503-0.563,0.759-0.839c0.284-0.31,0.595-0.599,0.899-0.891
	c0.593-0.569,1.177-1.146,1.768-1.716c0.603-0.583,1.238-1.129,1.852-1.698c0.392-0.362,0.785-0.725,1.182-1.081
	c0.01-0.009,0.02-0.017,0.03-0.026c-0.003,0.029-0.018,0.055-0.018,0.085c0.006,1.232,0.03,2.465,0.038,3.697
	c0.002,0.517-0.01,1.033-0.016,1.548c-0.004,0.27-0.029,0.54-0.048,0.81c-0.071-0.025-0.142-0.051-0.22-0.051
	C22.869,22.837,22.856,22.837,22.843,22.838z"/>
</svg>