<?xml version="1.0" encoding="utf-8"?>
<!-- Generator: Adobe Illustrator 21.1.0, SVG Export Plug-In . SVG Version: 6.00 Build 0)  -->
<svg version="1.1" id="designs" xmlns="http://www.w3.org/2000/svg" xmlns:xlink="http://www.w3.org/1999/xlink" x="0px" y="0px"
	 width="32px" height="32px" viewBox="0 0 32 32" style="enable-background:new 0 0 32 32;" xml:space="preserve">
<style type="text/css">
	.sketchy_een{fill:#111918;}
</style>
<path class="sketchy_een" d="M17.984,5.383c-0.002-0.005-0.005-0.011-0.007-0.016c0-0.001-0.001-0.002-0.001-0.003
	C17.979,5.37,17.981,5.377,17.984,5.383z M24.265,17.524c-0.029,0.022-0.058,0.044-0.087,0.066
	c-0.008,0.006-0.016,0.013-0.024,0.019C24.191,17.58,24.229,17.552,24.265,17.524z M29.718,12.926
	c-0.382,0.6-0.883,1.098-1.439,1.536c-0.485,0.38-0.972,0.762-1.457,1.144c-0.457,0.358-0.938,0.679-1.401,1.029
	c0.057-0.042,0.113-0.087,0.17-0.131c-0.469,0.364-0.941,0.725-1.412,1.087c-0.292,0.226-0.586,0.448-0.883,0.666
	c0.264,0.789,0.506,1.587,0.786,2.37c0.271,0.754,0.481,1.526,0.792,2.266c-0.028-0.067-0.057-0.133-0.085-0.198
	c0.479,1.116,0.875,2.266,1.251,3.42c0.16,0.491,0.307,0.988,0.489,1.471c0.129,0.35,0.239,0.718,0.293,1.087
	c0.034,0.224,0.038,0.417-0.081,0.621c-0.032,0.055-0.081,0.095-0.125,0.141c-0.018,0.052-0.024,0.106-0.053,0.156
	c-0.228,0.39-0.75,0.53-1.142,0.299c-0.012-0.008-0.022-0.014-0.034-0.02c-0.528-0.305-1.019-0.667-1.542-0.98
	c-0.333-0.2-0.677-0.386-1.003-0.598c-0.327-0.216-0.651-0.437-0.976-0.653c-0.726-0.487-1.437-0.995-2.159-1.488
	c-0.724-0.496-1.409-1.038-2.097-1.582c-0.016-0.012-0.031-0.024-0.046-0.036c-0.014-0.011-0.029-0.022-0.044-0.034
	c0.002,0.002,0.004,0.003,0.007,0.005c-0.026-0.02-0.053-0.041-0.079-0.061c0.021,0.017,0.043,0.033,0.064,0.05
	c-0.561-0.434-1.145-0.842-1.725-1.253c-0.039,0.084-0.091,0.162-0.159,0.228c-0.097,0.093-0.192,0.19-0.295,0.277
	c-0.128,0.106-0.265,0.202-0.399,0.303c-0.143,0.112-0.287,0.224-0.432,0.334c-0.563,0.438-1.128,0.864-1.717,1.267
	c-0.596,0.408-1.197,0.811-1.791,1.221c-0.305,0.21-0.621,0.392-0.94,0.58c-0.299,0.176-0.588,0.38-0.871,0.582
	c-0.283,0.2-0.564,0.398-0.863,0.572c-0.394,0.232-0.808,0.414-1.239,0.574c-0.202,0.075-0.467,0.02-0.647-0.085
	c-0.188-0.109-0.327-0.293-0.386-0.501c-0.014-0.051-0.007-0.104-0.011-0.156c-0.03-0.13-0.04-0.265-0.002-0.397
	c0.034-0.127,0.065-0.257,0.107-0.382c0.239-0.709,0.384-1.447,0.59-2.165c0.23-0.804,0.467-1.609,0.697-2.413
	c0.234-0.814,0.493-1.619,0.718-2.436c0.177-0.646,0.337-1.298,0.499-1.949c-0.447-0.359-0.885-0.73-1.313-1.111
	c-0.532-0.475-1.059-0.956-1.556-1.467c-1.106-1.13-2.252-2.219-3.357-3.351c-0.344-0.352-0.35-0.926,0-1.275
	c0.011-0.011,0.026-0.014,0.037-0.024c0.005-0.005,0.007-0.013,0.012-0.018c0.172-0.17,0.37-0.226,0.602-0.249
	c1.722-0.164,3.452-0.065,5.178-0.137c0.75-0.03,1.5-0.051,2.252-0.055c0.404-0.004,0.81-0.01,1.215-0.002
	c0.04,0,0.08-0.002,0.12-0.001c0.02-0.041,0.04-0.081,0.058-0.123c0.352-0.851,0.649-1.721,0.95-2.592
	c0.347-1.005,0.74-1.995,1.156-2.974c0.362-0.881,0.711-1.768,1.078-2.647c0.042-0.154,0.121-0.287,0.232-0.4
	c0.113-0.113,0.247-0.19,0.4-0.232C15.792,2.011,15.873,2,15.954,2c0.159,0,0.318,0.042,0.456,0.124
	c0.039,0.023,0.065,0.06,0.1,0.089c0.05,0.018,0.101,0.034,0.148,0.061c0.206,0.121,0.317,0.297,0.396,0.515
	c0.154,0.42,0.297,0.841,0.439,1.263c0.115,0.342,0.224,0.688,0.357,1.024c0.042,0.097,0.085,0.194,0.128,0.291
	c0.335,0.793,0.614,1.607,0.937,2.404c0.303,0.748,0.532,1.524,0.843,2.268c-0.026-0.065-0.055-0.129-0.083-0.196
	c0.107,0.254,0.21,0.507,0.314,0.761c0.027,0.06,0.056,0.118,0.083,0.178c0.729,0.071,1.456,0.131,2.189,0.157
	c0.714,0.024,1.425,0.038,2.136,0.087c0.368,0.026,0.74,0.038,1.106,0.075c0.368,0.034,0.734,0.087,1.102,0.101
	c0.703,0.028,1.411,0.01,2.114,0.044c0.383,0.019,0.705,0.259,0.822,0.607c0.014,0.012,0.032,0.017,0.045,0.03
	C29.85,12.147,29.927,12.602,29.718,12.926z M15.452,6.309c-0.024,0.061-0.051,0.119-0.075,0.18
	c0.027-0.066,0.056-0.133,0.083-0.199C15.458,6.297,15.455,6.303,15.452,6.309z M27.299,13c0.017-0.014,0.033-0.03,0.05-0.044
	c-0.248-0.016-0.497-0.029-0.745-0.051c-0.736-0.061-1.469-0.148-2.207-0.194c-0.711-0.045-1.423-0.119-2.136-0.121
	c-0.146,0-0.289,0-0.435,0.002c-0.259,0-0.519,0.002-0.778-0.006c-0.439-0.01-0.877-0.038-1.316-0.077
	c-0.241-0.022-0.445-0.083-0.62-0.259c-0.038-0.038-0.058-0.088-0.088-0.132c-0.132-0.073-0.255-0.177-0.308-0.301
	c-0.176-0.42-0.366-0.841-0.517-1.271c-0.15-0.416-0.279-0.839-0.433-1.253c-0.164-0.447-0.338-0.889-0.509-1.332
	c-0.167-0.431-0.325-0.868-0.5-1.298c-0.219-0.507-0.448-1.008-0.648-1.521c-0.026-0.067-0.051-0.134-0.076-0.202
	c-0.059,0.132-0.119,0.263-0.176,0.395c-0.104,0.256-0.206,0.513-0.314,0.768c-0.027,0.062-0.053,0.123-0.08,0.185
	c-0.185,0.448-0.354,0.901-0.529,1.351c-0.158,0.408-0.321,0.815-0.469,1.225c-0.141,0.394-0.263,0.796-0.41,1.188
	c-0.158,0.419-0.34,0.829-0.516,1.24c-0.056,0.137-0.111,0.275-0.166,0.413c0.018,0.071,0.044,0.139,0.044,0.216
	c0,0.497-0.426,0.954-0.936,0.936c-0.175-0.005-0.348-0.036-0.519-0.068c-0.307-0.027-0.618-0.019-0.926-0.035
	c-0.354-0.018-0.705-0.022-1.059-0.024c-0.346-0.004-0.691,0-1.039,0.006c-0.354,0.008-0.705-0.008-1.059-0.014
	c-0.764-0.014-1.53-0.028-2.294-0.006c-0.237,0.007-0.473,0.024-0.709,0.037c0.11,0.118,0.218,0.239,0.33,0.355
	c0.461,0.483,0.952,0.938,1.417,1.417c0.449,0.465,0.914,0.907,1.38,1.352c0.407,0.388,0.825,0.776,1.264,1.127
	c0.217,0.161,0.436,0.317,0.647,0.488c0.396,0.151,0.62,0.577,0.514,0.991c-0.081,0.309-0.16,0.619-0.249,0.926
	c-0.242,0.849-0.509,1.69-0.748,2.539c-0.228,0.809-0.441,1.619-0.661,2.427c-0.212,0.774-0.469,1.54-0.667,2.318
	c-0.013,0.049-0.025,0.098-0.037,0.146c0.164-0.114,0.325-0.231,0.49-0.343c0.513-0.352,1.065-0.637,1.579-0.988
	c0.489-0.336,0.968-0.685,1.461-1.015c0.457-0.306,0.901-0.628,1.34-0.962c0.212-0.167,0.42-0.335,0.627-0.508
	c0.201-0.167,0.417-0.311,0.626-0.466c0.151-0.125,0.296-0.252,0.453-0.373c0.069-0.053,0.16-0.079,0.255-0.094
	c0.009-0.132,0.04-0.261,0.107-0.376c0.115-0.196,0.303-0.342,0.521-0.4c0.074-0.021,0.159-0.032,0.246-0.032
	c0.152,0,0.31,0.035,0.423,0.119c0.665,0.489,1.316,0.992,1.963,1.504c0.516,0.406,1.012,0.836,1.527,1.243
	c0.577,0.427,1.173,0.821,1.76,1.23c0.596,0.412,1.195,0.823,1.805,1.217c0.511,0.329,1.037,0.635,1.554,0.955
	c-0.093-0.291-0.184-0.582-0.283-0.87c-0.342-0.979-0.673-1.965-1.067-2.924c-0.185-0.429-0.37-0.861-0.522-1.302
	c-0.15-0.426-0.291-0.855-0.453-1.277c-0.307-0.8-0.6-1.605-0.886-2.413c-0.112-0.073-0.212-0.164-0.279-0.279
	c-0.251-0.428-0.089-0.95,0.315-1.209c0.431-0.273,0.865-0.54,1.279-0.835c0.36-0.256,0.713-0.526,1.066-0.794
	c-0.041,0.031-0.082,0.064-0.124,0.096c0.606-0.471,1.223-0.925,1.833-1.387C26.238,13.924,26.763,13.457,27.299,13z"/>
</svg>