<?xml version="1.0" encoding="utf-8"?>
<!-- Generator: Adobe Illustrator 21.1.0, SVG Export Plug-In . SVG Version: 6.00 Build 0)  -->
<svg version="1.1" id="designs" xmlns="http://www.w3.org/2000/svg" xmlns:xlink="http://www.w3.org/1999/xlink" x="0px" y="0px"
	 width="32px" height="32px" viewBox="0 0 32 32" style="enable-background:new 0 0 32 32;" xml:space="preserve">
<style type="text/css">
	.sketchy_een{fill:#111918;}
</style>
<path class="sketchy_een" d="M24.002,29.637c-0.006-0.135-0.006-0.271-0.01-0.406c-0.006-0.317-0.028-0.633-0.052-0.95
	c-0.052-0.729-0.118-1.46-0.131-2.193c-0.012-0.739-0.008-1.478-0.012-2.215c-0.002-0.727-0.008-1.458,0.016-2.185
	c0.024-0.693,0.078-1.386,0.058-2.079c-0.02-0.723-0.06-1.446-0.094-2.169c-0.018-0.353-0.04-0.707-0.046-1.062
	c-0.006-0.343-0.004-0.683-0.016-1.026c-0.028-0.791-0.05-1.581-0.062-2.372c-0.004-0.208-0.089-0.395-0.22-0.539
	c-0.161-0.27-0.453-0.451-0.767-0.451c-0.078,0-0.158,0.011-0.236,0.034c-0.156,0.046-0.32,0.074-0.482,0.099
	c-0.286,0.03-0.574,0.037-0.86,0.048c-0.368,0.012-0.735,0.038-1.103,0.05c-0.111,0.004-0.221,0.001-0.331,0.004
	c-0.015-0.706-0.005-1.413-0.007-2.118c-0.002-0.834-0.006-1.669-0.02-2.505c-0.016-0.842-0.07-1.687-0.074-2.529
	c-0.002-0.896,0.002-1.791-0.01-2.687c-0.002-0.058-0.002-0.115-0.004-0.175c-0.003-0.154-0.058-0.292-0.131-0.417
	C19.343,1.364,18.98,1,18.53,1c-0.007,0-0.013,0-0.02,0c-0.352,0.008-0.705,0.028-1.057,0.032c-0.46,0.004-0.918,0.012-1.378,0.014
	c-0.478,0.002-0.954,0.026-1.432,0.032c-0.599,0.01-1.199,0.012-1.798,0.03c-0.498,0.014-0.914,0.406-0.914,0.914
	c0,0.253,0.117,0.492,0.297,0.665c-0.025,0.079-0.051,0.158-0.055,0.243c-0.036,0.908-0.072,1.818-0.094,2.726
	c-0.02,0.866-0.036,1.732-0.084,2.599c-0.044,0.816-0.131,1.631-0.145,2.448c-0.008,0.414-0.01,0.831-0.008,1.245
	c0,0.087,0.002,0.175,0.001,0.263c-0.328-0.002-0.656-0.003-0.985-0.006c-0.647-0.004-1.291-0.042-1.934-0.088
	c-0.508-0.036-0.932,0.45-0.932,0.93c0,0.089,0.028,0.166,0.05,0.245c0.044,1.463,0.053,2.927,0.105,4.392
	c0.014,0.386,0.014,0.773,0.022,1.159c0.006,0.39-0.008,0.781,0.002,1.169c0.01,0.392,0.038,0.783,0.054,1.175
	c0.014,0.38,0.018,0.761,0.02,1.141c0.002,0.629-0.002,1.259,0.004,1.888c0.008,0.667,0.032,1.332,0.036,1.999
	c0.004,0.623,0.02,1.245,0.022,1.866c0.002,0.462,0.01,0.935-0.036,1.397c-0.003,0.012-0.008,0.025-0.013,0.037
	c-0.076,0.203-0.02,0.472,0.086,0.653c0.063,0.108,0.152,0.194,0.253,0.264c0.129,0.328,0.445,0.584,0.811,0.566
	c0.438-0.024,0.876-0.056,1.314-0.066c0.378-0.01,0.757,0.002,1.133,0.008c0.394,0.006,0.783-0.026,1.175-0.042
	c0.41-0.018,0.822-0.006,1.233,0.002c0.805,0.018,1.607,0.032,2.412,0.016c0.791-0.014,1.581-0.044,2.372-0.032
	c1.318,0.018,2.631,0.094,3.949,0.018c0.37-0.021,0.694-0.232,0.831-0.554c0.07-0.085,0.127-0.18,0.154-0.29
	C24.018,29.902,24.008,29.789,24.002,29.637z M16.04,2.807c0.61-0.003,1.219,0.014,1.827,0.028c0.027,0.697,0.058,1.393,0.064,2.09
	c0.006,0.854,0.022,1.707,0.022,2.559c0,0.834-0.01,1.669-0.012,2.501c-0.002,0.755,0.02,1.511-0.005,2.264
	c-0.154,0.001-0.309,0.004-0.463,0.006c-0.87,0.008-1.741-0.002-2.609-0.022c-0.428-0.01-0.857-0.009-1.285-0.01
	c0.001-0.137,0.004-0.274,0.005-0.41c0.004-0.398,0.008-0.795,0.014-1.191c0.014-0.811,0.044-1.625,0.08-2.436
	c0.036-0.843,0.032-1.687,0.072-2.529c0.042-0.91,0.135-1.816,0.183-2.726c0.001-0.017-0.008-0.031-0.009-0.048
	C14.629,2.845,15.335,2.808,16.04,2.807z M15.609,24.195c0.082-0.375,0.159-0.753,0.251-1.127c0.001-0.006,0.003-0.012,0.004-0.018
	c0.032,0.1,0.064,0.2,0.097,0.301c0.125,0.384,0.269,0.765,0.396,1.151c0.123,0.37,0.231,0.743,0.337,1.119
	c0.029,0.104,0.06,0.208,0.092,0.311c-0.114,0.028-0.228,0.052-0.342,0.072c-0.16,0.014-0.321,0.014-0.481-0.001
	c-0.226-0.04-0.452-0.096-0.67-0.169C15.38,25.286,15.488,24.739,15.609,24.195z M20.442,29.199
	c-0.812-0.002-1.625-0.004-2.438,0.014c-0.823,0.016-1.643,0.074-2.465,0.072c-0.785,0-1.565-0.074-2.348-0.07
	c-0.301,0.002-0.601,0.026-0.902,0.032c-0.309,0.006-0.619,0.006-0.93,0.002c-0.474-0.004-0.947-0.012-1.42-0.009
	c0-0.086,0-0.173-0.002-0.259c-0.004-0.329-0.012-0.655-0.012-0.984c0-0.723,0.006-1.448-0.012-2.171
	c-0.018-0.725-0.042-1.452-0.042-2.177c0.002-0.743,0.006-1.486-0.004-2.229c-0.01-0.685-0.052-1.372-0.046-2.057
	c0.004-0.697,0.03-1.396,0.002-2.093c-0.028-0.681-0.054-1.362-0.068-2.043c-0.006-0.326-0.026-0.653-0.032-0.982
	C9.721,14.164,9.721,14.082,9.721,14c0.863,0.025,1.728,0.029,2.591,0.022c0.552-0.004,1.103-0.008,1.655-0.006
	c0.282,0.003,0.563-0.008,0.844-0.016c-0.014,0.537-0.017,1.073-0.024,1.608c-0.01,0.717-0.02,1.432-0.042,2.149
	c-0.018,0.643-0.064,1.289-0.1,1.932c-0.018,0.289-0.026,0.58-0.034,0.87c-0.007,0.238-0.008,0.477-0.018,0.715
	c-0.016,0.036-0.045,0.062-0.057,0.1c-0.311,0.984-0.456,2.011-0.741,3.001c-0.12,0.42-0.193,0.856-0.269,1.286
	c-0.024,0.141-0.048,0.281-0.062,0.424c-0.026,0.233,0.042,0.43,0.133,0.637c0.135,0.307,0.416,0.454,0.702,0.578
	c0.127,0.055,0.252,0.114,0.385,0.151c0.129,0.038,0.263,0.068,0.392,0.106c0.323,0.095,0.665,0.153,1,0.155
	c0.406,0.004,0.805-0.066,1.199-0.155c0.275-0.062,0.556-0.13,0.799-0.281c0.325-0.199,0.53-0.532,0.528-0.916
	c0-0.183-0.058-0.348-0.122-0.516c-0.121-0.313-0.215-0.633-0.309-0.954c-0.098-0.34-0.191-0.683-0.301-1.02
	c-0.12-0.37-0.257-0.733-0.386-1.101c-0.127-0.362-0.247-0.725-0.4-1.077c-0.119-0.276-0.292-0.521-0.425-0.788
	c-0.049-0.132-0.087-0.267-0.119-0.405c-0.027-0.115-0.089-0.209-0.164-0.292c-0.002-0.158-0.004-0.317-0.003-0.475
	c0.002-0.323,0.028-0.641,0.038-0.962c0.008-0.329,0.006-0.655,0.012-0.982c0.01-0.705,0.018-1.41,0.008-2.117
	c-0.006-0.566,0.021-1.131,0.055-1.697c0.815-0.009,1.629-0.004,2.442-0.017c0.404-0.006,0.809,0.002,1.211-0.014
	c0.345-0.014,0.689-0.032,1.034-0.044c0.281-0.012,0.562-0.022,0.844-0.04c0.02-0.001,0.042-0.003,0.062-0.005
	c0.023,0.513,0.047,1.027,0.061,1.542c0.01,0.342,0.006,0.687,0.008,1.031c0,0.372,0.042,0.745,0.072,1.115
	c0.06,0.725,0.096,1.458,0.098,2.185c0,0.703-0.048,1.406-0.062,2.109c-0.014,0.705-0.002,1.412-0.006,2.117
	c-0.002,0.733-0.012,1.464,0.006,2.195c0.018,0.697,0.058,1.392,0.098,2.089c0.017,0.306,0.027,0.616,0.029,0.925
	C21.738,29.211,21.085,29.2,20.442,29.199z M14.193,27.26c0.036,0.015,0.072,0.027,0.107,0.042c0.035,0.015,0.069,0.031,0.104,0.045
	C14.334,27.32,14.265,27.29,14.193,27.26z"/>
</svg>