<?xml version="1.0" encoding="utf-8"?>
<!-- Generator: Adobe Illustrator 21.1.0, SVG Export Plug-In . SVG Version: 6.00 Build 0)  -->
<svg version="1.1" id="designs" xmlns="http://www.w3.org/2000/svg" xmlns:xlink="http://www.w3.org/1999/xlink" x="0px" y="0px"
	 width="32px" height="32px" viewBox="0 0 32 32" style="enable-background:new 0 0 32 32;" xml:space="preserve">
<style type="text/css">
	.sketchy_een{fill:#111918;}
</style>
<path class="sketchy_een" d="M29.971,8.757c-0.038-0.137-0.106-0.254-0.205-0.353c-0.19-0.232-0.401-0.448-0.598-0.672
	c-0.226-0.253-0.469-0.488-0.706-0.729c-0.256-0.26-0.501-0.53-0.767-0.78c-0.252-0.237-0.495-0.484-0.738-0.729
	c-0.551-0.55-1.135-1.063-1.693-1.602c-0.562-0.545-1.105-1.103-1.722-1.587c-0.177-0.14-0.338-0.239-0.575-0.239
	c-0.215,0-0.423,0.087-0.575,0.239c-0.021,0.021-0.031,0.051-0.05,0.075c-0.103,0.041-0.2,0.099-0.29,0.177
	c-0.615,0.541-1.177,1.139-1.758,1.718c-0.558,0.554-1.129,1.092-1.686,1.648c-1.101,1.097-2.164,2.234-3.197,3.394
	c-0.458,0.511-0.928,1.008-1.388,1.517c-0.458,0.507-0.921,1.008-1.401,1.494c-0.437,0.444-0.888,0.873-1.317,1.329
	c-0.42,0.448-0.845,0.894-1.281,1.325c-0.148,0.145-0.22,0.341-0.217,0.537c-0.098,0.184-0.129,0.399-0.073,0.601
	c0.05,0.182,0.161,0.305,0.297,0.417c-0.008,0.014-0.021,0.025-0.028,0.04c-0.194,0.401-0.427,0.788-0.594,1.2
	c-0.287,0.708,0.372,1.26,0.811,1.722c0.248,0.26,0.503,0.511,0.774,0.751c-0.481,0.427-0.956,0.862-1.433,1.294
	c-0.471,0.425-0.942,0.847-1.393,1.289c-0.418,0.41-0.833,0.82-1.251,1.23c-0.175,0.173-0.355,0.344-0.535,0.515
	c-0.039-0.043-0.077-0.087-0.116-0.13c-0.158-0.17-0.378-0.251-0.6-0.251c-0.142,0-0.278,0.044-0.404,0.108
	c-0.049-0.009-0.094-0.029-0.144-0.029c-0.237,0-0.419,0.097-0.596,0.245c-0.471,0.402-0.938,0.811-1.361,1.262
	c-0.18,0.192-0.346,0.395-0.513,0.598c-0.184,0.222-0.374,0.444-0.533,0.685C1.872,27.43,2.039,27.948,2.4,28.159
	c0.067,0.039,0.142,0.056,0.216,0.074c0.019,0.027,0.029,0.058,0.052,0.084c0.433,0.486,0.881,0.962,1.365,1.399
	c0.249,0.226,0.596,0.282,0.886,0.147c0.005-0.001,0.009,0,0.014-0.001c0.325-0.082,0.59-0.368,0.83-0.592
	c0.194-0.18,0.38-0.37,0.566-0.558c0.414-0.418,0.811-0.849,1.181-1.304c0.037-0.046,0.06-0.093,0.09-0.139
	c0.04-0.027,0.084-0.05,0.117-0.082c0.313-0.313,0.328-0.86,0-1.169c-0.096-0.091-0.183-0.193-0.275-0.288
	c0.152-0.15,0.301-0.306,0.455-0.456c0.216-0.213,0.427-0.431,0.645-0.642c0.222-0.211,0.448-0.418,0.668-0.632
	c0.971-0.944,2.024-1.792,3.052-2.672c0.195,0.17,0.393,0.337,0.57,0.524c0.254,0.27,0.505,0.545,0.773,0.801
	c0.118,0.114,0.247,0.222,0.385,0.309c0.125,0.078,0.332,0.158,0.482,0.141c0.087-0.01,0.178-0.011,0.262-0.04
	c0.171-0.061,0.279-0.133,0.414-0.256c0.137-0.127,0.264-0.27,0.397-0.402c0.142-0.142,0.287-0.283,0.427-0.427
	c0.009-0.009,0.012-0.021,0.02-0.031c0.039,0.082,0.083,0.161,0.148,0.226c0.309,0.308,0.856,0.327,1.162,0
	c0.235-0.251,0.454-0.518,0.693-0.767c0.235-0.249,0.482-0.486,0.719-0.733c0.533-0.558,1.09-1.097,1.64-1.636
	c0.579-0.566,1.167-1.122,1.756-1.676c0.577-0.545,1.122-1.118,1.667-1.693c0.465-0.49,0.938-0.974,1.388-1.477
	c0.435-0.484,0.862-0.97,1.323-1.427c0.981-0.972,1.976-1.931,3.003-2.857c0.094-0.085,0.15-0.193,0.186-0.308
	c0.139-0.105,0.249-0.245,0.296-0.415C30.01,9.04,30.01,8.899,29.971,8.757z M5.382,27.424c-0.216,0.242-0.441,0.477-0.677,0.699
	c-0.246-0.268-0.493-0.535-0.732-0.81c0.161-0.182,0.314-0.373,0.492-0.536c0.292-0.267,0.597-0.518,0.9-0.771
	c0.163,0.169,0.325,0.338,0.489,0.506c0.052,0.054,0.105,0.106,0.157,0.16C5.804,26.925,5.601,27.181,5.382,27.424z M26.561,10.577
	c-0.587,0.585-1.177,1.166-1.746,1.767c-1.101,1.16-2.179,2.344-3.32,3.466c-0.926,0.911-1.885,1.786-2.8,2.709
	c-0.444,0.446-0.906,0.879-1.369,1.304c-0.192,0.178-0.391,0.351-0.575,0.54c-0.025-0.026-0.049-0.053-0.076-0.077
	c-0.159-0.144-0.334-0.271-0.495-0.414c-0.366-0.327-0.697-0.701-1.029-1.061c-0.147-0.159-0.353-0.234-0.559-0.234
	c-0.213,0-0.428,0.081-0.582,0.234c-0.315,0.315-0.304,0.824,0,1.139c0.301,0.312,0.616,0.608,0.931,0.905
	c-0.016,0.015-0.038,0.02-0.053,0.037c-0.134,0.148-0.272,0.294-0.417,0.433c-0.194-0.177-0.38-0.363-0.571-0.543
	c-0.33-0.317-0.672-0.623-1.018-0.923c-0.349-0.302-0.704-0.596-1.035-0.917c-0.261-0.254-0.492-0.537-0.717-0.825
	c0.087-0.16,0.174-0.32,0.26-0.48c0.216,0.198,0.425,0.402,0.649,0.59c0.167,0.141,0.336,0.234,0.562,0.234
	c0.209,0,0.412-0.084,0.56-0.234c0.294-0.292,0.325-0.833,0-1.122c-0.327-0.292-0.647-0.594-0.97-0.89
	c-0.222-0.205-0.466-0.385-0.703-0.574c0.867-0.881,1.754-1.742,2.606-2.637c0.537-0.564,1.054-1.147,1.587-1.714
	c0.535-0.573,1.046-1.167,1.576-1.745c0.461-0.501,0.938-0.989,1.414-1.475c0.478-0.49,0.953-0.981,1.441-1.458
	c0.932-0.911,1.855-1.837,2.835-2.696c0.401,0.332,0.799,0.666,1.183,1.02c0.531,0.49,1.065,0.979,1.589,1.481
	c0.492,0.469,0.979,0.938,1.445,1.437c0.342,0.367,0.689,0.73,1.015,1.112C27.627,9.49,27.101,10.038,26.561,10.577z M25.35,8.688
	c0.144,0.146,0.228,0.345,0.228,0.552c0,0.226-0.095,0.38-0.228,0.551c-0.382,0.484-0.786,0.942-1.219,1.38
	c-0.552,0.562-1.139,1.095-1.678,1.67c-0.535,0.571-1.065,1.145-1.61,1.705c-0.254,0.264-0.516,0.52-0.759,0.794
	c-0.251,0.281-0.501,0.56-0.755,0.837c-0.486,0.526-0.995,1.027-1.473,1.558c-0.285,0.315-0.814,0.289-1.103,0
	c-0.3-0.3-0.302-0.803,0-1.103c0.34-0.34,0.655-0.708,0.981-1.061c0.503-0.549,0.959-1.139,1.46-1.688
	c0.528-0.581,1.097-1.122,1.65-1.68c0.554-0.558,1.131-1.09,1.71-1.621c0.294-0.27,0.583-0.545,0.843-0.847
	c0.275-0.319,0.537-0.644,0.795-0.976c-0.021,0.026-0.042,0.053-0.063,0.08c0.07-0.113,0.16-0.207,0.276-0.274
	c0.121-0.07,0.252-0.106,0.393-0.106C25.005,8.461,25.204,8.542,25.35,8.688z M16.907,14.639c-0.344,0.372-0.695,0.74-1.046,1.105
	c-0.292,0.304-0.797,0.294-1.091,0c-0.308-0.307-0.281-0.778,0-1.09c0.653-0.719,1.279-1.465,1.978-2.143
	c0.746-0.723,1.513-1.424,2.234-2.174c0.15-0.156,0.355-0.232,0.561-0.232c0.209,0,0.419,0.079,0.572,0.232
	c0.311,0.311,0.306,0.822,0,1.133c-0.727,0.742-1.511,1.427-2.253,2.154C17.53,13.952,17.222,14.297,16.907,14.639z"/>
</svg>