<?xml version="1.0" encoding="utf-8"?>
<!-- Generator: Adobe Illustrator 21.1.0, SVG Export Plug-In . SVG Version: 6.00 Build 0)  -->
<svg version="1.1" id="designs" xmlns="http://www.w3.org/2000/svg" xmlns:xlink="http://www.w3.org/1999/xlink" x="0px" y="0px"
	 width="32px" height="32px" viewBox="0 0 32 32" style="enable-background:new 0 0 32 32;" xml:space="preserve">
<style type="text/css">
	.sketchy_een{fill:#111918;}
</style>
<path class="sketchy_een" d="M26.552,14.265c-0.022-0.39-0.051-0.778-0.078-1.168c-0.033-0.451-0.053-0.903-0.127-1.35
	c-0.127-0.746-0.321-1.479-0.517-2.21c-0.212-0.786-0.496-1.558-0.893-2.267c-0.374-0.669-0.826-1.289-1.301-1.888
	c-0.121-0.158-0.243-0.315-0.376-0.465c-0.125-0.139-0.276-0.261-0.417-0.384c-0.333-0.288-0.668-0.582-1.029-0.835
	c-0.331-0.233-0.717-0.396-1.07-0.59c-0.417-0.227-0.841-0.427-1.285-0.592c-0.339-0.125-0.707-0.206-1.058-0.288
	c-0.429-0.102-0.868-0.137-1.307-0.176C16.794,2.025,16.493,2,16.193,2c-0.075,0-0.149,0.002-0.224,0.005
	c-0.445,0.02-0.89,0.153-1.33,0.214c0.015-0.002,0.029-0.004,0.044-0.006c-0.392,0.053-0.78,0.116-1.169,0.2
	c-0.178,0.037-0.349,0.104-0.519,0.165c-0.251,0.09-0.498,0.194-0.743,0.3c-0.357,0.153-0.717,0.306-1.058,0.492
	c-0.382,0.212-0.737,0.445-1.08,0.715C9.47,4.597,8.916,5.205,8.369,5.818C8.048,6.177,7.738,6.541,7.458,6.933
	C7.211,7.28,7.002,7.652,6.794,8.024c-0.437,0.788-0.692,1.681-0.925,2.547c-0.108,0.396-0.188,0.801-0.274,1.203
	c-0.102,0.472-0.182,0.942-0.216,1.424c-0.063,0.891-0.069,1.779-0.027,2.673c0.043,0.946,0.235,1.879,0.415,2.806
	c0.155,0.782,0.327,1.56,0.496,2.339c0.176,0.823,0.478,1.628,0.79,2.41c0.08,0.202,0.172,0.364,0.366,0.478
	c0.063,0.036,0.134,0.051,0.203,0.069c0.147,0.127,0.334,0.211,0.541,0.218c1.618,0.05,3.235-0.05,4.853-0.075
	c-0.006,0.979,0.01,1.959,0.056,2.936c0.029,0.651,0.002,1.307,0.045,1.957c0.018,0.274,0.159,0.509,0.371,0.651
	c0.154,0.185,0.376,0.31,0.632,0.311c0.46,0.002,0.921-0.012,1.381-0.035c0.225-0.01,0.451-0.008,0.676-0.006
	c0.12,0.002,0.239,0.004,0.359,0.002c0.192-0.002,0.388-0.012,0.58-0.002c0.161,0.008,0.319,0.039,0.482,0.043
	c0.18,0.002,0.361,0.004,0.541,0.022c0.17,0.016,0.337-0.012,0.508-0.041c0.194-0.035,0.382-0.202,0.478-0.368
	c0.108-0.186,0.137-0.411,0.08-0.617c-0.026-0.094-0.072-0.18-0.129-0.258c-0.036-0.604-0.044-1.211-0.022-1.813
	c0.014-0.333,0.014-0.668,0.022-1.001c0.013-0.567,0.042-1.134,0.051-1.702c0.286,0.002,0.572,0.009,0.858,0.001
	c0.558-0.016,1.117-0.043,1.675-0.069c0.558-0.027,1.113-0.067,1.673-0.067c0.472,0.002,0.947,0.007,1.42-0.007
	c0.151,0.039,0.307,0.054,0.457,0.013c0.026-0.007,0.041-0.025,0.065-0.034c0.007-0.002,0.014-0.001,0.021-0.003
	c0.21-0.059,0.392-0.198,0.502-0.386c0.081-0.138,0.114-0.282,0.11-0.427c0.007-0.028,0.014-0.056,0.021-0.083
	c0.039-0.153,0.086-0.304,0.131-0.455c0.112-0.378,0.165-0.76,0.212-1.15c0.045-0.388,0.076-0.778,0.125-1.166
	c0.049-0.388,0.102-0.778,0.149-1.168c0.049-0.408,0.094-0.819,0.116-1.23c0.022-0.417,0.01-0.839,0.006-1.258
	C26.66,15.891,26.599,15.078,26.552,14.265z M21.574,7.063c0.205-0.067,0.423-0.099,0.637-0.131
	c0.051-0.006,0.101-0.012,0.151-0.018c0.028-0.003,0.05-0.013,0.077-0.016c0.243,0.33,0.474,0.667,0.696,1.013
	c0.225,0.353,0.413,0.721,0.583,1.101c0.218,0.56,0.384,1.137,0.546,1.715c0.104,0.375,0.182,0.757,0.262,1.139
	c-0.078,0.039-0.159,0.072-0.223,0.139c-0.042,0.045-0.088,0.087-0.135,0.127c-0.11,0.078-0.222,0.151-0.336,0.224
	c-0.112,0.073-0.223,0.15-0.343,0.212c-0.154,0.054-0.314,0.095-0.475,0.124c-0.244,0.019-0.486,0.002-0.729-0.025
	c-0.171-0.032-0.339-0.072-0.503-0.131c-0.206-0.095-0.401-0.197-0.585-0.33c-0.343-0.269-0.678-0.549-0.96-0.881
	c-0.045-0.067-0.085-0.136-0.121-0.208c-0.074-0.22-0.114-0.454-0.153-0.684c-0.024-0.245-0.031-0.495-0.011-0.739
	c0.046-0.274,0.123-0.538,0.221-0.799c0.189-0.429,0.402-0.86,0.678-1.242c0.113-0.134,0.234-0.251,0.368-0.365
	C21.332,7.205,21.452,7.126,21.574,7.063z M17.495,28.418c-0.048-0.001-0.097-0.004-0.145-0.004c-0.337,0-0.674-0.041-1.011-0.053
	c-0.125-0.006-0.251,0.006-0.376,0.01c-0.174,0.002-0.351-0.01-0.527-0.02c-0.261-0.015-0.521-0.021-0.782-0.03
	c-0.001-0.054-0.001-0.108-0.003-0.161c-0.014-0.398-0.012-0.796-0.025-1.193c-0.031-0.952,0.017-1.901,0.039-2.853
	c0.356,0,0.712-0.007,1.067,0.002c0.394,0.01,0.788,0.053,1.183,0.063c0.186,0.004,0.371,0.005,0.556,0.007
	c0.005,0.286,0.012,0.571,0.024,0.857c0.012,0.274,0,0.549-0.006,0.823c-0.006,0.337,0.002,0.672,0,1.009
	c-0.002,0.359,0,0.719-0.006,1.076C17.482,28.106,17.489,28.262,17.495,28.418z M24.714,19.684c0.012-0.078,0.022-0.157,0.033-0.235
	c-0.055,0.398-0.112,0.795-0.165,1.195c-0.039,0.309-0.067,0.619-0.101,0.928c-0.038,0.225-0.094,0.444-0.152,0.664
	c-0.012,0.046-0.026,0.092-0.038,0.138c-0.05,0-0.1-0.001-0.149,0c-0.394,0.008-0.79,0.027-1.183,0.039
	c-0.774,0.022-1.546,0.09-2.32,0.12c-0.842,0.031-1.685,0.059-2.529,0.057c-0.805,0-1.611-0.025-2.418-0.043
	c-1.199-0.025-2.402-0.012-3.603,0.01c-0.592,0.01-1.187,0.029-1.779,0.027c-0.633-0.002-1.264-0.024-1.896-0.048
	c-0.142-0.358-0.286-0.715-0.412-1.079c-0.184-0.533-0.308-1.072-0.427-1.622c-0.225-1.039-0.46-2.074-0.628-3.122
	c-0.152-1.265-0.16-2.557-0.027-3.824c0.103-0.616,0.25-1.223,0.403-1.829c0.15-0.593,0.343-1.18,0.568-1.749
	c0.26-0.573,0.6-1.119,0.976-1.623c0.258,0.518,0.559,1.023,0.949,1.442c0.12,0.127,0.243,0.249,0.378,0.361
	c0.404,0.339,0.901,0.547,1.407,0.69c0.306,0.088,0.629,0.102,0.946,0.121c0.098,0.006,0.196,0.012,0.294,0.014
	c0.221,0.006,0.435-0.027,0.654-0.057c0.678-0.092,1.256-0.507,1.783-0.919c0.378-0.294,0.717-0.639,0.986-1.034
	c0.212-0.31,0.39-0.651,0.521-1.001c0.114-0.308,0.137-0.647,0.149-0.972c0.016-0.415-0.018-0.888-0.216-1.252
	c-0.136-0.252-0.408-0.388-0.683-0.388c-0.138,0-0.276,0.034-0.397,0.106c-0.176,0.102-0.308,0.274-0.362,0.47
	c-0.049,0.181-0.025,0.336,0.034,0.496c0,0.002,0,0.004,0.001,0.007c-0.006-0.015-0.013-0.03-0.019-0.045
	c0.009,0.028,0.017,0.057,0.024,0.085c0.007,0.059,0.014,0.119,0.022,0.178c0.02,0.219,0.006,0.442-0.018,0.66
	c-0.018,0.093-0.042,0.183-0.073,0.272c-0.107,0.235-0.233,0.464-0.383,0.674c-0.174,0.207-0.378,0.392-0.588,0.562
	c-0.259,0.194-0.53,0.37-0.818,0.517c-0.101,0.035-0.203,0.059-0.308,0.078c-0.178,0.013-0.349,0.005-0.531-0.012
	c-0.151-0.014-0.304-0.016-0.456-0.026c-0.177-0.039-0.346-0.1-0.515-0.165c-0.142-0.066-0.278-0.143-0.407-0.232
	c-0.149-0.132-0.29-0.279-0.418-0.432c-0.145-0.211-0.257-0.443-0.371-0.67c-0.141-0.281-0.268-0.567-0.393-0.854
	c0.335-0.348,0.685-0.677,1.062-0.98c0.467-0.339,0.97-0.592,1.499-0.821c0.304-0.127,0.609-0.254,0.927-0.341
	c0.314-0.087,0.64-0.151,0.962-0.202c0.251-0.028,0.503-0.048,0.754-0.088c0.181-0.031,0.359-0.07,0.539-0.102
	c0.559-0.053,1.135,0.01,1.693,0.081c0.511,0.092,1.021,0.243,1.504,0.432c0.329,0.152,0.644,0.331,0.96,0.51
	c0.351,0.198,0.712,0.363,1.043,0.594c0.037,0.03,0.073,0.061,0.109,0.092c-0.063,0.024-0.128,0.036-0.191,0.064
	c-0.368,0.163-0.715,0.435-1.005,0.709c-0.278,0.263-0.49,0.596-0.69,0.921c-0.159,0.263-0.29,0.535-0.421,0.813
	c-0.161,0.333-0.313,0.68-0.398,1.042c-0.092,0.4-0.116,0.813-0.114,1.221c0.002,0.409,0.086,0.856,0.208,1.25
	c0.051,0.168,0.123,0.333,0.2,0.492c0.078,0.165,0.204,0.31,0.317,0.447c0.2,0.247,0.457,0.472,0.705,0.668
	c0.272,0.212,0.535,0.449,0.829,0.629c0.284,0.174,0.611,0.296,0.925,0.404c0.337,0.114,0.686,0.155,1.038,0.176
	c0.333,0.02,0.654,0.002,0.982-0.067c0.172-0.037,0.349-0.074,0.511-0.139c0.264-0.106,0.501-0.253,0.732-0.41
	c0.047,0.721,0.086,1.443,0.12,2.164C24.924,17.182,24.883,18.432,24.714,19.684z M15.359,5.883
	c-0.015-0.034-0.029-0.069-0.044-0.103c0-0.002,0-0.004-0.001-0.006c0.013,0.034,0.027,0.069,0.043,0.104
	C15.358,5.88,15.359,5.882,15.359,5.883z M16.73,13.349c-0.407-0.24-0.826-0.421-1.246-0.539c-0.329-0.091-0.685-0.149-1.12-0.183
	l-0.141,0.001c-0.232-0.038-0.465-0.069-0.702-0.082l-0.116-0.003c-0.247,0-0.494,0.037-0.793,0.081
	c-0.258,0.038-0.512,0.152-0.818,0.29c-0.26,0.116-0.487,0.321-0.657,0.488c-0.176,0.171-0.327,0.377-0.474,0.578l-0.119,0.161
	c-0.137,0.186-0.265,0.375-0.383,0.572c-0.312,0.523-0.385,1.19-0.433,1.829c-0.036,0.478,0.016,1.005,0.15,1.523
	c0.093,0.356,0.359,0.693,0.573,0.962c0.111,0.137,0.225,0.271,0.355,0.388c0.391,0.347,0.831,0.563,1.37,0.781
	c0.174,0.07,0.353,0.127,0.532,0.181c0.248,0.073,0.516,0.099,0.868,0.134l0.192,0.021c0.279,0.03,0.563,0.061,0.843,0.061
	l0.165-0.004c0.515-0.023,1.019-0.169,1.54-0.447c0.25-0.133,0.479-0.323,0.684-0.5c0.167-0.145,0.335-0.29,0.479-0.456
	c0.186-0.21,0.328-0.408,0.438-0.604c0.105-0.188,0.186-0.396,0.264-0.598l0.042-0.107c0.142-0.362,0.179-0.771,0.215-1.173
	c0.091-1.087-0.492-2.084-0.997-2.73C17.249,13.727,17.003,13.511,16.73,13.349z M16.614,16.79
	c-0.005,0.028-0.016,0.084-0.016,0.084c-0.006,0.031-0.013,0.061-0.02,0.091l0.014,0.004l-0.015-0.002
	c-0.027,0.119-0.062,0.238-0.105,0.358c-0.084,0.177-0.177,0.349-0.295,0.521c-0.171,0.195-0.36,0.369-0.566,0.541
	c-0.156,0.107-0.316,0.198-0.495,0.283c-0.122,0.043-0.243,0.079-0.382,0.107c-0.144,0.011-0.29,0.016-0.437,0.016
	c-0.312,0-0.625-0.022-0.94-0.056c-0.248-0.049-0.498-0.124-0.796-0.237c-0.184-0.089-0.359-0.193-0.536-0.316
	c-0.125-0.108-0.239-0.226-0.352-0.36c-0.059-0.084-0.113-0.17-0.171-0.282c-0.036-0.134-0.061-0.269-0.084-0.413
	c-0.024-0.281-0.02-0.586,0.017-0.966c0.037-0.21,0.084-0.419,0.158-0.637c0.156-0.303,0.349-0.573,0.52-0.801
	c0.092-0.111,0.187-0.214,0.306-0.32c0.058-0.037,0.117-0.069,0.19-0.105c0.122-0.042,0.242-0.077,0.381-0.107
	c0.108-0.009,0.216-0.013,0.324-0.013c0.123,0,0.245,0.006,0.377,0.018l0.372,0.07c0.083,0.015,0.163,0.025,0.242,0.025
	c0.124,0,0.235-0.024,0.408-0.08c0.206,0.054,0.408,0.119,0.618,0.198c0.195,0.097,0.387,0.203,0.578,0.333
	c0.078,0.068,0.15,0.141,0.225,0.229c0.1,0.146,0.186,0.299,0.265,0.465c0.111,0.282,0.191,0.54,0.246,0.807
	C16.65,16.425,16.635,16.605,16.614,16.79z"/>
</svg>