<?xml version="1.0" encoding="utf-8"?>
<!-- Generator: Adobe Illustrator 21.1.0, SVG Export Plug-In . SVG Version: 6.00 Build 0)  -->
<svg version="1.1" id="designs" xmlns="http://www.w3.org/2000/svg" xmlns:xlink="http://www.w3.org/1999/xlink" x="0px" y="0px"
	 width="32px" height="32px" viewBox="0 0 32 32" style="enable-background:new 0 0 32 32;" xml:space="preserve">
<style type="text/css">
	.sketchy_een{fill:#111918;}
</style>
<path class="sketchy_een" d="M27.012,24.547c-0.04-0.8-0.104-1.603-0.118-2.405c-0.016-0.859-0.046-1.717-0.046-2.573
	c0-0.826-0.002-1.651-0.018-2.475c-0.018-0.815-0.038-1.629-0.044-2.446c-0.014-1.701-0.032-3.406-0.08-5.107
	c-0.034-1.213-0.066-2.423-0.054-3.638c0.012-1.285,0.08-2.57,0.094-3.854c0.004-0.448-0.376-0.821-0.82-0.821
	c-0.031,0-0.058,0.015-0.089,0.018C25.66,1.092,25.427,1,25.191,1c-0.245,0-0.487,0.089-0.656,0.279
	c-0.13,0.144-0.266,0.278-0.386,0.432c-0.143,0.18-0.282,0.365-0.422,0.549c-0.383,0.492-0.783,0.97-1.167,1.462
	c-0.223,0.284-0.454,0.569-0.703,0.835c-0.025-0.017-0.049-0.034-0.074-0.051c-0.177-0.152-0.347-0.313-0.524-0.464
	c-0.234-0.202-0.444-0.428-0.652-0.658c-0.204-0.222-0.414-0.438-0.61-0.667c-0.168-0.196-0.348-0.376-0.536-0.55
	c-0.132-0.122-0.274-0.238-0.428-0.33c-0.36-0.22-0.814-0.224-1.183-0.032c-0.304,0.16-0.542,0.46-0.766,0.714
	c-0.394,0.45-0.681,0.983-1.038,1.462c-0.123,0.161-0.247,0.322-0.399,0.459c-0.041,0.037-0.088,0.069-0.131,0.105
	c-0.099-0.089-0.204-0.173-0.299-0.269c-0.197-0.2-0.382-0.41-0.56-0.627c-0.309-0.422-0.579-0.87-0.893-1.288
	c-0.084-0.112-0.166-0.222-0.246-0.338c-0.232-0.332-0.536-0.606-0.971-0.606c-0.734,0-1.169,0.726-1.549,1.253
	c-0.362,0.502-0.724,1.004-1.091,1.503C9.835,4.272,9.764,4.371,9.695,4.471C9.641,4.414,9.588,4.356,9.535,4.299
	c-0.32-0.344-0.598-0.73-0.933-1.061C8.264,2.906,7.918,2.582,7.594,2.236C7.444,2.074,7.3,1.908,7.154,1.744
	C7.088,1.672,7.022,1.6,6.952,1.528C6.715,1.29,6.435,1.176,6.105,1.154C6.087,1.152,6.07,1.152,6.052,1.152
	c-0.26,0-0.489,0.139-0.651,0.336C5.119,1.612,4.906,1.892,4.92,2.212c0.064,1.741,0.008,3.482,0.012,5.223
	c0.002,1.701,0.046,3.4,0.084,5.101c0.018,0.841,0.076,1.679,0.108,2.52c0.036,0.873,0.086,1.745,0.112,2.618
	c0.05,1.693,0.032,3.386,0.042,5.079c0.008,1.159-0.008,2.315-0.006,3.474c0,0.556-0.008,1.113-0.008,1.671
	c0.002,0.536-0.016,1.077-0.004,1.615c0.003,0.098,0.029,0.189,0.061,0.278c0.001,0.226,0.084,0.455,0.241,0.612
	c0.338,0.338,0.842,0.302,1.185,0c0.488-0.43,0.965-0.872,1.427-1.329c0.335-0.33,0.662-0.673,1.017-0.981
	c0.021,0.032,0.043,0.063,0.065,0.095c0.132,0.178,0.266,0.332,0.424,0.484c0.252,0.238,0.514,0.462,0.746,0.722
	c0.126,0.138,0.246,0.282,0.366,0.426c0.116,0.138,0.246,0.252,0.378,0.372c0.126,0.116,0.246,0.238,0.37,0.354
	c0.114,0.108,0.236,0.206,0.366,0.296c0.146,0.102,0.372,0.142,0.542,0.156c0.138,0.01,0.27-0.02,0.406-0.042
	c0.206-0.034,0.422-0.174,0.59-0.294c0.086-0.06,0.172-0.122,0.256-0.186c0.192-0.148,0.386-0.294,0.566-0.456
	c0.262-0.234,0.51-0.484,0.754-0.737c0.427-0.437,0.855-0.884,1.32-1.28c0.36,0.444,0.723,0.885,1.082,1.33
	c0.182,0.228,0.37,0.448,0.564,0.665c0.078,0.09,0.162,0.174,0.246,0.256c0.046,0.046,0.09,0.092,0.14,0.132
	c0.066,0.074,0.142,0.13,0.23,0.164c0.074,0.03,0.148,0.062,0.222,0.092c0.096,0.018,0.194,0.03,0.29,0.038
	c0.204,0.02,0.452-0.096,0.612-0.208s0.298-0.244,0.436-0.38c0.124-0.12,0.238-0.246,0.356-0.372c0.236-0.254,0.46-0.52,0.678-0.791
	c0.21-0.26,0.41-0.526,0.62-0.786c0.078-0.095,0.156-0.194,0.238-0.291c0.069,0.059,0.139,0.116,0.213,0.169
	c0.147,0.106,0.296,0.209,0.441,0.315c0.194,0.158,0.387,0.325,0.563,0.499c0.106,0.106,0.2,0.224,0.312,0.328
	c0.134,0.125,0.284,0.234,0.433,0.344c0.145,0.113,0.289,0.225,0.436,0.336c0.382,0.311,0.729,0.684,1.151,0.94
	c0.418,0.256,0.989,0.094,1.233-0.322c0.122-0.208,0.156-0.462,0.092-0.697c-0.007-0.025-0.025-0.041-0.034-0.065
	c0.099-0.133,0.169-0.289,0.171-0.466C27.09,27.673,27.088,26.108,27.012,24.547z M23.734,2.251
	c0.044-0.056,0.088-0.113,0.132-0.169c-0.072,0.092-0.144,0.186-0.216,0.278C23.679,2.323,23.707,2.287,23.734,2.251z
	 M24.549,27.635c-0.149-0.153-0.324-0.272-0.494-0.399c-0.275-0.215-0.556-0.415-0.844-0.615c-0.119-0.104-0.231-0.215-0.353-0.317
	c-0.114-0.094-0.23-0.192-0.358-0.266c-0.156-0.089-0.323-0.13-0.49-0.13c-0.173,0-0.347,0.044-0.511,0.122
	c-0.24,0.114-0.44,0.334-0.618,0.53c-0.14,0.154-0.272,0.316-0.406,0.476c-0.441,0.531-0.867,1.071-1.361,1.55
	c-0.188-0.176-0.355-0.374-0.524-0.569c-0.472-0.542-0.919-1.111-1.361-1.677c-0.134-0.172-0.41-0.256-0.618-0.256
	c-0.017,0-0.032,0.009-0.049,0.01c-0.109-0.045-0.224-0.075-0.344-0.075c-0.081,0-0.162,0.011-0.242,0.034
	c-0.172,0.048-0.278,0.132-0.424,0.21c-0.168,0.088-0.314,0.21-0.462,0.332c-0.15,0.124-0.288,0.264-0.43,0.398
	c-0.142,0.132-0.288,0.258-0.43,0.392c-0.262,0.246-0.504,0.516-0.76,0.77c-0.25,0.248-0.499,0.496-0.77,0.72
	c-0.031,0.023-0.063,0.045-0.095,0.067c-0.069-0.06-0.138-0.119-0.209-0.175c-0.234-0.184-0.416-0.424-0.622-0.638
	c-0.194-0.2-0.4-0.388-0.616-0.566c-0.177-0.146-0.354-0.279-0.505-0.449c-0.138-0.191-0.275-0.382-0.441-0.552
	c-0.054-0.054-0.102-0.116-0.156-0.17c-0.25-0.246-0.596-0.328-0.935-0.254c-0.298,0.066-0.54,0.286-0.77,0.472
	c-0.172,0.136-0.324,0.298-0.482,0.452c-0.304,0.295-0.6,0.598-0.904,0.893c0.002-0.24,0.005-0.48,0.004-0.72
	c-0.004-0.821,0.004-1.641,0.008-2.461c0.012-1.637,0.028-3.274,0.014-4.913c-0.006-0.866-0.012-1.735-0.052-2.603
	c-0.04-0.863-0.082-1.727-0.122-2.59c-0.04-0.862-0.104-1.723-0.13-2.587c-0.024-0.831-0.078-1.661-0.102-2.491
	C6.547,8.376,6.497,7.163,6.497,5.948C6.496,5.209,6.509,4.47,6.516,3.731c0.081,0.082,0.159,0.167,0.242,0.248
	C6.948,4.167,7.14,4.351,7.33,4.54c0.204,0.2,0.38,0.43,0.562,0.648C8.24,5.61,8.627,5.992,8.981,6.406
	c0.136,0.16,0.274,0.324,0.458,0.43c0.362,0.212,0.925,0.176,1.199-0.168c0.14-0.176,0.192-0.264,0.27-0.48
	c0.012-0.036,0.022-0.07,0.032-0.106c0.019-0.058,0.04-0.117,0.061-0.175c0.19-0.399,0.447-0.765,0.701-1.126
	c0.269-0.376,0.535-0.755,0.809-1.129c0.291,0.395,0.57,0.799,0.886,1.175c0.398,0.472,0.826,0.911,1.295,1.313
	c0.18,0.154,0.37,0.254,0.614,0.254c0.029,0,0.054-0.014,0.082-0.016c0.056,0.012,0.11,0.034,0.169,0.034
	c0.24,0,0.408-0.1,0.59-0.246c0.202-0.162,0.404-0.324,0.596-0.5c0.212-0.191,0.38-0.423,0.553-0.65
	c-0.012,0.015-0.023,0.03-0.035,0.045c0.28-0.363,0.546-0.732,0.818-1.099c0.107-0.134,0.219-0.267,0.338-0.394
	c0.104,0.106,0.203,0.218,0.295,0.333c0.212,0.264,0.43,0.526,0.646,0.788c0.234,0.282,0.478,0.548,0.738,0.808
	c0.122,0.122,0.232,0.254,0.354,0.374c0.1,0.1,0.217,0.183,0.332,0.265c0.079,0.074,0.148,0.155,0.222,0.236
	c0.308,0.332,0.758,0.496,1.205,0.382c0.344-0.088,0.57-0.334,0.802-0.582c0.128-0.138,0.256-0.278,0.378-0.422
	c0.55-0.651,1.059-1.339,1.579-2.016c0.039-0.051,0.079-0.101,0.118-0.151c-0.012,1.217-0.024,2.434-0.037,3.651
	c-0.008,0.854,0.024,1.709,0.046,2.563c0.02,0.834,0.024,1.669,0.044,2.501c0.04,1.681,0.042,3.362,0.066,5.043
	c0.024,1.661-0.006,3.324,0.064,4.983c0.05,1.168,0.154,2.333,0.19,3.502c0.027,0.852,0.018,1.704,0.009,2.556
	c-0.197-0.145-0.398-0.282-0.596-0.425C24.76,27.856,24.656,27.746,24.549,27.635z M11.153,15.982c0-0.477,0.408-0.846,0.895-0.857
	c0.71-0.017,1.425-0.011,2.133-0.054c0.642-0.037,1.285-0.059,1.927-0.079c0.306-0.01,0.61,0.01,0.915,0.015
	c0.364,0.006,0.728-0.011,1.091-0.031c0.54-0.031,1.081-0.042,1.623-0.054c0.007,0,0.013,0,0.02,0c0.519,0,0.95,0.438,0.95,0.93
	c0,0.52-0.442,0.915-0.971,0.93c-0.558,0.017-1.117,0.046-1.675,0.054c-0.674,0.01-1.345-0.035-2.017-0.038
	c-0.632-0.006-1.269,0.002-1.903,0.008c-0.698,0.006-1.395,0.008-2.093,0.031C11.559,16.855,11.153,16.437,11.153,15.982z
	 M20.809,12.596c0,0.542-0.448,0.972-0.983,0.98c-0.554,0.01-1.107,0.046-1.659,0.056c-0.614,0.012-1.227,0.022-1.841,0.01
	c-0.598-0.01-1.195-0.058-1.793-0.06c-0.698,0-1.399,0.002-2.097-0.008c-0.512-0.008-0.941-0.422-0.941-0.94
	c0-0.502,0.428-0.953,0.941-0.941c0.72,0.018,1.441,0.048,2.161,0.056c0.32,0.004,0.64,0.002,0.961-0.002
	c0.256-0.002,0.512-0.004,0.768-0.004c0.632,0.002,1.265-0.032,1.897-0.04c0.534-0.008,1.067-0.078,1.603-0.09
	c0.007,0,0.013,0,0.02,0C20.372,11.613,20.809,12.076,20.809,12.596z M20.617,18.773c0.128,0.218,0.164,0.484,0.096,0.729
	c-0.066,0.236-0.224,0.44-0.434,0.564c-0.148,0.086-0.306,0.128-0.478,0.13c-0.158-0.021-0.314-0.042-0.47-0.067
	c-0.155-0.013-0.31-0.013-0.464-0.015c-0.246-0.004-0.492-0.024-0.738-0.03c-0.624-0.014-1.251-0.004-1.875-0.004
	c-1.341,0-2.676,0.11-4.016,0.08c-0.456-0.01-0.836-0.372-0.836-0.834c0-0.444,0.38-0.851,0.836-0.836
	c0.764,0.026,1.523,0.026,2.287-0.014c0.69-0.034,1.379-0.086,2.069-0.128c0.652-0.04,1.307-0.042,1.961-0.088
	c0.154-0.01,0.307-0.015,0.461-0.015c0.068,0,0.135,0.001,0.203,0.003c0.22,0.007,0.436,0.035,0.654,0.067
	c0.06,0.008,0.121,0.016,0.181,0.025C20.281,18.369,20.507,18.583,20.617,18.773z"/>
</svg>