<?xml version="1.0" encoding="utf-8"?>
<!-- Generator: Adobe Illustrator 21.1.0, SVG Export Plug-In . SVG Version: 6.00 Build 0)  -->
<svg version="1.1" id="designs" xmlns="http://www.w3.org/2000/svg" xmlns:xlink="http://www.w3.org/1999/xlink" x="0px" y="0px"
	 width="32px" height="32px" viewBox="0 0 32 32" style="enable-background:new 0 0 32 32;" xml:space="preserve">
<style type="text/css">
	.sketchy_een{fill:#111918;}
</style>
<path class="sketchy_een" d="M29.416,28.746c0.057-0.117,0.088-0.237,0.09-0.358c0.002-0.091-0.015-0.183-0.041-0.329
	c-0.043-0.361-0.072-0.724-0.101-1.086c-0.02-0.253-0.041-0.506-0.065-0.758c-0.076-0.75-0.145-1.501-0.217-2.279l-0.057-0.626
	c-0.124-1.344-0.251-2.733-0.476-4.087c-0.261-1.578-0.569-3.131-0.918-4.617c-0.178-0.766-0.366-1.531-0.573-2.291l-0.049-0.184
	c-0.089-0.328-0.177-0.655-0.26-0.983l-0.047-0.19c-0.072-0.292-0.143-0.583-0.243-0.866c-0.138-0.399-0.295-0.78-0.466-1.132
	l-0.079-0.163c-0.112-0.23-0.223-0.458-0.326-0.69c-0.074-0.184-0.14-0.372-0.205-0.639c0.067-0.242,0.02-0.497-0.128-0.7
	c-0.156-0.212-0.407-0.344-0.699-0.353c-0.263-0.009-0.53,0.023-0.794,0.023l-0.079,0.045c-0.018-0.189-0.031-0.379-0.043-0.568
	l-0.022-0.323c-0.028-0.385-0.051-0.769-0.07-1.155l-0.014-0.343C23.527,3.89,23.52,3.683,23.497,3.48
	c-0.037-0.328-0.094-0.669-0.341-0.914c-0.213-0.215-0.467-0.26-0.708-0.288l-0.006,0.05l-0.139-0.062
	c-0.192-0.032-0.385-0.064-0.59-0.065c-0.223,0-0.438,0.047-0.646,0.091l-0.243,0.051c-0.259,0.025-0.523,0.033-0.781,0.034
	c-0.339,0.003-0.676,0.018-1.014,0.032l-0.35,0.015c-0.425,0.017-0.907,0.035-1.139,0.474c-0.135,0.257-0.131,0.495-0.108,0.715
	c0.011,0.089,0.012,0.177,0.014,0.267c0.002,0.072,0.003,0.144,0.009,0.215c0.012,0.181,0.039,0.36,0.075,0.591
	c0.081,0.633,0.077,1.27,0.038,1.821c-0.263,0.018-0.45,0.096-0.604,0.252c-0.129,0.128-0.211,0.306-0.225,0.487
	c-0.135,0.167-0.203,0.347-0.202,0.535c0.002,0.462,0.006,0.926,0.03,1.39c0,0,0.058,0.951,0.068,1.162
	c0.023,0.47,0.029,0.941,0.034,1.413c0.003,0.311,0.007,0.624,0.016,0.935l0.04,1.216l-0.033,0.411l-0.108,0.003l-0.825-0.026
	c-0.415-0.014-0.83-0.021-1.195-0.061c0-0.403,0.002-0.802,0.01-1.204l0.011-0.443c0.007-0.233,0.014-0.466,0.013-0.698l-0.008-0.71
	c-0.008-0.512-0.015-1.023,0.002-1.601c0.021-0.68,0.042-1.358,0.048-2.039c0.002-0.282-0.059-0.541-0.252-0.756
	c-0.039-0.043-0.656-0.448-0.655-0.429c-0.025-0.362-0.039-0.727-0.054-1.091l-0.025-0.591c-0.018-0.364-0.046-0.728-0.077-1.123
	c-0.021-0.26-0.043-0.529-0.111-0.784c-0.057-0.219-0.201-0.41-0.441-0.583c-0.16-0.117-0.331-0.138-0.528-0.163
	C12.454,2.002,12.41,2,12.367,2c-0.118,0-0.237,0.018-0.355,0.035l-0.148,0.02c-0.238,0.028-0.477,0.044-0.717,0.06L10.934,2.13
	c-0.623,0.046-1.26,0.117-2.018,0.223c-0.112,0.008-0.221,0.016-0.337,0.03C8.463,2.399,8.348,2.445,8.238,2.528
	c-0.119,0.087-0.19,0.139-0.272,0.283C7.879,2.958,7.866,3.066,7.844,3.254C7.838,3.309,7.841,3.367,7.846,3.508L7.85,4.684
	c0.002,0.543,0.004,1.085,0.061,1.577L7.656,6.266C7.372,6.272,7.088,6.277,6.804,6.288C6.342,6.31,5.985,6.649,5.961,7.072
	C5.915,7.144,5.874,7.221,5.839,7.307C5.53,8.085,5.287,8.869,5.036,9.699c-0.227,0.747-0.461,1.519-0.64,2.298
	c-0.347,1.518-0.708,3.15-0.99,4.792c-0.174,1.021-0.29,1.808-0.376,2.552l-0.067,0.563c-0.073,0.612-0.146,1.224-0.193,1.838
	c-0.062,0.804-0.114,1.61-0.163,2.415L2.59,24.422c-0.019,0.305-0.039,0.609-0.045,0.915l-0.056,2.189
	c-0.004,0.115-0.003,0.231-0.001,0.345l0,0.297c-0.003,0.226-0.006,0.459,0.128,0.637c-0.042,0.113-0.061,0.209-0.061,0.302
	c0,0.484,0.404,0.892,0.89,0.892c0.442-0.005,0.883-0.018,1.324-0.029c0.408-0.012,0.816-0.023,1.224-0.029
	c0.792-0.012,1.584-0.016,2.377-0.016l0.532,0.001c0.617,0,1.234-0.005,1.849-0.034c0.518-0.021,1.032-0.033,1.547-0.033
	c0.214,0,0.845,0.009,0.845,0.009c0.17,0.002,0.342,0.004,0.545,0.028c0.078,0.027,0.16,0.041,0.243,0.041
	c0.38,0,0.759-0.292,0.84-0.666c0.296-0.155,0.475-0.442,0.468-0.749c-0.004-0.124-0.022-0.247-0.041-0.368
	c-0.02-0.216-0.029-0.434-0.038-0.652l-0.017-0.352l-0.09-1.39c-0.045-0.721-0.09-1.443-0.143-2.163
	c-0.026-0.362-0.058-0.724-0.09-1.086c-0.036-0.406-0.072-0.811-0.099-1.216c-0.018-0.271-0.03-0.541-0.042-0.811l-0.069-0.368
	c0.391-0.004,0.781-0.009,1.171-0.019l0.665-0.017c0.18-0.002,0.357-0.003,0.476-0.085l0.004,0.373
	c0.007,0.568,0.013,1.138,0.031,1.705c0.016,0.581,0.042,1.16,0.066,1.739c0.039,0.892,0.078,1.783,0.085,2.674l0.006,0.505
	c0.009,0.492,0.017,1.001-0.021,1.494c-0.011,0.118,0.013,0.235,0.055,0.368c-0.015,0.052-0.03,0.104-0.03,0.164
	c0,0.471,0.389,0.868,0.869,0.868c0.438-0.009,0.875-0.031,1.312-0.054c0.384-0.019,0.768-0.04,1.151-0.051
	c0.239-0.006,0.478-0.009,0.716-0.009c0.565,0,1.13,0.017,1.696,0.049c1.019,0.058,2.056,0.059,3.058,0.06
	c0.56,0,1.12,0.001,1.68,0.011c0.235,0.004,0.473,0.01,0.709,0.024l0.103,0.009c0.073,0.007,0.147,0.013,0.243,0.013
	c0.474-0.002,0.859-0.387,0.859-0.859C29.513,28.954,29.48,28.827,29.416,28.746z M9.476,3.823C9.621,3.793,9.766,3.764,9.908,3.74
	c0.428-0.044,0.862-0.066,1.291-0.078l0.47,0.007l0.261-0.052l0.044,0.274c0.03,0.188,0.056,0.375,0.081,0.561
	c0.056,0.44,0.098,0.884,0.134,1.326l0.081,0.413h-0.51c-0.379,0-0.758,0.002-1.138,0.012c-0.272,0.009-0.545,0.013-0.817,0.018
	L9.548,6.274C9.529,5.829,9.457,4.455,9.457,4.455C9.447,4.231,9.442,4.009,9.476,3.823z M5.294,15.111
	c0.071-0.361,0.142-0.722,0.222-1.082l0.119-0.536c0.133-0.609,0.267-1.219,0.439-1.821c0.22-0.771,0.475-1.554,0.757-2.329
	C6.995,8.89,7.182,8.444,7.345,7.981l1.436-0.101c0.554-0.043,1.109-0.062,1.731-0.085c0.239-0.007,0.477-0.011,0.716-0.011
	c0.327,0,0.655,0.007,0.983,0.019c0.092,0.004,0.184,0.012,0.275,0.019c0.103,0.009,0.207,0.018,0.309,0.02l0.112,0.018l0.015,0.615
	c0.013,0.492,0.026,0.985,0.02,1.477c-0.004,0.395,0,0.79,0.005,1.185c0.004,0.372,0.009,0.743,0.006,1.115
	c-0.007,0.893-0.007,1.786-0.006,2.678l0.049,0.375l-1.356,0.018c-0.688,0.012-1.377,0.023-2.067,0.023
	c-0.379,0-1.895-0.014-2.274-0.014c-0.854,0-1.51,0.018-2.074,0.118L5.294,15.111z M4.641,18.922l0.03-0.261
	c0.066-0.467,0.145-0.934,0.225-1.399l0.028-0.164c0.039,0.012,0.081,0.022,0.143,0.022c0.002,0,0.242-0.021,0.242-0.021
	c0.717-0.065,1.432-0.13,2.152-0.165c0.528-0.024,1.057-0.025,1.586-0.026c0,0,1.886-0.008,2.563-0.008
	c0.348,0.002,1.234,0.006,1.336,0.004c0.007,0.959,0.042,1.92,0.14,2.827c-0.214,0.001-0.427,0.008-0.641,0.015
	c-0.203,0.006-0.407,0.013-0.611,0.015c-0.416,0.004-0.832,0.023-1.248,0.043c-0.289,0.014-0.578,0.027-0.867,0.036
	c-0.295,0.009-0.59,0.012-0.885,0.012l-1.407-0.01c-0.751-0.006-1.498-0.03-2.248-0.068l-0.324-0.014l-0.297,0.04L4.641,18.922z
	 M4.251,25.399c0-0.55,0.001-1.099,0.03-1.646l0.037-0.765c0.024-0.525,0.049-1.05,0.088-1.575l0.146,0.001
	c0.438,0,0.876-0.017,1.315-0.034c0.279-0.012,0.557-0.022,0.836-0.029c0.431-0.009,0.862-0.011,1.293-0.011l3.134-0.011
	c0.545,0,1.09,0.007,1.635,0.03l0.202,0.004l0.165,0.001l0.02,0.337l0.08,0.949c0.037,0.431,0.075,0.862,0.106,1.294
	c0.047,0.656,0.088,1.312,0.178,1.915l-0.324-0.009c-0.252-0.008-0.501-0.01-0.753-0.01c0,0-1.722,0.001-2.297,0.006
	c-0.959,0.008-1.915,0.039-2.872,0.069c-0.581,0.019-1.162,0.038-1.744,0.052l-0.664,0.011l-0.615,0.048L4.251,25.399z
	 M12.86,28.143c-0.495,0-0.989,0.025-1.484,0.05l-0.741,0.035c-0.459,0.019-0.918,0.023-1.377,0.023L8.172,28.25
	c-0.379,0-0.758,0.005-1.137,0.01c-0.374,0.006-0.748,0.011-1.217,0.011c-0.005,0-0.011,0-0.017,0
	c-0.452-0.002-0.905-0.015-1.357-0.028l-0.133,0.04c-0.011-0.116-0.034-0.208-0.068-0.272c-0.006-0.106-0.005-0.213-0.049-0.365
	c1.384-0.112,2.632-0.207,3.897-0.233c0.71-0.015,1.421-0.022,2.131-0.022h0.238c0.747,0,1.519,0,2.278,0.053
	c0.286,0.02,0.572,0.046,0.814,0.055c0.01,0.225,0.02,0.452,0.044,0.63C13.473,28.128,12.98,28.143,12.86,28.143z M16.767,18.418
	c-0.067,0-0.131,0.009-0.179,0.025l-0.183,0.004c-0.146,0-0.294-0.007-0.44-0.014l-0.254-0.01c-0.146-0.005-0.293-0.008-0.437-0.008
	c-0.238,0-0.469,0.009-0.681,0.037c-0.019-0.841-0.027-1.681-0.077-2.472c0.398-0.004,0.795-0.009,1.191-0.019l0.307-0.014
	c0.154-0.009,0.309-0.018,0.463-0.018c0.014,0,0.028,0.001,0.042,0.001c0.089,0,0.179-0.003,0.273-0.045l0.046,1.382l0.029,0.702
	l0.083,0.468C16.886,18.425,16.825,18.418,16.767,18.418z M19.42,3.973l0.171-0.003c0.129,0,0.259,0.005,0.387,0.01l0.333,0.01
	l0.461-0.009c0.215-0.005,0.427-0.031,0.635-0.062c0.05-0.004,0.099-0.006,0.148-0.006c0.042,0,0.195,0,0.226-0.004L21.78,3.92
	l0.01-0.013c0.018-0.003,0.036-0.007,0.051-0.013l0.009,0.007l0.024,0.278c0.068,0.776,0.136,1.552,0.211,2.278l-0.823,0.016
	L20.58,6.477l-1.284-0.004l-0.056,0.001c-0.012-0.584-0.053-1.158-0.126-1.802c-0.026-0.24-0.042-0.483-0.096-0.673
	C19.153,3.988,19.287,3.979,19.42,3.973z M18.368,15.25l-0.006-0.164c-0.046-1.419-0.068-2.837-0.091-4.255l-0.007-0.441
	c-0.011-0.63-0.001-1.259,0.009-1.89l-0.039-0.33l0.149-0.015c0.323-0.032,0.645-0.064,0.97-0.087
	c0.324-0.02,0.652-0.025,0.98-0.025l1.52,0.003l1.429-0.006l0.482-0.036l0.063,0.158c0.115,0.282,0.23,0.564,0.367,0.837
	l0.153,0.299c0.136,0.266,0.273,0.532,0.389,0.805c0.219,0.549,0.384,1.125,0.544,1.682l0.093,0.323
	c0.223,0.771,0.44,1.538,0.636,2.314c0.046,0.179,0.086,0.359,0.126,0.539l0.124,0.273l-0.594,0.011H25.26
	c-0.694,0.005-1.386,0.017-2.079,0.036c-0.563,0.018-1.126,0.027-1.687,0.027c-1.109,0-2.109-0.04-3.057-0.124l-0.043-0.001
	L18.368,15.25z M18.43,16.89c0.372,0.027,0.742,0.038,1.114,0.038c0.721,0,1.443-0.041,2.163-0.082
	c0.472-0.027,0.943-0.054,1.414-0.069c0.269-0.008,0.538-0.011,0.807-0.011c0.398,0,0.795,0.006,1.193,0.013l0.648,0.004
	c0.203,0,0.406,0.008,0.609,0.015l0.171-0.032c0.159,0.758,0.304,1.518,0.438,2.28c0.038,0.222,0.071,0.445,0.165,0.706
	l-0.502,0.014c-0.299,0.007-0.597,0.015-0.899,0.028c-0.708,0.031-1.416,0.062-2.123,0.074c-0.367,0.006-1.879,0.045-2.269,0.051
	l-0.483,0.002c-0.526,0-1.054-0.007-1.582-0.015l-0.284-0.004l-0.464,0.042l-0.003-0.184c-0.01-0.611-0.039-1.219-0.068-1.827
	L18.43,16.89z M18.525,21.476c0.779-0.01,1.56-0.034,2.34-0.058c0.721-0.022,1.442-0.045,2.163-0.056
	c0.62-0.009,1.241-0.016,1.862-0.016c0.764,0,1.528,0.01,2.291,0.039l0.11-0.041c0.109,1.039,0.203,2.08,0.288,3.119l0.16,1.296
	l-0.134,0.002c-0.344,0.007-0.687,0.014-1.031,0.014l-0.384-0.003c-0.318-0.006-0.636-0.016-0.954-0.025
	c-0.464-0.014-0.929-0.028-1.394-0.029l-0.447-0.001c-0.603,0-1.206,0.006-1.808,0.019c-0.245,0.005-0.49,0.008-0.736,0.008
	c-0.507,0-1.015-0.01-1.592-0.02l-0.522,0.039l-0.011-0.314c-0.014-0.365-0.026-0.731-0.048-1.098
	C18.622,23.375,18.594,22.399,18.525,21.476z M26.858,28.273c-0.411,0.005-0.822,0.005-1.234,0.005l-1.238,0.004
	c-0.737,0-1.471-0.024-2.209-0.054c-0.547-0.022-1.095-0.031-1.643-0.041l-1.537-0.024l-0.209,0.045
	c-0.013-0.299-0.021-0.597-0.068-0.847l0.905-0.043c0.34-0.014,0.68-0.022,1.022-0.03l0.753-0.02
	c0.553-0.016,1.106-0.031,1.659-0.038c0.323-0.005,0.646-0.008,0.969-0.008c0.454,0,0.909,0.007,1.361,0.026l0.724,0.035
	c0.51,0.025,1.02,0.052,1.529,0.059l0.108,0.004l0.068,0.035l0.027,0.338c0.016,0.189,0.032,0.381,0.065,0.537
	C27.561,28.266,27.211,28.27,26.858,28.273z"/>
</svg>