<?xml version="1.0" encoding="utf-8"?>
<!-- Generator: Adobe Illustrator 21.1.0, SVG Export Plug-In . SVG Version: 6.00 Build 0)  -->
<svg version="1.1" id="designs" xmlns="http://www.w3.org/2000/svg" xmlns:xlink="http://www.w3.org/1999/xlink" x="0px" y="0px"
	 width="32px" height="32px" viewBox="0 0 32 32" style="enable-background:new 0 0 32 32;" xml:space="preserve">
<style type="text/css">
	.sketchy_een{fill:#111918;}
</style>
<path class="sketchy_een" d="M20.468,7.043L20.468,7.043l0.001-0.001C20.468,7.043,20.468,7.043,20.468,7.043z M29,16.888
	c-0.006,0.362-0.077,0.759-0.289,1.062c-0.27,0.385-0.657,0.68-1.064,0.91c-0.328,0.184-0.68,0.339-1.037,0.456
	c-0.443,0.146-0.889,0.209-1.351,0.265c-0.184,0.022-0.369,0.01-0.554,0.019c0.052,0.061,0.111,0.116,0.16,0.177
	c0.197,0.24,0.381,0.479,0.529,0.751c0.155,0.291,0.303,0.583,0.403,0.899c0.079,0.249,0.155,0.508,0.209,0.765
	c0.044,0.205,0.098,0.429,0.098,0.636c0,0.134-0.008,0.268-0.015,0.403c-0.021,0.314-0.065,0.631-0.123,0.941
	c-0.079,0.443-0.215,0.901-0.412,1.303c-0.081,0.165-0.178,0.326-0.284,0.475c-0.144,0.209-0.295,0.424-0.471,0.608
	c-0.194,0.205-0.412,0.36-0.665,0.481c-0.148,0.069-0.295,0.138-0.443,0.205c-0.194,0.09-0.389,0.184-0.588,0.259
	c-0.222,0.082-0.454,0.126-0.692,0.125c-0.13-0.002-0.257-0.01-0.385-0.023c-0.249-0.027-0.466-0.096-0.692-0.201
	c-0.307-0.144-0.587-0.334-0.863-0.531c-0.328-0.236-0.644-0.493-0.949-0.759c-0.145-0.128-0.272-0.278-0.393-0.433
	c-0.092,0.332-0.188,0.663-0.316,0.984c-0.174,0.447-0.41,0.834-0.75,1.181c-0.301,0.309-0.629,0.61-1.002,0.83
	c-0.219,0.13-0.449,0.245-0.702,0.288c-0.295,0.05-0.565,0.052-0.863-0.012c-0.573-0.117-1.106-0.416-1.576-0.761
	c-0.172-0.125-0.335-0.245-0.466-0.412c-0.13-0.167-0.24-0.326-0.33-0.516c-0.24-0.5-0.408-1.022-0.447-1.579
	c-0.004-0.055,0.003-0.109,0.002-0.163c-0.137,0.101-0.275,0.203-0.413,0.301c-0.186,0.132-0.374,0.265-0.571,0.38
	c-0.176,0.104-0.364,0.186-0.55,0.27c-0.209,0.098-0.424,0.19-0.654,0.228c-0.207,0.033-0.414,0.057-0.621,0.09
	c-0.186,0.029-0.37,0.067-0.556,0.1c-0.328,0.056-0.654,0.054-0.981,0.015c-0.274-0.031-0.491-0.092-0.738-0.211
	c-0.081-0.038-0.159-0.081-0.236-0.126c-0.261-0.159-0.506-0.357-0.719-0.579c-0.374-0.389-0.738-0.857-0.755-1.42
	c-0.006-0.213,0.036-0.437,0.069-0.646c0.036-0.245,0.077-0.483,0.171-0.715c0.09-0.219,0.186-0.435,0.286-0.65
	c0.151-0.33,0.295-0.675,0.491-0.983c0.213-0.339,0.449-0.677,0.703-0.987c0.239-0.291,0.496-0.564,0.753-0.839
	c-0.139-0.002-0.279-0.005-0.417-0.01c-0.395-0.013-0.792-0.021-1.185-0.067c-0.433-0.05-0.897-0.084-1.313-0.226
	c-0.167-0.056-0.33-0.117-0.493-0.184c-0.245-0.1-0.516-0.192-0.74-0.339c-0.33-0.219-0.675-0.454-0.851-0.822
	c-0.096-0.197-0.18-0.406-0.24-0.619c-0.092-0.333-0.14-0.671-0.111-1.018c0.019-0.228,0.048-0.454,0.081-0.68
	c0.033-0.219,0.082-0.412,0.171-0.615c0.046-0.104,0.096-0.203,0.151-0.301c0.096-0.172,0.195-0.341,0.305-0.504
	c0.136-0.203,0.299-0.381,0.473-0.55c0.077-0.073,0.155-0.144,0.234-0.217c0.182-0.167,0.393-0.349,0.617-0.458
	c0.159-0.077,0.334-0.167,0.51-0.199c0.121-0.021,0.242-0.038,0.364-0.054c0.102-0.013,0.203-0.025,0.305-0.034
	c0.191-0.02,0.383-0.036,0.576-0.049c-0.057-0.072-0.119-0.141-0.174-0.214c-0.105-0.14-0.215-0.278-0.291-0.437
	c-0.061-0.128-0.117-0.259-0.174-0.387c-0.096-0.219-0.192-0.437-0.274-0.661c-0.096-0.263-0.136-0.556-0.169-0.834
	C5.658,9.819,5.597,9.355,5.71,8.912c0.056-0.217,0.128-0.424,0.209-0.631c0.084-0.217,0.169-0.439,0.278-0.644
	c0.1-0.186,0.22-0.362,0.364-0.518c0.172-0.188,0.401-0.341,0.613-0.483C7.458,6.446,7.757,6.3,8.098,6.242
	c0.23-0.038,0.464-0.059,0.694-0.077c0.114-0.008,0.232-0.024,0.347-0.024c0.017,0,0.033,0,0.05,0.001
	c0.207,0.01,0.412,0.042,0.615,0.077c0.163,0.029,0.326,0.063,0.489,0.1c0.372,0.087,0.715,0.235,1.063,0.387
	c0.245,0.098,0.5,0.187,0.727,0.319c0.003,0.002,0.006,0.005,0.009,0.007c0.024-0.404,0.073-0.807,0.152-1.202
	c0.054-0.266,0.174-0.518,0.303-0.757c0.092-0.172,0.178-0.351,0.282-0.516c0.14-0.226,0.295-0.435,0.458-0.646
	c0.1-0.128,0.197-0.282,0.324-0.385c0.238-0.199,0.462-0.339,0.761-0.435c0.171-0.054,0.357-0.079,0.535-0.088
	C14.942,3.001,14.976,3,15.011,3c0.463,0,0.92,0.142,1.309,0.391c0.73,0.468,1.321,1.146,1.714,1.919
	c0.278,0.542,0.483,1.115,0.633,1.704c0.02-0.037,0.038-0.076,0.058-0.112c0.255-0.462,0.554-0.897,0.882-1.311
	c0.257-0.324,0.506-0.675,0.805-0.962c0.385-0.372,0.861-0.738,1.397-0.849c0.263-0.056,0.531-0.094,0.799-0.107
	c0.059-0.003,0.118-0.005,0.177-0.005c0.198,0,0.39,0.02,0.59,0.055c0.261,0.044,0.525,0.157,0.757,0.274
	c0.115,0.057,0.226,0.119,0.332,0.19c0.159,0.107,0.318,0.22,0.46,0.349c0.13,0.119,0.236,0.261,0.341,0.404
	c0.232,0.318,0.42,0.679,0.569,1.043c0.125,0.307,0.194,0.629,0.23,0.956c0.019,0.167,0.036,0.335,0.019,0.5
	c-0.027,0.263-0.079,0.508-0.146,0.761c-0.104,0.38-0.238,0.755-0.374,1.123c-0.151,0.414-0.316,0.822-0.533,1.206
	c-0.188,0.333-0.399,0.65-0.609,0.966c-0.308,0.464-0.651,0.902-1.011,1.325c0.225-0.032,0.451-0.064,0.676-0.086
	c0.253-0.027,0.513-0.045,0.77-0.045c0.121,0,0.241,0.004,0.361,0.012c0.22,0.015,0.445,0.048,0.657,0.105
	c0.249,0.071,0.485,0.196,0.717,0.311c0.414,0.209,0.795,0.441,1.135,0.763c0.332,0.312,0.588,0.684,0.803,1.081
	C28.85,15.552,29.009,16.216,29,16.888z M13.873,8.828c0.153,0.877,0.484,1.715,0.696,2.575c0.115,0.464,0.23,0.926,0.335,1.392
	c0.057,0.245,0.105,0.495,0.171,0.74c0.048,0.171,0.111,0.338,0.179,0.504c0.025,0.059,0.052,0.118,0.078,0.177
	c0.233-0.076,0.49-0.134,0.74-0.134c0.052,0,0.103,0.002,0.153,0.008c0.219,0.023,0.41,0.063,0.613,0.144
	c0.234,0.092,0.45,0.209,0.669,0.33c0.136,0.076,0.242,0.188,0.313,0.319c0.076,0.036,0.147,0.084,0.21,0.145
	c0.044,0.042,0.079,0.091,0.121,0.135c0.359-0.207,0.706-0.428,1.041-0.669c0.549-0.443,1.063-0.934,1.566-1.429
	c0.312-0.309,0.633-0.613,0.932-0.935c0.231-0.249,0.45-0.509,0.662-0.776c0.286-0.389,0.555-0.788,0.814-1.193
	c0.212-0.331,0.408-0.677,0.567-1.036c0.112-0.283,0.202-0.573,0.295-0.862c0.09-0.286,0.176-0.575,0.233-0.869
	c0.005-0.136-0.003-0.272-0.015-0.408c-0.027-0.141-0.064-0.278-0.113-0.413c-0.111-0.235-0.237-0.474-0.384-0.689
	c-0.059-0.063-0.122-0.121-0.188-0.177c-0.133-0.094-0.271-0.179-0.418-0.252c-0.088-0.031-0.176-0.055-0.266-0.074
	c-0.171-0.008-0.342,0.001-0.514,0.016c-0.109,0.019-0.215,0.042-0.32,0.077c-0.111,0.055-0.217,0.117-0.318,0.186
	c-0.435,0.386-0.817,0.832-1.18,1.283c0.04-0.054,0.082-0.105,0.123-0.159c-0.047,0.06-0.092,0.119-0.138,0.179l-0.001,0.001
	c-0.02,0.026-0.04,0.053-0.06,0.079c0.007-0.009,0.013-0.018,0.02-0.027c-0.003,0.004-0.006,0.008-0.009,0.012
	c-0.004,0.005-0.008,0.01-0.012,0.015c-0.001,0.001-0.001,0.002-0.002,0.003c-0.283,0.376-0.526,0.787-0.76,1.195
	c-0.225,0.393-0.429,0.802-0.61,1.217c-0.093,0.227-0.188,0.452-0.283,0.678c-0.027,0.169-0.057,0.338-0.086,0.507
	c-0.047,0.264-0.114,0.527-0.159,0.793c-0.019,0.176-0.033,0.353-0.05,0.53c-0.025,0.232-0.077,0.426-0.247,0.596
	c-0.157,0.159-0.374,0.247-0.598,0.247c-0.431,0-0.882-0.385-0.845-0.843c0.033-0.378,0.034-0.749,0.117-1.121
	c0.055-0.256,0.097-0.511,0.136-0.769c0.079-0.661,0.125-1.343,0.056-2.007c-0.09-0.563-0.247-1.104-0.457-1.632
	c-0.143-0.317-0.31-0.619-0.511-0.903c-0.163-0.184-0.333-0.357-0.521-0.515c-0.116-0.081-0.236-0.154-0.362-0.218
	c-0.044-0.012-0.088-0.024-0.132-0.034c-0.053-0.001-0.106,0-0.159,0.004c-0.027,0.006-0.054,0.013-0.08,0.021
	c-0.026,0.014-0.052,0.029-0.078,0.045c-0.072,0.07-0.136,0.146-0.198,0.225c-0.246,0.335-0.45,0.692-0.623,1.069
	c-0.058,0.182-0.093,0.368-0.122,0.556C13.809,7.396,13.809,8.118,13.873,8.828z M16.066,17.507c0.112-0.022,0.223-0.05,0.331-0.088
	c0.128-0.063,0.249-0.137,0.367-0.219c0.064-0.056,0.125-0.114,0.182-0.177c0.035-0.053,0.068-0.108,0.098-0.164
	c0.017-0.054,0.031-0.11,0.042-0.166c0.006-0.096,0.003-0.191-0.006-0.287c-0.008-0.043-0.017-0.085-0.028-0.127
	c-0.042-0.048-0.086-0.094-0.132-0.139c-0.095-0.017-0.189-0.049-0.277-0.099c-0.112-0.064-0.225-0.13-0.341-0.189
	c-0.039-0.012-0.077-0.023-0.116-0.032c-0.012,0-0.024,0-0.035,0c-0.07,0.015-0.138,0.033-0.206,0.056
	c-0.097,0.048-0.189,0.103-0.278,0.165c-0.099,0.08-0.195,0.163-0.281,0.257c-0.049,0.072-0.094,0.148-0.134,0.225
	c-0.04,0.118-0.071,0.239-0.094,0.362c-0.003,0.043-0.005,0.087-0.005,0.131c0.004,0.014,0.008,0.028,0.012,0.042
	c0.028,0.054,0.058,0.106,0.09,0.157c0.021,0.022,0.042,0.044,0.064,0.064c0.09,0.059,0.185,0.109,0.283,0.154
	c0.074,0.027,0.149,0.051,0.226,0.068C15.907,17.509,15.987,17.511,16.066,17.507z M7.276,9.387
	c-0.013,0.268,0.011,0.541,0.039,0.808c0.03,0.184,0.065,0.365,0.124,0.545c0.026,0.079,0.057,0.158,0.089,0.236
	c0.082,0.19,0.163,0.379,0.278,0.552c0.374,0.458,0.801,0.861,1.244,1.256c0.068,0.06,0.111,0.137,0.15,0.215
	c0.2,0.042,0.405,0.072,0.601,0.124c0.817,0.22,1.581,0.567,2.371,0.861c0.495,0.184,0.955,0.403,1.393,0.692
	c0.137,0.091,0.267,0.191,0.402,0.285c-0.127-0.3-0.249-0.602-0.349-0.911c-0.127-0.393-0.232-0.794-0.353-1.188
	c-0.119-0.385-0.203-0.78-0.343-1.16c-0.14-0.381-0.251-0.772-0.376-1.158c-0.102-0.312-0.217-0.625-0.286-0.947
	c-0.01-0.048-0.015-0.097-0.024-0.145c-0.028-0.032-0.058-0.058-0.085-0.094c-0.075-0.101-0.146-0.205-0.219-0.307
	c-0.159-0.189-0.329-0.37-0.517-0.532c-0.11-0.073-0.226-0.134-0.348-0.19c-0.248-0.105-0.494-0.215-0.742-0.322
	c-0.313-0.115-0.648-0.179-0.979-0.229C9.07,7.754,8.783,7.792,8.506,7.829C8.433,7.843,8.365,7.859,8.294,7.877
	c-0.158,0.084-0.305,0.19-0.449,0.297C7.804,8.211,7.766,8.247,7.73,8.286C7.629,8.44,7.548,8.608,7.474,8.777
	C7.395,8.977,7.323,9.177,7.276,9.387z M9.117,17.941c0.484-0.071,0.966-0.156,1.443-0.261c0.561-0.125,1.097-0.31,1.629-0.522
	c0.264-0.121,0.512-0.264,0.759-0.417c0.134-0.084,0.263-0.174,0.392-0.264c-0.062-0.049-0.123-0.097-0.185-0.146
	c-0.209-0.158-0.423-0.321-0.646-0.457c-0.209-0.125-0.418-0.234-0.638-0.333c-0.607-0.232-1.211-0.49-1.831-0.681
	c-0.293-0.09-0.587-0.178-0.882-0.255c-0.289-0.073-0.579-0.125-0.872-0.168c-0.399-0.046-0.795-0.07-1.197-0.073
	c-0.341-0.005-0.688,0.033-1.028,0.076c-0.07,0.014-0.137,0.031-0.204,0.052c-0.07,0.038-0.136,0.079-0.203,0.124
	c-0.208,0.17-0.408,0.354-0.582,0.559c-0.125,0.193-0.239,0.392-0.338,0.6c-0.021,0.066-0.036,0.131-0.05,0.199
	c-0.024,0.244-0.041,0.489-0.029,0.734c0.032,0.142,0.072,0.279,0.12,0.416c0.024,0.051,0.05,0.102,0.078,0.152
	c0.011,0.011,0.022,0.021,0.033,0.032c0.175,0.121,0.355,0.223,0.548,0.314c0.142,0.058,0.285,0.114,0.43,0.164
	c0.183,0.063,0.367,0.099,0.557,0.13C6.872,17.967,7.319,17.99,7.77,18C8.221,18.012,8.667,18.002,9.117,17.941z M9.062,17.949
	c0.017-0.002,0.034-0.005,0.05-0.007c-0.026,0.004-0.051,0.007-0.077,0.011C9.045,17.951,9.053,17.95,9.062,17.949z M12.772,23.007
	c0.035-0.05,0.068-0.1,0.099-0.153c0.07-0.115,0.165-0.204,0.271-0.276c0.178-0.664,0.366-1.324,0.551-1.985
	c0.188-0.664,0.362-1.333,0.552-1.997c-0.103-0.078-0.197-0.161-0.285-0.256c-0.074,0.048-0.148,0.096-0.224,0.141
	c-0.345,0.203-0.727,0.347-1.102,0.483c-0.374,0.136-0.749,0.28-1.135,0.374c-0.265,0.064-0.533,0.1-0.8,0.147
	c-0.039,0.103-0.096,0.201-0.177,0.283c-0.332,0.339-0.663,0.679-1.001,1.01c-0.293,0.287-0.585,0.578-0.837,0.9
	c-0.202,0.268-0.391,0.543-0.543,0.842c-0.187,0.364-0.358,0.735-0.521,1.11c-0.043,0.106-0.081,0.213-0.102,0.328
	c-0.015,0.084-0.029,0.169-0.042,0.254c-0.01,0.087-0.018,0.172-0.02,0.258c0.039,0.068,0.08,0.134,0.125,0.198
	c0.115,0.133,0.238,0.257,0.371,0.371c0.096,0.063,0.193,0.12,0.296,0.171c0.063,0.021,0.125,0.038,0.19,0.053
	c0.174,0.013,0.349,0.016,0.523,0.004c0.256-0.048,0.51-0.105,0.765-0.161c0.211-0.045,0.421-0.091,0.624-0.166
	c0.195-0.089,0.388-0.183,0.567-0.3c0.222-0.145,0.438-0.3,0.651-0.46c0,0,0.001-0.001,0.001-0.001
	c0.232-0.188,0.487-0.372,0.69-0.59C12.437,23.4,12.609,23.207,12.772,23.007z M17.74,22.925c-0.057-0.304-0.136-0.609-0.215-0.908
	c-0.086-0.326-0.187-0.654-0.308-0.971c-0.145-0.318-0.311-0.628-0.461-0.944c-0.061-0.129-0.118-0.26-0.174-0.391
	c-0.006-0.01-0.012-0.019-0.018-0.029c-0.047-0.081-0.081-0.167-0.1-0.256c-0.043-0.106-0.086-0.212-0.128-0.318
	c-0.061,0.011-0.121,0.03-0.183,0.038c-0.16,0.02-0.319,0.019-0.476,0.005c-0.102,0.311-0.209,0.62-0.295,0.935
	c-0.14,0.516-0.251,1.037-0.393,1.551c-0.161,0.575-0.315,1.152-0.453,1.732c-0.003,0.057-0.019,0.109-0.034,0.164
	c-0.087,0.377-0.176,0.755-0.233,1.139c-0.036,0.328-0.053,0.661-0.023,0.989c0.037,0.184,0.085,0.365,0.148,0.544
	c0.076,0.165,0.159,0.326,0.262,0.477c0.029,0.031,0.06,0.062,0.092,0.091c0.251,0.17,0.513,0.325,0.787,0.455
	c0.105,0.035,0.212,0.061,0.321,0.08c0.048,0.002,0.095,0.001,0.143-0.001c0.018-0.004,0.037-0.009,0.055-0.015
	c0.133-0.071,0.26-0.152,0.384-0.239c0.2-0.165,0.386-0.346,0.555-0.544c0.085-0.123,0.156-0.25,0.219-0.386
	c0.235-0.623,0.41-1.277,0.513-1.936C17.765,23.772,17.78,23.342,17.74,22.925z M24.36,22.846c-0.069-0.357-0.167-0.715-0.297-1.055
	c-0.122-0.241-0.256-0.478-0.412-0.698c-0.256-0.301-0.532-0.577-0.831-0.837c-0.173-0.151-0.343-0.301-0.504-0.464
	c-0.165-0.171-0.328-0.341-0.508-0.496c-0.013-0.012-0.017-0.029-0.029-0.042c-0.106-0.028-0.213-0.053-0.32-0.08
	c-0.418-0.105-0.834-0.205-1.246-0.332c-0.205-0.063-0.41-0.125-0.613-0.186c-0.32-0.096-0.608-0.245-0.876-0.439
	c-0.144-0.105-0.287-0.212-0.432-0.314c-0.095,0.14-0.199,0.273-0.318,0.384c0.061,0.153,0.117,0.309,0.173,0.464
	c0.017,0.046,0.034,0.092,0.051,0.138c0.012,0.026,0.024,0.051,0.035,0.076c0.111,0.232,0.219,0.466,0.326,0.698
	c0.132,0.288,0.272,0.575,0.376,0.874c0.094,0.274,0.176,0.552,0.255,0.83c0.071,0.253,0.121,0.512,0.176,0.769
	c0.065,0.293,0.113,0.59,0.121,0.891c0.003,0.135-0.016,0.265-0.019,0.399c0.109,0.232,0.218,0.463,0.328,0.693
	c0.107,0.227,0.216,0.443,0.359,0.646c0.108,0.131,0.222,0.25,0.354,0.361c0.065,0.055,0.133,0.107,0.201,0.16
	c0.361,0.274,0.75,0.524,1.162,0.717c0.079,0.029,0.157,0.053,0.238,0.071c0.109,0.004,0.219,0.003,0.328-0.003
	c0.07-0.017,0.138-0.038,0.207-0.063c0.296-0.135,0.584-0.289,0.851-0.473c0.082-0.076,0.156-0.158,0.23-0.242
	c0.126-0.18,0.237-0.367,0.331-0.565c0.116-0.327,0.217-0.659,0.276-1.002C24.364,23.436,24.383,23.139,24.36,22.846z
	 M27.125,16.875c0.009-0.141,0.006-0.281-0.007-0.422c-0.038-0.221-0.092-0.438-0.171-0.648c-0.089-0.195-0.186-0.383-0.306-0.559
	c-0.123-0.148-0.255-0.289-0.401-0.415c-0.248-0.167-0.521-0.303-0.791-0.434c-0.099-0.034-0.2-0.06-0.303-0.079
	c-0.576-0.053-1.155-0.013-1.727,0.058c-0.464,0.08-0.917,0.211-1.36,0.375c-0.23,0.105-0.454,0.217-0.678,0.335
	c-0.091,0.048-0.189,0.077-0.286,0.091c-0.024,0.024-0.048,0.047-0.073,0.071c-0.332,0.324-0.684,0.611-1.06,0.884
	c-0.166,0.119-0.34,0.228-0.512,0.338c0.095,0.073,0.19,0.145,0.284,0.218c0.094,0.069,0.189,0.132,0.291,0.187
	c0.611,0.208,1.223,0.412,1.849,0.572c0.556,0.142,1.103,0.297,1.669,0.39c0.551,0.043,1.101,0.002,1.65-0.063
	c0.184-0.026,0.37-0.057,0.547-0.112c0.174-0.053,0.344-0.117,0.514-0.182c0.255-0.121,0.492-0.266,0.723-0.428
	c0.046-0.04,0.091-0.081,0.134-0.124C27.116,16.911,27.121,16.893,27.125,16.875z"/>
</svg>