<?xml version="1.0" encoding="utf-8"?>
<!-- Generator: Adobe Illustrator 21.1.0, SVG Export Plug-In . SVG Version: 6.00 Build 0)  -->
<svg version="1.1" id="designs" xmlns="http://www.w3.org/2000/svg" xmlns:xlink="http://www.w3.org/1999/xlink" x="0px" y="0px"
	 width="32px" height="32px" viewBox="0 0 32 32" style="enable-background:new 0 0 32 32;" xml:space="preserve">
<style type="text/css">
	.sketchy_een{fill:#111918;}
</style>
<path class="sketchy_een" d="M22.912,11.316c-0.106-0.421-0.26-0.821-0.425-1.219c-0.177-0.423-0.356-0.848-0.579-1.248
	c-0.25-0.452-0.552-0.859-0.888-1.252c-0.3-0.348-0.659-0.65-0.994-0.961c-0.342-0.317-0.679-0.64-1.023-0.955
	c-0.319-0.296-0.625-0.6-0.906-0.933c-0.21-0.306-0.4-0.622-0.556-0.961c-0.242-0.633-0.389-1.3-0.535-1.958
	C16.92,1.44,16.537,1.19,16.155,1.19c-0.015,0-0.03,0.005-0.045,0.006c-0.032-0.026-0.053-0.059-0.091-0.081
	C15.887,1.038,15.733,1,15.578,1c-0.305,0-0.612,0.146-0.753,0.428c-0.419,0.83-0.729,1.703-0.998,2.591
	c-0.117,0.388-0.235,0.775-0.352,1.161c-0.058,0.19-0.115,0.381-0.163,0.573c-0.069,0.265-0.1,0.536-0.133,0.809
	c-0.09,0.763-0.135,1.536-0.165,2.303C13.004,9.108,13,9.352,13,9.595c-0.064-0.076-0.131-0.149-0.193-0.226
	c-0.156-0.212-0.3-0.432-0.448-0.65c-0.159-0.236-0.316-0.469-0.443-0.722c-0.039-0.112-0.068-0.226-0.089-0.342
	c-0.003-0.029-0.005-0.058-0.008-0.087c-0.019-0.233-0.081-0.433-0.25-0.604c-0.043-0.043-0.099-0.067-0.149-0.1
	c-0.006-0.011-0.007-0.026-0.013-0.037c-0.115-0.196-0.304-0.342-0.523-0.402c-0.076-0.021-0.153-0.032-0.231-0.032
	c-0.154,0-0.308,0.041-0.444,0.12c-0.208,0.121-0.321,0.302-0.4,0.521C9.658,7.456,9.516,7.879,9.377,8.304
	C9.312,8.5,9.249,8.694,9.193,8.894C9.12,9.159,9.078,9.424,9.043,9.697c-0.1,0.809-0.177,1.626-0.163,2.441
	c0.015,0.873,0.231,1.719,0.479,2.549c0.131,0.431,0.308,0.844,0.525,1.238c0.09,0.165,0.181,0.331,0.285,0.486
	c0.16,0.234,0.338,0.456,0.517,0.677c0.275,0.34,0.561,0.677,0.89,0.967c0.196,0.174,0.407,0.331,0.621,0.484
	c0.042,0.131,0.104,0.254,0.203,0.353c0.01,0.01,0.028,0.016,0.039,0.027c-0.001,0.003-0.004,0.005-0.005,0.008
	c-0.04,0.156-0.04,0.31,0,0.465c0.133,0.953,0.302,1.897,0.477,2.845c0.165,0.879,0.317,1.761,0.467,2.643
	c0.148,0.859,0.256,1.724,0.394,2.586c0.063,0.392,0.175,0.773,0.281,1.155c0.048,0.167,0.094,0.336,0.138,0.506
	c0.067,0.263,0.152,0.5,0.26,0.75c0.065,0.148,0.192,0.288,0.306,0.396c0.125,0.119,0.273,0.206,0.429,0.275
	c0.196,0.088,0.396,0.161,0.598,0.231c0.325,0.11,0.677,0.148,1.017,0.186c0.26,0.029,0.523,0.042,0.784,0.029
	c0.206-0.01,0.409-0.037,0.613-0.067c0.077-0.012,0.15-0.025,0.223-0.054c0.242-0.1,0.498-0.25,0.621-0.496
	c0.211-0.421,0.298-0.871,0.377-1.33c0.06-0.344,0.115-0.688,0.167-1.034c0.104-0.673,0.18-1.354,0.267-2.031
	c0.08-0.545,0.183-1.085,0.287-1.627c0.11-0.563,0.177-1.134,0.275-1.701c0.108-0.609,0.198-1.219,0.279-1.834
	c0.081-0.609,0.121-1.225,0.158-1.838c0.007-0.108-0.017-0.21-0.055-0.306c0.499-0.555,0.915-1.167,1.26-1.832
	c0.223-0.427,0.406-0.875,0.588-1.319c0.154-0.375,0.286-0.773,0.352-1.173c0.087-0.515,0.142-1.029,0.123-1.551
	C23.101,12.301,23.034,11.801,22.912,11.316z M18.765,22.275c-0.087,0.517-0.154,1.036-0.244,1.553
	c-0.087,0.496-0.188,0.988-0.265,1.486c-0.082,0.53-0.136,1.064-0.205,1.596c0.005-0.034,0.01-0.069,0.015-0.104
	c-0.018,0.13-0.035,0.259-0.053,0.389c-0.053,0.359-0.111,0.716-0.174,1.072c-0.058,0.326-0.114,0.67-0.209,0.995
	c-0.289,0.018-0.576,0.004-0.864-0.025c-0.263-0.045-0.517-0.114-0.768-0.208c-0.015-0.008-0.03-0.016-0.045-0.024
	c-0.095-0.288-0.159-0.585-0.245-0.875c-0.113-0.381-0.225-0.759-0.296-1.15c-0.071-0.406-0.123-0.813-0.188-1.219
	c-0.069-0.436-0.142-0.871-0.215-1.305c-0.293-1.725-0.605-3.449-0.843-5.181c0,0,0-0.001,0-0.002v0c0,0,0-0.001,0-0.001
	c0,0,0,0.001,0,0.001l0-0.003c-0.005-0.037-0.009-0.073-0.014-0.11c-0.005-0.034-0.015-0.061-0.021-0.094
	c0.211-0.015,0.422-0.036,0.634-0.048c0.573-0.033,1.148,0.002,1.719,0.031c0.519,0.027,1.04,0.046,1.559,0.079
	c0.366,0.024,0.728,0.014,1.09-0.01c-0.018,0.308-0.052,0.614-0.078,0.921c-0.327,0.027-0.65,0.078-0.974,0.127
	c-0.253,0.023-0.509,0.021-0.763,0.021c-0.071,0-0.142,0-0.213,0c-0.411,0.004-0.823-0.004-1.234-0.01
	c-0.475-0.006-0.873,0.402-0.873,0.873c0,0.481,0.398,0.871,0.873,0.875c0.517,0.004,1.032-0.006,1.548-0.021
	c0.077-0.002,0.154-0.002,0.231-0.002c0.129,0.002,0.26,0.002,0.388-0.013c0.261-0.03,0.521-0.076,0.78-0.117
	c0.009-0.001,0.018-0.001,0.028-0.002C18.817,21.938,18.794,22.107,18.765,22.275z M21.384,13.758
	c-0.091,0.484-0.237,0.938-0.421,1.394c-0.317,0.711-0.683,1.406-1.142,2.037c-0.055,0.066-0.113,0.129-0.17,0.193
	c-0.09-0.006-0.179-0.002-0.269,0.021c-0.447,0.042-0.891,0.048-1.34,0.026c-0.519-0.023-1.04-0.044-1.559-0.077
	c-0.545-0.037-1.087-0.058-1.632-0.058c-0.024,0-0.048,0-0.071,0c-0.451,0-0.903,0.034-1.352,0.072
	c-0.168-0.121-0.335-0.243-0.503-0.365c-0.443-0.366-0.813-0.793-1.17-1.241c-0.249-0.332-0.457-0.7-0.629-1.078
	c-0.246-0.635-0.424-1.311-0.531-1.983c-0.1-0.913-0.022-1.845,0.097-2.754c0.022-0.158,0.048-0.315,0.088-0.469
	c0.007-0.027,0.019-0.052,0.026-0.079c0.024,0.034,0.045,0.071,0.068,0.106c0.131,0.188,0.256,0.381,0.386,0.567
	c0.273,0.396,0.594,0.763,0.907,1.127c0.365,0.421,0.771,0.782,1.251,1.067c0.369,0.22,0.837,0.109,1.104-0.212
	c0.273-0.203,0.405-0.558,0.32-0.906c-0.05-0.205-0.101-0.407-0.137-0.614c-0.067-0.674-0.038-1.363-0.009-2.037
	c0.028-0.646,0.074-1.291,0.151-1.933c0.093-0.586,0.284-1.148,0.46-1.714c0.122-0.387,0.262-0.767,0.401-1.147
	c0.091,0.281,0.181,0.563,0.299,0.839c0.283,0.663,0.736,1.288,1.24,1.801c0.444,0.456,0.923,0.882,1.39,1.315
	c0.461,0.425,0.927,0.842,1.337,1.319c0.175,0.243,0.335,0.491,0.482,0.755c0.149,0.27,0.271,0.557,0.393,0.842
	c0.114,0.274,0.231,0.547,0.317,0.831c0.095,0.313,0.17,0.625,0.223,0.947c0.021,0.233,0.042,0.468,0.037,0.703
	C21.423,13.29,21.407,13.523,21.384,13.758z M20.015,10.929c0.148,0.45,0.198,0.936,0.204,1.409
	c0.004,0.504-0.058,0.998-0.156,1.492c-0.042,0.211-0.088,0.423-0.135,0.634c-0.067,0.3-0.171,0.579-0.375,0.815
	c-0.306,0.356-0.904,0.313-1.215,0c-0.295-0.295-0.337-0.798-0.08-1.127c0.046-0.156,0.074-0.318,0.109-0.476
	c0.049-0.219,0.084-0.441,0.116-0.662c0.044-0.391,0.042-0.793,0.003-1.186c-0.034-0.185-0.085-0.365-0.15-0.54
	c-0.152-0.323-0.34-0.633-0.526-0.936c-0.248-0.406-0.09-0.959,0.313-1.196c0.136-0.08,0.286-0.117,0.435-0.117
	c0.303,0,0.6,0.156,0.763,0.431c0.146,0.246,0.26,0.504,0.39,0.757C19.828,10.454,19.934,10.685,20.015,10.929z"/>
</svg>