<?xml version="1.0" encoding="utf-8"?>
<!-- Generator: Adobe Illustrator 21.1.0, SVG Export Plug-In . SVG Version: 6.00 Build 0)  -->
<svg version="1.1" id="designs" xmlns="http://www.w3.org/2000/svg" xmlns:xlink="http://www.w3.org/1999/xlink" x="0px" y="0px"
	 width="32px" height="32px" viewBox="0 0 32 32" style="enable-background:new 0 0 32 32;" xml:space="preserve">
<style type="text/css">
	.sketchy_een{fill:#111918;}
</style>
<path class="sketchy_een" d="M29.47,22.176c-0.083-0.884-0.116-1.771-0.167-2.657c0.156-0.154,0.255-0.366,0.255-0.595
	c0-0.475-0.38-0.811-0.836-0.836c-0.782-0.044-1.564-0.052-2.344-0.099c-0.128-0.008-0.256-0.005-0.384-0.011
	c-0.032-0.596-0.062-1.193-0.106-1.788c-0.062-0.817-0.11-1.63-0.133-2.447c-0.025-0.869-0.044-1.736-0.068-2.605
	c-0.021-0.796-0.081-1.589-0.077-2.387c0.006-1.257,0.048-2.512,0.071-3.769c0.007-0.389-0.289-0.706-0.655-0.789
	c-0.145-0.122-0.303-0.171-0.495-0.194c-0.375-0.042-0.745-0.087-1.124-0.094c-0.384-0.01-0.767-0.004-1.149-0.013
	c-0.852-0.025-1.705-0.052-2.555-0.112c-0.003,0-0.006,0-0.008,0c0.003-0.172,0-0.345,0.008-0.516
	c0.008-0.165-0.041-0.32-0.128-0.451c0-0.007,0-0.013,0-0.02C19.576,2.367,19.218,2,18.789,2c-0.002,0-0.004,0-0.007,0
	c-0.911,0.01-1.823,0.025-2.734,0.037c-0.734,0.008-1.468,0.05-2.203,0.033c-0.365-0.01-0.743-0.041-1.108,0
	c-0.226,0.025-0.444,0.054-0.647,0.168c-0.195,0.11-0.394,0.324-0.436,0.552c-0.027,0.151-0.041,0.295-0.044,0.444
	c-0.005,0.23,0.009,0.458,0.021,0.688c-0.062-0.005-0.125-0.019-0.188-0.019c-0.037,0-0.074,0.001-0.112,0.003
	c-0.191,0.013-0.38,0.027-0.57,0.035C10.331,3.96,9.903,3.968,9.474,3.966C8.466,3.962,7.458,3.964,6.45,3.981
	C6,3.989,5.626,4.35,5.626,4.805c0,0.125,0.036,0.243,0.09,0.352c0,0.015-0.009,0.029-0.008,0.044
	C5.756,6.086,5.75,6.973,5.734,7.857C5.719,8.685,5.713,9.516,5.7,10.344c-0.027,1.726,0.085,3.451,0.154,5.175
	c0.019,0.502,0.044,1.006,0.058,1.51c0.006,0.253,0.001,0.506,0,0.758c-0.826-0.003-1.651-0.035-2.476-0.035
	c-0.096,0-0.192,0-0.288,0.001c-0.475,0.004-0.871,0.392-0.871,0.871c0,0.031,0.015,0.059,0.018,0.089
	c-0.042,0.098-0.064,0.205-0.058,0.317c0.033,0.622,0.079,1.247,0.081,1.871c0,0.237-0.006,0.473-0.006,0.71
	c0.001,0.227,0.031,0.452,0.058,0.677c-0.191,0.153-0.322,0.378-0.322,0.632c0,0.45,0.371,0.817,0.819,0.819
	c0.521,0.004,1.045,0.002,1.568-0.002c1.234-0.01,2.466-0.017,3.698,0.073c0.263,0.02,0.525,0.032,0.788,0.047
	c-0.524,1.135-1.015,2.284-1.5,3.437c-0.186,0.429-0.396,0.852-0.544,1.292c-0.151,0.452,0.17,0.95,0.608,1.072
	c0.224,0.062,0.469,0.031,0.67-0.087c0.214-0.125,0.309-0.301,0.4-0.521c0.001-0.003,0.003-0.006,0.004-0.009
	c0.422-1.004,0.798-2.029,1.213-3.037c0.236-0.541,0.5-1.068,0.754-1.6c0.071-0.146,0.098-0.294,0.099-0.447
	c0.05,0.002,0.1,0.007,0.149,0.009c0.867,0.033,1.74-0.002,2.607-0.015c0.534-0.009,1.068-0.013,1.601-0.018
	c0.007,0.899,0.049,1.797,0.053,2.696c0.004,0.848,0.041,1.694,0.019,2.541c-0.012,0.452,0.386,0.83,0.83,0.83
	c0.452,0,0.834-0.378,0.832-0.83c-0.006-0.836-0.07-1.67-0.097-2.504c-0.028-0.917-0.035-1.833-0.033-2.75
	c0.581-0.005,1.162-0.008,1.742-0.019c0.846-0.015,1.693-0.019,2.541-0.025c0.022,0,0.045-0.002,0.067-0.002
	c0.004,0.014-0.002,0.031,0.004,0.044c0.239,0.585,0.498,1.157,0.77,1.726c0.214,0.452,0.415,0.909,0.653,1.352
	c0.245,0.46,0.521,0.906,0.786,1.356c0.133,0.228,0.274,0.45,0.404,0.68c0.093,0.168,0.166,0.349,0.274,0.508
	c0.127,0.189,0.284,0.33,0.51,0.392c0.22,0.062,0.46,0.031,0.657-0.085c0.404-0.237,0.539-0.765,0.307-1.168
	c-0.431-0.751-0.921-1.464-1.373-2.201c-0.458-0.749-0.841-1.543-1.194-2.347c-0.043-0.101-0.083-0.204-0.125-0.306
	c0.281-0.01,0.561-0.016,0.842-0.025c0.925-0.031,1.854-0.019,2.779-0.011c0.948,0.006,1.894,0.067,2.842,0.052
	c0.477-0.008,0.877-0.394,0.877-0.879C29.951,22.632,29.751,22.327,29.47,22.176z M13.686,3.649c0.095,0.001,0.19,0.002,0.285,0.002
	c0.07,0,0.139-0.001,0.21-0.002c0.436-0.008,0.873-0.042,1.311-0.062c0.711-0.031,1.423-0.021,2.136-0.011
	c0.124,0.001,0.247,0.003,0.371,0.004c-0.019,0.54,0.005,1.083,0.013,1.622c0.005,0.4,0.002,0.805-0.02,1.208
	c-0.656,0.02-1.313,0.013-1.968-0.003c-0.537-0.013-1.076-0.033-1.614-0.048c-0.349-0.01-0.697-0.02-1.045-0.044
	c0.004-0.046,0.008-0.092,0.01-0.137c0.021-0.344,0.044-0.686,0.056-1.029c0.008-0.326,0.004-0.651-0.029-0.975
	c-0.017-0.178-0.044-0.352-0.074-0.526C13.446,3.646,13.566,3.647,13.686,3.649z M10.76,5.506c0.189-0.006,0.378-0.006,0.57-0.006
	c0.085,0.001,0.17,0.009,0.255,0.015c-0.001,0.009-0.001,0.018-0.001,0.027c-0.031,0.394-0.06,0.788-0.102,1.182
	c-0.039,0.357,0.023,0.707,0.29,0.973c0.34,0.34,0.848,0.357,1.298,0.371c0.836,0.027,1.672,0.021,2.508,0.037
	c0.4,0.008,0.801,0.01,1.201,0.01c0.394,0,0.788,0.01,1.182-0.002c0.139-0.006,0.28-0.011,0.419-0.025
	c0.241-0.023,0.504-0.025,0.714-0.156c0.197-0.122,0.407-0.33,0.45-0.57c0.031-0.174,0.05-0.348,0.052-0.525
	c0.004-0.21,0.01-0.423,0.021-0.635c0.017-0.287,0.026-0.575,0.039-0.862c0.017,0.002,0.031,0.01,0.048,0.011
	c0.575,0.035,1.155,0.031,1.734,0.029c0.193,0,0.386-0.002,0.579-0.002c0.336,0,0.672,0.002,1.01,0.004
	c0.306,0.003,0.607,0.036,0.91,0.075c0.032,0.004,0.063,0.008,0.095,0.012c-0.004,0.782-0.003,1.564,0.006,2.346
	c0.01,0.811,0.006,1.622,0.029,2.433c0.05,1.645,0.031,3.294,0.122,4.937c0.049,0.914,0.1,1.827,0.133,2.742
	c-0.186-0.002-0.372-0.018-0.558-0.017c-1.626,0.004-3.25,0.025-4.876,0.029c-1.693,0.004-3.389-0.013-5.082-0.013
	c-0.846,0-1.692,0.025-2.537,0.019c-0.861-0.004-1.724-0.015-2.586-0.041c-0.343-0.01-0.685-0.031-1.026-0.053
	c-0.023-0.585-0.041-1.171-0.081-1.755c-0.062-0.861-0.114-1.724-0.168-2.585C7.298,11.794,7.27,10.08,7.271,8.359
	c0-0.917,0.03-1.834,0.01-2.752c0.731-0.022,1.462-0.046,2.193-0.06C9.903,5.537,10.331,5.518,10.76,5.506z M24.266,22.131
	c-0.844,0.027-1.69,0.066-2.535,0.077c-0.848,0.013-1.697,0.008-2.545,0.008c-1.672,0.002-3.344,0.019-5.017,0.066
	c-0.825,0.021-1.651,0.054-2.475,0.06c-0.877,0.008-1.748-0.042-2.624-0.083c-0.516-0.023-1.031-0.052-1.549-0.079
	c-0.479-0.027-0.958-0.029-1.437-0.029c-0.695-0.002-1.388-0.018-2.082-0.031c-0.017-0.153-0.038-0.306-0.045-0.459
	c-0.01-0.236-0.012-0.471-0.027-0.707c-0.021-0.286-0.012-0.575-0.013-0.863c-0.002-0.201-0.01-0.401-0.015-0.602
	c0.623-0.005,1.245-0.01,1.87-0.011c0.84-0.002,1.676,0.056,2.516,0.083c1.686,0.052,3.373-0.01,5.059-0.01
	c1.699,0,3.4,0.017,5.1,0.025c0.848,0.004,1.695,0.013,2.543,0.008c0.803-0.006,1.605-0.02,2.408-0.02c0.164,0.002,0.328,0,0.492,0
	c0.767,0,1.533-0.002,2.302,0.052c0.421,0.031,0.84,0.058,1.261,0.077c0.069,0.004,0.138,0.007,0.208,0.011
	c0.03,0.365,0.063,0.729,0.086,1.095c0.028,0.436,0.034,0.872,0.053,1.308c-0.374-0.004-0.745-0.018-1.119-0.011
	C25.877,22.108,25.072,22.106,24.266,22.131z M8.499,29.183c0.02-0.047,0.04-0.095,0.06-0.142c0.01-0.022,0.019-0.044,0.029-0.066
	C8.559,29.044,8.528,29.114,8.499,29.183z"/>
</svg>