<?xml version="1.0" encoding="utf-8"?>
<!-- Generator: Adobe Illustrator 21.1.0, SVG Export Plug-In . SVG Version: 6.00 Build 0)  -->
<svg version="1.1" id="designs" xmlns="http://www.w3.org/2000/svg" xmlns:xlink="http://www.w3.org/1999/xlink" x="0px" y="0px"
	 width="32px" height="32px" viewBox="0 0 32 32" style="enable-background:new 0 0 32 32;" xml:space="preserve">
<style type="text/css">
	.sketchy_een{fill:#111918;}
</style>
<path class="sketchy_een" d="M28.278,23.126c-0.037-1.66-0.011-3.322-0.027-4.982c-0.011-1.106-0.048-2.213-0.039-3.317
	c0.011-1.183,0.044-2.367,0.071-3.55c0.005-0.229-0.097-0.436-0.255-0.586c0.02-0.068,0.043-0.136,0.043-0.205
	c0-0.433-0.357-0.775-0.784-0.784c-0.588-0.009-1.178-0.009-1.766-0.007c-0.588,0-1.176,0.002-1.764-0.009
	c-0.997-0.016-1.992-0.031-2.988-0.031c-0.243,0-0.486,0.002-0.729,0.004c-0.015-0.56-0.031-1.12-0.046-1.681
	c-0.034-1.386-0.019-2.773-0.016-4.159c0-0.447-0.373-0.818-0.82-0.818c-0.166,0-0.314,0.064-0.445,0.153
	c-0.599,0.016-1.2,0.033-1.796,0.081c-0.782,0.064-1.563,0.102-2.347,0.131c-0.782,0.028-1.563,0.087-2.346,0.117
	c-0.837,0.032-1.674,0.044-2.512,0.055C9.044,3.543,8.374,3.543,7.705,3.548c-0.781,0.007-1.561,0.019-2.344,0
	C5.152,3.543,4.963,3.632,4.819,3.77c-0.13-0.082-0.274-0.141-0.43-0.141c-0.459,0-0.814,0.376-0.827,0.827
	C3.513,6.2,3.51,7.943,3.496,9.688c-0.012,1.618,0.042,3.239,0.055,4.857c0.012,1.614,0.023,3.229,0.014,4.843
	c-0.007,1.616-0.027,3.232-0.007,4.848c0.016,1.282,0.03,2.566-0.021,3.847c-0.015,0.334,0.211,0.624,0.507,0.746
	c0.135,0.105,0.293,0.179,0.472,0.17c0.864-0.044,1.727-0.118,2.591-0.171c0.798-0.049,1.595-0.051,2.393-0.06
	c0.827-0.007,1.651-0.014,2.478-0.023c0.841-0.009,1.678-0.039,2.519-0.083c0.827-0.044,1.655-0.079,2.481-0.094
	c0.638-0.011,1.275,0.017,1.913,0.04c0.093,0.083,0.201,0.151,0.328,0.186c0.274,0.076,0.538-0.004,0.743-0.165
	c0.912,0.014,1.825,0.019,2.737,0.016c0.482,0,0.966-0.002,1.448-0.002c0.148,0.002,0.297,0.002,0.445,0.002
	c0.408,0,0.818,0,1.226,0.009c0.555,0.012,1.109,0.046,1.66-0.027c0.057-0.007,0.113-0.015,0.17-0.023
	c0.019,0.001,0.034,0.011,0.053,0.011c0.442,0,0.802-0.367,0.805-0.805C28.518,26.245,28.311,24.689,28.278,23.126z M22.218,15.195
	c0.005,0.421,0.01,0.841,0.015,1.262c0.002,0.268-0.002,0.535-0.009,0.802c-0.005,0.224-0.002,0.45-0.015,0.674
	c-0.159-0.001-0.318-0.006-0.474-0.012c-0.476-0.014-0.951-0.039-1.426-0.061c-0.034-0.858-0.075-1.716-0.114-2.574
	C20.868,15.245,21.542,15.198,22.218,15.195z M21.98,25.075c-0.002,0.457,0.004,0.917,0.004,1.374
	c-0.001,0.177-0.008,0.356-0.012,0.535c-0.53-0.002-1.06-0.015-1.59-0.022c0.002-0.049,0.005-0.097,0.007-0.146
	c0.019-0.412,0.023-0.825,0.019-1.236c-0.004-0.811-0.002-1.623-0.004-2.434c0-0.156-0.003-0.312-0.004-0.468
	c0.349-0.007,0.698-0.018,1.048-0.017c0.182,0,0.365,0.009,0.547,0.017C21.977,23.476,21.983,24.275,21.98,25.075z M10.089,27.176
	c-0.007-0.29-0.005-0.581-0.005-0.87c0.002-0.449,0.002-0.895,0-1.342c-0.003-0.81,0.009-1.618,0.016-2.427
	c0.531-0.019,1.062-0.039,1.594-0.048c0.317-0.005,0.634-0.001,0.949,0.002c-0.023,0.71-0.043,1.422-0.032,2.132
	c0.005,0.424,0.007,0.85,0.025,1.273c0.016,0.39,0.044,0.779,0.057,1.171c0.001,0.022,0.011,0.042,0.014,0.064
	C11.835,27.152,10.962,27.164,10.089,27.176z M17.373,26.92c-1.045,0-2.09,0.083-3.135,0.146c-0.081-0.812-0.076-1.629-0.104-2.443
	c-0.029-0.845,0.026-1.687,0.075-2.53c0.057-0.105,0.099-0.219,0.099-0.346c0-0.374-0.319-0.748-0.708-0.748
	c-0.013,0-0.026,0-0.039,0.001c-0.816,0.053-1.634,0.042-2.452,0.032c-0.53-0.007-1.061-0.012-1.591-0.004
	c-0.223,0.005-0.421,0.107-0.562,0.262c-0.261,0.132-0.449,0.397-0.448,0.706c0.007,0.996,0.037,1.992,0.051,2.988
	c0.007,0.487,0.005,0.973,0.007,1.461c0.002,0.226,0.004,0.454,0.002,0.682c0,0.027,0,0.056,0,0.084
	c-0.158,0.005-0.317,0.004-0.475,0.011c-0.978,0.042-1.955,0.091-2.932,0.136c0.023-1.309-0.009-2.618-0.019-3.927
	c-0.014-1.634-0.014-3.266-0.028-4.899c-0.016-1.62-0.004-3.239,0.012-4.859c0.014-1.606-0.011-3.211-0.011-4.816
	c0-1.25,0.039-2.498,0.082-3.748c0.055,0.012,0.106,0.034,0.164,0.035c0.86,0.012,1.719-0.025,2.577-0.049
	c0.842-0.023,1.685-0.039,2.527-0.049c0.828-0.011,1.655-0.026,2.482-0.069c0.782-0.039,1.563-0.072,2.346-0.099
	c0.634-0.019,1.266-0.072,1.899-0.111c0.387-0.023,0.773-0.029,1.159-0.031c0.007,1.47,0.019,2.941,0.048,4.41
	c0.032,1.671,0.042,3.343,0.108,5.013c0.064,1.683,0.157,3.363,0.194,5.046c0.035,1.681,0.019,3.366,0.018,5.048
	c-0.002,0.613,0.002,1.228-0.012,1.839c-0.007,0.282-0.028,0.565-0.04,0.849c-0.258-0.006-0.517-0.003-0.775-0.011
	C17.718,26.922,17.545,26.92,17.373,26.92z M26.322,26.996c-0.392,0-0.786-0.004-1.18-0.004c-0.551-0.001-1.102,0-1.653,0.001
	c-0.017-0.64-0.009-1.28-0.011-1.919c0-0.975,0.058-1.948,0.111-2.921c0.019-0.349-0.241-0.641-0.56-0.744
	c-0.009-0.011-0.013-0.025-0.023-0.035c-0.159-0.157-0.332-0.2-0.546-0.224c-0.091-0.011-0.182-0.015-0.275-0.015
	c-0.236,0-0.475,0.027-0.707,0.034c-0.363,0.01-0.727-0.007-1.09-0.015c-0.008-0.607-0.022-1.214-0.038-1.821
	c0.234,0.003,0.468,0.005,0.702,0.009c0.29,0.004,0.579,0.018,0.869,0.011c0.24-0.007,0.479-0.026,0.719-0.03
	c0.185-0.002,0.376-0.016,0.553-0.072c0.3-0.095,0.518-0.355,0.518-0.678c0-0.136-0.052-0.263-0.126-0.377
	c0.004-0.016,0.02-0.03,0.022-0.046c0.081-0.542,0.049-1.095,0.058-1.641c0.011-0.622,0.027-1.242,0.034-1.862
	c0.002-0.105-0.022-0.205-0.063-0.296c-0.064-0.343-0.352-0.58-0.705-0.601c-0.063-0.004-0.126-0.005-0.189-0.005
	c-0.17,0-0.34,0.011-0.507,0.016c-0.256,0.005-0.512,0.014-0.768,0.019c-0.443,0.01-0.885,0.023-1.328,0.037
	c-0.009-0.252-0.022-0.504-0.029-0.755c-0.015-0.622-0.025-1.243-0.035-1.864c0.631-0.011,1.263-0.024,1.892-0.033
	c0.597-0.009,1.192,0.004,1.789,0.011c0.967,0.013,1.934,0.017,2.899,0.065c-0.001,0.012-0.007,0.023-0.007,0.035
	c-0.03,1.777-0.021,3.554,0.007,5.329c0.026,1.651,0.014,3.303,0.023,4.952c0.005,1.079,0.021,2.158,0.087,3.236
	c0.03,0.51,0.071,1.023,0.094,1.533c0.01,0.214,0.012,0.428,0.016,0.642C26.69,26.977,26.508,26.996,26.322,26.996z M14.262,15.018
	c0.003-0.33-0.214-0.613-0.507-0.727c-0.137-0.15-0.328-0.249-0.541-0.244c-0.244,0.007-0.486,0.025-0.729,0.028
	c-0.286,0.004-0.572-0.005-0.86-0.016c-0.611-0.019-1.22-0.041-1.832-0.055c-0.005,0-0.01,0-0.015,0
	c-0.136,0-0.258,0.048-0.37,0.115c-0.41,0.02-0.748,0.362-0.746,0.777c0,0.703,0.012,1.408,0.025,2.111
	c0.007,0.295,0.007,0.59,0.009,0.885c0.002,0.274-0.012,0.547-0.002,0.82c0.009,0.227,0.115,0.426,0.274,0.565
	c0.138,0.197,0.353,0.339,0.605,0.329c0.606-0.023,1.21-0.062,1.814-0.092c0.537-0.028,1.072-0.026,1.607-0.021
	c0.214,0.002,0.405-0.097,0.541-0.246c0.013,0.001,0.024,0.008,0.038,0.008c0.412,0,0.802-0.355,0.782-0.781
	c-0.026-0.539-0.074-1.076-0.09-1.614C14.248,16.245,14.257,15.632,14.262,15.018z M10.194,18.074
	c-0.009-0.832,0.002-1.664,0.019-2.496c0.832,0.007,1.664-0.001,2.496-0.027c0.012,0.418,0.025,0.836,0.042,1.253
	c0.017,0.403,0.022,0.805,0.029,1.208C11.919,18.031,11.057,18.052,10.194,18.074z M8.726,11.426
	c0.014,0.315,0.201,0.586,0.48,0.697c0.123,0.252,0.373,0.448,0.663,0.428c1.118-0.081,2.247-0.192,3.368-0.166
	c0.254,0.006,0.471-0.141,0.603-0.343c0.041-0.027,0.086-0.046,0.121-0.081c0.125-0.127,0.244-0.348,0.221-0.533
	c-0.018-0.14-0.038-0.28-0.058-0.42c-0.05-0.468-0.036-0.94-0.027-1.409c0.011-0.608,0.021-1.213,0.026-1.819
	c0.004-0.434-0.366-0.797-0.797-0.797c-0.174,0-0.328,0.07-0.46,0.167c-0.03-0.005-0.057-0.021-0.089-0.021
	c-0.012,0-0.024,0-0.037,0.001c-0.502,0.034-1.003,0.046-1.505,0.06c-0.5,0.015-0.997,0.048-1.495,0.089
	C9.673,7.259,9.605,7.237,9.533,7.237c-0.205,0-0.404,0.081-0.549,0.226C8.9,7.547,8.85,7.637,8.816,7.734
	c-0.008,0.02-0.007,0.042-0.014,0.063C8.784,7.866,8.765,7.934,8.756,8.012C8.689,8.604,8.67,9.194,8.671,9.789
	c0,0.288,0.014,0.574,0.028,0.862C8.714,10.909,8.714,11.167,8.726,11.426z M12.542,8.521c0.005,0.446,0.007,0.891,0.02,1.338
	c0.012,0.366,0.034,0.729,0.065,1.091c-0.322,0.016-0.643,0.038-0.966,0.044c-0.485,0.009-0.968,0.03-1.451,0.054
	c-0.026-0.419-0.056-0.837-0.052-1.26c0.004-0.374,0.036-0.749,0.076-1.122c0.334-0.029,0.668-0.061,1.002-0.084
	C11.671,8.554,12.106,8.528,12.542,8.521z"/>
</svg>