<?xml version="1.0" encoding="utf-8"?>
<!-- Generator: Adobe Illustrator 21.1.0, SVG Export Plug-In . SVG Version: 6.00 Build 0)  -->
<svg version="1.1" id="designs" xmlns="http://www.w3.org/2000/svg" xmlns:xlink="http://www.w3.org/1999/xlink" x="0px" y="0px"
	 width="32px" height="32px" viewBox="0 0 32 32" style="enable-background:new 0 0 32 32;" xml:space="preserve">
<style type="text/css">
	.sketchy_een{fill:#111918;}
</style>
<path class="sketchy_een" d="M30.894,11.107c-0.139-0.277-0.267-0.561-0.393-0.845l-0.748-1.646
	c-0.412-0.897-0.937-1.753-1.439-2.552c-0.049-0.077-0.114-0.147-0.217-0.236c-0.086-0.171-0.191-0.292-0.322-0.368
	c-0.128-0.076-0.268-0.112-0.424-0.112c-0.081,0-0.166,0.01-0.25,0.026c-1.002,0.193-2.004,0.376-3.011,0.55
	c-0.53,0.091-1.06,0.189-1.588,0.299c-0.235,0.049-0.467,0.104-0.701,0.159c-0.213,0.05-0.424,0.1-0.637,0.146l-0.966,0.205
	c-0.652,0.137-1.302,0.273-1.95,0.428c-0.976,0.235-1.933,0.509-2.909,0.793c-0.92,0.267-1.834,0.556-2.743,0.859
	c-0.486,0.161-0.967,0.327-1.445,0.504C10.698,9.486,10.258,9.693,9.821,9.9L9.679,9.967c-0.457,0.219-0.914,0.439-1.353,0.694
	c-0.374,0.214-0.749,0.466-1.216,0.816c-0.398,0.3-0.854,0.667-1.211,1.103c-0.277,0.34-0.522,0.65-0.714,1.014
	c-0.119,0.227-0.235,0.457-0.345,0.69c-0.186,0.391-0.418,0.908-0.569,1.443c-0.127,0.454-0.215,0.936-0.286,1.563
	c-0.047,0.418-0.043,0.869,0.012,1.422c0.05,0.49,0.118,1.069,0.248,1.645c0.059,0.261,0.125,0.528,0.223,0.779
	c0.055,0.145,0.119,0.283,0.19,0.416L4.626,21.63l-0.032,0.026c-0.044,0.035-0.085,0.069-0.111,0.114l-0.298,0.54
	c-0.263,0.48-0.534,0.977-0.853,1.442c-0.263,0.318-0.506,0.57-0.749,0.773c-0.087,0.058-0.175,0.107-0.273,0.155
	c-0.085,0.03-0.172,0.057-0.26,0.084c-0.216,0.068-0.44,0.137-0.632,0.254c-0.399,0.247-0.536,0.768-0.304,1.162
	c0.11,0.19,0.294,0.332,0.506,0.391c0.073,0.02,0.155,0.031,0.238,0.031c0.165,0,0.31-0.04,0.411-0.114
	c0.068-0.049,0.135-0.087,0.211-0.124c0.164-0.067,0.326-0.135,0.487-0.206c0.259-0.115,0.519-0.296,0.773-0.537
	c0.285-0.271,0.562-0.59,0.873-1.007c0.183-0.245,0.336-0.517,0.486-0.786l0.522-0.938h0.092l0.048,0.046
	c0.043,0.042,0.085,0.084,0.134,0.122c0.142,0.11,0.282,0.218,0.428,0.322c0.161,0.114,0.349,0.198,0.516,0.272l0.129,0.058
	c0.446,0.2,0.908,0.408,1.388,0.53c0.466,0.121,0.975,0.199,1.555,0.24l0.263,0.015c0.078,0,0.152-0.022,0.296-0.033l0.267,0.314
	c0.383,0.436,0.744,0.748,1.135,0.983c0.46,0.274,0.995,0.47,1.425,0.629c0.198,0.073,0.403,0.131,0.662,0.172
	c0.272,0.046,0.554,0.093,0.832,0.093h0.031c0.51-0.004,1.038-0.06,1.617-0.171c0.462-0.089,0.931-0.256,1.521-0.54
	c0.479-0.231,0.953-0.564,1.368-0.962c0.404-0.388,0.745-0.833,1.055-1.255c0.264-0.359,0.603-0.922,0.716-1.564
	c0.095-0.56,0.127-1.081,0.098-1.594c-0.012-0.18-0.028-0.359-0.046-0.539l-0.011-0.103l0.033-0.015
	c0.709-0.313,1.261-0.604,1.739-0.916c0.641-0.418,1.151-0.772,1.603-1.116c0.701-0.544,1.385-1.134,2.045-1.704
	c0.34-0.293,0.679-0.585,1.022-0.873c0.324-0.274,0.654-0.541,0.982-0.808l0.461-0.376c0.5-0.413,0.977-0.875,1.398-1.283
	c0.153-0.148,0.238-0.354,0.258-0.618C31.005,11.953,31.094,11.498,30.894,11.107z M19.349,21.467
	c-0.034,0.206-0.077,0.405-0.146,0.607c-0.153,0.308-0.34,0.614-0.576,0.938c-0.313,0.382-0.576,0.659-0.859,0.9
	c-0.315,0.223-0.642,0.412-1.006,0.579c-0.32,0.118-0.655,0.204-1.029,0.265c-0.21,0.019-0.419,0.03-0.629,0.03
	c-0.135,0-0.271-0.004-0.411-0.014c-0.312-0.057-0.619-0.146-0.941-0.27c-0.417-0.187-0.745-0.364-1.038-0.562
	c-0.225-0.196-0.434-0.41-0.671-0.655l-0.076-0.079c-0.18-0.188-0.36-0.376-0.565-0.63c-0.559-0.696-0.397-1.327-0.312-2.186
	c0.078-0.448,0.202-0.892,0.381-1.361c0.167-0.367,0.372-0.726,0.613-1.073c0.204-0.239,0.423-0.457,0.675-0.668
	c0.274-0.186,0.573-0.321,0.909-0.466c0.438-0.173,0.877-0.301,1.31-0.381c0.141-0.011,0.281-0.019,0.421-0.019
	c0.066,0,0.133,0.002,0.205,0.006c0.379,0.068,0.755,0.173,1.123,0.315c0.4,0.194,0.75,0.398,1.07,0.629
	c0.259,0.217,0.511,0.475,0.792,0.816c0.223,0.298,0.379,0.54,0.51,0.792c0.081,0.226,0.145,0.475,0.2,0.788
	c0.031,0.291,0.057,0.584,0.076,0.877C19.389,20.921,19.377,21.19,19.349,21.467z M27.799,12.958
	c-0.167,0.144-0.34,0.28-0.513,0.417l-0.238,0.189c-0.18,0.146-0.356,0.298-0.53,0.449l-0.204,0.176
	c-0.35,0.301-0.695,0.608-1.039,0.915c-0.598,0.533-1.215,1.083-1.853,1.59c-0.452,0.338-0.914,0.653-1.393,0.958
	c-0.389,0.248-0.798,0.444-1.248,0.594c-0.114-0.265-0.247-0.51-0.396-0.729c-0.337-0.496-0.674-0.911-1.031-1.271
	c-0.155-0.154-0.332-0.288-0.508-0.42l-0.158-0.12c-0.193-0.147-0.403-0.266-0.617-0.381c-0.503-0.268-0.982-0.461-1.467-0.59
	c-0.297-0.08-0.633-0.133-1.025-0.163l-0.109-0.004c-0.118,0-0.236,0.013-0.389,0.03c-0.185,0.018-0.376,0.044-0.559,0.083
	c-0.806,0.176-1.573,0.548-2.29,0.914c-0.249,0.127-0.471,0.31-0.74,0.533c-0.155,0.127-0.298,0.272-0.431,0.419
	c-0.271,0.301-0.529,0.661-0.789,1.099c-0.406,0.686-0.694,1.498-0.834,2.348c-0.125,0.749-0.103,1.529-0.082,2.284L9.3,22.436
	c-0.37-0.079-0.653-0.159-0.918-0.259l-0.528-0.241c-0.245-0.112-0.472-0.244-0.698-0.404C6.987,21.383,6.841,21.217,6.7,21.04
	c-0.13-0.178-0.252-0.36-0.355-0.563c-0.186-0.514-0.286-1.068-0.366-1.591c-0.042-0.341-0.077-0.681-0.099-1.023
	c-0.022-0.365,0.014-0.735,0.053-1.085c0.102-0.583,0.251-1.121,0.455-1.648c0.074-0.167,0.148-0.332,0.228-0.496
	c0.109-0.224,0.221-0.445,0.356-0.655c0.046-0.074,0.096-0.145,0.151-0.217c0.318-0.373,0.688-0.726,1.169-1.112
	c0.435-0.307,0.918-0.598,1.477-0.889c0.419-0.22,0.853-0.416,1.286-0.612l0.292-0.132c0.822-0.334,1.654-0.607,2.579-0.903
	c0.943-0.306,1.894-0.583,2.847-0.851c0.745-0.209,1.496-0.383,2.247-0.558l1.018-0.239c0.812-0.192,1.624-0.384,2.439-0.556
	c0.989-0.209,2.003-0.366,2.985-0.518c0.491-0.076,0.983-0.152,1.473-0.234l0.032-0.005l0.115,0.179
	c0.159,0.245,0.317,0.492,0.469,0.741l0.072,0.118c0.193,0.318,0.388,0.638,0.546,0.974c0.106,0.226,1.137,2.429,1.053,2.508
	C28.755,12.112,28.286,12.541,27.799,12.958z M15.992,20.41c0,0.447-0.377,0.824-0.824,0.824c-0.447,0-0.824-0.377-0.824-0.824
	c0-0.447,0.377-0.824,0.824-0.824C15.615,19.586,15.992,19.963,15.992,20.41z"/>
</svg>