<?xml version="1.0" encoding="utf-8"?>
<!-- Generator: Adobe Illustrator 21.1.0, SVG Export Plug-In . SVG Version: 6.00 Build 0)  -->
<svg version="1.1" id="designs" xmlns="http://www.w3.org/2000/svg" xmlns:xlink="http://www.w3.org/1999/xlink" x="0px" y="0px"
	 width="32px" height="32px" viewBox="0 0 32 32" style="enable-background:new 0 0 32 32;" xml:space="preserve">
<style type="text/css">
	.sketchy_een{fill:#111918;}
</style>
<path class="sketchy_een" d="M30.304,12.532c-0.16-0.044-0.343-0.041-0.515,0.006c-0.095-0.006-0.19-0.013-0.286-0.02
	c-0.316-0.02-0.629-0.006-0.943,0c-0.509,0.01-1.016,0.011-1.525,0.013c-0.088-0.361-0.172-0.723-0.246-1.087
	c-0.109-0.533-0.239-1.059-0.354-1.592c-0.105-0.496-0.173-1.001-0.257-1.501c-0.09-0.541-0.204-1.078-0.299-1.617
	c-0.042-0.37-0.071-0.742-0.107-1.113c-0.042-0.43-0.099-0.86-0.149-1.289c-0.028-0.239-0.076-0.434-0.251-0.609
	c-0.161-0.161-0.382-0.253-0.611-0.253c-0.017,0-0.033,0.009-0.05,0.01c-0.107-0.049-0.224-0.08-0.348-0.08
	c-0.402,0.002-0.804-0.014-1.206-0.016c-0.002,0-0.005,0-0.007,0c-0.16,0-0.302,0.057-0.432,0.135
	c-0.128,0.012-0.254,0.045-0.366,0.11c-0.175,0.103-0.374,0.314-0.404,0.525c-0.2,1.43-0.407,2.857-0.599,4.286
	c-0.098,0.723-0.192,1.447-0.268,2.174c-0.069,0.641-0.154,1.281-0.225,1.924c-0.024,0-0.048,0-0.072,0
	c-0.244,0-0.487-0.012-0.731-0.016c-0.075-0.463-0.146-0.927-0.209-1.392c-0.273-2.206-0.407-4.426-0.646-6.633
	c-0.026-0.241-0.078-0.442-0.255-0.619c-0.158-0.158-0.375-0.247-0.598-0.253c-0.143-0.098-0.305-0.168-0.488-0.171
	c-0.519-0.008-1.037-0.012-1.556-0.012c-0.044,0-0.082,0.02-0.124,0.026c-0.129-0.072-0.267-0.124-0.412-0.124
	c-0.486,0-0.832,0.39-0.858,0.858c-0.042,0.754-0.076,1.51-0.139,2.263c-0.056,0.702-0.137,1.399-0.215,2.099
	c-0.078,0.71-0.155,1.419-0.201,2.131c-0.037,0.577-0.046,1.158-0.045,1.737c-0.497,0.006-0.995,0.011-1.492,0.015
	c0.001-0.073,0.007-0.145-0.01-0.219c-0.083-0.361-0.171-0.72-0.227-1.085c-0.056-0.428-0.114-0.855-0.171-1.282
	c-0.1-0.861-0.152-1.726-0.243-2.586c-0.039-0.376-0.076-0.752-0.114-1.128c0.002-0.07-0.005-0.141-0.021-0.21
	c-0.037-0.359-0.082-0.717-0.125-1.075c0.142-0.153,0.226-0.353,0.226-0.562c0-0.454-0.378-0.822-0.828-0.826
	c-0.018,0-0.037,0-0.056,0c-0.364,0-0.735,0.054-1.096,0.085c-0.363,0.03-0.726,0.066-1.088,0.101
	C9.007,3.648,8.952,3.625,8.894,3.625c-0.229,0-0.452,0.092-0.615,0.255C8.104,4.053,8.044,4.259,8.023,4.496
	C7.903,5.921,7.788,7.344,7.712,8.771c-0.068,1.235-0.19,2.467-0.234,3.703c-0.482,0.012-0.964,0.026-1.446,0.039
	c-1.387,0.038-2.778-0.014-4.163-0.072C1.394,12.421,1,12.851,1,13.31c0,0.165,0.058,0.308,0.137,0.437
	c-0.026,0.133-0.03,0.269,0.014,0.387c0.344,0.901,0.704,1.795,1.039,2.698c0.318,0.852,0.597,1.717,0.884,2.579
	c0.145,0.434,0.283,0.872,0.434,1.305c0.151,0.43,0.322,0.854,0.49,1.276c0.344,0.87,0.722,1.727,1.087,2.587
	c0.303,0.709,0.623,1.412,0.926,2.124c-0.018-0.041-0.035-0.083-0.051-0.124c0.044,0.105,0.088,0.209,0.133,0.316
	c-0.03-0.07-0.06-0.141-0.09-0.211c0.209,0.506,0.394,1.025,0.617,1.528c0.088,0.203,0.334,0.358,0.539,0.414
	c0.233,0.064,0.486,0.032,0.695-0.09c0.012-0.007,0.018-0.019,0.03-0.027c1.837-0.015,3.674-0.008,5.51,0.002
	c1.5,0.006,2.999,0.014,4.499,0.008c1.54-0.006,3.08-0.034,4.619-0.034c0.716,0,1.431,0.002,2.147,0.002c0.36,0,0.72-0.004,1.079,0
	c0.361,0.002,0.722,0.012,1.083-0.01c0.041,0.019,0.076,0.05,0.12,0.062c0.46,0.127,0.923-0.151,1.057-0.599
	c0.084-0.279,0.133-0.573,0.205-0.854c0.096-0.388,0.151-0.782,0.215-1.176c0.139-0.842,0.31-1.68,0.466-2.519
	c0.157-0.83,0.332-1.656,0.472-2.489c0.153-0.907,0.36-1.803,0.533-2.706c0.205-1.081,0.45-2.157,0.625-3.244
	c0.039-0.235,0.035-0.441-0.081-0.653c0.249-0.113,0.453-0.319,0.531-0.598C31.104,13.201,30.802,12.671,30.304,12.532z
	 M22.741,10.887c0.064-0.607,0.126-1.214,0.204-1.821c0.183-1.313,0.414-2.617,0.616-3.927c0.152-0.003,0.303-0.006,0.455-0.011
	c0.029,0.197,0.055,0.393,0.084,0.59c0.08,0.636,0.143,1.274,0.269,1.902c0.135,0.677,0.241,1.357,0.36,2.036
	c0.107,0.623,0.267,1.23,0.414,1.845c0.083,0.346,0.161,0.692,0.24,1.038c-0.883,0.006-1.765,0.008-2.647,0.003
	c-0.044,0-0.087,0-0.131,0C22.633,11.99,22.682,11.44,22.741,10.887z M15.999,12.435c-0.008-0.204-0.019-0.408-0.017-0.613
	c0.004-0.368,0.018-0.736,0.034-1.102c0.03-0.702,0.105-1.401,0.171-2.099c0.105-1.12,0.235-2.238,0.341-3.359
	c0.338-0.006,0.676-0.016,1.013-0.027c0.139,1.126,0.282,2.252,0.374,3.384c0.105,1.294,0.29,2.58,0.469,3.866
	C17.589,12.461,16.794,12.446,15.999,12.435z M9.374,8.771c0.082-1.16,0.201-2.318,0.313-3.477c0.155-0.019,0.309-0.036,0.464-0.056
	c0.019-0.002,0.039-0.005,0.058-0.008c0.041,0.293,0.083,0.587,0.123,0.88c-0.01-0.076-0.02-0.153-0.03-0.229
	C10.31,5.942,10.318,6,10.326,6.061c0.01,0.076,0.02,0.153,0.03,0.229c0.001,0.006,0.002,0.012,0.003,0.018
	c0.002,0.012,0.003,0.025,0.005,0.037c0.015,0.113,0.03,0.226,0.046,0.339c0.086,0.661,0.153,1.322,0.204,1.985
	c0.053,0.673,0.137,1.342,0.228,2.009c0.044,0.348,0.08,0.699,0.138,1.044c0.043,0.244,0.103,0.483,0.161,0.723
	c-0.467-0.001-0.935,0-1.402-0.003c-0.193-0.001-0.385,0.005-0.577,0.006C9.17,11.221,9.287,9.996,9.374,8.771z M28.825,14.484
	c-0.139,0.931-0.306,1.855-0.48,2.78c-0.171,0.899-0.37,1.791-0.557,2.686c-0.086,0.412-0.149,0.83-0.227,1.242
	c-0.084,0.438-0.171,0.874-0.249,1.313c-0.155,0.846-0.302,1.695-0.45,2.543c-0.082,0.456-0.163,0.915-0.259,1.369
	c-0.031,0.142-0.06,0.286-0.092,0.43c-0.268,0.014-0.537,0.018-0.804,0.021c-0.386,0.004-0.772,0.004-1.158,0.01
	c-0.798,0.014-1.598-0.01-2.396-0.01c-1.652-0.002-3.305-0.04-4.957-0.034c-0.762,0.004-1.524,0.018-2.288,0.01
	c-0.806-0.008-1.612-0.008-2.418-0.004c-0.764,0.004-1.53,0.008-2.294-0.012c-0.75-0.023-1.5-0.046-2.251-0.05
	c-0.59-1.396-1.202-2.782-1.795-4.176c-0.306-0.729-0.602-1.463-0.877-2.206c-0.265-0.724-0.503-1.457-0.756-2.185
	c-0.465-1.344-0.961-2.679-1.456-4.012c0.656,0.005,1.312,0.002,1.969-0.009c0.911-0.014,1.819-0.073,2.728-0.093
	c0.909-0.022,1.815-0.002,2.722,0c0.925,0.004,1.847,0.004,2.772-0.006c0.933-0.01,1.863-0.026,2.796-0.002
	c0.909,0.022,1.815,0.064,2.724,0.088c0.899,0.024,1.799,0.028,2.698,0.034c0.862,0.006,1.725,0.03,2.589,0.03
	c1.162,0,2.324-0.012,3.488,0.016c0.452,0.011,0.904,0.013,1.356,0.029C28.865,14.35,28.834,14.416,28.825,14.484z M18.589,18.321
	c-0.096-0.209-0.247-0.4-0.412-0.559c-0.181-0.173-0.402-0.286-0.621-0.394c-0.082-0.042-0.165-0.08-0.249-0.117
	c-0.137-0.056-0.253-0.109-0.394-0.141c-0.14-0.034-0.291-0.041-0.436-0.042c-0.103-0.047-0.215-0.073-0.333-0.073
	c-0.012,0-0.023,0-0.035,0.001c-0.573,0.024-1.136,0.086-1.658,0.33c-0.645,0.302-0.997,1.043-1.14,1.709
	c-0.115,0.525-0.117,1.099,0.024,1.62c0.157,0.583,0.523,1.138,1.009,1.495c0.448,0.33,1.025,0.493,1.578,0.498
	c0.591,0.006,1.174-0.302,1.652-0.633c0.213-0.147,0.414-0.308,0.601-0.482c0.312-0.293,0.499-0.694,0.589-1.106
	c0.052-0.239,0.08-0.482,0.105-0.726c0.026-0.261-0.01-0.527-0.056-0.782C18.774,18.712,18.674,18.509,18.589,18.321z
	 M17.205,19.843c-0.023,0.135-0.052,0.269-0.093,0.4c-0.013,0.025-0.027,0.049-0.041,0.073c-0.098,0.107-0.204,0.205-0.315,0.297
	c-0.209,0.144-0.43,0.264-0.657,0.376c-0.041,0.014-0.082,0.027-0.124,0.038c-0.05,0.001-0.1,0.001-0.151-0.001
	c-0.108-0.025-0.212-0.057-0.316-0.094c-0.06-0.031-0.118-0.065-0.176-0.101c-0.031-0.029-0.06-0.06-0.088-0.091
	c-0.067-0.099-0.126-0.201-0.18-0.307c-0.033-0.098-0.059-0.197-0.079-0.298c-0.015-0.206-0.01-0.412,0.01-0.617
	c0.032-0.165,0.072-0.325,0.127-0.484c0.034-0.067,0.07-0.132,0.11-0.196c0.076-0.024,0.153-0.043,0.231-0.059
	c0.215-0.022,0.43-0.035,0.648-0.044c0.04-0.001,0.08-0.005,0.119-0.011c0.079,0.023,0.162,0.037,0.247,0.041
	c0.008,0.001,0.016,0.001,0.024,0.001c0.07,0.017,0.137,0.039,0.206,0.065c0.123,0.055,0.246,0.114,0.361,0.185
	c0.008,0.008,0.016,0.016,0.024,0.024c0.032,0.051,0.061,0.103,0.089,0.156c0.016,0.047,0.03,0.094,0.041,0.143
	C17.231,19.508,17.223,19.674,17.205,19.843z M25.38,17.906c-0.287-0.33-0.75-0.497-1.152-0.635c-0.078-0.027-0.158-0.04-0.237-0.04
	c-0.159,0-0.315,0.051-0.45,0.136c-0.271-0.141-0.607-0.143-0.889,0.016c-0.197,0.113-0.384,0.231-0.567,0.364
	c-0.396,0.286-0.708,0.619-0.973,1.031c-0.217,0.34-0.324,0.73-0.374,1.126c-0.036,0.279-0.038,0.551,0.022,0.828
	c0.062,0.289,0.185,0.567,0.358,0.806c0.207,0.287,0.478,0.503,0.778,0.69c0.651,0.408,1.532,0.462,2.239,0.173
	c0.458-0.185,0.878-0.432,1.204-0.812c0.294-0.342,0.488-0.744,0.603-1.178c0.129-0.49,0.115-0.987,0.01-1.479
	C25.87,18.542,25.637,18.202,25.38,17.906z M24.122,20.185c-0.043,0.083-0.09,0.162-0.141,0.24c-0.05,0.056-0.102,0.108-0.158,0.158
	c-0.096,0.061-0.194,0.116-0.295,0.167c-0.067,0.023-0.134,0.041-0.204,0.057c-0.09,0.005-0.178,0.004-0.268-0.002
	c-0.029-0.007-0.057-0.015-0.085-0.023c-0.084-0.043-0.165-0.091-0.244-0.144c-0.037-0.033-0.072-0.066-0.106-0.101
	c-0.018-0.029-0.034-0.059-0.05-0.09c-0.01-0.034-0.02-0.068-0.028-0.102c-0.003-0.096,0.001-0.191,0.009-0.287
	c0.015-0.072,0.033-0.141,0.054-0.21c0.055-0.106,0.115-0.207,0.182-0.307c0.075-0.082,0.154-0.159,0.239-0.232
	c0.175-0.125,0.357-0.236,0.546-0.343c0.024-0.014,0.047-0.028,0.069-0.044c0.037,0.017,0.076,0.034,0.116,0.05
	c0.006,0.002,0.012,0.005,0.019,0.007c0.107,0.049,0.21,0.102,0.31,0.164c0.007,0.007,0.013,0.014,0.02,0.021
	c0.026,0.04,0.051,0.079,0.074,0.12c0.017,0.055,0.031,0.11,0.042,0.167c0.007,0.108,0.007,0.216,0.002,0.324
	C24.2,19.913,24.167,20.049,24.122,20.185z M12.109,18.574c-0.046-0.121-0.099-0.239-0.157-0.354
	c-0.125-0.257-0.348-0.472-0.575-0.635c-0.267-0.191-0.595-0.296-0.917-0.354c-0.17-0.031-0.329-0.039-0.484,0.001
	c-0.085-0.032-0.176-0.05-0.271-0.05c-0.012,0-0.023,0-0.035,0.001c-0.181,0.01-0.362,0.024-0.543,0.044
	c-0.402,0.046-0.768,0.135-1.11,0.366c-0.436,0.293-0.728,0.746-0.929,1.222c-0.201,0.483-0.181,0.995-0.032,1.492
	c0.354,1.166,1.644,1.932,2.834,1.787c0.243-0.028,0.47-0.062,0.702-0.143c0.281-0.101,0.509-0.243,0.74-0.426
	c0.346-0.275,0.589-0.649,0.748-1.057c0.052-0.133,0.096-0.265,0.137-0.402c0.111-0.396,0.066-0.788,0.002-1.184
	C12.193,18.775,12.157,18.672,12.109,18.574z M8.752,19.661c0.002,0.017,0.005,0.035,0.007,0.052l-0.001-0.002
	C8.756,19.694,8.754,19.677,8.752,19.661z M8.758,19.713c0,0.001,0.001,0.001,0.001,0.001c0.002,0.012,0.003,0.023,0.005,0.034
	C8.762,19.736,8.76,19.724,8.758,19.713z M10.327,19.981c-0.03,0.058-0.062,0.115-0.097,0.17c-0.025,0.026-0.05,0.052-0.076,0.077
	c-0.041,0.027-0.082,0.051-0.125,0.075c-0.063,0.018-0.126,0.033-0.19,0.045c-0.099,0.007-0.197,0.01-0.297,0.006
	c-0.079-0.019-0.156-0.042-0.232-0.069c-0.086-0.045-0.168-0.093-0.249-0.146c-0.053-0.048-0.102-0.097-0.151-0.149
	c-0.038-0.06-0.073-0.12-0.106-0.182c-0.025-0.075-0.045-0.151-0.06-0.23c-0.001-0.02-0.002-0.039-0.002-0.058
	c0.013-0.055,0.028-0.11,0.046-0.166c0.049-0.097,0.104-0.189,0.166-0.28c0.009-0.01,0.019-0.019,0.028-0.028
	c0.014-0.009,0.028-0.017,0.042-0.026c0.064-0.018,0.127-0.032,0.192-0.044c0.151-0.014,0.302-0.023,0.454-0.03
	c0.05-0.002,0.098-0.008,0.146-0.017c0.05,0.024,0.104,0.044,0.16,0.057c0.099,0.025,0.195,0.052,0.29,0.086
	c0.017,0.01,0.034,0.019,0.051,0.029c0.018,0.031,0.035,0.062,0.051,0.094c0.024,0.068,0.045,0.135,0.062,0.206
	c0.004,0.069,0.005,0.138,0.003,0.208C10.406,19.735,10.37,19.858,10.327,19.981z M10.362,6.332
	c0.001,0.004,0.001,0.009,0.002,0.013c0.001,0.01,0.003,0.02,0.004,0.03C10.366,6.361,10.364,6.347,10.362,6.332z M21.358,8.379
	C21.355,8.399,21.353,8.42,21.35,8.44c-0.007,0.054-0.015,0.108-0.023,0.162C21.338,8.527,21.348,8.453,21.358,8.379z"/>
</svg>