<?xml version="1.0" encoding="utf-8"?>
<!-- Generator: Adobe Illustrator 21.1.0, SVG Export Plug-In . SVG Version: 6.00 Build 0)  -->
<svg version="1.1" id="designs" xmlns="http://www.w3.org/2000/svg" xmlns:xlink="http://www.w3.org/1999/xlink" x="0px" y="0px"
	 width="32px" height="32px" viewBox="0 0 32 32" style="enable-background:new 0 0 32 32;" xml:space="preserve">
<style type="text/css">
	.sketchy_een{fill:#111918;}
</style>
<path class="sketchy_een" d="M29.02,10.152c-0.039-0.572-0.08-1.143-0.096-1.717c-0.016-0.529-0.062-1.051-0.15-1.572
	c-0.033-0.207-0.08-0.408-0.123-0.613c-0.055-0.264-0.1-0.529-0.152-0.795c-0.107-0.547-0.217-1.084-0.445-1.596
	c-0.209-0.471-0.439-0.926-0.809-1.299c-0.16-0.162-0.311-0.33-0.514-0.445c-0.18-0.102-0.383-0.176-0.582-0.23
	c-0.229-0.062-0.473-0.117-0.709-0.121c-0.009,0-0.017,0-0.026,0c-0.015,0-0.029,0.005-0.044,0.006
	C25.273,1.726,25.169,1.7,25.06,1.7c-0.156,0-0.277,0.055-0.394,0.127c-0.103-0.042-0.212-0.07-0.326-0.07
	c-0.073,0-0.146,0.009-0.219,0.028c-0.003,0.001-0.005,0.002-0.008,0.003c-0.558,0.062-1.121,0.081-1.68,0.097
	c-0.312,0.01-0.625,0.021-0.938,0.053c-0.398,0.039-0.799,0.047-1.199,0.053C18.637,2.02,16.979,2,15.319,2.024
	c-0.557,0.008-1.113-0.01-1.67-0.014c-0.283-0.002-0.564,0-0.848-0.006c-0.291-0.006-0.586-0.02-0.877-0.012
	c-0.227,0.006-0.453,0.035-0.68,0.047c-0.303,0.016-0.607,0.027-0.912,0.035C9.819,2.089,9.305,2.096,8.792,2.111
	C8.644,1.965,8.439,1.887,8.233,1.887c-0.2,0-0.4,0.073-0.543,0.227C7.407,2.42,7.126,2.731,6.86,3.053
	C6.714,3.229,6.565,3.405,6.446,3.598C6.35,3.752,6.294,3.932,6.227,4.1C6.184,4.206,6.145,4.311,6.106,4.415
	C5.962,4.797,5.817,5.194,5.72,5.592C5.634,5.938,5.587,6.297,5.538,6.649C5.477,7.086,5.409,7.524,5.366,7.963
	C5.323,8.379,5.298,8.799,5.27,9.217c-0.057,0.865-0.109,1.732-0.148,2.598c-0.016,0.367-0.027,0.732-0.033,1.1
	c-0.004,0.301-0.029,0.602-0.039,0.904c-0.025,0.732-0.023,1.465-0.027,2.199c-0.002,0.723-0.031,1.443-0.02,2.168
	c0.012,0.762,0.008,1.527,0.029,2.289c0.016,0.482,0.018,0.963,0.023,1.443c0.006,0.342,0.006,0.682,0.008,1.023
	c0.004,0.354,0.031,0.705,0.051,1.057c0.031,0.539,0.053,1.076,0.094,1.613c0.043,0.572,0.096,1.145,0.137,1.719
	c0.048,0.667,0.159,1.343,0.121,2.014c-0.099,0.398,0.166,0.819,0.557,0.927c0.164,0.045,0.324,0.021,0.471-0.035
	c0.692,0.012,1.383,0.03,2.076,0.009c0.604-0.02,1.213,0.008,1.818,0.008c0.625-0.002,1.252-0.025,1.877,0.016
	c0.686,0.047,1.369,0.016,2.053-0.008c0.684-0.025,1.367-0.02,2.051-0.037c0.68-0.018,1.359-0.043,2.041-0.066
	c0.312-0.012,0.625-0.023,0.939-0.039c0.357-0.02,0.713-0.057,1.072-0.062c0.24-0.002,0.482,0,0.725,0
	c0.262,0.002,0.523,0.004,0.787-0.002c0.074-0.002,0.148,0.002,0.223,0.008c0.207,0.02,0.441-0.1,0.584-0.242
	c0.15-0.15,0.233-0.353,0.238-0.564c0.016-0.036,0.048-0.062,0.059-0.101c0.036-0.131,0.042-0.261,0.018-0.392
	c-0.007-0.166,0.007-0.334,0.015-0.499c0.012-0.258,0.031-0.514,0.039-0.771c0.021-0.697,0.014-1.391,0.059-2.086
	c0.047-0.723,0.025-1.445,0.043-2.168c0.02-0.777,0.035-1.555,0.039-2.332c0.002-0.703,0-1.41-0.02-2.113
	c-0.01-0.396-0.012-0.793-0.029-1.191c-0.011-0.234-0.021-0.468-0.032-0.701c0.196,0.024,0.395,0.036,0.586,0.044
	c0.248,0.012,0.506-0.01,0.752-0.041c0.203-0.025,0.398-0.051,0.594-0.109c0.111-0.033,0.221-0.076,0.332-0.115
	c0.596-0.221,1.113-0.578,1.602-0.98c0.16-0.135,0.318-0.275,0.469-0.42c0.182-0.174,0.316-0.395,0.463-0.598
	c0.125-0.176,0.256-0.35,0.35-0.543c0.133-0.277,0.246-0.57,0.332-0.867c0.154-0.535,0.266-1.068,0.332-1.621
	C29.038,11.15,29.055,10.654,29.02,10.152z M20.726,28.475c-0.646,0.068-1.297,0.107-1.945,0.141
	c-0.684,0.035-1.367,0.07-2.051,0.078c-0.686,0.008-1.369,0.012-2.053,0.025c-0.697,0.014-1.396,0.041-2.094,0.01
	c-0.598-0.025-1.193-0.002-1.791,0.004c-0.619,0.008-1.24-0.008-1.857,0.027c-0.342,0.021-0.684,0.047-1.027,0.041
	c-0.296-0.006-0.591-0.019-0.886-0.03c0-0.226,0.002-0.452-0.015-0.679c-0.033-0.479-0.035-0.957-0.059-1.438
	c-0.027-0.635-0.074-1.268-0.096-1.902c-0.018-0.564-0.064-1.129-0.072-1.693c-0.005-0.396,0.005-0.792,0.012-1.188
	c0.041-0.002,0.082-0.005,0.123-0.007c0.196-0.012,0.401-0.031,0.599-0.017c0.137,0.023,0.274,0.042,0.413,0.054
	c0.459,0.041,0.846-0.414,0.846-0.846c0-0.223-0.09-0.439-0.248-0.598c-0.174-0.172-0.363-0.217-0.598-0.246
	c-0.014-0.002-0.027-0.004-0.041-0.006c0.076,0.01,0.15,0.02,0.225,0.031c-0.072-0.012-0.145-0.033-0.219-0.045
	c-0.143-0.025-0.27-0.033-0.403-0.033c-0.056,0-0.112,0.001-0.172,0.004c-0.179,0.006-0.356,0.011-0.535,0.015
	c0.002-0.248,0.004-0.497,0.004-0.745c0.004-0.742,0.016-1.486,0.039-2.229c0.012-0.355,0.039-0.707,0.037-1.062
	c-0.002-0.381,0.004-0.76,0.014-1.139c0.018-0.841,0.04-1.682,0.061-2.523c0.467,0.013,0.934,0.024,1.399,0.056
	c0.449,0.029,0.826-0.4,0.826-0.828c0-0.422-0.377-0.865-0.826-0.828c-0.287,0.025-0.574,0-0.861-0.02
	c-0.166-0.01-0.332-0.022-0.498-0.033c0.021-0.803,0.046-1.606,0.067-2.408C7.06,7.738,7.162,7.061,7.252,6.387
	c0.052-0.321,0.131-0.63,0.218-0.945c0.097-0.345,0.195-0.691,0.323-1.024c0.047-0.089,0.102-0.171,0.161-0.251
	c0.123-0.155,0.261-0.295,0.392-0.441C8.381,3.729,8.413,3.747,8.45,3.745c0.914-0.053,1.828-0.131,2.744-0.189
	c0.369-0.023,0.732-0.01,1.102-0.01c0.121,0.002,0.242,0.002,0.363,0.002c0.305,0,0.609-0.002,0.916,0.008
	c0.859,0.027,1.723,0.023,2.584,0.029c0.816,0.006,1.633,0.018,2.447,0.014c0.564-0.002,1.127-0.008,1.691-0.016
	c0.219-0.002,0.439,0,0.66,0.002c0.279,0.002,0.561,0.006,0.84-0.004c0.286-0.01,0.571-0.016,0.856-0.023
	c-0.008,0.01-0.017,0.021-0.024,0.032c-0.215,0.285-0.396,0.613-0.559,0.932c-0.199,0.395-0.342,0.805-0.457,1.23
	c-0.23,0.855-0.328,1.736-0.381,2.617c-0.025,0.412-0.035,0.828-0.041,1.24c-0.008,0.43-0.023,0.863-0.01,1.293
	c0,0.01,0.001,0.021,0.002,0.032c-0.028-0.011-0.05-0.033-0.08-0.041c-0.191-0.055-0.381-0.096-0.58-0.102
	c-0.127-0.004-0.252-0.002-0.377-0.002c-0.35-0.004-0.697-0.012-1.045-0.014c-0.459-0.002-0.844,0.387-0.844,0.844
	c0,0.459,0.385,0.848,0.844,0.846c0.305-0.002,0.609-0.006,0.912-0.012c0.162-0.003,0.325-0.007,0.486,0.003
	c0.054,0.013,0.108,0.026,0.162,0.038c0.207,0.047,0.414,0.015,0.592-0.071c0.02,0.37,0.041,0.74,0.053,1.11
	c0.014,0.408,0.016,0.816,0.037,1.223c0.02,0.41,0.043,0.82,0.059,1.23c0.027,0.783,0.049,1.568,0.059,2.354
	c0.008,0.542,0.006,1.086,0.012,1.629c-0.06-0.013-0.121-0.026-0.181-0.026c-0.077,0-0.153,0.012-0.22,0.038
	c-0.039,0.015-0.076,0.029-0.115,0.04c-0.191,0.008-0.386-0.008-0.577-0.014c-0.361-0.014-0.725-0.021-1.086-0.029
	c-0.49-0.01-0.898,0.416-0.898,0.898c0,0.494,0.408,0.893,0.898,0.898c0.465,0.006,0.928,0.012,1.391,0
	c0.262-0.007,0.543-0.009,0.8-0.069c0.003,1.1-0.013,2.199-0.034,3.299c-0.008,0.365-0.029,0.729-0.039,1.092
	c-0.008,0.361-0.004,0.719-0.029,1.078c-0.018,0.27-0.02,0.541-0.037,0.811c-0.009,0.15-0.018,0.299-0.026,0.448
	C21.121,28.441,20.923,28.454,20.726,28.475z M27.341,11.793c0.002-0.02,0.005-0.039,0.007-0.059
	c0.009-0.067,0.018-0.135,0.028-0.203C27.364,11.619,27.352,11.707,27.341,11.793z M27.398,11.343
	c-0.01,0.082-0.021,0.164-0.032,0.246c0-0.004,0.001-0.008,0.001-0.011c-0.083,0.577-0.215,1.17-0.429,1.715
	c-0.12,0.256-0.271,0.505-0.436,0.735c-0.217,0.263-0.471,0.494-0.735,0.708c-0.212,0.155-0.443,0.296-0.682,0.406
	c-0.197,0.076-0.396,0.144-0.604,0.184c-0.371,0.041-0.748,0.045-1.119,0.01c-0.028-0.006-0.056-0.012-0.084-0.02
	c-0.069-0.039-0.134-0.084-0.198-0.133c0.012,0.009,0.024,0.018,0.035,0.027c-0.012-0.009-0.026-0.013-0.038-0.021
	c-0.029-0.397-0.058-0.795-0.079-1.193c-0.041-0.838-0.1-1.674-0.148-2.512c-0.043-0.721-0.045-1.441-0.041-2.164
	c0.004-0.688,0.038-1.373,0.116-2.055c0.103-0.649,0.26-1.298,0.499-1.912c0.157-0.353,0.343-0.698,0.567-1.011
	c0.201-0.241,0.426-0.442,0.672-0.639c0.133-0.099,0.267-0.198,0.401-0.296c0.114-0.039,0.227-0.081,0.344-0.107
	c0.021,0,0.042,0.001,0.062,0.002c0.107,0.02,0.212,0.046,0.314,0.082c0.06,0.028,0.12,0.059,0.176,0.094
	c0.1,0.092,0.193,0.198,0.279,0.303c0.084,0.124,0.159,0.255,0.23,0.388c0.095,0.173,0.186,0.354,0.267,0.537
	c0.182,0.485,0.262,1.013,0.363,1.52c0.086,0.432,0.19,0.859,0.254,1.295c0.032,0.253,0.058,0.507,0.068,0.762
	c0.014,0.367-0.012,0.736,0,1.104c0.01,0.326,0.037,0.646,0.025,0.973C27.438,10.69,27.44,11.015,27.398,11.343z M25.706,11.989
	c0.008,0.137,0.008,0.273,0.02,0.408c0.039,0.455-0.41,0.836-0.836,0.836c-0.221,0-0.434-0.088-0.59-0.244
	c-0.104-0.105-0.176-0.227-0.215-0.369c-0.062-0.39-0.059-0.788-0.104-1.18c-0.03-0.208-0.059-0.416-0.068-0.627
	c-0.01-0.219-0.039-0.438-0.039-0.656c0.004-0.301-0.016-0.596-0.041-0.895c-0.033-0.41-0.053-0.818-0.055-1.229
	c-0.002-0.438,0.367-0.801,0.803-0.801c0.434,0,0.803,0.363,0.801,0.801c-0.002,0.447,0.006,0.891,0.031,1.336
	c0.016,0.259,0.019,0.519,0.046,0.777c0.028,0.203,0.051,0.406,0.076,0.609c0.028,0.192,0.058,0.383,0.085,0.575
	C25.652,11.549,25.693,11.767,25.706,11.989z M10.063,11.816c0-0.492,0.393-0.826,0.859-0.859c0.411-0.028,0.82-0.053,1.231-0.053
	c0.042,0,0.083,0,0.125,0.001c0.459,0.004,0.844,0.379,0.844,0.842c0,0.457-0.383,0.85-0.844,0.844
	c-0.451-0.004-0.904,0.053-1.355,0.088C10.455,12.715,10.063,12.258,10.063,11.816z M17.595,11.661c0,0.473-0.414,0.938-0.908,0.908
	c-0.391-0.023-0.783-0.027-1.176-0.045c-0.5-0.021-0.92-0.402-0.92-0.92c0-0.467,0.395-0.921,0.878-0.921
	c0.014,0,0.028,0,0.042,0.001c0.393,0.021,0.783,0.059,1.176,0.068C17.181,10.766,17.595,11.155,17.595,11.661z M13.176,21.314
	c-0.13,0.475-0.614,0.727-1.082,0.621c-0.153-0.009-0.307-0.001-0.459,0.002c-0.318,0.006-0.635,0.012-0.951,0.012
	c-0.48,0.004-0.881-0.402-0.881-0.879c0-0.476,0.397-0.881,0.874-0.881c0.002,0,0.005,0,0.007,0
	c0.346,0.002,0.691,0.008,1.037,0.014c0.104,0.002,0.209-0.002,0.314-0.006c0.094-0.002,0.189-0.006,0.285-0.006
	C12.897,20.193,13.33,20.755,13.176,21.314z M17.092,20.358c0.16,0.16,0.252,0.381,0.252,0.607c0,0.471-0.391,0.854-0.859,0.859
	c-0.322,0.002-0.645,0.01-0.967,0.021c-0.486,0.018-0.893-0.42-0.893-0.893c0-0.498,0.406-0.875,0.893-0.891
	c0.061-0.002,0.122-0.003,0.182-0.003c0.262,0,0.521,0.019,0.785,0.046C16.721,20.129,16.918,20.184,17.092,20.358z"/>
</svg>