<?xml version="1.0" encoding="utf-8"?>
<!-- Generator: Adobe Illustrator 21.1.0, SVG Export Plug-In . SVG Version: 6.00 Build 0)  -->
<svg version="1.1" id="designs" xmlns="http://www.w3.org/2000/svg" xmlns:xlink="http://www.w3.org/1999/xlink" x="0px" y="0px"
	 width="32px" height="32px" viewBox="0 0 32 32" style="enable-background:new 0 0 32 32;" xml:space="preserve">
<style type="text/css">
	.sketchy_een{fill:#111918;}
</style>
<path class="sketchy_een" d="M15.305,8.764c-0.01,0.007-0.019,0.015-0.029,0.022c0.007-0.005,0.013-0.01,0.02-0.015
	C15.299,8.768,15.302,8.766,15.305,8.764z M31,15.911c-0.004,0.932-0.123,1.847-0.288,2.764c-0.078,0.433-0.169,0.857-0.294,1.28
	c-0.137,0.461-0.312,0.902-0.511,1.336c-0.185,0.404-0.378,0.805-0.6,1.189c-0.254,0.441-0.567,0.839-0.909,1.215
	c-0.592,0.646-1.141,1.348-1.853,1.871c-0.045,0.033-0.11,0.038-0.165,0.058c-0.157,0.161-0.374,0.263-0.61,0.254
	c-0.031,0-0.061-0.001-0.092-0.003c-0.015,0.201-0.037,0.408-0.102,0.594c-0.089,0.25-0.195,0.477-0.382,0.67
	c-0.105,0.111-0.227,0.205-0.354,0.29c-0.207,0.139-0.441,0.231-0.67,0.328c-0.28,0.119-0.561,0.203-0.867,0.231
	c-0.545,0.05-1.165-0.068-1.622-0.378c-0.233-0.159-0.439-0.324-0.602-0.559c-0.127-0.185-0.211-0.384-0.298-0.59
	c-0.089-0.211-0.163-0.427-0.231-0.646c0-0.001,0-0.002,0-0.002c-1.478-0.009-2.955-0.007-4.434-0.007c-0.406,0-0.811,0-1.215,0
	c-1.06,0.001-2.118-0.006-3.176-0.019c-0.067,0.4-0.182,0.79-0.402,1.134c-0.185,0.292-0.402,0.575-0.722,0.726
	c-0.227,0.109-0.457,0.207-0.704,0.246c-0.155,0.022-0.318,0.054-0.477,0.048c-0.153-0.006-0.3-0.026-0.453-0.046
	c-0.101-0.014-0.199-0.034-0.298-0.064c-0.209-0.068-0.431-0.145-0.612-0.274c-0.177-0.127-0.36-0.255-0.497-0.428
	c-0.093-0.117-0.187-0.235-0.272-0.36c-0.225-0.33-0.358-0.724-0.451-1.111c-0.002-0.01,0.001-0.02-0.001-0.03
	c-0.365-0.015-0.731-0.031-1.097-0.063c-0.233-0.02-0.433-0.079-0.602-0.25c-0.126-0.126-0.193-0.293-0.222-0.466
	c-0.484-0.557-0.89-1.181-1.211-1.845c-0.382-0.795-0.682-1.63-0.885-2.487c-0.195-0.829-0.344-1.674-0.386-2.527
	c-0.018-0.378-0.006-0.759,0.006-1.137c0.016-0.491,0.036-0.982,0.062-1.471c0.013-0.258,0.134-0.483,0.317-0.637
	c-0.328-0.007-0.657-0.016-0.984-0.048c-0.229-0.024-0.422-0.076-0.591-0.246C1.089,14.297,1,14.082,1,13.863
	c0-0.221,0.089-0.435,0.243-0.592c0.143-0.141,0.382-0.266,0.591-0.243c1.388,0.151,2.797,0.163,4.193,0.125
	c0.698-0.02,1.394-0.066,2.089-0.123c0.691-0.057,1.381-0.101,2.07-0.186c0.084-0.011,0.169-0.022,0.254-0.034
	c-0.066,0.008-0.133,0.018-0.199,0.026c0.765-0.104,1.522-0.282,2.262-0.502c-0.002-0.01-0.005-0.02-0.007-0.03
	c-0.131-0.557-0.241-1.121-0.366-1.68c-0.019-0.084-0.016-0.168-0.011-0.25c-0.002-0.005-0.006-0.01-0.008-0.015
	c-0.058-0.209-0.044-0.497,0.089-0.68c0.41-0.57,0.829-1.139,1.332-1.63c0.207-0.203,0.429-0.382,0.656-0.56
	c0.26-0.205,0.513-0.417,0.779-0.612c0.348-0.256,0.712-0.497,1.101-0.688c0.449-0.223,0.919-0.404,1.39-0.577
	c0.463-0.169,0.909-0.32,1.402-0.374c0.374-0.041,0.754-0.066,1.132-0.066c0.063,0,0.126,0.001,0.188,0.002
	c0.958,0.018,1.917,0.151,2.835,0.428c0.899,0.272,1.779,0.628,2.634,1.012c0.41,0.183,0.821,0.386,1.199,0.628
	c0.429,0.276,0.871,0.551,1.258,0.885c0.386,0.334,0.722,0.706,1.024,1.121c0.264,0.36,0.533,0.718,0.736,1.115
	c0.227,0.443,0.423,0.901,0.563,1.378c0.127,0.435,0.27,0.869,0.35,1.314c0.093,0.503,0.141,1.01,0.173,1.521
	C30.978,15.019,31.002,15.466,31,15.911z M15.165,8.871c0.022-0.017,0.044-0.034,0.066-0.051c0.007-0.005,0.013-0.01,0.02-0.015
	C15.223,8.827,15.194,8.849,15.165,8.871z M3.863,14.749c0.103,0.083,0.191,0.18,0.245,0.298c0.489,0.031,0.978,0.054,1.472,0.043
	c0.423-0.008,0.843-0.024,1.266-0.04c0.331-0.012,0.618,0.209,0.74,0.501c0.089,0.094,0.165,0.202,0.209,0.331
	c0.054,0.16,0.105,0.317,0.166,0.473c0.068,0.148,0.14,0.294,0.228,0.431c0.155,0.178,0.329,0.328,0.518,0.476
	c0.268,0.203,0.54,0.405,0.841,0.554c0.081,0.028,0.162,0.052,0.246,0.071c0.224,0.01,0.45-0.006,0.672-0.032
	c0.18-0.029,0.359-0.065,0.533-0.125c0.186-0.092,0.361-0.201,0.53-0.322c0.197-0.162,0.375-0.337,0.538-0.534
	c0.24-0.332,0.452-0.678,0.623-1.051c0.079-0.217,0.143-0.434,0.185-0.66c0.034-0.416,0.006-0.826-0.039-1.237
	c-0.487,0.104-0.977,0.189-1.47,0.26c-1.606,0.231-3.227,0.388-4.849,0.475c-0.767,0.04-1.533,0.07-2.3,0.084
	C4.099,14.748,3.981,14.747,3.863,14.749z M9.967,25.964c0.024-0.073,0.039-0.147,0.056-0.221C9.577,25.72,9.131,25.7,8.685,25.685
	c0.004,0.011,0.005,0.022,0.009,0.033c0.05,0.105,0.104,0.205,0.167,0.303c0.04,0.044,0.081,0.087,0.125,0.127
	c0.042,0.027,0.085,0.053,0.13,0.077c0.08,0.027,0.16,0.05,0.243,0.069c0.082,0.006,0.164,0.008,0.247,0.004
	c0.056-0.013,0.11-0.027,0.164-0.045c0.018-0.01,0.036-0.019,0.053-0.03C9.875,26.139,9.923,26.053,9.967,25.964z M24.09,25.875
	c0.001-0.005,0.001-0.01,0.001-0.016c-0.217,0-0.435,0-0.651-0.003c-0.39-0.006-0.779-0.012-1.168-0.02
	c0.023,0.066,0.042,0.133,0.066,0.198c0.027,0.054,0.055,0.107,0.087,0.159c0.001,0.001,0.002,0.002,0.003,0.003
	c0.083,0.058,0.167,0.11,0.258,0.157c0.081,0.025,0.161,0.045,0.244,0.062c0.095,0.007,0.189,0.01,0.285,0.006
	c0.166-0.037,0.324-0.093,0.481-0.156c0.11-0.051,0.216-0.106,0.317-0.171c0.011-0.01,0.021-0.02,0.031-0.031
	C24.063,26.003,24.078,25.94,24.09,25.875z M29.082,13.899c-0.071-0.425-0.175-0.841-0.285-1.258
	c-0.106-0.394-0.219-0.781-0.363-1.163c-0.238-0.518-0.538-0.999-0.875-1.459c-0.239-0.28-0.493-0.532-0.773-0.77
	c-0.619-0.451-1.253-0.866-1.953-1.184c-1.164-0.482-2.352-0.94-3.597-1.141c-0.734-0.085-1.471-0.087-2.207-0.005
	c-0.546,0.096-1.06,0.299-1.574,0.505c-0.32,0.138-0.634,0.287-0.933,0.471c-0.288,0.177-0.565,0.37-0.835,0.573
	c-0.127,0.099-0.254,0.197-0.381,0.295c0.011-0.009,0.022-0.017,0.033-0.026c-0.014,0.011-0.028,0.022-0.042,0.033
	c-0.013,0.01-0.027,0.021-0.04,0.031c-0.003,0.003-0.007,0.006-0.01,0.008c0.01-0.008,0.021-0.016,0.031-0.024
	c-0.011,0.009-0.022,0.017-0.033,0.026c-0.31,0.244-0.581,0.517-0.838,0.815c-0.214,0.285-0.42,0.575-0.626,0.865
	c0.081,0.426,0.15,0.854,0.244,1.277c0.111,0.493,0.245,0.984,0.332,1.481c0.093,0.537,0.155,1.101,0.119,1.646
	c-0.022,0.31-0.058,0.624-0.137,0.924c-0.074,0.294-0.193,0.589-0.33,0.859c-0.356,0.71-0.835,1.378-1.451,1.883
	c-0.37,0.304-0.779,0.573-1.229,0.742c-0.388,0.147-0.825,0.197-1.237,0.221c-0.557,0.032-1.109-0.103-1.585-0.39
	c-0.35-0.211-0.684-0.457-1-0.712c-0.316-0.251-0.634-0.555-0.819-0.919c-0.136-0.269-0.243-0.549-0.344-0.832
	c-0.27,0.005-0.539,0.008-0.808,0.02c-0.3,0.014-0.6,0.04-0.899,0.044c-0.183,0.002-0.365-0.012-0.548-0.02
	c-0.041,0.678-0.063,1.357,0.009,2.034c0.086,0.548,0.191,1.098,0.333,1.634c0.139,0.52,0.32,1.025,0.524,1.525
	c0.146,0.323,0.308,0.638,0.484,0.946c0.163,0.283,0.328,0.566,0.52,0.827c0.031,0.039,0.061,0.078,0.092,0.116
	c0.025,0.031,0.04,0.064,0.062,0.095c0.781,0.067,1.564,0.117,2.348,0.155c0.865,0.04,1.728,0.113,2.593,0.139
	c1.71,0.054,3.422,0.026,5.133,0.014c1.648-0.012,3.298-0.014,4.948-0.026c0.793-0.006,1.587-0.036,2.38-0.042
	c0.322,0,0.646,0.006,0.968,0.012c0.273,0.005,0.546,0.003,0.819,0.003c0.027-0.032,0.044-0.072,0.077-0.1
	c0.35-0.29,0.654-0.624,0.952-0.966c0.311-0.357,0.624-0.713,0.921-1.082c0.27-0.372,0.502-0.766,0.729-1.167
	c0.221-0.39,0.437-0.782,0.623-1.189c0.139-0.355,0.25-0.712,0.337-1.087c0.079-0.34,0.138-0.683,0.189-1.028
	C29.267,16.323,29.223,15.102,29.082,13.899z M24.427,12.961c0.322,0.519,0.29,1.121,0.187,1.698
	c-0.074,0.412-0.221,0.821-0.419,1.191c-0.119,0.221-0.272,0.427-0.449,0.606c-0.239,0.243-0.515,0.386-0.823,0.515
	c-0.255,0.104-0.569,0.165-0.841,0.177c-0.28,0.012-0.567-0.018-0.841-0.081c-0.29-0.066-0.575-0.181-0.831-0.338
	c-0.165-0.101-0.348-0.207-0.477-0.352c-0.111-0.123-0.209-0.254-0.306-0.386c-0.185-0.256-0.312-0.557-0.38-0.865
	c-0.052-0.236-0.097-0.483-0.091-0.724c0.008-0.507,0.131-1.034,0.374-1.481c0.165-0.3,0.41-0.595,0.72-0.754
	c0.197-0.103,0.408-0.187,0.622-0.25c0.443-0.125,0.909-0.139,1.366-0.145c0.005,0,0.009,0,0.014,0c0.211,0,0.405,0.084,0.553,0.219
	c0.001,0,0.001,0,0.002,0c0.165,0.051,0.323,0.114,0.479,0.18c0.198,0.074,0.406,0.128,0.585,0.241
	C24.095,12.553,24.288,12.738,24.427,12.961z M23.068,13.928c-0.006-0.027-0.013-0.054-0.021-0.08
	c-0.002-0.004-0.004-0.008-0.007-0.011c-0.014-0.015-0.029-0.03-0.044-0.044c-0.151-0.095-0.321-0.165-0.483-0.24
	c-0.04-0.015-0.079-0.03-0.119-0.044c-0.029-0.01-0.057-0.021-0.085-0.034c-0.023,0.002-0.045,0.003-0.068,0.004
	c-0.229,0.002-0.459,0.002-0.687,0.02c-0.132,0.026-0.26,0.061-0.387,0.106c-0.029,0.015-0.058,0.031-0.086,0.048
	c-0.007,0.007-0.015,0.014-0.022,0.022c-0.035,0.056-0.067,0.114-0.096,0.174c-0.043,0.122-0.076,0.245-0.1,0.372
	c-0.007,0.11-0.007,0.22,0.001,0.329c0.022,0.119,0.05,0.235,0.087,0.35c0.043,0.081,0.092,0.159,0.143,0.236
	c0.021,0.024,0.042,0.047,0.065,0.07c0.1,0.067,0.203,0.127,0.311,0.182c0.121,0.041,0.243,0.07,0.369,0.095
	c0.099,0.007,0.196,0.008,0.296,0.001c0.099-0.019,0.196-0.043,0.292-0.075c0.046-0.024,0.091-0.05,0.135-0.077
	c0.046-0.043,0.09-0.088,0.132-0.135c0.074-0.112,0.136-0.229,0.194-0.351c0.076-0.203,0.134-0.411,0.172-0.625
	C23.068,14.123,23.071,14.026,23.068,13.928z"/>
</svg>