<?xml version="1.0" encoding="utf-8"?>
<!-- Generator: Adobe Illustrator 21.1.0, SVG Export Plug-In . SVG Version: 6.00 Build 0)  -->
<svg version="1.1" id="designs" xmlns="http://www.w3.org/2000/svg" xmlns:xlink="http://www.w3.org/1999/xlink" x="0px" y="0px"
	 width="32px" height="32px" viewBox="0 0 32 32" style="enable-background:new 0 0 32 32;" xml:space="preserve">
<style type="text/css">
	.sketchy_een{fill:#111918;}
</style>
<path class="sketchy_een" d="M9.145,26.649c-0.251-0.014-0.504-0.057-0.75-0.108c-0.947-0.199-1.737-0.794-2.451-1.408
	C5.72,24.94,5.535,24.68,5.4,24.474c-0.102-0.154-0.196-0.311-0.271-0.482c-0.112-0.259-0.198-0.515-0.287-0.782
	c-0.076-0.222-0.136-0.398-0.177-0.586c-0.244-1.101-0.295-2.042-0.154-2.876l0.022-0.133c0.032-0.196,0.065-0.398,0.127-0.583
	c0.069-0.203,0.141-0.4,0.222-0.599c0.197-0.475,0.427-0.904,0.685-1.277c0.253-0.362,0.563-0.781,0.945-1.137
	c0.434-0.403,0.811-0.719,1.186-0.997c0.367-0.271,0.728-0.532,1.111-0.746c0.435-0.244,0.899-0.445,1.377-0.645
	c0.933-0.387,1.76-0.656,2.527-0.821c0.767-0.167,1.639-0.245,2.743-0.245c1.044,0.004,1.962,0.123,2.783,0.355l0.606,0.163
	c0.62,0.164,1.26,0.333,1.859,0.572c0.439,0.176,0.868,0.378,1.287,0.593c0.284,0.146,0.551,0.324,0.817,0.501l0.266,0.176
	c0.35,0.226,0.682,0.475,1.014,0.725c0.215,0.161,0.419,0.325,0.608,0.515l0.154,0.149c0.097,0.092,0.195,0.183,0.28,0.286
	c0.137,0.163,0.26,0.337,0.383,0.511l0.085,0.12c0.114,0.165,0.222,0.335,0.31,0.518c0.165,0.356,0.376,0.831,0.531,1.344
	c0.144,0.477,0.214,1.014,0.204,1.552c-0.007,0.409-0.025,0.892-0.101,1.381c-0.062,0.397-0.206,0.816-0.425,1.246
	c-0.194,0.379-0.438,0.715-0.65,0.994c-0.313,0.408-0.565,0.722-0.868,0.972c-0.203,0.164-0.389,0.309-0.605,0.411
	c-0.139,0.064-0.28,0.127-0.423,0.184c-0.187,0.077-0.378,0.148-0.568,0.212c-0.692,0.235-1.44,0.454-2.217,0.472
	c-0.005,0-0.01,0-0.014,0c-0.457,0-0.85-0.058-1.288-0.177c-0.473-0.131-0.821-0.285-1.096-0.485
	c-0.31-0.225-0.61-0.491-0.894-0.791c-0.21-0.223-0.437-0.429-0.671-0.627c-0.102-0.069-0.197-0.128-0.294-0.184
	c-0.353-0.045-0.668-0.076-0.982-0.076c-0.097,0-0.194,0.003-0.291,0.01c-0.091,0.016-0.169,0.035-0.246,0.059
	c-0.14,0.075-0.254,0.151-0.368,0.228c-0.129,0.087-0.258,0.173-0.397,0.244c-0.352,0.183-0.714,0.343-1.077,0.501l-0.196,0.085
	c-0.273,0.118-0.546,0.236-0.811,0.369l-0.246,0.123c-0.251,0.126-0.503,0.252-0.759,0.369c-0.389,0.176-0.792,0.359-1.213,0.426
	c-0.221,0.035-0.439,0.064-0.66,0.064L9.145,26.649z M15.635,14.227c-0.29,0-0.58,0.012-0.868,0.025
	c-0.49,0.022-0.957,0.073-1.422,0.132c-0.387,0.066-0.762,0.179-1.126,0.287l-0.252,0.075c-0.357,0.104-0.724,0.237-1.192,0.432
	c-0.407,0.179-0.771,0.343-1.118,0.547c-0.344,0.206-0.669,0.445-0.992,0.682c-0.564,0.447-0.981,0.834-1.315,1.219
	c-0.313,0.433-0.567,0.859-0.781,1.307c-0.084,0.207-0.156,0.384-0.204,0.564c-0.054,0.207-0.096,0.413-0.132,0.622
	c-0.029,0.397-0.017,0.817,0.036,1.332c0.045,0.3,0.098,0.595,0.177,0.881c0.093,0.337,0.172,0.622,0.272,0.894
	c0.093,0.188,0.199,0.353,0.313,0.515c0.241,0.28,0.515,0.512,0.753,0.703c0.189,0.141,0.382,0.268,0.59,0.372
	c0.23,0.088,0.451,0.151,0.684,0.195c0.088,0.007,0.164,0.01,0.24,0.01c0.084,0,0.167-0.003,0.251-0.011
	c0.228-0.042,0.434-0.102,0.641-0.183c0.297-0.135,0.583-0.281,0.869-0.427l0.473-0.238c0.254-0.124,0.512-0.241,0.77-0.359
	c0.211-0.096,0.422-0.192,0.632-0.292c0.238-0.113,0.468-0.232,0.688-0.378l0.152-0.104c0.142-0.098,0.283-0.196,0.44-0.269
	c0.408-0.19,0.872-0.279,1.461-0.279c0.326,0,0.654,0.027,0.976,0.058c0.285,0.026,0.464,0.099,0.618,0.252
	c0.069,0.069,0.125,0.15,0.168,0.242c0.279,0.206,0.495,0.384,0.712,0.562l0.078,0.064c0.111,0.092,0.213,0.191,0.317,0.29
	l0.161,0.154c0.129,0.119,0.262,0.229,0.395,0.338c0.133,0.094,0.266,0.174,0.405,0.243c0.272,0.095,0.545,0.164,0.845,0.216
	c0.086,0.006,0.236,0.009,0.236,0.009c0.116,0,0.232-0.006,0.348-0.015c0.638-0.115,1.253-0.36,1.829-0.601
	c0.201-0.093,0.393-0.186,0.577-0.303c0.208-0.183,0.397-0.384,0.593-0.625c0.302-0.408,0.52-0.763,0.689-1.12
	c0.088-0.242,0.151-0.479,0.194-0.723c0.063-0.567,0.07-1.058,0.024-1.506c-0.086-0.496-0.23-0.998-0.431-1.498
	c-0.136-0.276-0.303-0.53-0.474-0.778c-0.075-0.084-0.144-0.153-0.213-0.224l-0.153-0.157c-0.12-0.129-0.245-0.249-0.381-0.361
	l-0.402-0.306c-0.205-0.153-0.418-0.291-0.634-0.425l-0.23-0.15c-0.12-0.079-0.24-0.158-0.363-0.232
	c-0.385-0.232-0.799-0.417-1.2-0.596c-0.598-0.236-1.214-0.414-1.685-0.542c-0.586-0.161-1.212-0.326-1.847-0.422l-0.502-0.068
	C16.094,14.235,15.865,14.227,15.635,14.227z M27.114,15.357c-0.138,0-0.278-0.013-0.421-0.041
	c-0.508-0.098-0.954-0.422-1.368-0.745c-0.134-0.104-0.253-0.226-0.375-0.383c-0.103-0.131-0.195-0.253-0.272-0.414
	c-0.097-0.203-0.125-0.343-0.145-0.546c-0.01-0.111-0.015-0.224-0.01-0.336c0.012-0.322,0.046-0.595,0.106-0.835
	c0.083-0.348,0.191-0.606,0.329-0.79l0.062-0.084c0.072-0.097,0.143-0.195,0.231-0.278c0.123-0.118,0.251-0.224,0.389-0.325
	c0.23-0.169,0.427-0.289,0.622-0.376c0.174-0.078,0.353-0.143,0.535-0.21c0.245-0.088,0.47-0.146,0.691-0.203
	c0.066-0.016,0.134-0.025,0.201-0.025c0.07,0,0.14,0.009,0.208,0.027l0.1,0.022c0.504,0.145,1.002,0.484,1.482,1.011
	c0.117,0.127,0.21,0.278,0.295,0.475c0.07,0.161,0.126,0.294,0.155,0.433c0.057,0.291,0.078,0.525,0.065,0.736
	c-0.031,0.499-0.101,0.904-0.34,1.262C28.975,14.75,28.025,15.357,27.114,15.357z M27.828,11.339
	c-0.293,0.074-0.581,0.158-0.866,0.259c-0.142,0.071-0.265,0.147-0.385,0.231c-0.074,0.063-0.134,0.123-0.19,0.187l-0.095,0.165
	c-0.038,0.122-0.063,0.227-0.083,0.334c-0.015,0.178-0.018,0.346-0.009,0.514l0.001,0.027l0.064,0.102
	c0.121,0.134,0.241,0.243,0.369,0.348c0.128,0.092,0.254,0.176,0.388,0.247l0.105,0.028l0.21-0.001
	c0.102-0.022,0.183-0.047,0.265-0.075c0.121-0.061,0.224-0.124,0.326-0.193c0.156-0.132,0.295-0.265,0.422-0.411
	c0.058-0.082,0.106-0.159,0.15-0.239c0.024-0.071,0.036-0.123,0.047-0.177c0.018-0.171,0.026-0.33,0.016-0.491
	c-0.021-0.099-0.042-0.179-0.07-0.258c-0.029-0.058-0.052-0.101-0.079-0.144c-0.123-0.134-0.241-0.244-0.364-0.348l-0.182-0.115
	L27.828,11.339z M4.745,15.259c-0.277,0-0.541-0.027-0.808-0.081c-0.692-0.137-1.266-0.552-1.537-1.11
	c-0.124-0.255-0.24-0.504-0.306-0.756c-0.04-0.162-0.065-0.324-0.085-0.49c-0.025-0.237,0.007-0.467,0.051-0.743
	c0.117-0.697,0.582-1.395,1.382-2.073c0.209-0.177,0.387-0.258,0.596-0.27c0.261-0.09,0.419-0.121,0.566-0.121
	c0.153,0.007,0.286,0.03,0.393,0.053c0.072,0.015,0.142,0.034,0.211,0.057c0.185,0.059,0.365,0.126,0.54,0.208
	c0.293,0.136,0.55,0.36,0.799,0.576c0.256,0.222,0.465,0.485,0.608,0.765c0.127,0.244,0.205,0.442,0.247,0.623
	c0.057,0.247,0.126,0.556,0.128,0.84c0,0.221-0.012,0.507-0.106,0.747l-0.04,0.108c-0.033,0.094-0.065,0.183-0.116,0.255
	c-0.07,0.1-0.142,0.198-0.219,0.291c-0.102,0.12-0.211,0.234-0.33,0.338c-0.217,0.185-0.416,0.348-0.637,0.466
	c-0.127,0.07-0.259,0.124-0.391,0.179c-0.109,0.045-0.2,0.08-0.285,0.092C5.184,15.243,4.964,15.259,4.745,15.259z M4.703,11.298
	c-0.203,0.171-0.439,0.378-0.65,0.618c-0.077,0.11-0.143,0.212-0.202,0.32c-0.028,0.091-0.042,0.161-0.056,0.231
	c-0.005,0.059-0.008,0.11-0.009,0.161c0.032,0.159,0.072,0.291,0.12,0.422c0.042,0.089,0.085,0.167,0.133,0.243l0.15,0.117
	c0.15,0.046,0.303,0.083,0.458,0.111c0.12,0.012,0.23,0.019,0.341,0.019c0.146-0.018,0.197-0.032,0.249-0.05
	c0.124-0.062,0.231-0.126,0.333-0.197c0.106-0.088,0.2-0.174,0.287-0.268l0.073-0.187c0.004-0.098,0.002-0.195-0.006-0.294
	c-0.027-0.153-0.06-0.292-0.109-0.429c-0.055-0.11-0.11-0.203-0.171-0.294c-0.095-0.104-0.191-0.185-0.288-0.263
	c-0.108-0.079-0.213-0.151-0.328-0.21c-0.088-0.03-0.162-0.052-0.237-0.072l-0.05-0.013L4.703,11.298z M11.003,11.496
	c-0.229,0-0.46-0.03-0.67-0.086c-0.462-0.124-0.908-0.378-1.326-0.756c-0.516-0.465-0.804-1.164-0.771-1.87
	c0.011-0.245,0.028-0.528,0.09-0.781c0.059-0.241,0.159-0.492,0.308-0.767c0.179-0.327,0.405-0.698,0.733-0.971
	c0.192-0.156,0.398-0.318,0.618-0.413c0.278-0.121,0.495-0.208,0.772-0.21c0.089,0,0.179,0.009,0.27,0.018
	c0.256,0.021,0.414,0.081,0.55,0.2c0.132,0.026,0.195,0.036,0.256,0.055c0.321,0.1,0.609,0.245,0.883,0.445
	c0.241,0.175,0.512,0.395,0.698,0.707c0.12,0.205,0.197,0.445,0.271,0.678c0.129,0.403,0.236,0.737,0.209,1.058
	c-0.046,0.509-0.187,0.914-0.432,1.24c-0.316,0.419-0.672,0.844-1.136,1.121c-0.234,0.14-0.435,0.223-0.633,0.261
	c-0.154,0.03-0.311,0.047-0.467,0.062C11.152,11.492,11.078,11.496,11.003,11.496z M10.512,7.338
	c-0.074,0.065-0.132,0.124-0.187,0.186c-0.112,0.166-0.195,0.329-0.272,0.497c-0.052,0.138-0.09,0.269-0.118,0.404
	c-0.012,0.191-0.013,0.367,0,0.542c0.017,0.086,0.035,0.158,0.057,0.231c0.03,0.062,0.056,0.106,0.082,0.149
	c0.118,0.13,0.23,0.237,0.349,0.338c0.097,0.068,0.188,0.125,0.285,0.175c0.1,0.034,0.186,0.059,0.274,0.077
	c0.083,0.006,0.151,0.008,0.219,0.008l0.155-0.003c0.053-0.009,0.09-0.019,0.128-0.03c0.105-0.056,0.185-0.105,0.265-0.158
	c0.166-0.143,0.307-0.289,0.444-0.447c0.062-0.088,0.113-0.168,0.16-0.254c0.032-0.09,0.052-0.167,0.068-0.243L12.425,8.7
	c-0.055-0.276-0.141-0.531-0.237-0.776c-0.023-0.047-0.044-0.086-0.066-0.123c-0.069-0.077-0.129-0.133-0.191-0.186
	c-0.116-0.083-0.227-0.152-0.345-0.214l-0.147-0.046c-0.079-0.023-0.153-0.059-0.219-0.105L11.194,7.23l-0.081,0.002
	c-0.156-0.011-0.379-0.024-0.379-0.024L10.712,7.22L10.71,7.214c-0.047,0.016-0.092,0.035-0.137,0.059l0.009,0.02
	C10.558,7.307,10.535,7.322,10.512,7.338z M20.152,11.019c-0.232,0-0.47-0.033-0.698-0.072c-0.162-0.027-0.321-0.069-0.477-0.124
	c-0.161-0.058-0.326-0.121-0.478-0.201c-0.159-0.084-0.31-0.189-0.488-0.342c-0.169-0.144-0.309-0.347-0.433-0.525
	c-0.338-0.496-0.486-0.951-0.452-1.391c0.04-0.49,0.181-0.954,0.433-1.416c0.117-0.217,0.253-0.408,0.408-0.601
	c0.09-0.118,0.178-0.21,0.272-0.282c0.157-0.123,0.263-0.206,0.383-0.27c0.132-0.071,0.272-0.128,0.411-0.18
	c0.379-0.147,0.763-0.21,1.226-0.262c0.003,0,0.005,0,0.007,0c0.241,0,0.455,0.127,0.572,0.245c0.047,0.046,0.088,0.097,0.122,0.152
	c0.206,0.051,0.328,0.085,0.437,0.144c0.217,0.121,0.421,0.294,0.606,0.512c0.122,0.14,0.184,0.21,0.24,0.282l0.065,0.079
	c0.071,0.085,0.138,0.165,0.176,0.255c0.056,0.13,0.09,0.209,0.119,0.29c0.104,0.283,0.135,0.61,0.149,0.833
	c0.018,0.279-0.014,0.579-0.09,0.846c-0.107,0.385-0.331,0.925-0.785,1.317c-0.297,0.257-0.577,0.434-0.881,0.557
	c-0.233,0.095-0.506,0.15-0.79,0.157L20.152,11.019z M20.233,7.022l-0.111,0.011c-0.238,0.04-0.471,0.096-0.699,0.175l-0.107,0.06
	c-0.054,0.05-0.088,0.088-0.12,0.126c-0.111,0.157-0.201,0.315-0.279,0.481c-0.051,0.141-0.089,0.274-0.115,0.411
	c-0.005,0.067-0.006,0.123-0.005,0.179c0.101,0.242,0.192,0.386,0.288,0.523c0.053,0.059,0.099,0.106,0.148,0.152
	c0.125,0.082,0.237,0.142,0.355,0.197c0.164,0.06,0.323,0.1,0.486,0.132c0.068,0.006,0.192,0.009,0.192,0.009l0.102-0.005
	c0.052-0.011,0.103-0.023,0.154-0.039c0.119-0.059,0.218-0.117,0.315-0.181c0.089-0.077,0.162-0.149,0.231-0.227
	c0.058-0.086,0.103-0.162,0.145-0.243c0.047-0.129,0.08-0.248,0.103-0.371c0.006-0.097,0.006-0.18,0-0.265
	c-0.024-0.141-0.053-0.272-0.092-0.401c-0.16-0.221-0.281-0.355-0.415-0.474c-0.061-0.042-0.113-0.073-0.169-0.102
	c-0.065-0.033-0.124-0.079-0.175-0.135l-0.037-0.041L20.233,7.022z"/>
</svg>