<?xml version="1.0" encoding="utf-8"?>
<!-- Generator: Adobe Illustrator 21.1.0, SVG Export Plug-In . SVG Version: 6.00 Build 0)  -->
<svg version="1.1" id="designs" xmlns="http://www.w3.org/2000/svg" xmlns:xlink="http://www.w3.org/1999/xlink" x="0px" y="0px"
	 width="32px" height="32px" viewBox="0 0 32 32" style="enable-background:new 0 0 32 32;" xml:space="preserve">
<style type="text/css">
	.sketchy_een{fill:#111918;}
</style>
<path class="sketchy_een" d="M30.992,16.284c-0.006-0.13-0.021-0.258-0.037-0.386c-0.033-0.26-0.052-0.53-0.151-0.777
	c-0.065-0.164-0.137-0.303-0.256-0.415c-0.033-0.421-0.068-0.841-0.082-1.265c-0.012-0.383-0.016-0.767-0.115-1.142
	c-0.118-0.445-0.297-0.88-0.528-1.28c-0.12-0.21-0.276-0.402-0.421-0.594c-0.142-0.188-0.289-0.355-0.458-0.52
	c-0.299-0.295-0.66-0.536-0.996-0.786c-0.303-0.223-0.617-0.431-0.934-0.635c-0.324-0.207-0.657-0.372-1.008-0.523
	c-1.617-0.678-3.363-0.97-5.095-1.169c-0.866-0.097-1.736-0.184-2.606-0.247c-0.533-0.037-1.068-0.051-1.602-0.051
	c-0.333,0-0.665,0.005-0.998,0.014c-0.812,0.023-1.625,0.031-2.433,0.12c-0.893,0.099-1.786,0.214-2.67,0.377
	C10.18,7.083,9.757,7.159,9.337,7.243S8.516,7.462,8.114,7.604C7.273,7.899,6.432,8.223,5.673,8.695
	c-0.171,0.107-0.33,0.237-0.489,0.359C4.97,9.218,4.757,9.385,4.562,9.571C4.248,9.87,3.972,10.2,3.687,10.526
	c-0.307,0.348-0.633,0.685-0.884,1.078c-0.217,0.34-0.429,0.685-0.614,1.045C1.766,13.472,1.3,14.284,1.116,15.2
	c-0.095,0.468-0.126,0.948-0.113,1.421c0.012,0.396,0.101,0.786,0.188,1.171C1.238,18,1.287,18.208,1.345,18.414
	c0.111,0.39,0.237,0.783,0.379,1.163c0.163,0.437,0.342,0.86,0.59,1.258c0.466,0.748,1.12,1.394,1.753,2.002
	c0.349,0.338,0.72,0.645,1.128,0.915c0.221,0.148,0.476,0.252,0.718,0.355c0.204,0.084,0.408,0.169,0.616,0.241
	c0.783,0.272,1.581,0.48,2.381,0.685c0.474,0.12,0.963,0.173,1.447,0.231c0.402,0.049,0.806,0.07,1.21,0.093
	c0.796,0.047,1.588,0.085,2.387,0.091c0.792,0.006,1.586,0.004,2.381,0.035c0.814,0.031,1.633,0.035,2.445-0.031
	c0.897-0.074,1.792-0.14,2.672-0.338c0.421-0.095,0.839-0.217,1.256-0.328c0.379-0.101,0.757-0.212,1.132-0.33
	c0.903-0.285,1.785-0.625,2.602-1.111c0.751-0.447,1.423-0.998,2.016-1.641c0.419-0.454,0.8-0.942,1.167-1.439
	c0.169-0.229,0.34-0.454,0.511-0.68c0.196-0.26,0.33-0.542,0.452-0.845c0.21-0.528,0.309-1.064,0.383-1.627
	C31.006,16.841,31.004,16.56,30.992,16.284z M2.763,15.86c0.06-0.344,0.147-0.668,0.271-0.996c0.205-0.453,0.437-0.893,0.658-1.337
	c0.237-0.474,0.5-0.933,0.807-1.367c0.264-0.33,0.541-0.649,0.818-0.969c0.29-0.337,0.61-0.631,0.955-0.909
	c0.453-0.326,0.929-0.579,1.436-0.806C8.363,9.208,9.034,8.95,9.722,8.784c0.691-0.163,1.392-0.288,2.094-0.393
	c0.698-0.087,1.394-0.17,2.094-0.226c0.775-0.062,1.552-0.08,2.33-0.093c1.576-0.025,3.141,0.137,4.704,0.334
	c1.422,0.201,2.851,0.478,4.192,1.004c0.177,0.079,0.354,0.161,0.529,0.249c0.219,0.113,0.423,0.249,0.631,0.383
	c0.38,0.246,0.747,0.511,1.11,0.782c0.256,0.204,0.488,0.418,0.695,0.669c0.091,0.125,0.181,0.25,0.264,0.38
	c0.077,0.119,0.136,0.249,0.195,0.378c0.099,0.254,0.187,0.513,0.241,0.78c0.037,0.383,0.044,0.77,0.071,1.153
	c0.031,0.472,0.058,0.944,0.072,1.416c0.006,0.246,0.115,0.471,0.286,0.624c0.021,0.344,0.013,0.687-0.025,1.032
	c-0.006,0.039-0.016,0.076-0.023,0.114c-0.005,0.001-0.009,0.001-0.014,0.002c-0.264,0.028-0.532,0.039-0.796,0.025
	c-0.116-0.024-0.23-0.053-0.343-0.088c-0.03-0.017-0.06-0.035-0.089-0.054c-0.065-0.059-0.127-0.121-0.186-0.186
	c-0.091-0.143-0.163-0.296-0.232-0.451c-0.066-0.162-0.132-0.324-0.207-0.482c-0.066-0.14-0.177-0.291-0.28-0.4
	c-0.146-0.155-0.384-0.34-0.602-0.383c-0.133-0.027-0.252-0.041-0.371-0.041c-0.123,0-0.246,0.015-0.382,0.047
	c-0.249,0.058-0.462,0.219-0.658,0.371c-0.221,0.175-0.381,0.398-0.546,0.623c-0.184,0.252-0.285,0.575-0.412,0.858
	c-0.122,0.277-0.27,0.542-0.443,0.791c-0.077,0.087-0.16,0.167-0.247,0.244c-0.078,0.053-0.157,0.1-0.239,0.145
	c-0.318,0.115-0.643,0.195-0.977,0.257c-0.131,0.01-0.26,0.012-0.391,0.003c-0.183-0.037-0.363-0.083-0.538-0.145
	c-0.002-0.001-0.004-0.002-0.006-0.003c-0.002-0.003-0.004-0.007-0.005-0.01c-0.017-0.048-0.031-0.098-0.042-0.147
	c-0.01-0.117-0.018-0.234-0.031-0.349c-0.017-0.163-0.039-0.326-0.064-0.487c-0.029-0.208-0.132-0.412-0.237-0.588
	c-0.109-0.186-0.266-0.301-0.433-0.427c-0.169-0.128-0.392-0.167-0.596-0.19c-0.441-0.05-0.961,0.109-1.284,0.419
	c-0.299,0.289-0.538,0.645-0.744,1.006c-0.135,0.237-0.274,0.46-0.432,0.68c-0.114,0.135-0.233,0.261-0.368,0.378
	c-0.216,0.152-0.449,0.286-0.687,0.399c-0.089,0.032-0.177,0.058-0.269,0.08c-0.158,0.012-0.315,0.011-0.473-0.001
	c-0.064-0.014-0.125-0.031-0.187-0.05c-0.063-0.032-0.125-0.066-0.185-0.103c-0.021-0.02-0.042-0.041-0.062-0.063
	c-0.016-0.026-0.03-0.053-0.044-0.081c-0.058-0.145-0.11-0.292-0.153-0.443c-0.047-0.167-0.08-0.34-0.14-0.501
	c-0.118-0.322-0.274-0.59-0.513-0.843c-0.221-0.231-0.518-0.348-0.829-0.386c-0.27-0.033-0.555,0.058-0.794,0.181
	c-0.39,0.198-0.732,0.489-1,0.835c-0.264,0.337-0.52,0.682-0.842,0.965c-0.044,0.03-0.089,0.059-0.136,0.085
	c-0.04,0.012-0.08,0.022-0.12,0.031c-0.152,0.005-0.302-0.007-0.452-0.023c-0.241-0.041-0.478-0.092-0.709-0.173
	c-0.09-0.046-0.176-0.096-0.259-0.151c-0.041-0.038-0.078-0.076-0.116-0.117c-0.168-0.231-0.316-0.471-0.444-0.728
	c-0.154-0.41-0.255-0.845-0.485-1.223c-0.134-0.221-0.33-0.383-0.548-0.52c-0.218-0.138-0.509-0.163-0.759-0.165
	c-0.305-0.002-0.608,0.148-0.864,0.301c-0.357,0.214-0.643,0.511-0.907,0.827c-0.296,0.357-0.586,0.714-0.943,1.014
	c-0.132,0.089-0.268,0.165-0.411,0.233c-0.169,0.06-0.343,0.105-0.517,0.15c-0.162-0.494-0.305-0.995-0.394-1.506
	C2.721,16.488,2.731,16.177,2.763,15.86z M21.194,18.441c-0.004-0.008-0.007-0.016-0.011-0.024l0-0.001
	C21.187,18.423,21.19,18.432,21.194,18.441z M21.179,18.408c-0.006-0.013-0.012-0.027-0.018-0.042
	c0.006,0.014,0.012,0.027,0.017,0.04C21.179,18.407,21.179,18.408,21.179,18.408z M6.889,17.399
	c-0.01-0.014-0.021-0.027-0.032-0.041c0,0,0.001,0,0.001,0C6.869,17.371,6.88,17.385,6.889,17.399z M6.836,17.356
	c-0.003,0.001-0.006,0.002-0.009,0.004C6.83,17.359,6.833,17.358,6.836,17.356L6.836,17.356z M6.817,17.323
	c-0.013-0.001-0.027-0.003-0.04-0.005c0.013,0.001,0.027,0.002,0.04,0.004L6.817,17.323z M26.273,21.441
	c-0.535,0.391-1.106,0.717-1.71,0.99c-0.75,0.295-1.523,0.534-2.303,0.737c-0.828,0.215-1.656,0.425-2.502,0.551
	c-0.787,0.09-1.575,0.146-2.368,0.137c-0.767-0.01-1.536-0.033-2.305-0.045c-0.794-0.014-1.586-0.027-2.381-0.078
	c-0.748-0.048-1.5-0.091-2.245-0.18c-1.273-0.193-2.525-0.532-3.728-0.985c-0.133-0.059-0.265-0.119-0.396-0.184
	c-0.156-0.078-0.301-0.18-0.446-0.279c-0.327-0.268-0.627-0.561-0.925-0.859c-0.309-0.307-0.605-0.627-0.88-0.965
	c-0.105-0.144-0.203-0.292-0.296-0.443c0.12-0.036,0.241-0.066,0.358-0.111c0.163-0.062,0.318-0.138,0.47-0.217
	c0.182-0.097,0.34-0.231,0.501-0.357c0.26-0.202,0.478-0.46,0.684-0.716c0.266-0.328,0.513-0.66,0.831-0.936
	c0.069-0.048,0.139-0.092,0.211-0.132c0.01,0.018,0.02,0.036,0.029,0.055c0.073,0.213,0.138,0.43,0.211,0.642
	c0.097,0.287,0.229,0.561,0.379,0.823c0.052,0.091,0.113,0.179,0.171,0.266c0.082,0.12,0.167,0.241,0.262,0.352
	c0.103,0.118,0.216,0.212,0.344,0.307c0.386,0.289,0.86,0.462,1.332,0.544c0.346,0.058,0.703,0.122,1.054,0.101
	c0.355-0.021,0.682-0.126,0.983-0.317c0.223-0.14,0.414-0.326,0.6-0.513c0.341-0.343,0.589-0.763,0.949-1.089
	c0.033-0.023,0.067-0.045,0.101-0.066c0.003,0.006,0.006,0.012,0.009,0.017c0.05,0.15,0.086,0.303,0.127,0.456
	c0.076,0.299,0.196,0.583,0.322,0.864c0.066,0.15,0.188,0.272,0.289,0.398c0.07,0.085,0.223,0.194,0.307,0.249
	c0.239,0.157,0.503,0.274,0.779,0.346c0.289,0.074,0.61,0.08,0.907,0.064c0.276-0.016,0.544-0.064,0.804-0.161
	c0.709-0.262,1.379-0.718,1.841-1.317c0.179-0.227,0.351-0.454,0.501-0.701c0.101-0.167,0.205-0.328,0.317-0.483
	c0.006-0.007,0.012-0.014,0.018-0.021c0.001,0.018,0.002,0.036,0.003,0.053c0.01,0.157,0.016,0.317,0.047,0.47
	c0.047,0.229,0.132,0.431,0.225,0.647c0.072,0.167,0.216,0.326,0.357,0.437c0.183,0.146,0.328,0.225,0.546,0.315
	c0.183,0.076,0.369,0.124,0.561,0.173c0.765,0.192,1.563,0.039,2.315-0.157c0.482-0.124,0.86-0.386,1.233-0.703
	c0.208-0.177,0.363-0.412,0.518-0.629c0.074-0.105,0.14-0.216,0.204-0.326c0.189-0.318,0.326-0.664,0.51-0.983
	c0.046,0.1,0.092,0.201,0.141,0.299c0.217,0.429,0.596,0.798,1.008,1.045c0.227,0.136,0.501,0.192,0.759,0.245
	c0.156,0.033,0.312,0.046,0.467,0.05c-0.162,0.217-0.323,0.434-0.485,0.649C27.396,20.373,26.876,20.945,26.273,21.441z
	 M26.028,7.97c-0.008-0.003-0.015-0.006-0.023-0.01c-0.021-0.009-0.042-0.018-0.063-0.027l0,0c-0.017-0.007-0.034-0.014-0.051-0.022
	c0.02,0.008,0.039,0.017,0.059,0.025c0.065,0.026,0.128,0.054,0.193,0.082C26.105,8.003,26.067,7.987,26.028,7.97z M12.389,11.884
	c0.21-0.122,0.408-0.117,0.639-0.083c0.203,0.032,0.407,0.061,0.609,0.09c0.498,0.058,0.996,0.116,1.496,0.124
	c0.476,0.006,0.951,0.006,1.427-0.016c0.493-0.023,0.988-0.085,1.484-0.122c0.47-0.034,0.939-0.075,1.407-0.133
	c0.185-0.027,0.369-0.057,0.552-0.096c0.078-0.016,0.157-0.025,0.234-0.025c0.232,0,0.454,0.078,0.63,0.254
	c0.167,0.165,0.26,0.394,0.26,0.629s-0.093,0.462-0.26,0.629c-0.179,0.179-0.384,0.235-0.629,0.26
	c-0.617,0.062-1.235,0.132-1.856,0.175c-0.311,0.019-0.621,0.041-0.932,0.064c-0.295,0.023-0.594,0.06-0.889,0.06
	c-0.596,0-1.196-0.004-1.79-0.049c-0.732-0.056-1.456-0.14-2.183-0.245c-0.2-0.029-0.398-0.216-0.495-0.381
	c-0.113-0.192-0.142-0.425-0.083-0.639C12.064,12.174,12.204,11.993,12.389,11.884z M6.219,12.812c0-0.46,0.384-0.845,0.845-0.845
	s0.845,0.385,0.845,0.845s-0.385,0.845-0.845,0.845S6.219,13.273,6.219,12.812z M24.088,12.664c0-0.46,0.384-0.845,0.845-0.845
	c0.46,0,0.845,0.384,0.845,0.845s-0.384,0.845-0.845,0.845C24.472,13.508,24.088,13.124,24.088,12.664z M10.033,15.012
	c0-0.412,0.346-0.757,0.757-0.757s0.757,0.346,0.757,0.757s-0.346,0.757-0.757,0.757S10.033,15.424,10.033,15.012z M20.974,14.085
	c0.454,0,0.831,0.377,0.831,0.831s-0.377,0.831-0.831,0.831c-0.454,0-0.831-0.377-0.831-0.831S20.52,14.085,20.974,14.085z
	 M16.906,16.216c0,0.46-0.384,0.845-0.845,0.845s-0.845-0.385-0.845-0.845s0.384-0.845,0.845-0.845S16.906,15.756,16.906,16.216z
	 M10.973,9.771c0-0.4,0.332-0.732,0.732-0.732c0.4,0,0.732,0.332,0.732,0.732s-0.332,0.732-0.732,0.732
	C11.305,10.503,10.973,10.171,10.973,9.771z M19.301,10.002c0-0.454,0.381-0.835,0.835-0.835c0.454,0,0.835,0.381,0.835,0.835
	c0,0.454-0.381,0.835-0.835,0.835C19.682,10.837,19.301,10.456,19.301,10.002z M15.113,10.787c0-0.46,0.384-0.845,0.845-0.845
	c0.46,0,0.845,0.385,0.845,0.845s-0.384,0.845-0.845,0.845C15.497,11.632,15.113,11.247,15.113,10.787z"/>
</svg>