<?xml version="1.0" encoding="utf-8"?>
<!-- Generator: Adobe Illustrator 21.1.0, SVG Export Plug-In . SVG Version: 6.00 Build 0)  -->
<svg version="1.1" id="designs" xmlns="http://www.w3.org/2000/svg" xmlns:xlink="http://www.w3.org/1999/xlink" x="0px" y="0px"
	 width="32px" height="32px" viewBox="0 0 32 32" style="enable-background:new 0 0 32 32;" xml:space="preserve">
<style type="text/css">
	.sketchy_een{fill:#111918;}
</style>
<path class="sketchy_een" d="M29.216,18.605c-0.2,0-0.382,0.084-0.523,0.212c-0.027,0.001-0.053,0.001-0.08,0.002
	c-0.049-0.68-0.099-1.361-0.145-2.041c-0.053-0.761-0.057-1.519-0.057-2.28c0-0.782,0.006-1.564-0.002-2.347
	c-0.01-0.823-0.059-1.651-0.243-2.456c-0.178-0.79-0.68-1.435-1.259-1.978c-0.149-0.139-0.308-0.263-0.469-0.386
	c-0.192-0.147-0.404-0.237-0.625-0.329c-0.171-0.069-0.361-0.096-0.541-0.122c-0.214-0.031-0.428-0.05-0.643-0.069
	c-0.119-0.059-0.245-0.098-0.391-0.115c-0.36-0.042-0.712-0.08-1.073-0.08c-0.009,0-0.018,0-0.027,0
	c-0.365,0.004-0.729,0.012-1.096,0.02c-0.765,0.018-1.523,0.063-2.286,0.116c-0.804,0.057-1.606,0.118-2.411,0.135
	c-0.819,0.016-1.637,0.022-2.456,0.025c-1.486,0.008-2.974,0.027-4.46,0.059C9.745,6.983,9.061,7.015,8.381,7.068
	c-0.392,0.029-0.79,0.059-1.174,0.145c-0.26,0.059-0.509,0.139-0.755,0.229C6.437,7.441,6.424,7.431,6.409,7.431
	c-0.133,0-0.266,0.035-0.385,0.11C5.497,7.88,5.081,8.315,4.719,8.823C4.599,8.99,4.497,9.186,4.407,9.37
	c-0.112,0.229-0.212,0.465-0.3,0.704c-0.151,0.398-0.198,0.839-0.253,1.259c-0.049,0.371-0.084,0.741-0.1,1.114
	c-0.031,0.708,0.024,1.417,0.053,2.123c0.033,0.749,0.029,1.496,0.08,2.243c0.039,0.569,0.047,1.137,0.054,1.706
	c-0.25-0.005-0.5-0.004-0.75-0.012c-0.008,0-0.015,0-0.022,0c-0.033,0-0.062,0.016-0.095,0.021
	c-0.054-0.012-0.105-0.034-0.162-0.034c-0.435,0-0.788,0.361-0.792,0.792c-0.004,0.472-0.006,0.947,0,1.419
	c0.002,0.186,0.006,0.374,0.01,0.561c0.001,0.079,0.003,0.158,0.005,0.237c-0.044,0.067-0.085,0.136-0.107,0.213
	c-0.055,0.2-0.027,0.418,0.078,0.596c0.108,0.186,0.267,0.282,0.463,0.357c0.352,0.132,0.704,0.265,1.053,0.407
	c0.179,0.079,0.357,0.164,0.523,0.267c0.096,0.061,0.19,0.126,0.285,0.186c0.021,0.349,0.017,0.7,0.003,1.051
	c-0.115,0.134-0.193,0.303-0.193,0.488c0,0.374,0.284,0.677,0.642,0.737c0.111,0.053,0.228,0.089,0.347,0.089
	c0.112,0,0.22-0.025,0.319-0.068c0.2-0.001,0.4-0.001,0.6-0.003c0.478-0.004,0.957-0.01,1.435-0.006
	c0.77,0.008,1.539,0.076,2.309,0.1c0.776,0.025,1.553,0.067,2.329,0.076c0.802,0.01,1.604,0.012,2.405-0.008
	c0.806-0.02,1.609-0.065,2.415-0.075c0.825-0.012,1.651-0.008,2.476-0.004c0.782,0.004,1.564,0.014,2.349,0.014
	c0.77,0.002,1.539-0.026,2.309-0.031c0.925-0.006,1.855-0.022,2.778,0.012c0.467,0.018,0.855-0.4,0.855-0.855
	c0.07-0.161,0.083-0.34,0.049-0.525c-0.012-0.065-0.023-0.129-0.033-0.194c-0.021-0.217-0.033-0.433-0.044-0.651
	c-0.006-0.127-0.008-0.255-0.012-0.384c-0.002-0.048-0.005-0.097-0.009-0.145c0.188-0.124,0.38-0.241,0.567-0.363
	c0.4-0.261,0.784-0.537,1.161-0.829c0.027-0.021,0.039-0.061,0.061-0.089c0.258-0.127,0.445-0.389,0.442-0.692
	c-0.006-0.594,0.006-1.19,0.008-1.784C30,18.962,29.641,18.605,29.216,18.605z M5.318,15.069c-0.002-0.612-0.031-1.221-0.041-1.831
	c-0.009-0.551,0.017-1.098,0.083-1.644c0.065-0.412,0.152-0.815,0.296-1.208c0.125-0.28,0.269-0.555,0.445-0.806
	C6.259,9.39,6.429,9.21,6.613,9.046c0.064-0.044,0.129-0.086,0.196-0.128c0.363-0.142,0.728-0.259,1.115-0.326
	C8.643,8.52,9.365,8.5,10.086,8.479c0.823-0.024,1.647-0.049,2.47-0.057c0.831-0.008,1.662,0.002,2.494,0.006
	c0.814,0.002,1.629,0.023,2.445,0.004c1.076-0.027,2.149-0.098,3.225-0.143c0.531-0.022,1.065-0.029,1.596-0.027
	c0.463,0.004,0.925-0.008,1.383,0.043c0.179,0.026,0.36,0.051,0.54,0.075c0.055,0.007,0.113,0.002,0.172-0.011
	c0.022,0.003,0.04,0.011,0.062,0.013c0.177,0.015,0.355,0.028,0.531,0.047c0.116,0.021,0.228,0.047,0.339,0.085
	c0.068,0.036,0.132,0.076,0.195,0.12c0.247,0.21,0.477,0.444,0.685,0.693c0.109,0.151,0.204,0.307,0.287,0.474
	c0.105,0.288,0.168,0.585,0.217,0.888c0.076,0.678,0.089,1.36,0.1,2.042c0.012,0.712,0.01,1.423,0.01,2.135
	c0,0.694,0.031,1.382,0.08,2.074c0.043,0.633,0.1,1.265,0.141,1.897c-0.122,0-0.245,0-0.367,0c-0.186,0-0.371,0-0.555,0
	c-0.592,0-1.186,0.002-1.774-0.018c-0.819-0.026-1.637-0.063-2.456-0.092c-0.812-0.027-1.623-0.033-2.435-0.045
	c-0.447-0.006-0.89-0.006-1.335-0.006c-0.365,0-0.729,0-1.092-0.004c-0.806-0.008-1.611-0.027-2.415-0.055
	c-0.786-0.029-1.574-0.037-2.36-0.037c-0.772-0.002-1.545-0.018-2.317-0.01c-1.086,0.014-2.17,0.008-3.254-0.008
	c-0.42-0.006-0.839-0.015-1.259-0.02C5.406,17.383,5.322,16.228,5.318,15.069z M28.389,20.917c-0.282,0.215-0.568,0.421-0.859,0.622
	c-0.274,0.188-0.563,0.345-0.845,0.519c-0.206,0.125-0.339,0.302-0.42,0.527c-0.057,0.161-0.041,0.327-0.029,0.492
	c0.016,0.19,0.027,0.382,0.037,0.572c0.01,0.183,0.02,0.366,0.03,0.549c-1.303,0.015-2.605,0.027-3.906,0.074
	c-0.782,0.029-1.564,0.018-2.347,0.031c-0.823,0.014-1.649,0.006-2.472,0.012c-1.59,0.014-3.176,0.145-4.766,0.143
	c-1.562-0.004-3.119-0.053-4.68-0.1c-0.694-0.021-1.391-0.026-2.087-0.034c0-0.155-0.001-0.309-0.001-0.464
	c0-0.296,0.02-0.61-0.047-0.9c-0.086-0.372-0.308-0.653-0.68-0.774c-0.053-0.017-0.106-0.033-0.158-0.05
	c-0.117-0.059-0.232-0.125-0.347-0.185c-0.155-0.078-0.314-0.149-0.472-0.22c-0.215-0.095-0.434-0.178-0.651-0.266
	c-0.01-0.272-0.009-0.546-0.006-0.818c0.002-0.193,0.005-0.387,0.008-0.58c0.271,0.003,0.541,0.007,0.813,0.007
	c0.392,0,0.784,0,1.178,0.006c0.768,0.014,1.537,0.059,2.305,0.067c1.561,0.018,3.121,0.016,4.682,0.057
	c1.6,0.041,3.199,0.082,4.799,0.076c1.633-0.004,3.264-0.004,4.897,0.053c1.112,0.037,2.225,0.084,3.339,0.112
	c0.531,0.014,1.061,0.026,1.592,0.027c0.259,0.002,0.519-0.002,0.78-0.004c0.12-0.001,0.241-0.001,0.361-0.001
	c0.001,0.137,0.002,0.274,0.002,0.411c-0.005,0.004-0.01,0.006-0.016,0.01C28.413,20.899,28.401,20.907,28.389,20.917z
	 M23.182,10.919c-0.298-0.304-0.304-0.8,0-1.104c0.149-0.149,0.354-0.226,0.558-0.226c0.201,0,0.4,0.074,0.546,0.226
	c0.322,0.333,0.629,0.688,0.829,1.11c0.155,0.323,0.255,0.659,0.323,1.01c0.125,0.625,0.178,1.274,0.214,1.911
	c0.018,0.308,0.023,0.616,0.037,0.923c0.012,0.304,0.035,0.606,0.051,0.91c0.029,0.574,0.045,1.151,0.092,1.725
	c0.033,0.416-0.374,0.763-0.765,0.763c-0.202,0-0.398-0.08-0.539-0.224c-0.153-0.151-0.208-0.331-0.224-0.539
	c-0.031-0.384-0.047-0.77-0.065-1.155c-0.022-0.441-0.057-0.882-0.08-1.325c-0.037-0.756-0.053-1.512-0.141-2.266
	c-0.049-0.306-0.109-0.608-0.21-0.901c-0.078-0.161-0.168-0.31-0.271-0.457C23.422,11.169,23.304,11.045,23.182,10.919z"/>
</svg>