<?xml version="1.0" encoding="utf-8"?>
<!-- Generator: Adobe Illustrator 21.1.0, SVG Export Plug-In . SVG Version: 6.00 Build 0)  -->
<svg version="1.1" id="designs" xmlns="http://www.w3.org/2000/svg" xmlns:xlink="http://www.w3.org/1999/xlink" x="0px" y="0px"
	 width="32px" height="32px" viewBox="0 0 32 32" style="enable-background:new 0 0 32 32;" xml:space="preserve">
<style type="text/css">
	.sketchy_een{fill:#111918;}
</style>
<path class="sketchy_een" d="M29.986,20.722c-0.031-0.376-0.026-0.754-0.045-1.133c-0.02-0.337-0.047-0.676-0.067-1.013
	c-0.035-0.585-0.065-1.164-0.073-1.75c-0.014-0.768-0.075-1.537-0.091-2.305c-0.02-0.851-0.079-1.7-0.073-2.551
	c0.008-0.991,0.028-1.978,0.008-2.969c-0.002-0.094-0.029-0.182-0.058-0.268c0.05-0.106,0.083-0.219,0.083-0.337
	c0-0.417-0.361-0.812-0.794-0.794c-0.583,0.026-1.172-0.016-1.757-0.025c-0.715-0.012-1.428-0.053-2.142-0.083
	c-0.39-0.016-0.781-0.014-1.171-0.02c-0.009-0.254-0.025-0.507-0.035-0.762c-0.016-0.396-0.035-0.79-0.047-1.186
	c-0.014-0.398-0.031-0.792-0.02-1.188c0.014-0.499,0.024-0.995,0.028-1.491C23.735,2.386,23.343,2,22.884,2
	c-0.024,0-0.044,0.012-0.067,0.014C22.798,2.012,22.78,2,22.762,2c-0.016,0-0.033,0.001-0.049,0.002
	c-0.242,0.024-0.485,0.028-0.729,0.034c-0.301,0.006-0.601,0.023-0.902,0.02c-0.78-0.008-1.558-0.008-2.339-0.002
	c-1.598,0.01-3.194,0.061-4.791,0.043C11.709,2.073,9.463,2.093,7.223,2.18c-0.007,0-0.013,0.004-0.02,0.005
	C7.138,2.168,7.076,2.144,7.008,2.144c-0.465,0-0.861,0.39-0.857,0.857C6.158,3.823,6.19,4.645,6.18,5.466
	c-0.008,0.725-0.006,1.45-0.018,2.175c0,0.027,0.013,0.051,0.016,0.078c-1.061,0.019-2.123,0.013-3.183,0.1
	c-0.232,0.018-0.43,0.079-0.599,0.246c-0.158,0.16-0.248,0.376-0.248,0.599c0,0.131,0.038,0.254,0.095,0.37
	c0.001,1.844-0.069,3.689-0.078,5.534c-0.004,0.845-0.016,1.688-0.014,2.534c0.002,0.747,0.004,1.496-0.02,2.242
	c-0.016,0.556,0.005,1.11-0.037,1.666c-0.05,0.105-0.082,0.221-0.082,0.345c0,0.441,0.376,0.843,0.829,0.83
	c0.632-0.02,1.265-0.043,1.895-0.063c0.244-0.008,0.487-0.016,0.729-0.008c0.052,0.002,0.103,0.002,0.155,0.006
	c-0.012,0.25-0.026,0.501-0.033,0.751c-0.024,0.877-0.041,1.756-0.055,2.632c-0.006,0.39-0.018,0.782-0.004,1.172
	c0.012,0.343,0.055,0.684,0.085,1.024c0.026,0.313,0.045,0.634,0.041,0.95c0,0.098-0.004,0.195,0,0.292
	c0.012,0.232,0.053,0.425,0.156,0.636c0.164,0.343,0.619,0.489,0.965,0.394c0.121-0.034,0.227-0.1,0.321-0.181
	c0.879-0.067,1.754-0.188,2.633-0.254c0.892-0.069,1.785-0.101,2.679-0.11c1.663-0.02,3.326-0.038,4.986-0.053
	c1.21-0.014,2.417-0.059,3.627-0.065c0.611-0.002,1.223,0.004,1.834,0.006c0.301,0.002,0.601,0.004,0.902,0.006
	c0.294,0.002,0.591,0.021,0.882-0.001c0.162,0.159,0.387,0.263,0.598,0.263c0.475,0,0.804-0.38,0.833-0.833
	c0.012-0.207-0.006-0.421-0.012-0.628c-0.006-0.276-0.006-0.552-0.01-0.827c-0.012-0.737-0.026-1.472-0.03-2.209
	c-0.003-0.959-0.035-1.917-0.068-2.875c0.1,0.041,0.206,0.065,0.319,0.061c0.498-0.018,0.995-0.042,1.491-0.077
	c0.256-0.018,0.514-0.034,0.768-0.077c0.114-0.02,0.223-0.069,0.337-0.09c0.259-0.048,0.458-0.269,0.546-0.516
	C29.742,21.391,30.016,21.083,29.986,20.722z M12.318,3.667c0.826-0.01,1.651-0.026,2.478-0.024c0.784,0.002,1.572,0.01,2.356-0.004
	c1.062-0.016,2.126-0.043,3.188-0.012c0.465,0.014,0.928,0.012,1.393,0.036c0.106,0.005,0.213,0.001,0.321,0.006
	c0.004,0.201,0.004,0.401,0.011,0.602c0.014,0.404,0.045,0.806,0.067,1.208c0.037,0.658,0.062,1.318,0.078,1.977
	c-0.148,0-0.297,0-0.445,0.001c-0.424,0.002-0.849,0.002-1.271,0c-1.602-0.008-3.202,0.01-4.803,0.037
	c-0.833,0.014-1.667,0.018-2.5,0.036c-0.82,0.018-1.639,0.057-2.457,0.073c-0.979,0.021-1.959,0.05-2.938,0.08
	c0.001-0.014,0.008-0.027,0.008-0.041c-0.012-0.715-0.01-1.431,0-2.144c0.008-0.547,0.025-1.092,0.04-1.637
	c0.665-0.045,1.328-0.099,1.994-0.13C10.665,3.693,11.49,3.677,12.318,3.667z M23.396,27.761c-0.38-0.002-0.762-0.002-1.143-0.004
	c-0.853-0.004-1.708,0.002-2.563,0.018c-1.663,0.035-3.328,0.02-4.99,0.02c-1.229,0-2.459,0.049-3.688,0.073
	c-1.231,0.026-2.461,0.108-3.69,0.176c0.001-0.104,0.003-0.207,0.001-0.31c-0.01-0.341-0.045-0.684-0.069-1.024
	c-0.055-0.798-0.049-1.6-0.055-2.399c-0.008-0.895,0.006-1.789,0.071-2.682c0.067-0.941,0.122-1.881,0.161-2.825
	c0.016-0.364,0.012-0.728,0.011-1.093c0.028-0.001,0.056-0.005,0.083-0.006c0.826-0.045,1.649-0.051,2.473-0.061
	c0.843-0.01,1.686-0.038,2.53-0.079c0.855-0.041,1.708-0.094,2.563-0.112c1.675-0.035,3.347-0.069,5.018-0.165
	c0.835-0.047,1.669-0.093,2.506-0.097c0.505-0.002,1.01-0.012,1.515-0.013c0.092,1.738,0.162,3.478,0.23,5.218
	c0.061,1.57-0.01,3.144,0.043,4.712c0.008,0.215,0.008,0.431,0.009,0.646C24.075,27.772,23.732,27.765,23.396,27.761z
	 M27.362,20.507c-0.365,0.002-0.727,0.002-1.09,0.01c-0.13,0.003-0.251,0.037-0.362,0.089c-0.005-0.212-0.015-0.424-0.017-0.637
	c-0.011-0.934-0.008-1.866-0.038-2.798c0.061-0.007,0.121-0.02,0.178-0.039c0.031,0.004,0.058,0.019,0.09,0.019
	c0.169,0,0.343-0.014,0.51,0.008c0.156,0,0.301-0.039,0.435-0.116c0.193-0.114,0.337-0.299,0.396-0.516
	c0.061-0.223,0.03-0.465-0.087-0.664c-0.104-0.177-0.305-0.358-0.514-0.396c-0.25-0.045-0.489-0.049-0.741-0.049
	c-0.105,0-0.203,0.025-0.297,0.061c-0.001,0-0.003-0.001-0.004-0.001c-0.017,0-0.033,0-0.049,0.002
	c-0.333,0.033-0.666,0.041-0.999,0.077c-0.4,0.042-0.802,0.055-1.202,0.067c-0.82,0.024-1.639,0.032-2.457,0.079
	c-0.806,0.045-1.61,0.122-2.415,0.159c-0.871,0.04-1.74,0.067-2.61,0.091c-0.808,0.02-1.617,0.027-2.425,0.047
	c-0.875,0.023-1.75,0.043-2.624,0.057c-0.833,0.014-1.669,0.002-2.502,0.016c-0.827,0.012-1.657,0.043-2.484,0.081
	c-0.343,0.016-0.686,0.037-1.028,0.061c-0.23,0.016-0.435,0.081-0.603,0.25c-0.16,0.16-0.25,0.378-0.25,0.603
	c0,0.227,0.091,0.445,0.25,0.604c0.148,0.148,0.388,0.268,0.603,0.249c0.231-0.02,0.462-0.043,0.692-0.065
	c0.007,0.786,0.01,1.571-0.013,2.356c-0.003,0.106-0.01,0.211-0.014,0.317c-0.297,0.007-0.593,0.02-0.892,0.013
	c-0.313-0.007-0.626-0.01-0.94-0.013c0.004-0.43,0.022-0.859,0.032-1.289c0.016-0.762,0.008-1.525,0.012-2.287
	c0.006-0.849-0.002-1.701,0.002-2.549c0.006-0.885-0.018-1.768,0.012-2.652c0.014-0.4,0.045-0.8,0.069-1.2
	c0.023-0.37,0.027-0.741,0.034-1.111C4.558,9.4,5.096,9.355,5.637,9.327c0.412-0.022,0.826-0.03,1.237-0.049
	C7.299,9.256,7.723,9.226,8.147,9.21c0.861-0.036,1.724-0.045,2.587-0.063c0.402-0.01,0.806-0.004,1.208-0.018
	c0.416-0.014,0.831-0.035,1.249-0.045c1.627-0.037,3.255-0.075,4.882-0.075c1.55,0,3.101,0.008,4.652-0.006
	c0.56-0.006,1.121-0.008,1.681,0c0.593,0.006,1.18,0.043,1.771,0.079c0.473,0.03,0.946,0.067,1.419,0.071
	c0.103,0.001,0.205,0.004,0.307,0.006c0.014,0.44,0.028,0.881,0.048,1.323C27.969,10.9,28,11.32,28,11.738
	c0.004,0.826,0.032,1.647,0.055,2.471c0.012,0.421,0.014,0.845,0.035,1.267c0.02,0.375,0.045,0.747,0.059,1.121
	c0.014,0.331,0.014,0.66,0.018,0.989c0.002,0.272,0.041,0.542,0.055,0.814c0.018,0.351,0.028,0.701,0.051,1.052
	c0.022,0.337,0.035,0.679,0.031,1.017c-0.048,0.009-0.097,0.011-0.145,0.02C27.896,20.509,27.627,20.503,27.362,20.507z
	 M11.839,21.664c0-0.467,0.392-0.863,0.861-0.861c0.69,0.006,1.379,0.065,2.071,0.047c0.524-0.014,1.048-0.008,1.572-0.004
	c0.883,0.01,1.765,0.02,2.646,0.012c0.457-0.004,0.837,0.384,0.837,0.837c0,0.465-0.38,0.824-0.837,0.835
	c-0.455,0.012-0.914,0.012-1.369,0.008c-0.426-0.002-0.851,0.006-1.277,0.008c-0.542,0.006-1.08,0.008-1.62-0.006
	c-0.674-0.02-1.35-0.02-2.023-0.016C12.231,22.529,11.839,22.131,11.839,21.664z M19.858,24.5c0,0.225-0.091,0.443-0.25,0.603
	c-0.142,0.142-0.392,0.276-0.603,0.25c-0.232-0.031-0.471-0.025-0.705-0.047c-0.213-0.02-0.43-0.024-0.642-0.028
	c-0.288-0.006-0.577-0.027-0.865-0.029c-0.29-0.004-0.581,0.023-0.873,0.027c-0.573,0.012-1.149,0.012-1.722,0.018
	c-0.583,0.006-1.164,0.042-1.748,0.04c-0.449-0.002-0.823-0.372-0.823-0.823c0-0.443,0.374-0.832,0.823-0.824
	c0.583,0.01,1.164,0.04,1.748,0.025c0.573-0.012,1.149-0.027,1.722-0.051c0.579-0.021,1.158-0.049,1.738-0.051
	c0.225,0,0.449,0,0.674,0.01c0.225,0.012,0.449,0.039,0.674,0.027C19.469,23.621,19.858,24.053,19.858,24.5z M8.714,13.857
	c0,0.467-0.39,0.857-0.857,0.857C7.39,14.714,7,14.324,7,13.857S7.39,13,7.857,13C8.324,13,8.714,13.39,8.714,13.857z
	 M11.714,13.857c0,0.467-0.39,0.857-0.857,0.857c-0.467,0-0.857-0.39-0.857-0.857S10.39,13,10.857,13
	C11.324,13,11.714,13.39,11.714,13.857z"/>
</svg>