<?xml version="1.0" encoding="utf-8"?>
<!-- Generator: Adobe Illustrator 21.1.0, SVG Export Plug-In . SVG Version: 6.00 Build 0)  -->
<svg version="1.1" id="designs" xmlns="http://www.w3.org/2000/svg" xmlns:xlink="http://www.w3.org/1999/xlink" x="0px" y="0px"
	 width="32px" height="32px" viewBox="0 0 32 32" style="enable-background:new 0 0 32 32;" xml:space="preserve">
<style type="text/css">
	.sketchy_een{fill:#111918;}
</style>
<path class="sketchy_een" d="M27.484,27.451c-0.011-0.138-0.032-0.276-0.06-0.414c-0.028-0.147-0.089-0.28-0.149-0.42
	c-0.072-0.168-0.282-0.301-0.45-0.346c-0.076-0.021-0.156-0.019-0.234-0.016c-0.099-0.115-0.221-0.213-0.376-0.26
	c-0.118-0.037-0.237-0.046-0.356-0.046c-0.076,0-0.152,0.004-0.228,0.007c-0.123,0.005-0.245,0.008-0.367,0.011
	c0.023-0.076,0.042-0.154,0.05-0.24c0.038-0.365,0.032-0.732,0.026-1.099c-0.004-0.342,0.002-0.683-0.002-1.025
	c-0.009-0.753,0.007-1.507,0.012-2.26c0.282-0.106,0.529-0.282,0.671-0.582c0.183-0.39,0.242-0.809,0.267-1.237
	c0.023-0.386,0.025-0.796-0.091-1.167c-0.108-0.339-0.316-0.647-0.639-0.807c-0.272-0.136-0.562-0.183-0.862-0.217
	c-0.351-0.039-0.702-0.052-1.053-0.052c-0.407,0-0.814,0.017-1.222,0.032c-0.123,0.005-0.246,0.006-0.369,0.011
	c0.002-0.252-0.008-0.505-0.015-0.757c-0.011-0.359-0.023-0.719-0.025-1.076c-0.003-0.68-0.003-1.359-0.005-2.038
	c0.236,0.003,0.472-0.01,0.702-0.077c0.59-0.17,0.995-0.707,1.131-1.288c0.049-0.217,0.068-0.441,0.085-0.662
	c0.021-0.286,0.044-0.596-0.068-0.864c-0.068-0.17-0.14-0.312-0.272-0.444c-0.091-0.091-0.227-0.185-0.344-0.248
	c-0.206-0.11-0.437-0.182-0.664-0.233c-0.31-0.07-0.634-0.093-0.949-0.121c-0.315-0.028-0.632-0.037-0.947-0.037
	c-0.065,0-0.13,0-0.195,0.001c-0.471,0.003-0.941,0.026-1.412,0.044c-0.004-0.557,0.016-1.113,0-1.672
	c-0.009-0.355-0.049-0.709-0.106-1.061c-0.054-0.336-0.193-0.645-0.346-0.947c0.124-0.15,0.235-0.308,0.323-0.486
	c0.055-0.115,0.106-0.233,0.151-0.35c0.045-0.123,0.053-0.265,0.068-0.391c0.025-0.182,0.011-0.376-0.011-0.558
	c-0.03-0.265-0.083-0.473-0.212-0.711c-0.1-0.189-0.252-0.352-0.407-0.497c-0.062-0.057-0.123-0.115-0.189-0.168
	c-0.168-0.132-0.265-0.189-0.467-0.269c-0.074-0.028-0.151-0.045-0.227-0.064c-0.208-0.045-0.421-0.093-0.634-0.093
	c-0.036,0-0.072,0.001-0.109,0.004c-0.356,0.03-0.679,0.104-0.991,0.276c-0.102,0.057-0.206,0.106-0.304,0.168
	c-0.108,0.069-0.2,0.151-0.287,0.238c-0.075-0.125-0.161-0.242-0.268-0.347c-0.13-0.13-0.282-0.244-0.446-0.329
	C14.292,2.095,13.945,2,13.589,2c-0.116,0-0.232,0.01-0.35,0.031c-0.127,0.023-0.25,0.057-0.373,0.098
	c-0.066,0.021-0.13,0.049-0.195,0.076c-0.089,0.036-0.176,0.074-0.261,0.113c-0.138,0.064-0.25,0.168-0.369,0.261
	c-0.276,0.214-0.446,0.548-0.554,0.872c-0.021,0.064-0.032,0.138-0.045,0.204c-0.038,0.193-0.066,0.393-0.049,0.59
	c0.019,0.234,0.051,0.471,0.115,0.696c0.076,0.265,0.238,0.499,0.405,0.711c0.037,0.047,0.081,0.086,0.121,0.129
	c-0.142,0.19-0.244,0.397-0.336,0.617c-0.155,0.369-0.216,0.773-0.261,1.169c-0.036,0.297-0.042,0.596-0.043,0.894
	c-0.004,0.363-0.008,0.726-0.006,1.089c0.001,0.064,0.023,0.121,0.038,0.18c-0.202,0.008-0.403,0.017-0.605,0.022
	c-0.418,0.013-0.836,0.019-1.254,0.028c-0.492,0.011-0.97,0.062-1.454,0.151C8.026,9.948,7.939,9.965,7.852,9.984
	c-0.17,0.034-0.323,0.096-0.484,0.166c-0.078,0.034-0.208,0.144-0.252,0.185c-0.091,0.087-0.164,0.187-0.236,0.291
	c-0.093,0.134-0.149,0.31-0.189,0.471c-0.087,0.356-0.13,0.756-0.006,1.106c0.148,0.41,0.408,0.756,0.751,1.021
	c0.106,0.082,0.204,0.15,0.316,0.191c0.111,0.095,0.252,0.15,0.403,0.176c-0.002,0.022-0.013,0.041-0.013,0.063
	c-0.003,1.307,0.03,2.615,0.031,3.922c-0.406,0.035-0.814,0.065-1.218,0.114c-0.333,0.04-0.675,0.057-0.993,0.163
	c-0.391,0.13-0.694,0.401-0.874,0.772c-0.087,0.18-0.151,0.363-0.178,0.56c-0.017,0.123-0.032,0.229-0.032,0.35
	c0.002,0.142,0.028,0.286,0.059,0.426c0.061,0.291,0.272,0.531,0.469,0.743c0.151,0.164,0.303,0.312,0.492,0.437
	c0.102,0.066,0.222,0.114,0.346,0.151c-0.006,0.039-0.024,0.074-0.023,0.115c0.031,1.598,0.081,3.198,0.065,4.797
	c-0.205-0.002-0.41-0.004-0.615-0.004c-0.044,0-0.083,0.018-0.125,0.026c-0.056-0.012-0.113-0.023-0.17-0.023
	c-0.144,0-0.288,0.038-0.414,0.112C4.8,26.41,4.62,26.603,4.59,26.802c-0.036,0.225-0.068,0.452-0.093,0.679
	c-0.019,0.189-0.002,0.39,0.015,0.579c0.021,0.225,0.047,0.452,0.108,0.671c0.093,0.34,0.306,0.641,0.596,0.841
	c0.373,0.257,0.834,0.342,1.275,0.38C6.872,29.985,7.254,29.998,7.636,30c0.722,0.004,1.447-0.026,2.169-0.032
	c0.777-0.008,1.554-0.03,2.332-0.036c0.737-0.006,1.477-0.019,2.213-0.045c0.764-0.03,1.528-0.043,2.29-0.079
	c1.467-0.066,2.937-0.013,4.404,0.006c0.681,0.009,1.363,0.011,2.044,0.023c0.588,0.009,1.174,0.032,1.762,0.038
	c0.38,0.002,0.756,0.008,1.133-0.051c0.14-0.023,0.274-0.057,0.407-0.108c0.238-0.093,0.412-0.202,0.613-0.357
	c0.416-0.323,0.516-0.881,0.509-1.379C27.507,27.802,27.498,27.626,27.484,27.451z M15.914,9.63
	c-0.001-0.589,0.001-1.179-0.031-1.767c-0.011-0.191-0.041-0.381-0.059-0.572c0.046-0.047,0.098-0.089,0.13-0.15
	c0.109-0.21,0.213-0.422,0.343-0.618c0.054-0.062,0.11-0.122,0.171-0.179c0.022-0.013,0.045-0.026,0.067-0.038
	c0.049-0.017,0.099-0.032,0.149-0.044c0.059-0.003,0.117-0.002,0.176,0.001c0.026,0.006,0.051,0.013,0.076,0.02
	c0.014,0.008,0.028,0.016,0.041,0.024c0.031,0.033,0.062,0.066,0.091,0.1c0.096,0.143,0.176,0.292,0.252,0.447
	c0.071,0.2,0.115,0.401,0.147,0.611c0.082,0.694,0.085,1.401,0.08,2.1c0,0.002,0.001,0.004,0.001,0.006
	C17.005,9.596,16.46,9.618,15.914,9.63z M16.416,4.015c0.001-0.001,0.001-0.001,0.001-0.001S16.417,4.015,16.416,4.015L16.416,4.015
	z M16.41,4.019L16.41,4.019c-0.015,0.012-0.03,0.023-0.044,0.034C16.381,4.042,16.396,4.031,16.41,4.019z M16.25,4.28
	c0.037-0.076,0.082-0.146,0.13-0.215c0.033-0.036,0.068-0.07,0.105-0.102c0.069-0.05,0.14-0.098,0.215-0.137
	c0.118-0.041,0.239-0.071,0.361-0.096c0.023,0,0.046,0.001,0.07,0.002c0.086,0.014,0.171,0.03,0.254,0.054
	c0.018,0.01,0.036,0.022,0.053,0.033c0.071,0.058,0.139,0.119,0.201,0.185c0.014,0.023,0.028,0.047,0.04,0.071
	c0.015,0.046,0.028,0.092,0.038,0.14c0.005,0.083,0.003,0.167-0.003,0.251c-0.014,0.066-0.034,0.131-0.056,0.195
	c-0.025,0.051-0.053,0.1-0.085,0.147c-0.068-0.029-0.135-0.057-0.206-0.083C17.223,4.67,17.053,4.666,16.9,4.651
	c-0.024-0.002-0.047-0.003-0.072-0.003c-0.041,0-0.083,0.002-0.123,0.005c-0.116,0.008-0.227,0.04-0.34,0.063
	c-0.006-0.006-0.013-0.012-0.019-0.018c-0.031-0.054-0.053-0.114-0.077-0.172c-0.02-0.049-0.038-0.097-0.051-0.146
	C16.227,4.347,16.238,4.313,16.25,4.28z M16.245,4.473c-0.009-0.023-0.021-0.044-0.03-0.066c0-0.001,0-0.002,0-0.003
	C16.225,4.426,16.235,4.45,16.245,4.473z M16.206,4.383l0,0.001C16.2,4.37,16.194,4.355,16.188,4.341
	C16.194,4.355,16.2,4.369,16.206,4.383z M13.087,3.822c0.004-0.007,0.008-0.013,0.011-0.019c0.022-0.023,0.044-0.045,0.067-0.067
	c0.058-0.033,0.116-0.062,0.176-0.09c0.08-0.028,0.16-0.053,0.242-0.075c0.036-0.001,0.072-0.001,0.107,0
	c0.028,0.007,0.055,0.015,0.083,0.023c0.051,0.026,0.1,0.054,0.148,0.084c0.033,0.031,0.065,0.062,0.096,0.095
	c0.002,0.004,0.004,0.008,0.007,0.012c0.035,0.101,0.065,0.201,0.087,0.305c0.001,0.029,0.002,0.058,0.001,0.087
	c-0.006,0.021-0.013,0.041-0.02,0.062c-0.049,0.102-0.103,0.201-0.168,0.295c0.007-0.008,0.013-0.017,0.02-0.025
	c-0.067,0.093-0.112,0.189-0.142,0.294c-0.003,0-0.005,0-0.008,0c-0.101,0-0.207,0.011-0.314,0.031
	c-0.08-0.042-0.161-0.082-0.239-0.128c-0.028-0.028-0.055-0.057-0.081-0.087c-0.025-0.041-0.049-0.082-0.072-0.123
	c-0.019-0.063-0.033-0.126-0.046-0.191c-0.008-0.086-0.012-0.171-0.009-0.259C13.048,3.97,13.064,3.896,13.087,3.822z M12.982,7.544
	c0.031-0.206,0.07-0.409,0.137-0.605c0.058-0.118,0.122-0.234,0.194-0.343c0.037-0.04,0.076-0.077,0.116-0.113
	c0.005-0.003,0.01-0.006,0.015-0.009c0.127-0.02,0.249-0.059,0.354-0.135c0.005,0,0.01,0,0.014,0
	c0.004,0.001,0.008,0.002,0.011,0.003c0.085,0.046,0.167,0.097,0.246,0.152c0.017,0.015,0.033,0.031,0.049,0.047
	c0.002,0.003,0.003,0.005,0.005,0.008c0.063,0.188,0.11,0.377,0.145,0.572c0.049,0.457,0.068,0.916,0.073,1.374
	c0.005,0.385,0.01,0.769,0.009,1.153c-0.356,0.001-0.712,0.003-1.068,0.014c-0.116,0.003-0.233,0.009-0.349,0.013
	c0.007-0.042,0.026-0.081,0.025-0.125C12.952,8.881,12.909,8.211,12.982,7.544z M8.993,11.296c-0.046,0.006-0.091,0.013-0.135,0.019
	c-0.014,0.002-0.029,0.004-0.043,0.006C8.873,11.313,8.933,11.305,8.993,11.296z M8.201,11.518c0.005-0.024,0.01-0.049,0.016-0.073
	c0.202-0.059,0.414-0.095,0.619-0.126c0.341-0.037,0.682-0.039,1.023-0.054c0.363-0.015,0.726-0.026,1.087-0.038
	c0.809-0.025,1.617-0.044,2.426-0.055c0.806-0.009,1.613-0.015,2.421-0.023c0.83-0.006,1.658-0.049,2.489-0.078
	c0.59-0.019,1.184-0.021,1.776-0.015c0.572,0.004,1.133,0.026,1.7,0.087c0.182,0.028,0.361,0.06,0.538,0.111
	c-0.001,0.122-0.008,0.245-0.02,0.365c-0.01,0.047-0.022,0.094-0.036,0.14c-0.009,0.017-0.018,0.033-0.027,0.049
	c-0.016,0.004-0.032,0.009-0.048,0.012c-0.15,0.007-0.299,0-0.448-0.001c-0.191-0.004-0.38,0.004-0.571,0.006
	c-0.335,0.004-0.668,0.019-1.002,0.025c-0.726,0.015-1.452,0.023-2.178,0.036c-0.813,0.015-1.628,0.053-2.441,0.055
	c-0.783,0.004-1.566,0.017-2.349,0.036c-0.758,0.021-1.518,0.057-2.279,0.076c-0.804,0.021-1.607,0.008-2.411-0.016
	c-0.071-0.061-0.138-0.123-0.202-0.191c-0.032-0.049-0.061-0.1-0.09-0.152C8.193,11.637,8.196,11.578,8.201,11.518z M9.644,16.003
	c0.002-0.783,0.025-1.566,0.032-2.349c0-0.018-0.009-0.034-0.01-0.051c0.46-0.004,0.92,0.008,1.38-0.011
	c0.804-0.034,1.605-0.06,2.411-0.072c0.382-0.004,0.766-0.002,1.148,0c0.384,0.002,0.766,0.004,1.15-0.002
	c0.809-0.009,1.617-0.064,2.426-0.081c0.408-0.008,0.819-0.006,1.229-0.004c0.318,0.002,0.637,0.004,0.957,0
	c0.028,0,0.056,0,0.084,0c0.011,0.685,0.028,1.37,0.043,2.056c0.014,0.625,0.011,1.251,0.019,1.878
	c-0.17,0.004-0.339,0.012-0.509,0.015c-1.57,0.026-3.137,0.055-4.705,0.057c-1.524,0.002-3.048,0.009-4.573,0.013
	c-0.355,0.001-0.711,0.022-1.066,0.036C9.653,16.992,9.641,16.497,9.644,16.003z M6.439,19.333c0.007-0.031,0.015-0.061,0.024-0.092
	c0.211-0.064,0.432-0.091,0.652-0.119c0.641-0.079,1.284-0.128,1.931-0.163c0.756-0.04,1.511-0.03,2.267-0.045
	c0.77-0.017,1.537-0.047,2.305-0.06c0.773-0.013,1.547-0.011,2.318-0.011c1.445,0,2.891-0.008,4.336-0.008
	c0.717,0,1.432-0.015,2.148-0.034c0.653-0.02,1.311-0.046,1.961,0.026c0.117,0.017,0.231,0.037,0.343,0.065
	c0.001,0.005,0.002,0.01,0.003,0.014c0.022,0.275,0.008,0.557-0.024,0.831c-0.01,0.056-0.021,0.111-0.035,0.166
	c-0.273,0.016-0.549,0.008-0.823,0.015c-0.318,0.006-0.635,0.009-0.953,0.011c-0.66,0.004-1.318,0.002-1.978-0.002
	c-1.547-0.011-3.094-0.025-4.641-0.036c-1.534-0.013-3.069,0.009-4.603,0.009c-0.783,0.002-1.566-0.006-2.349-0.015
	c-0.802-0.011-1.6-0.06-2.4-0.121c-0.093-0.008-0.187-0.015-0.28-0.021c-0.009-0.001-0.018-0.001-0.027-0.001
	c-0.041-0.047-0.081-0.094-0.12-0.142c-0.018-0.026-0.034-0.051-0.05-0.078c-0.003-0.011-0.006-0.022-0.008-0.033
	C6.436,19.436,6.436,19.385,6.439,19.333z M7.803,21.406c0-0.031-0.015-0.058-0.019-0.088c1.239,0.042,2.477,0.037,3.718,0.034
	c0.755-0.002,1.509,0.013,2.264,0.019c0.802,0.004,1.602,0,2.404,0.004c1.532,0.004,3.062,0.019,4.593,0.068
	c1.017,0.034,2.034,0.042,3.051,0.032c0.006,0.709,0.02,1.418,0.011,2.127c-0.004,0.342,0.002,0.683-0.004,1.025
	c-0.004,0.365,0,0.736-0.04,1.099c-0.009,0.092,0.015,0.191,0.055,0.284c-0.684,0.016-1.368,0.028-2.054,0.038
	c-0.732,0.011-1.464,0.021-2.197,0.03c-0.775,0.011-1.549-0.002-2.324-0.008c-0.753-0.004-1.503-0.009-2.256,0.015
	c-0.762,0.025-1.524,0.06-2.286,0.095c-1.014,0.045-2.029,0.042-3.045,0.036c-0.547-0.002-1.095-0.004-1.641,0
	c-0.08,0.001-0.159-0.002-0.239-0.002c0.008-0.693,0.021-1.386,0.021-2.079C7.815,23.225,7.815,22.316,7.803,21.406z M25.997,28.188
	c-0.033,0.02-0.066,0.038-0.1,0.056c-0.086,0.027-0.173,0.048-0.261,0.065c-0.279,0.024-0.56,0.017-0.84,0.017
	c-0.312,0-0.624,0-0.936-0.006c-0.673-0.011-1.346-0.015-2.021-0.017c-1.473-0.002-2.948-0.053-4.421,0.002
	c-0.359,0.013-0.719,0.045-1.078,0.062c-0.393,0.017-0.789,0.036-1.184,0.053c-0.758,0.032-1.519,0.04-2.277,0.053
	c-0.76,0.015-1.518,0.026-2.279,0.028c-0.709,0.002-1.416,0-2.126,0.011c-0.616,0.009-1.23,0.005-1.843-0.065
	c-0.122-0.021-0.24-0.05-0.358-0.09c-0.027-0.014-0.054-0.028-0.08-0.044c-0.026-0.09-0.045-0.181-0.061-0.273
	c-0.008-0.099-0.001-0.198-0.002-0.297c0.634-0.007,1.268-0.021,1.903-0.014c0.471,0.006,0.942,0.004,1.413,0.004
	c0.293-0.002,0.588-0.002,0.883-0.002c0.798,0.002,1.594-0.015,2.39-0.049c0.762-0.032,1.524-0.081,2.286-0.104
	c0.531-0.015,1.065-0.015,1.598-0.015c0.219,0,0.439,0,0.658-0.002c0.775-0.002,1.549-0.013,2.324-0.008
	c0.734,0.006,1.466,0.025,2.197,0.011c0.751-0.013,1.5-0.028,2.248-0.038c0.597-0.009,1.202-0.042,1.799-0.007
	c0.058,0.013,0.116,0.005,0.174,0.004c0,0.002,0.001,0.003,0.001,0.005c0.015,0.197,0.021,0.398,0.007,0.596
	C26.007,28.147,26.002,28.168,25.997,28.188z"/>
</svg>