<?xml version="1.0" encoding="utf-8"?>
<!-- Generator: Adobe Illustrator 21.1.0, SVG Export Plug-In . SVG Version: 6.00 Build 0)  -->
<svg version="1.1" id="designs" xmlns="http://www.w3.org/2000/svg" xmlns:xlink="http://www.w3.org/1999/xlink" x="0px" y="0px"
	 width="32px" height="32px" viewBox="0 0 32 32" style="enable-background:new 0 0 32 32;" xml:space="preserve">
<style type="text/css">
	.sketchy_een{fill:#111918;}
</style>
<path class="sketchy_een" d="M21.024,9.531c0.031-0.024,0.062-0.047,0.093-0.071c0.01-0.008,0.02-0.015,0.029-0.022
	C21.106,9.47,21.064,9.501,21.024,9.531z M22.993,27.043c-0.037,0.029-0.075,0.058-0.112,0.086
	c-0.021,0.016-0.041,0.032-0.062,0.048C22.878,27.134,22.936,27.088,22.993,27.043z M28.068,18.121
	c-0.027,0.485-0.103,0.97-0.194,1.447c-0.08,0.42-0.167,0.839-0.297,1.247c-0.274,0.866-0.617,1.736-1.119,2.499
	c-0.492,0.745-1.073,1.441-1.694,2.085c-0.593,0.614-1.21,1.207-1.883,1.73c-0.254,0.191-0.512,0.364-0.796,0.518
	c-0.228,0.125-0.462,0.236-0.699,0.343c-0.381,0.171-0.77,0.33-1.171,0.454c-0.399,0.125-0.809,0.209-1.219,0.282
	C18.114,28.883,17.227,29,16.33,29c-0.78,0-1.562-0.073-2.34-0.126c-0.962-0.067-1.951-0.094-2.859-0.447
	c-0.834-0.326-1.623-0.715-2.332-1.265c-0.606-0.471-1.094-1.044-1.619-1.6c-0.516-0.548-1.037-1.1-1.512-1.684
	c-0.307-0.377-0.63-0.776-0.845-1.219c-0.218-0.448-0.377-0.918-0.468-1.408c-0.075-0.395-0.153-0.79-0.222-1.184
	c-0.086-0.492-0.192-0.995-0.207-1.495c-0.013-0.425,0.012-0.849,0.033-1.272c0.019-0.431,0.042-0.86,0.086-1.29
	c0.052-0.517,0.132-1.031,0.264-1.535c0.115-0.441,0.282-0.872,0.471-1.284c0.381-0.83,0.88-1.575,1.462-2.275
	c0.274-0.33,0.54-0.676,0.841-0.979c0.293-0.295,0.604-0.569,0.92-0.836c0.696-0.583,1.412-1.148,2.21-1.585
	c0.79-0.433,1.598-0.855,2.453-1.142c0.807-0.271,1.631-0.454,2.466-0.602c0.014-0.515,0.037-1.031,0.06-1.547
	c-0.114-0.181-0.159-0.401-0.096-0.628C15.189,3.259,15.524,3,15.873,3c0.071,0,0.143,0.011,0.213,0.034
	c0.022,0.007,0.042,0.017,0.064,0.025c0.1,0.019,0.192,0.054,0.279,0.108c0.498,0.184,0.982,0.395,1.434,0.68
	c0.464,0.294,0.89,0.642,1.321,0.98c0.409,0.303,0.818,0.611,1.254,0.873c0.241,0.146,0.479,0.295,0.705,0.466
	c0.227,0.172,0.45,0.349,0.673,0.524c0.083,0.059,0.17,0.117,0.253,0.177c0.236,0.171,0.397,0.387,0.397,0.692
	c0,0.141-0.048,0.271-0.117,0.391c0.009,0.048,0.028,0.093,0.028,0.143c0,0.197-0.08,0.456-0.241,0.584
	c-0.106,0.084-0.214,0.168-0.321,0.251c0.013-0.01,0.025-0.02,0.038-0.03c-0.233,0.181-0.467,0.359-0.702,0.537
	c-0.011,0.009-0.023,0.017-0.034,0.026c-1.609,1.257-3.26,2.46-4.951,3.603c-0.362,0.245-0.885,0.071-1.094-0.287
	c-0.124-0.211-0.13-0.44-0.058-0.646c-0.027-0.083-0.053-0.166-0.055-0.257c-0.007-0.372-0.005-0.744-0.005-1.116
	c-0.103,0.007-0.206,0.011-0.309,0.021c-0.321,0.057-0.632,0.136-0.943,0.245c-0.297,0.137-0.584,0.303-0.85,0.493
	c-0.71,0.578-1.332,1.257-1.899,1.974c-0.029,0.039-0.059,0.077-0.089,0.116c-0.362,0.478-0.693,0.98-0.946,1.523
	c-0.294,0.737-0.513,1.494-0.641,2.278c-0.049,0.431-0.058,0.868-0.018,1.3c0.087,0.576,0.219,1.137,0.411,1.689
	c0.146,0.308,0.326,0.588,0.528,0.861c0.46,0.553,0.986,1.072,1.548,1.528c0.26,0.181,0.534,0.326,0.821,0.458
	c0.506,0.198,1.035,0.33,1.57,0.418c0.362,0.043,0.727,0.075,1.093,0.069c0.389-0.005,0.777-0.035,1.164-0.081
	c0.818-0.122,1.627-0.302,2.401-0.603c0.475-0.209,0.941-0.465,1.36-0.773c0.188-0.148,0.375-0.299,0.545-0.466
	c0.185-0.183,0.351-0.378,0.512-0.58c0.186-0.256,0.348-0.527,0.483-0.814c0.13-0.321,0.25-0.649,0.356-0.979
	c0.112-0.347,0.219-0.695,0.282-1.054c0.022-0.219,0.028-0.434,0.007-0.653c-0.063-0.377-0.161-0.743-0.298-1.101
	c-0.166-0.361-0.364-0.706-0.574-1.041c-0.211-0.334-0.421-0.665-0.652-0.981c-0.125-0.146-0.259-0.278-0.408-0.4
	c-0.141-0.105-0.281-0.212-0.408-0.334c-0.268-0.255-0.327-0.651-0.202-0.981c-0.062-0.271-0.013-0.567,0.203-0.756
	c0.625-0.55,1.315-1.004,2.024-1.439c0.378-0.232,0.77-0.508,1.232-0.494c0.272,0.01,0.556,0.107,0.774,0.276
	c0.351,0.27,0.671,0.573,0.975,0.895c0.602,0.642,1.198,1.299,1.717,2.01c0.491,0.671,0.828,1.441,1.065,2.236
	c0.125,0.418,0.194,0.855,0.238,1.288C28.07,17.307,28.093,17.717,28.068,18.121z M26.22,17.925
	c-0.009-0.315-0.031-0.628-0.065-0.939c-0.093-0.566-0.266-1.112-0.474-1.647c-0.227-0.491-0.511-0.936-0.831-1.372
	c-0.31-0.388-0.638-0.759-0.973-1.125c-0.254-0.28-0.508-0.568-0.784-0.828c-0.498,0.255-0.982,0.55-1.435,0.873
	c0.045,0.038,0.087,0.08,0.132,0.119c0.247,0.215,0.45,0.477,0.634,0.747c0.217,0.316,0.423,0.638,0.63,0.96
	c0.203,0.316,0.393,0.646,0.542,0.991c0.167,0.385,0.318,0.772,0.408,1.182c0.094,0.435,0.163,0.887,0.132,1.334
	c-0.033,0.452-0.109,0.893-0.243,1.324c-0.113,0.36-0.241,0.713-0.374,1.065c-0.149,0.395-0.312,0.79-0.54,1.148
	c-0.243,0.385-0.535,0.763-0.855,1.088c-1.192,1.215-2.746,1.962-4.402,2.3c-0.849,0.173-1.732,0.289-2.6,0.274
	c-0.464-0.008-0.926-0.046-1.382-0.119c-0.404-0.065-0.826-0.142-1.213-0.276c-0.257-0.09-0.508-0.188-0.753-0.303
	c-0.234-0.109-0.475-0.215-0.686-0.36c-0.395-0.272-0.747-0.586-1.088-0.92c-0.284-0.274-0.573-0.552-0.82-0.859
	c-0.293-0.364-0.596-0.732-0.813-1.148c-0.211-0.402-0.376-0.845-0.477-1.288c-0.103-0.462-0.199-0.929-0.24-1.401
	c-0.075-0.88,0.071-1.751,0.272-2.604c0.088-0.378,0.23-0.755,0.368-1.119c0.165-0.435,0.341-0.872,0.594-1.265
	c0.209-0.324,0.429-0.64,0.659-0.949c0.278-0.37,0.562-0.742,0.876-1.083c0.266-0.289,0.544-0.571,0.828-0.845
	c0.316-0.303,0.669-0.602,1.042-0.83c0.5-0.303,1.021-0.546,1.589-0.701c0.477-0.128,0.977-0.178,1.472-0.199
	c0.009,0,0.018,0,0.028,0c0.086,0,0.167,0.025,0.244,0.055c0.064-0.016,0.125-0.04,0.194-0.04c0.466,0,0.872,0.393,0.864,0.864
	c-0.004,0.254-0.013,0.511-0.018,0.767c0.294-0.199,0.592-0.391,0.882-0.598c0.549-0.393,1.087-0.808,1.623-1.221
	c0.439-0.347,0.872-0.703,1.316-1.044c-0.056,0.042-0.109,0.084-0.165,0.126c0.117-0.091,0.227-0.191,0.338-0.29
	c-0.102-0.082-0.204-0.164-0.307-0.245c-0.407-0.299-0.845-0.547-1.256-0.842c-0.478-0.341-0.942-0.696-1.403-1.059
	c-0.2-0.153-0.401-0.304-0.621-0.426c-0.105-0.059-0.213-0.111-0.319-0.167c-0.016,0.321-0.029,0.642-0.022,0.962
	c0.007,0.258-0.131,0.48-0.327,0.627c-0.016,0.096-0.044,0.191-0.094,0.275c-0.096,0.163-0.286,0.337-0.481,0.37
	c-0.613,0.098-1.223,0.201-1.826,0.353c-0.466,0.117-0.925,0.269-1.37,0.45c-0.487,0.225-0.963,0.478-1.433,0.733
	c-0.502,0.27-0.968,0.59-1.422,0.937C9.788,9.73,9.799,9.72,9.811,9.711c-0.475,0.372-0.947,0.754-1.378,1.176
	c-0.443,0.432-0.842,0.915-1.222,1.402c-0.386,0.527-0.713,1.084-0.982,1.68c-0.233,0.592-0.397,1.201-0.494,1.831
	c-0.058,0.507-0.086,1.017-0.109,1.527C5.6,17.881,5.572,18.428,5.634,18.98c0.067,0.444,0.151,0.886,0.237,1.326
	c0.092,0.467,0.185,0.92,0.346,1.367c0.15,0.317,0.341,0.606,0.551,0.887c0.489,0.609,1.036,1.177,1.567,1.747
	c0.506,0.544,0.989,1.103,1.568,1.571c0.434,0.314,0.91,0.581,1.4,0.797c0.201,0.084,0.404,0.168,0.612,0.229
	c0.272,0.08,0.546,0.135,0.826,0.178c0.79,0.089,1.588,0.121,2.38,0.177c0.857,0.061,1.709,0.074,2.564-0.028
	c0.494-0.071,0.991-0.15,1.476-0.267c0.434-0.105,0.855-0.243,1.268-0.409c0.467-0.206,0.929-0.432,1.344-0.73
	c0.499-0.403,0.979-0.844,1.427-1.3c0.471-0.479,0.929-0.971,1.345-1.499c0.19-0.258,0.371-0.519,0.537-0.793
	c0.152-0.248,0.275-0.515,0.392-0.783c0.167-0.413,0.313-0.833,0.432-1.264c0.118-0.428,0.191-0.865,0.255-1.304
	C26.199,18.565,26.229,18.244,26.22,17.925z"/>
</svg>