<?xml version="1.0" encoding="utf-8"?>
<!-- Generator: Adobe Illustrator 21.1.0, SVG Export Plug-In . SVG Version: 6.00 Build 0)  -->
<svg version="1.1" id="designs" xmlns="http://www.w3.org/2000/svg" xmlns:xlink="http://www.w3.org/1999/xlink" x="0px" y="0px"
	 width="32px" height="32px" viewBox="0 0 32 32" style="enable-background:new 0 0 32 32;" xml:space="preserve">
<style type="text/css">
	.sketchy_een{fill:#111918;}
</style>
<path class="sketchy_een" d="M28.014,27.863c-0.048-0.173-0.155-0.322-0.293-0.432c0.002-0.019,0.01-0.035,0.012-0.055
	c0.026-0.39,0.028-0.784,0.042-1.175c0.012-0.382,0.024-0.762,0.036-1.144c0.024-0.772,0.02-1.542,0.012-2.313
	c-0.02-1.64-0.032-3.281-0.036-4.923c-0.006-1.654-0.02-3.308-0.087-4.963c-0.036-0.859-0.087-1.716-0.117-2.576
	c-0.028-0.839-0.032-1.68-0.032-2.521c-0.002-1.206,0.033-2.408,0.079-3.614c0.007-0.018,0.021-0.033,0.026-0.052
	c0.057-0.208,0.028-0.437-0.081-0.623c-0.15-0.255-0.41-0.386-0.699-0.402c-0.382-0.018-0.762-0.053-1.144-0.065
	C25.64,3.001,25.547,3,25.455,3c-0.277,0-0.555,0.011-0.83,0.02c-0.37,0.012-0.738,0.043-1.106,0.071
	c-0.39,0.03-0.782,0.047-1.172,0.063c-1.605,0.065-3.212,0.067-4.818,0.073c-1.678,0.008-3.354,0.02-5.032-0.002
	c-1.644-0.022-3.289-0.081-4.933-0.079c-0.73,0.002-1.458,0.022-2.189,0.045c-0.331,0.01-0.622,0.207-0.747,0.496
	C4.433,3.842,4.299,4.073,4.29,4.341c-0.061,1.72-0.075,3.445,0.002,5.165c0.073,1.571,0.097,3.142,0.103,4.713
	c0.004,0.851,0.008,1.702-0.002,2.553c-0.01,0.799-0.042,1.601-0.073,2.398c-0.063,1.597-0.19,3.19-0.245,4.789
	c-0.022,0.639-0.047,1.28-0.069,1.922c-0.022,0.625-0.059,1.259-0.045,1.886c0.005,0.224,0.105,0.426,0.258,0.571
	c0.103,0.328,0.402,0.583,0.761,0.577c1.696-0.03,3.392-0.073,5.089-0.081c0.404-0.002,0.807,0,1.211,0.002
	c0.404,0.002,0.807,0.004,1.213,0.002c0.821-0.004,1.642-0.008,2.464-0.012c1.668-0.008,3.334-0.004,5.002,0.034
	c1.625,0.036,3.249,0.063,4.874,0.117c0.459,0.014,0.916,0.026,1.375,0.024c0.414,0,0.823,0.018,1.221-0.107
	C27.864,28.758,28.137,28.312,28.014,27.863z M24.585,27.408c-0.601-0.01-1.202-0.011-1.803-0.012
	c0.003-0.03,0.015-0.057,0.015-0.087c0-0.055-0.005-0.109-0.015-0.162c-0.001-0.126,0.008-0.254,0.013-0.38
	c0.01-0.317,0.028-0.635,0.046-0.952c0.04-0.738,0.083-1.474,0.129-2.21c0.034-0.515-0.453-0.944-0.942-0.944
	c-0.536,0-0.916,0.429-0.944,0.944c-0.042,0.764-0.069,1.526-0.087,2.292c-0.008,0.303-0.016,0.607-0.028,0.91
	c-0.008,0.188-0.009,0.379,0.02,0.563c-0.447-0.009-0.895-0.014-1.342-0.025c-0.811-0.022-1.621-0.028-2.43-0.028
	c-1.684,0-3.366-0.002-5.05-0.018c-0.383-0.003-0.765-0.002-1.148-0.003c-0.009-0.09-0.014-0.181-0.051-0.263
	c-0.111-1.144-0.171-2.292-0.247-3.437c-0.03-0.465-0.364-0.855-0.853-0.855c-0.437,0-0.891,0.39-0.853,0.855
	c0.055,0.71,0.127,1.419,0.186,2.129c0.026,0.301,0.044,0.602,0.059,0.904c0.006,0.152,0.02,0.305,0.028,0.457
	c0.004,0.066,0.005,0.136,0.008,0.205c-0.63,0-1.261-0.002-1.891-0.006c-0.623-0.003-1.245,0.001-1.866,0.006
	c-0.01-1.408,0.051-2.817,0.12-4.221c0.079-1.587,0.18-3.172,0.241-4.759c0.065-1.629,0.077-3.259,0.077-4.89
	c-0.002-0.819-0.01-1.64-0.032-2.462c-0.02-0.795-0.059-1.591-0.079-2.388c-0.018-0.647,0.004-1.298,0.02-1.947
	c0.016-0.609,0.039-1.218,0.062-1.827c1.613-0.057,3.227-0.094,4.839-0.064c1.646,0.032,3.291,0.028,4.937,0.014
	c1.646-0.014,3.293-0.012,4.939-0.012c0.778,0,1.555-0.022,2.333-0.047c0.75-0.024,1.5-0.085,2.252-0.103
	c0.238-0.006,0.475,0.023,0.712,0.036c-0.032,1.517-0.028,3.035-0.028,4.551c0,1.698,0.137,3.392,0.188,5.088
	c0.051,1.652,0.051,3.303,0.047,4.955c-0.002,1.593,0.044,3.184,0.046,4.777c0.002,1.13-0.047,2.258-0.113,3.386
	c0,0.006,0.003,0.01,0.003,0.016C25.598,27.415,25.088,27.416,24.585,27.408z M19.716,22.565c-0.038-0.15-0.105-0.303-0.194-0.429
	c-0.204-0.291-0.489-0.445-0.827-0.534c-0.28-0.075-0.569-0.106-0.857-0.142c-0.136-0.095-0.3-0.151-0.476-0.151
	c-0.002,0-0.005,0-0.007,0c-0.253,0.001-0.507,0.015-0.76,0.022c-0.004-0.182-0.012-0.365-0.012-0.545
	c-0.002-0.362,0.008-0.724,0.01-1.088c0.004-0.746,0.01-1.492,0.006-2.24c-0.002-0.72,0.018-1.441,0.051-2.161
	c0.038-0.797,0.046-1.599,0.055-2.398c0.008-0.724-0.01-1.448-0.016-2.175c-0.008-0.805,0.038-1.611,0.069-2.414
	c0.018-0.463-0.4-0.849-0.849-0.849c-0.473,0-0.835,0.386-0.849,0.849c-0.028,0.938-0.032,1.872,0.004,2.81
	c0.03,0.859,0.018,1.712-0.004,2.57c-0.018,0.766-0.049,1.53-0.087,2.293c-0.034,0.71-0.022,1.425-0.02,2.135
	c0.004,0.649,0.002,1.3,0.01,1.949c0.004,0.293,0.008,0.586,0.02,0.877c0.005,0.143,0.014,0.289,0.02,0.435
	c-0.301,0.013-0.603,0.039-0.902,0.065c-0.34,0.032-0.681,0.042-1.021,0.067c-0.178,0.014-0.358,0.038-0.532,0.073
	c-0.334,0.065-0.611,0.311-0.768,0.605c-0.202,0.38-0.236,0.841-0.251,1.264c-0.01,0.283,0.051,0.568,0.071,0.851
	c0.014,0.204,0.03,0.404,0.065,0.608c0.038,0.22,0.18,0.402,0.317,0.568c0.136,0.164,0.339,0.263,0.533,0.347
	c0.183,0.073,0.356,0.127,0.555,0.161c0.228,0.04,0.457,0.073,0.689,0.089c0.352,0.026,0.71,0.04,1.065,0.049
	c0.766,0.024,1.534,0.065,2.299,0.063c0.443-0.002,0.875-0.05,1.314-0.111c0.077-0.01,0.156-0.022,0.233-0.038
	c0.222-0.042,0.408-0.16,0.578-0.301c0.255-0.206,0.408-0.521,0.483-0.833c0.099-0.411,0.075-0.845,0.067-1.265
	C19.794,23.28,19.805,22.924,19.716,22.565z M18.221,24.479c-0.014,0.003-0.028,0.006-0.042,0.009
	c-0.35,0.04-0.702,0.076-1.055,0.084c-0.404,0.012-0.807,0.02-1.211,0.03c-0.416,0.012-0.831,0.016-1.247,0.006
	c-0.353-0.007-0.71-0.013-1.062-0.053c-0.131-0.021-0.26-0.049-0.387-0.09c-0.006-0.003-0.012-0.006-0.018-0.01
	c-0.014-0.202-0.022-0.406-0.046-0.607c-0.031-0.252-0.037-0.495-0.015-0.746c0.002-0.011,0.004-0.023,0.006-0.034
	c0.292-0.028,0.586-0.03,0.879-0.039c0.334-0.01,0.669-0.032,1.001-0.036c0.778-0.012,1.553,0.02,2.331,0.024
	c0.002,0,0.005,0,0.007,0c0.098,0,0.192-0.018,0.28-0.05c0.189,0.036,0.376,0.08,0.559,0.139c0.006,0.026,0.011,0.053,0.016,0.079
	c0.015,0.167,0.022,0.334,0.028,0.5c0.011,0.223,0.02,0.444,0.004,0.665C18.242,24.394,18.232,24.437,18.221,24.479z M12.436,25.795
	c0.027,0.011,0.054,0.022,0.08,0.032c0.035,0.015,0.07,0.03,0.104,0.045C12.559,25.846,12.498,25.821,12.436,25.795z M8.897,9.762
	c0-0.467,0.39-0.861,0.859-0.859c0.582,0.002,1.164,0.018,1.745,0.026c0.463,0.008,0.936,0.028,1.399-0.02
	c0.202-0.02,0.433,0.099,0.572,0.237c0.152,0.15,0.237,0.358,0.237,0.572s-0.085,0.422-0.237,0.574
	c-0.101,0.099-0.22,0.168-0.356,0.208c-0.54,0.083-1.073,0.087-1.615,0.095c-0.582,0.008-1.164,0.024-1.745,0.028
	C9.287,10.623,8.897,10.229,8.897,9.762z M17.243,9.523c0-0.452,0.379-0.861,0.838-0.861c0.008,0,0.015,0,0.023,0
	c1.013,0.028,2.022,0.069,3.034,0.075c0.463,0.004,0.847,0.384,0.847,0.847c0,0.463-0.384,0.847-0.847,0.849
	c-1.009,0-2.022-0.028-3.034-0.047C17.635,10.376,17.243,10,17.243,9.523z M11.092,13.502c-0.904,0.002-1.809-0.002-2.713-0.008
	c-0.471-0.004-0.863-0.39-0.863-0.863c0-0.458,0.384-0.863,0.849-0.863c0.004,0,0.009,0,0.013,0
	c0.904,0.018,1.809,0.057,2.713,0.073c0.198,0.004,0.398,0.002,0.598,0c0.154-0.002,0.309-0.004,0.465-0.004
	c0.297,0,0.594-0.043,0.888-0.026c0.451,0.028,0.829,0.356,0.829,0.829c0,0.465-0.378,0.809-0.829,0.827
	c-0.297,0.012-0.592,0.04-0.888,0.042c-0.188,0.002-0.376,0-0.564-0.002C11.425,13.504,11.258,13.502,11.092,13.502z M23.16,12.2
	c0.152,0.15,0.237,0.358,0.237,0.572c0,0.212-0.085,0.42-0.237,0.57c-0.164,0.166-0.348,0.212-0.57,0.237
	c-0.625,0.069-1.266,0.032-1.892-0.002c-0.396-0.022-0.789-0.061-1.185-0.079c-0.463-0.022-0.926-0.043-1.389-0.075
	c-0.471-0.03-0.865-0.37-0.865-0.865c0-0.427,0.365-0.867,0.813-0.867c0.017,0,0.034,0.001,0.052,0.002
	c0.859,0.067,1.716,0.158,2.574,0.21c0.346,0.022,0.693,0.02,1.039,0.026c0.285,0.004,0.57-0.002,0.853,0.034
	C22.814,11.991,22.996,12.034,23.16,12.2z M11.592,16.758c-0.75-0.022-1.498-0.057-2.244-0.127
	c-0.251-0.024-0.465-0.085-0.649-0.269c-0.172-0.172-0.271-0.408-0.271-0.651c0-0.241,0.099-0.477,0.271-0.649
	c0.144-0.146,0.379-0.272,0.595-0.272c0.018,0,0.036,0.001,0.054,0.003c0.736,0.075,1.474,0.15,2.212,0.204
	c0.471,0.034,0.942,0.075,1.413,0.014c-0.03,0.004-0.061,0.008-0.091,0.012c0.19-0.02,0.363-0.005,0.542,0.099
	c0.186,0.109,0.327,0.291,0.384,0.501c0.129,0.461-0.152,0.885-0.586,1.033c-0.237,0.079-0.51,0.101-0.76,0.109
	C12.172,16.772,11.883,16.768,11.592,16.758z M22.752,15.62c0,0.441-0.372,0.825-0.819,0.819c-0.544-0.008-1.088,0.075-1.633,0.083
	c-0.641,0.01-1.282,0.028-1.925,0.03c-0.471,0.002-0.863-0.394-0.863-0.863c0-0.469,0.392-0.865,0.863-0.863
	c0.657,0.002,1.312,0.024,1.969,0.03c0.257,0.002,0.514-0.01,0.772-0.02c0.249-0.009,0.502-0.038,0.752-0.038
	c0.022,0,0.044,0,0.065,0.001C22.38,14.811,22.752,15.163,22.752,15.62z M12.397,19.528c-0.497,0.061-1.007,0.045-1.508,0.051
	c-0.481,0.004-0.883-0.406-0.883-0.885c0-0.483,0.402-0.88,0.883-0.883c0.26-0.001,0.522-0.008,0.784-0.008
	c0.243,0,0.485,0.006,0.724,0.03c0.233,0.024,0.429,0.077,0.6,0.249c0.158,0.156,0.247,0.374,0.247,0.598
	c0,0.224-0.089,0.441-0.247,0.599C12.823,19.453,12.633,19.498,12.397,19.528z M21.405,18.74c0,0.459-0.39,0.865-0.855,0.855
	c-0.289-0.004-0.576-0.004-0.865-0.002c-0.235,0-0.471,0.002-0.704-0.002c-0.479-0.008-0.881-0.396-0.881-0.883
	c0-0.464,0.389-0.881,0.861-0.881c0.007,0,0.013,0,0.02,0c0.522,0.014,1.047,0.03,1.569,0.057
	C21.015,17.908,21.405,18.255,21.405,18.74z"/>
</svg>