<?xml version="1.0" encoding="utf-8"?>
<!-- Generator: Adobe Illustrator 21.1.0, SVG Export Plug-In . SVG Version: 6.00 Build 0)  -->
<svg version="1.1" id="designs" xmlns="http://www.w3.org/2000/svg" xmlns:xlink="http://www.w3.org/1999/xlink" x="0px" y="0px"
	 width="32px" height="32px" viewBox="0 0 32 32" style="enable-background:new 0 0 32 32;" xml:space="preserve">
<style type="text/css">
	.sketchy_een{fill:#111918;}
</style>
<path class="sketchy_een" d="M30,27.223c-0.004-0.24,0.004-0.479-0.006-0.719c-0.01-0.287-0.022-0.575-0.026-0.864
	c-0.002-0.277-0.014-0.555-0.038-0.833c-0.032-0.345-0.08-0.713-0.182-1.046c-0.074-0.246-0.174-0.485-0.281-0.715
	c-0.11-0.231-0.269-0.435-0.431-0.633c-0.13-0.162-0.299-0.283-0.463-0.411c-0.232-0.183-0.476-0.335-0.727-0.484
	c0.003-0.044,0.014-0.087,0.014-0.13c0.002-0.172-0.002-0.343-0.008-0.515c-0.01-0.399-0.022-0.797-0.044-1.194
	c-0.007-0.147-0.055-0.281-0.121-0.404c-0.105-0.37-0.437-0.674-0.837-0.656c-0.045,0.002-0.091,0.005-0.136,0.008
	c-0.187-0.754-0.329-1.519-0.5-2.276c-0.172-0.763-0.279-1.535-0.431-2.302c-0.068-0.339-0.144-0.679-0.21-1.018
	c-0.078-0.409-0.152-0.819-0.252-1.222c-0.1-0.401-0.236-0.791-0.321-1.196c-0.092-0.419-0.168-0.843-0.244-1.266
	c-0.116-0.665-0.23-1.332-0.343-1.998c-0.034-0.195-0.2-0.38-0.365-0.486c-0.018-0.125-0.031-0.249-0.071-0.373
	c-0.034-0.108-0.072-0.214-0.11-0.319c-0.1-0.281-0.238-0.567-0.409-0.812c-0.228-0.325-0.521-0.611-0.838-0.846
	c-0.34-0.255-0.755-0.363-1.167-0.427c-0.69-0.09-1.389-0.121-2.085-0.162c-0.369-0.022-0.741-0.03-1.11-0.042
	c-0.353-0.014-0.705-0.042-1.058-0.05c-0.387-0.01-0.775,0.004-1.162,0.008c-0.365,0.002-0.733-0.006-1.098-0.01
	c-0.355-0.006-0.711-0.03-1.066-0.048c-0.222-0.01-0.445-0.01-0.667-0.008c-0.118,0-0.236,0-0.353-0.002
	c-0.058,0-0.117-0.001-0.175-0.001c-0.439,0-0.878,0.012-1.316,0.027c-0.559,0.02-1.15,0.08-1.679,0.27
	C9.457,4.15,9.239,4.254,9.032,4.38C8.966,4.422,8.898,4.462,8.83,4.504C8.617,4.641,8.469,4.789,8.319,4.989
	c-0.106,0.146-0.186,0.3-0.266,0.459C7.94,5.675,7.82,5.903,7.704,6.131C7.633,6.272,7.611,6.422,7.612,6.57
	c-0.04,0.066-0.073,0.135-0.083,0.205C7.407,7.615,7.262,8.452,7.126,9.29c-0.129,0.806-0.239,1.615-0.348,2.423
	c-0.087,0.653-0.161,1.309-0.245,1.964c-0.103,0.737-0.206,1.474-0.315,2.209c-0.122,0.83-0.284,1.651-0.365,2.487
	c0,0.005,0.003,0.01,0.003,0.014c-0.253-0.004-0.505-0.01-0.758-0.013C4.744,18.37,4.434,18.596,4.3,18.907
	c-0.198,0.174-0.329,0.423-0.341,0.706c-0.02,0.461-0.034,0.924-0.046,1.385c-0.004,0.185-0.01,0.369-0.017,0.553
	c-0.127,0.057-0.251,0.119-0.365,0.196c-0.317,0.21-0.561,0.491-0.786,0.792c-0.311,0.417-0.527,0.934-0.625,1.443
	c-0.114,0.597-0.14,1.234-0.108,1.839c0.016,0.273,0.046,0.547,0.078,0.82c0.034,0.287,0.07,0.585,0.14,0.866
	c0.108,0.445,0.599,0.705,1.03,0.587c0.03-0.008,0.052-0.03,0.08-0.041c0.837-0.01,1.675-0.024,2.512-0.028
	c0.866-0.006,1.731-0.034,2.595-0.04c1.693-0.012,3.386,0.004,5.079-0.036c0.707-0.016,1.417-0.01,2.126,0
	c0.136,0.002,0.273,0.002,0.409,0.002c0.236-0.002,0.473-0.002,0.709,0.01c0.361,0.02,0.723,0.018,1.084,0.028
	c0.793,0.018,1.589,0.01,2.384,0c0.868-0.012,1.737,0.006,2.607,0.032c0.579,0.016,1.158,0.058,1.739,0.066
	c0.547,0.008,1.094,0.018,1.641,0.022c0.525,0.004,1.054-0.008,1.577,0.038c0.413,0.036,0.823,0.096,1.236,0.074
	c0.412-0.023,0.755-0.279,0.874-0.656C29.966,27.462,30.002,27.348,30,27.223z M5.746,21.038c0.024-0.313,0.043-0.626,0.063-0.94
	c0.673-0.004,1.345-0.007,2.017-0.026c0.771-0.02,1.537-0.092,2.306-0.098c1.637-0.014,3.274-0.024,4.911-0.026
	c0.371,0,0.743-0.006,1.112,0.032c0.375,0.04,0.749,0.068,1.126,0.08c0.793,0.028,1.587,0.018,2.38,0.038
	c0.832,0.024,1.667,0.02,2.499,0.042c0.343,0.01,0.685,0.038,1.028,0.042c0.369,0.006,0.739,0.028,1.108,0.038
	c0.439,0.014,0.878,0.044,1.318,0.074c0.166,0.011,0.331,0.024,0.497,0.038c0.023,0.301,0.032,0.601,0.04,0.901
	c-0.425,0.022-0.85,0.036-1.274,0.048c-0.355,0.012-0.711,0.044-1.066,0.056c-0.419,0.014-0.838,0.018-1.258,0.014
	c-1.743-0.018-3.486-0.032-5.23-0.016c-1.713,0.014-3.428,0.096-5.138,0.016c-0.886-0.042-1.773-0.032-2.661-0.024
	c-0.789,0.008-1.577,0.016-2.366-0.014c-0.259-0.01-0.519-0.023-0.778-0.047c-0.213-0.031-0.425-0.075-0.637-0.111
	C5.743,21.116,5.743,21.077,5.746,21.038z M17.525,8.544c0.145,0.02,0.289,0.031,0.434,0.045c0.036,0.009,0.071,0.019,0.106,0.031
	c0.033,0.017,0.065,0.036,0.096,0.056c0.117,0.101,0.225,0.212,0.323,0.331c0.262,0.365,0.464,0.783,0.65,1.193
	c0.063,0.173,0.113,0.35,0.167,0.526c0.052,0.166,0.102,0.331,0.136,0.501c0.116,0.565,0.242,1.124,0.373,1.683
	c0.078,0.329,0.146,0.661,0.244,0.982c0.084,0.277,0.156,0.555,0.232,0.834c0.082,0.3,0.186,0.591,0.259,0.892
	c0.076,0.306,0.18,0.601,0.252,0.906c0.116,0.481,0.273,0.948,0.361,1.437c0.034,0.188,0.066,0.379,0.112,0.567
	c0.008,0.032,0.017,0.064,0.026,0.096c-1.199-0.019-2.398-0.048-3.594-0.108c-0.318-0.017-0.635-0.044-0.952-0.07
	c0.007-0.046,0.012-0.092,0.008-0.137c-0.068-0.699-0.052-1.403-0.078-2.104c-0.032-0.833,0.004-1.669,0.008-2.501
	c0.002-0.864-0.008-1.729-0.01-2.593c0-0.865-0.013-1.729-0.037-2.594c0.111-0.009,0.223-0.026,0.331-0.017
	c0.08,0.012,0.161,0.022,0.241,0.026c0.073,0.002,0.143-0.002,0.216,0.006c0.084,0.012,0.169,0.023,0.253,0.033
	C17.63,8.558,17.577,8.551,17.525,8.544z M7.631,17.523c0.128-0.897,0.272-1.792,0.407-2.689c0.15-0.997,0.267-1.999,0.396-2.998
	c0.099-0.727,0.2-1.455,0.323-2.178C8.894,8.849,9.082,8.051,9.21,7.238c0.023-0.139,0.024-0.266,0.004-0.392
	c0.153-0.323,0.294-0.659,0.491-0.955C9.73,5.865,9.757,5.84,9.785,5.816c0.13-0.093,0.263-0.179,0.405-0.25
	c0.274-0.094,0.56-0.153,0.846-0.198c0.695-0.077,1.403-0.065,2.1-0.071c0.699-0.004,1.397,0.042,2.096,0.05
	c0.373,0.004,0.745-0.002,1.116,0.01c0.192,0.004,0.383,0.004,0.573,0.006c0.194,0.002,0.383,0.024,0.577,0.038
	c0.369,0.024,0.739,0.048,1.108,0.06c0.351,0.01,0.699,0.05,1.05,0.062c0.431,0.015,0.867,0.05,1.298,0.099
	c0.219,0.037,0.433,0.088,0.644,0.158c0.054,0.028,0.107,0.059,0.158,0.093c0.139,0.115,0.275,0.243,0.393,0.376
	c0.074,0.105,0.142,0.217,0.2,0.331c0.028,0.083,0.052,0.167,0.08,0.248c0.048,0.136,0.092,0.271,0.12,0.413
	c0.028,0.139,0.112,0.254,0.216,0.349c0.002,0.07-0.001,0.139,0.013,0.212c0.164,0.894,0.343,1.785,0.517,2.677
	c0.164,0.837,0.361,1.665,0.513,2.503c0.072,0.387,0.134,0.775,0.2,1.164c0.062,0.371,0.142,0.739,0.206,1.11
	c0.064,0.379,0.124,0.76,0.196,1.138c0.074,0.381,0.166,0.761,0.252,1.14c0.087,0.386,0.185,0.771,0.276,1.157
	c-0.089,0-0.178,0.005-0.267,0.004c-0.542-0.006-1.085-0.026-1.627-0.039c-0.003-0.012,0.001-0.025-0.003-0.037
	c-0.052-0.148-0.086-0.302-0.13-0.451c-0.046-0.156-0.096-0.303-0.122-0.465c-0.056-0.353-0.172-0.691-0.268-1.034
	c-0.076-0.269-0.144-0.543-0.204-0.816c-0.072-0.325-0.172-0.641-0.262-0.962c-0.158-0.563-0.323-1.124-0.495-1.683
	c-0.104-0.341-0.158-0.695-0.236-1.042c-0.062-0.286-0.134-0.565-0.192-0.852c-0.078-0.391-0.178-0.775-0.299-1.154
	c-0.092-0.28-0.194-0.555-0.323-0.819c-0.076-0.16-0.162-0.315-0.242-0.473c-0.082-0.17-0.166-0.341-0.263-0.503
	c-0.124-0.21-0.279-0.403-0.433-0.591c-0.072-0.088-0.158-0.162-0.242-0.235C19.192,7.416,19.048,7.29,18.888,7.2
	c-0.369-0.206-0.786-0.25-1.2-0.276c-0.242-0.016-0.483-0.042-0.727-0.042c-0.409,0-0.822,0.026-1.228,0.078
	c-0.232,0.03-0.419,0.072-0.591,0.244c-0.034,0.034-0.051,0.079-0.078,0.117c-0.206,0.176-0.347,0.425-0.334,0.707
	c0.048,1.004,0.106,2.006,0.11,3.012c0.004,0.87-0.002,1.743-0.006,2.613c-0.004,0.836,0.032,1.673,0.048,2.509
	c0.012,0.717,0.006,1.433,0.086,2.146c0.002,0.023,0.01,0.041,0.013,0.064c-0.678-0.005-1.355-0.006-2.032-0.006
	c-0.799,0-1.599-0.006-2.398-0.012c-0.059-0.001-0.119-0.001-0.178-0.001c-0.725,0-1.448,0.042-2.174,0.063
	c-0.224,0.007-0.448-0.003-0.672-0.007c0.002-0.013,0.007-0.024,0.008-0.037C7.563,18.089,7.595,17.806,7.631,17.523z
	 M27.081,26.464c-0.383,0-0.769,0.004-1.152,0.01c-0.415,0.006-0.828,0.01-1.242,0.008c-0.88-0.004-1.759-0.03-2.637-0.036
	c-0.838-0.004-1.677-0.008-2.515-0.016c-0.246-0.002-0.491,0-0.735,0c-0.517,0.002-1.036,0.004-1.551-0.028
	c-0.709-0.042-1.419-0.02-2.13-0.02c-0.761,0-1.523,0.026-2.284,0.032c-0.86,0.006-1.723-0.008-2.583-0.02
	c-0.711-0.006-1.423-0.004-2.134-0.002c-0.437,0.002-0.874,0.004-1.312,0.002c-1.031-0.002-2.059-0.067-3.089-0.088
	c-0.056-0.567-0.07-1.139-0.009-1.704c0.036-0.213,0.086-0.424,0.16-0.628c0.084-0.171,0.18-0.334,0.29-0.491
	c0.061-0.07,0.125-0.135,0.194-0.197c0.069-0.045,0.139-0.085,0.215-0.12c0.131-0.053,0.261-0.108,0.391-0.163
	c0.07-0.03,0.141-0.06,0.212-0.09c0.055-0.024,0.105-0.062,0.152-0.106c0.312,0.045,0.625,0.081,0.939,0.104
	c0.303,0.024,0.609,0.022,0.912,0.022c0.102-0.002,0.204-0.002,0.305-0.002c0.365,0.002,0.731,0.002,1.098,0.002
	c0.487-0.002,0.976-0.002,1.467,0c0.417,0,0.834,0,1.254,0.004c0.397,0.004,0.794,0.034,1.194,0.05
	c0.856,0.03,1.715,0.038,2.571,0.022c1.729-0.03,3.458-0.038,5.186-0.03c0.876,0.006,1.753-0.006,2.629-0.012
	c0.767-0.006,1.533-0.042,2.3-0.03c0.568,0.009,1.149,0.069,1.717,0.006c0.224,0.118,0.447,0.236,0.653,0.384
	c0.115,0.094,0.224,0.19,0.323,0.302c0.099,0.141,0.186,0.287,0.262,0.443c0.112,0.298,0.182,0.606,0.23,0.922
	c0.037,0.358,0.039,0.716,0.051,1.076c0.003,0.111,0.008,0.222,0.012,0.332C27.979,26.434,27.53,26.466,27.081,26.464z M6.79,11.614
	c-0.004,0.033-0.008,0.066-0.012,0.099c-0.005,0.041-0.012,0.082-0.018,0.123C6.77,11.762,6.78,11.688,6.79,11.614z M21.511,4.094
	c-0.019-0.003-0.038-0.005-0.057-0.007c-0.014-0.002-0.029-0.004-0.043-0.006C21.443,4.085,21.477,4.09,21.511,4.094z"/>
</svg>