<?xml version="1.0" encoding="utf-8"?>
<!-- Generator: Adobe Illustrator 21.1.0, SVG Export Plug-In . SVG Version: 6.00 Build 0)  -->
<svg version="1.1" id="designs" xmlns="http://www.w3.org/2000/svg" xmlns:xlink="http://www.w3.org/1999/xlink" x="0px" y="0px"
	 width="32px" height="32px" viewBox="0 0 32 32" style="enable-background:new 0 0 32 32;" xml:space="preserve">
<style type="text/css">
	.sketchy_een{fill:#111918;}
</style>
<path class="sketchy_een" d="M29.883,27.684c0.08-0.391-0.019-0.822-0.073-1.221c-0.07-0.804-0.065-1.616-0.078-2.422
	c-0.015-0.874-0.05-1.748-0.069-2.625c-0.019-0.87-0.048-1.738-0.04-2.609c0.008-0.884-0.005-1.77,0.003-2.657
	c0.002-0.327,0.004-0.653,0.008-0.98c0.001-0.14-0.034-0.269-0.087-0.389c0.01-0.052,0.031-0.102,0.031-0.156
	c0-0.227-0.089-0.446-0.25-0.607c-0.144-0.142-0.396-0.277-0.605-0.25c-0.262,0.033-0.525,0.036-0.788,0.035
	c-0.095-0.444-0.183-0.891-0.25-1.34c-0.067-0.556-0.125-1.113-0.189-1.669c-0.068-0.602-0.161-1.2-0.244-1.801
	c-0.219-1.746-0.467-3.483-0.771-5.215c-0.035-0.198-0.206-0.388-0.373-0.485c-0.114-0.066-0.244-0.1-0.375-0.106
	c-0.105-0.049-0.219-0.082-0.341-0.089c-0.121-0.008-0.244-0.011-0.366-0.011c-0.173,0-0.346,0.005-0.517,0.009
	c-0.415,0.008-0.832,0.019-1.25,0.033c-0.213,0.007-0.404,0.094-0.556,0.223c-0.335,0.107-0.562,0.414-0.584,0.78
	c-0.054,0.882-0.11,1.76-0.216,2.639C21.807,7.396,21.7,8.02,21.627,8.646c-0.074,0.617-0.134,1.234-0.194,1.851
	c-0.06,0.59-0.12,1.178-0.177,1.768c-0.044,0.466-0.078,0.936-0.127,1.404c-0.178-0.008-0.356-0.015-0.533-0.024
	c-0.139-0.523-0.217-1.068-0.288-1.603c-0.161-1.227-0.306-2.459-0.393-3.695c-0.101-1.409-0.208-2.818-0.312-4.226
	c-0.016-0.215-0.076-0.402-0.231-0.557c-0.148-0.147-0.349-0.231-0.557-0.231c-0.022,0-0.042,0.011-0.064,0.013
	c-0.138-0.219-0.363-0.384-0.63-0.384c-0.011,0-0.022,0-0.033,0.001c-0.582,0.029-1.164,0.068-1.745,0.109
	c-0.044,0.003-0.083,0.021-0.126,0.03c-0.042-0.007-0.081-0.026-0.123-0.026c-0.448,0-0.782,0.365-0.797,0.799
	c-0.035,0.893-0.062,1.787-0.109,2.68c-0.045,0.834-0.132,1.665-0.223,2.495c-0.158,1.463-0.28,2.934-0.379,4.403
	c-0.267-0.005-0.534-0.008-0.801-0.013c-0.075-0.307-0.13-0.619-0.189-0.928c-0.062-0.336-0.116-0.671-0.163-1.009
	c0.008,0.066,0.017,0.13,0.025,0.196c-0.076-0.567-0.149-1.133-0.235-1.698c-0.081-0.543-0.177-1.085-0.252-1.628
	c0.002,0.013,0.003,0.025,0.005,0.038c-0.082-0.641-0.168-1.281-0.257-1.923c0.002,0.016,0.004,0.033,0.006,0.049
	c-0.003-0.026-0.007-0.052-0.01-0.078c-0.006-0.041-0.011-0.081-0.017-0.122c0.005,0.033,0.009,0.065,0.014,0.096
	c-0.098-0.749-0.193-1.499-0.287-2.248c-0.027-0.217-0.07-0.394-0.231-0.555C12.046,3.484,11.845,3.4,11.637,3.4
	c-0.018,0-0.035,0.009-0.053,0.011c-0.153-0.152-0.363-0.247-0.591-0.247c-0.046,0-0.093,0-0.139,0
	c-0.398,0-0.794,0.007-1.192,0.016c-0.024,0-0.045,0.012-0.068,0.015c-0.143-0.115-0.317-0.19-0.502-0.19
	c-0.213,0-0.421,0.085-0.57,0.237C8.358,3.402,8.303,3.59,8.284,3.811C8.123,5.536,8.003,7.265,7.832,8.99
	c-0.082,0.829-0.144,1.657-0.19,2.488c-0.035,0.617-0.069,1.235-0.096,1.853c-1.576-0.044-3.15-0.125-4.717-0.306
	c-0.017-0.002-0.033-0.003-0.05-0.003c-0.193,0-0.407,0.117-0.536,0.245C2.087,13.423,2,13.634,2,13.854
	c0,0.157,0.058,0.302,0.14,0.433c0,0.017-0.01,0.032-0.009,0.05c0.058,0.84,0.118,1.682,0.134,2.525
	c0.016,0.809,0.017,1.618,0.016,2.426c-0.006,1.591-0.006,3.18,0.047,4.77c0.021,0.623,0.062,1.248,0.07,1.871
	c0.007,0.482-0.001,0.963-0.01,1.445c-0.167,0.154-0.275,0.369-0.275,0.612c0,0.452,0.386,0.856,0.846,0.844
	c1.768-0.043,3.53-0.146,5.297-0.097c1.735,0.047,3.471,0.029,5.208,0.05c0.856,0.01,1.711,0.023,2.567,0.033
	c0.883,0.01,1.768,0.006,2.651,0.019c0.848,0.014,1.696,0.091,2.544,0.122c0.811,0.029,1.624,0.054,2.435,0.058
	c0.943,0.004,1.886,0.018,2.829,0.019c0.435,0.002,0.869,0.01,1.302-0.006c0.437-0.014,0.871-0.035,1.308-0.031
	c0.491,0.004,0.9-0.413,0.9-0.9C30,27.949,29.951,27.812,29.883,27.684z M25.022,4.77c0.227,1.193,0.457,2.385,0.626,3.59
	c0.08,0.618,0.162,1.234,0.25,1.85c-0.004-0.029-0.008-0.057-0.011-0.086c0.005,0.038,0.01,0.075,0.015,0.113
	c0.004,0.03,0.008,0.059,0.013,0.089c-0.004-0.025-0.007-0.05-0.011-0.075c0.152,1.177,0.275,2.358,0.438,3.535
	c-0.602-0.017-1.204-0.05-1.807-0.066c-0.44-0.012-0.881-0.012-1.321-0.01c-0.18,0-0.36-0.002-0.541-0.003
	c0.032-0.314,0.061-0.628,0.085-0.943c0.039-0.479,0.085-0.959,0.132-1.438c0.084-0.859,0.156-1.721,0.262-2.578
	c0.106-0.696,0.245-1.384,0.363-2.079c0.103-0.607,0.16-1.221,0.208-1.835C24.156,4.816,24.589,4.796,25.022,4.77z M16.257,11.442
	c0.039-0.406,0.081-0.811,0.115-1.217c0.033-0.392,0.052-0.784,0.093-1.174c0.085-0.832,0.186-1.663,0.26-2.495
	c0.055-0.631,0.085-1.262,0.118-1.893c0.408-0.031,0.815-0.063,1.224-0.094c0.063,0.737,0.129,1.474,0.207,2.21
	c0.083,0.805,0.138,1.615,0.219,2.42c0.076,0.755,0.173,1.506,0.27,2.259c0.09,0.707,0.195,1.415,0.316,2.118
	c-0.982-0.044-1.964-0.072-2.946-0.091C16.154,12.801,16.193,12.121,16.257,11.442z M9.175,11.517
	c0.049-0.803,0.097-1.607,0.175-2.41c0.132-1.406,0.288-2.811,0.439-4.216c0.388-0.013,0.774-0.029,1.162-0.047
	c0.079,0.507,0.164,1.013,0.244,1.521c0.098,0.621,0.189,1.244,0.276,1.869c0.135,1.02,0.3,2.033,0.454,3.05
	c0.107,0.713,0.218,1.426,0.355,2.132c-0.876-0.014-1.752-0.031-2.628-0.042c-0.18-0.002-0.361-0.007-0.541-0.01
	C9.118,12.749,9.14,12.133,9.175,11.517z M12.365,27.202c-0.92-0.006-1.84-0.015-2.76-0.024c-0.022-0.383-0.033-0.766-0.045-1.149
	c-0.017-0.609-0.052-1.217-0.081-1.826c-0.047-0.947-0.017-1.891,0.005-2.836c0.463-0.026,0.926-0.056,1.389-0.074
	c0.458-0.019,0.923-0.022,1.386-0.008c-0.003,0.786-0.001,1.572-0.015,2.359c-0.017,1.028-0.08,2.057-0.052,3.087
	C12.195,26.909,12.266,27.067,12.365,27.202z M26.806,27.295c-0.834,0-1.667-0.017-2.501,0c-0.819,0.016-1.638,0.037-2.459,0.047
	c-0.834,0.012-1.665-0.025-2.497-0.072c-0.636-0.035-1.275-0.031-1.913-0.029c-0.243,0.002-0.483,0.002-0.724,0
	c-0.871-0.002-1.742-0.01-2.614-0.023c-0.156-0.002-0.312-0.002-0.468-0.004c0.109-0.137,0.185-0.3,0.175-0.482
	c-0.025-0.508-0.035-1.013-0.019-1.523c0.017-0.505,0.041-1.011,0.052-1.517c0.023-1.03,0.076-2.061,0.097-3.091
	c0.009-0.402-0.306-0.731-0.689-0.806c-0.112-0.058-0.234-0.101-0.368-0.109c-0.274-0.016-0.55-0.021-0.826-0.021
	c-0.179,0-0.359,0.002-0.538,0.003c-0.213,0.002-0.429,0.004-0.642,0.002c-0.776-0.004-1.552,0.006-2.329,0.045
	c-0.464,0.025-0.852,0.371-0.852,0.852c0,0.174,0.072,0.339,0.173,0.484c-0.005,1.035-0.011,2.071,0.04,3.104
	c0.029,0.602,0.066,1.201,0.083,1.801c0.008,0.291,0.016,0.582,0.019,0.873c0.002,0.112,0.009,0.225,0.011,0.337
	c-0.663-0.009-1.327-0.02-1.991-0.019c-0.425,0.002-0.848-0.002-1.271-0.004c-0.276-0.003-0.551-0.004-0.827-0.005
	c-0.015-0.575-0.024-1.15-0.044-1.724c-0.027-0.788-0.072-1.574-0.089-2.362c-0.017-0.792-0.016-1.583-0.012-2.375
	c0.002-0.801-0.004-1.601-0.002-2.4c0.003-1.175,0.004-2.345-0.05-3.518c1.438,0.104,2.882,0.111,4.324,0.111
	c1.71,0,3.419,0.008,5.129,0.019c1.657,0.01,3.314,0.052,4.97,0.105c1.653,0.054,3.303,0.18,4.956,0.237
	c0.495,0.017,0.992,0.019,1.486,0.041c0.487,0.021,0.97,0.08,1.453,0.132c0.423,0.045,0.85,0.068,1.277,0.08
	c0.211,0.006,0.424,0.013,0.637,0.017c0.006,0.849,0.034,1.697,0.059,2.545c0.027,0.88,0.017,1.762,0.057,2.641
	c0.039,0.874,0.085,1.749,0.112,2.625c0.029,0.86,0.027,1.719,0.045,2.58c0.005,0.264,0.014,0.527,0.036,0.789
	c0.014,0.186,0.042,0.377,0.053,0.566c-0.128,0.009-0.257,0.014-0.385,0.024C27.563,27.299,27.182,27.293,26.806,27.295z
	 M25.074,20.012c-0.157,0-0.294,0.053-0.419,0.126c-0.191,0-0.382,0.002-0.573,0.004c-0.233,0.002-0.464,0.004-0.697,0.002
	c-0.417-0.004-0.834-0.01-1.254-0.023c-0.431-0.013-0.862-0.022-1.292-0.022c-0.398,0-0.796,0.021-1.194,0.042
	c-0.145-0.205-0.373-0.349-0.639-0.349c-0.435,0-0.799,0.361-0.798,0.796c0.004,0.761,0.025,1.519,0.016,2.28
	c-0.006,0.503-0.012,1.006-0.017,1.509c-0.079,0.128-0.137,0.269-0.137,0.425c0,0.456,0.376,0.825,0.829,0.831
	c1.015,0.01,2.028,0.06,3.041,0.095c0.912,0.029,1.832,0.002,2.742,0.087c0.202,0.019,0.431-0.097,0.571-0.235
	c0.036-0.036,0.054-0.083,0.082-0.125c0.262-0.129,0.439-0.397,0.452-0.707c0.025-0.635,0.047-1.267,0.064-1.902
	c0.017-0.656,0.064-1.312,0.089-1.97C25.955,20.406,25.532,20.012,25.074,20.012z M20.537,24.044
	c-0.26-0.019-0.522-0.023-0.782-0.034c0.016-0.738,0.025-1.477,0.031-2.215c0.759-0.056,1.52-0.09,2.282-0.089
	c0.712,0.002,1.427,0.027,2.14,0.014c0,0.356-0.005,0.712-0.003,1.068c0.003,0.467-0.001,0.932-0.003,1.399
	c-0.747-0.029-1.495-0.016-2.243-0.047C21.486,24.119,21.012,24.079,20.537,24.044z M12.713,6.46
	c-0.001-0.008-0.002-0.017-0.003-0.025c0.003,0.018,0.005,0.036,0.007,0.054C12.716,6.479,12.715,6.47,12.713,6.46z M25.903,10.251
	c-0.002-0.014-0.004-0.027-0.006-0.041c0.001,0.009,0.003,0.018,0.004,0.027C25.902,10.241,25.902,10.246,25.903,10.251z"/>
</svg>