<?xml version="1.0" encoding="utf-8"?>
<!-- Generator: Adobe Illustrator 21.1.0, SVG Export Plug-In . SVG Version: 6.00 Build 0)  -->
<svg version="1.1" id="designs" xmlns="http://www.w3.org/2000/svg" xmlns:xlink="http://www.w3.org/1999/xlink" x="0px" y="0px"
	 width="32px" height="32px" viewBox="0 0 32 32" style="enable-background:new 0 0 32 32;" xml:space="preserve">
<style type="text/css">
	.sketchy_een{fill:#111918;}
</style>
<path class="sketchy_een" d="M26.309,8.35c0.01-0.049,0.03-0.094,0.028-0.145c-0.058-1.532-0.002-3.066-0.046-4.598
	c-0.007-0.235-0.116-0.442-0.28-0.588c0.006-0.038,0.024-0.074,0.024-0.113c0-0.456-0.365-0.779-0.802-0.804
	c-0.184-0.01-0.365,0.01-0.547,0.019c-0.207,0.012-0.413,0.015-0.62,0.021c-0.41,0.01-0.819,0.019-1.227,0.029
	c-0.763,0.017-1.524,0.021-2.287,0.033c-0.796,0.013-1.592,0.031-2.39,0.031c-0.782,0-1.565-0.006-2.347-0.006
	c-1.544-0.002-3.085-0.025-4.627-0.108c-0.386-0.021-0.773-0.05-1.159-0.062c-0.24-0.006-0.479-0.004-0.719-0.002
	c-0.139,0-0.278,0.002-0.417,0C8.087,2.052,7.281,2.022,6.475,2C6.468,2,6.461,2,6.453,2C6.063,2,5.746,2.329,5.706,2.709
	c-0.099,0.13-0.168,0.279-0.154,0.448C5.63,4.05,5.694,4.943,5.709,5.839C5.725,6.731,5.721,7.626,5.73,8.52
	C5.732,8.652,5.776,8.77,5.837,8.878C5.834,8.906,5.821,8.929,5.821,8.958c0,0.429,0.369,0.833,0.811,0.813
	c0.32-0.014,0.639-0.023,0.959-0.036c-0.042,0.74-0.071,1.48-0.073,2.222c0,0.815-0.008,1.63-0.025,2.448
	c-0.033,1.623,0.029,3.244,0.046,4.866c0.015,1.553,0.083,3.106,0.131,4.66c0.048,1.489,0.056,2.979,0.031,4.47
	c-0.004,0.203-0.01,0.406-0.027,0.61c-0.019,0.221,0.088,0.419,0.248,0.562c0.144,0.225,0.387,0.383,0.673,0.389
	c1.63,0.035,3.265-0.015,4.893-0.093c1.594-0.073,3.191-0.077,4.787-0.077c1.059,0,2.115,0.019,3.172,0.048
	c1.005,0.027,2.003,0.064,3.004,0.156c0.199,0.017,0.423-0.097,0.558-0.232c0.149-0.149,0.232-0.352,0.232-0.56
	c0-0.215-0.086-0.397-0.219-0.534c0.005-0.212,0.013-0.425,0.018-0.636c0.01-0.342,0.021-0.684,0.023-1.026
	c0.004-0.713,0-1.426-0.008-2.139c-0.006-0.753-0.021-1.505-0.06-2.256c-0.037-0.734-0.06-1.47-0.108-2.204
	c-0.05-0.775-0.071-1.551-0.108-2.326c-0.039-0.761-0.081-1.52-0.099-2.283c-0.019-0.767-0.023-1.534-0.044-2.299
	c-0.012-0.4-0.031-0.8-0.033-1.2c-0.004-0.379,0.006-0.755,0.014-1.134c0.01-0.429,0.019-0.86,0.027-1.29
	c0.002-0.099-0.02-0.192-0.055-0.279c0,0,0.002,0,0.002,0c0.108,0,0.218,0.002,0.328,0.004c0.24,0.002,0.479,0.006,0.719-0.014
	c0.22-0.017,0.411-0.077,0.574-0.238c0.151-0.151,0.236-0.359,0.236-0.572C26.449,8.625,26.391,8.48,26.309,8.35z M20.599,3.718
	c0.084,0,0.168,0,0.253,0c-0.042,0.793-0.071,1.586-0.078,2.381c-0.005,0.661,0.01,1.323,0.02,1.983
	c-0.403,0.004-0.806,0.001-1.208,0.002c0.022-0.071,0.044-0.142,0.039-0.219c-0.081-1.314-0.093-2.631-0.156-3.947
	c-0.003-0.07-0.027-0.133-0.045-0.198C19.815,3.719,20.207,3.719,20.599,3.718z M15.315,7.7c0.011,0.147,0.057,0.274,0.126,0.393
	c-0.557,0.002-1.115,0.001-1.672,0.003c0.034-0.085,0.055-0.176,0.049-0.273c-0.08-1.367-0.047-2.735-0.077-4.104
	c0.449,0.004,0.899,0.004,1.349,0.005c-0.005,0.041-0.024,0.079-0.021,0.121C15.168,5.13,15.219,6.417,15.315,7.7z M16.795,5.924
	c-0.031-0.694-0.05-1.385-0.099-2.079c-0.003-0.042-0.021-0.079-0.029-0.12c0.42,0,0.841-0.002,1.261-0.003
	c-0.016,0.064-0.039,0.126-0.035,0.195c0.041,0.68,0.079,1.36,0.116,2.04c0.035,0.636,0.052,1.273,0.108,1.907
	c0.007,0.08,0.026,0.151,0.046,0.222c-0.476,0-0.952,0.003-1.429,0.003c0.073-0.117,0.125-0.246,0.123-0.39
	C16.851,7.107,16.822,6.516,16.795,5.924z M11.257,3.65c0.297,0.016,0.595,0.016,0.892,0.026c0.026,0.687,0.056,1.374,0.069,2.061
	c0.012,0.697,0.033,1.391,0.083,2.086c0.007,0.098,0.026,0.19,0.058,0.275c-0.251,0-0.503,0.003-0.754,0.002
	c-0.243-0.001-0.487,0-0.73,0c-0.084-0.289-0.119-0.593-0.16-0.892c-0.063-0.522-0.095-1.041-0.116-1.567
	c-0.027-0.663-0.062-1.323-0.099-1.986c-0.001-0.016-0.009-0.03-0.011-0.046C10.745,3.623,11.001,3.638,11.257,3.65z M8.904,3.579
	c-0.002,0.027-0.015,0.05-0.014,0.077c0.054,0.821,0.116,1.64,0.172,2.459c0.023,0.338,0.05,0.676,0.095,1.012
	c0.031,0.224,0.06,0.45,0.093,0.676C9.264,7.902,9.285,8,9.299,8.099C8.608,8.102,7.917,8.117,7.226,8.136
	c0.016-1.52,0.023-3.044-0.072-4.561C7.486,3.576,7.819,3.58,8.152,3.579C8.402,3.579,8.653,3.579,8.904,3.579z M19.862,28.321
	c-0.965-0.013-1.928-0.02-2.892-0.02c-0.675,0-1.35,0.004-2.026,0.013c-1.005,0.012-2.007,0.052-3.012,0.068
	c-0.896,0.016-1.791,0.002-2.687-0.021c-0.004-0.139-0.009-0.278-0.011-0.416C9.23,27.6,9.226,27.254,9.218,26.91
	c-0.019-0.779-0.033-1.555-0.052-2.334c-0.037-1.538-0.112-3.077-0.128-4.615c-0.017-1.629-0.06-3.257-0.052-4.886
	c0.004-0.794,0.044-1.59,0.058-2.384c0.015-0.835,0.046-1.667,0.095-2.5c0.01-0.172,0.024-0.344,0.037-0.515
	c0.06-0.002,0.12-0.005,0.18-0.007c0.792-0.017,1.584-0.017,2.376-0.019c1.621-0.006,3.244-0.013,4.864-0.012
	c1.544,0,3.085,0.004,4.629,0.008c0.638,0.002,1.276-0.014,1.914-0.03c-0.031,0.083-0.054,0.17-0.056,0.262
	c-0.012,0.823-0.013,1.646,0.017,2.467c0.031,0.788,0.073,1.574,0.097,2.363c0.019,0.704,0.047,1.408,0.082,2.111
	c-0.095-0.038-0.197-0.062-0.305-0.061c-0.698,0.003-1.393,0.01-2.088-0.042c-0.011-0.076-0.023-0.153-0.037-0.229
	c-0.039-0.224-0.095-0.446-0.135-0.669c-0.04-0.42-0.052-0.844-0.087-1.265c-0.019-0.23-0.079-0.427-0.247-0.595
	c-0.158-0.158-0.373-0.247-0.597-0.247c-0.048,0-0.094,0.021-0.141,0.03c-0.134-0.109-0.295-0.184-0.477-0.182
	c-0.856,0.008-1.712-0.027-2.567-0.037c-0.002,0-0.005,0-0.007,0c-0.439,0-0.807,0.377-0.807,0.815c0,0.152,0.055,0.287,0.13,0.41
	c-0.038,0.23-0.072,0.46-0.087,0.689c-0.023,0.323-0.035,0.641-0.037,0.964c-0.003,0.28,0.022,0.559,0.034,0.84
	c-0.505,0.032-1.01,0.068-1.517,0.095c-0.245,0.014-0.497,0.014-0.742,0.041c-0.097,0.012-0.199,0.015-0.294,0.044
	c-0.211,0.07-0.383,0.189-0.5,0.384c-0.07,0.114-0.129,0.299-0.12,0.435c0.005,0.067,0.014,0.134,0.024,0.201
	c0.061,0.545,0.092,1.092,0.121,1.638c0.014,0.284,0.033,0.57,0.048,0.856c0.015,0.284,0.021,0.572,0.056,0.854
	c0.029,0.228,0.071,0.411,0.24,0.58c0.148,0.146,0.347,0.228,0.554,0.234c0.121,0.078,0.256,0.135,0.407,0.131
	c0.597-0.014,1.195-0.03,1.792-0.046c0.002,0.235,0.003,0.471,0.006,0.706c0.006,0.487-0.012,0.978,0.077,1.457
	c0.015,0.082,0.058,0.149,0.1,0.216c-0.01,0.053-0.031,0.104-0.031,0.159c0,0.222,0.089,0.439,0.245,0.595
	c0.17,0.17,0.365,0.226,0.597,0.247c1.037,0.1,2.079,0.118,3.12,0.108c0.359-0.003,0.659-0.251,0.759-0.582
	c0.229-0.135,0.39-0.375,0.394-0.657c0.01-0.761,0.041-1.522,0.054-2.282c0.79,0.001,1.578-0.005,2.367-0.006
	c0.018,0.387,0.041,0.774,0.051,1.162c0.041,1.42,0.039,2.846,0,4.264c-0.002,0.106-0.014,0.21-0.018,0.315
	c-0.486-0.015-0.973-0.032-1.458-0.044C21.394,28.325,20.627,28.331,19.862,28.321z M20.97,20.999c-0.003,0-0.007,0-0.01,0
	c-0.343,0-0.637,0.23-0.757,0.537c-0.327,0.1-0.577,0.396-0.576,0.752c0.005,0.754,0.001,1.507-0.01,2.261
	c-0.701-0.011-1.401-0.052-2.099-0.115c-0.021-0.345-0.009-0.694-0.004-1.04c0.006-0.485,0.008-0.97,0.01-1.457
	c0.002-0.444-0.373-0.817-0.817-0.817c-0.103,0-0.201,0.024-0.293,0.061c-0.081-0.03-0.165-0.054-0.255-0.054
	c-0.003,0-0.007,0-0.01,0c-0.559,0.009-1.119,0.021-1.678,0.032c-0.045-0.421-0.09-0.841-0.113-1.265
	c-0.015-0.284-0.029-0.568-0.042-0.852c-0.001-0.021-0.002-0.042-0.003-0.064c0.118-0.002,0.235-0.004,0.351-0.008
	c0.5-0.019,1.001-0.044,1.499-0.073c0.169-0.009,0.319-0.073,0.452-0.158c0.011,0,0.021,0.006,0.032,0.006
	c0.431,0,0.788-0.359,0.79-0.79c0-0.406-0.004-0.809,0.006-1.215c0.011-0.429,0.034-0.851,0.074-1.278
	c0.017-0.104,0.035-0.208,0.052-0.313c0.143-0.001,0.285-0.001,0.428-0.002c0.331-0.003,0.662-0.005,0.992-0.026
	c0.017,0.205,0.037,0.411,0.049,0.616c0.023,0.37,0.092,0.733,0.145,1.098c0.012,0.091,0.023,0.182,0.032,0.273
	c0.023,0.236,0.027,0.493,0.158,0.699c0.147,0.228,0.317,0.363,0.572,0.46c0.178,0.066,0.377,0.085,0.566,0.099
	c0.184,0.012,0.365,0.023,0.549,0.031c0.639,0.027,1.277,0.054,1.916,0.046c0.137-0.002,0.262-0.044,0.377-0.104
	c0.014,0.307,0.03,0.614,0.045,0.921c0.03,0.597,0.072,1.194,0.108,1.792C22.66,21.035,21.816,21.011,20.97,20.999z M23.459,8.039
	c-0.363,0.006-0.726,0.012-1.088,0.02c-0.014-0.631-0.028-1.263-0.003-1.896c0.031-0.815,0.075-1.632,0.122-2.448
	c0.139,0,0.279,0,0.418-0.001c0.386-0.002,0.771-0.008,1.157-0.01c0.214-0.001,0.43-0.005,0.646-0.005
	c0.03,0.783,0.06,1.565,0.071,2.348c0.009,0.654,0.009,1.311,0.055,1.964C24.376,8.026,23.916,8.03,23.459,8.039z"/>
</svg>