<?xml version="1.0" encoding="utf-8"?>
<!-- Generator: Adobe Illustrator 21.1.0, SVG Export Plug-In . SVG Version: 6.00 Build 0)  -->
<svg version="1.1" id="designs" xmlns="http://www.w3.org/2000/svg" xmlns:xlink="http://www.w3.org/1999/xlink" x="0px" y="0px"
	 width="32px" height="32px" viewBox="0 0 32 32" style="enable-background:new 0 0 32 32;" xml:space="preserve">
<style type="text/css">
	.sketchy_een{fill:#111918;}
</style>
<path class="sketchy_een" d="M26.514,7.406C26.991,7.432,27.39,6.99,27.39,6.53c0-0.309-0.17-0.563-0.411-0.719
	c-0.012-0.082-0.024-0.164-0.036-0.246c-0.039-0.364-0.028-0.73-0.013-1.094c0.02-0.507,0.049-1.014,0.075-1.518
	c0.016-0.311-0.184-0.578-0.448-0.718C26.416,2.092,26.223,2,26.011,2c-0.001,0-0.002,0-0.003,0
	c-0.746,0.004-1.493,0.057-2.239,0.059c-0.798,0.002-1.595-0.018-2.393-0.023c-0.894-0.006-1.788-0.002-2.681,0.002
	c-0.715,0.004-1.43,0.008-2.145,0.004c-0.354,0-0.705,0-1.057,0c-0.469,0-0.941,0.002-1.408-0.004
	c-0.784-0.008-1.568-0.016-2.351-0.018c-0.815,0-1.63,0.006-2.445,0.004C8.49,2.02,7.691,2.045,6.891,2.049
	C6.544,2.051,6.194,2.045,5.846,2.041C5.729,2.039,5.617,2.064,5.515,2.109C5.487,2.106,5.461,2.092,5.432,2.092
	c-0.448,0-0.819,0.373-0.821,0.819C4.609,3.502,4.609,4.097,4.639,4.687c0.029,0.57,0.043,1.149,0.138,1.713
	c0.013,0.084,0.062,0.164,0.116,0.24c0.04,0.13,0.1,0.252,0.197,0.349c0.165,0.165,0.365,0.23,0.595,0.246
	C6.16,7.267,6.639,7.308,7.116,7.304c0.067-0.001,0.133-0.005,0.2-0.006c0.003,0.706,0.028,1.411,0.043,2.116
	c0.016,0.795,0.077,1.589,0.116,2.385c0.075,1.548,0.193,3.092,0.253,4.64c0.051,1.326,0.069,2.652,0.092,3.978
	c0.012,0.65,0.024,1.298,0.02,1.947c-0.003,0.514,0.004,1.031-0.018,1.545c-0.519-0.003-1.037-0.007-1.557-0.002
	c-0.258,0.002-0.481,0.135-0.631,0.328c-0.263,0.143-0.461,0.409-0.446,0.72c0.033,0.666,0.092,1.33,0.102,1.998
	c0.008,0.635-0.033,1.287,0.069,1.913c0.057,0.346,0.444,0.587,0.772,0.587c0.003,0,0.005-0.001,0.008-0.001
	c0.138,0.095,0.296,0.164,0.473,0.164c1.646-0.012,3.292-0.065,4.938-0.071c0.401-0.002,0.803,0.016,1.204,0.02
	c0.434,0.004,0.866,0.006,1.3,0.014c0.817,0.014,1.634,0.025,2.449,0.029c1.511,0.006,3.019,0.002,4.528,0.063
	c0.733,0.029,1.463,0.053,2.198,0.059c0.731,0.008,1.459,0.037,2.19,0.053c0.064,0.001,0.121-0.021,0.181-0.035
	c0.197,0.202,0.484,0.307,0.776,0.227c0.2-0.055,0.373-0.188,0.477-0.367c0.116-0.196,0.124-0.399,0.081-0.617
	c-0.026-0.131-0.045-0.264-0.063-0.397c-0.137-1.175-0.094-2.363-0.19-3.541c-0.018-0.228-0.077-0.422-0.244-0.587
	c-0.155-0.157-0.367-0.246-0.587-0.246c-0.08,0-0.155,0.024-0.231,0.046c-0.056-0.011-0.108-0.034-0.166-0.031
	c-0.353,0.016-0.707,0.013-1.061,0.004c-0.029-0.347-0.032-0.693-0.046-1.04c-0.014-0.389-0.027-0.778-0.037-1.167
	c-0.018-0.762-0.012-1.524-0.006-2.288c0.01-1.65-0.012-3.3,0.026-4.95c0.031-1.279,0.079-2.557,0.11-3.836
	c0.016-0.626,0.039-1.255,0.055-1.884c0.016-0.618-0.009-1.232-0.052-1.848c0.408,0.038,0.815,0.081,1.223,0.119
	C25.948,7.369,26.231,7.393,26.514,7.406z M6.843,5.638c-0.176-0.01-0.352-0.026-0.528-0.039C6.278,5.222,6.248,4.844,6.238,4.465
	C6.231,4.219,6.24,3.971,6.244,3.725c0.711-0.01,1.422-0.043,2.132-0.061c0.797-0.02,1.595-0.026,2.392-0.037
	c1.027-0.014,2.055-0.012,3.082-0.012c0.572,0,1.143,0,1.715-0.002c1.644-0.008,3.286-0.004,4.928,0.014
	c0.776,0.01,1.55,0.023,2.326,0.023c0.397,0,0.794,0.006,1.19-0.006c0.352-0.012,0.701-0.043,1.053-0.065
	c0.094-0.006,0.188-0.006,0.283-0.01c-0.012,0.407-0.025,0.815-0.03,1.223c-0.004,0.255-0.008,0.511,0.016,0.766
	c0.002,0.019,0.006,0.038,0.008,0.057c-0.333-0.013-0.665-0.027-0.998-0.033c-0.821-0.016-1.644,0.002-2.467,0.02
	c-1.66,0.037-3.32,0.037-4.979-0.006c-1.674-0.041-3.343-0.012-5.015,0.008c-0.851,0.012-1.701,0.018-2.552,0.039
	C8.501,5.666,7.67,5.686,6.843,5.638z M8.85,9.125C8.847,8.5,8.861,7.874,8.874,7.249c0.683-0.024,1.367-0.039,2.051-0.07
	c0.866-0.039,1.735-0.064,2.604-0.077c-0.184,0.125-0.363,0.257-0.548,0.381c-0.581,0.389-1.171,0.764-1.754,1.151
	c-0.784,0.519-1.567,1.047-2.334,1.596C8.877,9.862,8.851,9.494,8.85,9.125z M18.64,7.725c-0.959,0.734-1.909,1.479-2.889,2.182
	c-0.513,0.371-1.041,0.717-1.538,1.112c-0.47,0.372-0.934,0.751-1.409,1.118c-0.748,0.568-1.497,1.134-2.25,1.693
	c-0.365,0.269-0.735,0.53-1.098,0.801c-0.107,0.08-0.214,0.157-0.321,0.237c-0.049-0.948-0.103-1.895-0.158-2.843
	c0.02-0.015,0.04-0.023,0.061-0.039c0.117-0.092,0.232-0.185,0.347-0.278c0.921-0.701,1.883-1.355,2.867-1.966
	c0.519-0.322,1.049-0.628,1.568-0.955c0.64-0.401,1.269-0.815,1.886-1.251c0.163-0.116,0.28-0.25,0.345-0.436
	c1.112,0.018,2.223,0.04,3.334,0.049c-0.259,0.201-0.519,0.4-0.778,0.601C18.617,7.742,18.628,7.733,18.64,7.725z M9.369,23.902
	c-0.008-0.859-0.02-1.717-0.031-2.575c0.604-0.454,1.227-0.885,1.834-1.334c0.603-0.446,1.198-0.902,1.799-1.351
	c1.261-0.943,2.473-1.949,3.701-2.935c0.581-0.467,1.163-0.935,1.752-1.393c0.568-0.442,1.133-0.886,1.677-1.357
	c0.556-0.483,1.116-0.955,1.689-1.416c0.365-0.292,0.716-0.601,1.073-0.902c-0.013,0.503-0.022,1.006-0.043,1.509
	c-0.025,0.549-0.034,1.098-0.047,1.646c-0.559,0.485-1.13,0.955-1.709,1.417c-0.686,0.529-1.373,1.057-2.058,1.588
	c-1.225,0.928-2.481,1.812-3.702,2.744c-0.636,0.483-1.249,0.994-1.87,1.497c-0.615,0.497-1.239,0.98-1.85,1.481
	c-0.223,0.182-0.442,0.368-0.667,0.546c-0.177,0.136-0.357,0.268-0.538,0.4c-0.157,0.115-0.272,0.239-0.336,0.424
	C9.819,23.896,9.594,23.898,9.369,23.902z M12.633,23.572c0.479-0.405,0.964-0.801,1.446-1.198c0.932-0.77,1.853-1.549,2.805-2.291
	c1.103-0.834,2.23-1.633,3.343-2.455c0.566-0.417,1.153-0.805,1.717-1.224c0.269-0.2,0.534-0.404,0.799-0.608
	c-0.003,0.448-0.008,0.896-0.008,1.344c0.001,0.504,0.006,1.008,0.011,1.512c-0.674,0.563-1.337,1.141-2.007,1.711
	c-0.642,0.547-1.304,1.074-1.967,1.598c-0.769,0.586-1.567,1.125-2.352,1.69c-0.146,0.106-0.255,0.226-0.315,0.396
	c-0.038,0-0.076,0-0.114,0c-0.807-0.006-1.613-0.016-2.418-0.045c-0.458-0.016-0.917-0.04-1.375-0.061
	C12.341,23.817,12.487,23.694,12.633,23.572z M18.392,23.911c1.467-1.117,2.923-2.251,4.366-3.401
	c0.001,0.089,0.001,0.177,0.002,0.266c0.004,0.583,0.01,1.169,0.029,1.754c0.02,0.547,0.027,1.097,0.055,1.646
	c-0.668-0.024-1.335-0.025-2.005-0.045c-0.792-0.023-1.583-0.071-2.377-0.074c-0.083-0.001-0.165-0.001-0.248-0.001
	C18.274,24.007,18.332,23.959,18.392,23.911z M22.875,8.672c-0.065,0.034-0.132,0.066-0.189,0.116
	c-1.21,1.076-2.416,2.155-3.618,3.239c-0.587,0.53-1.216,1.013-1.837,1.503c-0.578,0.454-1.153,0.909-1.729,1.367
	c-0.887,0.705-1.761,1.424-2.654,2.119c-0.691,0.522-1.39,1.032-2.091,1.54c-0.476,0.344-0.963,0.676-1.448,1.01
	c-0.02-0.976-0.063-1.95-0.104-2.925c0.974-0.742,1.978-1.444,2.949-2.191c0.579-0.446,1.171-0.878,1.746-1.328
	c0.528-0.411,1.039-0.844,1.565-1.259c0.454-0.336,0.918-0.663,1.376-0.996c0.469-0.342,0.931-0.697,1.404-1.039
	c1.027-0.742,2.072-1.458,3.09-2.216c0.171-0.128,0.302-0.255,0.361-0.469c0,0,0-0.001,0-0.001c0.364-0.005,0.728-0.003,1.092,0
	C22.832,7.652,22.86,8.162,22.875,8.672z M23.041,28.107c-0.811,0.002-1.621-0.012-2.432-0.035
	c-1.626-0.049-3.255-0.014-4.881-0.045c-0.756-0.016-1.514-0.023-2.271-0.041c-0.766-0.016-1.532-0.057-2.298-0.061
	c-0.75-0.006-1.501-0.008-2.251-0.008c-0.667-0.002-1.333-0.02-1.999-0.028c0-0.009-0.001-0.019-0.001-0.028
	c0.002-0.303,0-0.607-0.004-0.91c-0.006-0.48-0.021-0.96-0.035-1.44c0.675-0.023,1.35-0.051,2.023-0.071
	c0.788-0.024,1.571-0.057,2.357-0.018c0.796,0.042,1.595,0.061,2.391,0.086c0.821,0.024,1.642,0.051,2.463,0.059
	c0.796,0.008,1.591,0.002,2.385,0.016s1.585,0.059,2.377,0.09c0.774,0.03,1.548,0.077,2.322,0.118
	c0.383,0.02,0.764,0.049,1.145,0.071c0.252,0.016,0.506,0.02,0.759,0.027c0.039,0.496,0.07,0.992,0.076,1.49
	c0.003,0.256,0.03,0.511,0.052,0.765c-0.32-0.006-0.639-0.018-0.961-0.027C23.854,28.105,23.447,28.107,23.041,28.107z"/>
</svg>