<?xml version="1.0" encoding="utf-8"?>
<!-- Generator: Adobe Illustrator 21.1.0, SVG Export Plug-In . SVG Version: 6.00 Build 0)  -->
<svg version="1.1" id="designs" xmlns="http://www.w3.org/2000/svg" xmlns:xlink="http://www.w3.org/1999/xlink" x="0px" y="0px"
	 width="32px" height="32px" viewBox="0 0 32 32" style="enable-background:new 0 0 32 32;" xml:space="preserve">
<style type="text/css">
	.sketchy_een{fill:#111918;}
</style>
<path class="sketchy_een" d="M26.945,19.584c-0.006-1.626-0.079-3.249-0.077-4.875c0.004-1.645-0.022-3.287-0.057-4.932
	c-0.024-1.069-0.006-2.139-0.004-3.208c0.004-1.154-0.02-2.301-0.095-3.453c-0.026-0.397-0.293-0.721-0.682-0.788
	C25.878,2.134,25.653,2,25.394,2c-0.802,0.004-1.604,0.028-2.408,0.026c-0.865-0.002-1.73-0.01-2.596,0
	c-1.717,0.018-3.433,0.109-5.152,0.119c-1.47,0.008-2.939,0.03-4.411,0.057C9.214,2.233,7.6,2.235,5.986,2.294
	C5.579,2.308,5.248,2.596,5.178,2.989C5.071,3.131,4.995,3.297,5.004,3.484c0.039,0.905,0.087,1.807,0.128,2.712
	c0.039,0.836,0.045,1.675,0.055,2.511c0.016,1.673,0.026,3.346,0.014,5.019c-0.01,1.687-0.008,3.376-0.008,5.065
	c0,0.826,0.03,1.649,0.032,2.475c0,0.824-0.004,1.647-0.006,2.471c-0.008,1.809,0.053,3.615,0.043,5.422
	C5.261,29.617,5.646,30,6.102,30c0.151,0,0.28-0.048,0.397-0.114c0.866,0.053,1.734,0.079,2.603,0.089
	c0.79,0.01,1.578-0.016,2.368-0.036c1.695-0.045,3.39-0.105,5.086-0.121c0.747-0.006,1.493-0.014,2.24-0.032
	c0.79-0.018,1.58-0.061,2.368-0.101c0.762-0.039,1.523-0.105,2.287-0.13c0.346-0.012,0.691-0.02,1.039-0.022
	c0.349,0,0.699,0.019,1.048-0.007c0.139,0.222,0.385,0.38,0.649,0.38c0.417,0,0.764-0.348,0.764-0.764
	c0.002-0.804,0.034-1.608,0.036-2.412c0.004-0.774,0.006-1.549,0.008-2.323C27,22.8,26.951,21.192,26.945,19.584z M11.422,3.784
	c1.707-0.049,3.417-0.022,5.126-0.055c0.737-0.014,1.472-0.055,2.208-0.071c0.747-0.014,1.493-0.016,2.24-0.018
	c1.373-0.006,2.745-0.003,4.118,0.007c0.047,0.681,0.091,1.361,0.106,2.045c0.02,0.79,0.014,1.584,0.012,2.376
	c-0.001,0.277,0.008,0.554,0.009,0.831c-0.068-0.003-0.136-0.021-0.203-0.008C24.84,8.904,24.639,8.9,24.439,8.897
	c-0.111-0.002-0.221-0.004-0.33-0.004c-0.411,0.002-0.824-0.02-1.237-0.032c-0.381-0.012-0.763-0.016-1.145-0.016
	c-0.408,0-0.816,0.004-1.223,0.006c-1.624,0.01-3.247,0-4.871,0.018c-0.715,0.01-1.43,0.004-2.145,0.01
	c-0.753,0.008-1.503,0.055-2.258,0.071C9.768,8.982,8.305,9.044,6.842,9.069c0.006-0.861,0.015-1.724-0.018-2.585
	C6.79,5.637,6.766,4.789,6.738,3.942C8.299,3.881,9.86,3.828,11.422,3.784z M24.978,8.906c0,0-0.001,0-0.002,0
	c-0.001,0-0.002,0-0.002,0C24.975,8.906,24.976,8.906,24.978,8.906z M24.395,27.944c-0.395,0.014-0.792,0.022-1.187,0.038
	c-0.804,0.028-1.604,0.113-2.406,0.156c-1.655,0.091-3.319,0.119-4.976,0.126c-1.56,0.01-3.123,0.051-4.683,0.099
	c-0.725,0.022-1.446,0.051-2.171,0.036c-0.677-0.014-1.35-0.056-2.024-0.098c-0.001-0.116,0.002-0.233,0.002-0.349
	c0-0.411-0.002-0.82-0.006-1.231c-0.008-0.81-0.03-1.622-0.032-2.432c-0.002-1.636-0.032-3.267-0.079-4.901
	c-0.026-0.877-0.016-1.754-0.02-2.629c-0.002-0.836-0.002-1.671-0.002-2.507c0-1.177,0.011-2.352,0.021-3.528
	c0.808-0.038,1.611-0.122,2.418-0.157c0.812-0.036,1.624-0.02,2.436-0.036c1.584-0.032,3.168-0.004,4.753-0.03
	c0.731-0.014,1.462-0.018,2.191-0.018c0.749,0,1.495-0.02,2.244-0.02c0.757-0.002,1.511,0.04,2.27,0.071
	c0.362,0.016,0.723,0.022,1.084,0.03c0.184,0.004,0.367,0.002,0.551,0c0.14,0,0.282,0.012,0.423,0.006
	c0.021-0.001,0.038-0.011,0.059-0.013c0.024,0.788,0.042,1.577,0.046,2.365c0.006,0.83,0.006,1.659,0.014,2.489
	c0.006,0.824,0.043,1.645,0.069,2.469c0.026,0.806,0.022,1.614,0.036,2.422c0.012,0.832,0.036,1.663,0.049,2.493
	c0.02,1.045,0.028,2.09,0.034,3.135c0.004,0.655-0.012,1.309-0.035,1.963c-0.032,0.004-0.065,0.004-0.097,0.012
	C25.05,27.934,24.722,27.932,24.395,27.944z M8.769,6.248c0-0.468,0.391-0.859,0.859-0.859s0.859,0.391,0.859,0.859
	s-0.391,0.859-0.859,0.859S8.769,6.716,8.769,6.248z M13.029,6.083c0-0.468,0.391-0.859,0.859-0.859s0.859,0.391,0.859,0.859
	s-0.391,0.859-0.859,0.859S13.029,6.552,13.029,6.083z M23.044,16.255c-0.156-0.359-0.326-0.723-0.537-1.053
	c-0.259-0.403-0.559-0.778-0.895-1.12c-0.322-0.326-0.693-0.606-1.061-0.879c-0.148-0.111-0.304-0.211-0.46-0.31
	c-0.231-0.144-0.496-0.239-0.747-0.334c-0.205-0.077-0.417-0.136-0.622-0.211c-0.235-0.083-0.47-0.168-0.713-0.233
	c-0.425-0.117-0.867-0.176-1.308-0.188c-0.001,0-0.003,0-0.004,0c-0.138-0.096-0.306-0.155-0.486-0.164
	c-0.091-0.005-0.182-0.007-0.274-0.007c-0.848,0-1.689,0.208-2.49,0.474c-0.456,0.152-0.911,0.342-1.323,0.589
	c-0.425,0.253-0.81,0.563-1.187,0.883c-0.332,0.281-0.678,0.569-0.974,0.889c-0.31,0.336-0.561,0.725-0.749,1.14
	c-0.194,0.427-0.371,0.865-0.512,1.312c-0.126,0.409-0.221,0.828-0.298,1.248c-0.047,0.267-0.073,0.535-0.093,0.804
	c-0.022,0.263-0.042,0.525-0.022,0.788c0.039,0.464,0.162,0.922,0.282,1.371c0.221,0.834,0.531,1.665,1.025,2.38
	c0.265,0.383,0.608,0.709,0.948,1.025c0.142,0.13,0.292,0.249,0.444,0.367c0.203,0.16,0.403,0.326,0.622,0.462
	c0.735,0.46,1.553,0.745,2.36,1.047c0.188,0.069,0.375,0.134,0.573,0.174c0.279,0.055,0.565,0.067,0.847,0.079
	c0.476,0.02,0.94-0.038,1.408-0.12c0.405-0.071,0.81-0.136,1.197-0.279c0.444-0.164,0.871-0.363,1.292-0.579
	c0.377-0.194,0.729-0.435,1.073-0.681c0.379-0.271,0.764-0.567,1.088-0.903c0.326-0.34,0.628-0.711,0.865-1.118
	c0.097-0.166,0.17-0.35,0.243-0.527c0.117-0.275,0.229-0.547,0.312-0.834c0.117-0.405,0.249-0.81,0.346-1.223
	c0.109-0.464,0.146-0.95,0.172-1.426c0.022-0.419,0.039-0.84,0.034-1.26c-0.004-0.271-0.03-0.549-0.093-0.812
	C23.266,16.756,23.155,16.505,23.044,16.255z M19.492,14.69c0.02,0.015,0.04,0.031,0.061,0.046c-0.015-0.011-0.03-0.022-0.045-0.034
	c0.022,0.017,0.044,0.034,0.066,0.051c-0.036-0.027-0.071-0.054-0.107-0.082c0.006,0.005,0.013,0.01,0.019,0.015
	c-0.04-0.031-0.08-0.061-0.119-0.092C19.408,14.625,19.45,14.657,19.492,14.69z M21.584,19.787c-0.054,0.313-0.133,0.614-0.226,0.92
	c-0.103,0.337-0.203,0.671-0.329,0.998c-0.138,0.303-0.285,0.594-0.473,0.869c-0.137,0.167-0.279,0.328-0.427,0.486
	c-0.155,0.165-0.338,0.307-0.518,0.446c-0.554,0.415-1.148,0.778-1.778,1.063c-0.258,0.1-0.519,0.187-0.788,0.256
	c-0.242,0.058-0.491,0.096-0.737,0.133c-0.37,0.038-0.735,0.023-1.105-0.013c-0.454-0.083-0.889-0.273-1.315-0.456
	c-0.348-0.154-0.688-0.318-1.017-0.507c-0.317-0.182-0.606-0.395-0.897-0.612c-0.313-0.255-0.618-0.54-0.875-0.851
	c-0.233-0.325-0.435-0.66-0.604-1.023c-0.209-0.546-0.373-1.121-0.469-1.699c-0.026-0.387,0.011-0.783,0.055-1.169
	c0.055-0.34,0.118-0.684,0.208-1.016c0.097-0.363,0.222-0.713,0.358-1.062c0.117-0.258,0.246-0.501,0.408-0.73
	c0.38-0.452,0.84-0.834,1.302-1.202c0.381-0.277,0.778-0.511,1.207-0.709c0.427-0.166,0.863-0.298,1.309-0.395
	c0.13,0.092,0.299,0.158,0.451,0.142c0.516-0.052,1.027-0.108,1.545-0.062c0.388,0.067,0.753,0.189,1.118,0.337
	c0.249,0.106,0.5,0.201,0.751,0.299c0.253,0.118,0.483,0.263,0.708,0.429c0.407,0.329,0.785,0.68,1.122,1.081
	c0.345,0.482,0.632,1.011,0.873,1.554c0.061,0.169,0.11,0.338,0.145,0.514C21.656,18.46,21.645,19.132,21.584,19.787z
	 M19.486,14.685c0.002,0.001,0.004,0.003,0.006,0.004c0.005,0.004,0.011,0.008,0.016,0.012C19.5,14.696,19.493,14.691,19.486,14.685
	z M20.177,20.184c-0.033,0.091-0.07,0.181-0.107,0.27c0.002-0.005,0.004-0.01,0.007-0.015c-0.182,0.431-0.344,0.893-0.622,1.27
	c-0.286,0.389-0.577,0.76-0.968,1.049c-0.172,0.124-0.369,0.223-0.551,0.332c-0.162,0.095-0.326,0.182-0.498,0.259
	c-0.251,0.111-0.504,0.194-0.778,0.237c-0.178,0.028-0.365,0.055-0.545,0.067c-0.318,0.022-0.618-0.022-0.93-0.065
	c-0.182-0.026-0.363-0.198-0.452-0.348c-0.101-0.174-0.128-0.387-0.075-0.583c0.051-0.188,0.178-0.352,0.346-0.45
	c0.192-0.113,0.373-0.109,0.583-0.075c0.042,0.006,0.085,0.012,0.127,0.018c0.231,0.02,0.461,0.01,0.692-0.014
	c0.131-0.027,0.255-0.062,0.379-0.106c0.149-0.074,0.29-0.159,0.432-0.243c0.151-0.09,0.303-0.177,0.446-0.277
	c0.186-0.169,0.348-0.36,0.504-0.556c0.168-0.235,0.297-0.497,0.413-0.761c0.049-0.137,0.092-0.274,0.128-0.414
	c0.084-0.337,0.408-0.56,0.743-0.56c0.065,0,0.131,0.009,0.196,0.026C20.021,19.349,20.32,19.793,20.177,20.184z"/>
</svg>