<?xml version="1.0" encoding="utf-8"?>
<!-- Generator: Adobe Illustrator 21.1.0, SVG Export Plug-In . SVG Version: 6.00 Build 0)  -->
<svg version="1.1" id="designs" xmlns="http://www.w3.org/2000/svg" xmlns:xlink="http://www.w3.org/1999/xlink" x="0px" y="0px"
	 width="32px" height="32px" viewBox="0 0 32 32" style="enable-background:new 0 0 32 32;" xml:space="preserve">
<style type="text/css">
	.sketchy_een{fill:#111918;}
</style>
<path class="sketchy_een" d="M28.496,21.589c-0.023-0.238-0.056-0.479-0.104-0.715c-0.04-0.188-0.119-0.367-0.198-0.542
	c-0.079-0.177-0.246-0.323-0.396-0.44c-0.127-0.098-0.252-0.196-0.382-0.284c-0.11-0.073-0.221-0.146-0.338-0.204
	c-0.175-0.084-0.354-0.142-0.536-0.186c-0.059-1.014-0.057-2.027-0.08-3.043c-0.012-0.571-0.062-1.14-0.073-1.708
	c-0.011-0.623,0.05-1.249,0.081-1.87c0.001-0.021-0.01-0.039-0.011-0.059c0.232-0.092,0.457-0.202,0.662-0.332
	c0.323-0.204,0.577-0.53,0.734-0.874c0.16-0.348,0.256-0.696,0.254-1.082c0-0.281-0.061-0.565-0.109-0.842
	c-0.033-0.188-0.071-0.377-0.146-0.554c-0.142-0.342-0.334-0.63-0.615-0.878c-0.123-0.108-0.254-0.208-0.398-0.281
	c-0.15-0.077-0.317-0.135-0.479-0.186c-0.158-0.051-0.323-0.044-0.473,0.005c-0.013-0.004-0.025-0.008-0.038-0.011
	c-0.137-0.036-0.318-0.088-0.465-0.088c-0.012,0-0.024,0-0.035,0.001c-0.231,0.015-0.442,0.044-0.657,0.129
	c-0.283,0.113-0.521,0.29-0.736,0.495c-0.317-0.233-0.631-0.47-0.961-0.686c-0.457-0.3-0.921-0.592-1.372-0.898
	c-0.997-0.677-2.031-1.29-3.063-1.906c-0.05-0.029-0.103-0.048-0.155-0.065c0.003-0.179-0.005-0.358-0.043-0.537
	c-0.033-0.146-0.115-0.296-0.19-0.427c-0.067-0.115-0.154-0.221-0.234-0.325c-0.113-0.14-0.233-0.277-0.356-0.407
	c-0.15-0.161-0.336-0.307-0.525-0.417c-0.207-0.119-0.422-0.202-0.653-0.243C16.277,2.047,16.128,2,15.975,2
	c-0.068,0-0.138,0.009-0.206,0.029c-0.261,0.075-0.505,0.167-0.753,0.277c-0.136,0.062-0.259,0.152-0.382,0.233
	c-0.196,0.131-0.394,0.281-0.55,0.457c-0.386,0.436-0.538,1.04-0.561,1.611c-0.003,0.082,0.006,0.164,0.01,0.246
	c-0.379,0.211-0.77,0.399-1.164,0.58c-0.527,0.24-1.044,0.504-1.557,0.773c-1.02,0.536-2.058,1.039-3.108,1.516
	C7.663,7.691,7.623,7.66,7.583,7.633C7.395,7.502,7.176,7.415,6.958,7.344C6.885,7.32,6.811,7.308,6.737,7.308
	c-0.149,0-0.295,0.047-0.422,0.126c-0.132-0.029-0.271-0.027-0.408,0.01c-0.234,0.063-0.459,0.133-0.68,0.233
	c-0.246,0.11-0.455,0.242-0.665,0.409C4.391,8.223,4.258,8.372,4.129,8.547c-0.15,0.204-0.244,0.425-0.338,0.659
	C3.703,9.426,3.67,9.67,3.63,9.9c-0.052,0.296-0.063,0.563-0.015,0.861c0.036,0.227,0.115,0.434,0.209,0.642
	c0.067,0.146,0.14,0.29,0.234,0.421c0.108,0.148,0.217,0.294,0.35,0.421c0.123,0.119,0.258,0.2,0.399,0.272
	c0.003,1.376,0.02,2.751,0.078,4.123c0.027,0.628,0.025,1.259,0.029,1.887c0.004,0.436,0.011,0.87,0.018,1.305
	c-0.174,0.064-0.342,0.14-0.482,0.247c-0.125,0.096-0.231,0.185-0.332,0.302c-0.096,0.108-0.179,0.225-0.265,0.34
	c-0.269,0.363-0.352,0.834-0.371,1.276c-0.015,0.321,0.012,0.642,0.069,0.959c0.044,0.246,0.175,0.469,0.323,0.667
	c0.192,0.256,0.398,0.479,0.63,0.696c0.167,0.158,0.35,0.302,0.542,0.429c0.217,0.142,0.496,0.223,0.744,0.302
	c0.14,0.044,0.284,0.043,0.419,0.007c0.111,0.018,0.227,0.016,0.342-0.011c0.3-0.069,0.58-0.171,0.865-0.294
	c0.178-0.076,0.326-0.191,0.455-0.326c1.039,0.517,2.068,1.059,3.132,1.523c0.461,0.202,0.896,0.452,1.341,0.682
	c0.397,0.205,0.779,0.432,1.163,0.657c0,0.081-0.003,0.162,0.005,0.244c0.017,0.16,0.031,0.332,0.088,0.486
	c0.036,0.096,0.079,0.192,0.125,0.286c0.112,0.223,0.294,0.421,0.469,0.598c0.254,0.256,0.55,0.44,0.865,0.607
	c0.342,0.181,0.701,0.329,1.069,0.454c0.169,0.057,0.345,0.045,0.505-0.015c0.11,0.016,0.222,0.011,0.316-0.028
	c0.292-0.117,0.605-0.238,0.863-0.425c0.156-0.11,0.292-0.219,0.411-0.367c0.079-0.098,0.161-0.198,0.219-0.309
	c0.067-0.125,0.119-0.258,0.173-0.39c0.144-0.357,0.206-0.747,0.208-1.135c0.118-0.049,0.235-0.097,0.352-0.146
	c-0.005,0.002-0.009,0.004-0.014,0.006c0.203-0.085,0.407-0.171,0.61-0.257c-0.001,0-0.002,0.001-0.003,0.001
	c0.001,0,0.002-0.001,0.003-0.001c0.001,0,0.002-0.001,0.003-0.001c0.001,0,0.002-0.001,0.003-0.001
	c-0.039,0.016-0.077,0.032-0.116,0.048c0.071-0.029,0.141-0.059,0.211-0.089c0.47-0.204,0.922-0.435,1.368-0.69
	c0.442-0.252,0.888-0.498,1.341-0.728c0.72-0.368,1.465-0.693,2.203-1.026c0.07,0.029,0.141,0.059,0.208,0.084
	c0.16,0.06,0.319,0.113,0.486,0.148c0.284,0.058,0.573,0.085,0.861,0.056c0.244-0.027,0.448-0.081,0.627-0.259
	c0.098-0.098,0.171-0.217,0.215-0.346c0.183-0.103,0.357-0.222,0.519-0.357c0.204-0.169,0.373-0.407,0.507-0.632
	c0.136-0.227,0.238-0.492,0.275-0.755c0.021-0.135,0.04-0.265,0.042-0.402C28.527,21.827,28.506,21.706,28.496,21.589z
	 M26.285,10.628c-0.01,0.013-0.02,0.025-0.031,0.037c0.011-0.014,0.022-0.028,0.033-0.043
	C26.286,10.624,26.286,10.626,26.285,10.628z M26.288,10.621c0.012-0.016,0.024-0.032,0.037-0.048
	c-0.013,0.018-0.026,0.036-0.039,0.053C26.287,10.625,26.287,10.623,26.288,10.621z M24.765,10.101
	c0.033-0.173,0.078-0.34,0.139-0.505c0.045-0.091,0.093-0.177,0.148-0.261c0.016-0.016,0.033-0.033,0.049-0.048
	c0.059-0.039,0.119-0.075,0.182-0.108c0.001,0,0.003-0.001,0.004-0.001c0.031,0.008,0.063,0.016,0.095,0.024
	c0.075,0.02,0.151,0.029,0.226,0.029c0.12,0,0.237-0.024,0.345-0.069c0.013,0.004,0.026,0.009,0.039,0.013
	c0.022,0.011,0.043,0.023,0.064,0.036c0.047,0.043,0.092,0.087,0.135,0.134c0.02,0.031,0.039,0.063,0.057,0.096
	c0.056,0.174,0.086,0.356,0.114,0.538c0.013,0.122,0.022,0.242,0.018,0.364c-0.015,0.059-0.033,0.117-0.053,0.174
	c-0.034,0.066-0.07,0.128-0.111,0.192c-0.005,0.006-0.011,0.011-0.016,0.016c-0.098,0.062-0.202,0.113-0.308,0.161
	c-0.08,0.028-0.159,0.051-0.241,0.07c-0.079,0.002-0.157,0-0.236-0.006c-0.11-0.021-0.217-0.046-0.323-0.08
	c-0.049-0.025-0.097-0.052-0.144-0.081c-0.007-0.007-0.015-0.014-0.022-0.021c-0.044-0.078-0.085-0.157-0.124-0.237
	c-0.016-0.047-0.029-0.094-0.041-0.142C24.756,10.293,24.758,10.198,24.765,10.101z M15.097,4.413
	c0.017-0.089,0.039-0.174,0.068-0.26c0.022-0.044,0.046-0.087,0.071-0.13c0.022-0.022,0.044-0.043,0.067-0.063
	c0.143-0.101,0.291-0.192,0.447-0.274c0.064-0.023,0.129-0.045,0.195-0.065c0.061,0.026,0.126,0.044,0.193,0.056
	c0.023,0.006,0.046,0.013,0.069,0.021c0.065,0.034,0.127,0.071,0.188,0.112c0.157,0.138,0.298,0.294,0.431,0.456
	c0.025,0.038,0.048,0.077,0.07,0.116c0.007,0.026,0.014,0.051,0.02,0.077c0.008,0.141,0,0.286-0.013,0.427
	c-0.021,0.114-0.05,0.226-0.086,0.336c-0.014,0.026-0.028,0.051-0.043,0.076c-0.074,0.079-0.152,0.152-0.233,0.222
	c-0.042,0.027-0.084,0.052-0.128,0.074c-0.071,0.024-0.143,0.043-0.216,0.057c-0.085,0.006-0.168,0.009-0.252,0.006
	c-0.034-0.009-0.067-0.019-0.1-0.031c-0.147-0.067-0.289-0.139-0.425-0.227c-0.057-0.053-0.108-0.109-0.158-0.168
	c-0.034-0.049-0.065-0.097-0.093-0.149c-0.032-0.096-0.058-0.192-0.078-0.29C15.088,4.666,15.09,4.54,15.097,4.413z M15.205,5.161
	c-0.005-0.006-0.009-0.012-0.014-0.018l0,0C15.196,5.149,15.201,5.155,15.205,5.161z M15.186,5.137
	c-0.008-0.01-0.015-0.019-0.022-0.029C15.171,5.117,15.179,5.127,15.186,5.137L15.186,5.137z M5.21,10.356
	c0.038-0.211,0.083-0.422,0.153-0.626c0.032-0.064,0.067-0.125,0.105-0.185c0.04-0.043,0.081-0.084,0.124-0.124
	c0.089-0.058,0.18-0.11,0.275-0.158C6.03,9.205,6.197,9.159,6.368,9.114C6.478,9.086,6.577,9.036,6.662,8.97
	C6.717,9.001,6.769,9.034,6.82,9.07C6.88,9.123,6.937,9.176,6.99,9.235C7.069,9.349,7.138,9.467,7.2,9.592
	c0.023,0.062,0.043,0.123,0.061,0.187c-0.001,0.112-0.007,0.223-0.015,0.335c-0.029,0.152-0.072,0.299-0.125,0.444
	c-0.035,0.062-0.072,0.12-0.112,0.178c-0.1,0.113-0.206,0.218-0.318,0.318c-0.066,0.044-0.135,0.084-0.207,0.119
	c-0.103,0.034-0.207,0.06-0.313,0.08c-0.077,0.005-0.152,0.006-0.229,0.002c-0.122-0.028-0.241-0.061-0.359-0.101
	c-0.041-0.037-0.078-0.076-0.115-0.117c-0.068-0.105-0.129-0.213-0.183-0.326c-0.031-0.088-0.057-0.175-0.076-0.266
	C5.209,10.415,5.209,10.386,5.21,10.356z M5.31,22.811c-0.004-0.006-0.008-0.011-0.012-0.017c0.021,0.027,0.042,0.054,0.062,0.081
	C5.344,22.853,5.327,22.832,5.31,22.811z M6.973,22.887c-0.067,0.143-0.141,0.281-0.221,0.417c-0.04,0.025-0.081,0.047-0.124,0.068
	c-0.115,0.039-0.23,0.07-0.348,0.096c-0.017-0.006-0.034-0.012-0.052-0.018c-0.106-0.033-0.213-0.066-0.318-0.104
	c-0.053-0.03-0.105-0.061-0.155-0.094C5.583,23.1,5.417,22.932,5.27,22.754c-0.039-0.055-0.077-0.111-0.112-0.17
	c-0.013-0.046-0.024-0.092-0.033-0.14c-0.018-0.197-0.025-0.397-0.012-0.594c0.011-0.055,0.023-0.108,0.038-0.162
	c0.044-0.077,0.091-0.15,0.141-0.221c0.03-0.035,0.061-0.068,0.094-0.1c0.022-0.012,0.044-0.024,0.067-0.036
	c0.099-0.037,0.201-0.064,0.302-0.091c0.056-0.006,0.112-0.016,0.166-0.035c0.024,0,0.049,0,0.073,0.002
	c0.057,0.013,0.112,0.028,0.167,0.046c0.118,0.058,0.229,0.123,0.337,0.197c0.082,0.071,0.161,0.144,0.234,0.225
	c0.04,0.059,0.078,0.12,0.112,0.183c0.069,0.183,0.124,0.368,0.162,0.561c0.01,0.101,0.016,0.202,0.015,0.304
	C7.008,22.778,6.992,22.832,6.973,22.887z M17.12,27.808c-0.039,0.083-0.082,0.163-0.131,0.24c-0.039,0.044-0.08,0.085-0.124,0.124
	c-0.064,0.044-0.13,0.083-0.199,0.118c-0.03,0.01-0.06,0.021-0.091,0.03c-0.207-0.067-0.409-0.14-0.612-0.22
	c-0.186-0.078-0.374-0.159-0.54-0.267c-0.078-0.071-0.154-0.144-0.223-0.224c-0.024-0.036-0.047-0.074-0.069-0.112
	c-0.006-0.022-0.011-0.045-0.015-0.067c-0.006-0.073-0.01-0.145-0.009-0.218c0.039-0.181,0.095-0.361,0.16-0.535
	c0.045-0.094,0.096-0.185,0.153-0.271c0.026-0.026,0.053-0.051,0.081-0.075c0.126-0.09,0.257-0.174,0.395-0.245
	c0.027-0.008,0.054-0.016,0.082-0.022c0.024,0,0.049,0,0.073,0.001c0.166,0.029,0.325,0.074,0.484,0.131
	c0.076,0.036,0.148,0.076,0.22,0.123c0.153,0.122,0.309,0.248,0.442,0.392c0.013,0.048,0.024,0.097,0.033,0.146
	c0.016,0.165,0.024,0.33,0.018,0.496C17.217,27.508,17.175,27.658,17.12,27.808z M21.806,24.036
	c-0.417,0.198-0.826,0.409-1.236,0.621c-0.417,0.217-0.838,0.42-1.268,0.608c-0.329,0.133-0.657,0.264-0.986,0.395
	c-0.001,0-0.002,0.001-0.003,0.001c-0.011-0.012-0.019-0.027-0.03-0.038c-0.115-0.113-0.25-0.213-0.375-0.315
	c-0.113-0.09-0.225-0.19-0.344-0.269c-0.163-0.106-0.342-0.177-0.523-0.248c-0.325-0.131-0.686-0.22-1.041-0.22
	c-0.213,0-0.425,0.032-0.625,0.106c-0.204,0.075-0.406,0.169-0.59,0.284c-0.163,0.104-0.319,0.221-0.465,0.35
	c-0.096,0.086-0.173,0.21-0.246,0.319c-0.036,0.053-0.06,0.114-0.093,0.169c-0.289-0.163-0.577-0.329-0.87-0.485
	c-0.442-0.236-0.884-0.471-1.341-0.68c-1.087-0.501-2.113-1.13-3.178-1.676c0.036-0.313,0.015-0.631-0.053-0.938
	c-0.036-0.167-0.083-0.329-0.142-0.488c-0.063-0.161-0.127-0.325-0.202-0.482c-0.09-0.188-0.248-0.356-0.384-0.513
	c-0.171-0.192-0.4-0.348-0.609-0.49c-0.227-0.156-0.5-0.269-0.759-0.35c-0.01-0.003-0.024-0.004-0.035-0.007
	c-0.004-0.381-0.002-0.763-0.001-1.144c0-0.636-0.015-1.27-0.04-1.906c-0.025-0.632-0.038-1.259-0.029-1.891
	c0.008-0.663,0.021-1.327,0.029-1.991c0.329-0.049,0.65-0.142,0.949-0.29c0.286-0.142,0.523-0.381,0.748-0.605
	c0.242-0.242,0.429-0.553,0.555-0.869c0.163-0.417,0.236-0.853,0.227-1.301C8.842,9.45,8.757,9.226,8.664,9.005
	c0.909-0.443,1.789-0.945,2.69-1.406c0.49-0.252,0.976-0.515,1.482-0.738c0.428-0.189,0.851-0.388,1.278-0.579
	c0.014,0.016,0.027,0.033,0.041,0.049c0.263,0.29,0.59,0.48,0.951,0.623c0.092,0.037,0.186,0.071,0.281,0.106
	c0.315,0.11,0.648,0.092,0.971,0.04c0.152-0.023,0.298-0.058,0.442-0.113c0.119-0.046,0.236-0.098,0.35-0.156
	c0.186-0.096,0.346-0.25,0.498-0.39c0.073-0.065,0.138-0.136,0.204-0.209c0.036-0.04,0.059-0.085,0.089-0.127
	c0.467,0.27,0.936,0.538,1.411,0.796c0.256,0.138,0.511,0.275,0.763,0.419c0.244,0.138,0.475,0.304,0.705,0.461
	c0.78,0.532,1.591,1.021,2.363,1.566c-0.105,0.311-0.149,0.65-0.169,0.977c-0.023,0.384,0.096,0.746,0.252,1.09
	c0.159,0.352,0.369,0.63,0.686,0.851c0.265,0.185,0.575,0.309,0.888,0.381c0.024,0.005,0.048,0.005,0.072,0.01
	c-0.017,0.595,0.008,1.189,0.014,1.786c0.008,0.577,0.015,1.155,0.006,1.734c-0.01,0.554-0.015,1.113,0.012,1.666
	c0.022,0.476,0.071,0.953,0.076,1.43c-0.108,0.038-0.218,0.066-0.321,0.122c-0.382,0.211-0.644,0.605-0.898,0.948
	c-0.184,0.252-0.294,0.542-0.398,0.834c-0.046,0.131-0.083,0.263-0.104,0.4c-0.023,0.15-0.042,0.3-0.05,0.452
	c-0.013,0.221,0.027,0.446,0.079,0.661c0.043,0.184,0.115,0.361,0.19,0.536C22.946,23.495,22.377,23.766,21.806,24.036z
	 M26.785,22.32c-0.031,0.062-0.066,0.123-0.104,0.181c-0.027,0.031-0.056,0.061-0.085,0.089c-0.103,0.066-0.211,0.121-0.322,0.173
	c-0.134,0.05-0.268,0.093-0.405,0.13c-0.091-0.024-0.18-0.055-0.269-0.089c-0.118-0.061-0.232-0.126-0.342-0.198
	c-0.02-0.02-0.039-0.041-0.058-0.062c-0.023-0.037-0.045-0.075-0.064-0.113c-0.036-0.104-0.068-0.209-0.093-0.317
	c-0.001-0.081,0-0.162,0.006-0.243c0.028-0.147,0.068-0.291,0.117-0.432c0.083-0.149,0.181-0.288,0.282-0.427
	c0.046-0.052,0.092-0.102,0.141-0.15c0.003-0.002,0.006-0.004,0.009-0.006c0.027-0.008,0.054-0.015,0.081-0.021
	c0.115-0.006,0.23-0.004,0.345,0.004c0.09,0.017,0.179,0.037,0.267,0.064c0.102,0.054,0.198,0.117,0.292,0.184
	c0.052,0.042,0.102,0.086,0.15,0.132c0.047,0.135,0.081,0.272,0.105,0.412c0.015,0.141,0.025,0.282,0.017,0.424
	C26.837,22.146,26.814,22.233,26.785,22.32z M19.863,26.858c-0.028,0.012-0.056,0.023-0.084,0.035c-0.001,0-0.002,0.001-0.003,0.001
	C19.805,26.882,19.834,26.87,19.863,26.858z M19.776,26.894L19.776,26.894c-0.001,0.001-0.003,0.001-0.004,0.002l0.001,0
	C19.773,26.895,19.775,26.895,19.776,26.894z M19.775,26.894c0.032-0.014,0.064-0.027,0.095-0.041
	c0.033-0.014,0.065-0.028,0.098-0.042c-0.063,0.027-0.126,0.054-0.19,0.081C19.778,26.893,19.777,26.894,19.775,26.894
	L19.775,26.894z M19.77,26.897c0,0,0.001-0.001,0.002-0.001C19.771,26.896,19.77,26.897,19.77,26.897L19.77,26.897z"/>
</svg>