<?xml version="1.0" encoding="utf-8"?>
<!-- Generator: Adobe Illustrator 21.1.0, SVG Export Plug-In . SVG Version: 6.00 Build 0)  -->
<svg version="1.1" id="designs" xmlns="http://www.w3.org/2000/svg" xmlns:xlink="http://www.w3.org/1999/xlink" x="0px" y="0px"
	 width="32px" height="32px" viewBox="0 0 32 32" style="enable-background:new 0 0 32 32;" xml:space="preserve">
<style type="text/css">
	.sketchy_een{fill:#111918;}
</style>
<path class="sketchy_een" d="M22.929,7.941c-0.021,0.009-0.042,0.02-0.063,0.029c-0.024,0.01-0.048,0.018-0.072,0.028
	C22.839,7.98,22.884,7.96,22.929,7.941z M29.994,19.507c-0.017,0.339-0.021,0.68-0.051,1.019c-0.044,0.492-0.177,0.97-0.372,1.421
	c-0.141,0.328-0.358,0.617-0.558,0.909c-0.147,0.217-0.288,0.438-0.457,0.638c-0.112,0.131-0.246,0.238-0.381,0.345
	c-0.198,0.154-0.398,0.311-0.61,0.444c-0.267,0.168-0.549,0.278-0.846,0.373c-0.274,0.088-0.549,0.185-0.833,0.229
	c-0.32,0.048-0.636,0.027-0.956,0.011c-0.463-0.023-0.913-0.082-1.36-0.194c-0.211-0.053-0.421-0.107-0.627-0.175
	c-0.192-0.065-0.375-0.156-0.56-0.24c-0.181-0.084-0.362-0.164-0.539-0.253c-0.267-0.135-0.49-0.318-0.709-0.516
	c-0.156-0.141-0.311-0.284-0.45-0.442c-0.141-0.162-0.263-0.339-0.387-0.512c-0.365-0.513-0.694-1.051-1.016-1.592
	c-0.01,0.001-0.019,0.006-0.03,0.007c-0.183,0.011-0.37-0.006-0.552-0.011c-0.22-0.005-0.433-0.019-0.648-0.044
	c0.014,0.002,0.028,0.004,0.042,0.006c-0.179-0.019-0.358-0.023-0.535-0.034c-0.227-0.013-0.446-0.042-0.671-0.072
	c0.069,0.01,0.139,0.019,0.208,0.029c-0.204-0.019-0.41-0.015-0.613-0.011c-0.154,0.004-0.309,0.006-0.461-0.002
	c-0.32-0.015-0.644-0.015-0.964-0.019c-0.649-0.007-1.297,0.01-1.946,0.03C13.055,20.94,13,21.033,12.947,21.13
	c-0.08,0.143-0.162,0.284-0.232,0.432c-0.15,0.31-0.359,0.565-0.57,0.831c-0.156,0.211-0.305,0.432-0.489,0.617
	c-0.181,0.181-0.366,0.354-0.554,0.526c-0.431,0.389-0.928,0.713-1.406,1.036c-0.373,0.255-0.773,0.431-1.2,0.577
	c-0.25,0.084-0.497,0.12-0.76,0.154c-0.271,0.036-0.549,0.088-0.823,0.091c-0.385,0.004-0.76-0.055-1.137-0.128
	c-0.185-0.034-0.373-0.067-0.549-0.135c-0.225-0.088-0.446-0.183-0.655-0.301c-0.189-0.107-0.373-0.215-0.554-0.333
	c-0.07-0.046-0.139-0.095-0.206-0.147c-0.158-0.12-0.331-0.231-0.472-0.372c-0.351-0.351-0.61-0.819-0.815-1.267
	c-0.189-0.408-0.37-0.827-0.446-1.271c-0.05-0.293-0.095-0.6-0.069-0.901c0.029-0.335,0.101-0.65,0.196-0.97
	c0.116-0.385,0.255-0.77,0.406-1.141c0.11-0.272,0.219-0.543,0.375-0.793c0.121-0.192,0.272-0.365,0.414-0.544
	c0.148-0.192,0.297-0.38,0.452-0.565c-0.113-0.108-0.226-0.218-0.326-0.332c-0.185-0.21-0.358-0.432-0.503-0.671
	c-0.195-0.321-0.317-0.676-0.458-1.023c-0.122-0.276-0.243-0.549-0.306-0.846c-0.069-0.326-0.143-0.659-0.131-0.995
	c0.01-0.29,0.03-0.581,0.057-0.869c0.023-0.231,0.029-0.49,0.095-0.711c0.04-0.135,0.088-0.267,0.139-0.398
	c0.133-0.341,0.311-0.659,0.499-0.972C3.064,9.47,3.203,9.217,3.371,8.988C3.573,8.714,3.79,8.447,4.005,8.184
	c0.171-0.21,0.343-0.415,0.545-0.596c0.211-0.191,0.434-0.41,0.697-0.522c0.225-0.097,0.45-0.189,0.684-0.259
	c0.418-0.127,0.848-0.202,1.278-0.202c0.31,0,0.619,0.039,0.924,0.124C8.61,6.862,9.031,7.102,9.46,7.34
	c0.33,0.183,0.621,0.392,0.918,0.625c0.158,0.122,0.297,0.259,0.421,0.417c0.272,0.347,0.56,0.682,0.825,1.034
	c0.122,0.164,0.221,0.337,0.324,0.513c0.097,0.171,0.208,0.341,0.29,0.52c0.14,0.307,0.28,0.614,0.411,0.925
	c1.136,0.002,2.271-0.029,3.408-0.052c0.552-0.01,1.105-0.011,1.657-0.013c0.267,0,0.532-0.023,0.798-0.042
	c0.189-0.012,0.38-0.042,0.57-0.047c0.287-0.31,0.578-0.616,0.879-0.914c0.267-0.263,0.537-0.514,0.814-0.77
	c0.272-0.25,0.501-0.539,0.777-0.787c0.196-0.177,0.417-0.337,0.646-0.469c0.214-0.123,0.442-0.216,0.669-0.31
	c0.32-0.132,0.643-0.248,0.964-0.379c-0.033,0.014-0.066,0.028-0.099,0.042c0.288-0.115,0.569-0.203,0.881-0.248
	c0.227-0.033,0.441-0.056,0.661-0.056c0.088,0,0.177,0.004,0.268,0.012c0.392,0.032,0.773,0.097,1.156,0.189
	c0.156,0.036,0.326,0.055,0.474,0.109c0.301,0.105,0.507,0.244,0.753,0.434c-0.039-0.03-0.078-0.06-0.118-0.091
	c0.293,0.22,0.613,0.436,0.855,0.71c0.238,0.271,0.49,0.564,0.64,0.895c0.103,0.221,0.179,0.45,0.263,0.68
	c0.053,0.145,0.116,0.292,0.154,0.44c0.055,0.213,0.082,0.432,0.112,0.652c0.036,0.265,0.084,0.537,0.067,0.806
	c-0.032,0.478-0.105,0.958-0.223,1.423c-0.051,0.208-0.112,0.411-0.171,0.617c-0.042,0.147-0.08,0.297-0.139,0.438
	c-0.154,0.37-0.352,0.686-0.606,0.998c-0.153,0.19-0.339,0.356-0.528,0.515c0.005,0.005,0.009,0.011,0.014,0.016
	c0.208,0.208,0.465,0.362,0.659,0.587c0.202,0.236,0.368,0.495,0.53,0.76c0.179,0.295,0.318,0.615,0.434,0.939
	C29.987,18.794,30.013,19.154,29.994,19.507z M27.643,10.258c0.009,0.022,0.019,0.044,0.028,0.066
	c-0.001-0.003-0.002-0.006-0.003-0.009C27.659,10.296,27.651,10.277,27.643,10.258z M28.148,19.301
	c-0.036-0.175-0.094-0.349-0.159-0.515c-0.134-0.291-0.291-0.572-0.474-0.835c-0.154-0.169-0.332-0.314-0.487-0.483
	c-0.109-0.118-0.202-0.248-0.314-0.362c-0.038-0.039-0.057-0.089-0.087-0.133c-0.224-0.068-0.419-0.217-0.539-0.42
	c-0.126-0.217-0.16-0.48-0.093-0.722c0.07-0.257,0.227-0.404,0.431-0.558c0.143-0.111,0.295-0.208,0.443-0.311
	c0.188-0.158,0.366-0.341,0.525-0.529c0.105-0.153,0.194-0.311,0.275-0.477c0.183-0.481,0.294-0.994,0.382-1.5
	c0.017-0.167,0.026-0.332,0.023-0.503c-0.001-0.118-0.015-0.237-0.03-0.354c-0.031-0.219-0.069-0.429-0.143-0.638
	c-0.064-0.183-0.128-0.367-0.196-0.549c-0.053-0.103-0.117-0.198-0.185-0.291c-0.112-0.141-0.229-0.279-0.364-0.4
	C27.01,9.589,26.856,9.463,26.7,9.34c-0.034-0.024-0.069-0.047-0.105-0.068c-0.253-0.083-0.511-0.151-0.772-0.205
	c-0.286-0.034-0.583-0.056-0.867-0.034c-0.474,0.091-0.925,0.263-1.369,0.447c-0.277,0.126-0.543,0.262-0.792,0.435
	c-0.194,0.173-0.368,0.366-0.563,0.54c-0.229,0.206-0.472,0.394-0.697,0.604c-0.495,0.461-0.928,0.995-1.377,1.499
	c-0.188,0.211-0.475,0.267-0.743,0.218c-0.069,0.02-0.138,0.046-0.205,0.039c-0.499-0.053-0.996,0.01-1.496,0.011
	c-0.552,0.002-1.105-0.015-1.657-0.017c-0.587-0.002-1.174-0.011-1.758,0.025c-0.685,0.045-1.366,0.091-2.053,0.092
	c-0.024,0.009-0.044,0.029-0.069,0.036c-0.511,0.139-0.985-0.171-1.147-0.652c-0.053-0.156-0.111-0.308-0.172-0.459
	c-0.115-0.268-0.233-0.531-0.388-0.779c-0.157-0.255-0.311-0.509-0.487-0.749C9.78,10.064,9.585,9.79,9.351,9.56
	C9.218,9.43,9.073,9.31,8.926,9.194C8.627,8.98,8.29,8.802,7.958,8.645c-0.173-0.061-0.349-0.108-0.529-0.15
	c-0.205-0.02-0.41-0.031-0.616-0.018C6.565,8.521,6.312,8.578,6.074,8.661C6.024,8.69,5.977,8.722,5.93,8.755
	C5.727,8.922,5.535,9.094,5.354,9.291c-0.164,0.181-0.33,0.361-0.485,0.55c-0.163,0.229-0.312,0.467-0.461,0.705
	c-0.133,0.214-0.267,0.431-0.38,0.656c-0.048,0.136-0.087,0.271-0.115,0.413c-0.044,0.378-0.078,0.762-0.059,1.141
	c0.052,0.282,0.135,0.561,0.241,0.826c0.157,0.358,0.31,0.72,0.529,1.044c0.095,0.111,0.198,0.214,0.305,0.317
	c0.121,0.118,0.236,0.238,0.362,0.349c0.029,0.02,0.059,0.039,0.089,0.058c0.299,0.192,0.462,0.518,0.456,0.852
	c0.146,0.331,0.1,0.742-0.175,1c-0.274,0.256-0.543,0.519-0.784,0.81c-0.19,0.257-0.365,0.517-0.504,0.805
	c-0.099,0.279-0.185,0.561-0.273,0.843c-0.085,0.274-0.177,0.546-0.236,0.826c-0.013,0.18-0.01,0.361,0.003,0.541
	c0.016,0.104,0.036,0.206,0.069,0.305c0.03,0.09,0.069,0.177,0.107,0.264c0.157,0.357,0.343,0.696,0.559,1.02
	c0.102,0.109,0.217,0.206,0.335,0.299c0.266,0.187,0.544,0.364,0.838,0.508c0.144,0.05,0.291,0.083,0.44,0.119
	c0.132,0.034,0.263,0.068,0.396,0.095c0.349,0.031,0.707,0.005,1.055-0.034c0.149-0.03,0.294-0.076,0.443-0.114
	c0.119-0.031,0.236-0.064,0.35-0.105c0.197-0.097,0.382-0.224,0.568-0.341c0.218-0.138,0.427-0.29,0.633-0.446
	c0.167-0.136,0.327-0.282,0.485-0.427c0.171-0.156,0.333-0.316,0.479-0.494c0.114-0.149,0.229-0.299,0.345-0.447
	c0.114-0.157,0.204-0.317,0.281-0.497c-0.011,0.027-0.023,0.054-0.034,0.081c0.081-0.185,0.167-0.366,0.263-0.546
	c0.072-0.139,0.131-0.288,0.21-0.423c0.003-0.005,0.008-0.007,0.011-0.011c0.1-0.336,0.402-0.586,0.766-0.591
	c0.64-0.008,1.278,0.01,1.919,0.025c0.518,0.015,1.034-0.008,1.551-0.027c0.07-0.002,0.14-0.004,0.21-0.004
	c0.43,0,0.86,0.041,1.288,0.074c0.282,0.023,0.564,0.051,0.846,0.065c0.237,0.012,0.476,0.035,0.712,0.021
	c0.016-0.004,0.032-0.007,0.048-0.012c0.223-0.052,0.439,0,0.621,0.105c0.351-0.082,0.738,0.053,0.925,0.38
	c0.244,0.429,0.461,0.876,0.726,1.294c0.147,0.231,0.311,0.453,0.476,0.674c0.197,0.236,0.426,0.449,0.656,0.656
	c0.171,0.112,0.36,0.196,0.542,0.288c0.114,0.056,0.227,0.113,0.341,0.166c0.343,0.129,0.706,0.228,1.067,0.291
	c0.39,0.044,0.795,0.071,1.185,0.05c0.306-0.061,0.612-0.162,0.906-0.267c0.155-0.08,0.3-0.178,0.441-0.282
	c0.149-0.125,0.29-0.256,0.418-0.403c0.241-0.332,0.473-0.68,0.647-1.052c0.077-0.217,0.123-0.44,0.159-0.667
	C28.192,20.189,28.192,19.737,28.148,19.301z M25.675,17.63c-0.078-0.021-0.158-0.031-0.238-0.031c-0.16,0-0.319,0.041-0.459,0.123
	c-0.204,0.12-0.354,0.316-0.417,0.543c-0.057,0.21-0.048,0.514,0.091,0.697c0.16,0.208,0.297,0.418,0.411,0.651
	c0.051,0.143,0.093,0.287,0.123,0.437c0.011,0.143,0.013,0.285,0.003,0.428c-0.024,0.112-0.053,0.222-0.089,0.333
	c-0.149,0.44,0.166,0.93,0.594,1.048c0.463,0.126,0.907-0.154,1.048-0.596c0.13-0.398,0.192-0.814,0.183-1.233
	c-0.019-0.707-0.29-1.417-0.709-1.981C26.069,17.85,25.922,17.699,25.675,17.63z"/>
</svg>