<?xml version="1.0" encoding="utf-8"?>
<!-- Generator: Adobe Illustrator 21.1.0, SVG Export Plug-In . SVG Version: 6.00 Build 0)  -->
<svg version="1.1" id="designs" xmlns="http://www.w3.org/2000/svg" xmlns:xlink="http://www.w3.org/1999/xlink" x="0px" y="0px"
	 width="32px" height="32px" viewBox="0 0 32 32" style="enable-background:new 0 0 32 32;" xml:space="preserve">
<style type="text/css">
	.sketchy_een{fill:#111918;}
</style>
<path class="sketchy_een" d="M30.97,12.145c-0.07-0.487-0.306-0.901-0.651-1.247c-0.068-0.068-0.14-0.132-0.216-0.192
	c-0.088-0.07-0.176-0.138-0.268-0.202c-0.092-0.066-0.22-0.11-0.32-0.15c-0.15-0.062-0.302-0.108-0.458-0.148
	c-0.683-0.174-1.396-0.232-2.096-0.294c-0.36-0.032-0.723-0.06-1.085-0.082c-0.354-0.02-0.715-0.01-1.069-0.016
	c-0.67-0.014-1.338-0.021-2.007-0.027c0.021-0.162,0.008-0.344-0.085-0.472c-0.093-0.125-0.195-0.237-0.293-0.355
	c-0.093-0.126-0.187-0.252-0.282-0.376c-0.182-0.238-0.391-0.45-0.577-0.682c-0.126-0.166-0.253-0.332-0.385-0.494
	c-0.142-0.174-0.306-0.33-0.473-0.481c-0.376-0.342-0.775-0.655-1.276-0.783c-0.264-0.066-0.535-0.098-0.805-0.126
	c-0.21-0.02-0.42-0.044-0.633-0.052c-0.176-0.006-0.352-0.006-0.527-0.004c-0.112,0-0.224,0-0.334-0.002
	c-0.231-0.001-0.463-0.008-0.695-0.008c-0.068,0-0.135,0.001-0.202,0.002c-0.529,0.012-1.061,0.058-1.586,0.132
	c-0.677,0.096-1.31,0.352-1.924,0.637c-0.521,0.24-0.973,0.575-1.432,0.911c-0.326,0.24-0.653,0.479-0.969,0.733
	C10.12,8.531,9.924,8.701,9.724,8.87C9.39,9.148,9.109,9.484,8.781,9.769C8.736,9.808,8.694,9.85,8.65,9.891
	C8.63,9.879,8.613,9.862,8.592,9.852c-0.137-0.15-0.327-0.248-0.539-0.234C7.659,9.641,7.269,9.605,6.874,9.583
	c-0.479-0.028-0.959-0.04-1.438-0.046C4.896,9.529,4.353,9.533,3.81,9.529C3.22,9.525,2.627,9.463,2.036,9.433
	c-0.011,0-0.023-0.001-0.034-0.001c-0.047,0-0.088,0.021-0.132,0.03c-0.016-0.001-0.031-0.01-0.047-0.01
	C1.374,9.453,1,9.827,1,10.276c0,0.797,0.024,1.592,0.026,2.387c0.002,0.721-0.002,1.44,0.026,2.158
	c0.028,0.733,0.07,1.462,0.074,2.197c0.004,0.749-0.012,1.496-0.036,2.245c-0.014,0.465-0.004,0.929-0.014,1.394
	c-0.01,0.366-0.016,0.731-0.016,1.097c0,0.414,0.004,0.829,0.02,1.241c0.01,0.278,0.044,0.553,0.026,0.829
	c-0.017,0.23,0.105,0.431,0.279,0.57c0.144,0.154,0.343,0.254,0.565,0.251c0.641-0.008,1.281-0.038,1.92-0.062
	c0.591-0.022,1.181-0.018,1.774-0.006c0.471,0.01,0.943,0.014,1.414,0.02c0.074,0.002,0.148,0.002,0.222,0.002
	c0.222-0.002,0.447-0.002,0.669,0.014c0.255,0.02,0.475-0.132,0.617-0.337c0.131-0.062,0.244-0.152,0.326-0.272
	c0.156,0.111,0.309,0.226,0.469,0.332c0.315,0.208,0.636,0.373,0.982,0.521c-0.002-0.001-0.004-0.001-0.005-0.002
	c0.002,0.001,0.004,0.002,0.006,0.002c0.008,0.003,0.015,0.007,0.023,0.01c-0.008-0.003-0.015-0.006-0.023-0.01
	c0.649,0.267,1.309,0.497,1.991,0.664c0.354,0.086,0.713,0.144,1.073,0.204c0.412,0.066,0.821,0.138,1.237,0.188
	c0.701,0.084,1.4,0.124,2.106,0.13c0.757,0.006,1.512,0.01,2.269-0.018c0.38-0.012,0.759-0.052,1.135-0.102
	c0.419-0.056,0.839-0.108,1.243-0.232c0.148-0.046,0.292-0.098,0.436-0.156c0.132-0.056,0.262-0.11,0.386-0.18
	c0.114-0.066,0.218-0.158,0.32-0.238c0.332-0.258,0.595-0.587,0.801-0.953c0.222-0.392,0.266-0.847,0.214-1.289
	c-0.022-0.198-0.04-0.398-0.104-0.589c-0.03-0.084-0.06-0.168-0.094-0.252c-0.082-0.202-0.16-0.408-0.28-0.593
	c-0.063-0.098-0.131-0.187-0.204-0.27c0.06-0.04,0.119-0.082,0.178-0.126c0.272-0.202,0.557-0.463,0.715-0.769
	c0.162-0.318,0.252-0.677,0.204-1.035c-0.01-0.072-0.02-0.144-0.03-0.216c-0.04-0.304-0.162-0.593-0.302-0.861
	c-0.087-0.169-0.217-0.315-0.365-0.443c0.272-0.237,0.458-0.553,0.589-0.886c0.124-0.318,0.212-0.667,0.206-1.009
	c-0.001-0.101-0.009-0.201-0.013-0.301c0.26-0.005,0.521-0.007,0.782-0.017c0.777-0.032,1.556-0.036,2.329-0.136
	c0.416-0.054,0.833-0.11,1.239-0.216c0.418-0.11,0.825-0.258,1.215-0.443c0.43-0.202,0.769-0.535,1.015-0.939
	c0.112-0.184,0.202-0.394,0.268-0.599C31.014,12.834,31.02,12.491,30.97,12.145z M7.473,12.944c-0.02,0.777-0.046,1.552-0.058,2.329
	c-0.012,0.791-0.004,1.582-0.016,2.373c-0.01,0.719-0.016,1.438-0.016,2.156c-0.002,0.777,0.048,1.554,0.054,2.331
	c0.002,0.276-0.01,0.553-0.006,0.829c0.001,0.036-0.003,0.074-0.004,0.111c-0.595,0.013-1.191,0.013-1.783,0.017
	c-0.593,0.002-1.183-0.004-1.774,0.018c-0.439,0.015-0.876,0-1.312-0.013c-0.01-0.317-0.01-0.635-0.008-0.952
	c0.004-0.571,0.004-1.139,0.022-1.71c0.012-0.364,0.008-0.729,0.01-1.091c0-0.378,0.022-0.755,0.03-1.133
	c0.018-0.739,0.024-1.48,0-2.219c-0.016-0.454-0.046-0.907-0.056-1.362c-0.012-0.434-0.004-0.869-0.002-1.304
	c0.002-0.489,0.008-0.977,0.026-1.466c0.01-0.296,0.023-0.592,0.037-0.887c0.154-0.002,0.307,0.002,0.461-0.002
	c0.236-0.004,0.473-0.01,0.709-0.01c0.551,0,1.099-0.006,1.65,0.008c0.27,0.008,0.539,0.014,0.809,0.028
	c0.198,0.01,0.394,0.034,0.593,0.042c0.216,0.01,0.43,0.025,0.645,0.039C7.484,11.699,7.489,12.322,7.473,12.944z M21.135,9.725
	C21.118,9.703,21.1,9.68,21.083,9.658c-0.006-0.008-0.013-0.016-0.019-0.025C21.088,9.663,21.112,9.694,21.135,9.725z M29.36,12.724
	c-0.055,0.112-0.115,0.22-0.185,0.324c-0.029,0.033-0.06,0.064-0.092,0.094c-0.123,0.08-0.25,0.148-0.382,0.21
	c-0.247,0.095-0.493,0.18-0.749,0.25c-0.279,0.075-0.562,0.123-0.848,0.165c-0.528,0.063-1.057,0.097-1.589,0.121
	c-0.585,0.028-1.167,0.052-1.752,0.064c-1.047,0.022-2.096,0.026-3.144,0.016c-0.426-0.002-0.783,0.359-0.783,0.783
	c0,0.427,0.356,0.785,0.783,0.783c0.432,0,0.865,0.002,1.298,0.002c0.184,0.001,0.369,0,0.553,0.001
	c0.014,0.151,0.024,0.302,0.017,0.453c-0.025,0.115-0.055,0.227-0.093,0.338c-0.026,0.051-0.055,0.101-0.087,0.149
	c-0.039,0.044-0.08,0.086-0.124,0.126c-0.027,0.017-0.055,0.033-0.083,0.048c-0.299,0.097-0.613,0.162-0.925,0.209
	c-0.297,0.031-0.602,0.034-0.83,0.266c-0.198,0.198-0.276,0.491-0.202,0.763c0.088,0.316,0.41,0.599,0.755,0.575
	c0.011-0.001,0.022-0.001,0.033-0.002c0.106-0.005,0.211,0,0.316,0.01c0.165,0.029,0.324,0.07,0.481,0.127
	c0.138,0.065,0.268,0.137,0.394,0.224c0.035,0.032,0.069,0.064,0.102,0.099c0.018,0.031,0.035,0.062,0.05,0.094
	c0.023,0.069,0.042,0.138,0.057,0.208c0.004,0.056,0.005,0.111,0.004,0.166c-0.003,0.01-0.006,0.021-0.009,0.031
	c-0.017,0.031-0.035,0.062-0.054,0.092c-0.05,0.053-0.103,0.102-0.157,0.149c-0.162,0.115-0.328,0.22-0.506,0.307
	c-0.118,0.044-0.238,0.082-0.361,0.112c-0.266,0.07-0.529,0.074-0.733,0.308c-0.188,0.214-0.326,0.533-0.218,0.823
	c0.058,0.156,0.108,0.286,0.236,0.398c0.15,0.132,0.246,0.168,0.431,0.244c0.042,0.017,0.083,0.031,0.125,0.045
	c0.129,0.06,0.254,0.128,0.372,0.209c0.063,0.054,0.123,0.11,0.179,0.171c0.063,0.099,0.115,0.202,0.165,0.307
	c0.053,0.144,0.091,0.288,0.119,0.44c0.01,0.104,0.016,0.208,0.012,0.312c-0.002,0.007-0.004,0.014-0.006,0.021
	c-0.055,0.108-0.115,0.211-0.183,0.311c-0.082,0.093-0.17,0.179-0.264,0.261c-0.077,0.051-0.157,0.095-0.24,0.134
	c-0.532,0.201-1.08,0.307-1.641,0.39c-0.886,0.098-1.783,0.098-2.674,0.096c-0.779-0.004-1.557-0.013-2.332-0.108
	c0.027,0.004,0.054,0.007,0.082,0.012c-0.03-0.004-0.061-0.009-0.091-0.013c-0.034-0.004-0.068-0.009-0.103-0.013
	c0.03,0.004,0.059,0.007,0.089,0.011c-0.611-0.086-1.229-0.163-1.831-0.299c-0.578-0.133-1.142-0.316-1.691-0.538
	c-0.557-0.246-1.081-0.553-1.569-0.917c-0.174-0.147-0.344-0.297-0.52-0.44c0-0.013-0.002-0.025-0.002-0.038
	c-0.018-0.723-0.058-1.442-0.058-2.165c0-1.508-0.014-3.017,0-4.525c0.006-0.817,0.048-1.634,0.058-2.449
	c0.007-0.456,0.031-0.911,0.056-1.367c0.048-0.033,0.095-0.068,0.137-0.11c0.024-0.026,0.048-0.054,0.072-0.08
	c0.034-0.037,0.064-0.077,0.09-0.118c0.111-0.111,0.23-0.215,0.346-0.317c0.174-0.152,0.342-0.316,0.505-0.483
	c0.242-0.246,0.477-0.499,0.735-0.727c0.348-0.307,0.707-0.601,1.071-0.887c0.521-0.401,1.059-0.791,1.665-1.053
	c0.421-0.17,0.857-0.311,1.305-0.374c-0.066,0.008-0.132,0.018-0.198,0.026c0.136-0.018,0.273-0.037,0.41-0.056
	c0.269-0.031,0.541-0.042,0.811-0.068c0.294-0.028,0.595-0.024,0.891-0.022c0.604,0.002,1.206,0.006,1.806,0.083
	c0.13,0.019,0.259,0.047,0.384,0.092c0.088,0.038,0.177,0.073,0.258,0.126c0.134,0.11,0.264,0.222,0.386,0.346
	c0.102,0.102,0.214,0.188,0.306,0.3c0.058,0.072,0.114,0.142,0.174,0.212c0.156,0.18,0.298,0.366,0.465,0.539
	c0.153,0.155,0.289,0.328,0.426,0.498c0.036,0.051,0.071,0.102,0.107,0.153c-0.529,0.007-1.057,0.02-1.587,0.028
	c-0.657,0.01-1.312,0.014-1.968,0.026c-0.42,0.006-0.771,0.344-0.771,0.771c0,0.411,0.35,0.783,0.771,0.771
	c0.821-0.024,1.64-0.078,2.461-0.096c0.789-0.018,1.576-0.04,2.365-0.036c0.751,0.004,1.502,0.032,2.253,0.048
	c0.733,0.018,1.464,0.044,2.195,0.114c0.25,0.026,0.5,0.054,0.75,0.084c0.436,0.062,0.871,0.144,1.287,0.296
	c0.045,0.022,0.088,0.047,0.13,0.074c0.08,0.07,0.155,0.143,0.225,0.223c0.026,0.04,0.05,0.081,0.073,0.122
	c0.02,0.064,0.036,0.13,0.049,0.197c0.003,0.059,0.004,0.118,0.003,0.177C29.389,12.629,29.376,12.677,29.36,12.724z M14.572,24.441
	c0.008,0.001,0.016,0.002,0.024,0.003c-0.003,0-0.007-0.001-0.01-0.001C14.581,24.442,14.576,24.441,14.572,24.441z"/>
</svg>