<?xml version="1.0" encoding="utf-8"?>
<!-- Generator: Adobe Illustrator 21.1.0, SVG Export Plug-In . SVG Version: 6.00 Build 0)  -->
<svg version="1.1" id="designs" xmlns="http://www.w3.org/2000/svg" xmlns:xlink="http://www.w3.org/1999/xlink" x="0px" y="0px"
	 width="32px" height="32px" viewBox="0 0 32 32" style="enable-background:new 0 0 32 32;" xml:space="preserve">
<style type="text/css">
	.sketchy_een{fill:#111918;}
</style>
<path class="sketchy_een" d="M27.734,29.551c-0.458-0.622-0.824-1.296-1.205-1.966c-0.192-0.335-0.392-0.664-0.583-0.999
	c-0.214-0.38-0.418-0.767-0.62-1.151c-0.363-0.688-0.709-1.383-1.09-2.061c-0.418-0.745-0.824-1.496-1.25-2.237
	c-0.852-1.474-1.714-2.939-2.534-4.431c-0.805-1.462-1.579-2.941-2.394-4.397c-0.436-0.777-0.852-1.565-1.26-2.358
	c-0.07-0.136-0.142-0.273-0.213-0.409c0.331-0.597,0.653-1.199,0.991-1.793c0.88-1.542,1.843-3.036,2.657-4.615
	c0.093-0.176,0.182-0.355,0.271-0.533c0.103-0.208,0.147-0.42,0.085-0.65c-0.059-0.21-0.2-0.392-0.388-0.503
	c-0.125-0.073-0.275-0.109-0.426-0.109c-0.294,0-0.593,0.139-0.726,0.413c-0.408,0.846-0.836,1.68-1.29,2.503
	c-0.408,0.743-0.834,1.478-1.246,2.221c-0.039,0.071-0.078,0.142-0.117,0.213c-0.009-0.357-0.021-0.714-0.015-1.072
	c0.022-1.26,0.05-2.52,0.042-3.783C16.422,1.38,16.047,1,15.589,1c-0.452,0-0.842,0.38-0.836,0.834
	c0.018,1.246,0.03,2.491,0.046,3.735c0.002,0.169,0.016,0.338,0.019,0.508c-0.103-0.206-0.203-0.414-0.309-0.619
	c-0.398-0.777-0.791-1.557-1.175-2.344c-0.141-0.285-0.281-0.573-0.424-0.858c-0.137-0.269-0.431-0.41-0.723-0.41
	c-0.148,0-0.296,0.036-0.423,0.11c-0.406,0.238-0.511,0.739-0.299,1.143c0.4,0.771,0.799,1.544,1.221,2.302
	c0.414,0.743,0.832,1.482,1.219,2.241c0.314,0.615,0.628,1.23,0.944,1.845c-0.287,0.52-0.579,1.036-0.861,1.559
	c-0.39,0.723-0.753,1.458-1.088,2.209c-0.345,0.771-0.709,1.532-1.102,2.281c-0.402,0.771-0.806,1.54-1.195,2.318
	c-0.375,0.749-0.749,1.5-1.137,2.243c-0.396,0.765-0.801,1.526-1.227,2.273c-0.414,0.729-0.836,1.452-1.248,2.182
	c-0.39,0.69-0.743,1.397-1.135,2.084c-0.192,0.337-0.378,0.674-0.557,1.018c-0.174,0.337-0.331,0.68-0.501,1.017
	c-0.063,0.127-0.133,0.248-0.208,0.367c-0.087,0.134-0.106,0.287-0.098,0.439c-0.201,0.16-0.34,0.396-0.34,0.664
	c0,0.468,0.388,0.856,0.856,0.858c0.886,0.002,1.771-0.032,2.657-0.038c0.468-0.002,0.935,0,1.405,0c0.41,0.002,0.82,0.002,1.231,0
	c0.89-0.002,1.781,0.004,2.671-0.022c0.828-0.026,1.655-0.032,2.483-0.042c0.866-0.01,1.734-0.006,2.6-0.026
	c0.894-0.02,1.785-0.054,2.677-0.065c0.456-0.006,0.913,0.002,1.369,0.01c0.363,0.008,0.725,0.014,1.088,0.012
	c0.828-0.002,1.659-0.002,2.487,0.004c0.41,0.002,0.82-0.004,1.229-0.008c0.072,0,0.137-0.025,0.204-0.042
	c0.022-0.002,0.042-0.009,0.064-0.013c0.026-0.009,0.053-0.015,0.078-0.027c0.064-0.019,0.131-0.03,0.19-0.065
	c0.184-0.107,0.321-0.285,0.378-0.491C27.871,29.991,27.859,29.721,27.734,29.551z M6.312,29.302c-0.011,0-0.022,0-0.033,0
	c0.066-0.145,0.13-0.291,0.201-0.433c0.178-0.357,0.361-0.711,0.551-1.062c0.38-0.701,0.759-1.405,1.127-2.112
	c0.38-0.725,0.791-1.435,1.199-2.144c0.426-0.741,0.838-1.492,1.242-2.247c0.791-1.474,1.5-2.994,2.271-4.48
	c0.412-0.795,0.818-1.589,1.189-2.402c0.18-0.394,0.351-0.791,0.529-1.183c0.111-0.243,0.24-0.479,0.365-0.716
	c-0.001,0.26-0.003,0.519-0.001,0.779c0.008,0.816,0.01,1.633-0.008,2.451c-0.034,1.694-0.026,3.394-0.194,5.083
	c-0.012,0.112-0.025,0.222-0.039,0.332c-0.15,0.938-0.433,1.831-0.786,2.71c-0.385,0.881-0.806,1.744-1.257,2.594
	c-0.218,0.41-0.472,0.797-0.703,1.199c-0.234,0.402-0.428,0.83-0.684,1.219c-0.087,0.133-0.107,0.284-0.101,0.435
	C9.558,29.32,7.935,29.324,6.312,29.302z M16.646,29.26c-0.852,0-1.704-0.004-2.556,0.012c-0.381,0.007-0.762,0.02-1.143,0.031
	c0.277-0.553,0.55-1.108,0.836-1.656c0.372-0.711,0.751-1.421,1.096-2.148c0.244-0.514,0.467-1.038,0.674-1.568
	c0.321,0.82,0.675,1.627,1.091,2.409c0.341,0.64,0.703,1.268,1.064,1.894c0.194,0.334,0.385,0.67,0.582,1.003
	C17.741,29.247,17.194,29.261,16.646,29.26z M21.78,29.171c-0.554,0.005-1.108,0.02-1.661,0.033
	c-0.217-0.363-0.447-0.714-0.659-1.08c-0.248-0.428-0.493-0.858-0.741-1.284c-0.483-0.832-0.915-1.68-1.299-2.56
	c-0.375-0.968-0.686-1.954-0.996-2.944c-0.029-0.092-0.071-0.177-0.125-0.252c0.028-0.213,0.067-0.424,0.085-0.64
	c0.067-0.787,0.079-1.575,0.075-2.364c-0.002-0.81,0.03-1.621,0.052-2.429c0.022-0.808,0.042-1.617,0.071-2.425
	c0.005-0.135,0.011-0.27,0.017-0.405c0.298,0.532,0.598,1.062,0.886,1.599c0.398,0.743,0.793,1.486,1.197,2.227
	c0.816,1.496,1.662,2.976,2.505,4.46c0.816,1.441,1.629,2.889,2.37,4.371c0.369,0.735,0.737,1.468,1.149,2.182
	c0.289,0.498,0.566,1.004,0.848,1.507c-0.42-0.002-0.839-0.006-1.258-0.006C23.456,29.159,22.618,29.163,21.78,29.171z"/>
</svg>