<?xml version="1.0" encoding="utf-8"?>
<!-- Generator: Adobe Illustrator 21.1.0, SVG Export Plug-In . SVG Version: 6.00 Build 0)  -->
<svg version="1.1" id="designs" xmlns="http://www.w3.org/2000/svg" xmlns:xlink="http://www.w3.org/1999/xlink" x="0px" y="0px"
	 width="32px" height="32px" viewBox="0 0 32 32" style="enable-background:new 0 0 32 32;" xml:space="preserve">
<style type="text/css">
	.sketchy_een{fill:#111918;}
</style>
<path class="sketchy_een" d="M6.452,26.97c-0.005,0.007-0.01,0.014-0.015,0.021c-0.037,0.048-0.075,0.095-0.112,0.142
	C6.366,27.08,6.41,27.024,6.452,26.97z M5.167,25.417c-0.427,0-0.784,0.357-0.784,0.784s0.357,0.784,0.784,0.784
	c0.427,0,0.784-0.357,0.784-0.784S5.593,25.417,5.167,25.417z M22.284,22.045c0.011-0.013,0.021-0.026,0.032-0.04
	c-0.009,0.012-0.019,0.023-0.028,0.035C22.287,22.042,22.285,22.043,22.284,22.045z M22.316,22.005
	c0.026-0.033,0.051-0.066,0.077-0.099c-0.001,0.001-0.001,0.001-0.002,0.002C22.366,21.941,22.341,21.973,22.316,22.005z
	 M30.887,9.492c-0.439,0.732-0.873,1.464-1.29,2.207c-0.367,0.656-0.75,1.296-1.163,1.924c-0.469,0.714-0.955,1.41-1.456,2.104
	c-0.495,0.688-1.009,1.368-1.476,2.076c-0.243,0.367-0.483,0.736-0.736,1.095c-0.271,0.383-0.562,0.754-0.849,1.123
	c-0.498,0.636-1.024,1.249-1.525,1.885c0.006-0.008,0.013-0.016,0.019-0.025c-0.007,0.009-0.014,0.018-0.021,0.027
	c-0.034,0.044-0.069,0.088-0.103,0.132c-0.453,0.583-0.915,1.151-1.42,1.69c-0.481,0.51-0.987,0.993-1.49,1.478
	c-0.245,0.235-0.477,0.485-0.734,0.708c-0.245,0.211-0.492,0.421-0.748,0.622c-0.467,0.371-0.937,0.744-1.444,1.059
	c-0.335,0.205-0.765,0.105-1.021-0.173c-0.17,0.019-0.361,0.006-0.488-0.093c-0.13-0.1-0.261-0.191-0.401-0.275
	c-0.349-0.209-0.696-0.413-1.023-0.66c-0.343-0.257-0.692-0.508-1.029-0.778c-0.598-0.478-1.188-0.969-1.784-1.449
	c-0.031,0.048-0.055,0.096-0.093,0.145c-0.451,0.568-0.923,1.117-1.368,1.689c-0.405,0.524-0.815,1.044-1.22,1.567
	c-0.341,0.454-0.658,0.926-0.997,1.383c-0.317,0.423-0.622,0.869-0.991,1.25c-0.252,0.259-0.645,0.296-0.956,0.142
	C4.909,30.277,4.73,30.209,4.579,30.1c-0.142-0.102-0.281-0.201-0.423-0.299c-0.379-0.257-0.744-0.536-1.091-0.836
	c-0.273-0.235-0.512-0.5-0.768-0.754c-0.331-0.327-0.696-0.62-1.027-0.951c-0.361-0.361-0.361-0.965,0-1.326
	c0.062-0.062,0.14-0.1,0.216-0.141c0.016-0.037,0.017-0.082,0.04-0.114c0.12-0.164,0.237-0.331,0.359-0.497
	c0.501-0.68,1.043-1.328,1.569-1.986c0.516-0.644,1.019-1.296,1.537-1.936c1.069-1.318,2.104-2.66,3.189-3.966
	c0.534-0.644,1.057-1.3,1.571-1.96c0.52-0.668,1.039-1.342,1.591-1.984c0.554-0.642,1.089-1.304,1.627-1.962
	c0.524-0.638,1.035-1.292,1.573-1.918c0.273-0.317,0.552-0.628,0.822-0.947c0.257-0.305,0.505-0.614,0.762-0.917
	c0.542-0.638,1.067-1.284,1.589-1.936c0.271-0.339,0.544-0.678,0.838-0.999c0.281-0.309,0.574-0.604,0.867-0.903
	c0.614-0.624,1.163-1.3,1.739-1.96c0.148-0.169,0.363-0.248,0.58-0.248c0.073,0,0.143,0.023,0.213,0.04
	c0.072-0.018,0.145-0.029,0.218-0.029c0.145,0,0.289,0.038,0.416,0.123c0.824,0.55,1.633,1.117,2.423,1.717
	c0.648,0.492,1.314,0.961,1.92,1.508c0.311,0.281,0.616,0.57,0.923,0.855c0.291,0.269,0.592,0.526,0.885,0.79
	c0.285,0.255,0.558,0.516,0.832,0.784c0.261,0.259,0.532,0.51,0.782,0.784c0.046,0.049,0.072,0.109,0.105,0.165
	c0.044,0.016,0.089,0.03,0.13,0.054C30.976,8.575,31.122,9.102,30.887,9.492z M9.285,23.287c0.041-0.069,0.109-0.111,0.164-0.164
	c-0.216-0.182-0.431-0.364-0.651-0.542c-0.579-0.471-1.14-0.964-1.694-1.467c-0.256,0.324-0.51,0.649-0.766,0.973
	c-0.035,0.045-0.07,0.091-0.105,0.136c-0.468,0.619-0.94,1.238-1.415,1.851c-0.399,0.513-0.809,1.018-1.208,1.531
	c-0.192,0.254-0.378,0.512-0.561,0.771c0.279,0.271,0.559,0.542,0.835,0.817c0.338,0.333,0.688,0.643,1.059,0.937
	c0.138,0.106,0.275,0.214,0.412,0.321c0.045-0.056,0.095-0.109,0.14-0.166c0.32-0.426,0.614-0.871,0.941-1.293
	c0.5-0.643,1.014-1.277,1.515-1.922c-0.044,0.054-0.086,0.108-0.128,0.161C8.318,24.589,8.793,23.931,9.285,23.287z M29.128,9.212
	c-0.281-0.339-0.613-0.644-0.927-0.95c-0.331-0.323-0.666-0.64-1.017-0.943c-0.73-0.632-1.431-1.298-2.19-1.898
	c-0.956-0.725-1.969-1.373-2.972-2.031c-0.433,0.486-0.868,0.97-1.34,1.422c-0.602,0.578-1.174,1.186-1.693,1.843
	c-0.265,0.333-0.524,0.674-0.798,1.001c-0.271,0.321-0.546,0.638-0.81,0.965c-0.518,0.638-1.059,1.254-1.601,1.872
	c-0.552,0.63-1.081,1.282-1.607,1.932c-0.534,0.662-1.069,1.324-1.623,1.97c-0.534,0.62-1.053,1.256-1.557,1.9
	c-0.934,1.191-1.913,2.343-2.858,3.523c0.447,0.427,0.885,0.866,1.352,1.269c0.463,0.399,0.935,0.786,1.396,1.184
	c0.833,0.718,1.709,1.386,2.576,2.063c0.357,0.274,0.715,0.542,1.076,0.809c0.393,0.285,0.822,0.52,1.232,0.78
	c0.034,0.021,0.055,0.054,0.085,0.079c0.221-0.148,0.444-0.295,0.654-0.456c0.362-0.282,0.722-0.571,1.059-0.879
	c0.385-0.351,0.758-0.716,1.139-1.073c0.811-0.762,1.567-1.569,2.25-2.448c0.297-0.387,0.595-0.776,0.901-1.159
	c0.291-0.366,0.598-0.72,0.891-1.085c0.383-0.502,0.748-1.015,1.104-1.535c0.969-1.428,2.044-2.78,2.997-4.218
	c0.221-0.335,0.443-0.672,0.66-1.009c0.237-0.367,0.445-0.754,0.652-1.139C28.479,10.405,28.798,9.806,29.128,9.212z M27.12,9.238
	c-0.131-0.077-0.282-0.116-0.433-0.116c-0.076,0-0.153,0.01-0.227,0.03c-0.227,0.062-0.379,0.205-0.51,0.393
	c-0.522,0.75-0.995,1.531-1.502,2.293c-0.443,0.664-0.931,1.292-1.418,1.922c0.017-0.022,0.035-0.044,0.052-0.067
	c-0.817,1.055-1.583,2.144-2.39,3.207c-0.388,0.503-0.805,0.983-1.202,1.48c-0.415,0.518-0.818,1.045-1.26,1.541
	c-0.399,0.449-0.836,0.865-1.262,1.288c-0.449,0.443-0.947,0.84-1.38,1.298c-0.323,0.343-0.341,0.885,0,1.226
	c0.323,0.323,0.909,0.349,1.226,0c0.263-0.289,0.56-0.55,0.84-0.824c0.309-0.301,0.6-0.616,0.891-0.931
	c0.237-0.259,0.485-0.507,0.718-0.768c0.282-0.316,0.542-0.646,0.8-0.979c-0.01,0.013-0.02,0.027-0.03,0.04
	c0.461-0.592,0.947-1.167,1.434-1.737c0.522-0.612,0.999-1.262,1.49-1.898c-0.044,0.056-0.088,0.112-0.132,0.167
	c0.138-0.177,0.275-0.353,0.413-0.53c0.335-0.435,0.663-0.875,0.995-1.314c0.544-0.696,1.089-1.388,1.577-2.122
	c0.243-0.363,0.471-0.734,0.71-1.099c0.293-0.451,0.596-0.893,0.905-1.332C27.694,10.026,27.494,9.459,27.12,9.238z M23.319,16.172
	c-0.027,0.035-0.054,0.069-0.081,0.104c-0.017,0.022-0.034,0.044-0.05,0.065C23.231,16.285,23.275,16.227,23.319,16.172z"/>
</svg>