<?xml version="1.0" encoding="utf-8"?>
<!-- Generator: Adobe Illustrator 21.1.0, SVG Export Plug-In . SVG Version: 6.00 Build 0)  -->
<svg version="1.1" id="designs" xmlns="http://www.w3.org/2000/svg" xmlns:xlink="http://www.w3.org/1999/xlink" x="0px" y="0px"
	 width="32px" height="32px" viewBox="0 0 32 32" style="enable-background:new 0 0 32 32;" xml:space="preserve">
<style type="text/css">
	.sketchy_een{fill:#111918;}
</style>
<path class="sketchy_een" d="M28.567,11.709c-0.008-0.375-0.031-0.749-0.08-1.122c-0.058-0.427-0.111-0.872-0.254-1.285
	c-0.184-0.532-0.487-0.973-0.835-1.408c-0.266-0.336-0.627-0.642-1.015-0.823c-0.346-0.165-0.709-0.27-1.097-0.281
	c-0.017,0-0.033,0-0.05,0c-0.279,0-0.562,0.049-0.827,0.133c-0.264,0.086-0.499,0.243-0.74,0.377
	c-0.241,0.134-0.454,0.264-0.668,0.443c-0.186,0.152-0.336,0.379-0.462,0.579C22.395,8.55,22.286,8.82,22.222,9.08
	c-0.107,0.439-0.111,0.91-0.072,1.357c0.045,0.527,0.159,1.042,0.24,1.562c0.05,0.493,0.035,0.996-0.021,1.489
	c-0.041,0.238-0.101,0.468-0.182,0.696c-0.037,0.074-0.078,0.145-0.123,0.214c-0.057,0.062-0.116,0.12-0.179,0.174
	c-0.08,0.054-0.162,0.104-0.247,0.149c-0.091,0.029-0.184,0.051-0.279,0.068c-0.261,0.022-0.521,0.021-0.78,0.008
	c0.009-0.241,0.012-0.482,0.016-0.723c0.006-0.392,0.01-0.784,0.023-1.173c0.012-0.373,0.041-0.745,0.052-1.116
	c0.012-0.417,0.019-0.831,0.023-1.248c0.006-0.796-0.002-1.594-0.031-2.39c-0.012-0.363-0.019-0.726-0.045-1.086
	c-0.031-0.435-0.107-0.864-0.171-1.295c-0.062-0.411-0.14-0.811-0.243-1.21c-0.109-0.413-0.287-0.804-0.476-1.186
	c-0.198-0.398-0.414-0.775-0.714-1.111c-0.153-0.169-0.326-0.313-0.507-0.45c-0.151-0.113-0.318-0.189-0.485-0.274
	c-0.353-0.182-0.709-0.4-1.103-0.477C16.703,1.018,16.497,1,16.292,1c-0.266,0-0.53,0.03-0.805,0.078
	c-0.33,0.056-0.662,0.161-0.977,0.27c-0.353,0.124-0.707,0.308-1.017,0.52c-0.338,0.233-0.629,0.493-0.895,0.804
	c-0.274,0.321-0.518,0.664-0.726,1.033c-0.392,0.692-0.579,1.454-0.726,2.229c-0.155,0.812-0.163,1.633-0.144,2.456
	c0.017,0.757,0.037,1.513,0.027,2.27c-0.004,0.402-0.006,0.805-0.023,1.205c-0.004,0.098-0.013,0.195-0.018,0.292
	c-0.088-0.05-0.175-0.101-0.257-0.159c-0.173-0.148-0.333-0.32-0.482-0.493c-0.047-0.077-0.09-0.156-0.128-0.238
	c-0.086-0.235-0.145-0.476-0.212-0.717c-0.066-0.233-0.124-0.464-0.165-0.701C9.701,9.438,9.702,9.024,9.656,8.614
	C9.601,8.106,9.454,7.62,9.207,7.17C8.982,6.764,8.64,6.444,8.252,6.199C7.887,5.968,7.473,5.884,7.054,5.822
	C6.845,5.793,6.641,5.769,6.433,5.769c-0.029,0-0.059,0-0.089,0.001c-0.27,0.008-0.54,0.058-0.806,0.105
	C5.283,5.919,5.039,5.991,4.806,6.104C4.433,6.288,4.149,6.601,3.988,6.98C3.608,7.874,3.466,8.828,3.437,9.793
	c-0.025,0.827-0.049,1.664,0.041,2.489c0.054,0.482,0.105,0.967,0.196,1.446c0.078,0.417,0.2,0.823,0.315,1.229
	c0.109,0.379,0.194,0.763,0.34,1.132c0.173,0.433,0.348,0.866,0.59,1.269c0.262,0.435,0.645,0.786,1.068,1.06
	c0.338,0.219,0.72,0.392,1.081,0.567c0.771,0.371,1.615,0.501,2.462,0.523c0.41,0.013,0.817-0.031,1.225-0.062
	c0.311-0.024,0.628-0.074,0.942-0.091c0.013,0.838,0.043,1.676,0.114,2.512c0.074,0.875,0.161,1.745,0.2,2.619
	c0.021,0.443,0.033,0.884,0.049,1.326c0.019,0.503,0.068,1,0.14,1.5c0.06,0.42,0.111,0.843,0.231,1.253
	c0.08,0.276,0.208,0.584,0.384,0.814c0.19,0.25,0.371,0.499,0.621,0.691c0.194,0.151,0.379,0.289,0.6,0.398
	c0.233,0.118,0.48,0.219,0.728,0.305c0.433,0.151,0.901,0.2,1.357,0.221c0.45,0.021,0.903-0.021,1.344-0.105
	c0.192-0.037,0.377-0.113,0.559-0.184c0.227-0.086,0.439-0.18,0.639-0.32c0.136-0.095,0.264-0.204,0.388-0.315
	c0.379-0.336,0.639-0.769,0.823-1.235c0.076-0.194,0.115-0.404,0.161-0.606c0.058-0.258,0.099-0.516,0.132-0.777
	c0.101-0.809,0.103-1.638,0.097-2.452c-0.004-0.292-0.019-0.585-0.033-0.878c-0.014-0.34-0.017-0.678-0.029-1.019
	c-0.01-0.227-0.018-0.455-0.027-0.683c0.444-0.022,0.891-0.021,1.333-0.064c0.524-0.053,1.031-0.136,1.53-0.299
	c0.241-0.081,0.476-0.184,0.711-0.283c0.243-0.103,0.491-0.2,0.722-0.33c0.456-0.254,0.847-0.62,1.257-0.942
	c0.301-0.228,0.604-0.452,0.893-0.697c0.349-0.295,0.641-0.641,0.887-1.027c0.429-0.67,0.604-1.489,0.765-2.258
	c0.087-0.409,0.128-0.827,0.177-1.242c0.043-0.377,0.103-0.752,0.117-1.134C28.598,13.334,28.584,12.52,28.567,11.709z
	 M26.901,14.559c-0.03,0.356-0.081,0.711-0.129,1.064c-0.097,0.647-0.235,1.316-0.472,1.928c-0.106,0.23-0.233,0.448-0.379,0.656
	c-0.213,0.247-0.459,0.458-0.714,0.66c-0.259,0.195-0.525,0.383-0.785,0.577c-0.304,0.231-0.611,0.437-0.96,0.597
	c-0.552,0.223-1.113,0.408-1.701,0.502c-0.542,0.056-1.083,0.054-1.628,0.062c-0.191,0.003-0.361,0.078-0.509,0.182
	c-0.128-0.065-0.266-0.109-0.411-0.109c-0.243,0-0.478,0.097-0.65,0.269c-0.115,0.115-0.194,0.251-0.237,0.406
	c-0.043,0.163-0.043,0.326,0,0.488c0.006,0.045,0.012,0.091,0.019,0.136c0-0.001,0-0.003-0.001-0.004
	c0.004,0.027,0.007,0.054,0.011,0.081c-0.002-0.015-0.004-0.03-0.006-0.046c0.005,0.038,0.01,0.076,0.016,0.113
	c0.044,0.411,0.05,0.826,0.079,1.238c0.031,0.441,0.064,0.882,0.091,1.324c0.029,0.46,0.027,0.924,0.021,1.384
	c-0.004,0.416-0.017,0.83-0.063,1.243c-0.051,0.347-0.12,0.696-0.238,1.026c-0.046,0.087-0.097,0.169-0.151,0.251
	c-0.088,0.101-0.182,0.192-0.284,0.28c-0.083,0.058-0.167,0.11-0.256,0.156c-0.2,0.073-0.402,0.133-0.611,0.17
	c-0.373,0.041-0.75,0.033-1.124-0.004c-0.263-0.046-0.514-0.115-0.765-0.208c-0.183-0.083-0.356-0.177-0.523-0.288
	c-0.094-0.086-0.18-0.178-0.262-0.274c-0.048-0.076-0.09-0.152-0.128-0.231c-0.144-0.405-0.207-0.834-0.27-1.258
	c-0.074-0.608-0.104-1.214-0.125-1.828c-0.019-0.654-0.066-1.304-0.124-1.955c-0.058-0.623-0.134-1.246-0.155-1.873
	c-0.025-0.777-0.029-1.555-0.029-2.332c-0.002-0.393-0.275-0.72-0.637-0.829c-0.107-0.228-0.298-0.415-0.555-0.49
	c-0.351-0.101-0.734-0.04-1.093-0.008c-0.266,0.022-0.534,0.035-0.8,0.056c-0.496,0.038-0.994,0.027-1.487-0.027
	c-0.325-0.053-0.652-0.125-0.961-0.238C7.695,17.308,7.482,17.2,7.264,17.1c-0.193-0.091-0.373-0.188-0.545-0.307
	c-0.087-0.074-0.169-0.151-0.244-0.236c-0.147-0.217-0.274-0.447-0.382-0.684c-0.179-0.467-0.33-0.937-0.456-1.421
	c-0.142-0.538-0.296-1.072-0.383-1.623c-0.078-0.629-0.12-1.255-0.114-1.891c0.006-0.624,0.01-1.243,0.079-1.86
	c0.068-0.443,0.167-0.879,0.318-1.303C5.557,7.735,5.578,7.697,5.6,7.66c0.015-0.009,0.03-0.018,0.046-0.026
	c0.186-0.059,0.376-0.097,0.568-0.13c0.171-0.015,0.339-0.015,0.51,0C6.902,7.533,7.08,7.566,7.251,7.622
	c0.078,0.042,0.153,0.087,0.225,0.137C7.538,7.814,7.596,7.873,7.65,7.935c0.067,0.1,0.125,0.203,0.177,0.311
	c0.061,0.166,0.11,0.332,0.144,0.505c0.015,0.163,0.023,0.326,0.032,0.49c0.013,0.267,0.04,0.528,0.074,0.792
	c0.067,0.444,0.167,0.877,0.274,1.313c0.068,0.278,0.165,0.534,0.276,0.798c0.126,0.295,0.328,0.53,0.536,0.767
	c0.28,0.322,0.602,0.61,0.977,0.819c0.53,0.293,1.116,0.346,1.709,0.353c0.493,0.008,0.905-0.417,0.905-0.903
	c0-0.179-0.067-0.335-0.158-0.476c0.039-0.94,0.044-1.878,0.051-2.819c0.002-0.54-0.012-1.08-0.01-1.621
	c0.002-0.523-0.025-1.054,0.027-1.577c0.098-0.614,0.253-1.233,0.48-1.811c0.133-0.288,0.295-0.564,0.481-0.821
	c0.196-0.238,0.403-0.464,0.64-0.661c0.219-0.154,0.453-0.293,0.694-0.411c0.283-0.105,0.584-0.182,0.883-0.231
	c0.202-0.022,0.406-0.037,0.609-0.026c0.099,0.021,0.195,0.05,0.291,0.084c0.138,0.066,0.27,0.141,0.407,0.206
	c0.147,0.072,0.295,0.136,0.431,0.225c0.116,0.101,0.224,0.208,0.325,0.325c0.215,0.305,0.384,0.65,0.535,0.992
	c0.273,0.697,0.385,1.447,0.489,2.185c0.075,0.633,0.092,1.273,0.105,1.912c0.016,0.752,0.025,1.507-0.008,2.26
	c-0.033,0.701-0.045,1.404-0.091,2.105c-0.023,0.367-0.027,0.734-0.035,1.101c-0.006,0.34-0.002,0.685-0.041,1.023
	c-0.012,0.1,0.013,0.206,0.055,0.307c-0.009,0.05-0.03,0.097-0.03,0.148c0,0.231,0.093,0.456,0.256,0.619
	c0.177,0.177,0.377,0.229,0.619,0.256c0.685,0.074,1.367,0.088,2.05-0.035c0.779-0.142,1.479-0.703,1.829-1.404
	c0.34-0.676,0.435-1.421,0.472-2.167c0.019-0.332,0.025-0.664-0.017-0.994c-0.041-0.336-0.108-0.668-0.16-1.003
	c-0.044-0.387-0.069-0.776-0.039-1.165c0.023-0.115,0.054-0.225,0.093-0.335c0.044-0.09,0.092-0.176,0.146-0.259
	c0.019-0.021,0.038-0.041,0.059-0.061c0.108-0.068,0.219-0.127,0.33-0.192c0.138-0.077,0.27-0.163,0.408-0.238
	c0.073-0.024,0.146-0.044,0.22-0.06c0.06-0.003,0.12-0.003,0.18,0c0.082,0.019,0.163,0.042,0.243,0.07
	c0.072,0.038,0.141,0.079,0.208,0.125c0.156,0.135,0.3,0.279,0.433,0.438c0.138,0.19,0.267,0.382,0.371,0.594
	c0.11,0.31,0.178,0.636,0.229,0.961c0.095,0.803,0.101,1.619,0.103,2.426C26.922,13.638,26.94,14.1,26.901,14.559z M8.058,9.905
	C8.064,9.948,8.07,9.99,8.077,10.033c0.004,0.032,0.008,0.064,0.013,0.097C8.079,10.055,8.069,9.979,8.058,9.905z M14.04,7.136
	c0-0.433,0.361-0.794,0.794-0.794s0.794,0.361,0.794,0.794S15.266,7.93,14.833,7.93S14.04,7.569,14.04,7.136z M18.09,10.221
	c0,0.433-0.363,0.796-0.796,0.796s-0.796-0.363-0.796-0.796c0-0.433,0.363-0.796,0.796-0.796S18.09,9.788,18.09,10.221z
	 M14.509,14.483c-0.431,0-0.792-0.36-0.792-0.792s0.361-0.792,0.792-0.792s0.792,0.361,0.792,0.792S14.94,14.483,14.509,14.483z
	 M16.132,16.87c0-0.433,0.361-0.794,0.794-0.794s0.794,0.361,0.794,0.794s-0.361,0.794-0.794,0.794S16.132,17.303,16.132,16.87z
	 M15.526,22.104c-0.433,0-0.792-0.359-0.792-0.792c0-0.433,0.359-0.792,0.792-0.792s0.792,0.359,0.792,0.792
	C16.318,21.745,15.96,22.104,15.526,22.104z M17.787,24.358c0,0.431-0.359,0.79-0.79,0.79s-0.79-0.359-0.79-0.79
	c0-0.431,0.359-0.79,0.79-0.79S17.787,23.928,17.787,24.358z M16.68,27.565c0,0.433-0.359,0.792-0.792,0.792
	s-0.792-0.359-0.792-0.792s0.359-0.792,0.792-0.792S16.68,27.132,16.68,27.565z M21.335,18.826c0,0.433-0.359,0.792-0.792,0.792
	s-0.792-0.359-0.792-0.792s0.359-0.792,0.792-0.792S21.335,18.393,21.335,18.826z M26.259,12.029c0,0.431-0.361,0.792-0.792,0.792
	s-0.792-0.361-0.792-0.792s0.361-0.792,0.792-0.792S26.259,11.598,26.259,12.029z M25.419,16.48c0,0.433-0.361,0.794-0.794,0.794
	s-0.794-0.361-0.794-0.794s0.361-0.794,0.794-0.794S25.419,16.047,25.419,16.48z M11.199,15.393c0,0.431-0.359,0.79-0.79,0.79
	c-0.431,0-0.79-0.359-0.79-0.79s0.359-0.79,0.79-0.79C10.84,14.603,11.199,14.961,11.199,15.393z M8.209,14.171
	c0,0.431-0.359,0.79-0.79,0.79s-0.79-0.359-0.79-0.79c0-0.431,0.359-0.79,0.79-0.79S8.209,13.741,8.209,14.171z M6.624,11.052
	c-0.429,0-0.788-0.359-0.788-0.788c0-0.429,0.359-0.788,0.788-0.788c0.429,0,0.788,0.358,0.788,0.788
	C7.411,10.693,7.053,11.052,6.624,11.052z M16.027,5.584c0-0.433,0.361-0.794,0.794-0.794s0.794,0.361,0.794,0.794
	s-0.361,0.794-0.794,0.794S16.027,6.018,16.027,5.584z"/>
</svg>