<?xml version="1.0" encoding="utf-8"?>
<!-- Generator: Adobe Illustrator 21.1.0, SVG Export Plug-In . SVG Version: 6.00 Build 0)  -->
<svg version="1.1" id="designs" xmlns="http://www.w3.org/2000/svg" xmlns:xlink="http://www.w3.org/1999/xlink" x="0px" y="0px"
	 width="32px" height="32px" viewBox="0 0 32 32" style="enable-background:new 0 0 32 32;" xml:space="preserve">
<style type="text/css">
	.sketchy_een{fill:#111918;}
</style>
<path class="sketchy_een" d="M24.976,29.383c-0.003-0.335-0.035-0.673-0.059-1.005c-0.026-0.402-0.048-0.802-0.06-1.205
	c-0.026-0.797-0.03-1.591-0.034-2.388c-0.006-0.812-0.02-1.625-0.048-2.438c-0.026-0.816-0.04-1.635-0.076-2.451
	c-0.058-1.397-0.126-2.792-0.082-4.191c0.043-1.285,0.083-2.568,0.098-3.852c0.081-0.136,0.14-0.284,0.14-0.441
	c0-0.466-0.391-0.885-0.865-0.885c-0.007,0-0.013,0-0.02,0c-0.41,0.01-0.818,0.06-1.229,0.082c-0.414,0.022-0.829,0.04-1.243,0.062
	c-0.299,0.016-0.599,0.023-0.898,0.038c0.018-0.262,0.029-0.524,0.009-0.783c-0.036-0.512-0.132-1.019-0.286-1.509
	c-0.034-0.106-0.07-0.21-0.11-0.314c-0.05-0.124-0.104-0.246-0.162-0.368c-0.06-0.128-0.166-0.232-0.254-0.344
	c-0.066-0.086-0.234-0.214-0.31-0.256c-0.112-0.062-0.234-0.118-0.352-0.16c-0.104-0.036-0.208-0.064-0.316-0.084
	c-0.009-0.002-0.019,0-0.028-0.002c-0.049-0.262-0.095-0.526-0.159-0.785c-0.098-0.398-0.246-0.786-0.38-1.175
	c-0.274-0.797-0.594-1.601-1.025-2.327c-0.264-0.446-0.564-0.865-0.963-1.199c-0.272-0.226-0.55-0.386-0.915-0.402
	C15.337,1,15.325,1,15.313,1c-0.323,0-0.586,0.175-0.819,0.379c-0.246,0.214-0.43,0.498-0.588,0.78
	c-0.214,0.38-0.388,0.782-0.546,1.189c-0.206,0.526-0.39,1.055-0.492,1.611c-0.12,0.65-0.224,1.305-0.278,1.963
	c-0.004,0.049,0.017,0.092,0.024,0.139c-0.078,0.031-0.156,0.062-0.231,0.096c-0.492,0.218-0.971,0.552-1.085,1.117
	c-0.056,0.282-0.032,0.542,0.002,0.823c0.022,0.186,0.032,0.374,0.04,0.56c0.02,0.396,0.018,0.792,0.02,1.188
	c-0.154-0.003-0.308-0.001-0.462-0.004c-0.486-0.008-0.973,0.006-1.459,0.006c-0.242,0.002-0.482,0.002-0.724,0
	c-0.3,0-0.6-0.002-0.901,0c-0.434,0.002-0.796,0.36-0.796,0.797c0,0.013,0.007,0.023,0.007,0.036
	c-0.004,0.03-0.018,0.056-0.018,0.087c0,1.709-0.096,3.416-0.166,5.125c-0.034,0.845-0.07,1.689-0.08,2.534
	c-0.008,0.833,0.006,1.665,0.008,2.498c0.006,1.345,0.028,2.688,0.026,4.032c-0.002,1.301,0.064,2.602,0.02,3.9
	c-0.018,0.498,0.428,0.915,0.913,0.915c0.017,0,0.032-0.009,0.049-0.01c0.128,0.08,0.27,0.139,0.43,0.135
	c0.909-0.016,1.819-0.056,2.726,0.002c0.883,0.056,1.759,0.074,2.644,0.06c0.891-0.014,1.781,0.008,2.672,0.02
	c0.903,0.014,1.805-0.03,2.708-0.046c0.909-0.016,1.825-0.006,2.736,0.02c0.434,0.012,0.867,0.05,1.301,0.05
	c0.442,0,0.887-0.024,1.329-0.04c0.504-0.018,0.927-0.408,0.927-0.927C25.244,29.79,25.147,29.557,24.976,29.383z M14.453,5.083
	c0.08-0.331,0.203-0.65,0.331-0.965c0.177-0.399,0.372-0.803,0.611-1.17c0.009,0.01,0.018,0.02,0.027,0.03
	c0.273,0.393,0.49,0.817,0.684,1.253c0.217,0.538,0.398,1.09,0.574,1.645c0.096,0.302,0.192,0.606,0.262,0.917
	c0.004,0.018,0.006,0.037,0.01,0.055c-0.678-0.021-1.355-0.071-2.033-0.074c-0.038,0-0.075,0-0.113,0
	c-0.201,0-0.402,0.007-0.603,0.018c0.019-0.247,0.04-0.493,0.07-0.74C14.323,5.726,14.376,5.403,14.453,5.083z M13.089,9.701
	c0.008-0.188,0.016-0.374,0.006-0.562c-0.008-0.112-0.017-0.224-0.02-0.336c0.042-0.024,0.084-0.047,0.127-0.069
	c0.246-0.086,0.496-0.137,0.752-0.18c0.375-0.034,0.751-0.046,1.128-0.049c0.424-0.004,0.844,0.042,1.265,0.076
	c0.388,0.03,0.776,0.044,1.167,0.054c0.12,0.004,0.24,0.002,0.362,0.002c0.191-0.002,0.381-0.003,0.57,0.009
	c0.024,0.005,0.048,0.011,0.071,0.017c0.001,0.003,0.003,0.005,0.004,0.008c0.112,0.302,0.198,0.609,0.252,0.927
	c0.025,0.247,0.036,0.489,0.019,0.739c-0.01,0.148-0.029,0.295-0.046,0.442c-0.775,0.008-1.549,0.005-2.324,0.019
	c-0.857,0.016-1.713,0.058-2.57,0.07c-0.255,0.004-0.51-0.006-0.766-0.007C13.078,10.473,13.07,10.087,13.089,9.701z M21.484,29.179
	c-0.905,0-1.811,0.02-2.714,0.046c-0.44,0.012-0.879,0.032-1.319,0.048c-0.438,0.018-0.877,0.004-1.315,0
	c-0.891-0.01-1.779-0.002-2.67,0.014c-0.857,0.016-1.711,0.02-2.564-0.032c-0.758-0.046-1.519-0.05-2.278-0.046
	c-0.009-0.569-0.015-1.137-0.039-1.706c-0.038-0.827-0.052-1.653-0.07-2.48C8.48,23.356,8.46,21.687,8.424,20.02
	c-0.03-1.375,0.002-2.746,0.012-4.121c0.004-0.66,0.014-1.323,0.028-1.983c0.011-0.498,0.036-0.996,0.055-1.493
	c0.657-0.017,1.314-0.038,1.971-0.037c0.412,0,0.826,0.04,1.239,0.056c0.408,0.016,0.818,0.028,1.229,0.032
	c0.454,0.006,0.909,0.018,1.365,0.02c0.416,0.002,0.833-0.022,1.247-0.032c0.598-0.012,1.195-0.012,1.793-0.01
	c0.262,0,0.524,0.002,0.786,0c0.208,0,0.416,0,0.626,0c0.754,0,1.511,0,2.265-0.044c0.488-0.028,0.977-0.048,1.467-0.05
	c0.223,0,0.443-0.007,0.665-0.021c0.006,0.554,0.01,1.108-0.006,1.661c-0.022,0.826-0.074,1.653-0.1,2.479
	c-0.026,0.825-0.006,1.649,0.018,2.474c0.026,0.828,0.04,1.655,0.05,2.486c0.008,0.676,0.026,1.353,0.026,2.029
	c0,0.696-0.006,1.393,0.002,2.087c0.008,0.682,0.022,1.365,0.038,2.047c0.008,0.334,0.024,0.666,0.036,0.999
	c0.009,0.192,0.017,0.386,0.02,0.58C22.665,29.192,22.072,29.179,21.484,29.179z M20.516,24.79
	c-0.014-0.382-0.038-0.766-0.048-1.149c-0.022-0.807-0.016-1.615-0.02-2.422c-0.002-0.805-0.01-1.609-0.018-2.413
	c-0.006-0.861,0.014-1.719,0.018-2.58c0.002-0.432-0.362-0.792-0.794-0.792c-0.021,0-0.038,0.01-0.059,0.012
	c-0.062-0.016-0.124-0.024-0.184-0.017c-0.274,0.036-0.55,0.062-0.828,0.078c-0.29,0.016-0.58-0.002-0.869-0.022
	c-0.582-0.04-1.161-0.098-1.743-0.126c-1.154-0.055-2.308-0.091-3.461-0.091c-0.187,0-0.374,0.001-0.561,0.003
	c-0.126,0.001-0.241,0.037-0.348,0.09c-0.329,0.079-0.573,0.365-0.58,0.712c-0.02,0.823,0.002,1.645-0.02,2.466
	c-0.02,0.76-0.034,1.521-0.05,2.281c-0.016,0.802-0.034,1.605-0.044,2.405c-0.01,0.754,0.01,1.511-0.008,2.265
	c-0.002,0.072-0.004,0.142-0.006,0.214c-0.011,0.401,0.304,0.726,0.682,0.801c0.145,0.249,0.408,0.417,0.717,0.434
	c1.281,0.07,2.562,0.054,3.844,0.042c0.562-0.006,1.127-0.016,1.689-0.01c0.292,0.002,0.586,0.016,0.879,0.008
	c0.318-0.008,0.636-0.024,0.955-0.038c0.37-0.015,0.678-0.255,0.78-0.597c0.068-0.121,0.115-0.253,0.109-0.399
	C20.534,25.562,20.53,25.176,20.516,24.79z M17.896,25.399c-0.586,0.028-1.173,0.044-1.759,0.036
	c-1.196-0.019-2.391-0.073-3.586-0.151c-0.025-1.429-0.077-2.857-0.075-4.287c0.002-1.376-0.005-2.751,0.025-4.127
	c0.665-0.015,1.331-0.033,1.997-0.031c0.138,0.002,0.278,0.002,0.418,0.002c0.637,0,1.277-0.002,1.911,0.074
	c0.425,0.056,0.85,0.096,1.277,0.128c0.222,0.016,0.44,0.032,0.662,0.026c0.033-0.001,0.065-0.002,0.098-0.003
	c0.006,0.573,0.015,1.146,0.012,1.719c-0.004,0.789-0.022,1.575-0.032,2.363c-0.012,0.823-0.02,1.645-0.024,2.468
	c-0.003,0.579,0.005,1.16,0.007,1.74C18.518,25.372,18.207,25.385,17.896,25.399z"/>
</svg>