<?xml version="1.0" encoding="utf-8"?>
<!-- Generator: Adobe Illustrator 21.1.0, SVG Export Plug-In . SVG Version: 6.00 Build 0)  -->
<svg version="1.1" id="designs" xmlns="http://www.w3.org/2000/svg" xmlns:xlink="http://www.w3.org/1999/xlink" x="0px" y="0px"
	 width="32px" height="32px" viewBox="0 0 32 32" style="enable-background:new 0 0 32 32;" xml:space="preserve">
<style type="text/css">
	.sketchy_een{fill:#111918;}
</style>
<path class="sketchy_een" d="M30.795,19.484c-0.222-0.491-0.618-0.865-1.134-1.027c-0.495-0.152-1.004,0.006-1.467,0.18
	c-0.608,0.228-1.208,0.495-1.85,0.612c-0.213,0.014-0.422,0.003-0.633-0.017c0.249-0.224,0.483-0.465,0.68-0.745
	c0.236-0.337,0.418-0.683,0.576-1.061c0.065-0.16,0.123-0.319,0.172-0.483c0.089-0.307,0.093-0.637,0.073-0.954
	c-0.024-0.384-0.115-0.78-0.289-1.122c-0.105-0.208-0.238-0.392-0.4-0.56c-0.19-0.2-0.414-0.309-0.667-0.408
	c-0.123-0.049-0.272-0.062-0.413-0.062c-0.054,0-0.107,0.002-0.157,0.005c-0.303,0.018-0.582,0.137-0.849,0.273
	c-0.127,0.065-0.236,0.176-0.346,0.267c-0.067,0.057-0.137,0.115-0.204,0.172c-0.473,0.405-0.923,0.837-1.399,1.234
	c-0.344,0.249-0.716,0.455-1.104,0.627c-0.145,0.053-0.29,0.099-0.438,0.144c-0.001,0-0.001,0.001-0.001,0.001
	c-0.018-0.003-0.036-0.008-0.053-0.012c0.059-0.055,0.127-0.102,0.184-0.158c0.295-0.289,0.552-0.616,0.81-0.94
	c0.295-0.374,0.586-0.752,0.818-1.17c0.438-0.788,0.685-1.635,0.861-2.512c0.101-0.497,0.148-1.012,0.168-1.518
	c0.018-0.481-0.049-0.96-0.133-1.433c-0.073-0.416-0.168-0.827-0.295-1.229c-0.113-0.362-0.249-0.715-0.384-1.069
	c-0.164-0.428-0.341-0.853-0.558-1.257c-0.097-0.18-0.216-0.344-0.337-0.509c-0.17-0.234-0.346-0.463-0.548-0.671
	c-0.313-0.323-0.693-0.582-1.051-0.851c-0.342-0.259-0.701-0.497-1.077-0.705c-0.422-0.234-0.891-0.392-1.352-0.527
	c-0.445-0.129-0.909-0.222-1.37-0.277c-0.441-0.053-0.881-0.067-1.324-0.073c-0.053-0.001-0.106-0.001-0.159-0.001
	c-0.428,0-0.848,0.022-1.275,0.084c-0.463,0.065-0.911,0.152-1.356,0.293c-0.453,0.145-0.885,0.376-1.307,0.594
	c-0.82,0.426-1.51,1.051-2.15,1.708C8.91,4.475,8.781,4.641,8.652,4.808C8.486,5.021,8.324,5.243,8.191,5.481
	c-0.242,0.43-0.453,0.875-0.63,1.338c-0.16,0.42-0.255,0.859-0.335,1.299C7.14,8.591,7.084,9.076,7.066,9.557
	c-0.016,0.441-0.026,0.881-0.01,1.322c0.018,0.497,0.127,0.994,0.234,1.477c0.19,0.877,0.511,1.75,0.93,2.542
	c0.18,0.342,0.396,0.661,0.628,0.97c0.273,0.364,0.546,0.742,0.871,1.063c0.032,0.031,0.066,0.059,0.099,0.09
	c-0.03,0.013-0.06,0.026-0.089,0.04c-0.144-0.039-0.294-0.056-0.447-0.017c-0.243,0.061-0.483,0.119-0.729,0.161
	c-0.165,0.008-0.326,0.001-0.489-0.011c-0.177-0.035-0.345-0.086-0.515-0.15c-0.309-0.143-0.602-0.31-0.882-0.505
	c-0.317-0.22-0.618-0.485-0.96-0.663c-0.425-0.223-0.915-0.393-1.394-0.393c-0.333,0-0.66,0.082-0.958,0.284
	c-0.829,0.56-1.008,1.736-0.695,2.633c0.148,0.42,0.336,0.845,0.592,1.212c0.186,0.269,0.384,0.519,0.643,0.721
	c0.202,0.154,0.402,0.295,0.622,0.422c0.506,0.295,1.039,0.546,1.593,0.733c-0.233,0.353-0.462,0.71-0.714,1.049
	c-0.108,0.127-0.221,0.244-0.344,0.356c-0.154,0.104-0.316,0.191-0.484,0.269c-0.113,0.041-0.227,0.073-0.345,0.096
	c-0.176,0.013-0.352,0.01-0.527-0.005c-0.427-0.086-0.863-0.24-1.3-0.182c-0.279,0.038-0.531,0.113-0.776,0.257
	c-0.2,0.121-0.372,0.307-0.471,0.517c-0.204,0.435-0.188,0.893-0.022,1.338c0.075,0.202,0.156,0.4,0.267,0.584
	c0.113,0.19,0.269,0.362,0.412,0.533c0.105,0.129,0.24,0.236,0.368,0.34c0.176,0.147,0.358,0.275,0.558,0.386
	c0.342,0.19,0.74,0.311,1.12,0.404c0.249,0.059,0.509,0.081,0.764,0.103c0.202,0.018,0.404,0.018,0.608,0
	c0.899-0.079,1.77-0.295,2.589-0.675c0.24-0.111,0.479-0.232,0.705-0.37c0.275-0.17,0.529-0.378,0.776-0.586
	c0.202-0.172,0.378-0.376,0.558-0.57c0.075-0.081,0.139-0.171,0.209-0.256c-0.005,0.068-0.014,0.135-0.018,0.203
	c-0.02,0.38-0.024,0.764,0.008,1.142c0.038,0.457,0.119,0.895,0.255,1.332c0.121,0.392,0.257,0.804,0.487,1.144
	c0.24,0.356,0.521,0.697,0.863,0.96c0.269,0.21,0.521,0.38,0.861,0.461c0.265,0.061,0.519,0.038,0.782-0.012
	c0.234-0.046,0.44-0.172,0.622-0.315c0.249-0.194,0.398-0.519,0.467-0.82c0.057-0.244,0.057-0.513,0.053-0.762
	c-0.01-0.74-0.128-1.482-0.056-2.222c0.05-0.295,0.122-0.586,0.231-0.866c0.069-0.157,0.139-0.314,0.208-0.472
	c0.02,0.033,0.041,0.067,0.062,0.1c0.214,0.336,0.445,0.661,0.689,0.978c0.255,0.335,0.513,0.673,0.8,0.98
	c0.243,0.261,0.507,0.501,0.774,0.736c0.606,0.534,1.368,0.944,2.13,1.2c0.786,0.261,1.647,0.378,2.475,0.315
	c0.277-0.02,0.552-0.059,0.816-0.15c0.287-0.099,0.562-0.222,0.826-0.372c0.517-0.297,0.922-0.731,1.192-1.263
	c0.154-0.309,0.242-0.612,0.271-0.954c0.022-0.238-0.02-0.485-0.129-0.697c-0.119-0.23-0.315-0.4-0.527-0.538
	c-0.224-0.146-0.513-0.245-0.774-0.303c-0.268-0.058-0.545-0.083-0.819-0.115c-0.114-0.02-0.224-0.046-0.333-0.081
	c-0.124-0.066-0.24-0.142-0.354-0.223c-0.166-0.14-0.316-0.286-0.455-0.453c-0.19-0.266-0.348-0.555-0.489-0.851
	c0.182,0.121,0.371,0.234,0.564,0.331c0.392,0.198,0.806,0.378,1.233,0.485c0.434,0.111,0.877,0.194,1.322,0.245
	c0.416,0.048,0.828,0.073,1.245,0.079c0.443,0.006,0.895-0.063,1.33-0.133c0.368-0.057,0.727-0.214,1.069-0.348
	c0.402-0.158,0.794-0.339,1.18-0.534c0.394-0.202,0.76-0.44,1.077-0.752c0.139-0.137,0.257-0.299,0.374-0.453
	c0.097-0.127,0.19-0.257,0.265-0.398c0.143-0.269,0.242-0.554,0.297-0.853c0.038-0.202,0.075-0.412,0.055-0.618
	C30.967,19.937,30.905,19.729,30.795,19.484z M25.098,15.498c0.057-0.039,0.114-0.073,0.175-0.105
	c0.038-0.013,0.077-0.026,0.116-0.037c0.013,0,0.027,0,0.04,0.001c0.017,0.017,0.034,0.034,0.051,0.052
	c0.037,0.056,0.069,0.112,0.101,0.172c0.039,0.115,0.068,0.23,0.092,0.35c0.01,0.141,0.011,0.282,0.004,0.424
	c-0.032,0.156-0.077,0.304-0.133,0.456c-0.133,0.29-0.285,0.561-0.471,0.824c-0.213,0.251-0.446,0.476-0.701,0.686
	c-0.098,0.072-0.2,0.141-0.301,0.21c-0.047-0.031-0.095-0.057-0.141-0.089c-0.258-0.217-0.492-0.452-0.729-0.692
	c-0.138-0.14-0.292-0.256-0.447-0.371c0.34-0.211,0.667-0.445,0.977-0.708C24.188,16.283,24.631,15.874,25.098,15.498z
	 M4.668,18.868c-0.15-0.225-0.276-0.459-0.393-0.703c-0.067-0.179-0.121-0.358-0.16-0.545c-0.001-0.067,0-0.134,0.004-0.201
	c0.016-0.073,0.036-0.143,0.06-0.212c0.013-0.025,0.027-0.049,0.041-0.073c0.009-0.009,0.018-0.017,0.027-0.026
	c0.001-0.001,0.002-0.001,0.003-0.002c0.001,0,0.002,0,0.002-0.001c0.042-0.001,0.084-0.001,0.126,0
	c0.119,0.028,0.234,0.061,0.35,0.102c0.323,0.164,0.612,0.38,0.904,0.594c0.311,0.228,0.624,0.443,0.972,0.612
	c0.236,0.115,0.479,0.214,0.725,0.301c0.149,0.052,0.304,0.081,0.46,0.103c-0.16,0.231-0.315,0.467-0.456,0.712
	c-0.105,0.182-0.22,0.357-0.327,0.537c-0.277-0.062-0.547-0.145-0.814-0.249c-0.444-0.197-0.884-0.421-1.278-0.704
	C4.825,19.036,4.745,18.955,4.668,18.868z M23.346,26.406L23.346,26.406C23.346,26.406,23.346,26.405,23.346,26.406l-0.001-0.001
	C23.346,26.405,23.346,26.405,23.346,26.406z M29.306,20.41c-0.025,0.13-0.06,0.257-0.104,0.383
	c-0.091,0.187-0.204,0.364-0.326,0.532c-0.087,0.1-0.179,0.195-0.276,0.285c-0.354,0.248-0.742,0.435-1.136,0.612
	c-0.499,0.206-0.996,0.396-1.531,0.491c-0.581,0.062-1.157,0.045-1.737-0.018c-0.518-0.083-1.025-0.205-1.517-0.39
	c-0.318-0.147-0.616-0.32-0.909-0.518c-0.297-0.2-0.578-0.42-0.875-0.62c-0.141-0.095-0.275-0.192-0.428-0.269
	c-0.208-0.103-0.439-0.222-0.681-0.194c-0.255,0.028-0.436,0.095-0.632,0.269c-0.131,0.115-0.21,0.303-0.257,0.465
	c-0.04,0.135-0.049,0.283-0.048,0.424c0.004,0.301,0.055,0.612,0.139,0.899c0.059,0.208,0.158,0.406,0.249,0.602
	c0.073,0.158,0.143,0.319,0.222,0.475c0.162,0.315,0.329,0.63,0.531,0.921c0.267,0.388,0.602,0.693,0.974,0.978
	c0.305,0.234,0.643,0.432,1.023,0.517c0.322,0.072,0.651,0.091,0.979,0.125c0.114,0.021,0.226,0.049,0.336,0.084
	c-0.014,0.054-0.031,0.107-0.05,0.16c-0.055,0.114-0.117,0.225-0.186,0.331c-0.074,0.084-0.153,0.162-0.237,0.236
	c-0.182,0.129-0.375,0.238-0.577,0.333c-0.172,0.065-0.346,0.119-0.528,0.154c-0.377,0.034-0.75,0.023-1.128-0.014
	c-0.348-0.057-0.686-0.15-1.017-0.268c-0.446-0.202-0.877-0.442-1.277-0.726c-0.628-0.513-1.146-1.134-1.645-1.772
	c-0.219-0.286-0.429-0.578-0.612-0.89c-0.101-0.17-0.2-0.342-0.293-0.519c-0.17-0.317-0.331-0.637-0.707-0.748
	c-0.602-0.178-1.065,0.313-1.372,0.756c-0.194,0.281-0.305,0.618-0.453,0.924c-0.095,0.194-0.19,0.392-0.253,0.598
	c-0.051,0.174-0.081,0.354-0.113,0.531c-0.071,0.426-0.085,0.843-0.067,1.275c0.027,0.626,0.14,1.245,0.093,1.871
	c-0.07-0.038-0.138-0.08-0.203-0.126c-0.177-0.148-0.343-0.307-0.494-0.482c-0.102-0.146-0.188-0.295-0.265-0.455
	c-0.145-0.377-0.261-0.763-0.334-1.162c-0.07-0.691-0.048-1.387,0.035-2.077c0.068-0.464,0.142-0.929,0.205-1.395
	c0.03-0.218,0.038-0.398-0.079-0.596c-0.101-0.172-0.267-0.301-0.461-0.354c-0.146-0.041-0.297-0.022-0.44,0.024
	c-0.31-0.059-0.633,0.076-0.809,0.357c-0.259,0.417-0.514,0.841-0.803,1.236c-0.353,0.437-0.74,0.851-1.177,1.206
	c-0.129,0.098-0.26,0.192-0.399,0.274c-0.213,0.122-0.432,0.232-0.656,0.335c-0.479,0.179-0.966,0.302-1.47,0.382
	c-0.157,0.018-0.314,0.033-0.473,0.038c-0.185,0.005-0.368-0.011-0.55-0.032c-0.304-0.054-0.601-0.133-0.892-0.239
	c-0.127-0.063-0.248-0.133-0.367-0.213c-0.161-0.138-0.304-0.286-0.439-0.449c-0.043-0.063-0.082-0.128-0.116-0.197
	c-0.005-0.015-0.011-0.029-0.016-0.044c0.243,0.054,0.482,0.127,0.729,0.161c0.461,0.063,0.895,0.073,1.352-0.046
	c0.374-0.097,0.742-0.293,1.069-0.497c0.465-0.289,0.772-0.74,1.079-1.18c0.228-0.323,0.44-0.655,0.653-0.986
	c0.22-0.341,0.439-0.679,0.643-1.027c0.186-0.319,0.362-0.643,0.544-0.964c0.163-0.286,0.346-0.556,0.541-0.82
	c0.098-0.115,0.195-0.226,0.298-0.336c0.081-0.086,0.173-0.162,0.265-0.235c0.172-0.119,0.35-0.223,0.538-0.311
	c0.176-0.06,0.356-0.102,0.539-0.135c0.284-0.02,0.563-0.002,0.849,0.026c0.041,0.004,0.084-0.018,0.127-0.024
	c0.255,0.018,0.514-0.059,0.706-0.252c0.35-0.35,0.354-0.94,0-1.291c-0.383-0.379-0.909-0.562-1.348-0.867
	c-0.191-0.156-0.377-0.322-0.542-0.503c-0.202-0.221-0.386-0.455-0.572-0.689c-0.317-0.427-0.58-0.883-0.803-1.365
	c-0.286-0.718-0.494-1.454-0.627-2.216c-0.08-0.757-0.048-1.534,0.037-2.29c0.091-0.561,0.227-1.107,0.428-1.638
	c0.219-0.475,0.465-0.926,0.764-1.358c0.408-0.492,0.873-0.931,1.371-1.33c0.451-0.311,0.928-0.567,1.426-0.795
	c0.246-0.09,0.492-0.167,0.748-0.228c0.21-0.05,0.423-0.085,0.636-0.115c0.428-0.045,0.852-0.049,1.282-0.039
	c0.406,0.009,0.81,0.021,1.215,0.063c0.539,0.089,1.063,0.219,1.576,0.41c0.62,0.285,1.163,0.684,1.702,1.098
	c0.239,0.194,0.453,0.401,0.65,0.638c0.119,0.159,0.234,0.321,0.339,0.49c0.104,0.165,0.186,0.348,0.265,0.526
	c0.187,0.461,0.355,0.93,0.501,1.404c0.144,0.466,0.239,0.946,0.311,1.429c0.049,0.501,0.02,0.995-0.038,1.492
	c-0.106,0.707-0.286,1.413-0.549,2.079c-0.243,0.511-0.549,0.974-0.886,1.425c-0.451,0.565-0.946,1.089-1.508,1.543
	c-0.259,0.187-0.534,0.35-0.791,0.541c-0.184,0.141-0.327,0.277-0.39,0.509c-0.061,0.22-0.03,0.457,0.085,0.655
	c0.111,0.188,0.295,0.331,0.509,0.39c0.054,0.015,0.121,0.01,0.184,0.014c0.171,0.077,0.385,0.121,0.554,0.054
	c0.082-0.032,0.161-0.058,0.244-0.078c0.247-0.01,0.497,0.015,0.743,0.046c0.334,0.054,0.653,0.123,0.968,0.238
	c0.258,0.126,0.507,0.264,0.741,0.428c0.22,0.2,0.419,0.422,0.636,0.628c0.259,0.249,0.554,0.463,0.853,0.665
	c0.253,0.17,0.527,0.311,0.806,0.432c0.208,0.091,0.414,0.176,0.626,0.253c0.192,0.071,0.4,0.099,0.604,0.127
	c0.22,0.03,0.438,0.057,0.659,0.069c0.21,0.01,0.422-0.016,0.628-0.048c0.313-0.046,0.61-0.125,0.907-0.234
	c0.285-0.103,0.57-0.216,0.855-0.321c0.257-0.097,0.511-0.2,0.777-0.265c0.007,0,0.014,0,0.022,0
	c0.007,0.002,0.013,0.004,0.02,0.005c0.005,0.005,0.009,0.009,0.014,0.014c0.009,0.015,0.017,0.031,0.025,0.046
	c0.017,0.049,0.031,0.1,0.043,0.151C29.31,20.334,29.308,20.372,29.306,20.41z M17.82,11.018c-0.453,0-0.831-0.378-0.831-0.831
	c0-0.453,0.378-0.831,0.831-0.831c0.453,0,0.831,0.378,0.831,0.831C18.651,10.64,18.273,11.018,17.82,11.018z M14.398,9.997
	c0,0.42-0.35,0.77-0.77,0.77s-0.77-0.35-0.77-0.77s0.35-0.77,0.77-0.77S14.398,9.577,14.398,9.997z"/>
</svg>