<?xml version="1.0" encoding="utf-8"?>
<!-- Generator: Adobe Illustrator 21.1.0, SVG Export Plug-In . SVG Version: 6.00 Build 0)  -->
<svg version="1.1" id="designs" xmlns="http://www.w3.org/2000/svg" xmlns:xlink="http://www.w3.org/1999/xlink" x="0px" y="0px"
	 width="32px" height="32px" viewBox="0 0 32 32" style="enable-background:new 0 0 32 32;" xml:space="preserve">
<style type="text/css">
	.sketchy_een{fill:#111918;}
</style>
<path class="sketchy_een" d="M23.141,5.299c-0.001-0.001-0.002-0.003-0.003-0.004c-0.007-0.009-0.014-0.018-0.021-0.027
	C23.125,5.278,23.133,5.289,23.141,5.299z M29.924,14.226c0.01,0.239-0.01,0.468-0.046,0.705c-0.025,0.164-0.05,0.333-0.106,0.489
	c-0.185,0.506-0.454,1.01-0.857,1.378c-0.268,0.242-0.579,0.393-0.911,0.525c-0.181,0.071-0.37,0.129-0.562,0.166
	c-0.452,0.089-0.901,0.085-1.361,0.079c-0.244-0.004-0.487,0.007-0.729,0.012c0.254,0.369,0.511,0.736,0.739,1.124
	c0.179,0.308,0.339,0.624,0.474,0.955c0.1,0.25,0.15,0.526,0.196,0.791c0.058,0.32,0.096,0.645,0.129,0.966
	c0.029,0.281,0.058,0.566,0.052,0.847c-0.01,0.406-0.029,0.833-0.152,1.222c-0.119,0.381-0.269,0.766-0.514,1.086
	c-0.202,0.266-0.385,0.506-0.664,0.697c-0.139,0.096-0.283,0.175-0.437,0.247c-0.383,0.175-0.799,0.308-1.219,0.368
	c-0.452,0.063-0.905,0.115-1.363,0.117c-0.42,0.002-0.862-0.037-1.265-0.156c-0.422-0.125-0.841-0.306-1.213-0.543
	c-0.229-0.144-0.454-0.304-0.658-0.481c-0.15-0.127-0.285-0.264-0.406-0.42c-0.11-0.139-0.244-0.292-0.323-0.452
	c-0.194-0.389-0.298-0.747-0.337-1.18c-0.015-0.177-0.021-0.356-0.019-0.535c0.004-0.354,0.021-0.712,0.054-1.065
	c0.04-0.433,0.114-0.864,0.185-1.294c0.062-0.366,0.144-0.726,0.256-1.08c0.116-0.373,0.244-0.743,0.387-1.108
	c-0.59-0.006-1.18-0.015-1.77-0.015c-0.778,0.002-1.552-0.037-2.327-0.056c-1.669-0.041-3.34-0.025-5.011-0.044
	c-1.684-0.019-3.367,0.085-5.049,0.145c-0.057,0.002-0.107-0.021-0.161-0.031c-0.131,0.021-0.266,0.021-0.401-0.016
	c-0.837-0.221-1.486-0.851-1.914-1.586c-0.191-0.329-0.302-0.699-0.391-1.066c-0.083-0.343-0.15-0.707-0.156-1.059
	c-0.006-0.362,0.04-0.739,0.179-1.074c0.062-0.144,0.117-0.287,0.198-0.422c0.098-0.166,0.243-0.302,0.389-0.422
	c0.233-0.191,0.481-0.314,0.764-0.414c0.373-0.133,0.785-0.15,1.176-0.106c0.099,0.012,0.198,0.025,0.295,0.043
	c0.03-0.137,0.059-0.275,0.098-0.409c0.1-0.352,0.273-0.691,0.429-1.022c0.133-0.279,0.289-0.539,0.47-0.789
	c0.219-0.3,0.445-0.62,0.718-0.876C6.995,8.274,7.218,8.087,7.472,7.96c0.206-0.104,0.416-0.2,0.631-0.281
	c0.362-0.137,0.726-0.225,1.113-0.264c0.07-0.007,0.14-0.01,0.21-0.01c0.38,0,0.761,0.097,1.11,0.243
	c0.024,0.01,0.048,0.021,0.072,0.031c0.03-0.153,0.067-0.305,0.107-0.455c0.117-0.439,0.281-0.851,0.476-1.263
	c0.348-0.743,0.857-1.423,1.482-1.958c0.375-0.32,0.764-0.632,1.161-0.924c0.364-0.271,0.778-0.464,1.194-0.643
	c0.237-0.104,0.499-0.237,0.755-0.293c0.271-0.058,0.545-0.092,0.82-0.117C16.795,2.009,16.991,2,17.187,2
	c0.443,0,0.89,0.047,1.313,0.153c0.437,0.11,0.864,0.245,1.286,0.4c0.306,0.112,0.618,0.229,0.887,0.418
	c0.216,0.148,0.425,0.308,0.63,0.474c0.676,0.551,1.291,1.169,1.834,1.85c0.186,0.241,0.378,0.481,0.543,0.737
	c0.139,0.22,0.26,0.445,0.375,0.676c0.237,0.476,0.45,0.961,0.601,1.471c0.221,0.759,0.379,1.568,0.379,2.368
	c0.224-0.036,0.447-0.075,0.673-0.102c0.145-0.017,0.288-0.031,0.434-0.031c0.017,0,0.034,0,0.051,0
	c0.193,0.006,0.383,0.041,0.572,0.069c0.398,0.06,0.843,0.2,1.192,0.393c0.373,0.206,0.762,0.445,1.032,0.781
	c0.16,0.198,0.31,0.395,0.422,0.622c0.106,0.216,0.206,0.437,0.285,0.662c0.071,0.202,0.114,0.414,0.146,0.625
	C29.874,13.785,29.916,14.004,29.924,14.226z M25.31,20.9c-0.045-0.294-0.106-0.583-0.208-0.861
	c-0.219-0.461-0.473-0.899-0.762-1.32c-0.29-0.42-0.575-0.842-0.879-1.253c-0.284-0.354-0.594-0.689-0.847-1.069
	c-0.138-0.204-0.272-0.411-0.409-0.615c-0.456,0.653-0.871,1.333-1.194,2.061c-0.212,0.529-0.408,1.069-0.563,1.617
	c-0.145,0.518-0.25,1.05-0.334,1.583c-0.068,0.569-0.114,1.151-0.067,1.724c0.023,0.108,0.052,0.212,0.088,0.316
	c0.054,0.1,0.114,0.193,0.179,0.284c0.099,0.113,0.203,0.214,0.316,0.311c0.264,0.189,0.538,0.351,0.832,0.487
	c0.202,0.074,0.401,0.131,0.61,0.17c0.482,0.044,0.961,0.034,1.443-0.018c0.289-0.048,0.571-0.122,0.846-0.223
	c0.12-0.057,0.235-0.119,0.347-0.191c0.095-0.086,0.179-0.183,0.26-0.283c0.091-0.134,0.168-0.272,0.237-0.418
	c0.069-0.186,0.119-0.37,0.153-0.565C25.412,22.056,25.378,21.479,25.31,20.9z M24.13,15.912c-0.03-0.039-0.059-0.077-0.089-0.115
	c0.026,0.033,0.052,0.066,0.077,0.1C24.122,15.901,24.126,15.906,24.13,15.912z M28.271,14.5c0.015-0.213,0.009-0.423-0.011-0.635
	c-0.035-0.212-0.085-0.416-0.159-0.618c-0.077-0.165-0.16-0.325-0.261-0.476c-0.071-0.082-0.146-0.158-0.227-0.23
	c-0.157-0.109-0.322-0.206-0.494-0.29c-0.233-0.077-0.469-0.135-0.71-0.179c-0.072-0.008-0.143-0.014-0.216-0.015
	c-0.122-0.003-0.241,0.006-0.361,0.02c-0.584,0.098-1.161,0.243-1.739,0.36c-0.231,0.044-0.449,0.035-0.656-0.087
	c-0.189-0.112-0.331-0.297-0.391-0.508c-0.058-0.212-0.021-0.453,0.087-0.652c0.023-0.495,0.011-0.998-0.039-1.49
	c-0.105-0.655-0.289-1.288-0.537-1.903c-0.117-0.269-0.24-0.537-0.386-0.791C22.02,6.742,21.85,6.492,21.67,6.249
	c-0.494-0.607-1.045-1.16-1.651-1.657c-0.194-0.145-0.391-0.278-0.61-0.386c-0.514-0.204-1.047-0.363-1.592-0.459
	c-0.422-0.037-0.834-0.023-1.253,0.023c-0.295,0.055-0.572,0.14-0.852,0.247c-0.453,0.207-0.869,0.456-1.268,0.749
	c-0.437,0.349-0.852,0.71-1.214,1.137c-0.272,0.377-0.493,0.776-0.685,1.199c-0.116,0.318-0.2,0.643-0.258,0.977
	c-0.018,0.239-0.004,0.479,0.003,0.718c0.01,0.372-0.244,0.689-0.577,0.815c-0.328,0.3-0.889,0.323-1.199-0.018
	c-0.051-0.055-0.101-0.106-0.155-0.155c-0.122-0.077-0.249-0.143-0.38-0.205c-0.145-0.054-0.291-0.098-0.441-0.13
	c-0.078-0.002-0.155,0-0.232,0.006C9.102,9.155,8.907,9.216,8.712,9.289C8.527,9.374,8.346,9.471,8.176,9.585
	C8.023,9.721,7.888,9.87,7.758,10.029c-0.323,0.442-0.591,0.908-0.817,1.406c-0.117,0.327-0.187,0.668-0.268,1.006
	c-0.042,0.177-0.102,0.368-0.212,0.514c-0.114,0.15-0.191,0.25-0.356,0.346c-0.085,0.039-0.171,0.073-0.258,0.11
	c-0.133,0.054-0.387,0.038-0.52,0.006c-0.094-0.017-0.183-0.052-0.268-0.1c-0.027-0.012-0.055-0.025-0.082-0.038
	C4.87,13.24,4.762,13.209,4.65,13.184c-0.101-0.007-0.2-0.009-0.301-0.003c-0.058,0.013-0.116,0.028-0.173,0.045
	c-0.053,0.027-0.105,0.057-0.156,0.089c-0.016,0.016-0.032,0.033-0.048,0.049c-0.024,0.073-0.044,0.147-0.06,0.222
	c-0.006,0.135-0.003,0.268,0.009,0.402c0.061,0.354,0.149,0.699,0.271,1.038c0.069,0.13,0.148,0.254,0.233,0.374
	c0.074,0.085,0.151,0.166,0.233,0.243c0.076,0.05,0.154,0.097,0.234,0.14c0.049,0.016,0.099,0.03,0.151,0.043
	c0.096,0.026,0.177,0.078,0.257,0.13c0.808-0.015,1.616-0.009,2.424-0.027c0.404-0.009,0.808-0.013,1.212-0.013
	s0.807,0.004,1.21,0.013c1.671,0.039,3.342,0.027,5.011,0.05c0.776,0.011,1.552,0.006,2.327,0.002
	c0.774-0.004,1.548-0.029,2.322-0.023c0.099,0.001,0.191,0.027,0.28,0.059c0.083-0.137,0.16-0.277,0.244-0.413
	c0.233-0.372,0.47-0.739,0.726-1.095c0.135-0.185,0.277-0.323,0.504-0.387c0.13-0.036,0.267-0.039,0.398-0.011
	c0.119-0.073,0.256-0.11,0.394-0.11c0.19,0,0.38,0.071,0.521,0.214c0.258,0.262,0.474,0.576,0.691,0.872
	c0.201,0.276,0.377,0.569,0.582,0.844c0.067,0.083,0.132,0.167,0.2,0.25c0.145-0.127,0.334-0.21,0.542-0.222
	c0.641-0.039,1.289,0.009,1.931-0.051c0.201-0.037,0.394-0.092,0.586-0.162c0.126-0.06,0.246-0.128,0.361-0.206
	c0.042-0.041,0.083-0.083,0.121-0.127c0.097-0.138,0.184-0.281,0.26-0.431C28.201,14.824,28.242,14.664,28.271,14.5z M16.562,25.781
	c0.015,0.239,0.019,0.47,0.004,0.708c-0.019,0.252-0.046,0.533-0.117,0.78c-0.121,0.426-0.298,0.845-0.566,1.199
	c-0.139,0.183-0.273,0.385-0.451,0.531c-0.193,0.16-0.387,0.306-0.614,0.41c-0.227,0.104-0.456,0.202-0.693,0.283
	c-0.449,0.156-0.899,0.285-1.376,0.304c-0.451,0.019-0.911-0.075-1.34-0.206c-0.298-0.09-0.606-0.192-0.882-0.343
	c-0.221-0.119-0.418-0.268-0.616-0.425c-0.252-0.2-0.497-0.418-0.703-0.666c-0.177-0.214-0.345-0.456-0.466-0.707
	c-0.117-0.243-0.252-0.502-0.306-0.77c-0.096-0.487-0.11-0.976-0.046-1.467c0.06-0.445,0.144-0.861,0.312-1.276
	c0.339-0.834,0.732-1.638,1.188-2.41c0.212-0.356,0.454-0.691,0.676-1.04c0.244-0.387,0.462-0.787,0.687-1.186
	c0.064-0.114,0.154-0.207,0.258-0.276c0.066-0.134,0.171-0.248,0.3-0.323c0.119-0.069,0.254-0.105,0.389-0.105
	c0.068,0,0.137,0.009,0.204,0.028c0.212,0.058,0.331,0.187,0.46,0.352c0.15,0.198,0.277,0.41,0.408,0.622
	c0.111,0.183,0.231,0.356,0.356,0.526c0.357,0.452,0.729,0.89,1.061,1.362c0.481,0.681,0.92,1.39,1.294,2.137
	C16.289,24.44,16.52,25.092,16.562,25.781z M14.822,26.492c0.022-0.29,0.025-0.573-0.001-0.862c-0.064-0.329-0.17-0.636-0.292-0.946
	c-0.401-0.852-0.887-1.67-1.43-2.441c-0.262-0.372-0.549-0.728-0.81-1.099c-0.003-0.003-0.005-0.007-0.007-0.01
	c-0.048,0.078-0.097,0.155-0.147,0.232c-0.196,0.302-0.41,0.595-0.595,0.905c-0.352,0.585-0.665,1.181-0.941,1.805
	c-0.107,0.262-0.207,0.525-0.287,0.798c-0.077,0.262-0.131,0.531-0.175,0.801c-0.025,0.241-0.027,0.482-0.006,0.723
	c0.021,0.093,0.049,0.183,0.081,0.272c0.087,0.183,0.186,0.357,0.3,0.525c0.148,0.163,0.31,0.308,0.479,0.447
	c0.141,0.1,0.285,0.191,0.44,0.268c0.301,0.114,0.615,0.199,0.932,0.256c0.174,0.017,0.346,0.022,0.52,0.011
	c0.36-0.068,0.71-0.171,1.054-0.3c0.09-0.043,0.178-0.09,0.262-0.144c0.082-0.076,0.157-0.157,0.228-0.243
	c0.092-0.134,0.175-0.271,0.248-0.416C14.743,26.884,14.787,26.69,14.822,26.492z"/>
</svg>