<?xml version="1.0" encoding="utf-8"?>
<!-- Generator: Adobe Illustrator 21.1.0, SVG Export Plug-In . SVG Version: 6.00 Build 0)  -->
<svg version="1.1" id="designs" xmlns="http://www.w3.org/2000/svg" xmlns:xlink="http://www.w3.org/1999/xlink" x="0px" y="0px"
	 width="32px" height="32px" viewBox="0 0 32 32" style="enable-background:new 0 0 32 32;" xml:space="preserve">
<style type="text/css">
	.sketchy_een{fill:#111918;}
</style>
<path class="sketchy_een" d="M28.735,10.658c-0.066-0.374-0.161-0.759-0.397-1.065c-0.12-0.155-0.239-0.3-0.412-0.402
	c-0.144-0.085-0.294-0.146-0.452-0.207c-0.079-0.03-0.196-0.04-0.305-0.04c-0.051,0-0.1,0.002-0.141,0.006
	c-0.102,0.009-0.209,0.028-0.313,0.043c-0.192,0.03-0.376,0.083-0.556,0.15c-0.49,0.18-0.924,0.431-1.319,0.772
	c-0.325,0.281-0.607,0.592-0.888,0.917c-0.252,0.293-0.5,0.589-0.75,0.883c-0.094-0.138-0.185-0.277-0.285-0.412
	c-0.277-0.37-0.533-0.755-0.808-1.127c-0.543-0.729-1.091-1.463-1.757-2.085c-0.725-0.677-1.581-1.176-2.419-1.693
	c-0.004-0.002-0.009-0.005-0.013-0.008c0.371-0.2,0.689-0.471,0.945-0.809c0.313-0.41,0.512-0.873,0.539-1.393
	c0.017-0.383-0.114-0.761-0.304-1.087c-0.188-0.327-0.465-0.571-0.778-0.774c-0.359-0.231-0.812-0.308-1.23-0.325
	C17.065,2,17.039,2,17.013,2c-0.284,0-0.565,0.063-0.838,0.136c-0.704,0.186-1.334,0.594-1.858,1.091
	c-0.519,0.493-1.018,1.011-1.521,1.521c-0.003,0-0.007,0-0.01,0c-0.113,0-0.227,0.003-0.342,0.01
	c-0.457,0.026-0.917,0.076-1.374,0.121c-0.518,0.053-1.019,0.12-1.518,0.275C9.053,5.309,8.586,5.583,8.138,5.844
	C7.685,6.109,7.267,6.426,6.852,6.747c-0.376,0.29-0.715,0.617-1.01,0.986c-0.319,0.402-0.586,0.826-0.85,1.264
	c-0.245,0.406-0.52,0.801-0.732,1.226c-0.23,0.459-0.45,0.93-0.602,1.419c-0.29,0.928-0.355,1.907-0.419,2.872
	c-0.061,0.896-0.004,1.805,0.091,2.694c0.053,0.494,0.137,1.008,0.296,1.479c0.169,0.506,0.376,0.996,0.594,1.482
	c0.182,0.404,0.38,0.801,0.607,1.18c0.268,0.444,0.594,0.847,0.945,1.228c0.296,0.323,0.638,0.617,0.974,0.896
	c0.41,0.342,0.844,0.657,1.273,0.976c0.345,0.254,0.696,0.486,1.068,0.698c0.45,0.254,0.93,0.45,1.414,0.634
	c0.292,0.11,0.596,0.193,0.898,0.279c-0.111,0.342-0.216,0.686-0.297,1.038c-0.046,0.205-0.101,0.417-0.112,0.626
	c-0.015,0.26,0.017,0.518,0.07,0.772c0.023,0.11,0.051,0.216,0.087,0.323c0.04,0.099,0.082,0.197,0.129,0.294
	c0.066,0.089,0.135,0.176,0.201,0.264c0.146,0.112,0.281,0.226,0.446,0.308c0.148,0.074,0.305,0.133,0.463,0.184
	c0.269,0.089,0.575,0.116,0.856,0.127c0.18,0.008,0.355,0.008,0.535-0.004c0.423-0.024,0.837-0.189,1.163-0.457
	c0.167-0.137,0.292-0.277,0.425-0.45c0.121-0.16,0.19-0.332,0.266-0.517c0.125-0.303,0.144-0.664,0.12-0.986
	c-0.021-0.289-0.085-0.573-0.15-0.856c-0.029-0.132-0.079-0.258-0.118-0.387c0.033-0.006,0.067-0.008,0.1-0.015
	c0.581-0.124,1.141-0.308,1.691-0.524c0.332-0.129,0.655-0.268,0.96-0.448c0.275-0.161,0.535-0.351,0.799-0.528
	c0.298-0.197,0.586-0.402,0.862-0.628c0.251-0.208,0.5-0.419,0.755-0.623c0.307-0.235,0.608-0.471,0.881-0.75
	c0.309-0.319,0.603-0.658,0.846-1.03c0.204-0.309,0.379-0.637,0.549-0.968c0.238,0.359,0.479,0.717,0.759,1.046
	c0.617,0.721,1.408,1.353,2.359,1.535c0.292,0.057,0.531,0.04,0.826-0.007c0.156-0.025,0.309-0.122,0.448-0.194
	c0.146-0.074,0.271-0.199,0.391-0.307c0.45-0.412,0.575-1.053,0.645-1.626c0.03-0.258,0.004-0.523-0.023-0.782
	c-0.028-0.285-0.066-0.565-0.118-0.848c-0.078-0.435-0.211-0.864-0.334-1.289c-0.057-0.199-0.121-0.396-0.188-0.592
	c-0.127-0.381-0.264-0.776-0.541-1.076c-0.158-0.169-0.332-0.319-0.492-0.486c-0.037-0.039-0.073-0.08-0.108-0.12
	c0.138-0.131,0.271-0.267,0.397-0.412c0.175-0.201,0.33-0.419,0.49-0.634c0.125-0.169,0.25-0.342,0.359-0.522
	c0.268-0.44,0.488-0.888,0.679-1.368c0.184-0.463,0.241-0.983,0.29-1.473C28.8,11.333,28.794,10.992,28.735,10.658z M27.054,10.679
	c0.002,0.003,0.004,0.005,0.006,0.008C27.058,10.684,27.056,10.682,27.054,10.679L27.054,10.679z M27.045,10.667L27.045,10.667
	L27.045,10.667L27.045,10.667L27.045,10.667z M15.744,4.18c0.194-0.138,0.394-0.257,0.61-0.364c0.176-0.068,0.355-0.127,0.54-0.169
	c0.115-0.008,0.229-0.009,0.344-0.003c0.071,0.015,0.14,0.033,0.209,0.055c0.051,0.027,0.101,0.056,0.15,0.088
	c0.029,0.026,0.057,0.054,0.084,0.083c0.033,0.051,0.064,0.104,0.094,0.158c0.008,0.029,0.016,0.059,0.023,0.089
	c0.003,0.037,0.004,0.074,0.005,0.112c-0.012,0.053-0.027,0.105-0.045,0.158C17.7,4.504,17.635,4.616,17.56,4.728
	c-0.076,0.087-0.154,0.168-0.24,0.247c-0.08,0.053-0.161,0.099-0.246,0.141c-0.219,0.076-0.443,0.125-0.671,0.164
	c-0.11,0.009-0.22,0.016-0.331,0.019c-0.069,0.002-0.131,0.025-0.195,0.043c-0.174-0.068-0.349-0.135-0.53-0.192
	c-0.148-0.046-0.299-0.08-0.45-0.116c0.014-0.015,0.028-0.029,0.042-0.044C15.203,4.713,15.462,4.436,15.744,4.18z M12.685,28.127
	c-0.017-0.02-0.033-0.041-0.048-0.064c0.017,0.022,0.034,0.043,0.05,0.065C12.687,28.128,12.686,28.127,12.685,28.127z
	 M12.765,28.202c0,0-0.002-0.006-0.003-0.009c0.02,0.015,0.039,0.03,0.059,0.046C12.802,28.228,12.783,28.216,12.765,28.202z
	 M13.647,28.298c0.016-0.007,0.033-0.014,0.049-0.021c0.001,0,0.003,0,0.004,0C13.682,28.285,13.665,28.292,13.647,28.298z
	 M13.716,28.27c-0.001,0-0.002,0-0.003,0c0.009-0.004,0.018-0.008,0.027-0.012C13.732,28.263,13.724,28.266,13.716,28.27z
	 M13.966,28.062c-0.003,0.005-0.006,0.011-0.009,0.016c-0.047,0.05-0.095,0.097-0.146,0.142c-0.012,0.007-0.025,0.014-0.037,0.021
	c-0.033,0.012-0.067,0.021-0.101,0.03c-0.193,0.009-0.384,0.003-0.577-0.015c-0.112-0.021-0.22-0.049-0.327-0.085
	c-0.005-0.002-0.009-0.005-0.014-0.007c-0.019-0.073-0.035-0.146-0.05-0.222c-0.003-0.055-0.004-0.109-0.004-0.167
	c0.087-0.455,0.241-0.897,0.398-1.335c0.065,0.009,0.128,0.022,0.193,0.03c0.151,0.018,0.3,0.029,0.449,0.037
	c0.119,0.33,0.217,0.659,0.276,1.005c0.009,0.118,0.012,0.233,0.005,0.35C14.007,27.931,13.988,27.997,13.966,28.062z
	 M26.518,21.625L26.518,21.625c0.037-0.016,0.074-0.031,0.111-0.046C26.594,21.596,26.556,21.611,26.518,21.625z M27.094,11.815
	c-0.062,0.352-0.154,0.688-0.281,1.021c-0.218,0.447-0.479,0.861-0.773,1.263c-0.205,0.258-0.416,0.502-0.665,0.719
	c-0.106,0.075-0.215,0.143-0.329,0.206c-0.423,0.233-0.56,0.803-0.319,1.213c0.002,0.004,0.007,0.006,0.009,0.01
	c-0.03,0.261,0.039,0.531,0.237,0.724c0.156,0.15,0.296,0.313,0.448,0.469c0.157,0.162,0.337,0.295,0.493,0.458
	c0.032,0.055,0.061,0.111,0.088,0.168c0.266,0.698,0.472,1.427,0.603,2.161c0.033,0.314,0.061,0.631,0.04,0.948
	c-0.025,0.129-0.059,0.256-0.102,0.38c-0.008,0.015-0.017,0.03-0.026,0.046c-0.007,0.007-0.014,0.014-0.022,0.021
	c-0.081-0.022-0.161-0.05-0.24-0.08c-0.225-0.111-0.432-0.248-0.636-0.394c-0.338-0.283-0.637-0.611-0.915-0.953
	c-0.37-0.5-0.726-1.021-0.982-1.587c-0.093-0.207-0.342-0.366-0.55-0.423c-0.239-0.066-0.497-0.032-0.71,0.091
	c-0.119,0.07-0.213,0.17-0.29,0.283c-0.093,0.069-0.173,0.158-0.231,0.265c-0.38,0.703-0.789,1.401-1.251,2.055
	c-0.627,0.753-1.445,1.324-2.195,1.945c-0.239,0.174-0.486,0.334-0.737,0.493c-0.298,0.188-0.592,0.385-0.911,0.535
	c-0.785,0.308-1.594,0.545-2.426,0.682c-0.161,0.015-0.32,0.027-0.482,0.03c-0.21,0.005-0.423-0.021-0.632-0.044
	c-0.444-0.071-0.874-0.179-1.313-0.292c-0.478-0.125-0.941-0.262-1.401-0.441c-0.38-0.174-0.755-0.367-1.108-0.593
	c-0.4-0.26-0.782-0.548-1.164-0.832c-0.57-0.451-1.104-0.936-1.578-1.487c-0.475-0.654-0.834-1.367-1.163-2.107
	c-0.106-0.262-0.204-0.526-0.288-0.796c-0.092-0.304-0.152-0.62-0.204-0.936c-0.077-0.637-0.12-1.277-0.139-1.918
	c-0.021-0.657,0.037-1.326,0.113-1.98c0.087-0.541,0.209-1.068,0.407-1.58c0.203-0.451,0.433-0.882,0.692-1.306
	c0.276-0.452,0.539-0.908,0.851-1.336C7.157,8.74,7.303,8.572,7.467,8.415C7.609,8.28,7.762,8.156,7.916,8.033
	c0.597-0.437,1.23-0.817,1.904-1.122c0.29-0.099,0.58-0.173,0.88-0.223c0.474-0.054,0.948-0.093,1.426-0.122
	c0.478-0.029,0.943-0.019,1.416,0.033c0.645,0.103,1.274,0.255,1.886,0.487c0.574,0.255,1.13,0.549,1.669,0.871
	c0.578,0.345,1.154,0.697,1.693,1.101c0.724,0.602,1.333,1.319,1.915,2.055c0.573,0.759,1.133,1.532,1.559,2.385
	c0.122,0.244,0.372,0.372,0.635,0.403c0.102,0.04,0.21,0.064,0.321,0.064c0.214,0,0.491-0.087,0.632-0.262
	c0.4-0.501,0.799-1.004,1.209-1.497c0.329-0.396,0.67-0.773,1.066-1.1c0.185-0.126,0.378-0.231,0.581-0.327
	c0.105-0.037,0.211-0.068,0.318-0.093c0.04,0.122,0.072,0.246,0.095,0.372C27.138,11.311,27.119,11.563,27.094,11.815z M10.072,13.1
	c0,0.45-0.376,0.826-0.826,0.826S8.421,13.55,8.421,13.1s0.376-0.826,0.826-0.826S10.072,12.65,10.072,13.1z M19.934,18
	c0.061,0.22,0.015,0.414-0.08,0.613c-0.383,0.808-0.854,1.592-1.518,2.201c-0.359,0.328-0.723,0.651-1.122,0.93
	c-0.347,0.242-0.725,0.425-1.111,0.592c-0.034,0.014-0.069,0.029-0.103,0.043c-0.4,0.171-0.797,0.35-1.195,0.524
	c-0.207,0.089-0.391,0.142-0.619,0.08c-0.201-0.055-0.374-0.19-0.478-0.368c-0.11-0.186-0.139-0.412-0.082-0.619
	c0.049-0.178,0.188-0.402,0.368-0.478c0.228-0.097,0.454-0.194,0.681-0.291c-0.063,0.026-0.127,0.055-0.19,0.082
	c0.327-0.138,0.658-0.273,0.987-0.409c0.349-0.16,0.673-0.349,0.985-0.572c0.452-0.37,0.888-0.771,1.261-1.221
	c0.295-0.408,0.549-0.84,0.759-1.298c0.082-0.179,0.294-0.317,0.476-0.366c0.069-0.02,0.14-0.029,0.211-0.029
	c0.14,0,0.279,0.037,0.401,0.108C19.746,17.629,19.879,17.801,19.934,18z M15.987,22.386c0.039-0.017,0.078-0.033,0.117-0.05
	c0.024-0.01,0.048-0.02,0.071-0.03C16.112,22.333,16.049,22.359,15.987,22.386z"/>
</svg>