<?xml version="1.0" encoding="utf-8"?>
<!-- Generator: Adobe Illustrator 21.1.0, SVG Export Plug-In . SVG Version: 6.00 Build 0)  -->
<svg version="1.1" id="designs" xmlns="http://www.w3.org/2000/svg" xmlns:xlink="http://www.w3.org/1999/xlink" x="0px" y="0px"
	 width="32px" height="32px" viewBox="0 0 32 32" style="enable-background:new 0 0 32 32;" xml:space="preserve">
<style type="text/css">
	.sketchy_een{fill:#111918;}
</style>
<path class="sketchy_een" d="M26.786,9.131c0.14-0.039,0.261-0.109,0.364-0.212c0.059-0.059,0.098-0.131,0.136-0.204
	c0.392-0.077,0.754-0.42,0.719-0.839c-0.099-1.233-0.053-2.473-0.047-3.71c0.002-0.448-0.354-0.814-0.79-0.864
	c-0.14-0.102-0.305-0.174-0.491-0.187c-0.238-0.013-0.477-0.01-0.715-0.008c-0.144,0.002-0.29,0.004-0.434,0
	c-0.409-0.008-0.82-0.01-1.231-0.023c-0.793-0.025-1.584-0.053-2.375-0.068C21.285,3.004,20.647,3,20.01,3
	c-1.021,0-2.041,0.011-3.062,0.022C15.323,3.04,13.7,3.048,12.077,3.063C10.452,3.077,8.83,3.089,7.205,3.067
	c-0.809-0.01-1.617-0.035-2.426-0.054C4.35,3.001,3.992,3.377,3.992,3.8c0,0.079,0.024,0.15,0.046,0.222
	C4.019,4.09,3.995,4.156,3.996,4.229C4.012,5.552,4.07,6.873,4.031,8.196C4.023,8.459,4.165,8.687,4.366,8.84
	c0.146,0.228,0.386,0.394,0.668,0.383c0.126-0.005,0.252-0.01,0.377-0.015c0.094,0.351,0.174,0.706,0.24,1.064
	c-0.142,0.071-0.265,0.178-0.34,0.327C4.989,11.233,4.668,11.865,4.35,12.5c-0.103,0.208-0.148,0.421-0.084,0.653h0
	c-0.08,0.289-0.033,0.615,0.2,0.82c0.113,0.097,0.228,0.191,0.351,0.273c0.137,0.092,0.325,0.128,0.502,0.15
	c0.017,0.9,0.039,1.799,0.09,2.698c0.047,0.854,0.117,1.707,0.181,2.558c0.129,1.691,0.242,3.382,0.378,5.073
	c0.039,0.464,0.08,0.929,0.125,1.393c0.047,0.485,0.074,0.972,0.121,1.457c0.015,0.157,0.061,0.293,0.133,0.419
	c-0.001,0.015-0.009,0.029-0.009,0.044c0,0.46,0.38,0.834,0.838,0.838c0.929,0.01,1.859-0.006,2.788-0.014
	c0.844-0.008,1.685,0,2.527,0.002c1.724,0.004,3.447,0.021,5.171,0.076c1.21,0.039,2.42,0.051,3.63,0.053
	c0.557,0,1.112,0,1.67,0.002c0.557,0.002,1.12,0.02,1.676-0.018c0.409-0.027,0.744-0.291,0.837-0.679
	c0.096-0.138,0.165-0.296,0.169-0.474c0.043-1.658,0.088-3.316,0.078-4.974c-0.012-1.724,0.002-3.448,0.021-5.173
	c0.01-0.83,0.029-1.658,0.036-2.488c0.113,0.027,0.229,0.049,0.344,0.065c0.134,0.018,0.269,0.039,0.405,0.049
	c0.3,0.017,0.569-0.125,0.783-0.318c0.214-0.191,0.31-0.532,0.273-0.809c-0.027-0.214-0.068-0.399-0.175-0.592
	c-0.047-0.084-0.09-0.16-0.14-0.24c-0.065-0.102-0.122-0.205-0.182-0.307c0.025-0.175,0.009-0.354-0.095-0.506
	c-0.267-0.388-0.507-0.795-0.773-1.183c-0.153-0.225-0.314-0.443-0.485-0.654c0.033-0.092,0.058-0.187,0.054-0.289
	c-0.018-0.396-0.058-0.791-0.105-1.186C26.049,9.213,26.417,9.189,26.786,9.131z M7.534,4.583c0.388-0.002,0.775-0.002,1.163-0.002
	C9.085,4.583,9.472,4.583,9.86,4.579c1.664-0.012,3.328-0.027,4.992-0.025c1.635,0.002,3.269,0.041,4.904,0.058
	c1.602,0.016,3.201,0.062,4.803,0.131c0.545,0.022,1.093,0.022,1.64,0.037c0.007,0.481,0.016,0.962,0.014,1.442
	c-0.003,0.433,0.008,0.871,0.035,1.305c-0.622,0.045-1.244,0.052-1.868,0.061c-0.772,0.01-1.543,0.012-2.317,0.018
	c-1.602,0.012-3.205,0.021-4.806,0.025c-0.814,0.002-1.629,0.016-2.441,0.01c-0.832-0.006-1.662-0.027-2.492-0.035
	C10.699,7.59,9.076,7.564,7.453,7.561c-0.589-0.001-1.177,0.015-1.766,0.03c0.005-1.001-0.008-2.004-0.016-3.006
	C6.292,4.585,6.912,4.588,7.534,4.583z M17.705,12.729c-0.329,0.043-0.655,0.092-0.974,0.183c-0.296,0.085-0.576,0.21-0.858,0.333
	c-0.373,0.144-0.749,0.236-1.141,0.304c-0.074,0.008-0.148,0.013-0.222,0.015c-0.148-0.039-0.29-0.097-0.435-0.153
	c-0.156-0.061-0.312-0.119-0.468-0.177c-0.195-0.074-0.39-0.148-0.586-0.218c-0.177-0.062-0.362-0.095-0.547-0.115
	c-0.238-0.023-0.47,0.014-0.703,0.06c-0.79,0.159-1.54,0.486-2.334,0.623c-0.005,0-0.011,0-0.016,0
	c-0.004-0.001-0.009-0.003-0.013-0.004c-0.27-0.129-0.527-0.282-0.781-0.444c-0.066-0.041-0.131-0.086-0.197-0.129
	c-0.207-0.138-0.423-0.238-0.657-0.322c-0.315-0.113-0.651-0.042-0.971,0.013c-0.221,0.023-0.446,0.04-0.672,0.049
	c0.19-0.358,0.379-0.716,0.568-1.076c0.177,0.025,0.358,0.033,0.532,0.037c0.419,0.012,0.84,0.002,1.259,0
	c0.865-0.006,1.73,0.002,2.593-0.015c0.836-0.018,1.67-0.031,2.504-0.035c0.401,0,0.805,0.002,1.206,0.006
	c0.452,0.002,0.904,0.004,1.358,0.002c1.498-0.006,2.998-0.002,4.499-0.027c0.682-0.012,1.366-0.049,2.05-0.054
	c0.497-0.004,0.994-0.021,1.491-0.035c0.207,0.222,0.412,0.443,0.603,0.68c0.112,0.151,0.221,0.302,0.326,0.457
	c0.091,0.133,0.179,0.266,0.266,0.401c-0.271-0.077-0.544-0.145-0.819-0.205c-0.269-0.058-0.54-0.107-0.814-0.138
	c-0.392-0.047-0.775,0.015-1.144,0.15c-0.383,0.14-0.737,0.331-1.103,0.5c-0.245,0.09-0.491,0.164-0.746,0.213
	c-0.049,0.003-0.098,0.005-0.146,0.005c-0.285-0.077-0.562-0.198-0.834-0.314c0.018,0.008,0.036,0.015,0.054,0.022
	C19.153,13.031,18.469,12.632,17.705,12.729z M7.804,9.112c0.795-0.02,1.59-0.029,2.387-0.031c1.629-0.004,3.256,0.037,4.884,0.066
	c1.607,0.031,3.213,0.025,4.82,0.049c1.338,0.02,2.675,0.014,4.014,0.022c0.014,0.09,0.028,0.18,0.041,0.27
	c0.019,0.154,0.023,0.309,0.035,0.463c-0.507,0.048-1.014,0.094-1.525,0.106c-0.785,0.018-1.574,0.047-2.359,0.051
	c-1.707,0.01-3.415,0.029-5.122,0.015c-1.3-0.011-2.599-0.011-3.899,0.014c-0.66,0.014-1.323,0.02-1.985,0.012
	c-0.565-0.006-1.138-0.013-1.703-0.064C7.368,9.929,7.339,9.774,7.303,9.62C7.265,9.459,7.227,9.298,7.192,9.136
	C7.396,9.129,7.6,9.116,7.804,9.112z M23.473,27.276c-0.39,0.002-0.779,0-1.169,0c-0.838-0.002-1.676,0.008-2.513,0.008
	c-1.736,0-3.468-0.049-5.202-0.035c-1.206,0.008-2.41,0.014-3.616,0.016c-1.044,0.001-2.086-0.025-3.13-0.049
	c-0.028-0.299-0.048-0.599-0.075-0.897c-0.033-0.376-0.072-0.752-0.105-1.128c-0.074-0.828-0.154-1.656-0.23-2.484
	c-0.08-0.869-0.14-1.74-0.205-2.609c-0.06-0.84-0.136-1.677-0.171-2.519c-0.048-1.099-0.052-2.197-0.063-3.297
	c0.109-0.019,0.219-0.034,0.329-0.052c0.005,0,0.011,0,0.017,0c0.337,0.179,0.645,0.427,0.965,0.637
	c0.134,0.09,0.271,0.177,0.413,0.257c0.468,0.269,1.011,0.162,1.5,0.023c0.653-0.187,1.295-0.448,1.966-0.567
	c0.027-0.001,0.055-0.002,0.082-0.002c0.165,0.037,0.322,0.092,0.479,0.155c0.311,0.137,0.611,0.292,0.917,0.436
	c0.136,0.064,0.273,0.123,0.413,0.171c0.14,0.049,0.308,0.051,0.456,0.049c0.15,0,0.321-0.031,0.468-0.055
	c0.22-0.037,0.442-0.082,0.659-0.14c0.697-0.188,1.337-0.535,2.046-0.67c0.085-0.007,0.169-0.01,0.254-0.008
	c0.128,0.031,0.252,0.075,0.376,0.123c0.281,0.124,0.558,0.254,0.837,0.382c0.144,0.066,0.286,0.136,0.431,0.203
	c0.136,0.062,0.275,0.125,0.413,0.177c0.269,0.102,0.555,0.131,0.84,0.098c0.429-0.051,0.83-0.16,1.235-0.31
	c0.346-0.128,0.67-0.304,1.004-0.46c0.117-0.044,0.235-0.083,0.356-0.112c0.112-0.003,0.223,0.004,0.334,0.016
	c0.102,0.018,0.199,0.05,0.299,0.072c0,0,0,0,0,0c0.01,0.916,0.016,1.832,0.021,2.747c0.004,0.861-0.014,1.722-0.023,2.585
	c-0.019,1.695-0.004,3.392-0.033,5.087c-0.012,0.709-0.022,1.422-0.067,2.132C23.811,27.265,23.643,27.275,23.473,27.276z
	 M23.01,25.06c0.085,0.412-0.167,0.836-0.579,0.948c-0.427,0.119-0.879-0.14-0.998-0.565c-0.049-0.172-0.041-0.37-0.049-0.55
	c-0.006-0.144-0.012-0.288-0.016-0.432c-0.008-0.3-0.006-0.6-0.006-0.898c-0.002-0.688,0-1.376,0.006-2.065
	c0.012-1.458-0.018-2.917-0.025-4.374c-0.002-0.442,0.372-0.812,0.812-0.812s0.814,0.37,0.812,0.812
	c-0.008,1.451-0.037,2.901-0.025,4.353c0.004,0.686,0.012,1.372,0.025,2.057C22.98,24.041,22.969,24.554,23.01,25.06z"/>
</svg>