<?xml version="1.0" encoding="utf-8"?>
<!-- Generator: Adobe Illustrator 21.1.0, SVG Export Plug-In . SVG Version: 6.00 Build 0)  -->
<svg version="1.1" id="designs" xmlns="http://www.w3.org/2000/svg" xmlns:xlink="http://www.w3.org/1999/xlink" x="0px" y="0px"
	 width="32px" height="32px" viewBox="0 0 32 32" style="enable-background:new 0 0 32 32;" xml:space="preserve">
<style type="text/css">
	.sketchy_een{fill:#111918;}
</style>
<path class="sketchy_een" d="M30,22.776c-0.022-1.391-0.002-2.784-0.025-4.177c-0.013-0.726-0.009-1.455-0.029-2.183
	c-0.018-0.721-0.056-1.442-0.091-2.165c-0.063-1.263-0.161-2.527-0.199-3.791c-0.04-1.33-0.002-2.661-0.089-3.989
	c-0.025-0.399-0.313-0.734-0.732-0.734c-0.141,0-0.277,0.058-0.398,0.137c-0.683-0.012-1.362,0.049-2.041,0.102
	c-0.712,0.058-1.427,0.036-2.141,0.036c-1.505,0.002-3.011,0.014-4.514-0.004c-1.54-0.02-3.079-0.067-4.619-0.072
	c-0.799-0.002-1.596-0.002-2.395,0c-0.683,0-1.368,0-2.051-0.002c-0.473,0-0.944,0.002-1.417,0.002
	C7.269,5.94,5.278,5.944,3.293,5.832C3.282,5.831,3.271,5.831,3.26,5.831c-0.043,0-0.08,0.019-0.121,0.028
	c-0.112-0.064-0.234-0.11-0.369-0.11C2.351,5.748,2,6.1,2,6.518c0.005,1.57,0.06,3.139,0.098,4.71
	c0.018,0.746,0.053,1.493,0.076,2.239c0.025,0.761,0.042,1.523,0.063,2.286c0.038,1.302,0.045,2.605,0.049,3.907
	c0.002,0.643,0.007,1.286-0.009,1.929c-0.014,0.616-0.04,1.234-0.062,1.849c-0.009,0.275,0.166,0.511,0.4,0.63
	c0.127,0.205,0.342,0.354,0.596,0.347c0.829-0.024,1.658-0.051,2.487-0.073c0.007,0.162,0.016,0.324,0.012,0.487
	c-0.004,0.174-0.031,0.344-0.038,0.518c-0.018,0.48,0.417,0.88,0.882,0.88c0.473,0,0.893-0.4,0.882-0.88
	c-0.008-0.345,0.009-0.69,0.003-1.036c0.15-0.001,0.3-0.007,0.451-0.008c1.518-0.005,3.036,0.004,4.554,0.009
	c1.504,0.005,3.007,0.022,4.511,0.022c1.523-0.002,3.047-0.016,4.57-0.016c1.301,0,2.601,0.011,3.904,0.013
	c0.266,0,0.532,0.01,0.798,0.015c0.023,0.349,0.047,0.694,0.011,1.044c-0.022,0.217,0.105,0.467,0.254,0.616
	c0.163,0.161,0.386,0.255,0.616,0.255c0.451,0,0.902-0.397,0.871-0.871c-0.023-0.339-0.034-0.678-0.05-1.017
	c0.404,0.005,0.808,0.01,1.212,0.014c0.415,0.004,0.759-0.348,0.759-0.757c0-0.134-0.046-0.255-0.11-0.366
	C29.919,23.139,30.003,22.966,30,22.776z M15.852,22.948c-1.543-0.005-3.087-0.018-4.632-0.015
	c-1.292,0.002-2.583,0.002-3.875,0.013c-1.234,0.011-2.468,0.014-3.701,0.034c0.001-0.57,0.016-1.14,0.022-1.712
	c0.007-0.715,0.002-1.433,0.004-2.15c0.004-1.496-0.016-2.991-0.04-4.485c-0.018-1.297-0.056-2.594-0.076-3.889
	C3.545,10.085,3.525,9.427,3.525,8.77c0.001-0.481,0.006-0.963,0.009-1.444c1.472,0.057,2.949,0.033,4.421,0.033
	c1.494,0,2.987,0.002,4.481-0.011c1.491-0.011,2.983-0.033,4.474-0.013c0.342,0.005,0.684,0.016,1.026,0.025
	c-0.021,1.374-0.046,2.749-0.037,4.123c0.005,0.692,0.009,1.382,0.025,2.072c0.009,0.366,0.022,0.732,0.024,1.098
	c0.004,0.341-0.005,0.679-0.004,1.02c0.002,0.614-0.016,1.23-0.022,1.844c-0.007,0.607-0.022,1.214-0.043,1.819
	c-0.022,0.614-0.053,1.225-0.027,1.839c0.023,0.588,0.067,1.173,0.115,1.759C17.263,22.939,16.558,22.95,15.852,22.948z
	 M24.9,22.878c-1.538-0.005-3.074,0.023-4.612,0.038c-0.32,0.003-0.639,0.004-0.959,0.007c-0.004-0.034,0.009-0.068,0-0.102
	c-0.034-0.291-0.047-0.583-0.068-0.874c-0.025-0.344-0.038-0.688-0.051-1.033c-0.025-0.69-0.011-1.38-0.002-2.07
	c0.018-1.389,0.076-2.777,0.105-4.166c0.013-0.62-0.005-1.241-0.007-1.86c-0.002-0.616-0.011-1.23-0.011-1.844
	c0-0.621-0.005-1.244,0.016-1.866c0.019-0.572,0.066-1.142,0.092-1.713c0.678,0.013,1.355,0.018,2.033,0.019
	c1.21,0.004,2.42,0.007,3.632,0.016c0.565,0.004,1.125-0.007,1.688-0.063c0.465-0.046,0.931-0.072,1.397-0.074
	c0.028,0.483,0.051,0.965,0.054,1.449c0.007,0.735,0.005,1.469,0.036,2.203c0.029,0.714,0.091,1.426,0.14,2.139
	c0.047,0.719,0.096,1.44,0.129,2.161c0.058,1.275,0.067,2.55,0.091,3.826c0.024,1.235,0.029,2.471,0.02,3.706
	c0,0.035,0.015,0.066,0.02,0.1C27.396,22.89,26.147,22.881,24.9,22.878z M26.27,9.394c-0.187,0-0.355,0.078-0.487,0.194
	c-0.001,0-0.001,0-0.001,0c-0.439-0.007-0.876-0.005-1.314-0.004c-0.333,0-0.668,0.002-1.004-0.002
	c-0.886-0.007-1.772-0.018-2.657-0.022c-0.001,0-0.002,0-0.003,0c-0.395,0-0.725,0.333-0.725,0.726c0,0.152,0.06,0.288,0.143,0.406
	c0.004,0.312,0.011,0.625,0.016,0.937c0.007,0.38-0.022,0.793,0.094,1.161c0.07,0.225,0.233,0.395,0.432,0.49
	c0.133,0.149,0.32,0.247,0.533,0.253c0.879,0.025,1.759,0.04,2.637,0.074c0.732,0.029,1.462,0.072,2.194,0.081
	c0.382,0.005,0.701-0.322,0.701-0.701c0-0.008-0.004-0.014-0.004-0.022C26.928,12.839,27,12.683,27,12.508
	c-0.002-0.786,0.016-1.572,0.024-2.36C27.027,9.739,26.678,9.394,26.27,9.394z M21.826,12.124c-0.007-0.182-0.015-0.364-0.012-0.546
	c0.001-0.191,0-0.382,0-0.572c0.55-0.005,1.1-0.01,1.651-0.014c0.686-0.006,1.37,0.007,2.054,0.011
	c-0.002,0.422-0.004,0.844,0.002,1.266c-0.508-0.014-1.015-0.025-1.523-0.052C23.273,12.181,22.55,12.152,21.826,12.124z
	 M21.482,15.191c0-0.429,0.359-0.788,0.788-0.788c0.429,0,0.788,0.359,0.788,0.788s-0.359,0.788-0.788,0.788
	C21.841,15.979,21.482,15.621,21.482,15.191z M21.453,18.008c0-0.429,0.359-0.788,0.788-0.788s0.788,0.359,0.788,0.788
	s-0.359,0.788-0.788,0.788S21.453,18.438,21.453,18.008z M23.196,20.709c0,0.422-0.351,0.774-0.773,0.774s-0.773-0.351-0.773-0.774
	c0-0.422,0.351-0.773,0.773-0.773S23.196,20.287,23.196,20.709z M24.27,15.191c0-0.429,0.359-0.788,0.788-0.788
	c0.429,0,0.788,0.359,0.788,0.788s-0.359,0.788-0.788,0.788C24.629,15.979,24.27,15.621,24.27,15.191z M26.119,17.821
	c0,0.429-0.359,0.788-0.788,0.788c-0.429,0-0.788-0.359-0.788-0.788c0-0.429,0.359-0.788,0.788-0.788
	C25.76,17.033,26.119,17.392,26.119,17.821z M26.012,20.686c0,0.426-0.357,0.783-0.783,0.783c-0.426,0-0.783-0.357-0.783-0.783
	c0-0.426,0.357-0.783,0.783-0.783C25.655,19.904,26.012,20.261,26.012,20.686z M16.493,18.703c0.009,0.667,0.029,1.331,0.078,1.996
	c0.021,0.291-0.179,0.544-0.435,0.664c-0.091,0.17-0.243,0.305-0.439,0.343c-0.304,0.06-0.621,0.111-0.933,0.103
	c-0.321-0.009-0.639-0.044-0.958-0.058c-0.36-0.016-0.721-0.043-1.081-0.047c-0.714-0.007-1.424-0.005-2.137-0.038
	c-0.73-0.034-1.458-0.102-2.19-0.103c-0.379,0-0.757,0.004-1.134,0.009c-0.435,0.004-0.869,0.009-1.304,0.005
	c-0.404-0.002-0.739-0.333-0.739-0.739c0-0.393,0.328-0.739,0.727-0.739c0.004,0,0.008,0,0.012,0
	c0.288,0.005,0.576,0.013,0.864,0.018c0.763,0.016,1.525,0.023,2.288,0.033c0.725,0.009,1.446,0.08,2.172,0.072
	c0.725-0.007,1.449,0.007,2.174,0.049c0.331,0.02,0.661,0.034,0.993,0.043c0.209,0.005,0.418,0.004,0.627-0.005
	c-0.008-0.311-0.005-0.624-0.003-0.933c0.004-0.442,0.013-0.886,0.013-1.328c0.004-0.683-0.018-1.364-0.015-2.047
	c0.004-0.725,0.018-1.451,0.024-2.176c0.004-0.708,0.018-1.415,0.016-2.123c0-0.541-0.006-1.082-0.011-1.623
	c-0.423-0.015-0.847-0.018-1.271-0.013c-0.688,0.009-1.375,0.009-2.063-0.011c-0.683-0.022-1.366-0.025-2.049-0.018
	c-1.152,0.01-2.303,0.068-3.452,0.144c-0.096,0.779-0.182,1.555-0.207,2.34c-0.022,0.697-0.018,1.397-0.018,2.096
	c0,0.371,0,0.741,0.016,1.112c0.013,0.313,0.042,0.627,0.063,0.942c0.04,0.631,0.06,1.263,0.136,1.89
	c0.032,0.126,0.032,0.255,0,0.381c-0.034,0.121-0.096,0.228-0.187,0.319c-0.134,0.134-0.319,0.21-0.509,0.21
	s-0.375-0.076-0.509-0.21c-0.143-0.145-0.194-0.313-0.21-0.511c-0.025-0.286-0.031-0.574-0.049-0.86
	c-0.024-0.366-0.044-0.73-0.071-1.094c-0.025-0.339-0.06-0.676-0.069-1.014c-0.007-0.368-0.004-0.737-0.004-1.105
	c0-0.719-0.002-1.436-0.009-2.156c-0.002-0.355-0.013-0.714,0.004-1.069c0.02-0.44,0.058-0.877,0.105-1.313
	c0.008-0.072,0.026-0.135,0.043-0.199c-0.083-0.12-0.143-0.256-0.143-0.398c0-0.397,0.317-0.672,0.696-0.696
	c0.677-0.044,1.353-0.067,2.031-0.062c0.592,0.005,1.186-0.009,1.781-0.022c0.792-0.018,1.583-0.034,2.377-0.013
	c0.672,0.02,1.34,0.025,2.012,0.002c0.355-0.011,0.708-0.014,1.062-0.018c0.295-0.004,0.589-0.02,0.883-0.02
	c0.015,0,0.029,0,0.044,0c0.169,0,0.321,0.07,0.442,0.174c0.293,0.082,0.52,0.344,0.517,0.66c-0.002,0.478-0.038,0.955-0.049,1.433
	c-0.011,0.46-0.013,0.922-0.009,1.382c0.014,1.42,0.014,2.842,0.027,4.262C16.47,17.319,16.486,18.011,16.493,18.703z"/>
</svg>