<?xml version="1.0" encoding="utf-8"?>
<!-- Generator: Adobe Illustrator 21.1.0, SVG Export Plug-In . SVG Version: 6.00 Build 0)  -->
<svg version="1.1" id="designs" xmlns="http://www.w3.org/2000/svg" xmlns:xlink="http://www.w3.org/1999/xlink" x="0px" y="0px"
	 width="32px" height="32px" viewBox="0 0 32 32" style="enable-background:new 0 0 32 32;" xml:space="preserve">
<style type="text/css">
	.sketchy_een{fill:#111918;}
</style>
<path class="sketchy_een" d="M15.291,27.608c-0.168,0-0.336-0.004-0.504-0.014c-2.015-0.117-3.895-0.772-5.44-1.895
	c-0.347,0.144-0.645,0.285-0.954,0.398c-0.402,0.142-0.816,0.288-1.238,0.375c-0.266,0.053-0.534,0.105-0.806,0.134
	c-0.27,0.028-0.467,0.049-0.664,0.049c-0.082,0-0.163-0.003-0.244-0.012l-0.117-0.011C5.16,26.615,4.99,26.6,4.838,26.55
	c-0.127-0.044-0.249-0.096-0.375-0.149c-0.211-0.09-0.391-0.194-0.551-0.317c-0.338-0.255-0.76-0.674-0.857-1.227
	c-0.062-0.349-0.07-0.607-0.025-0.888c0.025-0.149,0.055-0.292,0.095-0.438c0.054-0.191,0.119-0.38,0.191-0.565
	c0.237-0.595,0.512-1.074,0.841-1.465c0.29-0.342,0.615-0.68,0.994-1.034l0.029-0.022l0.074-0.089
	c-0.31-0.891-0.505-1.651-0.615-2.392c-0.168-1.131-0.204-2.149-0.109-3.113c0.054-0.561,0.15-1.112,0.286-1.637
	c0.128-0.509,0.309-0.992,0.485-1.439c0.176-0.446,0.388-0.96,0.665-1.42c0.234-0.392,0.5-0.785,0.864-1.273
	C7.118,8.696,7.468,8.249,7.864,7.87c0.381-0.364,0.813-0.718,1.32-1.082c0.574-0.412,1.228-0.697,1.849-0.944
	c0.412-0.164,0.852-0.333,1.313-0.447c0.912-0.223,1.914-0.355,3.154-0.418c0.261-0.014,0.52-0.021,0.779-0.021
	c0.714,0,1.455,0.051,2.201,0.152c1.04,0.139,1.868,0.341,2.602,0.633c0.215,0.086,0.421,0.188,0.627,0.29l0.197,0.097
	c0.629-0.419,1.239-0.782,1.864-1.082c0.43-0.206,0.903-0.378,1.443-0.524c0.326-0.088,0.665-0.133,1.006-0.133
	c0.894,0,1.649,0.305,2.127,0.86c0.318,0.371,0.536,0.834,0.617,1.304c0.062,0.357,0.047,0.736-0.048,1.195
	c-0.101,0.498-0.296,0.961-0.474,1.349c-0.261,0.575-0.603,1.173-1.076,1.882c0.05,0.165,0.084,0.238,0.104,0.317
	c0.046,0.183,0.03,0.379-0.044,0.55c0.143,0.827,0.305,1.757,0.372,2.686c0.033,0.432,0.059,0.897,0.024,1.371
	c-0.041,0.537-0.151,1.068-0.242,1.47c-0.194,0.847-0.559,1.663-0.911,2.452l-0.091,0.202c-0.176,0.404-0.373,0.796-0.577,1.185
	c-0.208,0.391-0.473,0.745-0.728,1.075c-0.668,0.869-1.331,1.569-2.028,2.144c-0.838,0.692-1.678,1.262-2.567,1.743
	c-0.873,0.474-1.825,0.842-2.829,1.094C16.946,27.498,16.11,27.608,15.291,27.608L15.291,27.608z M25.731,13.116
	c-0.125,0.149-0.25,0.298-0.378,0.442c-0.472,0.523-0.956,1.036-1.441,1.547l-0.303,0.322c-0.581,0.614-1.218,1.261-1.925,1.83
	l-0.314,0.254c-0.58,0.471-1.16,0.941-1.749,1.4c-0.441,0.345-0.886,0.685-1.331,1.024l-1.034,0.796
	c-0.455,0.356-0.909,0.712-1.385,1.04c-0.518,0.356-1.043,0.702-1.576,1.039c-0.827,0.524-1.674,1.02-2.52,1.516l-0.479,0.28
	c0.271,0.24,0.543,0.387,0.824,0.521c0.747,0.288,1.513,0.498,2.281,0.626c0.337,0.041,0.676,0.08,1.014,0.08
	c0.453-0.01,0.807-0.032,1.162-0.068c0.583-0.099,1.165-0.22,1.73-0.396c1.246-0.387,2.527-1.075,3.55-1.912
	c0.391-0.32,0.843-0.703,1.25-1.128c0.304-0.317,0.607-0.673,0.983-1.154c0.312-0.444,0.573-0.874,0.8-1.318
	c0.212-0.414,0.4-0.842,0.586-1.267c0.194-0.457,0.365-0.874,0.481-1.31c0.108-0.397,0.193-0.804,0.263-1.246
	c0.051-0.737-0.008-1.445-0.066-1.98c-0.036-0.26-0.081-0.517-0.126-0.773l-0.075-0.429L25.731,13.116z M5.886,22.022
	c-0.222,0.217-0.438,0.439-0.634,0.678c-0.154,0.233-0.288,0.463-0.404,0.708C4.72,23.75,4.641,24.015,4.591,24.27
	c-0.002,0.066-0.002,0.122,0,0.179c0.01,0.052,0.022,0.097,0.035,0.14c0.103,0.14,0.161,0.196,0.222,0.25
	c0.105,0.07,0.208,0.127,0.315,0.18c0.088,0.03,0.171,0.051,0.257,0.069c0.104,0.008,0.201,0.011,0.298,0.011
	c0.193,0,0.385-0.013,0.58-0.031c0.523-0.091,1.054-0.237,1.626-0.447c-0.367-0.441-0.673-0.762-0.923-1.07
	c-0.363-0.445-0.672-0.885-0.945-1.347l-0.079-0.154L5.886,22.022z M16.038,6.664c-0.743,0.018-1.433,0.066-2.11,0.147
	c-0.374,0.063-0.804,0.14-1.22,0.259c-0.392,0.114-0.772,0.248-1.152,0.399c-0.416,0.175-0.793,0.334-1.129,0.557
	c-0.198,0.13-0.39,0.263-0.582,0.401C9.564,8.653,9.27,8.894,9.017,9.169C8.772,9.435,8.542,9.71,8.318,9.994l-0.076,0.103
	c-0.196,0.265-0.393,0.532-0.558,0.816c-0.213,0.36-0.397,0.726-0.572,1.105c-0.149,0.359-0.304,0.741-0.414,1.131
	c-0.134,0.476-0.236,0.937-0.312,1.409c-0.04,0.361-0.084,0.834-0.073,1.31c0.011,0.465,0.043,0.925,0.094,1.387
	c0.095,0.65,0.214,1.22,0.365,1.744c0.132,0.46,0.299,0.935,0.527,1.494c0.258,0.543,0.559,1.055,0.923,1.568
	c0.421,0.506,0.918,1.003,1.565,1.567c0.691-0.372,1.309-0.777,1.923-1.186c0.761-0.504,1.519-1.016,2.27-1.539
	c0.759-0.53,1.507-1.07,2.243-1.633c0.386-0.296,0.775-0.588,1.165-0.88l0.74-0.557c0.464-0.362,0.919-0.735,1.374-1.108
	l0.633-0.517c0.728-0.589,1.354-1.164,1.914-1.758l0.436-0.461c0.946-0.999,1.924-2.033,2.8-3.124l-0.06-0.152l-0.091-0.132
	c-0.352-0.431-0.794-0.854-1.393-1.334c-0.994-0.74-2.047-1.363-3.13-1.851c-0.734-0.282-1.519-0.477-2.47-0.615
	c-0.717-0.08-1.301-0.118-1.84-0.118L16.038,6.664z M26.223,6.086c-0.104,0-0.207,0.005-0.312,0.014
	c-0.409,0.077-0.822,0.205-1.344,0.415c-0.317,0.15-0.622,0.316-0.919,0.493l-0.074,0.044l0.112,0.066
	c1.006,0.637,1.715,1.2,2.273,1.8c0.069,0.074,0.127,0.155,0.187,0.236c0.041,0.056,0.081,0.111,0.125,0.165
	c0.353-0.46,0.554-0.838,0.718-1.196c0.139-0.355,0.235-0.681,0.296-1.001c0.006-0.09,0.008-0.174,0.006-0.258
	c-0.02-0.095-0.043-0.177-0.072-0.26c-0.045-0.087-0.09-0.163-0.14-0.238l-0.072-0.071c-0.052-0.035-0.105-0.068-0.161-0.098
	c-0.121-0.043-0.236-0.075-0.354-0.1C26.398,6.089,26.31,6.086,26.223,6.086z"/>
</svg>