<?xml version="1.0" encoding="utf-8"?>
<!-- Generator: Adobe Illustrator 21.1.0, SVG Export Plug-In . SVG Version: 6.00 Build 0)  -->
<svg version="1.1" id="designs" xmlns="http://www.w3.org/2000/svg" xmlns:xlink="http://www.w3.org/1999/xlink" x="0px" y="0px"
	 width="32px" height="32px" viewBox="0 0 32 32" style="enable-background:new 0 0 32 32;" xml:space="preserve">
<style type="text/css">
	.sketchy_een{fill:#111918;}
</style>
<path class="sketchy_een" d="M29.946,22.346c-0.018-0.787-0.033-1.574-0.059-2.359c-0.053-1.615-0.022-3.233-0.016-4.848
	c0.004-1.175,0.004-2.347,0.018-3.522c0.018-1.306,0.061-2.613,0.11-3.921c0.004-0.115-0.021-0.224-0.066-0.324
	c0.028-0.192,0.005-0.39-0.094-0.558c-0.102-0.175-0.303-0.356-0.512-0.392c-0.443-0.075-0.895-0.098-1.34-0.138
	c-0.39-0.035-0.779-0.067-1.171-0.085c-0.822-0.037-1.645-0.049-2.465-0.075c-0.822-0.024-1.645-0.006-2.467,0
	c-0.834,0.008-1.668,0.01-2.501-0.002c-0.82-0.012-1.637-0.037-2.455-0.063c-0.846-0.024-1.692-0.031-2.54-0.03
	c-0.832,0.002-1.664,0.01-2.497,0.004c-0.817-0.004-1.631-0.027-2.448-0.027c-1.033,0-2.066,0.008-3.101-0.002
	C6.037,6.002,5.73,6,5.423,6C4.731,6,4.038,6.012,3.345,6.052C2.907,6.078,2.537,6.401,2.537,6.859c0,0.049,0.021,0.096,0.03,0.145
	c-0.01,0.049-0.03,0.094-0.03,0.145C2.544,8.042,2.585,8.935,2.595,9.83c0.01,0.848-0.01,1.694-0.02,2.542
	c-0.018,1.708,0.002,3.418-0.049,5.125c-0.037,1.297-0.083,2.593-0.165,3.888c-0.077,1.218-0.162,2.433-0.236,3.651
	C2.053,25.155,2,25.286,2,25.435c0,0.425,0.36,0.803,0.793,0.795c0.893-0.02,1.785-0.057,2.676-0.091
	c0.6-0.022,1.204-0.022,1.806-0.02c0.209,0,0.419,0.002,0.63,0c0.844,0,1.686-0.006,2.528-0.002c0.801,0.004,1.6,0.016,2.398,0.002
	c0.85-0.012,1.702-0.008,2.552-0.026c0.838-0.016,1.678-0.057,2.516-0.071c1.661-0.03,3.321-0.022,4.98-0.03
	c1.977-0.01,3.957-0.043,5.936-0.006c0.371,0.008,0.682-0.256,0.791-0.596c0.23-0.145,0.347-0.38,0.364-0.647
	c0.026-0.403-0.002-0.811-0.006-1.214C29.96,23.135,29.954,22.742,29.946,22.346z M23.92,24.374c-1.67,0.012-3.341,0-5.013,0.022
	c-0.856,0.012-1.714,0.071-2.57,0.104c-0.834,0.033-1.668,0.045-2.503,0.055c-1.672,0.018-3.343,0.031-5.015,0.035
	c-0.948,0.002-1.897,0.006-2.845,0.024c-0.683,0.013-1.365,0.014-2.048,0.017c0.046-1.483,0.123-2.964,0.189-4.447
	c0.035-0.834,0.065-1.67,0.085-2.507c0.02-0.844,0-1.69-0.016-2.534c-0.028-1.33-0.014-2.662-0.037-3.994
	C4.126,9.978,4.113,8.805,4.112,7.632C4.698,7.598,5.283,7.561,5.87,7.55c0.86-0.02,1.718-0.016,2.577-0.024
	c1.017-0.01,2.034-0.004,3.054,0.002c0.679,0.006,1.358,0.01,2.036,0.008c0.797-0.002,1.594-0.01,2.391,0.008
	c0.852,0.018,1.704,0.047,2.556,0.069c1.647,0.041,3.296,0.033,4.944,0.071c0.964,0.024,1.926,0.092,2.89,0.138
	c0.681,0.032,1.362,0.109,2.04,0.188c-0.021,0.795-0.033,1.589-0.031,2.384c0.002,0.844-0.014,1.688-0.018,2.532
	c-0.006,1.637,0.004,3.274,0.008,4.911c0,0.559,0.006,1.118,0.02,1.678c0.014,0.563,0.049,1.123,0.065,1.686
	c0.016,0.574,0.035,1.149,0.053,1.725c0.013,0.456,0.023,0.92,0.001,1.38c-0.708,0.008-1.415,0.012-2.124,0.022
	C25.529,24.339,24.725,24.37,23.92,24.374z M20.978,14.379c0.338,0.339,0.356,0.935,0,1.271c-0.313,0.295-0.639,0.574-0.952,0.87
	c-0.299,0.281-0.59,0.569-0.893,0.848c-0.634,0.586-1.318,1.116-1.987,1.661c-0.167,0.134-0.333,0.27-0.502,0.401
	c-0.191,0.151-0.392,0.329-0.61,0.443c-0.207,0.11-0.502,0.252-0.746,0.22c-0.258-0.031-0.456-0.059-0.683-0.195
	c-0.177-0.106-0.34-0.24-0.49-0.382c-0.285-0.27-0.557-0.549-0.85-0.809c-0.157-0.14-0.323-0.275-0.468-0.429
	c-0.119-0.122-0.222-0.258-0.324-0.394c-0.01-0.011-0.02-0.023-0.03-0.034c-0.111,0.104-0.219,0.209-0.33,0.312
	c-0.271,0.254-0.545,0.506-0.811,0.765c-0.592,0.582-1.196,1.147-1.731,1.782c-0.309,0.366-0.925,0.317-1.243,0
	c-0.163-0.163-0.256-0.39-0.256-0.622c0-0.246,0.1-0.439,0.256-0.62c0.311-0.362,0.645-0.697,0.99-1.027
	c0.285-0.275,0.535-0.578,0.807-0.866c0.262-0.277,0.539-0.537,0.813-0.803c0.268-0.262,0.523-0.539,0.836-0.751
	c0.376-0.254,0.879-0.274,1.269-0.037c0.096,0.059,0.183,0.132,0.275,0.193c0.171,0.112,0.344,0.232,0.484,0.384
	c0.094,0.102,0.185,0.212,0.287,0.311c0.266,0.258,0.573,0.476,0.856,0.716c0.157,0.136,0.305,0.282,0.455,0.425
	c0.143-0.095,0.281-0.199,0.417-0.303c0.27-0.21,0.539-0.421,0.809-0.629c0.551-0.433,1.09-0.887,1.602-1.364
	c0.486-0.453,0.96-0.925,1.478-1.338c0.195-0.157,0.376-0.264,0.635-0.264C20.58,14.116,20.811,14.21,20.978,14.379z M23.715,14.706
	c0.02,0.543,0.065,1.096,0.039,1.639c-0.022,0.45-0.36,0.828-0.828,0.828c-0.453,0-0.826-0.376-0.828-0.828
	c-0.002-0.563,0-1.12-0.039-1.682c-0.036-0.502-0.077-1.004-0.118-1.507c-0.319,0.017-0.638,0.041-0.958,0.069
	c-0.639,0.055-1.281,0.096-1.922,0.118c-0.47,0.018-0.864-0.405-0.864-0.864c0-0.482,0.393-0.854,0.864-0.866
	c0.641-0.018,1.281-0.031,1.922-0.057c0.452-0.019,0.901-0.054,1.354-0.054c0.111,0,0.223,0.002,0.334,0.007
	c0.369,0.016,0.674,0.26,0.768,0.605c0.092,0.14,0.149,0.292,0.162,0.469C23.656,13.289,23.693,13.997,23.715,14.706z"/>
</svg>