<?xml version="1.0" encoding="utf-8"?>
<!-- Generator: Adobe Illustrator 21.1.0, SVG Export Plug-In . SVG Version: 6.00 Build 0)  -->
<svg version="1.1" id="designs" xmlns="http://www.w3.org/2000/svg" xmlns:xlink="http://www.w3.org/1999/xlink" x="0px" y="0px"
	 width="32px" height="32px" viewBox="0 0 32 32" style="enable-background:new 0 0 32 32;" xml:space="preserve">
<style type="text/css">
	.sketchy_een{fill:#111918;}
</style>
<path class="sketchy_een" d="M27.484,29.744c-0.127,0-0.253-0.012-0.379-0.024l-0.242-0.02c-0.14-0.009-0.28-0.011-0.42-0.011
	l-0.465,0.003c-0.334,0-0.669-0.002-1.006-0.012c-0.151-0.004-0.302-0.013-0.453-0.022c-0.154-0.008-0.308-0.017-0.462-0.021
	c-0.17-0.005-0.339-0.007-0.51-0.007c-0.262,0-0.523,0.005-0.785,0.011l-3.66-0.014c-0.421-0.002-0.842-0.018-1.261-0.033
	c-0.414-0.015-0.826-0.03-1.24-0.032l-0.139-0.001c-0.44,0-0.879,0.01-1.319,0.02c-0.328,0.007-1.929,0.035-1.929,0.035
	c-0.467,0.01-0.934,0.02-1.401,0.02l-3.89-0.01c-0.425,0-0.849,0.002-1.273,0.008l-0.455,0.013C6,29.654,5.804,29.662,5.608,29.662
	L5.449,29.66c-0.46-0.01-0.919-0.024-1.375-0.076c-0.153-0.002-0.291-0.039-0.414-0.111c-0.119-0.07-0.216-0.168-0.288-0.29
	c-0.111-0.186-0.141-0.414-0.082-0.621l0.016-0.113c0.012-0.615,0.18-1.181,0.343-1.728c0.068-0.228,0.136-0.457,0.194-0.688
	c0.053-0.21,0.101-0.422,0.148-0.634l0.124-0.538c0.093-0.375,0.182-0.731,0.243-1.096c0.048-0.408,0.09-0.841,0.048-1.283
	c-0.029-0.193-0.066-0.384-0.123-0.568c-0.054-0.064-0.098-0.107-0.145-0.147l-0.157-0.111c-0.168-0.119-0.334-0.236-0.496-0.367
	L3.38,21.207c-0.057-0.042-0.115-0.085-0.164-0.135c-0.163-0.158-0.308-0.333-0.434-0.519c-0.257-0.378-0.514-0.792-0.65-1.256
	c-0.119-0.411-0.157-0.765-0.118-1.086c0.031-0.249,0.063-0.497,0.119-0.743c0.045-0.2,0.116-0.393,0.192-0.583l0.066-0.166
	c0.08-0.203,0.162-0.41,0.267-0.597c0.103-0.191,0.211-0.376,0.339-0.55l0.069-0.097c0.089-0.128,0.181-0.261,0.29-0.363
	c0.146-0.133,0.295-0.251,0.453-0.371c0.299-0.231,0.662-0.42,1.174-0.615l-0.003-0.17c-0.034-0.109-0.069-0.219-0.099-0.329
	c-0.117-0.422-0.152-0.858-0.182-1.341c-0.011-0.185-0.016-0.37-0.021-0.555l-0.006-0.242c-0.004-0.137-0.009-0.274,0.001-0.41
	C4.76,9.942,4.953,9.033,5.278,8.216c0.377-0.942,0.913-1.821,1.639-2.687c0.672-0.804,1.43-1.411,2.252-1.804
	c0.47-0.225,0.958-0.438,1.443-0.63c0.436-0.172,0.898-0.291,1.296-0.387c0.443-0.11,0.916-0.188,1.533-0.256l0.354-0.041
	c0.336-0.04,0.672-0.08,1.01-0.108c0.4-0.032,0.8-0.047,1.199-0.047c0.468,0,0.936,0.02,1.406,0.057
	c0.464,0.034,0.923,0.114,1.381,0.193c0.452,0.078,0.802,0.186,1.14,0.29l0.256,0.077c0.242,0.074,0.482,0.148,0.718,0.242
	l0.234,0.093c0.126,0.05,0.252,0.101,0.378,0.145c0.469,0.166,0.86,0.303,1.225,0.53l0.73,0.459c0.418,0.258,0.85,0.525,1.171,0.89
	c0.334,0.38,0.594,0.771,0.792,1.196c0.178,0.379,0.357,0.759,0.52,1.143c0.192,0.454,0.366,0.861,0.444,1.289
	c0.087,0.47,0.147,0.943,0.208,1.417c0.06,0.461,0.108,0.864,0.104,1.27c-0.002,0.425-0.043,0.844-0.085,1.265l-0.04,0.438
	c-0.033,0.377-0.067,0.755-0.142,1.126c0.212,0.087,0.374,0.115,0.534,0.156c0.366,0.096,0.747,0.256,1.202,0.502
	c0.242,0.131,0.463,0.25,0.661,0.396c0.258,0.193,0.475,0.432,0.685,0.754c0.305,0.468,0.473,1.037,0.475,1.6
	c0.002,0.527-0.079,1.053-0.15,1.45c-0.035,0.192-0.093,0.384-0.182,0.605c-0.096,0.235-0.195,0.479-0.336,0.692
	c-0.24,0.36-0.528,0.685-0.908,1.023l-0.213,0.194c-0.105,0.097-0.21,0.194-0.319,0.287l-0.083,0.07
	c-0.116,0.095-0.227,0.188-0.329,0.297c-0.039,0.271-0.023,0.482,0.001,0.693c0.097,0.586,0.269,1.158,0.435,1.711
	c0.074,0.248,0.149,0.495,0.218,0.745l0.133,0.514c0.071,0.278,0.142,0.557,0.224,0.832c0.094,0.315,0.202,0.626,0.31,0.937
	l0.168,0.493c0.067,0.198,0.044,0.418-0.063,0.617c-0.117,0.219-0.319,0.386-0.545,0.448c-0.037,0.01-0.074,0.01-0.115,0.01
	c-0.267,0.226-0.497,0.341-0.743,0.343H27.484z M6.829,15.677c-0.261,0-0.524,0.017-0.783,0.045
	c-0.198,0.035-0.384,0.08-0.571,0.147c-0.214,0.096-0.418,0.203-0.609,0.334c-0.107,0.089-0.205,0.179-0.295,0.279
	c-0.159,0.231-0.295,0.472-0.411,0.72c-0.14,0.359-0.23,0.66-0.284,0.95c-0.011,0.137-0.016,0.269-0.012,0.403
	c0.034,0.157,0.077,0.299,0.128,0.442c0.116,0.242,0.246,0.472,0.393,0.692c0.133,0.152,0.277,0.286,0.428,0.412l0.127,0.088
	c0.149,0.102,0.299,0.204,0.435,0.323c0.22,0.19,0.362,0.354,0.434,0.502c0.129,0.264,0.214,0.539,0.266,0.865
	c0.047,0.285,0.091,0.625,0.063,0.992c-0.032,0.422-0.07,0.849-0.131,1.267c-0.114,0.769-0.31,1.529-0.486,2.171
	c-0.053,0.193-0.111,0.385-0.17,0.576c-0.114,0.374-0.228,0.748-0.303,1.131c0.387,0.087,0.729,0.106,1.073,0.106l0.161-0.002
	c0.202-0.003,0.403-0.013,0.605-0.023l0.391-0.018c0.181-0.006,0.362-0.008,0.544-0.008l1.787,0.013l0.002-0.11
	c0-0.043,0.001-0.087,0.009-0.132c0.049-0.257,0.087-0.516,0.125-0.776l0.064-0.42l0.362-2.206c0.078-0.483,0.157-0.967,0.227-1.452
	c0.085-0.682,0.113-1.302,0.086-1.896c-0.031-0.645-0.064-1.29-0.135-1.931c-0.088-0.577-0.221-1.1-0.406-1.598
	c-0.11-0.233-0.236-0.451-0.38-0.661c-0.176-0.206-0.37-0.395-0.596-0.581c-0.226-0.157-0.467-0.293-0.742-0.419
	c-0.169-0.065-0.337-0.118-0.516-0.149c-0.28-0.038-0.56-0.075-0.836-0.075H6.829z M16.216,3.919c-0.236,0-0.472,0.005-0.708,0.015
	c-0.762,0.034-1.525,0.134-2.197,0.221c-0.644,0.097-1.319,0.267-2.008,0.506c-0.223,0.099-0.44,0.202-0.656,0.305l-0.467,0.22
	C9.849,5.337,9.53,5.524,9.207,5.759C8.823,6.096,8.458,6.48,8.054,6.969c-0.397,0.542-0.735,1.13-1.033,1.8
	c-0.215,0.552-0.371,1.136-0.467,1.738c-0.038,0.304-0.071,0.609-0.064,0.913c0.007,0.354,0.044,0.707,0.082,1.058
	c0.084,0.49,0.244,0.989,0.382,1.39c0,0,0.603,0.069,0.839,0.104c0.327,0.035,0.568,0.062,0.787,0.141
	c0.218,0.08,0.441,0.163,0.648,0.271c0.321,0.167,0.627,0.373,0.964,0.651c0.601,0.5,1.069,1.19,1.393,2.051
	c0.279,0.747,0.433,1.616,0.486,2.736l0.017,0.351c0.039,0.762,0.079,1.548,0.005,2.314c-0.115,1.202-0.319,2.412-0.516,3.582
	c-0.1,0.595-0.2,1.19-0.29,1.786l-0.019,0.173c0.387,0.025,0.758,0.033,1.123,0.033c0.302,0,0.599-0.005,0.897-0.012
	c0.418-0.008,0.835-0.026,1.252-0.046c0.385-0.018,0.771-0.035,1.156-0.044c0.233-0.004,0.466-0.006,0.699-0.006
	c0.61,0,1.219,0.014,1.83,0.032c0.798,0.025,1.594,0.025,2.392,0.025l1.391-0.004l0.514,0.006c0.216,0,0.432-0.005,0.648-0.018
	c0.116-0.007,0.23-0.01,0.346-0.01c0.211,0,0.42,0.01,0.631,0.019l0.402,0.015c0.34,0.01,0.68,0.021,1.018,0.021l1.43,0.004
	L27,27.849l-0.089-0.287c-0.064-0.222-0.119-0.447-0.173-0.67l-0.118-0.465c-0.089-0.35-0.19-0.695-0.292-1.041l-0.124-0.416
	c-0.071-0.226-0.141-0.454-0.197-0.686c-0.107-0.456-0.172-0.86-0.201-1.233c-0.015-0.187-0.024-0.375-0.021-0.562
	c0.01-0.489,0.186-0.922,0.51-1.251c0.099-0.102,0.208-0.19,0.317-0.28l0.105-0.088c0.107-0.091,0.21-0.188,0.312-0.285l0.14-0.131
	c0.264-0.251,0.458-0.434,0.635-0.641c0.108-0.158,0.196-0.319,0.276-0.486c0.095-0.263,0.163-0.542,0.221-0.909
	c0.027-0.264,0.043-0.526,0.03-0.789c-0.026-0.123-0.06-0.236-0.099-0.349c-0.059-0.122-0.123-0.231-0.196-0.338
	c-0.051-0.057-0.099-0.107-0.149-0.155c-0.295-0.2-0.623-0.353-0.908-0.476c-0.271-0.101-0.565-0.174-0.927-0.231
	c-0.202-0.021-0.399-0.03-0.595-0.03c-0.159,0-0.317,0.007-0.476,0.021c-0.127,0.025-0.244,0.059-0.36,0.1
	c-0.274,0.132-0.531,0.285-0.789,0.469c-0.256,0.22-0.494,0.468-0.733,0.764c-0.332,0.458-0.597,0.853-0.808,1.298
	c-0.15,0.386-0.248,0.716-0.309,1.043c-0.041,0.375-0.057,0.749-0.066,1.123c-0.008,0.452,0.005,0.825,0.041,1.176
	c0.099,0.66,0.235,1.365,0.429,2.224c0.109,0.482-0.15,0.94-0.603,1.065c-0.069,0.019-0.142,0.028-0.217,0.028
	c-0.403,0-0.765-0.27-0.844-0.63c-0.082-0.376-0.166-0.758-0.231-1.139l-0.048-0.276c-0.073-0.408-0.146-0.816-0.191-1.226
	c-0.032-0.294-0.039-0.589-0.04-0.884l-0.262-0.063l-0.325-0.019c-0.123-0.006-0.247-0.009-0.37-0.009
	c-0.322,0-0.646,0.017-0.968,0.033l-1.899,0.111c-0.581,0.033-1.165,0.046-1.747,0.05c-0.431,0-0.793-0.364-0.793-0.794
	c0-0.428,0.36-0.791,0.786-0.791l0.449,0.002c0.788,0,1.575-0.017,2.363-0.047l0.583-0.02c0.566-0.019,1.152-0.036,1.725-0.102
	c0.138-0.026,0.27-0.061,0.4-0.109l0.166-0.081c0.102-0.559,0.254-1.039,0.464-1.511c0.195-0.442,0.45-0.826,0.674-1.143
	c0.278-0.396,0.587-0.81,0.962-1.155c0.424-0.392,0.844-0.682,1.247-0.863l0.1-0.046c0.189-0.087,0.385-0.177,0.586-0.223
	c0.178-0.039,0.358-0.06,0.539-0.077c0,0,0.045-0.177,0.053-0.209c0.029-0.117,0.053-0.235,0.073-0.355
	c0.101-0.966,0.177-2.002,0.054-3.046l-0.084-0.649c-0.048-0.34-0.089-0.633-0.159-0.919c-0.06-0.238-0.141-0.466-0.23-0.693
	c-0.13-0.292-0.267-0.578-0.404-0.865C23.98,7.157,23.81,6.851,23.627,6.58c-0.157-0.19-0.322-0.366-0.508-0.523
	c-0.209-0.152-0.418-0.291-0.632-0.43c-0.337-0.218-0.636-0.41-0.953-0.561l-0.942-0.337c-0.27-0.102-0.541-0.182-0.814-0.263
	l-0.177-0.052c-0.333-0.1-0.646-0.193-0.971-0.26c-0.269-0.057-0.541-0.103-0.813-0.147C17.311,3.948,16.774,3.919,16.216,3.919z
	 M15.727,11.064c-0.442,0-0.815-0.373-0.815-0.814c0-0.442,0.373-0.815,0.815-0.815s0.815,0.373,0.815,0.815
	C16.542,10.691,16.169,11.064,15.727,11.064z"/>
</svg>