<?xml version="1.0" encoding="utf-8"?>
<!-- Generator: Adobe Illustrator 21.1.0, SVG Export Plug-In . SVG Version: 6.00 Build 0)  -->
<svg version="1.1" id="designs" xmlns="http://www.w3.org/2000/svg" xmlns:xlink="http://www.w3.org/1999/xlink" x="0px" y="0px"
	 width="32px" height="32px" viewBox="0 0 32 32" style="enable-background:new 0 0 32 32;" xml:space="preserve">
<style type="text/css">
	.sketchy_een{fill:#111918;}
</style>
<path class="sketchy_een" d="M2.138,25.505c0.151,0.461,0.356,0.902,0.679,1.267c0.27,0.306,0.604,0.547,0.979,0.709
	c0.235,0.101,0.486,0.21,0.738,0.258c0.239,0.046,0.482,0.077,0.723,0.096c0.405,0.032,0.811,0.061,1.216,0.073
	c0.835,0.023,1.671,0.019,2.504,0.05c0.849,0.029,1.696,0.065,2.543,0.103c1.654,0.073,3.305,0.088,4.959,0.132
	c0.443,0.011,0.886,0.018,1.329,0.018c0.34,0,0.679-0.004,1.018-0.014c0.839-0.027,1.677-0.059,2.516-0.073
	c0.791-0.013,1.583-0.046,2.374-0.069c0.768-0.023,1.539-0.004,2.307-0.054c0.392-0.025,0.784-0.061,1.174-0.117
	c0.426-0.061,0.866-0.149,1.243-0.371c0.432-0.254,0.755-0.616,1.004-1.05c0.224-0.39,0.424-0.805,0.501-1.252
	c0.061-0.35,0.082-0.669,0.013-1.021c-0.097-0.499-0.396-0.96-0.83-1.233c-0.436-0.273-0.956-0.421-1.457-0.528
	c-0.826-0.182-1.664-0.226-2.508-0.229c0.124-0.971,0.214-1.946,0.341-2.917c0.202-1.418,0.47-2.827,0.681-4.245
	c0.12-0.801,0.262-1.594,0.426-2.388c0.157-0.759,0.329-1.514,0.463-2.275c0.13-0.732,0.247-1.464,0.39-2.193
	c0.141-0.726,0.222-1.463,0.352-2.191c0.036-0.207,0.032-0.392-0.076-0.577c-0.015-0.026-0.04-0.042-0.058-0.066
	c0.076-0.126,0.131-0.263,0.131-0.409c0-0.352-0.247-0.692-0.593-0.778c-0.275-0.069-0.556-0.078-0.837-0.107
	c-0.327-0.034-0.654-0.04-0.981-0.044c-0.382-0.004-0.765,0.008-1.147,0.008C23.845,4.019,23.434,4.009,23.025,4
	c-0.767-0.019-1.531-0.065-2.296-0.09c-0.795-0.029-1.591-0.033-2.386-0.044c-0.818-0.013-1.636-0.015-2.453-0.011
	c-0.812,0.004-1.625-0.004-2.434,0.036c-0.814,0.04-1.625,0.075-2.439,0.077C9.353,3.971,7.693,3.913,6.034,3.791
	C5.788,3.773,5.574,3.904,5.426,4.09c-0.304,0.112-0.558,0.4-0.528,0.734C4.928,5.18,4.976,5.534,5.02,5.887
	c0.05,0.396,0.09,0.789,0.132,1.185c0.088,0.839,0.178,1.678,0.233,2.522c0.105,1.59,0.199,3.181,0.321,4.771
	c0.063,0.801,0.124,1.6,0.218,2.399c0.098,0.828,0.22,1.652,0.333,2.478c-0.01-0.067-0.019-0.134-0.029-0.201
	c0.132,1.003,0.238,2.009,0.311,3.019c-0.562-0.031-1.124-0.067-1.686-0.078C4.656,21.98,4.457,21.98,4.26,21.997
	c-0.208,0.019-0.436,0.038-0.637,0.109c-0.465,0.164-0.835,0.432-1.116,0.843C2.006,23.681,1.863,24.66,2.138,25.505z M20.169,22.24
	c-0.656,0.009-1.312,0.038-1.969,0.061c-0.111-0.062-0.237-0.096-0.369-0.085c-0.998,0.076-2,0.095-2.999,0.097
	c-0.828,0.002-1.656-0.019-2.483-0.031c-0.828-0.011-1.656-0.015-2.485-0.023c-0.586-0.007-1.169-0.052-1.753-0.099
	c0.002-0.031,0.018-0.059,0.015-0.092c-0.069-0.87-0.187-1.735-0.313-2.6c1.177-0.042,2.352-0.084,3.529-0.063
	c1.227,0.019,2.455,0.027,3.682,0.027c1.541-0.002,3.082-0.006,4.622,0.01c0.292,0.002,0.587,0,0.881,0
	c0.442,0,0.883-0.002,1.325,0.008c0.692,0.012,1.383,0.043,2.075,0.077c-0.002,0.016-0.005,0.031-0.008,0.047
	c-0.126,0.845-0.241,1.694-0.369,2.539c-0.005,0.036-0.002,0.067-0.005,0.101C22.42,22.218,21.295,22.223,20.169,22.24z
	 M25.128,12.388c-0.157,0.761-0.283,1.522-0.401,2.288c-0.128,0.835-0.271,1.669-0.413,2.502c-0.046,0.273-0.088,0.547-0.135,0.819
	c-0.035-0.005-0.065-0.021-0.101-0.021c-1.178-0.006-2.353-0.031-3.531-0.032c-1.164-0.004-2.328,0.021-3.493,0.036
	c-1.564,0.021-3.128,0.006-4.689-0.01c-0.763-0.008-1.526-0.056-2.286-0.063c-0.831-0.009-1.661-0.002-2.491,0.018
	c-0.01-0.069-0.021-0.138-0.03-0.207c0.005,0.034,0.009,0.068,0.013,0.103c-0.007-0.05-0.013-0.101-0.02-0.151
	c-0.002-0.016-0.005-0.033-0.007-0.049c0.002,0.014,0.004,0.028,0.006,0.042c-0.159-1.221-0.27-2.448-0.36-3.678
	c-0.059-0.803-0.111-1.608-0.164-2.411c-0.054-0.79-0.09-1.581-0.157-2.371C6.801,8.42,6.713,7.638,6.652,6.855
	c-0.029-0.363-0.054-0.727-0.09-1.09C6.551,5.652,6.54,5.538,6.531,5.424c0.105,0.006,0.21,0.015,0.315,0.019
	c0.812,0.023,1.625,0.033,2.435,0.04c0.784,0.01,1.57,0.019,2.353,0.008c0.83-0.011,1.656-0.065,2.485-0.08
	c0.809-0.015,1.617-0.017,2.428-0.017c1.581,0,3.164,0.008,4.743,0.053c0.795,0.025,1.591,0.05,2.386,0.061
	c0.768,0.011,1.541,0.008,2.305,0.101c-0.071-0.01-0.14-0.019-0.21-0.029c0.171,0.023,0.342,0.047,0.512,0.07
	c-0.026-0.004-0.052-0.007-0.078-0.01c0.051,0.007,0.103,0.016,0.154,0.025c-0.041,0.245-0.072,0.493-0.103,0.741
	c-0.138,0.964-0.34,1.917-0.507,2.876C25.573,10.324,25.34,11.354,25.128,12.388z M3.748,24.761
	c-0.006-0.109-0.003-0.217,0.006-0.325c0.023-0.13,0.054-0.258,0.097-0.383c0.045-0.091,0.095-0.179,0.151-0.265
	c0.024-0.026,0.049-0.051,0.075-0.076c0.017-0.011,0.034-0.021,0.052-0.031c0.088-0.028,0.177-0.048,0.268-0.064
	C4.9,23.57,5.406,23.594,5.91,23.603c0.564,0.01,1.128,0.034,1.692,0.061c0.434,0.019,0.866,0.048,1.298,0.077
	c0.313,0.019,0.631,0.019,0.948,0.019c0.099,0,0.199-0.002,0.3,0c0.83,0.004,1.659,0,2.489,0.017
	c0.694,0.013,1.39,0.016,2.086,0.024c0.066,0.021,0.136,0.032,0.208,0.033c0.541,0.01,1.08,0.019,1.621,0.027
	c0.832,0.013,1.663,0.006,2.495-0.01c0.828-0.013,1.656-0.004,2.485,0.008c0.816,0.01,1.633,0.013,2.447,0.023
	c0.8,0.009,1.602,0.015,2.397,0.104c0.495,0.081,0.973,0.208,1.447,0.374c0.09,0.043,0.176,0.089,0.26,0.143
	c0.003,0.003,0.006,0.006,0.008,0.008c0.008,0.014,0.017,0.027,0.025,0.041c0.01,0.032,0.018,0.065,0.026,0.098
	c0.003,0.078,0.001,0.156-0.005,0.235c-0.037,0.19-0.091,0.373-0.16,0.554c-0.068,0.146-0.144,0.289-0.231,0.425
	c-0.043,0.048-0.088,0.093-0.135,0.137c-0.053,0.034-0.107,0.065-0.163,0.093c-0.227,0.079-0.46,0.13-0.697,0.168
	c-0.627,0.072-1.255,0.088-1.884,0.096c-0.79,0.01-1.579,0.046-2.369,0.061c-0.809,0.015-1.615,0.029-2.424,0.046
	c-0.83,0.019-1.661,0.036-2.491,0.046c-0.786,0.01-1.571,0.034-2.357,0.023c-1.682-0.025-3.363-0.073-5.043-0.122
	c-0.818-0.025-1.638-0.057-2.457-0.078c-0.792-0.022-1.58-0.052-2.366-0.147c-0.237-0.039-0.462-0.093-0.687-0.174
	c-0.125-0.058-0.243-0.122-0.357-0.198c-0.078-0.072-0.15-0.146-0.22-0.225c-0.076-0.115-0.144-0.235-0.205-0.359
	C3.834,25.076,3.784,24.921,3.748,24.761z M7.55,17.671c0-0.003-0.001-0.005-0.001-0.008c0.003,0.019,0.005,0.038,0.008,0.056
	C7.555,17.703,7.552,17.687,7.55,17.671z M24.57,9.556c-0.107,0.572-0.237,1.141-0.356,1.713c-0.12,0.581-0.216,1.168-0.323,1.751
	c-0.115,0.617-0.218,1.237-0.312,1.86c-0.029,0.185-0.199,0.369-0.354,0.459c-0.118,0.07-0.254,0.106-0.391,0.106
	c-0.069,0-0.137-0.009-0.204-0.028c-0.191-0.054-0.359-0.182-0.461-0.354c-0.113-0.193-0.113-0.38-0.076-0.595
	c0.099-0.614,0.229-1.222,0.359-1.831c0.124-0.577,0.233-1.16,0.346-1.741c0.113-0.57,0.224-1.141,0.338-1.711
	c0.115-0.564,0.203-1.136,0.361-1.69c0.109-0.382,0.512-0.618,0.898-0.51c0.382,0.105,0.619,0.516,0.51,0.898
	C24.753,8.43,24.677,8.997,24.57,9.556z"/>
</svg>