<?xml version="1.0" encoding="utf-8"?>
<!-- Generator: Adobe Illustrator 21.1.0, SVG Export Plug-In . SVG Version: 6.00 Build 0)  -->
<svg version="1.1" id="designs" xmlns="http://www.w3.org/2000/svg" xmlns:xlink="http://www.w3.org/1999/xlink" x="0px" y="0px"
	 width="32px" height="32px" viewBox="0 0 32 32" style="enable-background:new 0 0 32 32;" xml:space="preserve">
<style type="text/css">
	.sketchy_een{fill:#111918;}
</style>
<path class="sketchy_een" d="M30.962,17.072c-0.02-0.738-0.049-1.475-0.061-2.213c-0.016-0.981-0.022-1.958-0.008-2.937
	c0.016-1.06,0.047-2.118,0.051-3.178c0.004-0.439-0.368-0.807-0.807-0.807s-0.809,0.368-0.807,0.807c0,0.083,0.003,0.167,0.004,0.25
	c-0.036,0.004-0.071,0.004-0.107,0.011c-0.043,0.01-0.087,0.018-0.131,0.026c-0.207,0.024-0.413,0.048-0.618,0.077
	c0.069-0.01,0.138-0.02,0.21-0.03c-0.752,0.101-1.511,0.115-2.267,0.133c-0.813,0.02-1.622,0.083-2.431,0.136
	c-0.769,0.051-1.537,0.107-2.306,0.148c-0.829,0.047-1.653,0.051-2.48,0.129c-0.147,0.015-0.274,0.058-0.393,0.125
	c-0.344,0.098-0.61,0.406-0.607,0.778c0,0.072,0.003,0.143,0.003,0.215c-1.072,0.092-2.149,0.126-3.222,0.193
	c-0.578,0.038-1.153,0.081-1.733,0.095c-0.702,0.016-1.402,0.012-2.104-0.002c-0.176-0.003-0.332,0.068-0.465,0.169
	c-0.433,0-0.799,0.364-0.799,0.799c0,0.122,0.004,0.244,0.004,0.365c-0.166,0.012-0.331,0.026-0.496,0.039
	c-0.314,0.026-0.629,0.057-0.945,0.083c-0.659,0.055-1.319,0.093-1.978,0.144c-1.279,0.1-2.562,0.157-3.842,0.263
	c0.002-0.045,0.001-0.09,0.003-0.135c0.02-0.435-0.378-0.797-0.797-0.797c-0.445,0-0.783,0.362-0.797,0.797
	c-0.022,0.643-0.016,1.288-0.028,1.93c-0.008,0.552-0.016,1.104-0.002,1.653c0.028,1.119,0.138,2.235,0.133,3.356
	c-0.002,0.403,0.34,0.74,0.742,0.74c0.399,0,0.744-0.336,0.74-0.74c-0.001-0.153-0.004-0.306-0.006-0.459
	c0.609,0.025,1.218,0.044,1.824,0.08c0.641,0.038,1.282,0.103,1.92,0.162c0.635,0.057,1.27,0.097,1.905,0.134
	c0.582,0.033,1.166,0.068,1.75,0.089c0.02,0.141,0.075,0.27,0.167,0.375c0.048,0.379,0.365,0.688,0.757,0.686
	c1.311-0.008,2.621-0.002,3.93,0.109c0.603,0.051,1.203,0.134,1.806,0.184c0.615,0.051,1.235,0.09,1.85,0.143
	c0.003,0.019,0.006,0.039,0.011,0.058c-0.012,0.052-0.032,0.103-0.032,0.157c0,0.423,0.346,0.758,0.763,0.765
	c0.845,0.014,1.691,0.02,2.534,0.089c0.767,0.063,1.535,0.107,2.3,0.178c0.775,0.071,1.549,0.166,2.324,0.233
	c0.724,0.065,1.446,0.127,2.17,0.188c0.257,0.022,0.512,0.049,0.768,0.073c-0.003,0.115-0.008,0.23-0.012,0.345
	c-0.016,0.423,0.362,0.775,0.773,0.775c0.423,0,0.775-0.352,0.775-0.775c0-0.629,0.055-1.254,0.077-1.883
	c0.026-0.714,0.03-1.432,0.018-2.148C30.982,18.53,30.982,17.8,30.962,17.072z M6.36,18.065c-1.259-0.091-2.513-0.246-3.774-0.337
	c-0.017-0.438-0.041-0.875-0.041-1.313c-0.001-0.669,0.03-1.336,0.048-2.004c0.629-0.071,1.258-0.16,1.888-0.221
	c0.663-0.065,1.325-0.127,1.99-0.176c0.659-0.049,1.319-0.091,1.978-0.136c0.487-0.031,0.972-0.073,1.459-0.095
	c0.012,0.709,0.024,1.419,0.026,2.129c0.002,0.631-0.008,1.264,0.016,1.895c0.005,0.146,0.011,0.292,0.017,0.438
	C8.761,18.234,7.56,18.15,6.36,18.065z M14.868,19.435c-1.129-0.106-2.259-0.178-3.392-0.203c-0.045-1.101-0.069-2.2-0.068-3.301
	c0-1.106,0.037-2.212,0.061-3.318c0.579-0.006,1.157-0.023,1.735-0.063c0.574-0.042,1.143-0.101,1.717-0.138
	c0.581-0.038,1.165-0.053,1.748-0.079c0.521-0.022,1.041-0.058,1.564-0.061c0.005,0.273,0.01,0.547,0.013,0.82
	c0.012,0.783-0.002,1.566,0.036,2.348c0.036,0.773,0.095,1.547,0.136,2.322c0.034,0.664,0.044,1.327,0.062,1.991
	c-0.595-0.04-1.19-0.078-1.785-0.126C16.084,19.577,15.477,19.492,14.868,19.435z M25.236,21.104
	c-0.769-0.069-1.539-0.14-2.308-0.196c-0.767-0.053-1.531-0.148-2.298-0.192c-0.227-0.014-0.453-0.021-0.679-0.032
	c-0.002-0.304-0.003-0.608-0.002-0.911c0.515,0.067,1.029,0.106,1.549,0.107c0.57,0.002,1.141,0.006,1.711,0.038
	c0.56,0.034,1.119,0.063,1.677,0.129c0.536,0.065,1.072,0.095,1.608,0.15c0.184,0.02,0.392-0.089,0.518-0.214
	c0.136-0.136,0.214-0.324,0.214-0.516c0-0.407-0.332-0.722-0.732-0.732c-0.487-0.014-0.975-0.047-1.462-0.095
	c-0.514-0.049-1.03-0.079-1.549-0.111c-0.528-0.032-1.056-0.059-1.584-0.083c-0.47-0.02-0.936-0.066-1.403-0.123
	c-0.127-0.019-0.253-0.038-0.379-0.059c-0.066-0.012-0.13-0.017-0.192-0.019c-0.014-0.526-0.029-1.052-0.052-1.578
	c-0.034-0.767-0.065-1.537-0.065-2.306c-0.002-0.823,0.008-1.644,0.022-2.466c0.005-0.25,0.008-0.5,0.012-0.75
	c1.382-0.126,2.766-0.199,4.15-0.288c0.809-0.053,1.62-0.089,2.431-0.103c0.771-0.014,1.541-0.057,2.31-0.107
	c0.203-0.014,0.406-0.038,0.608-0.059c-0.003,0.194,0.002,0.389-0.009,0.583c-0.042,0.73-0.038,1.462-0.016,2.191
	c0.022,0.72,0.028,1.438,0.063,2.156c0.038,0.752,0.077,1.503,0.091,2.255c0.016,0.951,0.006,1.905-0.012,2.856
	c-0.005,0.265-0.022,0.53-0.036,0.794C28.03,21.279,26.628,21.23,25.236,21.104z M17.175,17.905c0,0.196-0.079,0.388-0.218,0.526
	c-0.127,0.127-0.342,0.239-0.528,0.218c-0.52-0.055-1.044-0.075-1.568-0.099c-0.581-0.028-1.163-0.057-1.744-0.093
	c-0.435-0.026-0.799-0.342-0.799-0.799c0-0.391,0.336-0.801,0.748-0.801c0.017,0,0.034,0.001,0.051,0.002
	c0.581,0.049,1.163,0.101,1.744,0.164c0.52,0.057,1.044,0.131,1.568,0.136C16.836,17.163,17.175,17.494,17.175,17.905z"/>
</svg>