<?xml version="1.0" encoding="utf-8"?>
<!-- Generator: Adobe Illustrator 21.1.0, SVG Export Plug-In . SVG Version: 6.00 Build 0)  -->
<svg version="1.1" id="designs" xmlns="http://www.w3.org/2000/svg" xmlns:xlink="http://www.w3.org/1999/xlink" x="0px" y="0px"
	 width="32px" height="32px" viewBox="0 0 32 32" style="enable-background:new 0 0 32 32;" xml:space="preserve">
<style type="text/css">
	.sketchy_een{fill:#111918;}
</style>
<path class="sketchy_een" d="M29.31,7.311c-0.443-0.109-0.926-0.07-1.38-0.092c-0.402-0.019-0.803-0.036-1.205-0.055
	c-0.777-0.034-1.55-0.036-2.325-0.042c-0.801-0.006-1.603-0.051-2.402-0.057c-0.796-0.004-1.589-0.002-2.383,0
	c-1.591,0-3.181,0.002-4.77,0.019c-0.805,0.009-1.61,0.025-2.415,0.015c-0.805-0.008-1.608-0.019-2.412-0.019
	c-1.178,0-2.357,0.002-3.537-0.011C5.84,7.061,5.2,7.054,4.559,7.054c-0.545,0-1.09,0.005-1.635,0.019
	C2.462,7.084,2.075,7.45,2.075,7.921c0,0.372,0.271,0.707,0.625,0.806C2.699,9.025,2.698,9.323,2.699,9.621
	c0,0.379,0.04,0.754,0.089,1.129c0.058,0.453,0.113,0.903,0.204,1.35c0.074,0.368,0.173,0.735,0.296,1.09
	c0.149,0.436,0.305,0.865,0.494,1.286c0.16,0.354,0.368,0.694,0.588,1.012c0.271,0.387,0.562,0.758,0.86,1.126
	c0.247,0.305,0.485,0.624,0.745,0.922c0.575,0.659,1.226,1.233,1.912,1.77c0.34,0.26,0.693,0.484,1.058,0.71
	c0.334,0.206,0.664,0.417,1.003,0.613c0.732,0.424,1.499,0.797,2.314,1.03c0.356,0.1,0.715,0.179,1.078,0.245
	c-0.216,0.142-0.423,0.298-0.614,0.472c-0.392,0.358-0.711,0.79-0.92,1.278c-0.113,0.266-0.204,0.537-0.3,0.809
	c-0.09,0.256-0.194,0.511-0.292,0.764c-0.078,0.196-0.019,0.459,0.081,0.637c-0.024,0.074-0.048,0.149-0.048,0.231
	c0,0.426,0.358,0.794,0.788,0.788c0.762-0.009,1.525-0.041,2.287-0.011c0.694,0.026,1.386,0.085,2.078,0.113
	c1.363,0.058,2.726,0.058,4.09,0.072c0.415,0.004,0.762-0.351,0.762-0.762c0-0.124-0.04-0.239-0.097-0.347
	c0.002-0.085,0.007-0.169-0.017-0.255c-0.106-0.381-0.238-0.75-0.388-1.116c-0.179-0.439-0.36-0.884-0.598-1.295
	c-0.236-0.402-0.496-0.809-0.845-1.122c-0.142-0.128-0.294-0.241-0.449-0.351c0.315-0.042,0.63-0.084,0.943-0.141
	c0.4-0.074,0.794-0.176,1.18-0.298c0.437-0.141,0.856-0.349,1.269-0.547c0.701-0.336,1.333-0.792,1.972-1.226
	c0.409-0.275,0.801-0.562,1.141-0.922c0.351-0.372,0.617-0.822,0.873-1.26c0.403-0.686,0.718-1.416,1.026-2.15
	c0.29-0.69,0.558-1.407,0.715-2.142c0.164-0.765,0.292-1.539,0.394-2.315c0.084-0.641,0.107-1.286,0.135-1.93
	c0.061,0.005,0.123,0.005,0.184,0.011c0.059,0.011,0.117,0.025,0.175,0.043c0.437,0.134,0.914-0.156,1.033-0.586
	C30.015,7.912,29.755,7.42,29.31,7.311z M19.195,25.303c0.026,0.079,0.039,0.162,0.061,0.242c-0.932,0.007-1.866-0.003-2.796-0.054
	c-0.688-0.036-1.376-0.091-2.065-0.132c-0.478-0.029-0.958-0.033-1.437-0.039c0.05-0.139,0.102-0.277,0.148-0.417
	c0.071-0.212,0.129-0.426,0.204-0.636c0.074-0.147,0.156-0.285,0.25-0.421c0.176-0.208,0.367-0.396,0.576-0.571
	c0.261-0.183,0.536-0.33,0.826-0.46c0.336-0.132,0.674-0.249,1.027-0.318c0.222-0.021,0.441-0.028,0.665-0.017
	c0.18,0.03,0.353,0.07,0.526,0.133c0.253,0.122,0.493,0.26,0.725,0.42c0.136,0.117,0.261,0.241,0.38,0.377
	c0.249,0.35,0.452,0.731,0.625,1.124C19.011,24.788,19.11,25.042,19.195,25.303z M26.806,11.295
	c-0.082,0.569-0.194,1.134-0.329,1.693c-0.135,0.559-0.368,1.097-0.593,1.629c-0.434,0.978-0.878,1.957-1.505,2.832
	c-0.185,0.221-0.389,0.416-0.607,0.605c-0.438,0.329-0.894,0.641-1.351,0.938c-0.27,0.175-0.545,0.343-0.832,0.49
	c-0.25,0.127-0.504,0.243-0.76,0.356c-0.738,0.285-1.513,0.441-2.295,0.554c-0.739,0.097-1.483,0.176-2.227,0.206
	c-0.381,0.015-0.764,0.015-1.146,0.004c-0.407-0.009-0.818-0.021-1.222-0.075c0.032,0.004,0.063,0.009,0.094,0.013
	c-0.04-0.005-0.081-0.011-0.122-0.017c-0.009-0.001-0.018-0.002-0.027-0.003c-0.611-0.105-1.207-0.273-1.791-0.483
	c-0.545-0.243-1.064-0.526-1.574-0.84c-0.287-0.177-0.564-0.37-0.848-0.554c-0.235-0.154-0.469-0.308-0.697-0.475
	c-0.363-0.297-0.716-0.608-1.049-0.938c-0.356-0.354-0.681-0.726-0.99-1.12c-0.139-0.183-0.278-0.364-0.418-0.545
	c-0.095-0.122-0.19-0.245-0.285-0.367c0.045,0.056,0.089,0.113,0.132,0.169c-0.435-0.564-0.82-1.168-1.119-1.814
	c-0.428-1.079-0.726-2.201-0.895-3.349c-0.046-0.495-0.027-0.99-0.014-1.485c0.369-0.015,0.738-0.034,1.106-0.042
	c0.852-0.017,1.706-0.023,2.559-0.038c0.803-0.015,1.606-0.043,2.41-0.055c0.792-0.009,1.584-0.008,2.376-0.006
	c1.062,0.004,2.123-0.008,3.185-0.017c2.123-0.019,4.248-0.039,6.371,0.04c1.079,0.04,2.159,0.072,3.237,0.111
	c0.46,0.016,0.919,0.048,1.378,0.075C26.95,9.191,26.956,9.595,26.931,10C26.907,10.432,26.86,10.865,26.806,11.295z M7.85,19.278
	c0.012,0.009,0.024,0.018,0.036,0.028c0.016,0.013,0.033,0.025,0.049,0.038C7.907,19.322,7.878,19.3,7.85,19.278z M10.483,16.484
	c0,0.447-0.373,0.82-0.82,0.82c-0.447,0-0.82-0.373-0.82-0.82s0.373-0.82,0.82-0.82C10.11,15.664,10.483,16.037,10.483,16.484z
	 M14.746,16.626c0,0.418-0.351,0.769-0.769,0.769c-0.419,0-0.769-0.351-0.769-0.769c0-0.419,0.351-0.769,0.769-0.769
	C14.395,15.857,14.746,16.207,14.746,16.626z M18.85,16.768c0,0.447-0.373,0.82-0.82,0.82s-0.82-0.373-0.82-0.82
	s0.373-0.82,0.82-0.82S18.85,16.321,18.85,16.768z M22.904,16.854c0,0.447-0.373,0.82-0.82,0.82s-0.82-0.373-0.82-0.82
	c0-0.447,0.373-0.82,0.82-0.82S22.904,16.407,22.904,16.854z M16.563,18.713c0,0.438-0.366,0.804-0.803,0.804
	c-0.437,0-0.803-0.366-0.803-0.804c0-0.437,0.366-0.803,0.803-0.803C16.197,17.91,16.563,18.276,16.563,18.713z M16.789,14.61
	c0,0.36-0.3,0.66-0.66,0.66c-0.36,0-0.66-0.3-0.66-0.66c0-0.36,0.3-0.66,0.66-0.66C16.49,13.95,16.789,14.25,16.789,14.61z
	 M11.47,14.658c0-0.407,0.341-0.749,0.749-0.749s0.749,0.341,0.749,0.749s-0.341,0.748-0.749,0.748S11.47,15.065,11.47,14.658z
	 M20.384,14.707c0,0.447-0.373,0.82-0.82,0.82c-0.447,0-0.82-0.373-0.82-0.82c0-0.447,0.373-0.82,0.82-0.82
	C20.011,13.887,20.384,14.26,20.384,14.707z M8.795,14.527c0,0.436-0.362,0.798-0.798,0.798c-0.436,0-0.798-0.362-0.798-0.798
	c0-0.435,0.362-0.797,0.798-0.797C8.433,13.73,8.795,14.092,8.795,14.527z M24.425,14.669c0,0.415-0.345,0.76-0.76,0.76
	s-0.76-0.345-0.76-0.76c0-0.415,0.345-0.76,0.76-0.76S24.425,14.254,24.425,14.669z M10.765,12.522c0,0.445-0.371,0.817-0.816,0.817
	s-0.816-0.372-0.816-0.817c0-0.445,0.371-0.816,0.816-0.816S10.765,12.077,10.765,12.522z M15.101,12.44
	c0,0.379-0.317,0.696-0.696,0.696c-0.379,0-0.696-0.317-0.696-0.696c0-0.379,0.317-0.696,0.696-0.696
	C14.784,11.744,15.101,12.061,15.101,12.44z M17.303,12.593c0-0.422,0.353-0.775,0.775-0.775s0.775,0.353,0.775,0.775
	c0,0.422-0.353,0.775-0.775,0.775S17.303,13.015,17.303,12.593z M21.443,12.925c0-0.4,0.336-0.735,0.735-0.735
	c0.4,0,0.735,0.336,0.735,0.735c0,0.4-0.336,0.736-0.735,0.736C21.779,13.661,21.443,13.325,21.443,12.925z M7.032,12.462
	c0,0.426-0.354,0.781-0.781,0.781c-0.426,0-0.781-0.354-0.781-0.781c0-0.426,0.354-0.78,0.781-0.78
	C6.677,11.682,7.032,12.036,7.032,12.462z M26.06,12.761c0,0.366-0.305,0.671-0.671,0.671c-0.366,0-0.671-0.305-0.671-0.671
	c0-0.366,0.305-0.671,0.671-0.671C25.755,12.09,26.06,12.395,26.06,12.761z M13.089,18.478c0,0.39-0.326,0.716-0.717,0.716
	c-0.39,0-0.716-0.326-0.716-0.716c0-0.39,0.326-0.717,0.716-0.717C12.763,17.762,13.089,18.088,13.089,18.478z M20.334,18.739
	c0,0.381-0.319,0.7-0.7,0.7s-0.7-0.319-0.7-0.7c0-0.381,0.319-0.699,0.7-0.699S20.334,18.359,20.334,18.739z"/>
</svg>