<?xml version="1.0" encoding="utf-8"?>
<!-- Generator: Adobe Illustrator 21.1.0, SVG Export Plug-In . SVG Version: 6.00 Build 0)  -->
<svg version="1.1" id="designs" xmlns="http://www.w3.org/2000/svg" xmlns:xlink="http://www.w3.org/1999/xlink" x="0px" y="0px"
	 width="32px" height="32px" viewBox="0 0 32 32" style="enable-background:new 0 0 32 32;" xml:space="preserve">
<style type="text/css">
	.sketchy_een{fill:#111918;}
</style>
<path class="sketchy_een" d="M16.754,7.766c-0.048,0.021-0.096,0.044-0.144,0.064c-0.012,0.005-0.025,0.008-0.037,0.013
	C16.633,7.817,16.693,7.793,16.754,7.766z M17.918,13.239c0.024-0.019,0.048-0.038,0.073-0.056c0.015-0.012,0.03-0.024,0.045-0.036
	C17.997,13.178,17.957,13.209,17.918,13.239z M30.89,24.328c-0.228,0.365-0.595,0.452-0.993,0.461
	c-0.166,0.006-0.331,0.004-0.497,0.004c-0.73,0.006-1.462,0.004-2.192-0.007c-1.554-0.024-3.106-0.032-4.66-0.024
	c-1.547,0.007-3.093,0.047-4.642,0.038c-0.775-0.004-1.55-0.013-2.327-0.019c-0.73-0.005-1.462,0.006-2.194,0.012
	c-0.502,0.058-1.009,0.086-1.512,0.096c-0.625,0.013-1.249,0.013-1.874,0.006c-0.862-0.012-1.722-0.026-2.576-0.154
	c-0.794-0.119-1.558-0.371-2.31-0.646c-0.429-0.156-0.854-0.342-1.244-0.583c-0.455-0.282-0.865-0.628-1.229-1.021
	c-0.318-0.342-0.627-0.713-0.873-1.108c-0.241-0.386-0.427-0.798-0.564-1.232c-0.199-0.625-0.26-1.281-0.147-1.929
	c0.1-0.566,0.367-1.061,0.726-1.501c0.341-0.416,0.722-0.79,1.174-1.085c0.1-0.065,0.215-0.111,0.325-0.164
	c-0.054-0.143-0.111-0.284-0.154-0.431c-0.175-0.568-0.209-1.174-0.181-1.767c0.028-0.617,0.098-1.263,0.309-1.848
	c0.103-0.292,0.224-0.572,0.399-0.828c0.079-0.115,0.164-0.226,0.248-0.336c0.19-0.247,0.386-0.493,0.628-0.694
	c0.13-0.107,0.258-0.214,0.388-0.32c0.169-0.139,0.335-0.233,0.561-0.233c0.211,0,0.414,0.084,0.563,0.233
	c0.147,0.148,0.231,0.352,0.231,0.561c0,0.192-0.077,0.437-0.231,0.561c-0.196,0.158-0.401,0.311-0.579,0.485
	c-0.146,0.145-0.277,0.299-0.405,0.457c-0.1,0.141-0.191,0.281-0.268,0.436c-0.093,0.252-0.157,0.508-0.203,0.773
	c-0.046,0.433-0.069,0.864-0.052,1.298c0.158-0.298,0.324-0.591,0.513-0.87c0.171-0.25,0.357-0.497,0.566-0.715
	c0.203-0.212,0.421-0.392,0.655-0.57c0.261-0.199,0.6-0.316,0.909-0.417c0.228-0.075,0.461-0.136,0.696-0.177
	c0.235-0.042,0.446-0.038,0.659,0.086c0.192,0.111,0.333,0.297,0.393,0.51c0.06,0.22,0.028,0.461-0.087,0.659
	c-0.1,0.171-0.305,0.363-0.51,0.393c-0.348,0.049-0.685,0.123-1.014,0.239c-0.092,0.047-0.179,0.1-0.265,0.158
	c-0.197,0.169-0.375,0.351-0.545,0.547c-0.368,0.497-0.674,1.044-0.948,1.602c0.423,0.113,0.828,0.297,1.19,0.559
	c0.348,0.252,0.666,0.544,0.937,0.879c0.26,0.32,0.505,0.649,0.752,0.977c0.29,0.364,0.6,0.705,0.954,1.005
	c0.074,0.052,0.153,0.092,0.23,0.137c-0.014-0.109-0.035-0.217-0.047-0.326c-0.09-0.828-0.126-1.676,0.062-2.495
	c0.216-0.958,0.536-1.876,0.943-2.768c0.389-0.858,0.975-1.614,1.594-2.32c0.617-0.702,1.291-1.343,2.068-1.867
	c0.741-0.496,1.555-0.864,2.372-1.211c0.809-0.338,1.64-0.564,2.515-0.648c0.489-0.048,0.985-0.081,1.48-0.081
	c0.302,0,0.604,0.012,0.904,0.042c0.805,0.077,1.586,0.239,2.342,0.527c0.918,0.346,1.718,0.896,2.452,1.541
	c0.653,0.576,1.291,1.176,1.697,1.96c0.423,0.818,0.745,1.693,0.881,2.61c0.077,0.532,0.139,1.061,0.145,1.599
	c0.004,0.423-0.024,0.849-0.07,1.27c-0.105,0.973-0.356,1.923-0.794,2.801c-0.186,0.378-0.393,0.749-0.632,1.097
	c-0.069,0.1-0.145,0.195-0.216,0.293c0.166,0.024,0.33,0.086,0.464,0.207c0.229,0.205,0.462,0.408,0.702,0.602
	c0.493,0.364,1.015,0.682,1.505,1.047c0.205,0.152,0.41,0.308,0.606,0.472c0.111,0.09,0.201,0.173,0.282,0.299
	C31.031,23.719,31.048,24.072,30.89,24.328z M10.643,23.262c0.327,0.002,0.655,0.005,0.983,0.007
	c-0.104-0.105-0.217-0.201-0.315-0.314c-0.275-0.316-0.534-0.653-0.745-1.016c-0.207-0.361-0.371-0.747-0.514-1.138
	c-0.001-0.003-0.002-0.007-0.003-0.01c-0.072,0-0.147,0.009-0.208-0.016c-0.403-0.167-0.854-0.33-1.208-0.589
	c-0.348-0.256-0.666-0.537-0.958-0.856c-0.392-0.427-0.735-0.896-1.086-1.357c-0.238-0.294-0.487-0.567-0.776-0.812
	c-0.157-0.111-0.317-0.209-0.491-0.294c-0.148-0.052-0.297-0.093-0.451-0.124c-0.068-0.005-0.134,0-0.201,0
	c-0.128,0.049-0.267,0.067-0.404,0.049c-0.081,0.022-0.164,0.04-0.244,0.069C3.882,16.932,3.746,17.01,3.615,17.1
	c-0.223,0.189-0.425,0.409-0.61,0.637c-0.086,0.125-0.162,0.251-0.232,0.386c-0.051,0.141-0.091,0.283-0.118,0.432
	c-0.016,0.204-0.01,0.406,0.01,0.61c0.051,0.274,0.135,0.54,0.231,0.801c0.163,0.351,0.369,0.667,0.598,0.979
	c0.277,0.344,0.578,0.669,0.916,0.957c0.292,0.207,0.606,0.376,0.928,0.533c0.813,0.33,1.66,0.586,2.527,0.727
	C8.79,23.249,9.715,23.258,10.643,23.262z M18.928,23.292c-0.489-0.252-0.978-0.57-1.344-0.985c-0.335-0.38-0.643-0.781-0.911-1.214
	c-0.246-0.395-0.436-0.82-0.608-1.253c-0.179-0.453-0.235-0.963-0.295-1.443c-0.053-0.429-0.077-0.87-0.021-1.3
	c0.062-0.479,0.12-0.956,0.28-1.415c0.36-1.037,1.12-1.831,1.962-2.498c0.177-0.135,0.355-0.262,0.554-0.37
	c0.184-0.1,0.378-0.185,0.572-0.267c0.31-0.134,0.636-0.273,0.967-0.342c0.389-0.081,0.802-0.162,1.198-0.149
	c0.239,0.008,0.472,0.023,0.707,0.053c0.26,0.032,0.502,0.073,0.747,0.164c0.222,0.083,0.433,0.187,0.636,0.307
	c0.453,0.271,0.879,0.61,1.212,1.024c0.384,0.478,0.632,1.046,0.768,1.642c0.154,0.67,0.139,1.387-0.115,2.03
	c-0.164,0.418-0.376,0.789-0.683,1.124c-0.175,0.188-0.361,0.359-0.572,0.508c-0.48,0.34-1.065,0.566-1.658,0.595
	c-0.28,0.013-0.568-0.006-0.841-0.07c-0.461-0.109-0.805-0.354-1.165-0.644c-0.182-0.146-0.273-0.435-0.273-0.658
	c0-0.247,0.098-0.485,0.273-0.659c0.173-0.175,0.412-0.275,0.659-0.275c0.253,0,0.436,0.099,0.625,0.247
	c0.072,0.049,0.144,0.094,0.219,0.137c0.048,0.014,0.097,0.025,0.146,0.036c0.084,0.004,0.167,0.003,0.25-0.001
	c0.112-0.023,0.221-0.054,0.33-0.09c0.119-0.06,0.232-0.125,0.343-0.2c0.111-0.099,0.215-0.204,0.313-0.316
	c0.077-0.114,0.142-0.232,0.202-0.356c0.042-0.118,0.076-0.235,0.102-0.357c0.013-0.166,0.016-0.329,0.004-0.495
	c-0.039-0.209-0.091-0.412-0.162-0.613c-0.068-0.139-0.14-0.275-0.226-0.404c-0.124-0.142-0.258-0.273-0.399-0.399
	c-0.185-0.133-0.376-0.254-0.58-0.356c-0.142-0.047-0.285-0.08-0.431-0.105c-0.261-0.02-0.52-0.032-0.781-0.008
	c-0.229,0.036-0.456,0.079-0.675,0.156c-0.101,0.037-0.2,0.074-0.298,0.113c-0.296,0.136-0.577,0.283-0.846,0.468
	c-0.32,0.267-0.602,0.562-0.869,0.881c-0.121,0.178-0.222,0.362-0.314,0.554c-0.099,0.285-0.165,0.57-0.211,0.866
	c-0.042,0.444-0.036,0.879,0.013,1.321c0.062,0.377,0.142,0.745,0.273,1.105c0.208,0.457,0.454,0.892,0.746,1.3
	c0.192,0.234,0.395,0.451,0.625,0.646c0.319,0.22,0.655,0.407,1.005,0.573c0.223,0.084,0.447,0.148,0.682,0.198
	c0.395,0.033,0.781,0.022,1.175-0.019c0.352-0.059,0.686-0.147,1.018-0.274c0.52-0.247,1.004-0.547,1.47-0.883
	c0.186-0.151,0.367-0.306,0.54-0.473c0.168-0.162,0.315-0.344,0.46-0.527c0.349-0.482,0.651-0.99,0.903-1.528
	c0.224-0.572,0.378-1.154,0.475-1.759c0.084-0.826,0.082-1.646-0.011-2.469c-0.101-0.633-0.25-1.247-0.482-1.843
	c-0.159-0.352-0.341-0.684-0.561-1.001c-0.412-0.503-0.897-0.964-1.403-1.37c-0.382-0.282-0.775-0.535-1.208-0.734
	c-0.621-0.233-1.259-0.41-1.915-0.508c-0.851-0.095-1.707-0.078-2.557,0.011c-0.588,0.09-1.155,0.248-1.708,0.469
	c-0.923,0.411-1.795,0.897-2.613,1.491c-0.633,0.536-1.191,1.138-1.718,1.78c-0.19,0.252-0.376,0.507-0.54,0.777
	c-0.175,0.291-0.327,0.586-0.466,0.894c-0.137,0.332-0.269,0.668-0.368,1.014c-0.137,0.475-0.277,0.958-0.356,1.448
	c-0.03,0.303-0.045,0.604-0.03,0.909c0.014,0.285,0.043,0.568,0.077,0.851c0.101,0.69,0.259,1.363,0.511,2.013
	c0.176,0.38,0.379,0.733,0.621,1.074c0.239,0.295,0.495,0.571,0.774,0.827c0.339,0.311,0.711,0.585,1.069,0.871
	c0.041,0.034,0.061,0.091,0.093,0.137c0.95,0.015,1.899,0.034,2.85,0.036C17.751,23.308,18.339,23.296,18.928,23.292z
	 M27.896,23.172c-0.432-0.312-0.841-0.649-1.243-1c-0.1-0.088-0.155-0.203-0.19-0.325c-0.572,0.53-1.217,1.005-1.91,1.366
	c0.375-0.003,0.75-0.006,1.125-0.01C26.416,23.194,27.156,23.18,27.896,23.172z M4.758,17.882c-0.446,0-0.818,0.373-0.818,0.818
	c0,0.446,0.373,0.819,0.818,0.819c0.446,0,0.818-0.373,0.818-0.819C5.576,18.254,5.204,17.882,4.758,17.882z"/>
</svg>