<?xml version="1.0" encoding="utf-8"?>
<!-- Generator: Adobe Illustrator 21.1.0, SVG Export Plug-In . SVG Version: 6.00 Build 0)  -->
<svg version="1.1" id="designs" xmlns="http://www.w3.org/2000/svg" xmlns:xlink="http://www.w3.org/1999/xlink" x="0px" y="0px"
	 width="32px" height="32px" viewBox="0 0 32 32" style="enable-background:new 0 0 32 32;" xml:space="preserve">
<style type="text/css">
	.sketchy_een{fill:#111918;}
</style>
<path class="sketchy_een" d="M8,13.649c-0.006,0.014-0.012,0.027-0.017,0.042c0,0,0,0.001,0,0.001
	C7.988,13.678,7.994,13.663,8,13.649z M23.705,27.216c-0.012,0.016-0.025,0.032-0.038,0.047c0,0-0.001,0.002-0.002,0.003
	C23.679,27.25,23.692,27.233,23.705,27.216z M26.095,20.227c-0.02,0.842-0.187,1.688-0.37,2.509
	c-0.187,0.848-0.454,1.671-0.823,2.458c-0.34,0.726-0.744,1.436-1.235,2.07c-0.277,0.358-0.561,0.719-0.89,1.029
	c-0.364,0.344-0.789,0.639-1.213,0.906c-0.683,0.432-1.398,0.836-2.157,1.125c-0.697,0.263-1.438,0.422-2.179,0.498
	c-0.358,0.036-0.715,0.082-1.071,0.119c-0.374,0.038-0.755,0.048-1.129,0.058c-0.709,0.02-1.394-0.229-2.059-0.444
	c-0.345-0.111-0.695-0.209-1.03-0.349c-0.4-0.167-0.787-0.354-1.165-0.563c-0.731-0.402-1.402-0.92-2.023-1.472
	c-0.354-0.314-0.667-0.651-0.952-1.029c-0.249-0.329-0.458-0.686-0.659-1.044c-0.193-0.344-0.351-0.711-0.508-1.071
	c-0.175-0.398-0.357-0.799-0.458-1.221c-0.201-0.818-0.255-1.675-0.271-2.513c-0.006-0.378,0.006-0.765,0.04-1.141
	c0.04-0.44,0.082-0.888,0.179-1.318c0.191-0.831,0.454-1.637,0.739-2.44c0.27-0.758,0.605-1.492,0.923-2.231
	c-0.008,0.02-0.017,0.04-0.025,0.061c0.014-0.033,0.027-0.065,0.041-0.099c0.01-0.022,0.019-0.044,0.029-0.067
	c-0.008,0.019-0.016,0.038-0.024,0.057c0.059-0.142,0.118-0.283,0.178-0.424c0.466-1.104,0.953-2.196,1.523-3.252
	c0.384-0.711,0.793-1.41,1.189-2.117c0.396-0.711,0.771-1.434,1.219-2.117c0.44-0.673,0.904-1.332,1.344-2.007
	c0.217-0.336,0.436-0.671,0.653-1.01c0.23-0.358,0.499-0.689,0.76-1.025c0.049-0.062,0.097-0.125,0.141-0.191
	c-0.038-0.334,0.103-0.671,0.418-0.856C15.361,1.038,15.516,1,15.672,1c0.306,0,0.614,0.146,0.754,0.429
	c0.159,0.323,0.305,0.661,0.494,0.97c0.173,0.279,0.361,0.544,0.559,0.806c0.312,0.404,0.621,0.809,0.91,1.229
	c0.259,0.375,0.527,0.746,0.804,1.11c0.229,0.292,0.462,0.582,0.676,0.886c0.205,0.289,0.406,0.58,0.611,0.866
	c0.185,0.261,0.384,0.514,0.572,0.773c0.203,0.283,0.402,0.565,0.603,0.848c0.46,0.644,0.878,1.318,1.277,2.001
	c0.408,0.703,0.82,1.414,1.155,2.157c0.333,0.735,0.673,1.468,0.99,2.211c0.171,0.398,0.321,0.809,0.474,1.217
	c0.141,0.38,0.249,0.767,0.331,1.165C26.053,18.51,26.115,19.367,26.095,20.227z M24.623,19.753c-0.002-0.44-0.036-0.879-0.08-1.316
	c-0.066-0.424-0.157-0.843-0.287-1.25c-0.145-0.454-0.317-0.898-0.489-1.342c-0.25-0.584-0.515-1.163-0.775-1.741
	c-0.287-0.641-0.609-1.261-0.958-1.87c-0.352-0.617-0.713-1.23-1.101-1.826c-0.372-0.574-0.783-1.125-1.195-1.671
	c0.011,0.014,0.022,0.028,0.033,0.042c-0.4-0.514-0.792-1.035-1.183-1.557c-0.344-0.434-0.703-0.854-1.037-1.297
	c-0.279-0.372-0.554-0.747-0.832-1.117c-0.283-0.352-0.587-0.688-0.867-1.044c-0.098-0.124-0.191-0.25-0.281-0.377
	c-0.052,0.066-0.103,0.132-0.155,0.198c-0.452,0.6-0.862,1.229-1.288,1.848c-0.426,0.621-0.88,1.23-1.273,1.874
	c-0.426,0.695-0.812,1.414-1.215,2.123c-0.398,0.701-0.789,1.406-1.155,2.125c-0.708,1.384-1.308,2.823-1.918,4.252
	C8.082,17.02,7.66,18.259,7.44,19.551c-0.109,1.069-0.079,2.131,0.053,3.197c0.038,0.235,0.077,0.471,0.147,0.699
	c0.07,0.224,0.147,0.441,0.234,0.657c0.159,0.353,0.321,0.705,0.506,1.045c0.192,0.355,0.407,0.695,0.64,1.024
	c0.162,0.193,0.331,0.375,0.513,0.551c0.183,0.179,0.385,0.336,0.585,0.494c0.742,0.554,1.528,1.039,2.376,1.416
	c0.416,0.161,0.848,0.274,1.269,0.424c0.354,0.127,0.721,0.23,1.093,0.293c0.158,0.014,0.317,0.013,0.477,0.012
	c0.247-0.002,0.494-0.004,0.739-0.028c0.449-0.045,0.898-0.101,1.348-0.151c0.631-0.091,1.254-0.204,1.851-0.436
	c0.746-0.352,1.455-0.761,2.121-1.246c0.222-0.182,0.431-0.371,0.621-0.589c0.175-0.2,0.346-0.402,0.512-0.61
	c0.483-0.668,0.884-1.397,1.222-2.15c0.201-0.498,0.368-1.005,0.494-1.528c0.127-0.53,0.231-1.065,0.311-1.606
	C24.599,20.598,24.625,20.179,24.623,19.753z M7.804,14.114c-0.007,0.016-0.014,0.032-0.021,0.048
	c0.005-0.013,0.011-0.025,0.016-0.038C7.802,14.121,7.803,14.117,7.804,14.114z M22.824,16.68c-0.105-0.366-0.442-0.613-0.808-0.613
	c-0.072,0-0.145,0.009-0.217,0.029c-0.426,0.117-0.719,0.591-0.582,1.025c0.112,0.358,0.222,0.716,0.284,1.086
	c0.066,0.547,0.113,1.092,0.099,1.645c-0.006,0.211-0.02,0.422-0.028,0.633c-0.011,0.271-0.015,0.542-0.043,0.812
	c-0.114,0.69-0.309,1.363-0.568,2.013c-0.174,0.38-0.375,0.733-0.625,1.068c-0.19,0.237-0.399,0.464-0.633,0.658
	c-0.042,0.028-0.085,0.053-0.13,0.075c-0.048,0.02-0.095,0.041-0.138,0.069c-0.362,0.233-0.508,0.695-0.285,1.08
	c0.104,0.175,0.275,0.309,0.472,0.362c0.253,0.07,0.591,0.008,0.769-0.203c0.096-0.113,0.215-0.211,0.325-0.312
	c0.215-0.201,0.428-0.402,0.619-0.627c0.197-0.229,0.386-0.466,0.552-0.719c0.221-0.341,0.398-0.705,0.55-1.082
	c0.227-0.563,0.446-1.145,0.591-1.736c0.131-0.528,0.167-1.072,0.209-1.611c0.04-0.492,0.044-1.002-0.014-1.494
	C23.135,18.113,23.025,17.38,22.824,16.68z"/>
</svg>