<?xml version="1.0" encoding="utf-8"?>
<!-- Generator: Adobe Illustrator 21.1.0, SVG Export Plug-In . SVG Version: 6.00 Build 0)  -->
<svg version="1.1" id="designs" xmlns="http://www.w3.org/2000/svg" xmlns:xlink="http://www.w3.org/1999/xlink" x="0px" y="0px"
	 width="32px" height="32px" viewBox="0 0 32 32" style="enable-background:new 0 0 32 32;" xml:space="preserve">
<style type="text/css">
	.sketchy_een{fill:#111918;}
</style>
<path class="sketchy_een" d="M16.185,27.981c-0.255,0-0.496-0.114-0.661-0.312c-0.077-0.051-0.123-0.08-0.156-0.121
	c-0.055-0.068-0.113-0.128-0.177-0.186c-0.114-0.08-0.596-0.403-0.596-0.403c-0.229-0.159-0.447-0.333-0.664-0.507l-0.164-0.13
	c-0.34-0.257-0.688-0.5-1.035-0.744c-0.367-0.257-0.734-0.514-1.09-0.786l0.047,0.163l-0.069-0.18l-0.112,0.042l0.105-0.047
	c-0.489-0.381-0.973-0.77-1.439-1.184c-0.294-0.261-0.58-0.531-0.865-0.801c-0.388-0.367-0.776-0.734-1.185-1.078l-0.481-0.398
	c-0.565-0.465-1.15-0.945-1.655-1.489c-1.573-1.698-2.704-3.41-3.361-5.089c-0.191-0.487-0.336-0.941-0.444-1.389
	c-0.067-0.278-0.099-0.569-0.131-0.854C2.023,12.246,1.996,12.018,2,11.79c0.01-0.582,0.044-1.067,0.106-1.527
	c0.051-0.357,0.154-0.74,0.325-1.208c0.148-0.41,0.34-0.827,0.62-1.353c0.13-0.242,0.239-0.446,0.368-0.64
	c0.152-0.232,0.32-0.451,0.49-0.67c0.174-0.225,0.382-0.482,0.643-0.685C4.783,5.53,4.99,5.369,5.213,5.229
	c0.471-0.298,0.98-0.519,1.371-0.679c0.497-0.202,0.907-0.333,1.291-0.411c0.473-0.095,0.941-0.115,1.497-0.115l0.602-0.004
	c0.235,0,0.47,0.006,0.702,0.035c0.313,0.039,0.608,0.075,0.899,0.19c0.277,0.109,0.491,0.213,0.673,0.327
	c0.332,0.203,0.652,0.421,0.968,0.646c0.41,0.292,0.778,0.616,1.084,0.896c0.507,0.459,1.02,0.982,1.569,1.598
	c0.366-0.403,0.615-0.715,0.862-0.984c0.381-0.413,0.832-0.815,1.339-1.195c0.403-0.303,0.858-0.587,1.352-0.843
	c0.31-0.159,0.658-0.266,1.015-0.371c0.286-0.08,0.577-0.128,0.871-0.169c0.333-0.045,0.658-0.076,0.984-0.076
	c0.169,0,0.338,0.008,0.511,0.027c0.529,0.057,1.046,0.136,1.536,0.234c0.366,0.073,0.698,0.203,1.05,0.341l0.158,0.062
	c0.417,0.163,0.849,0.368,1.361,0.644c0.359,0.192,0.707,0.443,1.126,0.816c0.365,0.326,0.688,0.7,0.96,1.112
	c0.265,0.395,0.425,0.855,0.58,1.3c0.128,0.366,0.218,0.736,0.274,1.14c0.066,0.475,0.128,0.988,0.144,1.515
	c0.028,1.163-0.051,2.139-0.242,2.985c-0.217,0.971-0.712,1.881-1.166,2.642c-0.833,1.389-1.965,2.691-3.667,4.222
	c-0.696,0.625-1.402,1.233-2.121,1.832c-0.37,0.31-0.747,0.612-1.124,0.914c-0.313,0.251-0.625,0.502-0.934,0.757l-2.151,1.768
	c-0.352,0.285-0.709,0.562-1.074,0.829l-0.6,0.438c-0.104,0.08-0.207,0.159-0.321,0.224C16.468,27.943,16.327,27.981,16.185,27.981z
	 M9.684,5.866C9.346,5.874,9.008,5.881,8.672,5.912C8.207,5.992,7.723,6.138,7.147,6.37C6.681,6.579,6.284,6.8,5.931,7.046
	c-0.12,0.095-0.235,0.191-0.335,0.3C5.49,7.46,5.389,7.581,5.29,7.703C4.937,8.188,4.613,8.751,4.3,9.428
	c-0.188,0.471-0.312,0.899-0.38,1.309c-0.035,0.304-0.06,0.608-0.067,0.913c-0.007,0.279,0.009,0.582,0.052,0.954
	c0.096,0.512,0.246,1.032,0.461,1.593c0.287,0.644,0.577,1.206,0.887,1.72c0.304,0.505,0.663,1.028,1.099,1.6
	c0.437,0.549,0.918,1.127,1.48,1.634c0.318,0.286,0.648,0.559,0.977,0.831c0.262,0.216,0.523,0.432,0.779,0.655
	c0.393,0.345,0.768,0.709,1.144,1.074l0.439,0.424c0.494,0.472,1.031,0.942,1.597,1.396l0.529,0.387
	c0.222,0.161,0.445,0.322,0.664,0.489c0.437,0.331,0.872,0.665,1.306,1.005c0.219,0.162,0.444,0.314,0.671,0.46
	c0.074,0.048,0.145,0.104,0.215,0.159l0.03,0.024l0.085,0.02l0.309-0.226c0.241-0.173,0.48-0.35,0.716-0.53
	c0.293-0.229,1.401-1.118,1.401-1.118c1.227-0.985,2.496-2.004,3.703-3.058l0.422-0.367c0.554-0.479,1.107-0.959,1.639-1.461
	c0.652-0.614,1.272-1.289,1.845-2.005c0.563-0.747,1.056-1.564,1.463-2.429c0.22-0.558,0.356-1.029,0.431-1.482
	c0.102-1.011,0.095-1.97-0.023-2.934c-0.046-0.301-0.097-0.641-0.197-0.957c-0.084-0.262-0.176-0.52-0.277-0.775
	c-0.117-0.241-0.257-0.472-0.431-0.709c-0.252-0.291-0.534-0.564-0.864-0.837c-0.19-0.129-0.384-0.24-0.586-0.348
	c-0.237-0.129-0.401-0.218-0.57-0.297l-0.566-0.216c-0.222-0.086-0.428-0.166-0.643-0.212c-0.395-0.084-0.793-0.152-1.192-0.211
	c-0.205-0.02-0.404-0.03-0.604-0.03c-0.185,0-0.371,0.009-0.562,0.027c-0.446,0.073-0.864,0.181-1.281,0.332
	C20.156,6.35,19.929,6.487,19.7,6.625c-0.316,0.187-0.543,0.339-0.765,0.504c-0.449,0.362-0.861,0.765-1.264,1.234
	c-0.223,0.302-0.425,0.614-0.625,0.928c-0.018,0.028-0.042,0.051-0.069,0.075l-0.032,0.031l-0.018,0.08
	c0.178,0.237,0.314,0.428,0.449,0.618l0.126,0.178c0.191,0.265,0.385,0.534,0.568,0.805l0.122,0.184
	c0.126,0.193,0.254,0.386,0.392,0.571l0.171,0.208c0.064,0.075,0.129,0.151,0.177,0.23c0.268,0.447,0.077,0.954-0.23,1.257
	c-0.065,0.066-0.133,0.126-0.202,0.187c-0.091,0.08-0.182,0.161-0.263,0.252c-0.213,0.236-0.423,0.468-0.642,0.696
	c-0.192,0.203-0.376,0.412-0.562,0.62c-0.138,0.156-0.275,0.312-0.416,0.465c-0.122,0.132-0.251,0.256-0.387,0.375l-0.04,0.034
	l0.099,0.104c0.123,0.128,0.245,0.256,0.362,0.389l0.188,0.205c0.09,0.097,0.18,0.195,0.266,0.296
	c0.145,0.17,0.278,0.347,0.411,0.525l0.102,0.135c0.33,0.42,0.617,0.733,0.906,0.983c0.13,0.113,0.206,0.28,0.213,0.47
	c0.008,0.215-0.073,0.427-0.215,0.57c-0.138,0.138-0.313,0.211-0.505,0.211c-0.194,0-0.385-0.075-0.537-0.213
	c-0.263-0.236-0.515-0.488-0.754-0.746c-0.128-0.136-0.245-0.282-0.361-0.427c-0.112-0.14-0.225-0.28-0.347-0.412
	c-0.237-0.256-0.48-0.507-0.73-0.751l-0.317-0.313c-0.056-0.054-0.115-0.106-0.173-0.158c-0.068-0.061-0.137-0.121-0.2-0.185
	c-0.282-0.286-0.392-0.641-0.31-1.001c0.04-0.17,0.157-0.367,0.314-0.525c0.108-0.109,0.232-0.193,0.357-0.278l0.125-0.086
	c0.145-0.115,0.287-0.231,0.42-0.357c0.128-0.123,0.253-0.248,0.378-0.375c0.112-0.113,0.43-0.426,0.43-0.426
	c0.091-0.088,0.181-0.176,0.266-0.269c0.073-0.077,0.143-0.158,0.212-0.239c0.082-0.095,0.165-0.191,0.252-0.281
	c0,0,0.198-0.202,0.255-0.255l-0.123-0.233l-0.128-0.166l-0.108,0.024l0.094-0.043c-0.354-0.465-0.69-0.945-1.019-1.429
	l-0.111-0.157c-0.058-0.081-0.117-0.163-0.17-0.246l-0.065-0.104c-0.036-0.059-0.072-0.118-0.112-0.174
	c-0.29-0.405-0.575-0.814-0.851-1.227c-0.74-0.862-1.384-1.503-2.034-2.031c-0.26-0.187-0.529-0.358-0.798-0.526
	c-0.251-0.159-0.499-0.315-0.762-0.443c-0.139-0.048-0.271-0.082-0.409-0.109c-0.218-0.019-0.43-0.025-0.643-0.025L9.684,5.866z
	 M24.002,16.762c-0.203,0-0.402-0.083-0.545-0.226c-0.144-0.144-0.222-0.337-0.222-0.545c0-0.207,0.079-0.4,0.222-0.542
	c0.065-0.066,0.128-0.133,0.188-0.203c0.095-0.135,0.178-0.27,0.263-0.408l0.152-0.234c0.075-0.115,0.152-0.231,0.221-0.35
	l0.058-0.098c0.111-0.188,0.222-0.376,0.315-0.574c0.061-0.156,0.115-0.312,0.169-0.466l0.052-0.149
	c0.13-0.371,0.228-0.735,0.3-1.113c0.015-0.212,0.004-0.421-0.018-0.627c-0.057-0.351-0.151-0.704-0.29-1.08
	c-0.078-0.163-0.162-0.317-0.247-0.472c-0.232-0.422-0.097-0.938,0.307-1.173c0.126-0.074,0.275-0.114,0.431-0.114
	c0.319,0,0.604,0.161,0.742,0.419c0.28,0.528,0.489,1.076,0.618,1.628c0.079,0.329,0.169,0.76,0.16,1.181
	c-0.018,0.823-0.344,1.578-0.66,2.31l-0.023,0.052l-0.001-0.001c-0.086,0.209-0.172,0.418-0.294,0.613
	c-0.082,0.131-0.17,0.26-0.256,0.389l-0.201,0.298c-0.291,0.43-0.581,0.86-0.901,1.266C24.429,16.686,24.184,16.762,24.002,16.762z
	 M21.334,4.145"/>
</svg>