<?xml version="1.0" encoding="utf-8"?>
<!-- Generator: Adobe Illustrator 21.1.0, SVG Export Plug-In . SVG Version: 6.00 Build 0)  -->
<svg version="1.1" id="designs" xmlns="http://www.w3.org/2000/svg" xmlns:xlink="http://www.w3.org/1999/xlink" x="0px" y="0px"
	 width="32px" height="32px" viewBox="0 0 32 32" style="enable-background:new 0 0 32 32;" xml:space="preserve">
<style type="text/css">
	.sketchy_een{fill:#111918;}
</style>
<path class="sketchy_een" d="M22.624,8.217c-0.219-0.061-0.46-0.031-0.656,0.085c-0.152,0.09-0.249,0.209-0.323,0.352
	c0.002-0.004,0.003-0.007,0.005-0.011c-0.103,0.204-0.217,0.399-0.349,0.585c-0.137,0.168-0.28,0.328-0.442,0.472
	c-0.119,0.08-0.24,0.152-0.368,0.215c-0.072,0.025-0.145,0.046-0.22,0.063c-0.068,0.003-0.135,0.002-0.204-0.002
	c-0.186-0.034-0.369-0.082-0.547-0.146c-0.097-0.05-0.187-0.105-0.275-0.167c-0.162-0.141-0.318-0.287-0.46-0.446
	c-0.1-0.139-0.196-0.28-0.288-0.424C18.402,8.648,18.33,8.488,18.26,8.33c-0.139-0.351-0.248-0.713-0.416-1.052
	c-0.203-0.414-0.451-0.777-0.735-1.138c-0.264-0.334-0.62-0.611-0.967-0.85c-0.248-0.171-0.55-0.298-0.836-0.374
	c-0.182-0.05-0.378-0.065-0.571-0.065c-0.108,0-0.216,0.005-0.321,0.011c-0.408,0.025-0.836,0.119-1.216,0.272
	c-0.432,0.171-0.789,0.41-1.145,0.707c-0.138,0.115-0.275,0.232-0.41,0.353c-0.182,0.164-0.327,0.37-0.469,0.568
	c-0.218,0.304-0.379,0.626-0.525,0.969c-0.04,0.09-0.077,0.18-0.115,0.272c-0.011,0.027-0.001,0.062-0.007,0.091
	C10.138,8.089,9.749,8.08,9.36,8.069C8.952,8.056,8.608,8.419,8.608,8.82c0,0.03,0.014,0.056,0.018,0.085
	C8.615,8.933,8.589,8.953,8.581,8.982c-0.036,0.135-0.036,0.271,0,0.406c0.011,0.08,0.022,0.161,0.034,0.242
	c0.042,0.324,0.083,0.648,0.112,0.973c0.014,0.153,0.016,0.309,0.022,0.464c0.003,0.084,0.019,0.166,0.027,0.249
	c-0.216,0.138-0.438,0.266-0.645,0.421c-0.352,0.264-0.716,0.521-1.03,0.827c-0.633,0.615-1.196,1.284-1.719,1.994
	c-0.493,0.665-0.888,1.381-1.232,2.133c-0.2,0.439-0.387,0.883-0.55,1.338c-0.135,0.372-0.223,0.762-0.3,1.149
	c-0.365,1.816,0.002,3.737,0.849,5.366c0.417,0.806,0.919,1.559,1.498,2.257c0.255,0.306,0.525,0.599,0.818,0.869
	c0.342,0.313,0.752,0.563,1.147,0.8c0.374,0.225,0.761,0.415,1.16,0.592c0.453,0.201,0.904,0.394,1.379,0.536
	c0.433,0.13,0.865,0.228,1.314,0.284c0.406,0.05,0.813,0.077,1.223,0.092c0.858,0.034,1.739,0.065,2.586-0.106
	c0.424-0.086,0.845-0.201,1.25-0.354c0.433-0.165,0.82-0.385,1.203-0.642c0.696-0.468,1.329-1.03,1.858-1.681
	c0.304-0.376,0.599-0.759,0.863-1.163c0.225-0.347,0.415-0.716,0.606-1.083c0.406-0.782,0.696-1.629,0.93-2.478
	c0.126-0.457,0.185-0.928,0.234-1.397c0.043-0.414,0.067-0.831,0.049-1.246c-0.038-0.876-0.293-1.699-0.52-2.537
	c-0.117-0.437-0.227-0.868-0.408-1.286c-0.16-0.37-0.343-0.728-0.53-1.084c-0.388-0.746-0.854-1.464-1.496-2.016
	c-0.338-0.29-0.717-0.534-1.097-0.768c-0.338-0.208-0.69-0.399-1.052-0.566c-0.412-0.191-0.831-0.368-1.262-0.506
	c-0.011-0.49-0.037-0.979-0.064-1.468c-0.014-0.27-0.032-0.545-0.095-0.807c-0.061-0.263-0.219-0.46-0.43-0.615
	c-0.162-0.122-0.347-0.137-0.541-0.16C14.673,7.999,14.576,8,14.479,8c-0.041,0-0.085,0.002-0.124,0
	c-0.174-0.002-0.351-0.004-0.527-0.004C13.304,8,12.78,8.028,12.255,8.054c0.098-0.194,0.205-0.382,0.331-0.559
	c0.203-0.242,0.435-0.458,0.68-0.657c0.167-0.118,0.34-0.217,0.524-0.303c0.216-0.074,0.434-0.132,0.657-0.173
	c0.148-0.009,0.295-0.011,0.443-0.004c0.068,0.015,0.134,0.034,0.201,0.057c0.13,0.065,0.255,0.137,0.377,0.218
	c0.187,0.157,0.36,0.326,0.521,0.51c0.198,0.28,0.362,0.573,0.506,0.884c0.099,0.259,0.177,0.525,0.275,0.783
	c0.131,0.349,0.281,0.689,0.484,1.002c0.227,0.351,0.487,0.667,0.795,0.953c0.16,0.147,0.336,0.288,0.521,0.403
	c0.201,0.124,0.419,0.21,0.642,0.291c0.147,0.054,0.306,0.092,0.46,0.122c0.137,0.025,0.275,0.047,0.414,0.063
	c0.212,0.025,0.412-0.005,0.624-0.036c0.201-0.029,0.419-0.13,0.601-0.216c0.138-0.065,0.27-0.14,0.397-0.223
	c0.367-0.241,0.651-0.554,0.915-0.897c0.101-0.131,0.196-0.266,0.286-0.406c0.117-0.184,0.266-0.388,0.309-0.604
	c0.043-0.232,0.036-0.446-0.086-0.656C23.021,8.416,22.836,8.274,22.624,8.217z M14.351,9.43c0.015,0.339,0.001,0.678-0.001,1.018
	c-0.001,0.116,0.004,0.232,0.008,0.349c-0.183-0.012-0.367-0.029-0.55-0.038c-0.355-0.019-0.708-0.06-1.063-0.06
	c-0.021,0-0.042,0-0.063,0c-0.437,0.005-0.802,0.36-0.802,0.8c0,0.435,0.365,0.804,0.802,0.802c0.352-0.002,0.705,0.032,1.056,0.054
	c0.334,0.02,0.666,0.042,0.998,0.077c0.447,0.085,0.864,0.237,1.282,0.409c0.709,0.312,1.375,0.69,2,1.146
	c0.201,0.165,0.384,0.338,0.558,0.53c0.224,0.307,0.425,0.624,0.607,0.961c0.197,0.366,0.376,0.742,0.549,1.12
	c0.177,0.459,0.29,0.933,0.411,1.412c0.133,0.516,0.283,1.018,0.369,1.542c0.053,0.629,0.022,1.249-0.043,1.878
	c-0.13,0.818-0.382,1.6-0.691,2.369c-0.284,0.637-0.616,1.256-1.028,1.816c-0.423,0.531-0.875,1.018-1.402,1.446
	c-0.392,0.289-0.799,0.556-1.236,0.77c-0.466,0.183-0.955,0.323-1.45,0.405c-0.503,0.049-1.008,0.044-1.513,0.039
	c-0.53-0.007-1.056-0.029-1.582-0.086c-0.542-0.094-1.076-0.252-1.59-0.449c-0.373-0.162-0.743-0.331-1.104-0.518
	c-0.393-0.203-0.771-0.446-1.134-0.698c-0.413-0.34-0.769-0.731-1.107-1.145c-0.28-0.373-0.541-0.751-0.782-1.149
	c-0.242-0.4-0.448-0.821-0.636-1.25c-0.097-0.247-0.193-0.499-0.254-0.757c-0.071-0.302-0.131-0.603-0.185-0.908
	c-0.056-0.534-0.053-1.059-0.001-1.595c0.05-0.318,0.118-0.63,0.2-0.944c0.09-0.339,0.218-0.666,0.35-0.99
	c0.215-0.489,0.444-0.97,0.703-1.438c0.249-0.452,0.556-0.869,0.869-1.279c0.507-0.63,1.048-1.25,1.681-1.758
	c0.461-0.346,0.935-0.664,1.444-0.933c0.379-0.201,0.493-0.717,0.282-1.075c-0.022-0.037-0.056-0.06-0.082-0.092
	c-0.015-0.257-0.023-0.514-0.035-0.771c-0.015-0.294-0.044-0.588-0.072-0.882c0.232-0.005,0.464-0.002,0.696-0.012
	c0.477-0.022,0.951-0.067,1.426-0.092c0.415-0.021,0.831-0.025,1.246-0.027C13.769,9.426,14.062,9.415,14.351,9.43z M24.262,6.172
	c-0.164-0.095-0.286-0.254-0.336-0.435C23.879,5.562,23.892,5.325,24,5.174c0.455-0.631,0.899-1.27,1.35-1.903
	c0.119-0.167,0.25-0.293,0.453-0.351c0.066-0.018,0.133-0.027,0.2-0.027c0.135,0,0.269,0.035,0.386,0.104
	c0.171,0.099,0.297,0.264,0.351,0.455c0.049,0.18,0.038,0.428-0.077,0.584c-0.46,0.631-0.944,1.242-1.403,1.872
	c-0.117,0.16-0.239,0.282-0.437,0.336C24.636,6.298,24.431,6.271,24.262,6.172z M18.363,4.456c-0.289-0.315-0.311-0.798,0-1.109
	c0.148-0.149,0.361-0.229,0.571-0.229c0.201,0,0.4,0.073,0.54,0.229c0.665,0.743,1.334,1.484,2,2.226
	c0.266,0.297,0.293,0.743,0,1.036c-0.277,0.277-0.762,0.291-1.038,0c-0.343-0.361-0.698-0.712-1.048-1.068
	C19.04,5.186,18.702,4.821,18.363,4.456z M27.295,11.477c0.297,0.29,0.291,0.786,0,1.077c-0.288,0.288-0.793,0.302-1.077,0
	c-0.581-0.613-1.167-1.221-1.746-1.838c-0.295-0.316-0.311-0.809,0-1.12c0.151-0.151,0.363-0.231,0.573-0.231
	c0.203,0,0.404,0.074,0.547,0.231c0.325,0.352,0.649,0.705,0.967,1.065C26.802,10.934,27.034,11.222,27.295,11.477z M21.542,4.58
	c-0.013-0.592-0.018-1.183-0.016-1.775C21.527,2.367,21.891,2,22.333,2c0.433,0,0.813,0.367,0.806,0.806
	c-0.011,0.592-0.027,1.183-0.052,1.775c-0.018,0.421-0.338,0.771-0.771,0.771C21.885,5.352,21.552,5.001,21.542,4.58z M28.842,7.753
	c0,0.41-0.347,0.771-0.764,0.764c-0.752-0.014-1.503-0.027-2.255-0.067c-0.442-0.023-0.811-0.352-0.811-0.811
	c0-0.402,0.343-0.815,0.764-0.815c0.016,0,0.031,0.001,0.047,0.002c0.752,0.058,1.503,0.117,2.255,0.162
	C28.493,7.012,28.842,7.318,28.842,7.753z M13.835,26.555c-0.155-0.155-0.243-0.367-0.243-0.586c0-0.293,0.158-0.57,0.412-0.718
	c0.178-0.105,0.347-0.117,0.535-0.098c-0.026-0.004-0.052-0.007-0.078-0.01c0.049,0.005,0.098,0.005,0.146,0.004
	c0.169-0.039,0.332-0.093,0.494-0.151c0.185-0.087,0.354-0.191,0.519-0.31c0.435-0.365,0.843-0.781,1.2-1.225
	c0.335-0.467,0.62-0.966,0.872-1.485c0.073-0.2,0.125-0.407,0.164-0.616c0.01-0.108,0.015-0.215,0.021-0.324
	c0.018-0.422,0.34-0.777,0.777-0.777c0.405,0,0.8,0.354,0.777,0.777c-0.031,0.521-0.13,1.023-0.333,1.503
	c-0.106,0.248-0.227,0.489-0.354,0.727c-0.291,0.547-0.619,1.061-1.025,1.53c-0.18,0.207-0.376,0.397-0.57,0.592
	c-0.236,0.235-0.473,0.462-0.744,0.66c-0.32,0.232-0.674,0.394-1.05,0.518c-0.232,0.077-0.468,0.167-0.712,0.203
	c-0.146,0.04-0.293,0.04-0.441,0C14.062,26.729,13.939,26.657,13.835,26.555z"/>
</svg>