<?xml version="1.0" encoding="utf-8"?>
<!-- Generator: Adobe Illustrator 21.1.0, SVG Export Plug-In . SVG Version: 6.00 Build 0)  -->
<svg version="1.1" id="designs" xmlns="http://www.w3.org/2000/svg" xmlns:xlink="http://www.w3.org/1999/xlink" x="0px" y="0px"
	 width="32px" height="32px" viewBox="0 0 32 32" style="enable-background:new 0 0 32 32;" xml:space="preserve">
<style type="text/css">
	.sketchy_een{fill:#111918;}
</style>
<path class="sketchy_een" d="M27.036,29.412c-0.169-0.293-0.307-0.606-0.465-0.906c-0.194-0.368-0.395-0.729-0.592-1.093
	c-0.387-0.71-0.788-1.414-1.2-2.108c-0.471-0.794-0.958-1.578-1.412-2.383c-0.44-0.784-0.831-1.593-1.298-2.364
	c-0.344-0.563-0.698-1.118-1.04-1.683c-0.379-0.628-0.747-1.263-1.122-1.893c-0.039-0.066-0.087-0.123-0.139-0.175
	c-0.019-0.265-0.154-0.517-0.392-0.672c-0.162-0.106-0.332-0.113-0.516-0.139c-0.115-0.016-0.231-0.025-0.348-0.035
	c-0.266-0.023-0.534-0.041-0.8-0.045c-0.414-0.007-0.828-0.016-1.242-0.016c-0.156,0-0.313,0.001-0.469,0.005
	c-1.261,0.023-2.522,0.033-3.785,0.074c-0.174,0.006-0.329,0.072-0.465,0.163c-0.318,0.001-0.638,0.152-0.781,0.446
	c-0.43,0.882-0.88,1.754-1.326,2.628c-0.416,0.821-0.817,1.646-1.21,2.477c-0.373,0.79-0.747,1.576-1.144,2.354
	c-0.432,0.845-0.831,1.701-1.193,2.581c-0.35,0.852-0.664,1.719-1.012,2.573c-0.075,0.175-0.154,0.349-0.235,0.522
	c-0.096,0.209-0.145,0.407-0.082,0.635c0.057,0.205,0.194,0.383,0.377,0.491c0.124,0.072,0.272,0.095,0.421,0.094
	C5.655,30.975,5.747,31,5.845,31c0.933-0.006,1.863-0.037,2.796-0.07c0.829-0.031,1.658-0.027,2.485-0.027
	c1.693,0,3.386,0,5.077-0.002c0.545,0,1.093,0,1.64,0.002c1.185,0,2.368,0.002,3.554-0.01c0.831-0.008,1.664-0.012,2.495-0.016
	c0.164,0,0.332,0.002,0.497,0.002c0.223,0.002,0.444,0.004,0.665,0c0.354-0.006,0.706-0.061,1.06-0.07
	c0.106-0.004,0.211-0.006,0.319-0.012c0.45-0.027,0.827-0.356,0.827-0.827C27.26,29.762,27.176,29.564,27.036,29.412z
	 M18.244,17.607c0.018,0.099,0.045,0.197,0.099,0.287c0.516,0.85,1.056,1.685,1.597,2.518c0.495,0.757,0.976,1.515,1.408,2.307
	c0.217,0.399,0.422,0.802,0.647,1.195c0.157,0.273,0.323,0.543,0.487,0.813c-0.013,0.017-0.032,0.028-0.044,0.046
	c-0.044,0.067-0.088,0.132-0.135,0.196c-0.062,0.078-0.127,0.154-0.195,0.226c-0.054,0.057-0.115,0.108-0.185,0.163
	c-0.042,0.033-0.085,0.065-0.127,0.097c0.023-0.017,0.045-0.035,0.068-0.052c-0.18,0.135-0.364,0.257-0.567,0.354
	c-0.337,0.162-0.947,0.168-1.281,0.006c-0.12-0.058-0.235-0.125-0.357-0.21c-0.095-0.14-0.176-0.293-0.247-0.447
	c-0.095-0.254-0.169-0.517-0.257-0.773c-0.147-0.426-0.371-0.776-0.665-1.116c-0.092-0.106-0.221-0.192-0.334-0.27
	c-0.053-0.035-0.106-0.066-0.162-0.094c-0.225-0.111-0.432-0.178-0.686-0.184c-0.09-0.002-0.18,0.008-0.268,0.018
	c-0.178,0.022-0.37,0.037-0.538,0.1c-0.165,0.061-0.321,0.136-0.481,0.209c-0.092,0.034-0.185,0.064-0.28,0.088
	c-0.078,0.005-0.155,0.006-0.233,0.004c-0.053-0.011-0.106-0.024-0.157-0.04c-0.035-0.019-0.069-0.04-0.103-0.062
	c-0.048-0.081-0.089-0.166-0.128-0.252c-0.114-0.324-0.168-0.662-0.218-1.003c-0.088-0.7-0.161-1.402-0.188-2.108
	c-0.026-0.679-0.022-1.359-0.042-2.039c0.335-0.013,0.671-0.028,1.006-0.035C16.53,17.53,17.391,17.536,18.244,17.607z
	 M21.053,25.849c-0.024,0.003-0.047,0.006-0.071,0.009l0.001,0C21.007,25.855,21.03,25.852,21.053,25.849z M24.964,29.264
	c-0.377,0.04-0.763,0.019-1.141,0.017c-0.414,0-0.831,0.004-1.245,0.006c-0.864,0.004-1.726,0.014-2.589,0.012
	c-1.695-0.002-3.39-0.002-5.083-0.008c-1.329-0.004-2.659,0-3.988,0.004C9.55,29.3,8.183,29.299,6.816,29.294
	c0.258-0.625,0.508-1.253,0.767-1.877c0.33-0.758,0.675-1.509,1.056-2.244c0.424-0.823,0.831-1.654,1.228-2.489
	c0.385-0.811,0.772-1.617,1.2-2.407c0.448-0.827,0.905-1.646,1.335-2.483c0.02-0.038,0.038-0.076,0.058-0.114
	c0.187-0.009,0.373-0.018,0.56-0.027c0.044,0.7,0.082,1.401,0.12,2.102c0.047,0.833,0.145,1.66,0.258,2.485
	c0.041,0.299,0.07,0.608,0.164,0.895c0.059,0.186,0.151,0.364,0.242,0.536c0.066,0.125,0.145,0.229,0.233,0.34
	c0.119,0.153,0.274,0.264,0.436,0.368c0.166,0.104,0.368,0.176,0.559,0.211c0.387,0.07,0.764,0.078,1.146-0.033
	c0.267-0.08,0.523-0.204,0.778-0.322c0.073-0.023,0.145-0.041,0.22-0.055c0.031-0.002,0.061-0.003,0.092-0.003
	c0.022,0.006,0.044,0.013,0.065,0.02c0.044,0.022,0.088,0.045,0.13,0.07c0.026,0.026,0.051,0.053,0.075,0.081
	c0.096,0.138,0.178,0.285,0.247,0.438c0.179,0.47,0.312,0.951,0.569,1.389c0.072,0.123,0.153,0.242,0.246,0.352
	c0.1,0.113,0.227,0.196,0.348,0.285c0.066,0.049,0.133,0.1,0.201,0.147c0.141,0.1,0.325,0.166,0.481,0.225
	c0.219,0.084,0.469,0.123,0.7,0.153c0.199,0.027,0.395,0.018,0.596,0.018c0.225,0,0.424-0.047,0.632-0.127
	c0.215-0.084,0.444-0.139,0.637-0.274c0.096-0.066,0.189-0.139,0.281-0.211c0.202-0.154,0.404-0.301,0.597-0.467
	c0.074-0.063,0.135-0.143,0.201-0.217c0.242,0.402,0.492,0.799,0.718,1.21c0.293,0.534,0.588,1.067,0.876,1.605
	c0.068,0.126,0.132,0.254,0.198,0.381C25.033,29.259,24.998,29.26,24.964,29.264z M7.648,9.421C7.4,8.948,7.265,8.4,7.255,7.868
	C7.245,7.317,7.38,6.793,7.576,6.281c0.053-0.139,0.109-0.278,0.168-0.414C7.824,5.683,7.93,5.528,8.055,5.37
	c0.102-0.133,0.209-0.274,0.342-0.379c0.197-0.154,0.373-0.28,0.61-0.364c0.219-0.078,0.44-0.115,0.671-0.143
	c0.342-0.043,0.675-0.033,1.017,0.002c0.239,0.024,0.49,0.055,0.732,0.112c0.063-0.498,0.196-0.967,0.392-1.43
	c0.213-0.501,0.624-0.886,1.046-1.218c0.362-0.285,0.757-0.495,1.177-0.682C14.384,1.114,14.751,1,15.128,1
	c0.029,0,0.059,0.001,0.088,0.002c0.256,0.012,0.506,0.033,0.759,0.072c0.207,0.033,0.405,0.09,0.6,0.168
	c0.264,0.102,0.485,0.215,0.706,0.395c0.229,0.186,0.42,0.418,0.579,0.665c0.354,0.547,0.581,1.148,0.737,1.775
	c0.01,0.041,0.02,0.081,0.03,0.121c0.101-0.034,0.204-0.064,0.309-0.088c0.19-0.045,0.383-0.068,0.577-0.092
	c0.182-0.022,0.366,0.004,0.547,0.027c0.307,0.037,0.645,0.074,0.938,0.184c0.391,0.149,0.755,0.358,1.036,0.675
	c0.151,0.168,0.317,0.344,0.432,0.538c0.196,0.33,0.362,0.719,0.377,1.109c0.016,0.414-0.088,0.835-0.28,1.2
	c-0.203,0.385-0.493,0.755-0.823,1.042c-0.027,0.024-0.055,0.048-0.084,0.07c0.109,0.165,0.201,0.337,0.261,0.532
	c0.098,0.305,0.166,0.614,0.19,0.933c0.025,0.325,0.018,0.682-0.065,0.995c-0.055,0.205-0.121,0.389-0.205,0.585
	c-0.129,0.305-0.371,0.536-0.628,0.735c-0.307,0.237-0.647,0.467-1.005,0.626c-0.17,0.076-0.34,0.16-0.524,0.192
	c-0.184,0.033-0.37,0.063-0.555,0.08c-0.121,0.012-0.242,0.025-0.364,0.033c-0.269,0.016-0.539,0.023-0.808,0.014
	c-0.077,0.356-0.144,0.713-0.24,1.064c-0.125,0.465-0.624,0.747-1.087,0.618c-0.467-0.127-0.743-0.622-0.618-1.087
	c0.114-0.425,0.193-0.86,0.268-1.295c-0.021-0.046-0.04-0.092-0.052-0.137c-0.066-0.239-0.033-0.501,0.094-0.714
	c0.121-0.207,0.321-0.364,0.553-0.426c0.154-0.042,0.295-0.03,0.434,0.003c0.066,0.003,0.133,0.009,0.197,0.027
	c0.066,0.018,0.122,0.058,0.182,0.09c0.004,0.001,0.009,0.003,0.013,0.004c0.455,0.038,0.9,0.029,1.355-0.013
	c0.088-0.016,0.175-0.034,0.261-0.059c0.225-0.118,0.441-0.256,0.647-0.403c0.069-0.06,0.136-0.121,0.198-0.187
	c0.032-0.094,0.058-0.188,0.081-0.284c0.01-0.15,0.011-0.301,0.001-0.452c-0.024-0.123-0.057-0.243-0.094-0.363
	c-0.038-0.07-0.08-0.136-0.126-0.202c-0.008-0.009-0.017-0.017-0.025-0.026c-0.25-0.166-0.498-0.355-0.567-0.668
	c-0.084-0.389,0.002-0.747,0.272-1.044c0.171-0.187,0.406-0.319,0.617-0.464c0.145-0.126,0.275-0.261,0.399-0.408
	c0.056-0.083,0.106-0.166,0.152-0.254c0.017-0.053,0.033-0.107,0.046-0.161c0.001-0.021,0.001-0.042,0.002-0.063
	c-0.01-0.037-0.021-0.073-0.034-0.11c-0.032-0.062-0.067-0.121-0.106-0.18c-0.087-0.1-0.176-0.194-0.275-0.282
	c-0.024-0.015-0.049-0.03-0.074-0.044c-0.152-0.051-0.306-0.089-0.464-0.117c-0.149-0.014-0.298-0.024-0.447-0.015
	c-0.182,0.036-0.359,0.087-0.534,0.15c-0.15,0.071-0.298,0.148-0.429,0.249c0.019-0.015,0.038-0.03,0.057-0.044
	c-0.198,0.145-0.397,0.253-0.669,0.253c-0.467,0-0.895-0.34-0.995-0.798c-0.043-0.203-0.039-0.397-0.045-0.6
	c-0.003-0.1-0.011-0.199-0.022-0.298c-0.066-0.381-0.157-0.749-0.286-1.113c-0.093-0.194-0.199-0.378-0.319-0.557
	c-0.054-0.062-0.109-0.121-0.169-0.178c-0.065-0.04-0.131-0.076-0.2-0.109c-0.149-0.054-0.3-0.094-0.456-0.123
	c-0.142-0.013-0.283-0.022-0.425-0.018c-0.121,0.027-0.238,0.06-0.355,0.103c-0.283,0.131-0.56,0.277-0.816,0.457
	c-0.156,0.128-0.302,0.264-0.438,0.412c-0.065,0.103-0.121,0.209-0.173,0.318c-0.079,0.219-0.136,0.445-0.175,0.675
	c-0.021,0.212-0.028,0.424-0.022,0.638c0.002,0.096,0.006,0.192,0.008,0.287c0.004,0.129,0.006,0.258-0.029,0.385
	c-0.047,0.17-0.115,0.246-0.225,0.379c-0.172,0.211-0.557,0.307-0.809,0.215c-0.172-0.063-0.313-0.143-0.438-0.272
	c-0.011-0.012-0.022-0.023-0.034-0.034c-0.083-0.055-0.169-0.105-0.259-0.149c-0.216-0.076-0.436-0.123-0.661-0.162
	c-0.264-0.023-0.523-0.029-0.786-0.005c-0.112,0.022-0.222,0.047-0.33,0.081c-0.073,0.068-0.14,0.14-0.205,0.215
	C9.224,6.379,9.17,6.466,9.124,6.56C9.005,6.873,8.896,7.195,8.833,7.525c-0.01,0.175-0.005,0.348,0.009,0.522
	C8.885,8.251,8.95,8.448,9.026,8.643c0.03,0.059,0.061,0.117,0.096,0.174c0.07,0.071,0.142,0.136,0.218,0.2
	c0.312,0.225,0.647,0.417,0.963,0.635c0.151,0.104,0.299,0.215,0.434,0.338c0.231,0.215,0.291,0.536,0.235,0.833
	c-0.043,0.224-0.196,0.356-0.339,0.503c-0.003,0.013-0.006,0.025-0.009,0.038c-0.012,0.152-0.013,0.304-0.003,0.456
	c0.007,0.032,0.014,0.064,0.023,0.095c0.011,0.011,0.021,0.021,0.032,0.032c0.085,0.056,0.174,0.107,0.265,0.153
	c0.059,0.019,0.119,0.035,0.18,0.049c0.049,0.001,0.097,0.001,0.145-0.002c0.164-0.034,0.323-0.081,0.479-0.14
	c0.179-0.081,0.356-0.166,0.535-0.251c0.227-0.111,0.454-0.162,0.706-0.094c0.229,0.065,0.426,0.217,0.547,0.422
	c0.078,0.132,0.104,0.29,0.106,0.449c0.107,0.105,0.195,0.229,0.23,0.383c0.07,0.315,0.139,0.63,0.203,0.946
	c0.047,0.239,0.072,0.495,0.158,0.723c0.164,0.446-0.182,0.952-0.608,1.071c-0.225,0.061-0.469,0.029-0.671-0.088
	c-0.207-0.121-0.321-0.301-0.401-0.52c-0.082-0.231-0.135-0.477-0.196-0.714c-0.051-0.201-0.099-0.401-0.148-0.602
	c-0.144,0.046-0.286,0.1-0.436,0.127c-0.373,0.068-0.733,0.102-1.107,0.006c-0.342-0.088-0.69-0.231-0.972-0.448
	c-0.223-0.172-0.444-0.35-0.581-0.604c-0.096-0.178-0.158-0.358-0.196-0.555C8.868,12,8.858,11.732,8.89,11.466
	c0.032-0.256,0.054-0.538,0.158-0.78c-0.116-0.078-0.232-0.154-0.348-0.232c-0.18-0.123-0.356-0.254-0.526-0.391
	C7.953,9.884,7.779,9.673,7.648,9.421z M21.864,25.402c0.022-0.017,0.045-0.034,0.068-0.052c-0.003,0.002-0.006,0.005-0.008,0.007
	C21.904,25.372,21.884,25.387,21.864,25.402z"/>
</svg>