<?xml version="1.0" encoding="utf-8"?>
<!-- Generator: Adobe Illustrator 21.1.0, SVG Export Plug-In . SVG Version: 6.00 Build 0)  -->
<svg version="1.1" id="designs" xmlns="http://www.w3.org/2000/svg" xmlns:xlink="http://www.w3.org/1999/xlink" x="0px" y="0px"
	 width="32px" height="32px" viewBox="0 0 32 32" style="enable-background:new 0 0 32 32;" xml:space="preserve">
<style type="text/css">
	.sketchy_een{fill:#111918;}
</style>
<path class="sketchy_een" d="M25.021,27.491c-0.474-0.019-0.949-0.02-1.423-0.02l-2.95-0.014c-0.581,0.001-1.163,0.009-1.743,0.017
	c-0.649,0.008-1.296,0.017-1.945,0.017c-0.279,0-2.777-0.019-3.226-0.026c-0.35-0.005-0.699-0.015-1.048-0.024
	c-0.42-0.011-0.839-0.022-1.259-0.026l-0.599-0.004c-0.564,0-1.128,0.01-1.692,0.027c-0.331,0.01-0.661,0.017-0.99,0.017
	c-0.55,0-1.035-0.021-1.482-0.064l-0.103-0.02c-0.075,0.011-0.149,0.021-0.224,0.021c-0.382,0-0.721-0.256-0.825-0.623
	c-0.277-0.985-0.545-1.972-0.79-2.968c-0.169-0.689-0.334-1.379-0.498-2.07L3.81,19.991c-0.111-0.465-0.222-0.93-0.337-1.394
	c-0.148-0.585-0.283-1.173-0.418-1.761L2.893,16.14c-0.158-0.676-0.316-1.353-0.455-2.033c-0.061-0.3-0.119-0.6-0.173-0.901
	c-0.012-0.04-0.022-0.094-0.026-0.148c-0.076-0.429-0.146-0.868-0.21-1.308c-0.038-0.14-0.038-0.293,0.002-0.444
	c0.041-0.144,0.115-0.271,0.221-0.376c0.16-0.159,0.379-0.251,0.603-0.251c0.128-0.011,0.221-0.031,0.324-0.039
	c0.335-0.029,0.671-0.037,1.006-0.037l0.476,0.004c0.76,0.009,1.522,0.013,2.282,0.017c0.429,0.002,0.858,0.015,1.286,0.027
	l0.183,0.005l0.064-0.13c0.102-0.271,0.178-0.557,0.254-0.845c0.103-0.389,0.202-0.779,0.3-1.17
	c0.029-0.114,0.087-0.218,0.184-0.327c0.143-0.266,0.429-0.443,0.733-0.443c0.383,0.002,0.763,0.01,1.143,0.018
	c0.347,0.008,1.19,0.018,1.19,0.018c0.347,0,0.695-0.007,1.042-0.013l0.761-0.012c0,0,2.058-0.002,2.062-0.002
	c0.317,0,0.564,0.007,0.811,0.015l0.453,0.011l0.261-0.823c0.062-0.209,0.121-0.42,0.18-0.631c0.079-0.283,0.158-0.566,0.245-0.846
	c0.074-0.234,0.245-0.43,0.472-0.538c0.108-0.239,0.381-0.414,0.669-0.414l0.374,0.016c0.366,0.016,0.73,0.033,1.096,0.042
	c0.292,0.007,0.584,0.008,0.875,0.008l1.352,0.001l0.629,0.01c0.424,0.007,0.847,0.015,1.271,0.015l0.338-0.002
	c0.475-0.005,0.951-0.022,1.426-0.039l0.932-0.03c0.229-0.006,0.458-0.012,0.687-0.023l0.219-0.012
	c0.14-0.008,0.279-0.017,0.419-0.017c0.106,0,0.213,0.005,0.32,0.019c0.001,0,0.003,0,0.004,0c0.135,0,0.276,0.038,0.407,0.113
	c0.122,0.072,0.223,0.173,0.301,0.301c0.114,0.198,0.145,0.434,0.085,0.649c0.027,0.213,0.046,0.406,0.004,0.602l-0.157,0.739
	c-0.107,0.496-0.213,0.991-0.303,1.491c-0.138,0.758-0.275,1.517-0.394,2.279c-0.079,0.506-0.174,1.008-0.269,1.511l-0.146,0.79
	c-0.134,0.748-0.252,1.498-0.367,2.25c-0.114,0.744-0.242,1.485-0.37,2.225c-0.064,0.365-0.12,0.732-0.176,1.098
	c-0.06,0.397-0.121,0.794-0.192,1.189c-0.032,0.176-0.069,0.351-0.106,0.527c-0.036,0.173-0.072,0.345-0.103,0.518l-0.23,1.334
	c-0.117,0.66-0.236,1.32-0.377,1.977c-0.145,0.68-0.277,1.366-0.384,2.055l-0.038,0.322c-0.011,0.443-0.25,0.789-0.6,0.915
	c-0.122,0.071-0.252,0.109-0.381,0.109L25.021,27.491z M11.896,25.804l1.192,0.026c0.788,0.018,1.576,0.036,2.364,0.036
	c0.371,0,0.742-0.004,1.113-0.014c1.506-0.038,3.012-0.053,4.518-0.067l3.284-0.008c-0.132-0.54-0.257-1.052-0.379-1.566
	c-0.111-0.469-0.213-0.94-0.316-1.41c-0.1-0.456-0.199-0.911-0.306-1.365c-0.139-0.588-0.294-1.17-0.45-1.755l-0.208-0.781
	c-0.163-0.613-0.327-1.226-0.498-1.836c-0.212-0.749-0.385-1.508-0.557-2.266l-0.181-0.794c-0.104-0.45-0.208-0.9-0.304-1.352
	l-0.157-0.007c-0.711-0.016-1.421-0.042-2.133-0.069c-0.457-0.017-0.914-0.029-1.372-0.04l-0.9-0.023
	c-0.266-0.009-0.531-0.027-0.796-0.045l-1.341-0.076c-0.725-0.042-1.45-0.078-2.174-0.099c-0.362-0.011-0.725-0.014-1.087-0.017
	c-0.37-0.003-0.74-0.007-1.11-0.017l-2.33-0.071c-0.245-0.006-0.491-0.008-0.736-0.008c-0.328,0-1.58,0.014-1.58,0.014
	c-0.549,0.005-1.097,0.023-1.644,0.059l0.078,0.591c0.11,0.743,0.264,1.533,0.499,2.562l0.109,0.478
	c0.16,0.705,0.321,1.411,0.505,2.112c0.374,1.424,0.724,2.854,1.074,4.283L6.292,23.2c0.089,0.378,0.178,0.756,0.273,1.133
	c0.113,0.456,0.24,0.912,0.383,1.362l0.308,0.032c0.701,0.07,1.421,0.072,2.119,0.075L11.18,25.8L11.896,25.804z M21.624,10.921
	c0.216,0,0.395,0.017,0.561,0.054c0.208,0.045,0.387,0.177,0.506,0.372c0.127,0.209,0.167,0.468,0.106,0.693l0.156,0.996
	c0.128,0.679,0.256,1.357,0.408,2.032c0.148,0.663,0.333,1.316,0.517,1.97c0.086,0.307,0.173,0.615,0.256,0.924
	c0,0,0.219,0.84,0.284,1.074l0.095,0.335c0.072,0.251,0.144,0.503,0.208,0.756c0.184,0.713,0.361,1.428,0.528,2.145
	c0.042,0.178,0.086,0.356,0.132,0.533c0.084-0.419,0.159-0.802,0.225-1.186c0.107-0.621,0.222-1.238,0.337-1.856l0.077-0.411
	c0.085-0.46,0.158-0.922,0.231-1.384l0.21-1.303c0.098-0.599,0.197-1.198,0.285-1.798l0.057-0.39
	c0.091-0.616,0.181-1.231,0.287-1.844c0.039-0.229,0.219-1.193,0.219-1.193c0.05-0.285,0.095-0.57,0.139-0.856l0.043-0.275
	c0.07-0.452,0.149-0.903,0.228-1.354l0.207-1.209c0.088-0.54,0.177-1.081,0.274-1.62l-0.171-0.009l-0.567-0.003
	c-0.49,0-0.98,0.008-1.471,0.029c-0.652,0.026-1.304,0.044-1.958,0.044l-0.859-0.002c-0.525,0-1.048,0.004-1.572,0.019
	c-0.5,0.015-1.003,0.022-1.503,0.022l-0.443-0.002l-0.393,1.201c-0.075,0.226-0.143,0.453-0.211,0.68
	c-0.056,0.186-0.218,0.647-0.218,0.647c-0.043,0.388-0.388,0.716-0.778,0.716l-0.521-0.029c-0.476-0.029-0.951-0.058-1.43-0.058
	l-2.025,0.004c-0.689,0.004-1.378,0.023-2.067,0.042c-0.504,0.014-1.008,0.027-1.512,0.035c-0.117,0.414-0.25,0.822-0.396,1.225
	l1.039,0.012c0.862,0.008,1.724,0.016,2.586,0.043c0.708,0.023,1.416,0.048,2.124,0.096c0.68,0.046,1.357,0.058,2.039,0.069
	l0.721,0.016c0.467,0.012,0.936,0.024,1.404,0.024l0.5-0.003c0.252-0.001,0.505-0.003,0.755-0.013
	C21.393,10.925,21.509,10.921,21.624,10.921z"/>
</svg>