<?xml version="1.0" encoding="utf-8"?>
<!-- Generator: Adobe Illustrator 21.1.0, SVG Export Plug-In . SVG Version: 6.00 Build 0)  -->
<svg version="1.1" id="designs" xmlns="http://www.w3.org/2000/svg" xmlns:xlink="http://www.w3.org/1999/xlink" x="0px" y="0px"
	 width="32px" height="32px" viewBox="0 0 32 32" style="enable-background:new 0 0 32 32;" xml:space="preserve">
<style type="text/css">
	.sketchy_een{fill:#111918;}
</style>
<path class="sketchy_een" d="M25.672,15.195c-0.039-0.426-0.068-0.858-0.158-1.277c-0.082-0.391-0.176-0.78-0.293-1.161
	c-0.115-0.372-0.254-0.737-0.381-1.105c-0.164-0.473-0.393-0.901-0.632-1.337c-0.196-0.362-0.399-0.714-0.645-1.042
	c-0.154-0.209-0.325-0.407-0.506-0.592c-0.149-0.151-0.317-0.278-0.479-0.415c-0.156-0.131-0.301-0.278-0.456-0.413
	c-0.17-0.149-0.352-0.288-0.538-0.417c-0.12-0.084-0.26-0.122-0.4-0.122c-0.029,0-0.058,0.009-0.088,0.012
	c-0.061-0.019-0.12-0.044-0.186-0.044c-0.015,0-0.031,0-0.046,0.001c-0.278,0.02-0.553,0.055-0.833,0.062
	c-0.348,0.01-0.698,0.016-1.046,0.018c-0.677,0.006-1.353,0-2.03-0.002c-0.714-0.002-1.429,0.006-2.143,0.016
	c-0.273,0.004-0.545,0.012-0.818,0.015c-0.036-0.07-0.074-0.14-0.137-0.194c-0.156-0.133-0.291-0.277-0.42-0.435
	c-0.18-0.235-0.358-0.471-0.536-0.707c0.102-0.004,0.203-0.012,0.304-0.01c0.213,0.002,0.434-0.02,0.618-0.141
	c0.135-0.088,0.264-0.207,0.328-0.36c0.046-0.108,0.087-0.218,0.128-0.328c0.07-0.145,0.154-0.281,0.244-0.414
	c0.305-0.374,0.628-0.726,1.002-1.03c0.22-0.171,0.443-0.347,0.691-0.475c0.079-0.025,0.161-0.044,0.243-0.06
	c0.401-0.076,0.626-0.553,0.524-0.923c-0.026-0.094-0.069-0.174-0.122-0.244c-0.034-0.135-0.09-0.265-0.19-0.365
	c-0.123-0.123-0.321-0.229-0.504-0.229c-0.015,0-0.03,0.001-0.045,0.002c-0.528,0.053-1.056,0.094-1.584,0.164
	c-0.546,0.072-1.093,0.149-1.643,0.209c-1.224,0.135-2.45,0.141-3.68,0.184c-0.053,0.002-0.1,0.022-0.151,0.033
	c-0.019-0.025-0.028-0.055-0.05-0.079C8.79,1.749,8.581,1.493,8.373,1.237C8.246,1.078,7.996,1,7.802,1
	C7.589,1,7.382,1.086,7.23,1.237C7.079,1.387,6.993,1.594,6.993,1.808c0,0.231,0.096,0.401,0.237,0.571
	c0.211,0.254,0.436,0.495,0.667,0.729C7.947,3.159,8.01,3.188,8.07,3.222C7.907,3.786,7.744,4.349,7.603,4.918
	C7.447,5.548,7.3,6.179,7.122,6.805C6.964,7.362,6.796,7.918,6.647,8.479C6.573,8.76,6.499,9.044,6.432,9.327
	C6.403,9.453,6.377,9.58,6.354,9.705c-0.043,0.223-0.096,0.458-0.031,0.68c0.156,0.536,0.882,0.772,1.283,0.338
	c0.127-0.139,0.194-0.293,0.28-0.456c0.059-0.114,0.125-0.221,0.192-0.331c0.132-0.216,0.268-0.427,0.417-0.63
	c0.223-0.271,0.469-0.53,0.739-0.755C9.434,8.413,9.658,8.3,9.883,8.2c0.157-0.059,0.319-0.105,0.485-0.136
	c0.017-0.001,0.034-0.002,0.051-0.004c0.023,0,0.047-0.002,0.07-0.004c0.256-0.023,0.426-0.086,0.634-0.256
	c0.224-0.185,0.255-0.48,0.339-0.743C11.494,7,11.532,6.946,11.567,6.89c0.168,0.203,0.331,0.411,0.504,0.612
	c-0.194,0.061-0.369,0.183-0.478,0.368c-0.409,0.7-0.81,1.408-1.226,2.104c-0.418,0.698-0.772,1.419-1.083,2.172
	c-0.303,0.728-0.581,1.478-0.751,2.251c-0.184,0.837-0.235,1.711-0.174,2.565c0.045,0.657,0.198,1.328,0.436,1.942
	c0.239,0.614,0.536,1.201,0.872,1.766c0.174,0.295,0.393,0.577,0.608,0.845c0.242,0.303,0.524,0.559,0.835,0.792
	c0.229,0.17,0.456,0.346,0.702,0.489c0.25,0.147,0.508,0.263,0.771,0.376c0.346,0.154,0.683,0.323,1.043,0.44
	c0.354,0.113,0.714,0.148,1.08,0.181c0.197,0.041,0.388,0.104,0.586,0.14c0.085,0.014,0.171,0.019,0.256,0.03
	c-0.033,0.919-0.018,1.838-0.024,2.757c-0.004,0.459-0.014,0.921-0.01,1.38c0.002,0.399,0.023,0.796,0.029,1.193
	c-0.045,0-0.089,0.001-0.134,0.001c-0.235,0-0.467,0-0.7,0c-0.819,0.004-1.639-0.02-2.458-0.02
	c-0.471,0.002-0.864,0.393-0.864,0.865c0,0.465,0.393,0.87,0.864,0.862c0.798-0.012,1.596-0.035,2.395-0.033
	c0.749,0.002,1.494-0.021,2.243-0.037c0.714-0.012,1.425-0.051,2.139-0.064c0.274-0.004,0.547-0.006,0.821-0.004
	c0.086,0.002,0.174,0,0.262-0.002c0.169-0.003,0.339-0.006,0.508,0.006c0.223,0.036,0.426,0.032,0.626-0.087
	c0.188-0.109,0.327-0.289,0.383-0.499c0.145-0.522-0.262-1.054-0.804-1.054c-0.028,0-0.057,0-0.085,0
	c-1.185,0-2.369,0.036-3.553,0.055c-0.038-0.829-0.062-1.659-0.064-2.49c0-0.495,0.008-0.99,0.023-1.484
	c0.014-0.427,0.05-0.852,0.078-1.277c0.148-0.003,0.296-0.01,0.444-0.037c0.188-0.035,0.373-0.086,0.561-0.133
	c0.356-0.086,0.71-0.184,1.058-0.299c0.334-0.109,0.661-0.239,0.993-0.352c0.379-0.131,0.745-0.295,1.101-0.479
	c0.366-0.19,0.682-0.454,1.001-0.712c0.287-0.233,0.547-0.481,0.79-0.761c0.272-0.311,0.557-0.61,0.782-0.958
	c0.221-0.336,0.405-0.696,0.596-1.048c0.393-0.726,0.71-1.506,0.921-2.303c0.049-0.184,0.096-0.37,0.141-0.553
	c0.055-0.229,0.084-0.461,0.092-0.696C25.713,15.531,25.687,15.361,25.672,15.195z M10.362,5.845
	C10.245,6,10.134,6.156,10.038,6.322C10.004,6.381,9.975,6.443,9.95,6.505C9.945,6.506,9.941,6.507,9.936,6.508
	C9.713,6.564,9.502,6.643,9.289,6.735c-0.186,0.081-0.372,0.17-0.552,0.27c0.338-1.16,0.694-2.313,1.043-3.469
	c1.039-0.06,2.078-0.131,3.113-0.227c0.333-0.031,0.666-0.055,0.999-0.086c-0.02,0.022-0.043,0.042-0.063,0.064
	c-0.125,0.139-0.254,0.274-0.372,0.418c-0.149,0.184-0.285,0.367-0.407,0.569c-0.042,0.069-0.076,0.142-0.11,0.215
	c-0.197,0.01-0.395,0.035-0.59,0.066c-0.346,0.053-0.688,0.192-0.989,0.369C10.971,5.159,10.636,5.487,10.362,5.845z M11.732,10.825
	c0.364-0.595,0.746-1.179,1.111-1.774c0.635-0.035,1.269-0.067,1.904-0.066c0.714,0.002,1.425,0.014,2.139,0.012
	c0.68,0,1.363,0.002,2.045-0.002c0.354-0.004,0.708-0.027,1.062-0.047c0.257-0.012,0.516-0.018,0.773-0.03
	c0.028,0.018,0.055,0.036,0.083,0.054c0.23,0.192,0.442,0.405,0.674,0.597c0.271,0.222,0.518,0.459,0.74,0.727
	c0.182,0.256,0.354,0.52,0.521,0.788c0.184,0.296,0.367,0.594,0.521,0.908c0,0.001,0.001,0.002,0.001,0.003
	c-0.547,0.035-1.097,0.055-1.643,0.081c-0.808,0.037-1.615,0.025-2.425,0.018c-0.811-0.008-1.625,0.01-2.438,0.016
	c-0.788,0.006-1.576,0.006-2.364,0.014c-0.632,0.008-1.261,0.014-1.893,0.006c-0.495-0.007-0.99-0.042-1.485-0.073
	C11.266,11.639,11.486,11.226,11.732,10.825z M9.926,17.073c-0.002-0.016-0.004-0.032-0.007-0.048
	c0.001,0.01,0.003,0.021,0.004,0.031c-0.002-0.013-0.003-0.027-0.005-0.04c-0.002-0.011-0.003-0.023-0.005-0.034
	c0.001,0.01,0.003,0.019,0.004,0.029c-0.001-0.007-0.002-0.015-0.003-0.022c0.001,0.01,0.003,0.021,0.004,0.031
	c0.003,0.019,0.005,0.038,0.008,0.057C9.926,17.075,9.926,17.074,9.926,17.073z M23.988,16.91c-0.08,0.299-0.191,0.585-0.307,0.871
	c-0.285,0.66-0.632,1.296-1.031,1.896c-0.385,0.479-0.822,0.923-1.302,1.304c-0.04,0.031-0.081,0.062-0.121,0.093
	c-0.308,0.234-0.637,0.416-0.984,0.581c-0.2,0.079-0.402,0.147-0.608,0.211c-0.25,0.078-0.491,0.184-0.741,0.262
	c-0.478,0.152-0.977,0.269-1.474,0.349c-0.277,0.014-0.557-0.015-0.833-0.026c-0.238-0.009-0.479-0.016-0.715-0.036
	c-0.17-0.032-0.336-0.078-0.503-0.128c-0.274-0.084-0.556-0.114-0.838-0.146c-0.265-0.053-0.515-0.142-0.767-0.241
	c-0.095-0.044-0.19-0.093-0.286-0.138c-0.151-0.07-0.305-0.133-0.459-0.196c-0.362-0.172-0.691-0.397-1.015-0.63
	c-0.211-0.175-0.404-0.363-0.581-0.575c-0.214-0.287-0.411-0.58-0.588-0.893c-0.204-0.356-0.38-0.725-0.548-1.099
	c-0.163-0.417-0.274-0.846-0.358-1.287c-0.005-0.034-0.01-0.069-0.014-0.104c-0.066-0.576-0.031-1.168,0.022-1.744
	c0.091-0.543,0.256-1.071,0.443-1.591c0.04,0.007,0.075,0.025,0.117,0.027c1.666,0.082,3.336-0.002,5.004-0.002
	c0.802,0,1.602-0.012,2.403-0.025c0.473-0.008,0.948-0.004,1.424,0c0.336,0.002,0.671,0.004,1.007,0.002
	c0.63-0.004,1.255-0.043,1.885-0.08c0.305-0.018,0.612-0.026,0.917-0.037c0.244-0.01,0.489-0.027,0.732-0.023
	c0.124,0.397,0.218,0.805,0.28,1.215c0.046,0.385,0.109,0.775,0.09,1.163C24.174,16.229,24.078,16.572,23.988,16.91z M9.918,17.02
	c0,0.001,0,0.003,0.001,0.005c0-0.003-0.001-0.006-0.001-0.009c0-0.001,0-0.003-0.001-0.005C9.918,17.014,9.918,17.017,9.918,17.02z
	 M22.936,16.795c-0.121,0.466-0.305,0.927-0.579,1.324c-0.274,0.397-0.62,0.733-0.937,1.093c-0.346,0.395-0.714,0.807-1.169,1.079
	c-0.497,0.299-1.054,0.469-1.605,0.637c-0.409,0.125-0.854-0.145-0.964-0.548c-0.117-0.42,0.139-0.841,0.547-0.964
	c0.249-0.076,0.498-0.152,0.74-0.245c0.191-0.088,0.374-0.187,0.547-0.308c0.482-0.4,0.877-0.908,1.266-1.397
	c0.144-0.202,0.266-0.418,0.37-0.642c0.058-0.157,0.104-0.319,0.149-0.479c0.105-0.371,0.45-0.622,0.821-0.622
	c0.073,0,0.146,0.01,0.219,0.03C22.794,15.878,23.052,16.347,22.936,16.795z"/>
</svg>