<?xml version="1.0" encoding="utf-8"?>
<!-- Generator: Adobe Illustrator 21.1.0, SVG Export Plug-In . SVG Version: 6.00 Build 0)  -->
<svg version="1.1" id="designs" xmlns="http://www.w3.org/2000/svg" xmlns:xlink="http://www.w3.org/1999/xlink" x="0px" y="0px"
	 width="32px" height="32px" viewBox="0 0 32 32" style="enable-background:new 0 0 32 32;" xml:space="preserve">
<style type="text/css">
	.sketchy_een{fill:#111918;}
</style>
<path class="sketchy_een" d="M10.523,19.972c0.215-0.11,0.418-0.24,0.623-0.368c0.186-0.118,0.373-0.232,0.551-0.36
	c0.442-0.322,0.787-0.752,1.075-1.213c0.025-0.01,0.052-0.011,0.077-0.024c0.488-0.246,0.952-0.52,1.412-0.812
	c0.337-0.214,0.651-0.466,1.003-0.655c0.321,0.326,0.599,0.691,0.895,1.04c0.203,0.242,0.412,0.439,0.666,0.629
	c0.327,0.244,0.803,0.31,1.2,0.344c0.412,0.039,0.838-0.124,1.202-0.304c0.263-0.13,0.511-0.286,0.749-0.46
	c0.458-0.338,0.917-0.672,1.366-1.022c0.081-0.061,0.163-0.115,0.25-0.163c0.03-0.009,0.06-0.018,0.091-0.025
	c0.013,0.008,0.026,0.017,0.039,0.026c0.233,0.203,0.441,0.427,0.655,0.65c0.236,0.246,0.486,0.478,0.753,0.691
	c0.147,0.116,0.294,0.232,0.449,0.339c0.162,0.108,0.352,0.18,0.536,0.24c0.323,0.108,0.669,0.12,1.002,0.077
	c0.083-0.011,0.166-0.023,0.25-0.035c0.159-0.045,0.296-0.124,0.412-0.24c0.176-0.174,0.275-0.414,0.275-0.662
	c0-0.248-0.099-0.488-0.275-0.662c-0.252-0.253-0.573-0.302-0.909-0.242c-0.034,0.006-0.067,0.012-0.101,0.018
	c-0.032,0.001-0.064,0.001-0.096-0.001c-0.079-0.017-0.156-0.037-0.233-0.063c-0.073-0.038-0.143-0.082-0.211-0.129
	c-0.558-0.47-0.989-1.077-1.59-1.503c-0.577-0.406-1.269-0.339-1.873-0.048c-0.318,0.153-0.567,0.416-0.835,0.641
	c-0.237,0.176-0.485,0.338-0.723,0.512c-0.271,0.197-0.536,0.381-0.835,0.533c-0.083,0.031-0.167,0.06-0.253,0.081
	c-0.042,0.001-0.084,0.001-0.126-0.001c-0.077-0.016-0.154-0.036-0.229-0.061c-0.033-0.019-0.065-0.039-0.097-0.06
	c-0.307-0.268-0.55-0.599-0.825-0.897c-0.151-0.164-0.308-0.323-0.457-0.49c-0.133-0.149-0.286-0.294-0.468-0.385
	c-0.163-0.082-0.338-0.12-0.513-0.12c-0.166,0-0.334,0.034-0.493,0.095c-0.284,0.11-0.549,0.252-0.805,0.418
	c-0.203,0.134-0.395,0.282-0.604,0.41c-0.286,0.177-0.589,0.329-0.887,0.489c-0.179-0.358-0.421-0.688-0.648-1.013
	c-0.253-0.362-0.513-0.72-0.786-1.066c-0.122-0.159-0.25-0.313-0.383-0.462c-0.18-0.199-0.399-0.36-0.623-0.507
	c-0.402-0.261-0.875-0.418-1.318-0.6c-0.457-0.186-0.904-0.312-1.395-0.37c-0.323-0.039-0.652-0.046-0.977-0.052
	c-0.025,0-0.051-0.001-0.076-0.001c-0.413,0-0.815,0.073-1.214,0.177c-0.402,0.104-0.789,0.23-1.161,0.424
	c-0.828,0.431-1.3,1.294-1.689,2.109c-0.103,0.217-0.199,0.437-0.248,0.673c-0.058,0.277-0.085,0.557-0.097,0.838
	c-0.017,0.478,0.083,0.935,0.25,1.378c0.091,0.242,0.18,0.493,0.304,0.718c0.106,0.193,0.228,0.377,0.358,0.553
	c0.17,0.228,0.344,0.443,0.561,0.627c0.219,0.184,0.455,0.36,0.697,0.511c0.422,0.261,0.907,0.449,1.383,0.584
	c0.524,0.151,1.091,0.172,1.635,0.157c0.573-0.015,1.159-0.11,1.707-0.273c0.246-0.074,0.484-0.17,0.724-0.259
	C9.925,20.233,10.231,20.117,10.523,19.972z M21.721,16.574c0.023,0.008,0.046,0.018,0.069,0.029
	c-0.024-0.01-0.047-0.02-0.071-0.029C21.72,16.574,21.72,16.574,21.721,16.574z M7.843,18.934c-0.421,0.04-0.836,0.054-1.258,0.028
	c-0.296-0.049-0.583-0.117-0.867-0.223c-0.314-0.147-0.604-0.322-0.885-0.526c-0.117-0.102-0.226-0.21-0.329-0.328
	c-0.166-0.231-0.311-0.471-0.429-0.729c-0.068-0.171-0.128-0.343-0.165-0.524c-0.015-0.204-0.014-0.408,0-0.612
	c0.026-0.133,0.061-0.262,0.107-0.39c0.16-0.353,0.355-0.69,0.58-1.005c0.058-0.063,0.118-0.122,0.182-0.178
	c0.088-0.056,0.179-0.107,0.272-0.154c0.352-0.125,0.728-0.203,1.097-0.263c0.301-0.024,0.612-0.01,0.914,0.023
	c0.346,0.056,0.685,0.14,1.011,0.266c0.42,0.179,0.839,0.363,1.222,0.611c0.241,0.214,0.45,0.475,0.648,0.727
	c0.131,0.17,0.263,0.34,0.396,0.509c0.211,0.284,0.408,0.582,0.578,0.892c0.015,0.049,0.029,0.099,0.043,0.15
	c0.012,0.046,0.028,0.09,0.047,0.133c-0.121,0.145-0.25,0.284-0.392,0.408c-0.173,0.118-0.354,0.224-0.535,0.333
	c-0.213,0.131-0.427,0.258-0.651,0.368C8.919,18.656,8.384,18.842,7.843,18.934z M6.665,9.015C6.772,9.211,6.88,9.406,7.014,9.586
	c0.163,0.219,0.325,0.439,0.501,0.65c0.37,0.443,0.89,0.685,1.416,0.894c0.623,0.246,1.279,0.327,1.945,0.346
	c0.549,0.016,1.111-0.099,1.652-0.184c0.23-0.035,0.46-0.073,0.691-0.11c0.219-0.037,0.443-0.066,0.656-0.135
	c0.59-0.193,1.2-0.435,1.699-0.811c0.782-0.589,1.519-1.258,2.005-2.12c0.018-0.013,0.038-0.019,0.055-0.034
	c0.345-0.302,0.694-0.601,1.051-0.887c0.073-0.055,0.146-0.109,0.222-0.16c0.024,0.026,0.047,0.052,0.07,0.079
	c0.194,0.277,0.344,0.579,0.517,0.869c0.275,0.461,0.613,0.925,1.089,1.188c0.426,0.236,0.911,0.275,1.378,0.163
	c0.201-0.048,0.399-0.153,0.578-0.257c0.293-0.17,0.56-0.388,0.827-0.597c-0.008,0.007-0.017,0.014-0.026,0.02
	c0.236-0.18,0.473-0.354,0.738-0.488c0.014-0.005,0.027-0.009,0.041-0.013c0.012,0.007,0.023,0.015,0.034,0.022
	c0.252,0.226,0.508,0.443,0.779,0.649c0.341,0.259,0.72,0.526,1.149,0.6c0.348,0.06,0.716,0.077,1.066,0.017
	c0.462-0.081,0.844-0.337,1.192-0.641c0.252-0.221,0.488-0.451,0.712-0.7c0.329-0.362,0.36-0.911,0-1.269
	c-0.168-0.168-0.399-0.263-0.635-0.263c-0.163,0-0.313,0.041-0.455,0.122c-0.135,0.079-0.242,0.188-0.321,0.323
	c-0.021,0.029-0.043,0.058-0.064,0.086c-0.149,0.174-0.313,0.33-0.488,0.477c-0.076,0.052-0.153,0.1-0.234,0.143
	c-0.002,0-0.004,0.001-0.006,0.002c-0.137,0.002-0.273,0-0.41-0.01c-0.015-0.004-0.029-0.007-0.044-0.011
	c-0.201-0.1-0.388-0.221-0.572-0.353c-0.1-0.08-0.198-0.161-0.293-0.247c-0.064-0.06-0.128-0.118-0.193-0.176
	c-0.215-0.197-0.443-0.342-0.714-0.449c-0.577-0.226-1.215,0.029-1.72,0.323c-0.47,0.276-0.881,0.656-1.367,0.903
	c-0.024,0.007-0.049,0.015-0.073,0.021h0c-0.021-0.006-0.042-0.012-0.063-0.019c-0.002-0.001-0.003-0.002-0.005-0.003
	c-0.112-0.102-0.21-0.214-0.305-0.332c-0.211-0.299-0.385-0.619-0.597-0.916c-0.128-0.178-0.261-0.358-0.416-0.513
	c-0.217-0.219-0.468-0.366-0.76-0.466c-0.109-0.037-0.22-0.054-0.33-0.054c-0.302,0-0.6,0.125-0.846,0.294
	c-0.174,0.12-0.344,0.244-0.515,0.372c-0.196,0.147-0.38,0.309-0.57,0.463c-0.673-0.611-1.343-1.223-2.024-1.826
	c-0.348-0.308-0.72-0.584-1.089-0.867c-0.35-0.269-0.76-0.476-1.167-0.652c-0.431-0.188-0.863-0.312-1.327-0.393
	c-0.281-0.05-0.565-0.091-0.849-0.103c-0.04-0.002-0.08-0.002-0.12-0.002c-0.208,0-0.417,0.019-0.623,0.037
	C9.579,2.613,9.305,2.652,9.032,2.692C8.5,2.774,8.086,3.095,7.679,3.416C7.277,3.733,6.915,4.122,6.648,4.557
	c-0.315,0.513-0.375,1.13-0.449,1.71c-0.077,0.6-0.141,1.256,0.046,1.836C6.346,8.419,6.509,8.723,6.665,9.015z M24.149,7.99
	c0.005,0.002,0.01,0.004,0.015,0.006C24.158,7.994,24.153,7.992,24.149,7.99L24.149,7.99z M19.006,6.972
	c0.002,0,0.004,0.001,0.006,0.001C19.01,6.973,19.008,6.972,19.006,6.972L19.006,6.972z M8.143,6.329
	C8.177,6.106,8.22,5.885,8.289,5.671C8.34,5.568,8.397,5.469,8.462,5.373c0.186-0.215,0.396-0.404,0.618-0.584
	C9.168,4.727,9.257,4.674,9.35,4.626c0.092-0.024,0.184-0.042,0.277-0.059c0.408-0.046,0.819-0.073,1.229-0.035
	c0.396,0.061,0.787,0.148,1.162,0.289c0.347,0.161,0.69,0.332,1.006,0.55c0.275,0.191,0.556,0.375,0.825,0.574
	c0.182,0.144,0.364,0.288,0.547,0.431c0.432,0.349,0.822,0.751,1.223,1.135c-0.308,0.372-0.652,0.706-1.024,1.013
	c-0.212,0.153-0.428,0.285-0.664,0.402c-0.36,0.142-0.724,0.256-1.11,0.327c-0.417,0.077-0.837,0.139-1.257,0.198
	c-0.231,0.023-0.458,0.039-0.69,0.048c-0.192,0.007-0.385-0.012-0.576-0.034c-0.217-0.039-0.424-0.095-0.633-0.168
	C9.464,9.207,9.268,9.109,9.08,8.989C8.94,8.86,8.816,8.713,8.697,8.562c-0.21-0.297-0.395-0.618-0.548-0.95
	C8.12,7.53,8.097,7.45,8.078,7.366C8.071,7.022,8.106,6.672,8.143,6.329z M29.879,24.303c-0.114-0.199-0.308-0.346-0.528-0.406
	c-0.25-0.07-0.455-0.011-0.681,0.089c-0.332,0.146-0.611,0.382-0.925,0.563c-0.041,0.013-0.082,0.023-0.125,0.033
	c-0.017,0.001-0.034,0.001-0.051,0.002c-0.02-0.011-0.039-0.022-0.059-0.034c-0.111-0.1-0.216-0.207-0.325-0.31
	c-0.176-0.165-0.341-0.341-0.507-0.515c-0.151-0.157-0.296-0.319-0.449-0.476c-0.06-0.062-0.124-0.12-0.192-0.174
	c-0.118-0.093-0.222-0.178-0.36-0.238c-0.197-0.087-0.341-0.12-0.559-0.139c-0.019-0.001-0.038-0.002-0.057-0.002
	c-0.162,0-0.349,0.048-0.496,0.109c-0.141,0.056-0.284,0.11-0.414,0.192c-0.201,0.126-0.383,0.29-0.555,0.457
	c-0.137,0.13-0.263,0.273-0.393,0.412c-0.146,0.156-0.304,0.297-0.471,0.432c-0.041,0.03-0.082,0.059-0.124,0.087
	c-0.043-0.029-0.084-0.059-0.126-0.091c-0.18-0.139-0.359-0.281-0.518-0.445c-0.205-0.213-0.401-0.435-0.625-0.631
	c-0.087-0.076-0.18-0.145-0.275-0.215c-0.128-0.091-0.402-0.174-0.563-0.161c-0.097,0.006-0.192,0.017-0.286,0.035
	c-0.128,0.037-0.25,0.095-0.37,0.151c-0.104,0.048-0.207,0.126-0.298,0.193c-0.228,0.169-0.441,0.353-0.659,0.531
	c-0.041-0.109-0.105-0.208-0.198-0.288c-0.391-0.337-0.789-0.666-1.186-0.993c-0.379-0.312-0.741-0.654-1.138-0.94
	c-0.166-0.122-0.335-0.238-0.507-0.354c-0.246-0.167-0.505-0.283-0.784-0.391c-0.408-0.161-0.877-0.286-1.316-0.288
	c-0.04,0-0.079-0.001-0.119-0.001c-0.511,0-1.041,0.037-1.526,0.188c-0.294,0.091-0.584,0.201-0.844,0.366
	c-0.246,0.157-0.47,0.346-0.687,0.542c-0.358,0.325-0.669,0.729-0.909,1.151c-0.137,0.244-0.246,0.505-0.352,0.764
	c-0.087,0.213-0.161,0.426-0.205,0.65c-0.064,0.319-0.11,0.64-0.145,0.966c-0.031,0.271,0.039,0.565,0.077,0.83
	c0.041,0.29,0.205,0.577,0.346,0.83c0.11,0.195,0.248,0.381,0.377,0.563c0.135,0.191,0.277,0.375,0.437,0.544
	c0.122,0.128,0.261,0.24,0.393,0.356c0.472,0.412,1.025,0.714,1.604,0.946c0.313,0.126,0.654,0.163,0.989,0.19
	c0.24,0.021,0.48,0.035,0.72,0.05c0.091,0.006,0.184,0.01,0.277,0.013c0.236,0.012,0.462-0.025,0.695-0.06
	c0.282-0.045,0.569-0.194,0.826-0.306c0.128-0.054,0.253-0.108,0.381-0.166c0.18-0.079,0.358-0.163,0.534-0.253
	c0.298-0.153,0.551-0.385,0.795-0.611c0.147-0.139,0.296-0.277,0.441-0.418c0.199-0.192,0.368-0.414,0.524-0.64
	c0.197-0.283,0.401-0.567,0.59-0.857c0.134-0.208,0.247-0.427,0.384-0.633c0.094-0.041,0.184-0.093,0.264-0.163
	c0.267-0.238,0.538-0.471,0.816-0.696c0.162,0.159,0.315,0.327,0.483,0.481c0.137,0.126,0.284,0.242,0.426,0.364
	c0.223,0.189,0.443,0.4,0.714,0.518c0.164,0.072,0.331,0.141,0.515,0.134c0.143-0.004,0.282-0.021,0.42-0.064
	c0.29-0.089,0.526-0.296,0.76-0.48c0.18-0.143,0.354-0.29,0.517-0.453c0.223-0.223,0.422-0.463,0.657-0.674
	c0.029-0.018,0.058-0.035,0.088-0.051c0.2,0.187,0.38,0.402,0.564,0.603c0.25,0.273,0.49,0.555,0.737,0.83
	c0.263,0.294,0.698,0.463,1.08,0.497c0.313,0.029,0.656-0.035,0.948-0.155c0.431-0.178,0.786-0.486,1.209-0.679
	c0.199-0.091,0.352-0.327,0.406-0.528C30.032,24.756,29.999,24.506,29.879,24.303z M17.373,25.185
	c-0.162,0.203-0.328,0.401-0.488,0.605c0.028-0.036,0.056-0.073,0.084-0.109c-0.174,0.223-0.35,0.433-0.557,0.625
	c-0.203,0.186-0.412,0.367-0.621,0.547c-0.19,0.125-0.397,0.222-0.607,0.312c-0.279,0.113-0.555,0.223-0.848,0.288
	c-0.418,0.018-0.838-0.014-1.252-0.064c-0.216-0.045-0.424-0.111-0.629-0.188c-0.201-0.098-0.392-0.208-0.575-0.333
	c-0.197-0.161-0.387-0.33-0.551-0.523c-0.175-0.233-0.343-0.47-0.479-0.728c-0.033-0.099-0.057-0.199-0.076-0.303
	c-0.011-0.159-0.005-0.314,0.009-0.474c0.044-0.271,0.109-0.527,0.205-0.784c0.13-0.278,0.285-0.531,0.463-0.777
	c0.187-0.21,0.386-0.404,0.599-0.587c0.096-0.067,0.194-0.128,0.298-0.181c0.192-0.067,0.387-0.122,0.586-0.165
	c0.318-0.032,0.646-0.053,0.962-0.026c0.253,0.046,0.499,0.117,0.742,0.203c0.365,0.178,0.708,0.412,1.033,0.654
	c0.615,0.485,1.208,0.996,1.796,1.512c0.054,0.047,0.112,0.088,0.172,0.122C17.551,24.937,17.464,25.062,17.373,25.185z"/>
</svg>