<?xml version="1.0" encoding="utf-8"?>
<!-- Generator: Adobe Illustrator 21.1.0, SVG Export Plug-In . SVG Version: 6.00 Build 0)  -->
<svg version="1.1" id="designs" xmlns="http://www.w3.org/2000/svg" xmlns:xlink="http://www.w3.org/1999/xlink" x="0px" y="0px"
	 width="32px" height="32px" viewBox="0 0 32 32" style="enable-background:new 0 0 32 32;" xml:space="preserve">
<style type="text/css">
	.sketchy_een{fill:#111918;}
</style>
<path class="sketchy_een" d="M4.549,20.033c0.008,0.019,0.016,0.038,0.023,0.057l0,0.001C4.565,20.071,4.557,20.052,4.549,20.033z
	 M4.573,20.09c0,0.001,0.001,0.002,0.001,0.002c0,0,0,0,0,0C4.573,20.091,4.573,20.091,4.573,20.09z M29.332,8.768
	c-0.493,0.503-0.948,1.043-1.391,1.589c-0.42,0.517-0.84,1.029-1.266,1.54c-0.821,0.987-1.684,1.94-2.479,2.946
	c-0.167,0.23-0.326,0.463-0.485,0.698c-0.128,0.186-0.283,0.327-0.505,0.387c-0.219,0.06-0.457,0.029-0.652-0.085
	c-0.107-0.062-0.193-0.156-0.263-0.261c-0.45-0.225-0.893-0.464-1.347-0.68c-0.265-0.126-0.535-0.24-0.804-0.359
	c-0.064-0.019-0.122-0.046-0.18-0.08c-0.15-0.066-0.299-0.135-0.449-0.2c-0.387-0.158-0.777-0.291-1.187-0.37
	c-0.268-0.023-0.531-0.024-0.8-0.006c-0.237,0.04-0.467,0.097-0.694,0.178c-0.138,0.07-0.267,0.152-0.394,0.242
	c-0.48,0.396-0.928,0.82-1.323,1.3c-0.196,0.288-0.359,0.593-0.504,0.911c-0.047,0.13-0.084,0.26-0.112,0.396
	c-0.016,0.211-0.01,0.419,0.011,0.629c0.074,0.426,0.193,0.834,0.349,1.238c0.165,0.354,0.362,0.681,0.587,0.999
	c0.467,0.587,0.973,1.14,1.493,1.681c0.176,0.183,0.258,0.422,0.252,0.66c0.205,0.312,0.203,0.758-0.086,1.019
	c-0.548,0.501-1.012,1.078-1.507,1.627c-0.484,0.538-0.979,1.061-1.484,1.577c-1.093,1.113-2.142,2.266-3.195,3.416
	c-0.269,0.292-0.718,0.298-1.038,0.094c-0.233,0.013-0.47-0.06-0.646-0.233c-0.143-0.139-0.288-0.279-0.43-0.422
	c-0.569-0.577-1.084-1.215-1.589-1.848c-0.575-0.72-1.136-1.453-1.668-2.204c-0.49-0.691-0.969-1.389-1.386-2.127
	c-0.217-0.385-0.437-0.77-0.625-1.169c-0.242-0.511-0.466-1.024-0.685-1.544c-0.004-0.009,0.001-0.022-0.003-0.031
	c-0.4-0.234-0.512-0.737-0.297-1.133c0.306-0.569,0.613-1.136,0.931-1.699c0.441-0.782,0.89-1.558,1.382-2.309
	c0.517-0.789,1.078-1.542,1.674-2.274c0.557-0.687,1.124-1.366,1.695-2.04c0.582-0.689,1.151-1.385,1.742-2.067
	c0.559-0.643,1.138-1.27,1.74-1.875c0.59-0.594,1.217-1.153,1.854-1.701c1.302-1.116,2.676-2.187,4.161-3.055
	c0.139-0.082,0.292-0.12,0.445-0.12c0.166,0,0.329,0.049,0.472,0.134c0.115-0.061,0.238-0.105,0.368-0.105
	c0.074,0,0.149,0.011,0.222,0.036c0.163,0.052,0.325,0.108,0.486,0.165c0.873,0.31,1.716,0.675,2.558,1.057
	c0.768,0.35,1.515,0.735,2.237,1.175c0.691,0.418,1.351,0.888,2.03,1.327c0.673,0.436,1.355,0.852,2.005,1.324
	c0.125,0.09,0.217,0.196,0.287,0.321c0.184,0.017,0.365,0.084,0.497,0.214C29.638,7.959,29.632,8.46,29.332,8.768z M14.489,23.59
	c0.325-0.363,0.649-0.727,0.979-1.085c-0.233-0.247-0.46-0.501-0.684-0.759c-0.046,0.046-0.095,0.089-0.14,0.136
	c-0.24,0.252-0.474,0.507-0.704,0.766c-0.252,0.286-0.503,0.573-0.745,0.869c-0.228,0.279-0.445,0.569-0.685,0.838
	c-0.24,0.271-0.511,0.519-0.766,0.776c-0.286,0.288-0.573,0.577-0.859,0.865c-0.471,0.475-0.933,0.961-1.391,1.449
	c0.213,0.238,0.431,0.472,0.657,0.698c0.936-1.005,1.883-1.998,2.848-2.975C13.508,24.654,14.005,24.13,14.489,23.59z
	 M19.631,12.473c0.185,0.073,0.363,0.159,0.545,0.238c0.294-0.398,0.585-0.799,0.895-1.186c0.4-0.498,0.794-1,1.185-1.506
	c0.374-0.49,0.747-0.983,1.089-1.498c0.406-0.615,0.811-1.235,1.208-1.858c0.042-0.065,0.09-0.123,0.144-0.174
	c-0.062-0.042-0.126-0.081-0.188-0.123c-1.094-0.734-2.252-1.336-3.458-1.861c-0.742-0.307-1.493-0.585-2.258-0.834
	c-0.037-0.012-0.064-0.037-0.099-0.053c-0.023,0.017-0.037,0.041-0.061,0.056c-0.571,0.348-1.136,0.7-1.684,1.085
	c-0.509,0.359-1.009,0.726-1.502,1.106c-0.51,0.401-1.01,0.812-1.505,1.23c-1.324,1.126-2.506,2.419-3.611,3.758
	c-1.091,1.323-2.223,2.618-3.28,3.972c-0.565,0.765-1.097,1.554-1.572,2.378c-0.432,0.753-0.835,1.521-1.239,2.288
	c0.101,0.104,0.178,0.221,0.239,0.369c0.024,0.057,0.047,0.116,0.071,0.174c-0.019-0.045-0.038-0.089-0.058-0.135
	c0.027,0.064,0.054,0.128,0.081,0.192c0,0.001,0.001,0.002,0.001,0.002c0.001,0.002,0.002,0.005,0.003,0.007
	c-0.001-0.002-0.002-0.004-0.003-0.007c0.053,0.126,0.107,0.253,0.16,0.379c-0.001-0.002-0.002-0.005-0.003-0.007
	c0.211,0.501,0.464,0.985,0.718,1.467c0.228,0.434,0.48,0.859,0.751,1.268c0.533,0.804,1.109,1.577,1.695,2.343
	c0.174,0.223,0.358,0.438,0.536,0.657c0.451-0.469,0.903-0.935,1.369-1.387c0.283-0.273,0.563-0.546,0.846-0.817
	c0.273-0.263,0.555-0.521,0.807-0.805c0.252-0.286,0.488-0.586,0.737-0.875c0.223-0.259,0.451-0.515,0.683-0.764
	c0.322-0.347,0.655-0.685,0.986-1.024c-0.247-0.379-0.475-0.77-0.647-1.192c-0.238-0.588-0.414-1.217-0.459-1.852
	c-0.031-0.441-0.015-0.913,0.132-1.333c0.134-0.385,0.312-0.782,0.526-1.132c0.459-0.751,1.091-1.405,1.774-1.956
	c0.215-0.172,0.433-0.356,0.681-0.482c0.329-0.165,0.675-0.284,1.037-0.352c0.311-0.058,0.628-0.095,0.945-0.095
	c0.151,0,0.302,0.008,0.452,0.027C18.76,12.215,19.2,12.301,19.631,12.473z M26.777,9.341c0.267-0.32,0.542-0.635,0.812-0.954
	c-0.472-0.33-0.952-0.643-1.441-0.948c-0.028-0.017-0.054-0.036-0.082-0.053c-0.017,0.045-0.021,0.093-0.048,0.134
	c-0.658,1.016-1.337,2.012-2.073,2.972c-0.688,0.898-1.408,1.77-2.109,2.658c-0.061,0.082-0.124,0.162-0.184,0.244
	c0.38,0.19,0.759,0.382,1.134,0.582c0.109-0.143,0.206-0.295,0.324-0.43c0.24-0.273,0.484-0.542,0.728-0.813
	c0.507-0.565,1.012-1.132,1.507-1.705C25.827,10.469,26.305,9.908,26.777,9.341z"/>
</svg>