<?xml version="1.0" encoding="utf-8"?>
<!-- Generator: Adobe Illustrator 21.1.0, SVG Export Plug-In . SVG Version: 6.00 Build 0)  -->
<svg version="1.1" id="designs" xmlns="http://www.w3.org/2000/svg" xmlns:xlink="http://www.w3.org/1999/xlink" x="0px" y="0px"
	 width="32px" height="32px" viewBox="0 0 32 32" style="enable-background:new 0 0 32 32;" xml:space="preserve">
<style type="text/css">
	.sketchy_een{fill:#111918;}
</style>
<path class="sketchy_een" d="M13.046,17.815c0-0.465,0.388-0.853,0.853-0.853s0.853,0.388,0.853,0.853
	c0,0.464-0.388,0.853-0.853,0.853S13.046,18.28,13.046,17.815z M18.42,18.612c0.463,0,0.851-0.386,0.851-0.851
	c0-0.465-0.386-0.851-0.851-0.851c-0.463,0-0.851,0.386-0.851,0.851C17.569,18.226,17.957,18.612,18.42,18.612z M12.653,23.784
	c-0.492,0-0.851,0.396-0.872,0.87c-0.014,0.31-0.026,0.619-0.035,0.929c-0.008,0.312-0.024,0.621,0.012,0.929
	c0.026,0.231,0.075,0.423,0.245,0.594c0.157,0.157,0.372,0.245,0.594,0.245c0.466,0,0.825-0.38,0.839-0.839
	c0.018-0.619,0.059-1.239,0.09-1.858C13.549,24.18,13.11,23.784,12.653,23.784z M21.089,24.213
	c-0.165-0.165-0.392-0.259-0.627-0.259c-0.235,0-0.463,0.094-0.629,0.259c-0.153,0.153-0.28,0.406-0.259,0.629
	c0.061,0.668,0.11,1.337,0.204,2.001c0.039,0.145,0.114,0.272,0.221,0.38c0.161,0.161,0.38,0.251,0.608,0.251
	c0.451,0,0.886-0.39,0.862-0.86c-0.031-0.592-0.067-1.182-0.12-1.772C21.328,24.599,21.268,24.391,21.089,24.213z M25.815,13.943
	c-0.073,0.225-0.165,0.445-0.261,0.661c-0.159,0.357-0.347,0.702-0.568,1.025c-0.28,0.41-0.613,0.784-1.025,1.068
	c-0.405,0.279-0.881,0.439-1.359,0.542c0.405,1.223,0.551,2.499,0.708,3.776c0.029,0.019,0.062,0.032,0.089,0.053
	c0.314,0.229,0.606,0.474,0.855,0.772c0.257,0.306,0.433,0.645,0.59,1.007c0.169,0.384,0.323,0.78,0.398,1.196
	c0.08,0.439,0.139,0.892,0.131,1.339c-0.008,0.443-0.045,0.9-0.157,1.329c-0.116,0.447-0.298,0.888-0.533,1.286
	c-0.451,0.766-1.027,1.458-1.784,1.936c-0.351,0.223-0.735,0.378-1.125,0.521c-0.343,0.127-0.694,0.239-1.051,0.321
	c-0.404,0.096-0.821,0.163-1.235,0.198c-0.367,0.031-0.733,0.029-1.1,0.024c-0.772-0.014-1.546-0.004-2.319-0.029
	c-0.792-0.027-1.586-0.082-2.372-0.172c-0.425-0.049-0.851-0.098-1.274-0.161c-0.412-0.061-0.813-0.135-1.203-0.284
	c-0.811-0.306-1.566-0.817-2.185-1.419c-0.337-0.325-0.631-0.7-0.892-1.09c-0.255-0.38-0.439-0.819-0.519-1.27
	c-0.155-0.859-0.049-1.731,0.151-2.573c0.102-0.425,0.265-0.833,0.486-1.209c0.221-0.376,0.515-0.715,0.829-1.019
	c0.183-0.177,0.387-0.327,0.601-0.463c0.006-0.98,0.094-1.946,0.222-2.916c0.034-0.257,0.075-0.51,0.125-0.761
	c-0.277-0.039-0.553-0.089-0.825-0.155c-0.706-0.172-1.403-0.457-1.927-0.976c-0.49-0.486-0.802-1.058-1.045-1.695
	c-0.165-0.435-0.27-0.964-0.155-1.425c0.071-0.278,0.196-0.584,0.41-0.788c0.178-0.169,0.421-0.363,0.672-0.41
	c0.129-0.025,0.256-0.039,0.382-0.039c0.152,0,0.304,0.021,0.457,0.071c0.082,0.027,0.165,0.053,0.243,0.084
	c0.239,0.094,0.476,0.194,0.706,0.306c0.351,0.172,0.692,0.363,1.029,0.557c0.568,0.325,1.115,0.688,1.657,1.058
	c0.214-0.256,0.448-0.496,0.728-0.69c0.18-0.125,0.367-0.237,0.555-0.349c0.163-0.098,0.329-0.204,0.502-0.284
	c0.035-0.017,0.071-0.026,0.107-0.042c-0.067-0.165-0.078-0.33-0.047-0.515c0.039-0.241,0.076-0.484,0.114-0.727
	c0.122-0.831,0.231-1.662,0.359-2.491c0.121-0.772,0.259-1.542,0.384-2.313c0.129-0.788,0.335-1.56,0.449-2.35
	c0.127-0.89,0.257-1.78,0.386-2.669c0.029-0.202,0.216-0.4,0.382-0.498c0.03-0.018,0.065-0.027,0.097-0.04
	c0.097-0.098,0.209-0.181,0.345-0.218C16.075,1.009,16.145,1,16.215,1c0.354,0,0.678,0.239,0.781,0.591
	c0.157,0.537,0.286,1.08,0.402,1.629c0.325,1.539,0.635,3.081,0.956,4.622c0.157,0.753,0.327,1.503,0.478,2.258
	c0.076,0.384,0.151,0.77,0.221,1.154c0.069,0.365,0.123,0.731,0.212,1.092c0.037,0.15,0.018,0.296-0.025,0.434
	c0.03,0.013,0.061,0.023,0.09,0.037c0.402,0.194,0.758,0.478,1.09,0.776c0.074,0.066,0.139,0.141,0.209,0.212
	c0.037-0.032,0.067-0.068,0.109-0.098c0.7-0.502,1.403-1,2.164-1.407c0.39-0.21,0.786-0.429,1.227-0.508
	c0.194-0.035,0.403-0.073,0.609-0.073c0.116,0,0.231,0.012,0.342,0.043c0.206,0.059,0.414,0.159,0.553,0.325
	c0.163,0.194,0.271,0.416,0.304,0.666C25.993,13.157,25.94,13.557,25.815,13.943z M15.069,12.441
	c0.625-0.087,1.257-0.149,1.886-0.149c0.243,0.001,0.486,0.021,0.727,0.051c-0.05-0.336-0.104-0.67-0.165-1.002
	c-0.135-0.749-0.294-1.492-0.459-2.232c-0.176-0.79-0.333-1.582-0.5-2.372c-0.099-0.468-0.198-0.937-0.298-1.405
	c-0.111,0.573-0.234,1.143-0.336,1.719c-0.129,0.725-0.263,1.452-0.388,2.18c-0.126,0.736-0.228,1.478-0.332,2.219
	C15.16,11.78,15.116,12.111,15.069,12.441z M10.22,15.91c0.119,0.014,0.238,0.027,0.358,0.037c0.009,0.001,0.017,0.005,0.026,0.005
	c0.043-0.096,0.082-0.193,0.128-0.287c-0.398-0.287-0.795-0.574-1.215-0.827c-0.516-0.31-1.043-0.608-1.593-0.858
	c-0.055-0.021-0.11-0.042-0.165-0.061c0.039,0.167,0.093,0.328,0.154,0.489c0.101,0.208,0.214,0.407,0.345,0.597
	c0.113,0.129,0.232,0.248,0.361,0.359c0.126,0.089,0.256,0.168,0.394,0.237C9.403,15.748,9.808,15.844,10.22,15.91z M11.368,20.643
	c0.044-0.01,0.088-0.025,0.133-0.034c0.776-0.161,1.568-0.206,2.358-0.255c0.516-0.031,1.032-0.084,1.548-0.117
	c0.118-0.081,0.261-0.13,0.414-0.137c0.823-0.042,1.649-0.091,2.475-0.091c0.446,0,0.893,0.014,1.338,0.051
	c0.641,0.051,1.29,0.125,1.917,0.272c0.033,0.008,0.064,0.021,0.096,0.029c-0.159-1.016-0.37-2.025-0.749-2.984
	c-0.281-0.652-0.599-1.296-1.018-1.871c-0.281-0.336-0.583-0.642-0.923-0.918c-0.193-0.136-0.396-0.252-0.61-0.351
	c-0.293-0.106-0.593-0.194-0.899-0.248c-0.35-0.032-0.7-0.025-1.05-0.014c-0.392,0.015-0.782,0.037-1.172,0.083
	c-0.319,0.048-0.625,0.113-0.929,0.223c-0.353,0.171-0.693,0.382-1.016,0.607c-0.182,0.157-0.348,0.326-0.504,0.509
	c-0.304,0.432-0.54,0.905-0.754,1.387c-0.132,0.339-0.248,0.681-0.339,1.034c-0.073,0.277-0.121,0.558-0.162,0.839
	c-0.053,0.423-0.097,0.845-0.128,1.268C11.376,20.162,11.37,20.403,11.368,20.643z M23.324,23.499
	c-0.092-0.201-0.193-0.393-0.317-0.576c-0.15-0.177-0.315-0.339-0.492-0.489c-0.102-0.013-0.202-0.046-0.291-0.099
	c-0.071-0.042-0.143-0.107-0.205-0.178c-0.055-0.027-0.105-0.064-0.161-0.089c-0.605-0.226-1.227-0.361-1.863-0.457
	c-1.036-0.124-2.077-0.121-3.118-0.094c-0.147,0.171-0.365,0.281-0.604,0.281c-0.684,0-1.366,0.051-2.048,0.086
	c-0.572,0.029-1.141,0.065-1.71,0.132c-0.499,0.076-0.987,0.188-1.457,0.371c-0.228,0.106-0.443,0.225-0.65,0.368
	c-0.173,0.148-0.33,0.308-0.479,0.48c-0.137,0.19-0.259,0.384-0.364,0.594c-0.123,0.339-0.202,0.689-0.259,1.046
	c-0.045,0.397-0.064,0.791-0.031,1.189c0.031,0.172,0.074,0.338,0.13,0.503c0.111,0.226,0.24,0.436,0.386,0.642
	c0.27,0.328,0.567,0.626,0.895,0.897c0.34,0.245,0.695,0.462,1.074,0.642c0.585,0.216,1.21,0.307,1.827,0.391
	c1.044,0.136,2.09,0.237,3.142,0.256c0.523,0.01,1.045,0.012,1.568,0.004c0.457-0.006,0.91-0.009,1.364-0.06
	c0.653-0.104,1.274-0.292,1.887-0.541c0.256-0.12,0.497-0.26,0.726-0.423c0.228-0.198,0.428-0.416,0.619-0.648
	c0.204-0.28,0.377-0.572,0.524-0.885c0.111-0.287,0.188-0.579,0.238-0.883c0.044-0.437,0.039-0.867-0.008-1.302
	C23.581,24.255,23.473,23.875,23.324,23.499z M24.237,13.5c-0.93,0.435-1.749,1.07-2.576,1.669c0.11,0.186,0.23,0.363,0.326,0.557
	c0.041-0.018,0.074-0.048,0.119-0.059c0.205-0.05,0.404-0.107,0.603-0.178c0.128-0.062,0.25-0.129,0.369-0.207
	c0.174-0.152,0.327-0.318,0.474-0.495c0.236-0.338,0.438-0.692,0.608-1.067C24.188,13.648,24.214,13.574,24.237,13.5z"/>
</svg>