<?xml version="1.0" encoding="utf-8"?>
<!-- Generator: Adobe Illustrator 21.1.0, SVG Export Plug-In . SVG Version: 6.00 Build 0)  -->
<svg version="1.1" id="designs" xmlns="http://www.w3.org/2000/svg" xmlns:xlink="http://www.w3.org/1999/xlink" x="0px" y="0px"
	 width="32px" height="32px" viewBox="0 0 32 32" style="enable-background:new 0 0 32 32;" xml:space="preserve">
<style type="text/css">
	.sketchy_een{fill:#111918;}
</style>
<path class="sketchy_een" d="M29.813,11.383c-0.035-0.163-0.069-0.328-0.121-0.488c-0.048-0.15-0.109-0.292-0.175-0.434
	c-0.102-0.217-0.294-0.386-0.488-0.517c-0.29-0.196-0.703-0.19-1.038-0.157c-0.244,0.025-0.48,0.067-0.713,0.142
	c-0.177,0.056-0.348,0.14-0.519,0.213c-0.336,0.144-0.674,0.323-0.982,0.519c-0.344,0.219-0.674,0.455-1.011,0.688
	c-0.359,0.248-0.707,0.501-1.041,0.782c-0.247,0.205-0.478,0.426-0.707,0.65c-0.005-0.01-0.009-0.02-0.014-0.03
	c-0.14-0.3-0.292-0.607-0.469-0.886c-0.223-0.352-0.477-0.705-0.772-0.997c-0.111-0.109-0.236-0.204-0.359-0.302
	c-0.132-0.106-0.26-0.217-0.39-0.326c0.061-0.383,0.02-0.774-0.101-1.144c-0.136-0.419-0.327-0.816-0.542-1.199
	c-0.11-0.19-0.217-0.381-0.336-0.565C19.74,6.877,19.329,6.51,18.873,6.22c-0.252-0.158-0.515-0.279-0.794-0.386
	c-0.136-0.052-0.28-0.083-0.424-0.11c0.185-0.411,0.326-0.846,0.298-1.294c-0.012-0.196-0.058-0.38-0.133-0.561
	c-0.102-0.244-0.208-0.473-0.386-0.672c-0.267-0.298-0.644-0.538-1.041-0.607c-0.147-0.026-0.295-0.039-0.444-0.039
	c-0.258,0-0.515,0.039-0.761,0.115c-0.507,0.156-0.932,0.529-1.17,0.997c-0.127,0.248-0.202,0.501-0.229,0.778
	c-0.021,0.219,0.015,0.442,0.071,0.655c0.067,0.261,0.223,0.517,0.371,0.74c0.028,0.042,0.068,0.076,0.098,0.117
	c-0.373,0.126-0.739,0.275-1.094,0.453c-0.649,0.327-1.161,0.834-1.579,1.416c-0.204,0.281-0.34,0.625-0.448,0.953
	c-0.102,0.31-0.163,0.626-0.191,0.95c-0.278,0.18-0.555,0.362-0.827,0.551c-0.419,0.292-0.813,0.613-1.159,0.99
	c-0.156,0.171-0.304,0.344-0.448,0.525c-0.371,0.459-0.665,0.977-0.941,1.503c-0.541-0.604-1.174-1.152-1.922-1.469
	c-0.177-0.075-0.344-0.14-0.526-0.194c-0.148-0.043-0.297-0.06-0.447-0.06c-0.15,0-0.3,0.016-0.45,0.039
	c-0.204,0.029-0.398,0.077-0.592,0.152c-0.123,0.046-0.246,0.102-0.363,0.161c-0.15,0.073-0.279,0.19-0.407,0.296
	c-0.186,0.15-0.336,0.361-0.471,0.555c-0.138,0.198-0.227,0.44-0.311,0.663c-0.083,0.217-0.106,0.477-0.127,0.705
	c-0.011,0.123-0.021,0.244-0.025,0.367c-0.036,1.062,0.427,2.058,0.884,2.992c0.34,0.698,0.772,1.335,1.237,1.956
	c0.359,0.478,0.732,0.982,1.209,1.353c0.135,0.105,0.269,0.172,0.423,0.207c0.025,0.182,0.05,0.364,0.083,0.545
	c0.152,0.822,0.44,1.633,0.849,2.363c0.209,0.377,0.444,0.738,0.73,1.061c0.123,0.14,0.25,0.275,0.384,0.404
	C7.98,25.556,8.18,25.7,8.376,25.846c0.144,0.109,0.311,0.2,0.471,0.284c0.323,0.175,0.653,0.313,1.003,0.425
	c0.071,0.022,0.144,0.039,0.215,0.06c-0.01,0.049-0.03,0.094-0.032,0.145c-0.012,0.444-0.031,0.89-0.017,1.333
	c0.006,0.169,0.025,0.342,0.065,0.505c0.029,0.119,0.154,0.348,0.254,0.427c0.019,0.017,0.04,0.033,0.06,0.05
	c0.104,0.102,0.227,0.173,0.367,0.213c0.332,0.133,0.719,0.135,1.074,0.144c0.815,0.027,1.633,0.013,2.45,0.013
	c1.576,0,3.151,0.004,4.727,0.002c0.43,0,0.855-0.058,1.284-0.067c0.282-0.008,0.55-0.042,0.767-0.25
	c0.296-0.284,0.309-0.696,0.325-1.08c0.017-0.413-0.043-0.819-0.107-1.225c0.048-0.006,0.095-0.008,0.143-0.014
	c0.384-0.046,0.763-0.077,1.128-0.213c0.369-0.138,0.701-0.329,1.022-0.553c0.354-0.248,0.699-0.536,1.001-0.845
	c0.296-0.302,0.551-0.649,0.794-0.997c0.211-0.3,0.388-0.625,0.536-0.961c0.163-0.375,0.284-0.767,0.396-1.16
	c0.111-0.392,0.192-0.786,0.246-1.189c-0.001,0.01-0.002,0.02-0.004,0.031c0.055-0.401,0.109-0.807,0.117-1.212
	c0.008-0.382-0.025-0.759-0.073-1.137c-0.046-0.35-0.086-0.698-0.1-1.049c-0.012-0.344,0.003-0.689,0.034-1.031
	c0.046-0.272,0.115-0.534,0.211-0.794c0.116-0.237,0.245-0.461,0.396-0.675c0.1-0.112,0.205-0.213,0.318-0.309
	c0.205-0.137,0.417-0.252,0.641-0.354c0.285-0.111,0.573-0.2,0.872-0.27c0.338-0.077,0.674-0.217,0.861-0.528
	c0.171-0.281,0.198-0.603,0.173-0.922C29.957,12.217,29.902,11.798,29.813,11.383z M15.414,4.434
	c0.007-0.017,0.015-0.034,0.023-0.051c-0.008,0.018-0.015,0.037-0.023,0.055C15.414,4.436,15.414,4.435,15.414,4.434z M15.411,4.495
	c0.014-0.053,0.03-0.104,0.048-0.156c0.009-0.015,0.018-0.031,0.027-0.046c0.024-0.026,0.049-0.051,0.074-0.075
	c0.039-0.026,0.079-0.05,0.12-0.073c0.066-0.02,0.132-0.035,0.199-0.049c0.07-0.005,0.139-0.007,0.209-0.004
	c0.018,0.004,0.037,0.009,0.055,0.014c0.033,0.019,0.066,0.039,0.098,0.06c0.019,0.018,0.038,0.036,0.057,0.054
	c0.03,0.048,0.057,0.098,0.082,0.149c0.017,0.05,0.032,0.101,0.044,0.153c0.001,0.019,0.001,0.037,0,0.056
	C16.396,4.726,16.351,4.867,16.3,5.01c-0.067,0.143-0.139,0.281-0.216,0.42c-0.006,0.01-0.011,0.02-0.016,0.03
	c-0.034-0.061-0.076-0.118-0.126-0.17c-0.107-0.112-0.212-0.223-0.311-0.341c-0.069-0.103-0.133-0.206-0.192-0.314
	c-0.011-0.034-0.02-0.067-0.028-0.101C15.411,4.521,15.411,4.508,15.411,4.495z M15.41,4.445c0,0.001,0,0.002,0,0.003
	c-0.003,0.008-0.006,0.015-0.009,0.022C15.403,4.462,15.407,4.453,15.41,4.445z M4.848,17.518c-0.323-0.537-0.604-1.095-0.865-1.667
	c-0.014-0.032-0.027-0.065-0.041-0.097c-0.108-0.272-0.201-0.547-0.257-0.833c-0.023-0.266-0.027-0.528-0.003-0.795
	c0.018-0.099,0.042-0.196,0.074-0.293c0.043-0.09,0.091-0.177,0.145-0.262c0.056-0.063,0.114-0.123,0.176-0.179
	c0.047-0.029,0.095-0.056,0.144-0.08c0.117-0.039,0.236-0.068,0.356-0.09c0.056-0.003,0.111-0.004,0.167-0.004
	c0.116,0.025,0.227,0.059,0.339,0.099c0.201,0.102,0.388,0.219,0.573,0.347c0.369,0.307,0.689,0.651,0.997,1.022
	c0.063,0.075,0.154,0.129,0.251,0.17c-0.066,0.166-0.131,0.332-0.195,0.497c-0.15,0.39-0.284,0.786-0.417,1.182
	c-0.125,0.371-0.234,0.743-0.336,1.118c-0.103,0.376-0.155,0.775-0.199,1.165c-0.016-0.02-0.035-0.037-0.05-0.057
	C5.404,18.36,5.107,17.949,4.848,17.518z M19.292,27.884c0.069-0.01,0.14-0.019,0.209-0.029c-0.165,0.021-0.332,0.019-0.5,0.017
	c-0.063,0-0.127-0.002-0.188-0.002c-0.325,0.002-0.651,0.008-0.978,0.011c-0.692,0.008-1.383,0.015-2.077,0.023
	c-0.713,0.006-1.428,0.004-2.142-0.006c-0.643-0.008-1.287-0.021-1.927-0.082c0.002-0.067,0.005-0.133,0.008-0.2
	c0.01-0.239,0.018-0.477,0.026-0.716c0.175,0.02,0.35,0.043,0.525,0.061c0.363,0.037,0.728,0.071,1.093,0.081
	c0.809,0.023,1.622-0.052,2.431-0.067c0.565-0.01,1.132-0.01,1.699-0.01c0.766,0.001,1.533-0.007,2.299-0.035
	c-0.009,0.094-0.003,0.19,0.017,0.288c0.017,0.084,0.032,0.168,0.046,0.252c0.009,0.118,0.012,0.236,0.009,0.353
	C19.659,27.84,19.476,27.859,19.292,27.884z M27.973,12.672c-0.361,0.106-0.719,0.25-1.049,0.43
	c-0.334,0.181-0.642,0.406-0.917,0.669c-0.165,0.159-0.307,0.359-0.432,0.55c-0.094,0.14-0.177,0.286-0.258,0.436
	c-0.367,0.692-0.475,1.489-0.463,2.263c0.011,0.677,0.119,1.339,0.217,2.006c0.062,0.591,0.038,1.175-0.029,1.764
	c-0.098,0.615-0.262,1.212-0.474,1.799c-0.195,0.424-0.436,0.815-0.711,1.192c-0.134,0.163-0.269,0.32-0.417,0.471
	c-0.148,0.155-0.32,0.29-0.488,0.423c-0.239,0.176-0.481,0.334-0.748,0.464c-0.216,0.081-0.429,0.138-0.662,0.171
	c-0.269,0.037-0.538,0.076-0.809,0.097c-0.396,0.031-0.794,0.054-1.191,0.065c-0.551,0.017-1.101,0.017-1.652,0.015
	c-0.248,0-0.496,0-0.744,0c-0.231,0.002-0.461,0.002-0.69,0.002c-0.546-0.002-1.091-0.002-1.637,0.015
	c-0.396,0.013-0.79,0.031-1.184,0.025c-0.375-0.006-0.749-0.042-1.122-0.083c-0.39-0.044-0.78-0.095-1.17-0.144
	c-0.471-0.076-0.94-0.195-1.384-0.367c-0.302-0.149-0.59-0.322-0.863-0.518c-0.246-0.208-0.465-0.434-0.673-0.681
	c-0.3-0.416-0.543-0.861-0.756-1.328c-0.096-0.26-0.179-0.521-0.258-0.787c-0.077-0.266-0.121-0.542-0.163-0.815
	c-0.034-0.301-0.054-0.596-0.056-0.898c-0.002-0.311,0.034-0.625,0.068-0.934c0.087-0.573,0.204-1.134,0.385-1.689
	c0.195-0.599,0.409-1.189,0.641-1.774c0.2-0.461,0.415-0.911,0.655-1.354c0.238-0.444,0.51-0.869,0.802-1.278
	c0.301-0.351,0.618-0.684,0.977-0.976c0.462-0.327,0.942-0.635,1.426-0.927c0.254-0.155,0.388-0.428,0.395-0.709
	c0.066-0.122,0.11-0.253,0.12-0.4c0.002-0.026,0.004-0.053,0.007-0.079c0.052-0.289,0.127-0.569,0.224-0.844
	c0.07-0.146,0.148-0.285,0.238-0.423c0.14-0.168,0.291-0.321,0.458-0.462c0.245-0.165,0.499-0.302,0.768-0.426
	c0.225-0.089,0.452-0.172,0.685-0.239c0.228-0.064,0.458-0.105,0.691-0.142c0.471-0.043,0.939-0.024,1.41,0.023
	c0.184,0.036,0.363,0.077,0.54,0.139c0.192,0.093,0.372,0.201,0.546,0.325c0.145,0.125,0.277,0.258,0.4,0.404
	c0.257,0.37,0.48,0.769,0.665,1.181c0.03,0.082,0.058,0.164,0.083,0.247c-0.138-0.014-0.275-0.03-0.41-0.043
	c-0.379-0.036-0.757-0.046-1.136-0.065c-0.993-0.052-1.985-0.104-2.978-0.131c-0.448-0.013-0.82,0.383-0.82,0.821
	c0,0.455,0.373,0.811,0.82,0.821c0.976,0.021,1.95,0.042,2.924,0.09c0.645,0.031,1.285,0.105,1.929,0.136
	c0.023,0.03,0.035,0.071,0.063,0.093c0.379,0.297,0.776,0.576,1.087,0.945c0.189,0.255,0.365,0.513,0.511,0.796
	c0.154,0.296,0.299,0.595,0.431,0.902c0.021,0.052,0.042,0.104,0.061,0.157c0.086,0.223,0.142,0.475,0.336,0.636
	c0.1,0.1,0.219,0.169,0.355,0.206c0.081,0.013,0.163,0.025,0.244,0.032c0.242,0.027,0.48-0.136,0.646-0.29
	c0.12-0.11,0.219-0.27,0.319-0.411c0.362-0.445,0.768-0.835,1.208-1.205c0.375-0.279,0.768-0.536,1.155-0.799
	c0.419-0.287,0.861-0.524,1.319-0.741c0.18-0.069,0.358-0.126,0.547-0.162c0.05-0.003,0.101-0.006,0.151-0.006
	c0.112,0.337,0.188,0.69,0.242,1.04c0.008,0.06,0.015,0.119,0.021,0.179C28.258,12.599,28.112,12.631,27.973,12.672z M28.415,12.867
	c-0.005,0.013-0.01,0.025-0.016,0.037C28.404,12.892,28.41,12.879,28.415,12.867L28.415,12.867z M23.889,19.587
	c0.025,0.421-0.004,0.832-0.083,1.245c-0.054,0.279-0.144,0.528-0.261,0.786c-0.208,0.448-0.467,0.88-0.79,1.253
	c-0.263,0.305-0.611,0.55-0.957,0.759c-0.129,0.079-0.259,0.152-0.396,0.211c-0.125,0.054-0.248,0.11-0.377,0.15
	c-0.133,0.041-0.273,0.052-0.411,0.067c-0.206,0.021-0.444-0.102-0.584-0.242c-0.156-0.156-0.244-0.367-0.244-0.586
	c0-0.219,0.088-0.43,0.244-0.586c0.152-0.152,0.333-0.216,0.54-0.238c0.044-0.01,0.087-0.023,0.13-0.038
	c0.258-0.125,0.501-0.279,0.733-0.447c0.116-0.102,0.219-0.214,0.317-0.332c0.157-0.227,0.29-0.466,0.406-0.714
	c0.049-0.135,0.085-0.27,0.11-0.412c0.006-0.051,0.012-0.103,0.016-0.154c0.023-0.242,0.008-0.48-0.008-0.722
	c-0.031-0.44,0.388-0.807,0.807-0.807C23.542,18.78,23.866,19.147,23.889,19.587z"/>
</svg>