<?xml version="1.0" encoding="utf-8"?>
<!-- Generator: Adobe Illustrator 21.1.0, SVG Export Plug-In . SVG Version: 6.00 Build 0)  -->
<svg version="1.1" id="designs" xmlns="http://www.w3.org/2000/svg" xmlns:xlink="http://www.w3.org/1999/xlink" x="0px" y="0px"
	 width="32px" height="32px" viewBox="0 0 32 32" style="enable-background:new 0 0 32 32;" xml:space="preserve">
<style type="text/css">
	.sketchy_een{fill:#111918;}
</style>
<path class="sketchy_een" d="M30.922,21.563c0.004-0.104-0.009-0.211-0.014-0.312c-0.008-0.177-0.006-0.357-0.004-0.536
	c0.004-0.286,0.002-0.573,0-0.859c-0.004-0.321-0.028-0.64-0.031-0.962c-0.006-0.388-0.004-0.777-0.014-1.165
	c-0.006-0.327,0.014-0.654,0.012-0.981c-0.002-0.327-0.022-0.654-0.036-0.981c-0.03-0.771-0.024-1.541-0.031-2.312
	c-0.012-1.078-0.061-2.154-0.069-3.234c-0.004-0.534-0.02-1.07-0.004-1.606c0.014-0.554,0.051-1.11,0.075-1.666
	c0.005-0.117-0.024-0.226-0.072-0.327c-0.04-0.129-0.099-0.251-0.196-0.348c-0.142-0.14-0.386-0.27-0.595-0.245
	c-0.288,0.034-0.583,0.024-0.875,0.036c-0.252,0.01-0.505,0.008-0.755,0.006c-0.142-0.002-0.284-0.004-0.424-0.004
	c-0.812,0.004-1.62,0.004-2.432-0.026c-0.802-0.03-1.602-0.075-2.404-0.091c-0.82-0.018-1.642-0.034-2.461-0.045
	c-0.664-0.01-1.328-0.035-1.991-0.053c-0.706-0.016-1.409-0.014-2.113-0.053c-0.67-0.039-1.338-0.083-2.008-0.089
	c-0.062,0-0.124-0.001-0.185-0.001c-0.709,0-1.416,0.031-2.123,0.082c-0.193,0.013-0.361,0.076-0.511,0.189
	c-0.343,0.089-0.612,0.391-0.607,0.759c0.02,1.537,0.055,3.074,0.028,4.612c-0.005,0.219-0.016,0.438-0.024,0.656
	c-0.112-0.071-0.236-0.123-0.375-0.123c-0.007,0-0.013,0-0.02,0c-0.607,0.016-1.208,0.061-1.813,0.126
	c-0.365,0.04-0.729,0.065-1.094,0.103c-0.217,0.024-0.434,0.051-0.648,0.083c-0.181,0.027-0.331,0.084-0.501,0.164
	c-0.272,0.124-0.424,0.42-0.508,0.688c-0.033,0.104-0.059,0.213-0.093,0.317c-0.071,0.215-0.116,0.438-0.171,0.656
	c-0.119,0.475-0.142,0.985-0.308,1.445c-0.031,0.063-0.064,0.125-0.1,0.186c-0.048,0.011-0.096,0.021-0.144,0.032
	c-0.15,0.037-0.296,0.081-0.443,0.12c-0.339,0.091-0.682,0.173-1.023,0.264c-0.374,0.098-0.751,0.171-1.127,0.26
	c-0.191,0.043-0.376,0.099-0.558,0.172c-0.345,0.134-0.664,0.27-0.863,0.603c-0.079,0.134-0.11,0.278-0.148,0.424
	c-0.047,0.183-0.081,0.363-0.101,0.552c-0.028,0.276-0.018,0.56-0.006,0.835c0.032,0.676,0.079,1.352,0.114,2.028
	c0.012,0.219,0.03,0.438,0.053,0.654c0.026,0.239,0.079,0.438,0.254,0.613c0.162,0.162,0.384,0.254,0.613,0.254
	c0.116,0,0.23-0.025,0.336-0.069c0.259,0.015,0.52,0.01,0.779,0.021c-0.048,0.128-0.088,0.26-0.119,0.393
	c-0.112,0.495-0.15,1.015-0.051,1.514c0.13,0.646,0.554,1.149,1.092,1.506c0.363,0.24,0.778,0.351,1.206,0.398
	c0.266,0.028,0.526-0.008,0.786-0.063c0.491-0.104,0.924-0.42,1.214-0.82c0.3-0.412,0.404-0.883,0.445-1.379
	c0.034-0.406-0.053-0.877-0.296-1.21c-0.08-0.109-0.178-0.205-0.27-0.306c0.073,0,0.146-0.002,0.219-0.002
	c0.388,0,0.774-0.008,1.163,0c0.398,0.01,0.796,0.022,1.194,0.024c0.626,0.003,1.253,0.024,1.879,0.039
	c-0.006,0.009-0.013,0.015-0.019,0.024c-0.183,0.268-0.266,0.583-0.302,0.901c-0.028,0.264-0.049,0.514,0.006,0.778
	c0.071,0.339,0.254,0.658,0.445,0.946c0.108,0.164,0.227,0.325,0.378,0.449c0.242,0.195,0.516,0.313,0.816,0.39
	c0.254,0.065,0.528,0.101,0.788,0.126c0.262,0.027,0.538,0.03,0.794-0.032c0.436-0.104,0.794-0.331,1.121-0.629
	c0.132-0.122,0.248-0.264,0.365-0.402c0.085-0.098,0.166-0.203,0.24-0.307c0.077-0.104,0.116-0.219,0.166-0.339
	c0.081-0.195,0.108-0.414,0.097-0.623c-0.01-0.187-0.039-0.38-0.11-0.554c-0.097-0.233-0.193-0.388-0.351-0.582
	c-0.034-0.04-0.069-0.08-0.104-0.12c0.321-0.001,0.642,0.007,0.963,0.004c0.763-0.008,1.523-0.041,2.288-0.045
	c0.794-0.006,1.586,0.012,2.381,0.026c0.743,0.014,1.486,0.053,2.229,0.073c0.125,0.003,0.25,0.006,0.375,0.009
	c-0.052,0.096-0.105,0.192-0.144,0.299c-0.061,0.167-0.077,0.349-0.1,0.522c-0.018,0.144-0.032,0.284-0.022,0.428
	c0.03,0.447,0.148,0.82,0.327,1.226c0.203,0.449,0.621,0.767,1.06,0.96c0.365,0.162,0.755,0.266,1.157,0.256
	c0.591-0.014,1.181-0.217,1.616-0.625c0.122-0.114,0.233-0.256,0.303-0.408c0.114-0.243,0.146-0.463,0.181-0.725
	c0.043-0.329-0.002-0.662-0.089-0.979c-0.059-0.217-0.154-0.428-0.258-0.627c-0.056-0.105-0.143-0.182-0.218-0.271
	c0.038,0,0.075,0.001,0.113,0c0.345-0.002,0.69,0.008,1.035,0.02c0.168,0.006,0.333,0.014,0.501,0.02
	c0.053,0.002,0.108,0.002,0.162,0.002c0.073,0,0.145,0,0.218,0.003c0.415,0.052,0.821-0.171,0.939-0.596
	C31.023,21.926,30.993,21.735,30.922,21.563z M6.02,23.952C6,24.055,5.976,24.155,5.943,24.255c-0.022,0.042-0.046,0.082-0.07,0.123
	c-0.029,0.029-0.058,0.057-0.089,0.084c-0.004,0.002-0.008,0.005-0.012,0.007c-0.07,0.022-0.141,0.04-0.213,0.055
	c-0.067,0.003-0.134,0.002-0.201-0.002c-0.067-0.014-0.131-0.031-0.195-0.053c-0.082-0.043-0.162-0.09-0.239-0.141
	c-0.053-0.047-0.104-0.095-0.152-0.146c-0.03-0.049-0.058-0.099-0.085-0.15c-0.023-0.067-0.041-0.134-0.057-0.203
	c-0.01-0.189,0.003-0.378,0.021-0.567c0.019-0.113,0.044-0.222,0.078-0.333l0-0.001c0.009-0.009,0.018-0.018,0.026-0.026
	c0.056-0.032,0.114-0.061,0.173-0.088c0.017-0.007,0.033-0.013,0.05-0.019c0.101,0.208,0.282,0.375,0.517,0.426
	c0.02,0.004,0.039,0.008,0.059,0.012c0.056,0.03,0.111,0.063,0.164,0.099c0.093,0.084,0.178,0.174,0.259,0.27
	c0.013,0.018,0.025,0.036,0.036,0.055c0.004,0.015,0.008,0.03,0.011,0.045C6.029,23.785,6.026,23.868,6.02,23.952z M7.26,21.011
	c-0.775,0-1.549-0.01-2.326-0.028c-0.694-0.017-1.387-0.065-2.079-0.114c-0.042-0.431-0.092-0.862-0.107-1.295
	c-0.01-0.268-0.02-0.536-0.03-0.804c-0.008-0.215-0.023-0.432-0.009-0.646c0.007-0.038,0.015-0.075,0.024-0.113
	c0.001,0,0.002-0.001,0.003-0.001c0.342-0.131,0.707-0.2,1.061-0.293c0.345-0.089,0.688-0.181,1.033-0.276
	c0.29-0.079,0.587-0.134,0.881-0.207c0.169-0.041,0.311-0.081,0.475-0.154c0.268-0.122,0.457-0.363,0.587-0.621
	c0.144-0.288,0.266-0.585,0.343-0.899c0.063-0.266,0.124-0.532,0.195-0.796c0.065-0.239,0.144-0.473,0.207-0.711
	c0.032-0.115,0.063-0.233,0.096-0.35c0.081-0.014,0.164-0.026,0.245-0.039c0.18-0.027,0.361-0.054,0.542-0.08
	c0.174-0.02,0.346-0.031,0.52-0.034c0.211-0.004,0.422-0.035,0.631-0.057c0.37-0.039,0.741-0.022,1.112-0.069
	c0.129-0.016,0.24-0.047,0.346-0.096c-0.004,0.104-0.009,0.209-0.012,0.314c-0.02,0.735-0.01,1.47-0.026,2.203
	c-0.024,1.029-0.034,2.058-0.049,3.086c-0.008,0.475-0.004,0.952-0.008,1.427c-0.001,0.229-0.001,0.461-0.006,0.692
	C9.693,21.033,8.477,21.008,7.26,21.011z M14.301,24.215c-0.039,0.023-0.078,0.045-0.118,0.065c-0.01,0.003-0.02,0.006-0.031,0.009
	c-0.144,0.006-0.286,0-0.43-0.014c-0.148-0.023-0.294-0.052-0.437-0.096c-0.012-0.013-0.024-0.026-0.036-0.04
	c-0.083-0.117-0.157-0.237-0.222-0.365c-0.006-0.1-0.005-0.2,0-0.3c0.001-0.002,0.002-0.005,0.002-0.008
	c0.006-0.01,0.012-0.02,0.018-0.03c0.244-0.143,0.497-0.271,0.747-0.404c0.021,0.027,0.044,0.053,0.069,0.078
	c0.142,0.142,0.296,0.201,0.474,0.234c0.115,0.115,0.22,0.246,0.319,0.373c0.018,0.025,0.035,0.051,0.052,0.077
	C14.582,23.945,14.447,24.085,14.301,24.215z M26.818,24.29c-0.006,0.031-0.012,0.061-0.019,0.092
	c-0.017,0.01-0.034,0.019-0.052,0.028c-0.076,0.025-0.152,0.047-0.23,0.065c-0.071,0.003-0.142,0.003-0.213-0.002
	c-0.088-0.019-0.174-0.042-0.26-0.072c-0.065-0.032-0.128-0.066-0.19-0.103c-0.013-0.013-0.027-0.026-0.039-0.04
	c-0.051-0.08-0.096-0.163-0.138-0.249c-0.036-0.1-0.066-0.201-0.089-0.306c-0.004-0.084-0.002-0.167,0.004-0.251
	c0.007-0.031,0.014-0.062,0.023-0.093c0.002-0.003,0.004-0.006,0.005-0.009c0.037-0.039,0.076-0.074,0.117-0.109
	c0.028-0.019,0.056-0.037,0.084-0.055c0.078,0.056,0.165,0.1,0.261,0.129c0.028,0.009,0.055,0.018,0.083,0.028
	c0.142,0.074,0.275,0.16,0.407,0.251c0.036,0.032,0.072,0.064,0.107,0.098c0.022,0.035,0.043,0.071,0.062,0.108
	c0.034,0.102,0.062,0.204,0.083,0.309C26.825,24.17,26.822,24.229,26.818,24.29z M28.121,21.011
	c-0.731-0.006-1.464,0.006-2.195,0.01c-1.549,0.01-3.096-0.063-4.645-0.063c-1.555,0-3.108,0.124-4.661,0.134
	c-1.376,0.01-2.754-0.007-4.13-0.026c0.001-0.471-0.01-0.943-0.008-1.414c0.002-0.765-0.01-1.527,0.016-2.29
	c0.049-1.488,0.039-2.978,0.079-4.466c0.014-0.514,0.045-1.031,0.055-1.547c0.01-0.491,0.01-0.982,0.01-1.472
	c0-0.469-0.008-0.94-0.004-1.409c0.002-0.339,0.005-0.677,0.008-1.015c0.74-0.062,1.483-0.12,2.224-0.12
	c0.794,0,1.586,0.063,2.381,0.073c0.828,0.012,1.655,0.006,2.483,0.037c0.824,0.032,1.648,0.03,2.471,0.061
	c1.366,0.051,2.733,0.093,4.099,0.142c0.672,0.026,1.344,0.042,2.018,0.042c0.297,0,0.594,0.008,0.891,0.014
	c-0.001,0.541,0.003,1.082,0.002,1.623c-0.002,0.782-0.016,1.563,0.004,2.345c0.02,0.804,0.03,1.61,0.028,2.414
	c-0.004,0.749,0.028,1.496,0.024,2.245c-0.006,0.938,0.02,1.874,0.016,2.812c0,0.396,0.008,0.792,0.01,1.188
	c0.002,0.232,0.006,0.464,0.008,0.696c-0.04,0-0.08,0.001-0.119,0.001C28.83,21.023,28.475,21.013,28.121,21.011z"/>
</svg>