<?xml version="1.0" encoding="utf-8"?>
<!-- Generator: Adobe Illustrator 21.1.0, SVG Export Plug-In . SVG Version: 6.00 Build 0)  -->
<svg version="1.1" id="designs" xmlns="http://www.w3.org/2000/svg" xmlns:xlink="http://www.w3.org/1999/xlink" x="0px" y="0px"
	 width="32px" height="32px" viewBox="0 0 32 32" style="enable-background:new 0 0 32 32;" xml:space="preserve">
<style type="text/css">
	.sketchy_een{fill:#111918;}
</style>
<path class="sketchy_een" d="M13.717,17.845c0.208,0,0.412,0.074,0.55,0.238c0.32,0.377,0.611,0.795,0.994,1.112
	c0.002,0.002,0.004,0.004,0.006,0.005c0.012,0.01,0.025,0.02,0.037,0.03c-0.009-0.008-0.019-0.015-0.029-0.023
	c0.182,0.157,0.299,0.354,0.299,0.613c0,0.212-0.083,0.415-0.232,0.564c-0.313,0.313-0.814,0.301-1.128,0
	c-0.157-0.149-0.287-0.324-0.44-0.476c-0.222-0.224-0.45-0.442-0.662-0.674c-0.297-0.33-0.324-0.826,0-1.152
	C13.268,17.931,13.495,17.845,13.717,17.845z M30.47,4.748c-0.018,0.427-0.085,0.839-0.244,1.235
	c-0.161,0.397-0.377,0.753-0.629,1.099c-0.256,0.352-0.537,0.674-0.837,0.989c-0.041,0.044-0.082,0.088-0.122,0.132
	c0.008,0.01,0.017,0.02,0.025,0.029c0.134,0.159,0.273,0.326,0.383,0.505c0.145,0.234,0.242,0.487,0.297,0.757
	c0.053,0.271,0.092,0.55,0.065,0.824c-0.041,0.389-0.155,0.763-0.391,1.077c-0.222,0.295-0.456,0.562-0.743,0.794
	c-0.281,0.224-0.568,0.458-0.889,0.623c-0.326,0.165-0.661,0.312-1.003,0.438c-0.328,0.122-0.706,0.163-1.052,0.185
	c-0.255,0.018-0.498-0.024-0.743-0.071c-0.179,0.259-0.352,0.532-0.574,0.749c-0.362,0.356-0.749,0.704-1.264,0.81
	c-0.727,0.146-1.531,0.087-2.145-0.368c-0.191-0.143-0.395-0.283-0.562-0.454c-0.069-0.07-0.119-0.156-0.18-0.234
	c-0.271,0.188-0.541,0.377-0.81,0.568c0.41,0.401,0.812,0.811,1.23,1.206c0.287,0.271,0.558,0.558,0.841,0.832
	c0.252,0.246,0.533,0.474,0.755,0.749c0.098,0.098,0.165,0.214,0.201,0.346c0.015,0.056-0.003,0.112,0,0.167
	c0.087,0.347-0.059,0.708-0.369,0.911c-0.314,0.207-0.626,0.417-0.929,0.642c-0.222,0.176-0.439,0.357-0.661,0.532
	c-0.297,0.235-0.601,0.458-0.904,0.687c-0.613,0.475-1.227,0.95-1.856,1.404c-0.653,0.47-1.28,0.973-1.928,1.451
	c-0.631,0.464-1.274,0.914-1.94,1.325c-0.672,0.415-1.354,0.814-2.027,1.229c-1.347,0.832-2.709,1.641-4.089,2.418
	c-0.698,0.395-1.398,0.79-2.092,1.191c-0.659,0.381-1.329,0.737-1.989,1.113c-0.127,0.072-0.266,0.091-0.403,0.087
	c-0.237,0.277-0.662,0.356-0.978,0.173c-0.36-0.212-0.507-0.71-0.281-1.073c0.028-0.046,0.052-0.095,0.075-0.145
	c0.113-0.274,0.223-0.549,0.34-0.82c0.122-0.279,0.256-0.552,0.381-0.828c0.258-0.574,0.525-1.144,0.794-1.714
	c0.332-0.698,0.655-1.402,1.024-2.082c0.383-0.702,0.763-1.402,1.136-2.109c0.364-0.69,0.745-1.37,1.13-2.05
	c0.372-0.657,0.743-1.317,1.134-1.962c0.411-0.674,0.816-1.351,1.211-2.035c0.372-0.647,0.798-1.258,1.215-1.877
	c0.434-0.643,0.824-1.311,1.246-1.962c0.448-0.688,0.916-1.364,1.37-2.05c0.114-0.172,0.286-0.27,0.471-0.323
	c0.054-0.024,0.111-0.033,0.169-0.045c0.01,0,0.018-0.007,0.028-0.007c0.002,0,0.004,0.001,0.007,0.001
	c0.048-0.008,0.094-0.027,0.142-0.027c0.208,0,0.415,0.077,0.563,0.237c0.289,0.309,0.596,0.603,0.918,0.879
	c0.291,0.25,0.596,0.488,0.896,0.733c0.142,0.116,0.279,0.238,0.418,0.358c0.2-0.306,0.402-0.61,0.608-0.912
	c-0.256-0.193-0.497-0.403-0.672-0.678c-0.206-0.322-0.334-0.686-0.397-1.062c-0.057-0.338-0.114-0.708-0.079-1.052
	c0.02-0.218,0.059-0.432,0.13-0.639c0.061-0.171,0.12-0.352,0.208-0.511c0.136-0.24,0.303-0.472,0.497-0.674
	c0.265-0.275,0.572-0.48,0.936-0.601c0.109-0.037,0.221-0.065,0.334-0.086c-0.02-0.177-0.036-0.354-0.045-0.532
	C17.806,5,17.816,4.732,17.865,4.485c0.047-0.236,0.132-0.456,0.22-0.678c0.1-0.25,0.21-0.499,0.368-0.717
	c0.155-0.216,0.33-0.405,0.519-0.586c0.277-0.265,0.594-0.519,0.946-0.676c0.368-0.163,0.733-0.307,1.134-0.368
	c0.216-0.035,0.438-0.073,0.657-0.049c0.305,0.035,0.625,0.065,0.889,0.242c0.328,0.22,0.657,0.468,0.926,0.757
	c0.048,0.052,0.095,0.105,0.141,0.159c0.068-0.076,0.135-0.152,0.207-0.224c0.14-0.143,0.293-0.26,0.452-0.383
	c0.236-0.177,0.493-0.332,0.751-0.476c0.324-0.181,0.682-0.319,1.044-0.395c0.271-0.056,0.546-0.09,0.821-0.09
	c0.256,0,0.511,0.03,0.763,0.101c0.548,0.157,1.044,0.405,1.468,0.792c0.142,0.132,0.283,0.269,0.421,0.405
	c0.086,0.083,0.169,0.167,0.254,0.252c0.189,0.193,0.305,0.434,0.409,0.68C30.458,3.716,30.488,4.233,30.47,4.748z M19.396,16.916
	c-0.499-0.462-0.987-0.934-1.466-1.419c-0.497-0.501-1.026-0.969-1.559-1.431c-0.482-0.421-0.964-0.844-1.464-1.244
	c-0.481-0.366-0.962-0.738-1.421-1.133c-0.394,0.549-0.793,1.096-1.159,1.664c-0.201,0.311-0.391,0.631-0.594,0.942
	c-0.216,0.332-0.442,0.657-0.668,0.983c-0.425,0.611-0.812,1.237-1.185,1.883c-0.395,0.686-0.828,1.349-1.229,2.033
	c-0.381,0.645-0.749,1.303-1.109,1.96c-0.379,0.688-0.749,1.38-1.107,2.078c-0.36,0.698-0.749,1.384-1.097,2.088
	c-0.537,1.081-1.034,2.18-1.516,3.286c0.301-0.175,0.599-0.353,0.901-0.527c0.729-0.423,1.463-0.839,2.196-1.256
	c0.719-0.407,1.433-0.82,2.153-1.225c0.686-0.389,1.349-0.814,2.017-1.229c0.67-0.418,1.346-0.828,2.006-1.262
	c-0.256-0.24-0.523-0.468-0.788-0.7c-0.356-0.311-0.69-0.641-0.997-1.001c-0.145-0.169-0.238-0.346-0.238-0.576
	c0-0.216,0.086-0.423,0.238-0.576s0.362-0.24,0.576-0.24c0.197,0,0.448,0.082,0.578,0.24c0.569,0.701,1.19,1.378,1.872,1.971
	c0.226-0.165,0.462-0.317,0.684-0.487c0.704-0.551,1.403-1.108,2.122-1.641c0.147-0.109,0.291-0.22,0.437-0.329
	c-0.091-0.076-0.185-0.149-0.271-0.23c-0.291-0.269-0.543-0.578-0.822-0.857c-0.346-0.344-0.676-0.704-1.018-1.05
	c-0.372-0.379-0.773-0.733-1.164-1.093c-0.33-0.303-0.307-0.855,0-1.162c0.159-0.159,0.367-0.237,0.575-0.237
	c0.212,0,0.425,0.08,0.587,0.237c0.727,0.698,1.352,1.492,2.084,2.184c0.287,0.271,0.541,0.576,0.831,0.843
	c0.151,0.14,0.309,0.275,0.464,0.413c0.042-0.032,0.084-0.063,0.126-0.095c0.27-0.217,0.529-0.448,0.798-0.665
	c0.143-0.117,0.295-0.22,0.441-0.332c-0.029-0.029-0.054-0.061-0.083-0.089C19.887,17.395,19.646,17.148,19.396,16.916z
	 M28.852,4.173c-0.027-0.134-0.065-0.264-0.112-0.393c-0.022-0.043-0.046-0.085-0.071-0.125c-0.231-0.231-0.47-0.46-0.719-0.674
	c-0.124-0.08-0.253-0.149-0.386-0.214c-0.131-0.046-0.264-0.083-0.401-0.111c-0.166-0.014-0.331-0.016-0.497-0.003
	c-0.208,0.038-0.409,0.089-0.609,0.161c-0.323,0.15-0.63,0.338-0.921,0.542c-0.299,0.26-0.537,0.579-0.835,0.839
	c-0.208,0.181-0.444,0.32-0.731,0.307c-0.281-0.012-0.535-0.136-0.71-0.356c-0.094-0.118-0.171-0.226-0.242-0.356
	c-0.029-0.053-0.06-0.104-0.094-0.154c-0.108-0.129-0.223-0.247-0.351-0.354c-0.12-0.09-0.243-0.18-0.374-0.254
	c-0.006-0.002-0.012-0.003-0.018-0.005c-0.112-0.009-0.224-0.01-0.336-0.002c-0.216,0.042-0.431,0.109-0.638,0.187
	c-0.184,0.089-0.355,0.193-0.521,0.311c-0.165,0.145-0.323,0.299-0.466,0.466c-0.086,0.128-0.159,0.26-0.227,0.399
	c-0.058,0.151-0.11,0.302-0.146,0.46c-0.022,0.319-0.001,0.64,0.033,0.958c0.012,0.076,0.026,0.152,0.037,0.228
	c0.035,0.232,0.045,0.393,0.006,0.627c-0.051,0.323-0.32,0.554-0.611,0.659c-0.136,0.048-0.263,0.043-0.394,0.027
	c-0.112-0.012-0.225-0.016-0.338-0.01c-0.057,0.013-0.112,0.029-0.168,0.047c-0.05,0.025-0.098,0.051-0.145,0.08
	c-0.079,0.075-0.151,0.156-0.22,0.24c-0.061,0.09-0.116,0.18-0.166,0.277c-0.053,0.145-0.099,0.291-0.131,0.442
	c-0.009,0.161,0.003,0.319,0.02,0.479c0.028,0.155,0.063,0.305,0.113,0.454c0.031,0.059,0.066,0.116,0.103,0.172
	c0.053,0.06,0.108,0.116,0.168,0.17c0.034,0.024,0.07,0.045,0.105,0.069c0.22-0.297,0.43-0.601,0.662-0.891
	c0.126-0.159,0.381-0.238,0.576-0.238c0.214,0,0.423,0.085,0.574,0.238c0.153,0.151,0.238,0.36,0.238,0.574
	c0,0.234-0.096,0.403-0.238,0.576c-0.348,0.423-0.695,0.845-1.035,1.275c-0.419,0.55-0.8,1.129-1.161,1.718
	c0.136,0.117,0.27,0.235,0.405,0.353c0.016-0.012,0.026-0.03,0.044-0.041c0.512-0.343,1.021-0.686,1.514-1.056
	c0.557-0.439,1.108-0.884,1.684-1.299c0.109-0.079,0.258-0.113,0.402-0.113c0.081,0,0.16,0.01,0.231,0.03
	c0.206,0.057,0.385,0.193,0.493,0.379c0.112,0.189,0.142,0.421,0.083,0.633c-0.061,0.22-0.197,0.366-0.379,0.493
	c-0.271,0.189-0.538,0.382-0.807,0.571c0.055,0.057,0.11,0.114,0.172,0.165l0.001,0c0.109,0.078,0.219,0.151,0.338,0.214
	c0.092,0.031,0.184,0.056,0.279,0.078c0.114,0.006,0.227,0.002,0.343-0.007c0.071-0.013,0.141-0.029,0.21-0.049
	c0.069-0.038,0.135-0.08,0.2-0.126c0.114-0.095,0.223-0.197,0.322-0.308c0.056-0.078,0.11-0.157,0.165-0.237
	c0.055-0.079,0.11-0.161,0.165-0.24c0.096-0.136,0.187-0.301,0.322-0.405c0.075-0.061,0.149-0.128,0.236-0.173
	c0.173-0.088,0.236-0.096,0.429-0.116c0.126-0.014,0.256,0.012,0.381,0.037c0.116,0.02,0.23,0.045,0.345,0.068
	c0.152,0.011,0.304,0.005,0.455-0.01c0.235-0.043,0.458-0.101,0.682-0.187c0.158-0.068,0.316-0.139,0.465-0.223
	c0.181-0.1,0.349-0.213,0.513-0.335c0.212-0.175,0.411-0.36,0.588-0.57c0.038-0.057,0.074-0.115,0.107-0.174
	c0.02-0.062,0.037-0.123,0.051-0.186c0.001-0.092-0.002-0.182-0.01-0.273c-0.021-0.106-0.046-0.209-0.078-0.312
	c-0.044-0.08-0.091-0.157-0.144-0.234c-0.092-0.112-0.191-0.221-0.297-0.319c-0.078-0.027-0.155-0.054-0.23-0.092
	c-0.258-0.136-0.423-0.421-0.417-0.712c0.008-0.372,0.242-0.584,0.493-0.808c0.327-0.292,0.62-0.619,0.898-0.956
	c0.227-0.316,0.429-0.638,0.592-0.99c0.053-0.148,0.095-0.295,0.127-0.448C28.868,4.749,28.875,4.459,28.852,4.173z"/>
</svg>