<?xml version="1.0" encoding="utf-8"?>
<!-- Generator: Adobe Illustrator 21.1.0, SVG Export Plug-In . SVG Version: 6.00 Build 0)  -->
<svg version="1.1" id="designs" xmlns="http://www.w3.org/2000/svg" xmlns:xlink="http://www.w3.org/1999/xlink" x="0px" y="0px"
	 width="32px" height="32px" viewBox="0 0 32 32" style="enable-background:new 0 0 32 32;" xml:space="preserve">
<style type="text/css">
	.sketchy_een{fill:#111918;}
</style>
<path class="sketchy_een" d="M27.882,21.22c0.002-1.721-0.056-3.443-0.112-5.164c-0.046-1.44-0.037-2.88-0.064-4.321
	c-0.031-1.51-0.056-3.019-0.081-4.529c-0.003-0.192-0.081-0.364-0.194-0.506c0.006-0.625-0.114-1.245-0.222-1.858
	c-0.065-0.364-0.189-0.728-0.375-1.048c-0.237-0.404-0.653-0.732-1.046-0.976c-0.73-0.453-1.573-0.597-2.414-0.655
	c-0.747-0.052-1.492-0.104-2.241-0.135C20.62,2.007,20.107,2,19.593,2c-0.301,0-0.602,0.002-0.904,0.006
	c-0.83,0.008-1.66,0.002-2.488,0.029c-0.412,0.013-0.822,0.042-1.232,0.058c-0.414,0.015-0.828,0.017-1.24,0.017
	c-0.241,0.002-0.483,0-0.724,0c-0.591-0.004-1.184-0.008-1.773,0.016c-0.705,0.027-1.407,0.073-2.112,0.11
	C8.461,2.268,7.804,2.276,7.152,2.391C6.784,2.457,6.443,2.58,6.102,2.732c-0.347,0.156-0.649,0.35-0.928,0.614
	C4.903,3.602,4.72,3.918,4.574,4.257C4.479,4.476,4.391,4.692,4.335,4.925C4.283,5.145,4.265,5.377,4.25,5.601
	c-0.007,0.094,0.019,0.18,0.046,0.266c0,0.008-0.005,0.015-0.005,0.024c0.01,0.882,0.035,1.766,0.035,2.647
	c-0.002,0.89-0.012,1.777-0.025,2.667c-0.023,1.7-0.017,3.402-0.021,5.102c-0.002,0.822-0.01,1.646-0.013,2.469
	c-0.002,0.822-0.002,1.646-0.033,2.468c-0.029,0.845-0.06,1.693-0.073,2.538c-0.013,0.82-0.021,1.64-0.04,2.461
	c0,0.031,0,0.063-0.002,0.096c-0.003,0.14,0.037,0.268,0.097,0.387c0.002,0.011,0,0.022,0.002,0.034
	c0.083,0.422,0.171,0.843,0.254,1.267c0.044,0.227,0.098,0.431,0.2,0.643c0.037,0.073,0.075,0.141,0.121,0.208
	c0.162,0.235,0.349,0.391,0.574,0.562c0.185,0.143,0.425,0.221,0.643,0.292c0.092,0.031,0.187,0.052,0.281,0.075
	c0.273,0.069,0.56,0.093,0.839,0.123c0.433,0.048,0.876,0.056,1.311,0.063c0.843,0.015,1.691-0.004,2.534-0.025
	c0.41-0.01,0.82-0.042,1.23-0.06c0.445-0.019,0.89-0.027,1.334-0.044c0.841-0.035,1.681-0.087,2.52-0.121
	c0.893-0.037,1.785-0.048,2.676-0.1c1.696-0.1,3.389-0.252,5.089-0.302c0.375-0.012,0.751-0.014,1.126-0.037
	c0.441-0.025,0.907-0.081,1.321-0.247c0.281-0.114,0.495-0.225,0.732-0.412c0.173-0.137,0.3-0.294,0.431-0.472
	c0.289-0.396,0.456-0.909,0.393-1.4c-0.011-0.084-0.031-0.157-0.051-0.231c0.033-0.092,0.062-0.188,0.068-0.29
	c0.021-0.381,0.004-0.765,0.01-1.146c0.006-0.439,0.01-0.878,0.015-1.317C27.882,22.935,27.882,22.077,27.882,21.22z M25.824,14.647
	c-0.02,0.004-0.041,0.009-0.062,0.014c-0.7,0.078-1.415,0.077-2.117,0.079c-0.791,0.002-1.581,0.01-2.372,0.013
	c-1.617,0.006-3.233,0.041-4.85,0.091c-1.656,0.054-3.31,0.044-4.966,0.056c-1.685,0.012-3.37,0.01-5.054-0.058
	c-0.139-0.006-0.277-0.011-0.416-0.017c-0.007,0-0.013,0.004-0.019,0.004c-0.002-1.052-0.003-2.105-0.014-3.157
	c1.566,0.067,3.138,0.078,4.706,0.07c0.855-0.006,1.71-0.006,2.563-0.035c0.826-0.027,1.654-0.056,2.48-0.075
	c0.865-0.019,1.731-0.021,2.595-0.027c0.861-0.004,1.719-0.035,2.578-0.042c0.866-0.008,1.735,0.011,2.599-0.038
	c0.812-0.05,1.621-0.116,2.436-0.131c0.031-0.001,0.062-0.001,0.093-0.002c-0.004,0.423-0.005,0.847-0.007,1.27
	c-0.003,0.655-0.008,1.312-0.009,1.968C25.932,14.632,25.878,14.635,25.824,14.647z M8.454,9.817
	C8.388,9.274,8.397,8.722,8.373,8.176C8.35,7.667,8.302,7.161,8.253,6.654c0.921-0.088,1.841-0.177,2.765-0.209
	c0.963-0.033,1.924-0.011,2.886,0.005c0.013,0.536,0.028,1.072,0.034,1.608c0.004,0.61,0.027,1.219,0.035,1.829
	c0.001,0.058,0.022,0.11,0.035,0.165c-0.097,0.003-0.194,0.006-0.291,0.009c-0.853,0.019-1.704,0.027-2.557,0.033
	c-0.834,0.008-1.667,0.002-2.501-0.006c-0.057,0-0.113-0.001-0.17-0.002C8.477,9.996,8.466,9.907,8.454,9.817z M23.153,6.58
	c0.032,1.073,0.088,2.148,0.097,3.221c0,0.026,0.013,0.048,0.015,0.073c-0.651,0.031-1.303,0.042-1.956,0.05
	c-0.849,0.01-1.698,0.037-2.547,0.048c-0.248,0.005-0.496,0.004-0.744,0.005c0.009-0.05,0.03-0.096,0.028-0.149
	c-0.025-0.634-0.027-1.267-0.037-1.902c-0.007-0.465,0.004-0.93,0.012-1.395c0.97-0.007,1.939-0.04,2.91-0.034
	c0.464,0.004,0.928,0.017,1.392,0.036C22.599,6.544,22.877,6.56,23.153,6.58z M6.026,5.432C6.054,5.288,6.094,5.15,6.144,5.014
	c0.062-0.134,0.13-0.264,0.212-0.387C6.426,4.547,6.5,4.471,6.579,4.4c0.155-0.1,0.316-0.188,0.482-0.266
	c0.262-0.096,0.53-0.159,0.805-0.202c0.331-0.033,0.66-0.046,0.991-0.06c0.389-0.015,0.778-0.046,1.165-0.071
	c0.843-0.052,1.685-0.075,2.528-0.077c0.248,0,0.497,0,0.745,0c0.58,0.002,1.159,0.002,1.739-0.018
	c0.839-0.029,1.679-0.044,2.518-0.05c1.124-0.008,2.255-0.013,3.379,0.044c0.526,0.027,1.053,0.048,1.579,0.083
	c0.448,0.03,0.898,0.039,1.343,0.087c0.276,0.044,0.545,0.108,0.808,0.204c0.15,0.072,0.292,0.156,0.429,0.251
	c0.098,0.081,0.191,0.167,0.276,0.261c0.023,0.036,0.045,0.073,0.065,0.112c0.041,0.118,0.072,0.238,0.094,0.36
	c0.016,0.136,0.033,0.272,0.05,0.408c-0.002-0.014-0.004-0.029-0.006-0.043c0.026,0.203,0.052,0.406,0.079,0.608
	c0.014,0.109,0.028,0.217,0.042,0.326c0.019,0.16,0.036,0.32,0.041,0.481c0.005,0.219,0.094,0.418,0.232,0.57
	c0.016,0.769,0.03,1.538,0.041,2.307c-0.399,0.021-0.799,0.044-1.198,0.067c-0.021-0.539-0.055-1.078-0.069-1.619
	c-0.015-0.593-0.002-1.186-0.012-1.779c-0.004-0.225-0.104-0.428-0.257-0.573c-0.011-0.188-0.083-0.368-0.216-0.502
	c-0.156-0.154-0.337-0.208-0.549-0.225c-0.458-0.039-0.92-0.025-1.38-0.023c-0.464,0.002-0.928,0.004-1.392-0.006
	c-1.019-0.021-2.039-0.05-3.06-0.054c-0.001,0-0.002,0-0.003,0c-0.156,0-0.294,0.061-0.415,0.145
	c-0.071-0.021-0.141-0.045-0.218-0.045c-0.429,0-0.793,0.358-0.789,0.789c0.004,0.666,0.025,1.331,0.017,1.995
	c-0.008,0.649,0,1.294,0.01,1.941c0.001,0.056,0.022,0.105,0.034,0.158c-0.113,0.001-0.226,0-0.339,0.002
	c-0.212,0.004-0.424,0.013-0.636,0.019c0.006-0.041,0.024-0.077,0.023-0.119c-0.031-1.277-0.015-2.551-0.031-3.828
	c-0.005-0.358-0.246-0.658-0.573-0.765c-0.131-0.265-0.393-0.463-0.7-0.463c-0.007,0-0.015,0-0.022,0
	c-2.237,0.064-4.477,0.114-6.71,0.297C7.303,5.147,7.117,5.203,6.959,5.363c-0.136,0.136-0.21,0.32-0.223,0.51
	C6.668,5.992,6.617,6.122,6.632,6.246C6.715,6.978,6.788,7.711,6.84,8.447c0.021,0.312,0.029,0.628,0.035,0.942
	C6.877,9.537,6.878,9.683,6.886,9.83c0.003,0.074,0.017,0.147,0.026,0.221c-0.204-0.007-0.408-0.011-0.613-0.023
	c-0.122-0.006-0.245-0.014-0.367-0.021c-0.022-1.322-0.05-2.643-0.06-3.966C5.949,5.908,6,5.764,6.012,5.601
	C6.016,5.544,6.02,5.488,6.026,5.432z M26.113,27.026c-0.03,0.057-0.064,0.111-0.1,0.165c-0.034,0.039-0.071,0.076-0.109,0.111
	c-0.057,0.037-0.116,0.07-0.176,0.101c-0.217,0.077-0.441,0.125-0.668,0.162c-0.781,0.09-1.57,0.094-2.356,0.123
	c-0.843,0.033-1.687,0.093-2.528,0.152c-0.412,0.031-0.822,0.071-1.234,0.093c-0.454,0.023-0.909,0.04-1.361,0.062
	c-0.865,0.039-1.727,0.042-2.59,0.091c-0.684,0.039-1.365,0.075-2.049,0.088c-0.68,0.014-1.359,0.065-2.039,0.083
	c-1.281,0.033-2.577,0.056-3.851-0.09c-0.217-0.037-0.425-0.089-0.635-0.157c-0.043-0.023-0.085-0.047-0.127-0.074
	c-0.017-0.016-0.033-0.032-0.049-0.048C6.231,27.87,6.22,27.852,6.21,27.834c-0.065-0.215-0.104-0.44-0.148-0.658
	C6.005,26.908,5.96,26.638,5.91,26.37c0-0.011,0.007-0.021,0.007-0.032c-0.023-1.673,0-3.344,0.054-5.016
	c0.051-1.637,0.011-3.279,0.004-4.916c0.004,0,0.008,0.002,0.012,0.003c1.159,0.04,2.322,0.037,3.483,0.033
	c0.568-0.002,1.136-0.004,1.706-0.002c0.826,0.004,1.654,0.019,2.48,0.019c0.818-0.002,1.637-0.015,2.455-0.029
	c1.615-0.025,3.229-0.079,4.844-0.077c0.811,0,1.621,0.01,2.432,0.01c0.732,0.002,1.463,0.012,2.193-0.05
	c0.143-0.012,0.284-0.037,0.426-0.057c0.013,0.516,0.026,1.032,0.034,1.548c0.023,1.44,0.046,2.88,0.05,4.321
	c0.002,0.682-0.002,1.365-0.012,2.047c-0.012,0.693,0.013,1.39-0.017,2.083c-0.006,0.141,0.035,0.27,0.096,0.39
	c-0.006,0.044-0.029,0.088-0.025,0.131c0.007,0.046,0.011,0.092,0.012,0.137C26.135,26.951,26.124,26.989,26.113,27.026z"/>
</svg>