<?xml version="1.0" encoding="utf-8"?>
<!-- Generator: Adobe Illustrator 21.1.0, SVG Export Plug-In . SVG Version: 6.00 Build 0)  -->
<svg version="1.1" id="designs" xmlns="http://www.w3.org/2000/svg" xmlns:xlink="http://www.w3.org/1999/xlink" x="0px" y="0px"
	 width="32px" height="32px" viewBox="0 0 32 32" style="enable-background:new 0 0 32 32;" xml:space="preserve">
<style type="text/css">
	.sketchy_een{fill:#111918;}
</style>
<path class="sketchy_een" d="M24.356,30c-0.198,0-0.394-0.081-0.535-0.222c-0.141-0.141-0.221-0.336-0.221-0.535
	c0-0.189,0.067-0.35,0.224-0.538c0.048-0.056,0.097-0.114,0.143-0.173c0.167-0.23,0.298-0.446,0.4-0.665
	c0.119-0.299,0.239-0.617,0.298-0.942c0.027-0.276,0.026-0.539,0-0.808c-0.034-0.185-0.082-0.361-0.144-0.535
	c-0.072-0.15-0.152-0.288-0.242-0.42c-0.101-0.118-0.201-0.225-0.314-0.323c-0.193-0.135-0.39-0.245-0.598-0.343
	c-0.139-0.052-0.277-0.091-0.418-0.123c-0.187-0.017-0.369-0.025-0.552-0.025c-0.237,0-0.475,0.012-0.711,0.033
	c-0.248,0.043-0.488,0.11-0.741,0.206c-0.396,0.18-0.794,0.402-1.22,0.68c-0.431,0.288-0.861,0.579-1.286,0.878
	c-0.289,0.203-0.573,0.413-0.857,0.622c-0.529,0.39-1.077,0.794-1.646,1.15c-0.794,0.497-1.634,0.771-2.364,0.771
	c-0.075,0-0.15-0.003-0.225-0.009c-0.344-0.025-0.711-0.07-1.072-0.22c-0.275-0.115-0.485-0.202-0.672-0.386
	c-0.138-0.136-0.253-0.299-0.357-0.455c-0.476-0.718-0.726-1.426-0.743-2.103c-0.008-0.26-0.001-0.52,0.006-0.781l0.008-0.343
	c0.007-0.378,0.005-0.756,0-1.135c-0.31-0.079-0.578-0.113-0.845-0.152l-0.579-0.073c-0.149-0.018-0.296-0.046-0.443-0.074
	c-0.087-0.016-0.174-0.033-0.261-0.047l-0.093-0.015c-0.657-0.099-1.314-0.306-2.007-0.633c-0.19-0.089-0.323-0.308-0.371-0.486
	l-0.013-0.102c-0.096-0.139-0.139-0.269-0.132-0.398l0.027-0.464c0.031-0.514,0.061-1.029,0.059-1.543
	c0-0.638-0.002-1.273-0.006-1.911L5.82,12.748c-0.008-0.59-0.016-1.2,0.026-1.799c0.06-0.847,0.23-1.699,0.4-2.498l0.084-0.409
	c0.116-0.57,0.235-1.159,0.431-1.711c0.175-0.488,0.354-0.863,0.564-1.179c0.223-0.337,0.45-0.671,0.687-0.995
	c0.225-0.308,0.425-0.556,0.666-0.763C8.85,3.245,9.038,3.11,9.226,2.975l0.235-0.171c0.317-0.234,0.702-0.43,1.084-0.552
	c0.394-0.13,0.801-0.185,1.146-0.221C11.858,2.014,11.991,2,12.121,2c0.195,0,0.388,0.028,0.58,0.059
	c0.341,0.052,0.66,0.217,0.97,0.376l0.088,0.045c0.408,0.211,0.77,0.453,1.049,0.701c0.25,0.223,0.466,0.492,0.675,0.752
	l0.061,0.075c0.586,0.719,0.989,1.359,1.27,2.016c0.312,0.731,0.539,1.477,0.673,2.218c0.137,0.754,0.228,1.53,0.316,2.281
	l0.024,0.207c0.079,0.679,0.17,1.573,0.179,2.468l0.027,2.559c0.005,0.508,0.027,1.017,0.047,1.525l0.029,0.741
	c0.022,0.691,0.03,1.384,0.032,2.077l-0.002,0.263c-0.002,0.216-0.003,0.432,0.005,0.647l0.014,0.225
	c0.029,0.404,0.059,0.821-0.261,1.075c-0.088,0.069-0.167,0.121-0.252,0.162c-0.13,0.181-0.286,0.3-0.47,0.363
	c-0.457,0.154-0.944,0.248-1.401,0.327c-0.433,0.075-0.877,0.09-1.305,0.103c-0.232,0.008-0.465,0.015-0.696,0.032
	c-0.323,0.025-0.638,0.048-0.959,0.048l-0.645-0.011c-0.052,0.424-0.062,0.801-0.073,1.179l-0.005,0.141
	c-0.011,0.297-0.021,0.597,0.004,0.894c0.026,0.139,0.063,0.271,0.108,0.401c0.138,0.301,0.296,0.573,0.486,0.837l0.074,0.066
	c0.16,0.061,0.295,0.102,0.435,0.128c0.15,0.016,0.296,0.029,0.443,0.029l0.115-0.003c0.287-0.05,0.541-0.114,0.782-0.197
	c0.574-0.269,1.139-0.609,1.835-1.105c0.615-0.436,1.23-0.868,1.856-1.289l0.294-0.2c0.225-0.155,0.45-0.31,0.684-0.448
	c0.36-0.214,0.692-0.388,1.017-0.534c0.335-0.147,0.695-0.296,1.089-0.351c0.365-0.051,0.718-0.076,1.049-0.076l0.123,0.001
	c0.371,0.01,0.857,0.041,1.325,0.195c0.435,0.144,0.805,0.333,1.13,0.577c0.406,0.304,0.741,0.725,0.968,1.218
	c0.178,0.39,0.276,0.779,0.308,1.223c0.033,0.426-0.016,0.832-0.075,1.207c-0.04,0.263-0.139,0.516-0.234,0.761l-0.048,0.126
	c-0.106,0.278-0.235,0.599-0.418,0.882c-0.137,0.213-0.282,0.42-0.43,0.626C24.831,29.877,24.616,30,24.356,30z M12.075,3.603
	c-0.149,0-0.298,0.011-0.447,0.028c-0.244,0.04-0.483,0.1-0.714,0.178c-0.254,0.122-0.497,0.27-0.728,0.442L9.826,4.529
	C9.68,4.653,9.554,4.795,9.436,4.943c-0.36,0.473-0.767,1.041-1.064,1.669C8.273,6.858,8.183,7.103,8.111,7.354
	c-0.1,0.354-0.18,0.709-0.26,1.067C7.662,9.269,7.53,9.96,7.438,10.594c-0.03,0.243-0.054,0.486-0.071,0.73
	c-0.046,0.646-0.048,1.302-0.05,1.937l-0.03,5.889c0.001,0.583,0.001,1.167-0.012,1.751l-0.001,0.03l0.168,0.078
	c0.252,0.102,0.505,0.193,0.772,0.257l0.705,0.158c0.322,0.076,0.646,0.125,0.97,0.175c0,0,0.784,0.137,0.922,0.158
	c0.512,0.065,1.064,0.099,1.645,0.099c0.215,0,0.43-0.005,0.644-0.013c0.218-0.009,0.435-0.027,0.652-0.044l0.119-0.01l0.037-0.187
	c-0.014-0.292-0.027-0.583-0.027-0.875l-0.009-2.218c-0.003-1.213-0.007-2.466-0.075-3.699l-0.017-0.299
	c-0.016-0.279-0.032-0.558-0.037-0.839c-0.006-0.357-0.012-0.714-0.032-1.07c-0.048-0.853-0.103-1.508-0.178-2.126
	c-0.089-0.597-0.214-1.187-0.34-1.774l-0.031-0.143c-0.09-0.429,0.13-0.819,0.524-0.927c0.059-0.016,0.122-0.025,0.188-0.025
	c0.304,0,0.665,0.192,0.737,0.547c0.356,1.778,0.56,3.55,0.607,5.265c0.014,0.466,0.037,0.933,0.061,1.4l0.041,0.848
	c0.024,0.557,0.025,1.115,0.026,1.673l0.002,0.653l0.011,0.737c0.009,0.483,0.018,0.965,0.012,1.449
	c-0.004,0.472,0.01,0.941,0.034,1.411l0.187,0.016l0.281-0.061c0.205-0.047,0.4-0.091,0.585-0.154l0.033-0.011l-0.004-0.112
	c-0.008-0.254-0.016-0.507-0.017-0.762c-0.002-0.436,0-0.871,0.002-1.305c0.002-0.761-0.012-1.519-0.036-2.275
	c-0.02-0.609-0.027-1.216-0.034-1.824l-0.012-1.042c-0.006-0.657-0.012-1.337-0.066-2.003c-0.065-0.77-0.148-1.537-0.246-2.303
	l-0.029-0.222l-0.004,0c-0.16-1.049-0.344-1.937-0.686-2.802c-0.224-0.501-0.502-0.979-0.826-1.422l-0.064-0.082
	c-0.251-0.323-0.511-0.658-0.827-0.929c-0.312-0.224-0.668-0.428-1.06-0.607c-0.105-0.036-0.207-0.061-0.311-0.08
	C12.203,3.605,12.139,3.603,12.075,3.603z M12.286,18.938c-0.197,0-0.393-0.083-0.536-0.227c-0.144-0.144-0.223-0.333-0.222-0.531
	c0.007-0.641-0.006-1.172-0.042-1.671c-0.024-0.331-0.035-0.661-0.046-0.992c-0.009-0.29-0.019-0.581-0.037-0.872
	c-0.049-0.784-0.143-1.576-0.233-2.342c-0.061-0.514-0.121-1.028-0.17-1.545c-0.019-0.193,0.097-0.406,0.222-0.532
	c0.142-0.14,0.338-0.221,0.536-0.221c0.199,0,0.394,0.081,0.535,0.221c0.134,0.135,0.201,0.297,0.224,0.541
	c0.058,0.692,0.122,1.384,0.203,2.076c0.073,0.632,0.144,1.245,0.186,1.863c0.019,0.283,0.028,0.567,0.037,0.851
	c0.01,0.333,0.02,0.665,0.047,0.997c0.028,0.351,0.035,0.702,0.042,1.053c0.003,0.192,0.007,0.383,0.014,0.575
	c0.007,0.187-0.065,0.369-0.203,0.513C12.693,18.849,12.49,18.938,12.286,18.938z"/>
</svg>