<?xml version="1.0" encoding="utf-8"?>
<!-- Generator: Adobe Illustrator 21.1.0, SVG Export Plug-In . SVG Version: 6.00 Build 0)  -->
<svg version="1.1" id="designs" xmlns="http://www.w3.org/2000/svg" xmlns:xlink="http://www.w3.org/1999/xlink" x="0px" y="0px"
	 width="32px" height="32px" viewBox="0 0 32 32" style="enable-background:new 0 0 32 32;" xml:space="preserve">
<style type="text/css">
	.sketchy_een{fill:#111918;}
</style>
<path class="sketchy_een" d="M28.939,13.407c-0.029-0.482-0.072-0.964-0.164-1.438c-0.097-0.501-0.304-0.973-0.509-1.438
	c-0.172-0.389-0.393-0.772-0.635-1.12c-0.534-0.764-1.132-1.519-1.83-2.14c-0.373-0.333-0.77-0.637-1.173-0.935
	c-0.344-0.253-0.698-0.499-1.07-0.712c-0.809-0.462-1.683-0.797-2.546-1.149c-0.83-0.34-1.674-0.702-2.568-0.834
	c-0.522-0.075-1.045-0.153-1.573-0.188c-0.548-0.037-1.097-0.054-1.645-0.07c-0.006,0-0.013,0-0.019,0
	c-0.11,0-0.215,0.024-0.311,0.067c-0.008,0-0.016,0.001-0.024,0.001c-0.534,0.029-1.056,0.075-1.585,0.153
	c-0.412,0.062-0.832,0.163-1.227,0.296c-0.422,0.141-0.828,0.319-1.238,0.486C10.345,4.579,9.871,4.777,9.42,5.025
	C9.054,5.226,8.7,5.462,8.361,5.708C7.955,6.006,7.553,6.311,7.172,6.64C6.784,6.973,6.448,7.348,6.144,7.759
	c-0.521,0.71-0.977,1.465-1.343,2.266c-0.401,0.886-0.784,1.776-1.084,2.703c-0.145,0.447-0.283,0.898-0.404,1.352
	c-0.128,0.474-0.201,0.969-0.255,1.457c-0.05,0.451-0.066,0.9-0.054,1.354c0.012,0.507,0.093,1.012,0.168,1.513
	c0.068,0.441,0.19,0.884,0.306,1.314c0.13,0.488,0.294,0.956,0.499,1.416c0.366,0.82,0.82,1.587,1.343,2.318
	c0.298,0.416,0.609,0.815,0.962,1.184c0.31,0.321,0.648,0.617,0.987,0.907c0.679,0.58,1.434,1.07,2.186,1.546
	c0.803,0.509,1.701,0.923,2.631,1.132c0.9,0.201,1.813,0.333,2.734,0.381c0.896,0.046,1.788-0.037,2.672-0.172
	c0.408-0.064,0.807-0.18,1.2-0.302c0.422-0.132,0.846-0.269,1.265-0.41c0.468-0.157,0.935-0.317,1.382-0.524
	c0.401-0.186,0.776-0.406,1.144-0.65c0.389-0.257,0.757-0.55,1.126-0.834c0.408-0.315,0.805-0.646,1.18-1.002
	c0.348-0.331,0.646-0.716,0.937-1.097c0.282-0.37,0.546-0.755,0.799-1.146c0.472-0.728,0.909-1.503,1.246-2.303
	c0.203-0.48,0.408-0.962,0.594-1.449c0.151-0.397,0.252-0.809,0.341-1.225c0.099-0.466,0.155-0.942,0.207-1.416
	c0.048-0.447,0.079-0.896,0.087-1.345C29.005,14.289,28.966,13.844,28.939,13.407z M19.507,5.709
	c0.639,0.241,1.271,0.496,1.899,0.758c0.438,0.195,0.873,0.398,1.29,0.635c0.429,0.244,0.83,0.535,1.225,0.831
	c0.358,0.281,0.707,0.576,1.027,0.9c0.321,0.327,0.611,0.683,0.895,1.042c0.2,0.272,0.389,0.548,0.558,0.84
	c0.153,0.266,0.285,0.542,0.41,0.822c0.142,0.383,0.251,0.763,0.32,1.165c0.061,0.608,0.089,1.226,0.102,1.837
	c0.007,0.318-0.005,0.636-0.028,0.953c-0.046-0.011-0.091-0.033-0.137-0.033c-0.018,0-0.035,0.001-0.053,0.003
	c-0.591,0.066-1.184,0.103-1.781,0.128c-0.579,0.027-1.159,0.056-1.74,0.062c-0.603,0.006-1.205,0-1.806-0.004
	c-0.585-0.005-1.172-0.007-1.758-0.003c0.003-0.004,0.005-0.009,0.008-0.013c0.209-0.335,0.437-0.656,0.652-0.987
	c0.223-0.339,0.435-0.683,0.637-1.035c0.207-0.36,0.43-0.71,0.64-1.066c0.211-0.356,0.41-0.72,0.621-1.076
	c0.213-0.364,0.387-0.749,0.571-1.126c0.097-0.199,0.141-0.397,0.079-0.617c-0.029-0.108-0.082-0.209-0.153-0.295
	c-0.016-0.043-0.035-0.084-0.057-0.123c-0.108-0.186-0.288-0.323-0.495-0.381c-0.071-0.02-0.14-0.028-0.207-0.028
	c-0.148,0-0.29,0.043-0.429,0.112c-0.786,0.393-1.544,0.834-2.304,1.273c-0.697,0.402-1.393,0.805-2.09,1.209
	c-0.144,0.084-0.282,0.177-0.424,0.263c0.08-1.013,0.168-2.025,0.203-3.042c0.023-0.639,0.039-1.277,0.066-1.916
	c0.021-0.535,0.05-1.07,0.077-1.606c0.049,0.005,0.099,0.007,0.148,0.013C18.165,5.318,18.846,5.462,19.507,5.709z M16.836,17.224
	c-0.14,0.095-0.283,0.183-0.433,0.26c-0.108,0.037-0.216,0.066-0.327,0.089c-0.087,0.005-0.172,0.004-0.259-0.003
	c-0.156-0.028-0.306-0.065-0.456-0.116c-0.151-0.074-0.294-0.16-0.433-0.255c-0.09-0.078-0.175-0.159-0.256-0.247
	c-0.043-0.067-0.083-0.135-0.12-0.205c-0.018-0.055-0.034-0.11-0.047-0.167c-0.001-0.065,0-0.129,0.005-0.193
	c0.029-0.144,0.063-0.287,0.11-0.426c0.127-0.254,0.281-0.492,0.446-0.724c0.221-0.26,0.463-0.493,0.727-0.709
	c0.242-0.173,0.493-0.334,0.74-0.5c0.259-0.176,0.515-0.356,0.78-0.521c0.559-0.352,1.136-0.675,1.699-1.021
	c0.491-0.303,0.978-0.616,1.477-0.907c-0.291,0.491-0.579,0.983-0.858,1.481c-0.341,0.608-0.72,1.192-1.082,1.788
	c-0.178,0.292-0.358,0.584-0.532,0.878c-0.168,0.286-0.329,0.574-0.521,0.845C17.296,16.808,17.08,17.032,16.836,17.224z
	 M6.684,9.962c0.237-0.455,0.52-0.883,0.82-1.298C7.721,8.396,7.946,8.142,8.195,7.9C8.414,7.684,8.66,7.494,8.904,7.305
	C9.218,7.073,9.535,6.84,9.869,6.636c0.38-0.235,0.767-0.437,1.176-0.618c0.409-0.171,0.818-0.345,1.23-0.512
	c0.424-0.171,0.873-0.273,1.319-0.359c0.413-0.049,0.824-0.075,1.241-0.092c0.295-0.011,0.592,0.007,0.888,0.021
	c-0.022,0.559-0.046,1.117-0.053,1.677c-0.008,0.646-0.006,1.293-0.01,1.939c-0.01,1.24-0.203,2.471-0.269,3.707
	c-0.005,0.108,0.018,0.211,0.06,0.305c-0.016,0.011-0.033,0.02-0.05,0.031c-0.381,0.25-0.753,0.507-1.095,0.811
	c-0.337,0.296-0.615,0.664-0.865,1.033c-0.108,0.157-0.199,0.327-0.29,0.493c-0.065,0.12-0.103,0.248-0.148,0.374
	c-0.106-0.054-0.22-0.09-0.345-0.086c-0.588,0.023-1.186,0.046-1.774,0.016c-0.658-0.035-1.314-0.079-1.972-0.095
	c-0.652-0.017-1.302-0.033-1.954-0.056C6.27,15.199,5.584,15.14,4.9,15.089c0.241-1.288,0.648-2.548,1.147-3.758
	C6.245,10.868,6.45,10.409,6.684,9.962z M13.95,26.658c-0.405-0.062-0.804-0.139-1.206-0.225c-0.395-0.084-0.773-0.212-1.148-0.361
	c-0.533-0.241-1.029-0.529-1.522-0.849c-0.435-0.281-0.866-0.561-1.282-0.87c-0.607-0.494-1.182-1.035-1.682-1.64
	c-0.625-0.829-1.158-1.708-1.581-2.657c-0.329-0.88-0.548-1.797-0.69-2.724C4.82,17.12,4.818,16.907,4.81,16.695
	c0.716,0.042,1.431,0.074,2.147,0.091c0.342,0.01,0.685,0.006,1.027,0.004c0.31-0.002,0.617-0.004,0.927,0
	c0.66,0.014,1.314,0.068,1.972,0.112c0.59,0.039,1.182,0.017,1.774,0.033c0.066,0.001,0.125-0.021,0.186-0.036
	c0.078,0.429,0.269,0.838,0.566,1.161c0.219,0.238,0.486,0.455,0.766,0.615c0.215,0.124,0.439,0.219,0.669,0.308
	c0.178,0.07,0.38,0.1,0.576,0.123c0.027,1.282,0.05,2.562,0.043,3.844c-0.004,0.626-0.033,1.252-0.046,1.879
	c-0.013,0.643-0.034,1.286-0.053,1.928C14.892,26.753,14.418,26.715,13.95,26.658z M26.267,19.256
	c0.029-0.072,0.058-0.141,0.087-0.211c-0.547,1.291-1.249,2.502-2.082,3.627c-0.272,0.34-0.554,0.664-0.869,0.969
	c-0.283,0.273-0.592,0.522-0.902,0.765c-0.633,0.479-1.27,0.927-1.991,1.264c-0.544,0.217-1.105,0.388-1.666,0.557
	c-0.566,0.167-1.128,0.335-1.708,0.431c-0.08,0.01-0.161,0.008-0.241,0.017c-0.014-1.241-0.007-2.482-0.006-3.724
	c0.002-1.334,0.041-2.667,0.029-4.001c0-0.008-0.004-0.014-0.004-0.021c0.238-0.098,0.469-0.219,0.678-0.365
	c0.632-0.442,1.121-1.019,1.544-1.653c0.137,0.114,0.31,0.19,0.504,0.186c1.265-0.027,2.526-0.064,3.791-0.058
	c1.19,0.006,2.378-0.017,3.566-0.084c-0.051,0.262-0.093,0.527-0.162,0.787C26.695,18.261,26.476,18.759,26.267,19.256z"/>
</svg>