<?xml version="1.0" encoding="utf-8"?>
<!-- Generator: Adobe Illustrator 21.1.0, SVG Export Plug-In . SVG Version: 6.00 Build 0)  -->
<svg version="1.1" id="designs" xmlns="http://www.w3.org/2000/svg" xmlns:xlink="http://www.w3.org/1999/xlink" x="0px" y="0px"
	 width="32px" height="32px" viewBox="0 0 32 32" style="enable-background:new 0 0 32 32;" xml:space="preserve">
<style type="text/css">
	.sketchy_een{fill:#111918;}
</style>
<path class="sketchy_een" d="M29.711,9.093c-0.088-0.357-0.2-0.704-0.337-1.043c-0.154-0.381-0.307-0.768-0.511-1.129
	c-0.389-0.683-0.849-1.319-1.436-1.846c-0.589-0.528-1.257-0.978-1.949-1.359c-0.372-0.206-0.751-0.395-1.146-0.551
	c-0.368-0.147-0.744-0.269-1.123-0.381c-0.759-0.227-1.562-0.332-2.349-0.395c-0.363-0.029-0.729-0.045-1.095-0.045
	c-0.406,0-0.812,0.02-1.214,0.066c-0.412,0.046-0.824,0.105-1.228,0.202c-0.338,0.08-0.665,0.2-0.988,0.328
	c-0.402,0.16-0.799,0.337-1.192,0.519c-0.337,0.156-0.681,0.305-1.012,0.475c-0.345,0.177-0.683,0.368-1.022,0.559
	c-0.372,0.21-0.725,0.431-1.06,0.694c-0.282,0.221-0.543,0.477-0.812,0.713c-0.273,0.238-0.542,0.484-0.789,0.749
	c-0.551,0.587-1.083,1.19-1.554,1.848c-0.442,0.622-0.837,1.27-1.161,1.96c-0.092,0.195-0.172,0.397-0.248,0.599
	c-0.072,0.193-0.149,0.387-0.2,0.585c-0.105,0.404-0.158,0.822-0.191,1.24c-0.101,1.264,0.078,2.538,0.469,3.741
	c0.196,0.603,0.477,1.19,0.776,1.747c0.209,0.385,0.438,0.761,0.675,1.132c-0.534,0.463-1.068,0.926-1.588,1.406
	c-0.591,0.549-1.154,1.125-1.739,1.678c-0.574,0.545-1.161,1.075-1.735,1.619c-0.593,0.561-1.167,1.14-1.739,1.722
	c-0.234,0.237-0.268,0.594-0.119,0.875c-0.06,0.252,0.001,0.527,0.188,0.732c0.53,0.578,1.066,1.152,1.605,1.722
	c0.176,0.186,0.434,0.238,0.674,0.192c0.294,0.287,0.761,0.277,1.053-0.004c0.58-0.557,1.182-1.089,1.741-1.67
	c0.54-0.561,1.068-1.133,1.619-1.684c0.566-0.566,1.144-1.119,1.684-1.714c0.483-0.529,0.945-1.076,1.408-1.623
	c0.121,0.097,0.242,0.194,0.364,0.288c0.221,0.174,0.444,0.347,0.673,0.509c0.172,0.124,0.362,0.223,0.543,0.332
	c0.347,0.208,0.681,0.431,1.041,0.616c0.307,0.159,0.621,0.304,0.934,0.452c0.003,0.018,0.003,0.036,0.006,0.054
	c0.048,0.305,0.198,0.593,0.353,0.858c0.439,0.747,1.039,1.386,1.819,1.775c0.393,0.196,0.797,0.316,1.23,0.379
	c0.214,0.031,0.431,0.065,0.648,0.073c0.307,0.011,0.618-0.046,0.917-0.122c0.41-0.103,0.824-0.265,1.194-0.473
	c0.389-0.217,0.751-0.469,1.062-0.793c0.292-0.307,0.528-0.66,0.717-1.037c0.099-0.198,0.185-0.404,0.263-0.612
	c0.093-0.25,0.132-0.521,0.164-0.784c0.042-0.345,0.042-0.686,0.011-1.033c-0.01-0.115-0.035-0.228-0.051-0.343
	c0.162-0.127,0.32-0.258,0.478-0.389c0.276-0.229,0.559-0.454,0.833-0.685c0.574-0.486,1.064-1.079,1.529-1.666
	c0.503-0.631,0.965-1.291,1.39-1.977c0.414-0.663,0.749-1.375,1.024-2.107c0.265-0.704,0.477-1.411,0.601-2.155
	c0.133-0.805,0.198-1.613,0.187-2.429C29.984,10.676,29.904,9.875,29.711,9.093z M14.265,22.252
	c-0.243-0.143-0.469-0.304-0.693-0.473c-0.312-0.249-0.624-0.5-0.886-0.802c-0.15-0.173-0.367-0.252-0.587-0.252
	c-0.234,0-0.471,0.09-0.634,0.252c-0.009,0.009-0.013,0.022-0.021,0.032c-0.001,0.001-0.003,0.001-0.003,0.002
	c-0.585,0.704-1.155,1.419-1.747,2.117c-0.534,0.629-1.106,1.215-1.691,1.796c-0.557,0.551-1.089,1.127-1.621,1.701
	c-0.477,0.516-0.987,0.998-1.507,1.468c-0.435-0.475-0.867-0.952-1.299-1.428c0.177-0.182,0.353-0.364,0.534-0.543
	c0.294-0.292,0.601-0.572,0.9-0.858c0.572-0.547,1.159-1.077,1.735-1.617c0.589-0.551,1.157-1.123,1.766-1.653
	c0.673-0.583,1.359-1.152,2.04-1.728c0.103-0.088,0.158-0.205,0.193-0.329c0.111-0.234,0.131-0.51-0.02-0.731
	c-0.301-0.442-0.587-0.894-0.868-1.352c-0.229-0.378-0.425-0.768-0.602-1.173c-0.273-0.682-0.478-1.387-0.603-2.111
	c-0.08-0.667-0.081-1.328-0.017-1.994c0.853,0.844,1.68,1.716,2.451,2.631c0.496,0.589,1.018,1.152,1.55,1.708
	c0.534,0.559,1.041,1.142,1.55,1.726c0.435,0.498,0.871,0.991,1.316,1.481c0.221,0.244,0.439,0.488,0.664,0.729
	c0.159,0.171,0.329,0.334,0.496,0.499c-0.132,0.172-0.256,0.35-0.373,0.528c-0.242,0.366-0.437,0.768-0.574,1.184
	c-0.002,0.005-0.002,0.012-0.004,0.017c-0.23-0.112-0.461-0.222-0.678-0.357C14.778,22.564,14.525,22.404,14.265,22.252z
	 M22.323,23.982c-0.04,0.248-0.099,0.488-0.186,0.723c-0.105,0.228-0.223,0.447-0.365,0.651c-0.14,0.166-0.288,0.32-0.452,0.462
	c-0.235,0.163-0.479,0.303-0.739,0.425c-0.227,0.087-0.457,0.157-0.696,0.206c-0.181,0.01-0.361,0-0.541-0.021
	c-0.254-0.042-0.497-0.1-0.738-0.187c-0.177-0.084-0.346-0.178-0.509-0.288c-0.149-0.127-0.288-0.263-0.42-0.411
	c-0.169-0.23-0.325-0.471-0.453-0.727c-0.009-0.029-0.014-0.059-0.022-0.088c0.086-0.187,0.117-0.398,0.062-0.598
	c-0.022-0.079-0.069-0.161-0.117-0.24c0-0.01-0.001-0.019,0-0.029c0.039-0.206,0.092-0.407,0.163-0.606
	c0.157-0.336,0.349-0.651,0.568-0.951c0.111-0.132,0.23-0.247,0.36-0.357c0.25-0.175,0.51-0.327,0.787-0.456
	c0.293-0.105,0.583-0.183,0.889-0.239c0.079-0.009,0.157-0.018,0.236-0.026c0.055-0.006,0.108-0.014,0.159-0.024
	c0.24,0.052,0.478,0.119,0.709,0.206c0.177,0.085,0.348,0.179,0.511,0.289c0.177,0.149,0.333,0.318,0.482,0.496
	c0.095,0.136,0.178,0.279,0.25,0.428c0.036,0.105,0.064,0.212,0.085,0.321C22.373,23.287,22.36,23.638,22.323,23.982z M28.52,13.251
	c-0.066,0.449-0.152,0.894-0.279,1.332c-0.133,0.461-0.306,0.911-0.489,1.355c-0.45,1.014-1.027,1.952-1.694,2.839
	c-0.364,0.465-0.741,0.919-1.156,1.341c-0.407,0.414-0.857,0.772-1.315,1.128c-0.086,0.067-0.177,0.128-0.264,0.195
	c-0.085-0.102-0.172-0.202-0.262-0.295c-0.208-0.215-0.437-0.404-0.675-0.589c-0.261-0.202-0.591-0.345-0.898-0.463
	c-0.245-0.094-0.498-0.168-0.754-0.229c-0.005-0.005-0.01-0.01-0.015-0.015c-0.124-0.124-0.333-0.239-0.521-0.239
	c-0.017,0-0.033,0.001-0.049,0.003c-0.465,0.055-0.936,0.113-1.375,0.288c-0.236,0.095-0.475,0.187-0.698,0.309
	c-0.108,0.059-0.21,0.129-0.314,0.195c-0.214-0.211-0.432-0.418-0.64-0.637c-0.254-0.267-0.498-0.543-0.747-0.816
	c-0.505-0.555-0.98-1.135-1.48-1.695c-0.509-0.572-1.012-1.146-1.537-1.703c-0.532-0.566-1.028-1.159-1.527-1.754
	c-0.45-0.532-0.923-1.045-1.394-1.56c-0.41-0.446-0.832-0.88-1.261-1.306c0.35-0.703,0.771-1.368,1.246-1.994
	c0.372-0.467,0.77-0.917,1.189-1.339c0.444-0.448,0.92-0.864,1.401-1.273c0.532-0.391,1.12-0.717,1.703-1.025
	c0.62-0.326,1.254-0.618,1.897-0.893c-0.023,0.01-0.047,0.02-0.071,0.03c0.037-0.016,0.074-0.032,0.112-0.047
	c0.021-0.009,0.042-0.018,0.064-0.027c-0.015,0.007-0.031,0.013-0.047,0.02c0.287-0.119,0.576-0.227,0.878-0.308
	c0.315-0.084,0.637-0.143,0.959-0.193c0.505-0.056,1.009-0.072,1.516-0.081c0.522-0.01,1.043,0.052,1.562,0.111
	c-0.065-0.01-0.128-0.017-0.193-0.027c0.126,0.018,0.251,0.034,0.376,0.051c0.721,0.106,1.433,0.321,2.112,0.585
	c0.755,0.338,1.468,0.753,2.138,1.239c0.359,0.289,0.696,0.604,0.989,0.96c0.363,0.503,0.674,1.028,0.929,1.595
	c0.141,0.34,0.27,0.682,0.37,1.038c0.091,0.328,0.16,0.661,0.212,0.996C28.624,11.315,28.626,12.285,28.52,13.251z M16.67,4.385
	c-0.019,0.008-0.039,0.016-0.058,0.025c0.014-0.006,0.027-0.012,0.041-0.017C16.659,4.389,16.664,4.387,16.67,4.385z M25.411,17.223
	c0.001-0.001,0.001-0.002,0.002-0.003c0.006-0.007,0.011-0.015,0.017-0.022C25.424,17.207,25.417,17.215,25.411,17.223z
	 M27.586,12.38c-0.25,0.862-0.524,1.707-0.864,2.538c-0.183,0.452-0.374,0.894-0.62,1.316c-0.205,0.349-0.444,0.668-0.69,0.987
	c-0.007,0.009-0.014,0.018-0.02,0.027c-0.028,0.036-0.056,0.073-0.085,0.109c0.018-0.024,0.037-0.048,0.056-0.073
	c-0.317,0.415-0.628,0.835-0.983,1.219c-0.305,0.332-0.648,0.612-0.98,0.915c-0.303,0.276-0.765,0.299-1.064,0
	c-0.282-0.282-0.301-0.784,0-1.064c0.206-0.193,0.433-0.366,0.629-0.57c0.21-0.22,0.408-0.451,0.596-0.689
	c0.291-0.38,0.578-0.765,0.849-1.157c0.283-0.408,0.515-0.847,0.715-1.3c0.17-0.405,0.336-0.811,0.471-1.23
	c0.154-0.482,0.284-0.973,0.421-1.461c0.099-0.356,0.434-0.596,0.791-0.596c0.069,0,0.139,0.009,0.208,0.028
	C27.441,11.495,27.71,11.955,27.586,12.38z M25.392,17.247c0.006-0.008,0.012-0.016,0.018-0.024
	c-0.016,0.02-0.031,0.041-0.047,0.061C25.374,17.272,25.383,17.26,25.392,17.247z"/>
</svg>