<?xml version="1.0" encoding="utf-8"?>
<!-- Generator: Adobe Illustrator 21.1.0, SVG Export Plug-In . SVG Version: 6.00 Build 0)  -->
<svg version="1.1" id="designs" xmlns="http://www.w3.org/2000/svg" xmlns:xlink="http://www.w3.org/1999/xlink" x="0px" y="0px"
	 width="32px" height="32px" viewBox="0 0 32 32" style="enable-background:new 0 0 32 32;" xml:space="preserve">
<style type="text/css">
	.sketchy_een{fill:#111918;}
</style>
<path class="sketchy_een" d="M28.943,10.813c-0.015-0.206-0.043-0.416-0.096-0.614c-0.055-0.203-0.115-0.403-0.185-0.601
	c-0.144-0.414-0.303-0.83-0.501-1.221c-0.179-0.359-0.388-0.693-0.612-1.024c-0.24-0.357-0.516-0.686-0.788-1.017
	c-0.235-0.285-0.462-0.572-0.705-0.849c-1.023-1.175-2.258-2.157-3.634-2.887c-0.34-0.179-0.697-0.363-1.069-0.462
	C21.002,2.044,20.625,2,20.259,2c-0.042,0-0.084,0-0.125,0.002c-0.424,0.009-0.843,0.054-1.261,0.124
	c-0.54,0.089-1.125,0.187-1.557,0.546c-0.068,0.056-0.132,0.115-0.195,0.176c-0.275-0.079-0.589-0.02-0.792,0.199
	c-0.292,0.318-0.577,0.64-0.845,0.977c-0.401,0.501-0.755,1.03-0.93,1.656c-0.205,0.732-0.05,1.505,0.117,2.229
	c0.087,0.379,0.25,0.734,0.403,1.089c0.083,0.196,0.176,0.387,0.27,0.575c0.168,0.338,0.39,0.657,0.612,0.96
	c0.03,0.042,0.062,0.082,0.092,0.123c-0.607,0.577-1.193,1.176-1.795,1.76c-0.535,0.52-1.041,1.065-1.583,1.578
	c-1.152,1.089-2.264,2.216-3.362,3.357c-0.263,0.272-0.512,0.555-0.768,0.832c-0.268,0.289-0.544,0.57-0.816,0.854
	c-0.51,0.533-1.001,1.086-1.506,1.626c-0.466,0.498-0.906,1.017-1.365,1.52c-0.51,0.557-1.023,1.128-1.426,1.77
	c-0.076,0.122-0.135,0.253-0.19,0.385c-0.048,0.113-0.092,0.214-0.126,0.329c-0.031,0.107-0.037,0.222-0.05,0.333
	c-0.009,0.091-0.011,0.179-0.007,0.27c0.009,0.357,0.107,0.808,0.302,1.115c0.176,0.279,0.455,0.538,0.743,0.697
	c0.266,0.146,0.559,0.187,0.854,0.231c0.355,0.054,0.703,0.089,1.054-0.013c0.366-0.105,0.673-0.309,0.969-0.542
	C7.2,26.58,7.42,26.388,7.62,26.181c0.218-0.226,0.427-0.462,0.651-0.684c0.179-0.177,0.351-0.364,0.515-0.556
	c0.057,0.053,0.116,0.106,0.17,0.163c0.086,0.142,0.148,0.299,0.213,0.453c0.016,0.043,0.033,0.086,0.047,0.13
	c-0.065,0.115-0.142,0.224-0.221,0.33c-0.169,0.213-0.342,0.423-0.528,0.62c-0.059,0.065-0.122,0.13-0.178,0.198
	c-0.065,0.076-0.126,0.156-0.181,0.235c-0.118,0.167-0.15,0.363-0.167,0.557c-0.026,0.3,0.168,0.588,0.37,0.786
	c0.089,0.087,0.19,0.163,0.279,0.25c0.183,0.174,0.361,0.35,0.551,0.514c0.165,0.142,0.342,0.27,0.523,0.39
	c0.148,0.096,0.298,0.207,0.459,0.281c0.277,0.129,0.555,0.198,0.862,0.118c0.189-0.048,0.344-0.17,0.497-0.285
	c0.559-0.422,1.058-0.904,1.574-1.376c0.183-0.168,0.366-0.338,0.507-0.547c0.109-0.159,0.19-0.377,0.165-0.573
	c-0.028-0.217-0.068-0.335-0.161-0.534c-0.061-0.133-0.143-0.253-0.232-0.368c0.014,0.008,0.028,0.016,0.041,0.023
	c0.244,0.139,0.514,0.261,0.788,0.324c0.353,0.083,0.695-0.011,0.964-0.253c0.057-0.053,0.107-0.115,0.159-0.174
	c0.166-0.196,0.335-0.388,0.512-0.575c0.438-0.464,0.921-0.904,1.265-1.448c0.231-0.364,0.246-0.773,0.05-1.152
	c-0.048-0.094-0.109-0.176-0.17-0.261c-0.183-0.247-0.38-0.479-0.569-0.718c-0.112-0.148-0.225-0.299-0.361-0.427
	c-0.168-0.159-0.359-0.3-0.555-0.422c-0.205-0.128-0.424-0.259-0.651-0.338c-0.099-0.036-0.196-0.052-0.292-0.052
	c-0.222,0-0.433,0.085-0.627,0.211c-0.32,0.205-0.592,0.468-0.871,0.723c-0.228,0.207-0.448,0.418-0.682,0.617
	c-0.1-0.136-0.198-0.275-0.296-0.413c0.388-0.355,0.764-0.722,1.122-1.107c0.466-0.505,0.888-1.047,1.337-1.565
	c0.442-0.509,0.91-0.997,1.383-1.476c0.442-0.448,0.862-0.919,1.304-1.369c0.192-0.196,0.377-0.401,0.579-0.588
	c0.216-0.201,0.427-0.405,0.629-0.621c0.2-0.211,0.407-0.413,0.607-0.622c0.085-0.089,0.161-0.187,0.242-0.281
	c0.331,0.283,0.674,0.552,1.028,0.809c0.301,0.218,0.618,0.412,0.938,0.599c0.424,0.246,0.86,0.459,1.337,0.581
	c0.498,0.126,1.021,0.168,1.528,0.094c0.485-0.068,0.945-0.25,1.378-0.472c0.362-0.187,0.705-0.429,1.023-0.679
	c0.294-0.229,0.542-0.496,0.795-0.768c0.313-0.338,0.59-0.703,0.847-1.084c0.24-0.355,0.422-0.727,0.581-1.125
	c0.15-0.379,0.218-0.788,0.248-1.193C28.954,10.992,28.948,10.904,28.943,10.813z M5.57,25.81c-0.019-0.002-0.038-0.005-0.057-0.008
	C5.533,25.805,5.552,25.807,5.57,25.81C5.571,25.81,5.571,25.81,5.57,25.81z M5.582,25.812L5.582,25.812
	c0.027,0.003,0.054,0.007,0.081,0.01C5.636,25.819,5.609,25.815,5.582,25.812z M17.088,14.405c-0.237,0.244-0.501,0.462-0.738,0.708
	c-0.198,0.205-0.394,0.411-0.588,0.618c-0.233,0.248-0.451,0.507-0.684,0.753c-0.235,0.25-0.477,0.49-0.708,0.744
	c-0.466,0.51-0.94,1.01-1.38,1.542c-0.355,0.429-0.712,0.851-1.104,1.247c-0.462,0.47-0.958,0.906-1.47,1.321
	c-0.15,0.122-0.226,0.359-0.226,0.546c0,0.203,0.081,0.401,0.226,0.546c0.033,0.033,0.077,0.05,0.115,0.076
	c0.233,0.323,0.48,0.634,0.726,0.946c0.041,0.055,0.082,0.11,0.127,0.163c0.078,0.094,0.161,0.157,0.261,0.233
	c0.253,0.189,0.551,0.224,0.853,0.163c0.222-0.043,0.433-0.229,0.603-0.366c0.111-0.087,0.213-0.191,0.316-0.289
	c0.369-0.352,0.713-0.728,1.109-1.049c0.003-0.002,0.006-0.005,0.01-0.007c0.1,0.054,0.197,0.113,0.29,0.177
	c0.103,0.09,0.2,0.185,0.287,0.289c0.188,0.255,0.389,0.513,0.55,0.789c-0.008,0.012-0.016,0.025-0.024,0.037
	c-0.269,0.331-0.561,0.636-0.86,0.941c-0.146,0.148-0.29,0.296-0.433,0.444c-0.034,0.036-0.067,0.073-0.101,0.11
	c-0.213-0.106-0.41-0.24-0.622-0.349c-0.272-0.139-0.557-0.198-0.86-0.211c-0.205-0.009-0.429,0.048-0.612,0.142
	c-0.2,0.105-0.326,0.255-0.457,0.431c-0.08,0.104-0.12,0.24-0.155,0.365c-0.063,0.214-0.039,0.403-0.011,0.618
	c0.015,0.107,0.05,0.207,0.091,0.307c0.065,0.163,0.129,0.307,0.235,0.444c0.082,0.109,0.17,0.213,0.256,0.32
	c0.01,0.013,0.019,0.027,0.029,0.041c-0.159,0.163-0.331,0.317-0.496,0.47c-0.241,0.223-0.477,0.454-0.733,0.656
	c-0.078,0.06-0.156,0.122-0.238,0.177c-0.101-0.061-0.198-0.132-0.292-0.202c-0.211-0.171-0.397-0.37-0.579-0.573
	c-0.043-0.048-0.087-0.094-0.133-0.14c0.36-0.447,0.713-0.898,0.933-1.435c0.183-0.444-0.018-0.886-0.194-1.289
	c-0.065-0.15-0.124-0.305-0.205-0.448c-0.109-0.196-0.268-0.364-0.412-0.536c-0.096-0.117-0.263-0.175-0.419-0.196
	c-0.052-0.17-0.16-0.323-0.323-0.418c-0.35-0.205-0.793-0.078-1.002,0.263c-0.01,0.016-0.019,0.032-0.029,0.048
	c-0.299,0.355-0.605,0.704-0.938,1.026c-0.333,0.322-0.64,0.661-1.001,0.952c-0.114,0.083-0.23,0.159-0.357,0.222
	c-0.034,0.011-0.068,0.021-0.103,0.03c-0.031,0.001-0.061,0-0.092-0.001c-0.105-0.02-0.209-0.046-0.314-0.073
	c-0.093-0.026-0.187-0.044-0.28-0.072c-0.016-0.009-0.032-0.019-0.048-0.029c-0.033-0.03-0.065-0.062-0.096-0.095
	c-0.008-0.013-0.016-0.027-0.023-0.041c-0.029-0.083-0.053-0.168-0.072-0.255c-0.003-0.055-0.002-0.11,0-0.166
	c0.006-0.024,0.013-0.048,0.021-0.073c0.15-0.302,0.344-0.57,0.547-0.835c0.431-0.551,0.914-1.061,1.373-1.59
	c0.442-0.509,0.899-1.006,1.348-1.509c0.533-0.595,1.088-1.165,1.639-1.742c0.25-0.263,0.49-0.533,0.732-0.803
	c0.252-0.281,0.518-0.546,0.784-0.814c0.485-0.488,0.964-0.979,1.457-1.458c0.518-0.501,1.054-0.984,1.567-1.491
	c0.226-0.22,0.435-0.455,0.647-0.686c0.226-0.246,0.477-0.47,0.723-0.696c0.507-0.468,1.011-0.938,1.516-1.409
	c0.366,0.451,0.74,0.895,1.134,1.321C17.824,13.666,17.452,14.033,17.088,14.405z M27.285,11.091
	c-0.046,0.255-0.115,0.5-0.207,0.743c-0.184,0.395-0.419,0.758-0.677,1.111c-0.315,0.389-0.659,0.765-1.044,1.084
	c-0.29,0.209-0.593,0.398-0.917,0.551c-0.22,0.082-0.44,0.149-0.669,0.192c-0.148,0.009-0.293,0.004-0.441-0.01
	c-0.249-0.043-0.496-0.098-0.735-0.182c-0.649-0.314-1.262-0.698-1.845-1.123c-0.259-0.203-0.511-0.413-0.756-0.633
	c-0.29-0.259-0.557-0.54-0.823-0.825c-0.496-0.532-0.962-1.101-1.414-1.672c-0.278-0.374-0.556-0.749-0.807-1.143
	c-0.234-0.363-0.409-0.753-0.582-1.149c-0.143-0.379-0.243-0.771-0.309-1.171c-0.022-0.213-0.023-0.423-0.007-0.636
	c0.027-0.13,0.062-0.256,0.106-0.381c0.127-0.259,0.292-0.493,0.466-0.724c0.248-0.297,0.507-0.584,0.77-0.869
	c0.206,0.017,0.419-0.053,0.577-0.207c0.087-0.087,0.175-0.173,0.267-0.254c0.015-0.009,0.03-0.017,0.046-0.026
	c0.297-0.104,0.611-0.151,0.923-0.194c0.46-0.055,0.919-0.076,1.382-0.029c0.181,0.034,0.356,0.08,0.53,0.143
	c0.708,0.315,1.393,0.709,2.018,1.166c0.512,0.403,1.011,0.826,1.461,1.296c0.455,0.479,0.858,1.007,1.267,1.526
	c0.388,0.515,0.726,1.06,0.991,1.649c0.178,0.446,0.341,0.911,0.431,1.385C27.294,10.84,27.294,10.964,27.285,11.091z M25.497,9.184
	c-0.089-0.196-0.183-0.388-0.283-0.577c-0.361-0.684-0.834-1.309-1.332-1.899c-0.481-0.573-1.086-1.026-1.755-1.356
	c-0.418-0.207-0.856-0.399-1.306-0.521c-0.264-0.072-0.551-0.126-0.823-0.13c-0.013,0-0.027,0-0.04,0
	c-0.112,0-0.225,0.006-0.336,0.013c-0.107,0.007-0.218,0.024-0.324,0.039c-0.224,0.033-0.418,0.102-0.618,0.207
	c-0.153,0.082-0.259,0.219-0.314,0.376c-0.18,0.095-0.322,0.262-0.389,0.469c-0.161,0.492-0.335,1.017-0.285,1.542
	c0.037,0.392,0.102,0.784,0.252,1.152c0.091,0.224,0.19,0.437,0.311,0.646c0.096,0.17,0.211,0.333,0.32,0.496
	c0.227,0.337,0.475,0.662,0.731,0.977c0.228,0.279,0.464,0.547,0.727,0.795c0.261,0.244,0.536,0.472,0.814,0.694
	c0.337,0.27,0.671,0.557,1.047,0.771c0.418,0.24,0.89,0.354,1.369,0.363c0.39,0.008,0.777-0.102,1.123-0.277
	c0.178-0.089,0.335-0.24,0.481-0.374c0.076-0.068,0.148-0.148,0.215-0.227c0.142-0.168,0.277-0.344,0.396-0.531
	c0.113-0.177,0.185-0.383,0.255-0.581c0.168-0.475,0.111-0.995-0.006-1.472C25.676,9.574,25.582,9.372,25.497,9.184z M24.226,10.946
	c-0.048,0.096-0.102,0.187-0.162,0.276c-0.12,0.145-0.248,0.278-0.392,0.4c-0.02,0.013-0.041,0.026-0.062,0.038
	c-0.066,0.021-0.132,0.037-0.199,0.052c-0.104,0.007-0.207,0.008-0.312,0.002c-0.101-0.022-0.199-0.049-0.297-0.083
	c-0.268-0.131-0.504-0.304-0.742-0.485c-0.361-0.278-0.723-0.56-1.051-0.875c-0.324-0.309-0.61-0.649-0.885-1
	c-0.279-0.378-0.548-0.764-0.76-1.183c-0.079-0.21-0.138-0.423-0.179-0.644c-0.008-0.125-0.01-0.248-0.001-0.372
	c0.06-0.295,0.157-0.578,0.25-0.863c0.002-0.005,0.004-0.011,0.005-0.017c0.049-0.015,0.098-0.027,0.149-0.037
	c0.176-0.015,0.351-0.021,0.528-0.011c0.279,0.051,0.546,0.133,0.812,0.236c0.433,0.19,0.848,0.398,1.231,0.677
	c0.322,0.275,0.605,0.583,0.872,0.911c0.219,0.291,0.423,0.592,0.615,0.903c0.19,0.311,0.349,0.637,0.496,0.969
	c0.068,0.18,0.122,0.354,0.161,0.54c0.007,0.09,0.009,0.178,0.004,0.268C24.288,10.75,24.26,10.848,24.226,10.946z"/>
</svg>