<?xml version="1.0" encoding="utf-8"?>
<!-- Generator: Adobe Illustrator 21.1.0, SVG Export Plug-In . SVG Version: 6.00 Build 0)  -->
<svg version="1.1" id="designs" xmlns="http://www.w3.org/2000/svg" xmlns:xlink="http://www.w3.org/1999/xlink" x="0px" y="0px"
	 width="32px" height="32px" viewBox="0 0 32 32" style="enable-background:new 0 0 32 32;" xml:space="preserve">
<style type="text/css">
	.sketchy_een{fill:#111918;}
</style>
<path class="sketchy_een" d="M20.818,5.072C20.81,4.59,20.42,4.188,19.931,4.188c-0.027,0-0.05,0.013-0.077,0.016
	c-0.151-0.115-0.321-0.184-0.497-0.184c-0.223,0-0.448,0.087-0.627,0.248c-0.254,0.23-0.499,0.471-0.751,0.703
	c-0.272,0.25-0.546,0.497-0.817,0.749c-0.28,0.26-0.55,0.526-0.844,0.771c-0.292,0.24-0.588,0.479-0.878,0.719
	c-1.097,0.91-2.117,1.908-3.133,2.905c-0.024-0.002-0.046-0.015-0.07-0.015c-0.006,0-0.011,0-0.017,0
	c-0.936,0.022-1.87,0.066-2.804,0.097c-0.499,0.016-0.987,0.046-1.482,0.115c-0.449,0.062-0.886,0.153-1.325,0.262
	c-0.928,0.228-1.826,0.662-2.607,1.21c-0.467,0.328-0.844,0.701-1.16,1.178c-0.25,0.374-0.439,0.789-0.568,1.218
	c-0.141,0.467-0.195,0.958-0.248,1.441c-0.042,0.389-0.026,0.773,0.02,1.162c0.058,0.511,0.207,0.999,0.415,1.466
	c0.185,0.413,0.495,0.789,0.821,1.097c0.747,0.707,1.609,1.264,2.571,1.631c0.793,0.302,1.621,0.483,2.468,0.544
	c0.511,0.036,1.023,0.028,1.534,0.03c0.232,0.002,0.465,0.004,0.697,0.004c0.186-0.002,0.373-0.009,0.56-0.002
	c0.114,0.062,0.227,0.13,0.34,0.191c0.148,0.079,0.286,0.172,0.421,0.269c0.012,0.01,0.024,0.02,0.036,0.031
	c0.06,0.048,0.121,0.081,0.182,0.117c0.029,0.038,0.044,0.083,0.082,0.114c1.696,1.425,3.549,2.644,5.306,3.984
	c0.245,0.193,0.487,0.388,0.732,0.58c0.155,0.123,0.312,0.248,0.467,0.374c0.125,0.1,0.257,0.199,0.376,0.31
	c0.1,0.166,0.263,0.27,0.441,0.331c0.128,0.072,0.266,0.124,0.415,0.124c0.481,0,0.848-0.391,0.862-0.862
	c0.024-0.826,0.012-1.653,0.02-2.48c0.008-0.848,0.028-1.697,0.028-2.547c0-1.742,0.006-3.487,0.034-5.231
	c0.056-3.573,0.004-7.147-0.02-10.719C20.829,5.784,20.824,5.428,20.818,5.072z M14.46,22.002c-0.369-0.303-0.734-0.608-1.097-0.917
	c-0.012-0.01-0.025-0.015-0.037-0.024c-0.042-0.095-0.095-0.186-0.171-0.263c-0.229-0.23-0.477-0.443-0.751-0.618
	c-0.232-0.149-0.453-0.3-0.713-0.401c-0.248-0.095-0.531-0.081-0.793-0.079c-0.221,0-0.441,0-0.662,0.004
	c-0.81,0.011-1.63,0.063-2.437-0.025c-0.525-0.084-1.035-0.216-1.535-0.403c-0.42-0.196-0.82-0.441-1.193-0.717
	c-0.278-0.229-0.547-0.471-0.781-0.744c-0.096-0.14-0.181-0.285-0.255-0.438c-0.089-0.248-0.158-0.502-0.209-0.761
	c-0.036-0.39-0.025-0.773,0.017-1.163c0.052-0.335,0.126-0.662,0.238-0.983c0.111-0.227,0.24-0.443,0.385-0.649
	c0.133-0.152,0.273-0.291,0.425-0.422c0.449-0.313,0.917-0.581,1.413-0.808c0.652-0.241,1.326-0.395,2.013-0.5
	c0.597-0.065,1.194-0.081,1.794-0.101c0.701-0.024,1.405-0.024,2.108-0.034c0.163-0.003,0.31-0.059,0.445-0.135
	c0.217-0.002,0.433-0.083,0.596-0.245c0.56-0.56,1.095-1.142,1.663-1.693c0.54-0.523,1.109-1.019,1.681-1.508
	c0.572-0.489,1.164-0.952,1.717-1.466c0.245-0.23,0.5-0.448,0.755-0.669c0.018,0.598,0.039,1.197,0.043,1.795
	c0.006,0.85-0.012,1.703-0.016,2.555c-0.008,1.81,0.008,3.62-0.004,5.428c-0.01,1.749-0.034,3.495-0.03,5.243
	c0.003,1.362-0.003,2.723-0.011,4.084c-0.002-0.001-0.004-0.003-0.005-0.004C17.554,24.183,15.967,23.15,14.46,22.002z
	 M18.881,25.208c0.057,0.044,0.114,0.089,0.172,0.134c0,0,0.001,0.001,0.001,0.001C18.996,25.297,18.939,25.254,18.881,25.208z
	 M17.732,16.879c-0.022,1.184-0.073,2.374,0.012,3.558c0.032,0.451-0.403,0.831-0.833,0.831c-0.219,0-0.433-0.087-0.588-0.244
	c-0.165-0.165-0.225-0.36-0.242-0.586c-0.05-0.576,0.002-1.162,0.02-1.739c0.02-0.624,0.032-1.248,0.05-1.872
	c0.038-1.296,0.006-2.589,0.008-3.885c0.002-0.447,0.375-0.823,0.825-0.823c0.445,0,0.828,0.375,0.823,0.823
	C17.791,14.256,17.758,15.567,17.732,16.879z M29.725,19.214c0.167,0.139,0.252,0.395,0.252,0.606c0,0.227-0.091,0.445-0.252,0.606
	c-0.161,0.161-0.379,0.252-0.606,0.252c-0.238,0-0.431-0.097-0.606-0.252c-0.109-0.095-0.201-0.217-0.294-0.326
	c-0.129-0.151-0.254-0.304-0.383-0.457c-0.605-0.722-1.216-1.438-1.826-2.156c-0.401,0.406-0.808,0.808-1.198,1.223
	c-0.572,0.612-1.101,1.262-1.643,1.898c-0.294,0.346-0.872,0.302-1.172,0c-0.155-0.155-0.244-0.368-0.244-0.586
	c0-0.23,0.095-0.415,0.244-0.586c0.262-0.302,0.53-0.6,0.803-0.894c0.527-0.568,1.049-1.135,1.596-1.683
	c0.195-0.195,0.383-0.395,0.576-0.591c-0.21-0.24-0.424-0.474-0.638-0.709c-0.274-0.3-0.536-0.61-0.817-0.906
	c-0.523-0.556-1.057-1.105-1.546-1.689c-0.143-0.171-0.238-0.344-0.238-0.574c0-0.213,0.087-0.421,0.238-0.572
	s0.36-0.238,0.572-0.238c0.197,0,0.445,0.082,0.574,0.238c0.262,0.32,0.517,0.648,0.797,0.952c0.523,0.566,1.051,1.125,1.57,1.691
	c0.203,0.221,0.393,0.451,0.59,0.677c0.459-0.48,0.933-0.946,1.395-1.423c0.383-0.395,0.793-0.765,1.168-1.166
	c0.147-0.157,0.351-0.232,0.556-0.232c0.211,0,0.424,0.08,0.577,0.232c0.304,0.306,0.312,0.827,0,1.133
	c-0.171,0.165-0.336,0.338-0.503,0.507c-0.435,0.437-0.88,0.864-1.315,1.303c-0.281,0.283-0.555,0.571-0.831,0.857
	c0.155,0.188,0.308,0.378,0.471,0.557c0.244,0.27,0.491,0.538,0.731,0.813c0.232,0.262,0.469,0.521,0.701,0.783
	c0.135,0.151,0.278,0.292,0.417,0.437C29.533,19.031,29.624,19.128,29.725,19.214z"/>
</svg>