<?xml version="1.0" encoding="utf-8"?>
<!-- Generator: Adobe Illustrator 21.1.0, SVG Export Plug-In . SVG Version: 6.00 Build 0)  -->
<svg version="1.1" id="designs" xmlns="http://www.w3.org/2000/svg" xmlns:xlink="http://www.w3.org/1999/xlink" x="0px" y="0px"
	 width="32px" height="32px" viewBox="0 0 32 32" style="enable-background:new 0 0 32 32;" xml:space="preserve">
<style type="text/css">
	.sketchy_een{fill:#111918;}
</style>
<path class="sketchy_een" d="M29.856,11.967c0.051-0.731,0.065-1.467,0.081-2.2C29.958,8.855,29.99,7.944,30,7.033
	c0.005-0.377-0.262-0.691-0.608-0.797c-0.118-0.083-0.256-0.152-0.396-0.152c-0.014,0-0.028,0-0.042,0.002
	c-0.512,0.045-1.028,0.043-1.544,0.043c-0.394,0.001-0.789,0-1.183,0c0.015-0.544,0.029-1.089,0.049-1.633
	c0.018-0.506,0.055-1.01,0.095-1.514c0.036-0.446-0.387-0.816-0.808-0.837c-0.101-0.042-0.21-0.066-0.329-0.077
	c-0.431-0.04-0.868-0.04-1.301-0.043c-0.18-0.001-0.361-0.002-0.542-0.002c-0.293,0-0.585,0.001-0.877,0.004
	c-0.445,0.004-0.89,0.002-1.334,0c-0.538-0.002-1.077-0.004-1.617,0.002c-0.478,0.006-0.876,0.394-0.876,0.876
	c0,0.181,0.073,0.346,0.174,0.491c0.075,0.817,0.134,1.637,0.167,2.457c0.001,0.028,0.001,0.055,0.002,0.083
	c-0.639-0.007-1.279-0.005-1.919-0.021c-0.824-0.024-1.651-0.008-2.477-0.006c-1.627,0.006-3.256-0.006-4.883-0.02
	c-0.33-0.003-0.66-0.006-0.99-0.006c-0.587,0-1.174,0.01-1.761,0.053C6.774,5.951,6.578,6.012,6.414,6.176
	c-0.061,0.061-0.102,0.136-0.14,0.211C6.268,6.394,6.258,6.396,6.252,6.402C6.099,6.555,5.967,6.81,5.991,7.033
	c0.101,0.962,0.176,1.923,0.206,2.892c0.026,0.83,0.006,1.658-0.022,2.489c-0.03,0.903-0.059,1.807-0.065,2.71
	c-0.006,0.834-0.034,1.668-0.044,2.503c-0.003,0.272-0.002,0.546-0.005,0.819c-0.137-0.007-0.273-0.008-0.416-0.006
	c-0.255,0.002-0.51-0.012-0.765-0.02c-0.579-0.02-1.158-0.034-1.74-0.034c-0.276,0.001-0.512,0.151-0.661,0.365
	c-0.271,0.145-0.46,0.425-0.468,0.752c-0.014,0.516-0.014,1.03-0.006,1.546c0.004,0.474,0.038,0.949,0.051,1.423
	c0.026,0.862,0.022,1.726,0.024,2.587c0,0.441,0.368,0.811,0.809,0.811c0.149,0,0.285-0.055,0.408-0.129
	c0.48,0.005,0.959,0.003,1.437,0.012c0.463,0.008,0.923,0.049,1.386,0.055c0.025,0,0.046-0.012,0.07-0.014
	c0.008,0.623,0.018,1.245,0.014,1.869c-0.002,0.35,0.008,0.706-0.022,1.058c-0.005,0.056,0.017,0.105,0.027,0.158
	c-0.027,0.082-0.052,0.166-0.052,0.255c0,0.457,0.383,0.848,0.844,0.844c0.884-0.008,1.767-0.042,2.653-0.038
	c0.31,0.002,0.623,0,0.933-0.002c0.469-0.004,0.935-0.006,1.404,0.002c0.441,0.01,0.809-0.374,0.809-0.809
	c0-0.008-0.005-0.016-0.005-0.023c0.049-0.104,0.081-0.215,0.085-0.335c0.01-0.297-0.014-0.593-0.02-0.89
	c-0.006-0.37-0.012-0.739-0.014-1.109c-0.002-0.274-0.002-0.548-0.004-0.822c1.577-0.023,3.154-0.011,4.73-0.046
	c1.589-0.034,3.179-0.071,4.77-0.065c0.304,0.002,0.613-0.002,0.919-0.004c0.585-0.008,1.172-0.014,1.755,0.012
	c0.14,0.006,0.266-0.041,0.382-0.108c0.052,0.009,0.101,0.031,0.155,0.031c0.469,0,0.927-0.409,0.899-0.899
	c-0.004-0.065-0.01-0.132-0.016-0.198c0-0.141-0.031-0.271-0.09-0.395c-0.05-0.612-0.095-1.228-0.105-1.839
	c-0.012-0.866,0.024-1.734,0.042-2.6c0.016-0.828,0.047-1.652,0.038-2.481c-0.01-0.84-0.034-1.68-0.077-2.521
	c-0.031-0.56-0.038-1.122-0.046-1.684c1.006-0.026,2.014-0.044,3.019-0.007c0.417,0.014,0.763-0.358,0.763-0.763
	c0-0.153-0.054-0.282-0.129-0.396C29.851,11.982,29.855,11.975,29.856,11.967z M12.78,19.149c-0.011-0.952-0.017-1.904-0.01-2.858
	c0.009-1.102,0.042-2.204,0.057-3.305c0.47,0.008,0.94,0.007,1.41,0.002c0.413-0.002,0.824-0.006,1.237-0.002
	c1.204,0.015,2.411,0.043,3.615,0.015c-0.003,0.125-0.002,0.25-0.006,0.375c-0.034,0.984-0.051,1.967-0.065,2.951
	c-0.014,0.959-0.008,1.917-0.016,2.876c0,0.012,0.007,0.023,0.007,0.035c-0.378,0.008-0.756,0.017-1.133,0.02
	c-0.591,0.004-1.182,0.006-1.773,0.002c-0.595-0.002-1.192-0.002-1.785-0.034C13.806,19.201,13.294,19.169,12.78,19.149z
	 M4.76,24.112c-0.357-0.025-0.716-0.031-1.075-0.042c-0.008-0.523-0.018-1.046-0.023-1.571c-0.008-0.823,0.018-1.647,0.05-2.471
	c0.371-0.003,0.741-0.008,1.111-0.008c0.263,0,0.526-0.002,0.787,0.012c0.147,0.008,0.295,0.023,0.442,0.032
	c0.002,0.958,0.017,1.916,0.069,2.872c0.023,0.417,0.024,0.835,0.034,1.252c-0.012-0.001-0.023-0.007-0.035-0.008
	C5.665,24.167,5.215,24.144,4.76,24.112z M9.654,28.312c-0.614,0.004-1.227-0.007-1.84-0.015c-0.005-0.57,0-1.141,0.002-1.71
	c0.004-0.812-0.016-1.625-0.034-2.438c-0.018-0.846-0.071-1.688-0.091-2.532c-0.022-0.86-0.016-1.722-0.014-2.582
	c0-0.899,0.02-1.799,0.043-2.698c0.026-0.874,0.028-1.748,0.065-2.621c0.038-0.84,0.087-1.677,0.103-2.517
	c0.014-0.858,0.032-1.72-0.008-2.578C7.864,8.256,7.835,7.894,7.807,7.53c0.584-0.041,1.168-0.074,1.754-0.081
	c0.846-0.012,1.694-0.016,2.542-0.02c1.623-0.006,3.246-0.008,4.869,0c0.401,0.002,0.803,0.01,1.204,0.022
	c0.294,0.008,0.589,0.015,0.883,0.022c0.004,0.33,0.015,0.66,0.019,0.989c0.01,0.807,0.016,1.611,0.02,2.417
	c0.001,0.165,0.001,0.329,0.003,0.494c-1.191,0.031-2.383,0.044-3.572,0.035c-1.299-0.014-2.598-0.042-3.892-0.154
	c-0.019-0.002-0.038-0.002-0.056-0.002c-0.433,0-0.786,0.433-0.786,0.842c0,0.224,0.089,0.439,0.247,0.595
	c0.044,0.044,0.096,0.064,0.144,0.095c0.004,1.695,0.041,3.389,0.061,5.082c0.018,1.605,0.067,3.21,0.077,4.813
	c0.011,1.881,0,3.76-0.04,5.639c-0.121-0.002-0.242-0.001-0.362-0.002C10.498,28.313,10.077,28.31,9.654,28.312z M22.698,24.284
	c-0.809,0.008-1.615,0.016-2.424,0.025c-1.599,0.022-3.198,0.105-4.798,0.081c-0.882-0.012-1.761-0.044-2.642-0.047
	c-0.001-1.202-0.022-2.402-0.04-3.604c1.103,0.009,2.206,0.027,3.309,0.027c1.164,0,2.329,0.002,3.493,0.016
	c0.423,0.004,0.777-0.358,0.777-0.777c0-0.084-0.023-0.163-0.05-0.24c0.155-0.144,0.256-0.342,0.245-0.562
	c-0.016-0.35-0.004-0.702-0.004-1.054c-0.002-0.366,0.002-0.731,0.004-1.097c0.002-0.763,0-1.526,0.01-2.287
	c0.01-0.791,0.045-1.58,0.045-2.368c0-0.811-0.004-1.621,0-2.432c0.006-1.099,0.022-2.196,0.026-3.295
	c0.002-0.974-0.009-1.95-0.068-2.923c0.636-0.021,1.272-0.044,1.909-0.061c0.47-0.012,0.941-0.014,1.409-0.016
	c0.254-0.002,0.507,0.007,0.76,0.016c-0.018,0.67-0.017,1.341-0.01,2.011c0.008,0.87-0.038,1.74-0.057,2.609
	c-0.018,0.868-0.006,1.736-0.006,2.604c0.002,0.868,0.038,1.734,0.055,2.602c0.016,0.842,0.057,1.684,0.079,2.528
	c0.02,0.84,0.014,1.682-0.012,2.522c-0.024,0.828-0.045,1.656-0.071,2.485c-0.026,0.82-0.036,1.639,0,2.459
	c0.012,0.249,0.019,0.498,0.03,0.747C24.011,24.256,23.355,24.277,22.698,24.284z M26.248,11.532c-0.027,0-0.054,0-0.08,0
	c-0.008-0.628-0.008-1.256-0.009-1.885c-0.002-0.675,0.014-1.348,0.032-2.022c0.709-0.012,1.418-0.018,2.127-0.007
	c0.013,1.327,0.047,2.653,0.036,3.979C27.652,11.566,26.95,11.532,26.248,11.532z"/>
</svg>