<?xml version="1.0" encoding="utf-8"?>
<!-- Generator: Adobe Illustrator 21.1.0, SVG Export Plug-In . SVG Version: 6.00 Build 0)  -->
<svg version="1.1" id="designs" xmlns="http://www.w3.org/2000/svg" xmlns:xlink="http://www.w3.org/1999/xlink" x="0px" y="0px"
	 width="32px" height="32px" viewBox="0 0 32 32" style="enable-background:new 0 0 32 32;" xml:space="preserve">
<style type="text/css">
	.sketchy_een{fill:#111918;}
</style>
<path class="sketchy_een" d="M15.201,24.926c-0.012-1.526-0.063-3.051-0.057-4.577c0.004-1.031,0.006-2.06,0-3.09
	c-0.008-1.136,0.053-2.275,0.065-3.411c0.006-0.434-0.366-0.796-0.796-0.796c-0.072,0-0.137,0.023-0.204,0.042
	c-0.129-0.095-0.28-0.162-0.451-0.169c-0.079-0.003-0.158-0.006-0.237-0.01c-0.005-0.107-0.003-0.215-0.007-0.321
	c-0.016-0.381-0.033-0.763-0.051-1.144c-0.012-0.249-0.13-0.465-0.307-0.615c-0.08-0.149-0.203-0.27-0.357-0.342
	c-0.002-0.054,0.002-0.107-0.001-0.161c-0.006-0.162-0.025-0.325-0.035-0.487c-0.01-0.196-0.006-0.389-0.016-0.585
	c-0.029-0.688-0.049-1.377-0.053-2.067c-0.004-0.735-0.01-1.475-0.022-2.212c-0.006-0.366-0.025-0.73-0.068-1.094
	c-0.018-0.149-0.037-0.297-0.059-0.446c-0.016-0.117-0.025-0.239-0.072-0.35c-0.084-0.205-0.172-0.362-0.329-0.524
	c-0.086-0.09-0.192-0.158-0.291-0.231c-0.084-0.063-0.186-0.108-0.282-0.151c-0.241-0.111-0.432-0.164-0.7-0.184
	C10.851,2.001,10.83,2,10.81,2c-0.091,0-0.182,0.012-0.273,0.024c-0.198,0.022-0.395,0.043-0.589,0.088
	C9.356,2.245,8.873,2.671,8.45,3.088c-0.309,0.305-0.577,0.64-0.833,0.99C7.406,4.365,7.191,4.648,7.009,4.955
	C6.618,5.613,6.348,6.34,6.15,7.076C6,7.643,5.953,8.22,5.919,8.803c-0.016,0.27-0.039,0.54-0.041,0.81
	c-0.002,0.271,0.007,0.543,0.016,0.815c-0.063,0.039-0.124,0.079-0.174,0.135c-0.26,0.137-0.454,0.399-0.442,0.705
	c0.021,0.513,0.046,1.025,0.071,1.538c-0.009,0.001-0.018,0.004-0.027,0.005c-0.129-0.082-0.271-0.141-0.42-0.141
	c-0.452,0-0.769,0.362-0.794,0.794c-0.047,0.796-0.033,1.588-0.053,2.384c-0.016,0.71-0.031,1.418-0.006,2.13
	c0.014,0.336,0.037,0.673,0.037,1.011s0.012,0.677,0.014,1.015c0.002,0.737-0.014,1.477-0.025,2.212
	c-0.014,1.086-0.018,2.169-0.018,3.253c-0.002,0.978,0.023,1.958-0.041,2.934c-0.007,0.041-0.024,0.079-0.024,0.121
	c0,0.458,0.368,0.788,0.808,0.808c0.89,0.043,1.778,0.037,2.668,0.051c0.362,0.006,0.722-0.01,1.084-0.027
	c0.362-0.016,0.724-0.031,1.087-0.027c0.62,0.01,1.24,0.035,1.86,0.037c0.379,0,0.761,0.002,1.14,0.012
	c0.293,0.01,0.587,0.035,0.878,0.051c0.117,0.008,0.235,0.01,0.35,0.014c0.085,0.003,0.163-0.022,0.24-0.046
	c0.117,0.075,0.249,0.131,0.406,0.131c0.411,0,0.812-0.358,0.786-0.786c-0.033-0.591-0.025-1.181-0.045-1.772
	C15.234,26.287,15.205,25.606,15.201,24.926z M6.903,11.883c0.386,0.002,0.772,0.006,1.157,0.001c0.501-0.006,1,0.045,1.5,0.047
	c0.215,0.002,0.43,0,0.643-0.004c0.288-0.002,0.573-0.006,0.861-0.002c0.195,0.003,0.389,0.006,0.583,0.01
	c0.071,0.045,0.147,0.075,0.231,0.094c0.011,0.188,0.02,0.376,0.032,0.564c0.005,0.088,0.008,0.175,0.014,0.263
	c-0.026-0.001-0.052-0.001-0.078-0.003c-0.299-0.02-0.599-0.037-0.898-0.043c-0.176-0.002-0.35,0-0.526,0
	c-0.153,0.002-0.305,0.002-0.458,0c-0.334-0.004-0.669-0.002-1.001-0.002c-0.307,0.002-0.614,0.002-0.919-0.002
	c-0.377-0.004-0.755-0.006-1.133-0.011C6.913,12.492,6.908,12.188,6.903,11.883z M5.593,24.376
	c-0.004-0.689-0.008-1.378-0.009-2.067c-0.002-0.749,0.033-1.498,0.035-2.247c0.002-0.512-0.002-1.019-0.018-1.53
	c-0.014-0.526-0.029-1.052-0.027-1.576c0-0.877,0.032-1.753,0.078-2.628c0.798-0.009,1.597-0.023,2.393-0.038
	c0.642-0.012,1.281,0.041,1.921,0.047c0.329,0.004,0.655,0.018,0.984,0.02c0.153,0.002,0.305-0.002,0.456,0.008
	c0.149,0.008,0.293,0.029,0.442,0.039c0.589,0.038,1.182,0.012,1.77,0.053c0.002,1.413,0.01,2.827-0.024,4.24
	c-0.02,0.757-0.01,1.514-0.01,2.273c0,0.776,0.031,1.551,0.043,2.329c0.007,0.438,0.008,0.876,0.012,1.314
	c-0.04-0.006-0.076-0.024-0.117-0.023c-0.272,0.004-0.546-0.004-0.818-0.016c-0.315-0.014-0.628-0.01-0.943-0.01
	c-0.583-0.002-1.166-0.008-1.749-0.006c-0.37,0.002-0.737-0.006-1.107-0.014c-0.368-0.008-0.737-0.018-1.105-0.016
	C7.065,24.53,6.325,24.453,5.593,24.376z M7.453,8.097c0.085-0.524,0.235-1.034,0.433-1.525c0.13-0.291,0.273-0.576,0.439-0.847
	C8.473,5.48,8.648,5.252,8.823,5.025C8.816,5.034,8.809,5.043,8.802,5.051c0.022-0.028,0.043-0.056,0.065-0.083
	C8.874,4.959,8.881,4.95,8.888,4.941C8.884,4.946,8.88,4.952,8.876,4.957c0.16-0.204,0.323-0.405,0.511-0.584
	c0.141-0.136,0.29-0.266,0.444-0.39c0.106-0.079,0.214-0.158,0.33-0.222c0.066-0.02,0.133-0.036,0.201-0.047
	c0.136-0.015,0.273-0.028,0.408-0.024c0.017,0.004,0.033,0.008,0.049,0.013c0.03,0.015,0.059,0.031,0.088,0.047
	c0.033,0.143,0.05,0.29,0.069,0.435c0.067,0.581,0.074,1.167,0.079,1.753c0.008,0.628,0.027,1.256,0.035,1.882
	c0.01,0.865,0.087,1.726,0.139,2.589c-0.036-0.001-0.072,0.001-0.108,0c-0.503-0.01-1.007-0.012-1.512-0.002
	c-0.508,0.01-1.017-0.021-1.526-0.035c-0.224-0.006-0.447-0.017-0.671-0.025C7.392,9.987,7.367,9.628,7.377,9.27
	C7.388,8.879,7.412,8.485,7.453,8.097z M12.961,27.759c-0.352-0.016-0.708,0-1.06,0.004c-0.628,0.006-1.258-0.01-1.887-0.027
	c-0.71-0.021-1.426,0.065-2.138,0.082c-0.765,0.017-1.53-0.017-2.294-0.061c0.01-0.382,0.014-0.764,0.014-1.149
	c-0.001-0.198-0.001-0.395-0.001-0.593c0.733,0.062,1.471,0.097,2.206,0.095c0.737-0.004,1.475,0.02,2.212,0.039
	c0.201,0.006,0.405,0.006,0.606,0.004c0.115,0,0.231,0,0.348,0c0.266,0.004,0.53,0.014,0.794,0.014
	c0.587-0.002,1.174,0.039,1.76,0.055c0.053,0.001,0.1-0.02,0.15-0.029c0,0.002,0,0.004,0,0.006c0.02,0.473,0.029,0.945,0.037,1.418
	c0.001,0.061,0.003,0.122,0.003,0.183C13.461,27.789,13.211,27.769,12.961,27.759z M27.909,27.375
	c-0.035-0.655-0.043-1.314-0.041-1.968c0.002-0.671-0.02-1.342-0.033-2.013c-0.012-0.649-0.02-1.299-0.025-1.948
	c-0.002-0.383-0.02-0.767-0.014-1.15c0.006-0.389,0.008-0.779-0.01-1.168c-0.018-0.395-0.051-0.79-0.076-1.185
	c-0.037-0.575-0.08-1.144-0.164-1.715c-0.007-0.052-0.025-0.105-0.05-0.155c0.023-0.074,0.045-0.15,0.045-0.228
	c0-0.207-0.082-0.407-0.229-0.553c-0.158-0.158-0.336-0.205-0.552-0.229c-0.561-0.059-1.134-0.047-1.698-0.07
	c-0.761-0.033-1.52-0.051-2.283-0.066c-0.733-0.016-1.469-0.021-2.202-0.045c-0.765-0.026-1.528-0.076-2.29-0.098
	c-0.301-0.008-0.6-0.016-0.9-0.021c-0.004,0-0.009,0-0.013,0c-0.417,0-0.763,0.363-0.763,0.777c0,0.21,0.087,0.4,0.225,0.54
	c-0.001,0.015-0.009,0.027-0.008,0.042c0.012,0.853,0.004,1.702-0.037,2.554c-0.039,0.755-0.033,1.514-0.033,2.267
	c0,1.469,0,2.936,0.014,4.403c0.006,0.626-0.002,1.254-0.002,1.88c0.002,0.286-0.004,0.569-0.006,0.855
	c-0.002,0.268,0.002,0.538-0.031,0.806c-0.025,0.201,0.104,0.44,0.241,0.577c0.088,0.089,0.198,0.147,0.315,0.188
	c0.1,0.044,0.21,0.073,0.325,0.081c1.617,0.109,3.237,0.062,4.856,0.1c0.722,0.016,1.44,0.067,2.159,0.119
	c0.36,0.027,0.72,0.035,1.082,0.045c0.405,0.01,0.792,0.018,1.195-0.043c0.004-0.001,0.008-0.005,0.012-0.006
	c0.073,0.02,0.143,0.046,0.223,0.046c0.229,0,0.45-0.092,0.61-0.254c0.151-0.149,0.274-0.393,0.254-0.61
	C27.95,28.545,27.943,27.958,27.909,27.375z M22.141,16.385c0.726,0.014,1.451,0.043,2.177,0.063
	c0.511,0.015,1.023,0.026,1.534,0.063c0.003,0.06-0.001,0.118,0.01,0.182c0.016,0.091,0.03,0.182,0.045,0.272
	c0.082,0.719,0.107,1.44,0.12,2.165c0.012,0.702,0.008,1.398,0.063,2.099c0.051,0.651,0.039,1.309,0.057,1.962
	c0.017,0.575,0.035,1.149,0.038,1.723c-0.287,0.028-0.576,0.037-0.863,0.031c-0.334-0.004-0.669,0-1.003,0
	c-0.735,0-1.469-0.018-2.204-0.016c-0.626,0.002-1.25,0.031-1.876,0.039c-0.401,0.006-0.802,0.006-1.201,0.004
	c-0.226,0-0.452,0.002-0.677,0.002c0-0.167,0.001-0.334,0-0.502c-0.012-1.475,0.016-2.949,0.008-4.424
	c-0.004-0.606,0.004-1.215,0.031-1.821c0.03-0.634,0.062-1.267,0.068-1.903c0.485,0.005,0.97,0.012,1.454,0.012
	C20.66,16.336,21.401,16.371,22.141,16.385z M25.67,28.417c-0.366-0.002-0.733-0.002-1.099-0.02
	c-0.336-0.016-0.671-0.057-1.007-0.078c-0.364-0.025-0.73-0.045-1.093-0.051c-0.765-0.012-1.528-0.004-2.29-0.029
	c-0.606-0.022-1.211-0.067-1.816-0.109c-0.002-0.09-0.002-0.181-0.002-0.27c-0.004-0.358-0.006-0.716-0.004-1.076
	c0-0.09,0-0.181,0-0.271c0.612-0.017,1.224-0.035,1.837-0.029c0.618,0.006,1.236,0.006,1.854,0.006c0.383,0,0.763,0.02,1.144,0.029
	c0.358,0.01,0.718,0.008,1.078,0.006c0.336,0,0.675,0.006,1.011,0c0.143,0,0.286,0,0.43,0.002c0.165,0.002,0.33,0.002,0.495-0.002
	c0.005,0.252,0.011,0.503,0.006,0.755c-0.006,0.315,0.021,0.626,0.035,0.941c0.002,0.062,0.004,0.125,0.006,0.187
	C26.06,28.414,25.865,28.417,25.67,28.417z M8.876,4.957C8.858,4.98,8.841,5.003,8.823,5.025c0.015-0.019,0.03-0.038,0.044-0.057
	C8.87,4.964,8.873,4.961,8.876,4.957z"/>
</svg>