<?xml version="1.0" encoding="utf-8"?>
<!-- Generator: Adobe Illustrator 21.1.0, SVG Export Plug-In . SVG Version: 6.00 Build 0)  -->
<svg version="1.1" id="designs" xmlns="http://www.w3.org/2000/svg" xmlns:xlink="http://www.w3.org/1999/xlink" x="0px" y="0px"
	 width="32px" height="32px" viewBox="0 0 32 32" style="enable-background:new 0 0 32 32;" xml:space="preserve">
<style type="text/css">
	.sketchy_een{fill:#111918;}
</style>
<path class="sketchy_een" d="M11.165,30c-0.18,0-0.36-0.007-0.539-0.014c-0.432-0.02-0.8-0.036-1.162-0.084l-0.118-0.015
	c-0.342-0.043-0.695-0.088-0.979-0.291c-0.244-0.175-0.409-0.407-0.44-0.618c-0.032-0.182-0.048-0.272-0.039-0.355
	c0.012-0.109,0.023-0.217,0.043-0.325c0.068-0.364,0.168-0.727,0.269-1.081c0.219-0.756,0.473-1.503,0.731-2.245
	c0.335-0.967,0.762-1.968,1.268-2.977l-0.235-0.003l-0.171,0.066c-0.42,0.155-0.794,0.25-1.176,0.296
	c-0.23,0.028-0.459,0.039-0.689,0.039c-0.151,0-0.302-0.004-0.453-0.011c-0.4-0.019-0.841-0.092-1.346-0.223
	c-0.455-0.118-0.868-0.323-1.212-0.509c-0.152-0.082-0.295-0.18-0.438-0.277c-0.37-0.254-0.604-0.443-0.777-0.623
	c-0.226-0.238-0.43-0.492-0.626-0.755c-0.117-0.158-0.207-0.278-0.28-0.409c-0.139-0.254-0.28-0.526-0.347-0.804
	c-0.109-0.455-0.161-0.843-0.158-1.185c0.004-0.375,0.056-0.737,0.105-1.042c0.078-0.463,0.234-0.876,0.377-1.218
	c0.192-0.455,0.453-0.897,0.819-1.39c0.265-0.357,0.591-0.767,1.007-1.105c0.236-0.193,0.476-0.374,0.723-0.549
	c0.207-0.147,0.448-0.282,0.697-0.389l0.105-0.046c0.233-0.101,0.474-0.206,0.722-0.266c0.335-0.079,0.704-0.131,1.097-0.154
	c0.275-0.018,0.544-0.029,0.817-0.031c0.218,0,0.418,0.025,0.617,0.052l0.097,0.013l-0.055-0.104
	c-0.205-0.435-0.341-0.798-0.43-1.15C8.946,10.026,8.91,9.83,8.876,9.633C8.786,9.118,8.752,8.581,8.776,8.081
	C8.799,7.634,8.84,7.108,8.978,6.588c0.222-0.846,0.707-1.699,1.483-2.61c0.429-0.502,0.902-0.914,1.367-1.191
	c0.317-0.187,0.549-0.324,0.795-0.433c0.282-0.125,0.574-0.209,0.919-0.265c0.135-0.023,0.27-0.037,0.406-0.051l0.122-0.013
	C14.22,2.009,14.372,2,14.525,2c0.26,0,0.511,0.025,0.745,0.075c0.449,0.097,0.898,0.308,1.373,0.645
	c0.434,0.308,0.854,0.616,1.205,0.989c0.287,0.301,0.612,0.664,0.84,1.072c0.297,0.536,0.486,1.075,0.562,1.599
	c0.046,0.319,0.086,0.663,0.074,1.02c-0.006,0.154-0.016,0.31-0.025,0.465c-0.014,0.196-0.029,0.393-0.055,0.589
	c-0.042,0.331-0.096,0.659-0.165,0.984l0.398-0.106c0.259-0.126,0.46-0.224,0.659-0.33c0.35-0.184,0.747-0.393,1.17-0.499
	c0.582-0.144,1.12-0.238,1.646-0.288c0.162-0.015,0.324-0.021,0.485-0.021c0.259,0,0.516,0.016,0.774,0.039
	c0.543,0.048,1.056,0.21,1.485,0.363c0.494,0.177,0.943,0.392,1.336,0.639c0.431,0.274,0.811,0.643,1.158,1.002
	c0.154,0.16,0.294,0.331,0.433,0.502c0.157,0.194,0.333,0.413,0.458,0.642c0.172,0.313,0.296,0.592,0.379,0.854
	c0.119,0.368,0.195,0.771,0.232,1.231c0.114,1.347-0.53,2.475-1.091,3.184c-0.402,0.505-0.904,0.961-1.492,1.357
	c-0.888,0.597-2.022,0.969-3.278,1.078c-0.327,0.029-0.654,0.045-0.98,0.045l-0.164-0.001l0.018,0.201
	c0.085,0.173,0.171,0.346,0.24,0.523c0.127,0.312,0.225,0.578,0.29,0.86c0.156,0.678,0.195,1.292,0.121,1.876
	c-0.052,0.417-0.122,0.763-0.218,1.09c-0.093,0.315-0.216,0.645-0.375,1.01c-0.181,0.415-0.35,0.787-0.565,1.139
	c-0.336,0.544-0.774,0.986-1.266,1.28c-0.306,0.18-0.632,0.309-0.996,0.446c-0.62,0.236-1.14,0.371-1.635,0.425
	c-0.172,0.019-0.345,0.028-0.519,0.028c-0.773,0-1.537-0.181-2.209-0.522c-0.482-0.245-0.97-0.628-1.451-1.138
	c-0.284-0.3-0.577-0.625-0.767-1.007l-0.068-0.136l-0.065,0.061l-0.047,0.269c-0.069,0.393-0.139,0.786-0.198,1.18
	c-0.024,0.18-0.041,0.319-0.054,0.459c-0.039,0.43-0.055,0.856-0.061,1.288l-0.008,0.327c-0.004,0.127-0.02,0.26-0.041,0.38
	c-0.017,0.098-0.055,0.184-0.096,0.276c-0.07,0.156-0.237,0.301-0.332,0.356c-0.06,0.034-0.212,0.098-0.29,0.114
	c-0.135,0.025-0.274,0.044-0.41,0.058C11.513,29.994,11.339,30,11.165,30z M12.721,20.302c-0.388,0.63-0.745,1.211-1.055,1.806
	c-0.309,0.589-0.595,1.187-0.866,1.793c-0.281,0.682-0.551,1.431-0.851,2.36c-0.234,0.725-0.438,1.381-0.568,2.068
	c0.434,0.1,0.825,0.119,1.214,0.128l0.423,0.006l0.338-0.005l0-0.264l0.008-0.217c0.012-0.285,0.039-0.567,0.069-0.852
	c0.062-0.621,0.164-1.238,0.266-1.856l0.17-1.064c0.045-0.294,0.09-0.587,0.143-0.881c0.07-0.39,0.166-0.773,0.278-1.153
	c0,0,0.427-1.488,0.535-1.85l-0.09-0.041L12.721,20.302z M15.803,16.852c-0.155,0.282-0.311,0.565-0.442,0.857
	c-0.251,0.614-0.538,1.328-0.762,2.053c-0.134,0.431-0.256,0.865-0.378,1.3l-0.064,0.227l0.015,0.108
	c-0.047,0.559-0.081,1.158-0.018,1.757c0.061,0.34,0.161,0.701,0.308,1.106c0.102,0.212,0.211,0.411,0.341,0.602
	c0.239,0.287,0.53,0.567,0.92,0.887c0.204,0.146,0.407,0.276,0.631,0.384c0.269,0.099,0.543,0.175,0.822,0.228
	c0.105,0.009,0.205,0.012,0.304,0.012c0.159,0,0.318-0.009,0.476-0.023c0.442-0.079,0.855-0.235,1.235-0.392
	c0.279-0.126,0.572-0.264,0.846-0.45c0.136-0.118,0.261-0.238,0.375-0.368c0.261-0.386,0.453-0.803,0.623-1.196
	c0.187-0.485,0.373-1.009,0.471-1.576c0.025-0.325,0.024-0.636-0.005-0.955c-0.068-0.372-0.177-0.745-0.348-1.178
	c-0.219-0.491-0.421-0.866-0.64-1.183c-0.039-0.045-0.079-0.079-0.119-0.114l-0.091-0.073c-0.221-0.05-0.441-0.108-0.656-0.185
	c-0.503-0.181-0.992-0.406-1.446-0.622c-0.359-0.169-0.727-0.369-1.157-0.63l-0.092-0.055c-0.34-0.206-0.69-0.418-1.001-0.669
	l-0.047-0.038L15.803,16.852z M8.575,13.226c-0.31,0-0.618,0.015-0.93,0.044c-0.253,0.044-0.489,0.108-0.723,0.195
	c-0.31,0.144-0.617,0.323-0.972,0.565c-0.093,0.073-0.182,0.145-0.267,0.222C5.465,14.454,5.271,14.67,5.086,14.9
	c-0.152,0.201-0.299,0.404-0.43,0.619c-0.13,0.212-0.237,0.432-0.338,0.658c-0.112,0.296-0.191,0.607-0.258,1.009
	c-0.024,0.265-0.023,0.523,0.002,0.791c0.032,0.18,0.071,0.349,0.128,0.518c0.117,0.233,0.253,0.441,0.4,0.645
	c0.144,0.172,0.286,0.341,0.451,0.488c0.07,0.061,0.141,0.121,0.213,0.179c0.309,0.215,0.611,0.393,0.923,0.548
	c0.369,0.136,0.732,0.231,1.112,0.294c0.25,0.022,0.498,0.037,0.745,0.037c0.153,0,0.306-0.006,0.458-0.019
	c0.259-0.052,0.523-0.129,0.86-0.252c0.273-0.098,0.52-0.187,0.765-0.283c0.269-0.124,0.529-0.263,0.789-0.402l0.252-0.134
	c0.117-0.062,0.256-0.093,0.424-0.094l0.237-0.346c0.196-0.325,0.392-0.65,0.594-0.97c0.428-0.676,0.889-1.327,1.351-1.979
	l-0.291-0.268c-0.273-0.193-0.547-0.385-0.806-0.598c-0.209-0.173-0.415-0.349-0.621-0.525c-0.268-0.23-0.535-0.459-0.81-0.68
	c-0.37-0.266-0.735-0.48-1.118-0.658c-0.279-0.1-0.577-0.172-0.969-0.235C8.953,13.231,8.764,13.226,8.575,13.226z M20.57,17.126
	c0.332,0.109,0.667,0.196,0.992,0.248c0.348,0.043,0.75,0.088,1.143,0.088l0.107-0.001c0.41-0.008,0.813-0.047,1.218-0.097
	c0.448-0.086,0.884-0.214,1.338-0.391c0.294-0.135,0.583-0.305,0.912-0.538c0.181-0.148,0.343-0.28,0.487-0.43
	c0.144-0.149,0.275-0.306,0.404-0.465c0.188-0.262,0.35-0.545,0.498-0.865c0.071-0.199,0.123-0.392,0.162-0.595
	c0.018-0.198,0.016-0.388,0.001-0.583c-0.023-0.175-0.036-0.271-0.058-0.367c-0.044-0.186-0.101-0.365-0.167-0.542
	c-0.111-0.229-0.236-0.438-0.379-0.644c-0.337-0.413-0.679-0.765-1.047-1.081c-0.3-0.217-0.606-0.395-0.938-0.549
	c-0.392-0.149-0.857-0.312-1.352-0.4c-0.223-0.02-0.44-0.029-0.658-0.029c-0.23,0-0.461,0.011-0.693,0.033
	c-0.448,0.067-0.922,0.151-1.368,0.317c-0.263,0.115-0.52,0.234-0.776,0.352l-0.217,0.098c-0.217,0.097-0.435,0.194-0.644,0.305
	c-0.464,0.247-0.904,0.543-1.31,0.826c-0.132,0.259-0.254,0.496-0.374,0.734c-0.214,0.421-0.428,0.842-0.616,1.277
	c-0.15,0.352-0.306,0.699-0.468,1.044c0.17,0.229,0.293,0.355,0.433,0.475c0.621,0.454,1.29,0.839,1.973,1.19
	C19.604,16.756,20.083,16.966,20.57,17.126z M14.565,3.689c-0.218,0-0.434,0.018-0.652,0.042c-0.194,0.033-0.382,0.074-0.565,0.137
	c-0.286,0.136-0.573,0.304-0.881,0.517c-0.297,0.248-0.589,0.541-0.894,0.9c-0.296,0.4-0.55,0.819-0.757,1.248
	c-0.113,0.312-0.198,0.615-0.262,0.93c-0.064,0.614-0.068,1.227-0.012,1.825c0.068,0.409,0.151,0.733,0.263,1.025
	c0.23,0.493,0.485,0.969,0.749,1.439c0.072,0.128,0.104,0.28,0.098,0.466c0.281,0.196,0.526,0.394,0.733,0.567
	c0.166,0.139,0.332,0.279,0.494,0.426c0.384,0.351,0.724,0.661,1.084,0.951c0.293,0.22,0.594,0.423,0.896,0.626l0.099,0.067
	c0.343-0.505,0.566-1.028,0.783-1.534l0.097-0.227c0.177-0.414,0.379-0.816,0.58-1.219c0.106-0.213,0.213-0.425,0.315-0.64
	c0.029-0.114,0.069-0.192,0.131-0.271c0.377-0.905,0.598-1.654,0.719-2.376c0.056-0.508,0.11-1.173,0.044-1.833
	c-0.048-0.272-0.121-0.534-0.224-0.805c-0.109-0.231-0.236-0.443-0.382-0.648c-0.234-0.282-0.507-0.552-0.86-0.854
	c-0.288-0.215-0.629-0.458-1-0.651c-0.123-0.044-0.242-0.075-0.365-0.1C14.714,3.691,14.639,3.689,14.565,3.689z"/>
</svg>