<?xml version="1.0" encoding="utf-8"?>
<!-- Generator: Adobe Illustrator 21.1.0, SVG Export Plug-In . SVG Version: 6.00 Build 0)  -->
<svg version="1.1" id="designs" xmlns="http://www.w3.org/2000/svg" xmlns:xlink="http://www.w3.org/1999/xlink" x="0px" y="0px"
	 width="32px" height="32px" viewBox="0 0 32 32" style="enable-background:new 0 0 32 32;" xml:space="preserve">
<style type="text/css">
	.sketchy_een{fill:#111918;}
</style>
<path class="sketchy_een" d="M17.108,24.379c0.004-0.009,0.008-0.019,0.012-0.028c-0.008,0.02-0.017,0.041-0.026,0.061
	C17.099,24.401,17.104,24.39,17.108,24.379z M16.353,4.332c-0.069-0.019-0.14-0.028-0.211-0.028c-0.141,0-0.281,0.037-0.403,0.108
	c-0.35,0.206-0.532,0.732-0.284,1.088c0.217,0.312,0.418,0.631,0.58,0.974c0.076,0.208,0.13,0.418,0.17,0.637
	c0.018,0.19,0.02,0.377,0.005,0.568c-0.029,0.142-0.067,0.279-0.116,0.415c-0.363,0.775-0.781,1.529-1.072,2.336
	c-0.208,0.573-0.085,1.171,0.126,1.723c0.089,0.231,0.185,0.46,0.297,0.68c0.085,0.168,0.179,0.329,0.258,0.5
	c0.149,0.382,0.279,0.785,0.347,1.187c0.019,0.187,0.026,0.373,0.013,0.561c-0.067,0.343-0.186,0.669-0.319,0.993
	c-0.205,0.472-0.433,0.934-0.604,1.42c-0.08,0.224-0.126,0.457-0.157,0.692c-0.039,0.285-0.076,0.565-0.058,0.854
	c0.033,0.571,0.299,1.1,0.554,1.603c0.103,0.206,0.208,0.412,0.326,0.608c0.096,0.16,0.198,0.312,0.283,0.477
	c0.02,0.066,0.035,0.132,0.047,0.199c0.012,0.17,0.009,0.339-0.005,0.509c-0.048,0.273-0.124,0.533-0.224,0.792
	c-0.259,0.593-0.528,1.174-0.697,1.804c-0.076,0.284-0.148,0.569-0.2,0.859c-0.07,0.38-0.107,0.74-0.016,1.121
	c0.103,0.427,0.579,0.676,0.991,0.563c0.427-0.119,0.672-0.565,0.561-0.991c-0.003-0.011-0.006-0.021-0.008-0.032
	c-0.002-0.058,0-0.115,0.004-0.172c0.108-0.695,0.316-1.388,0.583-2.034c-0.027,0.062-0.052,0.126-0.08,0.188
	c0.017-0.04,0.034-0.081,0.051-0.122c-0.007,0.015-0.013,0.031-0.02,0.046c0.011-0.026,0.022-0.052,0.033-0.078
	c0.016-0.037,0.031-0.074,0.046-0.11c-0.011,0.027-0.022,0.054-0.034,0.082c0.164-0.378,0.348-0.757,0.446-1.158
	c0.103-0.433,0.179-0.905,0.132-1.352c-0.017-0.175-0.041-0.352-0.076-0.526c-0.035-0.165-0.122-0.324-0.2-0.474
	c-0.097-0.192-0.229-0.365-0.332-0.556c-0.177-0.33-0.341-0.666-0.492-1.008c-0.038-0.103-0.069-0.205-0.092-0.312
	c-0.008-0.163,0-0.323,0.015-0.485c0.047-0.282,0.122-0.554,0.227-0.821c0.192-0.442,0.389-0.881,0.568-1.328
	c0.218-0.542,0.357-1.111,0.313-1.697c-0.043-0.538-0.188-1.045-0.363-1.554c-0.093-0.278-0.208-0.551-0.352-0.806
	c-0.091-0.161-0.18-0.321-0.257-0.49c-0.073-0.184-0.138-0.367-0.179-0.561c-0.005-0.063-0.008-0.125-0.007-0.189
	c0.033-0.12,0.075-0.237,0.121-0.353c0.178-0.417,0.374-0.83,0.567-1.242c0.216-0.456,0.464-0.909,0.552-1.412
	c0.206-1.188-0.214-2.362-0.886-3.331C16.706,4.522,16.562,4.39,16.353,4.332z M24.532,9.751c0.025,0.76,0.025,1.527-0.002,2.286
	c-0.029,0.787-0.052,1.57-0.054,2.358c-0.002,0.802-0.021,1.604-0.035,2.407c-0.014,0.814-0.039,1.629-0.051,2.443
	c-0.01,0.761,0.004,1.523-0.006,2.284c-0.012,0.802-0.115,1.599-0.183,2.399c-0.037,0.421-0.101,0.862-0.241,1.265
	c-0.144,0.414-0.344,0.792-0.565,1.167c-0.21,0.355-0.441,0.707-0.715,1.018c-0.303,0.342-0.647,0.672-1.055,0.886
	c-0.363,0.188-0.759,0.317-1.158,0.408c-0.155,0.037-0.311,0.074-0.46,0.13c-0.118,0.047-0.237,0.089-0.361,0.121
	c-0.127,0.03-0.254,0.029-0.377,0.009c-0.165,0.27-0.352,0.527-0.587,0.737c-0.311,0.278-0.668,0.522-1.033,0.725
	c-0.377,0.206-0.773,0.408-1.189,0.524c-0.425,0.118-0.878,0.107-1.301-0.018c-0.151-0.043-0.295-0.107-0.441-0.165
	c-0.192-0.08-0.394-0.15-0.575-0.254c-0.371-0.218-0.643-0.507-0.901-0.843c-0.159-0.209-0.266-0.452-0.362-0.697
	c-0.298,0.042-0.599,0.073-0.897,0.041c-0.377-0.039-0.732-0.122-1.086-0.258c-0.4-0.155-0.75-0.355-1.078-0.633
	c-0.287-0.243-0.528-0.522-0.75-0.827c-0.188-0.261-0.377-0.525-0.544-0.802c-0.21-0.35-0.363-0.732-0.48-1.123
	c-0.111-0.369-0.245-0.736-0.315-1.115c-0.08-0.435-0.122-0.882-0.15-1.323c-0.021-0.377-0.031-0.754-0.058-1.132
	c-0.027-0.383-0.049-0.766-0.06-1.15c-0.023-0.812-0.021-1.624,0.012-2.436c0.062-1.595,0.006-3.193,0.144-4.784
	c0.068-0.796,0.095-1.591,0.083-2.391C7.692,10.233,7.77,9.473,7.871,8.707c-0.007,0.048-0.014,0.096-0.02,0.145
	c0.083-0.633,0.132-1.303,0.359-1.905c0.13-0.352,0.28-0.701,0.462-1.03C8.842,5.614,9.05,5.331,9.265,5.061
	c0.406-0.507,0.921-0.926,1.505-1.21c0.307-0.149,0.606-0.316,0.927-0.437c0.34-0.128,0.714-0.297,1.081-0.297
	c0.006,0,0.012,0,0.018,0c0.046,0.001,0.086,0.02,0.13,0.028c0.107-0.311,0.244-0.589,0.474-0.829
	c0.13-0.136,0.287-0.252,0.449-0.35c0.342-0.206,0.719-0.355,1.09-0.494c0.388-0.144,0.779-0.264,1.175-0.378
	c0.13-0.038,0.263-0.042,0.389-0.018C16.6,1.044,16.7,1.022,16.815,1.016c0.047-0.002,0.091-0.004,0.138-0.008
	C17.012,1.006,17.07,1,17.129,1c0.007,0,0.015,0,0.022,0c0.21,0.007,0.414,0.039,0.61,0.112c0.171,0.062,0.348,0.123,0.499,0.228
	c0.144,0.099,0.272,0.217,0.404,0.326c0.105,0.087,0.2,0.181,0.287,0.284c0.087,0.101,0.186,0.194,0.27,0.299
	c0.128,0.166,0.243,0.323,0.338,0.509c0.076,0.149,0.151,0.299,0.221,0.453c0.004,0.008,0.006,0.016,0.01,0.023
	c0.031-0.003,0.059-0.023,0.091-0.023c0.143,0,0.287,0.036,0.416,0.113c0.334,0.2,0.67,0.398,1.022,0.565
	c0.295,0.14,0.598,0.261,0.884,0.422c0.196,0.11,0.398,0.243,0.556,0.404c0.161,0.167,0.303,0.354,0.445,0.538
	c0.216,0.286,0.404,0.575,0.546,0.903c0.173,0.396,0.303,0.808,0.42,1.226c0.103,0.371,0.2,0.742,0.258,1.123
	C24.489,8.92,24.521,9.332,24.532,9.751z M12.024,27.352c0.153,0.011,0.305,0.004,0.458-0.008c-0.095-0.661-0.136-1.323-0.154-1.993
	c-0.021-0.76-0.023-1.521-0.039-2.281c-0.037-1.567-0.014-3.133-0.058-4.699c-0.023-0.761-0.062-1.522-0.072-2.284
	c-0.01-0.812-0.014-1.625-0.018-2.438c-0.01-1.601-0.008-3.205,0.031-4.806c0.019-0.792,0.058-1.583,0.111-2.374
	c0.032-0.496,0.099-0.994,0.183-1.487c-0.069,0.026-0.141,0.044-0.208,0.072c-0.229,0.105-0.452,0.224-0.677,0.337
	c-0.201,0.1-0.393,0.214-0.575,0.344C10.818,5.9,10.651,6.078,10.495,6.27c-0.108,0.147-0.208,0.299-0.305,0.454
	c-0.079,0.126-0.142,0.262-0.201,0.399c-0.148,0.386-0.246,0.776-0.31,1.186C9.623,8.668,9.563,9.027,9.51,9.386
	c-0.087,0.767-0.121,1.532-0.138,2.304c-0.017,0.818-0.097,1.628-0.157,2.444c-0.06,0.829-0.097,1.659-0.113,2.49
	c-0.016,0.831-0.06,1.659-0.091,2.488c-0.031,0.787-0.023,1.581,0.01,2.368c0.03,0.73,0.044,1.465,0.12,2.192
	c0.082,0.51,0.226,1.01,0.417,1.49c0.195,0.427,0.468,0.812,0.75,1.186c0.158,0.197,0.331,0.374,0.523,0.536
	c0.144,0.102,0.294,0.186,0.453,0.26C11.525,27.233,11.771,27.306,12.024,27.352z M18.529,25.974
	c0.096-0.812,0.132-1.627,0.143-2.443c0.012-0.814,0.049-1.63,0.072-2.443c0.021-0.789,0.023-1.577,0.017-2.366
	c-0.008-1.49-0.031-2.979-0.006-4.469c0.023-1.455,0.037-2.912,0.058-4.367c0.006-0.392-0.002-0.787,0.018-1.179
	c0.017-0.357,0.033-0.715,0.041-1.072c0.006-0.389,0.012-0.779,0.012-1.167c-0.002-0.348,0.003-0.698-0.029-1.043
	C18.789,4.98,18.7,4.541,18.539,4.124c-0.12-0.273-0.254-0.55-0.422-0.796c-0.137-0.159-0.291-0.314-0.453-0.448
	c-0.062-0.047-0.124-0.095-0.185-0.143c-0.029-0.02-0.058-0.038-0.089-0.055c-0.067-0.024-0.134-0.046-0.202-0.063
	c-0.088-0.001-0.175,0.005-0.263,0.011c-0.034,0.012-0.068,0.022-0.102,0.031c-0.074,0.05-0.157,0.09-0.247,0.115
	c-0.469,0.133-0.943,0.254-1.398,0.431c-0.178,0.083-0.353,0.173-0.516,0.281c-0.013,0.012-0.025,0.024-0.038,0.037
	c-0.026,0.043-0.049,0.087-0.071,0.132c-0.147,0.389-0.266,0.786-0.366,1.19c-0.089,0.362-0.144,0.73-0.196,1.098
	c-0.039,0.337-0.06,0.675-0.082,1.013c-0.029,0.431-0.058,0.865-0.078,1.298c-0.07,1.604-0.039,3.21-0.047,4.815
	c-0.002,0.824,0.002,1.647,0,2.471c0,0.748,0.039,1.494,0.047,2.24c0.012,1.575-0.012,3.151,0.025,4.726
	c0.017,0.763,0.017,1.528,0.033,2.294c0.015,0.699,0.023,1.408,0.101,2.104c0.071,0.485,0.178,0.972,0.356,1.431
	c0.054,0.115,0.113,0.225,0.184,0.33c0.083,0.099,0.173,0.192,0.27,0.277c0.077,0.051,0.158,0.095,0.242,0.135
	c0.225,0.09,0.452,0.176,0.69,0.225c0.049,0.003,0.098,0.005,0.147,0.004c0.123-0.026,0.242-0.062,0.36-0.107
	c0.415-0.188,0.811-0.424,1.181-0.691c0.144-0.12,0.276-0.249,0.399-0.39c0.116-0.173,0.216-0.355,0.303-0.546
	C18.321,27.059,18.439,26.516,18.529,25.974z M23.039,11.229c-0.002-0.729-0.002-1.46-0.073-2.185
	c-0.113-0.704-0.312-1.397-0.572-2.061c-0.108-0.234-0.236-0.451-0.388-0.661C21.875,6.16,21.742,6,21.588,5.859
	c-0.277-0.181-0.579-0.322-0.883-0.452c-0.134-0.058-0.257-0.132-0.388-0.194c0.016,0.135,0.034,0.271,0.037,0.406
	c0.012,0.754-0.008,1.511-0.027,2.265c-0.01,0.365-0.035,0.732-0.033,1.099c0,0.387,0.002,0.771,0.008,1.16
	c0.039,2.941,0.085,5.882,0.043,8.825c-0.023,1.618-0.105,3.234-0.142,4.852c-0.018,0.746-0.039,1.498-0.113,2.242
	c-0.031,0.31-0.076,0.621-0.131,0.93c0.001,0,0.003-0.001,0.004-0.001c0.271-0.063,0.542-0.132,0.804-0.227
	c0.146-0.071,0.284-0.154,0.416-0.246c0.213-0.179,0.404-0.372,0.578-0.588c0.262-0.352,0.509-0.728,0.696-1.124
	c0.091-0.252,0.152-0.514,0.197-0.778c0.05-0.481,0.073-0.965,0.112-1.45c0.039-0.449,0.039-0.897,0.041-1.348
	c0.004-0.931,0.031-1.861,0.056-2.793c0.025-0.831,0.051-1.665,0.082-2.496c0.031-0.777,0.014-1.552,0.031-2.329
	C22.994,12.816,23.039,12.024,23.039,11.229z"/>
</svg>