<?xml version="1.0" encoding="utf-8"?>
<!-- Generator: Adobe Illustrator 21.1.0, SVG Export Plug-In . SVG Version: 6.00 Build 0)  -->
<svg version="1.1" id="designs" xmlns="http://www.w3.org/2000/svg" xmlns:xlink="http://www.w3.org/1999/xlink" x="0px" y="0px"
	 width="32px" height="32px" viewBox="0 0 32 32" style="enable-background:new 0 0 32 32;" xml:space="preserve">
<style type="text/css">
	.sketchy_een{fill:#111918;}
</style>
<path class="sketchy_een" d="M27.439,14.454c-0.066-0.321-0.189-0.631-0.308-0.917c-0.006-0.014-0.017-0.04-0.017-0.04
	c-0.038-0.089-0.077-0.177-0.12-0.265c-0.053-0.112-0.13-0.208-0.224-0.328c-0.115-0.148-0.237-0.272-0.369-0.376
	c-0.305-0.241-0.66-0.441-1.055-0.595c-0.311-0.119-0.653-0.129-0.948-0.129l-0.386-0.001c-0.153-0.002-0.305-0.012-0.458-0.025
	c0.093-0.06,0.181-0.127,0.268-0.195c0.118-0.095,0.201-0.208,0.279-0.318c0.1-0.135,0.17-0.306,0.231-0.458l0.046-0.112
	c0.062-0.144,0.115-0.292,0.162-0.442c0.108-0.352,0.147-0.732,0.122-1.165c-0.018-0.304-0.06-0.545-0.128-0.756
	c-0.073-0.227-0.159-0.466-0.304-0.669c-0.154-0.222-0.298-0.392-0.438-0.52c-0.233-0.21-0.502-0.351-0.801-0.418
	c-0.212-0.048-0.429-0.074-0.646-0.093l-0.068-0.275c-0.065-0.267-0.182-0.514-0.317-0.787c-0.081-0.162-0.178-0.319-0.276-0.475
	c-0.082-0.13-0.181-0.255-0.318-0.425c-0.12-0.154-0.276-0.271-0.446-0.399c-0.281-0.213-0.678-0.321-1.18-0.321L19.623,3.95
	c-0.279,0.011-0.606,0.034-0.915,0.122c-0.231,0.066-0.403,0.168-0.554,0.275l-0.048,0.035c-0.008,0.006-0.028,0.021-0.028,0.021
	s-0.077,0.059-0.074,0.061c-0.179,0.153-0.318,0.301-0.435,0.466l-0.076-0.04c-0.196-0.098-0.399-0.199-0.611-0.255
	c-0.199-0.052-0.411-0.075-0.616-0.088C16.223,4.545,16.037,4.543,16,4.544c-0.059,0.003-0.114,0.008-0.168,0.017
	c-0.037-0.143-0.088-0.288-0.159-0.449c-0.112-0.26-0.237-0.483-0.381-0.682c-0.108-0.152-0.221-0.3-0.338-0.443
	c-0.15-0.182-0.308-0.331-0.512-0.481c-0.427-0.314-1.162-0.437-1.684-0.488c-0.609-0.059-1.25,0.021-1.78,0.344
	c-0.313,0.191-0.575,0.465-0.828,0.73L9.999,3.249c-0.105,0.106-0.254,0.271-0.34,0.466c-0.103,0.224-0.19,0.449-0.286,0.736
	C9.13,4.419,8.882,4.415,8.637,4.412L8.332,4.406c-0.674,0-1.235,0.501-1.494,0.997C6.699,5.671,6.62,5.956,6.603,6.251
	C6.575,6.252,6.546,6.255,6.517,6.258C6.178,6.297,5.938,6.366,5.688,6.495C5.466,6.609,5.283,6.784,5.17,6.911
	c-0.326,0.36-0.545,0.774-0.632,1.197c-0.092,0.454-0.096,0.958-0.01,1.419c0.057,0.305,0.213,0.599,0.338,0.836
	c0.054,0.102,0.111,0.207,0.175,0.304c0.057,0.084,0.117,0.156,0.156,0.176c0.038,0.136,0.111,0.247,0.209,0.372
	c0.13,0.166,0.295,0.306,0.468,0.389l0.037,0.424c0.024,0.252,0.048,0.503,0.057,0.755c0.01,0.261,0.005,0.524,0,0.786
	c0,0-0.021,1.275-0.032,1.868c-0.01,0.46-0.01,0.921-0.01,1.382v1.577c-0.001,0.311,0.005,0.622,0.012,0.933
	c0.005,0.261,0.01,0.522,0.011,0.783c0.003,0.483,0.018,0.968,0.032,1.451l0.009,0.305c0.015,0.526,0.03,1.049,0.033,1.575
	c0.005,0.49,0.029,0.979,0.051,1.469l0.024,0.528c0.048,1.12,0.041,2.262,0.041,3.311c-0.051,0.114-0.077,0.23-0.077,0.345
	c0,0.224,0.089,0.437,0.25,0.6c0.162,0.164,0.375,0.255,0.607,0.255c0.32-0.003,0.638-0.018,0.956-0.034l0.49-0.022
	c0.268-0.012,0.538-0.018,0.807-0.024l0.388-0.01c0.357-0.01,0.715-0.013,1.073-0.013l3.205,0.005c0,0,0.931,0,1.265-0.005
	c0.345-0.005,1.801-0.008,1.801-0.008c0.294,0,0.589,0.011,0.883,0.022c0.239,0.009,0.478,0.018,0.717,0.021
	c0.449,0.006,0.894,0.025,1.341,0.054c0.316,0.021,0.631,0.03,0.948,0.038C21.007,29.984,21.469,30,21.469,30
	c0.189,0,0.37-0.076,0.469-0.192c0.439,0,0.802-0.363,0.809-0.81c0.007-0.43,0.004-0.859,0-1.289l-0.002-0.186
	c-0.003-0.602,0.013-1.203,0.028-1.804l0.006-0.219c0.026-0.918,0.044-1.836,0.059-2.753c0.035,0.003,0.132,0.005,0.137,0.005
	c0.135-0.006,0.268-0.034,0.401-0.062l0.147-0.03c0.16-0.015,0.321-0.017,0.481-0.019c0.171-0.002,0.341-0.005,0.511-0.021
	c0.227-0.023,0.455-0.063,0.677-0.113c0.251-0.053,0.485-0.167,0.68-0.273c0.387-0.208,0.7-0.524,0.956-0.965
	c0.226-0.388,0.37-0.77,0.426-1.133c0.035-0.213,0.039-0.42,0.043-0.696c0.002-0.097,0.024-0.522,0.024-0.522
	c0.015-0.358,0.036-0.717,0.077-1.071c0.025-0.216,0.032-0.433,0.039-0.649c0.005-0.153,0.01-0.305,0.021-0.457l0.016-0.191
	c0.035-0.409,0.072-0.833,0.057-1.252C27.521,14.982,27.491,14.706,27.439,14.454z M21.191,26.932c0,0.466-0.008,0.929-0.028,1.392
	l-0.771-0.001l-0.18,0.001c-0.13,0-0.259-0.002-0.387-0.008c-0.463-0.027-0.928-0.048-1.394-0.048l-0.27,0.001
	c-0.234,0-0.467-0.002-0.702-0.012l-0.177-0.008c-0.172-0.008-0.343-0.016-0.516-0.016c-0.569,0-1.138-0.001-1.706-0.009
	c-0.681-0.01-1.362-0.013-2.043-0.013l-3.501,0.009c-0.394,0-0.788,0.008-1.181,0.023l-0.277,0.004l-0.37-0.003l0.007-0.741
	c0.001-0.546-0.01-1.093-0.032-1.638l-0.009-0.24l0.027-0.002c0.225-0.024,0.45-0.049,0.676-0.055
	c0.244-0.007,0.49-0.011,0.82-0.015c0.404-0.008,0.808-0.011,1.212-0.013c0,0,1.56-0.013,2.129-0.019
	c0.749-0.009,1.497-0.018,2.246-0.019c0.399,0,0.799,0.014,1.198,0.029l0.377,0.013c0,0,1.06,0.031,1.337,0.043
	c0.794,0.034,1.593,0.056,2.487,0.056c0.002,0,0.299-0.002,0.299-0.002c0.08,0,0.366,0.013,0.366,0.013
	c0.075,0.005,0.149,0.01,0.247,0.01c0.002,0,0.004,0,0.006,0c0.04,0,0.078-0.005,0.114-0.013
	C21.19,26.077,21.19,26.504,21.191,26.932z M21.387,19.162c-0.017,0.343-0.048,0.684-0.078,1.026
	c-0.026,0.307-0.053,0.615-0.071,0.922c-0.018,0.287-0.018,0.576-0.018,0.863l-0.015,1.993c-0.034-0.007-0.07-0.011-0.107-0.011
	l-0.203,0.014c-0.123,0.009-0.245,0.018-0.37,0.021c0,0-1.48,0.002-1.859-0.002c-0.278-0.003-1.296-0.03-1.296-0.03
	s-1.101-0.009-1.336-0.015c-0.468-0.014-0.937-0.018-1.405-0.018c-0.428,0-2.523,0.015-2.523,0.015s-1.471,0-1.831-0.004
	l-1.65,0.005c-0.357,0-0.714,0.006-1.073,0.023l0.038-0.07l-0.003-0.679c0-0.309-0.001-0.619-0.006-0.93
	c-0.005-0.268-0.018-0.536-0.031-0.804c-0.014-0.307-0.029-0.615-0.032-0.923c-0.005-0.521,0.007-1.042,0.02-1.563l0.005-0.209
	c0.01-0.556,0.006-1.11,0.001-1.666c-0.003-0.427-0.007-0.854-0.003-1.281l0.003-0.31c0.006-0.565,0.013-1.13,0.012-1.696
	c-0.001-0.247,0.001-0.494,0.004-0.74c0.004-0.356,0.007-0.711,0-1.068l0.043,0.033l0.112,0.002c0.145,0,0.284-0.014,0.434-0.036
	c0.182-0.028,0.36-0.088,0.595-0.168c0.186-0.066,0.371-0.147,0.543-0.244l0.066-0.021c0.224,0.162,0.474,0.278,0.691,0.37
	c0.09,0.037,0.182,0.069,0.274,0.102l0.209,0.076c0.209,0.082,0.428,0.109,0.64,0.136l0.102,0.013
	c0.087,0.012,0.174,0.017,0.259,0.017c0.169,0,0.334-0.022,0.504-0.066c0.182-0.048,0.363-0.109,0.563-0.176
	c0.177-0.058,0.377-0.129,0.564-0.254c0.149,0.138,0.333,0.249,0.56,0.338c0.396,0.157,0.816,0.183,1.222,0.208l0.321,0.016
	c0.394,0,0.838-0.121,1.318-0.359c0.136-0.068,0.273-0.141,0.443-0.256l0.084,0.054c0.126,0.08,0.253,0.161,0.386,0.225
	c0.255,0.122,0.523,0.208,0.8,0.258c-0.214,0.15-0.357,0.398-0.354,0.668c0.001,0.223,0.008,0.446,0.016,0.668
	c0.012,0.386,0.024,0.771,0.007,1.157c-0.011,0.232-0.004,0.465,0.004,0.735l0.026,0.901c0.01,0.305,0.016,0.607,0.008,0.911
	c-0.005,0.201,0.01,0.4,0.024,0.599l0.014,0.189c0.022,0.35,0.02,0.704,0.017,1.056L18.065,21c0.003,0.234,0.006,0.468-0.022,0.7
	c-0.024,0.221,0.106,0.462,0.244,0.604c0.154,0.155,0.37,0.243,0.591,0.243c0.452,0,0.827-0.374,0.836-0.834
	c0.018-0.946,0.009-1.896-0.006-2.844c-0.005-0.294-0.023-0.589-0.042-0.883c-0.012-0.184-0.023-0.368-0.032-0.551
	c-0.01-0.249-0.015-0.497-0.019-0.745l-0.042-1.289c-0.01-0.306-0.019-0.612-0.021-0.919c-0.002-0.283,0.008-0.566,0.016-0.849
	c0.007-0.224,0.015-0.447,0.016-0.671c0.002-0.261-0.128-0.498-0.331-0.648l0.118-0.019c0.07-0.011,0.139-0.022,0.207-0.039
	c0.158-0.033,0.317-0.078,0.465-0.141c0.159-0.066,0.292-0.137,0.446-0.235c0.04,0.024,0.08,0.048,0.121,0.068
	c0.247,0.124,0.471,0.191,0.755,0.225l0.01,0.211c0.016,0.394,0.034,0.787,0.039,1.181c0,0,0.012,1.279,0.02,1.726
	c0.012,0.657,0.017,1.314,0.016,1.97C21.447,17.893,21.419,18.528,21.387,19.162z M22.795,10.371
	c-0.042,0.026-0.083,0.05-0.113,0.067c-0.112,0.039-0.227,0.064-0.337,0.082c-0.151,0.015-0.305,0.023-0.459,0.023
	c-0.128,0-0.256-0.006-0.37-0.016l-0.086-0.018c-0.075-0.04-0.145-0.086-0.217-0.132c-0.096-0.062-0.192-0.124-0.297-0.173
	c-0.144-0.067-0.31-0.139-0.521-0.139c-0.287,0.022-0.496,0.114-0.706,0.327l-0.08,0.08c-0.058,0.039-0.119,0.074-0.172,0.101
	c-0.139,0.048-0.279,0.082-0.415,0.107c-0.069,0.006-0.138,0.009-0.207,0.009c-0.063,0-0.125-0.002-0.179-0.007
	c-0.121-0.021-0.238-0.052-0.345-0.09c-0.202-0.093-0.404-0.205-0.649-0.387c-0.173-0.153-0.368-0.326-0.7-0.326
	c-0.074,0.006-0.145,0.014-0.235,0.035c-0.176,0.07-0.212,0.091-0.357,0.206c-0.074,0.059-0.126,0.137-0.191,0.235l-0.07,0.1
	c-0.122,0.08-0.252,0.148-0.377,0.207c-0.126,0.048-0.255,0.084-0.378,0.107c-0.113,0.011-0.228,0.017-0.342,0.017
	c-0.094,0-0.188-0.004-0.277-0.014c-0.154-0.023-0.31-0.053-0.495-0.125c-0.048-0.045-0.094-0.093-0.16-0.177l-0.071-0.098
	c-0.085-0.114-0.174-0.232-0.326-0.313c-0.062-0.032-0.131-0.068-0.209-0.085c-0.069-0.014-0.132-0.02-0.193-0.02
	c-0.129,0-0.252,0.029-0.414,0.098c-0.132,0.059-0.251,0.182-0.355,0.291c-0.048,0.05-0.096,0.098-0.134,0.135
	c-0.054,0.035-0.11,0.065-0.162,0.09c-0.186,0.072-0.382,0.133-0.618,0.171c-0.058,0-0.115-0.003-0.165-0.008
	c-0.242-0.041-0.492-0.114-0.803-0.237c-0.125-0.058-0.249-0.124-0.352-0.192c-0.043-0.04-0.082-0.082-0.121-0.125
	c-0.075-0.08-0.152-0.164-0.256-0.231c-0.132-0.085-0.288-0.13-0.451-0.13c-0.174,0-0.349,0.052-0.493,0.148
	c-0.074,0.048-0.144,0.104-0.208,0.156c-0.107,0.077-0.216,0.146-0.326,0.2c-0.351,0.133-0.71,0.174-1.085,0.122
	c-0.28-0.039-0.517-0.153-0.697-0.371C6.58,10.001,6.532,9.944,6.477,9.902c-0.039-0.03-0.076-0.061-0.097-0.08
	C6.284,9.673,6.204,9.506,6.135,9.349C6.101,9.258,6.075,9.164,6.058,9.08c-0.014-0.179-0.01-0.366,0.006-0.536
	C6.08,8.465,6.103,8.387,6.126,8.323c0.042-0.081,0.091-0.157,0.14-0.225C6.306,8.049,6.35,8.004,6.388,7.969
	c0.04-0.027,0.081-0.052,0.108-0.068c0.041-0.013,0.083-0.023,0.112-0.03l0.123-0.004c0.05,0,0.099,0.002,0.14,0.005
	c0.05,0.01,0.1,0.021,0.141,0.034C7.152,7.972,7.296,8.04,7.489,8.04c0.498-0.012,0.868-0.424,0.862-0.959
	c-0.002-0.177-0.034-0.349-0.068-0.52L8.264,6.467C8.261,6.41,8.261,6.353,8.263,6.311l0.056-0.153l0.138-0.09
	c0.08,0,0.161,0.004,0.314,0.012c0.117,0.004,0.234,0.013,0.343,0.023c0.059,0.011,0.116,0.025,0.125,0.058
	c0.009,0.08,0.02,0.161,0.036,0.241c0,0,0.046,0.125,0.049,0.123c0.101,0.238,0.3,0.416,0.553,0.485
	c0.07,0.019,0.143,0.03,0.217,0.03c0.238,0,0.471-0.1,0.64-0.275c0.157-0.162,0.239-0.37,0.231-0.587
	c-0.005-0.124-0.029-0.246-0.069-0.444c-0.011-0.179-0.007-0.364,0.008-0.535c0.032-0.17,0.084-0.337,0.141-0.491
	c0.048-0.103,0.1-0.202,0.157-0.289c0.153-0.18,0.338-0.358,0.579-0.555c0.045-0.031,0.089-0.061,0.117-0.079
	c0.11-0.037,0.223-0.064,0.324-0.084l0.149-0.004c0.229,0,0.46,0.027,0.682,0.055c0.117,0.019,0.231,0.045,0.325,0.073
	c0.061,0.034,0.12,0.072,0.169,0.104c0.138,0.123,0.26,0.267,0.373,0.408c0.112,0.156,0.202,0.321,0.279,0.486
	c0.056,0.16,0.094,0.328,0.121,0.489c0.02,0.203,0.021,0.408,0.011,0.612L14.311,6.2c-0.026,0.319,0.071,0.719,0.421,0.885
	c0.149,0.071,0.31,0.111,0.453,0.111c0.15,0,0.28-0.041,0.432-0.154c0.1-0.074,0.167-0.123,0.25-0.262
	c0.121-0.202,0.073-0.498,0.318-0.602c0.108-0.046,0.233-0.042,0.346-0.007c0.38,0.12,0.52,0.577,0.838,0.8
	c0.129,0.09,0.285,0.138,0.451,0.138c0.363,0,0.714-0.222,0.853-0.539c0.06-0.132,0.109-0.268,0.157-0.403l0.073-0.199
	c0.024-0.048,0.05-0.093,0.072-0.127c0.042-0.046,0.086-0.089,0.122-0.122c0.04-0.027,0.08-0.052,0.103-0.067
	c0.042-0.012,0.082-0.023,0.112-0.03c0.09-0.007,0.182-0.011,0.273-0.011c0.08,0,0.161,0.002,0.229,0.007
	c0.058,0.011,0.115,0.025,0.172,0.043c0.062,0.056,0.121,0.115,0.171,0.173c0.15,0.21,0.286,0.448,0.401,0.701
	c0.048,0.133,0.077,0.264,0.104,0.405l0.058,0.252c0.001,0.05,0,0.1-0.007,0.151L20.7,7.441c-0.03,0.267,0.123,0.529,0.263,0.672
	c0.167,0.174,0.397,0.271,0.69,0.283c0.057,0,0.114-0.008,0.162-0.016c0.051-0.003,0.103-0.005,0.154-0.005
	c0.113,0,0.228,0.008,0.337,0.021c0.105,0.015,0.21,0.033,0.297,0.056c0.076,0.067,0.147,0.14,0.205,0.203
	c0.025,0.04,0.048,0.082,0.065,0.116c0.074,0.199,0.115,0.403,0.147,0.608c0.014,0.127,0.016,0.255,0.011,0.369
	c-0.029,0.146-0.079,0.29-0.128,0.422C22.866,10.243,22.824,10.317,22.795,10.371z M25.939,16.543L25.93,16.67
	c-0.015,0.205-0.028,0.409-0.035,0.689c-0.007,0.182-0.013,0.364-0.035,0.543c-0.023,0.166-0.044,0.331-0.05,0.498l-0.006,0.161
	c-0.005,0.122-0.009,0.244-0.019,0.367c-0.014,0.156-0.016,0.312-0.018,0.468c-0.002,0.152-0.004,0.303-0.016,0.444
	c-0.021,0.112-0.05,0.224-0.086,0.323c-0.086,0.188-0.181,0.37-0.292,0.531c-0.04,0.045-0.081,0.087-0.119,0.12
	c-0.511,0.452-1.566,0.424-2.24,0.34c-0.043-0.005-0.084-0.011-0.124-0.017c0.011-0.214,0.023-0.427,0.039-0.641l0.08-0.006
	c0.39-0.029,0.792-0.058,1.175-0.203c0.239-0.09,0.486-0.2,0.676-0.401c0.183-0.193,0.307-0.441,0.359-0.716
	c0.06-0.329,0.074-0.666,0.088-0.991l0.009-0.213c0.011-0.217,0.036-0.433,0.06-0.649l0.036-0.335
	c0.024-0.271,0.016-0.544,0.009-0.814c-0.006-0.203-0.031-0.41-0.073-0.612c-0.018-0.076-0.042-0.149-0.064-0.223l-0.051-0.143
	c-0.077-0.205-0.157-0.348-0.286-0.511c-0.268-0.331-0.705-0.529-1.17-0.529c-0.265,0.003-0.514,0.02-0.763,0.042l-0.005-0.253
	l0.002-0.573c0.248,0.019,0.498,0.034,0.747,0.043c0.133,0.005,0.27,0.005,0.405,0.005l0.139,0c0.14,0,0.28,0.002,0.405,0.01
	c0.053,0.012,0.106,0.029,0.15,0.045c0.179,0.083,0.354,0.183,0.51,0.285c0.074,0.064,0.143,0.132,0.2,0.193
	c0.071,0.108,0.128,0.226,0.177,0.341c0.105,0.273,0.175,0.517,0.211,0.74C26.005,15.502,25.974,15.985,25.939,16.543z
	 M23.064,15.838c0.186-0.026,0.373-0.048,0.561-0.048l0.09,0.01c0.036,0.1,0.063,0.203,0.082,0.299
	c0.038,0.39,0.028,0.806-0.033,1.311c-0.023,0.198-0.033,0.398-0.043,0.598c-0.009,0.181-0.017,0.362-0.038,0.539
	c-0.011,0.088-0.024,0.178,0.006,0.2c-0.101,0.037-0.208,0.068-0.304,0.088c-0.069,0.007-0.139,0.009-0.209,0.009
	c-0.048,0-0.095-0.001-0.143-0.003l0.013-0.231c0.016-0.277,0.031-0.554,0.041-0.83C23.115,17.146,23.093,16.523,23.064,15.838z
	 M16.268,20.581c0.005,0.317,0.01,0.633,0.025,0.948c0.009,0.204-0.068,0.402-0.218,0.559c-0.161,0.168-0.38,0.265-0.601,0.265
	c-0.447,0-0.815-0.367-0.819-0.818c0-0.087-0.015-0.434-0.015-0.523l-0.004-0.592c-0.006-0.298-0.018-0.596-0.03-0.895l-0.023-0.638
	c-0.016-0.594-0.022-1.185-0.028-1.777c-0.004-0.424-0.026-0.845-0.048-1.265c-0.014-0.265-0.027-0.529-0.037-0.794
	c-0.008-0.208,0.072-0.409,0.225-0.568c0.161-0.167,0.38-0.262,0.602-0.262c0.447,0,0.818,0.37,0.827,0.825
	c0.01,0.479,0.011,0.958,0.011,1.437l0.002,0.667c0.002,0.386,0.018,0.772,0.034,1.157l0.024,0.606
	c0.007,0.233,0.02,0.465,0.034,0.697c0.016,0.276,0.032,0.553,0.037,0.83L16.268,20.581z M10.286,20.218
	c0.022,0.376,0.044,0.754,0.072,1.13c0.015,0.196-0.057,0.391-0.203,0.549c-0.162,0.175-0.392,0.279-0.617,0.279
	c-0.45,0-0.817-0.368-0.819-0.82c-0.004-0.326-0.024-0.615-0.044-0.904c-0.013-0.189-0.026-0.378-0.035-0.566
	c-0.016-0.378-0.028-0.67-0.025-0.96c0.001-0.159,0.008-0.319,0.015-0.478c0.007-0.169,0.014-0.337,0.014-0.505l0.005-2.561
	c0.002-0.483,0.005-0.982-0.041-1.47c-0.044-0.219-0.095-0.448-0.149-0.675c-0.107-0.462,0.153-0.917,0.593-1.038
	c0.068-0.019,0.141-0.029,0.214-0.029c0.392,0,0.747,0.269,0.826,0.625c0.127,0.579,0.169,1.267,0.161,1.848L10.25,14.87
	c-0.001,0.158,0.01,0.795,0.009,0.956c-0.002,0.432,0.004,2.156,0.004,2.156l-0.003,1.091c-0.004,0.278-0.008,0.559,0.008,0.837
	L10.286,20.218z"/>
</svg>