<?xml version="1.0" encoding="utf-8"?>
<!-- Generator: Adobe Illustrator 21.1.0, SVG Export Plug-In . SVG Version: 6.00 Build 0)  -->
<svg version="1.1" id="designs" xmlns="http://www.w3.org/2000/svg" xmlns:xlink="http://www.w3.org/1999/xlink" x="0px" y="0px"
	 width="32px" height="32px" viewBox="0 0 32 32" style="enable-background:new 0 0 32 32;" xml:space="preserve">
<style type="text/css">
	.sketchy_een{fill:#111918;}
</style>
<path class="sketchy_een" d="M27.573,8.684c0.33-0.293,0.297-0.846,0-1.143c-0.107-0.107-0.234-0.162-0.366-0.196
	c-0.032-0.053-0.056-0.109-0.101-0.154c-0.707-0.711-1.431-1.402-2.136-2.114c-0.768-0.778-1.471-1.624-2.201-2.439
	c-0.063-0.07-0.142-0.116-0.222-0.156c-0.038-0.09-0.091-0.176-0.167-0.251C22.231,2.081,22.016,2,21.803,2
	c-0.202,0-0.402,0.073-0.541,0.23c-0.442,0.494-0.877,0.996-1.29,1.516c-0.411,0.516-0.811,1.041-1.234,1.547
	c-0.032,0.038-0.061,0.078-0.093,0.116c-0.254-0.138-0.514-0.267-0.774-0.397c-0.458-0.23-0.873-0.529-1.28-0.838
	C16.487,4.093,16.336,4.06,16.19,4.06c-0.084,0-0.167,0.011-0.238,0.031c-0.132,0.036-0.244,0.114-0.342,0.208
	c-0.093,0.014-0.184,0.039-0.256,0.09c-0.419,0.301-0.85,0.583-1.267,0.888c-0.428,0.311-0.868,0.605-1.307,0.901
	c-0.108-0.14-0.211-0.284-0.32-0.422c-0.373-0.467-0.778-0.906-1.188-1.344c-0.44-0.475-0.844-0.985-1.269-1.475
	C9.895,2.809,9.744,2.75,9.585,2.723C9.494,2.645,9.391,2.582,9.274,2.549C9.206,2.53,9.126,2.52,9.044,2.52
	c-0.145,0-0.296,0.033-0.403,0.112C7.898,3.188,7.228,3.837,6.558,4.476C5.935,5.071,5.374,5.734,4.829,6.402
	c-0.15,0.032-0.293,0.092-0.402,0.203C4.276,6.754,4.192,6.959,4.192,7.171c0,0.228,0.095,0.396,0.236,0.566
	C4.945,8.362,5.462,9,6.03,9.583c0.543,0.556,1.106,1.091,1.69,1.608c0.497,0.441,1.01,0.864,1.526,1.283
	c-0.079,0.568-0.157,1.137-0.211,1.709c-0.027,0.278-0.054,0.556-0.077,0.834c-0.025,0.301-0.062,0.604-0.066,0.906
	c0,0.021,0.01,0.038,0.012,0.059c-0.286,0.271-0.567,0.548-0.858,0.815c-0.595,0.545-1.168,1.108-1.74,1.678
	c-0.57,0.566-1.153,1.12-1.728,1.682c-0.161,0.157-0.229,0.372-0.22,0.584c-0.091,0.279-0.04,0.603,0.183,0.815
	c0.608,0.577,1.207,1.172,1.827,1.74c0.491,0.45,1.026,0.846,1.554,1.251c0.119,0.096,0.227,0.203,0.34,0.304
	c-0.007,0.046-0.027,0.088-0.025,0.136c0.037,0.686,0.071,1.371,0.073,2.058c0.002,0.622-0.041,1.244-0.062,1.865
	c-0.007,0.172,0.062,0.325,0.157,0.459c0.079,0.351,0.385,0.649,0.762,0.631c0.805-0.037,1.606-0.12,2.414-0.158
	c0.759-0.039,1.52-0.085,2.28-0.098c1.052-0.019,2.109-0.019,3.163-0.019c0.479,0,0.958,0,1.438-0.002
	c0.658-0.004,1.315-0.014,1.973-0.012c0.66,0,1.323-0.017,1.983,0.006c0.226,0.007,0.423-0.113,0.556-0.283
	c0.324-0.119,0.587-0.425,0.564-0.784c-0.041-0.602-0.125-1.201-0.195-1.801c-0.066-0.574-0.078-1.15-0.083-1.727
	c0.702-0.599,1.393-1.207,2.065-1.841c0.33-0.313,0.66-0.628,0.996-0.932c0.328-0.301,0.662-0.606,0.95-0.948
	c0.145-0.17,0.239-0.346,0.239-0.575c0-0.161-0.062-0.311-0.15-0.443c0.094-0.186,0.125-0.402,0.069-0.604
	c-0.058-0.214-0.182-0.344-0.345-0.472c0.018,0.014,0.036,0.027,0.054,0.041c-0.326-0.264-0.639-0.544-0.967-0.807
	c-0.33-0.266-0.668-0.525-0.992-0.797c-0.452-0.378-0.916-0.74-1.377-1.106c-0.003-0.03,0-0.058-0.004-0.089
	c-0.089-0.603-0.224-1.195-0.324-1.796c-0.112-0.658-0.208-1.319-0.326-1.975c-0.004-0.023-0.024-0.042-0.032-0.065
	c0.324-0.297,0.648-0.593,0.977-0.887C25.256,10.782,26.403,9.721,27.573,8.684z M14.933,6.515c0.348-0.262,0.715-0.497,1.087-0.725
	c0.315,0.222,0.638,0.43,0.985,0.602c0.204,0.102,0.41,0.199,0.616,0.296c-0.469,0.582-0.947,1.156-1.402,1.75
	c-0.281,0.36-0.57,0.715-0.855,1.073c-0.116-0.124-0.227-0.252-0.335-0.379c-0.137-0.16-0.27-0.321-0.4-0.484
	c-0.31-0.41-0.613-0.826-0.917-1.24C14.125,7.118,14.537,6.826,14.933,6.515z M10.998,13.896c-0.142,0.148-0.287,0.295-0.43,0.442
	c0.003-0.022,0.005-0.043,0.007-0.065c0.032-0.213,0.065-0.426,0.097-0.639C10.781,13.721,10.89,13.808,10.998,13.896z
	 M15.624,28.298c-0.149-0.001-0.298,0.001-0.447,0c-0.013-0.258-0.021-0.517-0.023-0.775c-0.002-0.355-0.002-0.711,0.004-1.068
	c0.01-0.582,0.023-1.166,0.036-1.75c0.36-0.011,0.72-0.018,1.082-0.032c0.276-0.01,0.555-0.008,0.834-0.012
	c0.006,0.649,0.024,1.299,0.024,1.948c0,0.559,0.005,1.119-0.008,1.679C16.625,28.294,16.124,28.301,15.624,28.298z M25.38,20.091
	c0.168,0.134,0.338,0.267,0.507,0.401c-0.223,0.25-0.449,0.497-0.689,0.731c-0.326,0.317-0.647,0.639-0.973,0.956
	c-0.517,0.506-1.069,0.971-1.625,1.432c-0.314-0.306-0.627-0.611-0.938-0.92c-0.543-0.537-1.087-1.074-1.637-1.601
	c-0.168-0.16-0.386-0.242-0.604-0.242c-0.213,0-0.426,0.079-0.589,0.242c-0.317,0.319-0.334,0.877,0,1.191
	c0.556,0.525,1.124,1.037,1.684,1.556c0.365,0.339,0.72,0.686,1.088,1.02c0.022,1.142,0.12,2.279,0.221,3.416
	c-0.555,0.01-1.111,0.017-1.666,0.016c-0.473-0.002-0.946-0.002-1.419-0.004c-0.003-0.539-0.009-1.078,0.001-1.618
	c0.014-0.749,0.052-1.498,0.054-2.247c0.001-0.196-0.079-0.369-0.194-0.513c0.004-0.032,0.018-0.061,0.018-0.093
	c0-0.214-0.085-0.423-0.236-0.573c-0.126-0.126-0.335-0.24-0.523-0.24c-0.017,0-0.034,0.001-0.05,0.003
	c-0.496,0.06-1,0.039-1.5,0.037c-0.645-0.004-1.292-0.012-1.939-0.012c-0.463,0.002-0.85,0.386-0.85,0.851
	c0,0.044,0.019,0.083,0.026,0.126c-0.003,0.026-0.016,0.049-0.016,0.076c-0.006,0.792,0.002,1.583,0.008,2.373
	c0.004,0.332,0.004,0.662,0.002,0.992c-0.002,0.283-0.009,0.568,0.002,0.852c-0.071,0.001-0.142-0.001-0.212,0
	c-1.137,0.022-2.273,0.055-3.408,0.092c0.045-0.985,0.062-1.97,0.035-2.955c0.469-0.573,0.925-1.156,1.392-1.732
	c0.496-0.614,1.012-1.211,1.51-1.823c0.884-1.087,1.83-2.121,2.735-3.189c0.364,0.342,0.722,0.688,1.057,1.06
	c0.295,0.326,0.844,0.299,1.143,0c0.151-0.151,0.236-0.357,0.236-0.572c0-0.23-0.095-0.398-0.236-0.57
	c-0.44-0.533-0.917-1.023-1.423-1.495c-0.132-0.124-0.296-0.187-0.463-0.215c-0.127-0.078-0.268-0.133-0.419-0.133
	c-0.193,0-0.444,0.079-0.572,0.236c-1.02,1.276-2.099,2.497-3.159,3.738c-0.514,0.599-1.027,1.199-1.521,1.815
	c-0.317,0.395-0.64,0.784-0.962,1.175c-0.193-0.167-0.382-0.339-0.584-0.497c-0.931-0.725-1.75-1.565-2.588-2.389
	c0.432-0.427,0.865-0.852,1.295-1.283c0.57-0.57,1.141-1.135,1.732-1.684c1.232-1.149,2.452-2.317,3.628-3.524
	c0.301-0.309,0.309-0.811,0-1.118c-0.118-0.118-0.272-0.177-0.431-0.203c-0.031-0.048-0.053-0.104-0.095-0.139
	c-0.57-0.471-1.141-0.94-1.711-1.41c-0.56-0.461-1.128-0.917-1.678-1.388c-0.579-0.492-1.131-1.02-1.655-1.57
	C6.868,8.193,6.568,7.84,6.273,7.482c0.483-0.601,0.974-1.197,1.505-1.755c0.431-0.453,0.872-0.905,1.335-1.33
	c0.443,0.499,0.884,0.998,1.35,1.474c0.486,0.495,0.922,1.025,1.348,1.568c0.412,0.534,0.822,1.068,1.232,1.604
	c0.23,0.301,0.458,0.602,0.699,0.896c0.114,0.137,0.232,0.272,0.349,0.409c0.135,0.16,0.266,0.328,0.419,0.471
	c0.203,0.188,0.478,0.247,0.729,0.186c0.137,0.099,0.296,0.167,0.466,0.167c0.145,0,0.282-0.037,0.407-0.11
	c0.12-0.072,0.216-0.168,0.288-0.288c0.511-0.697,1.038-1.385,1.564-2.071c0.69-0.886,1.402-1.756,2.118-2.621
	c0.367-0.442,0.701-0.909,1.072-1.348c0.193-0.225,0.392-0.444,0.589-0.666c0.662,0.724,1.323,1.45,2.009,2.147
	c0.655,0.667,1.353,1.284,2.033,1.923c-0.383,0.352-0.769,0.702-1.143,1.063c-0.541,0.519-1.097,1.02-1.657,1.518
	c-0.558,0.496-1.106,1.008-1.668,1.502c-0.55,0.487-1.087,0.985-1.624,1.489c-0.166,0.155-0.233,0.374-0.221,0.59
	c-0.197,0.346-0.187,0.82,0.124,1.093c0.944,0.834,1.919,1.632,2.906,2.416c0.467,0.371,0.923,0.757,1.384,1.133
	C24.372,19.341,24.879,19.712,25.38,20.091z M21.729,13.976c0.069,0.364,0.138,0.727,0.211,1.09
	c-0.236-0.212-0.47-0.424-0.705-0.637C21.398,14.277,21.564,14.126,21.729,13.976z M16.699,13.865c0,0.44-0.369,0.809-0.809,0.809
	c-0.44,0-0.809-0.369-0.809-0.809s0.369-0.809,0.809-0.809C16.331,13.056,16.699,13.425,16.699,13.865z"/>
</svg>