<?xml version="1.0" encoding="utf-8"?>
<!-- Generator: Adobe Illustrator 21.1.0, SVG Export Plug-In . SVG Version: 6.00 Build 0)  -->
<svg version="1.1" id="designs" xmlns="http://www.w3.org/2000/svg" xmlns:xlink="http://www.w3.org/1999/xlink" x="0px" y="0px"
	 width="32px" height="32px" viewBox="0 0 32 32" style="enable-background:new 0 0 32 32;" xml:space="preserve">
<style type="text/css">
	.sketchy_een{fill:#111918;}
</style>
<path class="sketchy_een" d="M29.801,22.482C29.918,22.335,30,22.157,30,21.955c0-0.411-0.309-0.753-0.702-0.831
	c0.041-0.369,0.062-0.731,0.044-1.109c-0.02-0.428-0.028-0.855-0.081-1.281c-0.065-0.503-0.173-0.99-0.347-1.466
	c-0.169-0.461-0.384-0.915-0.603-1.354c-0.465-0.936-1.153-1.734-2.012-2.328c-0.4-0.276-0.834-0.524-1.289-0.693
	c-0.436-0.162-0.891-0.245-1.344-0.337c-0.538-0.108-1.092-0.158-1.636-0.225c-0.417-0.049-0.836-0.087-1.253-0.136
	c-0.479-0.072-0.952-0.158-1.423-0.265c-0.451-0.102-0.892-0.213-1.32-0.377c-0.547-0.258-1.061-0.571-1.547-0.932
	c-0.21-0.168-0.413-0.339-0.605-0.529c-0.207-0.204-0.393-0.426-0.573-0.652c-0.221-0.296-0.401-0.602-0.559-0.934
	c-0.088-0.25-0.142-0.509-0.183-0.771c-0.023-0.275-0.026-0.549-0.029-0.824c-0.005-0.375-0.252-0.692-0.591-0.81
	c-0.167-0.184-0.4-0.305-0.66-0.294c-0.757,0.028-1.512,0.06-2.27,0.051c-0.814-0.006-1.628-0.006-2.442-0.014
	c-0.834-0.01-1.669,0.002-2.503-0.023C5.19,5.792,4.309,5.765,3.426,5.755c-0.005,0-0.009,0-0.014,0C3.26,5.754,3.125,5.807,3,5.881
	C2.674,5.981,2.433,6.278,2.428,6.634c-0.022,1.73-0.024,3.46-0.024,5.189c0,1.663,0.079,3.325,0.114,4.988
	c0.018,0.859,0,1.721,0.028,2.58c0.018,0.503,0.085,1.011,0.183,1.502c0.027,0.135,0.055,0.271,0.085,0.408
	C2.37,21.285,2,21.687,2,22.119c0,0.297,0.166,0.537,0.398,0.681c-0.048,0.839-0.068,1.68-0.141,2.516
	c-0.035,0.397,0.296,0.723,0.665,0.816c0.111,0.06,0.23,0.101,0.362,0.099c0.877-0.012,1.754-0.014,2.629,0.002
	c0.8,0.016,1.596,0.018,2.394,0c0.798-0.018,1.59-0.095,2.387-0.134c0.806-0.042,1.614-0.04,2.42-0.04
	c1.622,0,3.242-0.023,4.864-0.03c1.697-0.006,3.394-0.01,5.088-0.014c0.374,0,0.749,0,1.123,0c0.625,0,1.251,0,1.876-0.004
	c0.96-0.008,1.918-0.045,2.877-0.033c0.465,0.006,0.851-0.391,0.851-0.85c0-0.033-0.015-0.062-0.019-0.095
	c0.032-0.089,0.057-0.183,0.051-0.282C29.781,23.997,29.804,23.238,29.801,22.482z M8.496,7.557c0.814,0.03,1.628,0.06,2.442,0.071
	c0.418,0.006,0.834,0.01,1.251,0.008c0.218,0,0.435-0.003,0.652-0.006c0.02,0.229,0.049,0.457,0.092,0.687
	c0.024,0.128,0.051,0.254,0.079,0.378c0.031,0.137,0.078,0.269,0.131,0.398c-0.412,0.257-0.825,0.511-1.231,0.775
	c-0.394,0.256-0.556,0.761-0.309,1.18c0.233,0.398,0.778,0.554,1.179,0.31c0.406-0.249,0.818-0.489,1.225-0.734
	c0.187,0.247,0.386,0.484,0.594,0.713c-0.01,0.014-0.024,0.023-0.034,0.038c-0.211,0.31-0.414,0.623-0.635,0.924
	c-0.126,0.175-0.14,0.45-0.085,0.65c0.057,0.211,0.199,0.392,0.386,0.502c0.195,0.114,0.434,0.146,0.65,0.087
	c0.231-0.065,0.367-0.205,0.505-0.388c0.175-0.233,0.34-0.474,0.506-0.714c0.071,0.05,0.133,0.112,0.205,0.16
	c0.276,0.185,0.566,0.352,0.862,0.503c-0.151,0.242-0.302,0.484-0.449,0.729c-0.246,0.414-0.095,0.968,0.317,1.21
	c0.426,0.249,0.958,0.091,1.212-0.317c0.206-0.332,0.417-0.661,0.625-0.991c0.407,0.105,0.811,0.198,1.222,0.269
	c-0.032,0.193-0.065,0.386-0.093,0.58c-0.037,0.249-0.043,0.461,0.089,0.688c0.118,0.199,0.311,0.349,0.534,0.41
	c0.231,0.063,0.481,0.03,0.688-0.09c0.181-0.106,0.372-0.315,0.41-0.532c0.046-0.275,0.097-0.546,0.148-0.819
	c0.236,0.031,0.473,0.062,0.709,0.092c0.673,0.095,1.362,0.205,2.001,0.43c0.387,0.183,0.759,0.397,1.11,0.642
	c0.275,0.231,0.527,0.479,0.756,0.755c0.376,0.529,0.679,1.107,0.945,1.698c0.157,0.395,0.274,0.795,0.348,1.215
	c0.036,0.314,0.061,0.631,0.086,0.946c0.026,0.347,0.034,0.69-0.006,1.037l0.001-0.007c-0.003,0.031,0.003,0.062,0.002,0.094
	c-1.086,0.041-2.172,0.091-3.259,0.117c-1.673,0.039-3.346,0.033-5.017,0.031c-1.673-0.004-3.344,0.022-5.017,0.049
	c-0.855,0.014-1.711,0.049-2.568,0.049s-1.715,0-2.572-0.002c-1.495-0.003-2.989-0.012-4.483-0.041
	c-0.003-0.006-0.007-0.012-0.01-0.018c-0.144-0.404-0.223-0.829-0.286-1.253c-0.091-0.745-0.079-1.496-0.086-2.242
	c-0.006-0.798-0.03-1.592-0.065-2.389c-0.071-1.655-0.128-3.309-0.205-4.962C4.001,9.484,4.003,8.491,4.016,7.497
	c0.677-0.002,1.354-0.008,2.032,0.008C6.865,7.522,7.68,7.528,8.496,7.557z M24.141,24.34c-1.689,0.002-3.378-0.002-5.067-0.01
	c-1.632-0.008-3.263-0.008-4.895,0.016c-0.826,0.012-1.653,0.01-2.479,0.02c-0.774,0.01-1.543,0.095-2.316,0.154
	c-0.501,0.04-1.003,0.061-1.504,0.079c-0.479,0.018-0.956,0.043-1.433,0.049c-0.603,0.006-1.206,0.002-1.809-0.002
	c-0.223-0.002-0.446-0.002-0.669-0.004c0.011-0.23,0.03-0.459,0.042-0.685c0.017-0.333,0.045-0.666,0.071-0.999
	c0.44,0.003,0.88,0.006,1.32,0.019c0.83,0.025,1.657,0.049,2.489,0.051c1.695,0.006,3.394,0.043,5.09,0
	c1.681-0.043,3.364-0.049,5.047-0.049c0.847,0,1.695-0.004,2.544-0.004c0.806,0,1.614,0.014,2.422-0.004
	c1.068-0.023,2.136-0.045,3.204-0.085c0.63-0.024,1.262-0.031,1.894-0.043c0.011,0.485,0.016,0.97,0.011,1.456
	c-0.508,0.012-1.015,0.024-1.522,0.037C25.769,24.355,24.955,24.34,24.141,24.34z M6.91,18.602c0.144,0.219,0.305,0.422,0.487,0.609
	C7.625,19.45,7.921,19.6,8.22,19.72c0.65,0.262,1.324,0.266,2.004,0.167c0.219-0.031,0.451-0.134,0.65-0.225
	c0.298-0.138,0.55-0.329,0.776-0.567c0.311-0.323,0.554-0.747,0.662-1.183c0.067-0.268,0.102-0.546,0.124-0.822
	c0.034-0.451-0.051-0.897-0.229-1.311c-0.14-0.323-0.335-0.603-0.593-0.85c-0.388-0.372-0.853-0.605-1.356-0.782
	c-0.144-0.051-0.29-0.097-0.434-0.14c-0.076-0.022-0.153-0.033-0.229-0.033c-0.067,0-0.133,0.008-0.198,0.024
	c-0.613,0.016-1.275,0.037-1.814,0.356c-0.637,0.376-1.021,1.078-1.147,1.79c-0.039,0.232-0.081,0.475-0.071,0.709
	c0.016,0.319,0.063,0.634,0.154,0.94C6.606,18.073,6.75,18.358,6.91,18.602z M8.503,15.865C8.502,15.865,8.502,15.865,8.503,15.865
	L8.503,15.865C8.502,15.865,8.502,15.865,8.503,15.865z M8.496,15.87L8.496,15.87c-0.006,0.004-0.011,0.009-0.017,0.013
	C8.484,15.879,8.49,15.874,8.496,15.87z M8.458,15.931c0.036-0.038,0.074-0.074,0.112-0.109c0.068-0.019,0.137-0.034,0.206-0.046
	c0.215-0.019,0.43-0.027,0.646-0.032c0.037,0,0.074-0.003,0.11-0.008c0.114,0.037,0.227,0.076,0.339,0.119
	c0.143,0.07,0.277,0.147,0.407,0.236c0.077,0.067,0.149,0.138,0.219,0.213c0.036,0.057,0.07,0.115,0.103,0.174
	c0.028,0.083,0.051,0.166,0.07,0.251c0.006,0.138,0.003,0.273-0.008,0.412c-0.028,0.154-0.065,0.304-0.117,0.453
	c-0.041,0.076-0.084,0.146-0.13,0.217c-0.057,0.064-0.115,0.125-0.178,0.185c-0.061,0.038-0.122,0.073-0.187,0.106
	c-0.11,0.04-0.221,0.073-0.336,0.098c-0.167,0.013-0.332,0.016-0.499,0.003c-0.132-0.027-0.258-0.063-0.384-0.108
	c-0.043-0.022-0.085-0.046-0.126-0.072c-0.059-0.055-0.113-0.112-0.165-0.171c-0.075-0.118-0.142-0.237-0.204-0.361
	c-0.046-0.129-0.085-0.26-0.112-0.395c-0.013-0.157-0.016-0.313-0.003-0.471c0.031-0.169,0.073-0.332,0.128-0.494
	C8.381,16.062,8.417,15.996,8.458,15.931z M8.226,16.569c0.003-0.026,0.007-0.051,0.011-0.077c-0.004,0.029-0.008,0.057-0.011,0.085
	L8.226,16.569z M8.224,16.582c-0.003,0.021-0.005,0.041-0.008,0.061c-0.001,0.005-0.001,0.01-0.002,0.015
	C8.217,16.633,8.221,16.608,8.224,16.582z M8.213,16.668l0-0.001l0-0.001c-0.001,0.011-0.003,0.021-0.004,0.032
	C8.21,16.688,8.211,16.678,8.213,16.668z"/>
</svg>