<?xml version="1.0" encoding="utf-8"?>
<!-- Generator: Adobe Illustrator 21.1.0, SVG Export Plug-In . SVG Version: 6.00 Build 0)  -->
<svg version="1.1" id="designs" xmlns="http://www.w3.org/2000/svg" xmlns:xlink="http://www.w3.org/1999/xlink" x="0px" y="0px"
	 width="32px" height="32px" viewBox="0 0 32 32" style="enable-background:new 0 0 32 32;" xml:space="preserve">
<style type="text/css">
	.sketchy_een{fill:#111918;}
</style>
<path class="sketchy_een" d="M19.29,27.792c-1.015,0-2.03-0.01-3.046-0.02l-0.423-0.004c-0.963-0.008-1.924-0.031-2.885-0.061
	c-0.389-0.011-0.778-0.016-1.167-0.016c-0.556,0-1.112,0.009-1.667,0.02c-0.334,0.007-0.667,0.01-1.001,0.01
	c-1.554,0-3.09-0.069-4.792-0.153c-0.254-0.014-0.489-0.124-0.662-0.31c-0.305-0.172-0.482-0.461-0.476-0.763
	c0.033-1.407,0.012-2.837-0.008-4.221c-0.019-1.227-0.032-2.424-0.045-3.621l-0.01-0.853c-0.013-1.323-0.012-2.646-0.01-3.97v-1.683
	c0-1.205-0.013-2.41-0.026-3.615C3.063,7.764,3.055,6.994,3.05,6.224c-0.001-0.181,0.065-0.36,0.198-0.531
	C3.228,5.56,3.2,5.467,3.2,5.371c0-0.485,0.392-0.895,0.855-0.895C4.981,4.493,5.893,4.517,6.804,4.54
	C7.63,4.561,8.456,4.582,9.281,4.598c1.594,0.033,3.187,0.033,4.781,0.033l1.503-0.002c0.442,0,0.884,0.001,1.325,0.008
	c0.494,0.007,0.986,0.013,1.478,0.013c0.422,0,0.844-0.004,1.266-0.017c0.479-0.013,0.956-0.04,1.434-0.067
	c0.413-0.023,0.826-0.047,1.24-0.062c0.427-0.017,0.855-0.033,1.281-0.038l0.413,0.002l0.348-0.008
	c0.152-0.122,0.352-0.252,0.625-0.252c0.237,0,0.474,0.103,0.646,0.281c0.166,0.17,0.254,0.388,0.248,0.612L25.85,5.716
	c-0.025,0.765-0.051,1.53-0.066,2.295l-0.011,0.45c-0.014,0.581-0.026,1.163-0.023,1.745l0.608,0.526l0.204,0.149
	c0.417,0.306,0.85,0.623,1.223,0.996c0.469,0.47,0.831,1.122,1.048,1.887c0.158,0.562,0.157,1.2-0.001,2.009
	c-0.13,0.666-0.354,1.206-0.685,1.651c-0.145,0.197-0.238,0.325-0.348,0.43c-0.123,0.117-0.256,0.221-0.392,0.322
	c-0.117,0.084-0.233,0.165-0.353,0.243c-0.347,0.229-0.735,0.395-1.157,0.495c-0.026,0.799-0.005,1.548,0.048,2.296l0.025,0.347
	c0.025,0.331,0.05,0.662,0.06,0.994c0.015,0.469,0.019,0.936,0.022,1.404c0.004,0.396,0.034,0.792,0.064,1.187
	c0.036,0.472,0.073,0.961,0.062,1.44c-0.011,0.485-0.403,0.879-0.876,0.879c-0.183,0.068-0.268,0.134-0.374,0.164
	c-0.444,0.063-0.886,0.123-1.34,0.14c-0.287,0.01-0.574,0.011-0.86,0.011h-0.264c-0.732,0-1.466,0.006-2.198,0.012L19.29,27.792z
	 M12.105,26.023c0.405,0,0.811,0.004,1.216,0.017c1.791,0.061,3.612,0.066,5.373,0.072l0.516,0.001c0.883,0,1.764-0.018,2.646-0.036
	l0.331-0.006c0.727-0.013,1.478-0.026,2.216-0.101c0.04-0.342,0.018-0.634-0.004-0.926l-0.019-0.248
	c-0.222-0.007-0.438-0.011-0.652-0.011c-0.521,0-1.022,0.02-1.524,0.05c-0.765,0.047-1.533,0.079-2.3,0.089
	c-0.304,0.003-0.607,0.005-0.912,0.005c-1.545,0-3.093-0.042-4.637-0.084l-0.133-0.003c-0.78-0.022-1.561-0.039-2.341-0.039
	l-1.532,0.016c-0.68,0.01-1.359,0.02-2.04,0.024c-0.487,0-0.893-0.409-0.893-0.893s0.406-0.893,0.885-0.893
	c1.616,0.01,3.223,0.04,4.829,0.091c1.745,0.056,3.722,0.118,5.678,0.118c1.118,0,2.029-0.023,2.868-0.075
	c0.483-0.029,0.966-0.062,1.45-0.1l0.442-0.029c0.232-0.015,0.465-0.029,0.697-0.05l0.036-0.4c-0.006-0.298-0.013-0.597-0.031-0.895
	c-0.054-0.904-0.076-1.808-0.088-2.711v-0.045c0,0-0.206-0.02-0.241-0.026c-0.569-0.112-1.11-0.313-1.566-0.583
	c-0.796-0.472-1.638-0.994-2.405-1.611c-0.385-0.313-0.764-0.625-1.122-0.969c-0.317-0.304-0.65-0.593-0.985-0.878l-0.116,0.03
	c-0.185,0.084-0.398,0.177-0.609,0.214l-0.115,0.02c-0.165,0.028-0.334,0.058-0.5,0.058c-0.354-0.007-0.661-0.047-0.939-0.121
	c-0.371-0.101-0.641-0.217-0.85-0.368c-0.377-0.275-0.661-0.547-0.892-0.855c-0.087-0.118-0.177-0.239-0.242-0.374
	c-0.109-0.217-0.19-0.38-0.214-0.53l-0.017-0.102c-0.025-0.155-0.05-0.301-0.03-0.451l0.045-0.35l0.052-0.292
	c0.058-0.307,0.132-0.634,0.28-0.943c0.188-0.392,0.503-0.708,0.733-0.905c0.312-0.267,0.682-0.49,0.979-0.67
	c0.131-0.079,0.284-0.121,0.44-0.121c0.205,0,0.407,0.07,0.568,0.196l0.027,0.021l0.111-0.073c0.128-0.074,0.262-0.108,0.418-0.108
	c0.08,0,0.162,0.009,0.247,0.024c0.455,0.083,1.301,0.322,1.84,0.993c0.379,0.466,0.812,1.203,0.725,2.063
	c-0.037,0.371-0.153,0.719-0.347,1.033c-0.087,0.145-0.178,0.293-0.274,0.435c0.263,0.293,0.511,0.522,0.758,0.75l0.356,0.33
	c0.344,0.315,0.707,0.606,1.075,0.893c0.392,0.274,0.788,0.539,1.191,0.794c0.263,0.168,0.613,0.383,0.981,0.554
	c0.146,0.052,0.289,0.089,0.433,0.125l0.129,0.033l0.062-0.174l-0.001-0.125c-0.002-0.979-0.013-1.956-0.029-2.937
	c-0.006-0.351-0.008-0.702-0.01-1.053c-0.004-0.571-0.007-1.143-0.025-1.713c-0.047-1.561-0.058-3.197-0.033-5.001l-0.479-0.04
	l-0.993,0.023c-0.636,0.01-1.27,0.038-1.903,0.065l-0.442,0.02c-0.618,0.026-1.234,0.035-1.852,0.035
	c-0.558,0-1.115-0.007-1.672-0.014l-1.277-0.013c-0.92-0.004-2.826-0.008-2.826-0.008l0.032,0.119
	c0.012,0.044,0.024,0.085,0.024,0.128l-0.006,0.607c-0.002,0.292-0.004,0.584-0.013,0.876c-0.016,0.487-0.058,1.122-0.241,1.703
	c-0.164,0.52-0.424,1.172-0.986,1.612c-0.246,0.193-0.469,0.32-0.749,0.424c-0.162,0.063-0.33,0.103-0.499,0.135L9.819,11.94
	c-0.191,0.033-0.381,0.065-0.57,0.108c-0.004,0.025-0.009,0.05-0.014,0.075L9.21,12.09l0.025,0.035
	c-0.098,0.546-0.152,1.058-0.204,1.57c-0.055,0.55-0.125,1.188-0.271,1.795c-0.067,0.285-0.143,0.587-0.257,0.871l-0.047,0.123
	c-0.059,0.154-0.119,0.313-0.208,0.447c-0.103,0.154-0.217,0.302-0.34,0.438c-0.313,0.343-0.61,0.549-0.906,0.629
	c-0.159,0.043-0.318,0.065-0.471,0.065c-0.271,0-0.531-0.065-0.794-0.2c-0.264-0.135-0.523-0.323-0.749-0.542l-0.115-0.138
	c-0.07,1.416-0.048,2.797-0.025,4.179c0.023,1.472,0.047,2.943,0.065,4.415l0.391,0.077c0.431,0.035,0.862,0.069,1.294,0.093
	c0.765,0.042,1.529,0.068,2.296,0.083c0.283,0.005,0.566,0.007,0.849,0.007C10.125,26.039,11.699,26.023,12.105,26.023z
	 M25.792,12.988c0.02,0.886,0.039,1.771,0.047,2.659c0.004,0.388,0.006,1.397,0.006,1.397c0.248-0.05,0.421-0.146,0.583-0.263
	c0.107-0.093,0.2-0.19,0.288-0.296c0.11-0.157,0.205-0.315,0.287-0.484c0.11-0.308,0.168-0.616,0.215-0.904l-0.092-0.064
	l0.091,0.062c0.019-0.225,0.021-0.443,0.005-0.667c-0.037-0.19-0.09-0.368-0.155-0.545c-0.092-0.199-0.193-0.386-0.311-0.566
	c-0.193-0.229-0.417-0.449-0.687-0.679l-0.289-0.22L25.792,12.988z M4.836,6.315c-0.005,0.791-0.02,1.581-0.035,2.372
	c-0.015,0.771-0.029,1.543-0.034,2.315c-0.006,1.004-0.004,2.009-0.002,3.014l0,0.178c0.434,0.064,0.769,0.323,0.88,0.692
	c0.056,0.178,0.115,0.354,0.183,0.528c0.089,0.204,0.185,0.403,0.301,0.589c0.096,0.105,0.191,0.197,0.292,0.284l0.032,0.018
	l0.091,0.015c0.078-0.072,0.152-0.146,0.224-0.226c0.038-0.06,0.068-0.113,0.097-0.169c0.219-0.581,0.334-1.17,0.41-1.618
	c0.092-0.708,0.191-1.543,0.235-2.387c0.008-0.185,0.017-0.37,0.053-0.546c0.067-0.311,0.235-0.562,0.499-0.748
	c0.23-0.16,0.536-0.218,0.805-0.27c0.13-0.025,0.263-0.046,0.396-0.066c0.285-0.044,0.58-0.09,0.858-0.183
	c0.083-0.041,0.156-0.083,0.227-0.131c0.051-0.046,0.095-0.089,0.137-0.134c0.079-0.117,0.142-0.229,0.199-0.347
	c0.104-0.285,0.181-0.581,0.246-0.935c0.054-0.618,0.068-1.285,0.046-2.044c-0.001-0.045,0.01-0.088,0.023-0.133l0.017-0.063
	l-0.051-0.055l-1.8-0.005l-3.006,0.01L4.836,6.315z M16.331,10.801c-0.239,0.143-0.477,0.286-0.707,0.445
	c-0.12,0.104-0.224,0.212-0.325,0.328c-0.123,0.303-0.188,0.567-0.238,0.878l0.026,0.173c0.057,0.107,0.115,0.2,0.177,0.292
	c0.109,0.121,0.22,0.23,0.338,0.333c0.073,0.049,0.143,0.09,0.215,0.126c0.088,0.029,0.171,0.048,0.253,0.066l0.174,0.038
	l-0.088-0.114l-0.167-0.156c-0.096-0.088-0.191-0.177-0.282-0.27c-0.347-0.351-0.347-0.918,0-1.265
	c0.164-0.164,0.396-0.257,0.638-0.257c0.242,0,0.464,0.091,0.623,0.257c0.283,0.294,0.576,0.578,0.87,0.859l0.043,0.042l0.085-0.131
	c0.029-0.045,0.059-0.09,0.083-0.137c0.021-0.063,0.038-0.119,0.053-0.177c0.003-0.06,0.002-0.109,0-0.159
	c-0.02-0.1-0.045-0.189-0.076-0.279c-0.051-0.102-0.104-0.193-0.163-0.284c-0.082-0.092-0.164-0.174-0.251-0.251
	c-0.099-0.063-0.193-0.114-0.292-0.161c-0.181-0.064-0.359-0.112-0.543-0.147c-0.101-0.019-0.195-0.061-0.279-0.124l-0.031-0.023
	C16.466,10.703,16.368,10.778,16.331,10.801z"/>
</svg>