<?xml version="1.0" encoding="utf-8"?>
<!-- Generator: Adobe Illustrator 19.1.0, SVG Export Plug-In . SVG Version: 6.00 Build 0)  -->
<!DOCTYPE svg PUBLIC "-//W3C//DTD SVG 1.1//EN" "http://www.w3.org/Graphics/SVG/1.1/DTD/svg11.dtd">
<svg version="1.1" id="DESIGNS" xmlns="http://www.w3.org/2000/svg" xmlns:xlink="http://www.w3.org/1999/xlink" x="0px" y="0px"
	 width="64px" height="64px" viewBox="0 0 64 64" style="enable-background:new 0 0 64 64;" xml:space="preserve">
<style type="text/css">
	.fandom_een{fill:#FF786E;}
	.fandom_twee{fill:#BE5652;}
	.fandom_elf{fill:#4B322A;}
	.fandom_twaalf{fill:#644638;}
	.fandom_dertien{fill:#AA9991;}
	.fandom_veertien{fill:#EFEAE0;}
	.st0{fill:#6BC4D2;}
	.st1{fill:#508D9B;}
	.st2{fill:#FFC865;}
	.st3{fill:#8579A3;}
	.st4{fill:#00B3AA;}
	.st5{fill:#BE9148;}
	.st6{fill:#018273;}
	.st7{fill:#685683;}
	.st8{fill:#3A3A3A;}
	.st9{fill:#666666;}
	.st10{fill:#4D4D4D;}
	.st11{fill:#CCCCCC;}
	.st12{fill:#808080;}
	.st13{fill:#FFFAFA;}
</style>
<g>
	<g>
		<path class="fandom_een" d="M32,7C18.193,7,7,18.193,7,32h50C57,18.193,45.807,7,32,7z"/>
		<path class="fandom_twee" d="M32,57c13.807,0,25-11.193,25-25H7C7,45.807,18.193,57,32,57z"/>
	</g>
	<g>
		<path class="fandom_twaalf" d="M20.445,35.012c-3.038-0.005-5.496-2.472-5.49-5.51c0.005-3.038,2.472-5.496,5.51-5.49
			c3.038,0.005,5.496,2.472,5.49,5.51S23.483,35.017,20.445,35.012z M46.733,28.71c0.021-3.037-2.424-5.517-5.462-5.538
			c-3.037-0.021-5.517,2.424-5.538,5.462c-0.021,3.037,2.424,5.517,5.462,5.538C44.233,34.193,46.712,31.747,46.733,28.71z"/>
		<path class="fandom_elf" d="M23.844,33.844c-2.392,1.872-5.849,1.449-7.721-0.943s-1.449-5.849,0.943-7.721
			c0.004-0.003,0.008-0.006,0.012-0.009c-1.947,5.197,4.162,9.664,8.52,6.274C25.255,32.36,24.67,33.198,23.844,33.844z
			 M46.377,30.605c-4.358,3.39-10.467-1.077-8.52-6.274c-0.004,0.003-0.008,0.006-0.012,0.009c-2.392,1.872-2.815,5.328-0.943,7.721
			c1.872,2.392,5.328,2.815,7.721,0.943C45.449,32.357,46.034,31.52,46.377,30.605z"/>
		<path class="fandom_veertien" d="M60.196,41.347c-1.931,1.228-3.993,0.885-5.678-0.406c0.823-1.635,0.457-4.142-2.419-5.999
			c1.297-2.197,1.38-4.662,1.006-7.128c0.533-0.696,0.72-1.506,0.641-2.3C56.641,25.936,57,33.087,57,36.031c0,1.323,2,1.324,2,0
			c0-5.117-1.021-13.407-6.055-12.479c-0.474-1-2.291-2.08-3.982-1.119c-2.005-4.85-6.454-6.07-10.306-4.34
			c-0.092-0.377-0.224-0.744-0.391-1.088c0.15-0.461,0.278-0.932,0.386-1.412c1.287-0.317,2.186-1.62,1.822-3.068
			c-0.213-0.845-0.897-1.541-1.74-1.763c-1.673-0.44-3.178,0.81-3.178,2.411c0,1.284,0.972,2.33,2.218,2.472
			c-0.889,2.321-1.378,2.75-1.968,3.285c-0.692,0.831,0.52,1.014,1.522,1.046c1.122,0.024,6.525,0.385,8.395,1.764
			c-0.661,4.901-5.664,1.318-6.794,0.798c-2.673-1.229-5.044-1.49-6.025-1.325c5.368,1.617,7.251,5.59,10.367,5.411
			c1.14-0.071,2.419-0.632,3.449-1.806c6.457,5.189,2.318,11.861-2.377,13.627c4.494,1.416,4.107,4.764,8.576,3.745
			c2.547,2.381,5.864,2.425,8.288,0.883C62.29,42.384,61.287,40.652,60.196,41.347z M47.669,37.593
			c0.84-0.101,1.652-0.291,2.381-0.654c0.281,1.263,0.735,2.46,1.428,3.535C49.364,40.278,49.461,38.679,47.669,37.593z
			 M12.202,30.927c0.49-0.104-0.356-5.291,2.565-5.04c-0.323,0.677-1.461,3.701-0.825,6.464c-0.349,0.25-0.775,0.412-1.208,0.504
			C11.475,33.122,10.94,31.195,12.202,30.927z M21.661,18.498c1.294,0.294,1.494,1.592,1.494,1.592
			c-3.166-1.157-6.304,0.433-7.908,1.647C14.706,22.817,16.602,17.906,21.661,18.498z M27.967,23.783
			c-0.082,1-1.165,3.14-3.307,3.423c-3.083,0.345-4.718-3.171-5.718-3.597c0,0-0.317-0.522,3.277,1.152
			c0.703,0.34,1.532,0.702,2.307,0.75C25.729,25.421,26.885,24.602,27.967,23.783z M25.318,20.405
			c-0.521-3.373-1.586-4.357-1.586-4.357c0.512-0.347,0.811-0.924,0.811-0.924c0.019,0.025,0.617,1.002,0.617,1.002
			c0.163,0.255,0.335,0.509,0.511,0.76c0.468,0.691,1.101,1.556,2.138,2.748c0.062,0.072,0.104,0.12,0.104,0.12
			C28.146,20.584,26.181,20.4,25.318,20.405z M21.192,11.775c0.344-0.179,0.73-0.289,1.144-0.289c1.381,0,2.5,1.119,2.5,2.5
			c0,0.414-0.115,0.795-0.294,1.138C22.416,16.186,20.127,13.913,21.192,11.775z M9.503,34.816c-0.515-0.934-2.897-4.5-8.539-4.164
			c-1.289,0.077-1.281-1.924,0-2c8.056-0.48,9.397,2.909,10.579,5.37C10.871,32.955,9.134,33.785,9.503,34.816z M53.609,58.031
			c-1.067,0.732-2.184-0.908-1.127-1.633c2.406-1.651,2.575-4.59,1.016-6.965c0.844,0.89,2.034-0.06,1.747-0.959
			C57.22,51.679,57.118,55.625,53.609,58.031z"/>
		<path class="fandom_dertien" d="M55.135,48.243c-2.82-4.428-9.416-4.939-13.841-9.215c1.145-0.027,2.205-0.251,3.163-0.627
			c1.289-0.508,2.529-1.383,3.512-2.492c1.095-1.268,1.803-2.797,2.034-4.34c0.307-2.75-1.15-5.038-3.284-6.751
			c-0.898,1.024-2.128,1.724-3.449,1.806c-1.787,0.102-3.174-1.165-5.036-2.563c0.036-0.036-2.519-2.001-5.331-2.848
			c0.981-0.165,3.352,0.096,6.025,1.325c0.265,0.122,0.742,0.412,1.326,0.721c1.402-0.253,2.869,0.047,4.066,0.859
			c0.689-0.294,1.217-1.001,1.403-2.378c-1.434-1.195-6.52-1.724-8.395-1.764c-1.002-0.032-2.213-0.215-1.522-1.046
			c0.589-0.533,1.078-0.962,1.964-3.273c0.013-0.012,0.26,0.017,0.287,0.017c0.975,0,1.819-0.558,2.232-1.372
			c-2.139,1.095-4.459-1.203-3.369-3.354c-0.809,0.414-1.362,1.256-1.362,2.227c0,0.863,0.437,1.624,1.102,2.073
			c-0.01,0.041-0.021,0.081-0.031,0.122c-0.717-0.275-1.421-0.245-2.105,0.051c-2.078-3.867-6.939-2.109-7.095,0.295
			c-0.721,0.074-1.563,0.161-2.268,0.412c1.152,1.804,2.752,3.628,2.752,3.628c0.234,0.83-1.731,0.646-2.594,0.651
			c-0.521-3.373-1.586-4.357-1.586-4.357c0.35-0.238,0.619-0.544,0.811-0.924c-2.246,1.064-4.402-1.343-3.351-3.349
			c-0.809,0.414-1.356,1.24-1.356,2.211c0,1.381,1.119,2.5,2.5,2.5c0.413,0,0.608-0.075,0.608-0.075
			c0.176,0.223,0.343,0.45,0.491,0.687c-0.849,0.525-1.558,1.144-1.775,1.401c1.294,0.294,1.494,1.592,1.494,1.592
			c-3.166-1.157-6.304,0.433-7.908,1.647c-1.095,2.188-0.479,4.149-0.479,4.149c-0.486,1.02-2.821,7.361,1.835,10.119
			c-2.493,0.478-3.774-0.068-4.993-1.865c-0.656-1.328-2.75-0.266-1.996,0.896c2.432,3.476,6.142,3.653,9.996,1.963
			c-0.233,1.001-1.461,3.518,0.082,5.764c-2.796,2.72-3.65,5.674,0.5,11.15c0.78,1.03,2.248-0.44,1.414-1.414
			c-2.804-3.274-2.238-5.803-0.539-8.031c0.727,0.906,1.272,1.833,0.785,2.857c-0.551,1.158,1.173,2.174,1.727,1.009
			c1.114-2.342-0.017-3.788-1.221-5.329c0.967-0.974,2.058-1.906,3.075-2.837c-0.665,3.859,0.312,8.702,3.192,11.244
			c1.02,0.9,2.234-0.431,1.414-1.414c-2.22-2.664-3.511-7.232-2.334-10.716c0.557,2.946,2.787,6.083,4.675,8.39
			c0.848,1.037,2.352,0.12,1.727-1.009c-0.651-1.175-1.87-2.594-2.886-4.095c1.067,0.347,2.146,0.112,3.175-0.455
			c1.091,2.165,2.752,3.709,4.051,5.963c0.677,1.175,2.228,0.163,1.727-1.009c-1.065-2.491-3.379-3.503-4.226-6.073
			c0.408-0.367,0.8-0.773,1.17-1.203c2.14,7.072,8.813,5.233,7.738,10.496c-0.652,3.193,1.021,4.291,4.174,4.336
			c1.297,0.018,1.263-1.846,0-2c-2.976-0.363-1.622-3.343-2.029-4.821c-1.056-3.839-7.099-3.663-8.104-9.007
			c0.037,0.008,0.074,0.017,0.111,0.024c2.98,4.768,11.458,6.478,14.447,10.57C54.375,50.438,55.75,49.208,55.135,48.243z
			 M14.978,30.021c-0.195-2.125,0.849-4.23,2.813-5.321c1.28,0.943,3.762,5.871,8.144,4.336c0.154,1.789-0.571,3.618-2.091,4.807
			C20.43,36.515,15.376,34.328,14.978,30.021z M21.348,41.259c-1.181-3.187,1.658-5.578,4.763-7.152
			C26.025,37.262,23.688,39.226,21.348,41.259z M24.66,27.206c-3.083,0.345-4.718-3.171-5.718-3.597c0,0-0.204-0.337,1.581,0.4
			c0.003,0.001,0.006,0.003,0.009,0.004c1.327,0.019,2.637,0.517,3.654,1.458c1.238,0.207,2.78-0.931,3.78-1.688
			C27.883,24.793,26.795,26.924,24.66,27.206z M36.867,32.005c-1.48-1.939-1.462-4.557-0.14-6.467
			c2.323,0.668,3.218,2.317,4.668,2.83c1.526,0.538,3.695,0.119,5.138-1.146c0.325,1.216,0.215,2.51-0.29,3.658
			c-2.009-0.334-3.074,0.828-4.65,0.87C39.871,31.796,38.891,30.719,36.867,32.005z"/>
	</g>
</g>
</svg>