<?xml version="1.0" encoding="utf-8"?>
<!-- Generator: Adobe Illustrator 19.1.0, SVG Export Plug-In . SVG Version: 6.00 Build 0)  -->
<!DOCTYPE svg PUBLIC "-//W3C//DTD SVG 1.1//EN" "http://www.w3.org/Graphics/SVG/1.1/DTD/svg11.dtd">
<svg version="1.1" id="DESIGNS" xmlns="http://www.w3.org/2000/svg" xmlns:xlink="http://www.w3.org/1999/xlink" x="0px" y="0px"
	 width="64px" height="64px" viewBox="0 0 64 64" style="enable-background:new 0 0 64 64;" xml:space="preserve">
<style type="text/css">
	.fandom_een{fill:#FF786E;}
	.fandom_twee{fill:#BE5652;}
	.fandom_zeven{fill:#508D9B;}
	.fandom_acht{fill:#6BC4D2;}
	.fandom_veertien{fill:#EFEAE0;}
	.fandom_vijftien{fill:#3A3A3A;}
	.fandom_zestien{fill:#4D4D4D;}
	.st0{fill:#AA9991;}
	.st1{fill:#FFFAFA;}
	.st2{fill:#644638;}
	.st3{fill:#4B322A;}
	.st4{fill:#FFC865;}
	.st5{fill:#BE9148;}
	.st6{fill:#8579A3;}
	.st7{fill:#685683;}
	.st8{fill:#808080;}
	.st9{fill:#CCCCCC;}
	.st10{fill:#666666;}
	.st11{fill:#018273;}
	.st12{fill:#00B3AA;}
</style>
<g>
	<g>
		<path class="fandom_acht" d="M32,7C18.193,7,7,18.193,7,32h50C57,18.193,45.807,7,32,7z"/>
		<path class="fandom_zeven" d="M32,57c13.807,0,25-11.193,25-25H7C7,45.807,18.193,57,32,57z"/>
	</g>
	<g>
		<path class="fandom_veertien" d="M33,10h-2V7h2V10z M33,44h-2v6h2V44z M33,34h-2v6h2V34z M33,24h-2v6h2V24z M33,14h-2v6h2V14z
			 M33,54h-2v3.062h2V54z"/>
		<path class="fandom_zestien" d="M18,29v24c0,0.552-0.448,1-1,1h-2V28h2C17.552,28,18,28.448,18,29z M51,10h-2v26h2
			c0.552,0,1-0.448,1-1V11C52,10.448,51.552,10,51,10z"/>
		<path class="fandom_vijftien" d="M15,54h-2c-0.552,0-1-0.448-1-1V29c0-0.552,0.448-1,1-1h2V54z M49,10h-2c-0.552,0-1,0.448-1,1v24
			c0,0.552,0.448,1,1,1h2V10z"/>
		<circle class="fandom_een" cx="38.501" cy="22.5" r="2.5"/>
		<path class="fandom_twee" d="M38.128,20.039c-0.905,0.138-1.703,0.759-2.005,1.689c-0.427,1.313,0.292,2.723,1.605,3.15
			c0.93,0.302,1.902,0.022,2.545-0.629C37.898,24.611,36.44,21.745,38.128,20.039z"/>
	</g>
</g>
</svg>