<?xml version="1.0" encoding="utf-8"?>
<!-- Generator: Adobe Illustrator 19.1.0, SVG Export Plug-In . SVG Version: 6.00 Build 0)  -->
<!DOCTYPE svg PUBLIC "-//W3C//DTD SVG 1.1//EN" "http://www.w3.org/Graphics/SVG/1.1/DTD/svg11.dtd">
<svg version="1.1" id="DESIGNS" xmlns="http://www.w3.org/2000/svg" xmlns:xlink="http://www.w3.org/1999/xlink" x="0px" y="0px"
	 width="64px" height="64px" viewBox="0 0 64 64" style="enable-background:new 0 0 64 64;" xml:space="preserve">
<style type="text/css">
	.fandom_drie{fill:#BE9148;}
	.fandom_vier{fill:#FFC865;}
	.fandom_vijf{fill:#018273;}
	.fandom_zes{fill:#00B3AA;}
	.fandom_zeven{fill:#508D9B;}
	.fandom_acht{fill:#6BC4D2;}
	.fandom_zestien{fill:#4D4D4D;}
	.fandom_zeventien{fill:#666666;}
	.fandom_achttien{fill:#808080;}
	.st0{fill:#4B322A;}
	.st1{fill:#EFEAE0;}
	.st2{fill:#BE5652;}
	.st3{fill:#FF786E;}
	.st4{fill:#644638;}
	.st5{fill:#8579A3;}
	.st6{fill:#685683;}
	.st7{fill:#3A3A3A;}
	.st8{fill:#CCCCCC;}
	.st9{fill:#AA9991;}
	.st10{fill:#FFFAFA;}
</style>
<g>
	<g>
		<path class="fandom_acht" d="M32,7C18.193,7,7,18.193,7,32h50C57,18.193,45.807,7,32,7z"/>
		<path class="fandom_zeven" d="M32,57c13.807,0,25-11.193,25-25H7C7,45.807,18.193,57,32,57z"/>
	</g>
	<g>
		<path class="fandom_vier" d="M32,16.062c-0.516,0-1.026,0.026-1.529,0.077C28.595,18.518,24.255,23.459,24,30v25.685
			C26.513,56.533,29.201,57,32,57c5.628,0,10.822-1.861,15-5V31.062C47,22.778,40.284,16.062,32,16.062z"/>
		<path class="fandom_drie" d="M17,31.062V52c2.101,1.578,4.46,2.827,7,3.684V30c0.255-6.541,4.595-11.482,6.471-13.86
			C22.905,16.906,17,23.294,17,31.062z"/>
		<path class="fandom_achttien" d="M32,57c2.069,0,4.077-0.256,6-0.73l-0.018-9.493C37.801,43.626,35.196,41,32,41
			s-5.801,2.626-5.982,5.777L26,56.27C27.923,56.744,29.931,57,32,57z"/>
		<path class="fandom_zeventien" d="M30,31c0,2.761-2.239,5-5,5s-5-2.239-5-5s2.239-5,5-5S30,28.239,30,31z M41,34
			c-2.209,0-4,1.791-4,4s1.791,4,4,4s4-1.791,4-4S43.209,34,41,34z M48,28v-5h-1c-0.552,0-1,0.448-1,1v3h-1c-0.552,0-1,0.448-1,1v1
			h3C47.552,29,48,28.552,48,28z"/>
		<path class="fandom_zestien" d="M49,23h-1v5c0,0.552-0.448,1-1,1h-3v1c0,0.552,0.448,1,1,1h3c1.105,0,2-0.895,2-2v-5
			C50,23.448,49.552,23,49,23z"/>
		<path class="fandom_zes" d="M29.511,16.283L29.511,16.283c-1.215,0.203-0.971,0.18-0.971,0.18
			c-1.676-4.366-3.866-8.529-4.918-10.443c0.257-0.046,0.56,0.041,0.85,0.306c1.553,1.421,3.38,3.381,4.501,5.899
			C29.027,13.646,29.215,15.011,29.511,16.283z M24.456,18.095C24.455,18.095,24.455,18.095,24.456,18.095
			c-0.126,0.073,0.963-0.525,1.672-0.827c-1.467-1.842-3.332-3.157-4.895-4.09c-0.312-0.186-0.602-0.211-0.825-0.125
			C21.291,14.077,22.831,15.916,24.456,18.095z M41.981,19.862c1.312-2.01,1.913-4.168,2.245-5.901
			c0.089-0.465-0.076-0.797-0.376-0.915c-0.896,1.039-2.47,2.922-4.126,5.153C40.529,18.685,41.283,19.24,41.981,19.862z
			 M38.221,17.405c0.71-0.952,1.358-2.023,1.875-3.21c1.117-2.569,1.279-5.229,1.235-7.309c-0.011-0.513-0.274-0.812-0.619-0.873
			c-1.057,1.922-3.267,6.126-4.949,10.526C36.614,16.758,37.435,17.046,38.221,17.405z M35.216,12.561
			c0.019-0.364,0.034-0.73,0.034-1.102c0-3.588-1.118-6.836-2.185-9.293c-0.263-0.606-0.701-0.866-1.12-0.777
			c-0.246,2.757-0.673,8.712-0.431,14.68c0.163-0.005,0.322-0.006,0.486-0.006c0.747,0,1.475,0.069,2.192,0.175
			C34.374,15.045,34.701,13.802,35.216,12.561z"/>
		<path class="fandom_vijf" d="M39.724,18.2l-1.503-0.795c0.216-0.29,0.412-0.612,0.615-0.923c1.332-1.427,2.858-2.513,4.182-3.304
			c0.313-0.187,0.604-0.212,0.827-0.124C42.947,14.094,41.377,15.974,39.724,18.2z M35.762,16.538
			c1.68-4.395,3.886-8.594,4.945-10.518c-0.257-0.046-0.56,0.042-0.849,0.306c-1.575,1.441-3.434,3.432-4.551,6.001
			c-0.574,1.319-0.923,2.646-1.116,3.914C35.607,16.448,35.762,16.538,35.762,16.538z M31.944,1.401
			c-0.313,0.064-0.613,0.311-0.81,0.764c-1.067,2.458-2.184,5.706-2.184,9.293c0,1.701,0.213,3.324,0.561,4.824
			c0.318-0.053,0.635-0.11,0.96-0.143c0.503-0.051,1.205-0.076,1.043-0.071C31.273,10.109,31.698,4.163,31.944,1.401z
			 M26.033,17.294c0.802-0.348,1.64-0.626,2.508-0.831c-1.678-4.372-3.872-8.541-4.922-10.451c-0.345,0.062-0.604,0.364-0.615,0.876
			c-0.044,2.079,0.118,4.74,1.235,7.309C24.734,15.338,25.354,16.369,26.033,17.294z M22.182,19.721
			c0.352-0.305,0.717-0.592,1.096-0.864c0.001-0.001,0.002-0.002,0.003-0.002c0.379-0.271,0.77-0.524,1.174-0.76c0,0,0,0,0,0
			c-1.627-2.184-3.171-4.026-4.053-5.048c-0.299,0.117-0.474,0.435-0.382,0.9C20.356,15.655,20.947,17.763,22.182,19.721z"/>
	</g>
</g>
</svg>