<?xml version="1.0" encoding="utf-8"?>
<!-- Generator: Adobe Illustrator 19.1.0, SVG Export Plug-In . SVG Version: 6.00 Build 0)  -->
<!DOCTYPE svg PUBLIC "-//W3C//DTD SVG 1.1//EN" "http://www.w3.org/Graphics/SVG/1.1/DTD/svg11.dtd">
<svg version="1.1" id="DESIGNS" xmlns="http://www.w3.org/2000/svg" xmlns:xlink="http://www.w3.org/1999/xlink" x="0px" y="0px"
	 width="64px" height="64px" viewBox="0 0 64 64" style="enable-background:new 0 0 64 64;" xml:space="preserve">
<style type="text/css">
	.fandom_negen{fill:#685683;}
	.fandom_tien{fill:#8579A3;}
	.fandom_elf{fill:#4B322A;}
	.fandom_twaalf{fill:#644638;}
	.fandom_dertien{fill:#AA9991;}
	.fandom_veertien{fill:#EFEAE0;}
	.fandom_vijftien{fill:#3A3A3A;}
	.fandom_zestien{fill:#4D4D4D;}
	.st0{fill:#FF786E;}
	.st1{fill:#BE5652;}
	.st2{fill:#FFFAFA;}
	.st3{fill:#6BC4D2;}
	.st4{fill:#508D9B;}
	.st5{fill:#FFC865;}
	.st6{fill:#BE9148;}
	.st7{fill:#808080;}
	.st8{fill:#CCCCCC;}
	.st9{fill:#666666;}
	.st10{fill:#018273;}
	.st11{fill:#00B3AA;}
</style>
<g>
	<g>
		<path class="fandom_tien" d="M32,7C18.193,7,7,18.193,7,32h50C57,18.193,45.807,7,32,7z"/>
		<path class="fandom_negen" d="M32,57c13.807,0,25-11.193,25-25H7C7,45.807,18.193,57,32,57z"/>
	</g>
	<g>
		<path class="fandom_zestien" d="M38.166,27.699L20.479,6.262c-0.84-1.019,0.696-2.297,1.543-1.273l17.688,21.438
			C40.566,27.467,38.994,28.701,38.166,27.699z"/>
		<path class="fandom_veertien" d="M54.346,8.729c-1.609-0.304-3.216,0.99-4.2,2.061L19.613,43.332c0,0,2.304,0.435,2.333,0.441
			c1.884,0.33,3.551,0.54,5.337,0.599c0.849,0.025,1.708,0.009,2.58-0.061L56.5,11.219C56.599,10.021,55.649,8.977,54.346,8.729z
			 M37.174,32.051l-2.327-1.96l16.771-17.948c0,0,1.943-1.893,2.654-1.306L37.174,32.051z"/>
		<path class="fandom_dertien" d="M34.847,30.091l16.771-17.948c0.622-0.676,2.091-1.81,2.654-1.306L37.174,32.051L34.847,30.091z
			 M32.585,29.506l-2.648-0.193L16.04,42.641l3.575,0.689L32.585,29.506z"/>
		<path class="fandom_elf" d="M18.679,26.441l1.694-1.481c0.832-0.727,2.095-0.642,2.822,0.19l1.712,1.959l-4.706,4.113
			l-1.712-1.959C17.762,28.432,17.847,27.168,18.679,26.441z M7.322,40.43l1.712,1.959l4.706-4.113l-1.712-1.959
			c-0.727-0.832-1.99-0.917-2.822-0.19l-1.694,1.481C6.68,38.335,6.595,39.598,7.322,40.43z M38.872,43.492
			c0.123-0.194,16.953-26.715,17.134-26.856c-0.073-0.232-0.067-0.488,0.042-0.722l0.808-1.732c0.093-0.199,0.118-0.423,0.071-0.637
			L56.5,11.219L29.828,44.312C30.984,44.312,35.882,43.501,38.872,43.492z"/>
		<path class="fandom_twaalf" d="M9.553,42.981l-0.519-0.592l0.169-0.147C9.316,42.491,9.433,42.736,9.553,42.981z M28.249,30.932
			l-3.342-3.823l-4.706,4.113l3.535,4.037L28.249,30.932z M13.325,42.215c-1.247-0.159-2.484-0.261-3.717-0.327l4.133-3.613
			l3.124,3.574l-0.825,0.791L13.325,42.215z M61.393,24.08c-0.862-0.412-2.046-0.731-2.815,0.069L44.877,43.773
			c-2.023-0.23-4.013-0.318-6.004-0.281L55.875,16.75c0,0,1.187-1.25,2.937,0.062c1.27,0.952,2.627,4.689,3.276,6.669
			C62.227,23.903,61.792,24.271,61.393,24.08z"/>
		<path class="fandom_vijftien" d="M32,57c8.992,0,16.872-4.749,21.276-11.874c-1.936-0.296-3.872-0.655-5.831-0.993
			c-5.499-0.95-10.633-0.802-16.131,0.017c-6.303,0.939-11.833-1.148-17.989-1.934c-1.445-0.184-2.879-0.304-4.306-0.364
			C12.842,50.759,21.691,57,32,57z"/>
	</g>
</g>
</svg>