<?xml version="1.0" encoding="utf-8"?>
<!-- Generator: Adobe Illustrator 19.1.0, SVG Export Plug-In . SVG Version: 6.00 Build 0)  -->
<!DOCTYPE svg PUBLIC "-//W3C//DTD SVG 1.1//EN" "http://www.w3.org/Graphics/SVG/1.1/DTD/svg11.dtd">
<svg version="1.1" id="DESIGNS" xmlns="http://www.w3.org/2000/svg" xmlns:xlink="http://www.w3.org/1999/xlink" x="0px" y="0px"
	 width="64px" height="64px" viewBox="0 0 64 64" style="enable-background:new 0 0 64 64;" xml:space="preserve">
<style type="text/css">
	.fandom_drie{fill:#BE9148;}
	.fandom_vier{fill:#FFC865;}
	.fandom_zeven{fill:#508D9B;}
	.fandom_acht{fill:#6BC4D2;}
	.fandom_zestien{fill:#4D4D4D;}
	.fandom_zeventien{fill:#666666;}
	.st0{fill:#FF786E;}
	.st1{fill:#BE5652;}
	.st2{fill:#EFEAE0;}
	.st3{fill:#AA9991;}
	.st4{fill:#FFFAFA;}
	.st5{fill:#644638;}
	.st6{fill:#4B322A;}
	.st7{fill:#8579A3;}
	.st8{fill:#685683;}
	.st9{fill:#3A3A3A;}
	.st10{fill:#808080;}
	.st11{fill:#CCCCCC;}
	.st12{fill:#018273;}
	.st13{fill:#00B3AA;}
</style>
<g>
	<g>
		<path class="fandom_acht" d="M32,7C18.193,7,7,18.193,7,32h50C57,18.193,45.807,7,32,7z"/>
		<path class="fandom_zeven" d="M32,57c13.807,0,25-11.193,25-25H7C7,45.807,18.193,57,32,57z"/>
	</g>
	<g>
		<path class="fandom_vier" d="M31.838,17.894c0,0-0.719,0.515-0.58,0.843c-0.001-0.001-0.469-0.484-1.167-0.245l-10.026,3.442
			c0,0-0.553,0.792-0.691,1.275c0,0-0.652-0.507-1.731-0.376c-0.007,0.002-12.608,4.472-12.608,4.472s-1.963,0.878-1.061,3.383
			c0.012,0.033,1.741,4.621,1.769,4.599C3.989,37.64,5.071,39.84,6.716,40.65l2.064,5.65c0.095,0.264,0.298,0.477,0.557,0.584
			l9.69,4.025c0.252,0.105,0.536,0.102,0.785-0.008L57.755,34.14c0.485-0.214,0.718-0.77,0.532-1.266l-2.023-5.392
			c0.9-0.249,1.694-0.867,2.139-1.771c1.053-2.138-0.605-3.885-0.605-3.885c-0.256-0.257-0.547-0.486-0.891-0.655l-6.523-3.211
			c-1.428-0.703-3.1-0.299-4.079,0.869l-1.405-3.071c-0.324-0.671-0.612-2.073-2.585-1.402L31.838,17.894z"/>
		<path class="fandom_drie" d="M57.75,21.827c-0.924,1.414-2.768,1.96-4.322,1.194l-6.722-3.32l1.788,3.909l-11.383,4.328
			c-1.804-2.084-2.922-8.092-1.85-11.201l-3.424,1.156c0,0-0.719,0.515-0.58,0.843l4.113,9.864l-8.668,3.296
			c-3.42-5.853-0.696-10.602,0.772-12.507c-2.983,1.024-7.41,2.544-7.41,2.544s-0.553,0.792-0.691,1.275l3.793,10.033l-7.8,2.966
			c-3.693-4.875-2.029-9.782-0.661-12.334l-9.672,3.431c0,0-1.963,0.878-1.061,3.383c0.401,1.112,1.761,4.605,1.761,4.605
			l0.007-0.006L5.39,35.759c0.079,0.287,0.547,0.486,0.891,0.655l6.523,3.211c1.552,0.764,3.393,0.22,4.318-1.19
			c0.255,0.256,0.392,0.405,0.568,0.715c1.638,2.905-1.475,6.174-4.45,4.71l-6.49-3.195l2.031,5.633
			c0.095,0.264,0.298,0.477,0.557,0.584l9.69,4.025c0.252,0.105,0.536,0.102,0.785-0.008l14.975-6.569l0.907-12.247l19.43-7.641
			l1.14,3.038c0.9-0.249,1.694-0.867,2.139-1.771C59.062,24.375,58.747,22.825,57.75,21.827z"/>
		<path class="fandom_zestien" d="M58.75,3.938l-6.649-1.065c-0.955-0.191-1.908,0.333-2.258,1.242l-3.016,7.824
			c-0.224,0.582,0.135,1.226,0.747,1.347l4.648,0.92l-6.027,30.701l-1.928-0.38c-0.54-0.106-1.068,0.248-1.174,0.788l-0.368,1.87
			c-0.106,0.54,0.248,1.068,0.788,1.174l5.795,1.142c0.54,0.106,1.068-0.248,1.174-0.788l0.368-1.87
			c0.106-0.54-0.248-1.068-0.788-1.174c-0.047-0.009-1.908-0.359-1.899-0.405c0,0,4.068-20.761,6.022-30.66
			c0.038,0.008,4.663,0.934,4.674,0.936c0.607,0.122,1.177-0.332,1.195-0.951l0.246-8.378C60.329,5.236,59.707,4.129,58.75,3.938z"
			/>
		<path class="fandom_zeventien" d="M50.85,46.843l-0.368,1.87c-0.106,0.54-0.635,0.894-1.174,0.788l-1.93-0.376l0.761-3.863
			l0.025,0.001c-0.009,0.047,1.852,0.396,1.899,0.405C50.601,45.775,50.956,46.303,50.85,46.843z M60.301,6.211
			c0.029-0.975-0.65-2.082-1.607-2.273l-2.367-0.39l-2.145,11.055c0,0,4.666,0.935,4.678,0.937c0.607,0.122,1.177-0.332,1.195-0.951
			L60.301,6.211z"/>
	</g>
</g>
</svg>