<?xml version="1.0" encoding="utf-8"?>
<!-- Generator: Adobe Illustrator 19.1.0, SVG Export Plug-In . SVG Version: 6.00 Build 0)  -->
<!DOCTYPE svg PUBLIC "-//W3C//DTD SVG 1.1//EN" "http://www.w3.org/Graphics/SVG/1.1/DTD/svg11.dtd">
<svg version="1.1" id="DESIGNS" xmlns="http://www.w3.org/2000/svg" xmlns:xlink="http://www.w3.org/1999/xlink" x="0px" y="0px"
	 width="64px" height="64px" viewBox="0 0 64 64" style="enable-background:new 0 0 64 64;" xml:space="preserve">
<style type="text/css">
	.fandom_een{fill:#FF786E;}
	.fandom_twee{fill:#BE5652;}
	.fandom_vier{fill:#FFC865;}
	.fandom_vijftien{fill:#3A3A3A;}
	.fandom_zestien{fill:#4D4D4D;}
	.fandom_achttien{fill:#808080;}
	.fandom_negentien{fill:#CCCCCC;}
	.st0{fill:#EFEAE0;}
	.st1{fill:#AA9991;}
	.st2{fill:#FFFAFA;}
	.st3{fill:#644638;}
	.st4{fill:#6BC4D2;}
	.st5{fill:#508D9B;}
	.st6{fill:#4B322A;}
	.st7{fill:#BE9148;}
	.st8{fill:#8579A3;}
	.st9{fill:#685683;}
	.st10{fill:#666666;}
	.st11{fill:#018273;}
	.st12{fill:#00B3AA;}
</style>
<g>
	<g>
		<path class="fandom_een" d="M32,7C18.193,7,7,18.193,7,32h50C57,18.193,45.807,7,32,7z"/>
		<path class="fandom_twee" d="M32,57c13.807,0,25-11.193,25-25H7C7,45.807,18.193,57,32,57z"/>
	</g>
	<g>
		<path class="fandom_zestien" d="M51.37,14.272l2.887-2.97c0.233-0.24,0.57-0.347,0.899-0.286l1.182,0.219
			c0.785,0.146,1.092,1.108,0.535,1.68l-2.276,2.341c-0.716-0.676-1.672-1.066-2.701-1.01L51.37,14.272z M47.859,14.444l2.491-0.122
			l0.94-1.638c0.443-0.773-0.269-1.696-1.129-1.463l-1.365,0.37c-0.256,0.069-0.474,0.238-0.606,0.468l-1.47,2.561
			C47.088,14.525,47.468,14.465,47.859,14.444z M56.783,19.802l-1.397,0.378c-0.101,0.191-1.475,3.335-1.558,3.53l2.774-0.751
			c0.256-0.069,0.474-0.237,0.606-0.468l0.704-1.227C58.355,20.493,57.643,19.57,56.783,19.802z M57.976,14.344l-2.808,1.588
			c0.397,0.592,0.646,1.305,0.689,2.082c0.019,0.348-0.005,0.687-0.067,1.013l3.082-1.743c0.291-0.165,0.481-0.464,0.505-0.797
			l0.088-1.199C59.524,14.491,58.671,13.951,57.976,14.344z"/>
		<path class="fandom_vier" d="M53.522,24.319c-0.704,1.264-1.794,2.262-3.118,2.787c0.168-1.155,0.141-2.379-0.112-3.616
			c-0.75-3.666-3.277-6.44-6.281-7.328c0.592-0.582,1.302-1.028,2.081-1.326C50.963,15.464,53.382,19.222,53.522,24.319z
			 M55.857,18.014c-0.12-2.194-1.893-3.881-3.961-3.768l-1.355,0.066c2.21,1.347,3.823,3.499,4.554,6.508l0.242-0.549
			C55.707,19.615,55.902,18.838,55.857,18.014z"/>
		<path class="fandom_achttien" d="M21.068,25.932l6.021-4.427c1.248-0.918,3.004-0.65,3.921,0.599
			c0.113,0.153,0.197,0.278,0.294,0.476c-0.224,0.212-0.436,0.435-0.635,0.669l-7.055,7.662
			C20.592,31.873,18.512,27.811,21.068,25.932z M50.415,33.225c-6.165,4.478-8.081,5.987-8.081,5.987
			c0.187,2.811,3.437,4.492,5.815,2.743c0,0,7.756-5.565,8.068-5.976C56.042,33.081,52.744,31.513,50.415,33.225z M46.711,33.2
			c0.229-1.844,1.839-17.792-11.575-12.683c8.491-1.048,8.72,6.152,8.613,8.22c-0.018,0.346-0.208,0.658-0.51,0.827l-13.615,7.645
			c-0.22,0.124-0.479,0.159-0.725,0.1l-4.782-2.192c-0.77-0.186-1.44,0.553-1.18,1.301l2.886,2.819
			c0.18,0.517-0.089,1.082-0.603,1.269L13.177,44.88c-0.105,0.062-0.207,0.122-0.312,0.183l-2.201,1.901
			c-0.233,0.202-0.547,0.284-0.849,0.224L7.37,46.096l1.932-7.216c0.075-0.276,0.264-0.506,0.52-0.634l3.099-1.54
			c0.184-0.091,0.335-0.237,0.433-0.417l1.297-2.379c0.141-0.259,0.389-0.442,0.678-0.501l3.862-0.79
			c0.167-0.034,0.34-0.025,0.503,0.026l2.231,0.707c0.327-0.821,0.823-1.565,1.451-2.182l7.295-7.922
			c1.129-1.327,2.669-2.313,4.466-2.732c1.04-2.296,2.958-4.015,5.395-4.513c4.362-0.893,8.732,2.459,9.761,7.487
			C51.11,27.487,49.569,31.34,46.711,33.2z M12.258,40.939l-0.949-0.312c-0.508-0.167-1.057,0.095-1.247,0.595l-1.024,2.695
			c-0.417,1.097,1.158,1.921,1.849,1.014l1.855-2.436C13.158,41.948,12.911,41.154,12.258,40.939z"/>
		<path class="fandom_negentien" d="M9.037,43.917l1.024-2.695c0.19-0.5,0.739-0.762,1.247-0.595l0.949,0.312
			c0.653,0.215,0.9,1.009,0.484,1.556l-1.855,2.436C10.195,45.838,8.62,45.014,9.037,43.917z"/>
		<path class="fandom_vijftien" d="M53.522,24.326c-0.137-5.071-2.53-8.874-7.459-9.495c0.563-0.218,1.165-0.353,1.796-0.387
			l2.682-0.132c2.205,1.344,3.821,3.493,4.554,6.508l-1.207,2.745C53.782,23.829,53.659,24.082,53.522,24.326z M30.081,23.888
			c0.295-0.32,0.97-1.069,1.223-1.308c-0.22-0.449-0.532-0.802-0.929-1.085C30.64,22.298,30.532,23.18,30.081,23.888z M23.614,30.91
			l5.814-6.314c-0.069,0.053-6.064,4.459-6.064,4.459c-1.003,0.737-2.326,0.698-3.286,0.011
			C20.597,30.643,22.201,31.36,23.614,30.91z M48.15,41.955c-2.374,1.745-5.628,0.072-5.816-2.743
			c-3.428,3.11,0.939,8.377,4.627,5.666l7.803-5.736c1.039-0.764,1.546-1.975,1.466-3.173C55.787,36.371,48.15,41.955,48.15,41.955z
			 M48.706,34.481c-0.042-0.028-1.953-1.309-1.995-1.282c0.23-1.848,1.837-17.79-11.575-12.683c8.491-1.048,8.72,6.152,8.613,8.22
			c-0.018,0.346-0.208,0.658-0.51,0.827l-13.615,7.645c-0.22,0.124-0.479,0.159-0.725,0.1l-4.782-2.192
			c-0.77-0.186-1.44,0.553-1.18,1.301l2.886,2.819c0.18,0.517-0.089,1.082-0.603,1.269L13.177,44.88
			c-0.105,0.062-0.207,0.122-0.312,0.183l-2.201,1.901c-0.233,0.202-0.547,0.284-0.849,0.224L7.37,46.096
			c0,0-0.551,1.878-0.73,2.588c-0.178,0.71,0.371,1.066,0.371,1.066l1.626,1.19c0.77,0.332,1.315-0.227,1.315-0.227l3.906-3.237
			c0.112-0.061,0.221-0.121,0.333-0.182l12.228-3.92c0.158-0.051,0.3-0.139,0.415-0.259l0.948-0.984
			c1.618,0.039,3.207-0.954,3.207-0.954l9.854-4.898l2.854,1.884L48.706,34.481z"/>
	</g>
</g>
</svg>