<?xml version="1.0" encoding="utf-8"?>
<!-- Generator: Adobe Illustrator 19.1.0, SVG Export Plug-In . SVG Version: 6.00 Build 0)  -->
<!DOCTYPE svg PUBLIC "-//W3C//DTD SVG 1.1//EN" "http://www.w3.org/Graphics/SVG/1.1/DTD/svg11.dtd">
<svg version="1.1" id="DESIGNS" xmlns="http://www.w3.org/2000/svg" xmlns:xlink="http://www.w3.org/1999/xlink" x="0px" y="0px"
	 width="64px" height="64px" viewBox="0 0 64 64" style="enable-background:new 0 0 64 64;" xml:space="preserve">
<style type="text/css">
	.fandom_twee{fill:#BE5652;}
	.fandom_vijf{fill:#018273;}
	.fandom_zeven{fill:#508D9B;}
	.fandom_acht{fill:#6BC4D2;}
	.fandom_negen{fill:#685683;}
	.fandom_veertien{fill:#EFEAE0;}
	.st0{fill:#FF786E;}
	.st1{fill:#AA9991;}
	.st2{fill:#FFFAFA;}
	.st3{fill:#644638;}
	.st4{fill:#4B322A;}
	.st5{fill:#FFC865;}
	.st6{fill:#BE9148;}
	.st7{fill:#8579A3;}
	.st8{fill:#4D4D4D;}
	.st9{fill:#3A3A3A;}
	.st10{fill:#808080;}
	.st11{fill:#CCCCCC;}
	.st12{fill:#666666;}
	.st13{fill:#00B3AA;}
</style>
<g>
	<g>
		<path class="fandom_acht" d="M32,7C18.193,7,7,18.193,7,32h50C57,18.193,45.807,7,32,7z"/>
		<path class="fandom_zeven" d="M32,57c13.807,0,25-11.193,25-25H7C7,45.807,18.193,57,32,57z"/>
	</g>
	<g>
		<path class="fandom_veertien" d="M25.5,13c-1.103,0-2.166,0.172-3.165,0.488c-0.942,1.344-2.03,2.732-3.335,4.144v14.105
			C20.789,33.15,23.043,34,25.5,34C31.299,34,36,29.299,36,23.5C36,17.701,31.299,13,25.5,13z"/>
		<path class="fandom_twee" d="M10,25.16V55.5c0,0.828-0.672,1.5-1.5,1.5S7,56.328,7,55.5V26.811c0.186,0.009,0.379-0.03,0.56-0.136
			C8.41,26.176,9.222,25.67,10,25.16z M21.163,3.437c-1.827,4.707-5.934,11.716-15.129,18.04l0.007,3.195
			C18.119,17.271,22.58,8.515,24.2,3.538L21.163,3.437z M15.161,3.237c-1.725,3.41-4.542,7.504-9.141,11.556l0.007,3.437
			c6.722-5.239,10.255-10.741,12.095-14.894L15.161,3.237z M8.582,3.018C7.854,4.176,6.003,6.613,6.003,6.613l0.009,4.4
			c2.675-2.749,4.591-5.454,5.958-7.882L8.582,3.018z M13,23.024V55.5c0,0.828,0.672,1.5,1.5,1.5s1.5-0.672,1.5-1.5V20.572
			C15.081,21.394,14.068,22.211,13,23.024z M41,6.555V42c0,0.809-0.488,1.539-1.235,1.848L19,52.44v-2.164l6-2.483V9.055
			c0.777-1.556,1.327-2.965,1.712-4.153c0.086-0.267,0.051-0.535-0.063-0.76l12.418,0.414C40.145,4.593,41,5.477,41,6.555z M39,8.49
			c0-1.079-0.855-1.963-1.933-1.999L27,6.156v40.81l10.765-4.454C38.512,42.202,39,41.472,39,40.663V8.49z"/>
		<path class="fandom_negen" d="M22.347,13.483c1.091-1.558,1.965-3.052,2.653-4.428v3.97C24.081,13.069,23.19,13.218,22.347,13.483
			z M19,31.736v18.54l6-2.483V33.975C22.738,33.868,20.666,33.053,19,31.736z M39,8.49v32.173c0,0.809-0.488,1.539-1.235,1.848
			L27,46.966V33.881c5.086-0.73,9-5.092,9-10.381c0-5.288-3.914-9.651-9-10.381V6.156l10.067,0.336C38.145,6.527,39,7.411,39,8.49z"
			/>
		<path class="fandom_vijf" d="M21.163,3.437c-1.827,4.707-5.934,11.716-15.129,18.04L6.027,18.23
			c6.722-5.239,10.255-10.741,12.095-14.894L21.163,3.437z M11.97,3.131c-1.367,2.429-3.283,5.133-5.958,7.882l0.008,3.78
			c4.599-4.052,7.416-8.146,9.141-11.556L11.97,3.131z M8.067,3.001C6.935,2.963,5.998,3.872,6,5.004l0.003,1.609
			c0.996-1.232,1.85-2.437,2.579-3.595L8.067,3.001z M25.794,3.591L24.2,3.538c-1.62,4.976-6.081,13.732-18.16,21.134l0.002,1.147
			c0.002,0.777,0.848,1.249,1.518,0.855C8.41,26.176,9.222,25.67,10,25.16V55.5c0,0.828,0.672,1.5,1.5,1.5s1.5-0.672,1.5-1.5V23.024
			c1.068-0.812,2.081-1.63,3-2.452V55.5c0,0.828,0.672,1.5,1.5,1.5s1.5-0.672,1.5-1.5V17.631c4.528-4.898,6.694-9.582,7.712-12.729
			C26.918,4.267,26.461,3.614,25.794,3.591z"/>
	</g>
</g>
</svg>