<?xml version="1.0" encoding="utf-8"?>
<!-- Generator: Adobe Illustrator 19.1.0, SVG Export Plug-In . SVG Version: 6.00 Build 0)  -->
<!DOCTYPE svg PUBLIC "-//W3C//DTD SVG 1.1//EN" "http://www.w3.org/Graphics/SVG/1.1/DTD/svg11.dtd">
<svg version="1.1" id="DESIGNS" xmlns="http://www.w3.org/2000/svg" xmlns:xlink="http://www.w3.org/1999/xlink" x="0px" y="0px"
	 width="64px" height="64px" viewBox="0 0 64 64" style="enable-background:new 0 0 64 64;" xml:space="preserve">
<style type="text/css">
	.fandom_een{fill:#FF786E;}
	.fandom_twee{fill:#BE5652;}
	.fandom_drie{fill:#BE9148;}
	.fandom_vier{fill:#FFC865;}
	.fandom_elf{fill:#4B322A;}
	.fandom_twaalf{fill:#644638;}
	.fandom_achttien{fill:#808080;}
	.fandom_negentien{fill:#CCCCCC;}
	.fandom_twintig{fill:#FFFAFA;}
	.st0{fill:#EFEAE0;}
	.st1{fill:#AA9991;}
	.st2{fill:#666666;}
	.st3{fill:#6BC4D2;}
	.st4{fill:#508D9B;}
	.st5{fill:#018273;}
	.st6{fill:#3A3A3A;}
	.st7{fill:#4D4D4D;}
	.st8{fill:#8579A3;}
	.st9{fill:#685683;}
	.st10{fill:#00B3AA;}
</style>
<g>
	<g>
		<path class="fandom_vier" d="M32,7C18.193,7,7,18.193,7,32h50C57,18.193,45.807,7,32,7z"/>
		<path class="fandom_drie" d="M32,57c13.807,0,25-11.193,25-25H7C7,45.807,18.193,57,32,57z"/>
	</g>
	<g>
		<path class="fandom_twaalf" d="M37.945,32.509c-0.689-0.923-2.068-1.918-3.019-2.542C34.287,29.548,34,28.885,34,28.183v-4.623
			C34,23.25,33.632,23,33.28,23h-2.553C30.376,23,30,23.25,30,23.559v4.623c0,0.702-0.279,1.365-0.918,1.785
			c-0.951,0.624-2.33,1.619-3.019,2.542c-1.113,1.492-2.01,4.382-2.063,5.921v18.555c0,0,0.631,5.99,3.335,7.015h9.338
			C39.377,62.974,40,56.985,40,56.985V38.43C39.947,36.891,39.059,34.001,37.945,32.509z"/>
		<path class="fandom_elf" d="M28,39.572c0.074-2.152,1.488-4.733,2.614-6.51C31.531,31.614,32,29.927,32,28.213V23h-1.272
			C30.376,23,30,23.25,30,23.559v4.623c0,0.702-0.279,1.365-0.918,1.785c-0.951,0.624-2.33,1.619-3.019,2.542
			c-1.113,1.492-2.01,4.382-2.063,5.921v18.555c0,0,0.631,5.99,3.335,7.015h2.753C28.594,61.895,28,58.126,28,58.126V39.572z"/>
		<rect x="24" y="40" class="fandom_een" width="16" height="17"/>
		<rect x="24" y="40" class="fandom_twee" width="4" height="17"/>
		<path class="fandom_twintig" d="M39.64,16.058c0.599,0.91,0.65,1.865,0.114,2.134c-0.535,0.269-1.264-0.346-1.627-1.374
			s-0.414-1.984-0.114-2.134S39.041,15.148,39.64,16.058z M37.94,20.261c-0.323,0.092-0.451,1.04-0.287,2.118
			c0.164,1.078,0.765,1.818,1.341,1.654s0.705-1.113,0.287-2.118S38.262,20.169,37.94,20.261z M23.149,11.346
			c-0.31-0.13-1.002,0.531-1.546,1.476c-0.544,0.945-0.537,1.898,0.016,2.129c0.553,0.231,1.245-0.43,1.546-1.476
			S23.458,11.475,23.149,11.346z M26.041,26.866c-0.272-0.197-1.097,0.288-1.843,1.083c-0.746,0.795-0.958,1.724-0.473,2.076
			c0.485,0.352,1.31-0.133,1.843-1.083C26.102,27.993,26.313,27.063,26.041,26.866z"/>
		<path class="fandom_achttien" d="M31.066,20.037c-0.992,1.647-2.727,2.624-5.117,4.355c-1.077,0.78-2.101-1.08-0.915-1.789
			c2.106-1.065,4.48-4.202,4.327-6.21c-0.283-3.714-3.174-4.092-3.223-7.398c-0.018-1.21,1.08-2.014,1.969-2.652
			c0.991-0.711,1.676-1.626,1.932-2.839c0.24-1.137,0.332-2.404,1.274-3.215c0.709-0.61,1.798-0.241,1.608,0.979
			c-0.042,0.267-0.169,0.657,0.157,0.816c1,0.488,1.848-0.862,2.937,0.819c0.314,0.485,0.5,0.825,0.575,1.277
			c-0.625,0.18-3.73,1.213-4.929,4.134c-1.081,2.635-0.313,6.612-0.095,8.911C31.664,18.249,31.323,19.611,31.066,20.037z
			 M33.036,21.986c1.232,0.677,2.945,0.134,2.329-1.241c-1.229-2.745-0.355-5.318,1.153-7.556l-3.482,4.438L33.036,21.986z"/>
		<path class="fandom_negentien" d="M38.644,7.971c-0.929-0.942-2.214-1.607-2.035-3.105c0.006-0.054,0.032-0.704-0.019-0.686
			c-2.076,0.622-4.08,2.065-4.929,4.134c-1.081,2.635-0.313,6.612-0.095,8.911c0.102,1.07-0.297,2.426-0.566,2.862V23h2.036l0-5.374
			l3.256-4.15c0.745-1.165,1.675-2.244,2.591-3.213C39.594,9.512,39.25,8.585,38.644,7.971z"/>
	</g>
</g>
</svg>