<?xml version="1.0" encoding="utf-8"?>
<!-- Generator: Adobe Illustrator 19.1.0, SVG Export Plug-In . SVG Version: 6.00 Build 0)  -->
<!DOCTYPE svg PUBLIC "-//W3C//DTD SVG 1.1//EN" "http://www.w3.org/Graphics/SVG/1.1/DTD/svg11.dtd">
<svg version="1.1" id="DESIGNS" xmlns="http://www.w3.org/2000/svg" xmlns:xlink="http://www.w3.org/1999/xlink" x="0px" y="0px"
	 width="64px" height="64px" viewBox="0 0 64 64" style="enable-background:new 0 0 64 64;" xml:space="preserve">
<style type="text/css">
	.fandom_drie{fill:#BE9148;}
	.fandom_vier{fill:#FFC865;}
	.fandom_negen{fill:#685683;}
	.fandom_tien{fill:#8579A3;}
	.fandom_vijftien{fill:#3A3A3A;}
	.fandom_zestien{fill:#4D4D4D;}
	.fandom_achttien{fill:#808080;}
	.fandom_negentien{fill:#CCCCCC;}
	.st0{fill:#FF786E;}
	.st1{fill:#BE5652;}
	.st2{fill:#644638;}
	.st3{fill:#4B322A;}
	.st4{fill:#EFEAE0;}
	.st5{fill:#AA9991;}
	.st6{fill:#666666;}
	.st7{fill:#6BC4D2;}
	.st8{fill:#508D9B;}
	.st9{fill:#018273;}
	.st10{fill:#FFFAFA;}
	.st11{fill:#00B3AA;}
</style>
<g>
	<g>
		<path class="fandom_tien" d="M32,7C18.193,7,7,18.193,7,32h50C57,18.193,45.807,7,32,7z"/>
		<path class="fandom_negen" d="M32,57c13.807,0,25-11.193,25-25H7C7,45.807,18.193,57,32,57z"/>
	</g>
	<g>
		<path class="fandom_vier" d="M23.187,47c-0.548-0.728,0.855-6.657,0.047-10.094c-0.38-1.615-1.273-2.808-3.296-4.405
			c-1.084-0.856-0.938-4.359-0.946-4.359C18.972,27.509,18.523,27,17.965,27h-1.93C15.463,27,15,27.531,15,28.185v0.596
			c-0.417,0.136-0.828,0.291-1.228,0.467l0.326,2.858c0.064,0.557-0.111,1.115-0.482,1.537l-2.445,2.787
			c-0.6,0.683-1.587,0.877-2.402,0.471l-1.735-0.864C6.37,37.602,6.013,39.271,6,40.973c-0.003,0.372,0.218,0.713,0.551,0.883
			c4.761,2.428,15.033,7.771,21.376,11.031c0.481,0.247,1.082,0.075,1.333-0.402l1.083-2.437C27.869,49.658,23.91,47.96,23.187,47z"
			/>
		<path class="fandom_drie" d="M13.616,33.643l-2.445,2.787c-0.6,0.683-1.587,0.877-2.402,0.471l-1.735-0.864
			c0.134-0.316,0.262-0.635,0.423-0.942c1.382-2.633,3.648-4.673,6.314-5.847l0.326,2.858
			C14.161,32.663,13.987,33.221,13.616,33.643z M21,39.766v9.547l-8-4.125v-5.422C13,37.686,14.791,36,17,36S21,37.686,21,39.766z
			 M19.002,40c0-1.105-0.896-2-2.001-2S15,38.895,15,40c0,1.105,0.896,2,2.001,2S19.002,41.105,19.002,40z"/>
		<path class="fandom_vijftien" d="M29.971,38.149l1.363-0.628c0.333,1.145,0.646,2.477,0.646,3.729
			c0,3.152-0.599,6.084-1.635,8.799C27.869,49.658,23.91,47.96,23.187,47c-0.548-0.728,0.855-6.657,0.047-10.094
			c-0.38-1.615-1.375-2.688-3.296-4.405c-0.867-0.775-0.893-2.902-0.923-4.361c0,0,7.835,2.67,9.592,9.345
			C28.763,38.079,29.408,38.396,29.971,38.149z M55,20.35C50.904,21.414,46.973,22,42.503,22c-2.957,0-5.665-0.252-8.327-0.729
			c-1.692-0.303-3.469-0.72-5.175-1.201l1.347,4.449c0.093,0.341,0.365,0.61,0.703,0.705C35.159,26.38,37.835,27,42.503,27
			c4.296,0,6.642-0.525,10.432-1.51c0.347-0.09,0.627-0.363,0.722-0.71L55,20.35z"/>
		<path class="fandom_negentien" d="M47.611,26.655c0.055,0.181,0.067,0.378,0.008,0.578l-2.074,7.046
			C45.42,34.707,45.03,35,44.587,35H42v-8.009C43.424,27.047,46.103,26.88,47.611,26.655z M55,20.342l-1.453-3.952
			c-0.171-0.465-0.651-0.728-1.134-0.629c-3.351,0.69-6.835,1.054-10.411,1.054c-2.093,0-4.149-0.139-6.17-0.381l-1.657,4.837
			C36.838,21.748,39.546,22,42.503,22C47.009,22,50.867,21.422,55,20.342z"/>
		<path class="fandom_achttien" d="M42,26.991V35h-2.587c-0.443,0-0.833-0.293-0.959-0.721l-2.074-7.046
			c-0.074-0.25-0.044-0.5,0.055-0.713C38.109,26.812,39.854,26.969,42,26.991z M47.611,26.655c0.055,0.181,0.067,0.378,0.008,0.578
			l-1.696,5.762l3.98-2.674c0.165-0.111,0.293-0.268,0.369-0.453l1.339-4.041C49.388,26.424,47.61,26.655,47.611,26.655z
			 M42.002,16.815c3.576,0,7.06-0.364,10.411-1.054c0.329-0.068,0.649,0.042,0.878,0.26C51.633,11.349,47.211,8,42,8
			c-0.156,0-0.308,0.018-0.463,0.023c-1.629,0.924-4.685,2.741-5.661,8.415C37.884,16.677,39.925,16.815,42.002,16.815z
			 M35.832,16.434c-1.44-0.172-2.865-0.389-4.261-0.678c-0.476-0.098-0.949,0.156-1.127,0.611L29,20.068
			c1.742,0.494,3.449,0.895,5.175,1.204L35.832,16.434z"/>
		<path class="fandom_zestien" d="M28.607,37.486c-1.757-6.676-9.592-9.345-9.592-9.345c0.422-0.016,0.716-0.005,1.172,0.026
			c4.896,0.333,9.577,3.954,11.146,9.354l-1.363,0.628C29.408,38.396,28.763,38.079,28.607,37.486z M36.436,26.521
			c0,0-3.553-0.756-4.133-0.951l1.424,4.299c0.076,0.184,0.204,0.342,0.369,0.453l3.98,2.674l-1.696-5.762
			C36.307,26.983,36.336,26.734,36.436,26.521z M31.57,15.757c1.583,0.357,4.306,0.682,4.306,0.682
			c0.975-5.674,4.031-7.491,5.66-8.415c-4.997,0.192-9.201,3.457-10.818,7.97C30.947,15.792,31.256,15.686,31.57,15.757z M45,31
			c0-0.552-0.447-1-1-1h-4c-0.553,0-1,0.448-1,1s0.447,1,1,1h4C44.553,32,45,31.552,45,31z"/>
	</g>
</g>
</svg>