<?xml version="1.0" encoding="utf-8"?>
<!-- Generator: Adobe Illustrator 19.1.0, SVG Export Plug-In . SVG Version: 6.00 Build 0)  -->
<!DOCTYPE svg PUBLIC "-//W3C//DTD SVG 1.1//EN" "http://www.w3.org/Graphics/SVG/1.1/DTD/svg11.dtd">
<svg version="1.1" id="DESIGNS" xmlns="http://www.w3.org/2000/svg" xmlns:xlink="http://www.w3.org/1999/xlink" x="0px" y="0px"
	 width="64px" height="64px" viewBox="0 0 64 64" style="enable-background:new 0 0 64 64;" xml:space="preserve">
<style type="text/css">
	.fandom_een{fill:#FF786E;}
	.fandom_twee{fill:#BE5652;}
	.fandom_drie{fill:#BE9148;}
	.fandom_vier{fill:#FFC865;}
	.fandom_acht{fill:#6BC4D2;}
	.fandom_veertien{fill:#EFEAE0;}
	.st0{fill:#508D9B;}
	.st1{fill:#8579A3;}
	.st2{fill:#00B3AA;}
	.st3{fill:#018273;}
	.st4{fill:#685683;}
	.st5{fill:#AA9991;}
	.st6{fill:#3A3A3A;}
	.st7{fill:#666666;}
	.st8{fill:#4D4D4D;}
	.st9{fill:#CCCCCC;}
	.st10{fill:#808080;}
	.st11{fill:#644638;}
	.st12{fill:#4B322A;}
	.st13{fill:#FFFAFA;}
</style>
<g>
	<g>
		<path class="fandom_vier" d="M32,7C18.193,7,7,18.193,7,32h50C57,18.193,45.807,7,32,7z"/>
		<path class="fandom_drie" d="M32,57c13.807,0,25-11.193,25-25H7C7,45.807,18.193,57,32,57z"/>
	</g>
	<g>
		<path class="fandom_een" d="M16.456,13.588c2.436-4.2,8.585-3.643,13.746,1.245c5.153,4.88,7.359,12.234,4.922,16.434
			c-2.432,4.193-8.581,3.636-13.734-1.244C16.229,25.136,14.024,17.781,16.456,13.588z M30.683,27.061
			c1.277-2.201,0.119-6.061-2.578-8.615c-2.705-2.561-5.932-2.854-7.209-0.653c-1.273,2.194-0.115,6.055,2.589,8.616
			C26.183,28.963,29.411,29.256,30.683,27.061z M10.231,7.693C14.287,0.7,24.546,1.629,33.14,9.767
			c8.586,8.131,12.266,20.402,8.209,27.395c-4.053,6.986-14.312,6.057-22.898-2.073C9.858,26.951,6.178,14.679,10.231,7.693z
			 M37.797,33.798c3.127-5.391,0.28-14.866-6.337-21.133c-6.625-6.274-14.541-6.991-17.668-1.6
			c-3.123,5.385-0.288,14.859,6.337,21.133C26.746,38.465,34.673,39.183,37.797,33.798z"/>
		<path class="fandom_twee" d="M18.452,35.089c-8.594-8.138-12.274-20.41-8.221-27.396c0.683-1.178,1.543-2.131,2.541-2.863
			L7.319,8.828c-0.998,0.732-1.857,1.685-2.541,2.863C-3.731,26.362,20.366,53.55,33.36,44.02l5.453-3.999
			C33.89,43.632,25.592,41.851,18.452,35.089z"/>
		<path class="fandom_acht" d="M20.897,17.794c1.277-2.201,4.504-1.909,7.209,0.653c2.697,2.554,3.854,6.414,2.578,8.615
			c-1.273,2.194-4.5,1.902-7.197-0.652C20.782,23.848,19.624,19.988,20.897,17.794z M27.415,19.659
			c-0.271-0.922-1.307-1.53-1.755-1.036L25.044,19.3c-0.176,0.196-0.481,0.231-0.805,0.085l-1.116-0.492
			c-0.826-0.365-1.253,0.413-0.752,1.296l0.693,1.221c0.204,0.354,0.267,0.737,0.171,1.009l-0.328,0.95
			c-0.24,0.691,0.517,1.781,1.286,1.843c0.857,0.061,1.398-0.044,1.953,0.609l0.917,1.09c0.643,0.754,1.583,0.712,1.548-0.168
			l-0.041-1.169c-0.02-0.302,0.093-0.59,0.389-0.671l0.887-0.29c0.697-0.222,0.368-1.418-0.328-1.935l-1.08-0.81
			c-0.311-0.234-0.554-0.585-0.663-0.951L27.415,19.659z"/>
		<path class="fandom_veertien" d="M13.792,11.065c3.127-5.391,11.043-4.675,17.668,1.6c6.617,6.267,9.465,15.742,6.337,21.133
			c-3.123,5.385-11.051,4.667-17.668-1.6C13.504,25.924,10.668,16.45,13.792,11.065z M35.124,31.267
			c2.436-4.2,0.231-11.554-4.922-16.434c-5.161-4.888-11.31-5.444-13.746-1.245c-2.432,4.193-0.227,11.547,4.934,16.435
			C26.544,34.903,32.692,35.46,35.124,31.267z M22.372,20.189l0.693,1.221c0.204,0.354,0.267,0.737,0.171,1.009l-0.328,0.95
			c-0.24,0.691,0.517,1.781,1.286,1.843c0.857,0.061,1.398-0.044,1.953,0.609l0.917,1.09c0.643,0.754,1.583,0.712,1.548-0.168
			l-0.041-1.169c-0.02-0.302,0.093-0.59,0.389-0.671l0.887-0.29c0.697-0.222,0.368-1.418-0.328-1.935l-1.08-0.811
			c-0.311-0.234-0.553-0.585-0.663-0.951l-0.36-1.259c-0.271-0.922-1.307-1.53-1.755-1.036L25.044,19.3
			c-0.176,0.197-0.481,0.231-0.805,0.085l-1.116-0.492C22.298,18.528,21.87,19.306,22.372,20.189z"/>
	</g>
</g>
</svg>