<?xml version="1.0" encoding="utf-8"?>
<!-- Generator: Adobe Illustrator 19.1.0, SVG Export Plug-In . SVG Version: 6.00 Build 0)  -->
<!DOCTYPE svg PUBLIC "-//W3C//DTD SVG 1.1//EN" "http://www.w3.org/Graphics/SVG/1.1/DTD/svg11.dtd">
<svg version="1.1" id="DESIGNS" xmlns="http://www.w3.org/2000/svg" xmlns:xlink="http://www.w3.org/1999/xlink" x="0px" y="0px"
	 width="64px" height="64px" viewBox="0 0 64 64" style="enable-background:new 0 0 64 64;" xml:space="preserve">
<style type="text/css">
	.fandom_een{fill:#FF786E;}
	.fandom_twee{fill:#BE5652;}
	.fandom_drie{fill:#BE9148;}
	.fandom_vier{fill:#FFC865;}
	.fandom_achttien{fill:#808080;}
	.fandom_negentien{fill:#CCCCCC;}
	.st0{fill:#6BC4D2;}
	.st1{fill:#508D9B;}
	.st2{fill:#8579A3;}
	.st3{fill:#00B3AA;}
	.st4{fill:#018273;}
	.st5{fill:#685683;}
	.st6{fill:#EFEAE0;}
	.st7{fill:#AA9991;}
	.st8{fill:#3A3A3A;}
	.st9{fill:#666666;}
	.st10{fill:#4D4D4D;}
	.st11{fill:#644638;}
	.st12{fill:#4B322A;}
	.st13{fill:#FFFAFA;}
</style>
<g>
	<g>
		<path class="fandom_een" d="M32,7C18.193,7,7,18.193,7,32h50C57,18.193,45.807,7,32,7z"/>
		<path class="fandom_twee" d="M32,57c13.807,0,25-11.193,25-25H7C7,45.807,18.193,57,32,57z"/>
	</g>
	<g>
		<path class="fandom_drie" d="M8.334,50.511c-0.04,0.065-0.71,1.455,0.85,3.015c1.861,1.861,4.117,1.091,3.17-0.944
			c-0.512-1.102-2.153-1.617-2.458-1.02c-0.334,0.658,0.44,1.33,0.795,0.975c0.4-0.4,1.287,0.487,0.887,0.887
			c-0.941,0.941-3.354-0.717-2.741-2.452c0.545-1.549,3.547-0.489,4.469,1.495c0.895,1.924-0.39,2.962,0.252,2.32l39.788-41.202
			c1.403-1.403,1.045-3.166-0.016-4.227L12.321,50.368C10.169,49.117,8.947,49.499,8.334,50.511z"/>
		<path class="fandom_vier" d="M13.306,52.467c-0.922-1.984-3.924-3.044-4.469-1.495c-0.613,1.734,1.8,3.393,2.741,2.452
			c0.4-0.4-0.487-1.287-0.887-0.887c-0.355,0.354-1.129-0.317-0.795-0.975c0.305-0.597,1.946-0.081,2.458,1.02
			c0.947,2.035-1.31,2.805-3.17,0.944c-1.56-1.56-0.889-2.949-0.85-3.015c0.613-1.013,1.834-1.395,3.987-0.143L53.33,9.359
			c-1.945-1.945-3.671-0.47-3.671-0.47L7.502,49.53c0,0-1.667,1.856,1.077,4.601c2.305,2.305,4.184,1.436,4.713,0.906
			C13.638,54.691,13.835,53.605,13.306,52.467z"/>
		<path class="fandom_achttien" d="M49.877,54.543L21.125,19.866c-2.294-2.766-10.754-4.133-12.351-14.823
			c-5.281,3.72,2.182,20.136,12.459,18.447c0.462-0.076,1.151,0.227,1.491,0.586l23.45,29.843
			C48.166,56.188,50.877,53.908,49.877,54.543z"/>
		<path class="fandom_negentien" d="M49.574,49.748L25.469,23.458c-0.884-1.042-1.128-2.133-0.873-3.524
			C26.39,10.159,13.179,2.14,8.768,5.001c1.566,10.661,10.092,12.133,12.357,14.864l28.751,34.677
			c0.86-0.545,1.23-1.454,1.021-2.376C50.701,51.299,50.191,50.401,49.574,49.748z"/>
	</g>
</g>
</svg>