<?xml version="1.0" encoding="utf-8"?>
<!-- Generator: Adobe Illustrator 19.1.0, SVG Export Plug-In . SVG Version: 6.00 Build 0)  -->
<!DOCTYPE svg PUBLIC "-//W3C//DTD SVG 1.1//EN" "http://www.w3.org/Graphics/SVG/1.1/DTD/svg11.dtd">
<svg version="1.1" id="DESIGNS" xmlns="http://www.w3.org/2000/svg" xmlns:xlink="http://www.w3.org/1999/xlink" x="0px" y="0px"
	 width="64px" height="64px" viewBox="0 0 64 64" style="enable-background:new 0 0 64 64;" xml:space="preserve">
<style type="text/css">
	.fandom_een{fill:#FF786E;}
	.fandom_twee{fill:#BE5652;}
	.fandom_vijf{fill:#018273;}
	.fandom_zes{fill:#00B3AA;}
	.fandom_twaalf{fill:#644638;}
	.fandom_dertien{fill:#AA9991;}
	.fandom_veertien{fill:#EFEAE0;}
	.st0{fill:#4B322A;}
	.st1{fill:#FFC865;}
	.st2{fill:#BE9148;}
	.st3{fill:#808080;}
	.st4{fill:#666666;}
	.st5{fill:#CCCCCC;}
	.st6{fill:#6BC4D2;}
	.st7{fill:#508D9B;}
	.st8{fill:#3A3A3A;}
	.st9{fill:#FFFAFA;}
	.st10{fill:#4D4D4D;}
	.st11{fill:#8579A3;}
	.st12{fill:#685683;}
</style>
<g>
	<g>
		<path class="fandom_zes" d="M32,7C18.193,7,7,18.193,7,32h50C57,18.193,45.807,7,32,7z"/>
		<path class="fandom_vijf" d="M32,57c13.807,0,25-11.193,25-25H7C7,45.807,18.193,57,32,57z"/>
	</g>
	<g>
		<path class="fandom_twaalf" d="M15.399,37.362c0.085,0.444-0.127,0.891-0.524,1.106l-1.394,0.755
			c0.113-0.162-0.041-3.164-0.12-3.463c-0.155-0.588-0.41-1.152-0.798-1.624c-0.306-0.371,0.12-0.759,0.446-0.646l1.777,0.727
			l0.021,0.045L15.399,37.362z M13.853,12.355C12.089,14.119,29.6,25.095,31.21,25.957c0,0,5.317,3.532,10.514,2.201
			c0,0,5.461-1.113,4.652-2.573c-0.436-0.786-6.447-1.922-8.867-2.73C31.012,20.687,15.683,10.525,13.853,12.355z M29.63,29.338
			c1.704,0.721,11.678,5.725,11.691,5.736c1.781,1.375-0.937,2.188-4.719,2.5c-6.683,0.552-11.178-4.206-13.719-5.816
			C14.853,26.668,5.005,18.221,8.237,15.02C9.697,13.574,23.322,26.668,29.63,29.338z"/>
		<path class="fandom_twee" d="M57.104,31.292c0.007,2.469-4.469,4.094-6.657,4.344c-2.458,0.281-4.693,0.521-6.969,0.69
			c-0.713-0.411-1.429-0.817-2.047-1.164c-0.035-0.029-10.097-5.104-11.801-5.825c-4.776-2.021-13.743-10.016-18.453-13.155
			c0.923-2.111,1.623-2.677,1.623-2.677c-0.724,0.921,9.882,8.974,12.462,10.74c2.875,1.967,5.922,3.662,8.944,5.39
			C41.448,33.776,49.327,33.547,57.104,31.292z M46.799,38.33c-2.032,4.563-15.661,2.997-16.662,2.822
			c-3.078-0.537-8.709-7.118-9.9-8.116c-1.64-1.374-3.432-2.307-5.347-3.227c-7.506-3.609-8.936-12.011-8.936-12.011
			c-1.223,2.051-1.864,4.409-1.946,6.79c-0.216,6.306,3.369,6.479,4.146,8.293c0.609,1.421,1.123,2.804,0.953,4.265
			c-0.061,0.521,0.251,1.012,0.759,1.145l3.6,0.94c0.136,0.038-0.026-3.16-0.107-3.469c-0.155-0.588-0.41-1.153-0.798-1.624
			c-0.306-0.371,0.12-0.759,0.446-0.646c0,0,3.31,1.247,4.476,2.154s2.807,2.289,5.183,6.22c0.794,1.313,1.862,2.762,3.351,3.329
			c1.729,0.658,4.013,0.589,5.848,0.694c4.194,0.238,9.371,0.208,14.601-1.198c1.137-0.305,2.893-0.862,3.455-2.037
			C50.683,41.062,48.293,39.328,46.799,38.33z"/>
		<path class="fandom_een" d="M57.104,31.292c-7.776,2.255-15.656,2.484-22.898-1.657c-3.022-1.727-6.069-3.422-8.944-5.39
			c-2.581-1.766-13.186-9.819-12.462-10.74c0.563-0.716,1.063-1.161,1.053-1.151C12.089,14.119,29.6,25.095,31.21,25.957
			c0,0,5.317,3.532,10.514,2.201c0,0,5.461-1.113,4.652-2.573c-0.076-0.137-0.322-0.285-0.688-0.439
			c1.987,0.771,5.029,2.003,6.837,2.826C55.862,29.492,57.214,30.451,57.104,31.292z M41.43,35.163
			c1.554,1.321-1.128,2.106-4.827,2.412c-6.683,0.552-11.178-4.206-13.719-5.816C14.914,26.707,5.155,18.35,8.166,15.094
			c-0.005-0.039-1.171,0.971-2.208,2.721c0.075,0.413,1.62,8.478,8.933,11.994c1.915,0.921,3.707,1.853,5.347,3.227
			c1.191,0.998,6.822,7.578,9.9,8.116c1,0.175,14.635,1.731,16.662-2.822C46.879,38.383,43.326,36.226,41.43,35.163z"/>
		<path class="fandom_veertien" d="M7.715,23.426c0.202-0.102,0.427-0.164,0.669-0.164c0.828,0,1.5,0.672,1.5,1.5
			c0,0.242-0.063,0.467-0.164,0.669C8.433,26.077,7.068,24.714,7.715,23.426z M8.22,21.431c0.102-0.202,0.164-0.427,0.164-0.669
			c0-0.828-0.672-1.5-1.5-1.5c-0.242,0-0.467,0.063-0.669,0.164C5.568,20.714,6.933,22.077,8.22,21.431z"/>
		<path class="fandom_dertien" d="M9.72,25.431c-0.247,0.491-0.749,0.831-1.336,0.831c-0.828,0-1.5-0.672-1.5-1.5
			c0-0.587,0.34-1.089,0.831-1.336C7.068,24.713,8.432,26.078,9.72,25.431z M6.215,19.426c-0.491,0.247-0.831,0.749-0.831,1.336
			c0,0.828,0.672,1.5,1.5,1.5c0.587,0,1.089-0.34,1.336-0.831C6.932,22.078,5.568,20.713,6.215,19.426z"/>
	</g>
</g>
</svg>