<?xml version="1.0" encoding="utf-8"?>
<!-- Generator: Adobe Illustrator 19.1.0, SVG Export Plug-In . SVG Version: 6.00 Build 0)  -->
<!DOCTYPE svg PUBLIC "-//W3C//DTD SVG 1.1//EN" "http://www.w3.org/Graphics/SVG/1.1/DTD/svg11.dtd">
<svg version="1.1" id="DESIGNS" xmlns="http://www.w3.org/2000/svg" xmlns:xlink="http://www.w3.org/1999/xlink" x="0px" y="0px"
	 width="64px" height="64px" viewBox="0 0 64 64" style="enable-background:new 0 0 64 64;" xml:space="preserve">
<style type="text/css">
	.fandom_een{fill:#FF786E;}
	.fandom_zeven{fill:#508D9B;}
	.fandom_acht{fill:#6BC4D2;}
	.fandom_negen{fill:#685683;}
	.fandom_tien{fill:#8579A3;}
	.fandom_vijftien{fill:#3A3A3A;}
	.fandom_zestien{fill:#4D4D4D;}
	.fandom_zeventien{fill:#666666;}
	.fandom_negentien{fill:#CCCCCC;}
	.st0{fill:#BE5652;}
	.st1{fill:#EFEAE0;}
	.st2{fill:#AA9991;}
	.st3{fill:#FFFAFA;}
	.st4{fill:#644638;}
	.st5{fill:#4B322A;}
	.st6{fill:#FFC865;}
	.st7{fill:#BE9148;}
	.st8{fill:#808080;}
	.st9{fill:#018273;}
	.st10{fill:#00B3AA;}
</style>
<g>
	<g>
		<path class="fandom_tien" d="M32,7C18.193,7,7,18.193,7,32h50C57,18.193,45.807,7,32,7z"/>
		<path class="fandom_negen" d="M32,57c13.807,0,25-11.193,25-25H7C7,45.807,18.193,57,32,57z"/>
	</g>
	<g>
		<path class="fandom_vijftien" d="M58.665,14.166C58.395,14.61,43.5,24.688,43.688,27.883l3.248,30.719
			c0.081,0.769-0.539,1.43-1.311,1.398c0,0-9.968,0-9.969,0c-0.591-0.024-1.087-0.455-1.193-1.037c0,0-0.658-29.656-10.463-25.505
			L4.29,41.994c-1.118,0.311-1.679-1.35-0.645-1.878l53.753-27.435C58.375,12.183,59.179,13.318,58.665,14.166z M33.67,11.76
			l-12.879,6.573c-0.176,0.09-0.321,0.23-0.418,0.402l-1.378,2.459c-0.097,0.172-0.242,0.312-0.418,0.402L6.192,27.917
			c-0.613,0.313-0.734,1.137-0.237,1.613l1.942,1.858c0.307,0.294,0.767,0.361,1.146,0.168l26.002-13.271L33.67,11.76z"/>
		<path class="fandom_zestien" d="M57.398,12.682L27.23,28.079c0,0,4.667-0.138,6.854,0.999C38.581,31.415,40.167,54.847,40.39,60
			h5.235c0.772,0.032,1.392-0.63,1.311-1.398l-3.248-30.719C43.5,24.688,58.395,14.61,58.665,14.166
			C59.179,13.318,58.375,12.183,57.398,12.682z M54.901,8.151L35.044,18.286L33.67,11.76c0,0,18.913-8.052,20.837-5.498
			C54.508,6.262,55.808,7.688,54.901,8.151z"/>
		<path class="fandom_een" d="M39.998,16.705l-6.722,3.431c-0.492,0.251-0.687,0.853-0.436,1.345l0.626,1.226
			c0.251,0.492,0.853,0.687,1.345,0.436l6.722-3.431L39.998,16.705z"/>
		<path class="fandom_zeventien" d="M51.309,15.79l-9.305,4.749l-1.274-2.4l9.305-4.749l-0.013-0.025L51.309,15.79z M32.566,25.356
			l-1.293-2.533l0.093,0.183L3.802,37.074l-0.142,1.85c-0.031,0.408,0.178,0.753,0.486,0.936L32.566,25.356z"/>
		<path class="fandom_negentien" d="M30.215,20.75l1.151,2.256L3.802,37.074l0.194-2.523c0.027-0.347,0.232-0.656,0.542-0.814
			l4.058-2.071c0.152-0.001,0.305-0.037,0.446-0.109L30.215,20.75z M39.614,15.953l1.115,2.185l9.305-4.749l-1.115-2.185
			L39.614,15.953z"/>
		<path class="fandom_acht" d="M57.372,11.629l-6.534,3.335l-1.535-3.008l6.534-3.335c0.492-0.251,1.094-0.056,1.345,0.436
			l0.626,1.226C58.059,10.776,57.864,11.378,57.372,11.629z M40.5,28c-0.828,0-1.5,0.672-1.5,1.5s0.672,1.5,1.5,1.5
			s1.5-0.672,1.5-1.5S41.328,28,40.5,28z"/>
		<path class="fandom_zeven" d="M39.831,28.164C39.34,28.411,39,28.913,39,29.5c0,0.828,0.672,1.5,1.5,1.5
			c0.587,0,1.089-0.34,1.336-0.831C40.548,30.816,39.184,29.451,39.831,28.164z"/>
	</g>
</g>
</svg>