<?xml version="1.0" encoding="utf-8"?>
<!-- Generator: Adobe Illustrator 19.1.0, SVG Export Plug-In . SVG Version: 6.00 Build 0)  -->
<!DOCTYPE svg PUBLIC "-//W3C//DTD SVG 1.1//EN" "http://www.w3.org/Graphics/SVG/1.1/DTD/svg11.dtd">
<svg version="1.1" id="DESIGNS" xmlns="http://www.w3.org/2000/svg" xmlns:xlink="http://www.w3.org/1999/xlink" x="0px" y="0px"
	 width="64px" height="64px" viewBox="0 0 64 64" style="enable-background:new 0 0 64 64;" xml:space="preserve">
<style type="text/css">
	.fandom_een{fill:#FF786E;}
	.fandom_vier{fill:#FFC865;}
	.fandom_zes{fill:#00B3AA;}
	.fandom_acht{fill:#6BC4D2;}
	.fandom_negen{fill:#685683;}
	.fandom_tien{fill:#8579A3;}
	.fandom_veertien{fill:#EFEAE0;}
	.fandom_negentien{fill:#CCCCCC;}
	.st0{fill:#BE5652;}
	.st1{fill:#644638;}
	.st2{fill:#4B322A;}
	.st3{fill:#AA9991;}
	.st4{fill:#BE9148;}
	.st5{fill:#808080;}
	.st6{fill:#666666;}
	.st7{fill:#508D9B;}
	.st8{fill:#018273;}
	.st9{fill:#3A3A3A;}
	.st10{fill:#FFFAFA;}
	.st11{fill:#4D4D4D;}
</style>
<g>
	<g>
		<path class="fandom_tien" d="M32,7C18.193,7,7,18.193,7,32h50C57,18.193,45.807,7,32,7z"/>
		<path class="fandom_negen" d="M32,57c13.807,0,25-11.193,25-25H7C7,45.807,18.193,57,32,57z"/>
	</g>
	<g>
		<path class="fandom_een" d="M43.704,32.865l-14.497,6.77c-2.002,0.935-4.382,0.07-5.317-1.932l-3.385-7.248
			c-0.935-2.002-0.07-4.382,1.932-5.317l14.497-6.77c2.002-0.935,4.382-0.07,5.317,1.932l3.385,7.248
			C46.57,29.55,45.706,31.93,43.704,32.865z M13.177,36.01C8.048,41.883,3.969,47.745,2.169,50.451C1.726,51.116,2.206,52,3.005,52
			h1.114c2.35-3.641,6.112-8.914,11.186-14.337C14.583,37.229,13.873,36.682,13.177,36.01z M15.863,33.046
			c0.815,0.802,1.622,1.346,2.387,1.61c0.176-0.172,0.346-0.344,0.525-0.516l-1.293-2.769
			C16.934,31.923,16.394,32.482,15.863,33.046z"/>
		<path class="fandom_veertien" d="M53.6,34.092l-0.393-0.124c0.738-0.079,1.407-0.547,1.675-1.293
			c0.373-1.04-0.167-2.185-1.207-2.558l-4.409-1.583l-5.708-12.222c-0.935-2.002-3.315-2.866-5.317-1.932L18.308,23.69
			c-2.002,0.935-2.866,3.315-1.932,5.317l2.723,5.83c-1.122-0.08-2.372-0.831-3.63-2.193c-0.749-0.812-2.014-0.863-2.826-0.113
			c-0.812,0.749-0.862,2.015-0.113,2.826c2.091,2.266,4.317,3.441,6.617,3.493c0.457,0.046,1.254-0.081,1.735-0.197l1.419,3.039
			c0.459,0.983,1.269,1.688,2.21,2.044l-0.496,4.02c-0.135,1.096,0.644,2.094,1.74,2.229c1.224,0.14,2.104-0.727,2.229-1.74
			l0.094-0.763c0.299,0.271,0.713,0.497,1.34,0.518c1.003,0,1.869-0.753,1.985-1.774l0.525-4.616l12.979-6.062L53,38
			c0.85,0,1.638-0.546,1.907-1.4C55.239,35.547,54.654,34.424,53.6,34.092z M43.704,32.865l-14.497,6.77
			c-2.002,0.935-4.382,0.07-5.317-1.932l-3.385-7.248c-0.935-2.002-0.07-4.382,1.932-5.317l14.497-6.77
			c2.002-0.935,4.382-0.07,5.317,1.932l3.385,7.248C46.57,29.55,45.706,31.93,43.704,32.865z M34.495,33.523l-0.471-2.328
			c-0.263-1.299,1.698-1.695,1.96-0.396l0.471,2.328C36.718,34.425,34.758,34.821,34.495,33.523z M26.31,34.979l1.685-1.673
			c0.94-0.934,2.349,0.486,1.409,1.419l-1.685,1.673C26.779,37.332,25.37,35.913,26.31,34.979z M29.869,29.445l-1.595-1.76
			c-0.888-0.98,0.593-2.325,1.482-1.343l1.595,1.76C32.239,29.082,30.758,30.427,29.869,29.445z"/>
		<path class="fandom_acht" d="M40.336,32.226l-1.916-1.403c-1.067-0.782,0.113-2.396,1.182-1.614l1.916,1.403
			C42.585,31.393,41.405,33.008,40.336,32.226z M24.909,31.576l1.056-2.128c0.589-1.187-1.204-2.074-1.792-0.889l-1.056,2.128
			C22.528,31.874,24.321,32.761,24.909,31.576z M35.932,25.579l0.928-2.186c0.517-1.219-1.324-1.999-1.841-0.781l-0.928,2.186
			C33.573,26.017,35.415,26.797,35.932,25.579z M22.301,41.692l-0.848-1.816C17.078,44.009,13.46,48.274,10.639,52h3.093
			c0.297,0,0.573-0.128,0.762-0.357c2.406-2.913,5.232-6.01,8.441-9.015C22.689,42.349,22.466,42.046,22.301,41.692z"/>
		<path class="fandom_zes" d="M20.882,38.653c-0.481,0.116-1.277,0.243-1.735,0.197c-0.275-0.006-0.548-0.031-0.821-0.069
			C13.66,43.482,9.948,48.209,7.292,52h3.346c2.821-3.725,6.44-7.991,10.814-12.124L20.882,38.653z"/>
		<path class="fandom_vier" d="M19.1,34.837c-0.276-0.02-0.56-0.081-0.85-0.181c0.176-0.172,0.346-0.344,0.525-0.516L19.1,34.837z
			 M15.305,37.663C10.232,43.086,6.469,48.359,4.119,52h3.173c2.656-3.791,6.368-8.518,11.034-13.219
			C17.3,38.637,16.292,38.257,15.305,37.663z"/>
		<path class="fandom_negentien" d="M58.813,17.954c-0.556-2.343-2.393-3.938-3.005-6.247c-0.122-0.46-0.851-5.652-1.915-4.554
			l-2.399,3.721c-0.161,0.249-0.422,0.42-0.716,0.458c-1.832,0.235-3.603,0.844-5.283,1.594c-1.6,0.715-3.285,1.516-4.676,2.591
			c-0.235,0.182-0.54,0.246-0.83,0.183l-4.327-0.935c-1.529-0.024,1.627,4.163,1.866,4.575c1.2,2.066,1.029,4.492,2.292,6.543
			c1.919,3.115,6.009,4.119,9.456,3.458c1.767-0.339,4.621-1.735,5.297-2.254C57.355,24.947,59.658,21.513,58.813,17.954z"/>
	</g>
</g>
</svg>