<?xml version="1.0" encoding="utf-8"?>
<!-- Generator: Adobe Illustrator 19.1.0, SVG Export Plug-In . SVG Version: 6.00 Build 0)  -->
<!DOCTYPE svg PUBLIC "-//W3C//DTD SVG 1.1//EN" "http://www.w3.org/Graphics/SVG/1.1/DTD/svg11.dtd">
<svg version="1.1" id="DESIGNS" xmlns="http://www.w3.org/2000/svg" xmlns:xlink="http://www.w3.org/1999/xlink" x="0px" y="0px"
	 width="64px" height="64px" viewBox="0 0 64 64" style="enable-background:new 0 0 64 64;" xml:space="preserve">
<style type="text/css">
	.fandom_vijf{fill:#018273;}
	.fandom_zes{fill:#00B3AA;}
	.fandom_acht{fill:#6BC4D2;}
	.fandom_negen{fill:#685683;}
	.fandom_tien{fill:#8579A3;}
	.fandom_veertien{fill:#EFEAE0;}
	.fandom_zestien{fill:#4D4D4D;}
	.fandom_negentien{fill:#CCCCCC;}
	.st0{fill:#FF786E;}
	.st1{fill:#BE5652;}
	.st2{fill:#FFC865;}
	.st3{fill:#BE9148;}
	.st4{fill:#644638;}
	.st5{fill:#808080;}
	.st6{fill:#666666;}
	.st7{fill:#AA9991;}
	.st8{fill:#FFFAFA;}
	.st9{fill:#508D9B;}
	.st10{fill:#4B322A;}
	.st11{fill:#3A3A3A;}
</style>
<g>
	<g>
		<path class="fandom_tien" d="M32,7C18.193,7,7,18.193,7,32h50C57,18.193,45.807,7,32,7z"/>
		<path class="fandom_negen" d="M32,57c13.807,0,25-11.193,25-25H7C7,45.807,18.193,57,32,57z"/>
	</g>
	<g>
		<polygon class="fandom_zestien" points="38.853,18.857 37.478,28.552 27.237,37.145 28.612,27.45 		"/>
		<polygon class="fandom_vijf" points="27.237,37.145 2.348,22.983 3.723,13.288 28.612,27.45 		"/>
		<polygon class="fandom_zes" points="28.612,27.45 3.723,13.288 13.964,4.695 38.853,18.857 		"/>
		<polygon class="fandom_acht" points="7.102,10.455 35.118,16.729 38.853,18.857 35.565,21.618 7.532,15.455 3.723,13.288 		"/>
		<path class="fandom_negentien" d="M39.267,57.655c-0.072,0.106-0.163,0.199-0.272,0.271l-0.788,0.526
			c-0.324,0.216-0.744,0.224-1.076,0.022l-0.861-0.526c-0.371-0.227-0.553-0.667-0.451-1.089l0.469-1.935l-3.32-5.01l-2.052-0.41
			c-0.422-0.084-0.743-0.429-0.796-0.856l-0.112-0.89c-0.047-0.376,0.122-0.746,0.437-0.956l0.805-0.537
			c0.164-0.109,0.352-0.168,0.546-0.169l0.14,0.873c0.115,0.69,0.582,1.271,1.232,1.53l1.195,0.477l3.324,5.016l-0.024,1.416
			c-0.011,0.635,0.281,1.238,0.786,1.623L39.267,57.655z M33.198,35.296c-0.558-0.304-0.938-0.855-1.024-1.485l-0.192-1.403
			l-3.527-3.87l-0.308,2.15l2.595,2.855l-0.169,1.984c-0.037,0.433,0.21,0.84,0.611,1.008l0.931,0.389
			c0.359,0.15,0.773,0.078,1.06-0.185l0.699-0.64c0.096-0.088,0.172-0.194,0.227-0.309L33.198,35.296z M44.267,41.962
			c-0.112-0.625,0.079-1.267,0.516-1.728l0.974-1.029l0.931-5.945l-0.56-1.158c-0.305-0.63-0.258-1.373,0.123-1.96l0.461-0.735
			c-0.141-0.123-0.304-0.219-0.492-0.248l-0.956-0.147c-0.374-0.057-0.749,0.102-0.968,0.411l-0.518,0.732
			c-0.249,0.351-0.245,0.822,0.01,1.169l1.238,1.687l-0.93,5.938l-1.652,1.112c-0.36,0.243-0.523,0.69-0.402,1.108l0.281,0.969
			c0.108,0.374,0.424,0.651,0.809,0.71l0.936,0.144c0.129,0.02,0.259,0.013,0.383-0.017L44.267,41.962z"/>
		<path class="fandom_veertien" d="M36.962,32.523c0.104,0.364-0.007,0.756-0.286,1.012l-0.714,0.654
			c-0.196,0.179-0.454,0.273-0.719,0.261c-0.552-0.024-1.019,0.403-1.043,0.955c-0.006,0.135-0.04,0.265-0.097,0.384l-0.904-0.493
			c-0.558-0.304-0.938-0.855-1.024-1.485l-0.192-1.403l-3.53-3.872l0.153-1.088l1.129-0.941l3.976,4.337l2.087,0.092
			c0.43,0.019,0.8,0.311,0.918,0.725L36.962,32.523z M39.634,52.707l-3.323-5.011l0.469-1.935c0.102-0.422-0.08-0.862-0.451-1.089
			l-0.861-0.526c-0.332-0.203-0.752-0.195-1.076,0.022l-0.788,0.526c-0.221,0.147-0.374,0.376-0.426,0.636
			c-0.108,0.542-0.635,0.893-1.176,0.785c-0.069-0.014-0.136-0.021-0.205-0.021l0.14,0.873c0.115,0.69,0.582,1.27,1.232,1.53
			l1.195,0.477l3.324,5.016l-0.024,1.416c-0.011,0.635,0.281,1.238,0.786,1.623l0.818,0.625c0.074-0.109,0.128-0.233,0.154-0.365
			c0.108-0.542,0.635-0.893,1.176-0.785c0.26,0.052,0.53-0.002,0.751-0.149l0.805-0.537c0.315-0.21,0.484-0.58,0.437-0.956
			l-0.112-0.89c-0.054-0.427-0.374-0.772-0.796-0.856L39.634,52.707z M48.058,39.571l0.928-5.941l1.652-1.112
			c0.361-0.243,0.523-0.69,0.402-1.108l-0.281-0.969c-0.108-0.374-0.424-0.651-0.809-0.71l-0.936-0.144
			c-0.262-0.04-0.53,0.025-0.743,0.182C47.825,30.097,47.2,30,46.873,29.555c-0.041-0.057-0.115-0.105-0.167-0.151l-0.456,0.737
			c-0.381,0.587-0.428,1.33-0.123,1.96l0.56,1.158l-0.931,5.945l-0.974,1.029c-0.437,0.462-0.628,1.103-0.516,1.728l0.182,1.013
			c0.129-0.031,0.251-0.086,0.36-0.165c0.445-0.327,1.071-0.231,1.398,0.215c0.157,0.214,0.392,0.357,0.654,0.397l0.957,0.147
			c0.374,0.057,0.749-0.102,0.968-0.411l0.518-0.732c0.249-0.351,0.245-0.822-0.01-1.169L48.058,39.571z"/>
	</g>
</g>
</svg>