<?xml version="1.0" encoding="utf-8"?>
<!-- Generator: Adobe Illustrator 19.1.0, SVG Export Plug-In . SVG Version: 6.00 Build 0)  -->
<!DOCTYPE svg PUBLIC "-//W3C//DTD SVG 1.1//EN" "http://www.w3.org/Graphics/SVG/1.1/DTD/svg11.dtd">
<svg version="1.1" id="DESIGNS" xmlns="http://www.w3.org/2000/svg" xmlns:xlink="http://www.w3.org/1999/xlink" x="0px" y="0px"
	 width="64px" height="64px" viewBox="0 0 64 64" style="enable-background:new 0 0 64 64;" xml:space="preserve">
<style type="text/css">
	.fandom_een{fill:#FF786E;}
	.fandom_twee{fill:#BE5652;}
	.fandom_drie{fill:#BE9148;}
	.fandom_vier{fill:#FFC865;}
	.fandom_twaalf{fill:#644638;}
	.st0{fill:#00B3AA;}
	.st1{fill:#018273;}
	.st2{fill:#EFEAE0;}
	.st3{fill:#8579A3;}
	.st4{fill:#808080;}
	.st5{fill:#666666;}
	.st6{fill:#685683;}
	.st7{fill:#AA9991;}
	.st8{fill:#4D4D4D;}
	.st9{fill:#FFFAFA;}
	.st10{fill:#6BC4D2;}
	.st11{fill:#508D9B;}
	.st12{fill:#CCCCCC;}
	.st13{fill:#4B322A;}
	.st14{fill:#3A3A3A;}
</style>
<g>
	<g>
		<path class="fandom_vier" d="M32,7C18.193,7,7,18.193,7,32h50C57,18.193,45.807,7,32,7z"/>
		<path class="fandom_drie" d="M32,57c13.807,0,25-11.193,25-25H7C7,45.807,18.193,57,32,57z"/>
	</g>
	<g>
		<path class="fandom_een" d="M50.578,42.645c0,0,0.48-5.643-4.411-11.561c-1.35-1.633-1.737-3.561-2.057-5.08
			c0.517,0.043,0.89-0.346,0.89-0.874v-5.109c0-0.373-0.153-0.715-0.506-0.844c-8.29-3.014-12.955,0.759-14.192,1.824
			C30.107,21.168,30,21.411,30,21.668v4.314c-1.336-1.093-4.746-3.05-10.728-1.254c-0.361,0.108-0.615,0.439-0.632,0.811
			c-0.05,1.074-0.176,3.3-0.416,4.671c-0.059,0.338,0.098,0.641,0.351,0.831c-0.785,0.935-3.419,3.956-5.928,5.504
			c-2.991,1.845-6.879,7.012-5.271,10.37c1.608,3.358,3.514,1.292,3.514,1.292s-2.587,7.057,2.91,10.39
			c4.169,2.528,12.888,1.423,17.045-1.745c-0.12-0.069,0.114-0.087,0,0c6.201,3.604,16.078,2.15,18.829-0.648
			C52.166,53.67,55.244,46.668,50.578,42.645z"/>
		<g>
			<path class="fandom_twaalf" d="M34.141,5.859c0.907,0,1.945-0.153,2.7-0.716c0.627-0.467,0.986-1.146,1.04-1.965
				c0.094-1.433-0.741-2.102-1.553-2.251c-1.329-0.247-3.141,0.777-4.181,2.156c-1.042-1.377-2.855-2.397-4.18-2.156
				c-0.812,0.149-1.646,0.818-1.552,2.251c0.054,0.818,0.413,1.498,1.04,1.965c0.755,0.562,1.793,0.716,2.7,0.716
				c0.168,0,0.329-0.007,0.485-0.015l-6.625,18.16c0.754,0.009,1.435,0.087,2.053,0.208l5.815-15.941l3.826,10.046
				c0.627-0.133,1.307-0.227,2.039-0.265L33.082,5.795C33.39,5.831,33.752,5.859,34.141,5.859z M35.885,2.884
				c0.003,0.039,0.005,0.093,0,0.164c-0.019,0.289-0.125,0.407-0.238,0.491c-0.324,0.242-0.929,0.312-1.554,0.321
				C34.711,3.263,35.5,2.906,35.885,2.884z M28.649,3.539c-0.113-0.084-0.22-0.202-0.238-0.491c-0.005-0.071-0.003-0.125,0-0.164
				c0.004,0,0.008,0,0.011,0c0.371,0,1.169,0.385,1.78,0.977C29.602,3.854,28.974,3.781,28.649,3.539z"/>
			<path class="fandom_twee" d="M25.383,59.3c-4.412,0.917-7.991,1.077-11.241-0.519c-5.83-2.864-3.338-10.474-3.338-10.474
				c0.476-0.4,1.25-1.018,3.75-3.126c2.679-2.259,4.299-0.738,3.253,1.55c-1.047,2.288-4.673,4.908-1.57,8.599
				C18.085,57.529,22.369,58.723,25.383,59.3z M29.378,32.816c-0.995-0.192-5.475-1.089-6.338-1.843
				c-0.74-0.646-0.03-4.939,0.352-6.958c-1.21,0.043-2.577,0.25-4.12,0.713c-0.361,0.108-0.615,0.439-0.632,0.811
				c-0.05,1.074-0.176,3.3-0.416,4.671c-0.059,0.338,0.098,0.641,0.351,0.831c-0.785,0.935-3.419,3.956-5.928,5.504
				c-1.054,0.65-2.216,1.717-3.213,2.968c5.172-0.57,11.101-6.511,11.101-6.511l8.455,1.943
				C29.115,34.225,29.246,33.51,29.378,32.816z M50.314,39.46c-5.024-4.526-11.347-1.517-10.867-0.587
				c0.649,1.257,2.173,2.515,0.762,5.672c-1.411,3.157-4.46,1.956-4.46,1.956c-6.715-3.25-3.885-13.641-3.071-16.193
				c0.111-0.348,0.423-0.588,0.79-0.616l11.404-0.874c-0.378-1.015-0.618-2.011-0.764-2.814c0,0-9.827,0.828-11.69,0.269
				c-1.475-0.442-1.298-4.292-1.149-6.032c-0.619,0.377-0.701,0.528-0.969,0.76C30.107,21.168,30,21.411,30,21.668V27
				c0,0.465-0.01,0.869,0.389,0.942c-0.709,3.174-2.343,10.95-2.166,14.404c0,0-3.914,10.431,2.258,14.305
				c2.011,1.262,4.663,2.086,7.203,2.26c-4.103-2.63-4.023-8.499-0.1-9.198c5.07-1.893,5.48-5.225,5.426-6.554
				c-0.016-0.383,0.234-0.723,0.595-0.863c3.513-1.36,6.972,0.348,6.972,0.348S50.686,41.209,50.314,39.46z"/>
		</g>
	</g>
</g>
</svg>