<?xml version="1.0" encoding="utf-8"?>
<!-- Generator: Adobe Illustrator 19.1.0, SVG Export Plug-In . SVG Version: 6.00 Build 0)  -->
<!DOCTYPE svg PUBLIC "-//W3C//DTD SVG 1.1//EN" "http://www.w3.org/Graphics/SVG/1.1/DTD/svg11.dtd">
<svg version="1.1" id="DESIGNS" xmlns="http://www.w3.org/2000/svg" xmlns:xlink="http://www.w3.org/1999/xlink" x="0px" y="0px"
	 width="64px" height="64px" viewBox="0 0 64 64" style="enable-background:new 0 0 64 64;" xml:space="preserve">
<style type="text/css">
	.fandom_een{fill:#FF786E;}
	.fandom_twee{fill:#BE5652;}
	.fandom_zeven{fill:#508D9B;}
	.fandom_acht{fill:#6BC4D2;}
	.fandom_twaalf{fill:#644638;}
	.st0{fill:#EFEAE0;}
	.st1{fill:#AA9991;}
	.st2{fill:#FFFAFA;}
	.st3{fill:#4B322A;}
	.st4{fill:#FFC865;}
	.st5{fill:#BE9148;}
	.st6{fill:#8579A3;}
	.st7{fill:#685683;}
	.st8{fill:#4D4D4D;}
	.st9{fill:#3A3A3A;}
	.st10{fill:#808080;}
	.st11{fill:#CCCCCC;}
	.st12{fill:#666666;}
	.st13{fill:#018273;}
	.st14{fill:#00B3AA;}
</style>
<g>
	<g>
		<path class="fandom_acht" d="M32,7C18.193,7,7,18.193,7,32h50C57,18.193,45.807,7,32,7z"/>
		<path class="fandom_zeven" d="M32,57c13.807,0,25-11.193,25-25H7C7,45.807,18.193,57,32,57z"/>
	</g>
	<g>
		<path class="fandom_een" d="M54.571,28.774c1.036-1.033,1.144-1.139,6.239-13.991c1.049-2.645,1.035-3.948-1.679-2.448
			c0,0-6.06,3.553-8.521,5.657c-1.797,1.536-2.922,3.159-3.956,5.269c-1.172,2.389-2.288,4.805-3.367,7.237
			c-1.866-2.306-4.567-3.59-7.549-3.568c1.195-2.377,2.353-4.774,3.456-7.195c0.974-2.139,1.513-4.038,1.56-6.401
			c0.064-3.238-1.037-10.176-1.037-10.176c-0.563-3.05-1.579-2.233-2.957,0.256c-6.697,12.094-6.711,12.245-6.851,13.701
			c-0.299,3.106,0.934,7.874,1.932,10.62c-2.443,0.998-4.53,2.758-6.201,4.775c-5.679,4.237-3.596,8.46-3.385,10.169
			c-2.022,5.668-2.803,6.043-2.114,7.379l-1.038,2.228c-0.545,1.169,1.268,2.014,1.813,0.845l0.872-1.871
			c1.034,0.083,1.897-0.848,2.534-1.966c-0.348-1.011-1.015-9.228-0.353-11.059c6.737-10.486,21.878-3.317,18.054,8.534
			c-0.995,1.674-7.767,6.374-8.769,6.747c-0.46,1.202-0.631,2.46,0.089,3.206l-0.892,1.861c-0.558,1.163,1.246,2.028,1.803,0.865
			l1.063-2.217c1.486-0.318,1.311-1.236,4.36-6.317c1.455-0.922,6.04-1.993,5.71-9.07c0.497-2.571,0.532-5.301-0.247-7.823
			C47.863,33.061,52.346,30.991,54.571,28.774z"/>
		<path class="fandom_twee" d="M19.573,53.574c-0.439-0.218-0.74-0.713-0.473-1.287l1.038-2.228
			c-0.69-1.336,0.092-1.711,2.114-7.379c-0.211-1.71-2.294-5.933,3.385-10.169c1.672-2.016,3.759-3.776,6.201-4.775
			c-0.998-2.746-2.231-7.514-1.932-10.62c0.14-1.456,0.154-1.607,6.851-13.701c0.743-1.341,1.38-2.197,1.898-2.223l-4.52,11.953
			c-0.657,1.738-1.007,3.578-1.033,5.436l0.297,8.785c0,0-3.885,3.245-4.666,6.624c-1.776,0.793-3.436,2.176-4.767,4.248
			c-0.357,0.988-0.328,3.833-0.17,6.403L19.573,53.574z M37.09,51.032c-1.748,1.261-3.384,2.317-3.838,2.486
			c-0.46,1.202-0.631,2.46,0.089,3.206l-0.892,1.861c-0.274,0.571,0.022,1.071,0.46,1.293L37.09,51.032z M51.485,20.939
			c1.453-1.519,6.614-6.472,9.496-9.227c-0.368-0.056-0.965,0.135-1.85,0.624c0,0-6.06,3.553-8.521,5.657
			c-1.797,1.536-2.922,3.159-3.956,5.269c-1.172,2.389-2.288,4.805-3.367,7.237l0.666,1.305
			C43.952,31.804,49.435,23.081,51.485,20.939z"/>
		<path class="fandom_twaalf" d="M36.161,33.792c-4.032-1.507-9.037-0.471-12.195,4.444c-0.653,1.806-0.014,9.811,0.338,11
			l9.057,4.23c1.272-0.587,7.692-5.067,8.659-6.695c0.478-1.481,0.66-2.89,0.598-4.199C42.424,38.39,39.73,35.125,36.161,33.792z"/>
	</g>
</g>
</svg>