<?xml version="1.0" encoding="utf-8"?>
<!-- Generator: Adobe Illustrator 19.1.0, SVG Export Plug-In . SVG Version: 6.00 Build 0)  -->
<!DOCTYPE svg PUBLIC "-//W3C//DTD SVG 1.1//EN" "http://www.w3.org/Graphics/SVG/1.1/DTD/svg11.dtd">
<svg version="1.1" id="DESIGNS" xmlns="http://www.w3.org/2000/svg" xmlns:xlink="http://www.w3.org/1999/xlink" x="0px" y="0px"
	 width="64px" height="64px" viewBox="0 0 64 64" style="enable-background:new 0 0 64 64;" xml:space="preserve">
<style type="text/css">
	.fandom_negen{fill:#685683;}
	.fandom_tien{fill:#8579A3;}
	.fandom_dertien{fill:#AA9991;}
	.fandom_veertien{fill:#EFEAE0;}
	.fandom_negentien{fill:#CCCCCC;}
	.st0{fill:#FF786E;}
	.st1{fill:#BE5652;}
	.st2{fill:#644638;}
	.st3{fill:#4B322A;}
	.st4{fill:#FFC865;}
	.st5{fill:#BE9148;}
	.st6{fill:#808080;}
	.st7{fill:#666666;}
	.st8{fill:#6BC4D2;}
	.st9{fill:#508D9B;}
	.st10{fill:#018273;}
	.st11{fill:#3A3A3A;}
	.st12{fill:#FFFAFA;}
	.st13{fill:#4D4D4D;}
	.st14{fill:#00B3AA;}
</style>
<g>
	<g>
		<path class="fandom_tien" d="M32,7C18.193,7,7,18.193,7,32h50C57,18.193,45.807,7,32,7z"/>
		<path class="fandom_negen" d="M32,57c13.807,0,25-11.193,25-25H7C7,45.807,18.193,57,32,57z"/>
	</g>
	<g>
		<path class="fandom_dertien" d="M41.323,55.326c-1.202-0.409-2.343-1.308-3.318-2.046c-0.725-0.548-1.545-0.955-2.419-1.201
			c-1.177-0.332-2.583-0.696-3.635-1.407c-0.461-0.311-0.81-0.674-1.074-1.03c-0.911,2.151,0.88,5.12,4.093,6.715
			c3.213,1.595,6.661,1.228,7.824-0.798C42.35,55.564,41.85,55.506,41.323,55.326z"/>
		<path class="fandom_veertien" d="M43.767,55.444c-0.6,0.136-1.477,0.211-2.444-0.118c-1.202-0.409-2.343-1.308-3.318-2.046
			c-0.725-0.548-1.545-0.955-2.419-1.201c-1.177-0.332-2.583-0.696-3.635-1.407c-0.846-0.571-1.317-1.315-1.571-1.875
			c0.546-2.774,1.719-5.181,3.379-7.247c1.175-1.628,3.608-3.63,5.95-5.001c3.022-1.769,4.999-2.892,6.833-5.908l1.92,0.953
			c-1.294,3.283-0.994,5.537-0.576,9.014c0.324,2.694,0.199,5.842-0.387,7.762C46.855,50.943,45.647,53.333,43.767,55.444z
			 M20.197,28.045c-0.787-1.488-2.576-3.434-4.363-4.844c-2.306-1.82-3.818-2.982-4.991-5.7L9.137,18.07
			c0.694,2.878,0.183,4.715-0.567,7.555c-0.581,2.2-0.843,4.831-0.579,6.494c0.236,2.21,0.962,4.335,2.279,6.308
			c0.482,0.183,1.203,0.346,2.044,0.185c1.046-0.2,2.098-0.815,2.994-1.315c0.666-0.371,1.394-0.614,2.149-0.717
			c1.016-0.139,2.226-0.279,3.183-0.747c0.769-0.376,1.247-0.94,1.523-1.376C22.031,32.089,21.336,29.953,20.197,28.045z
			 M41.738,22.905c0.325-1.271,0.312-3.331,0.02-5.08c-0.377-2.258-0.641-3.721,0.106-5.903l-1.282-0.565
			c-1.107,2.024-2.364,2.817-4.285,4.062c-1.488,0.965-3.017,2.346-3.735,3.444c-1.022,1.398-1.716,3.005-1.989,4.833
			c0.183,0.358,0.513,0.83,1.082,1.177c0.709,0.432,1.638,0.628,2.416,0.81c0.578,0.135,1.126,0.376,1.616,0.712
			c0.659,0.452,1.431,1.005,2.228,1.236c0.641,0.186,1.212,0.111,1.599,0.004C40.678,26.199,41.396,24.603,41.738,22.905z"/>
		<path class="fandom_negentien" d="M30.379,48.797c-2.64-0.885-3.372-4.305-2.646-6.567c2.925-9.117,8.409-7.822,12.27-9.039
			c1.335-0.421,3.185-2.097,4.084-2.969c0.327-0.317,0.815-0.394,1.223-0.191l1.23,0.611c-1.834,3.015-3.81,4.139-6.833,5.908
			c-2.342,1.37-4.775,3.373-5.95,5.001C32.099,43.616,30.926,46.023,30.379,48.797z M43.762,55.442
			c2.3,1.568,5.468,0.084,6.831-1.861c5.495-7.841,1.148-11.428-0.216-15.238c-0.472-1.318-0.255-3.805-0.104-5.048
			c0.055-0.452-0.179-0.887-0.587-1.09l-1.23-0.611c-1.294,3.283-0.994,5.537-0.576,9.014c0.324,2.694,0.199,5.842-0.387,7.762
			C46.85,50.94,45.642,53.33,43.762,55.442z M7.992,32.119c-0.265-1.663-0.003-4.293,0.579-6.494c0.75-2.84,1.261-4.678,0.567-7.555
			l-1.093,0.365c-0.362,0.121-0.607,0.455-0.614,0.837c-0.019,1.051-0.127,3.142-0.672,4.182c-1.576,3.008-5.603,5.483-1.947,12.634
			c0.907,1.774,3.366,3.374,5.459,2.338C8.954,36.454,8.227,34.329,7.992,32.119z M22.159,34.459
			c2.296-0.429,3.301-3.185,2.96-5.148c-1.373-7.913-6.079-7.474-9.145-8.932c-1.06-0.504-2.403-2.111-3.049-2.94
			c-0.235-0.301-0.631-0.421-0.994-0.301l-1.093,0.365c1.174,2.718,2.686,3.88,4.991,5.7c1.786,1.41,3.575,3.356,4.363,4.844
			C21.331,29.955,22.027,32.091,22.159,34.459z M32.562,18.862c0.719-1.098,2.247-2.479,3.735-3.444
			c1.921-1.246,3.178-2.038,4.285-4.062l-0.822-0.362c-0.272-0.12-0.589-0.055-0.793,0.161c-0.561,0.596-1.719,1.747-2.578,2.061
			c-2.485,0.91-6.105,0.229-7.741,6.27c-0.406,1.499,0.175,3.71,1.925,4.209C30.847,21.868,31.541,20.261,32.562,18.862z
			 M39.511,27.633c1.549,0.955,3.573-0.109,4.405-1.42c3.353-5.285,0.407-7.496-0.598-9.944c-0.348-0.846-0.28-2.477-0.219-3.293
			c0.022-0.297-0.144-0.574-0.416-0.694l-0.822-0.362c-0.746,2.183-0.483,3.646-0.106,5.903c0.292,1.749,0.305,3.809-0.02,5.08
			C41.392,24.601,40.675,26.198,39.511,27.633z"/>
	</g>
</g>
</svg>