<?xml version="1.0" encoding="utf-8"?>
<!-- Generator: Adobe Illustrator 19.1.0, SVG Export Plug-In . SVG Version: 6.00 Build 0)  -->
<!DOCTYPE svg PUBLIC "-//W3C//DTD SVG 1.1//EN" "http://www.w3.org/Graphics/SVG/1.1/DTD/svg11.dtd">
<svg version="1.1" id="DESIGNS" xmlns="http://www.w3.org/2000/svg" xmlns:xlink="http://www.w3.org/1999/xlink" x="0px" y="0px"
	 width="64px" height="64px" viewBox="0 0 64 64" style="enable-background:new 0 0 64 64;" xml:space="preserve">
<style type="text/css">
	.fandom_drie{fill:#BE9148;}
	.fandom_vier{fill:#FFC865;}
	.fandom_acht{fill:#6BC4D2;}
	.fandom_negen{fill:#685683;}
	.fandom_tien{fill:#8579A3;}
	.st0{fill:#508D9B;}
	.st1{fill:#4B322A;}
	.st2{fill:#EFEAE0;}
	.st3{fill:#BE5652;}
	.st4{fill:#FF786E;}
	.st5{fill:#644638;}
	.st6{fill:#4D4D4D;}
	.st7{fill:#3A3A3A;}
	.st8{fill:#CCCCCC;}
	.st9{fill:#AA9991;}
	.st10{fill:#00B3AA;}
	.st11{fill:#018273;}
	.st12{fill:#808080;}
	.st13{fill:#666666;}
	.st14{fill:#FFFAFA;}
</style>
<g>
	<g>
		<path class="fandom_tien" d="M32,7C18.193,7,7,18.193,7,32h50C57,18.193,45.807,7,32,7z"/>
		<path class="fandom_negen" d="M32,57c13.807,0,25-11.193,25-25H7C7,45.807,18.193,57,32,57z"/>
	</g>
	<g>
		<path class="fandom_acht" d="M24,8.307V15c0,0.552-0.447,1-1,1H12.79c0.584-0.7,1.205-1.368,1.861-2H22V9.08
			C22.653,8.795,23.32,8.537,24,8.307z M51,15.752c-0.626-0.732-1.294-1.427-2-2.082V33c0,0.552,0.447,1,1,1h6.921
			C56.973,33.34,57,32.673,57,32h-6V15.752z M55.693,40H23v-6h19c0.553,0,1-0.448,1-1V10h0.884
			c-0.912-0.494-1.859-0.932-2.835-1.311C41.017,8.787,41,8.891,41,9v23H22c-0.553,0-1,0.448-1,1v8c0,0.552,0.447,1,1,1h32.92
			C55.205,41.347,55.463,40.68,55.693,40z"/>
		<path class="fandom_drie" d="M24.604,24.896c0.405,0,0.782-0.105,1.12-0.276C25.312,25.435,24.476,26,23.5,26
			c-1.381,0-2.5-1.119-2.5-2.5c0-0.976,0.565-1.812,1.38-2.224c-0.171,0.338-0.276,0.715-0.276,1.12
			C22.104,23.777,23.223,24.896,24.604,24.896z M13.104,22.396c0-0.405,0.105-0.781,0.276-1.12C12.565,21.688,12,22.524,12,23.5
			c0,1.381,1.119,2.5,2.5,2.5c0.976,0,1.812-0.565,2.224-1.38c-0.338,0.171-0.715,0.276-1.12,0.276
			C14.223,24.896,13.104,23.777,13.104,22.396z M13.104,31.396c0-0.405,0.105-0.781,0.276-1.12C12.565,30.688,12,31.524,12,32.5
			c0,1.381,1.119,2.5,2.5,2.5c0.976,0,1.812-0.565,2.224-1.38c-0.338,0.171-0.715,0.276-1.12,0.276
			C14.223,33.896,13.104,32.777,13.104,31.396z M13.104,40.396c0-0.405,0.105-0.781,0.276-1.12C12.565,39.688,12,40.524,12,41.5
			c0,1.381,1.119,2.5,2.5,2.5c0.976,0,1.812-0.565,2.224-1.38c-0.338,0.171-0.715,0.276-1.12,0.276
			C14.223,42.896,13.104,41.777,13.104,40.396z M13.104,49.396c0-0.405,0.105-0.781,0.276-1.12C12.565,48.688,12,49.524,12,50.5
			c0,1.381,1.119,2.5,2.5,2.5c0.976,0,1.812-0.565,2.224-1.38c-0.338,0.171-0.715,0.276-1.12,0.276
			C14.223,51.896,13.104,50.777,13.104,49.396z M22.104,49.396c0-0.405,0.105-0.781,0.276-1.12C21.565,48.688,21,49.524,21,50.5
			c0,1.381,1.119,2.5,2.5,2.5c0.976,0,1.812-0.565,2.224-1.38c-0.338,0.171-0.715,0.276-1.12,0.276
			C23.223,51.896,22.104,50.777,22.104,49.396z M31.104,49.396c0-0.405,0.105-0.781,0.276-1.12C30.565,48.688,30,49.524,30,50.5
			c0,1.381,1.119,2.5,2.5,2.5c0.976,0,1.812-0.565,2.224-1.38c-0.338,0.171-0.715,0.276-1.12,0.276
			C32.223,51.896,31.104,50.777,31.104,49.396z M40.104,49.396c0-0.405,0.105-0.781,0.276-1.12C39.565,48.688,39,49.524,39,50.5
			c0,1.381,1.119,2.5,2.5,2.5c0.976,0,1.812-0.565,2.224-1.38c-0.338,0.171-0.715,0.276-1.12,0.276
			C41.223,51.896,40.104,50.777,40.104,49.396z M40.104,58.396c0-0.405,0.105-0.781,0.276-1.12C39.565,57.688,39,58.524,39,59.5
			c0,1.381,1.119,2.5,2.5,2.5c0.976,0,1.812-0.565,2.224-1.38c-0.338,0.171-0.715,0.276-1.12,0.276
			C41.223,60.896,40.104,59.777,40.104,58.396z M31.104,22.396c0-0.405,0.105-0.781,0.276-1.12C30.565,21.688,30,22.524,30,23.5
			c0,1.381,1.119,2.5,2.5,2.5c0.976,0,1.812-0.565,2.224-1.38c-0.338,0.171-0.715,0.276-1.12,0.276
			C32.223,24.896,31.104,23.777,31.104,22.396z M31.104,13.396c0-0.405,0.105-0.781,0.276-1.12C30.565,12.688,30,13.524,30,14.5
			c0,1.381,1.119,2.5,2.5,2.5c0.976,0,1.812-0.565,2.224-1.38c-0.338,0.171-0.715,0.276-1.12,0.276
			C32.223,15.896,31.104,14.777,31.104,13.396z M31.104,4.396c0-0.405,0.105-0.781,0.276-1.12C30.565,3.688,30,4.524,30,5.5
			C30,6.881,31.119,8,32.5,8c0.976,0,1.812-0.565,2.224-1.38c-0.338,0.171-0.715,0.276-1.12,0.276
			C32.223,6.896,31.104,5.777,31.104,4.396z"/>
		<path class="fandom_vier" d="M26,23.5c0,0.405-0.105,0.782-0.276,1.12c-0.338,0.171-0.715,0.276-1.12,0.276
			c-1.381,0-2.5-1.119-2.5-2.5c0-0.405,0.105-0.781,0.276-1.12C22.718,21.105,23.095,21,23.5,21C24.881,21,26,22.119,26,23.5z
			 M14.5,21c-0.405,0-0.782,0.105-1.12,0.276c-0.171,0.338-0.276,0.715-0.276,1.12c0,1.381,1.119,2.5,2.5,2.5
			c0.405,0,0.782-0.105,1.12-0.276C16.895,24.282,17,23.905,17,23.5C17,22.119,15.881,21,14.5,21z M14.5,30
			c-0.405,0-0.782,0.105-1.12,0.276c-0.171,0.338-0.276,0.715-0.276,1.12c0,1.381,1.119,2.5,2.5,2.5c0.405,0,0.782-0.105,1.12-0.276
			C16.895,33.282,17,32.905,17,32.5C17,31.119,15.881,30,14.5,30z M14.5,39c-0.405,0-0.782,0.105-1.12,0.276
			c-0.171,0.338-0.276,0.715-0.276,1.12c0,1.381,1.119,2.5,2.5,2.5c0.405,0,0.782-0.105,1.12-0.276C16.895,42.282,17,41.905,17,41.5
			C17,40.119,15.881,39,14.5,39z M14.5,48c-0.405,0-0.782,0.105-1.12,0.276c-0.171,0.338-0.276,0.715-0.276,1.12
			c0,1.381,1.119,2.5,2.5,2.5c0.405,0,0.782-0.105,1.12-0.276C16.895,51.282,17,50.905,17,50.5C17,49.119,15.881,48,14.5,48z
			 M23.5,48c-0.405,0-0.782,0.105-1.12,0.276c-0.171,0.338-0.276,0.715-0.276,1.12c0,1.381,1.119,2.5,2.5,2.5
			c0.405,0,0.782-0.105,1.12-0.276C25.895,51.282,26,50.905,26,50.5C26,49.119,24.881,48,23.5,48z M32.5,48
			c-0.405,0-0.782,0.105-1.12,0.276c-0.171,0.338-0.276,0.715-0.276,1.12c0,1.381,1.119,2.5,2.5,2.5c0.405,0,0.782-0.105,1.12-0.276
			C34.895,51.282,35,50.905,35,50.5C35,49.119,33.881,48,32.5,48z M41.5,48c-0.405,0-0.782,0.105-1.12,0.276
			c-0.171,0.338-0.276,0.715-0.276,1.12c0,1.381,1.119,2.5,2.5,2.5c0.405,0,0.782-0.105,1.12-0.276C43.895,51.282,44,50.905,44,50.5
			C44,49.119,42.881,48,41.5,48z M41.5,57c-0.405,0-0.782,0.105-1.12,0.276c-0.171,0.338-0.276,0.715-0.276,1.12
			c0,1.381,1.119,2.5,2.5,2.5c0.405,0,0.782-0.105,1.12-0.276C43.895,60.282,44,59.905,44,59.5C44,58.119,42.881,57,41.5,57z
			 M32.5,21c-0.405,0-0.782,0.105-1.12,0.276c-0.171,0.338-0.276,0.715-0.276,1.12c0,1.381,1.119,2.5,2.5,2.5
			c0.405,0,0.782-0.105,1.12-0.276C34.895,24.282,35,23.905,35,23.5C35,22.119,33.881,21,32.5,21z M32.5,12
			c-0.405,0-0.782,0.105-1.12,0.276c-0.171,0.338-0.276,0.715-0.276,1.12c0,1.381,1.119,2.5,2.5,2.5c0.405,0,0.782-0.105,1.12-0.276
			C34.895,15.282,35,14.905,35,14.5C35,13.119,33.881,12,32.5,12z M32.5,3c-0.405,0-0.782,0.105-1.12,0.276
			c-0.171,0.338-0.276,0.715-0.276,1.12c0,1.381,1.119,2.5,2.5,2.5c0.405,0,0.782-0.105,1.12-0.276C34.895,6.282,35,5.905,35,5.5
			C35,4.119,33.881,3,32.5,3z"/>
	</g>
</g>
</svg>