<?xml version="1.0" encoding="utf-8"?>
<!-- Generator: Adobe Illustrator 19.1.0, SVG Export Plug-In . SVG Version: 6.00 Build 0)  -->
<!DOCTYPE svg PUBLIC "-//W3C//DTD SVG 1.1//EN" "http://www.w3.org/Graphics/SVG/1.1/DTD/svg11.dtd">
<svg version="1.1" id="DESIGNS" xmlns="http://www.w3.org/2000/svg" xmlns:xlink="http://www.w3.org/1999/xlink" x="0px" y="0px"
	 width="64px" height="64px" viewBox="0 0 64 64" style="enable-background:new 0 0 64 64;" xml:space="preserve">
<style type="text/css">
	.fandom_een{fill:#FF786E;}
	.fandom_twee{fill:#BE5652;}
	.fandom_zeven{fill:#508D9B;}
	.fandom_acht{fill:#6BC4D2;}
	.fandom_veertien{fill:#EFEAE0;}
	.fandom_vijftien{fill:#3A3A3A;}
	.st0{fill:#AA9991;}
	.st1{fill:#FFFAFA;}
	.st2{fill:#644638;}
	.st3{fill:#4B322A;}
	.st4{fill:#FFC865;}
	.st5{fill:#BE9148;}
	.st6{fill:#8579A3;}
	.st7{fill:#685683;}
	.st8{fill:#4D4D4D;}
	.st9{fill:#808080;}
	.st10{fill:#CCCCCC;}
	.st11{fill:#666666;}
	.st12{fill:#018273;}
	.st13{fill:#00B3AA;}
</style>
<g>
	<g>
		<path class="fandom_een" d="M32,7C18.193,7,7,18.193,7,32h50C57,18.193,45.807,7,32,7z"/>
		<path class="fandom_twee" d="M32,57c13.807,0,25-11.193,25-25H7C7,45.807,18.193,57,32,57z"/>
	</g>
	<g>
		<path class="fandom_acht" d="M44.909,28.034c-0.336-2.033-0.108-5.673-2.428-9.097c-2.521-3.722-4.757-8.302-7.058-12.205
			C34.207,4.668,32.436,3.611,30,3.578C29.779,4.22,20.232,32.15,17.502,52.354c6.895,4.921,15.891,6.023,23.783,2.865
			c0,0,5.465-1.885,9.844-7.122C47.276,36.023,45.178,29.662,44.909,28.034z"/>
		<path class="fandom_zeven" d="M23.433,6.795c-2.301,3.903-4.536,8.483-7.058,12.205c-2.32,3.424-2.092,7.064-2.428,9.097
			c-0.276,1.671-0.394,2.113-4.443,14.818c1.837,3.78,4.606,7.019,7.998,9.44C20.264,31.913,30,3.646,30,3.646
			C27.354,3.562,24.738,4.581,23.433,6.795z"/>
		<path class="fandom_vijftien" d="M38.5,31c-3.625-6.75-6.5-6.625-11.125-6.625s-4.25-1.5-9.25,6.75
			c-4.679,7.72-3.035,18.322-2.993,19.325c0.218,0.199,0.442,0.391,0.667,0.583c0.867-0.921,1.731-1.895,2.482-2.904
			c0.854-1.146,1.649-2.334,2.468-3.504c0.482-0.689,1.008-1.352,1.595-1.955c1.996-2.052,4.715-3.152,7.427-1.841
			c1.626,0.786,3.015,2.229,4.324,3.445c3.185,2.958,9.432,9.908,9.432,9.908c0.273-0.142,0.542-0.289,0.808-0.44
			C46.094,47.839,41.425,36.446,38.5,31z"/>
		<path class="fandom_veertien" d="M38.171,48.38l1.034-3.318l0.211,4.643C38.127,48.312,38.171,48.38,38.171,48.38z M37.448,47.619
			l-0.1-4.921l-1.708,3.088L37.448,47.619z M34.679,44.845l0.29-5.214l-2.329,3.281C34.005,44.156,34.679,44.845,34.679,44.845z
			 M31.464,41.911l-0.724-5.546l-1.592,4.23C29.768,40.813,30.328,41.026,31.464,41.911z M27.406,40.282l-0.746-3.896l-1.492,4.338
			C25.885,40.431,26.635,40.275,27.406,40.282z M23.818,41.44l-1.774-3.503l-0.26,5.366C22.389,42.597,22.858,42.088,23.818,41.44z
			 M21.054,44.22l-1.491-2.7l0.338,4.33C21.09,44.13,21.054,44.22,21.054,44.22z M37.038,28.593l-0.069,4.126l1.49-1.792
			C37.973,30.029,37.502,29.261,37.038,28.593z M31.365,24.57c-0.593-0.101-1.213-0.149-1.863-0.172l0.796,5.633L31.365,24.57z
			 M26.222,29.562l0.73-5.192c-0.957-0.018-1.684-0.093-2.295-0.101L26.222,29.562z M21.076,26.527l1.524,3.241l0.389-5.164
			C22.414,24.913,21.836,25.489,21.076,26.527z M18.025,31.307l1.663,2.427l-0.18-4.855C19.052,29.603,18.614,30.31,18.025,31.307z
			 M33.767,25.398l0.316,5.821l2.01-3.851C35.319,26.469,34.553,25.836,33.767,25.398z"/>
	</g>
</g>
</svg>