<?xml version="1.0" encoding="utf-8"?>
<!-- Generator: Adobe Illustrator 19.1.0, SVG Export Plug-In . SVG Version: 6.00 Build 0)  -->
<!DOCTYPE svg PUBLIC "-//W3C//DTD SVG 1.1//EN" "http://www.w3.org/Graphics/SVG/1.1/DTD/svg11.dtd">
<svg version="1.1" id="DESIGNS" xmlns="http://www.w3.org/2000/svg" xmlns:xlink="http://www.w3.org/1999/xlink" x="0px" y="0px"
	 width="64px" height="64px" viewBox="0 0 64 64" style="enable-background:new 0 0 64 64;" xml:space="preserve">
<style type="text/css">
	.fandom_een{fill:#FF786E;}
	.fandom_twee{fill:#BE5652;}
	.fandom_elf{fill:#4B322A;}
	.fandom_twaalf{fill:#644638;}
	.fandom_veertien{fill:#EFEAE0;}
	.st0{fill:#6BC4D2;}
	.st1{fill:#508D9B;}
	.st2{fill:#FFC865;}
	.st3{fill:#8579A3;}
	.st4{fill:#00B3AA;}
	.st5{fill:#BE9148;}
	.st6{fill:#018273;}
	.st7{fill:#685683;}
	.st8{fill:#AA9991;}
	.st9{fill:#3A3A3A;}
	.st10{fill:#666666;}
	.st11{fill:#4D4D4D;}
	.st12{fill:#CCCCCC;}
	.st13{fill:#808080;}
	.st14{fill:#FFFAFA;}
</style>
<g>
	<g>
		<path class="fandom_een" d="M32,7C18.193,7,7,18.193,7,32h50C57,18.193,45.807,7,32,7z"/>
		<path class="fandom_twee" d="M32,57c13.807,0,25-11.193,25-25H7C7,45.807,18.193,57,32,57z"/>
	</g>
	<g>
		<path class="fandom_twaalf" d="M62.605,11.615c1.928-4.279,2.175-12.011-1.306-8.889c-4.041,2.346-6.992,0.428-9.873,5.096
			c-11.468-6.127-15.557,8.612-17.731,9.336c-5.642,1.878-1.923,8.252-3.096,9.494L0.928,58.458
			c-2.881,2.928,1.601,7.435,4.582,4.688L39.61,33.563c4.668,1.104,7.223,0.104,8.808-2.917
			c12.556-1.681,4.881-12.143,11.091-14.077C61.289,16.207,63.667,14.222,62.605,11.615z M40.632,14.402
			c1.201-2.393,4.045-5.891,9.509-2.046c0.717,0.505,0.481,1.628-0.379,1.806l-8.015,1.664
			C40.923,15.997,40.256,15.151,40.632,14.402z M51.63,21.718c-1.272,2.434-4.319,6.01-10.396,2.449
			c-0.075-0.044-0.151-0.089-0.227-0.136c-0.776-0.471-0.568-1.655,0.322-1.841l2.399-0.504l6.806-1.429
			C51.375,20.081,52.027,20.958,51.63,21.718z"/>
		<path class="fandom_veertien" d="M41.005,24.026c-0.773-0.473-0.565-1.649,0.322-1.836c2.605-0.547,6.819-1.432,9.223-1.934
			c0.819-0.171,1.499,0.681,1.112,1.419c-0.753,1.438-1.917,2.816-3.38,3.494C45.895,26.274,43.339,25.454,41.005,24.026z
			 M41.747,15.826l8.015-1.664c0.86-0.179,1.096-1.301,0.379-1.806c-5.463-3.844-8.307-0.347-9.509,2.046
			C40.256,15.151,40.923,15.997,41.747,15.826z"/>
		<path class="fandom_elf" d="M63.231,2.323c-0.666-0.914-1.933,0.402-1.933,0.402c-4.041,2.346-6.992,0.428-9.873,5.096
			c-11.468-6.127-15.557,8.612-17.731,9.336c-5.642,1.878-1.923,8.252-3.096,9.494L0.928,58.458
			c-1.129,1.147-1.288,3.061,0.067,4.448l40.24-38.738c-0.075-0.044-0.151-0.089-0.227-0.136c-0.776-0.471-0.568-1.655,0.322-1.841
			l2.399-0.504L63.231,2.323z M40.632,14.402c1.201-2.393,4.045-5.891,9.509-2.046c0.717,0.505,0.481,1.628-0.379,1.806
			l-8.015,1.664C40.923,15.997,40.256,15.151,40.632,14.402z"/>
	</g>
</g>
</svg>