<?xml version="1.0" encoding="utf-8"?>
<!-- Generator: Adobe Illustrator 19.1.0, SVG Export Plug-In . SVG Version: 6.00 Build 0)  -->
<!DOCTYPE svg PUBLIC "-//W3C//DTD SVG 1.1//EN" "http://www.w3.org/Graphics/SVG/1.1/DTD/svg11.dtd">
<svg version="1.1" id="DESIGNS" xmlns="http://www.w3.org/2000/svg" xmlns:xlink="http://www.w3.org/1999/xlink" x="0px" y="0px"
	 width="64px" height="64px" viewBox="0 0 64 64" style="enable-background:new 0 0 64 64;" xml:space="preserve">
<style type="text/css">
	.fandom_een{fill:#FF786E;}
	.fandom_twee{fill:#BE5652;}
	.fandom_vijf{fill:#018273;}
	.fandom_zes{fill:#00B3AA;}
	.fandom_dertien{fill:#AA9991;}
	.fandom_veertien{fill:#EFEAE0;}
	.fandom_twintig{fill:#FFFAFA;}
	.st0{fill:#6BC4D2;}
	.st1{fill:#508D9B;}
	.st2{fill:#4B322A;}
	.st3{fill:#644638;}
	.st4{fill:#8579A3;}
	.st5{fill:#685683;}
	.st6{fill:#4D4D4D;}
	.st7{fill:#3A3A3A;}
	.st8{fill:#CCCCCC;}
	.st9{fill:#FFC865;}
	.st10{fill:#BE9148;}
	.st11{fill:#808080;}
	.st12{fill:#666666;}
</style>
<g>
	<g>
		<path class="fandom_zes" d="M32,7C18.193,7,7,18.193,7,32h50C57,18.193,45.807,7,32,7z"/>
		<path class="fandom_vijf" d="M32,57c13.807,0,25-11.193,25-25H7C7,45.807,18.193,57,32,57z"/>
	</g>
	<g>
		<path class="fandom_veertien" d="M36,7c0,2.209-1.791,4-4,4s-4-1.791-4-4s1.791-4,4-4S36,4.791,36,7z M54.5,18.001
			c-3.321,0-6.012,0.672-6.012,1.502s2.692,1.502,6.012,1.502s6.012-0.672,6.012-1.502S57.821,18.001,54.5,18.001z M47,27.001
			c-3.321,0-6.012,0.672-6.012,1.502s2.692,1.502,6.012,1.502s6.012-0.672,6.012-1.502S50.321,27.001,47,27.001z M17,27.001
			c-3.321,0-6.012,0.672-6.012,1.502s2.692,1.502,6.012,1.502s6.012-0.672,6.012-1.502S20.321,27.001,17,27.001z M32,27.001
			c-3.321,0-6.012,0.672-6.012,1.502s2.692,1.502,6.012,1.502s6.012-0.672,6.012-1.502S35.321,27.001,32,27.001z M39.5,18.001
			c-3.321,0-6.012,0.672-6.012,1.502s2.692,1.502,6.012,1.502s6.012-0.672,6.012-1.502S42.821,18.001,39.5,18.001z M24.5,18.001
			c-3.321,0-6.012,0.672-6.012,1.502s2.692,1.502,6.012,1.502s6.012-0.672,6.012-1.502S27.821,18.001,24.5,18.001z M9.5,18.005
			c-3.321,0-6.012,0.672-6.012,1.502s2.692,1.502,6.012,1.502s6.012-0.672,6.012-1.502S12.821,18.005,9.5,18.005z M39.5,36.001
			c-3.321,0-6.012,0.672-6.012,1.502s2.692,1.502,6.012,1.502s6.012-0.672,6.012-1.502S42.821,36.001,39.5,36.001z M24.5,36.001
			c-3.321,0-6.012,0.672-6.012,1.502s2.692,1.502,6.012,1.502s6.012-0.672,6.012-1.502S27.821,36.001,24.5,36.001z M32,44.001
			c-3.321,0-6.012,0.672-6.012,1.502s2.692,1.502,6.012,1.502s6.012-0.672,6.012-1.502S35.321,44.001,32,44.001z"/>
		<path class="fandom_een" d="M11.959,34.595c-1.955,0.743-4.958,0.464-6.19-0.842L3.924,22.265
			c2.715,1.001,8.454,0.995,11.18-0.013L14.642,25.1C11.708,25.361,9,26.218,9,28.5c0,0.982,0.531,2.08,2.476,2.779
			C11.459,31.273,11.959,34.595,11.959,34.595z M37.141,34.101C37.927,34.031,38.728,34,39.5,34c0.886,0,1.672,0.036,2.38,0.1
			l-0.456-2.838c-0.936-0.353-1.547-0.789-1.922-1.278c-0.463,0.566-1.06,0.963-1.897,1.265L37.141,34.101z M24.497,27.018
			c0.91-1.197,2.962-1.724,5.145-1.918l0.462-2.848c-2.726,1.008-8.465,1.014-11.18,0.013l0.455,2.834
			C22.342,25.363,23.82,26.133,24.497,27.018z M18.924,40.249C17.208,39.691,16.5,38.481,16.5,37.5c0-2.282,2.707-3.139,5.642-3.4
			l0.462-2.851c-2.726,1.008-8.465,1.014-11.18,0.013L13.27,42.75c1.231,1.306,4.235,1.586,6.189,0.843
			C19.459,43.592,18.91,40.244,18.924,40.249z M33.924,22.265l0.455,2.834c2.956,0.263,4.44,1.028,5.117,1.911
			c0.912-1.192,2.965-1.717,5.146-1.911l0.462-2.848C42.378,23.26,36.639,23.266,33.924,22.265z M48.924,22.265l0.455,2.834
			C53.952,25.507,55,27.117,55,28.5c0,1.389-1.008,2.247-2.455,2.768c0.019-0.007-0.479,3.3-0.479,3.3
			c1.967,0.766,4.957,0.516,6.165-0.763l1.873-11.553C57.378,23.26,51.639,23.266,48.924,22.265z M32,36.015
			c0.911-1.194,2.963-1.718,5.142-1.914l0.463-2.852c-2.726,1.008-8.465,1.014-11.18,0.013l0.456,2.836
			C29.842,34.361,31.323,35.13,32,36.015z M26.468,48.276C24.53,47.576,24,46.481,24,45.5c0-2.324,2.809-3.172,5.806-3.416
			l0.298-1.835c-2.726,1.008-8.465,1.014-11.18,0.013L20.77,51.75c1.263,1.339,4.394,1.604,6.341,0.787
			C27.111,52.537,26.454,48.271,26.468,48.276z M33.924,40.262l0.293,1.822C38.932,42.466,40,44.1,40,45.5
			c0,1.389-0.949,2.228-2.396,2.749c0.019-0.007-0.691,4.259-0.691,4.259c1.962,0.838,5.078,0.605,6.317-0.706l1.873-11.553
			C42.378,41.257,36.639,41.263,33.924,40.262z M24.5,34c0.884,0,1.673,0.035,2.379,0.097c0,0-0.42-2.824-0.403-2.818
			c-0.986-0.355-1.609-0.811-1.982-1.304c-0.456,0.601-1.89,1.273-1.89,1.273L22.142,34.1C22.928,34.03,23.729,34,24.5,34z
			 M33.924,40.263c-0.951-0.35-1.556-0.797-1.923-1.278c-0.464,0.608-1.976,1.293-1.897,1.264l-0.298,1.835
			C29.257,42.129,30.745,42,32,42c0.817,0,1.552,0.03,2.216,0.083L33.924,40.263z M41.424,31.262L41.88,34.1
			c4.573,0.407,5.62,2.018,5.62,3.4c0,1.389-1.008,2.247-2.455,2.768c0.019-0.007-0.479,3.297-0.479,3.297
			c1.967,0.765,4.956,0.515,6.164-0.763l1.873-11.553C49.878,32.257,44.139,32.263,41.424,31.262z M26.424,48.262L28.27,59.75
			c1.554,1.648,5.934,1.668,7.461,0.052l1.873-11.553C34.878,49.257,29.139,49.263,26.424,48.262z"/>
		<path class="fandom_twee" d="M8.785,22.993l0.523,12.005C6.874,34.98,5.77,33.753,5.77,33.753L3.924,22.265
			C5.023,22.67,6.591,22.943,8.785,22.993z M11.424,31.262L13.27,42.75c0,0,1.104,1.227,3.538,1.245L16.285,31.99
			C14.091,31.94,12.523,31.667,11.424,31.262z M23.936,26.459l-0.151-3.466c-2.194-0.05-3.762-0.323-4.861-0.728l0.455,2.834
			C21.696,25.306,23.108,25.82,23.936,26.459z M38.936,26.459l-0.151-3.466c-2.194-0.05-3.762-0.323-4.861-0.728l0.455,2.834
			C36.696,25.306,38.108,25.82,38.936,26.459z M53.936,26.459l-0.151-3.466c-2.194-0.05-3.762-0.323-4.861-0.728l0.455,2.834
			C51.696,25.306,53.108,25.82,53.936,26.459z M52.545,31.268c0.019-0.007-0.48,3.303-0.48,3.303
			c0.557,0.229,1.297,0.42,2.243,0.427l-0.2-4.598C53.695,30.76,53.162,31.046,52.545,31.268z M18.924,40.262L20.77,51.75
			c0,0,1.104,1.227,3.538,1.245L23.785,40.99C21.591,40.94,20.023,40.667,18.924,40.262z M31.436,35.459l-0.151-3.469
			c-2.194-0.05-3.762-0.323-4.861-0.728l0.456,2.836C29.199,34.304,30.609,34.82,31.436,35.459z M22.142,34.1
			c0.707-0.063,1.424-0.092,2.123-0.097l-0.159-3.599c-0.572,0.533-1.502,0.845-1.502,0.845L22.142,34.1z M37.141,34.101
			c0.707-0.063,1.424-0.092,2.123-0.097L39.108,30.4c-0.412,0.361-0.887,0.627-1.504,0.849
			C37.623,31.242,37.141,34.101,37.141,34.101z M46.436,35.459l-0.151-3.469c-2.194-0.05-3.762-0.323-4.861-0.728L41.88,34.1
			C44.197,34.306,45.609,34.821,46.436,35.459z M45.045,40.268c0.019-0.007-0.479,3.3-0.479,3.3
			c0.557,0.229,1.297,0.419,2.242,0.426l-0.2-4.595C46.195,39.76,45.662,40.046,45.045,40.268z M29.806,42.084
			c0.639-0.052,1.284-0.076,1.915-0.081l-0.114-2.628c-0.443,0.393-1.563,0.896-1.503,0.874L29.806,42.084z M38.891,43.421
			l-0.106-2.431c-2.194-0.05-3.762-0.323-4.861-0.728l0.293,1.822C36.588,42.276,38.037,42.784,38.891,43.421z M37.545,48.268
			c0.019-0.007-0.63,4.231-0.63,4.231c0.572,0.259,1.354,0.488,2.393,0.496l-0.242-5.559C38.659,47.779,38.142,48.053,37.545,48.268
			z M26.424,48.262L28.27,59.75c0,0,1.104,1.227,3.538,1.245L31.285,48.99C29.091,48.94,27.523,48.667,26.424,48.262z"/>
		<path class="fandom_twintig" d="M54.5,16c-2.911,0-6.261,0.39-7.5,2.015C46.162,16.919,44.093,16,39.5,16
			c-2.911,0-6.261,0.39-7.5,2.015C31.162,16.919,29.093,16,24.5,16c-2.911,0-6.261,0.39-7.5,2.015C16.162,16.919,14.093,16,9.5,16
			c-3.65,0-8,0.607-8,3.5c0,1.597,1.388,3.5,8,3.5c2.911,0,6.261-0.39,7.5-2.015C17.838,22.081,19.907,23,24.5,23
			c2.911,0,6.261-0.39,7.5-2.015C32.838,22.081,34.907,23,39.5,23c2.911,0,6.261-0.39,7.5-2.015C47.838,22.081,49.907,23,54.5,23
			c3.65,0,8-0.607,8-3.5C62.5,17.903,61.112,16,54.5,16z M9.5,21.008c-3.321,0-6.012-0.672-6.012-1.502s2.692-1.502,6.012-1.502
			s6.012,0.672,6.012,1.502S12.821,21.008,9.5,21.008z M24.5,21.005c-3.321,0-6.012-0.672-6.012-1.502s2.692-1.502,6.012-1.502
			s6.012,0.672,6.012,1.502S27.821,21.005,24.5,21.005z M39.5,21.005c-3.321,0-6.012-0.672-6.012-1.502s2.692-1.502,6.012-1.502
			s6.012,0.672,6.012,1.502S42.821,21.005,39.5,21.005z M54.5,21.005c-3.321,0-6.012-0.672-6.012-1.502s2.692-1.502,6.012-1.502
			s6.012,0.672,6.012,1.502S57.821,21.005,54.5,21.005z M47,25c-2.911,0-6.261,0.39-7.5,2.015C38.662,25.919,36.593,25,32,25
			c-2.911,0-6.261,0.39-7.5,2.015C23.662,25.919,21.593,25,17,25c-3.65,0-8,0.607-8,3.5c0,1.597,1.388,3.5,8,3.5
			c2.911,0,6.261-0.39,7.5-2.015C25.338,31.081,27.407,32,32,32c2.911,0,6.261-0.39,7.5-2.015C40.338,31.081,42.407,32,47,32
			c3.65,0,8-0.607,8-3.5C55,26.903,53.612,25,47,25z M17,30.005c-3.321,0-6.012-0.672-6.012-1.502s2.692-1.502,6.012-1.502
			s6.012,0.672,6.012,1.502S20.321,30.005,17,30.005z M32,30.005c-3.321,0-6.012-0.672-6.012-1.502s2.692-1.502,6.012-1.502
			s6.012,0.672,6.012,1.502S35.321,30.005,32,30.005z M47,30.005c-3.321,0-6.012-0.672-6.012-1.502s2.692-1.502,6.012-1.502
			s6.012,0.672,6.012,1.502S50.321,30.005,47,30.005z M39.5,34c-2.911,0-6.261,0.39-7.5,2.015C31.162,34.919,29.093,34,24.5,34
			c-3.65,0-8,0.607-8,3.5c0,1.597,1.388,3.5,8,3.5c2.911,0,6.261-0.39,7.5-2.015C32.838,40.081,34.907,41,39.5,41
			c3.65,0,8-0.607,8-3.5C47.5,35.903,46.112,34,39.5,34z M24.5,39.005c-3.321,0-6.012-0.672-6.012-1.502s2.692-1.502,6.012-1.502
			s6.012,0.672,6.012,1.502S27.821,39.005,24.5,39.005z M39.5,39.005c-3.321,0-6.012-0.672-6.012-1.502s2.692-1.502,6.012-1.502
			s6.012,0.672,6.012,1.502S42.821,39.005,39.5,39.005z M32,42c-3.65,0-8,0.607-8,3.5c0,1.597,1.388,3.5,8,3.5c3.65,0,8-0.607,8-3.5
			C40,43.903,38.612,42,32,42z M32,47.005c-3.321,0-6.012-0.672-6.012-1.502s2.692-1.502,6.012-1.502s6.012,0.672,6.012,1.502
			S35.321,47.005,32,47.005z"/>
		<path class="fandom_dertien" d="M35.562,8.785C34.905,10.093,33.564,11,32,11c-2.209,0-4-1.791-4-4
			c0-1.564,0.907-2.905,2.215-3.562C28.491,6.87,32.128,10.51,35.562,8.785z M60.541,19.524c-0.029-0.603-1.438-1.119-3.463-1.362
			c-0.355,0.975-1.135,2.203-2.137,2.841C58.039,20.946,60.486,20.309,60.541,19.524z M23.041,28.521
			c-0.029-0.603-1.438-1.119-3.463-1.362c-0.355,0.975-1.135,2.203-2.137,2.841C20.539,29.943,22.986,29.305,23.041,28.521z
			 M53.041,28.521c-0.029-0.603-1.438-1.119-3.463-1.362c-0.355,0.975-1.135,2.203-2.137,2.841
			C50.539,29.943,52.986,29.305,53.041,28.521z M38.041,28.521c-0.029-0.603-1.438-1.119-3.463-1.362
			c-0.355,0.975-1.135,2.203-2.137,2.841C35.539,29.943,37.986,29.305,38.041,28.521z M15.541,19.524
			c-0.029-0.603-1.438-1.119-3.463-1.362c-0.355,0.975-1.135,2.203-2.137,2.841C13.039,20.946,15.486,20.309,15.541,19.524z
			 M30.541,19.524c-0.029-0.603-1.438-1.119-3.463-1.362c-0.355,0.975-1.135,2.203-2.137,2.841
			C28.039,20.946,30.486,20.309,30.541,19.524z M45.541,19.524c-0.029-0.603-1.438-1.119-3.463-1.362
			c-0.355,0.975-1.135,2.203-2.137,2.841C43.039,20.946,45.486,20.309,45.541,19.524z M30.541,37.521
			c-0.029-0.603-1.438-1.119-3.463-1.362c-0.355,0.975-1.135,2.203-2.137,2.841C28.039,38.943,30.486,38.305,30.541,37.521z
			 M45.541,37.521c-0.029-0.603-1.438-1.119-3.463-1.362c-0.355,0.975-1.135,2.203-2.137,2.841
			C43.039,38.943,45.486,38.305,45.541,37.521z M38.041,45.521c-0.029-0.603-1.438-1.119-3.463-1.362
			c-0.355,0.975-1.135,2.203-2.137,2.841C35.539,46.943,37.986,46.305,38.041,45.521z"/>
	</g>
</g>
</svg>