<?xml version="1.0" encoding="utf-8"?>
<!-- Generator: Adobe Illustrator 19.1.0, SVG Export Plug-In . SVG Version: 6.00 Build 0)  -->
<!DOCTYPE svg PUBLIC "-//W3C//DTD SVG 1.1//EN" "http://www.w3.org/Graphics/SVG/1.1/DTD/svg11.dtd">
<svg version="1.1" id="DESIGNS" xmlns="http://www.w3.org/2000/svg" xmlns:xlink="http://www.w3.org/1999/xlink" x="0px" y="0px"
	 width="64px" height="64px" viewBox="0 0 64 64" style="enable-background:new 0 0 64 64;" xml:space="preserve">
<style type="text/css">
	.fandom_een{fill:#FF786E;}
	.fandom_twee{fill:#BE5652;}
	.fandom_drie{fill:#BE9148;}
	.fandom_vier{fill:#FFC865;}
	.fandom_zeven{fill:#508D9B;}
	.fandom_acht{fill:#6BC4D2;}
	.fandom_elf{fill:#4B322A;}
	.fandom_twaalf{fill:#644638;}
	.st0{fill:#EFEAE0;}
	.st1{fill:#AA9991;}
	.st2{fill:#FFFAFA;}
	.st3{fill:#8579A3;}
	.st4{fill:#685683;}
	.st5{fill:#4D4D4D;}
	.st6{fill:#3A3A3A;}
	.st7{fill:#808080;}
	.st8{fill:#CCCCCC;}
	.st9{fill:#666666;}
	.st10{fill:#018273;}
	.st11{fill:#00B3AA;}
</style>
<g>
	<g>
		<path class="fandom_acht" d="M32,7C18.193,7,7,18.193,7,32h50C57,18.193,45.807,7,32,7z"/>
		<path class="fandom_zeven" d="M32,57c13.807,0,25-11.193,25-25H7C7,45.807,18.193,57,32,57z"/>
	</g>
	<g>
		<path class="fandom_twaalf" d="M29.648,37.442c-0.222,0.169-12.381,13.957-12.381,13.957s-3.797-0.068-4.338-3.265
			c0.819-0.548,12.724-12.336,13.196-13.47C26.124,35.44,27.375,36.96,29.648,37.442z M52.376,28.173
			c-3.73,5.637-8.148,10.59-11.02,9.658c-0.923-0.3-1.675-1.133-2.283-2.328c-0.194,0.107-0.365,0.198-0.481,0.247
			c-0.319,0.135-0.82,0.272-1.416,0.405c0.999,2.06,2.58,3.784,4.868,3.784c4.706-0.001,10.102-7.428,13.491-13.002
			C54.524,27.368,54.119,27.572,52.376,28.173z M34.907,23.828l0.374,5.042l0.735,0.162c0.215,0.047,0.437,0.024,0.636-0.07
			l0.648-0.271l-0.435-8.422L34.907,23.828z"/>
		<path class="fandom_elf" d="M17.266,51.399c0.111-0.207,12.209-13.826,12.381-13.957c-1.097-0.233-1.839-0.651-2.359-1.094
			L14.504,50.547C15.755,51.37,17.266,51.399,17.266,51.399z"/>
		<path class="fandom_twee" d="M33.242,27.481l-1.293-2.632l2.958-5.179l1.766,0.956C36.344,21.234,33.113,26.875,33.242,27.481z
			 M29.648,37.442c0.139-0.106,0.294-0.186,0.471-0.207c1.478-0.172,6.962-0.844,8.474-1.487c1.326-0.563,8.417-5.38,8.417-5.38
			l-1.291-2.227l-9.128,4.473c-0.416,0.204-0.864,0.334-1.325,0.384l-3.989,0.437c-0.977,0.107-1.88,0.57-2.537,1.3l-1.453,1.613
			C27.809,36.791,28.55,37.209,29.648,37.442z"/>
		<path class="fandom_een" d="M44.335,25.753l-7.682,3.208c-0.199,0.093-0.421,0.117-0.636,0.07l-1.773-0.391
			c-0.261-0.058-0.489-0.217-0.631-0.444l-1.663-3.348l5.033-8.813l2.16-6.094l-2.727,0.012c-0.499,0.014-0.911,0.391-0.965,0.887
			c-0.15,1.387-0.507,4.061-1.117,5.057c-0.84,1.37-6.347,7.598-6.851,8.945c-0.467,1.249-1.074,7.917-1.358,9.821
			c0,0,0.297,1.242,1.159,1.69l1.458-1.619c0.657-0.73,1.56-1.193,2.537-1.3l3.989-0.437c0.46-0.05,0.909-0.18,1.325-0.384
			l9.128-4.473L44.335,25.753z"/>
		<path class="fandom_vier" d="M9.247,56.384l-2.569-2.069c-0.441-0.337-0.523-0.969-0.183-1.407l2.269-2.925
			c0.109-0.141,0.255-0.25,0.42-0.316c0.156-0.062,3.607-1.42,3.747-1.512c0.203,1.168,0.843,1.916,1.57,2.394L9.247,56.384z
			 M60.443,21.082l-1.531-1.723c-0.332-0.374-0.889-0.447-1.304-0.167c-2.171,1.464-4.385,2.894-6.701,4.121
			c-2.076,1.1-4.347,1.719-6.573,2.44l1.384,2.388L60.443,21.082z M39.142,9.941l-2.16,6.094l-2.076,3.634l1.766,0.956
			c2.072-3.828,0.951-2.136,4.868-7.233c0.306-0.398,0.269-0.962-0.086-1.317l-1.902-1.9C39.465,10.087,39.259,9.988,39.142,9.941z
			 M16,8c-2.209,0-4,1.791-4,4s1.791,4,4,4s4-1.791,4-4S18.209,8,16,8z"/>
		<path class="fandom_drie" d="M12.241,58.794l-2.994-2.411l5.256-5.837c1.252,0.823,2.763,0.852,2.763,0.852l-1.31,3.852
			c-0.043,0.08-2.233,3.243-2.284,3.318C13.347,59.038,12.695,59.141,12.241,58.794z M47.01,30.369
			c2.249-1.341,4.992-1.951,7.413-2.956c1.539-0.639,3.066-1.308,4.568-2.03c0.838-0.402,3.961-1.475,2.753-2.835l-1.301-1.465
			c-15.812,7.575-13.934,6.672-14.724,7.059L47.01,30.369z M15.405,8.061c-1.447,0.221-2.724,1.215-3.207,2.702
			c-0.683,2.1,0.467,4.357,2.567,5.039c1.487,0.483,3.042,0.036,4.072-1.006C15.038,15.376,12.705,10.791,15.405,8.061z"/>
	</g>
</g>
</svg>