<?xml version="1.0" encoding="utf-8"?>
<!-- Generator: Adobe Illustrator 19.1.0, SVG Export Plug-In . SVG Version: 6.00 Build 0)  -->
<!DOCTYPE svg PUBLIC "-//W3C//DTD SVG 1.1//EN" "http://www.w3.org/Graphics/SVG/1.1/DTD/svg11.dtd">
<svg version="1.1" id="DESIGNS" xmlns="http://www.w3.org/2000/svg" xmlns:xlink="http://www.w3.org/1999/xlink" x="0px" y="0px"
	 width="64px" height="64px" viewBox="0 0 64 64" style="enable-background:new 0 0 64 64;" xml:space="preserve">
<style type="text/css">
	.fandom_vijf{fill:#018273;}
	.fandom_zes{fill:#00B3AA;}
	.fandom_dertien{fill:#AA9991;}
	.fandom_veertien{fill:#EFEAE0;}
	.st0{fill:#6BC4D2;}
	.st1{fill:#508D9B;}
	.st2{fill:#4B322A;}
	.st3{fill:#BE5652;}
	.st4{fill:#FF786E;}
	.st5{fill:#644638;}
	.st6{fill:#8579A3;}
	.st7{fill:#685683;}
	.st8{fill:#4D4D4D;}
	.st9{fill:#3A3A3A;}
	.st10{fill:#CCCCCC;}
	.st11{fill:#FFC865;}
	.st12{fill:#BE9148;}
	.st13{fill:#808080;}
	.st14{fill:#666666;}
	.st15{fill:#FFFAFA;}
</style>
<g>
	<g>
		<path class="fandom_zes" d="M32,7C18.193,7,7,18.193,7,32h50C57,18.193,45.807,7,32,7z"/>
		<path class="fandom_vijf" d="M32,57c13.807,0,25-11.193,25-25H7C7,45.807,18.193,57,32,57z"/>
	</g>
	<g>
		<path class="fandom_dertien" d="M24.165,32.952C26.39,35.247,30,43.999,30,43.999l-0.642-0.158
			c-0.969-0.49-1.755-1.296-2.227-2.295c-1.001-2.119-2.839-5.848-4.004-7.234c-0.31-0.369-1.143-1.025-2.268-1.832
			c0.442-0.338,0.871-0.698,1.27-1.102C23.228,32.19,23.992,32.773,24.165,32.952z M6.48,23.922c0,0.001,0.126,0.075,0.349,0.205
			c0.322-0.955,0.733-1.871,1.234-2.726c-0.102-0.069-0.205-0.138-0.307-0.206c-0.267-0.177-0.951-0.354-1.12,0.056
			C6.388,21.856,5.433,23.572,6.48,23.922z"/>
		<path class="fandom_veertien" d="M57.87,35.826c-0.702-1.363-5.999-7.476-6.004-7.457c-0.536-2.919-2.627-5.169-5.424-6.015
			c-1.86-0.563-3.81-0.775-5.718-1.121c-3.205-0.581-20.762-3.68-24.778-4.081c-0.984-0.098-2.079-0.275-3.063-0.092
			c-1.617,0.301-2.867,1.644-3.84,2.877c-2.3,2.914-3.35,6.998-3.005,10.689c0.394,4.209,4.541,4.495,7.921,4.339
			c3.609-0.166,6.795-1.762,9.064-4.593c1.08-1.347,1.524-2.834,2.264-4.346c0.596-1.219,1.955-2.049,2.581-0.364
			c1.367,3.68,0.908,7.753,3.947,10.676c2.882,2.772,7.479,4.759,11.518,4.274c1.683-0.202,3.565-0.911,4.917-1.945
			c1.586-1.213,2.375-3.189,2.9-5.052c1.467-1.213,3.395,1.218,4.206,2.215c0.76,0.934,1.948,2.178,1.821,3.469
			c-0.175,1.771-1.01,3.573-1.662,5.207c-0.617,1.544-2.41,4.107-0.673,5.492l3.7-9.193c0.177-0.446,0.393-0.9,0.448-1.38
			C59.136,38.152,58.432,36.916,57.87,35.826z M24.635,20.414c0.126,0.228,0.217,0.511,0.255,0.846l-13.126-1.33
			c0.642-0.584,1.218-0.892,1.717-0.902C15.371,18.991,20.801,19.793,24.635,20.414z M24.062,24.229L9.581,22.762
			c0.172-0.328,0.362-0.649,0.575-0.957l14.381,1.458L24.062,24.229z M22.671,27.142L8.46,25.701c0.04-0.229,0.317-0.869,0.356-0.98
			l14.262,1.446C23.044,26.26,22.751,26.964,22.671,27.142z M20.62,29.987L7.968,28.704c-0.005-0.32-0.001-0.658,0.017-1.014
			l13.505,1.369C21.216,29.392,20.926,29.7,20.62,29.987z M16.284,32.632L8.44,31.817c-0.179-0.27-0.307-0.631-0.376-1.066
			l10.099,1.024C17.55,32.117,16.942,32.399,16.284,32.632z M30.788,21.49l8.95,1.478c3.231,0.571,7.742,1.178,9.127,3.392
			l-18.852-3.771C30.188,22.223,30.432,21.852,30.788,21.49z M46.6,37.341c-0.484,0.256-0.993,0.47-1.516,0.647l-10.706-2.141
			c-0.644-0.459-1.165-0.934-1.604-1.423C32.774,34.424,46.636,37.322,46.6,37.341z M48.281,35.528l-16.861-3.449
			c-0.117-0.352-0.219-0.717-0.305-1.094l17.611,3.602C48.592,34.917,48.444,35.232,48.281,35.528z M49.357,32.649l-18.662-3.803
			c-0.061-0.333-0.124-0.666-0.193-0.998l19.093,3.819C49.588,31.701,49.434,32.354,49.357,32.649z M29.952,25.66l-0.273-1.072
			l20.204,4.041c0.073,0.347,0.107,0.691,0.084,1.047C49.968,29.677,29.955,25.665,29.952,25.66z"/>
	</g>
</g>
</svg>