<?xml version="1.0" encoding="utf-8"?>
<!-- Generator: Adobe Illustrator 19.1.0, SVG Export Plug-In . SVG Version: 6.00 Build 0)  -->
<!DOCTYPE svg PUBLIC "-//W3C//DTD SVG 1.1//EN" "http://www.w3.org/Graphics/SVG/1.1/DTD/svg11.dtd">
<svg version="1.1" id="DESIGNS" xmlns="http://www.w3.org/2000/svg" xmlns:xlink="http://www.w3.org/1999/xlink" x="0px" y="0px"
	 width="64px" height="64px" viewBox="0 0 64 64" style="enable-background:new 0 0 64 64;" xml:space="preserve">
<style type="text/css">
	.fandom_een{fill:#FF786E;}
	.fandom_twee{fill:#BE5652;}
	.fandom_vijftien{fill:#3A3A3A;}
	.fandom_zestien{fill:#4D4D4D;}
	.fandom_zeventien{fill:#666666;}
	.fandom_achttien{fill:#808080;}
	.fandom_negentien{fill:#CCCCCC;}
	.st0{fill:#EFEAE0;}
	.st1{fill:#AA9991;}
	.st2{fill:#FFFAFA;}
	.st3{fill:#644638;}
	.st4{fill:#6BC4D2;}
	.st5{fill:#508D9B;}
	.st6{fill:#4B322A;}
	.st7{fill:#FFC865;}
	.st8{fill:#BE9148;}
	.st9{fill:#8579A3;}
	.st10{fill:#685683;}
	.st11{fill:#018273;}
	.st12{fill:#00B3AA;}
</style>
<g>
	<g>
		<path class="fandom_een" d="M32,7C18.193,7,7,18.193,7,32h50C57,18.193,45.807,7,32,7z"/>
		<path class="fandom_twee" d="M32,57c13.807,0,25-11.193,25-25H7C7,45.807,18.193,57,32,57z"/>
	</g>
	<g>
		<path class="fandom_zestien" d="M61.248,23.928c0.402,0.114,0.493,0.535,0.191,0.95L44.118,48.655
			c-0.302,0.415-0.87,0.649-1.272,0.535L0.372,37.146c-0.409-0.116-0.493-0.535-0.191-0.95L17.502,12.42
			c0.302-0.415,0.864-0.651,1.272-0.535L61.248,23.928z M58.353,26.69c0.599-0.823,0.429-1.67-0.382-1.9L19.888,13.992
			c-0.811-0.23-1.946,0.247-2.545,1.07l-2.163,2.97c-0.599,0.823-0.434,1.677,0.377,1.906L53.64,30.736
			c0.811,0.23,1.951-0.254,2.55-1.077L58.353,26.69z M32.302,34.547c0.297-0.408,0.218-0.834-0.191-0.95l-5.86-1.662
			c-0.402-0.114-0.975,0.127-1.272,0.535l-5.413,7.431c-0.297,0.408-0.211,0.836,0.191,0.95l5.86,1.662
			c0.409,0.116,0.975-0.127,1.272-0.535L32.302,34.547z M36.093,29.344c0.297-0.408,0.218-0.834-0.191-0.95l-5.86-1.662
			c-0.402-0.114-0.975,0.127-1.272,0.535l-1.622,2.227c-0.302,0.415-0.216,0.843,0.186,0.957l5.86,1.662
			c0.409,0.116,0.975-0.127,1.277-0.542L36.093,29.344z M32.064,9.137c-0.402-0.114-0.975,0.127-1.272,0.535l-1.082,1.485
			c-0.302,0.415-0.211,0.836,0.191,0.95l26.365,7.476c0.402,0.114,0.97-0.12,1.272-0.535l1.082-1.485
			c0.297-0.408,0.211-0.836-0.191-0.95L32.064,9.137z"/>
		<path class="fandom_zeventien" d="M24.443,23.223l0.794,1.261c1.26,2.001,0.952,4.926-1.125,7.777
			c-3.138,4.307-9.133,6.828-13.378,5.624c-1.435-0.407-2.487-1.188-3.131-2.209L6.81,34.415c0.644,1.022,1.696,1.802,3.131,2.209
			c4.245,1.204,10.24-1.317,13.378-5.624C25.396,28.148,25.704,25.223,24.443,23.223z M48.727,38.204
			c-3.138,4.307-9.133,6.828-13.378,5.624c-1.435-0.407-2.487-1.188-3.131-2.209l0.794,1.261c0.644,1.022,1.696,1.802,3.131,2.209
			c4.245,1.204,10.24-1.317,13.378-5.624c2.077-2.851,2.385-5.776,1.125-7.777l-0.794-1.261
			C51.112,32.428,50.804,35.353,48.727,38.204z M26.252,31.936c-0.402-0.114-0.975,0.127-1.272,0.535l-5.413,7.431
			c-0.297,0.408-0.211,0.836,0.191,0.95l5.86,1.662c0.409,0.116,0.975-0.127,1.272-0.535l5.413-7.431
			c0.297-0.408,0.218-0.834-0.191-0.95L26.252,31.936z M62.812,19.662l-0.397-0.63c0.241,0.382,0.183,0.939-0.211,1.479
			l-2.227,3.057l0.71,0.201l1.915-2.628C62.995,20.601,63.053,20.044,62.812,19.662z M60.735,20.094l-2.572-0.729l-0.228,0.313
			c-0.03,0.041-0.072,0.072-0.107,0.109l2.595,0.736L60.735,20.094z M29.649,11.279l-2.601-0.738l-2.227,3.057l0.71,0.201
			l1.915-2.628l2.11,0.598C29.516,11.627,29.552,11.456,29.649,11.279z"/>
		<path class="fandom_vijftien" d="M59.016,18.193l-1.082,1.485c-0.302,0.415-0.87,0.649-1.272,0.535l-26.365-7.476
			c-0.137-0.039-0.238-0.113-0.299-0.211l-0.397-0.63c0.062,0.098,0.162,0.172,0.299,0.211l26.365,7.476
			c0.402,0.114,0.97-0.12,1.272-0.535l1.082-1.485c0.197-0.27,0.226-0.55,0.106-0.74l0.397,0.63
			C59.242,17.643,59.214,17.923,59.016,18.193z M63.929,27.921l-2.382-3.782c0.119,0.189,0.091,0.465-0.108,0.739L44.118,48.655
			c0,0-0.647,0.699-1.272,0.535L0.372,37.146c-0.139-0.039-0.241-0.114-0.302-0.212l2.382,3.782
			c0.061,0.098,0.163,0.172,0.302,0.212l42.473,12.044c0.402,0.114,0.97-0.12,1.272-0.535L63.821,28.66
			C64.02,28.386,64.048,28.11,63.929,27.921z M9.398,27.052c-2.538,3.485-1.81,7.113,1.624,8.087
			c3.434,0.974,8.288-1.072,10.826-4.556s1.811-7.104-1.623-8.078C16.792,21.531,11.936,23.568,9.398,27.052z M15.004,30.885
			c-0.996-0.24-1.228-1.349-0.478-2.379c0.745-1.023,2.178-1.626,3.187-1.34c1.008,0.286,1.223,1.356,0.478,2.379
			C17.44,30.576,16,31.125,15.004,30.885z M39.681,37.883c-1.015-0.288-1.228-1.349-0.478-2.379c0.745-1.023,2.172-1.628,3.187-1.34
			c1.008,0.286,1.223,1.356,0.478,2.379C42.122,37.566,40.696,38.171,39.681,37.883z M34.806,34.257
			c-2.538,3.485-1.81,7.113,1.624,8.087s8.288-1.072,10.826-4.556s1.811-7.104-1.623-8.078S37.345,30.773,34.806,34.257z"/>
		<path class="fandom_negentien" d="M57.971,24.791c0.811,0.23,0.981,1.077,0.382,1.9l-2.163,2.97
			c-0.599,0.823-1.739,1.306-2.55,1.077L15.556,19.938c-0.811-0.23-0.976-1.084-0.377-1.906l2.163-2.97
			c0.599-0.823,1.734-1.3,2.545-1.07L57.971,24.791z M14.526,28.507c-0.75,1.03-0.531,2.093,0.478,2.379
			c1.008,0.286,2.436-0.31,3.187-1.34c0.745-1.023,0.531-2.093-0.478-2.379C16.704,26.881,15.271,27.483,14.526,28.507z
			 M39.203,35.504c-0.75,1.03-0.537,2.091,0.478,2.379c1.008,0.286,2.437-0.31,3.187-1.34c0.745-1.023,0.531-2.093-0.478-2.379
			C41.375,33.876,39.948,34.481,39.203,35.504z"/>
		<path class="fandom_achttien" d="M35.902,28.394c0.409,0.116,0.488,0.542,0.191,0.95l-1.622,2.227
			c-0.302,0.415-0.869,0.658-1.277,0.542l-5.86-1.662c-0.402-0.114-0.488-0.542-0.186-0.957l1.622-2.227
			c0.297-0.408,0.87-0.649,1.272-0.535L35.902,28.394z M61.816,18.609l-2.647-0.75c-0.025,0.109-0.071,0.222-0.153,0.335
			l-0.853,1.171l2.572,0.729l-2.223,3.059l1.466,0.416l2.227-3.057C62.799,19.694,62.627,18.839,61.816,18.609z M30.707,9.788
			l-2.578-0.731c-0.804-0.228-1.951,0.254-2.545,1.07l-2.227,3.057l1.463,0.415l2.227-3.057l2.601,0.738
			C29.671,11.238,30.707,9.788,30.707,9.788z M7.935,26.638c-3.138,4.307-2.239,8.783,2.006,9.986
			c4.245,1.204,10.24-1.317,13.378-5.624c3.138-4.307,2.239-8.783-2.006-9.986C17.068,19.81,11.072,22.33,7.935,26.638z
			 M11.022,35.139c-3.447-0.887-4.163-4.602-1.624-8.087s7.394-5.521,10.828-4.548c3.434,0.974,4.141,4.579,1.623,8.078
			C19.135,34.353,14.469,36.026,11.022,35.139z M33.343,33.842c-3.138,4.307-2.239,8.783,2.006,9.986
			c4.245,1.204,10.24-1.317,13.378-5.624c3.138-4.307,2.239-8.783-2.006-9.986C42.476,27.015,36.481,29.535,33.343,33.842z
			 M36.431,42.344c-3.475-0.969-4.163-4.602-1.624-8.087c2.538-3.485,7.394-5.521,10.828-4.548s4.161,4.593,1.623,8.078
			S39.906,43.312,36.431,42.344z"/>
	</g>
</g>
</svg>