<?xml version="1.0" encoding="utf-8"?>
<!-- Generator: Adobe Illustrator 19.1.0, SVG Export Plug-In . SVG Version: 6.00 Build 0)  -->
<!DOCTYPE svg PUBLIC "-//W3C//DTD SVG 1.1//EN" "http://www.w3.org/Graphics/SVG/1.1/DTD/svg11.dtd">
<svg version="1.1" id="DESIGNS" xmlns="http://www.w3.org/2000/svg" xmlns:xlink="http://www.w3.org/1999/xlink" x="0px" y="0px"
	 width="64px" height="64px" viewBox="0 0 64 64" style="enable-background:new 0 0 64 64;" xml:space="preserve">
<style type="text/css">
	.fandom_drie{fill:#BE9148;}
	.fandom_vier{fill:#FFC865;}
	.fandom_zeven{fill:#508D9B;}
	.fandom_acht{fill:#6BC4D2;}
	.fandom_vijftien{fill:#3A3A3A;}
	.fandom_zestien{fill:#4D4D4D;}
	.fandom_achttien{fill:#808080;}
	.fandom_negentien{fill:#CCCCCC;}
	.st0{fill:#FF786E;}
	.st1{fill:#BE5652;}
	.st2{fill:#644638;}
	.st3{fill:#4B322A;}
	.st4{fill:#EFEAE0;}
	.st5{fill:#AA9991;}
	.st6{fill:#666666;}
	.st7{fill:#018273;}
	.st8{fill:#FFFAFA;}
	.st9{fill:#8579A3;}
	.st10{fill:#685683;}
	.st11{fill:#00B3AA;}
</style>
<g>
	<g>
		<path class="fandom_vier" d="M32,7C18.193,7,7,18.193,7,32h50C57,18.193,45.807,7,32,7z"/>
		<path class="fandom_drie" d="M32,57c13.807,0,25-11.193,25-25H7C7,45.807,18.193,57,32,57z"/>
	</g>
	<g>
		<path class="fandom_zeven" d="M25.045,29.152l-5.972,27.706l-2.19-2.903l6.738-25.952l1.296,1.059
			C24.958,29.094,25.001,29.124,25.045,29.152z M48.009,27.524l-12.676,2.601c-0.05,0.003-0.785-0.049-0.839-0.053L29.63,59.885
			l14.817-3.812l7.146-4.985C51.592,51.082,48.015,27.523,48.009,27.524z M36.875,3.292h-1.792c-1.687,0-3.276,0.539-4.587,1.476
			c0.357-0.091,0.687-0.142,0.921-0.142c2.095,0,2.096,3.167,0,3.167c-0.241,0-0.582-0.054-0.951-0.15C30.785,7.369,30.24,8,29.5,8
			c-0.546,0-1.024-0.292-1.286-0.729C27.577,8.36,27.176,9.624,27.093,11h17.985C44.917,6.735,41.176,3.292,36.875,3.292z"/>
		<path class="fandom_acht" d="M29.63,59.885l14.817-3.812l-15.076,3.879l-9.837-2.482l-0.457-0.605l5.968-27.712
			c0.293,0.191,0.798,0.33,0.985,0.342l9.27,0.632l-0.807-0.055L29.63,59.885z M45.906,14H26.094c-1.325,0-1.323,2,0,2h19.812
			C47.231,16,47.229,14,45.906,14z M45.906,11H26.094c-1.325,0-1.323,2,0,2h19.812C47.231,13,47.229,11,45.906,11z M45.906,17
			H26.094c-1.325,0-1.323,2,0,2h19.812C47.231,19,47.229,17,45.906,17z"/>
		<path class="fandom_achttien" d="M26.927,25.547l-1.99-1.609c-0.017-0.013-0.034-0.026-0.052-0.038
			c-0.012-0.008-0.025-0.016-0.037-0.024c-0.005-0.003-0.01-0.007-0.016-0.01c-0.017-0.01-0.034-0.02-0.052-0.029
			c0,0-0.001-0.001-0.001-0.001c-0.018-0.009-0.036-0.018-0.054-0.027l-0.011-0.017l0.116-0.559l5.77,2.565L26.927,25.547z
			 M35.904,25.965c0.085-0.018,11.43-2.365,11.516-2.373l-0.587-5.218C46.686,18.741,46.327,19,45.906,19H26.094
			c-0.131,0-0.255-0.025-0.37-0.071l-0.477,2.299L35.904,25.965z"/>
		<path class="fandom_negentien" d="M31.417,4.625c-0.399,0-1.076,0.148-1.694,0.391C30.445,5.124,31,5.747,31,6.5
			c0,0.423-0.174,0.834-0.534,1.142c0.369,0.096,0.71,0.15,0.951,0.15C32.291,7.792,33,7.083,33,6.208S32.291,4.625,31.417,4.625z"
			/>
		<path class="fandom_zestien" d="M31,6.5C31,7.328,30.328,8,29.5,8S28,7.328,28,6.5S28.672,5,29.5,5S31,5.672,31,6.5z M22.5,32
			c-0.828,0-1.5,0.672-1.5,1.5s0.672,1.5,1.5,1.5s1.5-0.672,1.5-1.5S23.328,32,22.5,32z M20.5,38c-0.828,0-1.5,0.672-1.5,1.5
			s0.672,1.5,1.5,1.5s1.5-0.672,1.5-1.5S21.328,38,20.5,38z M18.5,44c-0.828,0-1.5,0.672-1.5,1.5s0.672,1.5,1.5,1.5
			s1.5-0.672,1.5-1.5S19.328,44,18.5,44z M17.5,50c-0.828,0-1.5,0.672-1.5,1.5s0.672,1.5,1.5,1.5s1.5-0.672,1.5-1.5
			S18.328,50,17.5,50z M25.5,52c-0.828,0-1.5,0.672-1.5,1.5s0.672,1.5,1.5,1.5s1.5-0.672,1.5-1.5S26.328,52,25.5,52z M26.5,46
			c-0.828,0-1.5,0.672-1.5,1.5s0.672,1.5,1.5,1.5s1.5-0.672,1.5-1.5S27.328,46,26.5,46z M27.5,40c-0.828,0-1.5,0.672-1.5,1.5
			s0.672,1.5,1.5,1.5s1.5-0.672,1.5-1.5S28.328,40,27.5,40z M28.5,34c-0.828,0-1.5,0.672-1.5,1.5s0.672,1.5,1.5,1.5
			s1.5-0.672,1.5-1.5S29.328,34,28.5,34z M37.5,34c-0.828,0-1.5,0.672-1.5,1.5s0.672,1.5,1.5,1.5s1.5-0.672,1.5-1.5
			S38.328,34,37.5,34z M37.5,40c-0.828,0-1.5,0.672-1.5,1.5s0.672,1.5,1.5,1.5s1.5-0.672,1.5-1.5S38.328,40,37.5,40z M37.5,46
			c-0.828,0-1.5,0.672-1.5,1.5s0.672,1.5,1.5,1.5s1.5-0.672,1.5-1.5S38.328,46,37.5,46z M37.521,52c-0.828,0-1.5,0.672-1.5,1.5
			s0.672,1.5,1.5,1.5c0.828,0,1.5-0.672,1.5-1.5S38.349,52,37.521,52z M47.5,49c-0.828,0-1.5,0.672-1.5,1.5s0.672,1.5,1.5,1.5
			s1.5-0.672,1.5-1.5S48.328,49,47.5,49z M46.5,43c-0.828,0-1.5,0.672-1.5,1.5s0.672,1.5,1.5,1.5s1.5-0.672,1.5-1.5
			S47.328,43,46.5,43z M45.5,37c-0.828,0-1.5,0.672-1.5,1.5s0.672,1.5,1.5,1.5s1.5-0.672,1.5-1.5S46.328,37,45.5,37z M44.5,32
			c-0.828,0-1.5,0.672-1.5,1.5s0.672,1.5,1.5,1.5s1.5-0.672,1.5-1.5S45.328,32,44.5,32z"/>
		<path class="fandom_vijftien" d="M52.01,53.772c0.059,0.377-0.103,0.755-0.416,0.974l-5.652,3.942
			c-0.147,0.103-0.312,0.178-0.486,0.223l-15.707,4.042c-0.243,0.062-0.493,0.063-0.741,0.001l-10.72-2.705
			c-0.331-0.084-0.624-0.278-0.83-0.551l-1.279-1.696c-0.185-0.245-0.247-0.561-0.168-0.857c0,0,0.85-3.219,0.851-3.219l2.673,3.545
			l9.837,2.482l15.076-3.879l7.146-4.985L52.01,53.772z M27,16v1h18v-1H27z M27,13v1h18v-1H27z M48.798,26.393L48.5,24.436
			c-0.086-0.566-0.629-0.944-1.19-0.828l-11.406,2.357l-12.665-5.629c-1.216-0.537-2.018,1.292-0.812,1.828l8.174,3.633
			l-3.674-0.251l-1.99-1.609c-0.566-0.449-1.406-0.169-1.589,0.53l-0.208,0.797l-10.593-4.708c-0.017-1.005-0.528-1.862-1.351-2.095
			c-1.067-0.301-2.245,0.56-2.63,1.923c-0.385,1.364,0.168,2.713,1.235,3.015c0.771,0.218,1.595-0.177,2.14-0.923l10.972,4.877
			c0.058,0.095,0.133,0.181,0.222,0.253l1.781,1.455c0.243,0.194,0.532,0.306,0.833,0.371c0.094,0.02,0.184,0.056,0.281,0.062
			l9.27,0.632c0.011-0.001,12.708-2.603,12.708-2.603C48.531,27.417,48.878,26.92,48.798,26.393z M28.831,5.164
			C28.34,5.411,28,5.913,28,6.5C28,7.328,28.672,8,29.5,8c0.587,0,1.089-0.34,1.336-0.831C29.548,7.816,28.184,6.451,28.831,5.164z
			 M21.831,32.164C21.34,32.411,21,32.913,21,33.5c0,0.828,0.672,1.5,1.5,1.5c0.587,0,1.089-0.34,1.336-0.831
			C22.548,34.816,21.184,33.451,21.831,32.164z M19.831,38.164C19.34,38.411,19,38.913,19,39.5c0,0.828,0.672,1.5,1.5,1.5
			c0.587,0,1.089-0.34,1.336-0.831C20.548,40.816,19.184,39.451,19.831,38.164z M17.831,44.164C17.34,44.411,17,44.913,17,45.5
			c0,0.828,0.672,1.5,1.5,1.5c0.587,0,1.089-0.34,1.336-0.831C18.548,46.816,17.184,45.451,17.831,44.164z M16.831,50.164
			C16.34,50.411,16,50.913,16,51.5c0,0.828,0.672,1.5,1.5,1.5c0.587,0,1.089-0.34,1.336-0.831
			C17.548,52.816,16.184,51.451,16.831,50.164z M24.831,52.164C24.34,52.411,24,52.913,24,53.5c0,0.828,0.672,1.5,1.5,1.5
			c0.587,0,1.089-0.34,1.336-0.831C25.548,54.816,24.184,53.451,24.831,52.164z M25.831,46.164C25.34,46.411,25,46.913,25,47.5
			c0,0.828,0.672,1.5,1.5,1.5c0.587,0,1.089-0.34,1.336-0.831C26.548,48.816,25.184,47.451,25.831,46.164z M26.831,40.164
			C26.34,40.411,26,40.913,26,41.5c0,0.828,0.672,1.5,1.5,1.5c0.587,0,1.089-0.34,1.336-0.831
			C27.548,42.816,26.184,41.451,26.831,40.164z M27.831,34.164C27.34,34.411,27,34.913,27,35.5c0,0.828,0.672,1.5,1.5,1.5
			c0.587,0,1.089-0.34,1.336-0.831C28.548,36.816,27.184,35.451,27.831,34.164z M36.831,34.164C36.34,34.411,36,34.913,36,35.5
			c0,0.828,0.672,1.5,1.5,1.5c0.587,0,1.089-0.34,1.336-0.831C37.548,36.816,36.184,35.451,36.831,34.164z M36.831,40.164
			C36.34,40.411,36,40.913,36,41.5c0,0.828,0.672,1.5,1.5,1.5c0.587,0,1.089-0.34,1.336-0.831
			C37.548,42.816,36.184,41.451,36.831,40.164z M36.831,46.164C36.34,46.411,36,46.913,36,47.5c0,0.828,0.672,1.5,1.5,1.5
			c0.587,0,1.089-0.34,1.336-0.831C37.548,48.816,36.184,47.451,36.831,46.164z M36.852,52.164
			c-0.491,0.247-0.831,0.749-0.831,1.336c0,0.828,0.672,1.5,1.5,1.5c0.587,0,1.089-0.34,1.336-0.831
			C37.569,54.816,36.205,53.451,36.852,52.164z M46.831,49.164C46.34,49.411,46,49.913,46,50.5c0,0.828,0.672,1.5,1.5,1.5
			c0.587,0,1.089-0.34,1.336-0.831C47.548,51.816,46.184,50.451,46.831,49.164z M45.831,43.164C45.34,43.411,45,43.913,45,44.5
			c0,0.828,0.672,1.5,1.5,1.5c0.587,0,1.089-0.34,1.336-0.831C46.548,45.816,45.184,44.451,45.831,43.164z M44.831,37.164
			C44.34,37.411,44,37.913,44,38.5c0,0.828,0.672,1.5,1.5,1.5c0.587,0,1.089-0.34,1.336-0.831
			C45.548,39.816,44.184,38.451,44.831,37.164z M43.831,32.164C43.34,32.411,43,32.913,43,33.5c0,0.828,0.672,1.5,1.5,1.5
			c0.587,0,1.089-0.34,1.336-0.831C44.548,34.816,43.184,33.451,43.831,32.164z"/>
	</g>
</g>
</svg>