<?xml version="1.0" encoding="utf-8"?>
<!-- Generator: Adobe Illustrator 19.1.0, SVG Export Plug-In . SVG Version: 6.00 Build 0)  -->
<!DOCTYPE svg PUBLIC "-//W3C//DTD SVG 1.1//EN" "http://www.w3.org/Graphics/SVG/1.1/DTD/svg11.dtd">
<svg version="1.1" id="DESIGNS" xmlns="http://www.w3.org/2000/svg" xmlns:xlink="http://www.w3.org/1999/xlink" x="0px" y="0px"
	 width="64px" height="64px" viewBox="0 0 64 64" style="enable-background:new 0 0 64 64;" xml:space="preserve">
<style type="text/css">
	.fandom_drie{fill:#BE9148;}
	.fandom_vier{fill:#FFC865;}
	.fandom_vijf{fill:#018273;}
	.fandom_zes{fill:#00B3AA;}
	.fandom_vijftien{fill:#3A3A3A;}
	.fandom_achttien{fill:#808080;}
	.fandom_negentien{fill:#CCCCCC;}
	.st0{fill:#6BC4D2;}
	.st1{fill:#508D9B;}
	.st2{fill:#4B322A;}
	.st3{fill:#EFEAE0;}
	.st4{fill:#BE5652;}
	.st5{fill:#FF786E;}
	.st6{fill:#644638;}
	.st7{fill:#8579A3;}
	.st8{fill:#685683;}
	.st9{fill:#4D4D4D;}
	.st10{fill:#AA9991;}
	.st11{fill:#666666;}
	.st12{fill:#FFFAFA;}
</style>
<g>
	<g>
		<path class="fandom_zes" d="M32,7C18.193,7,7,18.193,7,32h50C57,18.193,45.807,7,32,7z"/>
		<path class="fandom_vijf" d="M32,57c13.807,0,25-11.193,25-25H7C7,45.807,18.193,57,32,57z"/>
	</g>
	<g>
		<path class="fandom_vier" d="M56.944,32.893c0.118,0.474,0.05,0.971-0.202,1.391C55.358,36.592,49.572,44,32.303,44
			c-17.335,0-23.525-7.539-25.01-9.839c-0.265-0.41-0.352-0.899-0.254-1.375C7.763,29.269,12.032,14,31.576,14
			C51.134,14,56.07,29.37,56.944,32.893z"/>
		<path class="fandom_drie" d="M32.049,26.445c-3.772-0.023-7.284,0.43-10.222,1.228c3.435-7.482,8.371-11.88,10.689-13.649
			c-14.594-0.445-23.24,7.898-25.477,18.763c-0.098,0.476-0.011,0.965,0.254,1.375c0.982,1.52,4.022,5.328,10.974,7.736
			c0.054-0.761,0.125-1.505,0.214-2.232c3.382,1.526,8.165,2.494,13.471,2.525c10.284,0.062,18.642-3.413,18.669-7.761
			C50.647,30.081,42.332,26.507,32.049,26.445z"/>
		<path class="fandom_negentien" d="M59,36.171c-0.039,6.627-12.159,11.922-27.07,11.828C17.018,47.905,4.961,42.456,5,35.829
			c0.011-1.813,0.931-3.526,2.56-5.056c-0.257,0.84-0.424,1.537-0.522,2.013c-0.098,0.476-0.011,0.965,0.254,1.375
			C8.778,36.461,14.968,44,32.303,44c17.269,0,23.056-7.408,24.439-9.716c0.252-0.42,0.32-0.917,0.202-1.391
			c-0.115-0.463-0.303-1.136-0.583-1.947C58.062,32.532,59.011,34.304,59,36.171z M37,28.271l-20,2.287v2.588l20-3.833V28.271z"/>
		<polygon class="fandom_achttien" points="15,28.938 15,31.656 17,33.146 17,30.562 		"/>
		<path class="fandom_vijftien" d="M49.632,26.212c-0.421-0.769-1.977-3.291-4.716-4.274c-7.225-1.908-20.805,0.643-25.511,1.635
			c-1.054,0.222-2.203,0.831-2.781,1.74l-1.61,2.529c-0.229,0.361-0.203,0.824,0.058,1.155L17,30.562l20-2.292v1.042l-20,3.833
			l-0.601-0.448L15.5,32.854c-3.083,0.5-2.917,2.25-2.917,2.25s-0.18,1.378,2.036,3.391c0.385,0.35,0.885,0.545,1.405,0.541
			c7.917-0.058,28.874-6.024,33.011-7.224c0.427-0.124,0.715-0.514,0.715-0.959v-4.171C49.75,26.517,49.712,26.357,49.632,26.212z"
			/>
	</g>
</g>
</svg>