<?xml version="1.0" encoding="utf-8"?>
<!-- Generator: Adobe Illustrator 19.1.0, SVG Export Plug-In . SVG Version: 6.00 Build 0)  -->
<!DOCTYPE svg PUBLIC "-//W3C//DTD SVG 1.1//EN" "http://www.w3.org/Graphics/SVG/1.1/DTD/svg11.dtd">
<svg version="1.1" id="DESIGNS" xmlns="http://www.w3.org/2000/svg" xmlns:xlink="http://www.w3.org/1999/xlink" x="0px" y="0px"
	 width="64px" height="64px" viewBox="0 0 64 64" style="enable-background:new 0 0 64 64;" xml:space="preserve">
<style type="text/css">
	.fandom_een{fill:#FF786E;}
	.fandom_twee{fill:#BE5652;}
	.fandom_drie{fill:#BE9148;}
	.fandom_vier{fill:#FFC865;}
	.fandom_vijf{fill:#018273;}
	.fandom_zes{fill:#00B3AA;}
	.fandom_zeven{fill:#508D9B;}
	.fandom_acht{fill:#6BC4D2;}
	.fandom_dertien{fill:#AA9991;}
	.fandom_veertien{fill:#EFEAE0;}
	.st0{fill:#4B322A;}
	.st1{fill:#644638;}
	.st2{fill:#8579A3;}
	.st3{fill:#685683;}
	.st4{fill:#4D4D4D;}
	.st5{fill:#3A3A3A;}
	.st6{fill:#CCCCCC;}
	.st7{fill:#808080;}
	.st8{fill:#666666;}
	.st9{fill:#FFFAFA;}
</style>
<g>
	<g>
		<path class="fandom_een" d="M32,7C18.193,7,7,18.193,7,32h50C57,18.193,45.807,7,32,7z"/>
		<path class="fandom_twee" d="M32,57c13.807,0,25-11.193,25-25H7C7,45.807,18.193,57,32,57z"/>
	</g>
	<g>
		<path class="fandom_dertien" d="M52.905,52.941C52.003,54.748,50.156,56,48,56c-3.038,0-5.5-2.462-5.5-5.5
			c0-2.156,1.252-4.003,3.059-4.905C43.206,50.31,48.191,55.294,52.905,52.941z M12.559,9.595C10.752,10.497,9.5,12.344,9.5,14.5
			c0,3.038,2.462,5.5,5.5,5.5c2.156,0,4.003-1.252,4.905-3.059C15.191,19.294,10.206,14.31,12.559,9.595z"/>
		<path class="fandom_zeven" d="M34.22,12l-2.241-3.991l3.5,0.741l3,3.25H34.22z M31.995,20.853L34.229,12h-4.271l2.021-3.991
			L28.521,8.75l-3,3.25L31.995,20.853z M21.464,48l-3-3.287l-3.5-0.741L17.204,48H21.464z M14.979,56.816L17.214,48h-4.271
			l2.021-4.028l-3.458,0.741l-3,3.287L14.979,56.816z"/>
		<path class="fandom_acht" d="M32,20.875L34.229,12h4.25L32,20.875z M25.521,12L32,20.875L29.958,12H25.521z M31.979,8.009
			L29.958,12h4.262L31.979,8.009z M21.464,48h-4.25l-2.229,8.838L21.464,48z M8.505,48l6.479,8.838L12.943,48H8.505z M14.964,43.972
			L12.943,48h4.262L14.964,43.972z"/>
		<polygon class="fandom_zes" points="35.195,50.146 33.778,45.083 32,45 30.208,45.083 28.792,50.146 25.768,50.146 27.625,54.875 
			30.208,56 33.778,56 36.375,54.875 38.232,50.146 		"/>
		<path class="fandom_vijf" d="M30.208,45.083l-1.417,5.062h-3.024l1.857-3.937L30.208,45.083z M33.778,45.083l1.417,5.062h3.024
			l-1.857-3.937L33.778,45.083z M28.797,50.146L30.208,56h3.57l1.411-5.854H28.797z"/>
		<path class="fandom_vier" d="M48,26l6,6h-6V26z M48,32h-6l6,6V32z M32,32h6l-6-6V32z M32,32h-6l6,6V32z M15,32h6l-6-6V32z M15,32
			H9l6,6V32z M48,14h6l-6-6V14z M48,14h-6l6,6V14z"/>
		<path class="fandom_drie" d="M48,32h-6l6-6V32z M32,26l-6,6h6V26z M15,26l-6,6h6V26z M48,8l-6,6h6V8z"/>
		<path class="fandom_veertien" d="M48,32h6l-6,6V32z M48,45c-0.881,0-1.703,0.227-2.441,0.595
			c-2.353,4.714,2.631,9.699,7.346,7.346c0.369-0.739,0.595-1.56,0.595-2.441C53.5,47.462,51.038,45,48,45z M15,9
			c-0.881,0-1.703,0.227-2.441,0.595c-2.353,4.714,2.631,9.699,7.346,7.346c0.369-0.739,0.595-1.56,0.595-2.441
			C20.5,11.462,18.038,9,15,9z M32,38l6-6h-6V38z M15,38l6-6h-6V38z M48,20l6-6h-6V20z"/>
	</g>
</g>
</svg>