<?xml version="1.0" encoding="utf-8"?>
<!-- Generator: Adobe Illustrator 19.1.0, SVG Export Plug-In . SVG Version: 6.00 Build 0)  -->
<!DOCTYPE svg PUBLIC "-//W3C//DTD SVG 1.1//EN" "http://www.w3.org/Graphics/SVG/1.1/DTD/svg11.dtd">
<svg version="1.1" id="DESIGNS" xmlns="http://www.w3.org/2000/svg" xmlns:xlink="http://www.w3.org/1999/xlink" x="0px" y="0px"
	 width="64px" height="64px" viewBox="0 0 64 64" style="enable-background:new 0 0 64 64;" xml:space="preserve">
<style type="text/css">
	.fandom_een{fill:#FF786E;}
	.fandom_twee{fill:#BE5652;}
	.fandom_zeven{fill:#508D9B;}
	.fandom_acht{fill:#6BC4D2;}
	.fandom_dertien{fill:#AA9991;}
	.fandom_veertien{fill:#EFEAE0;}
	.fandom_vijftien{fill:#3A3A3A;}
	.st0{fill:#4B322A;}
	.st1{fill:#644638;}
	.st2{fill:#8579A3;}
	.st3{fill:#685683;}
	.st4{fill:#4D4D4D;}
	.st5{fill:#CCCCCC;}
	.st6{fill:#00B3AA;}
	.st7{fill:#018273;}
	.st8{fill:#FFC865;}
	.st9{fill:#BE9148;}
	.st10{fill:#808080;}
	.st11{fill:#666666;}
	.st12{fill:#FFFAFA;}
</style>
<g>
	<g>
		<path class="fandom_acht" d="M32,7C18.193,7,7,18.193,7,32h50C57,18.193,45.807,7,32,7z"/>
		<path class="fandom_zeven" d="M32,57c13.807,0,25-11.193,25-25H7C7,45.807,18.193,57,32,57z"/>
	</g>
	<g>
		<circle class="fandom_een" cx="40.5" cy="8.5" r="2.5"/>
		<path class="fandom_twee" d="M39.385,6.274C38.567,6.684,38,7.522,38,8.5c0,1.381,1.119,2.5,2.5,2.5
			c0.978,0,1.816-0.567,2.226-1.385C40.58,10.694,38.307,8.419,39.385,6.274z"/>
		<path class="fandom_vijftien" d="M38,8.5c0-0.528,0.166-1.017,0.446-1.42l-4.225-1.648c-0.249-0.096-0.524-0.089-0.771,0.018
			c-0.243,0.109-0.434,0.311-0.528,0.561l-2.664,7.059C30.83,13.027,31.41,13,32,13c0.141,0,0.274,0.017,0.414,0.02l2.022-5.357
			l3.639,1.42C38.03,8.894,38,8.701,38,8.5z"/>
		<path class="fandom_veertien" d="M46.325,14.675c-1.797-1.798-4.296-2.214-5.579-0.93c-0.233,0.233-0.391,0.516-0.514,0.817
			C37.867,13.577,35.042,13,32,13c-2.54,0-4.929,0.403-7.026,1.109c-1.274,4.452-1.78,13.864,15.503,16.226
			C38.065,31.384,35.147,32,32,32c-1.356,0-2.665-0.121-3.914-0.335c0.031,3.507,0.552,9.497,2.991,17.262
			C31.381,48.975,31.688,49,32,49c2.229,0,4.264-1.267,5.836-3.354c1.275,0.539,2.814,1.53,4.07,3.354h0.996
			c0.715,0,1.243-0.616,1.062-1.249c-0.345-1.203-1.498-2.927-5.203-3.531C40.151,41.755,41,38.535,41,35
			c0-1.139-0.097-2.24-0.265-3.297c1.445,2.156,3.264,5.482,3.149,8.424C44.586,39.091,45,37.846,45,36.5
			c0-2.895-1.901-5.328-4.518-6.168C44.417,28.62,47,25.752,47,22.5c0-0.63-0.102-1.245-0.287-1.84
			c0.197-0.109,0.379-0.243,0.542-0.405C48.539,18.971,48.122,16.473,46.325,14.675z"/>
		<path class="fandom_dertien" d="M40.735,31.703c1.445,2.156,3.264,5.482,3.149,8.424c-1.007,1.487-2.61,2.539-4.47,2.801
			C40.413,40.674,41,37.945,41,35C41,33.861,40.903,32.76,40.735,31.703z M37.824,45.64c-1.281,1.698-2.865,2.853-4.616,3.22
			C33.319,48.949,33.387,49,33.387,49h8.519C40.647,47.17,39.101,46.178,37.824,45.64z M40.477,30.335
			C23.194,27.973,23.7,18.56,24.974,14.109c-0.386,0.13-0.758,0.274-1.122,0.424c-0.122-0.29-0.277-0.562-0.502-0.787
			c-1.284-1.284-3.782-0.868-5.579,0.93c-1.797,1.797-2.214,4.295-0.93,5.579c0.139,0.139,0.298,0.249,0.464,0.349
			C17.107,21.217,17,21.85,17,22.5c0,3.253,2.585,6.122,6.523,7.835c-0.032,0.142-0.057,0.289-0.086,0.433
			C21.392,31.863,20,34.018,20,36.5c0,2.884,1.88,5.326,4.481,6.176c0.232,0.548,0.486,1.07,0.763,1.561
			c-3.63,0.618-4.771,2.321-5.113,3.513C19.949,48.384,20.477,49,21.193,49h9.515c0,0,0.059-0.044,0.157-0.122
			c0.071,0.014,0.141,0.038,0.213,0.049c-0.744-2.368-1.735-6.587-1.736-6.588c-1.204-5.386-1.29-10.679-1.255-10.674
			c0,0,1.847,0.335,3.914,0.335C35.147,32,38.065,31.384,40.477,30.335z"/>
	</g>
</g>
</svg>