<?xml version="1.0" encoding="utf-8"?>
<!-- Generator: Adobe Illustrator 19.1.0, SVG Export Plug-In . SVG Version: 6.00 Build 0)  -->
<!DOCTYPE svg PUBLIC "-//W3C//DTD SVG 1.1//EN" "http://www.w3.org/Graphics/SVG/1.1/DTD/svg11.dtd">
<svg version="1.1" id="DESIGNS" xmlns="http://www.w3.org/2000/svg" xmlns:xlink="http://www.w3.org/1999/xlink" x="0px" y="0px"
	 width="64px" height="64px" viewBox="0 0 64 64" style="enable-background:new 0 0 64 64;" xml:space="preserve">
<style type="text/css">
	.fandom_een{fill:#FF786E;}
	.fandom_twee{fill:#BE5652;}
	.fandom_zeven{fill:#508D9B;}
	.fandom_acht{fill:#6BC4D2;}
	.fandom_veertien{fill:#EFEAE0;}
	.st0{fill:#AA9991;}
	.st1{fill:#FFFAFA;}
	.st2{fill:#644638;}
	.st3{fill:#4B322A;}
	.st4{fill:#FFC865;}
	.st5{fill:#BE9148;}
	.st6{fill:#8579A3;}
	.st7{fill:#685683;}
	.st8{fill:#4D4D4D;}
	.st9{fill:#3A3A3A;}
	.st10{fill:#808080;}
	.st11{fill:#CCCCCC;}
	.st12{fill:#666666;}
	.st13{fill:#018273;}
	.st14{fill:#00B3AA;}
</style>
<g>
	<g>
		<path class="fandom_acht" d="M32,7C18.193,7,7,18.193,7,32h50C57,18.193,45.807,7,32,7z"/>
		<path class="fandom_zeven" d="M32,57c13.807,0,25-11.193,25-25H7C7,45.807,18.193,57,32,57z"/>
	</g>
	<g>
		<path class="fandom_twee" d="M43.796,28.975c1.354,0.313,2.515,1.157,3.709,1.827c1.712,0.96,3.247,2.028,5.23,2.248
			c4.68,0.519,4.578-3.604,2.453-4.269c0,0-9.595-4.48-11.076-5.995c-0.978-1-3.676-4.741-8.591-4.749l-20.9-0.035
			c-1.162-0.002-2.259,0.649-2.718,1.717c-0.381,0.887-0.643,1.988-0.712,3.351c-0.145,2.866,0.426,5.772,2.074,8.135
			c0.429,0.615,5.235,5.305,7.004,7.135c1.347,1.393,2.928,2.8,3.982,4.44c2.351,3.656,14.242,9.202,16.25,10.063
			c1.183,0.507,1.899,0.43,2.293,0.113c0.145-0.116,0.269-0.258,0.269-0.258c6.045,6.922,8.594,10.879,10.503,10.138
			c0.716-0.431,0.935-1.28,0.935-1.897c0-2.898-2.935-4.969-3.683-6.282c-2.309-4.053-3.198-4.831-3.198-4.831
			c-0.604-1-0.717-3.749-2.218-4.986c0,0,1.382-1.057,1.349-2.121c-0.111-3.561-2.67-5.113-4.869-9.548c0,0-1.058-2.99-1.06-2.995
			C40.188,28.467,42.96,28.782,43.796,28.975z M43.379,50.565c0.001,0.002,0.002,0.003,0.002,0.005
			C43.381,50.568,43.38,50.566,43.379,50.565z M44.312,43.312c-0.002-0.001-0.005-0.003-0.007-0.004
			C44.308,43.309,44.31,43.311,44.312,43.312z"/>
		<path class="fandom_een" d="M46.328,43.845c0,0-1.639,0.066-2.626-1.018c-0.902-5.822-4.941-10.13-7.544-12.362
			c0.871-1.787,4.027,0.637,6.177,3.698c1.369,2.619,4.306,5.084,4.414,8.556C46.762,43.095,46.571,43.494,46.328,43.845z
			 M55.187,28.782c0,0-9.595-4.48-11.076-5.995c-0.978-1-3.676-4.779-8.591-4.787h-20.9c-1.162-0.002-2.259,0.652-2.718,1.719
			c-0.381,0.887-0.643,1.988-0.712,3.351c2.843,1.182,10.224,5.429,15.81,19.024c0.993,1.924,16.157,10.039,16.372,10.155
			c0.267-0.515,0.389-1.285-0.31-2.217c-2.25-1.312-2.812-1.812-2.812-1.812l-5.344-3.438l3.594-2.656
			c0.729,1.124,2.742,1.347,3.256,1.215c-0.749-5.336-4.609-9.386-7-11.428c-0.942-0.805-2.447-0.215-2.505,1.022
			c-0.001,0.012-0.001,0.023-0.001,0.035l4.04,6.154c0.247,0.377,0.222,0.882-0.086,1.211c-1.076,1.149-2.296,2.016-3.392,2.573
			l-1.687-1.25c-0.025-1.345-0.204-2.708-0.482-4.023c-0.583-2.758-3.052-5.072-3.107-7.865c-0.049-2.486,1.519-4.307,3.755-5.227
			c4.359-1.789,8.489,4.429,10.597,8.643c-0.389-0.989-0.697-2.012-1.066-3.008c-0.634-1.709,2.138-1.394,2.974-1.201
			c1.354,0.313,2.515,1.157,3.709,1.827c1.712,0.96,3.247,2.028,5.23,2.248C57.414,33.569,57.313,29.446,55.187,28.782z
			 M50.818,54.657c-2.309-4.053-3.198-4.831-3.198-4.831c-0.604-1-0.717-3.749-2.218-4.986c-0.323,0.41-2.033,1.621-2.139,1.691
			c0.89,1.49,9.535,15.944,10.304,16.306c0.66-0.382,0.935-1.177,0.935-1.897C54.5,58.041,51.566,55.971,50.818,54.657z"/>
		<path class="fandom_veertien" d="M57.99,5.638l-28.886,9.217L53.349,3.491c1.194-0.56,0.362-2.373-0.85-1.814
			c-0.029,0.014-34.48,16.161-34.48,16.161c-3.894,1.663-0.904,3.205,3.462,2.526l29.04-4.953c1.306-0.223,0.98-2.133-0.326-1.913
			l-21.75,3.672l30.155-9.621C59.865,7.143,59.251,5.235,57.99,5.638z"/>
	</g>
</g>
</svg>