<?xml version="1.0" encoding="utf-8"?>
<!-- Generator: Adobe Illustrator 19.1.0, SVG Export Plug-In . SVG Version: 6.00 Build 0)  -->
<!DOCTYPE svg PUBLIC "-//W3C//DTD SVG 1.1//EN" "http://www.w3.org/Graphics/SVG/1.1/DTD/svg11.dtd">
<svg version="1.1" id="DESIGNS" xmlns="http://www.w3.org/2000/svg" xmlns:xlink="http://www.w3.org/1999/xlink" x="0px" y="0px"
	 width="64px" height="64px" viewBox="0 0 64 64" style="enable-background:new 0 0 64 64;" xml:space="preserve">
<style type="text/css">
	.fandom_drie{fill:#BE9148;}
	.fandom_vier{fill:#FFC865;}
	.fandom_vijf{fill:#018273;}
	.fandom_zes{fill:#00B3AA;}
	.st0{fill:#FF786E;}
	.st1{fill:#BE5652;}
	.st2{fill:#EFEAE0;}
	.st3{fill:#AA9991;}
	.st4{fill:#FFFAFA;}
	.st5{fill:#644638;}
	.st6{fill:#6BC4D2;}
	.st7{fill:#508D9B;}
	.st8{fill:#4B322A;}
	.st9{fill:#8579A3;}
	.st10{fill:#685683;}
	.st11{fill:#4D4D4D;}
	.st12{fill:#3A3A3A;}
	.st13{fill:#808080;}
	.st14{fill:#CCCCCC;}
	.st15{fill:#666666;}
</style>
<g>
	<g>
		<path class="fandom_vier" d="M32,7C18.193,7,7,18.193,7,32h50C57,18.193,45.807,7,32,7z"/>
		<path class="fandom_drie" d="M32,57c13.807,0,25-11.193,25-25H7C7,45.807,18.193,57,32,57z"/>
	</g>
	<g>
		<path class="fandom_vijf" d="M12.024,23.886c2.247-6.394,6.034-6.061,9.263-4.431c0-0.001,9.736,6.181,18.27,2.812
			c6.767-2.671,10.451-2.054,12.226-1.104c-0.509,2.694-1.878,4.637-3.645,4.788c-0.382,0.033-0.857-0.013-1.391-0.128
			c-1.715-0.371-3.515-0.062-4.926,0.98c-2.73,2.016-6.293,3.541-9.098,4.104c0.013,2.358,0.234,5.739,1.117,8.984
			c-0.096,0.04-0.194,0.079-0.28,0.118c-0.579-0.062-1.161-0.087-1.74-0.036c-0.26-0.072-1.086-0.291-2.21-0.501
			c-0.694-3.156-0.888-6.243-0.902-8.501c-4.065-0.789-7.286-4.174-7.664-8.492c-0.81,0.648-1.86,0.122-2.803-0.128
			c-0.928-0.246-1.849-0.543-2.808-0.626c-1.615-0.139-2.33,0.874-2.644,1.888C12.68,23.972,12.277,24.052,12.024,23.886z
			 M39.252,41.648c-1.011-0.381-1.86-0.596-2.6-0.708c1.349,0.722,2.578,1.872,3.013,3.718c0.266,1.13,0.121,2.46-0.26,3.85
			c1.338,0.287,2.87,0.426,4.68,0.425c5.015-0.004,7.638-3.335,8.781-5.4C52.958,43.368,53,43.191,53,43.018
			C48.21,45.097,44.031,43.451,39.252,41.648z M33.101,58.971c-1.946-6.364-1.966-16.546-1.221-19.006
			c-1.241,0.102-2.455,0.477-3.555,1.098c-1.575,0.025-4.239,0.337-7.488,1.793c-3.923,1.757-6.72,2.929-8.721,2.974
			c0.065,0.135,0.15,0.263,0.281,0.369c2.209,1.773,7.392,4.401,11.315,3.68c0.776-0.143,1.468-0.318,2.086-0.515
			c1.535,3.668,4.985,7.57,6.624,9.299C32.61,58.86,32.854,58.947,33.101,58.971z"/>
		<path class="fandom_zes" d="M51.783,21.163c-1.775-0.949-5.459-1.566-12.226,1.104c-8.534,3.368-18.269-2.814-18.27-2.812
			c-3.228-1.631-7.016-1.963-9.263,4.431c-0.175-1.598,0.618-3.723,1.918-4.982c0.328-0.318,0.706-0.582,1.098-0.818
			c1.386-0.831,3.015-1.012,4.55-0.511c0.67,0.219,1.935,0.996,1.941,1.002c1.186-3.45,4.299-6.558,8.189-6.477
			c1.989,0.042,4.635,0.283,7.264,1.071c1.919,0.576,4.015,0.143,5.588-1.097C44.091,10.876,45.725,10,46.772,10
			c2.436,0,5.003,2.986,5.128,7.5C51.935,18.772,51.989,20.074,51.783,21.163z M53,43.018c0-0.517-0.375-1-0.924-1.029
			c-0.796-0.042-1.89-0.243-3.282-0.815c-8.336-3.324-13.195-2.087-15.232-1.165c-0.56-0.06-1.122-0.083-1.683-0.038
			c-0.743,2.469-0.722,12.64,1.223,19c0.367,0.036,0.744-0.091,0.982-0.421c1.402-1.938,4.318-6.284,5.343-10.133
			c0.362-1.357,0.499-2.654,0.239-3.759c-0.435-1.846-1.664-2.996-3.013-3.718c0.74,0.111,1.589,0.327,2.6,0.708
			C44.031,43.451,48.21,45.097,53,43.018z M12.115,45.829c2.001-0.045,4.798-1.217,8.721-2.974c3.25-1.455,5.913-1.767,7.488-1.793
			c1.656-0.98,3.497-1.09,3.496-1.09c-1.366-0.332-5.749-1.526-9.609-0.673c-4.167,0.922-7.042,4.828-8.5,4.959
			c-0.239,0.022-0.49,0.052-0.744,0.048C11.812,44.292,11.917,45.708,12.115,45.829z"/>
	</g>
</g>
</svg>