<?xml version="1.0" encoding="utf-8"?>
<!-- Generator: Adobe Illustrator 19.1.0, SVG Export Plug-In . SVG Version: 6.00 Build 0)  -->
<!DOCTYPE svg PUBLIC "-//W3C//DTD SVG 1.1//EN" "http://www.w3.org/Graphics/SVG/1.1/DTD/svg11.dtd">
<svg version="1.1" id="DESIGNS" xmlns="http://www.w3.org/2000/svg" xmlns:xlink="http://www.w3.org/1999/xlink" x="0px" y="0px"
	 width="64px" height="64px" viewBox="0 0 64 64" style="enable-background:new 0 0 64 64;" xml:space="preserve">
<style type="text/css">
	.fandom_zeven{fill:#508D9B;}
	.fandom_acht{fill:#6BC4D2;}
	.fandom_zestien{fill:#4D4D4D;}
	.fandom_zeventien{fill:#666666;}
	.fandom_achttien{fill:#808080;}
	.fandom_twintig{fill:#FFFAFA;}
	.st0{fill:#FF786E;}
	.st1{fill:#BE5652;}
	.st2{fill:#644638;}
	.st3{fill:#4B322A;}
	.st4{fill:#EFEAE0;}
	.st5{fill:#AA9991;}
	.st6{fill:#FFC865;}
	.st7{fill:#BE9148;}
	.st8{fill:#CCCCCC;}
	.st9{fill:#018273;}
	.st10{fill:#3A3A3A;}
	.st11{fill:#8579A3;}
	.st12{fill:#685683;}
	.st13{fill:#00B3AA;}
</style>
<g>
	<g>
		<path class="fandom_acht" d="M32,7C18.193,7,7,18.193,7,32h50C57,18.193,45.807,7,32,7z"/>
		<path class="fandom_zeven" d="M32,57c13.807,0,25-11.193,25-25H7C7,45.807,18.193,57,32,57z"/>
	</g>
	<g>
		<path class="fandom_achttien" d="M19.037,28.904c10.813,0.957,19.622-3.185,19.763-8.973c-3.257-1.534-7.433-2.866-12.07-3.739
			c-11.256-2.118-20.966-0.725-21.688,3.113C4.094,24.344,18.037,28.904,19.037,28.904z"/>
		<path class="fandom_zeventien" d="M61.397,37.311l-0.486,0.86c-0.292,0.517-0.88,0.71-1.346,0.442l-4.308-2.479l-12.469,4.207
			c4.951,4.665-3.008,7.174-9.189,5.512c-1.767-0.475-4.45-1.373-5.431-3.182c-1.063-1.96-1.049-5.792,4.16-6.817
			c0.832-1.086,2.296-1.44,3.61-1.676l1.439,3.099c1.251,0.389,2.101,0.677,3.291,1.42l12.004-4.05l-3.826-2.202
			c-0.326-0.188-0.526-0.566-0.521-0.986l0.035-2.978c0.011-0.921,0.935-1.498,1.603-1.003l11.169,8.286
			C61.58,36.096,61.697,36.78,61.397,37.311z M44.253,34.42l-4.996-3.706c-1.419,0.224-3.02,0.348-4.759,0.364l0.645,1.388
			l7.735,4.452c0.408,0.235,0.924,0.066,1.18-0.388l0.426-0.754C44.747,35.31,44.645,34.711,44.253,34.42z"/>
		<path class="fandom_zestien" d="M43.888,44.317c-1.982,2.42-7.451,2.42-10.29,1.536c-1.747-0.544-4.45-1.373-5.431-3.182
			c-1.109-2.045-0.951-5.808,4.157-6.814C29.761,39.219,34.704,45.287,43.888,44.317z M52.678,34.646l-12.009,4.052
			c0,0,0.565,0.363,1.112,0.832l11.914-4.399L52.678,34.646z M38.8,19.932c-0.139,5.745-8.873,9.937-19.763,8.973
			c0,0,10.466,1.952,11.029,1.999c0,0,2.25,4.927,2.261,4.951c0.832-1.086,2.296-1.44,3.61-1.676l-1.44-3.102
			c6.308-0.058,10.822-1.531,11.305-4.101C46.228,24.72,43.45,22.121,38.8,19.932z"/>
		
			<ellipse transform="matrix(0.9827 0.1849 -0.1849 0.9827 7.8988 -4.933)" class="fandom_twintig" cx="30.392" cy="39.874" rx="2.023" ry="2.872"/>
	</g>
</g>
</svg>