<?xml version="1.0" encoding="utf-8"?>
<!-- Generator: Adobe Illustrator 19.1.0, SVG Export Plug-In . SVG Version: 6.00 Build 0)  -->
<!DOCTYPE svg PUBLIC "-//W3C//DTD SVG 1.1//EN" "http://www.w3.org/Graphics/SVG/1.1/DTD/svg11.dtd">
<svg version="1.1" id="DESIGNS" xmlns="http://www.w3.org/2000/svg" xmlns:xlink="http://www.w3.org/1999/xlink" x="0px" y="0px"
	 width="64px" height="64px" viewBox="0 0 64 64" style="enable-background:new 0 0 64 64;" xml:space="preserve">
<style type="text/css">
	.fandom_een{fill:#FF786E;}
	.fandom_twee{fill:#BE5652;}
	.fandom_drie{fill:#BE9148;}
	.fandom_vier{fill:#FFC865;}
	.fandom_dertien{fill:#AA9991;}
	.fandom_veertien{fill:#EFEAE0;}
	.fandom_vijftien{fill:#3A3A3A;}
	.fandom_zestien{fill:#4D4D4D;}
	.fandom_achttien{fill:#808080;}
	.st0{fill:#644638;}
	.st1{fill:#4B322A;}
	.st2{fill:#666666;}
	.st3{fill:#CCCCCC;}
	.st4{fill:#6BC4D2;}
	.st5{fill:#508D9B;}
	.st6{fill:#018273;}
	.st7{fill:#FFFAFA;}
	.st8{fill:#8579A3;}
	.st9{fill:#685683;}
	.st10{fill:#00B3AA;}
</style>
<g>
	<g>
		<path class="fandom_een" d="M32,7C18.193,7,7,18.193,7,32h50C57,18.193,45.807,7,32,7z"/>
		<path class="fandom_twee" d="M32,57c13.807,0,25-11.193,25-25H7C7,45.807,18.193,57,32,57z"/>
	</g>
	<g>
		<path class="fandom_veertien" d="M61.716,29.308L52.803,9.151c-0.447-1.01-1.628-1.467-2.638-1.02L18.1,22.309
			c-1.01,0.447-1.467,1.628-1.02,2.638l8.913,20.157c0.447,1.01,1.628,1.467,2.638,1.02l32.065-14.179
			C61.706,31.499,62.163,30.318,61.716,29.308z"/>
		<path class="fandom_vijftien" d="M59.499,26.795l-2.405-5.438c-0.223-0.505-0.814-0.734-1.319-0.51l-7.426,3.284
			c-0.329,0.145-0.478,0.53-0.332,0.859l2.687,6.077c0.145,0.329,0.53,0.478,0.859,0.332l7.426-3.284
			C59.494,27.891,59.722,27.3,59.499,26.795z M54.714,18.459l-7.421,3.281c-0.329,0.145-0.68,0.072-0.784-0.164l-3.503-7.923
			c-0.104-0.236,0.078-0.545,0.406-0.69l7.421-3.281c0.505-0.223,1.096,0.005,1.319,0.51l3.072,6.948
			C55.447,17.645,55.219,18.236,54.714,18.459z"/>
		<path class="fandom_dertien" d="M20.096,27.527l-0.849-1.919c0.218,0.051,0.435,0.028,0.632-0.058l16.441-7.269l-0.1,1.896
			l-15.655,6.922C20.359,27.19,20.198,27.343,20.096,27.527z M22.06,30.478l13.944-6.166l0.1-1.895l-14.729,6.512
			c-0.197,0.086-0.414,0.109-0.632,0.058l0.849,1.919C21.693,30.722,21.853,30.569,22.06,30.478z M23.554,33.856l12.232-5.409
			l0.1-1.896l-13.017,5.756c-0.195,0.085-0.413,0.11-0.632,0.058l0.849,1.919C23.187,34.101,23.347,33.948,23.554,33.856z
			 M25.048,37.234l10.521-4.652l0.1-1.896l-11.306,5c-0.195,0.086-0.413,0.109-0.632,0.058l0.848,1.919
			C24.681,37.479,24.841,37.326,25.048,37.234z M26.542,40.613l8.809-3.895l0.1-1.896l-9.594,4.242
			c-0.195,0.085-0.412,0.11-0.633,0.058l0.849,1.92C26.175,40.858,26.335,40.705,26.542,40.613z"/>
		<path class="fandom_achttien" d="M19.071,23.72l21.271-9.405c1.225-0.531,2.011,1.298,0.809,1.83L19.88,25.55
			C18.681,26.074,17.845,24.263,19.071,23.72z M21.374,28.929l21.271-9.405c1.201-0.532,0.417-2.361-0.809-1.83l-21.271,9.405
			C19.34,27.642,20.175,29.453,21.374,28.929z M22.868,32.308l21.271-9.406c1.208-0.535,0.406-2.362-0.809-1.83L22.06,30.478
			C20.834,31.021,21.669,32.832,22.868,32.308z M24.362,35.687l21.271-9.406c1.213-0.537,0.399-2.365-0.809-1.83l-21.271,9.406
			C22.325,34.401,23.168,36.213,24.362,35.687z M25.856,39.064l21.271-9.405c1.217-0.539,0.397-2.363-0.809-1.83l-21.271,9.405
			C23.822,37.777,24.658,39.588,25.856,39.064z M27.351,42.443l21.271-9.405c1.207-0.534,0.408-2.366-0.809-1.83l-21.27,9.405
			C25.316,41.156,26.152,42.967,27.351,42.443z"/>
		<circle class="fandom_vier" cx="54" cy="26" r="2.5"/>
		<path class="fandom_drie" d="M52.885,23.774C52.067,24.184,51.5,25.022,51.5,26c0,1.381,1.119,2.5,2.5,2.5
			c0.978,0,1.816-0.567,2.226-1.385C54.08,28.194,51.807,25.919,52.885,23.774z"/>
		<path class="fandom_zestien" d="M58.989,28.114l-3.686,1.63l-0.595-1.346c1.001-0.3,1.741-1.228,1.79-2.281
			c0.091-1.954-2.035-3.307-3.791-2.244l-0.618-1.397l3.686-1.63c0.505-0.223,1.096,0.005,1.319,0.51l2.405,5.438
			C59.722,27.3,59.494,27.891,58.989,28.114z M54.714,18.459c0.505-0.223,0.734-0.814,0.51-1.319l-3.072-6.948
			c-0.223-0.505-0.814-0.734-1.319-0.51l-3.582,1.584l3.881,8.777L54.714,18.459z"/>
	</g>
</g>
</svg>