<?xml version="1.0" encoding="utf-8"?>
<!-- Generator: Adobe Illustrator 19.1.0, SVG Export Plug-In . SVG Version: 6.00 Build 0)  -->
<!DOCTYPE svg PUBLIC "-//W3C//DTD SVG 1.1//EN" "http://www.w3.org/Graphics/SVG/1.1/DTD/svg11.dtd">
<svg version="1.1" id="DESIGNS" xmlns="http://www.w3.org/2000/svg" xmlns:xlink="http://www.w3.org/1999/xlink" x="0px" y="0px"
	 width="64px" height="64px" viewBox="0 0 64 64" style="enable-background:new 0 0 64 64;" xml:space="preserve">
<style type="text/css">
	.fandom_drie{fill:#BE9148;}
	.fandom_vier{fill:#FFC865;}
	.fandom_vijf{fill:#018273;}
	.fandom_zes{fill:#00B3AA;}
	.fandom_negen{fill:#685683;}
	.fandom_tien{fill:#8579A3;}
	.fandom_elf{fill:#4B322A;}
	.fandom_dertien{fill:#AA9991;}
	.fandom_veertien{fill:#EFEAE0;}
	.fandom_vijftien{fill:#3A3A3A;}
	.fandom_zestien{fill:#4D4D4D;}
	.st0{fill:#6BC4D2;}
	.st1{fill:#508D9B;}
	.st2{fill:#BE5652;}
	.st3{fill:#FF786E;}
	.st4{fill:#644638;}
	.st5{fill:#CCCCCC;}
	.st6{fill:#808080;}
	.st7{fill:#666666;}
	.st8{fill:#FFFAFA;}
</style>
<g>
	<g>
		<path class="fandom_tien" d="M32,7C18.193,7,7,18.193,7,32h50C57,18.193,45.807,7,32,7z"/>
		<path class="fandom_negen" d="M32,57c13.807,0,25-11.193,25-25H7C7,45.807,18.193,57,32,57z"/>
	</g>
	<g>
		<path class="fandom_veertien" d="M48.273,32l2.364,14H13.381l2.472-14H48.273z M49.966,30H14.173L11,48h42L49.966,30z"/>
		<path class="fandom_zes" d="M50.415,44.687L50.637,46H27.379l6.716-14h14.178l1.366,8.088c0.044-0.375,0.086-0.743,0.128-1.092
			c0.298-0.106,0.661,0.048,0.752,0.398l0.407,1.581c0.136,0.527,0.161,1.051,0.097,1.557c0.825-0.667,1.882-0.967,3.573-0.789
			c0.231,0.024,0.409,0.18,0.481,0.378C53.328,42.604,51.762,43.464,50.415,44.687z M15.643,40.569l-1.037-1.431
			c-0.073-0.101-0.169-0.167-0.271-0.203c0.001,0.012,0.482,4.723,1.331,6.562l0.283-0.58C16.675,43.427,16.564,41.84,15.643,40.569
			z M9.936,41.667c-0.425,0.045-0.776,0.018-0.923,0.425c3.697,1.019,4.88,3.071,5.88,3.908h0.602l-1.53-2.442
			C13.095,42.184,11.617,41.49,9.936,41.667z"/>
		<path class="fandom_vijf" d="M48.436,45.559l-0.283-0.58c-0.727-1.489-0.615-3.076,0.305-4.347l1.037-1.431
			c0.073-0.101,0.169-0.167,0.271-0.203C49.518,41.078,49.286,43.718,48.436,45.559z M55.063,42.126
			c-2.226,0.616-4.162,1.838-5.717,3.654c-0.029,0.034-0.059,0.087-0.089,0.136l2.304-0.293c1.557-0.198,2.791-1.203,3.379-2.752
			l0.133-0.35C55.125,42.384,55.108,42.249,55.063,42.126z M14.894,46c-0.058-0.049-0.118-0.107-0.178-0.164
			c-0.275-0.26-0.582-0.597-0.947-0.969c-0.054-0.054-0.103-0.107-0.16-0.162l0,0.003c-0.916-0.904-2.238-1.963-4.583-2.612
			c-0.045,0.124-0.061,0.259-0.01,0.395l0.133,0.35c0.588,1.549,1.822,2.553,3.379,2.752l0.904,0.115L13.381,46H14.894z M15.853,32
			l-1.259,7.129c0.003,0.004,0.008,0.004,0.011,0.009l1.037,1.431c0.921,1.271,1.032,2.858,0.305,4.347l-0.283,0.58
			c-0.824-1.82-1.331-6.563-1.331-6.563c-0.298-0.106-0.661,0.048-0.752,0.398l-0.407,1.581c-0.145,0.561-0.168,1.118-0.088,1.654
			c0.334,0.275,0.633,0.603,0.879,0.991l1.473,2.353l0,0L15.496,46h11.883l6.716-14H15.853z"/>
		<path class="fandom_dertien" d="M12.866,19h38.407l-2.782,9H15.648L12.866,19z M49.966,30L54,17H10l4.173,13H49.966z"/>
		<polygon class="fandom_vijf" points="51.273,19 12.866,19 15.648,28 48.491,28 		"/>
		<path class="fandom_vier" d="M20,30h-5.827l-0.307-1H19C19.552,29,20,29.448,20,30z M44.132,30h5.827l0.307-1h-5.134
			C44.579,29,44.132,29.448,44.132,30z"/>
		<path class="fandom_drie" d="M14.173,30H20c0,0.552-0.448,1-1,1h-5.003L14.173,30z M49.958,30h-5.827c0,0.552,0.448,1,1,1h5.003
			L49.958,30z"/>
		<path class="fandom_elf" d="M53,48l-2,3H13l-2-3H53z M52,14H12l-2,3h44L52,14z M32,36c-3.866,0-7,1.343-7,3s3.134,3,7,3
			s7-1.343,7-3S35.866,36,32,36z"/>
		<path class="fandom_zestien" d="M30.246,34.961c-0.474,0.176-0.919,0.419-1.267,0.76c-0.505,0.494-0.929,1.13-1.227,1.81
			c-0.309-0.25-0.445-0.653-0.57-1.109c-0.192-0.706-0.534-1.496,0.058-2.097c0.249-0.253,0.652-0.239,0.967-0.153
			c0.444,0.121,0.892,0.234,1.333,0.365C29.805,34.614,30.072,34.759,30.246,34.961z M36.612,34.202
			c-0.239-0.116-0.537-0.098-0.784-0.03c-0.444,0.121-0.892,0.234-1.333,0.365c-0.264,0.078-0.531,0.223-0.705,0.424
			c-0.549-0.206-1.154-0.318-1.765-0.319c-0.739,0.857-2.687,4.318-1.39,7.301C31.076,41.98,31.532,42,32,42
			c1.471,0,2.837-0.195,3.964-0.527c1.156-1.298,0.793-3.464-0.269-4.972C36.051,35.792,36.382,34.889,36.612,34.202z"/>
		<path class="fandom_vijftien" d="M36.279,37.535c-0.158-0.362-0.356-0.71-0.584-1.035c0.356-0.709,0.688-1.612,0.917-2.299
			c0.813,0.394,0.469,1.382,0.241,2.221C36.852,36.422,36.591,37.286,36.279,37.535z M32.024,34.641
			c-1.068-0.003-2.275,0.326-3.044,1.079c-0.234,0.229-0.445,0.495-0.642,0.774c-0.355-0.708-0.685-1.607-0.914-2.292
			c-0.814,0.394-0.469,1.384-0.241,2.221c0,0,0.197,0.908,0.57,1.109c-0.57,1.299-0.664,2.872,0.251,3.932
			c0.777,0.232,1.668,0.398,2.63,0.48C29.337,38.96,31.285,35.499,32.024,34.641z"/>
	</g>
</g>
</svg>