<?xml version="1.0" encoding="utf-8"?>
<!-- Generator: Adobe Illustrator 19.1.0, SVG Export Plug-In . SVG Version: 6.00 Build 0)  -->
<!DOCTYPE svg PUBLIC "-//W3C//DTD SVG 1.1//EN" "http://www.w3.org/Graphics/SVG/1.1/DTD/svg11.dtd">
<svg version="1.1" id="DESIGNS" xmlns="http://www.w3.org/2000/svg" xmlns:xlink="http://www.w3.org/1999/xlink" x="0px" y="0px"
	 width="64px" height="64px" viewBox="0 0 64 64" style="enable-background:new 0 0 64 64;" xml:space="preserve">
<style type="text/css">
	.fandom_twee{fill:#BE5652;}
	.fandom_drie{fill:#BE9148;}
	.fandom_vier{fill:#FFC865;}
	.fandom_vijf{fill:#018273;}
	.fandom_dertien{fill:#AA9991;}
	.fandom_veertien{fill:#EFEAE0;}
	.fandom_achttien{fill:#808080;}
	.fandom_negentien{fill:#CCCCCC;}
	.fandom_twintig{fill:#FFFAFA;}
	.st0{fill:#00B3AA;}
	.st1{fill:#FF786E;}
	.st2{fill:#644638;}
	.st3{fill:#8579A3;}
	.st4{fill:#666666;}
	.st5{fill:#685683;}
	.st6{fill:#4D4D4D;}
	.st7{fill:#6BC4D2;}
	.st8{fill:#508D9B;}
	.st9{fill:#4B322A;}
	.st10{fill:#3A3A3A;}
</style>
<g>
	<g>
		<path class="fandom_vier" d="M32,7C18.193,7,7,18.193,7,32h50C57,18.193,45.807,7,32,7z"/>
		<path class="fandom_drie" d="M32,57c13.807,0,25-11.193,25-25H7C7,45.807,18.193,57,32,57z"/>
	</g>
	<g>
		
			<ellipse transform="matrix(0.7071 0.7071 -0.7071 0.7071 35.1386 -4.2633)" class="fandom_twee" cx="22.716" cy="40.284" rx="9.007" ry="3.002"/>
		<path class="fandom_dertien" d="M45.362,17.638c-3.518-3.518-9.221-3.518-12.738,0L16.346,33.915
			c1.173-1.173,4.975,0.729,8.492,4.246c3.518,3.518,5.419,7.32,4.246,8.492l16.277-16.277
			C48.879,26.859,48.879,21.156,45.362,17.638z"/>
		<path class="fandom_veertien" d="M47.339,20.615c-3.253-1.321-7.123-0.662-9.762,1.977L23.369,36.8
			c0.49,0.421,0.983,0.874,1.47,1.361c3.518,3.518,5.419,7.32,4.246,8.492l16.277-16.277C48.001,27.738,48.66,23.868,47.339,20.615z
			"/>
		<path class="fandom_vijf" d="M43.235,19.758c-2.152-2.258-6.142-2.343-8.485,0L31.207,23.3c-0.391,0.391-0.391,1.024,0,1.414
			l7.078,7.078c0.391,0.391,1.024,0.391,1.414,0l3.543-3.543C45.585,25.907,45.387,22.016,43.235,19.758z"/>
		<path class="fandom_twintig" d="M24.571,39.927c-0.235-0.256-1.242-1.262-1.498-1.498c-0.39-0.359-0.998-0.334-1.373,0.041
			l-4.596,4.596c0.391-0.391,1.341-0.074,2.123,0.708c0.782,0.782,1.099,1.732,0.708,2.123l4.596-4.596
			C24.906,40.925,24.931,40.317,24.571,39.927z"/>
		<path class="fandom_negentien" d="M19.227,43.773l4.611-4.611c-0.254-0.254-0.509-0.498-0.764-0.734
			c-0.39-0.359-0.998-0.334-1.373,0.041l-4.596,4.596C17.495,42.674,18.445,42.991,19.227,43.773z"/>
		
			<ellipse transform="matrix(0.7071 0.7071 -0.7071 0.7071 36.8767 -0.0672)" class="fandom_achttien" cx="18.519" cy="44.481" rx="2.002" ry="1.001"/>
	</g>
</g>
</svg>