<?xml version="1.0" encoding="utf-8"?>
<!-- Generator: Adobe Illustrator 19.1.0, SVG Export Plug-In . SVG Version: 6.00 Build 0)  -->
<!DOCTYPE svg PUBLIC "-//W3C//DTD SVG 1.1//EN" "http://www.w3.org/Graphics/SVG/1.1/DTD/svg11.dtd">
<svg version="1.1" id="DESIGNS" xmlns="http://www.w3.org/2000/svg" xmlns:xlink="http://www.w3.org/1999/xlink" x="0px" y="0px"
	 width="64px" height="64px" viewBox="0 0 64 64" style="enable-background:new 0 0 64 64;" xml:space="preserve">
<style type="text/css">
	.fandom_een{fill:#FF786E;}
	.fandom_twee{fill:#BE5652;}
	.fandom_drie{fill:#BE9148;}
	.fandom_vier{fill:#FFC865;}
	.fandom_vijf{fill:#018273;}
	.fandom_zes{fill:#00B3AA;}
	.fandom_acht{fill:#6BC4D2;}
	.fandom_veertien{fill:#EFEAE0;}
	.fandom_negentien{fill:#CCCCCC;}
	.st0{fill:#644638;}
	.st1{fill:#4B322A;}
	.st2{fill:#AA9991;}
	.st3{fill:#808080;}
	.st4{fill:#666666;}
	.st5{fill:#508D9B;}
	.st6{fill:#3A3A3A;}
	.st7{fill:#FFFAFA;}
	.st8{fill:#4D4D4D;}
	.st9{fill:#8579A3;}
	.st10{fill:#685683;}
</style>
<g>
	<g>
		<path class="fandom_zes" d="M32,7C18.193,7,7,18.193,7,32h50C57,18.193,45.807,7,32,7z"/>
		<path class="fandom_vijf" d="M32,57c13.807,0,25-11.193,25-25H7C7,45.807,18.193,57,32,57z"/>
	</g>
	<g>
		<path class="fandom_een" d="M34.904,47.892l-16.129,7.41c-0.502,0.231-1.096,0.011-1.326-0.491L3.174,23.741
			c-0.231-0.502-0.011-1.096,0.491-1.326l16.129-7.41c0.502-0.231,1.096-0.011,1.326,0.491l14.275,31.071
			C35.626,47.068,35.406,47.662,34.904,47.892z M46.457,38.419l-1.614-3.512c-0.297-0.647-1.062-0.93-1.709-0.633l-3.512,1.614
			c-0.647,0.297-0.93,1.062-0.633,1.709l1.614,3.512c0.297,0.647,1.062,0.93,1.709,0.633l3.512-1.614
			C46.471,39.831,46.754,39.066,46.457,38.419z M54.446,34.749l-1.614-3.512c-0.297-0.647-1.062-0.93-1.709-0.633l-3.512,1.614
			c-0.647,0.297-0.93,1.062-0.633,1.709l1.614,3.512c0.297,0.647,1.062,0.93,1.709,0.633l3.512-1.614
			C54.46,36.16,54.743,35.396,54.446,34.749z"/>
		<path class="fandom_twee" d="M57.766,36.288l-8.772-19.093c-0.231-0.502-0.824-0.722-1.326-0.491l-4.026,1.85
			c-0.223,0.103-0.477,0.119-0.711,0.047l-6.982-2.147c-0.235-0.072-0.488-0.055-0.711,0.047l-5.942,2.73
			c-0.502,0.23-0.722,0.824-0.491,1.326l-3.055-6.649c-0.461-1.004-1.649-1.444-2.652-0.982l-0.789,0.363
			c-1.004,0.461-1.444,1.649-0.982,2.652L35.19,46.12c0.461,1.004,1.649,1.443,2.652,0.982l0.789-0.363
			c1.004-0.461,1.444-1.649,0.982-2.652l0.205,0.446c0.231,0.502,0.824,0.722,1.326,0.491l16.129-7.41
			C57.777,37.384,57.997,36.79,57.766,36.288z M45.824,40.128l-3.512,1.614c-0.647,0.297-1.412,0.014-1.709-0.633l-1.614-3.512
			c-0.297-0.647-0.014-1.412,0.633-1.709l3.512-1.614c0.647-0.297,1.412-0.014,1.709,0.633l1.614,3.512
			C46.754,39.066,46.471,39.831,45.824,40.128z M53.813,36.458l-3.512,1.614c-0.647,0.297-1.412,0.014-1.709-0.633l-1.614-3.512
			c-0.297-0.646-0.014-1.412,0.633-1.709l3.512-1.614c0.647-0.297,1.412-0.014,1.709,0.633l1.614,3.512
			C54.743,35.396,54.46,36.16,53.813,36.458z M9,23.479C9.012,24.307,8.35,24.988,7.521,25C6.693,25.012,6.012,24.35,6,23.521
			C5.988,22.693,6.65,22.012,7.479,22S8.988,22.65,9,23.479z"/>
		<path class="fandom_acht" d="M48.432,24.054l-12.002,5.514c-0.502,0.231-1.096,0.011-1.326-0.491l-0.896-1.951
			c-0.231-0.502-0.011-1.096,0.491-1.326L46.7,20.285c0.502-0.231,1.096-0.011,1.326,0.491l0.896,1.951
			C49.153,23.229,48.933,23.823,48.432,24.054z"/>
		<path class="fandom_negentien" d="M14.215,39.683c-0.502,0.231-1.096,0.011-1.326-0.491L8.201,28.987
			c-0.231-0.502-0.011-1.096,0.491-1.326l1.045-0.48l11.541,9.257L14.215,39.683z"/>
		<path class="fandom_vier" d="M26.398,47.954C26.771,47.212,27,46.387,27,45.5c0-3.038-2.462-5.5-5.5-5.5
			c-0.887,0-1.712,0.229-2.454,0.602C16.674,45.325,21.679,50.324,26.398,47.954z"/>
		<path class="fandom_drie" d="M19.046,40.602C17.247,41.506,16,43.349,16,45.5c0,3.038,2.462,5.5,5.5,5.5
			c2.151,0,3.994-1.247,4.898-3.046C21.676,50.326,16.675,45.321,19.046,40.602z"/>
		<path class="fandom_veertien" d="M20.802,22.097L9.737,27.18l11.541,9.257l5.048-2.319c0.502-0.231,0.722-0.824,0.491-1.326
			l-4.688-10.205C21.898,22.086,21.304,21.866,20.802,22.097z"/>
	</g>
</g>
</svg>