<?xml version="1.0" encoding="utf-8"?>
<!-- Generator: Adobe Illustrator 19.1.0, SVG Export Plug-In . SVG Version: 6.00 Build 0)  -->
<!DOCTYPE svg PUBLIC "-//W3C//DTD SVG 1.1//EN" "http://www.w3.org/Graphics/SVG/1.1/DTD/svg11.dtd">
<svg version="1.1" id="DESIGNS" xmlns="http://www.w3.org/2000/svg" xmlns:xlink="http://www.w3.org/1999/xlink" x="0px" y="0px"
	 width="64px" height="64px" viewBox="0 0 64 64" style="enable-background:new 0 0 64 64;" xml:space="preserve">
<style type="text/css">
	.fandom_negen{fill:#685683;}
	.fandom_tien{fill:#8579A3;}
	.fandom_vijftien{fill:#3A3A3A;}
	.fandom_zestien{fill:#4D4D4D;}
	.fandom_zeventien{fill:#666666;}
	.st0{fill:#FF786E;}
	.st1{fill:#BE5652;}
	.st2{fill:#EFEAE0;}
	.st3{fill:#AA9991;}
	.st4{fill:#FFFAFA;}
	.st5{fill:#644638;}
	.st6{fill:#6BC4D2;}
	.st7{fill:#508D9B;}
	.st8{fill:#4B322A;}
	.st9{fill:#FFC865;}
	.st10{fill:#BE9148;}
	.st11{fill:#808080;}
	.st12{fill:#CCCCCC;}
	.st13{fill:#018273;}
	.st14{fill:#00B3AA;}
</style>
<g>
	<g>
		<path class="fandom_tien" d="M32,7C18.193,7,7,18.193,7,32h50C57,18.193,45.807,7,32,7z"/>
		<path class="fandom_negen" d="M32,57c13.807,0,25-11.193,25-25H7C7,45.807,18.193,57,32,57z"/>
	</g>
	<g>
		<path class="fandom_zestien" d="M47.655,44.416c-2.658-5.025-5.408-11.212-4.57-13.993c1.205-3.995,9.051-13.126,12.336-16.831
			c0.807-0.91,0.765-2.284-0.093-3.142L54.55,9.672c-0.857-0.857-2.232-0.9-3.142-0.093c-3.705,3.285-12.835,11.131-16.831,12.336
			c-2.781,0.839-8.968-1.912-13.993-4.57c-1.164-0.616-2.282,0.896-1.35,1.828l26.594,26.594
			C46.759,46.697,48.271,45.58,47.655,44.416z"/>
		<path class="fandom_zestien" d="M19.252,19.19c0,0,1.73,1.985,2.801,11.982c0.551,5.146-1.608,10.253-3.876,14.041
			c-0.632,1.056,0.554,2.242,1.61,1.61c3.788-2.268,8.895-4.428,14.041-3.876c9.997,1.071,11.982,2.801,11.982,2.801L19.252,19.19z"
			/>
		<path class="fandom_vijftien" d="M45.828,45.766L34.037,33.975c1.944-2.089,6.254-2.89,8.974-3.191
			c-0.533,2.925,2.094,8.809,4.645,13.632C48.271,45.58,46.759,46.697,45.828,45.766z M34.216,21.989
			c-2.925,0.533-8.809-2.094-13.632-4.645c-1.164-0.616-2.282,0.896-1.35,1.828l11.791,11.791
			C33.114,29.019,33.915,24.709,34.216,21.989z"/>
		<path class="fandom_zeventien" d="M45.775,45.719c0,0-1.95-1.7-11.947-2.771c-2.344-0.251-4.773,0.087-6.98,0.715
			c3.946-3.31,12.128-4.749,12.128-4.749L45.775,45.719z M22.064,31.172c0.242,2.261-0.057,4.508-0.641,6.645
			c3.213-4.002,4.576-11.881,4.576-11.881l-6.736-6.747C19.263,19.19,20.993,21.175,22.064,31.172z"/>
	</g>
</g>
</svg>