<?xml version="1.0" encoding="utf-8"?>
<!-- Generator: Adobe Illustrator 19.1.0, SVG Export Plug-In . SVG Version: 6.00 Build 0)  -->
<!DOCTYPE svg PUBLIC "-//W3C//DTD SVG 1.1//EN" "http://www.w3.org/Graphics/SVG/1.1/DTD/svg11.dtd">
<svg version="1.1" id="DESIGNS" xmlns="http://www.w3.org/2000/svg" xmlns:xlink="http://www.w3.org/1999/xlink" x="0px" y="0px"
	 width="64px" height="64px" viewBox="0 0 64 64" style="enable-background:new 0 0 64 64;" xml:space="preserve">
<style type="text/css">
	.fandom_een{fill:#FF786E;}
	.fandom_twee{fill:#BE5652;}
	.fandom_vijf{fill:#018273;}
	.fandom_zes{fill:#00B3AA;}
	.fandom_negen{fill:#685683;}
	.fandom_tien{fill:#8579A3;}
	.fandom_negentien{fill:#CCCCCC;}
	.fandom_twintig{fill:#FFFAFA;}
	.st0{fill:#EFEAE0;}
	.st1{fill:#FFC865;}
	.st2{fill:#BE9148;}
	.st3{fill:#644638;}
	.st4{fill:#808080;}
	.st5{fill:#666666;}
	.st6{fill:#AA9991;}
	.st7{fill:#4D4D4D;}
	.st8{fill:#6BC4D2;}
	.st9{fill:#508D9B;}
	.st10{fill:#4B322A;}
	.st11{fill:#3A3A3A;}
</style>
<g>
	<g>
		<path class="fandom_negen" d="M32,57c13.807,0,25-11.193,25-25H7C7,45.807,18.193,57,32,57z"/>
		<path class="fandom_tien" d="M32,7C18.193,7,7,18.193,7,32h50C57,18.193,45.807,7,32,7z"/>
	</g>
	<g>
		<path class="fandom_twintig" d="M34.5,11.5c0,1.381-1.119,2.5-2.5,2.5c-1.381,0-2.5-1.119-2.5-2.5S30.619,9,32,9
			C33.381,9,34.5,10.119,34.5,11.5z M46,26.5c0-6.567-4.218-12.108-10-13.891c-5.781,1.784-10,7.324-10,13.891
			c0,0.169,0.019,0.333,0.024,0.5h-0.024v24.292C27.821,51.107,29.85,51,32,51c7.732,0,14,1.343,14,3V27h-0.024
			C45.981,26.833,46,26.669,46,26.5z"/>
		<path class="fandom_negentien" d="M46,54c0-1.657-6.268-3-14-3c-2.15,0-4.179,0.107-5.999,0.292c0,0,0-24.624,0-24.792
			c0-6.567,4.218-12.108,10-13.891C34.732,12.217,33.391,12,32,12c-0.254,0-0.502,0.026-0.752,0.039
			c-0.626-0.704-0.875-1.748-0.363-2.766C30.067,9.684,29.5,10.522,29.5,11.5c0,0.254,0.049,0.494,0.119,0.725
			C23.024,13.398,18,19.334,18,26.5c0,0.169,0,27.5,0,27.5c0,1.657,6.268,3,14,3c0.634,0,4-0.126,4-0.126
			C41.782,56.505,46,55.359,46,54z"/>
		<path class="fandom_een" d="M26.833,30.327l-0.295,0.229c-0.401,0.312-0.979,0.24-1.291-0.161l-1.351-1.735
			c-0.312-0.401-0.24-0.979,0.161-1.291l0.366-0.285c0.13,0.12,0.26,0.248,0.387,0.382c0.276,0.309,0.553,0.633,0.817,0.966
			c0.258,0.337,0.503,0.685,0.736,1.028C26.547,29.752,26.706,30.042,26.833,30.327z M22.68,23.787
			c-0.161,0.155-0.085,0.421,0.126,0.493c0.562,0.193,1.344,0.636,1.485,0.723c1.17,0.724,2.676,1.247,4.127,1.182
			c-0.418,1.391-0.28,2.979,0.135,4.291c0.05,0.158,0.288,1.025,0.337,1.617c0.018,0.222,0.258,0.36,0.447,0.242
			c0.902-0.561,1.72-1.314,2.283-2.202c0.798-1.259,2.429-3.431,0.052-6.484c-2.462-3.161-4.883-2.002-6.299-1.537
			C24.375,22.441,23.445,23.05,22.68,23.787z"/>
		<path class="fandom_twee" d="M28.553,30.476c-0.416-1.311-0.553-2.899-0.135-4.291c-1.451,0.064-2.957-0.458-4.127-1.182
			c-0.08-0.05-0.777-0.418-0.779-0.419c-0.141,0.076-0.441,0.267-0.456,0.284c-0.639,0.449-0.934,0.985,0.202,1.435
			c0.529,0.209,1.052,0.638,1.552,1.166c0.276,0.309,1.32,1.651,1.553,1.994c0.39,0.614,0.677,1.227,0.75,1.791
			c0.158,1.213,0.751,1.059,1.344,0.547c0.019-0.01,0.243-0.229,0.338-0.33C28.706,31.017,28.587,30.583,28.553,30.476z"/>
		<path class="fandom_vijf" d="M41.207,35.411c0.364,0.194,0.536,0.678,0.278,1.073l-1.162,1.782
			c-0.412,0.632-0.927,1.145-1.514,1.539c-0.558-0.079-1.136-0.079-1.726,0.026l-1.663,0.305c0.136-0.393,0.288-0.809,0.435-1.219
			l0.001-0.001C37.828,37.859,41.207,35.411,41.207,35.411z M35.082,41.149c-0.067,0.202-0.122,0.39-0.186,0.588l1.494,1.267
			c1.56,1.323,3.611,1.626,5.618,0.83l0.454-0.18c0.176-0.07,0.291-0.204,0.371-0.356C39.451,41.176,36.85,41.179,35.082,41.149z"/>
		<path class="fandom_zes" d="M42.848,43.306c0.262-0.499-0.072-0.813-0.403-1.261c-1.308-1.772-3.275-2.584-5.362-2.213
			l-1.663,0.305c0.136-0.393,0.288-0.809,0.435-1.219c2.483-1.375,5.351-3.506,5.352-3.506c-0.126-0.067-0.273-0.1-0.435-0.082
			l-2.289,0.261c-0.587,0.067-1.134,0.232-1.643,0.467c1.714-5.415,1.647-9.177-0.234-11.171c-1.562-1.656-3.837-1.595-5.077-1.406
			c0.048,0.058,0.933,1.362,1.126,1.906c0.821-0.014,1.821,0.151,2.502,0.878c0.862,0.921,1.897,3.585-0.864,11.08
			c-2.503,6.796-3.687,11.518-2.329,15.538c0.141,0.417,0.53,0.68,0.947,0.68c0.106,0,0.214-0.017,0.32-0.053
			c0.523-0.177,0.804-0.744,0.627-1.268c-0.966-2.863-0.344-6.366,1.223-11.093C36.852,41.179,39.459,41.175,42.848,43.306z"/>
	</g>
</g>
</svg>