<?xml version="1.0" encoding="utf-8"?>
<!-- Generator: Adobe Illustrator 19.1.0, SVG Export Plug-In . SVG Version: 6.00 Build 0)  -->
<!DOCTYPE svg PUBLIC "-//W3C//DTD SVG 1.1//EN" "http://www.w3.org/Graphics/SVG/1.1/DTD/svg11.dtd">
<svg version="1.1" id="DESIGNS" xmlns="http://www.w3.org/2000/svg" xmlns:xlink="http://www.w3.org/1999/xlink" x="0px" y="0px"
	 width="64px" height="64px" viewBox="0 0 64 64" style="enable-background:new 0 0 64 64;" xml:space="preserve">
<style type="text/css">
	.fandom_een{fill:#FF786E;}
	.fandom_twee{fill:#BE5652;}
	.fandom_drie{fill:#BE9148;}
	.fandom_vier{fill:#FFC865;}
	.fandom_elf{fill:#4B322A;}
	.fandom_twaalf{fill:#644638;}
	.fandom_negentien{fill:#CCCCCC;}
	.st0{fill:#6BC4D2;}
	.st1{fill:#508D9B;}
	.st2{fill:#8579A3;}
	.st3{fill:#00B3AA;}
	.st4{fill:#018273;}
	.st5{fill:#685683;}
	.st6{fill:#EFEAE0;}
	.st7{fill:#AA9991;}
	.st8{fill:#3A3A3A;}
	.st9{fill:#666666;}
	.st10{fill:#4D4D4D;}
	.st11{fill:#808080;}
	.st12{fill:#FFFAFA;}
</style>
<g>
	<g>
		<path class="fandom_een" d="M32,7C18.193,7,7,18.193,7,32h50C57,18.193,45.807,7,32,7z"/>
		<path class="fandom_twee" d="M32,57c13.807,0,25-11.193,25-25H7C7,45.807,18.193,57,32,57z"/>
	</g>
	<g>
		<path class="fandom_drie" d="M51.438,37.623l-2.194-5.282c-0.098-0.237-0.284-0.426-0.518-0.53l-3.584-1.592l0.029-1.742
			c0.01-0.605-0.071-1.208-0.242-1.789l-1.804-6.157c-0.784,0.574-1.249,1.547-1.097,2.592l0.6,4.134
			c0.009,0.137,0.019,0.273,0.028,0.41l-0.01,1.6l1.894,1.623c0.691,0.592,0.679,1.665-0.026,2.241c0,0-0.644,0.5-0.741,0.548
			l-12.191-12.37c-0.597,0.45-0.761,1.279-0.373,1.921l4.391,6.822l3.278,1.327c0.933,0.378,1.158,1.597,0.422,2.283l-0.948,0.884
			L24.03,27.08c-0.083,0.473,0.067,0.961,0.441,1.28c0,0,6.857,5.829,6.875,5.843l4.997,0.495c0.686,0.068,1.113,0.778,0.852,1.417
			l-0.379,0.924l-6.731-1.368c-0.503-0.102-1.016-0.139-1.529-0.111l-7.53,0.41c0,0.089-0.012,0.176,0.012,0.266
			c0,0,0.15,0.687,0.962,0.765l7.293,0.211c0.082,0.013,0.162,0.025,0.244,0.037l6.401,1.715l0.355,0.509
			c0.06,0.085,0.132,0.161,0.215,0.224l3.419,2.6c0.354,0.269,0.835,0.275,1.192,0.012c1.197-0.883,4.01-2.72,9.506-3.311
			C51.286,38.927,51.693,38.236,51.438,37.623z"/>
		<path class="fandom_twaalf" d="M40.978,42.381c0.856,2.785,3.231,6.452,5.617,7.889c0.505-0.447,1.066-0.886,1.674-1.303
			c3.261-2.24,6.625-3.004,7.515-1.708l-4.275-6.698l-0.264-1.87c-0.155,0.166-0.367,0.289-0.618,0.307
			C44.792,39.417,40.978,42.381,40.978,42.381z"/>
		<path class="fandom_elf" d="M55.783,47.259c-0.889-1.296-4.254-0.532-7.515,1.708c-0.61,0.419-1.174,0.86-1.681,1.309
			c-2.718-1.816-4.487-4.979-5.61-7.894c-0.337,0.173-0.741,0.151-1.051-0.084l-3.419-2.6c-0.083-0.063-0.155-0.139-0.215-0.224
			l-0.243-0.349v4.48L27,40.068c-0.747-0.224-1.548,0.117-1.905,0.811c-0.404,0.786-0.104,1.752,0.675,2.17l15.782,9.173
			l2.422,3.147c0.889,1.296,4.254,0.532,7.515-1.708C54.75,51.422,56.672,48.555,55.783,47.259z"/>
		<path class="fandom_vier" d="M45.171,28.477c0.01-0.604-0.071-1.207-0.241-1.787l-1.805-6.158c0.441-0.323,0.98-0.523,1.573-0.532
			l2.754,7.006c0.043,0.141,0.085,0.281,0.128,0.422l0.73,3.377c0.062,0.286,0.062,0.565,0.036,0.837l-3.204-1.423L45.171,28.477z
			 M44.515,33.131c0.705-0.576,0.717-1.649,0.026-2.241L33.416,21.36c-0.516-0.442-1.27-0.47-1.817-0.066l12.175,12.385
			C43.87,33.631,44.515,33.131,44.515,33.131z M38.879,31.379l-13.038-5.278c-0.727-0.294-1.708,0.099-1.814,0.981l14.326,7.463
			l0.948-0.884C40.037,32.975,39.811,31.756,38.879,31.379z M36.815,37.038l0.379-0.925c0.262-0.638-0.165-1.348-0.852-1.416
			l-6.833-0.676c-0.08,0.001-0.16,0.002-0.24,0.003l-7.37,0.923c-0.525,0.069-0.873,0.519-0.874,1.022l7.661-0.418
			c0.425-0.023,0.851,0.008,1.268,0.093L36.815,37.038z"/>
		<path class="fandom_negentien" d="M42.5,21.146C41.25,8,37.307,6.076,37.202,5.909c-0.5-0.417,0.021-1.146,0.542-0.833
			C42.932,8.867,44.793,19.812,44.699,20C43.106,20.129,42.5,21.146,42.5,21.146z M33.471,21.388c0,0-9.385-12.884-15.956-12.288
			c-0.64,0.067-0.744,0.9,0.135,0.895c2.454,0.13,5.871,1.817,13.413,12.109C31.635,20.659,32.953,20.953,33.471,21.388z
			 M25.797,26.084c0,0-10.273-6.988-19.148-7.051c-0.82-0.01-0.851,0.884-0.125,0.958c2.539,0.154,9.055,1.664,17.512,7.533
			C23.891,26.188,25.031,25.844,25.797,26.084z M21.809,34.964c-0.371,0-13.336,1.156-17.46,3.108
			c-0.642,0.314-0.318,1.2,0.334,0.942c0.548-0.167,9.951-2.258,17.226-2.032C20.64,36.721,20.855,35.203,21.809,34.964z"/>
	</g>
</g>
</svg>