<?xml version="1.0" encoding="utf-8"?>
<!-- Generator: Adobe Illustrator 19.1.0, SVG Export Plug-In . SVG Version: 6.00 Build 0)  -->
<!DOCTYPE svg PUBLIC "-//W3C//DTD SVG 1.1//EN" "http://www.w3.org/Graphics/SVG/1.1/DTD/svg11.dtd">
<svg version="1.1" id="DESIGNS" xmlns="http://www.w3.org/2000/svg" xmlns:xlink="http://www.w3.org/1999/xlink" x="0px" y="0px"
	 width="64px" height="64px" viewBox="0 0 64 64" style="enable-background:new 0 0 64 64;" xml:space="preserve">
<style type="text/css">
	.fandom_een{fill:#FF786E;}
	.fandom_twee{fill:#BE5652;}
	.fandom_vijf{fill:#018273;}
	.fandom_zes{fill:#00B3AA;}
	.fandom_dertien{fill:#AA9991;}
	.fandom_veertien{fill:#EFEAE0;}
	.st0{fill:#644638;}
	.st1{fill:#4B322A;}
	.st2{fill:#FFC865;}
	.st3{fill:#BE9148;}
	.st4{fill:#808080;}
	.st5{fill:#666666;}
	.st6{fill:#CCCCCC;}
	.st7{fill:#6BC4D2;}
	.st8{fill:#508D9B;}
	.st9{fill:#3A3A3A;}
	.st10{fill:#FFFAFA;}
	.st11{fill:#4D4D4D;}
	.st12{fill:#8579A3;}
	.st13{fill:#685683;}
</style>
<g>
	<g>
		<path class="fandom_zes" d="M32,7c13.807,0,25,11.193,25,25H7C7,18.193,18.193,7,32,7z"/>
		<path class="fandom_vijf" d="M32,57C18.193,57,7,45.807,7,32h50C57,45.807,45.807,57,32,57z"/>
	</g>
	<g>
		<path class="fandom_dertien" d="M12.894,39.477l-1.819-5.625c2.651-0.696,5.081-1.665,7.31-2.812
			c0.871,1.31,1.867,2.542,3.01,3.65l2.745,2.662c-3.237,1.623-6.835,2.752-10.749,3.04C13.182,40.122,13.005,39.822,12.894,39.477z
			 M14,16c-0.51,0-0.924-0.677-1.394-0.803c-0.441-0.118-1.052,0.175-1.48,0.048l-0.577,7.518c1.459-0.687,2.836-1.485,4.152-2.34
			l-0.403-4.501C14.202,15.967,14.103,16,14,16z"/>
		<path class="fandom_veertien" d="M24.14,37.352l-2.745-2.662c-1.143-1.109-2.139-2.341-3.01-3.65
			c9.359-4.816,15.086-12.845,17.895-17.719l5.793,5.799c0.188,0.188,0.341,0.402,0.471,0.627
			C40.199,23.462,33.743,32.536,24.14,37.352z M19.452,9.049C19.691,9.354,20,9.655,20,10c0,0.51-0.677,0.924-0.803,1.394
			c-0.079,0.295,0.019,0.663,0.061,1.005c0.027,0.222,0.035,0.435-0.062,0.603c-0.25,0.432-1.043,0.452-1.393,0.803
			c-0.35,0.35-0.371,1.143-0.803,1.393c-0.426,0.246-1.122-0.13-1.608,0c-0.375,0.1-0.714,0.546-1.094,0.725l0.403,4.501
			c4.615-2.998,8.344-6.822,11.027-10.122C25.728,10.302,19.477,9.054,19.452,9.049z"/>
		<path class="fandom_een" d="M14.725,20.69l-0.024-0.266c4.615-2.998,8.344-6.822,11.027-10.122l8.53,1.71
			c0.582,0.117,1.117,0.403,1.537,0.824l0.485,0.485c-2.809,4.875-8.535,12.903-17.895,17.719
			C16.341,27.968,15.059,24.421,14.725,20.69z M50.613,23.659l-6.179-4.849c-0.475-0.372-1.163-0.246-1.476,0.271
			c-1.915,3.158-8.577,13.136-18.817,18.272l8.261,8.01c11.406-6.399,17.097-17.48,18.504-20.48
			C51.105,24.456,50.982,23.948,50.613,23.659z M19.258,12.399c-0.042-0.342-0.14-0.71-0.061-1.005C19.323,10.924,20,10.51,20,10
			c0-0.509-0.677-0.923-0.803-1.393c-0.13-0.486,0.246-1.182,0-1.608c-0.25-0.432-1.043-0.453-1.393-0.803
			c-0.35-0.35-0.371-1.143-0.803-1.393c-0.426-0.246-1.122,0.129-1.608-0.001C14.924,4.677,14.51,4,14,4
			c-0.509,0-0.923,0.677-1.393,0.803c-0.293,0.078-0.659-0.019-0.999-0.061C8.815,9.781,14.221,15.119,19.258,12.399z"/>
		<path class="fandom_twee" d="M10.55,22.763c1.459-0.687,2.836-1.485,4.152-2.34l0.024,0.266c0.334,3.731,1.616,7.278,3.66,10.351
			c-2.229,1.147-4.659,2.115-7.31,2.812l-0.927-2.868c-0.122-0.377-0.169-0.774-0.139-1.169L10.55,22.763z M12.737,40.443
			c-0.647,0.031-1.083,0.683-0.891,1.305l2.321,7.533c0.133,0.43,0.537,0.727,0.985,0.719c6.807-0.129,12.517-1.983,17.249-4.638
			l-8.261-8.01C20.723,39.066,16.908,40.241,12.737,40.443z M11,4.803c-0.432,0.25-0.453,1.043-0.803,1.393
			c-0.35,0.35-1.143,0.371-1.393,0.803C8.557,7.424,8.933,8.12,8.803,8.606C8.677,9.076,8,9.49,8,10
			c0,0.509,0.677,0.923,0.803,1.393c0.13,0.486-0.246,1.182,0,1.608c0.25,0.432,1.043,0.453,1.393,0.803
			c0.35,0.35,0.371,1.143,0.803,1.393c0.426,0.246,1.122-0.129,1.608,0.001C13.076,15.323,13.49,16,14,16
			c0.509,0,0.923-0.677,1.393-0.803c0.486-0.13,1.182,0.246,1.608,0c0.432-0.25,0.453-1.043,0.803-1.393
			c0.35-0.35,1.143-0.371,1.393-0.803c0.097-0.167,0.089-0.381,0.062-0.603c-5.037,2.72-10.444-2.617-7.65-7.657
			C11.384,4.714,11.168,4.705,11,4.803z"/>
	</g>
</g>
</svg>