<?xml version="1.0" encoding="utf-8"?>
<!-- Generator: Adobe Illustrator 19.1.0, SVG Export Plug-In . SVG Version: 6.00 Build 0)  -->
<!DOCTYPE svg PUBLIC "-//W3C//DTD SVG 1.1//EN" "http://www.w3.org/Graphics/SVG/1.1/DTD/svg11.dtd">
<svg version="1.1" id="DESIGNS" xmlns="http://www.w3.org/2000/svg" xmlns:xlink="http://www.w3.org/1999/xlink" x="0px" y="0px"
	 width="64px" height="64px" viewBox="0 0 64 64" style="enable-background:new 0 0 64 64;" xml:space="preserve">
<style type="text/css">
	.fandom_een{fill:#FF786E;}
	.fandom_twee{fill:#BE5652;}
	.fandom_veertien{fill:#EFEAE0;}
	.fandom_vijftien{fill:#3A3A3A;}
	.st0{fill:#6BC4D2;}
	.st1{fill:#508D9B;}
	.st2{fill:#4B322A;}
	.st3{fill:#644638;}
	.st4{fill:#8579A3;}
	.st5{fill:#685683;}
	.st6{fill:#4D4D4D;}
	.st7{fill:#CCCCCC;}
	.st8{fill:#AA9991;}
	.st9{fill:#00B3AA;}
	.st10{fill:#018273;}
	.st11{fill:#FFC865;}
	.st12{fill:#BE9148;}
	.st13{fill:#808080;}
	.st14{fill:#666666;}
	.st15{fill:#FFFAFA;}
</style>
<g>
	<g>
		<path class="fandom_een" d="M32,7C18.193,7,7,18.193,7,32h50C57,18.193,45.807,7,32,7z"/>
		<path class="fandom_twee" d="M32,57c13.807,0,25-11.193,25-25H7C7,45.807,18.193,57,32,57z"/>
	</g>
	<g>
		<path class="fandom_veertien" d="M36.295,8.14c-0.796-0.685,0.501-6.178,2.19-6.04c-0.039,0.13-0.064,0.237-0.047,0.269
			C39.375,4.153,37.662,6.657,36.295,8.14z M35.345,9.679c-0.154-0.096-0.308-0.183-0.463-0.26c0.279-0.184,0.556-0.411,0.824-0.67
			c-0.286-1-1.03-0.966-1.059-2.785c-0.01-0.653,0.195-1.25,0.168-1.897c-0.03-0.706-0.228-1.316,0.023-2.037
			c0.149-0.429,0.239-0.857,0.307-1.293c-0.842-0.068-1.805,0.002-2.523,0.15c-0.003,0.513-0.056,0.99-0.177,1.546
			c-0.135,0.621-0.739,1.373-0.362,2.159c0.616,1.286,0.282,2.093-0.048,3.424c-0.072,0.29-0.115,0.587-0.142,0.885
			c0.049,0.089,0.099,0.172,0.152,0.248c-0.863,0.333-1.577,1.107-1.991,2.353c-0.631,1.898-0.558,4.069,0.817,5.596
			c1.28,1.421,5.8,2.124,5.888-3.832C36.777,11.894,36.507,10.407,35.345,9.679z M43.349,5.648c-0.44,1.343,0.146,3.065,1.763,3.387
			C47.14,7.854,47.012,5.155,43.349,5.648z M24.905,2.885c-0.237-0.124-0.473-0.249-0.71-0.372
			c-1.497-0.781-3.731,1.419-0.599,3.427C24.772,5.422,25.203,4.047,24.905,2.885z M31.021,7.203c0,0,0.007-0.016,0.019-0.047
			c0.185-1.341,0.341-3.83-0.864-4.362c-0.496,1.111-0.294,2.367,0.218,3.409C30.563,6.547,30.767,6.913,31.021,7.203z
			 M24.786,26.869c-0.025-0.048,0.013-0.21,0.072-0.405c-2.549-0.207-4.506,8.082-3.305,9.116
			C23.617,33.341,26.202,29.561,24.786,26.869z M20.12,37.902c-0.232-0.146-0.466-0.276-0.699-0.393
			c0.421-0.278,0.84-0.62,1.243-1.012c-0.431-1.51-1.554-1.458-1.598-4.203c-0.016-0.985,0.294-1.886,0.253-2.863
			c-0.045-1.066-0.345-1.986,0.034-3.075c0.225-0.648,0.36-1.294,0.463-1.951c-1.27-0.103-2.724,0.003-3.808,0.227
			c-0.005,0.774-0.085,1.494-0.267,2.333c-0.204,0.937-1.115,2.072-0.547,3.258c0.929,1.941,0.425,3.158-0.072,5.168
			c-0.108,0.437-0.173,0.886-0.215,1.336c0.073,0.135,0.15,0.259,0.229,0.375c-1.302,0.503-2.38,1.67-3.005,3.551
			c-0.952,2.864-0.842,6.141,1.234,8.447c1.932,2.145,8.754,3.205,8.886-5.784C22.281,41.245,21.873,39,20.12,37.902z M32.2,31.818
			c-0.665,2.027,0.221,4.626,2.661,5.113C37.921,35.147,37.728,31.074,32.2,31.818z M4.363,27.648
			c-0.358-0.187-0.714-0.375-1.072-0.562c-2.259-1.179-5.631,2.142-0.903,5.172C4.162,31.477,4.813,29.401,4.363,27.648z
			 M13.593,34.165c0,0,0.01-0.025,0.028-0.071c0.279-2.025,0.514-5.781-1.304-6.584c-0.748,1.676-0.444,3.573,0.33,5.145
			C12.902,33.175,13.211,33.727,13.593,34.165z M54.937,29.008c-0.014-0.027,0.007-0.118,0.04-0.228
			c-1.433-0.117-2.534,4.545-1.858,5.126C54.28,32.647,55.734,30.522,54.937,29.008z M52.313,35.212
			c-0.131-0.082-0.262-0.155-0.393-0.221c0.237-0.156,0.472-0.349,0.699-0.569c-0.242-0.849-0.874-0.82-0.899-2.363
			c-0.009-0.554,0.165-1.061,0.142-1.61c-0.025-0.599-0.194-1.117,0.019-1.729c0.127-0.364,0.203-0.728,0.26-1.097
			c-0.714-0.058-1.532,0.002-2.141,0.127c-0.003,0.435-0.048,0.84-0.15,1.312c-0.115,0.527-0.627,1.165-0.308,1.832
			c0.523,1.091,0.239,1.776-0.041,2.906c-0.061,0.246-0.097,0.498-0.121,0.751c0.041,0.076,0.084,0.146,0.129,0.211
			c-0.732,0.283-1.338,0.939-1.69,1.997c-0.535,1.61-0.474,3.453,0.694,4.75c1.086,1.206,4.922,1.802,4.997-3.252
			C53.529,37.091,53.299,35.83,52.313,35.212z M59.106,31.791c-0.374,1.14,0.124,2.601,1.496,2.875
			C62.323,33.663,62.215,31.372,59.106,31.791z M43.453,29.446c-0.201-0.105-0.402-0.211-0.603-0.316
			c-1.27-0.663-3.166,1.204-0.508,2.908C43.34,31.599,43.706,30.432,43.453,29.446z M48.644,33.11c0,0,0.006-0.014,0.016-0.04
			c0.157-1.138,0.289-3.251-0.733-3.702c-0.421,0.943-0.25,2.009,0.185,2.893C48.255,32.554,48.429,32.864,48.644,33.11z"/>
		<path class="fandom_vijftien" d="M41.025,11.548c-0.717,0.982-1.744,2.145-1.663,3.321c0.42,2.244,0.285,4.545,0.77,6.785
			c0.367,1.692,0.635,3.362-1.102,4.332c-0.841,0.47-2.032,0.432-2.806-0.146c-0.895-0.668-0.957-2.554-1.733-4.41
			c-0.083-0.147-0.389-0.734-0.599-0.727c-0.238,0.008-0.32,0.561-0.398,0.782c0,0-0.683,3.433-2.056,4.154
			c-1.142,0.6-2.967,0.118-3.993-0.563c-1.046-0.695-0.727-1.878-0.264-2.831c0,0,1.32-2.267,1.437-3.627
			c0.078-0.913-0.137-1.936-0.139-2.879c-0.005-2.19,0.279-5.314-1.047-7.261l-3.835-2.539c1.176-0.517,1.607-1.893,1.309-3.055
			l5.256,2.767c0.175,0.493,0.513,1.154,0.86,1.551c0.003,0.004,0.007,0.008,0.011,0.012c0.188-1.327,0.367-3.883-0.857-4.421
			c0.061-0.136,0.13-0.268,0.207-0.395c-0.302-0.257-0.639-0.591-0.786-0.919c-0.579-1.292,1.119-1.014,2.23-0.65
			c0.312,0.102,0.518,0.114,0.796,0.056c-0.003,0.512-0.056,0.99-0.177,1.545c-0.135,0.621-0.739,1.373-0.362,2.159
			c0.616,1.286,0.282,2.093-0.048,3.424C31.925,8.452,31.891,8.9,31.891,8.9c0.049,0.089,0.099,0.172,0.152,0.248
			c-0.863,0.333-1.577,1.107-1.991,2.353c-0.631,1.898-0.558,4.069,0.817,5.596c1.28,1.421,5.8,2.124,5.888-3.832
			c0.02-1.372-0.25-2.859-1.412-3.587c-0.154-0.096-0.308-0.183-0.463-0.261c0.279-0.184,0.556-0.411,0.824-0.67
			c0,0-0.053-0.209-0.177-0.41c-0.72-1.162-0.861-1.096-0.882-2.375c-0.01-0.653,0.195-1.25,0.168-1.897
			c-0.03-0.706-0.228-1.316,0.023-2.037c0.03-0.086,0.357-1.24,0.299-1.3l0.366,0.038c0,0,0.513-0.764,1.5-0.764
			c1.083,0,1.948,0.537,1.482,2.097c-1.689-0.137-2.986,5.357-2.189,6.041c0,0,0,0,0,0c0.333-0.362,0.683-0.771,0.952-1.129
			c4.148-1.117,6.278-1.432,6.102-1.365c-0.44,1.343,0.146,3.065,1.763,3.387C45.614,8.894,43.036,10.995,41.025,11.548z
			 M9.966,51.394c-0.179,2.051-2.168,5.474-2.168,5.474c-0.7,1.438-1.181,3.224,0.398,4.272c1.549,1.028,4.303,1.755,6.027,0.85
			c2.072-1.089,3.102-6.27,3.102-6.27c0.118-0.334,0.241-1.168,0.6-1.18c0.318-0.011,0.78,0.876,0.905,1.098
			c1.17,2.8,1.264,5.647,2.615,6.655c1.167,0.871,2.965,0.929,4.234,0.22c2.622-1.465,2.217-3.984,1.664-6.538
			c-0.732-3.38-0.527-6.854-1.162-10.24c-0.122-1.775,1.427-3.53,2.51-5.012c3.036-0.835,6.926-4.006,6.169-3.793
			c-2.44-0.486-3.325-3.086-2.661-5.113c0.265-0.102-2.948,0.374-9.21,2.06c-0.405,0.54-0.934,1.157-1.436,1.704
			c-1.202-1.032,0.754-9.325,3.303-9.118c0.704-2.355-0.601-3.165-2.236-3.165c-1.489,0-2.263,1.153-2.263,1.153l-0.553-0.058
			c0.088,0.091-0.407,1.833-0.452,1.962c-0.379,1.089-0.079,2.009-0.034,3.075c0.041,0.977-0.269,1.878-0.253,2.863
			c0.031,1.93,0.244,1.831,1.331,3.585c0.187,0.302,0.267,0.618,0.267,0.618c-0.404,0.391-0.822,0.734-1.243,1.012
			c0.233,0.117,0.466,0.248,0.699,0.393c1.754,1.099,2.162,3.343,2.131,5.413c-0.132,8.989-6.955,7.929-8.886,5.784
			c-2.076-2.305-2.186-5.583-1.234-8.447c0.625-1.881,1.703-3.048,3.005-3.551c-0.079-0.116-0.156-0.24-0.229-0.375
			c0,0,0.051-0.676,0.215-1.336c0.497-2.01,1.002-3.228,0.072-5.168c-0.568-1.186,0.343-2.321,0.547-3.258
			c0.182-0.839,0.262-1.559,0.267-2.332c-0.42,0.087-0.731,0.069-1.202-0.085c-1.677-0.549-4.24-0.969-3.366,0.981
			c0.222,0.495,0.731,0.999,1.186,1.387c-0.117,0.192-0.221,0.391-0.312,0.596c1.847,0.812,1.578,4.671,1.294,6.673
			c-0.005-0.006-0.011-0.012-0.016-0.018c-0.524-0.6-1.033-1.597-1.298-2.342l-7.932-4.175c0.45,1.753-0.201,3.83-1.975,4.61
			l5.788,3.833C8.176,36.09,11.156,37.75,9.966,51.394z M60.602,34.666c-1.372-0.273-1.87-1.735-1.496-2.875
			c0.149-0.057-1.658,0.21-5.179,1.158c-0.228,0.304-0.525,0.651-0.808,0.958c0,0,0,0,0-0.001c-0.676-0.581,0.424-5.243,1.858-5.127
			C55.374,27.456,54.639,27,53.72,27c-0.838,0-1.273,0.648-1.273,0.648l-0.311-0.032c0.049,0.051-0.229,1.03-0.254,1.103
			c-0.213,0.612-0.044,1.13-0.019,1.729c0.023,0.549-0.151,1.056-0.142,1.61c0.017,1.085,0.137,1.03,0.748,2.016
			c0.105,0.17,0.15,0.348,0.15,0.348c-0.227,0.22-0.462,0.412-0.699,0.569c0.131,0.066,0.262,0.139,0.393,0.221
			c0.986,0.618,1.216,1.88,1.198,3.044c-0.074,5.055-3.911,4.459-4.997,3.252c-1.167-1.296-1.229-3.139-0.694-4.75
			c0.352-1.058,0.958-1.714,1.69-1.997c-0.045-0.065-0.088-0.135-0.129-0.211c0,0,0.029-0.38,0.121-0.751
			c0.28-1.13,0.563-1.815,0.041-2.906c-0.319-0.667,0.193-1.305,0.308-1.832c0.103-0.472,0.148-0.877,0.15-1.312
			c-0.236,0.049-0.411,0.039-0.676-0.048c-0.943-0.309-2.384-0.545-1.893,0.552c0.125,0.278,0.411,0.562,0.667,0.78
			c-0.066,0.108-0.124,0.22-0.175,0.335c1.039,0.457,0.887,2.626,0.728,3.752c-0.003-0.003-0.006-0.007-0.009-0.01
			c-0.294-0.337-0.581-0.898-0.73-1.317l-4.46-2.348c0.253,0.986-0.113,2.154-1.111,2.592l3.255,2.155
			c1.125,1.653,0.884,4.303,0.888,6.162c0.002,0.8,0.185,1.668,0.118,2.443c-0.099,1.154-1.219,3.078-1.219,3.078
			c-0.394,0.809-0.664,1.813,0.224,2.402c0.871,0.578,2.42,0.987,3.389,0.478c1.165-0.612,1.745-3.526,1.745-3.526
			c0.066-0.188,0.136-0.657,0.338-0.663c0.179-0.006,0.439,0.492,0.509,0.617c0.658,1.575,0.711,3.175,1.47,3.742
			c0.656,0.49,1.667,0.522,2.381,0.124c1.474-0.824,1.247-2.24,0.936-3.676c-0.412-1.901-0.296-3.854-0.653-5.758
			c-0.069-0.998,0.803-1.985,1.411-2.818C58.841,36.329,61.028,34.545,60.602,34.666z"/>
	</g>
</g>
</svg>