<?xml version="1.0" encoding="utf-8"?>
<!-- Generator: Adobe Illustrator 22.0.1, SVG Export Plug-In . SVG Version: 6.00 Build 0)  -->
<svg version="1.1" id="designs" xmlns="http://www.w3.org/2000/svg" xmlns:xlink="http://www.w3.org/1999/xlink" x="0px" y="0px"
	 width="32px" height="32px" viewBox="0 0 32 32" style="enable-background:new 0 0 32 32;" xml:space="preserve">
<style type="text/css">
	.scienceandfiction_een{fill:#2B4099;}
	.scienceandfiction_twee{fill:#CC2954;}
</style>
<path class="scienceandfiction_twee" d="M20,17l1-1H10l1,1h2v2h-1.5c0.02,0.16,0.03,0.33,0.03,0.5V20h7.97v-0.5
	c0-0.17,0.01-0.34,0.03-0.5H18v-2H20z M15,19h-1v-2h1V19z M17,19h-1v-2h1V19z M18.656,5.704C19.452,5.286,20,4.461,20,3.5
	C20,2.119,18.881,1,17.5,1S15,2.119,15,3.5c0,0.566,0.195,1.082,0.512,1.501C15.508,5.001,15.504,5,15.5,5C11.36,5,8,8.36,8,12.5
	v2.957c0.35,0.04,0.68,0.11,1,0.23V12.5C9,8.92,11.92,6,15.5,6S22,8.92,22,12.5v3.188c0.32-0.12,0.65-0.19,1-0.23V12.5
	C23,9.489,21.218,6.897,18.656,5.704z M17.5,2C18.327,2,19,2.673,19,3.5S18.327,5,17.5,5S16,4.327,16,3.5S16.673,2,17.5,2z"/>
<path class="scienceandfiction_een" d="M23.5,15C20,15,19,17.94,19,19.5v1.93c-0.231-0.088-0.476-0.132-0.721-0.132
	c-0.507,0-1.015,0.191-1.399,0.582c-0.78,0.78-0.62,1.918,0,2.83c0.526,0.774,2.12,3.12,2.12,3.12V31h9V19.5
	C28,17.01,25.99,15,23.5,15z M20,30v-2h1v2H20z M23,30h-1v-2h1V30z M25,30h-1v-2h1V30z M27,30h-1v-2h1V30z M27,27h-7.355
	l-1.938-2.852c-0.159-0.235-0.64-1.041-0.114-1.567c0.18-0.183,0.423-0.283,0.686-0.283c0.125,0,0.248,0.023,0.365,0.067L20,22.88
	V19.5c0-0.035,0.04-3.5,3.5-3.5c1.93,0,3.5,1.57,3.5,3.5V27z M3,19.5V31h9v-3.17c0,0,1.594-2.346,2.12-3.12
	c0.62-0.912,0.78-2.05,0-2.83c-0.385-0.391-0.892-0.582-1.399-0.582c-0.245,0-0.49,0.044-0.721,0.132V19.5c0-1.56-1-4.5-4.5-4.5
	C5.01,15,3,17.01,3,19.5z M10,30v-2h1v2H10z M8,28h1v2H8V28z M6,28h1v2H6V28z M4,28h1v2H4V28z M4,19.5C4,17.57,5.57,16,7.5,16
	c3.46,0,3.5,3.465,3.5,3.5v3.38l1.355-0.516c0.117-0.044,0.24-0.067,0.365-0.067c0.263,0,0.507,0.101,0.686,0.283
	c0.526,0.526,0.046,1.332-0.114,1.567L11.355,27H4V19.5z"/>
</svg>