<?xml version="1.0" encoding="utf-8"?>
<!-- Generator: Adobe Illustrator 22.0.1, SVG Export Plug-In . SVG Version: 6.00 Build 0)  -->
<svg version="1.1" id="designs" xmlns="http://www.w3.org/2000/svg" xmlns:xlink="http://www.w3.org/1999/xlink" x="0px" y="0px"
	 width="32px" height="32px" viewBox="0 0 32 32" style="enable-background:new 0 0 32 32;" xml:space="preserve">
<style type="text/css">
	.scienceandfiction_een{fill:#2B4099;}
	.scienceandfiction_twee{fill:#CC2954;}
</style>
<path class="scienceandfiction_een" d="M19.323,2l3.638,9.095L19.18,30h-5.36l-3.781-18.905L13.677,2H19.323z M20,1h-7L9,11l4,20h7
	l4-20L20,1L20,1z"/>
<path class="scienceandfiction_twee" d="M17,8v2h2v1h-2v4h-1v-4h-2v-1h2V8H17z M15,7v2h-2v3h2v4h3v-4h2V9h-2V7H15z M19,18h-3v1h3V18
	L19,18z M15,18h-1v1h1V18L15,18z M17,20h-3v1h3V20L17,20z M19,20h-1v1h1V20L19,20z"/>
</svg>