<?xml version="1.0" encoding="utf-8"?>
<!-- Generator: Adobe Illustrator 22.0.1, SVG Export Plug-In . SVG Version: 6.00 Build 0)  -->
<svg version="1.1" id="designs" xmlns="http://www.w3.org/2000/svg" xmlns:xlink="http://www.w3.org/1999/xlink" x="0px" y="0px"
	 width="32px" height="32px" viewBox="0 0 32 32" style="enable-background:new 0 0 32 32;" xml:space="preserve">
<style type="text/css">
	.scienceandfiction_een{fill:#2B4099;}
	.scienceandfiction_twee{fill:#CC2954;}
</style>
<path class="scienceandfiction_twee" d="M12,17H4v-1h8V17z M10.604,8H5.396v1h5.208V8z M11,10H5v1h6V10z M11.375,12H4.558v1h6.817
	V12z M11.829,14H4.171v1h7.657V14z M4,21h3v3H4V21z M5,23h1v-1H5V23z M12,21h3v3h-3V21z M13,23h1v-1h-1V23z M4,25h3v3H4V25z M5,27h1
	v-1H5V27z M8,25h3v3H8V25z M9,27h1v-1H9V27z M8,21h3v3H8V21z M9,23h1v-1H9V23z M12,25h3v3h-3V25z M13,27h1v-1h-1V27z M16,21h3v3h-3
	V21z M17,23h1v-1h-1V23z M16,25h3v3h-3V25z M17,27h1v-1h-1V27z M20,25h3v3h-3V25z M21,27h1v-1h-1V27z M20,21h3v3h-3V21z M21,23h1v-1
	h-1V23z M24,25h3v3h-3V25z M25,27h1v-1h-1V27z M27,21v3h-3v-3H27z M26,22h-1v1h1V22z"/>
<path class="scienceandfiction_een" d="M28,12h-3v6h-2v-6h-3v6h-2v-6h-3v6h-2.154L11,6H5L3.154,18H2v13h27V18h-1V12z M26,13h1v5h-1
	V13z M21,13h1v5h-1V13z M16,13h1v5h-1V13z M5.858,7h4.284l1.692,11H4.166L5.858,7z M28,30H3V19h25V30z M26.5,10
	c0.828,0,1.5-0.671,1.5-1.5S27.328,7,26.5,7S25,7.671,25,8.5S25.672,10,26.5,10z M26.5,8C26.776,8,27,8.224,27,8.5S26.776,9,26.5,9
	S26,8.776,26,8.5S26.224,8,26.5,8z M28.5,2C27.672,2,27,2.671,27,3.5S27.672,5,28.5,5S30,4.329,30,3.5S29.328,2,28.5,2z M28.5,4
	C28.224,4,28,3.776,28,3.5S28.224,3,28.5,3S29,3.224,29,3.5S28.776,4,28.5,4z M22.5,6C23.328,6,24,5.329,24,4.5S23.328,3,22.5,3
	S21,3.671,21,4.5S21.672,6,22.5,6z M22.5,4C22.776,4,23,4.224,23,4.5S22.776,5,22.5,5S22,4.776,22,4.5S22.224,4,22.5,4z M15,7.5
	C15,8.329,15.672,9,16.5,9S18,8.329,18,7.5S17.328,6,16.5,6S15,6.671,15,7.5z M16.5,7C16.776,7,17,7.224,17,7.5S16.776,8,16.5,8
	S16,7.776,16,7.5S16.224,7,16.5,7z M14.5,4C15.328,4,16,3.329,16,2.5S15.328,1,14.5,1S13,1.671,13,2.5S13.672,4,14.5,4z M14.5,2
	C14.776,2,15,2.224,15,2.5S14.776,3,14.5,3S14,2.776,14,2.5S14.224,2,14.5,2z M21.5,11c0.828,0,1.5-0.671,1.5-1.5S22.328,8,21.5,8
	S20,8.671,20,9.5S20.672,11,21.5,11z M21.5,9C21.776,9,22,9.224,22,9.5S21.776,10,21.5,10S21,9.776,21,9.5S21.224,9,21.5,9z M9.5,5
	C10.328,5,11,4.329,11,3.5S10.328,2,9.5,2S8,2.671,8,3.5S8.672,5,9.5,5z M9.5,3C9.776,3,10,3.224,10,3.5S9.776,4,9.5,4
	S9,3.776,9,3.5S9.224,3,9.5,3z"/>
</svg>