<?xml version="1.0" encoding="utf-8"?>
<!-- Generator: Adobe Illustrator 22.0.1, SVG Export Plug-In . SVG Version: 6.00 Build 0)  -->
<svg version="1.1" id="designs" xmlns="http://www.w3.org/2000/svg" xmlns:xlink="http://www.w3.org/1999/xlink" x="0px" y="0px"
	 width="32px" height="32px" viewBox="0 0 32 32" style="enable-background:new 0 0 32 32;" xml:space="preserve">
<style type="text/css">
	.scienceandfiction_twee{fill:#CC2954;}
	.scienceandfiction_een{fill:#2B4099;}
</style>
<path class="scienceandfiction_twee" d="M18,26v1h-1v-1H18L18,26z M18,28h-1v1h1V28L18,28z M20,28h-1v1h1V28L20,28z M20,26h-1v1h1
	V26L20,26z M19,27h-1v1h1V27L19,27z M15,20h-1v1h1V20L15,20z M15,22h-1v1h1V22L15,22z M17,22h-1v1h1V22L17,22z M17,20h-1v1h1V20
	L17,20z M16,21h-1v1h1V21L16,21z M21,20h-1v1h1V20L21,20z M21,22h-1v1h1V22L21,22z M23,22h-1v1h1V22L23,22z M23,20h-1v1h1V20L23,20z
	 M22,21h-1v1h1V21L22,21z M12,26h-1v1h1V26L12,26z M12,28h-1v1h1V28L12,28z M14,28h-1v1h1V28L14,28z M14,26h-1v1h1V26L14,26z M13,27
	h-1v1h1V27L13,27z M9,20H8v1h1V20L9,20z M9,22H8v1h1V22L9,22z M11,22h-1v1h1V22L11,22z M11,20h-1v1h1V20L11,20z M10,21H9v1h1V21
	L10,21z"/>
<path class="scienceandfiction_een" d="M23.414,10h-1c0-1.103-0.897-2-2-2c-0.331,0-0.65,0.089-0.937,0.242
	C19.541,8.486,19.586,8.737,19.586,9h-1c0-1.103-0.897-2-2-2c-0.503,0-0.985,0.188-1.355,0.529l-0.678-0.735
	C15.108,6.282,15.831,6,16.586,6c1.036,0,1.951,0.528,2.49,1.329C19.489,7.122,19.942,7,20.414,7C22.068,7,23.414,8.346,23.414,10z
	 M26,10c0,2.76-2.138,5-4.773,5c-0.325,0-0.649-0.04-0.964-0.1C19.06,16.2,17.371,17,15.5,17s-3.56-0.8-4.763-2.1
	c-0.315,0.06-0.64,0.1-0.964,0.1C7.138,15,5,12.76,5,10s2.138-5,4.773-5c0.325,0,0.649,0.04,0.964,0.1C11.94,3.8,13.629,3,15.5,3
	s3.56,0.8,4.763,2.1c0.315-0.06,0.64-0.1,0.964-0.1C23.862,5,26,7.24,26,10z M25,10c0-2.206-1.692-4-3.773-4
	c-0.232,0-1.322,0.186-1.322,0.186l-0.377-0.407C18.468,4.632,17.037,4,15.5,4s-2.968,0.632-4.029,1.779l-0.377,0.407
	c0,0-1.09-0.186-1.322-0.186C7.692,6,6,7.794,6,10s1.692,4,3.773,4c0.232,0,1.322-0.186,1.322-0.186l0.377,0.407
	C12.532,15.368,13.963,16,15.5,16s2.968-0.632,4.029-1.779l0.377-0.407c0,0,1.09,0.186,1.322,0.186C23.308,14,25,12.206,25,10z"/>
</svg>