<?xml version="1.0" encoding="utf-8"?>
<!-- Generator: Adobe Illustrator 22.0.1, SVG Export Plug-In . SVG Version: 6.00 Build 0)  -->
<svg version="1.1" id="designs" xmlns="http://www.w3.org/2000/svg" xmlns:xlink="http://www.w3.org/1999/xlink" x="0px" y="0px"
	 width="32px" height="32px" viewBox="0 0 32 32" style="enable-background:new 0 0 32 32;" xml:space="preserve">
<style type="text/css">
	.scienceandfiction_een{fill:#2B4099;}
	.scienceandfiction_twee{fill:#CC2954;}
</style>
<path class="scienceandfiction_twee" d="M18.33,18.8c0.82,0.86,1.04,2.12,0.67,3.2c0.01,0.01,0,0.01,0,0.02
	c-0.05,0.15-0.12,0.299-0.19,0.439H19c0.01,0.008,0,0.008,0,0.015v3.067h-1V22.46h-0.36l-0.03-0.03c0.77-0.81,0.77-2.13,0-2.94
	c-0.73-0.77-1.99-0.77-2.72,0l-0.73-0.69c0.39-0.41,0.88-0.68,1.4-0.8H15.5c0-0.83-0.67-1.5-1.5-1.5s-1.5,0.67-1.5,1.5h-1
	c0-1.38,1.12-2.5,2.5-2.5c1.36,0,2.46,1.08,2.5,2.43C17.17,17.99,17.84,18.27,18.33,18.8z M8.31,15.32C7.83,15.08,7.5,14.58,7.5,14
	c0-0.83,0.67-1.5,1.5-1.5v-1c-1.38,0-2.5,1.12-2.5,2.5c0,1.06,0.67,1.97,1.6,2.33c-0.01,0.05-0.01,0.11-0.01,0.16
	c0,0.22,0.03,0.44,0.07,0.65c-1.02,0.48-1.69,1.56-1.69,2.77c0,1.06,0.52,1.99,1.29,2.55h1.65V22c-1.07,0-1.94-0.95-1.94-2.09
	c0-0.94,0.59-1.76,1.43-1.98l0.54-0.14l-0.2-0.53c-0.1-0.24-0.15-0.5-0.15-0.77c0-1.14,0.84-2.07,1.91-2.07v-1
	C9.77,13.42,8.75,14.2,8.31,15.32z M21.27,14.12c-1.07,0-1.94-0.93-1.94-2.07c0-0.95,0.59-1.76,1.43-1.98l0.54-0.15L21.1,9.4
	c-0.1-0.25-0.15-0.51-0.15-0.78c0-1.14,0.87-2.07,1.94-2.07V6.07c-0.26-0.15-0.52-0.28-0.79-0.4c-1.24,0.36-2.15,1.55-2.15,2.95
	c0,0.22,0.03,0.44,0.07,0.66c-0.89,0.42-1.51,1.28-1.66,2.3c-1.07,0.29-1.86,1.26-1.86,2.42c0,1.38,1.12,2.5,2.5,2.5v-1
	c-0.83,0-1.5-0.67-1.5-1.5c0-0.61,0.37-1.14,0.89-1.36c0.26,1.41,1.45,2.48,2.88,2.48V14.12z M13.89,11.43
	c1.62,0,2.94-1.38,2.94-3.07h-1c0,1.14-0.87,2.07-1.94,2.07c-0.88,0-1.64-0.62-1.85-1.52L11.9,8.33l-0.55,0.24
	c-0.22,0.1-0.46,0.15-0.71,0.15c-1.07,0-1.93-0.93-1.93-2.07H8.42C8.19,6.81,7.96,6.97,7.75,7.13c0.22,1.46,1.43,2.59,2.89,2.59
	c0.2,0,0.4-0.02,0.59-0.07C11.69,10.72,12.72,11.43,13.89,11.43z M26.72,20.04c-0.3-0.89-0.96-1.58-1.81-1.89l0.03-0.03
	c0.35-0.43,0.56-0.98,0.56-1.58c0-1.38-1.12-2.5-2.5-2.5v1c0.83,0,1.5,0.67,1.5,1.5c0,0.7-0.48,1.29-1.13,1.45
	C23.34,18,23.09,18.06,23,18.1c-0.87,0.3-1.56,1.02-1.84,1.93C21.12,20.16,21,20.8,21,21h1c0-0.06,0.24-0.95,0.32-1.08
	c0.34-0.57,0.94-0.95,1.62-0.95c0.82,0,1.52,0.54,1.81,1.3c0.03,0.11,0.13,0.67,0.13,0.73h0.35c0.19-0.23,0.38-0.46,0.55-0.71
	C26.75,20.17,26.73,20.08,26.72,20.04z M20,25.541h1v-3.082h-1V25.541z M22,25.541h1v-3.082h-1V25.541z"/>
<path class="scienceandfiction_een" d="M16,4C8.85,4,3,8.491,3,16.091C3,19.891,5.925,23,9.5,23H16v1c0,1.105,0.895,2,2,2h3v3h3
	v-3.277c0.595-0.346,1-0.984,1-1.723v-1.499c2.729-1.188,4-4.389,4-8.137v0C29,7.714,22.256,4,16,4z M23,28h-1v-2h1V28z M24,24
	c0,0.551-0.449,1-1,1h-5c-0.551,0-1-0.449-1-1v-1h7V24z M22.5,22h-13C6.467,22,4,19.349,4,16.091C4,9.561,8.935,5,16,5
	c5.899,0,12,3.502,12,9.364C28,16.155,27.603,22,22.5,22z"/>
<path class="scienceandfiction_een" d="M16,4C8.85,4,3,8.491,3,16.091C3,19.891,5.925,23,9.5,23H16v1c0,1.105,0.895,2,2,2h3v3h3
	v-3.277c0.595-0.346,1-0.984,1-1.723v-1.499c2.729-1.188,4-4.389,4-8.137v0C29,7.714,22.256,4,16,4z M23,28h-1v-2h1V28z M24,24
	c0,0.551-0.449,1-1,1h-5c-0.551,0-1-0.449-1-1v-1h7V24z M22.5,22h-13C6.467,22,4,19.349,4,16.091C4,9.561,8.935,5,16,5
	c5.899,0,12,3.502,12,9.364C28,16.155,27.603,22,22.5,22z"/>
</svg>