<?xml version="1.0" encoding="utf-8"?>
<!-- Generator: Adobe Illustrator 22.0.1, SVG Export Plug-In . SVG Version: 6.00 Build 0)  -->
<svg version="1.1" id="designs" xmlns="http://www.w3.org/2000/svg" xmlns:xlink="http://www.w3.org/1999/xlink" x="0px" y="0px"
	 width="32px" height="32px" viewBox="0 0 32 32" style="enable-background:new 0 0 32 32;" xml:space="preserve">
<style type="text/css">
	.scienceandfiction_een{fill:#2B4099;}
	.scienceandfiction_twee{fill:#CC2954;}
</style>
<path class="scienceandfiction_een" d="M15,23h3l-1-3v-2h1l4-2v-1h-7V6h7V5l-4-2H9v2H6v1l3,2h2v5H9l-3,2v1h3v2h2v12h4V23z M10,4
	h7.764l2,1H10V4z M11,7H9.303l-1.5-1H11V7z M7.803,15l1.5-1H11v1H7.803z M14,25h-1v1h1v1h-1v1h1v1h-2V18h2v1h-1v1h1v1h-1v1h1v1h-1v1
	h1V25z M16.613,22H15v-4h1v2.162L16.613,22z M19.764,16l-2,1H10v-1H19.764z M14,15h-2V6h2v1h-1v1h1v1h-1v1h1v1h-1v1h1v1h-1v1h1V15z"
	/>
<path class="scienceandfiction_twee" d="M21.5,7c1.93,0,3.5,1.57,3.5,3.5S23.43,14,21.5,14S18,12.43,18,10.5S19.57,7,21.5,7z
	 M21.5,6C19.015,6,17,8.015,17,10.5s2.015,4.5,4.5,4.5s4.5-2.015,4.5-4.5S23.985,6,21.5,6L21.5,6z M21.5,9
	c0.827,0,1.5,0.673,1.5,1.5S22.327,12,21.5,12S20,11.327,20,10.5S20.673,9,21.5,9z M21.5,8C20.119,8,19,9.119,19,10.5
	s1.119,2.5,2.5,2.5s2.5-1.119,2.5-2.5S22.881,8,21.5,8L21.5,8z"/>
</svg>