<?xml version="1.0" encoding="utf-8"?>
<!-- Generator: Adobe Illustrator 22.0.1, SVG Export Plug-In . SVG Version: 6.00 Build 0)  -->
<svg version="1.1" id="designs" xmlns="http://www.w3.org/2000/svg" xmlns:xlink="http://www.w3.org/1999/xlink" x="0px" y="0px"
	 width="32px" height="32px" viewBox="0 0 32 32" style="enable-background:new 0 0 32 32;" xml:space="preserve">
<style type="text/css">
	.scienceandfiction_een{fill:#2B4099;}
	.scienceandfiction_twee{fill:#CC2954;}
</style>
<path class="scienceandfiction_een" d="M20,16c-0.552,0-1-0.448-1-1c0-0.552,0.448-1,1-1s1,0.448,1,1C21,15.552,20.552,16,20,16z
	 M11,15c0,0.552,0.448,1,1,1s1-0.448,1-1c0-0.552-0.448-1-1-1S11,14.448,11,15z M25.8,18.01C26.57,16.51,27,14.8,27,13
	c0,0-0.11-2.03-0.49-3.27C25.18,5.42,20.69,2,16,2C11.19,2,6.97,5.43,5.6,9.41C5.34,10.15,5,12.44,5,13c0,1.69,0.43,3.51,1.2,5.01
	C6.14,18,4,18,4,18v2c0,1.1,0.9,2,2,2c0.4,0,0.77-0.12,1.09-0.32c0.22,1.01,0.95,1.81,1.91,2.14c0,0,0.26,2.44,1,3.18
	c1.1,1.1,3.43,1.72,6.35,1.91c-0.08-0.22-0.11-0.47-0.06-0.72c0.02-0.1,0.05-0.19,0.09-0.27c-2.29-0.01-4.47-0.99-5.67-1.63
	c-0.43-0.23-0.69-2.31-0.78-3.21C9.1,22.96,7.88,21.88,8,21c0.07-0.54,0.46-1.4,0.46-1.4l-0.38-0.49C6.72,17.36,6,15.25,6,13
	c0-1.15,0.2-2.26,0.56-3.29c0.78-0.97,1.9-1.77,3.48-1.77C12.69,7.94,16,11,16,11s3.31-3.06,5.96-3.06c1.58,0,2.7,0.8,3.48,1.77
	C25.8,10.74,26,11.85,26,13c0,2.25-0.72,4.36-2.08,6.11l-0.38,0.49c0,0,0.38,0.8,0.46,1.4c0.13,0.91-1.04,1.92-1.93,2.08
	c-0.07,0.98-0.39,2.98-0.78,3.21c-0.75,0.44-1.68,1.02-2.9,1.32c0.24,0.26,0.36,0.61,0.31,0.97c1.35-0.3,2.54-0.82,3.3-1.58
	c0.74-0.74,1-3.18,1-3.18c0.96-0.33,1.69-1.13,1.91-2.14C25.23,21.88,25.6,22,26,22c1.1,0,2-0.9,2-2v-2C28,18,25.86,18,25.8,18.01z
	 M7,20c0,0.55-0.45,1-1,1s-1-0.45-1-1v-1h1C6.55,19,7,19.45,7,20z M21.96,6.94c-2.28,0-4.77,1.77-5.96,2.74
	c-1.19-0.97-3.68-2.74-5.96-2.74c-0.93,0-1.73,0.22-2.4,0.58C9.25,5.07,12.47,3,16,3c3.06,0,6.78,1.89,8.34,4.5
	C23.67,7.15,22.88,6.94,21.96,6.94z M27,20c0,0.55-0.45,1-1,1s-1-0.45-1-1s0.45-1,1-1h1V20z"/>
<path class="scienceandfiction_twee" d="M17.5,26.379l-1.061,1.061c-0.586,0.586-0.586,1.536,0,2.121
	C16.732,29.854,17.116,30,17.5,30s0.768-0.146,1.061-0.439c0.586-0.586,0.586-1.536,0-2.121L17.5,26.379z M17.854,28.854
	C17.726,28.981,17.577,29,17.5,29s-0.226-0.019-0.354-0.146c-0.195-0.195-0.195-0.512,0-0.707l0.354-0.354l0.354,0.354
	C18.048,28.341,18.048,28.659,17.854,28.854z M12,24h8v1h-1v1h-1v-1h-4v1h-1v-1h-1V24z M15,15c0-1.657-1.343-3-3-3H9v3
	c0,1.657,1.343,3,3,3S15,16.657,15,15z M10,15v-2h2c1.103,0,2,0.897,2,2s-0.897,2-2,2S10,16.103,10,15z M20,12c-1.657,0-3,1.343-3,3
	s1.343,3,3,3s3-1.343,3-3v-3H20z M22,15c0,1.103-0.897,2-2,2s-2-0.897-2-2s0.897-2,2-2h2V15z M14,20.349l2.084-3.126l0.832,0.555
	L15,20.651V21h2.5v1H14V20.349z"/>
</svg>