<?xml version="1.0" encoding="utf-8"?>
<!-- Generator: Adobe Illustrator 22.0.1, SVG Export Plug-In . SVG Version: 6.00 Build 0)  -->
<svg version="1.1" id="designs" xmlns="http://www.w3.org/2000/svg" xmlns:xlink="http://www.w3.org/1999/xlink" x="0px" y="0px"
	 width="32px" height="32px" viewBox="0 0 32 32" style="enable-background:new 0 0 32 32;" xml:space="preserve">
<style type="text/css">
	.scienceandfiction_een{fill:#2B4099;}
	.scienceandfiction_twee{fill:#CC2954;}
</style>
<path class="scienceandfiction_twee" d="M30,7v1h-1V7H30L30,7z M26.99,4H26v1h0.99V4L26.99,4z M3,2v1h1V2H3z M6,25H5v1h1V25L6,25z
	 M3.99,22H3v1h0.99V22L3.99,22z M9.99,3H9v1h0.99V3L9.99,3z M27.99,20H27v1h0.99V20L27.99,20z M28,26h-1v1h1V26L28,26z M24,26h-1v1
	h1V26L24,26z M5.99,29H5v1h0.99V29L5.99,29z M21.99,29H21v1h0.99V29L21.99,29z M3,7.5C3,7.776,3.224,8,3.5,8S4,7.776,4,7.5
	S3.776,7,3.5,7S3,7.224,3,7.5z M3.5,6C4.328,6,5,6.672,5,7.5S4.328,9,3.5,9S2,8.328,2,7.5S2.672,6,3.5,6L3.5,6z M20.99,2.5
	c0,0.276,0.224,0.5,0.5,0.5s0.5-0.224,0.5-0.5S21.766,2,21.49,2S20.99,2.224,20.99,2.5z M21.49,1C22.318,1,23,1.672,23,2.5
	S22.318,4,21.49,4S20,3.328,20,2.5S20.662,1,21.49,1L21.49,1z M11.99,29.5c0,0.276,0.224,0.5,0.5,0.5s0.5-0.224,0.5-0.5
	s-0.224-0.5-0.5-0.5S11.99,29.224,11.99,29.5z M12.49,28c0.828,0,1.51,0.672,1.51,1.5S13.318,31,12.49,31S11,30.328,11,29.5
	S11.662,28,12.49,28L12.49,28z"/>
<path class="scienceandfiction_een" d="M28,14h-2.127c-0.309-2.169-1.286-4.26-2.954-5.929C20.871,6.024,18.187,5,15.504,5
	c-2.684,0-5.367,1.024-7.415,3.071C6.421,9.74,5.444,11.831,5.135,14H3v1h2.041c-0.015,0.333-0.015,0.667,0.001,1H3v1h2.139
	c0.314,2.159,1.289,4.24,2.95,5.901c2.048,2.048,4.731,3.071,7.415,3.071c2.684,0,5.367-1.024,7.415-3.071
	c1.661-1.661,2.636-3.742,2.95-5.901H28v-1h-2.035c0.016-0.333,0.017-0.667,0.001-1H28V14z M8.796,8.778
	C10.588,6.987,12.97,6,15.504,6s4.916,0.987,6.708,2.778c1.471,1.471,2.347,3.309,2.648,5.222H6.148
	C6.449,12.088,7.325,10.249,8.796,8.778z M22.211,22.194c-1.792,1.792-4.174,2.778-6.708,2.778s-4.916-0.987-6.708-2.778
	C7.332,20.73,6.457,18.903,6.152,17h18.703C24.55,18.903,23.675,20.73,22.211,22.194z M24.961,16H6.046
	c-0.018-0.333-0.018-0.667-0.001-1h18.917C24.979,15.333,24.979,15.667,24.961,16z"/>
</svg>