<?xml version="1.0" encoding="utf-8"?>
<!-- Generator: Adobe Illustrator 22.0.1, SVG Export Plug-In . SVG Version: 6.00 Build 0)  -->
<svg version="1.1" id="designs" xmlns="http://www.w3.org/2000/svg" xmlns:xlink="http://www.w3.org/1999/xlink" x="0px" y="0px"
	 width="32px" height="32px" viewBox="0 0 32 32" style="enable-background:new 0 0 32 32;" xml:space="preserve">
<style type="text/css">
	.scienceandfiction_een{fill:#2B4099;}
	.scienceandfiction_twee{fill:#CC2954;}
</style>
<path class="scienceandfiction_twee" d="M7,17v7h17v-7H7z M12,23H8v-5h4V23z M18,23h-5v-5h5V23z M23,23h-4v-5h4V23z"/>
<path class="scienceandfiction_een" d="M24,13h-6v-2h-2V5.8L23,3V2l-5,2V2l-5,2v2L8,8v1l7-2.8V11h-2v2H7l-2,3v13l2,2h17l2-2V16
	L24,13z M14,5.523V4.677l3-1.2v0.846L14,5.523z M14,12h3v1h-3V12z M7.414,30l-1-1H8v1H7.414z M9,30v-1h1v1H9z M11,30v-1h1v1H11z
	 M13,30v-1h1v1H13z M15,30v-1h1v1H15z M17,30v-1h1v1H17z M19,30v-1h1v1H19z M21,30v-1h1v1H21z M23.586,30H23v-1h1.586L23.586,30z
	 M25,28H6V16.303L7.535,14h15.93L25,16.303V28z"/>
</svg>