<?xml version="1.0" encoding="utf-8"?>
<!-- Generator: Adobe Illustrator 22.0.1, SVG Export Plug-In . SVG Version: 6.00 Build 0)  -->
<svg version="1.1" id="designs" xmlns="http://www.w3.org/2000/svg" xmlns:xlink="http://www.w3.org/1999/xlink" x="0px" y="0px"
	 width="32px" height="32px" viewBox="0 0 32 32" style="enable-background:new 0 0 32 32;" xml:space="preserve">
<style type="text/css">
	.scienceandfiction_een{fill:#2B4099;}
	.scienceandfiction_twee{fill:#CC2954;}
</style>
<path class="scienceandfiction_twee" d="M15.5,17c3.584,0,6.5,2.916,6.5,6.5S19.084,30,15.5,30S9,27.084,9,23.5S11.916,17,15.5,17z
	 M15.5,16C11.358,16,8,19.358,8,23.5s3.358,7.5,7.5,7.5s7.5-3.358,7.5-7.5S19.642,16,15.5,16L15.5,16z M15.5,19
	c2.481,0,4.5,2.019,4.5,4.5S17.981,28,15.5,28S11,25.981,11,23.5S13.019,19,15.5,19z M15.5,18c-3.038,0-5.5,2.462-5.5,5.5
	s2.462,5.5,5.5,5.5s5.5-2.462,5.5-5.5S18.538,18,15.5,18L15.5,18z M13.5,24c0.276,0,0.5,0.224,0.5,0.5S13.776,25,13.5,25
	S13,24.776,13,24.5S13.224,24,13.5,24z M13.5,23c-0.828,0-1.5,0.672-1.5,1.5s0.672,1.5,1.5,1.5s1.5-0.672,1.5-1.5S14.328,23,13.5,23
	L13.5,23z"/>
<path class="scienceandfiction_een" d="M14,21v1h-1v-1H14L14,21z M17,2v2h1v9l-2,2v6h-1v-6l-2-2V4h1V2h-1V1h5v1H17z M17,5h-3v4h1v1
	h-1v2.586L15.414,14h0.172L17,12.586V12h-1v-1h1v-1h-1V9h1V8h-1V7h1V5z M16,2h-1v2h1V2z M15,9h1V8h-1V9z M15,13h1v-1h-1V13z M15,11
	h1v-1h-1V11z M17,22h-1v1h1V22L17,22z M19,23h-1v1h1V23L19,23z M17,26h-1v1h1V26L17,26z"/>
</svg>