<?xml version="1.0" encoding="utf-8"?>
<!-- Generator: Adobe Illustrator 22.0.1, SVG Export Plug-In . SVG Version: 6.00 Build 0)  -->
<svg version="1.1" id="designs" xmlns="http://www.w3.org/2000/svg" xmlns:xlink="http://www.w3.org/1999/xlink" x="0px" y="0px"
	 width="32px" height="32px" viewBox="0 0 32 32" style="enable-background:new 0 0 32 32;" xml:space="preserve">
<style type="text/css">
	.scienceandfiction_een{fill:#2B4099;}
	.scienceandfiction_twee{fill:#CC2954;}
</style>
<path class="scienceandfiction_twee" d="M20.5,13H23l1-1h4v-1h-4l-1-1h-2.5v1h2.086L23,11.414v0.171L22.586,12H20.5V13z M30,11v1h-1
	v-1H30z"/>
<path class="scienceandfiction_een" d="M14,13h1v1h-1V13z M14,12h1v-1h-1V12z M14,10h1V9h-1V10z M21,14h-3v1l-2,1h-2.403L14,18h0v1
	h-2.889l-0.459,2.066L12,24v2H5v-2l1.778-8H4v-1H3l-1-2v-3l1-2h1V7h12l2,1v1h3V14z M4,14V9H3.618L3,10.236v2.528L3.618,14H4z M6,24
	v1h5v-1H6z M10.753,16H7.802L7.58,17H9v1H7.358l-0.222,1H8.5v1H6.913l-0.222,1H8v1H6.469l-0.222,1h4.193l-0.837-1.822L10.753,16z
	 M12.577,16h-0.799l-0.444,2h1.646L12.577,16z M17,8.618L15.764,8H5v7h10.764L17,14.382V8.618z M20,10h-2v1h1v1h-1v1h2V10z"/>
</svg>