<?xml version="1.0" encoding="utf-8"?>
<!-- Generator: Adobe Illustrator 22.0.1, SVG Export Plug-In . SVG Version: 6.00 Build 0)  -->
<svg version="1.1" id="designs" xmlns="http://www.w3.org/2000/svg" xmlns:xlink="http://www.w3.org/1999/xlink" x="0px" y="0px"
	 width="32px" height="32px" viewBox="0 0 32 32" style="enable-background:new 0 0 32 32;" xml:space="preserve">
<style type="text/css">
	.scienceandfiction_twee{fill:#CC2954;}
	.scienceandfiction_een{fill:#2B4099;}
</style>
<path class="scienceandfiction_twee" d="M30,12v1h-5v-1H30L30,12z M24,12h-1v1h1V12L24,12z"/>
<path class="scienceandfiction_een" d="M21,10l-2,2v-1h-1v1l-1-1h-4h-1v-1h1V9h-1V8H7v0.667L5,8H2v3l-1,5v7c0,1.104,0.895,2,2,2
	s2-0.896,2-2v-5.803L5.875,20H13v-6h4l1-1v1h1v-1l2,2h1v-5H21z M11,9v2H8V9H11z M3,9h1.838L7,9.721v0.559L4.838,11H3V9z M4,18H3v1h1
	v1H3v1h1v1H3v1h1c0,0.552-0.449,1-1,1s-1-0.448-1-1v-6h2V18z M5.986,17H7v1h1v-1h1v2H6.611L5.986,17z M12,19h-2v-3H2.02l0.8-4H12V19
	z M17,12.586L16.586,13H13v-1h3.586L17,12.414V12.586z M21,13.586l-1-1v-0.171l1-1V13.586z M9,13h1v2H9V13z"/>
</svg>