<?xml version="1.0" encoding="utf-8"?>
<!-- Generator: Adobe Illustrator 22.0.1, SVG Export Plug-In . SVG Version: 6.00 Build 0)  -->
<svg version="1.1" id="designs" xmlns="http://www.w3.org/2000/svg" xmlns:xlink="http://www.w3.org/1999/xlink" x="0px" y="0px"
	 width="32px" height="32px" viewBox="0 0 32 32" style="enable-background:new 0 0 32 32;" xml:space="preserve">
<style type="text/css">
	.scienceandfiction_een{fill:#2B4099;}
	.scienceandfiction_twee{fill:#CC2954;}
</style>
<path class="scienceandfiction_twee" d="M12,23v4h-1v-4H12L12,23z M12,21h-1v1h1V21L12,21z M8,23H7v4h1V23L8,23z M8,21H7v1h1V21
	L8,21z M14,19h-1v4h1V19L14,19z M14,24h-1v1h1V24L14,24z M16,23h-1v4h1V23L16,23z M16,21h-1v1h1V21L16,21z M16,19h-1v1h1V19L16,19z
	 M10,19H9v4h1V19L10,19z M10,24H9v1h1V24L10,24z M10,17H9v1h1V17L10,17z M20,23h-1v4h1V23L20,23z M20,21h-1v1h1V21L20,21z M22,19h-1
	v4h1V19L22,19z M22,24h-1v1h1V24L22,24z M24,23h-1v4h1V23L24,23z M24,17h-1v3h1V17L24,17z M20,18h-1v2h1V18L20,18z M12,19h-1v1h1V19
	L12,19z M8,17H7v3h1V17L8,17z M24,21h-1v1h1V21L24,21z M18,19h-1v4h1V19L18,19z M14,26h-1v3h1V26L14,26z M10,26H9v3h1V26L10,26z
	 M22,26h-1v3h1V26L22,26z M18,26h-1v3h1V26L18,26z M18,24h-1v1h1V24L18,24z M10,19H9v0.01h1V19L10,19z M22,17h-1v1h1V17L22,17z"/>
<path class="scienceandfiction_een" d="M23.414,11h-1c0-1.103-0.897-2-2-2c-0.331,0-0.65,0.089-0.937,0.242
	c0.064,0.244,0.109,0.495,0.109,0.758h-1c0-1.103-0.897-2-2-2c-0.503,0-0.985,0.188-1.355,0.529l-0.678-0.735
	C15.108,7.282,15.831,7,16.586,7c1.036,0,1.951,0.528,2.49,1.329C19.489,8.122,19.942,8,20.414,8C22.068,8,23.414,9.346,23.414,11z
	 M26,11c0,2.76-2.138,5-4.773,5c-0.325,0-0.649-0.04-0.964-0.1C19.06,17.2,17.371,18,15.5,18s-3.56-0.8-4.763-2.1
	c-0.315,0.06-0.64,0.1-0.964,0.1C7.138,16,5,13.76,5,11s2.138-5,4.773-5c0.325,0,0.649,0.04,0.964,0.1C11.94,4.8,13.629,4,15.5,4
	s3.56,0.8,4.763,2.1c0.315-0.06,0.64-0.1,0.964-0.1C23.862,6,26,8.24,26,11z M25,11c0-2.206-1.692-4-3.773-4
	c-0.232,0-1.322,0.186-1.322,0.186l-0.377-0.407C18.468,5.632,17.037,5,15.5,5s-2.968,0.632-4.029,1.779l-0.377,0.407
	c0,0-1.09-0.186-1.322-0.186C7.692,7,6,8.794,6,11s1.692,4,3.773,4c0.232,0,1.322-0.186,1.322-0.186l0.377,0.407
	C12.532,16.368,13.963,17,15.5,17s2.968-0.632,4.029-1.779l0.377-0.407c0,0,1.09,0.186,1.322,0.186C23.308,15,25,13.206,25,11z"/>
</svg>