<?xml version="1.0" encoding="utf-8"?>
<!-- Generator: Adobe Illustrator 22.0.1, SVG Export Plug-In . SVG Version: 6.00 Build 0)  -->
<svg version="1.1" id="designs" xmlns="http://www.w3.org/2000/svg" xmlns:xlink="http://www.w3.org/1999/xlink" x="0px" y="0px"
	 width="32px" height="32px" viewBox="0 0 32 32" style="enable-background:new 0 0 32 32;" xml:space="preserve">
<style type="text/css">
	.scienceandfiction_twee{fill:#CC2954;}
	.scienceandfiction_een{fill:#2B4099;}
</style>
<path class="scienceandfiction_twee" d="M20,5v1h1v1h-1v1h1v1h-1v1h1v1h-1v1h1v1h-1v1h1v1h-1v1h1v1h-1h-1V4h1h1v1H20z"/>
<path class="scienceandfiction_een" d="M20,4V2l-3-1h-4c-1.1,0-2,0.9-2,2l0,15c0,1.1,0.9,2,2,2h1v2h-2v1h1v5.5
	c0,1.381,1.119,2.5,2.5,2.5s2.5-1.119,2.5-2.5V23h1v-1h-2v-2l3-1v-2h-6V4H20z M17,24h-2v1h2v1h-2v1h2v1h-2v1h1.908
	c-0.207,0.581-0.757,1-1.408,1c-0.827,0-1.5-0.673-1.5-1.5V23h3V24z M16,22h-1v-2h1V22z M19,18v0.279L16.838,19H13
	c-0.551,0-1-0.449-1-1l0-15c0-0.551,0.449-1,1-1h3.838L19,2.721V3h-6v15H19z"/>
</svg>