<?xml version="1.0" encoding="utf-8"?>
<!-- Generator: Adobe Illustrator 22.0.1, SVG Export Plug-In . SVG Version: 6.00 Build 0)  -->
<svg version="1.1" id="designs" xmlns="http://www.w3.org/2000/svg" xmlns:xlink="http://www.w3.org/1999/xlink" x="0px" y="0px"
	 width="32px" height="32px" viewBox="0 0 32 32" style="enable-background:new 0 0 32 32;" xml:space="preserve">
<style type="text/css">
	.scienceandfiction_een{fill:#2B4099;}
	.scienceandfiction_twee{fill:#CC2954;}
</style>
<path class="scienceandfiction_twee" d="M14.5,25h-5v-1h5V25z M18,23h-1v1h1V23L18,23z M19,24h-1v1h1V24L19,24z M21,24h-1v1h1V24
	L21,24z M28.5,24h-5v1h5V24z M28.5,18h-5v1h5V18z M28.5,16h-5v1h5V16z M28.5,14h-5v1h5V14z M28.5,12h-5v1h5V12z M28.5,10h-5v1h5V10z
	 M28.5,8h-5v1h5V8z M28.5,20h-5v1h5V20z M28.5,22h-5v1h5V22z M18,17h-1v1h1V17L18,17z M20,17h-1v1h1V17L20,17z M19,18h-1v1h1V18
	L19,18z M21,18h-1v1h1V18L21,18z M18,15h-1v1h1V15L18,15z M20,15h-1v1h1V15L20,15z M19,14h-1v1h1V14L19,14z M19,16h-1v1h1V16L19,16z
	 M21,14h-1v1h1V14L21,14z M21,16h-1v1h1V16L21,16z M18,19h-1v1h1V19L18,19z M20,19h-1v1h1V19L20,19z M19,20h-1v1h1V20L19,20z M21,20
	h-1v1h1V20L21,20z M4,19H3v1h1V19L4,19z M6,19H5v1h1V19L6,19z M5,20H4v1h1V20L5,20z M6,20v1h1v-1H6z M18,21h-1v1h1V21L18,21z M20,21
	h-1v1h1V21L20,21z M19,22h-1v1h1V22L19,22z M21,22h-1v1h1V22L21,22z M20,23h-1v1h1V23L20,23z M18,25h-1v1h1V25L18,25z M20,25h-1v1h1
	V25L20,25z M4,23H3v1h1V23L4,23z M5,24H4v1h1V24L5,24z M7,24H6v1h1V24L7,24z M4,22H3v-1h1l0,0V22z M6,21H5v1h1V21L6,21z M4,22v1h1
	v-1H4z M7,22H6v1h1V22L7,22z M6,23H5v1h1V23L6,23z M4,25H3v1h1V25L4,25z M6,25H5v1h1V25L6,25z"/>
<path class="scienceandfiction_een" d="M28,7v19h-4V7H28z M29,6h-6v21h6V6L29,6z M21,14v12h-4V14H21z M22,13h-6v14h6V13L22,13z
	 M14,23v3h-4v-3H14z M15,22H9v5h6V22L15,22z M7,19v7H3v-7H7z M8,18H2v9h6V18L8,18z"/>
</svg>