<?xml version="1.0" encoding="utf-8"?>
<!-- Generator: Adobe Illustrator 22.0.1, SVG Export Plug-In . SVG Version: 6.00 Build 0)  -->
<svg version="1.1" id="designs" xmlns="http://www.w3.org/2000/svg" xmlns:xlink="http://www.w3.org/1999/xlink" x="0px" y="0px"
	 width="32px" height="32px" viewBox="0 0 32 32" style="enable-background:new 0 0 32 32;" xml:space="preserve">
<style type="text/css">
	.scienceandfiction_een{fill:#2B4099;}
	.scienceandfiction_twee{fill:#CC2954;}
</style>
<path class="scienceandfiction_twee" d="M22.5,14c0.276,0,0.5,0.224,0.5,0.5S22.776,15,22.5,15S22,14.776,22,14.5S22.224,14,22.5,14
	z M22.5,13c-0.828,0-1.5,0.672-1.5,1.5s0.672,1.5,1.5,1.5s1.5-0.672,1.5-1.5S23.328,13,22.5,13L22.5,13z M21.5,8
	c-4.39,0-8.01,3.34-8.46,7.62c0.14-0.08,0.29-0.12,0.46-0.12h0.57C14.56,11.83,17.7,9,21.5,9c4.14,0,7.5,3.36,7.5,7.5
	S25.64,24,21.5,24c-3.8,0-6.94-2.83-7.43-6.5H13.5c-0.17,0-0.32-0.04-0.46-0.12C13.49,21.66,17.11,25,21.5,25
	c4.69,0,8.5-3.81,8.5-8.5S26.19,8,21.5,8z M21.5,9.89c-3.31,0-6.05,2.43-6.53,5.61h0.53c0.17,0,0.32,0.04,0.46,0.12
	c0.42-2.68,2.75-4.73,5.54-4.73c3.09,0,5.61,2.52,5.61,5.61c0,3.09-2.52,5.61-5.61,5.61c-2.79,0-5.12-2.05-5.54-4.73
	c-0.14,0.08-0.29,0.12-0.46,0.12h-0.53c0.48,3.18,3.22,5.61,6.53,5.61c3.65,0,6.61-2.96,6.61-6.61S25.15,9.89,21.5,9.89z"/>
<path class="scienceandfiction_een" d="M8.5,13h2c0.828,0,1.5-0.672,1.5-1.5S11.328,10,10.5,10h-2c-0.652,0-1.202,0.419-1.408,1H1v1
	h6.092C7.298,12.581,7.848,13,8.5,13z M8.5,11h2c0.276,0,0.5,0.224,0.5,0.5S10.776,12,10.5,12h-2C8.224,12,8,11.776,8,11.5
	S8.224,11,8.5,11z M2,7H1V6h1V7z M2,17H1v-1h1V17z M11.5,8h2C14.328,8,15,7.328,15,6.5S14.328,5,13.5,5h-2
	c-0.652,0-1.202,0.419-1.408,1H3v1h7.092C10.298,7.581,10.848,8,11.5,8z M11.5,6h2C13.776,6,14,6.224,14,6.5S13.776,7,13.5,7h-2
	C11.224,7,11,6.776,11,6.5S11.224,6,11.5,6z M1,26h1v1H1V26z M7.5,23h2c0.828,0,1.5-0.672,1.5-1.5S10.328,20,9.5,20h-2
	c-0.652,0-1.202,0.419-1.408,1H1v1h5.092C6.298,22.581,6.848,23,7.5,23z M7.5,21h2c0.276,0,0.5,0.224,0.5,0.5S9.776,22,9.5,22h-2
	C7.224,22,7,21.776,7,21.5S7.224,21,7.5,21z M15.5,15h-2c-0.652,0-1.202,0.419-1.408,1H3v1h9.092c0.207,0.581,0.756,1,1.408,1h2
	c0.828,0,1.5-0.672,1.5-1.5S16.328,15,15.5,15z M15.5,17h-2c-0.276,0-0.5-0.224-0.5-0.5s0.224-0.5,0.5-0.5h2
	c0.276,0,0.5,0.224,0.5,0.5S15.776,17,15.5,17z M14.5,25h-2c-0.652,0-1.202,0.419-1.408,1H3v1h8.092c0.207,0.581,0.756,1,1.408,1h2
	c0.828,0,1.5-0.672,1.5-1.5S15.328,25,14.5,25z M14.5,27h-2c-0.276,0-0.5-0.224-0.5-0.5s0.224-0.5,0.5-0.5h2
	c0.276,0,0.5,0.224,0.5,0.5S14.776,27,14.5,27z"/>
</svg>