<?xml version="1.0" encoding="utf-8"?>
<!-- Generator: Adobe Illustrator 22.0.1, SVG Export Plug-In . SVG Version: 6.00 Build 0)  -->
<svg version="1.1" id="designs" xmlns="http://www.w3.org/2000/svg" xmlns:xlink="http://www.w3.org/1999/xlink" x="0px" y="0px"
	 width="32px" height="32px" viewBox="0 0 32 32" style="enable-background:new 0 0 32 32;" xml:space="preserve">
<style type="text/css">
	.scienceandfiction_een{fill:#2B4099;}
	.scienceandfiction_twee{fill:#CC2954;}
</style>
<path class="scienceandfiction_een" d="M17,26V10.5c0-1.96-1.25-3.63-3-4.24V4.5C14,3.67,13.33,3,12.5,3S11,3.67,11,4.5v1.76
	C9.25,6.87,8,8.54,8,10.5V26H7v3h11v-3H17z M9,10.5c0-1.486,0.936-2.81,2.329-3.296L12,6.97V4.5C12,4.224,12.224,4,12.5,4
	S13,4.224,13,4.5v2.47l0.671,0.234C15.064,7.69,16,9.014,16,10.5V26H9V10.5z M17,28H8v-1h9V28z M13,12h1v-2h-1V12z"/>
<path class="scienceandfiction_twee" d="M22.5,9c-0.652,0-1.202,0.419-1.408,1H14v1h7.092c0.207,0.581,0.756,1,1.408,1
	c0.828,0,1.5-0.672,1.5-1.5S23.328,9,22.5,9z M22.5,11c-0.276,0-0.5-0.224-0.5-0.5s0.224-0.5,0.5-0.5s0.5,0.224,0.5,0.5
	S22.776,11,22.5,11z"/>
</svg>