<?xml version="1.0" encoding="utf-8"?>
<!-- Generator: Adobe Illustrator 22.0.1, SVG Export Plug-In . SVG Version: 6.00 Build 0)  -->
<svg version="1.1" id="designs" xmlns="http://www.w3.org/2000/svg" xmlns:xlink="http://www.w3.org/1999/xlink" x="0px" y="0px"
	 width="32px" height="32px" viewBox="0 0 32 32" style="enable-background:new 0 0 32 32;" xml:space="preserve">
<style type="text/css">
	.scienceandfiction_een{fill:#2B4099;}
	.scienceandfiction_twee{fill:#CC2954;}
</style>
<path class="scienceandfiction_een" d="M23.6,20.877c0.361,0.356,0.854,0.577,1.4,0.577c1.105,0,2-0.9,2-2.01v-2.01
	c0,0-2.234,0.015-2.348,0.035C25.509,15.871,26,14.021,26,12.053C26,5.944,21.304,1,15.5,1S5,5.944,5,12.053
	c0,1.968,0.491,3.818,1.348,5.417C6.234,17.45,4,17.435,4,17.435v2.01c0,1.11,0.895,2.01,2,2.01c0.546,0,1.039-0.221,1.4-0.577
	c0.201,2.012,0.462,4.348,0.917,5.099H7V25H4v4.995h3V28.99h3V31h1v-3.567c1.316,0.364,2.903,0.553,4.5,0.553s3.184-0.189,4.5-0.553
	V31h1v-2h3v1h3v-5h-3v1l-1.341,0C23.114,25.249,23.399,22.89,23.6,20.877z M26,18.44v1.005c0,0.554-0.449,1.005-1,1.005
	s-1-0.451-1-1.005s0.449-1.005,1-1.005H26z M6,20.449c-0.551,0-1-0.451-1-1.005V18.44h1c0.551,0,1,0.451,1,1.005
	S6.551,20.449,6,20.449z M6,29H5v-3h1V29z M10,28H7v-1h3V28z M9.172,25.422c-0.478-0.54-0.913-6.116-1.025-7.001
	C7.565,17.694,6,15.469,6,12.053c0-2.315,0.751-4.444,2-6.145V9h1V4.745c0.314-0.313,0.648-0.604,1-0.87V9h1V3.207
	c0.322-0.184,0.657-0.342,1-0.487V9h1V2.37c0.327-0.095,0.66-0.17,1-0.227V9h1V2.032c0.167-0.009,0.833-0.009,1,0V9h1V2.143
	c0.34,0.057,0.673,0.132,1,0.227V9h1V2.72c0.343,0.144,0.678,0.303,1,0.487V9h1V3.875c0.352,0.266,0.686,0.557,1,0.87V9h1V5.908
	c1.249,1.701,2,3.777,2,6.092c0,3.672-1.812,5.984-2.147,6.421c0,0-0.582,6.642-0.995,7.006c-1.17,1.032-3.358,1.554-6.358,1.554
	S9.799,26.13,9.172,25.422z M26,26v3h-1v-3H26z M24,28h-3v-1h3V28z"/>
<path class="scienceandfiction_twee" d="M16,12h-1v1h-1v-1h-1v1h-1v-1h-1v1h-1v-1H9v-1h1v-1h1v1h1v-1h1v1h1v-1h1v1h1V12z M23,15v1
	h-2c0,1.105-0.895,2-2,2s-2-0.895-2-2h-3c0,1.105-0.895,2-2,2s-2-0.895-2-2H8v-1H23z M13,16h-2c0,0.551,0.449,1,1,1S13,16.551,13,16
	z M20,16h-2c0,0.551,0.449,1,1,1S20,16.551,20,16z M13,25h5v-1h-5V25z M15.916,17.777l-0.832-0.555L13,20.349V22h3v-1h-2v-0.349
	L15.916,17.777z"/>
</svg>