<?xml version="1.0" encoding="utf-8"?>
<!-- Generator: Adobe Illustrator 22.0.1, SVG Export Plug-In . SVG Version: 6.00 Build 0)  -->
<svg version="1.1" id="designs" xmlns="http://www.w3.org/2000/svg" xmlns:xlink="http://www.w3.org/1999/xlink" x="0px" y="0px"
	 width="32px" height="32px" viewBox="0 0 32 32" style="enable-background:new 0 0 32 32;" xml:space="preserve">
<style type="text/css">
	.scienceandfiction_een{fill:#2B4099;}
	.scienceandfiction_twee{fill:#CC2954;}
</style>
<path class="scienceandfiction_twee" d="M7,6.5v11H6.001v-11h1H7z M8.001,6.5v11H9v-11H8.001z M10.001,6.5v11H11v-11H10.001z
	 M12.001,6.5v11H13v-11H12.001z M14,6.5v11h1v-11H14z M17,6.5h-1v11h1V6.5L17,6.5z M19,6.5h-1v11h1V6.5L19,6.5z"/>
<path class="scienceandfiction_een" d="M9.5,21C8.672,21,8,21.672,8,22.5S8.672,24,9.5,24s1.5-0.672,1.5-1.5S10.328,21,9.5,21z
	 M9.5,23C9.224,23,9,22.776,9,22.5S9.224,22,9.5,22s0.5,0.224,0.5,0.5S9.776,23,9.5,23z M21.5,21c-0.828,0-1.5,0.672-1.5,1.5
	s0.672,1.5,1.5,1.5s1.5-0.672,1.5-1.5S22.328,21,21.5,21z M21.5,23c-0.276,0-0.5-0.224-0.5-0.5s0.224-0.5,0.5-0.5s0.5,0.224,0.5,0.5
	S21.776,23,21.5,23z M25,10h-4V6H4v11H3v5h3.05C6.027,22.165,6,22.329,6,22.5C6,24.433,7.567,26,9.5,26s3.5-1.567,3.5-3.5
	c0-0.171-0.027-0.335-0.05-0.5h5.101C18.027,22.165,18,22.329,18,22.5c0,1.933,1.567,3.5,3.5,3.5s3.5-1.567,3.5-3.5
	c0-0.171-0.027-0.335-0.05-0.5H28v-6L25,10z M5,7h15v10H5V7z M9.5,25C8.122,25,7,23.879,7,22.5S8.122,20,9.5,20s2.5,1.121,2.5,2.5
	S10.878,25,9.5,25z M21.5,25c-1.378,0-2.5-1.121-2.5-2.5s1.122-2.5,2.5-2.5s2.5,1.121,2.5,2.5S22.878,25,21.5,25z M27,21h-2.35
	c-0.563-1.179-1.756-2-3.15-2s-2.587,0.821-3.15,2H12.65c-0.563-1.179-1.756-2-3.15-2s-2.587,0.821-3.15,2H4v-3h17v-7h1v6h3v2h2V21z
	 M27,18h-1v-1h1V18z M23,16v-5h1.434L27,16H23z"/>
</svg>