<?xml version="1.0" encoding="utf-8"?>
<!-- Generator: Adobe Illustrator 22.0.1, SVG Export Plug-In . SVG Version: 6.00 Build 0)  -->
<svg version="1.1" id="designs" xmlns="http://www.w3.org/2000/svg" xmlns:xlink="http://www.w3.org/1999/xlink" x="0px" y="0px"
	 width="32px" height="32px" viewBox="0 0 32 32" style="enable-background:new 0 0 32 32;" xml:space="preserve">
<style type="text/css">
	.scienceandfiction_een{fill:#2B4099;}
	.scienceandfiction_twee{fill:#CC2954;}
</style>
<path class="scienceandfiction_twee" d="M13,2l1,0.5V6h-1V2L13,2z M15,8h1V5l-1-1.5V8z M16,9h-1v1h1V9L16,9z M16,11h-1v3h1V11L16,11
	z M14,9h-1v3h1V9L14,9z M14,7h-1v1h1V7L14,7z M23,7h-1v1h1V7L23,7z M22,9h-1v1h1V9L22,9z M20,7h-1v1h1V7L20,7z M20,2h-1v1h1V2L20,2z
	 M21,5h-1v1h1V5L21,5z M23,3h-1v1h1V3L23,3z"/>
<path class="scienceandfiction_een" d="M18,11c0-4.5-2-10-8-10v18H9v1h1v7.5c0,1.381,1.119,2.5,2.5,2.5s2.5-1.119,2.5-2.5V20h1v-1
	h-0.941C16.581,17.152,18,14.788,18,11z M11,2.06c5.697,0.712,6,7.516,6,8.94c0,3.832-1.564,6.083-3.249,8H11V2.06z M14,22v1h-2v1h2
	v1h-2v1h2v1h-2v1h1.908c-0.207,0.581-0.757,1-1.408,1c-0.827,0-1.5-0.673-1.5-1.5V20h3v1h-2v1H14z"/>
</svg>