<?xml version="1.0" encoding="utf-8"?>
<!-- Generator: Adobe Illustrator 22.0.1, SVG Export Plug-In . SVG Version: 6.00 Build 0)  -->
<svg version="1.1" id="designs" xmlns="http://www.w3.org/2000/svg" xmlns:xlink="http://www.w3.org/1999/xlink" x="0px" y="0px"
	 width="32px" height="32px" viewBox="0 0 32 32" style="enable-background:new 0 0 32 32;" xml:space="preserve">
<style type="text/css">
	.scienceandfiction_een{fill:#2B4099;}
	.scienceandfiction_twee{fill:#CC2954;}
</style>
<path class="scienceandfiction_twee" d="M15,19.5V10l-0.671-0.204C12.936,9.31,12,7.986,12,6.5C12,4.57,13.57,3,15.5,3
	c0.148,0,0.356-0.018,0.5,0l-2.224,2.19L16.5,7.914l2.366-2.366C18.954,5.857,19,6.178,19,6.5c0,1.486-0.936,2.81-2.329,3.296L16,10
	v9.5h1v-8.76c1.75-0.61,3-2.28,3-4.24c0-0.98-0.32-1.9-0.86-2.64L16.5,6.5l-1.31-1.31l2.57-2.57C17.1,2.22,16.32,2,15.5,2l0,0
	C13.01,2,11,4.01,11,6.5c0,1.96,1.25,3.63,3,4.24v8.76H15z"/>
<path class="scienceandfiction_een" d="M19,19h-7v1h1v7.5c0,1.381,1.119,2.5,2.5,2.5s2.5-1.119,2.5-2.5V20h1V19z M17,21h-2v1h2v1h-2
	v1h2v1h-2v1h2v1h-2v1h1.908c-0.207,0.581-0.757,1-1.408,1c-0.827,0-1.5-0.673-1.5-1.5V20h3V21z"/>
</svg>