<?xml version="1.0" encoding="utf-8"?>
<!-- Generator: Adobe Illustrator 22.0.1, SVG Export Plug-In . SVG Version: 6.00 Build 0)  -->
<svg version="1.1" id="designs" xmlns="http://www.w3.org/2000/svg" xmlns:xlink="http://www.w3.org/1999/xlink" x="0px" y="0px"
	 width="32px" height="32px" viewBox="0 0 32 32" style="enable-background:new 0 0 32 32;" xml:space="preserve">
<style type="text/css">
	.scienceandfiction_een{fill:#2B4099;}
	.scienceandfiction_twee{fill:#CC2954;}
</style>
<path class="scienceandfiction_twee" d="M18.5,22v1h-5v-1H18.5L18.5,22z M18.5,24h-5v1h5V24L18.5,24z M18.5,26h-5v1h5V26L18.5,26z
	 M18,28h-4l0.5,1h3L18,28L18,28z"/>
<path class="scienceandfiction_een" d="M21,11h-1V6c0-2.344-1.781-4-4-4c-2.21,0-4,1.79-4,4v5h-1v3h2v13l2,4h2l2-4V14h2V11z M13,6
	c0-1.654,1.346-3,3-3c1.688,0,3,1.312,3,3c0,1.25,0,5,0,5h-6C13,11,13,7.25,13,6z M18,16h-1v1h1v1h-1v1h1v1h-1v1h1v5.764L16.382,30
	h-0.764L14,26.764V14h4V16z M20,13h-8v-1h8V13z"/>
</svg>