<?xml version="1.0" encoding="utf-8"?>
<!-- Generator: Adobe Illustrator 22.0.1, SVG Export Plug-In . SVG Version: 6.00 Build 0)  -->
<svg version="1.1" id="designs" xmlns="http://www.w3.org/2000/svg" xmlns:xlink="http://www.w3.org/1999/xlink" x="0px" y="0px"
	 width="32px" height="32px" viewBox="0 0 32 32" style="enable-background:new 0 0 32 32;" xml:space="preserve">
<style type="text/css">
	.scienceandfiction_een{fill:#2B4099;}
	.scienceandfiction_twee{fill:#CC2954;}
</style>
<path class="scienceandfiction_twee" d="M17,22v1h-3v-1H17L17,22z M15,20h-1v1h1V20L15,20z M17,20h-1v1h1V20L17,20z M11.988,15.995
	c-0.405,0-0.785,0.158-1.071,0.444l-0.522,0.548l0.561,0.566c0.283,0.283,0.663,0.441,1.068,0.441s0.785-0.158,1.071-0.444
	l0.517-0.543l-0.562-0.578C12.774,16.152,12.393,15.995,11.988,15.995z M11.988,14.995c0.644,0,1.287,0.246,1.779,0.737L15,17
	l-1.198,1.257c-0.491,0.491-1.135,0.737-1.779,0.737s-1.287-0.246-1.779-0.737L9,17l1.21-1.268
	C10.701,15.24,11.345,14.995,11.988,14.995L11.988,14.995z M18.988,15.995c-0.405,0-0.785,0.158-1.071,0.444l-0.522,0.548
	l0.561,0.566c0.283,0.283,0.663,0.441,1.068,0.441c0.405,0,0.785-0.158,1.071-0.444l0.517-0.543l-0.562-0.578
	C19.774,16.152,19.393,15.995,18.988,15.995z M18.988,14.995c0.644,0,1.287,0.246,1.779,0.737L22,17l-1.198,1.257
	c-0.491,0.491-1.135,0.737-1.779,0.737c-0.644,0-1.287-0.246-1.779-0.737L16,17l1.21-1.268
	C17.701,15.24,18.345,14.995,18.988,14.995L18.988,14.995z"/>
<path class="scienceandfiction_een" d="M29,11l-4,1l-3.509-0.702C20.763,10.405,19.916,9.649,19,9.085V8h-1v0.555
	c-0.329-0.143-0.662-0.261-1-0.35V7h-1v1.036C15.833,8.021,15.667,8,15.5,8c-0.167,0-0.333,0.021-0.5,0.035V7h-1v1.199
	c-0.339,0.086-0.672,0.199-1,0.338V8h-1v1.059c-0.937,0.569-1.797,1.337-2.532,2.247L6,12l-4-1l-2,1v1h1l4,4l2.017,0.672
	C7.013,17.782,7,17.891,7,18c0,2.031,1.212,4.073,4,6c1.652,1.142,2.299,2,4.5,2c2.076,0,2.848-1.079,4.5-2c2.051-1.142,4-3.969,4-6
	c0-0.109-0.013-0.218-0.017-0.328L26,17l4-4h1v-1L29,11z M5.54,16.126l-3.852-3.852l0.428-0.214l3.859,0.965l2.654-0.531
	C8.335,12.974,8.078,13.478,7.856,14H6v1h1.484c-0.17,0.539-0.295,1.091-0.375,1.649L5.54,16.126z M19.513,23.126
	c-0.184,0.103-0.348,0.207-0.513,0.311V22h-1v2.096C17.199,24.64,16.59,25,15.5,25c-1.178,0-1.758-0.265-2.5-0.785V22h-1v1.49
	c-0.143-0.104-0.272-0.202-0.431-0.312C8.931,21.355,8,19.572,8,18c0-4.281,3.969-9,7.5-9c3.469,0,7.5,4.812,7.5,8.985
	C23,19.438,21.219,22.176,19.513,23.126z M25.46,16.126l-1.571,0.524c-0.082-0.558-0.209-1.11-0.382-1.65H25v-1h-1.872
	c-0.226-0.524-0.488-1.031-0.788-1.512l2.684,0.537l3.859-0.965l0.428,0.214L25.46,16.126z M15.5,13.059l-2.224-1.112l0.447-0.895
	l1.776,0.888l1.776-0.888l0.447,0.895L15.5,13.059z M18.276,13.053l0.447,0.895L15.5,15.559l-3.224-1.612l0.447-0.895l2.776,1.388
	L18.276,13.053z"/>
</svg>