<?xml version="1.0" encoding="utf-8"?>
<!-- Generator: Adobe Illustrator 22.0.1, SVG Export Plug-In . SVG Version: 6.00 Build 0)  -->
<svg version="1.1" id="designs" xmlns="http://www.w3.org/2000/svg" xmlns:xlink="http://www.w3.org/1999/xlink" x="0px" y="0px"
	 width="32px" height="32px" viewBox="0 0 32 32" style="enable-background:new 0 0 32 32;" xml:space="preserve">
<style type="text/css">
	.scienceandfiction_een{fill:#2B4099;}
	.scienceandfiction_twee{fill:#CC2954;}
</style>
<path class="scienceandfiction_twee" d="M14,23.5h-1v-3l1-2V23.5z M18,20.5l-1-2v5h1V20.5z M16,17.5h-1v6h1V17.5z"/>
<path class="scienceandfiction_een" d="M23.707,11.083C23.335,6.832,20,4,15.5,4s-7.889,2.898-8.213,7.206L3,26l1,3h23.001
	L28,26.002L23.707,11.083z M22.736,11.57c-0.687-0.362-1.592-0.627-2.768-0.627c-1.155,0-2.513,0.456-2.945,0.774
	C17.007,11.725,17,5.112,17,5.112C21.811,5.792,22.629,9.714,22.736,11.57z M20.5,23c0.276,0,0.5,0.224,0.5,0.5S20.776,24,20.5,24
	S20,23.776,20,23.5S20.224,23,20.5,23z M17.5,18h3.88l-1.94,3.88L17.5,18z M18.882,23h-6.764l2.5-5h1.764L18.882,23z M11,23.5
	c0,0.276-0.224,0.5-0.5,0.5S10,23.776,10,23.5s0.224-0.5,0.5-0.5S11,23.224,11,23.5z M11.56,21.88L9.62,18h3.88L11.56,21.88z
	 M14,13.583c0,0.813-0.916,1.5-2,1.5s-2-0.687-2-1.5s0.916-1.5,2-1.5C13.224,12.083,14,12.788,14,13.583z M15,5.018
	c0.38-0.029,0.604-0.025,1,0.006V11.5c0,0.276-0.224,0.5-0.5,0.5S15,11.776,15,11.5V5.018z M14.946,14.067
	c-0.002,0-0.003,0-0.005,0.001c0.001-0.004,0.001-0.01,0.002-0.015C14.944,14.058,14.945,14.062,14.946,14.067z M16.057,14.054
	c0.001,0.005,0.001,0.01,0.002,0.015c-0.002,0-0.003,0-0.005-0.001C16.055,14.062,16.056,14.058,16.057,14.054z M15,17v-1.542
	c0-0.276,0.224-0.5,0.5-0.5s0.5,0.224,0.5,0.5V17H15z M19,12.083c1.084,0,2,0.687,2,1.5s-0.916,1.5-2,1.5s-2-0.687-2-1.5
	C17,12.89,17.776,12.083,19,12.083z M14,5.107c0,0-0.007,6.618-0.023,6.61c-0.432-0.318-1.665-0.774-2.945-0.774
	c-1.178,0-2.083,0.266-2.771,0.629C8.433,7.941,10.525,5.614,14,5.107z M26.281,28H4.685L4,26l3.816-12.855
	c0.353-0.365,0.908-0.753,1.726-0.989C9.202,12.561,9,13.052,9,13.583c0,1.38,1.343,2.5,3,2.5c0.773,0,1.471-0.25,2.003-0.651
	c0,0.009-0.003,0.017-0.003,0.026V17H8l2.5,5C9.672,22,9,22.671,9,23.5S9.672,25,10.5,25c0.652,0,1.202-0.419,1.408-1h7.184
	c0.207,0.581,0.756,1,1.408,1c0.828,0,1.5-0.671,1.5-1.5S21.328,22,20.5,22l2.5-5h-6v-1.542c0-0.009-0.002-0.017-0.003-0.026
	c0.532,0.4,1.229,0.651,2.003,0.651c1.657,0,3-1.12,3-2.5c0-0.532-0.202-1.022-0.542-1.428c0.843,0.243,1.408,0.649,1.76,1.023
	l3.733,12.793L26.281,28z"/>
</svg>