<?xml version="1.0" encoding="utf-8"?>
<!-- Generator: Adobe Illustrator 22.0.1, SVG Export Plug-In . SVG Version: 6.00 Build 0)  -->
<svg version="1.1" id="designs" xmlns="http://www.w3.org/2000/svg" xmlns:xlink="http://www.w3.org/1999/xlink" x="0px" y="0px"
	 width="32px" height="32px" viewBox="0 0 32 32" style="enable-background:new 0 0 32 32;" xml:space="preserve">
<style type="text/css">
	.scienceandfiction_een{fill:#2B4099;}
	.scienceandfiction_twee{fill:#CC2954;}
</style>
<path class="scienceandfiction_een" d="M15,15h-3v3h3V15z M14,17h-1v-1h1V17z M10,15h1v3h-1V15z M11,13l-2-2H5v1H1v9h4v1h4l2-2h6v-7
	H11z M2,20v-7h3v7H2z M7,21H6v-9h1V21z M16,19h-5.414l-2,2H8v-9h0.586l2,2H16V19z"/>
<path class="scienceandfiction_twee" d="M31,12h-4v-1h-7v3h1v5h-1v3h7v-1h4V12z M22,14h1v5h-1V14z M21,21v-1h3v-7h-3v-1h5v9H21z
	 M30,20h-3v-7h3V20z"/>
</svg>