<?xml version="1.0" encoding="utf-8"?>
<!-- Generator: Adobe Illustrator 22.0.1, SVG Export Plug-In . SVG Version: 6.00 Build 0)  -->
<svg version="1.1" id="designs" xmlns="http://www.w3.org/2000/svg" xmlns:xlink="http://www.w3.org/1999/xlink" x="0px" y="0px"
	 width="32px" height="32px" viewBox="0 0 32 32" style="enable-background:new 0 0 32 32;" xml:space="preserve">
<style type="text/css">
	.scienceandfiction_een{fill:#2B4099;}
	.scienceandfiction_twee{fill:#CC2954;}
</style>
<path class="scienceandfiction_twee" d="M15,6H8.84c0.51-0.37,1.04-0.71,1.6-1H15V6z M17,5h-1v1h1V5z M9,11.5
	c0-0.828,0.672-1.5,1.5-1.5s1.5,0.672,1.5,1.5S11.328,13,10.5,13S9,12.328,9,11.5z M10,11.5c0,0.276,0.224,0.5,0.5,0.5
	s0.5-0.224,0.5-0.5S10.776,11,10.5,11S10,11.224,10,11.5z M19.5,5H18v1h1.5V5z M21.5,9H20v1h1.5V9z M15,20h1v-1h-1V20z M19,9h-4v1h4
	V9z M21.5,19H17v1h4.5V19z M23.5,13H17v1h6.5V13z M16,13h-1v1h1V13z M13,28h1v-1h-1V28z M15,28h4.5v-1H15V28z M18,23h-6v1h6V23z
	 M19,24h1v-1h-1V24z M10.44,28H12v-1H8.84C9.35,27.37,9.88,27.71,10.44,28z M21,23v1h3.5v-1H21z M7,11.5C7,9.567,8.567,8,10.5,8
	S14,9.567,14,11.5S12.433,15,10.5,15S7,13.433,7,11.5z M8,11.5c0,1.379,1.122,2.5,2.5,2.5s2.5-1.121,2.5-2.5S11.878,9,10.5,9
	S8,10.121,8,11.5z M11,24v-1h-1v1H11z M14,19H8v1h6V19z M9,23H5.25c0.19,0.34,0.41,0.68,0.64,1H9V23z M3.98,20H5v-1H3.74
	C3.81,19.34,3.89,19.67,3.98,20z M7,19H6v1h1V19z"/>
<path class="scienceandfiction_een" d="M28,19v-3h-4v-3h3V9h-5V7h-2V3.46C18.88,3.16,17.71,3,16.5,3C9.04,3,3,9.04,3,16.5
	S9.04,30,16.5,30c1.21,0,2.38-0.16,3.5-0.46V26h5v-6h-3v-1H28z M16.5,4c0.841,0,1.679,0.084,2.5,0.251V8h2v2h5v2h-3v4v0.012L4,16
	C4.272,9.346,9.78,4,16.5,4z M24,21v4h-5v3.749C18.179,28.916,17.341,29,16.5,29C9.772,29,4.284,23.653,4.025,16.988L27,17v1h-6v3
	H24z"/>
</svg>