<?xml version="1.0" encoding="utf-8"?>
<!-- Generator: Adobe Illustrator 22.0.1, SVG Export Plug-In . SVG Version: 6.00 Build 0)  -->
<svg version="1.1" id="designs" xmlns="http://www.w3.org/2000/svg" xmlns:xlink="http://www.w3.org/1999/xlink" x="0px" y="0px"
	 width="32px" height="32px" viewBox="0 0 32 32" style="enable-background:new 0 0 32 32;" xml:space="preserve">
<style type="text/css">
	.scienceandfiction_een{fill:#2B4099;}
	.scienceandfiction_twee{fill:#CC2954;}
</style>
<path class="scienceandfiction_twee" d="M27,7V6h-1v0.991h-1V6h-1v0.991h-1V6h1V5h1v1h1V4.991h-1V4h1V2.991h-1V2.004h-1v0.987h-1
	V2.004h-1V1h-1v1.004h-1V1h-1v1h-1v1h1v1h1v0.987L17,4.99V3c-0.17-0.11-1.82-0.91-2-1l-1-0.01V5h-3v3h3v3h-3v3h3v3h1
	c0.18-0.09,1.84-0.9,2-1v-2h3v0.987h-1V16h1v-1h1v-1h1v-1h1v1h1v0.987h-1V14h-1v1h1v1h1v-1h1v-1h1v-1.013h-1V12h1v-1h1V9.991h-1V9
	h-1v0.991h-1V9h1V8h1v1h1V7.987h-1V7H27z M13,7h-1V5.987h1V7z M13,13h-1v-1.013h1V13z M20,7h1v0.987h-1V7z M21,8h1v0.991h-1V8z
	 M21,6.987V6h1v0.987H21z M22,10v0.987h-1V10H22z M22,9h1v0.991h-1V9z M22,7.987V7h1v0.987H22z M23,5.991h-1V5h1V5.991z M24,3h1
	v0.991h-1V3z M23,3v1h1v0.991h-1V4h-1v0.991h-1V4h1V3H23z M21,2.013h1v0.973h-1V2.013z M19,2.987V2.013h1v0.973H19z M20,3h1v0.987
	h-1V3z M20,5h1v0.991h-1V5z M18,5.99h1V6v1h-1V5.99z M15,2.99h1V4h-1V2.99z M14,5h3v3h-3V5z M16,8.987V10h-1V8.987H16z M16,16h-1
	v-1.01h1V16z M17,14h-3v-3h3V14z M17,8h3l0.5,1v1L20,11h-3V8z M21,11v0.987h-1V11H21z M19,13h-1v-1.01h1v0.997V13z M21,13.987h-1
	V13.49V13h1V13.987z M22,12.987h-1V12h1V12.987z M22,11.987V11h1v0.987H22z M23,12.987V12h1v0.987H23z M25,13.987h-1V13h1V13.987z
	 M25,10h1v0.987h-1V10z M25,11v0.987h-1V11H25z M24,10.991h-1V10h1V10.991z M24,8.991h-1V8h1V8.991z M25,7.987h-1V7h1V7.987z M21,15
	h1v1h-1V15z"/>
<path class="scienceandfiction_een" d="M21,9.5C21,4.806,17.194,1,12.5,1S4,4.806,4,9.5c0,4.182,3.022,7.65,7,8.36V20H9v1h1v7.5
	c0,1.381,1.119,2.5,2.5,2.5s2.5-1.119,2.5-2.5V21h1v-1h-2v-2.14C17.978,17.15,21,13.682,21,9.5z M5,9.5C5,5.365,8.365,2,12.5,2
	S20,5.365,20,9.5S16.635,17,12.5,17S5,13.635,5,9.5z M14,22h-2v1h2v1h-2v1h2v1h-2v1h2v1h-2v1h1.908c-0.207,0.581-0.757,1-1.408,1
	c-0.827,0-1.5-0.673-1.5-1.5V21h3V22z M13,20h-1v-2.025C12.166,17.984,12.331,18,12.5,18s0.334-0.016,0.5-0.025V20z"/>
</svg>