<?xml version="1.0" encoding="utf-8"?>
<!-- Generator: Adobe Illustrator 22.0.1, SVG Export Plug-In . SVG Version: 6.00 Build 0)  -->
<svg version="1.1" id="designs" xmlns="http://www.w3.org/2000/svg" xmlns:xlink="http://www.w3.org/1999/xlink" x="0px" y="0px"
	 width="32px" height="32px" viewBox="0 0 32 32" style="enable-background:new 0 0 32 32;" xml:space="preserve">
<style type="text/css">
	.scienceandfiction_een{fill:#2B4099;}
	.scienceandfiction_twee{fill:#CC2954;}
</style>
<g>
	<g>
		<path class="scienceandfiction_een" d="M21,12h-1v-1h-1v1h-7v-1h-1v-1h1V9h-1V8h1V7h-1V6h1V5.5c0-0.529-0.108-1.029-0.276-1.5H14
			v1h1V2h-1v1h-2.76C10.433,1.794,9.06,1,7.5,1C5.015,1,3,3.015,3,5.5V6h1v1H3v1h1v1H3v1h1v1H3v17H2v3h17v-3h-2.333L12,14v-1h7v1h1
			v-1h1V12z M7.5,2c1.76,0,3.221,1.306,3.464,3H4.036C4.279,3.306,5.74,2,7.5,2z M5,6h5v1H5V6z M5,8h5v1H5V8z M5,10h5v1H5V10z
			 M18,29v1H3v-1H18z M15.613,28H4V15h7.279L15.613,28z M11,14h-1v-1H9v1H8v-1H7v1H6v-1H5v1H4v-2h7V14z"/>
		<rect x="7" y="3" class="scienceandfiction_een" width="1" height="1"/>
	</g>
	<g>
		<path class="scienceandfiction_een" d="M21,12h-1v-1h-1v1h-7v-1h-1v-1h1V9h-1V8h1V7h-1V6h1V5.5c0-0.529-0.108-1.029-0.276-1.5H14
			v1h1V2h-1v1h-2.76C10.433,1.794,9.06,1,7.5,1C5.015,1,3,3.015,3,5.5V6h1v1H3v1h1v1H3v1h1v1H3v17H2v3h17v-3h-2.333L12,14v-1h7v1h1
			v-1h1V12z M7.5,2c1.76,0,3.221,1.306,3.464,3H4.036C4.279,3.306,5.74,2,7.5,2z M5,6h5v1H5V6z M5,8h5v1H5V8z M5,10h5v1H5V10z
			 M18,29v1H3v-1H18z M15.613,28H4V15h7.279L15.613,28z M11,14h-1v-1H9v1H8v-1H7v1H6v-1H5v1H4v-2h7V14z"/>
		<rect x="7" y="3" class="scienceandfiction_een" width="1" height="1"/>
	</g>
</g>
<path class="scienceandfiction_twee" d="M30,12v1h-6v-1H30L30,12z M23,12h-1v1h1V12L23,12z M6,16H5v1h1V16L6,16z M6,18H5v1h1V18
	L6,18z M6,20H5v1h1V20L6,20z M6,22H5v1h1V22L6,22z M6,24H5v1h1V24L6,24z M6,26H5v1h1V26L6,26z M8,16H7v1h1V16L8,16z M8,18H7v1h1V18
	L8,18z M8,20H7v1h1V20L8,20z M8,22H7v1h1V22L8,22z M8,24H7v1h1V24L8,24z M8,26H7v1h1V26L8,26z M10,16H9v1h1V16L10,16z M10,18H9v1h1
	V18L10,18z M10,20H9v1h1V20L10,20z M10,22H9v1h1V22L10,22z M10,24H9v1h1V24L10,24z M10,26H9v1h1V26L10,26z M12,20h-1v1h1V20L12,20z
	 M12,22h-1v1h1V22L12,22z M12,24h-1v1h1V24L12,24z M12,26h-1v1h1V26L12,26z M14,26h-1v1h1V26L14,26z"/>
</svg>