<?xml version="1.0" encoding="utf-8"?>
<!-- Generator: Adobe Illustrator 22.0.1, SVG Export Plug-In . SVG Version: 6.00 Build 0)  -->
<svg version="1.1" id="designs" xmlns="http://www.w3.org/2000/svg" xmlns:xlink="http://www.w3.org/1999/xlink" x="0px" y="0px"
	 width="32px" height="32px" viewBox="0 0 32 32" style="enable-background:new 0 0 32 32;" xml:space="preserve">
<style type="text/css">
	.scienceandfiction_een{fill:#2B4099;}
	.scienceandfiction_twee{fill:#CC2954;}
</style>
<path class="scienceandfiction_een" d="M22.4,17c-0.03,0.34-0.1,0.67-0.2,1H24v11H6V18h1.76c-0.1-0.33-0.16-0.66-0.2-1H3v13h26V17
	H22.4z M4,29V18h1v11H4z M28,29h-3V18h3V29z"/>
<path class="scienceandfiction_twee" d="M22.425,9.99l-1.109,1.11c-0.203-0.261-0.418-0.516-0.658-0.756l1.061-1.061L21.01,8.575
	l-1.109,1.109c-3.138-2.441-7.674-2.226-10.558,0.658c-2.884,2.884-3.099,7.419-0.658,10.558L7.575,22.01l0.707,0.707l1.061-1.061
	c0.24,0.24,0.495,0.455,0.756,0.658L8.99,23.425l0.707,0.707l1.246-1.246c3.067,1.81,7.079,1.406,9.714-1.229
	c2.635-2.635,3.038-6.646,1.229-9.714l1.246-1.246L22.425,9.99z M10.05,11.05c2.489-2.489,6.396-2.7,9.136-0.651L9.4,20.186
	C7.35,17.447,7.562,13.539,10.05,11.05z M10.05,20.95l9.899-9.899c0.241,0.241,0.452,0.499,0.651,0.764L10.814,21.6
	C10.549,21.402,10.291,21.19,10.05,20.95z M19.95,20.95c-2.238,2.238-5.625,2.637-8.277,1.206l9.483-9.483
	C22.587,15.325,22.188,18.712,19.95,20.95z M27.5,8C27.776,8,28,8.224,28,8.5S27.776,9,27.5,9S27,8.776,27,8.5S27.224,8,27.5,8z
	 M27.5,7C26.672,7,26,7.672,26,8.5s0.672,1.5,1.5,1.5S29,9.328,29,8.5S28.328,7,27.5,7L27.5,7z M18.5,26c0.276,0,0.5,0.224,0.5,0.5
	S18.776,27,18.5,27S18,26.776,18,26.5S18.224,26,18.5,26z M18.5,25c-0.828,0-1.5,0.672-1.5,1.5s0.672,1.5,1.5,1.5s1.5-0.672,1.5-1.5
	S19.328,25,18.5,25L18.5,25z M15.5,3C15.776,3,16,3.224,16,3.5S15.776,4,15.5,4S15,3.776,15,3.5S15.224,3,15.5,3z M15.5,2
	C14.672,2,14,2.672,14,3.5S14.672,5,15.5,5S17,4.328,17,3.5S16.328,2,15.5,2L15.5,2z M3.5,6C3.776,6,4,6.224,4,6.5S3.776,7,3.5,7
	S3,6.776,3,6.5S3.224,6,3.5,6z M3.5,5C2.672,5,2,5.672,2,6.5S2.672,8,3.5,8S5,7.328,5,6.5S4.328,5,3.5,5L3.5,5z M24,4h-1V3h1V4z
	 M21,6h-1V5h1V6z M10,3H9V2h1V3z M8,9H7V8h1V9z M30,16h-1v-1h1V16z M27,13h-1v-1h1V13z M4,15H3v-1h1V15z M10,28H9v-1h1V28z M8,27H7
	v-1h1V27z M22,25h-1v-1h1V25z M27,25h-1v-3h1V25z"/>
</svg>