<?xml version="1.0" encoding="utf-8"?>
<!-- Generator: Adobe Illustrator 22.0.1, SVG Export Plug-In . SVG Version: 6.00 Build 0)  -->
<svg version="1.1" id="designs" xmlns="http://www.w3.org/2000/svg" xmlns:xlink="http://www.w3.org/1999/xlink" x="0px" y="0px"
	 width="32px" height="32px" viewBox="0 0 32 32" style="enable-background:new 0 0 32 32;" xml:space="preserve">
<style type="text/css">
	.scienceandfiction_een{fill:#2B4099;}
	.scienceandfiction_twee{fill:#CC2954;}
</style>
<path class="scienceandfiction_twee" d="M13.5,9H6.438V8H13.5V9z M6.438,10v1H13.5v-1H6.438z M22,20.5h-1v7.062h1V20.5z M6.5,23v1
	H10l0,3.5h1l0-4.5H6.5z"/>
<path class="scienceandfiction_een" d="M13,6v15h9c1.654,0,3,1.346,3,3s-1.346,3-3,3H10c-1.654,0-3-1.346-3-3V6H13z M14,5H6v19
	c0,2.209,1.791,4,4,4h12c2.209,0,4-1.791,4-4s-1.791-4-4-4h-8V5L14,5z"/>
</svg>