<?xml version="1.0" encoding="utf-8"?>
<!-- Generator: Adobe Illustrator 22.0.1, SVG Export Plug-In . SVG Version: 6.00 Build 0)  -->
<svg version="1.1" id="designs" xmlns="http://www.w3.org/2000/svg" xmlns:xlink="http://www.w3.org/1999/xlink" x="0px" y="0px"
	 width="32px" height="32px" viewBox="0 0 32 32" style="enable-background:new 0 0 32 32;" xml:space="preserve">
<style type="text/css">
	.scienceandfiction_een{fill:#2B4099;}
	.scienceandfiction_twee{fill:#CC2954;}
</style>
<path class="scienceandfiction_een" d="M21,4v3H11V4H21z M22,3H10v5h12V3L22,3z"/>
<path class="scienceandfiction_twee" d="M13,27h3v-3h-3V27z M14,25h1v1h-1V25z M19,30v-3h-3v3H19z M17,28h1v1h-1V28z M16,9l-6,7h3v6
	h3v2h3v-8h3L16,9z M18,15v8h-1v-2h-3v-6h-2l4.034-4.424L20,15H18z"/>
</svg>