<?xml version="1.0" encoding="utf-8"?>
<!-- Generator: Adobe Illustrator 22.0.1, SVG Export Plug-In . SVG Version: 6.00 Build 0)  -->
<svg version="1.1" id="designs" xmlns="http://www.w3.org/2000/svg" xmlns:xlink="http://www.w3.org/1999/xlink" x="0px" y="0px"
	 width="32px" height="32px" viewBox="0 0 32 32" style="enable-background:new 0 0 32 32;" xml:space="preserve">
<style type="text/css">
	.scienceandfiction_een{fill:#2B4099;}
	.scienceandfiction_twee{fill:#CC2954;}
</style>
<path class="scienceandfiction_een" d="M18,22V9l-2-2V1h-1v6l-2,2v13h-1v1h2v7h-1v1h5v-1h-1v-7h2v-1H18z M14,9.414L15.414,8h0.172
	L17,9.414V20h-3V9.414z M16,30h-1v-7h1V30z M14,22v-1h3v1H14z"/>
<path class="scienceandfiction_twee" d="M15,18v1h-1v-1H15L15,18z M15,10h-1v1h1V10L15,10z M17,11h-1v1h1V11L17,11z M16,12h-1v1h1
	V12L16,12z M18,1h-1v1h1V1L18,1z M19,2h-1v1h1V2L19,2z M15,14h-1v1h1V14L15,14z M17,14h-1v1h1V14L17,14z M16,15h-1v1h1V15L16,15z
	 M15,16h-1v1h1V16L15,16z M17,16h-1v1h1V16L17,16z M16,17h-1v1h1V17L16,17z M16,19h-1v1h1V19L16,19z M17,18h-1v1h1V18L17,18z"/>
</svg>