<?xml version="1.0" encoding="utf-8"?>
<!-- Generator: Adobe Illustrator 22.0.1, SVG Export Plug-In . SVG Version: 6.00 Build 0)  -->
<svg version="1.1" id="designs" xmlns="http://www.w3.org/2000/svg" xmlns:xlink="http://www.w3.org/1999/xlink" x="0px" y="0px"
	 width="32px" height="32px" viewBox="0 0 32 32" style="enable-background:new 0 0 32 32;" xml:space="preserve">
<style type="text/css">
	.scienceandfiction_een{fill:#2B4099;}
	.scienceandfiction_twee{fill:#CC2954;}
</style>
<path class="scienceandfiction_twee" d="M19.5,12l1,1h-10l1-1H19.5z M21.5,14l1,1h-14l1-1H21.5z M23.5,16v1h-16v-1H23H23.5z M7.5,18
	v1h5.042v-1H7.5z M23.5,18h-4.958v1H23.5V18z M7.5,20v1h5.25l-0.25-1H7.5z M18.5,20l-0.292,1H23.5v-1H18.5z M7.5,22v1h16v-1H17
	c0,0-0.5,0.5-1.5,0.5S14,22,14,22H7.5z M7.5,24v1h16v-1H7.5z M23.5,26h-16v1h16V26z M23.5,28h-16v1h16V28z M19.5,10h-8v1h8V10
	L19.5,10z M19.5,8h-8v1h8V8L19.5,8z"/>
<path class="scienceandfiction_een" d="M27.5,12H24v1h3.5c0.827,0,1.5,0.673,1.5,1.5S28.327,16,27.5,16H24l-4-4V5.5
	C20,3.015,17.985,1,15.5,1S11,3.015,11,5.5V12l-4,4H3.5C2.673,16,2,15.327,2,14.5S2.673,13,3.5,13H7v-1H3.5
	C2.122,12,1,13.121,1,14.5S2.122,17,3.5,17H7v14h17V17h3.5c1.379,0,2.5-1.121,2.5-2.5S28.879,12,27.5,12z M12,5.5
	C12,3.57,13.57,2,15.5,2S19,3.57,19,5.5V6h-7V5.5z M23,30H8V16.414l4-4V7h7v5.414l4,4V30z M12,19.5c0,1.933,1.567,3.5,3.5,3.5
	s3.5-1.567,3.5-3.5V17h-7V19.5z M13,18h5v1.5c0,1.378-1.122,2.5-2.5,2.5S13,20.878,13,19.5V18z"/>
</svg>