<?xml version="1.0" encoding="utf-8"?>
<!-- Generator: Adobe Illustrator 22.0.1, SVG Export Plug-In . SVG Version: 6.00 Build 0)  -->
<svg version="1.1" id="designs" xmlns="http://www.w3.org/2000/svg" xmlns:xlink="http://www.w3.org/1999/xlink" x="0px" y="0px"
	 width="32px" height="32px" viewBox="0 0 32 32" style="enable-background:new 0 0 32 32;" xml:space="preserve">
<style type="text/css">
	.scienceandfiction_een{fill:#2B4099;}
	.scienceandfiction_twee{fill:#CC2954;}
</style>
<path class="scienceandfiction_twee" d="M10,15v1H9v-1H10L10,15z M11.7,15H11v1h0.5L11.7,15z M8,19H7v1h1V19L8,19z M6,19H5.5l-0.2,1
	H6V19L6,19z M9,20H8v1h1V20L9,20z M9,16H8v1h1l0,0V16z M6.1,16H7v1H5.9L6.1,16z M8,17H7v1h1V17L8,17z M9,18H8v1h1V18L9,18z M7,18H6
	v1h1V18L7,18z M5.9,17l-0.2,1H6v-1H5.9z M9,14v1H8v-1H9L9,14z M10,17H9v1h1V17L10,17z M8,15H7v1h1V15L8,15z M7,14H6.6l-0.2,1H7V14
	L7,14z M10,19H9v1h1V19L10,19z M10,21H9v1h1V21L10,21z M10,23H9v1h1V23L10,23z M7,22H6v1h1V22L7,22z M6,23H5v1h1V23L6,23z M7,20H6v1
	h1V20L7,20z M6,21H5v1h1V21L6,21z M8,21H7v1h1V21L8,21z M8,23H7v1h1V23L8,23z M9,22H8v1h1V22L9,22z M11,14h-1v1h1V14L11,14z M11,16
	h-1v1h1V16L11,16z M11,17v1l0.2-1H11z M11,18h-1v1h0.8L11,18L11,18z M10,20v1h0.4l0.2-1H10z"/>
<path class="scienceandfiction_een" d="M25,7v1H7V7H5v1H4v5H3v1h2.78L4,22v3h7v-3l0.89-4h1.916c1.787,0,2.126-1.049,2.328-1.676
	c0.034-0.105,0.587-1.768,0.745-2.324H24v-2h4V7H25z M15.182,16.017C14.991,16.609,14.865,17,13.806,17h-1.693l0.667-3l0.539,2.595
	l0.981-0.19L13.835,14h2.003C15.668,14.589,15.225,15.885,15.182,16.017z M23,13H12l-2,9v2H5v-1.89L7,13H5v-1h18V13z M27,11H5V9h21
	V8h1V11z"/>
</svg>