<?xml version="1.0" encoding="utf-8"?>
<!-- Generator: Adobe Illustrator 22.0.1, SVG Export Plug-In . SVG Version: 6.00 Build 0)  -->
<svg version="1.1" id="designs" xmlns="http://www.w3.org/2000/svg" xmlns:xlink="http://www.w3.org/1999/xlink" x="0px" y="0px"
	 width="32px" height="32px" viewBox="0 0 32 32" style="enable-background:new 0 0 32 32;" xml:space="preserve">
<style type="text/css">
	.scienceandfiction_een{fill:#2B4099;}
	.scienceandfiction_twee{fill:#CC2954;}
</style>
<path class="scienceandfiction_een" d="M18,8V7h2V6h-1V4h-6v2H7v2H6v20h19V8H18z M17,8h-2V7h2V8z M14,5h4v1h-4V5z M8,7h6v1H8V7z
	 M24,27H7V9h17V27z"/>
<path class="scienceandfiction_twee" d="M12.621,16.086L11.207,17.5l1.414,1.414l-0.707,0.707L10.5,18.207l-1.414,1.414
	l-0.707-0.707L9.793,17.5l-1.414-1.414l0.707-0.707l1.414,1.414l1.414-1.414L12.621,16.086z M16.914,15.379L15.5,16.793
	l-1.414-1.414l-0.707,0.707l1.414,1.414l-1.414,1.414l0.707,0.707l1.414-1.414l1.414,1.414l0.707-0.707L16.207,17.5l1.414-1.414
	L16.914,15.379z M22.621,16.086l-0.707-0.707L20.5,16.793l-1.414-1.414l-0.707,0.707l1.414,1.414l-1.414,1.414l0.707,0.707
	l1.414-1.414l1.414,1.414l0.707-0.707L21.207,17.5L22.621,16.086z"/>
</svg>