<?xml version="1.0" encoding="utf-8"?>
<!-- Generator: Adobe Illustrator 22.0.1, SVG Export Plug-In . SVG Version: 6.00 Build 0)  -->
<svg version="1.1" id="designs" xmlns="http://www.w3.org/2000/svg" xmlns:xlink="http://www.w3.org/1999/xlink" x="0px" y="0px"
	 width="32px" height="32px" viewBox="0 0 32 32" style="enable-background:new 0 0 32 32;" xml:space="preserve">
<style type="text/css">
	.scienceandfiction_een{fill:#2B4099;}
	.scienceandfiction_twee{fill:#CC2954;}
</style>
<path class="scienceandfiction_twee" d="M11.5,25c-0.828,0-1.5,0.672-1.5,1.5s0.672,1.5,1.5,1.5s1.5-0.672,1.5-1.5
	S12.328,25,11.5,25z M11.5,27c-0.276,0-0.5-0.224-0.5-0.5s0.224-0.5,0.5-0.5s0.5,0.224,0.5,0.5S11.776,27,11.5,27z M17.5,10
	c0.828,0,1.5-0.672,1.5-1.5S18.328,7,17.5,7S16,7.672,16,8.5S16.672,10,17.5,10z M17.5,8C17.776,8,18,8.224,18,8.5S17.776,9,17.5,9
	S17,8.776,17,8.5S17.224,8,17.5,8z M24,19c0-3.85-4.15-6-8-6c-4.4,0-8,3-8,7c0,2,1.641,4,4,4c1,0,4,0,4,0c0,1.104,0.895,2,2,2h2v1h1
	v-1.277c0.65-0.277,1-0.927,1-2.261C23.771,22.417,24,19.901,24,19z M21,24c0,0.552-0.449,1-1,1h-2c-0.551,0-1-0.448-1-1H21z M20,23
	h-1.939c0.252-0.771-0.121-1.59-0.499-1.967c-0.753-0.756-2.072-0.756-2.828,0l0.707,0.707c0.378-0.377,1.036-0.379,1.415,0
	c0.189,0.188,0.374,0.614,0.103,1.26c0,0-3.718,0-4.958,0c-0.627,0-1.109-0.487-1.109-1c0-0.455,0.301-0.848,0.731-0.955
	l0.561-0.141c0,0-0.292-0.524-0.292-0.904c0-0.552,0.449-1,1-1v-1c-1.103,0-2.141,0.812-1.983,2.26
	c-0.617,0.342-1.116,0.928-1.003,1.881C9.348,21.596,9,20.839,9,20c0-1.889,0.735-3.298,1.86-4.277
	c0.338,0.809,1.197,1.356,2.104,1.245c0.341,0.616,1,1.017,1.739,1.017c1.103,0,2-0.897,2-2h-1c0,0.552-0.449,1-1,1
	c-0.817,0-1.096-0.816-1.096-1.294c0,0-0.505,0.294-0.904,0.294c-0.513,0-0.922-0.394-0.978-0.893C12.961,14.352,14.483,14,16,14
	c0.98,0,1.967,0.156,2.881,0.446c-0.818,0.513-0.653,1.647-0.642,1.733c-0.616,0.342-1.017,1.001-1.017,1.74c0,1.103,0.897,2,2,2v-1
	c-0.552,0-1-0.448-1-1c0-0.455,0.301-0.848,0.73-0.955l0.56-0.141c0,0-0.29-0.545-0.29-0.904c0-0.512,0.391-0.918,0.887-0.977
	C21.793,15.79,23,17.18,23,19c0,0.28-0.018,0.648-0.076,1.045c-0.356-0.326-0.826-0.53-1.345-0.53c-1.103,0-2,0.897-2,2h1
	c0-0.552,0.448-1,1-1c0.5,0,0.898,0.375,0.971,0.855C22.147,22.256,21.396,23,20,23z M25,25h-1v-1h1V25z M26,27v1h-1v-1H26z M9,14H8
	v-1h1V14z M6,24h1v1H6V24z M6,15h1v1H6V15z"/>
<path class="scienceandfiction_een" d="M21,7V5h1V2H10v3h1v2L4,9v21h24V9L21,7z M11,3h10v1H11V3z M27,29H5V12h22V29z M5,11V9.754
	l7-2V5h8v2.754l7,2V11H5z"/>
</svg>