<?xml version="1.0" encoding="utf-8"?>
<!-- Generator: Adobe Illustrator 22.0.1, SVG Export Plug-In . SVG Version: 6.00 Build 0)  -->
<svg version="1.1" id="designs" xmlns="http://www.w3.org/2000/svg" xmlns:xlink="http://www.w3.org/1999/xlink" x="0px" y="0px"
	 width="32px" height="32px" viewBox="0 0 32 32" style="enable-background:new 0 0 32 32;" xml:space="preserve">
<style type="text/css">
	.scienceandfiction_een{fill:#2B4099;}
	.scienceandfiction_twee{fill:#CC2954;}
</style>
<path class="scienceandfiction_twee" d="M13.5,14v-1H8v-2l-6,4.96L8,21l-0.01-2.02l5.51,0.01V18H12v-4H13.5z M5,17.19l-1.45-1.23
	L5,14.75V17.19z M7,19l-1-1v-4l1-1V19z M9,18H8v-4h1V18z M11,18h-1v-4h1V18z M30,16.04l-5.99-5.07v2.05L18.5,13v0.99L20,14v4
	l-1.5-0.01v1L24,19v2L30,16.04z M27,14.81l1.45,1.23L27,17.25V14.81z M25,13l1,1v4l-1,1V13z M22,18h-1v-4h1V18z M24,18h-1v-4h1V18z"
	/>
<path class="scienceandfiction_een" d="M16,3.562L18.865,7H18v18h0.938l-2.93,3.447L13.135,25H14V7h-0.865L16,3.562z M16,2l-5,6h2
	v16h-2l5,6l5-6h-2V8h2L16,2L16,2z"/>
</svg>