<?xml version="1.0" encoding="utf-8"?>
<!-- Generator: Adobe Illustrator 22.0.1, SVG Export Plug-In . SVG Version: 6.00 Build 0)  -->
<svg version="1.1" id="designs" xmlns="http://www.w3.org/2000/svg" xmlns:xlink="http://www.w3.org/1999/xlink" x="0px" y="0px"
	 width="32px" height="32px" viewBox="0 0 32 32" style="enable-background:new 0 0 32 32;" xml:space="preserve">
<style type="text/css">
	.scienceandfiction_twee{fill:#CC2954;}
	.scienceandfiction_een{fill:#2B4099;}
</style>
<path class="scienceandfiction_een" d="M23.414,10h-1c0-1.103-0.897-2-2-2c-0.331,0-0.65,0.089-0.937,0.242
	C19.541,8.486,19.586,8.737,19.586,9h-1c0-1.103-0.897-2-2-2c-0.503,0-0.985,0.188-1.355,0.529l-0.678-0.735
	C15.108,6.282,15.831,6,16.586,6c1.036,0,1.951,0.528,2.49,1.329C19.489,7.122,19.942,7,20.414,7C22.068,7,23.414,8.346,23.414,10z
	 M26,10c0,2.76-2.138,5-4.773,5c-0.325,0-0.649-0.04-0.964-0.1C19.06,16.2,17.371,17,15.5,17s-3.56-0.8-4.763-2.1
	c-0.315,0.06-0.64,0.1-0.964,0.1C7.138,15,5,12.76,5,10s2.138-5,4.773-5c0.325,0,0.649,0.04,0.964,0.1C11.94,3.8,13.629,3,15.5,3
	s3.56,0.8,4.763,2.1c0.315-0.06,0.64-0.1,0.964-0.1C23.862,5,26,7.24,26,10z M25,10c0-2.206-1.692-4-3.773-4
	c-0.232,0-1.322,0.186-1.322,0.186l-0.377-0.407C18.468,4.632,17.037,4,15.5,4s-2.968,0.632-4.029,1.779l-0.377,0.407
	c0,0-1.09-0.186-1.322-0.186C7.692,6,6,7.794,6,10s1.692,4,3.773,4c0.232,0,1.322-0.186,1.322-0.186l0.377,0.407
	C12.532,15.368,13.963,16,15.5,16s2.968-0.632,4.029-1.779l0.377-0.407c0,0,1.09,0.186,1.322,0.186C23.308,14,25,12.206,25,10z"/>
<path class="scienceandfiction_twee" d="M12,24v4h-1v-4H12L12,24z M12,22h-1v1h1V22L12,22z M8,22H7v4h1V22L8,22z M8,20H7v1h1V20
	L8,20z M16,22h-1v4h1V22L16,22z M16,20h-1v1h1V20L16,20z M16,18h-1v1h1V18L16,18z M20,24h-1v4h1V24L20,24z M20,22h-1v1h1V22L20,22z
	 M24,22h-1v4h1V22L24,22z M24,16h-1v3h1V16L24,16z M20,18h-1v3h1V18L20,18z M12,18h-1v3h1V18L12,18z M8,16H7v3h1V16L8,16z M24,20h-1
	v1h1V20L24,20z M12,29h-1v1h1V29L12,29z M8,27H7v1h1V27L8,27z M16,27h-1v1h1V27L16,27z M20,29h-1v1h1V29L20,29z M24,27h-1v1h1V27
	L24,27z"/>
</svg>