<?xml version="1.0" encoding="utf-8"?>
<!-- Generator: Adobe Illustrator 22.0.1, SVG Export Plug-In . SVG Version: 6.00 Build 0)  -->
<svg version="1.1" id="designs" xmlns="http://www.w3.org/2000/svg" xmlns:xlink="http://www.w3.org/1999/xlink" x="0px" y="0px"
	 width="32px" height="32px" viewBox="0 0 32 32" style="enable-background:new 0 0 32 32;" xml:space="preserve">
<style type="text/css">
	.scienceandfiction_een{fill:#2B4099;}
	.scienceandfiction_twee{fill:#CC2954;}
</style>
<path class="scienceandfiction_twee" d="M14,5.46v7.256L15,12v-2h3l1-0.719V2L14,5.46z M18,9h-3V8h3V9z M18,7h-3V6h3V7z M18,5
	h-1.572L18,3.91V5z"/>
<path class="scienceandfiction_een" d="M13,13v14.5c0,1.812,1.562,3.5,3.5,3.5c1.93,0,3.5-1.57,3.5-3.5V8L13,13z M19,24h-2v1h2v1h-2
	v1h2v0.5c0,0.171-0.018,0.338-0.051,0.5H17v1h1.487c-0.457,0.604-1.05,1-1.987,1c-1.094,0-2.5-0.844-2.5-2.5V13.517l1-0.714V14.5h1
	v-2.415l1-0.713V14.5h1v-3.842l1-0.716V24z M17,16.5h1V22h-3v-5.5h1V21h1V16.5z"/>
<path class="scienceandfiction_twee" d="M17.5,15c0.276,0,0.5,0.224,0.5,0.5S17.776,16,17.5,16h-2c-0.276,0-0.5-0.224-0.5-0.5
	s0.224-0.5,0.5-0.5H17.5z M15.5,14c-0.828,0-1.5,0.671-1.5,1.5s0.672,1.5,1.5,1.5h2c0.828,0,1.5-0.671,1.5-1.5S18.328,14,17.5,14
	H15.5z"/>
</svg>