<?xml version="1.0" encoding="utf-8"?>
<!-- Generator: Adobe Illustrator 22.0.1, SVG Export Plug-In . SVG Version: 6.00 Build 0)  -->
<svg version="1.1" id="designs" xmlns="http://www.w3.org/2000/svg" xmlns:xlink="http://www.w3.org/1999/xlink" x="0px" y="0px"
	 width="32px" height="32px" viewBox="0 0 32 32" style="enable-background:new 0 0 32 32;" xml:space="preserve">
<style type="text/css">
	.scienceandfiction_een{fill:#2B4099;}
	.scienceandfiction_twee{fill:#CC2954;}
</style>
<path class="scienceandfiction_twee" d="M28.5,17c-0.13,0-0.25,0.02-0.37,0.05L21.84,5.36l-0.88,0.48l6.33,11.78
	C27.11,17.86,27,18.17,27,18.5c0,0.83,0.67,1.5,1.5,1.5s1.5-0.67,1.5-1.5C30,17.67,29.33,17,28.5,17z M28.5,19
	c-0.28,0-0.5-0.22-0.5-0.5c0-0.28,0.22-0.5,0.5-0.5s0.5,0.22,0.5,0.5C29,18.78,28.78,19,28.5,19z"/>
<path class="scienceandfiction_een" d="M25,23V5H3v18H2v4h24v-4H25z M19,19.5c0,0.276-0.224,0.5-0.5,0.5S18,19.776,18,19.5
	s0.224-0.5,0.5-0.5S19,19.224,19,19.5z M15,19.5c0,0.276-0.224,0.5-0.5,0.5S14,19.776,14,19.5s0.224-0.5,0.5-0.5S15,19.224,15,19.5z
	 M11,19.5c0,0.276-0.224,0.5-0.5,0.5S10,19.776,10,19.5s0.224-0.5,0.5-0.5S11,19.224,11,19.5z M7,19.5C7,19.776,6.776,20,6.5,20
	S6,19.776,6,19.5S6.224,19,6.5,19S7,19.224,7,19.5z M4,6h2v12.092c-0.581,0.207-1,0.756-1,1.408C5,20.328,5.672,21,6.5,21
	S8,20.328,8,19.5c0-0.652-0.419-1.202-1-1.408V6h3v12.092c-0.581,0.207-1,0.756-1,1.408c0,0.828,0.672,1.5,1.5,1.5
	s1.5-0.672,1.5-1.5c0-0.652-0.419-1.202-1-1.408V6h3v12.092c-0.581,0.207-1,0.756-1,1.408c0,0.828,0.672,1.5,1.5,1.5
	s1.5-0.672,1.5-1.5c0-0.652-0.419-1.202-1-1.408V6h3v12.092c-0.581,0.207-1,0.756-1,1.408c0,0.828,0.672,1.5,1.5,1.5
	s1.5-0.672,1.5-1.5c0-0.652-0.419-1.202-1-1.408V6h5v17H4V6z M25,26H3v-2h22V26z"/>
</svg>