<?xml version="1.0" encoding="utf-8"?>
<!-- Generator: Adobe Illustrator 22.0.1, SVG Export Plug-In . SVG Version: 6.00 Build 0)  -->
<svg version="1.1" id="designs" xmlns="http://www.w3.org/2000/svg" xmlns:xlink="http://www.w3.org/1999/xlink" x="0px" y="0px"
	 width="32px" height="32px" viewBox="0 0 32 32" style="enable-background:new 0 0 32 32;" xml:space="preserve">
<style type="text/css">
	.scienceandfiction_twee{fill:#CC2954;}
	.scienceandfiction_een{fill:#2B4099;}
</style>
<path class="scienceandfiction_twee" d="M15.5,19c0.276,0,0.5,0.224,0.5,0.5S15.776,20,15.5,20S15,19.776,15,19.5S15.224,19,15.5,19
	z M15.5,18c-0.828,0-1.5,0.671-1.5,1.5s0.672,1.5,1.5,1.5s1.5-0.671,1.5-1.5S16.328,18,15.5,18L15.5,18z M16,1h-1v3h1V1z M14,26h-1
	v1h1V26L14,26z M16,26h-1v1h1V26L16,26z M19,27h-1v1h1V27L19,27z M13,27h-1v1h1V27L13,27z M15,27h-1v1h1V27L15,27z M17,27h-1v1h1V27
	L17,27z M18,26h-1v1h1V26L18,26z M16,14h-1v1h1V14L16,14z M16,9h-1v4h1V9L16,9z"/>
<path class="scienceandfiction_een" d="M28,14l-1-2h-2l-1,2v0.35c-0.17-0.24-0.36-0.48-0.55-0.7
	c-0.003-0.004-0.007-0.007-0.01-0.011L20,4h-3v4h-3V4h-3l-3.45,9.65c-1.339,1.549-2.229,3.498-2.479,5.636L4,20v1l1.071,0.714
	c0.361,3.138,2.107,5.837,4.599,7.506C11.271,30.292,13.208,31,15.5,31c1.979,0,3.938-0.518,5.83-1.78
	c2.544-1.698,4.238-4.368,4.599-7.506L27,21v-1l-1.5-1H28V14z M18,5h1.3l2.55,7.14c-1.13-0.85-2.43-1.49-3.85-1.84V5z M18,11.34
	c1.16,0.31,2.26,0.85,3.25,1.6c0.51,0.38,0.99,0.83,1.44,1.36c0.19,0.23,0.38,0.46,0.54,0.7H18V11.34z M14,10.236L14.618,9h1.764
	L17,10.236V16h-3V10.236z M15.5,17c1.93,0,3.5,1.57,3.5,3.5S17.43,24,15.5,24S12,22.43,12,20.5S13.57,17,15.5,17z M11.7,5H13v5.3
	c-1.42,0.35-2.72,0.99-3.85,1.84L11.7,5z M8.31,14.3c0.45-0.53,0.93-0.98,1.44-1.36c0.99-0.75,2.09-1.29,3.25-1.6v5.42
	c-0.49,0.329-0.912,0.75-1.24,1.24H7l-0.78,0.52C6.54,16.97,7.26,15.52,8.31,14.3z M7.305,19h3.971C11.108,19.471,11,19.971,11,20.5
	s0.108,1.029,0.276,1.5H7.305l-2.249-1.5L7.305,19z M6.211,22.474L7,23h4.76c0.048,0.072,0.11,0.133,0.162,0.202l-1.879,5.05
	C8.098,26.801,6.697,24.801,6.211,22.474z M10.886,28.819l1.808-4.826C13.466,24.613,14.433,25,15.5,25
	c1.064,0,2.029-0.385,2.8-1.003l1.805,4.807c-0.95,0.558-2.467,1.252-4.604,1.196C13.254,29.94,11.811,29.357,10.886,28.819z
	 M20.978,28.24l-1.904-5.033c0.054-0.071,0.117-0.133,0.166-0.207H24l0.789-0.526C24.305,24.791,22.964,26.87,20.978,28.24z
	 M25.945,20.5L23.695,22h-3.971C19.892,21.529,20,21.029,20,20.5s-0.108-1.029-0.276-1.5h3.971L25.945,20.5z M27,18h-7.76
	c-0.328-0.49-0.75-0.912-1.24-1.24V16h7v-1.76L25.62,13h0.76L27,14.24V18z"/>
</svg>