<?xml version="1.0" encoding="utf-8"?>
<!-- Generator: Adobe Illustrator 22.0.1, SVG Export Plug-In . SVG Version: 6.00 Build 0)  -->
<svg version="1.1" id="designs" xmlns="http://www.w3.org/2000/svg" xmlns:xlink="http://www.w3.org/1999/xlink" x="0px" y="0px"
	 width="32px" height="32px" viewBox="0 0 32 32" style="enable-background:new 0 0 32 32;" xml:space="preserve">
<style type="text/css">
	.scienceandfiction_een{fill:#2B4099;}
	.scienceandfiction_twee{fill:#CC2954;}
</style>
<path class="scienceandfiction_twee" d="M15,16c0-1.657-1.343-3-3-3H9v3c0,1.657,1.343,3,3,3S15,17.657,15,16z M10,16v-2h2
	c1.103,0,2,0.897,2,2s-0.897,2-2,2S10,17.103,10,16z M17.001,25H18v3.5h-0.999V25z M20,25h1v3.5h-1V25z M14.001,25H15v3.5h-0.999V25
	z M11.001,25H12v3.5h-0.999V25z M17,19h-2l-1,4h4L17,19z M15.281,22l0.5-2h0.438l0.5,2H15.281z M24.47,17.32
	C24.8,16.79,25,16.17,25,15.5c0-1.93-1.57-3.5-3.5-3.5c-0.76,0-1.45,0.25-2.03,0.65l-8.04-8.04c-0.3,0.14-0.6,0.29-0.92,0.48
	l8.25,8.25C18.29,13.94,18,14.68,18,15.5c0,1.93,1.57,3.5,3.5,3.5c0.9,0,1.71-0.35,2.33-0.9l1.231,1.231
	c0.1-0.19,0.22-0.4,0.33-0.63c0.05-0.11,0.1-0.21,0.14-0.32L24.47,17.32z M21.5,13c0.81,0,1.53,0.4,1.99,1h-3.98
	C19.97,13.4,20.69,13,21.5,13z M21.5,18c-0.81,0-1.53-0.4-1.99-1h3.98C23.03,17.6,22.31,18,21.5,18z M23.95,16h-4.9
	C19.02,15.84,19,15.67,19,15.5c0-0.17,0.02-0.34,0.05-0.5h4.9c0.03,0.16,0.05,0.33,0.05,0.5C24,15.67,23.98,15.84,23.95,16z"/>
<path class="scienceandfiction_een" d="M16,4c5.514,0,10,4.486,10,10c0,1.519-0.33,2.978-0.98,4.334
	c-0.82,1.662-1.484,2.259-1.484,2.259S24,21.359,24,22c0,1-1.016,2-2,2v4H10v-3.984c-0.859,0-2-0.938-2-2.016
	c0-0.646,0.462-1.402,0.462-1.402l-0.383-0.492C6.719,18.358,6,16.247,6,14C6,9.875,9.494,4,16,4z M16,3C9.224,3,5,8.75,5,14
	c0,2.53,0.85,4.87,2.29,6.72c-1.019,2.03,0.54,3.7,1.71,4.1V29h14v-4.18c1.17-0.4,2.729-2.07,1.71-4.1
	c0.371-0.432,1.06-1.64,1.21-1.95C26.61,17.33,27,15.71,27,14C27,7.92,22.08,3,16,3L16,3z"/>
</svg>