<?xml version="1.0" encoding="utf-8"?>
<!-- Generator: Adobe Illustrator 22.0.1, SVG Export Plug-In . SVG Version: 6.00 Build 0)  -->
<svg version="1.1" id="designs" xmlns="http://www.w3.org/2000/svg" xmlns:xlink="http://www.w3.org/1999/xlink" x="0px" y="0px"
	 width="32px" height="32px" viewBox="0 0 32 32" style="enable-background:new 0 0 32 32;" xml:space="preserve">
<style type="text/css">
	.scienceandfiction_een{fill:#2B4099;}
	.scienceandfiction_twee{fill:#CC2954;}
</style>
<path class="scienceandfiction_een" d="M19,8v1h-7V8H19L19,8z M17,6V1h-1v5h-1V1h-1v5h-2v1h7V6H17z M22,16.5
	c0,1.736-0.677,3.369-1.904,4.597C18.868,22.324,17.236,23,15.5,23s-3.369-0.676-4.596-1.904c-2.535-2.534-2.535-6.658,0-9.192
	L12,10.808V10h6.192H19v0.808l1.096,1.096C21.323,13.131,22,14.764,22,16.5z M15.5,11.55l-2.475,2.475
	c-1.365,1.365-1.365,3.585,0,4.95C13.686,19.636,14.565,20,15.5,20s1.814-0.364,2.475-1.025c1.365-1.365,1.365-3.585,0-4.95
	L15.5,11.55z M21,16.5c0-1.469-0.572-2.85-1.611-3.889L17.778,11h-1.414l2.318,2.318c1.757,1.757,1.757,4.607,0,6.364
	C17.803,20.561,16.652,21,15.5,21s-2.303-0.439-3.182-1.318c-1.757-1.757-1.757-4.607,0-6.364l2.312-2.312l-1.42,0.006l-1.6,1.599
	c-1.037,1.037-1.608,2.418-1.608,3.889s0.571,2.852,1.608,3.889C12.649,21.428,14.031,22,15.5,22c1.469,0,2.85-0.572,3.889-1.611
	C20.428,19.35,21,17.969,21,16.5z"/>
<path class="scienceandfiction_twee" d="M15,27h1v4h-1V27z M13,30h1v-1h-1V30z M13,28h1v-4h-1V28z M15,26h1v-1h-1V26z M17,24v4h1v-4
	H17z M17,30h1v-1h-1V30z"/>
</svg>