<?xml version="1.0" encoding="utf-8"?>
<!-- Generator: Adobe Illustrator 22.0.1, SVG Export Plug-In . SVG Version: 6.00 Build 0)  -->
<svg version="1.1" id="designs" xmlns="http://www.w3.org/2000/svg" xmlns:xlink="http://www.w3.org/1999/xlink" x="0px" y="0px"
	 width="32px" height="32px" viewBox="0 0 32 32" style="enable-background:new 0 0 32 32;" xml:space="preserve">
<style type="text/css">
	.scienceandfiction_een{fill:#2B4099;}
	.scienceandfiction_twee{fill:#CC2954;}
</style>
<path class="scienceandfiction_twee" d="M24,9.5v-2C24,7.224,24.224,7,24.5,7S25,7.224,25,7.5v2h1v-2C26,6.672,25.328,6,24.5,6l0,0
	C23.672,6,23,6.672,23,7.5v2H24z M13,11v2h2v1h-2v2h-1v-2h-2v-1h2v-2H13z M14,10h-3v2H9v3h2v2h3v-2h2v-3h-2V10L14,10z"/>
<path class="scienceandfiction_een" d="M8.5,21C7.672,21,7,21.672,7,22.5S7.672,24,8.5,24s1.5-0.672,1.5-1.5S9.328,21,8.5,21z
	 M8.5,23C8.224,23,8,22.776,8,22.5S8.224,22,8.5,22S9,22.224,9,22.5S8.776,23,8.5,23z M22.5,21c-0.828,0-1.5,0.672-1.5,1.5
	s0.672,1.5,1.5,1.5s1.5-0.672,1.5-1.5S23.328,21,22.5,21z M22.5,23c-0.276,0-0.5-0.224-0.5-0.5s0.224-0.5,0.5-0.5s0.5,0.224,0.5,0.5
	S22.776,23,22.5,23z M27,9h-5V7H3v16h2.05c0.245,1.694,1.688,3,3.45,3s3.205-1.306,3.45-3h7.101c0.245,1.694,1.688,3,3.45,3
	s3.205-1.306,3.45-3H29v-7L27,9z M26.246,10l1.714,6H22v-6H26.246z M4,8h17v11.35c-0.349,0.167-0.671,0.383-0.944,0.65h-9.111
	c-0.631-0.617-1.492-1-2.444-1s-1.813,0.383-2.444,1H4V8z M19.05,22H11.95c-0.051-0.354-0.151-0.689-0.299-1h7.699
	C19.201,21.311,19.102,21.646,19.05,22z M4,21h1.35c-0.149,0.311-0.248,0.646-0.299,1H4V21z M8.5,25C7.122,25,6,23.878,6,22.5
	S7.122,20,8.5,20s2.5,1.122,2.5,2.5S9.878,25,8.5,25z M22.5,25c-1.378,0-2.5-1.122-2.5-2.5s1.122-2.5,2.5-2.5s2.5,1.122,2.5,2.5
	S23.878,25,22.5,25z M28,22h-2.05c-0.245-1.694-1.688-3-3.45-3c-0.171,0-0.335,0.027-0.5,0.05V17h4v2h2V22z M28,18h-1v-1h1V18z"/>
</svg>