<?xml version="1.0" encoding="utf-8"?>
<!-- Generator: Adobe Illustrator 22.0.1, SVG Export Plug-In . SVG Version: 6.00 Build 0)  -->
<svg version="1.1" id="designs" xmlns="http://www.w3.org/2000/svg" xmlns:xlink="http://www.w3.org/1999/xlink" x="0px" y="0px"
	 width="32px" height="32px" viewBox="0 0 32 32" style="enable-background:new 0 0 32 32;" xml:space="preserve">
<style type="text/css">
	.scienceandfiction_een{fill:#2B4099;}
	.scienceandfiction_twee{fill:#CC2954;}
</style>
<path class="scienceandfiction_twee" d="M17,20h-1v-1h1V20z M14,24h1v-1h-1V24z M14,15h1v-1h-1V15z M18,22h-1v1h1V22z M13,17h-1v1h1
	V17z M13,15c-0.551,0-1-0.447-1-0.999s0.449-1,1-1v-1c-1.103,0-2,0.897-2,2S11.896,16,13,16V15z M22.487,18.178
	c-0.379,0.379-1.037,0.379-1.414,0c-0.39-0.39-0.39-1.024,0-1.414l-0.707-0.707c-0.779,0.779-0.779,2.049,0,2.828
	c0.377,0.378,0.879,0.586,1.414,0.586c0.534,0,1.036-0.208,1.414-0.586L22.487,18.178z M18,18v-1c-0.552,0-1-0.447-1-0.999
	s0.449-1,1-1v-1c-1.103,0-2,0.897-2,2S16.897,18,18,18z M18,24.001c-1.103,0-2,0.896-2,1.999h1c0-0.552,0.449-0.999,1-0.999
	s1,0.447,1,0.999l1,0.001C20,24.898,19.103,24.001,18,24.001z M15,21.001c-0.551,0-1-0.448-1-1s0.449-1,1-1v-1c-1.103,0-2,0.897-2,2
	S13.896,22,15,22V21.001z"/>
<path class="scienceandfiction_een" d="M23,29h1v1h-1V29z M24,28v1h1v-1H24z M25,29v1h1v-1H25z M16,31h1v-1h-1V31z M17,29v1h1v-1H17
	z M18,31h1v-1h-1V31z M7,28v1h1v-1H7z M8,30h1v-1H8V30z M9,28v1h1v-1H9z M11,27h-1v1h1V27z M11,29h1v-1h-1V29z M13,29v1h1v-1H13z
	 M12,31h1v-1h-1V31z M6,30h1v-1H6V30z M14,31h1v-1h-1V31z M10,30h1v-1h-1V30z M22,27h-1v1h1V27z M20,28v1h1v-1H20z M22,28v1h1v-1H22
	z M21,30h1v-1h-1V30z M19,30h1v-1h-1V30z M20,23v5h-8v-5l-2-3l-2-8L6,7l1.25-4.14c0.212-0.534,0.716-0.832,1.231-0.832
	c0.334,0,0.672,0.125,0.939,0.392C9.67,2.67,9.8,3,9.8,3.35c0,0.14-0.02,0.29-0.07,0.43L9,7l1.6,3h0.23L10,5.94l1.25-4.08
	c0.212-0.534,0.716-0.832,1.231-0.832c0.334,0,0.672,0.125,0.939,0.392C13.67,1.67,13.8,2,13.8,2.35c0,0.14-0.02,0.29-0.07,0.43
	L13,5.94L13.83,10H14V5.94l1.25-4.08c0.212-0.534,0.716-0.832,1.231-0.832c0.334,0,0.672,0.125,0.939,0.392
	C17.67,1.67,17.8,2,17.8,2.35c0,0.14-0.02,0.29-0.07,0.43L17,5.94V10h0.2L18,5.94l1.25-3.08c0.212-0.534,0.716-0.832,1.231-0.832
	c0.334,0,0.672,0.125,0.939,0.392C21.67,2.67,21.8,3,21.8,3.35c0,0.14-0.02,0.29-0.07,0.43L21,5.94L20,11v3h1.33L22,12V9.741
	c0-0.454,0.257-0.87,0.663-1.073c0.174-0.087,0.356-0.127,0.535-0.127c0.529,0,1.026,0.353,1.165,0.909L25,12l-2,8L20,23z
	 M22.097,19.489L23.969,12l-0.577-2.307c-0.026-0.104-0.122-0.175-0.228-0.167C23.04,9.535,23,9.665,23,9.741v2.422L22.05,15H19
	v-4.098l1.032-5.22c0,0,0.564-1.674,0.751-2.222c0.041-0.119-0.012-0.275-0.07-0.333c-0.066-0.066-0.144-0.099-0.232-0.099
	c-0.107,0-0.242,0.053-0.302,0.202l-1.217,2.998L18.022,11H16V5.826c0,0,0.8-3.428,0.8-3.476c0-0.09-0.029-0.165-0.087-0.223
	c-0.066-0.066-0.144-0.099-0.232-0.099c-0.101,0-0.227,0.047-0.29,0.177L15,6.09V11h-1.986l-1.037-5.073
	c0,0,0.823-3.529,0.823-3.577c0-0.09-0.029-0.165-0.087-0.223c-0.066-0.066-0.144-0.099-0.232-0.099
	c-0.101,0-0.227,0.047-0.29,0.177l-1.16,3.785L12.055,11H10L7.942,7.142c0,0,0.858-3.744,0.858-3.792
	c0-0.09-0.029-0.165-0.087-0.223C8.647,3.061,8.569,3.028,8.481,3.028c-0.1,0-0.226,0.047-0.29,0.176L7.059,6.954l1.895,4.738
	l1.974,7.898L13,22.697V27h6v-4.414L22.097,19.489z"/>
</svg>