<?xml version="1.0" encoding="utf-8"?>
<!-- Generator: Adobe Illustrator 22.0.1, SVG Export Plug-In . SVG Version: 6.00 Build 0)  -->
<svg version="1.1" id="designs" xmlns="http://www.w3.org/2000/svg" xmlns:xlink="http://www.w3.org/1999/xlink" x="0px" y="0px"
	 width="32px" height="32px" viewBox="0 0 32 32" style="enable-background:new 0 0 32 32;" xml:space="preserve">
<style type="text/css">
	.scienceandfiction_een{fill:#2B4099;}
	.scienceandfiction_twee{fill:#CC2954;}
</style>
<path class="scienceandfiction_twee" d="M22,20v3H9v-3h1v2h3v-2h1v2h3v-2h1v2h3v-2H22z M23,19h-3v2h-1v-2h-3v2h-1v-2h-3v2h-1v-2H8v5
	h15V19L23,19z M10,14.281l2,0.5V16h-2V14.281z M9,13v4h4v-3L9,13L9,13z M21,14.281V16h-2v-1.219L21,14.281z M22,13l-4,1v3h4V13
	L22,13z M6,19H5v1h1V19L6,19z M6,14H5v1h1V14L6,14z M5,17H4v1h1V17L5,17z M26,19h-1v1h1V19L26,19z M26,14h-1v1h1V14L26,14z M27,17
	h-1v1h1V17L27,17z"/>
<path class="scienceandfiction_een" d="M20.817,9c-0.367,0-0.725,0.02-1.083,0.07C19.186,8.773,18.602,8.547,18,8.371V7.042L17,4h-3
	l1,3v1.031c-1.332,0.074-2.6,0.426-3.734,1.039C10.908,9.02,10.551,9,10.183,9C5.108,9,1,13.25,1,18.5S5.108,28,10.183,28
	c0.367,0,0.725-0.02,1.083-0.07C12.542,28.62,13.982,29,15.5,29c1.518,0,2.958-0.38,4.234-1.07c0.358,0.05,0.715,0.07,1.083,0.07
	C25.892,28,30,23.75,30,18.5S25.892,9,20.817,9z M16.276,5L17,7.202V8h-1V6.838L15.387,5H16.276z M20.817,27
	c-0.298,0-0.561-0.022-0.817-0.052V25h-1v2.17C17.906,27.713,16.732,28,15.5,28s-2.406-0.287-3.5-0.83V25h-1v1.948
	C10.744,26.978,10.481,27,10.183,27C5.671,27,2,23.187,2,18.5S5.671,10,10.183,10c0.298,0,0.561,0.022,0.817,0.052V12h1V9.83
	C13.094,9.287,14.268,9,15.5,9s2.406,0.287,3.5,0.83V12h1v-1.948C20.256,10.022,20.518,10,20.817,10C25.329,10,29,13.813,29,18.5
	S25.329,27,20.817,27z"/>
</svg>