<?xml version="1.0" encoding="utf-8"?>
<!-- Generator: Adobe Illustrator 22.0.1, SVG Export Plug-In . SVG Version: 6.00 Build 0)  -->
<svg version="1.1" xmlns="http://www.w3.org/2000/svg" xmlns:xlink="http://www.w3.org/1999/xlink" x="0px" y="0px" width="32px"
	 height="32px" viewBox="0 0 32 32" style="enable-background:new 0 0 32 32;" xml:space="preserve">
<style type="text/css">
	.scienceandfiction_een{fill:#2B4099;}
	.scienceandfiction_twee{fill:#CC2954;}
	.st0{fill:#0B1719;}
</style>
<g id="verbs">
</g>
<g id="designs">
	<path class="scienceandfiction_twee" d="M8.5,24c-0.384,0-0.768,0.146-1.061,0.439c-0.586,0.586-0.586,1.535,0,2.121
		C7.732,26.854,8.116,27,8.5,27s0.768-0.146,1.061-0.439c0.46-0.46,0.545-1.14,0.282-1.696l1.657-1.661l0.018-1.433l-2.383,2.387
		C8.933,24.062,8.72,24,8.5,24z M8.853,25.854C8.726,25.981,8.577,26,8.5,26s-0.226-0.019-0.354-0.147C8.019,25.726,8,25.577,8,25.5
		s0.019-0.226,0.147-0.354C8.274,25.019,8.423,25,8.5,25s0.226,0.019,0.354,0.147C8.981,25.274,9,25.423,9,25.5
		S8.981,25.726,8.853,25.854z M9.561,5.439C9.268,5.146,8.884,5,8.5,5S7.732,5.146,7.439,5.439c-0.586,0.586-0.586,1.535,0,2.121
		C7.732,7.854,8.116,8,8.5,8c0.22,0,0.433-0.062,0.636-0.157l1.63,1.642h1.422L9.843,7.136C10.106,6.579,10.021,5.9,9.561,5.439z
		 M8.853,6.854C8.726,6.981,8.577,7,8.5,7S8.274,6.981,8.146,6.853C8.019,6.726,8,6.577,8,6.5s0.019-0.226,0.147-0.354
		C8.274,6.019,8.423,6,8.5,6s0.226,0.019,0.354,0.147C8.981,6.274,9,6.423,9,6.5S8.981,6.726,8.853,6.854z M22.5,5
		c-0.652,0-1.202,0.419-1.408,1h-2.385l2.157-2.157C21.067,3.938,21.28,4,21.5,4c0.384,0,0.768-0.146,1.061-0.439
		c0.586-0.586,0.586-1.535,0-2.121C22.268,1.146,21.884,1,21.5,1s-0.768,0.146-1.061,0.439c-0.46,0.46-0.545,1.14-0.282,1.696
		l-2.193,2.193L18.636,6h-0.198v1h2.654c0.207,0.581,0.756,1,1.408,1C23.328,8,24,7.328,24,6.5S23.328,5,22.5,5z M21.147,2.146
		C21.274,2.019,21.423,2,21.5,2s0.226,0.019,0.354,0.147C21.981,2.274,22,2.423,22,2.5s-0.019,0.226-0.147,0.354
		C21.726,2.981,21.577,3,21.5,3s-0.226-0.019-0.354-0.147C21.019,2.726,21,2.577,21,2.5S21.019,2.274,21.147,2.146z M22.5,7
		C22.224,7,22,6.776,22,6.5S22.224,6,22.5,6S23,6.224,23,6.5S22.776,7,22.5,7z"/>
	<path class="scienceandfiction_een" d="M24.5,9h-6.556C18.594,8.365,19,7.481,19,6.5C19,4.567,17.433,3,15.5,3S12,4.567,12,6.5
		c0,0.981,0.406,1.865,1.056,2.5H6.5C5.672,9,5,9.672,5,10.5S5.672,12,6.5,12H11v17c0,1.104,0.895,2,2,2s2-0.896,2-2c0,0,0-4,0-5
		c0-0.5,0.25-0.75,0.5-0.75S16,23.5,16,24c0,1,0,5,0,5c0,1.104,0.895,2,2,2s2-0.896,2-2V12h4.5c0.828,0,1.5-0.672,1.5-1.5
		S25.328,9,24.5,9z M13,6.5C13,5.122,14.122,4,15.5,4S18,5.122,18,6.5S16.878,9,15.5,9S13,7.878,13,6.5z M24.5,11H19v18
		c0,0.552-0.449,1-1,1s-1-0.448-1-1v-5c0-1.137-0.773-1.75-1.5-1.75S14,22.863,14,24v5c0,0.552-0.449,1-1,1s-1-0.448-1-1V11H6.5
		C6.224,11,6,10.776,6,10.5S6.224,10,6.5,10h18c0.276,0,0.5,0.224,0.5,0.5S24.776,11,24.5,11z M15,6v1h-1V6H15L15,6z M17,6v1h-1V6
		H17L17,6z"/>
	<path class="scienceandfiction_twee" d="M23.561,21.439C23.268,21.146,22.884,21,22.5,21c-0.22,0-0.433,0.062-0.636,0.157
		l-3.511-3.511l-0.707,0.707l3.511,3.511c-0.263,0.557-0.178,1.236,0.282,1.696C21.732,23.854,22.116,24,22.5,24
		s0.768-0.146,1.061-0.439C24.146,22.975,24.146,22.025,23.561,21.439z M22.853,22.854C22.726,22.981,22.577,23,22.5,23
		s-0.226-0.019-0.354-0.147C22.019,22.726,22,22.577,22,22.5s0.019-0.226,0.147-0.354C22.274,22.019,22.423,22,22.5,22
		s0.226,0.019,0.354,0.147C22.981,22.274,23,22.423,23,22.5S22.981,22.726,22.853,22.854z M14,16H8.908
		c-0.207-0.581-0.756-1-1.408-1C6.672,15,6,15.672,6,16.5S6.672,18,7.5,18c0.652,0,1.202-0.419,1.408-1H14V16z M7.5,17
		C7.224,17,7,16.776,7,16.5S7.224,16,7.5,16S8,16.224,8,16.5S7.776,17,7.5,17z M17,13v1h1v1h-1v1h-1v-1h-1v-1h1v-1h-1v-1h1v-1h1v1h1
		v1H17z"/>
</g>
</svg>