<?xml version="1.0" encoding="utf-8"?>
<!-- Generator: Adobe Illustrator 22.0.1, SVG Export Plug-In . SVG Version: 6.00 Build 0)  -->
<svg version="1.1" id="designs" xmlns="http://www.w3.org/2000/svg" xmlns:xlink="http://www.w3.org/1999/xlink" x="0px" y="0px"
	 width="32px" height="32px" viewBox="0 0 32 32" style="enable-background:new 0 0 32 32;" xml:space="preserve">
<style type="text/css">
	.scienceandfiction_een{fill:#2B4099;}
	.scienceandfiction_twee{fill:#CC2954;}
</style>
<path class="scienceandfiction_twee" d="M10.086,7.134c-0.76,0-1.495-0.351-1.94-1.007l0.827-0.562
	c0.42,0.617,1.337,0.697,1.964,0.303c0.141-0.088,0.4-0.398,0.714-0.854l0.423,0.368c0.458,0.4,1.163,0.418,1.713,0.044
	c0.489-0.332,0.741-0.899,0.643-1.446l0.984-0.177c0.168,0.935-0.25,1.897-1.065,2.45c-0.777,0.526-1.75,0.578-2.515,0.17
	C11.235,7,10.57,7.134,10.086,7.134z M22.135,8.781c-0.35,0-0.635-0.285-0.635-0.634c0-0.288,0.189-0.537,0.461-0.604l0.459-0.15
	c-0.173-0.282-0.288-0.627-0.204-0.839c0.118-0.298,0.337-0.58,0.675-0.553V5c-0.901,0-1.804,0.878-1.63,1.766
	C20.797,7.055,20.5,7.571,20.5,8.147c0,0.901,0.733,1.634,1.635,1.634V8.781z M20.222,19.951c-0.552,0-1-0.481-1-1.033
	c0-0.455,0.301-0.847,0.73-0.955l-0.242-0.97c-0.876,0.219-1.488,1.011-1.488,1.925c0,1.103,0.897,2,2,2V19.951z M22.963,14.853
	c-0.216-0.641,0.031-1.135,0.517-1.317c0.515-0.192,1.095,0.011,1.316,0.517l0.916-0.4c-0.441-1.01-1.618-1.465-2.633-1.033
	c-1.279,0.545-1.344,1.892-1.032,2.634L22.963,14.853z M9.562,14.033c-0.78-0.779-2.048-0.78-2.829,0l0.604,0.756
	c0.439-0.494,1.128-0.439,1.518-0.048c0.39,0.39,0.39,1.024,0,1.415l0.707,0.707C10.341,16.082,10.341,14.812,9.562,14.033z M17,25
	h-1v5h1V25L17,25z M17,23h-1v1h1V23L17,23z M15,21.5h-1V27h1V21.5z M15,28h-1v1h1V28L15,28z M19,21l-1,0.5V27h1V21L19,21z M19,28h-1
	v1h1V28L19,28z M11,24h-1v1h1V24L11,24z M11,20l-1-0.5l0,3.5h1L11,20z M13,22h-1v1h1V22L13,22z M13,24h-1v4h1V24L13,24z M21,24h-1v4
	h1V24L21,24z M21,22h-1v1h1V22L21,22z M23,18.5l-1,1l0,3.5h1L23,18.5z M23,24h-1v1h1V24L23,24z"/>
<path class="scienceandfiction_een" d="M16,14c-1.103,0-2-0.897-2-2s0.897-2,2-2c1.103,0,2,0.897,2,2S17.103,14,16,14z M16,11
	c-0.551,0-1,0.449-1,1s0.449,1,1,1s1-0.449,1-1S16.551,11,16,11z M16,17c-2.757,0-5-2.243-5-5s2.243-5,5-5s5,2.243,5,5
	S18.757,17,16,17z M16,8c-2.206,0-4,1.794-4,4s1.794,4,4,4c2.206,0,4-1.794,4-4S18.206,8,16,8z M16,3c4.963,0,9,4.037,9,9
	c0,3.413-1.982,6.585-5.052,8.083C18.712,20.691,17.384,21,16,21s-2.712-0.309-3.951-0.919C8.982,18.585,7,15.413,7,12
	C7,7.037,11.037,3,16,3z M16,2C10.48,2,6,6.48,6,12c0,3.94,2.29,7.36,5.61,8.98C12.93,21.63,14.42,22,16,22s3.07-0.37,4.39-1.02
	C23.71,19.36,26,15.94,26,12C26,6.48,21.52,2,16,2L16,2z"/>
</svg>