<?xml version="1.0" encoding="utf-8"?>
<!-- Generator: Adobe Illustrator 22.0.1, SVG Export Plug-In . SVG Version: 6.00 Build 0)  -->
<svg version="1.1" id="designs" xmlns="http://www.w3.org/2000/svg" xmlns:xlink="http://www.w3.org/1999/xlink" x="0px" y="0px"
	 width="32px" height="32px" viewBox="0 0 32 32" style="enable-background:new 0 0 32 32;" xml:space="preserve">
<style type="text/css">
	.scienceandfiction_twee{fill:#CC2954;}
	.scienceandfiction_een{fill:#2B4099;}
</style>
<path class="scienceandfiction_een" d="M11,9v4l2,4h-2v4h2v6.5c0,1.933,1.567,3.5,3.5,3.5s3.5-1.567,3.5-3.5V17l2-4V9H11z M12,20v-2
	h1v2H12z M19,22h-3v1h3v1h-3v1h3v1h-3v1h3v0.5c0,0.171-0.018,0.338-0.051,0.5H16v1h2.487c-0.457,0.604-1.174,1-1.987,1
	c-1.378,0-2.5-1.122-2.5-2.5V21h5V22z M19,16.764V20h-5v-3.236L12.118,13h8.764L19,16.764z M21,12h-9v-2h9V12z"/>
<path class="scienceandfiction_twee" d="M17,2v4h-1V2H17L17,2z M17,7h-1v1h1V7L17,7z M21,2h-1v4h1V2L21,2z M21,7h-1v1h1V7L21,7z
	 M15,5h-1v3h1V5L15,5z M15,3h-1v1h1V3L15,3z M13,2h-1v4h1V2L13,2z M13,7h-1v1h1V7L13,7z M19,5h-1v3h1V5L19,5z M19,3h-1v1h1V3L19,3z"
	/>
</svg>