<?xml version="1.0" encoding="utf-8"?>
<!-- Generator: Adobe Illustrator 22.0.1, SVG Export Plug-In . SVG Version: 6.00 Build 0)  -->
<svg version="1.1" id="designs" xmlns="http://www.w3.org/2000/svg" xmlns:xlink="http://www.w3.org/1999/xlink" x="0px" y="0px"
	 width="32px" height="32px" viewBox="0 0 32 32" style="enable-background:new 0 0 32 32;" xml:space="preserve">
<style type="text/css">
	.scienceandfiction_twee{fill:#CC2954;}
	.scienceandfiction_een{fill:#2B4099;}
</style>
<path class="scienceandfiction_een" d="M12,15v2l-1,0.5v-3L12,15L12,15z M22,15l-1-0.5v3l1-0.5V15L22,15z M17,11l-1-0.5v3l1-0.5V11
	L17,11z M16,4C10.486,4,6,8.486,6,14c0,2.247,0.719,4.358,2.079,6.106l0.383,0.492l-0.273,0.56C8.064,21.415,8,21.699,8,22
	c0,0.85,0.532,1.603,1.324,1.874l0.602,0.206l0.069,0.633c0.119,1.096,0.458,2.325,0.713,2.58c0.964,0.964,2.992,1.563,5.293,1.563
	c2.301,0,4.329-0.599,5.293-1.563c0.28-0.28,0.607-1.593,0.713-2.579l0.068-0.634l0.603-0.206C23.468,23.603,24,22.85,24,22
	c0-0.301-0.064-0.585-0.189-0.842l-0.273-0.56l0.383-0.492C25.281,18.358,26,16.247,26,14C26,8.486,21.514,4,16,4z M16,3
	c6.08,0,11,4.92,11,11c0,2.53-0.85,4.87-2.29,6.72C24.9,21.11,25,21.54,25,22c0,1.31-0.83,2.42-2,2.82c0,0-0.261,2.441-1,3.18
	c-1.237,1.237-3.619,1.856-6,1.856S11.237,29.237,10,28c-0.739-0.739-1-3.18-1-3.18c-1.17-0.4-2-1.51-2-2.82
	c0-0.46,0.1-0.89,0.29-1.28C5.85,18.87,5,16.53,5,14C5,7.92,9.92,3,16,3L16,3z"/>
<path class="scienceandfiction_twee" d="M21,15c0.981,0,1.898,0.572,2.504,1.063C22.893,16.501,21.981,17,21,17
	c-0.981,0-1.893-0.499-2.504-0.937C19.102,15.572,20.019,15,21,15z M21,14c-2.209,0-4,2.105-4,2.105S18.791,18,21,18
	s4-1.895,4-1.895S23.209,14,21,14L21,14z M11,15c0.981,0,1.898,0.572,2.504,1.063C12.893,16.501,11.981,17,11,17
	c-0.981,0-1.893-0.499-2.504-0.937C9.102,15.572,10.019,15,11,15z M11,14c-2.209,0-4,2.105-4,2.105S8.791,18,11,18s4-1.895,4-1.895
	S13.209,14,11,14L11,14z M15.818,11c0.981,0,1.898,0.572,2.504,1.063C17.711,12.501,16.799,13,15.818,13
	c-0.981,0-1.893-0.499-2.504-0.937C13.921,11.572,14.838,11,15.818,11z M15.818,10c-2.209,0-4,2.105-4,2.105s1.791,1.895,4,1.895
	s4-1.895,4-1.895S18.027,10,15.818,10L15.818,10z M17,22h-2v-0.349l1.916-2.874l-0.832-0.555L14,21.349V23h3V22z M18,25h-4v1h4V25
	L18,25z"/>
</svg>