<?xml version="1.0" encoding="utf-8"?>
<!-- Generator: Adobe Illustrator 22.0.1, SVG Export Plug-In . SVG Version: 6.00 Build 0)  -->
<svg version="1.1" id="designs" xmlns="http://www.w3.org/2000/svg" xmlns:xlink="http://www.w3.org/1999/xlink" x="0px" y="0px"
	 width="32px" height="32px" viewBox="0 0 32 32" style="enable-background:new 0 0 32 32;" xml:space="preserve">
<style type="text/css">
	.scienceandfiction_een{fill:#2B4099;}
	.scienceandfiction_twee{fill:#CC2954;}
</style>
<path class="scienceandfiction_twee" d="M16,17c1.103,0,2,0.897,2,2c0,0.574-0.239,1.112-0.657,1.476L17,20.775V24h-2v-3.225
	l-0.343-0.299C14.239,20.112,14,19.574,14,19C14,17.897,14.897,17,16,17z M16,16c-1.66,0-3,1.34-3,3c0,0.89,0.38,1.69,1,2.23V25h4
	v-3.77c0.62-0.54,1-1.34,1-2.23C19,17.34,17.66,16,16,16L16,16z"/>
<path class="scienceandfiction_een" d="M23,13v-1c0-3.866-3.134-7-7-7s-7,3.134-7,7v1H8v15h16V13H23z M10,12c0-3.308,2.692-6,6-6
	s6,2.692,6,6v1h-1v-1c0-2.757-2.243-5-5-5s-5,2.243-5,5v1h-1V12z M20,13h-8v-1c0-2.206,1.794-4,4-4s4,1.794,4,4V13z M23,16h-2v1h2v1
	h-2v1h2v1h-2v1h2v1h-2v1h2v1h-2v1h2v2H9v-2h2v-1H9v-1h2v-1H9v-1h2v-1H9v-1h2v-1H9v-1h2v-1H9v-2h14V16z"/>
</svg>