<?xml version="1.0" encoding="utf-8"?>
<!-- Generator: Adobe Illustrator 22.0.1, SVG Export Plug-In . SVG Version: 6.00 Build 0)  -->
<svg version="1.1" xmlns="http://www.w3.org/2000/svg" xmlns:xlink="http://www.w3.org/1999/xlink" x="0px" y="0px" width="32px"
	 height="32px" viewBox="0 0 32 32" style="enable-background:new 0 0 32 32;" xml:space="preserve">
<style type="text/css">
	.scienceandfiction_een{fill:#2B4099;}
	.scienceandfiction_twee{fill:#CC2954;}
	.st0{fill:#0B1719;}
</style>
<g id="verbs">
</g>
<g id="designs">
	<path class="scienceandfiction_een" d="M25,12v1H7.5C5.015,13,3,15.015,3,17.5S5.015,22,7.5,22H25v1h4V12H25z M7.5,21
		c-0.511,0-0.994-0.116-1.432-0.314c-0.052-0.454,0.094-0.908,0.419-1.234c0.585-0.584,1.537-0.584,2.122,0l0.707-0.707
		c-0.975-0.975-2.561-0.973-3.536,0c-0.359,0.359-0.576,0.815-0.669,1.299C4.431,19.405,4,18.504,4,17.5C4,15.57,5.57,14,7.5,14
		h9.503c-0.087,0.262-0.134,0.537-0.134,0.821c0,0.151,0.013,0.302,0.039,0.448c-0.789,0.411-1.308,1.265-1.308,2.226
		c0,0.159,0.018,0.314,0.045,0.465c-0.284,0.334-0.692,0.538-1.136,0.538c-0.827,0-1.5-0.673-1.5-1.5h-1c0,1.379,1.122,2.5,2.5,2.5
		c0.571,0,1.107-0.206,1.543-0.551c0.436,0.636,1.146,1.054,1.951,1.054v-1c-0.773,0-1.403-0.676-1.403-1.506
		c0-0.688,0.426-1.28,1.036-1.441l0.543-0.143l-0.204-0.522c-0.07-0.18-0.105-0.37-0.105-0.567c0-0.299,0.089-0.578,0.239-0.821H25
		v7H7.5z M28,22h-2v-9h2V22z"/>
	<path class="scienceandfiction_twee" d="M13,25h-1v-1h1V25z M15,3.5C15,2.671,15.672,2,16.5,2S18,2.671,18,3.5S17.328,5,16.5,5
		S15,4.329,15,3.5z M16,3.5C16,3.776,16.224,4,16.5,4S17,3.776,17,3.5S16.776,3,16.5,3S16,3.224,16,3.5z M10,26v1h1v-1H10z M12,25
		h-1v1h1V25z M12,27h1v-1h-1V27z M19,30h1v-1h-1V30z M13,7.5C13,6.671,13.672,6,14.5,6S16,6.671,16,7.5S15.328,9,14.5,9
		S13,8.329,13,7.5z M14,7.5C14,7.776,14.224,8,14.5,8S15,7.776,15,7.5S14.776,7,14.5,7S14,7.224,14,7.5z M11,28h1v-1h-1V28z M13,25
		v1h1v-1H13z M17.5,9c0.828,0,1.5,0.671,1.5,1.5S18.328,12,17.5,12S16,11.329,16,10.5S16.672,9,17.5,9z M17.5,10
		c-0.276,0-0.5,0.224-0.5,0.5s0.224,0.5,0.5,0.5s0.5-0.224,0.5-0.5S17.776,10,17.5,10z M14,27h1v-1h-1V27z M17,25v-1h-1v1H17z
		 M16,26v1h1v-1H16z M16,23h-1v1h1V23z M15,25v1h1v-1H15z M21,27v1h1v-1H21z M18,28v1h1v-1H18z M15,24h-1v1h1V24z M20,29h1v-1h-1V29
		z M17,27v1h1v-1H17z M20,23h-1v1h1V23z M19,25v-1h-1v1H19z M18,23h-1v1h1V23z M19,27v-1h-1v1H19z M17,26h1v-1h-1V26z M21,26h-1v1h1
		V26z M20,28v-1h-1v1H20z"/>
</g>
</svg>