<?xml version="1.0" encoding="utf-8"?>
<!-- Generator: Adobe Illustrator 22.0.1, SVG Export Plug-In . SVG Version: 6.00 Build 0)  -->
<svg version="1.1" id="designs" xmlns="http://www.w3.org/2000/svg" xmlns:xlink="http://www.w3.org/1999/xlink" x="0px" y="0px"
	 width="32px" height="32px" viewBox="0 0 32 32" style="enable-background:new 0 0 32 32;" xml:space="preserve">
<style type="text/css">
	.scienceandfiction_een{fill:#2B4099;}
	.scienceandfiction_twee{fill:#CC2954;}
</style>
<path class="scienceandfiction_twee" d="M8,23H4l-0.5-1h5L8,23z M15,22h-1v1h1V22L15,22z M16,23h-1v1h1V23L16,23z M18,23h-1v1h0.5
	L18,23L18,23z M28,23h-4l0.5,1h3L28,23z M28.5,17h-5v1h5V17z M28.5,15h-5v1h5V15z M28.5,19h-5v1h5V19z M28.5,21h-5v1h5V21z M15,16
	h-1v1h1V16L15,16z M17,16h-1v1h1V16L17,16z M16,17h-1v1h1V17L16,17z M18,17h-1v1h1V17L18,17z M15,18h-1v1h1V18L15,18z M17,18h-1v1h1
	V18L17,18z M16,19h-1v1h1V19L16,19z M18,19h-1v1h1V19L18,19z M15,20h-1v1h1V20L15,20z M17,20h-1v1h1V20L17,20z M16,21h-1v1h1V21
	L16,21z M18,21h-1v1h1V21L18,21z M17,22h-1v1h1V22L17,22z"/>
<path class="scienceandfiction_een" d="M30,7h-8v3h1v12c0,1.657,1.343,3,3,3s3-1.343,3-3V10h1V7z M28,22c0,1.103-0.897,2-2,2
	s-2-0.897-2-2V10h4V22z M29,9h-6V8h6V9z M12,10h1v12c0,1.657,1.343,3,3,3s3-1.343,3-3V10h1V7h-8V10z M18,22c0,1.103-0.897,2-2,2
	s-2-0.897-2-2V10h4V22z M13,8h6v1h-6V8z M2,10h1v12c0,1.657,1.343,3,3,3s3-1.343,3-3V10h1V7H2V10z M8,22c0,1.103-0.897,2-2,2
	s-2-0.897-2-2V10h4V22z M3,8h6v1H3V8z"/>
</svg>