<?xml version="1.0" encoding="utf-8"?>
<!-- Generator: Adobe Illustrator 22.0.1, SVG Export Plug-In . SVG Version: 6.00 Build 0)  -->
<svg version="1.1" id="designs" xmlns="http://www.w3.org/2000/svg" xmlns:xlink="http://www.w3.org/1999/xlink" x="0px" y="0px"
	 width="32px" height="32px" viewBox="0 0 32 32" style="enable-background:new 0 0 32 32;" xml:space="preserve">
<style type="text/css">
	.scienceandfiction_een{fill:#2B4099;}
	.scienceandfiction_twee{fill:#CC2954;}
</style>
<path class="scienceandfiction_twee" d="M22.94,11.833C22.65,13.533,21.22,15,19.5,15c-0.74,0-2.99-1.56-4-2.74
	c-1.01,1.18-3.26,2.74-4,2.74c-1.72,0-3.15-1.467-3.44-3.167H9C9.27,12.983,10.33,14,11.5,14c0.49-0.09,2.02-1.317,2.9-2.167h2.21
	c0.88,0.85,2.36,2.087,2.89,2.177c1.13-0.01,2.23-1.027,2.5-2.177H22.94z M15,28h1v-4h-1V28z M13,28h1v-4h-1V28z M17,28h1v-4h-1V28z
	"/>
<path class="scienceandfiction_een" d="M24,16h2v-4h-2v-1h-0.009c-0.095-4.704-4.046-8-8.491-8c-4.446,0-8.396,3.27-8.491,8H7v1H5v4
	h2c0,0-3,4-3,5.841C4,25,9.351,29.407,9.351,29.407C9.727,29.786,10.239,30,10.773,30h9.343c0.527,0,1.033-0.208,1.407-0.579
	c0,0,5.477-4.421,5.477-7.612C27,20,24,16,24,16z M25,13v2h-1v-2H25z M15.5,4c3.64,0,7.403,2.614,7.498,7H8.002
	C8.097,6.614,11.86,4,15.5,4z M6,15v-2h1v2H6z M20.894,28.644c0,0-0.353,0.356-0.779,0.356h-9.343c-0.335,0-0.786-0.365-0.786-0.365
	C8.059,27.045,5,23.708,5,21.841c0-0.998,1.487-3.802,3-5.508V12h15v4.333c1.479,1.646,3,4.508,3,5.476
	C26,23.792,22.868,27.048,20.894,28.644z M20.5,24c-0.828,0-1.5,0.672-1.5,1.5s0.672,1.5,1.5,1.5s1.5-0.672,1.5-1.5
	S21.328,24,20.5,24z M20.5,26c-0.276,0-0.5-0.224-0.5-0.5s0.224-0.5,0.5-0.5s0.5,0.224,0.5,0.5S20.776,26,20.5,26z M10.5,24
	C9.672,24,9,24.672,9,25.5S9.672,27,10.5,27s1.5-0.672,1.5-1.5S11.328,24,10.5,24z M10.5,26c-0.276,0-0.5-0.224-0.5-0.5
	s0.224-0.5,0.5-0.5s0.5,0.224,0.5,0.5S10.776,26,10.5,26z M20.243,20.929l-3.972-2.383c-0.476-0.285-1.067-0.285-1.543,0
	l-3.971,2.383l-0.515-0.857l3.971-2.383c0.793-0.477,1.778-0.477,2.572,0l3.971,2.383L20.243,20.929z"/>
</svg>