<?xml version="1.0" encoding="utf-8"?>
<!-- Generator: Adobe Illustrator 22.0.1, SVG Export Plug-In . SVG Version: 6.00 Build 0)  -->
<svg version="1.1" id="designs" xmlns="http://www.w3.org/2000/svg" xmlns:xlink="http://www.w3.org/1999/xlink" x="0px" y="0px"
	 width="32px" height="32px" viewBox="0 0 32 32" style="enable-background:new 0 0 32 32;" xml:space="preserve">
<style type="text/css">
	.scienceandfiction_een{fill:#2B4099;}
	.scienceandfiction_twee{fill:#CC2954;}
</style>
<path class="scienceandfiction_twee" d="M26,9v1h-1V9H26L26,9z M11,7v3h2V7H11z M14,6v5h-4V6H14L14,6z"/>
<path class="scienceandfiction_een" d="M31,9h-2V8.938L26.429,7H23v1h-2V6l-5-1.667V4H8v0.333L3,6v7h1l1.812,1.812L3.231,26H2v2H1v1
	h7v-1H7v-2H6.231l2.538-11h6.462l2.538,11H17v2h-1v1h7v-1h-1v-2h-1.231l-2.582-11.188L20,13h1v-2h2v1h6v-2h2V9z M15,5v7H9V5H15z
	 M4,6.721l4-1.333V12H4V6.721z M5.642,20h0.947l-0.231,1H5.411L5.642,20z M6,28H3v-1h3V28z M4.257,26l0.923-4h0.947l-0.923,4H4.257z
	 M6.82,19H5.872l0.923-4h0.947L6.82,19z M6.414,14l-1-1H8l1,1H6.414z M10.414,14l-1-1h5.172l-1,1H10.414z M18.589,21h-0.947
	l-0.231-1h0.947L18.589,21z M17.18,19l-0.923-4h0.947l0.923,4H17.18z M21,28h-3v-1h3V28z M18.796,26l-0.923-4h0.947l0.923,4H18.796z
	 M17.586,14H15l1-1h2.586L17.586,14z M20,12h-4V5.387l4,1.333V12z M21,10V9h2v1H21z M28,11h-4V8h2.094L28,9.437V11z"/>
</svg>