<?xml version="1.0" encoding="utf-8"?>
<!-- Generator: Adobe Illustrator 22.0.1, SVG Export Plug-In . SVG Version: 6.00 Build 0)  -->
<svg version="1.1" id="designs" xmlns="http://www.w3.org/2000/svg" xmlns:xlink="http://www.w3.org/1999/xlink" x="0px" y="0px"
	 width="32px" height="32px" viewBox="0 0 32 32" style="enable-background:new 0 0 32 32;" xml:space="preserve">
<style type="text/css">
	.scienceandfiction_een{fill:#2B4099;}
	.scienceandfiction_twee{fill:#CC2954;}
</style>
<path class="scienceandfiction_twee" d="M10,15v1H5v-1H10L10,15z M6,18v3h3v-3H6z M10,17v5H5v-5H10L10,17z M22,26h-1v1h1V26L22,26z
	 M26,28h-1v1h1V28L26,28z M27,29h-1v1h1V29L27,29z M28,28h-1v1h1V28L28,28z M23,27h-1v1h1V27L23,27z M22,28h-1v1h1V28L22,28z M24,28
	h-1v1h1V28L24,28z M25,27h-1v1h1V27L25,27z"/>
<path class="scienceandfiction_een" d="M26.82,20l-0.667,4h-2.306l-0.667-4H26.82z M28,19h-6l1,6h4L28,19L28,19z M19,24.18v3.639
	l-4-0.667v-2.306L19,24.18z M20,23l-6,1v4l6,1V23L20,23z M9,8.26V3H6v5.26c-1.938,0.302-3,2.28-3,4.24V28h9V12.5
	C12,10.583,10.906,8.562,9,8.26z M11,27H4v-1h7V27z M4,25c0,0,0-9.344,0-12.5c0-1.578,1-3.292,3-3.53V4h1v4.974
	c1.958,0.214,3,1.964,3,3.526c0,3.156,0,12.5,0,12.5H4z"/>
</svg>