<?xml version="1.0" encoding="utf-8"?>
<!-- Generator: Adobe Illustrator 21.1.0, SVG Export Plug-In . SVG Version: 6.00 Build 0)  -->
<svg version="1.1" id="designs" xmlns="http://www.w3.org/2000/svg" xmlns:xlink="http://www.w3.org/1999/xlink" x="0px" y="0px"
	 width="32px" height="32px" viewBox="0 0 32 32" style="enable-background:new 0 0 32 32;" xml:space="preserve">
<style type="text/css">
	.sketchy_een{fill:#111918;}
</style>
<path class="sketchy_een" d="M30.592,15.564c-0.055-0.195-0.184-0.365-0.359-0.467c-0.119-0.07-0.256-0.106-0.393-0.106
	c-0.026,0-0.052,0.008-0.079,0.011c-0.047-0.007-0.095-0.031-0.141-0.027c-0.33,0.029-0.66,0.021-0.99,0.02
	c-0.332-0.002-0.656-0.012-0.986-0.053c0.048,0.006,0.097,0.013,0.145,0.02c-0.34-0.045-0.669-0.08-1.013-0.078
	c-0.253,0-0.508,0-0.759-0.023c-0.263-0.049-0.518-0.133-0.768-0.231c-0.208-0.102-0.391-0.241-0.593-0.352
	c-0.19-0.105-0.383-0.193-0.564-0.314c-0.207-0.181-0.38-0.391-0.571-0.592c-0.245-0.26-0.471-0.54-0.692-0.819
	c-0.178-0.24-0.351-0.485-0.525-0.728c-0.24-0.34-0.51-0.654-0.771-0.979c0.013,0.017,0.026,0.033,0.039,0.05
	c-0.188-0.241-0.377-0.48-0.566-0.72c-0.248-0.332-0.5-0.662-0.793-0.957c-0.17-0.172-0.379-0.309-0.576-0.445
	c-0.168-0.115-0.336-0.227-0.516-0.32c-0.709-0.367-1.477-0.592-2.254-0.758c-0.239-0.052-0.471-0.069-0.706-0.069
	c-0.137,0-0.276,0.006-0.417,0.015c-0.381,0.023-0.76,0.076-1.131,0.158c-0.279,0.062-0.551,0.143-0.814,0.248
	c-0.18,0.07-0.357,0.145-0.527,0.236c-0.129,0.07-0.246,0.162-0.367,0.244c-0.32,0.217-0.643,0.418-0.947,0.656
	c-0.244,0.193-0.455,0.404-0.656,0.643c-0.447,0.533-0.873,1.09-1.281,1.654c-0.184,0.256-0.34,0.531-0.523,0.787
	c-0.189,0.268-0.379,0.529-0.547,0.811c-0.294,0.496-0.593,0.995-0.935,1.46c-0.134,0.154-0.28,0.289-0.437,0.418
	c-0.21,0.154-0.421,0.286-0.654,0.396c-0.211,0.079-0.426,0.149-0.647,0.19c-0.58,0.058-1.171,0.014-1.753,0.012
	c-0.721,0-1.442-0.019-2.162-0.024c-0.072-0.021-0.14-0.056-0.215-0.056c-0.13,0-0.261,0.033-0.382,0.104
	c-0.354,0.207-0.502,0.703-0.277,1.059c0.762,1.205,1.52,2.412,2.277,3.619c0.354,0.566,0.723,1.121,1.08,1.684
	c0.178,0.279,0.354,0.559,0.525,0.838c0.17,0.275,0.354,0.545,0.52,0.822c0.077,0.129,0.194,0.215,0.322,0.277
	c0.142,0.218,0.373,0.376,0.644,0.365c0.846-0.035,1.693-0.072,2.539-0.064c0.393,0.004,0.785,0.018,1.178,0.029
	c0.391,0.014,0.783,0.01,1.174,0.02c1.146,0.027,2.297,0.025,3.445,0.021c0.436,0,0.873-0.002,1.309-0.002
	c1.611,0.002,3.227-0.006,4.838,0.047c0.803,0.027,1.605,0.043,2.408,0.072c0.352,0.014,0.701,0.008,1.053,0.006
	c0.354-0.002,0.701-0.035,1.051-0.074c0.162-0.018,0.322-0.039,0.482-0.062c0.145-0.041,0.271-0.115,0.379-0.221
	c0.16-0.162,0.252-0.381,0.252-0.609c0-0.009-0.005-0.018-0.005-0.027c0.011-0.027,0.036-0.046,0.044-0.074
	c0.221-0.496,0.477-0.976,0.71-1.466c0.301-0.635,0.645-1.246,0.959-1.875c0.311-0.619,0.598-1.25,0.902-1.871
	c0.312-0.643,0.629-1.283,0.938-1.928C30.605,15.969,30.65,15.777,30.592,15.564z M27.006,23.292c0-0.002,0.001-0.004,0.002-0.005
	c0.016-0.035,0.029-0.07,0.045-0.105C27.037,23.218,27.022,23.255,27.006,23.292z M27.32,19.316
	c-0.301,0.627-0.635,1.238-0.938,1.867c-0.146,0.303-0.299,0.604-0.447,0.906c-0.085,0.172-0.173,0.344-0.267,0.512
	c-0.003,0-0.007,0.001-0.01,0.001c-0.338,0.04-0.679,0.057-1.021,0.067c-0.355,0.01-0.707,0.041-1.062,0.057
	c-0.795,0.039-1.592,0.029-2.387,0.018c-0.82-0.012-1.641,0.008-2.461,0.008c-0.812,0-1.623-0.014-2.436-0.006
	c-1.543,0.014-3.086,0.021-4.629-0.008c-0.775-0.016-1.553-0.037-2.328-0.045c-0.76-0.007-1.52-0.037-2.279-0.027
	c-0.125-0.194-0.258-0.386-0.38-0.581c-0.184-0.287-0.365-0.576-0.547-0.863c-0.363-0.57-0.734-1.137-1.092-1.711
	c-0.357-0.576-0.729-1.143-1.066-1.73c-0.147-0.254-0.302-0.504-0.451-0.757c0.278-0.002,0.555-0.005,0.832,0.007
	c0.588,0.027,1.178,0.09,1.766,0.039c0.303-0.025,0.613-0.053,0.902-0.148c0.314-0.105,0.643-0.234,0.928-0.406
	c0.314-0.189,0.609-0.412,0.891-0.648c0.253-0.214,0.44-0.491,0.638-0.753c0.193-0.248,0.384-0.497,0.561-0.757
	c0.158-0.23,0.311-0.465,0.469-0.695c0.162-0.234,0.34-0.461,0.508-0.691c0.174-0.24,0.338-0.486,0.52-0.721
	c-0.045,0.057-0.088,0.113-0.133,0.17c0.296-0.382,0.587-0.77,0.88-1.153c0.244-0.308,0.492-0.599,0.791-0.85
	c0.23-0.166,0.467-0.317,0.708-0.468c0.187-0.117,0.364-0.242,0.562-0.339c0.357-0.138,0.731-0.243,1.106-0.303
	c0.311-0.037,0.624-0.061,0.935-0.035c0.439,0.074,0.865,0.187,1.28,0.35c0.205,0.092,0.406,0.188,0.602,0.298
	c0.211,0.118,0.412,0.26,0.607,0.402c0.215,0.19,0.4,0.417,0.579,0.64c0.177,0.229,0.355,0.456,0.538,0.679
	c0.22,0.288,0.444,0.572,0.667,0.858c0.199,0.27,0.385,0.554,0.578,0.83c0.244,0.35,0.529,0.672,0.805,0.998
	c0.359,0.428,0.758,0.844,1.23,1.146c0.197,0.127,0.416,0.213,0.607,0.35c0.086,0.062,0.172,0.121,0.26,0.18
	c0.182,0.117,0.387,0.193,0.588,0.271c0.172,0.066,0.342,0.135,0.518,0.186c0.234,0.066,0.469,0.104,0.711,0.135
	c0.227,0.031,0.463,0.025,0.695,0.02c0.123-0.004,0.244-0.008,0.365-0.006c0.138,0.001,0.277,0.015,0.414,0.032
	c0.366,0.054,0.735,0.106,1.105,0.133c-0.094,0.205-0.185,0.41-0.285,0.612C27.93,18.023,27.629,18.672,27.32,19.316z
	 M13.495,15.562c0.096,0.133,0.197,0.258,0.299,0.385c0.221,0.279,0.527,0.436,0.85,0.568c0.154,0.064,0.314,0.123,0.477,0.16
	c0.328,0.074,0.635,0.039,0.961-0.006c0.439-0.062,0.85-0.314,1.203-0.57c0.33-0.236,0.611-0.486,0.83-0.83
	c0.207-0.328,0.258-0.721,0.297-1.096c0.012-0.131,0.025-0.264,0.016-0.393c-0.016-0.254-0.066-0.422-0.17-0.65
	c-0.098-0.221-0.27-0.42-0.42-0.607c-0.223-0.279-0.465-0.541-0.748-0.76c-0.146-0.114-0.277-0.199-0.453-0.224
	c-0.091-0.096-0.207-0.166-0.342-0.194c-0.182-0.037-0.365-0.069-0.551-0.069c-0.031,0-0.062,0.001-0.094,0.003
	c-0.203,0.012-0.414,0.059-0.604,0.133c-0.361,0.141-0.729,0.334-0.992,0.629c-0.264,0.293-0.482,0.609-0.639,0.973
	c-0.084,0.191-0.162,0.385-0.227,0.584c-0.068,0.209-0.094,0.434-0.113,0.652c-0.021,0.254,0.043,0.525,0.139,0.762
	C13.292,15.207,13.374,15.392,13.495,15.562z M14.578,14.26c0.044-0.218,0.117-0.426,0.2-0.631c0.066-0.141,0.142-0.276,0.231-0.405
	c0.066-0.078,0.135-0.154,0.211-0.223c0.051-0.035,0.102-0.069,0.155-0.1c0.098-0.034,0.196-0.062,0.297-0.085
	c0.038-0.002,0.076-0.003,0.114-0.002c0.032,0.006,0.064,0.013,0.095,0.02c0.026,0.005,0.053,0.01,0.079,0.013
	c0.051,0.054,0.11,0.104,0.174,0.149c0.006,0.004,0.011,0.008,0.017,0.012c0.191,0.168,0.354,0.358,0.511,0.557
	c0.076,0.102,0.149,0.207,0.209,0.318c0.003,0.01,0.005,0.02,0.008,0.03c0.003,0.116-0.004,0.233-0.016,0.349
	c-0.016,0.088-0.038,0.174-0.066,0.259c-0.021,0.039-0.044,0.077-0.068,0.114c-0.078,0.084-0.164,0.158-0.253,0.23
	c-0.164,0.119-0.331,0.224-0.513,0.312c-0.06,0.02-0.119,0.037-0.18,0.051c-0.096,0.008-0.191,0.013-0.288,0.009
	c-0.113-0.025-0.221-0.061-0.329-0.102c-0.076-0.038-0.146-0.08-0.215-0.126c-0.061-0.06-0.118-0.125-0.172-0.193
	c-0.053-0.075-0.1-0.153-0.141-0.235c-0.025-0.074-0.046-0.149-0.064-0.224C14.576,14.325,14.576,14.292,14.578,14.26z
	 M19.887,20.983c-0.209,0.357-0.672,0.473-1.029,0.27c-0.404-0.229-0.814-0.461-1.232-0.664c-0.518-0.252-1.035-0.504-1.551-0.76
	c-0.054-0.027-0.11-0.05-0.164-0.076c-0.059,0.025-0.115,0.057-0.174,0.082c-0.89,0.385-1.718,0.889-2.577,1.336
	c-0.35,0.18-0.783,0.092-0.988-0.26c-0.193-0.328-0.088-0.803,0.26-0.988c0.424-0.225,0.85-0.449,1.264-0.691
	c0.168-0.099,0.341-0.186,0.513-0.276c-0.535-0.243-1.072-0.485-1.594-0.753c-0.391-0.201-0.502-0.74-0.289-1.104
	c0.152-0.259,0.418-0.392,0.693-0.392c0.138,0,0.279,0.034,0.409,0.103c0.602,0.32,1.205,0.637,1.816,0.932
	c0.247,0.119,0.493,0.243,0.74,0.362c0.33-0.165,0.656-0.336,0.982-0.507c0.562-0.297,1.115-0.613,1.662-0.936
	c0.121-0.07,0.255-0.103,0.387-0.103c0.27,0,0.536,0.138,0.679,0.385c0.215,0.363,0.09,0.855-0.279,1.066
	c-0.579,0.331-1.18,0.62-1.773,0.927c0.253,0.131,0.505,0.264,0.76,0.392c0.207,0.105,0.408,0.219,0.613,0.326
	c0.199,0.104,0.404,0.195,0.604,0.299C19.98,20.145,20.088,20.639,19.887,20.983z"/>
</svg>