<?xml version="1.0" encoding="utf-8"?>
<!-- Generator: Adobe Illustrator 21.1.0, SVG Export Plug-In . SVG Version: 6.00 Build 0)  -->
<svg version="1.1" id="designs" xmlns="http://www.w3.org/2000/svg" xmlns:xlink="http://www.w3.org/1999/xlink" x="0px" y="0px"
	 width="32px" height="32px" viewBox="0 0 32 32" style="enable-background:new 0 0 32 32;" xml:space="preserve">
<style type="text/css">
	.sketchy_een{fill:#111918;}
</style>
<path class="sketchy_een" d="M27.888,25.337c0.006,0.515,0.022,1.03,0.006,1.543c-0.012,0.394-0.025,0.788-0.052,1.181
	c-0.013,0.212-0.031,0.425-0.031,0.637c-0.002,0.193,0.025,0.437-0.042,0.615c-0.117,0.313-0.317,0.562-0.654,0.654
	c-0.24,0.065-0.504,0.03-0.721-0.095c-0.079-0.047-0.142-0.113-0.203-0.18c-0.005,0.001-0.011,0.001-0.016,0.001
	c-0.835,0.056-1.669,0.15-2.504,0.191c-0.877,0.042-1.758,0.029-2.635,0.029c-0.865-0.002-1.729-0.008-2.594-0.008
	c-0.435,0-0.869,0.002-1.306-0.006c-0.421-0.01-0.84-0.034-1.262-0.05c-0.846-0.029-1.692-0.036-2.538-0.029
	c-0.348,0.004-0.696,0.004-1.044,0.002c-0.521,0-1.042-0.002-1.563,0.01c-0.406,0.01-0.814,0.023-1.219,0.029
	c-0.217,0.004-0.433-0.002-0.648-0.01c-0.217-0.006-0.433-0.012-0.648-0.01c-0.889,0.011-1.777,0.067-2.664,0.085
	C5.438,29.972,5.318,30,5.191,30c-0.527,0-0.983-0.444-0.977-0.975c0.017-1.404-0.015-2.808-0.017-4.212
	c-0.002-1.494-0.037-2.986-0.048-4.481c-0.012-1.846-0.079-3.688-0.063-5.535c0.002-0.465-0.006-0.928,0-1.394
	c0.004-0.444,0.029-0.888,0.042-1.333c0.023-0.788,0.038-1.575,0.05-2.363c-0.076-0.128-0.131-0.27-0.131-0.436
	c0-0.463,0.408-0.927,0.896-0.896c0.752,0.049,1.505,0.074,2.259,0.091c-0.118-0.284-0.2-0.56-0.237-0.878
	c-0.037-0.313,0-0.606,0.046-0.917C7.039,6.479,7.085,6.288,7.16,6.11c0.108-0.258,0.21-0.518,0.383-0.741
	c0.088-0.115,0.169-0.242,0.275-0.344c0.108-0.106,0.223-0.2,0.348-0.288C8.27,4.662,8.377,4.59,8.487,4.523
	c0.498-0.318,1.038-0.519,1.6-0.702c0.003-0.001,0.005-0.001,0.008-0.002c-0.001-0.016-0.001-0.031-0.002-0.048
	c-0.192-0.162-0.323-0.4-0.323-0.647c0-0.44,0.326-0.743,0.731-0.816c0.121-0.067,0.251-0.116,0.392-0.116
	c0.112,0,0.217,0.024,0.313,0.064c1.165-0.059,2.329-0.084,3.495-0.086c0.6-0.002,1.198-0.019,1.796-0.06
	c0.31-0.021,0.619-0.044,0.929-0.071C17.65,2.022,17.871,2,18.094,2c0.044,0,0.088,0.001,0.133,0.003
	c0.149,0.007,0.283,0.06,0.404,0.131c0.034-0.005,0.065-0.021,0.099-0.021c0.462,0,0.794,0.373,0.815,0.817
	c0.036,0.753,0.047,1.512,0.134,2.262c0.05,0.326,0.123,0.648,0.177,0.973c0.04,0.152,0.04,0.305,0,0.459
	c-0.042,0.147-0.115,0.274-0.223,0.381c-0.021,0.02-0.049,0.029-0.072,0.048c-0.116,0.341-0.431,0.576-0.807,0.592
	c-0.136,0.006-0.272-0.003-0.409-0.004c0.009,0.219,0.017,0.438,0.036,0.657c0.008,0.065,0.002,0.126,0,0.188
	c0.057-0.001,0.114-0.002,0.172-0.002c0.898-0.014,1.794-0.023,2.692-0.031c0.865-0.01,1.731-0.004,2.596-0.033
	c0.429-0.015,0.858-0.021,1.287-0.042c0.2-0.01,0.402-0.012,0.602-0.014c0.135-0.003,0.276-0.015,0.413-0.015
	c0.049,0,0.097,0.002,0.144,0.006c0.246,0.021,0.458,0.084,0.638,0.263c0.111,0.114,0.188,0.246,0.231,0.398
	c0.026,0.095,0.03,0.196,0.024,0.297c0,0.004,0.002,0.007,0.002,0.011c0.165,1.635,0.05,3.283,0.163,4.919
	c0.054,0.798,0.113,1.594,0.165,2.392c0.052,0.823,0.094,1.648,0.162,2.47c0.075,0.898,0.131,1.794,0.158,2.694
	c0.023,0.848,0.025,1.696,0.05,2.544c0.003,0.113-0.002,0.227,0.001,0.34c0.042,0.102,0.068,0.213,0.068,0.33
	C27.954,25.132,27.928,25.239,27.888,25.337z M6.164,24.206c0.012-0.001,0.024-0.001,0.035-0.001
	c0.944-0.006,1.888-0.01,2.833,0.006c0.862,0.016,1.721,0.021,2.581,0.091c0.452,0.036,0.904,0.058,1.358,0.06
	c0.423,0.004,0.848-0.038,1.271-0.058c0.879-0.038,1.758-0.05,2.638-0.054c0.86-0.004,1.719-0.027,2.577-0.05
	c0.871-0.023,1.74-0.025,2.61-0.044c0.863-0.017,1.727,0,2.59,0.025c0.387,0.012,0.777,0.035,1.162,0.016
	c0.078-0.004,0.156-0.007,0.234-0.012c-0.005-1.287,0.001-2.576-0.07-3.86c-0.102-1.81-0.187-3.621-0.29-5.431
	c-0.013-0.235-0.014-0.469-0.021-0.703c-0.626-0.014-1.251-0.056-1.877-0.069c-0.804-0.019-1.608-0.04-2.41-0.067
	c-0.833-0.027-1.663-0.027-2.496-0.046c-0.837-0.018-1.673-0.018-2.512-0.006c-0.904,0.012-1.808,0.058-2.712,0.095
	c-0.913,0.036-1.827,0.079-2.742,0.128c-0.879,0.049-1.762,0.058-2.642,0.104c-0.801,0.042-1.603,0.076-2.404,0.109
	c0.02,0.589,0.04,1.178,0.045,1.766c0.008,0.746,0.042,1.49,0.065,2.234c0.027,0.925,0.044,1.85,0.087,2.773
	c0.019,0.446,0.058,0.89,0.071,1.336c0.012,0.462,0.019,0.921,0.019,1.381C6.164,24.021,6.164,24.113,6.164,24.206z M14.272,8.441
	c0.001,0.012-0.002,0.024-0.002,0.036c0.507,0.003,1.014,0.004,1.521,0.015c0.282,0.007,0.563,0.005,0.844,0.006
	c-0.046-0.296-0.072-0.595-0.087-0.894c-0.476-0.006-0.952-0.015-1.429-0.009c-0.294,0.005-0.588,0.007-0.882,0.01
	C14.242,7.884,14.241,8.164,14.272,8.441z M14.629,3.768c-0.964,0.026-1.925,0.086-2.886,0.143c0.011,0.503,0.029,1.006,0.087,1.505
	c0.031,0.194,0.064,0.387,0.1,0.579c0.412,0.006,0.824,0.01,1.236,0.021c0.342,0.01,0.683,0.019,1.025,0.004
	c0.31-0.014,0.619-0.042,0.929-0.054c0.619-0.025,1.238-0.04,1.858-0.046c0.336-0.004,0.673-0.011,1.009-0.011
	c0.044,0,0.089,0.003,0.133,0.003c-0.033-0.374-0.066-0.749-0.092-1.124c-0.025-0.382-0.047-0.765-0.07-1.148
	c-0.512,0.004-1.023,0.01-1.533,0.041C15.827,3.72,15.229,3.751,14.629,3.768z M9.151,8.489c0.776,0.001,1.552-0.002,2.328-0.009
	c0.348-0.002,0.696-0.003,1.045-0.005c-0.038-0.289-0.058-0.579-0.068-0.872c-0.279,0.004-0.558,0.006-0.838,0.007
	c-0.061,0.035-0.12,0.076-0.189,0.095c-0.242,0.067-0.515,0.004-0.731-0.138c-0.331-0.105-0.581-0.408-0.581-0.771
	c0-0.153,0.057-0.291,0.134-0.417c-0.031-0.255-0.054-0.51-0.072-0.766c-0.134,0.043-0.269,0.083-0.4,0.133
	C9.58,5.843,9.393,5.961,9.211,6.09C9.154,6.14,9.101,6.194,9.05,6.251c-0.07,0.104-0.131,0.211-0.186,0.322
	c-0.047,0.136-0.08,0.273-0.106,0.414C8.745,7.139,8.742,7.288,8.753,7.44c0.023,0.11,0.052,0.216,0.089,0.321
	C8.907,7.902,8.976,8.04,9.05,8.177C9.104,8.276,9.135,8.383,9.151,8.489z M5.821,10.189c-0.014,0.501-0.025,1.003-0.021,1.505
	c0.004,0.357,0.019,0.714,0.03,1.071c0.777-0.022,1.554-0.044,2.333-0.056c0.885-0.016,1.767-0.023,2.65-0.066
	c1.694-0.081,3.387-0.223,5.081-0.285c1.113-0.04,2.231-0.031,3.348-0.023c0.635,0.006,1.271,0.011,1.906,0.006
	c0.873-0.006,1.746-0.008,2.619-0.015c0.154-0.002,0.309-0.003,0.463-0.003c0.268,0,0.535,0.003,0.802,0.01
	c0.207,0.007,0.413,0.014,0.62,0.022c0.001-0.075,0-0.15,0.001-0.225c0.004-0.663-0.017-1.325-0.061-1.986
	c-0.176,0.004-0.353,0.003-0.529,0.004c-0.406,0.006-0.814,0.004-1.219-0.008c-0.85-0.023-1.7-0.023-2.55-0.025
	c-0.892-0.002-1.785-0.002-2.679,0.008c-0.873,0.01-1.746,0.044-2.619,0.027c-0.942-0.019-1.883-0.065-2.823-0.067
	c-0.917,0-1.835,0.008-2.75,0.018C8.889,10.118,7.354,10.213,5.821,10.189z M24.298,28.116c0.575-0.041,1.148-0.113,1.723-0.169
	c0.013-0.315,0.019-0.63,0.026-0.944c0.009-0.367,0.004-0.735,0.005-1.103c-0.571-0.007-1.143-0.024-1.713-0.043
	c-0.412-0.014-0.821-0.036-1.233-0.033c-0.423,0.004-0.846-0.006-1.269-0.006c-1.748-0.004-3.496,0.034-5.244,0.046
	c-0.858,0.006-1.715,0.016-2.573,0.062c-0.881,0.05-1.758,0.069-2.637-0.031c-0.881-0.1-1.775-0.063-2.66-0.046
	c-0.852,0.017-1.705,0.034-2.558,0.052c0.002,0.732,0.002,1.464,0.001,2.195c0.449-0.002,0.9,0,1.349,0.002
	c0.106,0.002,0.213,0.002,0.321,0.002c0.342,0,0.685-0.002,1.029,0.015c0.81,0.044,1.623,0.012,2.433,0.012
	c0.892,0,1.785-0.025,2.677-0.019c0.817,0.004,1.631,0.008,2.448,0.046c1.737,0.085,3.477,0.033,5.215,0.033
	C22.527,28.187,23.411,28.182,24.298,28.116z"/>
</svg>