<?xml version="1.0" encoding="utf-8"?>
<!-- Generator: Adobe Illustrator 21.1.0, SVG Export Plug-In . SVG Version: 6.00 Build 0)  -->
<svg version="1.1" id="designs" xmlns="http://www.w3.org/2000/svg" xmlns:xlink="http://www.w3.org/1999/xlink" x="0px" y="0px"
	 width="32px" height="32px" viewBox="0 0 32 32" style="enable-background:new 0 0 32 32;" xml:space="preserve">
<style type="text/css">
	.sketchy_een{fill:#111918;}
</style>
<path class="sketchy_een" d="M29.299,10.387c-0.017-0.196-0.085-0.386-0.239-0.521c-0.277-0.241-0.567-0.459-0.835-0.709
	c-0.288-0.268-0.558-0.562-0.82-0.854c-0.541-0.604-1.082-1.211-1.621-1.817c-0.576-0.647-1.121-1.319-1.714-1.952
	c-0.305-0.328-0.623-0.64-0.932-0.966c-0.305-0.322-0.582-0.67-0.874-1.005c-0.092-0.105-0.189-0.206-0.286-0.307
	C21.809,2.085,21.58,2,21.351,2c-0.153,0-0.298,0.052-0.434,0.126c-0.103,0.037-0.2,0.091-0.275,0.178
	c-0.627,0.718-1.231,1.449-1.922,2.109c-0.051-0.064-0.104-0.128-0.155-0.192c-0.12-0.152-0.363-0.227-0.546-0.227
	c-0.139,0-0.269,0.05-0.387,0.12c-0.183,0.013-0.363,0.078-0.496,0.218c-0.303,0.318-0.601,0.64-0.895,0.964
	c-0.26,0.288-0.537,0.55-0.822,0.812c-0.563,0.52-1.132,1.027-1.666,1.576c-0.279,0.288-0.574,0.56-0.859,0.844
	c-0.256,0.258-0.5,0.531-0.741,0.805c-0.479,0.541-0.984,1.057-1.471,1.591c-0.896,0.979-1.819,1.937-2.76,2.873
	c-0.445,0.441-0.915,0.861-1.346,1.318c-0.21,0.221-0.419,0.44-0.627,0.662c-0.145,0.157-0.291,0.326-0.451,0.473
	c-0.386,0.271-0.526,0.796-0.281,1.215c0.025,0.042,0.064,0.07,0.095,0.108c-0.011,0.016-0.031,0.024-0.041,0.041
	c-0.258,0.339-0.517,0.677-0.775,1.016c-0.002,0.002-0.004,0.005-0.005,0.007c-0.025,0.029-0.048,0.061-0.071,0.092
	c0.001-0.001,0.002-0.002,0.002-0.003c-0.005,0.006-0.01,0.013-0.015,0.019c-0.008,0.011-0.017,0.022-0.026,0.033
	c-0.041,0.051-0.081,0.103-0.121,0.154c-0.017,0.021-0.026,0.043-0.041,0.064c-0.019,0.016-0.043,0.022-0.061,0.04
	c-0.339,0.339-0.341,0.908,0,1.246c0.131,0.13,0.268,0.255,0.402,0.382c-0.089,0.089-0.162,0.193-0.19,0.322
	c-0.075,0.357-0.153,0.715-0.219,1.074c-0.064,0.352-0.116,0.707-0.176,1.059c-0.112,0.679-0.256,1.349-0.417,2.019
	c-0.08,0.331-0.157,0.664-0.24,0.996c-0.08,0.32-0.178,0.638-0.262,0.958c-0.086,0.325-0.168,0.651-0.24,0.98
	c-0.054,0.25-0.104,0.511-0.192,0.754c-0.013,0.03-0.024,0.059-0.034,0.089c-0.002,0.005-0.004,0.01-0.006,0.015
	c0.002-0.004,0.004-0.009,0.005-0.013c-0.051,0.15-0.068,0.299-0.022,0.466c0.054,0.196,0.185,0.367,0.359,0.468
	c0.101,0.059,0.214,0.088,0.33,0.098c0.147,0.051,0.304,0.074,0.46,0.026c0.515-0.155,1.031-0.296,1.544-0.457
	c0.625-0.195,1.248-0.389,1.873-0.586c1.325-0.417,2.654-0.812,4.029-1.018c0.124-0.018,0.244-0.094,0.345-0.188
	c0.124,0.133,0.241,0.27,0.363,0.406c0.331,0.367,0.947,0.337,1.284,0c0.002-0.002,0.002-0.004,0.004-0.006
	c0.022-0.01,0.046-0.016,0.067-0.028c0.112-0.066,0.202-0.154,0.272-0.264c0.307-0.37,0.643-0.719,0.974-1.069
	c0.027,0.036,0.042,0.079,0.074,0.111c0.172,0.172,0.408,0.269,0.651,0.269c0.342,0,0.612-0.181,0.797-0.456
	c0.006-0.009,0.012-0.017,0.018-0.026c0.433-0.539,0.903-1.042,1.384-1.539c0.556-0.569,1.061-1.19,1.602-1.774
	c0.266-0.286,0.524-0.58,0.788-0.87c0.26-0.286,0.539-0.554,0.797-0.842c0.537-0.597,1.063-1.205,1.604-1.798
	c0.393-0.432,0.758-0.885,1.164-1.302c0.399-0.412,0.803-0.816,1.188-1.241c0.189-0.21,0.367-0.431,0.563-0.632
	c0.223-0.23,0.449-0.453,0.679-0.676c0.448-0.431,0.904-0.855,1.354-1.287c0.008-0.004,0.017-0.004,0.025-0.008
	c0.442-0.259,0.538-0.832,0.275-1.246c0.034-0.026,0.075-0.04,0.104-0.073c0.071-0.084,0.155-0.159,0.223-0.247
	c0.085-0.109,0.166-0.22,0.248-0.332c0.384-0.475,0.811-0.915,1.225-1.365C29.504,11.133,29.534,10.704,29.299,10.387z
	 M6.713,27.401c-0.781,0.254-1.567,0.487-2.356,0.714c0.042-0.192,0.082-0.385,0.126-0.575c0.157-0.653,0.286-1.308,0.421-1.967
	c0.137-0.672,0.29-1.342,0.427-2.014c0.071-0.348,0.14-0.694,0.23-1.037c0.061-0.237,0.123-0.474,0.185-0.711
	c0.129,0.129,0.258,0.259,0.391,0.385c0.606,0.574,1.14,1.218,1.724,1.815c0.618,0.633,1.261,1.239,1.875,1.875
	c0.15,0.155,0.299,0.31,0.446,0.467c-0.497,0.114-0.989,0.249-1.474,0.403C8.041,26.968,7.377,27.184,6.713,27.401z M11.287,25.092
	c-0.324-0.296-0.618-0.625-0.925-0.936c-0.305-0.311-0.614-0.616-0.913-0.93c-0.574-0.604-1.128-1.226-1.705-1.828
	c-0.595-0.623-1.237-1.202-1.83-1.829c-0.005-0.006-0.011-0.011-0.016-0.017c0.242-0.298,0.483-0.597,0.719-0.901
	c0.01-0.012,0.014-0.024,0.023-0.036c0.313,0.302,0.628,0.602,0.936,0.908c0.571,0.569,1.072,1.203,1.636,1.78
	c1.19,1.216,2.414,2.397,3.544,3.67c0.197,0.22,0.394,0.441,0.594,0.658c-0.226,0.259-0.453,0.519-0.678,0.781
	c-0.002-0.002-0.004-0.004-0.005-0.005c-0.144-0.15-0.298-0.292-0.444-0.442C11.925,25.659,11.602,25.38,11.287,25.092z
	 M24.46,15.145c-0.069-0.213-0.203-0.359-0.385-0.489c-0.689-0.494-1.45-0.911-2.292-1.057c-0.238-0.041-0.471-0.059-0.703-0.059
	c-0.278,0-0.556,0.025-0.841,0.066c-0.399,0.056-0.801,0.142-1.186,0.26c-0.533,0.161-0.979,0.458-1.415,0.792
	c-0.361,0.277-0.734,0.556-1.055,0.878c-0.638,0.634-1.151,1.364-1.512,2.19c-0.14,0.322-0.271,0.646-0.367,0.984
	c-0.105,0.374-0.137,0.792-0.094,1.181c0.036,0.324,0.077,0.647,0.137,0.967c0.064,0.346,0.208,0.696,0.374,1.005
	c0.23,0.419,0.799,0.55,1.201,0.315c0.41-0.24,0.561-0.79,0.316-1.202c-0.047-0.077-0.087-0.155-0.126-0.235
	c-0.121-0.321-0.192-0.65-0.248-0.989c-0.017-0.18-0.021-0.356-0.009-0.537c0.059-0.274,0.144-0.539,0.248-0.799
	c0.198-0.428,0.425-0.83,0.701-1.213c0.275-0.32,0.576-0.601,0.901-0.869c0.373-0.278,0.753-0.556,1.172-0.757
	c0.398-0.145,0.813-0.216,1.231-0.286c0.295-0.029,0.584-0.033,0.878-0.008c0.232,0.043,0.451,0.104,0.67,0.188
	c0.402,0.193,0.769,0.438,1.127,0.704c0.047,0.034,0.113,0.04,0.171,0.059c-0.326,0.322-0.649,0.648-0.98,0.965
	c-0.597,0.573-1.142,1.194-1.705,1.798c-0.531,0.567-1.061,1.132-1.6,1.694c-0.197,0.206-0.397,0.408-0.586,0.619
	c-0.18,0.202-0.35,0.412-0.533,0.608c-0.399,0.427-0.799,0.85-1.194,1.278c-0.408,0.44-0.816,0.878-1.22,1.321
	c-0.124,0.136-0.249,0.27-0.374,0.404c-0.467-0.444-0.917-0.908-1.373-1.363c-0.603-0.603-1.177-1.237-1.778-1.845
	c-0.591-0.599-1.185-1.194-1.768-1.799c-0.279-0.288-0.548-0.586-0.823-0.879c-0.279-0.299-0.569-0.584-0.865-0.866
	c-0.249-0.238-0.502-0.472-0.739-0.721c-0.167-0.174-0.331-0.353-0.494-0.532c0.225-0.238,0.448-0.477,0.673-0.715
	c0.256-0.271,0.535-0.52,0.803-0.777c0.281-0.268,0.548-0.546,0.82-0.825c0.552-0.567,1.08-1.158,1.632-1.727
	c0.515-0.528,0.996-1.089,1.505-1.624c0.423-0.445,0.846-0.889,1.25-1.349c0.46-0.522,0.951-1.014,1.418-1.529
	c0.432-0.472,0.889-0.926,1.344-1.379c0.232-0.23,0.44-0.481,0.668-0.715c0.152-0.159,0.308-0.314,0.463-0.47
	c0.437,0.5,0.887,0.99,1.335,1.481c0.284,0.311,0.584,0.606,0.872,0.915c0.275,0.298,0.537,0.603,0.818,0.893
	c0.586,0.604,1.203,1.175,1.776,1.791c0.288,0.309,0.569,0.623,0.865,0.926c0.29,0.299,0.599,0.584,0.889,0.885
	c0.268,0.279,0.522,0.569,0.771,0.865c0.124,0.149,0.256,0.289,0.388,0.431C25.228,14.376,24.843,14.76,24.46,15.145z
	 M27.109,11.427c-0.127,0.155-0.251,0.314-0.382,0.466c-0.103,0.12-0.221,0.225-0.326,0.343c-0.023,0.026-0.034,0.058-0.053,0.085
	c-0.206-0.217-0.412-0.435-0.623-0.647c-0.588-0.591-1.211-1.145-1.795-1.742c-0.586-0.597-1.207-1.158-1.785-1.765
	c-0.292-0.305-0.569-0.625-0.872-0.919c-0.298-0.288-0.599-0.573-0.885-0.872c-0.243-0.255-0.472-0.523-0.702-0.791
	c0.017-0.015,0.04-0.021,0.056-0.039c0.316-0.352,0.662-0.674,0.988-1.012c0.159-0.165,0.307-0.341,0.46-0.513
	c0.141,0.152,0.285,0.302,0.428,0.453c0.314,0.329,0.64,0.646,0.956,0.973c0.612,0.632,1.185,1.297,1.755,1.965
	c0.245,0.288,0.513,0.557,0.76,0.846c0.281,0.326,0.574,0.64,0.861,0.96c0.277,0.305,0.558,0.608,0.84,0.908
	c0.249,0.268,0.531,0.503,0.796,0.756C27.426,11.062,27.262,11.239,27.109,11.427z"/>
</svg>