<?xml version="1.0" encoding="utf-8"?>
<!-- Generator: Adobe Illustrator 21.1.0, SVG Export Plug-In . SVG Version: 6.00 Build 0)  -->
<svg version="1.1" id="designs" xmlns="http://www.w3.org/2000/svg" xmlns:xlink="http://www.w3.org/1999/xlink" x="0px" y="0px"
	 width="32px" height="32px" viewBox="0 0 32 32" style="enable-background:new 0 0 32 32;" xml:space="preserve">
<style type="text/css">
	.sketchy_een{fill:#111918;}
</style>
<path class="sketchy_een" d="M29.961,22.988c-0.021-0.364-0.053-0.726-0.051-1.091c0-0.769-0.006-1.539-0.004-2.31
	c0.002-1.604,0.022-3.21-0.051-4.814c-0.039-0.816-0.11-1.633-0.153-2.451c-0.022-0.391-0.051-0.783-0.063-1.175
	c-0.012-0.384-0.014-0.769-0.025-1.153c-0.023-0.746-0.031-1.492-0.023-2.24c0.014-0.943,0.096-1.889,0.129-2.833
	c0.016-0.464-0.401-0.852-0.854-0.852c-0.234,0-0.442,0.096-0.593,0.248c-0.364-0.001-0.727-0.001-1.09-0.005
	c-0.638-0.008-1.276-0.016-1.913-0.01c-0.595,0.006-1.188-0.002-1.781-0.012c-0.619-0.01-1.236-0.052-1.851-0.087
	c0.013-0.38,0.027-0.76,0.042-1.14c0.018-0.464-0.399-0.852-0.85-0.852c-0.099,0-0.189,0.026-0.277,0.057
	c-0.096-0.06-0.201-0.103-0.317-0.103c-0.017,0-0.035,0.001-0.052,0.002c-0.184,0.016-0.366,0.037-0.55,0.063
	c0.065-0.01,0.129-0.018,0.194-0.027c-0.098,0.014-0.197,0.027-0.295,0.041c-0.299,0.036-0.599,0.052-0.899,0.067
	c-0.333,0.016-0.666,0.041-0.998,0.057c-0.722,0.035-1.443,0.014-2.165,0c-0.313-0.006-0.626-0.014-0.942-0.025
	c-0.331-0.014-0.664-0.051-0.994-0.074c-0.752-0.053-1.501-0.067-2.255-0.059c-0.127,0.002-0.244,0.04-0.352,0.095
	c-0.409,0.087-0.704,0.437-0.722,0.865c-0.013,0.312-0.018,0.625-0.027,0.937c-0.494,0-0.988,0.004-1.482-0.009
	c-0.591-0.016-1.18-0.057-1.77-0.068C5.611,4.007,4.291,3.996,2.974,3.986c-0.001,0-0.002,0-0.003,0
	c-0.425,0-0.782,0.362-0.782,0.785c0,0.112,0.027,0.218,0.071,0.315C2.23,5.837,2.217,6.587,2.183,7.338
	c-0.037,0.826-0.051,1.652-0.059,2.48c-0.018,1.59-0.004,3.179-0.004,4.769c0,3.058,0.022,6.116-0.106,9.171
	c-0.004,0.118-0.006,0.235-0.014,0.353c-0.027,0.452,0.397,0.83,0.83,0.83c0.219,0,0.431-0.088,0.585-0.243
	c0.045-0.045,0.066-0.098,0.096-0.147c0.613-0.018,1.225-0.044,1.837-0.052c0.534-0.006,1.071,0.031,1.603,0.043
	c0.468,0.012,0.936,0.016,1.404,0.008c0.442-0.008,0.881,0.029,1.323,0.035c0.073,0.001,0.139-0.022,0.206-0.041
	C9.88,24.564,9.866,24.58,9.86,24.6c-0.117,0.433,0.143,0.918,0.585,1.03c0.805,0.202,1.625,0.206,2.449,0.18
	c0.532-0.018,1.065-0.015,1.597-0.015c0.005,0.483,0.011,0.966,0.04,1.448c0.014,0.219,0.029,0.438,0.047,0.656
	c0.007,0.1,0.014,0.2,0.021,0.3c-0.049,0-0.098-0.002-0.147-0.001c-0.781,0.016-1.56,0.008-2.339,0.002
	c-0.486-0.004-0.969-0.008-1.455-0.006c-0.446,0-0.82,0.372-0.82,0.82c0,0.444,0.374,0.826,0.82,0.82
	c1.641-0.016,3.285-0.102,4.925-0.057c0.783,0.021,1.566,0.023,2.349,0.004c0.758-0.018,1.517-0.074,2.275-0.066
	c0.364,0.002,0.728-0.002,1.092,0.018c0.442,0.023,0.812-0.39,0.812-0.814c0-0.448-0.37-0.806-0.812-0.812
	c-0.072-0.001-0.143-0.002-0.215-0.002c-0.671,0-1.346,0.046-2.015,0.082c-0.773,0.039-1.548,0.059-2.322,0.051
	c-0.139-0.001-0.278-0.007-0.417-0.01c-0.026-0.339-0.047-0.679-0.073-1.018c-0.035-0.471-0.015-0.944-0.005-1.416
	c0.47,0.003,0.94,0.007,1.412,0.007c0.384,0,0.769,0.01,1.153-0.008c0.372-0.016,0.742-0.047,1.11-0.09
	c0.158-0.018,0.315-0.039,0.473-0.06c0.062-0.007,0.123-0.013,0.185-0.014c0.405-0.016,0.734-0.31,0.785-0.71
	c0.08-0.115,0.132-0.244,0.142-0.381c0.654-0.001,1.306-0.021,1.961-0.021c0.554-0.002,1.108,0.012,1.662,0.014
	c0.556,0.002,1.11,0.018,1.666,0.014c0.534-0.004,1.067-0.031,1.601-0.02c0.067,0.001,0.128-0.021,0.19-0.038
	c0.085,0.064,0.18,0.115,0.286,0.144c0.46,0.127,0.942-0.151,1.073-0.609C30.044,23.694,29.979,23.319,29.961,22.988z M13.535,3.777
	c0.331,0.016,0.664,0.043,0.994,0.051c0.331,0.008,0.662,0.004,0.993,0c0.724-0.01,1.447-0.02,2.171-0.059
	c0.656-0.035,1.314-0.096,1.971-0.102c0.103-0.001,0.205-0.003,0.307-0.006c-0.014,0.706-0.024,1.413-0.034,2.119
	c-0.005,0.446-0.012,0.893-0.008,1.339c-0.535,0.011-1.07,0.027-1.606,0.023c-0.756-0.004-1.511-0.033-2.269-0.037
	c-0.46-0.002-0.918,0.004-1.378,0.01c-0.936,0.011-1.872,0.003-2.806-0.05c0.001-0.369,0.005-0.737,0.004-1.106
	c-0.005-0.725,0.05-1.449,0.098-2.173C12.493,3.767,13.014,3.75,13.535,3.777z M17.816,24.185c-0.701-0.006-1.4-0.023-2.099-0.02
	c-0.742,0.002-1.484,0.002-2.226,0.002c-0.626,0-1.25,0.031-1.873-0.018c0.002-0.019,0.012-0.036,0.012-0.056
	c0.014-0.486,0.012-0.969,0.006-1.455c-0.006-0.571,0.011-1.143,0.021-1.714c0.684-0.016,1.368-0.037,2.052-0.05
	c0.415-0.008,0.828-0.023,1.241-0.047c0.392-0.021,0.789-0.029,1.179,0.01c0.807,0.082,1.617,0.147,2.425,0.198
	c0.346,0.021,0.691,0.037,1.038,0.035c0.064,0,0.128,0.008,0.192,0.01c0.015,0.348,0.036,0.696,0.041,1.044
	c0.002,0.27-0.012,0.54-0.016,0.81c-0.006,0.26-0.008,0.521-0.006,0.781c0.003,0.139,0.004,0.276,0.008,0.413
	c-0.019,0.004-0.038,0.008-0.057,0.011C19.112,24.209,18.459,24.191,17.816,24.185z M26.801,22.991
	c-0.554,0.02-1.11,0.02-1.666,0.02c-0.554,0-1.108,0.002-1.662,0c-0.651-0.004-1.301-0.029-1.952-0.04c0-0.012,0-0.024,0-0.037
	c0.01-0.648,0.035-1.294,0.016-1.944c-0.006-0.216-0.094-0.411-0.226-0.565c0.003-0.028,0.016-0.053,0.016-0.081
	c0-0.208-0.082-0.407-0.229-0.554c-0.159-0.157-0.337-0.206-0.552-0.229c-0.654-0.067-1.312-0.039-1.967-0.076
	c-0.399-0.021-0.799-0.061-1.198-0.09c-0.393-0.031-0.787-0.053-1.18-0.094c-0.217-0.023-0.436-0.032-0.654-0.032
	c-0.597,0-1.197,0.063-1.793,0.065c-0.401,0.002-0.801-0.004-1.202-0.008c-0.431-0.006-0.861-0.012-1.292-0.01
	c-0.041,0-0.082,0-0.123,0c-0.27,0.001-0.5,0.146-0.648,0.353c-0.346,0.122-0.603,0.446-0.602,0.83
	c0.002,0.712,0.023,1.427,0.014,2.14c-0.002,0.147-0.005,0.294-0.008,0.442c-0.069-0.021-0.137-0.044-0.212-0.048
	c-0.427-0.022-0.85-0.051-1.278-0.059c-0.482-0.008-0.965-0.004-1.449-0.023c-0.523-0.022-1.047-0.028-1.57-0.043
	c-0.251-0.007-0.502-0.01-0.753-0.01c-0.319,0-0.638,0.007-0.957,0.013c0.001-0.16,0.005-0.321,0.003-0.48
	c-0.006-0.761,0.002-1.525,0.018-2.285c0.033-1.619,0.022-3.238,0.022-4.855c0-1.603,0.006-3.205,0.004-4.808
	C3.718,9.672,3.722,8.863,3.74,8.053c0.018-0.834,0.078-1.668,0.129-2.5c0-0.005,0.001-0.01,0.001-0.015
	c0.375-0.007,0.75-0.012,1.124-0.022c0.634-0.016,1.267,0.008,1.899,0.029c0.583,0.02,1.165,0.057,1.748,0.066
	c0.233,0.004,0.466,0.002,0.699,0c0.266-0.001,0.531,0,0.797,0.005c-0.015,0.701-0.028,1.403-0.05,2.104
	c-0.001,0.032,0.015,0.061,0.018,0.092c0,0.012-0.007,0.022-0.007,0.034c0,0.223,0.09,0.439,0.247,0.595
	c0.168,0.168,0.364,0.225,0.595,0.247c0.869,0.076,1.742,0.043,2.613,0.018c0.785-0.024,1.568-0.037,2.353-0.043
	c0.765-0.004,1.529,0.033,2.292,0.041c0.35,0.004,0.701-0.004,1.049-0.014c0.293-0.008,0.585-0.01,0.878-0.01
	c0.032,0.052,0.054,0.108,0.102,0.156c0.162,0.162,0.386,0.256,0.617,0.256c0.229,0,0.454-0.092,0.617-0.256
	c0.145-0.145,0.282-0.401,0.255-0.617c-0.1-0.792-0.089-1.592-0.099-2.389c0.699,0.021,1.4,0.021,2.1,0.017
	c0.517-0.004,1.036-0.006,1.554,0c0.607,0.01,1.214,0.002,1.821-0.006c0.301-0.004,0.603-0.003,0.904-0.005
	c-0.033,1.398-0.058,2.795-0.039,4.192c0.012,0.816,0.045,1.627,0.098,2.441c0.053,0.808,0.119,1.617,0.155,2.426
	c0.07,1.562,0.068,3.13,0.041,4.692c-0.012,0.742-0.035,1.48-0.031,2.222c0.002,0.38,0.024,0.762,0.036,1.143
	c-0.038,0-0.076-0.001-0.114-0.001C27.695,22.951,27.247,22.977,26.801,22.991z M21.464,12.093c0,0.211-0.086,0.419-0.237,0.57
	c-0.161,0.161-0.35,0.219-0.572,0.237c-0.215,0.016-0.427,0.027-0.642,0.031c-0.742,0.016-1.482-0.014-2.224-0.016
	c-0.769,0-1.541-0.027-2.312-0.035c-0.799-0.006-1.595,0.006-2.392,0.02c-0.814,0.014-1.631,0.027-2.445,0.018
	c-0.446-0.004-0.82-0.368-0.82-0.818c0-0.44,0.374-0.826,0.82-0.818c0.372,0.006,0.746,0.016,1.118,0.021
	c0.82,0.018,1.635,0.018,2.453-0.018c0.279-0.012,0.557-0.026,0.836-0.026c0.07,0,0.139,0.001,0.209,0.003
	c0.39,0.008,0.779,0.025,1.169,0.025c0.754-0.004,1.503-0.025,2.255-0.021c0.376,0.002,0.754,0.012,1.13,0.008
	c0.284-0.002,0.564-0.004,0.846,0.012C21.096,11.311,21.464,11.632,21.464,12.093z M21.456,16.232c0,0.229-0.092,0.45-0.253,0.611
	c-0.147,0.147-0.395,0.276-0.611,0.253c-0.38-0.041-0.761-0.061-1.141-0.092c-1.388-0.11-2.778-0.037-4.166-0.021
	c-0.738,0.01-1.474-0.004-2.21,0.021c-0.861,0.029-1.719,0.092-2.58,0.09c-0.458-0.002-0.84-0.382-0.84-0.84
	c0-0.454,0.382-0.846,0.84-0.842c0.564,0.008,1.128,0.012,1.689-0.014c0.762-0.035,1.523-0.067,2.285-0.071
	c0.705-0.002,1.413-0.002,2.118-0.02c0.492-0.012,0.985-0.03,1.478-0.03c0.231,0,0.462,0.004,0.693,0.015
	c0.305,0.016,0.611,0.039,0.916,0.053c0.305,0.014,0.613,0.012,0.918,0.023C21.062,15.388,21.456,15.747,21.456,16.232z"/>
</svg>