<?xml version="1.0" encoding="utf-8"?>
<!-- Generator: Adobe Illustrator 21.1.0, SVG Export Plug-In . SVG Version: 6.00 Build 0)  -->
<svg version="1.1" id="designs" xmlns="http://www.w3.org/2000/svg" xmlns:xlink="http://www.w3.org/1999/xlink" x="0px" y="0px"
	 width="32px" height="32px" viewBox="0 0 32 32" style="enable-background:new 0 0 32 32;" xml:space="preserve">
<style type="text/css">
	.sketchy_een{fill:#111918;}
</style>
<path class="sketchy_een" d="M9.8,19.86c0.039,0.005,0.078,0.01,0.117,0.016c0.001,0,0.003,0,0.004,0
	C9.881,19.871,9.841,19.865,9.8,19.86z M10.025,19.89c-0.033-0.005-0.065-0.009-0.098-0.013c-0.002,0-0.004-0.001-0.005-0.001
	C9.956,19.88,9.99,19.885,10.025,19.89z M14.869,26.936c0.026,0.003,0.051,0.007,0.077,0.01c0.019,0.002,0.038,0.005,0.057,0.008
	C14.958,26.947,14.914,26.941,14.869,26.936z M15.003,26.954c0.001,0,0.002,0,0.004,0c-0.001,0-0.001,0-0.001,0
	C15.004,26.954,15.004,26.954,15.003,26.954z M29.874,18.742c0.106,0.181,0.136,0.404,0.079,0.605
	c-0.055,0.198-0.185,0.368-0.362,0.472c-0.196,0.115-0.39,0.117-0.607,0.079c-0.71-0.12-1.415-0.25-2.111-0.434
	c-0.076,0.461-0.165,0.919-0.289,1.37c-0.164,0.595-0.385,1.176-0.622,1.75c0.025,0.012,0.052,0.018,0.076,0.033
	c0.555,0.335,1.111,0.673,1.679,0.99c0.179,0.1,0.364,0.191,0.543,0.292c0.126,0.07,0.249,0.147,0.377,0.211
	c-0.029-0.012-0.057-0.024-0.086-0.036c0.172,0.076,0.31,0.162,0.412,0.336c0.108,0.181,0.136,0.402,0.079,0.604
	c-0.107,0.393-0.56,0.688-0.964,0.549c-0.392-0.138-0.736-0.364-1.098-0.562c-0.564-0.31-1.133-0.606-1.689-0.927
	c-0.327,0.639-0.704,1.253-1.177,1.793c-0.628,0.717-1.386,1.292-2.203,1.778c-0.438,0.261-0.877,0.53-1.364,0.69
	c-0.389,0.126-0.786,0.227-1.188,0.3c-0.46,0.083-0.926,0.147-1.394,0.181c-0.404,0.03-0.807,0.024-1.211,0.017
	c-0.956-0.019-1.907-0.089-2.848-0.256c-0.417-0.074-0.834-0.185-1.228-0.34c-0.443-0.175-0.9-0.36-1.322-0.581
	c-0.211-0.111-0.417-0.232-0.624-0.351c-0.181-0.104-0.368-0.202-0.543-0.317c-0.353-0.23-0.694-0.477-1.032-0.732
	c-0.392-0.298-0.77-0.592-1.088-0.969c-0.311-0.374-0.579-0.779-0.803-1.209c-0.044-0.083-0.083-0.167-0.126-0.25
	c-0.128,0.065-0.253,0.136-0.379,0.207c-0.198,0.113-0.402,0.215-0.604,0.317c-0.522,0.262-1.043,0.524-1.565,0.785
	c-0.206,0.104-0.415,0.147-0.643,0.085c-0.209-0.059-0.39-0.198-0.498-0.385c-0.217-0.368-0.111-0.945,0.298-1.141
	c0.539-0.258,1.092-0.487,1.631-0.745c0.221-0.105,0.436-0.224,0.643-0.354c0.136-0.087,0.266-0.187,0.413-0.251
	c0.023-0.013,0.05-0.009,0.073-0.02C6.405,22,6.303,21.674,6.209,21.345c-0.11-0.391-0.188-0.791-0.259-1.192
	c-0.013,0-0.025,0.005-0.038,0.004c0.01,0.001,0.019,0.002,0.029,0.004c-0.012-0.001-0.024-0.003-0.036-0.004
	c-0.015-0.001-0.031-0.002-0.046-0.003c-0.151-0.007-0.306,0.018-0.456,0.036c-0.253,0.03-0.505,0.061-0.758,0.087
	c-0.528,0.057-1.054,0.145-1.584,0.171c-0.432,0.023-0.792-0.377-0.792-0.792c0-0.443,0.36-0.775,0.792-0.792
	c0.817-0.03,1.627-0.108,2.436-0.212c0.084-0.011,0.167-0.027,0.251-0.041c-0.003-0.03-0.008-0.061-0.011-0.091
	c-0.072-0.901-0.076-1.807-0.021-2.71c0.005-0.086,0.017-0.171,0.023-0.257c-0.326,0.013-0.653,0.018-0.979,0.028
	c-0.624,0.023-1.249,0.062-1.871,0.059C2.406,15.637,2,15.237,2,14.75c0-0.476,0.406-0.902,0.89-0.89
	c0.407,0.011,0.815,0.009,1.222,0.005c0.217,0,0.432-0.002,0.649-0.002c0.388,0,0.777,0.002,1.166-0.015c0,0,0,0,0.001,0
	c0.047-0.324,0.089-0.648,0.151-0.971c0.177-0.928,0.458-1.822,0.785-2.708c0.328-0.894,0.753-1.777,1.284-2.569
	c0.357-0.534,0.73-1.054,1.222-1.473c0.389-0.332,0.783-0.673,1.207-0.958c0.79-0.528,1.679-0.883,2.58-1.173
	c0.883-0.283,1.765-0.564,2.663-0.805c0.076-0.02,0.152-0.03,0.228-0.03c0.27,0,0.529,0.123,0.699,0.329
	c0.58-0.006,1.147,0.119,1.71,0.255c0.43,0.104,0.86,0.206,1.288,0.315c0.502,0.128,0.998,0.279,1.477,0.479
	C21.73,4.75,22.2,5.015,22.656,5.32c0.398,0.266,0.777,0.564,1.128,0.888c0.366,0.336,0.668,0.736,0.954,1.139
	c0.272,0.379,0.522,0.777,0.762,1.179c0.251,0.415,0.438,0.871,0.626,1.316c0.347,0.824,0.673,1.652,0.815,2.541
	c0.079,0.494,0.149,0.99,0.213,1.486c0.003,0.026,0.006,0.053,0.01,0.08c0.369,0.002,0.737,0.008,1.106-0.001
	c0.242-0.004,0.484-0.028,0.726-0.028c0.071,0,0.142,0.002,0.213,0.007c0.215,0.017,0.402,0.075,0.558,0.232
	C29.915,14.307,30,14.509,30,14.718c0,0.209-0.085,0.411-0.232,0.559c-0.158,0.158-0.341,0.211-0.558,0.232
	c-0.313,0.026-0.624-0.004-0.939-0.004c-0.338,0-0.677,0.006-1.015,0.011c-0.023,0.773-0.087,1.545-0.168,2.315
	c0.763,0.23,1.529,0.426,2.315,0.55C29.594,18.411,29.779,18.582,29.874,18.742z M23.841,12.474
	c-0.178,0.079-0.357,0.156-0.534,0.235c0.036,0.102,0.069,0.205,0.107,0.306c0.14,0.291,0.294,0.566,0.48,0.829
	c0.065,0.075,0.133,0.144,0.207,0.21c0.072,0.046,0.145,0.088,0.222,0.126c0.198,0.071,0.401,0.124,0.607,0.161
	c0.178,0.014,0.354,0.009,0.532,0.001c-0.005-0.045-0.01-0.09-0.015-0.135c-0.085-0.628-0.169-1.262-0.321-1.879
	c-0.038-0.155-0.093-0.305-0.14-0.457c-0.088,0.059-0.174,0.122-0.266,0.173C24.433,12.202,24.139,12.342,23.841,12.474z
	 M8.658,10.314c-0.068,0.173-0.129,0.35-0.193,0.525c0.772,0.46,1.566,0.873,2.383,1.245c0.781,0.281,1.574,0.486,2.396,0.613
	c0.825,0.094,1.66,0.124,2.49,0.124c0.779,0,1.548-0.04,2.32-0.131c0.568-0.091,1.121-0.231,1.675-0.39
	c0.493-0.14,0.976-0.302,1.451-0.494c0.605-0.257,1.206-0.525,1.804-0.796c0.487-0.223,0.956-0.47,1.39-0.78
	c-0.157-0.355-0.322-0.707-0.53-1.036c-0.248-0.391-0.497-0.782-0.772-1.155c-0.279-0.34-0.587-0.646-0.928-0.925
	c-0.471-0.346-0.967-0.655-1.498-0.9c-0.629-0.246-1.277-0.401-1.933-0.557c-0.6-0.142-1.199-0.319-1.808-0.419
	c-0.115-0.005-0.229-0.005-0.344-0.003c-0.228,0.004-0.439-0.09-0.595-0.24c-1.123,0.299-2.248,0.627-3.327,1.061
	c-0.307,0.135-0.605,0.279-0.897,0.45c-0.236,0.139-0.455,0.309-0.673,0.477c-0.374,0.298-0.74,0.601-1.05,0.966
	C9.757,8.306,9.501,8.668,9.285,9.053C9.054,9.465,8.849,9.885,8.658,10.314z M17.34,20.893c0.102-0.051,0.197-0.107,0.289-0.171
	c0.204-0.174,0.394-0.361,0.568-0.566c0.107-0.153,0.203-0.309,0.287-0.475c0.04-0.112,0.072-0.225,0.096-0.343
	c0.022-0.229,0.029-0.453,0.011-0.683c-0.014-0.059-0.031-0.115-0.051-0.172c-0.067-0.138-0.146-0.266-0.234-0.391
	c-0.048-0.055-0.097-0.107-0.149-0.158c-0.051-0.033-0.104-0.062-0.158-0.09c-0.213-0.078-0.432-0.144-0.649-0.208
	c-0.055-0.016-0.098-0.051-0.147-0.077c0.018,0.323,0.04,0.646,0.053,0.969c0.034,0.791,0.042,1.582,0.063,2.373
	C17.326,20.896,17.333,20.896,17.34,20.893z M15.724,18.225c-0.18,0.087-0.358,0.178-0.527,0.287
	c-0.058,0.052-0.112,0.105-0.164,0.163c-0.093,0.136-0.173,0.278-0.243,0.426c-0.056,0.156-0.104,0.31-0.139,0.471
	c-0.004,0.089-0.002,0.176,0.005,0.264c0.024,0.11,0.052,0.218,0.088,0.325c0.049,0.095,0.102,0.186,0.162,0.273
	c0.078,0.088,0.161,0.168,0.248,0.246c0.065,0.043,0.13,0.082,0.2,0.118c0.151,0.052,0.305,0.093,0.46,0.129
	c-0.007-0.338-0.01-0.677-0.018-1.015C15.779,19.348,15.751,18.787,15.724,18.225z M7.602,14.532c0.014,0,0.028-0.009,0.042-0.008
	c0.313,0.028,0.632,0.06,0.947,0.024c0.063-0.007,0.125-0.013,0.188-0.02c0.127-0.022,0.249-0.052,0.37-0.094
	c0.115-0.058,0.224-0.124,0.33-0.196c0.15-0.132,0.288-0.277,0.418-0.43c0.061-0.09,0.116-0.184,0.166-0.282
	c0.003-0.008,0.005-0.017,0.008-0.025c-0.392-0.172-0.783-0.348-1.166-0.539c-0.321-0.161-0.631-0.34-0.944-0.517
	c-0.139,0.553-0.24,1.116-0.322,1.68C7.623,14.262,7.616,14.397,7.602,14.532z M9.394,24.034c0.192,0.226,0.403,0.422,0.631,0.612
	c0.076,0.058,0.155,0.112,0.232,0.169c0.05-0.034,0.099-0.067,0.147-0.103c0.091-0.08,0.177-0.163,0.257-0.254
	c0.081-0.12,0.152-0.245,0.217-0.375c0.088-0.242,0.149-0.489,0.191-0.743c0.008-0.1,0.009-0.198,0.006-0.298
	c-0.038-0.193-0.095-0.38-0.162-0.564c-0.087-0.185-0.181-0.366-0.293-0.538c-0.046-0.051-0.093-0.098-0.143-0.145
	c-0.081-0.053-0.164-0.1-0.25-0.142c-0.154-0.051-0.309-0.084-0.467-0.112c-0.275-0.028-0.545-0.042-0.823-0.02
	c-0.237,0.042-0.471,0.105-0.704,0.165c0.078,0.233,0.14,0.472,0.231,0.7c0.15,0.318,0.304,0.632,0.472,0.94
	C9.071,23.574,9.227,23.807,9.394,24.034z M14.798,26.926c-0.007-0.001-0.013-0.002-0.02-0.003
	c-0.018-0.002-0.037-0.005-0.056-0.007C14.747,26.919,14.772,26.922,14.798,26.926z M15.007,26.954
	c0.011,0.001,0.022,0.002,0.033,0.004c-0.059-0.007-0.118-0.016-0.177-0.024c0.386,0.043,0.772,0.071,1.158,0.092
	c-0.076-0.808-0.138-1.618-0.163-2.429c-0.018-0.661-0.014-1.324-0.018-1.987c-0.046-0.007-0.093-0.012-0.139-0.02
	c-0.307-0.049-0.611-0.115-0.904-0.226c-0.4-0.155-0.79-0.406-1.068-0.738c-0.315-0.381-0.581-0.809-0.679-1.301
	c-0.058-0.283-0.096-0.566-0.072-0.854c0.026-0.3,0.094-0.604,0.211-0.883c0.128-0.311,0.26-0.604,0.46-0.877
	c0.198-0.275,0.438-0.517,0.728-0.7c0.283-0.177,0.583-0.317,0.885-0.46c0.115-0.053,0.228-0.088,0.344-0.104
	c-0.032-0.412-0.056-0.824-0.098-1.235c-0.03-0.202-0.062-0.405-0.095-0.606c-0.011-0.065-0.008-0.124-0.01-0.185
	c-0.013,0-0.027,0-0.04,0c-0.404-0.009-0.809-0.019-1.213-0.04c-0.439-0.022-0.873-0.068-1.309-0.126
	c-0.396-0.052-0.784-0.14-1.172-0.238c-0.065,0.172-0.137,0.342-0.23,0.499c-0.14,0.24-0.328,0.457-0.517,0.662
	c-0.187,0.208-0.406,0.393-0.639,0.545c-0.208,0.136-0.432,0.249-0.666,0.333c-0.218,0.078-0.436,0.116-0.662,0.147
	c0.032-0.005,0.065-0.009,0.098-0.013c-0.098,0.014-0.196,0.027-0.295,0.04c0.026-0.004,0.053-0.007,0.08-0.011
	c-0.209,0.028-0.422,0.06-0.636,0.056c-0.189-0.003-0.373-0.017-0.56-0.032c-0.054-0.004-0.1-0.022-0.15-0.032
	c-0.005,0.164-0.016,0.328-0.018,0.492c-0.009,0.852,0.051,1.693,0.147,2.54c0.039,0.262,0.108,0.521,0.162,0.782
	c0.397-0.098,0.797-0.198,1.206-0.216c0.041-0.001,0.081-0.002,0.122-0.002c0.271,0,0.536,0.033,0.805,0.069
	c0.003,0,0.006,0.001,0.009,0.001c0.273,0.038,0.538,0.084,0.799,0.183c0.357,0.132,0.654,0.312,0.945,0.559
	c0.258,0.221,0.445,0.53,0.596,0.832c0.109,0.219,0.219,0.447,0.29,0.679c0.094,0.311,0.191,0.639,0.189,0.967
	c-0.004,0.485-0.106,0.981-0.273,1.434c-0.096,0.262-0.217,0.53-0.379,0.76c-0.119,0.166-0.246,0.333-0.392,0.481
	c0.206,0.124,0.409,0.252,0.624,0.357c0.251,0.123,0.507,0.236,0.762,0.348c0.576,0.223,1.169,0.376,1.782,0.459
	c-0.02-0.003-0.041-0.005-0.061-0.008c0.02,0.003,0.04,0.005,0.06,0.008c-0.011-0.001-0.023-0.003-0.034-0.005
	c0.037,0.005,0.074,0.01,0.111,0.015c0.02,0.002,0.039,0.005,0.059,0.008c0.002,0,0.003,0,0.005,0.001
	C15.009,26.954,15.008,26.954,15.007,26.954z M20.95,26.207c-0.142-0.17-0.276-0.346-0.383-0.534
	c-0.081-0.14-0.155-0.279-0.219-0.426c-0.098-0.223-0.209-0.455-0.262-0.694c-0.085-0.391-0.117-0.781-0.072-1.177
	c0.043-0.375,0.098-0.783,0.234-1.137c0.062-0.164,0.123-0.362,0.23-0.507c0.124-0.168,0.247-0.33,0.398-0.474
	c0.151-0.143,0.315-0.27,0.481-0.394c0.494-0.364,1.039-0.717,1.633-0.885c0.673-0.188,1.364-0.257,2.059-0.303
	c0.085-0.41,0.16-0.822,0.219-1.238c0.086-0.716,0.161-1.435,0.208-2.154c0.006-0.087,0.005-0.174,0.01-0.261
	c-0.285,0.01-0.57,0-0.858-0.042c-0.202-0.03-0.398-0.076-0.594-0.134c-0.185-0.055-0.368-0.123-0.541-0.209
	c-0.206-0.102-0.383-0.235-0.562-0.379c-0.187-0.147-0.332-0.347-0.47-0.538c-0.117-0.162-0.238-0.326-0.336-0.503
	c-0.149-0.269-0.272-0.546-0.384-0.828c-0.573,0.23-1.159,0.412-1.752,0.578c-0.694,0.196-1.394,0.326-2.112,0.394
	c-0.312,0.03-0.626,0.048-0.94,0.061c0.086,0.573,0.142,1.148,0.182,1.726C17.253,16.058,17.408,16,17.571,16
	c0.073,0,0.148,0.011,0.221,0.033c0.172,0.051,0.341,0.104,0.511,0.16c0.428,0.147,0.849,0.326,1.151,0.677
	c0.183,0.211,0.373,0.439,0.5,0.69c0.113,0.224,0.215,0.455,0.268,0.7c0.04,0.177,0.058,0.375,0.06,0.558
	c0,0.177-0.006,0.356-0.028,0.534c-0.028,0.217-0.043,0.441-0.111,0.653c-0.051,0.16-0.113,0.317-0.185,0.47
	c-0.087,0.185-0.192,0.358-0.315,0.522c-0.17,0.223-0.341,0.436-0.539,0.634c-0.079,0.077-0.16,0.149-0.241,0.222
	c-0.166,0.151-0.358,0.312-0.56,0.413c-0.298,0.151-0.612,0.267-0.936,0.34c0.003,0.226,0.016,0.451,0.018,0.677
	c0.008,0.781,0.021,1.558,0.074,2.337c0.033,0.48,0.08,0.959,0.128,1.439c0.33-0.009,0.659-0.026,0.988-0.064
	c0.553-0.083,1.106-0.196,1.634-0.385C20.461,26.492,20.706,26.351,20.95,26.207z M24.197,22.372
	c0.127-0.314,0.25-0.631,0.364-0.952c-0.124,0.009-0.249,0.013-0.372,0.025c-0.33,0.051-0.658,0.112-0.972,0.226
	c-0.352,0.175-0.683,0.388-1.002,0.615c-0.097,0.084-0.189,0.17-0.278,0.263c-0.03,0.047-0.057,0.095-0.082,0.145
	c-0.084,0.246-0.138,0.5-0.177,0.757c-0.016,0.187-0.016,0.37,0,0.557c0.031,0.147,0.077,0.287,0.128,0.427
	c0.092,0.196,0.195,0.38,0.319,0.558c0.066,0.079,0.136,0.156,0.205,0.233c0.25-0.229,0.488-0.467,0.707-0.733
	C23.506,23.827,23.872,23.116,24.197,22.372z M13.73,10.671c0.447,0,0.82-0.373,0.82-0.82c0-0.447-0.373-0.82-0.82-0.82
	s-0.82,0.374-0.82,0.82C12.909,10.298,13.283,10.671,13.73,10.671z M18.074,10.586c0.432,0,0.794-0.362,0.794-0.794
	c0-0.432-0.362-0.794-0.794-0.794c-0.432,0-0.794,0.362-0.794,0.794C17.28,10.224,17.642,10.586,18.074,10.586z"/>
</svg>