<?xml version="1.0" encoding="utf-8"?>
<!-- Generator: Adobe Illustrator 21.1.0, SVG Export Plug-In . SVG Version: 6.00 Build 0)  -->
<svg version="1.1" id="designs" xmlns="http://www.w3.org/2000/svg" xmlns:xlink="http://www.w3.org/1999/xlink" x="0px" y="0px"
	 width="32px" height="32px" viewBox="0 0 32 32" style="enable-background:new 0 0 32 32;" xml:space="preserve">
<style type="text/css">
	.sketchy_een{fill:#111918;}
</style>
<path class="sketchy_een" d="M27.461,14.331c-0.008-0.397-0.013-0.792-0.019-1.189c-0.015-0.838-0.079-1.671-0.13-2.507
	c-0.006-0.098-0.031-0.191-0.065-0.278c-0.006-0.343-0.217-0.694-0.568-0.766c-0.248-0.049-0.489-0.104-0.728-0.179
	c-0.149-0.049-0.295-0.105-0.44-0.163c-0.278-0.13-0.536-0.282-0.784-0.459c-0.402-0.328-0.757-0.705-1.082-1.109
	c-0.234-0.32-0.434-0.65-0.604-1.006c-0.126-0.326-0.211-0.664-0.265-1.009c-0.049-0.416-0.088-0.838-0.112-1.256
	c-0.012-0.197-0.09-0.373-0.206-0.515c0.118-0.346,0.002-0.765-0.332-0.943c-0.186-0.1-0.388-0.16-0.585-0.228
	c-0.171-0.06-0.343-0.113-0.518-0.16c-0.35-0.094-0.709-0.164-1.069-0.226c-0.438-0.077-0.883-0.126-1.325-0.181
	c-0.41-0.049-0.821-0.096-1.235-0.126C17.063,2.008,16.729,2,16.396,2c-0.472,0-0.944,0.016-1.415,0.026
	c-0.8,0.017-1.598,0.06-2.398,0.119c-1.056,0.077-2.089,0.248-3.088,0.608c-0.194,0.07-0.352,0.171-0.459,0.354
	C8.932,3.283,8.904,3.499,8.959,3.697c0.03,0.108,0.092,0.205,0.168,0.292c0.013,0.25,0.02,0.501,0.005,0.752
	c-0.02,0.338-0.046,0.676-0.084,1.011C8.954,6.32,8.789,6.869,8.577,7.402C8.394,7.809,8.18,8.192,7.92,8.556
	c-0.179,0.219-0.37,0.417-0.586,0.598C7.119,9.309,6.899,9.45,6.659,9.565C6.343,9.67,6.019,9.733,5.691,9.783
	C5.566,9.797,5.44,9.81,5.314,9.825c-0.216,0.023-0.395,0.07-0.555,0.23c-0.147,0.147-0.232,0.348-0.232,0.557
	c0,0.207,0.085,0.408,0.232,0.555c0.005,0.005,0.013,0.008,0.018,0.012c0.099,1.402,0.045,2.812,0.136,4.214
	c0.055,0.819,0.169,1.645,0.367,2.443c0.102,0.401,0.207,0.802,0.327,1.199c0.128,0.418,0.301,0.821,0.474,1.221
	c0.294,0.674,0.646,1.329,1.005,1.97c0.196,0.348,0.395,0.693,0.621,1.022c0.243,0.352,0.512,0.691,0.775,1.027
	c0.459,0.585,0.982,1.137,1.519,1.649c0.576,0.552,1.204,1.052,1.841,1.528c0.587,0.44,1.195,0.851,1.818,1.24
	c0.713,0.444,1.485,0.775,2.272,1.069c0.011,0.004,0.025,0,0.036,0.003c0.045,0.043,0.085,0.091,0.139,0.123
	c0.167,0.098,0.418,0.15,0.606,0.079c0.382-0.145,0.773-0.265,1.152-0.418c0.346-0.139,0.683-0.297,1.014-0.47
	c0.646-0.341,1.3-0.704,1.882-1.148c0.638-0.489,1.206-1.048,1.754-1.637c0.566-0.61,1.091-1.267,1.558-1.957
	c0.232-0.343,0.446-0.693,0.666-1.041c0.205-0.326,0.42-0.646,0.621-0.973c0.438-0.709,0.828-1.447,1.146-2.217
	c0.286-0.698,0.529-1.423,0.683-2.162c0.09-0.433,0.137-0.875,0.186-1.313c0.041-0.369,0.073-0.738,0.088-1.109
	C27.482,15.126,27.468,14.727,27.461,14.331z M6.699,11.17c0.391-0.1,0.77-0.267,1.11-0.484c0.344-0.216,0.679-0.47,0.962-0.762
	C9.068,9.618,9.337,9.26,9.55,8.889c0.41-0.709,0.687-1.487,0.866-2.285c0.092-0.405,0.141-0.823,0.175-1.237
	c0.03-0.356,0.07-0.713,0.077-1.071c0.002-0.102-0.016-0.203-0.02-0.304c0.38-0.112,0.763-0.21,1.156-0.277
	c1.054-0.129,2.117-0.165,3.177-0.198c0.149-0.004,0.297-0.003,0.446-0.006c0.01,1.498,0.034,2.995,0.031,4.493
	c-0.002,0.755,0.004,1.509,0.009,2.262c0.006,0.785-0.004,1.57,0.021,2.353c0.021,0.663,0.028,1.326,0.035,1.99
	c-0.45-0.002-0.899-0.001-1.349-0.006c-1.374-0.015-2.746-0.015-4.12-0.021c-1.241-0.007-2.481-0.022-3.722-0.03
	c-0.015-0.376-0.025-0.752-0.03-1.129c-0.011-0.724-0.015-1.444-0.056-2.164C6.397,11.233,6.549,11.209,6.699,11.17z M25.91,15.44
	c-0.015,0.479-0.067,0.957-0.127,1.432c-0.146,0.959-0.418,1.878-0.776,2.776c-0.342,0.779-0.767,1.527-1.218,2.247
	c-0.477,0.761-0.938,1.539-1.472,2.262c-0.728,0.912-1.494,1.791-2.404,2.525c-0.694,0.52-1.469,0.95-2.26,1.307
	c-0.183,0.072-0.37,0.135-0.559,0.192c-0.192,0.058-0.381,0.125-0.57,0.191c-0.058-0.034-0.115-0.069-0.182-0.094
	c-0.294-0.108-0.584-0.219-0.874-0.336c-0.261-0.112-0.516-0.231-0.763-0.37c-0.265-0.149-0.521-0.312-0.779-0.474
	c-0.52-0.332-1.032-0.675-1.524-1.049c-0.538-0.417-1.068-0.841-1.551-1.324c-0.506-0.504-0.973-1.038-1.414-1.599
	c-0.205-0.273-0.415-0.546-0.596-0.834c-0.213-0.341-0.418-0.685-0.612-1.037c-0.335-0.605-0.651-1.219-0.927-1.851
	c-0.411-1.042-0.675-2.137-0.843-3.244c1.401-0.013,2.801-0.042,4.201-0.049c0.399-0.002,0.798,0.002,1.197,0.004
	c0.401,0.002,0.8,0.004,1.199,0.002c0.785-0.004,1.57-0.015,2.352-0.013c0.047,0,0.093,0,0.14,0c0.006,0.407,0.009,0.814,0.02,1.222
	c0.043,1.538,0.028,3.075,0.032,4.613c0.004,1.306,0.085,2.616,0.171,3.918c0.013,0.203,0.071,0.382,0.218,0.531
	c0.141,0.139,0.333,0.22,0.531,0.22c0.198,0,0.391-0.081,0.531-0.22c0.128-0.128,0.239-0.344,0.22-0.531
	c-0.077-0.711-0.113-1.427-0.152-2.14c-0.045-0.785-0.056-1.568-0.055-2.353c0-0.775,0.002-1.549-0.008-2.322
	c-0.008-0.766-0.036-1.532-0.055-2.298c-0.006-0.215-0.002-0.43-0.004-0.645c0.783-0.005,1.566-0.016,2.348-0.047
	c1.235-0.047,2.469-0.019,3.704-0.064c0.418-0.013,0.766-0.337,0.766-0.766c0-0.424-0.348-0.759-0.766-0.766
	c-0.157-0.003-0.315-0.004-0.472-0.004c-0.541,0-1.081,0.015-1.622,0.025c-0.743,0.015-1.487,0.032-2.228,0.073
	c-0.579,0.032-1.158,0.041-1.738,0.051c0-0.07,0-0.141-0.001-0.211c-0.009-0.779-0.053-1.556-0.062-2.335
	c-0.019-1.54,0.021-3.077,0.015-4.616c-0.005-1.307,0.021-2.615,0.031-3.924c0.475,0.019,0.949,0.068,1.419,0.13
	c0.517,0.071,1.032,0.145,1.543,0.255c0.388,0.084,0.761,0.202,1.131,0.334c-0.013,0.06-0.036,0.116-0.033,0.18
	c0.038,0.708,0.103,1.432,0.279,2.119c0.188,0.734,0.548,1.396,0.996,2.001c0.493,0.664,1.071,1.259,1.762,1.716
	c0.329,0.218,0.691,0.384,1.058,0.533c0.173,0.07,0.348,0.137,0.525,0.2c0.041,0.014,0.084,0.019,0.126,0.031
	c0.037,0.438,0.079,0.876,0.107,1.315c0.034,0.523,0.041,1.048,0.039,1.573C25.925,14.412,25.925,14.926,25.91,15.44z"/>
</svg>