<?xml version="1.0" encoding="utf-8"?>
<!-- Generator: Adobe Illustrator 21.1.0, SVG Export Plug-In . SVG Version: 6.00 Build 0)  -->
<svg version="1.1" id="designs" xmlns="http://www.w3.org/2000/svg" xmlns:xlink="http://www.w3.org/1999/xlink" x="0px" y="0px"
	 width="32px" height="32px" viewBox="0 0 32 32" style="enable-background:new 0 0 32 32;" xml:space="preserve">
<style type="text/css">
	.sketchy_een{fill:#111918;}
</style>
<path class="sketchy_een" d="M29.799,13.9c-0.042-0.146-0.115-0.273-0.222-0.382c-0.507-0.616-1.016-1.226-1.542-1.822
	c-0.544-0.616-1.119-1.202-1.683-1.798c-0.594-0.63-1.184-1.261-1.79-1.879c-0.582-0.594-1.16-1.196-1.726-1.806
	c-0.275-0.299-0.546-0.6-0.837-0.883c-0.305-0.295-0.618-0.58-0.929-0.869c-0.744-0.693-1.495-1.38-2.245-2.069
	c-0.153-0.141-0.345-0.213-0.538-0.229c-0.081-0.059-0.171-0.108-0.269-0.135C17.945,2.01,17.872,2,17.798,2
	c-0.073,0-0.147,0.01-0.221,0.03c-0.141,0.04-0.261,0.111-0.366,0.214c-0.608,0.477-1.188,0.982-1.744,1.518
	C15.219,4,15.005,4.267,14.779,4.522c-0.091,0.101-0.186,0.196-0.277,0.297c-0.117,0.129-0.216,0.274-0.317,0.416
	c-0.033,0.025-0.074,0.039-0.104,0.069c-0.168,0.168-0.263,0.4-0.263,0.637c0,0.253,0.103,0.448,0.263,0.635
	c0.197,0.232,0.406,0.453,0.612,0.677c-0.512,0.476-1.022,0.953-1.514,1.449c-0.584,0.588-1.172,1.17-1.78,1.734
	c-0.626,0.584-1.222,1.198-1.831,1.798c-0.574,0.566-1.154,1.121-1.693,1.72c-0.39,0.434-0.778,0.867-1.172,1.295
	c-0.356,0.388-0.764,0.74-1.053,1.182c-0.042,0.063-0.055,0.135-0.074,0.205c-0.253,0.157-0.427,0.428-0.44,0.746
	c-0.048,1.208-0.053,2.413-0.069,3.619c0,0.06,0.022,0.113,0.034,0.169c-0.006,0.014-0.014,0.028-0.019,0.043
	C4.69,21.66,4.3,22.106,3.905,22.548c-0.346,0.389-0.708,0.771-1.045,1.17c-0.16,0.031-0.316,0.093-0.44,0.217
	c-0.323,0.323-0.344,0.899,0,1.22c0.43,0.4,0.865,0.792,1.291,1.194c0.404,0.382,0.778,0.79,1.166,1.188
	c0.358,0.366,0.687,0.758,1.043,1.128c0.36,0.376,0.744,0.735,1.119,1.097c0.325,0.313,0.847,0.323,1.17,0
	c0.163-0.163,0.241-0.404,0.232-0.639c0.343-0.304,0.676-0.621,1.016-0.93c0.469-0.426,0.938-0.853,1.404-1.281
	c0.03-0.028,0.042-0.066,0.067-0.098c0.15,0.171,0.361,0.286,0.598,0.274c0.511-0.026,1.024-0.032,1.534-0.042
	c0.614-0.012,1.227-0.036,1.841-0.055c0.118-0.005,0.23-0.032,0.333-0.077c0.046,0.008,0.09,0.027,0.138,0.027
	c0.198,0,0.453-0.081,0.582-0.242c0.226-0.279,0.479-0.538,0.717-0.808c0.259-0.293,0.511-0.59,0.76-0.893
	c0.515-0.626,1.006-1.275,1.532-1.891c0.538-0.632,1.077-1.265,1.633-1.881c0.556-0.614,1.125-1.216,1.691-1.819
	c0.672-0.718,1.334-1.447,1.977-2.191c0.085,0.094,0.172,0.186,0.255,0.281c0.111,0.127,0.242,0.232,0.354,0.354
	c0.226,0.241,0.578,0.291,0.877,0.186c0.159,0.013,0.322-0.006,0.471-0.088c0.301-0.164,0.523-0.451,0.756-0.697
	c0.245-0.259,0.493-0.515,0.74-0.772c0.467-0.481,0.909-0.987,1.344-1.499c0.12-0.013,0.237-0.048,0.342-0.109
	c0.192-0.113,0.337-0.301,0.396-0.517C29.841,14.204,29.841,14.052,29.799,13.9z M4.275,24.575c0.261-0.291,0.537-0.571,0.806-0.852
	c0.284-0.297,0.559-0.601,0.836-0.904c0.179,0.191,0.355,0.386,0.538,0.573c0.178,0.18,0.358,0.358,0.537,0.538
	c0.174,0.178,0.337,0.368,0.509,0.55c0.323,0.343,0.665,0.671,0.978,1.026c0.105,0.119,0.206,0.244,0.315,0.358
	c0.091,0.097,0.188,0.19,0.271,0.294c-0.281,0.267-0.563,0.532-0.84,0.802c-0.283,0.274-0.566,0.55-0.861,0.811
	c-0.081-0.083-0.169-0.16-0.25-0.243C6.75,27.15,6.39,26.766,6.027,26.386C5.446,25.78,4.866,25.173,4.275,24.575z M9.006,26.08
	c0.02,0.026,0.045,0.047,0.066,0.073c-0.002,0.002-0.003,0.003-0.005,0.005C9.045,26.132,9.025,26.106,9.006,26.08z M16.561,23.588
	c-0.499,0.585-1.005,1.174-1.553,1.717c-0.026-0.003-0.049-0.017-0.076-0.017c-0.01,0-0.021,0-0.031,0.001
	c-1.125,0.047-2.251,0.093-3.376,0.162c-0.241,0.015-0.455,0.123-0.606,0.288c-0.022-0.029-0.033-0.064-0.059-0.09
	c-0.036-0.036-0.082-0.053-0.122-0.081c-0.088-0.084-0.177-0.165-0.263-0.252c-0.125-0.131-0.236-0.275-0.352-0.412
	c-0.303-0.356-0.61-0.707-0.931-1.047c-0.836-0.885-1.65-1.793-2.46-2.703c0.01-0.051,0.031-0.097,0.031-0.15
	c-0.001-0.705,0.03-1.41,0.068-2.115c0.216,0.227,0.431,0.455,0.65,0.678c0.493,0.503,0.99,1,1.489,1.497
	c0.473,0.471,0.946,0.942,1.425,1.412c0.238,0.232,0.471,0.465,0.703,0.703c0.103,0.107,0.204,0.214,0.305,0.325
	c0.089,0.097,0.166,0.212,0.269,0.297c0.166,0.141,0.335,0.232,0.558,0.232c0.21,0,0.412-0.083,0.56-0.232
	c0.146-0.146,0.232-0.35,0.232-0.558c0-0.291-0.156-0.529-0.392-0.685c-0.003-0.002-0.006-0.003-0.009-0.005
	c-0.416-0.346-0.796-0.746-1.175-1.127c-0.473-0.473-0.932-0.96-1.388-1.451c-0.481-0.515-0.956-1.031-1.425-1.556
	c-0.43-0.48-0.861-0.956-1.3-1.426c0.127-0.137,0.256-0.272,0.377-0.413c0.24-0.283,0.493-0.556,0.74-0.832
	c0.156-0.171,0.304-0.348,0.455-0.525c0.673,0.639,1.348,1.276,2.04,1.898c0.622,0.558,1.253,1.111,1.843,1.703
	c0.594,0.596,1.188,1.192,1.768,1.8c0.589,0.617,1.174,1.236,1.71,1.9c0.118,0.153,0.238,0.312,0.321,0.48
	c0.057,0.115,0.143,0.205,0.243,0.275C16.74,23.38,16.65,23.483,16.561,23.588z M21.518,18.001c-0.552,0.63-1.117,1.243-1.681,1.861
	c-0.582,0.634-1.156,1.275-1.728,1.918c-0.04,0.045-0.078,0.092-0.117,0.137l0,0c-0.099-0.127-0.238-0.226-0.352-0.339
	c-0.152-0.148-0.301-0.301-0.447-0.453c-0.327-0.344-0.649-0.689-0.972-1.035c-0.582-0.62-1.174-1.231-1.754-1.855
	c-0.632-0.675-1.281-1.333-1.942-1.98c-0.689-0.671-1.364-1.358-2.047-2.035c-0.116-0.114-0.233-0.228-0.351-0.344
	c0.556-0.582,1.127-1.148,1.69-1.724c0.57-0.588,1.186-1.127,1.77-1.701c0.42-0.414,0.841-0.824,1.277-1.222
	c0.307-0.28,0.62-0.556,0.932-0.833c0.084,0.083,0.164,0.168,0.249,0.25c0.301,0.291,0.61,0.576,0.901,0.875
	c0.287,0.299,0.564,0.608,0.847,0.911c0.58,0.626,1.174,1.237,1.774,1.845c0.305,0.309,0.608,0.624,0.899,0.946
	c0.281,0.313,0.544,0.641,0.82,0.96c0.307,0.352,0.618,0.691,0.966,1.004c0.314,0.284,0.604,0.586,0.903,0.883
	C22.612,16.718,22.075,17.367,21.518,18.001z M26.626,15.32c-0.216,0.244-0.447,0.475-0.675,0.711
	c-0.091,0.093-0.185,0.185-0.277,0.279c-0.383-0.356-0.748-0.735-1.108-1.11c-0.523-0.541-1.077-1.045-1.61-1.574
	c-0.592-0.59-1.091-1.265-1.657-1.879c-0.588-0.638-1.196-1.255-1.78-1.895c-0.327-0.36-0.647-0.727-0.988-1.075
	c-0.329-0.335-0.671-0.657-0.99-1.004c-0.594-0.65-1.183-1.303-1.757-1.971c0.052-0.066,0.109-0.129,0.16-0.196
	c-0.042,0.053-0.083,0.109-0.125,0.162c0.448-0.573,0.962-1.112,1.533-1.564c0.176-0.135,0.353-0.27,0.53-0.405
	c0.643,0.581,1.293,1.154,1.94,1.731c0.311,0.277,0.62,0.556,0.919,0.845c0.305,0.297,0.588,0.614,0.873,0.927
	c0.56,0.612,1.121,1.229,1.701,1.821c0.582,0.596,1.16,1.194,1.73,1.804c0.865,0.924,1.753,1.83,2.555,2.81
	c0.055,0.072,0.108,0.146,0.164,0.218C27.391,14.415,27.019,14.876,26.626,15.32z"/>
</svg>