<?xml version="1.0" encoding="utf-8"?>
<!-- Generator: Adobe Illustrator 21.1.0, SVG Export Plug-In . SVG Version: 6.00 Build 0)  -->
<svg version="1.1" id="designs" xmlns="http://www.w3.org/2000/svg" xmlns:xlink="http://www.w3.org/1999/xlink" x="0px" y="0px"
	 width="32px" height="32px" viewBox="0 0 32 32" style="enable-background:new 0 0 32 32;" xml:space="preserve">
<style type="text/css">
	.sketchy_een{fill:#111918;}
</style>
<path class="sketchy_een" d="M27.808,24.042c-0.021-0.357-0.112-0.702-0.224-1.04c-0.141-0.428-0.365-0.808-0.604-1.186
	c-0.436-0.692-0.883-1.377-1.373-2.035c-0.278-0.374-0.596-0.712-0.897-1.067c-0.266-0.314-0.546-0.615-0.829-0.914
	c-0.261-0.276-0.509-0.557-0.749-0.853c-0.252-0.328-0.503-0.656-0.763-0.977c-0.119-0.169-0.22-0.344-0.309-0.531
	c-0.145-0.391-0.229-0.793-0.293-1.206c-0.091-0.803-0.108-1.612-0.113-2.42c-0.006-0.793,0.004-1.584,0.017-2.376
	c0.013-0.764-0.027-1.526-0.039-2.289c-0.01-0.775-0.008-1.553,0.019-2.328c0.015-0.457,0.052-0.914,0.068-1.371
	c0.004-0.113-0.027-0.217-0.074-0.314c0.022-0.075,0.047-0.149,0.047-0.234c0-0.447-0.392-0.889-0.86-0.86
	c-0.442,0.027-0.883,0.066-1.325,0.079c-0.417,0.013-0.831,0.019-1.248,0.021c-0.837,0.006-1.674-0.006-2.511-0.037
	c-0.839-0.031-1.678-0.058-2.519-0.06c-0.858-0.002-1.713,0.019-2.569,0.025C8.983,2.081,7.311,2.035,5.637,2
	C5.631,2,5.626,2,5.621,2C5.375,2,5.162,2.125,5.014,2.305C4.588,2.314,4.249,2.666,4.241,3.09C4.22,4.751,4.226,6.414,4.193,8.074
	c-0.031,1.531-0.006,3.063-0.01,4.594c-0.002,1.549-0.027,3.101,0.035,4.65c0.031,0.799,0.11,1.612,0.326,2.384
	c0.118,0.419,0.309,0.812,0.505,1.2c0.172,0.336,0.363,0.665,0.565,0.986c0.208,0.328,0.438,0.637,0.671,0.947
	c0.243,0.324,0.476,0.654,0.735,0.962c0.494,0.594,1.032,1.148,1.564,1.705c0.253,0.264,0.494,0.534,0.729,0.814
	c0.239,0.285,0.463,0.584,0.721,0.852c0.231,0.241,0.471,0.471,0.723,0.689c0.326,0.284,0.667,0.561,1.034,0.793
	c0.37,0.233,0.76,0.413,1.171,0.567c0.332,0.123,0.673,0.239,1.018,0.32c0.43,0.102,0.874,0.177,1.313,0.21
	c0.172,0.013,0.347,0.031,0.521,0.019c0.249-0.015,0.498-0.052,0.745-0.096c0.455-0.081,0.86-0.316,1.232-0.577
	c0.357-0.247,0.66-0.567,0.972-0.864c0.073-0.069,0.136-0.147,0.207-0.217c0.113,0.132,0.217,0.273,0.338,0.4
	c0.289,0.305,0.609,0.565,0.957,0.8c0.349,0.233,0.748,0.382,1.138,0.53c0.415,0.156,0.854,0.216,1.294,0.249
	c0.426,0.029,0.86-0.027,1.279-0.102c0.305-0.054,0.604-0.206,0.876-0.349c0.164-0.087,0.314-0.204,0.463-0.316
	c0.384-0.287,0.737-0.588,1.07-0.934c0.307-0.314,0.557-0.685,0.781-1.061c0.127-0.214,0.218-0.455,0.309-0.685
	c0.081-0.199,0.143-0.405,0.199-0.611c0.114-0.413,0.148-0.845,0.148-1.271C27.823,24.457,27.819,24.25,27.808,24.042z
	 M19.628,3.833c0.199-0.002,0.398-0.022,0.597-0.035c-0.013,0.247-0.031,0.494-0.042,0.741c-0.017,0.366-0.012,0.735-0.015,1.101
	c-0.005,0.473-0.006,0.946-0.008,1.419c-0.461-0.012-0.923-0.019-1.384-0.03c-0.007-1.063,0.084-2.125,0.051-3.192
	C19.094,3.837,19.361,3.837,19.628,3.833z M14.27,4.084c-0.008-0.117-0.019-0.234-0.032-0.352c0.185,0.006,0.371,0.012,0.556,0.018
	c-0.001,0.019-0.012,0.038-0.011,0.056c0.064,0.687,0.123,1.373,0.141,2.064c0.01,0.38,0.025,0.76,0.049,1.138
	c-0.272,0.002-0.544,0.002-0.816,0.005c0.047-0.69,0.111-1.381,0.13-2.075C14.297,4.655,14.29,4.37,14.27,4.084z M16.413,6.999
	c-0.006-0.149-0.015-0.297-0.015-0.446c-0.002-0.291-0.004-0.582,0.002-0.872c0.015-0.629,0.031-1.248-0.012-1.875
	c0-0.002-0.001-0.003-0.001-0.004c0.283,0.009,0.565,0.009,0.848,0.014c0.036,0.588,0.083,1.176,0.081,1.764
	c-0.003,0.475-0.006,0.948-0.003,1.421C17.013,7,16.713,7,16.413,6.999z M6.832,5.563c0.016,0.484,0.019,0.968-0.016,1.451
	C6.458,7.001,6.098,6.998,5.74,6.974c0.002-0.168-0.003-0.335,0-0.503c0.016-0.943,0.044-1.885,0.066-2.827
	C6.13,3.649,6.453,3.649,6.777,3.651C6.787,4.289,6.808,4.925,6.832,5.563z M17.704,27.138c-0.244,0.233-0.483,0.47-0.741,0.687
	c-0.166,0.11-0.334,0.208-0.511,0.294c-0.146,0.048-0.291,0.081-0.442,0.106c-0.355,0.034-0.708,0.021-1.063-0.019
	c-0.337-0.054-0.663-0.138-0.985-0.237c0.061-0.236,0.13-0.47,0.219-0.697c0.159-0.33,0.342-0.637,0.555-0.933
	c0.377-0.435,0.802-0.811,1.252-1.166c0.346-0.243,0.699-0.456,1.082-0.63c0.44-0.172,0.884-0.329,1.352-0.409
	c0.086-0.009,0.171-0.018,0.257-0.027c0.025,0.103,0.057,0.204,0.076,0.307c0.02,0.282,0.02,0.562,0.002,0.844
	c-0.043,0.27-0.102,0.538-0.193,0.796c-0.051,0.104-0.115,0.2-0.176,0.297c-0.042,0.056-0.087,0.109-0.113,0.173
	C18.095,26.738,17.907,26.942,17.704,27.138z M26.089,25.245c-0.053,0.307-0.137,0.602-0.245,0.894
	c-0.134,0.286-0.293,0.55-0.478,0.81c-0.26,0.307-0.553,0.584-0.867,0.836c-0.217,0.16-0.436,0.308-0.678,0.431
	c-0.145,0.052-0.291,0.091-0.442,0.119c-0.288,0.027-0.574,0.028-0.863,0.003c-0.361-0.064-0.703-0.178-1.044-0.312
	c-0.228-0.105-0.443-0.23-0.65-0.371c-0.336-0.28-0.617-0.617-0.889-0.96c0.09-0.213,0.169-0.43,0.22-0.663
	c0.16-0.733,0.166-1.51-0.023-2.237c-0.176-0.683-0.474-1.341-0.8-1.962c-0.303-0.581-0.719-1.078-1.128-1.585
	c-0.413-0.511-0.872-0.972-1.315-1.454c-0.26-0.284-0.733-0.262-0.997,0c-0.276,0.276-0.264,0.719,0,0.997
	c0.27,0.282,0.548,0.554,0.81,0.843c0.217,0.24,0.419,0.489,0.618,0.744c0.195,0.252,0.396,0.502,0.566,0.772
	c0.107,0.169,0.199,0.347,0.286,0.529c-0.176,0.026-0.351,0.061-0.52,0.114c-0.16,0.05-0.32,0.1-0.476,0.158
	c-0.332,0.123-0.658,0.26-0.98,0.407c-0.584,0.264-1.088,0.665-1.574,1.076c-0.501,0.426-0.941,0.92-1.31,1.464
	c-0.302,0.447-0.508,0.947-0.695,1.452c-0.085-0.056-0.178-0.097-0.261-0.157c-0.389-0.311-0.756-0.643-1.102-1.002
	c-0.393-0.407-0.717-0.878-1.088-1.306c-0.73-0.849-1.559-1.605-2.258-2.482c-0.214-0.28-0.429-0.558-0.645-0.835
	c-0.428-0.58-0.776-1.211-1.079-1.864c-0.133-0.365-0.225-0.74-0.289-1.122c-0.171-1.462-0.134-2.94-0.132-4.41
	c0.004-1.528-0.008-3.057-0.023-4.585C5.735,9.281,5.74,8.975,5.738,8.67c0.799,0.044,1.6,0.046,2.399,0.042
	c0.82-0.002,1.641,0.017,2.459,0.039c0.449,0.012,0.824-0.384,0.824-0.824c0-0.473-0.376-0.795-0.824-0.826
	c-0.255-0.015-0.511-0.013-0.766-0.013C9.68,7.089,9.53,7.089,9.38,7.086C9.028,7.077,8.676,7.07,8.324,7.067
	c0-0.002,0-0.003,0-0.005C8.322,7.056,8.321,7.051,8.32,7.045c-0.051-0.513-0.023-1.036-0.003-1.55
	C8.34,4.884,8.363,4.273,8.369,3.661c0.331,0,0.662,0.002,0.994,0.002c0.014,0.703,0.04,1.407,0.043,2.108
	c0.002,0.426,0.355,0.783,0.783,0.783c0.432,0,0.772-0.357,0.781-0.783c0.016-0.701,0.054-1.403,0.06-2.105c0.071,0,0.142,0,0.213,0
	c0.488,0.002,0.975,0.018,1.462,0.029c0.001,0.008,0.004,0.016,0.005,0.025c0.075,0.697,0.05,1.399-0.015,2.096
	c-0.071,0.77-0.112,1.539-0.158,2.311c-0.089,1.518-0.272,3.028-0.22,4.552c0.025,0.708,0.019,1.441,0.214,2.129
	c0.098,0.351,0.218,0.702,0.384,1.028c0.164,0.328,0.388,0.621,0.6,0.918c0.129,0.177,0.266,0.312,0.486,0.372
	c0.208,0.058,0.436,0.027,0.623-0.083c0.181-0.106,0.318-0.282,0.372-0.484c0.054-0.191,0.041-0.457-0.081-0.623
	c-0.255-0.353-0.52-0.69-0.707-1.083c-0.122-0.32-0.212-0.645-0.267-0.984c-0.163-1.441-0.032-2.907,0.073-4.348
	c0.018-0.249,0.028-0.499,0.041-0.749c1.143-0.023,2.288-0.055,3.43-0.072c0.471-0.008,0.941-0.013,1.412-0.002
	c0.415,0.011,0.831,0.056,1.246,0.085c-0.001,0.093,0,0.186-0.003,0.279c-0.01,0.417-0.039,0.831-0.056,1.246
	c-0.035,0.81-0.041,1.624-0.031,2.434c0.012,0.818,0.069,1.626,0.197,2.434c0.056,0.347,0.152,0.673,0.282,0.999
	c0.081,0.206,0.172,0.413,0.289,0.6c0.095,0.152,0.204,0.293,0.314,0.433c0.201,0.267,0.386,0.545,0.586,0.813
	c0.278,0.37,0.565,0.717,0.885,1.049c0.278,0.291,0.554,0.584,0.822,0.883c0.256,0.285,0.519,0.564,0.761,0.859
	c0.25,0.331,0.486,0.672,0.72,1.015c-0.204,0.036-0.406,0.077-0.606,0.138c-0.415,0.127-0.824,0.32-1.205,0.527
	c-0.311,0.166-0.604,0.386-0.883,0.6c-0.338,0.258-0.654,0.53-0.949,0.837c-0.307,0.32-0.318,0.833,0,1.151
	c0.307,0.307,0.849,0.324,1.153,0c0.248-0.263,0.49-0.524,0.767-0.756c0.161-0.12,0.325-0.239,0.5-0.338
	c0.216-0.123,0.438-0.23,0.664-0.332c0.174-0.067,0.348-0.131,0.526-0.185c0.191-0.057,0.385-0.09,0.582-0.122
	c0.07-0.008,0.139-0.016,0.209-0.023c0.06-0.006,0.112-0.024,0.167-0.036c0.019,0.037,0.044,0.071,0.062,0.108
	c0.081,0.222,0.15,0.447,0.195,0.68C26.13,24.464,26.121,24.86,26.089,25.245z"/>
</svg>