<?xml version="1.0" encoding="utf-8"?>
<!-- Generator: Adobe Illustrator 21.1.0, SVG Export Plug-In . SVG Version: 6.00 Build 0)  -->
<svg version="1.1" id="designs" xmlns="http://www.w3.org/2000/svg" xmlns:xlink="http://www.w3.org/1999/xlink" x="0px" y="0px"
	 width="32px" height="32px" viewBox="0 0 32 32" style="enable-background:new 0 0 32 32;" xml:space="preserve">
<style type="text/css">
	.sketchy_een{fill:#111918;}
</style>
<path class="sketchy_een" d="M26.022,25.527c-0.243-0.276-0.637-0.405-0.992-0.459c-0.185-0.027-0.372-0.045-0.559-0.06
	c0.001-0.01,0.006-0.019,0.007-0.029c0.015-0.445,0.006-0.891,0.004-1.336c-0.002-0.549,0.007-1.1,0.013-1.649
	c0.007-0.566,0.015-1.13,0.028-1.697c0.015-0.629,0.06-1.257,0.071-1.887c0.001-0.061-0.02-0.116-0.034-0.173
	c0.021-0.579,0.018-1.16,0.019-1.736c0.002-0.771-0.007-1.545-0.041-2.315c-0.015-0.357-0.03-0.712-0.047-1.069
	c-0.022-0.437-0.06-0.882-0.181-1.304c-0.103-0.357-0.224-0.708-0.334-1.062c-0.118-0.366-0.237-0.732-0.381-1.089
	c-0.172-0.426-0.368-0.824-0.622-1.205c-0.222-0.335-0.482-0.646-0.732-0.96c-0.435-0.546-0.964-1-1.472-1.474
	c-0.331-0.309-0.665-0.609-1.044-0.856c-0.208-0.134-0.432-0.235-0.634-0.38c-0.151-0.122-0.297-0.254-0.424-0.4
	c-0.007-0.012-0.014-0.024-0.021-0.036c-0.043-0.131-0.074-0.267-0.104-0.402c-0.067-0.303-0.187-0.584-0.329-0.859
	c-0.316-0.616-0.886-1.048-1.588-1.087C16.593,2.001,16.563,2,16.534,2c-0.286,0-0.561,0.08-0.817,0.21
	c-0.23,0.116-0.413,0.308-0.57,0.508c-0.153,0.194-0.291,0.385-0.404,0.605c-0.113,0.224-0.189,0.458-0.276,0.691
	c-0.025,0.049-0.054,0.097-0.085,0.143c-0.172,0.199-0.366,0.391-0.567,0.561c-0.536,0.381-1.165,0.611-1.747,0.913
	c-0.727,0.375-1.345,0.908-1.893,1.512c-0.566,0.622-1.067,1.33-1.39,2.109c-0.306,0.744-0.463,1.56-0.555,2.356
	c-0.08,0.713-0.067,1.423-0.056,2.139c0.011,0.738,0.024,1.476,0.045,2.214c0.022,0.773,0.002,1.547,0.015,2.319
	c0.013,0.753,0.049,1.506,0.075,2.257c0.026,0.734,0.071,1.465,0.08,2.199c0.007,0.608-0.002,1.215-0.001,1.822
	c-0.128,0.013-0.257,0.019-0.384,0.034c-0.267,0.032-0.534,0.06-0.796,0.12c-0.351,0.08-0.712,0.272-0.94,0.557
	c-0.135,0.17-0.243,0.333-0.338,0.527c-0.105,0.211-0.192,0.439-0.267,0.662c-0.127,0.377-0.187,0.762-0.187,1.16
	c0,0.211,0.022,0.43,0.08,0.633c0.077,0.273,0.202,0.48,0.374,0.699c0.142,0.181,0.348,0.325,0.533,0.456
	c0.192,0.138,0.419,0.224,0.643,0.299c0.392,0.131,0.802,0.187,1.214,0.209c0.757,0.041,1.517,0.022,2.274,0.017
	c0.742-0.005,1.484,0.024,2.225,0.039c1.416,0.032,2.832-0.005,4.249-0.007c0.716,0,1.429-0.007,2.145-0.007
	c0.693,0,1.388-0.019,2.081,0.005c0.695,0.024,1.39,0.051,2.085,0.038c0.376-0.007,0.76-0.069,1.128-0.133
	c0.131-0.022,0.263-0.046,0.392-0.075c0.189-0.039,0.374-0.127,0.544-0.213c0.282-0.142,0.529-0.428,0.699-0.688
	c0.181-0.278,0.252-0.604,0.305-0.925C26.579,27.149,26.603,26.187,26.022,25.527z M7.434,28.066
	c-0.013-0.01-0.027-0.021-0.04-0.032C7.408,28.045,7.421,28.056,7.434,28.066L7.434,28.066z M7.437,28.068L7.437,28.068
	c0.003,0.002,0.007,0.005,0.01,0.007C7.443,28.073,7.44,28.071,7.437,28.068z M24.989,27.496c-0.028,0.17-0.062,0.342-0.115,0.506
	c-0.016,0.03-0.033,0.059-0.051,0.087c-0.043,0.05-0.089,0.097-0.137,0.142c-0.025,0.015-0.051,0.029-0.078,0.043
	c-0.246,0.089-0.505,0.149-0.765,0.191c-0.65,0.069-1.299,0.055-1.953,0.033c-0.71-0.024-1.418-0.043-2.128-0.045
	c-1.383-0.007-2.765-0.021-4.148-0.013c-1.222,0.008-2.446-0.005-3.668-0.037c-0.648-0.017-1.297-0.026-1.947-0.045
	c-0.61-0.018-1.219-0.026-1.827-0.088c-0.222-0.038-0.436-0.093-0.647-0.169c-0.068-0.035-0.132-0.074-0.195-0.118
	c-0.05-0.042-0.099-0.086-0.145-0.133c-0.009-0.015-0.017-0.029-0.025-0.044c-0.014-0.046-0.025-0.092-0.035-0.138
	c-0.014-0.168-0.016-0.337-0.002-0.506c0.038-0.206,0.096-0.407,0.167-0.604c0.041-0.086,0.085-0.17,0.137-0.251
	c0.006-0.007,0.013-0.014,0.02-0.02c0.014-0.009,0.028-0.017,0.042-0.025c0.12-0.039,0.246-0.064,0.37-0.084
	c0.376-0.044,0.752-0.063,1.129-0.073c0.33-0.01,0.617-0.208,0.738-0.497c0.159-0.146,0.263-0.35,0.255-0.576
	c-0.026-0.809-0.041-1.616-0.05-2.425c-0.011-0.757-0.067-1.511-0.077-2.268c-0.009-0.748-0.058-1.493-0.075-2.242
	c-0.019-0.77-0.006-1.54-0.039-2.309c-0.03-0.721-0.028-1.444-0.035-2.167c-0.007-0.651,0-1.296,0.075-1.943
	c0.091-0.601,0.223-1.19,0.431-1.76c0.207-0.454,0.464-0.871,0.757-1.275c0.365-0.458,0.765-0.88,1.221-1.247
	c0.382-0.274,0.799-0.503,1.227-0.693c0.058-0.025,0.117-0.049,0.175-0.074c-0.037,0.015-0.074,0.031-0.111,0.046
	c0.597-0.254,1.193-0.55,1.658-1.012c0.234-0.234,0.469-0.458,0.65-0.736c0.141-0.214,0.215-0.463,0.305-0.702
	c0.079-0.168,0.17-0.33,0.278-0.481c0.042-0.053,0.086-0.104,0.134-0.151c0.011-0.006,0.021-0.013,0.032-0.019
	c0.01-0.003,0.019-0.005,0.029-0.008c0.017-0.001,0.034-0.001,0.051-0.001c0.007,0.002,0.014,0.004,0.022,0.006
	c0.022,0.012,0.044,0.024,0.066,0.038c0.025,0.024,0.049,0.049,0.072,0.076c0.067,0.101,0.125,0.207,0.177,0.316
	c0.084,0.231,0.125,0.47,0.188,0.708c0.015,0.056,0.034,0.112,0.056,0.167c0.08,0.207,0.157,0.331,0.297,0.508
	c0.088,0.112,0.192,0.213,0.295,0.314c0.206,0.204,0.45,0.398,0.691,0.559c0.168,0.111,0.341,0.208,0.506,0.323
	c0.396,0.332,0.738,0.725,1.106,1.085c0.209,0.206,0.42,0.408,0.617,0.626c0.166,0.186,0.32,0.382,0.473,0.579
	c0.173,0.225,0.341,0.453,0.491,0.691c0.152,0.239,0.275,0.488,0.389,0.744c0.151,0.394,0.285,0.793,0.411,1.195
	c0.128,0.409,0.28,0.808,0.357,1.23c0.076,0.67,0.104,1.352,0.121,2.023c0.021,0.764,0.017,1.526-0.009,2.291
	c-0.011,0.355-0.015,0.714-0.021,1.07c-0.008,0.365-0.03,0.729-0.037,1.095c-0.013,0.676-0.022,1.353-0.021,2.029
	c0,0.564,0.022,1.127,0.011,1.693c-0.002,0.11,0.031,0.211,0.079,0.305c-0.001,0.123-0.01,0.245-0.01,0.369
	c-0.002,0.449,0.001,0.901-0.024,1.351c-0.396-0.005-0.792-0.008-1.187-0.006c-0.26,0-0.518,0-0.775-0.002
	c-0.734-0.004-1.467-0.013-2.201-0.013c-0.703,0-1.407,0.017-2.109,0.026c-0.684,0.007-1.366,0-2.048,0.036
	c-0.669,0.035-1.338,0.034-2.008,0.043c-0.364,0.005-0.669,0.301-0.669,0.67c0,0.365,0.305,0.671,0.669,0.669
	c0.719-0.002,1.435-0.021,2.152-0.052c0.725-0.03,1.452-0.034,2.177-0.047c0.783-0.017,1.566-0.024,2.349-0.015
	c0.762,0.011,1.525,0.045,2.287,0.056c0.982,0.016,1.973,0.033,2.95,0.133c0.144,0.023,0.285,0.051,0.426,0.094
	c0.006,0.003,0.011,0.006,0.017,0.009c0.004,0.007,0.008,0.014,0.011,0.021c0.026,0.078,0.046,0.156,0.063,0.236
	C25.036,27.039,25.017,27.269,24.989,27.496z M20.01,13.209l0-0.002c-0.035-0.138-0.035-0.273,0.001-0.411
	c0.037-0.133,0.105-0.248,0.201-0.346c0.146-0.146,0.346-0.228,0.553-0.228s0.406,0.082,0.553,0.228
	c0.16,0.162,0.203,0.338,0.23,0.553c0.016,0.144,0.033,0.287,0.049,0.43c0.082,0.736,0.107,1.478,0.139,2.218
	c0.033,0.723,0.043,1.445,0.051,2.171c0.008,0.724,0.014,1.449,0.037,2.173c0.02,0.664,0.029,1.328,0.049,1.994
	c0.01,0.41-0.353,0.752-0.754,0.752s-0.765-0.342-0.754-0.752c0.02-0.666-0.029-1.331-0.045-1.994
	c-0.008-0.363-0.01-0.724-0.016-1.086c-0.006-0.339-0.029-0.677-0.037-1.013c-0.02-0.733-0.029-1.465-0.053-2.197
	c-0.01-0.359-0.012-0.722-0.043-1.078c-0.029-0.334-0.063-0.667-0.104-0.998c-0.016-0.117-0.032-0.236-0.049-0.354
	c-0.002-0.019-0.004-0.038-0.007-0.056C20.011,13.213,20.011,13.21,20.01,13.209z"/>
</svg>