<?xml version="1.0" encoding="utf-8"?>
<!-- Generator: Adobe Illustrator 21.1.0, SVG Export Plug-In . SVG Version: 6.00 Build 0)  -->
<svg version="1.1" id="designs" xmlns="http://www.w3.org/2000/svg" xmlns:xlink="http://www.w3.org/1999/xlink" x="0px" y="0px"
	 width="32px" height="32px" viewBox="0 0 32 32" style="enable-background:new 0 0 32 32;" xml:space="preserve">
<style type="text/css">
	.sketchy_een{fill:#111918;}
</style>
<path class="sketchy_een" d="M27.421,11.416c-0.056-0.123-0.109-0.248-0.177-0.363c-0.133-0.226-0.306-0.429-0.48-0.623
	c-0.359-0.401-0.79-0.737-1.267-0.983c-0.204-0.107-0.419-0.191-0.629-0.278c-0.085-0.036-0.175-0.062-0.264-0.089
	c-0.02-0.239-0.049-0.476-0.092-0.713c-0.063-0.351-0.177-0.685-0.373-0.985c-0.123-0.189-0.264-0.367-0.415-0.536
	c-0.145-0.161-0.332-0.294-0.498-0.431c-0.363-0.298-0.752-0.604-1.167-0.826c-0.822-0.447-1.703-0.705-2.611-0.911
	c-0.419-0.095-0.838-0.193-1.259-0.282c-0.417-0.089-0.818-0.222-1.217-0.371c-0.138-0.051-0.275-0.106-0.41-0.161
	c-0.389-0.188-0.733-0.443-1.077-0.703c-0.185-0.153-0.357-0.313-0.522-0.49c-0.234-0.254-0.451-0.566-0.81-0.643
	C14.062,2.009,13.975,2,13.891,2c-0.687,0-1.148,0.606-1.471,1.172c-0.308,0.536-0.524,1.118-0.629,1.727
	c-0.077,0.443-0.056,0.887,0.002,1.33C11.82,6.447,11.848,6.666,11.9,6.88c0.013,0.058,0.026,0.115,0.037,0.173
	c-0.029,0.026-0.058,0.052-0.088,0.078c-0.025,0.006-0.051,0.011-0.077,0.016c-0.186,0.02-0.374,0.034-0.56,0.055
	c-0.355,0.042-0.695,0.111-1.04,0.193c-0.56,0.135-1.136,0.274-1.64,0.558c-0.306,0.171-0.59,0.397-0.864,0.615
	c-0.272,0.216-0.49,0.48-0.683,0.768c-0.268,0.399-0.357,0.83-0.415,1.296c-0.036,0.283-0.038,0.57-0.059,0.855
	c-0.003,0.015-0.007,0.029-0.01,0.043c-0.016,0.016-0.031,0.031-0.048,0.047c-0.099,0.069-0.201,0.134-0.303,0.196
	c-0.228,0.141-0.439,0.298-0.651,0.461c-0.435,0.338-0.764,0.746-1.005,1.241c-0.256,0.534-0.401,1.143-0.375,1.737
	c0.018,0.373,0.101,0.727,0.236,1.074c0.081,0.212,0.179,0.419,0.284,0.623c0.189,0.371,0.459,0.691,0.735,1.003
	c0.079,0.09,0.178,0.152,0.283,0.197c-0.089,0.194-0.097,0.384-0.065,0.598c0.27,1.763,0.673,3.504,1.048,5.247
	c0.171,0.8,0.336,1.6,0.506,2.398c0.161,0.752,0.332,1.503,0.494,2.253c0.02,0.087,0.038,0.173,0.054,0.26
	c0.006,0.031,0.028,0.053,0.038,0.082C7.72,29.006,7.698,29.06,7.698,29.12c0,0.457,0.381,0.838,0.838,0.838
	c0.875,0.002,1.749-0.02,2.625-0.028c0.885-0.006,1.771-0.01,2.656-0.026c1.664-0.032,3.331,0.048,4.997,0.081
	c0.359,0.01,0.723,0.008,1.084,0.008c0.24,0,0.48,0,0.723,0.002c0.274,0.002,0.548,0.008,0.82,0.002
	c0.109-0.002,0.218-0.006,0.328-0.01c0.262-0.01,0.453-0.06,0.687-0.175c0.32-0.158,0.46-0.568,0.389-0.903
	c0.208-0.104,0.376-0.285,0.45-0.521c0.05-0.155,0.071-0.318,0.105-0.476c0.044-0.206,0.097-0.413,0.147-0.617
	c0.083-0.361,0.151-0.727,0.218-1.09c0.151-0.82,0.304-1.636,0.461-2.454c0.151-0.798,0.294-1.598,0.439-2.398
	c0.151-0.826,0.312-1.65,0.457-2.478c0.026-0.159,0.054-0.318,0.081-0.476c0.031-0.193,0.019-0.366-0.05-0.54
	c0.142-0.049,0.285-0.1,0.42-0.165c0.653-0.318,1.185-0.911,1.586-1.503c0.23-0.341,0.363-0.741,0.472-1.136
	c0.115-0.421,0.191-0.84,0.234-1.275C27.947,12.953,27.761,12.167,27.421,11.416z M23.162,20.585
	c-0.149,0.812-0.3,1.626-0.453,2.438c-0.153,0.808-0.304,1.62-0.472,2.426c-0.157,0.742-0.292,1.491-0.474,2.229
	c-0.024,0.089-0.052,0.179-0.087,0.264c-0.04,0.095-0.043,0.211-0.026,0.325c-0.453,0.023-0.908,0.033-1.362,0.032
	c0.083-0.54,0.18-1.079,0.287-1.614c0.135-0.677,0.268-1.35,0.383-2.031c0.107-0.635,0.224-1.269,0.343-1.902
	c0.141-0.758,0.284-1.513,0.361-2.279c0.02-0.201-0.097-0.427-0.234-0.564c-0.147-0.149-0.351-0.232-0.562-0.232
	c-0.21,0-0.413,0.083-0.562,0.232c-0.161,0.159-0.214,0.345-0.234,0.564c-0.016,0.181-0.034,0.361-0.054,0.544
	c0.002-0.011,0.003-0.022,0.005-0.033c-0.012,0.091-0.024,0.181-0.036,0.272c0.003-0.021,0.005-0.043,0.008-0.064
	c-0.079,0.59-0.199,1.173-0.314,1.755c-0.117,0.592-0.232,1.185-0.344,1.777c-0.109,0.58-0.224,1.155-0.347,1.731
	c-0.121,0.558-0.218,1.122-0.322,1.684c-0.01,0.056-0.006,0.108-0.009,0.162c-0.41,0-0.821,0-1.231,0
	c-0.844,0-1.685-0.036-2.527-0.028c-0.435,0.006-0.868,0.03-1.3,0.038c-0.419,0.008-0.836,0.01-1.253,0.012
	c-1.024,0.006-2.047-0.014-3.071-0.03C9.198,28,9.113,27.711,9.043,27.417c-0.093-0.389-0.181-0.78-0.264-1.173
	c-0.171-0.796-0.351-1.59-0.508-2.39c-0.083-0.419-0.177-0.834-0.268-1.249c-0.095-0.427-0.159-0.862-0.236-1.29
	c-0.155-0.868-0.306-1.733-0.425-2.607c-0.022-0.155-0.042-0.31-0.064-0.465c-0.003-0.02-0.014-0.04-0.02-0.06
	c0.518,0,1.037-0.005,1.555-0.005c0.81,0.002,1.622,0.002,2.432-0.002c0.806-0.004,1.612-0.002,2.418-0.004
	c0.858-0.002,1.713-0.008,2.571,0.038c0.82,0.042,1.638,0.044,2.458,0.044c0.796,0.002,1.59,0.004,2.384,0.002
	c0.179,0,0.359,0,0.54,0.002c0.564,0.002,1.128,0.006,1.691-0.05c0.079-0.007,0.16-0.018,0.241-0.026
	C23.425,18.984,23.307,19.786,23.162,20.585z M26.067,13.943c-0.059,0.367-0.151,0.733-0.28,1.083
	c-0.079,0.154-0.172,0.297-0.274,0.437c-0.156,0.193-0.33,0.377-0.518,0.54c-0.101,0.069-0.207,0.132-0.317,0.187
	c-0.359,0.136-0.739,0.239-1.117,0.302c-0.719,0.087-1.446,0.092-2.171,0.098c-0.778,0.008-1.558,0.01-2.339,0.022
	c-0.812,0.012-1.626,0.022-2.438-0.004c-0.419-0.012-0.838-0.034-1.257-0.038c-0.423-0.006-0.846-0.004-1.269-0.006
	c-1.294-0.006-2.591-0.012-3.885-0.012c-1.186,0.002-2.37,0.016-3.555-0.018c-0.069-0.077-0.139-0.154-0.206-0.233
	c-0.162-0.232-0.3-0.477-0.419-0.733c-0.032-0.091-0.059-0.181-0.081-0.275c-0.012-0.137-0.018-0.274-0.011-0.413
	c0.031-0.173,0.072-0.34,0.13-0.509c0.068-0.148,0.143-0.292,0.232-0.43c0.121-0.138,0.254-0.266,0.395-0.385
	c0.366-0.257,0.777-0.444,1.11-0.743c0.256-0.232,0.455-0.576,0.512-0.917c0.052-0.309,0.07-0.62,0.101-0.931
	c0.028-0.165,0.067-0.326,0.119-0.485c0.036-0.068,0.076-0.133,0.118-0.196c0.13-0.147,0.274-0.279,0.427-0.404
	c0.175-0.125,0.356-0.237,0.549-0.332c0.085-0.03,0.172-0.054,0.259-0.08c0.204-0.062,0.407-0.131,0.617-0.181
	c0.315-0.074,0.628-0.142,0.948-0.194c0.289-0.027,0.578-0.031,0.865-0.086c0.359-0.065,0.627-0.296,0.881-0.54
	c0.28-0.27,0.548-0.562,0.621-0.959c0.088-0.472-0.06-0.927-0.142-1.389c-0.029-0.277-0.04-0.558-0.02-0.836
	c0.054-0.273,0.131-0.54,0.231-0.801c0.024-0.056,0.049-0.113,0.075-0.17c0.227,0.225,0.488,0.422,0.737,0.614
	c0.153,0.117,0.306,0.232,0.465,0.344c0.294,0.202,0.631,0.328,0.961,0.461c0.308,0.125,0.617,0.246,0.931,0.355
	c0.333,0.117,0.675,0.195,1.018,0.282c0.332,0.083,0.663,0.167,0.997,0.246c0.612,0.146,1.227,0.315,1.813,0.547
	c0.507,0.24,0.962,0.566,1.407,0.906c0.096,0.085,0.181,0.177,0.263,0.276c0.046,0.064,0.089,0.13,0.126,0.199
	c0.065,0.195,0.109,0.4,0.143,0.603c0.009,0.087,0.016,0.174,0.021,0.263c0.018,0.242,0.085,0.455,0.262,0.629
	c0.033,0.034,0.078,0.051,0.117,0.078c0.1,0.388,0.44,0.703,0.855,0.7c0.058,0.016,0.115,0.035,0.171,0.056
	c0.254,0.118,0.508,0.247,0.738,0.406c0.213,0.186,0.408,0.385,0.588,0.601c0.127,0.189,0.232,0.396,0.326,0.605
	c0.085,0.223,0.147,0.448,0.191,0.681C26.112,13.427,26.095,13.685,26.067,13.943z M16.667,24.981c0,0.003-0.001,0.005-0.001,0.008
	l0,0C16.666,24.986,16.667,24.984,16.667,24.981z M18.622,21.062c0.119,0.205,0.115,0.397,0.081,0.621
	c-0.06,0.404-0.125,0.808-0.182,1.212c-0.074,0.571-0.157,1.14-0.236,1.709c-0.034,0.264-0.065,0.53-0.108,0.792
	c-0.042,0.254-0.071,0.504-0.189,0.739c-0.189,0.377-0.711,0.48-1.056,0.278c-0.29-0.171-0.459-0.544-0.355-0.873
	c0.049-0.153,0.061-0.327,0.08-0.489c0.003-0.02,0.005-0.04,0.008-0.059c0-0.001,0-0.002,0-0.002
	c0.073-0.532,0.158-1.061,0.232-1.592c0.088-0.714,0.156-1.43,0.253-2.142c0.028-0.193,0.21-0.387,0.371-0.48
	c0.123-0.073,0.264-0.11,0.406-0.11c0.072,0,0.143,0.01,0.213,0.029C18.342,20.749,18.517,20.884,18.622,21.062z"/>
</svg>