<?xml version="1.0" encoding="utf-8"?>
<!-- Generator: Adobe Illustrator 21.1.0, SVG Export Plug-In . SVG Version: 6.00 Build 0)  -->
<svg version="1.1" id="designs" xmlns="http://www.w3.org/2000/svg" xmlns:xlink="http://www.w3.org/1999/xlink" x="0px" y="0px"
	 width="32px" height="32px" viewBox="0 0 32 32" style="enable-background:new 0 0 32 32;" xml:space="preserve">
<style type="text/css">
	.sketchy_een{fill:#111918;}
</style>
<path class="sketchy_een" d="M28.17,6.046c0-0.424-0.347-0.753-0.763-0.763c-0.055-0.001-0.11-0.002-0.165-0.002
	c-0.306,0-0.612,0.016-0.917,0.017c-0.352,0.002-0.703,0.006-1.056,0.012c-0.743,0.012-1.487,0.031-2.23,0.058
	c-0.772,0.027-1.547,0.017-2.319,0.023c-0.767,0.006-1.533,0.002-2.3,0.013c-0.794,0.012-1.587,0.056-2.383,0.081
	c-0.747,0.027-1.493-0.017-2.242-0.021c-0.378-0.003-0.757,0.011-1.135,0.016c-0.014-0.107-0.048-0.212-0.106-0.309
	c-0.204-0.341-0.372-0.69-0.528-1.056c-0.166-0.385-0.385-0.747-0.686-1.044c-0.227-0.227-0.512-0.403-0.794-0.557
	c-0.383-0.21-0.778-0.376-1.211-0.439c-0.221-0.031-0.443-0.06-0.664-0.071C8.601,2.002,8.53,2,8.459,2
	c-0.243,0-0.48,0.022-0.725,0.058c-0.433,0.062-0.84,0.216-1.227,0.414C6.13,2.666,5.806,2.961,5.504,3.254
	C5.194,3.556,4.922,3.88,4.67,4.232C4.329,4.704,4.055,5.245,3.928,5.814c-0.062,0.273-0.077,0.56-0.091,0.84
	C3.83,6.823,3.822,6.996,3.843,7.166C3.87,7.393,3.899,7.613,3.963,7.834c0.064,0.221,0.15,0.433,0.243,0.645
	c0.071,0.16,0.168,0.31,0.262,0.457c0.16,0.25,0.337,0.493,0.541,0.711c0.144,0.152,0.326,0.281,0.495,0.403
	c0.141,0.098,0.285,0.187,0.437,0.268c0.198,0.106,0.414,0.196,0.626,0.268c0.229,0.077,0.46,0.114,0.699,0.144
	c0.154,0.019,0.308,0.035,0.464,0.044c0.285,0.021,0.564-0.013,0.844-0.073c0.175-0.039,0.347-0.11,0.514-0.175
	c0.233-0.092,0.449-0.195,0.649-0.345c0.027-0.021,0.046-0.044,0.071-0.065c0.319,0.376,0.633,0.755,0.967,1.118
	c0.532,0.58,1.071,1.156,1.614,1.726c0.547,0.574,1.057,1.177,1.579,1.774c0.543,0.62,1.111,1.217,1.655,1.836
	c0.262,0.299,0.516,0.603,0.767,0.911c0.186,0.231,0.366,0.469,0.56,0.694c0.075,0.807,0.114,1.614,0.114,2.427
	c0,0.742-0.004,1.485,0.004,2.229c0.017,1.475-0.004,2.951,0.006,4.428c0.003,0.34,0.008,0.68,0.01,1.02
	c-0.025,0-0.05-0.001-0.075-0.001c-0.372,0-0.744,0.006-1.115,0.016c-0.699,0.019-1.398-0.002-2.098-0.006
	c-0.433-0.004-0.796,0.362-0.796,0.795c0,0.431,0.362,0.797,0.796,0.794c0.688-0.004,1.373-0.04,2.061-0.035
	c0.639,0.006,1.279,0.015,1.918,0.017c0.618,0.002,1.235,0.021,1.849,0.062c0.324,0.021,0.647,0.037,0.971,0.042
	c0.31,0.004,0.618,0.033,0.926,0.039c0.433,0.008,0.794-0.366,0.794-0.794c0-0.441-0.362-0.778-0.794-0.792
	c-0.614-0.019-1.229-0.019-1.845-0.062c-0.367-0.026-0.737-0.03-1.106-0.04c0.003-0.517,0.002-1.033,0.005-1.551
	c0.004-0.72,0.033-1.439,0.04-2.157c0.019-1.552,0.037-3.105,0.056-4.657c0.008-0.64-0.006-1.277-0.06-1.914
	c0.443-0.409,0.813-0.909,1.183-1.38c0.485-0.618,0.971-1.233,1.47-1.841c0.493-0.605,1.005-1.194,1.495-1.805
	c0.476-0.595,0.98-1.165,1.464-1.755c0.158-0.193,0.325-0.379,0.486-0.57c0.262-0.088,0.453-0.306,0.498-0.585
	c0.859-1.004,1.734-1.995,2.632-2.965c0.18-0.195,0.244-0.453,0.205-0.698C28.117,6.314,28.17,6.183,28.17,6.046z M14.836,6.927
	c0.794,0.002,1.585-0.013,2.377-0.048c0.977-0.039,1.953-0.033,2.932-0.027c0.57,0.004,1.14,0.006,1.71,0
	c0.761-0.008,1.522-0.054,2.282-0.062c0.638-0.005,1.277-0.009,1.915-0.01c-0.319,0.374-0.643,0.745-0.959,1.122
	c-0.383,0.458-0.77,0.911-1.15,1.371c-0.14,0.01-0.28,0.024-0.42,0.029c-0.37,0.013-0.742,0.021-1.113,0.037
	c-0.699,0.029-1.398,0.05-2.099,0.052c-1.525,0-3.051,0.023-4.576,0.012c-0.763-0.006-1.525-0.006-2.288-0.037
	c-0.817-0.032-1.636-0.084-2.455-0.108c-0.448-0.541-0.887-1.091-1.321-1.644C9.513,7.408,9.357,7.204,9.2,7
	c0.369-0.004,0.738-0.009,1.108-0.012c0.745-0.004,1.489-0.052,2.236-0.062c0.397-0.006,0.794-0.012,1.19-0.015
	C14.102,6.907,14.468,6.927,14.836,6.927z M8.114,9.173c-0.196,0.011-0.39-0.004-0.585-0.027C7.314,9.111,7.107,9.06,6.902,8.985
	C6.722,8.9,6.552,8.8,6.389,8.685C6.276,8.589,6.17,8.488,6.072,8.376C5.909,8.142,5.758,7.901,5.634,7.644
	C5.562,7.448,5.506,7.248,5.469,7.042C5.448,6.782,5.45,6.519,5.475,6.258c0.031-0.165,0.074-0.324,0.13-0.482
	C5.756,5.45,5.953,5.147,6.167,4.858c0.23-0.267,0.481-0.515,0.751-0.744c0.171-0.121,0.35-0.227,0.54-0.318
	C7.643,3.73,7.83,3.689,8.021,3.656c0.256-0.02,0.511-0.004,0.766,0.023c0.165,0.029,0.329,0.064,0.489,0.118
	c0.282,0.129,0.564,0.282,0.819,0.46c0.06,0.054,0.117,0.11,0.17,0.171c0.148,0.219,0.268,0.451,0.37,0.695
	c0.056,0.132,0.128,0.253,0.189,0.381C10.283,5.505,9.742,5.495,9.2,5.484c-0.43-0.01-0.859-0.01-1.291-0.01
	c-0.42,0-0.768,0.349-0.768,0.77c0,0.22,0.102,0.42,0.258,0.562c-0.014,0.104-0.027,0.208,0,0.312
	c0.037,0.133,0.104,0.248,0.202,0.347C7.995,7.964,8.403,8.449,8.81,8.935C8.767,8.961,8.725,8.991,8.679,9.014
	C8.494,9.08,8.306,9.133,8.114,9.173z M20.753,13.225c-0.566,0.691-1.125,1.387-1.672,2.092c-0.268,0.345-0.534,0.688-0.811,1.021
	c-0.141,0.17-0.292,0.338-0.449,0.499c-0.335-0.394-0.655-0.802-0.997-1.189c-0.501-0.57-1.031-1.111-1.539-1.674
	c-0.537-0.597-1.055-1.21-1.61-1.789c-0.452-0.473-0.906-0.941-1.354-1.417c1.056,0.014,2.112,0.032,3.168,0.024
	c0.772-0.006,1.543-0.021,2.313-0.027c0.753-0.006,1.506,0.002,2.259,0.002c0.759,0.002,1.516,0.002,2.273-0.017
	c0.136-0.004,0.272-0.006,0.409-0.01c-0.183,0.225-0.363,0.451-0.547,0.674C21.707,12.012,21.243,12.628,20.753,13.225z"/>
</svg>