<?xml version="1.0" encoding="utf-8"?>
<!-- Generator: Adobe Illustrator 21.1.0, SVG Export Plug-In . SVG Version: 6.00 Build 0)  -->
<svg version="1.1" id="designs" xmlns="http://www.w3.org/2000/svg" xmlns:xlink="http://www.w3.org/1999/xlink" x="0px" y="0px"
	 width="32px" height="32px" viewBox="0 0 32 32" style="enable-background:new 0 0 32 32;" xml:space="preserve">
<style type="text/css">
	.sketchy_een{fill:#111918;}
</style>
<path class="sketchy_een" d="M29.886,15.48c-0.119-0.203-0.286-0.296-0.497-0.382c-0.11-0.045-0.23-0.06-0.353-0.06
	c-0.187,0-0.381,0.036-0.555,0.056c-0.207,0.024-0.414,0.038-0.621,0.052c-0.071-0.256-0.148-0.509-0.24-0.76
	c-0.144-0.395-0.319-0.783-0.474-1.174c-0.175-0.441-0.361-0.871-0.603-1.28c-0.219-0.372-0.459-0.733-0.712-1.082
	c-0.246-0.342-0.497-0.679-0.741-1.025c-0.267-0.38-0.534-0.762-0.825-1.126c-0.58-0.72-1.244-1.363-2.015-1.877
	c-0.393-0.265-0.858-0.468-1.299-0.637c-0.399-0.154-0.804-0.296-1.224-0.372c-0.648-0.119-1.3-0.165-1.955-0.165
	c-0.278,0-0.556,0.008-0.835,0.023c-0.159,0.008-0.316,0.031-0.474,0.051c0.015-0.844,0.033-1.688,0.04-2.533
	c0.004-0.464-0.39-0.85-0.85-0.85c-0.466,0-0.848,0.386-0.85,0.85c-0.004,0.97-0.002,1.942-0.007,2.914
	c-0.187,0.058-0.373,0.119-0.557,0.181c-0.865,0.296-1.685,0.683-2.479,1.134c-0.365,0.207-0.716,0.449-1.063,0.683
	C10.295,8.374,9.878,8.65,9.529,8.99c-0.67,0.649-1.27,1.374-1.819,2.126c-0.257,0.353-0.461,0.754-0.662,1.14
	c-0.23,0.441-0.418,0.898-0.572,1.37c-0.13,0.397-0.2,0.818-0.286,1.226c-0.034,0.161-0.051,0.325-0.08,0.487
	c-0.168,0-0.336,0-0.505,0c-0.923,0-1.844-0.017-2.765-0.021C2.382,15.317,2,15.702,2,16.159c0,0.459,0.382,0.844,0.841,0.842
	c0.904-0.004,1.808-0.021,2.712-0.021c0.118,0,0.236,0.008,0.355,0.009c-0.012,0.2-0.032,0.399-0.041,0.6
	c-0.013,0.347-0.017,0.693,0.021,1.04c0.033,0.305,0.081,0.612,0.148,0.912c0.098,0.438,0.207,0.873,0.361,1.295
	c0.169,0.466,0.367,0.925,0.593,1.366c0.286,0.558,0.7,1.038,1.109,1.51c0.274,0.319,0.589,0.61,0.915,0.873
	c0.727,0.591,1.451,1.192,2.226,1.719c0.541,0.368,1.128,0.708,1.739,0.94c0.613,0.234,1.243,0.381,1.89,0.47
	c0.133,0.017,0.265,0.022,0.398,0.036c0.011,0.34,0.03,0.679,0.032,1.02c0.002,0.486,0.403,0.89,0.89,0.89
	c0.474,0,0.904-0.405,0.888-0.89c-0.01-0.318-0.024-0.635-0.036-0.953c0.139-0.005,0.277,0.005,0.416-0.007
	c0.973-0.088,1.919-0.33,2.807-0.735c0.397-0.18,0.791-0.363,1.167-0.583c0.39-0.228,0.764-0.478,1.134-0.737
	c0.725-0.505,1.412-1.086,2.049-1.696c0.505-0.485,0.969-1.019,1.409-1.56c0.236-0.292,0.455-0.61,0.622-0.946
	c0.18-0.363,0.363-0.731,0.493-1.115c0.225-0.654,0.345-1.332,0.453-2.013c0.054-0.328,0.102-0.656,0.154-0.984
	c0.034-0.224,0.064-0.449,0.093-0.674c0.401-0.017,0.803-0.039,1.204-0.047c0.409,0.058,0.815-0.186,0.929-0.598
	C30.03,15.906,29.999,15.672,29.886,15.48z M25.881,18.454c-0.103,0.563-0.251,1.121-0.458,1.655
	c-0.204,0.444-0.434,0.866-0.713,1.268c-0.416,0.506-0.858,0.996-1.33,1.449c-0.438,0.421-0.907,0.813-1.386,1.189
	c-0.394,0.291-0.795,0.582-1.222,0.828c-0.444,0.257-0.898,0.482-1.366,0.693c-0.287,0.112-0.576,0.213-0.873,0.299
	c-0.289,0.082-0.591,0.129-0.887,0.179c-0.222,0.026-0.444,0.029-0.666,0.039c-0.026-0.821-0.008-1.644-0.001-2.465
	c0.006-0.487-0.411-0.896-0.894-0.896c-0.491,0-0.894,0.409-0.896,0.896c-0.003,0.799,0.007,1.597,0.029,2.396
	c-0.269-0.044-0.535-0.093-0.801-0.153c-0.309-0.071-0.607-0.176-0.903-0.289c-0.707-0.339-1.366-0.756-1.994-1.223
	c-0.447-0.36-0.906-0.713-1.338-1.09c-0.475-0.412-0.892-0.867-1.291-1.351c-0.304-0.428-0.529-0.885-0.739-1.363
	c-0.233-0.635-0.416-1.288-0.524-1.955c-0.054-0.501-0.033-1.01-0.011-1.514c0-0.005,0.001-0.009,0.001-0.013
	c0.15,0.006,0.301,0.005,0.451,0.011c0.464,0.019,0.85-0.403,0.85-0.85c0-0.48-0.388-0.829-0.85-0.85
	c-0.093-0.004-0.186,0.001-0.28-0.001c0.107-0.645,0.238-1.286,0.462-1.899c0.167-0.363,0.346-0.714,0.538-1.065
	c0.183-0.336,0.402-0.644,0.632-0.948c0.223-0.272,0.447-0.543,0.684-0.803c0.269-0.295,0.552-0.562,0.857-0.819
	c0.402-0.294,0.818-0.574,1.244-0.835c0.478-0.292,0.967-0.549,1.474-0.785c0.358-0.142,0.723-0.266,1.09-0.382
	c-0.004,0.153-0.002,0.306-0.007,0.459c-0.015,0.445,0.384,0.816,0.818,0.816c0.217,0,0.426-0.086,0.578-0.238
	c0.163-0.163,0.223-0.355,0.24-0.578c0.023-0.295,0.029-0.591,0.037-0.887c0.055-0.009,0.109-0.022,0.164-0.031
	c0.757-0.067,1.519-0.044,2.276,0.032c0.259,0.04,0.513,0.09,0.768,0.151c0.266,0.065,0.525,0.163,0.78,0.262
	c0.453,0.202,0.888,0.428,1.295,0.717c0.491,0.409,0.935,0.864,1.335,1.361c0.431,0.58,0.836,1.181,1.271,1.759
	c0.459,0.614,0.876,1.255,1.192,1.953c0.154,0.364,0.309,0.729,0.448,1.098c0.07,0.185,0.112,0.377,0.167,0.565
	c-1.052,0.04-2.103,0.004-3.155-0.029c-0.441-0.013-0.81,0.38-0.81,0.812c0,0.449,0.368,0.8,0.81,0.81
	c1.059,0.024,2.122,0.046,3.181,0C26.071,17.378,25.978,17.917,25.881,18.454z M14.795,27.706c0.024,0.003,0.048,0.006,0.072,0.009
	c0.005,0.001,0.01,0.001,0.016,0.002C14.854,27.714,14.825,27.71,14.795,27.706z M19.629,16.169c0,0.447-0.372,0.814-0.818,0.816
	c-0.648,0.006-1.296-0.03-1.945-0.057c-0.015,0.654-0.03,1.307-0.058,1.96c-0.019,0.466-0.374,0.858-0.858,0.858
	c-0.447,0-0.887-0.391-0.858-0.858c0.04-0.667,0.062-1.33,0.065-1.997c-0.611-0.01-1.222-0.022-1.833-0.022
	c-0.459,0-0.842-0.382-0.842-0.841c0-0.451,0.378-0.842,0.832-0.842c0.003,0,0.007,0,0.01,0c0.609,0.007,1.218,0.032,1.826,0.06
	c-0.005-0.421-0.012-0.841-0.011-1.262c0.002-0.484,0.403-0.887,0.889-0.887c0.48,0,0.892,0.403,0.887,0.887
	c-0.005,0.446-0.013,0.891-0.019,1.337c0.638,0.024,1.276,0.042,1.915,0.031C19.257,15.346,19.629,15.73,19.629,16.169z"/>
</svg>