<?xml version="1.0" encoding="utf-8"?>
<!-- Generator: Adobe Illustrator 21.1.0, SVG Export Plug-In . SVG Version: 6.00 Build 0)  -->
<svg version="1.1" id="designs" xmlns="http://www.w3.org/2000/svg" xmlns:xlink="http://www.w3.org/1999/xlink" x="0px" y="0px"
	 width="32px" height="32px" viewBox="0 0 32 32" style="enable-background:new 0 0 32 32;" xml:space="preserve">
<style type="text/css">
	.sketchy_een{fill:#111918;}
</style>
<path class="sketchy_een" d="M27.674,27.231c-0.036-0.768-0.044-1.538-0.053-2.307c-0.01-0.791-0.008-1.583-0.025-2.374
	c-0.015-0.787-0.042-1.574-0.042-2.361c0-1.203,0.004-2.409-0.032-3.612c-0.038-1.316,0.013-2.632-0.002-3.948
	c-0.003-0.317-0.195-0.592-0.468-0.717c0.003-0.027,0.016-0.053,0.016-0.08c0-0.206-0.082-0.405-0.227-0.55
	c-0.159-0.159-0.334-0.201-0.548-0.227c-0.104-0.013-0.209-0.017-0.314-0.017c-0.227,0-0.455,0.021-0.68,0.025
	c-0.326,0.007-0.651,0.01-0.977,0.015c-0.005-0.022-0.01-0.043-0.015-0.065c-0.015-0.189-0.018-0.378-0.034-0.567
	c-0.021-0.256-0.057-0.512-0.103-0.764c-0.078-0.445-0.281-0.858-0.527-1.23c-0.096-0.141-0.197-0.281-0.311-0.407
	c-0.113-0.122-0.266-0.206-0.416-0.271c-0.1-0.043-0.2-0.084-0.301-0.122c0.189-0.318,0.309-0.678,0.309-1.053
	c0.002-0.313-0.053-0.638-0.136-0.942c-0.105-0.378-0.273-0.72-0.535-1.014c-0.21-0.235-0.481-0.418-0.741-0.594
	c-0.21-0.141-0.428-0.273-0.657-0.376c-0.174-0.078-0.342-0.147-0.527-0.187c-0.101-0.022-0.206-0.032-0.311-0.032
	c-0.211,0-0.425,0.04-0.623,0.103c-0.182,0.056-0.342,0.155-0.497,0.262c-0.034-0.167-0.077-0.338-0.138-0.495
	c-0.061-0.162-0.128-0.332-0.225-0.479c-0.147-0.22-0.346-0.407-0.585-0.521c-0.308-0.151-0.617-0.204-0.949-0.26
	C16.738,2.016,16.487,2,16.233,2c-0.147,0-0.294,0.005-0.445,0.014c-0.187,0.011-0.374,0.019-0.56,0.04
	c-0.143,0.015-0.287,0.036-0.43,0.059c-0.159,0.025-0.306,0.092-0.451,0.159c-0.42,0.189-0.714,0.542-0.926,0.94
	c-0.144,0.269-0.178,0.537-0.215,0.832c-0.451-0.139-0.904-0.27-1.374-0.313c-0.045-0.004-0.089-0.006-0.134-0.006
	c-0.208,0-0.417,0.041-0.617,0.098c-0.325,0.09-0.619,0.313-0.858,0.546c-0.275,0.269-0.506,0.586-0.667,0.94
	C9.374,5.713,9.183,6.181,9.23,6.633C9.24,6.736,9.255,6.84,9.278,6.939c0.027,0.136,0.103,0.264,0.16,0.386
	c0.029,0.057,0.065,0.113,0.099,0.166c0.064,0.098,0.134,0.192,0.206,0.284C9.632,7.821,9.518,7.868,9.416,7.932
	C9.257,8.032,9.112,8.15,8.963,8.265c-0.168,0.13-0.311,0.34-0.435,0.512c-0.063,0.084-0.12,0.17-0.178,0.26
	c-0.147,0.233-0.256,0.508-0.33,0.776c-0.067,0.245-0.092,0.5-0.115,0.753c-0.018,0.177-0.011,0.354,0.009,0.531
	c-0.155-0.001-0.31-0.004-0.465-0.005c-0.781-0.006-1.562,0-2.346,0c-0.43-0.002-0.789,0.359-0.789,0.789
	c0,0.141,0.049,0.268,0.117,0.385c-0.003,0.025-0.015,0.046-0.016,0.072c-0.08,1.69-0.059,3.385-0.094,5.075
	c-0.015,0.837-0.027,1.671-0.029,2.508c-0.002,0.795,0.021,1.587,0.038,2.382c0.027,1.215,0.048,2.428,0.044,3.643
	c-0.002,0.537-0.004,1.075-0.008,1.614c0,0.271-0.002,0.542-0.006,0.816c-0.001,0.061-0.004,0.123-0.005,0.184
	c-0.042,0.103-0.065,0.211-0.065,0.319c0,0.089,0.025,0.174,0.052,0.258c-0.017,0.228,0.035,0.461,0.206,0.631
	c0.315,0.316,0.793,0.284,1.104,0.007c0.702,0.025,1.403,0.019,2.106,0.011c0.393-0.004,0.787,0.008,1.18,0.017
	c0.399,0.01,0.8-0.01,1.202-0.023c0.85-0.025,1.7-0.057,2.55-0.052c0.806,0.006,1.61,0.008,2.414,0.011
	c3.232,0.011,6.462,0.013,9.694,0.084c0.579,0.012,1.159,0.035,1.738,0.055c0.116,0.068,0.242,0.117,0.379,0.117
	c0.439,0,0.755-0.353,0.776-0.776C27.726,28.558,27.705,27.891,27.674,27.231z M18.33,22.033c-0.003-0.075-0.01-0.149-0.012-0.224
	c-0.019-0.787,0-1.578-0.002-2.365c0-0.062-0.002-0.123-0.002-0.185c0.623,0.007,1.246,0.014,1.87,0.011
	c0.623-0.004,1.249-0.008,1.874-0.002c0.386,0.004,0.774-0.004,1.161-0.011c0.353-0.008,0.707-0.013,1.062-0.013
	c0.338,0.004,0.678,0.019,1.018,0.021c0.249,0.001,0.497-0.017,0.745-0.037c0,0.236-0.001,0.473,0.001,0.709
	c0.003,0.701,0.022,1.399,0.045,2.1c-0.046-0.012-0.091-0.034-0.137-0.034c-0.016,0-0.031,0.001-0.047,0.003
	c-0.148,0.014-0.293,0.032-0.438,0.053c-0.49,0.057-0.987,0.049-1.479,0.054c-0.571,0.006-1.142,0.048-1.713,0.057
	c-0.594,0.011-1.188,0.004-1.78-0.008c-0.621-0.011-1.243-0.028-1.859-0.095c-0.066-0.009-0.131-0.019-0.196-0.028
	C18.401,22.034,18.367,22.037,18.33,22.033z M25.951,12.569c-0.001,0.02-0.012,0.038-0.011,0.058
	c0.034,1.679,0.084,3.358,0.103,5.037c0,0.018,0,0.036,0,0.054c-0.586,0.04-1.174,0.048-1.762,0.059
	c-0.741,0.015-1.482,0.017-2.223,0.034c-0.756,0.019-1.511,0.025-2.267,0.019c-0.497-0.003-0.994-0.026-1.491-0.045
	c-0.006-0.673-0.006-1.345-0.021-2.018c-0.025-1.071,0.004-2.142,0.032-3.214c0.433-0.008,0.865-0.018,1.298-0.023
	c1.572-0.017,3.144-0.004,4.714,0.002c0.138,0.002,0.277,0.002,0.416,0C25.144,12.531,25.55,12.534,25.951,12.569z M9.563,10.474
	c0.032-0.171,0.077-0.338,0.137-0.503c0.075-0.148,0.163-0.286,0.259-0.42c0.054-0.059,0.108-0.112,0.168-0.164
	c0.091-0.063,0.184-0.12,0.284-0.169c0.105-0.039,0.21-0.072,0.32-0.096c0.159-0.013,0.317-0.015,0.478-0.006
	c0.246,0.013,0.478,0.048,0.705-0.099c0.225-0.143,0.432-0.416,0.403-0.701C12.3,8.161,12.29,8.012,12.193,7.881
	c-0.138-0.183-0.162-0.199-0.342-0.336c-0.042-0.032-0.085-0.061-0.128-0.09c-0.112-0.097-0.217-0.203-0.325-0.305
	c-0.138-0.128-0.27-0.256-0.393-0.398c-0.056-0.079-0.107-0.16-0.154-0.245c0-0.01,0-0.019,0-0.029
	c0.031-0.153,0.072-0.301,0.126-0.447c0.074-0.158,0.158-0.308,0.259-0.451c0.075-0.082,0.153-0.158,0.236-0.231
	c0.026-0.017,0.051-0.032,0.077-0.047c0.041-0.011,0.081-0.021,0.122-0.03c0.073-0.002,0.144,0,0.217,0.006
	c0.432,0.079,0.85,0.243,1.269,0.377c0.002,0.085-0.001,0.17,0.001,0.254c0.01,0.432,0.351,0.791,0.791,0.791
	c0.42,0,0.806-0.359,0.791-0.791c-0.02-0.574-0.059-1.15-0.007-1.722c0.014-0.083,0.032-0.164,0.055-0.246
	c0.03-0.059,0.063-0.117,0.099-0.174c0.03-0.031,0.061-0.06,0.093-0.088c0.025-0.017,0.051-0.032,0.077-0.047
	c0.054-0.016,0.109-0.027,0.165-0.037c0.403-0.048,0.817-0.063,1.22-0.025c0.137,0.028,0.272,0.067,0.406,0.102
	c0.1,0.026,0.199,0.05,0.296,0.083c0.005,0.003,0.009,0.005,0.013,0.008c0.012,0.022,0.024,0.044,0.035,0.066
	c0.053,0.15,0.097,0.304,0.13,0.46c0.011,0.105,0.019,0.211,0.023,0.318c0.01,0.185-0.023,0.376-0.048,0.56
	c0.01-0.073,0.019-0.147,0.029-0.22c-0.027,0.176-0.057,0.352-0.094,0.525c-0.038,0.18-0.053,0.371-0.113,0.546
	c-0.143,0.434,0.162,0.915,0.586,1.032c0.449,0.122,0.896-0.149,1.03-0.586c0.055-0.176,0.066-0.365,0.086-0.55
	c0.007-0.041,0.014-0.082,0.022-0.123c0.123-0.033,0.238-0.086,0.326-0.186c0.148-0.17,0.299-0.325,0.467-0.47
	c0.07-0.049,0.141-0.094,0.215-0.135c0.032-0.008,0.065-0.016,0.097-0.022c0.016-0.001,0.032-0.001,0.048-0.001
	c0.029,0.008,0.057,0.017,0.086,0.027c0.275,0.133,0.532,0.305,0.778,0.487c0.096,0.08,0.185,0.163,0.268,0.256
	c0.032,0.05,0.062,0.1,0.089,0.153c0.06,0.169,0.105,0.343,0.137,0.519c0.006,0.076,0.008,0.152,0.006,0.228
	c-0.014,0.053-0.03,0.106-0.047,0.159C21.28,6.871,21.242,6.936,21.201,7c-0.114,0.134-0.234,0.264-0.352,0.397
	c-0.204,0.231-0.462,0.504-0.435,0.841c0.015,0.199,0.067,0.416,0.229,0.552c0.111,0.094,0.218,0.185,0.369,0.212
	c0.13,0.021,0.212,0.029,0.332,0.021c0.133-0.008,0.264-0.007,0.395,0.003c0.145,0.028,0.287,0.07,0.426,0.121
	c0.023,0.011,0.045,0.022,0.067,0.035c0.003,0.003,0.006,0.007,0.009,0.01c0.117,0.169,0.227,0.343,0.315,0.528
	c0.087,0.237,0.143,0.482,0.183,0.732c0.022,0.21,0.031,0.42,0.054,0.631c0,0.004,0.002,0.008,0.002,0.011
	c-0.31,0.003-0.621,0.008-0.931,0.011c-1.34,0.008-2.68,0.025-4.019,0.042c-0.089-0.036-0.184-0.059-0.282-0.059
	c-0.108,0-0.21,0.024-0.302,0.065c-0.102,0.001-0.204,0.002-0.306,0.003c-2.462,0.031-4.924-0.009-7.385-0.04
	C9.55,10.902,9.545,10.688,9.563,10.474z M5.862,20.017c0-0.158,0.002-0.316,0.003-0.474c0.459,0.026,0.918,0.046,1.377,0.057
	c0.13,0.004,0.26,0.004,0.392,0.004c0.245-0.002,0.489-0.002,0.732,0.02c0.194,0.03,0.387,0.063,0.584,0.08
	c0.191,0.017,0.382,0.023,0.575,0.027c0.434,0.01,0.867-0.011,1.301-0.027c0.388-0.013,0.777-0.019,1.165-0.025
	c0.333-0.005,0.664-0.022,0.997-0.037c-0.034,0.713-0.064,1.426-0.069,2.141c-0.001,0.174,0.001,0.348,0.001,0.522
	c-0.361,0.018-0.722,0.039-1.084,0.044c-0.634,0.008-1.268,0.004-1.901,0.004c-0.615,0-1.228,0.004-1.841-0.01
	c-0.697-0.013-1.394-0.04-2.092-0.057c-0.04-0.001-0.074,0.017-0.113,0.022C5.874,21.543,5.861,20.78,5.862,20.017z M9.998,12.582
	c1.042,0.012,2.084,0.012,3.125,0.015c0.016,0.678,0.03,1.354,0.011,2.033c-0.021,0.785-0.048,1.57-0.069,2.355
	c-0.01,0.383-0.024,0.766-0.033,1.149c-0.399,0.02-0.799,0.023-1.196,0.023c-0.283,0-0.565,0-0.846,0.006
	c-0.766,0.019-1.534,0.067-2.296-0.032c0.031,0.004,0.062,0.009,0.093,0.013c-0.467-0.063-0.935-0.088-1.405-0.114
	C6.878,18,6.376,17.966,5.874,17.931c0.003-0.555,0.003-1.109,0.009-1.664c0.008-0.628,0.011-1.259,0.025-1.889
	c0.011-0.576,0.047-1.152,0.081-1.729C7.326,12.618,8.661,12.565,9.998,12.582z M12.178,28.197c-0.81-0.015-1.62-0.008-2.43-0.015
	c-0.43-0.004-0.858-0.025-1.287-0.05c-0.376-0.021-0.755-0.015-1.131-0.023c-0.466-0.009-0.929-0.044-1.392-0.074
	c0.001-0.273,0.004-0.547,0.003-0.821c-0.004-0.749-0.006-1.496-0.01-2.244c-0.003-0.368-0.012-0.737-0.018-1.106
	c0.03,0.004,0.057,0.018,0.088,0.019c1.31,0.015,2.623-0.027,3.933-0.032c0.216,0,0.434,0,0.651,0.002
	c0.392,0,0.785,0.002,1.177-0.006c0.386-0.008,0.773-0.02,1.159-0.031c0.005,1.466,0.015,2.932,0.014,4.397
	C12.683,28.207,12.431,28.202,12.178,28.197z M14.466,28.246c-0.036-0.735-0.035-1.469-0.04-2.204
	c-0.004-0.776-0.011-1.551-0.019-2.327c-0.008-0.768-0.004-1.536,0.008-2.304c0.011-0.791,0.069-1.578,0.092-2.369
	c0.017-0.575,0.006-1.152,0.017-1.729c0.011-0.554,0.031-1.108,0.057-1.664c0.045-1.015,0.101-2.029,0.104-3.045
	c0.034,0,0.069,0.001,0.103,0c0.672-0.002,1.343-0.014,2.015-0.026c-0.003,1.38,0.032,2.759,0.045,4.138
	c0.006,0.56-0.001,3.72,0.002,4.625c0.002,0.606,0.036,1.207,0.063,1.813c0.025,0.611,0.031,1.224,0.027,1.836
	c-0.004,0.569-0.004,1.137-0.006,1.706c-0.002,0.288-0.002,0.579-0.004,0.869c0,0.229,0.006,0.46-0.008,0.69
	c-0.001,0.006,0.001,0.013-0.001,0.019C16.102,28.274,15.284,28.263,14.466,28.246z M21.853,28.311
	c-0.793-0.006-1.585-0.031-2.378-0.036c-0.345-0.002-0.689,0-1.033,0c0.001-0.091,0.006-0.183,0.005-0.273
	c-0.002-0.174,0-0.346-0.002-0.518c0-0.353-0.002-0.709-0.002-1.062c-0.004-0.743-0.006-1.486-0.021-2.227
	c-0.004-0.208-0.014-0.416-0.021-0.625c0.624,0.068,1.256,0.073,1.882,0.066c0.67-0.008,1.343-0.015,2.013-0.029
	c0.627-0.013,1.253-0.031,1.88-0.044c0.181-0.002,0.365-0.002,0.546-0.002c0.395,0,0.789,0,1.184-0.038
	c0.074-0.007,0.14-0.025,0.206-0.043c0.007,0.831,0.006,1.662,0.02,2.493c0.011,0.56,0.025,1.119,0.036,1.679
	c0.005,0.214,0.004,0.429,0.005,0.643C24.734,28.312,23.293,28.322,21.853,28.311z"/>
</svg>