<?xml version="1.0" encoding="utf-8"?>
<!-- Generator: Adobe Illustrator 21.1.0, SVG Export Plug-In . SVG Version: 6.00 Build 0)  -->
<svg version="1.1" id="designs" xmlns="http://www.w3.org/2000/svg" xmlns:xlink="http://www.w3.org/1999/xlink" x="0px" y="0px"
	 width="32px" height="32px" viewBox="0 0 32 32" style="enable-background:new 0 0 32 32;" xml:space="preserve">
<style type="text/css">
	.sketchy_een{fill:#111918;}
</style>
<path class="sketchy_een" d="M29.895,13.431c-0.113-0.871-0.23-1.75-0.507-2.588c-0.142-0.435-0.327-0.859-0.507-1.282
	c-0.162-0.376-0.333-0.744-0.526-1.107c-0.392-0.735-0.842-1.45-1.39-2.081c-0.267-0.308-0.546-0.594-0.861-0.852
	c-0.353-0.286-0.723-0.548-1.097-0.805c-0.347-0.238-0.703-0.464-1.056-0.69c-0.327-0.21-0.68-0.374-1.033-0.538
	c-0.415-0.191-0.838-0.365-1.265-0.526c-0.37-0.14-0.731-0.298-1.113-0.403c-0.846-0.228-1.729-0.322-2.602-0.372
	c-0.394-0.023-0.787-0.027-1.181-0.035c-0.08-0.002-0.16-0.003-0.24-0.003c-0.317,0-0.634,0.016-0.947,0.052
	c-0.249,0.029-0.495,0.06-0.739,0.121c-0.197,0.049-0.386,0.123-0.575,0.195c-0.427,0.166-0.85,0.347-1.265,0.538
	c-0.378,0.173-0.744,0.378-1.107,0.581c-0.341,0.191-0.667,0.407-0.98,0.641c-0.38,0.281-0.754,0.567-1.101,0.887
	C9.508,5.437,9.238,5.736,8.972,6.04C8.396,6.704,7.83,7.441,7.476,8.251C7.121,9.06,6.778,9.892,6.558,10.75
	c-0.222,0.856-0.349,1.733-0.333,2.619c0.012,0.631,0.033,1.263,0.09,1.89c0.031,0.355,0.058,0.713,0.125,1.062
	c0.066,0.341,0.16,0.665,0.279,0.99C6.842,17.654,7,17.989,7.146,18.323c0.121,0.277,0.247,0.548,0.382,0.817
	c0.15,0.292,0.31,0.579,0.477,0.861c0.06,0.101,0.131,0.196,0.198,0.293c-0.331,0.259-0.666,0.514-0.99,0.781
	c-0.483,0.396-0.952,0.805-1.443,1.19c-0.65,0.492-1.298,0.985-1.932,1.501c-0.322,0.261-0.639,0.534-0.939,0.823
	c-0.138,0.133-0.275,0.267-0.407,0.407c-0.125,0.133-0.242,0.281-0.323,0.442c-0.058,0.119-0.101,0.236-0.131,0.363
	c-0.051,0.22-0.045,0.405-0.014,0.627c0.029,0.207,0.107,0.398,0.179,0.593c0.094,0.253,0.197,0.505,0.339,0.735
	c0.273,0.446,0.69,0.766,1.109,1.068c0.292,0.212,0.596,0.409,0.898,0.61c0.121,0.08,0.246,0.154,0.378,0.211
	c0.121,0.052,0.24,0.103,0.364,0.144c0.281,0.094,0.561,0.07,0.846,0.012c0.164-0.035,0.322-0.129,0.474-0.199
	c0.062-0.027,0.125-0.064,0.181-0.101c0.177-0.113,0.347-0.236,0.511-0.37c0.263-0.216,0.516-0.448,0.746-0.702
	c0.218-0.242,0.423-0.495,0.637-0.741c0.226-0.257,0.464-0.501,0.7-0.748c0.477-0.499,0.93-1.021,1.391-1.534
	c0.226-0.249,0.452-0.497,0.668-0.754c0.113-0.135,0.218-0.276,0.325-0.415c0.309,0.237,0.619,0.446,0.978,0.604
	c0.429,0.185,0.867,0.316,1.319,0.429c0.865,0.216,1.754,0.399,2.646,0.462c0.854,0.058,1.713,0.025,2.565-0.059
	c0.896-0.088,1.768-0.314,2.627-0.575c0.873-0.267,1.709-0.626,2.492-1.093c0.76-0.452,1.504-0.932,2.138-1.555
	c0.331-0.326,0.618-0.684,0.898-1.054c0.242-0.318,0.477-0.641,0.698-0.974c0.458-0.688,0.82-1.465,1.109-2.239
	c0.136-0.362,0.249-0.731,0.359-1.101c0.111-0.384,0.222-0.768,0.288-1.164c0.068-0.417,0.123-0.842,0.109-1.265
	C29.986,14.242,29.947,13.837,29.895,13.431z M8.621,25.398c-0.396,0.454-0.805,0.892-1.189,1.358
	c-0.357,0.429-0.727,0.826-1.155,1.181c-0.14,0.097-0.282,0.185-0.432,0.263c-0.029,0.01-0.058,0.021-0.088,0.029
	c-0.014-0.004-0.028-0.009-0.042-0.013c-0.188-0.098-0.354-0.227-0.526-0.352c-0.219-0.157-0.445-0.31-0.664-0.471
	c-0.17-0.136-0.336-0.279-0.481-0.442c-0.076-0.118-0.142-0.241-0.202-0.369c-0.049-0.125-0.092-0.251-0.126-0.381
	c0.313-0.355,0.678-0.672,1.037-0.98c0.394-0.337,0.791-0.67,1.193-0.998c0.409-0.335,0.821-0.668,1.232-1.003
	c0.229,0.345,0.489,0.668,0.79,0.956c0.311,0.299,0.648,0.576,0.992,0.835C8.846,25.141,8.733,25.268,8.621,25.398z M28.379,15.297
	c-0.072,0.462-0.188,0.907-0.317,1.358c-0.137,0.473-0.287,0.936-0.466,1.392c-0.19,0.434-0.396,0.859-0.645,1.264
	c-0.249,0.404-0.543,0.783-0.832,1.16c-0.376,0.477-0.778,0.911-1.24,1.304c-0.341,0.255-0.691,0.486-1.058,0.702
	c-0.419,0.246-0.835,0.485-1.274,0.688c-0.989,0.391-2.02,0.675-3.071,0.841c-0.989,0.113-1.989,0.134-2.982,0.028
	c-0.984-0.143-1.97-0.353-2.905-0.692c-0.172-0.082-0.337-0.172-0.5-0.276c-0.117-0.075-0.229-0.161-0.339-0.248
	c-0.048-0.047-0.1-0.088-0.156-0.122c-0.006-0.005-0.013-0.01-0.019-0.015c-0.396-0.304-0.82-0.567-1.226-0.856
	c-0.183-0.129-0.46-0.144-0.668-0.086c-0.216,0.058-0.403,0.203-0.516,0.398c-0.117,0.199-0.15,0.442-0.088,0.667
	c0.06,0.219,0.198,0.373,0.378,0.499c-0.028,0.033-0.055,0.067-0.083,0.1c-0.122,0.142-0.246,0.281-0.37,0.42
	c-0.049-0.049-0.095-0.098-0.155-0.14c-0.064-0.044-0.127-0.09-0.19-0.137c-0.343-0.276-0.668-0.565-0.954-0.898
	c-0.102-0.142-0.173-0.301-0.254-0.454c0.448-0.333,0.899-0.664,1.348-0.999c0.185-0.14,0.327-0.279,0.392-0.511
	c0.027-0.095,0.028-0.193,0.021-0.29c0-0.006,0.004-0.012,0.004-0.019c0-0.003-0.002-0.005-0.002-0.008
	c-0.003-0.024-0.01-0.047-0.015-0.071c-0.021-0.207-0.105-0.372-0.238-0.537c-0.084-0.106-0.167-0.212-0.25-0.318
	c-0.232-0.333-0.448-0.668-0.641-1.025c-0.186-0.345-0.339-0.711-0.492-1.072c-0.086-0.207-0.17-0.414-0.244-0.624
	c-0.099-0.281-0.169-0.561-0.223-0.85c-0.15-1.203-0.216-2.433-0.11-3.641c0.076-0.505,0.18-1.007,0.328-1.497
	C8.48,10.227,8.67,9.729,8.865,9.236c0.112-0.258,0.229-0.511,0.373-0.753C9.42,8.176,9.616,7.884,9.825,7.596
	c0.495-0.629,1.035-1.226,1.66-1.731c0.39-0.3,0.786-0.595,1.217-0.835c0.518-0.289,1.046-0.567,1.591-0.804
	c0.389-0.161,0.776-0.316,1.19-0.395c1.219-0.121,2.441-0.08,3.656,0.068c0.221,0.038,0.437,0.093,0.657,0.139
	c0.251,0.051,0.497,0.105,0.741,0.183c0.236,0.076,0.466,0.173,0.698,0.257c0.217,0.077,0.433,0.156,0.648,0.243
	c0.535,0.24,1.054,0.5,1.552,0.81c0.541,0.339,1.082,0.67,1.595,1.051c0.313,0.263,0.591,0.546,0.851,0.862
	c0.629,0.839,1.145,1.752,1.556,2.719c0.216,0.527,0.423,1.058,0.576,1.607c0.082,0.292,0.127,0.596,0.179,0.895
	c0.052,0.299,0.102,0.598,0.146,0.896C28.405,14.139,28.433,14.715,28.379,15.297z M26.416,12.155
	c-0.119-0.351-0.236-0.705-0.38-1.048c-0.152-0.365-0.306-0.735-0.505-1.076c-0.212-0.364-0.474-0.707-0.741-1.033
	c-0.253-0.31-0.505-0.618-0.766-0.92c-0.24-0.277-0.483-0.559-0.752-0.811c-0.575-0.53-1.325-0.869-2.046-1.15
	c-0.361-0.14-0.737-0.238-1.105-0.359c-0.341-0.113-0.684-0.242-1.039-0.306c-0.543-0.098-1.104-0.147-1.661-0.147
	c-0.187,0-0.373,0.005-0.559,0.017C16.464,5.346,16.07,5.421,15.678,5.5c-0.374,0.076-0.748,0.166-1.107,0.296
	c-0.399,0.148-0.809,0.294-1.185,0.495c-0.396,0.21-0.752,0.489-1.103,0.768c-0.62,0.497-1.138,1.08-1.629,1.701
	c-0.269,0.337-0.536,0.682-0.746,1.058c-0.218,0.394-0.374,0.818-0.497,1.251c-0.125,0.446-0.24,0.891-0.3,1.353
	c-0.057,0.415-0.047,0.824-0.029,1.243c0.033,0.824,0.14,1.666,0.368,2.461c0.329,1.148,0.941,2.179,1.639,3.135
	c0.38,0.524,0.83,0.986,1.333,1.393c0.251,0.203,0.507,0.396,0.785,0.557c0.3,0.175,0.622,0.308,0.951,0.417
	c0.037,0.012,0.075,0.021,0.113,0.027c0.269,0.092,0.534,0.194,0.807,0.275c0.277,0.084,0.553,0.166,0.834,0.24
	c0.333,0.09,0.661,0.154,1.008,0.173c0.351,0.021,0.7,0.035,1.048,0.031c0.809-0.012,1.617-0.07,2.418-0.183
	c0.799-0.111,1.565-0.343,2.296-0.69c0.742-0.357,1.38-0.867,1.96-1.446c0.565-0.561,1.05-1.228,1.421-1.931
	c0.193-0.362,0.353-0.75,0.495-1.134c0.134-0.363,0.246-0.729,0.312-1.109c0.148-0.85,0.051-1.756-0.133-2.592
	C26.652,12.906,26.545,12.53,26.416,12.155z M25.312,15.575c-0.084,0.49-0.233,0.957-0.416,1.419
	c-0.19,0.422-0.422,0.809-0.697,1.182c-0.387,0.484-0.811,0.933-1.291,1.324c-0.294,0.208-0.6,0.387-0.927,0.537
	c-0.689,0.265-1.41,0.428-2.14,0.536c-0.54,0.064-1.081,0.106-1.624,0.118c-0.294,0.008-0.587,0.008-0.881-0.002
	c-0.21-0.005-0.422-0.007-0.631-0.025c-0.315-0.052-0.632-0.122-0.938-0.209c-0.177-0.051-0.357-0.092-0.532-0.148
	c-0.151-0.048-0.301-0.099-0.453-0.147c-0.06-0.037-0.125-0.067-0.194-0.089c-0.102-0.032-0.203-0.066-0.303-0.103
	c-0.208-0.104-0.402-0.221-0.592-0.357c-0.387-0.319-0.742-0.683-1.059-1.071c-0.5-0.667-0.943-1.382-1.283-2.144
	c-0.247-0.632-0.402-1.286-0.505-1.954c-0.078-0.648-0.118-1.31-0.059-1.959c0.085-0.522,0.204-1.04,0.38-1.538
	c0.164-0.352,0.366-0.677,0.594-0.992c0.262-0.335,0.525-0.668,0.81-0.983c0.305-0.337,0.648-0.633,1.004-0.915
	c0.347-0.257,0.708-0.46,1.101-0.637c0.312-0.127,0.627-0.243,0.953-0.332c0.345-0.097,0.704-0.174,1.059-0.232
	c0.586-0.064,1.169-0.04,1.753,0.031c0.429,0.07,0.831,0.206,1.243,0.339c0.431,0.137,0.859,0.26,1.278,0.428
	c0.394,0.175,0.781,0.382,1.132,0.629c0.291,0.246,0.547,0.53,0.807,0.81c0.301,0.323,0.591,0.662,0.865,1.01
	c0.166,0.223,0.323,0.456,0.468,0.692c0.129,0.208,0.23,0.435,0.327,0.66c0.165,0.405,0.295,0.824,0.43,1.24
	c0.131,0.4,0.227,0.812,0.293,1.228C25.343,14.465,25.368,15.029,25.312,15.575z"/>
</svg>