<?xml version="1.0" encoding="utf-8"?>
<!-- Generator: Adobe Illustrator 21.1.0, SVG Export Plug-In . SVG Version: 6.00 Build 0)  -->
<svg version="1.1" id="designs" xmlns="http://www.w3.org/2000/svg" xmlns:xlink="http://www.w3.org/1999/xlink" x="0px" y="0px"
	 width="32px" height="32px" viewBox="0 0 32 32" style="enable-background:new 0 0 32 32;" xml:space="preserve">
<style type="text/css">
	.sketchy_een{fill:#111918;}
</style>
<path class="sketchy_een" d="M30.892,9.531c-0.029-0.05-0.075-0.086-0.114-0.129c-0.015-0.042-0.02-0.087-0.043-0.127
	c-0.141-0.238-0.374-0.343-0.639-0.366c-0.089-0.007-0.177-0.016-0.265-0.026c-0.256-0.04-0.508-0.099-0.762-0.15
	c-0.344-0.071-0.687-0.131-1.035-0.179c-0.513-0.075-1.019-0.177-1.522-0.302c-0.507-0.126-1.004-0.272-1.514-0.377
	c-0.013-0.015-0.018-0.035-0.033-0.05c-0.736-0.719-1.488-1.428-2.189-2.183c-0.374-0.405-0.726-0.831-1.098-1.236
	c-0.446-0.484-0.912-0.947-1.385-1.405c-0.171-0.166-0.395-0.25-0.619-0.25c-0.123,0-0.243,0.032-0.357,0.083
	c-0.197,0.019-0.391,0.09-0.54,0.239c-0.821,0.812-1.635,1.637-2.419,2.485c-0.329,0.358-0.651,0.724-0.99,1.075
	c-0.292,0.3-0.556,0.635-0.874,0.909c0.015-0.011,0.029-0.022,0.043-0.033c-0.146,0.122-0.258,0.252-0.313,0.453
	c-0.007,0.025-0.001,0.051-0.005,0.077c-0.014,0.012-0.032,0.017-0.045,0.03c-0.159,0.159-0.25,0.378-0.25,0.603
	c0,0.246,0.103,0.418,0.25,0.604c0.248,0.309,0.507,0.61,0.761,0.914c-0.26,0.203-0.517,0.411-0.757,0.638
	c-0.306,0.291-0.608,0.587-0.907,0.885c-0.564,0.568-1.174,1.083-1.732,1.656c-0.573,0.589-1.133,1.193-1.691,1.8
	c-0.533,0.575-1.073,1.141-1.614,1.707c-0.285,0.296-0.546,0.616-0.817,0.924c-0.277,0.312-0.57,0.61-0.858,0.912
	c-0.292,0.304-0.581,0.612-0.87,0.92c-0.269,0.285-0.556,0.55-0.833,0.827c-0.552,0.558-1.065,1.156-1.563,1.761
	c-0.521,0.632-1.063,1.244-1.563,1.891c-0.161,0.209-0.323,0.42-0.477,0.637c-0.094,0.13-0.113,0.306-0.104,0.476
	C0.938,25.556,0.963,26,1.248,26.291c0.267,0.269,0.537,0.536,0.81,0.802c0.258,0.252,0.544,0.475,0.821,0.705
	c0.211,0.176,0.397,0.376,0.585,0.577c0.169,0.18,0.366,0.326,0.567,0.466c0.031,0.046,0.051,0.099,0.092,0.14
	c0.426,0.428,1.151,0.325,1.457-0.188c0.034-0.053,0.067-0.107,0.103-0.159c0.204-0.25,0.427-0.486,0.644-0.724
	c0.267-0.292,0.515-0.603,0.779-0.899c0.597-0.664,1.189-1.325,1.823-1.952c0.595-0.589,1.176-1.195,1.753-1.8
	c0.612-0.639,1.164-1.319,1.714-2.009c0.279-0.349,0.562-0.692,0.879-1.007c0.139-0.14,0.271-0.294,0.362-0.471
	c0.091-0.172,0.145-0.358,0.203-0.544c0.217-0.684,0.366-1.386,0.618-2.06c0.093-0.205,0.197-0.403,0.325-0.588
	c0.113-0.138,0.229-0.274,0.339-0.413c0.005-0.006,0.01-0.013,0.015-0.019c0.001-0.001,0.002-0.003,0.004-0.004
	c0.009-0.012,0.019-0.024,0.028-0.036c-0.008,0.01-0.016,0.021-0.024,0.031c0.13-0.157,0.276-0.299,0.417-0.447
	c0.252-0.261,0.49-0.533,0.728-0.806c0.468-0.54,0.956-1.058,1.437-1.584c0.256,0.266,0.51,0.533,0.769,0.797
	c0.009,0.009,0.021,0.012,0.031,0.021c0.029,0.949,0.095,1.895,0.132,2.843c0.009,0.226,0.019,0.45,0.027,0.675
	c-0.082,0.172-0.115,0.368-0.06,0.566c0.017,0.062,0.056,0.115,0.089,0.172c0.02,0.376,0.035,0.749,0.034,1.127
	c-0.001,0.309,0.191,0.578,0.457,0.704c0.194,0.321,0.581,0.511,0.972,0.407c0.061-0.016,0.122-0.03,0.184-0.041
	c0.425-0.041,0.854-0.045,1.279-0.11c0.385-0.058,0.763-0.145,1.135-0.263c0.403-0.126,0.788-0.31,1.17-0.492
	c0.387-0.186,0.767-0.385,1.139-0.6c0.353-0.205,0.688-0.438,1.013-0.682c0.372-0.281,0.746-0.56,1.094-0.868
	c0.207-0.18,0.415-0.36,0.622-0.54c0.32-0.279,0.571-0.62,0.827-0.957c0.269-0.354,0.537-0.713,0.796-1.075
	c0.248-0.345,0.4-0.746,0.561-1.136c0.126-0.296,0.251-0.59,0.34-0.9c0.085-0.294,0.201-0.585,0.269-0.883
	c0.066-0.296,0.089-0.603,0.145-0.899c0.062-0.335,0.155-0.665,0.223-0.998C31.02,9.944,31.01,9.732,30.892,9.531z M15.626,13.182
	c-0.335,0.374-0.697,0.728-1.062,1.075c-0.231,0.217-0.488,0.413-0.697,0.651c-0.114,0.132-0.219,0.271-0.331,0.405
	c-0.1,0.119-0.198,0.237-0.296,0.357c-0.058,0.072-0.118,0.142-0.162,0.224c-0.089,0.173-0.149,0.364-0.217,0.546
	c-0.108,0.287-0.205,0.577-0.302,0.868c-0.101,0.302-0.161,0.616-0.256,0.92c-0.066,0.212-0.137,0.426-0.216,0.634
	c-0.018,0.035-0.038,0.07-0.06,0.104c-0.457,0.561-0.897,1.135-1.336,1.711c-0.508,0.636-1.069,1.217-1.635,1.803
	c-0.579,0.599-1.155,1.201-1.755,1.782c-0.61,0.591-1.172,1.236-1.745,1.861c-0.261,0.283-0.531,0.558-0.788,0.843
	c-0.059,0.065-0.121,0.129-0.179,0.195c-0.178-0.179-0.353-0.363-0.54-0.533c-0.262-0.238-0.523-0.471-0.775-0.719
	c-0.141-0.136-0.274-0.28-0.409-0.422c0.128-0.193,0.257-0.386,0.396-0.571c0.444-0.561,0.92-1.098,1.386-1.636
	c0.263-0.304,0.535-0.599,0.804-0.895c0.25-0.275,0.478-0.568,0.732-0.839c0.562-0.603,1.112-1.213,1.685-1.803
	c0.57-0.589,1.116-1.197,1.668-1.803c0.238-0.26,0.492-0.504,0.74-0.755c0.244-0.252,0.475-0.517,0.713-0.775
	c0.254-0.275,0.517-0.542,0.773-0.815c0.265-0.283,0.515-0.579,0.786-0.86c0.252-0.259,0.506-0.519,0.771-0.767
	c0.279-0.258,0.562-0.511,0.831-0.782c0.258-0.258,0.504-0.527,0.765-0.781c0.273-0.266,0.562-0.511,0.855-0.754
	c0.081-0.06,0.161-0.119,0.242-0.179c0.097,0.113,0.195,0.224,0.291,0.337c0.085,0.101,0.18,0.193,0.271,0.288
	C16.257,12.457,15.948,12.824,15.626,13.182z M18.132,11.279c-0.337-0.343-0.686-0.668-1.003-1.031
	c-0.394-0.45-0.769-0.919-1.137-1.392c-0.021-0.027-0.042-0.054-0.063-0.082c0.01,0.014,0.021,0.028,0.032,0.041
	c-0.002-0.002-0.004-0.005-0.005-0.007c-0.026-0.034-0.052-0.067-0.077-0.101c0.007,0.009,0.014,0.018,0.02,0.026
	c-0.019-0.024-0.037-0.048-0.056-0.073c0.067-0.07,0.135-0.138,0.202-0.208c0.18-0.186,0.37-0.368,0.533-0.572
	c0.294-0.37,0.612-0.725,0.93-1.079c0.653-0.724,1.367-1.395,2.074-2.07c0.301,0.289,0.604,0.575,0.899,0.872
	c0.389,0.391,0.752,0.804,1.122,1.213c0.182,0.199,0.372,0.391,0.56,0.585c0.19,0.196,0.374,0.399,0.571,0.589
	c0.351,0.337,0.697,0.68,1.054,1.013c0.051,0.048,0.112,0.076,0.171,0.109c0.105,0.132,0.247,0.256,0.404,0.281
	c0.418,0.068,0.835,0.149,1.244,0.252c0.382,0.095,0.755,0.211,1.139,0.296c0.173,0.039,0.349,0.053,0.524,0.08
	c-0.09,0.364-0.195,0.722-0.336,1.072c-0.399,0.872-0.966,1.645-1.543,2.407c-0.499,0.621-1.067,1.201-1.683,1.706
	c-0.364,0.267-0.747,0.513-1.116,0.773c-0.198,0.139-0.409,0.261-0.616,0.385c-0.183,0.108-0.364,0.213-0.554,0.303
	c-0.269,0.103-0.541,0.189-0.825,0.237c-0.161,0.021-0.322,0.049-0.482,0.076c0-0.008-0.001-0.015-0.002-0.023
	c-0.06-0.947-0.066-1.898-0.081-2.847c-0.003-0.149-0.059-0.282-0.136-0.4c0.018-0.07,0.042-0.138,0.042-0.211
	c0-0.236-0.097-0.42-0.246-0.595c-0.025-0.028-0.05-0.056-0.075-0.083c-0.072-0.104-0.141-0.208-0.221-0.31
	c-0.083-0.104-0.192-0.192-0.293-0.281c-0.134-0.116-0.254-0.25-0.378-0.376C18.528,11.661,18.326,11.475,18.132,11.279z
	 M28.81,12.084c-0.09,0.229-0.17,0.461-0.26,0.689c-0.181,0.414-0.361,0.835-0.594,1.222c-0.278,0.464-0.6,0.904-0.926,1.337
	c-0.208,0.254-0.439,0.482-0.682,0.707c-0.293,0.271-0.586,0.539-0.898,0.787c-0.406,0.309-0.817,0.606-1.262,0.858
	c-0.47,0.266-0.954,0.514-1.45,0.732c-0.479,0.185-0.968,0.33-1.473,0.415c-0.335,0.036-0.673,0.044-1.01,0.052
	c-0.007-0.087-0.015-0.174-0.022-0.261c0.177-0.037,0.357-0.067,0.535-0.093c-0.074,0.01-0.147,0.019-0.219,0.029
	c0.211-0.029,0.422-0.052,0.63-0.103c0.2-0.048,0.395-0.108,0.591-0.172c0.407-0.135,0.775-0.343,1.143-0.56
	c0.323-0.188,0.624-0.399,0.928-0.616c0.347-0.25,0.705-0.479,1.031-0.758c0.647-0.556,1.282-1.143,1.8-1.825
	c0.44-0.577,0.87-1.162,1.238-1.79c0.26-0.44,0.461-0.908,0.653-1.379c0.149-0.366,0.261-0.741,0.352-1.123
	c0.062,0.008,0.125,0.012,0.188,0.021c-0.063-0.009-0.125-0.017-0.186-0.025l0,0c0.11,0.014,0.219,0.03,0.33,0.045
	c0.015,0.002,0.029,0.003,0.044,0.005c0,0,0,0,0,0c-0.015-0.002-0.029-0.004-0.044-0.006c-0.016-0.002-0.032-0.004-0.048-0.006
	c0.03,0.004,0.061,0.008,0.091,0.011c-0.064,0.359-0.13,0.718-0.221,1.069C29.004,11.602,28.907,11.84,28.81,12.084z M13.304,15.582
	c-0.022,0.029-0.041,0.059-0.063,0.088c-0.026,0.032-0.053,0.062-0.078,0.094C13.209,15.704,13.257,15.642,13.304,15.582z
	 M15.143,16.143c0.001-0.002,0.003-0.003,0.004-0.005c-0.039,0.05-0.077,0.1-0.116,0.149c0.031-0.04,0.062-0.081,0.093-0.121
	C15.13,16.159,15.137,16.151,15.143,16.143z"/>
</svg>