<?xml version="1.0" encoding="utf-8"?>
<!-- Generator: Adobe Illustrator 21.1.0, SVG Export Plug-In . SVG Version: 6.00 Build 0)  -->
<svg version="1.1" id="designs" xmlns="http://www.w3.org/2000/svg" xmlns:xlink="http://www.w3.org/1999/xlink" x="0px" y="0px"
	 width="32px" height="32px" viewBox="0 0 32 32" style="enable-background:new 0 0 32 32;" xml:space="preserve">
<style type="text/css">
	.sketchy_een{fill:#111918;}
</style>
<path class="sketchy_een" d="M30.317,3.886c0.005-0.01,0.01-0.02,0.015-0.029c0.143-0.133,0.287-0.266,0.436-0.391
	c0.332-0.278,0.286-0.833,0-1.119c-0.154-0.154-0.347-0.226-0.54-0.226c-0.205,0-0.412,0.08-0.577,0.226
	c-0.281,0.249-0.534,0.529-0.816,0.777C28.76,3.175,28.682,3.225,28.6,3.267c-0.305,0.109-0.625,0.184-0.944,0.236
	c-0.094,0.011-0.187,0.021-0.28,0.031c-0.139,0.013-0.276,0.003-0.414-0.01c-0.449-0.079-0.883-0.249-1.308-0.417
	c-0.176-0.08-0.349-0.166-0.522-0.252c-0.134-0.068-0.266-0.13-0.406-0.186c-0.318-0.132-0.719-0.038-0.959,0.204
	C23.579,3.06,23.484,3.327,23.5,3.591c0.008,0.134,0.03,0.268,0.044,0.402c0.019,0.177,0.018,0.36,0.004,0.539
	c-0.037,0.187-0.089,0.373-0.153,0.554c-0.068,0.142-0.143,0.275-0.233,0.405c-0.019,0.021-0.038,0.042-0.059,0.061
	c-0.043,0.027-0.087,0.052-0.133,0.077c-0.148,0.05-0.3,0.085-0.455,0.111c-0.001,0-0.003,0-0.004,0
	c-0.147-0.03-0.293-0.071-0.434-0.122c-0.267-0.118-0.533-0.252-0.768-0.423c-0.214-0.154-0.418-0.324-0.684-0.382
	c-0.23-0.052-0.492-0.04-0.693,0.098c-0.27,0.184-0.438,0.46-0.426,0.793c0.008,0.258,0.112,0.51,0.204,0.745
	c0.124,0.319,0.215,0.632,0.273,0.966c0.024,0.265,0.029,0.525,0.011,0.792c-0.073,0.422-0.19,0.826-0.345,1.225
	c-0.18,0.386-0.381,0.772-0.628,1.119c-0.09,0.109-0.188,0.21-0.288,0.31c-0.001-0.004-0.001-0.008-0.002-0.012
	c-0.024-0.152-0.048-0.302-0.072-0.452c-0.02-0.114-0.048-0.224-0.08-0.334c-0.06-0.214-0.19-0.37-0.322-0.54
	c-0.092-0.12-0.21-0.222-0.316-0.328c-0.17-0.17-0.36-0.316-0.558-0.452c-0.138-0.094-0.304-0.164-0.454-0.234
	c-0.198-0.094-0.4-0.18-0.602-0.264c-0.169-0.07-0.342-0.095-0.516-0.095c-0.22,0-0.441,0.04-0.661,0.081
	c-0.194,0.036-0.386,0.074-0.576,0.126c-0.444,0.122-0.819,0.396-1.163,0.69c-0.294,0.252-0.56,0.57-0.724,0.919
	c-0.097,0.209-0.146,0.426-0.175,0.647c-0.141-0.208-0.274-0.421-0.381-0.65c-0.09-0.239-0.155-0.482-0.197-0.734
	c-0.042-0.475-0.012-0.942,0.039-1.415c0.067-0.407,0.152-0.809,0.304-1.194c-0.01,0.022-0.019,0.044-0.029,0.066
	c0.045-0.114,0.066-0.2,0.083-0.358c0.018-0.172-0.05-0.328-0.12-0.476c-0.11-0.238-0.386-0.42-0.632-0.478
	c-0.174-0.042-0.356-0.058-0.53-0.086c-0.258-0.04-0.512-0.11-0.761-0.18c-0.266-0.076-0.529-0.157-0.787-0.255
	C9.351,4.78,9.213,4.69,9.075,4.59C8.916,4.456,8.756,4.321,8.612,4.172C8.509,4.027,8.41,3.877,8.33,3.719
	C8.316,3.673,8.304,3.627,8.293,3.581C8.289,3.479,8.296,3.378,8.307,3.277c0.021-0.125,0.046-0.249,0.049-0.374
	c0.008-0.32-0.166-0.594-0.422-0.771C7.817,2.05,7.666,2.011,7.515,2.011c-0.154,0-0.308,0.041-0.428,0.121
	C6.965,2.213,6.901,2.283,6.815,2.385C6.541,2.709,6.217,2.998,5.889,3.269C5.754,3.364,5.618,3.455,5.476,3.54
	c-0.111,0.067-0.228,0.12-0.347,0.17C4.916,3.787,4.705,3.847,4.483,3.886C4.07,3.917,3.655,3.895,3.244,3.851
	C3.068,3.82,2.901,3.779,2.73,3.724C2.626,3.69,2.524,3.656,2.422,3.62C2.239,3.558,2.051,3.457,1.851,3.482
	c-0.076,0.01-0.152,0.02-0.226,0.03c-0.144,0.042-0.27,0.114-0.376,0.22c-0.166,0.166-0.234,0.37-0.248,0.6
	C0.976,4.746,1.287,4.985,1.529,5.259C1.694,5.494,1.827,5.74,1.945,6.003c0.148,0.363,0.286,0.731,0.377,1.115
	C2.416,7.516,2.48,7.921,2.536,8.326c0.016,0.145,0.03,0.285,0.021,0.43c-0.074,0.428-0.21,0.836-0.369,1.239
	c-0.05,0.104-0.101,0.205-0.159,0.303c-0.053,0.051-0.102,0.108-0.144,0.176c-0.078,0.132-0.118,0.276-0.118,0.432
	c0,0.246,0.102,0.42,0.252,0.604c0,0.002,0,0.002,0.002,0.002c0.106,0.106,0.232,0.18,0.376,0.22
	c0.224,0.062,0.458,0.028,0.659-0.086c0.18-0.101,0.308-0.268,0.408-0.452c0.059-0.062,0.121-0.121,0.186-0.178
	c0.136-0.095,0.276-0.183,0.426-0.259c0.087-0.032,0.173-0.059,0.263-0.081c0.082-0.004,0.163-0.003,0.246,0.004
	c0.421,0.073,0.837,0.18,1.237,0.329c0.354,0.166,0.679,0.387,0.995,0.622c0.161,0.14,0.295,0.302,0.43,0.466
	c0.138,0.192,0.258,0.392,0.363,0.606c0.03,0.087,0.054,0.175,0.072,0.266c0.019,0.162,0.03,0.322,0.016,0.486
	c-0.017,0.102-0.035,0.203-0.059,0.306c-0.05,0.216-0.168,0.418-0.148,0.646c0.018,0.22,0.074,0.408,0.234,0.568
	c0.184,0.184,0.524,0.31,0.781,0.206c0.156-0.064,0.244-0.09,0.366-0.212c0.081-0.08,0.124-0.154,0.161-0.239
	c0.064-0.14,0.129-0.278,0.192-0.416c0.139-0.305,0.264-0.629,0.446-0.912c0.151-0.159,0.313-0.306,0.479-0.448
	c0.127-0.089,0.258-0.173,0.396-0.241c0.191-0.067,0.39-0.119,0.586-0.175c0.121,0.033,0.238,0.08,0.356,0.125
	c-0.1,0.121-0.193,0.249-0.277,0.375c-0.272,0.41-0.31,0.901-0.35,1.377c-0.044,0.496,0.034,1.009,0.198,1.477
	c0.242,0.693,0.763,1.245,1.365,1.651c0.098,0.064,0.26,0.124,0.362,0.16c0.104,0.036,0.202,0.066,0.308,0.09
	c0.192,0.046,0.39,0.06,0.586,0.082c0.292,0.031,0.591,0.006,0.882-0.037c-0.016,0.053-0.032,0.105-0.049,0.159
	c-0.052,0.165-0.113,0.328-0.178,0.489c-0.164,0.365-0.37,0.7-0.607,1.021c-0.176,0.21-0.364,0.399-0.573,0.576
	c-0.095,0.061-0.194,0.114-0.295,0.163c-0.182,0.062-0.37,0.098-0.559,0.127c-0.161,0.021-0.322,0.04-0.484,0.047
	c-0.074,0.004-0.15,0.002-0.228,0c-0.16-0.006-0.326-0.01-0.472,0.034c-0.256,0.08-0.494,0.282-0.554,0.554c0,0.002,0,0.004,0,0.006
	c-0.098,0.444,0.128,0.825,0.552,0.973c0.069,0.024,0.143,0.031,0.218,0.037c0.144,0.032,0.284,0.083,0.421,0.138
	c0.14,0.068,0.266,0.158,0.39,0.251c0.074,0.062,0.143,0.126,0.207,0.199c0.091,0.122,0.179,0.25,0.25,0.383
	c0.013,0.046,0.024,0.092,0.033,0.138c0.009,0.133,0.004,0.263-0.009,0.394c-0.026,0.141-0.06,0.279-0.108,0.414
	c-0.042,0.083-0.088,0.161-0.141,0.237c-0.071,0.079-0.148,0.151-0.229,0.22c-0.092,0.064-0.184,0.122-0.284,0.172
	c-0.223,0.079-0.452,0.128-0.684,0.174c-0.418,0.082-0.652,0.574-0.544,0.959c0.043,0.155,0.134,0.269,0.242,0.363
	c0.122,0.314,0.427,0.526,0.781,0.543c0.108,0.006,0.214,0.006,0.321,0.013c0.204,0.037,0.405,0.097,0.605,0.159
	c0.104,0.033,0.207,0.064,0.309,0.101c0.291,0.134,0.567,0.304,0.836,0.475c0.276,0.178,0.559,0.349,0.824,0.543
	c0.108,0.09,0.209,0.186,0.301,0.292c0.054,0.078,0.101,0.159,0.143,0.244c0.09,0.239,0.162,0.486,0.235,0.73
	c0.005,0.016,0.017,0.028,0.023,0.044c0.02,0.342,0.28,0.665,0.606,0.754c0.456,0.126,0.875-0.152,1.021-0.58
	c0.041-0.123,0.085-0.246,0.132-0.369c0.122-0.277,0.258-0.559,0.424-0.81c0.111-0.121,0.24-0.227,0.361-0.336
	c0.142-0.126,0.283-0.254,0.429-0.376c0.11-0.075,0.223-0.146,0.342-0.206c0.213-0.075,0.427-0.132,0.65-0.178
	c0.161-0.031,0.319-0.075,0.481-0.106c0.04-0.003,0.08-0.004,0.12-0.003c0.29,0.002,0.634-0.116,0.761-0.402
	c0.112-0.246,0.166-0.542,0-0.783c-0.058-0.086-0.12-0.168-0.196-0.238c-0.091-0.086-0.197-0.161-0.301-0.234
	c-0.071-0.062-0.137-0.127-0.201-0.197c-0.079-0.116-0.152-0.236-0.215-0.36c-0.045-0.135-0.078-0.271-0.105-0.41
	c-0.008-0.081-0.011-0.161-0.009-0.243c0.031-0.144,0.075-0.284,0.124-0.425c0.119-0.243,0.258-0.47,0.416-0.689
	c0.12-0.141,0.255-0.271,0.392-0.395c0.066-0.043,0.134-0.079,0.209-0.112c0.034-0.016,0.068-0.032,0.102-0.05
	c0.208-0.116,0.306-0.29,0.39-0.502c0.1-0.254-0.02-0.59-0.204-0.771c-0.114-0.112-0.26-0.202-0.42-0.224
	c-0.101-0.015-0.201-0.028-0.302-0.04c-0.241-0.031-0.483-0.059-0.724-0.09c-0.158-0.027-0.306-0.069-0.455-0.124
	c-0.298-0.139-0.58-0.3-0.848-0.489c-0.272-0.232-0.535-0.481-0.764-0.757c-0.129-0.178-0.241-0.363-0.336-0.563
	c-0.106-0.262-0.213-0.522-0.321-0.783c0.103,0.004,0.206,0.008,0.309,0.01c0.124,0.004,0.252,0.014,0.378,0.01
	c0.376-0.01,0.703-0.126,1.045-0.27c0.482-0.204,0.885-0.536,1.267-0.885c0.226-0.206,0.44-0.41,0.606-0.672
	c0.116-0.18,0.224-0.366,0.33-0.552c0.074-0.13,0.134-0.258,0.19-0.396c0.088-0.218,0.096-0.476,0.074-0.707
	c-0.026-0.27-0.078-0.548-0.156-0.809c-0.12-0.414-0.36-0.765-0.61-1.111c-0.03-0.042-0.064-0.082-0.096-0.124
	c0.057,0.001,0.113-0.004,0.17,0.001c0.484,0.075,0.984,0.143,1.443,0.313c0.156,0.072,0.312,0.146,0.467,0.218
	c0.228,0.106,0.464,0.194,0.672,0.336c0.306,0.21,0.604,0.432,0.939,0.59c0.084,0.04,0.166,0.084,0.246,0.134
	c0.072,0.042,0.136,0.062,0.22,0.098c0.148,0.06,0.296,0.032,0.448,0.01c0.074-0.01,0.142-0.05,0.21-0.086
	c0.188-0.094,0.284-0.28,0.36-0.464c0.038-0.094,0.048-0.206,0.066-0.306c0.018-0.092,0.038-0.184,0.062-0.272
	c0.054-0.204,0.117-0.4,0.189-0.597c0.129-0.268,0.27-0.528,0.438-0.773c0.132-0.144,0.277-0.27,0.428-0.392
	c0.236-0.162,0.471-0.312,0.73-0.436c0.453-0.177,0.923-0.287,1.402-0.359c0.063-0.005,0.124-0.009,0.187-0.01
	c0.168,0.036,0.334,0.088,0.5,0.129c0.17,0.04,0.366,0.132,0.542,0.124c0.364-0.018,0.62-0.226,0.741-0.566
	c0.074-0.21,0.004-0.406-0.076-0.598c-0.02-0.048-0.055-0.089-0.091-0.129c-0.013-0.021-0.026-0.042-0.038-0.064
	c-0.164-0.441-0.282-0.893-0.364-1.356c-0.053-0.499-0.068-1-0.079-1.503c-0.013-0.511-0.012-1.013,0.042-1.521
	C30.079,4.705,30.167,4.292,30.317,3.886z M10.289,11.183c-0.31,0.116-0.6,0.256-0.879,0.434c-0.177,0.114-0.341,0.248-0.498,0.39
	c-0.077-0.173-0.183-0.337-0.29-0.496c-0.154-0.228-0.336-0.434-0.516-0.642c-0.178-0.202-0.388-0.36-0.604-0.518
	c-0.228-0.17-0.466-0.326-0.708-0.478C6.533,9.708,6.234,9.6,5.944,9.494C5.824,9.45,5.7,9.412,5.576,9.38
	C5.13,9.268,4.669,9.14,4.207,9.178C4.166,9.182,4.126,9.186,4.086,9.191c0.02-0.125,0.036-0.25,0.053-0.375
	c0.032-0.244-0.008-0.492-0.04-0.731c-0.046-0.324-0.1-0.648-0.16-0.969c-0.109-0.578-0.3-1.118-0.522-1.657
	C3.584,5.471,3.75,5.477,3.915,5.477c0.322,0,0.643-0.023,0.969-0.072c0.48-0.07,0.953-0.294,1.369-0.536
	C6.496,4.728,6.722,4.55,6.939,4.369c0.058,0.127,0.125,0.249,0.2,0.363c0.054,0.08,0.108,0.16,0.162,0.24
	c0.124,0.178,0.264,0.328,0.426,0.47c0.16,0.142,0.328,0.274,0.496,0.406c0.184,0.142,0.364,0.27,0.572,0.378
	c0.178,0.092,0.37,0.16,0.558,0.23c0.194,0.07,0.39,0.136,0.588,0.198c0.186,0.058,0.372,0.112,0.558,0.168
	c0.009,0.003,0.019,0.006,0.028,0.008c-0.087,0.631-0.127,1.265-0.1,1.906c0.024,0.54,0.118,1.073,0.314,1.579
	c0.09,0.228,0.2,0.443,0.325,0.649c-0.003,0-0.006,0.001-0.009,0.001c-0.174,0.022-0.318,0.062-0.48,0.118
	C10.478,11.115,10.385,11.149,10.289,11.183z M11.054,12.524c0.008-0.002,0.016-0.003,0.023-0.004c0.001,0,0.002,0,0.002,0.001
	C11.071,12.521,11.063,12.523,11.054,12.524z M18.979,11.164c-0.001,0-0.003,0.001-0.005,0.001
	c-0.008,0.001-0.016,0.002-0.024,0.003C18.96,11.166,18.969,11.165,18.979,11.164z M15.494,9.712
	c-0.004,0.001-0.009,0.001-0.013,0.002c-0.005,0.001-0.009,0.001-0.014,0.002C15.476,9.715,15.485,9.713,15.494,9.712z
	 M13.975,10.639c0.036-0.069,0.076-0.135,0.12-0.2c0.118-0.133,0.244-0.255,0.38-0.372c0.098-0.068,0.199-0.129,0.305-0.184
	c0.247-0.087,0.503-0.133,0.763-0.177c0.073-0.007,0.146-0.011,0.219-0.009c0.072,0.02,0.143,0.048,0.212,0.077
	c0.224,0.099,0.445,0.203,0.649,0.34c0.153,0.13,0.297,0.272,0.429,0.425c0.002,0.004,0.005,0.008,0.007,0.011
	c0.049,0.166,0.073,0.342,0.096,0.514c0.018,0.159,0.02,0.316,0.02,0.475c-0.265,0.034-0.525,0.093-0.762,0.205
	c-0.306,0.145-0.546,0.359-0.768,0.594c-0.027-0.025-0.049-0.055-0.077-0.078c-0.094-0.078-0.19-0.154-0.294-0.222
	c-0.16-0.106-0.364-0.166-0.546-0.23c-0.072-0.026-0.144-0.048-0.216-0.07c-0.159-0.05-0.321-0.07-0.484-0.09
	c-0.018-0.122-0.036-0.245-0.053-0.368c-0.021-0.175-0.042-0.349-0.037-0.525C13.95,10.716,13.962,10.678,13.975,10.639z
	 M13.865,16.263c-0.2-0.031-0.397-0.068-0.59-0.133c-0.026-0.015-0.05-0.031-0.074-0.047c-0.157-0.134-0.297-0.28-0.43-0.437
	c-0.052-0.073-0.101-0.149-0.144-0.23c-0.066-0.182-0.118-0.364-0.155-0.554c-0.015-0.27-0.004-0.537,0.024-0.807
	c0.008-0.047,0.018-0.093,0.03-0.139c0.048-0.089,0.104-0.173,0.163-0.255c0.068-0.078,0.138-0.15,0.216-0.218
	c0.038-0.027,0.079-0.047,0.117-0.072c0.054-0.018,0.112-0.025,0.161-0.054c0.049-0.029,0.088-0.066,0.129-0.102
	c0.107-0.002,0.214,0.001,0.32,0.003c0.066,0.023,0.136,0.038,0.21,0.05c0.162,0.03,0.317,0.081,0.471,0.136
	c0.04,0.019,0.078,0.039,0.117,0.061c0.171,0.156,0.323,0.333,0.469,0.513c0.028,0.037,0.048,0.08,0.075,0.118
	c0.026,0.044,0.048,0.087,0.081,0.126c0.043,0.067,0.093,0.129,0.128,0.201c0.083,0.233,0.126,0.474,0.165,0.719
	c0.007,0.078,0.007,0.155,0.002,0.233c-0.011,0.045-0.025,0.089-0.04,0.133c-0.067,0.134-0.146,0.259-0.233,0.381
	c-0.073,0.086-0.15,0.167-0.233,0.243c-0.159,0.056-0.323,0.098-0.489,0.126C14.191,16.269,14.03,16.271,13.865,16.263z
	 M17.939,21.879c0.206,0.102,0.418,0.188,0.63,0.274c0.044,0.018,0.088,0.033,0.132,0.048c-0.052,0.07-0.103,0.14-0.154,0.208
	c-0.13,0.174-0.224,0.372-0.312,0.57c-0.064,0.142-0.12,0.288-0.17,0.436c-0.076,0.23-0.114,0.462-0.138,0.703
	c-0.016,0.16,0.028,0.33,0.056,0.488c0.01,0.058,0.02,0.116,0.034,0.174c0.054,0.234,0.124,0.47,0.236,0.683
	c0.049,0.095,0.103,0.19,0.162,0.284c-0.279,0.074-0.552,0.173-0.8,0.316c-0.246,0.142-0.464,0.328-0.682,0.508
	c-0.174,0.146-0.35,0.288-0.512,0.444c-0.097,0.093-0.184,0.194-0.266,0.3c-0.032-0.044-0.059-0.088-0.095-0.133
	c-0.174-0.218-0.364-0.39-0.584-0.56c-0.206-0.158-0.432-0.288-0.646-0.436c-0.398-0.27-0.793-0.566-1.235-0.759
	c-0.087-0.039-0.178-0.066-0.266-0.102c0.185-0.184,0.356-0.388,0.471-0.614c0.186-0.362,0.282-0.727,0.332-1.129
	c0.044-0.354,0.018-0.735-0.104-1.073c-0.1-0.27-0.254-0.492-0.426-0.721c-0.041-0.054-0.082-0.109-0.124-0.162
	c0.259-0.116,0.495-0.266,0.72-0.448c0.232-0.188,0.436-0.406,0.625-0.634c0.309-0.368,0.585-0.749,0.81-1.167
	c0.035,0.085,0.068,0.17,0.104,0.255c0.276,0.641,0.759,1.149,1.269,1.611C17.286,21.491,17.605,21.715,17.939,21.879z
	 M19.032,15.53c-0.205,0.215-0.444,0.406-0.669,0.598c-0.169,0.116-0.346,0.216-0.531,0.306c-0.106,0.038-0.211,0.067-0.32,0.092
	c-0.175,0.012-0.349,0.005-0.526,0c-0.119-0.004-0.238-0.007-0.357-0.015c-0.005-0.001-0.01-0.003-0.016-0.004
	c-0.013-0.006-0.023-0.016-0.036-0.022c0.02-0.031,0.042-0.06,0.061-0.092c0.256-0.446,0.362-0.951,0.302-1.461
	c-0.026-0.228-0.046-0.46-0.094-0.684c-0.03-0.138-0.082-0.268-0.134-0.398c-0.006-0.016-0.014-0.029-0.02-0.044
	c0.047-0.076,0.087-0.156,0.138-0.229c0.068-0.079,0.138-0.152,0.215-0.222c0.046-0.03,0.093-0.059,0.141-0.086
	c0.063-0.02,0.125-0.037,0.19-0.051c0.136-0.009,0.269-0.01,0.405-0.001c0.278,0.057,0.547,0.144,0.81,0.248
	c0.098,0.045,0.194,0.092,0.287,0.145c0.07,0.069,0.134,0.144,0.196,0.221c0.092,0.132,0.176,0.265,0.248,0.408
	c0.049,0.149,0.083,0.299,0.113,0.452c0.004,0.062,0.006,0.123,0.004,0.184C19.321,15.103,19.18,15.323,19.032,15.53z M28.304,9.253
	c-0.278,0.046-0.552,0.096-0.823,0.16c-0.454,0.106-0.897,0.284-1.299,0.518c-0.328,0.188-0.632,0.438-0.911,0.691
	c-0.318,0.288-0.532,0.672-0.741,1.039c-0.146,0.255-0.253,0.537-0.358,0.812c-0.024-0.018-0.049-0.036-0.073-0.054
	c-0.114-0.086-0.228-0.172-0.346-0.256c-0.162-0.118-0.336-0.208-0.52-0.29c-0.29-0.128-0.574-0.266-0.867-0.388
	c-0.258-0.106-0.524-0.152-0.795-0.206s-0.546-0.104-0.819-0.148c-0.091-0.014-0.181-0.028-0.272-0.039
	c0.1-0.165,0.198-0.331,0.288-0.5c0.188-0.356,0.348-0.721,0.486-1.099c0.232-0.643,0.356-1.343,0.306-2.026
	c-0.01-0.136-0.022-0.273-0.038-0.41c0.05,0.022,0.101,0.042,0.152,0.063c0.094,0.038,0.19,0.068,0.288,0.094
	c0.092,0.026,0.184,0.046,0.28,0.062c0.089,0.016,0.167,0.022,0.243,0.022c0.114,0,0.224-0.014,0.358-0.032
	c0.402-0.056,0.791-0.176,1.131-0.404c0.134-0.09,0.246-0.196,0.352-0.314c0.118-0.136,0.24-0.28,0.33-0.438
	c0.152-0.268,0.264-0.558,0.344-0.853c0.06-0.223,0.102-0.444,0.131-0.669c0.382,0.153,0.774,0.291,1.168,0.403
	c0.212,0.062,0.444,0.08,0.664,0.104c0.124,0.014,0.25,0.024,0.376,0.016c0.288-0.022,0.576-0.066,0.859-0.114
	c0.143-0.023,0.286-0.059,0.427-0.099c-0.027,0.209-0.05,0.418-0.067,0.628c-0.032,0.356-0.01,0.715-0.004,1.071
	c0.008,0.326,0.008,0.654,0.02,0.979c0.014,0.39,0.064,0.775,0.12,1.161c0.021,0.149,0.052,0.296,0.087,0.442
	C28.618,9.201,28.461,9.226,28.304,9.253z M29.131,10.292V10.29c0.024,0.057,0.048,0.113,0.072,0.171
	C29.179,10.405,29.155,10.348,29.131,10.292z"/>
</svg>