<?xml version="1.0" encoding="utf-8"?>
<!-- Generator: Adobe Illustrator 21.1.0, SVG Export Plug-In . SVG Version: 6.00 Build 0)  -->
<svg version="1.1" id="designs" xmlns="http://www.w3.org/2000/svg" xmlns:xlink="http://www.w3.org/1999/xlink" x="0px" y="0px"
	 width="32px" height="32px" viewBox="0 0 32 32" style="enable-background:new 0 0 32 32;" xml:space="preserve">
<style type="text/css">
	.sketchy_een{fill:#111918;}
</style>
<path class="sketchy_een" d="M29.816,20.306c-0.041-1.729-0.201-3.451-0.207-5.18c-0.004-1.305-0.006-2.61,0.01-3.915
	c0.016-1.394,0.107-2.784,0.195-4.176c0.02-0.322-0.184-0.596-0.454-0.751c0.025-0.309-0.11-0.656-0.397-0.793
	c-0.183-0.088-0.317-0.118-0.499-0.14c-0.001-0.624-0.018-1.25-0.039-1.874c-0.014-0.484-0.393-0.888-0.886-0.888
	c-0.472,0-0.906,0.405-0.888,0.888c0.02,0.569,0.036,1.146,0.089,1.716c-0.25-0.007-0.501-0.007-0.752-0.011
	c-0.373-0.006-0.746-0.02-1.119-0.03c-0.01,0-0.02-0.001-0.031-0.001c0.002-0.08,0.008-0.161-0.01-0.242
	c-0.043-0.2-0.072-0.405-0.098-0.61c-0.059-0.436-0.109-0.871-0.158-1.307c-0.028-0.251-0.081-0.456-0.267-0.642
	c-0.168-0.17-0.401-0.266-0.642-0.266c-0.239,0-0.472,0.097-0.642,0.266c-0.152,0.152-0.292,0.419-0.267,0.642
	c0.053,0.436,0.107,0.875,0.184,1.309c0.045,0.262,0.088,0.529,0.144,0.791c-0.87-0.033-1.74-0.065-2.61-0.097
	c-0.005-0.231,0.005-0.464,0.01-0.692c0.006-0.365,0.012-0.728,0.02-1.094c0.01-0.492-0.417-0.9-0.9-0.9
	c-0.496,0-0.898,0.411-0.902,0.9c-0.004,0.389,0,0.776,0.01,1.163c0.006,0.172,0.012,0.346,0.02,0.519
	c0.001,0.021,0.003,0.042,0.003,0.063c-0.567-0.01-1.135-0.023-1.702-0.024c0.001-0.616,0.003-1.232-0.005-1.847
	c-0.006-0.478-0.393-0.877-0.877-0.877c-0.468,0-0.886,0.399-0.875,0.877c0.015,0.619,0.027,1.238,0.073,1.854
	c-0.248,0.002-0.496,0.002-0.743,0.005c-0.524,0.006-1.048,0.021-1.572,0.028c0-0.012,0.007-0.022,0.007-0.033
	c-0.016-0.644-0.01-1.289-0.016-1.935c-0.004-0.476-0.393-0.875-0.873-0.875c-0.472,0-0.882,0.399-0.875,0.875
	c0.01,0.644,0.004,1.295,0.077,1.935c0.003,0.023,0.01,0.041,0.013,0.063c-0.609,0.012-1.219,0.014-1.828,0.032
	C9.343,5.038,9.145,5.039,8.948,5.044c0.003-0.036,0.021-0.069,0.018-0.107C8.945,4.614,8.963,4.286,8.968,3.962
	c0.008-0.367,0.014-0.736,0.02-1.104C8.992,2.391,8.593,2,8.129,2C7.662,2,7.273,2.391,7.273,2.859
	c-0.002,0.349,0,0.701,0.004,1.052c0.004,0.342-0.006,0.685,0.026,1.027c0.005,0.051,0.021,0.094,0.03,0.141
	C6.548,5.093,5.764,5.112,4.98,5.127C4.977,5.07,4.987,5.01,4.968,4.959c-0.013-0.027-0.023-0.055-0.03-0.083
	c-0.07-0.631-0.082-1.274-0.122-1.907c-0.03-0.462-0.365-0.851-0.851-0.851c-0.44,0-0.884,0.387-0.853,0.851
	c0.03,0.411,0.057,0.821,0.093,1.23c0.016,0.192,0.032,0.383,0.053,0.573c0.014,0.13,0.028,0.265,0.049,0.393
	c0.001,0.004,0.003,0.007,0.004,0.011c-0.004,0-0.008,0.002-0.012,0.003c-0.01,0-0.021-0.004-0.031-0.004
	c-0.148,0-0.296,0.039-0.424,0.114C2.679,5.385,2.487,5.586,2.461,5.786C2.394,6.285,2.349,6.777,2.321,7.28
	c-0.026,0.454-0.02,0.912-0.024,1.366c-0.006,0.817-0.01,1.631-0.045,2.448c-0.071,1.684-0.124,3.37-0.075,5.056
	c0.024,0.819,0.051,1.639,0.093,2.456s0.095,1.633,0.122,2.45c0.026,0.746,0.037,1.495,0.051,2.243
	c0.008,0.326,0.004,0.65,0.008,0.975c0.002,0.26,0.002,0.522-0.023,0.781c-0.006,0.037-0.008,0.075-0.013,0.112
	c-0.101,0.141-0.173,0.303-0.173,0.485c0,0.464,0.389,0.857,0.855,0.855c0.286-0.001,0.572-0.015,0.858-0.025
	c0.021,0.77,0.05,1.541,0.095,2.311c-0.013,0.058-0.036,0.113-0.036,0.175c0,0.472,0.397,0.873,0.871,0.871
	c0.959-0.006,1.921-0.028,2.88-0.039c0.442-0.004,0.882-0.006,1.325,0.008c0.415,0.014,0.827,0.047,1.242,0.059
	c1.763,0.057,3.526,0.105,5.289,0.128c1.737,0.022,3.477-0.024,5.21-0.118c0.865-0.049,1.729-0.065,2.596-0.083
	c0.857-0.016,1.716-0.028,2.574-0.022c0.306,0.004,0.614,0.038,0.92,0.018c0.266-0.018,0.497-0.147,0.652-0.339
	c0.276-0.138,0.482-0.416,0.471-0.739c-0.012-0.389-0.022-0.776-0.012-1.167c0.011-0.456,0.023-0.912,0.03-1.368
	c0.131,0.003,0.263,0.001,0.395,0.01c0.126,0.028,0.256,0.029,0.395-0.009c0.213-0.059,0.401-0.201,0.513-0.395
	c0.017-0.029,0.019-0.064,0.032-0.095c0.233-0.151,0.399-0.401,0.396-0.694c-0.008-0.76,0.049-1.518,0.049-2.278
	C29.842,21.913,29.836,21.109,29.816,20.306z M26.691,24.5c-0.853,0.014-1.706,0.022-2.557,0.031
	c-1.785,0.02-3.569,0.055-5.354,0.101c-0.888,0.024-1.775,0.045-2.663,0.043c-0.875-0.002-1.749-0.006-2.624-0.008
	c-1.698-0.004-3.394-0.095-5.092-0.03c-1.464,0.057-2.929,0.123-4.394,0.143c0.003-0.084,0.008-0.168,0.007-0.251
	c-0.002-0.32-0.004-0.638-0.012-0.958c-0.018-0.76-0.012-1.522-0.028-2.282c-0.018-0.811-0.091-1.619-0.128-2.428
	C3.81,18,3.778,17.138,3.754,16.277c-0.039-1.498-0.012-2.999,0.043-4.496c0.693-0.072,1.385-0.139,2.085-0.153
	c0.855-0.018,1.712-0.01,2.566-0.01c0.875,0,1.749,0.002,2.624,0.014c0.853,0.012,1.708,0.047,2.561,0.073
	c1.757,0.051,3.514,0.049,5.271,0.065c0.857,0.008,1.712,0.01,2.568,0.036c0.853,0.028,1.704,0.053,2.557,0.079
	c0.723,0.02,1.447,0.018,2.168,0.065c0.588,0.038,1.171,0.093,1.76,0.089c0,0.254-0.002,0.507-0.002,0.761
	c0.004,0.859-0.008,1.718-0.004,2.576c0.006,0.898,0.053,1.791,0.101,2.687c0.065,1.202,0.091,2.403,0.109,3.607
	c0.013,0.928-0.013,1.858-0.039,2.786c-0.101,0.002-0.204,0.004-0.3,0.006C27.444,24.47,27.069,24.494,26.691,24.5z M8.606,6.637
	c0.831-0.026,1.662-0.061,2.491-0.073c0.841-0.01,1.682-0.008,2.521-0.018c1.724-0.02,3.449-0.087,5.172-0.043
	c1.72,0.043,3.437,0.128,5.155,0.207c0.624,0.028,1.246,0.085,1.868,0.109c0.575,0.021,1.15,0.031,1.722,0.1
	c0.145,0.02,0.29,0.041,0.435,0.061c0.028,0.004,0.056,0.007,0.084,0.011c-0.002,0.016-0.01,0.029-0.01,0.045
	c-0.057,1.11-0.076,2.219-0.084,3.327c-0.299-0.011-0.6-0.008-0.898-0.021c-0.383-0.016-0.764-0.043-1.147-0.057
	c-0.509-0.02-1.017-0.018-1.526-0.016c-0.302,0-0.604,0-0.904-0.004c-0.873-0.01-1.747-0.034-2.622-0.059
	c-0.839-0.026-1.68-0.02-2.519-0.034c-1.771-0.028-3.54-0.051-5.309-0.101c-1.694-0.049-3.388-0.065-5.084-0.069
	C7.771,10,7.591,10,7.412,10c-1.189,0-2.377,0.031-3.563,0.115c0.032-1.104,0.068-2.207,0.153-3.308
	C4.68,6.772,5.359,6.731,6.037,6.712C6.894,6.686,7.749,6.662,8.606,6.637z M24.538,28.186c-0.89,0.012-1.781,0.014-2.669,0.028
	c-0.849,0.014-1.696,0.067-2.545,0.089c-0.886,0.026-1.775,0.026-2.661,0.026c-0.886,0.002-1.771-0.034-2.655-0.045
	c-0.839-0.012-1.676-0.053-2.515-0.065c-0.436-0.006-0.871-0.016-1.305-0.033c-0.424-0.018-0.849-0.043-1.273-0.045
	c-0.908-0.002-1.816-0.016-2.724-0.03c-0.155-0.003-0.311-0.003-0.467-0.004c-0.013-0.551-0.016-1.102-0.025-1.652
	c0-0.021-0.011-0.038-0.012-0.058c0.077-0.005,0.154-0.009,0.231-0.014c0.865-0.055,1.731-0.075,2.596-0.087
	c1.714-0.026,3.425,0.055,5.137,0.063c0.873,0.004,1.745,0,2.618-0.002c0.883,0,1.761-0.043,2.642-0.069
	c1.789-0.049,3.575-0.079,5.362-0.115c0.708-0.012,1.416-0.011,2.124-0.012c-0.002,0.462,0,0.923,0.002,1.385
	c0.001,0.198-0.005,0.395-0.009,0.593C25.772,28.171,25.154,28.177,24.538,28.186z M28.172,26.085
	c0.006,0.002,0.01,0.004,0.016,0.006c0.003,0.001,0.006,0.003,0.008,0.004C28.188,26.092,28.18,26.088,28.172,26.085z M28.37,26.169
	c-0.016-0.007-0.033-0.015-0.05-0.022c0.026,0.01,0.053,0.018,0.08,0.026C28.39,26.171,28.38,26.17,28.37,26.169z M27.883,6.967
	c0.009,0.001,0.019,0.002,0.028,0.004c0.005,0.001,0.01,0.001,0.015,0.002C27.911,6.971,27.897,6.969,27.883,6.967z M27.887,6.968
	c-0.012-0.002-0.024-0.003-0.036-0.005c-0.022-0.003-0.043-0.006-0.065-0.009C27.819,6.959,27.853,6.963,27.887,6.968z
	 M27.851,6.963c0.011,0.001,0.021,0.003,0.032,0.004c-0.013-0.002-0.025-0.003-0.038-0.005C27.847,6.963,27.849,6.963,27.851,6.963z
	 M27.887,6.968c0.028,0.004,0.056,0.007,0.084,0.011c0.009,0.001,0.019,0.003,0.028,0.004c-0.029-0.004-0.058-0.008-0.088-0.012
	C27.903,6.97,27.895,6.969,27.887,6.968z M12.305,19.87c-0.097,0.128-0.193,0.258-0.286,0.391c0.105,0.005,0.21,0.009,0.315,0.013
	c0.197,0.008,0.397,0.006,0.596,0.004c0.28-0.004,0.561-0.006,0.837,0.014c0.229,0.018,0.426,0.079,0.592,0.245
	c0.156,0.158,0.245,0.371,0.245,0.592c0,0.454-0.379,0.841-0.837,0.837c-0.703-0.006-1.408-0.034-2.109-0.081
	c-0.195-0.014-0.389-0.028-0.582-0.03c-0.34-0.008-0.685-0.045-0.94-0.296c-0.063-0.063-0.122-0.132-0.162-0.211
	c-0.087-0.168-0.097-0.265-0.118-0.45c-0.02-0.17,0.083-0.391,0.152-0.539c0.049-0.107,0.109-0.209,0.168-0.312
	c0.371-0.626,0.803-1.208,1.279-1.759c0.465-0.535,0.95-1.058,1.398-1.608c0.134-0.185,0.258-0.377,0.362-0.581
	c0.004-0.014,0.009-0.029,0.012-0.043c0.003-0.083-0.001-0.165-0.009-0.247c-0.009-0.044-0.02-0.087-0.032-0.13
	c-0.011-0.007-0.023-0.013-0.034-0.02c-0.016-0.004-0.032-0.008-0.049-0.012c-0.064-0.005-0.127-0.007-0.193-0.003
	c-0.164,0.029-0.325,0.068-0.484,0.116c-0.081,0.043-0.159,0.091-0.235,0.143c-0.115,0.1-0.219,0.207-0.32,0.322
	c-0.122,0.169-0.239,0.342-0.352,0.518c-0.255,0.395-0.762,0.555-1.183,0.31c-0.391-0.229-0.567-0.788-0.31-1.182
	c0.231-0.351,0.474-0.729,0.792-1.007c0.347-0.304,0.76-0.614,1.22-0.715c0.164-0.036,0.326-0.065,0.49-0.089
	c0.166-0.023,0.321-0.044,0.486-0.044c0.019,0,0.039,0,0.059,0.001c0.265,0.01,0.545,0.075,0.784,0.192
	c0.444,0.217,0.796,0.61,0.906,1.102c0.065,0.286,0.117,0.578,0.097,0.873c-0.036,0.537-0.324,1.033-0.644,1.453
	c-0.231,0.306-0.484,0.592-0.74,0.876C13.078,18.955,12.68,19.402,12.305,19.87z M21.09,18.469c0.01,0.168,0.012,0.34,0.002,0.509
	c-0.014,0.203-0.016,0.43-0.085,0.624c-0.113,0.308-0.261,0.574-0.498,0.809c-0.154,0.152-0.326,0.286-0.503,0.409
	c-0.276,0.193-0.578,0.349-0.877,0.505c-0.284,0.15-0.58,0.308-0.9,0.357c-0.251,0.037-0.496,0.071-0.748,0.049
	c-0.312-0.028-0.604-0.132-0.888-0.263c-0.379-0.174-0.734-0.47-1.013-0.784c-0.274-0.31-0.306-0.772,0-1.08
	c0.282-0.28,0.804-0.31,1.08,0c0.089,0.1,0.183,0.189,0.284,0.274c0.097,0.07,0.198,0.135,0.304,0.192
	c0.109,0.039,0.219,0.073,0.332,0.099c0.067,0.001,0.133-0.001,0.199-0.006c0.101-0.018,0.199-0.042,0.296-0.074
	c0.342-0.166,0.663-0.376,0.97-0.599c0.1-0.083,0.191-0.171,0.276-0.269c0.013-0.019,0.025-0.039,0.036-0.059
	c0.013-0.043,0.024-0.086,0.033-0.13c0.017-0.217,0.02-0.434,0.006-0.653c-0.014-0.066-0.031-0.13-0.051-0.195
	c-0.037-0.069-0.078-0.134-0.123-0.198c-0.011-0.012-0.022-0.024-0.033-0.036c-0.007-0.004-0.014-0.008-0.02-0.012
	c-0.061-0.019-0.124-0.033-0.189-0.044c-0.083-0.012-0.178-0.014-0.259-0.037c-0.245-0.071-0.434-0.201-0.569-0.424
	c-0.116-0.192-0.154-0.472-0.073-0.685c0.093-0.253,0.255-0.427,0.444-0.604c0.088-0.083,0.177-0.167,0.257-0.259
	c0.038-0.057,0.073-0.115,0.105-0.174c0.004-0.016,0.008-0.032,0.012-0.048c0-0.001,0-0.002,0-0.004
	c-0.001-0.003-0.001-0.006-0.002-0.008c-0.063-0.001-0.126,0.002-0.19,0.008c-0.286,0.049-0.57,0.111-0.846,0.207
	c-0.356,0.171-0.701,0.372-1.041,0.574c-0.411,0.247-0.961,0.097-1.202-0.314c-0.241-0.415-0.099-0.963,0.316-1.204
	c0.193-0.113,0.387-0.227,0.588-0.326c0.379-0.186,0.76-0.387,1.179-0.464c0.28-0.049,0.563-0.089,0.847-0.116
	C18.65,14.007,18.755,14,18.861,14c0.177,0,0.356,0.02,0.515,0.081c0.237,0.091,0.474,0.193,0.648,0.387
	c0.109,0.12,0.211,0.249,0.288,0.393c0.284,0.549,0.255,1.248-0.083,1.769c-0.009,0.014-0.019,0.029-0.028,0.043
	c0.102,0.074,0.196,0.161,0.283,0.265c0.087,0.105,0.172,0.211,0.247,0.326c0.093,0.14,0.156,0.296,0.215,0.452
	C21.039,17.956,21.076,18.213,21.09,18.469z"/>
</svg>