<?xml version="1.0" encoding="utf-8"?>
<!-- Generator: Adobe Illustrator 21.1.0, SVG Export Plug-In . SVG Version: 6.00 Build 0)  -->
<svg version="1.1" id="designs" xmlns="http://www.w3.org/2000/svg" xmlns:xlink="http://www.w3.org/1999/xlink" x="0px" y="0px"
	 width="32px" height="32px" viewBox="0 0 32 32" style="enable-background:new 0 0 32 32;" xml:space="preserve">
<style type="text/css">
	.sketchy_een{fill:#111918;}
</style>
<path class="sketchy_een" d="M29.916,15.466c-0.021-0.746,0.004-1.494,0.004-2.239c-0.002-0.564-0.029-1.13-0.023-1.695
	c0.006-0.676,0.053-1.349,0.102-2.021c0.035-0.469-0.418-0.861-0.861-0.861c-0.13,0-0.247,0.03-0.353,0.079
	c-0.063-0.015-0.121-0.048-0.185-0.048c-0.137,0-0.273,0.035-0.396,0.11c-0.217,0.133-0.416,0.297-0.625,0.443
	c-0.184,0.131-0.375,0.25-0.562,0.373c-0.439,0.289-0.869,0.59-1.3,0.89c-0.424,0.297-0.847,0.592-1.285,0.869
	c-0.2,0.127-0.4,0.255-0.601,0.382c-0.003-0.401-0.006-0.803-0.005-1.204c0.002-0.804,0.066-1.605,0.086-2.409
	c0.012-0.459-0.39-0.841-0.84-0.841c-0.089,0-0.17,0.025-0.25,0.052c-0.122-0.091-0.259-0.16-0.416-0.16
	c-0.015,0-0.031,0-0.046,0.002c-0.734,0.051-1.466,0.027-2.204,0.018C19.767,7.2,19.378,7.202,18.99,7.212
	c-0.375,0.01-0.75,0.041-1.125,0.045c-1.433,0.016-2.868,0.021-4.301,0.016c-0.738-0.004-1.474-0.02-2.21-0.01
	C10.674,7.274,9.997,7.284,9.319,7.29C8.599,7.294,7.88,7.307,7.16,7.323C6.443,7.339,5.727,7.325,5.01,7.321
	C4.47,7.317,3.931,7.323,3.39,7.335C3.047,7.342,2.758,7.568,2.653,7.88C2.484,8.037,2.375,8.257,2.361,8.504
	C2.334,8.988,2.314,9.473,2.297,9.957c-0.012,0.375-0.012,0.752-0.039,1.127c-0.055,0.73-0.096,1.456-0.115,2.189
	c-0.01,0.369,0,0.74-0.002,1.109c-0.002,0.373-0.018,0.746-0.033,1.119C2.08,16.245,2.086,16.995,2.1,17.741
	c0.012,0.527,0.004,1.054,0,1.581c-0.002,0.24,0.006,0.48,0.002,0.72c-0.002,0.225-0.027,0.449-0.037,0.676
	c-0.023,0.502-0.027,1.005-0.041,1.507c-0.012,0.478,0.014,0.959-0.021,1.433c-0.034,0.428,0.361,0.78,0.764,0.813
	c0.152,0.203,0.38,0.346,0.647,0.341c0.89-0.02,1.783-0.018,2.673-0.043c0.761-0.02,1.523-0.031,2.284-0.039
	c1.576-0.018,3.153,0.01,4.729,0.018c0.777,0.004,1.554,0.002,2.331,0.002c0.808,0.002,1.617,0.021,2.423,0.006
	c0.767-0.014,1.533-0.018,2.3-0.041c0.357-0.012,0.715-0.023,1.072-0.045c0.4-0.025,0.808-0.055,1.21-0.043
	c0.078,0.002,0.156,0.004,0.236,0.006c0.442,0.004,0.802-0.343,0.869-0.767c0.152-0.148,0.249-0.353,0.251-0.578
	c0.008-0.492,0.027-0.982,0.012-1.474c-0.008-0.275-0.029-0.547-0.021-0.822c0.006-0.223,0.008-0.443,0.02-0.664
	c0.024-0.435,0.019-0.871,0.019-1.307c0.276,0.201,0.553,0.401,0.824,0.609c0.442,0.347,0.882,0.697,1.309,1.062
	c0.248,0.213,0.494,0.43,0.75,0.633c0.244,0.19,0.493,0.373,0.739,0.559c0.198,0.156,0.393,0.317,0.581,0.487
	c0.297,0.274,0.726,0.313,1.059,0.102c0.018,0.001,0.035,0.011,0.053,0.011c0.43,0,0.763-0.351,0.773-0.771
	c0.014-0.664,0.035-1.324,0.033-1.988c-0.002-0.691-0.016-1.382-0.014-2.073C29.932,16.925,29.94,16.195,29.916,15.466z
	 M20.446,22.982c-0.785,0.041-1.572,0.068-2.357,0.08c-1.554,0.021-3.112,0.016-4.666,0.014c-1.591,0-3.182,0.043-4.774,0.059
	c-0.769,0.006-1.539,0.02-2.308,0.033c-0.398,0.008-0.797,0.018-1.195,0.008c-0.432-0.008-0.865-0.023-1.298-0.019
	c-0.063,0.001-0.126,0.002-0.189,0.003c0.005-0.176,0.009-0.352,0.009-0.529c-0.002-0.351,0.002-0.703,0.018-1.054
	c0.031-0.66,0.072-1.318,0.094-1.98c0.014-0.371,0-0.746,0-1.117c0-0.387,0.004-0.773,0.01-1.158c0.012-0.732,0-1.464,0.018-2.196
	c0.025-1.033,0.021-2.066,0.033-3.098c0.004-0.515,0.047-1.031,0.08-1.544c0.034-0.528,0.074-1.058,0.113-1.588
	c1.294-0.037,2.589-0.07,3.883-0.084c0.705-0.008,1.412-0.014,2.116-0.006c0.697,0.008,1.392,0.027,2.089,0.033
	c0.92,0.01,1.841,0.008,2.761,0.004c0.527,0,1.052-0.002,1.579-0.002c0.359,0,0.717,0.004,1.074,0.008
	c0.182,0.004,0.363,0.006,0.545,0.004c0.201,0,0.4-0.023,0.601-0.031c0.756-0.031,1.515-0.033,2.271-0.014
	c0.423,0.012,0.841,0.028,1.263,0.01c-0.022,1.258-0.066,2.516-0.078,3.775c-0.008,0.679,0,1.361,0.006,2.04
	c0.006,0.676,0.004,1.351,0.021,2.027c0.008,0.34-0.002,0.683-0.004,1.025c-0.002,0.338,0.006,0.677,0.01,1.015
	c0.006,0.355-0.004,0.711-0.012,1.064c-0.006,0.232-0.041,0.463-0.049,0.695c-0.02,0.474,0.016,0.947,0.033,1.421
	c0.012,0.328,0.018,0.657,0.025,0.986c-0.217,0.01-0.434,0.022-0.651,0.035C21.161,22.921,20.804,22.962,20.446,22.982z
	 M24.595,17.647c-0.257-0.2-0.514-0.4-0.773-0.598c0-0.289-0.008-0.579-0.005-0.869c0.008-0.597,0.006-1.195,0.014-1.79
	c0.002-0.232,0-0.464,0.001-0.695c0.572-0.374,1.132-0.766,1.695-1.155c0.012,0.41,0.009,0.82-0.013,1.228
	c-0.023,0.441-0.027,0.886-0.018,1.328c0.02,0.875,0,1.753,0.043,2.628c0.012,0.221,0.034,0.441,0.054,0.661
	C25.26,18.14,24.923,17.899,24.595,17.647z M27.66,19.946c-0.149-0.116-0.301-0.227-0.45-0.343c0-0.008,0.005-0.015,0.004-0.023
	c-0.023-0.424-0.074-0.847-0.119-1.269c-0.049-0.461-0.062-0.929-0.066-1.392c-0.004-0.853,0.035-1.704,0.037-2.558
	c0.002-0.357,0.002-0.711,0.025-1.068c0.042-0.613,0.063-1.22,0.017-1.832c0.221-0.151,0.439-0.307,0.663-0.453
	c0.151-0.098,0.304-0.194,0.456-0.291c-0.023,1.146,0.014,2.293,0.026,3.439c0.008,0.736,0.043,1.472,0.061,2.208
	c0.016,0.711,0.012,1.423,0.016,2.136c0.004,0.545,0.033,1.089,0.041,1.636c0.002,0.114,0.004,0.229,0.006,0.343
	C28.137,20.302,27.897,20.126,27.66,19.946z M14.701,19.353c-0.004-0.246-0.016-0.492-0.02-0.738
	c-0.006-0.476,0.029-0.953,0.016-1.429c-0.004-0.158-0.062-0.298-0.141-0.424c-0.009-0.195-0.085-0.382-0.222-0.518
	c-0.135-0.135-0.355-0.246-0.551-0.228c-0.31,0.027-0.625,0.014-0.935,0.006c-0.271-0.006-0.545-0.008-0.816-0.016
	c-0.303-0.008-0.603-0.006-0.904-0.004c-0.23,0-0.461,0.002-0.689-0.002c-0.061-0.001-0.122-0.001-0.183-0.001
	c-0.617,0-1.237,0.042-1.853,0.052c-0.217,0.004-0.433,0-0.65-0.002c-0.178-0.002-0.355-0.006-0.531-0.006
	c-0.424,0-0.845,0.016-1.267,0.047c-0.213,0.016-0.398,0.074-0.553,0.23c-0.087,0.086-0.143,0.194-0.182,0.31
	c-0.118,0.14-0.198,0.312-0.195,0.506c0.006,0.515,0.033,1.033,0.025,1.548c-0.006,0.277-0.012,0.552-0.018,0.83
	c-0.008,0.474-0.021,0.949-0.021,1.421c0.001,0.245,0.119,0.461,0.294,0.612c0.141,0.215,0.372,0.371,0.641,0.364
	c0.371-0.01,0.74-0.049,1.111-0.049c0.133,0,0.266,0,0.398-0.01c0.162-0.01,0.32,0.008,0.482,0.018
	c0.197,0.01,0.396-0.002,0.594-0.004c0.141-0.002,0.281-0.012,0.422-0.02c0.246-0.012,0.494,0.027,0.74,0.035
	c0.455,0.014,0.91,0.016,1.363,0.027c0.184,0.006,0.365,0.018,0.547,0.023c0.09,0.002,0.178-0.008,0.267-0.018
	c0.143-0.014,0.285-0.012,0.428-0.008c0.269,0.004,0.535-0.029,0.804-0.043c0.219-0.012,0.439-0.043,0.66-0.023
	c0.25,0.022,0.465-0.125,0.605-0.325c0.049-0.031,0.103-0.055,0.145-0.097c0.102-0.102,0.172-0.221,0.209-0.357
	c0.035-0.129,0.039-0.257,0.011-0.384c-0.013-0.209-0.006-0.422-0.009-0.631C14.718,19.814,14.703,19.584,14.701,19.353z
	 M8.882,20.378c-0.414,0.006-0.826,0.006-1.24-0.004c-0.334-0.007-0.67-0.01-1.005-0.016c-0.001-0.282,0.001-0.564-0.005-0.844
	c-0.006-0.277-0.016-0.553-0.016-0.83c-0.001-0.363,0.006-0.727,0.011-1.09c0.591-0.053,1.182-0.101,1.775-0.114
	c0.261-0.006,0.522,0.001,0.784,0.006c-0.006,0.646,0.019,1.292,0.019,1.937c0,0.236-0.01,0.474-0.01,0.711
	c0,0.088-0.003,0.177-0.003,0.265C9.089,20.39,8.986,20.377,8.882,20.378z M12.541,20.392c-0.371,0.021-0.742,0.023-1.113,0.041
	c-0.146,0.006-0.293-0.006-0.439-0.01c-0.075-0.002-0.151,0.002-0.226,0.005c-0.014-0.328-0.017-0.656-0.03-0.984
	c-0.025-0.648,0.011-1.293,0.05-1.94c0.416,0.01,0.831,0.037,1.249,0.044c0.271,0.006,0.545,0.016,0.816,0.014
	c0.081-0.001,0.162-0.003,0.243-0.005c0.025,0.352,0.049,0.704,0.042,1.058c-0.004,0.256-0.016,0.512-0.019,0.765
	c-0.002,0.227-0.01,0.455,0.008,0.681c0.008,0.093,0.006,0.186,0.006,0.279C12.931,20.354,12.736,20.382,12.541,20.392z
	 M14.72,20.63c0-0.003-0.001-0.007-0.001-0.01C14.72,20.624,14.72,20.628,14.72,20.63C14.72,20.631,14.72,20.631,14.72,20.63z"/>
</svg>