<?xml version="1.0" encoding="utf-8"?>
<!-- Generator: Adobe Illustrator 21.1.0, SVG Export Plug-In . SVG Version: 6.00 Build 0)  -->
<svg version="1.1" id="designs" xmlns="http://www.w3.org/2000/svg" xmlns:xlink="http://www.w3.org/1999/xlink" x="0px" y="0px"
	 width="32px" height="32px" viewBox="0 0 32 32" style="enable-background:new 0 0 32 32;" xml:space="preserve">
<style type="text/css">
	.sketchy_een{fill:#111918;}
</style>
<path class="sketchy_een" d="M28.37,19.675c-0.068-0.446-0.183-0.87-0.399-1.271c-0.489-0.905-1.409-1.427-2.404-1.567
	c-0.273-0.039-0.542-0.054-0.811-0.054c-0.055,0-0.11,0.006-0.165,0.007c0.267-0.675,0.501-1.363,0.655-2.073
	c0.195-0.897,0.321-1.814,0.315-2.733c-0.006-0.917-0.115-1.843-0.36-2.727c-0.249-0.895-0.623-1.777-1.104-2.573
	c-0.492-0.816-1.084-1.555-1.76-2.227c-0.662-0.658-1.458-1.114-2.279-1.54c-0.422-0.218-0.853-0.422-1.294-0.596
	c-0.504-0.2-1.036-0.294-1.575-0.313C17.014,2.002,16.838,2,16.663,2c-0.241,0-0.482,0.004-0.724,0.01
	c-0.454,0.013-0.907,0.025-1.359,0.064c-0.913,0.078-1.841,0.29-2.69,0.64c-0.459,0.189-0.909,0.395-1.324,0.674
	c-0.401,0.271-0.8,0.564-1.15,0.897C8.083,5.559,7.079,7.172,6.524,8.93c-0.13,0.413-0.253,0.829-0.321,1.255
	c-0.08,0.498-0.125,0.991-0.144,1.495c-0.019,0.471,0.012,0.95,0.041,1.421c0.027,0.467,0.09,0.948,0.204,1.403
	c0.175,0.689,0.459,1.353,0.738,2.007c0.173,0.402,0.364,0.798,0.571,1.184c-0.198,0.017-0.395,0.038-0.592,0.067
	c-0.304,0.045-0.605,0.167-0.886,0.292c-0.841,0.372-1.557,1.026-2.061,1.793c-0.339,0.518-0.424,1.205-0.479,1.808
	c-0.031,0.335-0.012,0.652,0.049,0.985c0.045,0.257,0.164,0.502,0.269,0.738c0.056,0.126,0.125,0.255,0.199,0.37
	c0.158,0.247,0.329,0.483,0.52,0.705c0.222,0.257,0.531,0.452,0.816,0.633c0.442,0.278,0.952,0.418,1.464,0.498
	c0.129,0.021,0.256,0.011,0.382,0.017c-0.055,0.242-0.093,0.496-0.106,0.741c-0.016,0.265,0.041,0.541,0.091,0.8
	C7.335,27.439,7.459,27.728,7.586,28c0.107,0.232,0.259,0.444,0.42,0.64c0.185,0.224,0.399,0.395,0.631,0.568
	c0.284,0.21,0.65,0.335,0.979,0.458c0.956,0.362,2.005,0.35,2.996,0.166c0.459-0.086,0.905-0.183,1.345-0.346
	c0.251-0.095,0.498-0.199,0.744-0.308c0.23-0.101,0.44-0.257,0.646-0.395c0.364-0.243,0.711-0.518,1.028-0.816
	c0.082-0.077,0.162-0.158,0.241-0.24c0.119,0.116,0.239,0.231,0.358,0.349c0.354,0.35,0.724,0.668,1.143,0.94
	c0.44,0.286,0.921,0.51,1.419,0.677c0.467,0.156,0.938,0.245,1.431,0.29c0.489,0.045,0.973-0.008,1.456-0.085
	c0.214-0.033,0.426-0.076,0.638-0.126c0.483-0.115,0.925-0.387,1.294-0.713c0.37-0.325,0.662-0.73,0.905-1.154
	c0.37-0.648,0.453-1.425,0.444-2.157c-0.004-0.298-0.021-0.592-0.068-0.887c-0.018-0.112-0.048-0.221-0.076-0.33
	c0.155-0.077,0.311-0.151,0.462-0.238c0.387-0.224,0.753-0.52,1.078-0.823c0.644-0.605,1.078-1.446,1.224-2.316
	c0.039-0.23,0.074-0.469,0.088-0.703C28.431,20.187,28.409,19.936,28.37,19.675z M7.808,13.446c0.002,0.017,0.004,0.033,0.007,0.05
	c-0.004-0.028-0.007-0.056-0.011-0.084C7.805,13.424,7.806,13.435,7.808,13.446z M17.019,27.323L17.019,27.323
	c0.001,0,0.001,0,0.002,0C17.02,27.323,17.02,27.323,17.019,27.323z M26.781,20.766c-0.046,0.265-0.113,0.518-0.208,0.771
	c-0.083,0.175-0.172,0.341-0.28,0.504c-0.165,0.198-0.343,0.379-0.538,0.545c-0.166,0.117-0.335,0.229-0.509,0.335
	c-0.132,0.08-0.278,0.143-0.421,0.208c-0.113-0.148-0.222-0.299-0.339-0.442c-0.15-0.185-0.298-0.37-0.463-0.539
	c-0.182-0.184-0.428-0.276-0.673-0.276c-0.247,0-0.494,0.093-0.677,0.276c-0.346,0.346-0.395,1.012,0,1.351
	c0.247,0.213,0.465,0.457,0.676,0.705c0.168,0.229,0.322,0.465,0.447,0.721c0.051,0.151,0.086,0.306,0.113,0.463
	c0.035,0.332,0.064,0.667,0.037,1.001c-0.032,0.188-0.073,0.374-0.136,0.554c-0.079,0.155-0.173,0.298-0.272,0.441
	c-0.12,0.142-0.246,0.271-0.388,0.392c-0.12,0.082-0.242,0.154-0.373,0.22c-0.233,0.079-0.477,0.114-0.72,0.153
	c-0.182,0.023-0.365,0.044-0.548,0.043c-0.209-0.002-0.415-0.016-0.622-0.037c-0.367-0.065-0.726-0.18-1.074-0.314
	c-0.43-0.196-0.831-0.432-1.217-0.706c-0.25-0.205-0.489-0.424-0.732-0.638c-0.128-0.113-0.259-0.222-0.372-0.35
	c-0.226-0.257-0.498-0.428-0.849-0.446c-0.524-0.027-0.839,0.397-1.164,0.73c-0.243,0.249-0.498,0.482-0.764,0.703
	c-0.322,0.233-0.655,0.452-1.015,0.623c-0.263,0.104-0.53,0.197-0.804,0.274c-0.264,0.074-0.54,0.121-0.813,0.16
	c-0.351,0.038-0.693,0.049-1.046,0.03c-0.358-0.061-0.7-0.152-1.04-0.279c-0.141-0.068-0.277-0.141-0.408-0.226
	c-0.086-0.075-0.165-0.153-0.241-0.239c-0.081-0.122-0.153-0.248-0.217-0.379c-0.062-0.176-0.108-0.353-0.142-0.536
	c-0.008-0.107-0.009-0.214-0.001-0.322c0.038-0.211,0.088-0.415,0.159-0.617c0.318-0.666,0.774-1.257,1.217-1.844
	c0.14-0.183,0.15-0.49,0.091-0.703c-0.062-0.228-0.214-0.426-0.419-0.545c-0.21-0.123-0.467-0.158-0.703-0.092
	c-0.249,0.068-0.399,0.22-0.547,0.419c-0.258,0.35-0.499,0.709-0.732,1.075c-0.109,0.031-0.218,0.053-0.329,0.072
	c-0.16,0.014-0.318,0.016-0.478,0.003c-0.236-0.045-0.468-0.103-0.694-0.183c-0.204-0.098-0.394-0.219-0.577-0.351
	c-0.098-0.085-0.189-0.173-0.274-0.271c-0.157-0.218-0.294-0.442-0.413-0.684c-0.049-0.133-0.089-0.266-0.116-0.405
	c-0.014-0.216-0.002-0.428,0.019-0.643c0.036-0.236,0.081-0.466,0.159-0.691c0.047-0.088,0.099-0.171,0.155-0.254
	c0.224-0.267,0.461-0.513,0.728-0.734c0.19-0.128,0.385-0.237,0.589-0.333c0.176-0.064,0.351-0.12,0.535-0.157
	c0.419-0.04,0.841-0.038,1.263-0.046c0.212,0.271,0.428,0.534,0.655,0.794c0.467,0.53,1.004,1.002,1.538,1.464
	c0.183,0.158,0.378,0.259,0.625,0.259c0.234,0,0.461-0.093,0.627-0.259c0.319-0.321,0.368-0.938,0-1.251
	c-0.403-0.343-0.802-0.689-1.195-1.043c-0.33-0.3-0.627-0.645-0.913-0.99c-0.295-0.394-0.567-0.807-0.814-1.233
	c-0.264-0.454-0.472-0.946-0.685-1.426c-0.033-0.078-0.066-0.156-0.099-0.234c0.003,0.008,0.007,0.015,0.01,0.023
	c-0.242-0.6-0.458-1.202-0.554-1.844c-0.111-0.896-0.117-1.815-0.022-2.713c0.126-0.701,0.334-1.375,0.591-2.037
	c0.17-0.39,0.351-0.773,0.561-1.145C9.181,7.206,9.45,6.809,9.73,6.426c0.409-0.503,0.86-0.962,1.36-1.376
	c0.371-0.271,0.758-0.504,1.17-0.707c0.673-0.267,1.359-0.474,2.073-0.599c0.534-0.058,1.07-0.073,1.607-0.089
	c0.505-0.014,1.021-0.029,1.526,0.02c0.29,0.053,0.567,0.144,0.841,0.252c0.402,0.18,0.796,0.376,1.189,0.577
	c0.431,0.217,0.84,0.453,1.232,0.73c0.51,0.43,0.961,0.914,1.384,1.432c0.22,0.296,0.434,0.597,0.616,0.917
	c0.199,0.35,0.38,0.705,0.545,1.072c0.14,0.365,0.262,0.733,0.364,1.11c0.084,0.318,0.143,0.641,0.192,0.967
	c0.078,0.796,0.086,1.585,0.004,2.379c-0.081,0.563-0.185,1.123-0.328,1.676c-0.145,0.563-0.338,1.116-0.555,1.656
	c-0.374,0.836-0.814,1.633-1.344,2.381c-0.227,0.271-0.477,0.517-0.73,0.763c-0.24,0.235-0.481,0.473-0.739,0.688
	c-0.18,0.138-0.316,0.273-0.381,0.503c-0.06,0.222-0.029,0.463,0.088,0.662c0.113,0.193,0.298,0.335,0.514,0.395
	c0.308,0.083,0.603-0.014,0.835-0.222c0.319-0.284,0.623-0.588,0.934-0.882c0.362-0.343,0.681-0.708,0.967-1.119
	c0.287-0.41,0.545-0.84,0.787-1.279c0.057,0.013,0.112,0.035,0.173,0.032c0.386-0.022,0.769-0.028,1.153,0
	c0.229,0.042,0.45,0.097,0.668,0.177c0.114,0.059,0.222,0.123,0.326,0.195c0.075,0.066,0.144,0.134,0.211,0.209
	c0.083,0.124,0.158,0.253,0.223,0.387c0.073,0.217,0.124,0.438,0.164,0.663C26.818,20.256,26.807,20.506,26.781,20.766z
	 M20.204,17.726c-0.216,0-0.426-0.088-0.58-0.241c-0.154-0.154-0.239-0.364-0.239-0.58c0-0.238,0.097-0.403,0.239-0.582
	c0.047-0.058,0.093-0.116,0.139-0.174c0.327-0.451,0.595-0.938,0.817-1.451c0.106-0.264,0.208-0.532,0.28-0.806
	c0.073-0.273,0.127-0.545,0.172-0.822c0.042-0.48,0.043-0.949-0.006-1.427c-0.093-0.52-0.267-1.031-0.471-1.516
	c0.027,0.062,0.053,0.125,0.08,0.189c-0.058-0.14-0.117-0.278-0.175-0.417c0.025,0.062,0.053,0.125,0.078,0.189
	c-0.008-0.02-0.017-0.041-0.026-0.061c-0.074-0.16-0.15-0.319-0.228-0.477c-0.095-0.197-0.138-0.395-0.08-0.611
	c0.055-0.198,0.187-0.372,0.366-0.475c0.119-0.07,0.26-0.105,0.402-0.104c0.277,0,0.558,0.131,0.684,0.389
	c0.195,0.403,0.372,0.816,0.52,1.238c0.117,0.333,0.239,0.671,0.327,1.014c0.195,0.769,0.241,1.575,0.136,2.359
	c-0.109,0.79-0.352,1.524-0.664,2.256c-0.265,0.621-0.664,1.164-1.061,1.703c-0.074,0.123-0.171,0.222-0.296,0.294
	C20.492,17.687,20.354,17.726,20.204,17.726z"/>
</svg>