<?xml version="1.0" encoding="utf-8"?>
<!-- Generator: Adobe Illustrator 21.1.0, SVG Export Plug-In . SVG Version: 6.00 Build 0)  -->
<svg version="1.1" id="designs" xmlns="http://www.w3.org/2000/svg" xmlns:xlink="http://www.w3.org/1999/xlink" x="0px" y="0px"
	 width="32px" height="32px" viewBox="0 0 32 32" style="enable-background:new 0 0 32 32;" xml:space="preserve">
<style type="text/css">
	.sketchy_een{fill:#111918;}
</style>
<path class="sketchy_een" d="M14.736,10.835c-0.004-0.746-0.039-1.49-0.029-2.236c0.01-0.721-0.006-1.443,0.004-2.164
	c0.004-0.467,0.383-0.854,0.854-0.854c0.457,0,0.864,0.387,0.854,0.854c-0.033,1.467-0.049,2.933-0.018,4.4
	c0.01,0.455-0.385,0.832-0.832,0.832C15.113,11.667,14.74,11.29,14.736,10.835z M27.296,28.176c0,0.151-0.039,0.292-0.114,0.422
	c-0.11,0.188-0.291,0.326-0.499,0.385c-0.107,0.029-0.22,0.036-0.329,0.022c-0.087,0.072-0.185,0.128-0.295,0.158
	c-0.228,0.063-0.416,0.01-0.622-0.079c-0.187-0.083-0.37-0.171-0.555-0.255c-0.21-0.083-0.424-0.156-0.635-0.236
	c-0.247-0.094-0.491-0.196-0.742-0.277c-0.6-0.198-1.207-0.375-1.809-0.568c-0.199,0.187-0.395,0.377-0.603,0.553
	c-0.291,0.247-0.583,0.495-0.862,0.756c-0.267,0.251-0.528,0.508-0.803,0.752c-0.254,0.228-0.505,0.456-0.717,0.726
	c-0.033,0.043-0.067,0.087-0.1,0.13c-0.122,0.157-0.379,0.234-0.569,0.234c-0.148,0-0.285-0.054-0.411-0.13
	c-0.022-0.01-0.047-0.011-0.068-0.023c-0.155-0.092-0.316-0.267-0.346-0.452c-0.126-0.75-0.234-1.502-0.381-2.248
	c-0.143-0.713-0.3-1.427-0.469-2.134c-0.179-0.753-0.352-1.509-0.564-2.253c-0.021,0.091-0.039,0.182-0.062,0.272
	c-0.192,0.774-0.373,1.549-0.532,2.329c-0.157,0.764-0.344,1.525-0.448,2.297c0.003-0.021,0.006-0.042,0.009-0.062
	c-0.089,0.638-0.209,1.271-0.323,1.907c-0.037,0.198-0.206,0.387-0.375,0.487c-0.188,0.11-0.418,0.141-0.628,0.082
	c-0.044-0.012-0.081-0.042-0.122-0.061c-0.007,0-0.013,0.004-0.02,0.004c-0.245,0-0.408-0.102-0.593-0.245
	c-0.31-0.24-0.593-0.524-0.885-0.787c-0.298-0.269-0.597-0.54-0.905-0.801c-0.528-0.445-1.067-0.879-1.599-1.321
	c-1.153,0.347-2.292,0.736-3.438,1.105c-0.442,0.141-0.927-0.161-1.046-0.595c-0.014-0.05-0.006-0.099-0.01-0.149
	c-0.11-0.177-0.154-0.392-0.095-0.603c0.204-0.703,0.436-1.392,0.683-2.081c0.255-0.707,0.503-1.416,0.756-2.124
	c0.522-1.452,1.081-2.889,1.689-4.307c0.246-0.61,0.454-1.232,0.685-1.846c0.283-0.752,0.603-1.488,0.944-2.215
	c0.042-0.092,0.118-0.17,0.206-0.233c-0.262-0.254-0.516-0.515-0.744-0.797c-0.62-0.764-1.072-1.635-1.39-2.566
	c-0.293-0.856-0.467-1.759-0.495-2.664C7.04,7.923,7.283,7.195,7.58,6.504c0.175-0.406,0.365-0.799,0.597-1.178
	c0.261-0.428,0.565-0.828,0.887-1.213c0.283-0.342,0.615-0.64,0.95-0.933c0.709-0.624,1.484-1.196,2.364-1.551
	c0.406-0.163,0.815-0.293,1.239-0.397c0.481-0.118,0.976-0.167,1.469-0.202C15.375,1.01,15.662,1,15.949,1
	c0.596,0,1.19,0.045,1.781,0.142c0.414,0.069,0.813,0.167,1.207,0.31c0.418,0.151,0.834,0.318,1.227,0.526
	c0.383,0.202,0.77,0.399,1.147,0.613c0.402,0.229,0.779,0.528,1.101,0.858c0.334,0.34,0.64,0.697,0.903,1.098
	c0.23,0.355,0.469,0.707,0.666,1.082c0.436,0.834,0.648,1.792,0.701,2.727s-0.202,1.838-0.518,2.707
	c-0.167,0.457-0.332,0.919-0.542,1.357c-0.188,0.389-0.401,0.766-0.64,1.127c-0.263,0.4-0.54,0.793-0.874,1.133
	c-0.117,0.12-0.244,0.228-0.37,0.338c0.608,1.247,1.151,2.521,1.71,3.789c0.308,0.701,0.603,1.406,0.889,2.117
	c0.232,0.578,0.444,1.165,0.679,1.741c0.302,0.673,0.596,1.347,0.857,2.036c0.214,0.56,0.453,1.109,0.686,1.659
	c0.198,0.468,0.409,0.929,0.622,1.39C27.257,27.882,27.296,28.025,27.296,28.176z M9.678,11.983c0.126,0.223,0.27,0.434,0.419,0.641
	c0.312,0.371,0.654,0.713,1.002,1.052c0.311,0.303,0.615,0.615,0.944,0.897c0.304,0.214,0.626,0.391,0.963,0.553
	c0.416,0.166,0.846,0.31,1.287,0.393c0.452,0.087,0.91,0.144,1.366,0.208c0.153,0.011,0.305,0.017,0.458,0.019
	c0.038,0.001,0.076,0.004,0.112,0.009c0.175-0.009,0.349-0.027,0.523-0.048c0.482-0.082,0.942-0.22,1.397-0.396
	c0.73-0.326,1.391-0.749,2.028-1.233c0.2-0.158,0.395-0.318,0.583-0.49c0.195-0.177,0.368-0.375,0.533-0.58
	c0.363-0.507,0.684-1.046,0.941-1.615c0.15-0.375,0.285-0.754,0.403-1.141c0.111-0.36,0.218-0.716,0.289-1.085
	c0.039-0.423,0.032-0.843-0.009-1.265c-0.07-0.439-0.172-0.87-0.32-1.291c-0.243-0.516-0.554-0.999-0.897-1.456
	c-0.299-0.339-0.612-0.669-0.961-0.957c-0.29-0.198-0.596-0.363-0.91-0.525c-0.28-0.145-0.562-0.287-0.851-0.415
	c-0.296-0.119-0.592-0.24-0.9-0.331c-0.329-0.097-0.669-0.153-1.008-0.204c-0.847-0.09-1.705-0.064-2.553,0.017
	c-0.538,0.085-1.064,0.225-1.573,0.421c-0.464,0.23-0.891,0.5-1.305,0.811c-0.316,0.254-0.619,0.52-0.916,0.795
	c-0.271,0.248-0.505,0.524-0.731,0.81C9.785,5.854,9.595,6.135,9.423,6.437c-0.141,0.249-0.259,0.508-0.371,0.77
	c-0.132,0.346-0.24,0.687-0.304,1.052C8.72,8.605,8.739,8.945,8.771,9.289c0.106,0.674,0.294,1.323,0.544,1.958
	C9.425,11.498,9.542,11.744,9.678,11.983z M15.362,18.98c0.132-0.491,0.25-1.035,0.346-1.534c0,0-0.099-0.015-0.181-0.027
	c-0.215-0.031-0.428-0.07-0.642-0.111c-0.304-0.057-0.609-0.1-0.911-0.163c-0.675-0.139-1.319-0.349-1.946-0.634
	c-0.298-0.136-0.589-0.3-0.858-0.485c-0.121-0.084-0.222-0.189-0.334-0.283c-0.277,0.574-0.562,1.147-0.824,1.729
	c-0.239,0.579-0.463,1.164-0.69,1.745c-0.277,0.703-0.569,1.4-0.838,2.107c-0.281,0.738-0.563,1.474-0.819,2.221
	c-0.257,0.746-0.497,1.494-0.754,2.24c-0.13,0.378-0.265,0.755-0.392,1.135c0.834-0.228,1.669-0.452,2.488-0.731
	c0.034-0.012,0.07-0.011,0.105-0.017c0.122-0.069,0.254-0.118,0.396-0.118c0.226,0,0.408,0.092,0.575,0.237
	c0.579,0.508,1.149,1.031,1.757,1.504c-0.018-0.014-0.037-0.029-0.056-0.043c0.453,0.354,0.89,0.727,1.329,1.097
	c0.047-0.247,0.094-0.493,0.134-0.741c0.108-0.67,0.277-1.329,0.408-1.997c0.153-0.781,0.367-1.549,0.565-2.321
	c0.204-0.787,0.365-1.578,0.528-2.375C14.913,20.593,15.144,19.79,15.362,18.98z M24.992,27.194c0.079,0.024,0.153,0.062,0.231,0.09
	c-0.001-0.002-0.001-0.003-0.002-0.005c-0.139-0.375-0.277-0.748-0.432-1.117c-0.292-0.695-0.549-1.404-0.834-2.102
	c-0.272-0.638-0.535-1.275-0.782-1.923c-0.21-0.552-0.438-1.098-0.666-1.643c-0.339-0.777-0.692-1.55-1.054-2.315
	c-0.342-0.723-0.717-1.429-1.083-2.138c-0.54,0.357-1.097,0.684-1.702,0.924c-0.397,0.157-0.801,0.3-1.219,0.392
	c-0.033,0.007-0.068,0.011-0.101,0.018c-0.12,0.594-0.295,1.177-0.454,1.76c-0.131,0.48-0.271,0.96-0.401,1.441
	c0.03,0.053,0.062,0.106,0.079,0.167c0.232,0.825,0.452,1.657,0.664,2.489c0.194,0.76,0.353,1.531,0.534,2.295
	c0.173,0.723,0.332,1.451,0.481,2.181c0.065,0.32,0.126,0.641,0.186,0.963c0.23-0.204,0.455-0.415,0.674-0.631
	c0.163-0.161,0.328-0.318,0.495-0.475c0.128-0.12,0.267-0.232,0.391-0.357c0.298-0.298,0.587-0.603,0.895-0.891
	c0.161-0.151,0.369-0.23,0.575-0.23c0.104,0,0.208,0.023,0.306,0.064c0.035-0.005,0.069-0.019,0.105-0.019
	c0.072,0,0.145,0.011,0.216,0.034c0.693,0.23,1.384,0.463,2.063,0.732C24.432,27.006,24.709,27.108,24.992,27.194z"/>
</svg>