<?xml version="1.0" encoding="utf-8"?>
<!-- Generator: Adobe Illustrator 21.1.0, SVG Export Plug-In . SVG Version: 6.00 Build 0)  -->
<svg version="1.1" id="designs" xmlns="http://www.w3.org/2000/svg" xmlns:xlink="http://www.w3.org/1999/xlink" x="0px" y="0px"
	 width="32px" height="32px" viewBox="0 0 32 32" style="enable-background:new 0 0 32 32;" xml:space="preserve">
<style type="text/css">
	.sketchy_een{fill:#111918;}
</style>
<path class="sketchy_een" d="M28.918,20.024c0.01-0.861,0-1.725-0.006-2.586c-0.008-0.836-0.028-1.672-0.026-2.505
	c0.002-0.907,0.002-1.811,0.002-2.716c-0.003-1.304,0.01-2.607,0.017-3.91C28.962,8.187,29,8.06,29,7.929
	c0-0.128-0.036-0.253-0.091-0.37c0.001-0.221,0.003-0.443,0.003-0.664c0-0.763,0.002-1.524-0.016-2.287
	c-0.012-0.452-0.368-0.828-0.828-0.828c-0.439,0-0.844,0.376-0.828,0.828c0.029,0.815,0.056,1.629,0.061,2.444
	c-0.599,0.013-1.199,0.018-1.798,0.04c-0.83,0.029-1.658,0.073-2.488,0.102c-1.674,0.061-3.345,0.144-5.019,0.187
	c-1.725,0.045-3.449,0.047-5.176,0.061c-0.826,0.004-1.648-0.043-2.474-0.065C9.499,7.35,8.65,7.372,7.8,7.376
	C6.798,7.384,5.794,7.374,4.79,7.369c0.014-0.884,0.051-1.769,0.055-2.653c0-0.46-0.385-0.846-0.846-0.846
	c-0.458,0-0.846,0.385-0.844,0.846c0.008,1.782-0.049,3.561-0.037,5.343c0.006,0.834,0.024,1.666,0.067,2.501
	c0.045,0.826,0.057,1.656,0.065,2.484c0.016,1.632-0.022,3.264-0.01,4.899c0.006,0.818,0,1.636-0.024,2.452
	c-0.024,0.787-0.069,1.571-0.122,2.356c-0.051,0.745-0.061,1.493-0.094,2.24c-0.02,0.45,0.391,0.828,0.828,0.828
	c0.446,0,0.834-0.378,0.828-0.828c-0.006-0.501,0.005-1.001,0.022-1.501c0.066,0.017,0.13,0.041,0.201,0.038
	c0.975-0.043,1.951-0.104,2.926-0.163c0.411-0.026,0.822-0.039,1.233-0.051c0.395-0.01,0.789-0.043,1.184-0.061
	c0.859-0.039,1.721-0.053,2.582-0.087c0.859-0.035,1.719-0.041,2.578-0.059c1.058-0.024,2.118-0.022,3.18-0.022
	c0.6,0,1.202,0,1.803-0.006c1.666-0.01,3.333,0.012,5.001,0.049c0.378,0.008,0.757,0.016,1.137,0.028
	c0.207,0.008,0.414,0.012,0.62,0.021c-0.004,0.135-0.006,0.27-0.009,0.405c-0.014,0.572-0.02,1.145-0.053,1.715
	c-0.03,0.503,0.442,0.922,0.922,0.922c0.482,0,0.952-0.419,0.922-0.922c-0.039-0.714-0.043-1.434-0.043-2.149
	c0.002-0.838-0.002-1.674,0.002-2.511C28.871,21.766,28.908,20.895,28.918,20.024z M27.284,8.822
	c-0.009,0.446-0.014,0.893-0.022,1.339c-0.037,1.768-0.039,3.534-0.031,5.302c0.006,0.85,0.014,1.699,0.014,2.551
	c-0.002,0.697,0.002,1.396-0.014,2.096c-0.018-0.002-0.037-0.014-0.055-0.014c-0.018,0-0.036,0.001-0.054,0.003
	c-0.409,0.041-0.818,0.051-1.229,0.063c-0.331,0.01-0.661,0.036-0.992,0.055c-0.019-0.721-0.014-1.442-0.014-2.162
	c0-0.848,0-1.695-0.016-2.541c-0.033-1.697-0.065-3.392-0.008-5.089c0.017-0.517,0.035-1.032,0.051-1.547
	C25.702,8.838,26.494,8.817,27.284,8.822z M23.25,8.937c-0.012,0.762-0.018,1.522-0.011,2.284c0.008,0.852-0.002,1.705,0.01,2.559
	c0.012,0.83,0.031,1.662,0.039,2.494c0.008,0.84,0.004,1.68,0.006,2.521c0.002,0.487,0.007,0.973-0.005,1.459
	c-0.346,0.001-0.692,0.001-1.037,0.001c-0.632-0.001-1.263,0.009-1.894,0.017c-0.047-0.602-0.068-1.208-0.068-1.812
	c0-0.8,0.018-1.603,0.014-2.403c-0.008-1.642-0.02-3.284-0.037-4.926c-0.007-0.704-0.007-1.41-0.01-2.115
	c0.64-0.016,1.279-0.032,1.919-0.04C22.534,8.972,22.892,8.95,23.25,8.937z M18.675,9.056c0.019,0.59,0.041,1.179,0.053,1.769
	c0.016,0.824,0.016,1.646,0.012,2.47c-0.006,0.852-0.01,1.703-0.014,2.555c-0.002,0.791-0.026,1.581-0.035,2.372
	c-0.009,0.687,0.005,1.376,0.037,2.064c-0.512,0.002-1.024,0.001-1.535,0.01c-0.315,0.005-0.631,0.007-0.946,0.011
	c0.001-0.019,0.011-0.035,0.011-0.053c-0.018-1.495,0-2.989,0.031-4.484c0.031-1.489,0.073-2.975,0.047-4.464
	c-0.013-0.732-0.029-1.465-0.045-2.198C17.085,9.095,17.88,9.08,18.675,9.056z M14.583,9.12c0.024,0,0.048-0.001,0.072-0.001
	c0.045,1.341,0.071,2.681,0.093,4.022c0.024,1.471,0.002,2.938-0.014,4.407c-0.01,0.903-0.016,1.803-0.041,2.704
	c-0.001,0.025,0.012,0.047,0.014,0.072c-0.698,0.008-1.397,0.018-2.096,0.025c0.01-0.049,0.03-0.094,0.029-0.145
	c-0.012-0.793,0.033-1.585,0.037-2.378c0.004-0.734-0.022-1.467-0.031-2.201c-0.014-0.804-0.006-1.609-0.016-2.411
	c-0.01-0.828-0.031-1.654-0.031-2.482c0-0.549,0.013-1.097,0.026-1.645C13.278,9.101,13.93,9.114,14.583,9.12z M9.409,8.987
	c0.505,0,1.009,0.021,1.513,0.045c-0.019,1.665,0.062,3.328,0.093,4.993c0.014,0.797,0.018,1.591,0.063,2.385
	c0.041,0.737,0.075,1.477,0.067,2.214c-0.008,0.527-0.016,1.054-0.043,1.579c-0.003,0.059,0.018,0.111,0.03,0.166
	c-0.616,0.007-1.231,0.012-1.849,0.029c-0.397,0.011-0.794,0.019-1.191,0.031c-0.041-0.65-0.122-1.297-0.139-1.948
	c-0.024-0.802-0.043-1.603-0.047-2.405c-0.006-0.83-0.01-1.66,0.002-2.49c0.012-0.84,0.059-1.677,0.104-2.517
	c0.038-0.698,0.06-1.397,0.042-2.095C8.505,8.98,8.957,8.987,9.409,8.987z M4.822,12.433c-0.028-0.838-0.033-1.674-0.033-2.511
	C4.788,9.608,4.791,9.295,4.789,8.981c0.56-0.006,1.119-0.01,1.679-0.011c0.033,0.734,0.037,1.467,0.003,2.203
	c-0.037,0.83-0.116,1.656-0.136,2.486c-0.039,1.624-0.069,3.253-0.008,4.877c0.025,0.647,0.097,1.289,0.142,1.935
	c-0.556,0.004-1.111,0.013-1.667,0.025c0.003-0.236,0.005-0.472,0.007-0.708c0.008-0.802,0.016-1.603,0.035-2.405
	c0.02-0.806,0.008-1.613,0.01-2.417C4.859,14.12,4.851,13.277,4.822,12.433z M26.452,23.446c-0.383,0-0.766,0.011-1.145,0.013
	c-0.395,0.002-0.789,0.002-1.182,0c-0.448,0-0.899-0.002-1.347,0c-0.891,0.008-1.782,0.006-2.673,0.004
	c-0.781,0-1.56-0.002-2.338,0.002c-0.844,0.004-1.687,0.022-2.531,0.045c-0.85,0.022-1.699,0.026-2.549,0.067
	c-1.668,0.083-3.335,0.134-5.003,0.197c-0.936,0.035-1.87,0.063-2.806,0.094c-0.049,0.002-0.093,0.021-0.14,0.031
	c0.022-0.545,0.042-1.09,0.045-1.636c0-0.053,0.001-0.106,0.002-0.159c1.685-0.061,3.372-0.15,5.061-0.148
	c1.766,0,3.534,0.018,5.302,0.039c1.689,0.024,3.379,0.01,5.068,0.03c1.687,0.018,3.379,0.047,5.066-0.024
	c0.293-0.012,0.584-0.028,0.875-0.035c0.124-0.002,0.248-0.002,0.372-0.002c0.197,0.002,0.395,0.002,0.592-0.012
	c0.026-0.002,0.047-0.012,0.073-0.015c-0.007,0.416-0.02,0.831-0.025,1.248c-0.001,0.098-0.005,0.197-0.007,0.295
	C26.926,23.466,26.69,23.446,26.452,23.446z"/>
</svg>