<?xml version="1.0" encoding="utf-8"?>
<!-- Generator: Adobe Illustrator 21.1.0, SVG Export Plug-In . SVG Version: 6.00 Build 0)  -->
<svg version="1.1" id="designs" xmlns="http://www.w3.org/2000/svg" xmlns:xlink="http://www.w3.org/1999/xlink" x="0px" y="0px"
	 width="32px" height="32px" viewBox="0 0 32 32" style="enable-background:new 0 0 32 32;" xml:space="preserve">
<style type="text/css">
	.sketchy_een{fill:#111918;}
</style>
<path class="sketchy_een" d="M27.212,14.476c-0.241,0.01-0.48-0.001-0.72,0.001c-0.055-0.741-0.129-1.482-0.245-2.216
	c-0.12-0.739-0.358-1.471-0.606-2.174c-0.291-0.829-0.64-1.621-1.142-2.345c-0.279-0.401-0.58-0.788-0.929-1.133
	c-0.129-0.131-0.281-0.244-0.424-0.358c-0.216-0.171-0.431-0.343-0.651-0.508c-0.326-0.242-0.666-0.463-1.015-0.671
	c-0.174-0.101-0.366-0.182-0.55-0.263c-0.259-0.113-0.52-0.227-0.782-0.328c-0.401-0.156-0.808-0.287-1.227-0.39
	c-0.398-0.097-0.803-0.165-1.204-0.246c-0.014-0.003-0.028-0.004-0.042-0.006c-0.046-0.153-0.092-0.308-0.155-0.457
	c-0.043-0.103-0.086-0.208-0.137-0.309c-0.088-0.184-0.231-0.347-0.373-0.493C16.626,2.185,16.042,2,15.498,2
	c-0.019,0-0.037,0-0.056,0.001c-0.349,0.009-0.698,0.12-1.005,0.28c-0.15,0.079-0.293,0.172-0.422,0.283
	c-0.191,0.167-0.313,0.355-0.409,0.587c-0.098,0.243-0.123,0.503-0.134,0.762c-0.352,0.061-0.705,0.124-1.052,0.215
	c-0.876,0.229-1.645,0.688-2.369,1.217c-0.355,0.259-0.7,0.529-1.049,0.795C8.628,6.427,8.281,6.724,7.965,7.076
	C7.648,7.429,7.382,7.84,7.112,8.23C6.999,8.389,6.892,8.552,6.799,8.725C6.673,8.959,6.577,9.209,6.48,9.457
	c-0.311,0.792-0.473,1.615-0.604,2.45c-0.084,0.536-0.15,1.071-0.199,1.611c-0.025,0.285-0.053,0.569-0.074,0.854
	c-0.282-0.004-0.565-0.01-0.847-0.002c-0.426,0.013-0.78,0.345-0.78,0.78c0,0.407,0.355,0.805,0.78,0.78
	c0.23-0.013,0.46-0.014,0.689-0.024c0.007,0.243,0.028,0.486,0.066,0.734c0.03,0.195,0.062,0.388,0.113,0.578
	c0.053,0.191,0.126,0.379,0.193,0.565c0.154,0.422,0.334,0.835,0.585,1.21c0.24,0.36,0.557,0.681,0.857,0.992
	c0.304,0.317,0.657,0.583,1.004,0.846c0.31,0.233,0.625,0.461,0.947,0.673c0.354,0.233,0.707,0.46,1.086,0.653
	c0.357,0.181,0.739,0.336,1.114,0.477c-0.336,1.065-0.604,2.152-0.866,3.238c-0.128,0.525-0.255,1.052-0.383,1.579
	c-0.113,0.462-0.204,0.932-0.336,1.388c-0.113,0.39,0.131,0.81,0.52,0.917c0.394,0.109,0.805-0.129,0.915-0.52
	c0.173-0.604,0.325-1.212,0.482-1.819c0.37,0.004,0.74,0.002,1.109-0.007c0.375-0.007,0.748-0.043,1.122-0.056
	c0.405-0.012,0.809-0.022,1.214-0.031c0.004,0.169,0.003,0.337,0.011,0.506c0.013,0.259,0.032,0.518,0.043,0.777
	c0.004,0.105,0.009,0.21,0.017,0.315c0.002,0.034,0.006,0.068,0.009,0.099c0.026,0.212,0.038,0.253,0.124,0.45
	c0.066,0.111,0.156,0.201,0.266,0.266c0.173,0.101,0.383,0.128,0.574,0.075c0.383-0.105,0.638-0.527,0.52-0.915
	c-0.001-0.004-0.002-0.008-0.003-0.012c-0.01-0.134-0.013-0.27-0.015-0.404c-0.006-0.251-0.021-0.503-0.026-0.756
	c-0.003-0.149,0.005-0.298,0.006-0.446c0.542-0.023,1.085-0.05,1.627-0.062c0.362-0.008,0.726-0.004,1.09-0.002
	c0.298,0.003,0.598,0.004,0.897,0c0.285,0.731,0.573,1.462,0.79,2.215c0.116,0.407,0.542,0.655,0.953,0.542
	c0.388-0.107,0.679-0.553,0.542-0.953c-0.15-0.435-0.293-0.872-0.448-1.306c-0.178-0.499-0.386-0.989-0.585-1.482
	c-0.227-0.559-0.394-1.144-0.581-1.718c-0.183-0.555-0.353-1.116-0.539-1.672c0.142-0.036,0.288-0.062,0.428-0.103
	c0.747-0.214,1.471-0.493,2.12-0.928c0.371-0.25,0.737-0.52,1.06-0.829c0.268-0.255,0.51-0.529,0.739-0.82
	c0.257-0.328,0.51-0.656,0.73-1.011c0.21-0.341,0.356-0.717,0.495-1.092c0.239-0.644,0.399-1.312,0.458-1.995
	c0.241,0.014,0.482,0.024,0.722,0.037c0.443,0.024,0.812-0.39,0.812-0.814C28.024,14.86,27.654,14.455,27.212,14.476z M15.053,3.677
	c0.061-0.04,0.122-0.076,0.187-0.11c0.077-0.026,0.154-0.047,0.233-0.064c0.062-0.004,0.123-0.005,0.185-0.003
	c0.085,0.019,0.168,0.042,0.251,0.071c0.018,0.01,0.036,0.021,0.053,0.032c0.023,0.02,0.045,0.042,0.067,0.063
	c-0.057-0.001-0.115-0.009-0.172-0.009c-0.257,0-0.514,0.011-0.769,0.036c-0.013,0.001-0.026,0.004-0.04,0.005
	C15.05,3.69,15.051,3.684,15.053,3.677z M7.258,13.754c0.035-0.412,0.069-0.825,0.123-1.237c0.065-0.46,0.133-0.922,0.228-1.376
	c0.099-0.485,0.256-0.954,0.432-1.417c0.223-0.472,0.523-0.892,0.838-1.307c0.152-0.186,0.305-0.371,0.48-0.535
	c0.147-0.136,0.299-0.262,0.455-0.386c0.734-0.539,1.474-1.102,2.301-1.491c0.535-0.208,1.089-0.342,1.657-0.433
	c0.482-0.061,0.967-0.109,1.45-0.127c0.536-0.018,1.078,0.005,1.613,0.06c0.509,0.078,1.013,0.182,1.514,0.298
	c0.557,0.128,1.102,0.327,1.633,0.54c0.311,0.137,0.607,0.286,0.895,0.465c0.295,0.184,0.581,0.379,0.859,0.589
	c0.187,0.149,0.372,0.3,0.552,0.458c0.183,0.162,0.342,0.351,0.496,0.541c0.371,0.514,0.691,1.056,0.956,1.632
	c0.23,0.561,0.432,1.137,0.619,1.712c0.182,0.563,0.324,1.133,0.414,1.715c0.036,0.334,0.052,0.67,0.071,1.005
	c-0.602-0.022-1.204-0.043-1.805-0.07c-1.508-0.066-3.018-0.083-4.524-0.103c-0.139-0.002-0.279-0.003-0.418-0.003
	c-0.624,0-1.248,0.017-1.873,0.024c-0.807,0.009-1.611,0.015-2.418,0.021c-0.741,0.004-1.484,0.007-2.225,0.013
	c-0.779,0.008-1.559,0.028-2.337,0.03c-0.678,0.002-1.355,0.018-2.033,0.018C7.223,14.178,7.24,13.966,7.258,13.754z M14.04,25.869
	c-0.388,0.015-0.775,0.034-1.161,0.037c-0.242,0.002-0.484-0.009-0.727-0.016c0.097-0.358,0.194-0.716,0.293-1.073
	c0.165-0.587,0.37-1.165,0.561-1.744c0.004-0.011,0-0.022,0.003-0.033c0.305,0.05,0.612,0.093,0.914,0.134
	c0.4,0.054,0.802,0.093,1.206,0.119c0.004,0.518,0.017,1.038,0.024,1.556c0.004,0.33,0.007,0.66,0.01,0.99
	C14.788,25.846,14.414,25.856,14.04,25.869z M18.367,25.719c-0.546,0.017-1.09,0.044-1.634,0.07c0.003-0.323,0.006-0.646,0.01-0.969
	c0.007-0.499,0.018-0.998,0.023-1.497c0.604-0.013,1.206-0.051,1.808-0.124c0.114-0.014,0.227-0.037,0.34-0.053
	c0.005,0.025-0.002,0.049,0.007,0.074c0.195,0.559,0.403,1.114,0.589,1.675c0.088,0.264,0.182,0.527,0.27,0.792
	C19.309,25.69,18.837,25.703,18.367,25.719z M24.859,16.209c-0.094,0.594-0.29,1.164-0.511,1.723
	c-0.185,0.401-0.423,0.766-0.686,1.118c-0.344,0.436-0.726,0.82-1.156,1.168c-0.399,0.295-0.819,0.548-1.27,0.755
	c-0.906,0.354-1.877,0.563-2.839,0.7c-0.718,0.092-1.437,0.135-2.161,0.126c-0.73-0.011-1.46-0.03-2.187-0.117
	c-0.709-0.1-1.421-0.225-2.091-0.485c-0.476-0.216-0.956-0.434-1.389-0.729c-0.468-0.317-0.925-0.65-1.374-0.992
	c-0.511-0.407-0.981-0.865-1.397-1.371c-0.139-0.21-0.253-0.429-0.355-0.658c-0.071-0.18-0.142-0.359-0.205-0.543
	c-0.067-0.193-0.108-0.388-0.142-0.587c-0.016-0.156-0.018-0.31-0.018-0.464c0.819-0.014,1.639-0.019,2.459-0.027
	c0.771-0.006,1.54-0.006,2.311,0.019c0.763,0.024,1.523,0.008,2.285,0c1.54-0.015,3.082-0.079,4.622-0.058
	c0.762,0.011,1.521,0.011,2.283,0.019c0.763,0.007,1.527,0.066,2.29,0.098c0.518,0.022,1.036,0.054,1.553,0.08
	C24.873,16.057,24.867,16.133,24.859,16.209z M19.469,9.253c-0.304-0.27-0.274-0.782,0-1.058c0.147-0.146,0.33-0.214,0.515-0.214
	c0.194,0,0.388,0.075,0.543,0.214c0.304,0.278,0.612,0.552,0.9,0.844c0.311,0.317,0.625,0.63,0.869,1.002
	c0.236,0.36,0.428,0.765,0.578,1.169c0.101,0.27,0.197,0.553,0.248,0.839c0.036,0.193,0.032,0.37-0.071,0.546
	c-0.092,0.157-0.246,0.276-0.424,0.324c-0.356,0.099-0.788-0.116-0.87-0.495c-0.06-0.271-0.148-0.543-0.25-0.802
	c-0.15-0.33-0.329-0.644-0.538-0.939C20.522,10.15,19.987,9.713,19.469,9.253z"/>
</svg>