<?xml version="1.0" encoding="utf-8"?>
<!-- Generator: Adobe Illustrator 21.1.0, SVG Export Plug-In . SVG Version: 6.00 Build 0)  -->
<svg version="1.1" id="designs" xmlns="http://www.w3.org/2000/svg" xmlns:xlink="http://www.w3.org/1999/xlink" x="0px" y="0px"
	 width="32px" height="32px" viewBox="0 0 32 32" style="enable-background:new 0 0 32 32;" xml:space="preserve">
<style type="text/css">
	.sketchy_een{fill:#111918;}
</style>
<path class="sketchy_een" d="M15.664,11.596c-0.113,0-0.224,0.025-0.327,0.071c-0.174-0.012-0.338,0.034-0.499,0.115
	c-0.329,0.164-0.636,0.342-0.924,0.572c-0.166,0.135-0.325,0.271-0.478,0.42c-0.296,0.292-0.545,0.659-0.721,1.033
	c-0.188,0.398-0.34,0.804-0.362,1.243c-0.012,0.22,0.041,0.452,0.114,0.657c0.108,0.298,0.271,0.53,0.468,0.777
	c0.164,0.209,0.408,0.371,0.621,0.521c0.104,0.073,0.215,0.137,0.325,0.201c0.311,0.178,0.642,0.317,0.992,0.396
	c0.553,0.124,1.1,0.019,1.611-0.209c0.248-0.11,0.464-0.228,0.681-0.398c0.197-0.155,0.342-0.327,0.493-0.526
	c0.155-0.203,0.244-0.418,0.338-0.657c0.095-0.242,0.135-0.514,0.166-0.771c0.023-0.184,0.035-0.369,0.025-0.555
	c-0.012-0.278-0.046-0.553-0.093-0.829c-0.052-0.311-0.249-0.588-0.437-0.829c-0.087-0.107-0.178-0.207-0.271-0.306
	c-0.408-0.435-0.938-0.715-1.497-0.893C15.814,11.607,15.739,11.596,15.664,11.596z M16.33,13.818
	c0.044,0.065,0.084,0.129,0.12,0.196c0.006,0.022,0.011,0.044,0.016,0.066c0.025,0.285,0.038,0.567,0.016,0.852
	c-0.029,0.157-0.066,0.31-0.116,0.463c-0.03,0.058-0.062,0.113-0.099,0.168c-0.058,0.064-0.117,0.125-0.181,0.183
	c-0.1,0.061-0.2,0.114-0.304,0.163c-0.099,0.036-0.197,0.065-0.298,0.087c-0.059,0.004-0.117,0.004-0.176,0.002
	c-0.119-0.027-0.235-0.061-0.349-0.103c-0.215-0.11-0.42-0.241-0.618-0.378c-0.077-0.066-0.149-0.135-0.217-0.21
	c-0.029-0.046-0.057-0.093-0.083-0.141c-0.008-0.026-0.015-0.053-0.022-0.08c0-0.016,0-0.033,0-0.049
	c0.04-0.145,0.088-0.286,0.142-0.426c0.092-0.193,0.2-0.373,0.322-0.547c0.15-0.17,0.314-0.318,0.487-0.46
	c0.21-0.14,0.432-0.253,0.658-0.364c0.109,0.056,0.216,0.116,0.319,0.185C16.085,13.546,16.211,13.678,16.33,13.818z M30.744,7.42
	c-0.025-0.188-0.052-0.346-0.108-0.524c-0.048-0.156-0.118-0.305-0.184-0.452C30.39,6.306,30.303,6.18,30.22,6.051
	c-0.145-0.226-0.319-0.435-0.493-0.64c-0.176-0.203-0.398-0.375-0.615-0.532c-0.137-0.099-0.275-0.19-0.422-0.275
	c-0.188-0.112-0.381-0.217-0.58-0.315c-0.833-0.402-1.678-0.783-2.52-1.16C25.146,2.93,24.701,2.74,24.251,2.56
	c-0.393-0.158-0.781-0.332-1.178-0.479c-0.868-0.317-1.762-0.487-2.665-0.659c-0.48-0.092-0.962-0.169-1.446-0.235
	c-0.473-0.063-0.941-0.123-1.419-0.154c-0.412-0.025-0.828-0.025-1.243-0.031C16.218,1,16.136,1,16.054,1
	c-0.802,0-1.604,0.064-2.399,0.182c-0.787,0.118-1.562,0.28-2.332,0.485C10.49,1.89,9.698,2.219,8.907,2.558
	C8.098,2.889,7.277,3.187,6.485,3.56C6.084,3.75,5.682,3.935,5.284,4.133C4.901,4.328,4.541,4.558,4.182,4.794
	C3.435,5.285,2.728,5.828,2.126,6.495C1.96,6.679,1.809,6.875,1.664,7.079C1.517,7.284,1.422,7.546,1.333,7.781
	C1.096,8.406,1.287,9.164,1.587,9.74c0.195,0.373,0.491,0.675,0.81,0.942c0.259,0.217,0.478,0.35,0.793,0.474
	c0.338,0.135,0.698,0.137,1.05,0.079c0.208-0.036,0.405-0.109,0.597-0.193c0.338,0.571,0.669,1.146,0.975,1.735
	c0.4,0.769,0.76,1.556,1.145,2.33c0.385,0.777,0.824,1.524,1.245,2.282c0.425,0.769,0.847,1.539,1.268,2.31
	c0.816,1.497,1.586,3.02,2.38,4.529c0.387,0.741,0.773,1.483,1.168,2.22c0.412,0.762,0.859,1.501,1.272,2.264
	c0.336,0.619,0.63,1.259,0.963,1.878c0.213,0.4,0.756,0.522,1.137,0.298c0.054-0.032,0.093-0.081,0.138-0.124
	c0.113-0.067,0.215-0.152,0.28-0.274c0.365-0.688,0.665-1.407,1.036-2.092c0.391-0.727,0.795-1.448,1.187-2.175
	c0.4-0.739,0.802-1.477,1.181-2.227c0.379-0.751,0.752-1.505,1.118-2.262c0.76-1.562,1.526-3.121,2.322-4.666
	c0.381-0.741,0.766-1.487,1.178-2.214c0.427-0.756,0.872-1.5,1.309-2.247c0.293-0.501,0.582-1.005,0.871-1.509
	c0.109,0.044,0.217,0.094,0.329,0.129c0.458,0.143,0.924,0.16,1.392,0.056c0.234-0.054,0.466-0.164,0.673-0.282
	c0.315-0.178,0.541-0.474,0.737-0.77c0.253-0.379,0.443-0.82,0.528-1.268C30.761,8.472,30.808,7.919,30.744,7.42z M8.823,9.297
	c0.103,0.148,0.204,0.295,0.285,0.457c0.039,0.111,0.071,0.223,0.096,0.339c0.018,0.206,0.024,0.408,0.012,0.615
	c-0.031,0.169-0.071,0.333-0.127,0.493c-0.06,0.117-0.13,0.226-0.205,0.333c-0.165,0.193-0.348,0.365-0.544,0.526
	c-0.084,0.057-0.169,0.109-0.259,0.156c-0.191,0.068-0.384,0.121-0.585,0.157c-0.017,0.003-0.028,0.017-0.044,0.021
	c-0.072-0.158-0.14-0.317-0.216-0.474c-0.282-0.575-0.582-1.135-0.893-1.691c0.096-0.045,0.191-0.095,0.289-0.137
	c0.424-0.17,0.853-0.33,1.284-0.478C8.217,9.509,8.52,9.403,8.823,9.297z M13.369,23.119c-0.091,0.062-0.187,0.112-0.28,0.167
	c-0.33-0.634-0.657-1.269-0.984-1.904c0.042-0.011,0.082-0.027,0.124-0.037c0.237-0.055,0.474-0.104,0.714-0.146
	c0.123-0.009,0.243-0.009,0.367-0.001c0.057,0.011,0.115,0.024,0.171,0.04c0.011,0.006,0.021,0.013,0.032,0.02
	c0.09,0.078,0.174,0.161,0.253,0.251c0.067,0.101,0.125,0.205,0.177,0.313c0.021,0.065,0.039,0.13,0.053,0.196
	c0.004,0.073,0.004,0.146,0.002,0.221c-0.017,0.084-0.038,0.167-0.064,0.25c-0.035,0.065-0.073,0.126-0.114,0.188
	C13.681,22.837,13.531,22.983,13.369,23.119z M19.768,21.433c-0.129-0.081-0.258-0.161-0.382-0.25
	c-0.104-0.092-0.201-0.188-0.295-0.292c-0.105-0.148-0.203-0.3-0.286-0.463c-0.03-0.086-0.054-0.174-0.075-0.264
	c-0.009-0.126-0.012-0.251-0.005-0.378c0.015-0.066,0.033-0.13,0.053-0.198c0.077-0.162,0.162-0.315,0.263-0.463
	c0.037-0.041,0.074-0.079,0.113-0.117c0.089-0.058,0.182-0.109,0.277-0.157c0.221-0.078,0.442-0.13,0.672-0.167
	c0.178-0.012,0.351-0.012,0.527,0.002c0.145,0.026,0.287,0.063,0.431,0.094c-0.065,0.133-0.131,0.265-0.196,0.398
	C20.497,19.929,20.134,20.682,19.768,21.433z M24.593,11.694c-0.011,0.005-0.021,0.01-0.032,0.016
	c-0.263,0.094-0.532,0.174-0.807,0.225c-0.188,0.016-0.376,0.017-0.564,0.006c-0.167-0.031-0.326-0.071-0.486-0.127
	c-0.138-0.067-0.269-0.141-0.397-0.225c-0.1-0.087-0.194-0.178-0.282-0.278c-0.05-0.073-0.094-0.147-0.134-0.226
	c-0.024-0.076-0.044-0.15-0.061-0.227c-0.005-0.098-0.004-0.194,0.003-0.292c0.032-0.149,0.076-0.292,0.128-0.434
	c0.026-0.053,0.053-0.104,0.083-0.156c0.066-0.042,0.134-0.079,0.205-0.116c0.247-0.093,0.501-0.169,0.757-0.24
	c0.174-0.049,0.311-0.159,0.423-0.288c0.192,0.085,0.385,0.171,0.577,0.254c0.381,0.166,0.76,0.338,1.127,0.532
	c0.122,0.065,0.24,0.137,0.358,0.207c-0.242,0.435-0.483,0.87-0.723,1.305C24.708,11.649,24.651,11.667,24.593,11.694z M28.87,8.54
	c-0.029,0.146-0.068,0.286-0.119,0.424c-0.075,0.156-0.157,0.307-0.253,0.45c-0.014,0.015-0.029,0.03-0.044,0.044
	c-0.025,0.015-0.049,0.028-0.075,0.042c-0.053,0.018-0.106,0.034-0.161,0.046c-0.08,0.002-0.16,0-0.24-0.007
	c-0.305-0.061-0.594-0.167-0.881-0.285c-0.324-0.143-0.636-0.311-0.961-0.453c-0.379-0.164-0.75-0.338-1.127-0.505
	c-0.816-0.36-1.615-0.742-2.463-1.025c-0.787-0.263-1.578-0.505-2.392-0.681c-0.938-0.201-1.901-0.3-2.858-0.358
	c-0.472-0.029-0.866,0.416-0.866,0.866c0,0.491,0.393,0.843,0.866,0.868c0.637,0.032,1.274,0.065,1.909,0.131
	c0.642,0.099,1.281,0.239,1.91,0.413c-0.27,0.197-0.502,0.455-0.632,0.76c-0.081,0.188-0.149,0.373-0.207,0.57
	c-0.083,0.275-0.128,0.582-0.122,0.87c0.008,0.383,0.091,0.733,0.24,1.083c0.139,0.323,0.358,0.603,0.599,0.857
	c0.452,0.476,1.071,0.82,1.7,0.996c0.3,0.083,0.616,0.109,0.932,0.102c-0.162,0.305-0.329,0.608-0.488,0.914
	c-0.383,0.735-0.764,1.473-1.139,2.212c-0.046,0.091-0.089,0.183-0.135,0.274c-0.469-0.097-0.943-0.183-1.42-0.183
	c-0.21,0-0.42,0.016-0.629,0.052c-0.286,0.05-0.559,0.112-0.833,0.215c-0.342,0.128-0.663,0.296-0.944,0.532
	c-0.257,0.215-0.454,0.507-0.613,0.799c-0.261,0.482-0.393,1.007-0.367,1.554c0.029,0.594,0.242,1.11,0.58,1.59
	c0.362,0.517,0.848,0.898,1.374,1.237c-0.149,0.295-0.291,0.593-0.444,0.887c-0.383,0.739-0.814,1.454-1.218,2.183
	c-0.389,0.698-0.787,1.392-1.152,2.104c-0.071,0.139-0.145,0.276-0.216,0.416c-0.135-0.247-0.269-0.494-0.404-0.74
	c-0.199-0.367-0.425-0.717-0.632-1.077c-0.215-0.373-0.42-0.75-0.628-1.126c-0.155-0.281-0.302-0.567-0.454-0.85
	c0.579-0.385,1.133-0.827,1.496-1.431c0.139-0.23,0.224-0.512,0.271-0.775c0.066-0.366,0.048-0.696-0.014-1.062
	c-0.035-0.199-0.137-0.396-0.217-0.578c-0.054-0.118-0.118-0.228-0.191-0.335c-0.232-0.342-0.514-0.611-0.857-0.837
	c-0.18-0.118-0.398-0.178-0.607-0.222c-0.206-0.044-0.418-0.067-0.628-0.067c-0.098,0-0.196,0.005-0.293,0.016
	c-0.539,0.056-1.06,0.174-1.579,0.314c-0.591-1.101-1.192-2.196-1.781-3.296c-0.41-0.764-0.835-1.521-1.209-2.301
	c-0.042-0.088-0.08-0.178-0.121-0.267c0.344-0.083,0.678-0.199,0.98-0.383c0.549-0.335,1.019-0.81,1.377-1.34
	c0.116-0.168,0.186-0.371,0.261-0.56c0.062-0.155,0.099-0.317,0.126-0.48c0.046-0.265,0.075-0.526,0.066-0.793
	c-0.008-0.27-0.041-0.537-0.089-0.802c-0.049-0.265-0.157-0.519-0.285-0.762c0.529-0.123,1.063-0.226,1.601-0.303
	c0.634-0.077,1.268-0.141,1.906-0.191c0.228-0.017,0.425-0.079,0.592-0.245c0.155-0.155,0.244-0.371,0.244-0.592
	c0-0.22-0.089-0.435-0.244-0.592c-0.143-0.141-0.383-0.267-0.592-0.245c-0.901,0.098-1.804,0.168-2.703,0.294
	C10.53,7.024,9.683,7.209,8.865,7.459C8.476,7.578,8.093,7.716,7.703,7.838C7.312,7.961,6.918,8.083,6.531,8.22
	C6.069,8.385,5.607,8.562,5.164,8.775c-0.343,0.162-0.66,0.377-1,0.542c-0.087,0.03-0.174,0.054-0.263,0.074
	c-0.006,0-0.012,0-0.019,0C3.853,9.383,3.824,9.375,3.795,9.365c-0.04-0.021-0.079-0.045-0.118-0.07
	c-0.123-0.106-0.241-0.22-0.348-0.341C3.289,8.895,3.253,8.835,3.22,8.772C3.188,8.676,3.162,8.579,3.141,8.479
	C3.14,8.443,3.14,8.408,3.14,8.372c0.014-0.06,0.032-0.119,0.052-0.178c0.064-0.128,0.138-0.249,0.22-0.367
	c0.413-0.482,0.87-0.905,1.363-1.302C5.308,6.123,5.861,5.749,6.45,5.436C7.041,5.12,7.653,4.833,8.266,4.567
	c0.549-0.228,1.101-0.446,1.649-0.676C9.851,3.918,9.785,3.945,9.72,3.972c0.741-0.311,1.491-0.603,2.268-0.812
	c0.732-0.195,1.47-0.34,2.219-0.449c1.32-0.153,2.672-0.169,3.993-0.011c1.151,0.175,2.291,0.409,3.416,0.7
	c0.553,0.143,1.085,0.354,1.615,0.563c0.521,0.207,1.048,0.394,1.566,0.606c0.544,0.237,1.084,0.487,1.615,0.757
	c0.546,0.277,1.097,0.565,1.596,0.924c0.169,0.141,0.322,0.29,0.463,0.456c0.124,0.181,0.24,0.368,0.337,0.566
	c0.034,0.098,0.062,0.196,0.085,0.297C28.917,7.89,28.903,8.22,28.87,8.54z M19.032,1.197c-0.023-0.003-0.047-0.006-0.07-0.009
	c-0.019-0.003-0.039-0.005-0.058-0.008C18.946,1.185,18.989,1.19,19.032,1.197z"/>
</svg>