<?xml version="1.0" encoding="utf-8"?>
<!-- Generator: Adobe Illustrator 21.1.0, SVG Export Plug-In . SVG Version: 6.00 Build 0)  -->
<svg version="1.1" id="designs" xmlns="http://www.w3.org/2000/svg" xmlns:xlink="http://www.w3.org/1999/xlink" x="0px" y="0px"
	 width="32px" height="32px" viewBox="0 0 32 32" style="enable-background:new 0 0 32 32;" xml:space="preserve">
<style type="text/css">
	.sketchy_een{fill:#111918;}
</style>
<path class="sketchy_een" d="M16.113,31c-0.163,0-0.326-0.005-0.49-0.012c-0.496-0.023-1.027-0.055-1.544-0.141
	c-0.449-0.076-0.892-0.182-1.331-0.296c-0.424-0.11-0.859-0.276-1.412-0.541c-0.385-0.184-0.751-0.39-1.118-0.633l-0.135-0.089
	c-0.373-0.247-0.758-0.502-1.096-0.799c-0.416-0.368-0.805-0.81-1.121-1.279c-0.28-0.415-0.48-0.899-0.674-1.366
	c-0.247-0.59-0.432-1.043-0.559-1.522c-0.116-0.442-0.209-0.893-0.277-1.34c-0.182-1.182-0.037-2.355,0.109-3.244
	c0.081-0.484,0.279-0.949,0.47-1.399c0.207-0.484,0.407-0.892,0.605-1.297c0.24-0.489,0.457-0.866,0.686-1.199l0.143-0.195
	l-0.046-0.087C8.25,15.485,8.19,15.434,8.13,15.384c-0.08-0.068-0.16-0.135-0.226-0.216c-0.063-0.08-0.118-0.162-0.173-0.246
	l-0.098-0.145c-0.106-0.124-0.214-0.233-0.322-0.343l-0.163-0.168c-0.079-0.082-0.154-0.167-0.228-0.252
	c-0.074-0.085-0.148-0.169-0.227-0.252c-0.169-0.18-0.346-0.352-0.523-0.525c-0.2-0.195-0.4-0.389-0.589-0.596
	C5.5,12.632,5.434,12.63,5.377,12.63c-0.074,0-0.508,0.008-0.508,0.008c-0.185,0.001-0.371,0.001-0.554,0.014
	c-0.115,0.028-0.181,0.036-0.247,0.036c-0.343,0-0.645-0.228-0.734-0.553c-0.055-0.196-0.02-0.424,0.094-0.611
	c0.102-0.168,0.253-0.28,0.426-0.317c0.146-0.029,0.282-0.03,0.42-0.032c0.074-0.001,0.148-0.002,0.226-0.007
	c0.105-0.008,0.407-0.041,0.407-0.041l-0.008-0.096c-0.037-0.365-0.067-0.694-0.088-1.024C4.798,9.825,4.866,9.646,5.003,9.5
	c0.154-0.165,0.372-0.263,0.582-0.263c0.423,0,0.756,0.335,0.774,0.78c0.008,0.187,0.012,0.373,0.015,0.558
	c0.005,0.276,0.01,0.552,0.031,0.828c0.286,0.381,0.571,0.684,0.859,0.988l0.232,0.247c0.16,0.171,0.312,0.348,0.465,0.525
	l0.329,0.377c0.188,0.211,0.381,0.418,0.574,0.625c0.088,0.095,0.184,0.184,0.28,0.272l0.079,0.073l0.092-0.061
	c0.244-0.302,0.514-0.618,0.828-0.886c0.267-0.226,0.537-0.453,0.826-0.65c0.228-0.153,0.476-0.286,0.779-0.416l0.148-0.064
	l-0.123-0.105c-0.201-0.172-0.393-0.353-0.57-0.546c-0.196-0.215-0.376-0.452-0.544-0.688c-0.134-0.187-0.263-0.376-0.364-0.581
	c-0.207-0.431-0.415-0.901-0.529-1.409c-0.113-0.499-0.159-1.017-0.134-1.5c0.026-0.511,0.124-1.053,0.301-1.656
	c0.069-0.236,0.169-0.485,0.321-0.806c0.098-0.203,0.191-0.395,0.309-0.577c0.594-0.913,1.322-1.684,2.104-2.227
	c0.406-0.281,0.883-0.523,1.458-0.74c0.168-0.24,0.352-0.382,0.57-0.445C15.044,1.052,15.432,1,15.846,1
	c0.491,0,1.027,0.072,1.592,0.213c0.338,0.084,0.677,0.174,1.002,0.296c0.367,0.136,0.734,0.299,1.084,0.468
	c0.374,0.181,0.725,0.462,1.075,0.859c0.139,0.155,0.267,0.32,0.396,0.484l0.169,0.213c0.135,0.169,0.27,0.338,0.393,0.514
	c0.356,0.504,0.587,0.94,0.727,1.373c0.139,0.425,0.282,0.925,0.291,1.428c0.005,0.356-0.013,0.734-0.053,1.122
	c-0.046,0.461-0.113,0.953-0.286,1.425c-0.464,1.262-1.017,2.15-1.743,2.794c-0.182,0.162-0.38,0.314-0.587,0.455l-0.15,0.102
	l0.167,0.073c0.479,0.207,0.885,0.413,1.241,0.628c0.392,0.235,0.731,0.554,1.03,0.836c0.049,0.046,0.33,0.336,0.33,0.336l0.36-0.38
	c0.151-0.157,0.294-0.324,0.437-0.491l0.325-0.375c0.469-0.535,0.953-1.088,1.463-1.597l0.033-0.033
	c-0.026-0.418-0.052-0.832-0.094-1.251c-0.023-0.228-0.095-0.476-0.031-0.701c0.038-0.134,0.105-0.248,0.203-0.347
	c0.146-0.145,0.349-0.228,0.554-0.228c0.207,0,0.41,0.084,0.556,0.229c0.154,0.154,0.202,0.325,0.23,0.566
	c0.048,0.397,0.087,0.715,0.082,1.03l0.001,0.289l0.093,0.006c0.122,0.008,0.244,0.011,0.366,0.011c0.29,0,0.581-0.018,0.871-0.041
	c0.425,0,0.719,0.392,0.719,0.73c0,0.344-0.293,0.729-0.684,0.729c-0.118-0.006-0.196-0.008-0.273-0.008
	c-0.222,0-0.444,0.017-0.666,0.034c-0.183,0.013-0.367,0.022-0.55,0.022c-0.102,0-0.205-0.003-0.308-0.009l-0.221,0.162
	c-0.198,0.183-0.394,0.366-0.59,0.552c-0.215,0.202-0.424,0.431-0.656,0.72l-0.205,0.284c-0.139,0.195-0.276,0.389-0.438,0.569
	c-0.081,0.09-0.164,0.177-0.248,0.262c-0.093,0.096-0.188,0.193-0.276,0.294l-0.056,0.065l0.054,0.066
	c0.154,0.188,0.304,0.381,0.439,0.584c0.256,0.378,0.472,0.769,0.662,1.192c0.443,0.993,0.703,1.837,0.815,2.658
	c0.081,0.606,0.097,1.078,0.053,1.532c-0.046,0.475-0.149,0.981-0.316,1.549c-0.156,0.529-0.383,1.043-0.564,1.431
	c-0.184,0.395-0.4,0.781-0.659,1.179c-0.624,0.959-1.234,1.742-1.862,2.395c-0.709,0.737-1.48,1.341-2.293,1.796
	c-0.756,0.423-1.662,0.692-2.852,0.847C16.705,30.985,16.409,31,16.113,31z M13.588,13.449c-0.417,0.067-0.778,0.17-1.159,0.32
	c-0.24,0.113-0.457,0.242-0.669,0.396c-0.39,0.32-0.685,0.599-0.933,0.88c-0.22,0.248-0.424,0.509-0.627,0.772l-0.077,0.098
	c-0.357,0.465-0.698,0.923-0.948,1.425c-0.249,0.498-0.484,1.006-0.704,1.516c-0.101,0.262-0.198,0.514-0.26,0.77
	c-0.058,0.243-0.106,0.485-0.144,0.731c-0.04,0.38-0.068,0.756-0.077,1.134c-0.006,0.328,0.012,0.678,0.058,1.072
	c0.134,0.729,0.343,1.449,0.622,2.144c0.223,0.511,0.451,1.031,0.767,1.487c0.296,0.358,0.625,0.684,0.982,0.976
	c0.761,0.53,1.471,0.941,2.179,1.26c0.714,0.272,1.48,0.471,2.281,0.593c0.471,0.057,0.919,0.086,1.335,0.086
	c0.258,0,0.516-0.011,0.772-0.034c0.65-0.104,1.16-0.232,1.611-0.403c0.397-0.185,0.794-0.424,1.224-0.731
	c0.731-0.587,1.408-1.273,2.014-2.044c0.335-0.438,0.63-0.868,0.878-1.278c0.261-0.435,0.465-0.881,0.63-1.26
	c0.186-0.489,0.322-0.948,0.416-1.401l0.015,0.002l0.022-0.167h-0.004c0.003-0.017,0.006-0.033,0.009-0.049
	c0.043-0.406,0.04-0.829-0.01-1.297c-0.098-0.623-0.273-1.242-0.538-1.894c-0.284-0.629-0.57-1.138-0.9-1.605
	c-0.305-0.378-0.623-0.743-0.953-1.089c-0.304-0.32-0.599-0.602-0.878-0.835c-0.482-0.327-1.003-0.569-1.507-0.804l-0.113-0.053
	c-0.457-0.182-0.942-0.323-1.443-0.423c-0.46,0.087-0.903,0.132-1.358,0.132c-0.329,0-0.659-0.024-0.986-0.067
	c-0.303-0.039-0.598-0.084-0.896-0.162c-0.172-0.045-0.339-0.107-0.505-0.17l-0.105-0.029L13.588,13.449z M15.578,2.804
	c-0.408,0.117-0.812,0.24-1.209,0.39c-0.325,0.149-0.639,0.337-0.966,0.577c-0.363,0.296-0.719,0.668-1.123,1.173
	c-0.121,0.167-0.233,0.332-0.34,0.503c-0.08,0.128-0.145,0.263-0.206,0.401c-0.175,0.437-0.3,0.888-0.385,1.38
	c-0.021,0.338-0.013,0.674,0.023,1.04c0.065,0.332,0.162,0.659,0.297,1.01c0.149,0.327,0.31,0.61,0.492,0.866
	c0.17,0.206,0.34,0.398,0.524,0.577c0.176,0.172,0.367,0.327,0.556,0.481c0.267,0.192,0.542,0.354,0.822,0.485
	c0.461,0.182,0.88,0.303,1.285,0.372c0.312,0.034,0.62,0.053,0.929,0.053c0.214,0,0.427-0.009,0.64-0.029
	c0.296-0.054,0.596-0.145,0.981-0.298c0.405-0.188,0.81-0.429,1.242-0.739c0.178-0.151,0.339-0.305,0.488-0.476
	c0.295-0.426,0.539-0.855,0.733-1.286c0.12-0.303,0.264-0.701,0.335-1.139c0.048-0.394,0.098-0.908,0.058-1.426
	c-0.068-0.353-0.146-0.648-0.242-0.91c-0.151-0.31-0.316-0.584-0.506-0.85c-0.162-0.207-0.326-0.413-0.495-0.61
	c-0.172-0.199-0.35-0.397-0.547-0.572c-0.276-0.184-0.564-0.312-0.861-0.436c-0.54-0.22-1.165-0.379-1.97-0.503
	c-0.176-0.017-0.35-0.031-0.523-0.036l-0.016-0.001L15.578,2.804z M15.397,21.277c-0.352,0-0.649-0.298-0.649-0.65
	s0.297-0.65,0.649-0.65c0.352,0,0.65,0.298,0.65,0.65S15.75,21.277,15.397,21.277z M15.517,19.115c-0.397,0-0.733-0.336-0.733-0.733
	c0-0.397,0.335-0.733,0.733-0.733s0.733,0.336,0.733,0.733C16.249,18.779,15.914,19.115,15.517,19.115z M15.517,16.714
	c-0.37,0-0.682-0.313-0.682-0.682c0-0.369,0.312-0.682,0.682-0.682s0.682,0.313,0.682,0.682
	C16.199,16.401,15.887,16.714,15.517,16.714z M17.109,8.069c-0.369,0-0.681-0.312-0.681-0.682s0.312-0.683,0.681-0.683
	c0.37,0,0.682,0.313,0.682,0.683S17.479,8.069,17.109,8.069z M14.395,8.051c-0.408,0-0.752-0.345-0.752-0.752
	c0-0.408,0.344-0.752,0.752-0.752s0.752,0.345,0.752,0.752C15.147,7.706,14.803,8.051,14.395,8.051z"/>
</svg>