<?xml version="1.0" encoding="utf-8"?>
<!-- Generator: Adobe Illustrator 21.1.0, SVG Export Plug-In . SVG Version: 6.00 Build 0)  -->
<svg version="1.1" id="designs" xmlns="http://www.w3.org/2000/svg" xmlns:xlink="http://www.w3.org/1999/xlink" x="0px" y="0px"
	 width="32px" height="32px" viewBox="0 0 32 32" style="enable-background:new 0 0 32 32;" xml:space="preserve">
<style type="text/css">
	.sketchy_een{fill:#111918;}
</style>
<path class="sketchy_een" d="M29.972,21.406c-0.054-0.199-0.187-0.373-0.367-0.477c-0.013-0.008-0.03-0.005-0.043-0.012
	c-0.153-0.196-0.377-0.334-0.634-0.317c-0.251,0.015-0.502,0.041-0.753,0.037c-0.29-0.006-0.583-0.025-0.871-0.002
	c-0.284,0.023-0.579,0.01-0.863-0.002c-0.359-0.015-0.715-0.056-1.076-0.06c-0.353-0.002-0.709-0.015-1.06-0.002
	c-0.382,0.015-0.761,0.021-1.143,0.023c-0.778,0.002-1.557,0-2.335,0.01c-0.365,0.004-0.728,0.027-1.091,0.033
	c-0.377,0.006-0.753,0.013-1.132,0.006c-0.586-0.014-1.173-0.03-1.76-0.044c-0.018-0.164-0.036-0.329-0.05-0.492
	c-0.028-0.337-0.04-0.676-0.053-1.016c0.221,0.012,0.443,0.019,0.663,0.003c0.317-0.021,0.63-0.054,0.946-0.083
	c0.301-0.027,0.604-0.062,0.908-0.06c0.292,0,0.583,0.031,0.875,0.019c0.633-0.027,1.263-0.066,1.899-0.068
	c0.265,0,0.529-0.002,0.792,0.014c0.249,0.013,0.498,0.006,0.747,0.023c0,0,0.228,0.016,0.427-0.1
	c0.174-0.102,0.305-0.272,0.357-0.467c0.052-0.189,0.024-0.389-0.064-0.562c0.01-0.205-0.052-0.412-0.207-0.556
	c-0.311-0.502-0.607-1.011-0.88-1.535c-0.338-0.653-0.703-1.296-1.068-1.933c-0.396-0.688-0.786-1.373-1.161-2.072
	c-0.38-0.709-0.78-1.41-1.18-2.109c-0.236-0.411-0.5-0.807-0.751-1.209c-0.255-0.409-0.511-0.817-0.753-1.235
	c0.272-0.085,0.546-0.167,0.816-0.26c0.442-0.153,0.875-0.323,1.313-0.485c0.431-0.158,0.869-0.296,1.292-0.471
	c0.162-0.068,0.326-0.135,0.487-0.211c0.071-0.033,0.143-0.068,0.212-0.106c0.211-0.116,0.334-0.288,0.417-0.506
	c0.139-0.359-0.066-0.755-0.379-0.939c-0.114-0.069-0.245-0.111-0.369-0.159c-0.229-0.098-0.459-0.198-0.693-0.287
	c-0.201-0.077-0.415-0.124-0.62-0.187c-0.564-0.18-1.126-0.361-1.69-0.537C18.573,2.857,18.059,2.737,17.55,2.6
	c-0.257-0.07-0.51-0.151-0.757-0.245c-0.108-0.041-0.214-0.085-0.326-0.108c-0.184-0.041-0.375-0.054-0.562-0.071
	c-0.013-0.001-0.027-0.002-0.041-0.002c-0.025,0-0.05,0.015-0.075,0.018c-0.005,0-0.01-0.003-0.015-0.003
	c-0.005,0-0.009,0.003-0.013,0.003c-0.111-0.06-0.236-0.097-0.362-0.097c-0.066,0-0.133,0.009-0.197,0.027
	c-0.203,0.056-0.332,0.182-0.45,0.346c-0.485,0.68-0.943,1.379-1.396,2.08c-0.199,0.307-0.415,0.601-0.614,0.91
	c-0.218,0.338-0.429,0.682-0.647,1.022c-0.201,0.313-0.415,0.618-0.61,0.937c-0.199,0.326-0.386,0.659-0.585,0.985
	c-0.209,0.348-0.429,0.688-0.645,1.031c-0.199,0.321-0.382,0.651-0.576,0.977c-0.174,0.296-0.359,0.585-0.527,0.883
	c-0.191,0.338-0.379,0.676-0.57,1.014c-0.355,0.62-0.703,1.246-1.053,1.87c-0.149,0.261-0.317,0.51-0.473,0.765
	c-0.187,0.305-0.35,0.628-0.529,0.939c-0.17,0.297-0.34,0.595-0.516,0.89c-0.079,0.133-0.162,0.266-0.247,0.398
	c-0.071,0.108-0.149,0.212-0.207,0.326c-0.04,0.083-0.064,0.167-0.083,0.252c-0.002,0.005-0.003,0.011-0.005,0.016
	c-0.003,0.017-0.008,0.033-0.01,0.05c-0.025,0.076-0.047,0.153-0.047,0.233c0,0.446,0.361,0.78,0.796,0.796
	c0.427,0.017,0.854,0.014,1.281,0.012c0.392-0.002,0.784-0.006,1.176,0.006c0.774,0.023,1.539,0.147,2.312,0.187
	c0.776,0.041,1.551,0.083,2.327,0.122c0.688,0.035,1.373,0.035,2.061,0.046c0.004,0,0.008,0,0.012,0
	c0.033,0.452,0.07,0.904,0.08,1.356c-0.513-0.013-1.025-0.028-1.538-0.031c-0.792-0.006-1.582-0.015-2.372-0.031
	c-0.299-0.006-0.598-0.009-0.896-0.009c-1.097,0-2.195,0.034-3.291,0.04c-1.479,0.008-2.957,0.077-4.434,0.004
	c-0.2-0.01-0.379,0.075-0.522,0.202c-0.012,0.006-0.027,0.003-0.039,0.01c-0.346,0.201-0.469,0.662-0.265,1.008
	c0.392,0.662,0.792,1.319,1.163,1.993c0.359,0.655,0.69,1.321,1.012,1.993c0.16,0.336,0.328,0.67,0.494,1.004
	c0.137,0.272,0.253,0.556,0.392,0.829c0.236,0.456,0.491,0.9,0.707,1.365c0.059,0.126,0.183,0.218,0.313,0.286
	c0.141,0.236,0.388,0.406,0.678,0.403c0.398-0.004,0.798-0.023,1.195-0.044c0.392-0.021,0.784-0.023,1.178-0.029
	c0.423-0.004,0.848-0.004,1.273-0.004c0.33,0,0.662,0,0.993-0.004c0.763-0.006,1.524,0,2.287,0.025
	c0.757,0.027,1.514,0.017,2.271,0.017c0.763-0.002,1.528,0.006,2.293,0.012c0.39,0.004,0.78,0.002,1.17,0.01
	c0.359,0.008,0.716,0.033,1.076,0.052c0.38,0.019,0.761,0.029,1.143,0.039c0.361,0.01,0.72,0.043,1.082,0.058
	c0.732,0.031,1.462,0.102,2.194,0.124c0.12,0.002,0.238,0.006,0.357,0.013c0.36,0.02,0.654-0.275,0.725-0.612
	c0.117-0.063,0.223-0.146,0.285-0.27c0.286-0.566,0.605-1.114,0.881-1.686c0.156-0.324,0.315-0.645,0.481-0.964
	c0.197-0.383,0.368-0.773,0.53-1.17c0.222-0.505,0.473-0.997,0.728-1.486c0.137-0.266,0.294-0.521,0.436-0.784
	c0.164-0.297,0.313-0.603,0.456-0.91C29.986,21.82,30.034,21.628,29.972,21.406z M19.101,11.396c0.39,0.705,0.763,1.42,1.159,2.121
	c0.479,0.844,0.943,1.692,1.394,2.549c0.212,0.402,0.427,0.803,0.639,1.207c0.026,0.048,0.056,0.094,0.083,0.141
	c-0.108,0.004-0.217,0.01-0.325,0.013c-0.628,0.015-1.25,0.07-1.875,0.095c-0.263,0.01-0.527-0.008-0.79-0.014
	c-0.326-0.01-0.653-0.002-0.979,0.014c-0.315,0.013-0.628,0.033-0.943,0.037c-0.266,0.003-0.532-0.024-0.797-0.047
	c-0.01-0.209-0.016-0.418-0.029-0.627c-0.021-0.346-0.056-0.689-0.083-1.033c-0.031-0.384-0.044-0.769-0.05-1.155
	c-0.012-0.715-0.019-1.429-0.037-2.144c-0.017-0.769-0.058-1.535-0.044-2.304c0.013-0.74,0.025-1.477,0.031-2.217
	c0.003-0.364,0.023-0.728,0.036-1.092c0.086,0.148,0.167,0.297,0.252,0.445c0.386,0.676,0.788,1.342,1.197,2.005
	C18.346,10.048,18.726,10.718,19.101,11.396z M17.047,3.94c0.406,0.093,0.815,0.17,1.219,0.274c0.442,0.114,0.879,0.239,1.315,0.373
	c0.295,0.091,0.592,0.182,0.883,0.287c-0.418,0.17-0.836,0.339-1.254,0.512c-0.514,0.212-1.051,0.382-1.593,0.518
	c-0.25-0.492-0.495-0.986-0.744-1.477c-0.07-0.138-0.185-0.232-0.318-0.296c0-0.111-0.001-0.222-0.003-0.333
	C16.717,3.849,16.881,3.902,17.047,3.94z M14.077,17.638c-0.732,0-1.464-0.042-2.196-0.068c-0.778-0.025-1.555-0.075-2.331-0.143
	c-0.686-0.061-1.373-0.09-2.061-0.118c0.155-0.271,0.31-0.542,0.465-0.811c0.375-0.653,0.747-1.306,1.112-1.964
	c0.369-0.666,0.749-1.329,1.122-1.993c0.39-0.695,0.774-1.391,1.186-2.074c0.367-0.61,0.734-1.223,1.107-1.831
	c0.365-0.597,0.734-1.19,1.099-1.785c0.371-0.605,0.747-1.199,1.157-1.779c0.109-0.153,0.219-0.305,0.327-0.459
	c0.009,0.282,0.026,0.565,0.029,0.846c0.008,0.769-0.012,1.535-0.021,2.302c-0.012,0.746,0,1.491-0.029,2.235
	c-0.013,0.377-0.046,0.755-0.039,1.132c0.008,0.382,0.019,0.765,0.025,1.147c0.012,0.722,0.035,1.445,0.042,2.167
	c0.006,0.736,0.077,1.462,0.141,2.194c0.03,0.331,0.042,0.663,0.062,0.995c-0.054,0.001-0.109,0.001-0.163,0.002
	C14.766,17.642,14.421,17.638,14.077,17.638z M26.747,24.989c-0.274,0.608-0.589,1.192-0.885,1.788
	c-0.247,0.502-0.529,0.985-0.811,1.466c-0.026,0.044-0.031,0.093-0.047,0.141c-0.226-0.005-0.452-0.009-0.677-0.019
	c-0.367-0.014-0.732-0.025-1.099-0.05c-0.761-0.05-1.526-0.085-2.289-0.11c-0.35-0.013-0.701-0.042-1.051-0.05
	c-0.384-0.01-0.769-0.012-1.153-0.01c-0.763,0.004-1.526,0.004-2.287,0.016c-1.535,0.025-3.065-0.066-4.599-0.071
	c-1.543-0.008-3.084-0.017-4.626-0.056c-0.018,0-0.036-0.001-0.055-0.001c-0.082-0.14-0.165-0.279-0.246-0.42
	c-0.145-0.257-0.286-0.518-0.433-0.773c-0.149-0.261-0.309-0.512-0.456-0.771c-0.182-0.324-0.352-0.655-0.52-0.985
	c-0.501-0.981-1.009-1.957-1.529-2.926c0.094-0.003,0.188,0,0.282-0.003c0.377-0.013,0.753-0.027,1.132-0.023
	c0.738,0.01,1.476-0.014,2.213-0.014c0.73,0.002,1.46-0.017,2.19-0.023c0.778-0.008,1.557-0.014,2.333-0.008
	c0.373,0.004,0.744,0,1.116-0.002c0.402-0.004,0.803-0.008,1.205-0.004c0.379,0.004,0.755,0.029,1.134,0.039
	c0.382,0.012,0.767,0.01,1.149,0.01c0.803,0,1.607,0.042,2.408,0.062c0.379,0.008,0.757-0.006,1.136-0.006
	c0.359,0.002,0.718,0.015,1.078,0.012c0.742-0.004,1.483-0.021,2.225-0.025c0.151,0,0.303,0.004,0.454,0.008
	c0.178,0.004,0.355,0.01,0.533,0.006c0.371-0.008,0.744-0.008,1.114-0.004c0.282,0.002,0.566,0,0.844,0.037
	c0.187,0.025,0.38,0.023,0.574,0.023c0.095-0.002,0.191-0.002,0.288,0c0.056,0.002,0.116,0.002,0.172,0.002
	c0.081,0,0.164,0,0.245,0.004c0.071,0.004,0.142,0.01,0.213,0.017C27.598,23.171,27.159,24.073,26.747,24.989z"/>
</svg>