<?xml version="1.0" encoding="utf-8"?>
<!-- Generator: Adobe Illustrator 21.1.0, SVG Export Plug-In . SVG Version: 6.00 Build 0)  -->
<svg version="1.1" id="designs" xmlns="http://www.w3.org/2000/svg" xmlns:xlink="http://www.w3.org/1999/xlink" x="0px" y="0px"
	 width="32px" height="32px" viewBox="0 0 32 32" style="enable-background:new 0 0 32 32;" xml:space="preserve">
<style type="text/css">
	.sketchy_een{fill:#111918;}
</style>
<path class="sketchy_een" d="M29.648,23.32c-0.19-0.39-0.521-0.704-0.845-0.989c-0.315-0.277-0.652-0.531-1.02-0.731
	c-0.466-0.254-0.966-0.375-1.487-0.427c-0.178-0.017-0.36-0.027-0.542-0.027c-0.387,0-0.778,0.043-1.141,0.146
	c-0.302,0.087-0.569,0.231-0.818,0.417c-0.352,0.264-0.706,0.539-0.981,0.885c-0.106,0.133-0.189,0.259-0.229,0.409
	c-0.059,0.018-0.116,0.042-0.17,0.073c-0.031,0.019-0.048,0.046-0.074,0.067c-0.005-0.001-0.008-0.005-0.012-0.007
	c-0.444-0.148-0.875-0.333-1.31-0.508c-0.43-0.172-0.863-0.335-1.292-0.511c-0.59-0.251-1.182-0.503-1.766-0.764
	c-0.675-0.3-1.358-0.583-2.024-0.902c-0.673-0.325-1.339-0.667-2.006-1.006c-0.339-0.171-0.673-0.346-1.012-0.517
	c-0.173-0.089-0.348-0.166-0.523-0.248c-0.416-0.197-0.838-0.346-1.286-0.446c-0.001-0.105-0.003-0.21-0.007-0.313
	c-0.005-0.126-0.037-0.244-0.087-0.354c0.108-0.053,0.216-0.105,0.322-0.163c0.171-0.094,0.333-0.202,0.494-0.31
	c0.437-0.286,0.866-0.581,1.279-0.899c0.148-0.115,0.295-0.23,0.442-0.345c1.212-0.918,2.472-1.766,3.74-2.603
	c0.685-0.454,1.377-0.895,2.053-1.362c0.714-0.494,1.431-0.977,2.189-1.399c0.004-0.002,0.006-0.007,0.011-0.009
	c0.244,0.187,0.501,0.352,0.786,0.475c0.215,0.094,0.423,0.181,0.654,0.229c0.25,0.052,0.508,0.081,0.764,0.073
	c0.492-0.011,1.006-0.071,1.477-0.209c0.417-0.123,0.833-0.275,1.227-0.454c0.348-0.16,0.666-0.377,0.971-0.604
	c0.462-0.341,0.881-0.745,1.172-1.247c0.229-0.398,0.389-0.846,0.458-1.301c0.04-0.256,0.071-0.504,0.063-0.764
	c-0.008-0.256-0.046-0.519-0.085-0.773c-0.069-0.452-0.258-0.881-0.491-1.272c-0.214-0.356-0.502-0.693-0.812-0.968
	c-0.337-0.298-0.758-0.533-1.154-0.743c-0.223-0.117-0.46-0.21-0.693-0.304c-0.19-0.077-0.381-0.154-0.581-0.2
	c-0.246-0.058-0.504-0.073-0.756-0.1c-0.127-0.012-0.251-0.021-0.376-0.021c-0.09,0-0.18,0.005-0.273,0.015
	c-0.527,0.06-1.041,0.208-1.526,0.421C22.09,2.86,21.85,3.052,21.609,3.245c-0.173,0.138-0.333,0.292-0.483,0.452
	c-0.16,0.167-0.298,0.362-0.429,0.552c-0.125,0.179-0.248,0.358-0.344,0.554c-0.196,0.406-0.285,0.846-0.35,1.289
	c-0.038,0.258-0.073,0.514-0.085,0.771c-0.01,0.202,0.008,0.408,0.017,0.61c0.027,0.537,0.112,1.064,0.223,1.589
	c0.02,0.092,0.075,0.164,0.126,0.239c-0.639,0.399-1.254,0.834-1.869,1.27c-0.685,0.49-1.406,0.924-2.118,1.375
	c-1.408,0.898-2.812,1.822-4.136,2.847c-0.09,0.07-0.179,0.141-0.269,0.211c-0.409,0.305-0.843,0.576-1.288,0.829
	c-0.086-0.171-0.186-0.335-0.311-0.481c-0.275-0.319-0.612-0.606-0.948-0.858c-0.341-0.256-0.689-0.483-1.083-0.652
	c-0.204-0.087-0.408-0.177-0.623-0.235c-0.213-0.056-0.433-0.077-0.653-0.077c-0.15,0-0.3,0.01-0.448,0.026
	c-0.252,0.025-0.51,0.056-0.754,0.123c-0.227,0.06-0.448,0.148-0.666,0.235c-0.312,0.125-0.616,0.254-0.883,0.462
	c-0.21,0.16-0.414,0.325-0.61,0.504c-0.725,0.664-1.304,1.527-1.522,2.495c-0.244,1.073-0.056,2.186,0.56,3.103
	c0.294,0.441,0.656,0.789,1.106,1.07c0.406,0.256,0.846,0.464,1.312,0.585c0.927,0.239,1.939,0.242,2.87,0.017
	c0.446-0.108,0.87-0.306,1.273-0.521c0.364-0.194,0.727-0.442,1-0.754c0.268-0.305,0.45-0.652,0.601-1.021
	c0.12,0.027,0.24,0.053,0.359,0.085c0.12,0.034,0.238,0.079,0.354,0.127c0.778,0.34,1.532,0.721,2.285,1.112
	c0.754,0.39,1.495,0.8,2.27,1.146c0.762,0.343,1.52,0.691,2.284,1.031c0.775,0.346,1.568,0.648,2.355,0.971
	c0.315,0.129,0.631,0.257,0.949,0.383c-0.018,0.068-0.04,0.134-0.056,0.203c-0.056,0.242-0.098,0.496-0.1,0.744
	c-0.004,0.244,0.027,0.489,0.064,0.729c0.067,0.446,0.221,0.858,0.406,1.268c0.181,0.398,0.417,0.764,0.748,1.054
	c0.371,0.323,0.777,0.573,1.235,0.75c0.387,0.15,0.82,0.185,1.227,0.231c0.444,0.05,0.896-0.027,1.325-0.136
	c0.437-0.112,0.862-0.254,1.247-0.491c0.375-0.231,0.745-0.533,1.021-0.879c0.248-0.31,0.452-0.662,0.612-1.025
	c0.162-0.365,0.31-0.735,0.423-1.118c0.119-0.41,0.171-0.856,0.165-1.281C29.992,24.251,29.869,23.772,29.648,23.32z M21.614,6.702
	c0.06-0.349,0.134-0.698,0.258-1.03c0.088-0.177,0.199-0.338,0.315-0.497c0.199-0.237,0.419-0.453,0.657-0.652
	c0.106-0.072,0.213-0.138,0.328-0.195c0.275-0.103,0.556-0.185,0.844-0.239c0.258-0.017,0.52-0.002,0.777,0.025
	c0.252,0.05,0.493,0.147,0.73,0.245c0.176,0.084,0.343,0.182,0.513,0.282c0.169,0.102,0.343,0.198,0.507,0.309
	c0.14,0.122,0.269,0.258,0.389,0.4c0.126,0.176,0.235,0.358,0.329,0.552c0.062,0.176,0.104,0.354,0.135,0.54
	c0.025,0.226,0.036,0.448,0.018,0.676c-0.037,0.207-0.089,0.409-0.162,0.607c-0.066,0.137-0.141,0.27-0.223,0.398
	c-0.157,0.185-0.325,0.354-0.512,0.51c-0.263,0.192-0.534,0.369-0.829,0.507c-0.369,0.143-0.754,0.258-1.144,0.326
	c-0.315,0.033-0.639,0.043-0.954,0.018c-0.117-0.024-0.232-0.057-0.345-0.098c-0.177-0.086-0.347-0.183-0.509-0.295
	c-0.197-0.167-0.384-0.354-0.552-0.55c-0.096-0.129-0.19-0.259-0.293-0.385c-0.056-0.068-0.131-0.124-0.215-0.166
	c-0.01-0.053-0.019-0.106-0.028-0.16C21.61,7.454,21.583,7.078,21.614,6.702z M9.36,17.922c0.002,0.228-0.008,0.454-0.032,0.68
	c-0.026,0.153-0.061,0.302-0.113,0.448c-0.076,0.158-0.163,0.31-0.263,0.454c-0.068,0.077-0.141,0.149-0.219,0.217
	c-0.237,0.164-0.489,0.302-0.751,0.422c-0.251,0.095-0.509,0.162-0.773,0.208c-0.415,0.042-0.827,0.038-1.242-0.004
	c-0.221-0.041-0.436-0.104-0.648-0.183c-0.254-0.121-0.497-0.262-0.727-0.422c-0.101-0.089-0.193-0.186-0.28-0.289
	c-0.111-0.157-0.207-0.321-0.291-0.494c-0.053-0.144-0.095-0.291-0.127-0.442c-0.014-0.204-0.011-0.406,0.006-0.61
	c0.035-0.197,0.082-0.388,0.15-0.576c0.063-0.14,0.13-0.28,0.214-0.407c0.093-0.142,0.188-0.279,0.289-0.413
	c0.222-0.26,0.463-0.498,0.724-0.717c0.137-0.092,0.281-0.165,0.431-0.234c0.302-0.12,0.604-0.22,0.925-0.279
	c0.17-0.016,0.338-0.021,0.509-0.012c0.154,0.035,0.304,0.083,0.451,0.14c0.347,0.159,0.67,0.36,0.98,0.583
	c0.174,0.14,0.35,0.291,0.503,0.452c0.032,0.05,0.061,0.101,0.088,0.153c0.025,0.075,0.044,0.152,0.06,0.229
	c0.001,0.108-0.004,0.213-0.013,0.321c-0.017,0.197,0.059,0.381,0.185,0.524C9.372,17.751,9.359,17.835,9.36,17.922z M28.04,25.24
	c-0.061,0.323-0.175,0.63-0.301,0.934c-0.117,0.27-0.243,0.542-0.402,0.788c-0.143,0.168-0.3,0.322-0.467,0.464
	c-0.126,0.089-0.257,0.17-0.395,0.239c-0.271,0.105-0.556,0.194-0.84,0.249c-0.249,0.017-0.493-0.005-0.74-0.035
	c-0.195-0.029-0.379-0.071-0.562-0.137c-0.15-0.076-0.29-0.164-0.427-0.261c-0.099-0.087-0.19-0.177-0.276-0.276
	c-0.129-0.193-0.237-0.4-0.333-0.612c-0.087-0.227-0.151-0.459-0.192-0.698c-0.015-0.159-0.019-0.314-0.007-0.472
	c0.092-0.464,0.253-0.911,0.423-1.353c0.19-0.021,0.399-0.105,0.52-0.25c0.159-0.188,0.339-0.341,0.528-0.492
	c0.137-0.101,0.279-0.198,0.429-0.278c0.091-0.029,0.183-0.051,0.278-0.068c0.288-0.022,0.577-0.014,0.865,0.014
	c0.191,0.034,0.373,0.086,0.555,0.152c0.17,0.084,0.33,0.185,0.483,0.296c0.236,0.194,0.466,0.403,0.666,0.636
	c0.046,0.068,0.087,0.138,0.124,0.211c0.032,0.094,0.059,0.189,0.08,0.287C28.067,24.799,28.061,25.02,28.04,25.24z M12.977,16.302
	c0.045-0.035,0.09-0.07,0.135-0.105c0.012-0.009,0.024-0.019,0.036-0.028C13.092,16.213,13.035,16.257,12.977,16.302z"/>
</svg>