<?xml version="1.0" encoding="utf-8"?>
<!-- Generator: Adobe Illustrator 21.1.0, SVG Export Plug-In . SVG Version: 6.00 Build 0)  -->
<svg version="1.1" id="designs" xmlns="http://www.w3.org/2000/svg" xmlns:xlink="http://www.w3.org/1999/xlink" x="0px" y="0px"
	 width="32px" height="32px" viewBox="0 0 32 32" style="enable-background:new 0 0 32 32;" xml:space="preserve">
<style type="text/css">
	.sketchy_een{fill:#111918;}
</style>
<path class="sketchy_een" d="M26.101,6.044c0.013-1.081,0.049-2.16,0.057-3.239C26.162,2.365,25.791,2,25.355,2
	c-0.233,0-0.441,0.108-0.59,0.272c-0.014,0.008-0.03,0.011-0.044,0.021c-0.209,0.146-0.453,0.246-0.674,0.375
	c-0.236,0.137-0.474,0.27-0.71,0.405c-0.221,0.127-0.441,0.257-0.662,0.381c-0.205,0.115-0.398,0.245-0.607,0.348
	C22.046,3.81,22.023,3.817,22,3.824c-0.177,0.003-0.359-0.017-0.534-0.021c-0.293-0.01-0.588-0.025-0.883-0.032
	c-0.589-0.016-1.175-0.01-1.763-0.003c-0.028-0.279-0.095-0.556-0.312-0.735c-0.139-0.116-0.265-0.198-0.445-0.238
	c-0.15-0.032-0.306-0.036-0.461-0.042c-0.143-0.004-0.287-0.002-0.432-0.004c-0.28,0-0.559,0.013-0.839,0.008
	c-0.287-0.006-0.579-0.028-0.869-0.028c-0.324,0-0.646,0.028-0.954,0.135c-0.102,0.036-0.195,0.08-0.278,0.138
	c-0.38,0.08-0.671,0.413-0.695,0.81c-1.706,0.14-3.404,0.479-4.999,1.104c-0.451,0.177-0.898,0.365-1.34,0.561
	C7.032,5.552,6.864,5.624,6.704,5.711C6.537,5.801,6.381,5.932,6.248,6.067C6.162,6.155,6.09,6.261,6.027,6.366
	C5.915,6.554,5.882,6.771,5.856,6.985C5.812,7.312,5.879,7.67,5.96,7.989c0.053,0.204,0.118,0.402,0.194,0.598
	c0.082,0.202,0.167,0.401,0.274,0.594c0.053,0.097,0.11,0.188,0.179,0.278c0.084,0.11,0.145,0.2,0.249,0.282
	C6.927,9.816,7.009,9.871,7.1,9.908c0.137,0.08,0.285,0.12,0.445,0.122c0.422,0.042,0.807-0.206,1.155-0.415
	c0.194-0.118,0.386-0.24,0.578-0.36c0.41-0.256,0.832-0.482,1.272-0.685c0.526-0.217,1.057-0.414,1.602-0.577
	c0.489-0.146,1.005-0.219,1.513-0.29c0.008,0.102,0.013,0.204,0.022,0.306c0.013,0.131,0.032,0.262,0.049,0.394
	c0.025,0.183,0.154,0.445,0.301,0.567c0.08,0.067,0.158,0.137,0.249,0.185c0.055,0.029,0.103,0.041,0.153,0.057
	c0.009,0.179,0.02,0.357,0.03,0.536c-0.333,0.089-0.661,0.198-0.961,0.37c-0.411,0.232-0.771,0.531-1.109,0.858
	c-0.771,0.742-1.285,1.709-1.595,2.725c-0.282,0.925-0.402,1.894-0.516,2.851c-0.107,0.87-0.175,1.749-0.213,2.624
	c-0.034,0.835-0.091,1.667-0.124,2.502c-0.017,0.439-0.025,0.879-0.04,1.319c-0.013,0.424-0.046,0.847-0.067,1.269
	C9.8,25.09,9.8,25.916,9.82,26.742c0.018,0.759,0.026,1.517,0.038,2.278c-0.005,0.036-0.021,0.067-0.021,0.104
	c0,0.237,0.107,0.459,0.274,0.62C10.263,29.901,10.475,30,10.712,30c0.041,0,0.076-0.018,0.115-0.024
	c0.867-0.031,1.735-0.086,2.604-0.103c0.872-0.015,1.745,0.004,2.617-0.023c0.405-0.013,0.809-0.052,1.214-0.063
	c0.457-0.011,0.915-0.019,1.372-0.021c0.352,0,0.706,0.002,1.058,0.004c0.47,0.004,0.94,0.008,1.412,0.002
	c0.468-0.006,0.934,0,1.401,0.002c0.38,0.001,0.704-0.25,0.83-0.591c0.096-0.14,0.165-0.298,0.158-0.476
	c-0.027-0.759-0.01-1.521-0.048-2.278c-0.019-0.39-0.048-0.778-0.069-1.167c-0.023-0.407-0.029-0.814-0.049-1.22
	c-0.044-0.849-0.116-1.696-0.175-2.542c-0.057-0.83-0.11-1.657-0.2-2.485c-0.093-0.877-0.194-1.755-0.32-2.628
	c-0.12-0.833-0.251-1.669-0.457-2.487c-0.112-0.449-0.28-0.885-0.468-1.307c-0.164-0.373-0.344-0.746-0.569-1.087
	c-0.291-0.441-0.613-0.843-1.035-1.161c-0.375-0.281-0.801-0.443-1.231-0.62c-0.16-0.067-0.322-0.131-0.483-0.196
	c-0.064-0.026-0.136-0.038-0.21-0.038c-0.158,0-0.325,0.052-0.446,0.123c-0.192,0.112-0.335,0.297-0.392,0.51
	c-0.061,0.221-0.03,0.461,0.086,0.658c0.12,0.206,0.293,0.308,0.51,0.392c0.259,0.101,0.52,0.195,0.779,0.294
	c0.147,0.07,0.285,0.152,0.418,0.245c0.149,0.134,0.285,0.276,0.414,0.431c0.276,0.388,0.499,0.802,0.698,1.235
	c0.22,0.546,0.372,1.106,0.497,1.677c-0.142,0.005-0.283,0.014-0.425,0.014c-0.419-0.002-0.839-0.011-1.26-0.019
	c-0.877-0.015-1.753-0.046-2.63-0.091c-0.014-0.001-0.027-0.001-0.041-0.001c-0.203,0-0.384,0.094-0.527,0.23
	c-0.415,0.039-0.751,0.385-0.751,0.809c0,1.283,0.021,2.567,0.004,3.852c-0.006,0.535-0.032,1.07-0.042,1.604
	c-0.011,0.59-0.011,1.18-0.011,1.77c0,0.347,0.213,0.646,0.51,0.787c0.115,0.337,0.428,0.58,0.8,0.587
	c1.73,0.038,3.462,0.053,5.191,0.074c0.036,0,0.068-0.016,0.103-0.021c0.006,0.154,0.014,0.308,0.02,0.463
	c0.017,0.417,0.048,0.832,0.063,1.247c0.013,0.385,0.008,0.771,0.008,1.155c0,0.164-0.009,0.328-0.012,0.492
	c-0.558,0.016-1.115,0.034-1.673,0.042c-0.845,0.013-1.692,0.01-2.537,0.044c-0.853,0.034-1.699,0.107-2.554,0.118
	c-0.879,0.011-1.76,0.027-2.641,0.034c-0.256,0.002-0.512,0.006-0.768,0.009c0.004-1.406-0.013-2.812,0.034-4.218
	c0.015-0.455,0.044-0.908,0.057-1.363c0.011-0.424,0.008-0.849,0.019-1.273c0.027-0.9,0.086-1.8,0.137-2.699
	c0.045-0.823,0.139-1.647,0.246-2.465c0.064-0.448,0.14-0.894,0.232-1.337c0.09-0.42,0.222-0.828,0.364-1.23
	c0.173-0.384,0.38-0.751,0.624-1.095c0.222-0.265,0.478-0.505,0.744-0.725c0.155-0.108,0.314-0.2,0.483-0.283
	c0.284-0.101,0.569-0.168,0.867-0.222c0.217-0.04,0.422-0.225,0.531-0.407c0.109-0.186,0.135-0.407,0.094-0.618
	c0.017-0.063,0.039-0.125,0.036-0.193c-0.012-0.263-0.022-0.526-0.032-0.789c0.127,0,0.253,0.004,0.38,0.006
	c0.173,0.004,0.348-0.006,0.523-0.015c0.198-0.011,0.396-0.023,0.596-0.017c0.219,0.008,0.459,0.006,0.66-0.078
	c0.213-0.088,0.466-0.217,0.571-0.442c0.074-0.164,0.107-0.255,0.124-0.436c0.008-0.097,0.006-0.196,0.004-0.293
	c-0.002-0.112-0.003-0.224-0.005-0.336c0.985-0.048,1.971-0.092,2.958-0.116c0.035,0.163,0.098,0.319,0.225,0.439
	c0.748,0.702,1.522,1.365,2.306,2.027c0.181,0.152,0.367,0.253,0.611,0.253c0.228,0,0.451-0.093,0.611-0.253
	c0.155-0.155,0.236-0.37,0.246-0.586c0.177-0.15,0.295-0.366,0.3-0.614c0.01-0.445-0.013-0.895-0.017-1.34
	C26.09,7.041,26.095,6.542,26.101,6.044z M21.561,23.058c-0.742,0.029-1.482-0.004-2.223-0.05c-0.847-0.051-1.693-0.074-2.54-0.099
	c-0.024-0.466-0.043-0.932-0.053-1.399c-0.01-0.552-0.036-1.106-0.04-1.659c-0.008-1.06,0.021-2.119,0.038-3.178
	c0.746,0.021,1.491,0.03,2.237,0.019c0.421-0.006,0.841-0.011,1.264-0.019c0.223-0.004,0.447-0.002,0.67,0c0.041,0,0.082,0,0.123,0
	c0.059,0.354,0.125,0.708,0.176,1.064c0.051,0.414,0.1,0.827,0.145,1.24c0.042,0.382,0.057,0.767,0.08,1.149
	c0.053,0.86,0.093,1.722,0.143,2.582c0.007,0.119,0.009,0.238,0.015,0.356C21.583,23.064,21.573,23.058,21.561,23.058z
	 M11.961,6.395c-0.542,0.146-1.073,0.327-1.599,0.527C9.85,7.118,9.338,7.331,8.859,7.595C8.524,7.78,8.195,7.973,7.857,8.151
	C7.797,8.047,7.743,7.94,7.692,7.83C7.624,7.645,7.57,7.457,7.534,7.263C7.531,7.219,7.529,7.175,7.53,7.131
	c0.01-0.01,0.019-0.019,0.029-0.029c0.191-0.129,0.4-0.229,0.611-0.325c0.26-0.117,0.521-0.229,0.783-0.34
	c0.951-0.38,1.936-0.654,2.948-0.824c0.554-0.069,1.11-0.113,1.667-0.15c0.006,0.218,0.008,0.436,0.017,0.654
	c-0.036,0.004-0.068,0-0.105,0.006C12.973,6.2,12.457,6.26,11.961,6.395z M17.306,7.219c-0.002,0.152-0.003,0.304-0.006,0.456
	c-0.021-0.001-0.042-0.001-0.062-0.001c-0.232,0.002-0.464,0.019-0.697,0.017c-0.389-0.003-0.779-0.011-1.166-0.041
	c-0.008-0.069-0.016-0.137-0.024-0.205c0.006,0.048,0.012,0.096,0.02,0.143c-0.068-0.546-0.078-1.094-0.089-1.642
	c-0.01-0.504-0.003-1.008,0.002-1.512c0.002,0,0.003,0,0.005-0.001c0.388-0.034,0.78-0.021,1.169-0.042
	C16.73,4.377,17,4.359,17.27,4.357c0.013,0.234,0.017,0.47,0.024,0.705c0.013,0.358,0.011,0.715,0.017,1.073
	C17.317,6.496,17.31,6.858,17.306,7.219z M23.318,6.773c-0.111-0.107-0.246-0.169-0.386-0.21c-0.112-0.284-0.387-0.49-0.707-0.491
	c-0.67-0.004-1.339-0.01-2.009-0.01c-0.456,0-0.911,0.011-1.367,0.02c0.002-0.234,0.002-0.467,0.005-0.701
	c0.556-0.015,1.112-0.032,1.668-0.038c0.282-0.004,0.563-0.004,0.845,0c0.137,0.002,0.272,0.007,0.407,0.021
	c0.095,0.01,0.188,0.027,0.284,0.025c0.396-0.008,0.75-0.236,1.079-0.434c0.253-0.152,0.514-0.295,0.774-0.436
	c0.218-0.118,0.435-0.236,0.653-0.354c0.007,0.611,0.01,1.222-0.002,1.833c-0.01,0.504-0.027,1.009-0.044,1.513
	c-0.005,0.133-0.004,0.268-0.009,0.402c-0.004-0.004-0.009-0.008-0.013-0.012C24.1,7.528,23.71,7.15,23.318,6.773z"/>
</svg>