<?xml version="1.0" encoding="utf-8"?>
<!-- Generator: Adobe Illustrator 21.1.0, SVG Export Plug-In . SVG Version: 6.00 Build 0)  -->
<svg version="1.1" id="designs" xmlns="http://www.w3.org/2000/svg" xmlns:xlink="http://www.w3.org/1999/xlink" x="0px" y="0px"
	 width="32px" height="32px" viewBox="0 0 32 32" style="enable-background:new 0 0 32 32;" xml:space="preserve">
<style type="text/css">
	.sketchy_een{fill:#111918;}
</style>
<path class="sketchy_een" d="M28.841,2.685c-0.132-0.261-0.433-0.45-0.703-0.53c-0.252-0.075-0.527-0.1-0.786-0.13
	C27.198,2.008,27.046,2,26.895,2c-0.327,0-0.651,0.037-0.977,0.1c-0.461,0.09-0.906,0.237-1.333,0.431
	c-0.459,0.207-0.852,0.497-1.228,0.829c-0.314,0.275-0.621,0.572-0.884,0.897c-0.058,0.071-0.113,0.143-0.166,0.217
	c-0.011-0.012-0.022-0.024-0.034-0.036c-0.333-0.35-0.686-0.681-1.093-0.946c-0.384-0.25-0.826-0.416-1.253-0.576
	c-0.434-0.164-0.873-0.276-1.335-0.325c-0.416-0.041-0.839-0.023-1.254,0c-0.252,0.013-0.502,0.045-0.749,0.083
	c-0.207,0.03-0.412,0.117-0.557,0.271c-0.186,0.197-0.231,0.423-0.258,0.683c-0.032,0.325,0.019,0.671,0.049,0.997
	c0.041,0.448,0.103,0.895,0.182,1.337c0.068,0.384,0.15,0.764,0.286,1.13c0.092,0.245,0.196,0.485,0.312,0.718
	c0.152,0.303,0.363,0.566,0.594,0.812c0.292,0.31,0.658,0.564,1.012,0.799c0.173,0.117,0.372,0.198,0.562,0.284
	c0.265,0.118,0.53,0.222,0.812,0.288c0.003,0.001,0.005,0,0.008,0.001c0.034,0.301,0.07,0.602,0.088,0.906
	c0.024,0.404,0.009,0.801-0.036,1.201c-0.02,0.134-0.043,0.267-0.07,0.4c-0.069-0.063-0.139-0.125-0.21-0.185
	c-0.337-0.282-0.696-0.529-1.066-0.762c-0.325-0.203-0.675-0.371-1.023-0.53c-0.384-0.175-0.766-0.35-1.151-0.513
	c-0.758-0.323-1.54-0.647-2.349-0.814c-0.833-0.173-1.683-0.29-2.533-0.197c-0.559,0.06-1.127,0.12-1.666,0.284
	c-0.461,0.139-0.906,0.352-1.339,0.562c-0.34,0.166-0.666,0.372-0.972,0.594c-0.387,0.276-0.75,0.564-1.091,0.895
	c-0.278,0.271-0.534,0.562-0.792,0.85c-0.286,0.322-0.572,0.658-0.814,1.016c-0.504,0.743-0.869,1.576-1.123,2.436
	c-0.12,0.408-0.188,0.831-0.254,1.251c-0.073,0.463-0.122,0.931-0.164,1.397c-0.071,0.799-0.081,1.604-0.019,2.404
	c0.036,0.465,0.088,0.923,0.182,1.38c0.041,0.201,0.113,0.397,0.179,0.592c0.081,0.233,0.173,0.468,0.276,0.692
	c0.342,0.747,0.797,1.437,1.288,2.093c0.269,0.361,0.549,0.7,0.876,1.01c0.164,0.156,0.339,0.303,0.51,0.45
	c0.293,0.254,0.591,0.506,0.893,0.75c0.668,0.534,1.465,0.95,2.296,1.164c0.792,0.203,1.599,0.352,2.405,0.48
	c0.833,0.134,1.668,0.22,2.513,0.196c0.444-0.011,0.89-0.117,1.32-0.214c0.399-0.09,0.799-0.173,1.189-0.297
	c0.444-0.141,0.882-0.295,1.309-0.482c0.376-0.162,0.73-0.361,1.085-0.566c0.4-0.233,0.782-0.493,1.153-0.768
	c0.058-0.033,0.111-0.074,0.159-0.12c0.236-0.179,0.468-0.364,0.698-0.551c0.628-0.512,1.142-1.115,1.633-1.757
	c0.495-0.647,0.901-1.382,1.241-2.12c0.177-0.382,0.335-0.771,0.504-1.157c0.179-0.412,0.333-0.826,0.466-1.253
	c0.115-0.367,0.226-0.734,0.331-1.102c0.113-0.401,0.186-0.814,0.256-1.224c0.145-0.85,0.243-1.708,0.254-2.569
	c0.008-0.508-0.058-1.018-0.117-1.522c-0.066-0.576-0.152-1.149-0.246-1.723c-0.083-0.513-0.181-1.029-0.331-1.527
	c-0.103-0.34-0.199-0.69-0.338-1.021c0.315-0.095,0.624-0.207,0.904-0.373c0.416-0.246,0.794-0.542,1.16-0.856
	c0.143-0.122,0.269-0.269,0.391-0.412c0.25-0.295,0.48-0.6,0.666-0.94c0.122-0.226,0.211-0.476,0.308-0.711
	c0.083-0.203,0.16-0.408,0.229-0.615c0.158-0.459,0.214-0.948,0.273-1.427c0.049-0.404,0.109-0.816,0.105-1.224
	C29.029,3.18,28.967,2.939,28.841,2.685z M19.918,8.333c0.023-0.003,0.046-0.007,0.07-0.01l0.001,0
	C19.965,8.327,19.942,8.33,19.918,8.333z M19.998,8.322c0.019-0.003,0.038-0.005,0.057-0.008
	C20.037,8.317,20.018,8.319,19.998,8.322L19.998,8.322z M5.073,23.145c-0.081-0.213-0.158-0.427-0.228-0.644
	c-0.071-0.214-0.113-0.436-0.159-0.655c-0.059-0.498-0.083-0.996-0.093-1.494c0.229-0.087,0.459-0.168,0.694-0.242
	c0.262-0.082,0.537-0.124,0.81-0.165c0.028-0.003,0.055-0.004,0.083-0.007c-0.005,1.4,0.064,2.797,0.309,4.182
	c0.102,0.578,0.26,1.146,0.435,1.707c-0.183-0.174-0.371-0.343-0.533-0.535C5.892,24.612,5.427,23.91,5.073,23.145z M9.418,19.878
	c0.01,1.491,0.037,2.991,0.304,4.46c0.227,1.242,0.536,2.469,1.047,3.617c-0.511-0.107-1.015-0.238-1.503-0.42
	c-0.042-0.019-0.081-0.043-0.124-0.063c-0.111-0.185-0.234-0.363-0.323-0.559c-0.211-0.549-0.416-1.099-0.583-1.662
	c-0.185-0.615-0.312-1.247-0.418-1.878c-0.139-1.174-0.148-2.353-0.127-3.533c0.194-0.004,0.388-0.013,0.581-0.011
	C8.655,19.832,9.037,19.85,9.418,19.878z M12.637,28.259c-0.013-0.029-0.014-0.06-0.03-0.088c-0.219-0.36-0.409-0.731-0.584-1.113
	c-0.235-0.586-0.432-1.178-0.58-1.791c-0.149-0.622-0.276-1.247-0.372-1.879c-0.062-0.617-0.102-1.232-0.095-1.851
	c0.005-0.488,0.013-0.976,0.02-1.464c0.225,0.041,0.451,0.079,0.675,0.126c0.363,0.075,0.723,0.182,1.08,0.283
	c0,0.004-0.001,0.008-0.001,0.012c0.109,0.965,0.229,1.928,0.386,2.885c0.055,0.331,0.105,0.668,0.192,0.991
	c0.096,0.369,0.199,0.735,0.307,1.1c0.196,0.671,0.376,1.347,0.638,1.995c0.12,0.295,0.25,0.595,0.4,0.879
	c-0.011,0.002-0.021,0.005-0.032,0.007C13.975,28.4,13.302,28.339,12.637,28.259z M16.336,27.974
	c-0.039-0.064-0.086-0.124-0.123-0.19c-0.15-0.264-0.276-0.539-0.4-0.817c-0.217-0.547-0.383-1.106-0.542-1.674
	c-0.085-0.301-0.173-0.606-0.241-0.912c-0.08-0.366-0.147-0.728-0.205-1.098c-0.094-0.719-0.176-1.441-0.257-2.162
	c0.108,0.043,0.217,0.084,0.324,0.128c0.476,0.209,0.944,0.431,1.412,0.657c0.002,0.009,0.001,0.018,0.004,0.026
	c0.151,1.061,0.346,2.127,0.621,3.165c0.147,0.551,0.299,1.104,0.53,1.627c0.103,0.231,0.218,0.457,0.34,0.679
	c0.007,0.012,0.015,0.024,0.022,0.037c-0.104,0.052-0.203,0.114-0.31,0.162C17.126,27.747,16.732,27.864,16.336,27.974z
	 M19.453,26.459c0.018-0.014,0.036-0.028,0.055-0.042c-0.01,0.008-0.019,0.016-0.029,0.023
	C19.47,26.446,19.461,26.452,19.453,26.459z M20.159,25.886c-0.126,0.107-0.256,0.214-0.386,0.318
	c-0.069,0.055-0.138,0.109-0.206,0.164c-0.041,0.031-0.082,0.063-0.124,0.096c-0.082,0.059-0.169,0.109-0.252,0.166
	c-0.005-0.01-0.01-0.02-0.016-0.031c-0.094-0.183-0.188-0.366-0.272-0.552c-0.239-0.646-0.382-1.317-0.514-1.994
	c-0.063-0.318-0.107-0.638-0.162-0.957c0.151,0.121,0.302,0.242,0.444,0.374c0.218,0.203,0.429,0.414,0.645,0.621
	c0.387,0.367,0.794,0.715,1.141,1.12c0.043,0.061,0.083,0.124,0.121,0.189c0.011,0.019,0.03,0.03,0.043,0.048
	C20.471,25.597,20.323,25.749,20.159,25.886z M27.124,4.875c-0.048,0.287-0.107,0.57-0.196,0.846
	c-0.075,0.232-0.162,0.459-0.253,0.685c-0.106,0.236-0.229,0.454-0.378,0.664c-0.14,0.169-0.281,0.333-0.435,0.49
	c-0.149,0.152-0.321,0.281-0.489,0.412c-0.193,0.132-0.384,0.258-0.596,0.358c-0.303,0.117-0.613,0.21-0.929,0.287
	c-0.44,0.107-0.698,0.596-0.579,1.023c0.009,0.034,0.032,0.058,0.046,0.089c-0.06,0.201-0.046,0.421,0.077,0.601
	c0.091,0.136,0.167,0.278,0.236,0.426c0.14,0.365,0.264,0.746,0.351,1.126c0.098,0.429,0.164,0.861,0.223,1.296
	c0.087,0.722,0.145,1.443,0.193,2.17c0.047,0.727-0.015,1.455-0.105,2.177c-0.093,0.603-0.199,1.205-0.365,1.794
	c-0.159,0.565-0.333,1.131-0.545,1.681c-0.128,0.294-0.262,0.587-0.392,0.879c-0.139,0.314-0.278,0.628-0.444,0.929
	c-0.249,0.45-0.523,0.884-0.814,1.309c-0.416-0.493-0.96-0.88-1.44-1.299c-0.299-0.263-0.594-0.525-0.905-0.775
	c-0.384-0.305-0.79-0.577-1.2-0.844c-0.325-0.209-0.668-0.386-1.014-0.555c-0.384-0.184-0.767-0.371-1.157-0.54
	c-0.831-0.361-1.67-0.69-2.535-0.959c-0.651-0.201-1.311-0.352-1.977-0.489c-0.715-0.149-1.446-0.214-2.172-0.28
	c-0.557-0.051-1.123-0.083-1.683-0.083c-0.083,0-0.166,0.001-0.248,0.002c-0.376,0.008-0.747,0.019-1.121,0.049
	c-0.303,0.024-0.602,0.062-0.901,0.105c-0.252,0.036-0.497,0.101-0.739,0.176c0.022-0.294,0.047-0.589,0.08-0.883
	c0.054-0.356,0.117-0.708,0.195-1.061c0.077-0.348,0.2-0.683,0.327-1.016c0.107-0.241,0.219-0.478,0.348-0.71
	c0.148-0.264,0.313-0.514,0.491-0.76c0.53-0.657,1.101-1.291,1.755-1.827c0.265-0.193,0.535-0.387,0.823-0.547
	c0.306-0.17,0.617-0.324,0.938-0.466c0.195-0.073,0.388-0.143,0.589-0.2c0.199-0.056,0.405-0.086,0.608-0.118
	c0.31-0.038,0.619-0.067,0.932-0.087c0.318-0.019,0.644,0.026,0.962,0.062c0.459,0.068,0.913,0.151,1.357,0.288
	c0.472,0.144,0.933,0.33,1.391,0.513c0.502,0.216,1.002,0.44,1.494,0.674c0.47,0.223,0.906,0.512,1.323,0.824
	c0.194,0.165,0.379,0.335,0.561,0.513c0.308,0.299,0.662,0.664,1.119,0.664c0.207,0,0.427-0.088,0.572-0.233
	c0.132-0.132,0.19-0.25,0.258-0.419c0.049-0.12,0.088-0.246,0.124-0.372c0.071-0.246,0.135-0.495,0.19-0.747
	c0.227-1.065,0.172-2.151,0.038-3.224c0.048-0.109,0.077-0.226,0.077-0.347c0-0.228-0.092-0.45-0.254-0.611
	c-0.145-0.145-0.401-0.282-0.613-0.254c-0.072,0.009-0.143,0.018-0.214,0.028c0.013-0.002,0.026-0.004,0.039-0.006
	c-0.073,0.007-0.143,0.009-0.214,0.006c-0.213-0.05-0.416-0.121-0.62-0.199c-0.267-0.125-0.511-0.275-0.75-0.447
	c-0.158-0.129-0.309-0.261-0.444-0.414C17.998,7.07,17.9,6.881,17.804,6.689c-0.234-0.606-0.37-1.239-0.469-1.882
	c-0.023-0.188-0.042-0.376-0.054-0.565c-0.004-0.05-0.008-0.1-0.012-0.15c0.421-0.03,0.847-0.035,1.266,0.005
	c0.296,0.064,0.577,0.156,0.859,0.264c0.341,0.152,0.668,0.321,0.976,0.535c0.256,0.22,0.487,0.46,0.701,0.723
	c0.141,0.184,0.281,0.368,0.423,0.552c0.062,0.081,0.126,0.16,0.188,0.239c0.075,0.094,0.169,0.188,0.275,0.243
	c0.077,0.041,0.158,0.077,0.241,0.105c0.158,0.041,0.314,0.041,0.47,0c0.276-0.039,0.517-0.29,0.63-0.532
	c0.047-0.1,0.094-0.199,0.143-0.297c0.091-0.178,0.198-0.347,0.313-0.511c0.3-0.363,0.641-0.692,1.007-0.989
	c0.193-0.133,0.39-0.243,0.6-0.341c0.317-0.117,0.641-0.199,0.972-0.254c0.289-0.022,0.575-0.009,0.862,0.022
	c0.004,0.001,0.009,0.001,0.013,0.002C27.206,4.197,27.167,4.539,27.124,4.875z M9.123,15.13c0,0.446-0.372,0.818-0.818,0.818
	s-0.818-0.372-0.818-0.818s0.372-0.818,0.818-0.818S9.123,14.685,9.123,15.13z M13.076,15.13c0,0.446-0.372,0.818-0.818,0.818
	s-0.818-0.372-0.818-0.818s0.372-0.818,0.818-0.818S13.076,14.685,13.076,15.13z"/>
</svg>