<?xml version="1.0" encoding="utf-8"?>
<!-- Generator: Adobe Illustrator 21.1.0, SVG Export Plug-In . SVG Version: 6.00 Build 0)  -->
<svg version="1.1" id="designs" xmlns="http://www.w3.org/2000/svg" xmlns:xlink="http://www.w3.org/1999/xlink" x="0px" y="0px"
	 width="32px" height="32px" viewBox="0 0 32 32" style="enable-background:new 0 0 32 32;" xml:space="preserve">
<style type="text/css">
	.sketchy_een{fill:#111918;}
</style>
<path class="sketchy_een" d="M14.758,14.744c-0.013,0.002-0.025,0.004-0.038,0.005c-0.023,0.003-0.045,0.006-0.068,0.009
	C14.687,14.753,14.723,14.749,14.758,14.744z M14.817,14.735c-0.02,0.003-0.039,0.006-0.059,0.009
	c0.025-0.003,0.049-0.007,0.074-0.01C14.827,14.734,14.822,14.735,14.817,14.735z M21.6,18.326c0.338,0.751,0.597,1.537,0.603,2.369
	c0.002,0.42-0.023,0.852-0.107,1.265c-0.084,0.409-0.235,0.805-0.415,1.182c-0.351,0.736-0.901,1.387-1.509,1.928
	c-0.33,0.295-0.689,0.544-1.06,0.785c-0.169,0.109-0.34,0.225-0.516,0.321c-0.223,0.12-0.449,0.223-0.683,0.319
	c-0.766,0.313-1.635,0.49-2.464,0.441c-0.432-0.026-0.843-0.139-1.252-0.269c-0.379-0.118-0.753-0.257-1.121-0.409
	c-0.394-0.163-0.779-0.343-1.13-0.589c-0.375-0.265-0.695-0.585-1.017-0.912c-0.148-0.148-0.298-0.298-0.437-0.456
	c-0.235-0.265-0.497-0.539-0.642-0.865c-0.163-0.375-0.302-0.749-0.366-1.154c-0.064-0.4-0.146-0.818-0.131-1.226
	c0.015-0.458,0.043-0.923,0.148-1.37c0.19-0.818,0.55-1.575,1.017-2.269c0.255-0.379,0.531-0.747,0.845-1.081
	c0.31-0.328,0.683-0.61,1.059-0.856c0.349-0.227,0.758-0.39,1.162-0.488c0.334-0.083,0.674-0.178,1.015-0.225
	c0.041-0.005,0.082-0.01,0.122-0.016c0.308-0.039,0.615-0.066,0.925-0.087c0.014-0.001,0.028-0.001,0.042-0.001
	c0.198,0,0.381,0.087,0.521,0.221c0.112,0.017,0.224,0.034,0.336,0.051c0.288,0.032,0.58,0.051,0.862,0.108
	c0.253,0.052,0.494,0.122,0.736,0.214c0.497,0.191,0.989,0.426,1.426,0.734C20.431,16.597,21.163,17.355,21.6,18.326z
	 M16.321,16.412c-0.052,0.845-0.085,1.69-0.076,2.539c0.13,0.046,0.26,0.091,0.388,0.147c0.049,0.021,0.098,0.052,0.148,0.078
	c0.008-0.005,0.012-0.014,0.021-0.019c0.549-0.315,1.099-0.628,1.652-0.937c0.281-0.156,0.56-0.316,0.841-0.474
	c-0.117-0.108-0.218-0.232-0.342-0.333c-0.331-0.239-0.687-0.445-1.058-0.618c-0.36-0.141-0.72-0.248-1.105-0.31
	C16.633,16.464,16.477,16.436,16.321,16.412z M16.079,20.992c0.003-0.064,0.003-0.128-0.001-0.192
	c-0.015-0.067-0.034-0.133-0.056-0.198c-0.004-0.007-0.007-0.013-0.011-0.02c-0.003-0.003-0.006-0.006-0.009-0.009
	c-0.063-0.038-0.128-0.073-0.195-0.104c-0.035-0.014-0.069-0.028-0.104-0.042c-0.03,0.01-0.061,0.019-0.094,0.025
	c-0.076,0.014-0.148,0.03-0.22,0.049c-0.052,0.028-0.102,0.057-0.152,0.089c-0.027,0.026-0.053,0.052-0.078,0.08
	c-0.021,0.033-0.04,0.067-0.058,0.101c-0.023,0.074-0.043,0.148-0.06,0.224c-0.003,0.051-0.003,0.102-0.001,0.153
	c0.007,0.027,0.014,0.054,0.022,0.081c0.021,0.039,0.044,0.076,0.068,0.113c0.027,0.03,0.054,0.058,0.084,0.086
	c0.016,0.01,0.032,0.019,0.048,0.028c0.055,0.019,0.11,0.034,0.167,0.047c0.112,0.007,0.221,0.007,0.332,0
	c0.025-0.005,0.049-0.011,0.074-0.018c0.018-0.018,0.035-0.036,0.051-0.055c0.05-0.077,0.095-0.156,0.136-0.238
	C16.044,21.127,16.063,21.06,16.079,20.992z M12.203,17.826c-0.041,0.055-0.075,0.115-0.115,0.171
	c0.687,0.456,1.37,0.916,2.073,1.346c0.022,0.014,0.036,0.036,0.057,0.052c0.185-0.143,0.383-0.257,0.593-0.347
	c-0.001-0.012-0.007-0.022-0.007-0.034c-0.015-0.876-0.018-1.751,0.016-2.625c-0.008,0.001-0.016,0.001-0.025,0.002
	c-0.43,0.073-0.857,0.187-1.264,0.342c-0.227,0.116-0.437,0.251-0.642,0.4C12.637,17.345,12.412,17.573,12.203,17.826z
	 M11.053,20.391c0.001-0.005,0.001-0.01,0.002-0.015c-0.003,0.021-0.006,0.041-0.009,0.061
	C11.049,20.422,11.051,20.407,11.053,20.391z M13.427,21.06c0.001-0.032-0.01-0.062-0.007-0.095c0.011-0.126,0.032-0.259,0.062-0.39
	c-0.009-0.004-0.018-0.004-0.027-0.009c-0.72-0.39-1.415-0.826-2.104-1.269c-0.127,0.339-0.234,0.683-0.291,1.042
	c-0.027,0.284-0.048,0.57-0.039,0.856c0.004,0.184,0.031,0.367,0.054,0.549c0.044,0.283,0.107,0.558,0.2,0.828
	C11.982,22.051,12.702,21.552,13.427,21.06z M14.83,25.189c-0.004-0.307-0.031-0.612-0.064-0.919
	c-0.039-0.368-0.068-0.738-0.084-1.107c-0.004-0.087,0.018-0.167,0.045-0.245c-0.061-0.023-0.124-0.043-0.183-0.071
	c-0.16-0.073-0.316-0.172-0.448-0.292c-0.371,0.247-0.742,0.496-1.118,0.737c-0.248,0.16-0.497,0.321-0.741,0.488
	c0.166,0.168,0.331,0.338,0.512,0.489c0.301,0.208,0.616,0.383,0.949,0.533C14.069,24.951,14.447,25.08,14.83,25.189z M19.254,23.8
	c-0.815-0.371-1.629-0.739-2.439-1.124c-0.002-0.001-0.003-0.004-0.006-0.005c-0.142,0.116-0.295,0.216-0.475,0.274
	c-0.055,0.018-0.113,0.026-0.17,0.039c0.016,0.059,0.037,0.115,0.039,0.178c0.015,0.377,0.021,0.755,0.041,1.13
	c0.019,0.327,0.043,0.653,0.047,0.98c0,0.014-0.007,0.025-0.008,0.039c0.414-0.071,0.815-0.178,1.21-0.328
	c0.486-0.23,0.943-0.519,1.378-0.836C19.006,24.038,19.129,23.918,19.254,23.8z M20.696,20.312c-0.066-0.35-0.169-0.689-0.299-1.022
	c-0.056-0.124-0.119-0.245-0.181-0.365c-0.873,0.509-1.73,1.044-2.6,1.558c0.011,0.074,0.03,0.148,0.038,0.222
	c0.024,0.208,0.008,0.417-0.037,0.621c0.825,0.399,1.642,0.817,2.464,1.226c0.052,0.026,0.088,0.071,0.129,0.109
	c0.078-0.134,0.164-0.262,0.232-0.405c0.107-0.27,0.189-0.536,0.241-0.823C20.723,21.057,20.732,20.688,20.696,20.312z
	 M25.552,20.951c-0.075,0.417-0.169,0.824-0.298,1.226c-0.135,0.415-0.282,0.817-0.451,1.218c-0.145,0.34-0.306,0.672-0.471,1
	c-0.182,0.36-0.379,0.706-0.603,1.042c-0.248,0.372-0.542,0.717-0.841,1.049c-0.565,0.629-1.205,1.188-1.909,1.657
	c-0.336,0.223-0.681,0.432-1.03,0.632c-0.374,0.216-0.771,0.377-1.169,0.539c-0.349,0.143-0.709,0.259-1.074,0.36
	c-0.43,0.118-0.869,0.227-1.316,0.268c-0.786,0.073-1.571,0.096-2.35-0.064c-0.666-0.135-1.361-0.218-1.991-0.48
	c-0.216-0.088-0.419-0.18-0.612-0.308c-0.133-0.086-0.265-0.175-0.398-0.263c-0.282-0.188-0.561-0.379-0.832-0.582
	c-0.366-0.272-0.719-0.557-1.062-0.856c-0.353-0.31-0.694-0.629-0.942-1.032c-0.407-0.661-0.732-1.357-1.034-2.068
	c-0.176-0.415-0.338-0.833-0.473-1.263c-0.161-0.522-0.302-1.04-0.323-1.59c-0.032-0.867,0.071-1.736,0.255-2.584
	c0.18-0.837,0.445-1.68,0.85-2.436c0.255-0.476,0.583-0.905,0.934-1.315c-0.018-0.062-0.04-0.122-0.043-0.188
	c-0.019-0.357-0.008-0.713-0.024-1.068c-0.019-0.379-0.045-0.758-0.053-1.137c-0.017-0.723-0.032-1.449-0.013-2.172
	c0.021-0.796,0.103-1.58,0.257-2.359c0.15-0.755,0.349-1.518,0.666-2.222c0.146-0.327,0.308-0.653,0.49-0.963
	c0.214-0.364,0.458-0.695,0.751-1c0.524-0.548,1.121-1.015,1.817-1.323c0.366-0.161,0.734-0.298,1.124-0.387
	c0.392-0.088,0.794-0.143,1.194-0.188c0.338-0.04,0.676-0.086,1.015-0.094C15.625,2,15.656,2,15.687,2
	c0.391,0,0.775,0.054,1.158,0.134c0.717,0.15,1.43,0.325,2.093,0.649c0.424,0.208,0.815,0.473,1.139,0.82
	c0.237,0.253,0.451,0.526,0.674,0.79c0.111,0.131,0.22,0.265,0.328,0.4c0.135,0.165,0.282,0.332,0.396,0.512
	c0.21,0.328,0.366,0.685,0.505,1.049c0.124,0.321,0.235,0.642,0.293,0.98c0.072,0.401,0.143,0.804,0.198,1.21
	c0.025,0.186,0.049,0.372,0.072,0.558c-0.005-0.034-0.009-0.068-0.014-0.102c0.069,0.523,0.129,1.045,0.164,1.572
	c0.034,0.497,0.073,0.993,0.124,1.49c0.049,0.464,0.047,0.929,0.086,1.395c0.036,0.445,0.074,0.892,0.111,1.339
	c0.092,0.081,0.186,0.16,0.278,0.24c0.64,0.556,1.216,1.211,1.571,1.986c0.19,0.417,0.347,0.83,0.451,1.276
	c0.084,0.37,0.175,0.74,0.25,1.111C25.667,19.925,25.644,20.437,25.552,20.951z M9.697,12.182c0.019,0.524,0.053,1.047,0.088,1.57
	c0.053-0.039,0.1-0.083,0.155-0.12c0.323-0.221,0.672-0.394,1.01-0.591c0.047-0.027,0.096-0.052,0.143-0.078
	c-0.045-0.19-0.064-0.395-0.074-0.585c-0.013-0.229-0.021-0.458-0.023-0.689c-0.004-0.46,0.024-0.922,0.058-1.38
	c0.06-0.766,0.133-1.539,0.327-2.284c0.195-0.755,0.411-1.582,0.955-2.168c0.509-0.546,1.152-0.982,1.898-1.12
	c0.314-0.058,0.634-0.081,0.955-0.081c0.428,0,0.858,0.041,1.279,0.096c0.477,0.062,0.931,0.171,1.329,0.465
	c0.298,0.222,0.604,0.451,0.837,0.745c0.283,0.355,0.512,0.721,0.676,1.147c0.118,0.304,0.221,0.616,0.313,0.929
	c0.115,0.394,0.163,0.796,0.212,1.201c0.041,0.332,0.075,0.664,0.105,0.997c0.059,0.635,0.123,1.269,0.201,1.902
	c0.034,0.242,0.065,0.483,0.095,0.724c0.188,0.099,0.378,0.195,0.562,0.302c0.207,0.121,0.411,0.248,0.613,0.377
	c-0.004-0.038-0.011-0.075-0.015-0.114c-0.051-0.488-0.069-0.978-0.133-1.464c0.009,0.068,0.019,0.137,0.028,0.205
	c-0.064-0.479-0.122-0.953-0.161-1.434c-0.034-0.432-0.069-0.861-0.124-1.289c0.009,0.069,0.019,0.141,0.028,0.21
	c-0.043-0.319-0.081-0.639-0.122-0.957c-0.057-0.384-0.115-0.776-0.207-1.153c-0.077-0.32-0.186-0.628-0.309-0.932
	c-0.146-0.306-0.321-0.582-0.525-0.852c-0.351-0.453-0.701-0.928-1.129-1.311c-0.227-0.161-0.47-0.299-0.723-0.417
	c-0.585-0.229-1.209-0.366-1.829-0.464c-0.578-0.057-1.155,0.025-1.729,0.096c-0.533,0.077-1.058,0.176-1.562,0.367
	c-0.295,0.135-0.574,0.286-0.837,0.475c-0.321,0.268-0.616,0.558-0.88,0.88C10.9,5.815,10.657,6.27,10.448,6.737
	c-0.347,0.86-0.578,1.773-0.713,2.69C9.644,10.341,9.662,11.265,9.697,12.182z M15.859,11.637c0.092,0,0.184,0.004,0.277,0.012
	c0.248,0.021,0.501,0.043,0.745,0.086c0.345,0.064,0.691,0.13,1.032,0.212c0.297,0.072,0.575,0.18,0.858,0.292
	c-0.019-0.17-0.039-0.339-0.055-0.509c-0.023-0.252-0.062-0.501-0.09-0.753c-0.053-0.472-0.099-0.943-0.159-1.413
	c-0.047-0.352-0.089-0.708-0.19-1.049c-0.094-0.315-0.194-0.628-0.312-0.935c-0.098-0.208-0.211-0.402-0.343-0.589
	c-0.134-0.159-0.278-0.303-0.439-0.437c-0.124-0.09-0.251-0.173-0.386-0.246c-0.11-0.037-0.221-0.064-0.336-0.084
	c-0.603-0.057-1.21-0.071-1.813-0.01c-0.174,0.031-0.343,0.077-0.509,0.136C14,6.416,13.868,6.49,13.741,6.576
	c-0.132,0.114-0.26,0.233-0.375,0.363c-0.104,0.151-0.192,0.306-0.271,0.471c-0.239,0.619-0.41,1.266-0.511,1.92
	c-0.061,0.542-0.095,1.087-0.11,1.632c-0.013,0.425-0.021,0.851-0.009,1.276c0.006,0.009,0.011,0.017,0.016,0.026
	c0.011,0.019,0.009,0.037,0.018,0.055c0.263-0.089,0.529-0.167,0.802-0.216c0.389-0.07,0.778-0.146,1.169-0.209
	c0.084-0.069,0.179-0.118,0.287-0.148C15.125,11.696,15.489,11.637,15.859,11.637z M23.861,19.961
	c-0.068-0.363-0.158-0.724-0.24-1.083c-0.086-0.37-0.196-0.724-0.336-1.075c-0.13-0.282-0.279-0.542-0.46-0.797
	c-0.269-0.328-0.569-0.623-0.887-0.902c-0.319-0.28-0.628-0.572-0.957-0.841c-0.316-0.225-0.646-0.428-0.978-0.627
	c-0.285-0.171-0.576-0.33-0.878-0.47c-0.241-0.093-0.483-0.18-0.722-0.275c-0.244-0.098-0.486-0.195-0.74-0.259
	c-0.537-0.134-1.069-0.274-1.614-0.361c-0.051,0.011-0.104,0.017-0.158,0.017c-0.001,0-0.002,0-0.003,0
	c-0.404-0.002-0.799,0.015-1.199,0.06c-0.334,0.048-0.667,0.105-0.999,0.164c-0.367,0.067-0.712,0.177-1.057,0.314
	c-0.351,0.157-0.687,0.34-1.022,0.532c-0.341,0.197-0.684,0.384-1.005,0.612c-0.507,0.427-0.944,0.934-1.355,1.452
	c-0.26,0.353-0.474,0.723-0.657,1.121c-0.311,0.784-0.504,1.606-0.631,2.439c-0.066,0.566-0.092,1.137-0.043,1.704
	c0.057,0.325,0.165,0.645,0.268,0.959c0.081,0.25,0.17,0.497,0.267,0.741c0.339,0.774,0.7,1.536,1.187,2.23
	c0.277,0.326,0.613,0.605,0.946,0.872c0.354,0.262,0.721,0.501,1.087,0.746c0.322,0.214,0.645,0.433,0.995,0.598
	c0.365,0.14,0.737,0.237,1.119,0.325c0.369,0.086,0.736,0.187,1.109,0.249c0.508,0.05,1.028,0.057,1.537,0.002
	c0.75-0.125,1.482-0.335,2.19-0.615c0.7-0.321,1.364-0.742,1.982-1.203c0.31-0.254,0.606-0.518,0.882-0.81
	c0.25-0.266,0.486-0.548,0.717-0.833c0.199-0.272,0.38-0.556,0.539-0.854c0.142-0.266,0.262-0.547,0.384-0.822
	c0.349-0.859,0.582-1.75,0.728-2.663C23.874,20.392,23.876,20.178,23.861,19.961z M22.449,8.383
	c0.007,0.054,0.014,0.108,0.022,0.163c0.002,0.016,0.004,0.032,0.007,0.048C22.468,8.522,22.459,8.452,22.449,8.383z"/>
</svg>