<?xml version="1.0" encoding="utf-8"?>
<!-- Generator: Adobe Illustrator 21.1.0, SVG Export Plug-In . SVG Version: 6.00 Build 0)  -->
<svg version="1.1" id="designs" xmlns="http://www.w3.org/2000/svg" xmlns:xlink="http://www.w3.org/1999/xlink" x="0px" y="0px"
	 width="32px" height="32px" viewBox="0 0 32 32" style="enable-background:new 0 0 32 32;" xml:space="preserve">
<style type="text/css">
	.sketchy_een{fill:#111918;}
</style>
<path class="sketchy_een" d="M2.444,17.023c0.019-0.003,0.039-0.005,0.058-0.008c0.016-0.002,0.031-0.004,0.047-0.006
	C2.514,17.014,2.479,17.019,2.444,17.023z M31,16.382c0,0.462-0.371,0.792-0.815,0.815c-0.306,0.017-0.613,0.028-0.919,0.039
	c-0.009,1.027-0.029,2.056,0,3.083c0.01,0.398-0.318,0.721-0.7,0.769c-0.133,0.231-0.371,0.401-0.65,0.395
	c-0.748-0.02-1.495-0.002-2.243,0.017c0.025,0.297,0.04,0.595,0.074,0.89c0.074,0.129,0.127,0.269,0.127,0.42
	c0,0.225-0.091,0.445-0.25,0.604c-0.144,0.146-0.392,0.275-0.604,0.25c-0.004,0-0.008,0-0.012,0c-0.005,0-0.009,0.003-0.014,0.003
	c-0.006,0-0.011-0.003-0.017-0.003c-0.276-0.027-0.551-0.027-0.829-0.018c-0.309,0.009-0.618,0.017-0.926,0.025
	c-0.748,0.021-1.497,0.044-2.245,0.062c-0.472,0.011-0.866-0.402-0.866-0.866c0-0.147,0.046-0.277,0.112-0.398
	c-0.03-0.082-0.053-0.168-0.048-0.259c0.032-0.635,0.01-1.273,0.006-1.908c-0.002-0.642-0.002-1.283-0.006-1.925
	c-0.122-0.002-0.243-0.014-0.364-0.014c-0.063,0-0.127,0-0.189-0.002c-0.366,0-0.731-0.004-1.097-0.006
	c-0.657-0.004-1.317-0.004-1.974-0.017c-0.71-0.011-1.423-0.032-2.135-0.036c-0.755-0.004-1.51-0.006-2.266-0.028
	c-0.004,0.108-0.005,0.217-0.009,0.325c-0.026,0.663-0.042,1.328-0.042,1.993c0,0.728-0.036,1.464,0.051,2.188
	c0.023,0.182-0.091,0.394-0.214,0.519c-0.001,0.001-0.003,0.001-0.004,0.002c-0.09,0.347-0.396,0.623-0.767,0.615
	c-0.578-0.011-1.156-0.017-1.734-0.038c-0.621-0.021-1.243-0.059-1.864-0.08c-0.455-0.017-0.836-0.369-0.836-0.837
	c0-0.044,0.019-0.085,0.026-0.129c-0.09-0.126-0.154-0.269-0.147-0.432C6.62,22.14,6.624,21.88,6.63,21.619
	c-0.146,0.005-0.292,0.014-0.434,0.02c-0.292,0.013-0.582,0.032-0.873,0.047c-0.599,0.032-1.197,0.072-1.798,0.106
	c-0.455,0.027-0.836-0.4-0.836-0.836c0-0.154,0.052-0.287,0.122-0.406c-0.014-0.061-0.036-0.119-0.031-0.183
	c0.057-0.695,0.068-1.396,0.064-2.092c-0.002-0.435-0.01-0.87-0.015-1.305c-0.109,0.015-0.219,0.03-0.328,0.044
	c-0.23,0.029-0.459,0.055-0.689,0.08c-0.203,0.021-0.436-0.1-0.576-0.239C1.085,16.705,1,16.497,1,16.281
	c0-0.214,0.085-0.422,0.237-0.574c0.167-0.167,0.352-0.216,0.576-0.239c0.279-0.03,0.559-0.055,0.837-0.076
	C2.667,15.391,2.683,15.39,2.7,15.39c0.032,0,0.06,0.017,0.091,0.022c-0.047-1.305-0.121-2.607-0.199-3.911
	c-0.007-0.117,0.021-0.227,0.069-0.328c0.073-0.378,0.399-0.697,0.799-0.683c0.961,0.028,1.917,0.038,2.876-0.013
	c0.012-0.001,0.023-0.001,0.035-0.001c0.098,0,0.19,0.026,0.276,0.063c-0.002-0.426-0.01-0.852-0.011-1.278
	c-0.001-0.239,0.11-0.45,0.277-0.6c0.15-0.151,0.358-0.246,0.589-0.263c0.735-0.053,1.47-0.087,2.207-0.119
	c0.292-0.013,0.584-0.028,0.875-0.036c0.159-0.005,0.32-0.012,0.479-0.012c0.136,0,0.272,0.005,0.406,0.022
	c0.227,0.026,0.413,0.072,0.582,0.241c0.153,0.152,0.241,0.362,0.241,0.58c0,0.024-0.012,0.046-0.015,0.07
	c0.044,0.098,0.07,0.205,0.067,0.318c-0.015,0.803-0.044,1.605-0.051,2.408c-0.004,0.578-0.011,1.158-0.021,1.738
	c0.734,0.031,1.467,0.065,2.202,0.069c0.693,0.004,1.385-0.017,2.076-0.023c0.682-0.004,1.362-0.006,2.042,0
	c0.367,0.004,0.733,0.004,1.099,0.004c0.162,0,0.327-0.007,0.491-0.009c0.02-1.516,0.03-3.037,0.167-4.55
	c0.019-0.21,0.072-0.388,0.225-0.542c0.142-0.142,0.339-0.224,0.542-0.224c0.043,0,0.083,0.018,0.125,0.025c0.001,0,0.001,0,0.002,0
	c0.597-0.068,1.199-0.087,1.796-0.15c0.549-0.059,1.093-0.112,1.644-0.125c0.006,0,0.013,0,0.019,0c0.386,0,0.699,0.289,0.795,0.648
	c0.124,0.138,0.206,0.313,0.202,0.509c-0.012,0.643-0.046,1.285-0.071,1.927c0.929-0.019,1.86-0.011,2.789-0.054
	c0.011,0,0.022-0.001,0.033-0.001c0.446,0,0.812,0.413,0.812,0.848c0,0.083-0.016,0.168-0.043,0.252
	c0.111,0.137,0.188,0.3,0.178,0.484c-0.038,0.68-0.097,1.358-0.117,2.039c-0.009,0.284-0.003,0.567-0.004,0.851
	c0.303-0.006,0.605-0.011,0.909-0.021c0.006,0,0.013,0,0.019,0C30.639,15.565,31,15.952,31,16.382z M6.672,19.985
	c0.007-0.308,0.012-0.616,0.025-0.924c0.064-1.569,0.047-3.141,0.028-4.71c-0.011-0.782-0.038-1.563-0.063-2.343
	c-0.101,0.043-0.208,0.068-0.325,0.077c-0.491,0.034-0.981,0.042-1.474,0.053c-0.218,0.005-0.435,0.003-0.653,0.005
	c0.028,0.617,0.056,1.235,0.076,1.852c0.011,0.364,0.013,0.729,0.034,1.093c0.021,0.362,0.044,0.724,0.059,1.087
	c0.028,0.709,0.059,1.415,0.053,2.124c-0.005,0.596-0.024,1.192-0.051,1.787c0.314-0.011,0.629-0.024,0.943-0.038
	c0.292-0.013,0.584-0.027,0.873-0.04C6.353,20.003,6.513,19.993,6.672,19.985z M9.432,22.259c0.414,0.029,0.828,0.028,1.243,0.031
	c-0.01-0.582-0.001-1.166,0.002-1.746c0.002-0.703,0.006-1.404,0.015-2.107c0.009-0.762,0.008-1.523,0.023-2.285
	c0.015-0.735,0.04-1.468,0.038-2.203c-0.002-1.357-0.016-2.712-0.005-4.068c-0.055,0-0.109,0.001-0.163,0
	c-0.292-0.004-0.583-0.006-0.875,0.006c-0.485,0.015-0.968,0.05-1.452,0.087c-0.004,0.433-0.007,0.866-0.011,1.3
	c-0.004,0.602,0.027,1.201,0.047,1.804c0.028,0.805,0.021,1.61,0.021,2.416c0,0.796,0.002,1.593-0.027,2.389
	c-0.052,1.429-0.169,2.856-0.126,4.286C8.585,22.199,9.008,22.231,9.432,22.259z M20.177,16.648c-0.001-0.424,0-0.848,0.002-1.272
	c-0.123-0.002-0.245-0.014-0.368-0.014c-0.063,0-0.127,0-0.189-0.002c-0.366,0-0.731-0.004-1.097-0.006
	c-0.657-0.004-1.317-0.004-1.974-0.017c-0.71-0.011-1.423-0.032-2.135-0.036c-0.727-0.004-1.455-0.007-2.182-0.027
	c-0.01,0.443-0.025,0.887-0.037,1.33c0.759,0.031,1.517,0.067,2.278,0.071c0.693,0.004,1.385-0.017,2.076-0.023
	c0.682-0.004,1.362-0.006,2.042,0c0.367,0.004,0.733,0.004,1.099,0.004C19.853,16.657,20.015,16.651,20.177,16.648z M23.223,21.981
	c0.289-0.005,0.577-0.022,0.866-0.028c-0.03-0.355-0.055-0.71-0.079-1.064c-0.047-0.661-0.078-1.328-0.083-1.991
	c-0.029-3.036,0.159-6.069,0.208-9.104c-0.095-0.003-0.19,0.001-0.285-0.001c-0.28-0.006-0.557,0.011-0.835,0.042
	c-0.407,0.042-0.812,0.09-1.218,0.138c-0.034,0.354-0.064,0.708-0.078,1.063c-0.028,0.676-0.032,1.351-0.03,2.027
	c0,0.746,0.011,1.493,0.015,2.241c0.004,0.782-0.006,1.567,0.002,2.351c0.008,0.76,0.004,1.518,0.008,2.277
	c0.003,0.686,0.013,1.374,0.01,2.062C22.222,21.99,22.723,21.987,23.223,21.981z M27.688,19.958c0.013-2.379-0.008-4.76,0.094-7.137
	c-0.062-0.001-0.123,0-0.185-0.001c-0.167-0.006-0.335-0.01-0.502-0.008c-0.497,0.007-0.995,0.03-1.492,0.05
	c0,0.171-0.005,0.341-0.005,0.512c-0.004,0.771-0.036,1.542-0.053,2.313c-0.017,0.781-0.026,1.561-0.026,2.344
	c0.001,0.643,0.02,1.289,0.047,1.934l0.001,0c0.392-0.006,0.782-0.004,1.175-0.004C27.056,19.963,27.372,19.961,27.688,19.958z"/>
</svg>