<?xml version="1.0" encoding="utf-8"?>
<!-- Generator: Adobe Illustrator 21.1.0, SVG Export Plug-In . SVG Version: 6.00 Build 0)  -->
<svg version="1.1" id="designs" xmlns="http://www.w3.org/2000/svg" xmlns:xlink="http://www.w3.org/1999/xlink" x="0px" y="0px"
	 width="32px" height="32px" viewBox="0 0 32 32" style="enable-background:new 0 0 32 32;" xml:space="preserve">
<style type="text/css">
	.sketchy_een{fill:#111918;}
</style>
<path class="sketchy_een" d="M29.977,26.603c-0.023-0.653-0.058-1.308-0.092-1.961c-0.025-0.459-0.367-0.845-0.845-0.845
	c-0.016,0-0.031,0.009-0.047,0.01c-0.119-0.065-0.249-0.112-0.391-0.112c-0.005,0-0.009,0-0.014,0
	c-0.184,0.004-0.368,0.014-0.551,0.021c0.021-0.073,0.046-0.145,0.045-0.225c-0.004-0.346-0.017-0.691-0.015-1.037
	c0.004-0.403,0.029-0.805,0.044-1.208c0.002-0.062-0.021-0.118-0.033-0.177c-0.003-0.086-0.007-0.172-0.009-0.258
	c-0.004-0.232-0.008-0.463-0.013-0.695c-0.006-0.467-0.015-0.933-0.029-1.4c-0.025-0.966-0.061-1.932-0.111-2.898
	c-0.05-0.995-0.167-1.982-0.384-2.954c-0.194-0.868-0.465-1.719-0.805-2.541c-0.371-0.897-0.847-1.732-1.352-2.56
	c-0.221-0.361-0.453-0.722-0.703-1.062c-0.296-0.403-0.609-0.807-0.976-1.147c-0.369-0.34-0.77-0.672-1.208-0.92
	c-0.409-0.234-0.82-0.465-1.243-0.668c-0.891-0.426-1.813-0.722-2.773-0.945c-0.96-0.222-1.952-0.378-2.938-0.378
	c-0.026,0-0.051,0-0.076,0c-0.978,0.008-1.932,0.257-2.842,0.601c-0.91,0.342-1.848,0.643-2.714,1.083
	C8.998,4.787,8.192,5.384,7.468,6.093C7.13,6.427,6.834,6.813,6.54,7.184c-0.344,0.434-0.64,0.88-0.897,1.371
	C5.399,9.02,5.203,9.51,5.015,9.999c-0.165,0.432-0.321,0.87-0.451,1.312c-0.542,1.88-0.672,3.833-0.768,5.777
	c-0.054,1.145-0.131,2.289-0.196,3.434c-0.012,0.191,0.063,0.359,0.168,0.509c-0.014,0.393-0.036,0.785-0.021,1.18
	c0.01,0.267,0.029,0.534,0.046,0.801c0.017,0.246,0.017,0.494,0.044,0.739c0,0.002,0.001,0.004,0.001,0.006
	c-0.264-0.006-0.527-0.013-0.791-0.016c-0.296-0.003-0.549,0.17-0.693,0.41C2.145,24.307,1.999,24.543,2,24.818
	c0.004,1.147,0.027,2.293,0.044,3.44c0.004,0.284,0.161,0.527,0.384,0.676c0.153,0.22,0.397,0.372,0.683,0.38
	c0.868,0.023,1.734,0.004,2.602,0.004c0.816,0,1.631,0.008,2.447,0.015c1.723,0.017,3.451,0.033,5.174,0.015
	c0.851-0.01,1.705-0.05,2.556-0.073c0.885-0.023,1.767-0.058,2.652-0.075c1.736-0.035,3.474-0.025,5.21-0.033
	c0.839-0.004,1.677,0.017,2.516,0.021c0.791,0.004,1.586,0.038,2.376-0.013c0.098-0.007,0.19-0.034,0.278-0.066
	c0.078,0.024,0.156,0.05,0.238,0.05c0.455,0,0.843-0.384,0.841-0.841C29.996,27.746,29.998,27.174,29.977,26.603z M5.87,14.384
	c0.109-0.738,0.247-1.464,0.435-2.185c0.184-0.713,0.444-1.408,0.722-2.09C7.149,9.839,7.281,9.573,7.42,9.31
	c0.165-0.308,0.366-0.591,0.569-0.874c0.235-0.297,0.475-0.588,0.735-0.864C9.009,7.271,9.318,7,9.639,6.739
	c0.262-0.185,0.528-0.361,0.807-0.521c0.305-0.173,0.623-0.319,0.944-0.46c0.552-0.223,1.115-0.426,1.673-0.635
	c0.604-0.228,1.208-0.405,1.842-0.506c0.636-0.064,1.259-0.045,1.893,0.026c1.064,0.156,2.122,0.413,3.124,0.802
	c0.364,0.161,0.717,0.341,1.066,0.533c0.359,0.197,0.709,0.394,1.043,0.631c0.376,0.308,0.708,0.648,1.019,1.023
	c0.397,0.538,0.754,1.102,1.103,1.672c0.357,0.583,0.681,1.179,0.959,1.806c0.416,1.058,0.734,2.155,0.914,3.277
	c0.132,1.149,0.163,2.302,0.193,3.458c0.017,0.613,0.023,1.227,0.025,1.84c0.002,0.245,0,0.49-0.002,0.734
	c-1.471,0.024-2.943,0.046-4.415,0.037c-0.824-0.004-1.648-0.025-2.472-0.023c-0.85,0.002-1.697-0.002-2.545-0.008
	c0.009-0.468,0.004-0.936-0.007-1.404c0.44-0.005,0.88-0.007,1.32-0.03c0.478-0.025,0.96-0.056,1.44-0.058
	c0.438,0,0.803-0.365,0.803-0.803c0-0.255-0.125-0.467-0.308-0.612c-0.013-0.037-0.017-0.076-0.036-0.111
	c-0.107-0.202-0.198-0.409-0.289-0.618c-0.233-0.566-0.44-1.145-0.664-1.715c-0.129-0.328-0.244-0.659-0.376-0.987
	c-0.135-0.339-0.292-0.667-0.44-1c-0.109-0.274-0.206-0.553-0.303-0.831c-0.106-0.307-0.24-0.603-0.353-0.908
	c-0.234-0.626-0.449-1.26-0.688-1.884c-0.077-0.204-0.175-0.367-0.369-0.482c-0.057-0.033-0.124-0.032-0.187-0.05
	c-0.006-0.004-0.01-0.011-0.016-0.015c-0.124-0.072-0.269-0.108-0.415-0.108c-0.287,0-0.576,0.138-0.71,0.404
	c-0.194,0.382-0.366,0.772-0.533,1.167c-0.186,0.425-0.396,0.838-0.585,1.262c-0.211,0.478-0.413,0.96-0.636,1.431
	c-0.219,0.463-0.44,0.922-0.653,1.387c-0.207,0.456-0.392,0.922-0.58,1.386c-0.105,0.237-0.215,0.471-0.317,0.711
	c-0.111,0.255-0.244,0.494-0.359,0.747c-0.082,0.177-0.117,0.346-0.083,0.535c-0.046,0.104-0.074,0.217-0.074,0.334
	c0,0.455,0.382,0.845,0.841,0.841c0.678-0.006,1.356-0.044,2.034-0.019c0.27,0.009,0.54,0.009,0.811,0.016
	c0.022,0.467,0.049,0.934,0.059,1.402c-0.324-0.002-0.649-0.005-0.973-0.007c-0.832-0.008-1.665-0.031-2.497-0.027
	c-1.663,0.006-3.328,0.056-4.99-0.027c-0.397-0.021-0.794-0.047-1.191-0.073c-0.001-0.007-0.002-0.014-0.004-0.021
	C5.578,18.298,5.63,16.335,5.87,14.384z M15.971,11.291c0.147,0.33,0.291,0.662,0.434,0.993c0.129,0.327,0.245,0.658,0.366,0.987
	c0.139,0.386,0.319,0.758,0.485,1.133c0.225,0.551,0.422,1.114,0.621,1.675c0.162,0.449,0.346,0.887,0.53,1.326
	c-0.294,0.017-0.587,0.03-0.878,0.041c-0.567,0.023-1.135,0.015-1.702,0.002c-0.567-0.01-1.133-0.027-1.7-0.042
	c-0.317-0.007-0.634-0.022-0.951-0.038c0.221-0.591,0.464-1.175,0.71-1.756c0.195-0.44,0.405-0.871,0.62-1.304
	c0.223-0.453,0.434-0.914,0.647-1.375C15.408,12.379,15.687,11.834,15.971,11.291z M5.483,23.06
	c-0.015-0.273-0.035-0.545-0.042-0.818c-0.003-0.098,0.004-0.195,0.004-0.293c0.752,0.031,1.504,0.052,2.259,0.056
	c0.826,0.004,1.654,0.006,2.481-0.006c1.677-0.029,3.353,0.013,5.028,0.015c0.601,0.002,1.202-0.002,1.803-0.006
	c1.133-0.006,2.266-0.013,3.399,0.008c0.843,0.017,1.686,0.04,2.529,0.044c0.826,0.006,1.652-0.021,2.479-0.027
	c0.305-0.003,0.611,0.002,0.916,0.004c0.028,0.046,0.057,0.087,0.089,0.126c-0.001,0.443-0.01,0.886,0.001,1.329
	c0.002,0.1,0.027,0.194,0.061,0.283c-0.051,0.001-0.102,0.005-0.154,0.006c-0.822,0.019-1.642,0.029-2.464,0.061
	c-1.698,0.063-3.397,0.058-5.095,0.029c-1.679-0.031-3.359-0.04-5.036-0.075c-0.845-0.019-1.69-0.013-2.535-0.013
	c-0.837,0-1.675-0.004-2.512-0.002c-0.92,0.002-1.838,0.013-2.758,0.01c-0.142,0-0.285-0.005-0.427-0.006
	c0-0.011,0.008-0.023,0.006-0.034C5.491,23.521,5.495,23.289,5.483,23.06z M26.446,27.501c-0.822,0.004-1.642,0.025-2.462,0.027
	c-0.862,0-1.721,0.019-2.583,0.027c-0.878,0.01-1.759-0.01-2.637-0.013c-0.885-0.004-1.765,0.038-2.648,0.073
	c-0.826,0.031-1.652,0.04-2.479,0.058c-0.582,0.013-1.164,0.013-1.744,0.013c-0.29,0-0.58,0-0.87,0
	c-0.868,0.004-1.736,0.004-2.602,0.01c-1.58,0.007-3.158,0-4.737-0.055c-0.006-0.31-0.014-0.62-0.013-0.928
	c0.003-0.444,0.009-0.887,0.013-1.331c1.489-0.005,2.977,0.007,4.466,0.009c0.259,0.002,0.517,0.002,0.778,0
	c0.572,0,1.143,0,1.717,0.008c0.839,0.013,1.677,0.029,2.516,0.033c0.853,0.004,1.707,0.029,2.56,0.052
	c0.851,0.023,1.705,0,2.556-0.002c1.688-0.004,3.378,0.019,5.066,0.019c0.893,0,1.786-0.017,2.679-0.023
	c0.156,0,0.315,0,0.474,0.002c0.263,0,0.526,0.002,0.791-0.008c0.322-0.014,0.646-0.016,0.969-0.022
	c0.029,0.372,0.056,0.744,0.066,1.117c0.008,0.302-0.001,0.605-0.002,0.907c-0.226,0.001-0.453,0.012-0.681,0.015
	C27.243,27.495,26.845,27.499,26.446,27.501z M15.262,6.396c0-0.378,0.317-0.695,0.695-0.695s0.695,0.317,0.695,0.695
	s-0.317,0.695-0.695,0.695S15.262,6.774,15.262,6.396z M13.039,8.648c0-0.34,0.284-0.624,0.624-0.624
	c0.34,0,0.624,0.284,0.624,0.624c0,0.34-0.284,0.624-0.624,0.624C13.323,9.272,13.039,8.988,13.039,8.648z M17.63,8.571
	c0-0.328,0.271-0.599,0.599-0.599c0.328,0,0.599,0.271,0.599,0.599c0,0.328-0.271,0.599-0.599,0.599
	C17.901,9.17,17.63,8.899,17.63,8.571z M11.078,10.736c0-0.323,0.269-0.593,0.593-0.593c0.323,0,0.593,0.269,0.593,0.593
	c0,0.323-0.269,0.593-0.593,0.593C11.347,11.328,11.078,11.059,11.078,10.736z M8.982,12.85c0-0.323,0.269-0.593,0.593-0.593
	c0.323,0,0.593,0.269,0.593,0.593s-0.269,0.593-0.593,0.593C9.251,13.442,8.982,13.173,8.982,12.85z M6.963,15.196
	c0-0.3,0.252-0.553,0.553-0.553s0.553,0.252,0.553,0.553c0,0.3-0.252,0.553-0.553,0.553S6.963,15.497,6.963,15.196z M19.706,10.762
	c0-0.332,0.275-0.607,0.607-0.607s0.607,0.275,0.607,0.607s-0.275,0.607-0.607,0.607S19.706,11.094,19.706,10.762z M22.707,12.69
	c0,0.319-0.265,0.584-0.584,0.584s-0.584-0.265-0.584-0.584s0.265-0.584,0.584-0.584S22.707,12.37,22.707,12.69z M23.631,14.899
	c0-0.313,0.261-0.574,0.574-0.574c0.313,0,0.574,0.261,0.574,0.574s-0.261,0.574-0.574,0.574
	C23.891,15.473,23.631,15.212,23.631,14.899z M10.212,17.356c0,0.319-0.265,0.584-0.584,0.584s-0.584-0.265-0.584-0.584
	s0.265-0.584,0.584-0.584S10.212,17.037,10.212,17.356z M22.879,17.33c0,0.328-0.275,0.603-0.603,0.603
	c-0.328,0-0.603-0.275-0.603-0.603s0.275-0.603,0.603-0.603C22.603,16.727,22.879,17.002,22.879,17.33z M19.646,14.796
	c0-0.321,0.269-0.59,0.59-0.59s0.59,0.269,0.59,0.59s-0.269,0.59-0.59,0.59S19.646,15.118,19.646,14.796z M10.914,14.945
	c0-0.323,0.269-0.593,0.593-0.593c0.323,0,0.593,0.269,0.593,0.593c0,0.323-0.269,0.593-0.593,0.593
	C11.183,15.537,10.914,15.268,10.914,14.945z M9.041,8.552c0-0.319,0.267-0.586,0.586-0.586s0.586,0.267,0.586,0.586
	S9.947,9.138,9.628,9.138S9.041,8.871,9.041,8.552z M21.473,8.671c0-0.328,0.273-0.601,0.601-0.601c0.328,0,0.601,0.273,0.601,0.601
	s-0.273,0.601-0.601,0.601C21.746,9.272,21.473,8.998,21.473,8.671z M24.427,18.36c0.342,0,0.626,0.284,0.626,0.626
	s-0.284,0.626-0.626,0.626s-0.626-0.284-0.626-0.626S24.084,18.36,24.427,18.36z M8.172,19.316c0,0.319-0.267,0.586-0.586,0.586
	s-0.586-0.267-0.586-0.586s0.267-0.586,0.586-0.586S8.172,18.997,8.172,19.316z"/>
</svg>