<?xml version="1.0" encoding="utf-8"?>
<!-- Generator: Adobe Illustrator 21.1.0, SVG Export Plug-In . SVG Version: 6.00 Build 0)  -->
<svg version="1.1" id="designs" xmlns="http://www.w3.org/2000/svg" xmlns:xlink="http://www.w3.org/1999/xlink" x="0px" y="0px"
	 width="32px" height="32px" viewBox="0 0 32 32" style="enable-background:new 0 0 32 32;" xml:space="preserve">
<style type="text/css">
	.sketchy_een{fill:#111918;}
</style>
<path class="sketchy_een" d="M28.958,6.446c0.309-0.429,0.62-0.858,0.921-1.292c0.261-0.375,0.071-0.928-0.3-1.146
	c-0.053-0.031-0.11-0.052-0.168-0.071c-0.472-0.417-0.954-0.823-1.44-1.225c-0.165-0.135-0.33-0.227-0.551-0.227
	c-0.029,0-0.055,0.014-0.084,0.017c-0.016-0.001-0.033-0.007-0.049-0.007c-0.333,0-0.653,0.179-0.847,0.478
	c-0.173,0.266-0.349,0.531-0.525,0.795c-0.032,0.047-0.064,0.095-0.097,0.142c-0.059-0.032-0.112-0.074-0.174-0.103
	c-0.328-0.154-0.668-0.268-1.013-0.371c-0.291-0.088-0.595-0.156-0.895-0.201c-0.132-0.019-0.258-0.032-0.387-0.032
	c-0.049,0-0.097,0.002-0.147,0.006c-0.219,0.019-0.422,0.071-0.628,0.144c-0.201,0.069-0.396,0.159-0.591,0.246
	c-0.527,0.236-1.028,0.55-1.512,0.865c-0.272,0.176-0.535,0.364-0.801,0.548c-0.202,0.139-0.403,0.28-0.621,0.388
	c-0.093,0.032-0.186,0.059-0.281,0.09c-0.156,0.052-0.343,0.127-0.456,0.257c-0.152,0.171-0.268,0.377-0.253,0.615
	c0.029,0.434,0.313,0.719,0.664,0.931c-0.359,0.393-0.724,0.781-1.113,1.144c-0.54,0.507-1.093,1.002-1.663,1.475
	c-0.405,0.302-0.827,0.569-1.268,0.817c-0.46,0.259-0.94,0.478-1.416,0.699c-1.013,0.47-2.038,0.918-3.065,1.362
	c-0.645,0.266-1.294,0.522-1.952,0.75c-0.773,0.27-1.527,0.589-2.221,1.026c-0.36,0.227-0.698,0.49-1.028,0.758
	c-0.279,0.227-0.544,0.488-0.769,0.769c-0.518,0.653-0.945,1.364-1.375,2.076c-0.21,0.347-0.39,0.692-0.525,1.077
	c-0.128,0.364-0.204,0.735-0.261,1.116c-0.118,0.837-0.077,1.705,0.126,2.525c0.199,0.803,0.486,1.57,0.829,2.322
	c0.075,0.163,0.143,0.332,0.227,0.491c0.088,0.163,0.188,0.315,0.293,0.467c0.096,0.137,0.201,0.268,0.3,0.403
	c0.131,0.186,0.266,0.373,0.422,0.54c0.244,0.265,0.49,0.529,0.763,0.762c0.323,0.276,0.703,0.469,1.077,0.664
	c0.356,0.184,0.733,0.319,1.109,0.458c0.148,0.054,0.296,0.118,0.45,0.161c0.182,0.051,0.368,0.096,0.553,0.141
	c0.392,0.092,0.792,0.141,1.193,0.169c0.358,0.026,0.716,0.051,1.075,0.049c0.825-0.006,1.643-0.113,2.44-0.321
	c0.78-0.203,1.532-0.499,2.273-0.811c0.369-0.156,0.737-0.311,1.09-0.5c0.298-0.159,0.578-0.356,0.859-0.542
	c0.543-0.361,1.085-0.724,1.606-1.12c0.644-0.502,1.259-1.041,1.849-1.602c0.553-0.525,1.065-1.095,1.57-1.667
	c0.27-0.308,0.505-0.649,0.75-0.975c0.24-0.317,0.486-0.632,0.715-0.957c0.219-0.309,0.418-0.632,0.621-0.951
	c0.197-0.308,0.39-0.619,0.57-0.938c0.508-0.898,0.957-1.831,1.409-2.757c0.219-0.45,0.426-0.91,0.632-1.365
	c0.112-0.245,0.225-0.489,0.336-0.734c0.176,0.057,0.359,0.092,0.541,0.092c0.234,0,0.493-0.013,0.692-0.152
	c0.137-0.094,0.223-0.173,0.309-0.319c0.088-0.15,0.101-0.283,0.118-0.454c0.009-0.09-0.009-0.182-0.028-0.273
	c-0.001-0.068,0.002-0.136,0.007-0.204c0.051-0.276,0.142-0.535,0.248-0.797c0.187-0.438,0.373-0.876,0.525-1.328
	c0.165-0.491,0.362-0.998,0.364-1.523c0.002-0.454-0.086-0.917-0.236-1.347C29.553,7.422,29.313,6.901,28.958,6.446z M26.03,13.348
	c0.007-0.017,0.014-0.033,0.021-0.05l0,0c-0.002,0.004-0.003,0.008-0.005,0.011C26.041,13.323,26.036,13.336,26.03,13.348z
	 M28.21,10.25c-0.086,0.273-0.184,0.539-0.291,0.804c-0.173,0.397-0.365,0.791-0.498,1.203c-0.018,0.053-0.033,0.108-0.046,0.163
	c-0.11-0.182-0.206-0.371-0.294-0.564c-0.043-0.111-0.08-0.222-0.105-0.34c-0.012-0.056-0.021-0.112-0.03-0.168
	c-0.022-0.182-0.037-0.362-0.057-0.544c-0.024-0.223-0.073-0.409-0.238-0.574c-0.152-0.152-0.36-0.238-0.574-0.238
	c-0.216,0-0.424,0.086-0.576,0.238c-0.216,0.218-0.263,0.499-0.208,0.79c0.034,0.18,0.069,0.358,0.094,0.538
	c0.017,0.128,0.036,0.255,0.058,0.381c0.041,0.234,0.148,0.454,0.246,0.67c0.107,0.238,0.224,0.467,0.359,0.689
	c-0.008,0.019-0.015,0.039-0.023,0.058c-0.274,0.641-0.577,1.272-0.855,1.912c-0.3,0.69-0.638,1.365-0.975,2.037
	c-0.169,0.338-0.338,0.673-0.523,1.002c-0.189,0.336-0.39,0.666-0.593,0.994c-0.386,0.628-0.778,1.247-1.215,1.842
	c-0.163,0.222-0.324,0.444-0.487,0.665c-0.956,1.193-2.083,2.247-3.272,3.203c-0.451,0.338-0.917,0.652-1.396,0.949
	c-0.27,0.169-0.542,0.336-0.812,0.503c-0.248,0.152-0.509,0.276-0.774,0.396c-0.561,0.234-1.126,0.474-1.705,0.661
	c-0.62,0.199-1.241,0.369-1.884,0.475c-0.426,0.046-0.849,0.08-1.276,0.078c-0.389,0-0.779-0.037-1.166-0.082
	c-0.277-0.049-0.545-0.121-0.819-0.197c-0.238-0.067-0.465-0.155-0.692-0.248c0.015,0.006,0.03,0.013,0.045,0.019
	c-0.018-0.008-0.036-0.015-0.054-0.023c-0.041-0.017-0.083-0.034-0.124-0.052c0.038,0.016,0.075,0.031,0.113,0.047
	c-0.53-0.229-1.052-0.493-1.527-0.823c-0.336-0.283-0.647-0.6-0.921-0.942c-0.05-0.066-0.101-0.131-0.151-0.197
	c-0.153-0.201-0.298-0.407-0.421-0.63c-0.142-0.259-0.263-0.531-0.38-0.803c-0.276-0.682-0.512-1.373-0.632-2.097
	c-0.023-0.235-0.041-0.467-0.047-0.702c-0.005-0.215,0.015-0.432,0.04-0.647c0.036-0.212,0.072-0.427,0.131-0.634
	c0.058-0.197,0.126-0.389,0.198-0.581c0.182-0.381,0.413-0.737,0.633-1.096c0.239-0.388,0.481-0.772,0.74-1.148
	c0.127-0.16,0.258-0.319,0.404-0.465c0.186-0.188,0.383-0.359,0.586-0.528c0.245-0.181,0.494-0.351,0.752-0.515
	c0.274-0.173,0.569-0.31,0.862-0.444c0.668-0.267,1.355-0.482,2.024-0.749c0.778-0.309,1.547-0.64,2.315-0.975
	c1.405-0.615,2.849-1.17,4.147-1.999c0.409-0.261,0.784-0.581,1.15-0.898c0.317-0.274,0.634-0.548,0.951-0.823
	c0.688-0.595,1.323-1.245,1.936-1.917c0.094,0.023,0.187,0.049,0.284,0.07c0.169,0.036,0.334,0.077,0.501,0.114
	c0.159,0.035,0.321,0.057,0.484,0.077c0.028,0.255,0.055,0.509,0.092,0.761c0.047,0.328,0.15,0.645,0.231,0.966
	c0.099,0.386,0.203,0.782,0.499,1.069c0.156,0.15,0.313,0.216,0.508,0.296c0.152,0.063,0.303,0.06,0.456,0.033
	c0.058,0.008,0.115,0.016,0.173,0.022c0.201,0.019,0.43-0.096,0.566-0.234c0.148-0.148,0.234-0.354,0.234-0.565
	c0-0.212-0.086-0.416-0.234-0.567c-0.178-0.177-0.396-0.237-0.629-0.223c-0.144-0.392-0.259-0.804-0.329-1.214
	c-0.017-0.145-0.035-0.29-0.052-0.433c-0.034-0.287-0.056-0.565-0.199-0.822c-0.291-0.517-0.924-0.492-1.443-0.55
	c-0.394-0.058-0.79-0.129-1.169-0.251c0.203-0.153,0.4-0.315,0.603-0.466c0.582-0.432,1.186-0.826,1.845-1.126
	c0.169-0.063,0.336-0.123,0.512-0.162c0.061-0.002,0.122-0.002,0.183,0.001c0.417,0.078,0.827,0.212,1.221,0.368
	c0.193,0.093,0.375,0.205,0.549,0.33c0.116,0.1,0.224,0.205,0.334,0.312c0.315,0.313,0.838,0.317,1.154,0
	c0.019-0.02,0.027-0.046,0.044-0.067c0.127-0.076,0.241-0.172,0.316-0.308c0.224-0.277,0.424-0.573,0.631-0.864
	c0.128,0.101,0.255,0.203,0.383,0.304c-0.273,0.404-0.543,0.81-0.83,1.205c-0.018,0.022-0.037,0.045-0.056,0.068
	c-0.146,0.173-0.242,0.353-0.242,0.585c0,0.219,0.088,0.431,0.242,0.587c0.136,0.134,0.318,0.207,0.507,0.226
	c0.015,0.017,0.031,0.034,0.046,0.051c0.191,0.269,0.348,0.557,0.482,0.858c0.085,0.227,0.148,0.451,0.194,0.689
	c0.01,0.112,0.016,0.224,0.014,0.335C28.398,9.688,28.301,9.97,28.21,10.25z M7.573,27.541c0.003,0.001,0.006,0.003,0.009,0.004
	c-0.007-0.003-0.014-0.006-0.021-0.009C7.565,27.538,7.569,27.539,7.573,27.541z M18.749,26.223c0.001,0,0.001-0.001,0.002-0.001
	c0.001,0,0.002-0.001,0.002-0.001C18.751,26.221,18.75,26.222,18.749,26.223z M15.155,28.401c0.013-0.006,0.026-0.013,0.04-0.018
	c0.019-0.008,0.039-0.015,0.059-0.024C15.22,28.373,15.188,28.387,15.155,28.401z M21.7,19.402
	c-0.995,1.419-2.204,2.699-3.569,3.762c-0.656,0.506-1.331,0.992-2.026,1.441c-0.325,0.21-0.66,0.4-0.996,0.591
	c-0.323,0.186-0.632,0.388-0.949,0.583c-0.364,0.223-0.859,0.081-1.071-0.281c-0.107-0.18-0.135-0.401-0.079-0.602
	c0.049-0.178,0.184-0.39,0.36-0.469c0.294-0.131,0.572-0.304,0.852-0.465c0.294-0.169,0.589-0.339,0.876-0.52
	c0.544-0.344,1.073-0.713,1.586-1.103c0.546-0.425,1.085-0.858,1.582-1.342c0.538-0.522,1.039-1.08,1.505-1.666
	c0.182-0.245,0.36-0.493,0.532-0.746c0.122-0.178,0.27-0.311,0.484-0.371c0.07-0.019,0.142-0.028,0.214-0.028
	c0.143,0,0.286,0.037,0.409,0.111C21.766,18.505,21.954,19.042,21.7,19.402z M18.13,23.165c0,0,0.001-0.001,0.001-0.001
	c0,0,0.001,0,0.001-0.001C18.132,23.163,18.131,23.164,18.13,23.165z M17.975,23.284c0.052-0.041,0.103-0.08,0.155-0.12
	c-0.002,0.001-0.003,0.003-0.005,0.004C18.076,23.207,18.026,23.246,17.975,23.284z M18.08,23.204
	c0.015-0.012,0.03-0.023,0.045-0.035c0.037-0.029,0.075-0.058,0.112-0.087C18.185,23.123,18.133,23.162,18.08,23.204z"/>
</svg>