<?xml version="1.0" encoding="utf-8"?>
<!-- Generator: Adobe Illustrator 21.1.0, SVG Export Plug-In . SVG Version: 6.00 Build 0)  -->
<svg version="1.1" id="designs" xmlns="http://www.w3.org/2000/svg" xmlns:xlink="http://www.w3.org/1999/xlink" x="0px" y="0px"
	 width="32px" height="32px" viewBox="0 0 32 32" style="enable-background:new 0 0 32 32;" xml:space="preserve">
<style type="text/css">
	.sketchy_een{fill:#111918;}
</style>
<path class="sketchy_een" d="M19.13,30c-0.264,0-0.526-0.007-0.787-0.018l-1.349-0.052c-0.295-0.015-0.593-0.029-0.888-0.029
	c-0.004,0-0.622,0.013-0.622,0.013c-0.418,0-0.777-0.121-1.094-0.36c-0.279-0.212-0.472-0.433-0.59-0.676
	c-0.084-0.175-0.161-0.357-0.223-0.545l-0.031-0.096l-0.095-0.065c-0.243,0.347-0.576,0.783-1.008,1.083
	c-0.29,0.203-0.555,0.338-0.786,0.4c-0.143,0.039-0.29,0.061-0.438,0.074c-0.039,0.003-0.076,0.005-0.114,0.005
	c-0.116,0-0.227-0.015-0.35-0.031c-0.283-0.038-0.565-0.141-0.794-0.29c-0.188-0.12-0.4-0.268-0.555-0.459
	c-0.21-0.256-0.349-0.538-0.401-0.813c-0.049-0.248-0.085-0.5-0.098-0.751c-0.028-0.511,0.075-1.016,0.175-1.505
	c0.053-0.253,0.117-0.503,0.181-0.753l0.031-0.121c-0.027,0-0.055-0.001-0.082-0.001c-0.262,0-0.482,0.041-0.705,0.064
	c-0.26,0.027-0.519,0.043-0.778,0.043c-0.434,0-0.826-0.046-1.198-0.14c-0.254-0.066-0.588-0.159-0.909-0.292
	c-0.362-0.152-0.718-0.302-1.021-0.532c-0.279-0.213-0.571-0.444-0.817-0.728c-0.298-0.349-0.602-0.727-0.744-1.176
	c-0.109-0.339-0.158-0.662-0.146-0.961c0.011-0.267,0.053-0.534,0.094-0.799c0.082-0.522,0.208-0.934,0.395-1.297
	c0.426-0.815,1.167-1.434,1.903-1.982c0.367-0.271,0.76-0.454,1.096-0.597l0.104-0.046c0.11-0.049,0.228-0.103,0.342-0.131
	l-0.029-0.166c-0.166-0.219-0.331-0.438-0.477-0.673c-0.227-0.367-0.444-0.74-0.66-1.115c-0.516-0.894-0.885-1.599-1.194-2.286
	c-0.161-0.36-0.303-0.755-0.446-1.245c-0.115-0.399-0.223-0.775-0.304-1.152c-0.14-0.65-0.228-1.325-0.314-1.977L3.323,7.23
	c-0.129-0.933-0.23-1.842-0.05-2.72C3.326,4.252,3.4,3.946,3.548,3.641c0.133-0.279,0.328-0.52,0.516-0.742
	c0.27-0.323,0.65-0.561,1.068-0.671C5.32,2.176,5.507,2.132,5.697,2.098c0.181-0.031,0.379-0.061,0.57-0.061
	c0.044,0,0.087,0.001,0.13,0.005c0.254,0.021,0.51,0.053,0.76,0.102c0.57,0.111,1.067,0.526,1.505,0.893
	c0.316,0.267,0.604,0.548,0.857,0.836c0.226-0.195,0.375-0.388,0.548-0.565c0.158-0.158,0.319-0.313,0.488-0.46
	c0.109-0.096,0.225-0.186,0.343-0.27c0.17-0.124,0.364-0.206,0.548-0.276c0.197-0.075,0.397-0.148,0.601-0.203
	c0.173-0.047,0.4-0.1,0.62-0.1c0.042,0,0.084,0.002,0.125,0.007c0.236,0.021,0.372,0.032,0.502,0.069
	c0.146,0.041,0.277,0.096,0.418,0.155c0.713,0.306,1.219,0.842,1.58,1.276c0.114,0.134,0.224,0.28,0.324,0.424l0.071,0.099
	c0.068,0.095,0.137,0.191,0.187,0.294c0.142,0.292,0.317,0.677,0.409,1.063c0.147,0.612,0.191,1.253,0.215,1.798
	c0.042,0.89,0.016,1.785-0.075,2.657c-0.055,0.538-0.14,1.069-0.231,1.6c-0.063,0.361-0.152,0.834-0.287,1.292
	c-0.08,0.271-0.179,0.537-0.278,0.802l-0.157,0.43c-0.094,0.272-0.18,0.546-0.267,0.82l-0.151,0.473
	c-0.045,0.138-0.215,0.614-0.215,0.614c0.55-0.065,1.031-0.188,1.523-0.268c0.452-0.074,0.904-0.121,1.357-0.159
	c0.135-0.011,0.268-0.017,0.399-0.017c0.292,0,0.593,0.026,0.921,0.081c0.826,0.134,1.607,0.392,2.322,0.766
	c0.7,0.369,1.393,0.84,2.119,1.44c0.279,0.231,0.601,0.516,0.868,0.878c0.229,0.31,0.423,0.644,0.575,0.994
	c0.212,0.48,0.357,0.891,0.456,1.296c0.123,0.496,0.195,0.942,0.221,1.365l0.005,0.285l0.101-0.073
	c0.047-0.033,0.093-0.067,0.144-0.092c0.257-0.123,0.524-0.214,0.816-0.275c0.172-0.036,0.398-0.078,0.615-0.078
	c0.138,0,0.26,0.016,0.372,0.049c0.502,0.144,0.905,0.464,1.105,0.876c0.197,0.404,0.308,0.813,0.338,1.251
	c0.041,0.579-0.014,1.065-0.168,1.486c-0.141,0.39-0.358,0.762-0.703,1.206c-0.097,0.122-0.195,0.244-0.306,0.356
	c-0.133,0.136-0.27,0.27-0.413,0.402c-0.181,0.167-0.398,0.356-0.62,0.492c-0.417,0.259-0.919,0.444-1.454,0.537
	c-0.204,0.036-0.41,0.062-0.614,0.085c-0.093,0.011-0.187,0.017-0.28,0.017c-0.324,0-0.62-0.072-0.876-0.214l-0.035-0.025
	l-0.079-0.013c-0.149,0.155-0.307,0.303-0.477,0.44c-0.444,0.359-0.8,0.571-1.192,0.71c-0.363,0.13-0.754,0.179-1.132,0.226
	C20.185,29.971,19.688,30,19.13,30z M15.079,26.253c-0.12,0.025-0.229,0.058-0.337,0.099c-0.082,0.041-0.153,0.087-0.224,0.134
	c0.314,0.241,0.47,0.578,0.392,0.926c-0.013,0.112-0.012,0.173-0.008,0.235c0.032,0.144,0.071,0.276,0.119,0.407
	c0.042,0.088,0.086,0.168,0.136,0.246c0.096,0.081,0.142,0.11,0.189,0.137c0.28,0.032,0.483,0.037,0.687,0.042
	c0.244,0.006,0.487,0.012,0.73,0.027c0.398,0.027,0.795,0.044,1.193,0.057c0.347,0.012,0.693,0.022,1.039,0.022
	c0.524,0,0.983-0.024,1.401-0.071c0.337-0.055,0.638-0.109,0.934-0.215c0.204-0.096,0.389-0.209,0.565-0.339
	c0.157-0.125,0.309-0.255,0.446-0.397c0.12-0.123,0.23-0.254,0.338-0.389c0.312-0.438,0.582-0.92,0.83-1.476
	c0.126-0.335,0.229-0.607,0.303-0.884c0.068-0.254,0.12-0.507,0.163-0.765c0.073-0.712,0.074-1.42,0.005-2.107
	c-0.081-0.51-0.216-1.013-0.399-1.5c-0.171-0.374-0.347-0.689-0.542-0.967c-0.365-0.414-0.781-0.761-1.104-1.018
	c-0.63-0.466-1.231-0.835-1.839-1.131c-0.529-0.206-1.039-0.348-1.518-0.423c-0.19-0.022-0.377-0.03-0.565-0.03
	c-0.385,0-0.769,0.036-1.156,0.074c-0.574,0.084-1.149,0.203-1.709,0.352c-0.352,0.095-0.698,0.204-1.042,0.32l-0.077,0.108
	c-0.155,0.258-0.44,0.419-0.741,0.419c-0.148,0-0.293-0.04-0.42-0.114c-0.028-0.017-0.051-0.041-0.076-0.067
	c-0.273-0.141-0.434-0.313-0.488-0.51c-0.086-0.313,0.058-0.624,0.366-0.793l0.012-0.007l0.05-0.086
	c0.072-0.122,0.143-0.243,0.204-0.37c0.216-0.554,0.391-1.117,0.565-1.68c0.143-0.459,0.285-0.918,0.449-1.37
	c0.223-0.614,0.378-1.136,0.488-1.642c0.106-0.498,0.187-1.001,0.26-1.503c0.134-1.309,0.134-2.563,0.001-3.731
	c-0.059-0.327-0.148-0.639-0.272-0.958c-0.117-0.237-0.261-0.448-0.414-0.658c-0.232-0.279-0.425-0.48-0.629-0.653
	c-0.129-0.088-0.259-0.159-0.395-0.224c-0.061-0.02-0.114-0.036-0.17-0.049L12.66,3.722c-0.288,0.049-0.497,0.121-0.707,0.197
	c-0.074,0.036-0.139,0.074-0.203,0.117c-0.278,0.229-0.53,0.476-0.752,0.738c-0.195,0.281-0.342,0.583-0.488,0.894
	c-0.173,0.451-0.281,0.824-0.34,1.179c-0.063,0.375-0.115,0.753-0.167,1.13c-0.09,0.676-0.169,1.277-0.174,1.889
	c-0.005,0.621,0.023,1.25,0.084,1.867c0.123,0.828,0.315,1.697,0.57,2.585c0.218,0.77,0.506,1.532,0.785,2.269l0.182,0.485
	c0.06,0.159,0.013,0.35-0.037,0.482c0.028,0.173,0.029,0.297-0.001,0.405c-0.099,0.355-0.422,0.594-0.804,0.594
	c-0.068,0-0.136-0.008-0.203-0.024c-0.876-0.204-1.59-0.346-2.249-0.447c-0.168-0.017-0.333-0.026-0.499-0.026
	c-0.089,0-0.177,0.002-0.267,0.008c-0.138,0.031-0.262,0.077-0.387,0.127c-0.3,0.138-0.584,0.298-0.864,0.489l-0.006-0.008
	l-0.33,0.256l0.006,0.002c-0.298,0.247-0.536,0.479-0.74,0.721c-0.086,0.127-0.159,0.253-0.224,0.386
	c-0.076,0.231-0.127,0.458-0.166,0.69c-0.024,0.229-0.038,0.454-0.025,0.68c0.02,0.087,0.042,0.164,0.068,0.24
	c0.049,0.093,0.099,0.173,0.154,0.253c0.196,0.236,0.402,0.441,0.632,0.632c0.194,0.135,0.393,0.246,0.603,0.343
	c0.435,0.168,0.837,0.282,1.232,0.348c0.141,0.012,0.278,0.017,0.415,0.017c0.242,0,0.484-0.015,0.726-0.037
	c0.308-0.047,0.706-0.117,1.085-0.252c0.225-0.101,0.376-0.169,0.531-0.227c0.067-0.025,0.143-0.039,0.226-0.039
	c0.114,0,0.237,0.025,0.354,0.07l0.13,0.019c0.22,0.06,0.418,0.225,0.531,0.442c0.1,0.192,0.119,0.398,0.054,0.583
	c-0.173,0.492-0.369,1.051-0.507,1.612c-0.105,0.422-0.184,0.854-0.248,1.285c-0.038,0.339-0.044,0.651-0.017,0.956
	c0.015,0.083,0.032,0.159,0.056,0.235l0.1,0.106c0.052,0.035,0.099,0.063,0.148,0.089l0.139,0.037l0.167-0.023
	c0.096-0.049,0.189-0.104,0.278-0.164c0.145-0.133,0.274-0.268,0.396-0.411c0.212-0.295,0.396-0.623,0.566-1.006
	c0.116-0.295,0.219-0.593,0.318-0.892c0.126-0.375,0.221-0.655,0.288-0.945c0.084-0.363,0.437-0.626,0.84-0.626
	c0.074,0,0.148,0.01,0.218,0.029c0.364,0.1,0.629,0.466,0.617,0.851c0.058,0.003,0.113,0.004,0.166,0.004
	c0.178,0,0.33-0.014,0.483-0.014c0.053,0,0.106,0.001,0.159,0.005c0.185,0.013,0.369,0.03,0.555,0.053l0.104,0.013l-0.014-0.424
	c-0.006-0.157-0.011-0.317,0-0.472c0.016-0.254,0.042-0.545,0.141-0.794c0.092-0.238,0.159-0.412,0.255-0.564
	c0.057-0.091,0.118-0.179,0.18-0.265c0.303-0.419,0.592-0.711,0.909-0.917c0.182-0.118,0.378-0.233,0.582-0.279
	c0.18-0.042,0.369-0.068,0.555-0.083c0.065-0.005,0.127-0.007,0.191-0.007c0.348,0,0.711,0.072,1.143,0.225
	c0.225,0.08,0.368,0.19,0.465,0.355c0.103,0.179,0.131,0.395,0.076,0.594c-0.087,0.322-0.411,0.574-0.737,0.574
	c-0.072,0-0.14-0.012-0.206-0.036c-0.197-0.071-0.392-0.137-0.595-0.186c-0.07-0.005-0.129-0.007-0.19-0.007
	c-0.082,0-0.164,0.003-0.246,0.01l-0.113,0.028c-0.074,0.04-0.136,0.077-0.197,0.118c-0.134,0.116-0.25,0.237-0.361,0.368
	c-0.096,0.133-0.182,0.264-0.257,0.408c-0.042,0.115-0.075,0.224-0.098,0.339c-0.021,0.237-0.012,0.466,0.001,0.7l0.017,0.363
	l0.012,0.131c0.009,0.082,0.018,0.166,0.013,0.247c-0.007,0.113-0.023,0.227-0.044,0.338c-0.029,0.072-0.064,0.15-0.1,0.227
	c-0.05,0.104-0.16,0.209-0.337,0.322c-0.129,0.084-0.291,0.125-0.492,0.125c-0.137,0-0.274-0.019-0.401-0.041L15.78,26.28
	c-0.174-0.019-0.343-0.034-0.513-0.034C15.205,26.246,15.141,26.249,15.079,26.253z M27.095,23.457
	c-0.137,0.018-0.319,0.047-0.443,0.109c-0.065,0.032-0.121,0.065-0.175,0.1c-0.257,0.221-0.492,0.457-0.726,0.694
	c-0.069,0.068-0.148,0.122-0.238,0.158l-0.043,0.147c-0.004,0.041-0.008,0.081-0.015,0.122c-0.065,0.377-0.2,0.753-0.319,1.085
	c-0.152,0.422-0.332,0.823-0.537,1.192l-0.041,0.074c0,0,0.066,0.036,0.067,0.036c0.136,0,0.247-0.003,0.358-0.015
	c0.302-0.054,0.576-0.128,0.844-0.225c0.144-0.07,0.274-0.147,0.403-0.235c0.354-0.3,0.657-0.604,0.929-0.931
	c0.129-0.185,0.238-0.371,0.334-0.569c0.049-0.134,0.084-0.264,0.111-0.397c0.02-0.244,0.023-0.48,0.002-0.719
	c-0.025-0.137-0.06-0.264-0.104-0.39C27.42,23.531,27.288,23.435,27.095,23.457z M5.052,8.544c0.171,1.184,0.456,2.27,0.847,3.227
	c0.535,1.176,1.227,2.354,2.116,3.604c0.175,0.223,0.351,0.444,0.531,0.66c0.118,0.141,0.184,0.284,0.209,0.451l0.34,0.105
	l0.373,0.079l0.146-0.047l-0.104-0.301c-0.161-0.465-0.322-0.929-0.463-1.4c-0.221-0.746-0.375-1.528-0.524-2.284
	c-0.177-0.908-0.27-1.774-0.281-2.609C8.238,9.661,8.238,9.226,8.284,8.792c0.04-0.385,0.087-0.767,0.135-1.15l0.02-0.162
	c0.059-0.477,0.118-0.954,0.214-1.426c0.045-0.22,0.113-0.434,0.188-0.644l0.01-0.027l-0.076-0.09
	C8.612,5.103,8.45,4.913,8.281,4.729C8.042,4.47,7.775,4.246,7.499,4.02C7.313,3.882,7.125,3.755,6.919,3.652
	C6.782,3.608,6.646,3.585,6.511,3.564C6.43,3.556,6.353,3.552,6.276,3.552L6.117,3.557C5.883,3.598,5.658,3.656,5.44,3.732
	L5.332,3.795C5.25,3.873,5.181,3.948,5.114,4.025C5.029,4.148,4.955,4.268,4.891,4.397c-0.07,0.205-0.113,0.41-0.148,0.618
	C4.68,5.735,4.76,6.438,4.855,7.155l0.163,1.148l0-0.001L5.052,8.544z M7.394,20.934c-0.331,0-0.612-0.28-0.612-0.611
	s0.28-0.612,0.612-0.612c0.331,0,0.612,0.28,0.612,0.612S7.725,20.934,7.394,20.934z"/>
</svg>