<?xml version="1.0" encoding="utf-8"?>
<!-- Generator: Adobe Illustrator 21.1.0, SVG Export Plug-In . SVG Version: 6.00 Build 0)  -->
<svg version="1.1" id="designs" xmlns="http://www.w3.org/2000/svg" xmlns:xlink="http://www.w3.org/1999/xlink" x="0px" y="0px"
	 width="32px" height="32px" viewBox="0 0 32 32" style="enable-background:new 0 0 32 32;" xml:space="preserve">
<style type="text/css">
	.sketchy_een{fill:#111918;}
</style>
<path class="sketchy_een" d="M15.051,29.582c-0.265,0-0.529-0.009-0.789-0.041c-0.505-0.063-1.042-0.137-1.561-0.276
	c-0.394-0.11-0.808-0.254-1.298-0.452c-0.498-0.2-0.9-0.389-1.263-0.594l-0.232-0.131c-0.199-0.111-0.397-0.223-0.593-0.34
	c-0.418,0.064-0.759,0.165-1.097,0.267L6.559,28.51c-0.296,0.092-0.593,0.187-0.896,0.242c-0.499,0.093-0.937,0.176-1.375,0.235
	c-0.139,0.018-0.277,0.03-0.415,0.03c-0.156,0-0.298-0.016-0.434-0.047c-0.388-0.087-0.697-0.533-0.651-0.937
	c0.032-0.283,0.099-0.549,0.168-0.821l0.355-1.391c0.072-0.282,0.145-0.565,0.239-0.84l0.118-0.327
	c0.103-0.282,0.206-0.562,0.271-0.859l0.225-1c-0.251-0.418-0.518-0.813-0.704-1.241c-0.141-0.323-0.271-0.65-0.402-0.978
	l-0.245-0.602c-0.153-0.356-0.313-0.723-0.416-1.097c-0.128-0.454-0.216-0.883-0.27-1.311c-0.093-0.743-0.133-1.559-0.126-2.57
	c0.002-0.456,0.053-0.905,0.13-1.438c0.065-0.448,0.119-0.813,0.207-1.17c0.23-0.931,0.468-1.74,0.729-2.471
	c0.144-0.4,0.292-0.815,0.526-1.199c0.3-0.492,0.573-0.887,0.859-1.243c0.632-0.784,1.336-1.453,2.09-1.988
	c0.215-0.153,0.435-0.3,0.655-0.447l0.403-0.27c0.384-0.264,0.78-0.499,1.183-0.73l0.186-0.106c0.305-0.175,0.611-0.349,0.933-0.492
	c0.388-0.17,0.802-0.343,1.206-0.45c0.37-0.097,0.747-0.184,1.121-0.267c0.452-0.1,0.937-0.2,1.422-0.249
	c0.342-0.035,0.687-0.041,1.032-0.047l0.662-0.011c0.34,0,0.679,0.013,1.02,0.031c0.474,0.027,0.94,0.053,1.392,0.135
	c0.476,0.086,0.884,0.158,1.287,0.265c0.887,0.236,1.746,0.54,2.55,0.902c0.721,0.325,1.486,0.719,2.342,1.208
	c0.35,0.201,0.708,0.442,1.097,0.737c0.417,0.319,0.792,0.609,1.15,0.937c0.314,0.287,0.615,0.601,0.92,0.961
	c0.317,0.372,0.623,0.738,0.888,1.127c0.27,0.391,0.506,0.749,0.684,1.144c0.196,0.43,0.38,0.863,0.544,1.306
	c0.261,0.71,0.447,1.519,0.585,2.542l0.032,0.24c0.056,0.401,0.113,0.803,0.136,1.205c0.026,0.428,0.05,0.83,0,1.219
	c-0.116,0.963-0.312,1.889-0.582,2.754c-0.278,0.891-0.607,1.833-1.115,2.68c-0.203,0.336-0.417,0.664-0.63,0.991l-0.146,0.222
	c-0.258,0.394-0.524,0.786-0.818,1.155c-0.302,0.38-0.602,0.748-0.94,1.077c-0.321,0.313-0.645,0.618-0.984,0.908
	c-0.704,0.607-1.507,1.181-2.386,1.708l-0.093,0.056c-0.366,0.218-0.731,0.436-1.118,0.618c-0.43,0.2-0.906,0.361-1.374,0.466
	c-1.062,0.24-1.994,0.395-2.849,0.475c-0.434,0.041-0.865,0.074-1.298,0.086C15.396,29.578,15.223,29.582,15.051,29.582z
	 M9.465,26.061c0.191,0,0.355,0.065,0.548,0.217c0.243,0.17,0.498,0.314,0.753,0.457l0.093,0.052
	c0.26,0.148,0.521,0.291,0.794,0.416c0.444,0.182,0.888,0.341,1.341,0.485c0.458,0.148,0.927,0.228,1.283,0.281
	c0.386,0.035,0.769,0.052,1.153,0.052c0.603,0,1.243-0.04,1.901-0.12c1.02-0.157,2.1-0.355,3.115-0.731
	c0.416-0.2,0.806-0.441,1.182-0.673l0.138-0.085c0.467-0.286,0.903-0.604,1.309-0.905c0.42-0.333,0.837-0.705,1.276-1.139
	l0.167-0.164c0.166-0.162,0.332-0.325,0.483-0.5c0.167-0.2,0.331-0.399,0.494-0.601c0.351-0.48,0.672-0.973,0.99-1.47l0.105-0.164
	c0.12-0.188,0.24-0.375,0.346-0.57c0.14-0.26,0.27-0.523,0.393-0.791c0.471-1.171,0.802-2.365,0.985-3.55
	c0.065-0.672,0.044-1.396-0.065-2.286c-0.104-0.745-0.223-1.353-0.376-1.919c-0.144-0.517-0.319-1.029-0.535-1.565
	c-0.25-0.562-0.561-1.086-0.926-1.559l-0.295-0.383c-0.256-0.326-0.565-0.703-0.922-1.038c-0.319-0.301-0.652-0.586-0.997-0.856
	c-0.012-0.008-0.034-0.026-0.034-0.026c-0.268-0.198-0.54-0.385-0.822-0.557c-0.173-0.105-0.352-0.201-0.531-0.297l-0.25-0.135
	c-0.568-0.31-1.149-0.597-1.727-0.855c-0.72-0.291-1.276-0.483-1.805-0.624c-0.564-0.151-1.168-0.273-1.846-0.373
	c-0.563-0.058-1.145-0.09-1.735-0.095l-0.104-0.001c-0.233,0-0.467,0.009-0.7,0.019l-0.323,0.013
	c-0.202,0.008-0.405,0.015-0.606,0.034c-0.419,0.071-0.824,0.167-1.229,0.265l-0.644,0.148c-0.199,0.042-0.396,0.084-0.59,0.149
	c-0.225,0.073-0.45,0.152-0.673,0.24c-0.284,0.128-0.556,0.267-0.827,0.413L9.534,5.39C9.297,5.516,9.059,5.643,8.835,5.788
	C8.289,6.144,7.745,6.51,7.219,6.896C6.642,7.381,6.093,7.943,5.582,8.575C5.236,9.043,4.955,9.512,4.745,9.973
	c-0.107,0.272-0.193,0.548-0.279,0.822l-0.059,0.189C4.299,11.32,4.201,11.657,4.111,12c-0.184,0.707-0.326,1.382-0.43,2.062
	c-0.099,0.958-0.082,2.003,0.052,3.199c0.095,0.61,0.231,1.181,0.405,1.704c0.183,0.551,0.392,1.098,0.611,1.636
	c0.123,0.272,0.259,0.529,0.42,0.778c0.167,0.261,0.351,0.51,0.535,0.76l0.081,0.109c0.118,0.157,0.128,0.428,0.077,0.614
	c-0.038,0.138-0.127,0.268-0.265,0.388l-0.102,0.325c-0.076,0.295-0.152,0.591-0.231,0.884c-0.041,0.157-0.099,0.308-0.156,0.458
	l-0.096,0.262c-0.08,0.237-0.138,0.475-0.19,0.717c0,0-0.223,1.048-0.28,1.297l-0.053,0.255l0.395-0.067
	c0.19-0.03,0.382-0.062,0.568-0.112c0.44-0.12,0.875-0.26,1.305-0.409c0.253-0.09,0.513-0.159,0.773-0.229
	c0.144-0.039,0.288-0.078,0.431-0.12l0.264-0.08c0.242-0.075,0.486-0.15,0.733-0.198C9.174,26.113,9.323,26.061,9.465,26.061z
	 M14.948,22.139c-0.448,0-0.825-0.378-0.825-0.826s0.378-0.826,0.825-0.826s0.825,0.378,0.825,0.826S15.396,22.139,14.948,22.139z
	 M14.969,18.695c-0.18,0-0.36-0.075-0.492-0.205c-0.136-0.136-0.175-0.276-0.204-0.506c-0.022-0.169-0.02-0.342-0.019-0.515
	l-0.006-0.666c-0.003-0.251-0.006-0.448,0.047-0.618c0.098-0.306,0.344-0.536,0.641-0.599c0.136-0.029,0.266-0.031,0.422-0.031
	c0,0,0.001,0,0.001,0c0.285,0,0.498-0.015,0.71-0.035c0.352-0.059,0.663-0.138,0.933-0.235c0.178-0.087,0.333-0.188,0.484-0.298
	c0.256-0.213,0.502-0.47,0.778-0.813c0.096-0.133,0.186-0.264,0.258-0.406c0.043-0.115,0.074-0.22,0.097-0.328
	c0.016-0.216,0.013-0.416-0.002-0.619c-0.035-0.195-0.088-0.378-0.151-0.554c-0.036-0.072-0.071-0.13-0.108-0.186
	c-0.09-0.104-0.178-0.192-0.267-0.279c-0.069-0.069-0.28-0.293-0.28-0.293c-0.126-0.136-0.248-0.269-0.39-0.39
	c-0.223-0.164-0.439-0.294-0.665-0.403c-0.241-0.092-0.484-0.174-0.73-0.222c-0.073-0.005-0.132-0.007-0.192-0.007
	c-0.115,0-0.23,0.007-0.344,0.019c-0.397,0.068-0.714,0.147-1.001,0.246c-0.22,0.108-0.417,0.231-0.609,0.363
	c-0.262,0.214-0.461,0.407-0.632,0.61c-0.116,0.166-0.211,0.334-0.296,0.509c-0.125,0.327-0.222,0.655-0.319,0.984l-0.056,0.188
	c-0.1,0.33-0.404,0.561-0.74,0.561c-0.066,0-0.134-0.009-0.199-0.028c-0.197-0.055-0.369-0.195-0.472-0.383
	c-0.096-0.177-0.118-0.373-0.062-0.551c0.073-0.239,0.154-0.471,0.238-0.705c0.144-0.4,0.292-0.815,0.519-1.179
	c0.227-0.357,0.503-0.673,0.797-0.911c0.307-0.25,0.668-0.531,1.072-0.706c0.224-0.096,0.468-0.194,0.734-0.254
	c0.196-0.044,0.392-0.081,0.591-0.111c0.297-0.044,0.581-0.088,0.864-0.088c0.199,0,0.377,0.023,0.544,0.068
	c0.434,0.117,0.842,0.269,1.213,0.45c0.338,0.164,0.638,0.397,0.862,0.582c0.131,0.107,0.248,0.23,0.366,0.353
	c0.08,0.083,0.159,0.166,0.243,0.244c0.235,0.222,0.496,0.491,0.637,0.801c0.191,0.421,0.302,0.875,0.331,1.349
	c0.029,0.43-0.03,0.85-0.164,1.183c-0.079,0.198-0.159,0.402-0.284,0.577c-0.134,0.189-0.275,0.373-0.426,0.548
	c-0.318,0.364-0.603,0.637-0.898,0.86c-0.306,0.232-0.633,0.413-1,0.553c-0.278,0.105-0.61,0.186-0.987,0.24
	c-0.211,0.03-0.423,0.046-0.634,0.062l-0.092,0.007l-0.004,0.28c-0.004,0.243-0.007,0.4,0.004,0.557
	c0.059,0.267,0.006,0.504-0.132,0.677C15.369,18.605,15.18,18.695,14.969,18.695z"/>
</svg>