<?xml version="1.0" encoding="utf-8"?>
<!-- Generator: Adobe Illustrator 21.1.0, SVG Export Plug-In . SVG Version: 6.00 Build 0)  -->
<svg version="1.1" id="designs" xmlns="http://www.w3.org/2000/svg" xmlns:xlink="http://www.w3.org/1999/xlink" x="0px" y="0px"
	 width="32px" height="32px" viewBox="0 0 32 32" style="enable-background:new 0 0 32 32;" xml:space="preserve">
<style type="text/css">
	.sketchy_een{fill:#111918;}
</style>
<path class="sketchy_een" d="M21.63,9.032c-0.069-0.019-0.139-0.028-0.208-0.028c-0.129,0-0.25,0.04-0.362,0.098
	c-0.013-0.001-0.025-0.01-0.038-0.01c-0.132,0-0.266,0.033-0.386,0.104c-0.651,0.381-1.281,0.795-1.913,1.205
	c-0.573,0.371-1.151,0.739-1.726,1.106c-0.571,0.363-1.153,0.709-1.72,1.077c-0.54,0.348-1.065,0.723-1.591,1.092
	c-0.303,0.057-0.576,0.268-0.651,0.58c-0.19,0.787-0.406,1.565-0.638,2.34c-0.218,0.729-0.408,1.466-0.62,2.197
	c-0.194,0.665-0.373,1.331-0.546,2.004c-0.084,0.327-0.175,0.649-0.266,0.972c-0.087,0.315-0.192,0.626-0.266,0.945
	c-0.101,0.433,0.128,0.881,0.57,1.003c0.124,0.034,0.25,0.028,0.372,0.003c0.007,0,0.013,0.004,0.019,0.004
	c0.214,0,0.379-0.088,0.538-0.222c0.464-0.397,0.952-0.769,1.433-1.146c0.804-0.617,1.653-1.166,2.511-1.704
	c0.457-0.286,0.919-0.562,1.374-0.849c0.476-0.303,0.945-0.622,1.411-0.941c0.185-0.126,0.321-0.278,0.383-0.498
	c0.004-0.013,0-0.027,0.003-0.041c0.001-0.002,0.004-0.004,0.005-0.006c0.28-0.661,0.507-1.345,0.754-2.02
	c0.239-0.653,0.484-1.306,0.721-1.963c0.251-0.694,0.511-1.386,0.744-2.086c0.245-0.733,0.439-1.483,0.657-2.226
	C22.319,9.602,22.05,9.147,21.63,9.032z M20.036,11.818c-0.2,0.696-0.488,1.367-0.746,2.043c-0.251,0.653-0.505,1.304-0.75,1.959
	c-0.216,0.58-0.414,1.163-0.64,1.739c-0.539,0.379-1.073,0.766-1.621,1.128c-0.603,0.398-1.225,0.766-1.825,1.168
	c-0.55,0.369-1.079,0.761-1.604,1.164c0.145-0.596,0.293-1.191,0.458-1.783c0.202-0.723,0.381-1.452,0.61-2.169
	c0.109-0.334,0.225-0.667,0.328-1.003c0.106-0.344,0.198-0.692,0.289-1.04c1.051-0.773,2.151-1.468,3.236-2.19
	c0.792-0.527,1.595-1.039,2.406-1.538C20.131,11.47,20.087,11.645,20.036,11.818z M9.277,16.092c0,0.398-0.332,0.731-0.731,0.731
	s-0.731-0.332-0.731-0.731s0.332-0.731,0.731-0.731S9.277,15.694,9.277,16.092z M25.302,16.211c0,0.424-0.354,0.778-0.778,0.778
	s-0.778-0.354-0.778-0.778s0.354-0.778,0.778-0.778S25.302,15.787,25.302,16.211z M17.116,24.159c0,0.416-0.348,0.764-0.764,0.764
	c-0.416,0-0.764-0.348-0.764-0.764c0-0.416,0.348-0.764,0.764-0.764C16.768,23.395,17.116,23.743,17.116,24.159z M16.124,8.322
	c0-0.367,0.307-0.674,0.675-0.674c0.367,0,0.674,0.307,0.674,0.674s-0.307,0.674-0.674,0.674
	C16.431,8.997,16.124,8.689,16.124,8.322z M28.389,14.074c-0.27-0.824-0.644-1.899-1.141-2.904c-0.23-0.472-0.481-0.932-0.748-1.384
	c-0.301-0.508-0.664-0.987-1.011-1.429c-0.646-0.824-1.34-1.548-2.064-2.149c-0.412-0.346-0.843-0.673-1.281-0.971
	c-0.382-0.261-0.758-0.513-1.165-0.725c-0.321-0.168-0.653-0.305-1.04-0.465c-0.159-0.069-0.319-0.135-0.538-0.257
	c-0.04-0.112-0.106-0.216-0.19-0.299c-0.141-0.143-0.308-0.212-0.576-0.237c-0.301-0.028-0.602-0.061-0.903-0.094
	C17.026,3.081,16.297,3,15.58,3l-0.229,0.003c-0.923,0.022-1.907,0.225-3.098,0.642c-0.552,0.192-1.087,0.464-1.639,0.744
	C10.164,4.617,9.751,4.93,9.289,5.28C8.399,5.953,7.557,6.726,6.788,7.577C6.38,8.032,6.004,8.499,5.641,9.002
	c-0.26,0.363-0.473,0.778-0.678,1.179l-0.082,0.16c-0.491,0.945-0.898,1.965-1.213,3.034c-0.155,0.53-0.245,1.096-0.316,1.584
	c-0.087,0.598-0.136,1.197-0.148,1.78c-0.01,0.497,0.033,1.028,0.139,1.723c0.087,0.57,0.193,1.094,0.325,1.602
	c0.305,1.157,0.899,2.22,1.382,3.017c0.527,0.873,1.214,1.686,2.044,2.418c0.385,0.341,0.826,0.64,1.252,0.929l0.121,0.082
	c0.394,0.268,0.805,0.509,1.219,0.716c0.95,0.477,1.924,0.868,2.893,1.163c1.096,0.333,2.174,0.532,3.204,0.592
	C16.022,28.994,16.26,29,16.499,29c0.828,0,1.653-0.081,2.452-0.241c2.172-0.432,4.096-1.422,5.563-2.862
	c0.757-0.743,1.485-1.603,2.226-2.628c0.588-0.817,1.089-1.764,1.451-2.738c0.396-1.064,0.517-2.201,0.584-3.173
	C28.855,16.199,28.726,15.094,28.389,14.074z M26.645,18.302c-0.053,0.342-0.116,0.681-0.197,1.016
	c-0.085,0.354-0.216,0.692-0.347,1.006c-0.23,0.509-0.455,0.946-0.689,1.337c-0.231,0.385-0.509,0.791-0.877,1.28
	c-0.775,0.976-1.49,1.718-2.257,2.34c-0.608,0.439-1.217,0.795-1.867,1.09c-0.805,0.31-1.66,0.531-2.619,0.679
	c-0.44,0.048-0.876,0.076-1.402,0.081c-0.365,0-0.735-0.031-1.072-0.067l-0.001,0.007c0,0-0.178-0.026-0.205-0.029
	c-0.704-0.104-1.32-0.235-1.882-0.401c-0.568-0.166-1.154-0.37-1.796-0.625c-0.482-0.216-0.952-0.455-1.439-0.73
	c-0.464-0.265-0.898-0.57-1.412-0.95c-0.498-0.406-0.965-0.869-1.43-1.421c-0.57-0.77-1.055-1.585-1.442-2.43
	c-0.153-0.388-0.29-0.78-0.403-1.183c-0.121-0.43-0.194-0.86-0.272-1.343c-0.028-0.232-0.052-0.462-0.072-0.696
	c-0.019-0.227-0.017-0.458-0.014-0.687l0.001-0.158c0.003-0.496,0.061-1.002,0.115-1.441c0.069-0.445,0.172-1.03,0.349-1.612
	c0.147-0.477,0.329-0.98,0.559-1.541c0.444-0.951,0.861-1.693,1.313-2.341c0.45-0.566,0.848-1.012,1.253-1.402
	c0.506-0.486,1.06-0.97,1.719-1.502c0.276-0.209,0.56-0.424,0.865-0.597c0.398-0.226,0.804-0.427,1.223-0.621
	c0.383-0.154,0.768-0.29,1.165-0.412c0.401-0.124,0.817-0.201,1.216-0.272c0.364-0.038,0.727-0.062,1.091-0.062
	c0.195,0,0.39,0.007,0.586,0.023c0.38,0.031,0.76,0.07,1.215,0.158c0.117,0.194,0.272,0.285,0.516,0.386l0.674,0.272
	c0.224,0.101,0.447,0.202,0.673,0.299c0.788,0.341,1.495,0.839,2.144,1.329c0.81,0.656,1.541,1.387,2.237,2.238
	c0.375,0.496,0.692,0.966,0.967,1.44c0.308,0.527,0.563,1.068,0.776,1.541h0.003l-0.003,0.001c0.015,0.032,0.029,0.064,0.043,0.096
	c0.207,0.51,0.394,1.028,0.562,1.552c0.183,0.568,0.368,1.181,0.479,1.828C26.768,16.52,26.753,17.32,26.645,18.302z"/>
</svg>