<?xml version="1.0" encoding="utf-8"?>
<!-- Generator: Adobe Illustrator 21.1.0, SVG Export Plug-In . SVG Version: 6.00 Build 0)  -->
<svg version="1.1" id="designs" xmlns="http://www.w3.org/2000/svg" xmlns:xlink="http://www.w3.org/1999/xlink" x="0px" y="0px"
	 width="32px" height="32px" viewBox="0 0 32 32" style="enable-background:new 0 0 32 32;" xml:space="preserve">
<style type="text/css">
	.sketchy_een{fill:#111918;}
</style>
<path class="sketchy_een" d="M18.011,27.622c-0.19,0.53-0.499,1.007-0.735,1.516c-0.143,0.313-0.307,0.615-0.452,0.926
	c-0.101,0.218-0.197,0.479-0.377,0.646C16.261,30.88,16.039,31,15.782,31c-0.226,0-0.493-0.091-0.64-0.269
	c-0.193-0.232-0.346-0.489-0.516-0.737c-0.174-0.253-0.362-0.501-0.547-0.744c-0.199-0.263-0.385-0.526-0.549-0.814
	c-0.093-0.165-0.182-0.334-0.276-0.5c-0.1,0.089-0.197,0.183-0.289,0.281c-0.174,0.188-0.352,0.408-0.613,0.468
	c-0.365,0.085-0.793-0.044-0.976-0.396c-0.101-0.195-0.162-0.41-0.191-0.626c-0.043-0.302-0.072-0.596-0.044-0.899
	c0.046-0.555,0.166-1.102,0.354-1.626c0.11-0.306,0.238-0.605,0.389-0.895c0.128-0.242,0.286-0.468,0.443-0.69
	c0.124-0.176,0.263-0.307,0.476-0.365c0.069-0.019,0.139-0.028,0.21-0.028c0.141,0,0.281,0.036,0.403,0.107
	c0.178,0.104,0.311,0.278,0.365,0.476c0.052,0.188,0.041,0.451-0.079,0.615c-0.227,0.307-0.438,0.61-0.61,0.951
	c-0.08,0.208-0.15,0.417-0.212,0.632c-0.038,0.134-0.064,0.272-0.086,0.41c0.059-0.037,0.119-0.07,0.182-0.1
	c0.23-0.11,0.478-0.159,0.729-0.089c0.172,0.046,0.377,0.162,0.493,0.296c0.124,0.143,0.251,0.296,0.35,0.458
	c0.137,0.228,0.271,0.46,0.412,0.686c0.232,0.379,0.509,0.733,0.774,1.089c0.011-0.025,0.022-0.05,0.033-0.076
	c0.166-0.404,0.338-0.804,0.513-1.204c0.059-0.148,0.118-0.296,0.184-0.442c0.085-0.19,0.313-0.336,0.507-0.389
	c0.219-0.06,0.458-0.029,0.654,0.085C17.932,26.847,18.139,27.268,18.011,27.622z M25.055,18.748c0.01,0.232-0.06,0.452-0.128,0.669
	c-0.066,0.209-0.153,0.402-0.302,0.567c-0.149,0.164-0.356,0.269-0.567,0.329c-0.166,0.048-0.334,0.087-0.503,0.126
	c-0.485,0.114-0.994,0.137-1.491,0.164c-0.548,0.028-1.092,0.101-1.641,0.101c-0.16,0.253-0.319,0.506-0.479,0.759
	c-0.203,0.325-0.465,0.596-0.704,0.889c-0.096,0.138-0.179,0.28-0.268,0.424c-0.149,0.242-0.393,0.388-0.652,0.43
	c0.197,0.064,0.374,0.19,0.478,0.38c0.132,0.238,0.257,0.479,0.375,0.725c0.122,0.249,0.246,0.51,0.323,0.777
	c0.056,0.193,0.128,0.385,0.174,0.582c0.06,0.261,0.095,0.532,0.128,0.797c0.031,0.261,0.05,0.526,0.023,0.787
	c-0.054,0.514-0.24,1.019-0.464,1.481c-0.188,0.393-0.737,0.493-1.089,0.286c-0.178-0.104-0.311-0.276-0.365-0.476
	c-0.06-0.218-0.015-0.414,0.081-0.613c0.015-0.033,0.031-0.067,0.047-0.1c0.079-0.208,0.138-0.427,0.179-0.647
	c0.009-0.152,0.004-0.301-0.011-0.452c-0.063-0.401-0.161-0.801-0.301-1.183c-0.181-0.371-0.4-0.725-0.603-1.086
	c-0.234-0.412-0.101-0.949,0.313-1.191c0.089-0.052,0.186-0.08,0.285-0.097c-0.082-0.027-0.154-0.087-0.228-0.14
	c-0.309-0.008-0.618-0.011-0.927-0.015c-0.178-0.002-0.356-0.014-0.534-0.031c-0.166-0.017-0.336-0.052-0.505-0.05
	c-0.848,0.004-1.697,0.057-2.545,0.092c-0.13,0.023-0.263,0.025-0.392-0.011c-0.24-0.066-0.391-0.215-0.532-0.41
	c-0.157-0.213-0.29-0.439-0.423-0.665c-0.087-0.147-0.172-0.292-0.251-0.443c-0.097-0.182-0.171-0.379-0.247-0.571
	c-0.065-0.148-0.13-0.295-0.196-0.442c-0.222,0.011-0.446,0.023-0.666,0.013c-0.139-0.004-0.278-0.025-0.418-0.029
	c-0.16-0.004-0.321-0.002-0.481-0.006c-0.172-0.004-0.34-0.023-0.51-0.041c-0.213-0.023-0.435-0.035-0.64-0.097
	c-0.327-0.099-0.654-0.253-0.909-0.483c-0.333-0.302-0.561-0.769-0.545-1.224c0.014-0.391,0.255-0.752,0.452-1.075
	c0.199-0.331,0.445-0.626,0.694-0.92c0.205-0.244,0.435-0.466,0.654-0.698c0.28-0.298,0.557-0.601,0.837-0.899
	c0.048-0.052,0.11-0.081,0.169-0.115c-0.005-0.061-0.015-0.122-0.018-0.183c-0.037-0.737-0.004-1.479,0.021-2.216
	c0.013-0.422,0.048-0.845,0.093-1.265c0.052-0.495,0.11-0.996,0.215-1.483c0.178-0.826,0.456-1.632,0.754-2.423
	c0.305-0.814,0.655-1.63,1.11-2.37c0.249-0.408,0.518-0.795,0.81-1.174c0.247-0.32,0.512-0.628,0.762-0.946
	c0.451-0.58,0.943-1.134,1.516-1.596C15.202,1.104,15.381,1,15.635,1c0.125,0,0.245,0.031,0.358,0.082
	c0.029-0.003,0.056-0.016,0.085-0.016c0.212,0,0.424,0.078,0.576,0.24c0.439,0.47,0.897,0.909,1.396,1.315
	c0.528,0.429,0.899,0.986,1.311,1.522c0.499,0.648,1.021,1.29,1.433,1.999c0.197,0.34,0.379,0.688,0.539,1.048
	c0.18,0.408,0.323,0.829,0.472,1.249c0.275,0.783,0.481,1.603,0.603,2.425c0.124,0.843,0.201,1.701,0.151,2.556
	c-0.025,0.42-0.068,0.837-0.108,1.257c-0.026,0.268-0.06,0.535-0.09,0.803c0.132,0.014,0.248,0.056,0.354,0.129
	c-0.005-0.004-0.009-0.007-0.014-0.011c0.005,0.004,0.01,0.008,0.016,0.012c0.035,0.024,0.07,0.05,0.104,0.079
	c0.012,0.01,0.023,0.019,0.033,0.027c-0.02-0.015-0.04-0.031-0.061-0.047c0.112,0.088,0.216,0.176,0.314,0.284
	c0.141,0.157,0.273,0.315,0.423,0.462c0.17,0.164,0.344,0.327,0.493,0.51c0.163,0.201,0.318,0.41,0.475,0.615
	c0.097,0.121,0.195,0.243,0.281,0.371C24.941,18.156,25.046,18.452,25.055,18.748z M11.416,13.121
	c-0.017,0.788-0.008,1.577,0.089,2.361c0.04,0.296,0.079,0.591,0.125,0.887c0.05,0.329,0.13,0.65,0.217,0.971
	c0.161,0.602,0.344,1.211,0.576,1.79l0.002,0.001c0.644,0.008,1.289,0.03,1.933,0.039c0.576,0.01,1.154,0.002,1.73-0.002
	c0.567-0.004,1.131-0.033,1.696-0.052c0.271-0.01,0.543-0.004,0.814-0.008c0.275-0.004,0.549-0.023,0.824-0.027
	c0.003,0,0.007,0,0.01,0c0.013,0,0.024,0.007,0.036,0.008c0.309-0.577,0.587-1.174,0.846-1.774c0.235-0.572,0.404-1.159,0.507-1.768
	c0.039-0.337,0.065-0.676,0.089-1.017c0.025-0.381,0.062-0.762,0.07-1.143c0.013-0.725-0.021-1.448-0.109-2.166
	c-0.097-0.617-0.244-1.224-0.414-1.823c-0.155-0.555-0.345-1.107-0.564-1.642c-0.195-0.421-0.412-0.834-0.664-1.221
	c-0.232-0.362-0.494-0.708-0.757-1.051c-0.214-0.271-0.427-0.544-0.645-0.813c-0.224-0.275-0.456-0.565-0.731-0.793
	c-0.251-0.211-0.51-0.41-0.766-0.615c-0.166-0.134-0.313-0.287-0.467-0.432c-0.32,0.268-0.632,0.549-0.897,0.87
	c-0.171,0.225-0.342,0.449-0.528,0.663c-0.189,0.219-0.375,0.437-0.555,0.662c-0.25,0.337-0.487,0.682-0.698,1.044
	C12.969,6.445,12.79,6.84,12.62,7.238c-0.459,1.133-0.85,2.303-1.051,3.51C11.475,11.536,11.434,12.326,11.416,13.121z
	 M10.565,19.037c-0.001-0.002-0.002-0.005-0.002-0.007c-0.213-0.667-0.431-1.334-0.555-2.026c-0.011-0.065-0.017-0.131-0.027-0.196
	c-0.113,0.11-0.222,0.225-0.337,0.334c-0.269,0.252-0.517,0.515-0.747,0.801c-0.143,0.195-0.274,0.402-0.379,0.62
	c-0.013,0.038-0.025,0.075-0.035,0.114c0.001,0.004,0.002,0.008,0.003,0.012c0.004,0.007,0.008,0.013,0.011,0.019
	c0.012,0.012,0.024,0.024,0.036,0.036c0.056,0.035,0.113,0.067,0.173,0.096c0.183,0.065,0.37,0.101,0.564,0.129
	C9.7,19.019,10.133,19.032,10.565,19.037z M16.739,21.54c0.199,0.004,0.398,0.008,0.597,0.012c0.081,0.002,0.164-0.002,0.246-0.004
	c0.023,0,0.048,0,0.071,0c0.109-0.115,0.22-0.229,0.319-0.353c0.141-0.175,0.303-0.331,0.449-0.501
	c0.019-0.028,0.038-0.056,0.058-0.083c-0.797-0.007-1.594,0.004-2.391,0.007c-0.586,0.002-1.17,0-1.756,0.012
	c-0.409,0.008-0.818,0.016-1.226,0.025c0.137,0.276,0.284,0.554,0.463,0.803c0.241-0.004,0.481-0.01,0.722-0.01
	c0.47,0,0.941,0.007,1.41,0.018C16.049,21.472,16.393,21.534,16.739,21.54z M23.427,18.765c-0.148-0.264-0.337-0.512-0.521-0.754
	c-0.22-0.272-0.481-0.504-0.711-0.767c-0.047-0.055-0.097-0.106-0.144-0.16c-0.147,0.469-0.329,0.928-0.522,1.378
	c-0.08,0.187-0.171,0.37-0.26,0.554c0.205-0.008,0.41-0.02,0.615-0.024c0.329-0.007,0.658,0,0.987-0.033
	c0.18-0.031,0.36-0.073,0.536-0.126C23.414,18.81,23.421,18.787,23.427,18.765z M13.376,11.675
	c-0.193-0.406-0.321-0.839-0.325-1.294c-0.002-0.189,0.002-0.379,0.021-0.568c0.023-0.246,0.044-0.507,0.13-0.741
	c0.116-0.323,0.261-0.642,0.458-0.922c0.131-0.191,0.273-0.387,0.439-0.549c0.151-0.147,0.323-0.276,0.499-0.393
	c0.364-0.238,0.783-0.352,1.208-0.414c0.075-0.02,0.15-0.03,0.225-0.03c0.075,0,0.149,0.01,0.224,0.03
	c0.143,0.039,0.267,0.112,0.371,0.217c0.014,0.014,0.027,0.027,0.039,0.042c0.085,0.023,0.171,0.043,0.257,0.067
	c0.143,0.039,0.278,0.102,0.413,0.163c0.102,0.04,0.208,0.082,0.298,0.141c0.12,0.079,0.234,0.172,0.338,0.269
	c0.139,0.131,0.273,0.275,0.389,0.423c0.091,0.114,0.188,0.228,0.261,0.354c0.079,0.131,0.139,0.276,0.195,0.42
	c0.095,0.242,0.128,0.505,0.159,0.762c0.048,0.389,0.027,0.768-0.035,1.152c-0.023,0.145-0.068,0.28-0.12,0.416
	c-0.079,0.199-0.164,0.41-0.292,0.584c-0.224,0.304-0.464,0.597-0.76,0.835c-0.292,0.238-0.626,0.46-1,0.545
	c-0.323,0.073-0.652,0.106-0.98,0.066c-0.495-0.062-1.009-0.137-1.421-0.445C13.97,12.507,13.593,12.13,13.376,11.675z
	 M14.68,10.491c0.028,0.135,0.067,0.267,0.114,0.396c0.044,0.089,0.094,0.176,0.148,0.259c0.096,0.116,0.196,0.227,0.308,0.327
	c0.055,0.036,0.111,0.07,0.17,0.1c0.146,0.049,0.293,0.089,0.446,0.116c0.123,0.012,0.246,0.017,0.37,0.011
	c0.073-0.014,0.144-0.032,0.215-0.055c0.115-0.058,0.223-0.122,0.329-0.196c0.134-0.116,0.253-0.245,0.366-0.382
	c0.045-0.065,0.085-0.131,0.122-0.201c0.04-0.115,0.071-0.232,0.093-0.351c0.023-0.244,0.026-0.49,0.004-0.734
	c-0.028-0.154-0.065-0.305-0.118-0.453c-0.04-0.078-0.085-0.152-0.136-0.224c-0.095-0.12-0.193-0.235-0.305-0.338
	c-0.061-0.037-0.125-0.069-0.191-0.099C16.45,8.606,16.277,8.57,16.11,8.508c-0.042-0.015-0.083-0.032-0.121-0.05
	c-0.13,0.021-0.26,0.045-0.385,0.083c-0.07,0.038-0.137,0.08-0.203,0.125c-0.101,0.091-0.191,0.19-0.277,0.295
	c-0.132,0.187-0.246,0.385-0.344,0.592c-0.044,0.131-0.071,0.266-0.093,0.403C14.671,10.133,14.667,10.313,14.68,10.491z"/>
</svg>