<?xml version="1.0" encoding="utf-8"?>
<!-- Generator: Adobe Illustrator 21.1.0, SVG Export Plug-In . SVG Version: 6.00 Build 0)  -->
<svg version="1.1" id="designs" xmlns="http://www.w3.org/2000/svg" xmlns:xlink="http://www.w3.org/1999/xlink" x="0px" y="0px"
	 width="32px" height="32px" viewBox="0 0 32 32" style="enable-background:new 0 0 32 32;" xml:space="preserve">
<style type="text/css">
	.sketchy_een{fill:#111918;}
</style>
<path class="sketchy_een" d="M29.378,25.008c-0.196-0.055-0.418-0.057-0.624-0.074c-0.073-0.005-0.146-0.012-0.22-0.019
	c-0.037-0.585-0.067-1.172-0.098-1.756c-0.041-0.804-0.073-1.604-0.08-2.408c-0.008-0.816-0.006-1.632-0.029-2.45
	c-0.026-0.828-0.049-1.655-0.053-2.483c-0.002-0.896-0.012-1.791-0.022-2.687c-0.006-0.461-0.01-0.92,0.012-1.381
	c0.023-0.504,0.053-1.01,0.065-1.514c0.008-0.358-0.232-0.665-0.551-0.79C27.633,9.34,27.443,9.26,27.274,9.28
	c-0.2,0.023-0.398,0.006-0.598-0.014c-0.276-0.03-0.551-0.059-0.828-0.09c-0.675-0.074-1.349-0.124-2.026-0.163
	c-0.015-0.001-0.03-0.001-0.045-0.001c-0.182,0-0.343,0.081-0.481,0.19c-0.331,0.129-0.588,0.447-0.571,0.818
	c0.08,1.753,0.102,3.507,0.106,5.262c0.002,0.845,0.047,1.685,0.106,2.526c0.057,0.796,0.086,1.593,0.165,2.389
	c0.041,0.406,0.082,0.814,0.102,1.222c0.02,0.439,0.027,0.879,0.037,1.318c0.01,0.43,0.027,0.859,0.047,1.289
	c0.013,0.298,0.023,0.6,0.018,0.901c-0.32,0.002-0.639,0.003-0.959,0.011c-0.016-0.252-0.041-0.504-0.058-0.758
	c-0.018-0.265-0.004-0.53,0-0.796c0.006-0.594,0.014-1.191,0-1.785c-0.014-0.649-0.035-1.296-0.045-1.946
	c-0.012-0.735-0.004-1.471-0.043-2.205c-0.027-0.482-0.384-0.886-0.887-0.886c-0.009,0-0.018,0.005-0.027,0.006
	c-0.021-0.015-0.035-0.038-0.058-0.051c-0.125-0.073-0.248-0.099-0.377-0.099c-0.027,0-0.054,0.001-0.081,0.003
	c0.005-0.001,0.01-0.001,0.015-0.002c-0.194,0.012-0.388,0.012-0.584,0.033c-0.231,0.023-0.463,0.037-0.696,0.047
	c-0.404,0.018-0.808,0.01-1.214,0c-0.261-0.004-0.524-0.01-0.784-0.01c-0.322,0.001-0.598,0.193-0.739,0.465
	c-0.154,0.155-0.25,0.369-0.267,0.604c-0.1,1.424-0.094,2.85-0.108,4.276c-0.004,0.614-0.037,1.226-0.039,1.838
	c0,0.308-0.002,0.614,0.006,0.922c0.003,0.143,0.011,0.288,0.013,0.432c-0.13,0.004-0.26,0.007-0.391,0.01
	c-0.152,0.003-0.304,0.012-0.456,0.02c-0.032-0.768-0.09-1.531-0.096-2.302c-0.006-0.808,0-1.616,0-2.424
	c0-0.836,0.002-1.673-0.008-2.509c-0.01-0.806-0.073-1.612-0.076-2.42c-0.002-0.671-0.004-1.342-0.014-2.012
	c-0.014-0.684-0.047-1.373-0.024-2.057c0.027-0.735,0.069-1.469,0.088-2.204c0.02-0.786,0.008-1.575-0.012-2.361
	c-0.003-0.151-0.056-0.285-0.128-0.408C15.214,6.23,15.15,6.11,15.054,6.013c-0.153-0.153-0.408-0.284-0.63-0.261
	c-0.553,0.057-1.096,0.041-1.651,0.02c-0.673-0.029-1.347-0.043-2.022-0.045c-0.269-0.001-0.508,0.122-0.68,0.31
	C9.767,6.162,9.547,6.461,9.548,6.804c0.006,1.771,0,3.54-0.016,5.311c-0.006,0.816,0.01,1.63,0.01,2.444
	c0,0.863-0.004,1.726-0.004,2.589c-0.002,1.398-0.006,2.795,0,4.193c0.002,0.716-0.006,1.434-0.006,2.15
	c0.002,0.324-0.006,0.645-0.006,0.967c0,0.26-0.002,0.52,0.011,0.778c-0.115,0.001-0.229-0.001-0.344-0.001
	c0-0.057,0.007-0.113-0.006-0.169c-0.15-1.382-0.236-2.77-0.308-4.156c-0.039-0.755-0.078-1.504-0.067-2.26
	c0.014-0.896,0.035-1.793,0.051-2.687c0.009-0.39-0.291-0.708-0.658-0.787c-0.099-0.043-0.207-0.068-0.32-0.07
	c-0.571-0.01-1.138,0.049-1.708,0.055c-0.308,0.004-0.614-0.024-0.922-0.045c-0.365-0.028-0.73-0.057-1.092-0.09
	c-0.014-0.001-0.028-0.002-0.043-0.002c-0.133,0-0.264,0.056-0.384,0.127c-0.423,0.009-0.858,0.383-0.821,0.833
	c0.069,0.855,0.12,1.708,0.147,2.565c0.025,0.788,0.004,1.581,0.012,2.369c0.01,0.777,0.051,1.552,0.067,2.328
	c0.013,0.622,0.031,1.244,0.047,1.866c-0.096-0.005-0.193-0.005-0.289-0.01C2.41,25.075,2,25.532,2,26.001
	c0,0.508,0.41,0.879,0.9,0.9c0.934,0.041,1.869,0.043,2.805,0.049c0.871,0.006,1.742,0.039,2.61,0.041
	c0.853,0.002,1.708,0.026,2.561-0.014c0.796-0.037,1.591-0.092,2.389-0.104c0.781-0.014,1.563-0.098,2.344-0.141
	c0.802-0.047,1.606-0.061,2.41-0.073c0.418-0.004,0.837,0,1.257,0.002c0.394,0.004,0.786,0.006,1.181,0.002
	c0.82-0.008,1.64-0.037,2.458-0.047c0.541-0.006,1.081-0.002,1.622-0.014c0.51-0.01,1.02-0.035,1.53-0.043
	c0.941-0.017,1.893-0.03,2.829,0.075c0.01,0.002,0.021,0.005,0.031,0.009c0.445,0.127,0.922-0.151,1.043-0.592
	C30.094,25.604,29.823,25.132,29.378,25.008z M4.834,25.17c-0.029-0.641-0.034-1.283-0.052-1.923
	c-0.024-0.777-0.069-1.551-0.082-2.328c-0.023-1.379-0.02-2.758-0.083-4.137c0.52,0.037,1.043,0.065,1.562,0.048
	c0.35-0.012,0.7-0.033,1.049-0.053c-0.003,0.624-0.007,1.248,0.001,1.872c0.012,0.753,0.067,1.506,0.112,2.26
	c0.022,0.361,0.029,0.722,0.051,1.081c0.024,0.386,0.065,0.773,0.096,1.157c0.031,0.376,0.069,0.751,0.11,1.126
	c0.02,0.173,0.039,0.345,0.059,0.518c0.01,0.09,0.02,0.18,0.027,0.271c0.005,0.055,0.008,0.112,0.012,0.169
	C6.742,25.224,5.788,25.201,4.834,25.17z M12.501,25.157c-0.424,0.009-0.848,0.028-1.271,0.046c-0.02-0.319-0.011-0.64-0.015-0.959
	c-0.004-0.439-0.004-0.879-0.008-1.316c-0.004-0.857,0-1.714-0.006-2.569c-0.008-1.72,0.012-3.438-0.002-5.158
	c-0.01-1.32-0.031-2.64-0.035-3.96c-0.005-1.217,0.025-2.434,0.039-3.652c0.523-0.001,1.047-0.001,1.569-0.003
	c0.108,0,0.216,0.002,0.324,0.002c0.219,0.001,0.438,0.002,0.657-0.004c0.021,0.666,0.044,1.331,0.049,1.998
	c0.006,0.824-0.055,1.646-0.061,2.469c-0.008,0.806,0.012,1.612,0.012,2.418c0,0.4-0.004,0.8,0.004,1.2
	c0.01,0.416,0.039,0.828,0.061,1.242c0.073,1.389,0.037,2.783,0.041,4.174c0.002,0.665,0.004,1.33-0.006,1.995
	c-0.008,0.673,0.037,1.339,0.075,2.012c0,0.008,0.004,0.014,0.005,0.021C13.455,25.129,12.977,25.148,12.501,25.157z M19.707,24.983
	c-0.545,0.005-1.091,0.009-1.637,0.013c-0.015-0.427-0.02-0.853-0.017-1.279c0.004-0.61,0.002-1.22,0-1.83
	c-0.002-0.685-0.008-1.367,0.004-2.052c0.01-0.563,0.049-1.125,0.092-1.685c0.453-0.012,0.907-0.03,1.358-0.078
	c0.241-0.026,0.482-0.061,0.728-0.059c0.074,0.001,0.15-0.005,0.225-0.008c0.031,0.549,0.054,1.098,0.048,1.648
	c-0.004,0.329-0.018,0.659-0.01,0.989c0.008,0.32,0.029,0.637,0.035,0.957c0.018,1.118,0.018,2.234,0.126,3.348
	c0.001,0.007,0.003,0.013,0.004,0.02C20.343,24.971,20.025,24.98,19.707,24.983z M24.889,24.907
	c-0.013-0.27-0.023-0.541-0.034-0.811c-0.018-0.398-0.033-0.794-0.043-1.193c-0.02-0.794,0.012-1.583-0.045-2.377
	c-0.031-0.414-0.065-0.83-0.088-1.245c-0.022-0.385-0.031-0.773-0.051-1.157c-0.022-0.426-0.057-0.849-0.08-1.275
	c-0.024-0.424-0.031-0.851-0.039-1.277c-0.028-1.58,0.009-3.16-0.014-4.738c0.426,0.017,0.852,0.031,1.276,0.064
	c0.283,0.023,0.563,0.045,0.844,0.072c-0.008,0.653-0.017,1.307-0.004,1.96c0.016,0.845,0.01,1.691,0.008,2.536
	c-0.006,1.636,0.035,3.271,0.033,4.907c-0.002,0.873,0.057,1.74,0.106,2.609c0.024,0.445,0.039,0.888,0.073,1.332
	c0.014,0.185,0.023,0.371,0.035,0.556C26.206,24.874,25.548,24.892,24.889,24.907z"/>
</svg>