<?xml version="1.0" encoding="utf-8"?>
<!-- Generator: Adobe Illustrator 21.1.0, SVG Export Plug-In . SVG Version: 6.00 Build 0)  -->
<svg version="1.1" id="designs" xmlns="http://www.w3.org/2000/svg" xmlns:xlink="http://www.w3.org/1999/xlink" x="0px" y="0px"
	 width="32px" height="32px" viewBox="0 0 32 32" style="enable-background:new 0 0 32 32;" xml:space="preserve">
<style type="text/css">
	.sketchy_een{fill:#111918;}
</style>
<path class="sketchy_een" d="M18.947,7.318c-0.005-0.038-0.01-0.075-0.015-0.112c0.003,0.024,0.006,0.048,0.01,0.072
	C18.943,7.291,18.945,7.304,18.947,7.318z M25.438,12.504c-0.061,0.535-0.135,1.067-0.209,1.602
	c-0.076,0.614-0.14,1.232-0.232,1.844c-0.088,0.589-0.186,1.173-0.29,1.76c-0.106,0.6-0.245,1.197-0.375,1.793
	c-0.124,0.575-0.241,1.148-0.359,1.723c-0.163,0.797-0.345,1.589-0.528,2.384c-0.169,0.732-0.353,1.468-0.579,2.186
	c-0.237,0.761-0.504,1.513-0.793,2.258c-0.153,0.396-0.314,0.791-0.479,1.183c-0.071,0.173-0.141,0.343-0.208,0.516
	c-0.073,0.186-0.133,0.398-0.239,0.567c-0.092,0.147-0.228,0.24-0.375,0.306c-0.134,0.183-0.343,0.309-0.585,0.318
	c-0.051,0.002-0.102,0.004-0.153,0.004c-0.424,0.012-0.846,0.008-1.267,0.006c-0.29-0.002-0.579-0.004-0.867-0.002
	c-0.708,0.004-1.419,0.004-2.127,0.004c-0.775,0-1.548,0.004-2.321,0.027c-0.832,0.027-1.662,0.039-2.486-0.078
	c-0.129-0.018-0.245-0.111-0.342-0.216c-0.018-0.009-0.038-0.009-0.055-0.019c-0.194-0.114-0.279-0.271-0.361-0.471
	c-0.549-1.317-0.993-2.684-1.379-4.058c-0.192-0.685-0.383-1.368-0.559-2.056c-0.182-0.716-0.336-1.436-0.477-2.16
	c-0.316-1.613-0.569-3.237-0.797-4.864c-0.239-1.701-0.428-3.418-0.436-5.137c-0.002-0.447,0.375-0.822,0.82-0.822
	c0.264,0,0.492,0.139,0.644,0.338c0.022,0.003,0.045,0.005,0.067,0.008c-0.004-0.087-0.002-0.175,0.016-0.268
	c0.075-0.383,0.196-0.759,0.3-1.134c0.106-0.377,0.208-0.755,0.31-1.134C8.814,8.553,9.152,8.314,9.51,8.314
	c0.006,0,0.011,0.002,0.017,0.002c0.137-0.117,0.307-0.197,0.496-0.194c0.567,0.01,1.132,0.024,1.697,0.029c0.005,0,0.009,0,0.014,0
	c-0.032-0.085-0.054-0.175-0.048-0.271c0.077-1.06,0.181-2.115,0.345-3.165c0.167-1.05,0.359-2.094,0.589-3.133
	C12.699,1.228,13.05,1,13.397,1c0.068,0,0.136,0.009,0.202,0.027c0.058,0.016,0.102,0.051,0.153,0.078
	c0.083-0.031,0.17-0.054,0.262-0.051c0.797,0.018,1.589,0.022,2.386,0.006c0.613-0.012,1.227-0.032,1.84-0.032
	c0.074,0,0.148,0,0.222,0.001c0.309,0.003,0.574,0.188,0.705,0.449c0.082,0.096,0.149,0.203,0.198,0.332
	c0.169,0.447,0.316,0.897,0.44,1.358c0.112,0.42,0.239,0.836,0.326,1.262c0.162,0.787,0.224,1.585,0.326,2.38
	c0.047,0.355,0.093,0.71,0.138,1.065c0.009,0.066,0.025,0.131,0.038,0.196c0.107-0.001,0.214-0.003,0.32-0.003
	c0.069,0,0.139,0,0.208,0.002c0.195,0.003,0.393,0.005,0.59,0.02c0.102-0.041,0.208-0.068,0.318-0.068
	c0.076,0,0.153,0.01,0.227,0.03c0.192,0.053,0.428,0.202,0.512,0.394c0.235,0.544,0.483,1.083,0.687,1.638
	c0.161,0.441,0.222,0.916,0.394,1.356c0.014,0.035,0.004,0.079,0.009,0.118c0.083-0.002,0.167,0,0.25-0.002
	c0.161-0.004,0.304,0.06,0.429,0.15c0.017-0.001,0.033-0.01,0.05-0.01c0.214,0,0.422,0.086,0.573,0.237
	C25.338,12.068,25.46,12.302,25.438,12.504z M16.363,2.607c-0.779,0.006-1.558,0.019-2.337,0.008
	c-0.21,0.958-0.406,1.918-0.546,2.891c-0.1,0.788-0.172,1.579-0.209,2.374c-0.004,0.091-0.029,0.177-0.059,0.259
	c0.793-0.005,1.586-0.002,2.38-0.01c0.753-0.006,1.509-0.029,2.262-0.039c0.393-0.006,0.785-0.006,1.177-0.009
	C19.024,8,19.015,7.919,19.007,7.837c-0.018-0.173-0.038-0.346-0.06-0.52c0.002,0.018,0.005,0.035,0.007,0.053
	c-0.004-0.031-0.008-0.062-0.013-0.093c-0.005-0.039-0.01-0.078-0.015-0.117c0.002,0.015,0.003,0.03,0.005,0.045
	c-0.053-0.396-0.101-0.793-0.152-1.19c-0.085-0.617-0.186-1.235-0.358-1.835c-0.152-0.53-0.337-1.049-0.533-1.564
	C17.381,2.611,16.873,2.603,16.363,2.607z M9.634,11.573c0.028,0.001,0.055,0.004,0.083,0.005c0.351,0.008,0.702,0.008,1.056,0.008
	c0.21,0,0.422,0,0.634,0c1.162,0.01,2.321,0.022,3.483,0.026c1.576,0.006,3.149-0.033,4.723-0.039c0.469,0,0.94,0.002,1.411,0.002
	c0.407,0.002,0.815-0.007,1.222-0.008c-0.031-0.121-0.064-0.24-0.099-0.36c-0.055-0.192-0.119-0.379-0.191-0.565
	c-0.138-0.313-0.288-0.619-0.436-0.926c-0.033,0-0.066,0.005-0.098,0.003c-0.157-0.014-0.316-0.02-0.475-0.026
	c-0.44-0.016-0.881-0.027-1.322-0.026c-0.343,0.002-0.689-0.002-1.032-0.004c-0.412-0.004-0.824-0.008-1.236-0.006
	c-0.767,0.006-1.53,0.012-2.296,0.008c-0.812-0.004-1.625-0.004-2.437,0c-0.812,0.004-1.625,0.026-2.439,0.022
	c-0.183,0.578-0.39,1.153-0.507,1.749C9.672,11.484,9.645,11.526,9.634,11.573z M23.541,15.194
	c-0.002,0.015-0.004,0.031-0.007,0.047c0.091-0.715,0.158-1.433,0.227-2.15c-0.937-0.016-1.876-0.022-2.812-0.01
	c-0.544,0.008-1.089,0.026-1.634,0.027c-0.222,0.002-0.441,0.002-0.663,0c-0.33,0-0.659,0-0.989,0.002
	c-0.795,0.008-1.589,0.029-2.384,0.033c-0.814,0.004-1.628,0.004-2.445,0.012c-0.793,0.008-1.585,0.014-2.38,0.031
	c-0.753,0.019-1.505,0.017-2.255-0.042c0.002,0.325,0.007,0.65,0.025,0.975c0.04,0.665,0.091,1.328,0.175,1.989
	c0.195,1.414,0.385,2.831,0.639,4.235c0.143,0.799,0.283,1.605,0.467,2.398c0.184,0.797,0.396,1.589,0.614,2.38
	c0.397,1.444,0.85,2.871,1.421,4.257c0.01,0.022,0.02,0.043,0.03,0.064c0.723,0.078,1.443,0.085,2.17,0.068
	c0.751-0.016,1.501-0.016,2.252-0.018c0.687-0.002,1.373-0.006,2.062,0.006c0.579,0.008,1.155,0.011,1.733-0.011
	c0.024-0.038,0.038-0.081,0.068-0.115c0.088-0.139,0.157-0.294,0.228-0.442c0.095-0.199,0.184-0.398,0.273-0.599
	c0.256-0.63,0.485-1.271,0.698-1.916c0.218-0.653,0.42-1.313,0.591-1.98c0.39-1.542,0.702-3.102,1.008-4.662
	c0.153-0.785,0.337-1.562,0.504-2.343c0.148-0.7,0.265-1.407,0.364-2.116c-0.004,0.029-0.008,0.058-0.011,0.087
	c0.006-0.047,0.012-0.094,0.018-0.142C23.535,15.238,23.538,15.216,23.541,15.194z M23.524,15.315
	c0.003-0.018,0.005-0.036,0.008-0.055c0.001-0.007,0.002-0.013,0.003-0.02C23.531,15.265,23.528,15.29,23.524,15.315z M20.962,17.03
	c-0.202,0-0.398,0.082-0.542,0.226c-0.155,0.155-0.202,0.33-0.224,0.542c-0.045,0.417-0.093,0.833-0.146,1.249
	c-0.088,0.592-0.212,1.174-0.34,1.758c-0.128,0.577-0.253,1.154-0.402,1.725c-0.143,0.561-0.288,1.122-0.436,1.682
	c-0.149,0.561-0.316,1.12-0.526,1.663c-0.018,0.04-0.038,0.079-0.058,0.116c-0.202,0.353-0.086,0.812,0.267,1.02
	c0.171,0.1,0.381,0.128,0.573,0.075c0.271-0.075,0.424-0.271,0.52-0.52c0.126-0.322,0.232-0.653,0.338-0.981
	c0.11-0.343,0.21-0.689,0.302-1.036c0.086-0.336,0.161-0.675,0.249-1.01c0.086-0.332,0.19-0.659,0.273-0.993
	c0.175-0.706,0.332-1.419,0.491-2.129c0.192-0.865,0.326-1.74,0.428-2.619c0.023-0.19-0.094-0.412-0.224-0.542
	C21.36,17.112,21.164,17.03,20.962,17.03z"/>
</svg>