<?xml version="1.0" encoding="utf-8"?>
<!-- Generator: Adobe Illustrator 21.1.0, SVG Export Plug-In . SVG Version: 6.00 Build 0)  -->
<svg version="1.1" id="designs" xmlns="http://www.w3.org/2000/svg" xmlns:xlink="http://www.w3.org/1999/xlink" x="0px" y="0px"
	 width="32px" height="32px" viewBox="0 0 32 32" style="enable-background:new 0 0 32 32;" xml:space="preserve">
<style type="text/css">
	.sketchy_een{fill:#111918;}
</style>
<path class="sketchy_een" d="M29.945,10.543c0.086-0.725,0.043-1.467,0.047-2.198c0.004-0.393,0.004-0.786-0.002-1.178
	c-0.008-0.442-0.012-0.907-0.116-1.338c-0.063-0.269-0.171-0.548-0.334-0.774c-0.077-0.106-0.157-0.212-0.247-0.31
	c-0.088-0.098-0.206-0.173-0.31-0.253c-0.281-0.212-0.63-0.318-0.955-0.446c-0.062-0.025-0.131-0.036-0.202-0.036
	c-0.151,0-0.311,0.049-0.428,0.119c-0.027,0.016-0.044,0.042-0.069,0.061c-0.065-0.003-0.13-0.004-0.194-0.007
	c-0.774-0.039-1.55-0.073-2.324-0.092c-0.746-0.018-1.493-0.016-2.239-0.014c-0.354,0.002-0.707,0-1.061,0
	c-0.424-0.002-0.851-0.004-1.275-0.002c-0.756,0.004-1.51-0.008-2.269-0.016c-0.244-0.002-0.485-0.004-0.729-0.004
	c-0.53,0-1.061,0.006-1.591,0.008c-0.741,0.002-1.481,0.014-2.222,0.047c-0.811,0.039-1.622,0.055-2.436,0.051
	c-2.33-0.008-4.659,0.028-6.989,0.035c-0.044,0-0.083,0.018-0.125,0.026c-0.105-0.05-0.218-0.082-0.334-0.082
	c-0.195,0-0.388,0.072-0.528,0.222c-0.22,0.232-0.393,0.477-0.526,0.766c-0.096,0.204-0.165,0.415-0.21,0.636
	C2.208,6.113,2.186,6.47,2.176,6.826c-0.018,0.67-0.01,1.34-0.012,2.009c-0.002,0.591-0.071,1.194-0.012,1.783
	c0.02,0.21,0.053,0.417,0.132,0.613c0.084,0.208,0.187,0.399,0.314,0.583c0.065,0.094,0.139,0.183,0.212,0.269
	c0.008,0.009,0.019,0.016,0.027,0.025c-0.035,0.048-0.075,0.092-0.11,0.139c-0.049,0.069-0.09,0.147-0.13,0.224
	c-0.102,0.193-0.177,0.405-0.234,0.617c-0.1,0.367-0.126,0.76-0.145,1.141c-0.016,0.32-0.018,0.642-0.029,0.964
	c-0.01,0.32-0.012,0.64-0.024,0.96c-0.012,0.308-0.041,0.623-0.022,0.933c0.014,0.22,0.041,0.44,0.09,0.658
	c0.047,0.212,0.141,0.43,0.232,0.625c0.073,0.155,0.18,0.292,0.287,0.426c-0.098,0.121-0.187,0.254-0.26,0.383
	c-0.134,0.238-0.24,0.491-0.295,0.756c-0.053,0.255-0.086,0.513-0.112,0.77c-0.071,0.705-0.059,1.422-0.069,2.129
	C2.012,23.178,2.008,23.52,2,23.864c-0.002,0.14,0.002,0.277,0.02,0.416c0.018,0.128,0.029,0.251,0.067,0.375
	c0.039,0.137,0.102,0.271,0.165,0.401c0.153,0.312,0.414,0.562,0.682,0.776c0.153,0.122,0.304,0.236,0.477,0.326
	c0.156,0.082,0.316,0.133,0.48,0.173c0.1,0.05,0.209,0.085,0.327,0.084c0.206-0.002,0.413-0.007,0.619-0.01
	c-0.039,0.092-0.059,0.192-0.05,0.297c0.014,0.155,0.027,0.312,0.043,0.468c0.02,0.216,0.073,0.401,0.232,0.56
	c0.147,0.147,0.35,0.232,0.56,0.232c0.407,0,0.821-0.361,0.792-0.792c-0.012-0.155-0.024-0.312-0.037-0.468
	c-0.009-0.116-0.033-0.221-0.074-0.32c0.948-0.016,1.897-0.031,2.846-0.032c0.788,0,1.575-0.008,2.361,0.006
	c0.772,0.012,1.542,0.035,2.314,0.043c0.442,0.004,0.886,0.002,1.33,0.002c0.316-0.002,0.634-0.002,0.953-0.002
	c0.375,0,0.752,0.018,1.127,0.026c0.234,0.006,0.469,0.004,0.705,0.002c0.151,0,0.3-0.002,0.452-0.002
	c0.768,0.006,1.538,0.027,2.308,0.037c0.762,0.01,1.524,0.02,2.286,0.027c0.884,0.008,1.769,0.028,2.653,0.051
	c-0.008,0.045-0.027,0.087-0.026,0.134c0.002,0.175,0.008,0.348,0.016,0.522c0.022,0.432,0.346,0.794,0.794,0.794
	c0.426,0,0.803-0.362,0.796-0.794c-0.004-0.175-0.006-0.348-0.01-0.522c0-0.024-0.012-0.045-0.015-0.069
	c0.231,0.013,0.462,0.022,0.693,0.035c0.157,0.062,0.34,0.097,0.492,0.039c0.01-0.004,0.017-0.008,0.027-0.012
	c0.027,0.002,0.054,0.003,0.082,0.004c0-0.013,0-0.027,0-0.041c0.148-0.063,0.276-0.129,0.41-0.24
	c0.116-0.098,0.206-0.226,0.285-0.355c0.1-0.171,0.171-0.361,0.24-0.546c0.135-0.363,0.181-0.748,0.204-1.133
	c0.037-0.642,0.035-1.287,0.035-1.929c0.002-0.623-0.004-1.247-0.041-1.868c-0.022-0.35-0.065-0.713-0.153-1.053
	c-0.049-0.186-0.117-0.36-0.193-0.535c0.059-0.072,0.114-0.148,0.166-0.224c0.108-0.159,0.173-0.354,0.23-0.536
	c0.065-0.206,0.094-0.417,0.124-0.629c0.09-0.678,0.083-1.365,0.1-2.049c0.02-0.756-0.008-1.513-0.145-2.261
	c-0.057-0.314-0.153-0.625-0.273-0.921c-0.045-0.114-0.093-0.218-0.148-0.316c0.059-0.074,0.116-0.15,0.173-0.226
	C29.775,11.439,29.89,10.997,29.945,10.543z M4.467,18.032c-0.126-0.086-0.269-0.143-0.42-0.143c-0.022,0-0.043,0.01-0.065,0.012
	c-0.023-0.022-0.046-0.043-0.068-0.067c-0.054-0.078-0.102-0.158-0.145-0.242c-0.042-0.12-0.077-0.24-0.103-0.364
	c-0.023-0.267-0.014-0.533-0.006-0.802c0.008-0.295,0.008-0.589,0.014-0.884c0.011-0.594,0.019-1.195,0.085-1.788
	c0.032-0.183,0.076-0.363,0.138-0.538c0.032-0.062,0.066-0.122,0.104-0.18c0.052-0.034,0.105-0.064,0.159-0.093
	C4.3,12.893,4.44,12.853,4.58,12.813c0.113-0.032,0.209-0.094,0.292-0.168c0.626-0.023,1.252-0.052,1.878-0.057
	c0.737-0.004,1.473,0.02,2.208,0.022c0.76,0.002,1.518,0.012,2.279,0.016c0.744,0.002,1.487,0.037,2.231,0.051
	c0.471,0.01,0.941,0.008,1.412,0.006c0.295-0.002,0.589-0.002,0.884-0.002c0.77,0.004,1.542,0.012,2.312,0.026
	c0.776,0.014,1.552,0.026,2.328,0.067c0.758,0.039,1.514,0.037,2.273,0.041c0.978,0.004,1.954-0.03,2.931-0.033
	c0.299,0,0.599,0.002,0.9,0.006c0.463,0.004,0.925,0.004,1.387-0.007c0.008,0.008,0.018,0.016,0.026,0.024
	c0.029,0.049,0.056,0.099,0.081,0.15c0.121,0.332,0.207,0.665,0.265,1.011c0.065,0.574,0.079,1.15,0.081,1.727
	c0.002,0.554-0.005,1.113-0.067,1.665c-0.029,0.17-0.066,0.339-0.121,0.503c-0.005,0.01-0.012,0.02-0.017,0.03
	c-0.232,0.001-0.464,0.003-0.695,0.002c-0.228-0.002-0.456-0.004-0.682-0.004c-0.742,0-1.485,0.02-2.229,0.02
	c-0.772-0.002-1.544-0.014-2.316,0.008c-0.729,0.021-1.456,0.057-2.184,0.075c-0.929,0.022-1.856,0.016-2.785,0.012
	C16.648,18,16.047,17.998,15.448,18c-1.524,0.01-3.048,0.016-4.573,0c-0.701-0.008-1.4-0.006-2.102-0.006
	c-0.35,0.002-0.699,0.002-1.049,0c-0.55,0-1.102,0.002-1.654,0.006C5.536,18.004,5.002,18.005,4.467,18.032z M8.921,5.588
	c1.56,0.01,3.117,0,4.675-0.023c0.758-0.012,1.518-0.014,2.279-0.014c0.766,0,1.532-0.006,2.298,0.01
	c0.746,0.016,1.495,0.029,2.243,0.033c0.356,0.002,0.713,0.002,1.069,0c0.407,0,0.815-0.002,1.224,0
	c1.114,0.01,2.231,0.035,3.345,0.084c0.556,0.024,1.114,0.059,1.67,0.096c0.084,0.006,0.168,0.01,0.253,0.016
	c0.017,0.01,0.035,0.019,0.052,0.03c0.042,0.037,0.082,0.075,0.121,0.116c0.037,0.057,0.07,0.116,0.101,0.176
	c0.039,0.116,0.064,0.233,0.085,0.354c0.072,0.665,0.076,1.339,0.083,2.006c0.007,0.638,0.025,1.28-0.042,1.916
	c-0.022,0.118-0.05,0.233-0.088,0.346c-0.042,0.082-0.088,0.159-0.14,0.235c-0.06,0.068-0.127,0.129-0.192,0.191
	c-1.283,0.092-2.573,0.053-3.859,0.08c-0.752,0.014-1.505,0.026-2.255,0.016c-0.778-0.008-1.556-0.043-2.332-0.061
	c-1.518-0.035-3.035-0.037-4.553-0.047c-1.241-0.006-2.485-0.037-3.726-0.037c-0.304,0-0.609,0.002-0.913,0.006
	c-0.46,0.008-0.921,0.004-1.381,0.006c-0.487,0.002-0.974,0.016-1.461,0.024c-1.045,0.014-2.09,0.031-3.135,0.051
	c-0.072,0.001-0.137,0.024-0.203,0.044c-0.004-0.001-0.008-0.003-0.012-0.005c-0.079-0.038-0.152-0.083-0.224-0.132
	c-0.022-0.021-0.043-0.042-0.064-0.064c-0.063-0.093-0.118-0.191-0.17-0.291c-0.017-0.052-0.031-0.105-0.042-0.16
	c-0.026-0.317-0.01-0.637-0.005-0.955c0.006-0.361,0.014-0.721,0.016-1.082C3.64,7.793,3.619,7.026,3.688,6.271
	c0.024-0.134,0.055-0.264,0.097-0.393c0.036-0.074,0.078-0.144,0.12-0.215c0.033,0.004,0.062,0.02,0.096,0.019
	c0.864-0.012,1.727-0.069,2.591-0.09C7.369,5.574,8.145,5.584,8.921,5.588z M21.988,24.888c-0.336,0-0.67,0.002-1.006,0.004
	c-0.426,0.002-0.852,0.006-1.277,0c-0.766-0.012-1.53-0.029-2.296-0.029c-0.367,0-0.733,0.025-1.098,0.027
	c-0.391,0.004-0.782,0.002-1.171,0c-0.76-0.002-1.518,0-2.279,0.014c-0.774,0.016-1.548,0.01-2.324,0.008
	c-1.006,0-2.011,0.012-3.017,0.033c-0.965,0.022-1.933-0.012-2.899-0.023c-0.03-0.012-0.057-0.037-0.088-0.043
	c-0.121-0.021-0.236-0.046-0.35-0.083c-0.082-0.043-0.16-0.093-0.236-0.147c-0.104-0.085-0.207-0.174-0.299-0.273
	c-0.02-0.033-0.039-0.067-0.057-0.101c-0.015-0.048-0.027-0.096-0.037-0.145c-0.018-0.254-0.017-0.51-0.021-0.763
	c-0.006-0.302-0.008-0.603-0.01-0.906c-0.006-0.598-0.002-1.198,0.06-1.793c0.03-0.208,0.069-0.415,0.137-0.615
	c0.057-0.117,0.12-0.23,0.193-0.338c0.04-0.044,0.082-0.084,0.126-0.124c0.041-0.031,0.078-0.067,0.119-0.098
	c0.071,0.022,0.143,0.044,0.221,0.039c0.77-0.049,1.536-0.081,2.308-0.077c0.717,0.004,1.436,0.01,2.153,0.012
	c0.621,0.002,1.241-0.004,1.864-0.008c0.858-0.008,1.717-0.016,2.575-0.006c1.512,0.02,3.025,0.031,4.537,0.024
	c0.768-0.004,1.536-0.012,2.304-0.045c0.758-0.033,1.516-0.031,2.275-0.047c1.11-0.024,2.22-0.033,3.327-0.018
	c0.665,0.01,1.331,0.019,1.995,0.037c0.023,0.035,0.039,0.072,0.066,0.105c0.042,0.061,0.08,0.125,0.114,0.191
	c0.073,0.212,0.118,0.429,0.154,0.651c0.072,0.679,0.06,1.369,0.054,2.05c-0.004,0.367-0.014,0.735-0.029,1.102
	c-0.016,0.348-0.027,0.698-0.061,1.046c-0.028,0.159-0.073,0.313-0.124,0.465c-0.377-0.012-0.754-0.024-1.132-0.032
	c-0.803-0.016-1.605-0.035-2.408-0.061C23.565,24.898,22.777,24.892,21.988,24.888z M6.051,8.639c0-0.445,0.374-0.819,0.819-0.819
	s0.82,0.374,0.82,0.819c0,0.446-0.374,0.82-0.82,0.82S6.051,9.085,6.051,8.639z M22.178,8.666c0-0.408,0.338-0.746,0.746-0.746
	s0.746,0.338,0.746,0.746s-0.338,0.746-0.746,0.746S22.178,9.074,22.178,8.666z M24.519,8.696c0-0.408,0.338-0.746,0.746-0.746
	c0.408,0,0.746,0.338,0.746,0.746s-0.338,0.746-0.746,0.746C24.857,9.441,24.519,9.103,24.519,8.696z M5.86,15.658
	c0-0.39,0.325-0.717,0.717-0.717c0.39,0,0.717,0.327,0.717,0.717s-0.325,0.717-0.717,0.717C6.188,16.375,5.86,16.048,5.86,15.658z
	 M22.319,15.613c0-0.404,0.338-0.742,0.742-0.742c0.404,0,0.742,0.338,0.742,0.742c0,0.404-0.338,0.741-0.742,0.741
	C22.657,16.355,22.319,16.017,22.319,15.613z M24.817,15.734c0-0.389,0.323-0.712,0.712-0.712c0.389,0,0.712,0.323,0.712,0.712
	s-0.323,0.712-0.712,0.712C25.14,16.446,24.817,16.123,24.817,15.734z M7.493,22.632c0,0.373-0.313,0.686-0.686,0.686
	c-0.373,0-0.686-0.313-0.686-0.686c0-0.373,0.313-0.686,0.686-0.686C7.179,21.946,7.493,22.259,7.493,22.632z M23.703,22.447
	c0,0.44-0.368,0.808-0.808,0.808c-0.44,0-0.808-0.368-0.808-0.808s0.368-0.808,0.808-0.808
	C23.336,21.639,23.703,22.007,23.703,22.447z M26.043,22.589c0,0.355-0.296,0.65-0.651,0.65c-0.355,0-0.65-0.296-0.65-0.65
	s0.296-0.65,0.65-0.65C25.747,21.938,26.043,22.234,26.043,22.589z"/>
</svg>