<?xml version="1.0" encoding="utf-8"?>
<!-- Generator: Adobe Illustrator 21.1.0, SVG Export Plug-In . SVG Version: 6.00 Build 0)  -->
<svg version="1.1" id="designs" xmlns="http://www.w3.org/2000/svg" xmlns:xlink="http://www.w3.org/1999/xlink" x="0px" y="0px"
	 width="32px" height="32px" viewBox="0 0 32 32" style="enable-background:new 0 0 32 32;" xml:space="preserve">
<style type="text/css">
	.sketchy_een{fill:#111918;}
</style>
<path class="sketchy_een" d="M25.538,5.167c-0.111,0.001-0.223,0-0.335,0.001c0.019-0.807,0.048-1.614,0.054-2.421
	C25.261,2.339,24.916,2,24.512,2c-0.153,0-0.29,0.06-0.41,0.143c-0.037,0.004-0.074,0.005-0.111,0.015c-0.001,0-0.003,0-0.004,0
	c-0.516,0.061-1.037,0.074-1.556,0.07c-0.732-0.004-1.463-0.002-2.194,0.002c-0.796,0.004-1.591,0.004-2.385,0.008
	c-0.794,0.002-1.589,0.032-2.381,0.034c-0.911,0.002-1.823,0.008-2.735-0.012c-0.985-0.022-1.97-0.068-2.955-0.106
	C9.751,2.152,9.726,2.167,9.698,2.169C9.599,2.122,9.491,2.092,9.374,2.092c-0.411,0-0.789,0.353-0.775,0.775
	c0.019,0.594,0.046,1.187,0.048,1.779C8.647,4.885,8.64,5.125,8.638,5.364C8.35,5.375,8.062,5.386,7.773,5.4
	C7.605,5.41,7.438,5.408,7.27,5.406C7.102,5.404,6.935,5.402,6.767,5.41C6.626,5.417,6.498,5.464,6.381,5.527
	C5.981,5.563,5.636,5.9,5.647,6.315c0.019,0.882,0.059,1.766,0.055,2.65C5.7,9.386,5.694,9.807,5.689,10.228
	c-0.002,0.206-0.006,0.414-0.013,0.619c-0.002,0.07-0.01,0.139-0.013,0.208c0,0.002,0.001,0.004,0.001,0.004
	c-0.006,0.02-0.02,0.034-0.025,0.052c-0.055,0.198-0.027,0.414,0.076,0.591c0.089,0.152,0.274,0.328,0.459,0.353
	c0.622,0.083,1.247,0.157,1.871,0.236c0.539,0.081,1.075,0.173,1.613,0.27c0.572,0.103,1.153,0.171,1.729,0.245
	c-0.01-0.001-0.02-0.003-0.03-0.004c0.017,0.002,0.033,0.004,0.05,0.007c0.046,0.006,0.092,0.012,0.139,0.018
	c-0.014-0.002-0.027-0.003-0.041-0.005c0.031,0.004,0.062,0.008,0.094,0.013c-0.041-0.005-0.083-0.011-0.124-0.016
	c0.01,0.001,0.02,0.002,0.03,0.003c-0.033-0.004-0.065-0.008-0.098-0.013c-0.007-0.001-0.013-0.001-0.02-0.002
	c0.016,0.002,0.032,0.004,0.048,0.006c-0.009-0.001-0.018-0.002-0.027-0.003c0.145,0.02,0.288,0.039,0.431,0.058
	c0.501,0.067,1.005,0.126,1.508,0.192c0.566,0.081,1.134,0.143,1.705,0.192c0.259,0.021,0.518,0.055,0.777,0.082
	c0.094,0.01,0.187,0.019,0.281,0.027c-0.015,0.315-0.03,0.63-0.044,0.946c-0.013,0.296-0.046,0.595-0.055,0.893
	c-0.218-0.005-0.435-0.019-0.652-0.019c-0.298,0-0.596,0.004-0.893,0.013c-0.293,0.009-0.543,0.17-0.688,0.403
	c-0.386,0.05-0.699,0.374-0.697,0.773c0.002,0.827-0.027,1.653-0.032,2.482c-0.006,0.834-0.01,1.671-0.025,2.505
	c-0.032,1.604-0.082,3.208-0.086,4.812c0,0.49-0.008,0.977-0.004,1.465c0.002,0.459,0.01,0.922-0.017,1.381
	c-0.023,0.375,0.279,0.68,0.627,0.764c0.143,0.143,0.334,0.236,0.544,0.221c0.51-0.038,1.019-0.08,1.528-0.109
	c0.472-0.026,0.945-0.045,1.417-0.074c0.436-0.026,0.874-0.034,1.311-0.04c0.444-0.007,0.886-0.013,1.328,0.012
	c0.045,0.003,0.085-0.016,0.128-0.023c0.002,0,0.004,0.001,0.006,0.001c0.038,0,0.073-0.017,0.11-0.022
	c0.013-0.005,0.029-0.002,0.041-0.008c0.157-0.031,0.307-0.092,0.42-0.206c0.139-0.141,0.255-0.368,0.236-0.571
	c-0.049-0.564-0.049-1.132-0.063-1.697c-0.017-0.72-0.027-1.442-0.044-2.162c-0.019-0.802-0.04-1.602-0.088-2.402
	c-0.046-0.8-0.084-1.6-0.128-2.4c-0.034-0.646-0.088-1.29-0.08-1.938c0.008-0.737,0.011-1.472,0.015-2.209
	c0.003-0.341-0.234-0.625-0.547-0.724c-0.119-0.082-0.254-0.141-0.407-0.135c-0.335,0.013-0.672,0.011-1.01,0.006
	c-0.236-0.003-0.472-0.023-0.708-0.039c0.001-0.01,0.006-0.018,0.006-0.028c0.019-0.747,0.109-1.492,0.156-2.236
	c0.018-0.294-0.172-0.547-0.421-0.684c-0.008-0.017-0.008-0.037-0.018-0.053c-0.147-0.248-0.387-0.358-0.663-0.381
	c-0.429-0.035-0.859-0.05-1.286-0.086c-0.52-0.043-1.04-0.091-1.558-0.143c-0.957-0.093-1.912-0.197-2.866-0.322
	c-0.706-0.101-1.402-0.239-2.1-0.377c-0.509-0.1-1.023-0.176-1.536-0.256c-0.011-0.248-0.012-0.496-0.018-0.744
	C7.243,9.565,7.23,9.184,7.23,8.801C7.227,8.22,7.236,7.639,7.242,7.058c0.46-0.022,0.921-0.039,1.382-0.047c0,0.021,0,0.04,0,0.061
	C8.621,7.315,8.608,7.559,8.615,7.803c0.01,0.263,0.027,0.527,0.038,0.791c0.006,0.155,0.013,0.31,0.023,0.465
	C8.636,9.154,8.613,9.257,8.613,9.362c0,0.446,0.366,0.794,0.804,0.804c0.846,0.017,1.693-0.011,2.541-0.019
	c0.747-0.006,1.492,0.038,2.24,0.055c1.594,0.034,3.187,0.014,4.781,0.076c0.448,0.017,0.897,0.025,1.345,0.036
	c0.44,0.012,0.876,0.031,1.316,0.027c0.425-0.004,0.848-0.006,1.272-0.004c0.385,0,0.77,0.019,1.154,0.013
	c0.009,0,0.017-0.005,0.026-0.005c0.126,0.103,0.279,0.173,0.455,0.173c0.383,0,0.779-0.341,0.747-0.747
	c-0.017-0.221-0.044-0.438-0.048-0.659c-0.006-0.251-0.002-0.503-0.006-0.754c-0.007-0.495-0.024-0.991-0.041-1.486
	c0.112-0.001,0.225-0.001,0.337-0.003c0.465-0.008,0.852-0.383,0.852-0.852C26.39,5.555,26.003,5.167,25.538,5.167z M18.691,16.78
	c0.003,0.656,0.009,1.314,0.058,1.966c0.061,0.833,0.122,1.665,0.154,2.501c0.03,0.81,0.055,1.621,0.074,2.432
	c0.017,0.768,0.006,1.534,0.011,2.301c0.006,0.783,0.003,1.565,0.005,2.348c-0.402,0.007-0.804,0.018-1.207,0.018
	c-0.234-0.002-0.471-0.002-0.705-0.002c-0.86,0.002-1.72,0.009-2.58,0.045c-0.008-0.493-0.001-0.988-0.005-1.48
	c-0.008-0.764-0.011-1.525-0.011-2.29c0.002-0.821-0.002-1.64,0.019-2.461c0.017-0.794,0.021-1.587,0.03-2.381
	c0.006-0.569,0.023-1.139,0.053-1.708c0.021-0.415,0.039-0.828,0.056-1.242c0.788-0.032,1.578-0.046,2.368-0.071
	c0.419-0.012,0.832-0.008,1.25,0.017C18.405,16.782,18.548,16.777,18.691,16.78z M21.956,8.773c-0.305,0-0.61,0.002-0.914,0.006
	c-0.427,0.004-0.853,0.01-1.278,0c-1.604-0.034-3.208-0.065-4.812-0.065c-0.88,0-1.758-0.051-2.636-0.074
	c-0.469-0.013-0.935-0.009-1.402-0.023C10.681,8.61,10.447,8.6,10.214,8.591c-0.01-0.248-0.017-0.495-0.027-0.742
	c-0.023-0.513-0.019-1.027-0.025-1.54c-0.008-0.531-0.021-1.061-0.021-1.59c0-0.317,0.002-0.633,0.005-0.95
	c0.313,0.002,0.627,0.003,0.941,0c0.389-0.005,0.775-0.009,1.164-0.005c0.754,0.009,1.507,0.017,2.259,0.015
	c1.613-0.004,3.227-0.065,4.842-0.063c0.907,0,1.815,0.021,2.722,0.021c0.419,0,0.838-0.004,1.257-0.013
	c0.15-0.004,0.299-0.018,0.449-0.03c0.006,0.349,0.01,0.699,0.002,1.048c-0.013,0.63-0.04,1.263-0.032,1.896
	c0.009,0.71,0.022,1.42,0.035,2.13C23.176,8.77,22.567,8.775,21.956,8.773z M11.759,12.856c0.027,0.003,0.054,0.007,0.08,0.01
	c0.036,0.005,0.072,0.009,0.108,0.015C11.884,12.874,11.821,12.864,11.759,12.856z M16.735,25.557c0.314,0,0.577,0.263,0.577,0.577
	c0,0.314-0.263,0.577-0.577,0.577s-0.577-0.263-0.577-0.577C16.158,25.82,16.421,25.557,16.735,25.557z"/>
</svg>