<?xml version="1.0" encoding="utf-8"?>
<!-- Generator: Adobe Illustrator 21.1.0, SVG Export Plug-In . SVG Version: 6.00 Build 0)  -->
<svg version="1.1" id="designs" xmlns="http://www.w3.org/2000/svg" xmlns:xlink="http://www.w3.org/1999/xlink" x="0px" y="0px"
	 width="32px" height="32px" viewBox="0 0 32 32" style="enable-background:new 0 0 32 32;" xml:space="preserve">
<style type="text/css">
	.sketchy_een{fill:#111918;}
</style>
<path class="sketchy_een" d="M25.218,3.783c-0.01-0.236-0.044-0.472-0.096-0.704c-0.104-0.472-0.466-0.83-0.859-1.085
	c-0.265-0.171-0.562-0.288-0.859-0.399c-0.207-0.077-0.422-0.14-0.637-0.19c-0.516-0.121-1.041-0.188-1.567-0.249
	c-0.865-0.103-1.741-0.119-2.612-0.134c-0.907-0.015-1.816-0.006-2.723-0.017C15.515,1.002,15.166,1,14.817,1
	c-1.368,0-2.734,0.032-4.098,0.146c-0.401,0.031-0.805,0.075-1.204,0.125C9.28,1.3,9.048,1.329,8.818,1.38
	C8.421,1.465,8.074,1.68,7.764,1.935c-0.389,0.32-0.591,0.782-0.742,1.25C6.878,3.643,6.86,4.109,6.975,4.573
	c0.014,0.054,0.025,0.109,0.036,0.164C6.938,4.863,6.885,5,6.885,5.154c-0.008,1.78-0.031,3.563-0.079,5.341
	c-0.046,1.707-0.029,3.419,0.004,5.124c0.019,0.869,0.031,1.739,0.029,2.61c-0.002,0.825-0.017,1.653-0.004,2.481
	c0.021,1.628,0.017,3.256-0.046,4.882c-0.002,0.063-0.004,0.123-0.008,0.184c-0.008,0.179,0.06,0.338,0.156,0.479
	c-0.001,0.002-0.004,0.004-0.005,0.006c-0.123,0.211-0.134,0.43-0.088,0.667c0.098,0.493,0.374,0.995,0.75,1.331
	c0.407,0.362,0.947,0.608,1.475,0.729c0.377,0.084,0.76,0.108,1.143,0.124c-0.023,0.085-0.052,0.168-0.045,0.26
	c0.017,0.215,0.031,0.433,0.05,0.648c0.021,0.267,0.092,0.499,0.286,0.694C10.687,30.896,10.938,31,11.197,31
	c0.51,0,1.009-0.445,0.978-0.98c-0.013-0.215-0.025-0.433-0.04-0.648c-0.005-0.075-0.032-0.142-0.051-0.213
	c0.832,0.004,1.662,0.008,2.493,0.027c0.907,0.021,1.81,0.065,2.715,0.109c0.634,0.03,1.268,0.058,1.902,0.074
	c0.001,0.206,0,0.411,0.005,0.617c0.008,0.493,0.405,0.907,0.907,0.907c0.487,0,0.915-0.414,0.907-0.907
	c-0.005-0.212,0.001-0.424,0.004-0.636c0.152-0.01,0.304-0.018,0.455-0.037c0.309-0.038,0.629-0.069,0.93-0.157
	c0.295-0.086,0.575-0.224,0.844-0.37c0.013-0.007,0.02-0.021,0.032-0.028c0.184-0.017,0.394-0.086,0.507-0.228
	c0.249-0.312,0.502-0.623,0.683-0.98c0.201-0.395,0.286-0.813,0.341-1.245c0.052-0.408,0.065-0.817,0.081-1.227
	c0.031-0.819,0.046-1.638,0.05-2.458c0.008-1.68-0.019-3.362,0.01-5.043c0.015-0.855,0.054-1.712,0.086-2.566
	c0.033-0.85,0.094-1.699,0.09-2.552c-0.006-1.745-0.006-3.49-0.021-5.233c-0.005-0.596-0.011-1.191-0.011-1.786
	c0.047-0.108,0.076-0.227,0.082-0.351C25.193,4.656,25.237,4.217,25.218,3.783z M8.651,3.925c0.034-0.164,0.081-0.322,0.138-0.479
	C8.812,3.402,8.836,3.36,8.862,3.318C8.89,3.287,8.92,3.258,8.95,3.23C9.009,3.192,9.07,3.156,9.132,3.124
	C9.285,3.077,9.44,3.046,9.598,3.022c0.757-0.095,1.514-0.156,2.275-0.209c0.857-0.058,1.72-0.1,2.579-0.109
	c0.892-0.008,1.785-0.021,2.675-0.019c0.867,0.002,1.737,0,2.602,0.046c0.481,0.027,0.96,0.064,1.437,0.12
	c0.608,0.089,1.205,0.209,1.781,0.43c0.132,0.061,0.26,0.127,0.384,0.208c0.024,0.021,0.047,0.043,0.07,0.066
	c0.009,0.035,0.017,0.07,0.024,0.105c-0.006,0.278-0.007,0.556-0.005,0.834c-0.012,0.2-0.028,0.4-0.036,0.597
	c-0.003,0.083,0.023,0.158,0.044,0.234c0.006,0.296,0.013,0.593,0.019,0.889c0.019,0.865,0.019,1.728,0.019,2.594
	c0,0.868,0.005,1.736,0,2.604c-0.729-0.027-1.461-0.025-2.19-0.027c-0.84-0.002-1.682,0.002-2.524,0.002
	c-1.623-0.002-3.244-0.017-4.867-0.017c-0.101,0-0.202,0-0.303,0c-0.863,0-1.728,0.002-2.591,0.017
	c-0.852,0.016-1.704,0.046-2.556,0.027c0.006-0.272,0.005-0.544,0.013-0.815c0.025-0.848,0.04-1.695,0.058-2.543
	C8.525,7.158,8.58,6.261,8.596,5.365c0.001-0.036,0.001-0.072,0.001-0.109c0.067-0.122,0.117-0.255,0.126-0.403
	C8.739,4.6,8.693,4.35,8.651,4.1C8.649,4.041,8.649,3.984,8.651,3.925z M21.955,27.347c-0.186,0.065-0.376,0.105-0.573,0.136
	c-0.804,0.087-1.618,0.085-2.423,0.075c-0.894-0.008-1.791-0.058-2.683-0.109c-1.799-0.1-3.601-0.104-5.4-0.14
	c-0.436-0.01-0.875-0.005-1.308-0.047c-0.18-0.033-0.353-0.078-0.526-0.142c-0.098-0.046-0.193-0.097-0.284-0.156
	c-0.025-0.023-0.049-0.046-0.072-0.071c-0.042-0.067-0.081-0.135-0.118-0.205c-0.024-0.072-0.043-0.145-0.057-0.222
	c-0.015-0.078-0.052-0.145-0.09-0.21c0.095-0.142,0.164-0.302,0.161-0.482c-0.027-1.63-0.029-3.26-0.061-4.89
	c-0.036-1.682-0.042-3.365-0.086-5.045c-0.023-0.91-0.031-1.82-0.028-2.73c0.839,0.009,1.673-0.061,2.511-0.091
	c0.865-0.031,1.73-0.031,2.598-0.036c1.718-0.004,3.438-0.017,5.157-0.021c0.844,0,1.691,0.004,2.535,0.002
	c0.738,0,1.478,0.018,2.215,0.061c-0.01,0.344-0.009,0.689-0.027,1.033c-0.044,0.825-0.098,1.651-0.125,2.479
	c-0.029,0.851-0.04,1.701-0.048,2.552c-0.017,1.67,0.015,3.339-0.006,5.009c-0.008,0.711-0.016,1.425-0.088,2.135
	c-0.031,0.188-0.076,0.37-0.138,0.551c-0.052,0.1-0.125,0.187-0.185,0.281c-0.172-0.005-0.346,0.018-0.506,0.105
	C22.184,27.23,22.071,27.291,21.955,27.347z M21.282,15.738c-0.031,0.934-0.067,1.866-0.09,2.8c-0.01,0.47-0.382,0.863-0.863,0.863
	c-0.46,0-0.878-0.391-0.863-0.863c0.029-0.932,0.029-1.866,0.054-2.8c0.015-0.481,0.391-0.88,0.882-0.88
	C20.871,14.858,21.299,15.257,21.282,15.738z M19.71,8.928c0.008-0.761-0.04-1.523-0.067-2.286
	c-0.017-0.472,0.407-0.867,0.869-0.867c0.483,0,0.857,0.395,0.869,0.867c0.017,0.763,0.01,1.526,0.029,2.286
	c0.013,0.464-0.395,0.85-0.851,0.85C20.101,9.779,19.704,9.392,19.71,8.928z"/>
</svg>