<?xml version="1.0" encoding="utf-8"?>
<!-- Generator: Adobe Illustrator 21.1.0, SVG Export Plug-In . SVG Version: 6.00 Build 0)  -->
<svg version="1.1" id="designs" xmlns="http://www.w3.org/2000/svg" xmlns:xlink="http://www.w3.org/1999/xlink" x="0px" y="0px"
	 width="32px" height="32px" viewBox="0 0 32 32" style="enable-background:new 0 0 32 32;" xml:space="preserve">
<style type="text/css">
	.sketchy_een{fill:#111918;}
</style>
<path class="sketchy_een" d="M26.018,27.362c-0.004-0.293-0.037-0.591-0.055-0.885c-0.02-0.353-0.037-0.705-0.063-1.056
	c-0.052-0.683-0.105-1.368-0.151-2.054c-0.05-0.755-0.092-1.512-0.103-2.27c-0.011-0.848,0.013-1.697,0.017-2.545
	c0-0.071-0.022-0.135-0.041-0.201c0.007-0.045,0.027-0.087,0.027-0.133c0-0.469-0.386-0.838-0.848-0.848
	c-0.057-0.001-0.115-0.003-0.172-0.007c-0.162-0.03-0.32-0.071-0.475-0.127c-0.155-0.079-0.3-0.175-0.442-0.278
	c-0.087-0.075-0.168-0.155-0.244-0.24c-0.008-0.012-0.015-0.025-0.022-0.037c-0.018-0.056-0.034-0.111-0.046-0.168
	c-0.017-0.244-0.007-0.488,0.019-0.732c0.033-0.175,0.079-0.346,0.14-0.512c0.08-0.164,0.173-0.317,0.278-0.466
	c0.063-0.07,0.129-0.132,0.2-0.193c0.2-0.138,0.412-0.25,0.633-0.349c0.036-0.015,0.072-0.03,0.108-0.044
	c0.216-0.09,0.39-0.185,0.512-0.395c0.005-0.009,0.005-0.02,0.01-0.029c0.152-0.139,0.252-0.332,0.235-0.543
	c-0.03-0.355-0.037-0.711-0.055-1.066c-0.02-0.382-0.037-0.763-0.044-1.143c-0.015-0.7-0.087-1.394-0.107-2.092
	c-0.042-1.469-0.013-2.938,0.001-4.406c0.164-0.105,0.289-0.263,0.341-0.451c0.055-0.205,0.026-0.427-0.079-0.609
	c-0.092-0.157-0.283-0.336-0.473-0.362c-0.236-0.033-0.46-0.052-0.696-0.05c-0.196,0.002-0.391,0-0.585-0.006
	c-0.395-0.009-0.789-0.009-1.184-0.011c-0.833-0.002-1.666-0.033-2.501-0.044C19.599,3.003,19.047,3,18.495,3
	c-1.104,0-2.209,0.011-3.312,0.016c-1.326,0.006-2.65,0.044-3.976,0.048c-0.737,0.004-1.474-0.004-2.211-0.009
	C8.336,3.048,7.679,3.042,7.02,3.042c-0.449,0-0.824,0.375-0.824,0.825c0,0.142,0.048,0.271,0.115,0.39
	C6.31,4.273,6.302,4.287,6.302,4.302c0.006,0.864,0.024,1.729,0.004,2.593C6.287,7.697,6.269,8.498,6.27,9.302
	c0.002,0.772,0.011,1.544,0.017,2.318c0.005,0.645,0.024,1.293-0.004,1.938c-0.023,0.029-0.054,0.05-0.073,0.083
	c-0.115,0.198-0.146,0.438-0.085,0.657c0.041,0.144,0.113,0.268,0.22,0.375c0.105,0.105,0.231,0.179,0.375,0.22
	c0.06,0.024,0.119,0.05,0.179,0.074c0.351,0.155,0.672,0.343,0.981,0.567c0.043,0.038,0.083,0.077,0.121,0.118
	c0.083,0.121,0.154,0.247,0.217,0.38c0.11,0.284,0.204,0.575,0.258,0.875c0.003,0.052,0.005,0.103,0.004,0.155
	c-0.018,0.073-0.039,0.144-0.064,0.214c-0.036,0.071-0.075,0.139-0.118,0.205c-0.07,0.079-0.144,0.153-0.224,0.223
	c-0.168,0.116-0.348,0.211-0.533,0.295c-0.191,0.071-0.389,0.124-0.583,0.182c-0.067-0.02-0.134-0.042-0.207-0.042
	c-0.417,0-0.77,0.349-0.768,0.768c0.005,1.546,0.026,3.092,0.017,4.637c-0.006,0.709-0.017,1.417,0.006,2.126
	c0.013,0.345,0.015,0.69,0.013,1.036c-0.002,0.277-0.026,0.582,0.042,0.853c0.025,0.097,0.074,0.182,0.134,0.26
	C6.153,27.915,6.13,28.02,6.13,28.127c0,0.443,0.368,0.802,0.807,0.807c0.388,0.005,0.776,0.002,1.164-0.002
	c0.408-0.004,0.818-0.009,1.226-0.004c0.79,0.009,1.579,0.009,2.369,0.006c1.62-0.009,3.243-0.03,4.863-0.009
	c1.492,0.018,2.983,0.083,4.473,0.074c0.362-0.002,0.724,0,1.084-0.011c0.329-0.009,0.656-0.05,0.984-0.065
	c0.275-0.013,0.55-0.011,0.826-0.009c0.375,0.002,0.748,0.004,1.121-0.031c0.22-0.022,0.404-0.074,0.565-0.235
	c0.15-0.15,0.235-0.353,0.235-0.565c0-0.07-0.023-0.135-0.041-0.201C25.935,27.744,26.02,27.563,26.018,27.362z M23.415,16.625
	c-0.003-0.006-0.006-0.012-0.008-0.018c0-0.001,0-0.001,0-0.001l0-0.001C23.41,16.611,23.413,16.618,23.415,16.625z M23.405,16.601
	c0,0.001,0,0.001,0,0.001c-0.007-0.016-0.014-0.032-0.021-0.049C23.392,16.569,23.398,16.585,23.405,16.601z M12.735,27.416
	c-0.025-0.696-0.061-1.392-0.073-2.088c-0.011-0.794-0.009-1.59-0.004-2.384c0.009-1.494,0.028-2.988,0.028-4.484
	c-0.002-0.911,0.063-1.823,0.166-2.728c0.1-0.893,0.2-1.789,0.312-2.682c0.081-0.546,0.205-1.088,0.395-1.607
	c0.079-0.167,0.171-0.322,0.276-0.474c0.194-0.228,0.424-0.438,0.654-0.631c0.183-0.126,0.38-0.233,0.582-0.326
	c0.111-0.041,0.224-0.072,0.341-0.096c0.094-0.01,0.189-0.01,0.284-0.012c-0.006,0.772,0.005,1.544,0.02,2.317
	c0.013,0.755,0.002,1.511,0.006,2.266c0.004,1.531,0.03,3.064,0.059,4.595c0.028,1.51,0.059,3.021,0.044,4.532
	c-0.007,0.763-0.022,1.527-0.041,2.29c-0.013,0.508-0.024,1.018-0.009,1.526C14.761,27.423,13.748,27.42,12.735,27.416z
	 M17.373,27.443c-0.021-0.534-0.041-1.067-0.044-1.603c-0.002-0.77,0.011-1.542,0.017-2.312c0.006-0.794,0.011-1.592-0.002-2.386
	c-0.013-0.752-0.018-1.505-0.046-2.255c-0.055-1.489-0.054-2.981-0.052-4.469c0.001-1.258,0.001-2.513,0.015-3.77
	c0.057,0.065,0.123,0.122,0.177,0.189c0.198,0.277,0.368,0.571,0.513,0.878c0.086,0.212,0.168,0.43,0.221,0.652
	c0.057,0.242,0.101,0.486,0.137,0.732c0.09,0.72,0.165,1.443,0.188,2.17c0.026,0.794,0.018,1.59,0.026,2.386
	c0.007,0.796,0.041,1.594,0.105,2.388c0.03,0.375,0.083,0.746,0.118,1.121c0.037,0.388,0.059,0.776,0.081,1.164
	c0.05,0.914,0.02,1.826-0.011,2.741c-0.015,0.441-0.024,0.885-0.017,1.326c0.005,0.354,0.025,0.707,0.041,1.06
	c-0.081,0-0.163,0.002-0.245,0.002C18.188,27.455,17.78,27.448,17.373,27.443z M23.021,27.346c-0.342,0.013-0.681,0.052-1.021,0.066
	c-0.377,0.017-0.753,0.021-1.13,0.022c-0.126,0.001-0.252,0.002-0.377,0.003c-0.002-0.267-0.001-0.534-0.017-0.801
	c-0.022-0.353-0.03-0.706-0.031-1.06c-0.004-0.759-0.017-1.52-0.035-2.279c-0.018-0.759-0.041-1.52-0.105-2.277
	c-0.033-0.399-0.079-0.796-0.105-1.195c-0.024-0.403-0.037-0.807-0.05-1.21c-0.033-0.938-0.039-1.875-0.068-2.812
	c-0.015-0.453-0.02-0.905-0.063-1.357c-0.046-0.513-0.096-1.026-0.164-1.535c-0.045-0.344-0.089-0.691-0.182-1.023
	c-0.115-0.416-0.271-0.823-0.464-1.209c-0.183-0.368-0.421-0.711-0.683-1.029c-0.26-0.316-0.545-0.624-0.905-0.829
	c-0.347-0.198-0.739-0.309-1.123-0.414c-0.231-0.064-0.465-0.117-0.705-0.117c-0.016,0-0.031,0-0.046,0.001
	c-0.249,0.005-0.497,0.031-0.742,0.07c-0.142,0.022-0.277,0.068-0.412,0.12c-0.223,0.087-0.449,0.185-0.659,0.303
	c-0.377,0.214-0.7,0.512-1.021,0.802c-0.408,0.371-0.72,0.816-0.916,1.332c-0.126,0.331-0.222,0.674-0.297,1.019
	c-0.172,0.781-0.229,1.586-0.318,2.381c-0.085,0.753-0.15,1.513-0.201,2.268c-0.028,0.39-0.063,0.778-0.072,1.166
	c-0.007,0.336,0.007,0.672,0.009,1.008c0.004,1.446,0.035,2.894,0.033,4.34c-0.002,1.435,0.03,2.87,0.059,4.305
	c-1.21-0.014-2.42-0.042-3.63-0.071c0.005-0.073-0.005-0.15-0.008-0.224c-0.006-0.135-0.007-0.27-0.011-0.403
	c-0.011-0.345-0.011-0.691-0.02-1.036c-0.022-0.709-0.046-1.417-0.05-2.126c-0.008-1.283,0.014-2.567,0.026-3.85
	c0.007-0.004,0.015-0.002,0.021-0.006c0.009-0.004,0.018-0.008,0.027-0.012c0.284-0.113,0.572-0.215,0.851-0.345
	c0.344-0.159,0.656-0.364,0.929-0.63c0.153-0.147,0.284-0.316,0.403-0.493c0.116-0.174,0.188-0.377,0.268-0.567
	c0.172-0.41,0.116-0.844,0.05-1.269c-0.05-0.301-0.163-0.595-0.275-0.877c-0.157-0.399-0.347-0.742-0.635-1.062
	c-0.126-0.14-0.295-0.246-0.445-0.356c-0.12-0.089-0.242-0.176-0.366-0.257c-0.152-0.1-0.311-0.186-0.473-0.265
	c0.039-1.418,0.009-2.836,0.024-4.254c0.007-0.78,0.002-1.559,0.024-2.336c0.022-0.762,0.048-1.525,0.06-2.29
	c0.566-0.009,1.133-0.018,1.699-0.028c0.792-0.015,1.583-0.019,2.375-0.037c0.82-0.018,1.642-0.05,2.462-0.061
	c0.837-0.013,1.675-0.013,2.512-0.011c0.347,0.002,0.696,0,1.043-0.002c0.995-0.002,1.991-0.008,2.986,0.03
	c0.641,0.022,1.284,0.039,1.926,0.061c0.236,0.009,0.475,0.007,0.711,0.005c0.034,0,0.068,0.003,0.102,0.003
	c0.008,0.662,0.019,1.323,0.023,1.984c0.006,0.74-0.005,1.479,0.009,2.22c0.015,0.685,0.076,1.368,0.094,2.054
	c0.011,0.386,0.017,0.772,0.035,1.158c0.01,0.22,0.023,0.44,0.036,0.661c-0.21,0.093-0.418,0.19-0.618,0.307
	c-0.297,0.175-0.609,0.382-0.822,0.657c-0.118,0.153-0.236,0.305-0.344,0.466c-0.12,0.181-0.207,0.384-0.292,0.583
	c-0.131,0.316-0.175,0.641-0.22,0.977c-0.05,0.391-0.042,0.794,0.028,1.184c0.081,0.441,0.32,0.82,0.632,1.136
	c0.135,0.137,0.299,0.248,0.454,0.36c0.275,0.201,0.563,0.342,0.883,0.464c0.153,0.059,0.316,0.096,0.48,0.128
	c0.012,1.466,0.056,2.929,0.141,4.394c0.037,0.685,0.055,1.37,0.096,2.054c0.022,0.353,0.031,0.704,0.048,1.056
	c0.013,0.276,0.017,0.554,0.036,0.83c-0.128,0.007-0.257,0.014-0.385,0.016C23.743,27.332,23.383,27.335,23.021,27.346z
	 M19.858,12.95c-0.002-0.013-0.004-0.026-0.005-0.039c0-0.002,0-0.005-0.001-0.008C19.854,12.919,19.856,12.935,19.858,12.95z"/>
</svg>