<?xml version="1.0" encoding="utf-8"?>
<!-- Generator: Adobe Illustrator 21.1.0, SVG Export Plug-In . SVG Version: 6.00 Build 0)  -->
<svg version="1.1" id="designs" xmlns="http://www.w3.org/2000/svg" xmlns:xlink="http://www.w3.org/1999/xlink" x="0px" y="0px"
	 width="32px" height="32px" viewBox="0 0 32 32" style="enable-background:new 0 0 32 32;" xml:space="preserve">
<style type="text/css">
	.sketchy_een{fill:#111918;}
</style>
<path class="sketchy_een" d="M29.903,24.876c-0.027-0.779-0.037-1.558-0.037-2.339c-0.002-1.56-0.006-3.118-0.029-4.678
	c-0.023-1.593-0.077-3.186-0.116-4.779c-0.043-1.635-0.044-3.269-0.027-4.906c0.012-1.117,0.027-2.237,0.035-3.354
	c0.004-0.421-0.352-0.771-0.771-0.771c-0.051,0-0.096,0.02-0.144,0.03c-0.1-0.041-0.207-0.063-0.315-0.063
	c-0.238,0-0.418,0.099-0.595,0.248c-0.885,0.739-1.758,1.491-2.664,2.205c-0.665,0.511-1.334,1.017-2.006,1.52
	c-0.721,0.539-1.442,1.079-2.136,1.655c-0.665,0.555-1.33,1.114-2.003,1.661c-0.472,0.384-0.95,0.758-1.428,1.134
	c-0.024-0.248-0.049-0.495-0.063-0.743c-0.041-0.706-0.046-1.413-0.05-2.121c-0.014-1.543-0.002-3.082-0.07-4.624
	c-0.019-0.423-0.34-0.777-0.777-0.777c-0.157,0-0.303,0.064-0.432,0.152c-0.109-0.055-0.229-0.089-0.349-0.089
	c-0.126,0-0.25,0.034-0.359,0.109c-0.651,0.454-1.276,0.947-1.908,1.429c-0.605,0.462-1.21,0.926-1.815,1.386
	c-0.638,0.485-1.286,0.957-1.929,1.43c-0.7,0.516-1.382,1.052-2.047,1.61c-0.558,0.469-1.118,0.934-1.692,1.385
	c-1.207,0.904-2.439,1.772-3.657,2.663c-0.172,0.124-0.3,0.253-0.358,0.464c-0.002,0.007,0,0.015-0.002,0.022
	C2.064,14.862,2,15.01,2,15.17c0,0.18,0.073,0.412,0.218,0.528c1.251,1.009,2.529,1.983,3.756,3.02c0.58,0.491,1.146,1,1.722,1.496
	c0.57,0.493,1.146,0.982,1.719,1.479c0.541,0.47,1.098,0.924,1.641,1.394c0.572,0.495,1.127,1.007,1.688,1.516
	c0.536,0.483,1.086,0.949,1.641,1.407c0.599,0.497,1.214,0.974,1.794,1.492c0.164,0.146,0.37,0.214,0.573,0.207
	c0.108,0.06,0.226,0.104,0.358,0.104c0.41,0,0.773-0.348,0.766-0.764c-0.031-1.456-0.062-2.911-0.079-4.367
	c-0.008-0.721-0.029-1.442-0.043-2.163c-0.008-0.413-0.012-0.824-0.016-1.236c0.561,0.44,1.125,0.876,1.699,1.298
	c0.636,0.468,1.268,0.941,1.912,1.4c0.605,0.427,1.206,0.854,1.798,1.301c-0.008-0.006-0.015-0.012-0.023-0.018
	c0.104,0.08,0.207,0.159,0.311,0.24c-0.052-0.041-0.106-0.081-0.159-0.122c0.854,0.659,1.692,1.342,2.527,2.026
	c0.418,0.342,0.841,0.677,1.257,1.021c0.431,0.356,0.851,0.723,1.274,1.09c0.093,0.081,0.194,0.136,0.302,0.175
	c0.142,0.173,0.347,0.291,0.588,0.291c0.412,0,0.789-0.352,0.775-0.775C29.973,26.433,29.928,25.655,29.903,24.876z M15.521,24.879
	c-0.597-0.493-1.187-0.994-1.763-1.51c-0.566-0.508-1.123-1.022-1.705-1.514c-0.578-0.487-1.16-0.968-1.73-1.461
	c-1.108-0.959-2.212-1.923-3.329-2.871c-0.984-0.836-1.991-1.647-2.995-2.461c1.07-0.798,2.031-1.518,3.08-2.342
	c0.545-0.431,1.082-0.865,1.61-1.317c0.512-0.436,1.053-0.805,1.583-1.219c0.487-0.359,0.975-0.713,1.458-1.076
	c0.497-0.373,0.986-0.758,1.483-1.131c0.913-0.689,1.84-1.363,2.788-2.006c0.051,1.218,0.055,2.362,0.049,3.582
	c-0.002,0.692-0.012,1.386,0.023,2.078c0.034,0.654,0.092,1.307,0.144,1.959c-0.674,0.535-1.347,1.07-2.017,1.609
	c-0.164,0.133-0.247,0.398-0.247,0.603c0,0.148,0.051,0.287,0.124,0.415c0.002,0.009-0.001,0.017,0.002,0.026
	c0.06,0.222,0.195,0.35,0.371,0.483c0.47,0.356,0.938,0.711,1.404,1.071c-0.007-0.006-0.014-0.011-0.021-0.017
	c0.133,0.104,0.266,0.209,0.399,0.314c0,0.007-0.004,0.013-0.004,0.02c0.041,1.506,0.095,3.01,0.101,4.516
	c0.003,1.028,0.008,1.893,0.015,2.92C16.03,25.301,15.829,25.133,15.521,24.879z M27.58,24.87c-0.597-0.491-1.187-0.99-1.79-1.473
	c-0.702-0.561-1.404-1.125-2.119-1.666c-0.619-0.468-1.258-0.905-1.889-1.355c-0.871-0.622-1.73-1.26-2.582-1.908
	c-0.592-0.464-1.171-0.945-1.758-1.419c-0.476-0.384-0.959-0.759-1.441-1.135c1.13-0.928,2.251-1.866,3.388-2.785
	c1.211-0.979,2.403-1.981,3.625-2.949c0.466-0.355,0.943-0.696,1.415-1.046c0.536-0.4,1.069-0.806,1.607-1.207
	c0.739-0.55,1.425-1.059,2.133-1.649c0.009,1.261,0.022,2.446,0.014,3.706c-0.006,0.829-0.017,1.659-0.004,2.488
	c0.014,0.775,0.027,1.55,0.043,2.326c0.029,1.581,0.062,3.165,0.072,4.748c0.006,0.814,0.015,1.63,0.019,2.444
	c0.004,0.773,0.004,1.546,0.025,2.32c0.012,0.411,0.023,0.785,0.036,1.196C28.103,25.278,27.853,25.092,27.58,24.87z"/>
</svg>