<?xml version="1.0" encoding="utf-8"?>
<!-- Generator: Adobe Illustrator 21.1.0, SVG Export Plug-In . SVG Version: 6.00 Build 0)  -->
<svg version="1.1" id="designs" xmlns="http://www.w3.org/2000/svg" xmlns:xlink="http://www.w3.org/1999/xlink" x="0px" y="0px"
	 width="32px" height="32px" viewBox="0 0 32 32" style="enable-background:new 0 0 32 32;" xml:space="preserve">
<style type="text/css">
	.sketchy_een{fill:#111918;}
</style>
<path class="sketchy_een" d="M28.599,27.611c0.003-0.052,0.01-0.102,0.006-0.156c0.002,0.018,0.005,0.036,0.007,0.054
	c-0.073-0.689-0.042-1.389-0.05-2.08c-0.012-0.757,0-1.514,0.002-2.269c0.002-0.799,0.004-1.597-0.037-2.397
	c-0.017-0.38-0.048-0.759-0.085-1.137c-0.042-0.448-0.124-0.892-0.193-1.336c-0.037-0.23-0.095-0.454-0.147-0.68
	c-0.052-0.22-0.102-0.442-0.166-0.66c-0.143-0.485-0.353-0.964-0.566-1.419c-0.183-0.396-0.411-0.765-0.666-1.118
	c-0.174-0.236-0.344-0.477-0.531-0.703c-0.116-0.139-0.234-0.27-0.373-0.388c-0.124-0.104-0.257-0.196-0.387-0.292
	c-0.276-0.224-0.558-0.44-0.84-0.657c-0.023-0.72,0.008-1.442,0.038-2.162c0.061,0.004,0.121,0.009,0.182,0.013
	c0.18,0.012,0.361,0.015,0.541,0.013c0.152,0,0.287-0.056,0.408-0.133c0.007,0,0.013,0.004,0.021,0.004
	c0.205,0,0.404-0.081,0.548-0.226c0.131-0.131,0.249-0.355,0.226-0.548c-0.042-0.38-0.029-0.765-0.033-1.149
	c-0.006-0.425,0.004-0.85,0.004-1.275c0.002-0.975,0.037-1.949,0.07-2.926c0.013-0.366-0.268-0.666-0.609-0.752
	c-0.131-0.1-0.284-0.171-0.457-0.164c-0.415,0.014-0.83,0.006-1.246-0.002c-0.286-0.004-0.572-0.01-0.856-0.01
	c-0.728,0.002-1.458-0.031-2.186-0.039c-1.566-0.019-3.13-0.002-4.695,0.015c-1.58,0.017-3.156-0.004-4.735-0.029
	C11.667,3.001,11.542,3,11.415,3c-0.645,0-1.291,0.023-1.938,0.045C8.686,3.074,7.892,3.097,7.1,3.134
	C6.859,3.146,6.616,3.157,6.372,3.171C6.251,3.177,6.139,3.212,6.036,3.262C5.691,3.347,5.43,3.648,5.426,4.015
	c-0.01,0.892-0.025,1.784-0.014,2.677c0.006,0.404,0.046,0.803,0.071,1.203c0.025,0.409,0.025,0.817,0.039,1.224
	C5.531,9.36,5.656,9.566,5.837,9.7c0.125,0.257,0.383,0.449,0.681,0.439c0.155-0.005,0.311-0.009,0.466-0.015
	c-0.009,0.367-0.017,0.733-0.022,1.1c-0.004,0.365-0.015,0.744,0.021,1.109c0.004,0.038,0.016,0.069,0.022,0.105
	c-0.199,0.113-0.401,0.22-0.592,0.349c-0.315,0.214-0.622,0.438-0.879,0.722c-0.295,0.326-0.574,0.66-0.838,1.014
	c-0.23,0.307-0.406,0.633-0.556,0.985c-0.182,0.419-0.344,0.838-0.465,1.28c-0.114,0.415-0.168,0.85-0.222,1.276
	c-0.1,0.819-0.147,1.64-0.187,2.462c-0.031,0.662-0.07,1.325-0.075,1.989c-0.006,0.707-0.002,1.414,0.004,2.119
	c0.006,0.599-0.01,1.197-0.002,1.796c0.006,0.552,0.006,1.105,0.006,1.657c0,0.427,0.355,0.782,0.782,0.782
	c0.093,0,0.178-0.024,0.258-0.053c0.117,0.065,0.245,0.112,0.386,0.112c3.306,0.015,6.614,0.054,9.921,0.07
	c1.595,0.008,3.192-0.029,4.787-0.068c1.63-0.041,3.262-0.039,4.894-0.048c1.267-0.006,2.534,0.002,3.801,0.041
	c0.429,0.013,0.786-0.367,0.786-0.786C28.813,27.937,28.728,27.752,28.599,27.611z M24.989,4.611
	c-0.014,0.766-0.024,1.532-0.023,2.298c0,0.409,0.012,0.821,0.006,1.23c-0.002,0.174,0.006,0.348,0.007,0.523
	c-0.002,0-0.003,0-0.005,0c-0.272,0-0.547,0-0.819-0.015C23.788,8.627,23.423,8.6,23.058,8.58c-0.1-0.005-0.199-0.009-0.299-0.014
	c-0.029-0.606-0.033-1.211-0.028-1.819c0.007-0.735,0.002-1.472-0.012-2.207C23.476,4.569,24.232,4.6,24.989,4.611z M21.144,4.503
	c0.025,0.748,0.051,1.497,0.068,2.244c0.013,0.582,0.007,1.163,0.005,1.745c-0.133-0.006-0.266-0.014-0.398-0.019
	c-0.359-0.013-0.718-0.019-1.077-0.031c-0.024-0.21-0.052-0.42-0.065-0.631c-0.025-0.388-0.041-0.778-0.052-1.168
	c-0.021-0.717-0.017-1.434-0.008-2.151c0.358,0,0.716,0.002,1.073,0C20.84,4.491,20.992,4.501,21.144,4.503z M16.673,8.461
	c-0.002-0.046,0.005-0.09-0.004-0.136c-0.058-0.638-0.014-1.288-0.013-1.926c0.002-0.635,0.015-1.27,0.024-1.905
	c0.464-0.002,0.927-0.003,1.391-0.002c0.008,0.695,0.02,1.388,0.049,2.084c0.017,0.394,0.035,0.786,0.052,1.18
	c0.01,0.224,0.016,0.448,0.025,0.672C17.69,8.438,17.181,8.45,16.673,8.461z M15.096,4.503c0.003,0.641,0.006,1.281,0.014,1.924
	c0.006,0.357,0.008,0.716,0.002,1.074c-0.005,0.331-0.013,0.665,0.024,0.995c-0.302,0.007-0.604,0.014-0.906,0.02
	c-0.219,0.004-0.438,0.01-0.657,0.014c-0.04-0.609-0.08-1.218-0.089-1.826c-0.01-0.73,0.012-1.46,0.032-2.189
	c0.027,0,0.054,0.001,0.081,0.002C14.095,4.515,14.595,4.508,15.096,4.503z M11.926,4.487c-0.004,0.739,0.007,1.477,0.021,2.216
	c0.013,0.619,0.041,1.239,0.057,1.859c-0.053,0.002-0.107,0.002-0.16,0.003c-0.417,0.013-0.834,0.013-1.251,0.013
	c-0.063-0.669-0.106-1.343-0.145-2.014c-0.04-0.683-0.039-1.366-0.057-2.049c0.306-0.011,0.611-0.034,0.917-0.037
	C11.514,4.477,11.72,4.483,11.926,4.487z M8.878,4.576c0.035,0.646,0.064,1.293,0.095,1.94c0.035,0.69,0.063,1.38,0.081,2.07
	C8.457,8.588,7.86,8.588,7.263,8.6C7.169,8.601,7.074,8.604,6.979,8.606c0-0.22-0.003-0.44-0.004-0.661
	C6.971,7.528,6.948,7.111,6.942,6.692c-0.007-0.663,0.02-1.326,0.042-1.99C7.616,4.66,8.247,4.616,8.878,4.576z M23.334,27.386
	c-1.593-0.012-3.187,0.015-4.782,0.031c-1.632,0.017-3.264,0.015-4.896,0.006c-0.784-0.004-1.568-0.004-2.352-0.004
	c-0.782,0.002-1.566,0.002-2.35-0.004c-1.392-0.009-2.78-0.098-4.172-0.121c0.005-0.392,0.007-0.784,0.015-1.175
	c0.015-0.738,0.025-1.477,0.029-2.215c0.004-1.632,0.041-3.268,0.164-4.894c0.022-0.297,0.054-0.593,0.091-0.889
	c0.039-0.27,0.079-0.54,0.15-0.803c0.086-0.322,0.188-0.637,0.311-0.944c0.083-0.188,0.171-0.374,0.266-0.557
	c0.088-0.171,0.206-0.331,0.323-0.486c0.149-0.189,0.307-0.37,0.47-0.549c0.134-0.149,0.265-0.294,0.415-0.424
	c0.373-0.267,0.773-0.484,1.18-0.696c0.402-0.209,0.518-0.761,0.297-1.137c-0.001-0.002-0.004-0.003-0.006-0.005
	c0.029-0.116,0.035-0.232,0.01-0.349c-0.021-0.315-0.01-0.632-0.003-0.948c0.008-0.383,0.028-0.766,0.044-1.149
	c0.168-0.004,0.334-0.014,0.502-0.016c0.363-0.002,0.728,0,1.093,0.002c0.39,0.002,0.782,0.006,1.174,0
	c0.813-0.01,1.626-0.031,2.439-0.044c0.747-0.014,1.497-0.023,2.242-0.052c1.458-0.056,2.92-0.066,4.378-0.006
	c0.718,0.031,1.435,0.062,2.153,0.1c0.179,0.01,0.357,0.026,0.536,0.038c-0.007,0.403-0.011,0.805-0.01,1.209
	c0.002,0.378,0.002,0.757-0.02,1.135c-0.085,0.18-0.114,0.385-0.063,0.579c0.062,0.224,0.201,0.371,0.386,0.5
	c0.189,0.133,0.376,0.269,0.561,0.406c0.249,0.2,0.498,0.4,0.751,0.597c-0.013-0.01-0.026-0.02-0.039-0.03
	c0.123,0.105,0.227,0.224,0.33,0.349c0.214,0.289,0.419,0.582,0.603,0.889c0.166,0.278,0.301,0.574,0.432,0.868
	c0.207,0.511,0.379,1.026,0.497,1.565c0.122,0.557,0.225,1.118,0.304,1.683c0.153,1.315,0.148,2.642,0.152,3.962
	c0.002,0.647-0.004,1.294-0.004,1.943c-0.002,0.346,0.004,0.689,0.002,1.035c-0.001,0.193,0,0.39,0.011,0.584
	c-0.38,0.01-0.76,0.02-1.141,0.021C24.987,27.396,24.16,27.392,23.334,27.386z M22.641,19.683c-0.014-0.55-0.062-1.101-0.081-1.651
	c-0.017-0.441,0.036-0.899-0.005-1.336c-0.024-0.254,0.006-0.684-0.122-0.9c-0.133-0.224-0.404-0.363-0.66-0.363
	c-0.213,0-0.41,0.089-0.553,0.231c-0.165,0.012-0.331,0.021-0.496,0.03c-0.404,0.023-0.807,0.044-1.211,0.066
	c-0.836,0.046-1.67,0.062-2.507,0.093c-0.834,0.031-1.667,0.081-2.501,0.087c-0.429,0.004-0.857,0.002-1.284,0
	c-0.384-0.002-0.771-0.004-1.155-0.004c-0.547,0.002-1.091,0.014-1.638,0.046c-0.236,0.014-0.445,0.117-0.595,0.276
	c-0.302,0.112-0.527,0.398-0.525,0.735c0.008,0.983,0.035,1.966,0.017,2.951c-0.016,0.95,0,1.902-0.05,2.852
	c-0.019,0.375,0.291,0.679,0.643,0.745c0.14,0.12,0.315,0.201,0.51,0.2c1.699-0.008,3.399-0.05,5.098-0.025
	c1.572,0.023,3.142-0.06,4.714-0.083c0.249-0.002,0.498,0.002,0.747,0.008c0.284,0.006,0.57,0.012,0.856,0.004
	c0.03-0.001,0.055-0.015,0.094-0.017c0.425,0,0.794-0.359,0.788-0.788c-0.008-0.529-0.006-1.06-0.025-1.589
	C22.679,20.73,22.652,20.206,22.641,19.683z M20.685,22.057c-0.4,0.017-0.801,0.023-1.201,0.039
	c-0.765,0.029-1.531,0.046-2.296,0.068c-0.798,0.019-1.595,0.012-2.393,0.012c-0.817,0-1.634-0.004-2.451-0.015
	c-0.505-0.008-1.011-0.012-1.516-0.015c0.026-0.733,0.051-1.468,0.039-2.201c-0.014-0.786,0-1.571,0.01-2.355
	c0.7-0.046,1.4-0.091,2.101-0.102c0.859-0.012,1.719,0,2.576-0.014c0.411-0.008,0.821-0.029,1.232-0.039
	c0.415-0.008,0.83-0.008,1.244-0.013c0.823-0.012,1.645-0.052,2.466-0.099c0.169-0.009,0.338-0.016,0.508-0.022
	c0.005,0.226,0.004,0.452,0.014,0.677c0.027,0.558,0.06,1.118,0.071,1.676c0.017,0.796,0.043,1.591,0.051,2.387
	C20.989,22.048,20.836,22.051,20.685,22.057z"/>
</svg>