<?xml version="1.0" encoding="utf-8"?>
<!-- Generator: Adobe Illustrator 21.1.0, SVG Export Plug-In . SVG Version: 6.00 Build 0)  -->
<svg version="1.1" id="designs" xmlns="http://www.w3.org/2000/svg" xmlns:xlink="http://www.w3.org/1999/xlink" x="0px" y="0px"
	 width="32px" height="32px" viewBox="0 0 32 32" style="enable-background:new 0 0 32 32;" xml:space="preserve">
<style type="text/css">
	.sketchy_een{fill:#111918;}
</style>
<path class="sketchy_een" d="M28.83,7.596c-0.013-0.03-0.026-0.061-0.039-0.091c-0.015-0.037-0.03-0.074-0.046-0.111
	C28.774,7.461,28.801,7.529,28.83,7.596z M29.513,11.284c-0.012,0.439-0.089,0.875-0.194,1.301c-0.219,0.889-0.562,1.77-1.016,2.565
	c-0.24,0.423-0.548,0.81-0.858,1.183c-0.25,0.302-0.504,0.6-0.789,0.872c-0.387,0.369-0.804,0.708-1.239,1.022
	c-0.367,0.266-0.737,0.544-1.129,0.773c-0.839,0.493-1.785,0.86-2.749,1.006c-0.541,0.083-1.081,0.154-1.63,0.135
	c-0.541-0.019-1.073-0.09-1.603-0.2c-0.45-0.092-0.904-0.177-1.341-0.315c-0.233-0.073-0.462-0.169-0.687-0.264
	c-0.072-0.029-0.143-0.059-0.214-0.088c-0.56,0.676-1.137,1.336-1.733,1.983c-0.712,0.773-1.412,1.556-2.147,2.311
	c-1.122,1.149-2.203,2.343-3.357,3.461c-0.598,0.581-1.206,1.152-1.845,1.689c-0.306,0.258-0.61,0.516-0.923,0.762
	c-0.181,0.14-0.356,0.287-0.564,0.387c-0.233,0.114-0.531,0.181-0.789,0.1c-0.212-0.067-0.377-0.164-0.537-0.317
	c-0.03-0.029-0.062-0.058-0.093-0.086c-0.217-0.159-0.437-0.309-0.636-0.496c-0.169-0.16-0.335-0.325-0.506-0.485
	c-0.358-0.337-0.566-0.883-0.379-1.36c0.133-0.342,0.358-0.629,0.602-0.904c0.743-0.841,1.576-1.606,2.376-2.393
	c1.154-1.135,2.355-2.22,3.517-3.346c0.623-0.604,1.239-1.218,1.897-1.785c0.608-0.523,1.244-1.012,1.881-1.5
	c-0.023-0.025-0.048-0.047-0.07-0.072c-0.279-0.315-0.529-0.644-0.762-0.995c-0.589-0.891-0.854-1.96-1.181-2.969
	c-0.096-0.294-0.221-0.594-0.275-0.902c-0.067-0.381-0.087-0.754-0.058-1.139c0.029-0.367,0.06-0.748,0.148-1.106
	c0.075-0.308,0.16-0.61,0.252-0.912c0.283-0.931,0.616-1.858,1.17-2.668c0.566-0.829,1.158-1.662,1.926-2.318
	c0.787-0.671,1.703-1.247,2.692-1.574c0.423-0.138,0.856-0.256,1.293-0.344c0.498-0.1,1.002-0.194,1.51-0.237
	C19.783,2.029,20.098,2,20.411,2c0.133,0,0.266,0.005,0.398,0.018c0.51,0.05,1.006,0.146,1.497,0.294
	c0.462,0.138,0.92,0.298,1.374,0.464c0.467,0.173,0.952,0.335,1.387,0.583c0.814,0.468,1.493,1.104,2.147,1.77
	c0.673,0.684,1.197,1.498,1.577,2.376c0.162,0.398,0.295,0.797,0.4,1.218c0.108,0.425,0.179,0.854,0.237,1.287
	C29.484,10.436,29.523,10.855,29.513,11.284z M14.754,18.419c-0.083-0.068-0.166-0.137-0.247-0.208
	c-0.08,0.03-0.164,0.048-0.248,0.055c-0.027,0.022-0.046,0.046-0.075,0.068c-0.526,0.4-1.052,0.801-1.576,1.203
	c-0.576,0.455-1.128,0.932-1.661,1.439c-0.596,0.568-1.195,1.129-1.791,1.695c-0.614,0.579-1.235,1.152-1.841,1.739
	c-0.56,0.541-1.129,1.07-1.682,1.616c-0.266,0.264-0.527,0.531-0.789,0.798c-0.225,0.229-0.451,0.459-0.655,0.708
	c-0.007,0.011-0.015,0.021-0.022,0.032c0.064,0.062,0.129,0.123,0.191,0.184c0.108,0.107,0.222,0.209,0.339,0.307
	c0.11,0.079,0.22,0.156,0.328,0.236c0.027-0.019,0.054-0.039,0.08-0.058c1.37-1.083,2.591-2.323,3.802-3.574
	c0.566-0.585,1.122-1.177,1.689-1.76c0.539-0.552,1.083-1.097,1.612-1.656C13.078,20.318,13.927,19.379,14.754,18.419z M27.674,9.88
	c-0.102-0.619-0.247-1.226-0.472-1.812c-0.233-0.507-0.525-0.977-0.856-1.424c-0.242-0.291-0.506-0.559-0.781-0.821
	c-0.233-0.223-0.464-0.446-0.713-0.651c-0.303-0.218-0.623-0.404-0.959-0.563c-0.489-0.195-0.989-0.366-1.49-0.527
	c-0.494-0.159-0.993-0.302-1.506-0.385c-0.544-0.048-1.085-0.015-1.626,0.049c-0.831,0.127-1.659,0.312-2.442,0.62
	c-0.505,0.231-0.977,0.51-1.431,0.832c-0.467,0.383-0.888,0.8-1.277,1.265c-0.24,0.315-0.477,0.634-0.689,0.97
	c-0.221,0.349-0.412,0.708-0.586,1.083c-0.151,0.393-0.279,0.791-0.398,1.195c-0.11,0.37-0.209,0.74-0.271,1.12
	c-0.032,0.314-0.046,0.627-0.027,0.944c0.075,0.39,0.232,0.758,0.369,1.132c0.037,0.101,0.073,0.201,0.108,0.302
	c0.008-0.402,0.062-0.801,0.14-1.197c0.102-0.518,0.306-1.018,0.525-1.495c0.414-0.897,0.96-1.755,1.683-2.436
	C15.38,7.7,15.803,7.35,16.259,7.032c0.433-0.3,0.916-0.514,1.408-0.691c0.631-0.225,1.306-0.289,1.97-0.258
	c0.387,0.019,0.771,0.073,1.135,0.206c0.271,0.098,0.546,0.214,0.802,0.346c1.866,0.966,3.226,3.088,3.146,5.21
	c-0.029,0.76-0.283,1.585-0.741,2.195c-0.358,0.473-0.735,0.927-1.206,1.293c-0.467,0.364-0.933,0.687-1.503,0.875
	c-0.198,0.065-0.396,0.133-0.602,0.167c-0.202,0.033-0.404,0.071-0.608,0.079c-0.241,0.006-0.471-0.019-0.712-0.054
	c-0.637-0.094-1.241-0.289-1.77-0.669c-0.275-0.198-0.529-0.418-0.75-0.673c-0.439-0.512-0.679-1.231-0.593-1.905
	c0.046-0.358,0.127-0.669,0.29-0.995c0.135-0.266,0.3-0.508,0.493-0.737c0.287-0.339,0.641-0.646,1.025-0.872
	c0.439-0.26,0.922-0.466,1.441-0.437c0.512,0.027,1.023,0.275,1.347,0.675c0.156,0.192,0.262,0.375,0.262,0.633
	c0,0.237-0.094,0.468-0.262,0.635c-0.344,0.342-0.924,0.346-1.268,0c-0.025-0.027-0.05-0.051-0.076-0.075
	c-0.004-0.003-0.009-0.005-0.013-0.008c-0.007-0.002-0.013-0.004-0.02-0.005c-0.005,0-0.01,0-0.016,0
	c-0.012,0.003-0.024,0.007-0.035,0.01c-0.167,0.084-0.32,0.18-0.471,0.288c-0.152,0.131-0.292,0.268-0.421,0.419
	c-0.083,0.121-0.156,0.245-0.222,0.375c-0.025,0.075-0.047,0.151-0.065,0.229c-0.002,0.048-0.001,0.096-0.001,0.146
	c0.018,0.082,0.039,0.162,0.065,0.241c0.013,0.023,0.026,0.046,0.041,0.069c0.114,0.13,0.235,0.248,0.365,0.364
	c0.124,0.089,0.251,0.171,0.389,0.241c0.225,0.08,0.454,0.135,0.688,0.18c0.13,0.01,0.258,0.012,0.389,0.005
	c0.24-0.045,0.472-0.11,0.702-0.193c0.251-0.124,0.482-0.269,0.709-0.432c0.267-0.231,0.505-0.478,0.729-0.749
	c0.137-0.193,0.258-0.391,0.361-0.604c0.076-0.211,0.133-0.426,0.176-0.646c0.019-0.253,0.013-0.503-0.01-0.758
	c-0.052-0.303-0.128-0.593-0.232-0.882c-0.16-0.345-0.349-0.671-0.566-0.983c-0.224-0.262-0.465-0.5-0.727-0.723
	c-0.252-0.178-0.511-0.327-0.791-0.459c-0.209-0.081-0.418-0.149-0.638-0.193c-0.318-0.026-0.634-0.032-0.953-0.009
	c-0.312,0.055-0.61,0.142-0.91,0.248c-0.348,0.167-0.669,0.359-0.987,0.583c-0.457,0.368-0.868,0.771-1.242,1.223
	c-0.355,0.495-0.647,1.019-0.894,1.573c-0.152,0.393-0.265,0.785-0.34,1.2c-0.042,0.436-0.023,0.86,0.024,1.295
	c0.078,0.457,0.193,0.905,0.355,1.338c0.171,0.345,0.391,0.657,0.619,0.966c0.126,0.148,0.266,0.277,0.415,0.399
	c0.264,0.197,0.527,0.395,0.82,0.545c0.866,0.334,1.768,0.556,2.684,0.719c0.269,0.032,0.541,0.056,0.81,0.053
	c0.301-0.003,0.597-0.023,0.894-0.055c0.281-0.042,0.564-0.086,0.835-0.168c0.268-0.081,0.528-0.176,0.789-0.278
	c0.675-0.316,1.29-0.736,1.889-1.18c0.608-0.498,1.158-1.042,1.659-1.648c0.339-0.466,0.62-0.954,0.857-1.481
	c0.229-0.57,0.431-1.154,0.534-1.761C27.774,10.939,27.737,10.412,27.674,9.88z"/>
</svg>