<?xml version="1.0" encoding="utf-8"?>
<!-- Generator: Adobe Illustrator 21.1.0, SVG Export Plug-In . SVG Version: 6.00 Build 0)  -->
<svg version="1.1" id="designs" xmlns="http://www.w3.org/2000/svg" xmlns:xlink="http://www.w3.org/1999/xlink" x="0px" y="0px"
	 width="32px" height="32px" viewBox="0 0 32 32" style="enable-background:new 0 0 32 32;" xml:space="preserve">
<style type="text/css">
	.sketchy_een{fill:#111918;}
</style>
<path class="sketchy_een" d="M25.343,11.984c0.06,0.015,0.12,0.031,0.18,0.044c0.265,0.06,0.533,0.106,0.796,0.168
	c0.273,0.062,0.539,0.142,0.806,0.227c0.291,0.092,0.586,0.176,0.87,0.287c0.148,0.04,0.295,0.04,0.443,0
	c0.207-0.056,0.387-0.195,0.497-0.381c0.112-0.193,0.144-0.427,0.084-0.64c-0.052-0.191-0.195-0.411-0.383-0.497
	c-0.281-0.132-0.568-0.241-0.86-0.345c-0.227-0.082-0.453-0.171-0.684-0.241c-0.279-0.081-0.565-0.138-0.849-0.2
	c0.022-0.062,0.043-0.124,0.061-0.187c0.076-0.263,0.144-0.531,0.215-0.796c0.164-0.603,0.333-1.201,0.497-1.803
	c0.128-0.465-0.152-0.958-0.616-1.087c-0.075-0.021-0.151-0.03-0.226-0.03c-0.388,0-0.758,0.259-0.861,0.648
	c-0.168,0.628-0.325,1.26-0.485,1.893c-0.066,0.259-0.13,0.521-0.215,0.776c-0.068,0.205-0.132,0.404-0.182,0.606
	c-0.002,0.001-0.005,0.001-0.007,0.002c-0.69,0.326-1.372,0.667-2.053,1.01c-0.144-0.079-0.289-0.157-0.435-0.235
	c-0.381-0.203-0.754-0.418-1.117-0.652c-0.365-0.235-0.708-0.501-1.073-0.734c-0.386-0.247-0.777-0.475-1.155-0.733
	c-0.506-0.396-1.004-0.8-1.51-1.197c-0.071-0.056-0.14-0.097-0.211-0.136c0.023-0.759,0.052-1.519,0.078-2.279
	c0.255-0.187,0.493-0.405,0.715-0.596c0.441-0.379,0.856-0.79,1.298-1.169c0.355-0.307,0.313-0.903,0-1.216
	c-0.162-0.16-0.381-0.251-0.608-0.251c-0.247,0-0.423,0.102-0.608,0.251c-0.551,0.45-1.064,0.947-1.618,1.397
	c-0.076,0.058-0.153,0.114-0.232,0.166c-0.049-0.029-0.097-0.06-0.144-0.092c-0.632-0.516-1.191-1.112-1.757-1.702
	C13.825,2.085,13.595,2,13.363,2c-0.235,0-0.472,0.088-0.645,0.26c-0.351,0.351-0.341,0.923,0,1.274
	c0.407,0.421,0.822,0.832,1.245,1.234c0.18,0.169,0.367,0.331,0.554,0.493c0.14,0.12,0.283,0.239,0.439,0.339
	c0.075,0.046,0.159,0.075,0.241,0.111c-0.02,0.777-0.032,1.554-0.035,2.332c-0.4,0.262-0.789,0.536-1.184,0.804
	c-0.471,0.319-0.949,0.628-1.414,0.958c-0.805,0.569-1.616,1.132-2.429,1.692c-0.501-0.267-1.005-0.527-1.514-0.78
	c-0.052-0.387-0.234-0.783-0.378-1.121C8.109,9.28,7.948,8.975,7.796,8.666C7.479,8.021,7.144,7.387,6.809,6.753
	C6.656,6.462,6.341,6.308,6.025,6.308c-0.159,0-0.318,0.039-0.456,0.12C5.367,6.545,5.215,6.743,5.154,6.968
	c-0.07,0.25-0.02,0.475,0.09,0.7c0.239,0.488,0.519,0.959,0.762,1.446c0.213,0.422,0.427,0.841,0.623,1.271
	c-0.047,0.009-0.095,0.019-0.142,0.028c-0.317,0.062-0.636,0.12-0.953,0.182c-0.285,0.054-0.574,0.1-0.856,0.169
	c-0.339,0.082-0.666,0.189-0.997,0.293c-0.473,0.146-0.768,0.628-0.634,1.115c0.13,0.464,0.644,0.779,1.117,0.634
	c0.339-0.105,0.672-0.227,1.017-0.323c0.327-0.09,0.666-0.142,1.001-0.194c0.327-0.052,0.658-0.098,0.987-0.147
	c0.104-0.016,0.211-0.036,0.318-0.061c0.509,0.243,1.011,0.503,1.515,0.756c0.02,1.052,0.04,2.104,0.055,3.156
	c0.016,1.013,0.006,2.032,0.076,3.043c0.003,0.042,0.018,0.079,0.025,0.119c-0.235,0.146-0.473,0.288-0.708,0.434
	c-0.301,0.186-0.604,0.367-0.909,0.547c-0.301,0.175-0.616,0.339-0.909,0.532c-0.014-0.01-0.025-0.021-0.039-0.031
	c-0.14-0.1-0.297-0.175-0.449-0.253c-0.289-0.148-0.59-0.271-0.878-0.421c-0.317-0.166-0.596-0.387-0.899-0.573
	c-0.144-0.088-0.304-0.129-0.464-0.129c-0.328,0-0.653,0.173-0.824,0.466c-0.255,0.437-0.11,1.037,0.337,1.289
	c0.383,0.215,0.752,0.453,1.157,0.628c0.347,0.152,0.698,0.294,1.024,0.487c-0.145,0.354-0.283,0.71-0.41,1.073
	c-0.188,0.529-0.371,1.059-0.552,1.588C4.48,25.241,4.806,25.74,5.24,25.86c0.475,0.131,0.917-0.158,1.067-0.606
	c0.236-0.701,0.451-1.411,0.729-2.1c0.052-0.117,0.106-0.232,0.166-0.345c0.036-0.065,0.072-0.131,0.108-0.197
	c0.074-0.134,0.114-0.266,0.142-0.402c0.34-0.243,0.714-0.45,1.073-0.668c0.377-0.228,0.754-0.457,1.129-0.686
	c0.146-0.089,0.294-0.175,0.44-0.264c0.369,0.214,0.738,0.428,1.114,0.629c0.433,0.231,0.856,0.46,1.259,0.743
	c0.361,0.286,0.724,0.566,1.103,0.829c0.367,0.254,0.743,0.505,1.149,0.696c0.002,0.159,0.001,0.318,0.003,0.477
	c0.012,0.833,0.004,1.669,0.012,2.503c0.001,0.044,0.019,0.082,0.026,0.124c-0.167,0.114-0.327,0.239-0.482,0.368
	c-0.209,0.172-0.397,0.373-0.588,0.564c-0.253,0.255-0.503,0.515-0.75,0.772c-0.349,0.363-0.361,0.947,0,1.308
	c0.349,0.351,0.961,0.367,1.308,0c0.46-0.482,0.901-1.006,1.418-1.433c0.056-0.04,0.113-0.077,0.172-0.112
	c0.392,0.201,0.747,0.461,1.103,0.725c0.36,0.288,0.711,0.604,1.017,0.948c0.333,0.377,0.965,0.339,1.304,0
	c0.172-0.172,0.269-0.409,0.269-0.652c0-0.257-0.104-0.463-0.269-0.652c-0.185-0.213-0.403-0.396-0.612-0.586
	c-0.225-0.204-0.465-0.395-0.71-0.573c-0.462-0.331-0.943-0.677-1.476-0.891c-0.02-0.773-0.038-1.546-0.051-2.32
	c0.617-0.323,1.226-0.658,1.833-0.996c0.235-0.132,0.473-0.262,0.698-0.409c0.265-0.173,0.523-0.359,0.782-0.541
	c0.479-0.339,0.985-0.642,1.474-0.967c0.446-0.296,0.894-0.587,1.342-0.877c0.106,0.06,0.215,0.116,0.321,0.176
	c0.455,0.257,0.889,0.55,1.319,0.851c-0.001,0.018-0.006,0.034-0.005,0.052c0.002,0.243,0.046,0.491,0.074,0.73
	c0.032,0.265,0.05,0.53,0.066,0.797c0.04,0.656,0.042,1.316,0.054,1.973c0.008,0.495,0.407,0.908,0.907,0.908
	c0.485,0,0.917-0.413,0.905-0.908c-0.016-0.658-0.042-1.316-0.092-1.973c-0.02-0.287-0.048-0.574-0.082-0.859
	c-0.007-0.065-0.017-0.131-0.027-0.198c0.258-0.075,0.516-0.147,0.773-0.227c0.243-0.076,0.489-0.147,0.732-0.231
	c0.299-0.102,0.588-0.231,0.878-0.359c0.122-0.072,0.219-0.169,0.293-0.293c0.11-0.188,0.14-0.419,0.082-0.628
	c-0.056-0.206-0.193-0.381-0.375-0.489c-0.118-0.069-0.276-0.117-0.426-0.117c-0.071,0-0.141,0.011-0.204,0.035
	c-0.281,0.107-0.556,0.221-0.846,0.305c-0.269,0.08-0.54,0.151-0.81,0.223c-0.159,0.042-0.318,0.08-0.477,0.119
	c-0.009-0.007-0.015-0.015-0.025-0.022c-0.673-0.501-1.38-0.95-2.114-1.357c0.001-0.016,0.009-0.03,0.009-0.046
	c-0.028-0.949-0.012-1.905,0.01-2.854c0.02-0.927,0.08-1.853,0.082-2.78c0-0.084-0.025-0.162-0.05-0.24
	c0.606-0.291,1.212-0.581,1.822-0.865C25.338,11.99,25.339,11.985,25.343,11.984z M21.139,17.558
	c-0.776-0.407-1.556-0.802-2.321-1.223c-0.244-0.133-0.481-0.278-0.72-0.419c0.232-0.15,0.464-0.301,0.694-0.455
	c0.612-0.409,1.229-0.832,1.873-1.187c0.397-0.219,0.801-0.425,1.207-0.626c-0.003,1.422-0.027,2.845-0.052,4.266
	C21.591,17.797,21.366,17.677,21.139,17.558z M10.754,16.009c0.004-0.754,0.004-1.508,0.004-2.261
	c0.539,0.293,1.078,0.586,1.617,0.882c0.754,0.417,1.513,0.826,2.269,1.242c-0.026,0.015-0.053,0.029-0.08,0.044
	c-0.676,0.387-1.33,0.81-2,1.205c-0.592,0.347-1.184,0.692-1.774,1.042C10.761,17.445,10.75,16.727,10.754,16.009z M17.12,9.962
	c0.054,0.042,0.108,0.083,0.162,0.125c0.001,0.001,0.003,0.002,0.004,0.003c0.179,0.141,0.36,0.281,0.548,0.406
	c0.213,0.144,0.431,0.279,0.654,0.411c0.439,0.261,0.85,0.56,1.264,0.854c0.29,0.204,0.597,0.378,0.904,0.555
	c-0.511,0.271-1.019,0.549-1.513,0.85c-0.76,0.461-1.498,0.959-2.25,1.432c-0.095,0.06-0.195,0.112-0.292,0.169
	c0.019-0.446,0.036-0.893,0.056-1.338c0.038-0.885,0.1-1.767,0.138-2.65c0.015-0.35,0.017-0.7,0.024-1.049
	c0.037,0.029,0.075,0.058,0.112,0.086c-0.026-0.021-0.052-0.041-0.078-0.061C16.942,9.825,17.03,9.893,17.12,9.962z M15.987,4.101
	c-0.003,0-0.006,0.001-0.008,0.001l0,0C15.981,4.102,15.984,4.102,15.987,4.101z M13.345,11.141c0.461-0.331,0.939-0.642,1.41-0.959
	c0.13-0.087,0.264-0.166,0.394-0.251c-0.004,0.36-0.008,0.72-0.021,1.08c-0.032,0.899-0.104,1.797-0.152,2.696
	c-0.008,0.138-0.012,0.275-0.019,0.413c-0.827-0.46-1.651-0.927-2.486-1.372c-0.256-0.136-0.511-0.274-0.767-0.413
	C12.251,11.937,12.796,11.536,13.345,11.141z M14.606,21.458c-0.318-0.208-0.629-0.426-0.933-0.657
	c-0.223-0.175-0.447-0.35-0.685-0.501c-0.267-0.168-0.542-0.323-0.818-0.479c-0.135-0.075-0.265-0.158-0.399-0.235
	c0.101-0.059,0.199-0.123,0.301-0.181c0.802-0.46,1.609-0.915,2.403-1.392c0.109-0.065,0.218-0.128,0.326-0.194
	c-0.043,1.202-0.087,2.404-0.095,3.607c0,0.032,0.001,0.064,0.001,0.096C14.674,21.5,14.64,21.479,14.606,21.458z M15.713,28.03
	c0.011-0.002,0.022-0.003,0.033-0.005c0,0,0.001,0,0.001,0C15.735,28.027,15.724,28.029,15.713,28.03z M18.948,20.682
	c-0.477,0.341-0.949,0.674-1.462,0.957c-0.359,0.198-0.722,0.386-1.083,0.578c0-0.293-0.006-0.586-0.003-0.879
	c0.012-0.894,0.036-1.789,0.07-2.685c0.021-0.567,0.036-1.136,0.052-1.704c0.18,0.106,0.364,0.204,0.542,0.312
	c1.245,0.758,2.539,1.435,3.832,2.108c-0.161,0.11-0.322,0.219-0.482,0.33C19.93,20.032,19.427,20.339,18.948,20.682z"/>
</svg>