<?xml version="1.0" encoding="utf-8"?>
<!-- Generator: Adobe Illustrator 21.1.0, SVG Export Plug-In . SVG Version: 6.00 Build 0)  -->
<svg version="1.1" id="designs" xmlns="http://www.w3.org/2000/svg" xmlns:xlink="http://www.w3.org/1999/xlink" x="0px" y="0px"
	 width="32px" height="32px" viewBox="0 0 32 32" style="enable-background:new 0 0 32 32;" xml:space="preserve">
<style type="text/css">
	.sketchy_een{fill:#111918;}
</style>
<path class="sketchy_een" d="M30.985,22.104c-0.01-0.303-0.036-0.605-0.06-0.909c-0.022-0.278-0.034-0.556-0.048-0.835
	c-0.018-0.329-0.034-0.657-0.04-0.986c-0.008-0.323,0-0.647-0.01-0.97c-0.008-0.29-0.022-0.579-0.022-0.869
	c0-0.363,0.004-0.726,0-1.089c-0.01-0.762-0.016-1.524-0.022-2.286c-0.012-1.498,0.01-2.992,0.054-4.49
	c0.02-0.708,0.032-1.419,0.038-2.129c0.003-0.38-0.28-0.689-0.637-0.769c-0.12-0.091-0.255-0.16-0.409-0.16
	c-0.018,0-0.037,0.001-0.056,0.002c-0.309,0.026-0.618,0.057-0.927,0.088c0.002-0.044,0.005-0.088,0.007-0.132
	c0.022-0.431-0.377-0.792-0.792-0.792c-0.032,0-0.059,0.015-0.09,0.018c-0.119-0.1-0.258-0.174-0.417-0.174
	c-0.015,0-0.03,0.001-0.046,0.002c-0.517,0.041-1.033,0.07-1.547,0.116c0.003-0.068,0.006-0.136,0.009-0.204
	c0.02-0.437-0.379-0.8-0.802-0.8c-0.008,0-0.015,0.004-0.023,0.005c-0.073-0.022-0.142-0.058-0.217-0.058
	c-0.098,0-0.196,0.018-0.287,0.054c-0.555,0.036-1.122,0.014-1.676,0.006c-0.808-0.012-1.615-0.038-2.421-0.056
	c-0.43-0.01-0.786,0.36-0.799,0.781c-0.131,0.027-0.263,0.052-0.395,0.077c-0.214,0.042-0.431,0.083-0.645,0.131
	c-0.206,0.044-0.415,0.093-0.615,0.167c-0.228,0.087-0.45,0.193-0.669,0.3c-0.614,0.295-1.221,0.606-1.817,0.933
	c-0.052-0.189-0.166-0.36-0.348-0.448c-1.429-0.688-2.942-1.145-4.482-1.504c-0.813-0.19-1.649-0.242-2.48-0.286
	C8.172,4.833,8.049,4.831,7.926,4.831c-0.272,0-0.543,0.012-0.813,0.025C6.74,4.871,6.367,4.883,5.992,4.889
	C5.67,4.895,5.351,4.925,5.032,4.961C4.682,4.998,4.327,5.024,3.994,5.147C3.792,5.222,3.627,5.324,3.516,5.514
	C3.431,5.66,3.41,5.827,3.425,5.993c-0.114,0.101-0.19,0.232-0.232,0.381C2.73,6.385,2.269,6.392,1.806,6.408
	C1.474,6.42,1.192,6.631,1.088,6.932C1.036,7.037,1,7.15,1,7.273c0.002,0.827,0.024,1.655,0.03,2.482
	c0.004,0.782-0.02,1.563-0.024,2.345c-0.002,0.754,0,1.506,0,2.258c0,0.363-0.002,0.726,0.008,1.087
	c0.01,0.333,0.04,0.665,0.05,0.998c0.02,0.736,0.06,1.472,0.062,2.21c0,0.667,0.034,1.333,0.032,2
	c-0.002,1.016,0.028,2.032,0.024,3.048c-0.002,0.375,0.022,0.75,0.03,1.127c0.004,0.211,0.09,0.404,0.228,0.545
	c0.112,0.327,0.415,0.574,0.774,0.569c0.895-0.01,1.792-0.04,2.686-0.052c0.365-0.006,0.728,0.008,1.093,0.03
	c0.379,0.02,0.76,0.02,1.141,0.022c0.758,0.002,1.516,0.026,2.274,0.024c0.706-0.002,1.415-0.016,2.121-0.014
	c0.122,0,0.246-0.002,0.37-0.004c0.006,0.141,0.018,0.278,0.039,0.423c0.032,0.216,0.145,0.433,0.304,0.581
	c0.286,0.268,0.655,0.312,1.03,0.32c0.312,0.008,0.625,0,0.938-0.008c0.385-0.01,0.772-0.02,1.157-0.004
	c0.54,0.024,1.077,0.024,1.617,0.028c0.343,0.002,0.685,0.004,1.026,0.016c0.371,0.014,0.786,0.055,1.113-0.153
	c0.244-0.155,0.415-0.401,0.482-0.681c0.036-0.147,0.048-0.304,0.058-0.454c0.002-0.023,0.003-0.046,0.003-0.07
	c0.257-0.021,0.516-0.031,0.773-0.043c0.405-0.02,0.807-0.038,1.212-0.05c0.764-0.026,1.53-0.024,2.296-0.046
	c1.554-0.046,3.107,0.028,4.659,0.091c0.385,0.016,0.77,0.028,1.153,0.042c0.06,0.002,0.114-0.02,0.171-0.032
	c0.1,0.049,0.207,0.082,0.318,0.082c0.407,0,0.746-0.339,0.746-0.746C30.991,24.199,31.015,23.149,30.985,22.104z M22.985,6.287
	c0.347-0.016,0.694-0.028,1.042-0.046c0.111-0.006,0.225-0.015,0.338-0.022c-0.02,1.405,0.021,2.81,0.021,4.216
	c0,0.7-0.004,1.399,0,2.097c0.004,0.678,0.049,1.352,0.06,2.028c-0.227-0.132-0.444-0.273-0.654-0.427
	c-0.189-0.156-0.355-0.334-0.551-0.484c-0.161-0.124-0.349-0.175-0.54-0.175c-0.26,0-0.526,0.094-0.742,0.229
	c-0.236,0.148-0.462,0.316-0.693,0.475c-0.007-0.188-0.016-0.377-0.016-0.566c-0.004-0.728,0.004-1.458-0.02-2.186
	c-0.026-0.786-0.04-1.569-0.026-2.355c0.012-0.768,0.046-1.536,0.083-2.304c0.007-0.155,0.014-0.31,0.02-0.464
	C21.868,6.307,22.427,6.309,22.985,6.287z M18.516,7.311c0.386-0.15,0.804-0.229,1.213-0.289c0.003,0,0.007-0.001,0.01-0.001
	c-0.003,0.41-0.015,0.821-0.014,1.231c0.004,0.796-0.004,1.591,0.008,2.389c0.01,0.752,0.03,1.506,0.03,2.26
	c0,0.655,0.028,1.306,0.04,1.958c0.001,0.13-0.002,0.262-0.007,0.393c-0.117,0.242-0.13,0.533,0.012,0.774
	c0.226,0.389,0.734,0.518,1.123,0.294c0.393-0.226,0.764-0.478,1.127-0.75c0.175-0.131,0.349-0.262,0.524-0.391
	c0.016-0.012,0.031-0.023,0.047-0.034c0.006,0.005,0.012,0.011,0.019,0.016c0.189,0.169,0.403,0.309,0.611,0.452
	c0.218,0.149,0.46,0.258,0.682,0.399c0.163,0.103,0.314,0.224,0.474,0.327c0.303,0.194,0.695,0.103,0.938-0.142
	c0.358-0.066,0.628-0.369,0.637-0.741c0.01-0.522-0.02-1.048-0.028-1.569c-0.012-0.744-0.034-1.486-0.042-2.23
	c-0.017-1.453-0.072-2.904-0.021-4.355c0.063-0.009,0.126-0.017,0.19-0.026c0.39-0.048,0.781-0.093,1.173-0.116
	c-0.036,1.377-0.013,2.756,0.003,4.133c0.008,0.738,0.006,1.476,0.014,2.212c0.008,0.712,0.075,1.421,0.091,2.131
	c0.03,1.294,0.04,2.585,0.022,3.879c-0.008,0.556,0,1.115-0.022,1.671c-0.01,0.302-0.028,0.601-0.04,0.901
	c-0.003,0.066-0.005,0.133-0.006,0.2c-0.701,0.006-1.406-0.011-2.107-0.034c-0.804-0.028-1.605-0.048-2.411-0.05
	c-0.819-0.002-1.639-0.002-2.46,0.014c-0.782,0.016-1.552,0.077-2.323,0.21c-0.556,0.095-1.107,0.222-1.653,0.363
	c-0.03,0.008-0.056,0.022-0.085,0.03c-0.007-0.204-0.014-0.409-0.021-0.614c-0.014-0.389-0.056-0.778-0.081-1.167
	c-0.052-0.764-0.081-1.528-0.127-2.292c-0.095-1.593-0.099-3.188-0.099-4.786c0-0.948-0.012-1.897,0.016-2.845
	c0.024-0.821,0.067-1.642,0.107-2.463C16.876,8.175,17.669,7.69,18.516,7.311z M5.346,6.484c0.34-0.038,0.681-0.054,1.021-0.077
	c0.371-0.026,0.74-0.057,1.113-0.071c0.747-0.025,1.488,0.02,2.232,0.095c0.585,0.095,1.157,0.246,1.732,0.387
	c0.601,0.146,1.18,0.343,1.754,0.57c0.428,0.188,0.851,0.386,1.268,0.594c0.006,0.003,0.013,0.003,0.019,0.006
	c-0.032,0.894-0.054,1.787-0.042,2.681c0.012,0.871,0.016,1.74,0.012,2.609c-0.002,0.786-0.014,1.57-0.018,2.355
	c-0.004,0.813,0.02,1.625,0.044,2.437c0.026,0.877,0.099,1.756,0.155,2.633c0.04,0.623,0.09,1.247,0.123,1.871
	c-0.019-0.01-0.035-0.023-0.054-0.033c-0.716-0.361-1.5-0.482-2.292-0.538c-0.72-0.052-1.438-0.111-2.163-0.109
	c-0.774,0.002-1.548,0.042-2.321,0.072c-0.983,0.037-1.971-0.006-2.951-0.106c-0.002-0.118-0.003-0.235-0.008-0.354
	c-0.012-0.274-0.028-0.55-0.036-0.825c-0.018-0.684-0.028-1.369-0.046-2.054c-0.016-0.651-0.01-1.3-0.032-1.95
	c-0.024-0.774-0.04-1.546-0.083-2.318c-0.036-0.613-0.075-1.228-0.085-1.843c-0.01-0.651,0.004-1.302,0.008-1.952
	C4.697,9.931,4.693,9.3,4.701,8.667C4.713,7.985,4.734,7.303,4.74,6.621C4.942,6.571,5.143,6.515,5.346,6.484z M28.951,24.357
	c-0.371-0.002-0.742-0.006-1.111-0.012c-0.367-0.006-0.732-0.026-1.097-0.02c-0.399,0.006-0.796,0.012-1.194,0.014
	c-1.573,0.014-3.149,0-4.72,0.06c-0.494,0.018-0.988,0.038-1.482,0.071c-0.419,0.03-0.927,0.069-1.159,0.48
	c-0.135,0.238-0.127,0.452-0.091,0.71c0.001,0.009,0.003,0.018,0.004,0.028c-0.007,0-0.015,0-0.022,0
	c-0.246,0.002-0.492,0.008-0.738,0.004c-0.448-0.004-0.899-0.014-1.347-0.04c-0.373-0.02-0.746-0.046-1.121-0.056
	c-0.456-0.011-0.914-0.011-1.37-0.041c-0.002-0.009-0.003-0.017-0.005-0.026c-0.013-0.109-0.026-0.219-0.044-0.328
	c-0.065-0.375-0.327-0.696-0.696-0.809c-0.298-0.093-0.653-0.034-0.962-0.024c-0.689,0.018-1.381,0.014-2.069,0.022
	c-0.748,0.008-1.496-0.01-2.242-0.012c-0.391-0.002-0.78-0.008-1.169-0.018c-0.375-0.008-0.75-0.038-1.125-0.044
	c-0.815-0.015-1.631-0.021-2.446-0.025c-0.01-0.343-0.01-0.686-0.005-1.026c0.008-0.496,0.01-0.996-0.006-1.49
	c-0.018-0.552-0.002-1.107-0.006-1.659c-0.002-0.329-0.022-0.657-0.026-0.986c-0.004-0.339-0.008-0.681-0.016-1.02
	c-0.018-0.726-0.022-1.452-0.071-2.177c-0.048-0.726-0.052-1.452-0.05-2.179c0.004-1.518-0.04-3.038-0.016-4.555
	C2.554,8.771,2.563,8.341,2.572,7.91c0.201-0.01,0.403-0.019,0.604-0.026c0.008,0.357,0.015,0.714,0.02,1.071
	c0.008,0.724,0.002,1.448,0.008,2.173c0.006,0.732,0.008,1.462,0.054,2.194c0.044,0.722,0.091,1.442,0.121,2.163
	c0.026,0.627,0.044,1.252,0.056,1.879c0.012,0.572,0.012,1.145,0.024,1.716c0.014,0.609,0.036,1.218,0.05,1.827
	c0.012,0.47,0.01,0.94,0.014,1.411c0.001,0.125,0.042,0.237,0.098,0.341c0.004,0.213,0.088,0.42,0.239,0.571
	c0.169,0.169,0.359,0.218,0.587,0.242c1.438,0.163,2.899,0.067,4.343,0.024c0.72-0.022,1.444-0.022,2.167,0.002
	c0.627,0.021,1.265,0.053,1.892,0.126c0.311,0.051,0.625,0.129,0.92,0.238c0.161,0.076,0.317,0.164,0.464,0.266
	c0.142,0.12,0.275,0.249,0.394,0.391c0.04,0.055,0.091,0.132,0.146,0.178c0.149,0.123,0.212,0.159,0.395,0.226
	c0.23,0.081,0.532,0.01,0.73-0.117c0.061-0.038,0.117-0.083,0.173-0.13c0.148-0.107,0.301-0.203,0.465-0.282
	c0.325-0.12,0.668-0.204,1.004-0.284c0.467-0.111,0.935-0.223,1.409-0.299c0.622-0.076,1.25-0.101,1.877-0.118
	c0.774-0.022,1.55-0.032,2.325-0.036c0.744-0.004,1.486,0.036,2.228,0.077c0.692,0.038,1.383,0.067,2.075,0.091
	c0.162,0.005,0.306-0.059,0.431-0.149c0.372,0.07,0.748-0.144,0.868-0.523c0.05-0.151,0.04-0.312,0.034-0.466
	c-0.006-0.153-0.002-0.304-0.002-0.456c0.002-0.321,0.016-0.645,0.03-0.966c0.028-0.619,0.018-1.24,0.024-1.857
	c0.004-0.691,0.014-1.379,0.01-2.07c-0.006-0.744,0.02-1.49-0.018-2.234c-0.034-0.675-0.06-1.345-0.057-2.022
	c0.002-0.696,0.008-1.391-0.01-2.087c-0.02-0.704-0.02-1.409-0.012-2.113c0.002-0.164,0.012-0.328,0.017-0.492
	c0.168-0.023,0.336-0.048,0.504-0.073c0.004,0.616,0.01,1.232,0.011,1.846c0.002,0.73-0.03,1.456-0.028,2.184
	c0.004,1.51,0.012,3.018,0.04,4.528c0.01,0.619,0.014,1.238,0.032,1.857c0.018,0.643,0.046,1.286,0.075,1.928
	c0.026,0.599,0.073,1.196,0.087,1.798c0.012,0.542,0.012,1.083,0.016,1.625c0,0.088-0.002,0.176-0.001,0.264
	c-0.055,0.001-0.109,0.001-0.164,0.003C29.209,24.355,29.08,24.36,28.951,24.357z M6.864,11.928c0-0.47,0.393-0.863,0.865-0.863
	c0.254,0,0.51,0.004,0.766,0.006c0.738,0.008,1.474,0.016,2.208-0.056c0.015-0.001,0.031-0.002,0.046-0.002
	c0.194,0,0.403,0.112,0.533,0.242c0.153,0.153,0.24,0.361,0.24,0.577s-0.087,0.427-0.24,0.579c-0.163,0.163-0.355,0.222-0.579,0.24
	c-0.988,0.073-1.982,0.127-2.974,0.141C7.257,12.801,6.864,12.395,6.864,11.928z M11.267,14.134c0.425-0.032,0.78,0.377,0.78,0.78
	c0,0.206-0.083,0.407-0.228,0.554c-0.161,0.161-0.335,0.2-0.552,0.228c-0.317,0.042-0.635,0.038-0.952,0.034
	c-0.127-0.002-0.254-0.004-0.381-0.004c-0.641,0.002-1.282-0.002-1.923-0.018c-0.452-0.012-0.829-0.369-0.829-0.831
	c0-0.431,0.361-0.832,0.801-0.832c0.009,0,0.019,0,0.029,0.001c0.641,0.026,1.282,0.057,1.923,0.087
	C10.377,14.154,10.825,14.164,11.267,14.134z M11.871,18.183c0,0.212-0.083,0.417-0.232,0.566c-0.137,0.135-0.367,0.256-0.565,0.232
	c-0.096-0.01-0.191-0.023-0.287-0.036c-0.385-0.037-0.777-0.003-1.164,0.008c-0.448,0.012-0.895,0.02-1.343,0.024
	c-0.446,0.004-0.817-0.377-0.817-0.819c0-0.44,0.367-0.82,0.811-0.82c0.002,0,0.005,0,0.007,0c0.494,0.006,0.99,0.014,1.484,0.03
	c0.437,0.014,0.873,0.038,1.31,0.018C11.507,17.366,11.871,17.765,11.871,18.183z"/>
</svg>