<?xml version="1.0" encoding="utf-8"?>
<!-- Generator: Adobe Illustrator 21.1.0, SVG Export Plug-In . SVG Version: 6.00 Build 0)  -->
<svg version="1.1" id="designs" xmlns="http://www.w3.org/2000/svg" xmlns:xlink="http://www.w3.org/1999/xlink" x="0px" y="0px"
	 width="32px" height="32px" viewBox="0 0 32 32" style="enable-background:new 0 0 32 32;" xml:space="preserve">
<style type="text/css">
	.sketchy_een{fill:#111918;}
</style>
<path class="sketchy_een" d="M24.003,29.626c0.033-0.13,0.039-0.261,0.019-0.408c-0.027-0.211-0.07-0.417-0.102-0.627
	c-0.08-0.646-0.138-1.292-0.186-1.94c-0.057-0.749-0.126-1.496-0.188-2.243c-0.132-1.634-0.352-3.258-0.577-4.882
	c-0.001-0.005-0.001-0.011-0.002-0.017c-0.128-1.042-0.193-2.092-0.276-3.139c-0.076-0.981-0.135-1.96-0.15-2.942
	c0.245,0.007,0.49,0.01,0.735,0.025c0.456,0.028,0.838-0.401,0.838-0.838c0-0.45-0.381-0.848-0.838-0.84
	c-0.225,0.004-0.45,0.009-0.674,0.014c-0.027-0.334-0.052-0.669-0.059-1.003c-0.014-0.628-0.02-1.257-0.059-1.885
	c-0.008-0.134-0.052-0.256-0.111-0.369c0.301,0.008,0.602,0.013,0.904,0.03c0.456,0.028,0.838-0.401,0.838-0.838
	c0-0.45-0.381-0.848-0.838-0.84c-0.35,0.006-0.7,0.015-1.05,0.02C22.22,6.9,22.219,6.893,22.214,6.888
	c-0.377-0.395-0.751-0.792-1.146-1.17c-0.482-0.46-0.948-0.935-1.403-1.423c-0.217-0.233-0.429-0.472-0.66-0.693
	c-0.249-0.241-0.51-0.468-0.765-0.703c-0.551-0.508-1.045-1.069-1.573-1.596c-0.01-0.01-0.025-0.014-0.035-0.023
	c-0.009-0.01-0.011-0.022-0.021-0.032C16.45,1.086,16.222,1,15.995,1c-0.218,0-0.435,0.08-0.589,0.248
	c-0.243,0.265-0.476,0.539-0.717,0.808c-0.227,0.253-0.476,0.482-0.713,0.725c-0.231,0.237-0.456,0.476-0.695,0.707
	c-0.255,0.247-0.506,0.496-0.749,0.755c-0.771,0.83-1.5,1.699-2.357,2.44c-0.106,0.092-0.159,0.216-0.19,0.346
	c-0.327,0.005-0.655,0.01-0.982,0.017C8.556,7.054,8.184,7.411,8.184,7.864c0,0.435,0.371,0.83,0.818,0.818
	C9.164,8.677,9.327,8.67,9.489,8.666C9.46,9.134,9.444,9.604,9.436,10.073c-0.009,0.619,0.035,1.237,0.055,1.855
	c-0.163,0.003-0.326,0.005-0.488,0.008c-0.447,0.008-0.818,0.365-0.818,0.818c0,0.435,0.371,0.83,0.818,0.818
	c0.113-0.003,0.227-0.008,0.34-0.011c-0.029,0.592-0.069,1.184-0.124,1.774c-0.075,0.792-0.158,1.585-0.223,2.379
	c-0.069,0.82-0.16,1.636-0.209,2.458c-0.049,0.814-0.121,1.622-0.192,2.434c-0.103,1.174-0.203,2.347-0.32,3.521
	c-0.055,0.547-0.115,1.095-0.172,1.642c-0.053,0.49-0.09,0.98-0.151,1.469c-0.01,0.069-0.021,0.139-0.033,0.207
	C7.897,29.578,7.901,29.7,7.924,29.82c-0.046,0.103-0.073,0.216-0.073,0.334c0,0.458,0.383,0.848,0.846,0.846
	c0.923-0.006,1.847-0.043,2.772-0.034c0.808,0.01,1.618,0.012,2.428-0.002c1.065-0.018,2.132-0.018,3.199-0.016
	c0.577,0,1.156,0,1.735-0.004c0.425,0,0.85-0.004,1.274-0.002c0.379,0,0.759,0.02,1.138,0.018c0.391-0.002,0.78-0.02,1.17-0.036
	c0.304-0.012,0.611-0.002,0.911-0.037c0.227-0.026,0.415-0.073,0.583-0.241c0.154-0.154,0.241-0.365,0.241-0.583
	C24.148,29.905,24.088,29.758,24.003,29.626z M10.289,20.881c0.043-0.562,0.08-1.124,0.129-1.685
	c0.244-0.276,0.498-0.538,0.777-0.782c0.381-0.332,0.761-0.66,1.128-1.008c0.761-0.72,1.538-1.423,2.361-2.072
	c0.42-0.322,0.841-0.643,1.253-0.972c0.4-0.321,0.786-0.659,1.169-0.998c0.02,0,0.04,0,0.061,0c0.45,0,0.903,0,1.355,0.014
	c0.491,0.017,0.982,0.016,1.473,0.017c-0.34,0.312-0.677,0.626-1.018,0.936c-0.31,0.285-0.624,0.565-0.927,0.86
	c-0.281,0.271-0.555,0.549-0.838,0.822c-0.585,0.565-1.184,1.118-1.792,1.66c-0.609,0.541-1.225,1.075-1.82,1.632
	c-0.429,0.401-0.856,0.8-1.282,1.203c-0.423,0.401-0.798,0.852-1.197,1.276c-0.332,0.353-0.668,0.703-1.013,1.043
	C10.17,22.179,10.241,21.531,10.289,20.881z M14.066,13.957c0.003-0.003,0.006-0.005,0.01-0.007
	c0.002-0.001,0.004-0.003,0.006-0.004C14.076,13.949,14.071,13.953,14.066,13.957z M13.642,5.395
	c0.241-0.261,0.504-0.498,0.765-0.739c0.235-0.215,0.458-0.445,0.686-0.67c0.241-0.239,0.49-0.464,0.729-0.703
	C15.912,3.191,16,3.095,16.089,3.001c0.341,0.33,0.679,0.663,1.027,0.986c0.253,0.233,0.514,0.458,0.763,0.694
	c0.235,0.221,0.45,0.46,0.67,0.693c0.227,0.239,0.452,0.478,0.688,0.709c0.231,0.229,0.48,0.441,0.723,0.656
	c0.056,0.05,0.106,0.105,0.162,0.155c-0.292,0-0.584,0.001-0.875-0.009c-0.337-0.012-0.675-0.015-1.012-0.015
	c-0.386,0-0.772,0.004-1.158,0.005c-0.719,0-1.436-0.004-2.156-0.004c-0.922,0.002-1.843,0.013-2.765,0.07
	c0.042-0.04,0.087-0.077,0.128-0.118C12.747,6.357,13.193,5.875,13.642,5.395z M11.636,8.545c0.828-0.087,1.658-0.099,2.488-0.095
	c0.753,0.004,1.506,0.01,2.258,0.02c0.261,0.004,0.522,0.004,0.784,0.004c0.45,0,0.903,0,1.355,0.014
	c0.684,0.024,1.367,0.024,2.051,0.024c0.133,0,0.266,0.002,0.399,0.002c-0.07,0.117-0.119,0.246-0.109,0.388
	c0.047,0.618,0.093,1.237,0.119,1.855c0.012,0.271,0.016,0.54,0.039,0.808c0.006,0.076,0.009,0.151,0.015,0.226
	c-0.218-0.002-0.436-0.004-0.655-0.004c-0.377,0-0.757,0.002-1.134-0.012c-0.337-0.012-0.675-0.015-1.012-0.015
	c-0.386,0-0.772,0.005-1.158,0.005c-0.719,0-1.436-0.004-2.156-0.004c-0.948,0.002-1.895,0.012-2.843,0.073
	c-0.351,0.023-0.701,0.042-1.052,0.056c-0.022-0.274-0.032-0.551-0.044-0.824c-0.012-0.322-0.038-0.642-0.036-0.962
	c0.001-0.507,0.038-1.013,0.088-1.517C11.235,8.573,11.436,8.566,11.636,8.545z M11.636,13.436c0.828-0.087,1.658-0.099,2.488-0.095
	c0.224,0.001,0.448,0.004,0.672,0.006c-0.211,0.182-0.419,0.367-0.637,0.539c-0.013,0.01-0.026,0.02-0.039,0.03
	c0.003-0.003,0.007-0.005,0.01-0.008c-0.005,0.004-0.01,0.008-0.015,0.012c-0.021,0.016-0.042,0.033-0.064,0.049
	c0.006-0.005,0.012-0.009,0.018-0.014c-0.007,0.006-0.015,0.012-0.022,0.017c-0.014,0.011-0.028,0.022-0.042,0.032
	c-0.008,0.006-0.017,0.013-0.025,0.019c0.015-0.012,0.03-0.023,0.046-0.035c-0.021,0.017-0.042,0.033-0.064,0.05
	c-0.467,0.359-0.923,0.728-1.369,1.114c-0.411,0.354-0.81,0.723-1.211,1.089c-0.25,0.228-0.504,0.447-0.756,0.669
	c0.001-0.01,0.002-0.02,0.003-0.03c0.065-0.678,0.128-1.354,0.209-2.029c0.054-0.455,0.096-0.911,0.128-1.368
	C11.188,13.468,11.413,13.459,11.636,13.436z M11.736,29.354c-0.067-0.001-0.134-0.002-0.201-0.003
	c0.16-0.156,0.32-0.312,0.48-0.469c0.508-0.498,0.99-1.026,1.521-1.5c0.261-0.233,0.531-0.45,0.784-0.693
	c0.273-0.261,0.541-0.529,0.814-0.792c0.557-0.539,1.114-1.081,1.675-1.616c0.587-0.559,1.195-1.094,1.792-1.642
	c0.632-0.583,1.265-1.166,1.893-1.751c0.31-0.29,0.292-0.81,0-1.102c-0.152-0.152-0.348-0.225-0.545-0.225
	c-0.201,0-0.402,0.077-0.558,0.225c-0.589,0.561-1.162,1.136-1.753,1.695c-0.559,0.531-1.144,1.033-1.701,1.567
	c-0.575,0.553-1.146,1.108-1.729,1.656c-0.531,0.498-1.051,1.008-1.598,1.49c-0.504,0.443-0.954,0.947-1.43,1.419
	c-0.453,0.447-0.896,0.917-1.391,1.321c-0.081,0.06-0.162,0.119-0.243,0.176c-0.026,0.018-0.042,0.041-0.066,0.059
	c0.005-0.068,0.015-0.136,0.02-0.204c0.028-0.362,0.065-0.721,0.105-1.079c0.081-0.751,0.172-1.502,0.245-2.252
	c0.012-0.124,0.023-0.248,0.034-0.372c0.039-0.027,0.087-0.044,0.116-0.078c0.231-0.279,0.494-0.524,0.753-0.775
	c0.265-0.255,0.518-0.522,0.771-0.788c0.543-0.575,1.059-1.176,1.604-1.749c0.292-0.306,0.607-0.589,0.919-0.873
	c0.29-0.267,0.579-0.535,0.871-0.8c0.616-0.559,1.247-1.102,1.865-1.66c0.85-0.767,1.666-1.571,2.484-2.371
	c0.431-0.425,0.895-0.818,1.351-1.213c0.131-0.113,0.264-0.224,0.395-0.338c0.011,0.117,0.018,0.235,0.03,0.352
	c0.059,0.616,0.113,1.231,0.172,1.847c0.059,0.632,0.101,1.266,0.156,1.899c0.057,0.62,0.148,1.232,0.235,1.846
	c0.104,0.786,0.206,1.571,0.293,2.358c0.026,0.241,0.035,0.484,0.055,0.726c-0.064,0.036-0.129,0.068-0.181,0.124
	c-0.543,0.587-1.093,1.174-1.676,1.721c-0.52,0.486-1.061,0.95-1.581,1.438c-0.52,0.486-1.065,0.938-1.602,1.403
	c-0.249,0.215-0.494,0.433-0.741,0.648c-0.13,0.115-0.249,0.246-0.375,0.37c-0.468,0.001-0.935,0-1.403,0
	C13.508,29.35,12.621,29.37,11.736,29.354z M21.439,29.362c-0.344,0.008-0.688-0.014-1.029-0.014c-0.369,0.002-0.737,0.002-1.106,0
	c-0.414-0.001-0.827,0.001-1.241,0c0.507-0.442,1.012-0.883,1.503-1.343c0.522-0.488,1.053-0.96,1.596-1.423
	c0.326-0.278,0.642-0.568,0.951-0.865c0.043,0.547,0.099,1.093,0.145,1.639c0.054,0.654,0.144,1.303,0.247,1.95
	c-0.018,0.001-0.037,0.002-0.055,0.003C22.113,29.336,21.775,29.356,21.439,29.362z M13.984,14.02
	c0.022-0.017,0.044-0.034,0.066-0.051c-0.016,0.012-0.031,0.024-0.047,0.036C13.997,14.01,13.991,14.015,13.984,14.02z
	 M13.984,14.02c-0.008,0.006-0.016,0.013-0.024,0.019c-0.01,0.008-0.02,0.015-0.029,0.023C13.949,14.048,13.967,14.034,13.984,14.02
	z"/>
</svg>