<?xml version="1.0" encoding="utf-8"?>
<!-- Generator: Adobe Illustrator 21.1.0, SVG Export Plug-In . SVG Version: 6.00 Build 0)  -->
<svg version="1.1" id="designs" xmlns="http://www.w3.org/2000/svg" xmlns:xlink="http://www.w3.org/1999/xlink" x="0px" y="0px"
	 width="32px" height="32px" viewBox="0 0 32 32" style="enable-background:new 0 0 32 32;" xml:space="preserve">
<style type="text/css">
	.sketchy_een{fill:#111918;}
</style>
<path class="sketchy_een" d="M25.55,25.304c-0.006-0.799-0.025-1.596-0.029-2.396c-0.004-0.811-0.008-1.622-0.068-2.432
	c-0.048-0.667-0.128-1.329-0.225-1.99c-0.091-0.605-0.194-1.212-0.431-1.779c-0.258-0.621-0.524-1.236-0.852-1.823
	c-0.14-0.246-0.305-0.477-0.467-0.708c-0.187-0.265-0.358-0.541-0.537-0.808c0.01-0.052,0.034-0.103,0.029-0.153
	c-0.029-0.281-0.014-0.57-0.023-0.853c-0.016-0.485-0.029-0.968-0.066-1.451c-0.017-0.227-0.08-0.425-0.244-0.59
	c-0.155-0.157-0.369-0.244-0.59-0.244c-0.105,0-0.207,0.023-0.303,0.06c-0.122-0.083-0.258-0.145-0.411-0.145
	c-0.014,0-0.027,0-0.041,0.001c-0.117,0.007-0.233,0.004-0.35,0.006c-0.006-0.219-0.033-0.44-0.064-0.656
	c-0.043-0.289-0.109-0.576-0.264-0.83c-0.233-0.384-0.547-0.669-0.937-0.89c-0.19-0.109-0.396-0.202-0.613-0.237
	c-0.215-0.036-0.424-0.054-0.639-0.054c-0.039,0-0.078,0.001-0.118,0.002c-0.116,0.004-0.232,0.016-0.349,0.023
	c0.005-0.022,0.012-0.044,0.018-0.067c0.081-0.345,0.171-0.689,0.248-1.034c0.085-0.386,0.114-0.774,0.099-1.168
	c-0.017-0.423-0.07-0.861-0.177-1.269c-0.062-0.233-0.153-0.458-0.264-0.671c-0.136-0.26-0.359-0.462-0.588-0.634
	C16.908,2.221,16.429,2,15.935,2c-0.036,0-0.071,0.001-0.107,0.003c-0.211,0.016-0.423,0.05-0.628,0.093
	c-0.237,0.048-0.442,0.124-0.661,0.221c-0.359,0.159-0.632,0.436-0.846,0.758c-0.242,0.361-0.491,0.78-0.551,1.214
	c-0.066,0.467-0.081,0.943-0.076,1.416c0.008,0.579,0.057,1.164,0.168,1.735c-0.097,0.004-0.193,0.006-0.29,0.011
	c-0.384,0.016-0.768,0.027-1.142,0.124c-0.231,0.058-0.458,0.159-0.669,0.262c-0.246,0.12-0.471,0.301-0.617,0.533
	c-0.303,0.487-0.33,1.086-0.281,1.639c0.003,0.037,0.016,0.068,0.022,0.104c-0.159-0.002-0.317,0.001-0.476-0.005
	c-0.067-0.003-0.128,0.02-0.191,0.036c-0.063-0.016-0.124-0.039-0.19-0.039c-0.466,0-0.836,0.384-0.844,0.846
	c-0.006,0.388,0.019,0.774,0.031,1.162c0.008,0.31-0.014,0.623-0.006,0.933c0.003,0.098,0.028,0.19,0.06,0.278
	c-0.011,0.01-0.026,0.011-0.037,0.021c-0.099,0.099-0.169,0.217-0.206,0.351c-0.033,0.079-0.065,0.158-0.097,0.235
	c-0.14,0.323-0.283,0.644-0.423,0.967c-0.163,0.372-0.326,0.747-0.435,1.139c-0.219,0.778-0.378,1.573-0.522,2.368
	c-0.157,0.879-0.266,1.769-0.336,2.659c-0.062,0.809-0.109,1.624-0.12,2.436c-0.008,0.52-0.01,1.038-0.017,1.556
	c-0.006,0.528,0.021,1.057,0.023,1.585c0,0.489-0.01,0.978-0.008,1.466c0,0.198,0.008,0.398,0.016,0.596
	c0.01,0.217-0.006,0.467,0.066,0.673c0.074,0.215,0.188,0.39,0.39,0.506c0.194,0.114,0.433,0.146,0.652,0.085
	c0.124-0.034,0.232-0.103,0.328-0.187c0.764,0.049,1.526,0.02,2.29,0.003c0.398-0.01,0.797,0.006,1.195,0.016s0.793,0.01,1.189,0.01
	c0.758,0.002,1.517-0.019,2.273-0.031c0.784-0.014,1.567-0.002,2.349,0.01c1.143,0.016,2.287,0.01,3.427,0.035
	c0.555,0.014,1.108,0.029,1.662,0.052c0.27,0.012,0.539,0.037,0.811,0.05c0.266,0.016,0.533,0.031,0.799,0.062
	c0.164,0.02,0.348-0.056,0.49-0.157c0.099,0.044,0.209,0.069,0.325,0.069c0.431,0,0.844-0.374,0.82-0.822
	c-0.023-0.516-0.016-1.036-0.019-1.554C25.523,26.784,25.556,26.045,25.55,25.304z M9.079,15.967
	c0.197-0.442,0.417-0.873,0.62-1.311c0.604-0.034,1.209-0.071,1.815-0.077c0.33-0.002,0.661,0,0.993,0.002
	c0.297,0.002,0.596,0.004,0.894,0.002c0.627-0.006,1.253-0.002,1.882,0.021c0.297,0.012,0.595,0.004,0.892,0.01
	c0.202,0.004,0.4,0.014,0.599,0.008c0.44-0.016,0.807-0.357,0.807-0.809c0-0.452-0.367-0.789-0.807-0.807
	C16.586,13,16.4,13.008,16.211,13.01c-0.301,0.004-0.601-0.008-0.9-0.014c-0.287-0.008-0.574-0.023-0.859-0.035
	c-0.343-0.014-0.687-0.01-1.028-0.014c-0.181-0.003-0.361-0.004-0.542-0.004c-0.448,0-0.895,0.006-1.342,0.008
	c-0.437,0.001-0.874,0.013-1.311,0.02c-0.025-0.275-0.019-0.555-0.017-0.831c0-0.156,0.008-0.312,0.013-0.468
	c0.21-0.007,0.419-0.016,0.628-0.02c0.367-0.006,0.731-0.008,1.096-0.01c0.799-0.008,1.598-0.039,2.398-0.058
	c0.817-0.019,1.633-0.012,2.45-0.002c0.396,0.006,0.789,0.031,1.185,0.048c0.38,0.017,0.76,0.017,1.141,0.023
	c0.38,0.008,0.762,0.006,1.144,0.012c0.097,0.002,0.194,0.002,0.293,0c0.24,0,0.481-0.001,0.719,0.021
	c0.019,0.224,0.041,0.447,0.057,0.672c0.016,0.263,0.02,0.532,0.045,0.797c-0.201,0.002-0.402,0-0.604-0.004
	c-0.625-0.008-1.247-0.054-1.872-0.056c-0.002,0-0.005,0-0.007,0c-0.426,0-0.779,0.361-0.779,0.786c0,0.429,0.357,0.789,0.786,0.788
	c0.411-0.002,0.822-0.017,1.234-0.002c0.262,0.01,0.524,0.033,0.788,0.035c0.213,0.002,0.431,0.006,0.644-0.014
	c0.048-0.005,0.104-0.009,0.157-0.013c0.273,0.369,0.547,0.739,0.768,1.139c0.265,0.48,0.488,0.975,0.709,1.474
	c-0.061-0.002-0.121-0.001-0.182-0.003c-0.225-0.004-0.448-0.004-0.673-0.002c-0.161,0.002-0.326,0.002-0.487,0
	c-0.384-0.002-0.766-0.002-1.15-0.004c-0.388,0-0.776-0.019-1.164-0.023c-1.606-0.016-3.21-0.035-4.816-0.021
	c-1.086,0.01-2.172,0.012-3.259,0.012c-0.516,0.002-1.034,0.016-1.55,0.008c-0.401-0.005-0.801-0.028-1.201-0.047
	C8.822,16.789,8.932,16.372,9.079,15.967z M11.933,9.252c0.06-0.035,0.122-0.066,0.185-0.096c0.141-0.051,0.283-0.089,0.43-0.115
	c0.193-0.02,0.386-0.034,0.58-0.046c0.242-0.015,0.493-0.031,0.737-0.018c0.089,0.009,0.175,0.007,0.26-0.008
	c0.13,0.027,0.263,0.033,0.391-0.002c0.211-0.058,0.396-0.2,0.506-0.39c0.105-0.18,0.161-0.446,0.085-0.65
	c-0.148-0.396-0.273-0.79-0.343-1.205c-0.037-0.352-0.047-0.707-0.052-1.062c-0.005-0.354-0.026-0.713,0.003-1.067
	c0.017-0.076,0.039-0.149,0.066-0.222c0.078-0.162,0.171-0.316,0.274-0.463c0.04-0.044,0.083-0.085,0.128-0.125
	c0.05-0.033,0.102-0.064,0.156-0.092c0.157-0.051,0.318-0.092,0.48-0.122c0.041-0.003,0.083-0.005,0.124-0.006
	c0.024,0.006,0.048,0.012,0.072,0.02c0.089,0.049,0.174,0.102,0.257,0.16c0.044,0.038,0.086,0.077,0.126,0.119
	c0.023,0.037,0.045,0.076,0.065,0.115c0.061,0.177,0.103,0.354,0.135,0.538c0.041,0.375,0.054,0.758,0.017,1.133
	c-0.066,0.361-0.188,0.71-0.284,1.066c-0.091,0.337-0.19,0.683-0.256,1.028c-0.008,0.04-0.003,0.077-0.007,0.117
	c-0.097,0.144-0.165,0.306-0.165,0.481c0,0.233,0.093,0.456,0.256,0.621c0.149,0.147,0.404,0.281,0.621,0.256
	c0.269-0.031,0.539-0.07,0.808-0.109c0.347-0.039,0.713-0.062,1.063-0.036c0.036,0.008,0.071,0.017,0.106,0.028
	c0.09,0.044,0.178,0.091,0.262,0.145c0.051,0.046,0.099,0.095,0.144,0.146c0.011,0.017,0.021,0.034,0.031,0.051
	c0.04,0.121,0.07,0.242,0.093,0.367c0.006,0.069,0.012,0.138,0.018,0.207c-0.061,0.001-0.123,0.001-0.185,0.002
	c-0.374,0.006-0.751,0.004-1.125,0.002c-0.4-0.002-0.801-0.004-1.201,0.002c-1.616,0.023-3.232,0.068-4.847,0.083
	c-0.008,0-0.016,0-0.024,0c0.003-0.032,0.021-0.064,0.018-0.096c-0.022-0.234-0.041-0.46-0.026-0.691
	C11.922,9.297,11.928,9.274,11.933,9.252z M22.875,28.28c-0.367-0.016-0.733-0.019-1.102-0.021c-0.745-0.008-1.49-0.012-2.235,0
	c-0.776,0.012-1.55,0.012-2.326,0.014c-0.361,0.002-0.72-0.004-1.078-0.01c-0.425-0.008-0.848-0.016-1.271-0.012
	c-0.564,0.006-1.131,0.027-1.695,0.035c-0.59,0.01-1.177-0.012-1.767-0.035c-0.582-0.023-1.162-0.048-1.746-0.052
	c-0.521-0.005-1.038-0.037-1.557-0.074c-0.018-0.358-0.027-0.717-0.027-1.076c0.002-0.753-0.017-1.505-0.025-2.258
	c-0.008-0.799-0.008-1.598,0.023-2.396c0.029-0.801,0.062-1.606,0.153-2.403c0.018-0.17,0.039-0.339,0.061-0.509
	c0.032-0.225,0.083-0.447,0.121-0.671c0.745,0.013,1.494-0.006,2.238-0.024c0.793-0.017,1.587-0.025,2.378-0.023
	c0.78,0.002,1.561,0.01,2.341,0.025c0.813,0.017,1.625,0.004,2.438,0.025c0.993,0.027,1.988,0.027,2.977,0.087
	c0.491,0.031,0.983,0.019,1.476,0.019c0.463,0,0.937-0.008,1.4,0.042c0.006,0.001,0.012,0.002,0.018,0.003
	c0.057,0.292,0.115,0.584,0.158,0.879c0.094,0.789,0.136,1.578,0.138,2.37c0,0.805-0.012,1.61-0.019,2.417
	c-0.008,0.782-0.041,1.565-0.047,2.347c-0.004,0.305-0.01,0.609-0.01,0.914c0,0.13,0.003,0.259,0.006,0.388
	C23.556,28.288,23.217,28.297,22.875,28.28z M12.133,20.793c0.159,0.159,0.25,0.376,0.25,0.601c0,0.469-0.388,0.85-0.854,0.854
	c-0.355,0.004-0.712-0.008-1.067-0.023c-0.477-0.019-0.877-0.384-0.877-0.875c0-0.447,0.378-0.878,0.838-0.878
	c0.013,0,0.026,0,0.039,0.001c0.355,0.019,0.712,0.045,1.067,0.07C11.763,20.558,11.965,20.624,12.133,20.793z M12.355,24.881
	c0,0.467-0.392,0.863-0.861,0.861c-0.396-0.002-0.791-0.008-1.187-0.017c-0.477-0.012-0.877-0.39-0.877-0.877
	c0-0.457,0.386-0.877,0.852-0.877c0.008,0,0.017,0,0.025,0c0.396,0.014,0.791,0.031,1.187,0.049
	C11.964,24.041,12.355,24.396,12.355,24.881z"/>
</svg>