<?xml version="1.0" encoding="utf-8"?>
<!-- Generator: Adobe Illustrator 21.1.0, SVG Export Plug-In . SVG Version: 6.00 Build 0)  -->
<svg version="1.1" id="designs" xmlns="http://www.w3.org/2000/svg" xmlns:xlink="http://www.w3.org/1999/xlink" x="0px" y="0px"
	 width="32px" height="32px" viewBox="0 0 32 32" style="enable-background:new 0 0 32 32;" xml:space="preserve">
<style type="text/css">
	.sketchy_een{fill:#111918;}
</style>
<g>
	<path class="sketchy_een" d="M26.739,25.559c0.008-0.241,0.015-0.482,0.022-0.724c0.011-0.419,0.004-0.838,0.015-1.257
		c0.025-0.865,0.072-1.729,0.017-2.594c-0.055-0.844-0.078-1.692-0.155-2.534c-0.042-0.442-0.083-0.884-0.116-1.326
		c-0.034-0.468-0.095-0.929-0.167-1.392c-0.065-0.421-0.118-0.848-0.212-1.263c-0.099-0.425-0.224-0.844-0.37-1.256
		c-0.159-0.451-0.345-0.895-0.548-1.326c-0.188-0.398-0.374-0.796-0.613-1.166c-0.486-0.751-1.079-1.424-1.749-2.016
		c-0.666-0.59-1.369-1.167-2.158-1.585c-0.362-0.191-0.749-0.354-1.128-0.508c-0.26-0.106-0.53-0.165-0.803-0.212
		c0.09-0.115,0.173-0.236,0.235-0.362c0.209-0.421,0.366-0.897,0.303-1.373c-0.032-0.239-0.065-0.466-0.135-0.698
		c-0.144-0.47-0.427-0.886-0.795-1.212c-0.233-0.207-0.514-0.36-0.797-0.485C17.245,2.119,16.875,2,16.498,2
		c-0.073,0-0.146,0.004-0.219,0.014c-0.495,0.063-0.952,0.241-1.381,0.497c-0.368,0.22-0.635,0.56-0.85,0.926
		c-0.216,0.37-0.305,0.771-0.358,1.191c-0.046,0.358,0.004,0.739,0.097,1.084c0.032,0.119,0.078,0.23,0.135,0.334
		c-0.039,0.002-0.078,0.002-0.116,0.004c-0.453,0.025-0.899,0.087-1.337,0.203c-0.463,0.121-0.908,0.307-1.343,0.506
		C10.304,7.14,9.663,7.79,9.044,8.437c-0.33,0.345-0.633,0.732-0.878,1.142c-0.239,0.402-0.423,0.836-0.599,1.269
		c-0.643,1.574-1.161,3.216-1.403,4.902c-0.137,0.937-0.243,1.879-0.357,2.82c-0.104,0.865-0.165,1.743-0.197,2.613
		c-0.03,0.787-0.044,1.574-0.04,2.363c0,0.379,0.004,0.76,0.004,1.142c0,0.285-0.01,0.573,0.007,0.857
		c-0.02,0.005-0.041,0.007-0.06,0.013c-0.007,0-0.013-0.004-0.021-0.004c-0.417,0-0.793,0.355-0.781,0.781
		c0.011,0.423,0.027,0.846,0.034,1.269c0.006,0.339-0.009,0.677-0.013,1.017c-0.001,0.068,0.022,0.129,0.039,0.192
		c-0.081,0.121-0.14,0.258-0.14,0.414c0,0.416,0.353,0.783,0.774,0.774c0.698-0.016,1.394-0.059,2.092-0.08
		c0.377-0.011,0.755-0.017,1.13-0.042c0.377-0.025,0.753-0.047,1.13-0.074c0.785-0.053,1.574-0.089,2.363-0.101
		c0.745-0.012,1.489-0.062,2.232-0.103c1.527-0.085,3.059-0.11,4.588-0.11c1.489,0.002,2.979-0.006,4.468-0.013
		c0.791-0.006,1.58,0.013,2.369,0.015c0.122,0,0.234-0.036,0.338-0.088c0.124,0.088,0.267,0.152,0.431,0.152
		c0.429,0,0.759-0.349,0.77-0.768c0.009-0.328,0-0.654,0.006-0.982c0.009-0.495,0.027-0.988,0.032-1.481
		C27.366,25.951,27.089,25.646,26.739,25.559z M19.991,8.569c0.334,0.184,0.641,0.399,0.944,0.626
		c0.742,0.581,1.413,1.234,2.003,1.966c0.411,0.58,0.721,1.207,1.013,1.854c0.221,0.55,0.399,1.114,0.546,1.688
		c0.072,0.281,0.101,0.569,0.144,0.855c0.045,0.288,0.089,0.576,0.131,0.864c0.042,0.36,0.055,0.722,0.081,1.084
		c0.03,0.421,0.076,0.836,0.093,1.257c0.03,0.81,0.104,1.62,0.129,2.431c0.025,0.825-0.032,1.65-0.042,2.475
		c-0.005,0.55-0.032,1.099-0.055,1.648c-0.567-0.016-1.134-0.03-1.701-0.052c-0.535-0.019-1.071-0.02-1.607-0.023
		c0-0.128,0-0.256,0-0.384c-0.002-0.444,0-0.89-0.002-1.333c-0.004-0.869,0.002-1.739,0.011-2.61
		c0.011-0.85-0.047-1.699-0.091-2.549c-0.045-0.905-0.163-1.805-0.29-2.701c-0.114-0.812-0.235-1.621-0.434-2.418
		c-0.209-0.829-0.52-1.625-0.87-2.406c-0.173-0.389-0.355-0.77-0.569-1.138c-0.224-0.381-0.484-0.76-0.764-1.102
		c-0.225-0.272-0.482-0.514-0.738-0.756c0.409,0.063,0.807,0.144,1.195,0.291C19.414,8.271,19.706,8.414,19.991,8.569z
		 M16.906,25.278c0.024-0.729,0.068-1.456,0.077-2.187c0.01-0.781,0.006-1.564,0.004-2.348c-0.004-1.564-0.006-3.127-0.017-4.692
		c-0.011-1.373-0.038-2.752,0.006-4.126c0.021-0.687,0.072-1.373,0.095-2.062c0.009-0.256-0.004-0.511-0.001-0.767
		c0.171,0.166,0.341,0.331,0.494,0.515c0.203,0.284,0.405,0.573,0.574,0.879c0.187,0.343,0.349,0.697,0.503,1.056
		c0.252,0.631,0.473,1.27,0.643,1.929c0.165,0.646,0.271,1.31,0.368,1.97c0.101,0.819,0.196,1.642,0.248,2.466
		c0.027,0.425,0.034,0.854,0.055,1.28c0.017,0.396,0.027,0.792,0.015,1.189c-0.028,0.865-0.053,1.729-0.063,2.594
		c-0.007,0.757-0.01,1.514-0.023,2.271C18.891,25.253,17.898,25.263,16.906,25.278z M12.322,25.388
		c-0.068-0.618-0.139-1.236-0.192-1.854c-0.068-0.802-0.089-1.604-0.083-2.408c0.006-0.793,0.03-1.582,0.078-2.373
		c0.048-0.785,0.136-1.562,0.234-2.341c0.116-0.841,0.255-1.682,0.431-2.51c0.187-0.885,0.45-1.737,0.787-2.577
		c0.292-0.663,0.607-1.321,1.035-1.908c0.19-0.223,0.39-0.425,0.61-0.614c0.096-0.067,0.202-0.114,0.303-0.172
		c0.01,0.521,0.014,1.042,0.002,1.564c-0.009,0.395-0.038,0.789-0.061,1.182c-0.025,0.416-0.034,0.833-0.046,1.25
		c-0.04,1.576-0.04,3.156-0.04,4.733c0,1.347,0.004,2.693,0.008,4.042c0.002,0.683,0.008,1.367,0.006,2.052
		c-0.002,0.619-0.061,1.238-0.085,1.857C14.312,25.329,13.317,25.353,12.322,25.388z M15.447,4.377
		c0.058-0.109,0.12-0.212,0.189-0.313c0.02-0.021,0.04-0.042,0.061-0.063c0.126-0.084,0.257-0.158,0.394-0.222
		c0.103-0.035,0.206-0.064,0.312-0.087C16.44,3.69,16.477,3.69,16.514,3.69c0.115,0.026,0.226,0.059,0.338,0.098
		c0.129,0.062,0.254,0.133,0.376,0.209c0.068,0.062,0.132,0.128,0.193,0.197c0.034,0.053,0.064,0.107,0.093,0.163
		c0.041,0.117,0.073,0.235,0.099,0.356c0.004,0.061,0.007,0.121,0.006,0.183c-0.019,0.092-0.043,0.182-0.073,0.272
		c-0.036,0.069-0.075,0.135-0.118,0.2c-0.083,0.093-0.169,0.179-0.264,0.262c-0.169,0.12-0.345,0.227-0.529,0.322
		c-0.002,0-0.005-0.001-0.007-0.001c-0.232-0.046-0.456-0.102-0.679-0.18c-0.109-0.054-0.212-0.115-0.312-0.184
		c-0.06-0.051-0.118-0.104-0.175-0.162c-0.024-0.038-0.046-0.076-0.067-0.116c-0.02-0.066-0.035-0.131-0.048-0.199
		C15.339,5,15.336,4.889,15.343,4.777C15.368,4.641,15.402,4.508,15.447,4.377z M7.332,23.546c0.008-0.796,0.013-1.593,0.038-2.39
		c0.05-1.617,0.259-3.227,0.465-4.829c0.248-1.653,0.717-3.285,1.367-4.822c-0.016,0.037-0.032,0.074-0.048,0.111
		c0.043-0.103,0.086-0.206,0.13-0.309c-0.021,0.05-0.042,0.101-0.063,0.152c0.218-0.501,0.458-0.981,0.774-1.423
		c0.409-0.487,0.871-0.929,1.356-1.342c0.294-0.204,0.598-0.375,0.922-0.528c0.444-0.177,0.897-0.312,1.37-0.391
		c0.137-0.018,0.274-0.03,0.41-0.047c-0.209,0.188-0.402,0.396-0.586,0.61c-0.55,0.643-0.933,1.411-1.273,2.179
		c-0.353,0.802-0.637,1.618-0.848,2.468c-0.197,0.8-0.332,1.616-0.463,2.427c-0.269,1.665-0.406,3.343-0.451,5.028
		c-0.021,0.815-0.028,1.638,0.019,2.454c0.047,0.78,0.138,1.553,0.228,2.327c0.008,0.066,0.014,0.133,0.021,0.199
		c-0.453,0.007-0.905,0.019-1.358,0.023c-0.669,0.007-1.337,0.029-2.006,0.04C7.31,24.838,7.327,24.19,7.332,23.546z M23.256,27.973
		c-0.745-0.004-1.493-0.008-2.238-0.014c-0.394-0.003-0.788-0.005-1.182-0.005c-1.114,0-2.229,0.014-3.343,0.045
		c-0.757,0.021-1.513,0.04-2.27,0.078c-0.759,0.038-1.519,0.066-2.28,0.091c-0.768,0.026-1.536,0.066-2.302,0.116
		c-0.76,0.049-1.519,0.104-2.281,0.117c-0.364,0.008-0.726,0.018-1.089,0.029c0.013-0.447,0.009-0.894,0.007-1.34
		c1.328-0.038,2.658-0.084,3.985-0.087c1.544-0.003,3.086-0.076,4.629-0.108c1.555-0.034,3.112-0.07,4.669-0.074
		c0.238-0.001,0.475-0.006,0.712-0.008c0.153,0.102,0.325,0.176,0.504,0.176c0.186,0,0.365-0.079,0.522-0.188
		c0.178-0.002,0.357-0.004,0.535-0.006c0.778-0.009,1.555,0.032,2.331,0.072c0.529,0.027,1.059,0.047,1.588,0.071
		c0,0.271,0,0.541,0.001,0.812c0,0.07,0.004,0.14,0.006,0.209C24.927,27.96,24.093,27.976,23.256,27.973z"/>
</g>
</svg>