<?xml version="1.0" encoding="utf-8"?>
<!-- Generator: Adobe Illustrator 21.1.0, SVG Export Plug-In . SVG Version: 6.00 Build 0)  -->
<svg version="1.1" id="designs" xmlns="http://www.w3.org/2000/svg" xmlns:xlink="http://www.w3.org/1999/xlink" x="0px" y="0px"
	 width="32px" height="32px" viewBox="0 0 32 32" style="enable-background:new 0 0 32 32;" xml:space="preserve">
<style type="text/css">
	.sketchy_een{fill:#111918;}
</style>
<path class="sketchy_een" d="M8.946,25.217c0.006,0.005,0.012,0.01,0.018,0.014c-0.002-0.002-0.005-0.004-0.007-0.005
	C8.953,25.223,8.95,25.22,8.946,25.217z M28.755,15.793c-0.017,0.416-0.054,0.832-0.128,1.24c-0.133,0.75-0.294,1.503-0.534,2.226
	c-0.267,0.808-0.609,1.601-0.992,2.361c-0.391,0.777-0.876,1.501-1.421,2.179c-0.265,0.327-0.545,0.63-0.849,0.92
	c-0.28,0.271-0.58,0.522-0.861,0.791c-0.327,0.311-0.646,0.621-1.004,0.893c-0.317,0.24-0.652,0.46-0.994,0.661
	c-0.375,0.219-0.762,0.416-1.154,0.603c-0.404,0.192-0.81,0.398-1.236,0.538c-0.383,0.126-0.775,0.234-1.166,0.336
	c-0.34,0.089-0.679,0.191-1.027,0.244c-0.333,0.049-0.667,0.084-1.001,0.116C16.281,28.959,16.164,29,16.039,29
	c-0.098,0-0.193-0.022-0.283-0.059c-0.278,0.014-0.555,0.032-0.834,0.026c-0.787-0.018-1.566-0.121-2.346-0.228
	c-0.089-0.011-0.177-0.022-0.266-0.033c-0.07-0.001-0.137-0.011-0.2-0.028c-0.177-0.026-0.353-0.059-0.526-0.107
	c-0.244-0.068-0.485-0.153-0.719-0.248c-0.292-0.12-0.594-0.228-0.87-0.377c-0.234-0.126-0.464-0.257-0.692-0.393
	c-0.487-0.29-0.915-0.661-1.356-1.011c-0.4-0.317-0.795-0.638-1.16-0.994c-0.321-0.313-0.601-0.675-0.87-1.031
	c-0.224-0.296-0.435-0.603-0.621-0.924c-0.389-0.675-0.743-1.381-1.025-2.108c-0.145-0.375-0.267-0.758-0.389-1.143
	c-0.122-0.377-0.24-0.754-0.331-1.139c-0.207-0.87-0.329-1.762-0.327-2.655c0.002-0.872,0.008-1.74,0.153-2.603
	c0.124-0.741,0.302-1.464,0.542-2.176c0.124-0.367,0.261-0.729,0.408-1.087c0.166-0.4,0.338-0.812,0.553-1.187
	C5.294,8.771,5.774,8.1,6.292,7.446c0.495-0.623,0.963-1.272,1.582-1.781c0.255-0.211,0.512-0.418,0.764-0.636
	C8.941,4.764,9.255,4.548,9.62,4.383c0.793-0.356,1.601-0.638,2.442-0.849c0.375-0.095,0.752-0.184,1.133-0.246
	c0.317-0.051,0.634-0.087,0.953-0.124C14.469,3.11,14.791,3.006,15.114,3c0.023,0,0.046,0,0.07,0c0.363,0,0.74,0.042,1.091,0.122
	c0.077,0.017,0.149,0.047,0.214,0.086c0.53,0.029,1.063,0.083,1.582,0.194c0.487,0.102,0.963,0.244,1.441,0.381
	c0.805,0.23,1.619,0.503,2.361,0.891c0.746,0.393,1.462,0.872,2.094,1.429c0.572,0.505,1.087,1.062,1.607,1.619
	c0.263,0.282,0.514,0.574,0.76,0.872c0.288,0.35,0.538,0.714,0.754,1.112c0.188,0.346,0.352,0.702,0.516,1.058
	c0.207,0.445,0.414,0.89,0.58,1.352c0.13,0.358,0.222,0.735,0.323,1.102c0.122,0.443,0.213,0.901,0.249,1.36
	C28.788,14.982,28.773,15.389,28.755,15.793z M24.016,8.409c-0.149-0.164-0.305-0.319-0.459-0.476
	c-0.37,0.396-0.732,0.797-1.071,1.223c-0.316,0.426-0.611,0.881-0.869,1.343c-0.27,0.482-0.503,0.981-0.724,1.487
	c-0.322,0.791-0.536,1.609-0.666,2.453c-0.032,0.284-0.048,0.57-0.057,0.856c1.122,0.012,2.245,0.028,3.367,0.018
	c0.702-0.008,1.406-0.017,2.108-0.016c0.534,0.002,1.071,0.021,1.607,0.01c0.001-0.284,0-0.569-0.03-0.851
	c-0.128-0.714-0.339-1.424-0.595-2.103c-0.199-0.448-0.416-0.885-0.634-1.323c-0.197-0.396-0.42-0.788-0.675-1.147
	C24.903,9.375,24.457,8.895,24.016,8.409z M17.046,4.768c-0.146-0.017-0.291-0.03-0.437-0.044c-0.059,0.938-0.109,1.879-0.127,2.82
	c-0.008,0.491-0.014,0.982-0.015,1.476c-0.002,0.468-0.019,0.934-0.035,1.402c-0.021,0.723-0.025,1.448-0.002,2.172
	c0.025,0.756,0.019,1.516,0.062,2.272c0.008,0.138,0.007,0.276,0.013,0.415c0.082,0,0.163-0.001,0.245-0.001
	c0.597,0,1.194,0.002,1.79,0.003c0.002-0.051-0.002-0.101,0.001-0.152c0.046-0.843,0.164-1.713,0.42-2.522
	c0.257-0.818,0.611-1.619,1.015-2.373c0.396-0.74,0.846-1.45,1.353-2.119c-0.018,0.023-0.036,0.046-0.053,0.069
	c0.019-0.025,0.038-0.05,0.058-0.074c0.021-0.028,0.043-0.056,0.064-0.084c-0.018,0.025-0.037,0.049-0.056,0.073
	c0.327-0.422,0.667-0.833,1.017-1.235c-0.57-0.412-1.162-0.786-1.804-1.074c-0.582-0.23-1.174-0.424-1.773-0.606
	C18.209,5.012,17.636,4.864,17.046,4.768z M9.499,6.47c0.196,0.226,0.393,0.45,0.567,0.696c0.186,0.261,0.356,0.53,0.551,0.783
	c-0.011-0.013-0.021-0.027-0.032-0.041c0.143,0.184,0.284,0.368,0.421,0.557c0.219,0.3,0.393,0.63,0.563,0.959
	c0.17,0.327,0.335,0.66,0.48,0.998c0.325,0.766,0.623,1.549,0.793,2.367c0.172,0.829,0.269,1.687,0.273,2.535
	c0.411-0.013,0.822-0.03,1.234-0.034c0.23-0.003,0.46-0.002,0.69-0.003c-0.025-0.609-0.052-1.218-0.067-1.828
	c-0.01-0.367-0.033-0.735-0.037-1.102c-0.006-0.375-0.006-0.752-0.008-1.127c0-0.727,0.048-1.456,0.062-2.183
	c0.014-0.746,0.004-1.493,0.027-2.237c0.024-0.719,0.016-1.439,0.04-2.157c-0.002,0-0.004,0-0.006,0
	c-0.269,0.044-0.534,0.103-0.804,0.147C13.871,4.863,13.494,4.928,13.118,5c-0.437,0.083-0.868,0.186-1.296,0.3
	c-0.405,0.107-0.795,0.262-1.182,0.422c-0.129,0.056-0.258,0.114-0.385,0.179c-0.1,0.053-0.193,0.115-0.284,0.181
	C9.813,6.209,9.657,6.34,9.499,6.47z M10.714,11.57c0.005,0.012,0.01,0.025,0.016,0.037c0.005,0.012,0.01,0.024,0.016,0.036
	c0.008,0.018,0.015,0.036,0.023,0.054C10.75,11.655,10.732,11.612,10.714,11.57z M4.967,14.525
	c-0.032,0.308-0.048,0.616-0.059,0.924c0.738,0.027,1.477,0.068,2.214,0.028c0.857-0.044,1.71-0.093,2.566-0.099
	c0.607-0.006,1.214-0.008,1.821-0.017c-0.013-0.356-0.029-0.712-0.068-1.066c-0.063-0.444-0.134-0.891-0.258-1.324
	C11.05,12.5,10.9,12.03,10.716,11.575c0.002,0.005,0.004,0.01,0.006,0.014c-0.003-0.008-0.007-0.016-0.01-0.025
	c-0.266-0.622-0.55-1.243-0.891-1.825C9.633,9.417,9.43,9.104,9.209,8.802C9.027,8.551,8.863,8.288,8.678,8.037
	C8.557,7.89,8.425,7.755,8.295,7.617C7.943,8.013,7.611,8.43,7.284,8.845c-0.314,0.416-0.61,0.849-0.87,1.303
	c-0.229,0.4-0.42,0.823-0.601,1.247C5.407,12.404,5.126,13.45,4.967,14.525z M7.284,23.646c0.123,0.151,0.249,0.301,0.38,0.445
	c0.07-0.039,0.14-0.079,0.208-0.124c0.2-0.162,0.399-0.326,0.578-0.509c0.256-0.262,0.507-0.53,0.739-0.812
	c0.296-0.396,0.578-0.808,0.822-1.237c0.232-0.414,0.43-0.844,0.619-1.28c0.187-0.47,0.359-0.945,0.51-1.428
	c0.146-0.465,0.237-0.943,0.31-1.423c0.019-0.16,0.03-0.32,0.043-0.481c-0.267,0.003-0.533,0.004-0.8,0.002
	c-0.468,0-0.936-0.002-1.404,0.014c-0.791,0.027-1.578,0.101-2.367,0.141c-0.674,0.034-1.35,0.035-2.025,0.031
	C4.9,17.028,4.897,17.071,4.9,17.114c0.017,0.249,0.046,0.499,0.077,0.748c0.092,0.591,0.222,1.172,0.397,1.745
	c0.157,0.513,0.316,1.023,0.513,1.522C6.272,22.009,6.712,22.873,7.284,23.646z M15.041,27.289c0.078,0.003,0.156-0.005,0.234-0.004
	c0-0.536-0.008-1.072-0.022-1.607c-0.025-0.99-0.097-1.976-0.112-2.967c-0.027-1.57-0.056-3.142-0.056-4.713
	c0-0.422-0.01-0.844-0.016-1.266c-0.398,0-0.797-0.001-1.196,0.007c-0.268,0.005-0.536,0.012-0.804,0.02
	c-0.028,0.382-0.067,0.763-0.14,1.141c-0.077,0.4-0.161,0.801-0.284,1.189c-0.131,0.404-0.28,0.801-0.439,1.193
	c-0.317,0.781-0.677,1.551-1.122,2.266c-0.242,0.389-0.499,0.77-0.785,1.127c-0.234,0.292-0.485,0.568-0.739,0.841
	c-0.195,0.211-0.398,0.408-0.613,0.596c-0.021,0.018-0.044,0.032-0.065,0.05c0.022,0.017,0.042,0.036,0.064,0.053
	c-0.022-0.017-0.044-0.034-0.067-0.051l0,0c0.026,0.02,0.052,0.04,0.078,0.06c0.014,0.011,0.028,0.022,0.042,0.033
	c-0.012-0.009-0.023-0.019-0.035-0.028c0.183,0.141,0.365,0.282,0.547,0.424c0.457,0.344,0.956,0.645,1.476,0.88
	c0.436,0.181,0.877,0.357,1.34,0.451c0.05,0.01,0.099,0.019,0.148,0.027c0.204,0.026,0.409,0.054,0.613,0.081
	c-0.008-0.001-0.017-0.002-0.025-0.004C13.722,27.177,14.377,27.26,15.041,27.289z M19.599,26.432
	c-0.027,0.012-0.055,0.024-0.082,0.035c0.018-0.008,0.036-0.015,0.053-0.023C19.58,26.44,19.59,26.436,19.599,26.432z
	 M22.093,25.056c0.186-0.156,0.363-0.322,0.544-0.484c-0.118-0.121-0.235-0.243-0.356-0.363c-0.23-0.226-0.454-0.453-0.661-0.698
	c-0.464-0.555-0.907-1.129-1.261-1.762c-0.373-0.669-0.714-1.348-1.006-2.056c-0.13-0.313-0.246-0.629-0.335-0.957
	c-0.091-0.329-0.155-0.665-0.224-1c-0.069-0.339-0.126-0.679-0.172-1.02c-0.047,0-0.093-0.001-0.14-0.001
	c-0.643,0.003-1.287,0.004-1.931,0.008c0.003,0.152,0.012,0.304,0.015,0.456c0.012,0.76,0,1.52,0.01,2.28
	c0.012,0.775,0.048,1.549,0.058,2.324c0.01,0.781,0.006,1.562,0.043,2.346c0.033,0.729,0.089,1.46,0.103,2.191
	c0.006,0.288,0.007,0.576,0.01,0.864c0.022-0.003,0.043-0.004,0.065-0.007c0.44-0.07,0.875-0.192,1.305-0.303
	c0.493-0.13,0.983-0.254,1.454-0.45c0.451-0.2,0.911-0.396,1.34-0.643C21.346,25.559,21.728,25.321,22.093,25.056z M27.13,16.832
	c-0.553,0.005-1.105,0.009-1.658-0.033c-0.762-0.058-1.532-0.052-2.295-0.054c-0.974-0.005-1.947-0.011-2.921-0.018
	c0.086,0.475,0.187,0.951,0.301,1.418c0.114,0.465,0.296,0.915,0.482,1.358c0.198,0.441,0.409,0.877,0.638,1.303
	c0.224,0.42,0.479,0.816,0.757,1.201c0.245,0.314,0.497,0.624,0.78,0.905c0.199,0.199,0.4,0.396,0.599,0.595
	c0.119-0.111,0.244-0.218,0.354-0.338c0.195-0.212,0.378-0.433,0.555-0.658c0.613-0.821,1.129-1.71,1.541-2.648
	c0.23-0.553,0.437-1.108,0.586-1.687C26.96,17.733,27.051,17.283,27.13,16.832z"/>
</svg>