<?xml version="1.0" encoding="utf-8"?>
<!-- Generator: Adobe Illustrator 21.1.0, SVG Export Plug-In . SVG Version: 6.00 Build 0)  -->
<svg version="1.1" id="designs" xmlns="http://www.w3.org/2000/svg" xmlns:xlink="http://www.w3.org/1999/xlink" x="0px" y="0px"
	 width="32px" height="32px" viewBox="0 0 32 32" style="enable-background:new 0 0 32 32;" xml:space="preserve">
<style type="text/css">
	.sketchy_een{fill:#111918;}
</style>
<path class="sketchy_een" d="M25.656,16.011c-0.006-0.041-0.011-0.083-0.017-0.124c-0.004-0.03-0.008-0.061-0.012-0.091
	C25.636,15.866,25.646,15.938,25.656,16.011z M18.697,7.409c0.001,0.104-0.023,0.203-0.059,0.295
	c0.951,0.32,1.808,0.804,2.583,1.441c0.351,0.289,0.697,0.583,1.038,0.884c0.331,0.289,0.628,0.614,0.934,0.928
	c0.173,0.177,0.345,0.352,0.51,0.533c0.177,0.195,0.333,0.404,0.487,0.614c0.25,0.341,0.451,0.72,0.634,1.1
	c0.216,0.453,0.41,0.907,0.558,1.387c0.13,0.419,0.198,0.86,0.257,1.295c0.064,0.486,0.117,0.971,0.144,1.461
	c0.029,0.483-0.01,0.965-0.112,1.439c-0.1,0.47-0.306,0.936-0.516,1.364c-0.37,0.761-0.819,1.483-1.319,2.165
	c-0.166,0.227-0.333,0.454-0.52,0.664c-0.144,0.162-0.293,0.32-0.441,0.48c-0.003,0.004-0.007,0.007-0.01,0.01
	c0.537,0.444,1.075,0.889,1.551,1.4c0.139,0.148,0.211,0.336,0.219,0.526c0.068,0.123,0.12,0.258,0.13,0.407
	c0.064,0.897,0.104,1.799,0.168,2.696c0.006,0.082-0.018,0.157-0.04,0.232c0.022,0.045,0.054,0.085,0.067,0.134
	c0.11,0.402-0.133,0.882-0.555,0.976c-0.441,0.1-0.888,0.05-1.335,0.046c-0.46-0.006-0.923-0.006-1.383-0.01
	c-0.969-0.01-1.936-0.013-2.904-0.019c-1.589-0.008-3.178-0.027-4.765-0.006c-0.809,0.01-1.62,0.015-2.427,0.039
	c-0.824,0.025-1.649,0.073-2.471,0.11c-0.217,0.009-0.412-0.09-0.552-0.242c-0.007,0-0.014,0.004-0.021,0.004
	c-0.214,0-0.42-0.085-0.57-0.237c-0.162-0.16-0.221-0.35-0.237-0.57c-0.031-0.402-0.013-0.811-0.01-1.213
	c0.004-0.478,0.01-0.955,0.02-1.431c-0.117-0.299-0.072-0.666,0.178-0.887c0.397-0.352,0.79-0.707,1.163-1.082
	c0.129-0.129,0.295-0.192,0.466-0.214c-0.025-0.023-0.051-0.044-0.075-0.067c-0.345-0.322-0.647-0.69-0.911-1.08
	c-0.256-0.381-0.516-0.761-0.772-1.146c-0.508-0.766-0.842-1.645-1.067-2.533c-0.121-0.48-0.231-0.963-0.279-1.456
	c-0.044-0.441-0.04-0.874-0.013-1.315c0.029-0.483,0.075-0.973,0.16-1.45c0.073-0.408,0.148-0.824,0.299-1.213
	c0.707-1.824,1.997-3.409,3.582-4.551c0.343-0.247,0.689-0.501,1.061-0.703c0.397-0.218,0.801-0.412,1.215-0.595
	c0.071-0.032,0.144-0.053,0.216-0.082c-0.104-0.357-0.112-0.756-0.127-1.125c-0.008-0.212-0.009-0.425-0.012-0.637
	c-0.049,0-0.098-0.001-0.147-0.001c-0.905,0-1.81,0-2.714-0.017C9.547,6.146,9.119,6.133,8.692,6.119
	c-0.52-0.017-1.053-0.015-1.566-0.108C6.8,5.952,6.436,5.784,6.278,5.47C6.196,5.305,6.136,5.149,6.109,4.968
	c-0.037-0.252-0.06-0.503-0.064-0.759C6.042,3.766,6.047,3.323,6.065,2.878C6.084,2.401,6.452,2,6.945,2
	c0.462,0,0.903,0.399,0.88,0.878C7.802,3.364,7.758,3.864,7.788,4.353C7.82,4.359,7.852,4.364,7.885,4.369
	c1.168,0.117,2.336,0.185,3.507,0.208c1.167,0.025,2.334,0.017,3.499,0.04c0.832,0.017,1.664,0.033,2.496,0.029
	c0.83-0.004,1.66-0.065,2.488-0.112c0.79-0.046,1.581-0.062,2.371-0.116c0.374-0.025,0.745-0.062,1.119-0.092
	c0.331-0.027,0.669-0.027,1-0.058c0.005-0.001,0.009-0.002,0.014-0.003c0.013-0.15,0.021-0.301,0.022-0.451
	c0.002-0.302-0.035-0.607-0.05-0.907C24.33,2.472,24.73,2.108,25.15,2.108c0.443,0,0.792,0.364,0.799,0.799
	c0.01,0.454,0.013,0.901-0.027,1.354C25.888,4.65,25.87,5.12,25.547,5.388c-0.198,0.164-0.437,0.283-0.689,0.337
	C24.434,5.815,24,5.813,23.571,5.829c-0.374,0.015-0.747,0.05-1.121,0.071c-0.776,0.042-1.552,0.073-2.328,0.121
	c-0.474,0.031-0.948,0.065-1.422,0.097C18.696,6.548,18.69,6.979,18.697,7.409z M14.599,6.18c-0.004,0.427-0.008,0.855,0.027,1.279
	c0.002,0.009,0.006,0.018,0.008,0.027c0.138-0.02,0.275-0.045,0.412-0.063c0.26-0.032,0.517-0.045,0.772-0.025
	c0.057-0.016,0.114-0.026,0.17-0.026c0.018,0,0.036,0.001,0.054,0.003c0.33,0.038,0.661,0.051,0.993,0.071
	c0-0.013-0.008-0.024-0.007-0.037c0.008-0.41,0.001-0.821-0.003-1.232c-0.622,0.009-1.245,0.015-1.866,0.006
	C14.972,6.18,14.786,6.182,14.599,6.18z M14.939,16.141c-0.026,0.246-0.034,0.486-0.013,0.732c0.01,0.047,0.022,0.092,0.036,0.138
	c0.024,0.044,0.049,0.086,0.076,0.128c0.04,0.045,0.08,0.088,0.123,0.13c0.071,0.047,0.145,0.088,0.222,0.126
	c0.125,0.045,0.251,0.08,0.38,0.106c0.161,0.013,0.322,0.018,0.482,0.007c0.108-0.024,0.214-0.056,0.318-0.093
	c0.083-0.039,0.163-0.081,0.241-0.13c0.137-0.122,0.257-0.258,0.373-0.4c0.072-0.104,0.136-0.208,0.192-0.321
	c0.048-0.134,0.085-0.27,0.112-0.409c0.013-0.19,0.009-0.378-0.008-0.568c-0.17-1.026-0.596-1.973-0.977-2.935
	c-0.114-0.289-0.223-0.58-0.331-0.872c-0.164,0.521-0.327,1.043-0.487,1.566C15.395,14.268,15.094,15.186,14.939,16.141z
	 M23.28,28.324c-0.068-0.841-0.135-1.683-0.198-2.522c-0.001-0.008,0.004-0.014,0.004-0.022c-0.449-0.401-0.923-0.776-1.392-1.152
	c-0.261,0.228-0.526,0.452-0.809,0.655c-0.36,0.254-0.759,0.451-1.163,0.624c-0.844,0.364-1.754,0.578-2.677,0.597
	c-0.855,0.015-1.722,0.017-2.573-0.091c-0.464-0.058-0.946-0.112-1.398-0.235c-0.453-0.123-0.892-0.281-1.315-0.483
	c-0.461-0.217-0.885-0.493-1.287-0.799c0.003,0.213-0.073,0.427-0.231,0.591c-0.27,0.281-0.555,0.544-0.839,0.809
	c-0.017,0.481-0.036,0.963-0.053,1.446c-0.009,0.239-0.015,0.477-0.013,0.716c0.92-0.031,1.84-0.054,2.761-0.071
	c0.967-0.017,1.932-0.042,2.898-0.048c1.597-0.012,3.195,0.012,4.792,0.012c0.797,0.002,1.593-0.01,2.39-0.013
	C22.544,28.333,22.911,28.332,23.28,28.324z M20.135,10.434c-0.501-0.369-1.027-0.673-1.592-0.934
	c-0.151-0.062-0.305-0.12-0.463-0.161c-0.193-0.048-0.385-0.09-0.58-0.128c-0.244-0.025-0.488-0.036-0.733-0.049
	c0.081,0.088,0.145,0.186,0.194,0.308c0.117,0.299,0.181,0.616,0.268,0.924c0.077,0.27,0.175,0.532,0.268,0.795
	c0.21,0.593,0.439,1.177,0.672,1.762c0.225,0.564,0.439,1.13,0.593,1.718c0.133,0.514,0.22,1.055,0.177,1.587
	c-0.052,0.664-0.337,1.263-0.757,1.772c-0.241,0.291-0.514,0.56-0.863,0.718c-0.241,0.11-0.476,0.21-0.736,0.262
	c-0.25,0.05-0.52,0.065-0.776,0.044c-0.616-0.05-1.248-0.21-1.726-0.63c-0.356-0.314-0.636-0.741-0.715-1.215
	c-0.031-0.195-0.046-0.387-0.058-0.584c-0.01-0.202,0.023-0.404,0.052-0.603c0.025-0.179,0.052-0.356,0.085-0.535
	c0.065-0.362,0.152-0.726,0.26-1.077c0.239-0.774,0.489-1.543,0.718-2.319c0.245-0.83,0.478-1.664,0.73-2.492
	c0.057-0.185,0.176-0.336,0.325-0.441C15.28,9.162,15.08,9.169,14.879,9.19c-0.392,0.065-0.768,0.162-1.141,0.304
	c-0.411,0.185-0.82,0.38-1.215,0.596c-0.39,0.211-0.751,0.462-1.107,0.725c-0.294,0.232-0.583,0.474-0.848,0.739
	c-0.302,0.306-0.586,0.627-0.859,0.961c-0.387,0.52-0.721,1.077-0.989,1.668c-0.155,0.43-0.255,0.862-0.329,1.313
	c-0.089,0.761-0.122,1.534-0.057,2.299c0.117,0.75,0.302,1.492,0.573,2.198c0.178,0.392,0.378,0.768,0.614,1.128
	c0.24,0.364,0.471,0.735,0.721,1.093c0.197,0.239,0.415,0.459,0.644,0.665c0.253,0.226,0.506,0.454,0.769,0.668
	c0.197,0.14,0.396,0.283,0.608,0.399c0.21,0.116,0.423,0.223,0.64,0.322c0.304,0.118,0.612,0.224,0.93,0.298
	c0.325,0.073,0.649,0.138,0.977,0.194c0.444,0.053,0.892,0.084,1.338,0.099c0.469,0.017,0.936,0.039,1.403-0.007
	c0.246-0.036,0.492-0.079,0.729-0.151c0.253-0.078,0.499-0.169,0.745-0.265c0.376-0.169,0.738-0.362,1.077-0.597
	c0.41-0.325,0.806-0.662,1.175-1.033c0.36-0.364,0.717-0.74,1.039-1.139c0.28-0.388,0.553-0.785,0.794-1.197
	c0.25-0.433,0.471-0.877,0.675-1.333c0.135-0.355,0.249-0.709,0.323-1.082c0.059-0.675,0.003-1.356-0.076-2.029
	c-0.044-0.287-0.094-0.571-0.167-0.852c-0.062-0.246-0.148-0.486-0.242-0.723c-0.26-0.559-0.534-1.097-0.893-1.596
	c-0.201-0.232-0.415-0.446-0.633-0.662c-0.239-0.235-0.47-0.476-0.711-0.709C20.996,11.108,20.562,10.77,20.135,10.434z"/>
</svg>