<?xml version="1.0" encoding="utf-8"?>
<!-- Generator: Adobe Illustrator 21.1.0, SVG Export Plug-In . SVG Version: 6.00 Build 0)  -->
<svg version="1.1" id="designs" xmlns="http://www.w3.org/2000/svg" xmlns:xlink="http://www.w3.org/1999/xlink" x="0px" y="0px"
	 width="32px" height="32px" viewBox="0 0 32 32" style="enable-background:new 0 0 32 32;" xml:space="preserve">
<style type="text/css">
	.sketchy_een{fill:#111918;}
</style>
<path class="sketchy_een" d="M6.142,30.952c-0.287,0-0.585-0.167-0.726-0.407C5.39,30.5,5.376,30.45,5.361,30.397l-0.015-0.052
	l-0.06-0.046c-0.089-0.025-0.122-0.034-0.148-0.052c-0.098-0.067-0.209-0.147-0.291-0.246c-0.061-0.075-0.12-0.152-0.178-0.23
	c-0.069-0.081-0.138-0.153-0.207-0.226c-0.078-0.082-0.155-0.164-0.227-0.251c-0.182-0.221-0.375-0.433-0.572-0.638
	c-0.343-0.355-0.732-0.758-1.156-1.097c-0.391-0.303-0.777-0.612-1.155-0.931c-0.089-0.073-0.15-0.201-0.184-0.38
	c-0.081-0.131-0.12-0.209-0.141-0.286c-0.052-0.185-0.043-0.466,0.076-0.623c0.226-0.299,0.469-0.567,0.724-0.838
	c0.154-0.163,0.321-0.312,0.488-0.461l0.207-0.188c0.268-0.249,0.527-0.509,0.783-0.772c0.6-0.616,1.196-1.241,1.769-1.883
	c0.235-0.264,0.465-0.532,0.694-0.8c0.332-0.388,0.664-0.776,1.013-1.151c0.325-0.347,0.654-0.69,0.982-1.033
	c0.292-0.304,0.583-0.608,0.872-0.914c0.635-0.675,1.269-1.35,1.887-2.039l0.185-0.208c0.216-0.244,0.433-0.488,0.659-0.725
	c0.182-0.191,1.09-1.122,1.09-1.122c1.087-1.124,2.174-2.249,3.289-3.349c0.135-0.134,0.281-0.252,0.429-0.371l0.178-0.146
	c0.188-0.157,0.362-0.328,0.535-0.501l0.153-0.151l-0.085-0.071c-0.215-0.179-0.424-0.355-0.621-0.543
	c-0.095-0.089-0.187-0.182-0.278-0.275c-0.098-0.1-0.198-0.2-0.3-0.296l-1.729-1.635c-0.131-0.126-0.262-0.253-0.396-0.375
	c-0.234-0.212-0.476-0.415-0.718-0.619c-0.273-0.23-0.547-0.46-0.809-0.704l-0.093-0.09c-0.156-0.146-0.231-0.326-0.231-0.51
	c0-0.176,0.061-0.322,0.21-0.503c0.351-0.42,0.685-0.856,1.021-1.291l0.402-0.52c0.104-0.136,0.343-0.208,0.514-0.208
	c0.168,0,0.338,0.067,0.481,0.19c0.141,0.022,0.199,0.03,0.254,0.045c0.159,0.041,0.318,0.074,0.48,0.099v0.014l0.102,0
	c0.296,0.039,0.606,0.075,0.916,0.111c0.427,0.05,0.854,0.099,1.278,0.159c0.468,0.065,0.936,0.138,1.403,0.21l0.945,0.145
	c0.383,0.046,0.765,0.077,1.147,0.107l1.243,0.107c0.482,0.043,0.964,0.085,1.443,0.139c0.213,0.026,0.364,0.067,0.501,0.205
	c0.066,0.065,0.116,0.148,0.155,0.255l0.02,0.055l0.057,0.01c0.148,0.026,0.272,0.085,0.384,0.181
	c0.419,0.361,0.791,0.777,1.129,1.172c0.302,0.353,0.615,0.691,0.933,1.027l0.276,0.295c0.25,0.267,0.5,0.535,0.759,0.791
	c0.08,0.078,0.162,0.151,0.245,0.225c0.176,0.156,0.341,0.303,0.471,0.491l0.041,0.119c0.079,0.149,0.115,0.273,0.115,0.39
	l-0.016,0.164l0.051,0.115c0.16,0.75,0.342,1.494,0.544,2.234c0.185,0.673,0.372,1.347,0.597,2.007
	c0.219,0.642,0.414,1.285,0.578,1.91l0.111,0.435c0.114,0.445,0.227,0.892,0.37,1.331c0.026,0.08,0.03,0.166,0.013,0.266
	c0.099,0.336,0.029,0.652-0.18,0.876c-0.612,0.658-1.246,1.283-1.887,1.857c-0.154,0.139-0.347,0.216-0.543,0.216l0,0
	c-0.193,0-0.368-0.073-0.506-0.212l-0.075-0.085c-0.131-0.05-0.232-0.133-0.35-0.285l-0.008,0.003
	c-0.106-0.118-0.223-0.226-0.34-0.335l-0.147-0.137l-1.159-1.135c-0.271-0.262-0.543-0.524-0.807-0.792
	c-0.439-0.441-0.877-0.881-1.341-1.295l-0.814-0.729l-0.703,0.684c-0.433,0.415-0.838,0.858-1.243,1.3
	c-0.208,0.227-0.417,0.455-0.629,0.679l-0.681,0.711c-0.386,0.402-0.772,0.803-1.15,1.213c-0.619,0.669-1.288,1.31-1.866,1.858
	c-0.666,0.627-1.317,1.265-1.963,1.909c-0.372,0.37-0.731,0.752-1.089,1.134c-0.24,0.256-0.48,0.512-0.725,0.765
	c-0.209,0.217-0.425,0.431-0.639,0.644c-0.388,0.386-0.778,0.772-1.14,1.184c-0.284,0.322-0.567,0.644-0.87,0.951
	c0,0-0.758,0.772-0.932,0.955c-0.284,0.296-0.56,0.595-0.834,0.9c-0.132,0.145-0.259,0.294-0.385,0.442
	c-0.112,0.131-0.446,0.508-0.446,0.508c-0.108,0.121-0.217,0.241-0.335,0.353c-0.136,0.127-0.228,0.214-0.312,0.309
	c-0.134,0.176-0.17,0.221-0.337,0.339C6.409,30.913,6.28,30.952,6.142,30.952z M5.719,28.917c0.122,0.119,0.23,0.186,0.285,0.127
	c0.276-0.295,0.555-0.589,0.843-0.875c0.329-0.327,0.649-0.664,0.968-1.001l0.506-0.531l-0.082-0.069
	c-0.271-0.231-0.557-0.451-0.84-0.67l-0.258-0.2c-0.141-0.109-0.214-0.351-0.214-0.533c0-0.201,0.082-0.397,0.223-0.539
	c0.144-0.143,0.34-0.224,0.542-0.224c0.221,0,0.38,0.092,0.549,0.231c0.345,0.282,0.684,0.581,1.009,0.891l0.076,0.072l0.281-0.306
	c0.245-0.271,0.49-0.543,0.745-0.804c0.245-0.247,0.495-0.489,0.744-0.732c0.361-0.35,0.722-0.7,1.068-1.066l0.067-0.071
	l-0.845-0.827c-0.136-0.135-0.211-0.319-0.211-0.518c0-0.2,0.075-0.385,0.211-0.522c0.138-0.136,0.323-0.21,0.521-0.21
	s0.383,0.075,0.518,0.21c0.212,0.214,0.73,0.747,0.73,0.747l0.073,0.08l0.318-0.334c0.166-0.178,0.333-0.355,0.505-0.527
	c0.594-0.59,1.202-1.164,1.81-1.739l0.508-0.491l-1.138-0.938c-0.143-0.118-0.207-0.347-0.207-0.509
	c0-0.193,0.079-0.382,0.214-0.517c0.136-0.136,0.324-0.214,0.516-0.214c0.184,0,0.34,0.065,0.522,0.219l0.664,0.565
	c0.125,0.105,0.25,0.21,0.362,0.327l0.065,0.033l0.083-0.028l0.379-0.371l0.46-0.472c0.477-0.487,0.953-0.974,1.406-1.483
	c0.323-0.362,0.337-0.285,0.101-0.578c-0.226-0.279-0.665-0.568-0.931-0.779c-0.138-0.109-0.21-0.344-0.21-0.52
	c0-0.195,0.08-0.387,0.219-0.528c0.138-0.138,0.33-0.218,0.527-0.218c0.215,0,0.369,0.09,0.534,0.225
	c0.352,0.289,0.701,0.583,1.045,0.88l0.07,0.06l0.066-0.064c0.185-0.18,0.319-0.31,0.447-0.444l0.509-0.523
	c0.059-0.1,0.082-0.143,0.113-0.174c0.024-0.023,0.053-0.04,0.089-0.059l0.124-0.103l0.075-0.076l0.333-0.312
	c0.221-0.206,0.442-0.412,0.658-0.621c0.071-0.068,0.138-0.141,0.205-0.214c0.056-0.06,0.252-0.261,0.252-0.261l-0.59-0.443
	c-0.118-0.069-0.205-0.156-0.269-0.265c-0.065-0.111-0.097-0.231-0.099-0.365c0-0.19,0.078-0.375,0.211-0.507
	C23.31,9.077,23.495,9,23.685,9c0.2,0,0.341,0.081,0.518,0.22c0.147,0.115,0.29,0.235,0.434,0.354l0.247,0.204l0.065-0.071
	c0.679-0.743,1.344-1.498,1.995-2.266l0.06-0.07l-0.252-0.263C26.55,6.9,26.354,6.685,26.157,6.471l-0.713-0.77
	c-0.186-0.203-0.372-0.405-0.565-0.6c-0.26-0.263-0.53-0.51-0.8-0.757l-0.065-0.059L23.946,4.34
	c-0.286,0.24-0.541,0.453-0.789,0.672c-0.664,0.583-1.313,1.157-1.938,1.767c-0.186,0.178-0.363,0.364-0.541,0.55L20.327,7.69
	c-0.207,0.207-0.422,0.407-0.638,0.606c0,0-1.109,1.02-1.254,1.155c-0.136,0.126-0.266,0.258-0.395,0.389
	c-0.151,0.151-0.302,0.303-0.46,0.448c-0.121,0.111-0.245,0.216-0.369,0.322l-0.209,0.181c-0.157,0.137-0.301,0.287-0.444,0.437
	c-0.101,0.105-0.202,0.21-0.308,0.311c-0.94,0.89-1.849,1.838-2.727,2.754l-0.865,0.899c-0.326,0.337-0.643,0.683-0.96,1.03
	c-0.28,0.307-0.562,0.615-0.85,0.916l-0.405,0.425c-0.497,0.522-0.994,1.043-1.497,1.558c-0.845,0.863-1.656,1.778-2.441,2.664
	c-0.371,0.417-0.74,0.835-1.115,1.249c-0.215,0.237-0.424,0.481-0.632,0.724c-0.305,0.356-0.611,0.711-0.936,1.049
	c-0.144,0.15-0.295,0.295-0.445,0.439c-0.192,0.184-0.384,0.368-0.562,0.564l-0.07,0.076l0.078,0.068
	c0.502,0.439,1.02,0.893,1.509,1.382c0.184,0.184,0.358,0.377,0.532,0.57l0.249,0.273C5.187,28.262,5.481,28.687,5.719,28.917z
	 M26.481,10.286c-0.208,0.216-1.009,1.029-1.009,1.029c-0.512,0.517-1.025,1.035-1.548,1.543l-0.074,0.071l-0.005,0.152l0.37,0.369
	c0.562,0.562,1.126,1.125,1.685,1.693c0.268,0.273,1.325,1.325,1.325,1.325c0.258,0.258,0.455,0.455,0.662,0.645l0.304,0.285
	l0.449-0.498c0.324-0.35,0.642-0.7,0.96-1.055c-0.223-1.187-0.524-2.33-0.87-3.485c-0.129-0.436-0.274-0.868-0.419-1.3l-0.232-0.697
	c-0.124-0.384-0.24-0.768-0.348-1.154l-0.048-0.172L26.481,10.286z M14.201,2.607c-0.193,0.238-0.393,0.472-0.593,0.705
	l-0.164,0.192l1.11,1.075c0.254,0.244,0.512,0.484,0.771,0.724c0.222,0.207,1.24,1.166,1.24,1.166
	c0.23,0.216,0.461,0.432,0.688,0.651c0.222,0.215,0.456,0.419,0.691,0.623l0.067,0.058l0.27-0.239
	c0.273-0.242,0.548-0.484,0.811-0.736c0.328-0.315,0.65-0.637,0.972-0.959c0.27-0.27,0.54-0.541,0.814-0.807
	c0.455-0.443,0.91-0.883,1.371-1.316l0.155-0.146L21.355,3.46c-0.271-0.033-0.543-0.061-0.813-0.089
	c-0.444-0.045-0.889-0.09-1.331-0.162c-0.632-0.102-1.264-0.204-1.898-0.29c-0.536-0.069-1.074-0.132-1.611-0.186l-0.89-0.095
	C14.64,2.621,14.468,2.604,14.3,2.571L14.24,2.56L14.201,2.607z"/>
</svg>