<?xml version="1.0" encoding="utf-8"?>
<!-- Generator: Adobe Illustrator 21.1.0, SVG Export Plug-In . SVG Version: 6.00 Build 0)  -->
<svg version="1.1" id="designs" xmlns="http://www.w3.org/2000/svg" xmlns:xlink="http://www.w3.org/1999/xlink" x="0px" y="0px"
	 width="32px" height="32px" viewBox="0 0 32 32" style="enable-background:new 0 0 32 32;" xml:space="preserve">
<style type="text/css">
	.sketchy_een{fill:#111918;}
</style>
<path class="sketchy_een" d="M28.977,23.637c0.002-1.595,0.019-3.194-0.032-4.789c-0.034-1.109-0.07-2.214-0.068-3.325
	c0.004-1.265-0.006-2.529-0.032-3.794c-0.006-0.251-0.133-0.467-0.319-0.611c0-0.002,0.001-0.005,0.001-0.007
	c0-0.439-0.355-0.761-0.779-0.781c-0.997-0.042-1.99-0.116-2.983-0.197c-1.029-0.085-2.06-0.124-3.092-0.15
	c-0.04-0.763-0.075-1.526-0.092-2.291c-0.023-1.081-0.004-2.163,0.017-3.243c0.006-0.337-0.218-0.626-0.517-0.744
	c-0.019-0.024-0.029-0.054-0.051-0.076c-0.154-0.152-0.327-0.199-0.534-0.22c-0.414-0.042-0.83-0.059-1.246-0.082
	c-0.393-0.021-0.788-0.061-1.181-0.097c-0.824-0.074-1.654-0.08-2.482-0.091c-1.639-0.019-3.278-0.006-4.916-0.006
	c-2.115,0-4.227-0.053-6.341-0.106c-0.005,0-0.011,0-0.016,0c-0.221,0-0.422,0.098-0.568,0.251C3.337,3.306,2.998,3.649,3,4.066
	c0.008,1.757,0.034,3.515,0.038,5.272c0.002,0.818,0.015,1.637,0.021,2.457c0.006,0.801,0.006,1.603,0.027,2.404
	c0.049,2.066,0.011,4.136,0.122,6.2c0.007,0.124,0.046,0.237,0.1,0.342c0,0.007-0.004,0.013-0.004,0.02
	c0,0.437,0.359,0.779,0.788,0.788c1.138,0.023,2.273,0.063,3.411,0.095c0.503,0.015,1.006,0.03,1.51,0.042
	c0.327,0.008,0.655,0.012,0.983,0.021c0.003,0.979-0.005,1.961,0.04,2.94c0.044,0.927,0.127,1.85,0.209,2.774
	c0.009,0.106,0.029,0.203,0.065,0.293c-0.039,0.092-0.061,0.192-0.061,0.299c0,0.416,0.357,0.798,0.784,0.782
	c1.7-0.059,3.401-0.131,5.103-0.141c0.798-0.004,1.595,0.025,2.391,0.034c0.809,0.011,1.618,0.03,2.427,0.049
	c2.195,0.051,4.39-0.011,6.584-0.084c0.036-0.001,0.067-0.017,0.102-0.022c0.139,0.2,0.367,0.342,0.614,0.342
	c0.404,0,0.756-0.34,0.75-0.748C28.979,26.696,28.977,25.167,28.977,23.637z M22.647,27.256c-0.815,0.008-1.629-0.013-2.444-0.032
	c-0.79-0.017-1.58-0.025-2.372-0.038c-2.037-0.036-4.074-0.014-6.11,0.033c-0.06-0.838-0.133-1.672-0.15-2.512
	c-0.02-0.986,0.008-1.973,0.014-2.959c0.459-0.044,0.918-0.088,1.376-0.136c0.22-0.023,0.403-0.072,0.564-0.234
	c0.15-0.148,0.234-0.353,0.234-0.564c0-0.396-0.338-0.797-0.753-0.797c-0.015,0-0.03,0.001-0.045,0.002
	c-0.674,0.046-1.35,0.104-2.024,0.165c-0.064,0.006-0.12,0.025-0.179,0.038c-0.055-0.012-0.107-0.031-0.167-0.035
	c-0.34-0.025-0.68-0.023-1.02-0.023c-0.163,0-0.329,0.002-0.492-0.002c-0.501-0.008-1.003-0.013-1.504-0.032
	c-0.53-0.017-1.06-0.053-1.589-0.084c-0.423-0.024-0.847-0.035-1.271-0.048c-0.06-1.464-0.047-2.927-0.069-4.392
	c-0.013-0.777-0.042-1.551-0.053-2.328c-0.011-0.817-0.015-1.633-0.021-2.45C4.553,8.772,4.585,6.715,4.596,4.658
	C6.274,4.683,7.952,4.662,9.631,4.66c1.667-0.002,3.335,0.017,5.002,0.021c0.171,0.002,0.344,0,0.517,0c0.82,0,1.641,0,2.461,0.047
	c0.461,0.027,0.921,0.08,1.384,0.11c0.334,0.022,0.669,0.033,1.004,0.049c-0.002,1.898,0.091,3.793,0.173,5.688
	c0.007,0.163,0.07,0.308,0.157,0.433c-0.001,0.012-0.007,0.023-0.008,0.035c-0.028,0.558-0.053,1.117-0.07,1.677
	c-0.013,0.45,0.387,0.828,0.828,0.828c0.218,0,0.431-0.089,0.585-0.243c0.163-0.163,0.228-0.361,0.243-0.585
	c0.026-0.368,0.046-0.736,0.068-1.105c0.931,0.016,1.862,0.03,2.791,0.087c0.838,0.05,1.676,0.123,2.516,0.163
	c0.022,0.871,0.045,1.743,0.065,2.614c0.019,0.805,0.027,1.61,0.055,2.414c0.027,0.79,0.068,1.58,0.095,2.37
	c0.027,0.811,0.034,1.624,0.04,2.435c0.006,1.105,0.006,2.208,0.006,3.314c-0.001,0.706-0.003,1.413-0.014,2.119
	C25.901,27.173,24.274,27.241,22.647,27.256z M18.026,20.31c0.152,0.15,0.237,0.357,0.237,0.57c0,0.412-0.368,0.837-0.805,0.803
	c-0.49-0.038-0.984-0.044-1.474-0.065c-0.446-0.019-0.82-0.359-0.82-0.818c0-0.42,0.356-0.821,0.788-0.821
	c0.011,0,0.022,0,0.033,0.001c0.49,0.025,0.986,0.036,1.474,0.095C17.68,20.101,17.862,20.147,18.026,20.31z M21.5,16.54
	c0.009,0.374,0.011,0.748,0.019,1.122c0.009,0.454-0.387,0.834-0.834,0.834c-0.22,0-0.435-0.087-0.591-0.243
	c-0.165-0.165-0.226-0.363-0.243-0.591c-0.029-0.374-0.042-0.748-0.055-1.122c-0.015-0.463,0.399-0.851,0.853-0.851
	C21.12,15.689,21.489,16.076,21.5,16.54z M21.265,20.742c0,0.45-0.376,0.826-0.826,0.826c-0.45,0-0.826-0.376-0.826-0.826
	c0-0.45,0.376-0.826,0.826-0.826C20.889,19.916,21.265,20.292,21.265,20.742z"/>
</svg>