<?xml version="1.0" encoding="utf-8"?>
<!-- Generator: Adobe Illustrator 21.1.0, SVG Export Plug-In . SVG Version: 6.00 Build 0)  -->
<svg version="1.1" id="designs" xmlns="http://www.w3.org/2000/svg" xmlns:xlink="http://www.w3.org/1999/xlink" x="0px" y="0px"
	 width="32px" height="32px" viewBox="0 0 32 32" style="enable-background:new 0 0 32 32;" xml:space="preserve">
<style type="text/css">
	.sketchy_een{fill:#111918;}
</style>
<path class="sketchy_een" d="M7.04,13.579c0,0.458-0.382,0.84-0.84,0.84s-0.84-0.383-0.84-0.84c0-0.458,0.382-0.84,0.84-0.84
	S7.04,13.121,7.04,13.579z M11.214,12.727c-0.388,0-0.711,0.323-0.711,0.711c0,0.389,0.323,0.711,0.711,0.711
	c0.388,0,0.711-0.322,0.711-0.711C11.925,13.049,11.602,12.727,11.214,12.727z M29.855,10.344c-0.006,0.359-0.012,0.719-0.054,1.076
	c-0.108,0.875-0.336,1.779-0.834,2.519c-0.489,0.724-0.999,1.479-1.748,1.962c-0.17,0.11-0.34,0.226-0.516,0.327
	c-0.288,0.166-0.599,0.288-0.919,0.373c-0.296,0.079-0.599,0.157-0.906,0.153c-0.195-0.002-0.396-0.027-0.587-0.06
	c-0.522-0.095-0.987-0.376-1.459-0.606c-0.055-0.017-0.11-0.03-0.167-0.04c-0.011,0-0.021-0.001-0.032-0.001
	c-0.088,0.022-0.173,0.052-0.258,0.085c-0.032,0.016-0.063,0.033-0.093,0.052c-0.036,0.034-0.069,0.068-0.102,0.105
	c-0.048,0.073-0.09,0.151-0.128,0.23c-0.082,0.227-0.14,0.451-0.178,0.686c-0.118,1.015-0.068,2.047,0.066,3.057
	c0.005,0.038-0.016,0.079-0.022,0.119c0.091,0.361,0.176,0.725,0.176,1.1c0,0.381-0.031,0.759-0.081,1.136
	c-0.058,0.427-0.116,0.861-0.23,1.276c-0.104,0.385-0.224,0.761-0.371,1.132c-0.166,0.413-0.348,0.821-0.547,1.221
	c-0.172,0.34-0.34,0.689-0.539,1.014c-0.245,0.4-0.547,0.753-0.862,1.097c-0.213,0.23-0.454,0.461-0.728,0.614
	c-0.222,0.124-0.456,0.224-0.695,0.305c-0.757,0.263-1.559,0.367-2.349,0.487c-0.858,0.131-1.715,0.234-2.585,0.236
	c-0.357,0.002-0.713-0.02-1.07-0.035c-0.238-0.011-0.477-0.031-0.715-0.023c-0.471,0.018-0.937,0.031-1.406,0.002
	c-0.224-0.014-0.446-0.018-0.67-0.033c-0.301-0.02-0.601-0.07-0.904-0.091c-0.386-0.025-0.775-0.089-1.149-0.188
	C6.9,29.558,6.633,29.417,6.384,29.25c-0.653-0.435-1.176-1.03-1.65-1.646c-0.201-0.263-0.369-0.539-0.52-0.834
	c-0.174-0.336-0.344-0.674-0.495-1.022c-0.326-0.75-0.58-1.52-0.788-2.31c-0.099-0.375-0.187-0.753-0.27-1.132
	c-0.089-0.392-0.18-0.784-0.238-1.184c-0.12-0.833-0.189-1.671-0.241-2.512c-0.048-0.78-0.041-1.559-0.035-2.339
	c0.002-0.394,0.006-0.784,0.046-1.177c0.041-0.386,0.081-0.772,0.128-1.157c0.104-0.868,0.224-1.731,0.365-2.592
	c0.129-0.794,0.296-1.578,0.454-2.367c0.156-0.771,0.311-1.54,0.496-2.304c0.197-0.812,0.396-1.623,0.591-2.436
	c0.05-0.208,0.191-0.373,0.369-0.472c0.114-0.303,0.22-0.608,0.317-0.917c0.064-0.199,0.129-0.446,0.299-0.58
	c0.172-0.135,0.348-0.251,0.58-0.236c0.224,0.018,0.421,0.081,0.581,0.25c0.124,0.131,0.201,0.293,0.243,0.469
	c0.064,0.269,0.141,0.531,0.199,0.8C6.904,3.949,6.932,4.356,6.98,4.76c0.059,0.319,0.162,0.634,0.268,0.939
	c0.137,0.39,0.284,0.778,0.444,1.159C7.665,6.796,7.64,6.734,7.612,6.673C7.64,6.739,7.668,6.805,7.697,6.871
	c0.067,0.153,0.143,0.302,0.227,0.447c0.041,0.071,0.081,0.145,0.122,0.217c0.191,0.016,0.384,0.023,0.572,0.022
	C8.909,7.556,9.2,7.528,9.49,7.53c0.251,0.002,0.5,0.018,0.749,0.02c0.073,0.001,0.148,0.005,0.224,0.008
	c0.073-0.261,0.125-0.53,0.193-0.791c0.099-0.381,0.216-0.753,0.334-1.126c0.244-0.783,0.464-1.573,0.775-2.333
	c-0.012,0.029-0.025,0.058-0.037,0.086c0.016-0.038,0.032-0.076,0.048-0.113c0.008-0.021,0.017-0.041,0.025-0.061
	c-0.004,0.01-0.008,0.02-0.012,0.029c0.032-0.075,0.063-0.15,0.095-0.225C12.079,2.554,12.31,2,12.919,2
	c0.444,0,0.759,0.35,0.854,0.757c0.03,0.128,0.049,0.259,0.066,0.389c0.058,0.39,0.169,0.763,0.276,1.141
	c0.12,0.421,0.222,0.85,0.382,1.257c0.365,0.929,0.737,1.852,1.117,2.773c0.408,0.918,0.919,1.774,1.452,2.624
	c0.527,0.844,0.999,1.719,1.534,2.558c0.043,0.068,0.085,0.137,0.128,0.205c0.09-0.208,0.187-0.413,0.298-0.613
	c0.153-0.278,0.338-0.533,0.535-0.782c0.155-0.197,0.313-0.41,0.504-0.576c0.473-0.417,1.124-0.661,1.76-0.578
	c0.284,0.039,0.576,0.073,0.852,0.16c0.236,0.075,0.457,0.188,0.683,0.287c0.204,0.082,0.41,0.159,0.614,0.244
	c-0.009-0.003-0.017-0.007-0.026-0.011c0.067,0.027,0.132,0.048,0.201,0.062c0.156,0.018,0.312,0.037,0.468,0.058
	c-0.039-0.005-0.079-0.011-0.119-0.016c0.114,0.014,0.229,0.027,0.344,0.024c0.014-0.003,0.029-0.007,0.043-0.011
	c0.012-0.007,0.024-0.014,0.036-0.021c0.06-0.054,0.116-0.112,0.169-0.175c0.118-0.156,0.234-0.317,0.322-0.49
	c0.021-0.062,0.037-0.125,0.05-0.188c0.012-0.159,0.013-0.318-0.003-0.478c-0.031-0.204-0.071-0.41-0.138-0.605
	c-0.081-0.156-0.175-0.304-0.276-0.447c-0.067-0.079-0.14-0.152-0.217-0.22c-0.181-0.123-0.366-0.228-0.565-0.317
	C24,8.907,23.734,8.811,23.478,8.689c-0.299-0.145-0.549-0.334-0.734-0.616C22.594,7.841,22.52,7.574,22.555,7.3
	c0.033-0.263,0.079-0.463,0.185-0.708c0.087-0.199,0.24-0.365,0.404-0.506c0.153-0.131,0.311-0.261,0.475-0.376
	c0.125-0.088,0.262-0.148,0.403-0.206c0.175-0.072,0.338-0.129,0.529-0.161c0.216-0.035,0.445-0.069,0.668-0.069
	c0.05,0,0.1,0.001,0.149,0.005c0.452,0.037,0.879,0.134,1.3,0.296c0.367,0.143,0.734,0.301,1.066,0.514
	c0.071,0.044,0.143,0.091,0.213,0.139c0.17,0.112,0.365,0.222,0.493,0.38c0.137,0.172,0.265,0.344,0.384,0.527
	c0.182,0.28,0.354,0.568,0.5,0.868c0.164,0.336,0.276,0.691,0.388,1.047C29.847,9.475,29.863,9.902,29.855,10.344z M8.126,7.671
	c0.003,0.002,0.007,0.005,0.01,0.008C8.133,7.677,8.129,7.674,8.126,7.671L8.126,7.671z M6.385,3.332L6.385,3.332
	c0.004-0.01,0.009-0.02,0.013-0.03C6.393,3.312,6.389,3.322,6.385,3.332z M19.953,24.78c-0.721-0.016-1.443-0.006-2.163,0.002
	c-0.44,0.004-0.881-0.01-1.321-0.014c-0.5-0.006-0.999,0-1.499,0.004c-0.429,0.004-0.788-0.361-0.788-0.788
	c0-0.425,0.356-0.786,0.781-0.786c0.002,0,0.005,0,0.007,0c0.522,0.004,1.041,0.035,1.561,0.058
	c0.419,0.019,0.838,0.019,1.259,0.025c0.456,0.008,0.912,0.012,1.368,0.023c0.414,0.009,0.83,0.021,1.245,0.006
	c0.038-0.189,0.083-0.378,0.111-0.57c0.031-0.286,0.047-0.57,0.052-0.854c-0.375-0.014-0.75-0.034-1.124-0.036
	c-0.469,0-0.937-0.008-1.406-0.01c-0.481-0.001-0.962-0.011-1.445-0.007c-0.525,0.002-1.049,0.033-1.572,0.063
	c-0.415,0.025-0.761-0.365-0.761-0.761c0-0.429,0.346-0.742,0.761-0.761c0.274-0.012,0.548-0.017,0.822-0.017
	c0.732,0,1.463,0.032,2.196,0.038c0.469,0.004,0.937,0.018,1.406,0.02c0.23,0,0.46,0.002,0.692-0.006
	c0.063-0.002,0.128-0.005,0.191-0.009c-0.046-0.166-0.092-0.333-0.138-0.498c-0.081-0.29-0.177-0.575-0.268-0.861
	c-0.195-0.006-0.391-0.007-0.589-0.003c-0.145,0.004-0.292,0.006-0.435,0.004c-0.419-0.004-0.838-0.008-1.258-0.008
	c-0.896,0.002-1.793,0.029-2.687,0.033c-0.423,0.002-0.775-0.354-0.775-0.775c0-0.417,0.348-0.772,0.768-0.772
	c0.002,0,0.005,0,0.007,0c0.954,0.004,1.909,0.023,2.863,0.021c0.425,0,0.848-0.009,1.271-0.005c0.061,0,0.122,0.001,0.182,0.002
	c-0.253-0.482-0.516-0.958-0.79-1.426c-0.417-0.709-0.867-1.396-1.298-2.096c-0.429-0.693-0.819-1.408-1.256-2.096
	c-0.413-0.649-0.842-1.294-1.207-1.975c-0.407-0.755-0.718-1.551-1.045-2.342c-0.149-0.353-0.299-0.706-0.45-1.057
	c-0.172-0.4-0.336-0.798-0.454-1.217c-0.03-0.105-0.058-0.21-0.086-0.316c-0.024,0.082-0.047,0.164-0.071,0.245
	c-0.108,0.375-0.22,0.75-0.328,1.126c-0.106,0.375-0.205,0.751-0.274,1.136C11.93,7.94,11.92,8.49,11.58,8.8
	c-0.231,0.21-0.513,0.338-0.83,0.338c-0.009,0-0.019,0-0.028,0c-0.106-0.002-0.211-0.014-0.317-0.018
	c-0.288-0.016-0.578-0.025-0.867-0.033C9.189,9.08,8.839,9.11,8.488,9.114C8.14,9.116,7.796,9.14,7.45,9.093
	C6.875,9.014,6.647,8.367,6.442,7.905C6.258,7.49,6.104,7.065,5.949,6.638C5.814,6.271,5.69,5.9,5.569,5.529
	c-0.01-0.031-0.019-0.062-0.028-0.094C5.415,5.897,5.283,6.357,5.15,6.815C4.956,7.488,4.794,8.162,4.659,8.85
	c-0.263,1.351-0.561,2.691-0.76,4.051c-0.086,0.641-0.168,1.283-0.227,1.927c-0.058,0.638-0.062,1.275-0.064,1.917
	c-0.001,0.417,0.018,0.833,0.033,1.25c0.562-0.033,1.125-0.05,1.688-0.048c0.164,0.002,0.33,0,0.496-0.002
	c0.151-0.002,0.302-0.004,0.452-0.004c0.131,0,0.263,0.001,0.394,0.006c0.419,0.016,0.771,0.34,0.771,0.771
	c0,0.203-0.083,0.4-0.226,0.542c-0.153,0.153-0.334,0.21-0.545,0.226c-0.27,0.021-0.541,0.018-0.811,0.014
	c-0.178-0.002-0.355-0.004-0.531,0C4.8,19.514,4.27,19.56,3.742,19.604c0.026,0.294,0.045,0.588,0.078,0.88
	c0.008,0.05,0.02,0.1,0.029,0.15c0.925,0.009,1.851,0.064,2.776,0.04c0.429-0.01,0.786,0.367,0.786,0.788
	c0,0.403-0.359,0.819-0.786,0.786c-0.079-0.005-0.158-0.016-0.236-0.027c-0.38-0.037-0.769-0.005-1.149,0.001
	C4.89,22.23,4.54,22.236,4.19,22.241c0.042,0.171,0.08,0.343,0.125,0.513c0.048,0.177,0.106,0.351,0.158,0.527
	c0.783,0.008,1.565,0.063,2.348,0.063c0.425-0.002,0.78,0.355,0.78,0.78c0,0.423-0.355,0.784-0.78,0.781
	c-0.396-0.004-0.79-0.021-1.186-0.025c-0.2-0.002-0.401,0.007-0.601,0.01c0.004,0.011,0.008,0.022,0.013,0.034
	c0.262,0.595,0.574,1.183,0.959,1.706c0.334,0.423,0.7,0.818,1.12,1.157c0.13,0.095,0.265,0.184,0.408,0.256
	c0.223,0.075,0.456,0.13,0.688,0.169c0.251,0.032,0.501,0.061,0.752,0.094c0.2,0.021,0.401,0.03,0.603,0.035
	c0.203,0.006,0.404,0.023,0.605,0.033c0.274,0.013,0.547,0.013,0.819,0.013c0.155,0,0.307-0.002,0.462,0
	c0.566,0.008,1.132,0.078,1.698,0.085c0.714,0.008,1.421-0.062,2.129-0.153c0.842-0.116,1.693-0.231,2.491-0.529
	c0.107-0.053,0.211-0.11,0.312-0.176c0.28-0.234,0.528-0.511,0.761-0.792C19.295,26.191,19.639,25.484,19.953,24.78z M28.186,9.832
	c-0.039-0.18-0.105-0.354-0.166-0.529C27.981,9.191,27.94,9.08,27.897,8.97c-0.098-0.211-0.211-0.413-0.331-0.613
	c-0.109-0.18-0.221-0.361-0.343-0.535c-0.016-0.017-0.032-0.033-0.048-0.049c-0.328-0.228-0.664-0.438-1.027-0.605
	c-0.26-0.104-0.52-0.19-0.794-0.246c-0.176-0.012-0.351-0.007-0.526,0.01c-0.074,0.015-0.144,0.033-0.215,0.057
	c-0.128,0.063-0.246,0.139-0.361,0.222c-0.038,0.032-0.075,0.065-0.109,0.1c0.054,0.03,0.11,0.058,0.166,0.084
	c0.047,0.018,0.094,0.036,0.14,0.053c0.213,0.083,0.423,0.174,0.63,0.267c0.106,0.048,0.214,0.093,0.313,0.155
	c0.172,0.106,0.348,0.228,0.498,0.361c0.154,0.139,0.278,0.286,0.406,0.45c0.224,0.29,0.408,0.638,0.5,0.991
	c0.089,0.332,0.141,0.688,0.158,1.031c0.021,0.408-0.06,0.806-0.226,1.174c-0.066,0.145-0.155,0.282-0.251,0.412
	c-0.128,0.168-0.255,0.342-0.398,0.499c-0.22,0.243-0.479,0.458-0.8,0.547c-0.308,0.087-0.604,0.057-0.911,0.017
	c0.026,0.003,0.051,0.007,0.077,0.01c-0.209-0.027-0.417-0.044-0.624-0.072c-0.106-0.015-0.2-0.048-0.295-0.087
	c0.008,0.003,0.015,0.006,0.023,0.01c-0.011-0.004-0.022-0.009-0.032-0.014c-0.024-0.01-0.048-0.021-0.073-0.031
	c-0.041-0.018-0.083-0.036-0.124-0.053c-0.203-0.079-0.408-0.149-0.61-0.229c-0.101-0.044-0.201-0.09-0.302-0.134
	c-0.172-0.062-0.356-0.098-0.537-0.129c-0.135-0.013-0.269-0.016-0.405-0.007c-0.065,0.015-0.129,0.032-0.193,0.052
	c-0.049,0.025-0.097,0.053-0.143,0.083c-0.167,0.144-0.311,0.311-0.449,0.483c-0.266,0.363-0.486,0.76-0.669,1.172
	c-0.107,0.271-0.211,0.555-0.263,0.842c-0.001,0.012-0.002,0.024-0.004,0.036c-0.001,0.013-0.006,0.024-0.008,0.037
	c0.06,0.099,0.126,0.195,0.185,0.296c0.18,0.308,0.359,0.617,0.533,0.928c0.008-0.037,0.01-0.075,0.022-0.11
	c0.07-0.214,0.155-0.425,0.245-0.63c0.042-0.094,0.085-0.189,0.147-0.274c0.251-0.352,0.566-0.632,0.974-0.79
	c0.263-0.101,0.578-0.207,0.862-0.193c0.162,0.01,0.334,0.027,0.493,0.075c0.205,0.062,0.394,0.16,0.581,0.263
	c0.162,0.087,0.328,0.171,0.496,0.248c0.135,0.051,0.271,0.096,0.414,0.125c0.117,0.012,0.232,0.017,0.351,0.011
	c0.23-0.046,0.458-0.104,0.677-0.185c0.27-0.133,0.529-0.301,0.776-0.475c0.258-0.222,0.482-0.469,0.695-0.734
	c0.217-0.312,0.445-0.63,0.613-0.973c0.162-0.453,0.284-0.919,0.363-1.393C28.21,10.954,28.228,10.386,28.186,9.832z M24.018,5.503
	c0.001,0,0.002,0,0.004-0.001c0.035-0.015,0.07-0.03,0.106-0.045C24.091,5.473,24.055,5.488,24.018,5.503z M22.779,12.914
	c-0.023-0.01-0.047-0.02-0.07-0.03c-0.011-0.004-0.021-0.009-0.032-0.013C22.712,12.885,22.746,12.9,22.779,12.914z"/>
</svg>