<?xml version="1.0" encoding="utf-8"?>
<!-- Generator: Adobe Illustrator 21.1.0, SVG Export Plug-In . SVG Version: 6.00 Build 0)  -->
<svg version="1.1" id="designs" xmlns="http://www.w3.org/2000/svg" xmlns:xlink="http://www.w3.org/1999/xlink" x="0px" y="0px"
	 width="32px" height="32px" viewBox="0 0 32 32" style="enable-background:new 0 0 32 32;" xml:space="preserve">
<style type="text/css">
	.sketchy_een{fill:#111918;}
</style>
<path class="sketchy_een" d="M24.151,12.713c-0.018-0.014-0.036-0.027-0.053-0.041c-0.039-0.031-0.078-0.062-0.117-0.093
	C24.037,12.624,24.094,12.668,24.151,12.713z M24.783,19.474c-0.179-0.594-0.333-1.197-0.574-1.769
	c-0.144-0.345-0.294-0.669-0.493-0.986s-0.422-0.615-0.651-0.911c-0.402-0.521-0.941-0.927-1.452-1.337
	c-0.183-0.146-0.353-0.246-0.596-0.246c-0.223,0-0.438,0.089-0.596,0.246c-0.156,0.158-0.245,0.373-0.245,0.596
	c0,0.199,0.081,0.467,0.245,0.596c0.258,0.201,0.519,0.398,0.769,0.609c0.236,0.197,0.444,0.406,0.639,0.643
	c0.319,0.443,0.595,0.904,0.819,1.399c0.212,0.546,0.361,1.11,0.518,1.677c0.162,0.576,0.312,1.158,0.414,1.751
	c0.036,0.209,0.217,0.41,0.393,0.513c0.199,0.115,0.438,0.146,0.659,0.085c0.215-0.059,0.402-0.201,0.513-0.394
	c0.124-0.211,0.13-0.426,0.085-0.659C25.113,20.677,24.959,20.069,24.783,19.474z M31,22.575c-0.002,0.367-0.095,0.714-0.262,1.039
	c-0.109,0.215-0.233,0.414-0.387,0.603c-0.143,0.175-0.308,0.314-0.483,0.451c0.01-0.008,0.021-0.016,0.031-0.023
	c-0.013,0.01-0.027,0.021-0.04,0.031c-0.046,0.036-0.092,0.071-0.139,0.107c0.036-0.028,0.072-0.056,0.107-0.083
	c-0.295,0.227-0.594,0.45-0.922,0.629c-0.283,0.155-0.611,0.138-0.876-0.008c-0.1,0.369-0.427,0.653-0.822,0.651
	c-0.617-0.002-1.233,0.018-1.85,0.024c-0.777,0.006-1.554,0.006-2.333,0c-0.412-0.004-0.824-0.002-1.235-0.002
	c-0.412,0-0.824,0-1.235-0.004c-1.732-0.018-3.465-0.02-5.197-0.028c-0.884-0.004-1.771-0.008-2.657-0.037
	c-0.86-0.024-1.72-0.026-2.58-0.041c-0.836-0.014-1.669-0.081-2.505-0.087c-0.911-0.008-1.818-0.061-2.722-0.162
	c-0.235-0.026-0.43-0.077-0.604-0.25C4.156,25.254,4.086,25.081,4.06,24.9c-0.011-0.021-0.029-0.037-0.038-0.059
	c-0.381-0.056-0.755-0.15-1.098-0.336c-0.327-0.176-0.633-0.426-0.878-0.706c-0.422-0.477-0.747-1.036-0.907-1.655
	c-0.059-0.227-0.093-0.46-0.122-0.692c-0.065-0.511,0.053-1.073,0.361-1.495c0.201-0.277,0.388-0.549,0.539-0.856
	c0.081-0.232,0.134-0.471,0.178-0.713c0.014-0.153,0.016-0.303,0.005-0.457c-0.062-0.296-0.168-0.58-0.227-0.877
	c-0.103-0.519-0.164-1.057-0.006-1.574c0.071-0.225,0.15-0.469,0.274-0.671c0.187-0.302,0.428-0.534,0.726-0.724
	c0.191-0.123,0.381-0.244,0.565-0.376c0.188-0.155,0.361-0.319,0.518-0.503c0.09-0.133,0.169-0.27,0.239-0.413
	c0.148-0.444,0.167-0.917,0.276-1.37c0.148-0.623,0.416-1.256,0.913-1.684c0.456-0.392,1.089-0.562,1.677-0.617
	c0.29-0.026,0.582-0.017,0.871-0.04c0.064-0.014,0.127-0.03,0.189-0.049C8.238,8.97,8.354,8.901,8.467,8.823
	c0.158-0.143,0.297-0.3,0.431-0.465c0.238-0.339,0.447-0.696,0.71-1.018c0.126-0.154,0.264-0.288,0.418-0.416
	c0.14-0.114,0.29-0.235,0.454-0.316c0.276-0.136,0.558-0.237,0.854-0.318c0.158-0.043,0.325-0.067,0.487-0.094
	c0.197-0.032,0.394-0.052,0.59-0.052c0.291,0,0.58,0.044,0.858,0.159c0.26,0.105,0.487,0.258,0.688,0.454
	c0.053,0.053,0.108,0.105,0.16,0.16c0.103,0.108,0.207,0.212,0.319,0.309c0.045,0.029,0.091,0.055,0.138,0.079
	c0.097,0.031,0.195,0.054,0.294,0.074c0.257,0.023,0.509,0.018,0.765-0.007c0.381-0.077,0.752-0.226,1.113-0.377
	c0.344-0.148,0.698-0.325,1.063-0.414c0.294-0.071,0.6-0.146,0.903-0.142c0.42,0.004,0.815,0.075,1.197,0.258
	c0.548,0.264,0.858,0.825,1.14,1.334c0.128,0.231,0.263,0.451,0.417,0.662c0.068,0.082,0.137,0.162,0.213,0.237
	c0.063,0.041,0.129,0.077,0.197,0.111c0.096,0.033,0.192,0.059,0.291,0.08c0.504,0.032,1.007-0.047,1.509-0.065
	c0.32-0.012,0.645,0.008,0.959,0.069c0.529,0.099,1.004,0.383,1.396,0.749c0.489,0.456,0.959,0.992,1.095,1.667
	c0.076,0.39,0.086,0.787,0.126,1.181c0.023,0.119,0.052,0.233,0.09,0.347c0.035,0.07,0.073,0.138,0.115,0.204
	c0.046,0.048,0.094,0.093,0.143,0.137c0.171,0.113,0.354,0.204,0.524,0.318c0.25,0.166,0.489,0.351,0.712,0.552
	c0.178,0.16,0.355,0.323,0.509,0.505c0.071,0.085,0.14,0.17,0.209,0.258c0.209,0.27,0.361,0.542,0.473,0.864
	c0.166,0.481,0.3,1.008,0.264,1.52c-0.029,0.401-0.124,0.795-0.187,1.192c-0.033,0.275-0.06,0.555-0.053,0.833
	c0.036,0.149,0.088,0.29,0.146,0.434c0.147,0.341,0.3,0.68,0.436,1.026c0.126,0.316,0.243,0.643,0.3,0.98
	C30.969,22.119,31.002,22.346,31,22.575z M26.542,24.241c0.008-0.17,0.021-0.34,0.018-0.511c-0.006-0.327-0.032-0.651-0.047-0.978
	c-0.031-0.728-0.025-1.452-0.105-2.177c-0.165-1.098-0.413-2.204-0.813-3.243c-0.332-0.748-0.74-1.463-1.227-2.122
	c-0.294-0.344-0.609-0.649-0.96-0.938c-0.324-0.265-0.655-0.521-0.984-0.78c-0.344-0.258-0.694-0.5-1.071-0.711
	c-0.347-0.194-0.695-0.392-1.056-0.559c-0.336-0.119-0.681-0.201-1.023-0.295c-0.377-0.105-0.759-0.189-1.144-0.256
	c-0.693-0.118-1.386-0.249-2.081-0.353c-0.846-0.092-1.703,0-2.547,0.106c-0.596,0.098-1.158,0.266-1.719,0.49
	c-0.455,0.195-0.904,0.4-1.338,0.637c-0.402,0.222-0.782,0.487-1.15,0.761c-0.383,0.32-0.726,0.668-1.048,1.049
	c-0.444,0.597-0.825,1.231-1.131,1.909c-0.365,0.91-0.643,1.849-0.898,2.795c-0.238,0.881-0.409,1.777-0.538,2.68
	c-0.047,0.43-0.074,0.856-0.074,1.29c-0.001,0.323,0.008,0.647,0.015,0.97c0.537,0.058,1.075,0.11,1.613,0.125
	c0.398,0.012,0.797,0.008,1.195,0.028c0.446,0.024,0.893,0.049,1.341,0.061c0.86,0.024,1.72,0.029,2.58,0.02
	c0.88-0.008,1.761,0.029,2.641,0.041c0.862,0.01,1.726-0.002,2.588-0.014c1.694-0.026,3.388-0.014,5.083-0.026
	c0.698-0.004,1.396,0,2.095,0.002C25.352,24.246,25.947,24.244,26.542,24.241z M29.218,22.644c0.005-0.101,0.004-0.202-0.003-0.304
	c-0.073-0.383-0.199-0.746-0.341-1.11c-0.135-0.313-0.272-0.627-0.404-0.942c-0.118-0.288-0.195-0.586-0.195-0.901
	c0-0.132,0.004-0.266,0.01-0.397c0.022-0.545,0.121-1.075,0.204-1.612c0.017-0.19,0.017-0.379,0-0.568
	c-0.033-0.176-0.079-0.345-0.14-0.512c-0.053-0.1-0.112-0.195-0.176-0.288c-0.267-0.322-0.567-0.614-0.888-0.881
	c-0.188-0.136-0.387-0.258-0.572-0.399c-0.274-0.211-0.531-0.446-0.69-0.761c-0.071-0.142-0.142-0.29-0.191-0.442
	c-0.164-0.492-0.123-1.003-0.162-1.511c-0.02-0.109-0.047-0.215-0.082-0.322c-0.054-0.107-0.115-0.209-0.183-0.309
	c-0.154-0.176-0.317-0.34-0.496-0.491c-0.117-0.083-0.237-0.16-0.364-0.227c-0.086-0.028-0.172-0.05-0.26-0.068
	c-0.378-0.034-0.758-0.007-1.137,0.018c-0.191,0.012-0.381,0.026-0.572,0.031c-0.266,0.006-0.536,0-0.799-0.059
	c-0.195-0.043-0.369-0.105-0.554-0.185c-0.209-0.089-0.4-0.199-0.57-0.351c-0.118-0.105-0.217-0.227-0.316-0.349
	c-0.14-0.168-0.274-0.349-0.389-0.537c-0.183-0.295-0.32-0.617-0.516-0.902c-0.056-0.066-0.114-0.13-0.177-0.19
	c-0.012-0.007-0.024-0.014-0.036-0.021c-0.073-0.024-0.145-0.044-0.22-0.059c-0.117-0.007-0.233-0.008-0.351-0.001
	c-0.209,0.04-0.409,0.099-0.611,0.17c-0.31,0.136-0.616,0.282-0.927,0.412c-0.361,0.148-0.738,0.337-1.126,0.391
	c-0.28,0.041-0.566,0.091-0.848,0.085c-0.475-0.012-0.953-0.075-1.379-0.292c-0.425-0.217-0.709-0.587-1.061-0.89
	c-0.007-0.004-0.014-0.009-0.021-0.013c-0.056-0.018-0.112-0.033-0.171-0.046c-0.109-0.004-0.217,0-0.325,0.011
	c-0.245,0.045-0.483,0.103-0.718,0.185c-0.09,0.044-0.176,0.092-0.259,0.148c-0.115,0.101-0.223,0.208-0.323,0.325
	c-0.178,0.253-0.33,0.523-0.518,0.769c-0.343,0.452-0.704,0.905-1.211,1.183c-0.16,0.087-0.327,0.177-0.501,0.233
	c-0.187,0.061-0.369,0.089-0.564,0.109C7.961,10.79,7.833,10.802,7.705,10.8c-0.223-0.002-0.442,0.001-0.663,0.02
	c-0.114,0.023-0.225,0.053-0.338,0.09c-0.076,0.036-0.15,0.075-0.222,0.12c-0.004,0.004-0.008,0.008-0.012,0.012
	c-0.08,0.122-0.152,0.249-0.216,0.38c-0.137,0.393-0.216,0.803-0.288,1.212C5.948,12.74,5.93,12.843,5.91,12.946
	c-0.045,0.213-0.122,0.408-0.213,0.606c-0.069,0.148-0.154,0.29-0.25,0.426c-0.223,0.321-0.491,0.627-0.801,0.866
	c-0.199,0.154-0.398,0.31-0.613,0.444c-0.126,0.076-0.251,0.153-0.374,0.235c-0.028,0.025-0.055,0.05-0.081,0.077
	c-0.028,0.048-0.054,0.096-0.078,0.146c-0.043,0.122-0.08,0.244-0.107,0.371c-0.005,0.14,0.002,0.275,0.015,0.412
	c0.056,0.299,0.143,0.592,0.204,0.89c0.059,0.304,0.089,0.609,0.067,0.917c-0.016,0.187-0.049,0.373-0.083,0.558
	c-0.039,0.193-0.069,0.402-0.138,0.586c-0.081,0.215-0.172,0.426-0.274,0.633c-0.144,0.292-0.367,0.536-0.521,0.82
	c-0.018,0.061-0.033,0.121-0.045,0.181c-0.002,0.086,0.002,0.17,0.009,0.254c0.043,0.233,0.102,0.455,0.182,0.677
	c0.081,0.17,0.169,0.332,0.275,0.486c0.115,0.134,0.238,0.256,0.371,0.372c0.092,0.063,0.186,0.12,0.286,0.17
	c0.072,0.026,0.147,0.042,0.22,0.064c0.009-0.385,0.024-0.77,0.07-1.149c0.099-0.848,0.231-1.69,0.422-2.523
	c0.17-0.752,0.377-1.503,0.617-2.237c0.13-0.397,0.26-0.795,0.42-1.181c0.172-0.416,0.333-0.85,0.562-1.239
	c0.454-0.769,0.957-1.513,1.586-2.154c0.318-0.323,0.684-0.606,1.055-0.866c0.363-0.255,0.736-0.495,1.124-0.712
	c0.341-0.193,0.7-0.363,1.059-0.521c0.432-0.193,0.868-0.387,1.323-0.528c0.807-0.245,1.651-0.322,2.489-0.383
	c0.257-0.019,0.518-0.04,0.779-0.04c0.133,0,0.265,0.005,0.396,0.02c0.462,0.053,0.921,0.124,1.377,0.211
	c0.803,0.152,1.625,0.245,2.416,0.452c0.379,0.099,0.777,0.175,1.138,0.327c0.254,0.105,0.509,0.211,0.751,0.343
	c0.187,0.101,0.373,0.203,0.56,0.306c0.721,0.393,1.351,0.905,1.994,1.409c0.457,0.353,0.918,0.711,1.307,1.14
	c0.432,0.481,0.801,1.026,1.116,1.59c0.418,0.75,0.767,1.531,0.99,2.363c0.209,0.783,0.373,1.584,0.485,2.385
	c0.063,0.452,0.097,0.901,0.114,1.357c0.014,0.392,0.01,0.787,0.03,1.178c0.018,0.339,0.032,0.677,0.03,1.014
	c0.169-0.094,0.336-0.19,0.494-0.304c0.123-0.102,0.24-0.206,0.347-0.324c0.059-0.093,0.113-0.188,0.163-0.286
	C29.189,22.74,29.204,22.692,29.218,22.644z"/>
</svg>