<?xml version="1.0" encoding="utf-8"?>
<!-- Generator: Adobe Illustrator 21.1.0, SVG Export Plug-In . SVG Version: 6.00 Build 0)  -->
<svg version="1.1" id="designs" xmlns="http://www.w3.org/2000/svg" xmlns:xlink="http://www.w3.org/1999/xlink" x="0px" y="0px"
	 width="32px" height="32px" viewBox="0 0 32 32" style="enable-background:new 0 0 32 32;" xml:space="preserve">
<style type="text/css">
	.sketchy_een{fill:#111918;}
</style>
<path class="sketchy_een" d="M30.869,6.589c-0.114-0.287-0.24-0.535-0.44-0.772c-0.161-0.19-0.359-0.355-0.578-0.477
	c-0.357-0.198-0.754-0.308-1.155-0.366c-0.752-0.109-1.512-0.101-2.27-0.095c-0.69,0.006-1.38,0.017-2.07,0.017
	c-1.572,0.002-3.146-0.042-4.718-0.043c-0.775,0-1.551,0.008-2.328,0.017c-0.392,0.006-0.787,0.004-1.179,0.004
	c-0.452-0.002-0.905-0.002-1.357,0.004c-0.041,0-0.078,0.019-0.117,0.025c-0.079-0.09-0.158-0.181-0.243-0.261
	c-0.213-0.201-0.436-0.401-0.673-0.568c-0.256-0.178-0.523-0.347-0.823-0.441c-0.163-0.239-0.44-0.394-0.749-0.406
	c-0.068-0.002-0.136-0.004-0.204-0.004c-0.427,0-0.852,0.049-1.273,0.124c-0.417,0.075-0.82,0.263-1.163,0.51
	C9.164,4.121,8.85,4.433,8.547,4.765c-0.188,0.206-0.356,0.428-0.509,0.66C7.262,5.448,6.489,5.486,5.715,5.538
	C5.005,5.585,4.296,5.575,3.588,5.654C3.171,5.701,2.776,5.768,2.375,5.896C2.078,5.993,1.805,6.123,1.586,6.35
	c-0.225,0.233-0.361,0.547-0.43,0.859C1.039,7.748,1.113,8.395,1.56,8.767c0.454,0.38,1.012,0.458,1.582,0.514
	c0.694,0.07,1.398,0.037,2.094,0.008C5.98,9.26,6.725,9.215,7.467,9.148c0.006,0,0.01-0.003,0.016-0.003
	c0.128,0.348,0.299,0.678,0.549,0.953c0.126,0.138,0.266,0.262,0.413,0.378c0.198,0.159,0.403,0.314,0.634,0.423
	c0.417,0.198,0.847,0.366,1.299,0.461c0.434,0.093,0.903,0.128,1.347,0.134c0.254,0.004,0.51-0.031,0.76-0.074
	c0.196-0.035,0.388-0.081,0.574-0.155c0.454-0.182,0.915-0.432,1.274-0.766c0.31-0.287,0.574-0.632,0.768-1.008
	c0.052-0.101,0.098-0.211,0.146-0.318c0.086,0.034,0.177,0.055,0.274,0.05c0.704-0.037,1.409-0.035,2.113-0.045
	c0.733-0.01,1.467-0.021,2.2-0.029C21,9.132,22.165,9.134,23.33,9.134c0.436,0.002,0.874,0.002,1.312,0
	c0.779-0.002,1.557-0.025,2.336-0.064C27.364,9.051,27.75,9.022,28.137,9c0.366-0.019,0.729-0.033,1.091-0.074
	c0.37-0.042,0.706-0.107,1.041-0.275c0.238-0.122,0.448-0.37,0.556-0.611c0.116-0.256,0.184-0.5,0.176-0.787
	C30.993,7.042,30.948,6.79,30.869,6.589z M3.253,7.682C3.08,7.656,2.907,7.625,2.74,7.573c0-0.02,0.001-0.039,0.002-0.059
	C2.747,7.489,2.753,7.464,2.76,7.438c0.254-0.089,0.515-0.149,0.78-0.19c0.693-0.073,1.392-0.062,2.088-0.11
	c0.585-0.04,1.171-0.051,1.758-0.06c-0.007,0.036-0.02,0.07-0.025,0.106c-0.023,0.143-0.03,0.286-0.045,0.429
	c-0.672,0.05-1.342,0.1-2.016,0.113C4.619,7.743,3.931,7.763,3.253,7.682z M13.95,7.876c-0.029,0.155-0.076,0.302-0.133,0.448
	c-0.1,0.213-0.213,0.413-0.347,0.605c-0.116,0.137-0.242,0.263-0.378,0.381c-0.188,0.126-0.383,0.238-0.587,0.335
	c-0.153,0.056-0.311,0.099-0.472,0.129c-0.354,0.031-0.705,0.008-1.057-0.034c-0.253-0.042-0.492-0.113-0.729-0.204
	c-0.229-0.105-0.446-0.219-0.652-0.363C9.469,9.066,9.348,8.953,9.238,8.83c-0.042-0.064-0.08-0.131-0.115-0.2
	C9.081,8.51,9.046,8.388,9.021,8.263C9.007,8.044,9.016,7.827,9.038,7.609C9.085,7.35,9.151,7.095,9.243,6.848
	c0.082-0.175,0.173-0.342,0.28-0.503c0.294-0.355,0.622-0.697,0.972-0.996c0.108-0.076,0.22-0.147,0.338-0.208
	c0.107-0.037,0.216-0.062,0.328-0.082c0.32-0.032,0.639-0.045,0.963-0.032c0.08,0.062,0.173,0.11,0.275,0.14
	c0.014,0.005,0.028,0.009,0.042,0.014c0.146,0.078,0.285,0.173,0.418,0.273c0.283,0.233,0.549,0.492,0.784,0.774
	c0.068,0.097,0.132,0.196,0.185,0.302c0.061,0.172,0.103,0.352,0.134,0.532C13.987,7.334,13.979,7.606,13.95,7.876z M28.873,7.41
	c-0.7,0.084-1.406,0.136-2.11,0.188c-0.787,0.056-1.578,0.093-2.367,0.097c-1.568,0.008-3.135,0.004-4.705,0.026
	c-0.713,0.013-1.427-0.002-2.142-0.012c-0.293-0.002-0.587,0-0.878,0c-0.361,0.002-0.72,0.002-1.079-0.006
	c0.016-0.414-0.023-0.829-0.109-1.232c0.61-0.027,1.22-0.057,1.829-0.069c0.496-0.01,0.994-0.006,1.489-0.004
	c0.279,0.002,0.56,0.004,0.839,0.002c1.574-0.002,3.146-0.006,4.718,0.031c0.649,0.014,1.299,0.014,1.948,0.027
	c0.642,0.014,1.28-0.01,1.919,0.056c0.235,0.039,0.463,0.094,0.687,0.174c0.067,0.035,0.132,0.072,0.195,0.114
	c0.035,0.032,0.069,0.065,0.102,0.099c0.036,0.058,0.068,0.116,0.099,0.176c0.022,0.067,0.041,0.135,0.057,0.205
	c0,0.009,0,0.018,0,0.026C29.203,7.356,29.039,7.383,28.873,7.41z M29.038,13.721c-0.021-0.003-0.042-0.005-0.063-0.008
	c-0.008-0.001-0.015-0.002-0.023-0.003C28.981,13.713,29.009,13.717,29.038,13.721z M1.413,15.164
	c-0.192,0.31-0.275,0.675-0.264,1.035c0.021,0.675,0.322,1.384,0.95,1.704c0.452,0.233,0.985,0.289,1.485,0.316
	c0.419,0.021,0.841,0.019,1.26,0.013c0.83-0.011,1.661-0.04,2.491-0.035c1.524,0.008,3.051,0.017,4.575-0.015
	c1.157-0.022,2.315-0.022,3.474-0.021c0.452,0,0.907,0,1.361-0.002c0.485,0,0.973,0.012,1.458,0.022
	c0.614,0.014,1.229,0.027,1.845,0.016c0.104,0.167,0.219,0.328,0.354,0.468c0.287,0.299,0.611,0.576,0.948,0.816
	c0.322,0.227,0.725,0.39,1.099,0.5c0.409,0.122,0.843,0.182,1.268,0.188c0.492,0.004,0.958-0.136,1.427-0.264
	c0.483-0.132,0.946-0.329,1.357-0.62c0.415-0.293,0.76-0.624,1.014-1.07c0.045-0.08,0.083-0.166,0.126-0.248
	c0.044-0.006,0.088-0.012,0.132-0.018c0.313-0.033,0.627-0.061,0.938-0.106c0.153-0.021,0.308-0.042,0.459-0.072
	c0.169-0.037,0.333-0.12,0.492-0.188c0.157-0.066,0.302-0.198,0.432-0.299c0.13-0.104,0.229-0.242,0.318-0.382
	c0.163-0.26,0.235-0.56,0.266-0.863c0.056-0.533-0.076-1.076-0.337-1.541c-0.192-0.341-0.51-0.51-0.855-0.653
	c-0.173-0.072-0.335-0.105-0.511-0.132c-0.336-0.044-0.661-0.066-0.999-0.066c-0.028,0-0.055,0-0.083,0
	c-0.002,0-0.003,0.001-0.004,0.001c-0.051-0.119-0.099-0.239-0.16-0.353c-0.124-0.235-0.312-0.434-0.498-0.622
	c-0.19-0.192-0.382-0.37-0.611-0.519c-0.233-0.153-0.49-0.264-0.758-0.343c-0.192-0.056-0.388-0.081-0.58-0.128
	c-0.076-0.02-0.153-0.028-0.229-0.027c-0.153-0.119-0.344-0.19-0.548-0.19c-0.001,0-0.002,0-0.004,0
	c-0.504,0-1.006,0.033-1.502,0.124c-0.254,0.048-0.492,0.153-0.727,0.252c-0.145,0.062-0.283,0.132-0.411,0.221
	c-0.621,0.431-1.088,1.052-1.483,1.696c-0.11-0.059-0.229-0.099-0.358-0.099c-0.013,0-0.025,0-0.038,0.001
	c-0.43,0.021-0.859,0.042-1.287,0.068c-0.32,0.023-0.64,0.023-0.958,0.021c-0.101,0-0.202,0-0.302,0
	c-0.795,0.004-1.593,0.068-2.388,0.095c-1.731,0.06-3.464,0.062-5.195,0.072c-0.382,0.002-0.762,0.002-1.142,0
	c-1.033-0.004-2.068-0.008-3.096,0.05c-0.285,0.016-0.568,0.024-0.851,0.041c-0.306,0.019-0.609,0.052-0.917,0.064
	c-0.293,0.011-0.587,0.035-0.872,0.114c-0.266,0.072-0.525,0.186-0.779,0.293c0.016-0.007,0.033-0.014,0.049-0.021
	c-0.102,0.044-0.2,0.09-0.295,0.15C1.726,14.749,1.549,14.943,1.413,15.164z M28.966,15.407c0.005,0.009,0.009,0.018,0.014,0.026
	c0.029,0.079,0.054,0.159,0.072,0.241c0.006,0.093,0.006,0.186,0.001,0.279c-0.011,0.051-0.023,0.101-0.039,0.15
	c-0.003,0.005-0.006,0.01-0.009,0.015c-0.012,0.012-0.025,0.024-0.037,0.035c-0.054,0.036-0.11,0.067-0.168,0.096
	c-0.203,0.068-0.423,0.102-0.638,0.134c0.039-0.286,0.065-0.573,0.074-0.859c0.002-0.059-0.002-0.117-0.001-0.176
	c0.167-0.008,0.335-0.013,0.502-0.004C28.813,15.363,28.891,15.383,28.966,15.407z M21.529,15.876
	c0.044-0.259,0.109-0.513,0.201-0.759c0.168-0.35,0.377-0.68,0.603-0.994c0.154-0.187,0.319-0.365,0.501-0.523
	c0.118-0.079,0.24-0.147,0.367-0.208c0.097-0.034,0.193-0.059,0.292-0.078c0.342-0.03,0.687-0.059,1.03-0.028
	c0.154,0.014,0.307,0.043,0.457,0.081c0.162,0.041,0.368,0.073,0.516,0.151c0.104,0.055,0.206,0.115,0.303,0.18
	c0.124,0.11,0.241,0.234,0.35,0.359c0.054,0.084,0.101,0.172,0.143,0.262c0.059,0.152,0.111,0.305,0.145,0.465
	c0.031,0.365-0.003,0.736-0.046,1.101c-0.054,0.324-0.135,0.634-0.252,0.939c-0.103,0.222-0.214,0.441-0.349,0.644
	c-0.078,0.087-0.162,0.167-0.251,0.243c-0.164,0.119-0.333,0.229-0.514,0.32c-0.166,0.058-0.335,0.102-0.505,0.147
	c-0.183,0.049-0.363,0.101-0.547,0.138c-0.197,0.014-0.391,0.009-0.588-0.01c-0.233-0.042-0.461-0.11-0.682-0.195
	c-0.153-0.072-0.298-0.153-0.437-0.249c-0.205-0.171-0.405-0.359-0.581-0.56c-0.033-0.051-0.063-0.104-0.092-0.158
	c-0.039-0.108-0.073-0.217-0.098-0.33C21.478,16.502,21.494,16.188,21.529,15.876z M2.896,15.996
	c0.005-0.009,0.01-0.019,0.016-0.028c0.034-0.02,0.068-0.038,0.104-0.055c0.232-0.089,0.47-0.162,0.715-0.204
	c0.331-0.038,0.665-0.058,0.996-0.104c-0.045,0.006-0.089,0.013-0.134,0.019c0.315-0.038,0.632-0.052,0.948-0.073
	c0.384-0.025,0.766-0.047,1.148-0.049c0.442-0.002,0.886-0.002,1.328,0c0.38,0,0.76,0,1.14-0.002
	c0.847-0.006,1.692-0.031,2.539-0.031c0.878,0,1.758,0.022,2.636,0.027c0.94,0.006,1.873-0.043,2.811-0.072
	c0.448-0.012,0.898-0.008,1.349-0.004c0.406,0.005,0.813,0.002,1.22-0.008c-0.006,0.036-0.02,0.072-0.024,0.108
	c-0.044,0.322-0.066,0.648-0.067,0.974c-0.607-0.003-1.212-0.001-1.82,0.005c-0.766,0.006-1.533-0.006-2.299,0.021
	c-1.609,0.054-3.22,0.029-4.829,0.022c-1.15-0.004-2.301-0.01-3.449,0.004c-0.669,0.01-1.336,0.01-2.006,0.015
	c-0.602,0.001-1.203,0.003-1.803-0.057c-0.151-0.026-0.297-0.06-0.441-0.107c-0.011-0.019-0.022-0.038-0.032-0.057
	c-0.022-0.069-0.04-0.141-0.054-0.212c-0.001-0.03-0.002-0.061-0.001-0.091C2.889,16.023,2.892,16.01,2.896,15.996z M3.101,26.44
	c0.047,0.006,0.094,0.012,0.14,0.018c0.032,0.004,0.063,0.009,0.095,0.013C3.258,26.46,3.18,26.45,3.101,26.44z M30.267,23.129
	c-0.235-0.304-0.589-0.504-0.942-0.638c-0.215-0.083-0.442-0.105-0.671-0.134c-0.2-0.027-0.405-0.037-0.609-0.043
	c-0.372-0.015-0.742-0.01-1.113-0.004c-0.715,0.014-1.427,0.004-2.142-0.002c-0.861-0.006-1.725,0.002-2.586-0.022
	c-0.475-0.015-0.948-0.054-1.421-0.083c-0.461-0.028-0.922-0.038-1.383-0.044c-0.267-0.33-0.59-0.604-0.919-0.873
	c-0.266-0.217-0.535-0.372-0.845-0.523c-0.184-0.089-0.372-0.18-0.568-0.237c-0.206-0.06-0.423-0.082-0.635-0.1
	c-0.133-0.067-0.265-0.092-0.402-0.092c-0.083,0-0.169,0.009-0.257,0.024c-0.225,0.042-0.446,0.091-0.667,0.151
	c-0.25,0.068-0.492,0.184-0.727,0.293c-0.409,0.192-0.727,0.51-1.014,0.851c-0.143,0.169-0.28,0.347-0.407,0.532
	c-0.121-0.061-0.251-0.101-0.397-0.114c-0.306-0.027-0.612-0.036-0.919-0.036c-0.513,0-1.028,0.026-1.541,0.041
	c-0.83,0.022-1.663,0.039-2.493,0.043C6.768,22.123,5.929,22.14,5.09,22.15c-0.744,0.008-1.508,0.002-2.239,0.153
	c-0.407,0.083-0.785,0.295-1.089,0.572c-0.326,0.295-0.545,0.744-0.684,1.154c-0.219,0.657,0.033,1.365,0.543,1.81
	c0.252,0.221,0.502,0.363,0.828,0.458c0.261,0.074,0.523,0.123,0.791,0.161c1.485,0.184,2.997,0.116,4.488,0.11
	c0.775-0.004,1.551-0.012,2.326-0.006c0.359,0.002,0.717,0.016,1.076,0.016c0.097,0.002,0.196,0,0.295,0
	c0.196,0,0.394,0,0.593,0.006c0.059,0.002,0.111-0.021,0.166-0.032c0.018,0.071,0.026,0.144,0.052,0.212
	c0.05,0.13,0.107,0.267,0.178,0.391c0.091,0.159,0.225,0.301,0.339,0.444c0.24,0.293,0.585,0.502,0.919,0.671
	c0.231,0.118,0.473,0.217,0.717,0.306c0.271,0.099,0.57,0.128,0.851,0.166c0.37,0.049,0.748,0.041,1.117,0.012
	c0.242-0.019,0.485-0.054,0.721-0.114c0.256-0.064,0.5-0.173,0.742-0.279c0.713-0.31,1.305-0.859,1.745-1.491
	c0.023-0.033,0.036-0.071,0.058-0.104c0.104,0.056,0.216,0.094,0.34,0.089c0.77-0.029,1.541-0.012,2.313-0.037
	c0.781-0.027,1.564-0.031,2.344-0.039c0.82-0.008,1.638-0.023,2.458-0.017c0.442,0.004,0.878,0,1.314-0.079
	c0.392-0.068,0.77-0.248,1.136-0.403c0.397-0.167,0.797-0.458,0.973-0.865c0.078-0.182,0.136-0.339,0.165-0.533
	c0.033-0.202,0.078-0.417,0.052-0.622c-0.021-0.176-0.039-0.347-0.095-0.514C30.535,23.489,30.432,23.34,30.267,23.129z
	 M10.132,24.897c-0.756-0.008-1.512-0.01-2.268-0.012c-0.713,0-1.427-0.008-2.142-0.015c-0.682-0.006-1.358-0.035-2.036-0.113
	c-0.249-0.042-0.492-0.103-0.728-0.188c-0.024-0.014-0.048-0.028-0.072-0.043c-0.027-0.026-0.054-0.053-0.079-0.081l0-0.003
	c0.011-0.049,0.025-0.099,0.041-0.147c0.04-0.084,0.084-0.168,0.134-0.248c0.023-0.024,0.046-0.047,0.071-0.07
	c0.036-0.023,0.072-0.044,0.109-0.064c0.119-0.039,0.241-0.065,0.366-0.086c0.672-0.075,1.356-0.072,2.031-0.088
	c0.783-0.017,1.566-0.017,2.351-0.012c0.791,0.004,1.582-0.004,2.375-0.006c0.359-0.002,0.723-0.017,1.084-0.008
	c0.285,0.007,0.57,0.032,0.854,0.055c-0.028,0.108-0.065,0.215-0.083,0.326c-0.044,0.276-0.077,0.555-0.099,0.835
	c-0.008,0-0.014-0.004-0.022-0.004C11.392,24.947,10.76,24.907,10.132,24.897z M18.563,24.79c-0.043,0.232-0.112,0.458-0.194,0.68
	c-0.071,0.144-0.153,0.281-0.247,0.412c-0.129,0.153-0.268,0.292-0.422,0.418c-0.193,0.138-0.393,0.261-0.606,0.363
	c-0.229,0.086-0.462,0.152-0.702,0.196c-0.338,0.034-0.687,0.029-1.026-0.004c-0.215-0.038-0.421-0.095-0.624-0.169
	c-0.33-0.162-0.616-0.345-0.738-0.711c-0.039-0.117-0.057-0.24-0.07-0.363c-0.051-0.492-0.018-0.992,0.096-1.474
	c0.052-0.221,0.155-0.403,0.262-0.604c0.108-0.204,0.22-0.431,0.366-0.611c0.134-0.164,0.277-0.322,0.434-0.462
	c0.055-0.033,0.111-0.063,0.168-0.091c0.323-0.119,0.659-0.186,1-0.243c0.074-0.012,0.146-0.042,0.215-0.083
	c0.078,0.017,0.155,0.039,0.231,0.064c0.208,0.098,0.413,0.211,0.601,0.343c0.141,0.117,0.274,0.243,0.41,0.363
	c0.131,0.116,0.265,0.236,0.382,0.37c0.135,0.199,0.257,0.416,0.359,0.634c0.052,0.138,0.094,0.278,0.123,0.422
	C18.593,24.423,18.583,24.606,18.563,24.79z M28.932,24.506c-0.008,0.038-0.017,0.075-0.027,0.112
	c-0.013,0.013-0.027,0.026-0.04,0.039c-0.149,0.096-0.31,0.174-0.472,0.244c-0.231,0.092-0.459,0.158-0.699,0.202
	c-0.631,0.061-1.266,0.076-1.896,0.107c-0.69,0.035-1.38,0.049-2.072,0.054c-1.192,0.01-2.384,0.044-3.577,0.092
	c0.059-0.329,0.097-0.662,0.102-0.988c0.003-0.175-0.015-0.349-0.047-0.519c0.524,0,1.048-0.005,1.572,0.006
	c0.773,0.017,1.545,0.019,2.318,0.017c0.704,0,1.409,0.022,2.113,0.035c0.712,0.012,1.43,0.003,2.139,0.083
	c0.122,0.021,0.244,0.046,0.364,0.084c0.044,0.023,0.088,0.048,0.13,0.074c0.022,0.021,0.043,0.043,0.064,0.065
	c0.006,0.01,0.012,0.019,0.017,0.029c0.005,0.02,0.01,0.039,0.014,0.059C28.938,24.369,28.936,24.437,28.932,24.506z"/>
</svg>