<?xml version="1.0" encoding="utf-8"?>
<!-- Generator: Adobe Illustrator 21.1.0, SVG Export Plug-In . SVG Version: 6.00 Build 0)  -->
<svg version="1.1" id="designs" xmlns="http://www.w3.org/2000/svg" xmlns:xlink="http://www.w3.org/1999/xlink" x="0px" y="0px"
	 width="32px" height="32px" viewBox="0 0 32 32" style="enable-background:new 0 0 32 32;" xml:space="preserve">
<style type="text/css">
	.sketchy_een{fill:#111918;}
</style>
<path class="sketchy_een" d="M21.813,23.599c0.008,0.632-0.002,1.264,0.019,1.895c0.015,0.435-0.372,0.795-0.795,0.795
	c-0.421,0-0.809-0.361-0.795-0.795c0.03-0.913,0.011-1.828-0.004-2.743c-0.008-0.423-0.017-0.845-0.053-1.268
	c-0.035-0.395-0.081-0.789-0.132-1.182c-0.065-0.435-0.151-0.862-0.249-1.29c-0.055-0.235-0.11-0.469-0.158-0.704
	c-0.065-0.315-0.11-0.63-0.15-0.949c-0.025-0.201,0.103-0.438,0.239-0.575c0.152-0.154,0.361-0.239,0.577-0.239
	c0.215,0,0.423,0.085,0.575,0.239c0.167,0.165,0.213,0.351,0.239,0.575c0.011,0.093,0.023,0.186,0.035,0.279
	c0.128,0.703,0.291,1.401,0.384,2.11c0.089,0.665,0.169,1.329,0.22,1.997C21.815,22.359,21.806,22.98,21.813,23.599z M22.797,12.664
	c-0.014,0-0.027,0-0.041,0c0.007,0.019,0.02,0.034,0.025,0.054c0.289,1.101,0.704,2.16,1.031,3.25
	c0.311,1.044,0.568,2.117,0.74,3.191c0.14,0.86,0.277,1.718,0.365,2.586c0.08,0.784,0.114,1.572,0.122,2.36
	c0.008,0.784,0.011,1.566,0.013,2.35c0,0.378,0.01,0.756,0.011,1.132c0.002,0.384,0.004,0.767,0.027,1.149
	c-0.001-0.01-0.003-0.02-0.004-0.03c0.015,0.174,0.002,0.329-0.093,0.495c-0.053,0.089-0.122,0.166-0.203,0.228
	c-0.138,0.228-0.382,0.383-0.668,0.397c-0.514,0.023-1.029,0.002-1.545-0.006c-0.543-0.008-1.086-0.029-1.631-0.027
	c-0.526,0.004-1.05,0.04-1.576,0.066c-0.524,0.029-1.048,0.017-1.572,0.017c-0.74,0.002-1.477,0.011-2.217,0.027
	c-0.775,0.015-1.551,0.004-2.326,0.013c-0.786,0.009-1.57,0.025-2.356,0.055c-0.813,0.031-1.623,0.038-2.436,0.013
	c-0.248-0.007-0.461-0.135-0.599-0.322c-0.227-0.139-0.38-0.382-0.394-0.666c-0.059-1.139-0.129-2.276-0.177-3.415
	c-0.047-1.116-0.034-2.24,0-3.357c0.025-0.805,0.066-1.612,0.118-2.415c0.055-0.862,0.177-1.718,0.296-2.571
	c0.112-0.799,0.234-1.596,0.397-2.386c0.137-0.659,0.319-1.305,0.526-1.945c-0.13,0.007-0.261,0.017-0.391,0.023
	c-0.395,0.212-0.856,0.063-1.093-0.304C6.92,12.282,6.709,11.925,6.58,11.53c-0.066-0.207-0.102-0.435-0.102-0.651
	c0.002-0.325,0.082-0.615,0.234-0.902c0.11-0.203,0.262-0.389,0.41-0.562C7.23,9.29,7.345,9.176,7.476,9.072
	C7.721,8.878,7.993,8.728,8.3,8.658C8.46,8.622,8.617,8.591,8.777,8.566c0.17-0.026,0.341-0.039,0.512-0.06
	C9.315,7.876,9.408,7.252,9.602,6.65C9.739,6.23,9.885,5.819,10.1,5.433c0.404-0.718,0.894-1.407,1.525-1.942
	c0.309-0.262,0.619-0.518,0.976-0.714c0.357-0.196,0.723-0.367,1.109-0.496c0.389-0.131,0.801-0.161,1.207-0.199
	C15.244,2.05,15.576,2,15.907,2c0.022,0,0.045,0,0.067,0.001c0.431,0.01,0.854,0.087,1.278,0.159
	c0.353,0.061,0.701,0.142,1.037,0.264c0.404,0.142,0.803,0.317,1.173,0.531c0.296,0.173,0.573,0.368,0.858,0.554
	c0.33,0.217,0.647,0.458,0.9,0.765c0.26,0.317,0.48,0.659,0.718,0.991c0.186,0.26,0.347,0.537,0.494,0.822
	c0.169,0.334,0.342,0.674,0.437,1.038c0.078,0.294,0.152,0.591,0.205,0.89c0.02,0.113,0.044,0.227,0.066,0.34
	c0.175,0.017,0.35,0.037,0.521,0.074c0.401,0.087,0.759,0.273,1.065,0.551c0.205,0.186,0.41,0.393,0.549,0.634
	c0.197,0.342,0.279,0.729,0.239,1.122c-0.036,0.346-0.099,0.655-0.262,0.966c-0.205,0.391-0.515,0.674-0.87,0.925
	c-0.205,0.146-0.465,0.127-0.687,0.025c-0.026,0.002-0.049,0.015-0.076,0.014C23.344,12.654,23.07,12.66,22.797,12.664z
	 M8.083,10.772c0,0.041,0.001,0.083,0.004,0.124c0.016,0.073,0.037,0.145,0.062,0.216c0.045,0.089,0.103,0.17,0.154,0.255
	c1.043-0.029,2.085-0.045,3.129-0.098c1.114-0.059,2.229-0.12,3.345-0.141c0.788-0.015,1.576-0.026,2.364-0.047
	c0.752-0.021,1.504-0.04,2.255-0.03c0.253,0.004,0.507,0.002,0.759,0c0.158-0.001,0.317-0.003,0.475-0.003
	c0.304,0,0.608,0.005,0.911,0.023c0.319,0.019,0.638,0.034,0.959,0.036c0.374,0.004,0.744-0.032,1.118-0.036
	c0.059,0,0.111,0.021,0.167,0.034c0.043-0.064,0.082-0.128,0.119-0.196c0.024-0.073,0.043-0.147,0.059-0.223
	c0.005-0.073,0.006-0.144,0.002-0.216c-0.003-0.012-0.007-0.025-0.01-0.038c-0.016-0.029-0.033-0.057-0.051-0.085
	c-0.089-0.099-0.184-0.189-0.285-0.276c-0.037-0.024-0.073-0.045-0.112-0.066c-0.112-0.037-0.224-0.063-0.34-0.083
	c-0.681-0.067-1.362-0.036-2.045-0.016c-0.437,0.011-0.801-0.374-0.801-0.803c0-0.444,0.365-0.79,0.801-0.801
	c0.15-0.004,0.3-0.005,0.45-0.006c-0.061-0.389-0.139-0.78-0.276-1.146c-0.135-0.29-0.282-0.575-0.455-0.843
	c-0.167-0.258-0.357-0.501-0.543-0.746c-0.143-0.174-0.296-0.338-0.465-0.487c-0.254-0.175-0.521-0.334-0.783-0.496
	c-0.304-0.19-0.603-0.378-0.927-0.53c-0.314-0.127-0.631-0.251-0.96-0.332c-0.18-0.044-0.365-0.07-0.547-0.106
	c-0.127-0.024-0.253-0.05-0.38-0.072c-0.593-0.046-1.181,0.015-1.769,0.085c-0.243,0.046-0.473,0.125-0.702,0.216
	c-0.297,0.135-0.581,0.303-0.846,0.489c-0.345,0.282-0.656,0.588-0.941,0.931c-0.289,0.392-0.541,0.801-0.754,1.241
	c-0.159,0.43-0.263,0.887-0.333,1.337c-0.018,0.172-0.02,0.345-0.026,0.517c0.097-0.008,0.195-0.016,0.292-0.024
	c0.593-0.051,1.191-0.098,1.787-0.098c0.088,0,0.177,0.001,0.265,0.003c0.399,0.009,0.731,0.326,0.731,0.731
	c0,0.391-0.332,0.742-0.731,0.731c-1.128-0.027-2.267,0.074-3.383,0.22c0.065-0.01,0.131-0.017,0.195-0.027
	c-0.471,0.064-0.966,0.105-1.422,0.258c-0.037,0.02-0.072,0.041-0.107,0.063c-0.081,0.073-0.155,0.152-0.225,0.235
	C8.205,10.533,8.15,10.622,8.1,10.715C8.094,10.734,8.088,10.753,8.083,10.772z M22.538,17.014c-0.178-0.667-0.391-1.32-0.628-1.967
	c-0.116-0.315-0.243-0.628-0.359-0.944c-0.116-0.317-0.211-0.64-0.3-0.964c-0.048-0.175-0.02-0.35,0.046-0.508
	c-0.201-0.009-0.401-0.018-0.602-0.024c-0.535-0.019-1.069-0.036-1.604-0.057c-0.534-0.019-1.069-0.006-1.602-0.002
	c-0.385,0.002-0.769,0.017-1.154,0.031c-0.403,0.011-0.805,0.011-1.209,0.017c-0.756,0.013-1.509,0.038-2.265,0.068
	c-0.86,0.035-1.718,0.092-2.576,0.149c-0.005,0.02,0.001,0.04-0.006,0.059c-0.332,0.927-0.617,1.87-0.818,2.834
	c-0.18,0.867-0.304,1.749-0.424,2.627c-0.051,0.412-0.103,0.823-0.127,1.235c-0.101,1.604-0.169,3.21-0.142,4.819
	c0.011,0.772,0.072,1.542,0.122,2.312c0.038,0.597,0.069,1.197,0.118,1.794c0.435,0.014,0.869,0.031,1.303,0.035
	c0.598,0.006,1.196-0.006,1.794-0.011c0.465-0.002,0.932,0,1.399,0c0.712,0.004,1.424,0.006,2.138-0.011
	c1.433-0.036,2.869-0.023,4.302-0.12c0.693-0.047,1.388-0.089,2.085-0.097c0.218-0.002,0.44,0,0.661,0.004
	c0.277,0.003,0.554,0.002,0.831-0.006c0.003-0.151,0.005-0.302,0.005-0.452c0-0.336-0.002-0.67-0.002-1.006
	c0.002-0.649,0.004-1.301,0-1.95c-0.004-0.704-0.015-1.411-0.049-2.115c-0.033-0.655-0.101-1.308-0.185-1.958
	c-0.085-0.632-0.177-1.263-0.301-1.889C22.859,18.277,22.707,17.643,22.538,17.014z M14.774,5.142c0-0.394-0.327-0.721-0.721-0.721
	s-0.721,0.327-0.721,0.721s0.327,0.721,0.721,0.721S14.774,5.535,14.774,5.142z M15.547,7.279c0.398,0,0.728-0.33,0.728-0.728
	s-0.33-0.728-0.728-0.728c-0.398,0-0.728,0.33-0.728,0.728S15.149,7.279,15.547,7.279z M17.202,5.87c0.383,0,0.703-0.32,0.703-0.703
	s-0.32-0.703-0.703-0.703c-0.383,0-0.703,0.32-0.703,0.703S16.819,5.87,17.202,5.87z M16.431,15.522
	c-0.442,0-0.813,0.368-0.813,0.813c0,0.754-0.034,1.507-0.023,2.259c0.008,0.625,0.009,1.249,0.006,1.874
	c-0.006,1.188,0,2.377,0.002,3.566c0.002,0.414,0.008,0.824-0.013,1.236c-0.019,0.416,0.363,0.763,0.763,0.763
	c0.391,0,0.799-0.347,0.763-0.763c-0.034-0.418-0.021-0.837-0.021-1.257c0.002-0.507,0.004-1.014,0.004-1.519
	c0.002-0.695-0.004-1.392,0.023-2.086c0.013-0.351,0.03-0.701,0.034-1.052c0.006-0.277-0.008-0.552-0.008-0.83
	c-0.002-0.733,0.085-1.46,0.095-2.191C17.249,15.891,16.87,15.522,16.431,15.522z M11.895,15.238
	c-0.065-0.018-0.132-0.026-0.199-0.026c-0.344,0-0.685,0.227-0.767,0.575c-0.188,0.79-0.353,1.585-0.495,2.385
	c-0.142,0.805-0.211,1.623-0.287,2.436c-0.07,0.767-0.078,1.536-0.108,2.303c-0.023,0.615-0.004,1.226,0.028,1.84
	c0.008,0.133-0.002,0.264,0.002,0.397c0.006,0.19,0.025,0.383,0.053,0.571c0.03,0.192,0.203,0.378,0.365,0.473
	c0.182,0.106,0.406,0.135,0.609,0.08c0.381-0.105,0.59-0.453,0.572-0.822c0.002,0.012,0.003,0.024,0.005,0.036
	c-0.003-0.019-0.004-0.037-0.006-0.055c-0.001-0.008-0.001-0.016-0.002-0.024c-0.005-0.068-0.005-0.135-0.009-0.203
	c-0.006-0.131-0.023-0.259-0.041-0.387c-0.038-0.346-0.043-0.698-0.054-1.045c-0.019-0.541,0.002-1.08,0.011-1.62
	c0.01-0.551,0.015-1.101,0.07-1.65c0.051-0.511,0.089-1.023,0.15-1.533c0.143-0.936,0.417-1.846,0.653-2.762
	C12.552,15.79,12.315,15.353,11.895,15.238z"/>
</svg>