<?xml version="1.0" encoding="utf-8"?>
<!-- Generator: Adobe Illustrator 21.1.0, SVG Export Plug-In . SVG Version: 6.00 Build 0)  -->
<svg version="1.1" id="designs" xmlns="http://www.w3.org/2000/svg" xmlns:xlink="http://www.w3.org/1999/xlink" x="0px" y="0px"
	 width="32px" height="32px" viewBox="0 0 32 32" style="enable-background:new 0 0 32 32;" xml:space="preserve">
<style type="text/css">
	.sketchy_een{fill:#111918;}
</style>
<path class="sketchy_een" d="M29.573,4.442c-0.258-0.336-0.599-0.608-0.916-0.887c-0.399-0.351-0.801-0.698-1.206-1.042
	c-0.177-0.151-0.36-0.25-0.601-0.25c-0.225,0-0.443,0.092-0.601,0.25c-0.001,0.001-0.001,0.002-0.001,0.002
	c-0.1,0.039-0.194,0.097-0.277,0.173c-0.194,0.18-0.396,0.35-0.592,0.528c-0.111-0.112-0.22-0.225-0.329-0.338
	c-0.206-0.216-0.416-0.427-0.628-0.639C24.266,2.08,24.054,2,23.841,2c-0.213,0-0.427,0.08-0.586,0.24
	c-0.317,0.316-0.32,0.853,0,1.169c0.212,0.21,0.425,0.42,0.639,0.628c0.089,0.087,0.179,0.177,0.269,0.265
	c-0.052,0.045-0.101,0.092-0.153,0.137c-0.313,0.267-0.624,0.536-0.936,0.806c-0.177-0.24-0.354-0.48-0.535-0.717
	c-0.139-0.185-0.275-0.326-0.507-0.389c-0.074-0.021-0.151-0.031-0.227-0.031c-0.149,0-0.298,0.039-0.428,0.115
	c-0.189,0.113-0.332,0.296-0.389,0.509c-0.055,0.197-0.046,0.483,0.084,0.654c0.245,0.317,0.491,0.634,0.738,0.949
	c-0.46,0.393-0.921,0.785-1.372,1.19c-0.574,0.514-1.131,1.044-1.699,1.563c-0.284-0.154-0.571-0.303-0.865-0.436
	c-0.425-0.189-0.837-0.361-1.293-0.448c-0.448-0.084-0.906-0.097-1.36-0.099c-0.591,0-1.188,0.189-1.726,0.431
	c-0.17,0.078-0.338,0.158-0.5,0.25c-0.238,0.135-0.452,0.303-0.66,0.483c-0.29,0.25-0.557,0.551-0.795,0.853
	c-0.269,0.338-0.458,0.706-0.656,1.089c-0.178,0.343-0.373,0.662-0.6,0.972c-0.252,0.3-0.537,0.554-0.838,0.804
	c-0.241,0.177-0.488,0.336-0.756,0.477c-0.248,0.129-0.503,0.243-0.761,0.355c-0.37,0.146-0.753,0.25-1.128,0.387
	c-0.423,0.155-0.874,0.321-1.255,0.568c-0.364,0.237-0.748,0.511-1.021,0.857c-0.294,0.372-0.57,0.755-0.822,1.158
	c-0.475,0.765-0.845,1.6-1.07,2.472c-0.227,0.885-0.315,1.799-0.319,2.71c-0.004,0.496,0.044,1.001,0.16,1.484
	c0.106,0.436,0.251,0.866,0.422,1.281c-0.016-0.037-0.032-0.075-0.048-0.112c0.017,0.041,0.035,0.082,0.052,0.122
	c0.007,0.016,0.013,0.032,0.02,0.049c-0.007-0.016-0.014-0.032-0.021-0.049c0.01,0.023,0.019,0.045,0.029,0.068
	c0.003,0.007,0.006,0.014,0.009,0.022c-0.002-0.004-0.004-0.009-0.005-0.013c0.004,0.01,0.008,0.019,0.013,0.029
	c0.015,0.036,0.03,0.071,0.044,0.106c-0.014-0.034-0.028-0.068-0.043-0.102c0.175,0.403,0.371,0.797,0.626,1.157
	c0.284,0.399,0.607,0.755,0.942,1.11c0.288,0.303,0.565,0.622,0.885,0.893c0.37,0.311,0.759,0.59,1.175,0.837
	c0.393,0.233,0.811,0.431,1.234,0.605c0.174,0.071,0.361,0.109,0.542,0.155c0.191,0.048,0.376,0.111,0.565,0.168
	c0.191,0.059,0.393,0.088,0.591,0.118c0.265,0.042,0.534,0.082,0.803,0.097c0.191,0.012,0.383,0,0.574-0.011
	c0.28-0.015,0.565-0.031,0.841-0.09c0.641-0.139,1.242-0.381,1.824-0.681c0.269-0.137,0.536-0.269,0.794-0.424
	c0.305-0.181,0.618-0.397,0.868-0.648c0.238-0.24,0.462-0.498,0.656-0.776c0.204-0.29,0.383-0.595,0.568-0.898
	c0.168-0.275,0.336-0.547,0.49-0.832c0.13-0.235,0.262-0.468,0.418-0.686c0.672-0.799,1.44-1.501,2.259-2.148
	c0.186-0.144,0.371-0.291,0.555-0.437c0.407-0.305,0.823-0.601,1.169-0.975c0.395-0.424,0.729-0.891,1.03-1.385
	c0.625-1.019,0.951-2.199,1.115-3.375c0.044-0.325,0.08-0.649,0.072-0.977c-0.01-0.412-0.086-0.832-0.191-1.23
	c-0.097-0.366-0.166-0.74-0.322-1.089c-0.068-0.15-0.153-0.292-0.242-0.433c0.329-0.384,0.658-0.767,0.984-1.153
	c0.531-0.63,1.056-1.265,1.581-1.899c0.308,0.28,0.623,0.554,0.905,0.858c0.319,0.342,0.889,0.321,1.209,0
	c0.332-0.33,0.328-0.877,0-1.209c-0.331-0.333-0.662-0.667-0.996-0.996c0.311-0.379,0.617-0.762,0.927-1.142
	c0.189,0.225,0.379,0.449,0.576,0.668c0.238,0.267,0.675,0.301,0.975,0.126c0.181-0.107,0.315-0.281,0.372-0.483
	c0.05-0.185,0.042-0.46-0.082-0.62c-0.078-0.101-0.156-0.204-0.235-0.305c0.042,0.055,0.084,0.109,0.126,0.164
	c-0.219-0.284-0.439-0.567-0.662-0.847c-0.002-0.003-0.008-0.004-0.01-0.007c0.11-0.135,0.221-0.269,0.329-0.405
	c0.172,0.016,0.348-0.006,0.493-0.091c0.181-0.107,0.319-0.284,0.374-0.488C29.707,4.881,29.699,4.604,29.573,4.442z M2.928,24.809
	c-0.003-0.008-0.007-0.017-0.01-0.025c0.008,0.02,0.017,0.04,0.025,0.06C2.938,24.832,2.933,24.821,2.928,24.809z M21.842,16.317
	c-0.104,0.706-0.288,1.391-0.552,2.054c-0.104,0.239-0.215,0.473-0.344,0.7c-0.157,0.275-0.336,0.541-0.525,0.797
	c-0.211,0.254-0.44,0.494-0.694,0.707c-0.475,0.359-0.97,0.691-1.448,1.047c-0.313,0.235-0.624,0.471-0.91,0.738
	c-0.242,0.227-0.475,0.467-0.708,0.704c-0.219,0.221-0.416,0.467-0.612,0.708c-0.261,0.318-0.456,0.669-0.649,1.032
	c-0.16,0.3-0.336,0.587-0.513,0.875c-0.176,0.285-0.353,0.567-0.549,0.838c-0.172,0.2-0.352,0.392-0.554,0.561
	c-0.458,0.323-0.974,0.572-1.49,0.795c-0.347,0.129-0.713,0.234-1.08,0.3c-0.412,0.038-0.823,0.04-1.234-0.002
	c-0.285-0.048-0.563-0.117-0.84-0.203c-0.292-0.092-0.589-0.154-0.877-0.259c-0.515-0.241-1.014-0.515-1.474-0.85
	c-0.294-0.242-0.56-0.51-0.82-0.789c-0.274-0.295-0.553-0.58-0.808-0.889c-0.254-0.361-0.463-0.738-0.643-1.14
	c-0.19-0.495-0.344-1.002-0.432-1.523c-0.056-0.66-0.031-1.326,0.044-1.984c0.104-0.626,0.266-1.239,0.494-1.831
	c0.292-0.649,0.649-1.263,1.066-1.838c0.152-0.182,0.321-0.346,0.501-0.5c0.255-0.171,0.517-0.31,0.797-0.436
	c0.246-0.095,0.495-0.18,0.746-0.258c0.353-0.113,0.691-0.244,1.03-0.391c0.307-0.132,0.61-0.277,0.908-0.429
	c0.334-0.172,0.641-0.397,0.933-0.63c0.263-0.21,0.521-0.421,0.755-0.662c0.256-0.263,0.471-0.57,0.683-0.868
	c0.177-0.252,0.315-0.538,0.462-0.809c0.117-0.222,0.244-0.438,0.387-0.646c0.221-0.266,0.471-0.512,0.735-0.736
	c0.208-0.14,0.428-0.254,0.656-0.36c0.247-0.095,0.499-0.181,0.758-0.236c0.354-0.025,0.714-0.014,1.066,0.023
	c0.22,0.037,0.433,0.089,0.644,0.167c0.191,0.085,0.371,0.194,0.559,0.289c-0.403,0.384-0.79,0.784-1.193,1.167
	c-0.383,0.363-0.748,0.746-1.131,1.108c-0.287,0.27-0.552,0.574-0.855,0.83c-0.33,0.158-0.514,0.548-0.414,0.909
	c0.02,0.073,0.06,0.137,0.1,0.201c0.037,0.117,0.093,0.227,0.189,0.312c0.652,0.574,1.303,1.152,1.949,1.732
	c0.25,0.225,0.505,0.444,0.742,0.685c0.18,0.184,0.365,0.375,0.583,0.517c0.004,0.008,0.004,0.018,0.009,0.026
	c0.242,0.414,0.836,0.496,1.175,0.153c0.082-0.083,0.148-0.181,0.218-0.276c0.05-0.064,0.101-0.129,0.151-0.193
	c-0.009,0.013-0.019,0.025-0.028,0.038c0.238-0.307,0.53-0.57,0.786-0.862c0.462-0.525,0.893-1.074,1.322-1.624
	c0.229-0.295,0.457-0.593,0.704-0.871c0.035,0.132,0.071,0.264,0.103,0.397c0.047,0.198,0.097,0.394,0.132,0.594
	c0.021,0.207,0.035,0.414,0.03,0.622C21.88,16.005,21.862,16.162,21.842,16.317z M25.312,7.621c-0.46,0.555-0.933,1.099-1.396,1.652
	c-0.479,0.568-0.94,1.152-1.415,1.724c-0.324,0.392-0.652,0.781-0.979,1.169c-0.107,0.039-0.208,0.096-0.289,0.178
	c-0.119,0.119-0.176,0.263-0.204,0.411c-0.327,0.389-0.662,0.77-0.975,1.171c-0.349,0.448-0.706,0.889-1.07,1.326
	c-0.252,0.303-0.521,0.599-0.805,0.874c-0.094,0.09-0.193,0.172-0.282,0.267c-0.001,0.001-0.002,0.002-0.003,0.004
	c-0.389-0.335-0.75-0.707-1.119-1.065c-0.393-0.38-0.786-0.758-1.183-1.133c0.213-0.201,0.427-0.401,0.636-0.606
	c0.258-0.256,0.519-0.507,0.774-0.765c0.219-0.219,0.424-0.452,0.645-0.669c0.553-0.548,1.137-1.066,1.719-1.583
	c0.61-0.538,1.207-1.091,1.803-1.646c0.927-0.862,1.909-1.664,2.875-2.484c0.473-0.403,0.935-0.815,1.421-1.204
	c0.445-0.355,0.874-0.729,1.301-1.105c0.21,0.172,0.419,0.345,0.629,0.515c0.048,0.039,0.098,0.077,0.147,0.115
	c-0.306,0.401-0.61,0.803-0.918,1.204C26.193,6.526,25.759,7.079,25.312,7.621z M23.467,16.666c0.002-0.012,0.003-0.025,0.005-0.038
	c0.004-0.026,0.007-0.051,0.011-0.077C23.478,16.589,23.472,16.627,23.467,16.666z M13.583,19.07
	c-0.124-0.164-0.25-0.326-0.393-0.475c-0.149-0.156-0.317-0.29-0.49-0.42c-0.332-0.248-0.681-0.448-1.076-0.584
	c-0.272-0.092-0.556-0.129-0.841-0.129c-0.223,0-0.447,0.023-0.665,0.061c-0.132,0.022-0.26,0.106-0.361,0.209
	c-0.332,0.179-0.656,0.374-0.961,0.596c-0.259,0.189-0.473,0.378-0.662,0.641c-0.105,0.145-0.204,0.294-0.288,0.45
	c-0.195,0.365-0.376,0.757-0.444,1.166c-0.057,0.332-0.126,0.673-0.107,1.009c0.013,0.261,0.061,0.551,0.139,0.803
	c0.073,0.229,0.16,0.469,0.299,0.667c0.151,0.214,0.322,0.414,0.519,0.588c0.185,0.164,0.387,0.315,0.595,0.448
	c0.301,0.191,0.635,0.307,0.979,0.397c0.418,0.109,0.876,0.185,1.309,0.149c0.284-0.025,0.555-0.067,0.818-0.177
	c0.229-0.094,0.439-0.193,0.645-0.328c0.17-0.115,0.334-0.244,0.485-0.38c0.2-0.177,0.359-0.387,0.513-0.604
	c0.21-0.29,0.36-0.618,0.483-0.954c0.124-0.336,0.145-0.712,0.145-1.068c0-0.366-0.044-0.736-0.156-1.085
	C13.957,19.704,13.805,19.36,13.583,19.07z M12.434,21.809c-0.09,0.181-0.192,0.352-0.306,0.517
	c-0.094,0.109-0.194,0.209-0.303,0.304c-0.127,0.09-0.258,0.17-0.397,0.24c-0.076,0.027-0.152,0.049-0.23,0.067
	c-0.171,0.012-0.341,0.008-0.511-0.007c-0.244-0.046-0.484-0.106-0.717-0.189c-0.135-0.068-0.263-0.151-0.386-0.239
	c-0.13-0.108-0.251-0.225-0.364-0.352c-0.031-0.049-0.06-0.098-0.086-0.149c-0.05-0.146-0.087-0.293-0.117-0.444
	c-0.011-0.176,0.001-0.349,0.02-0.524c0.04-0.238,0.101-0.466,0.185-0.695c0.083-0.179,0.178-0.351,0.29-0.513
	c0.031-0.032,0.062-0.062,0.095-0.092c0.326-0.232,0.681-0.427,1.036-0.61c0.078,0.001,0.156,0.005,0.234,0.011
	c0.119,0.024,0.233,0.055,0.347,0.095c0.192,0.094,0.372,0.204,0.546,0.327c0.153,0.13,0.29,0.271,0.418,0.423
	c0.079,0.114,0.146,0.231,0.205,0.357c0.059,0.157,0.108,0.314,0.141,0.479c0.018,0.216,0.021,0.434,0.003,0.651
	C12.509,21.583,12.475,21.697,12.434,21.809z"/>
</svg>