<?xml version="1.0" encoding="utf-8"?>
<!-- Generator: Adobe Illustrator 21.1.0, SVG Export Plug-In . SVG Version: 6.00 Build 0)  -->
<svg version="1.1" id="designs" xmlns="http://www.w3.org/2000/svg" xmlns:xlink="http://www.w3.org/1999/xlink" x="0px" y="0px"
	 width="32px" height="32px" viewBox="0 0 32 32" style="enable-background:new 0 0 32 32;" xml:space="preserve">
<style type="text/css">
	.sketchy_een{fill:#111918;}
</style>
<path class="sketchy_een" d="M30.932,13.566c-0.051-0.25-0.165-0.494-0.283-0.718c-0.228-0.439-0.592-0.773-1.054-0.948
	c-0.065-0.025-0.132-0.044-0.2-0.059c0.009-0.029,0.016-0.058,0.023-0.086c0.049-0.199,0.067-0.407,0.085-0.612
	c0.018-0.229-0.03-0.46-0.059-0.685c-0.033-0.248-0.114-0.484-0.242-0.701c-0.158-0.271-0.404-0.49-0.65-0.685
	c-0.218-0.164-0.431-0.296-0.709-0.352c-0.18-0.034-0.365-0.047-0.547-0.05c0.002-0.02,0.004-0.04,0.006-0.06
	c0.031-0.334,0.029-0.661-0.049-0.99c-0.092-0.387-0.366-0.755-0.628-1.041c-0.262-0.287-0.683-0.44-1.056-0.515
	c-0.252-0.051-0.506-0.047-0.757-0.002c-0.14,0.026-0.268,0.073-0.399,0.122c-0.155,0.058-0.308,0.121-0.461,0.186
	c-0.006-0.038-0.012-0.076-0.019-0.115c-0.043-0.251-0.122-0.494-0.23-0.726c-0.132-0.287-0.307-0.571-0.549-0.779
	c-0.336-0.289-0.765-0.472-1.212-0.492c-0.047-0.002-0.094-0.003-0.141-0.003c-0.387,0-0.756,0.08-1.11,0.242
	c-0.305,0.14-0.553,0.352-0.765,0.61c-0.175,0.21-0.309,0.45-0.346,0.726c-0.048,0.344-0.062,0.687-0.064,1.03
	c-0.026,0.011-0.054,0.017-0.08,0.031c-0.295,0.157-0.596,0.299-0.887,0.466c-0.354,0.203-0.706,0.409-1.058,0.616
	c-0.348,0.203-0.714,0.368-1.074,0.547c-0.378,0.185-0.746,0.392-1.117,0.586c-0.384,0.201-0.761,0.411-1.145,0.61
	c-0.397,0.205-0.803,0.397-1.204,0.596c-0.791,0.39-1.574,0.799-2.355,1.212c-0.368,0.197-0.726,0.411-1.1,0.598
	c-0.411,0.207-0.826,0.401-1.237,0.606c-0.787,0.394-1.552,0.824-2.335,1.224c-0.354,0.181-0.712,0.354-1.062,0.543
	c-0.393,0.212-0.787,0.423-1.186,0.624c-0.368,0.185-0.718,0.397-1.082,0.59c-0.378,0.203-0.759,0.403-1.143,0.598
	c-0.276,0.14-0.406,0.445-0.4,0.745c-0.017,0.066-0.027,0.133-0.02,0.197c0.018,0.162,0.039,0.323,0.065,0.484
	c0.022,0.128,0.083,0.246,0.155,0.352c0.112,0.164,0.238,0.26,0.397,0.368c0.124,0.084,0.321,0.132,0.466,0.167
	c0.037,0.01,0.077,0.016,0.116,0.024c0.161,0.032,0.326,0.037,0.49,0.043c0.018,0.364,0.051,0.726,0.123,1.084
	c0.069,0.341,0.22,0.653,0.429,0.921c-0.146,0.117-0.284,0.245-0.401,0.399c-0.388,0.509-0.618,1.08-0.751,1.704
	c-0.032,0.153-0.013,0.302,0.029,0.441c-0.178,0.026-0.339,0.077-0.474,0.212c-0.057,0.058-0.095,0.128-0.132,0.2
	c-0.179,0.11-0.363,0.315-0.4,0.526c-0.069,0.403-0.126,0.807-0.14,1.214c-0.012,0.313,0.051,0.618,0.15,0.913
	c0.132,0.409,0.317,0.748,0.679,1c0.431,0.299,0.993,0.297,1.499,0.315c0.5,0.018,1.003,0.01,1.507,0
	c0.331-0.004,0.661-0.01,0.991-0.01c0.895,0.004,1.788,0.026,2.683,0.032c0.881,0.004,1.763,0.012,2.646,0.014
	c0.411,0.002,0.824,0.016,1.235,0.02c0.405,0.006,0.81,0,1.216,0.01c1.741,0.039,3.482,0.075,5.223,0.057
	c0.824-0.008,1.647-0.035,2.469-0.043c0.883-0.01,1.766,0,2.65-0.032c0.832-0.027,1.664-0.043,2.496-0.061
	c0.323-0.008,0.641-0.037,0.962-0.075c0.189-0.021,0.38-0.041,0.567-0.083c0.12-0.029,0.236-0.086,0.352-0.126
	c0.055-0.02,0.11-0.033,0.167-0.047c0.263-0.062,0.444-0.271,0.529-0.516c0.208-0.142,0.352-0.371,0.359-0.64
	c0.039-1.497,0.035-2.996,0.033-4.495c-0.002-0.775-0.006-1.554,0.039-2.327c0.051-0.866,0.1-1.729,0.149-2.593
	c0.007-0.114-0.017-0.223-0.061-0.323c0.096-0.054,0.193-0.108,0.286-0.165c0.338-0.205,0.694-0.437,0.866-0.807
	c0.098-0.216,0.187-0.447,0.234-0.681c0.031-0.151,0.049-0.305,0.065-0.458C31.016,14.032,30.979,13.798,30.932,13.566z
	 M4.12,21.953c0.045-0.047,0.09-0.092,0.139-0.136c0.115-0.08,0.242-0.142,0.365-0.21c0.131,0.048,0.262,0.095,0.391,0.139
	c0.171,0.058,0.345,0.095,0.52,0.133c-0.011,0.081-0.025,0.16-0.036,0.24c-0.024,0.181,0.033,0.421,0.059,0.598
	c0.018,0.119,0.036,0.238,0.055,0.357c-0.652,0.014-1.303,0.038-1.954,0.066c0.051-0.246,0.107-0.486,0.194-0.722
	C3.93,22.259,4.021,22.103,4.12,21.953z M7.261,23.039c-0.003-0.054,0.001-0.105-0.009-0.163c-0.039-0.227-0.079-0.453-0.118-0.681
	c0-0.059,0.003-0.118,0.008-0.177c0.01-0.046,0.022-0.091,0.036-0.136c0.093-0.188,0.202-0.364,0.323-0.534
	c0.053-0.061,0.107-0.117,0.167-0.17c0.011-0.007,0.023-0.014,0.034-0.021c0.16-0.056,0.326-0.094,0.492-0.125
	c0.056-0.003,0.111-0.005,0.167-0.004c0.055,0.016,0.108,0.034,0.161,0.053c0.114,0.056,0.224,0.119,0.329,0.19
	c0.107,0.095,0.204,0.202,0.294,0.311c0.063,0.094,0.116,0.192,0.165,0.294c0.061,0.162,0.115,0.323,0.154,0.491
	c0.002,0.167-0.006,0.333-0.022,0.499c-0.007,0.041-0.014,0.082-0.021,0.122c-0.001,0.003,0,0.006-0.001,0.01
	C8.702,23.01,7.982,23.023,7.261,23.039z M10.984,21.966c-0.01-0.059-0.035-0.114-0.052-0.172c0.503-0.196,1.022-0.392,1.467-0.701
	c0.036-0.024,0.062-0.058,0.096-0.083c0.09,0.07,0.18,0.14,0.271,0.21c-0.037-0.028-0.073-0.057-0.11-0.085
	c0.234,0.183,0.486,0.34,0.724,0.519c-0.014-0.011-0.028-0.022-0.042-0.033c0.075,0.054,0.149,0.1,0.23,0.132
	c-0.015,0.053-0.034,0.106-0.047,0.159c-0.075,0.297-0.1,0.61-0.071,0.913c0.005,0.048,0.02,0.088,0.028,0.132
	c-0.783-0.004-1.565-0.002-2.349,0.007c-0.048,0.001-0.097,0.002-0.145,0.003c0.008-0.06,0.018-0.12,0.025-0.18
	C11.038,22.507,11.03,22.245,10.984,21.966z M15.166,22.349c0.011-0.058,0.023-0.116,0.037-0.173c0.019-0.034,0.04-0.067,0.061-0.1
	c0.077-0.086,0.158-0.166,0.244-0.242c0.186-0.127,0.384-0.239,0.589-0.334c0.023-0.008,0.047-0.015,0.071-0.021
	c0.156-0.011,0.312-0.009,0.466,0.002c0.014,0.003,0.027,0.006,0.041,0.009c0.006,0.003,0.011,0.007,0.017,0.01
	c0.115,0.097,0.22,0.199,0.318,0.313c0.079,0.109,0.153,0.22,0.216,0.338c0.054,0.174,0.096,0.348,0.126,0.527
	c0.008,0.073,0.008,0.146,0.013,0.218c-0.473,0.002-0.945,0.003-1.417,0.015c-0.265,0.006-0.529,0.007-0.794,0.015
	c0.004-0.035,0.023-0.069,0.02-0.104C15.155,22.664,15.154,22.508,15.166,22.349z M18.93,22.881
	c-0.018-0.416-0.079-0.837-0.207-1.23c-0.069-0.215-0.187-0.408-0.315-0.593c0.105-0.067,0.206-0.142,0.312-0.208
	c0.168-0.105,0.339-0.207,0.508-0.31c0.036,0.026,0.069,0.058,0.108,0.08c0.134,0.075,0.285,0.126,0.427,0.179
	c0.106,0.04,0.214,0.069,0.325,0.094c0.138,0.032,0.275,0.041,0.412,0.04c0.202,0.271,0.399,0.548,0.547,0.852
	c0.078,0.229,0.126,0.46,0.168,0.696c0.013,0.127,0.014,0.255,0.014,0.384c-0.163-0.001-0.326-0.001-0.489-0.002
	c-0.089,0-0.178-0.001-0.267-0.001C19.959,22.862,19.444,22.872,18.93,22.881z M22.857,22.872c-0.01-0.241-0.035-0.481-0.07-0.72
	c0.023-0.009,0.047-0.01,0.07-0.021c0.204-0.104,0.408-0.209,0.616-0.305c0.387-0.148,0.795-0.257,1.203-0.345
	c-0.017,0.188-0.031,0.376-0.044,0.565c-0.017,0.278-0.018,0.555-0.026,0.833c-0.128-0.001-0.256-0.002-0.384-0.008
	c-0.386-0.014-0.771,0-1.157,0.002C22.996,22.873,22.926,22.872,22.857,22.872z M24.778,19.841l0,0.003
	c-0.281,0.036-0.564,0.097-0.835,0.158c-0.159,0.035-0.317,0.075-0.476,0.112c-0.414,0.098-0.802,0.277-1.184,0.461
	c-0.039-0.069-0.081-0.137-0.124-0.204c0.059-0.044,0.119-0.088,0.177-0.135c0.13-0.103,0.228-0.277,0.315-0.415
	c0.069-0.11,0.134-0.218,0.193-0.334c0.118-0.242,0.234-0.494,0.307-0.753c0.074-0.269,0.07-0.513,0.043-0.77
	c0.148-0.012,0.296-0.015,0.443-0.028c0.386-0.035,0.773-0.063,1.16-0.083c-0.009,0.376-0.024,0.753-0.02,1.129
	C24.776,19.268,24.782,19.553,24.778,19.841z M21.493,18.071c0.004,0.058,0.01,0.116,0.008,0.174
	c-0.021,0.086-0.049,0.17-0.079,0.255c-0.092,0.191-0.197,0.372-0.313,0.55c-0.006,0.006-0.012,0.013-0.019,0.019
	c-0.058,0.036-0.118,0.068-0.18,0.098c-0.133,0.05-0.266,0.094-0.405,0.127c-0.009,0-0.018,0-0.027,0
	c-0.078-0.02-0.154-0.044-0.229-0.072c-0.012-0.006-0.024-0.012-0.035-0.018c0,0-0.001-0.001-0.002-0.002
	c-0.112-0.341-0.186-0.692-0.259-1.044C20.466,18.127,20.979,18.094,21.493,18.071z M18.25,18.259c0,0.069-0.007,0.138,0.008,0.208
	c0.051,0.231,0.109,0.46,0.172,0.688c-0.156,0.089-0.314,0.175-0.469,0.268c-0.276,0.166-0.546,0.338-0.808,0.523
	c-0.251-0.077-0.534-0.09-0.778-0.097c-0.022,0-0.043-0.001-0.065-0.001c-0.283,0-0.563,0.048-0.828,0.154
	c-0.165,0.069-0.327,0.146-0.488,0.226c-0.178,0.089-0.329,0.208-0.482,0.325c-0.031-0.046-0.052-0.098-0.095-0.136
	c-0.208-0.179-0.434-0.339-0.654-0.504c-0.089-0.071-0.178-0.143-0.266-0.213c-0.005-0.004-0.009-0.005-0.014-0.009
	c0.059-0.123,0.117-0.246,0.171-0.371c-0.011,0.027-0.022,0.054-0.033,0.08c0.073-0.173,0.153-0.349,0.191-0.535
	c0.025-0.12,0.027-0.244,0.036-0.367c0.024-0.001,0.048-0.001,0.073-0.002c0.844-0.047,1.69-0.077,2.534-0.124
	C17.052,18.338,17.651,18.298,18.25,18.259z M12.326,18.539c-0.024,0.103-0.057,0.203-0.095,0.302
	c-0.125,0.269-0.265,0.526-0.437,0.769c-0.057,0.067-0.118,0.128-0.184,0.187c-0.155,0.103-0.323,0.182-0.491,0.262
	c-0.224,0.092-0.451,0.18-0.677,0.267c-0.082,0.031-0.153,0.07-0.221,0.113c-0.081-0.094-0.165-0.188-0.26-0.269
	c-0.252-0.221-0.53-0.373-0.832-0.5c-0.001-0.357-0.038-0.712-0.1-1.064c0.814-0.036,1.627-0.046,2.441-0.058
	C11.755,18.545,12.041,18.542,12.326,18.539z M7.36,18.643c0.071,0.293,0.134,0.586,0.181,0.883c0.002,0.02,0.003,0.041,0.005,0.061
	c-0.006,0.001-0.013,0.002-0.019,0.003c-0.354,0.071-0.681,0.23-0.952,0.468c-0.114,0.099-0.211,0.212-0.305,0.33
	c-0.032-0.013-0.061-0.04-0.094-0.046c-0.376-0.066-0.729-0.182-1.084-0.319c-0.129-0.059-0.255-0.122-0.374-0.199
	c-0.027-0.025-0.052-0.051-0.077-0.078c-0.032-0.049-0.061-0.099-0.089-0.15c-0.033-0.107-0.059-0.215-0.079-0.327
	c-0.02-0.189-0.024-0.38-0.029-0.57c0.666-0.012,1.331-0.033,1.997-0.036C6.747,18.661,7.053,18.647,7.36,18.643z M25.565,25.995
	c-0.875,0.018-1.751,0.061-2.626,0.075c-0.421,0.006-0.842,0.004-1.263,0.002s-0.842-0.006-1.263,0
	c-0.836,0.012-1.672,0.042-2.51,0.033c-1.733-0.018-3.466-0.055-5.199-0.081c-0.777-0.01-1.552-0.004-2.329,0
	c-0.938,0.006-1.879,0.01-2.815-0.012c-0.797-0.018-1.589-0.029-2.386-0.029c-0.71,0-1.427,0.016-2.136-0.05
	c-0.054-0.009-0.108-0.019-0.161-0.031c-0.04-0.118-0.074-0.238-0.1-0.359c-0.008-0.157,0-0.316,0.015-0.471
	c0.019-0.11,0.041-0.22,0.062-0.33c0.629-0.057,1.26-0.108,1.891-0.12c0.826-0.018,1.65-0.055,2.477-0.062
	c1.617-0.016,3.234-0.042,4.851-0.04c0.799,0,1.597-0.004,2.396-0.014c0.83-0.012,1.658-0.042,2.488-0.053
	c0.791-0.01,1.582-0.031,2.374-0.037c0.427-0.004,0.854-0.002,1.281-0.002c0.331,0.002,0.663,0.002,0.995,0
	c0.596-0.004,1.192-0.006,1.786,0.006c0.551,0.009,1.103,0.052,1.653,0.084c0.356,0.118,0.765-0.022,0.961-0.357
	c0.125-0.214,0.126-0.477,0.04-0.706c0.051-0.103,0.086-0.213,0.091-0.334c0.014-0.385,0.049-0.763,0.096-1.146
	c0.049-0.353,0.104-0.698,0.107-1.056c0.004-0.383,0.026-0.767,0.043-1.151c0.041-0.875,0.075-1.752,0.118-2.628
	c0.012-0.242-0.101-0.458-0.273-0.614c-0.024-0.032-0.037-0.07-0.066-0.098c-0.128-0.128-0.343-0.247-0.535-0.247
	c-0.018,0-0.036,0.001-0.053,0.003c-0.358,0.045-0.72,0.053-1.078,0.081c-0.415,0.031-0.828,0.077-1.243,0.11
	c-0.86,0.069-1.723,0.118-2.583,0.167c-0.83,0.045-1.658,0.067-2.488,0.106c-0.848,0.04-1.694,0.091-2.544,0.116
	c-0.846,0.025-1.69,0.069-2.536,0.102c-0.816,0.034-1.633,0.034-2.447,0.061c-0.822,0.028-1.643,0.073-2.463,0.103
	c-0.838,0.031-1.676,0.016-2.514,0.039c-0.529,0.016-1.058,0.028-1.586,0.032c-0.216,0.002-0.432,0.004-0.649,0
	c0.338-0.207,0.677-0.411,1.033-0.588c0.755-0.375,1.481-0.81,2.237-1.188C7.5,14.92,8.26,14.473,9.05,14.092
	c0.415-0.199,0.834-0.389,1.249-0.59c0.376-0.181,0.742-0.384,1.111-0.575c1.511-0.779,3.059-1.475,4.574-2.24
	c0.744-0.374,1.493-0.724,2.252-1.062c0.35-0.157,0.671-0.38,0.999-0.576c0.273-0.164,0.552-0.329,0.842-0.464
	c0.02-0.007,0.039-0.015,0.059-0.022c0.23-0.092,0.415-0.196,0.545-0.421c0.003-0.005,0.003-0.012,0.006-0.018
	c0.293-0.132,0.519-0.423,0.5-0.758c-0.023-0.408-0.047-0.823-0.02-1.233c0.001-0.003,0.002-0.006,0.002-0.006
	c0.049-0.059,0.098-0.111,0.152-0.161c0.014-0.008,0.029-0.017,0.043-0.025c0.102-0.035,0.203-0.066,0.308-0.092
	c0.077-0.004,0.152-0.005,0.228-0.001c0.041,0.011,0.081,0.023,0.122,0.036c0.021,0.011,0.041,0.023,0.06,0.036
	c0.023,0.022,0.045,0.046,0.066,0.07c0.053,0.079,0.098,0.162,0.14,0.248c0.046,0.136,0.08,0.273,0.105,0.415
	c0.017,0.161,0.03,0.322,0.034,0.485c0.004,0.079,0.006,0.16,0.012,0.238c0.01,0.104,0.022,0.21,0.043,0.314
	c0.037,0.162,0.14,0.291,0.244,0.415c0.222,0.262,0.631,0.295,0.938,0.205c0.183-0.053,0.352-0.157,0.517-0.251
	c0.193-0.112,0.4-0.202,0.605-0.292c0.089-0.034,0.179-0.062,0.272-0.086c0.054-0.002,0.108-0.001,0.163,0
	c0.057,0.014,0.113,0.031,0.168,0.049c0.01,0.005,0.019,0.01,0.028,0.016c0.023,0.024,0.044,0.048,0.066,0.073
	c0.049,0.076,0.093,0.153,0.135,0.232c0.008,0.028,0.016,0.055,0.023,0.083c0.007,0.143,0.003,0.286-0.008,0.429
	c-0.024,0.13-0.055,0.258-0.091,0.386c-0.085,0.311-0.211,0.606-0.108,0.936c0.089,0.281,0.319,0.545,0.616,0.614
	c0.258,0.059,0.48,0.016,0.72-0.073c0.138-0.05,0.273-0.105,0.415-0.14c0.084-0.004,0.168-0.002,0.253,0.004
	c0.01,0.002,0.019,0.004,0.029,0.007c0.022,0.013,0.044,0.026,0.066,0.041c0.084,0.072,0.164,0.148,0.239,0.23
	c0.012,0.02,0.024,0.039,0.036,0.059c0.031,0.104,0.053,0.208,0.071,0.313c0.009,0.113,0.005,0.223-0.004,0.334
	c-0.01,0.051-0.022,0.102-0.037,0.151c-0.072,0.145-0.153,0.283-0.25,0.415c-0.244,0.334-0.348,0.755-0.128,1.135
	c0.264,0.458,0.763,0.458,1.237,0.458c0.107,0,0.213,0,0.315,0.005c0.007,0.004,0.015,0.008,0.022,0.013
	c0.029,0.026,0.058,0.054,0.086,0.083c0.046,0.073,0.087,0.148,0.124,0.226c0.04,0.109,0.069,0.22,0.094,0.333
	c0.005,0.109,0.003,0.218-0.006,0.328c-0.02,0.103-0.045,0.204-0.077,0.303c-0.028,0.027-0.057,0.052-0.087,0.077
	c-0.144,0.108-0.289,0.215-0.447,0.3c-0.009,0.002-0.018,0.004-0.027,0.006c-0.01,0.002-0.021,0.004-0.031,0.006
	c-0.003,0-0.005,0.001-0.008,0.001c0.001,0,0.003,0,0.004,0c-0.151,0.03-0.283,0.086-0.403,0.205
	c-0.144,0.146-0.226,0.344-0.226,0.549c0,0.131,0.037,0.252,0.096,0.36c-0.098,0.137-0.168,0.296-0.176,0.476
	c-0.039,0.844-0.033,1.69-0.071,2.536c-0.033,0.769-0.043,1.538-0.049,2.308c-0.011,1.413,0.006,2.826-0.019,4.237
	c-0.112,0.033-0.223,0.067-0.337,0.09C26.841,25.946,26.207,25.982,25.565,25.995z M28.618,9.124
	c-0.023-0.018-0.045-0.035-0.068-0.052c-0.016-0.013-0.033-0.026-0.049-0.039C28.54,9.064,28.579,9.093,28.618,9.124z
	 M24.645,10.931c-0.281-0.344-0.582-0.667-0.901-0.979c-0.393-0.39-0.852-0.718-1.294-1.05c-0.108-0.082-0.261-0.115-0.408-0.115
	c-0.084,0-0.167,0.011-0.237,0.03c-0.209,0.057-0.391,0.199-0.5,0.386c-0.114,0.193-0.146,0.429-0.085,0.645
	c0.063,0.229,0.201,0.366,0.384,0.5c0.196,0.145,0.391,0.29,0.585,0.436c0.306,0.257,0.603,0.519,0.884,0.803
	c0.255,0.255,0.492,0.532,0.719,0.813c0.123,0.173,0.232,0.353,0.339,0.534c0.092,0.158,0.189,0.309,0.262,0.476
	c-0.01-0.024-0.02-0.049-0.031-0.074c0.075,0.169,0.165,0.307,0.338,0.409c0.187,0.108,0.411,0.138,0.62,0.081
	c0.397-0.108,0.71-0.574,0.561-0.987C25.62,12.119,25.123,11.518,24.645,10.931z M24.322,13.241c0.004,0.007,0.007,0.015,0.01,0.023
	c0,0,0,0.001,0.001,0.001C24.329,13.258,24.326,13.249,24.322,13.241z"/>
</svg>