<?xml version="1.0" encoding="utf-8"?>
<!-- Generator: Adobe Illustrator 21.1.0, SVG Export Plug-In . SVG Version: 6.00 Build 0)  -->
<svg version="1.1" id="designs" xmlns="http://www.w3.org/2000/svg" xmlns:xlink="http://www.w3.org/1999/xlink" x="0px" y="0px"
	 width="32px" height="32px" viewBox="0 0 32 32" style="enable-background:new 0 0 32 32;" xml:space="preserve">
<style type="text/css">
	.sketchy_een{fill:#111918;}
</style>
<path class="sketchy_een" d="M14.348,29c-0.737,0-1.475-0.099-2.036-0.184c-0.301-0.046-0.601-0.121-0.897-0.196
	c-0.385-0.098-0.698-0.191-0.996-0.307c-0.757-0.296-1.398-0.594-1.958-0.912c-0.975-0.551-1.707-1.085-2.304-1.683
	c-0.63-0.632-1.174-1.361-1.7-2.066l-0.272-0.363c-0.22-0.292-0.442-0.586-0.641-0.894c-0.079-0.123-0.138-0.214-0.19-0.309
	c-0.064-0.117-0.112-0.233-0.165-0.361c-0.073-0.172-0.087-0.269-0.11-0.457c-0.038-0.281,0.07-0.597,0.268-0.788
	c0.171-0.167,0.327-0.234,0.529-0.31c0.406-0.151,0.837-0.204,1.28-0.249c0.272-0.027,0.544-0.038,0.817-0.038
	c0.15,0,0.299,0.003,0.448,0.008c1.028,0.033,2.006,0.139,2.909,0.314c0.857,0.166,1.765,0.527,2.7,1.074
	c0.238,0.14,0.478,0.276,0.718,0.411c0.535,0.302,1.089,0.615,1.603,0.97c0.236,0.163,0.464,0.336,0.691,0.509l0.256,0.194
	l0.074-0.277c-0.023-0.831-0.045-1.663-0.046-2.494c-0.37-0.121-0.761-0.176-1.15-0.273c-0.429-0.11-0.828-0.213-1.223-0.327
	c-0.374-0.111-0.74-0.277-1.093-0.438l-0.316-0.143c-0.361-0.161-0.734-0.328-1.062-0.552c-0.456-0.312-0.793-0.609-1.059-0.933
	c-0.277-0.336-0.594-0.729-0.85-1.152c-0.244-0.408-0.44-0.864-0.582-1.356c-0.269-0.92-0.42-1.782-0.462-2.635
	c-0.046-0.886-0.014-1.779,0.016-2.643c0.027-0.714,0.089-1.426,0.152-2.137L7.74,7.518C7.778,7.077,7.817,6.635,7.892,6.2
	c0.035-0.217,0.086-0.381,0.163-0.533C8.161,5.46,8.345,5.309,8.603,5.219C8.682,5.19,8.768,5.177,8.865,5.177
	c0.108,0,0.217,0.016,0.325,0.032c0.359,0.052,0.652,0.163,0.924,0.276c0.241,0.1,0.478,0.204,0.705,0.334l0.131,0.077
	c0.125,0.073,0.25,0.147,0.377,0.215c0.378,0.205,0.77,0.387,1.163,0.566c0.278-0.361,0.497-0.701,0.722-1.036
	c0.179-0.265,0.373-0.521,0.567-0.775l0.135-0.178c0.298-0.399,0.548-0.733,0.814-1.055c0.155-0.191,0.317-0.39,0.513-0.506
	C15.383,3.043,15.538,3,15.701,3c0.221,0,0.448,0.081,0.639,0.227c0.677,0.522,1.323,1.108,1.922,1.742
	c0.427,0.455,0.794,0.97,1.106,1.416l0.185-0.024c0.244-0.082,0.489-0.163,0.736-0.238l0.307-0.091
	c0.295-0.088,0.591-0.175,0.885-0.274c0.313-0.105,0.582-0.195,0.851-0.199l0,0c0.433,0,0.785,0.227,0.96,0.608
	c0.195,0.418,0.282,0.884,0.349,1.289c0.058,0.345,0.119,0.689,0.179,1.034c0.194,1.089,0.299,1.944,0.34,2.755
	c0.044,0.846,0.009,1.725-0.107,2.613c-0.059,0.46-0.137,0.952-0.305,1.428c-0.182,0.523-0.376,0.958-0.592,1.33
	c-0.419,0.723-0.985,1.376-1.682,1.939c-0.555,0.449-1.223,0.836-2.044,1.184c-0.969,0.41-1.767,0.653-2.512,0.761
	c-0.037,1.094-0.021,2.096,0,3.099c0.54-0.389,1.013-0.764,1.492-1.079l0.087-0.058c0.419-0.277,0.851-0.563,1.3-0.8
	c0.546-0.288,1.094-0.547,1.628-0.772c0.428-0.18,0.835-0.352,1.251-0.467c0.438-0.122,0.881-0.222,1.328-0.312
	c0.471-0.094,0.944-0.16,1.42-0.224c0.435-0.058,0.872-0.114,1.31-0.149l0.153-0.012c0.174-0.014,0.346-0.027,0.52-0.033
	c0,0,0.164-0.005,0.173-0.005c0.14,0,0.229,0.01,0.323,0.03l0.125,0.019c0.169,0.068,0.277,0.11,0.377,0.176
	c0.128,0.085,0.299,0.228,0.357,0.353c0.092,0.2,0.175,0.398,0.168,0.612c-0.006,0.152-0.019,0.305-0.052,0.453
	c-0.025,0.114-0.051,0.226-0.084,0.338c-0.071,0.244-0.129,0.448-0.21,0.641c-0.175,0.428-0.366,0.882-0.621,1.31
	c-0.278,0.463-0.53,0.882-0.838,1.243c-0.334,0.391-0.665,0.728-1.01,1.031c-0.396,0.345-0.788,0.647-1.165,0.9
	c-0.378,0.255-0.764,0.498-1.163,0.72c-0.485,0.269-1,0.491-1.394,0.654c-0.5,0.206-0.89,0.345-1.265,0.449
	c-0.406,0.113-0.839,0.165-1.258,0.216l-0.253,0.031c-0.413,0.054-0.859,0.081-1.327,0.081c-0.445,0-0.89-0.024-1.329-0.062
	c-0.207-0.017-0.381-0.082-0.533-0.199C15.781,28.895,15.117,29,14.348,29z M6.275,21.643c-0.351,0-0.701,0.014-1.052,0.046
	c0.065,0.224,0.171,0.366,0.276,0.507L6.22,23.15c0.656,0.837,1.269,1.479,1.93,2.018c0.739,0.539,1.563,1.008,2.521,1.437
	c0.796,0.31,1.629,0.531,2.478,0.658c0.391,0.044,0.777,0.072,1.164,0.072c0,0,0,0,0,0c0.226,0,0.453-0.009,0.681-0.031
	c0.154-0.025,0.301-0.061,0.448-0.096c-0.006-0.609-0.022-1.167-0.027-1.726c-0.205-0.191-0.393-0.342-0.582-0.491
	c-0.607-0.466-1.295-0.993-2.051-1.401l-1.448-0.772c-0.305-0.164-0.609-0.328-0.922-0.478c-0.307-0.123-0.615-0.233-0.931-0.326
	c-0.402-0.117-0.812-0.184-1.161-0.234C7.567,21.688,6.899,21.643,6.275,21.643z M25.675,21.487
	c-0.602,0.074-1.202,0.195-1.786,0.324c-0.361,0.082-0.717,0.166-1.07,0.276c-0.29,0.09-0.573,0.201-0.852,0.314
	c-0.583,0.253-1.202,0.533-1.782,0.871c-0.562,0.328-1.066,0.656-1.542,1.002c-0.586,0.503-1.122,1.058-1.64,1.7
	c-0.037,0.376-0.016,0.697,0.006,1.017l0.007,0.104c0.438,0.09,0.834,0.11,1.23,0.11c0.469,0,0.957-0.028,1.452-0.085
	c0.369-0.053,0.763-0.116,1.153-0.219c0.33-0.087,0.653-0.211,0.971-0.339c0.586-0.255,1.059-0.49,1.487-0.738
	c0.405-0.235,0.819-0.512,1.266-0.847c0.251-0.202,0.477-0.383,0.685-0.584c0.236-0.225,0.456-0.464,0.673-0.708
	c0.438-0.597,0.804-1.223,1.09-1.863c0.049-0.133,0.096-0.264,0.137-0.397c-0.118-0.009-0.233-0.013-0.347-0.013
	C26.435,21.412,26.054,21.44,25.675,21.487z M9.334,7.07c-0.106,0.991-0.176,2.064-0.207,3.187C9.1,11.298,9.094,12.415,9.228,13.53
	c0.103,0.653,0.266,1.296,0.484,1.913c0.173,0.36,0.389,0.713,0.66,1.084c0.182,0.227,0.428,0.521,0.727,0.782
	c0.596,0.426,1.248,0.725,1.919,1.019c0.729,0.28,1.541,0.489,2.417,0.622c0.234,0.026,0.464,0.04,0.694,0.04
	c0.161,0,0.321-0.007,0.483-0.021c0.658-0.113,1.299-0.294,1.964-0.554c0.768-0.33,1.328-0.636,1.819-0.994
	c0.379-0.32,0.691-0.628,0.956-0.946c0.28-0.393,0.518-0.81,0.728-1.278c0.171-0.455,0.292-0.904,0.371-1.375
	c0.143-1.22,0.14-2.483-0.009-3.754C22.388,9.71,22.324,9.355,22.259,9l-0.105-0.591l-0.059-0.367
	c-0.04-0.251-0.087-0.544-0.145-0.792l-0.296,0.078l-0.28,0.086l-0.276,0.077c-0.813,0.167-1.635,0.41-2.406,0.729
	c-0.453,0.187-0.897,0.444-1.328,0.682c-0.181,0.1-0.358,0.204-0.533,0.313c0.436,0.411,0.871,0.746,1.305,1.082
	c0.159,0.124,0.242,0.393,0.242,0.594c0,0.225-0.09,0.443-0.247,0.598c-0.158,0.158-0.376,0.249-0.6,0.249
	c-0.234,0-0.398-0.093-0.602-0.253c-0.724-0.566-1.46-1.134-2.216-1.658c-0.538-0.374-1.123-0.762-1.75-1.072
	c-0.527-0.258-1.062-0.499-1.596-0.74l-0.273-0.123c-0.295-0.134-0.586-0.275-0.869-0.434C9.977,7.314,9.727,7.175,9.466,7.054
	L9.342,6.992L9.334,7.07z M15.549,5.025c-0.311,0.412-0.621,0.826-0.91,1.254c-0.195,0.291-0.377,0.59-0.559,0.889l-0.105,0.174
	c0.509,0.338,0.995,0.636,1.463,0.956c0.605-0.433,1.256-0.823,2.05-1.195c0.059-0.028,0.12-0.051,0.18-0.075l0.106-0.042
	l-0.119-0.289c-0.077-0.12-0.155-0.24-0.239-0.355c-0.484-0.607-1.01-1.156-1.564-1.633L15.65,4.888l-0.103,0.137L15.549,5.025z"/>
</svg>