<?xml version="1.0" encoding="utf-8"?>
<!-- Generator: Adobe Illustrator 21.1.0, SVG Export Plug-In . SVG Version: 6.00 Build 0)  -->
<svg version="1.1" id="designs" xmlns="http://www.w3.org/2000/svg" xmlns:xlink="http://www.w3.org/1999/xlink" x="0px" y="0px"
	 width="32px" height="32px" viewBox="0 0 32 32" style="enable-background:new 0 0 32 32;" xml:space="preserve">
<style type="text/css">
	.sketchy_een{fill:#111918;}
</style>
<path class="sketchy_een" d="M19.5,18.596c0.013-0.002,0.026-0.004,0.039-0.005c0.032-0.004,0.063-0.009,0.095-0.013
	C19.589,18.584,19.544,18.59,19.5,18.596z M18.954,17.151c0.007-0.001,0.013-0.002,0.02-0.003c-0.003,0-0.005,0.001-0.008,0.001
	C18.962,17.15,18.958,17.151,18.954,17.151z M19.497,18.596c-0.001,0-0.002,0-0.004,0c0.002,0,0.004,0,0.007-0.001
	C19.499,18.596,19.497,18.596,19.497,18.596z M30.997,16.478c0.012,0.133-0.008,0.239-0.027,0.378
	c-0.075,0.528-0.297,1.024-0.65,1.427c-0.268,0.305-0.617,0.561-0.966,0.766c-0.31,0.181-0.64,0.324-0.96,0.484
	c-0.374,0.186-0.752,0.358-1.137,0.52c-0.288,0.127-0.567,0.268-0.849,0.409c-0.374,0.189-0.762,0.353-1.155,0.49
	c-0.366,0.127-0.746,0.21-1.12,0.301c-0.341,0.083-0.683,0.168-1.024,0.251c-0.611,0.148-1.229,0.278-1.845,0.409
	c0.188,0.388,0.376,0.776,0.565,1.162c0.276,0.565,0.582,1.12,0.822,1.703c0.068,0.168,0.015,0.401-0.071,0.55
	c-0.094,0.16-0.249,0.28-0.428,0.328c-0.183,0.05-0.384,0.025-0.55-0.071c-0.106-0.064-0.193-0.149-0.255-0.256
	c-0.228-0.528-0.525-1.034-0.802-1.537c-0.288-0.519-0.571-1.038-0.84-1.567c-0.465,0.08-0.932,0.151-1.404,0.199
	c-0.488,0.052-0.978,0.089-1.468,0.13c-0.079,0.954-0.148,1.909-0.094,2.867c0.023,0.426-0.374,0.783-0.785,0.783
	c-0.206,0-0.407-0.083-0.553-0.229c-0.16-0.16-0.204-0.337-0.229-0.553c-0.048-0.415-0.033-0.837-0.031-1.253
	c0.002-0.492,0.018-0.983,0.047-1.474c-0.479,0.028-0.959,0.044-1.442,0.042c-0.509-0.001-1.018-0.007-1.526-0.025
	c-0.184,0.539-0.379,1.074-0.57,1.611c-0.158,0.451-0.355,0.904-0.455,1.371c-0.089,0.413-0.563,0.648-0.951,0.54
	c-0.193-0.052-0.361-0.181-0.463-0.355c-0.112-0.193-0.114-0.382-0.077-0.596c0.039-0.229,0.135-0.442,0.22-0.657
	c0.1-0.256,0.197-0.515,0.285-0.775c0.142-0.419,0.275-0.842,0.409-1.263c-0.517-0.055-1.033-0.107-1.55-0.167
	c-0.413-0.048-0.827-0.085-1.24-0.137c-0.447-0.056-0.885-0.152-1.323-0.264c-0.731-0.187-1.466-0.359-2.193-0.557
	c-0.201-0.056-0.395-0.122-0.592-0.187c-0.255-0.087-0.532-0.181-0.76-0.324c-0.208-0.131-0.407-0.272-0.602-0.424
	c-0.148-0.116-0.309-0.231-0.44-0.37c-0.16-0.168-0.301-0.355-0.438-0.544c-0.145-0.202-0.251-0.393-0.345-0.627
	c-0.091-0.22-0.118-0.47-0.131-0.706c-0.013-0.243,0.006-0.484,0.046-0.725c0.042-0.251,0.116-0.474,0.226-0.708
	c0.096-0.208,0.241-0.391,0.384-0.571c0.133-0.168,0.266-0.335,0.417-0.488c0.17-0.174,0.357-0.324,0.553-0.469
	c0.285-0.212,0.619-0.374,0.943-0.521c0.379-0.168,0.766-0.313,1.147-0.469c0.561-0.242,1.121-0.493,1.703-0.677
	c0.592-0.187,1.184-0.379,1.779-0.558c0.02-0.136,0.031-0.274,0.055-0.41c0.069-0.388,0.135-0.781,0.258-1.157
	c0.245-0.752,0.553-1.489,0.964-2.166c0.218-0.363,0.471-0.71,0.744-1.03c0.245-0.287,0.492-0.575,0.789-0.808
	c0.64-0.503,1.336-0.953,2.092-1.261c0.729-0.295,1.545-0.411,2.324-0.488c0.224-0.021,0.448-0.033,0.672-0.033
	c0.138,0,0.276,0.005,0.414,0.014c0.177,0.012,0.357,0.031,0.534,0.052c0.21,0.025,0.422,0.044,0.627,0.104
	C18,6.002,18.304,6.134,18.621,6.251c0.374,0.141,0.758,0.295,1.095,0.515c0.636,0.417,1.234,0.895,1.743,1.462
	c0.268,0.299,0.526,0.607,0.739,0.949c0.21,0.338,0.378,0.719,0.519,1.088c0.264,0.688,0.497,1.402,0.65,2.125
	c0.063,0.301,0.112,0.605,0.159,0.909c0.955-0.022,1.902,0.095,2.847,0.258c0.837,0.147,1.693,0.303,2.478,0.646
	c0.424,0.187,0.825,0.403,1.186,0.698c0.266,0.22,0.503,0.463,0.685,0.76c0.087,0.143,0.175,0.293,0.218,0.457
	C30.968,16.234,30.987,16.356,30.997,16.478z M9.551,15.168c-0.008,0.502,0.008,1.003,0.018,1.505
	c0.344,0.091,0.688,0.185,1.035,0.266c0.427,0.098,0.855,0.201,1.289,0.27c1.182,0.13,2.364,0.206,3.551,0.2
	c0.636-0.002,1.269-0.027,1.903-0.087c0.536-0.049,1.071-0.104,1.606-0.171c-0.035,0.005-0.07,0.01-0.106,0.015
	c0.039-0.005,0.078-0.011,0.118-0.016c0.028-0.004,0.057-0.007,0.085-0.011c-0.026,0.003-0.051,0.006-0.077,0.01
	c0.503-0.07,1.001-0.147,1.496-0.268c0.272-0.068,0.536-0.141,0.796-0.241c0.24-0.092,0.484-0.163,0.727-0.249
	c0.037-0.018,0.077-0.032,0.114-0.05c0.004-0.887,0.023-1.779-0.082-2.66c-0.081-0.515-0.173-1.027-0.299-1.531
	c-0.134-0.522-0.3-1.031-0.494-1.533c-0.145-0.325-0.308-0.639-0.514-0.93c-0.329-0.398-0.68-0.766-1.081-1.093
	c-0.406-0.302-0.828-0.57-1.284-0.789c-0.471-0.196-0.951-0.385-1.458-0.462c-0.255-0.032-0.511-0.06-0.768-0.06
	c-0.294,0-0.586,0.016-0.878,0.047c-0.56,0.086-1.125,0.204-1.656,0.407c-0.517,0.243-1.002,0.533-1.465,0.868
	c-0.33,0.272-0.61,0.584-0.881,0.916c-0.391,0.525-0.71,1.088-0.973,1.688c-0.156,0.394-0.3,0.794-0.394,1.209
	c-0.085,0.375-0.15,0.754-0.205,1.134C9.609,14.089,9.559,14.625,9.551,15.168z M18.329,20.851
	c-0.007,0.001-0.015,0.002-0.022,0.003c-0.005,0.001-0.01,0.001-0.015,0.002C18.304,20.854,18.316,20.853,18.329,20.851z
	 M29.299,16.611c-0.012,0.029-0.025,0.058-0.037,0.087c0.002-0.005,0.004-0.009,0.006-0.014c-0.003,0.008-0.007,0.016-0.01,0.024
	C29.272,16.675,29.286,16.643,29.299,16.611z M29.3,16.537c-0.035-0.064-0.073-0.127-0.114-0.188c-0.1-0.112-0.21-0.212-0.326-0.307
	c-0.232-0.151-0.47-0.28-0.719-0.396c-0.496-0.181-1.007-0.306-1.529-0.406c-0.479-0.094-0.964-0.176-1.447-0.25
	c-0.491-0.057-0.987-0.079-1.483-0.081c0.02,0.626,0.018,1.257,0.013,1.885c-0.001,0.3-0.18,0.559-0.431,0.693
	c-0.102,0.121-0.227,0.223-0.388,0.267c-0.15,0.041-0.291,0.112-0.44,0.16c-0.152,0.048-0.309,0.081-0.463,0.127
	c-0.255,0.079-0.503,0.179-0.766,0.241c-0.28,0.066-0.557,0.143-0.841,0.191c-0.275,0.048-0.553,0.083-0.83,0.117
	c-0.014,0.002-0.028,0.004-0.042,0.006c-0.022,0.003-0.044,0.005-0.065,0.008c0.021-0.002,0.041-0.005,0.062-0.008
	c-0.557,0.077-1.112,0.156-1.672,0.195c-0.764,0.054-1.521,0.116-2.287,0.108c-0.758-0.008-1.516-0.002-2.27-0.075
	c-0.771-0.073-1.556-0.104-2.312-0.287c-0.754-0.181-1.521-0.307-2.275-0.501c-0.313-0.08-0.523-0.361-0.556-0.668
	c-0.093-0.131-0.16-0.282-0.16-0.453c0-0.734,0.024-1.468,0.074-2.201c-0.537,0.149-1.075,0.299-1.597,0.488
	c-0.647,0.235-1.286,0.503-1.923,0.766c-0.378,0.166-0.752,0.346-1.088,0.587c-0.215,0.18-0.401,0.383-0.576,0.6
	c-0.096,0.127-0.185,0.255-0.257,0.396c-0.034,0.102-0.06,0.205-0.081,0.311c-0.01,0.138-0.006,0.276,0.006,0.413
	c0.014,0.069,0.031,0.136,0.051,0.202c0.085,0.164,0.191,0.317,0.301,0.465c0.14,0.163,0.302,0.303,0.468,0.437
	c0.187,0.137,0.374,0.264,0.584,0.368c0.622,0.246,1.276,0.398,1.92,0.571c0.709,0.188,1.427,0.372,2.151,0.496
	c0.365,0.046,0.731,0.083,1.096,0.121c0.789,0.083,1.577,0.179,2.368,0.237c0.779,0.058,1.562,0.068,2.345,0.069
	c0.361,0.002,0.721,0.002,1.08-0.008c0.399-0.01,0.791-0.06,1.186-0.11c0.706-0.088,1.411-0.167,2.116-0.255
	c-0.021,0.003-0.042,0.006-0.064,0.009c0.023-0.003,0.047-0.006,0.07-0.01c0.026-0.003,0.052-0.007,0.078-0.01
	c0.005-0.001,0.011-0.002,0.016-0.002c-0.012,0.001-0.025,0.003-0.037,0.005c0.017-0.002,0.034-0.005,0.051-0.007
	c1.174-0.175,2.33-0.436,3.486-0.701c0.575-0.131,1.145-0.266,1.709-0.436c0.562-0.168,1.137-0.276,1.687-0.477
	c0.269-0.124,0.521-0.272,0.785-0.41c0.347-0.177,0.712-0.322,1.059-0.498c0.312-0.158,0.613-0.337,0.924-0.498
	c0.257-0.133,0.499-0.272,0.733-0.438c0.153-0.129,0.295-0.266,0.426-0.416c0.046-0.068,0.087-0.138,0.123-0.212
	C29.257,16.692,29.281,16.615,29.3,16.537z M18.191,20.869c0.019-0.003,0.038-0.005,0.057-0.008
	c-0.021,0.003-0.042,0.005-0.063,0.008C18.186,20.869,18.189,20.869,18.191,20.869z M18.529,11.243
	c0.179,0.462,0.319,0.947,0.419,1.431c0.107,0.532,0.179,1.076,0.254,1.614c0.027,0.227,0.05,0.454,0.091,0.677
	c0.073,0.389,0.536,0.605,0.893,0.507c0.181-0.05,0.339-0.172,0.434-0.334c0.106-0.179,0.108-0.359,0.073-0.559
	c-0.008-0.045-0.015-0.09-0.021-0.136c-0.043-0.358-0.076-0.717-0.115-1.075c-0.052-0.48-0.094-0.964-0.199-1.437
	c-0.091-0.407-0.212-0.804-0.372-1.188c-0.201-0.478-0.461-0.908-0.769-1.325c-0.125-0.17-0.253-0.299-0.465-0.359
	c-0.066-0.018-0.135-0.027-0.203-0.027c-0.138,0-0.277,0.036-0.397,0.106c-0.175,0.102-0.305,0.272-0.359,0.465
	c-0.05,0.183-0.041,0.444,0.079,0.602C18.12,10.535,18.351,10.871,18.529,11.243z"/>
</svg>