<?xml version="1.0" encoding="utf-8"?>
<!-- Generator: Adobe Illustrator 21.1.0, SVG Export Plug-In . SVG Version: 6.00 Build 0)  -->
<svg version="1.1" id="designs" xmlns="http://www.w3.org/2000/svg" xmlns:xlink="http://www.w3.org/1999/xlink" x="0px" y="0px"
	 width="32px" height="32px" viewBox="0 0 32 32" style="enable-background:new 0 0 32 32;" xml:space="preserve">
<style type="text/css">
	.sketchy_een{fill:#111918;}
</style>
<path class="sketchy_een" d="M27.647,27.865c-0.017-0.215-0.047-0.428-0.064-0.643c-0.051-0.603-0.083-1.213-0.313-1.778
	c-0.043-0.107-0.089-0.202-0.148-0.287c-0.102-0.342-0.41-0.571-0.779-0.596c-0.131-0.009-0.261-0.009-0.392-0.014
	c-0.005-0.144-0.016-0.287-0.023-0.431c-0.021-0.477-0.07-0.95-0.138-1.424c-0.102-0.709-0.351-1.375-0.622-2.033
	c-0.309-0.747-0.645-1.484-1.105-2.15c-0.462-0.669-1.039-1.239-1.659-1.757c-0.178-0.15-0.368-0.286-0.554-0.425
	c-0.39-0.312-0.753-0.652-1.087-1.027c-0.361-0.402-0.708-0.821-1.046-1.245c-0.372-0.515-0.681-1.058-0.942-1.637
	c-0.041-0.122-0.066-0.245-0.087-0.374c-0.022-0.18-0.036-0.36-0.05-0.541c0.023-0.018,0.051-0.026,0.073-0.047
	c0.266-0.256,0.545-0.502,0.781-0.788c0.279-0.341,0.543-0.692,0.76-1.077c0.226-0.398,0.409-0.822,0.568-1.252
	c0.156-0.428,0.226-0.898,0.26-1.348c0.034-0.453-0.03-0.922-0.162-1.354c-0.119-0.389-0.307-0.784-0.551-1.113
	c-0.255-0.338-0.536-0.63-0.864-0.896c-0.332-0.268-0.666-0.532-1.035-0.745c-0.392-0.226-0.817-0.396-1.235-0.562
	C16.792,2.151,16.314,2,15.836,2c-0.014,0-0.029,0-0.043,0c-0.617,0.013-1.222,0.321-1.74,0.639
	c-0.375,0.23-0.734,0.507-1.047,0.818c-0.334,0.332-0.628,0.698-0.903,1.08c-0.256,0.353-0.409,0.754-0.534,1.169
	c-0.124,0.417-0.23,0.845-0.24,1.282c-0.011,0.443,0.068,0.89,0.145,1.322c0.075,0.426,0.219,0.828,0.394,1.22
	c0.17,0.383,0.392,0.709,0.664,1.03c0.217,0.256,0.451,0.468,0.717,0.675c0.026,0.02,0.052,0.038,0.078,0.058
	c-0.057,0.343-0.116,0.684-0.191,1.024c-0.062,0.276-0.164,0.55-0.271,0.815c-0.213,0.464-0.48,0.895-0.787,1.302
	c-0.421,0.541-0.848,1.078-1.316,1.579c-0.238,0.256-0.479,0.504-0.745,0.732c-0.255,0.219-0.481,0.454-0.698,0.709
	c-0.228,0.268-0.451,0.541-0.669,0.817c-0.268,0.341-0.507,0.702-0.745,1.064c-0.451,0.688-0.685,1.476-0.856,2.276
	c-0.109,0.507-0.198,1.016-0.228,1.535c-0.015,0.257-0.019,0.513-0.023,0.771c-0.002,0.224-0.008,0.455,0.021,0.679
	c0.007,0.06,0.024,0.111,0.036,0.166c-0.378-0.002-0.757-0.002-1.135-0.01c-0.159-0.003-0.3,0.06-0.424,0.147
	c-0.039-0.006-0.074-0.024-0.114-0.024c-0.456,0-0.841,0.383-0.839,0.839c0.002,0.524,0.006,1.048,0.015,1.571
	c0.008,0.466,0.112,0.916,0.186,1.372c0.013,0.131,0.021,0.262,0.031,0.393c0.022,0.375,0.248,0.695,0.586,0.816
	c0.126,0.083,0.271,0.148,0.412,0.131c0.792-0.085,1.575-0.196,2.374-0.205c0.724-0.008,1.446-0.013,2.172-0.043
	c0.752-0.03,1.505-0.017,2.257-0.038c0.764-0.023,1.527-0.032,2.291-0.025c0.769,0.006,1.541,0.004,2.312,0.002
	c0.724-0.004,1.452-0.006,2.178-0.002c0.766,0.006,1.533,0.013,2.299,0.017c0.783,0.002,1.565,0.017,2.348-0.004
	c0.818-0.023,1.633-0.081,2.45-0.145c0.143-0.012,0.27-0.054,0.388-0.116c0.026,0.002,0.051,0.016,0.077,0.016
	c0.519,0,0.918-0.424,0.932-0.932C27.656,28.303,27.666,28.084,27.647,27.865z M21.679,28.161c-1.531,0-3.062-0.032-4.594-0.019
	c-0.296,0.004-0.592,0-0.888-0.002c-0.436-0.004-0.869-0.006-1.303,0.004c-0.768,0.019-1.537,0.019-2.304,0.04
	c-0.752,0.019-1.505,0.017-2.255,0.047c-0.347,0.013-0.694,0.034-1.043,0.036c-0.151,0.002-0.302,0.002-0.453,0
	c-0.226,0-0.453,0-0.679,0.002c-0.642,0.013-1.283,0.064-1.923,0.115c-0.057-0.351-0.125-0.701-0.182-1.054
	c-0.036-0.349-0.039-0.698-0.038-1.047c0.964-0.003,1.927-0.054,2.891-0.057c0.988-0.002,1.98-0.032,2.968-0.004
	c0.415,0.011,0.762-0.354,0.762-0.762c0-0.426-0.347-0.745-0.762-0.76c-0.18-0.006-0.361-0.009-0.542-0.009
	c-0.305,0-0.61,0.006-0.914,0.009c-0.505,0.006-1.009,0.019-1.512,0.028c-0.189,0.003-0.378,0.009-0.566,0.015
	c0.009-0.049,0.033-0.098,0.027-0.146c-0.04-0.347-0.013-0.707-0.002-1.056c0.012-0.335,0.038-0.666,0.079-0.998
	c0.095-0.646,0.23-1.299,0.458-1.911c0.204-0.435,0.477-0.833,0.76-1.219c0.201-0.251,0.412-0.495,0.624-0.739
	c0.215-0.245,0.428-0.488,0.669-0.705c0.26-0.238,0.528-0.456,0.773-0.711c0.245-0.256,0.483-0.522,0.711-0.794
	c0.24-0.283,0.466-0.577,0.7-0.866c0.27-0.33,0.526-0.669,0.749-1.035c0.202-0.332,0.358-0.694,0.502-1.056
	c0.149-0.383,0.277-0.762,0.377-1.161c0.018-0.072,0.027-0.146,0.042-0.219c0.07,0.025,0.137,0.055,0.207,0.079
	c0.473,0.164,1.003-0.181,1.13-0.639c0.138-0.504-0.168-0.971-0.641-1.13c-0.126-0.042-0.25-0.084-0.375-0.128
	c-0.244-0.117-0.474-0.26-0.692-0.42c-0.292-0.237-0.559-0.501-0.8-0.789c-0.154-0.217-0.283-0.448-0.393-0.691
	c-0.14-0.371-0.243-0.765-0.307-1.158c-0.017-0.181-0.021-0.36-0.008-0.543c0.055-0.344,0.138-0.693,0.258-1.02
	c0.111-0.216,0.248-0.414,0.391-0.61c0.249-0.305,0.516-0.586,0.819-0.837c0.295-0.21,0.612-0.389,0.942-0.539
	c0.116-0.041,0.231-0.078,0.349-0.108c0.069-0.005,0.137-0.008,0.205-0.005c0.281,0.057,0.552,0.143,0.822,0.246
	c0.415,0.185,0.82,0.398,1.189,0.664c0.333,0.27,0.657,0.556,0.933,0.884c0.105,0.15,0.194,0.303,0.272,0.468
	c0.071,0.197,0.12,0.396,0.157,0.601c0.019,0.23,0.015,0.457-0.007,0.686c-0.065,0.382-0.166,0.744-0.306,1.103
	c-0.179,0.397-0.393,0.768-0.65,1.119c-0.254,0.311-0.55,0.574-0.86,0.832c-0.172,0.144-0.26,0.41-0.261,0.626
	c-0.111,0.137-0.188,0.299-0.176,0.481c0.024,0.388,0.066,0.783,0.145,1.164c0.085,0.409,0.273,0.786,0.462,1.158
	c0.279,0.556,0.63,1.082,1.035,1.556c0.404,0.47,0.805,0.943,1.222,1.403c0.394,0.435,0.863,0.797,1.327,1.152
	c0.451,0.366,0.869,0.788,1.231,1.243c0.477,0.648,0.834,1.365,1.151,2.102c0.234,0.564,0.447,1.14,0.551,1.743
	c0.063,0.554,0.08,1.113,0.099,1.67c-0.06-0.003-0.12-0.002-0.18-0.005c-0.345-0.019-0.692-0.017-1.037-0.028
	c-0.334-0.009-0.668-0.019-1.002-0.019c-0.075,0-0.15,0-0.225,0.001c-0.792,0.01-1.582,0.045-2.374,0.053
	c-0.766,0.007-1.531,0.041-2.297,0.006c-0.405-0.019-0.809-0.032-1.214-0.041c-0.441-0.011-0.809,0.377-0.809,0.811
	c0,0.447,0.368,0.803,0.809,0.811c0.828,0.011,1.652-0.011,2.478-0.015c0.234,0,0.47,0,0.705,0c0.536,0,1.073,0,1.61-0.015
	c0.811-0.021,1.62-0.017,2.431-0.004c0.362,0.004,0.717,0.032,1.075,0.066c0.392,0.038,0.786,0.043,1.18,0.049
	c0.096,0.002,0.192,0.012,0.288,0.016c0.042,0.129,0.094,0.256,0.119,0.392c0.022,0.297-0.005,0.59-0.002,0.888
	c0.003,0.167,0.019,0.334,0.027,0.503c-0.579,0.061-1.158,0.126-1.739,0.156C23.276,28.155,22.478,28.161,21.679,28.161z
	 M19.201,19.589c-0.151-0.175-0.247-0.36-0.247-0.596c0-0.224,0.091-0.439,0.247-0.598c0.158-0.158,0.392-0.246,0.623-0.246
	c0.215,0,0.427,0.077,0.571,0.246c0.207,0.245,0.405,0.496,0.592,0.756c0.106,0.147,0.208,0.297,0.314,0.443
	c0.141,0.176,0.29,0.345,0.415,0.534c0.153,0.226,0.26,0.49,0.336,0.751c0.149,0.504,0.207,1.039,0.241,1.563
	c0.028,0.447-0.396,0.822-0.824,0.822c-0.464,0-0.803-0.375-0.824-0.822c-0.007-0.161-0.019-0.319-0.037-0.478
	c-0.041-0.264-0.098-0.521-0.19-0.773c-0.065-0.131-0.143-0.253-0.231-0.372c0.043,0.055,0.087,0.111,0.13,0.166
	c-0.211-0.27-0.423-0.538-0.631-0.808C19.529,19.977,19.368,19.782,19.201,19.589z"/>
</svg>