<?xml version="1.0" encoding="utf-8"?>
<!-- Generator: Adobe Illustrator 21.1.0, SVG Export Plug-In . SVG Version: 6.00 Build 0)  -->
<svg version="1.1" id="designs" xmlns="http://www.w3.org/2000/svg" xmlns:xlink="http://www.w3.org/1999/xlink" x="0px" y="0px"
	 width="32px" height="32px" viewBox="0 0 32 32" style="enable-background:new 0 0 32 32;" xml:space="preserve">
<style type="text/css">
	.sketchy_een{fill:#111918;}
</style>
<path class="sketchy_een" d="M17.557,28.941c-0.918-0.011-1.866-0.023-2.791-0.117c-0.849-0.085-1.745-0.265-2.738-0.548
	c-0.828-0.237-1.781-0.533-2.603-1.052c-0.335-0.212-0.656-0.442-0.977-0.673L8.3,26.445c-0.484-0.346-0.87-0.649-1.214-0.956
	c-0.734-0.653-1.318-1.46-1.745-2.089c-1.137-1.678-1.852-3.373-2.128-5.038c-0.141-0.858-0.273-1.871-0.186-2.881
	c0.09-1.068,0.279-1.956,0.581-2.716c0.17-0.425,0.378-0.924,0.644-1.412c0.218-0.407,0.45-0.804,0.689-1.199
	c0.224-0.369,0.47-0.725,0.72-1.075C5.919,8.723,6.24,8.278,6.586,7.885c0.283-0.322,0.599-0.641,0.965-0.974
	c0.163-0.148,0.333-0.289,0.506-0.424l0.13-0.103C8.365,6.242,8.544,6.1,8.733,5.979C9.083,5.76,9.498,5.507,9.929,5.302l1.276-0.61
	c1.034-0.495,1.848-0.79,2.639-0.958c0.678-0.143,1.402-0.257,2.277-0.359c0.096-0.092,0.17-0.154,0.254-0.202
	c0.129-0.076,0.268-0.113,0.425-0.113c0.08,0,0.163,0.01,0.248,0.026c0.285,0.055,0.57,0.109,0.858,0.157l0.404,0.047
	c0.232,0.026,0.467,0.052,0.699,0.085l0.101,0.014c0.27,0.037,0.549,0.075,0.804,0.166c0.714,0.253,1.37,0.615,1.972,0.967
	c0.878,0.515,1.609,1.066,2.233,1.685c0.616,0.607,1.325,1.335,1.929,2.136c0.453,0.6,0.872,1.329,1.321,2.293
	c0.453,0.975,0.809,1.802,1.072,2.667c0.125,0.411,0.236,0.829,0.334,1.248c0.116,0.494,0.224,1.025,0.225,1.557
	c0.001,0.37-0.047,0.746-0.094,1.11l-0.03,0.237c-0.068,0.547-0.146,1.093-0.254,1.632c-0.089,0.439-0.245,0.868-0.396,1.282
	c-0.176,0.479-0.362,0.91-0.555,1.337c-0.346,0.778-0.817,1.547-1.437,2.35c-0.691,0.887-1.57,1.717-2.687,2.537
	c-0.425,0.311-0.901,0.623-1.455,0.955c-0.485,0.289-1.04,0.552-1.696,0.807c-1.015,0.395-1.925,0.587-2.785,0.587H17.557z
	 M16.621,21.581c-0.081,0.416-0.174,0.829-0.268,1.242c-0.095,0.421-0.19,0.842-0.273,1.265l-0.055,0.278
	c-0.133,0.672-0.266,1.346-0.367,2.022l-0.093,0.766l0.302,0.075c0.113,0.009,0.226,0.018,0.34,0.02
	c0.274,0.006,0.547,0.011,0.821,0.011c0.367,0,0.733-0.01,1.1-0.043c0.596-0.1,1.204-0.274,1.919-0.551
	c0.871-0.382,1.723-0.887,2.61-1.544c0.335-0.265,0.651-0.549,0.962-0.836c-0.63-0.625-1.27-1.165-1.919-1.691
	c-0.78-0.633-1.558-1.268-2.335-1.905c-0.236,0.14-0.442,0.298-0.66,0.403c-0.52,0.248-1.083,0.398-1.675,0.448l-0.112,0.004
	l-0.288-0.006L16.621,21.581z M5.344,13.161c-0.233,0.641-0.392,1.242-0.488,1.836c-0.05,0.421-0.074,0.811-0.075,1.195
	c0,0.455,0.046,0.918,0.091,1.31c0.15,0.952,0.388,1.86,0.707,2.7c0.491,1.095,1.095,2.128,1.797,3.072
	c0.486,0.6,1.019,1.127,1.629,1.612l0.163,0.123c0.313,0.237,0.627,0.475,0.954,0.691c0.366,0.242,0.728,0.442,1.109,0.612
	c0.823,0.315,1.717,0.56,2.659,0.73l0.06,0.011l0.001-0.098c0.093-0.357,0.155-0.694,0.218-1.028l0.064-0.338
	c0.071-0.362,0.154-0.719,0.237-1.075l0.083-0.358c0.228-0.988,0.418-1.901,0.579-2.793c-0.326-0.147-0.613-0.25-0.897-0.371
	c-0.237-0.101-0.464-0.221-0.682-0.354c-0.246,0.266-0.43,0.515-0.615,0.764L12.77,21.63c-0.285,0.389-0.533,0.727-0.803,1.047
	c-0.154,0.183-0.305,0.369-0.455,0.554l-0.267,0.328c-0.116,0.141-0.635,0.748-0.635,0.748c-0.132,0.158-0.375,0.229-0.557,0.229
	c-0.21,0-0.414-0.085-0.56-0.232c-0.227-0.225-0.332-0.662-0.127-0.955c0.119-0.172,0.254-0.326,0.39-0.483l0.069-0.079
	c0.099-0.114,0.193-0.23,0.287-0.348l0.189-0.232c0.134-0.158,0.274-0.311,0.414-0.464c0.169-0.185,0.337-0.37,0.497-0.563
	c0.32-0.43,0.618-0.873,0.917-1.315l0.083-0.123c0.023-0.034,0.051-0.062,0.078-0.09l0.031-0.032l0.009-0.073
	c-0.137-0.169-0.214-0.264-0.281-0.369c-0.329-0.514-0.536-0.941-0.652-1.344c-0.156-0.55-0.181-1.119-0.079-1.842l0.007-0.038
	l-0.023-0.073c-0.265-0.121-1.095-0.486-1.095-0.486c-0.505-0.222-1.002-0.453-1.502-0.686L8.33,14.536
	c-0.44-0.203-0.88-0.406-1.319-0.615c-0.435-0.206-0.865-0.422-1.295-0.637l-0.353-0.177L5.344,13.161z M21.392,17.328
	c-0.02,0.129-0.043,0.258-0.077,0.382c-0.12,0.429-0.294,0.854-0.505,1.23c-0.106,0.19-0.231,0.367-0.364,0.54
	c0.344,0.353,0.673,0.644,1.003,0.935c0.37,0.327,0.739,0.653,1.118,0.97c0.617,0.514,1.25,1.009,1.881,1.503l0.18,0.142l0.147,0.05
	c0,0,0.146-0.155,0.176-0.193c0.481-0.638,0.905-1.391,1.335-2.369c0.211-0.511,0.364-0.931,0.481-1.324
	c0.029-0.096,0.05-0.194,0.072-0.291l0.028-0.126l-0.604-0.224c0,0-0.835-0.247-1.064-0.318c-0.308-0.095-0.615-0.189-0.924-0.275
	c-0.336-0.093-0.676-0.176-1.016-0.26l-0.597-0.149c-0.372-0.094-0.748-0.171-1.122-0.247l-0.052-0.011L21.392,17.328z
	 M16.354,12.735c-0.223,0.038-0.433,0.089-0.64,0.163c-0.278,0.14-0.548,0.305-0.832,0.51c-0.321,0.265-0.617,0.563-0.906,0.913
	c-0.316,0.421-0.547,0.79-0.729,1.163c-0.108,0.292-0.186,0.586-0.241,0.903c-0.027,0.252-0.042,0.498-0.024,0.747
	c0.048,0.226,0.107,0.435,0.185,0.644c0.162,0.341,0.332,0.635,0.523,0.904c0.146,0.171,0.295,0.323,0.46,0.464
	c0.277,0.195,0.586,0.371,0.951,0.539c0.388,0.15,0.791,0.258,1.235,0.333c0.126,0.01,0.246,0.015,0.365,0.015l0,0
	c0.137,0,0.273-0.006,0.41-0.019c0.275-0.052,0.534-0.121,0.791-0.214c0.132-0.068,0.249-0.143,0.366-0.223
	c0.274-0.231,0.533-0.504,0.845-0.891c0.195-0.276,0.359-0.556,0.5-0.858c0.122-0.313,0.207-0.614,0.261-0.921
	c0.047-0.439,0.047-0.861,0.003-1.292c-0.048-0.255-0.109-0.498-0.193-0.737c-0.139-0.3-0.311-0.594-0.512-0.877
	c-0.179-0.21-0.381-0.403-0.655-0.629c-0.135-0.105-0.271-0.207-0.409-0.304c-0.09,0.002-0.142,0.008-0.194,0.008
	c-0.083,0-0.166-0.014-0.244-0.043c-0.312-0.113-0.65-0.227-0.998-0.296c-0.058-0.004-0.11-0.006-0.161-0.006L16.354,12.735z
	 M24.504,9.727c-0.238,0.197-0.475,0.394-0.707,0.596c-0.396,0.348-0.772,0.708-1.146,1.076c-0.311,0.305-0.635,0.593-0.961,0.88
	l-0.232,0.206c-0.223,0.198-0.451,0.389-0.679,0.58l-0.159,0.133c0.164,0.327,0.317,0.608,0.445,0.898
	c0.213,0.476,0.336,1.023,0.389,1.721c0.575,0.157,1.104,0.289,1.632,0.432c0.393,0.106,0.788,0.204,1.183,0.301l0.906,0.227
	c0.388,0.099,0.776,0.199,1.168,0.286l0.725,0.153l0.079-0.203c0.017-0.133,0.033-0.267,0.044-0.4c0.027-0.348,0.027-0.675,0.001-1
	c-0.153-0.929-0.445-1.928-0.871-2.973c-0.438-1.008-0.933-2.073-1.581-3.04L24.71,9.556L24.504,9.727z M11.715,14.519
	c0.221-0.349,0.423-0.682,0.681-1.043c0.138-0.193,0.281-0.381,0.434-0.563c-0.19-0.248-0.374-0.43-0.557-0.612l-0.388-0.385
	c-0.295-0.292-0.59-0.584-0.88-0.88c0,0-1.022-1.061-1.257-1.301C9.324,9.304,8.889,8.884,8.451,8.465
	C8.115,8.732,7.859,9.008,7.62,9.302c-0.615,0.827-1.152,1.647-1.595,2.44c0.374,0.248,0.726,0.429,1.078,0.611
	c0.513,0.266,1.027,0.531,1.546,0.786c0.693,0.34,1.391,0.666,2.097,0.972l0.108,0.047v0C10.863,14.162,11.715,14.519,11.715,14.519
	z M19.234,5.282l-0.022,0.088c-0.1,0.395-0.2,0.791-0.288,1.187L18.835,6.94c-0.073,0.308-0.145,0.616-0.199,0.925
	c-0.114,0.641-0.206,1.288-0.298,1.933l-0.082,0.571l-0.088,0.877c0.108,0.077,0.153,0.091,0.199,0.113
	c0.297,0.139,0.559,0.325,0.801,0.503l0.276,0.219c0.701-0.51,1.436-1.113,2.071-1.818c0.36-0.401,0.719-0.794,1.11-1.165
	l0.902-0.853l-0.083-0.164L23.343,7.97c-0.456-0.472-0.85-0.841-1.243-1.162c-0.364-0.264-0.74-0.498-1.126-0.724
	c-0.459-0.273-0.874-0.516-1.312-0.723c-0.094-0.037-0.187-0.064-0.28-0.091l-0.05-0.015L19.234,5.282z M17.013,4.888
	c-0.48,0.045-0.963,0.093-1.444,0.144c-0.486,0.072-0.976,0.145-1.449,0.265c-0.452,0.112-0.922,0.269-1.436,0.479
	c-0.449,0.206-0.888,0.428-1.326,0.649l-0.349,0.175c-0.445,0.224-0.882,0.48-1.339,0.782c0.374,0.458,0.753,0.841,1.118,1.24
	l0.287,0.315c0.29,0.32,0.581,0.64,0.883,0.949c0.408,0.416,0.829,0.821,1.251,1.221c0.206,0.197,0.421,0.385,0.636,0.572
	l0.149,0.131c0.225-0.106,0.352-0.193,0.484-0.27c0.361-0.21,0.659-0.339,0.94-0.407c0.249-0.061,0.5-0.094,0.752-0.127
	c0.167-0.022,0.252-0.026,0.337-0.026c0.124-0.214,0.153-0.392,0.178-0.567c0.034-0.247,0.077-0.489,0.123-0.731
	c0.087-0.492,0.167-0.982,0.247-1.474l0.025-0.15c0.063-0.394,0.144-0.784,0.224-1.174l0.082-0.403
	c0.1-0.493,0.205-0.985,0.318-1.474l-0.201-0.085l-0.332-0.053C17.171,4.866,17.065,4.883,17.013,4.888z M26.343,24.082
	L26.343,24.082L26.343,24.082z"/>
</svg>