<?xml version="1.0" encoding="utf-8"?>
<!-- Generator: Adobe Illustrator 21.1.0, SVG Export Plug-In . SVG Version: 6.00 Build 0)  -->
<svg version="1.1" id="designs" xmlns="http://www.w3.org/2000/svg" xmlns:xlink="http://www.w3.org/1999/xlink" x="0px" y="0px"
	 width="32px" height="32px" viewBox="0 0 32 32" style="enable-background:new 0 0 32 32;" xml:space="preserve">
<style type="text/css">
	.sketchy_een{fill:#111918;}
</style>
<path class="sketchy_een" d="M11.021,6.903c-0.008,0.061-0.014,0.122-0.022,0.183c-0.002,0.013-0.005,0.026-0.007,0.039
	C11.002,7.052,11.012,6.977,11.021,6.903z M29.86,7.698c0.011,0.107,0.001,0.217-0.016,0.336c-0.083,0.559-0.222,1.106-0.304,1.665
	c-0.028,0.25-0.048,0.506-0.107,0.75c-0.055,0.238-0.124,0.471-0.212,0.699c-0.196,0.513-0.425,1.018-0.675,1.508
	c-0.503,0.993-1.134,1.988-1.946,2.758c-0.656,0.623-1.424,1.151-2.299,1.413c-0.478,0.145-0.989,0.242-1.491,0.234
	c-0.454-0.01-0.913-0.093-1.35-0.219c-0.41-0.116-0.787-0.303-1.14-0.539c-0.353-0.238-0.66-0.534-0.972-0.82
	c-0.035-0.033-0.07-0.065-0.106-0.098c0.011,0.068,0.029,0.134,0.039,0.202c0.128,0.795,0.175,1.594,0.118,2.396
	c-0.065,0.898-0.301,1.761-0.656,2.585c-0.318,0.742-0.785,1.393-1.252,2.044c-0.303,0.421-0.629,0.812-0.993,1.18
	c-0.276,0.282-0.559,0.568-0.865,0.816c-0.351,0.282-0.707,0.574-1.106,0.781c-0.425,0.221-0.85,0.431-1.292,0.614
	c-0.36,0.149-0.747,0.267-1.125,0.358c-0.035,0.009-0.07,0.013-0.106,0.022c0,0.008,0.005,0.014,0.005,0.022
	c0.008,0.312,0.023,0.621,0.048,0.93c0.753,0.061,1.515,0.068,2.268,0.059c0.435-0.006,0.799,0.368,0.799,0.799
	c0,0.212-0.086,0.416-0.234,0.564c-0.16,0.16-0.345,0.214-0.564,0.234c-0.158,0.015-0.318,0.002-0.477,0
	c-0.223-0.004-0.446-0.004-0.669-0.004c-0.53-0.004-1.06-0.019-1.59-0.019c-0.074,0-0.149,0-0.225-0.008
	c-0.227-0.025-0.29-0.036-0.499-0.137c-0.12-0.057-0.269-0.221-0.336-0.335c-0.137-0.233-0.16-0.49-0.179-0.753
	c-0.029-0.39-0.066-0.779-0.087-1.169c-0.223-0.007-0.445-0.006-0.666-0.028c-0.448-0.042-0.9-0.097-1.327-0.24
	c-0.791-0.267-1.599-0.582-2.278-1.075c-0.208-0.153-0.427-0.299-0.614-0.477c-0.177-0.168-0.33-0.37-0.471-0.566
	c-0.231-0.324-0.438-0.644-0.612-1.003c-0.074-0.155-0.101-0.312-0.091-0.475c-0.336-0.175-0.662-0.354-0.985-0.552
	c-0.372-0.229-0.692-0.524-0.982-0.85c-0.297-0.335-0.329-0.827-0.01-1.161c0.002-0.005,0-0.01,0.001-0.015
	c0.255-0.738,0.496-1.487,0.843-2.19c0.164-0.332,0.351-0.641,0.564-0.944c0.246-0.351,0.507-0.7,0.787-1.026
	c0.513-0.587,1.104-1.094,1.758-1.523c0.334-0.219,0.677-0.414,1.041-0.578c0.331-0.15,0.672-0.275,1.009-0.41
	c0.584-0.262,1.148-0.598,1.673-0.966c0.04-0.036,0.078-0.073,0.114-0.113c0.053-0.082,0.099-0.168,0.142-0.256
	c0.177-0.473,0.28-0.974,0.358-1.473c0.087-0.548,0.174-1.098,0.252-1.648c0.083-0.639,0.148-1.278,0.229-1.916
	c0.043-0.318,0.092-0.632,0.165-0.945c0.076-0.326,0.189-0.633,0.32-0.94c0.193-0.45,0.427-0.867,0.724-1.256
	c0.212-0.276,0.433-0.519,0.707-0.734c0.355-0.275,0.721-0.519,1.163-0.633c0.262-0.067,0.542-0.102,0.818-0.102
	c0.115,0,0.23,0.006,0.342,0.018c0.442,0.048,0.869,0.13,1.285,0.284c0.414,0.155,0.856,0.286,1.224,0.53
	c0.36,0.238,0.684,0.509,0.97,0.833c0.282,0.32,0.549,0.654,0.776,1.016c0.204,0.326,0.41,0.648,0.601,0.982
	c0.032,0.056,0.041,0.117,0.059,0.176c0.803,0,1.608,0.046,2.411,0.065C23.41,6.4,24.254,6.396,25.099,6.41
	c0.732,0.011,1.466,0.013,2.198,0.013c0.139,0.002,0.282,0,0.423,0c0.221-0.002,0.444-0.006,0.667,0
	c0.093,0.004,0.189,0.004,0.284,0.004c0.168,0,0.336-0.002,0.501,0.013c0.227,0.023,0.417,0.076,0.585,0.242
	C29.912,6.837,30,7.048,30,7.268C30,7.423,29.942,7.568,29.86,7.698z M10.758,9.097c0.001-0.007,0.002-0.015,0.003-0.022
	c-0.001,0.004-0.001,0.009-0.002,0.013C10.759,9.091,10.758,9.094,10.758,9.097z M27.892,9.42c0.074-0.452,0.166-0.899,0.246-1.349
	c-1.201-0.04-2.402-0.083-3.605-0.102c-1.735-0.027-3.468-0.036-5.202-0.002c-0.45,0.01-0.825-0.381-0.825-0.823
	c0-0.088,0.025-0.168,0.051-0.247c-0.227-0.408-0.448-0.829-0.72-1.208c-0.245-0.306-0.504-0.596-0.804-0.849
	c-0.147-0.105-0.3-0.193-0.463-0.274c-0.44-0.175-0.891-0.317-1.36-0.394c-0.192-0.018-0.386-0.023-0.578-0.01
	c-0.091,0.02-0.181,0.047-0.268,0.079c-0.12,0.058-0.234,0.125-0.345,0.201c-0.181,0.149-0.341,0.309-0.491,0.49
	c-0.221,0.306-0.402,0.632-0.559,0.976c-0.136,0.357-0.226,0.719-0.29,1.097c-0.031,0.247-0.057,0.495-0.083,0.742
	c-0.088,0.848-0.172,1.693-0.294,2.535c-0.109,0.736-0.227,1.487-0.494,2.185c-0.158,0.414-0.36,0.858-0.715,1.142
	c-0.334,0.267-0.703,0.469-1.075,0.679c-0.379,0.212-0.764,0.417-1.169,0.581c-0.309,0.124-0.626,0.229-0.938,0.347
	c-0.536,0.246-1.031,0.552-1.507,0.903c-0.417,0.338-0.778,0.718-1.114,1.137c-0.374,0.506-0.697,1.032-0.955,1.606
	c-0.112,0.284-0.223,0.569-0.301,0.864c-0.072,0.271-0.14,0.543-0.227,0.809c0.042,0.042,0.079,0.089,0.123,0.129
	c0.205,0.144,0.43,0.27,0.647,0.387c0.209,0.111,0.422,0.22,0.638,0.317c0.542,0.209,1.099,0.386,1.673,0.48
	c0.405,0.043,0.811,0.071,1.219,0.084c0.342,0.01,0.683-0.011,1.024-0.049c0.312-0.05,0.62-0.125,0.924-0.208
	c0.335-0.09,0.662-0.185,0.984-0.31c0.4-0.174,0.797-0.367,1.153-0.618c0.379-0.303,0.74-0.636,1.047-1.013
	c0.365-0.494,0.693-1.01,0.958-1.567c0.128-0.271,0.424-0.408,0.716-0.408c0.15,0,0.299,0.036,0.423,0.108
	c0.187,0.109,0.326,0.29,0.383,0.498c0.063,0.232,0.013,0.433-0.084,0.642c-0.402,0.867-0.991,1.653-1.668,2.324
	c-0.341,0.337-0.709,0.682-1.119,0.934c-0.423,0.263-0.871,0.473-1.336,0.652c-0.395,0.152-0.804,0.255-1.21,0.366
	c-0.433,0.116-0.871,0.198-1.317,0.238c-0.406,0.034-0.808,0.034-1.214,0.023c-0.458-0.015-0.919-0.044-1.369-0.116
	c-0.007-0.001-0.013-0.004-0.019-0.005c0.068,0.07,0.13,0.146,0.206,0.209c0.219,0.162,0.44,0.333,0.679,0.462
	c0.229,0.122,0.463,0.237,0.702,0.345c0.451,0.183,0.91,0.342,1.389,0.424c0.523,0.062,1.049,0.091,1.574,0.043
	c0.577-0.094,1.145-0.253,1.689-0.463c0.302-0.138,0.602-0.288,0.893-0.448c0.292-0.163,0.561-0.348,0.826-0.547
	c0.541-0.437,1.031-0.952,1.468-1.491c0.509-0.674,0.987-1.377,1.337-2.148c0.216-0.551,0.38-1.119,0.476-1.703
	c0.08-0.728,0.048-1.464-0.034-2.187c-0.056-0.352-0.131-0.698-0.203-1.047c-0.074-0.354-0.118-0.713-0.191-1.068
	c-0.067-0.321,0.031-0.641,0.255-0.849c0-0.001,0-0.003,0-0.004c0.055-0.202,0.191-0.375,0.37-0.482
	c0.292-0.17,0.749-0.149,0.976,0.128c0.112,0.133,0.255,0.238,0.374,0.368c0.115,0.122,0.216,0.259,0.316,0.394
	c0.203,0.249,0.446,0.471,0.69,0.68c0.304,0.258,0.591,0.535,0.897,0.792c0.203,0.145,0.412,0.281,0.636,0.39
	c0.25,0.092,0.51,0.157,0.773,0.205c0.254,0.023,0.505,0.024,0.759,0.002c0.329-0.062,0.643-0.149,0.955-0.268
	c0.302-0.144,0.575-0.317,0.844-0.515c0.365-0.305,0.688-0.64,0.987-1.009c0.314-0.428,0.584-0.891,0.831-1.361
	c0.22-0.417,0.409-0.844,0.595-1.277c0.096-0.233,0.189-0.467,0.259-0.71C27.794,10,27.844,9.714,27.892,9.42z M15.426,6.497
	c-0.452,0-0.829,0.378-0.829,0.829s0.377,0.829,0.829,0.829s0.829-0.377,0.829-0.829S15.878,6.497,15.426,6.497z"/>
</svg>