<?xml version="1.0" encoding="utf-8"?>
<!-- Generator: Adobe Illustrator 21.1.0, SVG Export Plug-In . SVG Version: 6.00 Build 0)  -->
<svg version="1.1" id="designs" xmlns="http://www.w3.org/2000/svg" xmlns:xlink="http://www.w3.org/1999/xlink" x="0px" y="0px"
	 width="32px" height="32px" viewBox="0 0 32 32" style="enable-background:new 0 0 32 32;" xml:space="preserve">
<style type="text/css">
	.sketchy_een{fill:#111918;}
</style>
<path class="sketchy_een" d="M29.903,11.459c-0.058-0.373-0.135-0.737-0.25-1.097c-0.137-0.427-0.258-0.854-0.433-1.266
	c-0.142-0.329-0.329-0.641-0.533-0.933c-0.225-0.319-0.473-0.62-0.722-0.918c-0.187-0.223-0.391-0.441-0.612-0.629
	c-0.292-0.25-0.593-0.5-0.91-0.718c-0.292-0.2-0.594-0.364-0.916-0.51c-0.646-0.296-1.322-0.452-2.014-0.596
	C23.207,4.728,22.9,4.66,22.601,4.566c-0.227-0.071-0.448-0.162-0.668-0.25c-0.198-0.093-0.382-0.213-0.563-0.336
	C21.347,3.961,21.323,3.94,21.3,3.922c-0.298-0.229-0.631-0.416-0.962-0.595C19.639,2.956,18.885,2.7,18.123,2.5
	c-0.452-0.119-0.933-0.189-1.397-0.242c-0.386-0.047-0.779-0.084-1.169-0.084c-0.043,0-0.087,0-0.13,0.001
	c-0.475,0.01-0.943,0.062-1.412,0.137c-0.206,0.033-0.412,0.063-0.612,0.117c-0.212,0.058-0.421,0.127-0.631,0.194
	c-0.419,0.135-0.829,0.306-1.239,0.471c-0.446,0.181-0.885,0.373-1.322,0.575C9.806,3.856,9.425,4.095,9.05,4.336
	C8.673,4.576,8.307,4.828,7.944,5.09C7.184,5.64,6.47,6.271,5.793,6.921c-0.316,0.3-0.589,0.635-0.864,0.972
	c-0.3,0.367-0.604,0.741-0.868,1.135c-0.241,0.36-0.444,0.737-0.639,1.124c-0.204,0.409-0.365,0.833-0.53,1.259
	c-0.188,0.427-0.389,0.85-0.528,1.296c-0.065,0.214-0.096,0.444-0.142,0.662c-0.056,0.269-0.102,0.541-0.131,0.814
	c-0.056,0.546-0.133,1.118-0.064,1.666c0.038,0.294,0.083,0.581,0.164,0.866c0.075,0.269,0.206,0.519,0.367,0.745
	c0.082,0.114,0.174,0.222,0.264,0.332c0.214,0.287,0.413,0.586,0.61,0.885c0.148,0.229,0.294,0.454,0.464,0.67
	c0.16,0.204,0.354,0.377,0.55,0.544c0.691,0.587,1.522,1.002,2.338,1.383c0.85,0.396,1.743,0.696,2.653,0.912
	c0.879,0.206,1.768,0.302,2.669,0.356c0.65,0.04,1.297,0.017,1.945-0.05c0.14-0.015,0.278-0.038,0.417-0.055
	c0.263,0.562,0.664,1.042,1.098,1.488c-0.46,0.607-0.91,1.223-1.36,1.836c-0.244,0.331-0.471,0.67-0.687,1.018
	c-0.183,0.294-0.356,0.593-0.494,0.912c-0.2,0.462-0.473,1.068-0.189,1.555c0.139,0.239,0.348,0.346,0.594,0.444
	c0.096,0.04,0.266,0.046,0.354,0.056c0.037,0.004,0.073,0.01,0.11,0.014c0.198,0.023,0.396,0.031,0.594,0.038
	c0.362,0.013,0.723,0.027,1.085,0.029c0.214,0,0.418-0.004,0.627-0.046c0.348-0.073,0.55-0.389,0.706-0.679
	c0.318-0.589,0.687-1.15,1.087-1.689c0.354-0.433,0.731-0.845,1.114-1.251c0.04-0.042,0.063-0.093,0.091-0.142
	c0.177,0.021,0.355,0.041,0.533,0.042c0.394,0.004,0.789-0.031,1.181-0.083c0.417-0.056,0.823-0.144,1.229-0.252
	c0.439-0.117,0.854-0.331,1.249-0.552c0.739-0.416,1.428-0.895,2.095-1.416c0.296-0.233,0.593-0.473,0.833-0.766
	c0.294-0.358,0.56-0.729,0.802-1.124c0.412-0.666,0.8-1.353,1.154-2.049c0.177-0.35,0.337-0.71,0.491-1.07
	c0.171-0.394,0.342-0.791,0.466-1.204c0.227-0.768,0.412-1.549,0.539-2.338c0.073-0.45,0.108-0.904,0.146-1.358
	c0.031-0.368,0.062-0.735,0.079-1.102C30.016,12.317,29.966,11.885,29.903,11.459z M14.322,3.882c0.06-0.008,0.12-0.016,0.18-0.024
	c-0.062,0.008-0.124,0.017-0.186,0.025C14.318,3.883,14.32,3.883,14.322,3.882z M6.135,8.972C6.14,8.965,6.145,8.959,6.15,8.952
	C6.126,8.983,6.103,9.014,6.079,9.043C6.098,9.019,6.116,8.996,6.135,8.972z M16.627,26.866c-0.198,0.279-0.391,0.564-0.581,0.85
	c-0.132,0.198-0.253,0.404-0.383,0.605c-0.206,0.002-0.412-0.015-0.616-0.029c-0.178-0.012-0.357-0.024-0.535-0.038
	c0.286-0.625,0.662-1.198,1.074-1.746c0.382-0.482,0.77-0.961,1.154-1.442c0.026,0.022,0.05,0.047,0.077,0.068
	c0.256,0.203,0.54,0.367,0.838,0.502C17.292,26.028,16.938,26.428,16.627,26.866z M18.567,23.049
	c-0.348,0.085-0.698,0.156-1.05,0.227c-0.068,0.014-0.122,0.053-0.181,0.086c-0.109-0.108-0.221-0.211-0.331-0.319
	c-0.302-0.297-0.6-0.593-0.869-0.92c-0.001-0.001-0.002-0.003-0.003-0.004c0.633-0.182,1.257-0.439,1.858-0.702
	c0.623-0.273,1.227-0.593,1.785-0.983c0.036-0.025,0.061-0.057,0.093-0.084c0.001-0.001,0.003-0.002,0.004-0.003
	c0.198,0.145,0.402,0.282,0.611,0.411c0.225,0.135,0.444,0.281,0.671,0.412c0.129,0.074,0.265,0.141,0.397,0.212
	c-0.101,0.093-0.19,0.198-0.295,0.285c-0.617,0.45-1.285,0.822-1.98,1.138C19.046,22.899,18.811,22.989,18.567,23.049z
	 M24.795,22.391c-0.211,0.189-0.437,0.36-0.662,0.532c-0.617,0.456-1.264,0.884-1.964,1.2c-0.419,0.148-0.849,0.246-1.288,0.317
	c-0.491,0.05-0.979,0.069-1.471,0.028c-0.002,0-0.005-0.001-0.007-0.002c0.031-0.012,0.064-0.019,0.096-0.032
	c0.525-0.217,1.025-0.481,1.514-0.77c0.489-0.29,0.962-0.594,1.404-0.952c0.192-0.156,0.368-0.337,0.545-0.512
	c0.056-0.054,0.108-0.112,0.164-0.167c0.471,0.133,0.96,0.229,1.441,0.273c0.097,0.009,0.195,0.011,0.293,0.017
	C24.836,22.346,24.818,22.37,24.795,22.391z M28.494,13.493c-0.027,0.453-0.064,0.904-0.119,1.353
	c-0.144,0.963-0.363,1.925-0.719,2.832c-0.04,0.091-0.085,0.179-0.127,0.27c-0.378-0.115-0.75-0.253-1.12-0.39
	c-0.083-0.037-0.165-0.074-0.246-0.114c-0.139-0.07-0.279-0.111-0.426-0.111c-0.068,0-0.138,0.009-0.209,0.029
	c-0.204,0.056-0.383,0.192-0.491,0.377c-0.212,0.364-0.11,0.931,0.294,1.125c0.473,0.227,0.974,0.379,1.473,0.538
	c-0.072,0.133-0.139,0.269-0.214,0.401c-0.202,0.353-0.403,0.706-0.611,1.055c-0.003,0.001-0.006,0.002-0.009,0.003
	c-0.191,0.009-0.385-0.005-0.575-0.016c-0.188-0.009-0.375-0.031-0.562-0.055c-0.632-0.1-1.265-0.254-1.86-0.487
	c0.064,0.027,0.127,0.054,0.191,0.081c-0.076-0.031-0.151-0.063-0.226-0.095c-0.778-0.338-1.546-0.739-2.238-1.227
	c-0.192-0.155-0.375-0.316-0.537-0.504c-0.079-0.118-0.149-0.241-0.217-0.366c0.099-0.137,0.189-0.282,0.278-0.418
	c0.191-0.291,0.329-0.593,0.464-0.912c0.112-0.269,0.167-0.562,0.235-0.845c0.102-0.433-0.129-0.881-0.569-1.002
	c-0.067-0.018-0.136-0.027-0.205-0.027c-0.357,0-0.716,0.234-0.797,0.597c-0.075,0.337-0.149,0.667-0.269,0.988
	c-0.13,0.277-0.285,0.542-0.453,0.798c-0.01,0.011-0.022,0.021-0.032,0.031c-0.002,0.001-0.004,0-0.005,0.001
	c-0.391,0.229-0.487,0.708-0.287,1.095c0.109,0.213,0.226,0.42,0.353,0.621c-0.467,0.317-0.955,0.596-1.471,0.826
	c-0.262,0.106-0.53,0.201-0.797,0.297c-0.085-0.09-0.185-0.164-0.312-0.192c-0.215-0.046-0.427-0.104-0.641-0.158
	c-0.213-0.055-0.428-0.099-0.635-0.17c-0.178-0.089-0.341-0.2-0.503-0.317c-0.274-0.222-0.533-0.464-0.767-0.731
	c-0.095-0.132-0.188-0.268-0.284-0.401c-0.146-0.2-0.282-0.397-0.391-0.619c-0.082-0.227-0.143-0.461-0.187-0.699
	c-0.015-0.209-0.004-0.413,0.016-0.619c0.052-0.291,0.123-0.57,0.226-0.846c0.107-0.23,0.227-0.453,0.348-0.677
	c0.21-0.394,0.102-0.891-0.294-1.122c-0.125-0.073-0.269-0.108-0.413-0.108c-0.286,0-0.574,0.139-0.71,0.403
	c-0.264,0.508-0.504,1.022-0.631,1.583c-0.046,0.212-0.075,0.441-0.094,0.658c-0.017,0.198-0.021,0.392-0.015,0.586
	c-0.94,0.093-1.878,0.203-2.804,0.394c-0.439,0.089-0.687,0.602-0.575,1.012c0.058,0.206,0.194,0.383,0.379,0.491
	c0.202,0.119,0.41,0.127,0.633,0.085c0.177-0.035,0.356-0.069,0.533-0.092c-0.073,0.01-0.146,0.019-0.219,0.029
	c0.189-0.025,0.377-0.05,0.567-0.076c-0.03,0.004-0.06,0.009-0.09,0.012c0.669-0.063,1.34-0.117,2.01-0.172
	c0.018,0.035,0.027,0.075,0.047,0.109c0.144,0.264,0.339,0.5,0.512,0.745c0.381,0.533,0.858,1.018,1.406,1.383
	c0.021,0.014,0.044,0.024,0.065,0.037c-0.202,0.013-0.402,0.043-0.605,0.048c-0.596,0.015-1.199-0.038-1.792-0.099
	c-1.078-0.163-2.14-0.46-3.149-0.871c-0.416-0.191-0.825-0.395-1.233-0.6c-0.402-0.205-0.771-0.456-1.133-0.721
	c-0.107-0.087-0.202-0.185-0.301-0.28c0.038-0.183,0.073-0.365,0.138-0.543c0.112-0.242,0.241-0.471,0.394-0.692
	c0.154-0.181,0.322-0.345,0.505-0.497c0.315-0.224,0.648-0.406,0.997-0.568c0.335-0.13,0.668-0.252,1.022-0.327
	c0.021-0.002,0.042-0.004,0.063-0.006c0.416-0.027,0.764-0.325,0.764-0.762c0-0.426-0.361-0.764-0.767-0.764
	c-0.066,0-0.132,0.009-0.199,0.028c-0.246,0.069-0.487,0.162-0.727,0.25c-0.358,0.129-0.714,0.267-1.064,0.419
	C5.816,15.071,5.196,15.5,4.729,16.05c-0.197,0.233-0.357,0.491-0.501,0.759C4.142,16.7,4.06,16.588,3.971,16.482
	c-0.053-0.076-0.101-0.153-0.145-0.234c-0.071-0.205-0.119-0.413-0.157-0.626c-0.041-0.5,0.001-1.021,0.063-1.519
	c0.042-0.222,0.088-0.443,0.136-0.665c0.052-0.239,0.133-0.465,0.22-0.691c0.174-0.401,0.347-0.802,0.516-1.206
	c0.205-0.467,0.438-0.921,0.695-1.361c0.267-0.456,0.594-0.878,0.909-1.301c0.04-0.051,0.08-0.102,0.119-0.154
	c0.162-0.2,0.322-0.403,0.505-0.585c0.061-0.061,0.125-0.12,0.187-0.18c0.147,0.125,0.299,0.245,0.438,0.378
	C7.716,8.585,7.964,8.84,8.201,9.11c0.287,0.325,0.831,0.29,1.124,0c0.148-0.148,0.233-0.352,0.233-0.562
	c0-0.225-0.092-0.394-0.233-0.562c-0.229-0.275-0.468-0.543-0.718-0.8C8.493,7.07,8.364,6.967,8.242,6.858
	C8.406,6.72,8.563,6.572,8.73,6.438c0.431-0.32,0.869-0.636,1.328-0.914c0.496-0.299,1.009-0.548,1.539-0.782
	c0.418-0.171,0.838-0.338,1.259-0.499c0.471-0.18,0.949-0.286,1.446-0.357c0.241-0.032,0.485-0.041,0.728-0.054
	c0.04,1.177,0.155,2.351,0.026,3.526c-0.033,0.179-0.07,0.351-0.134,0.521c0.02-0.048,0.041-0.096,0.061-0.144
	c-0.002,0.006-0.005,0.013-0.007,0.019c-0.09,0.21-0.146,0.392-0.083,0.621c0.056,0.202,0.19,0.377,0.371,0.483
	c0.187,0.108,0.414,0.139,0.621,0.081c0.256-0.071,0.512-0.294,0.564-0.564c0.077-0.404,0.117-0.821,0.154-1.231
	c0.04-0.429,0.073-0.858,0.085-1.289c0.019-0.64,0.014-1.279,0.013-1.918c0.754,0.139,1.501,0.339,2.208,0.629
	c0.474,0.211,0.934,0.455,1.355,0.76c0.064,0.054,0.124,0.112,0.185,0.17c0.017,0.058,0.026,0.118,0.058,0.172
	C20.688,5.972,20.859,6.286,21,6.61c0.078,0.189,0.152,0.379,0.212,0.574c0.085,0.282,0.134,0.576,0.179,0.867
	c0.038,0.351,0.057,0.708,0.028,1.059c-0.038,0.196-0.085,0.386-0.152,0.573c-0.121,0.25-0.266,0.482-0.424,0.71
	c-0.126,0.146-0.261,0.279-0.407,0.403c-0.307,0.211-0.631,0.378-0.969,0.532c-0.171,0.066-0.347,0.117-0.521,0.173
	c0.022-0.044,0.045-0.088,0.067-0.132c0.544-1.099,0.86-2.374,0.72-3.6c-0.029-0.242-0.079-0.441-0.256-0.62
	c-0.164-0.164-0.389-0.256-0.62-0.256c-0.231,0-0.456,0.092-0.62,0.256c-0.146,0.146-0.283,0.402-0.256,0.62
	c0.058,0.464,0.052,0.924,0,1.386c-0.087,0.529-0.222,1.037-0.41,1.539c-0.126,0.287-0.258,0.568-0.438,0.824
	c-0.007,0.009-0.014,0.019-0.022,0.028c-0.077,0.096-0.138,0.192-0.181,0.294c-0.205-0.003-0.41-0.012-0.616-0.034
	c-0.254-0.042-0.499-0.093-0.742-0.178c-0.224-0.106-0.438-0.228-0.649-0.363c-0.246-0.156-0.491-0.31-0.726-0.481
	c-0.133-0.108-0.263-0.219-0.392-0.335c-0.148-0.133-0.328-0.203-0.512-0.232c-0.065-0.289-0.12-0.58-0.168-0.872
	c-0.088-0.785-0.098-1.578-0.264-2.353c-0.089-0.411-0.5-0.675-0.904-0.675c-0.078,0-0.156,0.01-0.231,0.03
	c-0.5,0.139-0.756,0.646-0.644,1.135c0.064,0.278,0.112,0.554,0.155,0.835c0.076,0.595,0.174,1.188,0.282,1.779
	c-0.821,0.034-1.64,0.151-2.42,0.415c-0.439,0.146-0.854,0.354-1.237,0.614c-0.198,0.133-0.394,0.266-0.594,0.396
	c-0.344,0.225-0.487,0.666-0.271,1.035c0.196,0.337,0.696,0.506,1.035,0.273c0.355-0.246,0.704-0.493,1.095-0.675
	c0.465-0.174,0.952-0.278,1.443-0.356c0.627-0.073,1.257-0.083,1.887-0.056c0.034,0.001,0.064-0.015,0.098-0.018
	c0.05,0.049,0.104,0.095,0.165,0.134c0.341,0.223,0.677,0.454,1.029,0.658c0.177,0.104,0.354,0.208,0.533,0.308
	c0.239,0.135,0.491,0.237,0.745,0.337c0.303,0.117,0.629,0.164,0.949,0.201c-0.009,0.186-0.009,0.372-0.03,0.559
	c-0.067,0.389-0.206,0.765-0.353,1.134c-0.089,0.194-0.195,0.374-0.321,0.548c-0.113,0.141-0.231,0.283-0.367,0.403
	c-0.323,0.283-0.287,0.827,0,1.114c0.306,0.306,0.81,0.302,1.116,0c0.167-0.164,0.304-0.371,0.446-0.556
	c0.167-0.219,0.314-0.446,0.441-0.691c0.158-0.302,0.273-0.631,0.402-0.947c0.125-0.306,0.194-0.621,0.246-0.947
	c0.033-0.21,0.053-0.421,0.066-0.633c0.1-0.016,0.203-0.026,0.3-0.047c0.835-0.179,1.653-0.406,2.436-0.752
	c0.314-0.138,0.608-0.298,0.886-0.493c0.366,0.422,0.725,0.85,1.07,1.29c0.079,0.113,0.148,0.228,0.209,0.351
	c0.118,0.308,0.202,0.63,0.27,0.954c-0.114,0.548-0.212,1.1-0.322,1.65c-0.044,0.215-0.033,0.419,0.079,0.612
	c0.104,0.177,0.277,0.31,0.475,0.366c0.391,0.108,0.897-0.129,0.977-0.554c0.066-0.352,0.108-0.708,0.157-1.062
	c0.09-0.059,0.174-0.124,0.236-0.211c0.179-0.012,0.359-0.035,0.531-0.06c0.287-0.04,0.564-0.106,0.843-0.175
	c0.348-0.087,0.691-0.198,1.039-0.292c0.417-0.115,0.67-0.562,0.554-0.979c-0.095-0.345-0.423-0.585-0.771-0.585
	c-0.069,0-0.138,0.009-0.206,0.029c-0.509,0.147-1.021,0.285-1.543,0.373c-0.196,0.023-0.391,0.016-0.586,0.014
	c-0.002-0.007-0.004-0.014-0.006-0.02c-0.146-0.441-0.321-0.875-0.595-1.252c-0.404-0.556-0.823-1.103-1.266-1.629
	c0.302-0.434,0.511-0.959,0.582-1.485c0.044-0.316,0.058-0.616,0.033-0.933c-0.023-0.308-0.062-0.616-0.117-0.92
	c-0.042-0.237-0.085-0.475-0.152-0.706c-0.067-0.227-0.173-0.443-0.267-0.662c-0.007-0.016-0.014-0.032-0.021-0.049
	c0.35,0.104,0.711,0.173,1.066,0.257c0.344,0.082,0.685,0.194,1.015,0.323c0.197,0.087,0.392,0.177,0.581,0.281
	c0.157,0.086,0.3,0.191,0.446,0.291c-0.002,0.021-0.013,0.039-0.013,0.061c-0.007,0.386-0.013,0.769-0.053,1.153
	c-0.066,0.438-0.16,0.873-0.312,1.288c-0.071,0.155-0.151,0.304-0.246,0.445c-0.026,0.03-0.052,0.059-0.078,0.087
	c-0.292,0.317-0.316,0.806,0,1.122c0.287,0.287,0.841,0.329,1.12,0c0.292-0.342,0.506-0.706,0.681-1.12
	c0.19-0.448,0.321-0.91,0.41-1.387c0.011-0.059,0.013-0.118,0.023-0.177c0.022,0.028,0.046,0.054,0.068,0.082
	c0.265,0.354,0.516,0.714,0.704,1.114c0.134,0.354,0.269,0.711,0.383,1.072c0.109,0.352,0.18,0.711,0.242,1.075
	C28.531,12.555,28.521,13.02,28.494,13.493z"/>
</svg>