<?xml version="1.0" encoding="utf-8"?>
<!-- Generator: Adobe Illustrator 21.1.0, SVG Export Plug-In . SVG Version: 6.00 Build 0)  -->
<svg version="1.1" id="designs" xmlns="http://www.w3.org/2000/svg" xmlns:xlink="http://www.w3.org/1999/xlink" x="0px" y="0px"
	 width="32px" height="32px" viewBox="0 0 32 32" style="enable-background:new 0 0 32 32;" xml:space="preserve">
<style type="text/css">
	.sketchy_een{fill:#111918;}
</style>
<path class="sketchy_een" d="M29.807,15.81c-0.008-1.558,0.033-3.113,0.089-4.669c0.009-0.277-0.155-0.513-0.38-0.654
	c-0.011-0.012-0.015-0.029-0.027-0.041c-0.167-0.167-0.364-0.226-0.593-0.245c-0.212-0.016-0.426-0.01-0.64-0.004
	c-0.121,0.004-0.243,0.008-0.362,0.006c-0.2-0.002-0.399,0-0.597,0.002c-0.171,0.002-0.342,0.004-0.511,0.002
	c-0.797-0.002-1.593-0.006-2.388-0.014c-0.819-0.01-1.637-0.014-2.456-0.027c-0.785-0.013-1.566-0.055-2.35-0.055
	c-0.034,0-0.068,0-0.102,0c-0.461,0.002-0.921,0.001-1.382,0.002c0.065-0.125,0.131-0.249,0.194-0.375
	c0.239-0.476,0.445-0.965,0.651-1.457c-0.025,0.06-0.051,0.121-0.076,0.181c0.165-0.394,0.334-0.786,0.5-1.18
	c0.076-0.179,0.15-0.358,0.225-0.538c0.253-0.586,0.513-1.168,0.79-1.745c0.29-0.605,0.607-1.198,0.887-1.81
	c0.091-0.2,0.14-0.389,0.08-0.609c-0.054-0.198-0.187-0.369-0.364-0.473C20.874,2.037,20.735,2,20.596,2
	c-0.07,0-0.14,0.009-0.209,0.028c-0.179,0.049-0.395,0.187-0.473,0.364c-0.595,1.351-1.213,2.693-1.799,4.051
	c-0.284,0.659-0.578,1.315-0.869,1.97c-0.136,0.305-0.272,0.611-0.426,0.906c-0.016,0.031-0.036,0.06-0.053,0.091
	c-0.139-0.238-0.284-0.471-0.421-0.711c-0.389-0.685-0.817-1.35-1.231-2.022c-0.406-0.663-0.799-1.336-1.198-2.007
	c-0.418-0.7-0.766-1.437-1.118-2.172c-0.121-0.251-0.396-0.378-0.667-0.378c-0.138,0-0.276,0.033-0.391,0.1
	c-0.173,0.101-0.301,0.27-0.356,0.463c-0.058,0.212-0.016,0.404,0.078,0.595c0.362,0.731,0.743,1.449,1.18,2.137
	c0.416,0.659,0.815,1.328,1.225,1.991c0.416,0.671,0.825,1.346,1.217,2.03c0.132,0.229,0.263,0.458,0.395,0.686
	c-0.297,0.002-0.594-0.001-0.89,0.003c-1.645,0.023-3.288,0.095-4.933,0.109c-0.432,0.004-0.863,0.004-1.295,0.004
	c-0.585-0.002-1.171-0.002-1.756,0.008c-1.112,0.019-2.227,0.043-3.339,0.049c-0.447,0.002-0.821,0.371-0.821,0.821
	c0,0.048,0.02,0.091,0.028,0.138c-0.093,0.131-0.16,0.282-0.16,0.452c-0.002,0.838,0.008,1.676,0.019,2.516
	c0.01,0.797-0.01,1.593-0.017,2.39c-0.008,0.791,0,1.583,0.002,2.374c0.002,0.78-0.016,1.56-0.019,2.339
	c-0.002,0.706,0.002,1.416-0.018,2.122c-0.019,0.688-0.064,1.375-0.082,2.061c-0.018,0.63-0.054,1.26-0.056,1.892
	c-0.002,0.319,0.002,0.638-0.004,0.959c-0.004,0.159-0.006,0.321-0.012,0.48c-0.001,0.03,0.004,0.057,0.004,0.086
	c-0.01,0.049-0.03,0.094-0.03,0.145c0,0.077,0.023,0.148,0.045,0.219c0.004,0.047-0.001,0.093,0.006,0.143
	c0.025,0.187,0.2,0.373,0.356,0.463c0.179,0.105,0.397,0.134,0.597,0.078c0.1-0.027,0.192-0.077,0.273-0.141
	c0.648-0.015,1.295-0.044,1.943-0.058c0.786-0.016,1.571-0.019,2.359-0.019c0.793,0,1.589,0.037,2.382,0.052
	c0.758,0.014,1.515,0.023,2.273,0.041c0.76,0.019,1.521,0.037,2.281,0.047c0.753,0.01,1.507,0.008,2.26,0.008
	c0.789-0.002,1.581,0.01,2.372,0.016c0.753,0.006,1.507,0.041,2.262,0.019c0.301-0.01,0.603-0.035,0.904-0.051
	c0.286-0.016,0.572-0.014,0.856-0.016c0.603-0.004,1.208-0.004,1.81-0.002c0.58,0,1.157,0.041,1.737,0.043
	c0.585,0.004,1.173,0.025,1.758,0.008c0.139-0.004,0.265-0.049,0.381-0.111c0.015,0.001,0.029,0.009,0.045,0.009
	c0.416,0,0.737-0.34,0.749-0.749c0.017-0.671-0.008-1.344-0.006-2.015c0.004-0.741,0.019-1.482,0.041-2.223
	c0.043-1.532-0.01-3.067,0.014-4.599c0.012-0.729,0.027-1.46,0.023-2.19C29.822,17.298,29.81,16.555,29.807,15.81z M27.467,28.278
	c-0.379,0.004-0.756-0.006-1.134-0.012c-0.438-0.008-0.876-0.014-1.314-0.014c-0.319,0-0.638,0.004-0.957,0.013
	c-0.774,0.023-1.546,0.049-2.318,0.088c-0.379,0.019-0.756,0.019-1.134,0.025c-0.375,0.004-0.753,0.018-1.128,0.019
	c-1.554,0.01-3.109,0.016-4.663,0.019c-0.755,0.002-1.507-0.025-2.262-0.047c-0.764-0.021-1.529-0.016-2.293-0.025
	c-0.597-0.008-1.194-0.021-1.791-0.039c-0.601-0.018-1.2-0.012-1.799-0.012c-0.564,0-1.126,0-1.688,0.002
	c-0.441,0.001-0.88-0.001-1.32-0.001c0-0.025,0.001-0.051,0.001-0.076c0-0.354,0.006-0.706,0.008-1.06
	c0.004-0.718,0.029-1.433,0.043-2.149c0.016-0.76,0.072-1.521,0.076-2.281c0.004-0.766,0.004-1.532,0.016-2.299
	c0.018-1.445,0.021-2.89,0.031-4.334c0.011-1.396,0.055-2.79,0.076-4.186c0.695-0.02,1.389-0.043,2.083-0.085
	c0.865-0.053,1.731-0.064,2.596-0.072c0.826-0.01,1.655,0,2.483-0.023c0.823-0.025,1.645-0.047,2.468-0.06
	c1.633-0.027,3.267-0.016,4.898-0.014c0.823,0,1.645,0,2.466,0.033c0.809,0.035,1.616,0.068,2.427,0.082
	c0.972,0.016,1.943,0.056,2.917,0.07c0.459,0.006,0.92,0.006,1.379,0.01c0.119,0.002,0.239,0,0.36,0
	c0.107-0.001,0.214,0.008,0.321,0.009c-0.014,1.421,0.016,2.842,0.044,4.262c0.017,0.784,0.012,1.565,0.006,2.349
	c-0.004,0.799-0.043,1.596-0.052,2.396c-0.019,1.402,0.029,2.804-0.008,4.206c-0.018,0.7-0.016,1.4-0.018,2.1
	c0,0.305-0.004,0.611-0.004,0.918c0,0.061-0.001,0.122-0.001,0.183C28.011,28.273,27.738,28.275,27.467,28.278z M20.603,15.056
	c-0.025-0.214-0.052-0.42-0.117-0.624c-0.119-0.385-0.344-0.69-0.671-0.924c-0.294-0.212-0.642-0.313-0.998-0.371
	c-0.692-0.109-1.41-0.084-2.108-0.08c-0.352,0.004-0.704-0.002-1.056-0.004c-0.331,0-0.659,0.016-0.99,0.018
	c-0.675,0.006-1.352,0.008-2.026,0.016c-0.589,0.006-1.18-0.039-1.77-0.047c-0.041,0-0.081-0.001-0.122-0.001
	c-0.568,0-1.136,0.036-1.706,0.038c-0.661,0-1.318,0.014-1.972,0.128c-0.301,0.053-0.589,0.177-0.85,0.331
	c-0.187,0.111-0.366,0.251-0.508,0.412c-0.102,0.115-0.174,0.239-0.228,0.37c-0.145,0.137-0.239,0.328-0.239,0.539
	c-0.002,1.474-0.004,2.946-0.006,4.42c0,0.729,0.017,1.456,0.027,2.186c0.01,0.669,0.016,1.334,0.045,2.001
	c0.023,0.544,0.012,1.083,0.091,1.622c0.028,0.195,0.081,0.394,0.142,0.583c-0.002,0.024-0.014,0.045-0.014,0.069
	c0,0.233,0.095,0.406,0.239,0.58c0.113,0.135,0.236,0.261,0.365,0.379c0.021,0.02,0.032,0.047,0.055,0.066
	c0.026,0.022,0.054,0.033,0.08,0.052c0.047,0.036,0.098,0.065,0.147,0.096c0.002,0.001,0.004,0.003,0.007,0.004
	c0.168,0.106,0.348,0.19,0.557,0.22c0.389,0.054,0.772,0.051,1.165,0.049c0.718-0.006,1.435-0.054,2.153-0.072
	c0.776-0.018,1.55-0.01,2.326-0.037c0.739-0.025,1.48-0.068,2.221-0.074c0.196,0,0.393,0.002,0.589,0.006
	c0.218,0.004,0.438,0.006,0.657,0.004c0.418-0.004,0.838-0.045,1.254-0.078c0.344-0.029,0.688-0.004,1.031-0.004
	c0.243-0.002,0.48-0.016,0.72-0.062c0.278-0.052,0.521-0.202,0.737-0.377c0.146-0.119,0.282-0.253,0.383-0.414
	c0.109-0.175,0.187-0.362,0.261-0.554c0.039-0.144,0.039-0.29,0-0.434c-0.007-0.026-0.026-0.046-0.035-0.071
	c0.002-0.021,0.012-0.039,0.012-0.06c-0.027-1.387-0.012-2.777,0.002-4.165c0.008-0.756,0.012-1.515,0.035-2.271
	c0.025-0.784,0.088-1.562,0.15-2.343c0.019-0.226,0.033-0.451,0.045-0.679c0.007-0.132-0.036-0.251-0.096-0.361
	C20.589,15.111,20.606,15.083,20.603,15.056z M18.852,25.152c-0.029,0.028-0.057,0.055-0.087,0.08
	c-0.014,0.009-0.028,0.017-0.042,0.026c-0.083,0.026-0.167,0.044-0.254,0.06c-0.151,0.014-0.302,0.022-0.453,0.032
	c-0.257,0.018-0.509,0.045-0.766,0.082c0.049-0.007,0.096-0.014,0.144-0.02c-1.356,0.167-2.724,0.155-4.09,0.207
	c-0.76,0.031-1.519,0.025-2.279,0.019c-0.729-0.006-1.458,0.006-2.188,0.006c-0.478,0-0.962,0-1.438-0.047
	c-0.038-0.008-0.075-0.017-0.112-0.027l0,0c-0.132-0.126-0.245-0.268-0.362-0.408c-0.014-0.017-0.041-0.024-0.058-0.039
	c-0.044-0.151-0.095-0.301-0.121-0.456c-0.025-0.273-0.029-0.547-0.034-0.822c-0.008-0.313-0.021-0.626-0.033-0.937
	c-0.025-0.692-0.002-1.386,0.002-2.079c0.006-1.443-0.019-2.886,0.016-4.327c0.008-0.327,0.017-0.654,0.027-0.98
	c0.096-0.097,0.178-0.21,0.199-0.334c0.016-0.087,0.029-0.174,0.049-0.26c0.018-0.018,0.036-0.036,0.055-0.054
	c0.065-0.043,0.133-0.083,0.202-0.12c0.15-0.051,0.307-0.086,0.464-0.113c0.309-0.036,0.616-0.067,0.929-0.078
	c0.366-0.014,0.731-0.025,1.095-0.041c0.718-0.033,1.433-0.047,2.151-0.029c0.649,0.018,1.297,0.023,1.947,0.021
	c0.348,0,0.698,0.004,1.048,0.01c0.338,0.006,0.679,0.01,1.017,0.027c0.842,0.042,1.69,0.009,2.531,0.096
	c0.151,0.025,0.304,0.056,0.449,0.102c0.03,0.016,0.06,0.034,0.089,0.052c0.008,0.007,0.015,0.014,0.022,0.022
	c0.007,0.011,0.013,0.023,0.019,0.034c0.044,0.132,0.079,0.267,0.101,0.405c0.007,0.041,0.031,0.075,0.047,0.112
	c-0.008,0.043-0.027,0.082-0.028,0.126c-0.056,1.573-0.179,3.144-0.173,4.718c0.004,1.412,0.035,2.824,0.058,4.235
	c0.002,0.142,0.003,0.283,0.005,0.424c-0.004,0.007-0.013,0.012-0.016,0.019C18.945,24.987,18.902,25.07,18.852,25.152z
	 M25.995,14.122c-0.161-0.154-0.356-0.278-0.535-0.408c-0.064-0.049-0.13-0.088-0.202-0.122c-0.16-0.078-0.32-0.122-0.491-0.103
	c-0.028-0.01-0.057-0.018-0.086-0.024c-0.235-0.049-0.473-0.091-0.712-0.091c-0.193,0-0.406,0.039-0.591,0.095
	c-0.352,0.105-0.694,0.268-0.926,0.566c-0.282,0.36-0.486,0.751-0.562,1.208c-0.016,0.097-0.027,0.194-0.039,0.294
	c-0.016,0.132,0.004,0.245,0.023,0.379c0.031,0.233,0.113,0.451,0.226,0.659c0.115,0.21,0.272,0.406,0.449,0.566
	c0.467,0.42,1.101,0.651,1.727,0.622c0.463-0.019,0.933-0.109,1.322-0.379c0.185-0.128,0.362-0.268,0.519-0.43
	c0.216-0.224,0.356-0.488,0.447-0.784c0.156-0.504,0.091-1.036-0.154-1.495C26.304,14.472,26.16,14.28,25.995,14.122z
	 M25.044,15.649c-0.01,0.048-0.021,0.095-0.035,0.141c-0.005,0.01-0.011,0.02-0.016,0.029c-0.056,0.061-0.116,0.118-0.179,0.172
	c-0.059,0.042-0.12,0.08-0.184,0.115c-0.057,0.018-0.114,0.033-0.172,0.046c-0.12,0.009-0.239,0.01-0.359,0.004
	c-0.071-0.017-0.141-0.036-0.21-0.06c-0.073-0.036-0.144-0.075-0.214-0.118c-0.057-0.05-0.111-0.103-0.162-0.159
	c-0.02-0.032-0.039-0.065-0.058-0.098c-0.008-0.028-0.016-0.055-0.022-0.083c0.001-0.038,0.003-0.076,0.005-0.114
	c0.013-0.071,0.03-0.141,0.051-0.211c0.036-0.07,0.076-0.138,0.12-0.205c0.012-0.013,0.025-0.027,0.038-0.04
	c0.07-0.022,0.141-0.04,0.212-0.054c0.07-0.004,0.139-0.004,0.21,0c0.058,0.012,0.117,0.024,0.176,0.037
	c0.129,0.027,0.259,0.028,0.382,0.003c0.001,0.001,0.002,0.001,0.002,0.002c0.104,0.082,0.205,0.167,0.293,0.264
	c0.04,0.059,0.076,0.12,0.11,0.182c0.005,0.017,0.01,0.034,0.015,0.051C25.046,15.586,25.045,15.618,25.044,15.649z M25.76,19.666
	c-0.06-0.271-0.263-0.508-0.545-0.581c-0.27-0.068-0.539-0.13-0.817-0.163c-0.067-0.008-0.134-0.011-0.201-0.011
	c-0.277,0-0.554,0.061-0.812,0.155c-0.263,0.095-0.471,0.214-0.685,0.387c-0.264,0.212-0.422,0.498-0.529,0.817
	c-0.074,0.224-0.105,0.455-0.134,0.686c-0.027,0.235-0.008,0.438,0.023,0.673c0.029,0.202,0.123,0.403,0.21,0.583
	c0.091,0.193,0.228,0.387,0.395,0.519c0.2,0.157,0.366,0.247,0.609,0.336c0.294,0.109,0.618,0.076,0.92,0.033
	c0.354-0.049,0.686-0.173,1.011-0.321c0.356-0.161,0.63-0.496,0.79-0.846c0.204-0.445,0.321-0.988,0.173-1.468
	C26.08,20.182,25.908,19.922,25.76,19.666z M24.659,20.956c-0.018,0.095-0.042,0.189-0.072,0.281
	c-0.023,0.045-0.047,0.09-0.074,0.133c-0.006,0.006-0.012,0.013-0.019,0.019c-0.04,0.025-0.082,0.048-0.124,0.069
	c-0.138,0.048-0.28,0.086-0.424,0.115c-0.061,0.005-0.122,0.006-0.184,0.004c-0.013-0.004-0.026-0.007-0.039-0.011
	c-0.012-0.007-0.024-0.014-0.036-0.021c-0.003-0.003-0.005-0.005-0.008-0.008c-0.021-0.035-0.041-0.07-0.059-0.107
	c-0.022-0.065-0.041-0.131-0.056-0.198c-0.003-0.084,0-0.168,0.007-0.252c0.023-0.12,0.053-0.236,0.092-0.352
	c0.022-0.023,0.045-0.046,0.069-0.067c0.039-0.024,0.078-0.045,0.118-0.065c0.087-0.029,0.173-0.052,0.262-0.069
	c0.038-0.002,0.076-0.001,0.114,0.001c0.07,0.013,0.139,0.028,0.208,0.045c0.083,0.134,0.161,0.269,0.229,0.41l0,0.001
	C24.661,20.907,24.66,20.931,24.659,20.956z M17.918,20.136c0,0.482-0.016,0.965-0.019,1.449c-0.002,0.35,0.023,0.708-0.006,1.056
	c-0.039,0.471-0.146,0.957-0.508,1.295c-0.266,0.247-0.591,0.439-0.955,0.5c-0.138,0.037-0.276,0.037-0.414,0
	c-0.132-0.037-0.245-0.105-0.342-0.2c-0.146-0.146-0.229-0.346-0.229-0.55c0-0.206,0.084-0.406,0.229-0.55
	c0.141-0.143,0.304-0.198,0.493-0.223c0.037-0.008,0.073-0.017,0.108-0.027c0.006-0.003,0.011-0.007,0.017-0.01
	c0.009-0.009,0.018-0.018,0.027-0.027c0.005-0.008,0.009-0.016,0.013-0.023c0.014-0.044,0.025-0.089,0.035-0.134
	c0.029-0.358,0.013-0.723,0.011-1.079c-0.004-0.492-0.019-0.984-0.021-1.476c0-0.426,0.356-0.782,0.782-0.782
	C17.562,19.354,17.92,19.71,17.918,20.136z"/>
</svg>