<?xml version="1.0" encoding="utf-8"?>
<!-- Generator: Adobe Illustrator 21.1.0, SVG Export Plug-In . SVG Version: 6.00 Build 0)  -->
<svg version="1.1" id="designs" xmlns="http://www.w3.org/2000/svg" xmlns:xlink="http://www.w3.org/1999/xlink" x="0px" y="0px"
	 width="32px" height="32px" viewBox="0 0 32 32" style="enable-background:new 0 0 32 32;" xml:space="preserve">
<style type="text/css">
	.sketchy_een{fill:#111918;}
</style>
<path class="sketchy_een" d="M5.714,17.034c0.001,0.004,0.001,0.009,0.002,0.013c0,0.003,0.001,0.007,0.001,0.01
	C5.716,17.05,5.715,17.042,5.714,17.034z M26.608,11.581c-0.01,0.334-0.027,0.668-0.035,1.001c-0.008,0.38-0.006,0.762-0.027,1.142
	c-0.041,0.745-0.091,1.491-0.143,2.238c-0.054,0.803-0.104,1.603-0.214,2.402c0.01-0.066,0.019-0.131,0.027-0.197
	c-0.008,0.064-0.015,0.125-0.025,0.187c-0.106,0.795-0.228,1.596-0.417,2.375c-0.179,0.743-0.38,1.48-0.583,2.215
	c-0.187,0.683-0.374,1.368-0.592,2.039c-0.245,0.75-0.527,1.505-0.911,2.198c-0.172,0.307-0.372,0.606-0.583,0.885
	c-0.253,0.338-0.544,0.621-0.86,0.897c-0.27,0.233-0.544,0.527-0.864,0.685c-0.177,0.089-0.363,0.172-0.55,0.239
	c-0.168,0.06-0.355,0.079-0.531,0.098c-0.287,0.033-0.612,0.008-0.882-0.098c-0.307-0.122-0.569-0.303-0.801-0.54
	c-0.241-0.245-0.432-0.561-0.492-0.903c-0.038-0.215-0.031-0.429-0.014-0.643c-0.015-0.06-0.037-0.118-0.036-0.182
	c0.013-0.548,0.015-1.096,0.023-1.644c0.01-0.548,0.025-1.096,0.021-1.644c-0.004-0.569-0.025-1.134-0.066-1.702
	c-0.036-0.502-0.054-1.01-0.113-1.511c-0.055-0.37-0.128-0.735-0.217-1.099c-0.089-0.363-0.182-0.72-0.315-1.067
	c-0.04-0.085-0.084-0.165-0.135-0.242c-0.107-0.118-0.216-0.229-0.336-0.333c-0.104-0.069-0.211-0.133-0.323-0.189
	c-0.052-0.018-0.105-0.032-0.159-0.045c-0.18-0.01-0.362-0.003-0.542,0.015c-0.186,0.031-0.374,0.071-0.554,0.127
	c-0.074,0.041-0.144,0.087-0.213,0.136c-0.063,0.055-0.122,0.113-0.177,0.176c-0.111,0.163-0.208,0.334-0.294,0.512
	c-0.114,0.308-0.183,0.617-0.231,0.944c-0.061,0.514-0.094,1.023-0.091,1.544c0.002,0.546,0.006,1.094,0.064,1.638
	c0.11,1.031,0.207,2.066,0.337,3.095c0.062,0.432,0.134,0.864,0.175,1.3c0.044,0.461,0.033,0.97-0.208,1.379
	c-0.328,0.556-0.899,0.936-1.563,0.907c-0.361-0.015-0.714-0.073-1.053-0.195c-0.357-0.131-0.693-0.301-1.005-0.519
	c-0.313-0.218-0.644-0.463-0.907-0.745c-0.257-0.274-0.538-0.536-0.77-0.833c-0.276-0.347-0.538-0.708-0.772-1.084
	c-0.203-0.328-0.382-0.668-0.577-1.001C7.883,25.21,7.7,24.879,7.54,24.527C7.163,23.709,6.849,22.874,6.627,22
	c-0.201-0.783-0.334-1.58-0.484-2.373c-0.163-0.856-0.311-1.716-0.427-2.58c-0.246-1.91-0.335-3.842-0.33-5.766
	c0.002-0.818,0.002-1.638,0.054-2.454c0.025-0.386,0.066-0.77,0.108-1.154c0.05-0.453,0.106-0.913,0.226-1.354
	C5.902,5.85,6.079,5.403,6.287,4.963C6.478,4.56,6.724,4.16,7.026,3.828C7.293,3.539,7.59,3.286,7.9,3.043
	c0.141-0.112,0.282-0.218,0.434-0.312C8.498,2.628,8.687,2.557,8.869,2.49c0.156-0.058,0.322-0.096,0.482-0.139
	c0.33-0.087,0.654-0.197,0.986-0.266C10.636,2.023,10.929,2,11.227,2c0.114,0,0.228,0.003,0.343,0.009
	c0.43,0.025,0.86,0.069,1.283,0.148c0.422,0.077,0.847,0.259,1.237,0.432c0.615,0.276,1.211,0.589,1.8,0.917
	c0.222-0.154,0.45-0.297,0.684-0.435c0.22-0.129,0.451-0.259,0.685-0.363c0.272-0.125,0.546-0.235,0.837-0.307
	c0.253-0.064,0.505-0.122,0.76-0.174c0.523-0.103,1.06-0.196,1.595-0.196c0.054,0,0.107,0.001,0.161,0.003
	c0.581,0.023,1.161,0.106,1.709,0.305c0.731,0.262,1.397,0.695,2.001,1.179c0.22,0.177,0.397,0.413,0.542,0.654
	c0.139,0.235,0.276,0.471,0.397,0.714c0.185,0.366,0.367,0.745,0.492,1.134c0.106,0.33,0.195,0.666,0.276,1.001
	c0.176,0.735,0.313,1.48,0.417,2.228c0.06,0.426,0.122,0.853,0.148,1.283C26.617,10.883,26.617,11.232,26.608,11.581z M7.412,17.376
	c-0.007-0.054-0.014-0.108-0.021-0.163c0.007,0.053,0.014,0.107,0.021,0.161C7.412,17.375,7.412,17.376,7.412,17.376z M13.21,28.273
	c-0.01-0.002-0.02-0.003-0.031-0.005C13.19,28.27,13.2,28.271,13.21,28.273L13.21,28.273z M13.225,28.275
	c-0.001,0-0.003,0-0.004-0.001h0C13.222,28.274,13.224,28.275,13.225,28.275L13.225,28.275z M25.105,11.581
	c0.013-0.68-0.023-1.348-0.107-2.022c-0.089-0.611-0.191-1.222-0.34-1.821c-0.127-0.51-0.259-1.024-0.454-1.514
	c-0.209-0.455-0.459-0.884-0.757-1.285c-0.078-0.09-0.159-0.173-0.25-0.249c-0.394-0.293-0.816-0.567-1.257-0.78
	c-0.295-0.114-0.6-0.203-0.911-0.257c-0.448-0.043-0.888-0.041-1.336,0.009c-0.545,0.079-1.104,0.178-1.617,0.378
	c-0.189,0.086-0.377,0.182-0.562,0.282c0.157,0.074,0.308,0.163,0.466,0.234c0.216,0.084,0.436,0.15,0.664,0.194
	c0.283,0.029,0.566,0.042,0.851,0.05c0.419,0.014,0.77,0.342,0.77,0.77c0,0.407-0.351,0.785-0.77,0.77
	c-0.644-0.025-1.287-0.081-1.9-0.293c-0.525-0.181-1.023-0.434-1.526-0.671c-0.469-0.222-0.918-0.477-1.383-0.706
	c-0.428-0.211-0.855-0.418-1.292-0.608c-0.359-0.148-0.723-0.273-1.105-0.336c-0.441-0.051-0.893-0.092-1.334-0.059
	c-0.288,0.051-0.563,0.124-0.845,0.205C9.833,3.952,9.552,4.016,9.284,4.111C9.118,4.201,8.965,4.306,8.815,4.418
	C8.571,4.617,8.342,4.822,8.136,5.06C7.928,5.362,7.758,5.676,7.608,6.009C7.421,6.494,7.291,6.983,7.213,7.494
	c-0.007,0.06-0.014,0.119-0.02,0.179C7.111,8.468,7.063,9.267,7.05,10.068c-0.012,0.822,0.006,1.642,0.013,2.464
	c0.006,0.801,0.039,1.597,0.11,2.396c0.074,0.817,0.133,1.637,0.24,2.452c0.152,1.019,0.317,2.039,0.524,3.05
	c0.207,1.004,0.519,1.979,0.905,2.929c0.119,0.266,0.245,0.528,0.382,0.784c0.135,0.253,0.291,0.498,0.434,0.747
	c0.293,0.508,0.599,1.009,0.945,1.485c0.389,0.465,0.819,0.894,1.291,1.273c0.249,0.183,0.513,0.359,0.792,0.49
	c0.135,0.05,0.271,0.088,0.412,0.116c0.051,0.004,0.102,0.007,0.157,0.004c0.008-0.007,0.015-0.015,0.022-0.022
	c0.01-0.016,0.019-0.031,0.028-0.047c0.008-0.031,0.015-0.062,0.021-0.094c0.038-0.483-0.052-0.966-0.111-1.445
	c-0.064-0.515-0.102-1.032-0.158-1.549c-0.054-0.505-0.081-1.017-0.141-1.522c-0.058-0.5-0.093-0.999-0.106-1.501
	c-0.01-0.392-0.019-0.789-0.008-1.181c0.014-0.424,0.071-0.845,0.129-1.264c0.027-0.191,0.052-0.382,0.096-0.571
	c0.039-0.164,0.1-0.326,0.162-0.482c0.176-0.436,0.395-0.835,0.714-1.185c0.301-0.328,0.754-0.59,1.185-0.689
	c0.39-0.087,0.799-0.17,1.198-0.172c0.405-0.002,0.781,0.081,1.144,0.262c0.392,0.197,0.729,0.496,1.005,0.833
	c0.095,0.116,0.197,0.235,0.262,0.37c0.058,0.116,0.11,0.234,0.156,0.353c0.037,0.094,0.073,0.187,0.104,0.284
	c0.064,0.187,0.114,0.38,0.158,0.573c0.083,0.365,0.17,0.727,0.237,1.096c0.152,0.814,0.172,1.644,0.233,2.469
	c0.06,0.82,0.054,1.644,0.044,2.468c-0.005,0.445-0.006,0.89-0.008,1.335c-0.002,0.403-0.071,0.801-0.042,1.204
	c0.01,0.135,0.028,0.274,0.091,0.394c0.097,0.185,0.331,0.299,0.539,0.258c0.109-0.021,0.214-0.052,0.319-0.09
	c0.097-0.046,0.19-0.096,0.279-0.156c0.179-0.147,0.353-0.3,0.525-0.452c0.206-0.183,0.404-0.371,0.579-0.583
	c0.157-0.213,0.308-0.43,0.444-0.659c0.139-0.234,0.255-0.483,0.364-0.733c0.117-0.284,0.232-0.569,0.334-0.86
	c0.106-0.309,0.193-0.621,0.286-0.936c0.195-0.664,0.368-1.337,0.565-2.001c0.374-1.268,0.653-2.563,0.846-3.871
	c0.089-0.729,0.153-1.46,0.192-2.192c0.039-0.743,0.091-1.486,0.118-2.23C25.089,12.974,25.093,12.278,25.105,11.581z"/>
</svg>