<?xml version="1.0" encoding="utf-8"?>
<!-- Generator: Adobe Illustrator 21.1.0, SVG Export Plug-In . SVG Version: 6.00 Build 0)  -->
<svg version="1.1" id="designs" xmlns="http://www.w3.org/2000/svg" xmlns:xlink="http://www.w3.org/1999/xlink" x="0px" y="0px"
	 width="32px" height="32px" viewBox="0 0 32 32" style="enable-background:new 0 0 32 32;" xml:space="preserve">
<style type="text/css">
	.sketchy_een{fill:#111918;}
</style>
<path class="sketchy_een" d="M18.462,7.766c0.028-0.338-0.052-0.693-0.208-0.993c-0.108-0.206-0.262-0.381-0.431-0.538
	c-0.321-0.301-0.702-0.5-1.123-0.622c-0.066-0.019-0.132-0.028-0.198-0.028c-0.137,0-0.27,0.039-0.386,0.109
	c-0.12-0.03-0.248-0.032-0.374,0.001c-0.293,0.078-0.574,0.174-0.837,0.329c-0.329,0.195-0.577,0.488-0.73,0.835
	c-0.141,0.321-0.234,0.663-0.206,1.018c0.011,0.137,0.02,0.28,0.048,0.414c0.039,0.176,0.104,0.334,0.176,0.499
	c0.223,0.503,0.719,0.791,1.207,0.98c0.462,0.18,0.992,0.21,1.456,0.024c0.212-0.084,0.418-0.169,0.611-0.288
	c0.23-0.145,0.425-0.353,0.587-0.57C18.297,8.605,18.428,8.174,18.462,7.766z M15.675,7.25c-0.013,0.01-0.025,0.02-0.038,0.03l0,0
	C15.649,7.27,15.662,7.26,15.675,7.25z M15.636,7.28L15.636,7.28L15.636,7.28c-0.001,0.001-0.002,0.001-0.003,0.002
	C15.634,7.282,15.635,7.281,15.636,7.28z M17.005,7.755c-0.019,0.09-0.043,0.177-0.072,0.264c-0.022,0.042-0.045,0.082-0.071,0.122
	c-0.05,0.054-0.101,0.105-0.156,0.155c-0.064,0.039-0.129,0.073-0.196,0.105c-0.084,0.031-0.169,0.059-0.255,0.081
	c-0.049,0.001-0.096,0-0.144-0.003c-0.099-0.022-0.196-0.051-0.292-0.086c-0.075-0.037-0.148-0.078-0.218-0.125
	c-0.019-0.018-0.038-0.037-0.056-0.056c-0.027-0.042-0.051-0.085-0.073-0.13c-0.013-0.04-0.024-0.081-0.033-0.123
	c-0.008-0.094-0.011-0.187-0.008-0.283c0.015-0.064,0.034-0.126,0.055-0.19c0.024-0.048,0.05-0.094,0.079-0.14
	c0.004-0.004,0.008-0.008,0.012-0.012c0.055-0.034,0.111-0.066,0.169-0.096c0.129-0.045,0.26-0.078,0.393-0.112
	c0.054-0.014,0.106-0.034,0.153-0.06c0.003,0.001,0.005,0.001,0.008,0.002c0.074,0.02,0.145,0.042,0.216,0.067
	c0.067,0.035,0.132,0.072,0.195,0.114c0.079,0.067,0.154,0.136,0.224,0.21c0.014,0.023,0.028,0.046,0.041,0.07
	c0.012,0.037,0.023,0.075,0.032,0.113C17.008,7.681,17.007,7.718,17.005,7.755z M14.091,10.119c-0.106-0.126-0.259-0.189-0.417-0.2
	c-0.128-0.206-0.36-0.338-0.621-0.352c-0.074-0.004-0.149-0.006-0.223-0.006c-0.295,0-0.588,0.031-0.872,0.112
	c-0.524,0.147-1.012,0.512-1.281,0.99c-0.113,0.202-0.169,0.427-0.202,0.654c-0.05,0.356-0.017,0.741,0.163,1.06
	c0.167,0.299,0.412,0.566,0.681,0.776c0.102,0.08,0.199,0.152,0.314,0.211c0.104,0.052,0.214,0.091,0.319,0.134
	c0.234,0.091,0.486,0.11,0.735,0.106c0.505-0.006,1.008-0.184,1.368-0.542c0.215-0.214,0.386-0.487,0.483-0.772
	c0.074-0.217,0.106-0.433,0.124-0.661c0.024-0.317-0.058-0.635-0.184-0.925C14.382,10.485,14.243,10.301,14.091,10.119z
	 M13.239,11.656c-0.019,0.085-0.044,0.165-0.073,0.245c-0.015,0.028-0.032,0.054-0.049,0.081c-0.044,0.052-0.089,0.099-0.139,0.146
	c-0.012,0.007-0.024,0.014-0.037,0.021c-0.065,0.019-0.129,0.035-0.195,0.048c-0.077,0.004-0.154,0.006-0.231,0.003
	c-0.059-0.014-0.116-0.032-0.173-0.052c-0.043-0.023-0.083-0.046-0.125-0.073c-0.089-0.079-0.17-0.164-0.249-0.253
	c-0.028-0.041-0.055-0.083-0.08-0.126c-0.006-0.02-0.012-0.041-0.016-0.062c-0.001-0.026-0.002-0.052-0.001-0.079
	c0.012-0.066,0.027-0.131,0.047-0.196c0.014-0.025,0.029-0.049,0.044-0.073c0.039-0.042,0.08-0.082,0.123-0.12
	c0.045-0.031,0.091-0.059,0.139-0.085c0.083-0.027,0.165-0.049,0.25-0.066c0.193-0.013,0.387-0.006,0.58,0.007
	c0.003,0,0.005,0,0.008,0c0.012,0.016,0.024,0.033,0.037,0.049c0.041,0.062,0.078,0.124,0.112,0.19
	c0.013,0.041,0.024,0.081,0.034,0.123C13.248,11.475,13.246,11.564,13.239,11.656z M19.278,13.241
	c0.16,0.063,0.318,0.119,0.486,0.152c0.303,0.062,0.628,0.045,0.926-0.031c0.39-0.098,0.758-0.275,1.071-0.527
	c0.121-0.099,0.223-0.203,0.319-0.325c0.067-0.076,0.126-0.158,0.178-0.245c0.045-0.102,0.087-0.204,0.126-0.308
	c0.058-0.148,0.056-0.325,0.074-0.481c0.02-0.174-0.026-0.366-0.056-0.538c-0.041-0.238-0.141-0.464-0.254-0.676
	c-0.161-0.297-0.442-0.544-0.728-0.717c-0.132-0.08-0.288-0.132-0.435-0.186c-0.16-0.059-0.323-0.095-0.49-0.123
	c-0.074-0.012-0.144-0.02-0.213-0.02c-0.124,0-0.242,0.025-0.362,0.094c-0.069,0.041-0.131,0.093-0.183,0.152
	c-0.222,0.027-0.439,0.073-0.65,0.167c-0.332,0.147-0.6,0.375-0.813,0.668c-0.21,0.288-0.316,0.639-0.34,0.991
	c-0.011,0.178-0.004,0.351,0.03,0.525c0.035,0.189,0.11,0.356,0.189,0.531c0.05,0.112,0.152,0.234,0.23,0.321
	c0.063,0.074,0.13,0.137,0.206,0.197c0.113,0.087,0.217,0.163,0.344,0.228C19.044,13.15,19.165,13.195,19.278,13.241z
	 M19.377,11.123c0.009-0.017,0.019-0.033,0.03-0.05c0.038-0.042,0.077-0.081,0.119-0.12c0.022-0.014,0.045-0.028,0.069-0.041
	c0.063-0.021,0.125-0.037,0.19-0.05c0.077-0.007,0.154-0.012,0.23-0.015c0.13-0.006,0.253-0.043,0.358-0.105
	c0.047,0.015,0.094,0.031,0.141,0.048c0.051,0.024,0.1,0.05,0.148,0.078c0.035,0.032,0.068,0.066,0.101,0.1
	c0.033,0.05,0.063,0.101,0.09,0.154c0.031,0.093,0.055,0.186,0.073,0.281c0.001,0.031,0.001,0.062,0,0.093
	c-0.006,0.027-0.013,0.052-0.02,0.078c-0.003,0.005-0.006,0.009-0.009,0.014c-0.052,0.057-0.106,0.112-0.164,0.163
	c-0.097,0.062-0.194,0.117-0.297,0.167c-0.095,0.032-0.19,0.057-0.288,0.077c-0.064,0.003-0.125,0.002-0.188-0.001
	c-0.09-0.023-0.176-0.051-0.262-0.083c-0.071-0.034-0.14-0.071-0.206-0.113c-0.025-0.023-0.049-0.047-0.073-0.072
	c-0.027-0.042-0.052-0.085-0.075-0.13c-0.008-0.025-0.014-0.05-0.02-0.075c-0.003-0.061-0.004-0.12-0.002-0.181
	C19.334,11.267,19.353,11.195,19.377,11.123z M28.675,14.934c-0.089-0.964-0.214-1.687-0.408-2.344
	c-0.201-0.685-0.47-1.39-0.842-2.218c-0.305-0.684-0.764-1.3-1.248-1.923c-0.438-0.566-0.96-1.169-1.596-1.845
	c-0.559-0.594-1.244-1.073-1.902-1.502c-0.974-0.636-1.931-1.117-2.926-1.468c-0.226-0.082-0.457-0.152-0.687-0.223l-0.115-0.035
	C18.743,3.313,18.534,3.25,18.32,3.22c-0.496-0.073-0.997-0.115-1.565-0.164c-0.159-0.024-0.32-0.048-0.481-0.053L16.11,3
	c-0.148,0-0.294,0.007-0.444,0.018c-0.41,0.031-0.82,0.082-1.226,0.139c-0.394,0.056-0.785,0.115-1.174,0.187
	c-0.423,0.075-0.83,0.212-1.138,0.324c-0.409,0.15-0.806,0.328-1.197,0.514l-0.35,0.164C10.352,4.452,10.124,4.559,9.9,4.673
	c-0.312,0.16-0.628,0.353-0.965,0.592c-0.335,0.236-0.67,0.479-0.979,0.749C7.335,6.553,6.823,7.223,6.39,7.81
	C5.923,8.447,5.505,9.116,5.15,9.8c-0.177,0.345-0.33,0.704-0.5,1.105c-0.147,0.347-0.294,0.694-0.43,1.048
	c-0.12,0.312-0.211,0.635-0.3,0.956l-0.036,0.127c-0.101,0.361-0.183,0.726-0.261,1.094c-0.137,0.647-0.299,1.5-0.336,2.352
	c-0.015,0.361-0.025,0.73,0,1.09c0.025,0.392,0.077,0.802,0.166,1.329c0.129,0.76,0.393,1.493,0.659,2.171
	c0.272,0.703,0.674,1.355,1.062,1.985l0.062,0.1c0.199,0.325,0.416,0.635,0.645,0.94c0.247,0.334,0.527,0.63,0.839,0.955
	l0.237,0.253c0.175,0.191,0.352,0.383,0.546,0.552c0.342,0.3,0.7,0.567,1.069,0.796c0.319,0.199,0.652,0.375,0.986,0.55
	c0.211,0.111,0.427,0.212,0.642,0.313l0.36,0.171c0.09,0.044,0.177,0.094,0.264,0.143l0.203,0.112
	c0.22,0.116,0.449,0.215,0.68,0.307c0.342,0.133,0.691,0.241,1.071,0.332c0.511,0.121,1.044,0.218,1.629,0.295
	C14.874,28.936,15.426,29,15.982,29c0.107,0,0.215-0.002,0.323-0.007c0.712-0.033,1.345-0.104,1.934-0.219
	c0.543-0.105,0.953-0.234,1.289-0.405c0.255-0.128,0.511-0.252,0.861-0.401c0.32-0.126,0.639-0.253,0.953-0.397
	c0.363-0.166,0.724-0.36,1.108-0.594c0.379-0.233,0.732-0.513,1.1-0.805c0.29-0.231,0.579-0.465,0.86-0.704
	c0.647-0.547,1.187-1.177,1.585-1.665c0.299-0.365,0.545-0.698,0.749-1.017c0.217-0.34,0.408-0.692,0.586-1.051
	c0.367-0.742,0.672-1.477,0.907-2.186c0.111-0.332,0.224-0.689,0.296-1.055c0.079-0.406,0.132-0.836,0.161-1.312
	C28.746,16.35,28.739,15.615,28.675,14.934z M26.937,17.75c-0.134,0.748-0.382,1.534-0.779,2.471
	c-0.175,0.392-0.374,0.837-0.611,1.241c-0.24,0.41-0.526,0.829-0.871,1.275c-0.431,0.515-0.798,0.91-1.156,1.245
	c-0.449,0.418-0.937,0.793-1.405,1.155c-0.3,0.216-0.596,0.423-0.914,0.594c-0.352,0.188-0.709,0.357-1.167,0.547
	c-0.229,0.09-0.46,0.181-0.688,0.276c-0.143,0.059-0.284,0.124-0.423,0.188l-0.268,0.123c-0.432,0.151-0.904,0.237-1.305,0.3
	c-0.469,0.051-0.901,0.076-1.324,0.076c-0.464,0-0.927-0.048-1.276-0.09c-1.013-0.138-1.766-0.312-2.437-0.561
	c-0.273-0.121-0.532-0.257-0.79-0.401c-0.167-0.095-0.347-0.171-0.525-0.247c-0.115-0.048-0.229-0.096-0.341-0.151
	c-0.696-0.332-1.204-0.619-1.643-0.926c-0.128-0.1-0.256-0.202-0.374-0.313c-0.161-0.156-0.314-0.318-0.483-0.498
	c-0.087-0.091-0.468-0.465-0.468-0.465c-0.133-0.135-0.256-0.275-0.375-0.415c-0.26-0.345-0.51-0.722-0.821-1.245
	c-0.238-0.399-0.477-0.796-0.68-1.206c-0.186-0.44-0.355-0.888-0.502-1.342c-0.143-0.442-0.216-0.907-0.279-1.342
	c-0.078-0.748-0.068-1.548,0.028-2.376c0.11-0.742,0.252-1.476,0.424-2.179c0.194-0.797,0.493-1.546,0.761-2.176
	c0.098-0.225,0.196-0.452,0.309-0.671c0.157-0.31,0.328-0.614,0.502-0.914C7.33,9.242,7.663,8.76,8.131,8.157
	C8.342,7.9,8.557,7.648,8.798,7.413C9.02,7.195,9.266,7.005,9.511,6.819c0.372-0.271,0.871-0.619,1.435-0.896l0.163-0.081
	c0.452-0.222,0.906-0.446,1.366-0.644c0.39-0.146,0.777-0.263,1.185-0.358c0.32-0.075,0.65-0.116,1.067-0.169h0.004
	c0.388-0.042,0.775-0.079,1.163-0.079l0.144-0.008c0.111,0.057,0.236,0.09,0.405,0.105c0.372,0.034,0.744,0.077,1.155,0.124
	c0.164,0.025,0.325,0.054,0.486,0.091c0.145,0.033,0.289,0.082,0.432,0.131l0.181,0.061c0.343,0.11,0.681,0.229,1.015,0.357
	c0.959,0.404,1.939,0.956,2.911,1.635c0.812,0.636,1.494,1.428,2.176,2.249c0.253,0.329,0.492,0.663,0.723,1.006
	c0.176,0.263,0.334,0.558,0.512,0.954c0.199,0.484,0.392,0.967,0.552,1.463c0.154,0.478,0.27,0.975,0.355,1.515
	C27.077,15.484,27.076,16.655,26.937,17.75z M25.277,18.611c-0.195,0.74-0.499,1.426-0.9,2.04c-0.414,0.633-0.796,1.199-1.268,1.704
	c-0.545,0.579-1.035,1.017-1.544,1.378c-0.254,0.18-0.514,0.358-0.781,0.515l-0.259,0.15c-0.138,0.079-0.276,0.158-0.411,0.242
	c-0.118,0.074-0.257,0.113-0.4,0.113c-0.288,0-0.566-0.158-0.709-0.402c-0.107-0.184-0.137-0.41-0.08-0.621
	c0.057-0.21,0.188-0.383,0.37-0.487c0.104-0.06,0.213-0.115,0.32-0.169c0.13-0.066,0.261-0.131,0.385-0.208
	c0.224-0.14,0.44-0.291,0.651-0.448c0.528-0.429,1.042-0.949,1.522-1.545c0.221-0.294,0.427-0.604,0.63-0.915
	c0.217-0.326,0.39-0.631,0.527-0.933c0.101-0.283,0.183-0.576,0.258-0.878c0.091-0.372,0.449-0.643,0.853-0.643
	c0.078,0,0.153,0.01,0.226,0.03C25.126,17.662,25.399,18.144,25.277,18.611z"/>
</svg>