<?xml version="1.0" encoding="utf-8"?>
<!-- Generator: Adobe Illustrator 21.1.0, SVG Export Plug-In . SVG Version: 6.00 Build 0)  -->
<svg version="1.1" id="designs" xmlns="http://www.w3.org/2000/svg" xmlns:xlink="http://www.w3.org/1999/xlink" x="0px" y="0px"
	 width="32px" height="32px" viewBox="0 0 32 32" style="enable-background:new 0 0 32 32;" xml:space="preserve">
<style type="text/css">
	.sketchy_een{fill:#111918;}
</style>
<path class="sketchy_een" d="M27.256,24.556c-0.032-0.032-0.08-0.056-0.12-0.084c-0.7-1.019-1.287-2.119-1.786-3.249
	c-0.285-0.698-0.519-1.41-0.717-2.138c-0.201-0.742-0.333-1.497-0.476-2.253c-0.151-0.8-0.299-1.604-0.499-2.392
	c-0.192-0.759-0.404-1.514-0.632-2.264c-0.242-0.796-0.539-1.585-0.911-2.331c-0.173-0.35-0.365-0.688-0.562-1.023
	c-0.099-0.166-0.21-0.322-0.324-0.478c-0.134-0.184-0.279-0.379-0.439-0.541c-0.564-0.567-1.248-1.031-1.957-1.395
	c-0.372-0.192-0.772-0.342-1.166-0.484c-0.199-0.071-0.409-0.119-0.616-0.173c0.064-0.139,0.118-0.283,0.153-0.437
	c0.106-0.458,0.039-0.964-0.058-1.416c-0.063-0.294-0.171-0.58-0.32-0.841c-0.212-0.372-0.588-0.623-0.962-0.805
	c-0.153-0.074-0.311-0.137-0.472-0.186C15.23,2.019,15.062,2,14.894,2c-0.146,0-0.292,0.014-0.434,0.035
	c-0.372,0.052-0.714,0.175-1.049,0.35c-0.184,0.095-0.352,0.244-0.506,0.381c-0.192,0.169-0.346,0.404-0.463,0.629
	c-0.126,0.242-0.199,0.508-0.246,0.776c-0.082,0.471-0.022,0.962,0.136,1.412c0.065,0.182,0.149,0.361,0.24,0.532
	c0.008,0.016,0.024,0.026,0.033,0.042c-0.353,0.145-0.696,0.307-1.024,0.508c-0.392,0.242-0.748,0.545-1.075,0.869
	c-0.316,0.314-0.584,0.685-0.848,1.04C9.421,8.891,9.213,9.229,9.012,9.572c-0.461,0.785-0.811,1.637-1.153,2.478
	c-0.506,1.237-0.802,2.528-1.055,3.838c-0.258,1.323-0.385,2.665-0.555,4.003c-0.087,0.592-0.193,1.183-0.295,1.773
	C5.859,22.2,5.737,22.73,5.541,23.238c-0.176,0.372-0.392,0.714-0.635,1.044c-0.051,0.06-0.104,0.114-0.163,0.166
	c-0.25,0.222-0.289,0.594-0.163,0.89c0.085,0.343,0.383,0.599,0.748,0.606c0.802,0.015,1.602,0.019,2.403,0.028
	c0.787,0.009,1.574-0.022,2.362-0.031c0.52-0.007,1.04,0,1.56,0.004c-0.047,0.149-0.069,0.308-0.034,0.472
	c0.179,0.841,0.359,1.715,0.852,2.437c0.193,0.283,0.43,0.489,0.701,0.696c0.195,0.147,0.45,0.234,0.683,0.309
	c0.288,0.093,0.593,0.123,0.895,0.138c0.413,0.021,0.85-0.024,1.246-0.149c0.951-0.3,1.773-1.014,2.216-1.905
	c0.311-0.629,0.468-1.313,0.546-2.004c0.326-0.003,0.651-0.009,0.977-0.01c1.544-0.006,3.086,0.011,4.628,0.013
	c0.383,0.002,0.766,0,1.148,0c0.392,0,0.789,0.007,1.181-0.022c0.218-0.017,0.406-0.074,0.564-0.232
	c0.149-0.149,0.234-0.354,0.234-0.566C27.49,24.909,27.405,24.705,27.256,24.556z M14.025,4.188c0.028-0.051,0.057-0.1,0.089-0.148
	c0.046-0.05,0.093-0.097,0.143-0.143c0.065-0.042,0.131-0.08,0.199-0.116c0.118-0.042,0.236-0.076,0.36-0.102
	c0.032-0.001,0.064-0.001,0.096,0c0.065,0.014,0.128,0.031,0.192,0.052c0.087,0.044,0.171,0.091,0.255,0.142
	c0.012,0.011,0.023,0.022,0.034,0.034c0.011,0.018,0.022,0.036,0.033,0.054c0.059,0.168,0.103,0.337,0.135,0.511
	c0.011,0.145,0.013,0.287,0.009,0.433c-0.015,0.06-0.032,0.119-0.052,0.178c-0.035,0.068-0.075,0.133-0.118,0.196
	c-0.045,0.05-0.09,0.099-0.137,0.148c-0.045-0.009-0.091-0.015-0.138-0.018c-0.151-0.01-0.301-0.019-0.451-0.034
	c-0.184-0.038-0.36-0.082-0.536-0.144c-0.01-0.005-0.019-0.011-0.029-0.016c-0.025-0.043-0.049-0.086-0.071-0.13
	c-0.038-0.116-0.067-0.232-0.09-0.35c-0.005-0.08-0.006-0.158-0.003-0.238C13.967,4.393,13.993,4.291,14.025,4.188z M17.076,25.974
	c-0.066,0.401-0.172,0.793-0.318,1.172c-0.084,0.168-0.178,0.324-0.284,0.476c-0.119,0.139-0.247,0.268-0.386,0.389
	c-0.149,0.105-0.302,0.201-0.466,0.282c-0.146,0.05-0.291,0.091-0.441,0.12c-0.211,0.016-0.42,0.017-0.631-0.002
	c-0.11-0.024-0.218-0.055-0.325-0.09c-0.07-0.035-0.137-0.072-0.204-0.114c-0.057-0.051-0.11-0.103-0.164-0.16
	c-0.092-0.135-0.169-0.274-0.24-0.421c-0.2-0.532-0.298-1.092-0.412-1.647c-0.002-0.01-0.01-0.016-0.012-0.026
	c0.595,0.008,1.191,0.018,1.787,0.018c0.699,0.001,1.398-0.008,2.098-0.017C17.077,25.961,17.077,25.967,17.076,25.974z
	 M22.133,24.368c-1.555,0.002-3.11,0.002-4.665,0.011c-1.617,0.011-3.231,0.011-4.848-0.021c-0.82-0.017-1.641-0.011-2.463,0.006
	c-0.789,0.015-1.577,0.05-2.368,0.054c-0.353,0.002-0.706-0.011-1.06-0.019c0.107-0.184,0.222-0.364,0.307-0.558
	c0.299-0.679,0.441-1.405,0.577-2.13c0.141-0.763,0.268-1.523,0.359-2.294c0.082-0.701,0.16-1.404,0.246-2.105
	c0.13-0.846,0.289-1.689,0.496-2.519c0.113-0.459,0.238-0.915,0.383-1.365c0.127-0.392,0.28-0.777,0.435-1.159
	c0.244-0.573,0.502-1.138,0.804-1.681c0.276-0.495,0.59-0.966,0.929-1.418c0.13-0.163,0.262-0.321,0.401-0.476
	c0.145-0.157,0.307-0.296,0.473-0.429c0.31-0.213,0.625-0.4,0.965-0.562c0.651-0.256,1.324-0.414,2.014-0.527
	c0.002,0,0.004,0,0.006,0c0.115,0.008,0.225-0.014,0.326-0.056c0.053-0.007,0.106-0.014,0.16-0.021
	c0.122-0.016,0.231-0.04,0.334-0.08c0.24,0.045,0.48,0.093,0.717,0.153c0.323,0.081,0.637,0.179,0.945,0.302
	c0.571,0.258,1.1,0.568,1.606,0.94c0.131,0.103,0.262,0.207,0.377,0.326c0.127,0.131,0.246,0.264,0.36,0.405
	c0.451,0.643,0.797,1.354,1.11,2.074c0.282,0.722,0.527,1.455,0.735,2.202c0.212,0.766,0.428,1.529,0.597,2.307
	c0.169,0.781,0.32,1.568,0.471,2.353c0.151,0.787,0.363,1.561,0.592,2.327c0.273,0.911,0.629,1.786,1.025,2.651
	c0.201,0.438,0.419,0.872,0.657,1.296c-0.248,0-0.497,0-0.745,0C23.638,24.355,22.886,24.366,22.133,24.368z M22.484,20.716
	c0.086,0.091,0.146,0.195,0.18,0.315c0.035,0.132,0.035,0.262,0,0.394c-0.05,0.184-0.175,0.344-0.34,0.443
	c-0.169,0.099-0.378,0.126-0.569,0.074c-0.203-0.056-0.32-0.18-0.443-0.34c-0.195-0.257-0.34-0.549-0.471-0.843
	c-0.141-0.314-0.275-0.633-0.393-0.958c-0.205-0.569-0.342-1.168-0.437-1.765c-0.097-0.603-0.184-1.213-0.329-1.804
	c-0.166-0.677-0.417-1.325-0.664-1.976c-0.069-0.182-0.019-0.424,0.076-0.586c0.1-0.169,0.264-0.298,0.454-0.35
	c0.066-0.018,0.134-0.027,0.201-0.027c0.135,0,0.268,0.035,0.385,0.103c0.184,0.108,0.279,0.262,0.35,0.456
	c0.205,0.543,0.413,1.092,0.554,1.656c0.128,0.511,0.218,1.029,0.314,1.546c0.091,0.497,0.16,0.993,0.275,1.485
	c0.107,0.461,0.248,0.913,0.42,1.354C22.171,20.179,22.304,20.461,22.484,20.716z"/>
</svg>