<?xml version="1.0" encoding="utf-8"?>
<!-- Generator: Adobe Illustrator 21.1.0, SVG Export Plug-In . SVG Version: 6.00 Build 0)  -->
<svg version="1.1" id="designs" xmlns="http://www.w3.org/2000/svg" xmlns:xlink="http://www.w3.org/1999/xlink" x="0px" y="0px"
	 width="32px" height="32px" viewBox="0 0 32 32" style="enable-background:new 0 0 32 32;" xml:space="preserve">
<style type="text/css">
	.sketchy_een{fill:#111918;}
</style>
<path class="sketchy_een" d="M10.123,11.993c-0.026,0.004-0.052,0.008-0.078,0.011c-0.045,0.006-0.09,0.013-0.135,0.019
	C9.981,12.014,10.052,12.003,10.123,11.993z M29.999,22.725c-0.006,0.123-0.028,0.25-0.045,0.37
	c-0.015,0.108-0.036,0.219-0.062,0.327c-0.062,0.243-0.166,0.482-0.288,0.702c-0.192,0.349-0.435,0.669-0.719,0.947
	c-0.237,0.232-0.521,0.368-0.837,0.452c-0.336,0.088-0.676,0.086-1.02,0.121c-1.222,0.125-2.46,0.02-3.681,0.162
	c-0.322,0.049-0.648,0.119-0.973,0.127c-0.26,0.006-0.517,0.009-0.775,0.008c-0.387,0-0.769-0.034-1.154-0.043
	c-0.401-0.011-0.803-0.017-1.205-0.017c-0.889-0.002-1.778-0.004-2.669,0.009c-1.003,0.015-2.004,0.035-3.007,0.024
	c-0.383-0.004-0.764-0.002-1.147-0.004c-0.34,0-0.68-0.017-1.021-0.013c-0.57,0.007-1.137,0.073-1.707,0.073
	c-0.777,0-1.554,0.017-2.332,0.015c-0.375,0-0.751,0.004-1.126,0.007c-0.439,0.006-0.878,0.009-1.315,0.006
	c-0.379-0.002-0.751-0.037-1.124-0.103c-0.127-0.022-0.256-0.047-0.377-0.093c-0.211-0.08-0.338-0.157-0.512-0.308
	c-0.086-0.075-0.162-0.159-0.235-0.246c-0.411-0.504-0.693-1.152-0.67-1.811c0.015-0.517,0.174-1.027,0.463-1.458
	c0.185-0.273,0.394-0.487,0.661-0.68c0.258-0.185,0.532-0.239,0.837-0.278c0.379-0.05,0.762-0.091,1.143-0.129
	c0.373-0.035,0.748-0.041,1.124-0.042c0.01-0.821,0.027-1.64-0.029-2.46c-0.028-0.411-0.063-0.824-0.065-1.236
	c-0.004-0.409-0.002-0.82,0-1.231c0.004-0.409,0.058-0.805,0.131-1.208c0.082-0.446,0.233-0.896,0.484-1.279
	c0.136-0.209,0.286-0.405,0.476-0.566c0.239-0.2,0.499-0.345,0.788-0.456c0.316-0.12,0.646-0.187,0.977-0.254
	c0.35-0.07,0.703-0.108,1.056-0.155c0.164-0.022,0.328-0.045,0.492-0.067c-0.069,0.009-0.14,0.019-0.211,0.028
	c0.097-0.014,0.195-0.027,0.29-0.05c0.103-0.053,0.202-0.11,0.302-0.172c0.432-0.358,0.819-0.767,1.189-1.187
	c0.398-0.446,0.818-0.865,1.274-1.253c0.515-0.439,1.044-0.855,1.673-1.122c0.312-0.133,0.626-0.265,0.96-0.334
	c0.377-0.077,0.754-0.131,1.135-0.131c0.153,0,0.307,0.009,0.462,0.028c0.329,0.039,0.641,0.116,0.949,0.235
	c0.226,0.086,0.443,0.187,0.663,0.282c0.261,0.11,0.527,0.213,0.762,0.379c0.278,0.196,0.543,0.416,0.756,0.685
	c0.291,0.372,0.556,0.76,0.812,1.16c0.258,0.403,0.456,0.827,0.642,1.27c0.17,0.403,0.312,0.81,0.409,1.24
	c0.095,0.422,0.187,0.846,0.275,1.27c0.09,0.424,0.157,0.852,0.19,1.283c0.03,0.398,0.058,0.796,0.108,1.191
	c-0.005-0.043-0.011-0.085-0.017-0.127c0.032,0.236,0.062,0.472,0.093,0.709c0.044,0.292,0.098,0.584,0.118,0.878
	c0.018,0.257,0.025,0.512,0.05,0.767c0.038,0.234,0.092,0.469,0.172,0.693c0.054,0.11,0.114,0.218,0.182,0.32
	c0.007,0.007,0.014,0.014,0.021,0.021c0.069,0.044,0.142,0.084,0.215,0.119c0.044,0.017,0.088,0.035,0.131,0.053
	c0.096,0.036,0.182,0.081,0.259,0.138c0.062-0.006,0.123-0.022,0.185-0.024c0.083-0.003,0.165-0.004,0.248-0.004
	c0.148,0,0.296,0.003,0.444,0.005c0.155,0.002,0.308,0.006,0.463,0.004c0.377-0.004,0.754-0.008,1.132-0.006
	c0.726,0.004,1.496,0.049,2.138,0.428c0.142,0.084,0.282,0.187,0.396,0.306c0.181,0.192,0.274,0.383,0.368,0.624
	c0.084,0.22,0.144,0.461,0.181,0.695C29.977,22.465,30.005,22.596,29.999,22.725z M28.182,22.667
	c0.001-0.039,0.001-0.077-0.001-0.116c-0.021-0.123-0.046-0.245-0.083-0.363c-0.001-0.001-0.002-0.002-0.003-0.003
	c-0.059-0.037-0.12-0.069-0.183-0.099c-0.157-0.058-0.316-0.098-0.482-0.126c-0.525-0.057-1.065-0.042-1.592-0.035
	c-0.495,0.007-1,0-1.495,0.052c-0.015,0.003-0.031,0.005-0.045,0.008c-0.23,0.039-0.433,0.037-0.641-0.084
	c-0.099-0.057-0.182-0.137-0.249-0.229c-0.157-0.052-0.31-0.117-0.462-0.185c-0.334-0.149-0.558-0.459-0.723-0.773
	c-0.209-0.4-0.37-0.829-0.435-1.277c-0.074-0.487-0.088-0.977-0.141-1.466c-0.07-0.489-0.132-0.981-0.166-1.475
	c-0.032-0.479-0.044-0.962-0.09-1.44c-0.071-0.425-0.164-0.845-0.248-1.268c-0.05-0.25-0.103-0.499-0.17-0.745
	c-0.056-0.209-0.137-0.409-0.216-0.61c-0.14-0.328-0.282-0.663-0.473-0.964c-0.202-0.319-0.412-0.634-0.626-0.946
	c-0.139-0.172-0.283-0.338-0.449-0.485c-0.1-0.069-0.202-0.134-0.312-0.189c-0.256-0.105-0.512-0.21-0.763-0.328
	c-0.22-0.086-0.442-0.158-0.674-0.203c-0.224-0.022-0.445-0.027-0.671-0.009c-0.329,0.056-0.64,0.141-0.955,0.257
	c-0.157,0.067-0.313,0.138-0.46,0.227c-0.192,0.117-0.375,0.24-0.554,0.373c-0.384,0.314-0.776,0.629-1.132,0.975
	c-0.372,0.36-0.685,0.775-1.051,1.141c-0.168,0.166-0.342,0.327-0.514,0.489c-0.329,0.306-0.743,0.622-1.199,0.698
	c-0.207,0.035-0.415,0.071-0.624,0.101c-0.208,0.031-0.415,0.042-0.623,0.062c-0.366,0.061-0.739,0.148-1.087,0.277
	c-0.095,0.049-0.185,0.101-0.272,0.16c-0.042,0.039-0.082,0.079-0.12,0.121c-0.059,0.089-0.11,0.179-0.158,0.275
	c-0.1,0.276-0.167,0.571-0.215,0.862c-0.044,0.466-0.031,0.941-0.037,1.409c-0.008,0.529,0.009,1.059,0.034,1.587
	c0.056,1.156,0.086,2.314,0.116,3.472c0.011,0.465-0.398,0.853-0.853,0.853c-0.227,0-0.431-0.094-0.584-0.241
	c-0.235,0.001-0.47-0.004-0.706,0.013c-0.222,0.019-0.444,0.047-0.667,0.075c-0.318,0.039-0.638,0.066-0.956,0.105
	c-0.034,0.006-0.067,0.014-0.1,0.022c-0.004,0.003-0.009,0.005-0.013,0.008c-0.036,0.033-0.071,0.067-0.103,0.103
	c-0.034,0.055-0.064,0.112-0.091,0.171c-0.038,0.102-0.069,0.204-0.091,0.311c-0.01,0.107-0.013,0.214-0.007,0.322
	c0.018,0.074,0.041,0.145,0.067,0.216c0.048,0.101,0.1,0.199,0.162,0.294c0.028,0.032,0.057,0.064,0.086,0.094
	c0.142,0.043,0.29,0.076,0.436,0.103c0.541,0.049,1.087,0.053,1.631,0.06c0.323,0.006,0.648,0.006,0.973,0.004
	c0.226,0,0.454,0,0.682,0c0.922,0.006,1.843,0.015,2.764-0.065c0.814-0.071,1.632-0.063,2.452-0.054
	c0.571,0.006,1.143,0.013,1.714-0.009c0.433-0.017,0.865-0.017,1.298-0.026c0.512-0.013,1.021-0.037,1.531-0.045
	c0.809-0.011,1.617-0.013,2.426,0.006c0.108,0.002,0.218,0.002,0.329,0c0.091,0,0.183-0.002,0.274-0.002
	c0.187,0,0.373,0.019,0.56,0.021c0.205,0,0.413,0,0.618,0.002c0.261,0.002,0.523,0.019,0.784-0.013
	c-0.08,0.009-0.161,0.021-0.241,0.032c0.844-0.114,1.692-0.2,2.543-0.222c0.428-0.011,0.852-0.06,1.277-0.071
	c0.399-0.012,0.798-0.028,1.194-0.071c0.096-0.015,0.193-0.032,0.288-0.058c0.075-0.071,0.146-0.148,0.213-0.227
	c0.088-0.128,0.167-0.262,0.235-0.401C28.116,22.959,28.154,22.813,28.182,22.667z"/>
</svg>