<?xml version="1.0" encoding="utf-8"?>
<!-- Generator: Adobe Illustrator 21.1.0, SVG Export Plug-In . SVG Version: 6.00 Build 0)  -->
<svg version="1.1" id="designs" xmlns="http://www.w3.org/2000/svg" xmlns:xlink="http://www.w3.org/1999/xlink" x="0px" y="0px"
	 width="32px" height="32px" viewBox="0 0 32 32" style="enable-background:new 0 0 32 32;" xml:space="preserve">
<style type="text/css">
	.sketchy_een{fill:#111918;}
</style>
<path class="sketchy_een" d="M28.129,16.879c-0.027-0.456-0.07-0.913-0.148-1.364c-0.138-0.808-0.351-1.609-0.639-2.376
	c-0.294-0.783-0.635-1.562-1.077-2.275c-0.392-0.625-0.822-1.227-1.213-1.852c-0.173-0.275-0.3-0.58-0.43-0.876
	c-0.137-0.313-0.281-0.624-0.428-0.932c0.131-0.237,0.259-0.476,0.394-0.711c0.179-0.315,0.36-0.629,0.547-0.939
	c0.395-0.656,0.863-1.266,1.289-1.901c0.209-0.31,0.106-0.724-0.146-0.977c-0.083-0.335-0.376-0.607-0.735-0.597
	c-0.391,0.008-0.781,0.027-1.172,0.033C23.986,2.12,23.6,2.11,23.215,2.106c-0.769-0.01-1.539-0.023-2.308-0.029
	c-0.727-0.004-1.453-0.008-2.178-0.021c-0.711-0.012-1.422-0.043-2.133-0.053C16.441,2.001,16.286,2,16.13,2
	c-0.661,0-1.323,0.019-1.984,0.042c-0.954,0.031-1.909,0.035-2.863,0.076c-0.204,0.008-0.389,0.09-0.53,0.217
	c-0.168,0.026-0.33,0.091-0.451,0.212c-0.099,0.101-0.169,0.22-0.208,0.356c-0.037,0.144-0.037,0.286,0,0.43
	c0.064,0.468,0.193,0.912,0.354,1.354c0.146,0.403,0.317,0.797,0.462,1.2c0.127,0.354,0.234,0.709,0.321,1.075
	c0.097,0.404,0.203,0.805,0.269,1.214c0.014,0.122,0.026,0.244,0.032,0.368c0.005,0.107-0.002,0.214-0.013,0.321
	c-0.07,0.349-0.186,0.686-0.297,1.025c-0.02,0.06-0.043,0.118-0.063,0.178c-0.022-0.019-0.045-0.038-0.067-0.057
	c-0.316-0.269-0.621-0.571-0.976-0.791C9.911,9.091,9.675,9.008,9.451,8.912C9.294,8.846,9.132,8.774,8.964,8.729
	C8.737,8.671,8.501,8.647,8.267,8.626C8.22,8.621,8.173,8.619,8.126,8.619c-0.202,0-0.405,0.036-0.603,0.071
	C7.134,8.756,6.75,8.904,6.382,9.045C6.13,9.138,5.879,9.251,5.64,9.372c-0.37,0.185-0.66,0.504-0.917,0.82
	c-0.13,0.16-0.259,0.323-0.368,0.499c-0.144,0.23-0.238,0.504-0.319,0.761c-0.107,0.337-0.14,0.719-0.173,1.069
	c-0.039,0.399-0.051,0.804-0.019,1.204c0.039,0.485,0.103,0.968,0.197,1.447c0.072,0.374,0.154,0.752,0.277,1.112
	c0.152,0.452,0.345,0.886,0.543,1.321c0.156,0.341,0.319,0.68,0.501,1.007c0.187,0.345,0.382,0.686,0.598,1.013
	c0.22,0.333,0.46,0.651,0.701,0.968c0.485,0.641,1.003,1.249,1.624,1.761c0.456,0.376,0.9,0.789,1.395,1.114
	c0.351,0.23,0.738,0.415,1.08,0.661c0.01,0.007,0.019,0.015,0.029,0.022c0.158,0.127,0.307,0.213,0.516,0.215
	c0.217,0.284,0.437,0.57,0.7,0.813c0.136,0.126,0.288,0.236,0.434,0.351c0.179,0.138,0.354,0.278,0.538,0.409
	c0.293,0.208,0.614,0.37,0.927,0.547c-0.029,0.084-0.05,0.173-0.056,0.269c-0.027,0.411-0.039,0.82-0.057,1.231
	c-0.019,0.477-0.056,0.988,0.199,1.416c0.36,0.6,1.139,0.6,1.78,0.598c0.056,0,0.111,0,0.166,0c0.374,0.002,0.75-0.002,1.124-0.01
	c1.547-0.023,3.097-0.126,4.643-0.066c0.308,0.012,0.614,0.039,0.923,0.035c0.259-0.002,0.504-0.033,0.738-0.16
	c0.358-0.197,0.483-0.617,0.452-0.999c-0.025-0.308-0.066-0.614-0.105-0.917c-0.039-0.313-0.082-0.627-0.051-0.943
	c0.001-0.014-0.008-0.029-0.008-0.043c0.242-0.198,0.472-0.41,0.708-0.615c0.294-0.255,0.578-0.51,0.847-0.795
	c0.302-0.32,0.59-0.66,0.822-1.034c0.218-0.351,0.421-0.711,0.6-1.085c0.384-0.801,0.684-1.638,0.972-2.478
	c0.15-0.44,0.29-0.882,0.401-1.334c0.109-0.45,0.154-0.919,0.171-1.381C28.189,17.744,28.152,17.308,28.129,16.879z M16.174,3.577
	c0.711,0.011,1.42,0.039,2.131,0.066c0.728,0.027,1.459,0.017,2.185,0.008c0.479-0.006,0.958-0.002,1.439,0
	c0.351,0.002,0.703,0.004,1.056,0.002c0.419,0,0.838-0.01,1.256-0.006c0.09,0.001,0.179-0.005,0.269-0.005
	c-0.049,0.076-0.098,0.153-0.148,0.229c-0.195,0.296-0.391,0.59-0.575,0.896c-0.185,0.312-0.376,0.619-0.553,0.937
	c-0.169,0.302-0.339,0.6-0.526,0.894c-0.124,0.194-0.133,0.427-0.064,0.636c-0.004,0.013-0.015,0.023-0.018,0.037
	c-0.062,0.226-0.016,0.43,0.084,0.635c0.236,0.485,0.46,0.976,0.703,1.457c0.224,0.444,0.506,0.847,0.771,1.27
	c0.253,0.405,0.524,0.802,0.763,1.217c0.168,0.29,0.307,0.594,0.449,0.896c-0.145,0.003-0.29,0.005-0.436,0.008
	c-0.366,0.008-0.732,0.004-1.1,0.008c-0.763,0.008-1.525,0.021-2.289,0.021c-1.533,0-3.064-0.006-4.597,0.002
	c-0.923,0.006-1.846,0.027-2.768,0.047c-0.831,0.017-1.664,0.025-2.495,0.041c0.103-0.271,0.21-0.538,0.318-0.806
	c0.018-0.015,0.04-0.021,0.058-0.038c0.173-0.173,0.246-0.431,0.224-0.678c0.084-0.211,0.171-0.42,0.248-0.634
	c0.127-0.353,0.263-0.701,0.37-1.06c0.134-0.448,0.201-0.912,0.158-1.379c-0.039-0.428-0.111-0.847-0.214-1.264
	c-0.16-0.637-0.327-1.276-0.578-1.884c-0.138-0.333-0.271-0.666-0.382-1.011c-0.046-0.143-0.067-0.292-0.102-0.437
	C13.265,3.613,14.718,3.553,16.174,3.577z M9.241,21.068c-0.433-0.381-0.812-0.817-1.171-1.266c-0.404-0.535-0.8-1.07-1.131-1.656
	c-0.332-0.587-0.616-1.197-0.89-1.812c-0.253-0.652-0.404-1.325-0.51-2.014c-0.033-0.312-0.055-0.624-0.058-0.938
	c-0.005-0.299,0.017-0.596,0.048-0.894c0.042-0.259,0.096-0.511,0.184-0.758c0.059-0.122,0.124-0.236,0.202-0.346
	c0.135-0.162,0.273-0.317,0.431-0.455c0.165-0.106,0.344-0.187,0.524-0.264c0.378-0.142,0.76-0.267,1.156-0.345
	c0.127-0.007,0.253-0.004,0.38,0.006c0.24,0.049,0.469,0.133,0.695,0.226c0.141,0.065,0.273,0.14,0.401,0.226
	c0.363,0.301,0.711,0.62,1.062,0.936c-0.185,0.477-0.374,0.951-0.541,1.435c-0.13,0.378-0.245,0.752-0.327,1.143
	c-0.078,0.368-0.173,0.734-0.245,1.104c-0.086,0.438-0.125,0.884-0.162,1.331c-0.029,0.343-0.088,0.686-0.093,1.032
	c-0.008,0.39,0.002,0.773,0.043,1.161c0.043,0.43,0.125,0.859,0.206,1.283c0.089,0.461,0.22,0.913,0.371,1.358
	C9.623,21.396,9.429,21.235,9.241,21.068z M21.965,28.379c-0.325-0.006-0.649-0.012-0.972-0.012
	c-0.625,0.002-1.25,0.012-1.876,0.027c-0.662,0.018-1.324,0.025-1.989,0.025c-0.589-0.002-1.184-0.009-1.771-0.061
	c-0.032-0.417,0.002-0.839,0.036-1.258c1.159,0.024,2.32,0.011,3.479,0.044c1.081,0.032,2.164,0.026,3.245,0.024
	c0.014,0.407,0.078,0.812,0.115,1.219C22.144,28.384,22.054,28.381,21.965,28.379z M24.496,23.821
	c-0.012,0.016-0.024,0.032-0.037,0.048c0.02-0.026,0.04-0.052,0.06-0.078c-0.01,0.013-0.019,0.026-0.029,0.038
	C24.492,23.826,24.494,23.823,24.496,23.821z M26.552,18.824c-0.196,1.056-0.573,2.079-0.971,3.075
	c-0.292,0.655-0.625,1.315-1.059,1.888c-0.286,0.341-0.592,0.662-0.923,0.96c-0.164,0.146-0.339,0.279-0.506,0.419
	c-0.141,0.118-0.273,0.244-0.413,0.364c-0.062,0.042-0.125,0.081-0.192,0.116c-0.011,0.006-0.017,0.017-0.028,0.024
	c-0.013,0-0.024-0.008-0.037-0.007c-0.43,0.012-0.861,0.012-1.293,0.01c-0.179,0-0.358,0-0.538,0c-0.573,0-1.145,0-1.718-0.008
	c-1.181-0.017-2.363-0.067-3.544-0.108c-0.014-0.015-0.019-0.036-0.035-0.049c-0.489-0.414-1.09-0.657-1.603-1.034
	c-0.217-0.17-0.436-0.34-0.633-0.532c-0.186-0.185-0.355-0.387-0.519-0.592c-0.457-0.6-0.859-1.229-1.18-1.912
	c-0.154-0.384-0.287-0.777-0.399-1.175c-0.126-0.451-0.203-0.913-0.268-1.376c-0.046-0.466-0.062-0.938-0.01-1.404
	c0.05-0.452,0.089-0.906,0.138-1.358c0.059-0.367,0.147-0.721,0.236-1.083c0.052-0.212,0.1-0.425,0.151-0.636
	c0.017,0.001,0.031,0.01,0.048,0.009c1.638-0.052,3.276-0.158,4.914-0.138c1.535,0.016,3.07,0.01,4.604,0.01
	c0.884-0.002,1.767,0,2.651,0.004c0.446,0.004,0.894,0,1.34,0.004c0.422,0.002,0.842,0.02,1.262,0.021
	c0.192,0.583,0.35,1.177,0.447,1.784C26.574,17.004,26.646,17.915,26.552,18.824z M25.141,17.047
	c0.062,0.691,0.148,1.422-0.031,2.105c-0.173,0.653-0.44,1.293-0.723,1.905c-0.243,0.524-0.501,1.046-0.83,1.523
	c-0.189,0.275-0.388,0.547-0.61,0.799c-0.162,0.185-0.343,0.353-0.514,0.528c-0.314,0.317-0.845,0.313-1.159,0
	c-0.154-0.154-0.24-0.362-0.24-0.581c0-0.199,0.08-0.446,0.24-0.579c0.299-0.248,0.569-0.512,0.811-0.813
	c0.434-0.602,0.768-1.281,1.062-1.961c0.186-0.448,0.374-0.915,0.462-1.393c0.028-0.512-0.044-1.026-0.092-1.534
	c-0.021-0.204,0.097-0.434,0.238-0.574c0.15-0.152,0.358-0.238,0.573-0.238s0.423,0.086,0.575,0.238
	C25.065,16.636,25.12,16.825,25.141,17.047z"/>
</svg>