<?xml version="1.0" encoding="utf-8"?>
<!-- Generator: Adobe Illustrator 21.1.0, SVG Export Plug-In . SVG Version: 6.00 Build 0)  -->
<svg version="1.1" id="designs" xmlns="http://www.w3.org/2000/svg" xmlns:xlink="http://www.w3.org/1999/xlink" x="0px" y="0px"
	 width="32px" height="32px" viewBox="0 0 32 32" style="enable-background:new 0 0 32 32;" xml:space="preserve">
<style type="text/css">
	.sketchy_een{fill:#111918;}
</style>
<path class="sketchy_een" d="M9.021,6.074c0-0.431,0.364-0.795,0.795-0.795c0.431,0,0.795,0.364,0.795,0.795S10.248,6.87,9.817,6.87
	C9.386,6.87,9.021,6.506,9.021,6.074z M12.148,9.982c-0.023-0.386-0.036-0.892,0.067-1.386c0.098-0.471,0.263-0.916,0.49-1.323
	c0.199-0.353,0.446-0.759,0.779-1.088c0.553-0.555,1.356-0.945,2.386-1.162c0.084-0.018,0.166-0.027,0.244-0.027
	c0.158,0,0.3,0.038,0.432,0.115c0.033,0.02,0.065,0.041,0.095,0.065c0.256,0.04,0.489,0.08,0.711,0.146
	c0.139,0.042,0.273,0.103,0.407,0.163l0.129,0.058c0.465,0.195,0.821,0.416,1.094,0.674c0.289,0.279,0.515,0.595,0.689,0.964
	c0.164,0.348,0.304,0.74,0.44,1.233c0.129,0.48,0.233,0.912,0.19,1.346c-0.016,0.164-0.034,0.33-0.063,0.492
	c-0.028,0.153-0.094,0.306-0.165,0.463c-0.066,0.145-0.136,0.297-0.228,0.431c-0.11,0.162-0.227,0.321-0.357,0.467
	c-0.084,0.095-0.181,0.175-0.278,0.256c-0.356,0.291-0.75,0.601-1.178,0.87c-0.29,0.181-0.69,0.321-1.154,0.405
	c-0.254,0.047-0.512,0.081-0.769,0.105c-0.048,0.004-0.095,0.005-0.143,0.005c-0.094,0-0.187-0.006-0.281-0.012
	c-0.661-0.04-1.112-0.146-1.519-0.345c-0.316-0.153-0.595-0.385-0.865-0.61c-0.151-0.126-0.302-0.261-0.427-0.421l-0.073-0.092
	c-0.124-0.154-0.252-0.314-0.329-0.487l-0.042-0.093c-0.082-0.179-0.175-0.382-0.207-0.571
	C12.186,10.411,12.159,10.197,12.148,9.982z M13.898,9.063c-0.025,0.382-0.024,0.726,0.003,1.058
	c0.023,0.108,0.053,0.206,0.088,0.303c0.058,0.116,0.125,0.22,0.197,0.321c0.187,0.217,0.401,0.398,0.567,0.532
	c0.094,0.065,0.188,0.118,0.29,0.165c0.153,0.06,0.308,0.112,0.465,0.143c0.138,0.026,0.277,0.049,0.416,0.069
	c0.082,0.009,0.163,0.013,0.245,0.013c0.116,0,0.233-0.008,0.349-0.02c0.21-0.036,0.421-0.079,0.621-0.146
	c0.211-0.104,0.422-0.237,0.674-0.42c0.173-0.139,0.34-0.283,0.486-0.446c0.124-0.178,0.222-0.358,0.312-0.551
	c0.038-0.104,0.065-0.204,0.085-0.308c0.006-0.108,0.007-0.206,0.001-0.306c-0.074-0.391-0.21-0.754-0.319-1.027
	c-0.106-0.238-0.236-0.515-0.414-0.774c-0.079-0.091-0.16-0.172-0.245-0.248c-0.246-0.175-0.507-0.325-0.802-0.462
	c-0.245-0.088-0.498-0.153-0.801-0.207l-0.009-0.001h-0.023c-0.225,0.041-0.45,0.087-0.666,0.16
	c-0.189,0.094-0.365,0.197-0.536,0.311c-0.09,0.08-0.167,0.16-0.242,0.246c-0.202,0.281-0.381,0.578-0.534,0.887
	C14.018,8.587,13.945,8.821,13.898,9.063z M21.984,6.696c0.341,0,0.63-0.289,0.63-0.63s-0.289-0.63-0.63-0.63
	c-0.341,0-0.63,0.289-0.63,0.63S21.643,6.696,21.984,6.696z M9.954,25.366c-0.404,0-0.745,0.341-0.745,0.744
	c0,0.404,0.341,0.745,0.745,0.745s0.745-0.341,0.745-0.745C10.699,25.708,10.358,25.366,9.954,25.366z M22.179,25.316
	c-0.416,0-0.767,0.352-0.767,0.768c0,0.417,0.352,0.768,0.767,0.768c0.417,0,0.768-0.352,0.768-0.768
	C22.947,25.667,22.595,25.316,22.179,25.316z M25.903,21.275c0.003,0.592-0.007,1.184-0.017,1.776l-0.012,0.753
	c-0.02,1.61-0.039,3.275,0,4.91c0.004,0.211-0.08,0.415-0.236,0.574c-0.161,0.163-0.377,0.257-0.597,0.257
	c-0.081,0-0.167-0.018-0.274-0.058c-0.115,0.025-0.185,0.049-0.261,0.053c-0.339,0.021-0.68,0.027-1.021,0.034
	c-0.24,0.004-0.48,0.009-0.72,0.019c-0.415,0.017-0.83,0.026-1.245,0.036l-0.366,0.009c-0.316,0.008-0.63,0.024-0.945,0.04
	c-0.264,0.013-0.528,0.026-0.793,0.036c-0.449,0.015-0.9,0.023-1.349,0.031l-0.395,0.007c-1.66,0.035-3.321,0.052-4.98,0.066
	c-1.569,0.012-3.239,0.061-5.256,0.155c0,0-0.001,0-0.002,0c-0.043,0-0.076-0.009-0.111-0.019C7.145,29.982,7.062,30,6.984,30
	c-0.42,0-0.776-0.355-0.776-0.776c0-0.483-0.006-0.966-0.013-1.449c-0.007-0.518-0.014-1.036-0.013-1.555
	c0-0.972-0.002-1.947-0.019-2.919c-0.064-3.35-0.068-6.637-0.066-9.991v-1.849c-0.001-1.109-0.002-2.218,0.004-3.327
	c0.012-1.828,0.035-3.476,0.196-5.141c0.02-0.191,0.061-0.391,0.231-0.563c0.148-0.146,0.351-0.23,0.557-0.23l0.161,0.023
	c0.115-0.056,0.223-0.086,0.331-0.09C8.527,2.102,9.479,2.08,10.432,2.08l0.772,0.005c0.444,0.006,0.888,0.017,1.332,0.027
	c0.687,0.017,1.373,0.033,2.061,0.033c0.938,0,1.877-0.009,2.816-0.018c0.766-0.007,1.533-0.015,2.299-0.017l2.517-0.016
	C23.073,2.087,23.9,2.074,24.742,2c0.003,0,0.005,0,0.007,0c0.212,0,0.418,0.094,0.563,0.238l0.09,0.129
	c0.239,0.147,0.383,0.39,0.385,0.651c0.011,0.997,0.01,1.993,0.009,2.988C25.794,6.854,25.793,7.7,25.8,8.547
	c0.01,1.282,0.028,2.564,0.047,3.847c0.03,2.11,0.062,4.22,0.052,6.331C25.895,19.575,25.899,20.426,25.903,21.275z M24.303,13.435
	l-0.005-0.562c-0.012-1.491-0.025-2.981-0.013-4.472c0.012-1.577-0.012-3.153-0.037-4.729c-0.494-0.027-0.961-0.031-1.421-0.031
	c-0.167,0-4.65-0.023-4.65-0.023c-1.662-0.013-3.325-0.037-4.988-0.061l-0.205-0.003c-0.429-0.007-0.859-0.011-1.289-0.011
	c-0.43,0-0.86,0.004-1.29,0.015C9.557,3.578,8.708,3.612,7.859,3.646C7.716,4.724,7.667,5.515,7.655,6.254
	C7.637,7.261,7.624,8.267,7.62,9.274c-0.006,1.714-0.008,3.429-0.004,5.143l-0.004,1.659c-0.005,1.108-0.009,2.216,0.01,3.324
	c0.021,1.132,0.034,2.264,0.049,3.396l0.038,3.143c0.008,0.801,0.016,1.602,0.034,2.404c0.478,0.015,0.938,0.019,1.392,0.019
	c0.335,0,6.576-0.055,6.576-0.055c1.267-0.011,2.576-0.024,3.862-0.098l0.44-0.025c0.69-0.04,1.38-0.08,2.072-0.115l0.643-0.028
	c0.483-0.021,0.966-0.041,1.449-0.08c0.056-0.741,0.062-1.433,0.067-2.125c0.006-0.726,0.012-1.453,0.023-2.178
	c0.025-1.677,0.033-3.357,0.029-5.036c-0.002-0.754,0.003-1.508,0.007-2.263C24.305,15.384,24.311,14.409,24.303,13.435z
	 M21.558,20.7c-0.006,0.435-0.101,0.874-0.193,1.299c-0.122,0.551-0.287,0.999-0.515,1.4c-0.25,0.446-0.564,0.858-0.907,1.192
	c-0.153,0.152-0.319,0.284-0.487,0.419c-0.254,0.203-0.45,0.362-0.657,0.479c-0.465,0.267-0.913,0.445-1.335,0.529
	c-0.45,0.09-0.914,0.13-1.353,0.164c-0.077,0.005-0.154,0.007-0.232,0.007c0,0-0.339-0.003-0.343-0.003
	c-0.26,0-0.437-0.002-0.609-0.022c-0.453-0.051-0.931-0.116-1.361-0.29c-0.196-0.078-0.38-0.161-0.56-0.271l-0.162-0.1
	c-0.165-0.103-0.326-0.212-0.487-0.32c-0.234-0.154-0.479-0.325-0.689-0.525c-0.141-0.134-0.274-0.301-0.406-0.511
	c-0.247-0.391-0.429-0.838-0.61-1.301c-0.176-0.458-0.25-0.929-0.31-1.372c-0.051-0.393-0.055-0.796-0.013-1.198
	c0.092-0.874,0.418-1.762,0.968-2.641c0.289-0.46,0.554-0.882,0.884-1.234c0.139-0.151,0.288-0.29,0.437-0.429
	c0.21-0.198,0.422-0.398,0.655-0.544c0.353-0.223,0.774-0.399,1.326-0.554c0.419-0.119,0.868-0.126,1.302-0.134
	c0.001,0,0.002,0,0.002,0c0.187,0,0.338,0.047,0.47,0.136c0.211,0.015,0.396,0.025,0.581,0.039c0.364,0.028,0.71,0.118,1.034,0.208
	c0.474,0.132,0.859,0.289,1.174,0.481c0.384,0.23,0.671,0.583,0.95,0.924l0.064,0.079c0.343,0.418,0.697,0.85,0.888,1.396
	c0.143,0.408,0.255,0.822,0.332,1.231C21.475,19.632,21.563,20.16,21.558,20.7z M19.89,20.893c0.025-0.283,0.023-0.574-0.006-0.895
	c-0.088-0.562-0.211-1.061-0.375-1.531c-0.095-0.192-0.209-0.361-0.334-0.528c-0.224-0.281-0.444-0.554-0.702-0.783
	c-0.181-0.12-0.376-0.211-0.568-0.298c-0.523-0.208-1.004-0.345-1.469-0.42l-0.445-0.057l-0.575-0.015
	c-0.072,0-0.143,0.001-0.215,0.005c-0.242,0.05-0.471,0.126-0.696,0.208c-0.161,0.077-0.31,0.163-0.453,0.262
	c-0.322,0.265-0.62,0.558-0.89,0.872c-0.363,0.498-0.66,1.001-0.91,1.54c-0.127,0.336-0.222,0.693-0.285,1.065
	c-0.025,0.319-0.021,0.642,0.012,0.993c0.055,0.291,0.135,0.578,0.238,0.857c0.111,0.247,0.204,0.453,0.312,0.648
	c0.075,0.138,0.16,0.268,0.251,0.394c0.118,0.139,0.251,0.256,0.389,0.369c0.186,0.137,0.373,0.271,0.562,0.4
	c0.185,0.126,0.349,0.238,0.535,0.329c0.252,0.094,0.494,0.16,0.744,0.205c0.165,0.014,0.323,0.02,0.481,0.02
	c0.291,0,0.579-0.02,0.871-0.053c0.423-0.063,0.772-0.148,1.101-0.268c0.399-0.191,0.752-0.442,1.045-0.663
	c0.208-0.171,0.378-0.373,0.565-0.601c0.173-0.242,0.326-0.503,0.459-0.778c0.066-0.181,0.117-0.361,0.169-0.541l0.048-0.169
	C19.804,21.271,19.854,21.084,19.89,20.893z M17.933,19.097c-0.415,0-0.764,0.35-0.764,0.849c-0.001,0.152-0.001,0.303-0.014,0.461
	c-0.023,0.115-0.054,0.227-0.096,0.342c-0.108,0.233-0.251,0.469-0.426,0.702c-0.14,0.184-0.281,0.367-0.457,0.525
	c-0.04,0.027-0.081,0.051-0.147,0.083c-0.182,0.048-0.335,0.167-0.433,0.336c-0.098,0.17-0.125,0.372-0.074,0.556
	c0.049,0.18,0.17,0.338,0.333,0.433c0.109,0.064,0.227,0.096,0.351,0.096c0.125,0,0.255-0.033,0.385-0.098
	c0.307-0.15,0.539-0.301,0.752-0.49c0.109-0.094,0.2-0.207,0.291-0.319l0.066-0.08c0.164-0.197,0.324-0.396,0.469-0.607
	c0.434-0.636,0.511-1.417,0.529-2.027c0.005-0.191-0.07-0.376-0.211-0.522C18.339,19.185,18.137,19.097,17.933,19.097z"/>
</svg>