<?xml version="1.0" encoding="utf-8"?>
<!-- Generator: Adobe Illustrator 21.1.0, SVG Export Plug-In . SVG Version: 6.00 Build 0)  -->
<svg version="1.1" id="designs" xmlns="http://www.w3.org/2000/svg" xmlns:xlink="http://www.w3.org/1999/xlink" x="0px" y="0px"
	 width="32px" height="32px" viewBox="0 0 32 32" style="enable-background:new 0 0 32 32;" xml:space="preserve">
<style type="text/css">
	.sketchy_een{fill:#111918;}
</style>
<path class="sketchy_een" d="M28.801,28.588c-0.007-0.973-0.055-1.946-0.086-2.917c-0.038-1.13-0.056-2.26-0.068-3.39
	c-0.006-0.439-0.363-0.806-0.806-0.806c-0.06,0-0.113,0.022-0.17,0.035c-0.057-0.013-0.11-0.038-0.169-0.038
	c-0.009,0-0.017,0-0.026,0c-0.084,0.003-0.168,0.003-0.252,0.006c-0.001-0.007-0.003-0.014-0.004-0.021
	c-0.034-0.185-0.066-0.367-0.095-0.552c-0.068-0.389-0.137-0.778-0.195-1.17c-0.115-0.794-0.232-1.587-0.373-2.375
	c-0.149-0.842-0.324-1.676-0.495-2.514c-0.161-0.775-0.27-1.559-0.421-2.335c-0.346-1.768-0.68-3.539-1.011-5.309
	c0.086-0.129,0.148-0.274,0.141-0.437c-0.026-0.62-0.101-1.239-0.095-1.859c0.008-0.665,0.018-1.33,0.022-1.994
	c0.002-0.449-0.377-0.824-0.824-0.824c-0.071,0-0.136,0.024-0.202,0.042c-0.053-0.011-0.103-0.032-0.159-0.03
	c-1.581,0.058-3.163,0.024-4.746,0.008c-0.802-0.008-1.607-0.034-2.409-0.05c-0.842-0.018-1.682-0.018-2.522-0.018
	C11.62,2.044,9.406,2.01,7.19,2C7.189,2,7.188,2,7.187,2C6.741,2,6.37,2.375,6.37,2.818c0,0.135,0.043,0.259,0.103,0.373
	C6.472,3.203,6.466,3.213,6.466,3.224C6.464,3.971,6.5,4.716,6.559,5.458c0.026,0.338,0.058,0.675,0.091,1.011
	c0.044,0.429,0.073,0.872,0.175,1.289c0.032,0.133,0.107,0.241,0.197,0.334c-0.157,0.978-0.315,1.955-0.453,2.935
	c-0.068,0.475-0.129,0.951-0.188,1.427c-0.017,0.066-0.025,0.133-0.024,0.198c-0.086,0.702-0.168,1.404-0.256,2.106
	c-0.171,1.238-0.354,2.475-0.511,3.715c-0.139,1.094-0.285,2.19-0.389,3.289c-0.266,0-0.532,0.005-0.797,0.007
	c-0.156,0.001-0.294,0.057-0.42,0.132c-0.011,0-0.021-0.007-0.033-0.007c-0.445,0-0.814,0.371-0.816,0.816
	c-0.004,1.124,0.016,2.248,0.016,3.37c0,1.003,0,2.01,0.066,3.008c0.028,0.429,0.338,0.788,0.786,0.788
	c0.034,0,0.067-0.016,0.101-0.021c0.131,0.091,0.279,0.155,0.444,0.14c0.925-0.081,1.849-0.145,2.778-0.157
	c0.884-0.012,1.767-0.038,2.651-0.052c0.874-0.016,1.748-0.006,2.619-0.004c0.878,0,1.753-0.006,2.631,0.004
	c1.745,0.016,3.491,0.024,5.235,0.016c0.854-0.004,1.708,0.008,2.56,0.028c0.421,0.01,0.842,0.022,1.263,0.03
	c0.401,0.01,0.802-0.012,1.203-0.026c0.435-0.014,0.868-0.03,1.303-0.04c0.185-0.006,0.371-0.01,0.558-0.014
	c0.208-0.004,0.419-0.022,0.628-0.004c0.391,0.036,0.765-0.298,0.864-0.657C28.89,28.94,28.862,28.757,28.801,28.588z M17.401,3.64
	c1.886,0.035,3.77,0.006,5.656-0.006c0.005,0.402,0.01,0.805,0.014,1.208c0.005,0.546,0.027,1.091,0.037,1.637
	c-0.083,0.006-0.164,0.015-0.237,0.035c-0.048,0.013-0.099,0.033-0.15,0.056c-0.731,0.037-1.464,0.041-2.197,0.059
	c-0.804,0.02-1.609,0.062-2.413,0.072c-0.82,0.012-1.64,0.026-2.462,0.022c-0.836-0.004-1.672-0.002-2.506,0.002
	c-1.608,0.009-3.216,0.017-4.822,0.02C8.196,5.712,8.156,4.671,8.158,3.631c1.441-0.013,2.882-0.036,4.322-0.036
	C14.121,3.593,15.761,3.609,17.401,3.64z M7.229,17.783c0.013-0.097,0.026-0.195,0.039-0.292c-0.001,0.011-0.003,0.023-0.004,0.034
	c0.097-0.713,0.206-1.424,0.31-2.137c0.212-1.461,0.361-2.925,0.6-4.383c0.146-0.897,0.318-1.789,0.479-2.683
	c1.545-0.025,3.089-0.079,4.634-0.094c0.665-0.004,1.331,0.004,1.996,0.012c0.965,0.012,1.932,0.024,2.899-0.008
	c0.788-0.024,1.575-0.067,2.363-0.079c0.284-0.004,0.57-0.004,0.854-0.002c0.471,0,0.943,0.001,1.412-0.024
	c0.02,0.007,0.04,0.013,0.059,0.02c0.092,0.03,0.194,0.031,0.295,0.026c0.147,0.731,0.298,1.461,0.461,2.189
	c0.187,0.828,0.342,1.662,0.502,2.496c0.151,0.782,0.254,1.575,0.413,2.355c0.171,0.826,0.347,1.652,0.494,2.486
	c0.141,0.788,0.25,1.579,0.359,2.373c0.065,0.483,0.151,0.964,0.235,1.445c-1.027,0.029-2.053,0.065-3.081,0.077
	c-1.767,0.02-3.533,0.032-5.3,0.03c-1.72,0-3.439,0-5.159,0.008c-1.755,0.008-3.511,0.058-5.28,0.115
	c0.087-1.352,0.248-2.698,0.429-4.041C7.237,17.733,7.233,17.758,7.229,17.783z M25.727,28.081c-0.82,0.042-1.638,0.073-2.458,0.079
	c-0.86,0.006-1.72,0.01-2.578,0.012c-0.85,0.002-1.7,0.02-2.55,0.022c-1.734,0.004-3.467,0.016-5.201-0.002
	c-0.911-0.01-1.823-0.014-2.734-0.008c-0.87,0.006-1.738,0.042-2.605,0.038c-0.951-0.005-1.897,0.021-2.844,0.092
	c-0.028-0.721-0.029-1.444-0.027-2.164c0.002-0.9,0.018-1.8,0.03-2.7c1.671-0.037,3.342-0.106,5.013-0.139
	c1.728-0.034,3.457-0.024,5.183-0.008c3.481,0.032,6.966,0.032,10.445-0.054c0.557-0.014,1.112-0.026,1.667-0.038
	c0.026,0.82,0.055,1.641,0.081,2.461c0.016,0.5,0.028,1.001,0.052,1.499c0.012,0.271,0.017,0.542,0.027,0.813
	c-0.102,0.008-0.205,0.011-0.305,0.019C26.523,28.034,26.126,28.059,25.727,28.081z M20.159,25.237
	c0.107,0.385-0.127,0.886-0.546,0.965c-0.51,0.095-1.039,0.044-1.553,0.04c-0.522-0.006-1.043,0.004-1.565,0.006
	c-1.146,0.004-2.292,0.057-3.437,0.064c-0.435,0.002-0.798-0.365-0.798-0.798c0-0.435,0.363-0.802,0.798-0.798
	c1.126,0.006,2.252,0.006,3.378,0c0.528-0.004,1.058-0.01,1.587-0.02c0.25-0.006,0.502-0.012,0.755-0.018
	c0.065,0,0.133,0,0.201,0.002c0.127,0.002,0.254,0.004,0.381-0.012c-0.014,0.002-0.027,0.004-0.041,0.006
	c0.168-0.015,0.323,0.002,0.482,0.095C19.974,24.87,20.105,25.041,20.159,25.237z M15.051,14.813c0-0.471,0.393-0.864,0.864-0.864
	c0.471,0,0.864,0.393,0.864,0.864s-0.393,0.864-0.864,0.864C15.444,15.677,15.051,15.284,15.051,14.813z M14.966,17.795
	c0-0.453,0.379-0.832,0.832-0.832c0.453,0,0.832,0.379,0.832,0.832c0,0.453-0.379,0.832-0.832,0.832
	C15.346,18.627,14.966,18.247,14.966,17.795z M15.124,11.55c0-0.461,0.385-0.846,0.846-0.846c0.461,0,0.846,0.385,0.846,0.846
	c0,0.461-0.385,0.846-0.846,0.846C15.509,12.396,15.124,12.01,15.124,11.55z M11.939,14.868c0-0.439,0.365-0.804,0.804-0.804
	c0.439,0,0.804,0.365,0.804,0.804s-0.365,0.804-0.804,0.804C12.304,15.672,11.939,15.306,11.939,14.868z M11.953,11.538
	c0-0.441,0.367-0.808,0.808-0.808c0.441,0,0.808,0.367,0.808,0.808s-0.367,0.808-0.808,0.808
	C12.321,12.346,11.953,11.979,11.953,11.538z M11.928,17.868c0-0.471,0.393-0.864,0.864-0.864s0.864,0.393,0.864,0.864
	c0,0.471-0.393,0.864-0.864,0.864S11.928,18.339,11.928,17.868z M19.842,17.899c0,0.453-0.377,0.83-0.83,0.83s-0.83-0.377-0.83-0.83
	s0.377-0.83,0.83-0.83S19.842,17.446,19.842,17.899z M18.032,14.8c0-0.471,0.393-0.864,0.864-0.864s0.864,0.393,0.864,0.864
	s-0.393,0.864-0.864,0.864S18.032,15.271,18.032,14.8z M18.288,11.612c0-0.433,0.359-0.792,0.792-0.792
	c0.433,0,0.792,0.359,0.792,0.792s-0.359,0.792-0.792,0.792C18.647,12.404,18.288,12.044,18.288,11.612z"/>
</svg>