<?xml version="1.0" encoding="utf-8"?>
<!-- Generator: Adobe Illustrator 21.1.0, SVG Export Plug-In . SVG Version: 6.00 Build 0)  -->
<svg version="1.1" id="designs" xmlns="http://www.w3.org/2000/svg" xmlns:xlink="http://www.w3.org/1999/xlink" x="0px" y="0px"
	 width="32px" height="32px" viewBox="0 0 32 32" style="enable-background:new 0 0 32 32;" xml:space="preserve">
<style type="text/css">
	.sketchy_een{fill:#111918;}
</style>
<path class="sketchy_een" d="M27.734,23.304c-0.061-0.479-0.181-0.929-0.368-1.374c-0.097-0.231-0.194-0.459-0.332-0.669
	c-0.152-0.229-0.323-0.448-0.502-0.658c-0.296-0.344-0.683-0.628-1.051-0.89c-0.301-0.215-0.629-0.391-0.943-0.592
	c-0.028-0.018-0.055-0.037-0.082-0.056c-0.086-0.075-0.168-0.154-0.245-0.239c-0.068-0.101-0.129-0.206-0.184-0.315
	c-0.037-0.111-0.065-0.223-0.086-0.337c-0.014-0.179-0.014-0.354,0-0.532c0.046-0.253,0.118-0.498,0.209-0.739
	c0.329-0.727,0.779-1.389,1.075-2.132c0.187-0.47,0.301-0.947,0.348-1.449c0.045-0.497,0.011-0.992-0.068-1.483
	c-0.072-0.448-0.23-0.861-0.461-1.254c-0.226-0.386-0.529-0.723-0.839-1.042c-0.276-0.282-0.583-0.535-0.89-0.784
	c-0.341-0.278-0.681-0.59-1.074-0.794c-0.359-0.187-0.735-0.357-1.123-0.473c-0.389-0.118-0.786-0.212-1.182-0.302
	c-0.341-0.079-0.687-0.129-1.028-0.206c-0.127-0.029-0.251-0.065-0.377-0.097c-0.009-0.265-0.019-0.529-0.023-0.794
	c-0.009-0.502,0-1.006,0.002-1.508c0-0.039-0.017-0.072-0.022-0.109c0.099-0.005,0.197-0.011,0.296-0.016
	c0.396-0.02,0.73-0.318,0.73-0.73C19.514,3.365,19.203,3,18.822,3c-0.013,0-0.025,0-0.038,0.001
	c-0.967,0.063-1.937,0.104-2.905,0.106c-1.006,0.004-2.012-0.025-3.018-0.03c-0.429-0.004-0.786,0.359-0.786,0.783
	c0,0.427,0.357,0.788,0.786,0.786c0.018,0,0.035-0.001,0.053-0.001c-0.022,0.118-0.025,0.239-0.004,0.37
	c0.022,0.133,0.042,0.266,0.062,0.399c0.05,0.422,0.076,0.842,0.096,1.265c-0.071,0.003-0.142,0.002-0.212,0.005
	c-0.866,0.043-1.706,0.226-2.547,0.421c-0.366,0.084-0.73,0.174-1.09,0.28C8.791,7.51,8.38,7.674,7.978,7.864
	C7.79,7.953,7.607,8.052,7.43,8.16C7.227,8.285,7.042,8.447,6.861,8.601C6.562,8.852,6.278,9.133,6.024,9.428
	C5.73,9.767,5.45,10.12,5.2,10.493c-0.258,0.384-0.452,0.818-0.594,1.257c-0.183,0.57-0.194,1.178-0.104,1.765
	c0.07,0.466,0.213,0.913,0.447,1.323c0.443,0.784,1.092,1.385,1.688,2.045c0.046,0.05,0.089,0.102,0.132,0.155
	c0.153,0.205,0.294,0.417,0.408,0.647c0.024,0.075,0.045,0.149,0.062,0.226c0.002,0.063,0.001,0.125-0.003,0.188
	c-0.026,0.117-0.058,0.23-0.098,0.344c-0.105,0.213-0.223,0.414-0.36,0.608c-0.237,0.275-0.504,0.515-0.777,0.755
	c-0.135,0.118-0.269,0.235-0.402,0.357c-0.183,0.169-0.334,0.346-0.486,0.543c-0.567,0.735-0.771,1.715-0.847,2.622
	c-0.036,0.416-0.059,0.836-0.056,1.253c0.004,0.423,0.036,0.845,0.057,1.266c0.018,0.355,0.038,0.71,0.054,1.065
	c0.022,0.425,0.027,0.847,0.102,1.266c0.005,0.023,0.009,0.047,0.014,0.068c0.039,0.21,0.182,0.372,0.363,0.473
	c0.137,0.161,0.334,0.27,0.56,0.273C6.133,29.003,6.905,29,7.676,28.996c0.682-0.002,1.363-0.002,2.043-0.023
	c0.726-0.02,1.453-0.025,2.177-0.039c0.717-0.014,1.433-0.052,2.15-0.066c1.426-0.029,2.855-0.02,4.281-0.025
	c1.372-0.005,2.744-0.018,4.116-0.023c0.676-0.002,1.356-0.016,2.03,0.025c0.285,0.016,0.569,0.049,0.852,0.074
	c0.375,0.036,0.753,0.05,1.13,0.048c0.302,0,0.567-0.189,0.679-0.455c0.288-0.111,0.481-0.391,0.499-0.716
	c0.039-0.714,0.059-1.428,0.099-2.143C27.777,24.872,27.831,24.084,27.734,23.304z M15.879,4.596
	c0.364-0.007,0.727-0.026,1.09-0.044c0,0.011-0.007,0.021-0.007,0.032c0,0.482,0.011,0.965,0.034,1.449
	c0.011,0.233,0.023,0.466,0.032,0.699c-0.213,0.01-0.426,0.024-0.64,0.026c-0.366,0.005-0.73-0.039-1.096-0.056
	c-0.235-0.01-0.474-0.012-0.711-0.019c-0.007-0.238-0.012-0.477-0.026-0.716c-0.028-0.452-0.078-0.9-0.145-1.348
	C14.9,4.611,15.389,4.606,15.879,4.596z M6.713,14.332c-0.145-0.201-0.275-0.409-0.39-0.627c-0.081-0.222-0.139-0.448-0.178-0.681
	C6.13,12.849,6.128,12.676,6.14,12.5c0.039-0.225,0.095-0.443,0.174-0.658c0.17-0.358,0.383-0.685,0.618-1.003
	c0.362-0.451,0.76-0.872,1.205-1.243c0.271-0.193,0.56-0.341,0.862-0.48c0.505-0.199,1.03-0.334,1.56-0.464
	c0.553-0.135,1.11-0.261,1.674-0.343c0.896-0.096,1.809-0.061,2.707-0.035c0.429,0.012,0.857,0.043,1.288,0.041
	c0.454-0.003,0.908-0.015,1.362-0.035c0.551,0.137,1.103,0.267,1.662,0.371c0.604,0.112,1.202,0.272,1.776,0.492
	c0.24,0.111,0.462,0.238,0.678,0.392c0.586,0.467,1.152,0.973,1.636,1.542c0.125,0.175,0.235,0.356,0.331,0.547
	c0.07,0.197,0.119,0.396,0.155,0.604c0.044,0.4,0.057,0.794,0.019,1.195c-0.056,0.301-0.142,0.59-0.25,0.878
	c-0.262,0.567-0.608,1.089-0.868,1.657c-0.151,0.328-0.292,0.662-0.387,1.012c-0.025,0.094-0.037,0.192-0.054,0.288
	c-0.093-0.043-0.194-0.07-0.302-0.07c-0.099-0.001-0.199-0.001-0.298-0.001c-0.382,0-0.764,0.014-1.145,0.025
	c-0.033-0.657-0.107-1.308-0.235-1.958c-0.075-0.389-0.186-0.766-0.35-1.13c-0.152-0.335-0.382-0.631-0.629-0.902
	c-0.222-0.244-0.459-0.452-0.723-0.649c-0.262-0.194-0.563-0.319-0.879-0.396c-0.285-0.07-0.586-0.093-0.881-0.115
	c-0.24-0.017-0.482-0.035-0.724-0.025c-0.013-0.009-0.027-0.017-0.041-0.025c-0.129-0.075-0.254-0.101-0.386-0.101
	c-0.075,0-0.152,0.008-0.233,0.021c-0.4,0.061-0.803,0.117-1.2,0.196c-0.176,0.036-0.348,0.086-0.515,0.152
	c-0.163,0.066-0.326,0.131-0.481,0.219c-0.213,0.12-0.409,0.292-0.583,0.466c-0.409,0.411-0.649,0.965-0.836,1.505
	c-0.131,0.375-0.199,0.771-0.26,1.162c-0.082,0.521-0.126,1.045-0.153,1.569c-0.853-0.002-1.707-0.018-2.56-0.037
	C8.515,16.049,7.452,15.231,6.713,14.332z M18.937,19.343c-0.079,0.508-0.183,1.012-0.363,1.494
	c-0.101,0.226-0.213,0.445-0.351,0.651c-0.077,0.089-0.157,0.173-0.243,0.252c-0.112,0.076-0.228,0.142-0.35,0.202
	c-0.098,0.034-0.197,0.061-0.299,0.081c-0.386,0.041-0.778,0.052-1.166,0.057c-0.34,0.007-0.676-0.005-1.014-0.041
	c-0.244-0.043-0.479-0.105-0.712-0.191c-0.167-0.08-0.326-0.171-0.479-0.275c-0.131-0.115-0.249-0.239-0.365-0.37
	c-0.107-0.153-0.196-0.312-0.276-0.48c-0.091-0.265-0.15-0.534-0.193-0.81c-0.142-1.258-0.146-2.528-0.001-3.786
	c0.071-0.473,0.176-0.933,0.331-1.387c0.089-0.195,0.189-0.382,0.311-0.559c0.074-0.083,0.152-0.158,0.235-0.23
	c0.098-0.065,0.198-0.119,0.302-0.168c0.483-0.166,0.994-0.215,1.498-0.284c0.073,0.024,0.15,0.034,0.23,0.029
	c0.357-0.025,0.72,0.005,1.076,0.045c0.156,0.025,0.309,0.058,0.457,0.107c0.089,0.047,0.173,0.1,0.255,0.158
	c0.209,0.175,0.398,0.367,0.573,0.577c0.092,0.128,0.173,0.26,0.243,0.401c0.176,0.467,0.268,0.954,0.342,1.447
	C19.1,17.288,19.064,18.321,18.937,19.343z M23.517,27.438c-0.001,0.009,0,0.017-0.001,0.026c-0.001,0-0.002,0-0.002,0
	c0.002-0.013,0.003-0.027,0.005-0.04C23.518,27.429,23.517,27.433,23.517,27.438z M25.118,27.481
	c0.024-0.262,0.036-0.525,0.04-0.787c0.005-0.396-0.004-0.793-0.05-1.185c-0.056-0.443-0.136-0.881-0.235-1.316
	c-0.152-0.685-0.416-1.327-0.82-1.906c-0.124-0.179-0.269-0.314-0.484-0.373c-0.07-0.019-0.142-0.029-0.214-0.029
	c-0.143,0-0.285,0.038-0.41,0.112c-0.181,0.106-0.316,0.282-0.371,0.484c-0.054,0.194-0.039,0.454,0.081,0.624
	c0.192,0.27,0.358,0.542,0.498,0.839c0.149,0.418,0.25,0.845,0.325,1.283c0.046,0.393,0.068,0.789,0.068,1.183
	c-0.002,0.215-0.021,0.431-0.03,0.646c-0.006,0.137-0.008,0.274-0.014,0.41c-0.037,0-0.073,0-0.11,0
	c-0.291,0.004-0.583,0.007-0.873,0.005c-1.377-0.005-2.757-0.02-4.136-0.022c-1.198-0.002-2.398-0.012-3.598-0.012
	c-0.222,0-0.445,0-0.667,0.001c-0.705,0.004-1.408,0.036-2.113,0.049c-0.743,0.014-1.483,0.011-2.224,0.034
	c-1.267,0.04-2.532,0.022-3.798-0.001c-0.007-0.223-0.008-0.446-0.008-0.668c0.002-0.398,0-0.798-0.011-1.198
	c-0.022-0.848-0.026-1.691,0.074-2.533c0.053-0.326,0.13-0.642,0.241-0.953c0.079-0.166,0.169-0.324,0.273-0.475
	c0.4-0.45,0.89-0.809,1.303-1.247c0.267-0.282,0.509-0.606,0.696-0.947c0.144-0.262,0.265-0.539,0.349-0.826
	c0.347,0.002,0.694,0.002,1.041,0c0.496-0.002,0.992-0.004,1.488,0.002c0.023,0.579,0.067,1.157,0.149,1.731
	c0.059,0.414,0.19,0.789,0.361,1.171c0.172,0.386,0.464,0.726,0.759,1.026c0.56,0.567,1.345,0.902,2.125,1.012
	c0.389,0.056,0.778,0.091,1.173,0.093c0.368,0.003,0.735-0.012,1.103-0.038c0.233-0.015,0.472-0.041,0.699-0.095
	c0.233-0.056,0.452-0.158,0.665-0.262c0.454-0.219,0.823-0.595,1.101-1.008c0.239-0.348,0.405-0.757,0.549-1.151
	c0.134-0.366,0.203-0.755,0.267-1.137c0.071-0.422,0.118-0.849,0.15-1.278c0.485-0.029,0.969-0.061,1.454-0.07
	c0.1-0.002,0.195-0.024,0.282-0.061c0.112,0.585,0.393,1.126,0.798,1.572c0.442,0.487,1.063,0.779,1.595,1.159
	c0.294,0.24,0.558,0.496,0.799,0.787c0.124,0.181,0.228,0.369,0.324,0.568c0.122,0.312,0.216,0.629,0.273,0.96
	c0.069,0.709,0.061,1.412,0.05,2.125c-0.004,0.31-0.005,0.62-0.007,0.933c-0.003,0.259-0.006,0.521-0.008,0.781
	c-0.241,0.001-0.482,0.004-0.722-0.001C25.287,27.488,25.202,27.484,25.118,27.481z"/>
</svg>