<?xml version="1.0" encoding="utf-8"?>
<!-- Generator: Adobe Illustrator 21.1.0, SVG Export Plug-In . SVG Version: 6.00 Build 0)  -->
<svg version="1.1" id="designs" xmlns="http://www.w3.org/2000/svg" xmlns:xlink="http://www.w3.org/1999/xlink" x="0px" y="0px"
	 width="32px" height="32px" viewBox="0 0 32 32" style="enable-background:new 0 0 32 32;" xml:space="preserve">
<style type="text/css">
	.sketchy_een{fill:#111918;}
</style>
<path class="sketchy_een" d="M26.791,19.302c-0.158-0.882-0.402-1.771-0.752-2.595c-0.205-0.486-0.512-0.899-0.844-1.304
	c-0.087-0.106-0.184-0.205-0.272-0.311c0.345-0.031,0.689-0.07,1.033-0.117c0.131-0.038,0.246-0.103,0.342-0.199
	c0.144-0.144,0.227-0.343,0.227-0.548c0-0.118-0.032-0.226-0.08-0.326c0.046-0.1,0.076-0.208,0.077-0.324
	c0.006-0.938,0.101-1.873,0.124-2.809c0.003-0.123-0.03-0.237-0.081-0.342c-0.082-0.32-0.363-0.562-0.707-0.567
	c-0.154-0.002-0.308,0.01-0.462,0.018c-0.003-0.019,0.002-0.038-0.002-0.057c-0.118-0.548-0.272-1.111-0.597-1.574
	c-0.283-0.404-0.704-0.723-1.163-0.899c-0.351-0.133-0.722-0.189-1.096-0.216c-0.044-0.003-0.087-0.005-0.131-0.005
	c-0.054,0-0.106,0.019-0.159,0.023c-0.073-0.19-0.158-0.377-0.247-0.559c-0.103-0.216-0.214-0.433-0.345-0.634
	c-0.176-0.268-0.375-0.52-0.602-0.747c-0.304-0.3-0.659-0.48-1.049-0.636c-0.26-0.104-0.544-0.146-0.828-0.156
	c-0.049-0.143-0.082-0.291-0.146-0.426c-0.152-0.327-0.345-0.615-0.569-0.899c-0.193-0.246-0.467-0.452-0.734-0.61
	c-0.214-0.128-0.458-0.205-0.694-0.282C16.676,2.088,16.307,2,15.934,2c-0.05,0-0.1,0.002-0.151,0.005
	c-0.334,0.022-0.664,0.06-0.993,0.128c-0.298,0.06-0.589,0.189-0.856,0.334c-0.313,0.169-0.604,0.379-0.863,0.623
	c-0.368,0.345-0.554,0.811-0.721,1.274c-0.018,0.05-0.01,0.1-0.015,0.151c-0.06,0.008-0.121,0.01-0.181,0.019
	c-0.182,0.026-0.362,0.096-0.531,0.165c-0.326,0.131-0.645,0.265-0.929,0.476c-0.306,0.227-0.548,0.51-0.724,0.85
	c-0.152,0.294-0.227,0.61-0.272,0.934C9.684,7.076,9.681,7.183,9.695,7.288C9.619,7.325,9.54,7.358,9.47,7.402
	C9.121,7.623,8.797,7.884,8.594,8.25C8.478,8.46,8.399,8.702,8.329,8.929C8.241,9.212,8.223,9.51,8.218,9.804
	c-0.181,0-0.361,0.002-0.542,0.003c-0.377,0.003-0.684,0.284-0.751,0.645c-0.131,0.141-0.218,0.324-0.211,0.526
	c0.017,0.499,0.036,0.996,0.043,1.495c0.008,0.45,0.006,0.901,0.015,1.349c0.002,0.107,0.026,0.209,0.066,0.303
	c-0.006,0.039-0.024,0.074-0.024,0.115c0,0.414,0.338,0.769,0.751,0.794c-0.016,0.018-0.035,0.034-0.052,0.052
	c-0.323,0.358-0.621,0.732-0.903,1.122c-0.529,0.733-0.891,1.585-1.139,2.452c-0.3,1.058-0.525,2.19-0.332,3.287
	c0.163,0.932,0.454,1.816,0.841,2.679c0.174,0.394,0.381,0.779,0.627,1.13c0.278,0.396,0.589,0.764,0.918,1.116
	c0.612,0.653,1.364,1.184,2.117,1.66c0.336,0.214,0.681,0.4,1.043,0.559c0.46,0.201,0.923,0.394,1.407,0.524
	c0.884,0.234,1.796,0.311,2.706,0.345c1.64,0.056,3.295,0.084,4.922-0.169c0.861-0.135,1.736-0.415,2.501-0.833
	c0.801-0.439,1.616-0.916,2.261-1.57c0.334-0.338,0.632-0.728,0.886-1.13c0.24-0.379,0.43-0.786,0.608-1.195
	c0.197-0.452,0.381-0.908,0.527-1.377c0.135-0.432,0.221-0.872,0.287-1.319c0.071-0.499,0.118-0.998,0.139-1.501
	C26.949,20.342,26.883,19.819,26.791,19.302z M9.717,13.527c-0.466-0.025-0.93-0.052-1.394-0.072
	c-0.011-0.704-0.014-1.408-0.026-2.112c0.637-0.018,1.273-0.04,1.911-0.062c0.803-0.028,1.606-0.034,2.411-0.041
	c0.775-0.007,1.554-0.005,2.33,0.002c0.745,0.009,1.49,0.041,2.235,0.058c0.786,0.019,1.572,0.041,2.359,0.056
	c0.696,0.013,1.392,0.038,2.088,0.024c1.128-0.02,2.258-0.015,3.388-0.027c-0.006,0.307-0.009,0.614-0.022,0.921
	c-0.018,0.415-0.058,0.829-0.063,1.243c-0.687,0.078-1.376,0.107-2.067,0.113c-0.766,0.007-1.531,0.017-2.295,0.034
	c-0.786,0.017-1.572,0.047-2.359,0.049c-0.822,0.004-1.646-0.004-2.467-0.017c-1.325-0.019-2.648-0.071-3.972-0.092
	C11.087,13.593,10.402,13.563,9.717,13.527z M15.15,9.219c0.027-0.167,0.059-0.331,0.111-0.493c0.036-0.072,0.075-0.141,0.118-0.21
	c0.047-0.052,0.095-0.101,0.147-0.15c0.057-0.038,0.115-0.072,0.175-0.104c0.193-0.059,0.389-0.105,0.587-0.143
	c0.158-0.011,0.315-0.005,0.473,0.009c0.113,0.023,0.221,0.054,0.329,0.092c0.08,0.039,0.156,0.081,0.231,0.129
	c0.044,0.04,0.086,0.082,0.126,0.126c0.042,0.066,0.08,0.133,0.116,0.203c0.065,0.201,0.108,0.404,0.141,0.612
	c0.021,0.178,0.034,0.357,0.05,0.535c-0.258-0.009-0.516-0.008-0.775-0.019c-0.615-0.026-1.23-0.027-1.845-0.032
	C15.136,9.588,15.133,9.404,15.15,9.219z M24.933,13.525c-0.02,0.003-0.039,0.005-0.059,0.007
	C24.893,13.53,24.913,13.527,24.933,13.525L24.933,13.525z M22.53,8.861c0.146,0.029,0.288,0.065,0.43,0.11
	c0.077,0.04,0.149,0.084,0.221,0.133c0.042,0.037,0.082,0.075,0.12,0.116c0.032,0.053,0.063,0.108,0.091,0.164
	c0.062,0.174,0.106,0.352,0.146,0.532c-0.653,0.002-1.306,0.007-1.96,0.002c-0.142-0.001-0.283-0.009-0.425-0.01
	c0.013-0.04,0.016-0.081,0.03-0.121c0.062-0.133,0.13-0.259,0.209-0.384c0.046-0.052,0.094-0.102,0.146-0.15
	c0.192-0.136,0.391-0.254,0.603-0.357c0.055-0.018,0.109-0.033,0.164-0.046C22.381,8.849,22.456,8.854,22.53,8.861z M19.756,6.169
	c0.122,0.109,0.233,0.223,0.34,0.346c0.198,0.282,0.358,0.582,0.498,0.898c0.052,0.127,0.099,0.255,0.141,0.385
	c-0.143,0.112-0.279,0.231-0.401,0.354c-0.31,0.311-0.484,0.724-0.632,1.128c-0.07,0.19-0.11,0.389-0.145,0.588
	c-0.073-0.002-0.146-0.004-0.219-0.005c-0.014-0.09-0.028-0.18-0.04-0.27c0.007,0.049,0.013,0.098,0.018,0.147
	c-0.009-0.067-0.017-0.133-0.025-0.2c0-0.001,0-0.001,0-0.001c-0.026-0.212-0.052-0.423-0.083-0.634
	C19.155,8.537,19.05,8.209,18.9,7.864c-0.161-0.372-0.488-0.653-0.809-0.882C17.948,6.879,17.748,6.8,17.584,6.74
	c-0.04-0.015-0.084-0.019-0.125-0.032c0.004-0.006,0.008-0.012,0.012-0.018c0.125-0.161,0.252-0.32,0.402-0.458
	c0.113-0.076,0.23-0.142,0.352-0.202c0.111-0.037,0.223-0.067,0.339-0.089c0.193-0.019,0.384-0.031,0.579-0.025
	c0.107,0.021,0.21,0.049,0.313,0.086C19.561,6.052,19.659,6.107,19.756,6.169z M13.964,4.394c0.032-0.066,0.068-0.128,0.108-0.188
	c0.081-0.089,0.168-0.17,0.259-0.248c0.171-0.116,0.349-0.216,0.535-0.304c0.266-0.093,0.536-0.152,0.814-0.195
	c0.146-0.017,0.291-0.033,0.438-0.025c0.266,0.05,0.535,0.122,0.789,0.217c0.075,0.038,0.147,0.079,0.217,0.125
	c0.1,0.085,0.194,0.175,0.282,0.274c0.101,0.147,0.187,0.301,0.266,0.462c0.016,0.043,0.021,0.09,0.035,0.133
	c-0.113,0.045-0.227,0.086-0.335,0.139C16.7,5.124,16.24,5.752,15.829,6.36c-0.032,0.047-0.039,0.101-0.056,0.153
	c-0.014-0.043-0.028-0.086-0.048-0.128c-0.126-0.255-0.293-0.485-0.465-0.709l0,0c-0.151-0.193-0.304-0.377-0.481-0.546
	c-0.254-0.246-0.566-0.396-0.898-0.505C13.908,4.548,13.935,4.47,13.964,4.394z M11.388,6.52c0.043-0.048,0.088-0.094,0.136-0.137
	c0.178-0.123,0.367-0.221,0.564-0.309c0.171-0.063,0.339-0.111,0.518-0.142c0.172-0.02,0.345-0.035,0.518-0.026
	c0.162,0.03,0.323,0.064,0.478,0.117c0.052,0.027,0.101,0.056,0.15,0.088c0.122,0.111,0.235,0.232,0.345,0.356
	c0.111,0.154,0.209,0.313,0.29,0.485c0.029,0.074,0.065,0.138,0.103,0.2c-0.172,0.135-0.333,0.285-0.471,0.466
	c-0.304,0.4-0.467,0.882-0.555,1.38c-0.097-0.243-0.202-0.482-0.329-0.71c-0.178-0.315-0.454-0.552-0.741-0.764
	C12.142,7.34,11.876,7.216,11.585,7.1c-0.118-0.048-0.248-0.075-0.38-0.09c0.017-0.096,0.035-0.191,0.064-0.287
	C11.305,6.653,11.345,6.585,11.388,6.52z M9.743,9.499c0.032-0.17,0.077-0.334,0.135-0.498c0.014-0.027,0.028-0.053,0.043-0.079
	c0.051-0.055,0.105-0.106,0.163-0.155c0.091-0.062,0.184-0.117,0.283-0.166c0.125-0.045,0.252-0.08,0.381-0.106
	c0.067-0.004,0.133-0.004,0.2-0.001c0.065,0.013,0.13,0.03,0.194,0.049c0.136,0.067,0.263,0.145,0.386,0.233
	c0.075,0.067,0.147,0.134,0.216,0.205c0.081,0.126,0.151,0.258,0.214,0.394c0.049,0.13,0.09,0.262,0.131,0.395
	c-0.634,0.007-1.268,0.018-1.903,0.025c-0.15,0.001-0.299,0.001-0.449,0.002C9.738,9.698,9.737,9.599,9.743,9.499z M25.058,22.149
	c-0.055,0.364-0.124,0.724-0.228,1.076c-0.106,0.354-0.232,0.701-0.371,1.042c-0.225,0.517-0.48,1.011-0.81,1.469
	c-0.251,0.304-0.521,0.576-0.824,0.827c-0.579,0.425-1.206,0.793-1.856,1.095c-0.554,0.21-1.127,0.358-1.712,0.45
	c-0.918,0.114-1.842,0.188-2.766,0.177c-0.985-0.011-1.978-0.05-2.957-0.16c-0.328-0.049-0.653-0.113-0.976-0.197
	c-0.34-0.091-0.667-0.211-0.991-0.343c-0.704-0.315-1.356-0.723-1.973-1.181c-0.27-0.219-0.531-0.443-0.781-0.685
	c-0.24-0.232-0.457-0.488-0.665-0.748c-0.304-0.429-0.557-0.88-0.782-1.358c-0.262-0.662-0.475-1.334-0.609-2.035
	c-0.027-0.256-0.044-0.511-0.029-0.771c0.013-0.177,0.028-0.351,0.046-0.527c0.13-0.77,0.336-1.52,0.624-2.244
	c0.206-0.436,0.454-0.834,0.733-1.226c0.466-0.571,0.989-1.086,1.519-1.599c0.042-0.041,0.064-0.093,0.094-0.141
	c0.93,0.024,1.86,0.054,2.79,0.062c0.788,0.008,1.576,0.038,2.364,0.058c0.824,0.021,1.649,0.017,2.473,0.015
	c1.456-0.002,2.91-0.06,4.366-0.052c0.345,0.001,0.69,0.008,1.036,0.012c0.041,0.093,0.092,0.182,0.163,0.262
	c0.307,0.348,0.597,0.716,0.883,1.084c0.259,0.347,0.472,0.713,0.652,1.105c0.138,0.371,0.247,0.756,0.353,1.135
	c0.119,0.434,0.214,0.874,0.287,1.317C25.178,20.763,25.138,21.457,25.058,22.149z M24.093,21.568
	c0.041,0.659-0.062,1.345-0.313,1.959c-0.261,0.64-0.66,1.188-1.145,1.679c-0.201,0.204-0.418,0.394-0.638,0.576
	c-0.231,0.189-0.462,0.414-0.735,0.537c-0.122,0.069-0.253,0.105-0.394,0.107c-0.141-0.002-0.272-0.038-0.394-0.107
	c-0.174-0.103-0.304-0.272-0.358-0.467c-0.116-0.424,0.141-0.829,0.544-0.961c0.011-0.003,0.022-0.007,0.033-0.01
	c0.115-0.058,0.222-0.125,0.327-0.2c0.169-0.139,0.333-0.284,0.488-0.439c0.133-0.131,0.251-0.276,0.367-0.422
	c0.166-0.231,0.308-0.474,0.428-0.731c0.107-0.281,0.18-0.568,0.229-0.864c0.025-0.278,0.013-0.55-0.015-0.829
	c-0.055-0.341-0.142-0.672-0.263-0.997c-0.026-0.06-0.052-0.12-0.077-0.18c-0.073-0.126-0.111-0.261-0.111-0.405
	c0-0.146,0.038-0.281,0.111-0.407c0.105-0.182,0.28-0.315,0.482-0.371c0.07-0.02,0.142-0.029,0.214-0.029
	c0.142,0,0.284,0.037,0.407,0.11c0.199,0.116,0.285,0.28,0.37,0.482c0.131,0.313,0.248,0.623,0.31,0.957
	C24.019,20.889,24.072,21.229,24.093,21.568z M19.291,9.539L19.291,9.539L19.291,9.539L19.291,9.539z M19.291,9.54
	c0.002,0.018,0.005,0.035,0.007,0.052c-0.002-0.018-0.005-0.036-0.007-0.054L19.291,9.54z M19.29,9.532
	c0,0.002,0.001,0.004,0.001,0.007v0C19.29,9.536,19.29,9.534,19.29,9.532z M15.293,5.719c-0.011-0.015-0.022-0.028-0.033-0.043l0,0
	C15.27,5.69,15.281,5.705,15.293,5.719z M15.182,5.577c0.026,0.033,0.052,0.066,0.077,0.099h0
	C15.233,5.643,15.208,5.609,15.182,5.577z"/>
</svg>