<?xml version="1.0" encoding="utf-8"?>
<!-- Generator: Adobe Illustrator 21.1.0, SVG Export Plug-In . SVG Version: 6.00 Build 0)  -->
<svg version="1.1" id="designs" xmlns="http://www.w3.org/2000/svg" xmlns:xlink="http://www.w3.org/1999/xlink" x="0px" y="0px"
	 width="32px" height="32px" viewBox="0 0 32 32" style="enable-background:new 0 0 32 32;" xml:space="preserve">
<style type="text/css">
	.sketchy_een{fill:#111918;}
</style>
<path class="sketchy_een" d="M26.887,19.309c-0.048-0.378-0.1-0.758-0.113-1.14c-0.027-0.808-0.123-1.616-0.29-2.406
	c-0.163-0.773-0.355-1.554-0.631-2.295c-0.284-0.76-0.698-1.464-1.073-2.182c-0.152-0.292-0.299-0.583-0.462-0.869
	c-0.198-0.345-0.42-0.664-0.668-0.977c-0.269-0.34-0.648-0.583-1.003-0.827c-0.262-0.181-0.55-0.324-0.81-0.507
	c-0.2-0.162-0.393-0.33-0.604-0.479c-0.18-0.129-0.376-0.238-0.576-0.334c-0.226-0.107-0.455-0.213-0.685-0.317
	c-0.259-0.115-0.527-0.207-0.792-0.313c-0.072-0.032-0.147-0.055-0.22-0.086c0.002-0.612-0.037-1.234-0.184-1.819
	c-0.109-0.441-0.29-0.871-0.535-1.253c-0.127-0.198-0.272-0.384-0.422-0.566c-0.059-0.073-0.127-0.142-0.194-0.209
	c-0.205-0.203-0.472-0.405-0.756-0.482c-0.432-0.115-0.892-0.207-1.335-0.244C15.489,2.002,15.445,2,15.4,2
	c-0.142,0-0.285,0.017-0.425,0.029c-0.265,0.023-0.53,0.063-0.792,0.117c-0.833,0.173-1.581,0.681-2.009,1.42
	c-0.217,0.374-0.37,0.779-0.472,1.197c-0.138,0.57-0.138,1.18-0.142,1.761c0,0.065,0.024,0.124,0.038,0.186
	c-0.008,0.004-0.017,0.006-0.026,0.01c-0.309,0.14-0.618,0.288-0.913,0.457C9.936,7.583,9.245,8.096,8.683,8.708
	c-0.265,0.29-0.499,0.618-0.721,0.94c-0.217,0.313-0.399,0.645-0.579,0.979c-0.391,0.731-0.712,1.493-0.98,2.276
	c-0.251,0.729-0.478,1.464-0.65,2.216c-0.182,0.787-0.309,1.587-0.401,2.389c-0.044,0.378-0.063,0.762-0.098,1.142
	c-0.035,0.382-0.06,0.766-0.086,1.151c-0.056,0.787-0.086,1.575-0.09,2.366c-0.006,0.75-0.035,1.502-0.021,2.253
	c0.015,0.75,0.075,1.497,0.106,2.247c0.033,0.806,0,1.616-0.004,2.421c-0.001,0.256,0.128,0.478,0.316,0.631
	c0.008,0.009,0.011,0.021,0.019,0.029c0.144,0.142,0.382,0.265,0.591,0.244c0.888-0.086,1.784-0.146,2.677-0.152
	c0.393-0.002,0.789,0.011,1.182,0.015c0.096,0.002,0.192,0.002,0.29,0.002c0.265,0,0.531,0,0.798,0.01
	c0.819,0.031,1.639,0.058,2.458,0.058c0.787,0.002,1.573,0.029,2.36,0.044c0.827,0.015,1.656,0.036,2.485,0.033
	c0.762-0.002,1.522-0.013,2.283-0.029c1.493-0.031,2.987-0.048,4.48-0.019c0.2,0.004,0.397,0.01,0.595,0.015
	c0.118,0.003,0.228-0.029,0.329-0.078c0.333-0.085,0.584-0.378,0.59-0.734c0.01-0.673,0.061-1.345,0.081-2.02
	c0.01-0.353,0.021-0.708,0.036-1.061c0.017-0.391,0.06-0.783,0.063-1.174c0.004-0.365,0.008-0.727,0.031-1.092
	c0.025-0.374,0.069-0.748,0.084-1.124c0.031-0.75,0.052-1.502,0.042-2.253C26.943,20.057,26.933,19.681,26.887,19.309z
	 M13.304,5.335c0.037-0.211,0.095-0.415,0.17-0.616c0.088-0.188,0.19-0.369,0.309-0.539c0.064-0.072,0.132-0.139,0.204-0.203
	c0.067-0.045,0.136-0.085,0.208-0.122c0.21-0.077,0.424-0.132,0.644-0.17c0.204-0.02,0.409-0.026,0.614-0.01
	c0.282,0.05,0.569,0.123,0.841,0.213c0.1,0.091,0.192,0.186,0.279,0.289c0.149,0.206,0.279,0.423,0.389,0.653
	c0.104,0.28,0.178,0.568,0.227,0.863c0.018,0.144,0.032,0.289,0.047,0.434c-0.054-0.005-0.106-0.016-0.16-0.021
	c-0.45-0.04-0.901-0.06-1.352-0.06c-0.268,0-0.537,0.007-0.806,0.021c-0.351,0.019-0.704,0.04-1.053,0.084
	c-0.2,0.025-0.393,0.074-0.588,0.111C13.275,5.951,13.276,5.642,13.304,5.335z M9.659,10.021c0.002-0.002,0.004-0.005,0.006-0.007
	c-0.035,0.045-0.071,0.09-0.106,0.135C9.593,10.106,9.626,10.063,9.659,10.021z M7.447,14.777c0.206-0.778,0.496-1.54,0.798-2.286
	c0.2-0.448,0.426-0.883,0.655-1.315c0.109-0.207,0.219-0.411,0.347-0.604c0.128-0.196,0.28-0.378,0.423-0.562
	c0.238-0.295,0.516-0.556,0.81-0.797c0.476-0.359,0.972-0.685,1.517-0.927c0.231-0.096,0.466-0.191,0.711-0.244
	c0.32-0.068,0.637-0.159,0.96-0.218c0.596-0.059,1.189-0.097,1.787-0.099c0.573-0.004,1.138,0.043,1.708,0.104
	c0.326,0.061,0.632,0.189,0.957,0.27c0.203,0.05,0.395,0.132,0.591,0.209c0.192,0.073,0.391,0.123,0.582,0.199
	c0.423,0.177,0.852,0.352,1.225,0.621c0.142,0.112,0.283,0.224,0.43,0.328c0.152,0.109,0.324,0.184,0.485,0.278
	c0.284,0.168,0.563,0.347,0.831,0.539c0.125,0.112,0.233,0.233,0.34,0.361c0.346,0.475,0.622,0.994,0.89,1.516
	c0.272,0.531,0.558,1.058,0.8,1.604c0.211,0.528,0.368,1.078,0.512,1.625c0.151,0.58,0.26,1.164,0.344,1.755
	c0.037,0.345,0.045,0.69,0.057,1.037c0.006,0.196,0.031,0.392,0.049,0.588c-0.445,0.018-0.89,0.027-1.334,0.035
	c-0.783,0.013-1.564,0.019-2.347,0.021c-0.745,0.004-1.491,0.013-2.235,0.025c-0.789,0.013-1.579,0.008-2.368,0.008
	c-1.594,0-3.187,0.046-4.781,0.061c-0.821,0.008-1.644,0.019-2.467,0.027c-0.359,0.004-0.719,0.002-1.078,0
	c-0.457-0.002-0.915-0.004-1.372,0.002c-0.157,0.003-0.314,0.013-0.471,0.021c0.053-0.646,0.103-1.293,0.179-1.937
	C7.096,16.263,7.252,15.517,7.447,14.777z M24.038,28.371c-0.152,0.002-0.305,0.002-0.457,0c-0.75-0.006-1.5-0.01-2.251-0.004
	c-0.796,0.006-1.593,0.035-2.391,0.048c-0.81,0.013-1.623-0.015-2.433-0.036c-0.407-0.01-0.814-0.023-1.22-0.038
	c-0.372-0.013-0.744-0.042-1.117-0.044c-0.821-0.008-1.641-0.023-2.46-0.038c-0.443-0.009-0.886-0.013-1.328-0.013
	c-0.332,0-0.664,0.003-0.995,0.007c-0.343,0.006-0.685,0.006-1.026,0.004c-0.489-0.002-0.979-0.004-1.466,0.013
	c-0.035,0.001-0.071,0.005-0.106,0.007c-0.011-0.581-0.016-1.163-0.052-1.743c-0.025-0.411-0.059-0.819-0.083-1.23
	c-0.019-0.347-0.021-0.693-0.021-1.04c-0.003-1.229,0.01-2.458,0.07-3.686c0.744-0.046,1.489-0.092,2.232-0.116
	c0.825-0.025,1.65-0.04,2.475-0.058c0.787-0.017,1.571-0.025,2.358-0.054c0.819-0.029,1.639-0.058,2.458-0.075
	c1.558-0.031,3.114-0.004,4.672,0.013c1.474,0.013,2.947-0.008,4.421-0.015c0.015,0,0.029,0,0.044,0
	c0.015,0.447,0.02,0.895,0.023,1.34c0.004,0.733,0.013,1.462-0.025,2.195c-0.019,0.365-0.029,0.727-0.044,1.092
	c-0.015,0.391-0.069,0.783-0.113,1.174c-0.086,0.766-0.097,1.536-0.115,2.306c-0.159-0.004-0.318-0.008-0.477-0.009
	C24.419,28.369,24.229,28.371,24.038,28.371z M20.404,22.001c0.152,0.152,0.236,0.357,0.236,0.57c0,0.213-0.084,0.42-0.236,0.572
	c-0.138,0.136-0.368,0.255-0.57,0.236c-0.643-0.067-1.295-0.046-1.942-0.059c-0.779-0.019-1.56,0-2.339,0.01
	c-1.552,0.023-3.103,0.127-4.655,0.178c-0.478,0.015-0.877-0.412-0.877-0.879c0-0.484,0.399-0.871,0.877-0.879
	c0.081-0.001,0.161-0.002,0.242-0.002c0.359,0,0.717,0.009,1.074,0.019c0.366,0.008,0.733,0.017,1.099,0.015
	c0.746-0.002,1.493-0.019,2.239-0.019c0.792,0.002,1.585,0.019,2.379,0.002c0.221-0.004,0.441-0.002,0.664-0.002
	c0.138,0,0.276,0.002,0.416,0c0.271,0,0.553-0.025,0.821,0.002C20.056,21.788,20.241,21.838,20.404,22.001z M13.863,14.735
	c0.405,0.384,0.8,0.777,1.199,1.165c0.008,0.008,0.019,0.01,0.027,0.017c0.111,0.164,0.272,0.292,0.465,0.345
	c0.15,0.04,0.297,0.04,0.447,0c0.14-0.038,0.265-0.111,0.368-0.215c0.493-0.382,0.967-0.787,1.412-1.222
	c0.399-0.388,0.781-0.785,1.211-1.14c0.152-0.127,0.228-0.363,0.228-0.555c0-0.124-0.039-0.242-0.095-0.351
	c0.028-0.078,0.048-0.16,0.048-0.244c0-0.205-0.083-0.368-0.213-0.518c-0.154-0.177-0.295-0.363-0.455-0.533
	c-0.184-0.198-0.384-0.384-0.57-0.579c-0.487-0.508-0.952-1.038-1.418-1.564c-0.083-0.094-0.191-0.148-0.306-0.183
	c-0.108-0.045-0.224-0.072-0.341-0.072c-0.209,0-0.415,0.075-0.558,0.239c-0.472,0.541-0.929,1.09-1.374,1.652
	c-0.282,0.356-0.592,0.69-0.871,1.049c-0.184,0.027-0.362,0.094-0.493,0.225c-0.34,0.338-0.32,0.873,0,1.213
	C12.988,13.906,13.426,14.321,13.863,14.735z M14.993,12.169c0.33-0.384,0.666-0.761,1-1.139c0.279,0.298,0.553,0.6,0.842,0.888
	c0.2,0.2,0.407,0.391,0.601,0.595c0.081,0.085,0.158,0.173,0.236,0.26c-0.277,0.248-0.556,0.494-0.823,0.753
	c-0.324,0.316-0.69,0.588-1.048,0.865c-0.474-0.498-0.944-1-1.413-1.503c0.029-0.036,0.06-0.071,0.089-0.107
	C14.646,12.574,14.819,12.37,14.993,12.169z"/>
</svg>