<?xml version="1.0" encoding="utf-8"?>
<!-- Generator: Adobe Illustrator 21.1.0, SVG Export Plug-In . SVG Version: 6.00 Build 0)  -->
<svg version="1.1" id="designs" xmlns="http://www.w3.org/2000/svg" xmlns:xlink="http://www.w3.org/1999/xlink" x="0px" y="0px"
	 width="32px" height="32px" viewBox="0 0 32 32" style="enable-background:new 0 0 32 32;" xml:space="preserve">
<style type="text/css">
	.sketchy_een{fill:#111918;}
</style>
<path class="sketchy_een" d="M29.918,9.47c-0.072-0.373-0.202-0.752-0.394-1.082c-0.198-0.341-0.449-0.684-0.76-0.931
	c-0.189-0.151-0.368-0.281-0.588-0.377c-0.243-0.106-0.477-0.173-0.737-0.221c-0.283-0.051-0.573-0.081-0.862-0.096
	c-0.11-0.005-0.22-0.007-0.33-0.011c0.013-0.176,0.016-0.352,0.011-0.529c-0.011-0.419-0.075-0.833-0.194-1.235
	c-0.051-0.175-0.115-0.345-0.179-0.517c-0.089-0.234-0.187-0.473-0.319-0.686c-0.13-0.209-0.281-0.403-0.437-0.594
	c-0.124-0.151-0.264-0.281-0.413-0.405c-0.109-0.092-0.228-0.177-0.345-0.26c-0.138-0.096-0.298-0.153-0.452-0.215
	c-0.196-0.081-0.419-0.094-0.628-0.117c-0.079-0.008-0.16-0.013-0.241-0.013c-0.01,0-0.02,0-0.029,0
	c-0.263,0-0.514,0.024-0.774,0.062c-0.377,0.055-0.76,0.196-1.091,0.379c-0.345,0.187-0.681,0.424-0.954,0.707
	c-0.309,0.319-0.534,0.711-0.709,1.116c-0.158,0.366-0.266,0.705-0.315,1.099c-0.038,0.296-0.034,0.592-0.015,0.89
	c0.036,0.535,0.136,1.075,0.093,1.614c-0.008,0.042-0.017,0.084-0.029,0.125c-0.022,0.037-0.046,0.073-0.07,0.108
	c-0.201,0.238-0.431,0.434-0.676,0.627c-0.297,0.223-0.612,0.422-0.922,0.628c-0.139-0.117-0.31-0.198-0.513-0.198
	c-0.049,0-0.095,0.021-0.143,0.03c-0.068-0.015-0.135-0.039-0.204-0.039c-0.239,0-0.478,0.091-0.662,0.267
	c-0.391,0.374-0.789,0.739-1.206,1.085c-0.182,0.138-0.366,0.272-0.559,0.395c-0.241,0.156-0.49,0.287-0.748,0.409
	c-0.576,0.226-1.183,0.39-1.795,0.483c-0.433,0.048-0.868,0.094-1.296,0.169c-0.4,0.072-0.782,0.228-1.165,0.356
	c-0.419,0.138-0.835,0.271-1.246,0.435c-0.458,0.181-0.884,0.407-1.308,0.654c-0.413,0.241-0.818,0.501-1.19,0.805
	c-0.364,0.296-0.705,0.62-1.029,0.96c-0.3,0.313-0.586,0.639-0.856,0.98c-0.168,0.211-0.334,0.422-0.466,0.656
	c-0.111,0.204-0.221,0.407-0.326,0.615c-0.234,0.454-0.449,0.914-0.584,1.408c-0.136,0.498-0.219,1.016-0.256,1.529
	c-0.03,0.381,0.038,0.775,0.092,1.15c0.034,0.226,0.064,0.452,0.115,0.673c0.098,0.437,0.215,0.869,0.353,1.295
	c0.136,0.426,0.317,0.848,0.556,1.227c0.115,0.185,0.253,0.358,0.381,0.534c0.136,0.185,0.268,0.373,0.403,0.56
	c0.273,0.373,0.569,0.724,0.907,1.041c0.334,0.313,0.718,0.577,1.084,0.852c0.311,0.236,0.632,0.456,0.946,0.686
	c0.162,0.117,0.315,0.255,0.484,0.36c0.194,0.121,0.398,0.217,0.605,0.309c0.23,0.102,0.464,0.209,0.703,0.288
	c0.2,0.068,0.403,0.106,0.613,0.141c0.509,0.085,1.024,0.126,1.538,0.155c0.963,0.051,1.94-0.072,2.852-0.385
	c0.466-0.16,0.907-0.39,1.333-0.639c0.449-0.264,0.892-0.532,1.295-0.862c0.673-0.552,1.244-1.208,1.753-1.91
	c0.23-0.317,0.42-0.654,0.613-0.994c0.187-0.33,0.381-0.656,0.55-0.995c0.213-0.422,0.398-0.863,0.541-1.314
	c0.113-0.358,0.192-0.726,0.283-1.09c0.169-0.681,0.404-1.346,0.671-1.997c0.238-0.51,0.561-0.99,0.898-1.443
	c0.181-0.226,0.367-0.447,0.546-0.674c0.203-0.255,0.412-0.515,0.593-0.79c0.372-0.098,0.657-0.444,0.657-0.833
	c0-0.354-0.214-0.645-0.511-0.785c0.538-0.391,1.098-0.755,1.704-1.035c0.128-0.051,0.257-0.094,0.392-0.126
	c0.04,0.012,0.08,0.026,0.119,0.041c0.186,0.087,0.37,0.181,0.564,0.25c0.23,0.079,0.494,0.104,0.731,0.128
	c0.256,0.028,0.503,0.008,0.758-0.03c0.264-0.038,0.486-0.121,0.733-0.226c0.385-0.164,0.666-0.492,0.922-0.807
	c0.275-0.337,0.545-0.682,0.748-1.067C29.984,11.381,30.099,10.405,29.918,9.47z M17.658,11.841c-0.001,0-0.003-0.001-0.004-0.001
	c-0.01-0.008-0.02-0.016-0.029-0.025C17.635,11.824,17.646,11.833,17.658,11.841z M28.177,11.289
	c-0.142,0.3-0.319,0.576-0.516,0.843c-0.13,0.162-0.266,0.321-0.42,0.46c-0.055,0.036-0.111,0.069-0.17,0.1
	c-0.104,0.035-0.209,0.061-0.317,0.081c-0.116,0.007-0.23,0.007-0.345-0.002c-0.113-0.021-0.224-0.046-0.333-0.083
	c-0.231-0.105-0.459-0.216-0.697-0.307c-0.398-0.153-0.845-0.026-1.225,0.123c-0.513,0.2-0.984,0.458-1.448,0.754
	c-0.488,0.311-0.939,0.679-1.376,1.058c-0.257,0.224-0.516,0.45-0.766,0.684c-0.273,0.009-0.548,0.02-0.819,0
	c-0.036-0.007-0.071-0.014-0.106-0.022c-0.069-0.014-0.138-0.021-0.206-0.021c-0.38,0-0.73,0.219-0.84,0.615
	c-0.126,0.46,0.155,0.903,0.594,1.044c0.243,0.079,0.505,0.087,0.758,0.089c0.189,0,0.379,0.003,0.568,0.006
	c-0.165,0.192-0.33,0.384-0.484,0.586c-0.204,0.268-0.402,0.543-0.583,0.828c-0.204,0.319-0.354,0.645-0.501,0.995
	c-0.113,0.268-0.202,0.545-0.3,0.818c-0.117,0.326-0.23,0.652-0.309,0.99c-0.145,0.636-0.266,1.273-0.504,1.882
	c-0.207,0.459-0.449,0.893-0.702,1.331c-0.249,0.426-0.502,0.839-0.793,1.234c-0.39,0.483-0.822,0.923-1.297,1.322
	c-0.529,0.375-1.113,0.682-1.698,0.959c-0.413,0.15-0.84,0.257-1.274,0.33c-0.694,0.072-1.385,0.028-2.076-0.053
	c-0.368-0.06-0.723-0.14-1.072-0.27c-0.294-0.134-0.579-0.282-0.838-0.476c-0.249-0.182-0.497-0.364-0.742-0.551
	c-0.624-0.483-1.248-0.961-1.753-1.568c-0.213-0.289-0.419-0.585-0.634-0.874c-0.202-0.276-0.371-0.562-0.517-0.869
	C4.176,22.66,4,21.961,3.881,21.262c-0.038-0.334-0.051-0.661-0.021-0.997c0.073-0.445,0.175-0.876,0.326-1.303
	c0.252-0.563,0.532-1.122,0.898-1.615c0.032-0.042,0.064-0.083,0.097-0.125c-0.032,0.042-0.064,0.084-0.097,0.126
	c0.518-0.641,1.083-1.256,1.725-1.775c0.512-0.37,1.049-0.718,1.622-0.988c0.435-0.171,0.877-0.315,1.326-0.452
	c0.249-0.075,0.496-0.16,0.747-0.232c0.198-0.056,0.399-0.095,0.602-0.127c0.521-0.063,1.041-0.095,1.556-0.197
	c0.598-0.119,1.176-0.279,1.731-0.534c0.691-0.318,1.314-0.748,1.904-1.224c0,0.009,0.001,0.017,0,0.026
	c-0.006,0.256-0.053,0.532,0.017,0.782c0.128,0.464,0.554,0.771,1.016,0.845c0.251,0.04,0.501,0.074,0.756,0.089
	c0.379,0.023,0.771,0.002,1.15-0.024c0.454-0.03,0.833-0.356,0.833-0.833c0-0.445-0.379-0.845-0.833-0.831
	c-0.444,0.011-0.882,0.043-1.324,0.011c-0.007-0.208-0.012-0.416-0.015-0.624c0.439-0.286,0.865-0.588,1.281-0.907
	c0.249-0.19,0.503-0.381,0.741-0.586c0.228-0.198,0.413-0.428,0.59-0.673c0.383-0.53,0.339-1.235,0.298-1.855
	c-0.036-0.497-0.073-0.998-0.035-1.496c0.034-0.187,0.084-0.368,0.151-0.548c0.101-0.223,0.214-0.44,0.351-0.643
	c0.121-0.138,0.253-0.265,0.395-0.385c0.17-0.12,0.345-0.227,0.534-0.317c0.161-0.056,0.323-0.099,0.491-0.132
	c0.203-0.018,0.406-0.021,0.61-0.007c0.062,0.013,0.121,0.029,0.18,0.048c0.061,0.034,0.119,0.07,0.176,0.109
	c0.154,0.131,0.293,0.272,0.424,0.427c0.119,0.17,0.221,0.344,0.311,0.532c0.128,0.324,0.233,0.653,0.294,0.996
	c0.03,0.318,0.033,0.633,0,0.951c-0.039,0.237-0.087,0.476-0.03,0.714c0.102,0.417,0.464,0.701,0.878,0.769
	c0.431,0.072,0.868,0.066,1.302,0.114c0.186,0.031,0.373,0.07,0.552,0.131c0.081,0.041,0.158,0.086,0.234,0.136
	c0.08,0.073,0.154,0.151,0.224,0.234c0.113,0.158,0.215,0.32,0.3,0.494c0.072,0.198,0.127,0.4,0.166,0.608
	c0.024,0.266,0.024,0.528,0.004,0.794C28.285,10.945,28.239,11.118,28.177,11.289z M16.951,21.021
	c-0.339,0.639-0.69,1.274-1.052,1.902c-0.356,0.616-0.752,1.231-1.239,1.751c-0.501,0.537-1.122,0.922-1.744,1.301
	c-0.328,0.2-0.66,0.37-1.027,0.486c-0.309,0.098-0.635,0.158-0.958,0.204c-0.143,0.04-0.285,0.04-0.428,0
	c-0.138-0.038-0.256-0.107-0.356-0.207c-0.151-0.151-0.238-0.356-0.238-0.571c0-0.456,0.37-0.782,0.807-0.807
	c0.11-0.006,0.219-0.013,0.327-0.024c0.206-0.035,0.407-0.085,0.606-0.152c0.244-0.116,0.473-0.26,0.702-0.403
	c0.246-0.154,0.487-0.313,0.723-0.483c0.314-0.259,0.591-0.548,0.844-0.866c0.314-0.414,0.612-0.841,0.869-1.292
	c0.3-0.526,0.579-1.065,0.86-1.601c0.127-0.243,0.39-0.371,0.652-0.371c0.133,0,0.266,0.033,0.381,0.1
	C17.045,20.201,17.145,20.659,16.951,21.021z"/>
</svg>