<?xml version="1.0" encoding="utf-8"?>
<!-- Generator: Adobe Illustrator 21.1.0, SVG Export Plug-In . SVG Version: 6.00 Build 0)  -->
<svg version="1.1" id="designs" xmlns="http://www.w3.org/2000/svg" xmlns:xlink="http://www.w3.org/1999/xlink" x="0px" y="0px"
	 width="32px" height="32px" viewBox="0 0 32 32" style="enable-background:new 0 0 32 32;" xml:space="preserve">
<style type="text/css">
	.sketchy_een{fill:#111918;}
</style>
<path class="sketchy_een" d="M18.701,15.126c-0.001,0-0.002,0-0.004,0c0.002,0,0.005,0.001,0.007,0.001
	C18.703,15.126,18.702,15.126,18.701,15.126z M29.734,15.123c0.033,0.128,0.043,0.26-0.003,0.39
	c-0.469,1.309-0.883,2.634-1.191,3.99c-0.144,0.631-0.304,1.258-0.465,1.884c-0.153,0.603-0.284,1.217-0.489,1.805
	c-0.071,0.203-0.181,0.372-0.372,0.482c-0.077,0.045-0.164,0.068-0.25,0.086c-0.014,0.009-0.026,0.021-0.041,0.029
	c0.318,0.656,0.656,1.299,1.098,1.883c0.003,0.003,0.006,0.007,0.008,0.011c0.148,0.189,0.252,0.358,0.252,0.607
	c0,0.228-0.091,0.448-0.252,0.609c-0.03,0.03-0.07,0.044-0.104,0.069c-0.138,0.255-0.41,0.457-0.705,0.435
	c-0.485-0.037-0.971-0.026-1.458-0.019c-0.517,0.008-1.032-0.009-1.55-0.03c-3.224-0.125-6.449-0.228-9.673-0.332
	c-1.583-0.052-3.17-0.116-4.755-0.133c-0.864-0.009-1.729-0.019-2.593-0.021c-0.289,0-0.579,0.002-0.866,0.004
	c-0.547,0.002-1.096,0.006-1.643-0.008c-0.407-0.009-0.747-0.334-0.747-0.749c0-0.391,0.328-0.747,0.725-0.747
	c0.007,0,0.014,0,0.021,0c1.212,0.037,2.425,0.063,3.637,0.074c-0.062-0.313-0.088-0.639-0.113-0.954
	c-0.023-0.31-0.047-0.621-0.071-0.933c-0.114-0.003-0.228-0.002-0.342-0.006c-0.37,0.196-0.886,0.08-1.088-0.304
	c-0.181-0.344-0.282-0.737-0.396-1.109c-0.09-0.293-0.177-0.588-0.265-0.881c-0.189-0.62-0.385-1.238-0.564-1.861
	c-0.183-0.625-0.379-1.245-0.562-1.871c-0.187-0.633-0.347-1.273-0.506-1.914c-0.39-1.583-0.807-3.161-1.165-4.755
	c-0.174-0.773-0.357-1.546-0.543-2.317C2.492,7.651,2.253,6.772,2.025,5.89C1.957,5.623,2.042,5.356,2.216,5.162
	c0.119-0.303,0.412-0.52,0.754-0.525C4.148,4.626,5.326,4.613,6.504,4.6c0.169-0.002,0.337-0.003,0.505-0.003
	c0.37,0,0.739,0.007,1.11,0.031c0.532,0.037,1.059,0.11,1.576,0.243c0.218,0.056,0.437,0.114,0.648,0.19
	c0.187,0.071,0.379,0.142,0.553,0.241c0.148,0.082,0.282,0.179,0.416,0.278c0.377,0.278,0.758,0.56,1.103,0.876
	c0.411,0.375,0.752,0.842,1.031,1.324c0.241,0.418,0.416,0.881,0.583,1.333c0.14,0.373,0.252,0.758,0.383,1.135
	c0.138,0.392,0.308,0.771,0.444,1.165c0.133,0.381,0.267,0.762,0.373,1.15c0.095,0.34,0.213,0.665,0.345,0.989
	c0.082,0.182,0.174,0.352,0.285,0.517c0.083,0.095,0.171,0.182,0.266,0.265c0.163,0.108,0.332,0.199,0.509,0.281
	c0.664,0.259,1.357,0.408,2.063,0.509c-0.036-0.005-0.072-0.009-0.107-0.014c0.037,0.005,0.074,0.01,0.111,0.014
	c0.037,0.005,0.074,0.01,0.111,0.016c-0.036-0.005-0.072-0.01-0.108-0.015c0.479,0.06,0.956,0.097,1.439,0.116
	c0.474,0.021,0.95,0.037,1.423-0.004c0.187-0.032,0.369-0.075,0.548-0.138c0.057-0.029,0.112-0.06,0.167-0.093
	c0.052-0.048,0.1-0.098,0.146-0.151c0.088-0.133,0.159-0.271,0.224-0.419c0.058-0.138,0.114-0.277,0.17-0.416
	c0.078-0.2,0.17-0.358,0.36-0.47c0.183-0.106,0.403-0.134,0.607-0.078c0.101,0.028,0.195,0.081,0.278,0.149
	c0.416,0.009,0.833,0.018,1.25,0.025c0.196,0.004,0.394,0.004,0.592,0.004c0.235,0,0.474-0.002,0.711,0.004
	c0.431,0.009,0.863,0.034,1.294,0.037c0.205,0.004,0.413-0.002,0.618,0.011c0.188,0.012,0.376,0.04,0.565,0.068
	c0.044,0.005,0.087,0.009,0.132,0.013c0.211,0.017,0.394,0.073,0.547,0.226C29.918,14.154,30,14.352,30,14.555
	C30,14.789,29.894,14.984,29.734,15.123z M26.804,19.983c-0.243-0.005-0.487-0.01-0.731-0.017c-1.537-0.039-3.069-0.05-4.606-0.043
	c-0.898,0.006-1.796,0-2.692-0.004c-0.704-0.002-1.408-0.006-2.112-0.006c-1.608,0.002-3.213,0.009-4.819-0.002
	c-1.509-0.01-3.018,0-4.529,0.007c0.045,0.146,0.087,0.292,0.133,0.438c0.118,0.368,0.233,0.734,0.345,1.102
	c0.06,0.195,0.126,0.389,0.19,0.584c0.024,0.001,0.047,0.002,0.07,0.003c0.831,0.034,1.664,0.069,2.494,0.071
	c0.764,0.002,1.527-0.004,2.291-0.011c1.546-0.013,3.092,0,4.64,0.002c1.538,0,3.079,0.022,4.617,0.069
	c0.752,0.022,1.505,0.058,2.255,0.082c0.379,0.013,0.758,0.022,1.137,0.03c0.223,0.005,0.446,0.012,0.668,0.017
	C26.393,21.536,26.605,20.761,26.804,19.983z M15.617,25.478c0.069,0.001,0.137,0.003,0.206,0.004
	c0.03-0.591,0.067-1.181,0.116-1.771c0.003-0.036,0.016-0.067,0.021-0.102c-0.244,0.001-0.488-0.001-0.733,0.001
	c-0.829,0.002-1.66,0.006-2.491-0.004c-0.949-0.01-1.897-0.012-2.846-0.021c0.028,0.427,0.044,0.855,0.09,1.281
	c0.017,0.103,0.036,0.204,0.062,0.304c0.023,0.09,0.02,0.18,0.015,0.27c0.155-0.001,0.31,0.001,0.465,0
	c0.87-0.006,1.74-0.011,2.612,0.002C13.963,25.456,14.79,25.469,15.617,25.478z M26.017,25.716c-0.039-0.065-0.076-0.13-0.116-0.195
	c-0.265-0.433-0.5-0.879-0.717-1.339c-0.056-0.118-0.092-0.235-0.107-0.354c-0.286-0.007-0.573-0.013-0.859-0.026
	c-0.736-0.037-1.471-0.078-2.209-0.106c-1.443-0.054-2.887-0.071-4.331-0.083c0.002,0.034,0.02,0.065,0.017,0.1
	c-0.052,0.602-0.107,1.202-0.121,1.807c0.154,0.003,0.307,0.008,0.461,0.01c1.611,0.013,3.221,0.077,4.832,0.119
	c0.76,0.019,1.518,0.047,2.278,0.054C25.434,25.705,25.725,25.711,26.017,25.716z M28.119,15.254
	c-0.018-0.001-0.035-0.002-0.053-0.003c-0.457-0.017-0.913-0.05-1.369-0.082c-0.461-0.032-0.922-0.026-1.382-0.024
	c-0.418,0-0.836-0.001-1.252-0.005c-0.174,0.414-0.389,0.808-0.746,1.091c-0.59,0.471-1.35,0.614-2.086,0.648
	c-0.584,0.026-1.174,0.028-1.759-0.013c-0.657-0.049-1.324-0.114-1.972-0.245c-0.788-0.161-1.621-0.375-2.302-0.814
	c-0.396-0.254-0.724-0.584-0.973-0.984c-0.228-0.366-0.381-0.786-0.532-1.189c-0.149-0.4-0.233-0.816-0.372-1.217
	c-0.133-0.386-0.26-0.775-0.396-1.159c-0.26-0.733-0.462-1.483-0.749-2.205c-0.096-0.211-0.197-0.423-0.321-0.618
	c-0.099-0.154-0.204-0.303-0.313-0.45c-0.315-0.375-0.695-0.676-1.079-0.977c-0.188-0.14-0.377-0.269-0.588-0.373
	c-0.494-0.183-1.02-0.299-1.539-0.383C7.533,6.159,6.719,6.156,5.909,6.174C5.182,6.191,4.454,6.219,3.726,6.243
	C3.847,6.74,3.971,7.237,4.083,7.737c0.142,0.635,0.269,1.271,0.42,1.904c0.31,1.305,0.635,2.606,0.969,3.906
	c0.2,0.771,0.4,1.544,0.605,2.313c0.101,0.377,0.203,0.752,0.321,1.124c0.114,0.362,0.241,0.719,0.353,1.081
	c0.034,0.112,0.068,0.223,0.102,0.335c0.03-0.004,0.058-0.018,0.089-0.018c0.388,0.002,0.779,0.006,1.167,0.009
	c1.593,0.017,3.185,0,4.776-0.007c1.611-0.007,3.222-0.013,4.834-0.019c1.576-0.007,3.152-0.007,4.727-0.017
	c0.238-0.001,0.477-0.002,0.715-0.002c1.293,0,2.587,0.019,3.879,0.028c0.06,0,0.113,0.022,0.169,0.035
	C27.481,17.349,27.767,16.292,28.119,15.254z"/>
</svg>