<?xml version="1.0" encoding="utf-8"?>
<!-- Generator: Adobe Illustrator 21.1.0, SVG Export Plug-In . SVG Version: 6.00 Build 0)  -->
<svg version="1.1" id="designs" xmlns="http://www.w3.org/2000/svg" xmlns:xlink="http://www.w3.org/1999/xlink" x="0px" y="0px"
	 width="32px" height="32px" viewBox="0 0 32 32" style="enable-background:new 0 0 32 32;" xml:space="preserve">
<style type="text/css">
	.sketchy_een{fill:#111918;}
</style>
<path class="sketchy_een" d="M5.542,18.944c0.001,0.005,0.002,0.011,0.002,0.016c0.001,0.011,0.003,0.022,0.004,0.034
	C5.547,18.978,5.544,18.961,5.542,18.944z M28.951,19.193c-0.039,0.4-0.167,0.786-0.373,1.134c-0.112,0.188-0.237,0.355-0.371,0.529
	c-0.312,0.404-0.686,0.753-1.157,0.967c-0.373,0.171-0.769,0.29-1.171,0.363c-0.222,0.041-0.424,0.035-0.624-0.08
	c-0.008-0.005-0.012-0.013-0.02-0.018c-0.102,0.373-0.232,0.737-0.418,1.076c-0.186,0.338-0.427,0.647-0.666,0.951
	c1.05-0.029,2.101-0.048,3.15-0.06c0.002,0,0.005,0,0.007,0c0.448,0,0.819,0.383,0.819,0.828c0,0.054-0.021,0.104-0.032,0.156
	c0.122,0.192,0.171,0.43,0.115,0.667c-0.084,0.365-0.204,0.72-0.343,1.069c-0.088,0.22-0.18,0.439-0.31,0.639
	c-0.129,0.2-0.276,0.394-0.426,0.578c-0.278,0.343-0.582,0.661-0.931,0.929c-0.318,0.245-0.686,0.382-1.055,0.531
	c-0.159,0.065-0.32,0.137-0.482,0.19c-0.173,0.059-0.351,0.098-0.528,0.135c-0.414,0.084-0.835,0.102-1.255,0.137
	c-0.737,0.063-1.467,0.102-2.208,0.077c-0.392-0.012-0.782-0.035-1.175-0.049c-0.386-0.014-0.777-0.008-1.165-0.012
	c-0.788-0.01-1.577-0.014-2.365-0.012c-0.826,0.002-1.649,0.024-2.473-0.031c-0.841-0.057-1.684-0.069-2.526-0.084
	c-0.814-0.016-1.628-0.006-2.439-0.026c-0.892-0.02-1.775-0.063-2.647-0.257c-0.312-0.069-0.612-0.19-0.88-0.365
	c-0.208-0.135-0.402-0.298-0.6-0.449c-0.131-0.102-0.259-0.21-0.376-0.328c-0.059-0.057-0.122-0.116-0.175-0.178
	c-0.182-0.216-0.31-0.41-0.408-0.673C3.16,26.776,3.052,25.96,3.029,25.16c-0.008-0.258,0.134-0.48,0.335-0.625
	c0.12-0.288,0.403-0.503,0.729-0.493c0.057,0.002,0.112,0.002,0.167,0.004c0.859,0.025,1.718,0.051,2.579,0.051
	c0.154,0.001,0.308-0.006,0.462-0.01c-0.023-0.028-0.049-0.053-0.072-0.081c-0.406-0.492-0.726-1.049-0.951-1.643
	c-0.208-0.551-0.369-1.108-0.463-1.69c-0.092-0.571-0.189-1.14-0.269-1.712c-0.061-0.456-0.111-0.911-0.113-1.372
	c0-0.379,0.018-0.755,0.033-1.133c0.033-0.83,0.08-1.655,0.165-2.483c0.022-0.221,0.073-0.406,0.235-0.569
	c0.083-0.083,0.184-0.14,0.293-0.18c0.135-0.255,0.394-0.44,0.696-0.434c0.714,0.012,1.428,0.026,2.141,0.024
	c0.641-0.004,1.281-0.041,1.922-0.067c0.62-0.026,1.235-0.031,1.855-0.031c0.602,0,1.202-0.027,1.802-0.035
	c0.28-0.004,0.561-0.005,0.842-0.005c0.561,0,1.124,0.006,1.686,0.011c0.777,0.008,1.555,0.016,2.334,0.006
	c0.786-0.008,1.575,0.057,2.361,0.063c0.404,0.006,0.808,0.002,1.214,0.021c0.188,0.008,0.378,0.02,0.567,0.03
	c0.237,0.01,0.479,0.021,0.708,0.086c0.25,0.07,0.435,0.252,0.538,0.475c0.226,0.14,0.385,0.38,0.388,0.662
	c0.002,0.145,0.021,0.287,0.027,0.431c0.02,0,0.039-0.001,0.059-0.001c0.359,0,0.721,0.031,1.064,0.138
	c0.326,0.102,0.633,0.233,0.906,0.441c0.241,0.184,0.443,0.386,0.637,0.618c0.151,0.182,0.316,0.371,0.429,0.579
	c0.112,0.204,0.2,0.418,0.278,0.635c0.104,0.294,0.173,0.608,0.231,0.914c0.031,0.169,0.061,0.339,0.088,0.51
	C28.98,18.599,28.982,18.885,28.951,19.193z M24.865,25.655c-0.775-0.004-1.549-0.004-2.322,0.02
	c-0.808,0.022-1.616,0.078-2.424,0.106c-0.88,0.031-1.763,0.043-2.645,0.018c-0.433-0.014-0.794-0.353-0.794-0.796
	c0-0.42,0.361-0.816,0.794-0.796c0.078,0.004,0.155,0.008,0.231,0.01c0.847,0.035,1.696,0.08,2.543,0.057
	c0.567-0.016,1.133-0.048,1.7-0.078c0.034-0.059,0.062-0.121,0.111-0.172c0.241-0.256,0.479-0.512,0.703-0.783
	c0.279-0.375,0.552-0.759,0.753-1.18c0.133-0.374,0.222-0.762,0.29-1.154c0.026-0.25,0.048-0.501,0.074-0.752
	c0.029-0.278,0.069-0.559,0.076-0.837c0.012-0.576-0.008-1.157-0.041-1.731c-0.033-0.555-0.071-1.108-0.131-1.663
	c-0.051-0.47-0.096-0.939-0.126-1.41c-1.076-0.112-2.158-0.073-3.24-0.121c-1.102-0.051-2.208-0.035-3.312-0.075
	c-0.843-0.029-1.688-0.041-2.532-0.035c-0.396,0.002-0.79,0.02-1.184,0.023c-0.427,0.002-0.855-0.004-1.281-0.008
	c-0.398-0.004-0.794-0.023-1.192-0.01c-0.429,0.016-0.859,0.053-1.288,0.065c-0.814,0.021-1.627,0.031-2.44,0.031
	c-0.034,0.28-0.071,0.56-0.096,0.841c-0.035,0.382-0.047,0.767-0.053,1.151c-0.013,0.715-0.007,1.425,0.075,2.134
	c0.088,0.565,0.196,1.126,0.303,1.688c0.105,0.552,0.264,1.08,0.469,1.602c0.152,0.332,0.321,0.655,0.534,0.952
	c0.239,0.297,0.485,0.585,0.779,0.831c0.196,0.146,0.394,0.292,0.569,0.461c0.003,0.003,0.003,0.006,0.006,0.009
	c0.604,0.003,1.207,0.006,1.812,0.001c0.371-0.002,0.743-0.012,1.114-0.014c0.192,0,0.384,0,0.577,0
	c0.225,0.002,0.463,0,0.682,0.063c0.441,0.125,0.712,0.592,0.588,1.039c-0.057,0.21-0.198,0.394-0.386,0.504
	c-0.182,0.106-0.447,0.161-0.651,0.084c-0.021-0.008-0.042-0.014-0.064-0.019c-0.315-0.026-0.631-0.025-0.946-0.03
	c-0.377-0.008-0.753-0.014-1.131-0.018c-0.782-0.012-1.565-0.047-2.347-0.071c-0.796-0.023-1.594,0.01-2.39,0.024
	c-0.666,0.011-1.331,0.011-1.997,0.008c0.005,0.08,0.005,0.159,0.013,0.239c0.066,0.354,0.176,0.703,0.308,1.038
	c0.02,0.041,0.042,0.08,0.065,0.118c0.143,0.153,0.297,0.293,0.461,0.425c0.199,0.145,0.4,0.279,0.62,0.388
	c0.325,0.099,0.661,0.166,0.998,0.219c1.151,0.125,2.311,0.12,3.468,0.137c0.612,0.01,1.226,0.027,1.839,0.035
	c0.563,0.006,1.122,0.061,1.684,0.076c0.52,0.016,1.041,0.01,1.563,0.004c0.31-0.004,0.618-0.008,0.928-0.008
	c0.788,0.002,1.575-0.014,2.363-0.016c0.794-0.004,1.588,0.029,2.383,0.037c0.765,0.008,1.531-0.066,2.29-0.147
	c0.187-0.029,0.374-0.065,0.551-0.125c0.204-0.067,0.408-0.142,0.607-0.222c0.181-0.083,0.354-0.177,0.518-0.288
	c0.219-0.193,0.419-0.415,0.601-0.642c0.163-0.221,0.31-0.447,0.427-0.696c0.066-0.167,0.126-0.336,0.178-0.507
	C25.957,25.672,25.411,25.656,24.865,25.655z M27.331,18.677c-0.004-0.084-0.013-0.168-0.023-0.251
	c-0.065-0.448-0.146-0.903-0.298-1.329c-0.079-0.157-0.174-0.301-0.277-0.444c-0.119-0.147-0.245-0.284-0.387-0.408
	c-0.068-0.046-0.138-0.088-0.211-0.126c-0.126-0.045-0.255-0.08-0.386-0.106c-0.135-0.01-0.269-0.001-0.404,0.001
	c0.08,0.72,0.167,1.44,0.199,2.163c0.018,0.39,0.053,0.784,0.041,1.175c-0.01,0.392-0.055,0.782-0.084,1.173
	c-0.002,0.029-0.007,0.059-0.01,0.089c0.243-0.052,0.477-0.125,0.708-0.214c0.125-0.059,0.244-0.125,0.36-0.202
	c0.149-0.133,0.282-0.284,0.408-0.44c0.099-0.147,0.188-0.294,0.266-0.451c0.036-0.103,0.065-0.206,0.086-0.315
	C27.329,18.886,27.337,18.781,27.331,18.677z M20.956,23.476c0.143,0,0.278-0.037,0.404-0.11c0.122-0.071,0.218-0.167,0.288-0.288
	c0.286-0.386,0.561-0.761,0.739-1.212c0.198-0.506,0.294-1.024,0.298-1.569c0.004-0.488-0.041-0.982-0.063-1.469
	c-0.024-0.547-0.047-1.092-0.078-1.637c-0.026-0.433-0.343-0.794-0.794-0.794c-0.41,0-0.822,0.361-0.792,0.794
	c0.043,0.637,0.09,1.275,0.131,1.912c0.033,0.514,0.067,1.031,0.025,1.545c-0.043,0.218-0.104,0.426-0.178,0.635
	c-0.103,0.214-0.23,0.415-0.369,0.608c-0.06,0.071-0.122,0.141-0.18,0.214c-0.139,0.175-0.235,0.335-0.235,0.569
	c0,0.212,0.086,0.418,0.235,0.567C20.539,23.389,20.743,23.476,20.956,23.476z M9.539,6.253c0.073,0.161,0.192,0.308,0.302,0.443
	c0.339,0.422,0.755,0.77,1.104,1.185c0.075,0.108,0.142,0.218,0.2,0.335c0.032,0.099,0.056,0.197,0.076,0.299
	c0.005,0.072,0.007,0.143,0.005,0.215c-0.022,0.101-0.05,0.2-0.084,0.299c-0.061,0.127-0.13,0.246-0.209,0.363
	c-0.072,0.083-0.147,0.164-0.221,0.246c-0.316,0.337-0.335,0.865,0,1.198c0.157,0.159,0.375,0.249,0.6,0.249
	c0.2,0,0.471-0.082,0.6-0.249c0.241-0.31,0.484-0.616,0.657-0.971c0.204-0.422,0.329-0.867,0.314-1.335
	c-0.016-0.432-0.143-0.845-0.347-1.222c-0.2-0.371-0.508-0.694-0.806-0.99c-0.224-0.225-0.46-0.437-0.668-0.678
	c-0.042-0.064-0.081-0.128-0.116-0.194c-0.01-0.03-0.018-0.06-0.026-0.09c0-0.031,0-0.062,0.002-0.093
	c0.029-0.121,0.067-0.238,0.113-0.354c0.136-0.292,0.302-0.563,0.495-0.822c0.07-0.09,0.14-0.181,0.211-0.27
	c0.141-0.18,0.241-0.343,0.241-0.58c0-0.218-0.086-0.427-0.241-0.58c-0.153-0.155-0.363-0.241-0.58-0.241
	c-0.147,0-0.286,0.037-0.414,0.112c-0.124,0.073-0.222,0.171-0.294,0.294c-0.192,0.249-0.382,0.496-0.549,0.761
	c-0.21,0.333-0.363,0.71-0.488,1.08C9.356,4.836,9.319,5.044,9.311,5.228c-0.01,0.18,0.016,0.353,0.041,0.533
	C9.378,5.932,9.47,6.099,9.539,6.253z M14.442,5.88c0.069,0.157,0.143,0.31,0.239,0.451c0.192,0.288,0.426,0.541,0.646,0.805
	c0.089,0.123,0.175,0.248,0.256,0.377c0.073,0.117,0.132,0.241,0.188,0.367c0.06,0.165,0.109,0.33,0.143,0.501
	c0.007,0.141,0.004,0.279-0.008,0.42c-0.041,0.212-0.104,0.412-0.182,0.612c-0.088,0.194-0.18,0.387-0.279,0.577
	c-0.222,0.422-0.112,0.947,0.314,1.196c0.402,0.235,0.971,0.106,1.198-0.314c0.18-0.335,0.331-0.686,0.473-1.041
	c0.071-0.178,0.122-0.365,0.161-0.553c0.11-0.533,0.096-1.051-0.035-1.579c-0.069-0.284-0.196-0.58-0.335-0.837
	c-0.098-0.18-0.2-0.349-0.32-0.518c-0.133-0.188-0.28-0.369-0.431-0.543c-0.093-0.109-0.195-0.211-0.29-0.317
	c-0.075-0.112-0.142-0.224-0.202-0.343c-0.018-0.055-0.034-0.11-0.048-0.165c0.013-0.059,0.029-0.117,0.048-0.176
	c0.251-0.535,0.583-1.018,0.916-1.507c0.265-0.388,0.075-0.953-0.31-1.177C16.447,2.037,16.303,2,16.162,2
	c-0.296,0-0.578,0.162-0.755,0.425c-0.202,0.3-0.404,0.6-0.582,0.914c-0.222,0.388-0.451,0.808-0.545,1.247
	c-0.018,0.102-0.031,0.206-0.043,0.31c-0.022,0.124-0.014,0.247,0.018,0.369C14.285,5.486,14.354,5.676,14.442,5.88z M19.397,6.713
	c-0.061-0.253-0.078-0.504-0.059-0.763c0.029-0.353,0.145-0.682,0.257-1.014c0.084-0.253,0.18-0.502,0.284-0.747
	c-0.029,0.069-0.059,0.139-0.09,0.21c0.135-0.32,0.267-0.639,0.41-0.955c0.09-0.198,0.326-0.349,0.528-0.404
	c0.077-0.021,0.156-0.032,0.234-0.032c0.155,0,0.309,0.041,0.444,0.12c0.198,0.116,0.345,0.306,0.406,0.528
	c0.067,0.245,0.016,0.457-0.088,0.678c-0.1,0.211-0.194,0.426-0.289,0.639c-0.14,0.355-0.293,0.715-0.379,1.087
	c-0.001,0.028-0.002,0.055-0.001,0.082c0.105,0.104,0.215,0.202,0.332,0.294c0.224,0.177,0.416,0.371,0.575,0.612
	c0.3,0.457,0.506,0.986,0.553,1.533c0.053,0.637-0.153,1.251-0.431,1.814c-0.153,0.31-0.347,0.571-0.559,0.843
	c-0.131,0.171-0.408,0.253-0.614,0.253c-0.229,0-0.451-0.09-0.612-0.253c-0.163-0.163-0.255-0.384-0.255-0.614
	c0-0.245,0.102-0.429,0.255-0.612c0.034-0.042,0.068-0.083,0.103-0.125c0.082-0.121,0.149-0.247,0.211-0.378
	c0.069-0.183,0.127-0.362,0.166-0.551c0.004-0.096,0.004-0.189-0.003-0.284c-0.022-0.108-0.051-0.213-0.089-0.318
	c-0.066-0.139-0.137-0.274-0.223-0.403C20.29,7.77,20.084,7.63,19.899,7.457C19.684,7.255,19.468,7.008,19.397,6.713z M21.055,6.172
	c0.011,0.016,0.023,0.031,0.035,0.045C21.078,6.202,21.066,6.187,21.055,6.172L21.055,6.172z"/>
</svg>