<?xml version="1.0" encoding="utf-8"?>
<!-- Generator: Adobe Illustrator 21.1.0, SVG Export Plug-In . SVG Version: 6.00 Build 0)  -->
<svg version="1.1" id="designs" xmlns="http://www.w3.org/2000/svg" xmlns:xlink="http://www.w3.org/1999/xlink" x="0px" y="0px"
	 width="32px" height="32px" viewBox="0 0 32 32" style="enable-background:new 0 0 32 32;" xml:space="preserve">
<style type="text/css">
	.sketchy_een{fill:#111918;}
</style>
<path class="sketchy_een" d="M6.946,29.998c-0.521-0.028-0.991-0.095-1.398-0.197C5.364,29.752,5.182,29.697,5,29.637l-0.308-0.111
	c-0.147-0.055-0.319-0.12-0.451-0.202c-0.492-0.307-0.845-0.599-1.108-0.919l-0.073-0.088c-0.144-0.173-0.289-0.348-0.4-0.541
	c-0.118-0.204-0.214-0.425-0.291-0.645c-0.172-0.491-0.249-0.961-0.23-1.399c0.026-0.589,0.115-1.064,0.271-1.454l0.044-0.11
	c0.067-0.172,0.135-0.344,0.23-0.503c0.108-0.179,0.243-0.362,0.379-0.522c0.133-0.156,0.27-0.308,0.426-0.443
	c0.364-0.313,0.77-0.562,1.244-0.762c0.265-0.11,0.53-0.208,0.807-0.286c0.261-0.075,0.557-0.116,0.933-0.127l0.126-0.002
	c0.301,0,0.596,0.036,0.876,0.108c0.334,0.088,0.718,0.2,1.032,0.423l0.126,0.098l0.104,0.016c0.482-0.532,0.946-0.964,1.411-1.396
	c0.288-0.268,0.575-0.536,0.856-0.81c0.849-0.832,1.647-1.696,2.373-2.57l0.127-0.149c-0.39-0.481-0.744-0.959-1.053-1.423
	c-0.518-0.777-0.87-1.551-1.046-2.302c-0.18-0.764-0.289-1.607-0.332-2.577c-0.022-0.494,0.007-0.922,0.089-1.307
	c0.072-0.337,0.172-0.685,0.318-1.095c0.153-0.431,0.369-0.882,0.641-1.339c0.216-0.357,0.435-0.716,0.686-1.048
	c0.179-0.237,0.355-0.468,0.551-0.685c0.123-0.138,0.258-0.264,0.393-0.39c0.42-0.396,0.813-0.708,1.273-1.02
	c0.385-0.261,0.785-0.503,1.189-0.731l0.12-0.067c0.361-0.201,0.721-0.403,1.097-0.57c0.959-0.429,2.025-0.562,2.941-0.636
	l0.111-0.009C20.75,2.023,21.021,2,21.291,2c0.14,0,0.279,0.006,0.417,0.022c0.523,0.06,1.007,0.169,1.475,0.331
	c0.521,0.182,1.002,0.399,1.428,0.647c0.389,0.223,0.787,0.508,1.253,0.896c1.332,1.103,2.458,2.558,3.256,4.211
	c0.189,0.393,0.395,0.86,0.491,1.339c0.088,0.445,0.186,0.962,0.233,1.474c0.04,0.463,0.021,0.932-0.059,1.433
	c-0.075,0.466-0.217,0.934-0.445,1.474c-0.169,0.396-0.348,0.792-0.556,1.167c-0.222,0.402-0.453,0.818-0.737,1.187
	c-0.317,0.415-0.649,0.813-0.992,1.21c-0.344,0.398-0.645,0.703-0.946,0.961c-1.413,1.207-3.392,1.96-5.574,2.12
	c-0.221,0.016-0.44,0.025-0.66,0.025c-0.341,0-0.649-0.024-0.942-0.074c-0.428-0.073-0.844-0.207-1.391-0.449
	c-0.17-0.075-0.337-0.157-0.501-0.244c-0.512-0.271-0.995-0.591-1.46-0.936c-0.143-0.106-0.289-0.207-0.43-0.319
	c-0.026-0.02-0.266-0.242-0.291-0.23c-0.125,0.152-0.19,0.265-0.277,0.367c-0.776,0.922-1.645,1.78-2.467,2.58
	c-0.284,0.277-0.578,0.544-0.871,0.811c-0.429,0.39-0.872,0.793-1.277,1.223l0.028,0.104c0.234,0.263,0.491,0.561,0.672,0.898
	c0.286,0.529,0.361,1.201,0.223,1.996c-0.068,0.388-0.163,0.721-0.289,1.02c-0.179,0.427-0.393,0.874-0.747,1.256
	c-0.332,0.359-0.698,0.666-1.12,0.94C8.178,29.802,7.579,30,7.05,30L6.946,29.998z M6.629,23.18c-0.127,0-0.253,0.006-0.381,0.016
	c-0.25,0.049-0.486,0.129-0.718,0.221c-0.257,0.12-0.482,0.248-0.691,0.394c-0.168,0.146-0.316,0.3-0.457,0.467
	c-0.083,0.121-0.156,0.24-0.22,0.366c-0.092,0.249-0.16,0.508-0.21,0.797c-0.017,0.231-0.017,0.455,0,0.68
	c0.038,0.194,0.092,0.376,0.157,0.557c0.062,0.126,0.129,0.241,0.208,0.353c0.18,0.222,0.358,0.407,0.545,0.568
	c0.114,0.081,0.228,0.153,0.349,0.218c0.39,0.149,0.808,0.26,1.246,0.333c0.171,0.02,0.338,0.032,0.507,0.032l0.186-0.005
	c0.126-0.026,0.242-0.059,0.356-0.101c0.295-0.137,0.542-0.278,0.761-0.435c0.185-0.157,0.357-0.317,0.514-0.494
	c0.112-0.16,0.206-0.322,0.288-0.494c0.12-0.318,0.205-0.632,0.262-0.964c0.01-0.138,0.015-0.27,0.01-0.404
	c-0.023-0.12-0.05-0.229-0.084-0.338c-0.071-0.133-0.146-0.247-0.227-0.363c-0.16-0.106-0.257-0.168-0.364-0.26l-0.396-0.336
	c-0.193-0.165-0.385-0.329-0.581-0.489c-0.092-0.063-0.181-0.118-0.276-0.167c-0.192-0.066-0.379-0.111-0.571-0.146
	C6.768,23.182,6.699,23.18,6.629,23.18z M13.276,8.574c-0.187,0.469-0.312,0.92-0.389,1.369c-0.025,0.335-0.023,0.64,0.006,0.937
	c0.033,0.317,0.07,0.632,0.109,0.947c0.099,0.66,0.226,1.365,0.484,2.05c0.317,0.682,0.723,1.356,1.243,2.063
	c0.284,0.021,0.517,0.115,0.697,0.284c0.084,0.079,0.165,0.161,0.245,0.243c0.106,0.108,0.213,0.217,0.327,0.318
	c0.712,0.528,1.544,1.125,2.47,1.552c0.306,0.118,0.598,0.202,0.896,0.259c0.187,0.018,0.37,0.025,0.555,0.025
	c0.369,0,0.742-0.03,1.108-0.074c0.791-0.124,1.565-0.326,2.305-0.601c0.517-0.232,1.006-0.515,1.496-0.863
	c0.249-0.211,0.473-0.442,0.695-0.675l0.043-0.046c0,0-0.195-0.115-0.229-0.131c-0.124-0.043-0.242-0.076-0.366-0.103
	c-0.22-0.022-0.434-0.029-0.649-0.029c-0.194,0-0.388,0.006-0.582,0.011c-0.198,0.005-0.386,0.01-0.573,0.01
	c-0.108,0-0.216-0.002-0.323-0.006c-0.868-0.035-1.57-0.186-2.208-0.473c-0.14-0.063-0.27-0.134-0.4-0.215
	c-0.185-0.118-0.346-0.281-0.519-0.529c-0.088-0.122-0.169-0.249-0.244-0.378C19.304,14.224,19.154,13.9,19,13.501l-0.351-0.917
	c-0.058-0.143-0.11-0.288-0.162-0.432l-0.097-0.266c-0.063-0.121-0.131-0.227-0.206-0.331c-0.086-0.099-0.173-0.189-0.27-0.273
	c-0.096-0.059-0.185-0.108-0.278-0.153c-0.286-0.096-0.577-0.155-0.868-0.214l-0.463-0.098c-0.182-0.04-0.364-0.08-0.542-0.134
	c-0.196-0.06-0.388-0.144-0.575-0.225l-0.113-0.049c-0.148-0.063-0.267-0.113-0.378-0.173C14.473,10.114,14.192,9.946,14,9.715
	c-0.215-0.257-0.413-0.495-0.51-0.781c-0.043-0.121-0.083-0.242-0.108-0.366l-0.04-0.119L13.276,8.574z M24.501,14.514
	c0.16,0.006,0.317,0.016,0.476,0.033c0.234,0.027,0.454,0.052,0.648,0.124c0.344,0.125,0.66,0.293,0.922,0.44
	c0.347-0.423,0.608-0.872,0.865-1.387l0.02-0.039l-0.105-0.072c-0.069-0.048-0.137-0.096-0.213-0.133
	c-0.245-0.084-0.49-0.145-0.738-0.188l-0.131-0.004c-0.225,0-0.449,0.031-0.672,0.063c-0.216,0.032-0.431,0.063-0.648,0.063
	c-0.057,0-0.113-0.002-0.17-0.007c-0.281-0.024-0.565-0.049-0.84-0.106c-0.305-0.063-0.694-0.163-0.998-0.376
	c-0.237-0.165-0.448-0.317-0.63-0.506c-0.069-0.072-0.135-0.143-0.199-0.218c-0.099-0.119-0.189-0.225-0.231-0.31
	c-0.1-0.196-0.189-0.402-0.252-0.614c-0.1-0.337-0.151-0.707-0.156-1.132c-0.002-0.173-0.004-0.346-0.014-0.519
	c-0.036-0.206-0.09-0.4-0.16-0.59l-0.052-0.093c-0.08-0.087-0.167-0.166-0.257-0.243c-0.064-0.043-0.123-0.08-0.184-0.114
	c-0.123-0.043-0.237-0.072-0.356-0.094l-0.396-0.036c-0.235-0.02-0.471-0.04-0.707-0.069c-0.265-0.033-0.51-0.063-0.747-0.12
	c-0.471-0.111-0.894-0.315-1.292-0.624c-0.303-0.235-0.559-0.571-0.719-0.945l-0.047-0.105c-0.04-0.086-0.08-0.173-0.104-0.263
	c-0.045-0.165-0.072-0.33-0.087-0.5l-0.015-0.236c-0.004-0.082-0.001-0.164,0.002-0.245l0.011-0.245c0,0-0.493,0.238-0.837,0.522
	c-0.344,0.283-0.592,0.549-0.838,0.811c0.106,0.208,0.165,0.366,0.188,0.577c0.017,0.161,0.074,0.829,0.093,1.002
	c0.024,0.133,0.052,0.258,0.087,0.385l0.063,0.103c0.062,0.072,0.123,0.135,0.189,0.196c0.194,0.127,0.393,0.228,0.596,0.32
	c0.471,0.18,0.982,0.283,1.432,0.374c0.59,0.118,1.262,0.282,1.763,0.741c0.2,0.181,0.391,0.412,0.585,0.704
	c0.174,0.26,0.28,0.561,0.383,0.852c0.178,0.503,0.347,0.977,0.532,1.441c0.153,0.338,0.319,0.63,0.506,0.895
	c0.139,0.103,0.235,0.155,0.335,0.205c0.303,0.108,0.587,0.186,0.874,0.24c0.369,0.038,0.737,0.045,1.105,0.045l0.886-0.005
	L24.501,14.514z M26.146,11.682c0.218,0,0.443,0.025,0.669,0.074c0.368,0.079,0.736,0.21,1.124,0.399l0.055,0.027l0.058-0.248
	c0.039-0.438,0.028-0.893-0.031-1.395l-0.017-0.119c-0.032-0.232-0.066-0.467-0.126-0.693c-0.052-0.193-0.116-0.379-0.186-0.563
	c-0.41-0.897-0.938-1.776-1.571-2.615c-0.532-0.657-1.076-1.212-1.664-1.698c-0.462-0.341-0.908-0.612-1.366-0.832
	c-0.468-0.18-0.911-0.307-1.358-0.39c-0.2-0.018-0.395-0.025-0.59-0.025c-0.477,0-0.949,0.043-1.392,0.087
	c-0.614,0.092-1.146,0.22-1.63,0.391L18.084,4.1l-0.111,0.098c0.025,0.1,0.037,0.144,0.033,0.189l-0.011,0.138
	c-0.032,0.418-0.066,0.851-0.037,1.276c0.016,0.061,0.03,0.11,0.048,0.16c0.053,0.113,0.108,0.217,0.172,0.317
	c0.053,0.058,0.102,0.106,0.154,0.152c0.108,0.073,0.215,0.136,0.325,0.193c0.257,0.089,0.516,0.138,0.776,0.182
	c0.228,0.026,0.455,0.043,0.681,0.06l0.337,0.027c0.433,0.036,0.775,0.12,1.078,0.266c0.27,0.132,0.544,0.334,0.771,0.569
	C22.435,7.864,22.561,8,22.643,8.158c0.103,0.198,0.186,0.406,0.253,0.62c0.05,0.151,0.087,0.312,0.108,0.471
	c0.033,0.242,0.06,0.477,0.062,0.723l0.001,0.135c0,0.137,0.001,0.273,0.01,0.409c0.033,0.174,0.081,0.338,0.138,0.5
	c0.022,0.044,0.042,0.077,0.065,0.112c0.097,0.112,0.195,0.211,0.301,0.304c0.109,0.076,0.213,0.143,0.324,0.2
	c0.199,0.069,0.392,0.113,0.589,0.147c0.147,0.015,0.287,0.023,0.429,0.023c0.118,0,0.236-0.005,0.358-0.017l0.535-0.074
	c0.138-0.02,0.192-0.027,0.244-0.029L26.146,11.682z"/>
</svg>