<?xml version="1.0" encoding="utf-8"?>
<!-- Generator: Adobe Illustrator 21.1.0, SVG Export Plug-In . SVG Version: 6.00 Build 0)  -->
<svg version="1.1" id="designs" xmlns="http://www.w3.org/2000/svg" xmlns:xlink="http://www.w3.org/1999/xlink" x="0px" y="0px"
	 width="32px" height="32px" viewBox="0 0 32 32" style="enable-background:new 0 0 32 32;" xml:space="preserve">
<style type="text/css">
	.sketchy_een{fill:#111918;}
</style>
<path class="sketchy_een" d="M17.422,29.066c-0.134,0-0.266-0.036-0.38-0.104c-0.622-0.369-1.184-0.669-1.718-0.915l-0.79-0.323
	c-0.135-0.039-0.257-0.11-0.358-0.212c-0.041-0.041-0.064-0.09-0.087-0.137l-0.128-0.042l-0.177-0.018
	c-0.963-0.123-1.953-0.132-2.91-0.142l-0.291-0.003c-0.153-0.002-0.302-0.054-0.456-0.157l-0.136,0.054l-0.176,0.046
	c-0.344,0.096-0.684,0.201-1.025,0.306c-0.418,0.129-0.836,0.257-1.26,0.37c-0.071,0.019-0.145,0.029-0.219,0.029
	c-0.15,0-0.299-0.04-0.431-0.116C6.6,27.696,6.237,27.511,6.16,27.135c-0.073-0.36-0.201-0.716-0.324-1.061
	c-0.075-0.21-0.151-0.42-0.215-0.631c-0.15-0.498-0.308-0.994-0.464-1.49c-0.292-0.925-0.595-1.882-0.85-2.836
	c-0.172-0.647-0.329-1.298-0.485-1.95c-0.192-0.798-0.384-1.596-0.604-2.388c-0.368-1.325-0.721-2.756-1.078-4.375
	c-0.171-0.767-0.342-1.532-0.523-2.293C1.43,9.323,1.249,8.559,1.03,7.808c-0.063-0.22-0.025-0.455,0.106-0.662l0.083-0.094
	L1.176,7.027C1.28,6.849,1.434,6.73,1.675,6.643c0.451-0.165,0.912-0.292,1.374-0.42c0.31-0.086,0.619-0.171,0.926-0.268
	C4.719,5.72,5.463,5.491,6.21,5.265c1.495-0.45,2.999-0.864,4.506-1.273l0.778-0.208c0.445-0.118,0.89-0.237,1.334-0.361
	l0.464-0.122c0.181-0.046,0.361-0.092,0.539-0.143c0.329-0.094,0.649-0.186,0.989-0.224c0.265,0,0.471,0.13,0.582,0.242
	c0.138,0.138,0.22,0.328,0.233,0.536c0.144,0.055,0.328,0.246,0.356,0.45l0.05,0.311l0.221-0.011
	c0.804,0.094,1.607,0.188,2.41,0.293c0.478,0.061,0.955,0.142,1.429,0.235c0.396,0.076,0.767,0.148,1.13,0.24
	c0.2,0.05,0.37,0.194,0.468,0.396c0.184,0.16,0.285,0.39,0.267,0.619c-0.012,0.153-0.028,0.305-0.045,0.457L21.904,6.85
	c0.629,0.197,1.283,0.459,1.937,0.731l0.243,0.101c0.556,0.23,1.114,0.46,1.657,0.717c0.185,0.087,0.311,0.263,0.355,0.495
	c0.058,0.067,0.108,0.165,0.137,0.27c0.064,0.237,0.014,0.429-0.083,0.646l0.585,0.518c0.478,0.355,0.956,0.71,1.449,1.043
	c0.19,0.129,0.318,0.324,0.361,0.549c0.278,0.243,0.35,0.671,0.156,0.99c-0.056,0.092-0.117,0.18-0.177,0.269l-0.099,0.146
	c0.126,0.016,0.375,0.335,0.465,0.416c0.318,0.287,0.635,0.575,0.951,0.864c0.521,0.476,1.638,1.221,0.93,2.005
	c-0.488,0.54-0.959,1.021-1.44,1.47c-0.231,0.217-0.457,0.438-0.683,0.658c-0.272,0.266-0.543,0.531-0.823,0.789
	c-0.463,0.428-0.899,0.876-1.337,1.326l-0.702,0.715c-0.28,0.285-0.562,0.57-0.839,0.858c-0.277,0.286-0.551,0.575-0.823,0.863
	c-0.237,0.252-0.476,0.503-0.716,0.753c-0.341,0.352-0.699,0.685-1.056,1.018l-0.527,0.493c-0.31,0.298-0.624,0.589-0.938,0.88
	l-0.678,0.632c-0.491,0.468-0.988,0.986-1.518,1.584c-0.133,0.149-0.328,0.232-0.55,0.232c-0.07,0-0.14-0.008-0.21-0.024
	C17.823,28.986,17.623,29.066,17.422,29.066z M14.45,4.669c-0.133,0.033-0.265,0.065-0.399,0.091l-0.344,0.065
	c-0.213,0.039-0.426,0.078-0.637,0.127c-0.712,0.163-1.421,0.339-2.127,0.524c-0.439,0.115-0.876,0.242-1.313,0.368
	C9.322,5.934,9.014,6.024,8.704,6.109C7.968,6.313,7.238,6.527,6.51,6.759c-1.13,0.358-2.461,0.79-3.768,1.279
	c0.115,0.328,0.191,0.714,0.267,1.099c0.107,0.537,0.221,1.071,0.336,1.605l0.151,0.706c0.096,0.453,0.208,0.901,0.32,1.349
	c0.069,0.274,0.328,1.36,0.328,1.36c0.133,0.566,0.265,1.132,0.418,1.691l0.134,0.488c0.154,0.557,0.307,1.113,0.444,1.676
	l0.177,0.738c0.115,0.482,0.23,0.966,0.353,1.445c0.184,0.72,0.387,1.434,0.598,2.147c0.116,0.391,0.246,0.778,0.376,1.165
	c0.109,0.323,0.218,0.646,0.318,0.971l0.086,0.281c0.137,0.448,0.274,0.898,0.425,1.342l0.366-0.134
	c0.321-0.077,0.642-0.153,0.962-0.237l1.561-0.397c0.745-0.19,1.489-0.379,2.238-0.554l0.298-0.068
	c0.292-0.066,0.585-0.132,0.875-0.208c0,0,0.944-0.256,1.167-0.312c0.744-0.19,1.488-0.385,2.23-0.579l1.102-0.295
	c0.3-0.077,0.599-0.155,0.891-0.258c-0.059-0.062-0.091-0.182-0.123-0.301c-0.1-0.369-0.169-0.672-0.237-0.975
	c-0.156-0.678-0.339-1.352-0.531-2.022c-0.135-0.476-0.259-0.956-0.383-1.437l-0.18-0.691c-0.164-0.614-0.311-1.233-0.459-1.851
	l-0.21-0.892c-0.123-0.527-0.244-1.054-0.392-1.574c-0.366-1.298-0.79-2.832-1.147-4.362c-0.175-0.754-0.331-1.428-0.52-2.097
	l-0.098-0.341c-0.072-0.248-0.145-0.495-0.206-0.745C14.583,5.406,14.512,5.039,14.45,4.669z M14.797,25.933
	c0.285,0,0.573,0.028,0.862,0.053c0.492,0.042,0.984,0.085,1.478,0.101c-0.025-0.251,0-0.539,0.029-0.831l-0.554,0.148
	c-0.356,0.092-0.712,0.179-1.07,0.259c-0.253,0.058-0.504,0.124-0.755,0.191l-0.385,0.101
	C14.533,25.939,14.665,25.933,14.797,25.933z M27.402,14.75c-0.264,0.349-0.465,0.629-0.667,0.909l-0.131,0.183
	c-0.296,0.41-0.585,0.823-0.874,1.236l-0.45,0.641c-0.201,0.283-0.407,0.561-0.613,0.839c-0.256,0.344-0.512,0.687-0.755,1.04
	c-0.15,0.218-0.297,0.436-0.444,0.655c-0.284,0.425-0.568,0.849-0.877,1.258c-0.21,0.276-0.41,0.561-0.609,0.845
	c-0.219,0.307-0.449,0.604-0.677,0.902l-0.193,0.258c-0.084,0.115-0.166,0.23-0.257,0.341c0,0-0.668,0.943-0.951,1.328l-0.371,0.504
	l0.559-0.621l0.317-0.279c0.469-0.41,0.933-0.826,1.385-1.256c0.458-0.436,0.9-0.887,1.343-1.339l1.061-1.09
	c0.745-0.769,1.49-1.539,2.261-2.282c0.131-0.127,0.694-0.649,0.838-0.789c0.163-0.159,0.32-0.321,0.479-0.484l0.433-0.44
	c0.216-0.216,0.433-0.433,0.633-0.663c0.078-0.089,0.152-0.181,0.226-0.273c-0.352-0.371-0.781-0.727-1.209-1.082l-0.453-0.377
	L27.402,14.75z M25.348,11.423l-0.083,0.157c-0.279,0.53-0.551,1.065-0.816,1.605c-0.45,0.919-0.865,1.853-1.281,2.787
	c-0.219,0.492-0.438,0.984-0.662,1.474c-0.312,0.679-0.613,1.363-0.914,2.047l-0.082,0.188c-0.122,0.28-0.243,0.56-0.373,0.838
	l-0.117,0.249c-0.106,0.226-0.213,0.453-0.313,0.682l-0.089,0.238l0.026-0.053l0.236-0.323c0.191-0.258,0.388-0.513,0.585-0.767
	c0.215-0.285,0.377-0.514,0.535-0.748c0.423-0.634,0.867-1.253,1.316-1.87c0.319-0.441,0.63-0.888,0.94-1.336l0.484-0.695
	c0.779-1.116,1.585-2.27,2.304-3.454c-0.562-0.3-1.133-0.672-1.699-1.057L25.348,11.423z M20.335,17.528
	c-0.077,0.594-0.138,1.189-0.183,1.787l0.225-0.757c0.128-0.299,0.258-0.597,0.39-0.894c0.163-0.362,0.822-1.791,0.982-2.148
	c0.313-0.703,0.626-1.404,0.946-2.106l0.959-2.074c0.283-0.617,0.551-1.24,0.818-1.864l-0.369-0.082l-0.702-0.26
	c-0.591-0.215-1.186-0.424-1.781-0.633c-0.05,0.628-0.155,1.246-0.251,1.866c-0.143,0.924-0.282,1.848-0.414,2.774
	c-0.127,0.893-0.204,1.806-0.377,2.691C20.54,16.12,20.335,17.528,20.335,17.528z M16.594,7.194
	c0.109,0.476,0.218,0.952,0.333,1.428c0.169,0.688,0.352,1.373,0.535,2.058l0.031,0.119c0.197,0.722,0.397,1.443,0.609,2.161
	c0.163,0.552,0.297,1.111,0.432,1.67l0.125,0.514c0.096,0.393,0.2,0.784,0.304,1.174l0.013,0.047c0,0,0.155-1.211,0.2-1.542
	c0.029-0.226,0.055-0.453,0.081-0.68c0.032-0.281,0.064-0.562,0.102-0.842c0.063-0.471,0.129-0.945,0.197-1.416
	c0.133-0.935,0.266-1.868,0.393-2.805c0.058-0.455,0.111-0.913,0.163-1.372c0.038-0.344,0.057-0.688,0.078-1.033L20.2,6.503
	L19.961,6.51c-0.738-0.077-1.479-0.141-2.218-0.204c-0.459-0.04-0.919-0.079-1.379-0.122L16.594,7.194z M20.752,13.872
	 M11.851,20.229c-0.075,0-0.15-0.01-0.222-0.03c-0.187-0.051-0.415-0.191-0.503-0.389c-0.097-0.22-0.162-0.542-0.312-0.727
	c-0.24,0.195-0.54,0.383-0.842,0.46c-0.199,0.051-0.383,0.075-0.563,0.075c-0.115,0-0.232-0.01-0.351-0.032
	c-0.563-0.1-1.062-0.41-1.337-0.829c-0.188-0.289-0.32-0.593-0.392-0.904c-0.098-0.417-0.098-0.829-0.083-1.213
	c0.026-0.689,0.165-1.413,0.44-2.279c0.057-0.183,0.422-1.305,0.422-1.305c0.081-0.258,0.161-0.515,0.253-0.769
	c0.089-0.245,0.21-0.401,0.392-0.507c0.097-0.057,0.207-0.094,0.32-0.109c0.124-0.112,0.309-0.186,0.469-0.186
	c0.271,0.025,0.45,0.062,0.661,0.175l0.517,0.283c0.096,0.051,0.197,0.094,0.298,0.137c0.084,0.036,0.169,0.072,0.252,0.113
	c0.17,0.085,0.336,0.174,0.502,0.269l0.107,0.06c0.263,0.149,0.534,0.302,0.777,0.479c0.324,0.235,0.661,0.493,0.94,0.798
	c0.242,0.268,0.484,0.581,0.762,0.985c0.282,0.411,0.42,0.859,0.4,1.297c-0.017,0.369-0.068,0.662-0.16,0.921
	c-0.101,0.288-0.29,0.597-0.545,0.894c-0.223,0.259-0.531,0.487-0.856,0.597c-0.143,0.048-0.292,0.079-0.443,0.091
	c-0.029,0.002-0.367,0.037-0.376,0.02c0.063,0.123,0.128,0.245,0.198,0.365c0.232,0.398,0.097,0.912-0.301,1.146
	C12.147,20.189,12,20.229,11.851,20.229z M9.774,13.341c-0.37,0.946-0.749,1.923-0.91,2.941c-0.047,0.424-0.198,1.304,0.239,1.588
	c0.11,0.072,0.249,0.085,0.38,0.08c0.062-0.002,0.125-0.008,0.184-0.026c0.155-0.048,0.275-0.177,0.348-0.323
	c0.177-0.352,0.139-0.801,0.554-0.996c0.157-0.073,0.298-0.11,0.431-0.11c0.082,0,0.161,0.014,0.236,0.041
	c0.138,0.051,0.269,0.116,0.399,0.182l0.198,0.097c0.248,0.122,0.63,0.215,0.893,0.107c0.17-0.07,0.309-0.211,0.377-0.381
	c0.035-0.086,0.052-0.178,0.064-0.27c0.061-0.447-0.178-0.7-0.433-1.038c-0.201-0.243-0.431-0.468-0.699-0.688
	c-0.235-0.164-0.487-0.304-0.74-0.445l-0.128-0.072c-0.302-0.172-0.61-0.336-0.931-0.475C10.081,13.49,9.923,13.424,9.774,13.341z"
	/>
</svg>