<?xml version="1.0" encoding="utf-8"?>
<!-- Generator: Adobe Illustrator 21.1.0, SVG Export Plug-In . SVG Version: 6.00 Build 0)  -->
<svg version="1.1" id="designs" xmlns="http://www.w3.org/2000/svg" xmlns:xlink="http://www.w3.org/1999/xlink" x="0px" y="0px"
	 width="32px" height="32px" viewBox="0 0 32 32" style="enable-background:new 0 0 32 32;" xml:space="preserve">
<style type="text/css">
	.sketchy_een{fill:#111918;}
</style>
<path class="sketchy_een" d="M27.657,2.719c0-0.387-0.326-0.714-0.714-0.714c-0.172,0-0.86,0.014-1.033,0.014
	c-0.399,0-1.399-0.008-1.399-0.008C24.044,2.005,23.576,2,23.108,2c-0.32,0-0.64,0.002-0.96,0.009
	c-0.105,0.002-0.21,0.031-0.342,0.093c-0.196,0.01-0.375,0.087-0.505,0.216c-0.122,0.121-0.244,0.342-0.226,0.539
	c0.079,0.801,0.111,1.529,0.095,2.225c-0.004,0.246,0.012,0.49,0.027,0.734l0.017,0.284c0.019,0.31,0.012,0.603-0.022,0.898
	c-0.054,0.358-0.128,0.778-0.281,1.19c-0.137,0.294-0.319,0.596-0.542,0.9c-0.335,0.416-0.688,0.82-1.05,1.213
	c-0.235,0.253-0.508,0.474-0.77,0.687c-0.146,0.119-0.292,0.237-0.432,0.361c-0.38,0.335-0.754,0.72-1.14,1.178
	c-0.181,0.215-0.365,0.434-0.614,0.666l-0.246-0.257c-0.446-0.481-0.943-0.971-1.563-1.543c-0.189-0.174-0.385-0.339-0.581-0.504
	c-0.354-0.298-0.72-0.606-1.036-0.968c-0.136-0.194-0.255-0.401-0.355-0.618c-0.213-0.54-0.393-1.127-0.534-1.744
	c-0.151-0.664-0.295-1.315-0.395-1.971c-0.019-0.163-0.082-0.836-0.102-1.009c-0.052-0.442-0.032-0.897-0.014-1.337l0.002-0.42
	c0-0.39-0.335-0.745-0.74-0.745c0,0-1.018,0.054-1.018,0.054c-0.292,0.017-0.586,0.018-0.879,0.02L8.544,2.151
	c-0.193,0.002-0.385,0.011-0.577,0.02C7.742,2.18,7.518,2.19,7.209,2.19C6.846,2.184,6.508,2.172,6.17,2.158L5.334,2.117
	c-0.045-0.013-0.087-0.025-0.13-0.025c-0.445,0-0.814,0.369-0.822,0.822C4.375,3.392,4.329,5.539,4.329,5.539
	C4.32,5.993,4.372,6.433,4.451,6.952c0.062,0.385,0.126,0.771,0.215,1.151l0.042,0.179c0.183,0.784,0.372,1.595,0.665,2.356
	c0.37,0.947,0.823,1.787,1.347,2.495c0.496,0.671,1.081,1.276,1.638,1.838c0.286,0.286,0.613,0.561,1.001,0.839
	c0.134,0.098,0.272,0.188,0.41,0.279c0.144,0.095,0.287,0.189,0.428,0.292c0.489,0.408,0.885,0.889,1.27,1.357
	c0.312,0.419,0.552,0.817,0.737,1.219c0.112,0.295,0.197,0.601,0.253,0.912c0.039,0.375,0.05,0.752,0.036,1.129
	c-0.013,0.353-0.019,0.721-0.093,1.067c-0.039,0.18-0.094,0.373-0.026,0.544c0-0.001-0.322,0.024-0.356,0.026l-0.356,0.004
	c-0.232,0-0.933-0.014-0.933-0.014c-0.235,0-0.458,0.122-0.691,0.39c-0.286,0.286-0.286,0.753,0.001,1.062l0.399,0.441
	c0.198,0.221,0.397,0.443,0.603,0.659l0.426,0.44c0.328,0.336,0.657,0.672,0.962,1.025c0,0,0.533,0.6,0.651,0.737l0.268,0.322
	c0.133,0.161,0.265,0.322,0.404,0.478c0.13,0.144,0.265,0.283,0.401,0.423l0.28,0.292l0.814,0.893
	C15.376,29.924,15.558,30,15.761,30c0.204,0,0.399-0.079,0.553-0.231c0.072-0.035,0.146-0.072,0.247-0.202
	c0.398-0.512,0.796-1.023,1.209-1.521l0.11-0.133c0.351-0.422,0.703-0.846,1.081-1.243c0.369-0.391,0.712-0.81,1.051-1.227
	l0.128-0.158c0.272-0.334,0.528-0.68,0.785-1.025l0.417-0.558c0.055-0.072,0.083-0.179,0.097-0.358
	c0.122-0.139,0.183-0.296,0.183-0.467c0-0.404-0.332-0.735-0.742-0.739l-1.041,0.004l-0.283-0.016l-0.004-0.043
	c-0.021-0.233-0.03-0.467-0.039-0.701l-0.02-0.419c-0.028-0.479-0.118-0.952-0.2-1.351l0.031-0.119
	c0.163-0.355,0.344-0.672,0.557-0.972c0.448-0.542,0.949-1.057,1.432-1.555l0.231-0.238c0.383-0.395,0.795-0.759,1.205-1.122
	c0.25-0.221,0.5-0.443,0.744-0.671c0.221-0.206,0.431-0.423,0.642-0.64l0.574-0.583c0.195-0.194,0.389-0.388,0.577-0.588
	c0.32-0.344,0.643-0.729,0.983-1.176c0.234-0.305,0.477-0.634,0.659-1c0.159-0.321,0.292-0.67,0.406-1.067
	c0.064-0.225,0.092-0.463,0.122-0.696L27.5,8.861c0.042-0.297,0.083-0.593,0.099-0.892c0.011-0.238,0.012-0.475,0.012-0.712
	l0.003-0.599c0.003-0.459,0.006-0.917-0.013-1.375c-0.027-0.62-0.048-1.28,0.029-1.935l0.027-0.203
	C27.678,3.008,27.676,2.884,27.657,2.719z M19.417,23.605l0.126,0.002l0.055,0.059l-0.134,0.18
	c-0.236,0.298-0.484,0.588-0.731,0.878l-0.141,0.166c-0.199,0.235-0.407,0.459-0.615,0.684c-0.137,0.148-0.274,0.297-0.41,0.448
	c-0.182,0.206-0.996,1.146-0.996,1.146c-0.242,0.277-0.838,0.979-0.838,0.979s-0.672-0.687-0.923-0.96
	c-0.227-0.248-0.438-0.509-0.648-0.77c-0.15-0.186-0.31-0.363-0.469-0.54l-0.216-0.242c-0.327-0.369-0.667-0.727-1.007-1.083
	l-0.297-0.313l-0.035-0.082l0.554-0.015c0.189,0,0.385,0,0.568-0.05c0.201-0.053,0.371-0.194,0.469-0.378
	c0.049-0.093,0.08-0.196,0.089-0.301c0.009-0.104-0.021-0.197-0.04-0.296c0.33-0.087,0.342-0.6,0.369-0.866
	c0.026-0.253,0.047-0.507,0.063-0.761c0.028-0.448,0.038-0.897,0.022-1.346c-0.001-0.021-0.002-0.042-0.003-0.063
	c-0.036-0.887-0.301-1.765-0.765-2.537c-0.181-0.3-0.427-0.691-0.723-1.058l-0.158-0.196c-0.204-0.254-0.409-0.509-0.628-0.748
	c-0.301-0.328-0.686-0.613-0.996-0.842c-0.097-0.072-0.201-0.134-0.305-0.196c-0.077-0.046-0.153-0.092-0.227-0.141
	c-0.128-0.084-0.252-0.173-0.378-0.265c-0.367-0.305-0.704-0.653-1.014-0.983c-0.322-0.343-0.641-0.687-0.938-1.053
	c-0.418-0.597-0.783-1.244-1.085-1.925c-0.2-0.518-0.334-1.062-0.464-1.588L6.367,7.846c-0.07-0.261-0.139-0.522-0.192-0.787
	c-0.058-0.29-0.105-0.582-0.148-0.875C5.979,5.736,5.979,5.282,5.98,4.747C5.979,4.448,5.99,4.149,6,3.851L6.008,3.64l1.133-0.001
	c0.257-0.002,0.515-0.011,0.772-0.02c0.21-0.007,0.42-0.014,0.63-0.017l1.428-0.024v0.05c0.001,0.267,0.01,0.533,0.035,0.798
	c0.023,0.243,0.037,0.487,0.052,0.73l0.016,0.261c0.048,0.805,0.216,1.609,0.378,2.387l0.039,0.185
	c0.074,0.36,0.162,0.718,0.277,1.068c0.132,0.4,0.29,0.86,0.505,1.262c0.387,0.724,1.015,1.269,1.653,1.823
	c0.243,0.21,0.475,0.435,0.706,0.66l0.084,0.081c0.143,0.141,0.29,0.278,0.437,0.415l0.269,0.252
	c0.265,0.249,0.515,0.516,0.794,0.815c0.185,0.199,0.371,0.398,0.545,0.611c0.398,0.549,0.739,1.139,1.014,1.757
	c0.087,0.227,0.152,0.465,0.217,0.7l0.125,0.448c0.071,0.247,0.14,0.494,0.202,0.743c0.074,0.295,0.139,0.593,0.204,0.891
	l0.022,0.096c-0.067,0.243-0.017,0.488,0.146,0.723l0.056,0.277c0.028,0.307,0.034,0.614,0.039,0.923
	c0.006,0.281,0.011,0.562,0.025,0.874c-0.096,0.143-0.145,0.283-0.145,0.416c0,0.402,0.323,0.723,0.753,0.748
	C18.749,23.594,19.084,23.6,19.417,23.605z M26.06,3.474c-0.021,0.304-0.034,0.609-0.045,0.913L25.969,5.61
	c-0.012,0.313-0.036,0.624-0.061,0.936l-0.046,0.661c-0.019,0.304-0.037,0.608-0.071,0.912l-0.14,0.893
	c-0.048,0.326-0.141,0.673-0.278,1.034c-0.181,0.382-0.426,0.725-0.663,1.04c-0.271,0.339-0.547,0.673-0.848,0.986
	c-0.137,0.143-0.279,0.279-0.421,0.416c-0.155,0.149-0.31,0.299-0.459,0.455l-0.118,0.124c-0.261,0.276-0.521,0.553-0.8,0.815
	l-0.987,0.923c-0.326,0.305-0.647,0.612-0.95,0.94c-0.187,0.203-0.369,0.41-0.553,0.617l-0.359,0.403
	c-0.144,0.161-0.29,0.324-0.43,0.49l-0.067,0.073l-0.035-0.147c-0.136-0.449-0.265-0.872-0.446-1.296
	c-0.162-0.378-0.37-0.722-0.57-1.042c-0.031-0.051-0.067-0.099-0.103-0.147l-0.092-0.181l0.055-0.098
	c0.071-0.125,0.141-0.251,0.228-0.369c0.496-0.619,1.031-1.173,1.635-1.692l0.379-0.32c0.178-0.15,0.358-0.3,0.532-0.456
	c0.249-0.225,0.474-0.491,0.693-0.748l0.215-0.25c0.447-0.511,1.001-1.203,1.317-2.034c0.108-0.284,0.187-0.579,0.258-0.957
	c0.086-0.475,0.119-0.842,0.105-1.187c-0.014-0.285-0.046-0.568-0.079-0.852c-0.03-0.267-0.062-0.534-0.076-0.803l-0.08-1.23
	l0.062-0.054l0.053-0.001c0.637-0.017,1.275-0.034,1.914-0.039c0.395-0.003,0.789-0.005,1.186-0.005l0.196,0.002L26.06,3.474z"/>
</svg>