<?xml version="1.0" encoding="utf-8"?>
<!-- Generator: Adobe Illustrator 21.1.0, SVG Export Plug-In . SVG Version: 6.00 Build 0)  -->
<svg version="1.1" id="designs" xmlns="http://www.w3.org/2000/svg" xmlns:xlink="http://www.w3.org/1999/xlink" x="0px" y="0px"
	 width="32px" height="32px" viewBox="0 0 32 32" style="enable-background:new 0 0 32 32;" xml:space="preserve">
<style type="text/css">
	.sketchy_een{fill:#111918;}
</style>
<path class="sketchy_een" d="M14.492,1.109c-0.003,0-0.006,0.001-0.008,0.001c-0.007,0.001-0.014,0.002-0.022,0.003
	C14.472,1.112,14.482,1.111,14.492,1.109z M25.877,11.298c-0.065,0.997-0.343,2.012-0.788,2.905
	c-0.416,0.837-0.949,1.615-1.52,2.355c-0.51,0.66-1.205,1.143-1.748,1.775c-0.251,0.35-0.461,0.726-0.639,1.119
	c-0.133,0.349-0.227,0.704-0.288,1.072c-0.022,0.216-0.037,0.433-0.056,0.65c0.156,0.011,0.294,0.069,0.414,0.152
	c0.189,0.057,0.365,0.158,0.475,0.338c0.155,0.259,0.291,0.515,0.393,0.801c0.13,0.372,0.125,0.749,0.038,1.131
	c-0.045,0.201-0.113,0.423-0.233,0.594c0.094,0.19,0.172,0.391,0.205,0.599c0.059,0.382,0.068,0.756-0.132,1.103
	c0.024,0.056,0.046,0.113,0.069,0.169c0.077,0.19,0.126,0.378,0.155,0.581c0.025,0.176,0.05,0.341,0.036,0.515
	c-0.013,0.18-0.046,0.37-0.105,0.542c-0.052,0.157-0.107,0.322-0.19,0.466c-0.063,0.113-0.138,0.226-0.228,0.318
	c-0.109,0.109-0.241,0.197-0.364,0.287c-0.044,0.033-0.106,0.04-0.162,0.057c-0.078,0.071-0.168,0.128-0.277,0.151
	c-0.594,0.123-1.205,0.113-1.809,0.107c-0.237-0.003-0.472,0.004-0.709,0.008c-0.003,0.024-0.001,0.049-0.004,0.073
	c-0.04,0.305-0.092,0.565-0.224,0.845c-0.226,0.481-0.684,0.851-1.215,0.937c-0.368,0.059-0.728,0.086-1.088-0.036
	c-0.161-0.056-0.322-0.119-0.471-0.201c-0.167-0.092-0.351-0.215-0.469-0.364c-0.171-0.213-0.314-0.425-0.379-0.696
	c-0.023-0.096-0.042-0.192-0.059-0.287c-0.015-0.093-0.031-0.184-0.052-0.275c-0.053,0-0.106,0-0.159-0.001
	c-0.216-0.002-0.433-0.008-0.65-0.01c-0.477-0.002-0.956,0.027-1.433,0.035c-0.304,0.006-0.569-0.187-0.69-0.45
	c-0.076-0.038-0.148-0.083-0.216-0.143c-0.192-0.165-0.406-0.351-0.529-0.577c-0.121-0.22-0.199-0.469-0.171-0.726
	c0.015-0.144,0.033-0.297,0.071-0.439c0.057-0.215,0.144-0.416,0.237-0.614c-0.033-0.042-0.065-0.085-0.095-0.13
	c-0.18-0.272-0.259-0.563-0.301-0.882c-0.034-0.274,0.004-0.577,0.104-0.834c0.033-0.089,0.066-0.179,0.107-0.266
	c-0.017-0.022-0.033-0.043-0.049-0.065c-0.178-0.241-0.243-0.586-0.24-0.88c0.01-0.519,0.19-0.993,0.395-1.46
	c0.081-0.184,0.305-0.326,0.489-0.378c0.012-0.003,0.024-0.002,0.036-0.005c0.121-0.076,0.254-0.131,0.405-0.131
	c0.003,0,0.007,0,0.01,0c0.031,0,0.063,0,0.094,0c-0.031-0.191-0.07-0.377-0.132-0.561c-0.171-0.358-0.381-0.693-0.614-1.014
	c-0.437-0.528-0.931-1.008-1.433-1.472c-0.644-0.594-1.257-1.24-1.751-1.966c-0.255-0.376-0.454-0.778-0.642-1.19
	c-0.195-0.425-0.378-0.857-0.552-1.29c-0.711-1.765-0.834-3.771-0.333-5.603c0.249-0.91,0.625-1.788,1.134-2.583
	c0.517-0.811,1.081-1.587,1.757-2.273c0.682-0.692,1.529-1.173,2.447-1.481c0.885-0.296,1.813-0.466,2.736-0.591
	c0.52-0.064,1.043-0.107,1.566-0.11c0.014,0,0.028,0,0.042,0c0.596,0,1.214,0.08,1.792,0.211c0.939,0.211,1.822,0.602,2.698,0.995
	c0.868,0.391,1.706,0.924,2.374,1.608c0.657,0.673,1.221,1.445,1.665,2.275c0.418,0.78,0.805,1.602,1.006,2.47
	C25.837,9.453,25.938,10.379,25.877,11.298z M19.674,27.667c0.22,0.002,0.444,0.01,0.663-0.008c0.028-0.042,0.039-0.094,0.076-0.13
	c0.059-0.047,0.114-0.09,0.166-0.139c0.009-0.015,0.017-0.03,0.025-0.045c0.024-0.07,0.045-0.142,0.061-0.214
	c0.003-0.078,0.001-0.155-0.005-0.233c-0.021-0.11-0.049-0.218-0.085-0.324c-0.029-0.054-0.061-0.105-0.094-0.158
	c-0.13-0.215-0.201-0.489-0.125-0.736c0.058-0.185,0.176-0.33,0.271-0.492c0-0.01-0.001-0.021-0.001-0.031
	c-0.014-0.063-0.031-0.125-0.051-0.186c-0.034-0.066-0.071-0.13-0.113-0.192c-0.056-0.063-0.114-0.127-0.144-0.199
	c-0.075-0.172-0.117-0.249-0.123-0.439c-0.004-0.155,0.038-0.305,0.113-0.439c0.073-0.132,0.181-0.232,0.281-0.34
	c0.007-0.011,0.013-0.023,0.02-0.034c0.013-0.044,0.024-0.089,0.033-0.134c0.002-0.036,0.003-0.071,0.002-0.107
	c-0.013-0.056-0.029-0.111-0.048-0.166c-0.038-0.075-0.084-0.145-0.127-0.216c-0.617,0.006-1.233,0.044-1.85,0.061
	c-0.726,0.017-1.454,0.027-2.183,0.033c-0.749,0.006-1.499-0.002-2.248-0.04c-0.548-0.027-1.094-0.021-1.64-0.013
	c-0.132,0.001-0.264,0.001-0.396,0.002c-0.026,0.078-0.06,0.154-0.077,0.235c-0.003,0.042-0.004,0.084-0.004,0.127
	c0.022,0.025,0.042,0.051,0.064,0.075c1.328,0.04,2.654,0.089,3.978,0.188c0.126,0.01,0.253,0.019,0.379,0.03
	c0.374,0.032,0.663,0.361,0.635,0.737c-0.03,0.394-0.363,0.638-0.737,0.635c-1.408-0.01-2.816-0.03-4.224-0.055
	c-0.012,0.013-0.023,0.026-0.035,0.039c-0.01,0.017-0.02,0.034-0.029,0.051c-0.01,0.033-0.019,0.066-0.027,0.1
	c0,0.018,0,0.036,0.001,0.055c0.009,0.039,0.02,0.077,0.032,0.115c0.03,0.057,0.064,0.112,0.1,0.166
	c0.012,0.014,0.022,0.029,0.034,0.043c0.818,0.015,1.635,0.034,2.453,0.055c0.825,0.021,1.645,0.043,2.466-0.041
	c0.014-0.002,0.028-0.005,0.042-0.007c0.071-0.012,0.139-0.019,0.205-0.019c0.119,0,0.231,0.024,0.347,0.092
	c0.161,0.094,0.28,0.249,0.33,0.427c0.05,0.184,0.025,0.387-0.073,0.552c-0.082,0.142-0.255,0.305-0.427,0.33
	c-0.514,0.071-1.025,0.092-1.543,0.107c-0.429,0.011-0.859-0.012-1.288-0.015c-0.483-0.004-0.964,0.008-1.445,0.017
	c-0.345,0.007-0.69,0.011-1.035,0.013c-0.026,0.049-0.053,0.097-0.078,0.146c-0.028,0.079-0.051,0.16-0.069,0.242
	c0.085,0.084,0.177,0.159,0.273,0.236c0.05,0.04,0.079,0.105,0.112,0.165c0.301,0,0.602,0.004,0.902,0.009
	c0.381,0.006,0.761,0.011,1.142,0.008c0.247,0,0.496,0.012,0.719,0.136c0.22,0.125,0.389,0.33,0.498,0.558
	c0.088,0.188,0.157,0.381,0.201,0.583c0.029,0.137,0.056,0.273,0.096,0.406c0.004,0.006,0.008,0.013,0.011,0.019
	c0.018,0.018,0.036,0.035,0.055,0.052c0.038,0.024,0.077,0.046,0.117,0.068c0.065,0.023,0.13,0.043,0.197,0.059
	c0.058,0.003,0.115,0.002,0.172-0.002c0.036-0.008,0.072-0.016,0.107-0.027c0.004-0.002,0.009-0.005,0.013-0.007
	c0.003-0.003,0.006-0.006,0.01-0.009c0.014-0.023,0.028-0.047,0.041-0.071c0.026-0.08,0.045-0.161,0.06-0.243
	c-0.002,0-0.004,0-0.006,0c-0.41,0.008-0.751-0.347-0.751-0.751c0-0.41,0.341-0.749,0.751-0.751
	c0.669-0.004,1.338,0.029,2.006,0.036C19.128,27.665,19.402,27.665,19.674,27.667z M24.009,9.684
	c-0.104-0.618-0.271-1.209-0.502-1.79c-0.346-0.782-0.768-1.525-1.277-2.213c-0.332-0.402-0.692-0.767-1.095-1.096
	c-0.417-0.301-0.846-0.566-1.31-0.791c-0.414-0.202-0.835-0.392-1.257-0.573c-0.527-0.204-1.07-0.358-1.627-0.456
	c-0.416-0.047-0.838-0.08-1.257-0.059c-0.43,0.023-0.858,0.056-1.286,0.107c-0.877,0.132-1.756,0.304-2.585,0.626
	c-0.309,0.147-0.605,0.312-0.889,0.506c-0.458,0.38-0.862,0.813-1.235,1.278C9.408,5.605,9.134,5.997,8.891,6.404
	c-0.225,0.375-0.419,0.76-0.6,1.157C8.068,8.166,7.902,8.785,7.802,9.422c-0.024,0.305-0.042,0.609-0.044,0.916
	c-0.002,0.279,0.024,0.552,0.052,0.829c0.053,0.352,0.108,0.706,0.21,1.048c0.118,0.387,0.25,0.765,0.4,1.142
	c0.154,0.359,0.313,0.714,0.485,1.064c0.192,0.39,0.412,0.751,0.67,1.098c0.351,0.431,0.729,0.836,1.139,1.211
	c0.424,0.385,0.855,0.763,1.251,1.177c0.46,0.483,0.862,1.008,1.179,1.596c0.171,0.316,0.316,0.655,0.383,1.008
	c0.042,0.225,0.061,0.453,0.087,0.68c0.202,0.011,0.404,0.017,0.606,0.033c0.749,0.061,1.502,0.059,2.254,0.052
	c0.726-0.008,1.453-0.002,2.177-0.038c0.166-0.008,0.332-0.018,0.498-0.028c0.035-0.522,0.056-1.045,0.174-1.555
	c0.132-0.583,0.349-1.142,0.636-1.665c0.318-0.581,0.722-1.089,1.202-1.543c0.36-0.343,0.718-0.688,1.033-1.072
	c0.533-0.709,1.018-1.477,1.388-2.283c0.206-0.533,0.36-1.078,0.453-1.64C24.092,10.859,24.077,10.274,24.009,9.684z M22.5,8.479
	c-0.174-0.347-0.354-0.692-0.537-1.035c-0.14-0.264-0.427-0.405-0.714-0.405c-0.145,0-0.289,0.036-0.415,0.11
	c-0.397,0.232-0.51,0.732-0.295,1.129c0.258,0.476,0.549,0.937,0.78,1.427c0.066,0.178,0.114,0.358,0.147,0.544
	c0.033,0.36,0.031,0.717-0.005,1.076c-0.039,0.199-0.097,0.389-0.168,0.577c-0.154,0.333-0.339,0.642-0.554,0.938
	c-0.282,0.35-0.602,0.661-0.954,0.942c-0.021,0.016-0.043,0.032-0.065,0.048c-0.186,0.136-0.326,0.276-0.389,0.506
	c-0.061,0.219-0.029,0.458,0.084,0.654c0.286,0.487,0.933,0.54,1.334,0.172c0.238-0.222,0.468-0.456,0.698-0.688
	c0.297-0.297,0.55-0.638,0.795-0.977c0.192-0.266,0.356-0.556,0.485-0.857c0.169-0.393,0.278-0.763,0.333-1.186
	c0.088-0.65,0.04-1.336-0.125-1.97C22.843,9.132,22.663,8.801,22.5,8.479z"/>
</svg>