<?xml version="1.0" encoding="utf-8"?>
<!-- Generator: Adobe Illustrator 21.1.0, SVG Export Plug-In . SVG Version: 6.00 Build 0)  -->
<svg version="1.1" id="designs" xmlns="http://www.w3.org/2000/svg" xmlns:xlink="http://www.w3.org/1999/xlink" x="0px" y="0px"
	 width="32px" height="32px" viewBox="0 0 32 32" style="enable-background:new 0 0 32 32;" xml:space="preserve">
<style type="text/css">
	.sketchy_een{fill:#111918;}
</style>
<path class="sketchy_een" d="M29.783,12.462c0-0.42-0.356-0.794-0.784-0.784c-0.491,0.011-0.977-0.021-1.466-0.05
	c-0.245-0.013-0.489-0.021-0.734-0.023c-0.117,0-0.239,0.004-0.356,0.015c-0.148,0.015-0.297,0.037-0.443,0.062
	c-0.171,0.029-0.341,0.117-0.491,0.197c-0.299,0.156-0.491,0.474-0.697,0.728c-0.154,0.189-0.308,0.38-0.46,0.572
	c-0.202,0.254-0.399,0.512-0.599,0.768c-0.173-0.167-0.345-0.333-0.517-0.501c-0.341-0.333-0.665-0.682-1.004-1.017
	c-0.697-0.688-1.506-1.229-2.344-1.728c-0.865-0.514-1.826-0.855-2.807-1.061c-0.197-0.042-0.398-0.071-0.599-0.101
	c0.031-0.524,0.038-1.051,0.06-1.576c0.021-0.539,0.054-1.077,0.081-1.616c0.054-1.175,0.11-2.344,0.087-3.52
	C16.702,2.375,16.341,2,15.885,2c-0.117,0-0.228,0.029-0.332,0.076c-0.067-0.02-0.132-0.045-0.204-0.045c-0.007,0-0.015,0-0.022,0
	c-0.867,0.025-1.732,0.075-2.599,0.108c-0.747,0.027-1.495,0.038-2.244,0.054c-0.218,0.006-0.441,0.054-0.624,0.173
	C9.596,2.54,9.482,2.796,9.378,3.082c-0.1,0.273-0.123,0.591-0.156,0.876c-0.05,0.426-0.037,0.857-0.025,1.285
	c0.006,0.239,0.031,0.468,0.064,0.705c0.031,0.227,0.162,0.495,0.326,0.657C9.854,6.873,10.224,6.956,10.584,7
	c0.394,0.051,0.792,0.06,1.19,0.063c0.002,0.276,0.004,0.552,0.007,0.828c0.006,0.453-0.013,0.907,0.012,1.36
	c0.004,0.073,0.028,0.138,0.048,0.206c-0.248,0.03-0.496,0.064-0.741,0.109c-0.495,0.09-0.961,0.258-1.429,0.441
	c-0.484,0.187-0.961,0.395-1.426,0.626c-0.896,0.443-1.743,0.988-2.506,1.632c-0.356,0.302-0.676,0.655-0.99,0.998
	c-0.341,0.374-0.632,0.778-0.894,1.208c-0.221,0.364-0.441,0.732-0.632,1.114c-0.237,0.472-0.414,0.967-0.551,1.478
	c-0.127,0.477-0.226,0.953-0.295,1.441c-0.001,0.007-0.002,0.014-0.003,0.021c-0.012,0.085-0.023,0.167-0.035,0.252
	c-0.06,0.449-0.081,0.903-0.102,1.358c-0.021,0.418-0.033,0.844,0.013,1.262c0.056,0.491,0.123,0.983,0.272,1.457
	c0.146,0.466,0.318,0.928,0.537,1.366c0.447,0.886,1.083,1.693,1.77,2.406c0.387,0.401,0.817,0.747,1.258,1.088
	c0.376,0.289,0.765,0.557,1.171,0.803c0.846,0.508,1.797,0.821,2.755,1.036c0.957,0.216,1.938,0.36,2.917,0.43
	c0.988,0.069,1.963-0.065,2.934-0.249c0.873-0.166,1.726-0.387,2.558-0.697c0.667-0.249,1.302-0.54,1.907-0.911
	c0.643-0.397,1.254-0.869,1.849-1.335c0.566-0.443,1.06-0.946,1.493-1.52c0.041-0.054,0.08-0.112,0.12-0.167
	c0.082,0.125,0.167,0.247,0.249,0.372c0.32,0.489,0.62,1,0.982,1.46c0.156,0.198,0.368,0.335,0.607,0.416
	c0.185,0.064,0.381,0.081,0.576,0.104c0.268,0.031,0.539,0.033,0.807,0.042c0.562,0.021,1.125,0.023,1.686,0.013
	c0.299-0.004,0.556-0.181,0.686-0.432c0.005-0.005,0.013-0.007,0.019-0.012c0.158-0.158,0.218-0.345,0.233-0.561
	c0.025-0.354,0.015-0.709,0.013-1.063c0-0.345,0.004-0.689,0.006-1.032c0.008-0.705,0.012-1.41,0.008-2.115
	c0-0.333-0.002-0.667-0.013-1c-0.006-0.208-0.021-0.414-0.056-0.62c-0.058-0.351-0.281-0.601-0.576-0.784
	c-0.252-0.157-0.522-0.294-0.786-0.432c0.297-0.198,0.594-0.397,0.859-0.635c0.206-0.187,0.378-0.403,0.464-0.67
	c0.067-0.202,0.079-0.426,0.085-0.639c0.01-0.299,0.017-0.597,0.025-0.896c0.019-0.637,0.012-1.273,0.017-1.911
	c0.005-0.634,0.012-1.269,0.016-1.905C29.748,12.7,29.783,12.588,29.783,12.462z M14.852,9.371c-0.257-0.02-0.514-0.046-0.771-0.059
	c-0.086-0.004-0.171-0.006-0.257-0.006c-0.153,0-0.305,0.018-0.458,0.027c0.002-0.028,0.017-0.053,0.015-0.082
	c-0.007-0.141-0.002-0.283-0.005-0.425c0.501-0.004,1.002-0.008,1.503-0.025C14.871,8.991,14.863,9.181,14.852,9.371z M10.902,5.384
	c-0.057-0.556-0.097-1.119-0.059-1.675c0.221,0.001,0.443,0.013,0.66,0.016c0.389,0.008,0.778,0.008,1.167-0.002
	c0.801-0.021,1.601-0.044,2.402-0.064c0.006,0.315,0.016,0.63,0.013,0.946c-0.004,0.559-0.037,1.117-0.065,1.674
	c-0.015,0.297-0.035,0.593-0.054,0.89c-0.53-0.002-1.059-0.012-1.589-0.021c0.004-0.23,0.009-0.46,0.01-0.69
	c0-0.441-0.37-0.809-0.809-0.809c-0.038,0-0.07,0.017-0.107,0.022c-0.149-0.148-0.354-0.241-0.577-0.243
	c-0.322-0.002-0.644-0.01-0.966-0.039C10.919,5.387,10.91,5.385,10.902,5.384z M4.213,21.592c-0.009-0.05-0.025-0.098-0.033-0.148
	c-0.09-0.859-0.047-1.742,0.049-2.6c0.015-0.064,0.023-0.128,0.024-0.192c0.047-0.299,0.109-0.596,0.18-0.891
	c0.181,0.072,0.361,0.144,0.541,0.218c0.25,0.109,0.499,0.218,0.726,0.369c0.067,0.061,0.129,0.124,0.188,0.191
	c0.063,0.098,0.118,0.199,0.169,0.304c0.085,0.241,0.147,0.483,0.193,0.734c0.018,0.206,0.024,0.408,0.008,0.613
	c-0.033,0.158-0.081,0.31-0.139,0.46c-0.055,0.112-0.116,0.218-0.186,0.32c-0.071,0.079-0.145,0.151-0.225,0.221
	c-0.116,0.08-0.237,0.147-0.364,0.208c-0.184,0.063-0.369,0.109-0.561,0.142C4.594,21.56,4.403,21.574,4.213,21.592z M26.24,25.877
	c-0.021-0.004-0.041-0.008-0.061-0.013c-0.277-0.382-0.526-0.787-0.784-1.182c-0.244-0.377-0.492-0.754-0.74-1.13
	c0.021-0.057,0.048-0.113,0.067-0.171c0.15-0.464-0.171-0.975-0.626-1.1c-0.231-0.063-0.484-0.031-0.69,0.089
	c-0.22,0.129-0.318,0.31-0.41,0.536c-0.003,0.007-0.006,0.013-0.009,0.02c0.021-0.049,0.042-0.098,0.063-0.147
	c-0.196,0.431-0.444,0.831-0.725,1.21c-0.446,0.551-0.942,1.035-1.496,1.478c-0.8,0.602-1.626,1.169-2.543,1.581
	c-0.539,0.221-1.087,0.413-1.649,0.566c-0.648,0.174-1.306,0.299-1.969,0.406c-0.858,0.098-1.706,0.065-2.564-0.039
	c-1.062-0.154-2.118-0.372-3.117-0.768c-0.619-0.291-1.184-0.648-1.729-1.057c-0.327-0.256-0.645-0.519-0.945-0.809
	c-0.282-0.271-0.54-0.569-0.785-0.874c-0.307-0.414-0.577-0.842-0.809-1.297c0.189-0.022,0.378-0.047,0.565-0.082
	c0.387-0.073,0.759-0.208,1.106-0.395c0.281-0.15,0.545-0.374,0.759-0.611c0.216-0.239,0.374-0.51,0.503-0.805
	c0.15-0.339,0.252-0.668,0.287-1.04c0.015-0.16,0.025-0.316,0.017-0.478c-0.039-0.838-0.276-1.736-0.823-2.387
	c-0.31-0.372-0.713-0.618-1.146-0.817c-0.318-0.146-0.64-0.278-0.962-0.41c0.076-0.142,0.144-0.288,0.225-0.427
	c0.186-0.32,0.375-0.64,0.59-0.941c0.432-0.539,0.921-1.038,1.454-1.476c0.768-0.562,1.594-1.021,2.463-1.413
	c0.312-0.127,0.626-0.244,0.944-0.358c0.357-0.126,0.726-0.206,1.1-0.265c0.658-0.07,1.324-0.13,1.984-0.124
	c0.69,0.003,1.379,0.067,2.065,0.147c0.415,0.063,0.826,0.136,1.233,0.244c0.387,0.102,0.758,0.235,1.126,0.384
	c0.746,0.342,1.45,0.772,2.11,1.262c0.459,0.382,0.874,0.799,1.287,1.229c0.466,0.485,0.95,0.954,1.429,1.426
	c0.358,0.356,0.954,0.36,1.314,0c0.083-0.083,0.143-0.181,0.188-0.285c0.013-0.016,0.027-0.026,0.039-0.043
	c0.347-0.452,0.69-0.907,1.036-1.36c0.109-0.139,0.219-0.277,0.331-0.415c0.133-0.163,0.259-0.341,0.406-0.493
	c0.011-0.007,0.023-0.013,0.035-0.019c0.03-0.009,0.06-0.016,0.091-0.022c0.402-0.035,0.805-0.016,1.208,0.008
	c0.129,0.008,0.256,0.013,0.383,0.02c0.005,0.693,0.012,1.386,0.015,2.079c0.004,0.426,0.002,0.851-0.01,1.279
	c-0.012,0.333-0.018,0.672-0.045,1.007c-0.044,0.043-0.09,0.085-0.137,0.126c-0.28,0.199-0.585,0.365-0.874,0.551
	c-0.198,0.129-0.391,0.268-0.578,0.416c-0.133,0.108-0.25,0.222-0.343,0.368c-0.185,0.293-0.193,0.655-0.031,0.959
	c0.237,0.443,0.811,0.605,1.239,0.807c0.251,0.12,0.511,0.239,0.756,0.378c0.027,0.363,0.023,0.73,0.028,1.094
	c0.004,0.455,0.006,0.911,0.004,1.366c-0.002,0.466-0.006,0.932-0.006,1.398c0,0.296-0.002,0.593-0.01,0.889
	c-0.221-0.002-0.441-0.003-0.662-0.01C27.023,25.928,26.629,25.917,26.24,25.877z M14.342,17.157
	c-0.137-0.179-0.273-0.354-0.437-0.51c-0.133-0.131-0.281-0.249-0.426-0.366c-0.168-0.137-0.331-0.231-0.557-0.231
	c-0.074,0-0.148,0.011-0.219,0.031c-0.02-0.014-0.04-0.027-0.061-0.039c-0.127-0.073-0.264-0.112-0.41-0.112
	c-0.148,0-0.285,0.039-0.412,0.112c-0.343,0.145-0.668,0.295-0.973,0.512c-0.22,0.156-0.43,0.327-0.632,0.509
	c-0.36,0.322-0.682,0.74-0.882,1.181c-0.322,0.705-0.383,1.5-0.129,2.238c0.1,0.289,0.254,0.536,0.433,0.776
	c0.127,0.171,0.254,0.327,0.42,0.462c0.26,0.212,0.539,0.374,0.859,0.485c0.264,0.091,0.52,0.133,0.799,0.168
	c0.285,0.037,0.562-0.002,0.846-0.042c0.283-0.041,0.553-0.166,0.805-0.297c0.206-0.106,0.395-0.268,0.566-0.422
	c0.204-0.183,0.372-0.408,0.522-0.638c0.26-0.393,0.399-0.861,0.476-1.323c0.035-0.218,0.071-0.447,0.056-0.67
	c-0.015-0.233-0.044-0.472-0.102-0.699C14.78,17.876,14.597,17.493,14.342,17.157z M12.503,17.509L12.503,17.509
	c-0.003,0.001-0.006,0.003-0.009,0.004C12.497,17.512,12.5,17.51,12.503,17.509z M13.178,19.801
	c-0.06,0.123-0.128,0.239-0.204,0.354c-0.092,0.106-0.188,0.204-0.293,0.296c-0.08,0.054-0.163,0.103-0.249,0.149
	c-0.092,0.031-0.185,0.056-0.281,0.076c-0.132,0.006-0.261,0.004-0.393-0.007c-0.115-0.025-0.226-0.056-0.339-0.092
	c-0.081-0.04-0.159-0.083-0.235-0.133c-0.054-0.05-0.104-0.102-0.152-0.156c-0.08-0.114-0.155-0.23-0.22-0.355
	c-0.031-0.094-0.057-0.188-0.077-0.284c-0.01-0.123-0.013-0.244-0.005-0.368c0.022-0.111,0.052-0.219,0.088-0.327
	c0.073-0.15,0.16-0.29,0.255-0.427c0.161-0.189,0.335-0.36,0.526-0.522c0.121-0.089,0.245-0.173,0.376-0.251
	c0.125-0.073,0.261-0.131,0.396-0.188c0.026-0.011,0.052-0.022,0.078-0.032c0.008-0.004,0.017-0.007,0.025-0.011
	c0.01-0.004,0.02-0.008,0.03-0.012c0.172,0.145,0.336,0.293,0.483,0.464c0.091,0.134,0.174,0.272,0.245,0.417
	c0.046,0.13,0.083,0.26,0.11,0.396c0.01,0.129,0.012,0.256,0.004,0.385C13.305,19.387,13.25,19.595,13.178,19.801z M21.661,17.462
	c-0.285-0.376-0.591-0.701-0.992-0.958c-0.376-0.241-0.792-0.412-1.217-0.539c-0.069-0.021-0.139-0.03-0.209-0.03
	c-0.121,0-0.239,0.03-0.346,0.083c-0.218-0.076-0.468-0.058-0.687,0.059c-0.589,0.316-1.185,0.661-1.618,1.183
	c-0.458,0.557-0.665,1.314-0.613,2.031c0.056,0.765,0.331,1.547,0.954,2.03c0.406,0.316,0.84,0.532,1.321,0.717
	c0.293,0.112,0.597,0.16,0.911,0.187c0.179,0.013,0.37-0.037,0.549-0.062c0.116-0.017,0.235-0.058,0.343-0.102
	c0.168-0.067,0.337-0.133,0.493-0.221c0.512-0.291,0.99-0.707,1.256-1.243c0.266-0.533,0.439-1.152,0.38-1.751
	C22.137,18.356,21.959,17.859,21.661,17.462z M20.53,19.176c-0.03,0.16-0.071,0.316-0.124,0.471
	c-0.052,0.104-0.108,0.203-0.172,0.301c-0.08,0.089-0.163,0.171-0.253,0.249c-0.121,0.08-0.244,0.152-0.373,0.216
	c-0.091,0.031-0.182,0.057-0.275,0.08c-0.065,0.004-0.13,0.004-0.195,0.002c-0.158-0.038-0.31-0.087-0.461-0.144
	c-0.215-0.103-0.418-0.218-0.616-0.351c-0.052-0.047-0.102-0.096-0.15-0.148c-0.041-0.066-0.077-0.132-0.112-0.201
	c-0.052-0.152-0.092-0.306-0.124-0.464c-0.01-0.138-0.01-0.274-0.002-0.414c0.023-0.122,0.052-0.241,0.09-0.361
	c0.021-0.041,0.043-0.08,0.068-0.119c0.102-0.115,0.215-0.218,0.333-0.316c0.268-0.188,0.557-0.336,0.846-0.49
	c0.007,0.002,0.013,0.005,0.02,0.007c0.097,0.031,0.194,0.065,0.289,0.101c0.177,0.083,0.342,0.177,0.504,0.286
	c0.147,0.124,0.282,0.255,0.409,0.401c0.081,0.118,0.152,0.24,0.215,0.369c0.034,0.101,0.062,0.201,0.084,0.305
	C20.534,19.031,20.533,19.102,20.53,19.176z"/>
</svg>