<?xml version="1.0" encoding="utf-8"?>
<!-- Generator: Adobe Illustrator 21.1.0, SVG Export Plug-In . SVG Version: 6.00 Build 0)  -->
<svg version="1.1" id="designs" xmlns="http://www.w3.org/2000/svg" xmlns:xlink="http://www.w3.org/1999/xlink" x="0px" y="0px"
	 width="32px" height="32px" viewBox="0 0 32 32" style="enable-background:new 0 0 32 32;" xml:space="preserve">
<style type="text/css">
	.sketchy_een{fill:#111918;}
</style>
<path class="sketchy_een" d="M30.91,7.858c-0.002-0.032-0.004-0.061-0.006-0.093c-0.026-0.467-0.37-0.859-0.859-0.859
	c-0.011,0-0.022,0.006-0.033,0.007c-0.101-0.045-0.211-0.073-0.328-0.074c-0.382-0.006-0.76,0.037-1.143,0.059
	c-0.414,0.022-0.829,0.039-1.245,0.049c-0.786,0.02-1.572,0.01-2.356,0.004c-1.742-0.01-3.481-0.006-5.221,0.004
	c-1.73,0.01-3.464,0.012-5.191-0.063c-0.869-0.039-1.734-0.071-2.603-0.077c-0.871-0.004-1.742-0.014-2.614-0.043
	C8.744,6.75,8.175,6.746,7.604,6.737C7.011,6.725,6.42,6.697,5.825,6.689C4.611,6.673,3.401,6.64,2.192,6.539
	C2.173,6.538,2.154,6.537,2.135,6.537c-0.233,0-0.442,0.123-0.591,0.299C1.232,6.965,1.019,7.274,1.005,7.629
	C0.99,8.035,1.013,8.445,1.015,8.851c0.004,0.41,0.01,0.818,0.018,1.225c0.022,0.871,0.067,1.738,0.195,2.599
	c0.063,0.424,0.162,0.841,0.254,1.257c0.089,0.41,0.167,0.822,0.236,1.235c0.071,0.433,0.15,0.863,0.28,1.285
	c0.14,0.453,0.325,0.885,0.538,1.306c0.191,0.382,0.418,0.747,0.63,1.115c0.219,0.382,0.455,0.753,0.717,1.107
	c0.538,0.727,1.176,1.391,1.88,1.958c0.697,0.563,1.458,1.005,2.246,1.426c0.81,0.435,1.627,0.839,2.496,1.147
	c0.394,0.138,0.794,0.258,1.194,0.38c0.38,0.118,0.77,0.215,1.166,0.278c0.908,0.144,1.824,0.266,2.744,0.288
	c1.757,0.045,3.493-0.179,5.18-0.678c0.92-0.272,1.818-0.583,2.675-1.019c0.841-0.427,1.627-0.93,2.362-1.521
	c0.707-0.571,1.348-1.245,1.893-1.97c0.518-0.686,1.026-1.393,1.458-2.136c0.469-0.802,0.867-1.647,1.117-2.545
	c0.225-0.812,0.365-1.639,0.481-2.473c0.069-0.491,0.124-0.983,0.177-1.478c0.045-0.433,0.049-0.869,0.045-1.306
	C30.993,9.509,30.956,8.679,30.91,7.858z M18.557,20.719c-0.412,0.05-0.826,0.088-1.241,0.119c-0.008-0.347-0.043-0.695-0.072-1.04
	c-0.033-0.408-0.085-0.814-0.12-1.221c-0.077-0.851-0.089-1.712-0.095-2.565c-0.008-1.681-0.006-3.359,0.026-5.04
	c0.007-0.356-0.002-0.711,0-1.067c0.375,0.383,0.743,0.771,1.12,1.152c0.288,0.29,0.567,0.587,0.831,0.898
	c0.246,0.288,0.491,0.577,0.749,0.853c0.55,0.583,1.123,1.141,1.694,1.702c0.563,0.55,1.107,1.119,1.657,1.683
	c0.229,0.234,0.459,0.471,0.686,0.707c0.181,0.187,0.379,0.364,0.552,0.56c0.003,0.006,0.006,0.011,0.008,0.017
	c0.009,0.02,0.033,0.033,0.045,0.052c-0.023,0.032-0.041,0.067-0.064,0.099c-0.375,0.466-0.804,0.873-1.269,1.249
	c-0.566,0.422-1.152,0.812-1.792,1.111c-0.447,0.178-0.901,0.335-1.361,0.476C19.471,20.598,19.013,20.658,18.557,20.719z
	 M7.452,8.399c0.839,0.008,1.677,0.03,2.516,0.049c0.877,0.02,1.755,0.014,2.634,0.022c0.702,0.008,1.403,0.057,2.104,0.093
	c-0.826,0.922-1.733,1.768-2.576,2.676c-0.27,0.292-0.54,0.583-0.818,0.867c-0.292,0.299-0.613,0.571-0.92,0.853
	c-0.636,0.579-1.283,1.147-1.929,1.716c-0.353,0.311-0.317,0.904,0,1.222c0.345,0.343,0.875,0.317,1.221,0
	c0.648-0.593,1.283-1.204,1.887-1.842c0.565-0.593,1.111-1.204,1.673-1.799c0.55-0.583,1.143-1.121,1.708-1.69
	c0.14-0.142,0.276-0.29,0.414-0.435c0.037,1.171,0.068,2.341,0.068,3.512c0,1.704,0.008,3.412,0.144,5.111
	c0.056,0.71,0.17,1.421,0.171,2.135c-0.51-0.003-1.019-0.021-1.526-0.076c-0.489-0.078-0.962-0.2-1.436-0.341
	c-0.495-0.147-0.982-0.303-1.462-0.494c-0.831-0.364-1.619-0.81-2.346-1.352c-0.397-0.315-0.779-0.652-1.157-0.989
	c-0.348-0.307-0.648-0.675-0.936-1.04c-0.226-0.311-0.408-0.644-0.567-0.995c-0.188-0.461-0.368-0.925-0.534-1.395
	c-0.175-0.493-0.292-1.002-0.377-1.52c-0.046-0.371-0.086-0.741-0.116-1.115c-0.034-0.422-0.089-0.841-0.12-1.265
	C5.139,9.881,5.13,9.451,5.135,9.022c0.003-0.217,0.008-0.437,0.018-0.656C5.919,8.368,6.686,8.39,7.452,8.399z M29.12,12.455
	c-0.17,1.173-0.353,2.372-0.78,3.483c-0.267,0.61-0.572,1.196-0.932,1.755c-0.348,0.54-0.716,1.066-1.099,1.58
	c-0.285,0.344-0.579,0.678-0.89,0.999c-0.292,0.301-0.618,0.573-0.945,0.836c-0.766,0.558-1.588,1.012-2.455,1.395
	c-0.652,0.255-1.327,0.447-2.002,0.64c-0.67,0.193-1.348,0.338-2.036,0.449c-1.324,0.157-2.655,0.163-3.978-0.005
	c-0.622-0.088-1.238-0.187-1.84-0.372c-0.636-0.194-1.267-0.397-1.883-0.649c-0.574-0.257-1.129-0.547-1.685-0.842
	c-0.539-0.285-1.06-0.595-1.552-0.957c-0.632-0.518-1.224-1.084-1.742-1.717c-0.3-0.402-0.563-0.826-0.821-1.258
	c-0.261-0.437-0.524-0.866-0.738-1.325c-0.124-0.325-0.24-0.655-0.316-0.993c-0.085-0.39-0.148-0.782-0.221-1.174
	c-0.134-0.709-0.303-1.411-0.412-2.123c-0.082-0.752-0.1-1.506-0.1-2.262c0-0.376,0.004-0.751,0.006-1.127
	c0.001-0.157,0-0.315,0.001-0.473c0.247,0.013,0.494,0.029,0.74,0.035c0,0.202,0.004,0.404,0.006,0.605
	c0.006,0.39,0.018,0.778,0.037,1.168c0.022,0.41,0.079,0.816,0.122,1.221c0.041,0.396,0.069,0.792,0.12,1.186
	c0.057,0.433,0.124,0.863,0.221,1.291c0.089,0.392,0.225,0.768,0.359,1.145c0.288,0.816,0.575,1.657,1.056,2.378
	c0.256,0.384,0.577,0.749,0.891,1.088c0.264,0.288,0.563,0.536,0.857,0.792c0.364,0.315,0.737,0.613,1.119,0.904
	c0.321,0.246,0.668,0.453,1.019,0.656c0.757,0.439,1.568,0.794,2.4,1.066c0.816,0.266,1.647,0.516,2.502,0.607
	c1.747,0.187,3.529,0.073,5.262-0.189c0.808-0.122,1.604-0.402,2.356-0.709c0.804-0.329,1.511-0.82,2.199-1.346
	c0.755-0.575,1.411-1.247,1.933-2.045c0.544-0.829,0.885-1.771,1.212-2.705c0.142-0.41-0.16-0.869-0.558-0.979
	c-0.435-0.12-0.839,0.146-0.979,0.558c-0.129,0.378-0.254,0.755-0.399,1.126c-0.108-0.106-0.215-0.212-0.323-0.318
	c-0.276-0.27-0.542-0.55-0.812-0.823c-0.554-0.562-1.113-1.113-1.671-1.669c-0.556-0.555-1.117-1.105-1.659-1.675
	c-0.278-0.292-0.53-0.605-0.792-0.91c-0.24-0.28-0.498-0.544-0.751-0.814c-0.403-0.434-0.79-0.885-1.194-1.319
	c1.679,0.01,3.356,0.011,5.035,0.019c1.143,0.004,2.283,0.012,3.426,0.01c0.128,0,0.256-0.012,0.384-0.015
	c0.018,0.547,0.038,1.094,0.035,1.641c-0.002,0.562,0.005,1.13-0.054,1.689c-0.019,0.111-0.04,0.221-0.064,0.33
	c-0.1,0.441,0.128,0.898,0.579,1.023c0.443,0.122,0.894-0.148,1.023-0.581c0.213-0.717,0.197-1.499,0.191-2.242
	c-0.005-0.645-0.012-1.29-0.028-1.935c0.146-0.01,0.292-0.021,0.438-0.03c0.095-0.006,0.189-0.012,0.283-0.018
	c0.025,0.502,0.055,1.004,0.062,1.506C29.289,10.847,29.226,11.648,29.12,12.455z"/>
</svg>