<?xml version="1.0" encoding="utf-8"?>
<!-- Generator: Adobe Illustrator 21.1.0, SVG Export Plug-In . SVG Version: 6.00 Build 0)  -->
<svg version="1.1" id="designs" xmlns="http://www.w3.org/2000/svg" xmlns:xlink="http://www.w3.org/1999/xlink" x="0px" y="0px"
	 width="32px" height="32px" viewBox="0 0 32 32" style="enable-background:new 0 0 32 32;" xml:space="preserve">
<style type="text/css">
	.sketchy_een{fill:#111918;}
</style>
<path class="sketchy_een" d="M26.744,16.666c-0.014-0.101-0.046-0.198-0.098-0.287c-0.093-0.16-0.276-0.329-0.466-0.36
	c-0.388-0.064-0.779-0.055-1.171-0.057c-0.208-0.001-0.417-0.001-0.627-0.001s-0.419,0-0.628,0.001
	c-0.17,0.001-0.321,0.067-0.453,0.159c-0.055-0.012-0.109-0.022-0.165-0.022c-0.142,0-0.284,0.038-0.407,0.11
	c-0.12,0.071-0.215,0.166-0.287,0.288c-0.072,0.124-0.109,0.259-0.109,0.404c-0.043,0.334-0.077,0.668-0.119,1.002
	c-0.135,0.84-0.358,1.661-0.673,2.45c-0.23,0.516-0.511,1-0.837,1.462c-0.229,0.279-0.474,0.539-0.734,0.79
	c-0.3,0.292-0.607,0.577-0.931,0.842c-0.257,0.177-0.521,0.329-0.801,0.467c-0.418,0.162-0.841,0.281-1.284,0.364
	c-0.522,0.064-1.054,0.104-1.576,0.04c-0.377-0.066-0.749-0.163-1.109-0.296c-0.25-0.117-0.49-0.257-0.714-0.418
	c-0.351-0.284-0.697-0.573-1.019-0.888c-0.322-0.315-0.621-0.659-0.905-1.01c-0.164-0.224-0.312-0.458-0.466-0.689
	c0.216-0.165,0.428-0.333,0.649-0.491c0.251-0.179,0.514-0.335,0.754-0.529c0.16-0.133,0.279-0.308,0.403-0.474
	c0.003-0.005,0.007-0.009,0.01-0.014c0.158-0.204,0.265-0.381,0.28-0.649c0.023-0.445-0.333-0.767-0.733-0.864
	c-0.345-0.085-0.687-0.16-1.026-0.261c-0.748-0.225-1.451-0.562-2.188-0.815c-0.394-0.137-0.794-0.261-1.192-0.392
	c-0.356-0.116-0.706-0.248-1.066-0.352c-0.173-0.052-0.348-0.109-0.526-0.145c-0.088-0.017-0.185-0.027-0.283-0.027
	c-0.174,0-0.352,0.034-0.488,0.13c-0.082,0.057-0.164,0.112-0.232,0.185c-0.135,0.145-0.2,0.305-0.267,0.489
	c-0.061,0.164-0.084,0.347-0.116,0.52c-0.038,0.202-0.078,0.401-0.122,0.604c-0.139,0.642-0.322,1.275-0.476,1.913
	c-0.156,0.642-0.284,1.287-0.388,1.938c-0.057,0.35-0.12,0.7-0.15,1.055c-0.034,0.367,0.044,0.75,0.326,1.007
	c0.396,0.36,0.927,0.301,1.409,0.202c0.31-0.063,0.607-0.171,0.904-0.276c0.207-0.073,0.407-0.155,0.605-0.244
	c0.067,0.158,0.131,0.318,0.201,0.475c0.173,0.387,0.447,0.737,0.733,1.045c0.133,0.143,0.272,0.28,0.404,0.424
	c0.147,0.156,0.284,0.316,0.434,0.468c0.267,0.267,0.529,0.542,0.821,0.781c0.318,0.261,0.647,0.508,0.99,0.733
	c0.297,0.196,0.609,0.366,0.916,0.542c0.381,0.221,0.781,0.4,1.186,0.567c0.341,0.141,0.72,0.221,1.078,0.305
	c0.864,0.198,1.757,0.293,2.639,0.169c0.356-0.051,0.712-0.112,1.066-0.181c0.352-0.067,0.701-0.129,1.045-0.232
	c0.803-0.238,1.565-0.56,2.275-1.007c0.668-0.422,1.285-0.942,1.839-1.506c0.525-0.535,1-1.11,1.468-1.694
	c0.52-0.647,1.015-1.329,1.397-2.067c0.341-0.659,0.659-1.354,0.849-2.072c0.091-0.344,0.162-0.697,0.232-1.047
	c0.065-0.322,0.162-0.638,0.213-0.963c0.048-0.307,0.089-0.619,0.088-0.931C27.122,17.053,26.966,16.813,26.744,16.666z
	 M15.337,24.312c0.017,0.003,0.034,0.005,0.051,0.008c-0.074-0.01-0.148-0.02-0.222-0.03C15.222,24.297,15.28,24.304,15.337,24.312z
	 M25.336,18.345c-0.076,0.287-0.128,0.579-0.194,0.866c-0.061,0.269-0.116,0.539-0.202,0.799c-0.075,0.229-0.159,0.454-0.248,0.676
	c-0.19,0.433-0.402,0.858-0.643,1.266c-0.252,0.429-0.558,0.83-0.861,1.227c-0.391,0.495-0.796,0.981-1.22,1.446
	c-0.208,0.23-0.423,0.455-0.649,0.67c-0.215,0.204-0.449,0.387-0.681,0.571c-0.262,0.197-0.531,0.379-0.813,0.545
	c-0.297,0.174-0.607,0.317-0.924,0.452c-0.778,0.313-1.614,0.465-2.442,0.588c-0.477,0.054-0.959,0.051-1.437,0.003
	c-0.288-0.043-0.574-0.105-0.858-0.171c-0.285-0.065-0.571-0.134-0.846-0.237c-0.4-0.178-0.784-0.386-1.167-0.599
	c-0.374-0.208-0.736-0.441-1.081-0.697c-0.342-0.277-0.647-0.588-0.962-0.896c-0.185-0.181-0.35-0.381-0.531-0.567
	c-0.161-0.166-0.325-0.326-0.476-0.5c-0.12-0.172-0.224-0.354-0.317-0.542c-0.135-0.333-0.263-0.67-0.399-1.003
	c-0.078-0.198-0.168-0.354-0.358-0.466c-0.179-0.105-0.398-0.133-0.6-0.078c-0.077,0.021-0.145,0.062-0.211,0.105
	c-0.12,0.012-0.236,0.043-0.357,0.097c-0.124,0.054-0.247,0.112-0.371,0.168c-0.247,0.099-0.497,0.19-0.752,0.261
	c0.029-0.273,0.073-0.546,0.109-0.813c-0.01,0.072-0.019,0.145-0.029,0.217c0.112-0.775,0.282-1.546,0.463-2.308
	c0.089-0.38,0.183-0.761,0.265-1.144c0.041-0.193,0.072-0.392,0.113-0.588c0.095,0.028,0.188,0.057,0.281,0.085
	c0.312,0.091,0.621,0.196,0.927,0.299c0.58,0.195,1.191,0.414,1.755,0.642c0.451,0.183,0.858,0.355,1.292,0.5
	c-0.097,0.067-0.193,0.135-0.289,0.203C10.22,19.712,9.818,20,9.422,20.297c-0.179,0.135-0.314,0.267-0.375,0.489
	c-0.059,0.211-0.029,0.442,0.082,0.63c0.107,0.183,0.284,0.32,0.489,0.375c0.036,0.01,0.082,0.004,0.122,0.01
	c0.412,0.658,0.866,1.278,1.398,1.845c0.246,0.261,0.51,0.501,0.783,0.737c0.333,0.29,0.67,0.581,1.045,0.817
	c0.716,0.455,1.531,0.661,2.363,0.767c0.411,0.054,0.823,0.038,1.234,0.01c0.457-0.031,0.918-0.091,1.363-0.204
	c0.906-0.232,1.738-0.647,2.445-1.262c0.63-0.547,1.262-1.143,1.74-1.832c0.484-0.697,0.855-1.462,1.121-2.267
	c0.251-0.752,0.413-1.541,0.535-2.323c0.025-0.166,0.047-0.332,0.071-0.498c0.366-0.004,0.733-0.007,1.099-0.014
	c0.18-0.003,0.36-0.006,0.539-0.011c-0.005,0.067-0.007,0.133-0.014,0.2C25.429,17.961,25.386,18.153,25.336,18.345z M24.21,12.992
	c0.006,0,0.011,0.001,0.017,0.002c0.001,0,0.003,0,0.004,0C24.223,12.994,24.217,12.993,24.21,12.992z M24.25,12.997
	c-0.006,0-0.012-0.001-0.018-0.002c0,0-0.001,0-0.001,0C24.237,12.996,24.243,12.997,24.25,12.997z M27.955,7.303
	c-0.025-0.192-0.053-0.385-0.082-0.575c-0.021-0.127-0.038-0.257-0.084-0.379c-0.078-0.204-0.16-0.38-0.322-0.535
	c-0.175-0.167-0.401-0.252-0.63-0.252c-0.174,0-0.35,0.049-0.505,0.149c-0.326,0.211-0.596,0.514-0.876,0.779
	c-0.272,0.257-0.56,0.491-0.851,0.724c-0.084,0.066-0.161,0.141-0.243,0.209c-0.031-0.023-0.059-0.049-0.089-0.073
	c-0.269-0.22-0.523-0.464-0.788-0.688c-0.286-0.244-0.56-0.495-0.838-0.747c-0.303-0.272-0.617-0.525-0.948-0.764
	c-0.324-0.232-0.666-0.439-1.001-0.657c-0.329-0.213-0.663-0.405-1.011-0.584c-0.396-0.204-0.817-0.356-1.237-0.499
	c-0.4-0.135-0.805-0.263-1.215-0.364c-0.228-0.055-0.468-0.082-0.703-0.104c-0.19-0.02-0.383-0.037-0.574-0.037
	c-0.01,0-0.021,0-0.031,0c-0.419,0.003-0.834,0.043-1.249,0.08c-0.444,0.04-0.897,0.08-1.333,0.177
	c-0.455,0.099-0.885,0.232-1.314,0.419c-0.392,0.171-0.775,0.371-1.152,0.575c-0.352,0.192-0.683,0.43-1.005,0.672
	c-0.377,0.284-0.741,0.586-1.085,0.91C8.14,6.348,7.565,7.038,7.078,7.782C6.786,8.226,6.525,8.69,6.259,9.147
	c-0.289,0.497-0.541,1.001-0.76,1.533c-0.426,1.034-0.853,2.081-1.167,3.156c-0.126,0.429,0.147,0.891,0.573,1.009
	c0.102,0.028,0.204,0.031,0.303,0.02c0.019,0.024,0.028,0.054,0.05,0.075c0.164,0.164,0.348,0.211,0.569,0.236
	c0.63,0.067,1.262,0.078,1.896,0.05c0.239-0.012,0.448-0.126,0.591-0.296c0.282-0.072,0.526-0.277,0.608-0.573
	c0.167-0.607,0.346-1.204,0.576-1.788c0.287-0.617,0.611-1.211,1.014-1.761c0.47-0.568,0.98-1.091,1.554-1.553
	c0.216-0.157,0.434-0.313,0.67-0.443c0.21-0.115,0.425-0.221,0.643-0.319c0.503-0.185,1.016-0.327,1.544-0.415
	c0.479-0.052,0.968-0.079,1.447-0.036c0.65,0.112,1.288,0.297,1.903,0.528c0.281,0.124,0.554,0.26,0.814,0.425
	c0.271,0.17,0.528,0.368,0.784,0.562c0.255,0.205,0.503,0.416,0.749,0.63c0.151,0.132,0.292,0.277,0.428,0.425
	c-0.333,0.536-0.68,1.061-1.018,1.591c-0.124,0.194-0.225,0.398-0.293,0.619c-0.103,0.335-0.017,0.647,0.213,0.904
	c0.154,0.173,0.392,0.236,0.613,0.271c0.272,0.046,0.543,0.103,0.817,0.143c0.289,0.042,0.579,0.083,0.868,0.139
	c0.257,0.05,0.514,0.099,0.773,0.145c0.329,0.056,0.66,0.089,0.99,0.13c0.352,0.054,0.7,0.134,1.05,0.192
	c0.272,0.042,0.544,0.083,0.819,0.116c0.32,0.036,0.642,0.052,0.929-0.127c0.508-0.316,0.594-1,0.672-1.54
	c0.003-0.02,0.006-0.039,0.008-0.059c0.006-0.031,0.011-0.063,0.014-0.095c0.065-0.456,0.136-0.912,0.195-1.368
	c0.054-0.388,0.108-0.777,0.146-1.167c0.04-0.388,0.049-0.78,0.065-1.169c0.013-0.36,0.042-0.718,0.074-1.078
	C28.016,7.935,27.996,7.625,27.955,7.303z M25.853,13.493L25.853,13.493L25.853,13.493L25.853,13.493z M26.332,8.514
	c-0.021,0.251-0.034,0.502-0.044,0.754c-0.036,0.972-0.095,1.939-0.215,2.904c-0.037,0.272-0.074,0.544-0.111,0.816
	c-0.013,0.095-0.028,0.189-0.049,0.283c-0.562-0.083-1.118-0.2-1.683-0.276c-0.002,0-0.003-0.001-0.005-0.001
	c-0.176-0.023-0.353-0.045-0.53-0.067c-0.469-0.068-0.933-0.16-1.399-0.236c-0.205-0.032-0.41-0.06-0.614-0.094
	c0.038-0.054,0.076-0.108,0.113-0.163c0.232-0.339,0.457-0.684,0.676-1.03c0.065-0.103,0.095-0.217,0.105-0.333
	c0.001-0.001,0.004-0.002,0.005-0.003c0.312-0.314,0.299-0.813,0-1.129c-0.303-0.318-0.594-0.649-0.922-0.944
	c-0.337-0.303-0.685-0.596-1.051-0.863c-0.305-0.225-0.604-0.453-0.929-0.647c-0.373-0.223-0.788-0.396-1.196-0.539
	c-0.809-0.284-1.653-0.541-2.517-0.546c-0.029,0-0.057,0-0.086,0c-0.815,0-1.631,0.105-2.416,0.332
	c-0.739,0.213-1.472,0.552-2.089,1.015c-0.649,0.487-1.245,1.015-1.774,1.632c-0.289,0.335-0.558,0.685-0.796,1.057
	c-0.206,0.318-0.381,0.657-0.556,0.992c-0.372,0.712-0.63,1.47-0.857,2.236c-0.424-0.002-0.847-0.026-1.268-0.068
	c0.141-0.434,0.293-0.864,0.468-1.287c0.127-0.292,0.256-0.583,0.38-0.876c-0.006,0.015-0.012,0.03-0.019,0.044
	c0.28-0.661,0.638-1.28,0.998-1.898C8.14,9.259,8.327,8.939,8.526,8.629C8.697,8.366,8.88,8.115,9.069,7.866
	c0.471-0.577,0.999-1.106,1.581-1.574c0.292-0.22,0.589-0.43,0.902-0.621c0.371-0.226,0.765-0.416,1.158-0.601
	c0.451-0.177,0.915-0.297,1.393-0.373c0.821-0.099,1.646-0.179,2.472-0.089c0.358,0.064,0.711,0.169,1.06,0.275
	c0.325,0.1,0.648,0.212,0.966,0.333c0.431,0.199,0.837,0.438,1.233,0.702c0.391,0.258,0.786,0.503,1.162,0.782
	c0.391,0.319,0.745,0.687,1.124,1.021c0.2,0.177,0.398,0.356,0.592,0.541c0.089,0.089,0.177,0.183,0.272,0.265
	c0.119,0.102,0.245,0.197,0.371,0.292c0.058,0.047,0.114,0.095,0.169,0.145c0.305,0.275,0.738,0.316,1.075,0.099
	c0.167-0.018,0.33-0.076,0.447-0.206c0.335-0.374,0.733-0.676,1.112-1.001c0.071-0.061,0.141-0.124,0.209-0.188
	c0.003,0.047,0.005,0.095,0.006,0.142C26.378,8.044,26.353,8.278,26.332,8.514z"/>
</svg>