<?xml version="1.0" encoding="utf-8"?>
<!-- Generator: Adobe Illustrator 21.1.0, SVG Export Plug-In . SVG Version: 6.00 Build 0)  -->
<svg version="1.1" id="designs" xmlns="http://www.w3.org/2000/svg" xmlns:xlink="http://www.w3.org/1999/xlink" x="0px" y="0px"
	 width="32px" height="32px" viewBox="0 0 32 32" style="enable-background:new 0 0 32 32;" xml:space="preserve">
<style type="text/css">
	.sketchy_een{fill:#111918;}
</style>
<path class="sketchy_een" d="M28.86,3.054c0.001-0.251-0.128-0.468-0.315-0.614c-0.037-0.078-0.081-0.152-0.142-0.214
	C28.288,2.11,28.091,2,27.916,2c-0.017,0-0.034,0.001-0.051,0.003c-0.457,0.057-0.907,0.128-1.36,0.208
	c-0.373,0.067-0.742,0.154-1.115,0.228c-0.761,0.15-1.524,0.291-2.285,0.449c-0.727,0.15-1.455,0.302-2.169,0.504
	c-0.744,0.209-1.48,0.441-2.22,0.66c-0.615,0.183-1.225,0.369-1.836,0.567c-0.544,0.175-1.079,0.378-1.615,0.58
	c-0.59,0.223-1.18,0.472-1.733,0.774c-0.495,0.268-0.974,0.565-1.472,0.826c-0.287,0.148-0.407,0.488-0.352,0.793
	c-0.022,0.427-0.027,0.854-0.043,1.281c-0.015,0.436-0.032,0.871-0.042,1.307c-0.023,0.872-0.046,1.745-0.019,2.616
	c0.048,1.632,0.091,3.262,0.044,4.895c-0.017,0.594-0.015,1.189-0.03,1.784c-0.014,0.574-0.029,1.148-0.029,1.724
	c-0.067-0.015-0.135-0.028-0.203-0.038c-0.287-0.044-0.569-0.046-0.858-0.038c-0.424,0.01-0.852,0.088-1.273,0.145
	c0.072-0.01,0.145-0.019,0.215-0.029c-0.866,0.116-1.746,0.248-2.578,0.527c-0.472,0.16-0.93,0.352-1.377,0.569
	c-0.417,0.203-0.789,0.481-1.151,0.769c-0.495,0.394-0.765,1.01-0.976,1.59c-0.165,0.453-0.251,0.944-0.249,1.425
	c0.002,0.458,0.086,0.942,0.232,1.377c0.08,0.234,0.175,0.478,0.304,0.689c0.146,0.236,0.321,0.451,0.506,0.658
	c0.223,0.253,0.529,0.447,0.822,0.613c0.234,0.133,0.491,0.232,0.744,0.325c0.175,0.062,0.358,0.099,0.54,0.129
	c0.263,0.044,0.527,0.074,0.793,0.086c0.489,0.023,0.989-0.048,1.471-0.118c0.392-0.057,0.772-0.162,1.14-0.312
	c0.81-0.335,1.659-0.7,2.277-1.343c0.135-0.139,0.257-0.293,0.377-0.447c0.16-0.203,0.314-0.403,0.445-0.624
	c0.124-0.202,0.206-0.439,0.293-0.656c0.082-0.2,0.145-0.405,0.198-0.616c0.057-0.232,0.076-0.478,0.103-0.715
	c0.025-0.225,0.032-0.451,0.036-0.677c0.006-0.409-0.019-0.818-0.038-1.227c-0.038-0.793-0.044-1.587-0.029-2.38
	c0.013-0.755,0.042-1.51,0.04-2.266c-0.002-0.774-0.01-1.549-0.021-2.323c-0.008-0.57-0.032-1.14-0.058-1.71
	c0.287-0.204,0.57-0.41,0.877-0.589c0.403-0.233,0.843-0.412,1.272-0.597c0.671-0.279,1.346-0.546,2.024-0.807
	c0.677-0.261,1.358-0.51,2.053-0.719c0.738-0.223,1.474-0.439,2.218-0.641c0.727-0.198,1.463-0.361,2.197-0.527
	c0.681-0.154,1.378-0.247,2.068-0.345c0.396-0.05,0.791-0.09,1.189-0.119c-0.013,0.213-0.025,0.427-0.036,0.639
	c-0.044,0.831-0.122,1.663-0.146,2.494c-0.019,0.637-0.029,1.275-0.029,1.912c-0.001,0.469,0.013,0.937,0.027,1.405
	c-0.407,0.029-0.811,0.097-1.215,0.157c-0.379,0.045-0.759,0.069-1.138,0.112c-0.439,0.048-0.879,0.12-1.311,0.215
	c-0.409,0.089-0.805,0.213-1.199,0.358c-0.407,0.148-0.835,0.322-1.2,0.557c-0.413,0.266-0.778,0.584-1.143,0.911
	c-0.302,0.272-0.59,0.55-0.841,0.871c-0.118,0.148-0.236,0.297-0.346,0.453c-0.15,0.211-0.253,0.449-0.342,0.692
	c-0.15,0.405-0.173,0.856-0.169,1.284c0.004,0.238,0.034,0.487,0.076,0.719c0.059,0.314,0.167,0.605,0.301,0.894
	c0.175,0.382,0.398,0.73,0.702,1.023c0.221,0.211,0.491,0.382,0.748,0.548c0.285,0.185,0.618,0.301,0.938,0.405
	c0.205,0.067,0.411,0.127,0.618,0.185c0.417,0.11,0.873,0.133,1.303,0.116c0.451-0.017,0.887-0.104,1.318-0.232
	c0.443-0.131,0.862-0.36,1.275-0.563c0.384-0.188,0.742-0.453,1.077-0.715c0.793-0.62,1.377-1.448,1.663-2.418
	c0.224-0.767,0.371-1.579,0.413-2.38c0.019-0.375,0.032-0.751,0.053-1.128c0.019-0.384,0.055-0.771,0.055-1.155
	c0-0.392-0.019-0.784-0.042-1.176c-0.023-0.403-0.027-0.807-0.027-1.212c0-0.803,0-1.607,0.042-2.41
	c0.019-0.377,0.053-0.751,0.068-1.128c0.017-0.401,0.025-0.805,0.038-1.208c0.027-0.805,0-1.609,0.004-2.412
	C28.754,6.385,28.853,4.72,28.86,3.054z M26.977,18.945c-0.03,0.529-0.067,1.059-0.129,1.585c-0.081,0.561-0.196,1.114-0.383,1.651
	c-0.113,0.238-0.242,0.463-0.392,0.678c-0.187,0.224-0.402,0.421-0.629,0.606c-0.226,0.161-0.457,0.312-0.697,0.453
	c-0.228,0.132-0.474,0.243-0.718,0.349c-0.295,0.11-0.596,0.188-0.906,0.24c-0.301,0.016-0.596,0.004-0.896-0.022
	c-0.37-0.072-0.728-0.194-1.08-0.331c-0.22-0.107-0.424-0.236-0.622-0.379c-0.084-0.073-0.162-0.151-0.236-0.235
	c-0.117-0.173-0.214-0.354-0.301-0.542c-0.061-0.176-0.1-0.354-0.131-0.537c-0.021-0.24-0.034-0.479-0.016-0.719
	c0.022-0.122,0.051-0.241,0.09-0.359c0.101-0.194,0.223-0.372,0.351-0.551c0.076-0.094,0.152-0.187,0.231-0.278
	c0.116-0.135,0.253-0.253,0.384-0.375c0.232-0.217,0.458-0.435,0.702-0.636c0.268-0.174,0.543-0.318,0.833-0.45
	c0.371-0.147,0.744-0.274,1.129-0.376c0.35-0.094,0.709-0.157,1.068-0.21c0.395-0.04,0.79-0.061,1.183-0.104
	c0.4-0.044,0.797-0.1,1.199-0.115C27.002,18.506,26.989,18.725,26.977,18.945z M11.669,25.286c-0.048,0.269-0.127,0.526-0.224,0.783
	c-0.111,0.23-0.245,0.437-0.395,0.642c-0.142,0.175-0.29,0.338-0.46,0.487c-0.325,0.224-0.674,0.397-1.035,0.555
	c-0.425,0.171-0.85,0.293-1.302,0.365c-0.444,0.042-0.889,0.063-1.333,0.021c-0.279-0.049-0.548-0.119-0.813-0.218
	c-0.165-0.081-0.326-0.174-0.478-0.279c-0.105-0.095-0.201-0.197-0.294-0.304c-0.087-0.128-0.161-0.261-0.228-0.401
	C5.02,26.7,4.956,26.459,4.911,26.211c-0.016-0.176-0.02-0.348-0.011-0.524c0.053-0.306,0.135-0.595,0.247-0.885
	c0.047-0.102,0.097-0.2,0.154-0.297c0.105-0.117,0.218-0.222,0.339-0.325c0.174-0.129,0.352-0.252,0.542-0.357
	c0.233-0.129,0.472-0.242,0.715-0.351c0.694-0.27,1.412-0.446,2.146-0.56c0.661-0.083,1.33-0.174,1.996-0.128
	c0.184,0.036,0.365,0.083,0.548,0.125c0.014,0.003,0.029,0.006,0.044,0.009c0.007,0.151,0.015,0.303,0.023,0.455
	C11.689,24.01,11.732,24.648,11.669,25.286z M24.996,9.076C24.26,9.2,23.535,9.366,22.81,9.546c-0.717,0.179-1.44,0.344-2.152,0.546
	c-0.736,0.208-1.471,0.426-2.193,0.681c-0.517,0.181-1.025,0.388-1.535,0.59c-0.516,0.204-1.035,0.398-1.547,0.611
	c-0.573,0.24-1.145,0.479-1.705,0.748c-0.15,0.072-0.292,0.155-0.437,0.234c-0.017-0.328-0.039-0.656-0.048-0.985
	c-0.033-1.38-0.02-2.76,0.063-4.139c0.313-0.2,0.625-0.404,0.946-0.589c0.479-0.277,0.982-0.504,1.491-0.721
	c0.649-0.265,1.304-0.516,1.973-0.727c0.734-0.23,1.474-0.447,2.212-0.664c0.751-0.221,1.501-0.447,2.264-0.616
	c0.738-0.162,1.478-0.312,2.222-0.443c0.965-0.168,1.933-0.332,2.903-0.471c0.006,1.594-0.002,3.188-0.002,4.783
	c0,0.126-0.005,0.251-0.005,0.377C26.503,8.842,25.748,8.951,24.996,9.076z"/>
</svg>