<?xml version="1.0" encoding="utf-8"?>
<!-- Generator: Adobe Illustrator 21.1.0, SVG Export Plug-In . SVG Version: 6.00 Build 0)  -->
<svg version="1.1" id="designs" xmlns="http://www.w3.org/2000/svg" xmlns:xlink="http://www.w3.org/1999/xlink" x="0px" y="0px"
	 width="32px" height="32px" viewBox="0 0 32 32" style="enable-background:new 0 0 32 32;" xml:space="preserve">
<style type="text/css">
	.sketchy_een{fill:#111918;}
</style>
<path class="sketchy_een" d="M29.965,19.01c-0.075-0.186-0.154-0.351-0.31-0.484c-0.12-0.103-0.247-0.195-0.379-0.284
	c-0.174-0.116-0.352-0.224-0.523-0.344c-0.191-0.154-0.384-0.317-0.55-0.495c-0.17-0.184-0.318-0.385-0.474-0.58
	c-0.185-0.233-0.378-0.458-0.567-0.686c0.042-0.057,0.095-0.105,0.13-0.167c0.12-0.207,0.189-0.454,0.251-0.685
	c0.101-0.393,0.148-0.805,0.178-1.208c0.057-0.781-0.18-1.539-0.397-2.279c-0.235-0.801-0.531-1.588-0.88-2.348
	c-0.152-0.331-0.31-0.679-0.503-0.989c-0.221-0.357-0.487-0.698-0.76-1.02c-0.274-0.326-0.562-0.627-0.894-0.894
	c-0.343-0.274-0.71-0.517-1.067-0.773c-0.655-0.472-1.304-0.959-2.038-1.302c-0.406-0.191-0.827-0.351-1.257-0.483
	c-0.395-0.118-0.787-0.243-1.186-0.343c-0.825-0.211-1.675-0.282-2.524-0.286c-0.048,0-0.096,0-0.143,0
	c-0.69,0-1.38,0.027-2.067,0.105c-0.44,0.047-0.88,0.109-1.318,0.177c-0.381,0.061-0.75,0.172-1.119,0.28
	c-0.397,0.115-0.795,0.229-1.18,0.379c-0.434,0.17-0.856,0.365-1.261,0.596C8.362,5.337,7.697,5.948,7.075,6.57
	C6.503,7.142,5.956,7.75,5.489,8.411C5.279,8.709,5.132,9.06,4.976,9.39c-0.195,0.414-0.379,0.839-0.541,1.269
	c-0.304,0.805-0.468,1.638-0.564,2.49c-0.043,0.387-0.039,0.775-0.024,1.166c0.016,0.414,0.038,0.843,0.158,1.241
	c0.046,0.153,0.126,0.287,0.205,0.421c-0.408,0.517-0.811,1.039-1.225,1.55c-0.221,0.272-0.456,0.531-0.669,0.807
	c-0.065,0.087-0.134,0.176-0.182,0.272c-0.085,0.17-0.15,0.357-0.132,0.551c0.022,0.231,0.061,0.341,0.16,0.552
	c0.12,0.255,0.294,0.485,0.501,0.675c0.294,0.268,0.649,0.43,1.032,0.531c0.171,0.045,0.351,0.056,0.529,0.064
	c-0.04,0.203-0.088,0.404-0.119,0.61c-0.063,0.432-0.13,0.868-0.089,1.306c0.02,0.203,0.043,0.424,0.105,0.622
	c0.033,0.104,0.075,0.198,0.123,0.288c-0.052,0.077-0.106,0.154-0.149,0.235c-0.156,0.29-0.217,0.6-0.262,0.922
	c-0.063,0.426-0.109,0.876-0.083,1.308c0.006,0.106,0.02,0.276,0.045,0.365c0.043,0.156,0.109,0.298,0.174,0.444
	c0.075,0.17,0.201,0.312,0.316,0.456c0.067,0.085,0.164,0.156,0.249,0.223c0.134,0.104,0.268,0.211,0.412,0.302
	c0.399,0.245,0.837,0.345,1.29,0.408c0.444,0.063,0.89,0.118,1.338,0.15c0.434,0.034,0.87,0.022,1.304,0.014
	c0.86-0.018,1.721-0.069,2.583-0.081c0.856-0.012,1.711-0.012,2.569-0.012c0.395,0,0.793-0.02,1.188-0.039
	c0.408-0.018,0.817-0.018,1.223-0.02c0.803,0,1.604,0.004,2.405,0.008c0.71,0.002,1.419-0.04,2.127-0.067
	c0.783-0.03,1.565-0.039,2.348-0.035c0.164,0,0.328,0.002,0.489,0.002c0.286,0,0.57-0.038,0.852-0.079
	c0.185-0.026,0.367-0.089,0.543-0.15c0.213-0.071,0.424-0.154,0.627-0.25c0.219-0.107,0.412-0.298,0.572-0.481
	c0.146-0.168,0.274-0.353,0.389-0.541c0.176-0.286,0.322-0.62,0.42-0.937c0.067-0.211,0.085-0.44,0.101-0.659
	c0.016-0.207,0.028-0.416,0.037-0.625c0.01-0.235-0.022-0.458-0.053-0.691c-0.022-0.16-0.049-0.318-0.095-0.472
	c-0.03-0.103-0.077-0.199-0.12-0.296c-0.059-0.132-0.177-0.221-0.291-0.306c0.076-0.447,0.043-0.912,0.067-1.366
	c0.115-0.051,0.233-0.098,0.346-0.151c0.481-0.221,0.945-0.464,1.397-0.74c0.241-0.147,0.37-0.404,0.381-0.67
	c0.138,0.041,0.286,0.048,0.43,0.008c0.197-0.053,0.369-0.186,0.472-0.361C29.982,19.452,30.042,19.194,29.965,19.01z M5.589,13.085
	c0.056-0.362,0.125-0.72,0.215-1.075c0.103-0.41,0.249-0.815,0.41-1.208c0.139-0.317,0.292-0.629,0.445-0.939
	C6.8,9.58,6.957,9.321,7.14,9.067c0.678-0.841,1.437-1.633,2.28-2.311c0.413-0.298,0.852-0.55,1.314-0.765
	c0.476-0.188,0.967-0.333,1.455-0.489c0.253-0.081,0.507-0.156,0.77-0.193c0.238-0.035,0.476-0.075,0.715-0.113
	c0.591-0.071,1.185-0.11,1.781-0.128c0.292-0.01,0.586-0.002,0.878,0c0.306,0,0.603,0.008,0.904,0.04
	c0.507,0.074,0.999,0.175,1.493,0.319c0.513,0.15,1.033,0.284,1.531,0.48c0.501,0.231,0.964,0.515,1.424,0.819
	c0.262,0.174,0.513,0.361,0.773,0.535c0.244,0.163,0.489,0.324,0.726,0.497c0.399,0.33,0.755,0.704,1.077,1.108
	c0.411,0.558,0.724,1.174,0.999,1.809c0.177,0.431,0.341,0.868,0.472,1.317c0.129,0.446,0.266,0.895,0.343,1.351
	c0.027,0.287,0.02,0.567-0.012,0.853c-0.047,0.295-0.114,0.587-0.213,0.869c-0.013,0.025-0.026,0.049-0.04,0.073
	c-0.063,0.062-0.128,0.119-0.192,0.179c-0.364-0.021-0.728-0.057-1.093-0.071c-0.198-0.007-0.396-0.01-0.593-0.01
	c-0.183,0-0.366,0.003-0.549,0.009c-0.381,0.012-0.758,0.047-1.138,0.067c-0.373,0.022-0.748,0.036-1.123,0.061
	c-0.748,0.053-1.5,0.047-2.249,0.018c-0.785-0.03-1.569-0.095-2.354-0.106c-0.829-0.014-1.659-0.024-2.486-0.008
	c-0.773,0.016-1.545,0.034-2.32,0.024c-0.781-0.012-1.567-0.004-2.35,0.01c-0.403,0.006-0.809,0.012-1.211,0.026
	c-0.406,0.016-0.811,0.045-1.217,0.057c-0.314,0.011-0.627,0.027-0.941,0.039c-0.034-0.026-0.069-0.052-0.103-0.078
	c-0.074-0.059-0.145-0.119-0.213-0.185c-0.018-0.029-0.034-0.058-0.05-0.088C5.602,15,5.581,14.92,5.565,14.839
	C5.514,14.256,5.52,13.665,5.589,13.085z M11.758,20.667c0.118,0.037,0.232,0.087,0.345,0.135c0.185,0.077,0.373,0.141,0.559,0.213
	c0.381,0.174,0.748,0.378,1.152,0.498c0.225,0.067,0.468,0.097,0.701,0.122c0.28,0.031,0.545,0.002,0.823-0.047
	c0.225-0.037,0.442-0.148,0.641-0.253c0.152-0.079,0.296-0.17,0.438-0.262c0.263-0.169,0.533-0.318,0.816-0.447
	c0.009-0.004,0.019-0.007,0.028-0.01c0.138,0.068,0.271,0.144,0.403,0.226c0.258,0.16,0.531,0.282,0.815,0.393
	c0.42,0.162,0.862,0.326,1.304,0.42c0.359,0.075,0.687,0.061,1.046,0.01c0.351-0.049,0.677-0.249,0.998-0.395
	c0.207-0.093,0.416-0.182,0.616-0.288c0.165-0.088,0.32-0.191,0.484-0.276c0.016-0.005,0.033-0.01,0.049-0.014
	c0.019,0,0.037,0,0.056,0c0.016,0.004,0.031,0.008,0.047,0.013c0.321,0.156,0.625,0.358,0.929,0.54
	c0.388,0.229,0.813,0.416,1.257,0.497c0,0.241,0.004,0.483-0.011,0.723c-0.008,0.037-0.016,0.075-0.025,0.112
	c-0.288,0-0.579-0.024-0.863-0.032c-0.428-0.012-0.856-0.006-1.284-0.006c-0.771,0.002-1.541,0.022-2.312,0.063
	c-0.799,0.043-1.59-0.018-2.387-0.032c-0.466-0.006-0.931-0.004-1.397-0.002c-0.322,0.002-0.643,0.002-0.965,0
	c-0.833-0.004-1.663-0.016-2.496,0.022c-0.858,0.038-1.715,0.042-2.573,0.057c-0.852,0.018-1.705,0.053-2.557,0.073
	c-0.454,0.012-0.91,0.012-1.363,0.014c-0.412,0.004-0.827,0.014-1.239-0.01c-0.013-0.001-0.027-0.002-0.04-0.003
	c-0.004-0.02-0.008-0.04-0.012-0.06c-0.018-0.24-0.005-0.479,0.022-0.718c0.068-0.411,0.168-0.812,0.263-1.218
	c0.026-0.11,0.029-0.22,0.016-0.327c0.016-0.008,0.032-0.016,0.048-0.023c0.092-0.035,0.184-0.066,0.279-0.09
	c0.048,0.027,0.094,0.057,0.14,0.089c0.156,0.128,0.305,0.262,0.47,0.382c0.16,0.116,0.326,0.225,0.485,0.339
	c0.481,0.345,1.062,0.464,1.64,0.519c0.294,0.028,0.584,0.02,0.876-0.031c0.292-0.051,0.562-0.18,0.817-0.33
	C11.118,21.063,11.422,20.836,11.758,20.667z M11.65,20.655c0.015-0.004,0.03-0.006,0.046-0.007c0.001,0,0.002,0.001,0.003,0.001
	C11.682,20.651,11.666,20.653,11.65,20.655z M17.32,20.595c0,0,0.001,0,0.002-0.001c0.011,0.001,0.023,0.003,0.034,0.006
	C17.344,20.599,17.332,20.597,17.32,20.595z M25.718,25.325c-0.019,0.1-0.045,0.196-0.079,0.292
	c-0.102,0.215-0.217,0.42-0.352,0.615c-0.054,0.063-0.112,0.122-0.173,0.177c-0.034,0.022-0.068,0.042-0.103,0.06
	c-0.233,0.086-0.474,0.159-0.717,0.207c-0.343,0.03-0.688,0.021-1.032,0.011c-0.383-0.01-0.766-0.012-1.146-0.014
	c-0.738,0-1.474,0.047-2.21,0.047c-0.377,0.002-0.752,0.016-1.127,0.028c-0.387,0.012-0.773,0.008-1.162,0.01
	c-0.809,0.004-1.616,0.026-2.425,0.051c-0.637,0.022-1.273,0.034-1.91,0.04c-0.706,0.004-1.413-0.006-2.117,0.02
	c-1.353,0.048-2.726,0.135-4.074-0.032c-0.378-0.053-0.762-0.107-1.123-0.236c-0.107-0.056-0.209-0.119-0.308-0.188
	c-0.037-0.033-0.072-0.066-0.105-0.101c-0.025-0.041-0.047-0.083-0.069-0.125c-0.003-0.01-0.005-0.019-0.007-0.029
	c-0.035-0.379-0.019-0.773,0.019-1.151c0.016-0.082,0.035-0.161,0.06-0.241c0.009-0.017,0.019-0.033,0.029-0.049
	c0.025-0.028,0.051-0.056,0.078-0.083c0.009-0.003,0.018-0.006,0.026-0.01c0.084-0.031,0.157-0.072,0.228-0.116
	c0.186,0.001,0.373-0.003,0.558-0.01c0.894-0.032,1.788-0.049,2.68-0.087c0.842-0.036,1.685-0.063,2.528-0.081
	c0.856-0.02,1.713-0.083,2.571-0.107c0.602-0.014,1.204-0.014,1.805-0.012c0.215,0,0.432,0,0.647-0.002
	c0.764-0.002,1.529-0.008,2.291,0.036c0.412,0.022,0.827,0.024,1.239,0.02c0.389-0.004,0.777-0.036,1.168-0.047
	c1.103-0.036,2.212-0.028,3.315-0.01c0.247,0.004,0.496,0.014,0.744,0.004c0.082,0.061,0.175,0.115,0.276,0.142
	C25.765,24.676,25.75,25.004,25.718,25.325z M27.219,19.606c-0.207,0.112-0.421,0.212-0.638,0.305
	c-0.103,0.042-0.207,0.083-0.311,0.121c-0.126,0.048-0.248,0.102-0.377,0.136c-0.038,0.001-0.076,0-0.114-0.003
	c-0.129-0.024-0.256-0.057-0.38-0.1c-0.528-0.264-1.006-0.627-1.546-0.87c-0.304-0.138-0.616-0.215-0.953-0.197
	c-0.298,0.016-0.58,0.11-0.837,0.258c-0.281,0.162-0.541,0.343-0.835,0.479c-0.203,0.083-0.405,0.169-0.607,0.256
	c-0.032,0.01-0.064,0.019-0.095,0.027c-0.095,0.004-0.189,0-0.284-0.006c-0.213-0.042-0.423-0.102-0.632-0.16
	c-0.228-0.062-0.455-0.129-0.677-0.211c-0.267-0.135-0.514-0.305-0.778-0.448c-0.199-0.109-0.418-0.223-0.643-0.255
	c-0.223-0.03-0.42-0.035-0.637,0.03c-0.067,0.02-0.132,0.049-0.197,0.075c-0.32,0.124-0.625,0.274-0.921,0.444
	c-0.235,0.133-0.456,0.283-0.697,0.402c-0.055,0.018-0.11,0.033-0.166,0.046c-0.067,0.003-0.133,0.003-0.2-0.001
	c-0.273-0.05-0.531-0.125-0.79-0.229c-0.314-0.138-0.624-0.279-0.949-0.394c-0.174-0.061-0.345-0.124-0.515-0.193
	c-0.199-0.083-0.373-0.128-0.594-0.156c-0.466-0.059-0.916,0.241-1.298,0.474c-0.259,0.16-0.514,0.323-0.785,0.461
	c-0.049,0.016-0.098,0.029-0.148,0.04c-0.174,0.01-0.346,0.001-0.52-0.017c-0.157-0.026-0.312-0.059-0.465-0.105
	c-0.131-0.069-0.253-0.152-0.376-0.241c-0.131-0.096-0.268-0.184-0.4-0.278c-0.182-0.149-0.363-0.301-0.559-0.434
	c-0.128-0.085-0.274-0.142-0.416-0.197c-0.266-0.105-0.549-0.093-0.825-0.051c-0.476,0.073-0.912,0.326-1.349,0.527
	c-0.107,0.039-0.214,0.073-0.325,0.1c-0.026,0-0.053-0.001-0.079-0.002c-0.099-0.021-0.195-0.048-0.291-0.081
	C3.976,19.14,3.942,19.12,3.908,19.1c0.523-0.658,1.077-1.292,1.605-1.946c0.17,0.075,0.385,0.093,0.548,0.047
	c0.081-0.023,0.153-0.067,0.224-0.112c0.022-0.001,0.043-0.003,0.065-0.005c0.412-0.03,0.825-0.042,1.237-0.073
	c0.596-0.045,1.196-0.043,1.796-0.042c0.193,0.002,0.389,0.002,0.584,0c0.389-0.002,0.777,0.006,1.166,0.006
	c0.207,0.002,0.416-0.002,0.624-0.004c0.209-0.004,0.416-0.006,0.625-0.006c0.754,0.002,1.505-0.04,2.259-0.057
	c0.831-0.022,1.667-0.032,2.498-0.016c0.793,0.018,1.582,0.079,2.376,0.087c0.742,0.006,1.484-0.043,2.224-0.083
	c0.748-0.04,1.496-0.057,2.245-0.061c0.288-0.002,0.576-0.008,0.862,0.004c0.272,0.011,0.546,0.038,0.817,0.063
	c0.356,0.405,0.719,0.807,1.048,1.233c-0.01-0.013-0.02-0.026-0.029-0.039c0.028,0.037,0.056,0.073,0.084,0.11
	c-0.041-0.055-0.085-0.11-0.126-0.166c0.14,0.183,0.276,0.365,0.434,0.533c0.17,0.178,0.373,0.331,0.556,0.493
	c0.07,0.062,0.15,0.108,0.226,0.162c-0.022,0.01-0.046,0.01-0.066,0.023C27.6,19.371,27.417,19.501,27.219,19.606z M11.555,9.214
	c-0.33-0.329-0.331-0.884,0-1.214c0.339-0.337,0.704-0.649,1.064-0.965c0.178-0.156,0.373-0.255,0.616-0.255
	c0.231,0,0.454,0.091,0.618,0.255c0.318,0.318,0.359,0.921,0,1.233c-0.361,0.314-0.734,0.618-1.081,0.945
	C12.431,9.538,11.892,9.552,11.555,9.214z M15.131,9.07c-0.01-0.475-0.016-0.953-0.024-1.429c-0.006-0.458,0.387-0.839,0.837-0.839
	c0.462,0,0.833,0.381,0.839,0.839c0.006,0.476,0.01,0.953,0.016,1.429c0.008,0.454-0.383,0.835-0.833,0.835
	C15.503,9.905,15.14,9.524,15.131,9.07z M17.812,8.118c-0.335-0.316-0.32-0.878,0-1.196c0.164-0.165,0.377-0.245,0.591-0.245
	c0.219,0,0.438,0.083,0.606,0.245c0.27,0.257,0.529,0.541,0.823,0.774c-0.031-0.023-0.061-0.047-0.092-0.07
	c0.168,0.132,0.296,0.258,0.356,0.477c0.059,0.217,0.03,0.452-0.085,0.643c-0.109,0.188-0.29,0.328-0.499,0.385
	c-0.195,0.055-0.472,0.043-0.643-0.085C18.491,8.768,18.154,8.442,17.812,8.118z"/>
</svg>