<?xml version="1.0" encoding="utf-8"?>
<!-- Generator: Adobe Illustrator 21.1.0, SVG Export Plug-In . SVG Version: 6.00 Build 0)  -->
<svg version="1.1" id="designs" xmlns="http://www.w3.org/2000/svg" xmlns:xlink="http://www.w3.org/1999/xlink" x="0px" y="0px"
	 width="32px" height="32px" viewBox="0 0 32 32" style="enable-background:new 0 0 32 32;" xml:space="preserve">
<style type="text/css">
	.sketchy_een{fill:#111918;}
</style>
<path class="sketchy_een" d="M17.489,1.984c-0.009,0.001-0.018,0.003-0.028,0.004c-0.008,0.001-0.016,0.002-0.023,0.003
	C17.455,1.989,17.471,1.986,17.489,1.984z M17.941,15.362c0.001-0.007,0.003-0.015,0.003-0.022c0.009-0.065,0.017-0.13,0.026-0.195
	C17.961,15.218,17.951,15.29,17.941,15.362z M31,11.163c0,0.06-0.007,0.12-0.019,0.179c-0.001,0.219-0.085,0.438-0.244,0.61
	c-0.447,0.485-0.912,0.952-1.393,1.401c-0.444,0.412-0.889,0.819-1.319,1.247c-0.352,0.348-0.699,0.7-1.051,1.047
	c-0.317,0.317-0.649,0.625-0.94,0.965c-0.167,0.196-0.428,0.261-0.676,0.225c-0.007,0.004-0.013,0.01-0.02,0.015
	c-0.18,0.105-0.401,0.135-0.602,0.08c-0.07-0.019-0.132-0.047-0.187-0.081l0,0.001c-0.002-0.002-0.004-0.004-0.008-0.006
	c-0.103-0.06-0.188-0.14-0.254-0.239c-0.143-0.155-0.306-0.292-0.465-0.432c-0.225-0.2-0.449-0.402-0.683-0.591
	c-0.195-0.147-0.393-0.297-0.569-0.464c-0.28-0.263-0.474-0.682-0.375-1.069c-0.197,0.06-0.398,0.101-0.608,0.086
	c-0.215-0.018-0.401-0.074-0.557-0.233c-0.064-0.064-0.114-0.139-0.153-0.22c-0.037,0.075-0.082,0.148-0.141,0.212
	c-0.197,0.219-0.401,0.434-0.61,0.643c-0.14,0.14-0.292,0.272-0.425,0.419c-0.017,0.025-0.034,0.051-0.05,0.077
	c-0.031,0.1-0.054,0.203-0.072,0.307c-0.031,0.274-0.041,0.552-0.091,0.825c-0.07,0.389-0.231,0.774-0.426,1.118
	c-0.115,0.205-0.276,0.402-0.424,0.582c-0.113,0.135-0.227,0.27-0.346,0.399c-0.268,0.291-0.549,0.569-0.827,0.85
	c-0.287,0.291-0.569,0.59-0.858,0.879c-0.281,0.283-0.576,0.555-0.87,0.827c-0.276,0.254-0.537,0.518-0.801,0.782
	c-0.576,0.576-1.186,1.118-1.796,1.659c-0.606,0.535-1.184,1.098-1.784,1.639c-0.299,0.27-0.606,0.53-0.889,0.815
	c-0.295,0.297-0.584,0.598-0.877,0.897c-0.565,0.574-1.176,1.083-1.788,1.604c-0.524,0.447-1.016,0.932-1.538,1.38
	c-0.09,0.077-0.183,0.139-0.284,0.181c-0.252,0.282-0.693,0.373-1.026,0.167c-0.324-0.201-0.61-0.496-0.877-0.764
	c-0.295-0.293-0.592-0.58-0.901-0.86c-0.623-0.567-1.278-1.102-1.872-1.7c-0.18-0.181-0.264-0.425-0.256-0.666
	c-0.009-0.025-0.021-0.049-0.026-0.074c-0.002-0.004-0.002-0.008-0.002-0.012c-0.074-0.337,0.044-0.681,0.312-0.871
	c0.041-0.049,0.079-0.102,0.118-0.15c-0.038,0.049-0.074,0.098-0.112,0.146h0c0.542-0.701,1.075-1.403,1.652-2.077
	c0.483-0.563,0.987-1.11,1.506-1.639c0.594-0.608,1.204-1.198,1.794-1.807c0.555-0.571,1.116-1.133,1.682-1.694
	c0.557-0.553,1.122-1.102,1.702-1.633c0.614-0.565,1.227-1.127,1.876-1.651c0.678-0.545,1.379-1.063,2.106-1.544
	c0.319-0.211,0.641-0.436,0.991-0.596c0.186-0.084,0.379-0.166,0.584-0.199c0.175-0.027,0.351-0.05,0.528-0.073
	c0.296-0.041,0.591-0.084,0.889-0.108c0.215-0.019,0.431-0.037,0.647-0.061c0.033-0.007,0.066-0.015,0.099-0.025
	c0.003-0.002,0.006-0.004,0.01-0.006c0.311-0.267,0.597-0.568,0.894-0.852c-0.057-0.069-0.113-0.139-0.156-0.216
	c-0.166-0.293-0.182-0.69,0.006-0.979c0.098-0.15,0.215-0.285,0.326-0.426c0.169-0.212,0.356-0.413,0.529-0.622l0,0
	c-0.124-0.225-0.285-0.429-0.443-0.632c-0.539-0.688-1.152-1.329-1.832-1.883c-0.089-0.065-0.177-0.126-0.274-0.178
	c-0.092-0.033-0.184-0.061-0.279-0.084c-0.23-0.007-0.463,0.016-0.691,0.04c-0.266,0.043-0.533,0.107-0.791,0.182
	c-0.207,0.061-0.412,0.104-0.629,0.121c-0.213,0.016-0.459-0.102-0.606-0.248c-0.16-0.16-0.252-0.383-0.252-0.612
	c0-0.383,0.264-0.676,0.52-0.932c0.17-0.172,0.354-0.328,0.535-0.487c0.236-0.205,0.483-0.401,0.719-0.606
	c0.213-0.184,0.408-0.387,0.631-0.561c0.176-0.137,0.352-0.281,0.541-0.397c0.15-0.094,0.313-0.17,0.473-0.244
	c0.168-0.076,0.344-0.156,0.522-0.211c0.103-0.032,0.207-0.051,0.312-0.067c0.228-0.03,0.455-0.046,0.682-0.046
	c0.128,0,0.256,0.005,0.385,0.015c0.315,0.023,0.627,0.072,0.938,0.123c0.262,0.043,0.51,0.109,0.762,0.19
	c0.301,0.094,0.612,0.166,0.907,0.272c0.715,0.26,1.397,0.631,2.001,1.09c0.309,0.234,0.588,0.498,0.885,0.746
	c0.309,0.258,0.637,0.494,0.944,0.756c0.311,0.264,0.621,0.529,0.916,0.809c0.297,0.283,0.582,0.578,0.875,0.868
	c0.201,0.201,0.406,0.397,0.617,0.586c0.111,0.102,0.258,0.285,0.279,0.444c0.031,0.225,0.053,0.479-0.094,0.676
	c-0.011,0.015-0.022,0.031-0.034,0.046c0.213-0.09,0.433-0.158,0.663-0.159c0.406-0.004,0.705,0.289,0.973,0.553
	c0.158,0.158,0.313,0.322,0.473,0.479c0.379,0.363,0.764,0.715,1.11,1.112C30.9,10.725,31,10.921,31,11.163z M19.76,12.583
	c-0.037-0.041-0.074-0.08-0.111-0.12c-0.06-0.067-0.121-0.134-0.18-0.202c-0.284,0.263-0.571,0.524-0.864,0.778
	c-0.254,0.221-0.506,0.416-0.846,0.473c-0.659,0.112-1.331,0.12-1.994,0.196c-0.149,0.026-0.291,0.064-0.432,0.114
	c-0.466,0.23-0.909,0.51-1.339,0.799c-0.472,0.314-0.933,0.643-1.386,0.983c-0.981,0.769-1.908,1.608-2.813,2.464
	c-0.61,0.576-1.208,1.165-1.802,1.757c-0.59,0.59-1.143,1.217-1.721,1.817c-1.097,1.134-2.178,2.29-3.153,3.532
	c-0.104,0.141-0.207,0.282-0.308,0.424c0.496,0.51,1.005,1.007,1.518,1.501c0.295,0.283,0.584,0.573,0.873,0.864
	c0.061,0.061,0.122,0.124,0.183,0.187c0.321-0.276,0.633-0.565,0.946-0.848c0.469-0.426,0.965-0.823,1.442-1.239
	c0.49-0.428,0.942-0.897,1.409-1.35c0.5-0.485,1.034-0.932,1.548-1.405c0.276-0.252,0.543-0.512,0.828-0.756
	c0.303-0.262,0.61-0.522,0.911-0.787c0.315-0.277,0.627-0.557,0.93-0.848c0.285-0.274,0.557-0.565,0.846-0.836
	c0.569-0.535,1.137-1.069,1.678-1.633c0.279-0.291,0.549-0.592,0.825-0.889c0.222-0.238,0.443-0.473,0.649-0.725
	c0.133-0.193,0.251-0.385,0.351-0.596c0.064-0.169,0.115-0.34,0.148-0.519c0.016-0.125,0.033-0.251,0.05-0.376
	c0.032-0.239,0.057-0.48,0.114-0.717c0.062-0.258,0.195-0.485,0.375-0.678c0.145-0.154,0.303-0.297,0.447-0.453
	c0.231-0.252,0.459-0.508,0.686-0.764C19.623,12.666,19.689,12.62,19.76,12.583z M29.062,11.249
	c-0.156-0.18-0.316-0.357-0.483-0.526c-0.197-0.197-0.393-0.401-0.599-0.592c-0.108,0.037-0.215,0.079-0.319,0.122
	c-0.212,0.096-0.417,0.208-0.624,0.313c-0.12,0.06-0.238,0.12-0.35,0.192c-0.14,0.117-0.272,0.227-0.463,0.287
	c-0.369,0.115-0.766-0.08-0.959-0.397c-0.154-0.252-0.133-0.551-0.037-0.817c0.084-0.236,0.201-0.455,0.338-0.664
	c0.063-0.097,0.126-0.192,0.179-0.292c0.052-0.171,0.069-0.348,0.132-0.515c0.021-0.056,0.042-0.114,0.065-0.171
	c-0.017-0.016-0.034-0.033-0.05-0.049c-0.197-0.201-0.393-0.402-0.588-0.604c-0.435-0.456-0.907-0.871-1.394-1.271
	c-0.319-0.241-0.642-0.474-0.956-0.72c-0.224-0.175-0.436-0.362-0.659-0.536c-0.031-0.024-0.062-0.048-0.093-0.072
	c0.001,0.001,0.003,0.002,0.004,0.003c-0.425-0.318-0.872-0.588-1.354-0.809c-0.329-0.126-0.677-0.208-1.013-0.316
	c-0.281-0.092-0.56-0.161-0.851-0.203c0.051,0.007,0.103,0.014,0.156,0.019c-0.123-0.016-0.246-0.033-0.369-0.05
	c-0.312-0.04-0.626-0.062-0.94-0.043c-0.137,0.028-0.269,0.067-0.4,0.116c-0.103,0.047-0.206,0.096-0.306,0.15
	c-0.108,0.06-0.209,0.134-0.309,0.209c-0.211,0.176-0.401,0.375-0.599,0.567c0.018,0.001,0.036,0.002,0.054,0.004
	c0.268,0.021,0.516,0.113,0.76,0.223c0.277,0.125,0.518,0.328,0.752,0.524c0.168,0.143,0.336,0.289,0.494,0.444
	c0.359,0.354,0.707,0.719,1.061,1.081c0.279,0.287,0.516,0.606,0.756,0.924c0.124,0.159,0.263,0.313,0.356,0.495
	c0.205,0.406,0.166,0.873-0.082,1.253c-0.175,0.266-0.395,0.506-0.596,0.753c-0.001,0.001-0.002,0.002-0.003,0.004
	c0.102,0.116,0.206,0.232,0.308,0.349c0.18,0.207,0.35,0.422,0.522,0.637c0.346,0.432,0.692,0.864,1.114,1.229
	c0.016,0.013,0.026,0.03,0.04,0.045c0.202-0.049,0.402-0.115,0.596-0.187c0.138-0.065,0.272-0.139,0.398-0.227
	c0.117-0.084,0.233-0.17,0.356-0.242c0.284-0.168,0.631-0.318,0.962-0.318c0.234,0,0.461,0.075,0.652,0.271
	c0.062,0.064,0.127,0.133,0.162,0.215c0.088,0.197,0.1,0.254,0.125,0.471c0.027,0.229-0.119,0.483-0.223,0.678
	c-0.068,0.127-0.141,0.254-0.211,0.381c-0.063,0.113-0.123,0.223-0.199,0.326c-0.088,0.121-0.183,0.235-0.279,0.348
	c0.032,0.03,0.064,0.06,0.095,0.091c0.15,0.15,0.305,0.299,0.455,0.449c0.15,0.148,0.297,0.302,0.447,0.453
	c0.065-0.061,0.129-0.123,0.191-0.187c0.182-0.19,0.358-0.385,0.541-0.571c0.35-0.35,0.713-0.686,1.067-1.03
	C27.633,12.742,28.358,12.007,29.062,11.249z"/>
</svg>