<?xml version="1.0" encoding="utf-8"?>
<!-- Generator: Adobe Illustrator 21.1.0, SVG Export Plug-In . SVG Version: 6.00 Build 0)  -->
<svg version="1.1" id="designs" xmlns="http://www.w3.org/2000/svg" xmlns:xlink="http://www.w3.org/1999/xlink" x="0px" y="0px"
	 width="32px" height="32px" viewBox="0 0 32 32" style="enable-background:new 0 0 32 32;" xml:space="preserve">
<style type="text/css">
	.sketchy_een{fill:#111918;}
</style>
<path class="sketchy_een" d="M30.929,18.844c-0.068-0.318-0.184-0.631-0.287-0.939c-0.092-0.275-0.184-0.551-0.322-0.807
	c-0.152-0.285-0.379-0.547-0.604-0.781c-0.225-0.236-0.475-0.447-0.709-0.674c-0.391-0.381-0.816-0.74-1.301-0.996
	c-0.314-0.166-0.621-0.33-0.971-0.41c-0.281-0.064-0.563-0.134-0.845-0.198c-0.012-0.014-0.025-0.028-0.038-0.041
	c-0.17-0.17-0.375-0.234-0.609-0.252c-0.193-0.014-0.388-0.021-0.583-0.021c-0.059,0-0.117,0.007-0.176,0.009
	c-0.158-0.709-0.332-1.414-0.486-2.122c-0.172-0.789-0.357-1.574-0.502-2.367c-0.15-0.824-0.273-1.652-0.41-2.479
	c-0.033-0.209-0.219-0.41-0.393-0.514c-0.071-0.041-0.147-0.069-0.226-0.089c-0.143-0.122-0.318-0.204-0.515-0.195
	c-0.551,0.027-1.1,0.014-1.65,0.008c-0.252-0.002-0.506,0.002-0.758-0.008c-0.5-0.018-1-0.061-1.5-0.082
	c-0.01,0-0.021-0.001-0.031-0.001c-0.468,0-0.852,0.429-0.852,0.884c0,0.49,0.4,0.873,0.883,0.883
	c0.752,0.016,1.506-0.035,2.258-0.039c0.403-0.003,0.803,0,1.204,0.006c0.202,1.097,0.404,2.195,0.611,3.292
	c-0.064-0.001-0.128,0.002-0.191,0.001c-0.129-0.004-0.26-0.008-0.387-0.004c-0.146,0.006-0.293,0.004-0.439,0.002
	c-0.135-0.002-0.27-0.002-0.402,0c-0.191,0.006-0.381,0.006-0.57,0.004c-0.178-0.002-0.355-0.004-0.531,0
	c-0.328,0.008-0.654,0.025-0.982,0.025c-0.346-0.002-0.691-0.021-1.037-0.014c-0.367,0.008-0.734,0.004-1.102,0.008
	c-0.348,0.004-0.693,0.031-1.041,0.037c-0.527,0.01-1.055,0.01-1.584,0.027c-0.471,0.018-0.941,0.029-1.412,0.027
	c-0.432-0.002-0.865,0.023-1.297,0.027c-0.319,0.003-0.637,0.013-0.955,0.021c0.104-0.321,0.213-0.641,0.312-0.964
	c0.341,0.007,0.682,0.026,1.023,0.049c0.443,0.029,0.812-0.393,0.812-0.812c0-0.411-0.348-0.812-0.773-0.812
	c-0.013,0-0.026,0-0.039,0.001c-0.25,0.014-0.502,0.01-0.752,0.008c-0.354-0.004-0.707-0.008-1.057,0.031
	C9.532,8.594,9.35,8.619,9.168,8.633C8.993,8.647,8.817,8.645,8.641,8.645C8.196,8.651,7.75,8.668,7.305,8.696
	C6.864,8.721,6.495,9.043,6.495,9.504c0,0.414,0.369,0.848,0.811,0.811c0.432-0.037,0.865-0.094,1.299-0.111
	c0.042-0.002,0.082-0.006,0.124-0.008c-0.177,0.637-0.352,1.276-0.546,1.908c-0.211,0.69-0.461,1.367-0.688,2.053
	c-0.167,0.009-0.334,0.012-0.503,0.035c-0.369,0.049-0.744,0.094-1.107,0.17c-0.344,0.072-0.662,0.17-0.982,0.318
	c-0.336,0.158-0.645,0.379-0.943,0.598c-0.555,0.41-1.09,0.867-1.541,1.391c-0.264,0.305-0.498,0.633-0.68,0.994
	c-0.148,0.293-0.289,0.607-0.369,0.928c-0.055,0.213-0.084,0.43-0.141,0.643c-0.1,0.375-0.145,0.768-0.189,1.152
	c-0.029,0.246-0.049,0.494-0.031,0.742c0.023,0.359,0.086,0.721,0.168,1.072c0.154,0.658,0.518,1.223,0.926,1.75
	c0.203,0.26,0.459,0.475,0.701,0.693c0.307,0.279,0.606,0.576,0.975,0.771c0.313,0.168,0.652,0.279,0.984,0.398
	c0.133,0.047,0.264,0.096,0.4,0.135c0.158,0.043,0.324,0.064,0.484,0.09c0.363,0.061,0.721,0.074,1.088,0.078
	c0.229,0.002,0.457-0.029,0.686-0.043c0.506-0.033,0.99-0.18,1.482-0.281c0.312-0.064,0.605-0.223,0.887-0.367
	c0.363-0.189,0.691-0.445,1.004-0.705c0.393-0.326,0.752-0.668,1.074-1.062c0.197-0.242,0.379-0.486,0.52-0.766
	c0.053-0.108,0.103-0.218,0.156-0.326c0.242,0.013,0.485,0.015,0.727-0.016c0.328-0.043,0.676-0.068,0.992-0.17
	c0.309-0.098,0.619-0.223,0.885-0.408c0.121-0.086,0.238-0.178,0.35-0.275c0.123-0.105,0.217-0.25,0.305-0.387
	c0.182-0.277,0.297-0.592,0.309-0.926c0.009-0.293-0.077-0.575-0.198-0.839c0.4-1.123,0.751-2.265,1.136-3.391
	c0.42-1.232,0.838-2.462,1.277-3.687c0.859-0.021,1.715-0.073,2.575-0.057c0.094,0.002,0.186,0,0.279-0.002s0.188-0.006,0.281-0.004
	c0.199,0.004,0.4,0.008,0.6,0.002c0.116-0.004,0.229,0.002,0.343,0.005c0.006,0.031,0.011,0.062,0.018,0.092
	c0.103,0.522,0.211,1.044,0.317,1.566c-0.064,0.025-0.132,0.039-0.194,0.065c-0.188,0.082-0.363,0.191-0.543,0.289
	c-0.406,0.225-0.812,0.49-1.137,0.824c-0.396,0.412-0.842,0.785-1.211,1.225c-0.496,0.592-0.873,1.314-1.07,2.061
	c-0.102,0.377-0.18,0.76-0.252,1.143c-0.057,0.295-0.113,0.594-0.129,0.895c-0.016,0.32-0.031,0.639,0.021,0.957
	c0.051,0.309,0.166,0.609,0.27,0.902c0.094,0.266,0.191,0.531,0.322,0.781c0.096,0.182,0.211,0.35,0.326,0.52
	c0.318,0.469,0.715,0.891,1.141,1.266c0.225,0.199,0.477,0.393,0.758,0.512c0.23,0.098,0.467,0.195,0.705,0.277
	c0.135,0.045,0.277,0.068,0.418,0.094c0.244,0.045,0.492,0.08,0.74,0.104c0.297,0.027,0.598,0.057,0.896,0.068
	c0.287,0.012,0.58-0.018,0.867-0.02c0.268-0.002,0.535-0.014,0.799-0.053c0.287-0.043,0.574-0.119,0.856-0.195
	c0.249-0.067,0.482-0.174,0.718-0.278c0.211-0.086,0.422-0.168,0.626-0.271c0.203-0.105,0.402-0.234,0.584-0.373
	c0.641-0.486,1.193-1.051,1.648-1.717c0.154-0.223,0.275-0.471,0.398-0.711c0.16-0.318,0.309-0.643,0.424-0.979
	c0.111-0.332,0.141-0.678,0.18-1.025c0.021-0.197,0.047-0.395,0.07-0.592c0.012-0.094,0.02-0.189,0.027-0.283
	C31.013,19.315,30.976,19.076,30.929,18.844z M8.724,18.487c-0.289,0.033-0.579,0.069-0.864,0.131
	c0.035-0.134,0.074-0.266,0.107-0.399c0.096-0.387,0.211-0.764,0.316-1.146c0.088-0.32,0.185-0.638,0.275-0.959
	c0.024,0.008,0.048,0.013,0.071,0.021c0.248,0.115,0.484,0.254,0.723,0.385c0.246,0.133,0.486,0.271,0.711,0.434
	c0.143,0.119,0.279,0.246,0.398,0.389c0.189,0.262,0.361,0.537,0.549,0.799c0.06,0.082,0.097,0.174,0.149,0.258
	c-0.081,0.002-0.162,0.002-0.243,0.005c-0.367,0.008-0.734,0.014-1.102,0.018S9.089,18.444,8.724,18.487z M10.343,22.941
	c-0.256,0.287-0.553,0.541-0.855,0.781c-0.277,0.203-0.568,0.375-0.879,0.521c-0.207,0.074-0.424,0.121-0.637,0.174
	c-0.182,0.047-0.363,0.096-0.547,0.127c-0.152,0.018-0.307,0.029-0.459,0.035c-0.244,0.008-0.482-0.014-0.723-0.041
	c-0.277-0.045-0.561-0.117-0.82-0.223c-0.178-0.074-0.355-0.145-0.533-0.217c-0.182-0.082-0.352-0.18-0.516-0.293
	c-0.18-0.154-0.352-0.322-0.527-0.486c-0.162-0.154-0.322-0.309-0.467-0.48c-0.17-0.238-0.324-0.496-0.447-0.764
	c-0.102-0.279-0.154-0.568-0.199-0.863c-0.029-0.328-0.021-0.654,0.016-0.98c0.039-0.279,0.09-0.553,0.145-0.828
	c0.055-0.283,0.09-0.566,0.188-0.838c0.117-0.252,0.252-0.498,0.414-0.727c0.385-0.473,0.828-0.896,1.305-1.275
	c0.266-0.197,0.539-0.385,0.838-0.531c0.365-0.137,0.748-0.223,1.133-0.281c0.076-0.008,0.15-0.009,0.225-0.013
	c-0.12,0.385-0.245,0.769-0.358,1.156C6.42,17.637,6.241,18.387,6,19.123c-0.072,0.221-0.143,0.439-0.205,0.662
	c-0.051,0.178-0.072,0.363-0.129,0.537c-0.094,0.29,0.016,0.589,0.218,0.802c0.026,0.062,0.036,0.128,0.072,0.185
	c0.111,0.18,0.242,0.32,0.412,0.443c0.199,0.145,0.445,0.23,0.684,0.285c0.346,0.078,0.697,0.133,1.053,0.162
	c0.654,0.055,1.307,0.15,1.963,0.193c0.232,0.015,0.465,0.017,0.699,0.021c-0.012,0.017-0.019,0.037-0.031,0.054
	C10.608,22.629,10.479,22.787,10.343,22.941z M14.439,20.64c-0.039,0.043-0.086,0.078-0.133,0.111
	c-0.049,0.037-0.1,0.064-0.154,0.084c-0.057,0.02-0.113,0.035-0.17,0.049c-0.055,0.016-0.111,0.029-0.168,0.039
	c-0.016,0.003-0.033,0.006-0.049,0.01c-0.002,0.001-0.005,0.001-0.007,0.002c-0.033,0.01-0.064,0.02-0.096,0.025
	c-0.076,0.016-0.156,0.021-0.232,0.029c-0.012,0-0.021,0.002-0.033,0.002c-0.09,0.018-0.18,0.029-0.27,0.039
	c-0.009,0.001-0.019,0-0.028,0.001l0,0c-0.176,0.016-0.354,0.01-0.529,0.004c-0.174-0.006-0.344-0.025-0.516-0.037
	c-0.062-0.004-0.127-0.01-0.189-0.016c-0.02,0-0.039-0.001-0.058-0.001c-0.256-0.002-0.512-0.011-0.769-0.031
	c-0.143-0.014-0.285-0.031-0.43-0.041c-0.07-0.006-0.139-0.008-0.209-0.016c-0.023-0.002-0.047-0.004-0.068-0.008
	c-0.045-0.002-0.09-0.004-0.135-0.006c-0.385-0.021-0.771-0.07-1.154-0.113C8.72,20.73,8.402,20.7,8.083,20.663
	c-0.24-0.037-0.476-0.087-0.707-0.159c0.008-0.033,0.017-0.066,0.025-0.099c0.009-0.016,0.018-0.032,0.028-0.047
	c0.002,0,0.004-0.002,0.004-0.004c0.059-0.035,0.117-0.068,0.178-0.098c0.012-0.005,0.025-0.009,0.037-0.014
	c0.051-0.039,0.109-0.071,0.166-0.101c0.07-0.037,0.145-0.066,0.221-0.086c0.123-0.035,0.25-0.064,0.375-0.096
	c0.107-0.025,0.215-0.045,0.322-0.066c0.121-0.023,0.24-0.041,0.363-0.055c0.001,0,0.001,0,0.002,0c-0.001,0-0.002,0-0.004,0h0
	c0.002,0,0.003,0,0.005-0.001c0,0,0.001-0.001,0.001-0.001c0,0,0,0,0.002,0c-0.001,0-0.002,0-0.003,0.001l-0.001,0.001
	c0.002,0,0.005-0.001,0.007-0.001H9.103c0.007-0.001,0.013-0.002,0.02-0.002c0.014-0.002,0.028-0.004,0.043-0.006
	c0.009-0.002,0.017-0.003,0.028-0.003c0.154-0.02,0.309-0.035,0.465-0.045c0.121-0.008,0.244-0.01,0.365-0.018
	c0.07-0.004,0.143-0.006,0.213-0.01c0.074-0.004,0.148-0.01,0.223-0.014c0.121-0.008,0.24-0.01,0.359-0.016
	c0.207-0.01,0.412-0.006,0.619-0.006c0.1,0,0.199,0,0.301,0c0.041,0,0.081,0,0.122-0.001c0.021,0,0.042,0,0.063,0
	c0.016,0,0.032,0.001,0.048,0.001c0.03,0.001,0.06,0.001,0.089,0.002c0.064,0.004,0.129,0.012,0.195,0.014
	c0.053,0.002,0.107,0.002,0.16,0.008c0.094,0.008,0.188,0.018,0.281,0.021c0.107,0.004,0.213,0.008,0.32,0.018
	c0.135,0.01,0.27,0.029,0.404,0.049c-0.012-0.002-0.023-0.004-0.033-0.006c0.039,0.006,0.08,0.012,0.121,0.018
	c-0.012-0.002-0.021-0.004-0.033-0.006c0.086,0.012,0.172,0.018,0.256,0.027c0.064,0.01,0.129,0.023,0.191,0.035
	c0.152,0.033,0.314,0.053,0.443,0.145c0.049,0.033,0.092,0.076,0.115,0.131c0.012,0.025,0.023,0.051,0.031,0.078
	s0.012,0.053,0.016,0.08C14.544,20.444,14.517,20.558,14.439,20.64z M15.559,15.741c-0.205,0.635-0.422,1.266-0.619,1.902
	c-0.093,0.301-0.183,0.604-0.279,0.904c-0.075-0.004-0.15-0.009-0.232,0.014c-0.057,0.014-0.109,0.035-0.158,0.062
	c-0.455-0.072-0.913-0.116-1.373-0.152c-0.051-0.14-0.107-0.279-0.166-0.416c-0.092-0.213-0.193-0.412-0.318-0.607
	c-0.121-0.193-0.252-0.379-0.371-0.572c-0.189-0.305-0.402-0.596-0.66-0.846c-0.205-0.201-0.434-0.383-0.67-0.545
	c-0.18-0.125-0.363-0.24-0.557-0.34c-0.213-0.111-0.438-0.201-0.654-0.305c-0.167-0.08-0.339-0.154-0.516-0.205
	c0.207-0.656,0.44-1.302,0.669-1.949c0.35-0.016,0.7-0.036,1.049-0.07c0.35-0.035,0.691-0.074,1.043-0.068
	c0.641,0.008,1.277,0.008,1.918-0.021c0.972-0.045,1.944-0.047,2.915-0.048c-0.154,0.459-0.314,0.917-0.451,1.381
	C15.942,14.487,15.76,15.116,15.559,15.741z M23.059,15.629L23.059,15.629c-0.025,0.01-0.05,0.021-0.074,0.032
	c-0.007,0.003-0.013,0.005-0.02,0.008C22.996,15.656,23.027,15.642,23.059,15.629z M29.349,20.162
	c-0.025,0.193-0.045,0.387-0.065,0.582c-0.044,0.231-0.128,0.455-0.217,0.672c-0.174,0.4-0.398,0.777-0.656,1.128
	c-0.285,0.349-0.612,0.651-0.962,0.937c-0.311,0.224-0.658,0.41-1.007,0.566c-0.446,0.179-0.897,0.303-1.371,0.38
	c-0.291,0.029-0.591,0.032-0.882,0.043c-0.415,0.016-0.836,0.008-1.251-0.036c-0.253-0.042-0.511-0.09-0.751-0.179
	c-0.121-0.044-0.242-0.089-0.363-0.134c-0.098-0.049-0.19-0.108-0.28-0.17c-0.353-0.293-0.678-0.629-0.967-0.984
	c-0.179-0.244-0.335-0.502-0.461-0.777c-0.129-0.323-0.239-0.662-0.303-1.004c-0.012-0.226,0.015-0.458,0.045-0.686
	c0.043-0.305,0.124-0.604,0.191-0.906c0.08-0.358,0.167-0.714,0.287-1.062c0.162-0.355,0.359-0.697,0.59-1.011
	c0.221-0.268,0.464-0.511,0.707-0.76c0.232-0.237,0.426-0.497,0.676-0.713c0.217-0.153,0.461-0.283,0.703-0.396
	c0.015-0.006,0.032-0.009,0.047-0.014c0.139,0.65,0.286,1.298,0.399,1.952c0.045,0.264,0.105,0.521,0.172,0.781
	c0.068,0.273,0.105,0.555,0.156,0.834c0.043,0.246,0.086,0.492,0.143,0.737c0.043,0.184,0.086,0.367,0.125,0.553
	c0.023,0.107,0.033,0.217,0.061,0.324c0.113,0.469,0.635,0.744,1.09,0.619c0.221-0.061,0.414-0.209,0.529-0.408
	c0.08-0.137,0.121-0.287,0.121-0.447c0-0.126-0.026-0.247-0.077-0.362c-0.177-0.537-0.258-1.097-0.341-1.654
	c-0.088-0.605-0.213-1.199-0.326-1.799c-0.085-0.444-0.179-0.886-0.27-1.328c0.099,0.007,0.198,0.013,0.296,0.021
	c0.004,0.001,0.008,0.002,0.012,0.003c0.268,0.066,0.529,0.152,0.793,0.232c0.198,0.059,0.395,0.115,0.587,0.187
	c0.252,0.133,0.499,0.278,0.73,0.445c0.238,0.197,0.46,0.413,0.695,0.612c0.314,0.271,0.607,0.549,0.875,0.864
	c0.072,0.105,0.136,0.216,0.19,0.332c0.061,0.159,0.115,0.32,0.167,0.48c0.081,0.253,0.162,0.501,0.213,0.76
	C29.412,19.637,29.381,19.902,29.349,20.162z M9.188,19.826c0.002,0,0.003,0,0.005-0.001h0.002
	C9.192,19.826,9.19,19.826,9.188,19.826z M9.112,19.837c0.003,0,0.007-0.001,0.011-0.001h0.002
	C9.12,19.835,9.116,19.836,9.112,19.837z"/>
</svg>