<?xml version="1.0" encoding="utf-8"?>
<!-- Generator: Adobe Illustrator 21.1.0, SVG Export Plug-In . SVG Version: 6.00 Build 0)  -->
<svg version="1.1" id="designs" xmlns="http://www.w3.org/2000/svg" xmlns:xlink="http://www.w3.org/1999/xlink" x="0px" y="0px"
	 width="32px" height="32px" viewBox="0 0 32 32" style="enable-background:new 0 0 32 32;" xml:space="preserve">
<style type="text/css">
	.sketchy_een{fill:#111918;}
</style>
<path class="sketchy_een" d="M29.9,13.158c-0.08-0.366-0.232-0.71-0.381-1.054c-0.128-0.303-0.254-0.607-0.388-0.909
	c-0.167-0.369-0.415-0.684-0.674-0.995c-0.538-0.648-1.33-1.048-2.143-1.245c-0.541-0.132-1.106-0.17-1.665-0.17
	c-0.165,0-0.33,0.003-0.494,0.009c-0.417,0.015-0.834,0.074-1.243,0.148c-0.093,0.017-0.182,0.055-0.273,0.086
	c-0.013-0.075-0.023-0.15-0.037-0.224c-0.07-0.39-0.136-0.777-0.258-1.156c-0.125-0.392-0.248-0.788-0.4-1.173
	c-0.172-0.438-0.368-0.866-0.551-1.298c-0.099-0.235-0.207-0.453-0.36-0.661c-0.157-0.214-0.331-0.407-0.517-0.595
	c-0.301-0.305-0.619-0.599-0.936-0.887c-0.629-0.57-1.279-1.123-2.048-1.495c-0.436-0.21-0.898-0.366-1.373-0.449
	C15.869,1.041,15.581,1,15.287,1c-0.05,0-0.099,0.001-0.149,0.004c-0.284,0.017-0.57,0.066-0.851,0.119
	c-0.375,0.074-0.737,0.201-1.095,0.337c-0.424,0.163-0.856,0.377-1.226,0.646c-0.366,0.263-0.686,0.587-1.023,0.883
	C10.61,3.281,10.36,3.66,10.131,4.035C9.756,4.649,9.556,5.353,9.443,6.061C9.325,6.047,9.207,6.033,9.091,6.028
	C8.725,6.01,8.373,6.033,8.015,6.117C7.649,6.204,7.314,6.389,6.988,6.569C6.63,6.768,6.287,7.001,6.02,7.316
	c-0.28,0.33-0.472,0.699-0.61,1.11C5.302,8.748,5.253,9.072,5.221,9.411c-0.032,0.337-0.044,0.674-0.038,1.012
	c0.001,0.077,0.005,0.154,0.013,0.231c-0.236,0.051-0.46,0.138-0.681,0.233c-0.457,0.195-0.82,0.542-1.169,0.888
	c-0.311,0.309-0.612,0.64-0.798,1.04c-0.191,0.409-0.33,0.813-0.402,1.258c-0.074,0.44-0.131,0.881-0.129,1.326
	c0,0.614,0.161,1.218,0.565,1.694c0.358,0.424,0.842,0.724,1.33,0.985c0.132,0.288,0.42,0.502,0.751,0.493
	c0.906-0.023,1.805-0.095,2.711-0.102c0.873-0.008,1.745-0.011,2.618-0.032c0.264-0.007,0.529-0.003,0.793-0.005
	c-0.032,0.088-0.069,0.175-0.101,0.263c-0.125,0.354-0.229,0.714-0.349,1.07c-0.263,0.781-0.551,1.555-0.832,2.33
	c-0.256,0.703-0.496,1.411-0.741,2.118c-0.121,0.352-0.248,0.701-0.352,1.059c-0.066,0.22-0.123,0.438-0.144,0.669
	c-0.025,0.261,0.061,0.553,0.252,0.741c0.269,0.267,0.642,0.335,1.004,0.242c0.479-0.125,0.93-0.345,1.368-0.572
	c0.363-0.191,0.738-0.363,1.114-0.529c0.038-0.016,0.075-0.032,0.113-0.049c-0.037,0.15-0.076,0.3-0.115,0.448
	c-0.121,0.458-0.235,0.917-0.354,1.373c-0.114,0.426-0.25,0.847-0.375,1.271c-0.064,0.214-0.121,0.428-0.172,0.646
	c-0.083,0.364-0.22,0.782-0.009,1.125c0.127,0.206,0.375,0.381,0.631,0.36c0.157-0.011,0.278-0.028,0.421-0.102
	c0.133-0.068,0.242-0.159,0.358-0.252c0.114-0.091,0.218-0.195,0.318-0.297c0.172-0.174,0.347-0.343,0.525-0.51
	c0.349-0.332,0.68-0.674,1.004-1.029c0.333-0.366,0.676-0.72,0.996-1.099c0.326-0.382,0.631-0.782,0.934-1.181
	c0.459-0.582,0.957-1.131,1.434-1.696c0.525-0.623,1.059-1.235,1.546-1.889c0.263-0.35,0.623-0.782,0.582-1.245
	c-0.023-0.269-0.148-0.57-0.404-0.703c-0.195-0.099-0.383-0.136-0.601-0.121c-0.201,0.015-0.4,0.047-0.599,0.07
	c-0.385,0.045-0.773,0.066-1.159,0.106c-0.065,0.007-0.13,0.013-0.195,0.02c0.182-0.258,0.369-0.512,0.561-0.763
	c0.252-0.328,0.512-0.649,0.777-0.966c0.221-0.264,0.433-0.547,0.624-0.839c0.554,0.006,1.108,0.012,1.662,0.016
	c0.877,0.008,1.754,0.006,2.631,0.002c0.405-0.002,0.813-0.042,1.216-0.076c0.367-0.028,0.737-0.038,1.104-0.078
	c0.26-0.029,0.517-0.072,0.775-0.112c0.5-0.053,1.027-0.048,1.498-0.227c0.328-0.123,0.606-0.301,0.87-0.53
	c0.296-0.254,0.542-0.591,0.769-0.906c0.218-0.301,0.369-0.669,0.443-1.032c0.081-0.386,0.102-0.788,0.144-1.18
	C30.003,13.965,29.99,13.569,29.9,13.158z M14.816,22.028c0.036,0.136,0.129,0.288,0.235,0.381c0.22,0.191,0.476,0.256,0.763,0.246
	c0.11-0.004,0.218-0.013,0.328-0.025c0.287-0.025,0.573-0.064,0.859-0.104c0.25-0.031,0.499-0.059,0.749-0.085
	c-0.43,0.534-0.874,1.055-1.305,1.589c-0.275,0.339-0.559,0.672-0.839,1.008c-0.301,0.357-0.577,0.734-0.856,1.108
	c-0.488,0.619-1.02,1.196-1.548,1.781c-0.071,0.078-0.142,0.155-0.214,0.231c0.097-0.329,0.189-0.66,0.277-0.993
	c0.14-0.54,0.275-1.084,0.405-1.629c0.053-0.225,0.091-0.453,0.106-0.684c0.011-0.17-0.062-0.375-0.152-0.513
	c-0.066-0.114-0.155-0.203-0.269-0.269c-0.015-0.008-0.03-0.015-0.047-0.023c-0.116-0.068-0.242-0.102-0.379-0.102
	c-0.22-0.027-0.434,0.051-0.635,0.133c-0.148,0.059-0.292,0.122-0.438,0.185c-0.401,0.167-0.802,0.331-1.197,0.507
	c-0.161,0.071-0.32,0.147-0.478,0.223c0.082-0.242,0.166-0.482,0.245-0.725c0.224-0.69,0.445-1.383,0.686-2.069
	c0.246-0.707,0.508-1.409,0.76-2.114c0.116-0.326,0.222-0.657,0.345-0.981c0.086-0.23,0.182-0.456,0.274-0.683
	c0.046,0,0.093-0.001,0.139-0.001c0.453-0.004,0.906,0,1.358,0c0.43,0,0.854,0.028,1.284,0.047c0.574,0.026,1.15,0.029,1.726,0.028
	c-0.205,0.255-0.412,0.508-0.607,0.772c-0.292,0.394-0.583,0.792-0.868,1.192c-0.144,0.203-0.288,0.405-0.434,0.606
	c-0.032,0.044-0.062,0.089-0.095,0.133c-0.064,0.091-0.165,0.256-0.18,0.362C14.789,21.731,14.772,21.856,14.816,22.028z
	 M17.452,20.295c-0.007,0.009-0.014,0.018-0.021,0.028c-0.019,0.025-0.039,0.05-0.058,0.075
	C17.399,20.363,17.426,20.329,17.452,20.295z M27.98,15.151c-0.024,0.124-0.056,0.244-0.096,0.364
	c-0.094,0.178-0.209,0.343-0.33,0.506c-0.072,0.089-0.146,0.175-0.23,0.253c-0.06,0.041-0.121,0.08-0.184,0.115
	c-0.098,0.031-0.198,0.053-0.3,0.07c-0.293,0.036-0.585,0.07-0.878,0.111c-0.182,0.025-0.364,0.05-0.547,0.074
	c-1.606,0.198-3.233,0.241-4.849,0.211c-0.885-0.015-1.771-0.017-2.656-0.021c-0.866-0.006-1.733,0.006-2.599-0.044
	c-0.629-0.034-1.256-0.032-1.885-0.028c-0.242,0-0.485,0.002-0.726,0c-0.447,0-0.892,0.004-1.339,0.009
	c-0.447,0.004-0.892,0.01-1.339,0.008c-0.856,0-1.713,0.045-2.569,0.057c-0.786,0.01-1.571,0.047-2.357,0.065
	c-0.133-0.064-0.264-0.131-0.391-0.208c-0.17-0.103-0.35-0.194-0.515-0.308c-0.136-0.111-0.267-0.225-0.385-0.355
	c-0.029-0.046-0.056-0.093-0.081-0.141c-0.031-0.088-0.056-0.177-0.074-0.268c-0.024-0.322-0.003-0.647,0.034-0.968
	c0.057-0.362,0.132-0.714,0.258-1.058c0.067-0.141,0.143-0.276,0.232-0.405c0.247-0.305,0.521-0.587,0.825-0.838
	c0.064-0.04,0.129-0.076,0.195-0.109c0.15-0.052,0.302-0.091,0.459-0.121c0.006,0,0.011-0.001,0.017-0.001
	c0.123,0.057,0.248,0.1,0.395,0.098c0.383-0.006,0.697-0.271,0.798-0.635c0.078-0.283-0.018-0.579-0.072-0.865
	C6.753,10.303,6.765,9.882,6.81,9.469C6.85,9.225,6.915,8.99,7,8.76c0.054-0.106,0.115-0.207,0.183-0.305
	c0.07-0.08,0.143-0.155,0.221-0.227c0.247-0.169,0.519-0.299,0.792-0.423c0.141-0.049,0.285-0.084,0.432-0.111
	c0.377-0.03,0.751,0.012,1.125,0.054c0.087,0.011,0.174,0.011,0.261,0.006c0.1-0.008,0.227-0.025,0.332-0.051
	c0.174-0.042,0.313-0.146,0.445-0.261c0.252-0.221,0.281-0.562,0.315-0.873c0.032-0.216,0.071-0.432,0.121-0.644
	c0.061-0.245,0.148-0.485,0.24-0.722c0.104-0.22,0.228-0.429,0.369-0.627c0.306-0.359,0.672-0.66,1.043-0.952
	c0.261-0.184,0.543-0.328,0.833-0.458c0.379-0.136,0.758-0.246,1.153-0.319c0.241-0.025,0.478-0.035,0.72-0.016
	c0.307,0.065,0.606,0.145,0.9,0.256c0.31,0.149,0.598,0.328,0.875,0.533c0.374,0.298,0.732,0.622,1.08,0.952
	c0.373,0.356,0.768,0.697,1.104,1.092c0.176,0.271,0.3,0.577,0.434,0.871c0.092,0.202,0.184,0.403,0.273,0.605
	c0.169,0.423,0.332,0.851,0.471,1.283c0.138,0.42,0.21,0.862,0.275,1.299c0.025,0.219,0.047,0.437,0.061,0.657
	c0.032,0.479,0.377,0.879,0.881,0.879c0.095,0,0.188-0.026,0.279-0.059c0.017,0.001,0.031,0.01,0.048,0.01
	c0.247,0,0.444-0.092,0.628-0.239c0.04-0.025,0.08-0.047,0.122-0.069c0.15-0.054,0.301-0.098,0.458-0.128
	c0.599-0.062,1.196-0.052,1.795,0.014c0.308,0.054,0.608,0.126,0.901,0.233c0.195,0.097,0.383,0.201,0.564,0.322
	c0.118,0.106,0.226,0.221,0.33,0.341c0.239,0.341,0.416,0.709,0.58,1.09c0.145,0.348,0.286,0.7,0.359,1.07
	c0.016,0.216,0.01,0.433,0.007,0.648C28.009,14.711,27.999,14.931,27.98,15.151z M26.104,16.549
	c-0.048,0.006-0.095,0.013-0.143,0.019c-0.029,0.004-0.058,0.007-0.086,0.011C25.953,16.57,26.028,16.559,26.104,16.549z
	 M19.806,10.635c0.15,0.453-0.169,0.951-0.608,1.072c-0.453,0.125-0.951-0.15-1.072-0.608c-0.203-0.778-0.365-1.578-0.66-2.329
	c-0.216-0.476-0.478-0.918-0.786-1.342c-0.194-0.24-0.394-0.475-0.59-0.714c-0.152-0.182-0.252-0.362-0.252-0.608
	c0-0.227,0.091-0.449,0.252-0.61c0.161-0.161,0.383-0.252,0.61-0.252c0.206,0,0.474,0.083,0.608,0.252
	c0.633,0.78,1.243,1.559,1.659,2.48c0.203,0.447,0.354,0.909,0.487,1.381C19.571,9.783,19.667,10.216,19.806,10.635z"/>
</svg>