<?xml version="1.0" encoding="utf-8"?>
<!-- Generator: Adobe Illustrator 21.1.0, SVG Export Plug-In . SVG Version: 6.00 Build 0)  -->
<svg version="1.1" id="designs" xmlns="http://www.w3.org/2000/svg" xmlns:xlink="http://www.w3.org/1999/xlink" x="0px" y="0px"
	 width="32px" height="32px" viewBox="0 0 32 32" style="enable-background:new 0 0 32 32;" xml:space="preserve">
<style type="text/css">
	.sketchy_een{fill:#111918;}
</style>
<path class="sketchy_een" d="M28.966,17.178c-0.023-1.398-0.054-2.796-0.054-4.196c0-1.487-0.01-2.972-0.062-4.459
	c-0.016-0.44-0.354-0.806-0.805-0.806c-0.037,0-0.07,0.017-0.106,0.022c-0.102-0.053-0.213-0.087-0.334-0.082
	c-0.382,0.019-0.758-0.001-1.137-0.028c-0.027-0.162-0.1-0.309-0.22-0.419c-0.134-0.2-0.347-0.348-0.597-0.348
	c-0.007,0-0.015,0-0.022,0c-0.583,0.019-1.168,0.037-1.75,0.06c-0.411,0.017-0.823,0.012-1.233,0.008
	c-0.24-0.004-0.482-0.006-0.722-0.006c-0.108,0-0.211,0.025-0.306,0.067c-0.366,0.048-0.696,0.362-0.676,0.746
	c0,0.005,0,0.009,0.001,0.014c-0.188,0.002-0.376,0.002-0.564,0.004c-0.041-0.8-0.034-1.602-0.059-2.404
	c0.039-0.063,0.08-0.126,0.1-0.198c0.054-0.203,0.027-0.422-0.079-0.602c-0.07-0.118-0.163-0.211-0.281-0.281
	c-0.12-0.07-0.252-0.107-0.393-0.107c-0.075-0.007-0.151-0.01-0.227-0.01c-0.173,0-0.348,0.014-0.519,0.017
	c-0.304,0.008-0.608,0.008-0.912,0.016c-0.591,0.012-1.181,0.017-1.772,0.023c-0.625,0.006-1.249,0.023-1.874,0.033
	c-0.687,0.012-1.375,0.008-2.062,0.006c-0.354,0-0.642,0.267-0.707,0.604c-0.042,0.095-0.066,0.2-0.065,0.309
	c0.006,0.554,0.012,1.108,0.021,1.661c0.006,0.343,0,0.684-0.003,1.026c-0.138,0-0.276,0-0.414,0.001
	c-0.003-0.117,0.001-0.234-0.004-0.35c-0.017-0.43-0.343-0.788-0.786-0.788c-0.121,0-0.236,0.037-0.344,0.092
	C9.496,6.845,8.997,6.887,8.498,6.897C7.82,6.913,7.139,6.872,6.461,6.839c-0.159-0.008-0.3,0.053-0.426,0.138
	c-0.283,0.113-0.482,0.389-0.49,0.71c-0.003,0.18-0.002,0.36-0.004,0.54c-0.428,0.026-0.857,0.05-1.283,0.082
	C4.049,8.322,3.865,8.38,3.714,8.533c-0.01,0.01-0.014,0.024-0.023,0.035C3.303,8.654,3.002,8.989,3,9.398
	c-0.004,1.779,0.052,3.557,0.079,5.335c0.027,1.642-0.019,3.288,0.068,4.928c0.035,0.614,0.072,1.228,0.089,1.841
	c0.015,0.598,0.017,1.199,0.029,1.797c0.021,1.16,0.058,2.326,0.021,3.485c-0.006,0.196,0.077,0.371,0.201,0.51
	c0.122,0.305,0.421,0.505,0.768,0.527c0.819,0.052,1.64,0.002,2.461-0.012c0.817-0.015,1.634-0.012,2.449-0.013
	c0.236,0,0.473,0,0.709,0c0.591,0.002,1.183,0.004,1.774-0.012c0.794-0.017,1.588-0.056,2.382-0.062
	c0.538-0.004,1.079-0.002,1.619-0.002c1.1,0.004,2.202,0.006,3.302-0.041c0.819-0.035,1.64-0.062,2.459-0.076
	c0.79-0.014,1.582-0.01,2.372-0.045c1.34-0.06,2.682-0.041,4.018-0.147c0.227-0.019,0.422-0.079,0.589-0.244
	c0.083-0.083,0.143-0.185,0.184-0.293c0.186-0.137,0.314-0.348,0.321-0.595c0.023-0.749,0.083-1.495,0.097-2.244
	c0.014-0.742,0.006-1.487,0.01-2.229C29.004,20.264,28.991,18.721,28.966,17.178z M23.849,8.421
	c0.296-0.014,0.593-0.027,0.889-0.035c0.074-0.001,0.149,0,0.223,0c-0.011,0.645-0.022,1.291-0.037,1.935
	c-0.015,0.581,0.001,1.165,0.03,1.747c-0.071,0.002-0.142,0.004-0.212,0.005c-0.267,0.006-0.533,0.017-0.8,0.037
	c-0.456,0.03-0.911,0.023-1.367,0.013c-0.033-0.58-0.04-1.163-0.052-1.744c-0.011-0.64-0.023-1.279-0.038-1.919
	C22.941,8.451,23.395,8.443,23.849,8.421z M16.123,5.631c0.594,0.002,1.189,0.008,1.781,0.019c0.295,0.006,0.592,0.008,0.888,0.014
	c0.015,0.282,0.031,0.564,0.046,0.845c0.022,0.418,0.046,0.837,0.044,1.256c-0.726,0.006-1.452,0.016-2.178,0.016
	c-0.755,0-1.512,0.004-2.267,0.021c-0.456,0.009-0.911,0.018-1.367,0.028c-0.003-0.335-0.01-0.671-0.001-1.007
	c0.009-0.377,0.014-0.754,0.02-1.131c0.383-0.015,0.766-0.028,1.149-0.04C14.866,5.631,15.494,5.629,16.123,5.631z M8.452,8.456
	c0.381,0.003,0.763-0.03,1.144-0.06c0.009,0.181,0.023,0.362,0.027,0.543c0.008,0.422-0.006,0.844-0.014,1.268
	C9.597,10.873,9.6,11.536,9.61,12.201c-0.424,0.021-0.847,0.044-1.271,0.047c-0.43,0.002-0.861-0.008-1.291-0.016
	c-0.037-0.619-0.051-1.241-0.052-1.859C6.995,9.731,7.022,9.091,7.05,8.451c0.218,0.001,0.436,0.006,0.654,0.005
	C7.952,8.456,8.202,8.454,8.452,8.456z M22.987,25.96c-0.782,0.027-1.563,0.031-2.343,0.044c-0.836,0.017-1.671,0.078-2.506,0.093
	c-1.625,0.031-3.249,0.002-4.874,0.031c-0.815,0.015-1.63,0.048-2.446,0.048c-0.835,0-1.669-0.008-2.504-0.004
	c-0.647,0.004-1.293,0.008-1.942,0.023c-0.502,0.014-1.003,0.011-1.504-0.005c0.011-1.385,0.012-2.77-0.012-4.154
	c-0.014-0.827-0.064-1.652-0.091-2.479c-0.029-0.854-0.014-1.708-0.008-2.564c0.006-1.204,0-2.407-0.027-3.609
	c-0.028-1.194-0.012-2.387,0.002-3.58C4.999,9.78,5.265,9.754,5.531,9.734c0,0.213-0.004,0.426-0.005,0.638
	c-0.002,0.839,0.021,1.683,0.102,2.519c-0.004,0.029-0.018,0.055-0.018,0.085c0,0.411,0.343,0.757,0.753,0.755
	c0.639-0.004,1.276-0.029,1.915-0.031c0.666-0.002,1.33-0.041,1.994-0.044c0.355-0.002,0.645-0.266,0.712-0.605
	c0.052-0.099,0.087-0.207,0.084-0.325c-0.031-1.115,0.028-2.229,0.057-3.344c0.751-0.019,1.502-0.066,2.254-0.093
	c0.747-0.027,1.495-0.021,2.242-0.023c1.464-0.008,2.93,0.012,4.396,0.035c0.33,0.006,0.662,0.007,0.994,0.009
	c0.016,0.341,0.038,0.681,0.047,1.021c0.012,0.391,0.016,0.781,0.021,1.17c0.006,0.383,0.002,0.767,0.047,1.146
	c0.006,0.053,0.021,0.098,0.031,0.147c-0.005,0.035-0.021,0.066-0.021,0.102c0,0.424,0.356,0.786,0.784,0.784
	c1.224-0.012,2.444-0.075,3.669-0.027c0.434,0.019,0.798-0.376,0.798-0.798c0-0.004-0.002-0.007-0.002-0.011
	c0.016-0.061,0.037-0.121,0.032-0.188c-0.066-0.776-0.031-1.553-0.037-2.333c-0.003-0.376,0.017-0.752,0.038-1.128
	c0.28,0.016,0.561,0.01,0.842-0.001c0.056,1.435,0.098,2.868,0.106,4.304c0.008,1.528,0.077,3.057,0.112,4.585
	c0.033,1.404,0.043,2.81,0.048,4.215c0.002,0.666,0.016,1.334-0.006,2c-0.014,0.49-0.054,0.983-0.093,1.474
	c-0.713,0.056-1.426,0.099-2.14,0.106C24.519,25.884,23.754,25.935,22.987,25.96z"/>
</svg>