<?xml version="1.0" encoding="utf-8"?>
<!-- Generator: Adobe Illustrator 21.1.0, SVG Export Plug-In . SVG Version: 6.00 Build 0)  -->
<svg version="1.1" id="designs" xmlns="http://www.w3.org/2000/svg" xmlns:xlink="http://www.w3.org/1999/xlink" x="0px" y="0px"
	 width="32px" height="32px" viewBox="0 0 32 32" style="enable-background:new 0 0 32 32;" xml:space="preserve">
<style type="text/css">
	.sketchy_een{fill:#111918;}
</style>
<path class="sketchy_een" d="M22.939,30c-0.152,0-0.294-0.019-0.423-0.056c-0.268-0.075-0.484-0.19-0.683-0.361
	c-0.192-0.163-0.349-0.375-0.481-0.562c-0.216-0.305-0.338-0.637-0.468-0.988l-0.092-0.245c-0.056-0.123-0.116-0.24-0.184-0.352
	l-0.037-0.038l-0.081-0.01c-0.253,0.367-0.407,0.704-0.531,0.993c-0.123,0.279-0.283,0.605-0.544,0.894
	c-0.173,0.193-0.344,0.329-0.506,0.404c-0.236,0.11-0.491,0.217-0.774,0.217c-0.349,0-0.723-0.148-1.002-0.395
	c-0.134-0.121-0.25-0.273-0.355-0.466c-0.086-0.156-0.171-0.317-0.245-0.479c-0.113-0.248-0.202-0.505-0.293-0.761l-0.136-0.38
	c-0.237,0.221-0.371,0.459-0.505,0.698l-0.154,0.273c-0.185,0.32-0.373,0.648-0.616,0.909c-0.263,0.279-0.568,0.467-0.859,0.529
	c-0.182,0.039-0.361,0.063-0.547,0.074c-0.001,0-0.002,0-0.003,0c-0.22,0-0.42-0.085-0.566-0.147
	c-0.3-0.129-0.557-0.353-0.761-0.666l-0.275-0.442c-0.064-0.099-0.128-0.197-0.184-0.301c-0.147-0.273-0.248-0.567-0.346-0.851
	l-0.073-0.208c-0.219,0.215-0.327,0.45-0.43,0.687c-0.324,0.795-0.65,1.597-1.363,1.865c-0.13,0.049-0.266,0.073-0.415,0.073
	c-0.274,0-0.549-0.084-0.782-0.167c-0.082-0.028-0.401-0.155-0.401-0.155c-0.149-0.057-0.299-0.115-0.432-0.198
	c-0.499-0.313-0.865-0.733-1.057-1.213c-0.114-0.283-0.184-0.58-0.233-0.807c-0.2-0.909-0.294-1.881-0.287-2.974
	c0.008-1.359,0.082-2.737,0.153-4.07l0.071-1.365c0.023-0.471,0.046-0.941,0.078-1.412c0.025-0.342,0.063-0.685,0.101-1.027
	l0.042-0.375l0.091-0.925c0.057-0.594,0.115-1.189,0.186-1.783c0.12-1.001,0.269-1.992,0.444-2.945
	c0.159-0.872,0.346-1.808,0.646-2.748C7.81,7.165,7.983,6.69,8.172,6.25C8.39,5.74,8.591,5.323,8.861,4.946
	c0.311-0.434,0.615-0.861,1.007-1.18c0.409-0.332,0.826-0.629,1.275-0.907c0.736-0.452,1.692-0.735,2.764-0.818
	c0.266-0.021,0.531-0.027,0.797-0.027c0.244,0,0.489,0.006,0.733,0.011c0.322,0.008,0.578,0.014,0.834,0.014
	c0,0,0.253-0.002,0.254-0.002c0.123,0,0.23,0.022,0.333,0.065C17.014,2.034,17.138,2,17.258,2c0.671,0.049,1.287,0.153,1.83,0.244
	c0.237,0.039,0.517,0.094,0.789,0.198c0.225,0.088,0.449,0.186,0.671,0.283l0.114,0.049l0.344,0.135
	c0.274,0.104,0.55,0.21,0.808,0.347c0.108,0.058,0.212,0.121,0.317,0.185l0.217,0.129c0.153,0.088,0.303,0.178,0.448,0.283
	l0.258,0.184c0.272,0.191,0.555,0.388,0.769,0.643c0.318,0.38,0.63,0.769,0.933,1.161c0.516,0.674,0.894,1.529,1.092,2.472
	c0.114,0.541,0.193,0.996,0.211,1.458c0.017,0.434,0.026,0.87,0.028,1.303c0.006,0.841,0.043,1.678,0.08,2.515l0.007,0.142
	c0.025,0.592,0.011,1.184-0.004,1.776c-0.007,0.306-0.015,0.613-0.017,0.919c-0.004,0.939-0.012,1.857-0.06,2.762
	c-0.05,0.879-0.095,1.757-0.112,2.637l-0.012,0.77c-0.009,0.634-0.017,1.268-0.046,1.901l-0.026,0.702
	c-0.023,0.713-0.047,1.45-0.165,2.166c-0.036,0.231-0.105,0.447-0.183,0.665c-0.168,0.466-0.348,0.789-0.586,1.049
	c-0.388,0.424-0.901,0.719-1.482,0.854C23.287,29.977,23.104,30,22.939,30L22.939,30z M20.543,25.602
	c0.279,0,0.549,0.071,0.758,0.199c0.416,0.255,0.729,0.597,0.907,0.987c0.101,0.221,0.186,0.445,0.271,0.67l0.099,0.258
	c0.064,0.13,0.134,0.247,0.215,0.362c0.052,0.062,0.103,0.119,0.155,0.173c0.166-0.007,0.276-0.036,0.386-0.073
	c0.069-0.036,0.127-0.071,0.186-0.109c0.077-0.067,0.146-0.133,0.21-0.203c0.054-0.085,0.098-0.165,0.141-0.248
	c0.054-0.136,0.103-0.269,0.144-0.404c0.046-0.148,0.073-0.303,0.094-0.458c0.055-0.517,0.082-1.035,0.096-1.552
	c0.008-0.289,0.021-0.577,0.033-0.865c0.013-0.289,0.026-0.578,0.033-0.867c0.01-0.388,0.016-0.775,0.023-1.163
	c0.011-0.715,0.022-1.431,0.058-2.146c0.083-1.586,0.132-3.321,0.157-5.463c0.006-0.54-0.024-1.08-0.055-1.619
	c-0.019-0.337-0.037-0.673-0.048-1.01c-0.01-0.303-0.013-0.608-0.016-0.912c-0.006-0.585-0.012-1.19-0.067-1.783
	c-0.099-0.613-0.234-1.145-0.414-1.629c-0.147-0.317-0.32-0.61-0.545-0.928l-0.458-0.57c-0.156-0.201-0.326-0.413-0.537-0.597
	c-0.257-0.191-0.518-0.373-0.79-0.531l-0.258-0.152c-0.179-0.107-0.357-0.214-0.547-0.304c0,0-0.72-0.294-1.03-0.424
	c-0.627-0.259-1.303-0.37-1.889-0.454c-0.178-0.022-0.357-0.039-0.538-0.05c-0.099-0.006-0.197-0.026-0.288-0.06
	c-0.185,0.092-0.345,0.138-0.508,0.139c-0.39,0-0.73-0.02-1.068-0.042c-0.345-0.021-0.688-0.041-1.032-0.041
	c-0.202,0-0.405,0.007-0.607,0.025c-0.517,0.083-0.979,0.2-1.415,0.36c-0.388,0.189-0.775,0.425-1.188,0.722
	c-0.27,0.228-0.516,0.474-0.755,0.755c-0.182,0.252-0.348,0.504-0.504,0.771C9.824,6.589,9.72,6.822,9.618,7.055
	C9.233,8.039,8.957,8.949,8.774,9.838C8.55,10.937,8.388,11.85,8.265,12.71c-0.1,0.775-0.18,1.547-0.252,2.324
	c-0.03,0.345-0.065,0.69-0.098,1.035c-0.059,0.598-0.119,1.196-0.158,1.795c-0.043,0.646-0.075,1.293-0.108,1.939l-0.039,0.77
	c-0.049,0.894-0.07,1.789-0.087,2.682c-0.02,0.98-0.038,1.907,0.067,2.816c0.082,0.571,0.17,1.042,0.33,1.491l0.066,0.109
	c0.06,0.067,0.117,0.124,0.178,0.18c0.084,0.054,0.163,0.098,0.245,0.138c0.125,0.051,0.247,0.099,0.372,0.139
	c0.239-0.32,0.379-0.647,0.514-0.963c0.228-0.535,0.464-1.088,0.907-1.501c0.254-0.237,0.474-0.379,0.714-0.461
	c0.114-0.039,0.235-0.058,0.357-0.058c0.186,0,0.367,0.046,0.523,0.131c0.282,0.154,0.545,0.437,0.781,0.838
	c0.153,0.264,0.249,0.562,0.343,0.85l0.103,0.309c0.082,0.168,0.174,0.321,0.273,0.472l0.254,0.398l0.084-0.092
	c0.197-0.28,0.363-0.577,0.528-0.875c0.282-0.508,0.574-1.032,1.01-1.428c0.264-0.242,0.571-0.378,0.94-0.418
	c0.035-0.004,0.071-0.006,0.105-0.006c0.193,0,0.389,0.057,0.599,0.174c0.17,0.093,0.296,0.255,0.402,0.401
	c0.068,0.091,0.132,0.18,0.183,0.282c0.049,0.098,0.097,0.194,0.141,0.293c0.115,0.249,0.206,0.506,0.298,0.762l0.142,0.391
	c0.059,0.122,0.118,0.238,0.179,0.353c0.185-0.164,0.262-0.34,0.339-0.516c0.064-0.146,0.127-0.292,0.204-0.433
	c0.085-0.16,0.176-0.316,0.277-0.467c0.22-0.337,0.458-0.582,0.751-0.772c0.211-0.14,0.555-0.191,0.785-0.193H20.543z
	 M19.515,13.803c-0.142,0-0.287-0.041-0.418-0.12c-0.27-0.074-0.46-0.219-0.576-0.415c-0.127-0.22-0.126-0.43-0.086-0.678
	c0.04-0.245,0.186-0.503,0.38-0.674c0.065-0.056,0.136-0.105,0.212-0.147c0.061-0.058,0.116-0.1,0.178-0.137
	c0.136-0.08,0.292-0.123,0.452-0.123c0.08,0,0.161,0.011,0.236,0.033c0.222,0.06,0.417,0.21,0.536,0.412
	c0.075,0.128,0.123,0.294,0.128,0.442c0.018,0.112,0.034,0.219,0.046,0.324l-0.032,0.233c-0.019,0.114-0.064,0.227-0.142,0.354
	c-0.187,0.302-0.512,0.483-0.89,0.496H19.515z M13.371,13.571c-0.083,0-0.165-0.011-0.246-0.033
	c-0.111-0.03-0.214-0.082-0.307-0.153c-0.228-0.129-0.407-0.347-0.484-0.588c-0.054-0.171-0.061-0.361-0.021-0.55
	c0.012-0.411,0.274-0.751,0.654-0.855c0.056-0.015,0.113-0.025,0.17-0.029c0.081-0.02,0.153-0.029,0.223-0.029
	c0.26,0.021,0.454,0.053,0.616,0.176c0.133,0.077,0.238,0.182,0.316,0.314c0.062,0.077,0.1,0.158,0.123,0.255
	c0.121,0.32,0.067,0.676-0.146,0.983C14.054,13.376,13.71,13.571,13.371,13.571z"/>
</svg>