<?xml version="1.0" encoding="utf-8"?>
<!-- Generator: Adobe Illustrator 21.1.0, SVG Export Plug-In . SVG Version: 6.00 Build 0)  -->
<svg version="1.1" id="designs" xmlns="http://www.w3.org/2000/svg" xmlns:xlink="http://www.w3.org/1999/xlink" x="0px" y="0px"
	 width="32px" height="32px" viewBox="0 0 32 32" style="enable-background:new 0 0 32 32;" xml:space="preserve">
<style type="text/css">
	.sketchy_een{fill:#111918;}
</style>
<path class="sketchy_een" d="M28.961,13.948c-0.048-0.626-0.123-1.18-0.227-1.692c-0.109-0.538-0.316-1.058-0.523-1.538
	c-0.179-0.413-0.401-0.83-0.677-1.276c-0.279-0.449-0.588-0.92-0.952-1.321c-0.309-0.337-0.678-0.657-1.16-1.008
	c-0.279-0.202-0.586-0.372-0.89-0.54l-0.31-0.174c-0.234-0.133-0.474-0.256-0.714-0.379c-0.165-0.085-0.332-0.17-0.495-0.258
	c-0.526-0.284-1-0.512-1.453-0.697c-0.247-0.102-0.497-0.196-0.747-0.289C20.62,4.702,20.426,4.63,20.155,4.52
	c-0.322-0.14-0.642-0.279-0.975-0.389c-0.328-0.108-0.656-0.213-0.989-0.315c-0.168-0.053-0.333-0.115-0.497-0.178
	c-0.168-0.064-0.337-0.129-0.51-0.182c-0.252-0.077-0.533-0.127-0.872-0.159c-0.093-0.047-0.197-0.072-0.328-0.072
	c-0.003,0-0.005,0-0.007,0c-0.711,0.033-1.34,0.088-1.926,0.168C13.523,3.465,13,3.558,12.478,3.654
	c-0.444,0.084-0.89,0.186-1.324,0.312c-0.565,0.162-1.09,0.395-1.573,0.621C8.615,5.041,7.754,5.606,7.023,6.269
	C6.678,6.58,6.386,6.972,6.102,7.352l-0.156,0.21c-0.332,0.44-0.579,0.814-0.777,1.177c-0.236,0.433-0.459,0.872-0.662,1.32
	c-0.21,0.455-0.377,0.94-0.539,1.41l-0.064,0.186c-0.171,0.492-0.305,0.908-0.402,1.342c-0.093,0.421-0.16,0.846-0.227,1.272
	l-0.037,0.239C3.068,15.557,2.992,16.565,3,17.59c0.004,0.467,0.052,0.941,0.1,1.407C3.146,19.431,3.22,20,3.386,20.551
	c0.314,1.038,0.778,1.965,1.382,2.756c0.309,0.405,0.658,0.864,1.05,1.27c0.339,0.349,0.68,0.694,1.033,1.027
	c0.623,0.59,1.437,1.099,2.489,1.554c0.933,0.405,1.897,0.825,2.896,1.066c0.572,0.136,1.162,0.193,1.666,0.231
	c0.454,0.035,0.904,0.08,1.356,0.136l0.105,0.015c0.41,0.058,0.822,0.115,1.236,0.149c0.171,0.013,0.341,0.02,0.51,0.02h0.001
	c0.421,0,0.822-0.042,1.224-0.127c0.858-0.184,1.673-0.58,2.46-0.962l0.172-0.083c0.382-0.185,0.762-0.368,1.132-0.583
	c0.479-0.277,0.836-0.508,1.152-0.749c0.828-0.627,1.578-1.366,2.291-2.262c1.413-1.768,2.387-3.599,2.89-5.44
	c0.123-0.456,0.212-0.924,0.293-1.389c0.091-0.525,0.191-1.147,0.248-1.78C29.022,14.875,28.993,14.349,28.961,13.948z
	 M17.284,5.476c0.122,0.048,0.245,0.096,0.371,0.137l0.43,0.137c0.33,0.103,0.659,0.206,0.987,0.334
	c0.343,0.153,0.689,0.301,1.037,0.448l0.827,0.328c0.44,0.198,0.864,0.422,1.289,0.647l0.534,0.28
	c0.57,0.298,1.159,0.606,1.698,0.987c0.357,0.29,0.632,0.554,0.871,0.835c0.504,0.691,0.898,1.352,1.204,2.025
	c0.103,0.264,0.2,0.532,0.282,0.803c0.087,0.279,0.139,0.566,0.187,0.859c0.034,0.299,0.054,0.599,0.074,0.899
	c-0.328,0.052-0.656,0.105-0.983,0.163c-0.423,0.075-0.846,0.15-1.272,0.213l0.001,0.003l-0.196,0.026l-1.809,0.23l-0.106,0.015
	c-0.904,0.12-1.975,0.273-3.067,0.492c-0.53,0.108-1.059,0.224-1.586,0.345c-0.463,0.105-0.92,0.236-1.376,0.366l-0.48,0.136
	c-0.135,0.038-0.244,0.118-0.338,0.213c0.003-0.258,0.013-0.521,0.031-0.807c0.027-0.441,0.054-0.884,0.089-1.327
	c0.073-0.935,0.147-1.873,0.225-2.809c0.167-2.055,0.232-4.095,0.274-5.821l0.006-0.401c0.124,0.028,0.249,0.05,0.372,0.089
	C17.004,5.366,17.144,5.421,17.284,5.476z M18.681,26.6v0.011V26.6c-0.381,0.137-0.75,0.235-1.127,0.299
	c-0.144,0.012-0.287,0.017-0.43,0.017c-0.406,0-0.803-0.043-1.138-0.085c-0.473-0.066-0.946-0.125-1.419-0.18
	c-0.215-0.026-0.43-0.043-0.646-0.062c-0.11-0.009-0.335-0.019-0.335-0.019l-0.124-0.019l0.003-0.003
	c-0.028-0.003-0.054-0.006-0.082-0.009c-0.816-0.13-1.632-0.369-2.568-0.752l-0.094-0.041c-0.691-0.299-1.419-0.64-2.115-1.104
	l-0.01,0.009l-0.03-0.024l0.01-0.005c-0.038-0.026-0.076-0.052-0.113-0.078c-0.321-0.265-0.614-0.56-0.908-0.855l-0.259-0.257
	c-0.149-0.145-0.296-0.29-0.434-0.445c-0.16-0.183-0.313-0.371-0.465-0.564c-0.217-0.287-0.421-0.579-0.608-0.889
	c-0.168-0.28-0.311-0.576-0.445-0.88c-0.217-0.577-0.363-1.109-0.447-1.629c-0.089-0.775-0.132-1.42-0.136-2.03
	c-0.007-0.724,0.07-1.437,0.157-2.12c0.098-0.684,0.201-1.392,0.396-2.069c0.178-0.626,0.399-1.275,0.676-1.987
	c0.264-0.596,0.484-1.037,0.715-1.428c0.258-0.433,0.544-0.859,0.881-1.304C7.931,7.665,8.241,7.34,8.57,7.061
	c0.445-0.334,0.797-0.567,1.142-0.755c0.432-0.234,0.871-0.445,1.327-0.644c0.961-0.337,1.963-0.529,2.904-0.688l-0.001-0.004
	l0.048-0.004c0.034-0.005,0.068-0.011,0.101-0.017c0.194-0.029,0.389-0.057,0.584-0.069l0.286,0.017
	c0.011,0.012,0.027,0.016,0.039,0.028c-0.017,0.063-0.04,0.125-0.04,0.193c-0.012,1.117-0.024,2.232-0.054,3.347
	c-0.021,0.848-0.074,1.749-0.167,2.836c-0.078,0.922-0.162,1.843-0.249,2.764l-0.015,0.158c-0.079,0.834-0.159,1.696-0.186,2.545
	c-0.006,0.208,0.014,0.423,0.06,0.64c0.058,0.276,0.213,0.495,0.377,0.727c0.183,0.261,0.344,0.54,0.506,0.817l0.161,0.278
	c0.466,0.791,0.88,1.616,1.264,2.394c0.407,0.827,0.824,1.647,1.244,2.467c0.144,0.282,0.283,0.566,0.423,0.851
	c0.246,0.5,0.495,0.997,0.762,1.484c-0.074,0.033-0.145,0.071-0.219,0.103C18.804,26.554,18.742,26.578,18.681,26.6z M22.273,24.682
	c-0.488,0.357-1.031,0.688-1.642,1.01c-0.004-0.006-0.003-0.014-0.007-0.02c-0.292-0.495-0.552-1.007-0.812-1.52
	c-0.125-0.246-0.249-0.492-0.378-0.736l-0.447-0.847c-0.24-0.451-0.479-0.901-0.71-1.357c-0.387-0.762-0.78-1.515-1.184-2.267
	c-0.01-0.019-0.022-0.038-0.032-0.057c0.18,0.089,0.359,0.177,0.537,0.269c0.562,0.289,1.112,0.605,1.661,0.921l0.613,0.35
	c0.43,0.242,0.869,0.462,1.308,0.682c0.347,0.175,0.695,0.349,1.038,0.534c0.384,0.208,0.764,0.422,1.135,0.648l0.238,0.147
	c0.18,0.113,0.367,0.222,0.558,0.323C23.551,23.508,22.939,24.136,22.273,24.682z M26.686,17.713
	c-0.13,0.539-0.301,1.082-0.524,1.66l0.004,0.003l-0.004-0.003c-0.016,0.039-0.031,0.079-0.046,0.119
	c-0.292,0.658-0.661,1.328-1.089,2.001c-0.241-0.122-0.473-0.264-0.703-0.406l-0.305-0.186c-0.355-0.21-0.719-0.41-1.086-0.601
	L22.146,19.9c-0.528-0.266-1.055-0.532-1.571-0.82c-0.275-0.152-0.547-0.308-0.82-0.464c-0.458-0.261-0.915-0.522-1.382-0.767
	c-0.246-0.13-0.504-0.261-0.77-0.393c0.833-0.228,1.662-0.445,2.498-0.617l0.148-0.031c0.47-0.097,0.943-0.195,1.418-0.264
	c0.476-0.069,0.952-0.139,1.428-0.206l1.294-0.169c0.593-0.082,1.183-0.176,1.773-0.273l0.625-0.11
	c0.083-0.015,0.167-0.027,0.251-0.042c-0.004,0.034-0.006,0.071-0.01,0.105C26.924,16.585,26.815,17.177,26.686,17.713z"/>
</svg>