<?xml version="1.0" encoding="utf-8"?>
<!-- Generator: Adobe Illustrator 21.1.0, SVG Export Plug-In . SVG Version: 6.00 Build 0)  -->
<svg version="1.1" id="designs" xmlns="http://www.w3.org/2000/svg" xmlns:xlink="http://www.w3.org/1999/xlink" x="0px" y="0px"
	 width="32px" height="32px" viewBox="0 0 32 32" style="enable-background:new 0 0 32 32;" xml:space="preserve">
<style type="text/css">
	.sketchy_een{fill:#111918;}
</style>
<path class="sketchy_een" d="M29.817,2.858c0.001-0.013,0.008-0.025,0.008-0.038c0-0.418-0.351-0.819-0.78-0.819
	c-0.012,0-0.024,0-0.036,0.001c-0.375,0.017-0.748,0.05-1.123,0.062c-0.393,0.014-0.787,0.004-1.18,0
	c-0.758-0.006-1.518,0.002-2.276,0.014c-1.605,0.025-3.21,0.041-4.817,0.049c-1.607,0.008-3.212,0.058-4.819,0.049
	c-1.636-0.01-3.272-0.012-4.907-0.021C8.838,2.147,7.788,2.104,6.739,2.102c-1.16-0.004-2.32-0.027-3.48-0.031
	C3.011,2.07,2.799,2.198,2.657,2.384C2.615,2.4,2.572,2.413,2.532,2.436C2.167,2.649,1.982,3.19,2.237,3.559
	c0.523,0.758,1.053,1.51,1.57,2.272C4.293,6.549,4.74,7.298,5.212,8.026c0.441,0.68,0.859,1.374,1.302,2.052
	c0.459,0.705,0.946,1.393,1.448,2.072c0.531,0.717,1.063,1.432,1.584,2.157c0.241,0.334,0.476,0.672,0.715,1.009
	c0.249,0.355,0.515,0.701,0.78,1.045c0.86,1.129,1.669,2.294,2.518,3.431c0.049,0.065,0.101,0.117,0.154,0.168
	c-0.002,1.101,0.019,2.203,0.004,3.304c-0.004,0.466-0.017,0.935-0.029,1.401c-0.006,0.257-0.012,0.511-0.018,0.768
	c-0.002,0.144-0.005,0.286-0.005,0.428c-0.037,0.04-0.074,0.08-0.101,0.126c-0.111,0.19-0.142,0.424-0.082,0.635
	c0.06,0.22,0.196,0.367,0.379,0.494c0.389,0.27,0.781,0.534,1.182,0.789c0.346,0.222,0.709,0.416,1.055,0.637
	c0.338,0.216,0.657,0.459,0.993,0.678c0.348,0.229,0.705,0.443,1.055,0.668c0.365,0.237,0.88,0.078,1.092-0.286
	c0.081-0.14,0.103-0.303,0.09-0.464c0-0.006,0.003-0.01,0.003-0.016c-0.023-0.768-0.006-1.535-0.01-2.303
	c-0.002-0.771-0.023-1.541-0.051-2.311c-0.014-0.387-0.047-0.771-0.056-1.158c-0.01-0.385-0.008-0.77-0.006-1.156
	c0.004-0.816,0.027-1.632,0.041-2.448c0.002-0.041,0.002-0.08,0.002-0.12c0-0.003-0.002-0.005-0.002-0.008
	c0.026-0.03,0.059-0.053,0.081-0.087c0.208-0.323,0.393-0.659,0.597-0.985c0.198-0.321,0.4-0.641,0.599-0.964
	c0.4-0.647,0.801-1.292,1.203-1.937c0.845-1.351,1.702-2.693,2.571-4.03c0.406-0.624,0.838-1.236,1.259-1.852
	c0.443-0.649,0.937-1.261,1.395-1.901c1.003-1.397,1.91-2.857,2.816-4.318C29.901,3.331,29.901,3.08,29.817,2.858z M26.944,5.085
	c-0.21,0.342-0.42,0.686-0.632,1.026c-0.212,0.34-0.449,0.665-0.68,0.989c-0.466,0.657-0.97,1.284-1.424,1.947
	c-0.443,0.643-0.892,1.284-1.316,1.941c-0.838,1.294-1.638,2.616-2.452,3.925c-0.398,0.639-0.777,1.29-1.168,1.934
	c-0.196,0.323-0.391,0.647-0.587,0.97c-0.202,0.328-0.398,0.661-0.63,0.968c-0.05,0.068-0.074,0.159-0.087,0.251
	c-0.17,0.144-0.285,0.352-0.286,0.589c-0.006,0.834,0.019,1.667,0.021,2.499c0.002,0.402-0.002,0.805-0.006,1.207
	c-0.004,0.387,0.019,0.773,0.037,1.16c0.035,0.77,0.033,1.537,0.037,2.309c0.002,0.309-0.002,0.62-0.002,0.93
	c-0.269-0.187-0.533-0.382-0.809-0.558c-0.34-0.22-0.7-0.408-1.038-0.63c-0.225-0.149-0.444-0.306-0.666-0.46
	c-0.002-0.009,0.001-0.017-0.001-0.026c-0.001-0.004-0.002-0.008-0.002-0.012c-0.03-0.465-0.001-0.942,0.004-1.405
	c0.008-0.476,0.016-0.952,0.027-1.428c0.027-1.092,0.049-2.184,0.058-3.276c0.002-0.245-0.117-0.46-0.294-0.611
	c-0.017-0.186-0.096-0.361-0.228-0.508c-0.144-0.162-0.283-0.326-0.417-0.496c-0.381-0.504-0.735-1.026-1.11-1.532
	c-0.22-0.297-0.431-0.6-0.651-0.898c-0.212-0.286-0.432-0.568-0.651-0.851c0.008,0.01,0.015,0.019,0.023,0.029
	c-0.486-0.635-0.94-1.29-1.409-1.937c-0.497-0.692-1.003-1.376-1.504-2.064c-0.494-0.672-0.981-1.349-1.428-2.052
	C7.21,8.277,6.755,7.537,6.281,6.804c-0.428-0.661-0.83-1.339-1.253-2.002C4.769,4.399,4.5,4.004,4.235,3.605
	C5.551,3.591,6.868,3.566,8.183,3.6C8.984,3.622,9.784,3.62,10.585,3.62c0.358,0,0.717,0.002,1.075,0.002
	c0.431,0.002,0.861,0.002,1.292,0c1.658-0.008,3.315,0.027,4.975,0.029c1.584,0,3.169,0.012,4.753,0.029
	c1.053,0.012,2.107,0.029,3.16,0.037c0.645,0.005,1.295,0,1.943-0.019C27.504,4.161,27.225,4.624,26.944,5.085z M22.776,7.888
	c0.303,0.305,0.29,0.787,0,1.094c-0.041,0.042-0.08,0.085-0.118,0.13c-0.582,0.786-1.128,1.596-1.651,2.424
	c-0.624,0.987-1.246,1.976-1.881,2.958c-0.262,0.402-0.779,0.569-1.209,0.317c-0.4-0.233-0.583-0.806-0.319-1.211
	c0.639-0.968,1.306-1.92,1.969-2.872c0.289-0.416,0.575-0.832,0.871-1.242C20.714,9.1,21.011,8.736,21.3,8.365
	c0.123-0.163,0.245-0.327,0.382-0.478c0.14-0.152,0.337-0.225,0.534-0.225C22.422,7.663,22.629,7.741,22.776,7.888z"/>
</svg>