<?xml version="1.0" encoding="utf-8"?>
<!-- Generator: Adobe Illustrator 21.1.0, SVG Export Plug-In . SVG Version: 6.00 Build 0)  -->
<svg version="1.1" id="designs" xmlns="http://www.w3.org/2000/svg" xmlns:xlink="http://www.w3.org/1999/xlink" x="0px" y="0px"
	 width="32px" height="32px" viewBox="0 0 32 32" style="enable-background:new 0 0 32 32;" xml:space="preserve">
<style type="text/css">
	.sketchy_een{fill:#111918;}
</style>
<path class="sketchy_een" d="M5.164,23.916C5.164,23.916,5.165,23.916,5.164,23.916c0.006,0.005,0.012,0.009,0.017,0.013
	C5.176,23.925,5.17,23.92,5.164,23.916z M19.629,14.729c0.022,0.052,0.043,0.105,0.065,0.157c0.003,0.006,0.005,0.013,0.008,0.019
	C19.678,14.847,19.652,14.788,19.629,14.729z M29.956,16.321c-0.039,0.23-0.094,0.456-0.153,0.68
	c-0.044,0.173-0.105,0.34-0.173,0.506c-0.085,0.21-0.167,0.427-0.294,0.616c-0.178,0.268-0.375,0.526-0.633,0.724
	c-0.182,0.142-0.364,0.287-0.557,0.415c-0.344,0.23-0.717,0.388-1.125,0.46c-0.392,0.068-0.792,0.099-1.191,0.064
	c-0.287-0.026-0.579-0.051-0.857-0.129c-0.21-0.059-0.432-0.143-0.623-0.243c-0.267-0.14-0.504-0.333-0.732-0.528
	c-0.138-0.118-0.274-0.237-0.397-0.37c-0.278-0.296-0.511-0.651-0.697-1.011c-0.366-0.71-0.487-1.502-0.645-2.274
	c-0.083-0.404-0.136-0.805-0.118-1.219c0.015-0.335,0.024-0.671,0.039-1.006c0.017-0.388,0.073-0.77,0.147-1.153
	c0.041-0.208,0.075-0.416,0.128-0.62c-0.073-0.103-0.121-0.225-0.144-0.35c-0.105-0.206-0.218-0.413-0.334-0.61
	c-0.085-0.142-0.186-0.27-0.274-0.406c-0.067-0.108-0.135-0.214-0.208-0.317c-0.245-0.297-0.512-0.571-0.814-0.811
	c-0.17-0.134-0.34-0.271-0.516-0.393c-0.191-0.132-0.388-0.248-0.59-0.364c-0.396-0.229-0.792-0.463-1.211-0.648
	c-0.491-0.203-0.994-0.393-1.501-0.551c-0.486-0.152-0.984-0.3-1.488-0.382c-0.355-0.039-0.714-0.053-1.071-0.068
	c-0.011,0.661-0.003,1.322,0.032,1.982c0.329,0.263,0.645,0.54,0.973,0.804c0.469,0.351,0.952,0.684,1.409,1.055
	c0.246,0.2,0.511,0.382,0.732,0.61c0.211,0.217,0.393,0.465,0.585,0.701c0.189,0.233,0.371,0.474,0.559,0.71
	c0.221,0.278,0.443,0.553,0.621,0.86c0.342,0.586,0.598,1.203,0.86,1.829c0.264,0.626,0.507,1.26,0.6,1.937
	c0.101,0.735,0.206,1.491,0.156,2.236c-0.028,0.406-0.053,0.826-0.149,1.223c-0.088,0.368-0.188,0.735-0.324,1.088
	c-0.096,0.246-0.232,0.485-0.392,0.699c-0.142,0.191-0.281,0.39-0.439,0.568c-0.237,0.267-0.496,0.517-0.772,0.745
	c-0.296,0.245-0.609,0.461-0.943,0.649c-0.333,0.186-0.682,0.338-1.019,0.515c-0.041,0.022-0.083,0.041-0.123,0.063
	c0.023,0.071,0.045,0.143,0.041,0.221c-0.031,0.689-0.064,1.381-0.108,2.068c-0.015,0.226-0.113,0.427-0.265,0.571
	c-0.097,0.288-0.364,0.488-0.68,0.501c-0.224,0.009-0.45,0.02-0.675,0.022C13.92,28,13.24,28.004,12.559,27.995
	c-0.335-0.006-0.667-0.007-1-0.029c-0.313-0.022-0.623-0.04-0.936-0.052c-0.636-0.02-1.274-0.011-1.908,0.007
	c-0.518,0.017-1.03-0.055-1.546-0.072c-0.404-0.011-0.741-0.327-0.741-0.741c0-0.005,0.003-0.009,0.003-0.014
	c-0.115-0.132-0.193-0.295-0.181-0.477c0.041-0.628,0.087-1.255,0.122-1.883c-0.425-0.232-0.822-0.522-1.207-0.818
	c-0.001-0.001-0.002-0.001-0.003-0.002c-0.045-0.034-0.089-0.069-0.134-0.103c0.027,0.02,0.054,0.041,0.081,0.062
	c-0.333-0.26-0.653-0.529-0.948-0.834c-0.298-0.307-0.572-0.638-0.82-0.987c-0.226-0.32-0.416-0.666-0.59-1.017
	c-0.18-0.358-0.357-0.73-0.458-1.122c-0.105-0.397-0.147-0.805-0.191-1.213c-0.037-0.344-0.077-0.686-0.096-1.031
	c-0.022-0.43,0.018-0.848,0.088-1.272c0.057-0.34,0.127-0.675,0.226-1.004c0.114-0.373,0.272-0.743,0.441-1.092
	c0.16-0.333,0.333-0.664,0.528-0.976c0.105-0.165,0.215-0.327,0.318-0.495c0.077-0.127,0.147-0.259,0.226-0.386
	c0.19-0.308,0.429-0.57,0.653-0.85c0.275-0.364,0.539-0.735,0.869-1.053c0.322-0.313,0.675-0.609,1.052-0.851
	c0.221-0.143,0.434-0.296,0.655-0.441c0.145-0.096,0.281-0.21,0.434-0.298C7.649,8.864,7.803,8.78,7.965,8.71
	C7.971,8.707,7.976,8.703,7.982,8.7c0.001-0.144,0.001-0.288,0.001-0.431c-0.002-0.397-0.009-0.794,0-1.191
	C8.005,6.165,7.974,5.252,8,4.338c0.004-0.178,0.075-0.336,0.174-0.47C8.217,3.481,8.535,3.2,8.925,3.183
	c0.713-0.029,1.425,0.024,2.138,0.031c0.349,0.002,0.699,0,1.048-0.017c0.296-0.013,0.59-0.029,0.886-0.029
	c0.042,0,0.084,0,0.127,0.001c0.224,0.004,0.418,0.116,0.55,0.28c0.174,0.141,0.293,0.347,0.292,0.584
	c-0.001,0.237-0.007,0.475-0.012,0.712c0.2,0.015,0.399,0.027,0.599,0.051c0.346,0.04,0.693,0.075,1.031,0.16
	c0.518,0.129,1.037,0.272,1.541,0.449c0.358,0.127,0.71,0.268,1.063,0.41c0.37,0.147,0.732,0.292,1.077,0.489
	c0.263,0.149,0.529,0.292,0.787,0.449c0.324,0.197,0.633,0.428,0.928,0.664c0.279,0.224,0.563,0.449,0.813,0.704
	c0.261,0.268,0.506,0.553,0.723,0.86c0.24,0.341,0.483,0.683,0.695,1.044c0.565,0.111,1.137,0.206,1.676,0.41
	c0.211,0.079,0.421,0.169,0.631,0.256c0.222,0.092,0.447,0.18,0.664,0.287c0.399,0.197,0.818,0.371,1.191,0.618
	c0.267,0.175,0.518,0.373,0.759,0.585c0.215,0.186,0.401,0.395,0.583,0.614c0.276,0.333,0.555,0.675,0.783,1.044
	c0.257,0.414,0.381,0.892,0.452,1.372C30.01,15.589,30.021,15.94,29.956,16.321z M11.063,4.668
	c-0.489,0.004-0.977,0.021-1.465,0.037C9.586,4.99,9.574,5.274,9.564,5.558c0.094-0.052,0.196-0.09,0.309-0.09
	c0.359,0,0.658,0.3,0.658,0.658s-0.3,0.658-0.658,0.658c-0.123,0-0.233-0.045-0.333-0.106c0,0.067-0.004,0.133-0.004,0.2
	c0.002,0.359-0.002,0.717-0.004,1.076C9.532,8.053,9.536,8.153,9.534,8.253c0.153-0.004,0.307-0.005,0.459-0.016
	c0.265-0.018,0.526-0.052,0.791-0.061c0.556-0.016,1.11-0.045,1.665-0.064c-0.002-0.066-0.003-0.133-0.004-0.2
	c-0.007-0.384,0.007-0.772,0.009-1.156c0.004-0.71-0.006-1.42-0.013-2.129C11.981,4.645,11.523,4.666,11.063,4.668z M14.306,10.515
	c-0.375-0.274-0.734-0.571-1.1-0.857c-0.034-0.026-0.069-0.052-0.103-0.078c-0.041-0.007-0.083-0.012-0.121-0.025
	c-0.1,0.048-0.209,0.081-0.326,0.083c-0.638,0.011-1.274,0.007-1.912,0.004c-0.235,0-0.469,0.013-0.704,0.026
	C9.844,9.678,9.65,9.683,9.455,9.685c-0.108,0.15-0.256,0.272-0.429,0.319c-0.076,0.021-0.156,0.018-0.234,0.016
	c-0.047,0.021-0.094,0.045-0.141,0.067c-0.171,0.081-0.349,0.169-0.507,0.276c-0.199,0.136-0.403,0.261-0.605,0.392
	c-0.211,0.134-0.428,0.267-0.629,0.416c0.051-0.039,0.103-0.079,0.153-0.118c-0.228,0.178-0.478,0.349-0.684,0.555
	c-0.11,0.11-0.208,0.23-0.313,0.346c-0.1,0.11-0.208,0.214-0.303,0.328c-0.094,0.128-0.186,0.258-0.286,0.382
	c-0.089,0.11-0.188,0.212-0.281,0.319c-0.1,0.142-0.186,0.289-0.275,0.438c-0.118,0.2-0.246,0.393-0.371,0.59
	c-0.236,0.369-0.445,0.76-0.621,1.162c-0.101,0.25-0.198,0.5-0.272,0.76c-0.077,0.268-0.13,0.537-0.173,0.809
	c-0.024,0.18-0.049,0.362-0.046,0.542c0.004,0.219,0.026,0.436,0.046,0.653c0.034,0.393,0.085,0.786,0.135,1.178
	c0.023,0.16,0.05,0.32,0.095,0.477c0.044,0.152,0.1,0.301,0.158,0.448c0.202,0.466,0.449,0.91,0.746,1.322
	c0.306,0.38,0.646,0.723,1.024,1.033c0.31,0.232,0.63,0.447,0.948,0.67c0.316,0.222,0.656,0.405,1.009,0.563
	c0.385,0.147,0.779,0.276,1.164,0.424c0.202,0.079,0.366,0.177,0.48,0.371c0.108,0.186,0.138,0.412,0.081,0.62
	c-0.055,0.2-0.189,0.375-0.37,0.48c-0.169,0.099-0.43,0.158-0.62,0.081c-0.172-0.069-0.343-0.139-0.515-0.209
	c-0.011,0.347-0.019,0.693-0.037,1.04c0.007,0.001,0.015,0.001,0.022,0.002c0.534,0.064,1.068,0.066,1.604,0.075
	c0.627,0.011,1.252,0.022,1.877,0.059c0.588,0.033,1.175,0.055,1.763,0.037c0.55-0.016,1.1-0.042,1.65-0.068
	c0.039-0.462,0.08-0.923,0.117-1.386c-0.155,0.017-0.311,0.027-0.468,0.041c-0.445,0.073-0.879,0.197-1.327,0.252
	c-0.2,0.024-0.401,0.022-0.601,0.02c-0.19-0.002-0.379-0.003-0.567,0.016c-0.232,0.033-0.466,0.065-0.7,0.062
	c-0.419-0.004-0.769-0.346-0.769-0.769c0-0.439,0.351-0.739,0.769-0.768c0.158-0.011,0.313-0.028,0.469-0.047
	c0.243-0.031,0.483-0.055,0.73-0.051c0.207,0.005,0.416,0.013,0.623-0.004c0.289-0.05,0.574-0.123,0.864-0.169
	c0.295-0.046,0.59-0.065,0.888-0.096c0.145-0.03,0.282-0.074,0.418-0.127c0.388-0.179,0.763-0.389,1.144-0.579
	c0.353-0.174,0.7-0.378,1.02-0.609c0.339-0.275,0.645-0.594,0.922-0.93c0.139-0.186,0.279-0.379,0.381-0.588
	c0.07-0.192,0.124-0.389,0.177-0.586c0.059-0.213,0.114-0.425,0.151-0.643c0.081-0.749,0.047-1.494-0.039-2.242
	c-0.028-0.193-0.058-0.384-0.106-0.574c-0.053-0.208-0.118-0.412-0.184-0.618c-0.123-0.383-0.285-0.754-0.44-1.125
	c-0.248-0.577-0.529-1.133-0.9-1.642c-0.245-0.31-0.484-0.624-0.733-0.932c-0.142-0.173-0.287-0.344-0.439-0.509
	c-0.129-0.142-0.267-0.263-0.415-0.381c-0.116-0.089-0.232-0.179-0.347-0.268c0.005,0.004,0.01,0.007,0.014,0.011
	C15.005,11.032,14.659,10.771,14.306,10.515z M14.587,23.661c0.034-0.005,0.068-0.009,0.103-0.014c0.003,0,0.005-0.001,0.008-0.001
	C14.661,23.651,14.624,23.656,14.587,23.661z M28.424,16.036c0.01-0.148,0.006-0.294-0.007-0.441
	c-0.044-0.256-0.107-0.516-0.19-0.764c-0.108-0.198-0.242-0.379-0.376-0.56c-0.173-0.215-0.353-0.423-0.54-0.625
	c-0.177-0.193-0.378-0.361-0.58-0.525c-0.25-0.181-0.516-0.332-0.795-0.468c-0.268-0.13-0.537-0.263-0.813-0.379
	c0.004,0.002,0.008,0.003,0.012,0.005c-0.057-0.024-0.115-0.049-0.172-0.073c0.026,0.011,0.052,0.022,0.079,0.033
	c0.033,0.014,0.066,0.028,0.099,0.042c0.059,0.025,0.119,0.05,0.177,0.074c-0.091-0.039-0.184-0.077-0.276-0.116
	c-0.225-0.098-0.447-0.202-0.671-0.304c-0.259-0.098-0.526-0.165-0.797-0.219c-0.03,0.121-0.055,0.244-0.078,0.368
	c-0.045,0.242-0.094,0.483-0.132,0.727c-0.028,0.298-0.021,0.598-0.033,0.897c-0.01,0.303-0.044,0.603-0.016,0.905
	c0.055,0.343,0.135,0.683,0.204,1.021c0.063,0.317,0.157,0.636,0.271,0.94c0.132,0.258,0.289,0.5,0.457,0.735
	c0.146,0.163,0.311,0.303,0.481,0.439c0.132,0.097,0.264,0.189,0.41,0.263c0.172,0.063,0.343,0.113,0.523,0.145
	c0.291,0.027,0.581,0.03,0.871,0.008c0.184-0.033,0.363-0.079,0.54-0.141c0.193-0.099,0.374-0.221,0.549-0.349
	c0.103-0.088,0.202-0.178,0.294-0.279c0.1-0.142,0.186-0.289,0.262-0.447C28.288,16.653,28.37,16.349,28.424,16.036z M13.074,22.001
	c0.055,0.202,0.191,0.377,0.371,0.482c0.125,0.074,0.261,0.11,0.406,0.11c0.145,0,0.281-0.037,0.408-0.11
	c0.065-0.028,0.132-0.058,0.199-0.086c0.281-0.116,0.564-0.231,0.838-0.366c0.241-0.118,0.48-0.267,0.701-0.419
	c0.263-0.182,0.52-0.388,0.745-0.618c0.215-0.219,0.373-0.474,0.509-0.746c0.132-0.261,0.234-0.537,0.324-0.815
	c0.088-0.267,0.105-0.552,0.125-0.829c0.05-0.666-0.033-1.339-0.151-1.993c-0.031-0.178-0.184-0.349-0.336-0.438
	c-0.111-0.066-0.239-0.099-0.368-0.099c-0.065,0-0.131,0.009-0.194,0.026c-0.182,0.05-0.342,0.173-0.438,0.336
	c-0.105,0.18-0.11,0.364-0.074,0.563c0.027,0.148,0.057,0.294,0.082,0.442c0.04,0.39,0.053,0.778,0.016,1.169
	c-0.032,0.171-0.084,0.335-0.148,0.497c-0.105,0.233-0.221,0.469-0.366,0.68c-0.133,0.148-0.279,0.281-0.434,0.407
	c-0.28,0.205-0.575,0.391-0.885,0.543c-0.254,0.097-0.511,0.179-0.766,0.273c-0.204,0.075-0.37,0.176-0.482,0.37
	C13.046,21.567,13.017,21.793,13.074,22.001z"/>
</svg>