<?xml version="1.0" encoding="utf-8"?>
<!-- Generator: Adobe Illustrator 21.1.0, SVG Export Plug-In . SVG Version: 6.00 Build 0)  -->
<svg version="1.1" id="designs" xmlns="http://www.w3.org/2000/svg" xmlns:xlink="http://www.w3.org/1999/xlink" x="0px" y="0px"
	 width="32px" height="32px" viewBox="0 0 32 32" style="enable-background:new 0 0 32 32;" xml:space="preserve">
<style type="text/css">
	.sketchy_een{fill:#111918;}
</style>
<path class="sketchy_een" d="M25.809,27.483c-0.016-0.265-0.035-0.53-0.043-0.794c-0.012-0.354-0.025-0.706-0.04-1.057
	c-0.035-0.779-0.054-1.557-0.067-2.336c-0.031-1.65-0.021-3.299-0.033-4.947c-0.006-0.729,0.004-1.456,0.008-2.182
	c0.002-0.435-0.363-0.798-0.796-0.798c-0.002,0-0.003,0.001-0.005,0.001c-0.018-0.001-0.034-0.011-0.053-0.011
	c-0.003,0-0.007,0-0.01,0c-0.338,0.004-0.675,0.023-1.013,0.031c-0.009,0-0.018,0-0.028,0c-0.042-0.482-0.08-0.964-0.124-1.446
	c-0.012-0.134-0.048-0.251-0.102-0.362c0.008-0.045,0.027-0.086,0.027-0.133c0-0.427-0.358-0.806-0.791-0.806
	c-0.005,0-0.011,0-0.016,0c-0.409,0.008-0.82,0.009-1.229,0.01c0.158-0.165,0.278-0.38,0.378-0.582
	c0.115-0.233,0.215-0.477,0.298-0.725c0.075-0.215,0.1-0.458,0.131-0.681c0.023-0.183,0.033-0.363,0.017-0.548
	c-0.035-0.438-0.121-0.869-0.219-1.298c-0.085-0.379-0.177-0.758-0.288-1.13c-0.102-0.34-0.254-0.667-0.356-1.009
	c-0.119-0.398-0.225-0.8-0.352-1.196c-0.119-0.373-0.221-0.746-0.315-1.125c-0.079-0.313-0.161-0.625-0.246-0.936
	c-0.042-0.148-0.079-0.296-0.115-0.444c-0.025-0.098-0.04-0.198-0.06-0.296c-0.046-0.248-0.206-0.436-0.415-0.569
	C19.832,2.038,19.682,2,19.53,2c-0.219,0-0.442,0.08-0.575,0.242c-0.117,0.14-0.165,0.219-0.235,0.388
	c-0.013,0.037-0.027,0.073-0.038,0.11c-0.025,0.079-0.04,0.165-0.058,0.246C18.589,3.16,18.544,3.329,18.498,3.5
	c-0.09,0.34-0.181,0.681-0.273,1.021c-0.192,0.709-0.392,1.415-0.584,2.125c-0.223,0.821-0.425,1.646-0.613,2.476
	c-0.104,0.456-0.173,0.917-0.206,1.382c-0.012,0.173,0.008,0.35,0.021,0.521c0.021,0.26,0.058,0.517,0.094,0.773
	c0.021,0.156,0.06,0.31,0.112,0.458c0.06,0.177,0.133,0.35,0.221,0.513c0.01,0.018,0.026,0.031,0.037,0.049
	c-0.137,0.012-0.275,0.019-0.412,0.032c-0.229,0.021-0.423,0.077-0.59,0.246c-0.156,0.156-0.246,0.369-0.246,0.59
	c0,0.066,0.023,0.127,0.038,0.191c-0.013,0.057-0.035,0.112-0.032,0.173c0.024,0.481,0.057,0.961,0.099,1.44
	c-0.29,0.009-0.58,0.025-0.87,0.042c-0.011-1.251-0.003-2.503-0.031-3.754c-0.035-1.484-0.027-2.971-0.065-4.457
	c-0.019-0.719-0.013-1.438-0.015-2.157c-0.002-0.431-0.359-0.79-0.792-0.79c-0.101,0-0.198,0.023-0.288,0.06
	c-1.087,0.023-2.169-0.013-3.257-0.047c-0.474-0.014-0.95-0.029-1.425-0.029c-0.096,0-0.192,0.001-0.288,0.002
	c-0.115,0.002-0.229,0.01-0.342,0.023c-0.154,0.017-0.3,0.044-0.45,0.075c-0.2,0.044-0.394,0.148-0.579,0.236
	c-0.192,0.092-0.361,0.258-0.51,0.41C7.178,5.178,7.113,5.265,7.047,5.345C6.982,5.426,6.924,5.512,6.863,5.594
	C6.83,5.618,6.791,5.633,6.762,5.662C6.634,5.789,6.585,5.935,6.553,6.094C6.535,6.153,6.52,6.21,6.519,6.272
	C6.424,7.113,6.352,7.955,6.31,8.802c-0.038,0.781-0.1,1.561-0.138,2.342c-0.037,0.767-0.062,1.534-0.062,2.303
	c0,0.385-0.006,0.769,0.01,1.154c0.015,0.392,0.048,0.806,0.194,1.175c0.042,0.108,0.087,0.213,0.138,0.317
	c0.077,0.16,0.211,0.31,0.327,0.44c0.104,0.117,0.248,0.208,0.377,0.294c0.103,0.069,0.222,0.116,0.338,0.166
	c0.128,0.095,0.276,0.164,0.444,0.166c0.65,0.01,1.3,0.016,1.951,0.035c0.538,0.018,1.074,0.047,1.612,0.065
	c0.55,0.02,1.096,0.03,1.646,0.013c0.153-0.005,0.306-0.013,0.46-0.02c0.058,0.695,0.108,1.389,0.131,2.088
	c0.027,0.808,0.037,1.613,0.04,2.421c0.006,1.552,0.027,3.103,0.067,4.653c0.015,0.653,0.024,1.306,0.021,1.959
	c-0.016,0.066-0.04,0.131-0.04,0.2c0,0.215,0.086,0.477,0.256,0.621c0.179,0.148,0.36,0.286,0.565,0.392
	c0.202,0.104,0.417,0.185,0.638,0.238c0.3,0.071,0.615,0.094,0.921,0.115c0.398,0.027,0.794,0.048,1.192,0.054
	c0.85,0.008,1.698,0.012,2.546-0.006c0.777-0.019,1.555-0.044,2.332-0.063c0.715-0.019,1.448-0.004,2.155-0.129
	c0.206-0.037,0.4-0.135,0.579-0.237c0.135-0.077,0.261-0.173,0.371-0.281c0.102-0.098,0.181-0.231,0.261-0.348
	c0.119-0.168,0.131-0.384,0.082-0.585c0.015-0.021,0.034-0.039,0.048-0.061C25.906,28.057,25.939,27.725,25.809,27.483z
	 M22.052,14.254c0.039,0.383,0.078,0.766,0.119,1.149c-0.668,0.003-1.335,0-2.003,0.024c-0.814,0.027-1.626,0.038-2.442,0.04
	c-0.019-0.335-0.036-0.67-0.049-1.005c0.78-0.07,1.559-0.143,2.341-0.184c0.644-0.033,1.286-0.029,1.93-0.023
	C21.983,14.254,22.018,14.254,22.052,14.254z M18.437,10.115c0.197-1.275,0.545-2.523,0.94-3.747
	c0.058-0.179,0.115-0.358,0.172-0.538c0.084,0.292,0.169,0.584,0.247,0.878c0.291,1.101,0.72,2.171,0.897,3.299
	c0.021,0.194,0.028,0.384,0.014,0.577c-0.043,0.218-0.101,0.424-0.178,0.632c-0.056,0.12-0.114,0.235-0.184,0.346
	c-0.027,0.028-0.054,0.055-0.083,0.08c-0.254,0.178-0.52,0.341-0.8,0.474c-0.094,0.038-0.178,0.078-0.254,0.131
	c-0.171-0.032-0.339-0.072-0.504-0.127c-0.001,0-0.001-0.001-0.002-0.001c-0.005-0.005-0.009-0.01-0.014-0.014
	c-0.035-0.054-0.068-0.108-0.099-0.165c-0.069-0.2-0.111-0.403-0.143-0.611c-0.02-0.202-0.036-0.406-0.043-0.61
	C18.398,10.518,18.416,10.317,18.437,10.115z M11.524,15.727c-1.148-0.025-2.295-0.103-3.442-0.133
	c-0.053-0.029-0.11-0.054-0.161-0.087c-0.015-0.014-0.029-0.029-0.044-0.044C7.842,15.41,7.81,15.357,7.78,15.302
	c-0.037-0.115-0.064-0.23-0.085-0.348c-0.068-0.647-0.039-1.306-0.021-1.955c0.019-0.727,0.046-1.457,0.096-2.186
	C7.819,10.107,7.85,9.4,7.904,8.694c0.058-0.769,0.15-1.531,0.243-2.295C8.245,6.284,8.348,6.174,8.46,6.073
	c0.055-0.031,0.11-0.059,0.166-0.087c0.128-0.045,0.259-0.076,0.392-0.101C9.34,5.859,9.666,5.859,9.989,5.859
	c0.075,0,0.15,0,0.225-0.002c0.431-0.004,0.861,0,1.292,0.013c0.706,0.02,1.412,0.049,2.119,0.06
	c0.018,0.566,0.036,1.131,0.061,1.697c0.033,0.769,0.04,1.536,0.046,2.305c0.013,1.444,0.073,2.886,0.077,4.33
	c0.001,0.484,0.001,0.966-0.003,1.449c-0.203,0.008-0.406,0.022-0.609,0.026C12.639,15.747,12.082,15.739,11.524,15.727z
	 M24.018,28.161c-0.503,0.056-1.008,0.098-1.514,0.102c-0.7,0.004-1.398,0.035-2.096,0.054c-0.721,0.021-1.442,0.023-2.163,0.017
	c-0.709-0.007-1.42-0.018-2.127-0.092c-0.178-0.03-0.354-0.067-0.526-0.126c-0.046-0.024-0.089-0.053-0.133-0.079
	c-0.02-0.584-0.032-1.169-0.043-1.753c-0.015-0.773-0.044-1.548-0.044-2.323c-0.002-1.588,0-3.176-0.044-4.764
	c-0.018-0.643-0.036-1.283-0.072-1.923c0.563-0.048,1.127-0.088,1.693-0.116c0.026,0.003,0.051,0.015,0.077,0.015
	c0.05,0,0.096-0.019,0.144-0.028c0.024-0.001,0.048-0.003,0.072-0.004c0.852-0.035,1.704-0.042,2.557-0.083
	c1.417-0.066,2.835-0.064,4.254-0.077c0.019,1.478,0.062,2.955,0.061,4.434c0,0.796-0.023,1.594-0.006,2.39
	c0.008,0.388,0.012,0.779,0.021,1.167c0.008,0.381,0.04,0.761,0.054,1.142c0.017,0.486,0.031,0.971,0.052,1.456
	c-0.06,0.173-0.041,0.348,0.009,0.513c-0.025,0.014-0.049,0.028-0.075,0.041C24.12,28.141,24.069,28.152,24.018,28.161z
	 M23.427,21.482c-0.029,0.909-0.075,1.817-0.106,2.724c-0.013,0.398-0.006,0.796,0.013,1.194c0.017,0.329,0.052,0.659,0.056,0.988
	c0.002,0.429-0.361,0.788-0.788,0.788c-0.433,0-0.783-0.36-0.786-0.788c-0.01-0.744-0.035-1.49-0.029-2.236
	c0.008-0.89,0.027-1.78,0.048-2.671c0.012-0.433,0.354-0.796,0.796-0.796C23.054,20.686,23.442,21.05,23.427,21.482z"/>
</svg>