<?xml version="1.0" encoding="utf-8"?>
<!-- Generator: Adobe Illustrator 21.1.0, SVG Export Plug-In . SVG Version: 6.00 Build 0)  -->
<svg version="1.1" id="designs" xmlns="http://www.w3.org/2000/svg" xmlns:xlink="http://www.w3.org/1999/xlink" x="0px" y="0px"
	 width="32px" height="32px" viewBox="0 0 32 32" style="enable-background:new 0 0 32 32;" xml:space="preserve">
<style type="text/css">
	.sketchy_een{fill:#111918;}
</style>
<path class="sketchy_een" d="M26.61,11.499c-0.141-0.135-0.293-0.261-0.448-0.38c-0.203-0.158-0.404-0.312-0.634-0.429
	c-0.03-0.016-0.061-0.031-0.092-0.045c0.023-0.032,0.045-0.064,0.068-0.096c0.184-0.267,0.342-0.551,0.491-0.839
	c0.245-0.472,0.404-0.988,0.429-1.518c0.011-0.254-0.034-0.525-0.087-0.775c-0.034-0.166-0.079-0.323-0.135-0.483
	c-0.111-0.318-0.278-0.609-0.495-0.867c-0.184-0.22-0.419-0.388-0.649-0.559C24.493,5.084,23.792,4.923,23.096,5
	c-0.301,0.032-0.601,0.088-0.896,0.164c-0.008-0.194-0.031-0.388-0.058-0.58c-0.049-0.331-0.103-0.674-0.267-0.971
	c-0.175-0.322-0.438-0.555-0.741-0.756c-0.179-0.12-0.397-0.192-0.594-0.275c-0.211-0.086-0.442-0.135-0.662-0.188
	c-0.354-0.085-0.715-0.098-1.074-0.081c-0.381,0.017-0.759,0.094-1.117,0.224c-0.177-0.205-0.36-0.405-0.561-0.585
	c-0.491-0.446-1.121-0.698-1.763-0.83C15.008,1.05,14.637,1,14.271,1c-0.127,0-0.253,0.006-0.378,0.019
	c-0.294,0.03-0.578,0.088-0.858,0.183c-0.188,0.064-0.371,0.15-0.551,0.233c-0.198,0.088-0.382,0.201-0.566,0.312
	c-0.22,0.132-0.446,0.297-0.638,0.467c-0.182,0.16-0.356,0.32-0.515,0.504c-0.333,0.387-0.555,0.813-0.722,1.294
	c-0.085,0.243-0.12,0.506-0.158,0.76C9.848,5.034,9.822,5.29,9.812,5.555C9.805,5.784,9.833,6.008,9.865,6.233
	c-0.133-0.007-0.267-0.01-0.398-0.001C9.246,6.245,9.03,6.275,8.811,6.309C8.537,6.352,8.247,6.486,7.999,6.606
	C7.335,6.928,6.766,7.398,6.262,7.931C6.123,8.077,5.995,8.233,5.873,8.394c-0.246,0.322-0.42,0.679-0.512,1.074
	c-0.098,0.418-0.13,0.858-0.107,1.285c0.03,0.568,0.303,1.078,0.626,1.531c0.081,0.113,0.165,0.224,0.249,0.336
	c-0.113,0.123-0.209,0.263-0.309,0.394c-0.1,0.13-0.186,0.269-0.277,0.406c-0.186,0.288-0.354,0.596-0.512,0.901
	c-0.179,0.346-0.337,0.698-0.478,1.059c-0.141,0.359-0.213,0.745-0.26,1.125c-0.055,0.442-0.021,0.867,0.096,1.298
	c0.062,0.229,0.166,0.45,0.261,0.666c0.113,0.254,0.286,0.469,0.457,0.685c0.207,0.26,0.493,0.48,0.762,0.672
	c0.356,0.252,0.766,0.403,1.181,0.527c0.585,0.175,1.181,0.263,1.784,0.329c0.145,0.343,0.292,0.682,0.466,1.012
	c0.196,0.369,0.429,0.719,0.673,1.057c0.318,0.436,0.662,0.816,1.123,1.11C11.515,24.128,12,24.32,12.48,24.44
	c0.044,0.011,0.089,0.015,0.133,0.025c0.042,0.806,0.142,1.615,0.063,2.421c-0.056,0.295-0.142,0.58-0.252,0.859
	c-0.115,0.262-0.239,0.513-0.402,0.75c-0.098,0.123-0.201,0.242-0.317,0.351c-0.293,0.277-0.283,0.755-0.029,1.05
	c0.018,0.057,0.027,0.116,0.057,0.168c0.109,0.188,0.292,0.327,0.502,0.386c0.237,0.066,0.433,0.011,0.647-0.085
	c0.122-0.055,0.243-0.108,0.365-0.162c0.129-0.05,0.258-0.094,0.392-0.125c0.062-0.003,0.123-0.002,0.185,0.001
	c0.147,0.032,0.289,0.077,0.43,0.131c0.334,0.166,0.624,0.393,0.94,0.587c0.137,0.085,0.295,0.152,0.455,0.175
	c0.205,0.03,0.354,0.045,0.559-0.006c0.132-0.032,0.256-0.09,0.376-0.151c0.197-0.096,0.364-0.255,0.533-0.396
	c0.083-0.06,0.169-0.115,0.259-0.164c0.041-0.013,0.083-0.024,0.125-0.033c0.22-0.011,0.442,0.005,0.662,0.018
	c0.297,0.017,0.596,0.036,0.895,0.054c0.536,0.036,1.101,0.051,1.618-0.124c0.423-0.145,0.698-0.559,0.574-1.01
	c-0.08-0.291-0.322-0.494-0.601-0.564c-0.061-0.072-0.132-0.136-0.216-0.195c-0.111-0.077-0.237-0.126-0.356-0.186
	c-0.132-0.068-0.257-0.146-0.378-0.231c-0.19-0.162-0.364-0.344-0.523-0.535c-0.151-0.21-0.285-0.427-0.391-0.667
	c-0.085-0.204-0.169-0.411-0.232-0.622c-0.074-0.246-0.126-0.495-0.166-0.75c-0.041-0.381-0.072-0.767-0.096-1.151
	c-0.017-0.26-0.02-0.521-0.022-0.782c0.039,0.02,0.076,0.041,0.115,0.061c0.088,0.045,0.179,0.09,0.271,0.132
	c0.12,0.054,0.241,0.105,0.365,0.148c0.175,0.062,0.372,0.07,0.553,0.092c0.64,0.079,1.277-0.105,1.883-0.29
	c0.186-0.058,0.372-0.116,0.559-0.177c0.269-0.085,0.523-0.216,0.775-0.344c0.181-0.092,0.357-0.19,0.536-0.288
	c0.254-0.137,0.497-0.318,0.679-0.542c0.213-0.258,0.337-0.521,0.465-0.83c0.182-0.446,0.248-0.926,0.31-1.398
	c0.062-0.47-0.019-0.941-0.096-1.405c-0.032-0.188-0.082-0.37-0.136-0.551c0.118-0.067,0.233-0.14,0.348-0.213
	c0.231-0.145,0.454-0.303,0.67-0.469c0.046-0.03,0.09-0.064,0.13-0.103c0.083-0.066,0.166-0.134,0.247-0.203
	c0.292-0.248,0.57-0.493,0.811-0.794c0.325-0.406,0.561-0.843,0.726-1.34c0.154-0.455,0.248-0.958,0.246-1.437
	C27.727,12.692,27.182,12.043,26.61,11.499z M16.495,28.899c-0.204,0.112-0.381,0.265-0.575,0.391
	c-0.136-0.08-0.268-0.171-0.403-0.252c-0.318-0.19-0.66-0.339-1.012-0.454c-0.224-0.071-0.457-0.111-0.691-0.127
	c0.177-0.367,0.341-0.745,0.42-1.142c0.1-0.506,0.115-1.002,0.098-1.516c-0.013-0.403-0.028-0.806-0.041-1.21
	c0.416-0.057,0.812-0.199,1.199-0.374c0.425-0.189,0.798-0.48,1.157-0.773c0.022,0.495,0.047,0.99,0.076,1.486
	c0.039,0.687,0.098,1.354,0.361,1.998c0.134,0.322,0.256,0.672,0.436,0.969c0.156,0.258,0.346,0.5,0.548,0.723
	c-0.114-0.007-0.227-0.014-0.341-0.019C17.285,28.583,16.881,28.688,16.495,28.899z M25.886,13.932
	c-0.049,0.26-0.118,0.51-0.207,0.758c-0.099,0.205-0.215,0.395-0.347,0.581c-0.246,0.283-0.532,0.537-0.827,0.768
	c-0.059,0.045-0.118,0.091-0.177,0.137c0.058-0.047,0.119-0.092,0.177-0.137c-0.278,0.198-0.567,0.375-0.872,0.529
	c-0.171,0.058-0.35,0.105-0.505,0.192c-0.245,0.137-0.433,0.363-0.508,0.638c-0.068,0.243-0.034,0.504,0.049,0.739
	c0.122,0.341,0.207,0.685,0.266,1.04c0.017,0.152,0.029,0.304,0.035,0.458c0.007,0.132-0.004,0.264-0.019,0.396
	c-0.051,0.319-0.121,0.632-0.231,0.938c-0.031,0.061-0.063,0.121-0.1,0.18c-0.033,0.033-0.066,0.064-0.101,0.095
	c-0.291,0.178-0.599,0.332-0.909,0.476c-0.196,0.068-0.396,0.125-0.596,0.18c-0.273,0.077-0.548,0.15-0.828,0.201
	c-0.169,0.011-0.337,0.006-0.506-0.006c-0.14-0.029-0.274-0.071-0.407-0.121c-0.444-0.201-0.877-0.454-1.268-0.745
	c-0.265-0.21-0.522-0.418-0.858-0.51c-0.42-0.117-0.939,0.073-1.142,0.472c-0.069,0.131-0.122,0.27-0.174,0.408
	c-0.059,0.128-0.126,0.252-0.2,0.372c-0.112,0.125-0.234,0.237-0.364,0.344c-0.222,0.153-0.452,0.284-0.696,0.398
	c-0.161,0.054-0.321,0.097-0.488,0.128c-0.251,0.02-0.498,0.017-0.749-0.006c-0.335-0.056-0.654-0.138-0.971-0.254
	c-0.193-0.093-0.374-0.195-0.551-0.314c-0.138-0.118-0.263-0.245-0.381-0.383c-0.352-0.486-0.664-0.994-0.918-1.538
	c-0.043-0.112-0.085-0.224-0.128-0.335c-0.017-0.051-0.038-0.098-0.058-0.147c-0.083-0.201-0.135-0.299-0.269-0.47
	c-0.139-0.181-0.342-0.299-0.562-0.354c-0.205-0.053-0.421-0.038-0.632-0.047c-0.113-0.006-0.226-0.015-0.339-0.027
	c-0.481-0.078-0.961-0.196-1.416-0.372c-0.119-0.06-0.232-0.125-0.342-0.2c-0.166-0.135-0.321-0.278-0.462-0.439
	c-0.081-0.12-0.151-0.243-0.214-0.374c-0.064-0.167-0.116-0.337-0.154-0.514c-0.011-0.164-0.008-0.327,0.006-0.492
	c0.067-0.394,0.174-0.769,0.322-1.144c0.242-0.548,0.519-1.072,0.863-1.562c0.089-0.104,0.182-0.201,0.286-0.292
	c0.094-0.068,0.189-0.137,0.268-0.221c0.213-0.235,0.314-0.568,0.231-0.88c-0.066-0.248-0.22-0.438-0.359-0.649
	c-0.205-0.307-0.413-0.61-0.575-0.941c-0.023-0.073-0.043-0.145-0.059-0.218c-0.01-0.201-0.005-0.401,0.012-0.601
	C6.954,9.92,6.986,9.779,7.029,9.637C7.083,9.53,7.144,9.429,7.213,9.331c0.231-0.259,0.475-0.496,0.74-0.721
	c0.281-0.204,0.571-0.374,0.884-0.523C8.995,8.03,9.154,7.984,9.319,7.952c0.207-0.017,0.412-0.019,0.619-0.005
	c0.195,0.041,0.379,0.102,0.569,0.172c0.184,0.068,0.401,0.081,0.594,0.028c0.401-0.111,0.63-0.474,0.658-0.873
	c0.019-0.254-0.058-0.527-0.104-0.777c-0.032-0.173-0.066-0.344-0.094-0.516c-0.026-0.27-0.024-0.538,0-0.81
	c0.044-0.259,0.097-0.51,0.186-0.756c0.063-0.132,0.134-0.255,0.217-0.375c0.152-0.176,0.319-0.329,0.496-0.479
	C12.726,3.377,13,3.22,13.289,3.073c0.246-0.094,0.492-0.172,0.753-0.222c0.248-0.019,0.493-0.01,0.742,0.012
	c0.262,0.043,0.51,0.105,0.762,0.193c0.072,0.036,0.141,0.076,0.209,0.12c0.369,0.327,0.655,0.742,0.965,1.122
	c0.149,0.185,0.436,0.277,0.664,0.277c0.246,0,0.487-0.1,0.664-0.277c0.041-0.041,0.078-0.086,0.111-0.134
	c0.019-0.01,0.038-0.02,0.057-0.029c0.165-0.059,0.333-0.103,0.506-0.137c0.224-0.018,0.448-0.022,0.674-0.004
	c0.252,0.046,0.5,0.111,0.742,0.197c0.071,0.035,0.14,0.073,0.208,0.115c0.031,0.029,0.061,0.058,0.09,0.088
	c0.036,0.114,0.062,0.229,0.083,0.348c0.028,0.27,0.032,0.536,0.009,0.807c-0.024,0.126-0.053,0.249-0.087,0.374
	c-0.06,0.228-0.073,0.442-0.019,0.672c0.071,0.299,0.346,0.549,0.634,0.632c0.482,0.136,0.907-0.138,1.326-0.34
	c0.273-0.102,0.553-0.172,0.84-0.225c0.138-0.012,0.273-0.014,0.41-0.005c0.097,0.021,0.192,0.048,0.285,0.08
	C24.046,6.8,24.163,6.876,24.28,6.96c0.076,0.064,0.147,0.131,0.214,0.204c0.048,0.073,0.091,0.148,0.133,0.227
	c0.053,0.141,0.085,0.288,0.113,0.436c0.015,0.151,0.023,0.301,0.015,0.453c-0.032,0.141-0.078,0.277-0.13,0.411
	c-0.171,0.348-0.37,0.679-0.599,0.992c-0.111,0.134-0.223,0.267-0.336,0.401c-0.137,0.164-0.288,0.329-0.378,0.525
	c-0.085,0.177-0.119,0.311-0.126,0.51c-0.009,0.246,0.107,0.465,0.267,0.643c0.216,0.241,0.478,0.278,0.768,0.329
	c0.134,0.024,0.263,0.063,0.39,0.109c0.128,0.062,0.255,0.13,0.373,0.212c0.262,0.214,0.504,0.454,0.72,0.713
	c0.057,0.083,0.109,0.167,0.155,0.254c0.015,0.048,0.028,0.096,0.04,0.145C25.904,13.662,25.898,13.796,25.886,13.932z
	 M11.181,14.19c0,0.446-0.372,0.818-0.818,0.818s-0.818-0.373-0.818-0.818c0-0.446,0.372-0.818,0.818-0.818
	S11.181,13.744,11.181,14.19z M13.993,17.97c0,0.414-0.346,0.76-0.76,0.76c-0.414,0-0.76-0.346-0.76-0.76s0.346-0.76,0.76-0.76
	C13.647,17.21,13.993,17.556,13.993,17.97z M19.857,16.084c0,0.446-0.372,0.818-0.818,0.818s-0.818-0.373-0.818-0.818
	s0.372-0.818,0.818-0.818S19.857,15.638,19.857,16.084z M16.02,12.392c0,0.431-0.357,0.788-0.788,0.788s-0.788-0.357-0.788-0.788
	c0-0.431,0.357-0.788,0.788-0.788S16.02,11.961,16.02,12.392z M21.864,12.564c0,0.446-0.372,0.818-0.818,0.818
	s-0.818-0.373-0.818-0.818s0.372-0.818,0.818-0.818S21.864,12.118,21.864,12.564z M17.746,6.618c0,0.399-0.333,0.732-0.732,0.732
	c-0.399,0-0.732-0.333-0.732-0.732c0-0.399,0.333-0.732,0.732-0.732C17.413,5.886,17.746,6.219,17.746,6.618z M12.972,10.849
	c-0.446,0-0.818-0.373-0.818-0.818s0.372-0.818,0.818-0.818s0.818,0.373,0.818,0.818S13.418,10.849,12.972,10.849z"/>
</svg>