<?xml version="1.0" encoding="utf-8"?>
<!-- Generator: Adobe Illustrator 21.1.0, SVG Export Plug-In . SVG Version: 6.00 Build 0)  -->
<svg version="1.1" id="designs" xmlns="http://www.w3.org/2000/svg" xmlns:xlink="http://www.w3.org/1999/xlink" x="0px" y="0px"
	 width="32px" height="32px" viewBox="0 0 32 32" style="enable-background:new 0 0 32 32;" xml:space="preserve">
<style type="text/css">
	.sketchy_een{fill:#111918;}
</style>
<path class="sketchy_een" d="M14.761,4.999c0.003,0.022,0.006,0.044,0.008,0.065c-0.004-0.028-0.008-0.056-0.011-0.083
	C14.759,4.986,14.76,4.992,14.761,4.999z M14.77,5.064c0,0.004,0.001,0.007,0.001,0.011c0.002,0.015,0.004,0.029,0.006,0.044
	C14.775,5.1,14.772,5.082,14.77,5.064z M24.428,29.538c0.01,0.13-0.01,0.252-0.03,0.383c-0.032,0.202-0.214,0.399-0.383,0.497
	c-0.006,0.003-0.013,0.003-0.019,0.007c-0.113,0.317-0.41,0.559-0.762,0.552c-0.198-0.004-0.393-0.022-0.593-0.022
	c-0.26-0.002-0.519-0.002-0.777-0.002c-0.457,0.002-0.913,0.008-1.368,0.014c-0.419,0.006-0.841,0.006-1.26,0.006
	c-0.559,0-1.118-0.002-1.677,0.01c-1.558,0.036-3.119,0.006-4.677-0.028c-0.753-0.018-1.506-0.026-2.258-0.064
	c-0.369-0.018-0.737-0.042-1.106-0.052c-0.353-0.01-0.705-0.002-1.056-0.002c-0.429,0-0.789-0.357-0.789-0.789
	c0-0.034,0.016-0.063,0.02-0.096c-0.063-0.119-0.11-0.248-0.118-0.391c-0.008-0.14-0.004-0.278-0.002-0.417
	c0.032-1.542-0.008-3.087,0.07-4.629c0.04-0.799,0.086-1.604,0.182-2.398c0.05-0.417,0.104-0.833,0.152-1.252
	c0.054-0.465,0.102-0.937,0.196-1.396c0.084-0.419,0.172-0.841,0.323-1.24c0.126-0.333,0.266-0.661,0.397-0.99
	c0.335-0.829,0.709-1.631,1.136-2.416c0.162-0.297,0.333-0.591,0.515-0.877c0.196-0.31,0.421-0.593,0.651-0.879
	c0.404-0.503,0.82-1,1.234-1.497c-0.05-0.472-0.073-0.948-0.077-1.422c-0.072,0.003-0.144,0.007-0.216,0.009
	c-0.415,0.012-0.763-0.355-0.763-0.763c0-0.032,0.015-0.06,0.019-0.091c-0.065-0.457-0.016-0.925-0.018-1.383
	c-0.004-0.671,0.054-1.326,0.148-1.991c0.02-0.129,0.106-0.255,0.209-0.355c0.13-0.253,0.386-0.441,0.684-0.433
	c0.236,0.007,0.472,0.016,0.709,0.024c-0.07-0.311-0.133-0.622-0.164-0.94c-0.046-0.493-0.094-0.984-0.156-1.475
	c-0.03-0.221-0.06-0.443-0.09-0.666c-0.028-0.214,0.11-0.469,0.256-0.615c0.11-0.11,0.253-0.173,0.403-0.211
	c0.153-0.111,0.328-0.191,0.525-0.178c0.641,0.04,1.27,0.066,1.909,0.012c0.553-0.046,1.108-0.036,1.661-0.09
	C17.483,1.001,17.5,1,17.517,1c0.22,0,0.458,0.128,0.604,0.274c0.047,0.047,0.074,0.108,0.109,0.164
	c0.2,0.161,0.338,0.396,0.338,0.668c0,0.663-0.02,1.326-0.054,1.989c-0.012,0.232-0.032,0.463-0.038,0.695
	c-0.003,0.094-0.006,0.188-0.007,0.282c0.083-0.003,0.167-0.005,0.25-0.007c0.056,0,0.114,0,0.17,0
	c0.152,0.002,0.302,0.002,0.455-0.014c0.015-0.001,0.031-0.002,0.046-0.002c0.196,0,0.407,0.112,0.539,0.244
	c0.011,0.012,0.016,0.028,0.027,0.04c0.31,0.117,0.526,0.414,0.537,0.759c0.02,0.641,0.034,1.282,0.06,1.923
	c0.01,0.228,0.04,0.455,0.052,0.683c0.002,0.058,0.002,0.115,0.003,0.172c0.109,0.134,0.185,0.295,0.185,0.49
	c0,0.415-0.371,0.851-0.813,0.813c-0.203-0.017-0.408-0.025-0.612-0.034c-0.01,0.419-0.025,0.837-0.036,1.254
	c-0.007,0.221-0.004,0.443-0.007,0.665c0.004,0.005,0.008,0.008,0.011,0.013c0.305,0.407,0.595,0.825,0.905,1.23
	c0.198,0.258,0.391,0.519,0.587,0.778c0.138,0.175,0.281,0.349,0.416,0.526c0.154,0.204,0.294,0.421,0.435,0.633
	c0.274,0.405,0.503,0.841,0.739,1.27c0.347,0.635,0.647,1.296,0.885,1.981c0.274,0.787,0.423,1.606,0.499,2.436
	c0.032,0.359,0.08,0.717,0.12,1.076c0.042,0.375,0.062,0.749,0.068,1.128c0.01,0.741,0.018,1.477,0.106,2.214
	c0.054,0.423,0.096,0.843,0.114,1.269c0.016,0.359,0.026,0.721,0.048,1.08c0.022,0.389,0.05,0.781,0.092,1.17
	c0.018,0.16,0.04,0.322,0.058,0.481C24.414,29.408,24.422,29.472,24.428,29.538z M14.534,2.989c0.013,0.16,0.033,0.32,0.043,0.48
	c0.016,0.262,0.031,0.525,0.061,0.787c0.042,0.273,0.094,0.545,0.133,0.818c0.003,0.03-0.001,0.057,0.001,0.087
	c0.434-0.018,0.868-0.035,1.302-0.043c0.244-0.005,0.49-0.008,0.735-0.013C16.812,5,16.817,4.895,16.825,4.789
	c0.016-0.232,0.032-0.463,0.036-0.695c0.008-0.401-0.002-0.802-0.014-1.203c-0.362,0.018-0.725,0.035-1.086,0.068
	C15.352,2.997,14.944,2.999,14.534,2.989z M12.951,8.62c1.112-0.015,2.224-0.037,3.334-0.053c0.562-0.007,1.124-0.032,1.685-0.032
	c0.097,0,0.194,0.001,0.292,0.003c0.254,0.005,0.509,0.008,0.763,0.013c-0.008-0.195-0.003-0.391-0.022-0.583
	c-0.042-0.421-0.067-0.841-0.095-1.262c-0.071-0.002-0.142,0.003-0.213,0.001c-0.262-0.008-0.523-0.012-0.785-0.01
	c-0.3,0.002-0.599,0.002-0.897-0.01c-0.19-0.008-0.377-0.008-0.565-0.008c-0.126,0-0.25,0.002-0.373-0.002
	c-0.627-0.01-1.254,0-1.881,0.01c-0.377,0.006-0.754,0.005-1.131,0.006c-0.008,0.052-0.016,0.105-0.023,0.157
	c0.003-0.027,0.006-0.053,0.01-0.08C13.02,6.98,12.992,7.19,12.969,7.4c-0.024,0.23-0.014,0.463-0.018,0.693
	C12.949,8.269,12.949,8.444,12.951,8.62z M9.237,25.355c0.347,0.017,0.694,0.039,1.042,0.049c0.431,0.014,0.863,0.016,1.296,0.028
	c0.731,0.018,1.462,0.022,2.193,0.002c0.175-0.005,0.33,0.064,0.465,0.161c-0.012-0.211-0.031-0.423-0.044-0.631
	c-0.04-0.649-0.058-1.298-0.082-1.949c-0.026-0.713-0.042-1.428-0.088-2.141c-0.045-0.662-0.089-1.326-0.13-1.99
	c-0.178-0.009-0.355-0.018-0.533-0.023c-0.326-0.01-0.653-0.016-0.978-0.018c-0.743-0.006-1.486-0.01-2.231-0.014
	c-0.039,0-0.072-0.017-0.11-0.023c-0.193,0.581-0.334,1.18-0.424,1.785c-0.099,0.777-0.2,1.555-0.268,2.334
	c-0.068,0.777-0.1,1.558-0.108,2.336C9.237,25.294,9.237,25.324,9.237,25.355z M22.779,29.357c-0.006-0.153-0.018-0.306-0.026-0.458
	c-0.016-0.32-0.028-0.639-0.046-0.958c-0.036-0.615-0.02-1.232-0.052-1.849c-0.018-0.341-0.06-0.681-0.092-1.022
	c-0.032-0.329-0.052-0.661-0.066-0.992c-0.029-0.646-0.017-1.287-0.086-1.929c-0.044-0.323-0.089-0.647-0.124-0.972
	c-0.031-0.281-0.052-0.563-0.084-0.844c-0.052-0.326-0.111-0.653-0.204-0.971c-0.099-0.335-0.219-0.669-0.351-0.994
	c-0.198-0.446-0.423-0.874-0.67-1.296c-0.168-0.292-0.327-0.591-0.517-0.869c-0.152-0.225-0.312-0.445-0.477-0.662
	c-0.283-0.354-0.564-0.709-0.841-1.069c0.042,0.054,0.082,0.108,0.124,0.162c-0.409-0.521-0.853-1.014-1.258-1.54
	c-0.106-0.106-0.178-0.23-0.218-0.371c-0.037-0.137-0.036-0.275-0.005-0.412c-0.015-0.057-0.036-0.112-0.039-0.173
	c-0.012-0.246-0.002-0.495-0.004-0.743c-0.006-0.431-0.008-0.862,0-1.295c-0.487-0.01-0.973-0.021-1.46-0.022
	c-0.691-0.002-1.382-0.002-2.073,0.006c-0.07,0.001-0.14,0.005-0.209,0.007c-0.002,0.356-0.016,0.71-0.008,1.067
	c0.004,0.228,0.034,0.453,0.046,0.679c0.008,0.147-0.045,0.278-0.119,0.398c-0.024,0.193-0.102,0.359-0.233,0.512
	c-0.31,0.365-0.639,0.713-0.947,1.08c-0.166,0.199-0.329,0.4-0.491,0.604c-0.195,0.265-0.362,0.549-0.53,0.832
	c-0.198,0.339-0.393,0.681-0.577,1.03c-0.164,0.314-0.318,0.633-0.466,0.953c0.614,0.019,1.227,0.045,1.839,0.073
	c0.629,0.03,1.26,0.074,1.889,0.062c0.245-0.005,0.456,0.116,0.598,0.293c0.347,0.116,0.588,0.436,0.604,0.818
	c0.042,0.923,0.064,1.849,0.084,2.772c0.014,0.793,0.056,1.581,0.082,2.372c0.022,0.725,0.084,1.446,0.112,2.171
	c0.008,0.236,0,0.519-0.06,0.747c-0.08,0.298-0.312,0.501-0.595,0.601c-0.11,0.038-0.242,0.042-0.361,0.038
	c-0.184-0.004-0.363,0-0.545,0.02c-0.147,0.015-0.3-0.056-0.429-0.145c-0.044,0.007-0.083,0.026-0.128,0.025
	c-0.753-0.014-1.504-0.024-2.256-0.062c-0.76-0.036-1.521-0.033-2.281-0.042c0,0.232-0.002,0.464-0.003,0.695
	c0,0.331,0,0.663,0.002,0.992c0.001,0.205,0.005,0.411,0.015,0.617c0.645,0.026,1.289,0.066,1.936,0.076
	c0.994,0.018,1.989,0.038,2.985,0.04c1.55,0.004,3.099-0.034,4.651-0.052c0.757-0.008,1.512,0.004,2.268,0.012
	c0.375,0.004,0.751,0.006,1.126,0.006C22.401,29.369,22.59,29.363,22.779,29.357z M21.743,24.584
	c-0.032-0.343-0.054-0.687-0.056-1.03c-0.008-0.687-0.036-1.366-0.13-2.047c-0.076-0.529-0.148-1.062-0.304-1.574
	c-0.194-0.637-0.407-1.292-0.773-1.853c-0.068-0.106-0.128-0.216-0.198-0.319c-0.08-0.118-0.166-0.234-0.246-0.349
	c-0.304-0.441-0.587-0.895-0.875-1.346c-0.162-0.255-0.437-0.406-0.721-0.406c-0.137,0-0.276,0.035-0.405,0.11
	c-0.373,0.22-0.539,0.751-0.296,1.128c0.357,0.553,0.751,1.078,1.136,1.611c0.26,0.362,0.48,0.748,0.663,1.154
	c0.148,0.369,0.27,0.749,0.367,1.136c0.077,0.31,0.12,0.633,0.163,0.952c0.033,0.254,0.064,0.507,0.074,0.761
	c0.014,0.357,0.008,0.713,0.014,1.07c0.004,0.349,0.032,0.699,0.062,1.048c0.014,0.178,0.026,0.355,0.032,0.533
	c0.006,0.162-0.02,0.323-0.006,0.485c0.018,0.214,0.074,0.397,0.23,0.555c0.146,0.146,0.347,0.228,0.553,0.228
	c0.208,0,0.409-0.082,0.555-0.228c0.096-0.098,0.164-0.214,0.202-0.347c0.033-0.125,0.036-0.251,0.009-0.376
	c-0.006-0.106-0.006-0.212-0.007-0.317C21.783,24.972,21.761,24.778,21.743,24.584z"/>
</svg>