<?xml version="1.0" encoding="utf-8"?>
<!-- Generator: Adobe Illustrator 21.1.0, SVG Export Plug-In . SVG Version: 6.00 Build 0)  -->
<svg version="1.1" id="designs" xmlns="http://www.w3.org/2000/svg" xmlns:xlink="http://www.w3.org/1999/xlink" x="0px" y="0px"
	 width="32px" height="32px" viewBox="0 0 32 32" style="enable-background:new 0 0 32 32;" xml:space="preserve">
<style type="text/css">
	.sketchy_een{fill:#111918;}
</style>
<path class="sketchy_een" d="M27.165,15.25c-0.034-0.189-0.077-0.379-0.124-0.567c-0.095-0.376-0.196-0.75-0.333-1.112
	c-0.131-0.347-0.282-0.698-0.455-1.025c-0.16-0.306-0.378-0.583-0.586-0.854c-0.46-0.601-0.952-1.178-1.491-1.711
	c-0.552-0.543-1.198-0.996-1.86-1.398c-0.637-0.387-1.27-0.786-1.953-1.083c-0.639-0.275-1.29-0.491-1.953-0.691
	c-0.32-0.095-0.642-0.18-0.971-0.241c-0.34-0.064-0.685-0.105-1.028-0.149c-0.075-0.011-0.149-0.03-0.224-0.043
	c0.035-0.088,0.058-0.182,0.06-0.281c0.009-0.745,0.014-1.489,0.016-2.234c0-0.344-0.229-0.636-0.539-0.748
	C15.605,3.044,15.475,3,15.338,3c-0.127,0-0.257,0.031-0.376,0.095c-0.273,0.146-0.52,0.353-0.772,0.532
	c-0.23,0.164-0.464,0.322-0.696,0.48c-0.471,0.322-0.928,0.667-1.392,0.998c-0.228,0.162-0.462,0.317-0.694,0.473
	c-0.286,0.194-0.554,0.416-0.827,0.626C10.12,6.563,9.681,6.95,9.289,7.382C9.167,7.516,9.104,7.68,9.084,7.848
	C8.911,8.146,8.936,8.54,9.193,8.791c0.511,0.5,1.02,1.002,1.536,1.497c0.432,0.412,0.887,0.79,1.353,1.16
	c0.504,0.398,1.034,0.754,1.549,1.137c0.221,0.165,0.455,0.317,0.682,0.477c0.261,0.183,0.504,0.39,0.777,0.554
	c0.198,0.119,0.431,0.114,0.633,0.031c0.016,0.001,0.029,0.009,0.045,0.009c0.444,0,0.761-0.358,0.784-0.784
	c0.03-0.58,0.034-1.16,0.036-1.739c0.387,0.096,0.771,0.202,1.143,0.339c0.374,0.172,0.741,0.361,1.104,0.554
	c0.37,0.198,0.71,0.429,1.044,0.679c0.177,0.14,0.354,0.281,0.521,0.433c0.188,0.169,0.348,0.369,0.505,0.567
	c0.368,0.498,0.691,1.014,0.952,1.576c0.071,0.195,0.137,0.391,0.191,0.593c0.049,0.181,0.083,0.363,0.114,0.546
	c0.053,0.557,0.041,1.107-0.019,1.663c-0.134,0.844-0.364,1.662-0.677,2.458c-0.153,0.332-0.319,0.652-0.501,0.971
	c-0.143,0.25-0.32,0.482-0.498,0.712c-0.251,0.296-0.512,0.574-0.811,0.82c-0.49,0.354-1.034,0.646-1.581,0.901
	c-0.48,0.187-0.977,0.318-1.486,0.402c-0.571,0.062-1.137,0.065-1.71,0.002c-0.318-0.046-0.632-0.101-0.944-0.186
	c-0.306-0.084-0.603-0.188-0.897-0.304c-0.402-0.189-0.783-0.407-1.15-0.659c-0.563-0.449-1.091-0.928-1.557-1.479
	c-0.287-0.395-0.533-0.819-0.734-1.264c-0.118-0.311-0.176-0.629-0.225-0.954c-0.025-0.3-0.041-0.6-0.022-0.902
	c0.02-0.305,0.048-0.608,0.086-0.912c0.047-0.287,0.095-0.576,0.173-0.856c0.081-0.302,0.187-0.594,0.305-0.883
	c0.307-0.683,0.663-1.343,0.996-2.013c0.076-0.153,0.101-0.311,0.082-0.476c0.013-0.056,0.033-0.11,0.033-0.168
	c0-0.175-0.072-0.401-0.214-0.516c-0.198-0.16-0.363-0.347-0.534-0.531c-0.164-0.175-0.329-0.345-0.498-0.513
	c-0.378-0.38-0.739-0.774-1.09-1.176c-0.128-0.148-0.315-0.217-0.504-0.217c-0.201,0-0.404,0.077-0.543,0.217
	c-0.086,0.086-0.139,0.193-0.174,0.307c-0.046,0.03-0.1,0.05-0.133,0.09c-0.513,0.642-1.007,1.306-1.354,2.056
	c-0.18,0.392-0.358,0.788-0.513,1.191c-0.128,0.336-0.257,0.682-0.342,1.033c-0.189,0.793-0.306,1.59-0.365,2.405
	c-0.025,0.369-0.04,0.736-0.049,1.106c-0.009,0.347-0.009,0.698,0.031,1.045c0.025,0.234,0.058,0.468,0.09,0.702
	c0.029,0.198,0.094,0.394,0.146,0.586c0.112,0.403,0.279,0.8,0.444,1.185c0.29,0.675,0.585,1.351,1.024,1.944
	c0.442,0.599,0.957,1.153,1.529,1.63c0.291,0.241,0.583,0.482,0.878,0.716c0.324,0.259,0.66,0.468,1.022,0.666
	c0.68,0.369,1.36,0.73,2.085,1.002c0.653,0.246,1.324,0.434,2.011,0.554c0.396,0.068,0.797,0.115,1.196,0.156
	c0.356,0.036,0.716,0.072,1.074,0.068c0.79-0.011,1.559-0.246,2.311-0.468c0.351-0.104,0.707-0.214,1.045-0.356
	c0.369-0.155,0.721-0.329,1.07-0.522c0.667-0.367,1.293-0.82,1.878-1.308c0.293-0.245,0.567-0.511,0.84-0.779
	c0.255-0.25,0.507-0.505,0.739-0.779c0.525-0.613,0.996-1.272,1.385-1.98c0.38-0.694,0.689-1.419,0.98-2.155
	c0.133-0.338,0.266-0.684,0.36-1.038c0.095-0.363,0.176-0.73,0.243-1.101c0.135-0.754,0.214-1.531,0.201-2.297
	C27.287,15.892,27.222,15.57,27.165,15.25z M25.797,17.784c-0.075,0.521-0.162,1.046-0.311,1.551
	c-0.17,0.574-0.385,1.134-0.607,1.69c-0.181,0.421-0.371,0.841-0.597,1.238c-0.254,0.45-0.533,0.873-0.844,1.284
	c-0.601,0.736-1.278,1.413-2.024,2.005c-0.339,0.251-0.683,0.493-1.042,0.717c-0.36,0.226-0.745,0.417-1.132,0.594
	c-0.42,0.168-0.853,0.306-1.286,0.433c-0.435,0.129-0.871,0.256-1.317,0.332c-0.688,0.067-1.38-0.008-2.063-0.095
	c-0.807-0.122-1.581-0.346-2.338-0.646c-0.369-0.166-0.728-0.357-1.083-0.556c-0.395-0.221-0.79-0.458-1.163-0.717
	c-0.399-0.32-0.781-0.665-1.161-1.008c-0.39-0.354-0.739-0.753-1.067-1.165c-0.176-0.248-0.335-0.502-0.476-0.773
	c-0.131-0.251-0.246-0.51-0.359-0.769c-0.114-0.28-0.222-0.562-0.323-0.845c-0.11-0.307-0.189-0.621-0.256-0.938
	c-0.125-1.104-0.076-2.222,0.043-3.325c0.06-0.396,0.126-0.796,0.234-1.179c0.124-0.448,0.273-0.883,0.446-1.312
	c0.139-0.32,0.285-0.633,0.458-0.938c0.181-0.323,0.384-0.626,0.603-0.922c0.046-0.057,0.092-0.115,0.138-0.172
	c0.159,0.165,0.308,0.338,0.473,0.497c0.173,0.165,0.34,0.335,0.504,0.509c0.072,0.076,0.141,0.153,0.212,0.23
	c-0.286,0.58-0.574,1.16-0.832,1.753c-0.167,0.389-0.317,0.781-0.43,1.187c-0.088,0.313-0.147,0.64-0.192,0.964
	c-0.056,0.419-0.103,0.836-0.133,1.259c-0.031,0.398,0.011,0.799,0.067,1.191c0.025,0.169,0.052,0.336,0.083,0.505
	c0.074,0.408,0.266,0.793,0.455,1.158c0.171,0.326,0.356,0.642,0.579,0.935c0.478,0.631,1.045,1.164,1.66,1.662
	c0.628,0.509,1.317,0.917,2.076,1.198c1.399,0.516,2.943,0.648,4.403,0.324c0.734-0.164,1.441-0.419,2.094-0.795
	c0.374-0.216,0.75-0.433,1.097-0.693c0.383-0.286,0.703-0.619,1.009-0.982c1.005-1.194,1.567-2.657,1.917-4.16
	c0.09-0.38,0.131-0.772,0.18-1.158c0.045-0.365,0.045-0.743,0.032-1.112c-0.027-0.793-0.209-1.603-0.558-2.317
	c-0.34-0.696-0.764-1.333-1.254-1.934c-0.299-0.365-0.66-0.657-1.029-0.946c-0.306-0.239-0.613-0.471-0.952-0.662
	c-0.559-0.318-1.131-0.621-1.732-0.856c-0.275-0.106-0.576-0.173-0.862-0.246c-0.331-0.085-0.662-0.171-0.995-0.254
	c-0.061-0.015-0.123-0.022-0.184-0.022c-0.092,0-0.18,0.02-0.264,0.052c-0.413,0.039-0.749,0.385-0.749,0.807
	c0.001,0.46,0.014,0.919,0.02,1.379c-0.19-0.141-0.379-0.284-0.567-0.428c0.015,0.012,0.03,0.024,0.046,0.036
	c-0.425-0.329-0.862-0.641-1.292-0.965c-0.451-0.363-0.89-0.736-1.299-1.145c-0.375-0.377-0.75-0.752-1.126-1.127
	c0.355-0.36,0.724-0.704,1.12-1.023c0.278-0.207,0.564-0.401,0.85-0.598c0.329-0.23,0.651-0.471,0.979-0.703
	s0.655-0.464,0.986-0.693c0,0,0.001-0.001,0.001-0.001c0.002,0.334,0.003,0.668,0.006,1.002c0.002,0.214,0.09,0.41,0.231,0.553
	c-0.037,0.06-0.072,0.122-0.091,0.193c-0.106,0.389,0.13,0.878,0.547,0.961c0.474,0.095,0.964,0.124,1.445,0.181
	c0.251,0.038,0.5,0.082,0.746,0.145c0.277,0.07,0.552,0.149,0.827,0.227c0.483,0.137,0.955,0.291,1.419,0.479
	c0.516,0.236,0.998,0.53,1.488,0.818c0.485,0.285,0.954,0.589,1.408,0.923c0.641,0.515,1.203,1.13,1.716,1.772
	c0.205,0.271,0.407,0.544,0.582,0.834c0.148,0.245,0.258,0.515,0.369,0.78c-0.005-0.012-0.011-0.024-0.016-0.037
	c0.26,0.657,0.423,1.357,0.531,2.054C25.929,16.577,25.867,17.188,25.797,17.784z"/>
</svg>