<?xml version="1.0" encoding="utf-8"?>
<!-- Generator: Adobe Illustrator 21.1.0, SVG Export Plug-In . SVG Version: 6.00 Build 0)  -->
<svg version="1.1" id="designs" xmlns="http://www.w3.org/2000/svg" xmlns:xlink="http://www.w3.org/1999/xlink" x="0px" y="0px"
	 width="32px" height="32px" viewBox="0 0 32 32" style="enable-background:new 0 0 32 32;" xml:space="preserve">
<style type="text/css">
	.sketchy_een{fill:#111918;}
</style>
<path class="sketchy_een" d="M25.721,19.111c-0.042-0.168-0.086-0.334-0.134-0.5c-0.101-0.35-0.233-0.685-0.39-1.013
	c-0.296-0.618-0.709-1.145-1.133-1.68c-0.384-0.48-0.883-0.847-1.311-1.285c-0.214-0.22-0.419-0.445-0.638-0.659
	c-0.034-0.034-0.073-0.063-0.109-0.096c0-0.009,0.005-0.016,0.005-0.025c0-0.038-0.016-0.072-0.022-0.109
	c0.046-0.119,0.069-0.245,0.061-0.379c0.001,0.01,0.003,0.02,0.004,0.03c-0.057-0.686-0.054-1.38-0.084-2.066
	c-0.012-0.285-0.16-0.529-0.378-0.682c0.035-0.101,0.063-0.201,0.08-0.318c0.025-0.161,0.055-0.319,0.088-0.478
	c0.067-0.327,0.147-0.65,0.227-0.975c0.078-0.317,0.178-0.629,0.281-0.937c0.069-0.208,0.136-0.415,0.189-0.625
	c0.092-0.361,0.113-0.739,0.107-1.11c-0.004-0.256,0-0.543-0.09-0.782c-0.069-0.182-0.151-0.342-0.3-0.472
	c-0.075-0.063-0.161-0.126-0.243-0.186c-0.162-0.118-0.34-0.197-0.533-0.262c-0.218-0.073-0.447-0.119-0.669-0.18
	c-0.086-0.023-0.173-0.043-0.261-0.062c-0.003-0.132-0.006-0.264-0.012-0.395c-0.011-0.248-0.044-0.493-0.078-0.739
	c-0.033-0.231-0.153-0.425-0.306-0.595c-0.138-0.153-0.333-0.228-0.518-0.296c-0.168-0.063-0.352-0.139-0.529-0.164
	c-0.214-0.031-0.415-0.052-0.631-0.048c-0.197,0.003-0.398,0.036-0.594,0.053c-0.421,0.033-0.845,0.016-1.265,0.006
	c-0.203-0.004-0.403-0.015-0.606-0.021c-0.136-0.004-0.271-0.002-0.407,0c-0.09,0-0.18,0.002-0.269,0
	c-0.405-0.004-0.812-0.036-1.216-0.057C13.988,2.001,13.941,2,13.895,2c-0.17,0-0.343,0.016-0.506,0.048
	C13,2.122,12.681,2.42,12.562,2.793c-0.069,0.218-0.065,0.489-0.069,0.719c-0.006,0.249,0.01,0.499,0.013,0.75
	c0.004,0.273,0.011,0.548,0.015,0.822c0.002,0.152,0.006,0.305,0.007,0.457c-0.204,0.008-0.408,0.019-0.613,0.036
	c-0.291,0.023-0.579,0.059-0.868,0.1c-0.164,0.023-0.31,0.088-0.459,0.157c-0.155,0.071-0.262,0.233-0.357,0.359
	c-0.097,0.132-0.122,0.352-0.128,0.504c-0.002,0.113,0.029,0.228,0.05,0.338c0.046,0.228,0.13,0.447,0.201,0.669
	c0.082,0.258,0.136,0.526,0.191,0.792c0.067,0.31,0.136,0.615,0.21,0.923c0.042,0.169,0.107,0.333,0.164,0.499
	c-0.092,0.059-0.169,0.131-0.231,0.221c-0.064,0.038-0.131,0.069-0.183,0.122c-0.18,0.182-0.233,0.384-0.26,0.629
	c-0.055,0.493-0.078,0.984-0.113,1.478c-0.019,0.298,0.021,0.602,0.099,0.889c0.043,0.156,0.137,0.28,0.247,0.387
	c-0.317,0.295-0.624,0.602-0.939,0.899c-0.319,0.302-0.596,0.643-0.881,0.975c-0.344,0.399-0.682,0.799-0.986,1.231
	c-0.285,0.401-0.478,0.845-0.665,1.298c-0.157,0.376-0.302,0.757-0.443,1.137c-0.155,0.417-0.243,0.866-0.319,1.304
	c-0.166,0.952-0.105,1.942,0.096,2.882c0.055,0.26,0.149,0.516,0.233,0.769c0.103,0.31,0.233,0.608,0.367,0.906
	c0.105,0.237,0.233,0.469,0.356,0.698c0.218,0.401,0.554,0.692,0.87,1.011c0.392,0.397,0.766,0.803,1.183,1.176
	c0.333,0.296,0.69,0.562,1.088,0.765c0.296,0.153,0.604,0.279,0.912,0.407c-0.075-0.03-0.149-0.061-0.222-0.091
	c0.421,0.18,0.837,0.403,1.281,0.527c0.386,0.111,0.782,0.159,1.177,0.228c0.463,0.078,0.942,0.138,1.413,0.155
	c0.388,0.013,0.772,0.055,1.16,0.067c0.757,0.021,1.516,0.044,2.265-0.08c0.356-0.06,0.703-0.138,1.053-0.222
	c0.396-0.095,0.778-0.252,1.156-0.401c0.445-0.176,0.879-0.367,1.292-0.61c0.405-0.235,0.766-0.529,1.107-0.851
	c0.654-0.615,1.336-1.246,1.728-2.07c0.206-0.436,0.377-0.887,0.516-1.35c0.128-0.422,0.266-0.835,0.348-1.271
	c0.092-0.48,0.132-0.977,0.13-1.466c-0.002-0.218,0.002-0.438,0.008-0.655c0.008-0.289,0.059-0.578,0.084-0.864
	C25.873,19.803,25.803,19.441,25.721,19.111z M11.956,12.865c-0.005-0.027,0.002-0.055-0.006-0.082
	c-0.024-0.082-0.044-0.166-0.061-0.25c-0.03-0.387,0.017-0.781,0.071-1.168c1.137-0.041,2.275-0.083,3.414-0.087
	c1.279-0.005,2.561,0.004,3.834,0.153c-0.067-0.007-0.134-0.017-0.201-0.026c0.294,0.042,0.581,0.069,0.879,0.078
	c0.136,0.005,0.273,0.014,0.409,0.023c0.022,0.326,0.044,0.651,0.066,0.979c0.016,0.219,0.03,0.44,0.045,0.661
	c-0.188,0.01-0.375,0.014-0.564,0.013c-0.109-0.002-0.22-0.002-0.329-0.002c-0.331,0.004-0.659-0.011-0.99-0.019
	c-0.738-0.015-1.474,0-2.212-0.019C14.859,13.08,13.408,12.964,11.956,12.865z M20.848,6.141c0.002,0.012,0.003,0.024,0.005,0.036
	C20.851,6.165,20.849,6.152,20.848,6.141L20.848,6.141z M12.919,7.131c0.106,0.019,0.212,0.039,0.322,0.053
	c0.09,0.004,0.176-0.009,0.256-0.044C13.715,7.058,13.874,6.954,14,6.754c0.13-0.207,0.176-0.451,0.191-0.69
	c0.021-0.376-0.01-0.753-0.01-1.129c-0.002-0.312,0.011-0.622,0.021-0.933c0.003-0.099,0.005-0.198,0.009-0.297
	c0.215,0.012,0.43,0.038,0.641,0.059c0.436,0.044,0.875,0.061,1.311,0.086c0.449,0.025,0.898,0.035,1.348,0.019
	c0.349-0.013,0.695-0.038,1.042-0.012c0.059,0.014,0.116,0.032,0.173,0.052c0.004,0.025,0.008,0.049,0.012,0.074
	c0.025,0.215,0.044,0.431,0.038,0.648c-0.006,0.163-0.006,0.287,0.025,0.459c0.031,0.17,0.153,0.302,0.252,0.432
	c0.099,0.126,0.317,0.212,0.459,0.262c0.151,0.051,0.325,0.063,0.482,0.094c0.236,0.047,0.483,0.109,0.713,0.19
	c0.045,0.022,0.089,0.045,0.132,0.07c0.022,0.242,0.033,0.479,0.015,0.723c-0.099,0.545-0.312,1.069-0.432,1.611
	c-0.061,0.285-0.12,0.568-0.176,0.853c-0.041,0.206-0.075,0.415-0.135,0.616c-0.004,0.007-0.009,0.013-0.013,0.02
	c-0.146-0.008-0.293-0.013-0.439-0.019c-0.367-0.017-0.734-0.025-1.101-0.05c-0.78-0.053-1.558-0.051-2.338-0.049
	c-0.77,0-1.541-0.006-2.309-0.025c-0.408-0.009-0.815-0.014-1.222-0.021c-0.105-0.273-0.212-0.548-0.29-0.828
	c-0.086-0.304-0.168-0.608-0.249-0.912c-0.081-0.301-0.185-0.598-0.275-0.898C12.223,7.12,12.571,7.105,12.919,7.131z
	 M11.467,27.176c-0.001,0-0.003-0.001-0.004-0.002c0.072,0.031,0.144,0.061,0.217,0.091C11.609,27.236,11.538,27.206,11.467,27.176z
	 M23.946,20.293c-0.054,0.362-0.105,0.726-0.118,1.092c-0.01,0.315-0.022,0.629-0.052,0.943c-0.064,0.38-0.158,0.749-0.286,1.117
	c-0.118,0.336-0.222,0.678-0.35,1.008c-0.167,0.373-0.344,0.732-0.575,1.069c-0.208,0.255-0.431,0.499-0.667,0.727
	c-0.234,0.228-0.459,0.459-0.708,0.667c-0.31,0.215-0.638,0.395-0.983,0.55c-0.316,0.129-0.639,0.25-0.966,0.342
	c-0.322,0.091-0.662,0.15-0.996,0.199c-0.616,0.073-1.236,0.085-1.857,0.089c-0.375,0.002-0.742-0.044-1.116-0.065
	c-0.358-0.021-0.712-0.021-1.069-0.059c-0.445-0.071-0.89-0.153-1.328-0.263c-0.216-0.053-0.422-0.151-0.627-0.237
	c-0.26-0.109-0.521-0.205-0.785-0.302c-0.248-0.111-0.486-0.252-0.707-0.409c-0.319-0.26-0.622-0.543-0.913-0.834
	c-0.157-0.155-0.312-0.313-0.47-0.468c-0.199-0.193-0.416-0.36-0.599-0.569c-0.249-0.356-0.457-0.739-0.638-1.133
	c-0.164-0.427-0.308-0.854-0.395-1.304c-0.055-0.542-0.069-1.08-0.025-1.624c0.063-0.394,0.148-0.782,0.261-1.165
	c0.113-0.379,0.265-0.747,0.417-1.115c0.09-0.205,0.182-0.408,0.283-0.607c0.1-0.201,0.233-0.385,0.367-0.567
	c0.373-0.462,0.773-0.914,1.185-1.343c0.216-0.224,0.447-0.426,0.682-0.629c0.275-0.237,0.541-0.487,0.812-0.728
	c0.075-0.066,0.125-0.148,0.164-0.235c0.674,0.024,1.348,0.044,2.024,0.051c0.801,0.008,1.602,0.075,2.403,0.084
	c0.361,0.004,0.723,0.009,1.082,0.013c0.099,0.002,0.201,0.002,0.3,0c0.277,0,0.554-0.002,0.83,0.029
	c0.327,0.038,0.661,0.057,0.99,0.063c0.183,0.004,0.365,0.004,0.549,0.004c0.094,0,0.188,0,0.283,0.001
	c0.177,0.159,0.356,0.316,0.527,0.482c0.21,0.205,0.396,0.432,0.598,0.644c0.404,0.424,0.833,0.819,1.206,1.271
	c0.185,0.259,0.366,0.517,0.532,0.788c0.16,0.264,0.281,0.549,0.402,0.833c-0.019-0.045-0.038-0.09-0.056-0.135
	c0.019,0.046,0.038,0.091,0.057,0.137c0,0,0,0.001,0,0.001h0l0,0c0.15,0.37,0.278,0.748,0.35,1.142
	C23.97,20.002,23.962,20.146,23.946,20.293z M23.611,18.711l-0.001-0.002C23.611,18.709,23.611,18.711,23.611,18.711
	C23.612,18.712,23.612,18.711,23.611,18.711z M18.358,21.945c0.031,0.142,0.069,0.296,0.067,0.442
	c-0.004,0.382-0.105,0.736-0.333,1.043c-0.22,0.298-0.52,0.553-0.841,0.738c-0.258,0.149-0.531,0.256-0.82,0.323
	c-0.029,0.175-0.061,0.35-0.089,0.525c-0.004,0.066-0.002,0.13,0.006,0.195c0.027,0.207-0.105,0.451-0.243,0.588
	c-0.157,0.157-0.369,0.245-0.589,0.245c-0.22,0-0.434-0.088-0.589-0.245c-0.164-0.164-0.226-0.361-0.245-0.588
	c-0.013-0.191,0.013-0.378,0.038-0.57c0.008-0.064,0.018-0.128,0.027-0.192c-0.178-0.048-0.352-0.112-0.525-0.192
	c-0.166-0.078-0.327-0.164-0.485-0.254c-0.352-0.193-0.464-0.667-0.264-1.005c0.212-0.365,0.646-0.442,1.005-0.266
	c0.097,0.048,0.194,0.096,0.292,0.14c0.147,0.054,0.293,0.094,0.445,0.123c0.224,0.013,0.446,0.008,0.669-0.01
	c0.103-0.02,0.204-0.046,0.303-0.08c0.118-0.062,0.228-0.132,0.335-0.209c0.073-0.063,0.142-0.128,0.208-0.197
	c0.017-0.027,0.033-0.054,0.048-0.082c0-0.021,0-0.043-0.001-0.065c-0.012-0.055-0.026-0.108-0.043-0.162
	c-0.03-0.058-0.062-0.113-0.098-0.168c-0.043-0.048-0.087-0.094-0.133-0.138c-0.02-0.012-0.039-0.023-0.06-0.034
	c-0.385-0.122-0.794-0.157-1.192-0.215c-0.227-0.032-0.455-0.074-0.679-0.124c-0.191-0.042-0.378-0.082-0.552-0.174
	c-0.21-0.109-0.365-0.241-0.507-0.428c-0.084-0.113-0.172-0.262-0.203-0.399c-0.076-0.327-0.147-0.688-0.031-1.017
	c0.08-0.224,0.161-0.426,0.317-0.608c0.103-0.121,0.22-0.21,0.35-0.304c0.361-0.261,0.784-0.406,1.217-0.502
	c-0.014-0.119-0.025-0.238-0.041-0.356c-0.018-0.119-0.037-0.237-0.058-0.355c-0.046-0.241-0.04-0.462,0.088-0.682
	c0.117-0.197,0.308-0.346,0.529-0.407c0.077-0.021,0.156-0.031,0.234-0.031c0.156,0,0.312,0.041,0.448,0.121
	c0.182,0.105,0.373,0.313,0.407,0.529c0.058,0.363,0.094,0.729,0.123,1.097c0.239,0.027,0.478,0.066,0.715,0.113
	c0.463,0.09,0.723,0.635,0.604,1.062c-0.13,0.472-0.604,0.706-1.065,0.604c-0.238-0.052-0.474-0.095-0.715-0.131
	c-0.298-0.029-0.591-0.049-0.891-0.027c-0.168,0.031-0.331,0.073-0.493,0.129c-0.091,0.046-0.178,0.098-0.263,0.155
	c-0.002,0.007-0.004,0.015-0.006,0.021c0,0.017,0.001,0.034,0.002,0.051c0.001,0.004,0.002,0.009,0.003,0.014
	c0.426,0.136,0.882,0.196,1.321,0.265c0.208,0.033,0.419,0.061,0.627,0.098c0.34,0.057,0.648,0.193,0.902,0.436
	c0.205,0.197,0.398,0.428,0.524,0.685C18.24,21.619,18.322,21.779,18.358,21.945z"/>
</svg>