<?xml version="1.0" encoding="utf-8"?>
<!-- Generator: Adobe Illustrator 21.1.0, SVG Export Plug-In . SVG Version: 6.00 Build 0)  -->
<svg version="1.1" id="designs" xmlns="http://www.w3.org/2000/svg" xmlns:xlink="http://www.w3.org/1999/xlink" x="0px" y="0px"
	 width="32px" height="32px" viewBox="0 0 32 32" style="enable-background:new 0 0 32 32;" xml:space="preserve">
<style type="text/css">
	.sketchy_een{fill:#111918;}
</style>
<path class="sketchy_een" d="M30.949,26.958c-0.039-0.689-0.018-1.378-0.02-2.068c0-0.776-0.047-1.551-0.053-2.327
	c-0.014-1.601,0.022-3.203,0.065-4.804c0.014-0.574,0.043-1.149,0.059-1.723c0.011-0.365-0.242-0.675-0.569-0.796
	c-0.167-0.2-0.408-0.335-0.686-0.34c-0.031-0.001-0.062-0.001-0.093-0.001c-0.312,0-0.625,0.034-0.936,0.034
	c-0.379,0.002-0.758,0.012-1.137,0.01c-0.784-0.002-1.567,0.01-2.351,0.022c-0.257,0.004-0.514,0.008-0.771,0.012
	c0.218-0.257,0.424-0.523,0.603-0.815c0.241-0.391,0.442-0.801,0.622-1.222c0.118-0.27,0.229-0.539,0.31-0.821
	c0.089-0.304,0.13-0.62,0.16-0.937c0.049-0.539,0.075-1.078,0.099-1.618c0.014-0.294-0.141-0.549-0.362-0.724
	c-0.159-0.19-0.384-0.321-0.64-0.305c-0.199,0.012-0.396,0.047-0.594,0.078c-0.529,0.058-1.058,0.075-1.589,0.089
	c-0.017-0.202-0.033-0.404-0.051-0.605c-0.012-0.144-0.026-0.29-0.043-0.434c-0.02-0.195-0.049-0.387-0.095-0.578
	c-0.057-0.223-0.195-0.436-0.343-0.61c-0.482-0.576-1.257-0.598-1.948-0.598c-0.245,0-0.503,0.034-0.734,0.12
	c-0.499,0.182-0.902,0.6-1.007,1.133c-0.106,0.546-0.077,1.118-0.038,1.672c-0.209,0.003-0.417,0.007-0.626,0.009
	c0.01-0.09,0.024-0.179,0.031-0.269c0.018-0.253,0.02-0.509,0.026-0.764c0.01-0.499,0.018-0.999,0.014-1.498
	c-0.002-0.446-0.049-0.898-0.209-1.318c-0.051-0.13-0.103-0.261-0.17-0.385c-0.15-0.28-0.416-0.491-0.716-0.586
	c-0.217-0.068-0.448-0.078-0.671-0.102c-0.168-0.023-0.334-0.043-0.504-0.043c-0.027,0-0.054,0.001-0.081,0.002
	c-0.243,0.008-0.495,0.036-0.728,0.105c-0.414,0.124-0.76,0.353-0.991,0.722c-0.18,0.288-0.251,0.661-0.264,0.993
	c-0.008,0.237,0.008,0.476,0.03,0.714c0.02,0.227,0.03,0.456,0.053,0.683c0.052,0.575,0.111,1.149,0.185,1.721
	c-0.321-0.006-0.642-0.007-0.963-0.02c-0.01,0-0.019-0.001-0.028-0.002c-0.036-0.558-0.033-1.123-0.152-1.671
	c-0.063-0.282-0.215-0.562-0.403-0.778c-0.178-0.205-0.434-0.339-0.697-0.397C11.77,5.879,11.6,5.864,11.43,5.864
	c-0.249,0-0.497,0.032-0.75,0.065c-0.189,0.026-0.363,0.103-0.535,0.178C10.056,6.144,9.969,6.187,9.89,6.246
	C9.778,6.331,9.659,6.412,9.572,6.523c-0.15,0.193-0.247,0.341-0.322,0.58C9.152,7.415,9.213,7.78,9.217,8.1
	c0.003,0.167,0.001,0.334,0,0.501C8.659,8.564,8.102,8.521,7.549,8.453C7.53,8.451,7.512,8.45,7.493,8.45
	c-0.198,0-0.417,0.121-0.546,0.253c-0.16,0.158-0.249,0.377-0.249,0.602c0,0.13,0.038,0.254,0.094,0.369
	C6.735,9.792,6.699,9.92,6.707,10.057c0.032,0.6,0.075,1.194,0.162,1.79c0.028,0.209,0.057,0.418,0.105,0.622
	c0.073,0.312,0.176,0.594,0.304,0.89c0.164,0.379,0.357,0.75,0.547,1.117c0.071,0.136,0.146,0.272,0.233,0.397
	c0.042,0.059,0.087,0.101,0.13,0.15C7.559,15.019,6.928,15.005,6.298,15c-0.608-0.008-1.214-0.024-1.82-0.043
	c-0.32-0.012-0.641-0.004-0.961,0c-0.511,0.008-1.022,0.047-1.53,0c-0.217-0.018-0.462,0.105-0.612,0.253
	c-0.162,0.162-0.253,0.385-0.253,0.612c0,0.129,0.035,0.252,0.089,0.367c-0.075,0.12-0.13,0.253-0.129,0.403
	c0.002,0.789,0.006,1.575-0.016,2.366c-0.02,0.716-0.026,1.435-0.03,2.153c-0.004,0.782-0.049,1.565-0.03,2.347
	c0.014,0.679,0.041,1.36,0.069,2.037c0.018,0.436,0.012,0.872,0.022,1.305c0.003,0.139,0.048,0.264,0.111,0.379
	c0.01,0.203,0.089,0.4,0.234,0.544c0.162,0.162,0.357,0.223,0.58,0.241c0.827,0.061,1.648,0.018,2.475-0.018
	c0.752-0.034,1.51-0.036,2.264-0.036c0.355,0.002,0.703,0.01,1.056,0.043c0.379,0.036,0.758,0.053,1.137,0.063
	c0.811,0.02,1.624-0.014,2.435-0.016c0.379-0.002,0.758,0.024,1.137,0.045c0.385,0.022,0.774,0.014,1.162,0.002
	c0.817-0.026,1.634-0.03,2.451-0.026c1.583,0.008,3.168,0.053,4.751,0c0.568-0.016,1.135-0.016,1.705-0.014
	c0.257,0,0.513,0,0.77-0.002c0.47-0.002,0.941,0,1.413,0c0.353,0,0.705,0,1.06-0.002c0.724-0.002,1.447,0.01,2.171,0.051
	c0.363,0.02,0.73,0.034,1.093,0.063c0.324,0.024,0.659,0.059,0.983,0.024c0.016-0.002,0.032-0.004,0.047-0.006
	c0.075-0.01,0.15-0.02,0.225-0.03c0.142-0.039,0.266-0.111,0.371-0.217c0.158-0.156,0.247-0.373,0.247-0.594
	c0-0.077-0.024-0.149-0.044-0.222C30.933,27.032,30.951,26.998,30.949,26.958z M20.402,7.451c0.028-0.008,0.057-0.015,0.086-0.022
	c0.24-0.017,0.49-0.006,0.73,0.014c0.05,0.01,0.099,0.022,0.148,0.036c0.006,0.006,0.012,0.011,0.018,0.017
	c0.006,0.009,0.011,0.018,0.017,0.027c0.027,0.087,0.046,0.175,0.062,0.266c0.037,0.317,0.061,0.636,0.069,0.955
	c-0.365,0.01-0.729,0.021-1.094,0.03c-0.038-0.422-0.083-0.848-0.048-1.27C20.393,7.487,20.398,7.469,20.402,7.451z M15.562,5.505
	c0.009-0.005,0.019-0.01,0.028-0.015c0.055-0.018,0.11-0.033,0.166-0.045c0.128-0.009,0.257-0.01,0.385,0
	c0.12,0.018,0.239,0.036,0.359,0.053c0.008,0.002,0.016,0.003,0.024,0.004c0.043,0.127,0.077,0.257,0.101,0.389
	c0.051,0.53,0.033,1.067,0.027,1.598c-0.006,0.444-0.015,0.885-0.051,1.325c-0.248-0.001-0.497-0.002-0.745-0.004
	c0.007-0.1,0-0.202-0.017-0.314c-0.033-0.231-0.073-0.46-0.109-0.691c-0.048-0.38-0.086-0.76-0.108-1.141
	c-0.021-0.367-0.086-0.736-0.074-1.105C15.553,5.541,15.557,5.523,15.562,5.505z M15.1,10.395c0.809,0.004,1.616,0.002,2.424-0.002
	c0.31,0,0.624,0,0.937,0.002c0.381,0.002,0.764,0.006,1.145,0c0.701-0.006,1.401-0.018,2.102-0.012
	c0.669,0.004,1.34,0.051,2.007,0.028c0.211-0.006,0.42-0.031,0.629-0.054c-0.005,0.348-0.015,0.696-0.049,1.042
	c-0.09,0.454-0.234,0.884-0.403,1.315c-0.203,0.46-0.433,0.909-0.73,1.318c-0.066,0.08-0.132,0.16-0.2,0.238
	c-0.089,0.103-0.147,0.216-0.186,0.338c-0.043,0.016-0.09,0.012-0.13,0.037c-0.105,0.069-0.211,0.138-0.316,0.207
	c-0.089,0.06-0.163,0.134-0.223,0.216c-0.613,0.026-1.227,0.038-1.84,0.038c-0.878,0-1.753,0.016-2.631,0.016
	c-0.843,0-1.682-0.02-2.524-0.055c-0.815-0.034-1.632-0.047-2.449-0.059c-0.37-0.006-0.739,0.001-1.108,0.004
	c-0.062-0.035-0.12-0.077-0.192-0.093c-0.113-0.025-0.219-0.059-0.324-0.098c-0.255-0.118-0.493-0.255-0.724-0.414
	c-0.201-0.163-0.397-0.333-0.601-0.492c0.033,0.026,0.066,0.051,0.099,0.077c-0.067-0.054-0.134-0.11-0.194-0.171
	c-0.117-0.182-0.216-0.378-0.317-0.569c-0.149-0.277-0.297-0.557-0.427-0.843c-0.14-0.38-0.223-0.776-0.286-1.176
	c-0.028-0.335-0.028-0.672-0.038-1.008c0.559,0.03,1.118,0.048,1.677,0.053c0.387,0.002,0.772,0.03,1.159,0.043
	c0.385,0.012,0.772,0.002,1.157,0.024C13.397,10.393,14.248,10.391,15.1,10.395z M11.604,7.466c0.011,0.008,0.023,0.017,0.034,0.027
	c-0.012-0.009-0.024-0.018-0.036-0.027C11.602,7.465,11.603,7.465,11.604,7.466z M10.94,7.468c-0.011,0.005-0.022,0.009-0.033,0.014
	h0C10.918,7.477,10.929,7.473,10.94,7.468z M10.879,7.493c0.009-0.004,0.018-0.008,0.027-0.011l0,0
	c-0.01,0.004-0.02,0.008-0.03,0.013C10.877,7.495,10.878,7.494,10.879,7.493z M10.819,7.524c0.078-0.025,0.156-0.045,0.236-0.06
	c0.155-0.017,0.309-0.029,0.465-0.02c0.002,0.001,0.004,0.001,0.005,0.001c0.002,0.003,0.004,0.006,0.005,0.01
	c0.028,0.088,0.049,0.177,0.066,0.268c0.033,0.32,0.036,0.644,0.044,0.965c-0.065-0.002-0.129-0.004-0.193-0.006
	c-0.162-0.004-0.324-0.004-0.484-0.002c-0.045,0.001-0.09,0-0.134,0c-0.005-0.159-0.008-0.319-0.014-0.478
	c-0.009-0.219-0.029-0.443-0.02-0.664C10.802,7.533,10.811,7.528,10.819,7.524z M13.481,26.497
	c-0.383,0.004-0.768-0.006-1.151-0.018c-0.383-0.012-0.766-0.024-1.149-0.02c-0.381,0.002-0.762,0.018-1.143,0.022
	c-0.407,0.002-0.817-0.004-1.224-0.006c-0.361,0-0.716-0.034-1.074-0.075c-0.349-0.041-0.693-0.041-1.044-0.041
	c-0.746,0-1.49-0.006-2.234,0.018c-0.585,0.021-1.166,0.01-1.748-0.018c0.008-0.4,0.019-0.802,0.004-1.2
	c-0.026-0.701-0.059-1.405-0.065-2.106c-0.006-0.803,0.004-1.607,0.012-2.41c0.004-0.353-0.014-0.707-0.016-1.06
	c-0.004-0.357-0.004-0.712-0.008-1.066c-0.004-0.608,0.014-1.219,0.017-1.827c0.394-0.013,0.788-0.04,1.178-0.066
	c0.201-0.014,0.401-0.028,0.602-0.032c0.201-0.006,0.403,0.014,0.604,0.016c0.426,0.006,0.853,0.004,1.279,0.002
	c0.428,0,0.853-0.002,1.281,0.002c0.872,0.008,1.743-0.004,2.615-0.008c0.253,0,0.508,0.006,0.763,0.01
	c0.101,0.012,0.2,0.017,0.294,0.004c0.045,0.001,0.09,0.001,0.135,0.002c0.418,0.008,0.835,0.016,1.255,0.014
	c0.709-0.004,1.419,0.019,2.128,0.039c-0.001,1.741,0.048,3.483,0.044,5.224c-0.002,0.813,0.004,1.624,0.014,2.437
	c0.004,0.405,0.008,0.811,0.01,1.216c0,0.311,0.008,0.622,0.005,0.932C14.404,26.487,13.942,26.493,13.481,26.497z M28.946,26.483
	c-0.365-0.02-0.73-0.043-1.095-0.059c-0.375-0.014-0.752-0.057-1.125-0.047c-0.365,0.008-0.732,0.004-1.097,0.004
	c-1.656,0-3.316-0.039-4.97,0.028c-1.362,0.057-2.726,0.051-4.089,0.056c-0.002-0.305,0.003-0.611,0.003-0.917
	c0-0.405,0.006-0.811,0.01-1.216c0.008-0.813,0.014-1.624,0.012-2.437c-0.004-1.73,0.033-3.459,0.061-5.188
	c0.326,0.006,0.652,0.02,0.979,0.019c0.878-0.002,1.755,0.016,2.631,0.016c0.821,0.002,1.644,0.026,2.463-0.014
	c1.232-0.061,2.461,0.004,3.691,0.012c0.586,0.004,1.17,0.008,1.755-0.004c0.28-0.006,0.559-0.022,0.839-0.024
	c0.091-0.001,0.181-0.004,0.272-0.004c-0.006,0.657-0.008,1.314-0.015,1.971c-0.008,0.787-0.039,1.569-0.028,2.355
	c0.01,0.789,0.012,1.579,0.043,2.366c0.028,0.75,0.055,1.5,0.059,2.25c0.001,0.283,0.006,0.565,0.009,0.848
	C29.218,26.496,29.081,26.491,28.946,26.483z M13.154,20.495c-0.032,0.45-0.079,0.9-0.099,1.352
	c-0.012,0.268,0.008,0.525,0.02,0.791c0.022,0.489-0.424,0.898-0.896,0.898c-0.489,0-0.896-0.409-0.896-0.898
	c0-0.264,0.03-0.527,0.036-0.791c0.012-0.45,0.041-0.902,0.069-1.352c0.03-0.48,0.379-0.884,0.884-0.884
	C12.727,19.611,13.189,20.015,13.154,20.495z M19.744,20.698c-0.018,0.624-0.045,1.249-0.055,1.873c-0.01,0.491-0.403,0.9-0.9,0.9
	c-0.486,0-0.908-0.409-0.9-0.9c0.008-0.624,0.006-1.249,0.014-1.873c0.006-0.503,0.414-0.92,0.92-0.92
	C19.314,19.778,19.758,20.195,19.744,20.698z"/>
</svg>