<?xml version="1.0" encoding="utf-8"?>
<!-- Generator: Adobe Illustrator 21.1.0, SVG Export Plug-In . SVG Version: 6.00 Build 0)  -->
<svg version="1.1" id="designs" xmlns="http://www.w3.org/2000/svg" xmlns:xlink="http://www.w3.org/1999/xlink" x="0px" y="0px"
	 width="32px" height="32px" viewBox="0 0 32 32" style="enable-background:new 0 0 32 32;" xml:space="preserve">
<style type="text/css">
	.sketchy_een{fill:#111918;}
</style>
<path class="sketchy_een" d="M30.643,9.19c-0.089-0.321-0.411-0.587-0.751-0.607C29.668,8.273,29.46,7.95,29.234,7.64
	c-0.284-0.39-0.55-0.794-0.84-1.183c-0.31-0.416-0.618-0.837-0.928-1.253c-0.313-0.42-0.648-0.824-0.974-1.232
	c-0.561-0.729-1.11-1.465-1.673-2.192c-0.061-0.078-0.156-0.135-0.258-0.175c-0.019-0.055-0.026-0.113-0.056-0.163
	c-0.116-0.2-0.31-0.348-0.532-0.41C23.895,1.011,23.809,1,23.721,1c-0.156,0-0.317,0.037-0.436,0.123
	c-0.33,0.234-0.624,0.524-0.917,0.802c-0.262,0.248-0.514,0.506-0.762,0.768c-0.574,0.61-1.195,1.171-1.797,1.751
	c-0.606,0.582-1.187,1.188-1.789,1.773c-0.616,0.6-1.247,1.185-1.885,1.763c-0.636,0.576-1.267,1.157-1.889,1.751
	c-0.624,0.596-1.287,1.153-1.937,1.723c-0.648,0.566-1.255,1.183-1.889,1.767c-0.64,0.592-1.291,1.171-1.901,1.795
	c-1.125,1.157-2.291,2.271-3.452,3.392c-0.57,0.554-1.137,1.115-1.723,1.651c-0.6,0.55-1.189,1.111-1.777,1.673
	c-0.322,0.31-0.31,0.848,0,1.159c0.082,0.081,0.177,0.14,0.278,0.179c0.018,0.053,0.023,0.115,0.056,0.157
	c0.324,0.428,0.648,0.856,0.993,1.269c0.09,0.109,0.22,0.168,0.357,0.202c0.004,0.007,0.003,0.015,0.008,0.022
	c0.222,0.378,0.726,0.514,1.105,0.29c0.754-0.444,1.491-0.914,2.225-1.389c0.658-0.422,1.357-0.776,2.025-1.183
	c0.7-0.426,1.391-0.868,2.107-1.269c0.718-0.4,1.441-0.789,2.145-1.211c0.712-0.428,1.395-0.903,2.105-1.329
	c0.154-0.092,0.314-0.175,0.47-0.264c-0.114,0.301-0.227,0.601-0.349,0.899c-0.146,0.358-0.296,0.712-0.426,1.077
	c-0.128,0.348-0.248,0.7-0.37,1.051c-0.26,0.73-0.518,1.463-0.782,2.191c-0.252,0.698-0.47,1.409-0.734,2.101
	c-0.14,0.37-0.27,0.742-0.406,1.113c-0.134,0.366-0.28,0.727-0.412,1.093c-0.211,0.584-0.395,1.177-0.634,1.75
	c-0.009,0.019-0.019,0.038-0.03,0.057c-0.218,0.362-0.084,0.85,0.278,1.061c0.178,0.106,0.398,0.134,0.598,0.08
	c0.174-0.05,0.386-0.184,0.462-0.358c0.13-0.294,0.208-0.608,0.308-0.915c0.092-0.282,0.184-0.564,0.274-0.846
	c0.116-0.354,0.254-0.702,0.388-1.051c0.13-0.338,0.244-0.684,0.37-1.023c0.532-1.431,1.043-2.871,1.583-4.3
	c0.196-0.518,0.394-1.035,0.594-1.551c-0.001,0.423,0.003,0.847,0,1.271c-0.006,0.81-0.002,1.619-0.004,2.429
	c-0.002,0.796,0.018,1.593,0,2.389c-0.01,0.496-0.036,0.995-0.06,1.491c-0.028,0.504-0.042,1.009-0.078,1.513
	c-0.03,0.428,0.382,0.786,0.788,0.786c0.418,0,0.8-0.358,0.786-0.786c-0.01-0.368,0.016-0.736,0.036-1.104
	c0.02-0.37,0.012-0.74,0.022-1.111c0.02-0.794,0.026-1.591,0.02-2.385c-0.01-1.651-0.004-3.304,0.02-4.955
	c0.002-0.165,0.006-0.329,0.008-0.494c0.073,0.167,0.148,0.334,0.221,0.501c0.168,0.386,0.348,0.766,0.516,1.153
	c0.181,0.416,0.357,0.834,0.534,1.252c0.186,0.452,0.362,0.909,0.557,1.359c0.179,0.419,0.373,0.83,0.552,1.249
	c0.225,0.551,0.432,1.108,0.634,1.668c0.104,0.288,0.208,0.578,0.31,0.866c0.102,0.289,0.223,0.57,0.344,0.852
	c0.003,0.007,0.006,0.014,0.009,0.021c0.013,0.031,0.026,0.062,0.04,0.093c-0.009-0.021-0.018-0.042-0.028-0.064
	c0.225,0.548,0.425,1.106,0.654,1.652c0.082,0.192,0.162,0.346,0.35,0.456c0.176,0.102,0.392,0.13,0.588,0.076
	c0.19-0.052,0.356-0.18,0.454-0.35c0.07-0.118,0.104-0.246,0.104-0.384s-0.034-0.266-0.104-0.384
	c-0.05-0.117-0.104-0.231-0.154-0.346c-0.092-0.218-0.186-0.434-0.279-0.653c0.005,0.011,0.009,0.023,0.014,0.034
	c-0.111-0.267-0.223-0.534-0.334-0.8c0.004,0.009,0.008,0.018,0.012,0.027c-0.316-0.758-0.578-1.537-0.868-2.305
	c-0.33-0.866-0.719-1.707-1.097-2.554c-0.035-0.083-0.071-0.165-0.106-0.248c0.024,0.056,0.05,0.114,0.074,0.172
	c-0.189-0.464-0.379-0.927-0.572-1.388c-0.304-0.721-0.615-1.437-0.921-2.156c-0.192-0.473-0.379-0.948-0.576-1.42
	c0.002,0.005,0.004,0.01,0.006,0.015c-0.088-0.21-0.176-0.42-0.266-0.63c0.026,0.06,0.052,0.122,0.078,0.182
	c-0.077-0.184-0.156-0.368-0.233-0.551c-0.014-0.033-0.028-0.066-0.042-0.099c-0.002-0.004-0.003-0.008-0.005-0.012
	c-0.009-0.021-0.017-0.041-0.026-0.061c-0.005-0.012-0.011-0.025-0.016-0.037c0.005,0.011,0.009,0.021,0.014,0.032
	c-0.027-0.059-0.059-0.11-0.092-0.161c0.419-0.241,0.838-0.483,1.259-0.719c0.722-0.404,1.455-0.786,2.185-1.177
	c1.359-0.726,2.719-1.453,4.076-2.183c0.312-0.168,0.63-0.328,0.951-0.482c0.132-0.064,0.266-0.126,0.398-0.19
	c0.156-0.074,0.298-0.178,0.446-0.266c0.312-0.184,0.64-0.336,0.954-0.516c0.138-0.078,0.272-0.156,0.408-0.236
	c0.17-0.1,0.322-0.224,0.477-0.344c0.143-0.109,0.287-0.217,0.435-0.318c0.2-0.14,0.416-0.242,0.636-0.344
	C30.595,9.967,30.733,9.521,30.643,9.19z M16.094,16.25c-0.447-0.606-0.856-1.239-1.257-1.877c-0.408-0.654-0.819-1.309-1.191-1.986
	c0.166-0.148,0.326-0.304,0.495-0.449c0.004-0.004,0.008-0.008,0.012-0.011c0.446,0.6,0.895,1.196,1.337,1.799
	c0.244,0.334,0.486,0.668,0.716,1.013c0.228,0.34,0.479,0.661,0.734,0.982c0.008,0.011,0.015,0.022,0.023,0.033
	C16.674,15.92,16.384,16.085,16.094,16.25z M4.037,23.33c-0.236-0.313-0.467-0.628-0.701-0.943
	c-0.015-0.021-0.034-0.035-0.049-0.054c0.391-0.389,0.781-0.777,1.175-1.162c0.353,0.432,0.713,0.859,1.082,1.277
	C5.044,22.746,4.54,23.038,4.037,23.33z M11.16,19.22c-0.606,0.352-1.229,0.674-1.833,1.026c-0.632,0.368-1.243,0.774-1.879,1.133
	c-0.182,0.103-0.364,0.206-0.548,0.307c-0.252-0.306-0.513-0.603-0.759-0.914c-0.186-0.239-0.373-0.477-0.559-0.716
	c0.284-0.284,0.57-0.565,0.853-0.849c0.626-0.628,1.271-1.237,1.907-1.853c0.646-0.626,1.265-1.279,1.913-1.903
	c0.602-0.58,1.249-1.119,1.867-1.683c0.106-0.098,0.214-0.193,0.32-0.29c0.332,0.549,0.688,1.084,1.056,1.609
	c0.446,0.633,0.9,1.261,1.356,1.889c-0.527,0.306-1.054,0.609-1.568,0.941C12.589,18.365,11.881,18.802,11.16,19.22z M25.182,11.204
	c-0.354,0.186-0.704,0.376-1.057,0.566c-1.479,0.792-2.946,1.601-4.41,2.413c-0.485,0.27-0.965,0.548-1.445,0.824
	c-0.204-0.252-0.415-0.498-0.618-0.75c-0.392-0.536-0.746-1.098-1.127-1.642c-0.403-0.578-0.808-1.156-1.216-1.732
	c0.225-0.21,0.45-0.42,0.678-0.627c0.642-0.586,1.295-1.163,1.941-1.743c0.55-0.496,1.095-1,1.631-1.511
	c0.556-0.53,1.095-1.077,1.661-1.599c0.165-0.154,0.333-0.307,0.501-0.459c0.635,0.811,1.269,1.623,1.915,2.424
	c0.685,0.847,1.42,1.651,2.09,2.508c-0.014-0.019-0.029-0.038-0.043-0.057c0.028,0.037,0.057,0.074,0.085,0.112
	c0.009,0.011,0.018,0.023,0.027,0.035c-0.006-0.008-0.012-0.016-0.018-0.023c0.167,0.22,0.336,0.438,0.506,0.655
	c-0.044,0.027-0.089,0.053-0.133,0.08C25.838,10.871,25.506,11.033,25.182,11.204z M28.012,9.58
	c0.009-0.007,0.018-0.014,0.027-0.021c-0.147,0.114-0.307,0.208-0.471,0.297c-0.109-0.118-0.222-0.233-0.324-0.359
	c-0.256-0.318-0.506-0.644-0.766-0.958c-0.509-0.616-1.051-1.201-1.554-1.82c-0.706-0.932-1.38-1.889-2.086-2.821
	c0.008-0.008,0.016-0.016,0.025-0.023c0.234-0.216,0.462-0.44,0.702-0.652c0.06-0.053,0.12-0.107,0.178-0.162
	c0.448,0.567,0.895,1.139,1.359,1.695c0.417,0.5,0.846,0.987,1.25,1.497c0.144,0.188,0.286,0.374,0.431,0.562
	c-0.038-0.052-0.078-0.102-0.118-0.154c0.243,0.313,0.489,0.622,0.732,0.934c0.4,0.523,0.778,1.06,1.159,1.596
	C28.374,9.318,28.19,9.445,28.012,9.58z M25.777,9.942c-0.017-0.022-0.034-0.044-0.051-0.066c0.014,0.018,0.028,0.036,0.042,0.054
	C25.772,9.935,25.774,9.938,25.777,9.942z M18.25,17.34c-0.015-0.035-0.03-0.07-0.045-0.105c-0.011-0.026-0.022-0.053-0.033-0.079
	C18.198,17.218,18.224,17.278,18.25,17.34z M20.125,21.814c-0.003-0.006-0.005-0.013-0.008-0.019
	c-0.022-0.052-0.042-0.104-0.064-0.155C20.077,21.698,20.101,21.756,20.125,21.814z M21.359,28.738
	c0.001,0.003,0.002,0.006,0.004,0.009c-0.01-0.024-0.02-0.048-0.029-0.071C21.342,28.696,21.35,28.717,21.359,28.738z
	 M21.368,28.759c0.004,0.01,0.008,0.019,0.012,0.029c-0.006-0.014-0.012-0.027-0.017-0.041
	C21.364,28.751,21.366,28.755,21.368,28.759z"/>
</svg>