<?xml version="1.0" encoding="utf-8"?>
<!-- Generator: Adobe Illustrator 21.1.0, SVG Export Plug-In . SVG Version: 6.00 Build 0)  -->
<svg version="1.1" id="designs" xmlns="http://www.w3.org/2000/svg" xmlns:xlink="http://www.w3.org/1999/xlink" x="0px" y="0px"
	 width="32px" height="32px" viewBox="0 0 32 32" style="enable-background:new 0 0 32 32;" xml:space="preserve">
<style type="text/css">
	.sketchy_een{fill:#111918;}
</style>
<path class="sketchy_een" d="M16.82,9.07c0.009,0.011,0.018,0.023,0.027,0.034c0.001,0.001,0.002,0.003,0.003,0.004
	C16.84,9.096,16.83,9.083,16.82,9.07z M15.039,17.564c0.001,0.002,0.003,0.003,0.004,0.005c-0.005-0.006-0.009-0.012-0.014-0.018
	C15.033,17.555,15.036,17.56,15.039,17.564z M16.856,9.116c0,0-0.001-0.001-0.002-0.002C16.855,9.115,16.856,9.116,16.856,9.116
	C16.857,9.117,16.856,9.117,16.856,9.116z M28.634,25.332c-0.258,0.237-0.543,0.425-0.828,0.622
	c-0.229,0.161-0.45,0.335-0.673,0.502c-0.512,0.384-1.032,0.758-1.547,1.138c-0.52,0.382-1.055,0.743-1.592,1.102
	c-0.574,0.382-1.129,0.789-1.689,1.19c-0.171,0.122-0.438,0.138-0.634,0.083c-0.207-0.056-0.386-0.196-0.494-0.38
	c-0.111-0.19-0.142-0.423-0.081-0.634c0.06-0.221,0.196-0.366,0.378-0.493c0.716-0.506,1.447-0.988,2.169-1.484
	c-0.125-0.18-0.242-0.367-0.353-0.557c-0.149-0.258-0.303-0.512-0.456-0.768c-0.308-0.514-0.628-1.02-0.944-1.53
	c-0.32-0.516-0.646-1.03-0.987-1.532c-0.24-0.352-0.476-0.705-0.714-1.056c-0.05,0.027-0.096,0.062-0.147,0.087
	c-0.316,0.157-0.644,0.24-0.993,0.273c-0.099,0.008-0.2,0.021-0.299,0.018c-0.438-0.016-0.878-0.097-1.293-0.242
	c-0.403-0.14-0.812-0.295-1.173-0.531c-0.372-0.245-0.719-0.53-1.046-0.835c-0.04,0.114-0.093,0.219-0.179,0.304
	c-0.355,0.279-0.708,0.526-1.123,0.708c-0.297,0.13-0.605,0.221-0.933,0.217c-0.074,0-0.147-0.002-0.223-0.004
	c-0.161-0.006-0.32-0.023-0.481-0.045c-0.456-0.06-0.89-0.18-1.321-0.343c-0.086-0.033-0.168-0.081-0.252-0.12
	c-0.311,0.361-0.616,0.727-0.911,1.101c-0.424,0.582-0.832,1.174-1.232,1.772c-0.196,0.291-0.368,0.594-0.541,0.9
	c-0.18,0.32-0.392,0.624-0.589,0.933c-0.056,0.087-0.128,0.158-0.205,0.219c0.171,0.136,0.344,0.268,0.516,0.402
	c-0.06-0.044-0.118-0.091-0.176-0.136c0.605,0.467,1.191,0.964,1.792,1.441c0.175,0.14,0.262,0.419,0.262,0.632
	c0,0.237-0.095,0.465-0.262,0.632C9.211,29.085,8.98,29.18,8.746,29.18c-0.25,0-0.45-0.101-0.632-0.262
	c-0.782-0.687-1.593-1.341-2.4-1.997c-0.693-0.521-1.424-0.988-2.153-1.453c-0.409-0.26-0.572-0.787-0.32-1.218
	c0.16-0.273,0.474-0.443,0.787-0.442c0.15,0,0.299,0.039,0.431,0.124c0.512,0.33,1.01,0.68,1.505,1.036
	c0.014-0.029,0.014-0.062,0.033-0.09c0.285-0.421,0.543-0.855,0.818-1.282c0.246-0.382,0.51-0.75,0.768-1.127
	c0.283-0.415,0.558-0.84,0.859-1.239c0.282-0.376,0.579-0.74,0.877-1.104c-0.047-0.038-0.098-0.07-0.144-0.109
	c-0.184-0.159-0.332-0.351-0.479-0.545c-0.306-0.399-0.57-0.851-0.733-1.33c-0.157-0.467-0.182-0.948-0.107-1.433
	c0.033-0.206,0.083-0.407,0.138-0.607c0.114-0.434,0.279-0.845,0.461-1.255c0.351-0.793,0.749-1.559,1.198-2.3
	c0.025-0.041,0.069-0.061,0.1-0.096c-0.116-0.201-0.233-0.401-0.346-0.604C8.994,11.096,8.583,10.34,8.18,9.579
	C7.749,8.771,7.336,7.956,6.896,7.154C6.777,6.937,6.774,6.691,6.855,6.476C6.847,6.184,6.992,5.9,7.252,5.728
	C8.134,5.14,9.036,4.583,9.879,3.939C9.823,3.982,9.769,4.025,9.714,4.067c0.446-0.347,0.898-0.681,1.377-0.979
	c0.405-0.252,0.814-0.506,1.229-0.741c0.133-0.075,0.28-0.112,0.425-0.112c0.291,0,0.575,0.146,0.731,0.414
	c0.012,0.021,0.013,0.046,0.023,0.068c0.062,0.034,0.126,0.066,0.178,0.119c0.326,0.332,0.657,0.663,0.946,1.03
	c0.304,0.385,0.632,0.747,0.958,1.111c0.318-0.385,0.651-0.758,0.985-1.127c0.389-0.432,0.809-0.831,1.236-1.224
	c0.028-0.149,0.085-0.294,0.196-0.404C18.148,2.073,18.344,2,18.539,2c0.198,0,0.397,0.075,0.548,0.223
	c0.173,0.167,0.341,0.341,0.526,0.494c0.181,0.154,0.366,0.303,0.552,0.449c0.36,0.272,0.728,0.531,1.116,0.765
	c0.38,0.229,0.766,0.446,1.144,0.683c0.372,0.231,0.735,0.477,1.103,0.714c0.188,0.12,0.38,0.239,0.574,0.347
	c0.266,0.149,0.533,0.281,0.752,0.498c0.314,0.316,0.314,0.842,0,1.156c-0.223,0.223-0.557,0.282-0.844,0.186
	c-0.366,0.967-0.792,1.909-1.257,2.832c-0.233,0.463-0.479,0.923-0.719,1.385c-0.215,0.41-0.434,0.819-0.666,1.22
	c0.15,0.265,0.301,0.528,0.435,0.803c0.366,0.752,0.611,1.584,0.756,2.408c0.078,0.444,0.085,0.904,0.035,1.352
	c-0.047,0.413-0.081,0.844-0.19,1.247c-0.118,0.436-0.287,0.863-0.529,1.249c-0.122,0.194-0.25,0.396-0.415,0.557
	c-0.022,0.022-0.046,0.041-0.068,0.062c0.587,0.902,1.191,1.793,1.789,2.689c0.316,0.473,0.644,0.939,0.96,1.41
	c0.282,0.424,0.556,0.855,0.853,1.269c0.104-0.079,0.209-0.155,0.313-0.234c0.342-0.26,0.687-0.516,1.028-0.776
	c0.296-0.231,0.599-0.453,0.899-0.678c0.068-0.056,0.135-0.116,0.202-0.175c0.173-0.151,0.363-0.248,0.599-0.248
	c0.223,0,0.44,0.091,0.599,0.248C28.95,24.449,28.973,25.018,28.634,25.332z M16.654,6.11c-0.018,0.026-0.041,0.042-0.06,0.066
	c0.385,0.465,0.775,0.927,1.141,1.406c0.948,1.234,1.816,2.52,2.661,3.823c0.03-0.051,0.061-0.102,0.09-0.153
	c0.215-0.37,0.415-0.75,0.617-1.127c0.376-0.707,0.71-1.434,1.03-2.168c0.177-0.441,0.338-0.886,0.49-1.336
	c-0.096-0.064-0.196-0.12-0.29-0.187c-0.45-0.32-0.909-0.628-1.379-0.923c-0.768-0.485-1.511-1.017-2.217-1.592
	c-0.718,0.659-1.421,1.346-2.028,2.109C16.693,6.055,16.674,6.083,16.654,6.11z M14.115,19.386c0.046-0.036,0.112-0.044,0.172-0.061
	c-0.279-0.333-0.541-0.68-0.8-1.03c-0.508-0.686-1.006-1.379-1.485-2.084c-0.477-0.702-0.925-1.423-1.346-2.16
	c-0.001-0.001-0.002-0.003-0.002-0.004c-0.299,0.52-0.585,1.046-0.826,1.597c-0.163,0.423-0.286,0.857-0.368,1.303
	c-0.01,0.134-0.01,0.267,0.001,0.401c0.027,0.127,0.063,0.25,0.108,0.372c0.118,0.251,0.255,0.488,0.416,0.713
	c0.148,0.176,0.307,0.333,0.483,0.479c0.337,0.244,0.69,0.482,1.064,0.666c0.378,0.144,0.759,0.255,1.157,0.321
	c0.145,0.014,0.288,0.023,0.434,0.018c0.088-0.021,0.173-0.048,0.258-0.079C13.642,19.712,13.882,19.564,14.115,19.386z
	 M19.233,20.102c0.189-0.098,0.366-0.21,0.539-0.336c0.185-0.149,0.366-0.302,0.527-0.477c0.117-0.171,0.217-0.354,0.308-0.541
	c0.137-0.38,0.215-0.773,0.277-1.171c0.043-0.37,0.062-0.738,0.03-1.109c-0.104-0.606-0.271-1.196-0.488-1.774
	c-0.221-0.495-0.477-0.974-0.766-1.431c-0.299-0.473-0.593-0.95-0.898-1.421c-0.601-0.934-1.239-1.848-1.912-2.732
	c0.002,0.003,0.004,0.005,0.006,0.008c0.001,0.002,0.003,0.004,0.004,0.006c-0.001-0.002-0.003-0.003-0.004-0.005
	c0.002,0.002,0.003,0.004,0.005,0.006c0.003,0.003,0.005,0.007,0.008,0.01c-0.009-0.012-0.018-0.023-0.027-0.035
	c0.004,0.005,0.008,0.011,0.012,0.016c-0.003-0.003-0.005-0.007-0.008-0.01c-0.003-0.004-0.006-0.009-0.01-0.013
	c-0.177-0.229-0.353-0.458-0.531-0.687c-0.485-0.618-0.996-1.219-1.504-1.815c-0.244-0.287-0.5-0.561-0.747-0.846
	c-0.252-0.292-0.489-0.595-0.721-0.904c-0.205-0.259-0.426-0.508-0.65-0.753c-0.653,0.37-1.294,0.76-1.902,1.202
	c-0.744,0.54-1.506,1.054-2.267,1.569c0.158,0.3,0.318,0.599,0.467,0.905C9.194,8.195,9.402,8.633,9.63,9.058
	c0.413,0.766,0.842,1.524,1.293,2.269c0.436,0.721,0.853,1.452,1.292,2.17c0.446,0.727,0.904,1.445,1.394,2.143
	c0.456,0.649,0.938,1.281,1.42,1.912c-0.02-0.026-0.04-0.052-0.06-0.077c0.023,0.03,0.047,0.06,0.07,0.09
	c0.02,0.027,0.041,0.054,0.062,0.081c-0.019-0.025-0.038-0.05-0.058-0.075c0.543,0.692,1.133,1.331,1.811,1.891
	c0.227,0.164,0.457,0.308,0.71,0.427c0.324,0.124,0.647,0.227,0.986,0.294c0.13,0.009,0.258,0.009,0.388,0.001
	C19.04,20.163,19.136,20.136,19.233,20.102z M19.604,15.463c-0.18-0.477-0.39-0.946-0.63-1.396c-0.485-0.917-1.08-1.774-1.621-2.656
	c-0.142-0.234-0.395-0.369-0.653-0.369c-0.125,0-0.252,0.032-0.369,0.1c-0.345,0.202-0.481,0.677-0.268,1.022
	c0.349,0.566,0.731,1.111,1.068,1.685c0.303,0.514,0.581,1.046,0.813,1.597c0.161,0.397,0.293,0.792,0.367,1.213
	c0.014,0.176,0.012,0.347-0.009,0.524c-0.023,0.198,0.097,0.427,0.231,0.56c0.147,0.147,0.351,0.231,0.56,0.231
	c0.208,0,0.411-0.083,0.558-0.231c0.157-0.157,0.215-0.343,0.231-0.56C19.925,16.605,19.807,16.004,19.604,15.463z"/>
</svg>