<?xml version="1.0" encoding="utf-8"?>
<!-- Generator: Adobe Illustrator 21.1.0, SVG Export Plug-In . SVG Version: 6.00 Build 0)  -->
<svg version="1.1" id="designs" xmlns="http://www.w3.org/2000/svg" xmlns:xlink="http://www.w3.org/1999/xlink" x="0px" y="0px"
	 width="32px" height="32px" viewBox="0 0 32 32" style="enable-background:new 0 0 32 32;" xml:space="preserve">
<style type="text/css">
	.sketchy_een{fill:#111918;}
</style>
<path class="sketchy_een" d="M3.941,10.908c-0.007,0.052-0.014,0.104-0.021,0.156c0-0.004,0.001-0.008,0.001-0.013
	C3.928,11.004,3.935,10.956,3.941,10.908z M21.76,20.798c0.012,0.015,0.023,0.031,0.035,0.046c0.02,0.025,0.039,0.05,0.058,0.075
	C21.823,20.878,21.792,20.838,21.76,20.798z M19.097,17.11c0.022,0.028,0.043,0.056,0.065,0.085
	c0.021,0.027,0.042,0.054,0.063,0.081C19.183,17.221,19.139,17.166,19.097,17.11z M10.94,14.213c0.038-0.005,0.076-0.01,0.114-0.015
	c0.033-0.004,0.067-0.009,0.1-0.013C11.083,14.194,11.011,14.203,10.94,14.213z M29.921,22.678c-0.044,0.26-0.099,0.523-0.155,0.781
	c-0.078,0.368-0.199,0.74-0.351,1.084c-0.046,0.105-0.099,0.206-0.149,0.309c-0.073,0.149-0.137,0.317-0.237,0.452
	c-0.229,0.309-0.489,0.59-0.769,0.853c-0.313,0.294-0.666,0.58-1.061,0.758c-0.401,0.181-0.802,0.374-1.222,0.511
	c-0.37,0.124-0.762,0.195-1.145,0.258c-0.441,0.073-0.907,0.145-1.355,0.139c-0.355-0.006-0.712-0.01-1.065-0.046
	c-0.418-0.042-0.846-0.082-1.254-0.174c-0.286-0.065-0.569-0.162-0.826-0.303c-0.326-0.176-0.659-0.342-0.985-0.517
	c-0.689-0.372-1.33-0.828-1.991-1.25c-0.061-0.039-0.121-0.082-0.181-0.122c-0.02,0.105-0.038,0.21-0.066,0.314
	c-0.092,0.336-0.25,0.659-0.569,0.832c-0.237,0.13-0.504,0.147-0.769,0.143c-0.288-0.005-0.576-0.015-0.866-0.027
	c-0.03,0.236-0.086,0.463-0.218,0.655c-0.143,0.208-0.353,0.418-0.613,0.466c-0.252,0.046-0.353,0.036-0.599,0.002
	c-0.053-0.008-0.106-0.016-0.158-0.025c-0.565-0.047-1.134-0.006-1.699-0.065c-0.418-0.044-0.888-0.149-1.092-0.573
	c-0.12-0.254-0.212-0.508-0.221-0.79c-0.008-0.198,0.027-0.393,0.044-0.59c0.021-0.223,0.042-0.447,0.059-0.67
	c0.027-0.315,0.057-0.626,0.09-0.939c0.027-0.267,0.023-0.536,0.006-0.804c-0.259-0.015-0.52-0.014-0.781-0.013
	c-0.006,0.148-0.02,0.295-0.026,0.438C9.676,24.269,9.7,24.775,9.66,25.275c-0.019,0.235-0.05,0.466-0.094,0.697
	c-0.013,0.074-0.025,0.147-0.042,0.219c-0.048,0.202-0.139,0.361-0.265,0.523C9,27.048,8.511,27.059,8.126,27.048
	c-0.284-0.007-0.564-0.027-0.846-0.049c-0.019,0.049-0.051,0.09-0.08,0.134c-0.061,0.288-0.271,0.532-0.561,0.612
	c-0.166,0.045-0.345,0.035-0.505-0.027c-0.399,0.006-0.797,0.003-1.196,0.019c-0.392,0.015-0.782,0.051-1.173,0.085
	C3.625,27.926,3.461,28,3.273,28c-0.454,0-0.888-0.395-0.865-0.866c0.017-0.336-0.015-0.678-0.038-1.014
	c-0.052-0.785-0.074-1.573-0.105-2.359c-0.031-0.779-0.063-1.556-0.097-2.334c-0.019-0.41-0.015-0.821-0.042-1.231
	c-0.027-0.406-0.061-0.813-0.074-1.222C2.021,18.1,1.998,17.228,2,16.355c0-0.863-0.002-1.725,0.032-2.586
	c0.036-0.863,0.143-1.727,0.241-2.584c0.103-0.912,0.258-1.809,0.544-2.682c0.141-0.431,0.311-0.87,0.534-1.265
	c0.223-0.397,0.496-0.765,0.805-1.101c0.271-0.29,0.565-0.58,0.876-0.826c0.189-0.147,0.37-0.311,0.58-0.428
	C5.827,4.764,6.05,4.661,6.281,4.579C6.48,4.506,6.682,4.443,6.884,4.384c0.429-0.126,0.889-0.202,1.334-0.227
	c0.213-0.013,0.428-0.023,0.643-0.023c0.198,0,0.397,0.008,0.594,0.03c0.42,0.046,0.83,0.135,1.239,0.248
	c0.406,0.113,0.821,0.286,1.176,0.519c0.317,0.208,0.641,0.433,0.905,0.706C13.017,5.89,13.25,6.15,13.46,6.427
	c0.435,0.567,0.552,1.306,0.471,2.002c-0.044,0.38-0.092,0.763-0.237,1.122c-0.179,0.433-0.429,0.853-0.733,1.214
	c-0.214,0.256-0.462,0.469-0.731,0.666c-0.313,0.229-0.66,0.429-1.027,0.555c-0.456,0.155-0.977,0.313-1.458,0.275
	c-0.302-0.025-0.585-0.106-0.881-0.152c-0.122-0.015-0.244-0.033-0.364-0.063c-0.197-0.052-0.384-0.128-0.569-0.208
	c-0.056-0.024-0.104-0.058-0.157-0.085c-0.07,0.073-0.142,0.145-0.207,0.222c-0.103,0.141-0.199,0.288-0.274,0.445
	c-0.041,0.099-0.082,0.199-0.123,0.298c-0.037,0.097-0.063,0.194-0.082,0.295c-0.055,0.461-0.087,0.928-0.04,1.39
	c0.027,0.164,0.06,0.327,0.091,0.49c0.05,0.255,0.098,0.519,0.18,0.767c0.017,0.031,0.034,0.06,0.053,0.09
	c0.008,0.009,0.016,0.018,0.025,0.027c0.014-0.005,0.029-0.01,0.043-0.014c0.182-0.097,0.334-0.229,0.508-0.345
	c0.284-0.191,0.603-0.334,0.901-0.502c0.334-0.189,0.689-0.357,1.054-0.481c0.375-0.127,0.759-0.182,1.15-0.235
	c0.715-0.094,1.438-0.173,2.161-0.122c0.42,0.029,0.855,0.065,1.265,0.158c0.361,0.082,0.702,0.187,1.044,0.328
	c0.706,0.288,1.412,0.618,2.029,1.073c0.326,0.239,0.649,0.487,0.935,0.773c0.245,0.247,0.461,0.514,0.674,0.787
	c0.352,0.46,0.689,0.931,1.037,1.398c0.132,0.179,0.237,0.372,0.349,0.565c0.137,0.233,0.281,0.461,0.438,0.681
	c0.266,0.338,0.543,0.667,0.809,1.004c0.207,0.268,0.408,0.54,0.61,0.812c0.124,0.145,0.267,0.267,0.415,0.386
	c0.158,0.113,0.32,0.208,0.495,0.291c0.187,0.068,0.379,0.118,0.576,0.152c0.352,0.03,0.699,0.002,1.048-0.04
	c0.225-0.039,0.436-0.11,0.652-0.179c0.181-0.059,0.363-0.114,0.54-0.182c0.123-0.057,0.244-0.119,0.357-0.194
	c0.288-0.25,0.526-0.555,0.767-0.85c0.143-0.174,0.275-0.357,0.429-0.521c0.135-0.145,0.29-0.267,0.447-0.389
	c0.126-0.095,0.284-0.164,0.439-0.185c0.193-0.027,0.351-0.038,0.542,0.015c0.172,0.048,0.284,0.132,0.42,0.242
	c0.177,0.145,0.33,0.395,0.376,0.618c0.031,0.155,0.046,0.311,0.065,0.466C30.024,21.746,30,22.222,29.921,22.678z M8.232,23.368
	c-0.006-0.023-0.015-0.045-0.022-0.068c-0.305-0.008-0.611-0.013-0.916-0.024c-0.013,0.682-0.025,1.366-0.018,2.049
	c0.227,0.02,0.454,0.041,0.682,0.063c0.066,0.007,0.133,0.015,0.201,0.022c0.002-0.01,0.004-0.02,0.006-0.03
	c0.035-0.36,0.04-0.724,0.045-1.088C8.215,23.987,8.25,23.674,8.232,23.368z M12.08,26.426c-0.001-0.006-0.002-0.012-0.002-0.018h0
	C12.078,26.414,12.079,26.42,12.08,26.426z M15.819,24.471c0.001-0.007,0.001-0.013,0.001-0.02
	c-0.089-0.069-0.182-0.132-0.271-0.203c-0.126-0.092-0.263-0.171-0.395-0.255c-0.01,0.147-0.013,0.294-0.029,0.441
	c-0.02,0.188-0.04,0.374-0.058,0.562c0.136,0.01,0.272,0.019,0.409,0.028c0.068,0.005,0.137,0.011,0.206,0.017
	C15.74,24.855,15.785,24.666,15.819,24.471z M15.95,25.044c-0.007,0.003-0.013,0.006-0.02,0.009c0.001,0,0.001,0,0.002,0
	C15.937,25.05,15.943,25.047,15.95,25.044z M28.377,22.266c-0.119,0.162-0.239,0.323-0.364,0.48
	c-0.254,0.323-0.548,0.607-0.922,0.79c-0.307,0.151-0.63,0.282-0.956,0.38c-0.246,0.073-0.5,0.153-0.752,0.189
	c-0.408,0.057-0.826,0.088-1.239,0.082c-0.823-0.015-1.634-0.302-2.275-0.813c-0.33-0.265-0.636-0.527-0.876-0.878
	c-0.201-0.292-0.414-0.574-0.629-0.855c-0.441-0.567-0.905-1.119-1.276-1.735c-0.179-0.3-0.38-0.576-0.588-0.857
	c-0.213-0.287-0.423-0.578-0.641-0.864c-0.309-0.385-0.645-0.74-1.025-1.056c-0.277-0.199-0.559-0.396-0.861-0.554
	c-0.308-0.162-0.622-0.312-0.939-0.455c-0.399-0.156-0.798-0.27-1.221-0.349c-0.398-0.046-0.794-0.073-1.196-0.084
	c-0.397-0.012-0.791,0.03-1.186,0.075c-0.356,0.056-0.695,0.134-1.03,0.263c-0.318,0.145-0.62,0.323-0.924,0.497
	c-0.302,0.172-0.586,0.355-0.863,0.563c-0.235,0.176-0.466,0.296-0.741,0.403c-0.086,0.032-0.176,0.074-0.267,0.09
	c-0.239,0.042-0.395,0.055-0.636,0.002c-0.115-0.025-0.22-0.073-0.328-0.122c-0.296-0.139-0.571-0.496-0.752-0.76
	c-0.208-0.302-0.281-0.689-0.361-1.042c-0.065-0.296-0.118-0.594-0.177-0.891c-0.065-0.317-0.107-0.651-0.086-0.975
	c0.021-0.302,0.053-0.605,0.076-0.907c0.017-0.197,0.032-0.406,0.107-0.592c0.073-0.176,0.153-0.345,0.225-0.519
	c-0.029,0.071-0.059,0.139-0.088,0.21c0.181-0.437,0.366-0.836,0.678-1.197c0.146-0.167,0.313-0.323,0.478-0.476
	c0.042-0.111,0.102-0.214,0.187-0.298c0.156-0.156,0.372-0.246,0.595-0.246c0.236,0,0.404,0.096,0.582,0.235
	c0.19,0.137,0.385,0.268,0.593,0.375c0.196,0.072,0.391,0.122,0.602,0.153c0.181,0.025,0.354,0.083,0.531,0.12
	c0.056,0.004,0.111,0.005,0.167,0.004c0.253-0.045,0.503-0.109,0.746-0.192c0.161-0.079,0.314-0.173,0.46-0.278
	c0.194-0.157,0.377-0.325,0.539-0.516c0.133-0.193,0.257-0.396,0.36-0.606c0.064-0.173,0.112-0.352,0.145-0.534
	c0.028-0.245,0.049-0.49,0.037-0.736c-0.017-0.077-0.04-0.152-0.066-0.227c-0.041-0.085-0.086-0.168-0.139-0.247
	c-0.212-0.261-0.44-0.517-0.697-0.734c-0.234-0.171-0.476-0.319-0.74-0.444c-0.34-0.125-0.697-0.203-1.055-0.258
	c-0.514-0.056-1.037-0.031-1.552,0.02C7.59,5.981,7.148,6.096,6.721,6.257c-0.199,0.095-0.38,0.211-0.559,0.339
	C5.953,6.77,5.745,6.949,5.541,7.131C5.352,7.299,5.186,7.494,5.023,7.689C4.848,7.942,4.707,8.21,4.578,8.49
	c-0.15,0.371-0.284,0.749-0.386,1.135c-0.107,0.405-0.177,0.815-0.242,1.227c0.003-0.021,0.005-0.042,0.008-0.063
	c-0.002,0.015-0.004,0.029-0.006,0.043c-0.01,0.073-0.019,0.145-0.029,0.218l0,0v0c-0.003,0.021-0.006,0.043-0.009,0.064
	c0,0.003-0.001,0.007-0.001,0.01c0.003-0.02,0.005-0.041,0.008-0.061c-0.13,1.143-0.212,2.289-0.228,3.44
	c-0.015,1.134,0.008,2.266,0.036,3.399c0.01,0.456,0.019,0.912,0.044,1.368c0.021,0.389,0.055,0.779,0.073,1.17
	c0.034,0.806,0.061,1.611,0.092,2.415c0.031,0.769,0.042,1.536,0.088,2.304c0.021,0.358,0.052,0.716,0.078,1.075
	c0.278-0.009,0.557-0.013,0.836-0.01c0.254,0.002,0.508,0.003,0.763,0.004c0.001-0.41,0.015-0.82,0.019-1.229
	c0.01-0.767-0.002-1.536-0.002-2.304c0.002-0.412,0.332-0.751,0.739-0.781c0.148-0.187,0.36-0.32,0.605-0.32
	c0.012,0,0.024,0,0.035,0.001c0.43,0.023,0.861,0.052,1.29,0.08c0.422,0.027,0.846,0.069,1.267,0.082
	c0.353,0.011,0.708,0.015,1.063,0.025c0.265,0.006,0.548,0.038,0.775,0.193c0.246,0.168,0.424,0.422,0.504,0.712
	c0.067,0.241,0.078,0.506,0.097,0.756c0.013,0.185,0.023,0.368,0.023,0.552c0.002,0.349-0.01,0.698-0.017,1.05
	c-0.006,0.343-0.044,0.695-0.041,1.042c0.316,0.025,0.639,0.026,0.953,0.01c0.086-0.004,0.173-0.009,0.26-0.01
	c0.017-0.133,0.035-0.265,0.052-0.397c0.023-0.209,0.036-0.416,0.039-0.627c0.004-0.246,0.038-0.49,0.055-0.735
	c0.031-0.46-0.048-0.918-0.019-1.376c0.015-0.244,0.112-0.468,0.268-0.631c0.017-0.046,0.021-0.095,0.047-0.138
	c0.227-0.389,0.746-0.529,1.138-0.298c0.386,0.227,0.765,0.468,1.132,0.725c0.291,0.204,0.568,0.424,0.845,0.644
	c0.135,0.044,0.238,0.124,0.32,0.222c0.233,0.157,0.468,0.31,0.693,0.476c0.374,0.277,0.767,0.531,1.153,0.788
	c0.37,0.246,0.741,0.498,1.139,0.698c0.329,0.164,0.651,0.349,0.986,0.504c0.35,0.132,0.732,0.192,1.105,0.244
	c0.496,0.061,1.024,0.088,1.522,0.025c0.289-0.037,0.581-0.071,0.866-0.137c0.347-0.082,0.702-0.162,1.037-0.287
	c0.219-0.101,0.437-0.205,0.656-0.308c0.189-0.089,0.356-0.198,0.521-0.32c0.273-0.221,0.527-0.477,0.759-0.742
	c0.091-0.14,0.164-0.293,0.241-0.441c0.04-0.075,0.08-0.15,0.117-0.226c0.107-0.27,0.213-0.54,0.28-0.824
	C28.277,22.707,28.336,22.487,28.377,22.266z M9.025,8.592c0.433,0,0.794-0.361,0.794-0.794S9.459,7.004,9.025,7.004
	c-0.433,0-0.794,0.361-0.794,0.794S8.592,8.592,9.025,8.592z"/>
</svg>