<?xml version="1.0" encoding="utf-8"?>
<!-- Generator: Adobe Illustrator 21.1.0, SVG Export Plug-In . SVG Version: 6.00 Build 0)  -->
<svg version="1.1" id="designs" xmlns="http://www.w3.org/2000/svg" xmlns:xlink="http://www.w3.org/1999/xlink" x="0px" y="0px"
	 width="32px" height="32px" viewBox="0 0 32 32" style="enable-background:new 0 0 32 32;" xml:space="preserve">
<style type="text/css">
	.sketchy_een{fill:#111918;}
</style>
<path class="sketchy_een" d="M29.762,15.596c-0.137-0.135-0.373-0.261-0.574-0.236c-0.327,0.038-0.656,0.049-0.984,0.054
	c-0.078-0.055-0.16-0.106-0.255-0.138c-0.07-0.024-0.14-0.05-0.209-0.077c-0.103-0.049-0.202-0.102-0.297-0.164
	c-0.376-0.32-0.71-0.69-1.019-1.074c-0.45-0.609-0.831-1.263-1.145-1.95c-0.141-0.354-0.268-0.711-0.387-1.073
	c-0.126-0.379-0.232-0.761-0.371-1.134c-0.317-0.852-0.624-1.713-0.991-2.544c-0.174-0.392-0.38-0.769-0.608-1.13
	c-0.247-0.396-0.57-0.736-0.931-1.029c-0.214-0.172-0.437-0.336-0.67-0.483c-0.38-0.238-0.836-0.373-1.279-0.427
	c-0.491-0.058-0.977-0.014-1.46,0.085c-0.84,0.174-1.64,0.535-2.281,1.109c-0.217,0.194-0.395,0.443-0.542,0.704
	c-0.185-0.295-0.414-0.57-0.667-0.799c-0.234-0.211-0.483-0.423-0.759-0.572c-0.243-0.131-0.498-0.249-0.759-0.344
	c-0.328-0.12-0.653-0.191-1.002-0.23c-0.081-0.009-0.163-0.013-0.245-0.013c-0.152,0-0.305,0.012-0.454,0.021
	c-0.464,0.031-0.923,0.114-1.352,0.292c-0.52,0.212-0.966,0.508-1.4,0.861C8.614,5.719,8.294,6.347,8.102,6.961
	C7.977,7.363,7.845,7.76,7.714,8.16C7.488,8.854,7.26,9.545,7.046,10.242c-0.201,0.66-0.423,1.307-0.68,1.946
	c-0.263,0.606-0.552,1.195-0.94,1.731c-0.274,0.324-0.59,0.617-0.918,0.887c-0.189,0.138-0.396,0.248-0.598,0.364
	c-0.209-0.014-0.419-0.022-0.628-0.045c-0.082-0.011-0.164-0.022-0.245-0.033c-0.23-0.031-0.421-0.039-0.632,0.083
	c-0.184,0.108-0.321,0.286-0.377,0.491c-0.058,0.211-0.027,0.44,0.083,0.63c0.073,0.124,0.17,0.222,0.294,0.294
	c0.127,0.075,0.267,0.112,0.413,0.112c0.223,0.029,0.446,0.041,0.669,0.059c0.022,0.018,0.046,0.03,0.07,0.045
	c0.015,0.035,0.017,0.075,0.036,0.108c0.118,0.201,0.294,0.315,0.508,0.39c0.198,0.069,0.393,0.139,0.589,0.214
	c0.41,0.19,0.798,0.408,1.164,0.671c0.141,0.125,0.266,0.261,0.385,0.404c0.494,0.676,0.923,1.397,1.299,2.145
	c0.203,0.402,0.379,0.815,0.576,1.219c0.183,0.371,0.382,0.738,0.581,1.099c0.467,0.844,1.031,1.642,1.651,2.38
	c0.268,0.321,0.547,0.655,0.877,0.916c0.392,0.309,0.796,0.578,1.232,0.819c0.448,0.247,0.912,0.438,1.418,0.531
	c0.483,0.087,0.975,0.116,1.464,0.137c0.411,0.019,0.827,0.048,1.238,0.019c0.489-0.037,0.977-0.097,1.458-0.189
	c0.923-0.18,1.81-0.566,2.606-1.064c0.388-0.243,0.719-0.57,1.022-0.91c0.338-0.373,0.643-0.769,0.929-1.182
	c1.21-1.75,1.878-3.814,3.13-5.538c0.223-0.262,0.458-0.51,0.701-0.755c0.221-0.226,0.469-0.424,0.716-0.62
	c0.233-0.164,0.467-0.328,0.704-0.487c0.017-0.012,0.028-0.029,0.044-0.042c0.155-0.003,0.31,0.001,0.465-0.008
	c0.35-0.019,0.715-0.019,1.055-0.11C29.753,16.857,30,16.529,30,16.17C30,15.955,29.913,15.749,29.762,15.596z M7.361,13.85
	c0.183-0.336,0.338-0.69,0.489-1.041c0.18-0.417,0.353-0.836,0.514-1.261c0.27-0.72,0.502-1.454,0.753-2.183
	C9.343,8.7,9.544,8.022,9.803,7.367C9.898,7.163,10,6.966,10.127,6.78c0.113-0.127,0.238-0.239,0.368-0.346
	c0.202-0.138,0.414-0.259,0.634-0.368c0.214-0.076,0.428-0.127,0.651-0.164c0.249-0.025,0.498-0.044,0.748-0.027
	c0.199,0.041,0.389,0.1,0.58,0.168c0.189,0.085,0.372,0.18,0.543,0.299c0.18,0.149,0.346,0.306,0.5,0.482
	c0.304,0.446,0.49,0.946,0.734,1.427c0.184,0.361,0.522,0.668,0.948,0.668c0.238,0,0.489-0.106,0.659-0.274
	c0.158-0.158,0.24-0.369,0.305-0.578c0.077-0.241,0.152-0.48,0.242-0.717c0.089-0.198,0.188-0.386,0.308-0.568
	c0.092-0.105,0.19-0.203,0.296-0.296c0.191-0.131,0.394-0.244,0.603-0.344c0.3-0.113,0.606-0.198,0.923-0.253
	c0.245-0.022,0.487-0.028,0.731-0.009c0.126,0.028,0.247,0.066,0.368,0.11c0.201,0.1,0.387,0.224,0.57,0.356
	c0.215,0.178,0.408,0.367,0.584,0.581c0.326,0.458,0.588,0.958,0.817,1.471c0.288,0.701,0.57,1.409,0.819,2.123
	c0.288,0.831,0.5,1.688,0.856,2.495c0.319,0.724,0.713,1.412,1.19,2.045c0.051,0.069,0.115,0.125,0.168,0.192
	c-0.299-0.032-0.598-0.062-0.896-0.101c-0.63-0.094-1.259-0.207-1.872-0.383c-0.332-0.095-0.659-0.205-0.999-0.272
	c-0.191-0.039-0.391-0.076-0.588-0.076c-0.018,0-0.036,0-0.054,0.001c-0.209,0.008-0.419,0.052-0.624,0.099
	c-0.344,0.075-0.691,0.149-1.029,0.245c-0.348,0.099-0.682,0.228-1.024,0.346c-0.628,0.217-1.283,0.384-1.94,0.486
	c-0.237,0.018-0.468,0.013-0.703-0.01c-0.366-0.063-0.714-0.16-1.06-0.302c-0.256-0.109-0.512-0.217-0.776-0.305
	c-0.309-0.102-0.626-0.182-0.939-0.267c-0.62-0.166-1.244-0.311-1.891-0.278c-0.61,0.033-1.215,0.147-1.812,0.272
	c-0.486,0.102-0.948,0.272-1.437,0.354c-0.377,0.045-0.757,0.076-1.137,0.099C6.834,14.759,7.11,14.311,7.361,13.85z M24.755,17.567
	c-0.614,0.693-1.076,1.491-1.512,2.302c-0.766,1.426-1.422,2.908-2.391,4.212c-0.294,0.366-0.608,0.718-0.968,1.023
	c-0.336,0.232-0.686,0.427-1.058,0.595c-0.419,0.161-0.853,0.267-1.296,0.34c-0.475,0.057-0.947,0.086-1.426,0.062
	c-0.504-0.025-1.009-0.069-1.51-0.126c-0.283-0.046-0.556-0.114-0.825-0.215c-0.428-0.202-0.84-0.445-1.226-0.716
	c-0.475-0.395-0.879-0.874-1.264-1.356c-0.227-0.31-0.453-0.624-0.656-0.95c-0.234-0.373-0.44-0.761-0.649-1.149
	c-0.417-0.782-0.759-1.601-1.178-2.381c-0.211-0.392-0.46-0.759-0.709-1.124c-0.268-0.396-0.547-0.788-0.89-1.122
	c-0.087-0.084-0.195-0.15-0.294-0.224c0.061-0.004,0.122-0.006,0.183-0.01c0.612-0.039,1.244-0.089,1.825-0.294
	c0.257-0.093,0.543-0.127,0.811-0.182c0.264-0.056,0.53-0.104,0.797-0.144c0.301-0.035,0.599-0.053,0.901-0.03
	c0.36,0.066,0.715,0.161,1.067,0.267c0.341,0.103,0.68,0.212,1.012,0.344c0.292,0.127,0.582,0.255,0.879,0.365
	c0.27,0.099,0.562,0.143,0.844,0.185c0.355,0.054,0.705,0.085,1.062,0.062c0.377-0.025,0.755-0.114,1.12-0.199
	c0.296-0.07,0.589-0.143,0.879-0.226c0.309-0.089,0.608-0.201,0.91-0.313c0.538-0.2,1.094-0.349,1.66-0.45
	c0.059-0.004,0.118-0.003,0.177,0c0.304,0.059,0.599,0.153,0.895,0.241c0.33,0.099,0.661,0.178,0.999,0.243
	c0.778,0.149,1.557,0.263,2.347,0.334c0.026,0.002,0.052,0.004,0.077,0.006C25.144,17.141,24.946,17.353,24.755,17.567z
	 M21.019,21.805c0.007-0.016,0.014-0.033,0.021-0.05c0.02-0.045,0.039-0.09,0.058-0.136C21.073,21.682,21.046,21.744,21.019,21.805z
	 M21.442,20.739c-0.123,0.342-0.259,0.68-0.402,1.017c-0.29,0.665-0.64,1.29-1.05,1.892c-0.222,0.326-0.491,0.649-0.784,0.915
	c-0.352,0.319-0.751,0.564-1.174,0.776c-0.396,0.201-0.881,0.108-1.114-0.292c-0.11-0.189-0.141-0.419-0.083-0.63
	c0.052-0.187,0.191-0.402,0.375-0.487c0.269-0.126,0.523-0.274,0.766-0.445c0.244-0.207,0.46-0.453,0.663-0.702
	c0.39-0.529,0.733-1.088,1-1.69c0.102-0.256,0.198-0.515,0.29-0.775c0.07-0.197,0.174-0.359,0.361-0.469
	c0.121-0.071,0.259-0.107,0.397-0.107c0.07,0,0.139,0.009,0.207,0.028C21.282,19.88,21.589,20.336,21.442,20.739z"/>
</svg>