<?xml version="1.0" encoding="utf-8"?>
<!-- Generator: Adobe Illustrator 21.1.0, SVG Export Plug-In . SVG Version: 6.00 Build 0)  -->
<svg version="1.1" id="designs" xmlns="http://www.w3.org/2000/svg" xmlns:xlink="http://www.w3.org/1999/xlink" x="0px" y="0px"
	 width="32px" height="32px" viewBox="0 0 32 32" style="enable-background:new 0 0 32 32;" xml:space="preserve">
<style type="text/css">
	.sketchy_een{fill:#111918;}
</style>
<path class="sketchy_een" d="M30.915,23.241c0.087-0.189,0.101-0.381,0.063-0.591c-0.002-0.01-0.003-0.02-0.005-0.03
	c-0.082-0.764-0.145-1.531-0.246-2.295c-0.114-0.869-0.243-1.736-0.365-2.605c-0.12-0.869-0.265-1.736-0.447-2.596
	c-0.184-0.859-0.451-1.701-0.745-2.529c-0.302-0.854-0.665-1.681-1.044-2.505c-0.373-0.81-0.812-1.581-1.265-2.348
	c-0.041-0.07-0.091-0.131-0.147-0.185c-0.045-0.104-0.107-0.201-0.188-0.282c-0.186-0.186-0.39-0.233-0.64-0.265
	c-0.973-0.124-1.95-0.182-2.927-0.249c-0.897-0.063-1.793-0.135-2.692-0.157c-0.661-0.015-1.322-0.02-1.982-0.02
	c-1.176,0-2.353,0.016-3.529,0.024c-0.163,0.002-0.326,0.002-0.489,0c-0.685,0-1.371-0.002-2.05,0.076
	c-0.487,0.057-0.979,0.116-1.456,0.224c-0.212,0.047-0.418,0.102-0.624,0.171C9.763,7.201,9.449,7.403,9.145,7.647
	C8.807,7.918,8.495,8.221,8.211,8.549C7.877,8.932,7.546,9.318,7.245,9.73c-0.536,0.732-0.938,1.554-1.364,2.354
	c-0.426,0.802-0.875,1.591-1.265,2.413c-0.371,0.781-0.742,1.564-1.109,2.348c-0.392,0.838-0.677,1.724-1.03,2.58
	c-0.163,0.398-0.308,0.802-0.447,1.21c-0.118,0.345-0.273,0.7-0.326,1.063c-0.021,0.145-0.028,0.251-0.022,0.365
	c-0.175,0.304-0.337,0.612-0.467,0.946c-0.129,0.33-0.19,0.679-0.212,1.032c-0.018,0.308,0.08,0.657,0.332,0.853
	c0.11,0.084,0.161,0.134,0.273,0.181c0.149,0.063,0.251,0.102,0.404,0.133c0.163,0.031,0.333,0.045,0.498,0.065
	c0.412,0.047,0.824,0.071,1.238,0.084c1.681,0.051,3.365,0.053,5.048,0.057c1.756,0.004,3.512-0.01,5.268-0.028
	c0.83-0.008,1.66-0.029,2.49-0.029c0.852,0,1.703,0.004,2.554,0.006c0.824,0.004,1.65,0.002,2.474,0.01
	c0.451,0.006,0.902-0.004,1.354-0.012c0.392-0.008,0.787-0.016,1.179-0.016c0.812,0.002,1.624,0.014,2.437,0.004
	c0.396-0.004,0.793-0.014,1.191-0.02c0.371-0.006,0.734-0.037,1.103-0.067c0.379-0.029,0.753-0.033,1.122-0.125
	c0.041-0.01,0.082-0.018,0.124-0.026c0.198-0.035,0.369-0.133,0.516-0.269c0.383-0.349,0.416-0.863,0.363-1.344
	C30.96,23.407,30.941,23.323,30.915,23.241z M3.67,21.213c0.122-0.396,0.249-0.789,0.4-1.173c0.302-0.781,0.569-1.574,0.88-2.35
	c0.258-0.577,0.542-1.142,0.802-1.719c0.298-0.659,0.606-1.307,0.944-1.944c0.654-1.241,1.253-2.534,2.081-3.671
	c0.416-0.528,0.846-1.048,1.359-1.487c0.117-0.081,0.237-0.154,0.366-0.217c0.478-0.172,1.14-0.279,1.642-0.359
	c0.835-0.1,1.668-0.093,2.509-0.089c0.883,0.004,1.766,0.014,2.649,0.027c0.912,0.016,1.825,0.033,2.737,0.067
	c0.951,0.035,1.899,0.116,2.847,0.21c0.848,0.085,1.696,0.162,2.543,0.262c0.317,0.528,0.644,1.049,0.925,1.596
	c0.286,0.553,0.545,1.123,0.795,1.695c0.42,1.016,0.776,2.065,1.057,3.126c0.285,1.073,0.461,2.178,0.612,3.279
	c0.07,0.528,0.142,1.055,0.216,1.583c-0.002-0.012-0.004-0.023-0.005-0.035c0.034,0.248,0.054,0.496,0.08,0.744
	c-0.65,0.037-1.299,0.082-1.951,0.107c-0.863,0.035-1.725,0.075-2.586,0.114c-1.832,0.081-3.669,0.079-5.503,0.098
	c-1.817,0.02-3.631,0.065-5.448,0.071c-1.844,0.008-3.686,0.022-5.531,0.059c-0.893,0.018-1.785,0.026-2.678,0.033
	c-0.439,0.004-0.879,0.004-1.318,0.006c-0.086,0-0.345,0.001-0.431,0.002C3.663,21.236,3.666,21.224,3.67,21.213z M2.377,23.609
	c-0.01-0.007-0.02-0.015-0.029-0.023C2.358,23.594,2.368,23.601,2.377,23.609L2.377,23.609z M28.66,23.494
	c-0.318,0.033-0.637,0.046-0.956,0.055c-0.404,0.012-0.81,0.039-1.214,0.055c-0.816,0.033-1.632,0.049-2.448,0.078
	c-0.838,0.029-1.677,0.045-2.515,0.059c-0.814,0.014-1.628,0.053-2.443,0.071c-0.865,0.018-1.728,0.012-2.594,0.029
	c-0.834,0.016-1.668,0.027-2.499,0.041c-0.875,0.016-1.75,0.012-2.625,0.016c-0.865,0.004-1.73,0.008-2.596,0.004
	c-1.014-0.008-2.031-0.029-3.045-0.057c-0.955-0.027-1.918-0.037-2.869-0.142c-0.033-0.005-0.065-0.009-0.098-0.014
	c0.026-0.099,0.057-0.196,0.092-0.293c0.065-0.13,0.146-0.251,0.221-0.376c0.03-0.003,0.061-0.003,0.09-0.006
	c0.122-0.01,0.243-0.02,0.365-0.027c0.455-0.035,0.91-0.055,1.367-0.071c0.906-0.035,1.813-0.063,2.721-0.084
	c0.922-0.021,1.844-0.059,2.766-0.074c0.924-0.016,1.85-0.022,2.776-0.022c1.828-0.002,3.655-0.026,5.484-0.031
	c1.827-0.008,3.653-0.012,5.478-0.047c1.714-0.033,3.426-0.099,5.139-0.119c0.015,0.191,0.028,0.381,0.054,0.571
	c0.009,0.064,0.037,0.127,0.073,0.188c-0.008,0.032-0.027,0.061-0.031,0.094C29.12,23.417,28.891,23.457,28.66,23.494z
	 M7.371,17.229c0-0.459,0.381-0.84,0.84-0.84c0.459,0,0.84,0.381,0.84,0.84c0,0.459-0.381,0.84-0.84,0.84
	C7.751,18.069,7.371,17.689,7.371,17.229z M10.914,17.082c0-0.426,0.355-0.781,0.781-0.781c0.426,0,0.781,0.355,0.781,0.781
	c0,0.426-0.355,0.781-0.781,0.781C11.269,17.863,10.914,17.508,10.914,17.082z M14.559,13.3c0.302,0.267,0.687,0.385,1.069,0.485
	c0.255,0.067,0.524,0.088,0.785,0.122c0.204,0.026,0.412,0.037,0.618,0.047c0.814,0.047,1.628,0.037,2.443,0.057
	c0.816,0.018,1.63,0.059,2.445,0.083c0.473,0.012,0.944,0.027,1.415,0.031c0.557,0.004,1.189-0.006,1.662-0.339
	c0.716-0.504,0.808-1.434,0.543-2.211c-0.163-0.481-0.373-0.952-0.6-1.405c-0.1-0.2-0.288-0.328-0.498-0.38
	c-0.14-0.108-0.317-0.174-0.507-0.183c-0.902-0.043-1.807-0.059-2.711-0.098c-0.83-0.037-1.662-0.043-2.494-0.049
	c-0.527-0.005-1.054-0.016-1.581-0.016c-0.264,0-0.527,0.003-0.791,0.01c-0.163,0.006-0.324,0.014-0.487,0.025
	c-0.086,0.008-0.175,0.016-0.261,0.026c-0.069,0.007-0.137,0.016-0.204,0.025c-0.085,0.007-0.172,0.023-0.261,0.04
	c-0.269,0.051-0.522,0.161-0.728,0.343c-0.314,0.277-0.408,0.671-0.455,1.065c-0.055,0.465-0.037,0.924,0.045,1.385
	C14.068,12.708,14.3,13.073,14.559,13.3z M15.699,11.101c0.057-0.01,0.114-0.016,0.171-0.024c0.604-0.074,1.214-0.067,1.82-0.071
	c0.647-0.006,1.295-0.014,1.942,0c0.698,0.012,1.393,0.059,2.091,0.108c0.632,0.046,1.266,0.078,1.899,0.114
	c0.106,0.206,0.205,0.414,0.3,0.626c0.057,0.143,0.105,0.286,0.137,0.436c0.001,0.033,0,0.065,0,0.098
	c-0.037,0.009-0.075,0.017-0.112,0.025c-0.236,0.017-0.472,0.015-0.708,0.015c-0.31,0-0.62,0.004-0.93,0.004
	c-0.649,0.002-1.303-0.016-1.952-0.033c-0.64-0.018-1.277-0.037-1.917-0.047c-0.643-0.011-1.285-0.027-1.925-0.093
	c-0.277-0.043-0.545-0.101-0.809-0.196c-0.006-0.003-0.011-0.007-0.017-0.01c-0.015-0.024-0.029-0.048-0.042-0.073
	c-0.015-0.055-0.028-0.111-0.039-0.167c-0.024-0.229-0.033-0.461-0.019-0.69C15.626,11.118,15.663,11.111,15.699,11.101z"/>
</svg>