<?xml version="1.0" encoding="utf-8"?>
<!-- Generator: Adobe Illustrator 21.1.0, SVG Export Plug-In . SVG Version: 6.00 Build 0)  -->
<svg version="1.1" id="designs" xmlns="http://www.w3.org/2000/svg" xmlns:xlink="http://www.w3.org/1999/xlink" x="0px" y="0px"
	 width="32px" height="32px" viewBox="0 0 32 32" style="enable-background:new 0 0 32 32;" xml:space="preserve">
<style type="text/css">
	.sketchy_een{fill:#111918;}
</style>
<path class="sketchy_een" d="M28.702,18.025c0.004-0.159,0.009-0.315,0.002-0.474c-0.005-0.146-0.013-0.292-0.024-0.437
	c-0.015-0.209-0.048-0.423-0.155-0.607c-0.12-0.214-0.314-0.384-0.555-0.45c-0.328-0.089-0.708-0.085-1.048-0.092
	c-0.585-0.011-1.17-0.025-1.756-0.025c-0.041,0-0.082,0-0.123,0c-0.034-0.078-0.06-0.159-0.099-0.234
	c-0.172-0.334-0.365-0.66-0.578-0.97c-0.114-0.166-0.236-0.328-0.349-0.495c-0.098-0.142-0.192-0.282-0.304-0.413
	c-0.044-0.05-0.101-0.092-0.151-0.136c-0.125-0.114-0.225-0.264-0.334-0.397c-0.142-0.175-0.288-0.349-0.437-0.52
	c-0.141-0.163-0.347-0.238-0.556-0.238c-0.092,0-0.183,0.023-0.27,0.051c-0.064,0.003-0.128,0.01-0.194,0.028
	c-0.033,0.009-0.065,0.02-0.095,0.033c-0.102,0.001-0.205-0.001-0.307-0.001c-0.065-0.635-0.104-1.274-0.158-1.911
	c0.62-0.26,1.191-0.622,1.529-1.225c0.129-0.231,0.227-0.504,0.297-0.76c0.048-0.175,0.089-0.353,0.116-0.533
	c0.041-0.264,0.061-0.522,0.041-0.788c-0.013-0.188-0.035-0.378-0.09-0.559c-0.055-0.177-0.142-0.347-0.221-0.515
	c-0.148-0.319-0.332-0.603-0.557-0.875c-0.118-0.142-0.258-0.264-0.398-0.384c-0.177-0.151-0.36-0.297-0.555-0.426
	c-0.242-0.162-0.515-0.268-0.78-0.382c-0.232-0.1-0.47-0.192-0.707-0.284c-0.725-0.281-1.474-0.469-2.225-0.672
	c-0.434-0.116-0.865-0.199-1.31-0.255c-0.376-0.046-0.755-0.068-1.133-0.076C15.12,3.001,15.023,3,14.926,3
	c-0.299,0-0.595,0.012-0.895,0.044c-0.26,0.026-0.518,0.07-0.773,0.127c-0.288,0.065-0.559,0.186-0.832,0.299
	c-0.769,0.321-1.498,0.734-2.181,1.21C9.813,4.981,9.37,5.286,9.007,5.67C8.37,6.347,8.127,7.278,8.206,8.192
	C8.234,8.492,8.296,8.793,8.4,9.077C8.455,9.23,8.52,9.378,8.601,9.518c0.092,0.159,0.225,0.306,0.352,0.435
	c0.073,0.075,0.165,0.137,0.259,0.194c0.007,0.485,0.015,0.971,0.042,1.455c0.015,0.284,0.038,0.567,0.059,0.85
	c-0.014,0.002-0.027,0.006-0.04,0.009c-0.112-0.051-0.231-0.083-0.353-0.083c-0.213,0-0.426,0.079-0.581,0.241
	c-0.304,0.317-0.589,0.649-0.867,0.987c-0.29,0.349-0.572,0.71-0.799,1.103c-0.434,0.753-0.792,1.57-1.002,2.413
	c-0.1,0.402-0.186,0.808-0.262,1.214c-0.085,0.467-0.131,0.939-0.186,1.41c-0.09,0.806-0.146,1.624-0.148,2.435
	c0,0.725-0.018,1.463,0.063,2.186c0.002,0.014,0.007,0.026,0.009,0.04c-0.331-0.005-0.663-0.01-0.994-0.018
	c-0.225-0.005-0.427,0.096-0.574,0.251c-0.169,0.144-0.282,0.351-0.289,0.588c-0.013,0.478-0.011,0.954-0.007,1.43
	c0.004,0.399-0.006,0.795,0.024,1.192c0.017,0.21,0.074,0.393,0.227,0.546c0.073,0.073,0.161,0.13,0.256,0.169
	c0.137,0.234,0.383,0.399,0.671,0.403c0.786,0.011,1.568-0.057,2.352-0.068c0.36-0.006,0.72,0.007,1.077,0.011
	c0.406,0.004,0.812,0.002,1.218,0c0.736-0.002,1.474-0.017,2.21-0.005c0.773,0.009,1.544,0.035,2.317,0.041
	c0.982,0.007,1.963,0.005,2.945,0.004c0.572,0,1.146-0.002,1.72-0.002c1.546,0.002,3.092,0.024,4.637,0.039
	C23.466,28.992,23.993,29,24.523,29c0.52,0,1.039,0.007,1.559-0.037c0.117-0.01,0.222-0.039,0.321-0.084
	c0.082,0.03,0.167,0.051,0.256,0.051c0.389,0,0.771-0.341,0.747-0.747c-0.026-0.448-0.055-0.897-0.055-1.343
	c0-0.535,0.015-1.068,0.018-1.603c0.004-0.432-0.363-0.793-0.793-0.793c-0.13,0-0.248,0.041-0.358,0.099
	c-0.028-0.003-0.052-0.016-0.08-0.016c-0.081,0-0.162-0.004-0.243-0.005c-0.033-0.77-0.033-1.543-0.066-2.314
	c-0.025-0.567-0.057-1.135-0.088-1.703c0.099-0.018,0.199-0.035,0.299-0.051c0.329-0.042,0.658-0.074,0.988-0.109
	c0.282-0.03,0.563-0.061,0.841-0.107c0.386-0.066,0.723-0.408,0.78-0.793c0.044-0.304,0.079-0.601,0.07-0.91
	C28.713,18.365,28.7,18.195,28.702,18.025z M9.802,7.026c0.051-0.101,0.107-0.196,0.171-0.289c0.14-0.158,0.286-0.302,0.447-0.438
	c0.37-0.278,0.75-0.542,1.142-0.787c0.428-0.268,0.889-0.483,1.347-0.694c0.169-0.069,0.338-0.137,0.513-0.195
	c0.221-0.075,0.451-0.114,0.68-0.153c0.785-0.079,1.569-0.04,2.351,0.048c0.661,0.13,1.312,0.309,1.96,0.491
	c0.634,0.179,1.248,0.409,1.857,0.658c0.2,0.094,0.387,0.2,0.568,0.327c0.192,0.156,0.375,0.324,0.539,0.513
	c0.139,0.205,0.244,0.424,0.347,0.647c0.029,0.08,0.053,0.159,0.071,0.242c0.008,0.147,0.011,0.292-0.001,0.438
	c-0.055,0.266-0.132,0.518-0.229,0.771c-0.049,0.106-0.103,0.206-0.168,0.303c-0.06,0.069-0.124,0.134-0.193,0.194
	c-0.17,0.114-0.345,0.21-0.53,0.297c-0.292,0.106-0.589,0.191-0.89,0.27c-0.389,0.1-0.62,0.524-0.515,0.908
	c0.046,0.166,0.153,0.294,0.285,0.388c0.06,0.56,0.129,1.119,0.19,1.679c-0.066-0.001-0.131,0.001-0.197,0
	c-0.803-0.013-1.603-0.05-2.406-0.059c-1.554-0.015-3.105-0.055-4.659-0.031c-0.519,0.008-1.037-0.008-1.554-0.034
	c-0.02-0.304-0.041-0.608-0.042-0.915c0-0.531,0.004-1.065,0.002-1.598c-0.001-0.129-0.037-0.248-0.091-0.358
	c-0.001-0.138-0.024-0.275-0.094-0.394c-0.113-0.192-0.273-0.286-0.474-0.365c-0.014-0.005-0.028-0.01-0.041-0.015
	c-0.057-0.028-0.111-0.058-0.164-0.092c-0.034-0.035-0.067-0.07-0.099-0.106C9.887,8.616,9.855,8.556,9.825,8.495
	C9.771,8.342,9.727,8.188,9.697,8.03c-0.016-0.208-0.02-0.416-0.002-0.623C9.722,7.277,9.758,7.151,9.802,7.026z M10.067,8.824
	c0.024,0.01,0.048,0.02,0.072,0.03C10.115,8.844,10.091,8.835,10.067,8.824L10.067,8.824L10.067,8.824z M10.046,8.815
	c0.006,0.002,0.011,0.005,0.017,0.007l0.001,0.001C10.057,8.82,10.051,8.818,10.046,8.815z M6.736,21.747
	c0.007-0.925,0.088-1.848,0.195-2.765c0.124-0.832,0.315-1.665,0.629-2.446c0.241-0.537,0.51-1.049,0.853-1.529
	c0.251-0.311,0.53-0.596,0.805-0.884c0.085,0.029,0.171,0.056,0.264,0.062c0.862,0.05,1.72,0.05,2.583,0.041
	c0.769-0.009,1.537-0.054,2.306-0.072c0.52-0.013,1.042-0.009,1.563-0.007c0.26,0.002,0.52,0.004,0.782,0.002
	c0.426,0,0.851-0.006,1.275,0.002c0.387,0.007,0.773,0.033,1.16,0.05c0.844,0.034,1.691,0.04,2.538,0.033
	c0.026,0.011,0.054,0.02,0.082,0.028c0.067,0.018,0.128,0.026,0.189,0.029c0.084,0.094,0.168,0.187,0.251,0.282
	c0.124,0.137,0.259,0.259,0.384,0.393c0.371,0.52,0.727,1.059,0.999,1.638c0.092,0.231,0.175,0.464,0.239,0.705
	c0.069,0.257,0.104,0.524,0.14,0.791c0.135,1.107,0.146,2.217,0.157,3.329c0.009,1.021-0.013,2.039-0.04,3.058
	c-0.423-0.017-0.847-0.04-1.27-0.062c0.001-0.017,0.01-0.032,0.01-0.049c0-0.188-0.013-0.376-0.009-0.563
	c0.004-0.242,0.013-0.482,0.022-0.721c0.018-0.482,0.037-0.963,0.028-1.445c-0.007-0.518-0.03-1.033-0.092-1.546
	c-0.074-0.594-0.181-1.183-0.317-1.764c-0.082-0.35-0.423-0.577-0.768-0.577c-0.068,0-0.135,0.009-0.201,0.027
	c-0.421,0.116-0.653,0.552-0.55,0.969c0.163,0.652,0.317,1.307,0.417,1.972c0.055,0.627,0.077,1.25,0.061,1.881
	c-0.009,0.327-0.024,0.655-0.041,0.982c-0.013,0.262-0.044,0.524-0.063,0.786c0,0.001,0.001,0.002,0.001,0.003
	c-1.488-0.028-2.977-0.038-4.464-0.042c-0.821-0.002-1.64,0.002-2.459-0.005c-0.836-0.007-1.67-0.024-2.506-0.024
	c-0.83,0-1.661,0.033-2.491,0.048c-0.795,0.015-1.59,0.004-2.386,0.03c-0.067,0.002-0.135,0.003-0.202,0.005
	c-0.001-0.006,0.002-0.013,0.001-0.02C6.697,23.502,6.73,22.618,6.736,21.747z M23.984,27.529c-0.777,0.009-1.553,0.015-2.33,0.017
	c-1.561,0-3.122,0-4.683,0c-1.528,0-3.055-0.022-4.583-0.072c-1.518-0.048-3.039-0.031-4.557-0.059
	c-0.546-0.009-1.09-0.024-1.637-0.017c-0.455,0.004-0.908,0.001-1.361-0.006c-0.012-0.232-0.029-0.464-0.03-0.698
	c-0.001-0.237,0.013-0.473,0.021-0.709c0.634-0.008,1.266-0.03,1.9-0.063c0.79-0.041,1.579-0.02,2.369-0.031
	c0.828-0.009,1.657-0.059,2.485-0.061c0.838-0.002,1.673,0.013,2.509,0.026c1.651,0.022,3.301,0.031,4.95,0.066
	c0.817,0.018,1.635,0.05,2.454,0.068c0.784,0.017,1.566,0.081,2.349,0.135c0.655,0.046,1.311,0.071,1.966,0.082
	c0.006,0.201,0.011,0.402,0.014,0.603c0.004,0.223,0.029,0.446,0.044,0.669C25.239,27.515,24.609,27.521,23.984,27.529z
	 M27.129,17.993c-0.033,0.227-0.073,0.453-0.113,0.679c-0.283,0.057-0.57,0.094-0.854,0.139c-0.174,0.028-0.348,0.051-0.523,0.077
	c-0.033-0.452-0.088-0.9-0.154-1.347c0.295-0.012,0.589-0.025,0.885-0.032c0.262-0.007,0.529-0.009,0.793,0.005
	C27.159,17.673,27.146,17.833,27.129,17.993z"/>
</svg>