<?xml version="1.0" encoding="utf-8"?>
<!-- Generator: Adobe Illustrator 21.1.0, SVG Export Plug-In . SVG Version: 6.00 Build 0)  -->
<svg version="1.1" id="designs" xmlns="http://www.w3.org/2000/svg" xmlns:xlink="http://www.w3.org/1999/xlink" x="0px" y="0px"
	 width="32px" height="32px" viewBox="0 0 32 32" style="enable-background:new 0 0 32 32;" xml:space="preserve">
<style type="text/css">
	.sketchy_een{fill:#111918;}
</style>
<path class="sketchy_een" d="M26.615,7.318c-0.056-0.159-0.125-0.316-0.211-0.462c-0.215-0.369-0.537-0.673-0.896-0.9
	c-0.006-0.004-0.012-0.007-0.017-0.011c-0.069-0.207-0.205-0.388-0.409-0.486c-0.251-0.121-0.507-0.234-0.771-0.324
	c-0.15-0.052-0.309-0.079-0.464-0.111c-0.159-0.035-0.324-0.054-0.485-0.071c-0.077-0.008-0.153-0.011-0.228-0.011
	c-0.222,0-0.44,0.031-0.662,0.077c-0.627,0.129-1.197,0.457-1.692,0.846c-0.361,0.284-0.649,0.654-0.902,1.035
	c-0.261,0.391-0.441,0.848-0.508,1.316c-0.038,0.274-0.06,0.52-0.031,0.794c0.031,0.286,0.09,0.549,0.196,0.816
	c0.123,0.305,0.255,0.552,0.459,0.813c0.188,0.24,0.42,0.417,0.666,0.595c0.399,0.293,0.864,0.518,1.355,0.595
	c0.248,0.04,0.497,0.067,0.746,0.082c0.319,0.02,0.643,0.027,0.956-0.038c0.591-0.123,1.125-0.424,1.589-0.804
	c0.209-0.17,0.393-0.365,0.57-0.568c0.225-0.257,0.449-0.533,0.585-0.85c0.077-0.182,0.148-0.353,0.184-0.547
	c0.036-0.188,0.059-0.38,0.079-0.572c0.025-0.234,0.017-0.472-0.012-0.706C26.688,7.658,26.673,7.478,26.615,7.318z M24.892,7.81
	c0.001,0.004,0.003,0.007,0.004,0.011C24.895,7.817,24.894,7.813,24.892,7.81L24.892,7.81L24.892,7.81z M24.89,7.806L24.89,7.806
	c-0.007-0.017-0.015-0.034-0.022-0.052c-0.004-0.011-0.009-0.021-0.013-0.032C24.867,7.75,24.879,7.777,24.89,7.806z M24.845,7.7
	c-0.007-0.016-0.014-0.033-0.021-0.049c0,0,0,0,0,0c0.006,0.015,0.012,0.029,0.018,0.042C24.844,7.696,24.844,7.698,24.845,7.7z
	 M24.825,7.651C24.825,7.651,24.825,7.65,24.825,7.651c-0.006-0.013-0.011-0.025-0.016-0.038C24.815,7.626,24.82,7.639,24.825,7.651
	z M24.888,8.393c-0.025,0.15-0.058,0.297-0.105,0.442c-0.061,0.117-0.132,0.228-0.209,0.335c-0.168,0.205-0.348,0.397-0.55,0.568
	c-0.147,0.102-0.3,0.192-0.461,0.271c-0.089,0.031-0.178,0.056-0.269,0.078c-0.278,0.018-0.561-0.004-0.838-0.036
	c-0.134-0.023-0.264-0.054-0.394-0.096c-0.197-0.095-0.382-0.208-0.56-0.334c-0.057-0.051-0.11-0.104-0.161-0.16
	c-0.041-0.065-0.077-0.131-0.111-0.2c-0.04-0.112-0.074-0.225-0.099-0.341c-0.005-0.107-0.005-0.212,0-0.317
	c0.028-0.148,0.066-0.293,0.115-0.438c0.086-0.174,0.189-0.336,0.303-0.494c0.15-0.178,0.314-0.339,0.491-0.488
	c0.168-0.111,0.342-0.205,0.524-0.292c0.135-0.046,0.27-0.083,0.409-0.11c0.091-0.003,0.179-0.001,0.268,0.006
	c0.229,0.047,0.453,0.106,0.672,0.187c0.073,0.035,0.146,0.07,0.22,0.106c0.082,0.041,0.164,0.073,0.247,0.095
	c0.058,0.079,0.13,0.146,0.213,0.211c0.051,0.049,0.097,0.1,0.142,0.153c0.046,0.069,0.088,0.14,0.127,0.213
	c0.014,0.045,0.025,0.09,0.035,0.135C24.908,8.057,24.904,8.225,24.888,8.393z M24.895,7.817c0.002,0.003,0.003,0.006,0.005,0.009
	C24.91,7.851,24.92,7.875,24.93,7.9C24.918,7.873,24.906,7.845,24.895,7.817z M11.705,6.516c-0.34-0.42-0.818-0.643-1.301-0.846
	c-0.019-0.005-0.038-0.01-0.057-0.013c-0.097-0.092-0.216-0.166-0.336-0.185C9.712,5.426,9.414,5.382,9.113,5.37
	C9.09,5.369,9.066,5.369,9.043,5.369c-0.148,0-0.298,0.014-0.444,0.024c-0.142,0.01-0.29,0.029-0.428,0.052
	C7.902,5.491,7.666,5.581,7.419,5.7C7.234,5.789,7.067,5.919,6.906,6.043C6.705,6.199,6.515,6.351,6.354,6.548
	C6.033,6.94,5.795,7.391,5.686,7.888C5.588,8.325,5.526,8.759,5.576,9.204c0.044,0.39,0.161,0.777,0.38,1.107
	c0.234,0.358,0.532,0.643,0.879,0.89C7,11.319,7.173,11.413,7.357,11.501c0.422,0.2,0.865,0.272,1.328,0.318
	c0.413,0.042,0.837-0.059,1.232-0.168c0.259-0.071,0.512-0.183,0.756-0.294c0.263-0.121,0.51-0.318,0.708-0.529
	c0.209-0.225,0.386-0.472,0.522-0.747c0.138-0.282,0.249-0.578,0.324-0.883c0.092-0.382,0.15-0.787,0.144-1.18
	c-0.006-0.343-0.098-0.667-0.265-0.967C12.001,6.861,11.84,6.681,11.705,6.516z M10.604,8.366c-0.042,0.246-0.104,0.484-0.189,0.719
	c-0.064,0.138-0.136,0.271-0.221,0.396c-0.078,0.085-0.159,0.166-0.246,0.241C9.869,9.772,9.788,9.814,9.705,9.854
	c-0.237,0.089-0.476,0.163-0.725,0.213c-0.157,0.009-0.311,0.002-0.467-0.013c-0.134-0.025-0.265-0.058-0.394-0.103
	c-0.141-0.07-0.274-0.148-0.404-0.239C7.633,9.642,7.555,9.57,7.48,9.493C7.427,9.415,7.379,9.334,7.335,9.25
	C7.307,9.166,7.284,9.081,7.266,8.994C7.257,8.838,7.261,8.688,7.275,8.534C7.31,8.328,7.357,8.127,7.424,7.928
	c0.06-0.119,0.128-0.231,0.204-0.34C7.72,7.486,7.817,7.393,7.92,7.304C8.034,7.223,8.15,7.151,8.272,7.085
	C8.338,7.067,8.403,7.052,8.47,7.039C8.767,7.015,9.064,7.01,9.361,7.034c0.065,0.01,0.13,0.021,0.195,0.032
	C9.614,7.13,9.68,7.184,9.752,7.216c0.188,0.083,0.365,0.175,0.535,0.287c0.053,0.051,0.103,0.103,0.153,0.157
	c0.062,0.086,0.119,0.174,0.171,0.267c0.003,0.012,0.007,0.025,0.01,0.037C10.626,8.098,10.619,8.232,10.604,8.366z M27.53,2.704
	c-0.023-0.018-0.045-0.035-0.068-0.052c-0.014-0.011-0.029-0.023-0.043-0.034C27.457,2.646,27.494,2.675,27.53,2.704z M29.845,6.461
	c-0.071-0.336-0.152-0.668-0.276-0.988c-0.154-0.395-0.363-0.76-0.583-1.121c-0.406-0.656-0.923-1.219-1.522-1.7
	c-0.333-0.253-0.669-0.478-1.038-0.679c-0.384-0.211-0.771-0.401-1.18-0.561c-0.372-0.147-0.756-0.255-1.149-0.326
	C23.759,1.026,23.427,1,23.091,1c-0.164,0-0.328,0.006-0.494,0.018c-0.472,0.031-0.948,0.113-1.41,0.219
	c-0.455,0.104-0.881,0.257-1.309,0.441c-0.42,0.178-0.785,0.436-1.146,0.71c-0.365,0.278-0.727,0.564-1.069,0.871
	c-0.881,0.795-1.582,1.862-1.912,3.021c-0.173-0.811-0.461-1.629-0.913-2.328c-0.487-0.748-1.211-1.257-2.007-1.629
	c-0.626-0.293-1.318-0.487-2-0.595c-0.384-0.059-0.771-0.113-1.157-0.126C9.609,1.599,9.544,1.598,9.48,1.598
	c-0.308,0-0.611,0.025-0.921,0.067c0.065-0.01,0.13-0.017,0.196-0.027C7.926,1.749,7.085,1.843,6.306,2.167
	C5.493,2.505,4.739,2.996,4.109,3.614c-0.305,0.299-0.568,0.65-0.81,1.003C3.079,4.94,2.872,5.28,2.712,5.639
	C2.369,6.416,2.119,7.235,2.004,8.08C1.972,8.325,1.935,8.569,1.916,8.816C1.887,9.19,1.922,9.555,1.985,9.925
	c0.069,0.405,0.155,0.81,0.282,1.201c0.271,0.829,0.606,1.645,1.19,2.305c0.576,0.651,1.314,1.081,2.101,1.424
	c0.395,0.173,0.787,0.351,1.207,0.453c0.424,0.104,0.852,0.176,1.286,0.226c0.664,0.077,1.32-0.03,1.973-0.159
	c0.297-0.06,0.593-0.119,0.89-0.173c0.15-0.027,0.29-0.083,0.434-0.125c0.104,0.109,0.208,0.218,0.312,0.327
	c0.122,0.127,0.282,0.188,0.447,0.217c-0.573,0.562-1.142,1.128-1.698,1.708c-1.069,1.113-2.103,2.261-3.063,3.47
	c-0.52,0.654-1.007,1.333-1.464,2.036c-0.434,0.664-0.72,1.417-0.883,2.19c-0.178,0.833-0.123,1.719,0.058,2.546
	c0.18,0.837,0.524,1.614,0.929,2.364c0.109,0.2,0.304,0.323,0.517,0.368c0.305,0.262,0.777,0.261,1.063-0.03
	c0.276-0.278,0.509-0.603,0.758-0.906c0.259-0.311,0.516-0.625,0.775-0.938c0.514-0.624,1.011-1.263,1.522-1.894
	c1.034-1.282,2.113-2.531,3.157-3.807c0.53-0.65,1.083-1.282,1.626-1.922c0.549,0.668,1.097,1.337,1.631,2.017
	c0.492,0.642,0.962,1.297,1.435,1.952c0.249,0.341,0.493,0.689,0.741,1.032c0.238,0.324,0.487,0.639,0.727,0.961
	c0.271,0.365,0.535,0.739,0.831,1.084c0.263,0.307,0.539,0.603,0.804,0.908c0.503,0.58,0.994,1.169,1.51,1.735
	c0.075,0.084,0.15,0.171,0.24,0.24c0.194,0.154,0.378,0.259,0.633,0.265c0.146,0.003,0.351-0.039,0.47-0.131
	c0.146-0.111,0.249-0.199,0.342-0.362c0.021-0.041,0.04-0.079,0.06-0.119c0.091-0.188,0.158-0.388,0.235-0.583
	c0.153-0.356,0.292-0.71,0.397-1.086c0.127-0.458,0.194-0.927,0.251-1.397c0.042-0.353,0.054-0.701,0.021-1.056
	c-0.042-0.447-0.167-0.888-0.305-1.314c-0.154-0.472-0.334-0.933-0.547-1.379c-0.175-0.371-0.359-0.745-0.576-1.094
	c-0.217-0.351-0.461-0.685-0.71-1.015c-0.286-0.38-0.574-0.758-0.875-1.126c-0.313-0.382-0.645-0.747-0.992-1.098
	c-0.357-0.363-0.739-0.701-1.107-1.05c-0.39-0.37-0.777-0.745-1.165-1.119c-0.157-0.149-0.313-0.299-0.464-0.455
	c-0.027-0.028-0.053-0.057-0.079-0.085c0.26-0.345,0.518-0.692,0.769-1.043c0.426,0.133,0.86,0.255,1.306,0.285
	c0.434,0.029,0.873,0.01,1.307-0.011c0.896-0.044,1.794-0.188,2.662-0.418c0.977-0.261,1.838-0.77,2.629-1.389
	c0.712-0.561,1.309-1.267,1.704-2.086c0.198-0.407,0.388-0.829,0.52-1.263c0.15-0.489,0.242-1.006,0.274-1.518
	C30.134,8.198,30.025,7.329,29.845,6.461z M15.692,9.31c0.032,0.173,0.065,0.346,0.104,0.515c0.129,0.566,0.364,1.108,0.616,1.636
	c-0.115,0.104-0.232,0.207-0.344,0.316c-0.13,0.129-0.26,0.257-0.39,0.386c-0.267-0.281-0.532-0.564-0.8-0.845
	c0.195-0.44,0.386-0.883,0.574-1.327C15.548,9.766,15.626,9.54,15.692,9.31z M12.863,14.202c-0.18-0.192-0.361-0.384-0.541-0.576
	c-0.013-0.014-0.032-0.018-0.046-0.031c-0.209-0.277-0.575-0.43-0.923-0.325c-0.225,0.069-0.443,0.146-0.67,0.204
	c-0.203,0.052-0.411,0.083-0.614,0.125c-0.215,0.042-0.426,0.104-0.641,0.148c-0.169,0.035-0.338,0.065-0.507,0.091
	c-0.338,0.031-0.668,0.015-1.004-0.023c-0.297-0.046-0.593-0.099-0.883-0.178c-0.271-0.073-0.532-0.176-0.79-0.283
	c-0.44-0.188-0.859-0.396-1.253-0.667c-0.206-0.173-0.39-0.361-0.563-0.566c-0.192-0.275-0.34-0.568-0.477-0.873
	c-0.237-0.587-0.41-1.187-0.509-1.812c-0.031-0.354-0.008-0.699,0.033-1.05C3.585,7.673,3.77,6.975,4.039,6.305
	C4.254,5.85,4.513,5.432,4.812,5.03c0.227-0.267,0.474-0.509,0.744-0.733c0.387-0.281,0.8-0.519,1.236-0.716
	c0.669-0.257,1.38-0.378,2.089-0.486c0.383-0.036,0.758-0.026,1.142,0.016c0.626,0.097,1.237,0.264,1.83,0.488
	c0.365,0.164,0.712,0.356,1.04,0.587c0.18,0.15,0.345,0.311,0.496,0.491c0.16,0.235,0.296,0.477,0.416,0.734
	c0.192,0.492,0.345,0.996,0.437,1.516c0.046,0.46,0.023,0.92-0.027,1.378c-0.046,0.282-0.112,0.556-0.214,0.823
	c-0.196,0.454-0.407,0.902-0.608,1.354c-0.098,0.221-0.154,0.418-0.086,0.66c0.003,0.012,0.013,0.022,0.017,0.034
	c-0.219,0.33-0.201,0.783,0.089,1.071c0.359,0.358,0.718,0.717,1.078,1.073c-0.272,0.26-0.543,0.521-0.813,0.782
	c-0.198,0.191-0.395,0.384-0.594,0.576C13.055,14.504,12.99,14.336,12.863,14.202z M18.457,18.423
	c0.426,0.409,0.844,0.825,1.272,1.234c0.438,0.418,0.871,0.834,1.282,1.278c0.375,0.404,0.722,0.833,1.06,1.266
	c-0.008-0.011-0.016-0.021-0.024-0.032c0.013,0.018,0.027,0.035,0.04,0.053c0.03,0.039,0.06,0.077,0.09,0.116
	c-0.019-0.024-0.039-0.049-0.058-0.073c0.274,0.36,0.55,0.724,0.781,1.111c0.26,0.435,0.491,0.89,0.696,1.353
	c0.209,0.528,0.39,1.065,0.491,1.623c0.022,0.34-0.002,0.672-0.04,1.01c-0.057,0.374-0.135,0.741-0.245,1.106
	c-0.027,0.089-0.056,0.177-0.086,0.265c-0.189-0.213-0.379-0.427-0.566-0.643c-0.502-0.573-1.019-1.138-1.494-1.732
	c-1.278-1.663-2.479-3.383-3.761-5.042c-0.022-0.028-0.044-0.057-0.066-0.085c-0.442-0.572-0.896-1.135-1.353-1.696
	c0.112-0.128,0.218-0.262,0.33-0.39c0.368-0.42,0.714-0.858,1.065-1.292C18.063,18.047,18.26,18.235,18.457,18.423z M16.591,16.881
	c0.038-0.05,0.077-0.101,0.116-0.151c-0.008,0.01-0.015,0.02-0.023,0.03C16.654,16.8,16.622,16.841,16.591,16.881z M16.732,16.699
	c-0.005,0.006-0.009,0.012-0.014,0.018c0.005-0.007,0.011-0.014,0.016-0.021C16.734,16.696,16.733,16.698,16.732,16.699z
	 M16.736,16.694c0.007-0.008,0.013-0.017,0.02-0.026c-0.007,0.01-0.015,0.02-0.022,0.029C16.735,16.696,16.736,16.695,16.736,16.694
	z M28.334,9.309c-0.078,0.467-0.202,0.91-0.375,1.348c-0.194,0.437-0.418,0.85-0.697,1.238c-0.252,0.295-0.527,0.56-0.825,0.806
	c-0.393,0.295-0.803,0.554-1.246,0.763c-0.567,0.216-1.147,0.363-1.747,0.46c-0.769,0.087-1.557,0.121-2.328,0.044
	c-0.362-0.073-0.709-0.196-1.058-0.318c-0.258-0.089-0.528-0.023-0.747,0.124c-0.013,0-0.025-0.005-0.038-0.005
	c-0.076,0-0.152,0.01-0.226,0.031c-0.224,0.062-0.378,0.202-0.507,0.39c-0.564,0.815-1.13,1.631-1.739,2.418
	c0.009-0.011,0.017-0.022,0.025-0.033c-0.006,0.008-0.012,0.016-0.018,0.024c-0.032,0.041-0.064,0.082-0.095,0.124
	c-0.516,0.642-1.059,1.261-1.598,1.885c-0.568,0.658-1.126,1.326-1.679,1.996c-0.512,0.622-1.015,1.251-1.524,1.876
	c-0.532,0.652-1.075,1.295-1.602,1.95c-0.488,0.604-0.968,1.211-1.441,1.828c-0.005,0.007-0.011,0.014-0.016,0.021
	c0.01-0.012,0.019-0.024,0.028-0.037c-0.033,0.043-0.066,0.086-0.099,0.129c0.008-0.011,0.016-0.021,0.024-0.032
	c-0.036,0.047-0.072,0.093-0.109,0.14c0.04-0.052,0.081-0.104,0.121-0.157c-0.374,0.485-0.756,0.963-1.146,1.437
	c-0.206,0.251-0.413,0.506-0.625,0.756c-0.054-0.109-0.115-0.214-0.165-0.325c-0.181-0.477-0.316-0.96-0.394-1.464
	c-0.042-0.417-0.04-0.828-0.004-1.246c0.067-0.405,0.179-0.796,0.322-1.18c0.407-0.892,0.983-1.704,1.577-2.483
	c0.949-1.212,1.992-2.343,3.048-3.463c1.05-1.113,2.159-2.174,3.276-3.22c0.535-0.505,1.077-1.006,1.602-1.522
	c0.269-0.263,0.535-0.527,0.802-0.791c0.112-0.109,0.228-0.215,0.344-0.321c0.179,0.007,0.359-0.016,0.51-0.104
	c0.205-0.121,0.359-0.32,0.422-0.551c0.071-0.251,0.019-0.481-0.092-0.71c-0.154-0.315-0.312-0.629-0.455-0.949
	c-0.115-0.291-0.22-0.584-0.291-0.888c-0.074-0.312-0.131-0.626-0.179-0.943c-0.044-0.403-0.058-0.798-0.02-1.2
	c0.059-0.325,0.146-0.635,0.263-0.945c0.193-0.422,0.424-0.816,0.695-1.193c0.393-0.479,0.879-0.877,1.362-1.262
	c0.303-0.226,0.61-0.426,0.954-0.59c0.55-0.215,1.117-0.351,1.7-0.438c0.411-0.045,0.825-0.063,1.238-0.026
	c0.417,0.07,0.821,0.183,1.215,0.339c0.564,0.254,1.105,0.579,1.601,0.948c0.297,0.251,0.571,0.533,0.82,0.833
	c0.274,0.377,0.523,0.778,0.723,1.201c0.197,0.534,0.306,1.112,0.393,1.674C28.376,8.232,28.39,8.771,28.334,9.309z M8.853,26.278
	c-0.004,0.005-0.007,0.01-0.011,0.015c-0.002,0.002-0.003,0.004-0.005,0.006C8.842,26.292,8.848,26.285,8.853,26.278z M8.842,26.293
	c0.004-0.005,0.008-0.011,0.012-0.016c-0.015,0.02-0.031,0.041-0.047,0.061C8.819,26.323,8.831,26.308,8.842,26.293z M8.904,26.211
	c-0.011,0.015-0.023,0.03-0.034,0.045c-0.006,0.008-0.012,0.015-0.017,0.022C8.87,26.256,8.887,26.233,8.904,26.211z M22.12,22.265
	c-0.017-0.021-0.033-0.042-0.049-0.064c0.006,0.007,0.011,0.014,0.017,0.021C22.099,22.236,22.109,22.25,22.12,22.265z
	 M17.987,21.434c-0.031-0.04-0.061-0.079-0.091-0.118c-0.012-0.015-0.023-0.03-0.035-0.045
	C17.903,21.325,17.945,21.378,17.987,21.434z"/>
</svg>