<?xml version="1.0" encoding="utf-8"?>
<!-- Generator: Adobe Illustrator 21.1.0, SVG Export Plug-In . SVG Version: 6.00 Build 0)  -->
<svg version="1.1" id="designs" xmlns="http://www.w3.org/2000/svg" xmlns:xlink="http://www.w3.org/1999/xlink" x="0px" y="0px"
	 width="32px" height="32px" viewBox="0 0 32 32" style="enable-background:new 0 0 32 32;" xml:space="preserve">
<style type="text/css">
	.sketchy_een{fill:#111918;}
</style>
<path class="sketchy_een" d="M28.696,5.603c-0.03-0.415-0.051-0.828-0.093-1.239c-0.036-0.373-0.082-0.746-0.12-1.119
	c-0.014-0.138-0.044-0.262-0.094-0.379c0.011-0.298-0.114-0.588-0.397-0.755C27.863,2.037,27.714,2,27.565,2
	c-0.294,0-0.59,0.142-0.729,0.414c-0.146,0.284-0.313,0.567-0.499,0.83c-0.36,0.427-0.767,0.82-1.201,1.171
	c-0.312,0.231-0.633,0.432-0.983,0.607c-0.412,0.206-0.826,0.409-1.247,0.598c-0.726,0.292-1.463,0.524-2.219,0.72
	c-0.402,0.103-0.801,0.223-1.207,0.314c-0.396,0.089-0.796,0.148-1.194,0.232c-0.826,0.175-1.643,0.394-2.467,0.579
	c-0.798,0.179-1.605,0.333-2.383,0.584c-1.749,0.565-3.417,1.382-4.78,2.633c-0.145,0.131-0.272,0.287-0.396,0.438
	c-0.167,0.206-0.335,0.415-0.48,0.638c-0.24,0.369-0.468,0.744-0.689,1.123c-0.215,0.367-0.421,0.74-0.619,1.117
	c-0.225,0.421-0.447,0.847-0.609,1.296c-0.287,0.805-0.512,1.616-0.674,2.454c-0.088,0.453-0.148,0.919-0.185,1.378
	c-0.03,0.404-0.019,0.809-0.002,1.213c0.038,0.862,0.179,1.721,0.434,2.545c0.12,0.388,0.232,0.788,0.386,1.165
	c0.164,0.398,0.36,0.78,0.55,1.167c0.219,0.443,0.459,0.875,0.694,1.31c-0.201,0.137-0.399,0.278-0.605,0.409
	c-0.693,0.437-1.379,0.907-2.129,1.24c-0.232,0.091-0.465,0.181-0.69,0.286c-0.187,0.088-0.327,0.305-0.381,0.495
	c-0.059,0.213-0.029,0.445,0.084,0.638c0.109,0.185,0.287,0.322,0.493,0.379c0.234,0.065,0.424,0.011,0.638-0.082
	c0.02-0.009,0.04-0.018,0.06-0.027c0.349-0.143,0.7-0.282,1.035-0.455c0.364-0.188,0.706-0.424,1.051-0.645
	c0.407-0.26,0.802-0.537,1.202-0.807c0.044,0.039,0.079,0.087,0.133,0.115c0.32,0.169,0.647,0.316,0.992,0.426
	c0.166,0.055,0.335,0.097,0.503,0.143c0.255,0.068,0.514,0.129,0.771,0.19c0.55,0.129,1.095,0.234,1.656,0.31
	c-0.074-0.01-0.148-0.021-0.221-0.03c0.094,0.013,0.187,0.026,0.281,0.039c0.449,0.066,0.897,0.135,1.35,0.169
	c0.537,0.042,1.106,0.067,1.635-0.051c0.453-0.101,0.898-0.221,1.336-0.379c0.424-0.15,0.839-0.333,1.254-0.506
	c0.864-0.356,1.698-0.775,2.488-1.273c0.388-0.246,0.779-0.489,1.169-0.729c0.417-0.255,0.786-0.575,1.152-0.897
	c0.708-0.621,1.315-1.35,1.865-2.111c0.527-0.729,1.064-1.447,1.498-2.235c0.211-0.385,0.404-0.78,0.598-1.174
	c0.204-0.411,0.417-0.82,0.603-1.241c0.215-0.485,0.411-0.978,0.598-1.475c0.156-0.419,0.326-0.836,0.447-1.264
	c0.246-0.87,0.383-1.767,0.525-2.657c0.15-0.933,0.232-1.862,0.265-2.808c0.029-0.845,0.048-1.692,0.044-2.537
	C28.764,7.187,28.757,6.391,28.696,5.603z M12.919,27.645c0.06,0.008,0.119,0.016,0.179,0.024c0.024,0.004,0.048,0.007,0.073,0.011
	C13.087,27.668,13.003,27.656,12.919,27.645z M26.794,10.088c-0.017,0.823-0.038,1.638-0.132,2.456
	c-0.127,0.902-0.279,1.805-0.5,2.69c-0.114,0.459-0.272,0.902-0.43,1.346c-0.151,0.431-0.308,0.858-0.48,1.281
	c-0.408,0.897-0.829,1.798-1.319,2.654c-0.255,0.449-0.541,0.878-0.838,1.3c-0.253,0.363-0.507,0.726-0.772,1.081
	c-0.296,0.372-0.597,0.74-0.924,1.085c-0.287,0.302-0.609,0.584-0.934,0.849c-0.288,0.199-0.584,0.386-0.878,0.575
	c-0.282,0.183-0.56,0.373-0.845,0.554c-0.609,0.383-1.252,0.711-1.913,0.994c-0.374,0.155-0.748,0.309-1.13,0.445
	c-0.4,0.142-0.823,0.245-1.243,0.317c-0.453,0.039-0.916-0.004-1.364-0.048c-0.28-0.041-0.558-0.093-0.838-0.134
	c-0.305-0.046-0.609-0.093-0.912-0.16c-0.318-0.07-0.632-0.16-0.944-0.249c-0.322-0.094-0.643-0.195-0.959-0.305
	c0.514-0.389,1.022-0.785,1.531-1.179c0.727-0.565,1.426-1.161,2.113-1.774c0.127-0.113,0.25-0.23,0.376-0.343
	c0.421,0.105,0.842,0.212,1.269,0.297c0.546,0.107,1.108,0.206,1.664,0.244c0.556,0.04,1.131,0.029,1.675-0.103
	c0.249-0.061,0.491-0.156,0.733-0.24c0.251-0.089,0.514-0.148,0.773-0.206c0.444-0.097,0.699-0.605,0.583-1.026
	c-0.126-0.457-0.583-0.678-1.026-0.582c-0.318,0.069-0.626,0.162-0.935,0.263c-0.268,0.09-0.533,0.178-0.809,0.23
	c-0.615,0.06-1.25,0.016-1.865-0.057c-0.211-0.033-0.419-0.085-0.628-0.13c0.692-0.65,1.371-1.312,2.024-2
	c0.645-0.678,1.291-1.355,1.913-2.054c0.302-0.337,0.593-0.684,0.877-1.036c0.142,0.029,0.285,0.057,0.427,0.082
	c0.198,0.034,0.398,0.055,0.6,0.07c0.301,0.021,0.609-0.042,0.902-0.109c0.685-0.152,1.355-0.362,2.018-0.598
	c0.2-0.072,0.364-0.177,0.474-0.365c0.109-0.185,0.137-0.407,0.082-0.613c-0.09-0.325-0.421-0.594-0.764-0.594
	c-0.072,0-0.145,0.012-0.217,0.038c-0.4,0.145-0.799,0.284-1.207,0.411c-0.342,0.108-0.693,0.213-1.045,0.282
	c-0.065,0.004-0.129-0.004-0.193-0.005c0.698-0.918,1.381-1.852,2.028-2.803c0.83-1.222,1.662-2.442,2.486-3.67
	c0.266-0.398,0.078-0.971-0.316-1.201c-0.139-0.081-0.286-0.119-0.43-0.119c-0.302,0-0.592,0.164-0.771,0.435
	c-0.777,1.173-1.548,2.347-2.309,3.529c-0.65,1.008-1.348,1.977-2.07,2.931c-0.552,0.696-1.107,1.386-1.685,2.062
	c-0.565,0.661-1.188,1.275-1.787,1.906c-0.078,0.081-0.159,0.159-0.237,0.24c-0.279-0.244-0.54-0.513-0.776-0.797
	c-0.281-0.39-0.565-0.787-0.767-1.224c-0.359-0.898-0.596-1.835-0.832-2.773c-0.091-0.363-0.439-0.602-0.799-0.602
	c-0.071,0-0.142,0.009-0.212,0.029c-0.438,0.12-0.685,0.577-0.573,1.011c0.166,0.649,0.345,1.292,0.55,1.93
	c0.086,0.263,0.181,0.523,0.272,0.782c0.126,0.352,0.242,0.712,0.445,1.028c0.335,0.523,0.645,1.053,1.062,1.517
	c0.117,0.13,0.24,0.256,0.363,0.38c-0.141,0.139-0.274,0.286-0.418,0.423c-0.417,0.397-0.84,0.789-1.262,1.183
	c-0.115,0.066-0.215,0.155-0.288,0.27c-0.153,0.143-0.305,0.287-0.459,0.43c-1.046,0.971-2.167,1.851-3.29,2.732
	c-0.09,0.069-0.183,0.134-0.273,0.202c-0.358-0.642-0.704-1.291-1.006-1.962c-0.151-0.391-0.275-0.796-0.387-1.199
	c-0.119-0.432-0.217-0.864-0.287-1.305c-0.047-0.41-0.081-0.823-0.09-1.236c-0.009-0.428,0.016-0.849,0.065-1.274
	c0.148-1.042,0.375-2.066,0.745-3.054c0.26-0.564,0.557-1.107,0.857-1.65c0.296-0.535,0.617-1.054,0.974-1.55
	c0.151-0.179,0.306-0.35,0.469-0.519c0.143-0.149,0.308-0.279,0.473-0.407c0.373-0.267,0.753-0.513,1.145-0.751
	c0.397-0.239,0.827-0.425,1.248-0.615c0.762-0.305,1.534-0.551,2.336-0.731c0.788-0.179,1.582-0.337,2.368-0.533
	c0.411-0.101,0.82-0.213,1.234-0.303c0.404-0.088,0.813-0.145,1.214-0.238c0.398-0.093,0.784-0.219,1.178-0.326
	c0.415-0.112,0.83-0.217,1.239-0.354c0.659-0.223,1.31-0.466,1.942-0.756c0.558-0.255,1.142-0.466,1.647-0.819
	c0.335-0.235,0.656-0.494,0.966-0.765c0.007,0.099,0.014,0.197,0.021,0.296c0.011,0.179,0.032,0.354,0.038,0.533
	c0.008,0.208,0.006,0.415,0.008,0.622c0.004,0.352,0.008,0.704,0.004,1.056C26.827,8.504,26.811,9.298,26.794,10.088z"/>
</svg>