<?xml version="1.0" encoding="utf-8"?>
<!-- Generator: Adobe Illustrator 21.1.0, SVG Export Plug-In . SVG Version: 6.00 Build 0)  -->
<svg version="1.1" id="designs" xmlns="http://www.w3.org/2000/svg" xmlns:xlink="http://www.w3.org/1999/xlink" x="0px" y="0px"
	 width="32px" height="32px" viewBox="0 0 32 32" style="enable-background:new 0 0 32 32;" xml:space="preserve">
<style type="text/css">
	.sketchy_een{fill:#111918;}
</style>
<path class="sketchy_een" d="M29.203,29.623c-0.002-0.407-0.038-0.814-0.044-1.222c-0.005-0.384-0.012-0.767-0.021-1.151
	c0.033-0.087,0.057-0.178,0.057-0.271c0-0.155-0.055-0.288-0.129-0.406c-0.121-0.307-0.406-0.533-0.762-0.533
	c-0.147,0-0.285,0.055-0.411,0.13c-0.569-0.012-1.138-0.012-1.707-0.008c-0.104,0.001-0.207,0-0.311,0
	c0.015-0.098,0.011-0.199-0.022-0.298c-0.24-0.716-0.448-1.442-0.651-2.168c-0.216-0.768-0.428-1.539-0.619-2.313
	c-0.196-0.781-0.369-1.565-0.571-2.343c-0.192-0.734-0.393-1.466-0.591-2.198c-0.208-0.766-0.421-1.531-0.674-2.285
	c-0.25-0.746-0.49-1.496-0.73-2.246c-0.478-1.5-0.901-3.021-1.343-4.533c-0.262-0.901-0.518-1.805-0.784-2.704
	c-0.286-0.966-0.526-1.944-0.784-2.916c-0.009-0.034-0.03-0.061-0.043-0.092c0.019-0.069,0.043-0.135,0.043-0.209
	c0-0.224-0.091-0.439-0.248-0.599c-0.167-0.167-0.367-0.228-0.597-0.246C18.136,1.003,18.011,1,17.886,1
	c-0.125,0-0.25,0.003-0.375,0.005c-0.345,0.008-0.692,0.014-1.036,0.022c-0.744,0.016-1.486,0.073-2.228,0.141
	c-0.234,0.022-0.434,0.079-0.605,0.25c-0.049,0.049-0.078,0.111-0.113,0.17c-0.001,0.001-0.003,0.001-0.005,0.002
	c-0.123,0.073-0.222,0.171-0.294,0.296c-0.075,0.126-0.111,0.263-0.113,0.409c-0.061,0.374-0.134,0.741-0.23,1.11
	c-0.111,0.421-0.222,0.845-0.331,1.268c-0.212,0.817-0.47,1.617-0.726,2.42c-0.506,1.581-0.849,3.212-1.204,4.832
	c-0.171,0.789-0.365,1.571-0.597,2.345c-0.238,0.786-0.452,1.579-0.669,2.371c-0.434,1.583-0.952,3.138-1.383,4.72
	c-0.421,1.547-0.811,3.1-1.248,4.642c-0.015,0.052-0.008,0.104-0.011,0.157c-0.949-0.013-1.898-0.033-2.848-0.052
	c-0.005,0-0.009,0-0.014,0c-0.26,0-0.483,0.141-0.631,0.34c0,0-0.001,0-0.001,0.001c-0.024,0.024-0.031,0.053-0.051,0.078
	c-0.018,0.032-0.045,0.058-0.06,0.091c-0.084,0.141-0.138,0.291-0.155,0.468c-0.05,0.524-0.093,1.051-0.117,1.577
	c-0.022,0.438-0.071,0.883-0.024,1.319c0.026,0.24,0.079,0.438,0.254,0.613c0.101,0.101,0.23,0.163,0.365,0.203
	c0.144,0.118,0.32,0.198,0.517,0.199c0.895,0.008,1.791-0.008,2.684-0.032c0.809-0.022,1.617-0.073,2.424-0.103
	c1.625-0.062,3.249-0.095,4.874-0.069c1.682,0.026,3.365,0.016,5.047,0.002c0.377-0.002,0.754,0,1.131,0
	c0.454,0.002,0.907,0.004,1.361-0.002c0.815-0.01,1.629-0.008,2.444-0.01c0.77-0.002,1.541-0.004,2.311-0.024
	c0.69-0.018,1.377-0.002,2.067,0.01c0.415,0.006,0.752-0.336,0.784-0.74C29.152,29.908,29.204,29.773,29.203,29.623z M10.48,18.175
	c0.041,0.006,0.079,0.025,0.122,0.023c0.841-0.03,1.684-0.064,2.527-0.076c0.815-0.01,1.631-0.008,2.446-0.01
	c1.587-0.004,3.174-0.004,4.761,0.032c0.597,0.014,1.192,0.008,1.789-0.012c0.043-0.001,0.081-0.019,0.123-0.027
	c0.065,0.236,0.132,0.471,0.198,0.707c0.107,0.384,0.193,0.772,0.287,1.159c-0.606-0.01-1.212-0.032-1.818-0.033
	c-0.768,0-1.539,0-2.309-0.024c-0.794-0.024-1.589-0.067-2.385-0.095c-0.817-0.03-1.633-0.044-2.452-0.054
	c-1.246-0.014-2.492-0.053-3.739-0.067C10.184,19.19,10.33,18.682,10.48,18.175z M12.969,8.768c0.087,0.032,0.178,0.057,0.275,0.061
	c1.172,0.04,2.341,0.064,3.513,0.062c0.904-0.002,1.808,0.016,2.713,0.044c0.14,0.492,0.284,0.983,0.426,1.475
	c-1.113,0.015-2.228,0.029-3.34,0.04c-0.682,0.008-1.363,0.018-2.045,0.02c-0.656,0-1.311-0.021-1.967-0.003
	c0.039-0.161,0.074-0.323,0.115-0.484C12.761,9.579,12.862,9.173,12.969,8.768z M17.475,2.667c0.047,0.001,0.094,0.004,0.141,0.007
	c0.223,0.814,0.45,1.627,0.706,2.432c0.242,0.756,0.476,1.514,0.698,2.278c-0.754-0.018-1.509-0.036-2.262-0.055
	c-1.11-0.031-2.219-0.078-3.329-0.124c0.216-0.677,0.433-1.353,0.631-2.037c0.22-0.769,0.476-1.537,0.619-2.326
	c0.591-0.059,1.182-0.12,1.775-0.151C16.793,2.673,17.136,2.665,17.475,2.667z M12.096,12.358c0.025-0.108,0.052-0.216,0.077-0.325
	c0.071,0.02,0.141,0.044,0.217,0.04c2.649-0.135,5.302-0.139,7.953-0.121c0.014,0.046,0.026,0.092,0.04,0.137
	c0.45,1.488,0.984,2.952,1.426,4.444c0.005,0.019,0.01,0.038,0.016,0.056c-3.111,0.153-6.23,0.045-9.342,0.008
	c-0.516-0.005-1.031,0.003-1.545,0.013c0.166-0.6,0.33-1.2,0.508-1.798C11.689,14.002,11.905,13.185,12.096,12.358z M8.481,25.288
	c0.095-0.383,0.198-0.766,0.294-1.149c0.198-0.784,0.413-1.563,0.631-2.341c0.046-0.166,0.099-0.33,0.147-0.496
	c0.007,0,0.013,0.004,0.021,0.004c0.855-0.006,1.708-0.03,2.563-0.032c0.815,0,1.629,0.024,2.444,0.04
	c0.827,0.018,1.654,0.028,2.48,0.077c0.792,0.044,1.585,0.073,2.377,0.091c0.625,0.012,1.252,0.014,1.877,0.02
	c0.605,0.004,1.208,0.034,1.813,0.06c0.369,1.549,0.781,3.089,1.273,4.601c-0.206,0-0.412,0-0.618,0
	c-1.682-0.004-3.362,0.041-5.041,0.051c-0.831,0.006-1.662-0.002-2.492-0.022c-0.821-0.018-1.641-0.073-2.462-0.073
	c-0.837,0-1.676,0.008-2.513,0.028c-0.815,0.02-1.631,0.018-2.448,0.026c-0.186,0.001-0.372-0.003-0.557-0.003
	C8.34,25.875,8.406,25.58,8.481,25.288z M23.53,29.24c-0.825,0-1.65-0.004-2.472,0.004c-0.827,0.006-1.651,0.036-2.476,0.032
	c-1.67-0.01-3.339-0.022-5.009-0.036c-1.643-0.014-3.287,0.022-4.928,0.089c-0.756,0.03-1.51,0.071-2.267,0.069
	c-0.607-0.001-1.214-0.024-1.821-0.042c0.012-0.23,0.029-0.461,0.047-0.691c0.023-0.305,0.059-0.609,0.091-0.914
	c0.632,0,1.264,0,1.896,0c0.823,0,1.645,0.01,2.466,0.014c0.803,0.004,1.607-0.01,2.41-0.026c0.845-0.014,1.692-0.03,2.541-0.026
	c0.843,0.004,1.688,0.046,2.531,0.075c0.813,0.028,1.627,0.028,2.44,0.022c1.676-0.012,3.353-0.046,5.029-0.05
	c0.756-0.002,1.512-0.006,2.269-0.002c0.204,0.002,0.407,0.002,0.613,0c0.21,0,0.42,0.008,0.629,0.009
	c0.008,0.188,0.019,0.377,0.025,0.565c0.008,0.226,0.01,0.452,0.01,0.677c-0.001,0.061-0.002,0.122-0.005,0.183
	C26.21,29.226,24.869,29.24,23.53,29.24z"/>
</svg>