<?xml version="1.0" encoding="utf-8"?>
<!-- Generator: Adobe Illustrator 21.1.0, SVG Export Plug-In . SVG Version: 6.00 Build 0)  -->
<svg version="1.1" id="designs" xmlns="http://www.w3.org/2000/svg" xmlns:xlink="http://www.w3.org/1999/xlink" x="0px" y="0px"
	 width="32px" height="32px" viewBox="0 0 32 32" style="enable-background:new 0 0 32 32;" xml:space="preserve">
<style type="text/css">
	.sketchy_een{fill:#111918;}
</style>
<path class="sketchy_een" d="M23.13,29c-0.316,0-0.576-0.021-0.822-0.064c-0.579-0.106-1.032-0.492-1.183-1.009
	c-0.078-0.271-0.113-0.558-0.146-0.836l-0.025-0.206l0.002-0.051l-0.047-0.063l-0.361-0.01c-1.307-0.008-2.615-0.014-3.921-0.014
	l-1.448,0.002c-0.876,0.002-1.752,0.005-2.628,0.035c-0.745,0.023-1.489,0.041-2.234,0.049c0.017,0.224,0.032,0.383,0.001,0.583
	c-0.045,0.307-0.171,0.733-0.518,1.022c-0.2,0.17-0.416,0.338-0.667,0.378c-0.15,0.023-0.303,0.046-0.456,0.06
	c-0.352,0.036-0.705,0.05-1.058,0.05l-0.275-0.001c-0.428-0.002-0.871-0.004-1.285-0.122c-0.378-0.107-0.639-0.294-0.82-0.586
	c-0.113-0.182-0.172-0.441-0.161-0.712c0.007-0.257,0.029-0.514,0.052-0.77l-0.483-0.099l-0.218-0.005l-0.106,0.005
	c-0.043,0.012-0.084,0.023-0.125,0.023c-0.219,0-0.432-0.089-0.584-0.243c-0.132-0.13-0.265-0.367-0.244-0.579
	c0.026-0.27,0.028-0.541,0.03-0.812l0.008-1.225c0.002-0.704-0.006-1.407-0.031-2.11l-0.041-1.091
	c-0.043-1.133-0.086-2.267-0.112-3.401c-0.012-0.548-0.072-2.594-0.072-2.594c-0.017-0.627-0.006-1.257,0.004-1.885l0.009-0.643
	c0.019-1.794,0.004-3.588-0.019-5.379c-0.001-0.109,0.027-0.216,0.09-0.337c0.108-0.334,0.395-0.562,0.702-0.562
	C4.442,5.823,4.911,5.844,5.38,5.86l0.149,0.004C5.718,5.87,5.907,5.876,6.096,5.876c0.178,0,0.356-0.005,0.534-0.02l1.203-0.106
	C7.929,5.74,8.027,5.737,8.125,5.737c0.174,0,0.35,0.011,0.524,0.022l1.06,0.05c0.583,0.026,1.166,0.053,1.749,0.067l0.325,0.004
	c0.047-0.291,0.044-0.531,0.056-0.771c0.017-0.345,0.05-0.707,0.239-1.01c0.306-0.488,0.835-0.843,1.415-0.949
	c0.439-0.082,0.895-0.128,1.395-0.141L15.275,3c0.085,0,0.17,0.002,0.255,0.008c0.165,0.013,0.328,0.037,0.492,0.062
	c0.35,0.042,0.648,0.061,0.945,0.072l0.103,0.003c0.224,0.007,0.455,0.014,0.661,0.088c0.258,0.096,0.433,0.198,0.671,0.39
	c0.257,0.207,0.464,0.536,0.616,0.976c0.152,0.442,0.207,0.923,0.237,1.294l0.303,0.082c0.571,0.002,1.14,0.005,1.712,0.02
	c0.235,0.007,0.471,0.008,0.706,0.008l0.603-0.001c0.35,0,0.699,0.003,1.049,0.02c0.749,0.04,1.498,0.078,2.248,0.078l1.104-0.008
	c0.263,0,0.524,0.004,0.786,0.019c0.464,0.027,0.814,0.375,0.814,0.812c0,0.154-0.058,0.311-0.171,0.468
	c0.046,0.162,0.071,0.273,0.069,0.38L28.47,8.015c-0.06,2.29-0.122,4.657-0.054,6.987l0.02,0.733
	c0.016,0.63,0.031,1.261,0.064,1.891l0.051,0.902c0.035,0.59,0.071,1.18,0.085,1.771l0.002,0.104
	c0.019,0.833,0.038,1.669,0.079,2.502l0.056,1.045c0.029,0.522,0.059,1.043,0.079,1.564c0.005,0.126-0.031,0.251-0.113,0.394
	c0.003,0.301-0.091,0.527-0.254,0.692c-0.174,0.174-0.369,0.227-0.625,0.256c-0.336,0.037-0.677,0.05-1.018,0.054l-0.181,0
	l-0.148,0.051c0.002,0.099,0.004,0.198,0.001,0.295c0,0.068-0.004,0.132-0.008,0.197c-0.013,0.213-0.02,0.345-0.061,0.457
	c-0.043,0.119-0.089,0.24-0.155,0.349c-0.088,0.152-0.199,0.251-0.36,0.369c-0.119,0.09-0.277,0.159-0.448,0.195
	c-0.505,0.111-1.04,0.132-1.558,0.152l-0.16,0.007C23.551,28.991,23.341,29,23.13,29z M22.65,27.232l0.02,0.108l0.145,0.062
	c0.203,0.02,0.404,0.027,0.604,0.027c0.138,0,0.277-0.003,0.416-0.009c0.346-0.014,0.693-0.034,1.038-0.07
	c0.09-0.176,0.088-0.299,0.081-0.421l-0.592-0.064l-1.766-0.051L22.65,27.232z M8.687,27.253c0.047-0.01,0.085-0.051,0.104-0.097
	c0.02-0.05,0.022-0.105,0.023-0.159c0.001-0.055,0.002-0.11-0.009-0.178c-0.066,0-0.134,0.004-0.201,0.004
	c-0.227-0.008-0.453-0.016-0.679-0.029c-0.105-0.006-0.21-0.02-0.314-0.033c-0.099-0.012-0.198-0.025-0.298-0.031L6.91,26.71
	c-0.017,0.154-0.095,0.294-0.044,0.447c0.007,0.02,0.015,0.04,0.033,0.051c0.015,0.01,0.034,0.012,0.052,0.013
	c0.437,0.031,0.869,0.044,1.307,0.044C8.395,27.265,8.536,27.266,8.687,27.253z M11.73,21.919c-0.115,0.115-0.23,0.23-0.339,0.351
	c-0.273,0.303-0.541,0.609-0.81,0.916c-0.246,0.28-0.917,1.04-0.917,1.04c-0.131,0.15-0.262,0.3-0.402,0.442l0.101,0.147
	l0.097,0.073c0.165,0.125,0.27,0.232,0.318,0.412c0.337,0.015,0.666,0.021,0.989,0.021c0.466,0,0.922-0.013,1.378-0.03
	c0.747-0.028,1.495-0.043,2.243-0.055c0.089-0.16,0.149-0.265,0.229-0.355c0.088-0.1,0.189-0.19,0.289-0.28l0.041-0.037l0-0.075
	c-0.397-0.363-0.798-0.721-1.2-1.078c-0.473-0.422-0.948-0.845-1.443-1.245l-0.448-0.372L11.73,21.919z M5.039,25.113l0.217,0.055
	c0.55,0.018,1.1,0.036,1.65,0.07c0.038-0.201,0.036-0.323,0.066-0.431c0.012-0.045,0.035-0.081,0.059-0.12l-0.427-0.53l-1.605-1.574
	L5.039,25.113z M25.373,25.228h0.015c0.598-0.01,1.17-0.021,1.737-0.059c0.033-0.525,0.016-0.997-0.002-1.47
	c-0.018-0.502-0.036-1.004-0.051-1.507l-0.562,0.417c-0.404,0.382-0.807,0.764-1.207,1.149l-0.735,0.727
	c0.231,0.285,0.467,0.498,0.713,0.692c0,0,0.032,0.025,0.039,0.03l0.002-0.005L25.373,25.228z M19.411,22.311
	c-0.13,0.138-0.261,0.275-0.397,0.407c-0.333,0.324-0.658,0.657-0.982,0.99c-0.234,0.241-0.469,0.482-0.707,0.719l-0.038,0.038
	l-0.035,0.107l0.222,0.194c0.102,0.093,0.165,0.223,0.192,0.397l2.212,0.038c0.594,0,1.189,0.001,1.784,0.006
	c0.092-0.069,0.116-0.093,0.145-0.116l0.364-0.274c0.053-0.042,0.266-0.228,0.266-0.228l-0.329-0.381l-0.357-0.33
	c-0.434-0.395-0.872-0.785-1.309-1.175l-0.72-0.644L19.411,22.311z M7.782,18.307c-0.474,0.466-0.946,0.936-1.416,1.407
	l-0.077,0.078c-0.257,0.259-0.514,0.517-0.762,0.783l-0.194,0.211c0.689,0.756,1.372,1.445,2.048,2.143l0.693,0.719l0.15-0.068
	c0.038-0.032,0.076-0.063,0.11-0.1l0.38-0.412c0.173-0.186,0.346-0.372,0.515-0.561l0.944-1.077
	c0.123-0.139,0.254-0.271,0.385-0.403l0.137-0.138c-0.282-0.319-0.557-0.568-0.833-0.817c-0.276-0.25-0.552-0.5-0.831-0.746
	c-0.317-0.278-1.215-1.053-1.215-1.053L7.782,18.307z M23.125,18.391c-0.252,0.247-0.505,0.495-0.745,0.754
	c-0.308,0.333-1.682,1.835-1.682,1.835l0.655,0.649l2.173,1.942c0.397-0.308,0.724-0.619,1.044-0.935l1.28-1.271l0.394-0.406
	l-0.367-0.374l-0.548-0.457c-0.526-0.446-1.041-0.906-1.557-1.369c-0.09-0.081-0.183-0.157-0.277-0.233
	c-0.08-0.065-0.274-0.229-0.274-0.229L23.125,18.391z M13.338,21.189c0.63,0.491,1.239,1.028,1.827,1.547l0.87,0.768l0.269-0.192
	c0,0,1.158-1.128,1.388-1.348c0.302-0.289,0.601-0.58,0.893-0.876l-0.541-0.593c-0.372-0.358-0.742-0.717-1.117-1.071l-0.639-0.609
	c-0.271-0.26-0.542-0.52-0.817-0.775l-0.338,0.256c-0.216,0.204-0.432,0.409-0.639,0.621c-0.414,0.424-0.808,0.871-1.201,1.316
	l-0.382,0.431l-0.061,0.146l0.213,0.165l0.102,0.08L13.338,21.189z M18.22,15.402c-0.478,0.398-0.934,0.832-1.375,1.252
	l-0.409,0.388l2.075,1.999l1.049,0.971l0.275-0.216l1.097-1.141c0.39-0.408,0.78-0.816,1.186-1.208l-0.509-0.503
	c-0.312-0.266-0.623-0.532-0.945-0.785c-0.571-0.433-1.129-0.877-1.688-1.321l-0.092,0.041c-0.219,0.174-0.444,0.349-0.671,0.523
	L18.22,15.402z M11.487,14.814c-0.897,0.816-1.773,1.65-2.649,2.488l0.224,0.263c0.433,0.37,0.862,0.744,1.292,1.117
	c0.436,0.38,0.872,0.759,1.312,1.135l0.308-0.247c0.253-0.258,0.506-0.516,0.752-0.781c0.478-0.522,1.016-1.064,1.644-1.658
	l-0.901-0.855c-0.601-0.522-1.203-1.043-1.797-1.572l-0.034-0.03L11.487,14.814z M26.781,15.016
	c-0.755,0.647-1.491,1.283-2.193,1.962l-0.351,0.336l0.073,0.058l0.293,0.259c0.497,0.443,0.994,0.885,1.503,1.312
	c0.271,0.228,0.542,0.454,0.815,0.679l0.075-0.29c-0.007-0.25-0.015-0.5-0.027-0.751c-0.054-1.041-0.086-2.162-0.104-3.527
	l-0.001-0.107L26.781,15.016z M4.734,16.028c0.014,0.368,0.024,0.735,0.033,1.103c0.013,0.484,0.025,0.968,0.049,1.45l0.029,0.588
	l0.299-0.182l0.339-0.34c0.428-0.421,0.858-0.839,1.29-1.256l-0.537-0.606C5.998,16.55,5.761,16.313,5.52,16.08
	c-0.188-0.184-0.387-0.36-0.585-0.536l-0.231-0.205L4.734,16.028z M8.391,14.305c-0.494,0-0.988,0.011-1.48,0.03
	c-0.302,0.012-0.603,0.031-0.903,0.05l-0.171,0.011c0.488,0.586,0.993,1.097,1.492,1.618c0.088,0.092,0.181,0.177,0.275,0.262
	l0.128,0.118c0.748-0.659,1.43-1.316,2.115-1.968l0.085-0.081l-0.588-0.025C9.027,14.309,8.709,14.305,8.391,14.305z M24.435,14.391
	c-0.828,0.012-1.661,0.027-2.489,0.06c-0.216,0.008-0.43,0.01-0.645,0.011l-0.365,0.004l0.273,0.335
	c0.439,0.355,0.878,0.71,1.308,1.077c0.169,0.144,0.61,0.51,0.61,0.51l0.446-0.376l0.359-0.353c0.319-0.322,0.656-0.625,0.992-0.927
	l0.385-0.349L24.435,14.391z M13.625,14.546c0.582,0.525,1.163,1.051,1.742,1.581l0.253-0.173c0.154-0.144,0.308-0.287,0.459-0.435
	c0.326-0.319,0.655-0.633,0.991-0.941l0.094-0.087l-1.644,0.006c-0.44,0-0.88-0.004-1.32-0.016l-0.678-0.029L13.625,14.546z
	 M20.517,12.952c0.197,0,0.395-0.002,0.593-0.008l1.312-0.054c0.822-0.027,1.64-0.054,2.46-0.058l0.352-0.001
	c0.281-0.001,0.565-0.001,0.845-0.014c0.165-0.006,0.328-0.02,0.492-0.034c0.081-0.025,0.124-0.031,0.167-0.038l0.042-0.006
	l0.068-0.055l-0.002-1.365c-0.003-1.181-0.007-2.363,0.017-3.543l-0.149-0.075c-0.974-0.026-1.949-0.052-2.92-0.103
	c-0.643-0.033-1.288-0.05-1.933-0.066l-0.053-0.001L21.757,7.58c0.011,0.253,0.018,0.423,0.038,0.592l0.029,0.193
	c0.028,0.182,0.056,0.364,0.074,0.548c0.015,0.153,0.02,0.307,0.025,0.461c0.013,0.384-0.018,1.338-0.784,1.667
	c-0.228,0.098-0.425,0.169-0.644,0.2c-0.291,0.04-0.55,0.075-0.805,0.087c-0.241,0.011-0.483,0.014-0.724,0.014l-0.655-0.004
	c-0.372-0.004-0.744-0.012-1.119-0.02c-0.173-0.003-0.33-0.01-0.487-0.018c-0.217-0.01-0.433-0.019-0.65-0.019l-1.315,0.003
	c-0.405,0-0.811-0.003-1.218-0.015c-0.402-0.009-0.804-0.029-1.207-0.052c-0.395-0.025-0.851-0.062-1.28-0.179
	c-0.396-0.108-0.689-0.272-0.896-0.5c-0.173-0.191-0.298-0.435-0.36-0.704C9.73,9.612,9.705,9.4,9.705,9.204
	c0-0.169,0.024-0.336,0.048-0.503C9.79,8.286,9.75,7.866,9.711,7.46l-0.01-0.108C9.458,7.295,9.263,7.283,9.068,7.276
	C8.907,7.271,8.746,7.26,8.585,7.249C8.371,7.234,8.157,7.22,7.945,7.22C7.588,7.225,7.275,7.26,6.964,7.296L6.639,7.333
	C6.255,7.373,5.869,7.377,5.483,7.38L4.71,7.37c-0.052,0.585-0.057,1.12-0.062,1.654c-0.007,0.825-0.015,1.649-0.009,2.473
	l0.01,1.381c0.307,0.033,0.593,0.044,0.872,0.044c0.141,0,0.28-0.003,0.42-0.007c0.263-0.008,0.526-0.021,0.789-0.033l0.59-0.027
	C8.077,12.826,8.837,12.8,9.596,12.8l1.108,0.004c0.513,0,1.027,0,1.54,0.014l2.307,0.065c0.645,0.019,1.201,0.024,1.757,0.029
	l0.952,0.011c0.805,0.014,1.609,0.027,2.413,0.027l0.167,0L20.517,12.952z M11.272,7.431l0.003,0.041
	c0.024,0.311,0.048,0.623,0.044,0.934c-0.002,0.103-0.008,0.206-0.014,0.308c-0.011,0.182-0.021,0.364-0.009,0.547
	c0.012,0.063,0.026,0.12,0.043,0.175c0.243,0.104,0.458,0.158,0.676,0.197c1.399,0.15,2.801,0.15,4.158,0.15
	c0.309,0,0.617,0.005,0.925,0.011c0.31,0.005,0.621,0.011,0.93,0.011h0.153c0.583-0.001,1.187-0.003,1.78-0.072
	c0.108-0.018,0.211-0.038,0.314-0.065c0.043-0.245,0.029-0.445,0.008-0.641c-0.02-0.121-0.127-0.685-0.127-0.685
	c-0.032-0.203-0.057-0.407-0.081-0.611l-0.026-0.202L20,7.486l-1.087,0.001c-1.632-0.004-3.264-0.012-4.895-0.049l-0.922-0.018
	c-0.476-0.008-0.952-0.016-1.428-0.032l-0.303-0.011L11.272,7.431z M14.796,4.741c-0.251,0.007-0.505,0.016-0.757,0.041
	c-0.12,0.02-0.236,0.045-0.349,0.079l-0.1,0.059c-0.061,0.285-0.054,0.513-0.046,0.74l0.006,0.197l0.17,0.05l1.423,0.037
	c0.206,0.004,1.138,0.004,1.138,0.004l1.247,0.011l0.038-0.133c-0.042-0.273-0.097-0.505-0.17-0.711
	c-0.029-0.059-0.058-0.11-0.09-0.16l-0.082-0.063c-0.129-0.011-0.24-0.014-0.351-0.017c-0.15-0.003-0.301-0.007-0.451-0.021
	c-0.263-0.024-0.523-0.059-0.783-0.094c-0.165-0.019-0.326-0.025-0.487-0.025L14.796,4.741z"/>
</svg>