<?xml version="1.0" encoding="utf-8"?>
<!-- Generator: Adobe Illustrator 21.1.0, SVG Export Plug-In . SVG Version: 6.00 Build 0)  -->
<svg version="1.1" id="designs" xmlns="http://www.w3.org/2000/svg" xmlns:xlink="http://www.w3.org/1999/xlink" x="0px" y="0px"
	 width="32px" height="32px" viewBox="0 0 32 32" style="enable-background:new 0 0 32 32;" xml:space="preserve">
<style type="text/css">
	.sketchy_een{fill:#111918;}
</style>
<path class="sketchy_een" d="M28.79,28.089c0.041-0.231,0.068-0.458,0.064-0.691c-0.004-0.218-0.008-0.435-0.014-0.652
	c-0.012-0.386-0.05-0.771-0.078-1.155c-0.052-0.73-0.099-1.462-0.136-2.192c-0.043-0.81-0.025-1.621-0.027-2.431
	c-0.002-0.812,0.014-1.621,0.016-2.433c0-0.677,0.008-1.349,0.039-2.025c0.035-0.775,0.072-1.547,0.085-2.322
	c0.004-0.248-0.113-0.468-0.289-0.625c-0.003-0.016,0.001-0.031-0.003-0.048c-0.101-0.367-0.44-0.604-0.803-0.604
	c-0.064,0-0.129,0.007-0.193,0.023c-0.282,0.025-0.568,0.03-0.85,0.044c-0.359,0.019-0.72,0.035-1.081,0.041
	c-0.232,0.005-0.464,0.007-0.696,0.009c-0.01-1.077-0.02-2.155-0.038-3.234c-0.006-0.289-0.006-0.579-0.008-0.868
	c-0.002-0.293-0.019-0.586-0.023-0.879c-0.005-0.524,0.01-1.046,0.02-1.568c0.425-0.136,0.82-0.425,1.13-0.732
	c0.311-0.309,0.501-0.724,0.596-1.147c0.045-0.194,0.074-0.419,0.056-0.621c-0.027-0.318-0.107-0.573-0.25-0.856
	c-0.155-0.307-0.414-0.534-0.689-0.728C25.312,2.179,24.973,2,24.597,2c-0.045,0-0.091,0.002-0.137,0.008
	c-0.087,0.01-0.169,0.022-0.247,0.043c-0.068,0.002-0.135,0.014-0.202,0.037c-0.443,0.157-0.915,0.328-1.295,0.61
	c-0.225,0.167-0.373,0.328-0.538,0.555c-0.122,0.167-0.196,0.381-0.262,0.575c-0.14,0.404-0.146,0.905-0.014,1.311
	c0.093,0.289,0.278,0.524,0.482,0.742c0.161,0.169,0.351,0.332,0.561,0.433c0.086,0.041,0.176,0.071,0.266,0.104
	c0,0.542,0.01,1.085,0.005,1.629c-0.006,0.582-0.037,1.165-0.027,1.747c0.012,0.629,0.019,1.26,0.039,1.889
	c0.014,0.462,0.023,0.925,0.021,1.387c-0.773,0.042-1.549,0.043-2.322,0.037c-0.852-0.006-1.705-0.01-2.555-0.027
	c-0.825-0.017-1.65-0.037-2.476-0.042c-0.781-0.004-1.559-0.041-2.34-0.064c-0.856-0.025-1.714-0.035-2.571-0.043
	c-0.751-0.006-1.501,0.02-2.25,0.049c-0.342,0.011-0.683,0.037-1.023,0.051c-0.363,0.013-0.728-0.002-1.091-0.01
	c-0.761-0.012-1.52-0.054-2.281-0.08c-0.448-0.016-0.823,0.384-0.823,0.823c0,0.065,0.023,0.122,0.037,0.183
	c-0.113,0.145-0.192,0.318-0.195,0.513c-0.014,0.903-0.002,1.806-0.008,2.708c-0.006,0.736-0.052,1.47-0.072,2.206
	c-0.019,0.81-0.06,1.621-0.105,2.431c-0.043,0.765-0.031,1.54-0.014,2.305C3.184,25,3.208,25.891,3.204,26.783
	c-0.002,0.804,0.029,1.604,0.078,2.406C3.307,29.631,3.629,30,4.093,30c0.155,0,0.304-0.063,0.437-0.15
	c0.718,0.057,1.439,0.074,2.158,0.089c0.726,0.015,1.452,0.035,2.179,0.048c0.872,0.016,1.746-0.004,2.617-0.023
	c0.689-0.016,1.379-0.029,2.07-0.029c0.767,0.002,1.534-0.008,2.301-0.021c0.386-0.006,0.775-0.012,1.161-0.014
	c0.377-0.002,0.755,0.018,1.132,0.021c0.751,0.008,1.503,0.004,2.254-0.002c0.833-0.004,1.664-0.01,2.497,0
	c1.113,0.014,2.225,0.043,3.338,0.033c0.394-0.004,0.79-0.019,1.184-0.011c0.19,0.006,0.361-0.004,0.549-0.031
	c0.217-0.031,0.484-0.188,0.577-0.396c0.08-0.175,0.107-0.258,0.118-0.454c0.002-0.037,0-0.076,0.002-0.113
	c0.005-0.165-0.054-0.323-0.152-0.451C28.645,28.387,28.763,28.248,28.79,28.089z M23.507,4.199c0.02-0.038,0.041-0.075,0.064-0.111
	c0.021-0.023,0.043-0.046,0.066-0.068c0.091-0.058,0.186-0.107,0.285-0.152c0.094-0.037,0.187-0.073,0.282-0.108
	c0.082,0.024,0.168,0.034,0.257,0.027c0.007-0.001,0.014-0.002,0.02-0.003C24.542,3.82,24.6,3.859,24.658,3.9
	c0.045,0.038,0.087,0.078,0.127,0.12c0.016,0.026,0.032,0.052,0.047,0.079c0.002,0.008,0.004,0.016,0.007,0.023
	c0.001,0.046,0,0.092-0.003,0.138c-0.018,0.084-0.041,0.167-0.068,0.248c-0.017,0.033-0.036,0.065-0.055,0.097
	c-0.062,0.069-0.128,0.133-0.198,0.194c-0.074,0.051-0.15,0.096-0.229,0.139c-0.027,0.009-0.055,0.016-0.083,0.023
	c-0.054,0.003-0.108,0.003-0.163,0c-0.102-0.019-0.202-0.044-0.301-0.077c-0.023-0.012-0.046-0.025-0.068-0.038
	c-0.072-0.066-0.139-0.137-0.203-0.212c-0.002-0.003-0.004-0.006-0.005-0.009c-0.004-0.014-0.007-0.028-0.011-0.042
	c-0.003-0.057-0.003-0.115-0.001-0.172C23.466,4.338,23.484,4.268,23.507,4.199z M24.48,28.41c-0.742-0.017-1.481-0.064-2.223-0.062
	c-0.79,0.002-1.581-0.004-2.373-0.012c-1.579-0.016-3.159-0.045-4.74-0.019c-0.763,0.011-1.524,0.011-2.287,0.021
	c-0.777,0.01-1.549,0.066-2.326,0.066c-1.029,0.002-2.056-0.042-3.085-0.046c-0.86-0.003-1.72-0.051-2.577-0.127
	c-0.035-1.014-0.03-2.03-0.036-3.044c-0.004-0.767-0.047-1.534-0.041-2.303c0.008-0.782,0.045-1.559,0.087-2.342
	c0.05-0.942,0.08-1.887,0.095-2.831c0.019-1.039,0.051-2.077,0.076-3.118c0.634,0.012,1.268,0.028,1.903,0.018
	c0.839-0.013,1.678-0.068,2.516-0.076c1.604-0.013,3.21-0.01,4.811,0.043c0.796,0.027,1.588,0.062,2.384,0.068
	c0.825,0.004,1.648,0.01,2.474,0.01c0.829-0.002,1.66,0.027,2.489,0.027c0.782,0,1.563-0.006,2.346-0.029
	c0.658-0.017,1.316-0.012,1.975-0.037c0.303-0.013,0.606-0.017,0.911-0.019c0.059-0.001,0.117-0.001,0.176-0.001
	c-0.005,0.753-0.013,1.507-0.03,2.26c-0.018,0.796-0.021,1.59-0.043,2.386c-0.021,0.835-0.027,1.672-0.027,2.509
	c0,0.394-0.004,0.786,0.004,1.18c0.006,0.367,0.039,0.732,0.054,1.097c0.029,0.639,0.076,1.274,0.109,1.913
	c0.018,0.32,0.033,0.641,0.047,0.961c0.014,0.318,0.025,0.645-0.014,0.961c0,0.153,0.039,0.295,0.115,0.425
	c0.018,0.031,0.049,0.052,0.07,0.08c-0.237,0.007-0.474,0.012-0.713,0.027C25.899,28.439,25.191,28.428,24.48,28.41z M14.203,25.403
	c0.011-0.008,0.022-0.017,0.033-0.026c0.004-0.003,0.007-0.005,0.011-0.008C14.233,25.38,14.218,25.392,14.203,25.403z
	 M15.009,18.428c-0.495-0.538-1.14-0.87-1.755-1.247c-0.155-0.095-0.291-0.216-0.452-0.301c-0.326-0.169-0.67-0.217-1.033-0.241
	c-0.015-0.001-0.029-0.001-0.044-0.001c-0.05,0-0.099,0.006-0.148,0.016c-0.079,0.001-0.16,0.011-0.243,0.026
	c-0.639,0.12-1.266,0.369-1.835,0.682c-0.478,0.262-0.866,0.612-1.182,1.052c-0.284,0.39-0.462,0.825-0.641,1.272
	c-0.157,0.39-0.301,0.792-0.383,1.204c-0.052,0.26-0.083,0.524-0.117,0.788c-0.027,0.206-0.058,0.416-0.047,0.623
	c0.021,0.313,0.064,0.625,0.181,0.918c0.099,0.249,0.2,0.495,0.34,0.722c0.28,0.456,0.623,0.843,1.045,1.167
	c0.332,0.254,0.718,0.423,1.115,0.557c0.627,0.217,1.285,0.322,1.949,0.342c0.427,0.013,0.843,0.027,1.266-0.047
	c0.458-0.076,0.847-0.315,1.211-0.585c0.375-0.293,0.682-0.634,0.977-1.009c0.165-0.21,0.313-0.416,0.425-0.656
	c0.105-0.221,0.196-0.45,0.272-0.683c0.262-0.819,0.291-1.722,0.118-2.563C15.873,19.716,15.53,18.995,15.009,18.428z M14.313,21.91
	c-0.048,0.273-0.123,0.535-0.221,0.794c-0.09,0.196-0.193,0.383-0.315,0.561c-0.179,0.216-0.37,0.416-0.584,0.599
	c-0.107,0.075-0.216,0.146-0.333,0.207c-0.078,0.028-0.157,0.052-0.238,0.07c-0.249,0.018-0.496,0.012-0.745-0.003
	c-0.219-0.013-0.438-0.021-0.656-0.044c-0.353-0.059-0.699-0.151-1.032-0.278c-0.146-0.069-0.288-0.147-0.42-0.239
	c-0.129-0.111-0.247-0.234-0.357-0.365c-0.118-0.168-0.223-0.342-0.313-0.527c-0.04-0.107-0.074-0.215-0.1-0.329
	c-0.017-0.249-0.003-0.498,0.024-0.746c0.102-0.572,0.269-1.112,0.483-1.651c0.099-0.209,0.212-0.408,0.342-0.6
	c0.081-0.095,0.166-0.186,0.26-0.269c0.204-0.142,0.417-0.257,0.646-0.362c0.063-0.025,0.127-0.05,0.191-0.074
	c0.266-0.1,0.537-0.163,0.817-0.214c0.035,0.009,0.069,0.018,0.104,0.028c0.053,0.031,0.104,0.064,0.153,0.102
	c-0.01-0.008-0.02-0.016-0.031-0.024c0.206,0.154,0.414,0.297,0.636,0.43c0.263,0.156,0.532,0.316,0.781,0.495
	c0.143,0.121,0.276,0.25,0.398,0.392c0.126,0.179,0.235,0.369,0.33,0.567c0.085,0.22,0.15,0.446,0.191,0.678
	C14.347,21.376,14.34,21.643,14.313,21.91z M18.255,19.561c0-0.437,0.371-0.829,0.817-0.817c0.755,0.018,1.513,0.072,2.268,0.06
	c0.318-0.006,0.643,0.002,0.961-0.021c0.346-0.025,0.693-0.052,1.041-0.074c0.013-0.001,0.026-0.001,0.038-0.001
	c0.433,0,0.789,0.411,0.789,0.828c0,0.464-0.377,0.81-0.827,0.827c-0.668,0.025-1.334,0.06-2.002,0.043
	c-0.755-0.021-1.513-0.012-2.268-0.025C18.626,20.372,18.255,20.013,18.255,19.561z M24.262,22.038
	c0.062,0.221,0.029,0.462-0.085,0.66c-0.105,0.177-0.303,0.355-0.513,0.392c-0.507,0.093-1.023,0.089-1.536,0.083
	c-0.231-0.002-0.46-0.004-0.689,0.002c-0.353,0.012-0.705,0.021-1.058,0.047c-0.472,0.033-0.942,0.078-1.412,0.126
	c-0.21,0.021-0.449-0.101-0.59-0.245c-0.155-0.155-0.245-0.369-0.245-0.588c0-0.221,0.089-0.435,0.245-0.59
	c0.167-0.167,0.361-0.223,0.59-0.245c0.771-0.072,1.544-0.064,2.314-0.132c0.326-0.029,0.656-0.043,0.984-0.052
	c0.268-0.009,0.538-0.007,0.805-0.033c0.046-0.007,0.091-0.015,0.136-0.023c0.082-0.015,0.162-0.024,0.241-0.024
	c0.144,0,0.283,0.03,0.419,0.109C24.06,21.638,24.204,21.824,24.262,22.038z"/>
</svg>