<?xml version="1.0" encoding="utf-8"?>
<!-- Generator: Adobe Illustrator 21.1.0, SVG Export Plug-In . SVG Version: 6.00 Build 0)  -->
<svg version="1.1" id="designs" xmlns="http://www.w3.org/2000/svg" xmlns:xlink="http://www.w3.org/1999/xlink" x="0px" y="0px"
	 width="32px" height="32px" viewBox="0 0 32 32" style="enable-background:new 0 0 32 32;" xml:space="preserve">
<style type="text/css">
	.sketchy_een{fill:#111918;}
</style>
<path class="sketchy_een" d="M29.894,22.655c-0.087-0.149-0.231-0.257-0.392-0.321c-0.069-0.122-0.157-0.236-0.281-0.319
	c-0.144-0.096-0.295-0.176-0.443-0.263c-0.158-0.096-0.312-0.201-0.464-0.305c-0.279-0.191-0.554-0.386-0.823-0.589
	c-0.709-0.561-1.391-1.156-2.094-1.723c-0.978-0.785-2.006-1.481-3.06-2.158c-0.121-0.078-0.258-0.114-0.396-0.114
	c-0.129,0-0.256,0.036-0.372,0.093c-0.359,0.094-0.653,0.412-0.64,0.8c0.023,0.708,0.044,1.418,0.066,2.127
	c-0.218-0.057-0.437-0.111-0.651-0.188c-0.381-0.187-0.73-0.413-1.069-0.667c-0.568-0.457-1.118-0.929-1.628-1.452
	c-0.475-0.489-0.917-1.005-1.376-1.507c0.323-0.382,0.644-0.766,0.976-1.139c0.263-0.295,0.527-0.587,0.806-0.868
	c0.243-0.246,0.515-0.469,0.789-0.684c0.25-0.172,0.511-0.315,0.783-0.444c0.388-0.153,0.779-0.273,1.192-0.347
	c0.009-0.001,0.019,0,0.028-0.001c-0.001,0.184-0.003,0.367-0.003,0.551c0.002,0.373-0.006,0.748,0.014,1.12
	c0.015,0.255,0.134,0.478,0.314,0.632c0.001,0.208,0.084,0.41,0.23,0.556c0.148,0.148,0.351,0.232,0.56,0.232
	c0.189,0,0.435-0.076,0.558-0.232c0.006-0.007,0.012-0.013,0.018-0.02c-0.006,0.004-0.012,0.009-0.017,0.013
	c0.007-0.005,0.013-0.01,0.02-0.016c-0.001,0.001-0.002,0.002-0.002,0.002c0.007-0.005,0.014-0.011,0.022-0.017
	c-0.002,0.001-0.004,0.002-0.005,0.003c0.497-0.387,0.979-0.792,1.467-1.194c0.587-0.48,1.165-0.974,1.727-1.487
	c0.583-0.533,1.142-1.095,1.719-1.637c0.603-0.564,1.226-1.111,1.848-1.653c0.08-0.07,0.16-0.14,0.24-0.211
	c0.267-0.233,0.292-0.633,0.145-0.94c0.022-0.122,0.023-0.246-0.01-0.367c-0.06-0.222-0.199-0.363-0.381-0.496
	c-0.287-0.207-0.593-0.386-0.888-0.582c-0.271-0.18-0.548-0.355-0.82-0.537c-0.615-0.41-1.241-0.798-1.848-1.218
	c-1.243-0.861-2.504-1.694-3.782-2.504c-0.121-0.077-0.257-0.112-0.393-0.112c-0.283,0-0.567,0.152-0.713,0.401
	c-0.226,0.39-0.082,0.875,0.291,1.107c0.001,0.001,0.002,0.001,0.003,0.002c-0.094,0.132-0.161,0.283-0.157,0.454
	c0.012,0.543,0.027,1.084,0.031,1.626c-0.026,0.006-0.055,0.004-0.079,0.014c-0.431,0.172-0.867,0.34-1.306,0.492
	c-0.383,0.131-0.769,0.254-1.149,0.39c-0.827,0.297-1.635,0.679-2.359,1.181c-0.796,0.552-1.524,1.235-2.115,2.002
	c-0.273,0.355-0.529,0.722-0.785,1.089c-0.165,0.235-0.335,0.467-0.504,0.7c-0.544-0.417-1.096-0.823-1.686-1.178
	c-0.761-0.461-1.546-0.861-2.381-1.173C7.818,9.264,6.901,9.09,6.003,8.98C5.585,8.93,5.164,8.914,4.744,8.901
	c-0.396-0.016-0.79-0.033-1.187-0.043C3.446,8.854,3.333,8.852,3.222,8.85c-0.005,0-0.011,0-0.016,0
	c-0.065,0-0.124,0.024-0.185,0.04C2.942,8.862,2.861,8.839,2.775,8.839C2.353,8.839,1.998,9.19,2,9.614
	c0.002,1.341,0.02,2.683,0.008,4.024c-0.004,0.42,0.351,0.767,0.767,0.767c0.018,0,0.033-0.009,0.05-0.01
	c0.151,0.111,0.318,0.174,0.511,0.187c0.584,0.043,1.168,0.098,1.75,0.17C5.543,14.818,6,14.893,6.455,14.973
	c0.456,0.079,0.901,0.185,1.334,0.346c0.321,0.154,0.621,0.342,0.909,0.55c0.134,0.108,0.261,0.221,0.388,0.338
	c-0.67,0.487-1.389,0.906-2.143,1.248c-0.485,0.197-0.977,0.379-1.475,0.537c-0.459,0.146-0.939,0.234-1.415,0.305
	c-0.023,0.002-0.046,0.005-0.07,0.008c-0.23,0.027-0.42,0.074-0.591,0.246c-0.15,0.15-0.234,0.356-0.241,0.569
	C3.075,19.096,3,19.07,2.917,19.07c-0.468,0-0.861,0.392-0.861,0.861c0.002,0.72,0.008,1.438,0.049,2.156
	c0.018,0.312,0.041,0.623,0.06,0.933c0.02,0.324,0.051,0.648,0.199,0.94c0.093,0.188,0.275,0.307,0.476,0.366
	c0.145,0.1,0.328,0.17,0.493,0.153c0.9-0.098,1.78-0.234,2.644-0.5c0.835-0.258,1.674-0.511,2.473-0.871
	c0.779-0.351,1.51-0.8,2.207-1.296c0.367-0.26,0.714-0.549,1.062-0.835c0.314-0.262,0.632-0.521,0.935-0.798c0,0,0,0,0,0
	c0.396,0.612,0.825,1.199,1.313,1.746c0.558,0.623,1.202,1.155,1.903,1.614c0.361,0.236,0.724,0.472,1.099,0.689
	c0.422,0.242,0.88,0.424,1.329,0.609c0.361,0.146,0.728,0.281,1.097,0.408c0.39,0.134,0.777,0.215,1.183,0.268
	c-0.004,0.033-0.02,0.063-0.02,0.098c0.008,0.552,0.029,1.105,0.041,1.655c0.012,0.566,0.006,1.124,0.115,1.682
	c0.084,0.423,0.58,0.66,0.972,0.552c0.197-0.055,0.367-0.188,0.47-0.363c0.006-0.01,0.004-0.019,0.01-0.029
	c0.532-0.386,1.069-0.764,1.615-1.132c0.564-0.379,1.138-0.738,1.688-1.136s1.097-0.806,1.637-1.22
	c0.499-0.385,0.985-0.784,1.478-1.178c0.335-0.252,0.691-0.475,1.03-0.721c0.17-0.125,0.301-0.256,0.357-0.466
	C30.028,23.055,29.999,22.834,29.894,22.655z M8.038,13.523c-0.351-0.119-0.724-0.176-1.091-0.23
	c-0.375-0.058-0.753-0.098-1.131-0.145c-0.757-0.103-1.512-0.203-2.273-0.27c-0.001-0.771,0.001-1.543,0.005-2.315
	c0.882,0.042,1.766,0.06,2.642,0.163c0.783,0.12,1.552,0.299,2.291,0.585c0.981,0.427,1.903,0.965,2.762,1.605
	c0.172,0.134,0.341,0.27,0.512,0.405c-0.003,0.004-0.005,0.007-0.008,0.011c-0.167,0.213-0.334,0.426-0.507,0.635
	c-0.205,0.246-0.427,0.478-0.64,0.718c-0.085,0.096-0.172,0.19-0.257,0.287c-0.321-0.323-0.668-0.613-1.05-0.863
	C8.9,13.857,8.479,13.674,8.038,13.523z M10.258,19.953c-0.871,0.667-1.803,1.239-2.808,1.679C6.926,21.84,6.39,22.023,5.855,22.2
	c-0.605,0.198-1.216,0.37-1.845,0.468c-0.056,0.006-0.112,0.009-0.168,0.014c-0.011-0.209-0.027-0.419-0.039-0.627
	c-0.039-0.698-0.026-1.397-0.024-2.097c0.069,0.019,0.138,0.031,0.204,0.023c0.511-0.062,1.015-0.145,1.518-0.248
	c0.412-0.086,0.812-0.234,1.206-0.379c0.861-0.316,1.692-0.687,2.471-1.173c0.412-0.256,0.812-0.527,1.189-0.831
	c0.34-0.275,0.638-0.582,0.929-0.906c0.554-0.615,1.114-1.226,1.635-1.868c0.47-0.578,0.882-1.198,1.319-1.801
	c0.207-0.285,0.422-0.562,0.626-0.849c0.175-0.249,0.352-0.495,0.535-0.737c0.429-0.528,0.921-0.983,1.445-1.415
	c0.538-0.388,1.113-0.711,1.721-0.978c0.418-0.169,0.843-0.312,1.271-0.451c0.45-0.145,0.891-0.304,1.331-0.472
	c0.142,0.22,0.37,0.377,0.66,0.377c0.445,0,0.81-0.371,0.812-0.812c0.005-0.847-0.012-1.693-0.026-2.539
	c0.149,0.094,0.3,0.184,0.448,0.28c0.636,0.412,1.257,0.847,1.881,1.276c0.601,0.412,1.214,0.806,1.813,1.218
	c0.391,0.269,0.781,0.542,1.17,0.815c-0.989,0.897-1.951,1.824-2.896,2.769c-0.789,0.789-1.64,1.516-2.509,2.218
	c0.003-0.477,0.004-0.954,0.01-1.432c0.048-0.105,0.079-0.22,0.079-0.343c0-0.451-0.377-0.841-0.831-0.841c-0.003,0-0.007,0-0.01,0
	c-0.488,0.006-0.968,0.039-1.448,0.129c-0.439,0.082-0.863,0.22-1.276,0.386c-0.439,0.176-0.855,0.377-1.233,0.658
	c-0.386,0.287-0.765,0.597-1.108,0.933c-0.562,0.549-1.07,1.159-1.567,1.764c-0.529,0.644-1.046,1.294-1.571,1.94
	c-0.494,0.609-1.019,1.208-1.569,1.768C11.464,18.99,10.868,19.476,10.258,19.953z M26.404,24.222
	c-0.382,0.292-0.767,0.578-1.155,0.863c-0.431,0.314-0.857,0.634-1.302,0.927c-0.593,0.388-1.186,0.776-1.774,1.17
	c-0.006-0.524,0-1.049-0.004-1.57c-0.001-0.109-0.024-0.213-0.065-0.309c0.156-0.153,0.256-0.362,0.256-0.611
	c0-0.503-0.402-0.859-0.884-0.886c-0.291-0.015-0.583-0.03-0.873-0.06c-0.363-0.061-0.715-0.165-1.067-0.272
	c-0.417-0.128-0.824-0.271-1.227-0.435c-0.759-0.329-1.48-0.772-2.142-1.268c-0.593-0.487-1.12-1.042-1.604-1.637
	c-0.27-0.368-0.51-0.757-0.743-1.148c0.435-0.484,0.854-0.981,1.264-1.487c0.354,0.408,0.713,0.811,1.089,1.199
	c0.47,0.49,0.972,0.923,1.509,1.341c0.589,0.457,1.171,0.91,1.854,1.218c0.712,0.32,1.477,0.47,2.242,0.609
	c0.242,0.045,0.463,0.039,0.683-0.09c0.197-0.115,0.345-0.308,0.406-0.529c0.064-0.23,0.031-0.478-0.088-0.683
	c-0.034-0.057-0.09-0.108-0.14-0.161c0.003-0.3-0.001-0.6-0.003-0.898c-0.001-0.133-0.005-0.265-0.007-0.398
	c0.507,0.333,1.009,0.672,1.496,1.034c0.694,0.552,1.363,1.131,2.039,1.706c0.355,0.302,0.736,0.576,1.116,0.845
	c0.181,0.131,0.361,0.26,0.544,0.385c0.003,0.002,0.005,0.003,0.008,0.005c-0.115,0.087-0.233,0.17-0.347,0.261
	C27.124,23.633,26.771,23.935,26.404,24.222z"/>
</svg>