<?xml version="1.0" encoding="utf-8"?>
<!-- Generator: Adobe Illustrator 21.1.0, SVG Export Plug-In . SVG Version: 6.00 Build 0)  -->
<svg version="1.1" id="designs" xmlns="http://www.w3.org/2000/svg" xmlns:xlink="http://www.w3.org/1999/xlink" x="0px" y="0px"
	 width="32px" height="32px" viewBox="0 0 32 32" style="enable-background:new 0 0 32 32;" xml:space="preserve">
<style type="text/css">
	.sketchy_een{fill:#111918;}
</style>
<path class="sketchy_een" d="M29.878,10.51c0.133-0.178,0.144-0.465,0.092-0.673c0.021-0.127,0.021-0.256-0.014-0.381
	c-0.065-0.238-0.213-0.39-0.407-0.528c-0.359-0.258-0.719-0.515-1.076-0.777c-0.144-0.106-0.286-0.212-0.436-0.306
	c-0.121-0.077-0.261-0.133-0.392-0.185c-0.12-0.048-0.25-0.071-0.381-0.071c-0.205,0-0.412,0.056-0.586,0.161
	c-0.486,0.292-0.927,0.703-1.305,1.126c-0.336,0.375-0.642,0.771-0.946,1.172c-0.073,0.098-0.1,0.23-0.106,0.363
	c-0.242-0.269-0.486-0.536-0.741-0.794c-0.663-0.671-1.322-1.367-2.074-1.941c-0.707-0.538-1.428-1.063-2.149-1.586
	c-1.453-1.057-3.195-1.684-4.921-2.134c-0.827-0.213-1.692-0.267-2.545-0.267c-0.092,0-0.185,0-0.277,0.002
	c-0.477,0.004-0.957,0.062-1.43,0.133C9.745,3.892,9.299,3.961,8.875,4.09C7.965,4.366,7.108,4.762,6.266,5.201
	C5.295,5.704,4.521,6.494,3.908,7.386C3.389,8.142,2.885,8.897,2.562,9.76c-0.321,0.863-0.502,1.768-0.552,2.687
	c-0.048,0.9,0.092,1.793,0.286,2.67c0.092,0.415,0.236,0.826,0.396,1.22c0.171,0.427,0.367,0.852,0.602,1.248
	c0.233,0.39,0.469,0.777,0.738,1.144c0.283,0.39,0.604,0.746,0.951,1.078c0.644,0.615,1.359,1.199,2.155,1.607
	c0.253,0.13,0.511,0.252,0.772,0.366c-0.001,0.001-0.002,0.002-0.003,0.003c-0.117,0.198-0.117,0.39-0.081,0.609
	c0.079,0.469,0.211,0.923,0.321,1.386c0.108,0.454,0.229,0.903,0.342,1.357c0.108,0.427,0.171,0.863,0.277,1.292
	c0.079,0.321,0.14,0.65,0.229,0.967c0.03,0.107,0.084,0.2,0.151,0.281c0.077,0.354,0.38,0.603,0.75,0.621
	c0.679,0.035,1.359-0.006,2.037-0.011c0.692-0.006,1.382,0,2.074-0.035c0.336-0.017,0.673-0.037,1.009-0.035
	c0.331,0.002,0.657,0.021,0.986,0.041c0.638,0.035,1.28,0.031,1.916-0.021c0.209-0.017,0.388-0.071,0.54-0.223
	c0.137-0.137,0.212-0.323,0.218-0.515c0.108-0.128,0.182-0.286,0.178-0.464c-0.001-0.068,0.005-0.135,0.014-0.202
	c0.017-0.132,0.035-0.266,0.052-0.399c0.061-0.416,0.142-0.829,0.232-1.24c0.106-0.482,0.185-0.969,0.283-1.453
	c0.094-0.473,0.165-0.949,0.261-1.42c0.117-0.584,0.219-1.163,0.29-1.755c0.011-0.096-0.015-0.199-0.059-0.295
	c0.094-0.056,0.19-0.107,0.284-0.165c0.717-0.44,1.442-0.876,2.122-1.371c0.359-0.261,0.713-0.529,1.056-0.812
	c0.028,0.043,0.061,0.083,0.099,0.12c0.348,0.333,0.682,0.677,1.009,1.028c0.194,0.209,0.388,0.417,0.6,0.609
	c0.461,0.421,1.121,0.825,1.772,0.671c0.502-0.117,0.951-0.413,1.403-0.656c0.179-0.096,0.359-0.188,0.54-0.282
	c0.223-0.115,0.39-0.263,0.538-0.463c0.188-0.254,0.202-0.565,0.148-0.865c-0.079-0.452-0.279-0.863-0.482-1.271
	c-0.19-0.379-0.409-0.746-0.636-1.105c-0.366-0.582-0.792-1.128-1.205-1.68c0.33-0.397,0.65-0.802,0.964-1.215
	C28.723,12.047,29.303,11.28,29.878,10.51z M18.335,21.722c-0.13,0.899-0.282,1.793-0.468,2.684
	c-0.092,0.446-0.192,0.89-0.273,1.338c-0.035,0.198-0.065,0.398-0.1,0.596c-0.024,0.138-0.053,0.276-0.078,0.414
	c-0.47,0.033-0.943,0.04-1.412,0.028c-0.329-0.008-0.657-0.023-0.986-0.023c-0.336,0-0.673,0.018-1.009,0.039
	c-0.675,0.039-1.347,0.037-2.022,0.027c-0.528-0.007-1.054-0.037-1.58-0.068c-0.01-0.032-0.019-0.065-0.03-0.097
	c-0.063-0.185-0.102-0.377-0.148-0.565c-0.106-0.442-0.198-0.884-0.302-1.326c-0.052-0.223-0.119-0.444-0.179-0.667
	c-0.056-0.217-0.098-0.438-0.138-0.659c-0.074-0.393-0.143-0.787-0.207-1.181c0.084,0.016,0.167,0.037,0.251,0.05
	c0.921,0.156,1.853,0.227,2.785,0.225c0.932-0.004,1.87-0.125,2.783-0.306c0.878-0.175,1.722-0.482,2.545-0.829
	c0.218-0.091,0.426-0.205,0.639-0.308C18.382,21.302,18.361,21.512,18.335,21.722z M22.981,15.955
	c-0.335,0.331-0.697,0.631-1.062,0.927c-0.721,0.543-1.477,1.029-2.244,1.506c-0.831,0.518-1.667,1.005-2.557,1.413
	c-0.497,0.204-1,0.393-1.518,0.54c-0.559,0.159-1.126,0.272-1.701,0.357c-0.596,0.06-1.198,0.113-1.799,0.106
	c-0.618-0.009-1.23-0.056-1.844-0.129c-0.279-0.047-0.556-0.1-0.83-0.167c-0.246-0.059-0.481-0.148-0.714-0.245
	c-0.311-0.143-0.617-0.294-0.914-0.465c-0.255-0.147-0.495-0.314-0.73-0.49c-0.539-0.45-1.045-0.923-1.489-1.466
	c-0.427-0.619-0.794-1.273-1.109-1.955c-0.123-0.325-0.238-0.655-0.322-0.994c-0.092-0.362-0.161-0.725-0.221-1.092
	c-0.072-0.62-0.075-1.23-0.016-1.853c0.045-0.309,0.099-0.616,0.18-0.918c0.086-0.331,0.191-0.649,0.314-0.966
	c0.36-0.73,0.8-1.426,1.283-2.083c0.265-0.315,0.544-0.615,0.858-0.885c0.33-0.237,0.688-0.441,1.048-0.629
	C7.931,6.295,8.269,6.133,8.613,5.98c0.326-0.126,0.651-0.237,0.99-0.326c0.358-0.094,0.722-0.158,1.087-0.216
	c0.469-0.051,0.934-0.078,1.406-0.09c0.452-0.01,0.905,0.032,1.354,0.087c0.551,0.112,1.089,0.245,1.629,0.401
	c0.455,0.13,0.899,0.302,1.339,0.48c0.763,0.348,1.494,0.732,2.173,1.225c0.652,0.471,1.307,0.938,1.95,1.422
	c0.785,0.667,1.51,1.403,2.218,2.147c0.64,0.672,1.228,1.39,1.797,2.119c0.157,0.21,0.311,0.422,0.464,0.635
	c-0.307,0.323-0.624,0.639-0.936,0.959C23.719,15.204,23.358,15.586,22.981,15.955z M27.827,18.149
	c0.005,0.014,0.011,0.028,0.016,0.042c-0.167,0.1-0.338,0.196-0.506,0.293c-0.229,0.134-0.456,0.264-0.694,0.379
	c-0.023,0.008-0.046,0.015-0.07,0.021c-0.003,0-0.006,0-0.008,0c-0.024-0.006-0.048-0.013-0.073-0.021
	c-0.104-0.054-0.204-0.114-0.301-0.181c-0.319-0.274-0.597-0.592-0.879-0.903c-0.246-0.275-0.498-0.544-0.752-0.809
	c-0.022-0.023-0.046-0.044-0.07-0.064c0.517-0.534,1.041-1.062,1.552-1.602c0.079,0.11,0.158,0.22,0.237,0.33
	C26.855,16.427,27.416,17.253,27.827,18.149z M26.126,12.594c-0.268-0.357-0.542-0.71-0.828-1.054
	c-0.067-0.08-0.136-0.158-0.204-0.238c0.094,0.007,0.19,0.006,0.282-0.019c0.229-0.063,0.365-0.202,0.502-0.386
	c0.065-0.087,0.131-0.174,0.197-0.26c0.343-0.426,0.711-0.817,1.134-1.163c0.018-0.013,0.037-0.027,0.056-0.04
	c0.169,0.115,0.329,0.245,0.491,0.367c0.091,0.068,0.184,0.134,0.276,0.201C27.398,10.868,26.774,11.741,26.126,12.594z
	 M21.278,14.699c0.11,0.188,0.14,0.417,0.083,0.626c-0.061,0.225-0.198,0.352-0.375,0.488c-0.577,0.442-1.155,0.88-1.745,1.305
	c-0.498,0.361-0.994,0.746-1.526,1.057c-0.592,0.344-1.213,0.627-1.845,0.89c-0.619,0.255-1.253,0.465-1.903,0.63
	c-0.404,0.102-0.827-0.127-0.94-0.532c-0.108-0.394,0.131-0.838,0.534-0.94c0.549-0.138,1.084-0.311,1.61-0.518
	c0.682-0.295,1.344-0.619,1.968-1.027c0.325-0.211,0.634-0.448,0.946-0.678c0.297-0.219,0.592-0.444,0.886-0.668
	c0.343-0.267,0.687-0.533,1.029-0.799c0.102-0.102,0.223-0.171,0.359-0.209c0.073-0.019,0.146-0.029,0.218-0.029
	s0.144,0.01,0.216,0.029C20.995,14.38,21.172,14.517,21.278,14.699z M12.492,24.551c0,0.442-0.371,0.813-0.813,0.813
	s-0.813-0.371-0.813-0.813s0.371-0.813,0.813-0.813S12.492,24.109,12.492,24.551z M14.65,24.602c0,0.421-0.352,0.772-0.773,0.772
	s-0.773-0.352-0.773-0.772c0-0.421,0.352-0.773,0.773-0.773S14.65,24.18,14.65,24.602z M16.741,24.586
	c0,0.361-0.304,0.665-0.665,0.665c-0.361,0-0.665-0.304-0.665-0.665s0.304-0.665,0.665-0.665
	C16.437,23.921,16.741,24.224,16.741,24.586z"/>
</svg>