<?xml version="1.0" encoding="utf-8"?>
<!-- Generator: Adobe Illustrator 21.1.0, SVG Export Plug-In . SVG Version: 6.00 Build 0)  -->
<svg version="1.1" id="designs" xmlns="http://www.w3.org/2000/svg" xmlns:xlink="http://www.w3.org/1999/xlink" x="0px" y="0px"
	 width="32px" height="32px" viewBox="0 0 32 32" style="enable-background:new 0 0 32 32;" xml:space="preserve">
<style type="text/css">
	.sketchy_een{fill:#111918;}
</style>
<path class="sketchy_een" d="M28.19,13.325c-0.029-0.205-0.071-0.394-0.168-0.577c-0.147-0.284-0.432-0.469-0.741-0.531
	c-0.344-0.068-0.687-0.162-1.036-0.191c-0.211-0.018-0.421-0.025-0.632-0.025c-0.098,0-0.196,0.002-0.294,0.005
	c-0.022-0.057-0.04-0.115-0.064-0.173c-0.152-0.351-0.336-0.683-0.523-1.017c-0.191-0.336-0.372-0.675-0.563-1.009
	c-0.218-0.382-0.5-0.718-0.807-1.032c-0.203-0.207-0.425-0.398-0.643-0.593c0.019-0.065,0.041-0.13,0.037-0.201
	c-0.035-0.78-0.031-1.559-0.008-2.341c0.024-0.779,0.039-1.556,0.009-2.335c0.038-0.059,0.077-0.119,0.098-0.192
	c0.052-0.189,0.025-0.396-0.075-0.565c-0.047-0.08-0.121-0.159-0.205-0.224c-0.022-0.031-0.033-0.065-0.062-0.094
	C22.368,2.083,22.167,2,21.961,2c-0.188,0-0.366,0.076-0.508,0.199c-0.067,0.001-0.133,0.004-0.2,0.005
	c-0.365,0.006-0.729,0.004-1.096,0.006c-0.729,0.004-1.461,0.006-2.192,0c-0.697-0.004-1.395-0.031-2.092-0.05
	c-0.257-0.006-0.513-0.01-0.77-0.01c-0.438,0-0.876,0.01-1.313,0.029c-1.096,0.05-2.19,0.075-3.288,0.071
	c-0.546,0-1.092-0.006-1.638,0.017c-0.249,0.01-0.498,0.031-0.749,0.037c-0.141,0.006-0.28,0-0.421-0.004
	C7.573,2.298,7.451,2.294,7.33,2.294c-0.407,0.01-0.749,0.334-0.749,0.749c0,0.049,0.02,0.094,0.029,0.142
	C6.607,3.211,6.595,3.234,6.594,3.26C6.587,3.807,6.6,4.355,6.6,4.901c0,0.44-0.015,0.878-0.013,1.318
	c0.002,0.469-0.008,0.936-0.002,1.405c0.006,0.295,0.004,0.592-0.015,0.888C6.562,8.619,6.59,8.718,6.635,8.809
	C6.487,8.998,6.332,9.18,6.198,9.378c-0.454,0.666-0.919,1.335-1.243,2.076c-0.345,0.791-0.662,1.592-0.886,2.43
	c-0.218,0.812-0.328,1.667-0.33,2.509c-0.002,0.893,0.066,1.777,0.251,2.652c0.174,0.832,0.45,1.638,0.785,2.418
	c0.34,0.789,0.847,1.496,1.443,2.111c0.186,0.191,0.386,0.362,0.593,0.525c-0.015,0.058-0.037,0.114-0.039,0.177
	c-0.019,0.519-0.017,1.038-0.019,1.557c-0.002,0.465-0.015,0.93-0.021,1.395c-0.006,0.405,0.006,0.809-0.006,1.214
	c-0.006,0.272-0.042,0.542-0.037,0.816C6.695,29.662,7.021,30,7.431,30c0.189,0,0.38-0.084,0.521-0.217
	c1.285,0.038,2.567,0.027,3.852-0.04c0.587-0.031,1.179-0.042,1.768-0.042c0.602,0,1.202,0.025,1.804,0.031
	c0.455,0.004,0.913,0.002,1.37,0c0.728-0.004,1.455-0.01,2.183,0.012c0.401,0.012,0.803,0.042,1.204,0.054
	c0.388,0.01,0.774,0.027,1.16,0.046c0.411,0.019,0.755-0.359,0.755-0.755c0-0.062-0.021-0.12-0.035-0.179
	c0.084-0.124,0.146-0.266,0.148-0.425c0.01-0.749,0.015-1.498,0-2.244c-0.006-0.372-0.023-0.745-0.006-1.117
	c0.023-0.494,0.052-0.988,0.073-1.482c0.001-0.014-0.007-0.025-0.007-0.039c0.065-0.071,0.142-0.128,0.204-0.204
	c0.276-0.338,0.536-0.685,0.791-1.038c0.452-0.625,0.839-1.295,1.224-1.965c0.38-0.666,0.625-1.401,0.876-2.121
	c0.063-0.181,0.12-0.362,0.178-0.543c0.113,0.061,0.235,0.106,0.352,0.093c0.286-0.035,0.577,0.006,0.863,0.025
	c0.168,0.012,0.342,0.033,0.51,0.021c0.237-0.015,0.482-0.083,0.652-0.264c0.125-0.133,0.23-0.295,0.262-0.479
	c0.044-0.235,0.05-0.475,0.052-0.712c0.002-0.234,0.014-0.465,0.021-0.699c0.014-0.371,0.033-0.741,0.048-1.114
	C28.275,14.174,28.251,13.751,28.19,13.325z M8.302,3.728C8.638,3.707,8.974,3.697,9.31,3.686c0.737-0.025,1.476-0.013,2.214-0.027
	c1.395-0.025,2.785-0.149,4.18-0.108c0.509,0.013,1.019,0.037,1.528,0.042c0.564,0.006,1.127,0.002,1.691,0.002
	c0.558-0.002,1.115,0.004,1.673,0.006c0.114,0.002,0.228,0,0.344,0c0.106-0.001,0.212,0.008,0.318,0.008
	c0.021,0.248,0.036,0.497,0.034,0.746c-0.004,0.421-0.014,0.841-0.017,1.262c-0.006,0.434-0.008,0.868-0.008,1.305
	c0,0.009,0.001,0.019,0.001,0.028c-0.289-0.205-0.587-0.394-0.893-0.575c-0.32-0.189-0.648-0.369-0.984-0.531
	c-0.38-0.185-0.772-0.371-1.171-0.506c-0.363-0.122-0.745-0.205-1.121-0.276c-0.819-0.151-1.637-0.228-2.469-0.228
	c-0.02,0-0.041,0-0.061,0c-0.444,0.002-0.874,0.025-1.312,0.102c-0.38,0.068-0.753,0.158-1.123,0.27
	c-0.349,0.102-0.695,0.21-1.032,0.345c-0.419,0.168-0.824,0.369-1.227,0.569C9.199,6.458,8.566,6.87,7.995,7.364
	c0-0.382-0.003-0.763-0.002-1.145c0.002-0.438-0.002-0.878,0.015-1.318C8.024,4.516,8.036,4.13,8.048,3.744
	C8.133,3.738,8.218,3.734,8.302,3.728z M19.98,28.294c-0.513-0.015-1.027-0.023-1.542-0.019c-0.666,0.002-1.332,0.004-1.997,0.006
	c-0.363,0-0.728-0.002-1.092-0.008c-0.315-0.004-0.629-0.023-0.944-0.029c-1.04-0.017-2.08,0.017-3.119,0.048
	c-0.546,0.015-1.09,0.042-1.636,0.039c-0.495-0.004-0.985-0.039-1.477-0.069c0.001-0.345,0.002-0.689-0.002-1.032
	c-0.004-0.448-0.002-0.895,0.014-1.343c0.008-0.256,0.028-0.511,0.044-0.767c0.634,0.421,1.298,0.782,2.009,1.059
	c0.699,0.274,1.411,0.552,2.158,0.658c0.467,0.068,0.93,0.108,1.401,0.122c0.38,0.012,0.756-0.023,1.133-0.069
	c0.785-0.098,1.553-0.243,2.323-0.425c0.799-0.189,1.619-0.44,2.341-0.838c0.363-0.2,0.713-0.426,1.052-0.667
	c0.002,0.427,0.005,0.854-0.002,1.282c-0.008,0.417-0.017,0.839-0.012,1.256c0.005,0.274-0.01,0.544-0.022,0.815
	C20.401,28.307,20.19,28.3,19.98,28.294z M24.361,15.268c-0.046,0.278-0.106,0.552-0.16,0.826c-0.044,0.241-0.079,0.481-0.135,0.72
	c-0.085,0.359-0.205,0.708-0.33,1.054c-0.123,0.346-0.245,0.69-0.384,1.03c-0.125,0.279-0.257,0.552-0.411,0.819
	c-0.168,0.295-0.357,0.579-0.525,0.872c-0.3,0.521-0.66,1.008-1.023,1.486c-0.161,0.207-0.324,0.414-0.515,0.594
	c-0.221,0.209-0.448,0.408-0.684,0.599c-0.55,0.409-1.125,0.794-1.746,1.083c-0.304,0.118-0.611,0.224-0.925,0.309
	c-0.351,0.096-0.706,0.17-1.065,0.241c-0.549,0.111-1.096,0.236-1.651,0.322c-0.297,0.036-0.597,0.069-0.897,0.069
	c-0.341,0-0.681-0.021-1.02-0.055c-0.385-0.061-0.764-0.143-1.139-0.25c-0.416-0.119-0.821-0.283-1.223-0.443
	c-0.51-0.228-0.997-0.501-1.465-0.805c-0.435-0.283-0.869-0.575-1.287-0.884c-0.366-0.311-0.692-0.654-0.993-1.026
	c-0.283-0.397-0.513-0.817-0.715-1.262c-0.339-0.845-0.594-1.725-0.738-2.622c-0.096-0.904-0.102-1.804-0.003-2.71
	c0.077-0.508,0.189-1.001,0.341-1.493c0.149-0.49,0.319-0.969,0.51-1.443c0.412-0.924,0.978-1.771,1.591-2.576
	c0.466-0.568,0.979-1.075,1.55-1.534c0.327-0.239,0.664-0.452,1.025-0.638c0.402-0.207,0.809-0.399,1.222-0.58
	c0.718-0.278,1.469-0.478,2.229-0.6c0.376-0.036,0.76-0.037,1.137-0.028c0.387,0.009,0.772,0.03,1.159,0.074
	c0.377,0.06,0.752,0.136,1.126,0.223c0.395,0.091,0.771,0.218,1.145,0.367c0.777,0.341,1.533,0.75,2.22,1.246
	c0.349,0.285,0.675,0.59,1.004,0.899c0.345,0.323,0.692,0.64,1.004,0.997c0.252,0.36,0.446,0.752,0.653,1.139
	c0.198,0.371,0.403,0.737,0.576,1.119c0.125,0.322,0.199,0.652,0.286,0.986c0.091,0.34,0.176,0.678,0.233,1.023
	c0.021,0.23,0.026,0.463,0.031,0.694c0.001,0.032,0.003,0.063,0.007,0.095C24.37,15.227,24.365,15.248,24.361,15.268z
	 M26.572,16.715c0.002-0.015,0.004-0.03,0.006-0.045c0,0.001,0,0.002,0,0.003C26.576,16.687,26.574,16.701,26.572,16.715z
	 M26.682,15.434c-0.031,0.284-0.045,0.57-0.067,0.854c-0.073-0.001-0.146-0.004-0.219-0.007c-0.183-0.008-0.367-0.035-0.552-0.031
	c-0.002,0-0.003,0.001-0.005,0.001c0.033-0.183,0.071-0.365,0.096-0.549c0.012-0.091,0.021-0.176,0.019-0.259
	c0.046-0.102,0.07-0.214,0.066-0.332c-0.021-0.529-0.122-1.05-0.247-1.564c0.168-0.008,0.335-0.012,0.502-0.004
	c0.11,0.022,0.218,0.049,0.327,0.076c0.045,0.011,0.09,0.019,0.136,0.027c0.003,0.013,0.005,0.027,0.008,0.04
	c0.027,0.274,0.035,0.546,0.02,0.823C26.75,14.818,26.715,15.127,26.682,15.434z M19.159,13.675
	c0.112,0.191,0.141,0.425,0.083,0.637c-0.052,0.185-0.195,0.413-0.38,0.494c-0.123,0.052-0.232,0.129-0.339,0.21
	c-0.179,0.145-0.35,0.299-0.53,0.441c-0.185,0.149-0.374,0.272-0.571,0.401c-0.313,0.208-0.648,0.38-0.965,0.585
	c-0.158,0.102-0.305,0.22-0.463,0.322c-0.158,0.1-0.322,0.195-0.481,0.297c-0.332,0.212-0.672,0.425-1.044,0.562
	c-0.23,0.087-0.525,0.017-0.728-0.098c-0.214-0.122-0.357-0.334-0.432-0.563c-0.048-0.149-0.058-0.324-0.056-0.482
	c0.004-0.189,0.008-0.38,0.014-0.569c0.015-0.544,0.071-1.086,0.106-1.629c0.023-0.349,0.052-0.697,0.069-1.046
	c0.019-0.357,0.023-0.714,0.058-1.071c0.077-0.83,0.066-1.66,0.044-2.493c-0.01-0.45,0.384-0.826,0.826-0.826
	c0.454,0,0.822,0.376,0.826,0.826c0.008,0.78-0.075,1.548-0.12,2.325c-0.037,0.652-0.058,1.308-0.068,1.963
	c-0.007,0.502-0.038,1.003-0.051,1.506c0.159-0.101,0.315-0.207,0.472-0.314c0.481-0.331,1.009-0.586,1.478-0.934
	c0.193-0.154,0.383-0.312,0.581-0.461c0.174-0.131,0.347-0.27,0.538-0.376C18.422,13.16,18.929,13.283,19.159,13.675z M7.539,15.952
	c0,0.347-0.291,0.639-0.639,0.639c-0.347,0-0.639-0.291-0.639-0.639s0.291-0.639,0.639-0.639
	C7.248,15.313,7.539,15.605,7.539,15.952z M23.273,16.059c0,0.369-0.309,0.677-0.677,0.677c-0.369,0-0.677-0.309-0.677-0.677
	s0.309-0.677,0.677-0.677C22.965,15.381,23.273,15.69,23.273,16.059z M15.217,23.431c0,0.425-0.353,0.778-0.778,0.778
	c-0.425,0-0.779-0.353-0.779-0.778c0-0.423,0.353-0.779,0.779-0.779C14.863,22.653,15.217,23.006,15.217,23.431z"/>
</svg>