<?xml version="1.0" encoding="utf-8"?>
<!-- Generator: Adobe Illustrator 21.1.0, SVG Export Plug-In . SVG Version: 6.00 Build 0)  -->
<svg version="1.1" id="designs" xmlns="http://www.w3.org/2000/svg" xmlns:xlink="http://www.w3.org/1999/xlink" x="0px" y="0px"
	 width="32px" height="32px" viewBox="0 0 32 32" style="enable-background:new 0 0 32 32;" xml:space="preserve">
<style type="text/css">
	.sketchy_een{fill:#111918;}
</style>
<path class="sketchy_een" d="M11.037,28.448c-0.431-0.01-0.863-0.016-1.295-0.023c-0.937-0.013-1.874-0.025-2.809-0.082
	c-0.289-0.018-0.541-0.173-0.676-0.415l-0.093-0.068c-0.145-0.143-0.278-0.396-0.252-0.603c0.062-0.512,0.104-1.026,0.142-1.542
	c0.025-0.352,0.07-0.702,0.114-1.052l0.138-1.132c0.087-0.732,0.174-1.465,0.275-2.196c0.108-0.846,0.188-1.77,0.252-2.91
	c-0.488-0.197-0.96-0.392-1.44-0.631c-0.2-0.098-0.378-0.231-0.553-0.365c-0.231-0.175-0.458-0.354-0.664-0.559
	c-0.357-0.354-0.663-0.741-0.912-1.149c-0.216-0.351-0.433-0.711-0.621-1.077c-0.274-0.536-0.45-1-0.537-1.418
	c-0.102-0.49-0.13-1.006-0.085-1.623c0.015-0.187,0.021-0.375,0.027-0.563c0.008-0.231,0.016-0.463,0.039-0.694
	c0.049-0.477,0.131-0.938,0.239-1.484l0.06-0.33c0.053-0.307,0.109-0.624,0.217-0.916c0.11-0.3,0.235-0.639,0.439-0.922
	C3.213,6.46,3.39,6.23,3.582,6.008c0.316-0.369,0.685-0.703,1.13-1.022C5.157,4.665,5.636,4.45,6.046,4.281
	C6.463,4.109,6.893,3.964,7.361,3.84c0.393-0.105,0.805-0.168,1.204-0.229c0.495-0.075,0.927-0.104,1.45-0.104
	c0.442,0,0.885,0.021,1.325,0.042l0.323,0.015c0.802,0.037,1.678,0.109,2.758,0.226c1.068,0.114,2,0.267,2.849,0.466
	c0.891,0.208,1.785,0.405,2.68,0.595c1.079,0.229,1.941,0.474,2.714,0.772c0.296,0.112,1.351,0.499,1.351,0.499
	c0.246,0.09,0.485,0.196,0.724,0.301l0.22,0.096c0.212-0.312,0.418-0.688,0.708-1.031c0.241-0.284,0.52-0.549,0.879-0.835
	l0.175-0.142c0.345-0.281,0.703-0.571,1.115-0.749c0.38-0.164,0.702-0.241,1.012-0.241c0.123,0,0.245,0.013,0.363,0.037
	C29.4,3.598,29.566,3.719,29.678,3.9c0.124,0.202,0.164,0.452,0.106,0.666l-0.011,0.028l-0.008,0.077
	c0.123,0.144,0.189,0.315,0.203,0.52c0.014,0.205,0.021,0.411,0.026,0.617l0.004,0.112c0.006,0.259-0.004,0.518-0.015,0.778
	l-0.007,0.18c-0.009,0.203-0.012,0.406-0.016,0.609L29.95,7.974c-0.026,0.796-0.03,1.592-0.032,2.39
	c-0.006,1.514,0.013,3.125,0.056,4.926l0.009,0.282c0.009,0.295,0.019,0.589,0.016,0.883c-0.004,0.451-0.008,0.878-0.308,1.175
	c-0.25,0.247-0.583,0.378-0.964,0.378l0,0c-0.373-0.014-0.691-0.035-0.984-0.112c-0.156-0.039-0.307-0.107-0.454-0.173l-0.092-0.041
	c-0.123-0.052-0.24-0.105-0.344-0.177c-0.244-0.172-0.491-0.35-0.714-0.549c-0.253-0.228-0.485-0.529-0.732-0.947
	c-0.835,0.356-1.602,0.636-2.41,0.836c-0.784,0.196-1.595,0.338-2.359,0.468l-0.325,0.056c-0.322,0.057-0.645,0.113-0.969,0.158
	c-0.305,0.044-0.61,0.082-0.913,0.12l-0.583,0.074c-0.778,0.103-1.559,0.201-2.34,0.276c-0.034,0.338-0.023,0.624-0.005,0.909
	l0.003,0.049l0.263-0.005c0.28,0,0.561,0.012,0.837,0.04c0.271,0.029,0.59,0.079,0.892,0.228c0.161,0.08,0.279,0.158,0.386,0.254
	c0.107,0.095,0.224,0.207,0.281,0.319c0.144,0.277,0.211,0.511,0.203,0.714c-0.007,0.178-0.03,0.343-0.071,0.491
	c-0.065,0.235-0.153,0.47-0.255,0.679c-0.098,0.195-0.19,0.354-0.315,0.493c-0.166,0.185-0.37,0.331-0.608,0.434
	c-0.371,0.162-0.769,0.212-1.11,0.24l-0.002,0.496c0.036,0.367,0.072,0.735,0.118,1.101c0.051,0.378,0.094,0.755,0.137,1.132
	l0.042,0.369c0.054,0.472,0.108,0.946,0.134,1.422c0.011,0.204-0.068,0.407-0.222,0.569c-0.167,0.176-0.403,0.281-0.632,0.281
	c-0.188,0.167-0.386,0.251-0.592,0.251l-0.108-0.001c-0.231,0-0.461,0.009-0.692,0.018c0,0-0.428,0.012-0.553,0.012
	C13.442,28.493,11.709,28.464,11.037,28.448z M8.462,18.701c-0.034,0.391-0.074,0.782-0.113,1.172L8.276,20.61
	c-0.073,0.729-0.148,1.458-0.233,2.187l-0.069,0.606c-0.059,0.514-0.119,1.029-0.165,1.544c-0.034,0.395-0.066,0.79-0.092,1.185
	L7.67,26.785l0.307,0.072c0.37,0.025,0.741,0.05,1.112,0.065c0.352,0.015,0.704,0.023,1.056,0.03
	c0.319,0.007,0.637,0.014,0.956,0.026c0.384,0.016,0.769,0.025,1.154,0.025c0.828,0,1.634-0.041,2.395-0.121
	c0.011-0.625-0.046-1.195-0.116-1.765l-0.019-0.149c-0.044-0.35-0.088-0.701-0.119-1.053l-0.026-0.314
	c-0.025-0.298-0.049-0.595-0.08-0.894c-0.058-0.578-0.129-1.155-0.2-1.733c-0.132-1.076-0.27-2.187-0.317-3.289
	c-0.016-0.394,0.298-0.694,0.617-0.787c0.17-0.226,0.397-0.355,0.651-0.372c0.644-0.043,1.286-0.092,1.926-0.171
	c1.095-0.168,2.19-0.431,3.25-0.685l0.601-0.144c1.068-0.251,2.2-0.532,3.271-0.965c0.192-0.085,0.384-0.171,0.572-0.263
	c0.079-0.039,0.159-0.07,0.239-0.091l0.05-1.155c0.007-0.738,0.015-1.475,0.028-2.212l0.019-0.683
	c0.012-0.371,0.024-0.742,0.024-1.114l0.003-0.704c-0.116-0.067-0.207-0.091-0.299-0.135c-0.337-0.16-0.674-0.316-1.016-0.466
	c-0.755-0.302-1.494-0.591-2.262-0.806c-0.795-0.224-1.599-0.396-2.282-0.536c-0.764-0.156-1.526-0.324-2.289-0.493
	c-0.628-0.138-1.301-0.255-2.181-0.38c-0.969-0.124-1.918-0.211-2.822-0.26c-0.53-0.03-1.059-0.048-1.589-0.054l-0.27-0.002
	c-0.332,0-0.662,0.011-0.993,0.045C8.598,5.319,8.168,5.387,7.758,5.501C7.368,5.608,6.989,5.738,6.613,5.887
	C6.244,6.062,5.92,6.251,5.619,6.467C5.288,6.746,4.979,7.063,4.673,7.439C4.563,7.6,4.463,7.759,4.379,7.928
	c-0.131,0.363-0.2,0.726-0.261,1.068L4.056,9.328c-0.041,0.213-0.081,0.426-0.116,0.64c-0.037,0.35-0.053,0.696-0.069,1.044
	l-0.016,0.334l-0.022,0.312c-0.01,0.131-0.02,0.261-0.025,0.392c-0.006,0.217,0.004,0.431,0.025,0.643
	c0.057,0.257,0.138,0.504,0.23,0.745c0.12,0.251,0.258,0.487,0.396,0.723l0.098,0.168c0.169,0.29,0.341,0.58,0.534,0.856
	c0.228,0.273,0.464,0.509,0.723,0.724c0.227,0.16,0.47,0.297,0.767,0.432c0.246,0.101,0.495,0.193,0.748,0.27
	c0.281,0.087,0.561,0.147,0.847,0.192c0.295,0.028,0.589,0.043,0.882,0.043c0.261,0,0.521-0.011,0.781-0.036
	c0.084-0.021,0.162-0.031,0.239-0.031c0.08,0,0.162,0.011,0.244,0.032c0.154,0.044,0.29,0.123,0.402,0.235
	c0.17,0.17,0.268,0.406,0.268,0.648c0,0.24-0.098,0.476-0.268,0.646c-0.185,0.184-0.394,0.241-0.652,0.268
	c-0.363,0.041-0.737,0.063-1.106,0.063c-0.121,0-0.406-0.009-0.406-0.009L8.462,18.701z M16.137,20.471
	c-0.146,0-0.292,0.006-0.437,0.018l0.008,0.448l0.048,0.35l0.154,0.039c0.122-0.005,0.243-0.011,0.365-0.022
	c0.092-0.016,0.178-0.035,0.264-0.062c0.126-0.122,0.165-0.191,0.201-0.263c0.045-0.122,0.08-0.24,0.107-0.36
	c-0.13-0.09-0.225-0.113-0.324-0.131C16.392,20.476,16.264,20.471,16.137,20.471z M28.278,5.421
	c-0.288,0.172-0.564,0.369-0.83,0.572c-0.286,0.225-0.509,0.434-0.7,0.657c-0.024,0.034-0.068,0.117-0.068,0.117l-0.029,0.084
	c0.027,0.085,0.053,0.168,0.051,0.255c-0.028,1.245-0.044,2.487-0.044,3.732c0,0.389-0.004,0.778-0.008,1.168
	c-0.009,0.781-0.017,1.561,0.008,2.342c0.003,0.101-0.025,0.195-0.054,0.274c0.128,0.289,0.261,0.534,0.419,0.766
	c0.13,0.151,0.27,0.283,0.42,0.409c0.102,0.075,0.203,0.148,0.306,0.219c0.139,0.095,0.292,0.168,0.446,0.238l0.157,0.049
	c0.072-0.485,0.042-0.924,0.014-1.361l-0.029-0.467c-0.074-1.327-0.071-2.676-0.068-3.98l0.001-0.784
	c-0.001-0.496,0.017-0.993,0.033-1.489c0.011-0.305,0.022-0.61,0.027-0.914l0.012-0.496c0.013-0.45,0.024-0.899,0.011-1.349
	l-0.002-0.086L28.278,5.421z M10.824,15.085c-0.816-0.033-1.651-0.263-2.413-0.664c-0.587-0.309-1.38-0.861-1.824-1.735
	c-0.263-0.519-0.401-1.019-0.423-1.528c-0.023-0.515,0.016-1.033,0.111-1.499C6.323,9.419,6.369,9.196,6.45,8.99
	c0.158-0.393,0.369-0.84,0.73-1.184c0.462-0.439,1.034-0.74,1.701-0.895c0.4-0.093,0.816-0.142,1.201-0.142
	c0.08,0,0.16,0.002,0.24,0.007c0.256,0.015,0.591,0.042,0.911,0.119c0.346,0.082,0.67,0.24,0.946,0.382
	c0.43,0.224,0.815,0.554,1.144,0.98c0.247,0.318,0.403,0.57,0.522,0.843c0.228,0.509,0.341,1.075,0.357,1.782
	c0.003,0.162-0.043,0.322-0.135,0.462c0.004,0.131,0.008,0.229,0.003,0.326l-0.018,0.263c-0.022,0.248-0.054,0.494-0.107,0.739
	c-0.117,0.54-0.455,1-0.717,1.291c-0.295,0.325-0.572,0.561-0.848,0.72c-0.449,0.261-0.963,0.404-1.449,0.404L10.824,15.085z
	 M10.13,8.458c-0.144,0-0.288,0.006-0.432,0.019C9.414,8.526,9.162,8.591,8.925,8.679C8.791,8.745,8.667,8.813,8.546,8.89
	C8.454,8.971,8.375,9.051,8.299,9.137c-0.061,0.093-0.114,0.18-0.164,0.271c-0.094,0.261-0.165,0.531-0.218,0.834
	c-0.034,0.292-0.068,0.674-0.035,1.067c0.031,0.164,0.071,0.316,0.122,0.468c0.091,0.188,0.19,0.359,0.305,0.524
	c0.118,0.136,0.235,0.258,0.366,0.373c0.291,0.205,0.567,0.369,0.847,0.505c0.356,0.129,0.736,0.227,1.132,0.293
	c0.087,0.007,0.17,0.011,0.251,0.011c0.061,0,0.121-0.002,0.182-0.005c0.115-0.024,0.219-0.051,0.323-0.085
	c0.102-0.053,0.191-0.108,0.278-0.169c0.159-0.138,0.301-0.282,0.436-0.436c0.077-0.112,0.143-0.222,0.203-0.338
	c0.053-0.16,0.088-0.314,0.116-0.471c0.016-0.149,0.03-0.294,0.026-0.44l-0.04-0.171c-0.06-0.236-0.02-0.49,0.111-0.695
	c0.005-0.125,0.001-0.222-0.006-0.319c-0.032-0.187-0.074-0.366-0.134-0.541c-0.082-0.163-0.172-0.31-0.273-0.454
	c-0.115-0.132-0.233-0.25-0.361-0.363c-0.213-0.147-0.432-0.27-0.66-0.38c-0.184-0.062-0.363-0.103-0.548-0.137
	C10.413,8.464,10.271,8.458,10.13,8.458z"/>
</svg>