<?xml version="1.0" encoding="utf-8"?>
<!-- Generator: Adobe Illustrator 21.1.0, SVG Export Plug-In . SVG Version: 6.00 Build 0)  -->
<svg version="1.1" id="designs" xmlns="http://www.w3.org/2000/svg" xmlns:xlink="http://www.w3.org/1999/xlink" x="0px" y="0px"
	 width="32px" height="32px" viewBox="0 0 32 32" style="enable-background:new 0 0 32 32;" xml:space="preserve">
<style type="text/css">
	.sketchy_een{fill:#111918;}
</style>
<path class="sketchy_een" d="M27.864,15.121c-0.016-0.386-0.029-0.775-0.062-1.159c-0.039-0.455-0.113-0.902-0.193-1.349
	c-0.144-0.791-0.324-1.575-0.513-2.356c-0.152-0.625-0.396-1.226-0.584-1.84c-0.197-0.636-0.394-1.272-0.617-1.901
	c-0.211-0.595-0.42-1.192-0.626-1.788c-0.229-0.664-0.486-1.314-0.763-1.959c0-0.134-0.021-0.268-0.09-0.385
	c-0.144-0.248-0.383-0.355-0.658-0.379C23.705,2.002,23.651,2,23.598,2c-0.139,0-0.279,0.011-0.417,0.014
	c-0.146,0-0.291,0.002-0.437,0.002c-0.304,0.004-0.609,0.004-0.913,0.01c-0.689,0.012-1.378,0.037-2.067,0.059
	c-0.705,0.02-1.411,0.02-2.117,0.049c-0.701,0.027-1.399,0.084-2.102,0.1c-0.675,0.016-1.351,0.039-2.028,0.057
	c-0.654,0.018-1.308,0.055-1.961,0.057c-1.36,0.008-2.721,0.008-4.081-0.025C7.077,2.31,6.743,2.662,6.743,3.052
	c0,0.054,0.02,0.102,0.031,0.153C6.471,3.96,6.171,4.716,5.872,5.473c-0.302,0.759-0.587,1.522-0.8,2.313
	C4.97,8.164,4.894,8.555,4.818,8.939C4.736,9.353,4.65,9.769,4.582,10.184c-0.139,0.847-0.26,1.702-0.359,2.553
	c-0.094,0.82-0.09,1.647-0.102,2.471c-0.01,0.775,0.043,1.548,0.092,2.32c0.057,0.882,0.141,1.762,0.289,2.635
	c0.141,0.822,0.336,1.63,0.539,2.438c0.152,0.607,0.32,1.212,0.5,1.811c0.174,0.58,0.388,1.146,0.595,1.711
	c0.221,0.599,0.449,1.196,0.699,1.784c0.234,0.55,0.47,1.109,0.788,1.616c0.246,0.388,0.749,0.541,1.155,0.302
	c0.027-0.016,0.044-0.042,0.068-0.06c0.705,0.024,1.412,0.035,2.117,0.091c0.751,0.058,1.507,0.07,2.262,0.082
	c0.771,0.012,1.544,0.035,2.317,0.049C16.353,30,17.165,30,17.976,30c1.805-0.002,3.609-0.146,5.414-0.127
	c0.305,0.004,0.568-0.184,0.699-0.444c0.15-0.036,0.299-0.095,0.389-0.206c0.148-0.187,0.267-0.365,0.377-0.574
	c0.08-0.152,0.152-0.308,0.224-0.465c0.15-0.328,0.328-0.644,0.488-0.968c0.379-0.767,0.656-1.596,0.919-2.41
	c0.129-0.396,0.248-0.792,0.34-1.198c0.088-0.394,0.168-0.791,0.25-1.185c0.158-0.765,0.295-1.53,0.412-2.301
	c0.131-0.872,0.226-1.749,0.316-2.625C27.885,16.708,27.895,15.913,27.864,15.121z M23.841,26.977
	c-0.183,0.339-0.328,0.709-0.543,1.031c-0.006,0.006-0.011,0.013-0.017,0.019c-0.076,0.083-0.133,0.177-0.174,0.276
	c-0.181,0.002-0.361,0.006-0.542,0.009c0.149-0.287,0.286-0.582,0.415-0.877c0.198-0.454,0.363-0.917,0.52-1.385
	c0.269,0,0.538-0.001,0.808-0.001C24.159,26.361,24.005,26.67,23.841,26.977z M23.216,24.57c-0.168,0-0.336,0-0.503,0
	c-0.788,0.002-1.577-0.004-2.365-0.006c-0.404,0-0.806,0-1.208,0c-1.128,0.002-2.256,0.002-3.382-0.014
	c-1.432-0.02-2.865-0.09-4.299-0.09c-0.714-0.002-1.427-0.008-2.141-0.037c-0.355-0.014-0.712-0.027-1.068-0.057
	c-0.336-0.028-0.671-0.062-1.007-0.088c-0.066-0.194-0.136-0.386-0.196-0.582c-0.029-0.094-0.05-0.191-0.078-0.285
	c1.366-0.121,2.737-0.131,4.106-0.167c0.783-0.021,1.565-0.049,2.348-0.059c0.773-0.01,1.548-0.002,2.318-0.023
	c0.781-0.02,1.563-0.035,2.344-0.041c0.775-0.008,1.548,0.018,2.322,0.021c1.475,0.006,2.949,0.002,4.422,0.027
	c0.148,0.003,0.298,0.007,0.447,0.008c-0.079,0.321-0.147,0.646-0.242,0.965c-0.041,0.136-0.099,0.267-0.144,0.402
	C24.332,24.568,23.774,24.572,23.216,24.57z M26.226,13.52c0.105,0.905,0.122,1.828,0.098,2.739c-0.023,0.922-0.119,1.84-0.23,2.755
	c-0.126,0.889-0.294,1.77-0.473,2.648c-0.013,0-0.025,0-0.038,0c-0.18,0.004-0.359,0.002-0.539,0.002
	c-0.064-0.001-0.127-0.001-0.191-0.002c0.003-0.011,0.013-0.02,0.015-0.031c0.15-0.652,0.24-1.309,0.31-1.971
	c0.066-0.634,0.143-1.267,0.205-1.899c0.062-0.654,0.06-1.302,0.029-1.957c-0.029-0.652-0.09-1.3-0.094-1.952
	c-0.002-0.437-0.363-0.802-0.802-0.802c-0.433,0-0.81,0.365-0.802,0.802c0.014,1.034,0.187,2.055,0.142,3.089
	c-0.023,0.541-0.088,1.077-0.148,1.612c-0.055,0.467-0.108,0.934-0.169,1.399c-0.061,0.419-0.14,0.833-0.247,1.243
	c-0.042,0.157-0.021,0.312,0.026,0.458c-0.392,0-0.785,0.001-1.177,0.002c0.018-0.099,0.034-0.199,0.046-0.3
	c0.088-0.589,0.228-1.17,0.314-1.759c0.105-0.718,0.137-1.438,0.162-2.162c0.016-0.424-0.367-0.779-0.779-0.779
	c-0.433,0-0.769,0.355-0.781,0.779c-0.015,0.659-0.014,1.315-0.087,1.971c-0.055,0.322-0.123,0.64-0.194,0.958
	c-0.072,0.31-0.121,0.625-0.209,0.931c-0.034,0.119-0.029,0.239-0.006,0.354c-0.41-0.003-0.821-0.003-1.231-0.008
	c-0.747-0.01-1.495-0.02-2.24-0.02c-0.747,0-1.495,0.033-2.242,0.039c-0.802,0.006-1.604-0.002-2.404,0.02
	c-1.526,0.045-3.054,0.094-4.58,0.152c-0.452,0.016-0.902,0.043-1.352,0.083c-0.216-0.859-0.408-1.725-0.541-2.6
	c-0.084-0.701-0.141-1.4-0.183-2.105c-0.043-0.712-0.086-1.421-0.086-2.135c0-0.738,0.006-1.475,0.064-2.211
	c0.052-0.661,0.137-1.319,0.223-1.975c0.033-0.227,0.076-0.454,0.113-0.681c0.728,0.012,1.456,0.018,2.184,0.013
	c0.767-0.006,1.536,0.004,2.303,0.006c1.587,0.002,3.171-0.023,4.758-0.051c1.589-0.027,3.179-0.07,4.77-0.09
	c0.745-0.01,1.493-0.021,2.238-0.023c0.386,0,0.771,0.006,1.157-0.01c0.379-0.014,0.755-0.041,1.132-0.062
	c0.189-0.01,0.379-0.018,0.568-0.021c0.052-0.001,0.097-0.021,0.146-0.031c0.09,0.288,0.181,0.577,0.253,0.87
	c0.191,0.775,0.371,1.55,0.505,2.336C26.186,13.268,26.207,13.394,26.226,13.52z M6.582,8.067c0.057-0.221,0.14-0.435,0.21-0.652
	C7.6,7.347,8.407,7.281,9.219,7.257c0.783-0.02,1.565-0.02,2.346-0.023c0.796-0.002,1.591-0.02,2.385-0.055
	c0.783-0.035,1.565-0.055,2.35-0.07c1.313-0.025,2.629-0.059,3.944-0.092C20.917,7.001,21.592,7.001,22.268,7
	c0.681-0.004,1.364-0.01,2.043,0.016c0.05,0.002,0.093-0.019,0.141-0.027c0.16,0.475,0.321,0.95,0.471,1.429
	c-0.677,0.042-1.354,0.079-2.03,0.082c-0.753,0.004-1.507,0.035-2.26,0.045c-1.554,0.021-3.109,0.07-4.664,0.094
	c-1.589,0.023-3.175,0.066-4.764,0.064c-0.794,0-1.589,0.018-2.381,0.008C8.037,8.7,7.252,8.679,6.467,8.652
	c-0.005,0-0.01,0-0.015,0C6.497,8.457,6.532,8.26,6.582,8.067z M9.7,3.794c0.742,0.006,1.483,0.012,2.225,0.01
	c0.728-0.004,1.454-0.041,2.18-0.059c0.74-0.02,1.475-0.035,2.213-0.072c0.626-0.031,1.251-0.084,1.879-0.105
	c0.626-0.02,1.255-0.018,1.883-0.041c0.619-0.025,1.239-0.037,1.86-0.031c0.168,0.002,0.336,0.002,0.505,0
	c0.235-0.001,0.47,0.009,0.706,0.013c0.114,0.253,0.226,0.508,0.336,0.763c0.154,0.379,0.282,0.767,0.419,1.152
	c-0.661,0.029-1.325,0.031-1.986,0.032c-0.769,0.004-1.54,0.021-2.309,0.041c-0.771,0.018-1.544,0.033-2.315,0.051
	c-0.773,0.018-1.546,0.053-2.319,0.08c-0.693,0.023-1.388,0.047-2.08,0.072c-0.66,0.025-1.323,0.019-1.985,0.021
	C9.734,5.726,8.554,5.758,7.377,5.824c0.049-0.119,0.095-0.24,0.144-0.359C7.758,4.908,7.99,4.349,8.222,3.79
	c0.214,0.001,0.429,0.004,0.643,0.004C9.144,3.794,9.421,3.794,9.7,3.794z M14.147,28.411c-0.915-0.02-1.833-0.002-2.746-0.041
	c-0.863-0.037-1.724-0.088-2.586-0.133c-0.108-0.201-0.207-0.407-0.299-0.616c-0.183-0.439-0.355-0.882-0.527-1.325
	c0.006-0.029,0.018-0.056,0.018-0.086c0-0.134-0.057-0.255-0.147-0.343c1.253,0.071,2.505,0.129,3.759,0.135
	c1.511,0.008,3.019,0.051,4.53,0.055c1.477,0.004,2.957,0,4.434-0.004c0.427-0.001,0.853,0,1.279-0.002
	c-0.123,0.37-0.239,0.742-0.387,1.104c-0.118,0.268-0.245,0.53-0.403,0.78c-0.079,0.124-0.096,0.264-0.089,0.404
	c-0.683,0.022-1.367,0.054-2.051,0.07C17.34,28.45,15.742,28.447,14.147,28.411z"/>
</svg>