<?xml version="1.0" encoding="utf-8"?>
<!-- Generator: Adobe Illustrator 21.1.0, SVG Export Plug-In . SVG Version: 6.00 Build 0)  -->
<svg version="1.1" id="designs" xmlns="http://www.w3.org/2000/svg" xmlns:xlink="http://www.w3.org/1999/xlink" x="0px" y="0px"
	 width="32px" height="32px" viewBox="0 0 32 32" style="enable-background:new 0 0 32 32;" xml:space="preserve">
<style type="text/css">
	.sketchy_een{fill:#111918;}
</style>
<path class="sketchy_een" d="M26.998,28.878c-0.042-0.443-0.079-0.888-0.099-1.332c-0.02-0.505-0.024-1.009-0.038-1.515
	c-0.033-1.086-0.046-2.172-0.066-3.26c-0.006-0.358-0.248-0.654-0.576-0.753c-0.127-0.258-0.407-0.426-0.727-0.447
	c-0.044-0.002-0.088-0.003-0.132-0.003c-0.147,0-0.293,0.012-0.439,0.022c-0.194,0.013-0.389,0.018-0.581,0.02
	c-0.013,0-0.027,0-0.04,0c-0.042-0.587-0.082-1.175-0.142-1.761c-0.076-0.734-0.17-1.467-0.258-2.2
	c-0.096-0.795-0.268-1.579-0.44-2.363c-0.164-0.748-0.311-1.506-0.571-2.231c-0.149-0.411-0.331-0.815-0.544-1.2
	c-0.186-0.331-0.415-0.637-0.657-0.934c-0.278-0.34-0.55-0.694-0.892-0.98c-0.334-0.278-0.696-0.525-1.068-0.754
	c-0.66-0.407-1.35-0.772-2.08-1.055c0.426-0.309,0.784-0.72,1.025-1.187c0.172-0.332,0.233-0.668,0.275-1.033
	c0.035-0.289,0.024-0.573-0.02-0.862c-0.099-0.676-0.467-1.297-0.919-1.801C17.72,2.93,17.4,2.63,17.012,2.441
	c-0.37-0.178-0.771-0.312-1.176-0.372C15.568,2.028,15.298,2,15.029,2c-0.121,0-0.243,0.006-0.364,0.018
	c-0.575,0.061-1.127,0.262-1.603,0.59c-0.22,0.15-0.425,0.324-0.604,0.52c-0.183,0.204-0.332,0.443-0.463,0.682
	c-0.251,0.456-0.359,0.993-0.348,1.511c0.005,0.245,0.04,0.487,0.075,0.731c0.053,0.381,0.192,0.723,0.361,1.066
	c0.112,0.232,0.28,0.436,0.436,0.639c0.128,0.163,0.273,0.31,0.432,0.443c0.044,0.037,0.091,0.071,0.137,0.107
	c-0.166,0.078-0.333,0.155-0.494,0.242c-0.376,0.202-0.741,0.414-1.095,0.652c-0.381,0.254-0.749,0.542-1.072,0.861
	c-0.317,0.312-0.597,0.659-0.847,1.02c-0.458,0.658-0.868,1.341-1.201,2.062c-0.18,0.39-0.336,0.792-0.473,1.198
	c-0.125,0.377-0.221,0.762-0.321,1.145c-0.137,0.529-0.262,1.059-0.362,1.596c-0.106,0.561-0.18,1.126-0.246,1.692
	c-0.115,0.985-0.176,1.978-0.181,2.97c-0.185-0.001-0.369,0-0.554,0c-0.249-0.001-0.468,0.113-0.621,0.281
	c-0.346,0.088-0.636,0.394-0.62,0.766c0.026,0.573,0.057,1.145,0.07,1.718c0.013,0.535,0.011,1.072,0.018,1.606
	c0.013,1.028,0.022,2.053,0.024,3.081C5.114,29.634,5.477,30,5.915,30c0.079,0,0.151-0.024,0.224-0.046
	c0.003,0,0.005,0.001,0.007,0.001c1.712-0.035,3.424-0.083,5.138-0.095c1.635-0.013,3.267-0.019,4.902-0.024
	c0.834-0.004,1.67-0.011,2.504-0.033c0.816-0.022,1.631-0.059,2.447-0.064c0.81-0.005,1.621-0.013,2.431,0.007
	c0.675,0.019,1.35,0.053,2.026,0.071c0.119,0.002,0.24,0,0.361-0.007c0.185-0.01,0.351-0.077,0.488-0.173
	c0.118-0.04,0.229-0.097,0.318-0.185C26.901,29.312,27.018,29.082,26.998,28.878z M13.294,4.569c0.076-0.156,0.161-0.307,0.26-0.45
	c0.08-0.085,0.163-0.165,0.252-0.241c0.148-0.105,0.301-0.196,0.465-0.274c0.158-0.058,0.317-0.101,0.482-0.132
	c0.231-0.016,0.457-0.003,0.687,0.017c0.223,0.038,0.435,0.096,0.649,0.176c0.082,0.031,0.163,0.067,0.244,0.103
	c-0.06-0.026-0.119-0.05-0.18-0.075c0.116,0.053,0.221,0.113,0.325,0.183c0.149,0.13,0.281,0.271,0.409,0.42
	c0.127,0.18,0.246,0.361,0.344,0.559c0.052,0.143,0.092,0.288,0.121,0.438c0.013,0.181,0.007,0.36-0.01,0.541
	c-0.02,0.104-0.042,0.206-0.074,0.306c-0.074,0.146-0.161,0.282-0.257,0.415c-0.077,0.089-0.155,0.174-0.242,0.253
	c-0.141,0.098-0.288,0.185-0.441,0.261c-0.249,0.092-0.5,0.155-0.764,0.196c-0.142,0.018-0.284,0.036-0.427,0.052
	c-0.075,0.008-0.145,0.02-0.211,0.037c-0.188-0.03-0.373-0.068-0.554-0.13c-0.122-0.061-0.237-0.127-0.35-0.204
	c-0.139-0.121-0.263-0.252-0.381-0.392c-0.106-0.157-0.2-0.317-0.285-0.487c-0.068-0.19-0.108-0.386-0.143-0.585
	c-0.021-0.21-0.03-0.417-0.015-0.63C13.223,4.804,13.254,4.687,13.294,4.569z M8.54,19.783c0.042-0.659,0.1-1.314,0.186-1.967
	c0.227-1.378,0.566-2.747,1.106-4.049c0.373-0.786,0.829-1.537,1.363-2.235c0.155-0.182,0.315-0.358,0.496-0.52
	c0.216-0.196,0.442-0.375,0.675-0.551c0.558-0.373,1.148-0.703,1.768-0.974c0.322-0.108,0.664-0.162,1.003-0.208
	c0.323-0.034,0.638-0.058,0.964-0.034c0.291,0.046,0.57,0.115,0.85,0.209c0.86,0.366,1.659,0.82,2.424,1.34
	c0.132,0.099,0.261,0.2,0.379,0.314c0.163,0.158,0.314,0.32,0.463,0.49c0.187,0.231,0.368,0.464,0.537,0.707
	c0.177,0.257,0.316,0.537,0.45,0.817c0.289,0.704,0.473,1.434,0.646,2.17c0.178,0.763,0.36,1.525,0.481,2.298
	c0.052,0.385,0.102,0.77,0.155,1.154c-0.002-0.01-0.003-0.021-0.005-0.031c0.137,0.964,0.24,1.934,0.305,2.905
	c-0.675,0.009-1.351,0.019-2.026,0.023c-0.818,0.007-1.637,0.011-2.455,0.015c-0.838,0.005-1.676,0.037-2.511,0.062
	c-0.601,0.021-1.201,0.021-1.802,0.019c-0.19,0-0.381,0-0.57,0c-0.766,0.002-1.532,0.009-2.299,0.017
	c-0.867,0.008-1.734-0.001-2.601-0.004C8.511,21.093,8.5,20.438,8.54,19.783z M23.097,28.293c-0.085,0-0.17,0.001-0.255,0.001
	c-0.012-0.154-0.021-0.309-0.03-0.464c-0.018-0.306-0.029-0.61-0.042-0.916c-0.031-0.663-0.038-1.324-0.035-1.987
	c0.002-0.406-0.341-0.744-0.744-0.744c-0.403,0-0.745,0.337-0.744,0.744c0.004,0.663,0.04,1.326,0.086,1.987
	c0.032,0.462,0.055,0.926,0.083,1.389c-0.849,0.008-1.698,0.029-2.547,0.051c-0.038-0.436-0.043-0.875-0.052-1.313
	c-0.013-0.564-0.033-1.13-0.055-1.696c-0.018-0.41-0.332-0.754-0.757-0.754c-0.394,0-0.777,0.344-0.755,0.754
	c0.031,0.566,0.066,1.132,0.101,1.696c0.027,0.448,0.056,0.896,0.096,1.343c-0.297,0.006-0.594,0.016-0.892,0.019
	c-0.551,0.006-1.102,0.002-1.654,0.005c-0.052-0.463-0.092-0.926-0.09-1.394c0.002-0.625,0.015-1.247,0.009-1.87
	c-0.005-0.41-0.339-0.751-0.753-0.751c-0.403,0-0.76,0.341-0.751,0.751c0.013,0.623,0.037,1.246,0.057,1.87
	c0.013,0.468,0.054,0.933,0.097,1.398c-0.616,0-1.231,0.008-1.847,0.005c-0.272-0.001-0.545,0.004-0.817,0.006
	c-0.028-0.481-0.03-0.965-0.033-1.446c-0.005-0.646-0.022-1.295-0.042-1.941c-0.013-0.418-0.339-0.768-0.766-0.768
	c-0.403,0-0.786,0.35-0.767,0.768c0.031,0.665,0.068,1.328,0.09,1.993c0.009,0.321,0.02,0.639,0.031,0.96
	c0.005,0.148,0.01,0.297,0.016,0.445c-0.055,0-0.109,0.001-0.164,0.001c-0.403,0.003-0.804,0.002-1.206,0
	c-0.421-0.002-0.841-0.005-1.26-0.002c-0.002-0.243-0.002-0.487-0.009-0.729c-0.015-0.522-0.033-1.044-0.046-1.564
	c-0.023-0.946-0.02-1.893-0.038-2.839c1.584-0.017,3.168-0.09,4.753-0.107c0.641-0.005,1.285-0.005,1.928-0.004
	c1.017,0.002,2.033,0.006,3.05-0.027c1.565-0.049,3.128-0.049,4.692-0.04c0.398,0.002,0.797,0,1.195-0.004
	c0.358-0.002,0.717-0.005,1.077-0.005c0.365,0.002,0.733,0,1.098-0.002c0.267,0,0.533-0.012,0.799-0.021
	c0.034,0.981,0.087,1.961,0.089,2.941c0.003,0.761,0.009,1.523,0.052,2.283c-0.484-0.007-0.968-0.016-1.451-0.02
	C23.631,28.293,23.364,28.293,23.097,28.293z M17.864,13.547c-0.134-0.163-0.223-0.321-0.223-0.541c0-0.201,0.081-0.396,0.223-0.538
	c0.143-0.143,0.337-0.224,0.539-0.224c0.183,0,0.421,0.075,0.54,0.224c0.326,0.41,0.672,0.82,0.907,1.293
	c0.218,0.439,0.396,0.905,0.544,1.374c0.13,0.413,0.258,0.828,0.361,1.248c0.097,0.39,0.147,0.79,0.251,1.178
	c0.108,0.41-0.134,0.846-0.546,0.958c-0.388,0.108-0.874-0.128-0.958-0.544c-0.055-0.264-0.086-0.531-0.136-0.797
	c-0.051-0.276-0.125-0.549-0.194-0.822c-0.141-0.553-0.306-1.095-0.516-1.625c-0.119-0.258-0.255-0.497-0.423-0.729
	C18.111,13.85,17.987,13.698,17.864,13.547z"/>
</svg>