<?xml version="1.0" encoding="utf-8"?>
<!-- Generator: Adobe Illustrator 21.1.0, SVG Export Plug-In . SVG Version: 6.00 Build 0)  -->
<svg version="1.1" id="designs" xmlns="http://www.w3.org/2000/svg" xmlns:xlink="http://www.w3.org/1999/xlink" x="0px" y="0px"
	 width="32px" height="32px" viewBox="0 0 32 32" style="enable-background:new 0 0 32 32;" xml:space="preserve">
<style type="text/css">
	.sketchy_een{fill:#111918;}
</style>
<path class="sketchy_een" d="M26.943,20.015c-0.028-0.513-0.095-1.027-0.227-1.522c-0.141-0.515-0.346-1.001-0.593-1.472
	c-0.223-0.422-0.477-0.828-0.75-1.218c-0.296-0.418-0.669-0.758-1.035-1.112c-0.32-0.31-0.625-0.629-0.917-0.967
	c-0.344-0.396-0.724-0.718-1.15-1.025c-0.352-0.253-0.724-0.474-1.098-0.694c-0.181-0.107-0.364-0.213-0.545-0.32
	c-0.261-0.153-0.549-0.259-0.83-0.368c-0.147-0.056-0.304-0.083-0.457-0.121c0.013-0.06,0.037-0.117,0.033-0.181
	c-0.016-0.31-0.056-0.617-0.09-0.925c-0.046-0.42-0.094-0.885-0.497-1.124c-0.145-0.084-0.294-0.127-0.454-0.155
	c-0.499-0.086-1.003-0.086-1.506-0.086c-0.155,0-0.31,0.002-0.462-0.002c-0.18-0.003-0.359-0.011-0.539-0.016
	c0.055-0.114,0.088-0.238,0.075-0.354c-0.03-0.287-0.026-0.573-0.02-0.86c0.007-0.266,0.017-0.53,0.042-0.794
	c0.006-0.033,0.012-0.066,0.019-0.098c0.219-0.088,0.435-0.178,0.645-0.286c0.674-0.344,1.194-0.941,1.399-1.671
	c0.103-0.368,0.076-0.75,0.018-1.12c-0.048-0.294-0.163-0.571-0.29-0.838c-0.153-0.32-0.412-0.595-0.643-0.858
	c-0.191-0.213-0.428-0.394-0.682-0.527c-0.358-0.187-0.726-0.227-1.122-0.279C15.157,1.007,15.049,1,14.941,1
	c-0.404,0-0.799,0.099-1.167,0.275c-0.842,0.4-1.492,1.162-2.019,1.906c-0.129,0.181-0.143,0.456-0.086,0.661
	c0.058,0.215,0.203,0.402,0.394,0.515c0.199,0.115,0.44,0.147,0.663,0.086c0.227-0.062,0.382-0.205,0.513-0.396
	c0.08-0.114,0.159-0.23,0.24-0.344c0.23-0.276,0.485-0.539,0.76-0.771c0.088-0.057,0.176-0.107,0.269-0.154
	c0.102-0.037,0.204-0.069,0.309-0.096c0.179-0.009,0.356,0.004,0.535,0.024c0.072,0.013,0.142,0.03,0.211,0.052
	c0.053,0.028,0.103,0.057,0.154,0.089c0.127,0.115,0.239,0.244,0.35,0.374c0.072,0.103,0.138,0.207,0.195,0.318
	c0.044,0.126,0.079,0.253,0.105,0.384c0.003,0.079,0,0.158-0.007,0.238c-0.013,0.06-0.029,0.119-0.048,0.178
	c-0.035,0.067-0.072,0.131-0.113,0.195c-0.069,0.078-0.141,0.15-0.219,0.219c-0.18,0.124-0.369,0.229-0.567,0.322
	c-0.121,0.046-0.244,0.091-0.358,0.148c-0.298,0.151-0.483,0.396-0.603,0.7c-0.125,0.312-0.149,0.67-0.183,1.001
	c-0.024,0.247-0.034,0.495-0.052,0.744c-0.018,0.227-0.044,0.454-0.042,0.684c0,0.108,0.026,0.211,0.064,0.307
	c-0.72-0.025-1.44-0.049-2.161-0.052c-0.374-0.002-0.686,0.258-0.796,0.599c-0.073,0.129-0.126,0.269-0.126,0.426
	c0,0.48,0.011,0.96,0.041,1.438c-0.265,0.192-0.529,0.385-0.795,0.574C9.99,11.941,9.6,12.269,9.208,12.588
	c-0.354,0.292-0.73,0.577-1.033,0.923c-0.35,0.4-0.669,0.826-0.991,1.251c-0.277,0.366-0.567,0.73-0.812,1.12
	c-0.247,0.39-0.45,0.798-0.633,1.22c-0.205,0.469-0.362,0.947-0.47,1.444c-0.111,0.501-0.149,1.023-0.187,1.534
	c-0.074,0.989-0.06,1.994,0.133,2.97c0.091,0.46,0.237,0.907,0.376,1.353c0.123,0.4,0.261,0.792,0.45,1.168
	c0.103,0.205,0.221,0.4,0.34,0.597c0.257,0.418,0.553,0.808,0.875,1.178c0.281,0.324,0.535,0.669,0.834,0.977
	c0.342,0.35,0.684,0.696,1.096,0.965c0.354,0.231,0.716,0.458,1.1,0.635c0.446,0.207,0.893,0.406,1.367,0.537
	c0.372,0.103,0.748,0.157,1.124,0.239c0.911,0.201,1.85,0.257,2.779,0.287c0.444,0.014,0.891,0.022,1.335-0.002
	c0.505-0.024,1.003-0.092,1.502-0.173c0.985-0.159,1.91-0.639,2.775-1.118c0.448-0.249,0.86-0.571,1.259-0.891
	c0.362-0.29,0.714-0.595,1.043-0.919c0.314-0.308,0.599-0.639,0.877-0.979c0.314-0.378,0.615-0.768,0.899-1.168
	c0.563-0.796,0.963-1.713,1.234-2.646c0.129-0.44,0.257-0.879,0.366-1.325C26.981,21.203,26.975,20.59,26.943,20.015z
	 M25.136,21.201c-0.083,0.416-0.21,0.819-0.33,1.227c-0.112,0.374-0.24,0.739-0.386,1.1c-0.252,0.56-0.579,1.078-0.947,1.571
	c-0.299,0.375-0.599,0.754-0.931,1.101c-0.385,0.404-0.801,0.77-1.235,1.119c-0.317,0.241-0.645,0.476-0.99,0.671
	c-0.369,0.208-0.748,0.391-1.132,0.568c-0.573,0.227-1.155,0.375-1.763,0.469c-1.138,0.119-2.285,0.073-3.418-0.063
	c-0.376-0.061-0.746-0.144-1.121-0.217c-0.392-0.075-0.775-0.173-1.148-0.314c-0.558-0.261-1.102-0.558-1.609-0.912
	c-0.313-0.27-0.611-0.568-0.894-0.869c-0.33-0.354-0.662-0.711-0.979-1.079c-0.29-0.389-0.558-0.799-0.765-1.239
	c-0.264-0.703-0.485-1.433-0.617-2.172c-0.05-0.477-0.06-0.95-0.058-1.432c0-0.511,0.022-1.021,0.071-1.528
	c0.041-0.261,0.091-0.516,0.16-0.774c0.067-0.251,0.16-0.494,0.259-0.735c0.189-0.405,0.394-0.805,0.65-1.175
	c0.272-0.394,0.572-0.768,0.862-1.148c0.057-0.075,0.114-0.149,0.171-0.223c-0.02,0.028-0.041,0.056-0.062,0.083
	c0.279-0.357,0.562-0.703,0.903-1.006c0.358-0.318,0.744-0.608,1.12-0.904c0.491-0.363,1.008-0.685,1.499-1.05
	c0.001-0.001,0.002-0.002,0.004-0.003c0.286-0.143,0.511-0.427,0.483-0.756c-0.034-0.402-0.023-0.808-0.009-1.214
	c0.788-0.004,1.575-0.007,2.363-0.007c0.448,0,0.899-0.008,1.349-0.012c0.348-0.003,0.696-0.007,1.043,0.014
	c0.005,0.242-0.006,0.482-0.036,0.724c-0.003,0.021,0.003,0.044,0.003,0.066l-0.159-0.002c-0.334-0.006-0.668-0.01-1.001-0.01
	l-0.979,0.007c-0.352,0-0.703-0.008-1.05-0.039l-0.064-0.003c-0.467,0-0.815,0.459-0.815,0.87c0,0.409,0.348,0.867,0.874,0.867
	c0.001,0,0.003,0,0.004,0c0.326-0.027,0.654-0.027,0.982-0.028c0.176-0.001,0.874-0.011,1.045-0.011
	c0.319,0,0.639,0.007,0.958,0.023l0.709,0.035c0.43,0.067,0.845,0.172,1.252,0.325c0.382,0.184,0.749,0.399,1.12,0.601
	c0.374,0.203,0.729,0.437,1.07,0.689c0.412,0.355,0.764,0.767,1.155,1.143c0.404,0.387,0.822,0.752,1.185,1.177
	c0.332,0.488,0.617,0.999,0.859,1.537c0.136,0.393,0.241,0.792,0.313,1.202C25.169,20.042,25.193,20.621,25.136,21.201z
	 M23.055,21.85c-0.096,0.388-0.225,0.762-0.38,1.132c-0.155,0.374-0.342,0.718-0.555,1.062c-0.235,0.38-0.519,0.73-0.808,1.07
	c-0.221,0.261-0.454,0.513-0.704,0.748c-0.316,0.302-0.659,0.571-1.011,0.826c-0.281,0.203-0.563,0.414-0.881,0.557
	c-0.382,0.173-0.78,0.354-1.186,0.462c-0.414,0.113-0.848,0.167-1.277,0.197c-0.481,0.034-0.883-0.426-0.883-0.883
	c0-0.489,0.402-0.873,0.883-0.883c0.13-0.003,0.256-0.01,0.383-0.022c0.353-0.059,0.688-0.155,1.021-0.292
	c-0.034,0.014-0.068,0.029-0.103,0.043c0.077-0.032,0.153-0.064,0.23-0.096c0.376-0.172,0.713-0.405,1.042-0.653
	c0.514-0.413,0.964-0.875,1.374-1.389c0.279-0.373,0.542-0.76,0.745-1.181c0.147-0.386,0.265-0.778,0.363-1.181
	c0.098-0.402,0.487-0.664,0.884-0.664c0.077,0,0.154,0.01,0.23,0.03C22.907,20.869,23.176,21.372,23.055,21.85z"/>
</svg>