<?xml version="1.0" encoding="utf-8"?>
<!-- Generator: Adobe Illustrator 21.1.0, SVG Export Plug-In . SVG Version: 6.00 Build 0)  -->
<svg version="1.1" id="designs" xmlns="http://www.w3.org/2000/svg" xmlns:xlink="http://www.w3.org/1999/xlink" x="0px" y="0px"
	 width="32px" height="32px" viewBox="0 0 32 32" style="enable-background:new 0 0 32 32;" xml:space="preserve">
<style type="text/css">
	.sketchy_een{fill:#111918;}
</style>
<path class="sketchy_een" d="M18.55,13.218c0-0.407,0.34-0.755,0.749-0.751c0.369,0.004,0.74,0.002,1.109,0
	c0.249-0.002,0.502,0.004,0.749-0.029c-0.005,0.001-0.011,0.002-0.016,0.002c0.1-0.012,0.199-0.021,0.301-0.023
	c0.006,0,0.013,0,0.019,0c0.414,0,0.755,0.368,0.755,0.774c0,0.441-0.352,0.747-0.774,0.774c-0.261,0.015-0.523-0.036-0.784-0.04
	c-0.455-0.01-0.905,0.038-1.36,0.042C18.891,13.971,18.55,13.623,18.55,13.218z M19.851,10.115c0.38-0.01,0.761-0.025,1.141-0.032
	c0.356-0.006,0.719-0.027,1.073,0.015c0.188,0.023,0.409-0.095,0.536-0.223c0.141-0.141,0.221-0.335,0.221-0.534
	s-0.08-0.394-0.221-0.534c-0.118-0.118-0.311-0.225-0.487-0.225c-0.016,0-0.033,0.001-0.049,0.003
	c-0.354,0.042-0.717,0.027-1.073,0.023c-0.38-0.004-0.761-0.01-1.141-0.008c-0.413,0.004-0.757,0.344-0.757,0.759
	C19.094,9.763,19.438,10.124,19.851,10.115z M20.571,19.154c-0.151-0.043-0.312-0.059-0.474-0.059c-0.125,0-0.249,0.009-0.368,0.023
	c-0.546,0.063-1.099,0.068-1.647,0.116c-0.228,0.019-0.426,0.078-0.593,0.245c-0.158,0.158-0.247,0.373-0.247,0.595
	c0,0.221,0.089,0.437,0.247,0.593c0.145,0.145,0.384,0.266,0.593,0.247c0.757-0.074,1.518-0.19,2.276-0.185
	c0.358,0.002,0.679-0.247,0.774-0.59C21.25,19.715,20.991,19.276,20.571,19.154z M19.614,22.291c-0.015,0-0.03,0.001-0.044,0.002
	c-0.458,0.044-0.92,0.042-1.381,0.04c-0.219-0.002-0.435-0.002-0.652,0c-0.432,0.006-0.793,0.356-0.793,0.793
	c0,0.422,0.361,0.81,0.793,0.795c0.388-0.015,0.776-0.036,1.162-0.051c0.291-0.011,0.582-0.027,0.871-0.002
	c0.428,0.038,0.787-0.386,0.787-0.787c0-0.207-0.084-0.409-0.23-0.557C20.002,22.398,19.801,22.291,19.614,22.291z M30,12.435
	c-0.002,0.342-0.048,0.679-0.084,1.018c-0.08,0.732-0.08,1.466-0.082,2.2c0,0.643-0.098,1.281-0.189,1.915
	c-0.036,0.379-0.029,0.767-0.102,1.143c-0.082,0.409-0.399,0.696-0.74,0.905c-0.308,0.188-0.631,0.331-0.983,0.417
	c-0.268,0.065-0.552,0.105-0.827,0.11c-0.173,0.004-0.343-0.015-0.514-0.039c-0.449-0.051-0.901-0.036-1.352-0.02
	c-0.242,0.01-0.481,0.034-0.723,0.03c-0.138-0.003-0.277-0.002-0.416,0.001c-0.018,0.1-0.04,0.2-0.057,0.3
	c-0.127,0.755-0.268,1.508-0.42,2.259c-0.133,0.666-0.297,1.326-0.409,1.993c-0.102,0.617-0.244,1.228-0.339,1.845
	c-0.011,0.11-0.016,0.219-0.018,0.329c-0.008,0.474-0.413,0.822-0.87,0.8c-0.038,0.007-0.073,0.024-0.113,0.026
	c-0.217,0.013-0.436,0.013-0.652,0.011c-0.084,0-0.167,0-0.249,0c-0.342,0.002-0.687-0.01-1.027-0.019
	c-0.335-0.011-0.668-0.006-1.002-0.011c-0.394-0.004-0.787-0.023-1.181-0.036c-0.384-0.011-0.768-0.038-1.153-0.049
	c-0.405-0.011-0.808-0.004-1.213,0.008c-0.698,0.023-1.398,0.01-2.098,0.019c-0.73,0.008-1.459-0.006-2.189-0.008
	c-0.772,0-1.539,0.04-2.309,0.076c-0.272,0.013-0.503-0.145-0.648-0.362c-0.046-0.03-0.097-0.052-0.136-0.09
	c-0.156-0.158-0.215-0.344-0.232-0.561c-0.004-0.047-0.008-0.095-0.012-0.143c-0.075-0.486-0.177-0.967-0.266-1.451
	c-0.112-0.593-0.207-1.187-0.297-1.782c-0.183-1.234-0.464-2.45-0.7-3.674c-0.295-1.523-0.574-3.051-0.854-4.578
	c-0.139-0.763-0.228-1.533-0.369-2.294c-0.149-0.808-0.337-1.608-0.491-2.414c-0.026-0.05-0.056-0.095-0.078-0.151
	c-0.005-0.011-0.009-0.022-0.013-0.033c-0.056-0.113-0.12-0.221-0.179-0.332C4.306,9.594,4.205,9.392,4.1,9.191
	C3.887,8.778,3.678,8.367,3.438,7.97C3.195,7.561,2.982,7.135,2.75,6.718C2.526,6.311,2.299,5.906,2.105,5.484
	c-0.091-0.196-0.139-0.38-0.078-0.597C2.081,4.693,2.21,4.526,2.383,4.425c0.118-0.07,0.254-0.106,0.39-0.106
	c0.055,0,0.11,0.01,0.165,0.022C2.962,4.338,2.984,4.324,3.01,4.324c0.015,0,0.029,0,0.044,0.002
	c0.852,0.065,1.704,0.099,2.56,0.087c0.797-0.011,1.594-0.002,2.391-0.021c0.791-0.021,1.58-0.042,2.372-0.046
	c0.399-0.002,0.797-0.019,1.196-0.011c0.388,0.008,0.774,0.008,1.16,0.009c0.392,0,0.784,0.011,1.175,0.019
	c0.384,0.008,0.768,0.002,1.152,0.008c0.392,0.004,0.782,0.004,1.172,0.008c0.397,0.002,0.795,0.03,1.192,0.036
	c0.829,0.013,1.658,0.027,2.49,0.03c0.38,0.002,0.761-0.01,1.141-0.01c0.392,0.002,0.784,0.015,1.175,0.017
	c0.337,0.004,0.675,0.002,1.014,0.002c0.422,0,0.844,0,1.267,0.004c0.522,0.005,1.049,0.039,1.569-0.011
	c0.152-0.038,0.305-0.036,0.457,0.006c0.154,0.042,0.287,0.12,0.399,0.232C27.105,4.852,27.2,5.085,27.2,5.324
	c0,0.209-0.081,0.407-0.211,0.567c-0.002,0.006,0,0.011-0.001,0.017c-0.266,0.932-0.522,1.867-0.745,2.809
	c0.363,0.017,0.727,0.036,1.089,0.047c0.358,0.01,0.73,0.011,1.078,0.099c0.561,0.145,0.953,0.59,1.194,1.099
	c0.202,0.424,0.293,0.85,0.348,1.312C30,11.661,30,12.049,30,12.435z M6.613,11.996c0.112,0.637,0.243,1.272,0.348,1.909
	c0.108,0.656,0.234,1.31,0.352,1.965c0.009,0.049,0.016,0.098,0.025,0.147c1.352,0.006,2.701-0.068,4.053-0.068
	c0.591,0,1.181-0.03,1.773-0.038c0.624-0.01,1.248-0.002,1.871-0.01c0.768-0.008,1.535-0.015,2.303,0.01
	c0.797,0.025,1.596,0.019,2.393,0.006c0.335-0.006,0.668,0.004,1.002,0.009c0.314,0.006,0.624-0.006,0.936-0.017
	c0.205-0.008,0.411-0.008,0.614-0.029c0.327-0.032,0.656,0,0.983-0.032c0.016-0.002,0.032-0.002,0.048-0.002
	c0.016,0,0.031,0.01,0.046,0.012c0.07-0.36,0.134-0.721,0.208-1.081c0.15-0.738,0.291-1.478,0.426-2.219
	c0.141-0.766,0.251-1.54,0.451-2.296c0.2-0.755,0.388-1.512,0.559-2.275c0.135-0.608,0.265-1.218,0.407-1.825
	c-0.326-0.018-0.65-0.035-0.975-0.064c-0.38-0.034-0.765-0.036-1.147-0.038c-0.399-0.004-0.799-0.017-1.198-0.034
	c-0.785-0.036-1.571-0.067-2.356-0.089c-0.82-0.023-1.637-0.023-2.455-0.034c-0.778-0.013-1.556-0.013-2.332-0.008
	c-0.776,0.006-1.552-0.029-2.328-0.032c-0.806-0.004-1.611-0.029-2.417-0.029c-0.399,0-0.797,0-1.196,0.006
	c-0.38,0.004-0.763,0.027-1.143,0.019C7.073,5.84,6.279,5.83,5.488,5.834C4.987,5.837,4.484,5.841,3.981,5.836
	C4.02,5.912,4.05,5.991,4.091,6.066c0.23,0.424,0.464,0.844,0.721,1.253c0.257,0.405,0.47,0.831,0.69,1.257
	c0.103,0.2,0.209,0.399,0.32,0.595C5.869,9.254,5.914,9.339,5.967,9.42c0.006,0.007,0.007,0.016,0.012,0.023
	c0.124,0.104,0.236,0.238,0.263,0.39C6.37,10.552,6.486,11.275,6.613,11.996z M22.903,18.305c0.049-0.256,0.094-0.513,0.14-0.769
	c-0.209-0.004-0.418-0.007-0.626,0c-0.171,0.004-0.34,0.009-0.51,0.008c-0.485-0.004-0.972-0.004-1.457-0.032
	c-0.586-0.036-1.172-0.036-1.757-0.048c-0.62-0.011-1.242-0.03-1.862-0.051c-0.765-0.025-1.529-0.019-2.294-0.025
	c-0.778-0.008-1.554-0.029-2.33-0.004c-0.369,0.013-0.74,0.01-1.109,0.021c-0.397,0.011-0.793,0.03-1.191,0.048
	c-0.767,0.031-1.532,0.113-2.3,0.143c0.01,0.056,0.019,0.111,0.029,0.167c0.135,0.787,0.27,1.575,0.422,2.36
	c0.146,0.744,0.312,1.487,0.422,2.237c0.114,0.766,0.236,1.529,0.371,2.292c0.085,0.47,0.178,0.94,0.288,1.406
	c0.795-0.012,1.59-0.002,2.383-0.026c0.485-0.013,0.97-0.004,1.455-0.002c0.415,0,0.829,0,1.244,0c0.691,0,1.382-0.026,2.073-0.026
	c0.081,0,0.163,0,0.244,0.001c0.394,0.006,0.785,0.029,1.177,0.036c0.321,0.006,0.641-0.002,0.962-0.004
	c0.538-0.006,1.075-0.004,1.613,0.01c0.156,0.004,0.314,0.002,0.47,0c0.118,0,0.236-0.002,0.356-0.002
	c0.051,0,0.102-0.006,0.153-0.007c0.05-0.219,0.107-0.434,0.162-0.653c0.07-0.281,0.143-0.563,0.186-0.85
	c0.036-0.245,0.061-0.494,0.124-0.734c0.181-0.671,0.354-1.345,0.5-2.025c0.165-0.78,0.3-1.563,0.439-2.349
	C22.749,19.052,22.832,18.679,22.903,18.305z M28.535,11.435c-0.036-0.229-0.083-0.455-0.158-0.676
	c-0.055-0.109-0.117-0.213-0.185-0.315c-0.022-0.024-0.044-0.047-0.067-0.07c-0.009-0.005-0.017-0.011-0.026-0.016
	c-0.049-0.015-0.1-0.027-0.15-0.037c-0.687-0.066-1.377-0.048-2.068-0.059c-0.068,0.301-0.135,0.602-0.19,0.905
	c-0.139,0.763-0.247,1.529-0.399,2.288c-0.152,0.772-0.312,1.542-0.477,2.313c-0.164,0.749-0.28,1.508-0.418,2.261
	c-0.034,0.185-0.073,0.369-0.109,0.553c0.068-0.002,0.136-0.004,0.204-0.008c0.278-0.017,0.555-0.049,0.833-0.055
	c0.213-0.006,0.428-0.008,0.641-0.004c0.279,0.005,0.554,0.041,0.83,0.079c0.182,0.018,0.365,0.011,0.547-0.006
	c0.163-0.03,0.325-0.073,0.481-0.129c0.097-0.049,0.189-0.107,0.278-0.169c0.013-0.044,0.023-0.089,0.031-0.134
	c0.016-0.163,0.024-0.326,0.041-0.488c0.023-0.209,0.054-0.417,0.085-0.624c0.047-0.407,0.086-0.819,0.109-1.23
	c0.029-0.481,0.004-0.966,0.025-1.447c0.021-0.515,0.086-1.027,0.152-1.537C28.603,12.37,28.578,11.897,28.535,11.435z"/>
</svg>