<?xml version="1.0" encoding="utf-8"?>
<!-- Generator: Adobe Illustrator 21.1.0, SVG Export Plug-In . SVG Version: 6.00 Build 0)  -->
<svg version="1.1" id="designs" xmlns="http://www.w3.org/2000/svg" xmlns:xlink="http://www.w3.org/1999/xlink" x="0px" y="0px"
	 width="32px" height="32px" viewBox="0 0 32 32" style="enable-background:new 0 0 32 32;" xml:space="preserve">
<style type="text/css">
	.sketchy_een{fill:#111918;}
</style>
<path class="sketchy_een" d="M28.989,26.08c-0.03-0.667-0.228-1.295-0.598-1.85c-0.308-0.459-0.623-0.909-0.911-1.382
	c-0.167-0.273-0.461-0.432-0.764-0.437c0.038-0.165,0.077-0.328,0.098-0.5c0.056-0.461-0.046-0.905-0.204-1.334
	c-0.167-0.455-0.389-0.84-0.685-1.219c-0.246-0.314-0.592-0.54-0.957-0.687c-0.313-0.127-0.652-0.156-0.988-0.164
	c0.168-0.276,0.346-0.544,0.492-0.832c0.189-0.371,0.336-0.772,0.463-1.167c0.125-0.383,0.268-0.76,0.403-1.14
	c0.125-0.354,0.21-0.719,0.31-1.078c0.109-0.403,0.212-0.804,0.292-1.211c0.071-0.373,0.145-0.745,0.199-1.12
	c0.064-0.455,0.07-0.903,0.062-1.36c-0.012-0.727-0.147-1.439-0.29-2.15c-0.071-0.346-0.171-0.689-0.264-1.029
	c-0.089-0.332-0.232-0.633-0.391-0.935c-0.163-0.308-0.397-0.57-0.621-0.832c-0.25-0.294-0.528-0.562-0.806-0.828
	c-0.258-0.246-0.546-0.457-0.818-0.687c-0.338-0.286-0.699-0.522-1.072-0.758c-0.272-0.173-0.542-0.345-0.83-0.49
	c-0.341-0.171-0.697-0.304-1.06-0.421c-0.739-0.236-1.483-0.453-2.265-0.467C17.712,2.001,17.642,2,17.572,2
	c-0.329,0-0.656,0.016-0.982,0.054c-0.234,0.028-0.461,0.064-0.687,0.127C15.701,2.239,15.5,2.3,15.298,2.362
	c-0.373,0.113-0.747,0.226-1.11,0.373c-0.411,0.169-0.804,0.361-1.199,0.566c-0.367,0.193-0.739,0.379-1.096,0.592
	c-0.377,0.224-0.725,0.496-1.042,0.8c-0.228,0.22-0.429,0.453-0.614,0.713c-0.147,0.208-0.24,0.463-0.324,0.703
	C9.852,6.291,9.846,6.495,9.828,6.686c-0.056,0.588,0.119,1.261,0.419,1.767c0.101,0.175,0.212,0.342,0.328,0.508
	c0.045,0.066,0.105,0.121,0.153,0.185c-0.04,0.062-0.077,0.126-0.121,0.186c-0.174,0.204-0.372,0.384-0.58,0.553
	c-0.34,0.245-0.732,0.429-1.098,0.631c-0.387,0.213-0.51,0.737-0.292,1.112c0.226,0.385,0.727,0.51,1.112,0.29
	c0.477-0.271,0.938-0.553,1.373-0.885c0.216-0.165,0.432-0.329,0.632-0.515c0.131-0.122,0.247-0.265,0.358-0.41
	c0.164,0.044,0.334,0.075,0.499,0.101c0.286,0.046,0.57,0.065,0.858,0.069c0.455,0.006,0.921-0.054,1.36-0.169
	c0.328-0.087,0.649-0.202,0.977-0.294c0.189-0.052,0.381-0.093,0.57-0.143c0.138-0.035,0.274-0.075,0.414-0.103
	c0.399-0.035,0.813-0.005,1.21,0.042c0.26,0.035,0.517,0.072,0.763,0.161c0.239,0.109,0.467,0.233,0.68,0.39
	c0.144,0.112,0.287,0.228,0.41,0.359c0.137,0.211,0.243,0.443,0.345,0.674c0.044,0.116,0.083,0.23,0.116,0.349
	c0.011,0.236-0.008,0.473-0.034,0.708c-0.084,0.471-0.23,0.922-0.403,1.368c-0.135,0.281-0.317,0.539-0.503,0.79
	c-0.052,0.059-0.107,0.114-0.16,0.172c-0.073-0.006-0.148-0.004-0.221-0.006c-0.212-0.004-0.427-0.022-0.639-0.032
	c-0.317-0.017-0.631-0.026-0.947-0.026c-0.086,0-0.172,0.001-0.259,0.002c-0.737,0.006-1.467,0.032-2.202,0.073
	c-0.725,0.042-1.451,0.014-2.176,0.042c-0.357,0.012-0.715,0.028-1.074,0.02c-0.389-0.008-0.778-0.026-1.167-0.036
	c-0.195-0.004-0.389-0.008-0.582-0.008c-0.048,0-0.09,0.019-0.136,0.027c-0.114-0.05-0.235-0.083-0.36-0.083
	c-0.148,0-0.297,0.037-0.43,0.118c-0.391,0.236-0.754,0.514-1.102,0.812c-0.276,0.236-0.496,0.532-0.695,0.834
	c-0.141,0.218-0.232,0.484-0.31,0.733c-0.073,0.228-0.097,0.465-0.127,0.705c-0.014,0.123-0.018,0.248-0.012,0.371
	c0.008,0.184,0.052,0.351,0.114,0.511c-0.182,0.028-0.341,0.102-0.489,0.227c-0.169,0.143-0.33,0.288-0.474,0.457
	c-0.157,0.183-0.298,0.381-0.439,0.58c-0.107,0.149-0.205,0.296-0.278,0.465c-0.101,0.232-0.183,0.465-0.25,0.709
	c-0.161,0.564-0.131,1.15-0.016,1.719c0.006,0.033,0.023,0.061,0.03,0.093c-0.178,0.019-0.379,0.083-0.487,0.22
	c-0.201,0.256-0.395,0.519-0.592,0.778c-0.148,0.187-0.302,0.37-0.428,0.573c-0.133,0.214-0.25,0.453-0.326,0.693
	c-0.097,0.304-0.123,0.629-0.135,0.945c-0.016,0.324-0.03,0.643,0.026,0.965c0.111,0.633,0.455,1.213,0.882,1.686
	c0.353,0.391,0.756,0.711,1.241,0.925c0.22,0.099,0.421,0.153,0.663,0.087c0.029-0.008,0.051-0.029,0.079-0.039
	c0.051,0.011,0.098,0.032,0.151,0.034c0.844,0.038,1.688,0.008,2.531,0.032c0.758,0.022,1.515,0.06,2.273,0.082
	c1.582,0.05,3.165,0.034,4.745,0.085c1.535,0.05,3.071,0.032,4.608,0.024c0.705-0.006,1.41-0.036,2.116-0.04
	c0.635-0.004,1.273-0.014,1.908,0.012c0.3,0.014,0.602,0.006,0.903,0c0.461-0.012,0.921-0.022,1.378,0.036
	c-0.037-0.005-0.074-0.01-0.111-0.015c0.07,0.009,0.14,0.018,0.21,0.027c0.214,0.03,0.469-0.109,0.614-0.252
	c0.002-0.002,0.003-0.005,0.005-0.007c0.014,0.001,0.027,0.008,0.042,0.008c0.349,0,0.602-0.187,0.796-0.457
	c0.34-0.473,0.768-0.983,0.848-1.574c0.038-0.272,0.075-0.544,0.087-0.818C29.014,26.624,29.003,26.352,28.989,26.08z
	 M26.264,24.226c-0.001,0-0.002,0-0.003,0C26.262,24.226,26.263,24.225,26.264,24.226C26.264,24.226,26.264,24.226,26.264,24.226z
	 M24.435,20.369c0.055,0.049,0.107,0.1,0.157,0.155c0.095,0.135,0.181,0.277,0.257,0.424c0.061,0.171,0.108,0.345,0.141,0.523
	c0.005,0.084,0.003,0.167-0.002,0.25c-0.015,0.08-0.033,0.159-0.055,0.237c-0.015,0.013-0.03,0.026-0.045,0.039
	c-0.142,0.119-0.213,0.312-0.248,0.502c-0.111-0.002-0.222-0.007-0.332-0.009c-0.213-0.003-0.427-0.004-0.641-0.004
	c-0.555,0-1.111,0.009-1.666,0.028c-0.788,0.024-1.576,0.008-2.365,0.032c-0.774,0.024-1.547,0.097-2.321,0.107
	c-0.272,0.004-0.544,0.004-0.816,0.004c-0.498-0.002-0.997-0.002-1.495,0.016c-0.806,0.028-1.612,0.065-2.42,0.06
	c-0.778-0.006-1.555-0.038-2.333-0.018c-0.816,0.02-1.628,0.091-2.446,0.099c-0.31,0.002-0.62-0.003-0.93-0.001
	c-0.022-0.031-0.04-0.063-0.065-0.093c-0.025-0.03-0.051-0.058-0.077-0.086c-0.014-0.022-0.027-0.045-0.04-0.068
	c-0.047-0.147-0.083-0.297-0.114-0.448c-0.01-0.142-0.008-0.283,0.002-0.424c0.039-0.215,0.096-0.423,0.171-0.627
	c0.081-0.157,0.19-0.295,0.296-0.436c0.169-0.195,0.351-0.367,0.551-0.533c0.276-0.002,0.553-0.005,0.829-0.011
	c0.568-0.012,1.136-0.024,1.703-0.004c0.844,0.03,1.688,0.032,2.531,0.032c0.457,0,0.913-0.002,1.368,0
	c0.407,0,0.814,0.036,1.221,0.054c0.854,0.034,1.707,0.044,2.565,0.048c0.5,0.004,1.001-0.006,1.503-0.008
	c0.272,0,0.544,0.002,0.818,0.004c0.272,0.002,0.544,0.004,0.818,0.002c0.52-0.002,1.04-0.014,1.562-0.012
	c0.463,0,0.934-0.024,1.396,0.02c0.144,0.024,0.29,0.052,0.429,0.092C24.375,20.331,24.405,20.349,24.435,20.369z M8.613,17.641
	c0.026-0.12,0.06-0.237,0.101-0.352c0.068-0.133,0.148-0.258,0.234-0.381c0.109-0.126,0.229-0.237,0.358-0.344
	c0.193-0.138,0.392-0.264,0.596-0.384c0.009-0.005,0.013-0.014,0.022-0.019c0.008,0,0.016,0.005,0.024,0.005
	c0.723-0.004,1.445,0,2.168,0.006c0.812,0.004,1.626,0.01,2.44,0c0.345-0.004,0.691-0.028,1.036-0.032
	c0.353-0.004,0.709-0.004,1.062-0.006c0.399-0.002,0.794-0.014,1.193,0.014c0.315,0.021,0.634,0.025,0.951,0.051
	c0.006,0.004,0.012,0.007,0.018,0.011c0.074,0.043,0.158,0.063,0.243,0.081c0.316,0.163,0.722,0.131,0.978-0.136
	c0.367-0.381,0.687-0.788,0.961-1.241c0.224-0.373,0.383-0.772,0.528-1.181c0.137-0.381,0.26-0.78,0.32-1.183
	c0.036-0.25,0.068-0.498,0.087-0.75c0.03-0.383-0.038-0.741-0.177-1.096c-0.151-0.381-0.326-0.776-0.542-1.124
	c-0.238-0.387-0.671-0.673-1.026-0.943c-0.427-0.324-0.943-0.58-1.475-0.657c-0.856-0.127-1.733-0.29-2.591-0.073
	C15.744,8,15.369,8.115,14.99,8.195c-0.348,0.072-0.688,0.175-1.036,0.236c-0.34,0.03-0.677,0.04-1.019,0.019
	c-0.181-0.03-0.359-0.068-0.534-0.125c-0.017-0.01-0.034-0.02-0.051-0.031c-0.117-0.103-0.222-0.216-0.322-0.337
	c-0.134-0.178-0.261-0.359-0.361-0.559c-0.053-0.145-0.097-0.296-0.129-0.447c-0.005-0.117-0.005-0.233,0.003-0.349
	c0.019-0.076,0.042-0.149,0.068-0.223c0.054-0.104,0.114-0.201,0.181-0.297c0.188-0.22,0.39-0.425,0.613-0.612
	c0.314-0.217,0.645-0.407,0.98-0.589c0.318-0.17,0.632-0.342,0.961-0.49c0.333-0.134,0.667-0.257,1.015-0.35
	c0.377-0.103,0.752-0.231,1.135-0.307c0.267-0.028,0.536-0.045,0.807-0.049c0.272-0.002,0.548-0.002,0.819,0.022
	c0.346,0.065,0.68,0.183,1.017,0.286c0.323,0.099,0.644,0.197,0.959,0.322c0.237,0.108,0.458,0.232,0.679,0.371
	c0.308,0.191,0.62,0.37,0.91,0.583c0.701,0.568,1.358,1.183,1.924,1.885c0.118,0.164,0.213,0.342,0.3,0.525
	c0.142,0.381,0.244,0.781,0.342,1.174c0.048,0.187,0.079,0.375,0.119,0.564c0.039,0.186,0.088,0.367,0.121,0.553
	c0.074,0.667,0.082,1.336,0.005,2.003c-0.126,0.814-0.278,1.624-0.507,2.418c-0.121,0.419-0.258,0.83-0.411,1.239
	c-0.133,0.354-0.25,0.712-0.389,1.062c-0.152,0.33-0.335,0.639-0.526,0.947c-0.166,0.266-0.305,0.552-0.473,0.816
	c-0.005,0.005-0.01,0.009-0.015,0.014c0.003-0.002,0.005-0.004,0.008-0.006c-0.018,0.016-0.027,0.038-0.043,0.055
	c-0.588,0.011-1.177,0.024-1.764,0.049c-1.642,0.069-3.288,0.121-4.93,0.05c-1.701-0.073-3.403-0.03-5.107-0.067
	c-0.488-0.012-0.976-0.019-1.464-0.029c-0.016-0.218-0.098-0.464-0.264-0.602c-0.003-0.003-0.006-0.005-0.009-0.008
	C8.601,17.821,8.605,17.731,8.613,17.641z M25.467,28.277c-0.163,0.008-0.326-0.002-0.486-0.004c-0.145,0-0.29,0.008-0.435,0.01
	c-0.59,0.002-1.179,0.002-1.771,0.01c-1.41,0.024-2.819,0.06-4.231,0.095c-1.59,0.042-3.183,0.024-4.775-0.012
	c-0.782-0.016-1.565-0.008-2.349-0.024c-0.792-0.018-1.582-0.056-2.375-0.085c-0.461-0.016-0.921-0.02-1.38-0.034
	c-0.54-0.014-1.08-0.052-1.618-0.085c-0.014-0.001-0.028-0.001-0.042-0.001c-0.028,0-0.051,0.015-0.078,0.018
	c-0.039-0.019-0.068-0.05-0.11-0.063c-0.015-0.005-0.03-0.01-0.045-0.015c-0.086-0.042-0.168-0.088-0.247-0.14
	c-0.185-0.161-0.357-0.333-0.515-0.518C4.916,27.292,4.831,27.149,4.758,27c-0.035-0.114-0.064-0.231-0.086-0.349
	c-0.024-0.296-0.006-0.602,0.026-0.897c0.016-0.095,0.037-0.189,0.067-0.281c0.123-0.243,0.276-0.466,0.439-0.684
	c0.107-0.136,0.217-0.27,0.327-0.404c0.784,0.004,1.568-0.032,2.352-0.036c0.417-0.002,0.832-0.002,1.249-0.018
	c0.407-0.018,0.81-0.036,1.217-0.04c0.403-0.002,0.806,0.004,1.209,0.012c0.381,0.006,0.764,0.012,1.148,0.01
	c0.796-0.004,1.592-0.06,2.39-0.063c0.318,0,0.637,0.002,0.957,0.004c0.465,0.002,0.931,0.006,1.398-0.004
	c0.754-0.012,1.509-0.077,2.263-0.083c1.563-0.014,3.125-0.012,4.686-0.016c0.254-0.002,0.508,0.002,0.764,0.006
	c0.241,0.003,0.484,0,0.724,0.021c0.125,0.019,0.251,0.033,0.377,0.049c0.277,0.389,0.567,0.773,0.774,1.2
	c0.047,0.135,0.083,0.272,0.11,0.412c0.036,0.427,0.033,0.864-0.009,1.289c-0.019,0.117-0.044,0.229-0.08,0.343
	c-0.098,0.204-0.21,0.399-0.34,0.583c-0.033,0.039-0.067,0.079-0.102,0.117c-0.029,0.033-0.043,0.073-0.068,0.108
	c-0.029,0.001-0.056,0-0.085,0.003c-0.171,0.011-0.34,0.006-0.509-0.001C25.793,28.275,25.628,28.269,25.467,28.277z M15.098,6.269
	c0,0.391-0.326,0.717-0.717,0.717s-0.717-0.326-0.717-0.717s0.326-0.717,0.717-0.717S15.098,5.878,15.098,6.269z M11.025,11.111
	c0.033-0.025,0.064-0.053,0.097-0.079c0.022-0.016,0.045-0.03,0.066-0.046C11.135,11.028,11.079,11.07,11.025,11.111z"/>
</svg>