<?xml version="1.0" encoding="utf-8"?>
<!-- Generator: Adobe Illustrator 21.1.0, SVG Export Plug-In . SVG Version: 6.00 Build 0)  -->
<svg version="1.1" id="designs" xmlns="http://www.w3.org/2000/svg" xmlns:xlink="http://www.w3.org/1999/xlink" x="0px" y="0px"
	 width="32px" height="32px" viewBox="0 0 32 32" style="enable-background:new 0 0 32 32;" xml:space="preserve">
<style type="text/css">
	.sketchy_een{fill:#111918;}
</style>
<path class="sketchy_een" d="M25.799,28.537c-0.02-0.621-0.029-1.242-0.046-1.864c-0.019-0.738-0.066-1.479-0.1-2.217
	c-0.033-0.765-0.091-1.527-0.156-2.29c-0.068-0.773-0.125-1.546-0.195-2.319c-0.077-0.871-0.204-1.727-0.414-2.576
	c-0.1-0.399-0.191-0.8-0.295-1.197c-0.116-0.43-0.291-0.843-0.467-1.251c-0.308-0.711-0.644-1.394-1.097-2.026
	c-0.469-0.654-0.974-1.28-1.531-1.859c-0.374-0.389-0.798-0.746-1.244-1.049c-0.37-0.249-0.736-0.494-1.137-0.692
	c-0.222-0.111-0.458-0.195-0.699-0.268c-0.016-0.217-0.033-0.434-0.051-0.651c-0.025-0.313-0.06-0.625-0.093-0.938
	c0.034,0.001,0.067,0,0.1,0.001c0.096,0.002,0.193,0.002,0.291,0c0.158,0,0.316-0.002,0.476,0.006
	c0.201,0.01,0.407,0.021,0.609,0.01c0.436-0.027,0.802-0.345,0.802-0.804c0-0.172-0.068-0.325-0.164-0.457
	c0.074-0.12,0.12-0.25,0.132-0.4c0.019-0.216,0.01-0.436,0.006-0.654c-0.002-0.204-0.006-0.409-0.015-0.613
	c-0.026-0.523-0.107-1.033-0.225-1.543c-0.005-0.132-0.031-0.261-0.099-0.377c-0.071-0.12-0.166-0.216-0.287-0.287
	c-0.125-0.073-0.26-0.11-0.407-0.11c-0.185-0.025-0.378-0.013-0.565-0.021c-0.168-0.006-0.335-0.012-0.503-0.015
	c-0.389-0.012-0.777-0.019-1.166-0.029C16.521,2.026,15.786,2,15.048,2c-0.071,0-0.143,0-0.214,0.001
	c-1.639,0.012-3.276,0.05-4.914,0.056c-0.337,0.002-0.673,0-1.01-0.002C8.478,2.053,8.046,2.051,7.614,2.053
	C7.421,2.054,7.249,2.132,7.108,2.247C7.023,2.216,6.935,2.192,6.843,2.192c-0.442,0-0.79,0.362-0.798,0.798
	c-0.01,0.467-0.01,0.935-0.021,1.402c-0.003,0.114,0.025,0.222,0.07,0.321C6.08,5.072,6.298,5.428,6.66,5.518
	c0.829,0.206,1.664,0.386,2.491,0.603c0.397,0.104,0.789,0.226,1.184,0.337c0.378,0.106,0.756,0.208,1.13,0.326
	c0.351,0.11,0.698,0.227,1.047,0.347c0.383,0.132,0.778,0.163,1.18,0.171c0.024,0.332,0.051,0.664,0.083,0.996
	c-0.006,0.001-0.011,0.001-0.017,0.002c-0.844,0.15-1.646,0.501-2.383,0.931c-0.393,0.227-0.785,0.501-1.095,0.835
	c-0.33,0.353-0.634,0.727-0.914,1.118c-0.241,0.337-0.424,0.715-0.6,1.089c-0.206,0.44-0.399,0.891-0.565,1.348
	c-0.297,0.819-0.445,1.699-0.596,2.555c-0.164,0.927-0.28,1.86-0.324,2.801c-0.042,0.887-0.1,1.776-0.108,2.664
	c-0.01,0.898,0,1.797,0,2.695c0,0.796-0.021,1.592-0.017,2.391c0.002,0.38-0.002,0.762-0.006,1.143
	c-0.001,0.212-0.011,0.424-0.016,0.637c-0.163,0.148-0.27,0.355-0.27,0.589c0,0.436,0.366,0.812,0.806,0.806
	c0.816-0.012,1.631-0.031,2.447-0.05c0.814-0.019,1.625-0.006,2.439,0.013c0.775,0.017,1.548,0.073,2.323,0.096
	c0.781,0.023,1.564,0.01,2.344,0.006c1.348-0.004,2.699-0.008,4.047,0.015c0.659,0.012,1.319,0.019,1.978,0.015
	c0.634-0.006,1.274-0.071,1.903-0.15c0.229-0.029,0.414-0.071,0.584-0.241c0.154-0.154,0.243-0.366,0.243-0.584
	C25.977,28.844,25.905,28.678,25.799,28.537z M13.358,5.703c-0.441-0.078-0.866-0.22-1.294-0.349
	c-0.53-0.16-1.064-0.301-1.598-0.447C9.513,4.644,8.561,4.383,7.607,4.128c0.004-0.147,0.008-0.293,0.013-0.44
	c0.896-0.015,1.791-0.035,2.685-0.071c0.821-0.035,1.645-0.039,2.466-0.05c0.833-0.013,1.666-0.021,2.501-0.023
	c0.794-0.004,1.587,0.027,2.381,0.062c0.299,0.015,0.598,0.035,0.898,0.052c0.111,0.007,0.222,0.012,0.334,0.016
	c0.033,0.149,0.072,0.297,0.096,0.448c0.023,0.224,0.035,0.447,0.04,0.673c0.006,0.299,0.021,0.603-0.008,0.9
	c-0.001,0.016,0.009,0.032,0.009,0.049c-0.097-0.001-0.194-0.001-0.291-0.002c-0.544-0.01-1.087,0.027-1.631,0.033
	c-0.627,0.008-1.251,0.004-1.878,0C14.601,5.772,13.979,5.757,13.358,5.703z M16.877,8.461c-0.051-0.018-0.102-0.036-0.153-0.055
	c-0.068-0.034-0.138-0.059-0.211-0.075c-0.046-0.017-0.092-0.032-0.138-0.049c-0.067-0.025-0.135-0.036-0.203-0.036
	c-0.065,0-0.128,0.017-0.19,0.036c-0.237-0.023-0.475-0.043-0.714-0.051c-0.022-0.305-0.041-0.61-0.06-0.915
	c0.314,0.002,0.629,0.007,0.942,0.005c0.199-0.002,0.397,0.004,0.595,0.005C16.791,7.705,16.835,8.083,16.877,8.461z M9.971,13.843
	c0.283-0.646,0.588-1.282,1.001-1.856c0.261-0.317,0.536-0.621,0.848-0.889c0.416-0.293,0.869-0.516,1.334-0.727
	c0.401-0.156,0.825-0.285,1.249-0.357c0.435-0.043,0.875-0.035,1.31,0.003c0.108,0.009,0.219,0.014,0.325,0.035
	c0.112,0.022,0.239,0.044,0.352,0.033c0.117-0.011,0.23-0.046,0.334-0.099c0.036,0.013,0.072,0.024,0.107,0.037
	c0.1,0.044,0.201,0.086,0.306,0.118c0.112,0.037,0.224,0.067,0.335,0.104c0.248,0.082,0.497,0.156,0.739,0.249
	c0.49,0.229,0.939,0.555,1.376,0.874c0.565,0.462,1.08,0.986,1.534,1.557c0.349,0.462,0.701,0.918,0.996,1.419
	c0.271,0.456,0.492,0.944,0.701,1.432c0.094,0.238,0.17,0.48,0.242,0.724c-0.06,0-0.121,0.002-0.181,0
	c-0.341-0.006-0.682-0.012-1.022-0.019c-0.777-0.015-1.55-0.029-2.325-0.033c-0.792-0.004-1.581-0.039-2.373-0.044
	c-0.058,0-0.116,0-0.174,0c-0.702,0-1.404,0.02-2.105,0.026c-0.958,0.006-1.916,0.004-2.873,0.008
	c-0.919,0.005-1.836,0.03-2.753,0.051C9.416,15.585,9.632,14.69,9.971,13.843z M24.204,28.299c-1.28,0.114-2.569,0.116-3.854,0.122
	c-1.573,0.006-3.145,0.006-4.716-0.006c-1.319-0.012-2.637-0.085-3.956-0.108c-0.388-0.008-0.775-0.004-1.163,0
	c-0.274,0.002-0.548,0.004-0.819,0.002c-0.292-0.001-0.583-0.004-0.874-0.008c-0.001-0.165-0.003-0.33-0.001-0.494
	c0.006-0.391,0.012-0.783,0.013-1.174c0.002-0.852-0.021-1.702-0.021-2.555c-0.002-0.9-0.006-1.803,0.021-2.705
	c0.025-0.895,0.096-1.787,0.147-2.68c0.012-0.198,0.038-0.395,0.057-0.592c1.734-0.055,3.465-0.169,5.201-0.173
	c1.589-0.002,3.179,0.023,4.766,0.087c0.868,0.035,1.739,0.056,2.61,0.075c0.378,0.008,0.758,0.013,1.138,0.023
	c0.237,0.007,0.479,0.013,0.719,0.006c0.077,0.346,0.149,0.693,0.203,1.045c0.096,0.762,0.156,1.529,0.235,2.294
	c0.077,0.769,0.148,1.539,0.195,2.312c0.089,1.457,0.121,2.917,0.104,4.376C24.208,28.198,24.205,28.249,24.204,28.299z"/>
</svg>