<?xml version="1.0" encoding="utf-8"?>
<!-- Generator: Adobe Illustrator 21.1.0, SVG Export Plug-In . SVG Version: 6.00 Build 0)  -->
<svg version="1.1" id="designs" xmlns="http://www.w3.org/2000/svg" xmlns:xlink="http://www.w3.org/1999/xlink" x="0px" y="0px"
	 width="32px" height="32px" viewBox="0 0 32 32" style="enable-background:new 0 0 32 32;" xml:space="preserve">
<style type="text/css">
	.sketchy_een{fill:#111918;}
</style>
<path class="sketchy_een" d="M26.053,21.496c0.002-0.371,0.002-0.742,0.006-1.111c0.01-1.466-0.022-2.93-0.029-4.397
	c-0.01-1.523-0.078-3.042-0.122-4.565c-0.02-0.659-0.051-1.317-0.08-1.977c-0.031-0.681-0.12-1.356-0.149-2.037
	c-0.061-1.437,0.012-2.873,0.029-4.31c0.006-0.465-0.391-0.852-0.852-0.852c-0.085,0-0.163,0.026-0.24,0.05
	c-0.138-0.111-0.305-0.188-0.493-0.188c-0.732,0-1.46-0.071-2.192-0.092C21.484,2.003,21.038,2,20.593,2
	c-0.345,0-0.69,0.002-1.036,0.003C18.77,2.005,17.985,2.02,17.2,2.042c-0.797,0.02-1.59,0.061-2.385,0.106
	c-1.244,0.073-2.489,0.077-3.735,0.1c-0.448,0.01-0.895,0.01-1.343,0.01c-0.815,0-1.631,0-2.444,0.059
	C7.062,2.335,6.86,2.397,6.691,2.566C6.559,2.698,6.489,2.874,6.464,3.058c-0.087,0.131-0.15,0.278-0.15,0.445
	c0.006,0.901,0.02,1.8-0.002,2.701c-0.024,0.911-0.028,1.821-0.045,2.73c-0.014,0.817-0.033,1.635-0.039,2.451
	c-0.008,0.799-0.006,1.598-0.022,2.398c-0.016,0.817-0.022,1.633-0.027,2.451c-0.004,0.781-0.041,1.56-0.057,2.342
	c-0.018,0.864-0.051,1.725-0.065,2.587c-0.014,0.797-0.053,1.594-0.075,2.391c-0.014,0.524-0.024,1.048-0.033,1.572
	c-0.008,0.436,0.004,0.87,0,1.305c-0.012,0.909,0.016,1.819-0.01,2.728C5.926,29.617,6.33,30,6.778,30
	c0.107,0,0.208-0.025,0.303-0.063c0.266,0.099,0.589,0.058,0.786-0.161c0.406-0.453,0.813-0.905,1.231-1.346
	c0.487-0.514,0.975-1.025,1.445-1.555c1.025-1.154,2.082-2.283,3.133-3.415c0.381-0.408,0.738-0.836,1.125-1.24
	c0.297-0.31,0.6-0.614,0.901-0.92c0.478,0.518,0.967,1.028,1.488,1.506c0.581,0.534,1.142,1.087,1.69,1.655
	c0.267,0.277,0.524,0.563,0.795,0.838c0.269,0.275,0.542,0.544,0.809,0.82c0.538,0.555,1.078,1.105,1.608,1.666
	c0.308,0.328,0.62,0.646,0.952,0.948c0.183,0.167,0.369,0.33,0.557,0.491c0.146,0.126,0.292,0.251,0.415,0.4
	c0.002,0.003,0.004,0.005,0.006,0.008c0.006,0.007,0.011,0.013,0.016,0.02c0-0.001-0.001-0.001-0.001-0.002
	c0.105,0.126,0.223,0.222,0.396,0.269c0.175,0.05,0.36,0.023,0.525-0.052c0.095,0.04,0.197,0.063,0.3,0.063
	c0.432,0,0.803-0.363,0.799-0.799c-0.006-0.707-0.008-1.413-0.014-2.12c-0.008-0.752-0.033-1.503-0.049-2.255
	c-0.014-0.703,0.004-1.407,0.026-2.11C26.028,22.263,26.051,21.878,26.053,21.496z M23.843,27.392
	c-0.491-0.457-0.938-0.962-1.401-1.448c-1.068-1.127-2.139-2.249-3.235-3.348c-0.218-0.22-0.442-0.436-0.665-0.65
	c-0.208-0.198-0.424-0.389-0.62-0.599c-0.469-0.5-0.924-1.013-1.372-1.535c-0.079-0.093-0.181-0.151-0.291-0.189
	c-0.006-0.006-0.007-0.014-0.013-0.02c-0.155-0.155-0.363-0.233-0.571-0.233c-0.207,0-0.414,0.077-0.567,0.233
	c-0.607,0.618-1.193,1.252-1.755,1.91c-0.489,0.577-0.997,1.133-1.5,1.698c-1.007,1.136-2,2.289-3.046,3.392
	C8.459,26.97,8.11,27.335,7.77,27.711c-0.051,0.056-0.105,0.11-0.156,0.167c0-0.848,0-1.695-0.003-2.542
	c-0.004-1.555,0.075-3.109,0.108-4.662c0.02-0.85,0.049-1.698,0.077-2.546c0.027-0.813,0.035-1.623,0.049-2.436
	c0.029-1.594,0.043-3.186,0.029-4.779c-0.01-1.207,0.029-2.412,0.041-3.617c0.01-1.11,0.04-2.218,0.053-3.326
	c0.629-0.044,1.258-0.078,1.89-0.084c0.83-0.008,1.659-0.033,2.487-0.043c1.651-0.024,3.295-0.177,4.946-0.216
	c0.807-0.02,1.617-0.018,2.426-0.018c0.351,0.002,0.705,0.002,1.056,0c0.573-0.002,1.146-0.02,1.719,0.016
	c0.507,0.033,1.014,0.06,1.52,0.084c0.006,0.698,0.018,1.396,0.026,2.095c0.008,0.848,0.027,1.696,0.102,2.54
	c0.077,0.84,0.122,1.68,0.147,2.524c0.022,0.762,0.061,1.521,0.084,2.283c0.022,0.758,0.045,1.517,0.057,2.277
	c0.01,0.736,0,1.47,0.02,2.206c0.02,0.73,0.014,1.462,0.008,2.194c-0.006,0.767,0.014,1.531-0.022,2.298
	c-0.051,1.148-0.041,2.306,0.008,3.456c0.028,0.608,0.028,1.217,0.028,1.825c0.001,0.187-0.001,0.373-0.003,0.559
	C24.256,27.78,24.052,27.585,23.843,27.392z M23.316,21.175c0.039,0.587,0.088,1.174,0.124,1.761c0.026,0.402-0.355,0.74-0.74,0.74
	c-0.422,0-0.72-0.338-0.742-0.74c-0.028-0.5-0.059-0.997-0.102-1.496c-0.065-0.712-0.08-1.429-0.12-2.143
	c-0.045-0.791-0.12-1.58-0.161-2.369c-0.045-0.826-0.049-1.651-0.075-2.477c-0.027-0.871-0.079-1.739-0.137-2.608
	c-0.029-0.442,0.393-0.811,0.811-0.811c0.461,0,0.785,0.369,0.811,0.811c0.045,0.797,0.065,1.592,0.069,2.389
	c0.004,0.793-0.033,1.584,0.002,2.375c0.035,0.791,0.104,1.582,0.151,2.373C23.249,19.711,23.267,20.443,23.316,21.175z"/>
</svg>