<?xml version="1.0" encoding="utf-8"?>
<!-- Generator: Adobe Illustrator 21.1.0, SVG Export Plug-In . SVG Version: 6.00 Build 0)  -->
<svg version="1.1" id="designs" xmlns="http://www.w3.org/2000/svg" xmlns:xlink="http://www.w3.org/1999/xlink" x="0px" y="0px"
	 width="32px" height="32px" viewBox="0 0 32 32" style="enable-background:new 0 0 32 32;" xml:space="preserve">
<style type="text/css">
	.sketchy_een{fill:#111918;}
</style>
<path class="sketchy_een" d="M28.942,14.488c-0.065-0.433-0.175-0.846-0.304-1.265c-0.125-0.406-0.275-0.804-0.427-1.198
	c-0.163-0.417-0.331-0.846-0.548-1.24c-0.19-0.344-0.4-0.667-0.658-0.969c-0.146-0.173-0.294-0.344-0.448-0.508
	c-0.3-0.321-0.602-0.636-0.9-0.959c-0.281-0.306-0.542-0.627-0.836-0.919c-0.286-0.285-0.594-0.558-0.913-0.806
	c-0.371-0.288-0.75-0.611-1.165-0.836c-0.383-0.208-0.779-0.386-1.173-0.571c-0.623-0.29-1.234-0.608-1.861-0.892
	c-0.367-0.169-0.746-0.311-1.133-0.431c-0.169-0.052-0.338-0.104-0.508-0.156c-0.371-0.113-0.759-0.165-1.148-0.171
	c-0.001,0-0.001,0-0.001,0c-0.15-0.235-0.417-0.385-0.716-0.402c-0.231-0.012-0.462-0.017-0.694-0.017
	c-0.666,0-1.336,0.044-1.997,0.106c-0.483,0.044-0.967,0.152-1.438,0.267c-0.483,0.117-0.936,0.306-1.388,0.511
	c-0.369,0.171-0.725,0.396-1.065,0.619C9.206,4.923,8.814,5.227,8.437,5.55c-0.638,0.548-1.198,1.177-1.74,1.817
	c-0.31,0.361-0.613,0.727-0.896,1.109C5.534,8.838,5.289,9.212,5.053,9.591c-0.486,0.781-0.875,1.6-1.227,2.448
	c-0.161,0.396-0.302,0.796-0.425,1.204c-0.129,0.427-0.2,0.869-0.262,1.309c-0.129,0.894-0.161,1.813-0.127,2.715
	c0.033,0.863,0.173,1.721,0.394,2.555c0.238,0.9,0.575,1.761,0.959,2.607c0.371,0.817,0.886,1.579,1.475,2.253
	c0.613,0.706,1.354,1.277,2.126,1.798c0.694,0.469,1.425,0.896,2.177,1.267c0.411,0.202,0.85,0.356,1.284,0.498
	c0.406,0.135,0.833,0.204,1.254,0.275c0.46,0.079,0.921,0.15,1.384,0.208c0.431,0.052,0.865,0.071,1.298,0.096
	c0.89,0.056,1.782,0.033,2.665-0.115c0.406-0.069,0.806-0.165,1.207-0.248c0.404-0.083,0.806-0.163,1.206-0.26
	c0.465-0.112,0.919-0.31,1.348-0.519c0.385-0.186,0.752-0.398,1.106-0.636c0.727-0.492,1.384-1.086,1.988-1.723
	c0.59-0.625,1.088-1.323,1.584-2.027c0.252-0.356,0.494-0.721,0.727-1.09c0.219-0.346,0.398-0.719,0.573-1.088
	c0.208-0.438,0.398-0.884,0.581-1.332c0.161-0.396,0.25-0.815,0.335-1.232c0.173-0.867,0.246-1.761,0.298-2.644
	C29.008,15.43,29.015,14.961,28.942,14.488z M26.7,12.405c0.308,0.77,0.592,1.553,0.739,2.369c0.052,0.567,0.034,1.137-0.012,1.704
	c-0.249-0.24-0.489-0.49-0.706-0.761c-0.366-0.458-0.733-0.917-1.112-1.367c0.158-0.543,0.27-1.102,0.394-1.655
	c0.091-0.403,0.165-0.809,0.234-1.217C26.408,11.779,26.562,12.087,26.7,12.405z M20.784,6.563c0.35,0.171,0.704,0.333,1.042,0.523
	c0.316,0.175,0.607,0.388,0.896,0.605c0.281,0.225,0.55,0.462,0.812,0.708c0.288,0.269,0.546,0.563,0.808,0.859
	c0.169,0.192,0.347,0.376,0.524,0.562c-0.083,0.095-0.148,0.206-0.163,0.318c-0.174,1.213-0.377,2.421-0.709,3.601
	c-0.442,0.168-0.887,0.328-1.33,0.489c-0.494,0.178-0.992,0.347-1.49,0.516c-0.026-0.176-0.09-0.363-0.222-0.472
	c-0.356-0.288-0.681-0.611-1.038-0.902c-0.315-0.256-0.631-0.515-0.948-0.771c-0.777-0.621-1.5-1.292-2.157-2.038
	c-0.15-0.17-0.365-0.249-0.583-0.249c-0.011,0-0.021,0.006-0.032,0.006c-0.009-0.331-0.018-0.662-0.028-0.993
	c-0.015-0.469-0.025-0.938-0.034-1.407c0.561-0.32,1.122-0.639,1.693-0.945c0.486-0.262,0.986-0.494,1.484-0.729
	c0.11-0.052,0.196-0.152,0.265-0.263C19.977,6.175,20.382,6.367,20.784,6.563z M19.006,17.633c-0.304,0.473-0.613,0.942-0.921,1.413
	c-0.014,0-0.026-0.008-0.04-0.007c-0.813,0.065-1.634-0.015-2.446-0.062c-0.691-0.039-1.383-0.046-2.075-0.054
	c-0.002-0.003-0.001-0.007-0.003-0.009c-0.171-0.224-0.288-0.477-0.399-0.734c-0.205-0.496-0.408-0.988-0.562-1.504
	c-0.145-0.481-0.291-0.964-0.438-1.445c0.608-0.56,1.265-1.061,1.89-1.602c0.618-0.534,1.244-1.059,1.874-1.58
	c0.592,0.62,1.23,1.19,1.894,1.734c0.315,0.258,0.619,0.529,0.934,0.788c0.41,0.336,0.788,0.709,1.217,1.025
	c0.017,0.013,0.04,0.014,0.059,0.025c-0.023,0.116-0.024,0.237,0.005,0.362C19.694,16.552,19.354,17.094,19.006,17.633z
	 M10.182,21.099c-0.329-0.086-0.665-0.131-1.003-0.176c-0.427-0.058-0.854-0.119-1.281-0.175c-0.763-0.098-1.542-0.124-2.313-0.124
	c-0.019,0-0.037,0-0.056,0c-0.355-0.944-0.635-1.915-0.786-2.913c-0.043-0.489-0.068-0.976-0.059-1.467
	c0.002-0.155,0.02-0.309,0.028-0.464c0.018,0.006,0.031,0.02,0.049,0.024c0.198,0.056,0.488,0.046,0.661-0.087
	c0.615-0.467,1.229-0.938,1.848-1.404c0.233-0.177,0.467-0.354,0.711-0.511c0.147-0.096,0.302-0.17,0.456-0.248
	c0.18,0.127,0.356,0.26,0.54,0.382c0.332,0.224,0.675,0.433,1.003,0.661c0.003,0.002,0.005,0.004,0.008,0.006
	c0.1,0.083,0.202,0.146,0.312,0.191c-0.048,0.154-0.068,0.315-0.018,0.476c0.244,0.781,0.473,1.571,0.746,2.342
	c0.131,0.367,0.283,0.725,0.425,1.088c0.085,0.214,0.171,0.433,0.271,0.644C11.217,19.934,10.699,20.516,10.182,21.099z
	 M16.205,4.844c0.045,0.003,0.089,0.001,0.132-0.004c0.142,0.164,0.353,0.267,0.585,0.274c0.089,0.003,0.176,0.007,0.263,0.014
	c0.156,0.029,0.309,0.07,0.461,0.113c-0.203,0.096-0.411,0.185-0.61,0.289c-0.559,0.289-1.108,0.594-1.655,0.903
	c-0.068-0.153-0.167-0.293-0.321-0.376c-0.213-0.115-0.408-0.252-0.601-0.398c-0.298-0.242-0.578-0.497-0.845-0.769
	C14.475,4.82,15.344,4.792,16.205,4.844z M10.001,6.416c0.555-0.399,1.132-0.745,1.751-1.036c0.024-0.009,0.048-0.015,0.072-0.024
	c0.28,0.494,0.729,0.897,1.165,1.25c0.39,0.317,0.783,0.656,1.229,0.892c0.075,0.04,0.154,0.057,0.234,0.075
	c0.016,0.589,0.038,1.177,0.064,1.766c0.015,0.319,0.029,0.64,0.04,0.959c0.004,0.138,0.008,0.277,0.008,0.415
	c0,0.046-0.001,0.092-0.001,0.138c-0.6,0.508-1.195,1.022-1.776,1.553c-0.3,0.275-0.606,0.54-0.921,0.8
	c-0.167,0.137-0.334,0.274-0.502,0.41c-0.041-0.087-0.086-0.173-0.154-0.228c-0.409-0.323-0.852-0.592-1.279-0.89
	c-0.338-0.234-0.667-0.48-0.997-0.725c-0.054-0.467-0.111-0.934-0.158-1.402c-0.035-0.333-0.069-0.665-0.094-0.998
	c-0.025-0.331-0.06-0.667-0.033-0.998c0.016-0.191-0.064-0.361-0.179-0.505c0.037-0.04,0.069-0.084,0.106-0.123
	C9.017,7.265,9.493,6.826,10.001,6.416z M5.486,12.315c0.233-0.518,0.48-1.029,0.772-1.52c0.222-0.372,0.471-0.727,0.717-1.083
	c0.013,0.198,0.026,0.397,0.041,0.596c0.051,0.662,0.123,1.323,0.195,1.985c-0.006,0.004-0.013,0.006-0.019,0.01
	c-0.248,0.156-0.488,0.323-0.723,0.498c-0.519,0.382-1.032,0.771-1.546,1.159C5.062,13.397,5.267,12.851,5.486,12.315z M9.715,25.45
	c-0.513-0.306-1.01-0.633-1.489-0.99c-0.254-0.204-0.506-0.41-0.735-0.643c-0.225-0.229-0.433-0.467-0.635-0.716
	c-0.166-0.232-0.313-0.475-0.463-0.717c0.316,0.006,0.632,0.016,0.946,0.038c0.569,0.039,1.136,0.105,1.703,0.177
	c0.151,0.023,0.3,0.057,0.449,0.087c0.035,0.063,0.066,0.127,0.121,0.182c0.026,0.026,0.061,0.038,0.091,0.059
	c0.222,0.552,0.449,1.102,0.663,1.658c0.194,0.506,0.37,1.019,0.557,1.528C10.513,25.907,10.112,25.684,9.715,25.45z M17.58,27.048
	c-0.588,0.067-1.19,0.083-1.779,0.047c-0.623-0.037-1.247-0.087-1.867-0.165c-0.407-0.063-0.81-0.137-1.213-0.216
	c0.08-0.18,0.124-0.402,0.056-0.581c-0.492-1.3-0.999-2.595-1.498-3.893c0.501-0.573,1.003-1.147,1.494-1.728
	c0.057,0.013,0.11,0.035,0.17,0.036c0.886,0.008,1.771,0.004,2.657,0.012c0.737,0.007,1.474,0.071,2.211,0.03
	c0.039,0.124,0.098,0.243,0.193,0.342c0.436,0.45,0.902,0.867,1.367,1.286c0.373,0.339,0.754,0.667,1.137,0.995
	c-0.208,0.432-0.416,0.865-0.629,1.296c-0.35,0.711-0.731,1.407-1.115,2.103c-0.042,0.075-0.059,0.157-0.078,0.237
	C18.317,26.919,17.95,26.991,17.58,27.048z M22.615,25.309c-0.25,0.19-0.506,0.373-0.777,0.531
	c-0.296,0.172-0.602,0.319-0.912,0.462c-0.028,0.011-0.057,0.018-0.084,0.029c0.164-0.324,0.34-0.641,0.494-0.971
	c0.242-0.517,0.477-1.037,0.727-1.55c0.523-0.018,1.044-0.032,1.568-0.019c0.184,0.004,0.369,0.007,0.554,0.012
	C23.703,24.348,23.182,24.855,22.615,25.309z M27.143,18.532c-0.088,0.38-0.205,0.742-0.346,1.104
	c-0.049,0.116-0.098,0.232-0.146,0.347c0.025-0.06,0.05-0.119,0.075-0.179c-0.306,0.686-0.629,1.359-1.04,1.99
	c-0.088,0.135-0.19,0.259-0.281,0.392c-0.02-0.002-0.038-0.012-0.058-0.012c-0.558-0.01-1.113-0.038-1.669-0.065
	c-0.375-0.017-0.749-0.025-1.122-0.025c-0.263,0-0.525,0.005-0.789,0.013c-0.413-0.334-0.818-0.676-1.207-1.04
	c-0.376-0.353-0.745-0.71-1.108-1.075c0.696-1.082,1.396-2.167,1.998-3.304c0.037-0.069,0.052-0.143,0.069-0.217
	c0.536-0.186,1.071-0.376,1.6-0.585c0.411-0.162,0.827-0.315,1.239-0.477c0.005,0.006,0.007,0.012,0.012,0.018
	c0.41,0.475,0.807,0.961,1.213,1.442c0.169,0.2,0.348,0.392,0.533,0.579c0.248,0.25,0.517,0.461,0.796,0.677
	c0.091,0.053,0.192,0.065,0.292,0.079C27.181,18.307,27.168,18.421,27.143,18.532z"/>
</svg>