<?xml version="1.0" encoding="utf-8"?>
<!-- Generator: Adobe Illustrator 21.1.0, SVG Export Plug-In . SVG Version: 6.00 Build 0)  -->
<svg version="1.1" id="designs" xmlns="http://www.w3.org/2000/svg" xmlns:xlink="http://www.w3.org/1999/xlink" x="0px" y="0px"
	 width="32px" height="32px" viewBox="0 0 32 32" style="enable-background:new 0 0 32 32;" xml:space="preserve">
<style type="text/css">
	.sketchy_een{fill:#111918;}
</style>
<path class="sketchy_een" d="M16.909,28.341c-0.198,0-0.401-0.031-0.592-0.064c-0.158-0.028-0.291-0.065-0.418-0.118
	c-0.269-0.111-0.471-0.215-0.713-0.417c-0.09-0.074-0.177-0.164-0.259-0.268c-0.331-0.42-0.531-0.791-0.646-1.202
	c-0.03-0.106-0.052-0.215-0.075-0.324l-0.067-0.3l-0.105,0.111c-0.066,0.069-0.131,0.138-0.202,0.202
	c-0.22,0.196-0.487,0.397-0.795,0.599c-0.249,0.162-0.505,0.315-0.763,0.457c-0.334,0.184-0.68,0.321-0.944,0.419
	c-0.559,0.207-1.154,0.316-1.72,0.316c-0.074,0-0.148-0.001-0.221-0.005c-0.566-0.03-1.191-0.168-1.805-0.398
	c-0.469-0.174-0.868-0.377-1.22-0.621c-0.379-0.262-0.809-0.573-1.113-0.952c-0.443-0.55-0.719-1.073-0.868-1.646
	c-0.051-0.195-0.091-0.392-0.12-0.591l-0.022-0.154c-0.03-0.203-0.062-0.413-0.05-0.612c0.025-0.465,0.099-0.929,0.222-1.377
	c0.064-0.233,0.157-0.458,0.251-0.68c0.079-0.182,0.16-0.364,0.268-0.534c0.231-0.37,0.517-0.737,0.874-1.121
	c0.152-0.163,0.315-0.31,0.482-0.457c0.136-0.121,0.283-0.224,0.429-0.327l0.055-0.039l-0.013-0.07l-0.126-0.094
	c-0.051-0.037-0.102-0.074-0.151-0.115c-0.295-0.251-0.583-0.518-0.855-0.794c-0.307-0.312-0.599-0.656-0.894-1.052
	c-0.216-0.29-0.39-0.598-0.584-0.972c-0.173-0.334-0.342-0.672-0.5-1.013c-0.743-1.607-1.16-3.373-1.44-4.732
	c-0.175-0.86-0.31-1.779-0.103-2.682C2.224,6.199,2.358,5.8,2.525,5.46c0.393-0.794,0.994-1.352,1.691-1.572
	c0.107-0.034,0.216-0.062,0.327-0.085c0.155-0.03,0.358-0.064,0.526-0.064c0.287,0.006,0.544,0.038,0.802,0.08
	c0.344,0.056,0.681,0.115,1.003,0.215C7.299,4.163,7.7,4.379,8.07,4.592C8.393,4.78,8.717,4.971,9.026,5.181
	c0.31,0.208,0.712,0.49,1.077,0.822c0.184,0.168,0.361,0.343,0.538,0.518l0.268,0.264c0.577,0.565,1.118,1.176,1.654,1.867
	c0.341,0.441,0.659,0.878,0.978,1.315c-0.08-0.594-0.139-1.016-0.1-1.412c0.029-0.293,0.066-0.607,0.144-0.91
	c0.022-0.09,0.059-0.176,0.097-0.263l0.046-0.109l-0.072-0.079c-0.184-0.107-0.271-0.254-0.361-0.473
	c-0.121-0.271-0.241-0.492-0.385-0.705c-0.234-0.271-0.518-0.489-0.792-0.7l-0.347-0.266c-0.118-0.071-0.206-0.158-0.272-0.271
	c-0.069-0.117-0.102-0.24-0.102-0.376c0-0.196,0.08-0.387,0.219-0.524c0.138-0.139,0.329-0.219,0.525-0.219
	c0.207,0,0.346,0.078,0.531,0.223c0.189,0.146,0.373,0.295,0.559,0.446l0.283,0.228c0.124,0.098,0.247,0.197,0.364,0.305
	c0.369,0.344,0.595,0.774,0.834,1.229l0.023,0.044l0.099-0.009c0.143-0.059,0.252-0.099,0.363-0.129
	c0.276-0.074,0.555-0.116,0.839-0.146c0.003,0,0.007,0,0.011,0c0.18,0,0.344,0.066,0.48,0.174c0.083-0.002,0.122-0.004,0.164-0.008
	c0.331-0.46,0.583-0.8,0.853-1.096c0.406-0.45,0.875-0.82,1.321-1.16c0.081-0.062,0.205-0.097,0.347-0.097
	c0.073,0,0.145,0.01,0.211,0.027c0.179,0.049,0.338,0.171,0.436,0.335c0.098,0.168,0.124,0.372,0.074,0.561
	c-0.057,0.197-0.177,0.319-0.341,0.44c-0.558,0.447-0.936,0.811-1.252,1.195c-0.04,0.057-0.074,0.114-0.107,0.172l-0.065,0.11
	l0.05,0.093c0.445,0.343,0.614,0.924,0.702,1.33c0.12,0.561,0.144,1.175,0.075,1.93l0.215-0.172c0.068-0.114,0.136-0.228,0.209-0.34
	l0.239-0.381c0.143-0.232,0.287-0.465,0.444-0.69c0.252-0.366,0.523-0.752,0.837-1.094c0.28-0.304,0.581-0.584,0.886-0.866
	l0.247-0.231c0.285-0.267,0.554-0.519,0.869-0.738c0.378-0.264,0.792-0.47,1.146-0.638l0.162-0.077
	c0.325-0.155,0.662-0.315,1.008-0.427c0.381-0.121,0.836-0.253,1.309-0.313c0.15-0.02,0.298-0.029,0.446-0.029
	c0.251,0,0.497,0.028,0.754,0.084c0.393,0.087,0.72,0.222,0.971,0.399c0.322,0.226,0.536,0.517,0.763,0.826
	c0.15,0.201,0.238,0.449,0.323,0.689c0.083,0.233,0.115,0.472,0.141,0.718c0.085,0.76,0.034,1.591-0.162,2.614L29.76,9.395
	c-0.063,0.337-0.125,0.676-0.217,1.007l-0.097,0.354c-0.077,0.285-0.154,0.57-0.242,0.854c-0.119,0.386-0.248,0.766-0.379,1.147
	l-0.131,0.386c-0.088,0.263-0.175,0.526-0.28,0.782c-0.291,0.709-0.642,1.523-1.135,2.214c-0.182,0.255-0.368,0.508-0.556,0.761
	l-0.129,0.176c-0.111,0.153-0.231,0.299-0.351,0.445l-0.14,0.171l0.25,0.309l0.368,0.365c0.252,0.258,0.479,0.577,0.656,0.923
	c0.102,0.196,0.198,0.398,0.263,0.611c0.047,0.149,0.075,0.304,0.102,0.456c0.057,0.329,0.087,0.669,0.091,1.04
	c0.006,0.438-0.029,0.898-0.104,1.368c-0.063,0.395-0.186,0.775-0.297,1.094c-0.202,0.58-0.449,1.032-0.757,1.382
	c-0.259,0.295-0.538,0.57-0.856,0.838c-0.369,0.313-0.743,0.583-1.109,0.804c-0.227,0.134-0.494,0.231-0.708,0.31
	c-0.19,0.072-0.383,0.117-0.583,0.152c-0.237,0.044-0.482,0.063-0.722,0.078c-0.107,0.007-0.213,0.014-0.319,0.014
	c-0.08,0-0.161-0.004-0.241-0.014c-0.268-0.03-0.532-0.064-0.792-0.134c-0.203-0.055-0.396-0.134-0.587-0.215l-0.036-0.016
	c-0.499-0.218-0.904-0.453-1.238-0.72c-0.079-0.064-0.309-0.262-0.309-0.262c-0.175,0.32-0.279,0.613-0.403,0.902
	c-0.135,0.312-0.291,0.557-0.466,0.727c-0.121,0.117-0.253,0.228-0.391,0.323c-0.128,0.09-0.242,0.149-0.406,0.212
	c-0.132,0.054-0.237,0.067-0.382,0.086C17.038,28.338,16.974,28.341,16.909,28.341z M16.972,26.652l0.04,0.006l-0.002-0.035
	l0.125-0.069l0.071-0.073c0.109-0.166,0.197-0.328,0.277-0.5c0.282-0.712,0.479-1.418,0.587-2.1c0.1-0.863,0.121-1.809,0.063-2.892
	c-0.06-1.105-0.146-2.097-0.264-3.035c-0.117-0.782-0.23-1.416-0.359-1.993l-0.092-0.41c-0.121-0.533-0.24-1.066-0.332-1.604
	c-0.061-0.364-0.131-0.775-0.145-1.182c-0.013-0.409,0.008-0.782,0.068-1.172c0.032-0.205,0.084-0.404,0.137-0.603l0.082-0.328
	c0.063-0.271,0.103-0.55,0.142-0.827l0.017-0.115c0.048-0.39,0.09-0.85,0.045-1.313c-0.03-0.171-0.07-0.333-0.124-0.493l-0.03-0.056
	l0.01-0.035l-0.022,0.015l-0.015-0.025C17.096,7.684,17,7.624,16.901,7.572c-0.108-0.037-0.21-0.064-0.316-0.087
	c-0.075-0.016-0.147-0.045-0.213-0.089L16.35,7.383l-0.024,0.009c-0.085,0.032-0.182,0.052-0.305,0.064l-0.101,0.01
	c-0.168,0.032-0.326,0.073-0.483,0.126l-0.143,0.171c-0.044,0.128-0.075,0.251-0.101,0.379c-0.025,0.244-0.032,0.479-0.013,0.718
	c0.058,0.281,0.157,0.553,0.256,0.806c0.074,0.164,0.156,0.321,0.238,0.479c0.086,0.166,0.172,0.332,0.248,0.502
	c0.226,0.507,0.335,1.037,0.333,1.623c-0.004,0.692-0.122,1.395-0.235,2.073c-0.039,0.235-0.078,0.468-0.113,0.702
	c-0.12,0.931-0.194,1.646-0.239,2.318l-0.051,0.714c-0.042,0.565-0.083,1.131-0.103,1.698c-0.032,0.877-0.034,1.654-0.006,2.374
	c0.025,0.665,0.062,1.45,0.15,2.228c0.071,0.497,0.163,1.07,0.358,1.598c0.062,0.126,0.13,0.242,0.207,0.353
	c0.048,0.055,0.093,0.104,0.141,0.15l0.1,0.057c0.079,0.027,0.156,0.048,0.233,0.066l-0.001,0.012l0.099,0.013l0.004-0.004
	c0.012,0.002,0.087,0.011,0.111,0.012l-0.004,0.006l0.009,0.001l0.004-0.007c0.019,0.001,0.038,0.001,0.057,0.001L16.972,26.652z
	 M8.12,19.082c-0.321,0.165-0.56,0.307-0.775,0.462c-0.286,0.232-0.54,0.481-0.776,0.764c-0.178,0.245-0.323,0.483-0.446,0.732
	c-0.137,0.361-0.234,0.714-0.3,1.084c-0.025,0.271-0.029,0.535-0.01,0.805c0.065,0.397,0.144,0.716,0.251,1.01
	c0.1,0.21,0.214,0.401,0.343,0.59c0.164,0.192,0.346,0.36,0.538,0.517c0.334,0.248,0.697,0.467,1.082,0.652
	c0.428,0.161,0.866,0.279,1.306,0.353c0.119,0.008,0.232,0.013,0.345,0.013c0.118,0,0.236-0.004,0.355-0.015
	c0.216-0.035,0.43-0.07,0.634-0.136c0.189-0.059,0.376-0.123,0.561-0.193c0.501-0.246,0.997-0.549,1.48-0.904
	c0.203-0.179,0.381-0.375,0.56-0.572l0.156-0.171c0.094-0.1,0.224-0.166,0.398-0.199l0.047-0.009l-0.014-0.107
	c-0.037-0.512-0.054-0.957-0.071-1.401c-0.032-0.872-0.036-1.767-0.014-2.659c0.017-0.59,0.059-1.179,0.101-1.768
	c0.023-0.316,0.045-0.631,0.064-0.946c0.05-0.851,0.158-1.71,0.273-2.589c0.034-0.265,0.068-0.531,0.098-0.796
	c-0.14-0.119-0.217-0.195-0.266-0.287c-0.472-0.871-1.055-1.765-1.781-2.733l-0.759-0.942c-0.272-0.341-0.554-0.678-0.847-1.002
	c-0.236-0.26-0.491-0.498-0.748-0.738L9.672,7.678c-0.275-0.26-0.556-0.508-0.85-0.744C8.099,6.389,7.401,5.962,6.686,5.629
	C6.277,5.482,5.85,5.411,5.448,5.355C5.329,5.343,5.214,5.336,5.099,5.336c-0.062,0-0.124,0.002-0.187,0.006
	c-0.114,0.023-0.219,0.05-0.322,0.084C4.514,5.465,4.448,5.504,4.384,5.547C4.283,5.634,4.192,5.723,4.108,5.819
	C4.006,5.972,3.92,6.123,3.845,6.284C3.708,6.66,3.606,7.038,3.541,7.412c-0.035,0.43,0.002,0.847,0.037,1.162
	c0.125,0.798,0.32,1.589,0.493,2.267c0.192,0.752,0.423,1.473,0.689,2.14c0.188,0.431,0.388,0.855,0.595,1.273
	c0.216,0.437,0.442,0.817,0.691,1.16c0.451,0.558,0.987,1.089,1.596,1.582c0.512,0.37,1.045,0.683,1.588,0.93
	c0.221,0.075,0.44,0.143,0.659,0.21l0.271,0.084c0.229,0.072,0.457,0.143,0.689,0.194c0.079,0.006,0.15,0.009,0.221,0.009
	c0.098,0,0.197-0.005,0.297-0.014c0.001,0,0.002,0,0.003,0c0.451,0,0.764,0.415,0.764,0.772c0,0.42-0.333,0.751-0.774,0.77
	l-0.123,0.002c-0.515,0-1.016-0.138-1.5-0.272c-0.444-0.122-0.843-0.236-1.224-0.406c-0.071-0.032-0.137-0.071-0.203-0.11
	l-0.171-0.095L8.12,19.082z M27.008,5.626c-0.141,0-0.282,0.008-0.424,0.023c-0.367,0.067-0.762,0.188-1.214,0.369
	c-0.612,0.266-1.253,0.56-1.823,0.974c-0.426,0.34-0.846,0.688-1.252,1.048c-0.347,0.31-0.69,0.679-1.047,1.13
	c-0.198,0.272-0.387,0.546-0.576,0.823l-0.064,0.093c-0.197,0.284-0.393,0.569-0.559,0.874c-0.382,0.695-0.707,1.414-1.061,2.213
	c-0.032,0.072-0.095,0.144-0.183,0.206c0.062,0.58,0.149,1.112,0.263,1.635c0.191,0.885,0.297,1.803,0.399,2.691
	c0.106,0.918,0.157,1.834,0.2,2.694c0.082,1.583,0.035,2.846-0.151,3.975c0.298,0.353,0.582,0.623,0.895,0.877
	c0.244,0.166,0.5,0.289,0.742,0.402c0.307,0.118,0.594,0.198,0.883,0.246c0.097,0.009,0.19,0.013,0.284,0.013
	c0.204,0,0.408-0.018,0.612-0.041c0.26-0.045,0.506-0.111,0.754-0.199c0.36-0.173,0.686-0.401,0.963-0.601
	c0.297-0.231,0.586-0.514,0.886-0.866c0.07-0.099,0.127-0.198,0.179-0.304c0.181-0.467,0.315-0.962,0.399-1.477
	c0.074-0.67,0.084-1.217,0.034-1.721c-0.03-0.184-0.071-0.36-0.132-0.533c-0.089-0.181-0.184-0.35-0.295-0.513
	c-0.26-0.305-0.558-0.565-0.842-0.806c-0.393,0.184-0.706,0.31-1.018,0.435l-0.219,0.088l-0.155,0.073
	c-0.15,0.071-0.295,0.107-0.432,0.107c-0.134,0-0.263-0.036-0.382-0.105c-0.179-0.107-0.314-0.282-0.369-0.481
	c-0.057-0.206-0.027-0.432,0.081-0.618c0.101-0.172,0.25-0.285,0.484-0.37c0.215-0.078,0.428-0.159,0.642-0.242
	c0.248-0.116,0.493-0.258,0.729-0.424c0.194-0.164,0.36-0.334,0.513-0.523c0.315-0.417,0.612-0.845,0.907-1.272l0.082-0.119
	c0.29-0.421,0.558-0.916,0.84-1.557c0.177-0.44,0.331-0.885,0.485-1.333c0.173-0.51,0.335-0.995,0.479-1.489
	c0.284-0.98,0.487-1.889,0.619-2.78c0.058-0.563,0.063-1.073,0.016-1.56c-0.029-0.162-0.07-0.315-0.122-0.466
	c-0.055-0.107-0.117-0.2-0.184-0.293c-0.04-0.048-0.081-0.092-0.124-0.134l-0.087-0.051c-0.123-0.043-0.24-0.075-0.359-0.098
	C27.2,5.63,27.104,5.626,27.008,5.626z M24.661,15.248c-0.423,0-0.781-0.358-0.781-0.782c0-0.423,0.358-0.782,0.781-0.782
	c0.423,0,0.782,0.358,0.782,0.782C25.443,14.89,25.084,15.248,24.661,15.248z M7.198,14.316c-0.345,0-0.637-0.292-0.637-0.637
	c0-0.344,0.292-0.636,0.637-0.636c0.345,0,0.637,0.292,0.637,0.636C7.835,14.025,7.543,14.316,7.198,14.316z M25.951,12.378
	c-0.381,0-0.704-0.322-0.704-0.703c0-0.381,0.322-0.703,0.704-0.703c0.381,0,0.703,0.322,0.703,0.703
	C26.654,12.056,26.332,12.378,25.951,12.378z M6.03,11.841c-0.382,0-0.706-0.323-0.706-0.705s0.323-0.705,0.706-0.705
	c0.382,0,0.705,0.323,0.705,0.705S6.412,11.841,6.03,11.841z M26.591,9.565c-0.351,0-0.648-0.297-0.648-0.648
	S26.24,8.27,26.591,8.27s0.648,0.297,0.648,0.648S26.942,9.565,26.591,9.565z M5.316,9.171c-0.354,0-0.653-0.299-0.653-0.654
	c0-0.354,0.299-0.653,0.653-0.653c0.354,0,0.654,0.299,0.654,0.653C5.97,8.871,5.671,9.171,5.316,9.171z"/>
</svg>