<?xml version="1.0" encoding="utf-8"?>
<!-- Generator: Adobe Illustrator 21.1.0, SVG Export Plug-In . SVG Version: 6.00 Build 0)  -->
<svg version="1.1" id="designs" xmlns="http://www.w3.org/2000/svg" xmlns:xlink="http://www.w3.org/1999/xlink" x="0px" y="0px"
	 width="32px" height="32px" viewBox="0 0 32 32" style="enable-background:new 0 0 32 32;" xml:space="preserve">
<style type="text/css">
	.sketchy_een{fill:#111918;}
</style>
<path class="sketchy_een" d="M27.079,8.596c-0.14-0.151-0.336-0.249-0.555-0.249c-1.186,0-2.371-0.058-3.557-0.05
	c-1.308,0.01-2.614-0.041-3.925-0.05c-0.227,0-0.43,0.105-0.574,0.264c-0.042,0.025-0.082,0.053-0.121,0.082
	c-0.185,0.135-0.359,0.286-0.531,0.439c-0.272,0.243-0.537,0.491-0.784,0.757c-0.263,0.284-0.535,0.574-0.742,0.902
	c-0.112,0.178-0.185,0.379-0.261,0.576c-0.037,0.094-0.055,0.193-0.08,0.29c-0.023,0-0.045,0.001-0.068,0.002
	c-0.085,0.004-0.168,0.008-0.251,0.008c-0.218,0.004-0.439,0.002-0.657,0.002c-0.149-0.001-0.298-0.002-0.447-0.003
	c0.01-0.025,0.032-0.042,0.04-0.068c0.039-0.139,0.039-0.28,0-0.419c-0.017-0.129-0.039-0.257-0.066-0.383
	c-0.052-0.263-0.141-0.574-0.346-0.759c-0.066-0.064-0.137-0.12-0.213-0.172c-0.079-0.035-0.158-0.068-0.238-0.099
	c-0.266-0.104-0.675-0.058-0.953-0.048c-0.216,0.008-0.433,0.004-0.649-0.002c-0.209-0.004-0.417-0.012-0.624,0.004
	c-0.429,0.027-0.906,0.052-1.269,0.303c-0.162,0.114-0.261,0.23-0.373,0.39c-0.062,0.089-0.091,0.205-0.129,0.305
	c-0.042,0.104-0.06,0.218-0.079,0.328c-0.039,0.209-0.062,0.421-0.088,0.633c-1.158,0.013-2.316,0.032-3.474,0.045
	c-0.655,0.008-1.308,0.033-1.963,0.052c-0.694,0.019-1.389-0.017-2.083-0.029c-0.241-0.005-0.459,0.104-0.616,0.272
	c-0.182,0.152-0.307,0.367-0.288,0.611c0.083,1.053-0.025,2.112-0.05,3.165c-0.021,0.881,0.021,1.772-0.062,2.651
	c-0.015,0.148,0.054,0.298,0.142,0.426c0.047,0.421,0.394,0.737,0.82,0.75c0.837,0.025,1.673-0.006,2.512-0.019
	c0.821-0.012,1.644-0.027,2.467-0.008c0.825,0.021,1.652,0.056,2.479,0.075c0.798,0.017,1.594,0.046,2.392,0.052
	c1.053,0.01,2.104,0.039,3.157,0.048c0.223,0.003,0.425-0.094,0.572-0.245c0.031,0.301,0.07,0.601,0.121,0.899
	c0.066,0.398,0.232,0.758,0.392,1.124c0.066,0.164,0.132,0.33,0.219,0.483c0.106,0.187,0.263,0.354,0.423,0.497
	c0.394,0.354,0.866,0.62,1.296,0.924c0.031,0.022,0.076,0.024,0.112,0.039c0.147,0.144,0.35,0.234,0.571,0.243
	c1.354,0.05,2.711,0.033,4.067,0.066c0.576,0.014,1.151,0.035,1.729,0.044c0.278,0.004,0.556,0.002,0.835-0.002
	c0.104-0.002,0.213,0.002,0.321,0.006c0.174,0.006,0.348,0.012,0.518-0.008c0.169-0.018,0.314-0.068,0.448-0.157
	c0.182,0.026,0.369,0.004,0.53-0.089c0.224-0.131,0.439-0.429,0.404-0.703c-0.005-0.038-0.01-0.075-0.016-0.112
	c-0.048-0.357-0.054-0.722-0.087-1.082c-0.031-0.354-0.048-0.707-0.054-1.063c-0.016-0.75-0.008-1.499-0.014-2.249
	c-0.006-0.788-0.025-1.577,0-2.365c0.027-0.794,0.033-1.592,0.073-2.386c0.035-0.678,0.07-1.356,0.104-2.034
	c0.037-0.717,0.091-1.428,0.099-2.147C27.638,9.001,27.397,8.706,27.079,8.596z M11.183,11.295c0.006-0.034,0.012-0.068,0.019-0.102
	c0.04-0.009,0.08-0.017,0.12-0.024c0.379-0.036,0.758-0.026,1.139-0.01c0.177,0.008,0.353,0.014,0.528,0.025
	c0.01,0.045,0.019,0.091,0.027,0.137c0.012,0.087,0.031,0.165,0.057,0.241c-0.212,0.001-0.424,0.001-0.636,0.002
	c-0.413,0.002-0.825,0.004-1.238,0.002c-0.015,0-0.029,0-0.044,0C11.164,11.476,11.172,11.386,11.183,11.295z M13.012,18.061
	c-0.759-0.015-1.517-0.027-2.276-0.039c-1.607-0.019-3.213-0.145-4.82-0.124c-0.649,0.008-1.294,0.025-1.944,0.023
	c-0.466-0.001-0.933-0.023-1.399-0.046c0.018-0.727,0.026-1.454,0.068-2.181c0.029-0.514,0.056-1.028,0.083-1.542
	c0.013-0.273,0.029-0.547,0.039-0.82c0.612-0.017,1.223-0.033,1.835-0.065c0.846-0.044,1.694-0.025,2.541-0.037
	c1.694-0.027,3.391-0.031,5.085-0.008c0.63,0.01,1.262,0.006,1.893,0.002c0.344-0.002,0.688-0.006,1.03-0.008
	c0.194-0.001,0.389-0.001,0.584,0.006c-0.01,0.283-0.017,0.567-0.026,0.847c-0.023,0.719-0.066,1.436-0.085,2.154
	c-0.013,0.475-0.037,0.949-0.064,1.424c-0.012,0.211-0.028,0.424-0.04,0.637c-0.144-0.136-0.335-0.224-0.545-0.222
	C14.318,18.071,13.667,18.074,13.012,18.061z M18.984,22.029c-0.046-0.043-0.087-0.089-0.141-0.127
	c-0.322-0.226-0.673-0.407-0.991-0.636c-0.074-0.063-0.145-0.129-0.211-0.201c-0.066-0.103-0.121-0.212-0.177-0.322
	c-0.083-0.164-0.184-0.319-0.266-0.485c-0.092-0.247-0.149-0.504-0.191-0.764c-0.058-0.552-0.029-1.096,0.017-1.649
	c0.056-0.649,0.099-1.298,0.137-1.949c0.017-0.271,0.052-0.539,0.068-0.81c0.019-0.311,0.029-0.624,0.043-0.935
	c0.022-0.537,0.028-1.077,0.08-1.613c0.043-0.26,0.103-0.513,0.193-0.761c0.059-0.122,0.126-0.236,0.204-0.348
	c0.221-0.265,0.471-0.509,0.717-0.748c0.231-0.225,0.467-0.451,0.715-0.658c0.025-0.017,0.05-0.034,0.076-0.05
	c0.123-0.026,0.232-0.081,0.334-0.158c0.993-0.014,1.986-0.036,2.979-0.039c-0.033,0.741-0.047,1.481-0.064,2.224
	c-0.01,0.439-0.027,0.875-0.058,1.312c-0.027,0.375-0.071,0.748-0.1,1.122c-0.129,1.629-0.128,3.265-0.141,4.898
	c-0.006,0.556-0.002,1.113,0.008,1.669c0.005,0.378,0.009,0.759,0.019,1.139c-0.474-0.002-0.948,0-1.422-0.016
	C20.201,22.105,19.592,22.063,18.984,22.029z M24.962,22.16c-0.195-0.004-0.39-0.008-0.585-0.006
	c-0.166,0.001-0.331-0.002-0.496-0.002c-0.028-0.614-0.034-1.228-0.046-1.843c-0.017-0.781-0.027-1.561-0.037-2.344
	c-0.012-0.804-0.029-1.609-0.019-2.413c0.012-0.842,0.087-1.677,0.156-2.517c0.043-0.541,0.068-1.084,0.108-1.625
	c0.04-0.536,0.077-1.07,0.112-1.605c0.196,0.007,0.392,0.012,0.587,0.016c0.292,0.006,0.582,0.014,0.873,0.021
	c0.134,0.003,0.266,0.012,0.4,0.015c0.004,0.264,0.009,0.529,0.006,0.792c-0.006,0.392-0.033,0.783-0.046,1.175
	c-0.025,0.773-0.089,1.546-0.108,2.32c-0.021,0.806-0.021,1.613-0.031,2.421c-0.008,0.775,0.023,1.548,0.021,2.322
	c0,0.661,0,1.32,0.004,1.98c0,0.317,0.021,0.636,0.039,0.953c0.006,0.109,0.013,0.22,0.019,0.331
	C25.6,22.171,25.282,22.167,24.962,22.16z M31,15.924c0,0.481-0.388,0.827-0.85,0.85c-0.512,0.025-1.02,0.073-1.532,0.085
	c-0.485,0.012-0.891-0.413-0.891-0.891c0-0.485,0.406-0.889,0.891-0.889c0.51,0,1.022,0.017,1.532-0.004
	c0.011-0.001,0.022-0.001,0.034-0.001C30.632,15.075,31,15.489,31,15.924z M28.047,12.721c-0.243-0.415-0.114-1.02,0.327-1.252
	c0.311-0.162,0.622-0.321,0.937-0.473c0.153-0.074,0.305-0.122,0.464-0.122c0.072,0,0.146,0.01,0.221,0.031
	c0.222,0.062,0.415,0.211,0.533,0.41c0.245,0.421,0.097,0.972-0.321,1.217c-0.299,0.18-0.605,0.35-0.912,0.516
	C28.86,13.287,28.304,13.159,28.047,12.721z M30.386,20.313c-0.242,0.412-0.769,0.539-1.179,0.309
	c-0.305-0.17-0.624-0.307-0.939-0.456c-0.199-0.093-0.352-0.323-0.408-0.527c-0.062-0.228-0.031-0.477,0.089-0.682
	c0.116-0.197,0.307-0.344,0.529-0.406c0.076-0.021,0.149-0.031,0.221-0.031c0.158,0,0.309,0.047,0.459,0.12
	c0.315,0.153,0.611,0.33,0.918,0.495C30.49,19.357,30.616,19.919,30.386,20.313z"/>
</svg>