<?xml version="1.0" encoding="utf-8"?>
<!-- Generator: Adobe Illustrator 21.1.0, SVG Export Plug-In . SVG Version: 6.00 Build 0)  -->
<svg version="1.1" id="designs" xmlns="http://www.w3.org/2000/svg" xmlns:xlink="http://www.w3.org/1999/xlink" x="0px" y="0px"
	 width="32px" height="32px" viewBox="0 0 32 32" style="enable-background:new 0 0 32 32;" xml:space="preserve">
<style type="text/css">
	.sketchy_een{fill:#111918;}
</style>
<path class="sketchy_een" d="M30.89,7.792c-0.111-0.191-0.297-0.334-0.51-0.393c-0.034-0.009-0.069-0.002-0.103-0.007
	c-0.143-0.157-0.344-0.261-0.571-0.265c-0.463-0.008-0.928-0.006-1.391-0.004c-0.266,0.002-0.531,0.004-0.795,0.002
	c-0.34,0-0.678,0.006-1.016,0.012c-0.4,0.006-0.803,0.014-1.203,0.008c-0.791-0.01-1.582-0.049-2.373-0.057
	c-0.809-0.008-1.615-0.01-2.424-0.023c-1.584-0.027-3.168-0.02-4.753-0.023c-0.803-0.002-1.606,0.018-2.41,0.025
	c-0.834,0.01-1.668,0.008-2.502,0.023c-0.746,0.014-1.49,0.014-2.237,0.02C7.885,7.113,7.166,7.119,6.45,7.104
	c-0.361-0.01-0.723-0.031-1.084-0.045c-0.359-0.014-0.721-0.014-1.082-0.02C3.473,7.023,2.664,7.004,1.853,7C1.852,7,1.851,7,1.85,7
	C1.443,7,1.112,7.325,1.07,7.722C1.021,7.829,0.992,7.945,1.002,8.055c0.033,0.357,0.031,0.719,0.059,1.076
	c0.029,0.389,0.08,0.773,0.125,1.16c0.055,0.449,0.141,0.887,0.234,1.328c0.084,0.405,0.166,0.813,0.305,1.203
	c0.143,0.41,0.289,0.817,0.406,1.235c0.107,0.373,0.182,0.758,0.309,1.125c0.277,0.818,0.645,1.608,1.078,2.354
	c0.441,0.758,0.975,1.463,1.588,2.09c0.301,0.307,0.604,0.609,0.924,0.895c0.331,0.296,0.683,0.565,1.036,0.835
	c0.331,0.259,0.659,0.519,0.993,0.772c0.33,0.252,0.666,0.5,1.033,0.693c0.746,0.393,1.528,0.75,2.344,0.965
	c0.826,0.219,1.684,0.381,2.535,0.441c0.797,0.059,1.592,0.049,2.389-0.012c0.434-0.033,0.865-0.076,1.297-0.127
	c0.459-0.053,0.922-0.096,1.375-0.189c0.895-0.188,1.762-0.48,2.602-0.838c1.6-0.68,3.12-1.547,4.342-2.801
	c0.617-0.631,1.223-1.281,1.756-1.988c0.51-0.674,0.957-1.393,1.317-2.156c0.393-0.836,0.725-1.69,0.994-2.571
	c0.111-0.365,0.209-0.731,0.283-1.106c0.076-0.385,0.131-0.776,0.191-1.164c0.066-0.43,0.156-0.855,0.221-1.287
	c0.076-0.516,0.145-1.03,0.236-1.541C31.017,8.214,31.015,8.003,30.89,7.792z M28.917,10.716c-0.08,0.465-0.146,0.934-0.236,1.397
	c-0.084,0.439-0.213,0.867-0.342,1.293c-0.151,0.494-0.328,0.973-0.525,1.448c-0.191,0.441-0.395,0.875-0.637,1.292
	c-0.25,0.431-0.527,0.844-0.826,1.241c-0.386,0.459-0.799,0.893-1.218,1.321c-0.404,0.409-0.816,0.798-1.265,1.155
	c-0.443,0.322-0.903,0.612-1.38,0.88c-0.482,0.272-0.992,0.497-1.499,0.719c-0.92,0.38-1.865,0.683-2.85,0.837
	c-0.773,0.096-1.55,0.193-2.329,0.241c-0.784,0.049-1.58,0.04-2.363-0.037c-0.466-0.071-0.935-0.152-1.395-0.256
	c-0.473-0.109-0.927-0.265-1.376-0.447c-0.242-0.106-0.483-0.214-0.72-0.332c-0.287-0.145-0.553-0.312-0.816-0.496
	c-0.523-0.366-1.028-0.754-1.541-1.135c-0.704-0.557-1.368-1.197-1.929-1.896c-0.254-0.337-0.487-0.679-0.694-1.05
	c-0.209-0.379-0.403-0.764-0.579-1.161c-0.167-0.418-0.331-0.842-0.432-1.279c-0.119-0.512-0.25-1.018-0.406-1.518
	c-0.07-0.225-0.147-0.449-0.213-0.676c-0.076-0.266-0.135-0.535-0.193-0.807c-0.097-0.443-0.199-0.886-0.266-1.334
	c0.006,0.046,0.012,0.092,0.018,0.138c-0.007-0.052-0.014-0.103-0.021-0.155c-0.004-0.025-0.007-0.049-0.011-0.074
	c0.003,0.019,0.006,0.037,0.008,0.056C2.858,9.923,2.836,9.763,2.815,9.602c-0.04-0.34-0.062-0.68-0.087-1.021
	c0.425-0.007,0.85-0.012,1.276-0.021C4.019,9.009,4.06,9.457,4.118,9.9C4.113,9.864,4.108,9.828,4.103,9.792
	c0.08,0.621,0.162,1.242,0.236,1.864c0.029,0.236,0.076,0.43,0.252,0.604c0.16,0.16,0.379,0.252,0.606,0.252
	c0.225,0,0.445-0.092,0.604-0.252c0.145-0.143,0.279-0.393,0.252-0.604c-0.09-0.711-0.21-1.419-0.311-2.128
	c-0.02-0.169-0.038-0.338-0.05-0.509c-0.01-0.15-0.012-0.302-0.017-0.454c0.33,0.015,0.66,0.038,0.99,0.051
	c0.774,0.027,1.551,0.02,2.326,0.018c0.813-0.004,1.623-0.014,2.436-0.033c0.822-0.021,1.645-0.018,2.467-0.037
	c0.777-0.018,1.557-0.031,2.334-0.035c1.619-0.01,3.239-0.023,4.856,0.012c0.76,0.018,1.518,0.025,2.278,0.041
	c0.729,0.018,1.457,0.051,2.186,0.066c0.13,0.003,0.26,0.002,0.39,0.004c-0.005,0.062-0.007,0.124-0.014,0.185
	c-0.12,0.682-0.352,1.33-0.554,1.993c-0.107,0.35-0.184,0.705-0.283,1.057c-0.087,0.308-0.206,0.608-0.325,0.904
	c-0.124,0.276-0.259,0.547-0.395,0.819c-0.15,0.297-0.287,0.602-0.436,0.9c-0.152,0.305-0.305,0.608-0.49,0.893
	c-0.169,0.26-0.345,0.517-0.528,0.768c-0.502,0.611-1.082,1.174-1.694,1.675c-0.175,0.129-0.356,0.25-0.55,0.351
	c-0.203,0.108-0.414,0.202-0.625,0.293c-0.438,0.179-0.879,0.355-1.324,0.518c-0.437,0.159-0.888,0.263-1.346,0.333
	c-0.656,0.07-1.317,0.082-1.974,0.093c-0.644,0.011-1.297,0.011-1.94-0.056c-0.314-0.053-0.613-0.137-0.912-0.247
	c-0.451-0.213-0.881-0.481-1.318-0.723c-0.215-0.119-0.418-0.262-0.627-0.393c-0.195-0.12-0.384-0.245-0.568-0.379
	c-0.152-0.129-0.301-0.259-0.453-0.389c-0.178-0.15-0.365-0.285-0.535-0.447c-0.295-0.285-0.59-0.579-0.852-0.897
	c-0.415-0.566-0.763-1.172-1.113-1.779c-0.201-0.348-0.662-0.467-1.008-0.266c-0.346,0.203-0.469,0.662-0.264,1.01
	c0.232,0.395,0.471,0.787,0.711,1.178c0.23,0.375,0.475,0.754,0.76,1.088c0.258,0.301,0.533,0.607,0.834,0.869
	c0.297,0.26,0.609,0.506,0.914,0.758c0.354,0.293,0.758,0.514,1.141,0.764c0.35,0.225,0.721,0.414,1.086,0.607
	c0.387,0.205,0.777,0.402,1.197,0.529c0.41,0.123,0.834,0.186,1.262,0.219c0.783,0.061,1.567,0.078,2.35,0.057
	c0.852-0.021,1.697-0.082,2.526-0.281c0.367-0.09,0.723-0.209,1.076-0.338c0.406-0.148,0.815-0.301,1.213-0.473
	c0.348-0.148,0.707-0.289,1.026-0.494c0.377-0.242,0.732-0.525,1.065-0.826c0.305-0.273,0.613-0.547,0.899-0.84
	c0.322-0.328,0.606-0.68,0.869-1.057c0.234-0.332,0.453-0.662,0.641-1.025c0.186-0.359,0.348-0.733,0.522-1.098
	c0.375-0.793,0.762-1.582,0.986-2.434c0.104-0.389,0.219-0.771,0.344-1.154c0.125-0.383,0.26-0.766,0.357-1.156
	c0.089-0.354,0.156-0.723,0.182-1.089c0.49,0.002,0.98,0.005,1.471,0.01c-0.042,0.302-0.088,0.602-0.125,0.905
	C29.054,9.963,28.983,10.339,28.917,10.716z M2.88,10.084c0.002,0.011,0.003,0.023,0.005,0.034
	c-0.001-0.006-0.002-0.011-0.002-0.016C2.881,10.096,2.88,10.09,2.88,10.084z M14.483,13.004c-0.006-0.436-0.018-0.871-0.027-1.307
	c-0.012-0.469,0.398-0.859,0.858-0.859c0.473,0,0.852,0.391,0.857,0.859c0.008,0.436,0.006,0.871,0.004,1.307
	c-0.004,0.461-0.383,0.846-0.846,0.846C14.862,13.849,14.491,13.465,14.483,13.004z M11.467,11.712c-0.309-0.309-0.33-0.861,0-1.166
	c0.324-0.303,0.656-0.596,0.99-0.887c0.174-0.15,0.361-0.248,0.596-0.248c0.223,0,0.439,0.09,0.598,0.248
	c0.305,0.305,0.35,0.895,0,1.192c-0.34,0.289-0.682,0.57-1.018,0.861c-0.17,0.146-0.352,0.242-0.584,0.242
	C11.832,11.955,11.621,11.867,11.467,11.712z M16.861,10.622c-0.336-0.336-0.336-0.896,0-1.232c0.167-0.168,0.393-0.253,0.619-0.253
	c0.224,0,0.448,0.083,0.613,0.253c0.158,0.16,0.316,0.322,0.482,0.475c0.16,0.145,0.328,0.279,0.488,0.426
	c0.34,0.312,0.316,0.885,0,1.201c-0.342,0.34-0.858,0.309-1.201,0c-0.162-0.145-0.336-0.275-0.504-0.41
	C17.181,10.94,17.021,10.782,16.861,10.622z"/>
</svg>