<?xml version="1.0" encoding="utf-8"?>
<!-- Generator: Adobe Illustrator 21.1.0, SVG Export Plug-In . SVG Version: 6.00 Build 0)  -->
<svg version="1.1" id="designs" xmlns="http://www.w3.org/2000/svg" xmlns:xlink="http://www.w3.org/1999/xlink" x="0px" y="0px"
	 width="32px" height="32px" viewBox="0 0 32 32" style="enable-background:new 0 0 32 32;" xml:space="preserve">
<style type="text/css">
	.sketchy_een{fill:#111918;}
</style>
<path class="sketchy_een" d="M31,15.709c0-0.485-0.411-0.91-0.904-0.902c-1.625,0.024-3.248-0.006-4.872-0.034
	c-0.337-0.005-0.674-0.006-1.01-0.007c0.048-0.186,0.038-0.447-0.083-0.605c-0.491-0.639-0.958-1.298-1.44-1.945
	c-0.521-0.701-1.1-1.356-1.655-2.031c-0.485-0.589-0.946-1.198-1.432-1.783c-0.521-0.622-1.046-1.237-1.55-1.874
	c-0.36-0.474-0.721-0.946-1.079-1.422c-0.091-0.12-0.19-0.211-0.303-0.286c-0.07-0.095-0.159-0.176-0.261-0.236
	c-0.142-0.084-0.296-0.123-0.446-0.123c-0.311,0-0.613,0.166-0.79,0.445c-0.57,0.9-1.174,1.767-1.824,2.612
	c-0.383,0.494-0.766,0.987-1.135,1.491c-0.367,0.499-0.729,1.002-1.096,1.501c-0.391,0.533-0.801,1.05-1.192,1.583
	c-0.364,0.498-0.714,1.005-1.088,1.497c-0.206,0.263-0.413,0.526-0.627,0.783c-0.123,0.149-0.198,0.305-0.221,0.492
	c-0.079,0-0.157,0.004-0.236,0.003c-0.665-0.006-1.33-0.024-1.993-0.04c-1.292-0.034-2.586-0.05-3.879-0.042
	C1.401,14.789,1,15.184,1,15.667c0,0.255,0.12,0.485,0.301,0.649c0.746,1.69,1.761,3.237,2.691,4.829
	c0.433,0.743,0.885,1.473,1.312,2.22c0.417,0.731,0.859,1.451,1.268,2.186c0.162,0.293,0.313,0.571,0.523,0.831
	c0.02,0.025,0.056,0.034,0.081,0.055c-0.024,0.078-0.05,0.156-0.05,0.244c0,0.449,0.391,0.884,0.857,0.857
	c0.994-0.054,1.985-0.106,2.981-0.134c0.893-0.026,1.787-0.034,2.681-0.036c1.779-0.008,3.558-0.014,5.339-0.004
	c0.968,0.006,1.935,0.016,2.903,0.054c0.962,0.036,1.927,0.03,2.891,0.056c0.493,0.014,0.904-0.421,0.904-0.904
	c0-0.058-0.023-0.111-0.034-0.166c0.044-0.075,0.091-0.147,0.134-0.222c0.104-0.182,0.208-0.363,0.31-0.545
	c0.22-0.387,0.439-0.775,0.655-1.164c0.411-0.745,0.801-1.505,1.15-2.282c0.375-0.831,0.765-1.651,1.184-2.46
	c0.401-0.773,0.823-1.537,1.216-2.314c0.162-0.324,0.327-0.647,0.487-0.974c0.057-0.114,0.096-0.23,0.113-0.348
	C30.959,15.972,31,15.842,31,15.709z M11.513,12.755c0.495-0.632,1.001-1.257,1.478-1.903c0.434-0.587,0.863-1.177,1.305-1.758
	c0.356-0.449,0.724-0.892,1.078-1.348c0.255-0.329,0.479-0.679,0.717-1.018c0.353,0.449,0.702,0.902,1.07,1.34
	c0.465,0.557,0.966,1.082,1.422,1.647c0.451,0.557,0.894,1.12,1.344,1.677c0.46,0.569,0.938,1.12,1.39,1.694
	c0.425,0.559,0.845,1.123,1.269,1.684c-0.141,0.001-0.282,0.001-0.423,0.002c-0.711,0.004-1.422,0.008-2.132,0.004
	c-1.129-0.005-2.256-0.001-3.384,0.014c0.006-0.818,0.03-1.635,0.025-2.454c-0.006-1.084-0.006-2.168-0.03-3.252
	c-0.008-0.431-0.353-0.789-0.789-0.789c-0.421,0-0.803,0.359-0.791,0.789c0.032,1.066,0.076,2.13,0.062,3.196
	c-0.012,0.849-0.073,1.694-0.122,2.542c-0.086,0.003-0.172,0.002-0.258,0.005c-0.962,0.034-1.925,0.026-2.887,0.016
	c-0.648-0.005-1.298-0.007-1.946,0C10.448,14.149,10.982,13.454,11.513,12.755z M5.859,21.023c-0.473-0.763-0.922-1.539-1.37-2.316
	c-0.218-0.377-0.437-0.755-0.645-1.138c-0.188-0.345-0.364-0.695-0.541-1.046c0.413-0.008,0.826-0.017,1.239-0.022
	c0.857-0.01,1.713,0.02,2.57,0.032c1.719,0.024,3.436-0.05,5.153-0.062c0.828-0.007,1.654-0.014,2.48-0.039
	c-0.356,0.506-0.709,1.014-1.075,1.512c-0.505,0.685-1.03,1.356-1.527,2.044c-0.521,0.721-1.016,1.454-1.507,2.196
	c-0.455,0.689-0.9,1.39-1.376,2.066c-0.265,0.375-0.542,0.742-0.819,1.11C8.425,25.33,8.415,25.3,8.396,25.272
	c0.006,0.008,0.012,0.016,0.018,0.024c-0.216-0.31-0.387-0.657-0.577-0.984c-0.222-0.379-0.449-0.755-0.675-1.132
	C6.729,22.459,6.302,21.738,5.859,21.023z M27.877,18.257c-0.385,0.787-0.789,1.565-1.146,2.366
	c-0.359,0.805-0.717,1.607-1.114,2.394c-0.361,0.716-0.74,1.424-1.134,2.122c-0.423-0.444-0.838-0.895-1.237-1.361
	c-0.467-0.545-0.946-1.078-1.42-1.615c-0.499-0.565-0.992-1.134-1.469-1.717c-0.517-0.633-1.032-1.266-1.553-1.895
	c-0.132-0.158-0.381-0.24-0.579-0.24c-0.216,0-0.427,0.088-0.579,0.24c-0.154,0.152-0.24,0.363-0.24,0.579
	c0,0.232,0.096,0.407,0.24,0.579c0.513,0.613,1.024,1.226,1.543,1.833c0.487,0.567,0.982,1.13,1.465,1.701
	c0.467,0.555,0.922,1.12,1.382,1.679c0.214,0.26,0.441,0.508,0.661,0.762c-0.526,0.002-1.051,0.014-1.577,0.013
	c-0.559,0-1.12-0.002-1.679,0c-1.779,0.01-3.558,0.036-5.337,0.048c-1.294,0.009-2.587,0.011-3.88,0.028
	c0.289-0.406,0.574-0.813,0.845-1.233c0.463-0.715,0.924-1.43,1.384-2.148c0.926-1.436,1.997-2.759,3.013-4.129
	c0.458-0.617,0.909-1.238,1.355-1.863c0.255-0.001,0.51-0.013,0.764-0.011c0.841,0.006,1.681,0.046,2.522,0.048
	c0.894,0.002,1.787,0.01,2.679,0.012c0.633,0.002,1.264,0.008,1.897,0.012c0.607,0.002,1.214,0.032,1.821,0.044
	c0.734,0.015,1.469,0.025,2.203,0.045C28.432,17.12,28.156,17.688,27.877,18.257z"/>
</svg>