<?xml version="1.0" encoding="utf-8"?>
<!-- Generator: Adobe Illustrator 21.1.0, SVG Export Plug-In . SVG Version: 6.00 Build 0)  -->
<svg version="1.1" id="designs" xmlns="http://www.w3.org/2000/svg" xmlns:xlink="http://www.w3.org/1999/xlink" x="0px" y="0px"
	 width="32px" height="32px" viewBox="0 0 32 32" style="enable-background:new 0 0 32 32;" xml:space="preserve">
<style type="text/css">
	.sketchy_een{fill:#111918;}
</style>
<path class="sketchy_een" d="M25.025,25.349c-0.022-0.772-0.024-1.544-0.036-2.316c-0.01-0.79-0.03-1.58-0.046-2.37
	c-0.022-1.011-0.062-2.021-0.088-3.03c-0.014-0.515-0.026-1.031-0.03-1.546c-0.004-0.553,0.014-1.109,0.016-1.662
	c0-0.107-0.023-0.208-0.064-0.302c-0.074-0.396-0.411-0.71-0.826-0.71c-1.207,0-2.414,0.021-3.621,0.036
	c0.213-0.267,0.425-0.535,0.635-0.806c0.499-0.644,1.026-1.266,1.526-1.907c-0.008,0.011-0.016,0.021-0.024,0.032
	c0.03-0.038,0.059-0.077,0.089-0.115c0.001-0.001,0.001-0.001,0.002-0.002c0.396-0.514,0.784-1.03,1.153-1.565
	c0.281-0.403,0.604-0.886,0.58-1.394c-0.028-0.569-0.501-0.9-0.936-1.183c-0.503-0.325-1.007-0.648-1.526-0.948
	c-0.267-0.154-0.525-0.323-0.784-0.489c-0.209-0.137-0.426-0.26-0.641-0.386c0.021-0.064,0.043-0.127,0.064-0.191
	c0.242-0.743,0.516-1.472,0.779-2.208c0.071-0.119,0.122-0.25,0.122-0.389c0-0.421-0.357-0.792-0.784-0.784
	C19.24,1.142,17.898,1.024,16.555,1c-0.005,0-0.009,0-0.014,0c-0.287,0-0.533,0.178-0.663,0.421
	c-0.095,0.068-0.178,0.152-0.223,0.251c-0.18,0.391-0.315,0.812-0.453,1.219c-0.129,0.383-0.246,0.769-0.389,1.146
	c-0.016,0.035-0.033,0.069-0.052,0.103c-0.132,0.03-0.268,0.047-0.399,0.07c-0.185,0.032-0.371,0.058-0.557,0.09
	c-0.391,0.066-0.782,0.14-1.173,0.215c-0.826,0.156-1.662,0.267-2.492,0.405C9.946,4.952,9.759,5.123,9.665,5.285
	c-0.108,0.182-0.136,0.407-0.08,0.612C9.599,5.947,9.63,5.989,9.654,6.036C9.657,6.088,9.65,6.139,9.663,6.191
	c0.325,1.245,0.672,2.488,1.071,3.712c0.194,0.596,0.379,1.191,0.555,1.793c0.178,0.61,0.381,1.215,0.537,1.833
	c0.008,0.03,0.029,0.051,0.04,0.079c-1.277,0.013-2.555,0.012-3.832-0.018c-0.419-0.01-0.768,0.357-0.768,0.77
	c0,0.076,0.023,0.145,0.044,0.214c-0.038,0.097-0.059,0.202-0.068,0.315c-0.136,1.688-0.198,3.385-0.259,5.077
	c-0.062,1.69-0.06,3.381-0.046,5.071c0.008,0.792,0,1.586,0.008,2.378c0.008,0.816,0.052,1.634,0.1,2.448
	c0.005,0.082,0.031,0.157,0.054,0.234c0,0.006-0.004,0.012-0.004,0.018c0,0.211,0.084,0.413,0.233,0.561
	c0.158,0.158,0.343,0.213,0.559,0.233c1.654,0.144,3.323,0.052,4.979,0.052c0.808,0,1.616,0.018,2.422-0.008
	c0.866-0.03,1.732-0.062,2.601-0.092c1.007-0.034,2.011-0.058,3.02-0.052c0.979,0.004,1.953,0.05,2.93,0.088
	c0.001,0,0.002-0.001,0.003-0.001C23.961,30.956,24.087,31,24.221,31c0.461,0,0.828-0.381,0.836-0.836
	C25.085,28.56,25.069,26.952,25.025,25.349z M22.646,7.719C22.646,7.72,22.646,7.72,22.646,7.719
	c-0.002-0.008-0.003-0.017-0.004-0.026C22.644,7.702,22.645,7.711,22.646,7.719z M13.377,13.101
	c-0.387-1.187-0.768-2.376-1.163-3.559c-0.197-0.59-0.353-1.189-0.513-1.789c-0.128-0.477-0.248-0.955-0.37-1.433
	c0.256-0.044,0.512-0.087,0.768-0.13c0.444-0.073,0.885-0.159,1.33-0.224c0.214-0.027,0.428-0.054,0.643-0.081
	c-0.018,0.002-0.035,0.005-0.053,0.007c0.427-0.056,0.854-0.096,1.281-0.154c0.417-0.06,0.75-0.423,0.918-0.786
	c0.11-0.235,0.199-0.477,0.287-0.722c0.12-0.331,0.229-0.666,0.353-0.995c0.084-0.22,0.167-0.44,0.25-0.659
	c0.811,0.015,1.62,0.044,2.43,0.075c-0.157,0.472-0.315,0.943-0.468,1.417c-0.235,0.722-0.487,1.438-0.738,2.156
	c-0.243,0.694-0.461,1.394-0.684,2.091c-0.231,0.724-0.473,1.442-0.708,2.164c-0.128,0.401,0.148,0.842,0.539,0.95
	c0.407,0.112,0.84-0.132,0.95-0.539c0.196-0.71,0.429-1.41,0.646-2.111c0.219-0.708,0.433-1.416,0.668-2.117
	c0.049-0.15,0.1-0.299,0.15-0.449c0.137,0.08,0.276,0.155,0.411,0.239c0.273,0.17,0.545,0.343,0.822,0.505
	c0.491,0.291,0.964,0.614,1.423,0.952c-0.164,0.302-0.354,0.591-0.551,0.871c-0.238,0.337-0.483,0.669-0.732,0.997
	c-0.469,0.597-0.949,1.186-1.417,1.786c-0.259,0.331-0.517,0.66-0.78,0.987c-0.259,0.321-0.523,0.64-0.821,0.926
	c-0.511,0.006-1.022,0.01-1.533,0.02c-0.848,0.014-1.696,0.05-2.545,0.074c-0.275,0.008-0.55,0.008-0.826,0.014
	C13.404,13.429,13.43,13.264,13.377,13.101z M21.427,29.11c-0.826,0.016-1.652,0.026-2.476,0.062
	c-1.692,0.07-3.387,0.152-5.083,0.164c-0.997,0.008-1.993,0.03-2.99,0.06c-0.483,0.014-0.966,0.02-1.448,0.018
	c-0.219-0.001-0.438-0.013-0.657-0.026c-0.111-1.498-0.115-3.002-0.133-4.502c-0.022-1.694-0.06-3.385-0.016-5.079
	c0.01-0.421,0.026-0.842,0.034-1.263c0.01-0.395,0.006-0.79,0.02-1.187c0.025-0.746,0.106-1.493,0.175-2.236
	c0.637-0.001,1.274-0.003,1.911-0.013c0.838-0.014,1.676-0.018,2.517-0.02c0.83-0.004,1.662-0.026,2.492-0.032
	c0.836-0.006,1.672-0.008,2.506-0.004c0.938,0.004,1.875,0.016,2.813,0.03c0.74,0.011,1.481,0.013,2.222,0.031
	c0.008,0.613,0.018,1.226,0.029,1.839c0.018,0.808,0.016,1.618,0.026,2.428c0.022,1.574,0.026,3.146,0.022,4.72
	c-0.002,1.015,0.022,2.029,0.024,3.044c0.001,0.665,0.002,1.331-0.008,1.998c-0.554-0.013-1.107-0.035-1.661-0.035
	C21.64,29.107,21.533,29.108,21.427,29.11z M22.557,10.652C22.558,10.652,22.558,10.652,22.557,10.652
	c0.011-0.014,0.022-0.028,0.032-0.041C22.579,10.624,22.568,10.638,22.557,10.652z M22.394,25.271c0.02,0.592,0.02,1.187,0.06,1.779
	c0.032,0.461-0.409,0.846-0.846,0.846c-0.479,0-0.828-0.385-0.848-0.846c-0.058-1.295-0.126-2.589-0.13-3.884
	c-0.002-0.708-0.004-1.416,0.018-2.123c0.026-0.802,0-1.604,0.002-2.406c0-0.465,0.387-0.854,0.854-0.854
	c0.461,0,0.858,0.387,0.854,0.854c-0.01,0.802-0.038,1.604-0.014,2.406c0.022,0.708,0.022,1.416,0.02,2.123
	C22.362,23.868,22.368,24.57,22.394,25.271z"/>
</svg>