<?xml version="1.0" encoding="utf-8"?>
<!-- Generator: Adobe Illustrator 21.1.0, SVG Export Plug-In . SVG Version: 6.00 Build 0)  -->
<svg version="1.1" id="designs" xmlns="http://www.w3.org/2000/svg" xmlns:xlink="http://www.w3.org/1999/xlink" x="0px" y="0px"
	 width="32px" height="32px" viewBox="0 0 32 32" style="enable-background:new 0 0 32 32;" xml:space="preserve">
<style type="text/css">
	.sketchy_een{fill:#111918;}
</style>
<path class="sketchy_een" d="M29.984,26.434c-0.008-0.391-0.024-0.781-0.034-1.174c-0.024-0.817-0.05-1.636-0.085-2.454
	c-0.038-0.841-0.046-1.68-0.069-2.521c-0.01-0.405-0.028-0.807-0.022-1.212c0.004-0.436,0.018-0.871,0.024-1.307
	c0.024-1.355-0.03-2.71-0.083-4.063c-0.024-0.637-0.018-1.271-0.012-1.908c0.007-0.701-0.003-1.402-0.025-2.103
	c0.161-0.153,0.265-0.365,0.265-0.603c0-0.422-0.358-0.84-0.794-0.841c-0.015,0-0.03,0-0.045,0.001
	c-0.526,0.032-1.049,0.05-1.573,0.085c-0.54,0.036-1.079,0.073-1.619,0.097c-1.101,0.048-2.205-0.01-3.306-0.056
	c-0.034-0.078-0.071-0.156-0.105-0.234c-0.119-0.29-0.229-0.581-0.341-0.874c-0.157-0.408-0.333-0.809-0.507-1.211
	c-0.23-0.564-0.434-1.14-0.656-1.707c-0.053-0.138-0.125-0.251-0.216-0.351c-0.141-0.234-0.388-0.397-0.678-0.403
	c-0.595-0.012-1.19-0.05-1.785-0.075c-0.7-0.032-1.406-0.012-2.109-0.006c-0.7,0.006-1.4,0.044-2.103,0.048
	c-0.801,0.006-1.601-0.024-2.4-0.068c-0.012-0.001-0.025-0.001-0.037-0.001c-0.336,0-0.617,0.249-0.726,0.555
	c-0.069,0.086-0.127,0.181-0.163,0.291c-0.133,0.409-0.256,0.823-0.405,1.228c-0.131,0.359-0.28,0.712-0.426,1.067
	c-0.147,0.355-0.28,0.718-0.419,1.077c-0.082,0.216-0.154,0.436-0.23,0.654C8.407,8.403,7.51,8.414,6.614,8.436
	C6.029,8.452,5.442,8.47,4.857,8.448C4.202,8.425,3.545,8.367,2.895,8.298C2.879,8.296,2.863,8.295,2.847,8.295
	c-0.186,0-0.389,0.111-0.513,0.235C2.255,8.609,2.198,8.705,2.158,8.808C2.087,8.936,2.035,9.077,2.03,9.232
	c-0.032,0.964-0.034,1.928-0.026,2.894c0.006,0.857-0.002,1.714,0.002,2.573c0.006,0.905,0.01,1.811,0.008,2.718
	c-0.002,0.877,0.028,1.754,0.036,2.63c0.014,1.333,0.036,2.666,0.048,3.997c0.006,0.629,0.006,1.256-0.002,1.882
	c-0.004,0.258-0.006,0.516-0.01,0.776C2.079,26.999,2.05,27.3,2.069,27.6c0.03,0.474,0.375,0.873,0.873,0.873
	c0.1,0,0.196-0.026,0.289-0.06c0.081,0.027,0.163,0.053,0.252,0.057c1.726,0.069,3.451,0.016,5.177,0.014
	c1.686-0.002,3.372,0,5.058,0.014c1.64,0.012,3.283-0.006,4.925-0.006c0.859,0.002,1.718,0.016,2.577-0.012
	c0.801-0.026,1.601-0.046,2.404-0.061c0.889-0.02,1.781-0.012,2.672-0.006c0.815,0.008,1.64,0.04,2.452-0.053
	c0.028-0.003,0.051-0.013,0.077-0.017c0.104,0.046,0.216,0.073,0.332,0.073c0.218,0,0.43-0.087,0.585-0.242
	c0.165-0.165,0.224-0.359,0.242-0.585C30.014,27.205,29.994,26.819,29.984,26.434z M27.413,26.82c-0.373,0.01-0.746,0.02-1.117,0.02
	c-0.825,0-1.65-0.008-2.476,0.018c-0.811,0.024-1.621,0.054-2.43,0.085c-0.547,0.022-1.097,0.018-1.644,0.014
	c-0.302-0.002-0.601-0.004-0.901-0.002c-1.65,0.012-3.301-0.004-4.949-0.02c-1.658-0.014-3.317-0.05-4.975-0.052
	c-0.875,0-1.75-0.006-2.624-0.024c-0.833-0.018-1.663-0.059-2.495-0.104c-0.033-1.336-0.054-2.674-0.066-4.009
	c-0.008-0.901-0.01-1.799-0.014-2.7c-0.002-0.877-0.032-1.754-0.026-2.63c0.008-1.347,0.028-2.694,0.026-4.041
	c-0.002-1.151,0.032-2.3,0.075-3.448c0.327,0.017,0.654,0.048,0.982,0.049c0.605,0.002,1.21-0.026,1.813-0.038
	C7.683,9.914,8.77,9.97,9.859,9.97c0.251,0,0.469-0.126,0.619-0.31c0.136-0.108,0.25-0.247,0.305-0.424
	c0.117-0.387,0.252-0.77,0.393-1.15c0.147-0.394,0.28-0.793,0.439-1.181c0.135-0.312,0.276-0.624,0.394-0.941
	c0.102-0.276,0.196-0.554,0.291-0.832c1.295,0.025,2.591-0.025,3.886-0.049c0.688-0.014,1.383-0.04,2.071-0.006
	c0.417,0.02,0.833,0.053,1.249,0.083c0.311,0.764,0.628,1.525,0.952,2.284c0.311,0.758,0.595,1.525,0.941,2.269
	c0.087,0.187,0.305,0.329,0.496,0.381c0.156,0.043,0.317,0.023,0.469-0.025c0.002,0,0.004,0.001,0.007,0.001
	c1.176,0.036,2.351,0.04,3.527-0.02c0.694-0.035,1.388-0.067,2.083-0.091c0.031,0.753,0.058,1.504,0.071,2.257
	c0.014,0.809,0.058,1.613,0.101,2.418c0.048,0.867,0.056,1.736,0.063,2.602c0.008,0.815-0.042,1.631-0.012,2.446
	c0.052,1.371,0.085,2.743,0.095,4.114c0.004,0.633,0.022,1.264,0.042,1.894c0.01,0.358,0.02,0.718,0.021,1.077
	C28.043,26.8,27.728,26.813,27.413,26.82z M22.108,18.329c0.001-0.01,0.003-0.019,0.004-0.028c0.005-0.033,0.01-0.067,0.014-0.1
	c-0.012,0.091-0.024,0.181-0.036,0.27C22.096,18.422,22.102,18.376,22.108,18.329z M22.07,15.794
	c-0.046-0.337-0.117-0.659-0.228-0.98c-0.143-0.417-0.357-0.811-0.577-1.188c-0.341-0.585-0.799-1.109-1.299-1.563
	c-0.678-0.613-1.51-0.956-2.39-1.162c-0.146-0.034-0.293-0.037-0.433-0.012c-0.163-0.269-0.45-0.463-0.773-0.463
	c-0.013,0-0.027,0-0.04,0.001c-0.623,0.03-1.236,0.087-1.851,0.2c-0.53,0.099-1.027,0.323-1.519,0.533
	c-0.419,0.181-0.819,0.381-1.196,0.639c-0.446,0.307-0.821,0.698-1.162,1.117c-0.359,0.44-0.668,0.912-0.906,1.428
	c-0.23,0.494-0.377,1.027-0.508,1.555c-0.127,0.518-0.22,1.059-0.234,1.595c-0.014,0.551,0.069,1.117,0.179,1.654
	c0.103,0.506,0.315,0.988,0.522,1.456c0.216,0.492,0.494,0.96,0.833,1.375c0.676,0.829,1.597,1.371,2.593,1.74
	c0.488,0.181,0.988,0.319,1.5,0.417c0.544,0.101,1.101,0.178,1.652,0.131c0.547-0.048,1.103-0.117,1.63-0.274
	c0.577-0.173,1.101-0.431,1.579-0.799c0.194-0.151,0.403-0.302,0.569-0.486c0.157-0.175,0.305-0.355,0.448-0.54
	c0.292-0.375,0.595-0.758,0.811-1.184c0.429-0.852,0.706-1.742,0.843-2.682c0.011-0.08,0.021-0.16,0.032-0.239
	c0.046-0.339,0.04-0.684,0.026-1.026C22.152,16.619,22.126,16.206,22.07,15.794z M20.448,17.966c-0.1,0.588-0.257,1.16-0.472,1.717
	c-0.221,0.479-0.489,0.919-0.802,1.346c-0.135,0.168-0.271,0.334-0.416,0.492c-0.108,0.12-0.231,0.226-0.357,0.328
	c-0.21,0.145-0.423,0.275-0.651,0.388c-0.406,0.152-0.819,0.266-1.247,0.344c-0.42,0.045-0.832,0.054-1.253,0.015
	c-0.641-0.109-1.26-0.283-1.865-0.518c-0.386-0.176-0.751-0.377-1.098-0.619c-0.202-0.175-0.383-0.363-0.554-0.568
	c-0.254-0.367-0.46-0.762-0.642-1.169c-0.171-0.441-0.298-0.883-0.379-1.349c-0.042-0.454-0.053-0.898-0.01-1.353
	c0.103-0.662,0.266-1.313,0.486-1.947c0.183-0.394,0.398-0.761,0.647-1.117c0.245-0.298,0.511-0.565,0.805-0.816
	c0.418-0.279,0.864-0.495,1.325-0.697c0.218-0.087,0.438-0.169,0.666-0.235c0.231-0.068,0.47-0.107,0.708-0.142
	c0.348-0.031,0.694-0.051,1.042-0.068c0.037-0.002,0.075-0.006,0.111-0.011c0.134,0.25,0.364,0.449,0.654,0.528
	c0.305,0.083,0.611,0.173,0.906,0.285c0.202,0.099,0.392,0.213,0.575,0.342c0.305,0.258,0.581,0.547,0.834,0.856
	c0.269,0.377,0.5,0.777,0.698,1.197c0.115,0.308,0.195,0.62,0.25,0.944C20.473,16.747,20.498,17.36,20.448,17.966z M6.801,12.529
	c0,0.462-0.385,0.847-0.847,0.847c-0.462,0-0.847-0.385-0.847-0.847c0-0.462,0.385-0.847,0.847-0.847
	C6.416,11.682,6.801,12.067,6.801,12.529z M19.009,16.24c0.02,0.264,0.052,0.536,0.035,0.8c-0.015,0.288-0.046,0.571-0.086,0.858
	c-0.026,0.19-0.086,0.378-0.145,0.56c-0.076,0.231-0.16,0.458-0.26,0.679c-0.236,0.523-0.675,0.934-1.141,1.256
	c-0.525,0.361-1.128,0.504-1.753,0.554c-0.471,0.037-0.867-0.422-0.867-0.865c0-0.456,0.394-0.888,0.867-0.867
	c0.092,0.005,0.183,0.004,0.274-0.003c0.117-0.024,0.231-0.053,0.343-0.091c0.141-0.07,0.273-0.153,0.403-0.243
	c0.099-0.087,0.191-0.18,0.281-0.277c0.071-0.105,0.132-0.212,0.187-0.326c0.093-0.245,0.168-0.494,0.22-0.751
	c0.018-0.168,0.032-0.338,0.026-0.504c-0.011-0.26-0.03-0.519-0.05-0.78c-0.039-0.454,0.408-0.833,0.834-0.833
	c0.22,0,0.434,0.087,0.59,0.244C18.931,15.816,18.992,16.013,19.009,16.24z"/>
</svg>