<?xml version="1.0" encoding="utf-8"?>
<!-- Generator: Adobe Illustrator 21.1.0, SVG Export Plug-In . SVG Version: 6.00 Build 0)  -->
<svg version="1.1" id="designs" xmlns="http://www.w3.org/2000/svg" xmlns:xlink="http://www.w3.org/1999/xlink" x="0px" y="0px"
	 width="32px" height="32px" viewBox="0 0 32 32" style="enable-background:new 0 0 32 32;" xml:space="preserve">
<style type="text/css">
	.sketchy_een{fill:#111918;}
</style>
<path class="sketchy_een" d="M29.948,25.951c-0.03-0.253-0.082-0.462-0.269-0.647c-0.011-0.011-0.028-0.016-0.04-0.026
	c-0.048-0.137-0.122-0.262-0.227-0.363c-0.041-0.13-0.113-0.253-0.208-0.366c-0.303-0.358-0.621-0.707-0.926-1.063
	c-0.318-0.372-0.637-0.744-0.957-1.115c-0.638-0.742-1.265-1.497-1.87-2.266c-0.372-0.482-0.745-0.964-1.119-1.446
	c0.006,0.008,0.011,0.015,0.017,0.023c-0.407-0.53-0.815-1.059-1.243-1.571c-0.42-0.502-0.856-0.987-1.267-1.496
	c-0.501-0.667-0.963-1.358-1.42-2.055c-0.168-0.254-0.443-0.41-0.729-0.41c-0.028,0-0.055,0.008-0.083,0.011
	c-0.142-0.078-0.303-0.12-0.478-0.129c-0.136-0.007-0.271-0.015-0.407-0.028c0.037,0.004,0.075,0.008,0.113,0.011
	c-0.853-0.084-1.71-0.104-2.568-0.115c0.004-0.231-0.009-0.464-0.019-0.693c-0.014-0.316-0.004-0.627,0.022-0.943
	c0.014-0.158,0.026-0.317,0.039-0.476c0.042-0.006,0.083-0.013,0.124-0.022c0.203-0.042,0.404-0.092,0.601-0.153
	c0.456-0.143,0.868-0.368,1.266-0.629c0.559-0.368,0.977-0.924,1.246-1.531c0.179-0.404,0.273-0.794,0.285-1.24
	c0.006-0.273-0.058-0.553-0.121-0.816c-0.058-0.243-0.167-0.496-0.275-0.719c-0.096-0.199-0.201-0.392-0.33-0.571
	c-0.317-0.434-0.655-0.83-1.087-1.154c-0.49-0.368-1.099-0.603-1.708-0.667c-0.156-0.016-0.31-0.024-0.464-0.024
	c-0.339,0-0.674,0.037-1.015,0.101c-0.295,0.056-0.577,0.147-0.852,0.271c-0.307,0.137-0.571,0.36-0.828,0.575
	C12.801,4.5,12.503,4.84,12.216,5.191c-0.157,0.191-0.263,0.376-0.263,0.633c0,0.237,0.096,0.466,0.263,0.633
	c0.165,0.167,0.396,0.263,0.633,0.263c0.215,0,0.492-0.088,0.633-0.263c0.33-0.407,0.671-0.795,1.073-1.131
	c0.073-0.048,0.146-0.093,0.224-0.133c0.22-0.076,0.444-0.13,0.674-0.17C15.701,5,15.949,4.999,16.198,5.02
	c0.116,0.023,0.229,0.052,0.342,0.09c0.158,0.074,0.31,0.155,0.456,0.252c0.173,0.151,0.327,0.32,0.474,0.498
	c0.15,0.211,0.278,0.427,0.391,0.659c0.063,0.174,0.114,0.349,0.151,0.531c0.008,0.107,0.01,0.213,0.005,0.321
	c-0.025,0.119-0.056,0.235-0.097,0.349c-0.092,0.187-0.194,0.363-0.312,0.535c-0.067,0.073-0.137,0.142-0.211,0.208
	c-0.226,0.161-0.462,0.304-0.711,0.422c-0.197,0.069-0.394,0.128-0.599,0.174c-0.1,0.022-0.199,0.04-0.299,0.058
	c-0.058,0.008-0.113,0.018-0.169,0.026c-0.139,0.022-0.233,0.066-0.368,0.123c-0.498,0.211-0.605,0.79-0.639,1.266
	c-0.016,0.225-0.022,0.452-0.03,0.677c-0.016,0.476-0.01,0.949,0.004,1.427c0.002,0.089-0.002,0.179-0.001,0.268
	c-0.238,0.005-0.476,0.003-0.714,0.011c-0.417,0.014-0.834,0.031-1.251,0.045c-0.133,0.005-0.257,0.041-0.371,0.097
	c-0.054-0.01-0.105-0.03-0.159-0.03c-0.214,0-0.425,0.077-0.573,0.244c-1.143,1.282-2.353,2.498-3.438,3.83
	c-0.267,0.326-0.523,0.665-0.796,0.987c-0.279,0.33-0.565,0.653-0.852,0.975c-0.587,0.661-1.156,1.334-1.688,2.04
	c-0.848,1.127-1.668,2.271-2.48,3.426c-0.11,0.158-0.125,0.348-0.089,0.531c-0.082,0.135-0.142,0.284-0.142,0.437
	c0,0.141,0.045,0.273,0.11,0.395c-0.075,0.197-0.132,0.396-0.141,0.612c-0.008,0.193,0.02,0.388,0.064,0.577
	c0.034,0.149,0.062,0.303,0.104,0.452c0.056,0.197,0.153,0.412,0.303,0.557c0.243,0.235,0.523,0.32,0.852,0.352
	c0.408,0.042,0.824,0.03,1.236,0.03c0.444,0,0.89-0.004,1.336-0.008c1.75-0.014,3.501-0.016,5.253,0.03
	c1.702,0.046,3.404,0.042,5.108,0.062c1.74,0.02,3.475,0.155,5.217,0.173c0.904,0.008,1.807,0.006,2.709,0.006
	c0.663-0.002,1.326-0.004,1.989-0.002c0.78,0.002,1.559-0.004,2.337-0.044c0.408-0.02,0.812-0.094,1.095-0.422
	c0.299-0.346,0.358-0.758,0.388-1.2C30.016,26.695,29.99,26.323,29.948,25.951z M4.995,23.516c0.434-0.594,0.874-1.185,1.313-1.777
	c0.009-0.012,0.018-0.024,0.027-0.035c0.468-0.603,0.987-1.164,1.492-1.733c0.555-0.623,1.069-1.276,1.586-1.927
	c0.474-0.593,0.977-1.164,1.501-1.714c0.497-0.522,1.001-1.037,1.492-1.564c0.089,0.026,0.18,0.051,0.277,0.047
	c0.891-0.03,1.785-0.052,2.676-0.067c0.494-0.009,0.985-0.017,1.479-0.026c0.498-0.009,0.995-0.027,1.493,0.011
	c0.206,0.023,0.411,0.05,0.619,0.07c0.111,0.011,0.213,0.013,0.313,0.005c0.454,0.667,0.92,1.326,1.419,1.96
	c0.539,0.685,1.123,1.331,1.668,2.013c0.442,0.58,0.877,1.162,1.322,1.737c-0.004-0.005-0.008-0.01-0.011-0.015
	c0.345,0.45,0.69,0.901,1.051,1.339c0.358,0.434,0.723,0.862,1.083,1.292c0.438,0.522,0.884,1.037,1.33,1.553
	c-0.258-0.001-0.516-0.004-0.774,0.001c-0.82,0.012-1.638,0.066-2.458,0.096c-1.716,0.064-3.428-0.028-5.143-0.048
	c-0.876-0.01-1.752-0.008-2.627-0.006c-0.874,0.004-1.75,0.006-2.623-0.006c-1.746-0.022-3.489-0.106-5.233-0.066
	c-0.42,0.01-0.838,0.038-1.258,0.056c-0.44,0.02-0.882,0.022-1.324,0.028c-0.432,0.004-0.864,0.01-1.298-0.002
	c-0.093-0.002-0.185-0.013-0.278-0.017C4.404,24.321,4.701,23.92,4.995,23.516z M26.118,27.036
	c-0.832-0.006-1.662-0.008-2.492-0.008c-1.702-0.002-3.406,0.01-5.106-0.068c-1.754-0.082-3.515-0.034-5.271-0.032
	c-1.696,0-3.39-0.062-5.086-0.068c-0.798-0.004-1.596-0.006-2.395-0.018c-0.657-0.012-1.317-0.021-1.973-0.08
	c-0.01-0.049-0.019-0.098-0.028-0.147c0-0.002,0-0.005,0-0.007c0.013-0.05,0.029-0.098,0.047-0.148
	c0.009-0.021,0.018-0.041,0.027-0.062c0.156,0.006,0.311,0.022,0.467,0.022c0.434,0,0.866-0.016,1.298-0.03
	c0.872-0.028,1.744-0.076,2.614-0.105c1.722-0.062,3.44,0.03,5.161,0.042c1.773,0.012,3.547,0.004,5.319,0.018
	c1.684,0.012,3.368,0.137,5.054,0.084c0.844-0.026,1.69-0.04,2.536-0.054c0.4-0.004,0.8,0.01,1.202,0.026
	c0.228,0.008,0.457,0.006,0.686,0.01c0.019,0.188,0.029,0.373,0.023,0.559C27.509,27.034,26.814,27.041,26.118,27.036z
	 M28.334,27.006L28.334,27.006L28.334,27.006L28.334,27.006z"/>
</svg>