<?xml version="1.0" encoding="utf-8"?>
<!-- Generator: Adobe Illustrator 21.1.0, SVG Export Plug-In . SVG Version: 6.00 Build 0)  -->
<svg version="1.1" id="designs" xmlns="http://www.w3.org/2000/svg" xmlns:xlink="http://www.w3.org/1999/xlink" x="0px" y="0px"
	 width="32px" height="32px" viewBox="0 0 32 32" style="enable-background:new 0 0 32 32;" xml:space="preserve">
<style type="text/css">
	.sketchy_een{fill:#111918;}
</style>
<path class="sketchy_een" d="M30.808,11.448c-0.139-0.398-0.334-0.738-0.588-1.072c-0.137-0.176-0.268-0.357-0.418-0.523
	c-0.154-0.17-0.346-0.307-0.541-0.428c-0.389-0.242-0.867-0.383-1.311-0.488c-0.443-0.104-0.902-0.16-1.355-0.18
	c-0.111-0.004-0.224-0.008-0.336-0.008c-0.077,0-0.154,0.002-0.23,0.006c-0.092,0.005-0.183,0.024-0.274,0.035
	c0.032-0.117,0.07-0.233,0.093-0.353c0.045-0.242,0.068-0.49,0.096-0.736c0.023-0.213,0.037-0.426,0.031-0.641
	c-0.008-0.234-0.037-0.465-0.074-0.697c-0.033-0.225-0.121-0.424-0.211-0.631c-0.076-0.182-0.189-0.35-0.307-0.506
	c-0.158-0.209-0.326-0.404-0.523-0.574c-0.188-0.16-0.387-0.309-0.594-0.439c-0.217-0.135-0.469-0.221-0.707-0.309
	c-0.412-0.152-0.873-0.182-1.311-0.188c-0.011,0-0.022,0-0.033,0c-0.937,0-1.749,0.566-2.215,1.358
	c-0.191,0.322-0.326,0.678-0.396,1.045c-0.111,0.572-0.039,1.139,0.268,1.643c0.219,0.357,0.496,0.682,0.869,0.887
	c0.449,0.248,0.986,0.295,1.479,0.164c0.457-0.121,0.73-0.615,0.605-1.066c-0.059-0.217-0.205-0.406-0.398-0.52
	c-0.204-0.12-0.414-0.13-0.64-0.091c-0.02,0-0.04,0.001-0.059,0c-0.042-0.01-0.084-0.021-0.126-0.035
	c-0.02-0.011-0.04-0.023-0.059-0.035c-0.04-0.039-0.078-0.079-0.115-0.12c-0.048-0.071-0.093-0.144-0.135-0.22
	c-0.012-0.039-0.023-0.078-0.032-0.118c-0.001-0.075,0.002-0.15,0.008-0.225c0.023-0.12,0.052-0.236,0.092-0.351
	c0.056-0.116,0.118-0.226,0.189-0.333c0.055-0.06,0.113-0.117,0.174-0.17c0.065-0.044,0.131-0.083,0.201-0.119
	c0.06-0.02,0.12-0.036,0.181-0.05c0.194-0.01,0.389,0.001,0.583,0.021c0.163,0.031,0.319,0.077,0.475,0.135
	c0.154,0.074,0.297,0.158,0.439,0.256c0.137,0.116,0.262,0.242,0.38,0.378c0.086,0.127,0.161,0.261,0.228,0.399
	c0.037,0.109,0.064,0.22,0.086,0.333c0.036,0.361,0.021,0.724-0.016,1.085c-0.076,0.419-0.235,0.815-0.382,1.215
	c-0.367,0.152-0.725,0.336-1.068,0.535c-0.373,0.217-0.729,0.465-1.062,0.74c-0.27,0.221-0.523,0.449-0.758,0.711
	c-0.063,0.07-0.117,0.15-0.176,0.224c-0.014-0.014-0.023-0.031-0.037-0.045c-0.315-0.3-0.724-0.508-1.146-0.631
	c0.044-0.103,0.07-0.212,0.059-0.315c-0.047-0.447-0.123-0.854-0.305-1.266c-0.197-0.451-0.539-0.807-0.9-1.131
	c-0.139-0.125-0.283-0.242-0.432-0.354c-0.088-0.064-0.174-0.129-0.264-0.191c-0.188-0.131-0.41-0.223-0.621-0.305
	c-0.37-0.145-0.748-0.225-1.143-0.225c-0.01,0-0.019,0-0.028,0c-0.227,0-0.469,0.053-0.693,0.092
	c-0.365,0.064-0.723,0.242-1.027,0.453c-0.227,0.158-0.445,0.324-0.631,0.531c-0.113,0.125-0.219,0.254-0.322,0.387
	c-0.299,0.385-0.561,0.797-0.645,1.287c-0.066,0.377-0.062,0.746,0.039,1.119c0.013,0.048,0.036,0.092,0.051,0.14
	c-0.221,0.079-0.437,0.178-0.639,0.292c-0.213,0.121-0.406,0.293-0.592,0.453c-0.133,0.115-0.258,0.238-0.375,0.367
	c-0.111,0.121-0.217,0.25-0.301,0.391c-0.113,0.184-0.201,0.416-0.277,0.615c-0.064,0.176-0.121,0.352-0.158,0.533
	c-0.031,0.152-0.051,0.309-0.07,0.463c-0.008,0.066,0.006,0.129,0.005,0.192c-0.122,0.008-0.245,0.029-0.359,0.089
	c-0.344,0.18-0.656,0.371-0.951,0.627c-0.131,0.111-0.24,0.25-0.352,0.379c-0.148,0.174-0.287,0.361-0.416,0.551
	c-0.205,0.301-0.352,0.631-0.48,0.971c-0.083,0.222-0.109,0.462-0.104,0.703c-0.262,0.081-0.517,0.174-0.763,0.294
	c-0.152,0.074-0.309,0.199-0.434,0.305c-0.078,0.066-0.145,0.129-0.209,0.207c-0.115,0.141-0.229,0.287-0.326,0.441
	c-0.191,0.296-0.32,0.625-0.433,0.957c-0.039-0.022-0.074-0.049-0.115-0.067c-0.148-0.07-0.312-0.141-0.471-0.189
	c-0.256-0.08-0.518-0.113-0.783-0.146c-0.067-0.008-0.134-0.011-0.202-0.011c-0.117,0-0.234,0.01-0.349,0.025
	c-0.156,0.021-0.277,0.033-0.422,0.08c-0.125,0.041-0.258,0.107-0.379,0.168c-0.104,0.051-0.201,0.111-0.297,0.178
	c-0.311,0.207-0.58,0.455-0.779,0.773c-0.121,0.191-0.221,0.393-0.312,0.6c-0.105,0.244-0.213,0.486-0.283,0.744
	s-0.107,0.525-0.139,0.793c-0.031,0.27-0.031,0.521,0.008,0.793c0.057,0.389,0.234,0.748,0.451,1.072
	c0.203,0.305,0.455,0.553,0.75,0.766c0.244,0.174,0.535,0.291,0.816,0.393c0.418,0.154,0.846,0.227,1.289,0.268
	c0.323,0.029,0.672,0.055,1.003,0.009c0.011,0.044,0.017,0.089,0.029,0.133c0.109,0.408,0.316,0.816,0.611,1.121
	c0.166,0.17,0.375,0.305,0.564,0.447c0.07,0.055,0.143,0.107,0.217,0.16c0.182,0.125,0.389,0.203,0.596,0.273
	c0.104,0.035,0.225,0.053,0.334,0.068c0.195,0.029,0.389,0.057,0.586,0.064c0.197,0.006,0.4-0.045,0.594-0.074
	c0.109-0.016,0.215-0.037,0.322-0.061c0.436-0.094,0.877-0.223,1.268-0.439c0.217-0.119,0.416-0.289,0.596-0.455
	c0.133-0.123,0.26-0.248,0.375-0.387c0.242-0.291,0.406-0.59,0.523-0.953c0.065-0.201,0.094-0.411,0.122-0.621
	c0.317,0.002,0.634-0.027,0.937-0.114c0.021-0.006,0.04-0.016,0.06-0.023c0.022,0.174,0.049,0.347,0.102,0.513
	c0.092,0.297,0.303,0.543,0.498,0.777c0.121,0.146,0.256,0.281,0.4,0.4c0.285,0.232,0.561,0.424,0.902,0.562
	c0.406,0.162,0.875,0.258,1.314,0.236c0.414-0.021,0.832-0.068,1.219-0.221c0.311-0.125,0.57-0.291,0.826-0.506
	c0.135-0.113,0.264-0.232,0.385-0.359c0.256-0.268,0.494-0.568,0.689-0.885c0.205-0.338,0.346-0.732,0.412-1.121
	c0.04-0.235,0.053-0.462,0.048-0.688c0.025,0.005,0.048,0.014,0.074,0.019c0.324,0.059,0.66,0.117,0.99,0.084
	c0.266-0.027,0.529-0.061,0.781-0.158c0.311-0.119,0.611-0.26,0.883-0.455c0.279-0.199,0.523-0.436,0.762-0.682
	c0.188-0.191,0.342-0.422,0.498-0.639c0.148-0.205,0.254-0.453,0.35-0.684c0.156-0.383,0.293-0.793,0.359-1.201
	c0.018-0.111,0.039-0.227,0.047-0.338c0.016-0.182,0.002-0.338-0.027-0.518c-0.041-0.264-0.152-0.502-0.26-0.742
	c-0.17-0.379-0.41-0.707-0.688-1.014c-0.312-0.348-0.68-0.656-1.08-0.898c-0.242-0.145-0.494-0.271-0.752-0.387
	c-0.043-0.019-0.084-0.031-0.126-0.046c0.19-0.371,0.344-0.766,0.393-1.174c0.057-0.467-0.031-0.947-0.131-1.402
	c-0.056-0.258-0.14-0.513-0.228-0.764c0.042-0.044,0.086-0.084,0.125-0.138c0.087-0.118,0.175-0.235,0.263-0.353
	c0.243-0.29,0.509-0.545,0.796-0.79c0.025-0.019,0.049-0.038,0.074-0.057c0.001-0.001,0.003-0.002,0.004-0.003l-0.001,0.001
	c0.054-0.042,0.108-0.084,0.162-0.126c-0.053,0.043-0.107,0.084-0.16,0.125c0.414-0.318,0.895-0.558,1.37-0.777
	c0.414-0.158,0.867-0.221,1.307-0.281c0.462-0.05,0.929-0.019,1.39,0.037c0.373,0.062,0.741,0.164,1.094,0.294
	c0.101,0.05,0.199,0.104,0.293,0.167c0.09,0.083,0.172,0.174,0.25,0.27c0.156,0.207,0.296,0.414,0.41,0.646
	c0.058,0.163,0.1,0.33,0.131,0.499c0.022,0.267,0.007,0.533-0.023,0.8c-0.053,0.342-0.125,0.677-0.243,1.001
	c-0.072,0.153-0.152,0.3-0.244,0.441c-0.064,0.073-0.131,0.141-0.203,0.206c-0.11,0.07-0.225,0.128-0.344,0.183
	c-0.145,0.053-0.29,0.093-0.44,0.123c-0.129,0.012-0.258,0.016-0.388,0.009c-0.177-0.038-0.351-0.096-0.52-0.161
	c-0.058-0.027-0.115-0.057-0.171-0.088c-0.046-0.152-0.078-0.307-0.107-0.462c-0.014-0.148-0.018-0.295-0.011-0.444
	c0.004-0.019,0.008-0.038,0.013-0.057c0.025-0.045,0.053-0.09,0.082-0.133c0.042-0.042,0.086-0.081,0.131-0.12
	c0.081-0.054,0.163-0.104,0.249-0.149c0.118-0.038,0.238-0.064,0.361-0.084c0.377-0.066,0.641-0.482,0.641-0.842
	c0-0.453-0.396-0.904-0.873-0.873c-0.244,0.016-0.488,0.043-0.721,0.121c-0.256,0.088-0.498,0.213-0.725,0.363
	c-0.441,0.291-0.809,0.727-0.955,1.24c-0.074,0.256-0.084,0.537-0.082,0.805c0.002,0.271,0.051,0.545,0.104,0.812
	c0.105,0.529,0.32,1.025,0.783,1.336c0.369,0.246,0.809,0.393,1.232,0.514c0.279,0.08,0.604,0.104,0.895,0.068
	c0.348-0.041,0.695-0.084,1.021-0.221c0.332-0.139,0.643-0.273,0.928-0.502c0.268-0.215,0.479-0.473,0.664-0.762
	c0.104-0.16,0.18-0.346,0.254-0.521c0.109-0.258,0.211-0.51,0.27-0.783c0.098-0.459,0.168-0.922,0.197-1.391
	C31.021,12.358,30.957,11.877,30.808,11.448z M20.074,13.16c0.152,0.408,0.25,0.838,0.318,1.269
	c0.013,0.153,0.015,0.304,0.004,0.456c-0.027,0.124-0.065,0.242-0.109,0.359c-0.103,0.226-0.223,0.44-0.365,0.644
	c-0.083,0.098-0.173,0.188-0.27,0.272c-0.071,0.046-0.144,0.088-0.221,0.126c-0.145,0.05-0.292,0.089-0.443,0.118
	c-0.082,0.004-0.162,0.003-0.243-0.004c-0.2-0.034-0.397-0.08-0.59-0.146c-0.171-0.082-0.334-0.179-0.489-0.286
	c-0.068-0.059-0.132-0.121-0.193-0.188c-0.145-0.214-0.255-0.441-0.362-0.679c-0.056-0.124-0.173-0.216-0.3-0.29
	c0.013-0.034,0.028-0.069,0.041-0.103c0.16-0.43,0.191-0.895,0.199-1.348c0.005-0.211-0.018-0.419-0.051-0.627
	c0.317-0.163,0.636-0.32,0.963-0.465c0.112-0.045,0.225-0.087,0.343-0.116c0.18-0.006,0.361,0.002,0.541,0.018
	c0.138,0.027,0.272,0.064,0.404,0.112c0.106,0.051,0.208,0.108,0.306,0.174c0.095,0.083,0.182,0.171,0.265,0.266
	C19.918,12.865,20.001,13.008,20.074,13.16z M16.397,20.358c-0.193,0.015-0.384,0.014-0.577-0.001
	c-0.245-0.049-0.487-0.116-0.723-0.204c-0.116-0.06-0.227-0.127-0.335-0.2c-0.064-0.06-0.123-0.122-0.18-0.188
	c-0.11-0.152-0.214-0.308-0.297-0.476c-0.047-0.126-0.085-0.255-0.114-0.388c-0.009-0.154-0.005-0.305,0.008-0.459
	c0.077-0.382,0.25-0.754,0.381-1.119c0.027-0.076,0.024-0.154,0.022-0.231c0.083-0.031,0.163-0.057,0.25-0.094
	c0.367-0.157,0.702-0.4,0.989-0.683c0.187,0.346,0.413,0.663,0.731,0.915c0.396,0.312,0.848,0.561,1.338,0.691
	c0.076,0.021,0.154,0.031,0.231,0.046c0.004,0.027-0.002,0.054,0.005,0.082c0.01,0.039,0.02,0.079,0.029,0.118
	c0.007,0.13,0.002,0.259-0.01,0.39c-0.033,0.185-0.08,0.365-0.144,0.542c-0.067,0.143-0.143,0.282-0.233,0.412
	c-0.114,0.137-0.238,0.262-0.374,0.377c-0.195,0.139-0.397,0.257-0.612,0.359C16.656,20.293,16.529,20.33,16.397,20.358z
	 M13.632,22.737c-0.022,0.029-0.045,0.059-0.067,0.088c0.021-0.027,0.042-0.055,0.062-0.082c0.02-0.026,0.04-0.052,0.059-0.078
	c-0.002,0.002-0.004,0.005-0.006,0.008c-0.014,0.019-0.028,0.037-0.043,0.056c-0.004,0.005-0.007,0.009-0.011,0.014
	C13.629,22.741,13.631,22.739,13.632,22.737z M14.276,10.02c0.011-0.054,0.024-0.106,0.04-0.159c0.077-0.147,0.166-0.284,0.262-0.42
	c0.135-0.165,0.276-0.327,0.435-0.468c0.157-0.112,0.32-0.213,0.492-0.299c0.113-0.037,0.229-0.059,0.346-0.078
	c0.134-0.012,0.266-0.014,0.4-0.005c0.14,0.03,0.274,0.072,0.409,0.121c0.168,0.083,0.321,0.181,0.471,0.29
	c0.22,0.188,0.438,0.384,0.627,0.604c0.054,0.08,0.102,0.16,0.146,0.244c0.028,0.088,0.05,0.175,0.067,0.266
	c0.01,0.096,0.019,0.192,0.027,0.289c0.006,0.068,0.026,0.127,0.04,0.189c-0.161,0.027-0.318,0.067-0.467,0.126
	c-0.505,0.196-1.001,0.413-1.483,0.661c-0.108-0.114-0.238-0.196-0.395-0.254c-0.211-0.076-0.42-0.15-0.631-0.225
	c-0.185-0.063-0.374-0.098-0.565-0.125c-0.044-0.074-0.093-0.146-0.132-0.224c-0.038-0.104-0.069-0.208-0.096-0.315
	C14.268,10.164,14.271,10.092,14.276,10.02z M14.332,12.424c-0.042-0.006-0.083-0.011-0.125-0.017c0.002,0,0.005,0,0.007,0
	C14.254,12.413,14.293,12.418,14.332,12.424z M12.057,14.082c0.03-0.165,0.074-0.324,0.131-0.482
	c0.052-0.115,0.106-0.229,0.17-0.339c0.159-0.184,0.335-0.351,0.523-0.506c0.115-0.081,0.232-0.152,0.357-0.214
	c0.158-0.058,0.317-0.104,0.479-0.142c0.154-0.009,0.306-0.004,0.462,0.006c0.364,0.064,0.718,0.237,1.059,0.364
	c0.031,0.012,0.064,0.02,0.097,0.026c0.019,0.06,0.034,0.121,0.047,0.183c0.017,0.255-0.003,0.52-0.032,0.775
	c-0.037,0.205-0.096,0.4-0.173,0.595c-0.097,0.212-0.209,0.41-0.345,0.6c-0.09,0.11-0.183,0.216-0.289,0.311
	c-0.149,0.098-0.306,0.179-0.467,0.255c-0.085,0.031-0.169,0.058-0.257,0.078c-0.057,0.003-0.115,0.004-0.173,0.002
	c-0.184-0.035-0.361-0.084-0.537-0.149c-0.167-0.08-0.32-0.174-0.473-0.281c-0.136-0.117-0.257-0.244-0.372-0.381
	c-0.057-0.086-0.107-0.174-0.154-0.266c-0.025-0.072-0.046-0.144-0.063-0.218C12.047,14.226,12.051,14.154,12.057,14.082z
	 M9.495,17.084c0.104-0.216,0.228-0.414,0.369-0.607c0.113-0.131,0.227-0.26,0.355-0.375c0.198-0.135,0.414-0.24,0.628-0.35
	c0.003-0.001,0.004-0.004,0.007-0.006c0.057,0.074,0.116,0.147,0.173,0.219c0.215,0.271,0.479,0.486,0.762,0.686
	c0.341,0.242,0.74,0.41,1.143,0.519c-0.122,0.342-0.245,0.688-0.299,1.044c-0.033,0.217-0.068,0.436-0.076,0.654
	c0,0.014,0.003,0.028,0.003,0.042c-0.039,0.04-0.077,0.081-0.118,0.119c-0.039,0.022-0.078,0.044-0.118,0.063
	c-0.233,0.085-0.473,0.152-0.718,0.197c-0.19,0.013-0.374,0.003-0.561-0.015c-0.152-0.03-0.3-0.069-0.447-0.122
	c-0.132-0.066-0.259-0.14-0.382-0.222c-0.151-0.138-0.284-0.29-0.412-0.449c-0.123-0.169-0.242-0.343-0.336-0.529
	c-0.032-0.111-0.06-0.223-0.082-0.337c-0.003-0.056-0.004-0.11-0.002-0.167C9.412,17.323,9.45,17.204,9.495,17.084z M7.389,20.062
	c0.072-0.145,0.152-0.284,0.243-0.418c0.038-0.041,0.076-0.081,0.117-0.119c0.11-0.074,0.222-0.14,0.342-0.198
	c0.066-0.025,0.133-0.049,0.2-0.07c0.004-0.001,0.006-0.004,0.01-0.005c0.168,0.249,0.344,0.497,0.55,0.714
	c0.021,0.022,0.047,0.039,0.069,0.06c-0.132,0.187-0.254,0.375-0.347,0.591c-0.078,0.182-0.146,0.363-0.211,0.549
	c-0.064,0.188-0.113,0.381-0.148,0.576c-0.016,0.087-0.019,0.172-0.027,0.257c-0.053-0.054-0.102-0.111-0.171-0.148
	c-0.194-0.104-0.398-0.199-0.584-0.319c-0.059-0.096-0.109-0.195-0.157-0.297c-0.041-0.112-0.075-0.224-0.101-0.34
	c-0.002-0.048-0.003-0.095-0.002-0.143C7.228,20.517,7.303,20.286,7.389,20.062z M4.339,24.335
	c-0.269-0.043-0.527-0.109-0.782-0.204c-0.127-0.057-0.25-0.119-0.367-0.195c-0.07-0.063-0.136-0.128-0.2-0.197
	c-0.079-0.12-0.148-0.244-0.211-0.373c-0.017-0.054-0.031-0.108-0.043-0.162c-0.002-0.097,0.002-0.193,0.01-0.29
	c0.049-0.275,0.119-0.542,0.216-0.804c0.102-0.217,0.213-0.425,0.348-0.623c0.049-0.051,0.099-0.099,0.152-0.145
	c0.09-0.059,0.182-0.109,0.278-0.156c0.03-0.009,0.06-0.017,0.09-0.023c0.121-0.008,0.24-0.008,0.361-0.001
	c0.097,0.019,0.192,0.043,0.287,0.074c0.086,0.041,0.17,0.083,0.251,0.134c0.005,0.004,0.01,0.008,0.014,0.012
	c0.191,0.158,0.383,0.264,0.639,0.264c0.051,0,0.098-0.021,0.148-0.03c0.093,0.229,0.194,0.448,0.314,0.666
	c0.138,0.246,0.323,0.43,0.53,0.589c-0.175,0.184-0.356,0.361-0.514,0.566c-0.192,0.25-0.305,0.551-0.4,0.852
	c-0.045,0.005-0.094-0.005-0.135,0.01c-0.075,0.029-0.147,0.052-0.223,0.069C4.848,24.386,4.593,24.363,4.339,24.335z
	 M10.233,25.489c-0.024,0.043-0.05,0.086-0.077,0.127c-0.127,0.144-0.266,0.273-0.413,0.396c-0.097,0.066-0.195,0.126-0.299,0.18
	c-0.25,0.085-0.512,0.136-0.773,0.18c-0.166,0.018-0.33,0.031-0.497,0.022c-0.107-0.022-0.212-0.047-0.316-0.08
	c-0.158-0.087-0.304-0.192-0.45-0.3c-0.036-0.031-0.072-0.062-0.105-0.095c-0.04-0.065-0.076-0.132-0.109-0.201
	c-0.042-0.118-0.077-0.237-0.104-0.358c-0.002-0.086,0.001-0.172,0.008-0.258c0.029-0.154,0.067-0.305,0.117-0.455
	c0.041-0.081,0.087-0.157,0.138-0.232c0.178-0.207,0.376-0.394,0.578-0.578c0.186-0.169,0.267-0.411,0.259-0.653
	c0.048-0.048,0.101-0.09,0.137-0.152c0.004-0.006,0.003-0.015,0.007-0.021c0.035,0.08,0.071,0.159,0.111,0.236
	c0.178,0.346,0.418,0.676,0.689,0.951c0.174,0.18,0.373,0.344,0.582,0.48c0.2,0.129,0.422,0.219,0.642,0.307
	c-0.007,0.032-0.02,0.06-0.025,0.093c0.003-0.022,0.006-0.044,0.009-0.066C10.317,25.176,10.284,25.333,10.233,25.489z
	 M12.404,23.613c-0.152,0.012-0.299,0.012-0.449-0.001c-0.338-0.059-0.663-0.146-0.985-0.266c-0.113-0.055-0.222-0.116-0.327-0.186
	c-0.119-0.105-0.229-0.219-0.334-0.34c-0.126-0.173-0.248-0.356-0.343-0.546c-0.007-0.023-0.014-0.047-0.02-0.071
	c-0.002-0.064-0.001-0.128,0.003-0.193c0.043-0.207,0.105-0.409,0.178-0.608c0.102-0.206,0.236-0.384,0.373-0.569
	c0.148,0.03,0.295,0.064,0.449,0.083c0.551,0.064,1.104-0.045,1.627-0.211c0.166-0.053,0.328-0.124,0.487-0.197
	c0.102,0.163,0.208,0.324,0.327,0.467c0.248,0.298,0.562,0.515,0.904,0.682c-0.024,0.047-0.062,0.083-0.08,0.134
	c-0.012,0.035-0.024,0.069-0.036,0.103c-0.133,0.273-0.304,0.526-0.488,0.769c-0.187,0.238-0.395,0.448-0.621,0.647
	c-0.134,0.092-0.273,0.171-0.417,0.243C12.569,23.576,12.488,23.596,12.404,23.613z M18.335,24.088
	c-0.027,0.149-0.065,0.294-0.114,0.437c-0.064,0.136-0.136,0.264-0.222,0.388c-0.203,0.242-0.425,0.46-0.667,0.661
	c-0.116,0.084-0.232,0.159-0.358,0.224c-0.132,0.044-0.266,0.076-0.402,0.1c-0.187,0.014-0.373,0.023-0.56,0.011
	c-0.153-0.029-0.303-0.068-0.45-0.12c-0.105-0.055-0.203-0.117-0.302-0.183c-0.146-0.124-0.277-0.257-0.401-0.404
	c-0.012-0.018-0.025-0.036-0.037-0.055c-0.004-0.018-0.008-0.035-0.011-0.052c-0.035-0.321-0.059-0.643-0.088-0.965
	c-0.005-0.056-0.023-0.103-0.033-0.155c0.245-0.292,0.464-0.606,0.659-0.913c0.131-0.205,0.246-0.426,0.342-0.65
	c0.054-0.127,0.084-0.247,0.095-0.37c0.098,0.007,0.194,0.023,0.292,0.024c0.461,0.001,0.899-0.123,1.317-0.303
	c0.079,0.271,0.195,0.528,0.342,0.772c0.156,0.26,0.379,0.509,0.629,0.686c-0.066,0.156-0.095,0.33-0.047,0.502
	c0.009,0.032,0.017,0.063,0.024,0.095C18.345,23.91,18.342,23.999,18.335,24.088z M21.871,18.35c0.214,0.18,0.415,0.375,0.597,0.588
	c0.099,0.157,0.181,0.322,0.257,0.49c0.028,0.075,0.052,0.148,0.071,0.224c0.003,0.115-0.003,0.228-0.013,0.341
	c-0.051,0.296-0.13,0.586-0.229,0.872c-0.087,0.183-0.184,0.353-0.298,0.52c-0.181,0.204-0.376,0.392-0.585,0.564
	c-0.138,0.094-0.282,0.176-0.432,0.249c-0.118,0.041-0.236,0.072-0.358,0.097c-0.162,0.012-0.322,0.011-0.485-0.004
	c-0.219-0.037-0.434-0.081-0.644-0.16c-0.151-0.066-0.3-0.137-0.441-0.222c-0.025-0.024-0.049-0.049-0.072-0.074
	c-0.077-0.119-0.145-0.242-0.206-0.369c-0.04-0.115-0.068-0.23-0.091-0.352c-0.02-0.116-0.09-0.224-0.174-0.318
	c0.209-0.227,0.4-0.47,0.547-0.743c0.178-0.332,0.312-0.691,0.377-1.062c0.043-0.234,0.07-0.473,0.076-0.711
	c0.002-0.119-0.009-0.238-0.026-0.357c0.305-0.084,0.6-0.2,0.854-0.388c0.117,0.183,0.278,0.338,0.504,0.401
	c0.043,0.012,0.085,0.025,0.127,0.039C21.451,18.083,21.664,18.211,21.871,18.35z M22.752,11.702
	c0.021-0.017,0.043-0.034,0.065-0.05c0.001,0,0.002-0.001,0.003-0.002C22.796,11.667,22.774,11.685,22.752,11.702z M26.653,14.925
	L26.653,14.925c0.005,0.003,0.01,0.007,0.014,0.011C26.663,14.933,26.658,14.929,26.653,14.925z"/>
</svg>