<?xml version="1.0" encoding="utf-8"?>
<!-- Generator: Adobe Illustrator 21.1.0, SVG Export Plug-In . SVG Version: 6.00 Build 0)  -->
<svg version="1.1" id="designs" xmlns="http://www.w3.org/2000/svg" xmlns:xlink="http://www.w3.org/1999/xlink" x="0px" y="0px"
	 width="32px" height="32px" viewBox="0 0 32 32" style="enable-background:new 0 0 32 32;" xml:space="preserve">
<style type="text/css">
	.sketchy_een{fill:#111918;}
</style>
<path class="sketchy_een" d="M19.004,24.569c-0.02-0.389-0.02-0.778-0.042-1.167c-0.018-0.36-0.041-0.719-0.063-1.079
	c-0.101-1.588-0.14-3.173-0.16-4.763c-0.022-1.583-0.051-3.167,0.053-4.749c0.049-0.757,0.051-1.515,0.083-2.272
	c0.034-0.786,0.065-1.573,0.063-2.359c-0.002-0.95,0.075-1.891,0.13-2.837c0.015-0.261-0.126-0.488-0.325-0.642
	c-0.032-0.051-0.057-0.106-0.099-0.149c-0.156-0.156-0.369-0.243-0.589-0.243c-0.203,0-0.454,0.081-0.587,0.243
	c-0.324,0.387-0.711,0.725-1.079,1.065C16.008,5.97,15.613,6.3,15.214,6.63c-0.875,0.719-1.704,1.493-2.583,2.205
	c-0.376,0.285-0.761,0.56-1.137,0.846c-0.51,0.387-1.027,0.765-1.551,1.132c-0.041,0.029-0.069,0.064-0.105,0.095
	c-0.023,0-0.046-0.001-0.069-0.001c-0.55,0-1.103,0.049-1.651,0.097c-0.798,0.073-1.596,0.121-2.357,0.393
	c-0.429,0.152-0.857,0.324-1.262,0.531c-0.362,0.184-0.699,0.458-0.976,0.753c-0.283,0.304-0.543,0.63-0.753,0.986
	c-0.231,0.389-0.443,0.788-0.569,1.223c-0.049,0.166-0.081,0.336-0.103,0.506c-0.034,0.251-0.075,0.504-0.091,0.755
	c-0.03,0.482,0.059,0.948,0.213,1.401C2.36,17.973,2.5,18.42,2.749,18.791c0.235,0.35,0.518,0.687,0.85,0.948
	c0.362,0.285,0.757,0.51,1.174,0.705c0.413,0.19,0.844,0.383,1.28,0.512c0.379,0.113,0.788,0.152,1.176,0.219
	c0.48,0.083,0.958,0.138,1.444,0.154c0.346,0.012,0.693-0.001,1.039-0.012c0.414,0.33,0.832,0.656,1.252,0.979
	c-0.021-0.016-0.042-0.032-0.063-0.048c0.03,0.023,0.06,0.046,0.09,0.069c0.028,0.022,0.056,0.043,0.084,0.065
	c-0.014-0.011-0.028-0.022-0.043-0.033c0.268,0.205,0.539,0.408,0.808,0.612c0.578,0.457,1.125,0.95,1.707,1.402
	c0.649,0.505,1.311,0.993,1.965,1.493c-0.022-0.017-0.044-0.034-0.066-0.051c0.032,0.025,0.065,0.05,0.097,0.075
	c0.023,0.018,0.046,0.035,0.069,0.052c-0.015-0.011-0.03-0.023-0.045-0.034c0.055,0.043,0.11,0.085,0.165,0.127
	c-0.057-0.043-0.111-0.085-0.166-0.128c0.346,0.267,0.678,0.553,1.014,0.832c0.134,0.109,0.269,0.219,0.403,0.326
	c0.148,0.122,0.304,0.235,0.423,0.385c0.134,0.168,0.401,0.251,0.607,0.251c0.227,0,0.448-0.091,0.607-0.251
	c0.005-0.005,0.007-0.013,0.012-0.019c0.269-0.126,0.476-0.395,0.46-0.704c-0.018-0.348-0.024-0.697-0.032-1.047
	C19.052,25.302,19.024,24.936,19.004,24.569z M16.282,24.389c-0.482-0.368-0.967-0.732-1.448-1.102
	c-0.627-0.5-1.226-1.033-1.847-1.541c-0.682-0.557-1.355-1.128-2.035-1.689c-0.145-0.119-0.298-0.191-0.472-0.225
	c-0.158-0.162-0.376-0.265-0.613-0.257C9.198,19.6,8.521,19.65,7.853,19.579c-0.373-0.058-0.747-0.122-1.118-0.197
	c-0.403-0.08-0.795-0.238-1.177-0.391c-0.311-0.137-0.624-0.282-0.9-0.476c-0.155-0.133-0.3-0.272-0.434-0.427
	C4.142,17.97,4.072,17.849,4.01,17.72c-0.121-0.318-0.231-0.648-0.298-0.984c-0.011-0.172-0.005-0.343,0.012-0.514
	c0.06-0.372,0.135-0.731,0.265-1.085c0.152-0.326,0.343-0.639,0.553-0.93c0.172-0.21,0.356-0.408,0.561-0.585
	c0.236-0.164,0.488-0.291,0.75-0.408c0.495-0.197,0.995-0.342,1.522-0.423c0.442-0.055,0.887-0.097,1.331-0.14
	c0.474-0.045,0.958-0.067,1.434-0.053c0.27,0.007,0.502-0.137,0.657-0.342c0.781-0.557,1.522-1.165,2.279-1.754
	c-0.005,0.004-0.011,0.008-0.016,0.012c0.489-0.375,0.977-0.753,1.446-1.15c0.484-0.409,0.958-0.83,1.442-1.24
	c0.467-0.396,0.948-0.775,1.407-1.181c-0.018,1.051-0.025,2.103-0.055,3.153c-0.022,0.796-0.036,1.592-0.069,2.385
	c-0.032,0.776-0.057,1.549-0.055,2.325c0,1.582,0.036,3.165,0.087,4.747c0.026,0.79,0.075,1.579,0.115,2.369
	c0.039,0.745,0.077,1.488,0.105,2.234c0.015,0.408,0.033,0.816,0.044,1.223C17.112,25.049,16.703,24.712,16.282,24.389z
	 M15.545,25.878c0.008,0.006,0.016,0.012,0.024,0.018c-0.018-0.014-0.037-0.028-0.055-0.042
	C15.524,25.862,15.534,25.87,15.545,25.878z M23.627,16.752c-0.045,0.271-0.085,0.549-0.16,0.812
	c-0.069,0.249-0.152,0.49-0.249,0.729c-0.097,0.241-0.176,0.49-0.271,0.731c-0.04,0.146-0.115,0.273-0.223,0.381
	c-0.107,0.107-0.235,0.182-0.381,0.223c-0.223,0.061-0.466,0.03-0.666-0.087c-0.395-0.231-0.563-0.786-0.31-1.183
	c0.144-0.226,0.262-0.472,0.372-0.718c0.172-0.441,0.279-0.903,0.354-1.371c0.032-0.346,0.018-0.685-0.019-1.03
	c-0.084-0.526-0.239-1.02-0.439-1.514c-0.117-0.269-0.242-0.532-0.373-0.794c-0.194-0.395-0.109-0.871,0.29-1.106
	c0.121-0.071,0.265-0.105,0.409-0.105c0.283,0,0.569,0.134,0.696,0.395c0.296,0.61,0.569,1.239,0.767,1.887
	c0.176,0.573,0.269,1.162,0.296,1.762C23.737,16.094,23.68,16.43,23.627,16.752z M25.572,20.962
	c-0.119,0.283-0.205,0.591-0.379,0.848c-0.267,0.401-0.776,0.573-1.211,0.318c-0.409-0.239-0.571-0.802-0.318-1.213
	c0.132-0.214,0.245-0.438,0.348-0.666c0.403-1.011,0.718-2.064,0.891-3.141c0.064-0.548,0.054-1.094,0.037-1.646
	c-0.016-0.504-0.033-1.009-0.089-1.51c-0.092-0.593-0.227-1.16-0.448-1.721c-0.253-0.604-0.474-1.221-0.716-1.832
	c-0.085-0.215-0.02-0.508,0.091-0.701c0.12-0.202,0.316-0.354,0.543-0.417C24.399,9.26,24.48,9.25,24.56,9.25
	c0.161,0,0.322,0.042,0.461,0.123c0.221,0.13,0.33,0.314,0.419,0.545c0.169,0.434,0.312,0.878,0.482,1.31
	c0.191,0.418,0.38,0.84,0.511,1.282c0.115,0.387,0.194,0.781,0.259,1.182c0.077,0.474,0.099,0.954,0.113,1.434
	c0.01,0.385,0.016,0.771,0.006,1.156c-0.047,1.664-0.642,3.261-1.282,4.78C25.544,21.029,25.558,20.996,25.572,20.962z
	 M29.997,15.138c-0.016,0.85-0.113,1.693-0.245,2.535c-0.061,0.395-0.126,0.788-0.221,1.174c-0.103,0.409-0.215,0.814-0.334,1.215
	c-0.241,0.808-0.549,1.616-0.915,2.375c-0.381,0.782-0.95,1.45-1.515,2.104c-0.306,0.352-0.899,0.312-1.211,0
	c-0.16-0.16-0.251-0.379-0.251-0.605c0-0.237,0.097-0.429,0.251-0.604c0.317-0.362,0.641-0.72,0.942-1.095
	c0.22-0.301,0.396-0.633,0.548-0.973c0.252-0.63,0.443-1.281,0.619-1.938c0.171-0.655,0.308-1.308,0.403-1.977
	c0.169-1.355,0.306-2.735,0.148-4.095c-0.152-0.887-0.466-1.75-0.8-2.583c-0.204-0.463-0.431-0.913-0.682-1.354
	c-0.146-0.257-0.324-0.494-0.478-0.747c-0.145-0.243-0.29-0.481-0.455-0.709c-0.009-0.011-0.018-0.023-0.027-0.034
	c-0.14-0.168-0.233-0.334-0.233-0.561c0-0.211,0.085-0.413,0.233-0.563c0.152-0.151,0.363-0.23,0.573-0.23
	c0.203,0,0.406,0.074,0.551,0.23c0.298,0.316,0.549,0.67,0.788,1.031c0.196,0.293,0.391,0.583,0.567,0.889
	c0.371,0.644,0.682,1.322,0.925,2.025c0.251,0.719,0.508,1.442,0.648,2.193C29.967,13.593,30.012,14.373,29.997,15.138z
	 M16.346,19.72c0.008,0.346,0.022,0.697,0.057,1.043c0.016,0.186-0.089,0.395-0.217,0.522c-0.14,0.138-0.328,0.217-0.522,0.217
	c-0.399,0-0.747-0.336-0.739-0.739c0.014-0.804-0.032-1.616-0.093-2.418c-0.079-1.045-0.148-2.092-0.205-3.136
	c-0.022-0.438,0.385-0.802,0.804-0.802c0.445,0,0.79,0.365,0.802,0.802c0.016,0.565,0.01,1.13,0.028,1.693
	c0.016,0.498,0.016,0.996,0.036,1.492c0.01,0.219,0.032,0.435,0.038,0.654C16.34,19.272,16.342,19.495,16.346,19.72z"/>
</svg>