<?xml version="1.0" encoding="utf-8"?>
<!-- Generator: Adobe Illustrator 21.1.0, SVG Export Plug-In . SVG Version: 6.00 Build 0)  -->
<svg version="1.1" id="designs" xmlns="http://www.w3.org/2000/svg" xmlns:xlink="http://www.w3.org/1999/xlink" x="0px" y="0px"
	 width="32px" height="32px" viewBox="0 0 32 32" style="enable-background:new 0 0 32 32;" xml:space="preserve">
<style type="text/css">
	.sketchy_een{fill:#111918;}
</style>
<path class="sketchy_een" d="M6.934,20.467c0,0.478-0.399,0.877-0.877,0.877c-0.478,0-0.877-0.399-0.877-0.877
	c0-0.478,0.399-0.877,0.877-0.877C6.535,19.59,6.934,19.989,6.934,20.467z M10.159,19.546c-0.478,0-0.877,0.399-0.877,0.877
	c0,0.478,0.399,0.877,0.877,0.877c0.478,0,0.877-0.399,0.877-0.877C11.036,19.945,10.637,19.546,10.159,19.546z M14.09,19.514
	c-0.464,0-0.851,0.387-0.851,0.851c0,0.464,0.387,0.851,0.851,0.851s0.851-0.387,0.851-0.851
	C14.941,19.901,14.554,19.514,14.09,19.514z M18.274,19.464c-0.478,0-0.877,0.399-0.877,0.877c0,0.478,0.399,0.877,0.877,0.877
	c0.478,0,0.877-0.399,0.877-0.877C19.151,19.864,18.752,19.464,18.274,19.464z M23.425,23.287c-0.001,0.001-0.002,0.002-0.002,0.003
	c-0.001,0.001-0.001,0.002-0.001,0.002C23.422,23.29,23.424,23.289,23.425,23.287z M8.52,24.837
	c-0.06-0.009-0.121-0.017-0.181-0.026c-0.015-0.002-0.03-0.004-0.045-0.006C8.371,24.817,8.445,24.827,8.52,24.837z M30.989,13.348
	c0.018,0.399,0.014,0.804-0.018,1.201c-0.014,0.181-0.02,0.377-0.083,0.548c-0.129,0.357-0.395,0.629-0.776,0.701
	c-0.304,0.058-0.609,0.042-0.917,0.034c-0.284-0.008-0.57-0.01-0.855,0c-0.314,0.012-0.625,0.059-0.939,0.081
	c-0.155,0.01-0.308,0.018-0.464,0.002c-0.218-0.02-0.431-0.058-0.619-0.183c-0.228-0.157-0.425-0.379-0.492-0.657
	c-0.004-0.018-0.004-0.038-0.007-0.057c-0.011,0-0.02,0.006-0.032,0.006c-0.961-0.018-1.921-0.02-2.88-0.032
	c-0.81-0.008-1.617,0.036-2.425,0.088c0.096,0.226,0.196,0.451,0.282,0.68c0.098,0.263,0.192,0.526,0.29,0.789
	c0.092,0.077,0.173,0.168,0.229,0.275c0.029,0.015,0.057,0.03,0.086,0.045c0.189,0.099,0.381,0.2,0.554,0.325
	c0.294,0.216,0.601,0.445,0.841,0.722c0.224,0.258,0.413,0.55,0.609,0.83c0.2,0.284,0.341,0.633,0.447,0.961
	c0.115,0.345,0.155,0.726,0.181,1.086c0.018,0.278,0.008,0.562-0.016,0.841c-0.022,0.226-0.036,0.464-0.085,0.685
	c-0.036,0.165-0.105,0.318-0.175,0.476c-0.081,0.18-0.189,0.339-0.305,0.495c-0.076,0.1-0.152,0.199-0.231,0.297
	c-0.081,0.101-0.161,0.202-0.248,0.296c-0.125,0.133-0.264,0.238-0.409,0.349c-0.298,0.228-0.675,0.417-1.04,0.496
	c-0.518,0.115-1.03,0.22-1.562,0.238c-0.258,0.008-0.514,0.008-0.77,0.006c-0.244-0.002-0.486-0.004-0.728,0.002
	c-0.552,0.014-1.101,0.012-1.653,0.004c-1.427-0.026-2.856-0.016-4.283-0.04c-0.27-0.004-0.538-0.028-0.808-0.042
	c-0.284-0.012-0.566,0.008-0.851,0.01c-0.324,0.002-0.651-0.018-0.976-0.02c-0.509-0.002-1.02-0.008-1.526-0.075
	c-0.051-0.008-0.102-0.015-0.153-0.023c-0.235-0.022-0.47-0.019-0.706-0.015c-0.157,0.004-0.314,0.006-0.472,0
	c-0.21-0.006-0.419-0.022-0.629-0.024c-0.127-0.002-0.254,0-0.381,0c-0.127,0.002-0.254,0.002-0.379,0
	c-0.524-0.008-1.064-0.04-1.558-0.23c-0.24-0.091-0.48-0.188-0.716-0.29c-0.232-0.101-0.407-0.232-0.609-0.387
	c-0.415-0.323-0.842-0.655-1.137-1.096c-0.177-0.268-0.306-0.56-0.419-0.861c-0.127-0.343-0.194-0.709-0.179-1.074
	c0.016-0.383,0.046-0.77,0.149-1.141c0.081-0.286,0.147-0.591,0.256-0.867c0.119-0.296,0.262-0.566,0.449-0.824
	c0.218-0.3,0.484-0.645,0.822-0.818c0.274-0.141,0.568-0.288,0.859-0.379c0.015-0.005,0.03-0.006,0.045-0.011
	c0.051-0.186,0.11-0.368,0.155-0.555c0.056-0.242,0.107-0.486,0.159-0.728c0.117-0.518,0.242-1.034,0.363-1.55
	c0.256-1.1,0.445-2.217,0.707-3.318c0.044-0.185,0.157-0.338,0.304-0.445c0.007-0.439,0.391-0.871,0.852-0.841
	c0.13,0.008,0.26,0.01,0.39,0.016C6.526,9.07,6.534,8.79,6.505,8.507C6.495,8.392,6.479,8.28,6.473,8.165
	C6.469,8.126,6.467,8.086,6.469,8.048c0.006-0.218,0.044-0.347,0.139-0.54c0.21-0.431,0.75-0.492,1.169-0.492
	c0.171,0,0.343,0.002,0.516,0.006c0.794,0.012,1.586,0.022,2.38,0.006c0.264-0.006,0.52,0.04,0.782,0.058
	c0.194,0.012,0.397,0.008,0.583,0.062c0.389,0.109,0.677,0.393,0.786,0.782c0.075,0.266,0.091,0.552,0.117,0.826
	c0.017,0.174,0.032,0.349,0.047,0.524c0.088-0.003,0.176-0.01,0.264-0.01c0.023,0,0.046,0,0.068,0
	c0.703,0.004,1.407,0.014,2.11,0.018c0.385,0.002,0.766,0.02,1.151,0.038c0.163,0.008,0.327,0.004,0.49,0.016
	c0.139,0.008,0.276,0.022,0.415,0.024c0.295,0.003,0.548,0.172,0.692,0.411c0.29,0.055,0.54,0.262,0.63,0.561
	c0.037,0.124,0.073,0.247,0.109,0.371c1.208,0.154,2.432,0.174,3.647,0.192c1.091,0.016,2.181,0.042,3.272,0.022
	c0.03-0.115,0.073-0.223,0.141-0.317c0.135-0.245,0.382-0.434,0.664-0.434c0.019,0,0.039,0.001,0.059,0.003
	c0.1,0.008,0.2,0.022,0.3,0.037c0.685,0.084,1.369,0.063,2.056,0.037c0.183-0.006,0.369-0.018,0.55-0.004
	c0.224,0.02,0.51,0.04,0.697,0.183c0.079,0.061,0.165,0.113,0.232,0.185c0.135,0.151,0.179,0.236,0.248,0.425
	c0.038,0.111,0.046,0.234,0.056,0.351c0.004,0.05,0.009,0.099,0.014,0.148c0.042,0.282,0.084,0.565,0.087,0.851
	C30.945,12.711,30.973,13.03,30.989,13.348z M18.919,10.718L18.919,10.718c0.001,0,0.002,0,0.002,0S18.92,10.718,18.919,10.718z
	 M13.028,10.876c-0.177-0.002-0.355-0.004-0.53-0.002c-0.405,0.006-0.81,0.032-1.213,0.052c-0.863,0.044-1.729,0.064-2.594,0.083
	c-0.704,0.015-1.41,0.042-2.117,0.034c-0.002,0.007,0.001,0.013-0.001,0.02c-0.256,1.01-0.492,2.026-0.738,3.039
	c-0.109,0.449-0.23,0.897-0.333,1.348c-0.083,0.368-0.149,0.74-0.207,1.111c0.016,0,0.033,0,0.049-0.001
	c0.347-0.002,0.693-0.01,1.04-0.008c0.649,0.006,1.3,0.026,1.949,0.012c0.865-0.02,1.729-0.061,2.594-0.061
	c0.865,0,1.729-0.002,2.592-0.01c0.84-0.006,1.677-0.01,2.515-0.067c0.063-0.004,0.126-0.003,0.189-0.006
	c-0.016-0.037-0.048-0.064-0.059-0.103c-0.001,0.001-0.002,0.001-0.003,0.002c-0.008-0.02-0.014-0.04-0.018-0.06
	c0.004,0.01,0.008,0.021,0.013,0.031c-0.018-0.056-0.03-0.112-0.037-0.169c-0.141-0.496-0.326-0.982-0.49-1.471
	c-0.21-0.623-0.423-1.242-0.641-1.862c-0.147-0.425,0.165-0.903,0.578-1.016c0.074-0.021,0.148-0.031,0.219-0.031
	c0.363,0,0.679,0.25,0.797,0.607c0.214,0.647,0.415,1.298,0.605,1.953c0.085,0.288,0.167,0.578,0.25,0.869
	c0.026,0.092,0.051,0.184,0.077,0.275c0.053,0.051,0.099,0.11,0.136,0.174c0.133,0.226,0.136,0.47,0.054,0.703
	c0.009-0.021,0.018-0.043,0.026-0.064c-0.011,0.052-0.038,0.099-0.059,0.148c0.099,0.003,0.198,0.002,0.297,0.006
	c0.375,0.016,0.752,0.046,1.127,0.03c0.047-0.002,0.094-0.006,0.14-0.008c-0.231-0.68-0.472-1.356-0.696-2.04
	c-0.2-0.611-0.447-1.207-0.675-1.808c-0.198-0.523-0.363-1.061-0.53-1.596c-0.542-0.054-1.086-0.098-1.628-0.116
	c-0.718-0.024-1.433-0.008-2.151,0.002C13.381,10.88,13.204,10.878,13.028,10.876z M8.257,9.401C8.318,9.402,8.38,9.403,8.441,9.405
	c0.859,0.016,1.715-0.008,2.572-0.046c0.087-0.004,0.173-0.007,0.26-0.01c0.002-0.212,0.006-0.424-0.005-0.636
	c-0.441-0.052-0.886-0.079-1.33-0.077c-0.555,0.002-1.112,0.005-1.667,0.03C8.268,8.708,8.265,8.75,8.263,8.794
	C8.251,8.996,8.256,9.199,8.257,9.401z M21.349,19.396c-0.18-0.209-0.398-0.386-0.609-0.566c-0.21-0.145-0.433-0.271-0.662-0.38
	c-0.072-0.025-0.144-0.045-0.219-0.06c-0.048-0.005-0.095-0.01-0.143-0.015c-0.253-0.027-0.467-0.083-0.656-0.256
	c-0.193-0.003-0.387-0.01-0.58-0.022c-0.506-0.03-1.012-0.046-1.518-0.022c-1.207,0.061-2.413,0.093-3.622,0.101
	c-0.331,0.003-0.662,0.004-0.993,0.004c-0.547,0-1.094-0.003-1.64-0.004C9.86,18.173,9.014,18.21,8.165,18.21
	c-0.637,0.002-1.278,0-1.917,0.02c-0.57,0.017-1.148-0.006-1.717,0.058c-0.196,0.035-0.386,0.087-0.572,0.159
	c-0.126,0.056-0.252,0.114-0.371,0.186c-0.059,0.056-0.113,0.116-0.166,0.178c-0.106,0.15-0.207,0.309-0.288,0.474
	c-0.054,0.165-0.09,0.337-0.133,0.505c-0.047,0.18-0.092,0.359-0.124,0.542c-0.021,0.191-0.032,0.388-0.02,0.578
	c0.031,0.148,0.075,0.291,0.127,0.432c0.069,0.147,0.148,0.287,0.24,0.421c0.105,0.117,0.222,0.219,0.342,0.323
	c0.158,0.135,0.314,0.272,0.475,0.403c0.189,0.125,0.393,0.221,0.6,0.312c0.217,0.082,0.435,0.138,0.665,0.176
	c0.345,0.035,0.692,0.038,1.038,0.054c0.292,0.014,0.585,0.032,0.877,0.044c0.312,0.012,0.625,0.008,0.937,0.026
	c0.32,0.018,0.637,0.071,0.959,0.081c0.421,0.014,0.844,0.042,1.266,0.038c0.26-0.004,0.514-0.02,0.774-0.012
	c0.554,0.022,1.109,0.093,1.663,0.103c0.772,0.012,1.544,0.038,2.316,0.03c0.341-0.004,0.683-0.014,1.026-0.01
	c0.318,0.004,0.639,0.03,0.959,0.034c0.528,0.006,1.062,0.006,1.592-0.008c0.246-0.006,0.494-0.032,0.74-0.046
	c0.194-0.012,0.389-0.012,0.584-0.03c0.352-0.058,0.715-0.136,1.051-0.259c0.129-0.063,0.253-0.131,0.372-0.211
	c0.134-0.12,0.251-0.253,0.365-0.392c0.084-0.113,0.161-0.231,0.226-0.356c0.013-0.041,0.024-0.083,0.034-0.125
	c0.026-0.324,0.025-0.658-0.009-0.981c-0.04-0.24-0.088-0.479-0.167-0.708C21.754,19.943,21.556,19.67,21.349,19.396z
	 M24.444,13.471c0.439-0.008,0.879,0.001,1.318-0.035c0.003-0.086-0.003-0.172,0.005-0.257c0.024-0.256,0.036-0.512,0.042-0.769
	c-0.389-0.011-0.78-0.013-1.169-0.013c-0.151,0-0.302,0.002-0.454,0c-0.556-0.002-1.111-0.032-1.667-0.028
	c-0.617,0.002-1.232-0.004-1.848-0.01c-0.42-0.003-0.839-0.018-1.257-0.044c0.034,0.101,0.063,0.203,0.099,0.303
	c0.111,0.306,0.236,0.609,0.353,0.914c0.001,0,0.001,0,0.002,0c0.697-0.036,1.397-0.036,2.096-0.036c0.333,0,0.665,0,1-0.004
	C23.456,13.487,23.95,13.481,24.444,13.471z M29.286,14.181c0.004-0.293-0.02-0.587-0.058-0.877
	c-0.035-0.246-0.071-0.49-0.091-0.738c-0.014-0.168-0.017-0.335-0.033-0.502c-0.007-0.043-0.014-0.086-0.02-0.129
	c-0.367-0.011-0.734-0.005-1.102-0.028c-0.131-0.007-0.263-0.016-0.394-0.026c-0.006,0.126-0.01,0.252-0.009,0.379
	c0.004,0.306,0,0.613,0.016,0.919c0.016,0.342,0.035,0.684,0.054,1.025c0.073-0.002,0.146-0.004,0.218-0.005
	c0.23-0.004,0.458-0.002,0.687-0.006c0.224-0.004,0.449,0,0.673-0.01C29.247,14.182,29.266,14.181,29.286,14.181z"/>
</svg>