<?xml version="1.0" encoding="utf-8"?>
<!-- Generator: Adobe Illustrator 21.1.0, SVG Export Plug-In . SVG Version: 6.00 Build 0)  -->
<svg version="1.1" id="designs" xmlns="http://www.w3.org/2000/svg" xmlns:xlink="http://www.w3.org/1999/xlink" x="0px" y="0px"
	 width="32px" height="32px" viewBox="0 0 32 32" style="enable-background:new 0 0 32 32;" xml:space="preserve">
<style type="text/css">
	.sketchy_een{fill:#111918;}
</style>
<path class="sketchy_een" d="M29.998,26.573c-0.059-0.692-0.024-1.385-0.037-2.077c-0.014-0.731-0.071-1.458-0.077-2.189
	c-0.004-0.721-0.022-1.441-0.03-2.162c-0.01-0.771-0.02-1.541-0.041-2.312c-0.02-0.745-0.043-1.494-0.091-2.237
	c-0.047-0.715-0.049-1.431-0.075-2.146c-0.012-0.357-0.034-0.711-0.037-1.068c-0.002-0.372,0.006-0.745,0.008-1.117
	c0.006-0.755-0.002-1.511,0.026-2.266c0.018-0.485,0.022-0.97,0.035-1.457c0.016-0.536,0.051-1.07,0.055-1.606
	c0.001-0.102-0.021-0.199-0.058-0.289c0.013-0.058,0.035-0.115,0.035-0.175c0-0.479-0.384-0.816-0.841-0.841
	c-0.65-0.036-1.305-0.03-1.955-0.055c-0.79-0.03-1.578-0.038-2.369-0.057c-0.81-0.02-1.62-0.016-2.43-0.03
	c-0.355-0.005-0.709-0.008-1.064-0.008c-0.514,0-1.027,0.005-1.541,0.012c-0.097,0.004-0.191,0.006-0.288,0.008
	c-0.366,0.01-0.675,0.246-0.789,0.578c-0.222,0.142-0.381,0.378-0.379,0.656c0.006,0.585,0.018,1.171,0.051,1.754
	c0.014,0.237,0.008,0.475,0.016,0.713c0.001,0.022,0.003,0.045,0.004,0.068c-0.219,0-0.438-0.001-0.658-0.004
	c-0.359-0.004-0.717-0.006-1.078-0.012c-0.739-0.012-1.478-0.02-2.217-0.024c-0.735-0.006-1.468-0.043-2.203-0.042
	c-0.757,0.004-1.511-0.01-2.268-0.01c-1.084,0-2.168-0.022-3.252-0.012c-1.117,0.01-2.237,0.018-3.354-0.053
	C3.083,8.113,3.069,8.112,3.055,8.112c-0.148,0-0.279,0.063-0.395,0.147C2.312,8.343,2.046,8.646,2.043,9.018
	c-0.01,0.781,0.012,1.563,0.006,2.345c-0.004,0.731-0.028,1.464-0.039,2.195c-0.01,0.729-0.012,1.456-0.006,2.185
	c0.008,0.765,0,1.527,0.032,2.292c0.028,0.743,0.071,1.484,0.106,2.225c0.031,0.684,0.026,1.368,0.043,2.049
	c0.033,1.318,0.031,2.637,0.014,3.955c-0.01,0.051-0.031,0.097-0.031,0.15c0,0.455,0.382,0.843,0.841,0.841
	c0.439-0.004,0.877-0.018,1.314-0.027c0.386-0.01,0.772,0.002,1.159,0.012c0.773,0.016,1.547,0.016,2.319,0.014
	c0.808-0.002,1.614-0.021,2.422-0.041c0.822-0.022,1.644-0.02,2.465-0.022c0.79-0.004,1.58-0.014,2.373-0.01
	c0.824,0.002,1.647,0.02,2.471,0.03c0.828,0.01,1.655,0.043,2.483,0.069c0.832,0.023,1.665,0.035,2.497,0.053
	c0.546,0.012,1.09,0.053,1.636,0.065c0.615,0.016,1.232,0.014,1.848,0.023c1.021,0.016,2.038,0.016,3.056,0.095
	c0.277,0.021,0.515-0.14,0.671-0.36C29.898,27.011,30.017,26.805,29.998,26.573z M26.918,25.8c-0.839,0-1.681-0.002-2.52-0.02
	c-0.796-0.018-1.59-0.077-2.386-0.083c-0.847-0.008-1.693-0.004-2.538-0.016c-0.839-0.012-1.679-0.033-2.518-0.043
	c-0.808-0.008-1.618-0.014-2.426-0.028c-0.792-0.012-1.586-0.02-2.38-0.012c-0.818,0.008-1.638,0.038-2.455,0.049
	c-0.55,0.01-1.102-0.004-1.651-0.01c-0.294-0.002-0.587,0-0.879,0c-0.234,0.002-0.469,0.002-0.703,0
	c-0.897-0.003-1.794-0.032-2.691-0.051c-0.002-0.4-0.002-0.801-0.014-1.201c-0.018-0.753,0-1.506-0.014-2.258
	c-0.016-0.747-0.035-1.492-0.071-2.237c-0.039-0.794-0.097-1.584-0.106-2.378c-0.008-0.709,0.014-1.421,0.018-2.13
	c0.002-0.694,0.002-1.385,0.01-2.079c0-0.031,0-0.062,0-0.093c0.675,0.004,1.35-0.014,2.025-0.029
	c0.804-0.018,1.61-0.008,2.416-0.024c1.551-0.031,3.1-0.03,4.651-0.02c0.798,0.006,1.596,0.004,2.394,0.004
	c0.798-0.002,1.596-0.002,2.396,0.002c0.802,0.006,1.604,0.023,2.406,0.027c0.798,0.002,1.598,0.002,2.396,0.022
	c0.635,0.014,1.267,0.026,1.9,0.055c0.335,0.016,0.67,0.012,1.005,0.008c0.284-0.002,0.568-0.006,0.851,0.002
	c0.457,0.016,0.839-0.392,0.839-0.84c0-0.443-0.382-0.861-0.839-0.842c-0.372,0.016-0.745,0-1.115-0.004
	c-0.341-0.004-0.682-0.006-1.025-0.006c-0.765-0.004-1.529-0.016-2.294-0.022c-0.244-0.002-0.488-0.002-0.732-0.002
	c-1.36,0-2.72,0.025-4.08,0.038c-0.717,0.008-1.437,0.006-2.154,0.006c-0.861,0-1.722-0.002-2.582,0.01
	c-0.798,0.012-1.596,0.01-2.392,0.02c-0.757,0.008-1.509,0.051-2.266,0.057c-0.698,0.006-1.395,0.006-2.095,0.018
	c-0.571,0.008-1.138-0.01-1.708-0.029c-0.001-0.133,0-0.267,0-0.4c-0.003-0.527,0.013-1.052,0.026-1.579
	C4.192,9.687,4.769,9.67,5.343,9.656c0.771-0.018,1.543-0.018,2.315-0.021c1.537-0.012,3.08-0.042,4.617,0.02
	c1.035,0.04,2.067,0.051,3.1,0.061c0.997,0.008,1.996-0.012,2.99,0.075c0.187,0.017,0.355-0.065,0.489-0.188
	c0.022,0.002,0.043,0.014,0.066,0.014c0.203,0,0.4-0.083,0.544-0.227c0.158-0.156,0.201-0.331,0.227-0.542
	c0.051-0.439-0.018-0.893-0.041-1.33c-0.016-0.27-0.031-0.538-0.03-0.808c0.001-0.18,0.006-0.36,0.011-0.541
	c0.809-0.035,1.618-0.073,2.428-0.11c0.8-0.038,1.598-0.036,2.398-0.006c0.78,0.027,1.561,0.037,2.341,0.096
	c0.461,0.034,0.922,0.071,1.383,0.108c0.006,0.662,0.012,1.325,0.002,1.986c-0.006,0.376-0.043,0.753-0.055,1.129
	c-0.01,0.363-0.01,0.727-0.008,1.09c0.002,0.378,0.008,0.755,0.002,1.133c-0.006,0.376-0.024,0.755-0.014,1.131
	c0.02,0.706,0.039,1.411,0.079,2.115c0.041,0.745,0.085,1.488,0.112,2.233c0.028,0.751,0.057,1.502,0.073,2.252
	c0.016,0.739,0.004,1.478,0.016,2.215c0.014,0.757,0.037,1.51,0.057,2.266c0.014,0.465,0.002,0.932,0.004,1.397
	c0,0.203,0.001,0.406-0.001,0.61c-0.22-0.001-0.44,0.002-0.66-0.002C27.498,25.806,27.208,25.8,26.918,25.8z"/>
</svg>