<?xml version="1.0" encoding="utf-8"?>
<!-- Generator: Adobe Illustrator 21.1.0, SVG Export Plug-In . SVG Version: 6.00 Build 0)  -->
<svg version="1.1" id="designs" xmlns="http://www.w3.org/2000/svg" xmlns:xlink="http://www.w3.org/1999/xlink" x="0px" y="0px"
	 width="32px" height="32px" viewBox="0 0 32 32" style="enable-background:new 0 0 32 32;" xml:space="preserve">
<style type="text/css">
	.sketchy_een{fill:#111918;}
</style>
<path class="sketchy_een" d="M9.593,17.272c0.001,0.005,0.002,0.011,0.002,0.016c0,0.001,0,0.002,0,0.003
	c0-0.002,0-0.003-0.001-0.005C9.594,17.282,9.594,17.277,9.593,17.272z M9.171,25.561c0,0.001,0,0.002,0,0.004
	c-0.001-0.008-0.002-0.016-0.003-0.024C9.169,25.548,9.17,25.554,9.171,25.561z M9.193,25.727c0-0.003-0.001-0.005-0.001-0.008
	c-0.001-0.01-0.003-0.02-0.004-0.029c-0.004-0.037-0.011-0.073-0.015-0.11C9.179,25.629,9.186,25.678,9.193,25.727z M9.171,25.565
	c0.001,0.005,0.001,0.01,0.002,0.015C9.173,25.575,9.172,25.57,9.171,25.565L9.171,25.565z M9.767,18.537
	c0.005,0.034,0.009,0.069,0.014,0.104C9.777,18.606,9.772,18.572,9.767,18.537C9.767,18.537,9.767,18.537,9.767,18.537z
	 M9.641,17.628c0.002,0.011,0.003,0.022,0.005,0.033c0.001,0.003,0.001,0.006,0.002,0.009c-0.004-0.029-0.008-0.059-0.012-0.088
	C9.637,17.597,9.639,17.612,9.641,17.628z M9.767,18.537L9.767,18.537c-0.003-0.021-0.005-0.041-0.008-0.062
	C9.761,18.496,9.764,18.516,9.767,18.537z M9.795,18.743c0.001,0.007,0.002,0.015,0.003,0.022c0.005,0.034,0.009,0.068,0.014,0.101
	C9.806,18.825,9.801,18.784,9.795,18.743z M10.719,25.806L10.719,25.806c0.003,0.022,0.006,0.044,0.009,0.066
	C10.725,25.85,10.722,25.828,10.719,25.806L10.719,25.806z M26.391,8.265c-0.008,0.504-0.011,1.011-0.002,1.515
	c0.008,0.417-0.353,0.764-0.762,0.764c-0.202,0-0.376-0.082-0.509-0.208c-0.074-0.004-0.149-0.008-0.223-0.011
	c-0.019,1.175-0.143,2.341-0.266,3.509c-0.113,1.071-0.174,2.147-0.219,3.222c-0.064,1.535-0.155,3.067-0.275,4.599
	c-0.057,0.728-0.111,1.458-0.187,2.184c-0.079,0.782-0.193,1.561-0.305,2.34c-0.068,0.537-0.116,1.075-0.214,1.606
	c-0.081,0.443-0.141,0.89-0.221,1.334c-0.027,0.155-0.147,0.293-0.275,0.393c-0.112,0.284-0.386,0.498-0.704,0.489
	c-0.441-0.011-0.883-0.006-1.324-0.013c-0.434-0.008-0.868-0.015-1.302-0.019c-0.711-0.008-1.424-0.011-2.135-0.04
	c-0.374-0.015-0.743-0.055-1.115-0.081c-0.39-0.026-0.781-0.043-1.171-0.057c-0.755-0.026-1.511-0.042-2.266-0.032
	c-0.787,0.009-1.573,0.066-2.358,0.1c-0.322,0.015-0.598-0.212-0.708-0.502c-0.16-0.16-0.201-0.335-0.228-0.55
	c-0.021-0.157-0.032-0.311-0.053-0.468c0.009,0.07,0.019,0.138,0.028,0.206c-0.033-0.24-0.061-0.48-0.092-0.72
	c-0.071-0.492-0.152-0.98-0.225-1.472c-0.025-0.174-0.05-0.348-0.075-0.523c-0.009-0.045-0.013-0.093-0.019-0.139
	c-0.006-0.042-0.011-0.083-0.017-0.125c0-0.001,0-0.003,0-0.004c-0.14-1.059-0.258-2.123-0.378-3.187
	c-0.064-0.573-0.141-1.145-0.213-1.718c-0.069-0.545-0.127-1.092-0.192-1.638c-0.02-0.154-0.04-0.307-0.061-0.461
	c-0.037-0.266-0.073-0.532-0.11-0.798c0.003,0.021,0.006,0.042,0.009,0.063c-0.129-0.96-0.251-1.924-0.341-2.889
	c-0.088-0.955-0.154-1.91-0.27-2.861c-0.073-0.533-0.139-1.062-0.152-1.6c-0.256,0.007-0.512,0.015-0.769,0.019
	c-0.215,0.004-0.41-0.087-0.556-0.228c-0.315-0.089-0.551-0.37-0.556-0.71C5.579,9.124,5.589,8.696,5.596,8.269
	c0.009-0.545,0.011-1.09,0.023-1.635c0.005-0.211,0.092-0.405,0.232-0.545c0.077-0.341,0.37-0.621,0.731-0.621
	c0.006,0,0.013,0,0.019,0c0.15,0.003,0.3,0.01,0.451,0.015C7.151,5.141,7.237,4.795,7.31,4.445c0.117-0.56,0.24-1.119,0.362-1.677
	C7.731,2.502,7.954,2.316,8.207,2.25C8.345,2.099,8.539,2,8.756,2c1.024,0,2.047,0.023,3.069,0.049
	c0.477,0.013,0.953,0.011,1.428,0.028c0.489,0.017,0.975,0.042,1.464,0.045c0.643,0.006,1.288,0.002,1.933-0.002
	c0.843-0.006,1.688-0.011,2.531,0.002c0.738,0.013,1.475,0.004,2.213-0.006c0.558-0.008,1.117-0.015,1.675-0.013
	c0.262,0.001,0.485,0.146,0.623,0.351c0.247,0.072,0.463,0.256,0.516,0.516c0.158,0.768,0.315,1.534,0.528,2.29
	c0.019,0.067,0.015,0.134,0.014,0.201c0.313,0.022,0.625,0.055,0.94,0.052c0.473-0.006,0.828,0.47,0.702,0.924
	c-0.001,0.002-0.003,0.004-0.003,0.006c0.002,0.02,0.012,0.037,0.013,0.057C26.426,7.09,26.4,7.677,26.391,8.265z M11.203,3.449
	C10.481,3.459,9.76,3.486,9.04,3.5C8.933,3.96,8.829,4.42,8.708,4.875C8.65,5.09,8.598,5.307,8.539,5.523
	c1.234,0.028,2.469,0.032,3.704,0.038c0.787,0.002,1.573,0.013,2.36,0.004c0.347-0.006,0.694-0.009,1.041-0.011
	c0.328-0.004,0.655,0.019,0.983,0.019c0.4,0,0.736,0.334,0.736,0.736c0,0.375-0.336,0.768-0.736,0.736
	C16.3,7.017,15.97,7.017,15.644,7.011c-1.505-0.025-3.012-0.034-4.518-0.008c-0.739,0.011-1.475,0.019-2.215,0.021
	C8.323,7.026,7.734,7.03,7.145,7.03C7.125,7.443,7.1,7.856,7.088,8.269c-0.006,0.203-0.001,0.405,0,0.608
	C7.816,8.882,8.544,8.901,9.273,8.91c0.796,0.009,1.59-0.011,2.386-0.036c1.592-0.047,3.182-0.051,4.774-0.064
	c0.304-0.002,0.607-0.002,0.911-0.002c0.496,0,0.99,0,1.485-0.009c0.779-0.015,1.556-0.021,2.333-0.023c0.219,0,0.439,0,0.658,0
	c0.548,0,1.097,0.001,1.645,0.008c0.467,0.007,0.933,0.01,1.4,0.015c0.005-0.178,0.01-0.356,0.012-0.533
	c0.003-0.457-0.021-0.912-0.047-1.367c-0.491-0.031-0.982-0.049-1.475-0.049c-0.751,0-1.5,0.025-2.25-0.008
	c-0.404-0.017-0.743-0.324-0.743-0.741c0-0.375,0.319-0.744,0.706-0.744c0.012,0,0.025,0,0.037,0.001
	c0.731,0.044,1.461,0.067,2.192,0.079c-0.171-0.602-0.337-1.203-0.481-1.812c-0.226-0.009-0.451-0.016-0.678-0.021
	c-0.466-0.008-0.932-0.009-1.396-0.013c-0.939-0.011-1.877-0.074-2.816-0.079c-0.49-0.002-0.981-0.002-1.469,0
	c-1.005,0-2.009,0.002-3.012-0.03c-0.381-0.011-0.762-0.015-1.143-0.019C11.935,3.458,11.569,3.443,11.203,3.449z M12.119,22.676
	c0.225-0.037,0.437-0.087,0.649-0.165c0.167-0.082,0.321-0.174,0.472-0.283c0.379-0.303,0.735-0.618,1.045-0.992
	c0.3-0.403,0.563-0.824,0.776-1.279c0.069-0.186,0.122-0.373,0.165-0.568c0.021-0.272,0.005-0.537-0.022-0.81
	c-0.052-0.335-0.133-0.662-0.248-0.982c-0.158-0.344-0.342-0.679-0.56-0.989c-0.213-0.254-0.43-0.505-0.681-0.723
	c-0.219-0.157-0.448-0.294-0.69-0.408c-0.224-0.077-0.449-0.141-0.682-0.186c-0.356-0.029-0.709-0.017-1.064,0.022
	c-0.634,0.112-1.236,0.307-1.838,0.526c0.048,0.439,0.08,0.879,0.137,1.317c0.006,0.043,0.011,0.086,0.017,0.13
	c-0.001-0.006-0.002-0.013-0.003-0.019c0,0.002,0,0.004,0.001,0.006c-0.003-0.023-0.006-0.046-0.01-0.069
	c0.004,0.028,0.008,0.055,0.012,0.083c0.001,0.004,0.001,0.009,0.002,0.013c0-0.003-0.001-0.005-0.001-0.008
	c0,0.002,0.001,0.004,0.001,0.006c0-0.003-0.001-0.006-0.001-0.009c0-0.001,0-0.002,0-0.003c0.001,0.006,0.002,0.012,0.002,0.019
	c0.007,0.052,0.015,0.105,0.022,0.158c0.005,0.039,0.01,0.079,0.016,0.12c-0.003-0.022-0.007-0.045-0.01-0.067
	c0.005,0.038,0.011,0.075,0.016,0.113c0.001,0.008,0.002,0.017,0.003,0.025c0.001,0.003,0.001,0.005,0.001,0.008
	c0.001,0.01,0.003,0.02,0.004,0.029c-0.001-0.007-0.002-0.013-0.003-0.02c0.001,0.009,0.003,0.019,0.004,0.028
	c0.036,0.259,0.072,0.519,0.108,0.778c-0.001-0.007-0.002-0.014-0.003-0.021c0.004,0.027,0.008,0.055,0.011,0.082
	c0,0,0,0.001,0,0.001c0.005,0.036,0.01,0.073,0.015,0.109c0-0.002,0-0.004-0.001-0.006c0.006,0.042,0.011,0.083,0.017,0.125
	c0.047,0.349,0.089,0.697,0.132,1.046c0.082,0.591,0.168,1.18,0.248,1.771c0-0.001,0-0.003,0-0.004
	c0.031,0.227,0.058,0.453,0.087,0.68c0.025,0.011,0.052,0.011,0.077,0.025c0.148,0.081,0.292,0.168,0.443,0.244
	c0.26,0.093,0.533,0.136,0.807,0.174C11.768,22.712,11.943,22.696,12.119,22.676z M23.358,10.274c-0.006,0-0.011,0-0.017,0
	c-0.739-0.015-1.479-0.009-2.216-0.002c-0.811,0.009-1.622,0.03-2.433,0.038c-0.768,0.008-1.534,0.002-2.301-0.004
	c-1.622-0.009-3.248,0.011-4.87,0.074c-0.398,0.015-0.798,0.038-1.198,0.04c-0.387,0.002-0.775,0.004-1.162,0.011
	c-0.062,0.001-0.123,0.003-0.185,0.005c-0.001,0.286,0,0.574,0.024,0.859c0.021,0.262,0.055,0.524,0.081,0.788
	c0.062,0.594,0.109,1.192,0.157,1.788c0.009,0.121,0.028,0.241,0.038,0.362c0.748-0.229,1.52-0.407,2.305-0.448
	c0.15-0.008,0.301-0.014,0.451-0.014c0.275,0,0.549,0.02,0.82,0.082c0.424,0.1,0.843,0.249,1.222,0.468
	c0.302,0.175,0.604,0.374,0.851,0.622c0.177,0.177,0.343,0.368,0.506,0.558c0.283,0.336,0.507,0.7,0.711,1.088
	c0.202,0.381,0.353,0.779,0.451,1.198c0.059,0.245,0.092,0.496,0.117,0.747c0.017,0.17,0.04,0.34,0.042,0.511
	c0.002,0.415-0.038,0.858-0.2,1.247c-0.17,0.398-0.34,0.79-0.585,1.149c-0.251,0.37-0.507,0.734-0.804,1.07
	c-0.245,0.277-0.536,0.509-0.824,0.738c-0.177,0.14-0.353,0.285-0.541,0.407c-0.187,0.119-0.385,0.202-0.59,0.287
	c-0.385,0.16-0.802,0.202-1.213,0.247c-0.1,0.011-0.208,0.028-0.309,0.025c-0.158-0.009-0.317-0.032-0.473-0.055
	c-0.172-0.026-0.343-0.051-0.513-0.087c-0.07-0.015-0.134-0.044-0.202-0.064c0.029,0.209,0.06,0.417,0.085,0.626
	c0.034,0.289,0.067,0.578,0.102,0.868c0.012,0.051,0.018,0.103,0.019,0.155c0.006,0.049,0.012,0.098,0.019,0.147
	c-0.001-0.004-0.001-0.008-0.002-0.012c0.001,0.004,0.001,0.009,0.002,0.013c0.008,0.063,0.016,0.126,0.025,0.189
	c-0.005-0.042-0.01-0.083-0.016-0.124c0.054,0.389,0.113,0.778,0.187,1.163c0.062,0.326,0.111,0.651,0.156,0.979
	c-0.004-0.03-0.008-0.06-0.011-0.09c0.018,0.135,0.036,0.271,0.054,0.407c0.768-0.011,1.536-0.012,2.304-0.015
	c0.123-0.001,0.246-0.001,0.369-0.001c0.624,0,1.248,0.009,1.87,0.043c0.772,0.042,1.537,0.119,2.311,0.125
	c0.698,0.008,1.396-0.009,2.096-0.009c0.358,0,0.719,0.006,1.077,0.009c0.153,0.002,0.306,0,0.458-0.002
	c0.058-0.001,0.116,0,0.174-0.001c0.099-0.534,0.201-1.066,0.287-1.604c0.114-0.717,0.216-1.437,0.319-2.156
	c0.107-0.812,0.188-1.627,0.275-2.443c0.094-0.87,0.177-1.739,0.238-2.611c0.051-0.734,0.104-1.466,0.138-2.199
	c0.036-0.8,0.068-1.601,0.111-2.401c0.041-0.739,0.079-1.481,0.124-2.22C23.318,11.988,23.359,11.134,23.358,10.274z"/>
</svg>