<?xml version="1.0" encoding="utf-8"?>
<!-- Generator: Adobe Illustrator 21.1.0, SVG Export Plug-In . SVG Version: 6.00 Build 0)  -->
<svg version="1.1" id="designs" xmlns="http://www.w3.org/2000/svg" xmlns:xlink="http://www.w3.org/1999/xlink" x="0px" y="0px"
	 width="32px" height="32px" viewBox="0 0 32 32" style="enable-background:new 0 0 32 32;" xml:space="preserve">
<style type="text/css">
	.sketchy_een{fill:#111918;}
</style>
<path class="sketchy_een" d="M29.659,4.403c-0.016-0.088-0.04-0.176-0.089-0.256c-0.094-0.155-0.209-0.294-0.322-0.434
	c-0.184-0.261-0.335-0.539-0.562-0.772c-0.211-0.219-0.421-0.44-0.632-0.659c-0.161-0.166-0.38-0.248-0.599-0.248
	c-0.036,0-0.07,0.016-0.106,0.02C27.257,2.022,27.161,2,27.063,2c-0.219,0-0.439,0.083-0.606,0.247
	c-0.673,0.659-1.357,1.305-2.04,1.954c-0.597,0.568-1.175,1.156-1.757,1.741c-0.597,0.597-1.177,1.211-1.764,1.818
	c-0.584,0.605-1.175,1.2-1.755,1.807c-0.345,0.362-0.692,0.723-1.026,1.097c-0.353,0.396-0.698,0.801-1.08,1.167
	c-0.016,0.015-0.021,0.035-0.035,0.051c-0.106-0.107-0.207-0.218-0.316-0.322c-0.43-0.411-0.869-0.816-1.303-1.223
	c-0.935-0.871-1.854-1.757-2.804-2.61c-0.16-0.144-0.359-0.22-0.559-0.228c-0.124-0.063-0.256-0.106-0.393-0.106
	c-0.22,0-0.44,0.082-0.603,0.247c-0.194,0.196-0.388,0.394-0.578,0.591c-0.182,0.19-0.345,0.394-0.533,0.576
	c-0.186,0.18-0.39,0.333-0.582,0.504c-0.237,0.209-0.456,0.45-0.618,0.721c-0.038,0.063-0.049,0.133-0.069,0.2
	c-0.007,0.007-0.018,0.01-0.025,0.017c-0.289,0.289-0.332,0.845,0,1.126c0.057,0.049,0.114,0.099,0.171,0.147
	c-1.106,0.567-2.201,1.166-3.248,1.835c-0.498,0.318-0.991,0.646-1.489,0.965c-0.38,0.242-0.769,0.472-1.15,0.714
	c-0.19,0.013-0.372,0.085-0.507,0.22c-0.149,0.149-0.233,0.351-0.233,0.561c0,0.046,0.019,0.083,0.026,0.126
	c0.002,0.138,0.026,0.273,0.096,0.392c0.077,0.132,0.206,0.228,0.348,0.298c0.488,0.545,1.009,1.06,1.548,1.557
	c0.593,0.546,1.181,1.097,1.758,1.659C6.516,20.409,7.046,21,7.559,21.609c0.512,0.607,1.064,1.181,1.625,1.743
	c0.233,0.232,0.465,0.465,0.706,0.692c0.238,0.227,0.485,0.446,0.704,0.692c0.106,0.12,0.25,0.176,0.4,0.203
	c0.228,0.304,0.7,0.456,1.029,0.223c0.584-0.411,1.163-0.828,1.762-1.214c0.08-0.052,0.161-0.103,0.241-0.155
	c-0.199,0.434-0.414,0.864-0.693,1.252c-0.022,0.025-0.045,0.049-0.07,0.072c-0.058,0.061-0.098,0.132-0.132,0.204
	c-0.11,0.046-0.212,0.107-0.294,0.189c-0.173,0.173-0.271,0.409-0.271,0.653c0,0.258,0.107,0.463,0.271,0.653
	c0.442,0.51,0.907,0.997,1.38,1.479c0.198,0.2,0.409,0.39,0.617,0.582c0.155,0.145,0.316,0.292,0.469,0.445
	c0.005,0.028,0,0.056,0.008,0.084c0.054,0.199,0.188,0.372,0.366,0.477c0.169,0.099,0.427,0.155,0.617,0.082
	c0.081-0.033,0.163-0.068,0.244-0.103c0.076-0.054,0.149-0.112,0.219-0.174c0.06-0.078,0.122-0.157,0.182-0.234
	c0.021-0.031,0.045-0.062,0.066-0.093c0.093-0.128,0.174-0.262,0.258-0.394c0.159-0.25,0.306-0.508,0.456-0.764
	c0.33-0.566,0.661-1.132,1.002-1.693c0.355-0.585,0.704-1.173,1.043-1.766c0.324-0.562,0.618-1.143,0.909-1.723
	c0.044,0.035,0.083,0.076,0.129,0.107c0.237,0.161,0.549,0.19,0.816,0.103c0.302-0.097,0.543-0.31,0.777-0.518
	c0.198-0.173,0.372-0.367,0.556-0.555c0.178-0.186,0.382-0.345,0.58-0.51c0.268-0.223,0.485-0.5,0.69-0.779
	c0.044-0.061,0.06-0.141,0.077-0.219c0.023-0.018,0.051-0.026,0.072-0.047c0.299-0.3,0.279-0.768,0-1.068
	c-0.273-0.296-0.568-0.57-0.853-0.855c-0.268-0.266-0.527-0.539-0.787-0.812c-0.523-0.553-1.028-1.125-1.543-1.685
	c-0.437-0.477-0.888-0.94-1.339-1.404c0.218,0.019,0.44-0.041,0.594-0.208c0.26-0.283,0.533-0.55,0.801-0.826
	c0.264-0.27,0.522-0.547,0.785-0.818c0.531-0.545,1.078-1.078,1.629-1.604c0.57-0.545,1.119-1.109,1.683-1.658
	c0.578-0.564,1.154-1.13,1.718-1.708c0.394-0.403,0.781-0.806,1.183-1.2c0.45-0.438,0.907-0.87,1.361-1.307
	C29.891,5.173,29.894,4.713,29.659,4.403z M22.079,19.403c0.243,0.25,0.496,0.491,0.748,0.734c-0.007,0.009-0.013,0.019-0.019,0.028
	c-0.238,0.274-0.518,0.494-0.778,0.745c-0.138,0.132-0.266,0.271-0.396,0.413c-0.078,0.086-0.16,0.168-0.245,0.247
	c-0.122-0.112-0.248-0.222-0.367-0.338c-0.209-0.2-0.39-0.428-0.574-0.651c-0.207-0.252-0.413-0.506-0.618-0.76
	c-0.126-0.155-0.37-0.235-0.562-0.235c-0.211,0-0.417,0.085-0.564,0.235c-0.149,0.149-0.235,0.353-0.235,0.564
	c0,0.227,0.095,0.394,0.235,0.564c0.248,0.302,0.501,0.604,0.76,0.901c-0.052,0.051-0.096,0.11-0.13,0.178
	c-0.564,1.154-1.123,2.305-1.762,3.42c-0.289,0.502-0.591,0.995-0.884,1.495c-0.163,0.28-0.328,0.561-0.497,0.837
	c-0.23-0.243-0.458-0.488-0.686-0.733c-0.347-0.374-0.68-0.76-1.013-1.146c0.155-0.241,0.296-0.495,0.433-0.746
	c0.157-0.285,0.295-0.578,0.436-0.871c0.068-0.144,0.132-0.289,0.196-0.432c0.178-0.39,0.353-0.799,0.392-1.229
	c0.019-0.217,0.004-0.444-0.109-0.638c-0.145-0.248-0.409-0.405-0.694-0.415c-0.01,0-0.019,0-0.029,0
	c-0.252,0-0.478,0.12-0.694,0.239c-0.239,0.132-0.467,0.281-0.702,0.42c-0.254,0.149-0.508,0.297-0.758,0.448
	c-0.453,0.273-0.894,0.564-1.333,0.857c-0.248-0.226-0.51-0.437-0.749-0.676c-0.302-0.3-0.601-0.605-0.898-0.911
	c-0.262-0.271-0.535-0.529-0.801-0.797c-0.233-0.236-0.454-0.482-0.676-0.728c0.618-0.51,1.221-1.04,1.818-1.575
	c0.332-0.296,0.301-0.851,0-1.152c-0.159-0.159-0.36-0.234-0.562-0.234c-0.211,0-0.423,0.082-0.592,0.234
	c-0.585,0.53-1.165,1.065-1.76,1.586c-0.228-0.233-0.448-0.475-0.68-0.704c0.266-0.24,0.548-0.463,0.83-0.684
	c-0.052,0.039-0.103,0.079-0.155,0.118c0.23-0.177,0.459-0.353,0.688-0.53c-0.017,0.014-0.035,0.027-0.053,0.041
	c0.467-0.354,0.936-0.706,1.406-1.057c0.169-0.128,0.299-0.252,0.357-0.465c0.054-0.2,0.027-0.418-0.079-0.599
	c-0.101-0.174-0.27-0.304-0.463-0.356c-0.067-0.019-0.144-0.029-0.222-0.029c-0.136,0-0.277,0.031-0.377,0.106
	c-1.021,0.774-2.04,1.556-3.02,2.379c-0.212-0.209-0.427-0.416-0.636-0.627c-0.262-0.265-0.52-0.531-0.773-0.804
	c0.205-0.13,0.405-0.268,0.612-0.396c0.502-0.311,1-0.63,1.505-0.94c1.123-0.69,2.327-1.25,3.511-1.832
	c0.109-0.054,0.195-0.135,0.262-0.23c0.189,0.165,0.381,0.327,0.57,0.492c0.603,0.527,1.171,1.093,1.749,1.648
	c0.589,0.568,1.204,1.109,1.793,1.679c0.264,0.254,0.512,0.523,0.776,0.777c0.283,0.271,0.58,0.529,0.871,0.793
	c0.176,0.163,0.345,0.332,0.508,0.508c0.283,0.312,0.807,0.289,1.094,0c0.285-0.283,0.316-0.814,0-1.093
	c-1.15-1.014-2.245-2.088-3.368-3.133c-1.192-1.111-2.323-2.29-3.544-3.372c-0.08-0.071-0.16-0.14-0.24-0.21
	c0.002-0.002,0.003-0.005,0.005-0.008c0.277-0.328,0.617-0.59,0.908-0.904c0.151-0.161,0.291-0.332,0.452-0.481
	c0.048-0.045,0.095-0.09,0.143-0.135c1.139,1.002,2.281,2.003,3.386,3.044c0.584,0.549,1.126,1.136,1.691,1.706
	c0.56,0.566,1.117,1.14,1.677,1.708c0.394,0.397,0.791,0.793,1.175,1.2c0.396,0.419,0.805,0.828,1.183,1.262
	C21.317,18.58,21.687,19,22.079,19.403z M26.547,6.275C26,6.864,25.455,7.454,24.879,8.012c-0.574,0.559-1.15,1.111-1.714,1.677
	c-0.553,0.551-1.101,1.103-1.652,1.656c-0.339,0.341-0.682,0.681-1.012,1.033c-0.365,0.388-0.735,0.768-1.132,1.119
	c-0.165,0.146-0.227,0.361-0.214,0.572c-0.372-0.376-0.745-0.753-1.117-1.13c0.02-0.017,0.045-0.023,0.063-0.042
	c0.57-0.607,1.123-1.231,1.714-1.819c0.589-0.587,1.167-1.188,1.76-1.774c1.194-1.177,2.309-2.431,3.56-3.55
	c0.699-0.625,1.394-1.254,2.079-1.894c0.002,0.002,0.004,0.004,0.006,0.006c0.134,0.13,0.28,0.248,0.406,0.385
	c0.091,0.128,0.181,0.257,0.278,0.381c0.037,0.047,0.077,0.092,0.117,0.137C27.524,5.265,27.025,5.759,26.547,6.275z"/>
</svg>