<?xml version="1.0" encoding="utf-8"?>
<!-- Generator: Adobe Illustrator 21.1.0, SVG Export Plug-In . SVG Version: 6.00 Build 0)  -->
<svg version="1.1" id="designs" xmlns="http://www.w3.org/2000/svg" xmlns:xlink="http://www.w3.org/1999/xlink" x="0px" y="0px"
	 width="32px" height="32px" viewBox="0 0 32 32" style="enable-background:new 0 0 32 32;" xml:space="preserve">
<style type="text/css">
	.sketchy_een{fill:#111918;}
</style>
<path class="sketchy_een" d="M6.443,7.799C6.436,7.808,6.43,7.816,6.423,7.825C6.422,7.826,6.42,7.828,6.419,7.83
	C6.427,7.82,6.435,7.81,6.443,7.799z M6.171,8.152C6.19,8.128,6.208,8.104,6.227,8.079C6.25,8.05,6.272,8.02,6.295,7.99
	C6.254,8.044,6.212,8.098,6.171,8.152z M22.837,7.752c-0.01-0.008-0.02-0.015-0.03-0.023c0.013,0.01,0.027,0.021,0.04,0.031
	C22.844,7.758,22.841,7.755,22.837,7.752z M28.997,15.885c0.014,0.405-0.032,0.816-0.086,1.217c-0.058,0.439-0.117,0.886-0.22,1.316
	c-0.405,1.698-1.097,3.324-2.037,4.794c-0.247,0.385-0.526,0.745-0.807,1.106c-0.241,0.31-0.492,0.636-0.776,0.909
	c-0.63,0.607-1.329,1.125-2.094,1.552c-0.396,0.222-0.794,0.43-1.214,0.607c-0.384,0.16-0.776,0.301-1.172,0.43
	c-0.837,0.274-1.7,0.398-2.571,0.506c-0.803,0.097-1.61,0.18-2.42,0.173c-0.868-0.009-1.727-0.11-2.579-0.274
	c-0.789-0.153-1.601-0.295-2.352-0.587c-0.445-0.171-0.906-0.349-1.313-0.598c-0.328-0.202-0.646-0.414-0.958-0.641
	c-0.69-0.502-1.417-0.992-1.997-1.624C6.115,24.46,5.85,24.13,5.582,23.802C5.298,23.457,5,23.116,4.747,22.745
	c-0.245-0.356-0.484-0.717-0.677-1.104C3.866,21.233,3.7,20.804,3.54,20.377c-0.31-0.818-0.511-1.709-0.535-2.584
	c-0.022-0.841,0.025-1.684,0.119-2.519c0.056-0.488,0.128-0.971,0.24-1.45c0.094-0.396,0.209-0.803,0.353-1.183
	c0.317-0.834,0.701-1.633,1.127-2.413c0.411-0.75,0.866-1.469,1.383-2.149c0.065-0.085,0.131-0.17,0.196-0.255
	c0.134-0.171,0.27-0.34,0.409-0.508C7.399,6.62,8.127,6.088,8.847,5.559c0.655-0.481,1.378-0.902,2.123-1.232
	c0.268-0.121,0.538-0.234,0.814-0.34c0.176-0.068,0.362-0.14,0.547-0.185c0.448-0.114,0.895-0.196,1.356-0.247
	c0.313-0.033,0.627-0.05,0.941-0.05c0.115,0,0.231,0.002,0.347,0.007c0.551,0.023,1.095,0.092,1.642,0.167
	c0.025,0.003,0.049,0.009,0.074,0.018c0.112-0.061,0.24-0.098,0.357-0.084c0.555,0.065,1.1,0.162,1.637,0.312
	c0.421,0.115,0.832,0.258,1.246,0.396c0.821,0.272,1.633,0.56,2.364,1.034c0.728,0.47,1.45,0.958,2.121,1.509
	c0.618,0.504,1.228,1.012,1.774,1.597c0.315,0.339,0.628,0.699,0.879,1.091c0.227,0.351,0.423,0.719,0.594,1.098
	c0.376,0.837,0.717,1.698,0.962,2.582C28.864,14.094,28.965,14.993,28.997,15.885z M27.438,15.971
	c-0.003-0.315-0.039-0.628-0.078-0.939c-0.097-0.547-0.225-1.084-0.392-1.615c-0.144-0.464-0.332-0.916-0.518-1.366
	c-0.141-0.322-0.287-0.641-0.453-0.95c-0.164-0.308-0.347-0.596-0.549-0.876c-0.754-0.933-1.658-1.727-2.6-2.465
	c0.009,0.007,0.018,0.014,0.027,0.02c-0.012-0.01-0.025-0.019-0.038-0.029c-0.044-0.034-0.088-0.068-0.132-0.103
	c0.034,0.026,0.068,0.053,0.102,0.08c-0.722-0.555-1.464-1.118-2.295-1.497c-0.521-0.209-1.053-0.395-1.583-0.576
	c-0.605-0.206-1.226-0.384-1.859-0.478c-0.008-0.001-0.015-0.002-0.023-0.003c-0.104-0.013-0.199-0.029-0.287-0.061
	c-0.181,0.092-0.354,0.085-0.556,0.057c-0.044-0.007-0.087-0.013-0.132-0.019c-0.211-0.027-0.424-0.055-0.637-0.082
	c-0.234-0.031-0.477-0.027-0.713-0.04c-0.391-0.02-0.785,0.023-1.173,0.06c-0.273,0.046-0.553,0.087-0.815,0.175
	c-0.257,0.086-0.508,0.177-0.76,0.276c-0.483,0.224-0.949,0.468-1.406,0.741c-0.435,0.26-0.844,0.556-1.248,0.858
	C9.052,7.35,8.778,7.557,8.544,7.799C8.265,8.088,8.004,8.385,7.75,8.695c-0.439,0.583-0.849,1.181-1.206,1.818
	c-0.366,0.649-0.697,1.313-0.998,1.993c-0.302,0.763-0.535,1.547-0.678,2.357c-0.138,1.11-0.224,2.243-0.111,3.356
	c0.068,0.412,0.15,0.824,0.276,1.222c0.118,0.374,0.254,0.741,0.397,1.107c0.261,0.578,0.591,1.111,0.968,1.624
	c0.293,0.374,0.588,0.749,0.899,1.106c0.326,0.374,0.677,0.707,1.062,1.017c0.414,0.308,0.833,0.613,1.259,0.904
	c0.212,0.148,0.429,0.294,0.657,0.418c0.207,0.112,0.417,0.213,0.63,0.31c0.579,0.22,1.166,0.384,1.774,0.515
	c0.601,0.129,1.204,0.25,1.813,0.336c1.344,0.158,2.702,0.023,4.04-0.144c0.941-0.143,1.845-0.409,2.727-0.764
	c0.707-0.33,1.389-0.712,2.022-1.167c0.33-0.267,0.641-0.541,0.934-0.851c0.269-0.286,0.518-0.594,0.761-0.905
	c0.611-0.831,1.124-1.714,1.54-2.656c0.213-0.534,0.388-1.082,0.555-1.632c0.149-0.494,0.238-1.001,0.309-1.511
	C27.423,16.754,27.441,16.365,27.438,15.971z M20.349,12.77c-0.297-0.297-0.821-0.313-1.115,0c-0.074,0.08-0.139,0.168-0.205,0.256
	c-0.167,0.198-0.365,0.369-0.543,0.558c-0.267,0.283-0.538,0.562-0.816,0.836c-0.313,0.31-0.632,0.61-0.974,0.893
	c-0.049,0.041-0.098,0.082-0.147,0.123c-0.002-0.193-0.005-0.386-0.012-0.579c-0.023-0.646-0.07-1.293-0.081-1.939
	c-0.013-0.7-0.016-1.401,0-2.102c0.007-0.36,0.031-0.72,0.049-1.08c0.02-0.434,0.014-0.866,0-1.298
	c-0.014-0.47-0.38-0.863-0.863-0.863c-0.456,0-0.884,0.393-0.864,0.863c0.022,0.477,0.04,0.951,0.034,1.43
	c-0.005,0.393-0.02,0.785-0.034,1.179c-0.029,0.782-0.045,1.567-0.027,2.348c0.018,0.74,0.101,1.477,0.13,2.217
	c0.014,0.322,0.022,0.648,0.054,0.969c0.032,0.315,0.094,0.578,0.312,0.823c0.115,0.132,0.283,0.223,0.45,0.268
	c0.288,0.074,0.578-0.012,0.825-0.166c0.256-0.16,0.484-0.391,0.708-0.593c0.169-0.151,0.34-0.299,0.515-0.445
	c0.366-0.308,0.717-0.637,1.055-0.978c0.295-0.299,0.589-0.601,0.884-0.902c0.108-0.108,0.218-0.218,0.328-0.324
	c0.145-0.14,0.263-0.296,0.385-0.455C20.635,13.497,20.637,13.056,20.349,12.77z M20.409,13.797
	c-0.003,0.005-0.007,0.008-0.011,0.013c-0.002,0.003-0.003,0.006-0.006,0.009C20.398,13.811,20.403,13.804,20.409,13.797z
	 M20.349,13.885c0.019-0.02,0.026-0.045,0.043-0.067c-0.027,0.036-0.054,0.071-0.081,0.106
	C20.323,13.91,20.336,13.897,20.349,13.885z M7.004,16.224c-0.427,0-0.783,0.357-0.783,0.783c0,0.427,0.357,0.783,0.783,0.783
	s0.783-0.356,0.783-0.783C7.787,16.58,7.431,16.224,7.004,16.224z M15.876,23.756c-0.427,0-0.783,0.357-0.783,0.783
	s0.357,0.783,0.783,0.783c0.427,0,0.783-0.356,0.783-0.783S16.303,23.756,15.876,23.756z M24.766,16.385
	c-0.427,0-0.783,0.356-0.783,0.783s0.357,0.783,0.783,0.783c0.427,0,0.783-0.357,0.783-0.783S25.192,16.385,24.766,16.385z"/>
</svg>