<?xml version="1.0" encoding="utf-8"?>
<!-- Generator: Adobe Illustrator 21.1.0, SVG Export Plug-In . SVG Version: 6.00 Build 0)  -->
<svg version="1.1" id="designs" xmlns="http://www.w3.org/2000/svg" xmlns:xlink="http://www.w3.org/1999/xlink" x="0px" y="0px"
	 width="32px" height="32px" viewBox="0 0 32 32" style="enable-background:new 0 0 32 32;" xml:space="preserve">
<style type="text/css">
	.sketchy_een{fill:#111918;}
</style>
<path class="sketchy_een" d="M29.956,14.833c-0.072-0.83-0.235-1.653-0.466-2.45c-0.132-0.46-0.299-0.9-0.531-1.319
	c-0.196-0.351-0.435-0.665-0.7-0.968c-0.188-0.211-0.367-0.437-0.578-0.627c-0.285-0.255-0.622-0.444-0.93-0.668
	c-0.318-0.252-0.641-0.491-0.987-0.703c-0.361-0.225-0.741-0.396-1.141-0.537c-0.398-0.14-0.795-0.281-1.199-0.401
	c-0.347-0.103-0.704-0.175-1.046-0.297c-0.367-0.13-0.739-0.237-1.121-0.308c-0.427-0.079-0.846-0.196-1.272-0.279
	c-0.809-0.157-1.622-0.147-2.44-0.146c-0.252,0.002-0.502,0-0.753,0c-0.213-0.001-0.426-0.003-0.639-0.003
	c-0.088,0-0.176,0-0.263,0.001c-0.528,0.002-1.053,0.031-1.581,0.027c-0.349-0.004-0.7-0.002-1.049-0.006
	c-0.138-0.002-0.273,0.006-0.409,0.01c-0.066,0.004-0.128,0.002-0.188,0c-0.138-0.006-0.272-0.01-0.419,0.035
	c-0.313,0.098-0.534,0.35-0.613,0.647c-0.002,0.002-0.006,0.003-0.008,0.005c-0.099,0.101-0.167,0.217-0.206,0.353
	c-0.07,0.178-0.089,0.376-0.153,0.559c-0.08,0.237-0.173,0.47-0.27,0.701c-0.144,0.323-0.318,0.63-0.497,0.936
	c-0.003,0.005-0.007,0.011-0.01,0.017c-0.027-0.065-0.054-0.131-0.082-0.196c-0.121-0.315-0.189-0.65-0.271-0.977
	c-0.101-0.394-0.181-0.793-0.26-1.192l0,0C9.957,6.748,9.86,6.47,9.662,6.243C9.527,6.088,9.28,5.987,9.072,5.987
	c-0.008,0-0.015,0-0.023,0C8.947,5.992,8.845,6.011,8.744,6.029C7.855,6.123,6.954,6.1,6.064,6.067
	C4.991,6.024,3.924,5.985,2.852,6.015C2.388,6.026,2,6.393,2,6.866c0,0.162,0.063,0.312,0.149,0.447
	c0.044,0.692,0.099,1.384,0.137,2.076c0.029,0.514,0.019,1.03,0.021,1.546c0.002,0.361,0.004,0.724,0,1.084
	C2.306,12.16,2.31,12.3,2.309,12.439c-0.049,0.072-0.093,0.148-0.117,0.232c-0.056,0.206-0.027,0.432,0.081,0.617
	c0.084,0.146,0.251,0.292,0.425,0.343c0.12,0.073,0.253,0.127,0.411,0.127c0.029,0,0.055-0.014,0.084-0.017
	c0.663,0.14,1.309,0.358,1.952,0.567c0.559,0.182,1.113,0.376,1.672,0.557C7.35,15.036,7.87,15.233,8.4,15.4
	c0.501,0.159,1.011,0.309,1.499,0.501c0.033,0.369,0.084,0.735,0.136,1.102c0.107,0.83,0.188,1.665,0.357,2.485
	c0.089,0.427,0.231,0.836,0.388,1.241c0.165,0.431,0.372,0.854,0.628,1.238c0.242,0.365,0.473,0.733,0.741,1.08
	c0.149,0.19,0.336,0.353,0.495,0.535c0.204,0.235,0.413,0.458,0.652,0.658c0.186,0.155,0.384,0.293,0.582,0.432
	c0.138,0.095,0.273,0.188,0.425,0.26c0.194,0.094,0.398,0.168,0.598,0.247c0.19,0.086,0.376,0.18,0.573,0.251
	c0.159,0.058,0.334,0.083,0.495,0.128c0.118,0.033,0.235,0.066,0.353,0.097c0.198,0.048,0.4,0.097,0.601,0.132
	c0.214,0.035,0.432,0.053,0.648,0.078c0.406,0.057,0.81,0.111,1.22,0.131c0.235,0.012,0.475,0.021,0.712,0.01
	c0.289-0.012,0.574-0.039,0.863-0.023c0.522,0.027,1.042-0.107,1.532-0.27c0.685-0.227,1.393-0.338,2.095-0.495
	c0.421-0.095,0.807-0.297,1.164-0.531c0.385-0.255,0.761-0.533,1.129-0.814c0.502-0.387,1.026-0.789,1.429-1.282
	c0.25-0.305,0.456-0.638,0.675-0.966c0.258-0.39,0.454-0.815,0.63-1.247c0.175-0.432,0.324-0.873,0.464-1.317
	c0.122-0.388,0.208-0.782,0.272-1.183c0.058-0.347,0.13-0.694,0.178-1.045C30.024,16.17,30.012,15.498,29.956,14.833z
	 M28.045,16.622c-0.002,0.014-0.004,0.029-0.006,0.043c0.004-0.03,0.008-0.06,0.012-0.09C28.049,16.59,28.047,16.606,28.045,16.622z
	 M28.029,16.739c-0.098,0.663-0.233,1.332-0.471,1.96c-0.15,0.396-0.259,0.808-0.412,1.204c-0.165,0.366-0.358,0.718-0.568,1.06
	c-0.127,0.206-0.249,0.424-0.39,0.623c-0.128,0.151-0.275,0.286-0.417,0.424c-0.182,0.179-0.358,0.36-0.554,0.523
	c-0.424,0.321-0.87,0.629-1.355,0.851c-0.564,0.208-1.167,0.261-1.759,0.362c-0.442,0.074-0.872,0.222-1.314,0.302
	c-0.204,0.013-0.406-0.003-0.612-0.011c-0.169-0.004-0.339-0.002-0.508,0c-0.128,0.002-0.26,0.004-0.388,0.002
	c-0.428-0.004-0.86-0.024-1.287-0.077c-0.171-0.026-0.342-0.051-0.515-0.065c-0.116-0.01-0.233-0.017-0.35-0.027
	c-0.132-0.026-0.261-0.061-0.391-0.097c-0.239-0.066-0.483-0.109-0.724-0.173c-0.136-0.037-0.264-0.095-0.394-0.149
	c-0.131-0.055-0.264-0.104-0.396-0.155c-0.215-0.103-0.414-0.232-0.608-0.371c-0.254-0.214-0.485-0.448-0.718-0.683
	c-0.213-0.214-0.436-0.405-0.629-0.637c-0.352-0.47-0.699-0.957-0.949-1.488c-0.091-0.219-0.179-0.441-0.24-0.669
	c-0.074-0.277-0.13-0.559-0.184-0.842c-0.1-0.513-0.174-1.031-0.245-1.547c-0.032-0.247-0.062-0.491-0.088-0.738
	c-0.029-0.266-0.027-0.531-0.031-0.797c-0.003-0.262-0.135-0.489-0.327-0.642c-0.166-0.242-0.4-0.368-0.68-0.437
	c-0.153-0.037-0.301-0.085-0.45-0.136c-0.293-0.097-0.588-0.182-0.885-0.273c-0.564-0.171-1.129-0.353-1.691-0.539
	c-0.303-0.101-0.609-0.186-0.914-0.281c-0.32-0.099-0.634-0.213-0.948-0.32c-0.572-0.196-1.136-0.431-1.716-0.604
	c0.002-0.091,0-0.182,0-0.272c-0.002-0.361,0-0.723,0-1.084c0-1.087-0.007-2.175-0.044-3.263c0.752-0.033,1.504-0.062,2.256-0.05
	c0.483,0.008,0.966,0.01,1.447,0.014c0.242,0,0.483-0.012,0.724-0.021C8.329,7.614,8.355,7.613,8.38,7.612
	c0.09,0.404,0.187,0.806,0.307,1.203c0.058,0.19,0.118,0.382,0.178,0.57c0.068,0.206,0.161,0.403,0.248,0.6
	c0.161,0.418,0.256,0.856,0.462,1.256c0.089,0.177,0.221,0.343,0.398,0.438c0.194,0.103,0.413,0.138,0.628,0.079
	c0.227-0.064,0.386-0.219,0.51-0.411c0.052-0.079,0.087-0.173,0.128-0.258c0.076-0.153,0.157-0.305,0.241-0.454
	c0.12-0.217,0.25-0.425,0.388-0.632c0.136-0.202,0.25-0.419,0.367-0.632c0.256-0.47,0.402-0.982,0.6-1.476
	c0.015-0.002,0.031-0.004,0.046-0.007c0.134-0.012,0.27-0.015,0.406-0.025c0.188-0.012,0.374-0.035,0.561-0.043
	c0.615-0.025,1.232-0.052,1.847-0.052c0.675,0,1.352-0.002,2.029,0.006c0.54,0.009,1.083,0.011,1.62,0.068
	c0.428,0.076,0.848,0.195,1.272,0.281c0.215,0.045,0.423,0.087,0.63,0.155c0.219,0.07,0.431,0.155,0.644,0.239
	c0.392,0.155,0.809,0.254,1.206,0.388c0.386,0.13,0.766,0.286,1.144,0.44c0.413,0.195,0.794,0.473,1.16,0.752
	c0.306,0.244,0.627,0.463,0.946,0.688c0.143,0.128,0.27,0.272,0.398,0.415c0.136,0.152,0.269,0.304,0.397,0.462
	c0.133,0.197,0.246,0.414,0.347,0.63c0.264,0.737,0.431,1.512,0.55,2.286c0.041,0.399,0.043,0.799,0.047,1.201
	C28.086,16.101,28.067,16.42,28.029,16.739z M26.242,23.909c0.015-0.011,0.03-0.023,0.045-0.035c0.043-0.033,0.087-0.066,0.13-0.099
	C26.358,23.82,26.3,23.864,26.242,23.909z M26.278,15.359c0.006,0.274,0.017,0.547,0.014,0.818c-0.006,0.299-0.058,0.596-0.103,0.89
	c-0.033,0.209-0.081,0.415-0.116,0.623c-0.054,0.305-0.173,0.584-0.324,0.853c-0.178,0.322-0.376,0.619-0.596,0.914
	c-0.198,0.266-0.367,0.545-0.551,0.821c-0.198,0.291-0.405,0.588-0.644,0.844c-0.153,0.167-0.351,0.297-0.528,0.433
	c-0.089,0.068-0.178,0.134-0.273,0.19c-0.246,0.145-0.489,0.312-0.751,0.429c-0.221,0.097-0.435,0.192-0.673,0.241
	c-0.217,0.047-0.448,0.095-0.669,0.105c-0.167,0.008-0.334,0.006-0.5,0.004c-0.128,0-0.256-0.002-0.384,0
	c-0.392,0.01-0.782,0.025-1.172,0.033c-0.436,0.006-0.801-0.37-0.801-0.801c0-0.438,0.365-0.799,0.801-0.801
	c0.2,0,0.402,0.006,0.603,0.01c0.43,0.009,0.863,0.02,1.288-0.022c0.183-0.031,0.367-0.071,0.543-0.132
	c0.297-0.147,0.578-0.327,0.842-0.531c0.093-0.073,0.186-0.146,0.273-0.226c0.125-0.117,0.235-0.248,0.342-0.381
	c0.09-0.122,0.174-0.247,0.254-0.374c0.147-0.227,0.308-0.444,0.467-0.663c0.151-0.204,0.287-0.419,0.421-0.634
	c0.094-0.153,0.189-0.305,0.269-0.466c0.071-0.203,0.12-0.416,0.163-0.624c0.049-0.227,0.114-0.453,0.155-0.68
	c0.028-0.29,0.031-0.58,0.024-0.872c-0.012-0.442,0.378-0.813,0.813-0.813C25.915,14.547,26.27,14.917,26.278,15.359z"/>
</svg>