<?xml version="1.0" encoding="utf-8"?>
<!-- Generator: Adobe Illustrator 21.1.0, SVG Export Plug-In . SVG Version: 6.00 Build 0)  -->
<svg version="1.1" id="designs" xmlns="http://www.w3.org/2000/svg" xmlns:xlink="http://www.w3.org/1999/xlink" x="0px" y="0px"
	 width="32px" height="32px" viewBox="0 0 32 32" style="enable-background:new 0 0 32 32;" xml:space="preserve">
<style type="text/css">
	.sketchy_een{fill:#111918;}
</style>
<path class="sketchy_een" d="M15.708,30.992c-0.45-0.005-0.812-0.014-1.177-0.027c-0.217-0.006-0.433-0.021-0.647-0.062
	c-0.407-0.075-0.727-0.366-0.879-0.798c-0.103-0.29-0.119-0.624-0.121-0.914c-0.002-0.17,0.003-0.341,0.008-0.513
	c0.006-0.185,0.012-0.37,0.008-0.553c-0.011-0.693-0.047-1.384-0.083-2.075l-0.052-1.055c0,0-1.352,0.014-1.723,0.014
	c-1.586,0-3.18-0.048-4.393-0.09l-0.113,0.008c-0.062,0.018-0.12,0.035-0.179,0.035c-0.232,0-0.462-0.102-0.631-0.279
	c-0.157-0.164-0.238-0.37-0.229-0.579l0.013-0.283c0.008-0.241,0.008-0.48,0.009-0.719c0-0.176,0-0.352,0.004-0.528
	c0.006-0.44,0.006-0.881,0.002-1.321l-0.02-3.289c-0.006-1.485-0.012-3.022-0.073-4.534c-0.097-2.359-0.106-4.16-0.029-5.837
	l0.033-0.686c0.035-0.686,0.07-1.37,0.076-2.058C5.519,4.299,5.51,3.751,5.5,3.203C5.493,2.778,5.486,2.354,5.486,1.928
	c0-0.415,0.332-0.778,0.755-0.826C6.391,1.03,6.494,1,6.582,1l0.17,0.016c0.66,0.07,1.319,0.14,1.981,0.167
	c0.654,0.028,1.306,0.044,1.96,0.046c0.678,0.001,1.356,0.015,2.034,0.029c0.568,0.012,1.136,0.023,1.705,0.027l0.897,0.008
	c0.575,0.005,1.15,0.01,1.726,0.01l0.198-0.001c0.451-0.001,0.903-0.008,1.354-0.015c0.41-0.006,0.82-0.013,1.229-0.015
	c0.804-0.003,1.738-0.012,2.66-0.074c0.446-0.03,0.893-0.033,1.339-0.036c0.394-0.003,0.789-0.006,1.185-0.028
	c0.083,0,0.151,0.021,0.221,0.042l0.029,0.01l0.072-0.021c0.059-0.017,0.115-0.033,0.171-0.033c0.209,0,0.417,0.088,0.57,0.244
	c0.152,0.153,0.235,0.352,0.233,0.559c-0.006,0.459-0.021,0.918-0.037,1.378c-0.067,1.756-0.068,3.537-0.07,5.261v0.287
	c0,1.011,0.052,2.03,0.103,2.894c0.026,0.454,0.042,0.908,0.059,1.363c0.016,0.398,0.03,0.795,0.051,1.192
	c0.012,0.237,0.018,0.476,0.025,0.714l0.018,0.538c0.009,0.253,0.025,0.505,0.041,0.759l0.03,0.503
	c0.033,0.618,0.028,1.241,0.022,1.86l-0.003,0.472c-0.004,0.516,0,1.031,0.003,1.547l0.006,0.894
	c0.004,0.874,0.02,1.607,0.085,2.345c0.019,0.211-0.113,0.448-0.243,0.579c-0.157,0.155-0.373,0.246-0.591,0.246
	c-0.048,0-0.097-0.015-0.149-0.029c-0.009-0.003-0.089-0.035-0.089-0.035c-0.033,0.042-0.096,0.068-0.144,0.086
	c-0.051,0.018-0.107,0.032-0.162,0.027c-0.094-0.008-0.154-0.011-0.214-0.011c-0.15,0-0.301,0.018-0.451,0.035l-0.193,0.022
	c-0.238,0.023-0.476,0.028-0.714,0.028h-0.147c-0.642,0-1.28,0.004-1.921,0.018c-1.082,0.022-2.163,0.034-3.245,0.041h-0.104
	l0.005,0.105c0.021,0.452-0.025,0.917-0.069,1.367c-0.03,0.317-0.062,0.633-0.071,0.948c-0.007,0.256-0.021,1.338-0.021,1.338
	c-0.004,0.136-0.002,0.273,0,0.411c0.004,0.253,0.008,0.505-0.022,0.752c-0.034,0.31-0.097,0.544-0.304,0.759
	c-0.131,0.139-0.328,0.255-0.504,0.297c-0.191,0.047-0.399,0.074-0.605,0.076L16.434,31C16.192,31,15.95,30.996,15.708,30.992z
	 M14.568,24.981l0.003,0.102c0.013,0.446,0.02,0.892,0.028,1.338c0.007,0.414,0.031,1.49,0.031,1.49
	c0.006,0.286,0.013,0.572,0.036,0.857c0.008,0.102,0.02,0.398,0.02,0.398l0.091,0.005c0.225,0.012,0.452,0.017,0.676,0.022
	l0.98,0.023l0.001-0.1c0.001-0.182-0.002-0.364-0.006-0.545l-0.002-0.125c-0.008-0.437-0.015-0.878-0.004-1.315
	c0.013-0.51,0.05-1.021,0.087-1.532l0.045-0.635L14.568,24.981z M11.878,23.423c1.056,0,2.114,0.008,3.17,0.02
	c1.785,0.022,3.57,0.039,5.356,0.041h2.786c0.323,0,0.648-0.001,0.969-0.022c0.204-0.013,0.702-0.052,0.702-0.052l0.11-0.009
	l-0.007-0.434c0.005-0.201,0.015-0.401,0.025-0.602c0.011-0.204,0.021-0.407,0.025-0.612c0.008-0.426,0.008-0.852,0.008-1.278
	c0.005-0.787,0.009-1.577,0-2.362c-0.006-0.663-0.048-1.318-0.089-1.977l-0.029-0.45c-0.02-0.347-0.024-0.694-0.029-1.041
	l-0.036-1.458c-0.014-0.581-0.045-1.161-0.076-1.741l-0.049-0.953c-0.036-0.821-0.031-1.646-0.028-2.469c0,0,0.013-2.226,0.021-3.14
	c0.006-0.576,0.004-1.152,0.002-1.73l-0.002-0.528l-0.097-0.003c-0.182-0.006-0.363-0.008-0.545-0.008
	c-0.561,0-1.123,0.022-1.684,0.043c-0.35,0.014-0.699,0.027-1.048,0.035c-1.212,0.031-2.426,0.044-3.638,0.049
	c-0.715,0.002-1.43,0.011-2.146,0.019c-0.838,0.01-1.677,0.02-2.516,0.02L12.2,2.779l-1.098-0.015
	c-0.524-0.008-1.047-0.016-1.571-0.017C8.774,2.744,8.02,2.722,7.265,2.675L7.161,2.668L7.152,2.981
	C7.133,3.727,7.114,4.472,7.135,5.217L7.142,5.46c0.011,0.373,0.022,0.743,0.011,1.115C7.146,6.882,7.132,7.187,7.118,7.492
	L7.099,7.909c-0.041,0.911-0.056,1.879-0.045,2.956l0.003,0.299c0.007,0.867,0.015,1.734,0.057,2.601
	c0.026,0.54,0.033,1.08,0.039,1.62c0.004,0.344,0.009,0.688,0.018,1.032c0.007,0.257,0.02,0.512,0.033,0.769l0.026,0.577
	c0.013,0.415,0.01,0.829,0.006,1.244c-0.01,0.916-0.01,1.833-0.01,2.749l-0.002,1.526l0.649,0.035
	c0.972,0.053,1.978,0.107,2.97,0.107L11.878,23.423z M18.834,18.047l-0.497,0.002c-0.623,0-1.21-0.059-1.714-0.114
	c-0.653-0.069-1.281-0.136-1.906-0.136c-0.347,0.001-0.666,0.007-0.986,0.012c-0.359,0.006-0.717,0.013-1.076,0.014
	c-0.217,0-0.42-0.087-0.576-0.244c-0.156-0.156-0.241-0.361-0.241-0.574c0-0.445,0.373-0.822,0.815-0.822
	c0.629,0.003,1.255,0.014,1.881,0.025l0.444,0.007c0.242,0.002,0.483,0.005,0.723,0.029l0.936,0.09l0.262,0.031
	c0.222,0.027,0.443,0.054,0.667,0.066c0.273,0.017,0.547,0.026,0.819,0.028l0.27,0.003l0.949-0.008l0.327,0.003
	c0.449,0.011,0.802,0.362,0.802,0.799c0,0.437-0.346,0.78-0.804,0.799l-0.198,0.003L18.834,18.047z M19.461,13.723
	c-1.261-0.08-2.514-0.09-3.574-0.09L13.51,13.64l-0.924-0.004c-0.433-0.005-0.786-0.357-0.786-0.785c0-0.418,0.36-0.786,0.77-0.786
	l0.67,0.016c0.439,0.012,0.878,0.023,1.317,0.026l3.354-0.003l0.66,0.016c0.294,0.008,0.587,0.017,0.881,0.019
	c0.437,0.004,0.794,0.359,0.794,0.792c0,0.415-0.356,0.792-0.746,0.792L19.461,13.723z M12.856,9.397
	c-0.438,0-0.822-0.396-0.822-0.848c0-0.461,0.382-0.842,0.851-0.849c0.262-0.003,0.524-0.005,0.786-0.005
	c0.381,0,0.762,0.004,1.144,0.015l0.148,0.006c0.443,0.015,0.887,0.029,1.33,0.029l0.269-0.002c0.323-0.003,0.649-0.023,0.975-0.042
	c0.361-0.022,0.723-0.044,1.082-0.044c0.436,0,0.791,0.031,1.121,0.098c0.189,0.038,0.356,0.16,0.468,0.343
	c0.128,0.208,0.168,0.462,0.107,0.68c-0.056,0.208-0.195,0.39-0.381,0.497c-0.13,0.076-0.267,0.113-0.422,0.115l-0.298-0.044
	c-0.203-0.02-0.384-0.025-0.567-0.025c-0.173,0-0.346,0.005-0.519,0.01L17.31,9.353c-0.264,0.008-0.528,0.017-0.793,0.017
	l-0.225-0.002l-0.447-0.014c-0.29-0.01-0.58-0.02-0.869-0.02l-0.275,0.004C14.33,9.347,12.88,9.397,12.88,9.397H12.856z"/>
</svg>