<?xml version="1.0" encoding="utf-8"?>
<!-- Generator: Adobe Illustrator 21.1.0, SVG Export Plug-In . SVG Version: 6.00 Build 0)  -->
<svg version="1.1" id="designs" xmlns="http://www.w3.org/2000/svg" xmlns:xlink="http://www.w3.org/1999/xlink" x="0px" y="0px"
	 width="32px" height="32px" viewBox="0 0 32 32" style="enable-background:new 0 0 32 32;" xml:space="preserve">
<style type="text/css">
	.sketchy_een{fill:#111918;}
</style>
<path class="sketchy_een" d="M25.517,16.166c-0.043-0.288-0.093-0.573-0.166-0.855c-0.077-0.288-0.18-0.571-0.257-0.859
	c-0.147-0.563-0.323-1.13-0.546-1.668c-0.085-0.205-0.174-0.368-0.373-0.484c-0.001-0.001-0.003,0-0.004-0.001
	c-0.062-0.078-0.135-0.148-0.227-0.196c-0.246-0.128-0.486-0.255-0.757-0.321c-0.329-0.079-0.656-0.172-0.981-0.263
	c-0.397-0.112-0.803-0.176-1.205-0.261c-0.412-0.087-0.818-0.178-1.236-0.226c-0.811-0.093-1.625-0.188-2.442-0.217
	c-0.43-0.017-0.857-0.021-1.287-0.023c-0.198-0.001-0.397-0.005-0.595-0.005c-0.198,0-0.397,0.004-0.595,0.021
	c-0.89,0.072-1.778,0.145-2.67,0.197c-0.488,0.027-0.971,0.13-1.453,0.213c-0.209,0.035-0.418,0.07-0.625,0.116
	c-0.175,0.039-0.347,0.083-0.523,0.113c-0.278,0.034-0.559,0.061-0.828,0.138c-0.294,0.083-0.592,0.147-0.89,0.215
	c-0.275,0.063-0.463,0.287-0.547,0.545c-0.088,0.102-0.161,0.211-0.198,0.342c-0.31,0.735-0.548,1.503-0.673,2.293
	c-0.114,0.71-0.193,1.416-0.232,2.134c-0.016,0.298-0.031,0.596-0.016,0.892c0.017,0.393,0.07,0.791,0.134,1.178
	c0.037,0.223,0.087,0.449,0.159,0.662c0.081,0.24,0.207,0.443,0.323,0.666c0.171,0.325,0.583,0.474,0.929,0.387
	c0.443,0.062,0.887,0.116,1.336,0.134c0.357,0.015,0.718,0.01,1.075,0.045c0.169,0.025,0.339,0.048,0.508,0.063
	c0.147,0.012,0.292,0.014,0.439,0.023c0.128,0.01,0.253,0.025,0.381,0.031c0.167,0.008,0.332,0.004,0.497,0.019
	c0.166,0.024,0.333,0.045,0.501,0.062c0.106,0.012,0.213,0.018,0.319,0.006c0.238-0.027,0.495-0.062,0.7-0.199
	c0.176-0.118,0.288-0.263,0.435-0.408c0.103-0.101,0.211-0.197,0.308-0.306c0.091-0.101,0.17-0.209,0.263-0.308
	c0.089-0.097,0.172-0.197,0.257-0.296c0.036-0.041,0.068-0.084,0.102-0.126c0.075-0.016,0.15-0.03,0.226-0.042
	c0.358-0.047,0.722-0.091,1.083-0.089c0.114,0.002,0.232-0.004,0.348-0.008c0.199-0.009,0.398-0.017,0.594,0.001
	c0.198,0.029,0.396,0.055,0.595,0.079c0.018,0.038,0.035,0.076,0.051,0.113c0.052,0.13,0.102,0.26,0.172,0.381
	c0.05,0.087,0.114,0.168,0.176,0.248c0.163,0.217,0.342,0.416,0.511,0.629c0.093,0.116,0.186,0.211,0.317,0.29
	c0.209,0.126,0.441,0.161,0.679,0.172c0.313,0.016,0.629,0.012,0.942,0.023c0.789,0.031,1.579,0.045,2.368,0.037
	c0.302-0.002,0.606-0.006,0.907-0.031c0.207-0.017,0.416-0.041,0.619-0.079c0.153-0.029,0.3-0.091,0.447-0.139
	c0.118-0.039,0.236-0.079,0.344-0.141c0.353-0.198,0.471-0.651,0.304-1.007c0.045-0.07,0.082-0.143,0.092-0.217
	c0.048-0.344,0.097-0.679,0.099-1.025c0-0.275-0.004-0.55-0.017-0.822C25.686,17.391,25.606,16.779,25.517,16.166z M19.861,19.714
	c-0.002-0.002-0.004-0.003-0.006-0.005C19.857,19.71,19.859,19.712,19.861,19.714L19.861,19.714z M23.231,19.861
	c-0.333,0-0.668,0.012-1,0.006c-0.749-0.013-1.504-0.042-2.25-0.127c-0.024-0.004-0.047-0.009-0.071-0.015
	c-0.141-0.145-0.271-0.305-0.396-0.465c-0.136-0.189-0.222-0.412-0.326-0.619c-0.077-0.155-0.164-0.275-0.279-0.412
	c-0.122-0.147-0.294-0.223-0.466-0.288c-0.092-0.037-0.194-0.039-0.293-0.047c-0.108-0.015-0.216-0.029-0.324-0.043
	c0.032,0.005,0.063,0.009,0.094,0.013C17.558,17.82,17.194,17.8,16.83,17.8c-0.326,0-0.651,0.016-0.975,0.047
	c-0.269,0.025-0.54,0.044-0.811,0.068c-0.128,0.01-0.255,0.019-0.383,0.031c-0.114,0.012-0.23,0.029-0.344,0.048
	c-0.132,0.021-0.248,0.077-0.372,0.134c-0.166,0.073-0.284,0.232-0.399,0.368c-0.107,0.127-0.205,0.261-0.302,0.396
	c-0.102,0.128-0.208,0.255-0.317,0.375c-0.075,0.083-0.162,0.159-0.244,0.238c-0.029,0.028-0.057,0.058-0.086,0.087
	c-0.201,0.011-0.405-0.006-0.605-0.014c-0.149-0.006-0.298-0.004-0.445-0.004c-0.182,0.002-0.364,0.002-0.544-0.01
	c-0.358-0.021-0.714-0.064-1.072-0.083c-0.471-0.028-0.939-0.076-1.407-0.125c-0.14-0.02-0.279-0.041-0.417-0.062
	c-0.018-0.003-0.033,0-0.051-0.003c-0.074-0.22-0.122-0.455-0.158-0.685c-0.085-0.841-0.026-1.689,0.07-2.527
	c0.045-0.323,0.092-0.647,0.154-0.966c0.043-0.232,0.139-0.459,0.217-0.681c0.085-0.249,0.175-0.496,0.268-0.745
	c0.044-0.105,0.089-0.209,0.135-0.313c0.018-0.041,0.024-0.08,0.038-0.12c0.157-0.045,0.315-0.089,0.474-0.13
	c0.313-0.083,0.638-0.116,0.956-0.174c0.325-0.058,0.648-0.13,0.973-0.193c0.298-0.059,0.601-0.103,0.903-0.145
	c0.584-0.06,1.171-0.086,1.754-0.139c0.586-0.052,1.169-0.039,1.757-0.043c0.627-0.004,1.252,0.004,1.877,0.025
	c0.573,0.017,1.148,0.083,1.717,0.158c0.677,0.103,1.35,0.259,2.021,0.401c0.339,0.072,0.668,0.172,1.002,0.261
	c0.221,0.059,0.442,0.114,0.655,0.192c0.084,0.037,0.171,0.069,0.256,0.103c0.165,0.415,0.316,0.84,0.422,1.272
	c0.133,0.537,0.292,1.062,0.377,1.609c0.059,0.473,0.111,0.947,0.118,1.425c0.005,0.495,0.024,0.993-0.029,1.486
	c-0.003,0.016-0.005,0.032-0.008,0.048c-0.025,0.151-0.018,0.289,0.012,0.425c-0.006,0.001-0.012,0.003-0.018,0.004
	C23.745,19.86,23.486,19.863,23.231,19.861z M17.519,23.729c0.021,0.003,0.043,0.002,0.064,0.005
	c0.053,0.006,0.107,0.018,0.155,0.024C17.664,23.748,17.591,23.738,17.519,23.729z M16.683,20.943
	c-0.028-0.004-0.052-0.003-0.079-0.006c-0.048-0.006-0.095-0.017-0.143-0.023C16.536,20.923,16.61,20.933,16.683,20.943z
	 M17.999,22.047c0.007,0.015,0.013,0.031,0.02,0.046l0,0C18.012,22.078,18.006,22.062,17.999,22.047z M30.939,16.607
	c-0.031-0.373-0.046-0.749-0.072-1.124c-0.017-0.226-0.043-0.451-0.072-0.675c-0.031-0.225-0.093-0.406-0.184-0.615
	c-0.077-0.178-0.203-0.346-0.358-0.464c-0.161-0.126-0.288-0.215-0.49-0.271c-0.112-0.029-0.23-0.039-0.342-0.052
	c-0.096-0.012-0.193-0.017-0.29-0.017c-0.23,0-0.46,0.027-0.687,0.046c-0.116,0.011-0.23,0.025-0.344,0.039
	c-0.172,0.02-0.315,0.069-0.45,0.153c-0.123-0.354-0.257-0.703-0.375-1.061c-0.166-0.507-0.288-1.033-0.437-1.548
	c-0.07-0.242-0.251-0.424-0.471-0.511c-0.063-0.155-0.174-0.284-0.321-0.389c-0.116-0.083-0.259-0.128-0.393-0.182
	c-0.097-0.039-0.195-0.079-0.292-0.12c0.06,0.025,0.118,0.05,0.178,0.075c-0.366-0.155-0.737-0.275-1.116-0.391
	c-0.354-0.11-0.71-0.213-1.07-0.296c-0.377-0.085-0.76-0.149-1.136-0.238c-0.385-0.091-0.768-0.186-1.151-0.279
	c-0.82-0.203-1.67-0.308-2.51-0.401c-0.811-0.091-1.621-0.141-2.436-0.176c-0.293-0.013-0.586-0.019-0.879-0.019
	c-0.305,0-0.61,0.006-0.915,0.017c-0.627,0.023-1.253,0.115-1.874,0.202c-1.027,0.133-2.059,0.224-3.086,0.361
	C8.758,8.754,8.154,8.851,7.548,8.967C6.989,9.075,6.438,9.228,5.89,9.383C5.698,9.437,5.547,9.564,5.442,9.72
	c-0.14,0.068-0.263,0.168-0.341,0.312c-0.447,0.82-0.834,1.672-1.082,2.575c-0.022,0.08-0.041,0.162-0.062,0.242
	c-0.089-0.031-0.178-0.051-0.27-0.051c-0.078,0-0.159,0.009-0.242,0.024c-0.146,0.024-0.29,0.052-0.436,0.078
	c-0.239,0.023-0.482,0.035-0.708,0.119c-0.232,0.085-0.375,0.167-0.563,0.315c-0.201,0.159-0.31,0.381-0.393,0.617
	c-0.058,0.167-0.081,0.352-0.106,0.526c-0.028,0.193-0.048,0.387-0.072,0.581c-0.042,0.293-0.096,0.585-0.134,0.88
	c-0.035,0.259-0.035,0.513-0.033,0.774c0.002,0.468,0.06,0.931,0.068,1.397c0.002,0.081,0,0.162,0.004,0.244
	c0.012,0.248,0.064,0.428,0.166,0.648c0.083,0.184,0.221,0.344,0.354,0.493c0.271,0.306,0.644,0.36,1.024,0.401
	c0.205,0.021,0.412,0.05,0.619,0.062c0.201,0.012,0.384-0.076,0.524-0.209c0.014,0.063,0.022,0.127,0.037,0.19
	c0.079,0.333,0.207,0.664,0.333,0.981c0.145,0.373,0.294,0.747,0.453,1.115c0.205,0.48,0.406,1.022,0.786,1.395
	c0.196,0.191,0.468,0.251,0.721,0.203c0.105,0.048,0.218,0.081,0.339,0.089c0.78,0.048,1.558,0.104,2.337,0.108
	c0.76,0.002,1.517-0.042,2.277-0.083c0.664-0.035,1.331-0.029,1.997-0.066c0.23-0.012,0.459-0.021,0.691-0.016
	c0.104,0.002,0.211,0.008,0.317,0.004c0.232-0.01,0.414-0.056,0.619-0.159c0.236-0.118,0.435-0.321,0.635-0.491
	c0.148-0.125,0.283-0.264,0.427-0.394c0.008-0.005,0.015-0.009,0.023-0.014c0.059-0.017,0.119-0.03,0.179-0.04
	c0.117-0.012,0.235-0.018,0.352-0.014c0.042,0.01,0.082,0.022,0.123,0.036c0.001,0,0.002,0.001,0.003,0.001
	c0.033,0.059,0.062,0.12,0.09,0.181c0.058,0.15,0.111,0.304,0.199,0.436c0.166,0.246,0.383,0.397,0.666,0.488
	c0.069,0.022,0.145,0.026,0.221,0.034c0.382,0.047,0.759,0.049,1.145,0.051c0.377,0,0.753,0.021,1.13,0.044
	c0.414,0.027,0.83,0.023,1.244,0.019c0.362-0.002,0.722-0.006,1.082,0.01c0.35,0.016,0.702,0.056,1.053,0.048
	c0.379-0.008,0.757-0.062,1.136-0.085c0.341-0.021,0.681-0.039,1.02-0.07c0.203-0.019,0.406-0.037,0.606-0.073
	c0.124-0.021,0.246-0.058,0.368-0.089c0.093-0.025,0.188-0.041,0.281-0.068c0.148-0.043,0.265-0.135,0.363-0.244
	c0.326,0.056,0.675-0.082,0.845-0.382c0.344-0.607,0.453-1.316,0.557-1.999c0.039-0.258,0.059-0.518,0.087-0.777
	c0.135,0.109,0.318,0.203,0.485,0.181c0.727-0.091,1.697-0.056,1.945-0.923c0.077-0.273,0.037-0.586,0.054-0.867
	C31.022,17.874,30.99,17.242,30.939,16.607z M2.867,18.362c-0.034-0.005-0.068-0.011-0.101-0.018
	c-0.005-0.01-0.01-0.019-0.016-0.029c-0.002-0.007-0.004-0.014-0.006-0.021c-0.006-0.13-0.001-0.261-0.004-0.389
	c-0.006-0.246-0.017-0.491-0.037-0.735c-0.038-0.485-0.039-0.974,0.018-1.458c0.039-0.268,0.078-0.535,0.112-0.803
	c0.02-0.113,0.044-0.226,0.075-0.337c0.022-0.006,0.044-0.012,0.066-0.017c0.207-0.02,0.413-0.044,0.62-0.067
	c-0.029,0.211-0.053,0.423-0.077,0.635c-0.087,0.762-0.137,1.529-0.108,2.295c0.014,0.34,0.061,0.681,0.112,1.021
	c-0.089-0.036-0.185-0.059-0.286-0.061C3.112,18.375,2.989,18.373,2.867,18.362z M16.329,22.556
	c-0.014-0.006-0.027-0.012-0.041-0.018C16.302,22.545,16.316,22.551,16.329,22.556L16.329,22.556z M16.361,22.57
	c0.015,0.006,0.029,0.012,0.044,0.019l0,0C16.39,22.582,16.376,22.576,16.361,22.57z M16.461,22.612L16.461,22.612
	c0.005,0.002,0.01,0.004,0.015,0.006C16.471,22.616,16.466,22.614,16.461,22.612z M18.044,22.152
	c-0.002-0.005-0.004-0.009-0.006-0.014C18.04,22.143,18.042,22.147,18.044,22.152L18.044,22.152z M18.046,22.157L18.046,22.157
	L18.046,22.157L18.046,22.157z M18.047,22.158L18.047,22.158L18.047,22.158c0.011,0.001,0.021,0.003,0.032,0.004
	c-0.001,0-0.002,0-0.003,0c0.01,0.001,0.021,0.003,0.031,0.004C18.087,22.163,18.067,22.16,18.047,22.158z M26.013,22.086
	c-0.294,0.104-0.594,0.177-0.9,0.227c-0.236,0.027-0.475,0.034-0.713,0.044c-0.296,0.016-0.592,0.035-0.89,0.052
	c-0.286,0.017-0.571-0.006-0.857-0.029c-0.288-0.023-0.578-0.033-0.869-0.039c-0.625-0.012-1.25-0.045-1.873-0.081
	c-0.294-0.017-0.586-0.041-0.88-0.052c-0.296-0.013-0.596-0.01-0.891-0.04c-0.032-0.005-0.063-0.01-0.095-0.016
	c-0.007-0.016-0.015-0.033-0.022-0.05c-0.001-0.003-0.003-0.005-0.004-0.008c0.008,0.019,0.017,0.038,0.025,0.058h0
	c-0.008-0.02-0.017-0.039-0.025-0.058c-0.114-0.27-0.236-0.534-0.468-0.727c-0.124-0.104-0.25-0.197-0.397-0.263
	c-0.106-0.047-0.215-0.099-0.329-0.132c-0.072-0.02-0.146-0.026-0.221-0.035c-0.137-0.017-0.27-0.031-0.403-0.031
	c-0.074,0-0.148,0.003-0.226,0.011c-0.242,0.025-0.501,0.039-0.731,0.12c-0.284,0.099-0.507,0.255-0.72,0.466
	c-0.119,0.117-0.222,0.24-0.348,0.348c-0.079,0.059-0.161,0.115-0.247,0.163c-0.019,0.006-0.039,0.011-0.059,0.015
	c-0.376,0.034-0.755,0.026-1.13,0.043c-0.662,0.031-1.323,0.093-1.985,0.135c-0.698,0.042-1.401,0.083-2.101,0.054
	c-0.745-0.031-1.482-0.135-2.225-0.19c-0.018-0.001-0.034,0.009-0.052,0.009c-0.088-0.162-0.174-0.328-0.243-0.492
	c0.02,0.046,0.038,0.093,0.057,0.139c-0.092-0.219-0.191-0.434-0.286-0.652c-0.368-0.936-0.659-1.91-0.811-2.905
	c-0.036-0.311-0.067-0.621-0.086-0.934C4.989,16.926,5,16.615,5.006,16.305c0.009-0.615,0.089-1.225,0.166-1.834
	c0.051-0.317,0.127-0.625,0.215-0.935c0.104-0.365,0.199-0.739,0.34-1.093c0.232-0.536,0.506-1.049,0.792-1.558
	c0.577-0.171,1.155-0.339,1.74-0.479c0.588-0.141,1.175-0.246,1.772-0.335c0.715-0.093,1.428-0.179,2.145-0.244
	c0.784-0.07,1.565-0.164,2.351-0.186c0.751-0.021,1.503,0.01,2.254,0.05c0.749,0.041,1.496,0.108,2.24,0.202
	c0.462,0.07,0.924,0.144,1.384,0.238c0.507,0.104,1.008,0.232,1.515,0.341c0.499,0.106,1,0.195,1.496,0.325
	c0.255,0.068,0.509,0.143,0.764,0.211c0.213,0.056,0.43,0.108,0.635,0.192c-0.007-0.003-0.014-0.006-0.021-0.009
	c0.099,0.042,0.197,0.083,0.296,0.125c-0.06-0.025-0.12-0.05-0.18-0.075c0.104,0.044,0.209,0.089,0.304,0.148
	c0.045,0.032,0.093,0.053,0.141,0.075c0.151,0.511,0.305,1.022,0.473,1.528c0.151,0.453,0.306,0.9,0.439,1.358
	c0.132,0.461,0.265,0.919,0.389,1.382c0.107,0.395,0.163,0.801,0.217,1.206c0.077,0.611,0.11,1.221,0.123,1.836
	c0.015,0.587-0.022,1.164-0.098,1.747c-0.065,0.443-0.144,0.885-0.293,1.307c-0.027,0.053-0.062,0.102-0.095,0.152
	c-0.16-0.013-0.323,0.019-0.475,0.096C26.027,22.078,26.02,22.082,26.013,22.086z M29.26,18.399
	c-0.004,0.095-0.012,0.191-0.015,0.287c-0.03,0.007-0.061,0.013-0.091,0.019c-0.057,0.005-0.114,0.01-0.171,0.015
	c-0.158,0.013-0.295,0.062-0.42,0.14c-0.001-0.141,0.004-0.281,0.004-0.422c-0.004-0.387-0.015-0.772-0.054-1.157
	c-0.041-0.431-0.103-0.861-0.168-1.289c-0.045-0.291-0.118-0.574-0.2-0.855c0.244-0.032,0.488-0.066,0.732-0.099
	c0.093-0.011,0.185-0.02,0.277-0.022c0.005,0.024,0.01,0.049,0.015,0.073c0.035,0.348,0.045,0.698,0.062,1.046
	c0.021,0.426,0.035,0.851,0.041,1.275C29.273,17.741,29.271,18.07,29.26,18.399z M23.404,17.509
	c0.174,0.534-0.288,1.084-0.824,1.084c-0.445,0-0.886-0.389-0.857-0.855c0.005-0.06,0.003-0.118,0-0.177
	c-0.057-0.338-0.142-0.672-0.221-1.007c-0.114-0.48-0.236-0.96-0.358-1.439c-0.116-0.455,0.143-0.937,0.604-1.062
	c0.072-0.02,0.147-0.03,0.221-0.03c0.378,0,0.75,0.25,0.844,0.633c0.135,0.559,0.255,1.122,0.366,1.687
	C23.251,16.725,23.282,17.136,23.404,17.509z"/>
</svg>