<?xml version="1.0" encoding="utf-8"?>
<!-- Generator: Adobe Illustrator 21.1.0, SVG Export Plug-In . SVG Version: 6.00 Build 0)  -->
<svg version="1.1" id="designs" xmlns="http://www.w3.org/2000/svg" xmlns:xlink="http://www.w3.org/1999/xlink" x="0px" y="0px"
	 width="32px" height="32px" viewBox="0 0 32 32" style="enable-background:new 0 0 32 32;" xml:space="preserve">
<style type="text/css">
	.sketchy_een{fill:#111918;}
</style>
<path class="sketchy_een" d="M29.864,22.602c-0.114-0.216-0.223-0.432-0.328-0.654c-0.184-0.468-0.354-0.945-0.587-1.39
	c-0.374-0.718-1.074-1.199-1.762-1.588c-0.251-0.141-0.515-0.257-0.785-0.359c-0.009-0.095-0.017-0.19-0.027-0.285
	c-0.047-0.469-0.113-0.934-0.216-1.395c-0.089-0.408-0.185-0.813-0.291-1.217c-0.108-0.406-0.253-0.8-0.397-1.195
	c-0.302-0.824-0.722-1.59-1.204-2.323c-0.467-0.715-0.958-1.405-1.484-2.078c-0.018-0.024-0.036-0.047-0.054-0.071
	c0.002,0.002,0.003,0.004,0.005,0.006c-0.133-0.174-0.261-0.352-0.39-0.53c0.018-0.041,0.048-0.075,0.06-0.12
	c0.134-0.535,0.166-1.081,0.151-1.631c-0.013-0.543-0.034-1.085-0.121-1.622c-0.042-0.255-0.091-0.505-0.151-0.756
	c-0.06-0.248-0.161-0.488-0.244-0.728c-0.183-0.531-0.338-1.074-0.516-1.609c-0.13-0.389-0.473-0.662-0.87-0.662
	c-0.078,0-0.158,0.011-0.239,0.033c-0.452,0.125-0.788,0.645-0.63,1.11c0.182,0.533,0.352,1.07,0.544,1.599
	c0.087,0.242,0.172,0.482,0.251,0.726c0.068,0.211,0.103,0.435,0.136,0.655c0.037,0.372,0.05,0.744,0.061,1.116
	c0.011,0.371,0.011,0.742-0.023,1.109c-0.011,0.065-0.022,0.13-0.034,0.195c-0.003,0.015,0,0.029-0.003,0.044
	c-0.198-0.005-0.396-0.014-0.593-0.014c-0.161,0.002-0.321,0.002-0.48-0.002c-0.526-0.008-1.051,0.004-1.577,0.004
	c-0.013,0-0.025,0-0.038,0c-0.117-0.057-0.243-0.093-0.375-0.093c-0.145,0-0.288,0.037-0.413,0.102
	c-0.273,0.003-0.546,0.002-0.818-0.01c-0.614-0.03-1.229-0.076-1.839-0.142c-0.018-0.002-0.036-0.003-0.054-0.003
	c-0.206,0-0.429,0.123-0.566,0.26c-0.164,0.163-0.259,0.389-0.259,0.62c0,0.233,0.095,0.458,0.259,0.622
	c0.176,0.176,0.38,0.234,0.62,0.257c0.588,0.057,1.176,0.066,1.766,0.068c0.242,0.002,0.484,0.005,0.726,0.009
	c0.156,0.465,0.294,0.935,0.421,1.408c0.187,0.703,0.356,1.41,0.462,2.13c0.065,0.582,0.068,1.168,0.059,1.753
	c-0.007,0.585-0.036,1.163-0.104,1.744c-0.081,0.515-0.209,1.014-0.396,1.498c-0.082,0.174-0.17,0.341-0.279,0.5
	c-0.104,0.124-0.211,0.243-0.328,0.354c-0.065,0.041-0.131,0.077-0.2,0.11c-0.111,0.042-0.222,0.08-0.338,0.11
	c-0.08,0.004-0.159,0.003-0.239-0.002c-0.055-0.013-0.109-0.028-0.163-0.046c-0.164-0.081-0.318-0.174-0.468-0.279
	c-0.048-0.043-0.093-0.086-0.137-0.133c-0.003-0.005-0.006-0.01-0.009-0.016c-0.129-0.402-0.186-0.813-0.262-1.227
	c-0.075-0.413-0.153-0.827-0.218-1.243c-0.046-0.393-0.076-0.788-0.086-1.184c-0.011-0.505-0.004-1.01-0.023-1.514
	c-0.017-0.493-0.399-0.906-0.906-0.906c-0.011,0-0.021,0.006-0.033,0.007c-0.071-0.02-0.142-0.044-0.219-0.043
	c-0.454,0.011-0.906,0.026-1.357,0.03c-0.435,0.004-0.87-0.008-1.305-0.019c-0.423-0.011-0.847-0.019-1.27-0.036
	c-0.433-0.017-0.862-0.055-1.295-0.072c-0.828-0.03-1.658-0.059-2.488-0.07C5.685,13.515,5.47,13.51,5.255,13.51
	c-0.182,0-0.363,0.004-0.544,0.015c-0.149,0.009-0.301,0.026-0.446,0.051c-0.302,0.053-0.562,0.166-0.8,0.359
	c-0.199,0.161-0.359,0.352-0.486,0.575c-0.153,0.267-0.187,0.582-0.208,0.883c-0.03,0.42,0.053,0.841,0.225,1.223
	c0.098,0.219,0.233,0.418,0.414,0.578c0.209,0.184,0.462,0.283,0.724,0.359c-0.101,0.542-0.201,1.091-0.192,1.641
	c0.005,0.267,0.137,0.498,0.331,0.656c-0.083,0.067-0.168,0.132-0.248,0.198c-0.397,0.329-0.737,0.768-1.006,1.204
	c-0.308,0.501-0.537,1.036-0.728,1.592c-0.07,0.2-0.127,0.405-0.163,0.614c-0.055,0.321-0.115,0.656-0.127,0.983
	c-0.009,0.287,0.008,0.567,0.04,0.853c0.055,0.465,0.21,0.86,0.393,1.287c0.089,0.204,0.214,0.397,0.336,0.582
	c0.257,0.388,0.526,0.781,0.892,1.072c0.234,0.185,0.476,0.35,0.734,0.505c0.323,0.193,0.705,0.299,1.066,0.405
	c1.027,0.301,2.129,0.238,3.116-0.178c0.522-0.219,0.998-0.486,1.471-0.79c0.244-0.157,0.473-0.333,0.699-0.514
	c0.283-0.225,0.503-0.527,0.693-0.838c0.682-0.012,1.362-0.032,2.044-0.037c0.688-0.004,1.376,0.017,2.064,0.026
	c0.671,0.009,1.34,0.015,2.011,0.011c0.342-0.004,0.684-0.004,1.027-0.008c0.331-0.002,0.664-0.004,0.992-0.045
	c0.017-0.002,0.029-0.008,0.046-0.01c0.053,0.084,0.108,0.166,0.162,0.248c0.193,0.285,0.389,0.563,0.611,0.828
	c0.25,0.299,0.584,0.544,0.892,0.779c0.142,0.11,0.284,0.221,0.435,0.316c0.234,0.147,0.507,0.238,0.766,0.335
	c0.546,0.206,1.13,0.306,1.711,0.335c0.25,0.011,0.503-0.015,0.751-0.04c0.316-0.034,0.637-0.083,0.945-0.164
	c0.518-0.136,1.002-0.38,1.437-0.69c0.493-0.352,0.977-0.811,1.316-1.314c0.276-0.406,0.484-0.845,0.677-1.295
	c0.185-0.429,0.391-0.879,0.456-1.346c0.036-0.248,0.081-0.495,0.07-0.747c-0.004-0.097-0.012-0.193-0.019-0.29
	C30.043,23.392,30.056,22.964,29.864,22.602z M10.512,24.844c-0.054,0.294-0.125,0.582-0.227,0.863
	c-0.079,0.158-0.167,0.311-0.267,0.457c-0.13,0.147-0.27,0.279-0.42,0.403c-0.465,0.314-0.952,0.594-1.458,0.832
	c-0.276,0.102-0.549,0.185-0.838,0.243c-0.295,0.026-0.583,0.027-0.879,0.007c-0.371-0.073-0.737-0.185-1.09-0.321
	c-0.186-0.102-0.365-0.213-0.537-0.335c-0.106-0.094-0.203-0.194-0.296-0.3c-0.218-0.314-0.42-0.634-0.584-0.978
	c-0.057-0.162-0.109-0.323-0.148-0.49c-0.026-0.324-0.029-0.642,0.001-0.968c0.035-0.218,0.076-0.434,0.128-0.649
	c0.06-0.245,0.157-0.486,0.251-0.722c0.174-0.365,0.373-0.709,0.601-1.043c0.235-0.282,0.487-0.539,0.769-0.776
	c0.192-0.131,0.39-0.235,0.599-0.333c0.239-0.091,0.479-0.173,0.73-0.225c0.2-0.014,0.4-0.01,0.602,0.007
	c0.189,0.033,0.375,0.074,0.561,0.114c0.154,0.034,0.31,0.038,0.459,0.015c0.276,0.15,0.543,0.321,0.801,0.501
	c0.198,0.171,0.377,0.357,0.549,0.554c0.139,0.201,0.256,0.413,0.362,0.634c0.145,0.393,0.243,0.797,0.31,1.21
	c0.028,0.237,0.049,0.474,0.054,0.714C10.55,24.454,10.534,24.65,10.512,24.844z M20.224,19.813
	c-0.367,0.425-0.614,0.898-0.815,1.418c-0.212,0.554-0.299,1.138-0.372,1.722c-0.064,0.52-0.083,1.051-0.06,1.575
	c0.008,0.194,0.053,0.375,0.084,0.561c-0.473,0.019-0.946,0.043-1.422,0.04c-0.696-0.006-1.391,0-2.087,0.002
	c-1.172,0-2.344-0.017-3.516-0.022c0.017-0.126,0.032-0.252,0.041-0.377c0.038-0.522-0.028-1.028-0.102-1.545
	c-0.147-1.025-0.535-1.979-1.253-2.737c-0.418-0.44-0.945-0.803-1.478-1.091c-0.13-0.07-0.269-0.108-0.409-0.117
	C8.728,19.149,8.6,19.08,8.455,19.05c-0.443-0.092-0.897-0.178-1.352-0.178c-0.023,0-0.046,0-0.069,0.001
	c-0.425,0.009-0.836,0.072-1.242,0.197c-0.045,0.014-0.087,0.037-0.132,0.052c0.004-0.112,0.009-0.223,0.019-0.334
	c0.054-0.339,0.116-0.676,0.181-1.013c0.178,0.006,0.356,0.013,0.533,0.02c0.596,0.025,1.189,0.057,1.786,0.064
	c0.647,0.008,1.295-0.002,1.942,0.013c0.437,0.011,0.802-0.372,0.802-0.802c0-0.422-0.365-0.82-0.802-0.8
	c-0.877,0.04-1.762-0.002-2.639-0.04c-0.8-0.035-1.599-0.059-2.394-0.149c-0.189-0.037-0.376-0.078-0.558-0.14
	c-0.002-0.002-0.004-0.004-0.006-0.007c-0.03-0.046-0.057-0.092-0.083-0.14c-0.014-0.045-0.025-0.09-0.035-0.136
	c-0.006-0.126-0.003-0.25,0.008-0.375c0.002-0.007,0.004-0.015,0.006-0.022c0.002-0.004,0.005-0.008,0.007-0.012
	c0.023-0.024,0.046-0.047,0.07-0.07c0.044-0.013,0.089-0.023,0.135-0.033c0.287-0.025,0.578-0.02,0.866-0.022
	c0.367-0.002,0.734,0.004,1.1,0.011c0.388,0.009,0.773,0.028,1.159,0.042c0.382,0.011,0.766,0.011,1.149,0.03
	c1.358,0.066,2.718,0.123,4.078,0.123c0.023,0.654,0.047,1.309,0.118,1.96c0.057,0.524,0.134,1.047,0.223,1.567
	c0.07,0.401,0.127,0.82,0.246,1.21c0.079,0.253,0.172,0.503,0.319,0.724c0.168,0.255,0.382,0.422,0.622,0.603
	c0.181,0.138,0.382,0.251,0.586,0.355c0.357,0.181,0.726,0.261,1.123,0.282c0.386,0.019,0.752-0.083,1.102-0.229
	c0.176-0.074,0.346-0.146,0.51-0.242c0.178-0.106,0.329-0.257,0.469-0.408c0.164-0.183,0.314-0.386,0.459-0.582
	c0.18-0.242,0.299-0.554,0.412-0.83c0.081-0.197,0.153-0.397,0.216-0.601c0.255-0.836,0.352-1.707,0.389-2.577
	c0.019-0.42,0.023-0.841,0.042-1.263c0.019-0.431,0.015-0.858-0.036-1.287c-0.053-0.435-0.119-0.86-0.221-1.286
	c-0.1-0.412-0.212-0.822-0.331-1.231c-0.083-0.279-0.177-0.556-0.273-0.833c0.708-0.01,1.416-0.023,2.123-0.02
	c0.335,0.422,0.68,0.834,1.02,1.253c0.316,0.426,0.613,0.867,0.901,1.311c0.312,0.482,0.576,0.984,0.813,1.505
	c0.463,1.137,0.809,2.33,0.993,3.544c-0.16-0.013-0.319-0.031-0.479-0.031c-0.186,0-0.373,0.009-0.558,0.027
	c-0.652,0.064-1.28,0.176-1.9,0.391C21.211,18.876,20.676,19.288,20.224,19.813z M28.058,23.963c-0.083,0.426-0.235,0.826-0.4,1.227
	c-0.185,0.412-0.389,0.807-0.641,1.181c-0.201,0.23-0.424,0.437-0.657,0.635c-0.188,0.131-0.384,0.244-0.59,0.344
	c-0.303,0.109-0.61,0.185-0.927,0.242c-0.338,0.031-0.67,0.037-1.008,0.008c-0.344-0.063-0.679-0.149-1.007-0.267
	c-0.179-0.092-0.343-0.203-0.507-0.319c-0.259-0.211-0.498-0.433-0.716-0.686c-0.197-0.272-0.389-0.543-0.541-0.841
	c-0.082-0.242-0.149-0.483-0.202-0.735c-0.059-0.637-0.023-1.281,0.048-1.918c0.076-0.414,0.172-0.815,0.31-1.212
	c0.089-0.184,0.186-0.362,0.3-0.533c0.151-0.173,0.312-0.331,0.485-0.481c0.093-0.061,0.187-0.115,0.286-0.165
	c0.346-0.121,0.703-0.21,1.063-0.273c0.522-0.052,1.038-0.063,1.56-0.012c0.366,0.064,0.715,0.156,1.066,0.283
	c0.349,0.164,0.68,0.352,0.998,0.573c0.099,0.084,0.19,0.171,0.28,0.267c0.087,0.133,0.161,0.268,0.229,0.411
	c0.102,0.263,0.196,0.53,0.296,0.796c0.093,0.247,0.198,0.487,0.31,0.724C28.078,23.462,28.076,23.714,28.058,23.963z
	 M25.369,23.857c0,0.448-0.374,0.822-0.822,0.822c-0.448,0-0.822-0.374-0.822-0.822c0-0.448,0.374-0.822,0.822-0.822
	C24.994,23.035,25.369,23.409,25.369,23.857z M7.83,24.179c0,0.448-0.374,0.822-0.822,0.822c-0.448,0-0.822-0.374-0.822-0.822
	s0.374-0.822,0.822-0.822C7.456,23.357,7.83,23.731,7.83,24.179z"/>
</svg>