<?xml version="1.0" encoding="utf-8"?>
<!-- Generator: Adobe Illustrator 21.1.0, SVG Export Plug-In . SVG Version: 6.00 Build 0)  -->
<svg version="1.1" id="designs" xmlns="http://www.w3.org/2000/svg" xmlns:xlink="http://www.w3.org/1999/xlink" x="0px" y="0px"
	 width="32px" height="32px" viewBox="0 0 32 32" style="enable-background:new 0 0 32 32;" xml:space="preserve">
<style type="text/css">
	.sketchy_een{fill:#111918;}
</style>
<path class="sketchy_een" d="M23.795,29.35c-0.074,0-0.148-0.011-0.22-0.029l-0.141-0.065l-0.175,0.012
	c-0.329,0.014-0.658,0.023-0.988,0.031l-0.167,0.005c-0.284,0.009-0.567,0.011-0.851,0.011l-1.538-0.002l-1.064,0.011
	c-0.774,0.008-1.548,0.017-2.323,0.017c-0.708,0-1.417-0.007-2.125-0.027c-0.328-0.01-0.656-0.022-0.985-0.034
	c-0.585-0.024-1.169-0.046-1.754-0.048l-0.32-0.002c-0.805-0.003-1.611-0.006-2.417-0.021l-0.11,0.051
	c-0.065,0.018-0.132,0.026-0.202,0.026c-0.381,0-0.723-0.255-0.795-0.592c-0.142-0.661-0.243-1.332-0.345-2.002
	c-0.052-0.346-0.105-0.691-0.163-1.035l-0.023-0.135c-0.165-0.976-0.328-1.949-0.473-2.924c-0.3-2.04-0.524-3.741-0.703-5.352
	l-0.118-1.102c-0.129-0.009-0.252-0.012-0.369-0.012c-0.201,0-0.579,0.009-0.581,0.009c-0.4,0-0.75-0.019-1.096-0.058
	c-0.443-0.05-0.808-0.091-1.147-0.218c-0.412-0.154-0.742-0.368-0.982-0.637c-0.223-0.252-0.344-0.543-0.473-0.852
	c-0.268-0.649-0.17-1.448,0.256-2.089c0.233-0.346,0.564-0.612,0.986-0.79c0.269-0.115,0.47-0.2,0.694-0.241
	c0.361-0.065,0.754-0.103,1.237-0.121c0.155-0.004,0.311-0.006,0.466-0.006l1.11,0.01c0.241-0.467,0.467-0.875,0.662-1.217
	C6.819,9.471,7.137,9.06,7.442,8.683c0.276-0.344,0.603-0.625,0.914-0.878C8.769,7.47,9.145,7.174,9.577,6.946
	c0.245-0.128,0.508-0.225,0.768-0.318c0,0,0.463-0.173,0.593-0.218c0.924-0.315,1.912-0.425,2.784-0.522l0.069-0.008l0.048-0.071
	c-0.104-0.218-0.168-0.373-0.216-0.54c-0.059-0.201-0.038-0.412-0.013-0.572c0.045-0.288,0.126-0.517,0.243-0.681
	c0.322-0.457,0.71-0.795,1.153-1.006c0.273-0.13,0.574-0.225,0.92-0.289c0.202-0.038,0.407-0.071,0.612-0.071
	c0.23,0.006,0.434,0.045,0.562,0.097l0.137,0.054c0.107,0.04,0.217,0.081,0.306,0.143c0.254,0.18,0.536,0.407,0.698,0.709
	c0.117,0.222,0.233,0.443,0.291,0.657c0.152,0.568,0.145,1.037-0.021,1.432c-0.018,0.042-0.034,0.086-0.059,0.125
	c0.006-0.007,0.08,0.002,0.093,0.003c0.038,0.002,0.076,0.009,0.113,0.014c0.08,0.011,0.159,0.023,0.239,0.036
	c0.156,0.025,0.311,0.055,0.464,0.091c0.461,0.108,0.895,0.233,1.29,0.37c0.461,0.163,0.95,0.344,1.399,0.566
	c0.414,0.204,0.85,0.429,1.229,0.701c0.455,0.325,0.844,0.648,1.19,0.985c0.181,0.175,0.359,0.355,0.536,0.533l0.416,0.416
	c0.235,0.229,0.503,0.501,0.699,0.819c0.089,0.141,0.161,0.286,0.232,0.433l0.199,0.026c0,0,0.68-0.01,0.904-0.01
	c0.232,0,0.466,0.003,0.699,0.013c0.638,0.028,1.508,0.195,2.028,0.83c0.163,0.198,0.3,0.407,0.446,0.678
	c0.137,0.252,0.284,0.553,0.341,0.881c0.163,0.916-0.342,1.965-1.148,2.387c-0.389,0.204-0.856,0.337-1.389,0.398
	c-0.333,0.037-0.669,0.045-1.004,0.053l-1.259,0.046l-0.096,0.349c-0.071,0.449-0.141,0.897-0.203,1.349
	c-0.098,0.768-0.201,1.536-0.305,2.304c-0.141,1.102-0.283,2.206-0.431,3.308c0,0-0.024,0.182-0.024,0.181
	c-0.101,0.82-0.178,1.64-0.256,2.461c-0.029,0.308-0.053,0.615-0.076,0.922l-0.042,0.529c0.166,0.166,0.264,0.313,0.311,0.481
	c0.129,0.472-0.153,0.968-0.628,1.103l-0.106,0.025l-0.097,0.083C24.09,29.31,23.945,29.349,23.795,29.35z M6.956,12.791
	c0.1,1.926,0.359,3.902,0.586,5.644c0.211,1.511,0.461,3.115,0.766,4.905c0.074,0.438,0.153,0.874,0.233,1.311
	c0.07,0.387,0.141,0.774,0.207,1.162l0.097,0.59c0.06,0.374,0.121,0.751,0.19,1.123c0.965,0.065,1.882,0.083,2.8,0.102l1.248,0.025
	c0.719,0.015,1.366,0.027,2.012,0.027c0.228,0,0.456-0.002,0.684-0.006c0.656-0.01,1.312-0.025,1.969-0.042l0.84-0.021
	c0.875-0.024,1.752-0.039,2.626-0.052c0.656-0.011,1.255-0.022,1.851-0.061l0.151-1.008c0.06-0.575,0.121-1.15,0.195-1.724
	c0.092-0.714,0.194-1.428,0.297-2.14c0.155-1.094,0.308-2.174,0.475-3.266l0.161-1.05c0.072-0.491,0.151-0.981,0.229-1.47
	c0.075-0.463,0.151-0.928,0.219-1.392c0.072-0.555,0.309-2.494,0.309-2.494l-0.643-0.047c-0.297,0.003-0.595,0.006-0.892,0.02
	c-0.46,0.022-0.917,0.032-1.376,0.032l-0.462-0.004c-1.505-0.022-2.662-0.055-3.752-0.11c-1.752-0.09-3.508-0.108-5.302-0.12
	l-0.798-0.003c-0.906,0-1.812,0.01-2.717,0.02c-0.681,0.008-1.363,0.015-2.043,0.019l-0.061-0.01L6.956,12.791z M5.409,12.66
	c-0.554,0.016-1.108,0.031-1.66,0.088c-0.209,0.033-0.412,0.082-0.609,0.153C3.035,12.95,2.94,13,2.848,13.058L2.751,13.16
	l-0.051,0.087c-0.03,0.082-0.057,0.167-0.078,0.253c-0.004,0.062-0.005,0.115-0.003,0.167c0.016,0.069,0.033,0.125,0.051,0.182
	c0.052,0.107,0.105,0.204,0.167,0.298c0.104,0.081,0.179,0.126,0.257,0.167c0.237,0.08,0.471,0.129,0.71,0.166
	c0.355,0.043,0.713,0.084,1.069,0.084c0.265,0,0.483-0.018,0.701-0.037c-0.018-0.643-0.073-1.23-0.114-1.819l-0.003-0.048
	L5.409,12.66z M26.376,14.421c0.235,0.022,0.46,0.031,0.679,0.031c0.283,0,0.557-0.017,0.831-0.044
	c0.314-0.051,0.592-0.121,0.855-0.218c0.093-0.045,0.177-0.092,0.26-0.145c0.066-0.086,0.114-0.159,0.158-0.236
	c0.023-0.064,0.038-0.12,0.053-0.177l-0.039-0.173c-0.099-0.209-0.209-0.407-0.335-0.59c-0.03-0.034-0.092-0.093-0.092-0.093
	l-0.081-0.045c-0.145-0.051-0.286-0.089-0.432-0.119c-0.407-0.036-0.812-0.05-1.216-0.063l-0.38-0.002L26.376,14.421z M9.355,9.164
	C9.196,9.289,9.039,9.419,8.903,9.566c-0.154,0.164-0.299,0.335-0.44,0.512c-0.227,0.311-0.445,0.658-0.689,1.095l0.807,0.08
	c0.735,0.006,1.47,0.011,2.205,0.011l0.54-0.001c0.878-0.005,1.755-0.02,2.633-0.034l1.196-0.02l0.497-0.003
	c0.671,0,1.34,0.018,2.011,0.036l0.243,0.006c0.343,0.01,0.688,0.014,1.033,0.014l2.298-0.005c0.58,0,1.159-0.004,1.737-0.031
	l1.545-0.066c-0.205-0.359-0.484-0.604-0.753-0.84l-0.186-0.165c-0.298-0.264-0.598-0.522-0.907-0.772
	c-0.48-0.354-1.05-0.675-1.746-0.985c-0.894-0.357-1.632-0.574-2.325-0.688c-0.961-0.114-1.944-0.144-2.863-0.16l-0.172-0.001
	c-0.44,0-0.878,0.023-1.318,0.063l-0.335,0.029c-0.331,0.027-0.662,0.056-0.993,0.094c-0.394,0.06-0.812,0.126-1.211,0.241
	c-0.386,0.11-0.772,0.245-1.146,0.394c-0.199,0.095-0.396,0.195-0.575,0.319C9.815,8.81,9.649,8.939,9.482,9.067l0-0.001
	L9.355,9.164z M16.403,4.296c-0.224,0.035-0.44,0.082-0.651,0.156c-0.161,0.085-0.329,0.192-0.452,0.328
	c-0.021,0.023-0.041,0.048-0.052,0.077c-0.025,0.066-0.002,0.139,0.026,0.204c0.116,0.273,0.309,0.494,0.535,0.682l0.858,0.011
	l0.057-0.081c0.071-0.138,0.121-0.231,0.168-0.329c0.045-0.116,0.093-0.239,0.078-0.364c-0.018-0.145-0.078-0.437-0.199-0.538
	c-0.091-0.075-0.131-0.098-0.172-0.12l-0.112-0.028L16.403,4.296z M21.438,26.454c-0.214,0-0.422-0.086-0.571-0.236
	c-0.13-0.131-0.261-0.364-0.235-0.564c0.086-0.759,0.189-1.516,0.312-2.268c0.055-0.333,0.106-0.669,0.157-1.004
	c0.056-0.366,0.111-0.733,0.172-1.096l0.118-0.669c0.08-0.458,0.162-0.915,0.233-1.375l0.387-2.44
	c0.029-0.181,0.196-0.353,0.339-0.436c0.112-0.066,0.241-0.101,0.373-0.101c0.063,0,0.128,0.009,0.194,0.026
	c0.184,0.05,0.345,0.173,0.441,0.339c0.108,0.182,0.108,0.362,0.073,0.574l-0.061,0.367c-0.111,0.667-0.221,1.335-0.34,2.001
	c-0.105,0.585-0.208,1.165-0.292,1.751l-0.278,2.104c-0.084,0.658-0.176,1.435-0.214,2.219
	C22.222,26.106,21.875,26.454,21.438,26.454z"/>
</svg>