<?xml version="1.0" encoding="utf-8"?>
<!-- Generator: Adobe Illustrator 21.1.0, SVG Export Plug-In . SVG Version: 6.00 Build 0)  -->
<svg version="1.1" id="designs" xmlns="http://www.w3.org/2000/svg" xmlns:xlink="http://www.w3.org/1999/xlink" x="0px" y="0px"
	 width="32px" height="32px" viewBox="0 0 32 32" style="enable-background:new 0 0 32 32;" xml:space="preserve">
<style type="text/css">
	.sketchy_een{fill:#111918;}
</style>
<path class="sketchy_een" d="M29.696,18.48c-0.182-0.487-0.466-0.904-0.823-1.283c-0.125-0.133-0.263-0.25-0.402-0.368
	c-0.315-0.262-0.641-0.476-1.024-0.624c-0.466-0.18-0.957-0.246-1.454-0.271c-0.607-0.028-1.228,0.131-1.761,0.415
	c-0.043,0.023-0.085,0.046-0.127,0.07c0.037-0.355,0.049-0.714,0.053-1.071c0.004-0.4-0.038-0.802-0.072-1.2
	c-0.042-0.47-0.125-0.936-0.227-1.395c-0.093-0.407-0.231-0.807-0.366-1.202c-0.155-0.451-0.356-0.893-0.571-1.319
	c-0.389-0.775-0.978-1.454-1.63-2.017c-0.696-0.603-1.518-1.039-2.409-1.274c-0.432-0.114-0.879-0.184-1.325-0.205
	c-0.157-0.007-0.314-0.012-0.47-0.012c-0.298,0-0.593,0.017-0.889,0.067c-0.851,0.144-1.645,0.46-2.396,0.879
	c-0.521,0.29-0.972,0.688-1.355,1.147c-0.299,0.356-0.589,0.73-0.826,1.132c-0.461,0.788-0.843,1.643-1.056,2.532
	c-0.072,0.3-0.13,0.602-0.179,0.905c-0.074-0.043-0.148-0.083-0.226-0.117c-0.089-0.038-0.176-0.078-0.265-0.11
	c-0.138-0.051-0.284-0.064-0.428-0.083c-0.407-0.047-0.805-0.051-1.213,0.004c-0.406,0.053-0.781,0.229-1.116,0.459
	c-0.203,0.138-0.404,0.282-0.591,0.442c-0.146,0.125-0.265,0.275-0.383,0.427c-0.301,0.386-0.517,0.803-0.669,1.272
	c-0.211,0.659-0.176,1.363-0.047,2.035c-0.301,0.075-0.595,0.194-0.868,0.329c-0.834,0.411-1.526,1.048-2.03,1.827
	c-0.18,0.281-0.271,0.614-0.353,0.934c-0.064,0.252-0.097,0.516-0.127,0.773C2.027,21.941,1.998,22.303,2,22.667
	c0,0.239,0.027,0.476,0.068,0.711c0.047,0.281,0.203,0.525,0.381,0.739c0.178,0.212,0.392,0.383,0.612,0.552
	c0.199,0.153,0.383,0.269,0.624,0.36c0.375,0.142,0.788,0.142,1.186,0.135c0.37-0.006,0.741-0.03,1.111-0.046
	c0.392-0.013,0.781-0.028,1.173-0.034c0.39-0.006,0.781,0.002,1.173,0.021c0.362,0.017,0.722,0.057,1.084,0.08
	c0.809,0.051,1.621,0.089,2.432,0.089c0.806,0,1.611-0.036,2.417-0.042c0.823-0.008,1.645-0.004,2.468-0.004
	c1.63,0,3.26-0.07,4.89-0.11c0.847-0.021,1.694-0.034,2.542-0.036c0.353,0,0.707-0.01,1.06-0.013c0.136-0.002,0.277,0,0.415,0.002
	c0.248,0.002,0.497,0.004,0.743-0.013c0.461-0.032,0.925-0.108,1.332-0.33c0.301-0.165,0.536-0.425,0.798-0.641
	c0.262-0.214,0.457-0.523,0.633-0.809c0.174-0.282,0.307-0.595,0.461-0.891c0.235-0.443,0.305-0.967,0.351-1.459
	c0.017-0.191,0.025-0.381,0.034-0.57c0.009-0.178,0.021-0.358,0.004-0.535C29.946,19.358,29.86,18.916,29.696,18.48z M28.262,20.995
	c-0.041,0.233-0.086,0.465-0.166,0.687c-0.173,0.383-0.366,0.767-0.607,1.108c-0.143,0.169-0.307,0.323-0.476,0.466
	c-0.044,0.029-0.088,0.056-0.134,0.081c-0.132,0.04-0.267,0.068-0.404,0.091c-0.337,0.034-0.676,0.03-1.016,0.037
	c-0.362,0.006-0.722,0.026-1.084,0.038c-0.838,0.03-1.677,0.025-2.517,0.038c-1.622,0.029-3.245,0.127-4.867,0.131
	c-0.826,0.002-1.655-0.002-2.483,0.01c-0.811,0.013-1.621,0.047-2.434,0.042c-1.569-0.015-3.135-0.18-4.706-0.171
	c-0.497,0.004-0.995,0.01-1.494,0.006c-0.135,0-0.267,0.002-0.4,0.002c-0.323,0.003-0.645,0.005-0.967-0.024
	c-0.056-0.011-0.111-0.024-0.166-0.04c-0.076-0.04-0.148-0.083-0.219-0.133c-0.146-0.119-0.287-0.246-0.412-0.386
	c-0.016-0.052-0.028-0.104-0.039-0.158c-0.032-0.412-0.004-0.836,0.045-1.249c0.045-0.271,0.102-0.541,0.195-0.8
	c0.055-0.101,0.114-0.196,0.178-0.291c0.181-0.216,0.379-0.409,0.596-0.589c0.246-0.172,0.502-0.326,0.769-0.462
	c0.179-0.067,0.362-0.119,0.55-0.156c0.02-0.001,0.039-0.001,0.058,0c0.037,0.008,0.073,0.018,0.109,0.03
	c0.125,0.053,0.244,0.095,0.396,0.096c0.51,0.002,0.874-0.402,0.902-0.893c0.017-0.278-0.134-0.491-0.25-0.722
	c-0.095-0.266-0.16-0.551-0.206-0.829c-0.014-0.177-0.014-0.353-0.002-0.531c0.035-0.193,0.084-0.38,0.152-0.565
	c0.07-0.141,0.144-0.278,0.233-0.408c0.108-0.129,0.222-0.25,0.35-0.362c0.176-0.13,0.358-0.253,0.554-0.352
	c0.094-0.032,0.189-0.059,0.287-0.079c0.218-0.014,0.436,0,0.653,0.024c0.062,0.011,0.124,0.024,0.185,0.042
	c0.128,0.066,0.247,0.145,0.364,0.229c0.182,0.154,0.339,0.323,0.489,0.512c0.045,0.055,0.085,0.117,0.136,0.169
	c0.053,0.062,0.117,0.11,0.19,0.142c0.201,0.089,0.453,0.18,0.675,0.087c0.074-0.03,0.148-0.062,0.222-0.093
	c0.155-0.091,0.224-0.186,0.326-0.332c0.178-0.25,0.138-0.61,0.146-0.904c0.007-0.235,0.031-0.468,0.059-0.7
	c0.107-0.749,0.255-1.48,0.528-2.189c0.231-0.52,0.506-1.003,0.838-1.464c0.239-0.287,0.489-0.559,0.772-0.804
	c0.301-0.211,0.625-0.374,0.961-0.526c0.442-0.171,0.9-0.295,1.367-0.376c0.465-0.039,0.928-0.014,1.392,0.035
	c0.451,0.079,0.883,0.204,1.307,0.371c0.335,0.166,0.651,0.357,0.952,0.576c0.331,0.285,0.626,0.596,0.903,0.934
	c0.139,0.19,0.266,0.383,0.38,0.591c0.111,0.205,0.205,0.417,0.298,0.63c0.319,0.798,0.54,1.619,0.669,2.468
	c0.091,0.819,0.129,1.641,0.047,2.462c-0.06,0.301-0.131,0.598-0.192,0.897c-0.045,0.226-0.034,0.438,0.085,0.641
	c0.108,0.186,0.288,0.326,0.497,0.383c0.055,0.015,0.113,0.024,0.171,0.026c0.315,0.242,0.777,0.218,1.063-0.068
	c0.039-0.037,0.078-0.072,0.118-0.105c0.304-0.228,0.613-0.433,0.954-0.6c0.158-0.055,0.319-0.098,0.483-0.129
	c0.209-0.014,0.417-0.001,0.625,0.02c0.23,0.042,0.451,0.099,0.67,0.178c0.108,0.054,0.209,0.115,0.308,0.185
	c0.22,0.183,0.421,0.379,0.608,0.597c0.097,0.142,0.18,0.286,0.254,0.439c0.091,0.256,0.155,0.513,0.2,0.779
	C28.328,20.183,28.308,20.594,28.262,20.995z M21.285,15.183c0.019,0.305,0.038,0.61,0.04,0.917
	c0.002,0.495-0.028,1.021-0.159,1.499c-0.138,0.497-0.726,0.737-1.171,0.476c-0.178-0.104-0.311-0.277-0.366-0.476
	c-0.054-0.196-0.024-0.371,0.05-0.549c0.029-0.088,0.05-0.177,0.065-0.268c0.042-0.398,0.04-0.796,0.023-1.196
	c-0.017-0.437-0.045-0.875-0.095-1.309c-0.036-0.258-0.068-0.519-0.131-0.772c-0.055-0.216-0.129-0.427-0.21-0.633
	c-0.105-0.24-0.228-0.477-0.378-0.69c-0.126-0.15-0.26-0.294-0.389-0.439c-0.267-0.3-0.296-0.743,0-1.039
	c0.138-0.138,0.339-0.213,0.537-0.213c0.187,0,0.372,0.067,0.5,0.213c0.227,0.26,0.447,0.521,0.652,0.8
	c0.161,0.22,0.284,0.468,0.411,0.709c0.159,0.301,0.288,0.631,0.37,0.961c0.083,0.335,0.125,0.688,0.171,1.031
	C21.247,14.529,21.264,14.855,21.285,15.183z"/>
</svg>