<?xml version="1.0" encoding="utf-8"?>
<!-- Generator: Adobe Illustrator 21.1.0, SVG Export Plug-In . SVG Version: 6.00 Build 0)  -->
<svg version="1.1" id="designs" xmlns="http://www.w3.org/2000/svg" xmlns:xlink="http://www.w3.org/1999/xlink" x="0px" y="0px"
	 width="32px" height="32px" viewBox="0 0 32 32" style="enable-background:new 0 0 32 32;" xml:space="preserve">
<style type="text/css">
	.sketchy_een{fill:#111918;}
</style>
<path class="sketchy_een" d="M30.49,9.904c-0.004-0.122-0.028-0.246-0.046-0.366c-0.016-0.118-0.04-0.23-0.084-0.34
	c-0.136-0.346-0.344-0.632-0.558-0.934c-0.232-0.324-0.492-0.622-0.752-0.926c-0.248-0.288-0.484-0.586-0.72-0.884
	c-0.27-0.342-0.542-0.68-0.826-1.008c-0.29-0.338-0.594-0.668-0.884-1.006c-0.554-0.646-1.094-1.312-1.718-1.891
	c-0.386-0.36-0.8-0.728-1.268-0.978C23.059,1.263,22.451,1,21.784,1c-0.01,0-0.02,0-0.03,0c-0.307,0.004-0.568,0.174-0.726,0.416
	c-1.438,1.267-2.831,2.578-4.182,3.935c-1.316,1.324-2.679,2.603-4.039,3.881c-0.65,0.608-1.278,1.24-1.906,1.872
	c-0.636,0.64-1.282,1.27-1.895,1.931c-0.61,0.656-1.196,1.336-1.782,2.013c-0.576,0.662-1.126,1.346-1.696,2.015
	c-0.18,0.212-0.372,0.416-0.56,0.624c-0.254,0.278-0.528,0.554-0.692,0.898c-0.102,0.214-0.152,0.422-0.086,0.658
	c0.004,0.013,0.014,0.023,0.018,0.036c-0.051,0.126-0.071,0.255-0.063,0.387c-0.044,0.073-0.08,0.149-0.094,0.228
	c-0.286,1.686-0.662,3.349-1.056,5.011c-0.176,0.744-0.398,1.476-0.598,2.213c-0.104,0.38-0.206,0.76-0.3,1.142
	c-0.088,0.356-0.188,0.712-0.256,1.074c-0.004,0.023,0,0.045-0.004,0.068c-0.262,0.222-0.394,0.585-0.299,0.932
	c0.132,0.476,0.64,0.766,1.116,0.634c0.86-0.238,1.69-0.568,2.541-0.832c0.832-0.256,1.678-0.47,2.509-0.726
	c0.816-0.25,1.64-0.47,2.455-0.714c0.814-0.244,1.618-0.504,2.409-0.814c0.222-0.087,0.401-0.195,0.53-0.403
	c0.156-0.035,0.308-0.096,0.435-0.21c0.634-0.566,1.268-1.136,1.872-1.734c0.62-0.618,1.246-1.226,1.865-1.841
	c0.632-0.626,1.266-1.252,1.878-1.9c0.644-0.684,1.294-1.364,1.958-2.031c1.308-1.31,2.685-2.551,3.951-3.905
	c1.332-1.428,2.805-2.701,4.223-4.039c0.254-0.238,0.506-0.476,0.756-0.716c0.133-0.129,0.199-0.295,0.235-0.467
	c0.013-0.02,0.038-0.034,0.048-0.056C30.422,10.358,30.5,10.158,30.49,9.904z M4.723,28.419c-0.271,0.082-0.54,0.172-0.809,0.261
	c0.148-0.534,0.311-1.065,0.47-1.597c0.134,0.091,0.272,0.178,0.402,0.274c0.07,0.059,0.137,0.118,0.201,0.182
	c0.096,0.145,0.177,0.298,0.251,0.455c0.034,0.083,0.076,0.163,0.111,0.246C5.14,28.299,4.931,28.356,4.723,28.419z M9.682,26.955
	c-0.814,0.254-1.636,0.478-2.449,0.736c-0.07,0.022-0.142,0.041-0.212,0.062c-0.033-0.077-0.062-0.156-0.096-0.232
	c-0.208-0.51-0.407-1.006-0.828-1.391c-0.376-0.345-0.786-0.655-1.203-0.949c0.311-1.346,0.631-2.691,0.9-4.046
	c0.44,0.278,0.872,0.567,1.292,0.872c0.287,0.228,0.568,0.46,0.839,0.705c0.32,0.29,0.606,0.616,0.89,0.94
	c0.286,0.322,0.562,0.652,0.836,0.984c0.239,0.287,0.486,0.565,0.719,0.856c0.236,0.321,0.45,0.658,0.668,0.991
	C10.587,26.642,10.14,26.812,9.682,26.955z M22.315,16.079c-0.67,0.652-1.338,1.304-2.007,1.953c-0.67,0.65-1.316,1.326-1.953,2.005
	c-0.604,0.642-1.222,1.268-1.836,1.899c-0.632,0.648-1.274,1.284-1.904,1.933c-0.584,0.602-1.18,1.182-1.805,1.74
	c-0.091,0.08-0.177,0.162-0.266,0.244c-0.02-0.023-0.041-0.046-0.061-0.07c-0.195-0.279-0.362-0.578-0.542-0.867
	c-0.23-0.364-0.5-0.702-0.766-1.04c-0.5-0.63-1.002-1.258-1.534-1.861c-0.252-0.288-0.528-0.552-0.818-0.8
	c-0.348-0.3-0.7-0.598-1.074-0.868c-0.58-0.419-1.173-0.821-1.78-1.201c0.195-0.225,0.4-0.443,0.601-0.665
	c0.27-0.294,0.528-0.596,0.78-0.904c0.582-0.702,1.18-1.392,1.782-2.073c0.602-0.682,1.21-1.354,1.853-1.995
	c0.62-0.62,1.246-1.234,1.874-1.846c0.279-0.273,0.564-0.54,0.846-0.809c0.484,0.479,0.963,0.963,1.422,1.468
	c0.5,0.546,1.003,1.091,1.471,1.665c0.258,0.342,0.497,0.695,0.748,1.042c0.316,0.434,0.732,0.782,1.09,1.178
	c0.326,0.36,0.928,0.33,1.256,0c0.344-0.342,0.342-0.912,0-1.256c-0.2-0.202-0.416-0.388-0.62-0.586
	c-0.212-0.208-0.408-0.422-0.596-0.65c-0.382-0.466-0.778-0.916-1.19-1.354c-0.434-0.464-0.864-0.928-1.28-1.406
	c-0.365-0.418-0.745-0.823-1.13-1.223c0.663-0.636,1.317-1.284,1.978-1.923c0.14-0.135,0.273-0.276,0.411-0.412
	c0.96,1.024,1.968,2.002,2.907,3.048c0.42,0.468,0.836,0.938,1.236,1.426c0.391,0.476,0.797,0.94,1.181,1.421
	c0.356,0.477,0.704,0.959,1.057,1.437C23.206,15.183,22.768,15.639,22.315,16.079z M24.935,13.438
	c-0.12-0.153-0.233-0.311-0.356-0.462c-0.268-0.328-0.526-0.664-0.804-0.984c-0.544-0.632-1.1-1.256-1.654-1.878
	c-0.572-0.64-1.136-1.286-1.714-1.919c-0.627-0.687-1.261-1.367-1.889-2.053c0.102-0.103,0.204-0.205,0.306-0.307
	c0.632-0.632,1.294-1.236,1.961-1.831c0.45-0.401,0.904-0.797,1.358-1.193c0.157,0.042,0.312,0.085,0.466,0.144
	c0.077,0.034,0.154,0.069,0.23,0.104c0.157,0.073,0.298,0.172,0.438,0.275c0.794,0.648,1.486,1.419,2.131,2.213
	c0.324,0.396,0.684,0.76,1.012,1.154c0.316,0.379,0.63,0.758,0.935,1.146c-0.018-0.023-0.036-0.047-0.053-0.071
	c0.206,0.269,0.418,0.534,0.628,0.8c0.26,0.344,0.525,0.704,0.718,1.092c0.014,0.041,0.022,0.083,0.034,0.124
	C27.436,11.009,26.163,12.201,24.935,13.438z"/>
</svg>