<?xml version="1.0" encoding="utf-8"?>
<!-- Generator: Adobe Illustrator 21.1.0, SVG Export Plug-In . SVG Version: 6.00 Build 0)  -->
<svg version="1.1" id="designs" xmlns="http://www.w3.org/2000/svg" xmlns:xlink="http://www.w3.org/1999/xlink" x="0px" y="0px"
	 width="32px" height="32px" viewBox="0 0 32 32" style="enable-background:new 0 0 32 32;" xml:space="preserve">
<style type="text/css">
	.sketchy_een{fill:#111918;}
</style>
<path class="sketchy_een" d="M19.753,29.095c-0.644-0.014-1.31-0.028-1.967-0.115c-0.536-0.077-1.108-0.185-1.798-0.339
	c-0.625-0.139-1.217-0.379-1.819-0.634c-0.375-0.161-0.738-0.347-1.098-0.543l-0.219-0.119c-0.28-0.152-0.56-0.304-0.835-0.466
	c-0.77-0.449-1.472-1.018-2.056-1.515l-0.536-0.45c-0.421-0.352-0.842-0.705-1.252-1.07c-0.484-0.43-0.897-0.925-1.369-1.535
	c-0.338-0.051-0.6-0.064-0.863-0.09c-0.181-0.017-0.363-0.022-0.545-0.022c-0.154,0-1.314,0.023-1.314,0.023
	c-0.451,0.007-0.902,0.014-1.353,0.014c-0.287,0-0.575-0.003-0.862-0.011C1.381,22.213,1,21.833,1,21.359
	c0-0.462,0.393-0.867,0.841-0.867l0.79,0.028c0.523,0.019,1.047,0.038,1.571,0.048c0.755,0.015,1.388,0.058,1.992,0.137v0
	c0.142,0.018,0.283,0.03,0.425,0.043l0.146,0.013l0.05-0.013l0.194-0.11c0.09-0.234,0.189-0.464,0.308-0.689
	c0.217-0.41,0.454-0.809,0.692-1.204c0.216-0.359,0.437-0.712,0.668-1.06c0.156-0.238,0.341-0.45,0.525-0.663
	c0.103-0.118,0.206-0.237,0.305-0.36l0.001,0.001c0.209-0.269,0.422-0.534,0.64-0.795c0.141-0.168,0.235-0.281,0.344-0.379
	c0.119-0.11,0.241-0.216,0.362-0.321c0.335-0.293,0.612-0.519,0.895-0.74c0.197-0.154,0.402-0.297,0.606-0.441
	c0.103-0.072,0.205-0.144,0.307-0.217l0.004,0.005c0.318-0.248,0.633-0.494,0.975-0.704c0.166-0.101,0.922-0.581,0.922-0.581
	c0.338-0.209,0.689-0.37,0.958-0.486l0.242-0.093l0.356-0.147l-0.486-0.057c-0.096-0.011-0.192-0.021-0.287-0.038l-0.372-0.062
	c-0.255-0.042-0.51-0.084-0.763-0.139c-0.856-0.192-1.639-0.511-2.327-0.948c-0.332-0.211-0.711-0.464-1.01-0.788
	c-0.228-0.248-0.511-0.581-0.674-0.962l-0.044-0.097C10.078,8.503,10,8.33,9.976,8.155c-0.023-0.154-0.044-0.306-0.06-0.461
	c-0.02-0.195-0.039-0.4-0.025-0.595c0.024-0.296,0.073-0.682,0.244-1.031c0.09-0.182,0.227-0.37,0.405-0.558
	c0.427-0.442,1.11-0.997,1.937-1.131c0.278-0.044,0.559-0.065,0.858-0.065c0.191,0,0.381,0.009,0.575,0.024
	c0.552,0.045,0.969,0.133,1.353,0.285c0.113,0.045,0.22,0.094,0.328,0.144l0.094,0.043l0.123-0.057
	c0.067-0.167,0.116-0.282,0.179-0.386c0.091-0.145,0.193-0.281,0.303-0.418c0.23-0.287,0.543-0.471,0.871-0.649
	c0.282-0.152,0.574-0.309,0.899-0.355c0.185-0.026,0.359-0.043,0.538-0.043c0.085,0,0.17,0.004,0.259,0.012
	c0.285,0.026,0.512,0.047,0.73,0.09c0.217,0.044,0.413,0.126,0.592,0.209c0.167,0.076,0.282,0.129,0.375,0.199
	c0.16,0.119,0.252,0.187,0.327,0.272c0.083,0.095,0.159,0.197,0.236,0.299c0.172,0.233,0.311,0.496,0.444,0.752l0.092,0.174
	c0.174,0.324,0.36,0.709,0.425,1.107c0.137,0.865,0.076,1.779-0.182,2.717l-0.589,2.163l0.288,0.015
	c0.241,0.012,0.482,0.023,0.725,0.057c0.369,0.052,0.734,0.124,1.096,0.199c0.412,0.084,0.802,0.188,1.161,0.307
	c0.417,0.138,0.82,0.315,1.231,0.5c0.726,0.325,1.346,0.666,1.894,1.042c0.423,0.292,0.744,0.564,1.011,0.857
	c0.217,0.24,0.398,0.501,0.579,0.764l0.211,0.302c0.223,0.281,0.437,0.55,0.598,0.842c0.171,0.308,0.285,0.627,0.406,0.966
	l0.084,0.232c0.284,0.762,0.418,1.509,0.411,2.284c-0.008,0.666-0.044,1.537-0.262,2.38l-0.082,0.323
	c-0.154,0.623-0.315,1.267-0.641,1.834c-0.217,0.378-0.493,0.712-0.779,1.048c-0.265,0.315-0.54,0.609-0.827,0.902l-0.129,0.131
	c-0.223,0.227-0.444,0.454-0.685,0.659c-0.356,0.307-0.75,0.604-1.172,0.883c-0.337,0.221-0.735,0.417-1.252,0.617
	c-0.41,0.159-0.734,0.285-1.066,0.38c-0.911,0.263-1.725,0.443-2.489,0.553l-0.105,0.014c-0.281,0.038-0.563,0.076-0.844,0.093
	c-0.198,0.013-0.392,0.018-0.589,0.018L19.753,29.095z M20.366,12.412c-0.383,0-0.766,0.006-1.146,0.05
	c-0.274,0.041-0.547,0.088-0.81,0.16l-0.086,0.024v0.093l0.025,0.119c-0.093,1.723-0.148,3.272-0.167,4.736l-0.011,0.793
	c-0.009,0.615-0.018,1.23-0.016,1.845c0,0.381,0.006,0.761,0.012,1.141c0.008,0.47,0.015,0.939,0.013,1.41
	c-0.001,0.419-0.019,0.839-0.036,1.258c-0.018,0.41-0.034,0.82-0.036,1.231c-0.004,0.41-0.004,0.82-0.002,1.233
	c0.002,0.305,0.011,0.611,0.03,0.916l0.005,0.085l0.086,0.009c0.476,0.048,0.954,0.068,1.429,0.075l0.139,0.001
	c0.256,0,0.51-0.011,0.763-0.029l0.098-0.006l-0.027-0.624c-0.022-0.421-0.022-0.844-0.02-1.265c0.003-0.525-0.008-1.05-0.019-1.575
	c-0.008-0.37-0.016-0.741-0.019-1.111c-0.005-1.168-0.001-2.335,0.004-3.502l0.006-1.631c0.004-0.851,0.008-1.704-0.024-2.555
	c-0.035-0.928-0.066-1.856-0.091-2.783l-0.002-0.098H20.366z M22.004,12.63c0.021,1.305,0.022,2.611,0.023,3.916l0.016,5.599
	l-0.003,0.411c-0.003,0.277-0.005,0.553,0.003,0.83c0.024,0.758,0.027,1.514,0.03,2.272l0.001,0.189
	c0.002,0.457,0.028,0.912,0.06,1.367l0.008,0.118l0.116-0.028c0.284-0.067,0.567-0.141,0.849-0.215
	c0.558-0.145,1.078-0.319,1.637-0.545c0.437-0.191,0.867-0.443,1.315-0.771c0.748-0.601,1.478-1.356,2.232-2.31
	c0.188-0.254,0.342-0.506,0.462-0.75c0.097-0.267,0.162-0.537,0.227-0.803l0.051-0.209c0.095-0.375,0.184-0.748,0.248-1.129
	c0.037-0.351,0.056-0.699,0.065-1.046l0.003-0.104c0.008-0.298,0.015-0.597-0.011-0.895c-0.054-0.313-0.144-0.612-0.233-0.907
	c-0.083-0.272-0.166-0.546-0.266-0.811c-0.158-0.329-0.326-0.609-0.52-0.861c-0.114-0.15-0.217-0.31-0.32-0.468
	c-0.073-0.112-0.145-0.224-0.221-0.333c-0.174-0.208-0.37-0.401-0.587-0.579c-0.887-0.639-1.862-1.093-2.701-1.453
	c-0.436-0.17-0.873-0.282-1.397-0.399c-0.321-0.072-0.646-0.134-0.969-0.192l-0.12-0.021L22.004,12.63z M16.677,13.148
	c-0.242,0.089-0.449,0.176-0.656,0.262c-0.481,0.215-0.894,0.479-1.294,0.734l-0.34,0.216c-0.251,0.157-0.487,0.331-0.721,0.511
	l-0.061,0.047l0.03,0.072c0.04,0.094,0.061,0.192,0.061,0.291l0.001,0.139c0.002,0.234,0.004,0.469-0.001,0.703
	c-0.042,1.779-0.081,3.557-0.108,5.336l-0.012,0.986c-0.005,0.53-0.01,1.061-0.026,1.592c-0.01,0.404-0.016,0.806,0,1.21
	l0.026,0.681l0.457,0.3l0.332,0.178c0.236,0.125,0.478,0.235,0.724,0.34c0.461,0.187,0.915,0.333,1.391,0.448l0.128,0.031
	l-0.003-0.132c-0.012-0.432-0.009-0.865-0.005-1.298l0.003-0.585c0.002-0.57,0.004-1.139,0.042-1.709
	c0.046-0.684,0.05-1.368,0.055-2.053l0.004-0.483c0.006-0.524,0.021-1.05,0.036-1.575l0.027-1.005
	c0.015-0.738,0.018-1.476,0.022-2.214c0.004-0.977,0.008-1.953,0.04-2.93l0.005-0.15L16.677,13.148z M12.01,16.182
	c-0.249,0.218-0.497,0.437-0.719,0.685c-0.167,0.186-0.326,0.378-0.486,0.569l-0.177,0.212c-0.1,0.12-0.208,0.233-0.317,0.346
	c-0.115,0.12-0.23,0.24-0.336,0.368c-0.226,0.303-0.437,0.611-0.647,0.919l-0.157,0.229c-0.304,0.442-0.649,0.944-0.896,1.476
	c-0.053,0.133-0.169,0.442-0.169,0.442l0.038,0.05c0.287,0.373,0.525,0.685,0.801,0.958c0.229,0.229,0.479,0.438,0.729,0.646
	c0,0,0.635,0.547,0.73,0.626c0.085,0.07,0.439,0.347,0.528,0.422l0.233,0.198c0.208,0.178,0.416,0.355,0.63,0.525l0.162,0.129
	l0.095-0.142c0.004-0.511,0.014-1.022,0.028-1.535l0.05-2.585l0.023-0.869c0.017-0.576,0.033-1.152,0.033-1.729
	c0-0.505-0.013-2.085-0.013-2.085L12.01,16.182z M13.349,5.966c-0.141,0-0.281,0.005-0.42,0.016
	c-0.165,0.034-0.315,0.077-0.462,0.131c-0.163,0.078-0.309,0.168-0.448,0.267c-0.147,0.12-0.282,0.241-0.405,0.376
	c-0.073,0.162-0.095,0.246-0.114,0.333c-0.015,0.22-0.01,0.426,0.007,0.634c0.022,0.109,0.05,0.203,0.083,0.296
	c0.083,0.163,0.168,0.308,0.265,0.448c0.121,0.145,0.244,0.268,0.38,0.383c0.426,0.303,0.813,0.532,1.19,0.707
	c0.827,0.327,1.694,0.484,2.434,0.596c0.356,0.038,0.707,0.044,1.06,0.05l0.427,0.009c0.181,0.005,0.362,0.018,0.543,0.03
	c0.159,0.011,0.646,0.035,0.646,0.035l-0.074-0.151c-0.14-0.287-0.294-0.566-0.455-0.841c-0.205-0.353-0.41-0.702-0.652-1.032
	c-0.452-0.548-0.964-1.056-1.529-1.515c-0.269-0.198-0.502-0.34-0.738-0.451c-0.341-0.137-0.623-0.222-0.894-0.271
	C13.911,5.985,13.629,5.966,13.349,5.966z M17.376,5.029c-0.053,0.081-0.091,0.149-0.127,0.219
	c-0.051,0.146-0.086,0.281-0.111,0.419l-0.01,0.057l0.029,0.099l0.166,0.136c0.088,0.071,0.177,0.143,0.26,0.222
	c0.26,0.255,0.561,0.559,0.833,0.891c0.279,0.34,0.544,0.728,0.808,1.189l0.151,0.264c0.154,0.268,0.31,0.537,0.45,0.811
	l0.079,0.178l0.113,0.236l0.189-0.632l0.087-0.326c0.097-0.358,0.195-0.717,0.257-1.082c0.043-0.436,0.047-0.814,0.013-1.164
	c-0.036-0.188-0.084-0.359-0.147-0.53c-0.106-0.231-0.216-0.449-0.33-0.669c-0.091-0.178-0.191-0.35-0.305-0.514l-0.084-0.087
	c-0.091-0.058-0.187-0.108-0.285-0.155c-0.106-0.036-0.203-0.058-0.3-0.075c-0.184-0.019-0.36-0.032-0.536-0.032
	c-0.077,0-0.153,0.002-0.231,0.008c-0.072,0.015-0.128,0.031-0.184,0.051c-0.205,0.094-0.405,0.187-0.59,0.3
	c-0.035,0.03-0.068,0.059-0.097,0.087l-0.017-0.017l-0.02,0.026l0.015,0.011c-0.005,0.005-0.011,0.01-0.016,0.015l-0.012-0.01
	l0.01,0.011c-0.008,0.008-0.017,0.017-0.025,0.025l-0.007-0.008L17.38,5.014l0.006,0.005C17.383,5.022,17.379,5.025,17.376,5.029z
	 M25.777,18.086c-0.383,0-0.707-0.323-0.707-0.707c0-0.383,0.323-0.706,0.707-0.706c0.383,0,0.708,0.323,0.708,0.706
	C26.485,17.763,26.16,18.086,25.777,18.086z"/>
</svg>