<?xml version="1.0" encoding="utf-8"?>
<!-- Generator: Adobe Illustrator 21.1.0, SVG Export Plug-In . SVG Version: 6.00 Build 0)  -->
<svg version="1.1" id="designs" xmlns="http://www.w3.org/2000/svg" xmlns:xlink="http://www.w3.org/1999/xlink" x="0px" y="0px"
	 width="32px" height="32px" viewBox="0 0 32 32" style="enable-background:new 0 0 32 32;" xml:space="preserve">
<style type="text/css">
	.sketchy_een{fill:#111918;}
</style>
<path class="sketchy_een" d="M20.954,13.299c-0.146-0.193-0.288-0.341-0.53-0.408c-0.066-0.018-0.133-0.028-0.201-0.031
	c-0.078-0.024-0.16-0.036-0.245-0.036c-0.001,0-0.002,0-0.004,0c-1.818,0.004-3.639,0.028-5.459,0.024
	c-0.406,0-0.814-0.014-1.22,0.006c-0.416,0.022-0.822,0.126-1.166,0.362c-0.39,0.264-0.613,0.658-0.727,1.107
	c-0.112,0.437-0.162,0.904-0.156,1.353c0.004,0.266,0.051,0.532,0.096,0.792c0.016,0.089,0.037,0.175,0.061,0.262
	c0.089,0.317,0.246,0.581,0.469,0.822c0.207,0.221,0.514,0.329,0.79,0.431c0.169,0.063,0.349,0.095,0.524,0.128
	c0.278,0.053,0.56,0.087,0.839,0.122c0.426,0.055,0.861,0.061,1.288,0.077c0.855,0.028,1.716,0.033,2.571,0.026
	c0.097,0,0.195,0.002,0.294,0.002c0.294,0.002,0.591,0.004,0.885-0.026c0.347-0.034,0.642-0.087,0.959-0.234
	c0.199-0.095,0.37-0.223,0.534-0.37c0.252-0.227,0.392-0.571,0.498-0.883c0.134-0.398,0.177-0.845,0.227-1.259
	c0.049-0.412,0.022-0.839-0.002-1.251C21.257,13.941,21.184,13.602,20.954,13.299z M19.734,15.899
	c-0.032,0.184-0.073,0.364-0.132,0.541c-0.009,0.016-0.018,0.032-0.027,0.047c-0.015,0.009-0.031,0.018-0.047,0.027
	c-0.067,0.021-0.134,0.038-0.202,0.052c-0.399,0.031-0.805,0.015-1.205,0.011c-0.281-0.002-0.562-0.002-0.842-0.002
	c-0.189,0.002-0.375,0.002-0.562,0c-0.945-0.008-1.898-0.021-2.839-0.126c-0.304-0.048-0.606-0.108-0.897-0.21
	c-0.049-0.154-0.084-0.31-0.111-0.47c-0.028-0.319-0.021-0.636,0.01-0.955c0.017-0.092,0.037-0.182,0.063-0.271
	c0.019-0.011,0.037-0.021,0.056-0.031c0.039-0.011,0.077-0.021,0.116-0.03c0.502-0.037,1.01-0.021,1.512-0.015
	c0.612,0.006,1.226,0.006,1.838,0.008c1.088,0.006,2.178,0.019,3.267,0.025C19.772,14.967,19.782,15.434,19.734,15.899z
	 M28.969,10.961c-0.05-0.88-0.039-1.765-0.051-2.645c-0.014-0.965-0.018-1.931-0.045-2.896c-0.003-0.121-0.035-0.234-0.083-0.338
	c0.024-0.078,0.05-0.157,0.05-0.238c0-0.483-0.398-0.865-0.875-0.875c-0.729-0.012-1.456-0.006-2.185-0.002
	c-0.91,0.008-1.82,0.014-2.731-0.016c-1.722-0.053-3.446-0.085-5.166-0.187c-1.665-0.098-3.333-0.128-5-0.128
	c-1.871,0-3.742,0.037-5.613,0.057c-0.617,0.008-1.233,0.006-1.85,0.004c-0.52,0-1.042,0-1.562,0.002C3.39,3.703,3,4.087,3,4.56
	c0,0.302,0.175,0.566,0.42,0.719c0.002,0.88,0.012,1.76,0.02,2.641c0.006,0.814,0.026,1.623,0.124,2.433
	c0.03,0.238,0.077,0.431,0.252,0.605c0.058,0.058,0.129,0.096,0.2,0.135c0.141,0.282,0.432,0.467,0.769,0.49
	c0.341,0.022,0.683,0.031,1.025,0.042c-0.004,0.028-0.014,0.052-0.018,0.082c-0.106,0.938-0.177,1.878-0.203,2.823
	c-0.026,0.885-0.045,1.769-0.085,2.654c-0.039,0.91-0.081,1.82-0.104,2.731c-0.022,0.855-0.018,1.712-0.026,2.569
	c-0.016,1.614-0.006,3.227-0.035,4.841c-0.006,0.366,0.237,0.682,0.563,0.81c0.152,0.141,0.35,0.233,0.569,0.231
	c0.959-0.01,1.917-0.043,2.876-0.091c0.861-0.043,1.722-0.045,2.585-0.065c0.892-0.022,1.783-0.057,2.675-0.101
	c0.873-0.041,1.749-0.047,2.624-0.051c0.794-0.002,1.59-0.004,2.384-0.014c0.733-0.01,1.468-0.014,2.203,0.01
	c0.731,0.022,1.462,0.071,2.193,0.108c0.658,0.035,1.318,0.03,1.974,0.089c0.219,0.02,0.465-0.104,0.615-0.254
	c0.057-0.056,0.093-0.127,0.131-0.196c0.336-0.115,0.609-0.426,0.587-0.794c-0.096-1.679-0.215-3.355-0.303-5.034
	c-0.045-0.857-0.053-1.718-0.087-2.577c-0.035-0.885-0.069-1.767-0.073-2.652c-0.008-1.442,0.073-2.878,0.148-4.317
	c0.009-0.178-0.062-0.336-0.163-0.474c0.212,0.002,0.427,0.004,0.641,0.004c0.24,0,0.479-0.028,0.717-0.049
	c0.219-0.018,0.408-0.075,0.567-0.234c0.15-0.15,0.234-0.355,0.234-0.565C29,11.057,28.979,11.01,28.969,10.961z M5.207,9.851
	c0.002,0.01,0.003,0.02,0.004,0.03h0C5.21,9.871,5.209,9.861,5.207,9.851z M24.916,26.52c-0.392-0.004-0.784-0.02-1.176-0.039
	c-0.851-0.041-1.7-0.096-2.553-0.108c-0.097-0.001-0.195-0.002-0.292-0.002c-0.75,0-1.502,0.03-2.251,0.037
	c-0.9,0.01-1.803,0.008-2.703,0.016c-0.749,0.006-1.495,0.045-2.242,0.079c-0.774,0.037-1.55,0.057-2.327,0.073
	c-1.43,0.031-2.859,0.065-4.29,0.076c-0.004-0.2-0.006-0.401-0.007-0.601c0-0.424,0.002-0.845,0.008-1.269
	c0.01-0.855,0.008-1.708,0.006-2.563c-0.004-1.749,0.055-3.501,0.108-5.25c0.028-0.853,0.034-1.706,0.063-2.557
	c0.034-0.906,0.132-1.807,0.244-2.705c0.001-0.011-0.002-0.022-0.002-0.033c0.006,0,0.013,0,0.019,0
	c0.857,0.032,1.718,0.032,2.577,0.032c1.688,0,3.379-0.024,5.069,0.024c0.437,0.012,0.873,0.02,1.31,0.03
	c0.42,0.008,0.839,0.039,1.261,0.055c0.857,0.03,1.714,0.055,2.571,0.079c1.7,0.049,3.398,0.047,5.099,0.049
	c0.031,0,0.063,0.001,0.094,0.001c-0.1,0.14-0.171,0.302-0.18,0.485c-0.085,1.828-0.12,3.659-0.096,5.487
	c0.012,0.831,0.047,1.661,0.069,2.49c0.024,0.879,0.047,1.757,0.097,2.636c0.066,1.158,0.172,2.312,0.206,3.473
	c-0.033,0.001-0.066-0.001-0.099,0C25.304,26.518,25.111,26.522,24.916,26.52z M25.925,10.33c-0.833,0.008-1.667,0.022-2.5,0.022
	c-1.7,0-3.395-0.075-5.091-0.14c-0.861-0.034-1.72-0.087-2.583-0.112c-0.849-0.024-1.7-0.047-2.551-0.053
	c-1.71-0.014-3.42,0.004-5.128-0.03c-0.95-0.019-1.901-0.07-2.85-0.135C5.053,8.395,5.125,6.885,5.133,5.392
	c0.503-0.01,1.007-0.017,1.51-0.031c0.879-0.024,1.757-0.02,2.636-0.02c0.881,0,1.763-0.039,2.644-0.047
	c0.871-0.006,1.74,0.002,2.608,0.024c0.865,0.022,1.734,0.037,2.599,0.089c0.877,0.051,1.751,0.104,2.628,0.14
	c0.873,0.035,1.747,0.053,2.622,0.077c0.845,0.024,1.692,0.049,2.538,0.057c0.321,0.004,0.642,0.002,0.965,0
	c0.452-0.003,0.905,0,1.357,0.012c0.027,0.874,0.054,1.747,0.045,2.624c-0.005,0.673-0.018,1.349-0.009,2.023
	c-0.07-0.001-0.14-0.001-0.209-0.001C26.685,10.334,26.305,10.326,25.925,10.33z"/>
</svg>