<?xml version="1.0" encoding="utf-8"?>
<!-- Generator: Adobe Illustrator 21.1.0, SVG Export Plug-In . SVG Version: 6.00 Build 0)  -->
<svg version="1.1" id="designs" xmlns="http://www.w3.org/2000/svg" xmlns:xlink="http://www.w3.org/1999/xlink" x="0px" y="0px"
	 width="32px" height="32px" viewBox="0 0 32 32" style="enable-background:new 0 0 32 32;" xml:space="preserve">
<style type="text/css">
	.sketchy_een{fill:#111918;}
</style>
<path class="sketchy_een" d="M28.706,23.746c0.01-0.048,0.03-0.093,0.03-0.144c-0.01-1.43,0.02-2.86-0.057-4.291
	c-0.085-1.582-0.201-3.161-0.262-4.745c-0.063-1.625-0.047-3.251-0.079-4.878c-0.016-0.816-0.012-1.637-0.01-2.455
	c0.004-0.92,0.065-1.845,0.096-2.768c0.012-0.354-0.23-0.659-0.547-0.784c-0.037-0.066-0.071-0.134-0.125-0.188
	c-0.142-0.142-0.374-0.259-0.58-0.24c-0.096,0.008-0.193,0.018-0.289,0.025c-0.096,0.008-0.216,0.012-0.303,0.036
	c-0.048,0.013-0.09,0.03-0.13,0.049c-0.68,0.025-1.362-0.004-2.04-0.02c-0.775-0.018-1.548-0.036-2.323-0.043
	c-1.607-0.018-3.218,0.01-4.823-0.1c-1.216-0.084-2.433-0.144-3.653-0.153c-0.643-0.006-1.285,0-1.928-0.008
	C10.924,3.029,10.166,3.008,9.409,3C9.407,3,9.404,3,9.402,3C8.951,3,8.577,3.384,8.577,3.832l0.001,0.006
	C8.334,4,8.166,4.266,8.156,4.577C8.133,5.343,8.128,6.108,8.125,6.873c-0.004,0-0.008-0.002-0.012-0.002
	c-0.232-0.002-0.462,0-0.692,0.002C7.084,6.875,6.75,6.879,6.414,6.867C5.668,6.845,4.923,6.814,4.177,6.786
	c-0.01,0-0.019,0-0.029,0c-0.485,0-0.884,0.439-0.884,0.914c0,0.19,0.071,0.354,0.169,0.497c-0.051,0.879-0.079,1.76-0.092,2.642
	c-0.006,0.433-0.014,0.866-0.028,1.298c-0.014,0.44-0.063,0.881-0.091,1.322c-0.049,0.797-0.067,1.598-0.063,2.396
	c0.004,0.832,0,1.665,0.004,2.497c0.004,0.828-0.006,1.656,0.02,2.484c0.026,0.807,0.043,1.615,0.055,2.424
	c0.024,1.459,0.077,2.923,0.016,4.383c-0.008,0.189,0.004,0.381-0.014,0.57c-0.035,0.344,0.266,0.675,0.578,0.761
	c0.205,0.055,0.427,0.026,0.61-0.081c0.069-0.04,0.112-0.093,0.159-0.145c0.081,0.025,0.161,0.05,0.249,0.047
	c0.875-0.025,1.759-0.086,2.636-0.049c0.834,0.035,1.668,0.043,2.504,0.045c1.745,0.004,3.492,0.004,5.237-0.006
	c1.426-0.006,2.848,0.029,4.273,0.065c0.726,0.018,1.45,0.027,2.176,0.034c0.673,0.006,1.347,0.035,2.018,0.029
	c0.354-0.003,0.654-0.233,0.77-0.551c0.206-0.161,0.346-0.403,0.356-0.683c0.036-0.894,0.035-1.792,0.036-2.688
	c0.354,0.008,0.708,0.016,1.062,0.021c0.321,0.006,0.643,0.006,0.966,0.006c0.372,0,0.744,0,1.115,0.008
	c0.464,0.01,0.854-0.396,0.854-0.854C28.84,24.015,28.784,23.874,28.706,23.746z M18.647,27.215
	c-1.733-0.02-3.466-0.047-5.199-0.049c-1.452-0.002-2.904,0.004-4.355-0.016c-0.663-0.01-1.324-0.057-1.987-0.079
	c-0.436-0.015-0.872-0.021-1.308-0.021c-0.31,0-0.62,0.003-0.93,0.009c0.004-0.267,0.009-0.532,0.01-0.799
	c0.002-0.705-0.014-1.409-0.026-2.115c-0.014-0.801-0.01-1.604-0.018-2.404c-0.008-0.828-0.031-1.654-0.035-2.48
	c-0.006-0.809,0-1.617,0-2.425c0-0.83,0-1.663,0.024-2.493c0.024-0.85,0.091-1.695,0.126-2.545c0.035-0.848,0.055-1.696,0.112-2.542
	C5.076,9.048,5.09,8.841,5.104,8.633c0.412,0.009,0.824,0.022,1.235,0.026c0.58,0.004,1.172,0.042,1.75-0.019
	C8.078,9.079,8.074,9.519,8.06,9.957c-0.059,1.749-0.104,3.498-0.098,5.246c0.012,2.725,0.132,5.451,0.073,8.174
	c-0.005,0.237,0.11,0.445,0.281,0.591c0.098,0.357,0.415,0.636,0.8,0.633c0.919-0.01,1.837-0.047,2.756-0.065
	c0.862-0.018,1.723,0.014,2.583,0.049c0.901,0.038,1.802,0.073,2.703,0.116c0.842,0.041,1.682,0.142,2.524,0.185
	c1.112,0.058,2.228,0.065,3.343,0.076c0.003,0.767,0.011,1.532,0.029,2.297C21.584,27.269,20.116,27.232,18.647,27.215z
	 M22.972,23.275c-0.867-0.012-1.735-0.018-2.603-0.04c-0.86-0.021-1.715-0.104-2.575-0.161c-1.424-0.094-2.852-0.138-4.279-0.171
	c-0.207-0.004-0.415-0.006-0.622-0.006c-0.499,0-0.998,0.01-1.499,0.014c-0.415,0.004-0.83,0.004-1.245,0.004
	c-0.176,0-0.353,0-0.53,0c0.001-1.472,0.026-2.944,0.041-4.417c0.016-1.739,0-3.478,0.026-5.217c0.02-1.406,0.063-2.813,0.124-4.22
	C9.84,8.354,9.85,7.644,9.869,6.933C9.888,6.177,9.92,5.42,9.949,4.662c0.508-0.001,1.017-0.003,1.525-0.007
	c1.033-0.008,2.068-0.016,3.102-0.004c0.378,0.006,0.755,0.03,1.133,0.061c0.397,0.032,0.799,0.036,1.198,0.063
	c0.785,0.057,1.572,0.067,2.359,0.067c1.269-0.002,2.54-0.014,3.81,0.004c1.153,0.015,2.31,0.062,3.465,0.022
	c0.058,0.02,0.122,0.023,0.185,0.03c-0.036,1.598-0.026,3.194,0.026,4.791c0.051,1.633,0.065,3.266,0.138,4.898
	c0.071,1.576,0.197,3.149,0.297,4.725c0.047,0.759,0.073,1.519,0.079,2.278c0.003,0.574,0.011,1.149,0.005,1.723
	C25.838,23.311,24.404,23.297,22.972,23.275z M14.431,10.677c0-0.494,0.413-0.911,0.909-0.909c1.133,0.004,2.268,0.055,3.403,0.057
	c0.51,0.002,1.015-0.01,1.525-0.029c0.216-0.008,0.431-0.016,0.647-0.028c0.116-0.006,0.23-0.016,0.345-0.016
	c0.056,0,0.113,0.002,0.17,0.008c0.24,0.021,0.445,0.079,0.62,0.256c0.165,0.165,0.258,0.39,0.258,0.622
	c0,0.49-0.399,0.868-0.877,0.879c-0.388,0.01-0.775,0.031-1.163,0.039c-0.508,0.012-1.017,0.028-1.525,0.026
	c-0.541-0.002-1.082-0.01-1.621-0.014c-0.594-0.002-1.188,0.016-1.782,0.018C14.844,11.587,14.431,11.17,14.431,10.677z
	 M15.071,14.467c-0.49-0.014-0.899-0.397-0.899-0.899c0-0.47,0.395-0.899,0.873-0.899c0.009,0,0.017,0,0.026,0
	c0.62,0.021,1.237,0.047,1.855,0.077c0.502,0.023,1.005,0.021,1.507,0.023c0.545,0.002,1.09-0.002,1.635-0.004
	c0.5-0.002,0.995-0.021,1.495-0.043c0.492-0.021,0.903,0.427,0.903,0.903c0,0.511-0.411,0.875-0.903,0.901
	C19.401,14.644,17.233,14.528,15.071,14.467z M22.719,17.136c0,0.439-0.38,0.856-0.834,0.834c-0.991-0.047-1.983-0.041-2.972-0.084
	c-1.102-0.047-2.203-0.004-3.305,0.002c-0.458,0.002-0.84-0.384-0.84-0.84c0-0.457,0.382-0.842,0.84-0.84
	c1.109,0.006,2.221,0.027,3.33,0.055c0.543,0.012,1.086,0.02,1.629,0.024c0.437,0.002,0.881,0.049,1.318,0.014
	C22.337,16.265,22.719,16.708,22.719,17.136z"/>
</svg>