<?xml version="1.0" encoding="utf-8"?>
<!-- Generator: Adobe Illustrator 21.1.0, SVG Export Plug-In . SVG Version: 6.00 Build 0)  -->
<svg version="1.1" id="designs" xmlns="http://www.w3.org/2000/svg" xmlns:xlink="http://www.w3.org/1999/xlink" x="0px" y="0px"
	 width="32px" height="32px" viewBox="0 0 32 32" style="enable-background:new 0 0 32 32;" xml:space="preserve">
<style type="text/css">
	.sketchy_een{fill:#111918;}
</style>
<path class="sketchy_een" d="M30.856,15.501c0.015-0.215-0.068-0.407-0.211-0.579c-0.085-0.105-0.2-0.188-0.299-0.281
	c-0.113-0.105-0.224-0.21-0.334-0.315c-0.247-0.234-0.497-0.463-0.746-0.697c-0.465-0.435-0.911-0.895-1.38-1.328
	c-0.481-0.445-0.968-0.883-1.437-1.34c-0.473-0.461-0.942-0.927-1.411-1.39C24.888,9.424,24.69,9.35,24.492,9.35
	c-0.1,0-0.2,0.02-0.294,0.058c-0.028-0.003-0.053-0.017-0.082-0.017c-0.43,0-0.806,0.364-0.798,0.8
	c0.01,0.588,0.055,1.174,0.097,1.762c0.017,0.241,0.029,0.484,0.043,0.725c-0.615-0.021-1.231-0.049-1.847-0.068
	c-0.753-0.024-1.504-0.058-2.256-0.058c-0.037,0-0.074,0-0.111,0c-0.012-0.45-0.034-0.9-0.038-1.35
	c-0.004-0.471-0.008-0.942-0.02-1.413c-0.008-0.305-0.002-0.61,0-0.914c0.361-0.014,0.722-0.028,1.085-0.022
	c0.493,0.008,0.998,0.018,1.487,0.075c0.196,0.022,0.422-0.097,0.556-0.23c0.146-0.146,0.23-0.348,0.23-0.556
	c0-0.023-0.011-0.042-0.013-0.064c0.003-0.009,0.01-0.016,0.013-0.025c0.075-0.273-0.02-0.505-0.19-0.715
	c-0.19-0.236-0.382-0.467-0.59-0.687c-0.226-0.236-0.455-0.467-0.681-0.703c-0.489-0.513-0.964-1.035-1.461-1.542
	c-0.972-0.992-1.809-2.112-2.775-3.108c-0.15-0.154-0.354-0.23-0.558-0.23c-0.115,0-0.228,0.03-0.334,0.078
	c-0.036-0.005-0.07-0.02-0.107-0.02c-0.215,0-0.43,0.081-0.595,0.239c-0.402,0.384-0.75,0.815-1.099,1.245
	c-0.358,0.442-0.723,0.875-1.079,1.318c-0.325,0.402-0.665,0.79-0.988,1.194c-0.345,0.432-0.684,0.866-1.016,1.308
	c-0.269,0.345-0.545,0.687-0.827,1.022c-0.135,0.159-0.224,0.325-0.224,0.54c0,0.202,0.081,0.398,0.224,0.541
	c0.073,0.073,0.161,0.128,0.255,0.166c0.125,0.088,0.267,0.151,0.427,0.147c0.499-0.016,0.992-0.089,1.489-0.111
	c0.227-0.011,0.454-0.003,0.682-0.003c0.008,0.633,0.022,1.266,0.019,1.899c-0.004,0.774-0.004,1.55-0.014,2.326
	c0,0.012,0,0.025,0,0.037c-0.06,0.001-0.119,0.003-0.179,0.005c-0.162,0.004-0.327,0.006-0.491,0.008
	c-0.408,0.004-0.814,0.006-1.221,0.014c-0.455,0.01-0.911,0.006-1.366,0.002c-0.2-0.002-0.401-0.001-0.602-0.002
	c-0.055-0.794-0.072-1.591-0.085-2.385c-0.005-0.291-0.169-0.54-0.403-0.683C8.663,9.861,8.557,9.785,8.43,9.751
	C8.362,9.732,8.296,9.723,8.233,9.723c-0.2,0-0.38,0.088-0.544,0.222c-0.39,0.323-0.768,0.661-1.154,0.988
	c-0.416,0.348-0.837,0.689-1.241,1.051c-0.796,0.711-1.612,1.393-2.453,2.052c-0.547,0.416-1.09,0.834-1.613,1.28
	c-0.325,0.277-0.283,0.823,0,1.107c0.111,0.112,0.259,0.173,0.413,0.202c0.895,0.954,1.851,1.846,2.815,2.728
	c0.481,0.44,0.928,0.911,1.405,1.356c0.483,0.453,0.99,0.891,1.453,1.366c0.134,0.138,0.314,0.204,0.496,0.209
	c0.143,0.148,0.34,0.242,0.559,0.242c0.433,0,0.776-0.356,0.786-0.784c0.004-0.243-0.02-0.487-0.02-0.728
	c0.002-0.297,0.004-0.596,0.01-0.893c0.005-0.294,0.024-0.587,0.042-0.88c0.702-0.012,1.4-0.067,2.102-0.077
	c0.606-0.009,1.212-0.006,1.818,0.007c0,0.493,0.005,0.986,0.005,1.48c0.002,0.866,0.043,1.734,0.043,2.601
	c-0.224-0.013-0.448-0.024-0.673-0.025c-0.475-0.002-0.948-0.038-1.421-0.061c-0.011,0-0.023-0.001-0.034-0.001
	c-0.347,0-0.634,0.26-0.739,0.579c-0.006,0.005-0.014,0.007-0.02,0.013c-0.311,0.313-0.313,0.835,0,1.148
	c0.928,0.926,1.774,1.928,2.658,2.896c0.388,0.426,0.756,0.871,1.158,1.285c0.208,0.214,0.416,0.427,0.616,0.647
	c0.184,0.202,0.358,0.41,0.546,0.606c0.021,0.022,0.051,0.031,0.074,0.05c0.037,0.115,0.093,0.224,0.182,0.314
	c0.303,0.305,0.822,0.311,1.124,0c0.548-0.562,1.081-1.14,1.645-1.687c0.519-0.503,1.059-0.986,1.566-1.5
	c0.493-0.501,0.964-1.019,1.461-1.516c0.362-0.364,0.748-0.711,1.093-1.091c0.287-0.313,0.311-0.792,0-1.103
	c-0.143-0.144-0.341-0.226-0.546-0.227c-0.139-0.111-0.308-0.187-0.497-0.19c-0.228-0.002-0.453,0.002-0.681,0.004
	c-0.226,0.004-0.453,0.008-0.679,0.004c-0.284-0.004-0.568-0.01-0.852-0.017c-0.019-0.384-0.032-0.767-0.043-1.151
	c-0.018-0.542-0.024-1.083-0.032-1.623c-0.007-0.5-0.01-1.003-0.006-1.503c0.719-0.049,1.439-0.099,2.16-0.105
	c0.632-0.004,1.263-0.013,1.893-0.007c0.008,0.365,0.017,0.729,0.017,1.093c-0.002,0.627,0.01,1.253,0.042,1.878
	c0.02,0.424,0.337,0.778,0.776,0.778c0.036,0,0.07-0.017,0.106-0.022c0.002,0,0.003,0.002,0.004,0.002
	c0.194,0.053,0.461,0.04,0.63-0.083c0.342-0.247,0.645-0.522,0.95-0.813c0.251-0.243,0.511-0.479,0.764-0.722
	c0.544-0.523,1.051-1.083,1.572-1.631c0.93-0.98,1.863-1.96,2.801-2.934C31.047,16.251,31.071,15.819,30.856,15.501z M9.061,17.694
	c-0.038,0-0.072,0.016-0.109,0.022c-0.142-0.127-0.324-0.211-0.526-0.211c-0.435,0-0.802,0.364-0.802,0.8
	c0.002,0.606,0,1.209-0.012,1.815c-0.001,0.075-0.001,0.15-0.002,0.226c-0.239-0.224-0.485-0.44-0.719-0.668
	c-0.469-0.455-0.907-0.934-1.39-1.372c-0.477-0.431-0.956-0.857-1.397-1.326c-0.36-0.38-0.711-0.771-1.063-1.16
	c0.82-0.696,1.648-1.38,2.459-2.085c0.497-0.434,1-0.859,1.512-1.275c0.204-0.165,0.403-0.337,0.601-0.509
	c0.007,0.095,0.011,0.19,0.018,0.285c0.032,0.461,0.032,0.923,0.063,1.384c0.016,0.216,0.075,0.404,0.232,0.56
	c0.094,0.093,0.212,0.149,0.337,0.187c0.138,0.127,0.316,0.21,0.513,0.205c0.798-0.018,1.595-0.063,2.393-0.05
	c0.388,0.006,0.776,0.01,1.164,0.012c0.254,0.003,0.51,0.003,0.766,0.017c-0.004,1.016-0.014,2.032,0.001,3.049
	c0,0.018,0,0.036,0,0.054C11.758,17.688,10.408,17.705,9.061,17.694z M28.446,16.722c-0.471,0.53-0.964,1.047-1.457,1.558
	c-0.491,0.515-0.968,1.043-1.481,1.536c-0.264,0.255-0.553,0.484-0.833,0.724c-0.002-0.777,0.024-1.555,0.031-2.331
	c0.002-0.438-0.368-0.804-0.804-0.804c-0.151,0-0.287,0.056-0.41,0.132c-0.048-0.012-0.094-0.033-0.146-0.033
	c-0.01,0-0.021,0-0.031,0.001c-0.529,0.026-1.059,0.026-1.59,0.024c-0.15,0-0.303,0-0.453,0c-0.164,0.002-0.329,0-0.493,0
	c-0.567,0-1.131,0.002-1.698,0.027c0.002-0.13,0.006-0.259,0.007-0.389c0.002-0.434-0.364-0.796-0.796-0.796
	s-0.798,0.362-0.796,0.796c0.002,0.586,0.026,1.172,0.032,1.758c0.006,0.536-0.014,1.071-0.01,1.607
	c0.004,0.548,0.026,1.099,0.042,1.647c0.018,0.515,0.055,1.029,0.053,1.544c0,0.016,0.008,0.03,0.009,0.045
	c-0.07,0.116-0.12,0.245-0.12,0.391c0,0.422,0.36,0.8,0.79,0.79c0.263-0.006,0.525-0.022,0.786-0.024
	c0.287-0.002,0.576,0.016,0.861,0.036c0.062,0.004,0.124,0.004,0.186,0.007c-0.473,0.471-0.913,0.974-1.38,1.453
	c-0.855,0.877-1.751,1.71-2.629,2.561c-0.314-0.317-0.613-0.649-0.925-0.969c-0.412-0.42-0.772-0.879-1.168-1.312
	c-0.432-0.471-0.869-0.938-1.287-1.421c-0.133-0.155-0.263-0.311-0.394-0.467c0.037,0,0.073-0.001,0.11-0.001
	c0.457,0.006,0.911,0.043,1.366,0.047c0.36,0.002,0.657-0.259,0.746-0.595c0.134-0.144,0.222-0.33,0.214-0.536
	c-0.032-0.76-0.03-1.52-0.059-2.28c-0.03-0.754-0.03-1.509-0.034-2.263c-0.01-1.528-0.048-3.056-0.055-4.584
	c-0.004-1.041-0.008-2.082-0.01-3.124c-0.004-1.122,0.042-2.245,0.057-3.367c0.005-0.362-0.258-0.659-0.593-0.752
	c-0.114-0.075-0.242-0.131-0.385-0.131c-0.005,0-0.009,0-0.013,0c-0.424,0.008-0.849-0.002-1.273,0.018
	c-0.049,0.002-0.098,0.003-0.148,0.005c0.129-0.17,0.258-0.34,0.388-0.51c0.551-0.703,1.149-1.37,1.736-2.039
	c0.56-0.638,1.132-1.262,1.739-1.854c0.331,0.335,0.664,0.668,0.982,1.014c0.459,0.501,0.891,1.027,1.37,1.51
	c0.228,0.233,0.463,0.461,0.687,0.699c0.243,0.259,0.483,0.525,0.73,0.784c0.151,0.156,0.307,0.309,0.461,0.462
	c-0.412-0.014-0.825-0.026-1.237-0.026c-0.121,0-0.242,0.001-0.362,0.003c-0.189,0.003-0.358,0.08-0.496,0.192
	c-0.354,0.071-0.636,0.374-0.632,0.746c0.008,0.99,0.071,1.979,0.065,2.971c-0.006,0.948-0.024,1.908,0.061,2.854
	c0.018,0.208,0.069,0.386,0.224,0.538c0.142,0.143,0.336,0.224,0.538,0.224c0.371,0,0.71-0.3,0.747-0.672
	c0.781-0.016,1.563-0.048,2.342-0.027c0.372,0.012,0.742,0.022,1.114,0.036c0.394,0.014,0.792,0.02,1.182,0.067
	c0.111,0.014,0.227-0.026,0.335-0.083c0.003,0,0.006,0.002,0.009,0.002c0.412,0,0.744-0.343,0.748-0.75
	c0.006-0.479-0.057-0.96-0.069-1.439c-0.004-0.137-0.002-0.273-0.004-0.409c0.161,0.144,0.321,0.288,0.479,0.435
	c0.469,0.437,0.952,0.855,1.423,1.289c0.479,0.441,0.928,0.913,1.396,1.364c0.37,0.357,0.751,0.703,1.11,1.069
	C29.039,16.041,28.745,16.384,28.446,16.722z"/>
</svg>