<?xml version="1.0" encoding="utf-8"?>
<!-- Generator: Adobe Illustrator 21.1.0, SVG Export Plug-In . SVG Version: 6.00 Build 0)  -->
<svg version="1.1" id="designs" xmlns="http://www.w3.org/2000/svg" xmlns:xlink="http://www.w3.org/1999/xlink" x="0px" y="0px"
	 width="32px" height="32px" viewBox="0 0 32 32" style="enable-background:new 0 0 32 32;" xml:space="preserve">
<style type="text/css">
	.sketchy_een{fill:#111918;}
</style>
<path class="sketchy_een" d="M17.968,28.993c-0.232-0.002-0.463-0.003-0.693-0.014c-0.206-0.008-0.907-0.048-0.907-0.048
	c-0.148-0.007-0.295-0.02-0.443-0.035c-0.185-0.018-0.37-0.035-0.556-0.038l-0.296-0.002c-0.27,0-0.54,0.005-0.81,0.014
	l-1.084,0.048l-0.181,0.003c-0.147,0-0.294-0.005-0.442-0.011l-0.364-0.011l-1.881,0.007c-0.177,0-0.354-0.001-0.53-0.005
	c-0.357-0.006-0.662-0.246-0.76-0.595c-0.054-0.11-0.079-0.221-0.073-0.334c0.022-0.37,0.016-0.743,0.01-1.115
	c-0.004-0.44,0.004-0.877,0.022-1.317c0.018-0.429,0.333-0.769,0.749-0.809c0.102-0.055,0.217-0.085,0.331-0.085l1.101,0.028
	l-0.053-0.216l-0.006-1.375l-0.094,0.048l-0.106-0.002c-0.717-0.005-1.435-0.026-2.152-0.047c-0.51-0.014-0.953-0.018-1.396-0.018
	c-0.904,0-1.808,0.02-2.713,0.043c-0.03,0.054-0.091,0.105-0.153,0.141c-0.124,0.073-0.267,0.111-0.414,0.111
	c-0.074,0-0.148-0.01-0.219-0.029c-0.203-0.055-0.382-0.192-0.49-0.377c-0.191-0.326-0.089-0.815-0.092-1.178
	c-0.004-0.524-0.015-1.049-0.026-1.572L3.22,18.533c-0.002-0.214,0.002-0.412,0.007-0.61l0.021-1.39
	c0.007-0.437,0.015-0.874,0.015-1.312c-0.002-0.792-0.004-1.586-0.03-2.378C3.187,11.405,3.139,9.92,3.171,8.44
	C3.202,6.994,3.213,5.444,3.08,3.9l0.002-0.139C3.087,3.66,3.087,3.619,3.098,3.577l0.062-0.128C3.209,3.355,3.255,3.29,3.309,3.235
	c0.076-0.075,0.11-0.109,0.153-0.134c0.103-0.06,0.213-0.091,0.345-0.096L3.974,3C4.53,3.069,5.089,3.096,5.768,3.096
	c0.409,0,0.818-0.01,1.224-0.022c0.216-0.007,0.433-0.009,0.65-0.009l0.881,0.005l1.472-0.004c0.155,0.001,0.31,0.009,0.463,0.017
	c0.125,0.006,0.25,0.012,0.375,0.015L11.859,3.1l0.996,0.03l0.977-0.002c0.333,0,0.665-0.008,0.998-0.017
	c0.333-0.008,0.666-0.017,1-0.017l2.251-0.002c0.432,0,0.864,0.006,1.296,0.012l1.277,0.013c0.47,0,0.94-0.011,1.41-0.021
	l0.851-0.013l1.171,0.007l1.7-0.013c0.184-0.001,0.369-0.002,0.55-0.021c0.171-0.022,0.346-0.038,0.523-0.039l0.39-0.009
	l0.125,0.003c0.178,0.011,0.35,0.075,0.511,0.192c0.037-0.029,0.072-0.038,0.112-0.038c0.423,0,0.776,0.351,0.785,0.784
	c0.006,0.315,0,0.628-0.005,0.942l-0.006,0.314c-0.008,0.438,0.011,0.875,0.029,1.312c0.012,0.288,0.023,0.575,0.028,0.863
	c0.012,0.73,0.018,1.46-0.014,2.19l-0.028,0.616c-0.057,1.205-0.117,2.452-0.089,3.681c0.017,0.691,0.016,1.382,0.015,2.074
	c-0.002,0.744-0.003,1.488,0.018,2.231c0.019,0.703,0.055,1.409,0.104,2.11l0.01,0.148c0.033,0.487,0.066,0.972,0.074,1.459
	c0.003,0.244-0.119,0.476-0.334,0.638c-0.128,0.257-0.381,0.427-0.644,0.427c-0.264-0.018-0.479-0.024-0.694-0.024
	c-0.225,0-0.451,0.006-0.676,0.012l-0.567,0.014c-0.41,0.01-0.821,0.019-1.23,0.019l-2.012-0.011c-0.36,0-0.72,0.003-1.079,0.013
	l-0.977,0.016l0.056,0.528c0.005,0.456,0.011,0.911,0.028,1.365l0.143-0.048h0.1c0.184,0,0.37-0.002,0.552-0.02
	c0.201-0.037,0.333-0.061,0.463-0.061c0.31,0.023,0.478,0.091,0.622,0.222c0.335,0.101,0.574,0.419,0.564,0.761l-0.006,0.215
	c-0.01,0.322-0.018,0.643-0.034,0.966l-0.011,0.227c-0.014,0.274-0.028,0.557,0,0.83c0.009,0.246-0.064,0.443-0.223,0.602
	c-0.191,0.241-0.396,0.364-0.61,0.364c-0.088-0.006-0.128-0.007-0.169-0.007c-0.08,0-0.16,0.005-0.24,0.011l-0.277,0.013
	c-0.092,0.002-0.186,0.005-0.278,0.013c-0.19,0.014-0.381,0.019-0.571,0.019c-0.113,0-0.597-0.01-0.726-0.01
	c-0.21,0-1.195,0.016-1.419,0.016L17.968,28.993z M14.971,27.342c0.455,0,0.909,0.029,1.363,0.057l0.344,0.021
	c0.55,0.035,1.097,0.04,1.646,0.046l0.33,0.004c0.477,0.007,0.954,0.008,1.431,0.008h0.572c0.201,0,0.399-0.008,0.598-0.017
	l0.332-0.011l0.029-0.308l-0.007-0.222c-0.005-0.138-0.005-0.275-0.005-0.412v-0.154c-0.057,0.056-0.166,0.062-0.275,0.062
	c0,0-0.964-0.014-1.26-0.014l-2.837-0.008c-0.411,0-0.822-0.011-1.232-0.022l-0.71-0.018c-0.254-0.004-0.508-0.016-0.762-0.028
	c-0.297-0.014-0.595-0.027-0.894-0.03c-0.133,0-0.266-0.007-0.399-0.014c-0.141-0.007-0.282-0.014-0.423-0.014l-0.636-0.004
	c-0.355,0-0.712,0.009-1.069,0.018l-0.562,0.012l0.036,0.18l-0.024,0.444c-0.007,0.15-0.013,0.3-0.017,0.45
	c0,0,2.171,0.025,2.335,0.025c0.413,0,0.825-0.015,1.239-0.029l0.539-0.018C14.759,27.344,14.865,27.342,14.971,27.342z
	 M12.71,23.246c-0.018,0.403-0.036,0.806-0.029,1.211L12.68,24.65l0.143,0.053l1.375,0.062c0.574,0.027,1.087,0.052,1.6,0.065
	l0.329,0.012c0.164,0.007,0.329,0.015,0.493,0.015l0.127-0.001c0.237-0.006,0.473-0.006,0.709-0.007l1.034,0.003l0.763-0.007
	c-0.071-0.589-0.095-1.23-0.121-1.871c-0.65,0.058-1.351,0.071-2.053,0.099c-0.298,0.012-0.597,0.018-0.896,0.023
	c-0.38,0.007-0.759,0.014-1.139,0.035c-0.479,0.026-0.959,0.045-1.439,0.045c-0.207,0-0.414-0.003-0.621-0.011l-0.269-0.004
	L12.71,23.246z M7.904,21.573c0.543,0,1.085,0.014,1.627,0.027c0.457,0.012,0.914,0.023,1.372,0.027l0.712,0.003
	c0.457,0.001,0.914,0.002,1.372,0.015c0.155,0.004,0.31,0.006,0.464,0.006c0.53,0,1.057-0.024,1.587-0.056
	c0.44-0.027,0.88-0.032,1.319-0.037c0.24-0.002,0.479-0.005,0.719-0.012c0.63-0.018,1.26-0.027,1.89-0.027l0.588,0.001
	c1.139,0,2.278-0.034,3.414-0.068l0.781-0.023c0.245-0.006,0.489-0.006,0.733-0.007l0.292-0.001
	c0.176-0.001,0.881-0.021,1.057-0.022c0.335-0.002,0.669-0.01,1.005-0.018l0.525-0.019l-0.045-0.109
	c0.015-0.254-0.001-0.51-0.016-0.764l-0.015-0.262c-0.009-0.173-0.012-0.346-0.016-0.519c-0.003-0.153-0.017-0.746-0.017-0.746
	l-0.17,0.05l-1.012,0.009l-1.592,0.034c-0.435,0.009-0.869,0.01-1.303,0.01l-0.433,0c-0.522,0-1.041,0-1.56,0.006
	c-0.632,0.01-1.263,0.023-1.894,0.037c-0.842,0.018-1.684,0.037-2.526,0.044l-0.782,0.004c-0.461,0-0.923-0.005-1.384-0.016
	l-0.951-0.032c-0.169-0.006-0.338-0.007-0.507-0.008c-0.17-0.001-0.34-0.002-0.51-0.008c-0.282-0.009-0.564-0.01-0.846-0.012
	c-0.334-0.002-0.668-0.004-1.002-0.018c-0.631-0.028-1.262-0.042-1.894-0.042l-0.455,0.001c-0.316,0-1.767-0.015-1.77-0.015
	c-0.307,0-0.558,0.011-0.809,0.022l-0.275,0.011c-0.203,0.008-0.406,0.011-0.609,0.014l-0.086,0l-0.001,0.217
	c-0.008,0.395-0.016,0.791-0.013,1.186c0.004,0.373,0.004,0.747,0.002,1.121l0.506-0.01l1.171,0.011L7.904,21.573z M11.376,17.521
	c0.198,0,0.394,0.005,0.591,0.01l0.197,0.005c0.255,0.005,0.51,0.005,0.765,0.005c0.393,0,0.787,0,1.181,0.02
	c0.648,0.034,1.297,0.041,1.947,0.041l2.383-0.006c0.556,0.003,1.112,0.005,1.666,0.005c0.939,0,1.879-0.005,2.818-0.015
	c0.398-0.003,3.524-0.053,3.524-0.053c0.27,0,0.541-0.001,0.81-0.026l-0.031-0.16l-0.004-0.245l0.002-0.538
	c0.002-0.538,0.004-1.075,0-1.611l-0.01-0.823c-0.007-0.467-0.014-0.934-0.008-1.401c0.01-0.699,0.043-1.396,0.076-2.093
	c0.035-0.736,0.071-1.473,0.078-2.212c0.009-0.86-0.004-1.559-0.039-2.198l-0.02-0.324c-0.018-0.255-0.034-0.51-0.045-0.766
	l-0.016-0.42c-0.022,0.039-0.083,0.041-0.147,0.041c-0.005,0-0.011,0-0.017,0c-0.157,0-0.312,0.01-0.473,0.02
	c-0.124,0.009-0.631,0.032-0.631,0.032c-0.173,0.009-0.347,0.012-0.521,0.012L24.362,4.81l-1.636,0.002
	c-0.337-0.001-0.674-0.011-1.01-0.021l-0.564-0.016c-0.693-0.015-1.386-0.019-2.079-0.019c-0.622,0-3.437,0.018-3.437,0.018
	L13.787,4.78c-0.458,0-0.917-0.001-1.372-0.028c-0.297-0.016-0.592-0.03-0.89-0.037l-0.402-0.004c-0.202,0-0.405-0.001-0.606-0.011
	L10.09,4.672C9.91,4.66,9.73,4.647,9.549,4.64C9.164,4.624,8.779,4.614,8.395,4.614L6.215,4.607C6.008,4.608,5.799,4.613,5.59,4.619
	C5.344,4.625,5.097,4.631,4.851,4.631l-0.112,0l0.004,0.114c0.003,0.073,0.006,0.146,0.005,0.22L4.742,5.529
	c-0.007,0.554-0.013,1.107,0,1.662l0.055,2.292c0.007,0.307,0.018,0.613,0.028,0.92c0.014,0.397,0.027,0.794,0.033,1.191
	c0.004,0.321,0.014,0.641,0.024,0.961C4.896,13,4.91,13.445,4.908,13.89l-0.001,0.745c0,0.539,0,1.077-0.013,1.614
	c-0.008,0.364-0.012,0.727-0.014,1.088l0.002,0.12c0.355,0.019,0.759,0.026,1.161,0.039c0.209,0.008,0.418,0.01,0.626,0.01
	l1.801-0.012l0.416,0.002c0.273,0.003,0.545,0.012,0.817,0.021l0.757,0.018C10.599,17.535,11.376,17.521,11.376,17.521z
	 M16.006,21.023c-0.374,0-0.69-0.316-0.69-0.69c0-0.374,0.316-0.69,0.69-0.69c0.374,0,0.69,0.316,0.69,0.69
	C16.696,20.707,16.381,21.023,16.006,21.023z"/>
</svg>