<?xml version="1.0" encoding="utf-8"?>
<!-- Generator: Adobe Illustrator 21.1.0, SVG Export Plug-In . SVG Version: 6.00 Build 0)  -->
<svg version="1.1" id="designs" xmlns="http://www.w3.org/2000/svg" xmlns:xlink="http://www.w3.org/1999/xlink" x="0px" y="0px"
	 width="32px" height="32px" viewBox="0 0 32 32" style="enable-background:new 0 0 32 32;" xml:space="preserve">
<style type="text/css">
	.sketchy_een{fill:#111918;}
</style>
<path class="sketchy_een" d="M13.011,20.67c0.003,0.021,0.005,0.042,0.008,0.063c-0.004-0.028-0.007-0.055-0.011-0.082
	C13.009,20.657,13.01,20.664,13.011,20.67z M13.485,13.414c0.002,0.016,0.004,0.032,0.007,0.048c-0.003-0.025-0.007-0.05-0.01-0.074
	C13.482,13.396,13.484,13.405,13.485,13.414z M13.041,20.888c-0.002-0.011-0.003-0.023-0.005-0.035
	c-0.008-0.056-0.016-0.112-0.024-0.167C13.022,20.754,13.031,20.821,13.041,20.888z M11.85,8.108
	c0.005-0.038,0.014-0.076,0.019-0.114c0.004-0.029,0.005-0.058,0.009-0.088C11.869,7.974,11.859,8.042,11.85,8.108z M19.987,8.596
	c0.002,0.013,0.003,0.027,0.005,0.04C19.996,8.665,20,8.694,20.004,8.723C19.999,8.681,19.993,8.639,19.987,8.596z M17.969,16.914
	c0.001-0.005,0.001-0.011,0.002-0.016c-0.003,0.025-0.007,0.05-0.01,0.074C17.964,16.952,17.967,16.933,17.969,16.914z
	 M18.161,15.372c-0.001,0.004-0.001,0.008-0.002,0.011c-0.001,0.01-0.002,0.019-0.004,0.028
	C18.157,15.398,18.159,15.385,18.161,15.372z M17.296,6.555c-0.025-0.01-0.049-0.021-0.074-0.031c-0.001,0-0.001,0-0.002-0.001
	c0.029,0.012,0.059,0.025,0.088,0.037C17.304,6.559,17.3,6.557,17.296,6.555z M18.132,15.593c0.001-0.009,0.002-0.019,0.004-0.028
	c0.001-0.009,0.002-0.017,0.003-0.026C18.136,15.557,18.134,15.575,18.132,15.593z M18.242,28.705
	c-0.056-0.024-0.113-0.048-0.169-0.072c-0.007-0.003-0.014-0.006-0.021-0.009C18.114,28.652,18.178,28.678,18.242,28.705z
	 M29.935,18.107c0.008,0.319,0.009,0.636,0.004,0.955c-0.008,0.417-0.342,0.764-0.764,0.764c-0.01,0-0.019-0.006-0.029-0.006
	c-0.012,0-0.022,0.007-0.034,0.006c-0.292-0.017-0.589-0.009-0.881-0.007c-0.313,0-0.625,0-0.936-0.006
	c-0.334-0.006-0.666,0.025-0.998,0.026c-0.257,0.002-0.511-0.004-0.768,0.013c-0.325,0.021-0.647,0.06-0.974,0.07
	c-0.336,0.011-0.672,0.026-1.008,0.024c-0.721-0.002-1.438,0.025-2.159,0.045c-0.749,0.02-1.495,0.061-2.242,0.118
	c-0.006,0.056-0.01,0.112-0.017,0.168c-0.05,0.398-0.111,0.796-0.168,1.194c-0.068,0.575-0.11,1.152-0.152,1.729
	c0.501,0.432,0.98,0.89,1.481,1.323c0.479,0.413,0.972,0.815,1.472,1.204c-0.049-0.038-0.1-0.077-0.151-0.115
	c0.372,0.282,0.73,0.583,1.072,0.902c0.161,0.033,0.317,0.094,0.431,0.209c0.155,0.155,0.243,0.368,0.243,0.587
	c0,0.24-0.1,0.406-0.243,0.587c-0.434,0.551-0.864,1.102-1.321,1.634c-0.095,0.11-0.22,0.172-0.353,0.211
	c-0.231,0.145-0.53,0.159-0.79,0.026c-0.371-0.193-0.747-0.379-1.131-0.545c-0.481-0.201-0.966-0.389-1.446-0.592
	c-0.184-0.079-0.368-0.161-0.55-0.247c-0.027-0.013-0.045-0.043-0.07-0.061c-0.026,0.003-0.049,0.016-0.076,0.017
	c-0.143,0.008-0.287,0.002-0.43-0.004c-0.113-0.004-0.228-0.007-0.342-0.007c-0.462,0.007-0.925,0.013-1.389,0.013
	c-0.09,0-0.173-0.024-0.254-0.052c-0.306,0.137-0.612,0.278-0.914,0.422c-0.221,0.106-0.442,0.211-0.649,0.342
	c-0.213,0.136-0.432,0.26-0.651,0.389c-0.166,0.097-0.34,0.188-0.499,0.296c-0.21,0.167-0.454,0.25-0.727,0.176
	c-0.196-0.055-0.364-0.185-0.468-0.36c-0.004-0.008-0.004-0.017-0.008-0.025c-0.104-0.037-0.201-0.091-0.264-0.169
	c-0.115-0.146-0.223-0.295-0.334-0.441c-0.149-0.189-0.299-0.377-0.446-0.567c0.02,0.026,0.04,0.052,0.059,0.077
	c-0.057-0.074-0.115-0.149-0.174-0.225c0.038,0.049,0.077,0.1,0.115,0.149c-0.149-0.193-0.317-0.387-0.428-0.606
	c-0.128-0.244-0.143-0.521,0-0.764c0.02-0.034,0.058-0.052,0.082-0.082c0.007-0.203,0.082-0.405,0.234-0.56
	c0.598-0.611,1.219-1.202,1.817-1.813c0.255-0.26,0.5-0.527,0.728-0.81c0.183-0.226,0.357-0.449,0.585-0.632
	c0.1-0.079,0.199-0.138,0.306-0.179c-0.026-0.184-0.053-0.367-0.077-0.551c0.005,0.044,0.011,0.088,0.017,0.132
	c-0.075-0.547-0.155-1.092-0.231-1.637c-0.006-0.04-0.011-0.08-0.016-0.12c0.003,0.024,0.006,0.048,0.01,0.072
	c-0.006-0.045-0.012-0.09-0.018-0.135c-0.003-0.022-0.006-0.044-0.008-0.067c0.002,0.016,0.004,0.032,0.006,0.048
	c-0.014-0.102-0.027-0.203-0.041-0.305c0-0.001-0.001-0.002-0.001-0.003c-0.019-0.068-0.027-0.137-0.026-0.205
	c-0.013-0.104-0.027-0.207-0.041-0.311c-0.027,0.002-0.052,0.016-0.08,0.014c-0.366-0.022-0.73-0.057-1.098-0.059
	c-0.598-0.002-1.193-0.011-1.791-0.015c-0.74-0.004-1.479-0.021-2.219-0.019c-0.772,0.002-1.544,0.009-2.313,0.019
	c-0.659,0.007-1.318,0.038-1.977,0.064c-0.142,0.126-0.323,0.209-0.52,0.209c-0.369,0-0.68-0.276-0.755-0.628
	c-0.056-0.11-0.096-0.227-0.096-0.353c0-0.114,0.026-0.219,0.069-0.316c0-0.061,0.004-0.121,0.001-0.182
	c-0.009-0.264,0.004-0.527-0.002-0.791c-0.011-0.779-0.064-1.557-0.079-2.338c-0.001-0.04,0.017-0.074,0.022-0.113
	c-0.01-0.024-0.028-0.045-0.035-0.07c-0.055-0.202-0.026-0.423,0.079-0.602c0.109-0.188,0.27-0.285,0.466-0.358
	c0.316-0.121,0.626-0.245,0.938-0.373c0.688-0.298,1.366-0.619,2.068-0.882c0.689-0.259,1.385-0.5,2.076-0.759
	c0.666-0.249,1.325-0.513,1.985-0.774c0.336-0.132,0.677-0.251,1.013-0.387c0.201-0.082,0.402-0.167,0.604-0.25
	c-0.01,0.004-0.019,0.008-0.028,0.012c0.01-0.004,0.02-0.008,0.029-0.012c0.048-0.02,0.096-0.04,0.144-0.059
	c-0.046,0.018-0.091,0.037-0.136,0.055c0.162-0.07,0.323-0.145,0.492-0.201c-0.009-0.165-0.026-0.33-0.027-0.495
	c-0.004-0.729,0.044-1.449,0.138-2.173c0.031-0.228,0.06-0.457,0.116-0.68c0.055-0.215,0.123-0.427,0.193-0.636
	c0.081-0.243,0.185-0.481,0.296-0.711c0.096-0.2,0.217-0.389,0.375-0.547c0.062-0.062,0.136-0.112,0.203-0.169
	c-0.752,0.048-1.505,0.072-2.255,0.145c-0.196,0.021-0.419-0.094-0.555-0.228c-0.145-0.147-0.23-0.347-0.23-0.555
	s0.085-0.407,0.23-0.555c0.157-0.155,0.34-0.211,0.555-0.228c0.557-0.045,1.111-0.051,1.668-0.053
	c0.391-0.002,0.779-0.008,1.168-0.025c0.36-0.017,0.723-0.042,1.083-0.047c0.063-0.001,0.126,0,0.19-0.001
	c-0.028-0.24-0.055-0.479-0.083-0.718c-0.028-0.23,0.115-0.5,0.272-0.655c0.172-0.174,0.409-0.272,0.653-0.272
	c0.245,0,0.483,0.098,0.655,0.272c0.187,0.187,0.245,0.4,0.272,0.655c0.025,0.235,0.04,0.471,0.059,0.706
	c0.065,0,0.13-0.001,0.195-0.001c0.721,0,1.44,0.015,2.161,0.004c0.574-0.008,1.147-0.021,1.721-0.028c0.004,0,0.007,0,0.011,0
	c0.5,0,0.871,0.506,0.738,0.985c-0.115,0.421-0.53,0.625-0.94,0.545c-0.066-0.003-0.133-0.003-0.199-0.001
	c-0.04,0-0.079,0-0.117-0.002c-0.162-0.002-0.325-0.017-0.487-0.019c-0.651-0.01-1.304-0.023-1.956-0.034
	c0.199,0.081,0.396,0.167,0.58,0.275c0.306,0.177,0.591,0.439,0.792,0.73c0.136,0.194,0.23,0.404,0.319,0.623
	c0.094,0.227,0.177,0.453,0.236,0.693c0.092,0.387,0.151,0.784,0.205,1.178c0.073,0.562,0.085,1.121,0.086,1.686
	c0.721,0.276,1.437,0.571,2.136,0.895c0.657,0.304,1.31,0.615,1.966,0.917c0.63,0.291,1.26,0.573,1.883,0.877
	c0.622,0.302,1.236,0.627,1.869,0.908c0.262,0.106,0.527,0.207,0.79,0.311c0.142,0.053,0.283,0.109,0.426,0.158
	c0.1,0.036,0.206,0.059,0.304,0.098c0.126,0.036,0.236,0.1,0.328,0.19c0.092,0.094,0.157,0.204,0.193,0.328
	c0.043,0.157,0.019,0.322-0.041,0.472c-0.004,0.318-0.008,0.637-0.015,0.955c-0.006,0.296-0.023,0.593-0.017,0.887
	C29.907,17.584,29.929,17.844,29.935,18.107z M14.467,20.159c0.002,0.017,0.005,0.034,0.007,0.051
	c-0.003-0.02-0.005-0.039-0.008-0.058c0-0.001,0-0.001,0-0.002C14.466,20.153,14.467,20.156,14.467,20.159z M5.679,14.547
	c0.036-0.015,0.072-0.031,0.109-0.046c-0.005,0.002-0.011,0.004-0.016,0.007C5.741,14.521,5.71,14.534,5.679,14.547z M12.596,18.227
	c0.029,0,0.057,0.001,0.086,0.001c-0.053-0.376-0.107-0.753-0.157-1.13c-0.115-0.82-0.255-1.637-0.356-2.46
	c-0.091-0.732-0.187-1.466-0.274-2.2c-0.01-0.082-0.014-0.166-0.023-0.249c-0.083,0.025-0.167,0.044-0.248,0.076
	c-0.238,0.093-0.479,0.174-0.721,0.257c-0.56,0.194-1.106,0.427-1.662,0.632c-0.581,0.215-1.157,0.449-1.736,0.67
	c-0.556,0.211-1.11,0.424-1.659,0.652c-0.434,0.199-0.853,0.423-1.283,0.625c-0.299,0.142-0.605,0.268-0.908,0.4
	c0.003,0.77-0.012,1.537,0.019,2.305c0.006,0.152,0.004,0.303,0.005,0.455c0.192-0.001,0.384-0.007,0.576-0.005
	c0.806,0.008,1.612,0.04,2.417,0.049c0.764,0.009,1.525-0.027,2.287-0.04c0.64-0.013,1.279-0.011,1.919-0.028
	c0.181-0.004,0.364-0.002,0.545,0c0.145,0.002,0.291,0.002,0.438,0C12.106,18.237,12.351,18.227,12.596,18.227z M14.014,27.054
	c-0.038-0.195-0.089-0.386-0.125-0.582c-0.053-0.292-0.098-0.587-0.149-0.879c-0.047-0.272-0.087-0.545-0.132-0.816
	c-0.033,0.037-0.067,0.073-0.101,0.11c-0.242,0.273-0.491,0.542-0.738,0.809c-0.538,0.581-1.082,1.155-1.628,1.724
	c0.017,0.025,0.035,0.05,0.052,0.075c0.083,0.119,0.166,0.237,0.252,0.354c0.108,0.137,0.224,0.272,0.353,0.385
	c0.274-0.147,0.551-0.289,0.82-0.447C13.072,27.52,13.54,27.282,14.014,27.054z M16.606,26.81c0.062,0.003,0.124,0,0.186,0
	c0.007-0.058,0.009-0.117,0.017-0.175c0.026-0.239,0.045-0.479,0.097-0.713c0.02-0.097,0.04-0.193,0.057-0.29
	c0.102-0.86,0.178-1.723,0.258-2.584c0.045-0.479,0.083-0.96,0.138-1.438c0.057-0.499,0.143-0.992,0.214-1.489
	c0.073-0.571,0.131-1.144,0.21-1.713c-0.009,0.068-0.019,0.138-0.028,0.206c0.072-0.547,0.133-1.095,0.207-1.642
	c-0.004,0.029-0.007,0.058-0.01,0.087c0.006-0.049,0.012-0.097,0.018-0.146c0.003-0.02,0.005-0.04,0.008-0.06
	c-0.002,0.015-0.004,0.03-0.006,0.044c0.055-0.445,0.105-0.889,0.164-1.333c0.007-0.051,0.013-0.102,0.02-0.154
	c-0.005,0.04-0.01,0.08-0.016,0.121c0.013-0.098,0.026-0.196,0.04-0.292c-0.006,0.043-0.012,0.088-0.019,0.132
	c0.002-0.014,0.004-0.027,0.005-0.041c-0.002,0.018-0.005,0.035-0.007,0.052c-0.003,0.019-0.005,0.038-0.008,0.057
	c0.087-0.658,0.159-1.321,0.234-1.981c0.036-0.315,0.053-0.63,0.083-0.945c0.026-0.285,0.059-0.568,0.077-0.855
	c0.038-0.574,0.049-1.144,0.047-1.717c-0.002-0.213,0.006-0.427-0.002-0.64c-0.008-0.2-0.036-0.398-0.061-0.597
	c-0.029-0.215-0.059-0.43-0.105-0.641c-0.057-0.262-0.141-0.517-0.239-0.765c-0.05-0.106-0.109-0.208-0.175-0.305
	c-0.057-0.061-0.118-0.115-0.182-0.168c-0.129-0.09-0.27-0.158-0.414-0.22c-0.04-0.017-0.079-0.033-0.119-0.05
	c-0.02-0.009-0.041-0.017-0.061-0.026c-0.004-0.001-0.009-0.003-0.013-0.005c-0.005-0.002-0.009-0.004-0.014-0.006
	c0.004,0.002,0.008,0.003,0.012,0.005c-0.147-0.057-0.296-0.104-0.439-0.173c-0.198-0.093-0.383-0.213-0.568-0.33
	c-0.063-0.04-0.11-0.095-0.159-0.147c-0.018,0.007-0.031,0.02-0.049,0.026c-0.319,0.094-0.643,0.202-0.974,0.255
	c-0.243,0.04-0.485,0.087-0.717,0.165c-0.05,0.026-0.098,0.054-0.146,0.086c-0.075,0.065-0.148,0.134-0.215,0.207
	c-0.09,0.137-0.166,0.282-0.234,0.431c-0.099,0.261-0.205,0.524-0.277,0.794c-0.07,0.266-0.115,0.537-0.154,0.808
	c-0.189,1.573-0.013,3.181,0.192,4.744c-0.003-0.024-0.007-0.049-0.01-0.073c0.005,0.033,0.009,0.067,0.014,0.1
	c0.004,0.031,0.008,0.063,0.012,0.094c-0.002-0.016-0.004-0.031-0.006-0.046c0.189,1.354,0.41,2.701,0.592,4.056
	c-0.006-0.047-0.012-0.094-0.019-0.143c0.087,0.634,0.181,1.264,0.276,1.896c0.025,0.158,0.049,0.315,0.07,0.474
	c0.015,0.107,0.029,0.214,0.044,0.322c0.01,0.063,0.018,0.129,0.027,0.198c-0.005-0.035-0.01-0.071-0.015-0.107
	c0.005,0.041,0.011,0.082,0.017,0.123c0.002,0.014,0.004,0.027,0.006,0.041c0,0.001,0,0.002,0,0.002
	c0.183,1.331,0.398,2.658,0.575,3.991c0.118,0.822,0.295,1.63,0.466,2.441C15.889,26.77,16.247,26.791,16.606,26.81z M19.944,26.132
	c-0.438-0.366-0.869-0.738-1.3-1.111c-0.042,0.434-0.077,0.869-0.133,1.303c-0.026,0.241-0.038,0.482-0.057,0.723
	c0.536,0.259,1.071,0.521,1.617,0.756c0.218,0.095,0.425,0.208,0.636,0.312c0.22-0.247,0.439-0.495,0.659-0.743
	c-0.137-0.132-0.28-0.258-0.423-0.385C20.612,26.696,20.28,26.413,19.944,26.132z M28.414,18.309
	c-0.008-0.33-0.023-0.659-0.03-0.989c-0.011-0.584-0.025-1.169-0.032-1.754c-0.54-0.221-1.081-0.438-1.605-0.701
	c-0.557-0.277-1.113-0.557-1.672-0.83c-1.029-0.504-2.089-0.943-3.142-1.394c-0.632-0.262-1.271-0.509-1.91-0.753
	c-0.008,0.133-0.004,0.266-0.015,0.399c-0.064,0.776-0.166,1.547-0.242,2.323c-0.079,0.793-0.181,1.583-0.272,2.374
	c-0.062,0.536-0.124,1.072-0.185,1.608c0.693-0.032,1.385-0.015,2.078-0.015c0.721,0.002,1.438-0.07,2.159-0.077
	c0.336-0.004,0.672-0.002,1.008-0.019c0.325-0.015,0.649-0.053,0.974-0.072c0.589-0.036,1.179-0.04,1.766-0.083
	c0.304-0.023,0.611-0.019,0.915-0.013C28.277,18.313,28.346,18.309,28.414,18.309z M11.266,10.863
	c-0.003,0.001-0.006,0.003-0.009,0.004l0.001,0C11.26,10.865,11.263,10.864,11.266,10.863z"/>
</svg>