<?xml version="1.0" encoding="utf-8"?>
<!-- Generator: Adobe Illustrator 21.1.0, SVG Export Plug-In . SVG Version: 6.00 Build 0)  -->
<svg version="1.1" id="designs" xmlns="http://www.w3.org/2000/svg" xmlns:xlink="http://www.w3.org/1999/xlink" x="0px" y="0px"
	 width="32px" height="32px" viewBox="0 0 32 32" style="enable-background:new 0 0 32 32;" xml:space="preserve">
<style type="text/css">
	.sketchy_een{fill:#111918;}
</style>
<path class="sketchy_een" d="M13.261,30c-0.192,0-0.377-0.083-0.52-0.233c-0.141-0.148-0.221-0.343-0.221-0.536
	c0-0.419,0.339-0.757,0.773-0.768c0.354-0.01,0.709-0.016,1.063-0.016l0.443-0.003c0.146,0,0.293,0.003,0.437,0.015l0.222,0.019
	l0-0.873c0.002-0.584,0.008-1.166,0.022-1.752c0.001-0.07,0.025-0.144,0.051-0.221l0.065-0.2l-0.203-0.057
	c-0.693-0.197-1.374-0.497-2.032-0.789l-0.161-0.07c-0.476-0.209-0.877-0.427-1.228-0.665c-0.415-0.279-0.819-0.575-1.223-0.869
	c-0.489-0.356-0.959-0.716-1.329-1.214c-0.252-0.337-0.45-0.724-0.642-1.1l-0.184-0.358c-0.217-0.419-0.442-0.852-0.615-1.293
	c-0.099-0.256-0.185-0.513-0.257-0.778c-0.066-0.245-0.099-0.503-0.131-0.756l-0.013-0.102c-0.066-0.514-0.104-1.032-0.141-1.549
	c-0.03-0.425-0.061-0.85-0.107-1.273l-0.075-0.483c-0.034-0.204-0.032-0.356,0.005-0.49l0.05-0.176l-0.17-0.066
	c-0.249-0.099-0.495-0.201-0.74-0.307c-0.184-0.079-0.872-0.392-0.872-0.392c-0.256-0.116-0.491-0.261-0.73-0.407l-0.176-0.107
	c-0.267-0.158-0.461-0.304-0.612-0.463c-0.319-0.324-0.395-0.811-0.185-1.187c0.134-0.242,0.379-0.454,0.595-0.641
	C4.94,9.394,5.527,8.99,6.094,8.6l0.192-0.132c0.674-0.467,1.37-0.918,2.07-1.344c0.063-0.039,0.137-0.066,0.226-0.086L8.69,7.014
	l0.083-0.246c0.452-0.975,1.041-2.081,1.975-2.89c0.329-0.285,0.715-0.606,1.129-0.802c0.305-0.144,0.615-0.283,0.932-0.401
	c0.633-0.236,1.129-0.387,1.611-0.493C14.969,2.06,15.492,2,15.976,2c0.52,0,1.009,0.071,1.452,0.211
	c0.549,0.171,1.046,0.393,1.481,0.66c0.218,0.135,0.431,0.278,0.64,0.43c0.319,0.229,0.572,0.41,0.76,0.622
	c0.432,0.487,0.787,1.037,1.052,1.635c0.211,0.474,0.415,0.957,0.596,1.44c0.138,0.373,0.309,0.868,0.413,1.392
	c0.086,0.43,0.144,0.867,0.2,1.301l0.031,0.229h-0.001c0.061,0.464,0.118,0.928,0.173,1.393l0.12,0.98
	c0.104,0.659,0.205,1.158,0.329,1.624c0.12,0.456,0.241,0.902,0.41,1.34c0.133,0.277,0.306,0.62,0.531,0.944
	c0.149,0.177,0.293,0.327,0.455,0.469l0.218,0.154c0.118,0.082,0.237,0.164,0.352,0.252c0.131,0.096,0.204,0.15,0.27,0.212
	c0.036,0.049,0.091,0.119,0.144,0.193c0.09,0.129,0.123,0.393,0.07,0.567c-0.042,0.14-0.116,0.272-0.235,0.419l-0.148,0.183
	l0.202,0.119c0.338,0.2,0.675,0.397,1.03,0.569c0.243,0.091,0.468,0.161,0.705,0.209c0.234,0.048,0.413,0.084,0.595,0.166
	c0.207,0.092,0.388,0.305,0.441,0.516c0.155,0.626-0.294,1.31-0.575,1.66c-0.243,0.304-0.551,0.601-0.999,0.965
	c-0.435,0.352-0.91,0.718-1.44,1.011c-0.439,0.241-0.891,0.452-1.343,0.661l-0.324,0.15c-0.4,0.184-0.8,0.371-1.214,0.522
	c-0.995,0.37-2.101,0.457-3.053,0.493l-0.174,0.008c-0.357,0.015-0.713,0.03-1.07,0.03l-0.262-0.003
	c-0.197-0.005-0.393-0.024-0.588-0.042l-0.215-0.021l-0.043,0.212l-0.011,0.329c-0.015,0.436-0.03,0.871-0.035,1.306
	c-0.004,0.445-0.008,0.849,0.031,1.244l0.039,0.303c0.02,0.165-0.098,0.383-0.218,0.505c-0.138,0.138-0.33,0.217-0.526,0.217
	l-0.249-0.056l-0.165,0.15c-0.11,0.064-0.223,0.095-0.357,0.095c-0.062,0-0.125-0.007-0.19-0.018l-0.193-0.005
	c-0.178,0-0.357,0.007-0.534,0.014L13.261,30z M9.534,8.023l-0.04,0.099C9.418,8.306,9.31,8.441,9.169,8.526
	C8.101,9.17,6.972,9.864,5.927,10.655L5.564,10.95l0.262,0.145c0.322,0.178,0.658,0.334,0.997,0.48l0.554,0.236
	c0.398,0.158,0.725,0.26,1.054,0.363c0.414,0.129,0.652,0.544,0.541,0.944c-0.018,0.066-0.061,0.132-0.106,0.201l-0.057,0.087
	l0.038,0.097c0.133,0.756,0.204,1.409,0.244,2.075c0.03,0.489,0.066,0.978,0.121,1.465c0.034,0.245,0.069,0.486,0.137,0.717
	c0.069,0.239,0.149,0.469,0.238,0.696c0.185,0.381,0.376,0.743,0.567,1.104l0.137,0.258c0.174,0.327,0.348,0.655,0.556,0.962
	c0.202,0.229,0.414,0.425,0.704,0.659c0.544,0.41,1.057,0.797,1.597,1.128c0.472,0.291,0.985,0.516,1.481,0.733
	c0.544,0.225,0.956,0.372,1.351,0.484c0.431,0.121,0.868,0.194,1.202,0.245c0.462,0.037,0.912,0.053,1.365,0.053
	c0.649,0,1.312-0.036,1.97-0.106c0.311-0.049,0.61-0.102,0.906-0.172c0.366-0.081,0.707-0.218,1.009-0.339
	c0,0,0.202-0.086,0.248-0.106c0.897-0.382,1.91-0.864,2.817-1.539c0.294-0.234,0.59-0.472,0.859-0.732l0.236-0.229l-0.311-0.108
	c-0.208-0.073-0.415-0.156-0.616-0.252c-0.319-0.149-0.624-0.318-0.93-0.487c-0.082-0.045-0.164-0.09-0.245-0.136
	c-0.142-0.079-0.262-0.196-0.386-0.301l-0.122,0.1l-0.093,0.072c-0.102,0.08-0.203,0.16-0.309,0.236
	c-0.921,0.658-1.86,1.086-2.789,1.27c-0.515,0.103-1.06,0.155-1.663,0.159c-0.244,0-0.487-0.008-0.73-0.027
	c-0.291-0.025-0.576-0.053-0.838-0.121c-0.526-0.14-1.054-0.368-1.55-0.589c-0.389-0.173-0.775-0.358-1.155-0.547
	c-0.929-0.465-1.757-1.325-2.329-2.42c-0.225-0.431-0.097-0.93,0.298-1.162c0.122-0.072,0.268-0.11,0.423-0.11
	c0.319,0,0.597,0.156,0.726,0.404c0.137,0.266,0.285,0.521,0.458,0.765c0.233,0.273,0.477,0.545,0.757,0.785
	c0.34,0.235,0.692,0.412,1.032,0.585c0.461,0.233,0.872,0.426,1.287,0.609c0.171,0.071,0.341,0.137,0.513,0.178
	c0.176,0.044,0.351,0.079,0.526,0.108c0.332,0.031,0.648,0.047,0.964,0.047c0.257,0,0.512-0.01,0.77-0.033
	c0.509-0.085,0.954-0.2,1.374-0.355c0.727-0.316,1.309-0.737,1.846-1.148l0.469-0.355l-0.377-0.278
	c-0.289-0.223-0.553-0.509-0.786-0.851c-0.394-0.577-0.698-1.261-0.931-2.092c-0.173-0.623-0.314-1.296-0.442-2.116
	c-0.073-0.484-0.129-0.972-0.183-1.459l-0.086-0.738l-0.037-0.275c-0.08-0.6-0.162-1.223-0.312-1.826
	c-0.151-0.618-0.401-1.216-0.643-1.792c-0.247-0.563-0.49-1.007-0.771-1.4c-0.16-0.186-0.319-0.338-0.491-0.484
	c-0.44-0.322-0.885-0.589-1.37-0.825c-0.346-0.131-0.669-0.225-1.006-0.294c-0.192-0.021-0.362-0.033-0.537-0.033
	C15.784,3.564,15.6,3.581,15.415,3.6c-0.425,0.063-0.868,0.142-1.295,0.286c-0.383,0.128-0.76,0.271-1.134,0.423
	c-0.329,0.158-0.587,0.302-0.821,0.462c-0.32,0.266-0.592,0.526-0.847,0.809c-0.194,0.266-0.402,0.565-0.57,0.886
	c-0.203,0.386-0.389,0.776-0.569,1.171c-0.076,0.169-0.305,0.312-0.497,0.357L9.534,8.023z M13.999,8.047
	c-0.366,0-0.674-0.308-0.674-0.674S13.634,6.7,13.999,6.7s0.674,0.308,0.674,0.674S14.365,8.047,13.999,8.047z"/>
</svg>