<?xml version="1.0" encoding="utf-8"?>
<!-- Generator: Adobe Illustrator 21.1.0, SVG Export Plug-In . SVG Version: 6.00 Build 0)  -->
<svg version="1.1" id="designs" xmlns="http://www.w3.org/2000/svg" xmlns:xlink="http://www.w3.org/1999/xlink" x="0px" y="0px"
	 width="32px" height="32px" viewBox="0 0 32 32" style="enable-background:new 0 0 32 32;" xml:space="preserve">
<style type="text/css">
	.sketchy_een{fill:#111918;}
</style>
<path class="sketchy_een" d="M26.667,12.367c-0.156-1.532-0.45-3.191-1.583-4.326c-0.134-0.132-0.29-0.246-0.441-0.359
	c-0.183-0.139-0.381-0.225-0.593-0.315c-0.277-0.116-0.559-0.191-0.854-0.235C22.6,7.043,21.998,7.028,21.4,6.957
	c-0.117-0.017-0.235-0.031-0.352-0.048c0.074-0.182,0.149-0.364,0.222-0.547c0.076-0.191,0.017-0.452-0.082-0.622
	c-0.105-0.181-0.28-0.317-0.483-0.372c-0.069-0.019-0.14-0.028-0.211-0.028c-0.143,0-0.286,0.038-0.411,0.11
	c-0.078,0.046-0.131,0.105-0.183,0.166c-0.099,0.013-0.198,0.026-0.286,0.078c-0.126,0.055-0.252,0.109-0.378,0.162
	c0.059-0.025,0.118-0.05,0.177-0.074c-0.852,0.359-1.69,0.738-2.517,1.146c-0.004-0.511-0.007-1.022-0.014-1.533
	c-0.004-0.402-0.034-0.805-0.036-1.209c-0.004-0.458,0.019-0.917,0.05-1.373C16.927,2.37,16.506,2,16.086,2
	c-0.462,0-0.788,0.37-0.812,0.812C15.226,3.659,15.268,4.51,15.3,5.359c0.024,0.57,0.024,1.143,0.028,1.715
	c-0.193-0.117-0.388-0.231-0.581-0.349c-0.337-0.207-0.694-0.368-1.058-0.517c-0.39-0.179-0.764-0.405-1.184-0.503
	c-0.086-0.02-0.2-0.036-0.299-0.036c-0.015,0-0.03,0-0.044,0.001c-0.181,0.011-0.307,0.063-0.469,0.139
	c-0.132,0.063-0.261,0.223-0.34,0.339c-0.076,0.111-0.126,0.24-0.166,0.368c-0.038,0.121-0.049,0.245-0.049,0.369
	c-0.199,0.012-0.399,0.018-0.598,0.037c-0.435,0.042-0.866,0.092-1.293,0.181c-0.813,0.172-1.64,0.422-2.3,0.946
	c-0.633,0.504-0.963,1.322-1.192,2.075c-0.235,0.769-0.315,1.591-0.397,2.388c-0.084,0.811-0.082,1.642-0.042,2.455
	c0.04,0.826,0.158,1.654,0.311,2.466c0.072,0.38,0.151,0.759,0.246,1.135c0.101,0.395,0.231,0.778,0.364,1.163
	c0.128,0.364,0.254,0.729,0.383,1.093c0.126,0.357,0.238,0.719,0.366,1.076c0.189,0.519,0.46,1.007,0.717,1.493
	c0.216,0.413,0.427,0.827,0.617,1.252c0.199,0.476,0.389,0.953,0.579,1.431c0.196,0.496,0.336,1.007,0.494,1.516
	c0.093,0.299,0.181,0.62,0.339,0.893c0.149,0.256,0.319,0.505,0.532,0.711c0.246,0.235,0.612,0.42,0.933,0.525
	c0.164,0.055,0.332,0.094,0.501,0.124c0.018,0.005,0.034,0.023,0.053,0.026c0.683,0.105,1.383,0.149,2.073,0.118
	c0.399-0.019,0.799-0.052,1.192-0.12c0.347-0.061,0.683-0.176,1.007-0.307c0.343-0.137,0.685-0.278,1.017-0.439
	c0.322-0.155,0.612-0.362,0.896-0.576c0.66-0.498,1.272-1.036,1.848-1.625c0.359-0.366,0.723-0.727,1.078-1.097
	c0.357-0.373,0.662-0.795,0.974-1.206c0.201-0.253,0.414-0.5,0.613-0.754c0.258-0.328,0.502-0.668,0.729-1.017
	c0.414-0.631,0.814-1.27,1.163-1.94c0.328-0.625,0.648-1.263,0.936-1.909c0.166-0.372,0.361-0.729,0.509-1.11
	c0.137-0.351,0.231-0.708,0.324-1.074c0.183-0.713,0.313-1.44,0.435-2.165c0.073-0.422,0.134-0.841,0.155-1.268
	C26.722,13.042,26.701,12.706,26.667,12.367z M12.673,7.104c0.001-0.001,0.002-0.001,0.002-0.002l0,0.001
	C12.674,7.103,12.673,7.104,12.673,7.104L12.673,7.104z M12.76,10.825c0.183-0.164,0.37-0.324,0.559-0.483
	c0.174-0.149,0.36-0.313,0.475-0.515c0.317-0.566-0.063-1.097-0.353-1.566c-0.116-0.187-0.23-0.376-0.338-0.568
	c0.046,0.018,0.092,0.036,0.137,0.055c0.358,0.169,0.689,0.373,1.028,0.576c0.174,0.105,0.345,0.216,0.519,0.32
	c0.311,0.189,0.647,0.296,0.999,0.368c0.221,0.046,0.435,0.034,0.635-0.082c0.05-0.03,0.087-0.076,0.13-0.116
	c0.091-0.015,0.181-0.04,0.264-0.088c0.744-0.424,1.507-0.813,2.281-1.179c-0.013,0.035-0.027,0.07-0.04,0.105
	c-0.172,0.473-0.349,0.954-0.465,1.444c-0.081,0.337,0.062,0.676,0.343,0.854c0.04,0.124,0.099,0.237,0.193,0.331
	c0.116,0.145,0.305,0.244,0.46,0.351c0.065,0.044,0.129,0.089,0.192,0.135c-0.452,0.006-0.906-0.044-1.358-0.046
	c-0.277-0.002-0.513,0.155-0.656,0.375c-0.064,0.036-0.13,0.07-0.182,0.127c-0.296,0.324-0.565,0.681-0.839,1.024
	c-0.153,0.192-0.295,0.39-0.434,0.59c-0.38-0.471-0.79-0.921-1.17-1.389c-0.109-0.132-0.217-0.229-0.355-0.334
	c-0.187-0.139-0.393-0.183-0.62-0.204c-0.094-0.008-0.2,0.017-0.294,0.029c-0.103,0.013-0.208,0.027-0.311,0.038
	c-0.246,0.025-0.492,0.05-0.74,0.053c-0.096,0.001-0.192-0.002-0.288-0.006C12.609,10.959,12.685,10.892,12.76,10.825z
	 M14.074,12.477c-0.005-0.002-0.009-0.004-0.014-0.006l0,0C14.065,12.473,14.07,12.475,14.074,12.477z M25.116,13.76
	c-0.102,0.646-0.245,1.289-0.389,1.926c-0.151,0.668-0.323,1.33-0.574,1.969c-0.195,0.423-0.4,0.844-0.609,1.26
	c-0.25,0.498-0.496,0.997-0.769,1.484c-0.523,0.935-1.085,1.865-1.736,2.718c0.042-0.052,0.082-0.105,0.124-0.158
	c-0.319,0.41-0.637,0.822-0.953,1.236c-0.421,0.536-0.887,1.04-1.353,1.539c-0.504,0.543-1.031,1.061-1.609,1.524
	c-0.181,0.133-0.364,0.262-0.554,0.383c-0.208,0.134-0.438,0.237-0.664,0.338c-0.456,0.183-0.923,0.338-1.408,0.423
	c-0.719,0.073-1.454,0.057-2.171-0.025c-0.092-0.014-0.183-0.028-0.275-0.044c-0.017-0.003-0.032,0-0.049-0.003
	c-0.169-0.038-0.339-0.069-0.501-0.127c-0.095-0.045-0.188-0.094-0.277-0.15c-0.031-0.029-0.06-0.059-0.089-0.091
	c-0.072-0.107-0.136-0.219-0.196-0.335c-0.171-0.458-0.261-0.947-0.42-1.409c-0.196-0.568-0.416-1.135-0.65-1.688
	c-0.223-0.521-0.446-1.039-0.7-1.545c-0.256-0.509-0.554-0.994-0.805-1.505c-0.16-0.41-0.298-0.831-0.446-1.245
	c-0.17-0.479-0.341-0.958-0.509-1.438c-0.316-0.906-0.48-1.86-0.612-2.809c-0.152-1.274-0.169-2.578-0.017-3.854
	c0.098-0.675,0.213-1.34,0.458-1.98C7.465,9.929,7.58,9.713,7.719,9.508c0.074-0.087,0.153-0.169,0.239-0.245
	C8.122,9.148,8.296,9.05,8.478,8.963c0.565-0.219,1.17-0.366,1.768-0.456c0.458-0.058,0.916-0.075,1.379-0.076
	c0.023,0,0.043-0.012,0.066-0.014c0.155,0.278,0.315,0.553,0.466,0.833c-0.081,0.072-0.164,0.142-0.243,0.214
	c-0.227,0.208-0.454,0.416-0.683,0.622c-0.223,0.2-0.416,0.429-0.597,0.667c-0.092,0.12-0.181,0.254-0.217,0.404
	c-0.084,0.349,0.002,0.664,0.244,0.925c0.217,0.235,0.608,0.324,0.917,0.38c0.326,0.059,0.66,0.086,0.99,0.088
	c0.298,0.002,0.593-0.021,0.889-0.044c0.173-0.014,0.356-0.037,0.536-0.037c0.066,0.07,0.127,0.144,0.189,0.217
	c0.111,0.13,0.223,0.258,0.334,0.387c0.174,0.209,0.352,0.416,0.52,0.628c0.185,0.246,0.364,0.495,0.506,0.768
	c0.15,0.288,0.482,0.423,0.791,0.385c0.328,0.059,0.67-0.084,0.852-0.381c0.325-0.53,0.653-1.056,1.023-1.556
	c0.16-0.196,0.329-0.385,0.496-0.575c0.008-0.009,0.011-0.021,0.019-0.03c0.113,0.001,0.226,0.001,0.338,0.003
	c0.277,0.004,0.553,0.008,0.832,0.002c0.252-0.004,0.5-0.004,0.751,0.01c0.28,0.015,0.549,0.029,0.83-0.034
	c0.231-0.053,0.502-0.244,0.599-0.467c0.046-0.069,0.074-0.141,0.084-0.221c0.038-0.137,0.038-0.277,0-0.414
	c-0.019-0.128-0.08-0.246-0.145-0.357c-0.092-0.158-0.238-0.301-0.364-0.437c-0.088-0.093-0.183-0.185-0.275-0.275
	c-0.154-0.154-0.313-0.299-0.479-0.441c-0.158-0.135-0.331-0.259-0.479-0.406c-0.046-0.085-0.125-0.135-0.196-0.193
	c0.076-0.247,0.16-0.492,0.253-0.734c0.113,0.01,0.226,0.022,0.339,0.038c0.337,0.048,0.672,0.097,1.009,0.132
	c0.3,0.031,0.602,0.047,0.901,0.078c0.267,0.043,0.521,0.108,0.773,0.205c0.148,0.071,0.281,0.158,0.413,0.255
	c0.119,0.1,0.225,0.21,0.324,0.331c0.166,0.225,0.318,0.458,0.439,0.713c0.19,0.505,0.33,1.023,0.416,1.556
	c0.039,0.342,0.063,0.687,0.082,1.031C25.183,13.047,25.158,13.403,25.116,13.76z M14.949,25.807c0,0.36-0.301,0.662-0.662,0.662
	c-0.361,0-0.662-0.302-0.662-0.662c0-0.361,0.301-0.662,0.662-0.662C14.647,25.145,14.949,25.447,14.949,25.807z M12.675,23.704
	c0,0.339-0.284,0.624-0.624,0.624c-0.339,0-0.624-0.284-0.624-0.624s0.284-0.624,0.624-0.624
	C12.391,23.08,12.675,23.364,12.675,23.704z M16.894,23.599c0,0.38-0.319,0.698-0.698,0.698c-0.38,0-0.698-0.319-0.698-0.698
	s0.319-0.698,0.698-0.698C16.575,22.901,16.894,23.22,16.894,23.599z M14.033,22.297c-0.317,0-0.58-0.263-0.58-0.58
	c0-0.317,0.263-0.58,0.58-0.58c0.317,0,0.58,0.263,0.58,0.58C14.613,22.034,14.35,22.297,14.033,22.297z M11.719,20.682
	c-0.315,0-0.578-0.263-0.578-0.578c0-0.315,0.263-0.578,0.578-0.578c0.315,0,0.578,0.263,0.578,0.578
	C12.297,20.419,12.034,20.682,11.719,20.682z M15.466,20.05c0-0.341,0.286-0.627,0.628-0.627s0.628,0.286,0.628,0.627
	c0,0.341-0.286,0.627-0.628,0.627S15.466,20.391,15.466,20.05z M13.306,18.135c0-0.3,0.252-0.551,0.551-0.551
	s0.551,0.252,0.551,0.551c0,0.299-0.252,0.551-0.551,0.551S13.306,18.435,13.306,18.135z M11.386,16.152
	c0-0.349,0.292-0.641,0.641-0.641c0.349,0,0.641,0.292,0.641,0.641s-0.292,0.641-0.641,0.641
	C11.678,16.792,11.386,16.501,11.386,16.152z M15.438,16.064c0-0.322,0.269-0.591,0.591-0.591s0.591,0.269,0.591,0.591
	s-0.269,0.591-0.591,0.591S15.438,16.387,15.438,16.064z M10.469,18.175c0,0.33-0.275,0.605-0.605,0.605
	c-0.33,0-0.605-0.275-0.605-0.605c0-0.33,0.275-0.605,0.605-0.605C10.194,17.571,10.469,17.845,10.469,18.175z M17.812,18.659
	c-0.319,0-0.586-0.267-0.586-0.585c0-0.319,0.267-0.586,0.586-0.586c0.318,0,0.586,0.267,0.586,0.586
	C18.397,18.392,18.13,18.659,17.812,18.659z M18.629,21.79c0,0.328-0.275,0.603-0.603,0.603s-0.603-0.275-0.603-0.603
	s0.275-0.603,0.603-0.603S18.629,21.461,18.629,21.79z M20.865,20.082c0,0.351-0.294,0.645-0.645,0.645
	c-0.351,0-0.645-0.294-0.645-0.645c0-0.351,0.294-0.645,0.645-0.645C20.571,19.437,20.865,19.731,20.865,20.082z M19.651,16.404
	c-0.305,0-0.561-0.256-0.561-0.561s0.256-0.561,0.561-0.561s0.561,0.255,0.561,0.561S19.957,16.404,19.651,16.404z M22.49,18.238
	c0,0.343-0.286,0.629-0.629,0.629s-0.629-0.286-0.629-0.629c0-0.343,0.286-0.629,0.629-0.629S22.49,17.894,22.49,18.238z
	 M21.224,13.983c0-0.296,0.246-0.542,0.542-0.542s0.542,0.246,0.542,0.542s-0.246,0.542-0.542,0.542S21.224,14.279,21.224,13.983z
	 M10.575,13.802c0,0.361-0.301,0.662-0.662,0.662c-0.36,0-0.662-0.301-0.662-0.662c0-0.36,0.301-0.662,0.662-0.662
	C10.273,13.14,10.575,13.441,10.575,13.802z M8.929,15.952c0,0.301-0.252,0.553-0.553,0.553c-0.301,0-0.553-0.252-0.553-0.553
	c0-0.301,0.252-0.553,0.553-0.553C8.677,15.399,8.929,15.651,8.929,15.952z"/>
</svg>