<?xml version="1.0" encoding="utf-8"?>
<!-- Generator: Adobe Illustrator 21.1.0, SVG Export Plug-In . SVG Version: 6.00 Build 0)  -->
<svg version="1.1" id="designs" xmlns="http://www.w3.org/2000/svg" xmlns:xlink="http://www.w3.org/1999/xlink" x="0px" y="0px"
	 width="32px" height="32px" viewBox="0 0 32 32" style="enable-background:new 0 0 32 32;" xml:space="preserve">
<style type="text/css">
	.sketchy_een{fill:#111918;}
</style>
<path class="sketchy_een" d="M28.118,11.197c0,0-0.213-0.537-0.296-0.756c-0.136-0.359-0.272-0.718-0.428-1.069l-0.076-0.17
	c-0.243-0.55-0.487-1.1-0.724-1.653l-0.072-0.174c-0.112-0.269-0.225-0.539-0.344-0.805L25.8,5.734
	c-0.149-0.364-0.304-0.724-0.459-1.083c-0.206-0.516-0.36-1.039-0.526-1.62c-0.079-0.276-0.295-0.489-0.554-0.555
	c-0.123-0.149-0.28-0.25-0.42-0.269c-0.291-0.04-0.582-0.048-0.874-0.054l-0.218-0.005c-0.306-0.009-0.609-0.01-0.913-0.011l-0.26,0
	c-0.76-0.004-1.518-0.013-2.276-0.029c-0.483-0.01-0.965-0.031-1.448-0.051l-0.868-0.035c-0.382-0.012-0.764-0.015-1.145-0.015
	L12.875,2c-0.355,0-0.71,0.001-1.065,0.005c-0.439,0.004-0.877,0.013-1.317,0.021C9.906,2.038,9.318,2.051,8.729,2.051
	c-0.121,0-0.244,0.034-0.459,0.069c-0.073,0-0.146,0.01-0.216,0.03c-0.179,0.049-0.408,0.189-0.49,0.38
	c-0.265,0.608-0.52,1.221-0.775,1.834L6.464,5.145C6.205,5.743,5.939,6.338,5.673,6.933C5.337,7.685,5,8.438,4.678,9.197
	c-0.329,0.775-0.652,1.554-0.973,2.331l-0.087,0.188c-0.104,0.214-0.127,0.393-0.074,0.582c0.025,0.094,0.069,0.183,0.133,0.286
	c0.014,0.052,0.028,0.105,0.061,0.156c0.244,0.37,0.494,0.737,0.746,1.101c0.122,0.178,0.239,0.36,0.357,0.543
	c0.111,0.172,0.223,0.345,0.338,0.515c0.537,0.786,1.109,1.534,1.629,2.202l1.224,1.572c0.446,0.592,0.884,1.189,1.321,1.787
	c0.419,0.572,0.838,1.144,1.264,1.71l0.147,0.196c0.839,1.118,1.707,2.275,2.487,3.466c0.275,0.421,0.556,0.837,0.837,1.255
	l0.331,0.492l0.579,0.882c0.063,0.096,0.13,0.19,0.197,0.284c0.11,0.155,0.22,0.309,0.315,0.474
	c0.033,0.056,0.077,0.098,0.122,0.125c0.026,0.179,0.094,0.326,0.204,0.434C15.98,29.921,16.176,30,16.387,30
	c0.283,0,0.541-0.146,0.672-0.382c0.344-0.616,0.738-1.195,1.041-1.631c0.412-0.588,0.813-1.185,1.202-1.791
	c0.341-0.531,0.705-1.047,1.068-1.563l1.495-2.12c0.213-0.304,0.412-0.618,0.608-0.931c0.199-0.309,0.41-0.609,0.622-0.909
	c0.427-0.6,0.83-1.213,1.231-1.833c0.412-0.633,0.807-1.275,1.198-1.922c0.392-0.651,0.807-1.288,1.223-1.925
	c0.117-0.181,0.23-0.366,0.342-0.55c0.112-0.183,0.223-0.367,0.357-0.575c0.169-0.261,0.339-0.52,0.505-0.783
	c0.161-0.255,0.333-0.511,0.452-0.789c0.046-0.108,0.079-0.221,0.079-0.34C28.482,11.709,28.353,11.454,28.118,11.197z
	 M23.143,6.246c0.14-0.288,0.462-0.914,0.641-1.262c0.115,0.256,0.236,0.509,0.359,0.761l0.08,0.165
	c0.103,0.213,0.198,0.431,0.293,0.649l0.168,0.385c0.161,0.351,0.319,0.703,0.469,1.058l0.511,1.195
	c0.098,0.231,0.201,0.46,0.304,0.689l0.243,0.548l0.273,0.695l-1.124,0.014l-0.985,0.022c-0.447,0.011-0.893,0.023-1.341,0.027
	c-0.535,0.006-1.07,0.019-1.606,0.032l-0.419,0.004c0.098-0.268,0.66-1.618,0.81-1.998c0.131-0.334,0.264-0.668,0.4-0.999
	C22.51,7.559,22.822,6.902,23.143,6.246z M17.796,3.646c0.975,0.04,1.949,0.08,2.927,0.088c0,0,0.883,0.002,0.955,0.002
	c0.31,0,0.616-0.004,0.892-0.05c-0.317,0.662-0.597,1.343-0.875,2.023l-0.335,0.812c-0.24,0.568-0.472,1.14-0.703,1.712
	c-0.186,0.458-0.371,0.916-0.561,1.373l-0.32,0.754c-0.065-0.173-0.132-0.347-0.203-0.519c-0.178-0.428-0.36-0.854-0.557-1.276
	c-0.333-0.723-0.654-1.452-0.973-2.182l-0.546-1.344c-0.106-0.252-0.211-0.503-0.303-0.761c-0.065-0.184-0.151-0.457-0.211-0.65
	C17.163,3.63,17.648,3.64,17.796,3.646z M15.785,4.903c0.084,0.185,0.169,0.369,0.259,0.554c0.235,0.487,0.457,0.981,0.669,1.48
	c0,0,0.473,1.12,0.599,1.409l0.602,1.358c0.133,0.326,0.265,0.656,0.387,0.987l0.21,0.556c0,0-3.507-0.022-5.091-0.03l-0.701-0.013
	l0.05-0.114c0.188-0.431,0.376-0.863,0.572-1.289c0.2-0.437,0.408-0.871,0.616-1.304l0.519-1.091
	c0.254-0.543,0.51-1.085,0.798-1.611C15.44,5.493,15.612,5.198,15.785,4.903z M10.034,3.652c0.354-0.018,0.708-0.035,1.063-0.046
	c0.734-0.021,1.47-0.021,2.207-0.021l1.382,0.004c-0.257,0.503-0.475,0.934-0.73,1.44c-0.227,0.452-0.44,0.911-0.653,1.371L13.022,7
	c0,0-0.811,1.698-0.977,2.053c-0.116,0.245-0.305,0.673-0.423,0.938c-0.2-0.485-0.395-0.974-0.58-1.465l-0.197-0.516
	c-0.16-0.419-0.32-0.838-0.474-1.259C10.027,5.804,9.76,4.819,9.502,3.865l-0.055-0.19L10.034,3.652z M6.151,9.463
	C6.539,8.55,6.962,7.654,7.386,6.758l0.118-0.25c0.233-0.497,0.461-0.995,0.702-1.532l0.198,0.621
	C8.609,6.211,8.84,6.813,9.071,7.415l0.09,0.234c0.258,0.674,0.5,1.354,0.739,2.033c0.187,0.529,0.401,1.046,0.608,1.491
	c-0.537-0.009-1.075-0.019-1.612-0.019l-0.452,0.002c-0.594,0.003-1.189,0.007-1.783,0.022c-0.168,0.005-0.337,0.007-0.504,0.007
	l-0.706-0.003C5.689,10.582,5.904,10.058,6.151,9.463z M6.835,17.125l0.031-0.024l0.004,0.001L6.835,17.125z M14.154,24.615
	c-0.408-0.604-0.832-1.196-1.257-1.789c-0.214-0.296-0.433-0.589-0.651-0.882c-0.246-0.33-0.492-0.659-0.732-0.994l-0.277-0.384
	c-0.344-0.478-0.689-0.956-1.027-1.439c-0.43-0.612-0.865-1.221-1.321-1.813c-0.256-0.334-0.508-0.671-0.759-1.008l-0.598-0.798
	c-0.193-0.254-0.374-0.518-0.555-0.782l-0.114-0.166c-0.216-0.314-0.43-0.631-0.631-0.956c-0.16-0.258-0.292-0.484-0.446-0.746
	c0,0,0.473-0.037,0.663-0.052c0.207-0.017,0.414-0.034,0.621-0.044c0.467-0.024,0.937-0.036,1.407-0.036
	c0.334,0,0.669,0.006,1.002,0.017c0.35,0.013,0.7,0.021,1.041,0.021c0.258,0,0.512-0.005,0.757-0.017
	c0.141,0.592,0.293,1.18,0.449,1.769c0.17,0.641,0.371,1.385,0.614,2.112c0.203,0.614,0.377,1.235,0.55,1.857l0.067,0.24
	c0.113,0.402,0.215,0.808,0.317,1.213c0.072,0.289,0.145,0.579,0.221,0.866c0.184,0.695,0.348,1.393,0.507,2.094
	c0.1,0.438,0.219,0.873,0.34,1.307c0.056,0.204,0.243,0.913,0.303,1.141L14.154,24.615z M17.644,20.416
	c-0.118,0.434-0.214,0.869-0.311,1.307l-0.127,0.562c-0.133,0.576-0.278,1.147-0.424,1.72l-0.064,0.252
	c-0.151,0.597-0.301,1.195-0.439,1.795c-0.095-0.365-0.184-0.732-0.274-1.099l-0.314-1.257c-0.15-0.589-0.301-1.178-0.422-1.774
	c-0.105-0.505-0.23-1.006-0.356-1.506l-0.162-0.652c-0.125-0.514-0.273-1.021-0.421-1.528L14.148,17.6
	c-0.065-0.234-0.131-0.468-0.207-0.696L13.597,15.9c-0.207-0.612-0.344-1.262-0.489-1.948c-0.067-0.321-0.126-0.643-0.184-0.966
	l-0.033-0.181l3.221,0.019c0.78,0.006,1.56,0.011,2.34,0.011l0.847-0.002c-0.107,0.441-0.185,0.82-0.273,1.262
	c-0.082,0.398-0.159,0.798-0.235,1.198l-0.18,0.922c-0.146,0.733-0.295,1.465-0.454,2.196c-0.114,0.525-0.254,1.043-0.395,1.561
	L17.644,20.416z M25.701,13.789c-0.217,0.378-0.456,0.742-0.695,1.107c-0.163,0.248-0.326,0.497-0.483,0.749
	c-0.15,0.243-0.297,0.488-0.443,0.734c-0.238,0.397-0.476,0.794-0.727,1.183l-0.345,0.542c-0.294,0.463-0.588,0.926-0.896,1.38
	l-0.655,0.956c-0.165,0.242-0.322,0.49-0.479,0.739l-0.12,0.19c-0.249,0.386-0.512,0.763-0.775,1.14
	c-0.157,0.225-0.853,1.239-1.049,1.519c-0.227,0.326-0.453,0.652-0.676,0.982l-0.595,0.911c0.065-0.269,0.362-1.447,0.439-1.768
	c0.176-0.724,0.337-1.447,0.479-2.176c0.113-0.574,0.262-1.137,0.411-1.701l0.118-0.447c0.11-0.421,0.202-0.848,0.294-1.274
	l0.526-2.374c0.145-0.656,0.301-1.307,0.476-1.953c0.134-0.488,0.274-0.976,0.382-1.423c0.651-0.014,1.301-0.026,1.952-0.026
	c0.333,0,0.665,0.003,0.997,0.011c0.352,0.009,0.705,0.016,1.054,0.016c0.476,0,0.945-0.013,1.401-0.054L25.701,13.789z"/>
</svg>