<?xml version="1.0" encoding="utf-8"?>
<!-- Generator: Adobe Illustrator 21.1.0, SVG Export Plug-In . SVG Version: 6.00 Build 0)  -->
<svg version="1.1" id="designs" xmlns="http://www.w3.org/2000/svg" xmlns:xlink="http://www.w3.org/1999/xlink" x="0px" y="0px"
	 width="32px" height="32px" viewBox="0 0 32 32" style="enable-background:new 0 0 32 32;" xml:space="preserve">
<style type="text/css">
	.sketchy_een{fill:#111918;}
</style>
<path class="sketchy_een" d="M27.977,13.855c-0.116-0.814-0.211-1.638-0.382-2.443c-0.169-0.797-0.399-1.586-0.649-2.362
	c-0.285-0.888-0.83-1.627-1.394-2.354c-0.112-0.145-0.225-0.293-0.345-0.433c-0.14-0.159-0.297-0.304-0.45-0.452
	c-0.289-0.271-0.582-0.543-0.865-0.82c-0.304-0.297-0.638-0.554-0.979-0.805c-0.324-0.238-0.651-0.479-0.997-0.686
	c-0.384-0.233-0.774-0.45-1.187-0.626c-0.421-0.179-0.847-0.318-1.291-0.429C19.043,2.35,18.644,2.28,18.24,2.218
	c-0.469-0.072-0.938-0.141-1.41-0.194C16.677,2.006,16.52,2,16.363,2c-0.198,0-0.396,0.01-0.59,0.018
	c-0.361,0.016-0.721,0.033-1.08,0.082c-0.853,0.113-1.706,0.223-2.538,0.45c-0.384,0.103-0.752,0.275-1.119,0.425
	c-0.417,0.171-0.828,0.351-1.222,0.57C9.069,3.957,8.352,4.456,7.71,5.014C7.057,5.58,6.516,6.263,6.033,6.978
	C5.519,7.74,5.093,8.543,4.751,9.396c-0.157,0.394-0.285,0.799-0.405,1.206c-0.111,0.382-0.209,0.774-0.271,1.167
	c-0.138,0.888-0.238,1.782-0.262,2.683c-0.019,0.725-0.008,1.452,0.004,2.18c0.014,0.781,0.037,1.563,0.056,2.344
	c0.012,0.413,0.016,0.826,0.033,1.239c0.017,0.38,0.05,0.758,0.066,1.138c0.019,0.549,0.041,1.097,0.062,1.646
	c0.023,0.597,0.072,1.194,0.116,1.79c0.043,0.57,0.085,1.136,0.101,1.706c0.017,0.671,0.008,1.346,0.004,2.018
	c0,0.091,0.025,0.176,0.053,0.26c-0.038,0.098-0.064,0.202-0.064,0.315c0,0.469,0.405,0.913,0.89,0.89
	c1.033-0.047,2.067-0.062,3.1-0.072c0.997-0.008,1.987-0.081,2.98-0.126c0.234-0.011,0.447-0.104,0.604-0.254
	c0.029,0.003,0.055,0.017,0.084,0.017c0.428,0,0.803-0.36,0.795-0.793c-0.016-0.876-0.052-1.751-0.107-2.625
	c-0.054-0.857-0.095-1.714-0.157-2.571c-0.118-1.627-0.153-3.258-0.149-4.888c0.002-0.642,0.041-1.276,0.117-1.912
	c0.078-0.527,0.177-1.05,0.316-1.567c0.145-0.545,0.335-1.081,0.549-1.604c0.093-0.208,0.192-0.411,0.317-0.602
	c0.183-0.206,0.392-0.387,0.606-0.561c0.254-0.178,0.538-0.318,0.821-0.445c0.291-0.109,0.595-0.182,0.902-0.232
	c0.083-0.008,0.165-0.011,0.248-0.008c0.105,0.023,0.208,0.051,0.31,0.086c0.186,0.088,0.371,0.181,0.553,0.278
	c0.15,0.081,0.301,0.162,0.442,0.257c0.267,0.237,0.501,0.505,0.726,0.78c0.202,0.277,0.381,0.562,0.526,0.873
	c0.141,0.382,0.264,0.777,0.339,1.177c0.076,0.4,0.141,0.8,0.2,1.202c0.1,0.814,0.187,1.63,0.254,2.447
	c0.068,0.822,0.078,1.644,0.097,2.468c0.01,0.425,0.033,0.849,0.043,1.272c0.008,0.399,0.008,0.797,0.019,1.194
	c0.025,0.824,0.081,1.648,0.093,2.472c0.006,0.434,0.004,0.869,0.004,1.303c-0.002,0.359,0.014,0.719-0.031,1.076
	c0,0.013,0.009,0.023,0.009,0.035c-0.133,0.142-0.219,0.328-0.219,0.539c0,0.427,0.365,0.818,0.803,0.803
	c1.163-0.04,2.327-0.105,3.492-0.106c1.076-0.002,2.152-0.002,3.228,0.011c0.067,0.017,0.132,0.042,0.202,0.042
	c0.463,0,0.884-0.396,0.871-0.871c-0.01-0.355-0.006-0.708,0-1.062c0.006-0.401-0.002-0.801-0.006-1.2
	c-0.008-0.876,0-1.751,0.012-2.627c0.012-0.843,0.033-1.689,0.05-2.532c0.019-0.826,0.01-1.65,0.014-2.476
	C28.202,17.4,28.228,15.62,27.977,13.855z M7.005,28.184c-0.354-0.001-0.707,0.006-1.06,0.008c-0.005-0.741-0.014-1.482-0.047-2.221
	c-0.033-0.752-0.099-1.504-0.145-2.257c-0.006-0.095-0.007-0.19-0.011-0.286c0.928-0.008,1.857-0.03,2.783-0.038
	c0.777-0.006,1.554,0.007,2.331,0.009c0.03,0.316,0.052,0.632,0.084,0.947c0.081,0.814,0.12,1.638,0.142,2.456
	c0.011,0.415,0.014,0.832,0.019,1.249c-0.953,0.048-1.909,0.118-2.865,0.129C7.823,28.188,7.414,28.186,7.005,28.184z
	 M19.305,11.822c-0.112-0.134-0.223-0.269-0.341-0.398c-0.165-0.184-0.347-0.337-0.545-0.489c-0.132-0.101-0.283-0.179-0.428-0.26
	c-0.178-0.099-0.355-0.194-0.535-0.287c-0.421-0.216-0.874-0.385-1.349-0.385c-0.074,0-0.148,0.004-0.223,0.013
	c-0.43,0.049-0.869,0.124-1.276,0.273c-0.413,0.149-0.84,0.347-1.21,0.586c-0.206,0.134-0.394,0.299-0.582,0.457
	c-0.157,0.134-0.308,0.272-0.45,0.423c-0.37,0.394-0.572,0.925-0.76,1.419c-0.143,0.376-0.293,0.752-0.405,1.138
	c-0.25,0.845-0.396,1.704-0.498,2.579c-0.099,0.828-0.093,1.652-0.079,2.484c0.012,0.8,0.029,1.601,0.087,2.399
	c-0.72,0.014-1.442,0.014-2.163,0.011c-0.956-0.006-1.914-0.021-2.871-0.021c-0.004-0.091-0.006-0.181-0.011-0.272
	c-0.019-0.39-0.052-0.78-0.074-1.169c-0.021-0.409-0.029-0.818-0.037-1.227c-0.01-0.586-0.027-1.173-0.035-1.761
	c-0.006-0.556,0.004-1.113,0.004-1.671c0-0.535-0.01-1.07,0.008-1.605c0.021-0.549,0.075-1.094,0.143-1.639
	c0.136-0.909,0.385-1.799,0.723-2.653c0.407-0.895,0.911-1.734,1.5-2.522C8.123,6.965,8.36,6.688,8.625,6.443
	c0.255-0.233,0.519-0.455,0.79-0.67c0.347-0.251,0.699-0.494,1.068-0.713c0.358-0.211,0.729-0.388,1.11-0.555
	c0.216-0.091,0.432-0.184,0.653-0.265c0.289-0.105,0.584-0.178,0.882-0.248c0.527-0.119,1.06-0.187,1.594-0.261
	c0.84-0.106,1.702-0.156,2.543-0.045c-0.072-0.01-0.143-0.019-0.213-0.029c0.263,0.036,0.527,0.071,0.791,0.105
	c0.714,0.1,1.408,0.253,2.089,0.494c0.757,0.341,1.453,0.782,2.121,1.277c0.204,0.16,0.404,0.324,0.593,0.503
	c0.236,0.225,0.467,0.454,0.71,0.673c0.229,0.21,0.471,0.411,0.677,0.644c0.2,0.226,0.384,0.467,0.569,0.706
	c0.266,0.357,0.508,0.732,0.698,1.136c0.14,0.374,0.239,0.759,0.35,1.142c0.132,0.45,0.248,0.904,0.357,1.359
	c0.198,0.847,0.309,1.718,0.431,2.581c0.21,1.676,0.18,3.374,0.176,5.058c-0.002,0.682-0.017,1.364-0.033,2.046
	c-0.056,0.008-0.113,0.01-0.169,0.018c-0.765,0.091-1.539,0.112-2.308,0.114c-0.93,0.002-1.86,0.008-2.79,0.031
	c-0.026-0.769-0.036-1.541-0.101-2.307c-0.072-0.826-0.167-1.648-0.246-2.472c-0.045-0.452-0.105-0.902-0.175-1.349
	c-0.062-0.411-0.124-0.82-0.24-1.22c-0.126-0.432-0.264-0.882-0.485-1.278C19.848,12.528,19.592,12.166,19.305,11.822z
	 M23.82,28.352c-0.793,0.013-1.584,0.02-2.375,0.029c0.045-0.572,0.017-1.152,0.016-1.723c-0.002-0.818-0.039-1.635-0.079-2.453
	c-0.018-0.346-0.024-0.692-0.03-1.039c0.964-0.038,1.929-0.088,2.893-0.107c0.235-0.004,0.471,0,0.706,0.004
	c0.248,0.002,0.496,0.006,0.747,0c0.198-0.004,0.395-0.012,0.593-0.029c0.085-0.007,0.17-0.016,0.255-0.027
	c-0.012,0.474-0.026,0.948-0.034,1.422c-0.023,1.299-0.066,2.599-0.111,3.898c-0.317,0.006-0.634,0.008-0.95,0.012
	C24.906,28.342,24.363,28.342,23.82,28.352z"/>
</svg>