<?xml version="1.0" encoding="utf-8"?>
<!-- Generator: Adobe Illustrator 21.1.0, SVG Export Plug-In . SVG Version: 6.00 Build 0)  -->
<svg version="1.1" id="designs" xmlns="http://www.w3.org/2000/svg" xmlns:xlink="http://www.w3.org/1999/xlink" x="0px" y="0px"
	 width="32px" height="32px" viewBox="0 0 32 32" style="enable-background:new 0 0 32 32;" xml:space="preserve">
<style type="text/css">
	.sketchy_een{fill:#111918;}
</style>
<path class="sketchy_een" d="M11.373,17.968c0.027-0.48,0.051-0.96,0.086-1.438c0.034-0.474,0.067-0.949,0.09-1.423
	c0.023-0.486,0.055-0.972,0.08-1.459c0.025-0.537,0.019-1.075,0.021-1.612c0.002-0.419,0.349-0.77,0.77-0.77
	c0.415,0,0.775,0.351,0.77,0.77c-0.013,1.033-0.07,2.061-0.088,3.094c-0.017,0.947-0.074,1.892-0.107,2.839
	c-0.015,0.442-0.358,0.812-0.812,0.812C11.76,18.78,11.346,18.41,11.373,17.968z M29.962,18.963c-0.042,0.282-0.126,0.537-0.232,0.8
	c-0.099,0.252-0.208,0.493-0.351,0.724c-0.25,0.404-0.558,0.777-0.861,1.141c-0.238,0.284-0.482,0.562-0.734,0.834
	c-0.311,0.335-0.711,0.585-1.122,0.779c-0.423,0.198-0.863,0.37-1.322,0.465c-0.459,0.093-0.918,0.149-1.385,0.12
	c-0.288-0.017-0.573-0.048-0.857-0.093c-0.153-0.026-0.304-0.064-0.456-0.096c-0.06,0.077-0.121,0.153-0.18,0.229
	c-0.501,0.648-1.027,1.288-1.608,1.865c-0.634,0.634-1.372,1.164-2.132,1.64c-0.762,0.476-1.574,0.888-2.433,1.162
	c-0.45,0.143-0.93,0.221-1.4,0.238c-0.469,0.019-0.96-0.065-1.421-0.145c-0.836-0.147-1.618-0.421-2.393-0.764
	c-0.8-0.354-1.505-0.865-2.107-1.501c-0.625-0.663-1.12-1.412-1.478-2.25c-0.187-0.434-0.366-0.873-0.518-1.322
	c-0.123-0.362-0.207-0.734-0.286-1.107c-0.133,0.002-0.266,0.007-0.398,0.008c-0.375,0-0.754,0.008-1.128-0.03
	c-0.408-0.042-0.819-0.097-1.212-0.221c-0.087-0.028-0.161-0.081-0.244-0.117c-0.219,0.023-0.445-0.039-0.619-0.198
	c-0.383-0.351-0.734-0.796-0.886-1.297c-0.131-0.429-0.128-0.873-0.126-1.315c0.002-0.749,0.006-1.498,0.017-2.246
	c0.011-0.754,0.006-1.509,0.008-2.263c0.004-0.785,0.017-1.568,0.015-2.353C2.107,10.067,2.088,8.483,2.08,6.9
	C2.007,6.733,1.979,6.543,2.021,6.352c0.105-0.474,0.219-0.953,0.44-1.389c0.238-0.467,0.619-0.84,1.076-1.096
	C4.358,3.412,5.334,3.288,6.26,3.254c0.552-0.021,1.105-0.03,1.658-0.03c1.087,0,2.175,0.037,3.261,0.099
	c0.848,0.048,1.74,0.051,2.513,0.446c0.28,0.145,0.543,0.364,0.711,0.633c0.026,0.042,0.047,0.087,0.071,0.13
	c0.174,0.053,0.348,0.105,0.527,0.139c0.285,0.029,0.57,0.037,0.856,0.055c0.267,0.017,0.535,0.004,0.802,0.027
	C16.832,4.767,17,4.786,17.162,4.851c0.231,0.09,0.391,0.192,0.583,0.347c0.168,0.135,0.311,0.316,0.427,0.495
	c0.231,0.351,0.377,0.749,0.488,1.151c0.194,0.707,0.19,1.475,0.189,2.201c0,0.381-0.019,0.762-0.03,1.143
	c-0.011,0.354-0.013,0.709-0.029,1.065c-0.03,0.791-0.072,1.581-0.088,2.374c-0.015,0.806-0.019,1.614-0.07,2.418
	c-0.025,0.383-0.057,0.766-0.088,1.149c-0.032,0.417-0.042,0.854-0.126,1.267c-0.048,0.231-0.133,0.446-0.234,0.657
	c-0.031,0.067-0.059,0.135-0.097,0.198c-0.126,0.206-0.271,0.362-0.463,0.503c-0.379,0.282-0.84,0.344-1.293,0.403
	c-0.384,0.06-0.767,0.129-1.155,0.168c-0.007,0.001-0.014-0.004-0.021-0.004c-0.185,0.305-0.44,0.558-0.763,0.723
	c-0.043,0.022-0.089,0.027-0.134,0.041c-0.198,0.153-0.41,0.285-0.653,0.348c-0.208,0.055-0.427,0.078-0.638,0.105
	c-0.345,0.046-0.692,0.046-1.038,0.04c-1.193-0.017-2.384-0.019-3.576,0.008c0.032,0.153,0.066,0.306,0.11,0.456
	c0.098,0.335,0.222,0.661,0.355,0.985c0.253,0.571,0.55,1.115,0.915,1.624c0.305,0.368,0.638,0.721,1.001,1.028
	c0.354,0.259,0.725,0.48,1.124,0.662c0.34,0.137,0.683,0.263,1.037,0.362c0.37,0.105,0.741,0.181,1.118,0.24
	c0.371,0.043,0.739,0.067,1.111,0.038c0.424-0.078,0.828-0.206,1.228-0.365c0.785-0.341,1.515-0.763,2.203-1.273
	c0.571-0.463,1.08-0.985,1.577-1.527c0.428-0.465,0.865-0.93,1.268-1.417c-0.042-0.152-0.089-0.303-0.121-0.458
	c-0.061-0.29-0.112-0.581-0.141-0.875c-0.027-0.255-0.048-0.511-0.059-0.768c-0.013-0.225-0.025-0.452,0.002-0.676
	c0.034-0.28,0.08-0.551,0.171-0.819c0.084-0.246,0.177-0.488,0.284-0.726c0.164-0.366,0.341-0.716,0.566-1.05
	c0.255-0.375,0.532-0.753,0.861-1.065c0.351-0.333,0.739-0.625,1.16-0.865c0.232-0.131,0.471-0.252,0.722-0.349
	c0.097-0.036,0.194-0.082,0.295-0.107c0.221-0.057,0.442-0.086,0.669-0.112c0.089-0.011,0.179-0.016,0.27-0.016
	c0.534,0,1.095,0.17,1.57,0.385c0.434,0.196,0.819,0.488,1.174,0.806c0.156,0.137,0.311,0.278,0.45,0.432
	c0.126,0.139,0.248,0.29,0.33,0.457c0.091,0.185,0.191,0.377,0.238,0.577C29.974,17.801,30.048,18.388,29.962,18.963z
	 M13.242,20.027L13.242,20.027c-0.002,0-0.003,0-0.005,0.001C13.239,20.027,13.241,20.027,13.242,20.027z M13.292,20.021
	c-0.013,0.001-0.025,0.003-0.037,0.004l0,0C13.267,20.024,13.28,20.023,13.292,20.021z M7.272,20.206
	c0.711-0.023,1.421-0.046,2.132-0.059c0.678-0.011,1.357-0.019,2.035-0.032c0.569-0.012,1.137-0.015,1.704-0.076
	c0.046-0.009,0.091-0.019,0.135-0.032c0.034-0.02,0.066-0.04,0.098-0.061c0.043-0.039,0.084-0.078,0.126-0.121
	c0.076-0.078,0.167-0.132,0.265-0.168l0,0c0.022-0.034,0.042-0.069,0.061-0.105c0.049-0.141,0.085-0.284,0.111-0.431
	c0-0.005,0.001-0.01,0.001-0.014c0.078-0.726,0.074-1.458,0.099-2.185c0.015-0.385,0.04-0.768,0.048-1.153
	c0.01-0.385,0.013-0.77,0.021-1.156c0.038-1.654-0.002-3.308-0.01-4.961c-0.002-0.434,0.364-0.796,0.796-0.796
	c0.434,0,0.8,0.362,0.798,0.796c-0.004,0.541-0.013,1.082-0.017,1.623c-0.008,0.81-0.002,1.621-0.008,2.431
	c-0.008,0.774,0.011,1.547-0.013,2.321c-0.025,0.749-0.04,1.497-0.07,2.246c-0.005,0.136-0.024,0.269-0.032,0.403
	c0.054-0.004,0.109-0.004,0.163-0.009c0.208-0.029,0.416-0.058,0.625-0.083c0.11-0.02,0.218-0.047,0.324-0.084
	c0.003-0.002,0.007-0.004,0.01-0.006c0.024-0.043,0.045-0.087,0.066-0.131c0.049-0.133,0.084-0.268,0.109-0.409
	c0.031-0.29,0.054-0.581,0.079-0.873c0.067-0.773,0.141-1.541,0.16-2.319c0.021-0.814,0.03-1.627,0.082-2.439
	c0.051-0.775,0.078-1.551,0.111-2.326c0.031-0.759,0.041-1.512-0.025-2.27c-0.05-0.284-0.125-0.559-0.224-0.83
	c-0.065-0.137-0.137-0.269-0.221-0.395c-0.043-0.048-0.088-0.094-0.135-0.138c-0.016-0.01-0.033-0.02-0.049-0.029
	c-0.014-0.004-0.027-0.008-0.041-0.012c-0.14-0.011-0.28-0.014-0.423-0.018c-0.191-0.004-0.379-0.023-0.57-0.031
	c-0.243-0.008-0.485-0.025-0.725-0.052c0.008,0.132,0.018,0.263,0.024,0.395c0.025,0.472-0.411,0.867-0.867,0.867
	c-0.465,0-0.878-0.394-0.867-0.867c0.004-0.187,0.025-0.375,0.021-0.562c-0.001-0.132-0.008-0.263-0.02-0.394
	c-0.019-0.094-0.042-0.184-0.073-0.275c-0.022-0.043-0.045-0.085-0.07-0.127c-0.013-0.013-0.026-0.025-0.039-0.038
	c-0.065-0.042-0.132-0.079-0.201-0.114c-0.23-0.082-0.467-0.13-0.709-0.167c-0.511-0.056-1.028-0.075-1.542-0.11
	C9.977,4.791,9.428,4.769,8.88,4.748c-1.105-0.042-2.224-0.04-3.325,0.077C5.207,4.883,4.871,4.967,4.539,5.084
	C4.413,5.147,4.295,5.218,4.178,5.297C4.128,5.342,4.081,5.39,4.035,5.44C3.969,5.538,3.909,5.637,3.857,5.742
	C3.758,6.024,3.692,6.314,3.629,6.606c0.004,0.03,0.018,0.057,0.018,0.088c-0.006,1.179-0.025,2.359-0.031,3.538
	c-0.008,1.557,0,3.111-0.004,4.668c-0.002,0.77-0.015,1.538-0.017,2.307c-0.002,0.377,0,0.753,0,1.13
	c0,0.293-0.011,0.589,0.014,0.88c0.01,0.045,0.024,0.089,0.037,0.133c0.101,0.038,0.193,0.095,0.267,0.181
	c0.089,0.104,0.179,0.2,0.279,0.288c0.052,0.035,0.105,0.067,0.161,0.096c0.288,0.103,0.588,0.175,0.89,0.225
	C5.916,20.216,6.595,20.228,7.272,20.206z M28.192,18.607c0.012-0.2,0.002-0.4-0.019-0.599c-0.03-0.151-0.064-0.296-0.113-0.44
	c-0.028-0.056-0.057-0.111-0.091-0.164c-0.212-0.242-0.443-0.468-0.688-0.677c-0.138-0.097-0.281-0.184-0.431-0.262
	c-0.216-0.078-0.437-0.14-0.662-0.185c-0.136-0.01-0.269-0.008-0.406,0.002c-0.178,0.034-0.348,0.087-0.518,0.151
	c-0.285,0.146-0.553,0.314-0.813,0.501c-0.223,0.194-0.423,0.402-0.61,0.631c-0.314,0.436-0.584,0.888-0.814,1.374
	c-0.119,0.301-0.22,0.605-0.282,0.922c-0.033,0.473-0.016,0.957,0.035,1.429c0.023,0.143,0.05,0.285,0.084,0.424
	c0.009,0.036,0.019,0.071,0.03,0.106c0.103,0.012,0.206,0.027,0.305,0.058c0.057,0.019,0.116,0.038,0.173,0.053
	c0.09,0.024,0.18,0.044,0.271,0.061c0.316,0.032,0.635,0.037,0.952,0.008c0.334-0.058,0.652-0.143,0.969-0.261
	c0.265-0.124,0.519-0.265,0.758-0.434c0.434-0.381,0.814-0.837,1.174-1.291c0.2-0.271,0.387-0.546,0.532-0.851
	C28.095,18.981,28.152,18.798,28.192,18.607z"/>
</svg>