<?xml version="1.0" encoding="utf-8"?>
<!-- Generator: Adobe Illustrator 21.1.0, SVG Export Plug-In . SVG Version: 6.00 Build 0)  -->
<svg version="1.1" id="designs" xmlns="http://www.w3.org/2000/svg" xmlns:xlink="http://www.w3.org/1999/xlink" x="0px" y="0px"
	 width="32px" height="32px" viewBox="0 0 32 32" style="enable-background:new 0 0 32 32;" xml:space="preserve">
<style type="text/css">
	.sketchy_een{fill:#111918;}
</style>
<path class="sketchy_een" d="M30.544,4.256c-0.306-0.531-0.781-0.985-1.344-1.236c-0.235-0.106-0.462-0.196-0.711-0.257
	c-0.191-0.047-0.386-0.067-0.581-0.067c-0.229,0-0.458,0.027-0.682,0.071c-0.879,0.172-1.696,0.586-2.423,1.103
	c-0.734,0.521-1.383,1.146-2.015,1.782c-0.621,0.625-1.25,1.24-1.9,1.837c-1.322,1.212-2.65,2.419-3.923,3.684
	c-0.627,0.625-1.234,1.267-1.818,1.929c-0.591,0.67-1.181,1.344-1.786,2c-0.611,0.662-1.248,1.301-1.874,1.947
	c-0.619,0.641-1.234,1.283-1.863,1.914c-0.615,0.617-1.244,1.222-1.837,1.861c-0.597,0.642-1.179,1.301-1.784,1.935
	c-1.31,1.375-2.67,2.701-4.002,4.052c-0.1,0.1-0.159,0.223-0.198,0.352c-0.2,0.001-0.418,0.119-0.552,0.252
	C1.09,27.575,1,27.794,1,28.019c0,0.225,0.09,0.445,0.251,0.603c0.17,0.172,0.368,0.227,0.603,0.251
	c0.619,0.057,1.242,0.074,1.865,0.076c0.617,0.002,1.234,0.02,1.851,0.022c0.595,0.002,1.191,0.004,1.784,0.01
	c0.422,0.003,0.84,0.057,1.259,0.102c0.286,0.246,0.698,0.292,1.05,0.107c0.292-0.153,0.517-0.386,0.744-0.619
	c0.153-0.157,0.306-0.315,0.456-0.472c0.292-0.304,0.588-0.603,0.881-0.905c0.59-0.609,1.165-1.232,1.745-1.849
	c1.216-1.295,2.454-2.564,3.698-3.831c1.244-1.267,2.546-2.48,3.823-3.714c0.68-0.658,1.369-1.302,2.039-1.97
	c0.611-0.607,1.207-1.236,1.81-1.851c1.257-1.283,2.519-2.568,3.714-3.908c0.619-0.695,1.236-1.404,1.733-2.194
	c0.264-0.421,0.482-0.891,0.609-1.371C31.12,5.735,30.934,4.934,30.544,4.256z M15.439,20.728c-0.322-0.253-0.642-0.509-0.966-0.76
	c-0.664-0.523-1.253-1.137-1.85-1.736c0.203-0.21,0.403-0.424,0.607-0.634c0.498,0.453,1.01,0.888,1.507,1.341
	c0.433,0.393,0.84,0.815,1.249,1.233C15.802,20.356,15.621,20.542,15.439,20.728z M13.568,22.631
	c-0.242-0.198-0.472-0.408-0.705-0.618c-0.264-0.241-0.539-0.474-0.811-0.705c-0.444-0.373-0.84-0.796-1.228-1.227
	c0.218-0.221,0.432-0.444,0.648-0.666c0.464,0.44,0.928,0.883,1.394,1.319c0.28,0.263,0.578,0.496,0.879,0.733
	c0.181,0.142,0.357,0.293,0.534,0.44C14.045,22.15,13.802,22.386,13.568,22.631z M11.073,25.271
	c-0.384,0.405-0.77,0.809-1.163,1.207c-0.182,0.186-0.366,0.374-0.548,0.56c-0.126,0.128-0.255,0.258-0.384,0.385
	c-0.531-0.04-1.058-0.11-1.59-0.112c-0.266,0-0.533,0.002-0.799,0.002c-0.319,0.002-0.638,0.002-0.956,0
	c-0.568-0.005-1.135-0.011-1.702-0.025c1.044-1.055,2.091-2.108,3.106-3.19c0.603-0.644,1.187-1.306,1.784-1.957
	c0.277-0.302,0.571-0.588,0.857-0.881c0.203,0.218,0.412,0.429,0.624,0.637c-0.211,0.239-0.422,0.478-0.64,0.71
	c-0.129,0.137-0.266,0.266-0.392,0.405c-0.141,0.159-0.268,0.331-0.4,0.499c-0.073,0.125-0.11,0.262-0.11,0.407
	c0,0.214,0.086,0.419,0.237,0.57c0.308,0.307,0.832,0.313,1.14,0c0.231-0.237,0.476-0.46,0.709-0.695
	c0.242-0.241,0.474-0.492,0.705-0.744c0.29,0.264,0.583,0.524,0.879,0.78C11.98,24.311,11.528,24.792,11.073,25.271z M29.281,5.937
	c-0.034,0.156-0.08,0.307-0.134,0.458c-0.211,0.443-0.472,0.846-0.764,1.242c-1.079,1.351-2.306,2.583-3.512,3.817
	c-0.615,0.629-1.242,1.242-1.861,1.865c-0.629,0.635-1.255,1.275-1.904,1.89c-0.662,0.629-1.324,1.259-1.982,1.894
	c-0.64,0.619-1.301,1.22-1.937,1.845c-0.015,0.014-0.028,0.029-0.043,0.043c-0.164-0.14-0.329-0.278-0.488-0.425
	c-0.266-0.249-0.529-0.503-0.799-0.75c-0.286-0.263-0.576-0.521-0.86-0.785c-0.215-0.201-0.424-0.411-0.635-0.619
	c0.012-0.013,0.024-0.025,0.036-0.038c0.599-0.65,1.177-1.32,1.769-1.978c0.597-0.664,1.208-1.31,1.839-1.941
	c1.232-1.234,2.529-2.401,3.815-3.575c0.633-0.574,1.254-1.159,1.859-1.763c0.583-0.581,1.168-1.162,1.808-1.678
	c0.43-0.316,0.879-0.592,1.365-0.816c0.282-0.103,0.566-0.185,0.861-0.237c0.099-0.006,0.197-0.008,0.297-0.004
	c0.124,0.026,0.245,0.059,0.365,0.101c0.136,0.067,0.264,0.142,0.39,0.227c0.063,0.057,0.12,0.115,0.176,0.178
	c0.08,0.121,0.152,0.244,0.217,0.373c0.049,0.138,0.091,0.275,0.122,0.418C29.287,5.766,29.286,5.851,29.281,5.937z"/>
</svg>