<?xml version="1.0" encoding="utf-8"?>
<!-- Generator: Adobe Illustrator 21.1.0, SVG Export Plug-In . SVG Version: 6.00 Build 0)  -->
<svg version="1.1" id="designs" xmlns="http://www.w3.org/2000/svg" xmlns:xlink="http://www.w3.org/1999/xlink" x="0px" y="0px"
	 width="32px" height="32px" viewBox="0 0 32 32" style="enable-background:new 0 0 32 32;" xml:space="preserve">
<style type="text/css">
	.sketchy_een{fill:#111918;}
</style>
<path class="sketchy_een" d="M29.469,5.783c-0.145-0.145-0.343-0.229-0.549-0.229c-0.185,0-0.427,0.076-0.549,0.229
	c-0.504,0.63-1.022,1.242-1.598,1.804c-0.566,0.553-1.142,1.097-1.73,1.627c-0.568,0.511-1.139,1.022-1.686,1.558
	c-0.526,0.519-1.062,1.028-1.576,1.558c-0.257,0.269-0.521,0.532-0.776,0.801c-0.121,0.127-0.243,0.252-0.363,0.38
	c-0.046-0.075-0.091-0.152-0.139-0.226c-0.161-0.251-0.431-0.401-0.71-0.401c-0.134,0-0.271,0.034-0.398,0.109
	c-0.366,0.216-0.532,0.738-0.29,1.108c0.16,0.244,0.322,0.475,0.45,0.738c0.082,0.172,0.179,0.338,0.284,0.496
	c0.186,0.283,0.385,0.569,0.535,0.875c0.096,0.263,0.156,0.54,0.2,0.816c0.035,0.317,0.052,0.641,0.028,0.958
	c-0.052,0.304-0.129,0.611-0.241,0.897c-0.06,0.129-0.126,0.254-0.192,0.379c-0.137,0.261-0.261,0.53-0.395,0.793
	c-0.24,0.466-0.553,0.898-0.872,1.316c-0.157,0.199-0.313,0.397-0.481,0.59c-0.193,0.221-0.395,0.433-0.578,0.662
	c-0.353,0.439-0.719,0.858-1.104,1.269c-0.557,0.588-1.11,1.179-1.661,1.771c-0.112-0.104-0.226-0.206-0.332-0.312
	c-0.244-0.24-0.49-0.477-0.734-0.715c-0.519-0.507-1.049-1.003-1.576-1.501c-0.271-0.254-0.521-0.532-0.782-0.793
	c-0.233-0.235-0.477-0.458-0.717-0.683c-0.542-0.507-1.087-1.013-1.608-1.541c-0.318-0.324-0.645-0.641-0.965-0.963
	c-0.328-0.334-0.647-0.675-0.998-0.986c-0.307-0.276-0.624-0.542-0.929-0.822c-0.201-0.185-0.397-0.375-0.594-0.564
	c0.706-0.702,1.4-1.412,2.091-2.126c0.339-0.349,0.721-0.664,1.087-0.982c0.371-0.321,0.739-0.646,1.12-0.954
	c0.324-0.241,0.668-0.441,1.024-0.633c0.358-0.194,0.723-0.382,1.096-0.546c0.492-0.197,0.995-0.357,1.518-0.44
	c0.39-0.041,0.784-0.051,1.174-0.01c0.171,0.032,0.331,0.078,0.495,0.148c0.127,0.053,0.259,0.097,0.389,0.146
	c0.257,0.13,0.495,0.318,0.725,0.491c0.167,0.125,0.338,0.248,0.506,0.373c0.062,0.05,0.123,0.1,0.185,0.151
	c0.164,0.139,0.332,0.229,0.553,0.229c0.208,0,0.408-0.082,0.553-0.229c0.286-0.286,0.322-0.828,0-1.106
	c-0.189-0.164-0.394-0.31-0.596-0.459c0.168-0.161,0.334-0.325,0.505-0.484c0.294-0.275,0.582-0.555,0.877-0.826
	c0.286-0.265,0.584-0.517,0.87-0.78c0.273-0.25,0.542-0.504,0.811-0.757c0.608-0.57,1.209-1.146,1.821-1.711
	c0.593-0.547,1.196-1.085,1.78-1.642c0.456-0.437,0.937-0.847,1.423-1.245c0.158-0.13,0.238-0.378,0.238-0.576
	c0-0.214-0.086-0.423-0.238-0.574C25.7,2.086,25.49,2,25.274,2c-0.231,0-0.402,0.094-0.574,0.238
	c-0.647,0.54-1.234,1.139-1.837,1.724c-0.29,0.282-0.599,0.545-0.898,0.818c-0.309,0.284-0.618,0.568-0.927,0.853
	c-0.593,0.547-1.173,1.11-1.776,1.648c-0.286,0.255-0.565,0.521-0.847,0.782c-0.277,0.257-0.561,0.505-0.833,0.769
	c-0.39,0.376-0.782,0.75-1.189,1.107c-0.022-0.009-0.039-0.023-0.061-0.032c-0.143-0.057-0.288-0.113-0.431-0.172
	c-0.368-0.149-0.761-0.198-1.154-0.225C14.645,9.503,14.543,9.5,14.44,9.5c-0.316,0-0.633,0.031-0.944,0.077
	c-0.784,0.115-1.522,0.378-2.241,0.702c-0.345,0.155-0.681,0.326-1.017,0.502c-0.391,0.206-0.753,0.442-1.101,0.717
	c-0.427,0.334-0.845,0.685-1.251,1.042c-0.366,0.32-0.731,0.65-1.076,0.994c-0.381,0.38-0.732,0.788-1.114,1.167
	c-0.425,0.425-0.868,0.833-1.299,1.251c-0.083,0.08-0.14,0.177-0.179,0.28c-0.008,0.007-0.017,0.009-0.025,0.016
	c-0.284,0.286-0.309,0.803,0,1.083c0.315,0.288,0.629,0.574,0.95,0.854c0.159,0.138,0.32,0.274,0.48,0.411
	c-0.488,0.561-0.965,1.133-1.472,1.676c-0.223,0.238-0.462,0.467-0.668,0.721c-0.237,0.29-0.454,0.593-0.669,0.898
	c-0.181,0.256-0.336,0.54-0.431,0.841c-0.12,0.378-0.086,0.767-0.017,1.148c0.116,0.652,0.633,1.247,1.234,1.51
	c0.315,0.137,0.607,0.225,0.956,0.227c0.328,0,0.629-0.084,0.921-0.225c0.122-0.059,0.233-0.155,0.339-0.235
	c0.132-0.099,0.263-0.2,0.393-0.303c0.237-0.191,0.444-0.423,0.658-0.639c0.362-0.366,0.715-0.744,1.06-1.124
	c0.355-0.389,0.786-0.688,1.171-1.043c0.019-0.018,0.026-0.043,0.043-0.063c0.333,0.314,0.665,0.63,0.997,0.947
	c-0.554,0.551-1.099,1.112-1.593,1.715c-0.229,0.282-0.477,0.545-0.721,0.812c-0.12,0.132-0.237,0.267-0.349,0.404
	c-0.114,0.138-0.243,0.278-0.341,0.432c-0.035,0.046-0.071,0.091-0.106,0.136c-0.208,0.273-0.351,0.588-0.431,0.921
	c-0.128,0.521,0.019,1.068,0.278,1.524c0.095,0.17,0.219,0.33,0.347,0.475c0.097,0.111,0.238,0.198,0.364,0.279
	c0.065,0.042,0.13,0.078,0.196,0.113c0.303,0.158,0.593,0.223,0.933,0.25c0.42,0.032,0.807-0.08,1.186-0.24
	c0.614-0.261,1.099-0.755,1.608-1.169c0.412-0.332,0.833-0.662,1.207-1.04c0.202-0.204,0.393-0.42,0.587-0.633
	c0.142-0.158,0.285-0.313,0.416-0.479c0.064,0.062,0.131,0.123,0.192,0.188c0.114,0.12,0.238,0.233,0.349,0.355
	c0.176,0.27,0.499,0.39,0.802,0.323c0.307,0.132,0.685,0.083,0.927-0.168c0.38-0.397,0.729-0.824,1.106-1.224
	c0.521-0.549,1.043-1.1,1.539-1.675c0.256-0.296,0.507-0.597,0.769-0.889c0.258-0.288,0.515-0.578,0.751-0.883
	c0.279-0.359,0.551-0.719,0.809-1.093c0.214-0.311,0.376-0.652,0.557-0.98c0.111-0.2,0.225-0.397,0.322-0.603
	c0.128-0.275,0.233-0.561,0.318-0.851c0.109-0.366,0.179-0.746,0.191-1.129c0.01-0.246-0.011-0.498-0.034-0.744
	c-0.055-0.622-0.187-1.303-0.507-1.85c-0.085-0.145-0.182-0.281-0.283-0.414c0.166-0.181,0.331-0.363,0.501-0.542
	c0.254-0.267,0.513-0.532,0.774-0.792c0.511-0.513,1.032-1.013,1.551-1.518c0.551-0.538,1.108-1.07,1.671-1.597
	c0.568-0.532,1.127-1.074,1.69-1.614c0.614-0.591,1.207-1.196,1.749-1.856c0.135-0.166,0.227-0.326,0.227-0.549
	C29.696,6.126,29.614,5.926,29.469,5.783z M7.927,20.876c-0.279,0.271-0.589,0.504-0.874,0.769
	c-0.212,0.196-0.395,0.416-0.586,0.629c-0.476,0.536-0.959,1.091-1.517,1.544c-0.078,0.057-0.159,0.111-0.243,0.157
	c-0.025,0.007-0.051,0.014-0.076,0.02c-0.045,0.002-0.089,0.002-0.134,0c-0.046-0.01-0.091-0.023-0.136-0.038
	c-0.075-0.038-0.149-0.079-0.22-0.125c-0.043-0.04-0.084-0.082-0.123-0.127c-0.018-0.027-0.034-0.054-0.05-0.082
	c-0.014-0.048-0.026-0.096-0.035-0.146c-0.005-0.069-0.007-0.137-0.004-0.205c0.01-0.045,0.023-0.089,0.038-0.132
	c0.173-0.348,0.411-0.656,0.648-0.963c0.311-0.395,0.668-0.755,1.001-1.129c0.407-0.455,0.826-0.899,1.236-1.355
	c0.223,0.227,0.444,0.455,0.67,0.679c0.156,0.154,0.312,0.308,0.465,0.464C7.969,20.852,7.945,20.859,7.927,20.876z M12.361,25.513
	c-0.352,0.441-0.747,0.857-1.157,1.243c-0.233,0.219-0.481,0.42-0.721,0.631c-0.248,0.218-0.493,0.44-0.75,0.648
	c-0.163,0.12-0.33,0.229-0.509,0.323c-0.096,0.033-0.193,0.06-0.292,0.082c-0.058,0.002-0.115,0.002-0.173-0.001
	c-0.055-0.011-0.109-0.025-0.163-0.042c-0.067-0.035-0.132-0.074-0.195-0.117c-0.014-0.013-0.027-0.026-0.04-0.039
	c-0.055-0.081-0.105-0.166-0.15-0.254c-0.017-0.052-0.031-0.103-0.044-0.156c-0.001-0.024-0.001-0.047-0.001-0.071
	c0.012-0.046,0.026-0.09,0.042-0.135c0.045-0.089,0.095-0.172,0.152-0.253c0.42-0.525,0.894-1.006,1.308-1.534
	c0.237-0.301,0.477-0.591,0.746-0.866c0.294-0.303,0.599-0.593,0.903-0.887c0.078,0.076,0.151,0.156,0.231,0.23
	c0.332,0.309,0.666,0.618,0.984,0.942c0.006,0.006,0.013,0.012,0.019,0.019c-0.034,0.038-0.069,0.075-0.1,0.118
	C12.421,25.432,12.391,25.473,12.361,25.513z M18.554,19.742c-0.143,0.237-0.317,0.453-0.487,0.67
	c-0.405,0.529-0.81,1.054-1.292,1.518c-0.181,0.172-0.347,0.353-0.517,0.536c-0.141,0.154-0.271,0.326-0.427,0.467
	c-0.313,0.28-0.782,0.309-1.091,0c-0.294-0.294-0.303-0.801,0-1.093c0.151-0.145,0.284-0.313,0.42-0.473
	c0.16-0.191,0.332-0.37,0.505-0.547c0.408-0.418,0.777-0.87,1.137-1.329c0.179-0.231,0.357-0.461,0.5-0.718
	c0.128-0.231,0.242-0.47,0.347-0.711c0.139-0.343,0.247-0.691,0.313-1.059c0.034-0.193,0.2-0.378,0.364-0.473
	c0.122-0.071,0.261-0.108,0.401-0.108c0.07,0,0.14,0.009,0.209,0.027c0.196,0.055,0.37,0.187,0.473,0.364
	c0.114,0.194,0.12,0.395,0.08,0.61c-0.113,0.589-0.366,1.148-0.616,1.692C18.775,19.328,18.674,19.542,18.554,19.742z"/>
</svg>