<?xml version="1.0" encoding="utf-8"?>
<!-- Generator: Adobe Illustrator 21.1.0, SVG Export Plug-In . SVG Version: 6.00 Build 0)  -->
<svg version="1.1" id="designs" xmlns="http://www.w3.org/2000/svg" xmlns:xlink="http://www.w3.org/1999/xlink" x="0px" y="0px"
	 width="32px" height="32px" viewBox="0 0 32 32" style="enable-background:new 0 0 32 32;" xml:space="preserve">
<style type="text/css">
	.sketchy_een{fill:#111918;}
</style>
<path class="sketchy_een" d="M29.961,13.805c-0.054-0.518-0.152-0.991-0.364-1.467c-0.158-0.356-0.386-0.67-0.589-1.001
	c-0.46-0.745-1.04-1.478-1.795-1.94C26.84,9.169,26.448,8.98,26.055,8.79c-0.436-0.212-0.874-0.406-1.341-0.546
	c-0.723-0.219-1.475-0.37-2.232-0.37c-0.18,0-0.36,0.009-0.54,0.027c-0.442,0.043-0.878,0.115-1.313,0.21
	c-0.237,0.053-0.476,0.117-0.712,0.19c0.012-0.12,0.024-0.239,0.027-0.358c0.006-0.282,0.011-0.563,0.006-0.847
	c-0.008-0.334-0.058-0.667-0.105-1c-0.022-0.183-0.035-0.367-0.043-0.55c-0.013-0.278-0.056-0.555-0.1-0.83
	c-0.013-0.082-0.026-0.163-0.046-0.245c-0.096-0.379-0.343-0.672-0.72-0.791c-0.086-0.027-0.174-0.038-0.262-0.038
	c-0.219,0-0.438,0.07-0.641,0.139c-0.392,0.135-0.778,0.277-1.14,0.481c-0.41,0.232-0.778,0.525-1.108,0.86
	c-0.299,0.299-0.555,0.642-0.821,0.969c-0.087,0.106-0.17,0.215-0.256,0.321c-0.133-0.227-0.283-0.438-0.445-0.645
	c-0.079-0.105-0.147-0.219-0.221-0.329c-0.067-0.101-0.145-0.195-0.223-0.291c-0.084-0.114-0.166-0.23-0.249-0.344
	c-0.121-0.165-0.221-0.343-0.334-0.511c-0.119-0.178-0.267-0.31-0.477-0.368c-0.07-0.019-0.142-0.029-0.213-0.029
	c-0.141,0-0.282,0.037-0.405,0.109c-0.178,0.104-0.312,0.278-0.368,0.479c-0.052,0.191-0.037,0.447,0.082,0.616
	c0.191,0.268,0.399,0.525,0.603,0.784c0.188,0.251,0.348,0.52,0.533,0.774c0.152,0.21,0.291,0.416,0.412,0.646
	c0.097,0.18,0.181,0.365,0.262,0.554c0.24,0.585,0.456,1.178,0.657,1.778c0.1,0.298,0.184,0.6,0.27,0.902
	c-0.218-0.183-0.427-0.376-0.654-0.547c-0.769-0.581-1.643-1.034-2.555-1.344c-0.423-0.143-0.861-0.256-1.298-0.349
	C9.504,8.172,8.921,8.137,8.329,8.13c-0.021,0-0.041,0-0.062,0c-0.721,0-1.452,0.126-2.123,0.386
	C5.828,8.64,5.527,8.787,5.249,8.982C5.078,9.103,4.914,9.236,4.755,9.374C4.562,9.539,4.376,9.708,4.196,9.886
	c-0.262,0.26-0.485,0.572-0.687,0.882c-0.134,0.206-0.256,0.412-0.37,0.629c-0.23,0.442-0.392,0.928-0.551,1.398
	c-0.152,0.447-0.288,0.897-0.379,1.363c-0.098,0.507-0.13,1.032-0.165,1.548c-0.061,0.888-0.065,1.767,0.03,2.653
	c0.03,0.264,0.065,0.525,0.124,0.781c0.058,0.238,0.124,0.472,0.188,0.707c0.115,0.438,0.23,0.876,0.353,1.313
	c0.258,0.921,0.563,1.847,1.058,2.67c0.486,0.806,1.047,1.554,1.753,2.182c0.73,0.648,1.496,1.262,2.378,1.691
	c0.468,0.228,0.941,0.377,1.456,0.453c0.488,0.074,0.977,0.119,1.47,0.136c0.538,0.019,1.075-0.024,1.606-0.113
	c0.225-0.039,0.44-0.113,0.654-0.195c0.29-0.113,0.581-0.245,0.852-0.399c0.466-0.267,0.854-0.659,1.19-1.075
	c0.181-0.222,0.349-0.452,0.508-0.688c0.462,0.785,1.145,1.388,1.94,1.834c0.407,0.228,0.847,0.407,1.29,0.54
	c0.503,0.152,1.023,0.186,1.543,0.149c0.455-0.032,0.913-0.089,1.361-0.186c0.52-0.113,1.016-0.36,1.465-0.644
	c0.761-0.481,1.508-1.017,2.165-1.636c0.364-0.342,0.689-0.715,0.973-1.125c0.243-0.351,0.466-0.711,0.68-1.081
	c0.416-0.715,0.785-1.457,1.131-2.208c0.377-0.813,0.676-1.669,0.941-2.523c0.245-0.785,0.494-1.565,0.648-2.375
	C29.974,15.656,30.054,14.732,29.961,13.805z M15.809,7.444c0.039-0.078,0.086-0.151,0.135-0.223
	c0.186-0.233,0.383-0.456,0.588-0.672c0.152-0.158,0.296-0.32,0.461-0.464c0.311-0.217,0.653-0.39,1-0.544
	c0.06-0.024,0.12-0.047,0.18-0.07c0.009,0.127,0.016,0.254,0.022,0.381c0.017,0.31,0.046,0.622,0.058,0.932
	c0.017,0.522-0.004,1.041-0.06,1.559c-0.038,0.223-0.082,0.451-0.155,0.666c-0.069,0.13-0.154,0.25-0.236,0.372
	c-0.263,0.208-0.513,0.433-0.738,0.682c-0.261,0.291-0.491,0.61-0.711,0.934c-0.039-0.174-0.077-0.348-0.124-0.52
	c-0.162-0.59-0.37-1.166-0.553-1.751c-0.06-0.183-0.112-0.369-0.178-0.551c0.023-0.045,0.062-0.08,0.076-0.131
	C15.656,7.846,15.732,7.644,15.809,7.444z M28.152,15.808c-0.064,0.388-0.128,0.776-0.228,1.157c-0.108,0.403-0.238,0.8-0.362,1.198
	c-0.239,0.755-0.492,1.499-0.794,2.231c-0.269,0.611-0.588,1.205-0.906,1.792c-0.341,0.631-0.714,1.249-1.13,1.833
	c-0.401,0.486-0.871,0.909-1.362,1.303c-0.517,0.391-1.042,0.771-1.631,1.044c-0.282,0.101-0.575,0.157-0.87,0.206
	c0,0-0.001,0-0.001,0c-0.337,0.041-0.685,0.063-1.024,0.038c-0.278-0.05-0.549-0.134-0.813-0.234
	c-0.379-0.172-0.736-0.379-1.076-0.619c-0.225-0.195-0.435-0.401-0.629-0.629c-0.1-0.141-0.191-0.286-0.276-0.439
	c-0.216-0.391-0.714-0.521-1.113-0.352c-0.064-0.084-0.143-0.159-0.24-0.216c-0.407-0.238-0.928-0.093-1.168,0.306
	c-0.141,0.233-0.291,0.46-0.452,0.68c-0.224,0.276-0.466,0.535-0.738,0.766c-0.18,0.123-0.367,0.224-0.565,0.316
	c-0.25,0.096-0.502,0.169-0.766,0.217c-0.658,0.053-1.323,0.017-1.977-0.059c-0.367-0.057-0.717-0.135-1.063-0.262
	C8.514,25.87,8.104,25.597,7.7,25.303c-0.604-0.48-1.17-1.017-1.665-1.607c-0.371-0.513-0.702-1.05-0.97-1.624
	c-0.242-0.608-0.429-1.227-0.606-1.857c-0.102-0.362-0.202-0.722-0.301-1.084c-0.084-0.312-0.174-0.62-0.228-0.939
	c-0.136-1.174-0.121-2.369,0.02-3.542c0.133-0.746,0.363-1.466,0.644-2.167c0.187-0.388,0.405-0.75,0.659-1.097
	c0.252-0.295,0.546-0.556,0.849-0.8c0.192-0.138,0.393-0.253,0.606-0.353c0.288-0.104,0.582-0.181,0.883-0.236
	c0.573-0.061,1.16-0.049,1.734,0.017c0.341,0.061,0.675,0.147,1.011,0.233c0.337,0.085,0.666,0.182,0.989,0.31
	c0.676,0.296,1.3,0.672,1.893,1.109c0.462,0.375,0.877,0.778,1.26,1.234c0.154,0.219,0.28,0.444,0.389,0.692
	c-0.003-0.007-0.006-0.014-0.009-0.021c0.087,0.19,0.185,0.344,0.38,0.459c0.21,0.123,0.462,0.156,0.694,0.091
	c0.147-0.04,0.271-0.128,0.38-0.234c0.125-0.011,0.247-0.042,0.356-0.106c0.206-0.121,0.303-0.292,0.388-0.507
	c0.058-0.144,0.117-0.287,0.177-0.431c0.125-0.259,0.253-0.51,0.395-0.761c0.13-0.237,0.294-0.457,0.457-0.674
	c0.242-0.293,0.498-0.562,0.788-0.805c0.342-0.241,0.699-0.439,1.078-0.617c0.569-0.221,1.163-0.38,1.766-0.479
	c0.421-0.049,0.836-0.07,1.258-0.034c0.584,0.094,1.163,0.245,1.714,0.461c0.3,0.142,0.59,0.303,0.882,0.461
	c0.292,0.159,0.581,0.322,0.854,0.511c0.251,0.215,0.466,0.461,0.675,0.717c0.177,0.246,0.335,0.501,0.487,0.764
	c0.146,0.248,0.301,0.488,0.426,0.747c0.069,0.192,0.119,0.387,0.154,0.588c0.035,0.344,0.052,0.686,0.057,1.032
	C28.23,15.105,28.196,15.458,28.152,15.808z M26.746,14.085c0.079,0.333,0.124,0.682,0.147,1.023
	c0.012,0.184,0.008,0.366-0.01,0.552c-0.046,0.483-0.169,0.951-0.271,1.426c-0.079,0.374-0.188,0.74-0.296,1.108
	c-0.109,0.37-0.248,0.732-0.368,1.101c-0.095,0.296-0.186,0.595-0.32,0.876c-0.112,0.234-0.239,0.462-0.346,0.699
	c-0.076,0.186-0.153,0.37-0.233,0.553c-0.108,0.252-0.438,0.399-0.694,0.399c-0.213,0-0.418-0.085-0.57-0.236
	c-0.298-0.3-0.322-0.839,0-1.135c0.011-0.01,0.022-0.021,0.033-0.031c0.061-0.099,0.11-0.203,0.163-0.306
	c0.105-0.204,0.203-0.411,0.297-0.619c0.131-0.336,0.217-0.688,0.332-1.028c0.099-0.293,0.196-0.587,0.277-0.883
	c0.17-0.614,0.335-1.241,0.433-1.869c0.03-0.31,0.014-0.63-0.022-0.94c-0.03-0.168-0.07-0.334-0.128-0.494
	c-0.086-0.186-0.185-0.364-0.302-0.531c-0.126-0.152-0.26-0.3-0.386-0.453c-0.139-0.169-0.232-0.333-0.232-0.558
	c0-0.207,0.085-0.411,0.232-0.558c0.147-0.147,0.349-0.231,0.556-0.231c0.19,0,0.436,0.077,0.558,0.231
	c0.17,0.213,0.329,0.434,0.496,0.651c-0.029-0.037-0.058-0.075-0.087-0.112C26.326,13.131,26.622,13.571,26.746,14.085z"/>
</svg>