<?xml version="1.0" encoding="utf-8"?>
<!-- Generator: Adobe Illustrator 21.1.0, SVG Export Plug-In . SVG Version: 6.00 Build 0)  -->
<svg version="1.1" id="designs" xmlns="http://www.w3.org/2000/svg" xmlns:xlink="http://www.w3.org/1999/xlink" x="0px" y="0px"
	 width="32px" height="32px" viewBox="0 0 32 32" style="enable-background:new 0 0 32 32;" xml:space="preserve">
<style type="text/css">
	.sketchy_een{fill:#111918;}
</style>
<path class="sketchy_een" d="M25.65,11.398c-0.011-0.007-0.019-0.02-0.031-0.027c-0.188-0.111-0.361-0.113-0.561-0.09
	c0.038-0.005,0.075-0.011,0.114-0.017c-0.084,0.011-0.169,0.014-0.253,0.023c0-0.461,0.016-0.924,0.016-1.384
	c0.002-0.72,0.04-1.44,0.036-2.161c-0.002-0.468,0.042-0.986-0.183-1.41c-0.138-0.258-0.424-0.428-0.701-0.491
	c-0.126-0.027-0.258-0.04-0.384-0.061c-0.386-0.065-0.768-0.128-1.158-0.162c-0.314-0.027-0.626-0.055-0.939-0.079
	c-0.006-0.079-0.009-0.158-0.018-0.236c-0.013-0.149-0.034-0.298-0.065-0.443c-0.04-0.199-0.159-0.355-0.281-0.51
	c-0.084-0.105-0.292-0.203-0.416-0.241c-0.05-0.015-0.097-0.025-0.149-0.034c-0.157-0.029-0.315-0.044-0.474-0.052
	c-0.225-0.012-0.448-0.009-0.673-0.029c-0.303-0.046-0.605-0.097-0.905-0.156c0.004-0.302,0.01-0.614-0.071-0.903
	c-0.088-0.323-0.336-0.544-0.598-0.73c-0.26-0.183-0.628-0.2-0.934-0.204c-0.009,0-0.017,0-0.026,0c-0.259,0-0.521,0.027-0.78,0.038
	c-0.254,0.01-0.508-0.004-0.764-0.01c-0.313-0.008-0.63,0-0.944,0.006c-0.259,0.003-0.481,0.137-0.628,0.331
	c-0.045,0.029-0.094,0.05-0.132,0.088c-0.153,0.153-0.208,0.332-0.225,0.542c-0.088,1.108-0.143,2.219-0.136,3.331
	c0.002,0.384,0.017,0.768,0.031,1.153c-0.018,0-0.037-0.004-0.056-0.003c-0.397,0.022-0.777,0.135-1.165,0.204
	c-0.016,0.001-0.031,0.001-0.047,0.001c-0.061-0.821-0.01-1.653-0.018-2.473c0-0.083-0.024-0.16-0.049-0.236
	c0.02-0.07,0.044-0.137,0.044-0.214c0-0.442-0.369-0.812-0.81-0.812c-0.001,0-0.002,0-0.003,0c-0.869,0-1.74,0.04-2.609,0.069
	C8.545,4.023,8.402,4.082,8.272,4.161C8.216,4.148,8.165,4.126,8.105,4.126c-0.418,0-0.833,0.367-0.804,0.804
	c0.074,1.179,0.113,2.363,0.071,3.542c-0.031,0.891-0.034,1.782-0.039,2.674c-0.244-0.012-0.487-0.024-0.731-0.04
	c-0.013-0.001-0.025-0.001-0.038-0.001c-0.23,0-0.428,0.127-0.565,0.303c-0.2,0.15-0.343,0.374-0.327,0.632
	c0.053,0.835,0.145,1.664,0.239,2.493c0.097,0.856,0.178,1.713,0.298,2.567c0.117,0.829,0.267,1.65,0.401,2.476
	s0.246,1.652,0.369,2.478c0.193,1.299,0.441,2.59,0.674,3.881c0.107,0.598,0.227,1.194,0.34,1.792
	c0.054,0.287,0.105,0.573,0.166,0.858c0.067,0.325,0.134,0.642,0.279,0.942c0.119,0.247,0.4,0.38,0.671,0.386
	c0.09,0.039,0.189,0.06,0.292,0.055c0.365-0.015,0.73-0.038,1.095-0.044c0.346-0.008,0.69,0.002,1.035,0.008
	c0.693,0.01,1.389-0.004,2.082-0.01c0.749-0.006,1.496-0.002,2.244-0.01c0.718-0.006,1.435-0.029,2.153-0.033
	c1.012-0.006,2.029-0.021,3.041,0.01c0.474,0.013,0.947,0.044,1.421,0.063c0.499,0.021,0.997,0.027,1.496,0.046
	c0.141,0.006,0.268-0.044,0.383-0.114c0.031-0.013,0.066-0.015,0.095-0.032c0.159-0.094,0.321-0.271,0.353-0.458
	c0.023-0.133,0.041-0.268,0.058-0.403c0.026-0.194,0.054-0.387,0.081-0.581c-0.002,0.013-0.003,0.026-0.005,0.038
	c0.005-0.04,0.011-0.081,0.016-0.121c0.004-0.027,0.007-0.053,0.011-0.08c-0.002,0.014-0.004,0.028-0.006,0.042
	c0.093-0.719,0.163-1.44,0.241-2.16c0.08-0.743,0.147-1.488,0.229-2.231c0.084-0.755,0.147-1.509,0.225-2.262
	c0.082-0.798,0.185-1.595,0.258-2.393c0.109-1.158,0.22-2.319,0.294-3.48c0.038-0.569,0.08-1.141,0.103-1.712
	c0.025-0.634,0.029-1.268,0.025-1.903C26.324,11.763,26.027,11.448,25.65,11.398z M17.056,3.528L17.056,3.528
	c-0.007-0.005-0.013-0.01-0.02-0.015C17.042,3.518,17.049,3.523,17.056,3.528z M15.981,3.625c0.172,0.006,0.346,0,0.52-0.008
	c0.186-0.007,0.373-0.013,0.56-0.007c0.017,0.309,0.014,0.619,0.017,0.927c0.002,0.365,0.002,0.73,0,1.096
	c-0.008,0.77-0.029,1.538-0.073,2.306c-0.04,0.707-0.04,1.417-0.025,2.124c0.013,0.668-0.032,1.329-0.053,1.996
	c-0.01,0.315-0.013,0.628-0.011,0.944c0.002,0.319-0.019,0.638-0.01,0.957c0.011,0.434,0.351,0.796,0.797,0.796
	c0.413,0,0.825-0.363,0.797-0.796c-0.042-0.63-0.025-1.268-0.013-1.901c0.013-0.667,0.09-1.329,0.105-1.996
	c0.036-1.477,0.027-2.953,0.031-4.43c0-0.082,0.001-0.163,0.001-0.245c0.186,0.024,0.372,0.045,0.557,0.068
	c0.23,0.032,0.457,0.062,0.691,0.072c0.067,0.003,0.134,0.006,0.201,0.011c0.059,0.675,0.058,1.362,0.038,2.037
	c-0.025,0.81-0.053,1.62-0.071,2.43c-0.008,0.428,0.365,0.785,0.787,0.785c0.426,0,0.791-0.357,0.787-0.785
	c-0.006-0.583,0.015-1.165,0.038-1.746c0.01-0.273,0.029-0.546,0.032-0.819c0-0.072-0.005-0.144-0.006-0.216
	c0.187,0.009,0.373,0.019,0.56,0.027c0.267,0.011,0.535,0.011,0.8,0.042c-0.004,0-0.009-0.001-0.013-0.002
	c0.142,0.019,0.284,0.036,0.427,0.053c0.032,0.712-0.02,1.431-0.047,2.14c-0.025,0.628-0.041,1.263-0.029,1.894
	c-0.166,0.007-0.333,0.011-0.498,0.024c-0.138,0.011-0.277,0.031-0.414,0.055c-0.185,0.034-0.348,0.149-0.489,0.267
	c-0.254,0.212-0.298,0.527-0.338,0.833c0.01-0.076,0.019-0.155,0.031-0.231c-0.046,0.327-0.115,0.649-0.181,0.972
	c-0.067,0.331-0.159,0.654-0.283,0.968c0.013-0.031,0.026-0.061,0.039-0.091c-0.017,0.039-0.033,0.079-0.05,0.119
	c-0.011,0.028-0.023,0.056-0.034,0.084c0.004-0.01,0.008-0.02,0.012-0.03c-0.181,0.436-0.365,0.887-0.636,1.273
	c-0.145,0.176-0.294,0.338-0.468,0.487c-0.103,0.071-0.21,0.131-0.323,0.186c-0.431,0.165-0.878,0.285-1.329,0.373
	c-0.657,0.075-1.325,0.094-1.985,0.091c-0.359-0.002-0.718-0.002-1.077-0.023c-0.087-0.005-0.174-0.02-0.261-0.028
	c-0.01-0.412-0.002-0.825,0-1.236c0-0.516-0.002-1.031-0.004-1.547c-0.002-0.527-0.002-1.054-0.006-1.582
	c-0.002-0.265-0.002-0.533-0.013-0.798c-0.011-0.26-0.037-0.515-0.071-0.772c-0.043-0.35-0.042-0.701-0.045-1.052
	c-0.002-0.195-0.002-0.388-0.01-0.583c-0.005-0.154-0.019-0.313-0.041-0.47c-0.005-0.77-0.017-1.54-0.01-2.311
	c0.004-0.523,0.002-1.047,0.027-1.568c0.019-0.392,0.054-0.783,0.091-1.175c0.092-0.002,0.185-0.005,0.277-0.007
	C15.515,3.604,15.748,3.622,15.981,3.625z M8.88,10.264C8.882,9.687,8.892,9.11,8.914,8.533c0.021-0.577,0.021-1.154,0.031-1.73
	c0.004-0.363-0.012-0.726-0.021-1.088c0.554-0.032,1.108-0.07,1.661-0.102c0.006,0.23,0.012,0.46,0.017,0.69
	c-0.019,1.627-0.035,3.254-0.056,4.883c-0.004,0.401,0.338,0.735,0.735,0.735c0.401,0,0.733-0.334,0.735-0.735
	c0.001-0.663-0.005-1.325-0.011-1.988c0.068,0.005,0.136,0.012,0.203,0.009c0.248-0.003,0.493-0.061,0.738-0.101
	c0.125-0.014,0.25-0.024,0.376-0.027c0.022,0.309,0.025,0.618,0.032,0.928c0.01,0.394,0.055,0.779,0.111,1.165
	c0.053,0.475,0.055,0.952,0.055,1.429c0,0.502,0,1.005,0,1.507c-0.002,0.481-0.006,0.963-0.004,1.444
	c0.001,0.308,0.005,0.616,0.007,0.925c-0.312-0.072-0.621-0.158-0.921-0.272c-0.356-0.179-0.706-0.377-1.032-0.608
	c-0.11-0.094-0.212-0.194-0.306-0.303c-0.092-0.132-0.168-0.271-0.236-0.416c-0.143-0.386-0.216-0.788-0.34-1.182
	c-0.172-0.552-0.348-1.1-0.504-1.658c-0.041-0.147-0.129-0.265-0.233-0.366C9.915,11.6,9.875,11.53,9.817,11.472
	c-0.147-0.147-0.327-0.206-0.531-0.22c-0.134-0.009-0.268-0.014-0.402-0.022C8.878,10.908,8.879,10.586,8.88,10.264z M23.445,28.233
	c0.004-0.032,0.008-0.064,0.012-0.096c-0.002,0.013-0.003,0.026-0.005,0.04C23.45,28.195,23.447,28.214,23.445,28.233z
	 M24.769,14.645c-0.034,0.776-0.097,1.551-0.16,2.327c-0.065,0.804-0.134,1.608-0.201,2.411c-0.067,0.793-0.176,1.578-0.262,2.367
	c-0.12,1.083-0.227,2.168-0.342,3.251c-0.053,0.52-0.111,1.039-0.176,1.557c-0.065,0.523-0.106,1.047-0.17,1.57
	c-0.015,0.106-0.035,0.211-0.051,0.317c-0.503-0.003-1.006-0.004-1.507-0.018c-0.412-0.012-0.825-0.015-1.237-0.015
	c-0.321,0-0.642,0.002-0.964,0.004c-0.315,0.004-0.628,0.004-0.944,0.004c-0.403,0-0.808,0-1.209,0.004
	c-0.728,0.01-1.454,0.031-2.179,0.042c-1.005,0.013-2.01,0.015-3.014,0.004c-0.868-0.01-1.737-0.022-2.605-0.001
	c-0.046-0.188-0.085-0.378-0.122-0.565c-0.073-0.351-0.134-0.705-0.202-1.058c-0.145-0.764-0.3-1.526-0.441-2.292
	c-0.155-0.84-0.306-1.681-0.439-2.523c-0.132-0.821-0.243-1.646-0.363-2.47c-0.137-0.924-0.307-1.842-0.442-2.767
	c-0.096-0.756-0.161-1.516-0.24-2.276c-0.063-0.608-0.102-1.217-0.142-1.826c0.425,0.005,0.848,0.023,1.272,0.038
	c0.086,0.285,0.173,0.571,0.276,0.852c0.109,0.3,0.222,0.6,0.302,0.909c0.094,0.35,0.189,0.678,0.332,1.01
	c0.248,0.577,0.636,1.058,1.156,1.415c0.609,0.418,1.289,0.751,1.998,0.957c0.634,0.184,1.297,0.267,1.951,0.354
	c0.656,0.09,1.306,0.118,1.97,0.124c0.642,0.005,1.287,0.004,1.926-0.072c0.747-0.11,1.494-0.325,2.174-0.66
	c0.267-0.132,0.51-0.329,0.722-0.537c0.101-0.101,0.189-0.216,0.281-0.323c0.132-0.157,0.264-0.317,0.369-0.493
	c0.172-0.283,0.317-0.577,0.451-0.879c0.16-0.367,0.338-0.724,0.474-1.104c0.097-0.275,0.162-0.563,0.223-0.85
	c0.025-0.118,0.051-0.238,0.073-0.358c0.317-0.026,0.636-0.038,0.952-0.045c0.181-0.004,0.357-0.027,0.532-0.056
	C24.794,13.53,24.794,14.087,24.769,14.645z M18.438,18.292c0.034-0.005,0.068-0.01,0.101-0.014
	c0.038-0.005,0.076-0.009,0.115-0.014C18.581,18.272,18.508,18.282,18.438,18.292z M14.64,18.225c0.001,0,0.002,0,0.003,0
	c0.068,0.009,0.136,0.019,0.203,0.028C14.778,18.244,14.709,18.234,14.64,18.225z M21.167,14.35
	c0.011-0.027,0.022-0.054,0.033-0.081c-0.004,0.009-0.007,0.018-0.011,0.027C21.182,14.313,21.175,14.332,21.167,14.35z
	 M18.914,20.966c-0.267-0.267-0.63-0.447-0.974-0.592c-0.045-0.019-0.089-0.037-0.133-0.052c-0.048-0.05-0.103-0.094-0.163-0.129
	c-0.125-0.073-0.251-0.101-0.382-0.101c-0.072,0-0.145,0.009-0.22,0.023c-0.632,0.116-1.27,0.363-1.74,0.815
	c-0.453,0.434-0.617,1.035-0.678,1.639c-0.034,0.315-0.034,0.611,0.027,0.924c0.065,0.338,0.248,0.621,0.464,0.879
	c0.115,0.138,0.271,0.247,0.418,0.344c0.189,0.13,0.405,0.22,0.625,0.283c0.405,0.116,0.84,0.168,1.261,0.12
	c0.306-0.034,0.59-0.088,0.879-0.2c0.267-0.105,0.46-0.2,0.682-0.388c0.136-0.116,0.252-0.269,0.34-0.422
	c0.323-0.558,0.401-1.223,0.311-1.851C19.558,21.743,19.274,21.325,18.914,20.966z M18.033,22.855
	c-0.014,0.074-0.032,0.147-0.056,0.219c-0.025,0.046-0.051,0.091-0.079,0.135c-0.016,0.017-0.033,0.034-0.05,0.051
	c-0.017,0.01-0.034,0.02-0.052,0.029c-0.137,0.048-0.276,0.086-0.419,0.113c-0.162,0.013-0.322,0.011-0.484-0.002
	c-0.13-0.024-0.256-0.057-0.381-0.099c-0.05-0.026-0.098-0.054-0.145-0.084c-0.028-0.027-0.056-0.055-0.082-0.083
	c-0.015-0.025-0.029-0.05-0.042-0.076c-0.018-0.054-0.032-0.108-0.044-0.164c-0.007-0.122-0.004-0.242,0.007-0.364
	c0.017-0.084,0.039-0.166,0.067-0.247c0.032-0.062,0.067-0.123,0.106-0.182c0.058-0.067,0.12-0.128,0.185-0.187
	c0.081-0.054,0.165-0.1,0.253-0.142c0.056-0.02,0.113-0.037,0.171-0.053c0.036,0.03,0.076,0.057,0.118,0.081
	c0.204,0.112,0.422,0.223,0.617,0.353c0.071,0.062,0.139,0.13,0.201,0.2c0.032,0.048,0.061,0.098,0.087,0.149
	c0.01,0.031,0.018,0.062,0.025,0.093C18.041,22.682,18.039,22.769,18.033,22.855z"/>
</svg>