<?xml version="1.0" encoding="utf-8"?>
<!-- Generator: Adobe Illustrator 21.1.0, SVG Export Plug-In . SVG Version: 6.00 Build 0)  -->
<svg version="1.1" id="designs" xmlns="http://www.w3.org/2000/svg" xmlns:xlink="http://www.w3.org/1999/xlink" x="0px" y="0px"
	 width="32px" height="32px" viewBox="0 0 32 32" style="enable-background:new 0 0 32 32;" xml:space="preserve">
<style type="text/css">
	.sketchy_een{fill:#111918;}
</style>
<path class="sketchy_een" d="M15.646,3.678c-0.028-0.022-0.057-0.043-0.084-0.064c-0.009-0.007-0.018-0.014-0.027-0.022
	C15.572,3.621,15.61,3.65,15.646,3.678z M28.994,17.852c0.002,0.166,0.012,0.334,0,0.498c-0.019,0.23-0.051,0.462-0.101,0.689
	c-0.082,0.355-0.201,0.702-0.326,1.046c-0.148,0.4-0.32,0.792-0.542,1.155c-0.224,0.371-0.496,0.708-0.796,1.02
	c-0.217,0.226-0.445,0.431-0.714,0.597c-0.15,0.09-0.3,0.179-0.458,0.257c-0.174,0.087-0.356,0.154-0.536,0.227
	c0.04,0.137,0.086,0.272,0.121,0.411c0.183,0.722,0.336,1.449,0.515,2.169c0.084,0.33,0.154,0.663,0.238,0.991
	c0.074,0.285,0.174,0.56,0.211,0.851c0.012,0.103-0.016,0.213-0.064,0.316c-0.055,0.427-0.405,0.72-0.831,0.747
	c-0.185,0.012-0.373,0.008-0.558,0.018c-0.242,0.011-0.484,0.015-0.726,0.025c-0.691,0.025-1.391,0.041-2.082-0.02
	c-0.406-0.037-0.81-0.052-1.217-0.068c-0.417-0.016-0.835-0.041-1.251-0.041c-0.41,0.002-0.817,0.008-1.227,0.014
	c-0.386,0.008-0.773,0.029-1.159,0.02c-0.388-0.01-0.776-0.008-1.165-0.006c-0.396,0.002-0.792-0.027-1.188-0.033
	c-0.392-0.004-0.786-0.004-1.18-0.016c-0.361-0.01-0.724-0.002-1.085-0.025c-0.336-0.021-0.671-0.023-1.007-0.025
	c-0.414-0.002-0.827-0.012-1.241-0.02c-0.761-0.012-1.524-0.012-2.285-0.012c-0.851,0.002-1.701,0.041-2.552,0.06
	c-0.019,0-0.035-0.01-0.054-0.01c-0.086,0.031-0.176,0.053-0.269,0.053c-0.414,0-0.839-0.369-0.806-0.806
	c0.025-0.341,0.08-0.677,0.135-1.012c0.055-0.338,0.103-0.673,0.158-1.009c0.107-0.677,0.209-1.354,0.322-2.029
	c0.129-0.757,0.254-1.516,0.384-2.273c0.07-0.402,0.162-0.798,0.236-1.2C5.971,20,6.044,19.586,6.11,19.17
	c0.129-0.812,0.279-1.617,0.449-2.423c0.141-0.667,0.251-1.34,0.359-2.014c-0.082-0.116-0.163-0.233-0.248-0.347
	c-0.451-0.57-0.949-1.098-1.41-1.658c-0.533-0.652-1.053-1.311-1.578-1.97c-0.107-0.136-0.174-0.271-0.2-0.433
	C3.201,10.201,3,9.919,3,9.598c0-0.424,0.355-0.79,0.782-0.79c0.003,0,0.007,0,0.01,0c1.377,0.016,2.755,0.053,4.134,0.057
	c0.11,0,0.22,0,0.33,0c0.075-0.32,0.156-0.639,0.227-0.96c0.105-0.49,0.203-0.983,0.306-1.475c0.048-0.234,0.219-0.405,0.426-0.506
	C9.328,5.615,9.62,5.397,9.963,5.389c0.06-0.002,0.121-0.002,0.179-0.004c0.617-0.009,1.234,0,1.85,0.006
	c0.015-0.448,0.099-0.888,0.319-1.286c0.164-0.296,0.417-0.531,0.708-0.7c0.17-0.098,0.361-0.195,0.556-0.223
	c0.194-0.027,0.412-0.073,0.617-0.073c0.031,0,0.061,0.001,0.091,0.003c0.332,0.025,0.599,0.099,0.895,0.254
	c0.14,0.073,0.26,0.156,0.382,0.248c0.172,0.138,0.314,0.279,0.43,0.478c0.094,0.158,0.162,0.338,0.215,0.513
	c0.081,0.267,0.158,0.543,0.199,0.822c0.257,0.001,0.514,0.006,0.772,0.008c0.669,0.004,1.338-0.039,2.006-0.057
	c0.006,0,0.013,0,0.019,0c0.417,0,0.761,0.369,0.761,0.781c0,0.038-0.017,0.074-0.023,0.111c0.281,0.08,0.518,0.293,0.599,0.59
	c0.113,0.412,0.224,0.823,0.359,1.227c0.074,0.219,0.147,0.439,0.221,0.659c0.022-0.002,0.044-0.009,0.066-0.009
	c0.348,0,0.7,0.229,0.78,0.585c0.018,0.084,0.037,0.166,0.055,0.25c0.128,0.598,0.257,1.196,0.387,1.793
	c0.285,0.024,0.57,0.045,0.855,0.077c0.328,0.037,0.659,0.053,0.983,0.117c0.32,0.064,0.636,0.15,0.952,0.226
	c0.246,0.059,0.484,0.125,0.716,0.22c0.168,0.068,0.343,0.137,0.501,0.228c0.205,0.117,0.382,0.283,0.552,0.443
	c0.254,0.24,0.511,0.466,0.736,0.734c0.148,0.179,0.295,0.363,0.431,0.552c0.146,0.205,0.252,0.408,0.343,0.644
	c0.131,0.334,0.228,0.685,0.318,1.032C28.985,16.365,28.988,17.104,28.994,17.852z M13.636,5.17
	c-0.004,0.077,0.001,0.154,0.001,0.231c0.364,0.001,0.729,0.002,1.093,0.009c-0.032-0.164-0.068-0.328-0.123-0.485
	c-0.012-0.023-0.024-0.046-0.037-0.068c-0.001-0.001-0.002-0.002-0.003-0.003c-0.064-0.04-0.13-0.076-0.197-0.109
	C14.34,4.736,14.31,4.728,14.28,4.72c-0.08-0.001-0.158,0.003-0.237,0.01c-0.047,0.008-0.094,0.018-0.141,0.031
	c-0.041,0.021-0.08,0.044-0.118,0.069c-0.016,0.015-0.032,0.031-0.047,0.047c-0.015,0.024-0.028,0.048-0.042,0.073
	C13.672,5.024,13.653,5.097,13.636,5.17z M9.895,8.864c0.639,0,1.278,0,1.917,0c0.8-0.002,1.6-0.016,2.4-0.002
	c0.359,0.006,0.718,0.023,1.075,0.031c0.398,0.01,0.796,0.008,1.194,0.014c0.71,0.012,1.42,0.016,2.13,0.027
	c0.281,0.005,0.561,0.013,0.841,0.017c-0.062-0.162-0.115-0.327-0.179-0.488C19.127,8.087,19,7.704,18.885,7.316
	c-0.038-0.128-0.034-0.257-0.01-0.381c-0.268-0.007-0.537-0.009-0.806,0.001c-0.215,0.01-0.431,0.008-0.648,0.008
	c-0.107-0.002-0.215-0.002-0.322-0.002c-0.73,0.006-1.457-0.033-2.187-0.049c-1.518-0.036-3.035,0.036-4.553,0.093
	c-0.102,0.45-0.21,0.898-0.323,1.347C9.991,8.51,9.942,8.687,9.895,8.864z M6.83,12.212c0.371,0.402,0.704,0.833,1.03,1.268
	c0.013-0.001,0.023-0.006,0.036-0.008c0.47-0.047,0.942-0.092,1.414-0.109c0.388-0.016,0.776-0.025,1.165-0.045
	c0.24-0.012,0.482-0.01,0.724-0.008c0.135,0.002,0.269,0.002,0.404,0c0.185-0.002,0.373,0,0.56,0.002
	c0.185,0.002,0.373,0.002,0.56,0c0.328-0.004,0.656,0,0.983,0.002c0.466,0.002,0.933,0.006,1.399-0.01
	c0.382-0.012,0.765-0.047,1.149-0.06c0.414-0.014,0.827-0.035,1.241-0.047c0.708-0.021,1.414-0.047,2.123-0.061
	c0.263-0.004,0.531-0.002,0.796,0c0.277,0.001,0.554-0.007,0.831-0.013c-0.068-0.283-0.135-0.566-0.208-0.847
	c-0.152-0.595-0.291-1.194-0.432-1.792c-0.532-0.001-1.064-0.023-1.597-0.015c-0.587,0.008-1.18,0.016-1.768-0.004
	c-1.233-0.043-2.468-0.104-3.703-0.109c-1.608-0.006-3.213-0.018-4.821-0.014c-1.14,0.004-2.281,0.02-3.422,0.033
	c0.095,0.125,0.19,0.25,0.286,0.375C5.978,11.255,6.396,11.741,6.83,12.212z M24.803,27.16c-0.079-0.311-0.154-0.622-0.239-0.931
	c-0.197-0.72-0.353-1.452-0.55-2.171c-0.197-0.714-0.427-1.417-0.63-2.127c-0.228-0.8-0.445-1.602-0.632-2.411
	c-0.187-0.814-0.347-1.633-0.527-2.45c-0.164-0.757-0.375-1.503-0.576-2.252c-0.394-0.006-0.787-0.029-1.183-0.035
	c-0.302-0.004-0.607-0.008-0.911-0.02c-0.38-0.018-0.761,0.002-1.141,0.018c-0.349,0.014-0.698,0.01-1.048,0.016
	c-0.808,0.014-1.615,0.061-2.423,0.08c-0.788,0.018-1.578-0.002-2.366-0.01c-0.267-0.002-0.535,0-0.802,0
	c-0.462,0.002-0.923,0.002-1.383-0.011c-0.367-0.012-0.735,0.021-1.1,0.054c-0.255,0.025-0.508,0.054-0.762,0.082
	c-0.19,1.014-0.42,2.018-0.648,3.024c-0.179,0.8-0.267,1.613-0.416,2.419c-0.152,0.821-0.308,1.643-0.439,2.468
	c-0.119,0.736-0.224,1.471-0.347,2.205c-0.109,0.66-0.228,1.32-0.326,1.983c0.345,0.005,0.69,0.012,1.035,0.017
	c0.421,0.006,0.845,0.002,1.266-0.004c0.349-0.002,0.696-0.006,1.046-0.006c0.821,0.006,1.641,0.019,2.462,0.043
	c0.156,0.004,0.312,0.004,0.47,0.002c0.156,0,0.312-0.002,0.47,0.002c0.382,0.01,0.767,0.025,1.149,0.031
	c0.402,0.008,0.806,0.02,1.208,0.01c0.384-0.012,0.767-0.025,1.151-0.025c0.773,0.004,1.543-0.021,2.316-0.043
	c0.406-0.01,0.812-0.023,1.217-0.029c0.433-0.006,0.864,0.031,1.297,0.06c0.449,0.029,0.897,0.02,1.346,0.01
	c0.275-0.006,0.552-0.012,0.829-0.01C24.012,27.153,24.408,27.162,24.803,27.16z M27.422,17.432c-0.006-0.248-0.03-0.494-0.06-0.74
	c-0.044-0.28-0.117-0.55-0.206-0.819c-0.077-0.228-0.149-0.46-0.236-0.686c-0.071-0.135-0.153-0.26-0.242-0.383
	c-0.165-0.202-0.337-0.404-0.526-0.582c-0.185-0.172-0.367-0.35-0.56-0.515c-0.082-0.05-0.168-0.093-0.256-0.132
	c-0.271-0.107-0.549-0.188-0.833-0.268c-0.307-0.084-0.605-0.195-0.92-0.244c-0.269-0.032-0.541-0.044-0.812-0.064
	c0.116,0.504,0.235,1.007,0.377,1.505c0.222,0.777,0.445,1.551,0.642,2.335c0.197,0.788,0.359,1.586,0.554,2.376
	c0.199,0.792,0.406,1.584,0.636,2.368c0.028,0.094,0.06,0.187,0.089,0.281c0.008-0.003,0.016-0.006,0.025-0.009
	c0.258-0.124,0.503-0.281,0.735-0.449c0.213-0.201,0.414-0.423,0.6-0.653c0.208-0.293,0.38-0.598,0.525-0.926
	c0.196-0.485,0.37-0.981,0.462-1.497C27.441,18.034,27.429,17.732,27.422,17.432z M22.448,23.601
	c-0.094-0.263-0.15-0.537-0.236-0.802c-0.062-0.199-0.127-0.394-0.18-0.597c-0.06-0.238-0.109-0.478-0.176-0.716
	c-0.08-0.292-0.191-0.575-0.283-0.862c-0.105-0.333-0.195-0.671-0.291-1.009c-0.209-0.747-0.328-1.52-0.507-2.275
	c-0.087-0.362-0.439-0.597-0.797-0.597c-0.069,0-0.138,0.009-0.206,0.027c-0.435,0.121-0.675,0.572-0.568,1.003
	c0.181,0.729,0.347,1.465,0.564,2.187c0.105,0.347,0.207,0.694,0.308,1.044c0.088,0.298,0.197,0.593,0.283,0.893
	c0.123,0.427,0.205,0.862,0.365,1.278c0.101,0.261,0.176,0.532,0.258,0.8c0.059,0.195,0.141,0.382,0.193,0.577
	c0.109,0.398,0.535,0.638,0.933,0.529c0.404-0.111,0.63-0.531,0.529-0.931C22.589,23.962,22.514,23.783,22.448,23.601z"/>
</svg>