<?xml version="1.0" encoding="utf-8"?>
<!-- Generator: Adobe Illustrator 21.1.0, SVG Export Plug-In . SVG Version: 6.00 Build 0)  -->
<svg version="1.1" id="designs" xmlns="http://www.w3.org/2000/svg" xmlns:xlink="http://www.w3.org/1999/xlink" x="0px" y="0px"
	 width="32px" height="32px" viewBox="0 0 32 32" style="enable-background:new 0 0 32 32;" xml:space="preserve">
<style type="text/css">
	.sketchy_een{fill:#111918;}
</style>
<path class="sketchy_een" d="M29.658,22.257c0.01-1.51,0.07-3.019,0.095-4.527c0.023-1.454,0.226-2.899,0.248-4.353
	c0.001-0.075-0.022-0.144-0.042-0.212c0.046-0.319-0.096-0.657-0.387-0.824c-0.197-0.11-0.409-0.188-0.619-0.271
	c-0.316-0.143-0.626-0.302-0.938-0.456c-0.344-0.17-0.7-0.317-1.046-0.487c-0.336-0.164-0.667-0.34-1.004-0.504
	c-0.338-0.165-0.685-0.319-1.027-0.476c-0.7-0.319-1.4-0.634-2.098-0.955c-0.768-0.35-1.528-0.718-2.307-1.042
	c-0.331-0.137-0.665-0.272-0.996-0.41c0.056,0.025,0.114,0.048,0.17,0.073c-0.666-0.282-1.327-0.576-1.993-0.858
	c0.016,0.007,0.031,0.014,0.047,0.021c-0.147-0.063-0.295-0.125-0.442-0.188c0.011,0.004,0.022,0.009,0.034,0.014
	c-0.021-0.009-0.042-0.018-0.064-0.027c-0.005-0.002-0.01-0.004-0.015-0.006c0.005,0.002,0.009,0.004,0.014,0.006
	c-0.371-0.157-0.744-0.311-1.114-0.466c0.058,0.025,0.116,0.05,0.174,0.075c-0.884-0.377-1.764-0.762-2.646-1.143
	c-0.489-0.211-0.98-0.414-1.477-0.607c-0.534-0.209-1.081-0.385-1.63-0.553c-0.071-0.021-0.142-0.032-0.213-0.032
	c-0.211,0-0.408,0.097-0.558,0.245C9.792,4.288,9.761,4.279,9.73,4.279c-0.136,0-0.271,0.036-0.389,0.116
	C8.598,4.9,7.904,5.463,7.24,6.066c-0.605,0.553-1.201,1.11-1.756,1.715c-0.586,0.641-1.16,1.306-1.669,2.01
	c-0.466,0.646-0.872,1.32-1.23,2.032c-0.167,0.333-0.288,0.686-0.397,1.042c-0.069,0.119-0.121,0.249-0.132,0.395
	C2.002,14.049,1.998,14.838,2,15.631c0.002,0.75,0.066,1.501,0.087,2.251c0.023,0.733,0.05,1.468,0.064,2.201
	c0.012,0.76,0.01,1.518,0.008,2.276c0,0.837-0.01,1.673-0.004,2.508c0.002,0.363-0.021,0.735,0.023,1.095
	c0.037,0.303,0.087,0.572,0.251,0.839c0.176,0.288,0.468,0.468,0.731,0.667c0.042,0.024,0.093,0.021,0.138,0.037
	c0.019,0.015,0.036,0.03,0.056,0.045c0.116,0.087,0.284,0.141,0.412,0.195c0.07,0.027,0.137,0.05,0.209,0.074
	c0.321,0.101,0.685,0.106,1.019,0.112c0.333,0.008,0.665,0.002,1,0.002c0.42,0.002,0.841,0.016,1.261,0.02
	c0.822,0.008,1.638-0.064,2.458-0.076c0.857-0.015,1.713-0.008,2.57-0.004c0.839,0.002,1.677-0.035,2.514-0.035
	c0.286,0,0.576,0,0.864,0.002c0.518,0,1.038,0.002,1.557-0.006c0.83-0.01,1.657-0.06,2.485-0.073
	c0.839-0.014,1.679-0.021,2.518-0.014c0.555,0.004,1.11,0.012,1.665,0.012c0.538,0.002,1.077-0.002,1.615,0.029
	c0.551,0.033,1.104,0.077,1.657,0.099c0.242,0.01,0.485,0.018,0.725-0.002c0.249-0.02,0.505-0.037,0.737-0.133
	c0.238-0.097,0.451-0.213,0.661-0.356c0.19-0.129,0.331-0.286,0.395-0.512c0.053-0.197,0.024-0.406-0.063-0.591
	c0.002-0.015,0.008-0.028,0.01-0.043c0.031-0.273,0.01-0.551,0.008-0.826c-0.004-0.344,0-0.69,0.004-1.037
	C29.642,23.676,29.652,22.967,29.658,22.257z M5.384,10.316c0.547-0.697,1.12-1.368,1.738-2.002C7.724,7.695,8.37,7.117,9.051,6.586
	c0.361-0.274,0.732-0.53,1.113-0.779c0.055-0.036,0.094-0.085,0.139-0.131c0.729,0.218,1.451,0.446,2.164,0.714
	c0.69,0.261,1.379,0.524,2.06,0.81c-0.06-0.025-0.118-0.05-0.178-0.075c1.127,0.478,2.264,0.928,3.392,1.402
	c-0.007-0.003-0.013-0.006-0.02-0.009c0.143,0.061,0.286,0.122,0.429,0.183c-0.01-0.004-0.02-0.009-0.03-0.013
	c0.02,0.009,0.039,0.017,0.059,0.025c0.017,0.007,0.034,0.015,0.051,0.022c-0.011-0.004-0.021-0.009-0.032-0.014
	c0.051,0.022,0.103,0.044,0.154,0.065c-0.033-0.014-0.065-0.028-0.099-0.043c0.101,0.042,0.201,0.085,0.302,0.127
	c-0.017-0.007-0.034-0.014-0.051-0.021c0.068,0.029,0.136,0.058,0.204,0.086c0.36,0.151,0.719,0.299,1.08,0.45
	c0.684,0.296,1.362,0.61,2.044,0.91c0.737,0.325,1.466,0.666,2.195,1.01c0.346,0.162,0.688,0.336,1.027,0.514
	c0.313,0.165,0.615,0.352,0.928,0.517c0.048,0.025,0.099,0.047,0.148,0.072c-0.011,0-0.021,0-0.032,0
	c-0.843,0-1.688,0.01-2.531-0.046c-0.583-0.04-1.166-0.054-1.749-0.054c-1.074,0-2.148,0.05-3.222,0.089
	c-1.655,0.06-3.309,0.106-4.964,0.136c-0.849,0.013-1.698,0.033-2.547,0.046c-0.837,0.013-1.673-0.025-2.508-0.058
	c-0.797-0.031-1.594-0.039-2.39-0.039c-0.269,0.002-0.538,0-0.806-0.002c-0.443-0.003-0.885-0.003-1.326,0.005
	c0.169-0.348,0.347-0.693,0.541-1.025C4.83,11.061,5.105,10.684,5.384,10.316z M14.635,14.321c-0.046,0.274-0.118,0.547-0.213,0.809
	c-0.059,0.124-0.126,0.239-0.204,0.352c-0.148,0.18-0.305,0.348-0.482,0.499c-0.138,0.094-0.282,0.174-0.433,0.245
	c-0.161,0.061-0.323,0.112-0.49,0.147c-0.142,0.007-0.283,0-0.424-0.015c-0.204-0.034-0.405-0.079-0.6-0.148
	c-0.258-0.125-0.512-0.275-0.746-0.442c-0.079-0.067-0.153-0.139-0.223-0.217c-0.1-0.144-0.188-0.295-0.264-0.453
	c-0.05-0.144-0.087-0.287-0.118-0.436c-0.021-0.197-0.026-0.394-0.033-0.59c0.227,0.01,0.454,0.024,0.682,0.029
	c0.849,0.015,1.698,0.031,2.547,0.046c0.334,0.005,0.668,0.006,1.003,0.011C14.632,14.212,14.639,14.266,14.635,14.321z
	 M10.59,15.189c-0.017-0.041-0.034-0.081-0.051-0.122c0.004,0.01,0.009,0.021,0.013,0.031C10.565,15.129,10.577,15.159,10.59,15.189
	z M11.503,24.462c-0.121,0.262-0.262,0.519-0.429,0.756c-0.073,0.084-0.15,0.162-0.233,0.236c-0.263,0.19-0.549,0.37-0.842,0.511
	c-0.06,0.02-0.119,0.038-0.181,0.053c-0.181,0.042-0.327,0.154-0.432,0.298c-0.011,0-0.022,0-0.033,0.001
	c-0.07-0.16-0.185-0.301-0.344-0.396c-0.161-0.098-0.327-0.19-0.483-0.296c-0.095-0.085-0.185-0.172-0.268-0.271
	c-0.177-0.248-0.336-0.503-0.463-0.781c-0.079-0.213-0.138-0.425-0.177-0.648c-0.026-0.263-0.022-0.521,0.004-0.782
	C7.649,23,7.683,22.861,7.732,22.72c0.103-0.22,0.219-0.431,0.352-0.635c0.055-0.062,0.113-0.119,0.174-0.173
	c0.238-0.159,0.497-0.282,0.76-0.396c0.213-0.079,0.425-0.146,0.647-0.19c0.104-0.01,0.208-0.014,0.314-0.012
	c0.134,0.027,0.262,0.064,0.392,0.11c0.181,0.085,0.352,0.181,0.519,0.294c0.185,0.157,0.353,0.329,0.509,0.516
	c0.039,0.056,0.074,0.112,0.106,0.172c0.061,0.179,0.097,0.366,0.126,0.553c0.034,0.317,0.045,0.635,0.021,0.954
	C11.618,24.101,11.57,24.282,11.503,24.462z M27.994,26.142c-0.457,0.03-0.916,0.024-1.373,0.019
	c-0.217-0.002-0.431-0.004-0.646-0.004c-0.367,0.002-0.735,0-1.102-0.001c-0.367-0.002-0.735-0.004-1.102-0.004
	c-0.783,0.002-1.568,0.013-2.352,0.011c-0.832-0.002-1.663-0.006-2.495,0.014c-0.843,0.021-1.684,0.042-2.526,0.042
	c-0.81,0.002-1.621,0.016-2.431,0.031c-0.535,0.01-1.071,0.016-1.607,0.022c0.084-0.111,0.163-0.226,0.236-0.34
	c0.222-0.346,0.402-0.731,0.532-1.12c0.135-0.395,0.161-0.835,0.137-1.249c-0.021-0.414-0.073-0.828-0.176-1.23
	c-0.073-0.288-0.168-0.594-0.35-0.83c-0.139-0.182-0.28-0.354-0.447-0.511c-0.663-0.628-1.52-1.134-2.453-1.134
	c-0.054,0-0.109,0.001-0.164,0.005c-0.396,0.025-0.791,0.135-1.16,0.276c-0.205,0.079-0.412,0.164-0.613,0.255
	c-0.278,0.127-0.518,0.282-0.762,0.472c-0.228,0.18-0.393,0.445-0.547,0.687c-0.099,0.159-0.184,0.325-0.265,0.493
	c-0.197,0.402-0.286,0.841-0.321,1.284C5.98,23.71,6.014,24.105,6.08,24.48c0.068,0.381,0.191,0.749,0.364,1.095
	c0.141,0.283,0.316,0.548,0.507,0.797c-0.144-0.006-0.287-0.003-0.43-0.009c-0.635-0.023-1.274-0.025-1.908-0.088
	c-0.099-0.019-0.196-0.044-0.292-0.077c-0.017-0.009-0.033-0.018-0.049-0.027c-0.025-0.024-0.049-0.05-0.073-0.077
	c-0.032-0.043-0.064-0.087-0.095-0.131c-0.126-0.173-0.264-0.3-0.468-0.367c-0.004-0.194-0.009-0.39-0.009-0.583
	c0.002-0.334,0.002-0.669,0.002-1.002c-0.002-0.775-0.006-1.549-0.006-2.322c-0.002-1.501-0.017-3-0.07-4.498
	c-0.021-0.625-0.052-1.246-0.039-1.87c0.009-0.471,0.047-0.94,0.079-1.41c0.076,0.027,0.154,0.048,0.239,0.042
	c0.783-0.064,1.57-0.027,2.354-0.023c0.799,0.006,1.593,0,2.39,0.044c0.037,0.002,0.075,0.005,0.112,0.007
	c0.031,0.863,0.164,1.745,0.677,2.463c0.108,0.153,0.222,0.3,0.352,0.433c0.151,0.157,0.338,0.285,0.518,0.406
	c0.35,0.24,0.75,0.449,1.153,0.578c0.385,0.126,0.801,0.178,1.203,0.205c0.402,0.025,0.793-0.071,1.166-0.211
	c0.238-0.091,0.482-0.186,0.708-0.307c0.238-0.13,0.464-0.306,0.669-0.482c0.311-0.269,0.627-0.574,0.826-0.939
	c0.211-0.393,0.362-0.828,0.431-1.269c0.035-0.231,0.055-0.46,0.051-0.689c0.717-0.007,1.434-0.025,2.153-0.035
	c0.849-0.012,1.696-0.033,2.545-0.054c0.808-0.02,1.619-0.012,2.427-0.02c0.845-0.007,1.688-0.029,2.531-0.015
	c0.778,0.013,1.554,0.067,2.329,0.127c-0.016,0.561-0.04,1.121-0.068,1.682c-0.041,0.801-0.07,1.6-0.087,2.4
	c-0.017,0.771-0.056,1.542-0.077,2.313c-0.023,0.741-0.027,1.483-0.021,2.226c0.006,0.617,0.016,1.233,0.019,1.853
	c0.002,0.294,0.002,0.59,0,0.884c-0.001,0.173-0.003,0.347-0.007,0.52c-0.044,0.025-0.087,0.054-0.132,0.077
	C28.035,26.132,28.015,26.137,27.994,26.142z M18.179,8.713C18.169,8.709,18.16,8.705,18.15,8.7
	c0.016,0.007,0.032,0.014,0.048,0.021C18.192,8.718,18.185,8.716,18.179,8.713z M25.564,18.403
	c-0.083-0.234-0.195-0.457-0.325-0.667c-0.418-0.685-1.104-1.168-1.814-1.514c-0.391-0.189-0.81-0.333-1.216-0.493
	c-0.068-0.027-0.139-0.04-0.211-0.04c-0.153,0-0.309,0.056-0.44,0.145c-0.351,0.016-0.706,0.05-1.038,0.156
	c-0.199,0.064-0.394,0.145-0.576,0.25c-0.217,0.125-0.418,0.302-0.607,0.462c-0.344,0.29-0.607,0.685-0.841,1.063
	c-0.236,0.383-0.387,0.835-0.458,1.28c-0.062,0.383-0.077,0.766-0.07,1.153c0.006,0.441,0.153,0.905,0.365,1.288
	c0.207,0.375,0.505,0.683,0.835,0.948c0.174,0.139,0.352,0.284,0.557,0.377c0.174,0.077,0.352,0.148,0.524,0.23
	c0.18,0.085,0.366,0.174,0.559,0.226c0.199,0.056,0.406,0.083,0.611,0.11c0.399,0.051,0.787,0.039,1.183-0.012
	c0.16-0.024,0.315-0.052,0.47-0.11c0.236-0.087,0.464-0.203,0.688-0.315c0.333-0.165,0.63-0.374,0.888-0.644
	c0.528-0.557,0.905-1.242,1.017-2.007c0.056-0.387,0.091-0.775,0.046-1.164C25.684,18.875,25.649,18.641,25.564,18.403z
	 M23.991,19.813c-0.042,0.242-0.108,0.48-0.193,0.71c-0.09,0.186-0.2,0.36-0.322,0.527c-0.099,0.123-0.202,0.242-0.319,0.348
	c-0.21,0.142-0.438,0.26-0.667,0.368c-0.07,0.023-0.14,0.042-0.212,0.057c-0.192,0.013-0.386,0.004-0.578-0.015
	c-0.163-0.031-0.322-0.071-0.478-0.127c-0.143-0.067-0.285-0.14-0.428-0.208c-0.182-0.085-0.351-0.173-0.514-0.285
	c-0.129-0.105-0.251-0.216-0.361-0.34c-0.069-0.098-0.131-0.198-0.183-0.307c-0.04-0.108-0.075-0.219-0.1-0.331
	c-0.013-0.243-0.004-0.486,0.02-0.728c0.035-0.203,0.089-0.398,0.16-0.593c0.113-0.237,0.256-0.455,0.412-0.666
	c0.114-0.139,0.236-0.264,0.372-0.38c0.095-0.069,0.192-0.134,0.296-0.189c0.099-0.035,0.2-0.063,0.303-0.083
	c0.228-0.015,0.457-0.021,0.687-0.024c0.121-0.002,0.238-0.029,0.343-0.076c0.341,0.163,0.674,0.342,0.982,0.562
	c0.189,0.158,0.37,0.327,0.531,0.514c0.071,0.104,0.133,0.213,0.19,0.327c0.031,0.09,0.056,0.182,0.075,0.276
	C24.023,19.371,24.014,19.592,23.991,19.813z M22.642,23.359c-0.013,0.002-0.026,0.003-0.039,0.005
	c-0.056,0.008-0.113,0.016-0.17,0.024C22.503,23.379,22.573,23.369,22.642,23.359z"/>
</svg>