<?xml version="1.0" encoding="utf-8"?>
<!-- Generator: Adobe Illustrator 21.1.0, SVG Export Plug-In . SVG Version: 6.00 Build 0)  -->
<svg version="1.1" id="designs" xmlns="http://www.w3.org/2000/svg" xmlns:xlink="http://www.w3.org/1999/xlink" x="0px" y="0px"
	 width="32px" height="32px" viewBox="0 0 32 32" style="enable-background:new 0 0 32 32;" xml:space="preserve">
<style type="text/css">
	.sketchy_een{fill:#111918;}
</style>
<path class="sketchy_een" d="M2.642,26.889c-0.222,0-0.439-0.09-0.596-0.246C1.89,26.487,1.8,26.271,1.8,26.049
	c0-0.24,0.1-0.414,0.25-0.601c0.439-0.545,1.122-1.331,1.97-1.86c0.314-0.196,0.655-0.363,0.988-0.524
	c0.38-0.184,0.763-0.364,1.153-0.528c0.345-0.144,0.689-0.28,1.048-0.384c0.403-0.114,0.778-0.187,1.146-0.225
	c0.151-0.018,0.303-0.023,0.454-0.028l0.563-0.019l-0.085-0.244L9.159,21.22c-0.08-0.254-0.16-0.508-0.224-0.765
	c-0.015-0.064-0.056-0.309-0.056-0.309c-0.35-0.147-0.686-0.222-1.011-0.291c-0.207-0.02-0.409-0.028-0.612-0.028
	c-0.605,0-1.197,0.071-1.852,0.156c-0.397,0.053-0.72,0.096-1.03,0.186c-0.263,0.075-0.517,0.17-0.77,0.273
	c-0.236,0.11-0.463,0.219-0.686,0.344c-0.212,0.119-0.415,0.25-0.62,0.382c-0.181,0.117-0.317,0.156-0.46,0.156
	c-0.296,0-0.581-0.161-0.726-0.41c-0.224-0.382-0.095-0.875,0.295-1.122c0.699-0.443,1.373-0.767,2.06-0.991
	c0.357-0.119,0.654-0.194,0.933-0.238c0.72-0.112,1.442-0.21,2.167-0.287c0.32-0.032,0.582-0.06,0.843-0.06l0.129,0.003
	c0.282,0.01,0.581,0.027,0.865,0.095l0.248,0.06l0.094-0.04c0.013-0.499,0.058-0.991,0.139-1.487l-0.163-0.138
	c-0.448-0.317-0.923-0.591-1.416-0.816c-0.48-0.178-1.02-0.32-1.656-0.435c-0.397-0.043-0.792-0.061-1.186-0.061
	c-0.541,0-1.128,0.034-1.795,0.105l-0.41,0.056C2.173,15.58,2.094,15.59,2.017,15.59c-0.078,0-0.157-0.011-0.234-0.031
	c-0.147-0.041-0.278-0.117-0.388-0.225c-0.163-0.163-0.256-0.389-0.256-0.621c0-0.234,0.091-0.455,0.256-0.62
	c0.172-0.171,0.353-0.223,0.627-0.259c0.681-0.087,1.301-0.129,1.894-0.129c0.141,0,0.282,0.002,0.424,0.008
	c0.693,0.023,1.433,0.068,2.147,0.241c0.795,0.19,1.454,0.431,2.015,0.737c0.256,0.139,0.507,0.294,0.754,0.452
	c0.181-0.342,0.302-0.652,0.446-0.95l0.015-0.03l-0.077-0.086c-0.277-0.307-0.553-0.613-0.812-0.935
	c-0.269-0.337-0.557-0.629-0.881-0.893c-0.366-0.272-0.737-0.523-1.106-0.745c-0.425-0.254-0.87-0.454-1.249-0.616
	c-0.223-0.088-0.45-0.161-0.676-0.232c-0.257-0.081-0.459-0.139-0.666-0.176c-0.278-0.028-0.552-0.042-0.827-0.047
	c-0.13-0.004-0.261-0.006-0.391-0.006c-0.204,0-0.407,0.006-0.61,0.024c-0.067,0.013-0.128,0.027-0.189,0.045
	c-0.12,0.09-0.254,0.127-0.41,0.127c-0.08,0-0.159-0.01-0.229-0.028c-0.198-0.056-0.37-0.188-0.473-0.365
	C0.941,9.923,0.994,9.502,1.242,9.269c0.365-0.34,0.823-0.412,1.26-0.457c0.353-0.036,0.705-0.04,1.059-0.043l0.105-0.002
	c0.432,0,0.792,0.031,1.134,0.097c0.778,0.152,1.596,0.452,2.43,0.892c0.703,0.373,1.378,0.854,2.006,1.43
	c0.328,0.3,0.61,0.629,0.843,0.911c0.167,0.202,0.344,0.395,0.524,0.586l0.039,0.042l0.069-0.084
	c0.125-0.153,0.253-0.31,0.404-0.436c0.394-0.324,0.796-0.586,1.195-0.779l0.046-0.022l0.058-0.083
	c-0.077-0.148-0.143-0.268-0.208-0.389c-0.066-0.122-0.133-0.246-0.19-0.373c-0.189-0.411-0.292-0.76-0.334-1.137
	c-0.068-0.591,0.067-1.21,0.209-1.737c0.254-0.947,0.694-1.611,1.307-1.973c0.525-0.313,1.215-0.515,1.994-0.585
	c0.126-0.011,0.255-0.016,0.384-0.016c0.254,0,0.511,0.02,0.756,0.049c0.435,0.052,0.898,0.121,1.341,0.267
	c0.238,0.078,0.468,0.159,0.677,0.275c0.239,0.131,0.452,0.306,0.627,0.461c0.356,0.316,0.586,0.587,0.745,0.879
	c0.49,0.9,0.332,1.966,0.14,2.793c-0.115,0.491-0.286,0.997-0.54,1.592l-0.024,0.056l0.104,0.024c0.23,0.082,0.377,0.142,0.52,0.215
	l0.604,0.293c0.202,0.098,0.403,0.207,0.579,0.341l0.138,0.118l0.084-0.001c0.539-0.798,1.015-1.42,1.499-1.958
	c0.154-0.173,0.277-0.313,0.415-0.428c0.213-0.178,0.433-0.349,0.658-0.513c0.304-0.222,0.611-0.44,0.92-0.657
	c0.852-0.597,1.586-0.975,2.312-1.191c0.431-0.129,0.837-0.215,1.24-0.261c0.285-0.032,0.571-0.045,0.858-0.058L29.339,7.4
	c0.418,0,0.8,0.402,0.8,0.842c0,0.222-0.09,0.439-0.246,0.596c-0.153,0.151-0.338,0.227-0.599,0.246
	c-0.337,0.025-0.673,0.056-1.01,0.095c-0.369,0.065-0.754,0.177-1.179,0.344c-0.819,0.374-1.532,0.899-2.311,1.493
	c-0.228,0.182-0.418,0.334-0.58,0.512c-0.138,0.154-0.268,0.313-0.394,0.473c-0.45,0.598-0.85,1.172-1.223,1.76
	c0.157,0.252,0.309,0.444,0.43,0.661c0.044,0.079,0.081,0.163,0.119,0.246l0.05,0.112c0.419-0.256,0.769-0.52,1.134-0.764
	c0.633-0.422,1.203-0.754,1.743-1.013c0.619-0.295,1.34-0.618,2.062-0.72c0.52-0.073,1.029-0.14,1.535-0.14
	c0.146,0,0.289,0.006,0.433,0.018c0.278,0.023,0.463,0.099,0.618,0.254c0.162,0.162,0.255,0.386,0.255,0.613
	c0,0.412-0.348,0.871-0.813,0.871c-0.202-0.015-0.354-0.019-0.505-0.019c-0.137,0-0.274,0.004-0.413,0.008
	c-0.246,0.009-0.494,0.019-0.739,0.044c-0.454,0.079-0.913,0.22-1.496,0.458c-0.412,0.188-0.818,0.391-1.214,0.608
	c-0.371,0.206-0.715,0.459-1.037,0.7c-0.235,0.195-0.897,0.76-0.897,0.76c0.111,0.471,0.188,0.858,0.219,1.234
	c0.426-0.051,0.792-0.151,1.164-0.238c0.477-0.111,0.966-0.189,1.451-0.268l0.259-0.041c0.339-0.058,0.623-0.084,0.894-0.084
	c0.373,0.007,0.711,0.013,1.028,0.078c0.528,0.109,1.137,0.249,1.671,0.529c0.2,0.104,0.347,0.289,0.414,0.523
	c0.073,0.25,0.042,0.526-0.082,0.738c-0.122,0.208-0.324,0.363-0.553,0.425c-0.076,0.021-0.153,0.031-0.229,0.031
	c-0.153,0-0.307-0.041-0.485-0.128c-0.484-0.197-0.887-0.313-1.269-0.377c-0.219-0.023-0.436-0.035-0.654-0.035
	c-0.136,0-0.272,0.005-0.408,0.017c-0.323,0.028-0.647,0.069-0.971,0.109l-0.178,0.022c-0.833,0.132-1.606,0.399-2.253,0.642
	l-0.071,0.241c-0.028,0.15-0.057,0.301-0.096,0.449c-0.041,0.163-0.092,0.321-0.143,0.48l-0.066,0.209l0.325,0.095
	c0.164,0.017,0.327,0.033,0.49,0.056c0.679,0.096,1.226,0.202,1.72,0.332c0.255,0.066,0.502,0.149,0.746,0.247
	c0.308,0.117,0.583,0.225,0.839,0.374c0.207,0.12,0.399,0.255,0.593,0.395l0.18,0.127c0.202,0.142,0.406,0.285,0.59,0.452
	c0.194,0.177,0.392,0.365,0.557,0.57c0.104,0.128,0.201,0.261,0.298,0.394l0.171,0.231c0.139,0.175,0.243,0.306,0.334,0.445
	c0.1,0.156,0.167,0.259,0.238,0.359l0.073,0.086c0.173,0.203,0.251,0.387,0.251,0.6c0,0.223-0.09,0.441-0.248,0.598
	c-0.157,0.156-0.373,0.246-0.596,0.246c-0.193,0-0.462-0.075-0.595-0.242c-0.166-0.209-0.32-0.404-0.457-0.607
	c0,0-0.179-0.275-0.241-0.362c-0.275-0.385-0.656-0.804-1.028-1.115c-0.199-0.146-0.405-0.278-0.609-0.411l-0.139-0.09
	c-0.229-0.15-0.489-0.287-0.816-0.431c-0.278-0.117-0.56-0.226-0.852-0.304c-0.351-0.097-0.706-0.173-1.065-0.234
	c-0.451-0.054-0.9-0.089-1.35-0.123l-0.094,0.127c-0.023,0.053-0.045,0.105-0.072,0.155c-0.26,0.482-0.499,0.841-0.777,1.16
	c-0.135,0.159-0.273,0.313-0.415,0.463c-0.164,0.172-0.363,0.332-0.628,0.502c-0.219,0.138-0.395,0.251-0.579,0.35
	c-0.227,0.124-0.47,0.211-0.713,0.297c-0.115,0.04-0.499,0.19-0.594,0.223c-0.198,0.068-0.403,0.108-0.608,0.147l-0.39,0.079
	c-0.378,0.079-0.77,0.161-1.16,0.18c-0.179,0.01-0.36,0.016-0.541,0.016c-0.236,0-0.473-0.011-0.705-0.038l-0.114-0.013
	c-0.445-0.049-0.905-0.101-1.348-0.196l-0.234-0.044c-0.134-0.024-0.268-0.048-0.399-0.085c-0.254-0.071-0.504-0.164-0.742-0.276
	c-0.478-0.232-0.861-0.488-1.208-0.807c-0.362-0.331-0.68-0.652-0.972-0.982c-0.07-0.079-0.134-0.164-0.198-0.249l-0.078-0.101
	c0,0-0.495-0.082-0.657-0.106c-0.215-0.023-0.432-0.034-0.651-0.034c-0.25,0-0.501,0.015-0.746,0.042
	c-0.396,0.071-0.811,0.195-1.27,0.38c-0.414,0.183-0.815,0.387-1.216,0.591c-0.448,0.228-0.82,0.417-1.158,0.653
	c-0.561,0.464-1.03,1.025-1.415,1.513C3.1,26.814,2.834,26.889,2.642,26.889z M15.601,24.567c0.292,0.03,0.587,0.047,0.881,0.047
	c0.227,0,0.453-0.01,0.676-0.032c0.361-0.055,0.718-0.129,1.073-0.206c0.353-0.076,0.699-0.219,1.034-0.358
	c0.371-0.166,0.637-0.314,0.872-0.477c0.29-0.268,0.546-0.539,0.767-0.806c0.198-0.277,0.382-0.601,0.583-1.022
	c0.181-0.438,0.364-0.882,0.483-1.338c0.125-0.482,0.236-0.917,0.31-1.372c0.06-0.516,0.073-0.909,0.041-1.275
	c-0.053-0.315-0.133-0.628-0.252-0.992c-0.111-0.333-0.22-0.664-0.347-0.991c-0.142-0.314-0.288-0.573-0.447-0.798
	c-0.129-0.153-0.266-0.294-0.402-0.435c-0.087-0.09-0.175-0.181-0.26-0.274l-0.155-0.172c-0.134-0.152-0.268-0.305-0.423-0.437
	c-0.343-0.242-0.698-0.451-1.059-0.622c-0.086-0.03-0.167-0.053-0.253-0.069c-0.078-0.013-0.147-0.029-0.21-0.053
	c-0.169,0.065-0.316,0.098-0.463,0.098c-0.074,0-0.149-0.009-0.221-0.024c-0.421-0.092-0.841-0.167-1.268-0.225
	c-0.354-0.044-0.775-0.09-1.216-0.09c-0.527,0.008-0.954,0.018-1.382,0.062c-0.171,0.029-0.333,0.072-0.495,0.127
	c-0.344,0.159-0.669,0.348-0.972,0.564c-0.245,0.213-0.444,0.45-0.607,0.655c-0.301,0.436-0.541,0.844-0.738,1.248
	c-0.317,0.652-0.487,1.378-0.564,2.097c-0.073,0.69-0.099,1.502,0.019,2.189c0.051,0.298,0.132,0.585,0.213,0.874l0.089,0.314
	c0.068,0.24,0.135,0.481,0.222,0.713c0.126,0.271,0.286,0.535,0.488,0.809c0.444,0.544,0.928,1.035,1.439,1.461
	c0.227,0.158,0.468,0.291,0.711,0.411c0.226,0.08,0.45,0.131,0.678,0.183l0.15,0.034c0.292,0.069,0.588,0.122,0.886,0.167
	c0,0,0.074,0.01,0.088,0.011L15.601,24.567z M15.357,10.912c0.683,0.013,1.402,0.079,2.199,0.204l0.121-0.151
	c0.074-0.134,0.148-0.268,0.214-0.408c0.207-0.547,0.349-1.071,0.438-1.607c0.027-0.263,0.032-0.509,0.013-0.753
	c-0.016-0.086-0.034-0.167-0.059-0.246c-0.054-0.11-0.114-0.207-0.178-0.301c-0.135-0.156-0.287-0.295-0.441-0.423
	c-0.078-0.053-0.154-0.098-0.231-0.139c-0.394-0.152-0.803-0.26-1.258-0.334c-0.241-0.026-0.482-0.04-0.722-0.04
	c-0.167,0-0.334,0.007-0.5,0.022c-0.271,0.057-0.533,0.129-0.788,0.222c-0.099,0.049-0.189,0.102-0.277,0.16
	c-0.06,0.053-0.11,0.104-0.159,0.157c-0.093,0.142-0.17,0.279-0.24,0.424c-0.109,0.322-0.186,0.615-0.236,0.9
	c-0.023,0.221-0.032,0.44-0.02,0.66c0.027,0.138,0.066,0.268,0.11,0.394c0.055,0.117,0.112,0.225,0.169,0.334
	c0.086,0.166,0.172,0.33,0.244,0.502c0.062,0.148,0.091,0.285,0.091,0.431l0.174,0.036l0.176-0.019
	c0.291-0.021,0.583-0.029,0.875-0.029L15.357,10.912z"/>
</svg>