<?xml version="1.0" encoding="utf-8"?>
<!-- Generator: Adobe Illustrator 21.1.0, SVG Export Plug-In . SVG Version: 6.00 Build 0)  -->
<svg version="1.1" id="designs" xmlns="http://www.w3.org/2000/svg" xmlns:xlink="http://www.w3.org/1999/xlink" x="0px" y="0px"
	 width="32px" height="32px" viewBox="0 0 32 32" style="enable-background:new 0 0 32 32;" xml:space="preserve">
<style type="text/css">
	.sketchy_een{fill:#111918;}
</style>
<path class="sketchy_een" d="M29.981,24.368c-0.01-0.39-0.025-0.781-0.037-1.173c-0.023-0.792-0.049-1.587-0.094-2.379
	c-0.096-1.692-0.135-3.385-0.156-5.079c-0.018-1.401-0.019-2.803,0-4.202c0.02-1.474,0.102-2.945,0.156-4.417
	c0.007-0.174-0.063-0.329-0.16-0.464c0.177-0.422-0.04-0.936-0.497-1.059c-0.209-0.055-0.414-0.023-0.625-0.014
	c-0.182,0.01-0.367,0.006-0.548,0.008c-0.367,0.002-0.734,0.01-1.101,0.01C26.158,5.6,25.395,5.602,24.632,5.59
	c-1.589-0.025-3.176-0.092-4.763-0.137c-0.8-0.023-1.601-0.045-2.401-0.053c-0.802-0.01-1.602-0.002-2.405-0.018
	c-0.781-0.016-1.563-0.051-2.344-0.053c-0.824-0.004-1.645,0-2.469,0.004c-2.36,0.01-4.716-0.064-7.074-0.115
	c-0.004,0-0.009,0-0.013,0c-0.397,0-0.719,0.326-0.765,0.709C2.315,6.05,2.256,6.185,2.27,6.338
	c0.045,0.494,0.086,0.984,0.109,1.476c0.016,0.373-0.008,0.746-0.023,1.118c-0.035,0.802-0.078,1.606-0.113,2.409
	c-0.035,0.802-0.039,1.606-0.078,2.409c-0.037,0.759-0.078,1.521-0.098,2.284c-0.019,0.792-0.018,1.585-0.021,2.379
	c-0.002,0.81-0.02,1.618-0.031,2.428c-0.012,0.785-0.027,1.571,0.006,2.355c0.031,0.746,0.074,1.496,0.068,2.243
	c0,0.057-0.002,0.115-0.002,0.173c-0.001,0.047,0.019,0.088,0.026,0.133c-0.026,0.079-0.049,0.16-0.049,0.244
	c0,0.207,0.084,0.41,0.23,0.556c0.137,0.135,0.361,0.252,0.558,0.232c0.816-0.082,1.634-0.135,2.452-0.188
	c0.763-0.051,1.524-0.089,2.288-0.097c1.579-0.014,3.158,0.006,4.735-0.031c0.757-0.02,3.912-0.043,4.729-0.029
	c1.515,0.025,3.029,0.049,4.544,0.074c0.625,0.01,1.249,0.048,1.874,0.076c0.632,0.027,1.265,0.043,1.899,0.057
	c0.63,0.012,1.263,0.01,1.893,0.004c0.299-0.004,0.595-0.006,0.894-0.018c0.305-0.01,0.611-0.047,0.915-0.078
	c0.203-0.019,0.375-0.066,0.523-0.214c0.129-0.129,0.199-0.304,0.209-0.484c0.075-0.087,0.134-0.186,0.153-0.29
	C30.028,25.173,29.991,24.761,29.981,24.368z M24.987,7.078c0.094,1.603,0.199,3.206,0.254,4.81
	c0.053,1.544,0.172,3.086,0.205,4.632c0.008,0.338,0,0.673-0.002,1.011c-0.002,0.316,0.009,0.638-0.014,0.955
	c-0.89-0.013-1.78-0.029-2.67-0.033c-0.005-0.584-0.005-1.169-0.027-1.754c-0.029-0.777-0.06-1.554-0.074-2.331
	c-0.014-0.816-0.018-1.632-0.021-2.449c-0.004-0.793-0.021-1.587-0.006-2.379c0.017-0.834,0.051-1.667,0.087-2.501
	C23.474,7.057,24.23,7.068,24.987,7.078z M15.279,6.86c-0.001,0.012-0.007,0.022-0.007,0.035c0.002,3.352,0.006,6.703-0.014,10.054
	c-0.002,0.436,0,0.871-0.004,1.306c-0.001,0.081-0.001,0.163-0.003,0.244c-0.788-0.085-1.575-0.17-2.364-0.255
	c-0.006-0.454-0.008-0.908-0.014-1.361c-0.012-0.765-0.018-1.532-0.018-2.299c0-0.81-0.014-1.622-0.012-2.432
	c0-0.816,0.027-1.63,0.064-2.446c0.044-0.973,0.077-1.947,0.094-2.92c0.023,0,0.046,0,0.068,0
	C13.806,6.799,14.542,6.841,15.279,6.86z M9.036,6.773C9.026,6.818,9.008,6.858,9.005,6.904c-0.06,0.901-0.105,1.803-0.102,2.709
	c0.004,0.804,0.035,1.606,0.07,2.411c0.037,0.791,0.07,1.583,0.123,2.374c0.051,0.783,0.115,1.565,0.154,2.35
	c0.023,0.491,0.036,0.981,0.042,1.472c-0.056,0.004-0.112,0.011-0.168,0.014c-0.332,0.016-0.668,0.008-1.001,0.004
	c-0.459-0.005-0.917-0.008-1.375-0.012c-0.02-0.487-0.04-0.975-0.061-1.462c-0.033-0.753-0.031-1.507-0.029-2.26
	c0.004-0.807,0.019-1.612,0.055-2.418c0.035-0.787,0.025-1.573,0.041-2.358c0.019-0.981,0.032-1.959,0.04-2.938
	c0.499-0.006,0.999-0.014,1.498-0.018C8.54,6.769,8.788,6.775,9.036,6.773z M4.914,25.108c-0.422,0.008-0.843,0.023-1.263,0.044
	c-0.026-0.604-0.048-1.208-0.081-1.811c-0.043-0.8-0.043-1.604-0.039-2.406c0.004-0.777,0.023-1.556,0.025-2.335
	c0.002-0.792,0.002-1.583,0.02-2.375c0.019-0.794,0.062-1.587,0.088-2.381c0.025-0.802,0.043-1.603,0.059-2.407
	c0.014-0.796,0.07-1.593,0.131-2.389c0.031-0.382,0.047-0.765,0.06-1.15c0.012-0.361-0.021-0.726-0.049-1.088
	c0.453,0,0.907-0.001,1.36-0.006c0.007,0.806,0.05,1.61,0.047,2.416c-0.002,0.818,0,1.638-0.031,2.456
	c-0.059,1.562-0.105,3.125-0.068,4.688c0.021,0.847,0.072,1.692,0.089,2.54c-0.008,0.045-0.028,0.087-0.028,0.134
	c0,0.441,0.373,0.828,0.82,0.82c0.454-0.008,0.907-0.021,1.361-0.031c0.001,0.979,0.009,1.958,0.038,2.937
	c0.022,0.758,0.04,1.519,0.005,2.278c-0.249,0.002-0.497,0.001-0.746,0.007C6.112,25.063,5.513,25.098,4.914,25.108z M10.338,25.033
	c-0.464,0-0.928-0.001-1.392-0.002c-0.036-0.751-0.017-1.506-0.001-2.258c0.019-0.994,0.034-1.988,0.044-2.982
	c0.355-0.008,0.709-0.016,1.064-0.024c0.439-0.01,0.806-0.359,0.806-0.806c0-0.1-0.022-0.198-0.059-0.29
	c0.011-0.055,0.033-0.106,0.028-0.164c-0.059-0.773-0.088-1.548-0.129-2.321c-0.043-0.798-0.121-1.594-0.162-2.391
	c-0.082-1.565-0.168-3.136-0.088-4.702c0.037-0.732,0.092-1.46,0.148-2.19c0.003-0.045-0.016-0.083-0.022-0.126
	c0.285,0,0.569,0,0.854,0.002c0.002,0.797,0.018,1.593,0.011,2.39c-0.008,0.806-0.059,1.612-0.088,2.418
	c-0.031,0.785-0.051,1.571-0.057,2.358c-0.004,0.792-0.016,1.585-0.008,2.377c0.01,0.923,0.014,1.846,0.031,2.768
	c0.01,0.434,0.355,0.794,0.794,0.794c0.13,0,0.253-0.044,0.367-0.106c0.102,0.042,0.21,0.067,0.33,0.079
	c0.134,0.013,0.268,0.022,0.402,0.035c0,0.895,0.002,1.789,0.007,2.683c0,0.42,0.004,0.839-0.014,1.259
	c-0.015,0.389-0.041,0.777-0.057,1.166c-0.132,0.003-0.263,0.003-0.395,0.006C11.948,25.027,11.144,25.031,10.338,25.033z
	 M15.042,24.983c-0.117-0.002-0.234-0.002-0.351-0.003c0.002-0.802,0.011-1.602,0.03-2.403c0.019-0.85,0.043-1.697,0.056-2.547
	c0.288,0.022,0.577,0.05,0.865,0.073c0.111,0.064,0.233,0.111,0.371,0.111c0.094,0,0.185-0.023,0.271-0.056
	c0.015,0.001,0.03,0.002,0.044,0.003c0.191,0.023,0.418-0.096,0.547-0.226c0.144-0.145,0.226-0.342,0.226-0.547
	c0-0.203-0.082-0.402-0.226-0.546c-0.03-0.03-0.066-0.041-0.098-0.063c-0.023-1.333-0.024-2.667-0.019-4.001
	c0.006-1.622,0.037-3.244,0.094-4.866c0.033-1.005,0.049-2.01,0.059-3.018c0,0-0.003-0.009-0.003-0.014
	c0.306,0.002,0.611,0.006,0.917,0.01c0.083,0.001,0.166,0.005,0.249,0.007c0.007,0.815,0.028,1.629,0.019,2.444
	c-0.008,0.779-0.039,1.563-0.094,2.34c-0.107,1.55-0.121,3.098-0.115,4.649c0.002,0.732,0.027,1.466,0.033,2.198
	c0.006,0.8,0.021,1.601,0.037,2.401c0.014,0.748,0.02,1.495,0.023,2.245c0.003,0.619-0.018,1.238-0.036,1.856
	C16.975,25.014,16.008,24.995,15.042,24.983z M22.034,25.108c-0.763-0.018-1.528-0.033-2.293-0.047
	c-0.102-0.002-0.203-0.003-0.304-0.005c-0.003-0.663,0.016-1.327,0.019-1.991c0.004-0.791,0.008-1.581,0.01-2.37
	c0-1.577-0.02-3.154-0.02-4.729c0-1.47,0.004-2.943,0.068-4.413c0.066-1.537,0.132-3.075,0.147-4.614
	c0.483,0.016,0.967,0.028,1.45,0.045c-0.029,0.868-0.05,1.735-0.027,2.601c0.02,0.82,0.045,1.64,0.049,2.459
	c0.002,0.804,0.006,1.608,0.016,2.413c0.01,0.791,0.041,1.581,0.064,2.372c0.01,0.348,0.016,0.695,0.02,1.041
	c0.002,0.326-0.012,0.652-0.004,0.978c0.003,0.111,0.031,0.216,0.075,0.312c-0.005,0.036-0.021,0.067-0.021,0.104
	c0,0.439,0.371,0.822,0.814,0.814c0.41-0.007,0.819-0.017,1.228-0.026c0.021,0.933,0.06,1.865,0.106,2.799
	c0.039,0.773,0.031,1.546,0.049,2.319C22.997,25.145,22.516,25.118,22.034,25.108z M27.72,25.203
	c-0.355,0.006-0.712,0.004-1.068,0.004c-0.308,0-0.617,0.002-0.925,0.004c-0.24,0.001-0.481-0.002-0.722-0.002
	c-0.042-0.762-0.047-1.529-0.059-2.292c-0.015-0.966-0.017-1.933-0.026-2.899c0.412-0.009,0.824-0.021,1.235-0.026
	c0.408-0.006,0.748-0.336,0.748-0.748c0-0.101-0.021-0.197-0.058-0.285c0.054-0.105,0.094-0.219,0.102-0.344
	c0.01-0.171-0.002-0.343-0.004-0.515c-0.002-0.191-0.002-0.38-0.004-0.57c-0.002-0.344-0.016-0.689-0.027-1.033
	c-0.025-0.789-0.072-1.575-0.111-2.362c-0.037-0.767-0.109-1.532-0.129-2.299c-0.018-0.791-0.033-1.581-0.055-2.372
	c-0.022-0.791-0.047-1.58-0.082-2.371c0.308,0,0.616,0,0.923,0.002c0.243,0.002,0.485,0.008,0.728,0.007
	c0,0-0.003,0.008-0.003,0.013C28.171,7.6,28.166,8.08,28.162,8.562c-0.002,0.392,0.01,0.785,0.002,1.175
	c-0.018,0.833-0.029,1.669-0.029,2.502c0,1.649,0.023,3.295,0.055,4.942c0.027,1.437,0.107,2.874,0.17,4.31
	c0.029,0.679,0.027,1.36,0.041,2.042c0.008,0.301,0.01,0.6,0.014,0.9c0.002,0.236,0.007,0.478-0.003,0.715
	C28.181,25.172,27.951,25.198,27.72,25.203z"/>
</svg>