<?xml version="1.0" encoding="utf-8"?>
<!-- Generator: Adobe Illustrator 21.1.0, SVG Export Plug-In . SVG Version: 6.00 Build 0)  -->
<svg version="1.1" id="designs" xmlns="http://www.w3.org/2000/svg" xmlns:xlink="http://www.w3.org/1999/xlink" x="0px" y="0px"
	 width="32px" height="32px" viewBox="0 0 32 32" style="enable-background:new 0 0 32 32;" xml:space="preserve">
<style type="text/css">
	.sketchy_een{fill:#111918;}
</style>
<path class="sketchy_een" d="M21.268,25.687c-0.568,0-1.137-0.005-1.705-0.011l-0.507-0.007c-0.462-0.006-0.925-0.013-1.387-0.013
	c0,0-1.599,0.017-1.971,0.017c-0.367,0-0.735-0.005-1.102-0.018c-0.289-0.011-0.579-0.015-0.869-0.015
	c-0.27,0-1.674,0.011-1.674,0.011s-4.367-0.002-5.225,0.002l-1.165,0.006c-0.449,0-0.897-0.007-1.343-0.037
	c-0.568-0.036-1.167-0.09-1.703-0.305C2.329,25.2,2.004,25.056,1.794,24.81c-0.129-0.149-0.275-0.329-0.384-0.531
	c-0.109-0.205-0.202-0.432-0.272-0.656c-0.121-0.394-0.163-0.814-0.125-1.248c0.042-0.504,0.101-0.994,0.352-1.444
	c0.197-0.353,0.496-0.643,0.798-0.775c0.202-0.09,0.404-0.176,0.619-0.229c0.082-0.021,0.166-0.035,0.25-0.049l0.16-0.03
	l0.029-0.102l-0.005-0.138c-0.015-0.379-0.029-0.758-0.07-1.135c-0.09-0.552-0.245-1.111-0.476-1.71
	c-0.086-0.193-0.177-0.379-0.269-0.565l-0.15-0.31c-0.046-0.097-0.092-0.193-0.143-0.287c-0.104-0.194-0.197-0.367-0.187-0.572
	c0.012-0.219,0.113-0.517,0.362-0.636c0.078-0.037,0.149-0.064,0.222-0.083l0.058-0.02c-0.022-0.047-0.115-0.245-0.13-0.296
	c-0.107-0.35-0.175-0.65-0.215-0.943c-0.056-0.423-0.073-0.813-0.052-1.194c0.045-0.713,0.263-1.41,0.631-2.015
	c0.2-0.326,0.415-0.644,0.644-0.953C4.065,8.048,4.7,7.397,5.383,6.9c0.154-0.113,0.331-0.207,0.504-0.291
	C6.122,6.492,6.32,6.395,6.525,6.342c0.074-0.02,0.15-0.029,0.226-0.029c0.485,0,0.881,0.389,0.884,0.869
	c0.001,0.152-0.035,0.311-0.071,0.464L7.523,7.833C7.504,8.037,7.501,8.232,7.515,8.432c0.016,0.074,0.033,0.14,0.053,0.204
	l0.052,0.087c0.107,0.09,0.154,0.118,0.203,0.144c0.082,0.025,0.155,0.042,0.229,0.056C8.259,8.94,8.461,8.95,8.662,8.953
	l0.361,0.003c0.224,0,1.17-0.015,1.418-0.015c0.231,0,0.463,0.003,0.694,0.014c0.475,0.024,0.953,0.089,1.384,0.188
	c0.256,0.059,0.509,0.176,0.745,0.291c0.187,0.091,0.362,0.206,0.532,0.326c0.16,0.112,0.337,0.241,0.475,0.382
	c0.146,0.15,0.276,0.316,0.4,0.486c0.109,0.151,0.21,0.308,0.304,0.469c0.244,0.413,0.433,0.85,0.585,1.224
	c0.059,0.146,0.132,0.34,0.165,0.543c0.046,0.27,0.094,0.551,0.104,0.825c0.001,0.052-0.002,0.104-0.005,0.156l-0.005,0.108
	c0.091,0.017,0.168,0.021,0.238,0.021c0.065,0,0.123-0.003,0.182-0.003c0.209,0,0.373,0.043,0.503,0.132
	c0.253,0.172,0.404,0.364,0.449,0.569c0.035,0.163,0.069,0.336,0.053,0.501c-0.024,0.263-0.045,0.474-0.09,0.673
	c-0.042,0.187-0.089,0.371-0.137,0.556l-0.038,0.149c-0.122,0.5-0.228,1.002-0.313,1.508c-0.024,0.202-0.043,0.402-0.057,0.605
	c-0.016,0.231,0.005,0.465,0.03,0.695c0.021,0.125,0.046,0.245,0.071,0.366l0.009,0.041l0.053,0.052l1.177-0.036
	c0.88-0.025,1.757-0.037,2.636-0.039c0,0,1.661,0.019,1.976,0.019c0.211,0,0.42-0.002,0.63-0.007
	c0.403-0.009,0.805-0.025,1.208-0.042c0.458-0.018,0.916-0.037,1.375-0.045l0.216-0.004c0.26-0.005,0.519-0.01,0.779-0.01
	l0.302,0.002c0.563,0.011,1.069,0.057,1.544,0.142c0.352,0.061,0.714,0.181,1.078,0.354c0.466,0.227,0.784,0.51,0.972,0.864
	c0.141,0.267,0.233,0.527,0.272,0.773c0.043,0.267,0.08,0.527,0.06,0.783c-0.018,0.238-0.039,0.482-0.101,0.714
	c-0.057,0.223-0.139,0.437-0.233,0.648c-0.22,0.494-0.623,0.929-1.077,1.164c-0.381,0.202-0.837,0.3-1.272,0.375
	c-0.273,0.048-0.549,0.087-0.826,0.097l-0.829-0.003c-0.469,0-0.939,0.011-1.408,0.022l-0.696,0.015
	c-0.387,0.007-0.773,0.023-1.16,0.039c-0.437,0.018-0.874,0.036-1.311,0.042L21.268,25.687z M14.182,24.15
	c0.25,0.005,1.274,0.041,1.274,0.041c0.189,0.005,0.377,0.007,0.566,0.007c0.407,0,0.813-0.009,1.219-0.018l1.128-0.022
	c0.679-0.011,1.358-0.023,2.038-0.029l0.774-0.004c0.588-0.001,1.176-0.002,1.765-0.033l1.062-0.048
	c0.444-0.019,0.887-0.037,1.33-0.062c0.412-0.023,0.821-0.042,1.233-0.052l0.169-0.002c0.313-0.004,0.629-0.007,0.94-0.039
	c0.387-0.062,0.707-0.143,1.011-0.253c0.058-0.03,0.106-0.059,0.153-0.091c0.074-0.066,0.138-0.132,0.199-0.2
	c0.059-0.088,0.106-0.173,0.149-0.261c0.051-0.14,0.091-0.274,0.119-0.415c0.011-0.131,0.013-0.256,0.006-0.383
	c-0.02-0.098-0.042-0.187-0.07-0.274l-0.08-0.142c-0.12-0.085-0.219-0.135-0.322-0.185c-0.23-0.089-0.46-0.161-0.701-0.208
	c-0.105-0.02-0.207-0.037-0.309-0.053c-0.537-0.044-1.072-0.05-1.607-0.056l-0.932-0.011c-0.271,0-1.559,0.015-1.559,0.015
	c-0.681,0-1.363-0.025-2.044-0.05c-0.684-0.025-1.368-0.05-2.053-0.05c-0.681,0-1.361,0.01-2.041,0.02l-0.642,0.009
	c-0.617,0.008-1.233,0.031-1.85,0.054l-0.739,0.027c0,0-2.058,0.059-2.577,0.077c-0.163,0.007-0.326,0.008-0.488,0.008l-0.651,0.002
	c-0.136,0.002-0.271,0.009-0.407,0.016c-0.167,0.008-0.334,0.017-0.501,0.017c-0.397-0.002-0.72-0.325-0.72-0.72
	c0-0.19,0.077-0.376,0.211-0.51c0.127-0.126,0.275-0.188,0.513-0.211c0.42-0.039,0.846-0.041,1.269-0.043l0.819-0.015l0.015-0.727
	l-0.038-0.742c-0.008-0.192,0.066-0.379,0.209-0.528c0.153-0.16,0.362-0.252,0.573-0.252c0.425,0,0.768,0.344,0.781,0.783
	c0.013,0.456,0.002,0.912-0.01,1.369l0.112,0.049c0.454-0.018,0.907-0.041,1.36-0.065l0.202-0.01l0.033-0.195
	c-0.024-0.234-0.049-0.467-0.059-0.702c-0.019-0.446,0.052-0.912,0.126-1.352c0.07-0.406,0.15-0.81,0.244-1.212
	c0.029-0.124,0.122-0.468,0.122-0.468l-0.079-0.013l-0.137,0.054l-0.37,0.174c-0.155,0.074-0.31,0.148-0.468,0.217
	c-0.235,0.102-0.472,0.203-0.711,0.301c-0.192,0.077-0.432,0.172-0.656,0.172c-0.275-0.024-0.53-0.049-0.697-0.177l-0.081-0.062
	c-0.086-0.065-0.173-0.13-0.246-0.209l-0.136-0.15c-0.067-0.076-0.134-0.152-0.207-0.222l-0.449-0.454l-0.22,0.11l-0.3,0.248
	c-0.163,0.136-0.326,0.272-0.497,0.4c-0.23,0.17-0.403,0.298-0.597,0.342c-0.093,0.022-0.215,0.047-0.337,0.047
	c-0.291-0.023-0.437-0.064-0.656-0.165c-0.334-0.155-0.616-0.411-0.854-0.638c-0.181-0.176-0.365-0.349-0.556-0.514l-0.031-0.027
	l-0.327,0.269c-0.165,0.137-0.329,0.273-0.498,0.406c-0.272,0.214-0.553,0.436-0.896,0.436c-0.249-0.023-0.365-0.051-0.506-0.105
	l-0.212-0.086c-0.236-0.094-0.474-0.181-0.714-0.259c0.009,0.217,0.075,0.366,0.138,0.518c0.171,0.411,0.289,0.748,0.37,1.06
	c0.172,0.676,0.22,1.372,0.252,1.971l0.163,0.045l0.3-0.005c0.422,0,0.844,0,1.264,0.009c0.417,0.009,0.757,0.348,0.757,0.754
	c0,0.402-0.343,0.754-0.735,0.754L6.165,21.14c-0.32-0.011-0.643-0.022-0.965-0.022c-0.332,0-0.663,0.012-0.992,0.047
	c-0.455,0.074-0.914,0.149-1.338,0.305l-0.139,0.103c-0.027,0.042-0.052,0.085-0.075,0.129c-0.031,0.1-0.052,0.193-0.07,0.288
	c-0.032,0.314-0.038,0.587-0.02,0.841c0.031,0.161,0.073,0.31,0.127,0.459c0.053,0.113,0.11,0.216,0.174,0.317l0.094,0.101
	c0.083,0.054,0.16,0.096,0.24,0.135c0.244,0.089,0.489,0.145,0.738,0.192c0.595,0.067,1.177,0.081,1.822,0.093
	c0.439,0.008,0.879,0.01,1.319,0.013l1.67,0.013c0.832,0.008,1.665,0.016,2.498,0.016c0.556,0,1.111-0.004,1.666-0.013
	c0,0,0.7-0.011,0.934-0.011L14.182,24.15z M11.297,13.828c0.112,0,0.223,0.023,0.33,0.067c0.214,0.088,0.389,0.201,0.587,0.377
	l0.087,0.08c0.178,0.168,0.291,0.272,0.407,0.375c0.101,0.089,0.429,0.395,0.429,0.395l0.152-0.025c0.22-0.096,0.433-0.2,0.64-0.315
	l0.025-0.015l0.04-0.083c0.031-0.174,0.058-0.319,0.083-0.465c0.026-0.284,0.025-0.558-0.002-0.843
	c-0.053-0.278-0.14-0.556-0.281-0.905c-0.163-0.36-0.34-0.675-0.543-0.964c-0.106-0.124-0.217-0.233-0.337-0.337
	c-0.2-0.142-0.401-0.266-0.619-0.369c-0.213-0.074-0.421-0.122-0.638-0.158c-0.333-0.036-0.663-0.048-0.994-0.048
	c-0.285,0-0.569,0.008-0.854,0.017c-0.339,0.008-0.583,0.015-0.827,0.015c-0.116,0-0.233-0.001-0.35-0.005
	c-0.313-0.008-0.646-0.023-0.971-0.079c-0.315-0.052-0.629-0.183-0.908-0.377C6.373,9.901,6.072,9.484,5.971,9.078
	C5.927,8.9,5.897,8.719,5.881,8.536C5.376,8.874,4.976,9.3,4.608,9.767c-0.263,0.36-0.559,0.782-0.78,1.255
	c-0.08,0.22-0.142,0.439-0.185,0.666c-0.027,0.302-0.024,0.619,0.008,0.973c0.03,0.207,0.067,0.41,0.138,0.605
	c0.054,0.152,0.107,0.303,0.165,0.452c0.168,0.352,0.375,0.658,0.609,0.995l0.262,0.097c0,0,0.449,0.153,0.529,0.178l0.216-0.128
	c0.114-0.093,0.221-0.19,0.329-0.286c0.09-0.081,0.181-0.162,0.274-0.241c0.088-0.075,0.178-0.147,0.27-0.219
	c0.203-0.162,0.361-0.289,0.558-0.32c0.087-0.014,0.168-0.024,0.249-0.024c0.079,0,0.149,0.01,0.22,0.031
	c0.088,0.023,0.168,0.054,0.247,0.097c0.111,0.049,0.212,0.111,0.34,0.206c0.15,0.111,0.296,0.232,0.44,0.351l0.561,0.475
	c0.061,0.042,0.119,0.078,0.178,0.112C9.351,15,9.413,14.957,9.473,14.913l0.189-0.151c0.194-0.157,0.389-0.314,0.592-0.46
	C10.548,14.091,10.914,13.828,11.297,13.828z"/>
</svg>