<?xml version="1.0" encoding="utf-8"?>
<!-- Generator: Adobe Illustrator 21.1.0, SVG Export Plug-In . SVG Version: 6.00 Build 0)  -->
<svg version="1.1" id="designs" xmlns="http://www.w3.org/2000/svg" xmlns:xlink="http://www.w3.org/1999/xlink" x="0px" y="0px"
	 width="32px" height="32px" viewBox="0 0 32 32" style="enable-background:new 0 0 32 32;" xml:space="preserve">
<style type="text/css">
	.sketchy_een{fill:#111918;}
</style>
<path class="sketchy_een" d="M26.056,8.619c-0.103-0.342-0.408-0.568-0.749-0.587c-0.146-0.258-0.407-0.457-0.712-0.432
	c-1.596,0.13-3.199,0.104-4.797,0.042c-0.412-0.015-0.822-0.04-1.234-0.054c-0.04-0.001-0.08,0-0.12-0.001
	c-0.028-0.044-0.04-0.097-0.078-0.135c-0.192-0.241-0.392-0.477-0.583-0.72c-0.497-0.661-0.938-1.359-1.402-2.044
	c-0.134-0.197-0.272-0.389-0.406-0.586c-0.163-0.24-0.324-0.483-0.513-0.703c-0.218-0.255-0.542-0.495-0.89-0.495
	c-0.011,0-0.021,0-0.032,0.001c-0.238,0.01-0.452,0.073-0.642,0.217c-0.089,0.066-0.172,0.135-0.256,0.205
	c-0.046,0.028-0.092,0.051-0.14,0.073c-0.128,0.053-0.253,0.113-0.379,0.169c-0.007-0.011-0.013-0.022-0.02-0.034
	c-0.182-0.295-0.368-0.588-0.577-0.866c-0.199-0.266-0.402-0.535-0.741-0.628C11.685,2.012,11.588,2,11.493,2
	c-0.251,0-0.487,0.085-0.722,0.2c-0.328,0.159-0.626,0.368-0.946,0.538c-0.335,0.18-0.686,0.36-0.958,0.632
	c-0.188,0.19-0.339,0.492-0.329,0.766c0.01,0.23,0.067,0.427,0.188,0.623c0.096,0.153,0.192,0.306,0.284,0.462
	C9.227,5.59,9.459,5.94,9.715,6.283c0.423,0.566,0.805,1.158,1.2,1.741c-0.012,0.016-0.021,0.032-0.032,0.048
	c-0.196,0.141-0.333,0.36-0.334,0.616c-0.005,0.798-0.002,1.598-0.002,2.398c-0.082-0.063-0.161-0.13-0.241-0.193
	c-0.149-0.113-0.297-0.222-0.464-0.31c-0.331-0.176-0.692-0.241-1.059-0.28c-0.051-0.005-0.101-0.008-0.15-0.008
	c-0.332,0-0.642,0.11-0.945,0.247c-0.23,0.105-0.433,0.249-0.628,0.406c-0.262,0.211-0.467,0.479-0.655,0.755
	c-0.337,0.494-0.506,1.096-0.554,1.692c-0.038,0.479,0.056,0.977,0.117,1.452c0.067,0.496,0.157,0.973,0.326,1.446
	c0.161,0.45,0.345,0.893,0.598,1.297c0.128,0.207,0.262,0.414,0.422,0.6c0.167,0.195,0.362,0.345,0.567,0.502
	c0.308,0.236,0.695,0.406,1.054,0.546c0.347,0.136,0.707,0.213,1.077,0.264c0.08,0.01,0.161,0.021,0.243,0.033
	c0.161,0,0.31-0.042,0.45-0.12c0.023,0.143,0.042,0.287,0.067,0.43c0.036,0.213,0.086,0.423,0.142,0.632
	c0.088,0.328,0.247,0.623,0.404,0.92c0.207,0.397,0.381,0.808,0.651,1.169c0.151,0.203,0.316,0.395,0.496,0.575
	c0.197,0.199,0.413,0.37,0.634,0.541c0.159,0.12,0.319,0.237,0.489,0.344c0.153,0.098,0.314,0.184,0.471,0.276
	c0.326,0.192,0.659,0.364,0.996,0.534c0.661,0.33,1.402,0.488,2.138,0.557c-0.038,0.531-0.073,1.061-0.089,1.593
	c-0.01,0.32-0.006,0.642-0.013,0.962c-0.003,0.084-0.009,0.168-0.014,0.252c-0.041,0.001-0.083,0.002-0.124,0.003
	c-0.261,0.004-0.521,0-0.78-0.002c-0.261-0.002-0.521-0.006-0.78-0.004c-0.462,0.004-0.845,0.381-0.845,0.845
	c0,0.456,0.383,0.853,0.845,0.845c0.975-0.011,1.95-0.038,2.927-0.05c0.444-0.006,0.889,0.048,1.331,0.083
	c0.452,0.034,0.902,0.073,1.354,0.08c0.458,0.01,0.837-0.387,0.837-0.837c0-0.462-0.381-0.828-0.837-0.837
	c-0.441-0.008-0.883-0.034-1.324-0.063c-0.209-0.015-0.418-0.038-0.626-0.061c-0.107-0.012-0.213-0.009-0.319-0.014
	c-0.001-0.4-0.002-0.801-0.002-1.201c0.002-0.514,0.044-1.028,0.088-1.541c0.279,0.002,0.557,0.003,0.836-0.029
	c0.4-0.044,0.776-0.144,1.165-0.236c0.161-0.038,0.322-0.075,0.483-0.117c0.236-0.065,0.46-0.161,0.682-0.262
	c0.174-0.081,0.335-0.195,0.492-0.303c0.205-0.14,0.4-0.291,0.586-0.454c0.28-0.245,0.554-0.498,0.824-0.753
	c0.569-0.536,1.038-1.186,1.379-1.889c0.4-0.826,0.523-1.72,0.552-2.626c0.025-0.738,0.036-1.477,0.063-2.215
	c0.046-1.274,0.115-2.548,0.132-3.822c0.008-0.669,0.086-1.333,0.111-2.002c0.01-0.289,0.008-0.58,0.019-0.87
	C26.165,9.45,26.179,9.025,26.056,8.619z M14.068,4.891c0.117-0.05,0.234-0.098,0.347-0.159c0.028-0.015,0.055-0.032,0.082-0.05
	c0.015,0.018,0.03,0.036,0.044,0.055c0.438,0.587,0.868,1.182,1.285,1.784c0.236,0.341,0.475,0.674,0.73,0.998
	c0.017,0.021,0.034,0.041,0.051,0.062c-0.293,0-0.586,0-0.879-0.001c-0.014-0.018-0.02-0.04-0.036-0.056
	c-0.114-0.122-0.23-0.243-0.338-0.373c-0.205-0.281-0.393-0.573-0.592-0.857c-0.192-0.27-0.366-0.542-0.527-0.833
	c-0.095-0.172-0.201-0.338-0.299-0.509C13.981,4.932,14.024,4.91,14.068,4.891z M11.519,3.567c0.004,0,0.007,0.001,0.011,0.002
	C11.526,3.568,11.522,3.567,11.519,3.567L11.519,3.567z M11.195,3.478L11.195,3.478c-0.004-0.002-0.009-0.004-0.014-0.006
	C11.186,3.474,11.19,3.476,11.195,3.478z M10.294,4.279c-0.006-0.01-0.012-0.02-0.018-0.031c0.149-0.088,0.301-0.168,0.453-0.255
	c0.202-0.113,0.401-0.234,0.606-0.341c0.093,0.128,0.184,0.258,0.272,0.389c0.148,0.226,0.276,0.462,0.412,0.695
	c0.261,0.45,0.535,0.895,0.791,1.349c0.113,0.201,0.213,0.41,0.341,0.604c0.136,0.207,0.291,0.402,0.435,0.607
	c0.068,0.097,0.138,0.193,0.206,0.29c-0.393,0.003-0.786,0.015-1.179,0.034c-0.222-0.303-0.444-0.606-0.658-0.916
	c-0.228-0.326-0.443-0.663-0.674-0.987c-0.226-0.316-0.475-0.615-0.686-0.941C10.489,4.614,10.39,4.448,10.294,4.279z M9.565,17.502
	c-0.236-0.112-0.461-0.245-0.674-0.392c-0.102-0.088-0.197-0.18-0.285-0.282c-0.239-0.327-0.444-0.664-0.617-1.032
	c-0.115-0.286-0.22-0.577-0.287-0.88c-0.069-0.319-0.118-0.641-0.164-0.964c-0.02-0.201-0.03-0.397-0.015-0.599
	c0.033-0.197,0.075-0.389,0.138-0.578c0.081-0.141,0.171-0.275,0.265-0.406c0.071-0.082,0.143-0.157,0.224-0.228
	c0.095-0.064,0.194-0.121,0.296-0.172c0.058-0.021,0.117-0.039,0.177-0.054c0.056,0,0.111,0.001,0.167,0.005
	c0.097,0.019,0.191,0.044,0.284,0.076c0.075,0.044,0.147,0.092,0.217,0.143c0.206,0.167,0.405,0.337,0.586,0.533
	c0.11,0.147,0.219,0.296,0.33,0.442c0.08,0.106,0.167,0.19,0.265,0.26c-0.008,0.12-0.017,0.239-0.022,0.359
	c-0.034,0.793-0.004,1.584,0.013,2.378c0.013,0.545,0.022,1.089,0.05,1.632c-0.006-0.001-0.011-0.005-0.017-0.006
	C10.174,17.693,9.868,17.614,9.565,17.502z M24.481,10.096c-0.015,0.32-0.027,0.638-0.044,0.958
	c-0.04,0.724-0.105,1.447-0.107,2.173c-0.002,0.69-0.046,1.377-0.069,2.067c-0.023,0.722-0.056,1.446-0.08,2.171
	c-0.026,0.676-0.002,1.351-0.068,2.025c-0.055,0.346-0.146,0.685-0.268,1.012c-0.175,0.378-0.391,0.735-0.632,1.074
	c-0.426,0.526-0.923,1.004-1.445,1.435c-0.188,0.137-0.385,0.259-0.593,0.36c-0.242,0.087-0.491,0.143-0.743,0.196
	c-0.259,0.053-0.511,0.121-0.772,0.167c-0.455,0.047-0.911,0.037-1.368,0.034c-0.411-0.003-0.825-0.001-1.234-0.042
	c-0.391-0.064-0.774-0.159-1.145-0.296c-0.352-0.161-0.697-0.345-1.035-0.531c-0.363-0.2-0.708-0.41-1.039-0.655
	c-0.219-0.182-0.422-0.385-0.604-0.604c-0.141-0.196-0.261-0.401-0.371-0.618c-0.136-0.267-0.288-0.526-0.421-0.794
	c-0.19-0.553-0.274-1.151-0.353-1.731c-0.085-0.749-0.071-1.497-0.086-2.25c-0.015-0.803-0.048-1.604-0.017-2.406
	c0.029-0.81,0.079-1.617,0.081-2.427c0-0.715,0.009-1.43,0.02-2.143c1.549-0.143,3.108-0.134,4.663-0.129
	c0.793,0.004,1.582-0.004,2.374,0.052c0.789,0.056,1.582,0.08,2.374,0.1c1.002,0.022,2.001,0.001,3.002-0.019
	C24.507,9.546,24.493,9.821,24.481,10.096z M13.028,23.628c0.023,0.018,0.047,0.036,0.07,0.053c0.006,0.005,0.013,0.01,0.019,0.015
	C13.087,23.674,13.057,23.651,13.028,23.628z M23.034,14.812c-0.016,0.721-0.028,1.442-0.048,2.162
	c-0.009,0.306-0.015,0.613-0.013,0.919c0.002,0.279,0.018,0.556,0.006,0.835c-0.009,0.154-0.02,0.308-0.04,0.462
	c-0.028,0.213-0.046,0.449-0.117,0.655c-0.108,0.314-0.244,0.62-0.42,0.904c-0.174,0.284-0.387,0.55-0.622,0.791
	c-0.189,0.193-0.396,0.372-0.642,0.488c-0.216,0.103-0.424,0.152-0.66,0.086c-0.215-0.059-0.4-0.202-0.512-0.392
	c-0.116-0.198-0.147-0.439-0.086-0.66c0.053-0.191,0.202-0.429,0.393-0.512c0.059-0.025,0.113-0.052,0.166-0.083
	c0.094-0.088,0.181-0.184,0.264-0.284c0.153-0.215,0.286-0.44,0.401-0.677c0.073-0.2,0.125-0.403,0.161-0.613
	c0.029-0.288,0.044-0.576,0.063-0.865c0.02-0.312,0.049-0.622,0.07-0.934c0.048-0.759,0.033-1.521,0.042-2.282
	c0.005-0.435,0.36-0.798,0.798-0.798C22.663,14.014,23.043,14.377,23.034,14.812z"/>
</svg>