<?xml version="1.0" encoding="utf-8"?>
<!-- Generator: Adobe Illustrator 21.1.0, SVG Export Plug-In . SVG Version: 6.00 Build 0)  -->
<svg version="1.1" id="designs" xmlns="http://www.w3.org/2000/svg" xmlns:xlink="http://www.w3.org/1999/xlink" x="0px" y="0px"
	 width="32px" height="32px" viewBox="0 0 32 32" style="enable-background:new 0 0 32 32;" xml:space="preserve">
<style type="text/css">
	.sketchy_een{fill:#111918;}
</style>
<path class="sketchy_een" d="M24.924,25.205c-0.004-1.649,0.008-3.295-0.006-4.942c-0.014-1.67-0.01-3.341-0.052-5.011
	c-0.042-1.676-0.129-3.351-0.171-5.027c-0.032-1.243-0.05-2.48-0.014-3.721c0.036-1.307,0.058-2.615,0.072-3.924
	c0.005-0.344-0.223-0.641-0.53-0.761c-0.017-0.423-0.364-0.756-0.785-0.764C22.678,1.046,21.918,1.02,21.158,1
	c-0.006,0-0.011,0-0.017,0c-0.438,0-0.799,0.387-0.799,0.817c0,0.045,0.019,0.084,0.026,0.127C20.306,2.06,20.26,2.185,20.26,2.323
	c-0.001,0.286,0.008,0.57,0.011,0.855c-0.686,0.012-1.369,0.02-2.056-0.016c-0.744-0.036-1.485-0.056-2.229-0.058
	c-0.048,0-0.097,0-0.145,0c-0.695,0-1.391,0.026-2.086,0.046c-0.362,0.01-0.722,0.018-1.084,0.024
	c-0.285,0.006-0.571,0.014-0.857,0.028c-0.006-0.253-0.011-0.506-0.019-0.759c-0.01-0.274-0.157-0.508-0.369-0.653
	c-0.097-0.327-0.392-0.569-0.747-0.575c-0.879-0.014-1.756-0.03-2.635-0.034c-0.001,0-0.002,0-0.004,0
	c-0.45,0-0.826,0.379-0.826,0.829c0,0.083,0.025,0.159,0.048,0.235C7.175,2.381,7.11,2.533,7.106,2.705
	C7.017,6.169,7.122,9.631,7.13,13.096c0.004,1.758-0.012,3.518-0.01,5.276c0,1.752,0.032,3.504,0.038,5.256
	c0.004,1.032-0.002,2.062-0.004,3.094c-0.002,0.531-0.006,1.062-0.008,1.593c-0.004,0.503-0.026,1.01-0.018,1.513
	c0.006,0.365,0.229,0.684,0.548,0.821C7.838,30.857,8.08,31.003,8.359,31c0.531-0.008,1.062-0.02,1.593-0.032
	c0.549-0.012,1.126,0.024,1.664-0.089c0.435-0.09,0.681-0.578,0.594-0.992c0.021-0.073,0.046-0.143,0.05-0.221
	c0.004-0.087,0.006-0.173,0.006-0.26c0.001-0.107-0.021-0.204-0.055-0.297c-0.003-0.471,0.012-0.942,0.023-1.413
	c1.268-0.017,2.536,0.017,3.801,0.025c0.702,0.004,1.406,0.01,2.106,0.04c0.34,0.014,0.678,0.044,1.016,0.063
	c0.409,0.022,0.817,0.021,1.227,0.015c-0.001,0.036,0,0.072-0.001,0.107c-0.019,0.536-0.06,1.072-0.112,1.607
	c-0.004,0.013-0.008,0.025-0.013,0.038c-0.145,0.449,0.165,0.947,0.607,1.068c0.162,0.045,0.315,0.026,0.46-0.016
	c0.008,0,0.015,0.005,0.023,0.004c0.704-0.036,1.408-0.078,2.11-0.111c0.022-0.001,0.041-0.012,0.063-0.014
	c0.15,0.13,0.34,0.218,0.55,0.218c0.457,0,0.857-0.386,0.849-0.849c-0.012-0.754,0.01-1.509,0.01-2.263
	C24.93,26.818,24.926,26.011,24.924,25.205z M23.11,2.641c-0.005,0.885,0.008,1.772-0.012,2.657
	c-0.016,0.821-0.056,1.641-0.062,2.464c-0.01,1.67,0.072,3.341,0.133,5.009c0.062,1.674,0.115,3.345,0.117,5.019
	c0,1.636-0.026,3.275-0.022,4.912c0.004,1.241,0.006,2.482,0,3.721c-0.003,0.832-0.02,1.664-0.033,2.496
	c-0.402,0.01-0.805,0.028-1.209,0.045c0.004-0.117,0.009-0.234,0.012-0.351c0.014-0.424,0.022-0.847,0.016-1.271
	c-0.012-0.825-0.038-1.651-0.05-2.476c-0.026-1.684-0.03-3.367-0.028-5.051c0.004-3.347-0.036-6.692-0.046-10.037
	c-0.004-1.195-0.002-2.39-0.022-3.585c-0.008-0.613-0.026-1.223-0.034-1.835c-0.008-0.574,0.006-1.147,0.015-1.721
	c0.283,0.001,0.566,0.004,0.848,0.004C22.859,2.641,22.985,2.641,23.11,2.641z M18.014,16.486c-0.642,0.032-1.287,0.058-1.931,0.066
	c-0.682,0.008-1.364-0.002-2.046-0.004c-0.322,0-0.646,0-0.969,0c-0.165,0-0.33,0-0.495,0c-0.074,0-0.147,0-0.219,0
	c-0.048,0-0.095,0.002-0.143,0.008c-0.036,0.005-0.059,0.008-0.085,0.012c-0.018-0.815-0.054-1.629-0.071-2.443
	c-0.005-0.229-0.01-0.457-0.017-0.686c0.26-0.013,0.519-0.027,0.781-0.035c0.356-0.012,0.712,0,1.068,0.004
	c0.74,0.012,1.479,0.028,2.219,0.032c0.712,0.004,1.422,0,2.134,0.014c0.687,0.014,1.374,0.049,2.062,0.075
	c0.006,0.496,0.012,0.991,0.012,1.487c0.001,0.473-0.001,0.945-0.002,1.417C19.544,16.432,18.779,16.449,18.014,16.486z
	 M12.521,18.089c-0.012,0.001-0.023,0.003-0.035,0.004c0.001,0,0.001,0,0.002-0.001C12.499,18.091,12.51,18.089,12.521,18.089z
	 M20.295,11.985c-0.669-0.011-1.337-0.019-2.008-0.02c-0.199,0-0.398,0-0.595,0c-0.529,0.002-1.058,0.002-1.587-0.014
	c-0.724-0.022-1.448-0.056-2.174-0.067c-0.145-0.002-0.289-0.003-0.434-0.003c-0.499,0-0.998,0.009-1.497,0.014
	c-0.002-0.106-0.006-0.212-0.008-0.318c-0.001-0.098-0.001-0.197-0.002-0.296c1.39-0.055,2.782-0.061,4.174-0.073
	c0.718-0.008,1.428-0.056,2.144-0.101c0.338-0.022,0.676-0.016,1.014-0.02c0.325-0.006,0.65-0.019,0.976-0.033
	C20.297,11.364,20.297,11.675,20.295,11.985z M12.212,18.89c-0.011-0.249-0.018-0.498-0.028-0.747
	c0.094,0.004,0.188-0.008,0.278-0.041c0.41-0.035,0.825-0.033,1.238-0.032c0.147,0.002,0.296,0.002,0.443,0
	c0.66-0.006,1.32-0.01,1.981-0.022c0.646-0.012,1.291-0.042,1.935-0.05c0.751-0.008,1.5,0.008,2.25,0.016
	c-0.001,0.274,0.001,0.548,0.001,0.822c-0.64,0.023-1.28,0.042-1.919,0.056c-0.726,0.018-1.45,0.046-2.176,0.064
	c-0.704,0.02-1.41,0.016-2.114-0.004C13.473,18.933,12.842,18.927,12.212,18.89z M20.311,7.484c0.001,0.666-0.005,1.332-0.007,1.997
	c-1.378,0.088-2.758,0.168-4.139,0.176c-0.682,0.004-1.362,0.006-2.044,0.016c-0.714,0.01-1.427,0.025-2.141,0.012
	c-0.001-0.213-0.002-0.426-0.005-0.639c-0.006-0.702-0.029-1.403-0.048-2.104C12.517,6.9,13.111,6.884,13.7,6.884
	c0.296,0,0.595,0,0.891,0c0.447,0.002,0.895,0.002,1.342-0.002c0.748-0.004,1.495-0.014,2.245-0.014c0.38,0,0.762,0.006,1.143,0.01
	c0.328,0.004,0.657,0.006,0.985,0.006C20.307,7.084,20.311,7.284,20.311,7.484z M12.25,20.414c0.611-0.011,1.224,0.008,1.833,0.018
	c0.698,0.014,1.396,0,2.092-0.02c0.736-0.022,1.468-0.046,2.203-0.046c0.645,0,1.29,0.011,1.935,0.005
	c0.002,0.727,0,1.455,0.003,2.182c0.002,0.502,0.017,1.002,0.024,1.504c-0.033-0.003-0.063-0.019-0.097-0.018
	c-0.658,0.034-1.316,0.082-1.975,0.076c-0.616-0.006-1.233-0.044-1.847-0.078c-0.62-0.036-1.241-0.05-1.861-0.062
	c-0.67-0.01-1.34-0.004-2.009-0.018c-0.005,0-0.011,0-0.017,0c-0.093,0-0.181,0.023-0.263,0.057
	C12.274,22.815,12.274,21.614,12.25,20.414z M13.754,4.758c0.744-0.018,1.485-0.036,2.231-0.032
	c0.734,0.002,1.468,0.006,2.201,0.036c0.7,0.028,1.402,0.045,2.104,0.047c0.001,0.059,0.001,0.118,0.002,0.178
	c0.003,0.117,0.001,0.235,0.003,0.352c-0.706,0.018-1.412,0.041-2.118,0.041c-0.75,0-1.497-0.01-2.245-0.016
	c-1.35-0.009-2.699,0.018-4.047,0.046c-0.009-0.208-0.016-0.417-0.025-0.625c0.269-0.017,0.54-0.019,0.809-0.02
	C13.033,4.761,13.393,4.766,13.754,4.758z M8.906,29.234c-0.028-3.224-0.025-6.449-0.066-9.673
	c-0.022-1.752-0.014-3.502-0.032-5.254C8.8,13.463,8.791,12.62,8.783,11.779c-0.01-0.853-0.042-1.706-0.046-2.557
	c-0.004-1.05,0.006-2.098,0.016-3.146c0.01-1.08,0.055-2.16,0.09-3.24c0.456-0.002,0.911-0.011,1.367-0.025
	c0.033,0.77,0.07,1.541,0.098,2.311c0.03,0.819,0.044,1.641,0.068,2.46c0.052,1.724,0.008,3.45,0.046,5.174
	c0.018,0.845,0.04,1.69,0.072,2.536c0.036,0.869,0.042,1.738,0.076,2.607c0.036,0.881,0.078,1.762,0.091,2.645
	c0.014,0.839,0.016,1.678,0.016,2.518c0,1.074,0.008,2.147-0.024,3.221c-0.028,0.939-0.075,1.879-0.101,2.818
	c-0.015,0.041-0.015,0.087-0.025,0.129c-0.191-0.002-0.382,0.001-0.574,0C9.603,29.229,9.255,29.232,8.906,29.234z M18.203,26.27
	c-0.704-0.024-1.41-0.04-2.114-0.042c-0.726-0.002-1.45,0.002-2.176,0.006c-0.553,0.002-1.107-0.009-1.661-0.014
	c0.004-0.262,0.006-0.523,0.007-0.785c0.09,0.038,0.188,0.06,0.291,0.058c1.289-0.02,2.581,0.036,3.87,0.081
	c0.616,0.022,1.231,0.054,1.847,0.072c0.658,0.022,1.316,0.012,1.975-0.014c0.043-0.002,0.081-0.02,0.122-0.027
	c0.004,0.166,0.003,0.332,0.008,0.498c0.001,0.055,0.002,0.11,0.004,0.166c-0.39,0.012-0.781,0.029-1.171,0.029
	C18.871,26.295,18.537,26.281,18.203,26.27z"/>
</svg>