<?xml version="1.0" encoding="utf-8"?>
<!-- Generator: Adobe Illustrator 21.1.0, SVG Export Plug-In . SVG Version: 6.00 Build 0)  -->
<svg version="1.1" id="designs" xmlns="http://www.w3.org/2000/svg" xmlns:xlink="http://www.w3.org/1999/xlink" x="0px" y="0px"
	 width="32px" height="32px" viewBox="0 0 32 32" style="enable-background:new 0 0 32 32;" xml:space="preserve">
<style type="text/css">
	.sketchy_een{fill:#111918;}
</style>
<path class="sketchy_een" d="M27.531,25.206c0.003-0.239-0.119-0.445-0.295-0.586c-0.087-0.303-0.359-0.54-0.698-0.545
	c-0.476-0.008-0.955-0.052-1.431-0.071c-0.289-0.012-0.578-0.015-0.868-0.022c0.1-0.291,0.189-0.586,0.26-0.89
	c0.138-0.585,0.203-1.182,0.272-1.777c0.061-0.524,0.103-1.044,0.073-1.573c-0.03-0.553-0.12-1.105-0.197-1.655
	c-0.02-0.173-0.038-0.347-0.054-0.522c-0.002-0.015-0.003-0.032-0.004-0.047c0.031-0.012,0.064-0.011,0.093-0.028
	c0.365-0.207,0.731-0.409,1.012-0.733c0.247-0.281,0.472-0.585,0.647-0.918c0.077-0.148,0.15-0.3,0.218-0.453
	c0.02-0.038,0.038-0.078,0.051-0.119c0.066-0.158,0.126-0.318,0.179-0.48c0.119-0.369,0.163-0.769,0.165-1.155
	c0-0.354-0.023-0.712-0.057-1.063c-0.038-0.404-0.086-0.811-0.159-1.211c-0.14-0.784-0.383-1.548-0.715-2.272
	C25.89,8.797,25.705,8.539,25.496,8.3c-0.285-0.327-0.656-0.56-1.058-0.717c-0.268-0.103-0.566-0.099-0.851-0.103
	c-0.089-0.002-0.178-0.002-0.267-0.002c-0.019,0-0.038,0-0.057,0c-0.022-0.089-0.039-0.178-0.061-0.267
	c-0.094-0.369-0.178-0.738-0.277-1.106c-0.096-0.346-0.21-0.687-0.319-1.029c-0.136-0.423-0.277-0.842-0.43-1.257
	c-0.069-0.191-0.147-0.377-0.216-0.568c-0.082-0.228-0.149-0.461-0.226-0.691C21.621,2.233,21.333,2,20.998,2
	c-0.066,0-0.135,0.009-0.204,0.028c-0.101,0.028-0.194,0.082-0.276,0.15c-0.086,0.013-0.173,0.022-0.25,0.071
	c-0.276,0.168-0.524,0.398-0.763,0.616c-0.199,0.184-0.386,0.381-0.568,0.582c-0.367,0.406-0.691,0.851-1.046,1.266
	c-0.039,0.045-0.063,0.094-0.093,0.142c-0.441,0.014-0.881,0.021-1.322,0.02c-0.195,0-0.392-0.002-0.587-0.002
	c-0.677,0-1.356-0.022-2.035-0.008c-0.003-0.004-0.007-0.007-0.011-0.011c-0.212-0.304-0.381-0.646-0.657-0.899
	c-0.13-0.119-0.264-0.235-0.396-0.354c-0.153-0.14-0.293-0.287-0.44-0.432c-0.122-0.121-0.258-0.228-0.377-0.352
	c-0.15-0.158-0.377-0.273-0.602-0.273c-0.067,0-0.133,0.01-0.198,0.032c-0.241,0.084-0.375,0.205-0.513,0.407
	c-0.061,0.088-0.096,0.199-0.143,0.293c-0.087,0.178-0.167,0.358-0.244,0.54c0.008-0.019,0.015-0.037,0.022-0.056
	C10.147,4.105,9.996,4.444,9.87,4.796C9.753,5.115,9.65,5.438,9.543,5.762C9.307,6.477,9.084,7.19,8.906,7.921
	c-0.343,1.412-0.465,2.872-0.441,4.321c-0.206,0.227-0.41,0.455-0.614,0.687C7.6,13.214,7.348,13.494,7.112,13.79
	c-0.474,0.599-0.899,1.226-1.28,1.886c-0.39,0.673-0.693,1.416-0.811,2.185c-0.138,0.888-0.197,1.844,0.18,2.684
	c0.061,0.134,0.12,0.26,0.203,0.383c0.086,0.125,0.189,0.243,0.289,0.358c0.22,0.254,0.484,0.442,0.792,0.576
	c0.358,0.159,0.731,0.304,1.119,0.369c0.023,0.004,0.043,0,0.065,0.003c0.03,0.197,0.069,0.392,0.119,0.584
	c0.09,0.348,0.216,0.681,0.35,1.014c0.009,0.022,0.018,0.043,0.027,0.064c-0.364,0.013-0.729,0.014-1.09,0.005
	c-0.616-0.015-1.234-0.032-1.85-0.029c-0.43,0.002-0.79,0.358-0.79,0.79c0,0.144,0.054,0.277,0.127,0.398
	c0,0.006-0.004,0.012-0.004,0.018c0.006,0.719,0.034,1.438,0.034,2.16C4.594,27.594,4.6,27.95,4.6,28.306
	c0,0.228-0.008,0.459,0.023,0.685c0.01,0.077,0.027,0.144,0.045,0.211c0,0.004-0.002,0.007-0.002,0.01
	c0,0.423,0.358,0.796,0.786,0.788c0.759-0.015,1.517-0.031,2.276-0.044c0.78-0.015,1.561-0.059,2.341-0.078
	c0.794-0.021,1.59-0.017,2.383-0.015c0.708,0.004,1.414,0.006,2.121-0.01c1.498-0.031,2.996-0.032,4.495-0.032
	c1.471-0.002,2.942,0.052,4.413,0.076c0.56,0.011,1.119,0.036,1.68,0.059c0.482,0.019,0.966,0.006,1.448,0.032
	c0.273,0.017,0.505-0.156,0.634-0.384c0.091-0.062,0.171-0.138,0.227-0.234c0.088-0.151,0.104-0.298,0.089-0.457
	c0.001,0.011,0.003,0.023,0.004,0.035C27.464,27.704,27.516,26.451,27.531,25.206z M6.905,20.396
	c-0.089-0.084-0.17-0.177-0.249-0.271c-0.065-0.099-0.121-0.202-0.171-0.308c-0.056-0.171-0.098-0.342-0.128-0.519
	c-0.034-0.38-0.021-0.754,0.021-1.134c0.051-0.318,0.125-0.621,0.241-0.921c0.39-0.894,0.941-1.705,1.524-2.486
	c0.46-0.576,1.014-1.08,1.524-1.615c0.138-0.146,0.21-0.333,0.213-0.521c0.047-0.097,0.078-0.202,0.073-0.315
	c-0.019-0.446-0.052-0.893-0.05-1.341c0.002-0.426,0.04-0.853,0.091-1.276c0.057-0.387,0.122-0.771,0.206-1.153
	c0.09-0.415,0.208-0.826,0.331-1.234c0.25-0.822,0.523-1.644,0.846-2.439c0.064-0.148,0.132-0.293,0.203-0.438
	c0.064,0.064,0.129,0.128,0.194,0.191c0.152,0.145,0.308,0.289,0.449,0.446c0.239,0.345,0.424,0.723,0.726,1.021
	c0.081,0.079,0.177,0.132,0.279,0.168c0.109,0.065,0.229,0.112,0.361,0.104c0.765-0.05,1.532-0.086,2.299-0.097
	c0.365-0.006,0.729-0.012,1.094-0.014c0.383,0,0.771-0.009,1.152,0.031c0.18,0.019,0.385-0.086,0.505-0.208
	c0.041-0.041,0.065-0.093,0.095-0.142c0.085-0.037,0.165-0.084,0.22-0.15c0.285-0.348,0.532-0.723,0.796-1.087
	c0.259-0.324,0.542-0.628,0.848-0.908c0.045,0.104,0.084,0.21,0.13,0.314c0.201,0.494,0.368,1.002,0.537,1.508
	c0.186,0.555,0.341,1.117,0.486,1.683c0.134,0.511,0.266,1.02,0.363,1.54c0.102,0.556,0.196,1.115,0.278,1.674
	c0.067,0.541,0.119,1.081,0.135,1.627c0.008,0.264,0.013,0.526,0.031,0.788c0.006,0.097,0.013,0.193,0.021,0.29
	c-0.522,0.176-1.051,0.33-1.584,0.477c-0.63,0.172-1.265,0.293-1.911,0.385c-0.992,0.133-1.992,0.156-2.992,0.162
	c-0.933,0.005-1.869-0.009-2.796-0.117c-0.244-0.04-0.486-0.087-0.728-0.141c-0.206-0.047-0.414-0.096-0.614-0.168
	c-0.176-0.076-0.349-0.108-0.544-0.054c-0.26,0.071-0.469,0.279-0.539,0.538c-0.055,0.199-0.027,0.417,0.078,0.595
	c0.067,0.117,0.161,0.208,0.275,0.277c0.121,0.069,0.251,0.103,0.39,0.105c0.016,0.001,0.031,0.002,0.047,0.004
	c0.327,0.048,0.654,0.103,0.982,0.147c0.377,0.05,0.756,0.084,1.134,0.111c0.116,0.009,0.232,0.008,0.348,0.013
	c-0.182,0.279-0.322,0.578-0.438,0.891c-0.145,0.386-0.203,0.824-0.212,1.234c-0.013,0.467,0.136,0.928,0.356,1.335
	c0.235,0.434,0.731,0.713,1.188,0.853c0.253,0.077,0.507,0.121,0.769,0.155c0.413,0.053,0.828,0.021,1.22-0.119
	c0.574-0.205,1.14-0.61,1.389-1.184c0.088-0.203,0.176-0.406,0.23-0.62c0.059-0.233,0.09-0.477,0.115-0.716
	c0.027-0.264-0.004-0.562-0.082-0.813c-0.111-0.35-0.306-0.624-0.545-0.897c-0.049-0.055-0.107-0.101-0.162-0.15
	c0.101-0.006,0.203-0.007,0.304-0.016c0.798-0.069,1.592-0.167,2.38-0.314c0.469-0.088,0.934-0.203,1.398-0.306
	c0.459-0.103,0.918-0.197,1.364-0.35c0.23-0.079,0.4-0.249,0.488-0.457c0.098-0.165,0.139-0.349,0.102-0.547
	c-0.003-0.016-0.006-0.031-0.009-0.047c-0.028-0.284-0.031-0.573-0.043-0.856c-0.013-0.34-0.021-0.681-0.046-1.023
	c-0.059-0.777-0.172-1.546-0.291-2.314c-0.016-0.103-0.034-0.206-0.049-0.309c0.116-0.005,0.232-0.014,0.348-0.013
	c0.049,0.011,0.098,0.025,0.146,0.04c0.067,0.034,0.129,0.071,0.192,0.113c0.098,0.084,0.189,0.175,0.273,0.273
	c0.111,0.161,0.201,0.328,0.284,0.505c0.143,0.363,0.271,0.728,0.381,1.104c0.118,0.406,0.191,0.829,0.257,1.249
	c0.071,0.579,0.113,1.169,0.062,1.75c-0.04,0.229-0.098,0.451-0.176,0.673c-0.008,0.025-0.017,0.049-0.027,0.073
	c-0.058,0.11-0.103,0.232-0.155,0.339c-0.096,0.195-0.208,0.379-0.335,0.555c-0.108,0.132-0.218,0.254-0.346,0.367
	c-0.11,0.077-0.227,0.143-0.348,0.199c-0.064,0.026-0.119,0.059-0.173,0.093c-0.112-0.024-0.227-0.031-0.342,0
	c-0.184,0.052-0.344,0.174-0.44,0.34c-0.067,0.115-0.101,0.239-0.101,0.371c0,0.104,0.021,0.203,0.062,0.296
	c0.009,0.033,0.017,0.066,0.023,0.1c0.038,0.352,0.066,0.704,0.119,1.056c0.044,0.308,0.092,0.614,0.136,0.922
	c0.046,0.407,0.061,0.811,0.05,1.221c-0.01,0.381-0.069,0.758-0.12,1.135c0.001-0.009,0.002-0.018,0.004-0.028
	c-0.097,0.716-0.265,1.411-0.532,2.082c-0.15,0.336-0.307,0.668-0.518,0.97c-0.082,0.095-0.167,0.185-0.26,0.269
	c-0.078,0.052-0.157,0.097-0.242,0.138c-0.759,0.295-1.566,0.491-2.371,0.607c-0.484,0.055-0.969,0.107-1.455,0.153
	c-0.488,0.044-0.977,0.042-1.465,0.046c-0.564,0.002-1.121-0.034-1.681-0.076c-0.564-0.043-1.129-0.062-1.692-0.117
	c-0.61-0.097-1.206-0.254-1.785-0.472c-0.13-0.058-0.256-0.122-0.376-0.197c-0.127-0.116-0.243-0.246-0.365-0.369
	c-0.214-0.218-0.442-0.424-0.642-0.656c-0.226-0.335-0.386-0.706-0.545-1.076c-0.151-0.382-0.255-0.777-0.32-1.183
	c-0.041-0.359-0.063-0.72-0.056-1.083c0.009-0.407,0.05-0.813,0.101-1.219c0.072-0.489,0.161-0.975,0.255-1.459
	c0.105-0.557,0.245-1.104,0.363-1.658c0.086-0.402-0.113-0.813-0.526-0.926c-0.061-0.017-0.124-0.025-0.189-0.025
	c-0.329,0-0.674,0.213-0.739,0.551c-0.073,0.381-0.124,0.763-0.189,1.146c-0.061,0.363-0.14,0.723-0.208,1.084
	c-0.145,0.761-0.289,1.523-0.323,2.299c-0.002,0.041,0.005,0.08,0.003,0.12c-0.14-0.038-0.281-0.074-0.417-0.127
	C7.067,20.487,6.984,20.445,6.905,20.396z M16.67,18.427c-0.11,0.04-0.221,0.073-0.336,0.1c-0.129,0.008-0.257,0.005-0.386-0.004
	c-0.189-0.033-0.373-0.078-0.555-0.143c-0.076-0.039-0.147-0.082-0.217-0.131c-0.003-0.003-0.006-0.006-0.01-0.01
	c-0.022-0.039-0.043-0.077-0.063-0.116c-0.034-0.099-0.061-0.199-0.082-0.302c-0.009-0.129-0.008-0.257,0-0.386
	c0.042-0.245,0.105-0.481,0.192-0.714c0.06-0.122,0.125-0.239,0.199-0.351c0.057-0.064,0.117-0.122,0.182-0.178
	c0.099-0.069,0.199-0.133,0.302-0.193c0.067,0.048,0.143,0.087,0.224,0.114c0.058,0.019,0.115,0.039,0.172,0.06
	c0.175,0.087,0.338,0.196,0.496,0.311c0.133,0.113,0.255,0.234,0.369,0.366c0.025,0.037,0.049,0.073,0.07,0.112
	c0.015,0.043,0.028,0.086,0.039,0.131c0.008,0.13,0.006,0.257-0.006,0.387c-0.03,0.162-0.072,0.317-0.128,0.471
	c-0.034,0.069-0.07,0.135-0.109,0.2c-0.062,0.067-0.127,0.128-0.195,0.187C16.777,18.369,16.724,18.399,16.67,18.427z
	 M24.675,28.506c-0.71-0.017-1.419-0.015-2.129-0.025c-1.494-0.023-2.988-0.046-4.484-0.052c-0.736-0.002-1.473-0.006-2.209,0.006
	c-0.777,0.01-1.553,0.033-2.33,0.034c-0.53,0.002-1.062,0.002-1.592,0.002c-0.97-0.002-1.942-0.004-2.911,0.011
	c-0.583,0.01-1.165,0.008-1.748-0.006c-0.409-0.01-0.817-0.025-1.225-0.037c-0.029-0.45-0.028-0.902-0.027-1.353
	c0-0.555,0.019-1.111,0.029-1.666c0.342-0.013,0.685-0.024,1.026-0.039c0.57-0.025,1.144-0.086,1.716-0.057
	c0.073,0.004,0.139-0.018,0.206-0.038c0.125,0.137,0.255,0.269,0.385,0.404c0.147,0.149,0.283,0.314,0.444,0.45
	c0.13,0.111,0.262,0.218,0.415,0.296c0.205,0.103,0.425,0.188,0.641,0.266c0.327,0.119,0.67,0.205,1.01,0.281
	c0.398,0.092,0.802,0.172,1.209,0.212c0.388,0.036,0.779,0.055,1.167,0.088c0.738,0.065,1.475,0.115,2.217,0.128
	c0.383,0.006,0.773,0.032,1.155,0.002c0.426-0.035,0.852-0.084,1.276-0.141c0.451-0.055,0.901-0.103,1.349-0.185
	c0.428-0.078,0.868-0.161,1.284-0.295c0.21-0.067,0.421-0.14,0.629-0.214c0.147-0.052,0.293-0.113,0.436-0.176
	c0.186-0.08,0.344-0.214,0.497-0.344c0.188-0.161,0.337-0.374,0.472-0.582c0.449-0.005,0.899-0.018,1.348-0.027
	c0.364-0.008,0.725-0.006,1.085,0.026c0.009,0.591,0.041,1.181,0.049,1.772c0.004,0.322,0.011,0.643,0.015,0.964
	c0.001,0.101,0,0.202,0,0.304C25.611,28.524,25.141,28.518,24.675,28.506z M11.251,11.571c-0.302-0.302-0.306-0.813,0-1.115
	c0.182-0.178,0.381-0.335,0.589-0.486c0.101-0.073,0.205-0.142,0.319-0.193c0.298-0.132,0.638-0.203,0.969-0.203
	c0.047,0,0.093,0.001,0.139,0.004c0.184,0.011,0.371,0.032,0.547,0.08c0.21,0.056,0.411,0.174,0.603,0.277
	c0.172,0.096,0.337,0.195,0.495,0.31c0.166,0.124,0.295,0.25,0.352,0.457c0.054,0.199,0.025,0.413-0.078,0.589
	c-0.099,0.172-0.266,0.3-0.457,0.352c-0.178,0.05-0.434,0.04-0.589-0.076c-0.076-0.057-0.151-0.116-0.226-0.175
	c-0.154-0.11-0.321-0.199-0.491-0.28c-0.023-0.006-0.046-0.012-0.069-0.017c-0.108-0.007-0.215-0.006-0.323,0.002
	c-0.06,0.011-0.119,0.024-0.177,0.042c-0.017,0.01-0.033,0.02-0.05,0.03c-0.153,0.126-0.298,0.261-0.438,0.402
	C12.064,11.877,11.553,11.873,11.251,11.571z M16.833,11.312c-0.052-0.184-0.044-0.453,0.078-0.612
	c0.126-0.163,0.241-0.323,0.402-0.453c0.138-0.111,0.279-0.22,0.436-0.308c0.36-0.197,0.782-0.3,1.19-0.325
	C19,9.609,19.06,9.608,19.121,9.608c0.421,0,0.844,0.084,1.242,0.208c0.161,0.052,0.325,0.113,0.467,0.207
	c0.101,0.071,0.201,0.145,0.304,0.216c0.23,0.159,0.385,0.381,0.385,0.671c0,0.205-0.082,0.404-0.228,0.549
	c-0.312,0.312-0.786,0.283-1.1,0c-0.076-0.069-0.152-0.139-0.23-0.207c-0.014-0.009-0.029-0.018-0.044-0.025
	c-0.159-0.054-0.323-0.095-0.487-0.124c-0.137-0.01-0.274-0.013-0.411-0.004c-0.139,0.027-0.272,0.065-0.406,0.113
	c-0.039,0.02-0.077,0.042-0.114,0.066c-0.082,0.072-0.156,0.15-0.225,0.234c-0.129,0.167-0.251,0.294-0.466,0.353
	c-0.205,0.057-0.427,0.027-0.61-0.08C17.019,11.681,16.887,11.509,16.833,11.312z"/>
</svg>