<?xml version="1.0" encoding="utf-8"?>
<!-- Generator: Adobe Illustrator 21.1.0, SVG Export Plug-In . SVG Version: 6.00 Build 0)  -->
<svg version="1.1" id="designs" xmlns="http://www.w3.org/2000/svg" xmlns:xlink="http://www.w3.org/1999/xlink" x="0px" y="0px"
	 width="32px" height="32px" viewBox="0 0 32 32" style="enable-background:new 0 0 32 32;" xml:space="preserve">
<style type="text/css">
	.sketchy_een{fill:#111918;}
</style>
<path class="sketchy_een" d="M28.099,27.429c-0.001-0.001-0.002-0.001-0.002-0.001c-0.033-1.356-0.045-2.713-0.06-4.068
	c-0.018-1.534,0.01-3.067,0.022-4.599c0.012-1.473,0.014-2.947,0.028-4.418c0.008-0.785,0.006-1.57-0.006-2.355
	c-0.006-0.36-0.03-0.719-0.05-1.077c-0.02-0.392-0.024-0.785-0.032-1.179c-0.042-1.866,0.006-3.729,0.016-5.595l0-0.002
	c0.035-0.093,0.058-0.191,0.058-0.291c0-0.223-0.089-0.439-0.246-0.596C27.692,3.114,27.478,3,27.279,3
	c-0.016,0-0.032,0.001-0.047,0.002c-0.362,0.034-0.727,0.066-1.089,0.105c-0.368,0.038-0.741,0.028-1.111,0.026
	c-0.799-0.006-1.598,0.002-2.397,0.002c-0.316,0-0.632,0.002-0.948,0.004c-0.513,0.002-1.024,0.004-1.538-0.004
	c-0.821-0.012-1.644-0.03-2.466-0.038c-0.869-0.01-1.737-0.032-2.606-0.036c-0.813-0.004-1.624-0.002-2.435-0.006
	c-0.851-0.004-1.703-0.006-2.554-0.02C9.579,3.026,9.072,3.026,8.567,3.026c-0.278,0-0.553,0-0.829-0.002
	C6.649,3.018,5.56,2.998,4.471,3.008C4.02,3.012,3.646,3.381,3.646,3.833c0,0.211,0.089,0.407,0.226,0.557
	C3.834,4.485,3.81,4.587,3.814,4.694c0.034,0.857,0.066,1.713,0.078,2.57c0.008,0.771-0.004,1.542-0.002,2.313
	c0.004,1.542,0.016,3.085,0.03,4.627c0.004,0.36,0.006,0.723,0.016,1.083c0.012,0.364,0.04,0.727,0.05,1.091
	c0.022,0.801,0.022,1.6,0.026,2.401c0.008,1.487,0.028,2.975,0.014,4.462c-0.008,0.773-0.028,1.546-0.046,2.319
	c-0.02,0.827-0.006,1.658-0.072,2.486c-0.034,0.403,0.36,0.739,0.739,0.739c0.027,0,0.049-0.013,0.075-0.015
	c0.092,0.034,0.19,0.053,0.296,0.063c1.353,0.125,2.709,0.119,4.066,0.115c0.37-0.002,0.739-0.002,1.109-0.002
	c0.803,0.002,1.606,0.016,2.409,0.024c0.813,0.008,1.628-0.012,2.441-0.012c1.713-0.002,3.424-0.002,5.134,0
	c1.58,0.002,3.16,0.036,4.74,0.04c0.477,0,0.956,0.014,1.431-0.016c0.376-0.024,0.757-0.03,1.131-0.062
	c0.24-0.022,0.443-0.083,0.618-0.256c0.163-0.163,0.256-0.386,0.256-0.618C28.354,27.815,28.262,27.592,28.099,27.429z M9.491,4.612
	c1.677,0.02,3.353-0.002,5.03-0.004c1.671-0.004,3.343,0.03,5.014,0.091c1.656,0.058,3.315,0.038,4.973,0.07
	c0.618,0.011,1.235-0.005,1.851-0.036c0.013,1.476,0.044,2.953,0.05,4.431c0,0.117,0,0.234-0.001,0.35
	c-0.034-0.004-0.064-0.019-0.099-0.02c-1.628-0.048-3.258-0.068-4.888-0.074c-1.813-0.006-3.624-0.058-5.436-0.06
	c-0.495,0-0.99,0.002-1.485,0.004c-1.235,0.004-2.473,0.008-3.706-0.024C9.034,9.296,7.278,9.253,5.521,9.229
	c0.001-0.573,0.001-1.147,0-1.721C5.517,6.57,5.523,5.632,5.493,4.694c-0.001-0.018-0.01-0.033-0.011-0.051
	C6.818,4.618,8.153,4.596,9.491,4.612z M25.522,27.31c-0.749,0.014-1.497,0.012-2.244,0.028c-1.652,0.032-3.307,0.016-4.959,0.028
	c-0.845,0.006-1.691,0.002-2.536,0.002c-0.839,0-1.677,0.018-2.516,0.02c-0.378,0.002-0.757-0.004-1.135-0.008
	c-0.431-0.006-0.863-0.012-1.294-0.01c-0.791,0.006-1.582,0.006-2.373,0.008c-1.018,0.004-2.038-0.064-3.053-0.157
	c0.016-0.487,0.035-0.974,0.046-1.462c0.016-0.696,0.05-1.393,0.073-2.089c0.022-0.717,0.016-1.433,0.026-2.15
	c0.01-0.779,0.01-1.56,0.014-2.339c0.004-0.779,0.006-1.56-0.01-2.339c-0.016-0.757-0.058-1.514-0.058-2.272
	c-0.002-1.246,0.007-2.492,0.015-3.738c0.917,0.001,1.836-0.016,2.753-0.031c0.439-0.008,0.876,0.014,1.313,0.026
	c0.43,0.012,0.858,0.02,1.289,0.03c1.808,0.042,3.619,0.022,5.43,0.042c1.746,0.018,3.492,0.066,5.238,0.091
	c0.838,0.012,1.675,0.042,2.511,0.076c0.751,0.028,1.507,0.038,2.257,0.083c0.046,0.003,0.086-0.016,0.13-0.021
	c0.007,0.132,0.011,0.263,0.017,0.395c0.034,0.761,0.044,1.522,0.062,2.282c0.07,3.033,0.036,6.066,0.034,9.099
	c0,0.767,0.006,1.534,0.03,2.3c0.02,0.681,0.035,1.363,0.037,2.045C26.253,27.28,25.89,27.302,25.522,27.31z M6.95,7.327
	c0-0.407,0.34-0.747,0.747-0.747s0.747,0.34,0.747,0.747s-0.34,0.747-0.747,0.747S6.95,7.733,6.95,7.327z M10.597,7.476
	c0-0.409,0.342-0.751,0.751-0.751s0.751,0.342,0.751,0.751s-0.342,0.751-0.751,0.751S10.597,7.884,10.597,7.476z M23.051,7.466
	c0-0.457,0.382-0.839,0.839-0.839c0.457,0,0.839,0.382,0.839,0.839c0,0.457-0.382,0.839-0.839,0.839
	C23.434,8.305,23.051,7.923,23.051,7.466z M19.219,7.442c0-0.433,0.362-0.795,0.795-0.795s0.795,0.362,0.795,0.795
	s-0.362,0.795-0.795,0.795S19.219,7.875,19.219,7.442z M9.581,13.647c0-0.457,0.376-0.817,0.825-0.825
	c0.664-0.014,1.328-0.018,1.993-0.012c0.803,0.006,1.608,0.02,2.411,0.022c0.759,0.002,1.52-0.02,2.28-0.022
	c0.753-0.004,1.503-0.006,2.254-0.046c0.727-0.038,1.455-0.036,2.182-0.078c0.013-0.001,0.027-0.001,0.04-0.001
	c0.447,0,0.816,0.425,0.816,0.859c0,0.461-0.39,0.861-0.855,0.855c-0.244-0.004-0.485-0.022-0.727-0.028
	c-0.268-0.008-0.535-0.004-0.803-0.008c-0.423-0.004-0.845-0.002-1.268,0c-0.316,0.002-0.632,0.002-0.948,0
	c-0.761-0.004-1.522,0.008-2.282,0.014c-0.799,0.008-1.598,0.006-2.397,0.014c-0.898,0.01-1.797,0.058-2.695,0.085
	C9.957,14.487,9.581,14.088,9.581,13.647z M24.116,21.365c-0.026-1.143-0.076-2.284-0.091-3.428
	c-0.006-0.461-0.38-0.845-0.847-0.845c-0.009,0-0.016,0.005-0.025,0.005c-0.02,0-0.036-0.011-0.056-0.01
	c-0.34,0.026-0.678,0.026-1.018,0.026c-0.376,0-0.753,0.008-1.131,0.01c-0.721,0.004-1.439,0.012-2.16,0.01
	c-0.733-0.004-1.463-0.016-2.196-0.016c-0.753,0.002-1.51,0-2.262-0.016c-0.896-0.018-1.789-0.032-2.683-0.038
	c-0.902-0.008-1.803-0.034-2.707-0.038c-0.001,0-0.002,0-0.004,0c-0.173,0-0.327,0.068-0.461,0.162
	c-0.139,0.041-0.27,0.103-0.375,0.206c-0.171,0.171-0.233,0.374-0.252,0.61c-0.095,1.177-0.078,2.363-0.103,3.544
	c-0.01,0.521-0.016,1.041,0.002,1.562c0.016,0.511,0.07,1.026,0.121,1.536C7.891,24.862,7.941,25.043,8.1,25.2
	c0.147,0.147,0.348,0.231,0.555,0.231c0.087,0,0.171-0.023,0.253-0.051c0.043,0.008,0.082,0.023,0.128,0.027
	c1.664,0.137,3.341,0.07,5.01,0.058c1.64-0.01,3.281-0.02,4.923-0.012c0.386,0.002,0.773,0.018,1.159,0.012
	c0.39-0.006,0.781-0.02,1.169-0.02c0.723-0.002,1.445-0.024,2.166-0.028c0.461-0.004,0.845-0.382,0.845-0.845
	c0-0.181-0.073-0.351-0.181-0.496C24.124,23.172,24.137,22.267,24.116,21.365z M21.237,23.851c-0.807,0.024-1.614,0.052-2.421,0.056
	c-0.386,0.002-0.773,0.002-1.159,0.002c-0.451-0.002-0.902-0.002-1.351,0c-0.817,0.004-1.634,0.01-2.451,0.002
	c-0.763-0.008-1.526-0.006-2.286-0.024c-0.729-0.017-1.453-0.07-2.178-0.132c-0.011-0.2-0.026-0.399-0.024-0.601
	c0.004-0.537,0-1.073,0.016-1.608c0.029-0.955,0.075-1.909,0.144-2.86c0.63-0.009,1.259-0.021,1.889-0.028
	c0.803-0.008,1.606-0.002,2.409,0.008c1.493,0.018,2.987,0.004,4.48-0.008c0.811-0.008,1.624-0.006,2.435,0.004
	c0.399,0.004,0.795,0.006,1.194,0.014c0.144,0.003,0.288,0.013,0.432,0.016c0.038,0.87,0.093,1.739,0.115,2.609
	c0.019,0.832,0.016,1.665,0.009,2.497C22.071,23.822,21.654,23.839,21.237,23.851z"/>
</svg>