<?xml version="1.0" encoding="utf-8"?>
<!-- Generator: Adobe Illustrator 21.1.0, SVG Export Plug-In . SVG Version: 6.00 Build 0)  -->
<svg version="1.1" id="designs" xmlns="http://www.w3.org/2000/svg" xmlns:xlink="http://www.w3.org/1999/xlink" x="0px" y="0px"
	 width="32px" height="32px" viewBox="0 0 32 32" style="enable-background:new 0 0 32 32;" xml:space="preserve">
<style type="text/css">
	.sketchy_een{fill:#111918;}
</style>
<path class="sketchy_een" d="M27.898,21.513c-0.002-0.257,0-0.516,0-0.773c-0.002-0.555-0.01-1.109-0.025-1.662
	c0-0.005-0.003-0.009-0.003-0.014c0.056-0.109,0.096-0.226,0.096-0.351c0-0.201-0.083-0.399-0.225-0.543
	c-0.155-0.154-0.334-0.205-0.545-0.225c-0.858-0.078-1.72-0.102-2.582-0.11c0.001-0.077,0.007-0.153-0.011-0.231
	c-0.152-0.635-0.443-1.249-0.76-1.817c-0.311-0.557-0.762-1.023-1.257-1.416c-0.269-0.215-0.549-0.411-0.846-0.581
	c-0.219-0.127-0.461-0.228-0.693-0.326c-0.524-0.225-1.057-0.399-1.6-0.56c0.002-0.024,0.002-0.048,0.004-0.071
	c0.011-0.158,0.024-0.316,0.042-0.474c0.061-0.387,0.154-0.757,0.296-1.123c0.142-0.32,0.302-0.629,0.459-0.943
	c0.217-0.43,0.397-0.877,0.547-1.334c0.295-0.898,0.349-1.879,0.079-2.788c-0.132-0.447-0.32-0.888-0.512-1.311
	c-0.096-0.207-0.196-0.411-0.313-0.606c-0.169-0.286-0.399-0.532-0.633-0.764c-0.351-0.345-0.768-0.627-1.197-0.863
	c-0.416-0.23-0.873-0.368-1.33-0.491C16.533,2.04,16.178,2,15.82,2c-0.2,0-0.402,0.012-0.604,0.034
	c-0.259,0.027-0.516,0.061-0.769,0.113c-0.244,0.052-0.482,0.15-0.708,0.249c-0.372,0.161-0.721,0.368-1.075,0.566
	c-0.414,0.23-0.833,0.52-1.124,0.896c-0.165,0.215-0.317,0.422-0.441,0.662c-0.125,0.24-0.226,0.497-0.322,0.75
	c-0.165,0.434-0.226,0.898-0.28,1.357c-0.098,0.819,0.05,1.612,0.311,2.385c0.084,0.249,0.178,0.495,0.299,0.729
	c0.095,0.185,0.201,0.361,0.292,0.546c0.145,0.414,0.23,0.855,0.301,1.287c0.05,0.449,0.038,0.901,0.018,1.352
	c-0.977,0.255-1.863,0.822-2.611,1.486c-0.416,0.368-0.743,0.846-1.007,1.334c-0.159,0.294-0.274,0.612-0.393,0.925
	c-0.111,0.286-0.2,0.578-0.274,0.873c-0.032,0.124-0.035,0.248-0.016,0.368c-0.225,0.003-0.451,0.011-0.676,0.01
	c-0.627,0-1.255-0.025-1.884-0.029c-0.43-0.002-0.791,0.363-0.791,0.792c0,0.124,0.036,0.238,0.089,0.344
	c-0.061,0.12-0.104,0.249-0.106,0.391c-0.01,0.581-0.017,1.163-0.01,1.744c0.006,0.484,0.004,0.969,0.063,1.449
	c0.016,0.134,0.046,0.252,0.094,0.363c0.094,0.355,0.405,0.611,0.784,0.624c0.808,0.029,1.616-0.01,2.424-0.013
	C8.2,23.588,9,23.586,9.8,23.58c0.432-0.004,0.865,0.006,1.298,0.005c-0.005,0.04-0.024,0.077-0.021,0.118
	c0.031,0.414,0.086,0.825,0.129,1.236c0.046,0.441,0.065,0.89,0.173,1.322c0.223,0.887,0.652,1.719,1.328,2.345
	c0.18,0.165,0.384,0.309,0.583,0.447c0.171,0.119,0.345,0.232,0.532,0.328c0.173,0.09,0.351,0.171,0.531,0.248
	c0.246,0.107,0.493,0.213,0.76,0.257c0.47,0.081,0.963,0.15,1.443,0.094c0.474-0.056,0.934-0.121,1.383-0.282
	c0.296-0.106,0.583-0.24,0.863-0.38c0.384-0.194,0.72-0.449,1.032-0.743c0.247-0.232,0.455-0.526,0.649-0.8
	c0.154-0.219,0.29-0.451,0.409-0.691c0.146-0.294,0.278-0.597,0.386-0.908c0.107-0.317,0.152-0.645,0.192-0.975
	c0.065-0.52,0.075-1.044,0.036-1.568c-0.001-0.009-0.005-0.017-0.006-0.026c0.126,0,0.251-0.003,0.377-0.002
	c0.766,0.002,1.529-0.008,2.295-0.033c0.493-0.017,0.986-0.033,1.479-0.035c0.459,0,0.917,0,1.374-0.05
	c0.215-0.023,0.393-0.071,0.551-0.228c0.146-0.146,0.228-0.345,0.228-0.551c0-0.035-0.016-0.067-0.021-0.102
	c0.078-0.128,0.135-0.269,0.133-0.427C27.915,21.958,27.898,21.736,27.898,21.513z M9.983,16.05c0.169-0.194,0.35-0.366,0.548-0.529
	c0.398-0.294,0.815-0.554,1.263-0.764c0.203-0.078,0.408-0.137,0.623-0.18c0.241-0.049,0.428-0.217,0.539-0.427
	c0.21-0.148,0.353-0.383,0.365-0.658c0.015-0.386,0.021-0.773,0.021-1.159c0-0.439-0.029-0.86-0.086-1.297
	c-0.054-0.393-0.138-0.783-0.251-1.163c-0.119-0.401-0.368-0.75-0.547-1.127c-0.137-0.364-0.248-0.736-0.314-1.12
	c-0.035-0.348-0.028-0.693,0.006-1.041c0.058-0.338,0.14-0.658,0.259-0.981c0.095-0.206,0.199-0.405,0.326-0.596
	c0.099-0.115,0.204-0.223,0.318-0.326c0.388-0.275,0.811-0.508,1.242-0.709c0.227-0.081,0.453-0.141,0.69-0.184
	C15.33,3.753,15.68,3.73,16.03,3.756c0.334,0.062,0.664,0.166,0.982,0.288c0.298,0.142,0.58,0.311,0.85,0.501
	c0.204,0.166,0.397,0.34,0.574,0.535c0.198,0.285,0.352,0.596,0.493,0.914c0.14,0.357,0.265,0.709,0.341,1.085
	c0.02,0.248,0.015,0.492-0.007,0.741c-0.075,0.408-0.19,0.797-0.337,1.186c-0.3,0.667-0.681,1.299-0.908,1.999
	c-0.134,0.42-0.201,0.852-0.236,1.291c-0.015,0.196-0.023,0.393-0.027,0.589c-0.004,0.265-0.019,0.556,0.073,0.808
	c0.075,0.209,0.184,0.382,0.382,0.497c0.011,0.006,0.023,0.006,0.034,0.012c0.107,0.121,0.236,0.224,0.401,0.269
	c0.471,0.129,0.936,0.249,1.39,0.422c0.435,0.198,0.848,0.437,1.233,0.718c0.309,0.255,0.592,0.532,0.847,0.84
	c0.277,0.381,0.509,0.797,0.709,1.224c0.02,0.054,0.033,0.11,0.051,0.164c-0.054,0.001-0.108,0.001-0.161,0.001
	c-1.596,0.017-3.195,0.013-4.793,0.008c-1.575-0.008-3.151-0.019-4.726-0.002c-0.783,0.01-1.566,0.035-2.349,0.033
	c-0.548-0.001-1.096,0.007-1.644,0.015c0.1-0.385,0.213-0.765,0.355-1.135C9.678,16.508,9.823,16.275,9.983,16.05z M19.73,24.425
	c-0.012,0.206-0.033,0.413-0.057,0.618c-0.062,0.366-0.179,0.708-0.316,1.051c-0.182,0.401-0.403,0.777-0.662,1.133
	c-0.123,0.137-0.256,0.266-0.397,0.386c-0.221,0.152-0.462,0.272-0.707,0.381c-0.155,0.061-0.311,0.116-0.472,0.163
	c-0.14,0.04-0.286,0.063-0.431,0.085c-0.306,0.029-0.608,0.033-0.916,0.005c-0.216-0.037-0.425-0.087-0.634-0.16
	c-0.186-0.084-0.368-0.174-0.547-0.273c-0.183-0.104-0.354-0.225-0.524-0.35c-0.175-0.144-0.338-0.298-0.488-0.468
	c-0.171-0.24-0.32-0.493-0.446-0.76c-0.103-0.277-0.183-0.561-0.254-0.848c-0.083-0.34-0.113-0.697-0.161-1.044
	c0.01,0.071,0.019,0.14,0.029,0.211c-0.036-0.284-0.063-0.566-0.083-0.852c-0.003-0.04-0.019-0.075-0.027-0.113
	c0.335,0.002,0.669,0,1.003,0.004c0.033,0.297,0.066,0.594,0.11,0.889c0.05,0.324,0.152,0.603,0.28,0.904
	c0.119,0.28,0.33,0.528,0.528,0.754c0.282,0.322,0.641,0.512,1.034,0.668c0.188,0.075,0.411,0.104,0.61,0.121
	c0.295,0.025,0.61-0.019,0.885-0.134c0.305-0.127,0.579-0.255,0.815-0.495c0.136-0.136,0.251-0.288,0.365-0.441
	c0.46-0.633,0.528-1.474,0.431-2.234c0.265-0.001,0.529-0.003,0.794-0.004c0.073,0,0.147-0.001,0.221-0.001
	c0,0.005-0.003,0.01-0.003,0.015C19.716,23.899,19.745,24.16,19.73,24.425z M17.165,23.632c-0.005,0.09,0.011,0.479-0.002,0.646
	c-0.026,0.139-0.06,0.276-0.102,0.411c-0.043,0.083-0.09,0.162-0.143,0.239c-0.063,0.075-0.13,0.145-0.202,0.212
	c-0.044,0.028-0.09,0.053-0.136,0.078c-0.065,0.023-0.132,0.043-0.2,0.06c-0.047,0.002-0.094,0.002-0.141-0.001
	c-0.062-0.015-0.122-0.032-0.182-0.052c-0.058-0.03-0.115-0.062-0.17-0.097c-0.058-0.054-0.112-0.111-0.165-0.171
	c-0.066-0.093-0.127-0.189-0.18-0.29c-0.057-0.16-0.1-0.321-0.132-0.488c-0.021-0.19-0.037-0.381-0.055-0.572
	c0.565,0.012,1.13,0.028,1.696,0.025C17.091,23.632,17.128,23.632,17.165,23.632z M24.829,22.007
	c-0.768,0.033-1.533,0.065-2.303,0.063c-1.579-0.004-3.158-0.008-4.736-0.021c-3.237-0.027-6.474-0.042-9.711-0.048
	C7.313,22,6.547,21.994,5.781,21.973c-0.032-0.838,0.016-1.681,0.04-2.52c1.269-0.033,2.537-0.093,3.808-0.093
	c1.572,0,3.143-0.054,4.715-0.061c1.604-0.006,3.21,0.036,4.814,0.046c1.554,0.008,3.109,0.036,4.661,0.042
	c0.549,0.002,1.098,0.015,1.644,0.025c0.224,0.004,0.448,0.014,0.672,0.022c0.034,0.843,0.073,1.689,0.075,2.533
	c-0.095,0.004-0.191,0.011-0.286,0.013C25.56,21.99,25.193,21.991,24.829,22.007z M15.397,12.051c0.004-0.368,0.042-0.735,0.094-1.1
	c0.044-0.301,0.134-0.595,0.225-0.885c0.206-0.662,0.53-1.275,0.808-1.908c0.075-0.196,0.136-0.393,0.175-0.598
	C16.706,7.44,16.7,7.322,16.687,7.2c-0.007-0.052-0.015-0.103-0.023-0.156c-0.033-0.226-0.038-0.42,0.083-0.626
	c0.106-0.182,0.282-0.319,0.485-0.374c0.069-0.019,0.141-0.029,0.213-0.029c0.144,0,0.287,0.038,0.413,0.111
	c0.163,0.096,0.345,0.29,0.374,0.485c0.04,0.29,0.107,0.595,0.086,0.89c-0.019,0.297-0.069,0.608-0.165,0.892
	c-0.19,0.567-0.492,1.089-0.73,1.637c-0.173,0.42-0.329,0.849-0.409,1.296c-0.026,0.24-0.035,0.481-0.02,0.723
	c0.025,0.434-0.384,0.798-0.798,0.798C15.764,12.849,15.391,12.487,15.397,12.051z"/>
</svg>