<?xml version="1.0" encoding="utf-8"?>
<!-- Generator: Adobe Illustrator 21.1.0, SVG Export Plug-In . SVG Version: 6.00 Build 0)  -->
<svg version="1.1" id="designs" xmlns="http://www.w3.org/2000/svg" xmlns:xlink="http://www.w3.org/1999/xlink" x="0px" y="0px"
	 width="32px" height="32px" viewBox="0 0 32 32" style="enable-background:new 0 0 32 32;" xml:space="preserve">
<style type="text/css">
	.sketchy_een{fill:#111918;}
</style>
<path class="sketchy_een" d="M28.344,3.189c-0.137-0.502-0.298-0.994-0.534-1.461C27.619,1.346,27.256,1,26.808,1
	c-0.03,0-0.06,0.001-0.09,0.005c-0.364,0.036-0.689,0.202-1.021,0.347c0.013-0.006,0.026-0.011,0.04-0.017
	c-0.02,0.009-0.04,0.017-0.061,0.026c-0.003,0.001-0.005,0.002-0.008,0.004c-0.006,0.003-0.013,0.005-0.019,0.008
	c-0.399,0.17-0.795,0.344-1.181,0.539C24.1,2.097,23.741,2.301,23.38,2.496c-0.363,0.198-0.728,0.393-1.09,0.593
	c-0.353,0.192-0.718,0.353-1.08,0.528c-0.155,0.075-0.306,0.167-0.445,0.27c-0.23,0.169-0.363,0.347-0.462,0.613
	c-0.024,0.067-0.044,0.133-0.064,0.198c-0.105,0.359-0.185,0.718-0.248,1.084c-0.149,0.873-0.359,1.737-0.56,2.598
	c-0.024,0.111-0.05,0.22-0.077,0.331c-0.028,0.117-0.033,0.235-0.017,0.348c-0.49,0.002-0.98,0.008-1.47,0.001
	c-0.717-0.01-1.433-0.031-2.149-0.04c-0.004-0.057,0.007-0.118-0.013-0.169c-0.157-0.411-0.294-0.828-0.423-1.25
	c-0.129-0.425-0.26-0.846-0.458-1.248c-0.198-0.397-0.462-0.77-0.77-1.088c-0.343-0.355-0.726-0.691-1.145-0.953
	c-0.222-0.139-0.482-0.234-0.728-0.322c-0.216-0.077-0.433-0.155-0.653-0.216c-0.496-0.139-1.016-0.189-1.53-0.199
	C9.97,3.572,9.943,3.572,9.915,3.572c-0.523,0-1.054,0.106-1.563,0.219c-0.47,0.105-0.923,0.302-1.34,0.54
	c-0.447,0.256-0.905,0.512-1.31,0.83C5.286,5.488,4.975,5.913,4.659,6.332C4.532,6.501,4.409,6.677,4.29,6.854
	C4.093,7.148,3.972,7.503,3.859,7.838c-0.161,0.482-0.234,0.984-0.288,1.49c-0.048,0.466-0.075,0.921-0.028,1.387
	c0.03,0.31,0.093,0.623,0.175,0.923c0.099,0.359,0.286,0.701,0.486,1.016c0.542,0.856,1.365,1.568,2.225,2.092
	c0.359,0.22,0.72,0.443,1.102,0.625c0.451,0.215,0.969,0.401,1.478,0.376c0.078,0.785,0.173,1.568,0.265,2.353
	c0.103,0.895,0.218,1.79,0.335,2.685c0.026,0.196,0.052,0.391,0.079,0.587c-0.01-0.077-0.02-0.153-0.03-0.23
	c0.135,1.018,0.284,2.032,0.421,3.047c-0.01-0.075-0.02-0.151-0.03-0.228c0.02,0.145,0.039,0.293,0.059,0.44
	c0.011,0.08,0.021,0.161,0.032,0.241c-0.01-0.077-0.02-0.153-0.03-0.23c0.129,0.971,0.27,1.945,0.445,2.91
	c0.077,0.419,0.167,0.838,0.254,1.258c0.087,0.413,0.169,0.828,0.254,1.244c0.002,0.007,0.008,0.012,0.009,0.019
	c-0.01,0.053-0.032,0.103-0.032,0.157c0,0.48,0.393,0.853,0.865,0.865c0.778,0.018,1.554,0.016,2.332,0.014
	c0.691-0.004,1.387,0.028,2.078,0.048c0.693,0.018,1.387,0.036,2.08,0.038c0.613,0.002,1.229,0.054,1.842,0.028
	c0.428-0.021,0.779-0.311,0.87-0.72c0.325-0.219,0.429-0.615,0.546-0.973c0.081-0.246,0.137-0.494,0.198-0.744
	c0.121-0.498,0.24-0.996,0.351-1.498c0.27-1.233,0.413-2.491,0.578-3.743c-0.01,0.074-0.02,0.149-0.03,0.222
	c0.023-0.168,0.045-0.337,0.068-0.505c0.001-0.003,0.002-0.006,0.003-0.009c0.021-0.076,0.03-0.153,0.029-0.228
	c0.087-0.663,0.169-1.326,0.227-1.993c0.077-0.867,0.133-1.735,0.222-2.6c0.179-1.76,0.24-3.527,0.411-5.287
	c0.097-0.992,0.202-1.981,0.214-2.979c0.004-0.432-0.342-0.785-0.762-0.835c0.122-0.431,0.182-0.876,0.262-1.317
	c0.081-0.446,0.202-0.883,0.354-1.309c0.208-0.078,0.418-0.152,0.623-0.235c0.303-0.121,0.601-0.254,0.9-0.384
	c0.487-0.201,0.992-0.345,1.475-0.552c-0.064,0.028-0.131,0.056-0.198,0.085c0.375-0.157,0.77-0.238,1.133-0.425
	c0.326-0.169,0.617-0.417,0.73-0.78C28.546,3.838,28.433,3.52,28.344,3.189z M17.969,10.768c0.869,0.026,1.739-0.01,2.606,0.044
	c0.371,0.024,0.742,0.073,1.113,0.077c0.165,0.001,0.329-0.012,0.494-0.026c-0.024,0.597-0.06,1.192-0.119,1.789
	c-0.085,0.861-0.155,1.717-0.212,2.58c-0.013,0.198-0.031,0.396-0.045,0.594c-0.018,0-0.033-0.01-0.051-0.009
	c-0.431,0.026-0.867-0.002-1.3-0.01c-0.39-0.008-0.779-0.018-1.169-0.018c-0.032,0-0.063,0-0.095,0
	c-0.891,0.002-1.78,0.03-2.669,0.026c-0.494-0.002-0.988,0.004-1.481,0.012c-0.437,0.006-0.877,0.012-1.314,0.01
	c-0.959-0.002-1.919-0.022-2.878-0.022c-0.026,0-0.053,0-0.079,0c-0.148-1.456-0.254-2.918-0.254-4.38
	c0-0.265-0.003-0.53-0.004-0.794c1.59,0.006,3.179,0.026,4.769,0.035C16.177,10.681,17.072,10.744,17.969,10.768z M9.524,5.367
	c0.02-0.003,0.04-0.005,0.06-0.008C9.592,5.358,9.6,5.358,9.608,5.357C9.577,5.361,9.546,5.365,9.515,5.369
	C9.518,5.368,9.521,5.368,9.524,5.367z M9.503,5.37C9.497,5.371,9.492,5.372,9.486,5.373C9.454,5.377,9.422,5.381,9.389,5.385
	C9.427,5.38,9.465,5.375,9.503,5.37z M7.7,13.223c-0.308-0.17-0.609-0.349-0.894-0.553c-0.292-0.249-0.562-0.513-0.812-0.803
	c-0.146-0.211-0.276-0.427-0.388-0.656c-0.072-0.213-0.118-0.431-0.159-0.65c-0.049-0.548-0.013-1.088,0.051-1.634
	C5.556,8.589,5.648,8.265,5.763,7.94c0.141-0.288,0.325-0.552,0.513-0.812c0.185-0.227,0.378-0.444,0.599-0.637
	C7.284,6.205,7.72,5.96,8.164,5.732c0.435-0.17,0.881-0.284,1.345-0.362c0.033-0.004,0.067-0.009,0.1-0.013
	c0.358-0.036,0.726-0.007,1.085,0.035c0.392,0.076,0.772,0.199,1.147,0.337c0.145,0.07,0.281,0.149,0.412,0.242
	c0.279,0.232,0.547,0.48,0.781,0.758c0.154,0.223,0.283,0.453,0.396,0.7c0.192,0.518,0.329,1.057,0.502,1.583
	c-0.463-0.001-0.925-0.007-1.387-0.024c-0.927-0.036-1.85-0.079-2.777-0.085c-0.001,0-0.002,0-0.003,0
	C9.708,8.892,9.656,8.869,9.596,8.869c-0.488,0-0.923,0.413-0.911,0.911c0.024,0.964,0.044,1.929,0.085,2.892
	c0.015,0.362,0.041,0.725,0.067,1.087c-0.092-0.027-0.187-0.047-0.277-0.08C8.267,13.54,7.984,13.379,7.7,13.223z M21.423,20.496
	c-0.062,0.724-0.127,1.447-0.224,2.167c0.01-0.074,0.02-0.149,0.03-0.222c-0.01,0.079-0.021,0.157-0.031,0.235
	c-0.002,0.015-0.005,0.03-0.007,0.045c-0.01,0.075-0.02,0.147-0.03,0.222c-0.025,0.188-0.05,0.376-0.075,0.564
	c-0.14,1.041-0.278,2.078-0.531,3.1c-0.197,0.8-0.346,1.616-0.634,2.391c-0.051,0.066-0.089,0.14-0.119,0.219
	c-0.22,0.014-0.441,0.02-0.663,0.02c-0.298,0-0.597,0.008-0.897,0.008c-0.691,0-1.381,0.004-2.072-0.006
	c-1.14-0.016-2.279-0.052-3.418-0.086c-0.13-0.471-0.234-0.951-0.332-1.427c-0.129-0.637-0.248-1.272-0.349-1.915
	c-0.189-1.21-0.378-2.42-0.555-3.632c-0.197-1.507-0.37-3.017-0.542-4.526c0.851-0.015,1.702-0.033,2.553-0.055
	c0.925-0.022,1.848-0.02,2.773-0.03c0.915-0.01,1.83-0.034,2.745-0.028c0.427,0.002,0.859,0.012,1.286,0.034
	c0.433,0.022,0.867,0.016,1.3,0.03c0.013,0.001,0.026,0,0.039,0C21.592,18.569,21.508,19.532,21.423,20.496z M26.651,3.589
	c-0.241,0.096-0.486,0.183-0.725,0.284c0.045-0.02,0.09-0.039,0.136-0.059c-0.268,0.113-0.546,0.202-0.82,0.302
	c-0.329,0.121-0.649,0.269-0.971,0.409c-0.366,0.147-0.738,0.266-1.115,0.383c-0.365,0.113-0.667,0.31-0.851,0.655
	c-0.127,0.238-0.198,0.514-0.276,0.772c-0.123,0.413-0.224,0.832-0.296,1.26c-0.071,0.415-0.145,0.822-0.278,1.221
	c-0.032,0.095-0.033,0.192-0.026,0.288c-0.122-0.006-0.245-0.013-0.367-0.022c0.178-0.788,0.33-1.579,0.475-2.374
	c0.095-0.514,0.158-1.049,0.311-1.552c0.323-0.206,0.69-0.348,1.031-0.518c0.405-0.203,0.806-0.419,1.211-0.629
	c0.409-0.212,0.82-0.421,1.232-0.629c0.363-0.183,0.741-0.337,1.115-0.496c0.005-0.002,0.011-0.004,0.016-0.007c0,0,0,0,0,0
	c-0.005,0.002-0.009,0.004-0.014,0.006c0.005-0.002,0.009-0.004,0.014-0.006l0,0c0.013-0.005,0.027-0.011,0.04-0.017
	c-0.013,0.006-0.027,0.011-0.04,0.017c0.084,0.229,0.155,0.465,0.212,0.703C26.661,3.584,26.656,3.587,26.651,3.589z M25.676,1.361
	c-0.009,0.004-0.018,0.008-0.028,0.012c-0.015,0.006-0.03,0.013-0.045,0.019c0.031-0.013,0.063-0.027,0.094-0.04
	C25.69,1.355,25.683,1.358,25.676,1.361z M20.245,20.79c-0.013,0.529-0.042,1.056-0.104,1.58c-0.069,0.573-0.159,1.14-0.252,1.707
	c-0.082,0.505-0.15,1.012-0.226,1.519c-0.033,0.221-0.064,0.443-0.113,0.662c-0.064,0.281-0.139,0.598-0.35,0.804
	c-0.301,0.292-0.788,0.299-1.087,0c-0.224-0.225-0.286-0.572-0.159-0.858c0.144-0.472,0.231-0.966,0.306-1.453
	c0.082-0.54,0.163-1.08,0.238-1.621c0.082-0.778,0.12-1.557,0.131-2.341c0.005-0.439,0.363-0.808,0.808-0.808
	C19.869,19.982,20.258,20.35,20.245,20.79z"/>
</svg>