<?xml version="1.0" encoding="utf-8"?>
<!-- Generator: Adobe Illustrator 21.1.0, SVG Export Plug-In . SVG Version: 6.00 Build 0)  -->
<svg version="1.1" id="designs" xmlns="http://www.w3.org/2000/svg" xmlns:xlink="http://www.w3.org/1999/xlink" x="0px" y="0px"
	 width="32px" height="32px" viewBox="0 0 32 32" style="enable-background:new 0 0 32 32;" xml:space="preserve">
<style type="text/css">
	.sketchy_een{fill:#111918;}
</style>
<path class="sketchy_een" d="M15.052,25.824c0.036,0.016,0.072,0.031,0.107,0.045c0.026,0.012,0.053,0.023,0.081,0.035
	C15.178,25.878,15.115,25.852,15.052,25.824z M18.297,22.254c0.315,0.566,0.341,1.26,0.218,1.883
	c-0.138,0.696-0.633,1.277-1.254,1.599c-0.264,0.138-0.542,0.236-0.836,0.283c-0.182,0.028-0.35,0.05-0.534,0.028
	c-0.112-0.015-0.221-0.028-0.331-0.05c-0.142-0.028-0.27-0.074-0.401-0.128c-0.227-0.101-0.41-0.206-0.61-0.375
	c-0.158-0.132-0.283-0.309-0.404-0.473c-0.372-0.508-0.573-1.167-0.344-1.779c0.128-0.339,0.262-0.679,0.469-0.977
	c0.207-0.296,0.476-0.508,0.787-0.687c0.341-0.197,0.692-0.35,1.078-0.439c0.064-0.015,0.128-0.022,0.192-0.022
	c0.075,0,0.148,0.01,0.218,0.029c0.213-0.047,0.389,0.006,0.587,0.093c0.261,0.113,0.504,0.279,0.711,0.477
	C18.007,21.875,18.188,22.055,18.297,22.254z M16.99,23.705c0.009-0.126,0.008-0.251-0.002-0.376
	c-0.015-0.076-0.033-0.15-0.055-0.224c-0.006-0.012-0.013-0.023-0.02-0.034c-0.068-0.075-0.14-0.146-0.217-0.214
	c-0.102-0.069-0.207-0.13-0.321-0.182c-0.089,0.023-0.177,0.049-0.265,0.08c-0.168,0.08-0.33,0.17-0.485,0.271
	c-0.005,0.005-0.01,0.01-0.015,0.015c-0.071,0.108-0.129,0.22-0.183,0.337c-0.05,0.131-0.095,0.262-0.126,0.399c0,0,0,0.012,0,0.017
	c0.008,0.035,0.018,0.069,0.029,0.103c0.058,0.114,0.124,0.222,0.198,0.326c0.037,0.043,0.076,0.084,0.117,0.124
	c0.045,0.029,0.091,0.057,0.139,0.082c0.081,0.026,0.164,0.047,0.247,0.063c0.047,0,0.093-0.001,0.14-0.005
	c0.087-0.018,0.172-0.04,0.256-0.067c0.084-0.043,0.165-0.09,0.244-0.143c0.059-0.053,0.115-0.108,0.168-0.166
	c0.03-0.046,0.058-0.093,0.085-0.142C16.951,23.884,16.972,23.796,16.99,23.705z M24.836,19.596
	c0.117,0.158,0.128,0.415,0.078,0.598c-0.054,0.193-0.182,0.361-0.355,0.463c-0.043,0.025-0.093,0.031-0.139,0.047
	c-0.009,0.009-0.011,0.021-0.021,0.03c-0.729,0.622-1.476,1.213-2.235,1.796c0.054-0.041,0.108-0.082,0.16-0.123
	c-0.112,0.087-0.221,0.175-0.326,0.271c-0.318,0.294-0.81,0.316-1.126,0c-0.115-0.117-0.178-0.27-0.206-0.431
	c-0.003-0.003-0.008-0.004-0.011-0.007c-0.396-0.407-0.719-0.883-1.06-1.336c-0.331-0.413-0.679-0.798-1.087-1.133
	c-0.261-0.183-0.534-0.331-0.825-0.462c-0.357-0.147-0.715-0.289-1.094-0.361c-0.188-0.02-0.376-0.033-0.567-0.025
	c-0.158,0.007-0.314,0.024-0.471,0.044c-0.252,0.044-0.491,0.112-0.73,0.2c-0.493,0.226-0.947,0.511-1.383,0.833
	c-0.217,0.18-0.415,0.374-0.595,0.59c-0.332,0.452-0.632,0.919-0.906,1.411c-0.055,0.098-0.13,0.178-0.217,0.24
	c-0.001,0.005,0,0.011-0.001,0.017c-0.054,0.195-0.184,0.367-0.359,0.469c-0.166,0.097-0.419,0.15-0.605,0.078
	c-0.975-0.383-1.893-0.914-2.786-1.461c-0.109-0.067-0.189-0.161-0.254-0.264c-0.089-0.016-0.179-0.04-0.263-0.088
	c-0.37-0.218-0.527-0.735-0.29-1.109c0.318-0.5,0.661-0.984,1.014-1.46c0.329-0.445,0.676-0.896,1.059-1.293
	c0.549-0.571,1.13-1.104,1.779-1.563c0.631-0.445,1.31-0.837,2.012-1.157c0.365-0.167,0.739-0.335,1.131-0.43
	c0.43-0.104,0.867-0.193,1.308-0.238c0.289-0.03,0.581-0.049,0.872-0.049c0.511,0,1.02,0.059,1.512,0.219
	c0.754,0.246,1.487,0.559,2.149,0.994c0.659,0.43,1.234,0.97,1.829,1.478c0.274,0.232,0.529,0.478,0.778,0.733
	c0.259,0.264,0.499,0.547,0.756,0.812c0.244,0.25,0.488,0.5,0.715,0.763c0.119,0.136,0.225,0.281,0.346,0.414
	C24.568,19.261,24.705,19.419,24.836,19.596z M19.568,16.506c0.037,0.028,0.074,0.057,0.111,0.086
	c-0.031-0.025-0.063-0.049-0.094-0.073C19.579,16.515,19.574,16.511,19.568,16.506z M22.983,19.78
	c-0.098-0.113-0.195-0.227-0.297-0.338c-0.158-0.175-0.324-0.342-0.491-0.51c-0.171-0.171-0.329-0.352-0.497-0.527
	c-0.342-0.359-0.698-0.7-1.078-1.018c-0.361-0.302-0.72-0.606-1.082-0.903c-0.439-0.329-0.938-0.591-1.436-0.814
	c-0.221-0.089-0.446-0.175-0.673-0.245c-0.231-0.073-0.464-0.125-0.702-0.165c-0.454-0.043-0.907-0.021-1.362,0.028
	c-0.481,0.076-0.953,0.184-1.409,0.359c-0.816,0.371-1.579,0.834-2.295,1.368c-0.735,0.581-1.385,1.276-1.97,2.007
	c-0.267,0.352-0.514,0.719-0.755,1.09c0.544,0.347,1.091,0.699,1.676,0.972c0.268-0.461,0.567-0.902,0.893-1.328
	c0.167-0.22,0.337-0.452,0.543-0.64c0.225-0.207,0.469-0.391,0.718-0.568c0.301-0.214,0.62-0.396,0.949-0.564
	c0.378-0.189,0.778-0.361,1.195-0.448c0.382-0.081,0.787-0.128,1.182-0.128c0.042,0,0.083,0,0.124,0.001
	c0.458,0.009,0.927,0.065,1.362,0.214c0.421,0.147,0.839,0.307,1.247,0.489c0.408,0.183,0.776,0.469,1.105,0.769
	c0.577,0.524,1.001,1.194,1.462,1.817c0.07,0.086,0.147,0.167,0.221,0.249c0.125-0.102,0.253-0.2,0.375-0.306
	C22.321,20.354,22.652,20.067,22.983,19.78z M30.997,15.477c0.022,0.257-0.099,0.538-0.279,0.721
	c-0.179,0.18-0.396,0.325-0.603,0.476c-0.313,0.227-0.614,0.471-0.925,0.702c-0.287,0.212-0.575,0.422-0.882,0.608
	c-0.342,0.208-0.664,0.441-0.992,0.678c-0.153,0.109-0.393,0.123-0.568,0.074c-0.098-0.028-0.188-0.078-0.266-0.142
	c-0.36,0.196-0.813,0.07-1.023-0.281c-0.043-0.071-0.089-0.139-0.137-0.206c-0.236-0.3-0.476-0.596-0.71-0.897
	c-0.155-0.192-0.332-0.354-0.515-0.52c-0.169-0.155-0.337-0.313-0.504-0.469c-0.339-0.311-0.683-0.622-1.005-0.951
	c-0.318-0.328-0.636-0.653-0.988-0.945c-0.323-0.271-0.653-0.535-0.984-0.797c-0.347-0.259-0.707-0.491-1.084-0.707
	c-0.341-0.196-0.684-0.388-1.042-0.55c-0.459-0.168-0.936-0.283-1.418-0.359c-0.711-0.058-1.415,0.005-2.12,0.092
	c-0.409,0.055-0.82,0.105-1.224,0.187c-0.4,0.08-0.789,0.208-1.169,0.359c-0.571,0.263-1.093,0.596-1.598,0.971
	c-0.306,0.239-0.61,0.479-0.897,0.739c-0.337,0.303-0.649,0.629-0.951,0.966c-0.292,0.328-0.571,0.668-0.854,1.001
	c-0.28,0.331-0.564,0.656-0.836,0.993c-0.032,0.042-0.065,0.084-0.097,0.126c0.004-0.006,0.009-0.011,0.013-0.017
	c-0.469,0.64-0.914,1.299-1.36,1.954c-0.011,0.015-0.025,0.025-0.036,0.04c-0.001,0.133-0.022,0.266-0.093,0.388
	c-0.205,0.35-0.722,0.523-1.076,0.281c-0.493-0.333-1.011-0.627-1.543-0.891c-0.607-0.304-1.215-0.602-1.833-0.878
	c-0.18-0.082-0.318-0.298-0.368-0.48c-0.058-0.207-0.028-0.434,0.08-0.618c0.033-0.058,0.084-0.101,0.13-0.147
	c-0.032-0.177-0.015-0.362,0.084-0.523c0.605-0.979,1.234-1.941,1.894-2.88c0.255-0.361,0.534-0.704,0.813-1.046
	c0.246-0.304,0.489-0.602,0.761-0.88c0.538-0.553,1.12-1.053,1.705-1.558c0.625-0.54,1.239-1.113,1.941-1.56
	c0.649-0.413,1.325-0.759,2.021-1.087c0.404-0.19,0.815-0.359,1.232-0.512c0.363-0.132,0.722-0.275,1.089-0.393
	C13.59,6.28,14.405,6.06,15.255,5.98c0.24-0.024,0.477-0.037,0.716-0.037c0.14,0,0.281,0.004,0.423,0.014
	c0.439,0.03,0.877,0.101,1.31,0.175c0.756,0.132,1.492,0.331,2.215,0.583c0.78,0.273,1.539,0.592,2.291,0.936
	c0.329,0.149,0.651,0.324,0.964,0.508c0.337,0.197,0.676,0.395,1.009,0.602c0.326,0.203,0.638,0.426,0.958,0.636
	c0.352,0.231,0.692,0.478,1.018,0.743c0.568,0.461,1.059,1.003,1.584,1.511c0.549,0.531,1.089,1.072,1.625,1.614
	c0.229,0.232,0.458,0.465,0.683,0.698c0.274,0.281,0.584,0.583,0.769,0.933C30.917,15.084,30.977,15.263,30.997,15.477z
	 M29.259,15.445c-0.63-0.731-1.339-1.39-2.021-2.073c-0.398-0.402-0.813-0.784-1.213-1.184c-0.351-0.349-0.693-0.691-1.075-1.002
	c-0.362-0.272-0.741-0.517-1.121-0.766c-0.21-0.138-0.415-0.283-0.633-0.409c-0.207-0.119-0.415-0.233-0.62-0.355
	c-0.393-0.238-0.793-0.471-1.21-0.665c-0.364-0.169-0.735-0.329-1.106-0.487c-0.553-0.212-1.112-0.414-1.68-0.579
	c-0.558-0.162-1.132-0.274-1.707-0.362c-0.318-0.041-0.641-0.078-0.962-0.069c-0.303,0.008-0.602,0.031-0.902,0.067
	c-0.614,0.113-1.227,0.279-1.815,0.492c-0.544,0.198-1.092,0.391-1.63,0.608c-0.999,0.443-1.968,0.943-2.846,1.594
	c-0.365,0.297-0.723,0.605-1.083,0.909c-0.376,0.32-0.75,0.642-1.109,0.982c-0.367,0.348-0.724,0.706-1.055,1.089
	c-0.297,0.344-0.585,0.7-0.867,1.055c-0.68,0.901-1.266,1.863-1.849,2.829c0.42,0.211,0.841,0.422,1.257,0.646
	c0.269,0.145,0.535,0.299,0.804,0.449c0.273-0.386,0.548-0.771,0.828-1.152c0.257-0.348,0.519-0.69,0.787-1.027
	c0.251-0.316,0.523-0.618,0.785-0.925c0.517-0.603,1.025-1.211,1.602-1.762c0.272-0.261,0.562-0.504,0.858-0.739
	c0.346-0.277,0.698-0.551,1.07-0.795c0.344-0.223,0.69-0.42,1.064-0.586c0.391-0.171,0.798-0.344,1.213-0.445
	c0.783-0.19,1.591-0.289,2.391-0.378c0.394-0.042,0.787-0.071,1.183-0.071c0.012,0,0.024,0,0.036,0
	c0.432,0.002,0.864,0.078,1.284,0.166c0.389,0.082,0.774,0.182,1.145,0.333c0.395,0.16,0.77,0.354,1.137,0.569
	c0.359,0.21,0.716,0.422,1.061,0.659c0.311,0.212,0.605,0.451,0.9,0.684c0.402,0.307,0.802,0.61,1.167,0.96
	c0.352,0.335,0.685,0.688,1.037,1.023c0.348,0.333,0.69,0.67,1.033,1.007c0.352,0.347,0.622,0.771,0.916,1.167
	c0.114,0.142,0.226,0.287,0.329,0.437c0.569-0.399,1.166-0.756,1.723-1.174c0.182-0.145,0.363-0.294,0.543-0.44
	C29.023,15.632,29.144,15.541,29.259,15.445z"/>
</svg>