<?xml version="1.0" encoding="utf-8"?>
<!-- Generator: Adobe Illustrator 21.1.0, SVG Export Plug-In . SVG Version: 6.00 Build 0)  -->
<svg version="1.1" id="designs" xmlns="http://www.w3.org/2000/svg" xmlns:xlink="http://www.w3.org/1999/xlink" x="0px" y="0px"
	 width="32px" height="32px" viewBox="0 0 32 32" style="enable-background:new 0 0 32 32;" xml:space="preserve">
<style type="text/css">
	.sketchy_een{fill:#111918;}
</style>
<path class="sketchy_een" d="M2.605,26.209c0.02,0.026,0.04,0.052,0.06,0.078c0.028,0.037,0.057,0.074,0.086,0.112
	C2.701,26.336,2.652,26.274,2.605,26.209z M29.422,25.824c-0.14,0.21-0.288,0.428-0.467,0.607c-0.165,0.163-0.352,0.307-0.549,0.43
	c-0.184,0.115-0.386,0.206-0.59,0.274c-0.107,0.035-0.217,0.065-0.324,0.101c-0.148,0.074-0.299,0.159-0.462,0.181
	c-0.12,0.016-0.229,0.026-0.337,0.017c-0.118,0.062-0.245,0.104-0.384,0.096c-0.547-0.032-1.092-0.013-1.637,0.008
	c-1.61,0.064-3.219,0.168-4.831,0.197c-0.853,0.015-1.705,0.032-2.557,0.08c-0.871,0.049-1.739,0.1-2.61,0.142
	c-1.684,0.08-3.38,0.047-5.06-0.072c-0.414-0.03-0.827-0.078-1.243-0.1c-0.426-0.023-0.852-0.049-1.276-0.074
	c-0.424-0.027-0.85-0.011-1.272-0.021c-0.503-0.011-1.007-0.028-1.508-0.053c-0.34-0.017-0.637-0.212-0.762-0.509
	c-0.026-0.018-0.057-0.029-0.082-0.048c-0.161-0.125-0.335-0.242-0.475-0.394c-0.118-0.127-0.225-0.262-0.332-0.399
	c-0.254-0.335-0.481-0.68-0.56-1.109c-0.087-0.471-0.115-0.935-0.102-1.412c0.013-0.435,0.021-0.869,0.053-1.304
	c0.036-0.522,0.083-1.063,0.242-1.565c0.146-0.456,0.36-0.905,0.571-1.334c0.189-0.386,0.433-0.746,0.685-1.094
	c0.174-0.238,0.35-0.473,0.534-0.704c0.127-0.161,0.252-0.331,0.396-0.477c0.195-0.201,0.405-0.378,0.628-0.549
	c0.096-0.072,0.193-0.157,0.301-0.214c0.157-0.083,0.318-0.155,0.484-0.219c0.027-0.011,0.055-0.021,0.082-0.031
	c-0.026-0.067-0.051-0.134-0.073-0.202c-0.132-0.416-0.187-0.872-0.202-1.308c-0.017-0.426,0.015-0.859,0.129-1.27
	c0.259-0.941,0.859-1.709,1.641-2.275c0.848-0.615,1.928-0.715,2.943-0.711c0.819,0.004,1.641-0.007,2.458-0.083
	c0.55-0.087,1.091-0.242,1.61-0.448c0.174-0.089,0.333-0.194,0.492-0.309c0.193-0.156,0.376-0.318,0.538-0.507
	c0.146-0.209,0.278-0.426,0.392-0.655c0.083-0.227,0.145-0.46,0.19-0.697c0.007-0.113,0.005-0.224-0.002-0.336
	c-0.063-0.346-0.152-0.689-0.268-1.021c-0.034-0.07-0.072-0.137-0.115-0.202c-0.016-0.019-0.032-0.038-0.049-0.057
	c-0.161-0.18-0.261-0.38-0.261-0.626c0-0.178,0.069-0.343,0.168-0.49c0.013-0.031,0.015-0.065,0.032-0.095
	c0.151-0.258,0.437-0.409,0.724-0.409c0.14,0,0.281,0.036,0.407,0.112c0.028,0.019,0.059,0.036,0.089,0.055
	c0.416,0.252,0.831,0.505,1.251,0.749c0.36,0.208,0.742,0.362,1.115,0.541c0.384,0.186,0.77,0.363,1.158,0.54
	c0.373,0.17,0.77,0.322,1.124,0.532c0.462,0.278,0.838,0.655,1.164,1.082c0.274,0.364,0.505,0.789,0.611,1.232
	c0.114,0.473,0.136,0.959,0.096,1.44c-0.021,0.256-0.049,0.513-0.111,0.764c0.123,0.062,0.244,0.131,0.359,0.213
	c0.156,0.11,0.305,0.231,0.454,0.35c0.289,0.213,0.584,0.415,0.857,0.647c0.259,0.222,0.473,0.49,0.682,0.76
	c-0.003-0.004-0.005-0.007-0.008-0.011c0.017,0.022,0.035,0.045,0.052,0.068c0.031,0.041,0.062,0.081,0.094,0.122
	c-0.009-0.011-0.018-0.023-0.027-0.034c0.265,0.348,0.521,0.698,0.716,1.092c0.233,0.468,0.333,0.993,0.386,1.51
	c0.034,0.348,0.027,0.693-0.015,1.039c-0.036,0.296-0.101,0.582-0.163,0.871c0.059,0.06,0.121,0.117,0.185,0.173
	c0.381,0.264,0.781,0.495,1.144,0.787c0.437,0.354,0.853,0.742,1.149,1.226c0.129,0.21,0.244,0.428,0.344,0.653
	c0.104,0.237,0.22,0.484,0.286,0.736c0.125,0.454,0.201,0.918,0.248,1.387C30.066,24.105,29.928,25.063,29.422,25.824z M4.15,25.187
	c-0.017-0.023-0.035-0.046-0.052-0.068c-0.022-0.029-0.044-0.057-0.066-0.086C4.071,25.083,4.11,25.135,4.15,25.187z M28.058,24.23
	c0.023-0.274,0.011-0.543-0.02-0.817c-0.078-0.495-0.198-0.976-0.375-1.447c-0.123-0.276-0.26-0.545-0.431-0.795
	c-0.267-0.313-0.563-0.596-0.88-0.858c-0.419-0.304-0.89-0.573-1.214-0.98c-0.1-0.125-0.208-0.24-0.271-0.388
	c-0.089-0.208-0.144-0.38-0.134-0.615c0.008-0.195,0.061-0.384,0.108-0.573c0.041-0.167,0.078-0.335,0.107-0.503
	c0.026-0.302,0.022-0.601-0.009-0.902c-0.04-0.224-0.097-0.441-0.174-0.655c-0.154-0.291-0.342-0.557-0.538-0.822
	c-0.155-0.197-0.313-0.396-0.491-0.571c-0.176-0.172-0.36-0.331-0.554-0.482c0.062,0.047,0.125,0.094,0.187,0.144
	c-0.266-0.206-0.52-0.421-0.775-0.637c-0.09-0.062-0.182-0.119-0.281-0.168c-0.182-0.069-0.367-0.135-0.532-0.238
	c-0.401-0.252-0.632-0.78-0.447-1.24c0.104-0.258,0.189-0.514,0.237-0.786c0.026-0.281,0.032-0.558,0.012-0.839
	c-0.029-0.145-0.066-0.284-0.115-0.422c-0.094-0.185-0.202-0.357-0.323-0.526c-0.135-0.163-0.278-0.316-0.438-0.455
	c-0.348-0.234-0.729-0.411-1.102-0.599c-0.394-0.197-0.789-0.396-1.183-0.594c-0.203-0.102-0.41-0.195-0.616-0.29
	c0.016,0.105,0.033,0.21,0.047,0.315c0.032,0.267-0.004,0.541-0.055,0.804c-0.047,0.242-0.106,0.49-0.201,0.721
	c-0.15,0.363-0.324,0.691-0.545,1.014c-0.142,0.206-0.305,0.422-0.494,0.588c-0.182,0.163-0.375,0.311-0.57,0.456
	c-0.274,0.205-0.562,0.373-0.884,0.496c-0.191,0.072-0.384,0.14-0.583,0.193c-0.396,0.108-0.791,0.204-1.198,0.261
	c-0.458,0.064-0.916,0.079-1.38,0.089c-0.416,0.008-0.835,0.013-1.251,0.021c-0.367,0.007-0.731,0.012-1.095,0.048
	c-0.271,0.052-0.533,0.121-0.793,0.211c-0.151,0.074-0.292,0.162-0.43,0.259c-0.156,0.138-0.295,0.284-0.428,0.443
	c-0.102,0.149-0.192,0.301-0.272,0.463c-0.065,0.178-0.114,0.358-0.149,0.545c-0.019,0.264-0.006,0.528,0.023,0.791
	c0.042,0.236,0.097,0.468,0.177,0.694c0.072,0.143,0.157,0.279,0.25,0.41c0.142,0.195,0.29,0.371,0.344,0.615
	c0.047,0.2,0.038,0.322-0.004,0.524c-0.051,0.248-0.237,0.414-0.43,0.556c-0.149,0.112-0.38,0.147-0.56,0.153
	c-0.162,0.003-0.322,0.005-0.483,0.015c-0.17,0.033-0.335,0.079-0.496,0.137c-0.114,0.062-0.22,0.131-0.325,0.206
	c-0.165,0.134-0.323,0.275-0.463,0.437c-0.161,0.185-0.317,0.372-0.47,0.563c-0.186,0.252-0.372,0.508-0.535,0.775
	c-0.152,0.252-0.279,0.515-0.396,0.785c-0.125,0.312-0.231,0.618-0.294,0.948c-0.053,0.474-0.058,0.951-0.065,1.426
	c-0.005,0.431-0.013,0.865,0.031,1.294c0.026,0.141,0.056,0.277,0.099,0.414c0.056,0.105,0.119,0.205,0.188,0.302
	c0.112,0.135,0.229,0.258,0.36,0.372c0.116,0.076,0.233,0.145,0.358,0.207c0.059,0.021,0.118,0.039,0.177,0.057
	c0.157,0.047,0.284,0.141,0.393,0.251c0.292,0.013,0.584,0.03,0.877,0.039C7.12,26.1,7.955,26.14,8.787,26.198
	c0.867,0.059,1.732,0.119,2.602,0.117c0.322,0,0.643,0,0.967,0.002c0.515,0,1.031,0.002,1.548-0.004
	c0.848-0.008,1.699-0.061,2.543-0.119c0.854-0.059,1.707-0.106,2.564-0.123c0.818-0.015,1.635-0.03,2.453-0.061
	c0.818-0.03,1.637-0.025,2.453-0.083c0.396-0.03,0.789-0.07,1.187-0.083c0.401-0.015,0.804-0.044,1.206-0.044
	c0.02,0,0.037,0.01,0.057,0.012c0.063-0.035,0.122-0.078,0.196-0.091c0.004,0,0.009-0.001,0.013-0.001
	c0.155-0.08,0.31-0.16,0.477-0.218c0.073-0.024,0.145-0.048,0.217-0.074c0.076-0.04,0.148-0.084,0.219-0.133
	c0.071-0.063,0.136-0.13,0.198-0.201c0.098-0.139,0.183-0.285,0.259-0.439C27.994,24.516,28.03,24.375,28.058,24.23z M25.508,22.084
	c-0.324-0.481-0.696-0.927-1.101-1.342c-0.162-0.166-0.381-0.248-0.601-0.248c-0.222,0-0.444,0.083-0.608,0.248
	c-0.329,0.329-0.327,0.878,0,1.208c0.28,0.284,0.542,0.578,0.794,0.886c0.077,0.111,0.149,0.222,0.213,0.343
	c0.024,0.07,0.043,0.141,0.059,0.213c0.003,0.056,0.003,0.112,0.001,0.168c-0.019,0.088-0.042,0.175-0.071,0.261
	c-0.196,0.388-0.098,0.865,0.291,1.092c0.371,0.216,0.889,0.097,1.099-0.288c0.197-0.361,0.286-0.751,0.326-1.158
	c0.017-0.184-0.025-0.405-0.059-0.579C25.794,22.608,25.667,22.321,25.508,22.084z M8.051,21.257c-0.443,0-0.812,0.369-0.812,0.812
	s0.369,0.812,0.812,0.812c0.443,0,0.812-0.369,0.812-0.812S8.494,21.257,8.051,21.257z M10.056,19.304
	c-0.399,0-0.732,0.333-0.732,0.732c0,0.399,0.333,0.732,0.732,0.732c0.399,0,0.732-0.333,0.732-0.732
	C10.789,19.637,10.456,19.304,10.056,19.304z M11.648,13.756c-0.443,0-0.812,0.369-0.812,0.812s0.369,0.812,0.812,0.812
	s0.812-0.369,0.812-0.812S12.091,13.756,11.648,13.756z"/>
</svg>