<?xml version="1.0" encoding="utf-8"?>
<!-- Generator: Adobe Illustrator 19.1.0, SVG Export Plug-In . SVG Version: 6.00 Build 0)  -->
<!DOCTYPE svg PUBLIC "-//W3C//DTD SVG 1.1//EN" "http://www.w3.org/Graphics/SVG/1.1/DTD/svg11.dtd">
<svg version="1.1" id="DESIGNS" xmlns="http://www.w3.org/2000/svg" xmlns:xlink="http://www.w3.org/1999/xlink" x="0px" y="0px"
	 width="64px" height="64px" viewBox="0 0 64 64" style="enable-background:new 0 0 64 64;" xml:space="preserve">
<style type="text/css">
	.fandom_drie{fill:#BE9148;}
	.fandom_vier{fill:#FFC865;}
	.fandom_vijf{fill:#018273;}
	.fandom_zes{fill:#00B3AA;}
	.fandom_twaalf{fill:#644638;}
	.st0{fill:#FF786E;}
	.st1{fill:#BE5652;}
	.st2{fill:#4B322A;}
	.st3{fill:#EFEAE0;}
	.st4{fill:#AA9991;}
	.st5{fill:#808080;}
	.st6{fill:#666666;}
	.st7{fill:#CCCCCC;}
	.st8{fill:#6BC4D2;}
	.st9{fill:#508D9B;}
	.st10{fill:#3A3A3A;}
	.st11{fill:#FFFAFA;}
	.st12{fill:#4D4D4D;}
	.st13{fill:#8579A3;}
	.st14{fill:#685683;}
</style>
<g>
	<g>
		<path class="fandom_vier" d="M32,7C18.193,7,7,18.193,7,32h50C57,18.193,45.807,7,32,7z"/>
		<path class="fandom_drie" d="M32,57c13.807,0,25-11.193,25-25H7C7,45.807,18.193,57,32,57z"/>
	</g>
	<g>
		<path class="fandom_twaalf" d="M25.658,56.177c-3.599-0.943-6.884-2.659-9.658-4.973V47h3v2c0,0.552,0.448,1,1,1h8.475
			C28.475,50,27.653,53.186,25.658,56.177z M46,47v2c0,0.552-0.448,1-1,1h-9.475c0,0,0.822,3.186,2.816,6.177
			c3.599-0.943,6.884-2.659,9.658-4.973V47H46z"/>
		<path class="fandom_zes" d="M55,41.809V37c0.533,0,1.015,0.212,1.373,0.552C56.039,39.024,55.581,40.449,55,41.809z M12,41.938
			c0-0.738,0.405-1.376,1-1.723v-2.277c0-1.105-0.895-2-2-2v9.62c0.317,0.489,0.651,0.965,1,1.43V41.938z M16,51.207v-9.269
			c0-1.105-0.895-2-2-2v9.402C14.633,49.997,15.299,50.622,16,51.207z M54,43.883V35c0-1.105-0.895-2-2-2v14
			C52.74,46.015,53.41,44.973,54,43.883z M44,22v3.779C43.468,25.3,42.772,25,42,25v25h3c0.552,0,1-0.448,1-1V24
			C46,22.895,45.105,22,44,22z M39,40.777V13c0-1.105-0.895-2-2-2v6.779C36.468,17.3,35.772,17,35,17v21.75V50h5v-6.25
			C40,42.632,39.62,41.61,39,40.777z M31,12v23c0-1.304-0.837-2.403-2-2.816V14c0-0.738,0.405-1.376,1-1.723V5c0-1.105-0.895-2-2-2
			v10c0-1.105-0.895-2-2-2v15c0-1.105-0.895-2-2-2v26h1V35c0-1.657,1.343-3,3-3v18h2v-6.25c0-1.63,0.792-3.065,2-3.977V20
			c0-0.885,0.39-1.672,1-2.221V14C33,12.895,32.105,12,31,12z M23,24.277v-1.069c0-1.105-0.895-2-2-2V50h1V26
			C22,25.262,22.405,24.624,23,24.277z"/>
		<path class="fandom_vijf" d="M21,50h-1c-0.552,0-1-0.448-1-1V23.208c0-1.105,0.895-2,2-2h0V50z M44,22c-1.105,0-2,0.895-2,2v1
			c0.772,0,1.468,0.3,2,0.779V22z M39,28v12.777c0.62,0.833,1,1.854,1,2.973V50h2V25C40.343,25,39,26.343,39,28z M26,26V11
			c-1.105,0-2,0.895-2,2v11C25.105,24,26,24.895,26,26z M54,37.277v6.585c0.362-0.667,0.7-1.35,1-2.053V37
			C54.634,37,54.295,37.106,54,37.277z M11,45.557v-9.62c-1.105,0-2,0.895-2,2v3.872C9.56,43.121,10.233,44.372,11,45.557z M50,35v3
			c-1.105,0-2,0.895-2,2v11.207c0.701-0.585,1.367-1.21,2-1.867c0.712-0.739,1.383-1.517,2-2.339V33C50.895,33,50,33.895,50,35z
			 M14,49.34v-9.402c-1.105,0-2,0.895-2,2V47C12.617,47.822,13.288,48.601,14,49.34z M37,11c-1.105,0-2,0.895-2,2v4
			c0.772,0,1.468,0.3,2,0.779V11z M32,20v19.773c-1.208,0.913-2,2.347-2,3.977V50h5V17C33.343,17,32,18.343,32,20z M31,35V12
			c-1.105,0-2,0.895-2,2v18.184C30.163,32.597,31,33.696,31,35z M28,13V3c-1.105,0-2,0.895-2,2v6C27.105,11,28,11.895,28,13z M28,32
			L28,32c-1.657,0-3,1.343-3,3v15h3V32z M24,24L24,24c-1.105,0-2,0.895-2,2v24h2V24z"/>
	</g>
</g>
</svg>