<?xml version="1.0" encoding="utf-8"?>
<!-- Generator: Adobe Illustrator 19.1.0, SVG Export Plug-In . SVG Version: 6.00 Build 0)  -->
<!DOCTYPE svg PUBLIC "-//W3C//DTD SVG 1.1//EN" "http://www.w3.org/Graphics/SVG/1.1/DTD/svg11.dtd">
<svg version="1.1" id="DESIGNS" xmlns="http://www.w3.org/2000/svg" xmlns:xlink="http://www.w3.org/1999/xlink" x="0px" y="0px"
	 width="64px" height="64px" viewBox="0 0 64 64" style="enable-background:new 0 0 64 64;" xml:space="preserve">
<style type="text/css">
	.fandom_drie{fill:#BE9148;}
	.fandom_vier{fill:#FFC865;}
	.fandom_vijf{fill:#018273;}
	.fandom_zes{fill:#00B3AA;}
	.fandom_zeven{fill:#508D9B;}
	.fandom_acht{fill:#6BC4D2;}
	.fandom_twaalf{fill:#644638;}
	.st0{fill:#FF786E;}
	.st1{fill:#BE5652;}
	.st2{fill:#EFEAE0;}
	.st3{fill:#AA9991;}
	.st4{fill:#FFFAFA;}
	.st5{fill:#4B322A;}
	.st6{fill:#8579A3;}
	.st7{fill:#685683;}
	.st8{fill:#4D4D4D;}
	.st9{fill:#3A3A3A;}
	.st10{fill:#808080;}
	.st11{fill:#CCCCCC;}
	.st12{fill:#666666;}
</style>
<g>
	<g>
		<path class="fandom_acht" d="M32,7C18.193,7,7,18.193,7,32h50C57,18.193,45.807,7,32,7z"/>
		<path class="fandom_zeven" d="M32,57c13.807,0,25-11.193,25-25H7C7,45.807,18.193,57,32,57z"/>
	</g>
	<g>
		<path class="fandom_zes" d="M12.968,44.308c0.253,0.004,0.505-0.027,0.744-0.048c1.458-0.132,4.333-4.038,8.5-4.959
			c3.86-0.854,8.243,0.341,9.609,0.673c0.001,0-1.84,0.11-3.496,1.09c-1.575,0.025-4.239,0.337-7.488,1.793
			c-3.923,1.757-6.72,2.929-8.721,2.974C11.917,45.708,11.812,44.292,12.968,44.308z M53,43.018c0-0.517-0.375-1-0.924-1.029
			c-0.796-0.042-1.89-0.243-3.282-0.815c-8.336-3.324-13.195-2.087-15.232-1.165c-0.56-0.06-1.122-0.083-1.683-0.038
			c-0.743,2.469-0.722,12.64,1.223,19c0.367,0.036,0.744-0.091,0.982-0.421c1.402-1.938,4.318-6.284,5.343-10.133
			c0.362-1.357,0.499-2.654,0.239-3.759c-0.435-1.846-1.664-2.996-3.013-3.718c0.74,0.111,1.589,0.327,2.6,0.708
			C44.031,43.451,48.21,45.097,53,43.018z"/>
		<path class="fandom_vijf" d="M53,43.018c0,0.173-0.042,0.35-0.133,0.515c-1.144,2.066-3.766,5.396-8.781,5.4
			c-1.81,0.001-3.342-0.138-4.68-0.425c0.381-1.39,0.526-2.72,0.26-3.85c-0.435-1.846-1.664-2.996-3.013-3.718
			c0.74,0.111,1.589,0.327,2.6,0.708C44.031,43.451,48.21,45.097,53,43.018z M33.101,58.971c-1.946-6.364-1.966-16.546-1.221-19.006
			c-1.241,0.102-2.455,0.477-3.555,1.098c-1.575,0.025-4.239,0.337-7.488,1.793c-3.923,1.757-6.72,2.929-8.721,2.974
			c0.065,0.135,0.15,0.263,0.281,0.369c2.209,1.773,7.392,4.401,11.315,3.68c0.776-0.143,1.468-0.318,2.086-0.515
			c1.535,3.668,4.985,7.57,6.624,9.299C32.61,58.86,32.854,58.947,33.101,58.971z M33.44,33.101
			c-0.98-0.793-1.619-1.609-2.037-2.409c-0.162,0.872-0.508,1.822-1.13,2.844c-0.138,0.227-0.347,0.367-0.577,0.429
			c0.132,1.974,0.29,4.125,0.481,5.62c0.831,0.172,1.702,0.387,1.702,0.388c0.56-0.045,1.123-0.023,1.683,0.038
			c0.195-0.088,0.424-0.179,0.671-0.268c-0.232-1.76-0.476-4.387-0.665-6.561C33.525,33.154,33.48,33.133,33.44,33.101z"/>
		<path class="fandom_twaalf" d="M42.439,16.728c0.467,4.928-5.048,9.508-12.317,10.229s-13.54-2.688-14.007-7.616
			c-0.467-4.928,5.048-9.508,12.317-10.229S41.973,11.8,42.439,16.728z"/>
		<path class="fandom_vier" d="M16.841,22.013c-1.532,1.432-2.805,2.958-3.438,3.758c-0.223-0.234-0.332-0.567-0.237-0.915
			c0.261-0.953,0.618-1.733,1.03-2.382C15.221,22.513,16.104,22.308,16.841,22.013z M34.408,2.706
			c-0.316-0.092-0.681-0.038-0.967,0.194c-0.823,0.665-1.394,1.347-1.81,2.022c-0.211-0.773-0.575-1.597-1.194-2.474
			c-0.212-0.3-0.547-0.45-0.877-0.447c-0.192,1.326-0.539,4.316-0.262,7.055c0.565-0.031,1.121-0.037,1.669-0.021
			c0.645,0.021,1.275,0.074,1.889,0.158C33.781,6.722,34.235,3.969,34.408,2.706z M36.169,9.995
			c1.034-2.187,1.703-4.524,1.994-5.653c-0.303-0.128-0.672-0.115-0.983,0.082c-2.411,1.529-3.172,3.37-3.282,4.94
			C34.693,9.523,35.452,9.735,36.169,9.995z M38.968,11.404c1.459-1.661,2.635-3.44,3.202-4.348
			c-0.251-0.211-0.606-0.308-0.963-0.212c-2.531,0.685-3.819,2.027-4.464,3.374C37.553,10.553,38.301,10.948,38.968,11.404z
			 M44.663,9.914c-2.298,0.359-3.678,1.34-4.515,2.442c0.653,0.612,1.184,1.29,1.572,2.027c1.726-1.539,3.185-3.279,3.877-4.154
			C45.371,9.992,45.028,9.857,44.663,9.914z M42.439,16.728c0.018,0.191,0.011,0.381,0.011,0.571
			c2.579-0.751,5.113-2.062,6.249-2.69c-0.116-0.305-0.378-0.56-0.738-0.647c-2.815-0.68-4.703,0.066-5.93,1.087
			C42.242,15.584,42.384,16.144,42.439,16.728z M42.901,20.722c2.452,0.168,4.921-0.057,6.099-0.197
			c0.011-0.326-0.134-0.66-0.433-0.876c-2.511-1.81-4.664-1.698-6.223-1.109c-0.136,0.682-0.398,1.343-0.744,1.983
			c-0.149,0.276-0.309,0.549-0.494,0.815c1.902,1.618,3.538,3.564,4.283,4.507c0.223-0.234,0.332-0.567,0.237-0.915
			C45.048,22.813,44.005,21.518,42.901,20.722z M42.508,28.06c-0.413-2.639-1.647-4.149-2.913-5.017
			c-0.365,0.334-0.754,0.655-1.177,0.956c1.709,1.815,3.117,3.926,3.753,4.944C42.418,28.736,42.564,28.416,42.508,28.06z
			 M35.889,25.435c1.194,2.338,1.957,4.996,2.273,6.223c0.299-0.126,0.535-0.387,0.59-0.744c0.458-2.989-0.526-4.906-1.646-6.089
			C36.717,25.043,36.31,25.245,35.889,25.435z M32.742,26.515c1.002,2.542,1.487,5.465,1.666,6.779
			c0.312-0.091,0.577-0.324,0.672-0.672c0.849-3.085-0.042-5.161-1.096-6.452C33.579,26.299,33.165,26.414,32.742,26.515z
			 M29.706,26.984c-0.613,0.048-1.636,0.058-1.548,0.058c0.205,1.154,0.11,2.58-0.789,4.039c0.211,0.773,0.576,1.596,1.195,2.472
			c0.212,0.3,0.547,0.45,0.877,0.447C29.632,32.68,29.975,29.712,29.706,26.984z M25.087,26.786
			c-0.101,1.048-0.512,2.204-1.495,3.304c-0.019,0.757,0.07,1.595,0.328,2.532c0.096,0.348,0.361,0.581,0.672,0.672
			c0.17-1.242,0.611-3.924,1.505-6.361C25.645,26.882,24.98,26.768,25.087,26.786z M22.155,25.983
			c-0.39,0.738-0.993,1.461-1.886,2.068c-0.156,0.823-0.189,1.767-0.021,2.863c0.055,0.356,0.291,0.618,0.59,0.744
			c0.282-1.095,0.922-3.328,1.904-5.458C22.365,26.074,21.985,25.918,22.155,25.983z M18.633,23.92
			c-0.254,0.293-0.556,0.572-0.903,0.831c-0.564,0.836-1.019,1.909-1.238,3.31c-0.056,0.356,0.09,0.675,0.338,0.884
			c0.541-0.866,1.64-2.525,3.006-4.119C19.36,24.519,18.597,23.888,18.633,23.92z M16.115,19.34c-0.027-0.284-0.015-0.8-0.016-0.777
			c-0.651,0-1.376-0.101-2.13-0.364c-1.065,0.113-2.252,0.525-3.536,1.451c-0.299,0.216-0.444,0.55-0.433,0.876
			c1.229,0.146,3.864,0.388,6.418,0.176C16.273,20.261,16.16,19.81,16.115,19.34z M16.769,15.887
			c-0.817-0.41-1.654-1.057-2.358-2.047c-0.941-0.192-2.049-0.199-3.373,0.121c-0.36,0.087-0.622,0.342-0.738,0.647
			c1.098,0.608,3.504,1.853,5.992,2.614C16.466,16.528,16.769,15.887,16.769,15.887z M17.739,11.26
			c-0.821-0.617-1.915-1.114-3.402-1.346c-0.366-0.057-0.708,0.078-0.934,0.315c0.726,0.918,2.297,2.786,4.135,4.378
			c0.454-0.63,1.002-1.228,1.639-1.781C19.157,12.793,18.152,11.869,17.739,11.26z M21.792,11.06
			c-0.672-0.744-1.28-1.759-1.534-3.122c-0.653-0.44-1.456-0.821-2.465-1.094c-0.357-0.097-0.712,0-0.963,0.212
			c0.619,0.991,1.971,3.018,3.619,4.799C20.921,11.538,21.848,11.031,21.792,11.06z M24.978,9.784
			c-0.717-0.894-1.334-2.167-1.38-3.868c-0.459-0.515-1.032-1.019-1.778-1.491c-0.312-0.198-0.68-0.21-0.983-0.082
			c0.312,1.209,1.058,3.806,2.221,6.118C23.7,10.19,25.01,9.774,24.978,9.784z M28.086,9.158c-0.46-0.982-0.774-2.291-0.483-3.857
			c-0.417-0.798-1.066-1.611-2.043-2.401c-0.286-0.232-0.651-0.286-0.967-0.194c0.179,1.31,0.662,4.22,1.658,6.757
			c0.607-0.131,1.868-0.31,1.868-0.31C28.107,9.155,28.097,9.156,28.086,9.158z"/>
		<path class="fandom_drie" d="M40.161,12.371c-0.364-0.343-0.757-0.67-1.193-0.967c1.459-1.661,2.635-3.44,3.202-4.348
			c0.247,0.208,0.394,0.528,0.338,0.884c-0.218,1.393-0.667,2.466-1.227,3.3c-0.458,0.341-0.833,0.72-1.134,1.116
			C40.153,12.36,40.156,12.366,40.161,12.371z M45.033,18.191c1.155-0.403,2.378-1.188,3.527-2.648
			c0.224-0.285,0.253-0.634,0.139-0.935c-1.136,0.629-3.67,1.939-6.249,2.69c0.001,0.417-0.026,0.832-0.107,1.24
			c0.001,0,0.003,0,0.004,0C43.11,18.251,44.015,18.082,45.033,18.191z M42.901,20.722c0.589,0.425,1.158,0.999,1.651,1.757
			c1.15-0.001,2.478-0.305,3.959-1.142c0.317-0.179,0.478-0.491,0.489-0.812C47.822,20.666,45.352,20.89,42.901,20.722z
			 M32.742,26.515c-0.602,0.145-1.227,0.252-1.861,0.34c-0.252,0.036-0.502,0.076-0.758,0.102c-0.14,0.014-0.277,0.016-0.416,0.027
			c0.27,2.728-0.074,5.697-0.265,7.016c0.325-0.003,0.644-0.156,0.833-0.465c0.621-1.019,0.963-1.966,1.125-2.835
			c0.417,0.797,1.066,1.611,2.043,2.401c0.286,0.232,0.651,0.286,0.967,0.193C34.228,31.981,33.743,29.058,32.742,26.515z
			 M33.897,9.364c0.076-1.085,0.479-2.299,1.508-3.451c0.02-0.758-0.066-1.596-0.325-2.536c-0.096-0.348-0.361-0.581-0.672-0.672
			c-0.173,1.263-0.626,4.016-1.552,6.487C33.3,9.253,33.897,9.364,33.897,9.364z M36.743,10.218
			c0.386-0.807,1.011-1.609,1.988-2.272c0.156-0.823,0.19-1.766,0.022-2.861c-0.055-0.356-0.291-0.618-0.59-0.744
			c-0.291,1.129-0.96,3.466-1.994,5.653C36.58,10.145,36.743,10.218,36.743,10.218z M42.032,15.048
			c0.652-0.542,1.497-0.999,2.562-1.213c0.501-0.706,0.936-1.581,1.24-2.69c0.095-0.348-0.014-0.681-0.237-0.915
			c-0.692,0.875-2.151,2.614-3.877,4.154C41.841,14.614,42.037,15.062,42.032,15.048z M41.106,21.338
			c-0.425,0.611-1.521,1.714-1.511,1.705c0.689,0.472,1.363,1.143,1.905,2.073c0.763,0.473,1.722,0.85,2.956,1.043
			c0.366,0.057,0.708-0.078,0.934-0.315C44.644,24.902,43.008,22.956,41.106,21.338z M38.418,24
			c-0.472,0.336-1.379,0.863-1.311,0.825c0.711,0.751,1.364,1.801,1.631,3.23c0.653,0.443,1.456,0.827,2.469,1.101
			c0.357,0.097,0.712,0,0.963-0.212C41.534,27.926,40.126,25.815,38.418,24z M35.889,25.435c-0.637,0.288-1.937,0.746-1.906,0.736
			c0.732,0.897,1.372,2.184,1.418,3.914c0.459,0.515,1.033,1.018,1.778,1.491c0.312,0.198,0.68,0.21,0.983,0.082
			C37.846,30.43,37.083,27.773,35.889,25.435z M26.098,26.933c-0.894,2.437-1.336,5.119-1.505,6.361
			c0.316,0.092,0.681,0.038,0.967-0.193c2.6-2.102,2.899-4.372,2.598-6.059C27.456,27.04,26.766,27.009,26.098,26.933z M22.741,26.2
			c-0.982,2.129-1.622,4.363-1.904,5.458c0.303,0.128,0.672,0.115,0.983-0.082c2.335-1.481,3.119-3.253,3.266-4.789
			C24.267,26.645,23.483,26.448,22.741,26.2z M19.836,24.825c-1.366,1.593-2.466,3.253-3.006,4.119
			c0.251,0.211,0.606,0.308,0.963,0.212c2.404-0.65,3.686-1.895,4.362-3.173C21.313,25.66,20.534,25.274,19.836,24.825z
			 M16.947,21.912c-1.58,1.461-2.896,3.04-3.543,3.858c0.226,0.237,0.568,0.372,0.934,0.315c2.105-0.329,3.441-1.18,4.295-2.166
			C17.945,23.317,17.369,22.647,16.947,21.912z M16.418,20.701c-2.554,0.212-5.189-0.03-6.418-0.176
			c0.011,0.321,0.172,0.633,0.489,0.812c2.74,1.548,4.96,1.274,6.487,0.626C16.741,21.561,16.563,21.137,16.418,20.701z
			 M16.292,17.223c-2.488-0.761-4.894-2.007-5.992-2.614c-0.114,0.301-0.085,0.65,0.139,0.935c1.899,2.414,4.012,3.02,5.66,3.019
			C16.114,18.11,16.183,17.664,16.292,17.223z M17.538,14.607c-1.837-1.591-3.409-3.46-4.135-4.378
			c-0.223,0.234-0.332,0.567-0.237,0.915c0.731,2.672,2.202,4.04,3.602,4.742C16.979,15.447,17.24,15.021,17.538,14.607z
			 M19.202,12.803c0.386-0.333,0.801-0.65,1.246-0.948c-1.648-1.781-3-3.808-3.619-4.799c-0.247,0.208-0.394,0.528-0.338,0.884
			C16.883,10.437,18.01,11.916,19.202,12.803z M23.059,10.46c-1.163-2.312-1.909-4.909-2.221-6.118
			c-0.299,0.126-0.535,0.387-0.59,0.744c-0.444,2.897,0.468,4.783,1.544,5.974C22.199,10.846,22.62,10.645,23.059,10.46z
			 M26.25,9.463c-0.996-2.537-1.479-5.447-1.658-6.757c-0.312,0.091-0.577,0.324-0.672,0.672c-0.839,3.048,0.021,5.112,1.058,6.406
			C25.393,9.663,25.817,9.556,26.25,9.463z M28.433,9.111c0.291-0.029,0.578-0.04,0.865-0.056C29.021,6.316,29.367,3.326,29.56,2
			c-0.325,0.003-0.644,0.156-0.833,0.465c-1.74,2.856-1.357,5.166-0.641,6.693C28.202,9.144,28.315,9.123,28.433,9.111z"/>
	</g>
</g>
</svg>