<?xml version="1.0" encoding="utf-8"?>
<!-- Generator: Adobe Illustrator 19.1.0, SVG Export Plug-In . SVG Version: 6.00 Build 0)  -->
<!DOCTYPE svg PUBLIC "-//W3C//DTD SVG 1.1//EN" "http://www.w3.org/Graphics/SVG/1.1/DTD/svg11.dtd">
<svg version="1.1" id="DESIGNS" xmlns="http://www.w3.org/2000/svg" xmlns:xlink="http://www.w3.org/1999/xlink" x="0px" y="0px"
	 width="64px" height="64px" viewBox="0 0 64 64" style="enable-background:new 0 0 64 64;" xml:space="preserve">
<style type="text/css">
	.fandom_een{fill:#FF786E;}
	.fandom_twee{fill:#BE5652;}
	.fandom_drie{fill:#BE9148;}
	.fandom_vier{fill:#FFC865;}
	.fandom_vijf{fill:#018273;}
	.fandom_zes{fill:#00B3AA;}
	.fandom_zestien{fill:#4D4D4D;}
	.fandom_twintig{fill:#FFFAFA;}
	.st0{fill:#EFEAE0;}
	.st1{fill:#644638;}
	.st2{fill:#8579A3;}
	.st3{fill:#808080;}
	.st4{fill:#666666;}
	.st5{fill:#685683;}
	.st6{fill:#AA9991;}
	.st7{fill:#6BC4D2;}
	.st8{fill:#508D9B;}
	.st9{fill:#CCCCCC;}
	.st10{fill:#4B322A;}
	.st11{fill:#3A3A3A;}
</style>
<g>
	<g>
		<path class="fandom_vier" d="M32,7C18.193,7,7,18.193,7,32h50C57,18.193,45.807,7,32,7z"/>
		<path class="fandom_drie" d="M32,57c13.807,0,25-11.193,25-25H7C7,45.807,18.193,57,32,57z"/>
	</g>
	<g>
		<path class="fandom_een" d="M24.013,26.409c1.789,6.957,1.078,13.157-1.587,13.848c-2.665,0.691-6.275-4.389-8.064-11.346
			s-1.078-13.157,1.587-13.848S22.225,19.452,24.013,26.409z"/>
		
			<ellipse transform="matrix(0.707 0.7072 -0.7072 0.707 41.0509 -17.5844)" class="fandom_twee" cx="41.747" cy="40.75" rx="4.948" ry="12.864"/>
		<path class="fandom_zestien" d="M15.524,26.942c-0.474-0.282-0.63-0.896-0.35-1.371c0.281-0.476,0.892-0.633,1.365-0.351
			c0.474,0.282,1.641,1.8,1.493,2.051C17.864,27.558,15.998,27.223,15.524,26.942z M19.166,30.336
			c-0.24-0.164-1.823,0.91-2.133,1.367c-0.31,0.457-0.192,1.079,0.263,1.391c0.455,0.311,1.075,0.193,1.385-0.264
			C18.99,32.372,19.44,30.524,19.166,30.336z M18.478,22.396c0.282-0.073,0.524-1.975,0.388-2.511s-0.68-0.858-1.213-0.721
			c-0.533,0.137-0.855,0.683-0.718,1.218S18.156,22.478,18.478,22.396z M21.178,32.419c-0.274,0.098-0.34,2.015-0.155,2.536
			s0.756,0.791,1.274,0.605c0.518-0.186,0.788-0.759,0.603-1.279C22.715,33.76,21.491,32.306,21.178,32.419z M45.035,36.674
			c0.233,0.17,1.839-0.839,2.161-1.281c0.322-0.441,0.226-1.061-0.215-1.383c-0.441-0.323-1.06-0.226-1.383,0.215
			C45.275,34.666,44.768,36.479,45.035,36.674z M41.717,39.722c0.196-0.211-0.617-1.925-1.017-2.297s-1.026-0.349-1.398,0.051
			c-0.372,0.4-0.349,1.027,0.051,1.399S41.493,39.964,41.717,39.722z M37.445,42.374c-0.144-0.25-2.021,0.022-2.494,0.294
			c-0.474,0.273-0.636,0.878-0.364,1.352c0.273,0.474,0.878,0.637,1.351,0.364C36.412,44.112,37.61,42.66,37.445,42.374z
			 M40.717,43.853c-0.275-0.086-1.471,1.386-1.635,1.907c-0.164,0.522,0.127,1.077,0.648,1.241s1.077-0.127,1.24-0.648
			S41.032,43.952,40.717,43.853z M44.09,40.203c0.012,0.288,1.802,0.915,2.348,0.892c0.546-0.023,0.97-0.484,0.947-1.03
			c-0.023-0.546-0.484-0.97-1.03-0.947S44.076,39.873,44.09,40.203z M20.349,27.47c0.181,0.228,2.009-0.329,2.44-0.674
			c0.43-0.345,0.501-0.974,0.158-1.406s-0.97-0.503-1.401-0.158C21.115,25.576,20.141,27.209,20.349,27.47z"/>
		<path class="fandom_zes" d="M2.046,30.527C1.5,24,7.294,17.307,15.949,15.063c-2.665,0.691-3.375,6.891-1.587,13.848
			c0.524,2.04,1.208,3.91,1.976,5.529C13.283,35.196,8.419,35.051,2.046,30.527z M53.991,52.997
			c5.023-5.025,3.613-14.581-3.148-21.345c1.932,1.933-0.574,7.572-5.597,12.597c-1.124,1.124-2.278,2.114-3.415,2.965
			c3.125,2.778,6.894,5.727,10.254,7.252C52.77,54.057,53.413,53.575,53.991,52.997z"/>
		<path class="fandom_vijf" d="M2.3,32.038c-0.129-0.501-0.205-1.005-0.254-1.511c6.373,4.524,11.237,4.669,14.293,3.913
			c1.851,3.903,4.205,6.306,6.088,5.817C13.1,42.675,4.088,38.995,2.3,32.038z M32.652,49.848c5.985,5.986,14.15,7.769,19.432,4.618
			c-3.359-1.525-7.129-4.474-10.254-7.252C37.886,50.165,34.152,51.348,32.652,49.848z"/>
		<path class="fandom_twintig" d="M20.74,53c0,0,9.331-35.386,28.532-33.958L52,21l-2.75,1.875C49.25,22.875,36.768,18.725,20.74,53
			z"/>
	</g>
</g>
</svg>