<?xml version="1.0" encoding="utf-8"?>
<!-- Generator: Adobe Illustrator 19.1.0, SVG Export Plug-In . SVG Version: 6.00 Build 0)  -->
<!DOCTYPE svg PUBLIC "-//W3C//DTD SVG 1.1//EN" "http://www.w3.org/Graphics/SVG/1.1/DTD/svg11.dtd">
<svg version="1.1" id="DESIGNS" xmlns="http://www.w3.org/2000/svg" xmlns:xlink="http://www.w3.org/1999/xlink" x="0px" y="0px"
	 width="64px" height="64px" viewBox="0 0 64 64" style="enable-background:new 0 0 64 64;" xml:space="preserve">
<style type="text/css">
	.fandom_een{fill:#FF786E;}
	.fandom_twee{fill:#BE5652;}
	.fandom_zeven{fill:#508D9B;}
	.fandom_acht{fill:#6BC4D2;}
	.st0{fill:#00B3AA;}
	.st1{fill:#018273;}
	.st2{fill:#EFEAE0;}
	.st3{fill:#FFC865;}
	.st4{fill:#BE9148;}
	.st5{fill:#644638;}
	.st6{fill:#8579A3;}
	.st7{fill:#808080;}
	.st8{fill:#666666;}
	.st9{fill:#685683;}
	.st10{fill:#AA9991;}
	.st11{fill:#4D4D4D;}
	.st12{fill:#FFFAFA;}
	.st13{fill:#CCCCCC;}
	.st14{fill:#4B322A;}
	.st15{fill:#3A3A3A;}
</style>
<g>
	<g>
		<path class="fandom_een" d="M32,7C18.193,7,7,18.193,7,32h50C57,18.193,45.807,7,32,7z"/>
		<path class="fandom_twee" d="M32,57c13.807,0,25-11.193,25-25H7C7,45.807,18.193,57,32,57z"/>
	</g>
	<g>
		<path class="fandom_acht" d="M5.996,24.138l1.888-1.354c0.65-0.466,1.56-0.024,1.589,0.772l0.098,2.628l6.79,9.354L16.1,38.176
			C16.196,38.415,5.996,24.138,5.996,24.138z M22.83,30.763c4.037-2.895,9.691-1.985,12.603,2.027
			c1.912,2.635,2.165,5.958,0.976,8.752l15.904-8.216l-7.919-10.91c-0.606-0.834-1.914-0.321-1.808,0.702
			c0.793,7.658-2.279,12.91-2.279,12.91l-0.253,0.567c-0.235-1.945-0.949-3.858-2.181-5.556c-3.883-5.35-11.422-6.563-16.804-2.703
			c-1.291,0.926-2.335,2.063-3.13,3.328l2.941,1.005C21.416,31.957,22.067,31.311,22.83,30.763z M29.569,42.887l-0.826,0.592
			l-1.175-1.616l0.828-0.594l-1.174-1.617l-0.83,0.595l-1.175-1.616l0.831-0.596l-1.174-1.617l-0.833,0.597L22.866,35.4l0.834-0.598
			l-0.587-0.809c-0.648-0.893-0.445-2.139,0.453-2.784l1.627-1.167c0.899-0.644,2.152-0.443,2.801,0.451l7.042,9.703
			c0.648,0.893,0.445,2.139-0.453,2.784l-1.627,1.167c-0.899,0.644-2.152,0.443-2.801-0.451L29.569,42.887z M31.196,41.72
			l0.587,0.809l1.627-1.167l-0.587-0.809L31.196,41.72z M26.954,32.468l-0.587-0.809l-1.627,1.167l0.587,0.809L26.954,32.468z
			 M29.302,35.702l-1.174-1.617l-1.627,1.167l1.174,1.617L29.302,35.702z M31.649,38.937l-1.174-1.617l-1.627,1.167l1.174,1.617
			L31.649,38.937z"/>
		<path class="fandom_zeven" d="M4.652,27.013l2.479,0.921l9.24,12.731c0.345,1.533,0.998,3.022,1.979,4.374
			c3.883,5.35,11.422,6.563,16.804,2.703c0.072-0.051,0.2-0.151,0.2-0.151c9.065-6.882,18.267-4.615,23.245-2.447
			c0.932,0.406,1.801-0.678,1.205-1.499l-7.49-10.319L36.41,41.543c-0.621,1.461-1.63,2.78-3.016,3.774
			c-0.757,0.543-1.572,0.952-2.414,1.232L20.88,32.67l-2.941-1.005c-0.754,1.199-1.286,2.511-1.579,3.874
			c0,0-0.356,2.399-0.261,2.637L5.996,24.138l-1.58,1.133C3.767,25.737,3.902,26.734,4.652,27.013z M19.794,34.586l1.434,1.988
			l-0.782,0.561c-0.449,0.322-0.551,0.945-0.227,1.392c0.324,0.447,0.951,0.547,1.4,0.225l0.782-0.561l1.175,1.616l-0.784,0.562
			c-0.449,0.322-0.551,0.945-0.227,1.392s0.951,0.547,1.4,0.225l0.787-0.564l1.178,1.614l-0.791,0.567
			c-0.449,0.322-0.551,0.945-0.227,1.392s0.951,0.547,1.4,0.225l0.796-0.571l1.699,2.324c-3.033,0.229-6.113-1.058-8.019-3.684
			C18.889,40.67,18.629,37.369,19.794,34.586z"/>
	</g>
</g>
</svg>