<?xml version="1.0" encoding="utf-8"?>
<!-- Generator: Adobe Illustrator 19.1.0, SVG Export Plug-In . SVG Version: 6.00 Build 0)  -->
<!DOCTYPE svg PUBLIC "-//W3C//DTD SVG 1.1//EN" "http://www.w3.org/Graphics/SVG/1.1/DTD/svg11.dtd">
<svg version="1.1" id="DESIGNS" xmlns="http://www.w3.org/2000/svg" xmlns:xlink="http://www.w3.org/1999/xlink" x="0px" y="0px"
	 width="64px" height="64px" viewBox="0 0 64 64" style="enable-background:new 0 0 64 64;" xml:space="preserve">
<style type="text/css">
	.fandom_vier{fill:#FFC865;}
	.fandom_vijf{fill:#018273;}
	.fandom_zes{fill:#00B3AA;}
	.fandom_vijftien{fill:#3A3A3A;}
	.fandom_zestien{fill:#4D4D4D;}
	.st0{fill:#6BC4D2;}
	.st1{fill:#508D9B;}
	.st2{fill:#4B322A;}
	.st3{fill:#EFEAE0;}
	.st4{fill:#BE5652;}
	.st5{fill:#FF786E;}
	.st6{fill:#644638;}
	.st7{fill:#8579A3;}
	.st8{fill:#685683;}
	.st9{fill:#CCCCCC;}
	.st10{fill:#AA9991;}
	.st11{fill:#BE9148;}
	.st12{fill:#808080;}
	.st13{fill:#666666;}
	.st14{fill:#FFFAFA;}
</style>
<g>
	<g>
		<path class="fandom_zes" d="M32,7C18.193,7,7,18.193,7,32h50C57,18.193,45.807,7,32,7z"/>
		<path class="fandom_vijf" d="M32,57c13.807,0,25-11.193,25-25H7C7,45.807,18.193,57,32,57z"/>
	</g>
	<g>
		<path class="fandom_zestien" d="M40.751,39.983l-1.126-4.692C39.167,33.75,37.983,30.394,34.25,29
			c-3.125-1.167-7.333,1.083-9.917,1.208c-0.933,0.045-1.746-0.025-2.411-0.132c1.238-1.619,1.296-3.825,0.731-6.649
			c0,0,0.062-6.479-0.769-7.311c-0.708-0.708-4.728,3.311-4.728,3.311s-2.665-0.375-5.206,0.792c0,0-2.291-1.375-5.581-1.083
			c-1.541,0.417,2.249,7.042,2.249,7.042s0.434,6.195,5.215,6.807c-0.665,4.87,1.217,8.889,2.36,10.806
			c0.508,0.852,0.679,1.853,0.484,2.826l-1.438,7.189C15.115,54.423,15.589,55,16.22,55h0.96c0.477,0,0.887-0.336,0.981-0.804
			l1.663-8.313C19.926,45.37,20.377,45,20.901,45C21.508,45,22,45.492,22,46.099V54c0,0.552,0.448,1,1,1h1.064
			c0.526,0,0.963-0.408,0.998-0.933l0.558-8.369c0.034-0.516,0.455-0.917,0.972-0.928c0.531-0.012,1.082-0.065,1.644-0.163
			c0.327-0.058,0.645-0.129,0.953-0.212c0.729-0.197,1.404,0.439,1.24,1.176l-1.158,5.213C29.132,51.408,29.607,52,30.247,52h0.951
			c0.469,0,0.875-0.326,0.976-0.783l1.687-7.591c0.092-0.412,0.417-0.738,0.827-0.838c1.908-0.466,2.799,0.404,3.138,0.901
			C37.945,43.863,38,44.071,38,44.282V51c0,0.552,0.448,1,1,1h1.033c0.54,0,0.95-0.423,0.967-0.962v-7.894
			C41.01,42.08,40.917,40.667,40.751,39.983z"/>
		<path class="fandom_vier" d="M14.786,22.406c-0.873,0.102-1.673-0.38-2.031-1.132c-0.045,0.209-0.065,0.426-0.039,0.65
			c0.128,1.097,1.121,1.883,2.218,1.755s1.883-1.121,1.755-2.218c-0.026-0.224-0.096-0.43-0.188-0.623
			C16.326,21.651,15.659,22.304,14.786,22.406z"/>
		<path class="fandom_vijftien" d="M52.417,29.375c-4.764,0.268-12.371-3.237-14.515,2.353c-0.4-0.529-0.886-1.043-1.474-1.505
			c1.038-1.945,2.839-3.433,5.098-3.761c3.436-0.499,6.797,0.94,10.209,0.923c1.832-0.009,3.388-0.665,4.387-2.273
			c0.744-1.197,1.269-3.175,0.229-4.371c-0.841-0.968,0.568-2.387,1.414-1.414C61.18,23.255,56.891,29.124,52.417,29.375z
			 M16.193,43.789c0.508,0.852,0.679,1.853,0.484,2.826l-1.438,7.189C15.115,54.423,15.589,55,16.22,55h0.96
			c0.477,0,0.887-0.336,0.981-0.804l1.663-8.313C19.926,45.37,20.377,45,20.901,45C21.508,45,22,45.492,22,46.099V54
			c0,0.552,0.448,1,1,1h1.064c0.526,0,0.963-0.408,0.998-0.933l0.558-8.369c0.034-0.516,0.455-0.917,0.972-0.928
			c0.345-0.008,0.7-0.039,1.059-0.083c-7.596-1.481-11.318-13.061-11.318-13.061c-3.875-1.542-4.5-8.042-4.5-8.042
			c-0.498-1.299-3.686-2.687-5.779-3.476c0.188,1.57,1.767,4.571,2.364,5.661c0.005,0.008,0.01,0.018,0.014,0.026
			c0.04,0.072,0.074,0.135,0.104,0.188c0.012,0.021,0.024,0.042,0.033,0.06c0.016,0.029,0.033,0.06,0.044,0.079
			c0.016,0.028,0.032,0.056,0.032,0.056s0.431,6.172,5.187,6.805C13.167,37.853,15.049,41.873,16.193,43.789z M29.189,44.394
			c0.729-0.197,1.404,0.439,1.24,1.176l-1.158,5.213C29.132,51.408,29.607,52,30.247,52h0.951c0.469,0,0.875-0.326,0.976-0.783
			l1.687-7.591c0.092-0.412,0.417-0.738,0.827-0.838C34.688,42.788,29.156,44.403,29.189,44.394z"/>
	</g>
</g>
</svg>