<?xml version="1.0" encoding="utf-8"?>
<!-- Generator: Adobe Illustrator 19.1.0, SVG Export Plug-In . SVG Version: 6.00 Build 0)  -->
<!DOCTYPE svg PUBLIC "-//W3C//DTD SVG 1.1//EN" "http://www.w3.org/Graphics/SVG/1.1/DTD/svg11.dtd">
<svg version="1.1" id="DESIGNS" xmlns="http://www.w3.org/2000/svg" xmlns:xlink="http://www.w3.org/1999/xlink" x="0px" y="0px"
	 width="64px" height="64px" viewBox="0 0 64 64" style="enable-background:new 0 0 64 64;" xml:space="preserve">
<style type="text/css">
	.fandom_vijf{fill:#018273;}
	.fandom_zes{fill:#00B3AA;}
	.fandom_dertien{fill:#AA9991;}
	.fandom_veertien{fill:#EFEAE0;}
	.fandom_vijftien{fill:#3A3A3A;}
	.fandom_zestien{fill:#4D4D4D;}
	.st0{fill:#FF786E;}
	.st1{fill:#BE5652;}
	.st2{fill:#FFFAFA;}
	.st3{fill:#644638;}
	.st4{fill:#6BC4D2;}
	.st5{fill:#508D9B;}
	.st6{fill:#4B322A;}
	.st7{fill:#FFC865;}
	.st8{fill:#BE9148;}
	.st9{fill:#8579A3;}
	.st10{fill:#685683;}
	.st11{fill:#808080;}
	.st12{fill:#CCCCCC;}
	.st13{fill:#666666;}
</style>
<g>
	<g>
		<path class="fandom_zes" d="M32,7C18.193,7,7,18.193,7,32h50C57,18.193,45.807,7,32,7z"/>
		<path class="fandom_vijf" d="M32,57c13.807,0,25-11.193,25-25H7C7,45.807,18.193,57,32,57z"/>
	</g>
	<g>
		<path class="fandom_veertien" d="M46.858,22.779c-0.911-4.259-4.467-5.763-5.685-6.482c-1.953-1.154-1.593-2.23-2.645-3.061
			c0.072-1.102,0.258-3.66-1.024-4.227c-0.719-0.318-2.955,3.271-3.754,4.129c-1.841-0.253-6.127,0.405-6.155,0.397
			c-1.795-0.513-4.741-2.407-4.534-0.966c0.082,0.572,1.465,2.852,1.776,3.53c-0.833,0.969-1.291,2.047-1.442,3.128
			c-5.074-1.361-2.531-1.448-13.739-2.726c-1.57-0.179-3.654-0.305-4.205,1.582c-0.053,0.18-0.216,1.355-0.066,1.317
			c3.054,1.226,5.929,0.795,8.114,1.021c2.147,0.222,2.906,1.304,9.94,4.205c2.525,1.041,4.936,1.213,4.936,1.213
			c1.728-0.381,10.739-1.977,12.602,5.745c1.744,7.23,0.654,27.592,0.361,27.876c0.999-0.346,1.986-0.741,2.95-1.206
			c0.932-0.449,1.867-0.904,1.967-2.062C47.2,45.135,47.337,25.019,46.858,22.779z"/>
		<path class="fandom_dertien" d="M40.975,31.583c1.753,7.264,0.644,27.788,0.357,27.886c-1,0.274-4.823,1.798-10.663,1.491
			c-1.612-0.085-4.648,0.021-4.622-2.305c-0.346-1.798,0.015-3.872,0.171-5.672c0.395-4.565,1.35-12.26,2.159-16.533
			c0.523-2.76,0.685-5.694-0.028-8.442c-2.827-1.161-4.043-0.421-8.952-2.733c-0.787-0.358-4.622-2.726-4.7-2.756
			c-1.586-0.607-4.537,0.452-7.06-0.474c-1.105-0.405-2.058-1.326-2.252-2.647c3.054,1.226,5.929,0.795,8.114,1.021
			c2.147,0.222,2.906,1.304,9.94,4.205c2.525,1.041,4.936,1.213,4.936,1.213C30.101,25.457,39.112,23.862,40.975,31.583z
			 M45.661,22.096C43.208,19.667,34,11.417,31.617,15.366c-1.523,2.525,2.267,4.353,4.05,5.139c2.996,1.321,4.194,4.614,7.453,5.58
			C44.896,26.611,48.121,24.532,45.661,22.096z"/>
		<path class="fandom_vijftien" d="M7,32c0-1.249,0.095-2.475,0.271-3.675C7.454,28.128,7.71,28,8,28h8c0.552,0,1,0.448,1,1v23
			C10.928,47.439,7,40.179,7,32z M23,35h-1c-0.552,0-1,0.448-1,1v1h-1c-0.552,0-1,0.448-1,1v15.357c1.264,0.771,2.602,1.432,4,1.972
			V35z"/>
		<path class="fandom_zestien" d="M16,28c0.552,0,1,0.448,1,1v22.999c-1.894-1.423-3.578-3.11-5-5.005V28H16z M25,36
			c0-0.552-0.448-1-1-1h-1v20.33c0.977,0.377,1.885,0.695,2.918,0.949c0.066-1.256,0.245-2.663,0.299-3.295
			c0.461-5.33,1.429-12.534,2.057-15.984H25V36z"/>
	</g>
</g>
</svg>