<?xml version="1.0" encoding="utf-8"?>
<!-- Generator: Adobe Illustrator 19.1.0, SVG Export Plug-In . SVG Version: 6.00 Build 0)  -->
<!DOCTYPE svg PUBLIC "-//W3C//DTD SVG 1.1//EN" "http://www.w3.org/Graphics/SVG/1.1/DTD/svg11.dtd">
<svg version="1.1" id="DESIGNS" xmlns="http://www.w3.org/2000/svg" xmlns:xlink="http://www.w3.org/1999/xlink" x="0px" y="0px"
	 width="64px" height="64px" viewBox="0 0 64 64" style="enable-background:new 0 0 64 64;" xml:space="preserve">
<style type="text/css">
	.fandom_zeven{fill:#508D9B;}
	.fandom_acht{fill:#6BC4D2;}
	.fandom_negen{fill:#685683;}
	.fandom_tien{fill:#8579A3;}
	.fandom_zeventien{fill:#666666;}
	.fandom_achttien{fill:#808080;}
	.fandom_negentien{fill:#CCCCCC;}
	.st0{fill:#FF786E;}
	.st1{fill:#FFC865;}
	.st2{fill:#00B3AA;}
	.st3{fill:#BE5652;}
	.st4{fill:#BE9148;}
	.st5{fill:#018273;}
	.st6{fill:#EFEAE0;}
	.st7{fill:#AA9991;}
	.st8{fill:#3A3A3A;}
	.st9{fill:#4D4D4D;}
	.st10{fill:#644638;}
	.st11{fill:#4B322A;}
	.st12{fill:#FFFAFA;}
</style>
<g>
	<g>
		<path class="fandom_tien" d="M32,7C18.193,7,7,18.193,7,32h50C57,18.193,45.807,7,32,7z"/>
		<path class="fandom_negen" d="M32,57c13.807,0,25-11.193,25-25H7C7,45.807,18.193,57,32,57z"/>
	</g>
	<g>
		<path class="fandom_negentien" d="M62.824,5.782L52.813,16.786l7.268-5.615l-1.347,3.055l-6.59,6.832l-0.537,2.679l-7.181,6.105
			l4.333-1.72l-0.192,1.104l-12.54,6.63c0.836,2.563,0.182,5.23-1.273,7.207l6.654,3.249l-2.543,0.885l-4.784-1.94l3.415,3.288
			l-3.44-0.209l-2.615-1.38l-0.248-1.115c-2.412,0.978-5.19,0.768-7.441-0.622L9.685,59.06l-3.622,0.565L22.09,43.864
			c-1.935-2.043-2.598-4.292-2.048-6.864h11.686L63.192,2.537L62.824,5.782z M24.251,32.739l2.464,0.844l-4.901-15.277l-1.173,2.461
			l1.902,9.24l-3.159-2.384L19.09,29.32c0,0,3.747,5.137,4.074,5.469L24.251,32.739z"/>
		<polygon class="fandom_zeventien" points="28.011,29.903 28.466,19.593 29.974,22.435 31.523,16.585 32.745,21.612 35.436,16.195 
			34.462,23.569 38.685,15.42 38.696,19.216 48.767,9.653 48.277,12.211 54.099,6.482 54.041,9.481 29.847,33.807 		"/>
		<path class="fandom_achttien" d="M50.179,31.349l-5.017,2.694l2.807-0.267l1.58,1.607l-5.095,1.155l1.628,0.624l-0.759,0.945
			l-8.935-0.298c-0.021-0.424-0.078-0.851-0.173-1.276l12.168-6.042L50.179,31.349z M35.598,41.652l8.056,1.327l4.804-2.221
			l-12.179-1.233C36.149,40.266,35.916,40.982,35.598,41.652z M28.058,46.443l0.633,2.758l2.719,0.753l-1.467-3.721
			C29.323,46.376,28.69,46.446,28.058,46.443z M20.042,37c0.066,0.001-3.05-0.707-3.05-0.707l-0.781,1.074l2.308,0.945l-4.329,0.737
			l-1.174,1.92l7.033-0.655C19.793,39.269,19.792,38.168,20.042,37z M20.872,42.283L6.881,56.05l-0.818,3.575L22.09,43.864
			C21.604,43.35,21.198,42.824,20.872,42.283z"/>
		<circle class="fandom_acht" cx="28" cy="38" r="4"/>
		<path class="fandom_zeven" d="M26.179,34.437C24.886,35.1,24,36.447,24,38c0,2.209,1.791,4,4,4c1.56,0,2.911-0.893,3.571-2.195
			C28.148,41.557,24.436,37.879,26.179,34.437z"/>
	</g>
</g>
</svg>