<?xml version="1.0" encoding="utf-8"?>
<!-- Generator: Adobe Illustrator 19.1.0, SVG Export Plug-In . SVG Version: 6.00 Build 0)  -->
<!DOCTYPE svg PUBLIC "-//W3C//DTD SVG 1.1//EN" "http://www.w3.org/Graphics/SVG/1.1/DTD/svg11.dtd">
<svg version="1.1" id="DESIGNS" xmlns="http://www.w3.org/2000/svg" xmlns:xlink="http://www.w3.org/1999/xlink" x="0px" y="0px"
	 width="64px" height="64px" viewBox="0 0 64 64" style="enable-background:new 0 0 64 64;" xml:space="preserve">
<style type="text/css">
	.fandom_een{fill:#FF786E;}
	.fandom_drie{fill:#BE9148;}
	.fandom_vier{fill:#FFC865;}
	.fandom_zes{fill:#00B3AA;}
	.fandom_zeven{fill:#508D9B;}
	.fandom_acht{fill:#6BC4D2;}
	.fandom_negen{fill:#685683;}
	.fandom_tien{fill:#8579A3;}
	.fandom_veertien{fill:#EFEAE0;}
	.fandom_negentien{fill:#CCCCCC;}
	.st0{fill:#4B322A;}
	.st1{fill:#BE5652;}
	.st2{fill:#644638;}
	.st3{fill:#4D4D4D;}
	.st4{fill:#3A3A3A;}
	.st5{fill:#AA9991;}
	.st6{fill:#018273;}
	.st7{fill:#808080;}
	.st8{fill:#666666;}
	.st9{fill:#FFFAFA;}
</style>
<g>
	<g>
		<path class="fandom_tien" d="M32,7C18.193,7,7,18.193,7,32h50C57,18.193,45.807,7,32,7z"/>
		<path class="fandom_negen" d="M32,57c13.807,0,25-11.193,25-25H7C7,45.807,18.193,57,32,57z"/>
	</g>
	<g>
		<path class="fandom_zeven" d="M23.845,19.431l-0.111-2.02c-5.486-0.381-10.805,1.867-14.355,5.918l-1.698-0.645
			c-1.997-0.757-4.401,0.321-5.16,2.319l-2.258,5.945c-0.38,0.999-0.348,2.086,0.09,3.06c0.438,0.975,1.229,1.721,2.228,2.099
			c0.083,0.031,2.509,0.954,2.591,0.983c0.214,1.671,0.675,3.34,1.401,4.957c1.905,4.24,5.29,7.35,9.271,8.997
			c-0.166,0.497-1.268,3.906-1.035,5.866c0.078,0.66,0.796,1.041,1.403,0.768l7.23-3.249c0.195-0.088,0.358-0.236,0.462-0.423
			l0.949-1.782c0.263-0.035,0.525-0.077,0.788-0.125l-0.111-2.016c-6.914,1.362-14.122-2.16-17.132-8.857
			C3.546,30.43,12.171,18.422,23.845,19.431z M5.032,34.898l-1.74-0.661c-0.5-0.19-0.895-0.562-1.114-1.05
			c-0.219-0.487-0.235-1.03-0.045-1.53l2.258-5.945c0.19-0.499,0.563-0.894,1.05-1.113c0.488-0.219,1.031-0.235,1.531-0.046
			l1.126,0.428C6.111,27.887,5.029,31.35,5.032,34.898z"/>
		<path class="fandom_veertien" d="M22.657,50.373c8.546-0.067,15.445-7.074,15.379-15.62s-7.074-15.445-15.62-15.379
			C13.869,19.44,6.97,26.448,7.036,34.994C7.103,43.54,14.11,50.439,22.657,50.373z"/>
		<path class="fandom_acht" d="M43.787,45.286l-7.229,3.249c-0.196,0.088-0.414,0.11-0.623,0.065l-1.963-0.473
			c-2.334,2.012-5.186,3.396-8.331,3.965l-0.11-2.008c9.813-1.932,15.209-12.518,11.144-21.563
			c-2.385-5.307-7.407-8.62-12.829-9.089l-0.111-2.02c6.23,0.433,12.026,4.194,14.765,10.289c1.905,4.24,1.984,8.836,0.572,12.906
			c0.482,0.206,3.763,1.646,5.074,3.121C44.586,44.224,44.394,45.013,43.787,45.286z M29.567,34.979
			c-0.059,3.877-3.26,6.984-7.138,6.925c-3.877-0.059-6.984-3.26-6.925-7.138c0.059-3.877,3.26-6.984,7.138-6.925
			C26.519,27.9,29.626,31.102,29.567,34.979z M25.289,32.668c-0.95-0.361-3.344-0.583-3.459-0.531
			c-0.116,0.052-0.208-1.134-0.208-1.134c-4.317,0.858-4.942,2.849-2.371,6.241c0,0,0.857-0.825,0.909-0.71
			c0.052,0.116,1.989,1.539,2.939,1.9C26.931,39.89,29.152,34.136,25.289,32.668z"/>
		<path class="fandom_een" d="M28.25,22.649c2.549,1.189,4.739,3.172,6.157,5.793l-4.092,1.839c-0.89-1.513-2.173-2.685-3.656-3.444
			L28.25,22.649z M13.938,37.641c-0.54-1.67-0.565-3.407-0.148-5.021l-4.188-1.591c-0.803,2.695-0.775,5.65,0.244,8.45
			L13.938,37.641z"/>
		<path class="fandom_zes" d="M24.789,26.127c-1.613-0.416-3.35-0.392-5.02,0.148l-1.839-4.092c2.8-1.019,5.755-1.047,8.45-0.244
			L24.789,26.127z M18.692,47.807c2.695,0.803,5.65,0.775,8.45-0.244l-1.839-4.092c-1.67,0.54-3.407,0.565-5.02,0.148L18.692,47.807
			z"/>
		<path class="fandom_negentien" d="M34.76,40.587c-1.189,2.549-3.172,4.739-5.794,6.157l-1.839-4.092
			c1.513-0.89,2.685-2.173,3.444-3.656L34.76,40.587z M14.5,30.75c0.76-1.483,1.932-2.765,3.444-3.656l-1.839-4.092
			c-2.621,1.417-4.604,3.608-5.794,6.157L14.5,30.75z"/>
		<path class="fandom_vier" d="M35.226,30.267c1.019,2.8,1.047,5.755,0.244,8.45l-4.188-1.591c0.417-1.613,0.392-3.35-0.148-5.02
			L35.226,30.267z M14.758,39.465l-4.092,1.839c1.417,2.621,3.608,4.604,6.157,5.793l1.591-4.188
			C16.93,42.15,15.648,40.977,14.758,39.465z M32.407,20.42l0.349-3.324c2.026-1.285,1.239-4.434-1.169-4.604l-0.699,7.002
			C31.409,19.777,31.916,20.086,32.407,20.42z"/>
		<path class="fandom_drie" d="M29.763,16.863l-0.208,1.98c0.453,0.198,0.898,0.415,1.333,0.651l0.699-7.002
			C29.226,12.326,27.966,15.283,29.763,16.863z"/>
	</g>
</g>
</svg>