<?xml version="1.0" encoding="utf-8"?>
<!-- Generator: Adobe Illustrator 19.1.0, SVG Export Plug-In . SVG Version: 6.00 Build 0)  -->
<!DOCTYPE svg PUBLIC "-//W3C//DTD SVG 1.1//EN" "http://www.w3.org/Graphics/SVG/1.1/DTD/svg11.dtd">
<svg version="1.1" id="DESIGNS" xmlns="http://www.w3.org/2000/svg" xmlns:xlink="http://www.w3.org/1999/xlink" x="0px" y="0px"
	 width="64px" height="64px" viewBox="0 0 64 64" style="enable-background:new 0 0 64 64;" xml:space="preserve">
<style type="text/css">
	.fandom_drie{fill:#BE9148;}
	.fandom_vier{fill:#FFC865;}
	.fandom_elf{fill:#4B322A;}
	.fandom_twaalf{fill:#644638;}
	.fandom_dertien{fill:#AA9991;}
	.st0{fill:#FF786E;}
	.st1{fill:#BE5652;}
	.st2{fill:#EFEAE0;}
	.st3{fill:#FFFAFA;}
	.st4{fill:#6BC4D2;}
	.st5{fill:#508D9B;}
	.st6{fill:#8579A3;}
	.st7{fill:#685683;}
	.st8{fill:#4D4D4D;}
	.st9{fill:#3A3A3A;}
	.st10{fill:#808080;}
	.st11{fill:#CCCCCC;}
	.st12{fill:#666666;}
	.st13{fill:#018273;}
	.st14{fill:#00B3AA;}
</style>
<g>
	<g>
		<path class="fandom_vier" d="M32,7C18.193,7,7,18.193,7,32h50C57,18.193,45.807,7,32,7z"/>
		<path class="fandom_drie" d="M32,57c13.807,0,25-11.193,25-25H7C7,45.807,18.193,57,32,57z"/>
	</g>
	<g>
		<path class="fandom_twaalf" d="M51.86,8.35c-1.464-1.517-3.559-1.561-3.559-1.561C42.227,5.608,46.48,8.5,35.562,6.162
			c-0.817-0.175-2.35-0.435-2.905,0.608c-1.126,2.117-2.351,7.873-2.792,10.069c-4.433,0.028-8.214,0.315-10.706,4.949
			c-4.639,8.631,4.202,13.09,4.202,13.09c6.182,3.799,16.234,2.13,24.037-1.341c6.693-2.978,16.465-13.315,16.465-13.315
			c0.337-0.335-0.001-1.015-0.486-0.836c-1.252,0.463-2.918,1.07-4.567,1.333c0,0-2.9,0.277-4.189-0.551
			c0.001,0.192-0.121-1.329-0.322-2.428C54.3,17.741,52.935,9.463,51.86,8.35z M23.866,60.081L11.98,49.371
			c-0.41-0.37-0.443-1.002-0.074-1.412l1.339-1.486c0.37-0.41,1.002-0.443,1.412-0.074l11.886,10.71
			c0.41,0.37,0.443,1.002,0.074,1.412l-1.339,1.486C24.909,60.418,24.277,60.451,23.866,60.081z"/>
		<path class="fandom_dertien" d="M23.866,60.081L11.98,49.371c-0.41-0.37-0.443-1.002-0.074-1.412l0.669-0.743l13.372,12.049
			l-0.669,0.743C24.909,60.418,24.277,60.451,23.866,60.081z M51.879,8.35c-0.912-1.012-2.242-1.497-3.578-1.581
			c-0.244-0.015-0.468-0.024-0.673-0.027c-1.709,0.222-2.418,2.703-5.837,3.149c-2.332,0.304-5.633-0.926-6.75-0.208
			c-1.75,1.125,0.185,4.047,0.167,5.042c-0.035,1.934-1.404,3.537-3.093,4.898c5.035,1.597,16.628,1.534,22.197-1.882
			C54.312,17.741,52.915,9.499,51.879,8.35z M63.378,19.387c-1.252,0.463-2.918,1.07-4.567,1.333
			C48.445,31.509,36.489,35.604,23.362,34.879c6.182,3.799,16.234,2.13,24.037-1.341c6.693-2.978,16.465-13.315,16.465-13.315
			C64.201,19.887,63.863,19.207,63.378,19.387z"/>
		<path class="fandom_elf" d="M8.068,35.33c0.058,3.319,2.711,7.723,5.607,10.862c-0.16,0.053-0.309,0.146-0.43,0.28l-1.339,1.486
			c-0.072,0.079-0.128,0.167-0.169,0.26c-3.246-3.483-6.395-8.606-6.469-12.839c-0.095-5.387,2.692-10.124,7.454-12.67
			c2.234-1.194,4.646-1.788,6.958-1.794c-0.179,0.273-0.353,0.562-0.521,0.873c-0.38,0.707-0.662,1.384-0.873,2.035
			c-1.477,0.19-2.941,0.658-4.244,1.355C10.168,27.25,7.991,30.95,8.068,35.33z M44.466,46.029c-1.152,1.917-4.13,3.266-6.779,3.062
			c-1.382-0.105-3.211-0.677-4.083-2.802c-0.798-1.945,0.33-4.435,0.701-6.906c0.129-0.859,0.211-1.668,0.247-2.435
			c-0.95,0.077-1.89,0.11-2.81,0.091c-0.039,0.657-0.112,1.307-0.206,1.928c-0.364,2.415-1.731,5.438-0.523,8.385
			c1.086,2.649,3.441,4.301,6.461,4.531c3.912,0.287,7.758-1.692,9.392-4.412C47.817,45.887,45.425,44.433,44.466,46.029z
			 M27.442,36.512c-1.203,3.787-4.203,5.387-6.664,5.579c-2.528,0.209-5.903-1.029-7.12-5.133c-0.744-2.507-0.442-4.673,0.872-6.265
			c0.829-1.004,2.048-1.745,3.512-2.204c-0.214-0.872-0.291-1.832-0.163-2.879c-2.145,0.535-4.086,1.577-5.509,3.301
			c-1.907,2.31-2.403,5.45-1.397,8.844c1.371,4.623,5.401,7.469,10.021,7.128c4.149-0.323,7.822-3.139,9.219-7.926
			C29.258,36.873,28.332,36.724,27.442,36.512z M54.312,17.741c-7.354,4.511-25.209,3.174-24.604-0.108
			c-0.378,2.054-1.104,4.654-0.876,5.904c0.171,0.939,1.243,1.401,2.171,1.677c7.279,2.164,17.074,2.146,23.215-2.974
			C54.86,20.685,54.615,19.394,54.312,17.741z"/>
	</g>
</g>
</svg>