<?xml version="1.0" encoding="utf-8"?>
<!-- Generator: Adobe Illustrator 19.1.0, SVG Export Plug-In . SVG Version: 6.00 Build 0)  -->
<!DOCTYPE svg PUBLIC "-//W3C//DTD SVG 1.1//EN" "http://www.w3.org/Graphics/SVG/1.1/DTD/svg11.dtd">
<svg version="1.1" id="DESIGNS" xmlns="http://www.w3.org/2000/svg" xmlns:xlink="http://www.w3.org/1999/xlink" x="0px" y="0px"
	 width="64px" height="64px" viewBox="0 0 64 64" style="enable-background:new 0 0 64 64;" xml:space="preserve">
<style type="text/css">
	.fandom_een{fill:#FF786E;}
	.fandom_drie{fill:#BE9148;}
	.fandom_vier{fill:#FFC865;}
	.fandom_negen{fill:#685683;}
	.fandom_tien{fill:#8579A3;}
	.fandom_elf{fill:#4B322A;}
	.fandom_twaalf{fill:#644638;}
	.fandom_veertien{fill:#EFEAE0;}
	.fandom_vijftien{fill:#3A3A3A;}
	.st0{fill:#6BC4D2;}
	.st1{fill:#508D9B;}
	.st2{fill:#00B3AA;}
	.st3{fill:#BE5652;}
	.st4{fill:#018273;}
	.st5{fill:#AA9991;}
	.st6{fill:#666666;}
	.st7{fill:#4D4D4D;}
	.st8{fill:#CCCCCC;}
	.st9{fill:#808080;}
	.st10{fill:#FFFAFA;}
</style>
<g>
	<g>
		<path class="fandom_vier" d="M32,7C18.193,7,7,18.193,7,32h50C57,18.193,45.807,7,32,7z"/>
		<path class="fandom_drie" d="M32,57c13.807,0,25-11.193,25-25H7C7,45.807,18.193,57,32,57z"/>
	</g>
	<g>
		<path class="fandom_negen" d="M20.386,42.543c-5.725-6.175-4.194-11.337-2.012-14.506l-7.688-5.845
			c0.954,0.825,0.842,2.8-0.3,4.557c-1.203,1.853-3.094,2.76-4.223,2.027l7.143,5.676L2.26,43.436l8.955,8.955l9.496-9.496
			c0,0,0-0.001,0-0.002C20.542,42.724,20.378,42.551,20.386,42.543z"/>
		<path class="fandom_tien" d="M41.414,52.919l-5.845-7.688c-3.17,2.181-8.331,3.712-14.506-2.012
			c-0.008,0.008-0.181-0.156-0.349-0.325c-0.001,0-0.001,0-0.002,0l-9.496,9.496l8.955,8.955l8.985-11.047l5.676,7.143
			c-0.733-1.129,0.174-3.02,2.027-4.223C38.614,52.078,40.589,51.965,41.414,52.919z"/>
		<path class="fandom_elf" d="M29.187,33.891c-3.183-3.183-5.948-6.28-8.003-8.893c-1.977,1.606-9.197,8.484-0.798,17.545
			c-0.016,0.016,0.66,0.692,0.676,0.676c9.175,8.505,16.112,0.994,17.603-0.87C35.936,40.256,32.612,37.315,29.187,33.891z"/>
		<path class="fandom_twaalf" d="M38.665,42.349c-2.659-2.039-5.883-4.883-9.214-8.195l-8.739,8.739
			c0.169,0.169,0.342,0.334,0.35,0.326C30.237,51.725,37.174,44.214,38.665,42.349z"/>
		<path class="fandom_een" d="M59.149,17.184L46.421,4.456c-0.781-0.781-2.047-0.781-2.828,0L25.507,22.542
			c2.536,2.023,5.499,4.683,8.54,7.724c2.734,2.734,5.159,5.404,7.091,7.758l18.011-18.011C59.93,19.231,59.93,17.965,59.149,17.184
			z"/>
		<path class="fandom_veertien" d="M10.386,26.748c-1.203,1.853-3.094,2.76-4.223,2.027c-1.129-0.733-1.068-2.83,0.135-4.682
			s3.094-2.76,4.223-2.027C11.65,22.8,11.59,24.896,10.386,26.748z M36.857,53.219c-1.853,1.203-2.76,3.094-2.027,4.223
			c0.733,1.129,2.83,1.068,4.682-0.135c1.853-1.203,2.76-3.094,2.027-4.223C40.806,51.955,38.709,52.015,36.857,53.219z
			 M38.483,42.209c-1.444,0.834-5.995,3.082-8.864,0.213c-1.257-1.257-2.125-2.386-2.721-3.313
			c-0.628-0.978-1.448-1.798-2.426-2.426c-0.927-0.596-2.056-1.464-3.313-2.721c-2.818-2.818-0.7-7.258,0.167-8.784
			c2.04,2.574,4.751,5.603,7.862,8.714C32.536,37.239,35.789,40.125,38.483,42.209z M27.05,33.772l-3.064-1.415
			c-1.208-0.558-2.036,1.262-0.838,1.816l3.064,1.415C27.421,36.146,28.246,34.321,27.05,33.772z M31.1,39.864l-1.167-3.167
			c-0.463-1.248-2.333-0.545-1.877,0.692l1.167,3.167C29.675,41.78,31.565,41.125,31.1,39.864z M57.028,22.134L41.472,6.577
			l-3.536,3.536l15.556,15.556L57.028,22.134z M50.664,28.498L35.108,12.941l-3.536,3.536l15.556,15.556L50.664,28.498z
			 M33.43,29.648c3.005,3.005,5.627,5.926,7.641,8.442l3.229-3.229L28.744,19.305l-3.173,3.173
			C27.951,24.424,30.656,26.874,33.43,29.648z"/>
		
			<ellipse transform="matrix(0.7071 0.7071 -0.7071 0.7071 31.6347 -12.8333)" class="fandom_vijftien" cx="31.309" cy="31.77" rx="19.5" ry="3"/>
	</g>
</g>
</svg>