<?xml version="1.0" encoding="utf-8"?>
<!-- Generator: Adobe Illustrator 19.1.0, SVG Export Plug-In . SVG Version: 6.00 Build 0)  -->
<!DOCTYPE svg PUBLIC "-//W3C//DTD SVG 1.1//EN" "http://www.w3.org/Graphics/SVG/1.1/DTD/svg11.dtd">
<svg version="1.1" id="DESIGNS" xmlns="http://www.w3.org/2000/svg" xmlns:xlink="http://www.w3.org/1999/xlink" x="0px" y="0px"
	 width="64px" height="64px" viewBox="0 0 64 64" style="enable-background:new 0 0 64 64;" xml:space="preserve">
<style type="text/css">
	.fandom_een{fill:#FF786E;}
	.fandom_twee{fill:#BE5652;}
	.fandom_twaalf{fill:#644638;}
	.fandom_dertien{fill:#AA9991;}
	.fandom_veertien{fill:#EFEAE0;}
	.fandom_vijftien{fill:#3A3A3A;}
	.st0{fill:#6BC4D2;}
	.st1{fill:#508D9B;}
	.st2{fill:#4B322A;}
	.st3{fill:#8579A3;}
	.st4{fill:#685683;}
	.st5{fill:#4D4D4D;}
	.st6{fill:#CCCCCC;}
	.st7{fill:#00B3AA;}
	.st8{fill:#018273;}
	.st9{fill:#FFC865;}
	.st10{fill:#BE9148;}
	.st11{fill:#808080;}
	.st12{fill:#666666;}
	.st13{fill:#FFFAFA;}
</style>
<g>
	<g>
		<path class="fandom_twee" d="M32,57c13.807,0,25-11.193,25-25H7C7,45.807,18.193,57,32,57z"/>
		<path class="fandom_een" d="M32,7C18.193,7,7,18.193,7,32h50C57,18.193,45.807,7,32,7z"/>
	</g>
	<g>
		<path class="fandom_dertien" d="M30.521,12.767c0,0-3.683,1.444-9.958,7.719c-2.026,2.026-4.292,4.608-4.674,5.225
			c-0.465-0.44-1.1-1.233-1.497-2.737c-0.817-3.361-5.545-10.195-7.648-13.12c0.428-0.579,0.962-1.084,1.532-1.654
			c1.514-1.514,3.203-2.512,4.319-3.07c0.69-0.345,1.507-0.262,2.11,0.219c1.589,1.267,5.553,3.822,13.342,5.609
			c0.553,0.127,1.067,0.403,1.469,0.804L30.521,12.767z M47.027,57.113c0.644,0.644,3.2-0.869,5.713-3.381
			c2.504-2.504,4.017-5.061,3.373-5.705c-0.644-0.644-3.2,0.869-5.705,3.373C47.896,53.912,46.383,56.469,47.027,57.113z
			 M48.957,48.477c-0.555-0.03-0.852-0.315-1.059-0.483c0.09,0.685-0.265,1.514-3.222,0.032c-2.354-1.18-11.25-14.451-13.812-17.138
			c-1.691-1.773-5.109-4.65-7.249-6.41c-0.741,0.782-1.479,1.613-2.194,2.457c0.787,0.647,1.576,1.293,2.336,1.973
			c1.878,1.679,4.069,3.387,5.431,5.54c0.899,1.421,1.962,3.053,3.27,4.177c1.814,1.559,3.379,2.976,5.196,4.543
			c0.899,0.775,1.724,1.68,2.258,2.749c0.275,0.552,0.716,1.856,0.555,2.643c0.196,0.188,1.09,1.006,1.929,1.139
			c0.155,0.025,4.227,0.947,6.617,0.423c0.442-0.097,0.929-0.527,0.854-1.036C49.8,48.634,49.102,48.485,48.957,48.477z"/>
		<path class="fandom_twaalf" d="M5.08,12.546c0.32-0.746,0.846-1.737,1.664-2.693c2.074,2.881,6.824,9.729,7.648,13.12
			c0.251,1.032,0.745,1.986,1.496,2.737c-1.4,1.885-3.044,4.734-3.044,4.734l-1.006-1.006c-0.402-0.402-0.677-0.915-0.804-1.469
			c-1.819-7.925-4.432-11.891-5.675-13.423C4.903,13.984,4.794,13.212,5.08,12.546z M52.739,53.731
			c-2.512,2.512-5.069,4.025-5.713,3.381l1.739,1.739c0.644,0.644,3.2-0.869,5.713-3.381c2.504-2.504,4.017-5.061,3.373-5.705
			l-1.739-1.739C56.756,48.67,55.244,51.227,52.739,53.731z"/>
		<path class="fandom_veertien" d="M47.898,47.995c-0.085-0.069-0.16-0.144-0.223-0.239c-1.438-2.156-3.592-3.732-5.268-5.664
			c-1.56-1.8-2.949-3.738-4.275-5.715c-0.646-0.963-1.221-2.01-1.922-2.933c-0.61-0.803-1.165-1.614-1.465-2.599
			c-0.187-0.613-0.266-1.253-0.436-1.871c-0.282-1.023-0.817-1.976-1.544-2.75c-1.15-1.224-2.531-2.058-3.499-3.463
			c-0.494-0.718-0.989-1.435-1.481-2.154c-1.157,0.961-2.339,2.007-3.406,3.074c-0.254,0.254-0.51,0.527-0.765,0.797
			c2.139,1.76,5.558,4.637,7.249,6.41c2.562,2.688,11.458,15.958,13.812,17.138C47.633,49.509,47.988,48.68,47.898,47.995z"/>
		<path class="fandom_vijftien" d="M54.777,48.754l-2.826,2.826c-0.922,0.962-4.73,0.922-4.73,0.922l1.422,1.422
			c0.195,0.195,0.195,0.512,0,0.707l-1.022,1.022c-0.199,0.199-0.54,0.204-0.718-0.014c-1.717-2.107-2.692-2.234-5.386-3.344
			c-2.425-1.044-1.052-3.739-1.052-3.739s1.093,1.011,1.932,1.144c0.155,0.025,4.227,0.947,6.617,0.423
			c0.443-0.097,0.929-0.527,0.854-1.036c-0.067-0.453-0.765-0.602-0.91-0.61c-0.036-0.002,3.846-0.444,4.749-0.794
			C54.431,47.402,55.458,48.089,54.777,48.754z M12.844,30.445l2.468,2.468c0.434,0.434,1.151,0.382,1.513-0.115
			c1.366-1.873,4.567-6.127,7.556-9.117c2.922-2.922,6.711-5.703,8.467-6.942c0.506-0.357,0.564-1.083,0.126-1.521l-2.452-2.452
			c0,0-3.683,1.444-9.958,7.719S12.844,30.445,12.844,30.445z"/>
	</g>
</g>
</svg>