<?xml version="1.0" encoding="utf-8"?>
<!-- Generator: Adobe Illustrator 19.1.0, SVG Export Plug-In . SVG Version: 6.00 Build 0)  -->
<!DOCTYPE svg PUBLIC "-//W3C//DTD SVG 1.1//EN" "http://www.w3.org/Graphics/SVG/1.1/DTD/svg11.dtd">
<svg version="1.1" id="DESIGNS" xmlns="http://www.w3.org/2000/svg" xmlns:xlink="http://www.w3.org/1999/xlink" x="0px" y="0px"
	 width="64px" height="64px" viewBox="0 0 64 64" style="enable-background:new 0 0 64 64;" xml:space="preserve">
<style type="text/css">
	.fandom_een{fill:#FF786E;}
	.fandom_twee{fill:#BE5652;}
	.fandom_vijftien{fill:#3A3A3A;}
	.fandom_zestien{fill:#4D4D4D;}
	.fandom_zeventien{fill:#666666;}
	.fandom_achttien{fill:#808080;}
	.st0{fill:#644638;}
	.st1{fill:#4B322A;}
	.st2{fill:#EFEAE0;}
	.st3{fill:#AA9991;}
	.st4{fill:#FFC865;}
	.st5{fill:#BE9148;}
	.st6{fill:#CCCCCC;}
	.st7{fill:#6BC4D2;}
	.st8{fill:#508D9B;}
	.st9{fill:#018273;}
	.st10{fill:#FFFAFA;}
	.st11{fill:#8579A3;}
	.st12{fill:#685683;}
	.st13{fill:#00B3AA;}
</style>
<g>
	<g>
		<path class="fandom_een" d="M32,7C18.193,7,7,18.193,7,32h50C57,18.193,45.807,7,32,7z"/>
		<path class="fandom_twee" d="M32,57c13.807,0,25-11.193,25-25H7C7,45.807,18.193,57,32,57z"/>
	</g>
	<g>
		<path class="fandom_vijftien" d="M55.67,43.964c-3.895-11.859-4.212-12.879-5.005-14.999c-0.52-1.39-0.213-2.931-0.188-4.412
			c0,0,2.962-17.408-16.133-19.273c0.081-0.032-3.44-0.195-3.689,0.009c-12.33,1.122-12.308,12.427-13.5,14.555
			c-1.298,1.515-3.466,4.174-3.466,4.174c-0.254,0.375-4.022,12.661-4.43,15.21c-0.087,0.544,0.237,1.065,0.762,1.231
			c0,0,8.073,2.734,8.096,2.741c0.229,0.556,0.825,0.699,0.596,0.608c0.043,0.025,8.084,4.666,8.109,4.622l7.1-2.601
			c8.296,0.457,20.847-0.342,20.444-0.438C55.208,45.586,55.94,44.786,55.67,43.964z M15.183,23.493
			c-0.002,0-0.004,0.001-0.007,0.002C15.178,23.494,15.181,23.493,15.183,23.493z"/>
		<path class="fandom_achttien" d="M28.01,26.464c0,0,7.872-2.223,8.798,3.797l-1.482,1.945
			C35.326,32.206,33.705,27.159,28.01,26.464z M22.492,29.222l0.795-1.044c-0.497-3.231-4.723-2.038-4.723-2.038
			C21.621,26.512,22.492,29.222,22.492,29.222z"/>
		<path class="fandom_zeventien" d="M28.939,42.877l-3.734-6.843c0.252-2.309-3.437-2.418-3.321-0.099l-3.706,6.282
			c-0.416,0.711,0.058,1.611,0.88,1.67l8.828,0.633C28.764,44.584,29.363,43.649,28.939,42.877z"/>
		<path class="fandom_zestien" d="M39.093,39.46l-9.929,4.882l-2.358,4.116l-8.093-4.65c0.269,0.11,8.882,0.692,9.173,0.713
			c0.878,0.063,1.477-0.872,1.053-1.644c-1.252-2.277-3.733-6.856-3.732-6.863c0.435,0.001,5.05,0.073,5.406-0.086l6.59-2.939
			c0.581-0.127,1.16,0.226,1.312,0.801l1.162,4.388C39.812,38.691,39.568,39.227,39.093,39.46z M18.178,42.219l3.706-6.282
			c-0.004-0.076-0.003-0.15,0.001-0.22l-3.75-0.262c-0.722-0.05-1.299,0.592-1.171,1.305l1.064,5.94
			C18.04,42.536,18.088,42.373,18.178,42.219z M55.67,43.964c-3.895-11.859-4.212-12.879-5.005-14.999
			c-0.52-1.39-0.213-2.931-0.188-4.412c0,0,2.962-17.408-16.133-19.273c-4.866,1.945-6.603,9.284-7.381,13.667
			c-0.536,3.023-2.724,2.654-2.2-0.318c0.8-4.539,2.327-10.419,5.892-13.341c-12.33,1.122-12.308,12.427-13.5,14.555
			c-0.186,0.218-3.306,3.938-3.466,4.174c0.275-0.151,1.872-0.932,5.47-0.932c3.982,0,4.353,1.852,6.019,1.852
			c1.667,0,5.093-1.574,8.705-1.111c5.762,0.549,8.814,3.627,13.884,19.403c0.118,0.367,0.42,0.656,0.795,0.748l5.787,1.415
			C55.2,45.598,55.942,44.791,55.67,43.964z"/>
	</g>
</g>
</svg>