<?xml version="1.0" encoding="utf-8"?>
<!-- Generator: Adobe Illustrator 19.1.0, SVG Export Plug-In . SVG Version: 6.00 Build 0)  -->
<!DOCTYPE svg PUBLIC "-//W3C//DTD SVG 1.1//EN" "http://www.w3.org/Graphics/SVG/1.1/DTD/svg11.dtd">
<svg version="1.1" id="DESIGNS" xmlns="http://www.w3.org/2000/svg" xmlns:xlink="http://www.w3.org/1999/xlink" x="0px" y="0px"
	 width="64px" height="64px" viewBox="0 0 64 64" style="enable-background:new 0 0 64 64;" xml:space="preserve">
<style type="text/css">
	.fandom_een{fill:#FF786E;}
	.fandom_twee{fill:#BE5652;}
	.fandom_zeven{fill:#508D9B;}
	.fandom_acht{fill:#6BC4D2;}
	.fandom_achttien{fill:#808080;}
	.fandom_negentien{fill:#CCCCCC;}
	.st0{fill:#644638;}
	.st1{fill:#4B322A;}
	.st2{fill:#EFEAE0;}
	.st3{fill:#AA9991;}
	.st4{fill:#FFC865;}
	.st5{fill:#BE9148;}
	.st6{fill:#666666;}
	.st7{fill:#018273;}
	.st8{fill:#3A3A3A;}
	.st9{fill:#FFFAFA;}
	.st10{fill:#4D4D4D;}
	.st11{fill:#8579A3;}
	.st12{fill:#685683;}
	.st13{fill:#00B3AA;}
</style>
<g>
	<g>
		<path class="fandom_acht" d="M32,7C18.193,7,7,18.193,7,32h50C57,18.193,45.807,7,32,7z"/>
		<path class="fandom_zeven" d="M32,57c13.807,0,25-11.193,25-25H7C7,45.807,18.193,57,32,57z"/>
	</g>
	<g>
		<path class="fandom_negentien" d="M59,36.171c-0.039,6.627-12.159,11.922-27.071,11.828C17.018,47.905,4.961,42.456,5,35.829
			s12.159-11.922,27.071-11.828S59.039,29.544,59,36.171z"/>
		<ellipse transform="matrix(1 0.0025 -0.0025 1 0.0877 -0.0789)" class="fandom_achttien" cx="32" cy="35.5" rx="19.5" ry="8.5"/>
		<path class="fandom_een" d="M44.353,18.464c-1.724-0.39-1.066-0.569-2.225-1.133c-1.281-0.624-2.628-0.602-4.011-0.475
			c0,0-0.648-0.701-2.164-1.25c-2.523-0.913-5.736-0.8-8.159,0.369c-1.553,0.749-3.456,0.428-4.915,1.43
			c-0.585,0.402-0.861,1.014-1.292,1.556c-1.032,1.298-2.404,2.309-3.288,3.727c-0.976,1.565-0.305,3.57-1.425,5.081
			c-0.843,1.137-0.792,2.78-0.668,4.142c0.03,0.334,0.294,1.121,0.191,1.387c-0.52,1.352-0.197,2.988,0.624,4.15
			c1.482,2.099,2.942,1.86,3.609,2.652c2.328,2.766,5.402,1.988,8.545,1.742c2.888-0.226,6.541-1.392,9.315-0.901
			c2.954,0.523,6.074-1.645,7.885-3.807C52.033,30.379,49.834,19.705,44.353,18.464z"/>
		<path class="fandom_twee" d="M33.878,16.253c-0.147-0.378-0.256-0.773-0.345-1.178c0.559,0.059,1.099,0.151,1.611,0.286
			c-0.022-0.006-0.04-0.012-0.062-0.017C34.74,15.753,34.351,16.104,33.878,16.253z M42.125,30.223
			c-1.123-0.698-2.357-1.131-3.632-1.368c-0.092-0.018-0.025-2.032-0.025-2.21c0.722-0.254,1.411-0.753,1.769-1.44
			c0.372-0.715,0.319-1.526-0.002-2.249c-0.273-0.615-0.984-0.653-1.452-0.229c-0.65,0.589,0.011,1.369-0.679,1.911
			c-0.272,0.213-0.604,0.336-0.883,0.539c-1.058,0.768-0.801,2.34-0.751,3.471c-0.949-0.022-1.902,0.045-2.835,0.204
			c-1.269,0.216-0.729,2.144,0.532,1.929c1.603-0.273,3.144-0.188,4.72,0.208c2.329,0.584,3.626,1.516,2.02,3.218
			c-0.884,0.937,0.528,2.354,1.414,1.414C43.91,33.934,44.393,31.633,42.125,30.223z M49.077,26.624
			c-1.987,1.076-4.132,0.485-4.922,1.873c-0.638,1.121-2.366,0.113-1.727-1.009c0.488-0.857,1.301-1.432,2.234-1.727
			c0.962-0.304-1.694-2.902,1.596-4.071c1.218-0.433,1.738,1.5,0.532,1.929c-0.57,0.203-0.217,1.286-0.156,1.727
			c0.468-0.018,1.019-0.223,1.434-0.448C49.201,24.283,50.211,26.01,49.077,26.624z M49.96,40.723
			c-2.547,0.139-4.941-0.137-5.695-1.586c0.806-0.608,1.526-1.305,2.109-2.002c1.669-1.993,2.655-4.327,3.074-6.659
			c0.571,0.467,1.008,1.221,0.894,2.436c-0.075,0.791-1.475,4.05-1.474,4.057c0.004-0.004,0.427,0.197,2.222,0.099
			C54.259,36.895,53.038,40.554,49.96,40.723z M40.584,20.634c-1.356,0.704-2.741,1.35-4.113,2.021
			c-8.001,3.912-9.556,7.418-9.564,7.437c-1.589-0.266-2.802-0.076-4.062,1.212c-0.603,0.615-1.058,2.013-1.762,1.772
			c-0.525-0.18-0.697-1.294-1.078-1.814c-0.953-1.302-2.648-0.552-2.112,0.865c0.285,0.756,0.663,1.478,1.215,2.063
			c0.573,0.608,1.422,0.858,2.24,0.88c1.244,0.034,2.108-1.11,2.749-2.106c0.51-0.794,1.088-1.092,1.749-1.075l1.061-1.795
			c1.373,0.336,2.775,0.855,3.646,1.999c2.741-0.682,5.343,1.849,5.895,2.683c1.109,1.674,1.71,3.084,0.538,3.368
			c-1.284,0.312-1.574-1.221-2.152-2.225c-0.639-1.111-2.183-2.032-3.508-1.927c0.113,1.011-0.163,2.046-0.584,3.066
			c-0.485,1.175-2.421,0.661-1.929-0.532c0.479-1.16,1.018-2.579-0.146-3.531c-0.802-0.655-1.821-0.882-2.812-1.094
			c-1.549,3.051-1.878,6.448-1.878,6.448c3.97-0.395,6.346,1.13,7.51,3.185c-0.7,0.117-1.589,0.253-2.303,0.309
			c-1.557-1.513-4.2-1.857-5.17-1.57c-0.022,0.006-0.813,0.891-1.642,1.232c-0.672-0.341-1.248-0.814-1.744-1.403
			c-0.667-0.793-2.127-0.553-3.609-2.652c-0.631-0.893-0.963-2.065-0.85-3.173c0.04-0.394,0.256-1.123,0.243-1.26
			c-0.032-0.349-0.186-0.855-0.209-1.105c-0.126-1.378-0.16-3.025,0.668-4.142c0.7-0.945,0.701-2.082,0.841-3.184
			c0.308-2.425,1.655-3.16,3.215-4.858c0.033,0.532,0.139,1.053,0.391,1.531c0.266,0.506,0.707,0.905,1.159,1.293
			c-0.852,0.54-1.537,1.147-1.643,2.413c-0.04,0.483-0.072,0.853-0.591,0.998c-1.24,0.346-0.713,2.276,0.532,1.929
			c0.834-0.233,1.575-0.812,1.858-1.655c0.439-1.307-0.352-1.285,1.219-2.185c0.804,1.603,2.423,0.746,2.034-0.322
			c-0.289-0.792-0.758-1.351-1.353-1.886c0.771-0.242,1.495-0.27,2.344,0.215c1.286,0.734,4.6,1.904,5.362-1.21
			c0.306-1.253-1.622-1.784-1.929-0.532c-0.365,1.491-2.866-0.288-3.768-0.63c-1.036-0.392-2.324,0.077-3.378,0.536
			c-0.256-0.616-0.277-1.301-0.143-2.174c0.052-0.339-0.103-0.67-0.145-0.641c0.73-0.501,1.57-0.671,2.422-0.81
			c0.851-0.138,1.717-0.246,2.493-0.62c1.117-0.539,2.403-0.843,3.71-0.936c0.34,1.918,1.076,3.728,2.666,4.997
			c0.997,0.796,2.422-0.61,1.414-1.414c-0.245-0.196-0.457-0.409-0.654-0.631c0.859-0.409,1.496-1.144,2.076-1.916
			c0.765,0.412,1.111,0.781,1.111,0.781c1.306-0.114,2.545-0.143,3.761,0.369C42.392,17.787,42.077,19.858,40.584,20.634z"/>
	</g>
</g>
</svg>