<?xml version="1.0" encoding="utf-8"?>
<!-- Generator: Adobe Illustrator 19.1.0, SVG Export Plug-In . SVG Version: 6.00 Build 0)  -->
<!DOCTYPE svg PUBLIC "-//W3C//DTD SVG 1.1//EN" "http://www.w3.org/Graphics/SVG/1.1/DTD/svg11.dtd">
<svg version="1.1" id="DESIGNS" xmlns="http://www.w3.org/2000/svg" xmlns:xlink="http://www.w3.org/1999/xlink" x="0px" y="0px"
	 width="64px" height="64px" viewBox="0 0 64 64" style="enable-background:new 0 0 64 64;" xml:space="preserve">
<style type="text/css">
	.fandom_een{fill:#FF786E;}
	.fandom_twee{fill:#BE5652;}
	.fandom_vijf{fill:#018273;}
	.fandom_zes{fill:#00B3AA;}
	.fandom_elf{fill:#4B322A;}
	.fandom_twaalf{fill:#644638;}
	.st0{fill:#EFEAE0;}
	.st1{fill:#AA9991;}
	.st2{fill:#FFFAFA;}
	.st3{fill:#6BC4D2;}
	.st4{fill:#508D9B;}
	.st5{fill:#FFC865;}
	.st6{fill:#BE9148;}
	.st7{fill:#8579A3;}
	.st8{fill:#685683;}
	.st9{fill:#4D4D4D;}
	.st10{fill:#3A3A3A;}
	.st11{fill:#808080;}
	.st12{fill:#CCCCCC;}
	.st13{fill:#666666;}
</style>
<g>
	<g>
		<path class="fandom_een" d="M32,7C18.193,7,7,18.193,7,32h50C57,18.193,45.807,7,32,7z"/>
		<path class="fandom_twee" d="M32,57c13.807,0,25-11.193,25-25H7C7,45.807,18.193,57,32,57z"/>
	</g>
	<g>
		<polygon class="fandom_zes" points="30.312,26.75 28.312,18.25 23.75,19.125 22.437,21.062 23.437,28.188 22,28.438 22,29.75 
			23.812,34.438 25.687,34.812 27.75,35.75 30.437,35.125 33.625,35.812 35.937,35.125 38.375,34.688 39.812,34 39.562,32.625 
			41.875,25.375 40.875,23.188 39.687,22.75 39.375,21.5 37.312,20.938 38,12.062 38,5.312 37.125,3.625 33.437,4 32.562,7.125 
			31.437,16.25 30,16.417 29.5,17.688 		"/>
		<path class="fandom_vijf" d="M38,12.062l-0.688,8.875l-3.937,6.417l1.812-19.5L38,5.312V12.062z M28.312,18.229
			c-0.187,0.25-2.25,2.75-2.25,2.75l1.813,8.562l2.437-2.792L28.312,18.229z M35.531,35.246l1.906-7.892L35.5,28.479l-1.875,7.333
			L35.531,35.246z M25.312,34.729l-1.875-6.542l-0.312,1.542l1.417,4.854L25.312,34.729z M31.437,16.25l-0.875,1.292L31,22.417
			L31.437,16.25z M41.875,25.375l-1.938,0.354l-1.562,8.958L39.812,34l-0.25-1.375L41.875,25.375z M39.375,21.5l-0.75,3.104
			l1.062-1.854L39.375,21.5z"/>
		<polygon class="fandom_twaalf" points="53.562,47.104 48.187,33.604 40.625,31 40.081,31 39.562,32.625 39.812,34 38.375,34.687 
			35.937,35.125 33.625,35.812 30.437,35.125 27.75,35.75 25.687,34.812 23.812,34.437 22.518,31.089 18.687,32 15.937,34.979 
			10.437,45.979 12.187,47.292 12.312,50.479 16.875,53.979 20.312,52.604 25.562,52.917 29,55 34.625,55 35.437,53.354 
			40.625,52.854 43.437,53.979 52,50.354 50.75,47.604 		"/>
		<path class="fandom_elf" d="M20.312,52.604L22.25,42l4.167-0.333l-0.854,11.25L20.312,52.604z M35.437,53.354L34.75,40.25
			l-0.667,2.583L34.583,55L35.437,53.354z M43.437,53.979l-0.271-13.062L41.25,41.75l-0.625,11.104L43.437,53.979z M53.562,47.104
			l-5.375-13.5L46.5,37.833l4.25,9.771L53.562,47.104z M17.745,39.239l-1.808-4.26l-5.5,11l1.75,1.312l0.125,3.188L17.745,39.239z"
			/>
	</g>
</g>
</svg>