<?xml version="1.0" encoding="utf-8"?>
<!-- Generator: Adobe Illustrator 19.1.0, SVG Export Plug-In . SVG Version: 6.00 Build 0)  -->
<!DOCTYPE svg PUBLIC "-//W3C//DTD SVG 1.1//EN" "http://www.w3.org/Graphics/SVG/1.1/DTD/svg11.dtd">
<svg version="1.1" id="DESIGNS" xmlns="http://www.w3.org/2000/svg" xmlns:xlink="http://www.w3.org/1999/xlink" x="0px" y="0px"
	 width="64px" height="64px" viewBox="0 0 64 64" style="enable-background:new 0 0 64 64;" xml:space="preserve">
<style type="text/css">
	.fandom_een{fill:#FF786E;}
	.fandom_twee{fill:#BE5652;}
	.fandom_drie{fill:#BE9148;}
	.fandom_vier{fill:#FFC865;}
	.fandom_vijf{fill:#018273;}
	.fandom_zes{fill:#00B3AA;}
	.fandom_zeven{fill:#508D9B;}
	.fandom_acht{fill:#6BC4D2;}
	.fandom_negen{fill:#685683;}
	.fandom_tien{fill:#8579A3;}
	.fandom_elf{fill:#4B322A;}
	.fandom_twaalf{fill:#644638;}
	.fandom_veertien{fill:#EFEAE0;}
	.fandom_negentien{fill:#CCCCCC;}
	.st0{fill:#AA9991;}
	.st1{fill:#808080;}
	.st2{fill:#666666;}
	.st3{fill:#3A3A3A;}
	.st4{fill:#FFFAFA;}
	.st5{fill:#4D4D4D;}
</style>
<g>
	<g>
		<path class="fandom_acht" d="M32,7C18.193,7,7,18.193,7,32h50C57,18.193,45.807,7,32,7z"/>
		<path class="fandom_zeven" d="M32,57c13.807,0,25-11.193,25-25H7C7,45.807,18.193,57,32,57z"/>
	</g>
	<g>
		<path class="fandom_veertien" d="M50.637,46H13.381l2.472-14h32.42L50.637,46z M12.866,19h38.407l-2.782,9H15.648L12.866,19z
			 M54,17H10l4.173,13L11,48h42l-3.034-18L54,17z"/>
		<path class="fandom_negentien" d="M48.491,28H15.648l-2.782-9h38.407L48.491,28z M11,48l2,3h38l2-3H11z M52,14H12l-2,3h44L52,14z"
			/>
		<polygon class="fandom_elf" points="50.637,46 48.273,32 15.853,32 13.381,46 		"/>
		<path class="fandom_een" d="M28.097,34.316c-1,0.166-0.922,1.053-3.197,0.222c0.18-0.976,0.429-1.506,0.648-1.794
			c0.979-0.06,1.985,0.396,2.546,1.366L28.097,34.316z M47.343,34.135c-0.56-0.97-1.567-1.426-2.546-1.366
			c-0.219,0.288-0.469,0.818-0.648,1.794c2.276,0.831,2.197-0.056,3.197-0.222L47.343,34.135z M41.427,38.902
			c-0.56-0.97-1.567-1.426-2.546-1.366c-0.219,0.288-0.469,0.818-0.648,1.794c2.276,0.831,2.197-0.056,3.197-0.222L41.427,38.902z
			 M27.051,43.552c-0.56-0.97-1.567-1.426-2.546-1.366c-0.219,0.288-0.469,0.818-0.648,1.794c2.276,0.831,2.197-0.056,3.197-0.222
			L27.051,43.552z"/>
		<path class="fandom_twee" d="M25.548,32.744c-0.219,0.288-0.469,0.818-0.648,1.794c-0.536-0.196-1.09-0.386-1.56-0.186
			l0.004-0.242C23.839,33.253,24.683,32.797,25.548,32.744z M42.593,34.135l-0.004,0.242c0.47-0.2,1.024-0.01,1.56,0.186
			c0.18-0.976,0.429-1.506,0.648-1.794C43.933,32.822,43.089,33.277,42.593,34.135z M36.677,38.902l-0.004,0.242
			c0.47-0.2,1.024-0.01,1.56,0.186c0.18-0.976,0.429-1.506,0.648-1.794C38.016,37.589,37.172,38.044,36.677,38.902z M22.301,43.552
			l-0.004,0.242c0.47-0.2,1.024-0.01,1.56,0.186c0.18-0.976,0.429-1.506,0.648-1.794C23.64,42.239,22.796,42.694,22.301,43.552z"/>
		<path class="fandom_zes" d="M21.68,34.336c-1,0.166-0.922,1.053-3.197,0.222c0.18-0.976,0.429-1.506,0.648-1.794
			c0.979-0.06,1.985,0.396,2.546,1.366L21.68,34.336z M27.719,38.907c-0.56-0.97-1.567-1.426-2.546-1.366
			c-0.219,0.288-0.469,0.818-0.648,1.794c2.276,0.831,2.197-0.056,3.197-0.222L27.719,38.907z M34.496,43.552
			c-0.56-0.97-1.567-1.426-2.546-1.366c-0.219,0.288-0.469,0.818-0.648,1.794c2.276,0.831,2.197-0.056,3.197-0.222L34.496,43.552z
			 M48.109,38.907c-0.56-0.97-1.567-1.426-2.546-1.366c-0.219,0.288-0.469,0.818-0.648,1.794c2.276,0.831,2.197-0.056,3.197-0.222
			L48.109,38.907z"/>
		<path class="fandom_vijf" d="M19.131,32.764c-0.219,0.288-0.469,0.818-0.648,1.794c-0.536-0.196-1.09-0.386-1.56-0.186
			l0.004-0.242C17.422,33.272,18.266,32.817,19.131,32.764z M22.969,38.907l-0.004,0.242c0.47-0.2,1.024-0.01,1.56,0.186
			c0.18-0.976,0.429-1.506,0.648-1.794C24.308,37.594,23.464,38.049,22.969,38.907z M29.746,43.552l-0.004,0.242
			c0.47-0.2,1.024-0.01,1.56,0.186c0.18-0.976,0.429-1.506,0.648-1.794C31.085,42.239,30.242,42.694,29.746,43.552z M43.359,38.907
			l-0.004,0.242c0.47-0.2,1.024-0.01,1.56,0.186c0.18-0.976,0.429-1.506,0.648-1.794C44.698,37.594,43.854,38.049,43.359,38.907z"/>
		<path class="fandom_tien" d="M34.448,34.316c-1,0.166-0.922,1.053-3.197,0.222c0.18-0.976,0.429-1.506,0.648-1.794
			c0.979-0.06,1.985,0.396,2.546,1.366L34.448,34.316z M21.052,38.902c-0.56-0.97-1.567-1.426-2.546-1.366
			c-0.219,0.288-0.469,0.818-0.648,1.794c2.276,0.831,2.197-0.056,3.197-0.222L21.052,38.902z M41.913,43.552
			c-0.56-0.97-1.567-1.426-2.546-1.366c-0.219,0.288-0.469,0.818-0.648,1.794c2.276,0.831,2.197-0.056,3.197-0.222L41.913,43.552z"
			/>
		<path class="fandom_negen" d="M31.899,32.744c-0.219,0.288-0.469,0.818-0.648,1.794c-0.536-0.196-1.09-0.386-1.56-0.186
			l0.004-0.242C30.19,33.253,31.034,32.797,31.899,32.744z M16.302,38.902l-0.004,0.242c0.47-0.2,1.024-0.01,1.56,0.186
			c0.18-0.976,0.429-1.506,0.648-1.794C17.641,37.589,16.797,38.044,16.302,38.902z M37.163,43.552l-0.004,0.242
			c0.47-0.2,1.024-0.01,1.56,0.186c0.18-0.976,0.429-1.506,0.648-1.794C38.502,42.239,37.658,42.694,37.163,43.552z"/>
		<path class="fandom_twaalf" d="M18.274,36.479c0.041-0.781,0.116-1.412,0.209-1.921c2.276,0.831,2.197-0.056,3.197-0.222
			l0.028,1.908C20.583,36.532,19.421,36.602,18.274,36.479z M28.125,36.224l-0.028-1.908c-1,0.166-0.921,1.053-3.197,0.222
			c-0.094,0.509-0.168,1.14-0.209,1.921C25.837,36.582,27,36.512,28.125,36.224z M34.476,36.224l-0.028-1.908
			c-1,0.166-0.921,1.053-3.197,0.222c-0.094,0.509-0.168,1.14-0.209,1.921C32.188,36.582,33.351,36.512,34.476,36.224z
			 M40.958,36.224l-0.028-1.908c-1,0.166-0.921,1.053-3.197,0.222c-0.094,0.509-0.168,1.14-0.209,1.921
			C38.671,36.582,39.833,36.512,40.958,36.224z M47.375,36.249l-0.028-1.908c-1,0.166-0.921,1.053-3.197,0.222
			c-0.094,0.509-0.168,1.14-0.209,1.921C45.087,36.607,46.25,36.537,47.375,36.249z M41.458,41.016l-0.028-1.908
			c-1,0.166-0.921,1.053-3.197,0.222c-0.094,0.509-0.168,1.14-0.209,1.921C39.171,41.373,40.333,41.303,41.458,41.016z
			 M21.083,41.016l-0.028-1.908c-1,0.166-0.921,1.053-3.197,0.222c-0.094,0.509-0.168,1.14-0.209,1.921
			C18.796,41.373,19.958,41.303,21.083,41.016z M20.434,45.641l-0.028-1.908c-1,0.166-0.921,1.053-3.197,0.222
			c-0.094,0.509-0.168,1.14-0.209,1.921C18.146,45.998,19.309,45.928,20.434,45.641z M27.082,45.665l-0.028-1.908
			c-1,0.166-0.921,1.053-3.197,0.222c-0.094,0.509-0.168,1.14-0.209,1.921C24.795,46.023,25.958,45.953,27.082,45.665z
			 M27.75,41.021l-0.028-1.908c-1,0.166-0.921,1.053-3.197,0.222c-0.094,0.509-0.168,1.14-0.209,1.921
			C25.462,41.379,26.625,41.309,27.75,41.021z M34.528,45.665l-0.028-1.908c-1,0.166-0.921,1.053-3.197,0.222
			c-0.094,0.509-0.168,1.14-0.209,1.921C32.24,46.023,33.403,45.953,34.528,45.665z M48.14,41.021l-0.028-1.908
			c-1,0.166-0.921,1.053-3.197,0.222c-0.094,0.509-0.168,1.14-0.209,1.921C45.853,41.379,47.015,41.309,48.14,41.021z
			 M34.528,41.016l-0.028-1.908c-1,0.166-0.921,1.053-3.197,0.222c-0.094,0.509-0.168,1.14-0.209,1.921
			C32.24,41.373,33.403,41.303,34.528,41.016z M41.944,45.665l-0.028-1.908c-1,0.166-0.921,1.053-3.197,0.222
			c-0.094,0.509-0.168,1.14-0.209,1.921C39.657,46.023,40.819,45.953,41.944,45.665z M48.986,45.665l-0.028-1.908
			c-1,0.166-0.921,1.053-3.197,0.222c-0.094,0.509-0.168,1.14-0.209,1.921C46.698,46.023,47.861,45.953,48.986,45.665z"/>
		<path class="fandom_vier" d="M40.93,34.316c-1,0.166-0.922,1.053-3.197,0.222c0.18-0.976,0.429-1.506,0.648-1.794
			c0.979-0.06,1.985,0.396,2.546,1.366L40.93,34.316z M20.402,43.527c-0.56-0.97-1.567-1.426-2.546-1.366
			c-0.219,0.288-0.469,0.818-0.648,1.794c2.276,0.831,2.197-0.056,3.197-0.222L20.402,43.527z M34.496,38.902
			c-0.56-0.97-1.567-1.426-2.546-1.366c-0.219,0.288-0.469,0.818-0.648,1.794c2.276,0.831,2.197-0.056,3.197-0.222L34.496,38.902z
			 M48.955,43.552c-0.56-0.97-1.567-1.426-2.546-1.366c-0.219,0.288-0.469,0.818-0.648,1.794c2.276,0.831,2.197-0.056,3.197-0.222
			L48.955,43.552z"/>
		<path class="fandom_drie" d="M38.381,32.744c-0.219,0.288-0.469,0.818-0.648,1.794c-0.536-0.196-1.09-0.386-1.56-0.186
			l0.004-0.242C36.672,33.253,37.516,32.797,38.381,32.744z M15.652,43.527l-0.004,0.242c0.47-0.2,1.024-0.01,1.56,0.186
			c0.18-0.976,0.429-1.506,0.648-1.794C16.992,42.214,16.148,42.669,15.652,43.527z M29.746,38.902l-0.004,0.242
			c0.47-0.2,1.024-0.01,1.56,0.186c0.18-0.976,0.429-1.506,0.648-1.794C31.085,37.589,30.242,38.044,29.746,38.902z M44.205,43.552
			l-0.004,0.242c0.47-0.2,1.024-0.01,1.56,0.186c0.18-0.976,0.429-1.506,0.648-1.794C45.544,42.239,44.7,42.694,44.205,43.552z"/>
	</g>
</g>
</svg>