<?xml version="1.0" encoding="utf-8"?>
<!-- Generator: Adobe Illustrator 19.1.0, SVG Export Plug-In . SVG Version: 6.00 Build 0)  -->
<!DOCTYPE svg PUBLIC "-//W3C//DTD SVG 1.1//EN" "http://www.w3.org/Graphics/SVG/1.1/DTD/svg11.dtd">
<svg version="1.1" id="DESIGNS" xmlns="http://www.w3.org/2000/svg" xmlns:xlink="http://www.w3.org/1999/xlink" x="0px" y="0px"
	 width="64px" height="64px" viewBox="0 0 64 64" style="enable-background:new 0 0 64 64;" xml:space="preserve">
<style type="text/css">
	.fandom_een{fill:#FF786E;}
	.fandom_twee{fill:#BE5652;}
	.fandom_vier{fill:#FFC865;}
	.fandom_vijf{fill:#018273;}
	.fandom_zes{fill:#00B3AA;}
	.fandom_zeven{fill:#508D9B;}
	.fandom_acht{fill:#6BC4D2;}
	.fandom_negen{fill:#685683;}
	.fandom_tien{fill:#8579A3;}
	.st0{fill:#BE9148;}
	.st1{fill:#EFEAE0;}
	.st2{fill:#AA9991;}
	.st3{fill:#3A3A3A;}
	.st4{fill:#666666;}
	.st5{fill:#4D4D4D;}
	.st6{fill:#CCCCCC;}
	.st7{fill:#808080;}
	.st8{fill:#644638;}
	.st9{fill:#4B322A;}
	.st10{fill:#FFFAFA;}
</style>
<g>
	<g>
		<path class="fandom_acht" d="M32,7C18.193,7,7,18.193,7,32h50C57,18.193,45.807,7,32,7z"/>
		<path class="fandom_zeven" d="M32,57c13.807,0,25-11.193,25-25H7C7,45.807,18.193,57,32,57z"/>
	</g>
	<g>
		<path class="fandom_vier" d="M21.909,50.005l-1.414-1.414l19.799-19.799l1.414,1.414c0.391,0.391,0.391,1.024,0,1.414
			L23.323,50.005C22.933,50.396,22.299,50.396,21.909,50.005z"/>
		<path class="fandom_tien" d="M57.264,23.842l-2.121,2.121c-1.757,1.757-4.607,1.757-6.364,0l-4.596-4.596l8.485-8.485l4.596,4.596
			C59.022,19.236,59.022,22.085,57.264,23.842z M17.666,51.419l26.163-26.163l-3.536-3.536L14.131,47.884L17.666,51.419z"/>
		<path class="fandom_negen" d="M52.668,12.882l-8.485,8.485l-4.596-4.596c-1.757-1.757-1.757-4.607,0-6.364l2.121-2.121
			c1.757-1.757,4.607-1.757,6.364,0L52.668,12.882z M42.061,23.489l-1.768-1.768L14.131,47.884l1.768,1.768L42.061,23.489z"/>
		<path class="fandom_zes" d="M32.258,38.723l-3.665-3.665c-1.205-1.203,0.618-3.008,1.811-1.811l3.665,3.665
			C35.289,38.131,33.434,39.903,32.258,38.723z M15.899,49.652l-2.121,2.121l0.551,0.551c0.304,0.304,0.769,0.38,1.154,0.187
			l2.184-1.092L15.899,49.652z M42.062,23.489l1.768,1.768c0.391,0.391,1.024,0.39,1.414,0l0.707-0.707
			c0.391-0.391,0.391-1.024,0-1.414l-1.768-1.768L42.062,23.489z M52.668,12.882l2.105,2.105l5.443-2.563
			c0.626-0.295,0.771-1.122,0.281-1.612l-2.879-2.879L52.668,12.882z"/>
		<path class="fandom_vijf" d="M15.899,49.652l-2.121,2.121l-0.551-0.551c-0.304-0.304-0.38-0.769-0.187-1.154l1.092-2.184
			L15.899,49.652z M42.415,19.6c-0.39-0.39-1.024-0.391-1.414,0l-0.707,0.707c-0.39,0.39-0.39,1.024,0,1.414l1.768,1.768
			l2.121-2.121L42.415,19.6z M54.781,5.095c-0.49-0.49-1.317-0.345-1.612,0.281l-2.563,5.443l2.062,2.062l4.95-4.95L54.781,5.095z"
			/>
		<path class="fandom_een" d="M57.5,24.5c0,0.828-0.672,1.5-1.5,1.5s-1.5-0.672-1.5-1.5S55.172,23,56,23S57.5,23.672,57.5,24.5z
			 M38,28c-0.828,0-1.5,0.672-1.5,1.5S37.172,31,38,31s1.5-0.672,1.5-1.5S38.828,28,38,28z M34,32c-0.828,0-1.5,0.672-1.5,1.5
			S33.172,35,34,35s1.5-0.672,1.5-1.5S34.828,32,34,32z M28,38c-0.828,0-1.5,0.672-1.5,1.5S27.172,41,28,41s1.5-0.672,1.5-1.5
			S28.828,38,28,38z M24,42c-0.828,0-1.5,0.672-1.5,1.5S23.172,45,24,45s1.5-0.672,1.5-1.5S24.828,42,24,42z M51,18
			c-0.828,0-1.5,0.672-1.5,1.5S50.172,21,51,21s1.5-0.672,1.5-1.5S51.828,18,51,18z M46,13c-0.828,0-1.5,0.672-1.5,1.5
			S45.172,16,46,16s1.5-0.672,1.5-1.5S46.828,13,46,13z M41,8c-0.828,0-1.5,0.672-1.5,1.5S40.172,11,41,11s1.5-0.672,1.5-1.5
			S41.828,8,41,8z M60.093,10.407c0,0,2.534-4.479,1.056-6.005l-3.531,3.531L60.093,10.407z"/>
		<path class="fandom_twee" d="M57.336,25.169C57.089,25.66,56.587,26,56,26c-0.828,0-1.5-0.672-1.5-1.5
			c0-0.587,0.34-1.089,0.831-1.336C54.684,24.451,56.048,25.816,57.336,25.169z M37.331,28.164C36.84,28.411,36.5,28.913,36.5,29.5
			c0,0.828,0.672,1.5,1.5,1.5c0.587,0,1.089-0.34,1.336-0.831C38.292,30.693,36.372,30.073,37.331,28.164z M33.331,32.164
			C32.84,32.411,32.5,32.913,32.5,33.5c0,0.828,0.672,1.5,1.5,1.5c0.587,0,1.089-0.34,1.336-0.831
			C34.048,34.816,32.684,33.451,33.331,32.164z M27.331,38.164C26.84,38.411,26.5,38.913,26.5,39.5c0,0.828,0.672,1.5,1.5,1.5
			c0.587,0,1.089-0.34,1.336-0.831C28.048,40.816,26.684,39.451,27.331,38.164z M23.331,42.164C22.84,42.411,22.5,42.913,22.5,43.5
			c0,0.828,0.672,1.5,1.5,1.5c0.587,0,1.089-0.34,1.336-0.831C24.048,44.816,22.684,43.451,23.331,42.164z M50.331,18.164
			C49.84,18.411,49.5,18.913,49.5,19.5c0,0.828,0.672,1.5,1.5,1.5c0.587,0,1.089-0.34,1.336-0.831
			C51.048,20.816,49.684,19.451,50.331,18.164z M45.331,13.164C44.84,13.411,44.5,13.913,44.5,14.5c0,0.828,0.672,1.5,1.5,1.5
			c0.587,0,1.089-0.34,1.336-0.831C46.048,15.816,44.684,14.451,45.331,13.164z M40.331,8.164C39.84,8.411,39.5,8.913,39.5,9.5
			c0,0.828,0.672,1.5,1.5,1.5c0.587,0,1.089-0.34,1.336-0.831C41.048,10.816,39.684,9.451,40.331,8.164z M11.463,58.006
			c-0.311-1.617-1.472-3.056-2.209-4.495c2.018,1.739,3.968,0.608,5.54-0.924c-0.172-0.043-0.334-0.131-0.466-0.263l-1.102-1.102
			c-0.112-0.112-0.193-0.246-0.241-0.39c-0.256,0.265-0.53,0.511-0.835,0.713c-1.058,0.702-1.683-0.449-2.389-1.147
			c-2.088-2.067-5.131-1.303-3.309,3.19c0.57,1.404,1.428,2.663,2.118,4.007c-3.817-0.759-5.541-0.564-8.183,1.954
			c-0.821,0.784-0.25,2.217,0.888,2.217c1.952,0,0.726-2.912,7.314-1.543C10.138,60.544,11.812,59.824,11.463,58.006z M55.143,5.458
			l2.475,2.475l3.531-3.531C59.653,2.858,55.143,5.458,55.143,5.458z"/>
	</g>
</g>
</svg>