<?xml version="1.0" encoding="utf-8"?>
<!-- Generator: Adobe Illustrator 19.1.0, SVG Export Plug-In . SVG Version: 6.00 Build 0)  -->
<!DOCTYPE svg PUBLIC "-//W3C//DTD SVG 1.1//EN" "http://www.w3.org/Graphics/SVG/1.1/DTD/svg11.dtd">
<svg version="1.1" id="DESIGNS" xmlns="http://www.w3.org/2000/svg" xmlns:xlink="http://www.w3.org/1999/xlink" x="0px" y="0px"
	 width="64px" height="64px" viewBox="0 0 64 64" style="enable-background:new 0 0 64 64;" xml:space="preserve">
<style type="text/css">
	.fandom_vijf{fill:#018273;}
	.fandom_zes{fill:#00B3AA;}
	.fandom_twaalf{fill:#644638;}
	.fandom_dertien{fill:#AA9991;}
	.fandom_veertien{fill:#EFEAE0;}
	.st0{fill:#FF786E;}
	.st1{fill:#BE5652;}
	.st2{fill:#FFFAFA;}
	.st3{fill:#6BC4D2;}
	.st4{fill:#508D9B;}
	.st5{fill:#4B322A;}
	.st6{fill:#FFC865;}
	.st7{fill:#BE9148;}
	.st8{fill:#8579A3;}
	.st9{fill:#685683;}
	.st10{fill:#4D4D4D;}
	.st11{fill:#3A3A3A;}
	.st12{fill:#808080;}
	.st13{fill:#CCCCCC;}
	.st14{fill:#666666;}
</style>
<g>
	<g>
		<path class="fandom_zes" d="M32,7C18.193,7,7,18.193,7,32h50C57,18.193,45.807,7,32,7z"/>
		<path class="fandom_vijf" d="M32,57c13.807,0,25-11.193,25-25H7C7,45.807,18.193,57,32,57z"/>
	</g>
	<g>
		<path class="fandom_dertien" d="M20.713,44.216l-0.392,2.985c-0.499,3.803,5.255,4.564,5.755,0.755l1.122-8.554l1.517,5.842
			c0.968,3.729,6.575,2.229,5.618-1.458l-1.7-6.549l0.155-0.063l2.019,5.821c1.257,3.623,6.743,1.728,5.484-1.902l-2.12-6.111
			l0.153-0.062l2.18,5.622c1.386,3.575,6.801,1.484,5.412-2.098l-2.127-5.485l2.53,4.788c1.795,3.397,6.923,0.679,5.132-2.712
			c0,0-4.014-6.917-4.264-8.069c-0.133-0.613-0.878-2.357-1.628-4.003c2.751,0.423,5.091,4.487,6.36,6.982
			c-0.002,0.001-0.002,0.003-0.004,0.004c1.111,2.184,1.82,4.57,3.615,5.237c2.031,0.755,5.911-1.825,5.685-5.947
			c-0.111-2.032-0.672-4.101-1.726-5.802c-1.425-2.654-5.069-5.037-10.085-4.752c0,0.009-5.578,0.697-5.313,1.206
			c-0.969-1.858-3.065-4.301-4.452-5.382c-1.635-1.274-4.657-2.926-6.945-3.586c-6.846-1.973-26.248,7.869-29.13,11.301
			c-2.43,2.893,0.158,7.412,0.158,7.412c-1.031-0.183-1.779,0.93-1.318,1.808l2.517,4.793c-0.271,2.696,1.976,5.795,4.157,7.364
			l-1.573,8.561c-0.702,3.818,5.013,4.832,5.708,1.049l1.373-7.473C16.881,46.171,18.841,45.546,20.713,44.216z"/>
		<path class="fandom_veertien" d="M15.971,45.843c-0.359,0.048-0.857-0.005-1.385-0.104l-1.373,7.473
			c-0.296,1.747-1.671,2.581-3.379,2.33c-1.688-0.248-2.709-1.728-2.33-3.379l1.573-8.561c-2.639-1.9-4.393-5.013-4.157-7.364
			l-2.517-4.793c-0.482-0.918,0.297-1.989,1.318-1.808l5.102,0.848c0.31-0.232,2.81-1.886,3.143-1.86
			C11.966,28.623,21.901,34.406,15.971,45.843z M57.053,26.594c0.966-0.952,2.434-3.035,2.434-3.159s-3.612-7.42-15.503-3.742
			c0.268,0.503,0.767,1.54,0.738,1.477C50.593,20.928,54.559,23.736,57.053,26.594z M35.901,20.448
			c-1.867-4.127-6.546-6.198-7.215-6.477c-4.596,2.596-9.589,6.345-9.032,9.614l1.358,3.761
			C21.012,27.346,28.176,24.534,35.901,20.448z M32.489,47.236L30.291,38.8c-0.447-1.468-2.925-1.605-3.092,0.602l1.517,5.842
			C29.083,46.979,30.882,47.832,32.489,47.236z M20.713,44.216l-0.392,2.985c-0.208,1.583,0.741,3.091,2.5,3.255l0.655-10.93
			C22.882,41.351,21.925,43.147,20.713,44.216z M22.172,29.921c1.288,1.551,1.944,3.617,1.986,5.627
			c0.01,0.495-0.031,1.049-0.119,1.634c0.703-1,1.021-0.904,8.555-3.849c3.357-1.312,4.954-7.087,4.354-10.246
			C36.536,23.304,25.531,28.688,22.172,29.921z"/>
		<path class="fandom_twaalf" d="M42.091,16.992c-7.088,4.166-14.887,7.924-21.079,10.354l-1.358-3.761
			c-0.79-4.637,9.611-10.313,14.346-12.23c0,0-0.771-0.277-1.306-0.431c-6.846-1.973-26.248,7.869-29.13,11.301
			c-2.43,2.893,0.158,7.412,0.158,7.412c-0.92-0.163-1.375,0.672-1.417,0.933c2.493,0.874,4.987,1.748,7.48,2.622
			c1.426,0.747,1.938,2.009,2.707,3.403c0.302,0.548,0.815,0.799,1.43,0.703c0.557-0.087,1.216-0.323,1.657-0.68
			c0.714-0.578,0.439-1.366,0.342-2.129c-0.149-1.184-0.296-1.894-0.015-3.019c0.043-0.146,2.341-7.862,2.366-8.012
			c0.309,0.095,0.588,0.303,0.751,0.645c0.04,0.084,2.402,5.044,2.402,5.044c0.27,0.24,0.519,0.501,0.748,0.777
			c5.72-2.215,13.965-6.164,21.566-10.651C43.395,18.637,42.539,17.547,42.091,16.992z M15.525,27.552
			c-2.394,0.336-4.783,1.495-6.702,2.932L6.1,30.031l-0.727-1.786c-0.415-1.019,0.079-2.192,1.098-2.607l7.159-2.915
			c1.019-0.415,2.192,0.079,2.607,1.098l0.334,0.82L15.525,27.552z M61.214,29.237c0.226,4.121-3.654,6.702-5.685,5.947
			c-1.794-0.667-2.503-3.053-3.614-5.237c1.451-0.517,3.557-1.943,4.423-2.692c1.281-1.108,2.348-2.41,3.15-3.819
			C60.541,25.136,61.102,27.205,61.214,29.237z M49.404,25.813c-0.604-0.786-1.266-1.494-1.972-2.012
			c1.167-1.409,2.059-3.275,1.971-5.117c1.036-0.06,1.978-0.012,2.833,0.115C52.278,21.405,50.976,24.229,49.404,25.813z
			 M5.167,38.436l3.18,0.032c1.062,0.089,1.53,1.384,0.769,2.132l-1.958,1.219C6.363,40.879,5.538,39.571,5.167,38.436z
			 M20.74,35.095c-0.995-0.17-1.391-1.387-0.682-2.106l2.913-1.89c0.626,1.112,1.004,2.371,1.134,3.643
			C23.295,34.866,21.432,35.213,20.74,35.095z"/>
	</g>
</g>
</svg>