<?xml version="1.0" encoding="utf-8"?>
<!-- Generator: Adobe Illustrator 19.1.0, SVG Export Plug-In . SVG Version: 6.00 Build 0)  -->
<!DOCTYPE svg PUBLIC "-//W3C//DTD SVG 1.1//EN" "http://www.w3.org/Graphics/SVG/1.1/DTD/svg11.dtd">
<svg version="1.1" id="DESIGNS" xmlns="http://www.w3.org/2000/svg" xmlns:xlink="http://www.w3.org/1999/xlink" x="0px" y="0px"
	 width="64px" height="64px" viewBox="0 0 64 64" style="enable-background:new 0 0 64 64;" xml:space="preserve">
<style type="text/css">
	.fandom_een{fill:#FF786E;}
	.fandom_drie{fill:#BE9148;}
	.fandom_vier{fill:#FFC865;}
	.fandom_vijf{fill:#018273;}
	.fandom_zes{fill:#00B3AA;}
	.fandom_zeven{fill:#508D9B;}
	.fandom_acht{fill:#6BC4D2;}
	.fandom_elf{fill:#4B322A;}
	.fandom_twaalf{fill:#644638;}
	.fandom_zestien{fill:#4D4D4D;}
	.fandom_zeventien{fill:#666666;}
	.fandom_negentien{fill:#CCCCCC;}
	.st0{fill:#8579A3;}
	.st1{fill:#BE5652;}
	.st2{fill:#685683;}
	.st3{fill:#EFEAE0;}
	.st4{fill:#AA9991;}
	.st5{fill:#3A3A3A;}
	.st6{fill:#808080;}
	.st7{fill:#FFFAFA;}
</style>
<g>
	<g>
		<path class="fandom_acht" d="M32,7C18.193,7,7,18.193,7,32h50C57,18.193,45.807,7,32,7z"/>
		<path class="fandom_zeven" d="M32,57c13.807,0,25-11.193,25-25H7C7,45.807,18.193,57,32,57z"/>
	</g>
	<g>
		<path class="fandom_zeventien" d="M33.391,58.601l-3.484-8C29.748,50.236,29.388,50,28.99,50h-12.13
			c-0.363,0-0.698,0.197-0.874,0.515l-4.442,8C11.173,59.181,11.655,60,12.418,60h20.056C33.194,60,33.678,59.261,33.391,58.601z"/>
		<path class="fandom_zestien" d="M21.23,50h-4.371c-0.363,0-0.698,0.197-0.874,0.515l-4.442,8C11.173,59.181,11.655,60,12.418,60
			h4.535L21.23,50z"/>
		<path class="fandom_negentien" d="M24,53h-3c-0.552,0-1,0.448-1,1v6h5v-6C25,53.448,24.552,53,24,53z"/>
		<path class="fandom_een" d="M53,13h7l-1,2l1,2h-7V13z M12.568,5.402l8.64,1.803c0.732,0.153,1.355-0.518,1.17-1.242
			c-1.322-5.166-6.744-6.263-10.349-2.21C11.515,4.33,11.811,5.244,12.568,5.402z"/>
		<path class="fandom_vijf" d="M9.489,48.042c0,1-3.135-19.036,3.826-19.031c-1.187,3.518-1.207,9.258-1.061,12.983
			c0.406-0.265,0.872-0.444,1.406-0.505c2.979-0.34,4.34,0.936,4.34,0.936C18.998,49.546,10.613,52.032,9.489,48.042z
			 M40.126,34.573c-3.485,0.63-4.025,5.668-4.025,5.668c-0.128,1-0.049,7.992,1.444,10.642c0.95-0.752,1.352-1.073,1.65-3.64
			c0.405-0.138,1.615-0.493,2.121-0.534l-0.034,1.416c0,0,1.228,0.191,1.689-1.162c0.608,0.225,1.172,0.564,1.655,0.921
			c-0.339,0.816-1.224,1.872-3.531,2.272c-0.165,0.88-1.079,2.405-1.557,3.166c0.82,1,4.986,1.306,6.719-3.918
			C44.643,39.123,45.665,33.632,40.126,34.573z M56,40c0,0-1.097,6.098-4.375,5.906c-2.312-0.135-3.315-5.232-3.315-5.232
			c-0.653-3.646,0.058-13.848,0.329-15.695c0.505-3.452,2.342-3.987,3.864-3.916c-0.847,1.686-1.768,5.35-1.634,13.275
			c0.262-0.1,0.534-0.157,0.833-0.167C54.34,34.085,56,40,56,40z M32.282,42.215c0.303-0.481,0.62-1.757,0.91-2.949
			c-0.911-0.265-2.396-0.532-2.827-0.532l0.072,3.017C30.506,42.716,31.766,43.034,32.282,42.215z M34.052,9.858
			c-8.29,0.018-10.836,8.505-11.456,16.738C22,34.511,20.298,41.489,20.298,41.489s1.008,1.857,3.897,3.176
			c0.456-1.487,0.879-3.358,1.204-5.739c0.331-0.093,0.672-0.174,1.047-0.228C26.911,18.969,31.372,12.169,34.052,9.858z"/>
		<path class="fandom_zes" d="M18,42.426c0,0-1.362-1.277-4.34-0.936c-0.534,0.061-0.999,0.24-1.406,0.505
			c-0.295-7.474,0.481-11.263,1.061-12.983c2.154,0,3.664,0.904,3.919,3.797C17.489,35.702,18,42.426,18,42.426z M40.126,34.573
			c-0.763,1.561-2.376,4.802-0.959,12.677c-0.005,0.002,1.08-0.343,1.727-0.484c2.723-0.596,5.362,2.638,5.362,2.638
			C44.643,39.123,45.665,33.632,40.126,34.573z M52.5,21.061c0,0-1.81,2.7-1.631,13.276c0.254-0.097,0.531-0.157,0.833-0.167
			C54.34,34.085,56,40,56,40s-0.031-13.562,0-15.277C56.042,22.392,54.813,21.165,52.5,21.061z M40.126,34.573
			c1.161-0.197,2.034-0.112,2.703,0.241c0.389-6.531,0.322-14.158-0.062-17.069c-0.556-4.211-2.747-7.9-8.714-7.887
			c-2.68,2.312-7.14,9.111-7.607,28.84c2.18-0.317,5.904-0.015,9.656,1.537C36.332,38.446,37.318,35.05,40.126,34.573
			C40.122,34.58,40.122,34.581,40.126,34.573z"/>
		<path class="fandom_vier" d="M50,3.5C50,4.328,49.328,5,48.5,5S47,4.328,47,3.5S47.672,2,48.5,2S50,2.672,50,3.5z M21.719,11
			h-4.943c0.043,0.867,0.205,2.019,0.697,3h3.746c0.459,0,0.859-0.234,0.97-0.568l0.5-1.5C22.847,11.458,22.37,11,21.719,11z
			 M52.974,47.627C52.737,47.333,52.378,47,52,47v7c1.381,0,2.5-1.119,2.5-2.5C54.5,50.891,53.847,48.714,52.974,47.627z"/>
		<path class="fandom_drie" d="M17.473,14H14.5c-0.315,0-0.611-0.111-0.8-0.3l-1.5-1.5C11.706,11.706,12.176,11,13,11h3.776
			C16.82,11.867,16.981,13.019,17.473,14z M51.702,34.17c-0.251,0.008-0.484,0.051-0.702,0.121v13.338
			c-0.853,1.054-1.5,3.136-1.5,3.871c0,0.439,0.24,1.069,0.24,1.069l-0.582,0.891c-0.298,0.465-0.162,1.084,0.303,1.381
			c0.866,0.557,1.318-0.204,1.798-0.954c0,0,0.442,0.112,0.741,0.112v-7c0.349,0,0.689,0.26,1,0.657V34.618
			C52.6,34.326,52.166,34.155,51.702,34.17z M54.882,53.529c-0.108-0.203-0.442-0.874-0.59-1.031
			c-0.281,0.644-0.825,1.146-1.496,1.372c0.411,0.77,0.784,1.488,1.674,1.012C54.958,54.622,55.142,54.017,54.882,53.529z
			 M47.831,2.164C47.34,2.411,47,2.913,47,3.5C47,4.328,47.672,5,48.5,5c0.587,0,1.089-0.34,1.336-0.831
			C48.548,4.816,47.184,3.451,47.831,2.164z M52,50v3c0.828,0,1.5-0.672,1.5-1.5S52.828,50,52,50z"/>
		<path class="fandom_elf" d="M23.958,18.842c-0.285,0.938-0.524,1.913-0.72,2.915c-3.996-1.067-6.75-4.268-7.38-7.757h3.088
			C19.334,15.397,20.494,17.791,23.958,18.842z M16,6.118V11h2V6.535L16,6.118z M17.349,34.162c0.08,0.961,0.17,2.078,0.257,3.179
			c1.212,0.237,2.392,0.187,3.578-0.12c0.187-1.012,0.385-2.166,0.578-3.426C19.865,34.799,18.313,34.547,17.349,34.162z
			 M15.985,50.515C16.161,50.197,16.496,50,16.859,50h1.829c-1.907-1.214-3.678-3.946-3.237-8.525
			c-0.515-0.057-1.112-0.064-1.793,0.014c-0.311,0.036-1.28,0.288-1.41,0.542c0,0,1.021,7.263,2.607,10.515L15.985,50.515z
			 M28.463,38.596c0-0.001,0.001-0.002,0-0.003c-1.259-0.029-2.216,0.086-3.063,0.323C24.289,47.076,22.066,49.416,21.23,50h5.006
			C27.928,46.065,28.355,40.886,28.463,38.596z M50.5,51.5c0,0.828,0.672,1.5,1.5,1.5v-3C51.172,50,50.5,50.672,50.5,51.5z"/>
		<path class="fandom_twaalf" d="M51,21.258V13c0-1.325,2-1.322,2,0v8.11C52.32,21.023,51.657,21.024,51,21.258z M49.646,4.458
			c-0.528,0.632-1.395,0.686-1.986,0.284c0.742,7.953-2.156,5.957-5.017,6.117c-1.021,0.057-2.043,0.252-2.99,0.644
			c0.59,0.458,1.083,0.995,1.492,1.594C44.088,12.31,50.726,15.618,49.646,4.458z M43.071,23.4c0.018,1.092,0.023,2.265,0.014,3.48
			c1.626,0.574,3.639,0.683,5.321,0.494c0.067-0.872,0.167-2.207,0.35-3.043C47.669,24.642,43.941,24.507,43.071,23.4z
			 M53.042,34.653c-0.663,1.614-1.011,1.974-1.011,1.409c0-0.482,0.02-1.489,0.028-1.854c-0.118-0.021-0.235-0.042-0.357-0.038
			c-0.505,0.016-0.952,0.172-1.346,0.41c-0.232,5.987-3.351,7.435-4.989,7.78c0.078,0.69,0.157,1.421,0.245,2.194
			c4.552-0.83,5.633-4.915,6.387-5.96c0.976-0.501,1.657-1.637,2.116-2.763C53.793,35.364,53.436,34.95,53.042,34.653z
			 M46.406,57.406c-3.15-0.722-5.346-2.227-6.87-4.084c0.478-0.761,1.392-2.286,1.557-3.166c2.307-0.4,3.192-1.456,3.531-2.272
			c-0.483-0.357-1.047-0.696-1.655-0.921c-0.461,1.353-1.689,1.162-1.689,1.162l0.034-1.416c-0.583,0.047-1.57,0.346-2.121,0.534
			c-0.298,2.567-0.7,2.888-1.65,3.64c-1.487-2.639-1.571-9.642-1.444-10.642c-0.884-0.365-1.853-0.702-2.908-0.975
			c-0.29,1.193-0.607,2.468-0.91,2.949c-0.516,0.819-1.776,0.501-1.845-0.465l-0.072-3.017c-0.931-0.11-1.353-0.125-1.902-0.137
			c-0.108,2.29-0.535,7.469-2.227,11.404h2.754c0.398,0,0.758,0.236,0.917,0.601l3.471,7.971
			C39.438,58.917,51.082,58.263,46.406,57.406z"/>
	</g>
</g>
</svg>