<?xml version="1.0" encoding="utf-8"?>
<!-- Generator: Adobe Illustrator 19.1.0, SVG Export Plug-In . SVG Version: 6.00 Build 0)  -->
<!DOCTYPE svg PUBLIC "-//W3C//DTD SVG 1.1//EN" "http://www.w3.org/Graphics/SVG/1.1/DTD/svg11.dtd">
<svg version="1.1" id="DESIGNS" xmlns="http://www.w3.org/2000/svg" xmlns:xlink="http://www.w3.org/1999/xlink" x="0px" y="0px"
	 width="64px" height="64px" viewBox="0 0 64 64" style="enable-background:new 0 0 64 64;" xml:space="preserve">
<style type="text/css">
	.fandom_drie{fill:#BE9148;}
	.fandom_vier{fill:#FFC865;}
	.fandom_negen{fill:#685683;}
	.fandom_tien{fill:#8579A3;}
	.fandom_zestien{fill:#4D4D4D;}
	.st0{fill:#FF786E;}
	.st1{fill:#BE5652;}
	.st2{fill:#EFEAE0;}
	.st3{fill:#AA9991;}
	.st4{fill:#FFFAFA;}
	.st5{fill:#644638;}
	.st6{fill:#6BC4D2;}
	.st7{fill:#508D9B;}
	.st8{fill:#4B322A;}
	.st9{fill:#3A3A3A;}
	.st10{fill:#808080;}
	.st11{fill:#CCCCCC;}
	.st12{fill:#666666;}
	.st13{fill:#018273;}
	.st14{fill:#00B3AA;}
</style>
<g>
	<g>
		<path class="fandom_vier" d="M32,7C18.193,7,7,18.193,7,32h50C57,18.193,45.807,7,32,7z"/>
		<path class="fandom_drie" d="M32,57c13.807,0,25-11.193,25-25H7C7,45.807,18.193,57,32,57z"/>
	</g>
	<g>
		<path class="fandom_zestien" d="M63.282,7.262c0.424-0.369,0.992,0.256,0.582,0.643L42.807,27.737
			c-0.977,0.92-2.367-0.556-1.39-1.476C41.439,26.24,63.259,7.282,63.282,7.262z M43.672,30.017
			c-0.859,0.593,0.037,1.89,0.896,1.297l19.287-13.318c0.362-0.251-0.004-0.796-0.372-0.562
			C63.461,17.447,43.693,30.003,43.672,30.017z M38.148,23.566c-0.721,0.995,0.783,2.084,1.504,1.089L55.239,3.122
			c0.302-0.418-0.315-0.884-0.634-0.478C54.586,2.668,38.166,23.541,38.148,23.566z M24.666,24.684
			c0.76,0.966,2.219-0.182,1.459-1.148L9.691,2.644C9.372,2.239,8.755,2.705,9.057,3.122C9.073,3.144,24.649,24.662,24.666,24.684z
			 M19.458,31.331c0.881,0.56,1.726-0.771,0.845-1.331L0.518,17.434c-0.372-0.236-0.732,0.314-0.372,0.562
			C0.164,18.009,19.439,31.319,19.458,31.331z M0.718,7.262C0.293,6.893-0.273,7.519,0.136,7.905
			c0.022,0.021,21.064,19.84,21.087,19.859c1.012,0.88,2.343-0.65,1.33-1.53L0.718,7.262z"/>
		<path class="fandom_tien" d="M54.073,43.74c0,0-16.917-11.068-17.663-11.98c-0.886-1.083-0.197-2.101-2.462-4.825
			c0,0-4.434-5.575-5.514-6.367c-1.477-1.083-2.987,0.361-2.987,0.361c-1.257-1.257-4.688,1.333-4.267,2.429
			c-1.18-1.011-4.488,2.101-3.676,4.267c-1.144,0.286-2.955,2.427-1.116,4.267c0,0-1.247,1.904-1.05,2.888
			c0.197,0.985,3.282,2.56,5.251,3.873c1.969,1.313,7.615,1.116,9.387,1.444c1.537,0.285,11.778,10.656,14.582,13.517
			C48.576,51.274,51.882,47.851,54.073,43.74z"/>
		<path class="fandom_negen" d="M32,24.536c1.335-1.616,2.967-3.529,3.566-3.968c1.477-1.083,2.987,0.361,2.987,0.361
			c1.26-1.26,4.687,1.336,4.267,2.429c1.185-1.016,4.484,2.112,3.676,4.267c1.149,0.287,2.952,2.43,1.116,4.267
			c0,0,1.247,1.904,1.05,2.888c-0.151,0.754-1.994,1.854-3.733,2.917c-4.125-2.754-8.163-5.501-8.519-5.936
			c-0.886-1.083-0.197-2.101-2.462-4.825C33.948,26.935,33.07,25.831,32,24.536z M50.107,49.227c0,0-14.339-11.028-18.621-11.494
			c-4.947-0.538-13.382-2.491-16.06-3.72c-0.088,0.263-0.197,0.328-0.088,0.766c0.177,0.71,1.884,1.92,3.559,3.033
			c-4.464,2.979-8.971,5.928-8.971,5.928c2.191,4.111,5.497,7.534,9.514,9.873c0,0,8.142-8.256,12.316-11.86
			c4.153,3.416,12.803,11.86,12.803,11.86C46.613,52.417,48.479,50.938,50.107,49.227z"/>
	</g>
</g>
</svg>