<?xml version="1.0" encoding="utf-8"?>
<!-- Generator: Adobe Illustrator 19.1.0, SVG Export Plug-In . SVG Version: 6.00 Build 0)  -->
<!DOCTYPE svg PUBLIC "-//W3C//DTD SVG 1.1//EN" "http://www.w3.org/Graphics/SVG/1.1/DTD/svg11.dtd">
<svg version="1.1" id="DESIGNS" xmlns="http://www.w3.org/2000/svg" xmlns:xlink="http://www.w3.org/1999/xlink" x="0px" y="0px"
	 width="64px" height="64px" viewBox="0 0 64 64" style="enable-background:new 0 0 64 64;" xml:space="preserve">
<style type="text/css">
	.fandom_een{fill:#FF786E;}
	.fandom_twee{fill:#BE5652;}
	.fandom_veertien{fill:#EFEAE0;}
	.fandom_negentien{fill:#CCCCCC;}
	.st0{fill:#00B3AA;}
	.st1{fill:#018273;}
	.st2{fill:#FFC865;}
	.st3{fill:#BE9148;}
	.st4{fill:#644638;}
	.st5{fill:#8579A3;}
	.st6{fill:#808080;}
	.st7{fill:#666666;}
	.st8{fill:#685683;}
	.st9{fill:#AA9991;}
	.st10{fill:#4D4D4D;}
	.st11{fill:#FFFAFA;}
	.st12{fill:#6BC4D2;}
	.st13{fill:#508D9B;}
	.st14{fill:#4B322A;}
	.st15{fill:#3A3A3A;}
</style>
<g>
	<g>
		<path class="fandom_een" d="M32,7C18.193,7,7,18.193,7,32h50C57,18.193,45.807,7,32,7z"/>
		<path class="fandom_twee" d="M32,57c13.807,0,25-11.193,25-25H7C7,45.807,18.193,57,32,57z"/>
	</g>
	<g>
		<path class="fandom_veertien" d="M57.668,42.564c-1.573-0.42-4.465-1.966-6.612-7.581c-3.097-8.1-6.016-9.665-14.706-10.998
			c0,0-2.297-4.795-2.645-8.168c0.53-0.73,0.53-2.581,0.226-3.363c-1.331-3.428-3.999-4.046-6.63-6.849
			c-1.015-1.4-2.174-2.56-4.198-2.602c-0.833-0.017-2.08,0.085-2.617,0.847c-0.443,0.628-0.411,1.475-0.347,2.204
			c0.079,0.897,0.299,4.322-0.012,6.922c-0.163,1.368-0.052,2.444,0.381,3.788c0.279,0.869,0.846,1.512,1.632,1.894
			c1.261,1.635,3.137,4.764,2.025,7.831c0,0-5.609,7.811-7.741,20.201c-1.431,8.315-2.608,10.897-4.674,11.422
			c-0.956,0.243-1.016,1.612-0.074,1.908c2.994,0.941,8.19-0.448,15.479-13.246c12.162-21.355,12.301-10.844,13.777-6.627
			s2.941,11.43,10.636,8.136c4.005-1.715,5.801-3.153,6.602-4.137C58.618,43.592,58.356,42.747,57.668,42.564z M22.192,4.06
			c0.988-0.29,2.233,0.052,3.016,0.631c2.526,1.869,2.156,5.5,2.704,8.246c0,0,0.4,2.01,0.379,2.026c0,0-1.294-2.115-1.444-2.314
			c-0.542-0.718-1.141-1.389-1.752-2.048c-0.774-0.834-1.586-1.636-2.311-2.506c-0.5-0.601-0.959-1.234-1.336-1.933
			C21.018,5.363,21.236,4.34,22.192,4.06z"/>
		<path class="fandom_negentien" d="M46.015,48.715c-3.054-1.33-4.067-5.661-5.085-8.569c-1.476-4.217-1.615-14.728-13.777,6.627
			c-3.965,6.962-7.309,10.543-10.018,12.214c3.599-0.487,9.681-1.007,11.959,0.621c1.011,0.722,1.412-1.046,1.334-3.662
			c1.471-0.738,5.135-2.33,10.319-2.893c6.837-0.743,5.268-4.317,5.268-4.317S46.016,48.727,46.015,48.715z"/>
	</g>
</g>
</svg>