<?xml version="1.0" encoding="utf-8"?>
<!-- Generator: Adobe Illustrator 19.1.0, SVG Export Plug-In . SVG Version: 6.00 Build 0)  -->
<!DOCTYPE svg PUBLIC "-//W3C//DTD SVG 1.1//EN" "http://www.w3.org/Graphics/SVG/1.1/DTD/svg11.dtd">
<svg version="1.1" id="DESIGNS" xmlns="http://www.w3.org/2000/svg" xmlns:xlink="http://www.w3.org/1999/xlink" x="0px" y="0px"
	 width="64px" height="64px" viewBox="0 0 64 64" style="enable-background:new 0 0 64 64;" xml:space="preserve">
<style type="text/css">
	.fandom_een{fill:#FF786E;}
	.fandom_twee{fill:#BE5652;}
	.fandom_drie{fill:#BE9148;}
	.fandom_vier{fill:#FFC865;}
	.fandom_vijftien{fill:#3A3A3A;}
	.fandom_zestien{fill:#4D4D4D;}
	.fandom_zeventien{fill:#666666;}
	.fandom_achttien{fill:#808080;}
	.st0{fill:#EFEAE0;}
	.st1{fill:#AA9991;}
	.st2{fill:#FFFAFA;}
	.st3{fill:#644638;}
	.st4{fill:#6BC4D2;}
	.st5{fill:#508D9B;}
	.st6{fill:#4B322A;}
	.st7{fill:#8579A3;}
	.st8{fill:#685683;}
	.st9{fill:#CCCCCC;}
	.st10{fill:#018273;}
	.st11{fill:#00B3AA;}
</style>
<g>
	<g>
		<path class="fandom_een" d="M32,7C18.193,7,7,18.193,7,32h50C57,18.193,45.807,7,32,7z"/>
		<path class="fandom_twee" d="M32,57c13.807,0,25-11.193,25-25H7C7,45.807,18.193,57,32,57z"/>
	</g>
	<g>
		<path class="fandom_vijftien" d="M53,48l-2,3H13l-2-3H53z M52,14H12l-2,3h44L52,14z"/>
		<polygon class="fandom_achttien" points="27.429,46 50.637,46 48.273,32 34.095,32 		"/>
		<path class="fandom_zestien" d="M50.637,46H13.381l2.472-14h32.42L50.637,46z M12.866,19h38.407l-2.782,9H15.648L12.866,19z
			 M54,17H10l4.173,13L11,48h42l-3.034-18L54,17z M25.5,10c-0.829,0-1.5,0.672-1.5,1.5V15h3v-2h5.732l2.304-3H25.5z"/>
		<path class="fandom_zeventien" d="M27.429,46H13.381l2.472-14h18.242L27.429,46z M51.273,19H12.866l2.782,9h32.843L51.273,19z
			 M38.5,10h-3.463l-2.304,3H37v2h3v-3.5C40,10.672,39.329,10,38.5,10z"/>
		<path class="fandom_drie" d="M20.063,46h-2.088c0.609-2.069,1.405-3.816,3.229-5.089c1.52-1.061,4.138-1.731,4.718-3.703
			c0.516-1.757-0.139-4.524-1.628-5.655c-1.548-1.175-3.914-0.802-5.509,0.068c0.414-0.902,0.883-1.779,1.412-2.619
			c1.836-0.375,3.905-0.166,5.408,1.037c1.574,1.259,2.251,3.359,2.422,5.3C28.632,42.195,21.892,39.957,20.063,46z M14.149,34.663
			c-1.889-0.328-3.5,1.092-3.721,2.918c-0.11,0.905,0.115,1.425,0.814,4.73c0.179,0.804,0.81,1.441,1.637,1.542
			c-0.138-3.656-0.908-4.88-0.105-6.901C12.773,36.951,14.054,34.808,14.149,34.663z M49.461,56.007
			c-0.172-0.86-0.92-1.525-1.793-1.599c-0.039,1.037,0.006,2.302-0.556,3.217c-0.575,0.936-1.554,1.612-2.577,1.974
			c-2.096,0.743-4.601,0.403-6.679-0.251c-2.062-0.649-3.904-2.497-3.131-4.805c1.663-4.967,8.719-2.779,10.505-6.513
			c0.814-1.702,0.124-3.898-1.135-5.197c-2.624-2.707-9.195-2.307-10.586,3.167h2.038c0.814-2.976,5.862-3.961,7.522-1.23
			c0.505,0.83,0.853,2.167-0.03,2.88c-1.865,1.504-6.867,0.781-9.503,4.815c-1.273,1.949-1.332,4.435,0.072,6.335
			c1.37,1.854,3.604,2.576,5.783,2.961c2.314,0.408,4.838,0.386,6.942-0.782C47.984,60.06,49.876,58.086,49.461,56.007z"/>
		<path class="fandom_vier" d="M33.507,46H31.48c0.402-3.189,2.8-5.801,5.918-6.516c4.549-1.044,9.608,1.239,10.14,6.277
			c0.25,2.364-0.896,4.526-2.983,5.653c-2.597,1.402-5.275,1.138-6.902,2.418c-1.811,1.424-1.714,3.263,2.451,3.993
			c3.143,0.551,5.399-0.441,5.399-1.441c0-2.216,2.166-1.974,2.166-1.974c-0.039,1.037,0.006,2.302-0.556,3.217
			c-0.575,0.936-1.554,1.612-2.577,1.974c-2.096,0.743-4.601,0.403-6.679-0.251c-2.062-0.649-3.904-2.497-3.131-4.805
			c1.663-4.967,8.719-2.779,10.505-6.513c0.814-1.702,0.124-3.898-1.135-5.197C41.469,40.126,34.898,40.526,33.507,46z
			 M30.019,35.165c-0.414-4.675-3.098-8.12-7.763-8.328c-4.869-0.206-9.279,2.922-10.231,8.223c0.636-0.387,1.333-0.535,2.125-0.397
			l-1.376,2.288c-0.804,2.021-0.032,3.244,0.106,6.901c0.826,0.1,1.592-0.368,1.958-1.106l1.5-3.108
			c0.216-0.385,0.364-0.82,0.421-1.29c0.122-1.005-0.19-1.957-0.783-2.649c0.317-1.665,1.218-3.207,2.811-4.076
			c0.414-0.902,0.883-1.779,1.412-2.619c1.836-0.375,3.905-0.166,5.408,1.037c1.574,1.259,2.251,3.359,2.422,5.3
			c0.606,6.855-6.134,4.617-7.964,10.66h2.106c0.193-0.551,0.413-1.025,0.748-1.346C24.856,42.801,30.613,41.899,30.019,35.165z"/>
	</g>
</g>
</svg>