<?xml version="1.0" encoding="utf-8"?>
<!-- Generator: Adobe Illustrator 19.1.0, SVG Export Plug-In . SVG Version: 6.00 Build 0)  -->
<!DOCTYPE svg PUBLIC "-//W3C//DTD SVG 1.1//EN" "http://www.w3.org/Graphics/SVG/1.1/DTD/svg11.dtd">
<svg version="1.1" id="DESIGNS" xmlns="http://www.w3.org/2000/svg" xmlns:xlink="http://www.w3.org/1999/xlink" x="0px" y="0px"
	 width="64px" height="64px" viewBox="0 0 64 64" style="enable-background:new 0 0 64 64;" xml:space="preserve">
<style type="text/css">
	.fandom_een{fill:#FF786E;}
	.fandom_twee{fill:#BE5652;}
	.fandom_drie{fill:#BE9148;}
	.fandom_vier{fill:#FFC865;}
	.fandom_vijf{fill:#018273;}
	.fandom_zes{fill:#00B3AA;}
	.fandom_zeven{fill:#508D9B;}
	.fandom_acht{fill:#6BC4D2;}
	.fandom_elf{fill:#4B322A;}
	.fandom_twaalf{fill:#644638;}
	.fandom_zestien{fill:#4D4D4D;}
	.fandom_zeventien{fill:#666666;}
	.st0{fill:#EFEAE0;}
	.st1{fill:#8579A3;}
	.st2{fill:#808080;}
	.st3{fill:#685683;}
	.st4{fill:#AA9991;}
	.st5{fill:#FFFAFA;}
	.st6{fill:#CCCCCC;}
	.st7{fill:#3A3A3A;}
</style>
<g>
	<g>
		<path class="fandom_acht" d="M32,7C18.193,7,7,18.193,7,32h50C57,18.193,45.807,7,32,7z"/>
		<path class="fandom_zeven" d="M32,57c13.807,0,25-11.193,25-25H7C7,45.807,18.193,57,32,57z"/>
	</g>
	<g>
		<path class="fandom_zestien" d="M33.633,27.034c0.34-0.707,3.035-12.943,9.597-15.604c-3.325-1.026-5.605-0.68-5.605-0.68
			c-1.281-0.156-2.214-3.377-3.78-3.357c-0.993,0.013-0.984,3.819-1.073,4.854c0,0-4.318,3.055-2.889,8.764
			c0.557,2.224-3.585,2.412-5.074,6.688C27.667,27.117,30.694,26.911,33.633,27.034z"/>
		<path class="fandom_zeventien" d="M48.159,31.394c0.212-3.848-2.062-4.083,0.176-7.409c1.344-1.998,1.092-4.477,2.292-6.543
			c0.239-0.411,3.395-4.599,1.866-4.575l-4.327,0.935c-0.29,0.063-0.595-0.002-0.83-0.183c-0.632-0.488-2.087-1.497-4.108-2.192
			c-6.52,2.666-9.255,14.899-9.595,15.606C39.578,27.283,44.792,28.888,48.159,31.394z"/>
		<path class="fandom_twaalf" d="M51,39.997c-1.084,0.387-1.407,1.345-3.006,1.345c-2.003,0-2.003-1.504-4.006-1.504
			c-2.002,0-2.002,1.504-4.003,1.504c-2,0-2-1.504-4-1.504c-2,0-2,1.504-3.999,1.504c-2,0-2-1.504-4-1.504
			c-2.067,0-2.021,1.622-4.21,1.498c-0.109,1.155-0.153,2.376-0.114,3.664h26.371C50.568,45,51,44.552,51,44
			C51,44,51,39.998,51,39.997z"/>
		<path class="fandom_elf" d="M23.776,41.336c-1.792-0.102-1.863-1.498-3.79-1.498c-1.999,0-1.999,1.504-3.998,1.504
			c-1.59,0-1.915-0.952-2.988-1.341V44c0,0.552,0.432,1,0.966,1h9.697C23.598,42.873,23.79,41.191,23.776,41.336z"/>
		<path class="fandom_zes" d="M51.07,38l-26.774,0.022c-0.23,1.036-0.409,2.141-0.52,3.314c2.188,0.124,2.144-1.498,4.21-1.498
			c2,0,2,1.504,4,1.504c2,0,2-1.504,3.999-1.504c2,0,2,1.504,4,1.504c2.002,0,2.002-1.504,4.003-1.504
			c2.003,0,2.003,1.504,4.006,1.504c1.741,0,1.969-1.137,3.315-1.434C52.265,39.698,52.283,38,51.07,38z"/>
		<path class="fandom_vijf" d="M12.984,38c-1.252,0-1.273,1.69-0.293,1.911c1.334,0.3,1.564,1.431,3.297,1.431
			c1.999,0,1.999-1.504,3.998-1.504c1.927,0,1.998,1.396,3.79,1.498c0.111-1.173,0.29-2.299,0.52-3.336H12.984z"/>
		<path class="fandom_een" d="M50.034,45H23.663c0.029,0.963,0.105,1.963,0.234,3h26.137C50.568,48,51,47.552,51,47v-1
			C51,45.448,50.568,45,50.034,45z"/>
		<path class="fandom_twee" d="M23.663,45h-9.697C13.432,45,13,45.448,13,46v1c0,0.552,0.432,1,0.966,1h9.931
			C23.768,46.963,23.692,45.963,23.663,45z"/>
		<path class="fandom_vier" d="M51.061,38h-26.76c1.283-5.762,4.131-9.411,5.541-10.933C30.553,27.027,31.27,27,32.001,27
			c10.232,0,18.675,3.971,19.973,9.737C52.113,37.352,51.679,38,51.061,38z M51.017,48H23.897c0.234,1.879,0.642,3.879,1.268,6
			H46.95c2.646,0,4.464-2.232,5.024-4.749C52.115,48.613,51.659,48,51.017,48z"/>
		<path class="fandom_drie" d="M29.849,27.059C28.441,28.578,25.586,32.23,24.301,38H13c-0.617,0-1.117-0.648-0.978-1.263
			C13.228,31.381,20.604,27.573,29.849,27.059z M23.897,48H12.983c-0.643,0-1.099,0.613-0.957,1.251
			C12.586,51.768,14.792,54,17.438,54h7.727C24.54,51.879,24.131,49.879,23.897,48z"/>
	</g>
</g>
</svg>