<?xml version="1.0" encoding="utf-8"?>
<!-- Generator: Adobe Illustrator 19.1.0, SVG Export Plug-In . SVG Version: 6.00 Build 0)  -->
<!DOCTYPE svg PUBLIC "-//W3C//DTD SVG 1.1//EN" "http://www.w3.org/Graphics/SVG/1.1/DTD/svg11.dtd">
<svg version="1.1" id="DESIGNS" xmlns="http://www.w3.org/2000/svg" xmlns:xlink="http://www.w3.org/1999/xlink" x="0px" y="0px"
	 width="64px" height="64px" viewBox="0 0 64 64" style="enable-background:new 0 0 64 64;" xml:space="preserve">
<style type="text/css">
	.fandom_een{fill:#FF786E;}
	.fandom_twee{fill:#BE5652;}
	.fandom_drie{fill:#BE9148;}
	.fandom_vier{fill:#FFC865;}
	.fandom_zeven{fill:#508D9B;}
	.fandom_acht{fill:#6BC4D2;}
	.fandom_elf{fill:#4B322A;}
	.fandom_twaalf{fill:#644638;}
	.fandom_veertien{fill:#EFEAE0;}
	.st0{fill:#AA9991;}
	.st1{fill:#FFFAFA;}
	.st2{fill:#8579A3;}
	.st3{fill:#685683;}
	.st4{fill:#4D4D4D;}
	.st5{fill:#3A3A3A;}
	.st6{fill:#808080;}
	.st7{fill:#CCCCCC;}
	.st8{fill:#666666;}
	.st9{fill:#018273;}
	.st10{fill:#00B3AA;}
</style>
<g>
	<g>
		<path class="fandom_acht" d="M32,7C18.193,7,7,18.193,7,32h50C57,18.193,45.807,7,32,7z"/>
		<path class="fandom_zeven" d="M32,57c13.807,0,25-11.193,25-25H7C7,45.807,18.193,57,32,57z"/>
	</g>
	<g>
		<path class="fandom_twaalf" d="M20.975,6.375l-2.228-1.763c-0.418-0.331-1.023-0.275-1.374,0.127l-0.235,0.27
			c-0.373,0.428-0.316,1.08,0.126,1.436l1.774,1.431L20.975,6.375z"/>
		<path class="fandom_drie" d="M31,22.984V60c-6.813-0.141-8-3-8-3V45h-2.997V34H23V23c0.062-7.689-3.975-15.135-3.975-15.135
			l1.063-0.803C23.208,8.888,31,13.697,31,22.984z M45,34h-5v11h5l2,2V35L45,34z"/>
		<path class="fandom_vier" d="M41,34v23c-1.796,3.405-10,3-10,3V22.984c0-9.288-7.792-14.096-10.911-15.923l0.862-0.668
			c10.584-0.663,15.777,4.053,18.254,11.929C41.275,24.9,41,34,41,34z M20,34l-2,1v12l2-2V34z"/>
		<path class="fandom_elf" d="M20.078,7.062l-1.04,0.812l-1.767-1.421c-0.521-0.438-0.469-1.016-0.053-1.532L20.078,7.062z"/>
		<rect x="25" y="34" class="fandom_twee" width="15" height="11"/>
		<path class="fandom_een" d="M40.42,31H25.137c-0.808,0-1.53-0.383-1.84-1.121c-1.594-3.795-0.516-5.132,1.53-6.625
			c0.676-0.493,1.12-0.842,1.127-1.172c0.011-0.502-0.06-1.007-0.211-1.498C25.344,19.295,26.339,18,27.66,18h14.967
			c0.891,0,1.66,0.592,1.915,1.441c0.974,3.243-0.271,4.419-1.527,5.659c-0.581,0.573-1.239,1.223-1.228,1.688
			c0.011,0.439,0.164,0.976,0.443,1.55C42.798,29.509,42.067,31,40.42,31z M42.626,20H27.66c0.21,0.671,0.311,1.41,0.294,2.127
			c-0.055,2.457-3.416,2.891-3.416,4.603c0,0.899,0.378,1.735,0.603,2.271h15.297c-0.401-0.818-0.631-1.43-0.649-2.163
			c-0.055-2.209,2.779-3.536,3.021-4.688C42.931,21.571,42.865,20.798,42.626,20z"/>
		<path class="fandom_veertien" d="M42.626,20.006L27.66,20.011c0.21,0.671,0.311,1.389,0.294,2.105
			c-0.055,2.457-3.416,2.891-3.416,4.603c0,0.899,0.378,1.746,0.603,2.281h15.283c-0.401-0.818-0.618-1.44-0.636-2.174
			c-0.055-2.209,2.779-3.536,3.021-4.688C42.931,21.561,42.865,20.804,42.626,20.006z"/>
	</g>
</g>
</svg>