<?xml version="1.0" encoding="utf-8"?>
<!-- Generator: Adobe Illustrator 19.1.0, SVG Export Plug-In . SVG Version: 6.00 Build 0)  -->
<!DOCTYPE svg PUBLIC "-//W3C//DTD SVG 1.1//EN" "http://www.w3.org/Graphics/SVG/1.1/DTD/svg11.dtd">
<svg version="1.1" id="DESIGNS" xmlns="http://www.w3.org/2000/svg" xmlns:xlink="http://www.w3.org/1999/xlink" x="0px" y="0px"
	 width="64px" height="64px" viewBox="0 0 64 64" style="enable-background:new 0 0 64 64;" xml:space="preserve">
<style type="text/css">
	.fandom_een{fill:#FF786E;}
	.fandom_twee{fill:#BE5652;}
	.fandom_vijf{fill:#018273;}
	.fandom_zes{fill:#00B3AA;}
	.fandom_negen{fill:#685683;}
	.fandom_tien{fill:#8579A3;}
	.fandom_dertien{fill:#AA9991;}
	.fandom_veertien{fill:#EFEAE0;}
	.fandom_zeventien{fill:#666666;}
	.fandom_achttien{fill:#808080;}
	.st0{fill:#FFC865;}
	.st1{fill:#BE9148;}
	.st2{fill:#644638;}
	.st3{fill:#4D4D4D;}
	.st4{fill:#FFFAFA;}
	.st5{fill:#6BC4D2;}
	.st6{fill:#508D9B;}
	.st7{fill:#CCCCCC;}
	.st8{fill:#4B322A;}
	.st9{fill:#3A3A3A;}
</style>
<g>
	<g>
		<path class="fandom_een" d="M32,7C18.193,7,7,18.193,7,32h50C57,18.193,45.807,7,32,7z"/>
		<path class="fandom_twee" d="M32,57c13.807,0,25-11.193,25-25H7C7,45.807,18.193,57,32,57z"/>
	</g>
	<g>
		<path class="fandom_vijf" d="M22.121,33.69l1.563,21.888C26.286,56.496,29.084,57,32,57V7L22.121,33.69z"/>
		<path class="fandom_zes" d="M40.316,55.578l1.57-21.985L32,7v50C34.916,57,37.714,56.496,40.316,55.578z"/>
		<path class="fandom_tien" d="M44.384,34.678L32.92,3.726C32.762,3.299,32.381,3.086,32,3.086V7l10.544,28.361
			c0.143,0.384,0.51,0.639,0.92,0.639C44.147,36,44.621,35.319,44.384,34.678z"/>
		<path class="fandom_achttien" d="M42.418,10.465V7.993c0.632-0.032,1.241-0.192,1.756-0.544c0.087-0.06,0.165-0.13,0.244-0.198
			v3.07C44.164,10.123,43.848,10,43.5,10C43.074,10,42.691,10.18,42.418,10.465z M39.037,20.24l4.421-7.245
			c-0.579-0.016-1.073-0.36-1.308-0.853l-4.483,4.4L39.037,20.24z M59.5,34c-0.657,0-1.21,0.851-1.412,2.027
			c-2.369,0.132-6.958,0.878-9.061,4.571c-1.624,2.852-5.324,3.649-7.915,3.841l-0.144,2.02c3.096-0.18,7.66-1.119,9.797-4.871
			c1.592-2.797,5.322-3.422,7.333-3.552C58.309,39.18,58.854,40,59.5,40c0.828,0,1.5-1.343,1.5-3S60.328,34,59.5,34z M56,49
			c0,1.657-0.672,3-1.5,3c-0.513,0-0.964-0.516-1.235-1.3c-2.065,1.506-4.319,2.262-6.752,2.262c-1.868,0-3.843-0.453-5.915-1.342
			l0.15-2.095c2.846,1.38,7.711,2.836,12.298-1.228C53.205,46.981,53.793,46,54.5,46C55.328,46,56,47.343,56,49z"/>
		<path class="fandom_zeventien" d="M22.686,41.603C21.512,41.8,19.892,42,18.149,42c-2.427,0-5.082-0.388-7.07-1.716
			c-1.686-1.126-2.69-2.769-2.984-4.882c-0.763-5.478-2.475-6.718-3.277-7C4.566,29.349,4.074,30,3.5,30C2.672,30,2,28.657,2,27
			s0.672-3,1.5-3c0.721,0,1.322,1.018,1.466,2.374c0.44,0.079,1.001,0.268,1.599,0.703c1.771,1.288,2.955,3.997,3.52,8.05
			c0.216,1.546,0.908,2.69,2.115,3.497c2.903,1.939,7.879,1.399,10.343,0.971L22.686,41.603z M22.996,45.941
			c-1.565,0.071-3.598,0.62-6.177,2.167c-1.472,0.883-2.829,1.107-4.148,0.685C10.044,47.954,8,44.008,8,44c0-1.657-0.672-3-1.5-3
			S5,42.343,5,44s0.672,3,1.5,3c0.255,0,0.491-0.139,0.702-0.364c0.984,1.472,2.607,3.338,4.85,4.059
			C12.684,50.898,13.324,51,13.972,51c1.272,0,2.57-0.393,3.876-1.176c2.342-1.405,4.062-1.856,5.29-1.903L22.996,45.941z"/>
		<path class="fandom_veertien" d="M45,11.5c0,0.828-0.672,1.5-1.5,1.5S42,12.328,42,11.5s0.672-1.5,1.5-1.5S45,10.672,45,11.5z
			 M40.966,2.753c-2.052,1.402-3.337,3.092-2.87,3.776s2.51,0.103,4.562-1.299s3.337-3.092,2.87-3.776
			C45.061,0.77,43.019,1.351,40.966,2.753z M31,43v-5h-2.373l0.312,5H31z M31,30.677l-2.903-1.161L28.502,36H31V30.677z M33,36
			h2.664l0.279-3.346L33,31.477V36z M33,38v5h2.08l0.417-5H33z"/>
		<path class="fandom_negen" d="M32,3.086V7L21.503,35.359C21.219,36.109,20.537,36,20.537,36c-0.684,0-1.158-0.681-0.92-1.322
			L31.08,3.726C31.238,3.299,31.619,3.086,32,3.086z M38.058,31.346L36.92,45h-9.859l-1.157-18.516L38.058,31.346z M35.942,32.654
			L33,31.477V36h2.664L35.942,32.654z M28.097,29.516L28.502,36H31v-5.323L28.097,29.516z M28.939,43H31v-5h-2.373L28.939,43z
			 M35.08,43l0.417-5H33v5H35.08z"/>
		<path class="fandom_dertien" d="M44.836,12.169C44.589,12.66,44.087,13,43.5,13c-0.828,0-1.5-0.672-1.5-1.5
			c0-0.587,0.34-1.089,0.831-1.336C42.184,11.451,43.548,12.816,44.836,12.169z M45.528,1.454c0.467,0.684-0.818,2.375-2.87,3.776
			c-2.052,1.401-4.095,1.983-4.562,1.299c0.467,0.684,4.025,2.322,6.078,0.92C46.226,6.048,45.995,2.138,45.528,1.454z"/>
	</g>
</g>
</svg>