<?xml version="1.0" encoding="utf-8"?>
<!-- Generator: Adobe Illustrator 19.1.0, SVG Export Plug-In . SVG Version: 6.00 Build 0)  -->
<!DOCTYPE svg PUBLIC "-//W3C//DTD SVG 1.1//EN" "http://www.w3.org/Graphics/SVG/1.1/DTD/svg11.dtd">
<svg version="1.1" id="DESIGNS" xmlns="http://www.w3.org/2000/svg" xmlns:xlink="http://www.w3.org/1999/xlink" x="0px" y="0px"
	 width="64px" height="64px" viewBox="0 0 64 64" style="enable-background:new 0 0 64 64;" xml:space="preserve">
<style type="text/css">
	.fandom_een{fill:#FF786E;}
	.fandom_twee{fill:#BE5652;}
	.fandom_negen{fill:#685683;}
	.fandom_tien{fill:#8579A3;}
	.fandom_zestien{fill:#4D4D4D;}
	.fandom_negentien{fill:#CCCCCC;}
	.fandom_twintig{fill:#FFFAFA;}
	.st0{fill:#644638;}
	.st1{fill:#4B322A;}
	.st2{fill:#EFEAE0;}
	.st3{fill:#AA9991;}
	.st4{fill:#FFC865;}
	.st5{fill:#BE9148;}
	.st6{fill:#808080;}
	.st7{fill:#666666;}
	.st8{fill:#6BC4D2;}
	.st9{fill:#508D9B;}
	.st10{fill:#018273;}
	.st11{fill:#3A3A3A;}
	.st12{fill:#00B3AA;}
</style>
<g>
	<g>
		<path class="fandom_tien" d="M32,7C18.193,7,7,18.193,7,32h50C57,18.193,45.807,7,32,7z"/>
		<path class="fandom_negen" d="M32,57c13.807,0,25-11.193,25-25H7C7,45.807,18.193,57,32,57z"/>
	</g>
	<g>
		<path class="fandom_twintig" d="M49.789,12.894L38,7l3,7l-9,20l-9-20l3-7l-11.789,5.894C12.856,13.572,12,14.957,12,16.472V53.8
			c0,0.663,0.537,1.2,1.2,1.2H18h28h4.95c0.58,0,1.05-0.47,1.05-1.05V16.472C52,14.957,51.144,13.572,49.789,12.894z"/>
		<path class="fandom_negentien" d="M23,14l3-7h12l3,7l-9,20L23,14z M49.564,26.386c0.307-0.272,0.103-0.711-0.221-0.836
			c-1.035-0.399-1.49-0.979-2.218-1.8c0,0-1.05-0.099-1.125-0.127v31.274c2.877,0.772-0.778-18.292,3.391-20.787
			c0.299-0.179,0.301-0.536,0.101-0.785c-0.938-1.172-1.84-2.369-2.728-3.578c-0.024-0.335-0.043-0.671-0.062-1.007
			C47.423,27.935,49.258,26.657,49.564,26.386z M30.86,36.596C23.21,28.074,24.843,26,22.302,8.848L14,13
			c-1.238,0.631-1.999,1.958-2,3.347l0,37.452C11.999,54.462,12.292,55,13.2,55h1.915c0,0-1.365-12.458-0.396-19.004
			c-0.026-1.408-0.601-2.408-0.236-3.893c0.553-2.246,2.932-2.102,0.284-7.938c-0.989-2.178-1.148-4.062-0.841-6.308L18,26v29
			h12.499c-3.333-3.417-4.5-4.25-10.5-14.833c2,1.5,6.085,3.429,8.169,3.813c0.506,0.093,0.812-0.443,0.486-0.836
			c-1.765-2.132-7.883-8.927-9.573-11.219c2.013,0.983,9.088,5.602,11.421,5.525C30.936,37.434,31.149,36.919,30.86,36.596z"/>
		<path class="fandom_een" d="M33.5,8H32v22l1.639-3.277c0.237-0.473,0.344-1.001,0.311-1.529l-0.92-14.723l0.763-0.763
			C34.39,9.11,34.046,8.546,33.5,8z"/>
		<path class="fandom_twee" d="M30.5,8c-0.546,0.546-0.89,1.11-0.293,1.707l0.763,0.763l-0.92,14.723
			c-0.033,0.528,0.074,1.056,0.311,1.529L32,30V8H30.5z"/>
		<path class="fandom_zestien" d="M46,27h6v4h-6V27z M52,19h-2.5l0.5-1v-5l-4-2v15l1.5-3H52V19z M46,39h6v-4h-6V39z M46,47h6v-4h-6
			V47z M46,51v4h5c0.552,0,1-0.448,1-1v-3H46z M38,7l2.827,6.596c0.11,0.257,0.108,0.549-0.007,0.804L38,20.667V55h4V9L38,7z M32,34
			l-2-4.444V55h4V29.556L32,34z M23.18,14.401c-0.115-0.255-0.117-0.547-0.007-0.804L26,7l-4,2v46h4V20.667L23.18,14.401z M14,13v5
			l0.5,1H12v4h4.5l1.5,3V11L14,13z M12,31h6v-4h-6V31z M12,39h6v-4h-6V39z M12,43v4h6v-4H12z M12,51v3c0,0.552,0.448,1,1,1h5v-4H12z
			"/>
	</g>
</g>
</svg>