<?xml version="1.0" encoding="utf-8"?>
<!-- Generator: Adobe Illustrator 19.1.0, SVG Export Plug-In . SVG Version: 6.00 Build 0)  -->
<!DOCTYPE svg PUBLIC "-//W3C//DTD SVG 1.1//EN" "http://www.w3.org/Graphics/SVG/1.1/DTD/svg11.dtd">
<svg version="1.1" id="DESIGNS" xmlns="http://www.w3.org/2000/svg" xmlns:xlink="http://www.w3.org/1999/xlink" x="0px" y="0px"
	 width="64px" height="64px" viewBox="0 0 64 64" style="enable-background:new 0 0 64 64;" xml:space="preserve">
<style type="text/css">
	.fandom_een{fill:#FF786E;}
	.fandom_twee{fill:#BE5652;}
	.fandom_elf{fill:#4B322A;}
	.fandom_twaalf{fill:#644638;}
	.fandom_vijftien{fill:#3A3A3A;}
	.fandom_zeventien{fill:#666666;}
	.fandom_achttien{fill:#808080;}
	.fandom_negentien{fill:#CCCCCC;}
	.st0{fill:#00B3AA;}
	.st1{fill:#018273;}
	.st2{fill:#EFEAE0;}
	.st3{fill:#FFC865;}
	.st4{fill:#BE9148;}
	.st5{fill:#8579A3;}
	.st6{fill:#685683;}
	.st7{fill:#AA9991;}
	.st8{fill:#4D4D4D;}
	.st9{fill:#FFFAFA;}
	.st10{fill:#6BC4D2;}
	.st11{fill:#508D9B;}
</style>
<g>
	<g>
		<path class="fandom_een" d="M32,7C18.193,7,7,18.193,7,32h50C57,18.193,45.807,7,32,7z"/>
		<path class="fandom_twee" d="M32,57c13.807,0,25-11.193,25-25H7C7,45.807,18.193,57,32,57z"/>
	</g>
	<g>
		<path class="fandom_vijftien" d="M59.422,7.764l-0.459-0.214c-0.287-0.134-0.614-0.162-0.92-0.078l-0.278,0.076l-0.152-0.542
			c0.329-0.181,0.522-0.443,0.459-0.669c-0.085-0.301-0.594-0.423-1.138-0.273c-0.544,0.151-0.916,0.517-0.831,0.819
			c0.064,0.226,0.365,0.351,0.742,0.336l0.152,0.539L55.457,8.18l-0.15-0.534c0.329-0.181,0.522-0.443,0.459-0.669
			c-0.085-0.301-0.594-0.423-1.138-0.273c-0.544,0.151-0.916,0.517-0.831,0.819c0.064,0.226,0.366,0.351,0.742,0.336l0.15,0.532
			L53.15,8.811l-0.148-0.527c0.329-0.181,0.522-0.443,0.459-0.669c-0.085-0.301-0.594-0.423-1.138-0.273
			c-0.544,0.151-0.916,0.517-0.831,0.819c0.064,0.226,0.365,0.351,0.742,0.336l0.147,0.525l-1.538,0.421l-0.146-0.52
			c0.329-0.181,0.522-0.443,0.459-0.669c-0.085-0.301-0.594-0.423-1.138-0.273c-0.544,0.151-0.916,0.517-0.831,0.819
			c0.064,0.226,0.366,0.351,0.742,0.336l0.145,0.517l-0.227,0.062c-0.501,0.137-0.875,0.551-0.956,1.059l-0.163,1.018
			c-0.066,0.414,0.072,0.835,0.372,1.132l1.413,1.397c0.296,0.293,0.716,0.43,1.13,0.37l2.153-0.312
			c0.34-0.049,0.648-0.227,0.858-0.497l0.739-0.948c0.885-1.134,1.985-2.085,3.24-2.801l0.329-0.187
			c0.059-0.034,0.116-0.072,0.169-0.114l0.492-0.392C60.204,8.98,60.095,8.078,59.422,7.764z"/>
		<path class="fandom_vijftien" d="M36.469,35.752c-0.101-0.308-0.51-0.389-0.795-0.152c-3.401,2.837-10.842-4.52-7.973-7.882
			c0.24-0.281,0.158-0.686-0.154-0.786c-1.434-0.458-5.416,0.516-6.219,3.579c-0.05,0.192,0.021,0.381,0.172,0.479
			c0.439,0.285,1.12,1.133-0.972,3.201c-2.055,2.032-2.83,0.952-3.089,0.285c-0.088-0.227-0.347-0.32-0.603-0.228
			C14.516,35.08,4.552,38.875,1.11,43.806c-0.253,0.362-0.046,0.8,0.369,0.774l1.65-0.103c0.3-0.019,0.597-0.164,0.816-0.399
			l0.273-0.292c0.243-0.26,0.58-0.409,0.908-0.401l9.907,0.249c0.378,0.01,0.688,0.226,0.807,0.565l0.497,1.412
			c0.203,0.575,0.66,1.027,1.241,1.227l1.428,0.492c0.342,0.118,0.562,0.424,0.571,0.798l0.252,9.795
			c0.008,0.324-0.142,0.657-0.406,0.897l-0.296,0.269c-0.238,0.217-0.385,0.511-0.404,0.807l-0.104,1.631
			c-0.026,0.41,0.416,0.614,0.783,0.365c4.987-3.403,8.825-13.254,9.668-15.549c0.093-0.253-0.001-0.509-0.231-0.596
			c-0.675-0.256-1.767-1.022,0.288-3.054c2.092-2.069,2.95-1.395,3.238-0.961c0.099,0.149,0.29,0.22,0.485,0.17
			C35.948,41.107,36.933,37.17,36.469,35.752z M22.415,45.057l-0.713,0.705c-0.197,0.195-0.516,0.195-0.713,0l-3.565-3.525
			c-0.197-0.195-0.197-0.51,0-0.705l0.713-0.705c0.197-0.195,0.516-0.195,0.713,0l3.565,3.525
			C22.612,44.547,22.612,44.863,22.415,45.057z M25.98,41.532l-1.426,1.41c-0.197,0.195-0.516,0.195-0.713,0l-3.565-3.525
			c-0.197-0.195-0.197-0.51,0-0.705l1.426-1.41c0.197-0.195,0.516-0.195,0.713,0l3.565,3.525
			C26.177,41.022,26.177,41.338,25.98,41.532z M30.259,37.302l-1.426,1.41c-0.197,0.195-0.516,0.195-0.713,0l-3.565-3.525
			c-0.197-0.195-0.197-0.51,0-0.705l1.426-1.41c0.197-0.195,0.516-0.195,0.713,0l3.565,3.525
			C30.456,36.792,30.456,37.108,30.259,37.302z M59.624,9.442l-0.492,0.392c-0.053,0.042-0.11,0.081-0.169,0.114l-0.329,0.187
			c-1.255,0.716-2.355,1.667-3.24,2.801l-0.739,0.948c-0.21,0.269-0.518,0.447-0.858,0.497l-2.153,0.312
			c-0.415,0.06-0.834-0.077-1.13-0.37l-1.413-1.397c-0.3-0.297-0.438-0.717-0.372-1.132l0.163-1.018
			c0.081-0.508,0.455-0.922,0.956-1.059l0.227-0.062l-0.145-0.517c-0.376,0.015-0.678-0.11-0.742-0.336
			c-0.085-0.301,0.287-0.668,0.831-0.819c0.544-0.151,1.053-0.029,1.138,0.273c0.063,0.226-0.13,0.488-0.459,0.669l0.146,0.52
			l1.538-0.421l-0.147-0.525c-0.376,0.015-0.678-0.11-0.742-0.336c-0.085-0.301,0.287-0.668,0.831-0.819
			c0.544-0.151,1.053-0.029,1.138,0.273c0.063,0.226-0.13,0.488-0.459,0.669l0.148,0.527l1.538-0.421l-0.15-0.532
			c-0.376,0.015-0.678-0.11-0.742-0.336c-0.085-0.301,0.287-0.668,0.831-0.819c0.544-0.151,1.053-0.029,1.138,0.273
			c0.064,0.226-0.13,0.488-0.459,0.669l0.15,0.534l1.538-0.421l-0.152-0.539c-0.376,0.015-0.678-0.11-0.742-0.336
			c-0.085-0.301,0.287-0.668,0.831-0.819c0.544-0.151,1.053-0.029,1.138,0.273c0.064,0.226-0.13,0.488-0.459,0.669l0.152,0.542
			l0.278-0.076c0.306-0.084,0.633-0.056,0.92,0.078l0.459,0.214C60.095,8.078,60.204,8.98,59.624,9.442z"/>
		<path class="fandom_elf" d="M31.727,35.699L50.64,14.421c-0.042-0.033-0.771-0.737-0.771-0.737L29.337,33.984
			C30.056,34.694,30.883,35.296,31.727,35.699z"/>
		<path class="fandom_twaalf" d="M29.337,33.984l20.531-20.299l-0.759-0.75L27.602,31.621
			C28.009,32.455,28.618,33.273,29.337,33.984z"/>
		<path class="fandom_zeventien" d="M23.128,48.347c0.591,0.584,1.548,0.584,2.139,0c0.172-0.17,0.288-0.373,0.36-0.587
			c0.174,0.52,0.058,1.114-0.36,1.528c-0.591,0.584-1.548,0.584-2.139,0c-0.418-0.414-0.534-1.008-0.36-1.528
			C22.839,47.974,22.955,48.177,23.128,48.347z M21.342,51.99c-0.174,0.52-0.058,1.114,0.36,1.528c0.591,0.584,1.548,0.584,2.139,0
			c0.418-0.414,0.534-1.008,0.36-1.528c-0.072,0.214-0.188,0.417-0.36,0.587c-0.591,0.584-1.548,0.584-2.139,0
			C21.529,52.407,21.413,52.204,21.342,51.99z M28.832,38.712l1.426-1.41c0.197-0.195,0.197-0.51,0-0.705l-3.565-3.525
			c-0.197-0.195-0.516-0.195-0.713,0l-1.426,1.41c-0.197,0.195-0.197,0.51,0,0.705l3.565,3.525
			C28.316,38.907,28.636,38.907,28.832,38.712z M24.554,42.942l1.426-1.41c0.197-0.195,0.197-0.51,0-0.705l-3.565-3.525
			c-0.197-0.195-0.516-0.195-0.713,0l-1.426,1.41c-0.197,0.195-0.197,0.51,0,0.705l3.565,3.525
			C24.038,43.137,24.357,43.137,24.554,42.942z"/>
		<path class="fandom_negentien" d="M20.989,45.762l-3.565-3.525c-0.197-0.195-0.197-0.51,0-0.705l0.713-0.705
			c0.197-0.195,0.516-0.195,0.713,0l3.565,3.525c0.197,0.195,0.197,0.51,0,0.705l-0.713,0.705
			C21.505,45.957,21.186,45.957,20.989,45.762z"/>
		<path class="fandom_achttien" d="M25.267,48.347c-0.591,0.584-1.548,0.584-2.139,0c-0.172-0.17-0.288-0.373-0.36-0.587
			c0.072-0.214,0.188-0.417,0.36-0.588c0.591-0.584,1.548-0.584,2.139,0c0.172,0.17,0.288,0.373,0.36,0.588
			C25.555,47.974,25.439,48.177,25.267,48.347z M24.201,51.99c-0.072-0.214-0.188-0.417-0.36-0.588
			c-0.591-0.584-1.548-0.584-2.139,0c-0.172,0.17-0.288,0.373-0.36,0.588c0.072,0.214,0.188,0.417,0.36,0.587
			c0.591,0.584,1.548,0.584,2.139,0C24.013,52.407,24.129,52.204,24.201,51.99z"/>
	</g>
</g>
</svg>