<?xml version="1.0" encoding="utf-8"?>
<!-- Generator: Adobe Illustrator 19.1.0, SVG Export Plug-In . SVG Version: 6.00 Build 0)  -->
<!DOCTYPE svg PUBLIC "-//W3C//DTD SVG 1.1//EN" "http://www.w3.org/Graphics/SVG/1.1/DTD/svg11.dtd">
<svg version="1.1" id="DESIGNS" xmlns="http://www.w3.org/2000/svg" xmlns:xlink="http://www.w3.org/1999/xlink" x="0px" y="0px"
	 width="64px" height="64px" viewBox="0 0 64 64" style="enable-background:new 0 0 64 64;" xml:space="preserve">
<style type="text/css">
	.fandom_een{fill:#FF786E;}
	.fandom_twee{fill:#BE5652;}
	.fandom_drie{fill:#BE9148;}
	.fandom_vier{fill:#FFC865;}
	.fandom_zestien{fill:#4D4D4D;}
	.fandom_achttien{fill:#808080;}
	.st0{fill:#EFEAE0;}
	.st1{fill:#AA9991;}
	.st2{fill:#FFFAFA;}
	.st3{fill:#644638;}
	.st4{fill:#6BC4D2;}
	.st5{fill:#508D9B;}
	.st6{fill:#4B322A;}
	.st7{fill:#8579A3;}
	.st8{fill:#685683;}
	.st9{fill:#3A3A3A;}
	.st10{fill:#CCCCCC;}
	.st11{fill:#666666;}
	.st12{fill:#018273;}
	.st13{fill:#00B3AA;}
</style>
<g>
	<g>
		<path class="fandom_een" d="M32,7C18.193,7,7,18.193,7,32h50C57,18.193,45.807,7,32,7z"/>
		<path class="fandom_twee" d="M32,57c13.807,0,25-11.193,25-25H7C7,45.807,18.193,57,32,57z"/>
	</g>
	<g>
		
			<ellipse transform="matrix(0.7071 0.7071 -0.7071 0.7071 37.9713 1.0905)" class="fandom_achttien" cx="17.669" cy="46.381" rx="12.06" ry="1.507"/>
		<path class="fandom_drie" d="M56.849,12.009c1.541-1.541,1.231-3.167,0.799-4.15C57.362,7.21,57,6.667,56.029,6.34
			c-1.768,0.609-3.949,3.675-4.139,5.091c-0.31,2.302-3.504,1.676-5.177,1.418c-2.031-0.313-3.75-1.166-5.421,0.465
			c-0.972,0.948-3.087,2.877-2.524,4.431c0.418,1.151,2.149,1.669,3.216,1.907c0.586,0.131,0.967,0.693,0.869,1.284
			c-0.1,0.598-0.643,1.009-1.239,0.941l-2.847-0.323c0,0-5.982,6.181-9.695,11.233c-0.177,0.24-0.384,0.449-0.624,0.625
			c-1.271,0.932-5.66,4.128-7.035,7.976c-0.211,0.59-0.635,1.079-1.167,1.411l-4.854,2.015l3.846,3.846l2.015-4.854
			c0.332-0.532,0.82-0.956,1.411-1.166c3.847-1.375,7.044-5.765,7.976-7.035c0.176-0.241,0.385-0.448,0.625-0.624
			c3.214-2.362,6.939-5.697,9.224-7.81c1.209-1.118,3.08-1.08,4.245,0.084c0,0-0.237,1.599,1.362,1.599s6.49-3.696,7.793-4.998
			s0.675-3.707-0.154-5.247c-0.829-1.54-0.888-4.915-0.888-4.915S54.421,14.437,56.849,12.009z M50.579,22.975
			c-0.703,0.711-3.229,3.132-4.247,2.334c-0.892-0.7-1.365-1.826-1.545-2.344c-0.053-0.154,0.025-0.321,0.178-0.376
			c0.973-0.355,4.359-1.45,5.636-0.017C50.703,22.686,50.687,22.867,50.579,22.975z"/>
		<path class="fandom_vier" d="M20.245,42.798l-4.854,2.015l-1.249-1.249c-0.514-0.514-0.329-1.386,0.348-1.648l3.771-1.457
			c0,0,1.184-3.198,3.198-5.33c2.013-2.132,4.678-3.375,4.678-3.375s1.717-3.257,4.441-6.573c2.724-3.316,6.218-5.863,6.218-5.863
			s-1.599,0.237-1.599-1.362c0-1.599,3.696-6.49,4.998-7.793c1.303-1.303,3.707-0.675,5.247,0.154
			c1.54,0.829,4.915,0.888,4.915,0.888s-0.746-1.575,1.682-4.003c1.462-1.462,2.997-1.256,3.991-0.862
			c-1.768,0.607-3.951,3.676-4.142,5.092c-0.31,2.302-3.504,1.676-5.177,1.418c-2.031-0.313-3.75-1.166-5.421,0.465
			c-0.972,0.948-3.087,2.877-2.524,4.431c0.418,1.151,2.149,1.669,3.215,1.907c0.586,0.131,0.967,0.693,0.869,1.284
			c-0.1,0.598-0.643,1.009-1.239,0.941l-2.847-0.323c0,0-5.982,6.181-9.695,11.233c-0.177,0.24-0.384,0.449-0.624,0.625
			c-1.271,0.932-5.66,4.128-7.035,7.976C21.201,41.977,20.777,42.466,20.245,42.798z M44.966,22.59
			c-0.153,0.056-0.231,0.223-0.178,0.376c0.18,0.517,0.653,1.644,1.545,2.344c1.018,0.798,3.543-1.624,4.246-2.334
			c0.107-0.109,0.124-0.289,0.023-0.403C49.325,21.14,45.939,22.235,44.966,22.59z M44.733,27.253
			c-1.164-1.164-3.036-1.202-4.245-0.084c-2.285,2.114-6.01,5.448-9.224,7.81c-0.24,0.177-0.449,0.384-0.625,0.624
			c-0.932,1.271-4.128,5.66-7.976,7.035c-0.59,0.211-1.079,0.635-1.411,1.166l-2.015,4.854l1.249,1.249
			c0.514,0.514,1.386,0.329,1.648-0.348l1.457-3.771c0,0,3.198-1.184,5.33-3.198c2.132-2.013,3.375-4.678,3.375-4.678
			s3.257-1.717,6.573-4.441C42.186,30.747,44.733,27.253,44.733,27.253z"/>
		<path class="fandom_zestien" d="M16.603,47.447c-4.71-4.71-8.05-9.005-7.462-9.594c-0.016,0.016-4.974,4.974-4.974,4.974
			c-0.589,0.589,2.752,4.884,7.462,9.594c4.71,4.71,9.005,8.05,9.594,7.462l4.974-4.974C25.608,55.497,21.313,52.156,16.603,47.447z
			"/>
	</g>
</g>
</svg>