<?xml version="1.0" encoding="utf-8"?>
<!-- Generator: Adobe Illustrator 19.1.0, SVG Export Plug-In . SVG Version: 6.00 Build 0)  -->
<!DOCTYPE svg PUBLIC "-//W3C//DTD SVG 1.1//EN" "http://www.w3.org/Graphics/SVG/1.1/DTD/svg11.dtd">
<svg version="1.1" id="DESIGNS" xmlns="http://www.w3.org/2000/svg" xmlns:xlink="http://www.w3.org/1999/xlink" x="0px" y="0px"
	 width="64px" height="64px" viewBox="0 0 64 64" style="enable-background:new 0 0 64 64;" xml:space="preserve">
<style type="text/css">
	.fandom_vier{fill:#FFC865;}
	.fandom_vijf{fill:#018273;}
	.fandom_zes{fill:#00B3AA;}
	.fandom_zeven{fill:#508D9B;}
	.fandom_acht{fill:#6BC4D2;}
	.fandom_twaalf{fill:#644638;}
	.st0{fill:#4B322A;}
	.st1{fill:#EFEAE0;}
	.st2{fill:#BE5652;}
	.st3{fill:#FF786E;}
	.st4{fill:#8579A3;}
	.st5{fill:#685683;}
	.st6{fill:#4D4D4D;}
	.st7{fill:#3A3A3A;}
	.st8{fill:#CCCCCC;}
	.st9{fill:#AA9991;}
	.st10{fill:#BE9148;}
	.st11{fill:#808080;}
	.st12{fill:#666666;}
	.st13{fill:#FFFAFA;}
</style>
<g>
	<g>
		<path class="fandom_acht" d="M32,7C18.193,7,7,18.193,7,32h50C57,18.193,45.807,7,32,7z"/>
		<path class="fandom_zeven" d="M32,57c13.807,0,25-11.193,25-25H7C7,45.807,18.193,57,32,57z"/>
	</g>
	<g>
		<path class="fandom_twaalf" d="M30,56.922C30.661,56.974,31.326,57,32,57s1.339-0.026,2-0.078V35h-4V56.922z"/>
		<path class="fandom_zes" d="M50,33c0.552,0,1-0.449,1-1v-8c0-0.551-0.448-1-1-1h-7.981l-10,10H50z"/>
		<path class="fandom_vijf" d="M25.685,21c1.126-2.361,3.53-4,6.315-4s5.189,1.639,6.315,4H25.685z M14,23c-0.552,0-1,0.449-1,1v8
			c0,0.551,0.448,1,1,1h18.019l10-10H14z"/>
		<path class="fandom_vier" d="M50,21h-9.523c-1.237-3.493-4.56-6-8.477-6s-7.24,2.507-8.477,6H14c-1.654,0-3,1.346-3,3v8
			c0,1.654,1.346,3,3,3h36c1.654,0,3-1.346,3-3v-8C53,22.346,51.654,21,50,21z M32,17c2.785,0,5.189,1.639,6.315,4h-12.63
			C26.811,18.639,29.215,17,32,17z M51,32c0,0.551-0.448,1-1,1H14c-0.552,0-1-0.449-1-1v-8c0-0.551,0.448-1,1-1h36
			c0.552,0,1,0.449,1,1V32z"/>
	</g>
</g>
</svg>