<?xml version="1.0" encoding="utf-8"?>
<!-- Generator: Adobe Illustrator 19.1.0, SVG Export Plug-In . SVG Version: 6.00 Build 0)  -->
<!DOCTYPE svg PUBLIC "-//W3C//DTD SVG 1.1//EN" "http://www.w3.org/Graphics/SVG/1.1/DTD/svg11.dtd">
<svg version="1.1" id="DESIGNS" xmlns="http://www.w3.org/2000/svg" xmlns:xlink="http://www.w3.org/1999/xlink" x="0px" y="0px"
	 width="64px" height="64px" viewBox="0 0 64 64" style="enable-background:new 0 0 64 64;" xml:space="preserve">
<style type="text/css">
	.fandom_een{fill:#FF786E;}
	.fandom_twee{fill:#BE5652;}
	.fandom_drie{fill:#BE9148;}
	.fandom_vier{fill:#FFC865;}
	.fandom_vijf{fill:#018273;}
	.fandom_zes{fill:#00B3AA;}
	.fandom_twaalf{fill:#644638;}
	.fandom_dertien{fill:#AA9991;}
	.fandom_veertien{fill:#EFEAE0;}
	.st0{fill:#6BC4D2;}
	.st1{fill:#508D9B;}
	.st2{fill:#8579A3;}
	.st3{fill:#685683;}
	.st4{fill:#3A3A3A;}
	.st5{fill:#666666;}
	.st6{fill:#4D4D4D;}
	.st7{fill:#CCCCCC;}
	.st8{fill:#808080;}
	.st9{fill:#4B322A;}
	.st10{fill:#FFFAFA;}
</style>
<g>
	<g>
		<path class="fandom_zes" d="M57,32H7C7,18.193,18.193,7,32,7S57,18.193,57,32z M11.101,4.317c-0.457-0.654-0.72-0.995-1.717-0.845
			C9.307,3.484,9.251,3.538,9.23,3.604c0.588,0.134,1.119,0.4,1.584,0.787C10.982,4.342,10.816,4.374,11.101,4.317z M12.52,3.231
			l-1.296,1.06c0.281-0.025,0.466-0.012,0.741,0.019C12.29,3.997,12.539,3.328,12.52,3.231z M5.55,7.744
			c0.011,0.612,0.093,2.013,0.093,2.013C5.818,9.47,5.967,9.289,6.194,9.044C6.124,8.51,5.656,7.794,5.55,7.744z M5.163,9.868
			C4.52,9.852,3.95,10.186,3.637,10.777c-0.079,0.149-0.166,0.259-0.064,0.398c0.535-0.46,1.155-0.774,1.839-0.949
			C5.321,10.129,5.268,10.044,5.163,9.868z"/>
		<path class="fandom_vijf" d="M7,32h50c0,13.807-11.193,25-25,25S7,45.807,7,32z M9.243,3.609C9.184,3.805,9.52,4.46,10.172,4.651
			c0.184-0.098,0.395-0.186,0.641-0.26C10.352,4.007,9.825,3.744,9.243,3.609z M11.225,4.291c0,0,1.276-1.043,1.296-1.06
			c-0.02-0.103-0.125-0.181-0.241-0.147c-0.82,0.238-1.329,0.345-1.504,1.321C11.071,4.315,10.887,4.346,11.225,4.291z
			 M3.587,11.166c0.158,0.211,1.033,0.324,1.662-0.154c0.036-0.247,0.101-0.513,0.205-0.802C4.758,10.382,4.13,10.702,3.587,11.166z
			 M5.441,10.255c0.038-0.107,0.071-0.28,0.202-0.499L5.55,7.743C5.099,7.53,4.483,9.243,5.441,10.255z"/>
	</g>
	<g>
		<path class="fandom_vier" d="M32,15c0,7.18-5.82,13-13,13S6,22.18,6,15S11.82,2,19,2S32,7.82,32,15z M50,20c-4.971,0-9,4.029-9,9
			s4.029,9,9,9s9-4.029,9-9S54.971,20,50,20z M30,35c-7.18,0-13,5.82-13,13s5.82,13,13,13s13-5.82,13-13S37.18,35,30,35z"/>
		<path class="fandom_een" d="M12.112,8.268c-0.164,0.223-0.531,0.27-0.746,0.098C7.196,5.015,15.282,3.952,12.112,8.268z
			 M9.828,12.652c0.359-0.095,0.602-0.532,0.491-0.888C8.176,4.879,2.841,14.498,9.828,12.652z"/>
		<path class="fandom_twee" d="M11.52,4.279c-0.248-0.001-0.37,0.015-0.609,0.08C7.667,5.23,9.818,8.305,11.22,9.432
			c0.377,0.303,1.021,0.218,1.307-0.171C13.593,7.81,14.879,4.285,11.52,4.279z M12.112,8.268c-0.164,0.223-0.531,0.27-0.746,0.098
			C7.192,5.011,15.278,3.957,12.112,8.268z M11.357,12.017C10.717,9.963,8.238,6.222,5.848,9.45
			C5.66,9.702,5.595,9.829,5.492,10.093c-1.464,3.74,3.021,3.853,5.102,3.303C11.151,13.249,11.529,12.569,11.357,12.017z
			 M9.828,12.652c-6.984,1.845-1.653-7.778,0.491-0.888C10.43,12.119,10.187,12.557,9.828,12.652z"/>
		<path class="fandom_veertien" d="M53.597,25.296l-0.005,1.731h-1.835c-0.381,0-0.69-0.309-0.69-0.69v-2.041h1.53
			C53.149,24.296,53.597,24.743,53.597,25.296z M55.535,28.839l-1.227-0.913l-1.218,1.638c-0.227,0.306-0.164,0.738,0.142,0.965
			l1.473,1.095l1.037-1.386C56.07,29.795,55.978,29.168,55.535,28.839z"/>
		<path class="fandom_dertien" d="M53.231,30.529c-0.306-0.227-0.369-0.66-0.142-0.965l1.218-1.638l-0.392-0.292
			c-0.108-0.081-0.233-0.112-0.358-0.122c0.02-0.064,0.04-0.128,0.04-0.198v-0.288h-1.84c-0.381,0-0.69-0.309-0.69-0.69v-2.041
			h-0.489c-0.381,0-0.69,0.309-0.69,0.69v2.329c0,0.381,0.309,0.69,0.69,0.69h2.201l-1.22,1.64
			c-0.227,0.306-0.164,0.738,0.142,0.965l1.868,1.39c0.306,0.227,0.738,0.164,0.965-0.142l0.172-0.231L53.231,30.529z"/>
		<path class="fandom_drie" d="M19.188,11.896l-0.488,1.37c-0.121,0.34-0.494,0.517-0.833,0.396l-1.266-0.451
			c-0.34-0.121-0.517-0.494-0.396-0.833l0.488-1.37c0.121-0.34,0.494-0.517,0.833-0.396l1.266,0.451
			C19.132,11.184,19.309,11.557,19.188,11.896z M13.566,21.739l1.266,0.451c0.34,0.121,0.713-0.056,0.833-0.396l0.488-1.37
			c0.121-0.34-0.057-0.713-0.396-0.833l-1.266-0.451c-0.34-0.121-0.713,0.056-0.833,0.396l-0.488,1.37
			C13.05,21.245,13.227,21.618,13.566,21.739z M18.21,6.745l-0.488,1.37c-0.121,0.34,0.056,0.713,0.396,0.833l1.266,0.451
			c0.34,0.121,0.713-0.056,0.833-0.396l0.488-1.37c0.121-0.34-0.057-0.713-0.396-0.833l-1.266-0.451
			C18.704,6.228,18.331,6.405,18.21,6.745z M13.116,13.846l-1.266-0.451c-0.34-0.121-0.713,0.056-0.833,0.396l-0.488,1.37
			c-0.121,0.34,0.056,0.713,0.396,0.833l1.266,0.451c0.34,0.121,0.713-0.056,0.833-0.396l0.488-1.37
			C13.632,14.34,13.455,13.967,13.116,13.846z M17.184,17.53l0.488-1.37c0.121-0.34-0.056-0.713-0.396-0.833l-1.266-0.451
			c-0.339-0.121-0.713,0.056-0.833,0.396l-0.488,1.37c-0.121,0.34,0.056,0.713,0.396,0.833l1.266,0.451
			C16.689,18.047,17.063,17.87,17.184,17.53z M17.726,23.219l1.266,0.451c0.34,0.121,0.713-0.056,0.833-0.396l0.488-1.37
			c0.121-0.34-0.057-0.713-0.396-0.833l-1.266-0.451c-0.34-0.121-0.713,0.056-0.833,0.396l-0.488,1.37
			C17.209,22.725,17.387,23.099,17.726,23.219z M24.92,16.172l1.266,0.451c0.34,0.121,0.713-0.056,0.833-0.396l0.488-1.37
			c0.121-0.34-0.057-0.713-0.396-0.833l-1.266-0.451c-0.34-0.121-0.713,0.056-0.833,0.396l-0.488,1.37
			C24.403,15.679,24.581,16.052,24.92,16.172z M26.529,9.705l-0.488,1.37c-0.121,0.34,0.056,0.713,0.396,0.833l1.266,0.451
			c0.339,0.121,0.713-0.056,0.833-0.396l0.488-1.37c0.121-0.34-0.056-0.713-0.396-0.833l-1.266-0.451
			C27.023,9.188,26.65,9.366,26.529,9.705z M25.061,6.616c0.34,0.121,0.713-0.056,0.833-0.396l0.023-0.065
			c-0.716-0.558-1.495-1.025-2.316-1.393l-0.203,0.57c-0.121,0.34,0.056,0.713,0.396,0.833L25.061,6.616z M20.76,14.692l1.266,0.451
			c0.339,0.121,0.713-0.056,0.833-0.396l0.488-1.37c0.121-0.34-0.056-0.713-0.396-0.834l-1.266-0.451
			c-0.339-0.121-0.713,0.056-0.833,0.396l-0.488,1.37C20.244,14.198,20.421,14.572,20.76,14.692z M11.507,20.314l0.488-1.37
			c0.121-0.34-0.056-0.713-0.396-0.834l-1.266-0.451c-0.339-0.121-0.713,0.056-0.833,0.396l-0.488,1.37
			c-0.121,0.34,0.056,0.713,0.396,0.833l1.266,0.451C11.013,20.83,11.386,20.653,11.507,20.314z M21.735,4.74l0.204-0.573
			c-0.868-0.236-1.765-0.369-2.672-0.392l-0.028,0.077c-0.121,0.34,0.056,0.713,0.396,0.833l1.266,0.451
			C21.241,5.256,21.614,5.079,21.735,4.74z M24.377,10.483l0.488-1.37c0.121-0.34-0.057-0.713-0.396-0.834l-1.266-0.451
			c-0.34-0.121-0.713,0.056-0.833,0.396l-0.488,1.37c-0.121,0.34,0.056,0.713,0.396,0.833l1.266,0.451
			C23.883,11,24.257,10.823,24.377,10.483z M25.503,20.491l0.488-1.37c0.121-0.34-0.057-0.713-0.396-0.833l-1.266-0.451
			c-0.34-0.121-0.713,0.056-0.833,0.396l-0.488,1.37c-0.121,0.34,0.056,0.713,0.396,0.833l1.266,0.451
			C25.009,21.007,25.382,20.83,25.503,20.491z M24.077,22.55L22.811,22.1c-0.339-0.121-0.713,0.056-0.833,0.396l-0.488,1.37
			c-0.121,0.34,0.056,0.713,0.396,0.833l1.266,0.451c0.339,0.121,0.713-0.056,0.833-0.396l0.488-1.37
			C24.594,23.044,24.417,22.671,24.077,22.55z M28.487,19.316c-0.339-0.121-0.713,0.056-0.833,0.396l-0.488,1.37
			c-0.121,0.34,0.056,0.713,0.396,0.833l0.229,0.081c0.582-0.732,1.073-1.539,1.46-2.409L28.487,19.316z M21.343,19.01l0.488-1.37
			c0.121-0.34-0.057-0.713-0.396-0.833l-1.266-0.451c-0.34-0.121-0.713,0.056-0.833,0.396l-0.488,1.37
			c-0.121,0.34,0.056,0.713,0.396,0.833l1.266,0.451C20.849,19.527,21.222,19.35,21.343,19.01z M30.235,15.135l-0.23-0.082
			c-0.34-0.121-0.713,0.056-0.833,0.396l-0.488,1.37c-0.121,0.34,0.056,0.713,0.396,0.833l0.764,0.272
			C30.093,17.006,30.223,16.07,30.235,15.135z M18.796,26.167c0.121-0.34-0.056-0.713-0.396-0.833l-1.266-0.451
			c-0.339-0.121-0.713,0.056-0.833,0.396l-0.203,0.57c0.883,0.238,1.781,0.366,2.679,0.385
			C18.782,26.212,18.788,26.19,18.796,26.167z M12.533,9.528l-0.488,1.37c-0.121,0.34,0.056,0.713,0.396,0.833l1.266,0.451
			c0.34,0.121,0.713-0.056,0.833-0.396l0.488-1.37c0.121-0.34-0.057-0.713-0.396-0.834l-1.266-0.451
			C13.027,9.011,12.654,9.189,12.533,9.528z M14.241,23.854l-1.266-0.451c-0.34-0.121-0.713,0.056-0.833,0.396l-0.028,0.079
			c0.708,0.548,1.486,1.013,2.32,1.383l0.204-0.574C14.758,24.348,14.58,23.974,14.241,23.854z M10.448,10.121l0.373-1.048
			c-0.257-0.25-0.517-0.544-0.753-0.866c-0.192,0.253-0.364,0.521-0.536,0.79C9.872,9.317,10.18,9.706,10.448,10.121z M7.861,13.596
			c-0.054,0.424-0.091,0.85-0.096,1.276l0.266,0.095c0.34,0.121,0.713-0.056,0.833-0.396l0.339-0.953
			C8.765,13.648,8.307,13.642,7.861,13.596z M16.15,5.319l-1.266-0.451c-0.339-0.121-0.713,0.056-0.833,0.396l-0.376,1.057
			c-0.014,0.235-0.051,0.476-0.11,0.719c0.058,0.191,0.192,0.356,0.394,0.428l1.266,0.451c0.339,0.121,0.713-0.056,0.833-0.396
			l0.488-1.37C16.667,5.813,16.489,5.44,16.15,5.319z M47.862,29.255c-0.246-0.04-0.477,0.127-0.516,0.373l-0.148,0.916
			c-0.04,0.245,0.127,0.477,0.373,0.516l0.991,0.16c0.245,0.04,0.477-0.127,0.516-0.373l0.148-0.916
			c0.04-0.245-0.127-0.477-0.373-0.516L47.862,29.255z M49.563,27.839l0.148-0.916c0.04-0.245-0.127-0.477-0.373-0.516l-0.991-0.16
			c-0.246-0.04-0.477,0.127-0.516,0.373l-0.148,0.916c-0.04,0.245,0.127,0.477,0.373,0.516l0.991,0.16
			C49.292,28.252,49.524,28.085,49.563,27.839z M49.824,23.4l-0.991-0.16c-0.245-0.04-0.477,0.127-0.516,0.373l-0.148,0.916
			c-0.04,0.245,0.127,0.477,0.373,0.516l0.991,0.16c0.245,0.04,0.477-0.127,0.516-0.373l0.148-0.916
			C50.237,23.671,50.07,23.439,49.824,23.4z M49.795,34.049c-0.04,0.245,0.127,0.477,0.373,0.516l0.991,0.16
			c0.246,0.04,0.477-0.127,0.516-0.373l0.148-0.916c0.04-0.245-0.127-0.477-0.373-0.516l-0.991-0.16
			c-0.245-0.04-0.477,0.127-0.516,0.373L49.795,34.049z M48.254,35.947c0.04-0.245-0.127-0.477-0.373-0.516l-0.991-0.16
			c-0.246-0.04-0.477,0.127-0.516,0.373l-0.027,0.165c0.569,0.303,1.179,0.536,1.817,0.691L48.254,35.947z M50.535,21.824
			l0.094-0.579c-0.655-0.054-1.306-0.025-1.942,0.083l-0.031,0.192c-0.04,0.245,0.127,0.477,0.373,0.516l0.991,0.16
			C50.264,22.236,50.495,22.069,50.535,21.824z M45.75,22.742c-0.245-0.04-0.477,0.127-0.516,0.373l-0.148,0.916
			c-0.04,0.245,0.127,0.477,0.373,0.516l0.991,0.16c0.246,0.04,0.477-0.127,0.516-0.373l0.148-0.916
			c0.04-0.245-0.127-0.477-0.373-0.516L45.75,22.742z M45.77,28.917l-0.991-0.16c-0.245-0.04-0.477,0.127-0.516,0.373l-0.148,0.916
			c-0.04,0.245,0.127,0.477,0.373,0.516l0.991,0.16c0.246,0.04,0.477-0.127,0.516-0.373l0.148-0.916
			C46.182,29.188,46.015,28.957,45.77,28.917z M44.002,33.57l0.991,0.16c0.245,0.04,0.477-0.127,0.516-0.373l0.148-0.916
			c0.04-0.245-0.127-0.477-0.373-0.516l-0.991-0.16c-0.245-0.04-0.477,0.127-0.516,0.373l-0.148,0.916
			C43.589,33.299,43.756,33.53,44.002,33.57z M43.397,26.844l0.148-0.916c0.04-0.245-0.127-0.477-0.373-0.516l-0.057-0.009
			c-0.284,0.549-0.502,1.135-0.649,1.747l0.415,0.067C43.127,27.256,43.358,27.089,43.397,26.844z M42.912,29.851l0.148-0.916
			c0.04-0.245-0.127-0.477-0.373-0.516l-0.412-0.067c-0.051,0.629-0.026,1.255,0.073,1.866c0.016,0.001,0.032,0.002,0.048,0.005
			C42.641,30.264,42.872,30.097,42.912,29.851z M52.111,22.535l0.991,0.16c0.245,0.04,0.477-0.127,0.516-0.373l0.031-0.194
			c-0.569-0.303-1.179-0.535-1.817-0.69l-0.094,0.58C51.698,22.264,51.865,22.495,52.111,22.535z M48.592,33.855l0.148-0.916
			c0.04-0.245-0.127-0.477-0.373-0.516l-0.991-0.16c-0.246-0.04-0.477,0.127-0.516,0.373l-0.148,0.916
			c-0.04,0.245,0.127,0.477,0.373,0.516l0.991,0.16C48.321,34.267,48.552,34.1,48.592,33.855z M46.48,27.341l0.148-0.916
			c0.04-0.245-0.127-0.477-0.373-0.516l-0.991-0.16c-0.245-0.04-0.477,0.127-0.516,0.373L44.6,27.038
			c-0.04,0.245,0.127,0.477,0.373,0.516l0.991,0.16C46.21,27.754,46.441,27.587,46.48,27.341z M57.08,28.114l-0.148,0.916
			c-0.04,0.245,0.127,0.477,0.373,0.516l0.415,0.067c0.052-0.618,0.03-1.244-0.067-1.863l-0.056-0.009
			C57.351,27.702,57.12,27.868,57.08,28.114z M56.215,25.828l0.148-0.916c0.04-0.245-0.127-0.477-0.373-0.516l-0.991-0.16
			c-0.245-0.04-0.477,0.127-0.516,0.373l-0.148,0.916c-0.04,0.245,0.127,0.477,0.373,0.516l0.991,0.16
			C55.944,26.24,56.175,26.073,56.215,25.828z M51.31,36.611l0.027-0.167c0.04-0.245-0.127-0.477-0.373-0.516l-0.991-0.16
			c-0.245-0.04-0.477,0.127-0.516,0.373l-0.089,0.553C50.022,36.749,50.674,36.72,51.31,36.611z M56.819,32.554l0.047,0.008
			c0.29-0.556,0.509-1.142,0.657-1.746l-0.412-0.067c-0.246-0.04-0.477,0.127-0.516,0.373l-0.148,0.916
			C56.407,32.283,56.574,32.514,56.819,32.554z M53.25,35.063l0.991,0.16c0.245,0.04,0.477-0.127,0.516-0.373l0.148-0.916
			c0.04-0.245-0.127-0.477-0.373-0.516l-0.991-0.16c-0.245-0.04-0.477,0.127-0.516,0.373l-0.148,0.916
			C52.838,34.793,53.005,35.024,53.25,35.063z M52.597,24.296c0.255,0,0.483,0.103,0.66,0.261l0.023-0.143
			c0.04-0.245-0.127-0.477-0.373-0.516l-0.991-0.16c-0.246-0.04-0.477,0.127-0.516,0.373l-0.03,0.185H52.597z M54.307,27.926
			l-0.143-0.107l1.371,1.02c0.057,0.042,0.091,0.1,0.136,0.151c0.027-0.047,0.049-0.098,0.058-0.155l0.148-0.916
			c0.04-0.245-0.127-0.477-0.373-0.516l-0.991-0.16c-0.245-0.04-0.477,0.127-0.516,0.373l-0.011,0.07L54.307,27.926z M52.259,28.705
			l0.419-0.563l0.022-0.138h-1.929l-0.005,0.03c-0.04,0.245,0.127,0.477,0.373,0.516l0.991,0.16
			C52.174,28.717,52.217,28.711,52.259,28.705z M51.702,30.61c-0.246-0.183-0.326-0.496-0.233-0.772l-0.524-0.085
			c-0.245-0.04-0.477,0.127-0.516,0.373l-0.148,0.916c-0.04,0.245,0.127,0.477,0.373,0.516l0.991,0.16
			c0.246,0.04,0.477-0.127,0.516-0.373l0.057-0.352L51.702,30.61z M55.375,30.729l-0.654,0.879
			c-0.005,0.006-0.012,0.009-0.017,0.015l-0.168,0.233c-0.106,0.143-0.259,0.228-0.421,0.26l0.612,0.099
			c0.246,0.04,0.477-0.127,0.516-0.373l0.148-0.916C55.402,30.858,55.394,30.792,55.375,30.729z M40.866,49.349
			c0.278-0.23,0.316-0.641,0.086-0.919l-0.857-1.035c-0.23-0.277-0.641-0.316-0.918-0.086l-1.12,0.927
			c-0.278,0.23-0.316,0.641-0.086,0.919l0.857,1.035c0.23,0.277,0.641,0.316,0.919,0.086L40.866,49.349z M38.64,42.87l0.857,1.035
			c0.23,0.277,0.641,0.316,0.919,0.086l0.053-0.044c-0.33-0.846-0.759-1.645-1.276-2.382l-0.466,0.386
			C38.449,42.181,38.41,42.592,38.64,42.87z M24.082,39.477c0.23,0.278,0.641,0.316,0.919,0.086l1.12-0.927
			c0.278-0.23,0.316-0.641,0.086-0.919l-0.181-0.219c-0.874,0.332-1.709,0.774-2.486,1.323L24.082,39.477z M29.525,38.956
			l0.857,1.035c0.23,0.278,0.641,0.316,0.919,0.086l1.12-0.927c0.278-0.23,0.316-0.641,0.086-0.919l-0.857-1.035
			c-0.23-0.278-0.641-0.316-0.918-0.086l-1.12,0.927C29.333,38.267,29.295,38.679,29.525,38.956z M20.597,42.363
			c0.23,0.277,0.641,0.316,0.919,0.086l1.12-0.927c0.278-0.23,0.316-0.641,0.086-0.919l-0.542-0.655
			c-0.684,0.662-1.274,1.4-1.763,2.197L20.597,42.363z M21.383,53.174l-0.857-1.035c-0.23-0.278-0.641-0.316-0.918-0.086
			l-0.065,0.054c0.328,0.834,0.758,1.63,1.285,2.375l0.469-0.388C21.574,53.863,21.612,53.452,21.383,53.174z M35.155,45.756
			l0.857,1.035c0.23,0.278,0.641,0.316,0.919,0.086l1.12-0.927c0.278-0.23,0.316-0.641,0.086-0.919l-0.857-1.035
			c-0.23-0.278-0.641-0.316-0.919-0.086l-1.12,0.927C34.964,45.067,34.926,45.478,35.155,45.756z M37.6,40.591l0.469-0.388
			c-0.625-0.647-1.327-1.22-2.095-1.704l-0.063,0.052c-0.278,0.23-0.316,0.641-0.086,0.918l0.857,1.035
			C36.912,40.783,37.323,40.821,37.6,40.591z M33.546,40.51l-1.12,0.927c-0.278,0.23-0.316,0.641-0.086,0.919l0.857,1.035
			c0.23,0.277,0.641,0.316,0.919,0.086l1.12-0.927c0.278-0.23,0.316-0.641,0.086-0.919l-0.857-1.035
			C34.235,40.319,33.824,40.28,33.546,40.51z M30.498,57.088l-0.857-1.035c-0.23-0.277-0.641-0.316-0.919-0.086l-1.12,0.927
			c-0.278,0.23-0.316,0.641-0.086,0.919l0.857,1.035c0.23,0.278,0.641,0.316,0.919,0.086l1.12-0.927
			C30.689,57.777,30.728,57.365,30.498,57.088z M27.596,54.607c0.278-0.23,0.316-0.641,0.086-0.919l-0.857-1.035
			c-0.23-0.278-0.641-0.316-0.919-0.086l-1.12,0.927c-0.278,0.23-0.316,0.641-0.086,0.918l0.857,1.035
			c0.23,0.278,0.641,0.316,0.919,0.086L27.596,54.607z M24.198,56.574l-0.857-1.035c-0.23-0.277-0.641-0.316-0.919-0.086
			l-0.466,0.386c0.637,0.656,1.343,1.226,2.104,1.701c0.016-0.016,0.033-0.032,0.051-0.047
			C24.389,57.263,24.428,56.851,24.198,56.574z M19.157,46.695c-0.278,0.23-0.316,0.641-0.086,0.918l0.857,1.035
			c0.23,0.277,0.641,0.316,0.919,0.086l1.12-0.927c0.278-0.23,0.316-0.641,0.086-0.919l-0.857-1.035
			c-0.23-0.278-0.641-0.316-0.919-0.086L19.157,46.695z M31.858,55.962c0.23,0.277,0.641,0.316,0.919,0.086l1.12-0.927
			c0.278-0.23,0.316-0.641,0.086-0.919l-0.857-1.035c-0.23-0.278-0.641-0.316-0.918-0.086l-1.12,0.927
			c-0.278,0.23-0.316,0.641-0.086,0.918L31.858,55.962z M31.168,50.803l-0.857-1.035c-0.23-0.277-0.641-0.316-0.919-0.086
			l-1.12,0.927c-0.278,0.23-0.316,0.641-0.086,0.919l0.857,1.035c0.23,0.278,0.641,0.316,0.919,0.086l1.12-0.927
			C31.359,51.491,31.397,51.08,31.168,50.803z M33.971,58.513c0.874-0.331,1.709-0.773,2.487-1.322l-0.517-0.624
			c-0.23-0.277-0.641-0.316-0.919-0.086l-1.12,0.927c-0.278,0.23-0.316,0.641-0.086,0.919L33.971,58.513z M22.743,52.048
			c0.23,0.278,0.641,0.316,0.919,0.086l1.12-0.927c0.278-0.23,0.316-0.641,0.086-0.919l-0.857-1.035
			c-0.23-0.277-0.641-0.316-0.918-0.086l-1.12,0.927c-0.278,0.23-0.316,0.641-0.086,0.919L22.743,52.048z M37.468,51.317
			l-0.857-1.035c-0.23-0.278-0.641-0.316-0.918-0.086l-1.12,0.927c-0.278,0.23-0.316,0.641-0.086,0.919l0.857,1.035
			c0.23,0.278,0.641,0.316,0.919,0.086l1.12-0.927C37.659,52.005,37.698,51.594,37.468,51.317z M37.818,56.066
			c0.684-0.662,1.275-1.399,1.764-2.196l-0.156-0.188c-0.23-0.278-0.641-0.316-0.919-0.086l-1.12,0.927
			c-0.278,0.23-0.316,0.641-0.086,0.918L37.818,56.066z M27.246,39.996l-1.12,0.927c-0.278,0.23-0.316,0.641-0.086,0.918
			l0.857,1.035c0.23,0.277,0.641,0.316,0.919,0.086l1.12-0.927c0.278-0.23,0.316-0.641,0.086-0.919l-0.857-1.035
			C27.935,39.805,27.524,39.766,27.246,39.996z M31.837,44.517l-0.857-1.035c-0.23-0.278-0.641-0.316-0.918-0.086l-1.12,0.927
			c-0.278,0.23-0.316,0.641-0.086,0.918l0.857,1.035c0.23,0.278,0.641,0.316,0.919,0.086l1.12-0.927
			C32.028,45.206,32.067,44.794,31.837,44.517z M25.537,44.003l-0.857-1.035c-0.23-0.278-0.641-0.316-0.919-0.086l-1.12,0.927
			c-0.278,0.23-0.316,0.641-0.086,0.919l0.857,1.035c0.23,0.278,0.641,0.316,0.919,0.086l1.12-0.927
			C25.728,44.692,25.767,44.28,25.537,44.003z M32.528,49.676c0.23,0.277,0.641,0.316,0.919,0.086l1.12-0.927
			c0.278-0.23,0.316-0.641,0.086-0.919l-0.857-1.035c-0.23-0.278-0.641-0.316-0.919-0.086l-1.12,0.927
			c-0.278,0.23-0.316,0.641-0.086,0.918L32.528,49.676z M26.227,49.162c0.23,0.277,0.641,0.316,0.919,0.086l1.12-0.927
			c0.278-0.23,0.316-0.641,0.086-0.919l-0.857-1.035c-0.23-0.278-0.641-0.316-0.918-0.086l-1.12,0.927
			c-0.278,0.23-0.316,0.641-0.086,0.918L26.227,49.162z"/>
		<path class="fandom_twaalf" d="M25.948,59.296c-1.11,0-2.024-1.267-1.908-2.34c0.231-2.166,3.905-4.068,8.159-6.27
			c3.004-1.555,7.545-3.906,7.003-5.017c-0.602-1.231-6.81,3.273-7.988,4.096c-11.43,7.983-12.241,3.696-8.93,0.478
			c1.196-1.163,2.879-2.519,4.663-3.954c2.332-1.878,6.673-5.373,6.553-6.339c-0.671-0.81-3.883,2.201-4.678,2.897
			c-2.673,2.338-5.702,4.989-8.601,4.989c-0.003,0-0.005,0-0.007,0c-1.912-0.002-2.683-1.381-1.473-3.089
			c1.353-1.91,3.759-3.699,5.516-5.005c0.48-0.357,2.375-1.635,1.803-1.737c-1.022-0.18-0.734-1.681,0.278-1.498
			c1.615,0.286,1.991,1.801,0.84,2.887c-1.416,1.339-5.453,3.737-7.154,6.22c-0.322,0.47-0.358,0.699,0.191,0.7
			c0.001,0,0.003,0,0.005,0c2.302,0,5.094-2.443,7.558-4.599c2.162-1.891,5.331-4.907,7.009-2.608
			c1.246,1.709-1.64,4.165-6.849,8.358c-9.771,7.87-5.869,6.815,2.366,1.062c4.449-3.109,7.283-4.964,9.086-4.509
			c0.548,0.138,0.969,0.483,1.22,0.998c1.182,2.427-2.926,4.554-7.682,7.016c-3.036,1.571-7.193,3.724-7.338,5.082
			c-0.203,1.809,3.009-0.464,6.57-2.847c4.198-2.812,6.442-4.241,7.613-3.335c0.805,0.624,0.464,1.808,0.078,2.77
			c-0.38,0.943-1.83,0.38-1.453-0.556c0.19-0.474,0.263-0.77,0.29-0.944c-1.023,0.225-3.773,2.067-5.645,3.321
			C29.546,57.867,27.332,59.296,25.948,59.296z"/>
	</g>
</g>
</svg>