<?xml version="1.0" encoding="utf-8"?>
<!-- Generator: Adobe Illustrator 19.1.0, SVG Export Plug-In . SVG Version: 6.00 Build 0)  -->
<!DOCTYPE svg PUBLIC "-//W3C//DTD SVG 1.1//EN" "http://www.w3.org/Graphics/SVG/1.1/DTD/svg11.dtd">
<svg version="1.1" id="DESIGNS" xmlns="http://www.w3.org/2000/svg" xmlns:xlink="http://www.w3.org/1999/xlink" x="0px" y="0px"
	 width="64px" height="64px" viewBox="0 0 64 64" style="enable-background:new 0 0 64 64;" xml:space="preserve">
<style type="text/css">
	.fandom_drie{fill:#BE9148;}
	.fandom_vier{fill:#FFC865;}
	.fandom_zestien{fill:#4D4D4D;}
	.fandom_zeventien{fill:#666666;}
	.st0{fill:#00B3AA;}
	.st1{fill:#018273;}
	.st2{fill:#EFEAE0;}
	.st3{fill:#FF786E;}
	.st4{fill:#BE5652;}
	.st5{fill:#644638;}
	.st6{fill:#8579A3;}
	.st7{fill:#808080;}
	.st8{fill:#685683;}
	.st9{fill:#AA9991;}
	.st10{fill:#FFFAFA;}
	.st11{fill:#6BC4D2;}
	.st12{fill:#508D9B;}
	.st13{fill:#CCCCCC;}
	.st14{fill:#4B322A;}
	.st15{fill:#3A3A3A;}
</style>
<g>
	<g>
		<path class="fandom_vier" d="M32,7C18.193,7,7,18.193,7,32h50C57,18.193,45.807,7,32,7z"/>
		<path class="fandom_drie" d="M32,57c13.807,0,25-11.193,25-25H7C7,45.807,18.193,57,32,57z"/>
	</g>
	<g>
		<path class="fandom_zeventien" d="M13.778,32.722c0,9.665,7.835,17.5,17.5,17.5c2.821,0,5.447-0.729,7.806-1.915
			C40.27,45.947,41,43.321,41,40.5C41,30.835,33.165,23,23.5,23c-2.821,0-5.447,0.73-7.807,1.915
			C14.507,27.275,13.778,29.901,13.778,32.722z"/>
		<path class="fandom_zestien" d="M39.085,48.307C36.209,54.033,30.344,58,23.5,58C13.835,58,6,50.165,6,40.5
			c0-6.844,3.967-12.709,9.693-15.585c-1.186,2.36-1.915,4.987-1.915,7.807c0,9.665,7.835,17.5,17.5,17.5
			C34.099,50.222,36.725,49.493,39.085,48.307z M57.709,4.515l-2.271,5.554c-0.231,0.566-0.695,0.963-1.234,1.139
			c0.014,0.386-0.083,0.78-0.303,1.132l-3.181,5.087c-0.294,0.47-0.752,0.771-1.253,0.885c-0.02,0.4-0.157,0.798-0.424,1.136
			l-3.72,4.708c-0.305,0.386-0.724,0.625-1.171,0.716c-0.055,0.423-0.237,0.832-0.563,1.157l-4.248,4.238
			c-0.012,0.012-0.027,0.02-0.039,0.032c0.088,0.693,0.051,1.405-0.134,2.106c-0.184,0.697-0.729,1.24-1.425,1.424
			c-0.168,0.044-0.339,0.066-0.508,0.066c-0.533,0-1.052-0.213-1.433-0.605l-4.186-4.299c-0.503-0.516-0.689-1.263-0.487-1.955
			c0.201-0.692,0.76-1.222,1.461-1.387c0.422-0.099,0.852-0.15,1.279-0.15c0.527,0,1.039,0.083,1.531,0.227l3.953-3.944
			c0.253-0.253,0.559-0.414,0.881-0.503c0.06-0.298,0.181-0.587,0.382-0.842l3.72-4.708c0.268-0.34,0.628-0.559,1.014-0.671
			c0.035-0.279,0.124-0.556,0.284-0.811l3.181-5.087c0.23-0.368,0.566-0.621,0.938-0.775c0.017-0.197,0.054-0.394,0.132-0.587
			l2.271-5.554C52.472,1.469,53.219,1,54.007,1c0.252,0,0.508,0.048,0.756,0.149l1.851,0.757
			C57.637,2.325,58.127,3.492,57.709,4.515z M37.323,30.747c-0.296-0.094-0.576-0.25-0.81-0.484L35.1,28.846
			c-0.353-0.354-0.537-0.808-0.57-1.27c-0.216-0.043-0.435-0.079-0.662-0.079c-0.268,0-0.542,0.031-0.819,0.096l4.186,4.299
			C37.338,31.501,37.35,31.119,37.323,30.747z M42.177,24.612l-1.412-1.416c-0.001,0-0.002,0-0.002,0l-3.498,3.491
			c0.348,0.278,0.669,0.597,0.949,0.962c0.136,0.176,0.258,0.359,0.37,0.547L42.177,24.612z M47.473,18.207l-1.569-1.24
			c-0.001,0-0.002,0-0.002,0l-3.718,4.707l1.569,1.24L47.473,18.207z M52.205,11.279l-1.696-1.06v0c-0.001,0-0.001,0-0.002,0.001
			l-3.179,5.087l1.696,1.06L52.205,11.279z M55.858,3.758l-1.85-0.756l-2.273,5.553l1.851,0.757L55.858,3.758z"/>
	</g>
</g>
</svg>