<?xml version="1.0" encoding="utf-8"?>
<!-- Generator: Adobe Illustrator 19.1.0, SVG Export Plug-In . SVG Version: 6.00 Build 0)  -->
<!DOCTYPE svg PUBLIC "-//W3C//DTD SVG 1.1//EN" "http://www.w3.org/Graphics/SVG/1.1/DTD/svg11.dtd">
<svg version="1.1" id="DESIGNS" xmlns="http://www.w3.org/2000/svg" xmlns:xlink="http://www.w3.org/1999/xlink" x="0px" y="0px"
	 width="64px" height="64px" viewBox="0 0 64 64" style="enable-background:new 0 0 64 64;" xml:space="preserve">
<style type="text/css">
	.fandom_twee{fill:#BE5652;}
	.fandom_vijf{fill:#018273;}
	.fandom_zes{fill:#00B3AA;}
	.fandom_elf{fill:#4B322A;}
	.fandom_twaalf{fill:#644638;}
	.fandom_veertien{fill:#EFEAE0;}
	.fandom_vijftien{fill:#3A3A3A;}
	.fandom_twintig{fill:#FFFAFA;}
	.st0{fill:#FF786E;}
	.st1{fill:#AA9991;}
	.st2{fill:#6BC4D2;}
	.st3{fill:#508D9B;}
	.st4{fill:#FFC865;}
	.st5{fill:#BE9148;}
	.st6{fill:#8579A3;}
	.st7{fill:#685683;}
	.st8{fill:#4D4D4D;}
	.st9{fill:#808080;}
	.st10{fill:#CCCCCC;}
	.st11{fill:#666666;}
</style>
<g>
	<g>
		<path class="fandom_zes" d="M32,7C18.193,7,7,18.193,7,32h50C57,18.193,45.807,7,32,7z"/>
		<path class="fandom_vijf" d="M32,57c13.807,0,25-11.193,25-25H7C7,45.807,18.193,57,32,57z"/>
	</g>
	<g>
		<path class="fandom_vijftien" d="M26.496,23.722l-6.232-7.344l1.525-1.293l6.203,7.31C27.541,22.694,26.984,23.131,26.496,23.722z
			 M37.731,27.186l11.02-4.832l-0.804-1.831l-10.6,4.648C37.474,25.521,37.709,26.188,37.731,27.186z"/>
		<path class="fandom_veertien" d="M18.269,12.145c1.092-0.581,1.751,0.73,1.957,1.363c0.037-0.299,0.279-0.648,0.742-0.588
			c0.47,0.061,0.64,0.852,0.699,1.275c0.164-0.097,0.376-0.071,0.503,0.079c0.142,0.168,0.121,0.419-0.047,0.561l-2.273,1.919
			c-0.168,0.142-0.419,0.121-0.561-0.047c-0.142-0.168-0.121-0.419,0.047-0.561l0.159-0.134c-0.469-0.255-1.282-0.726-1.906-1.247
			C16.664,13.991,16.783,12.936,18.269,12.145z M52.425,19.51c-0.727-1.001-1.894-0.111-2.356,0.367
			c0.098-0.285,0.034-0.705-0.409-0.854c-0.45-0.151-0.949,0.485-1.187,0.84c-0.105-0.159-0.307-0.229-0.487-0.149
			c-0.201,0.089-0.292,0.324-0.203,0.525l1.201,2.721c0.089,0.201,0.324,0.292,0.525,0.204c0.201-0.089,0.292-0.324,0.204-0.525
			l-0.084-0.191c0.534-0.024,1.471-0.091,2.26-0.286C53.058,21.872,53.414,20.872,52.425,19.51z"/>
		<path class="fandom_twaalf" d="M41.354,15.67c-1.964-2.176-4.201-3.041-6.07-3.342C33.985,14.637,31.861,19.04,32,22.963
			c-3.33,3.8-3.414,4.25-3.527,9.625c-0.016,0.78-0.563,1.797-0.762,2.553c-0.406,1.547-0.736,3.141-0.823,4.743
			c-0.135,2.48,0.207,4.947,0.365,7.416c0.078,1.213,0.297,2.906,0.121,4.374c0,0,1.03-0.541,1.971-1.485
			c0.659-0.661,1.198-1.463,1.734-2.225c1.09-1.549,2.144-3.261,2.908-5.002c0.598-1.363,1.002-2.84,0.995-4.337
			c-0.006-1.287,0.035-2.959-0.651-4.101c0,0,2.789-2.148,3.294-5.358c0.583-3.708-0.964-5.145-0.964-5.145
			c2.826-1.506,4.79-3.208,5.248-7.005c0.049-0.404,0.062-0.734,0.049-1.033C41.928,15.98,41.496,15.828,41.354,15.67z"/>
		<path class="fandom_twee" d="M30.039,11.75c-0.152-0.531,0.156-1.084,0.687-1.236c0.271-0.078,6.468-1.748,11.533,3.236
			c0.99-1.653,3.111-5.957-0.44-7.664c-4.437-2.132-8.619-1.482-12.292,5.189c-0.788,1.432-0.666,2.39,0.005,3.017
			c0.172-0.461,0.474-1.446,0.867-2.017C30.232,12.15,30.101,11.968,30.039,11.75z"/>
		<path class="fandom_elf" d="M33.202,12.193c-1.152,0.036-1.907,0.238-1.927,0.244c-0.314,0.09-0.633,0.021-0.874-0.161
			c-0.171,0.253-0.32,0.532-0.461,0.901c-0.142,0.371-0.278,0.743-0.406,1.116l0,0c0.02-0.058-0.23,0.757-0.395,1.281
			c-0.586,2.112-0.486,4.873,0.11,6.195c0,0-3.04,0.939-3.956,4.272c-0.762,2.772,0.622,5.896,0.622,5.896
			c-1.69,1.018-3.034,2.832-3.551,5.092c-0.43,1.881-0.527,3.055,0.075,4.908c0.463,1.427,1.157,3.41,1.156,4.906
			c0,1.391-0.333,3.055,0.607,4.157c0.983,1.152,2.085,1.208,3.173,0.673c0.176-1.469-0.043-3.162-0.121-4.374
			c-0.158-2.47-0.5-4.937-0.365-7.416c0.087-1.602,0.417-3.196,0.823-4.743c0.198-0.755,0.745-1.773,0.762-2.553
			c0.112-5.375,0.197-5.825,3.527-9.625c-0.139-3.923,1.985-8.326,3.284-10.635C34.576,12.214,33.863,12.187,33.202,12.193z"/>
		<path class="fandom_twintig" d="M29,16c-1.105,0-2-0.895-2-2c0-1.105,0.895-2,2-2c0.065,0,0.188,0.016,0.188,0.016
			c-0.378,1.028-0.201,1.765,0.345,2.276C29.562,14.208,29.01,16,29,16z M42.766,15.743c0.41-0.37,0.443-1.002,0.073-1.412
			c-5.158-5.717-11.831-3.897-12.112-3.816c-0.531,0.151-0.839,0.705-0.687,1.236c0.152,0.53,0.702,0.839,1.236,0.687
			c0.057-0.016,5.744-1.57,10.08,3.233c0.142,0.158,0.324,0.26,0.516,0.304C42.178,16.045,42.514,15.97,42.766,15.743z"/>
	</g>
</g>
</svg>