<?xml version="1.0" encoding="utf-8"?>
<!-- Generator: Adobe Illustrator 19.1.0, SVG Export Plug-In . SVG Version: 6.00 Build 0)  -->
<!DOCTYPE svg PUBLIC "-//W3C//DTD SVG 1.1//EN" "http://www.w3.org/Graphics/SVG/1.1/DTD/svg11.dtd">
<svg version="1.1" id="DESIGNS" xmlns="http://www.w3.org/2000/svg" xmlns:xlink="http://www.w3.org/1999/xlink" x="0px" y="0px"
	 width="64px" height="64px" viewBox="0 0 64 64" style="enable-background:new 0 0 64 64;" xml:space="preserve">
<style type="text/css">
	.fandom_een{fill:#FF786E;}
	.fandom_twee{fill:#BE5652;}
	.fandom_drie{fill:#BE9148;}
	.fandom_vier{fill:#FFC865;}
	.fandom_zeven{fill:#508D9B;}
	.fandom_dertien{fill:#AA9991;}
	.fandom_veertien{fill:#EFEAE0;}
	.st0{fill:#6BC4D2;}
	.st1{fill:#8579A3;}
	.st2{fill:#00B3AA;}
	.st3{fill:#018273;}
	.st4{fill:#685683;}
	.st5{fill:#3A3A3A;}
	.st6{fill:#666666;}
	.st7{fill:#4D4D4D;}
	.st8{fill:#CCCCCC;}
	.st9{fill:#808080;}
	.st10{fill:#644638;}
	.st11{fill:#4B322A;}
	.st12{fill:#FFFAFA;}
</style>
<g>
	<g>
		<path class="fandom_vier" d="M32,7C18.193,7,7,18.193,7,32h50C57,18.193,45.807,7,32,7z"/>
		<path class="fandom_drie" d="M32,57c13.807,0,25-11.193,25-25H7C7,45.807,18.193,57,32,57z"/>
	</g>
	<g>
		<path class="fandom_dertien" d="M46.115,36.677c1.188-3.142,3.296-10.527,0.373-17.795c-3.852-9.579-9.61-5.041-15.7-3.067
			C24.78,17.763,15.43,15.267,8.895,19.8c-0.183-0.109-0.352-0.211-0.492-0.296c-0.359-0.218-0.86-0.218-1.207,0.272
			c-0.286,0.405-0.303,1.084,0.239,1.432c7.939,5.096,31.324,26.668,32.507,26.788c1.243,0.126,12.262-4.411,12.054-6.386
			C51.897,40.654,49.453,38.644,46.115,36.677z"/>
		<path class="fandom_veertien" d="M46.115,36.677c1.188-3.142,3.296-10.527,0.373-17.795c-1.662-4.132-3.679-5.634-5.923-5.851
			c0.311,4.603,0.653,14.368-1.371,20.29c-1.725-0.66-3.451-1.178-5.05-1.457c-6.513-1.138-22.441-10.354-25.74-12.359
			c-0.359-0.218-0.817-0.163-1.117,0.133c0,0-0.057,0.095-0.089,0.139c4.138,2.723,19.045,12.386,26.739,15.406
			c6.387,2.507,12.714,6.531,15.853,8.657c1.352-0.842,2.269-1.647,2.208-2.229C51.897,40.654,49.453,38.644,46.115,36.677z"/>
		<path class="fandom_twee" d="M43.049,26.009c-2.894,2.698-4.711,5.203-4.864,5.417c-0.322,0.45-0.214,1.073,0.241,1.391
			C38.603,32.94,38.807,33,39.008,33c0.316,0,0.628-0.147,0.824-0.421c0.036-0.049,1.764-2.428,4.513-5.01
			C49.773,32.034,59,18,59,18C40.84,19.418,42.253,24.546,43.049,26.009z"/>
		<path class="fandom_een" d="M59,18c-18.227,1.423-16.736,6.584-15.942,8.024C46.154,21.979,59,18,59,18z"/>
		<path class="fandom_zeven" d="M47.442,31.997c0.183-0.925,0.332-1.921,0.424-2.975c-10.51-1.927-18.127-8.311-22.071-12.403
			c-1.27,0.078-2.596,0.109-3.944,0.151C25.266,20.791,34.092,29.61,47.442,31.997z"/>
	</g>
</g>
</svg>