<?xml version="1.0" encoding="utf-8"?>
<!-- Generator: Adobe Illustrator 19.1.0, SVG Export Plug-In . SVG Version: 6.00 Build 0)  -->
<!DOCTYPE svg PUBLIC "-//W3C//DTD SVG 1.1//EN" "http://www.w3.org/Graphics/SVG/1.1/DTD/svg11.dtd">
<svg version="1.1" id="DESIGNS" xmlns="http://www.w3.org/2000/svg" xmlns:xlink="http://www.w3.org/1999/xlink" x="0px" y="0px"
	 width="64px" height="64px" viewBox="0 0 64 64" style="enable-background:new 0 0 64 64;" xml:space="preserve">
<style type="text/css">
	.fandom_drie{fill:#BE9148;}
	.fandom_vier{fill:#FFC865;}
	.fandom_vijf{fill:#018273;}
	.fandom_zes{fill:#00B3AA;}
	.fandom_elf{fill:#4B322A;}
	.st0{fill:#FF786E;}
	.st1{fill:#BE5652;}
	.st2{fill:#EFEAE0;}
	.st3{fill:#AA9991;}
	.st4{fill:#FFFAFA;}
	.st5{fill:#644638;}
	.st6{fill:#6BC4D2;}
	.st7{fill:#508D9B;}
	.st8{fill:#8579A3;}
	.st9{fill:#685683;}
	.st10{fill:#4D4D4D;}
	.st11{fill:#3A3A3A;}
	.st12{fill:#808080;}
	.st13{fill:#CCCCCC;}
	.st14{fill:#666666;}
</style>
<g>
	<g>
		<path class="fandom_zes" d="M32,7C18.193,7,7,18.193,7,32h50C57,18.193,45.807,7,32,7z"/>
		<path class="fandom_vijf" d="M32,57c13.807,0,25-11.193,25-25H7C7,45.807,18.193,57,32,57z"/>
	</g>
	<g>
		<path class="fandom_elf" d="M7.402,55.901c-2.565,0-4.667-2.07-4.667-4.664c0-1.247,0.486-2.419,1.367-3.3
			c1.168-1.168,2.941,0.595,1.768,1.768c-0.409,0.409-0.635,0.953-0.635,1.532c0,1.925,2.342,2.887,3.699,1.532L52.313,9.391
			c1.169-1.169,2.938,0.597,1.768,1.768L10.702,54.537C9.792,55.446,8.597,55.901,7.402,55.901z"/>
		<path class="fandom_vier" d="M48.574,12.109c5.198,4.24,8.578,8.843,11.036,13.41c0,0,3.073,5.4,3.39,8.065
			c0.371,3.113-0.184,13.676-1.103,18.436c-0.089,0.463-0.699,0.559-0.929,0.148c-0.573-1.023-1.611-2.168-3.237-1.576
			c-0.165,0.06-0.326,0.018-0.459-0.076c0-1-7.258-16.456-21.066-20.156c-0.168-0.045-0.244-0.226-0.324-0.38
			C31.178,15.511,22.472,12.109,14.661,8.046c-0.112-0.058-0.263-0.363-0.179-0.595c0.593-1.626-0.553-2.664-1.576-3.237
			c-0.411-0.23-0.315-0.84,0.148-0.929c4.76-0.918,15.323-1.339,18.436-0.968C37.352,3.015,47.503,10.735,48.574,12.109z"/>
		<path class="fandom_drie" d="M14.558,7.911c-0.094-0.133-0.136-0.295-0.076-0.459c0.593-1.626-0.553-2.664-1.576-3.237
			c-0.411-0.23-0.315-0.84,0.148-0.929c4.76-0.918,15.323-1.339,18.436-0.968c1.91,0.227,4.62,1.232,8.065,3.256
			C32.697,3.618,19.713,6.578,14.558,7.911z M59.61,25.519c-2.459-4.567-5.838-9.17-11.036-13.41
			c-0.129,7.954-12.103,18.676-12.587,18.081c0.058,0.072,0.127,0.145,0.22,0.171c10.981,3.077,18.031,13.108,21.066,20.156
			C58.604,45.36,61.564,32.377,59.61,25.519z"/>
	</g>
</g>
</svg>