<?xml version="1.0" encoding="utf-8"?>
<!-- Generator: Adobe Illustrator 19.1.0, SVG Export Plug-In . SVG Version: 6.00 Build 0)  -->
<!DOCTYPE svg PUBLIC "-//W3C//DTD SVG 1.1//EN" "http://www.w3.org/Graphics/SVG/1.1/DTD/svg11.dtd">
<svg version="1.1" id="DESIGNS" xmlns="http://www.w3.org/2000/svg" xmlns:xlink="http://www.w3.org/1999/xlink" x="0px" y="0px"
	 width="64px" height="64px" viewBox="0 0 64 64" style="enable-background:new 0 0 64 64;" xml:space="preserve">
<style type="text/css">
	.fandom_vier{fill:#FFC865;}
	.fandom_zeven{fill:#508D9B;}
	.fandom_acht{fill:#6BC4D2;}
	.fandom_dertien{fill:#AA9991;}
	.fandom_veertien{fill:#EFEAE0;}
	.fandom_zeventien{fill:#666666;}
	.fandom_achttien{fill:#808080;}
	.fandom_twintig{fill:#FFFAFA;}
	.st0{fill:#FF786E;}
	.st1{fill:#BE5652;}
	.st2{fill:#644638;}
	.st3{fill:#4B322A;}
	.st4{fill:#BE9148;}
	.st5{fill:#CCCCCC;}
	.st6{fill:#018273;}
	.st7{fill:#3A3A3A;}
	.st8{fill:#4D4D4D;}
	.st9{fill:#8579A3;}
	.st10{fill:#685683;}
	.st11{fill:#00B3AA;}
</style>
<g>
	<g>
		<path class="fandom_acht" d="M32,7C18.193,7,7,18.193,7,32h50C57,18.193,45.807,7,32,7z"/>
		<path class="fandom_zeven" d="M32,57c13.807,0,25-11.193,25-25H7C7,45.807,18.193,57,32,57z"/>
	</g>
	<g>
		<path class="fandom_twintig" d="M39,23.5c3.038,0,5.5,2.462,5.5,5.5s-2.462,5.5-5.5,5.5s-5.5-2.462-5.5-5.5S35.962,23.5,39,23.5z
			 M39,21.5c-4.135,0-7.5,3.365-7.5,7.5s3.365,7.5,7.5,7.5s7.5-3.365,7.5-7.5S43.135,21.5,39,21.5z M39,25c-2.209,0-4,1.791-4,4
			s1.791,4,4,4s4-1.791,4-4S41.209,25,39,25z"/>
		<path class="fandom_achttien" d="M39.062,27.094c-0.219-0.797-2.25-2.516-2.25-2.516l-7.698-8.012
			c-0.596-0.62-0.896-0.842-5.739-5.066c0,0-7-3.25-9.813-5c-2.812-1.75-5.25-0.312-5.25-0.312L0,9.75v7.312
			c0,0,6.554-3.801,8.106-3.74c0.423,0.017,0.784,0.298,0.909,0.703l2.489,7.523c-0.422,0.188-1.318-0.035-1.754-0.174
			c-1.563-0.5-1.583,0.792-1.188,1.25c0.396,0.458,2.515,1.969,2.515,1.969c0.457,0.357,0.961,0.164,1.55,0.049
			c0,0,0.212,0.658,0.201,0.666c-0.451,0.321-1.733,0.788-1.62,1.487c0.048,0.296,0.288,0.536,0.566,0.65
			c0.404,0.165,1.139,0.086,1.854-0.044l0.809,2.536c0.786,2.183,3.235,1.184,2.922-0.359l-0.672-2.781l2.276-0.634
			c0.315-0.088,0.618-0.213,0.902-0.375l5.049-2.866c0.178-0.112,0.332-0.274,0.398-0.474c0.454-1.371-0.687-2.574-0.687-2.574
			l-3.813-4.562c0.309,0.202,5.605,3.657,5.889,3.893c0.624,0.655,7.874,7.485,7.874,7.485c0.068,0.102,1.224,1.818,2.331,2.091
			C37.939,29.036,39.464,28.556,39.062,27.094z"/>
		<path class="fandom_veertien" d="M42.583,49.292L49,42.958c-4.385-0.104-2.544-0.761-8.719,2.964
			c-1.797,1.047-2.984-0.891-1.615-1.88l4.75-3.417c0.833-0.667,3.667-1.083,3.667-1.083l-3.167-0.583l-4.573,2.917
			c-1.344,0.812-2.281-0.734-1.427-1.5l4.875-3.792c0.833-0.417,3.125-0.278,3.125-0.278s-4.854-4.034-6.01-5.274
			c-1.156-1.24,0.056-2.13,1.052-1.906c1.021,0.229,10.708,6.583,10.708,6.583c-1.958-3.542-1.012-6.721,0.583-6.083
			c0.417,0.167,3.625,6.958,5.583,8.417C59.478,39.266,64,40.583,64,40.583v9.458c0,0-1.542-2.167-4.083-2.375
			c-4.083,0.167-6.083-0.792-7.083-1.458c-0.959-0.639-2.292-0.375-2.292-0.375l-5.958,4.917
			C43.182,52.151,41.503,50.372,42.583,49.292z"/>
		<path class="fandom_dertien" d="M53,36.167l-1.333-0.458c-1.588-2.871-1.266-5.504-0.237-6.058
			C51.641,31.334,52.195,35.137,53,36.167z M45.484,41.453c-1.212,0.191-5.223,2.883-7.216,4.266
			c0.342,0.495,1.098,0.735,2.013,0.203c6.183-3.729,4.349-3.068,8.719-2.964l1.156-1.083
			C50.156,41.875,47.172,41.188,45.484,41.453z M60.547,45.266c-2.372,0.293-4.85,0.078-7.143-0.595
			c-0.74-0.217-1.448-0.615-2.235-0.616c-0.413-0.001-0.922,0.074-1.262,0.336l-7.339,6.479c0.445,0.471,1.27,0.626,2.016-0.119
			l5.958-4.917c0,0,1.333-0.264,2.292,0.375c1,0.667,3,1.625,7.083,1.458C62.458,47.875,64,50.042,64,50.042v-3.698
			C64,46.344,61.937,45.094,60.547,45.266z M43.625,37.656c-0.842,0.053-5.747,4.143-5.747,4.143
			c0.311,0.322,0.845,0.451,1.466,0.076l4.573-2.917l3.15,0.58l3.121-0.648C50.187,38.891,44.625,37.594,43.625,37.656z
			 M39.649,29.501c-0.306,0.349-0.368,0.921,0.46,1.781c0.812,0.844,5.807,5.024,5.807,5.024l3.443,0.195
			C49.359,36.5,39.653,29.496,39.649,29.501z"/>
		<path class="fandom_zeventien" d="M27.782,18.031l7.888,7.61c0,0-1.104,1.038-1.095,1.05c0,0-7.249-6.83-7.874-7.485
			c-0.284-0.236-5.58-3.69-5.889-3.893c0,0-2.187,1.021-1.32,1.993l2.716,3.361c0.269,0.386,0.232,0.907-0.088,1.252l-2.872,1.777
			c-1.076,0.666-1.812,0.883-3.337,1.43c0,0-4.702,1.676-4.703,1.671c-0.113-0.699,1.169-1.166,1.62-1.487
			c0.011-0.008-0.201-0.666-0.201-0.666l-0.742,0.145c-0.285,0.056-0.579-0.015-0.808-0.194c0,0-2.12-1.51-2.515-1.969
			c-0.396-0.458-0.375-1.75,1.188-1.25c0.436,0.14,1.333,0.363,1.754,0.174l-2.489-7.523c-0.126-0.405-0.486-0.686-0.909-0.703
			C6.554,13.261,0,17.062,0,17.062v-4.114c2.244-1.054,7.067-3.278,8.333-3.531c1.667-0.333,2.5-0.833,4.5,0.167
			c1.84,0.92,8.191,3.461,9.198,3.863C22.444,13.689,27.559,17.834,27.782,18.031z M13.625,27.391l0.812,2.547
			c0.355,1.033,1.059,1.351,1.829,1.224l-1.094-4.083L13.625,27.391z"/>
		<path class="fandom_vier" d="M36.812,24.578l-2.25,2.094c0,0,1.203,1.828,2.344,2.109c1.033,0.255,2.558-0.226,2.156-1.688
			C38.844,26.297,36.812,24.578,36.812,24.578z"/>
	</g>
</g>
</svg>