<?xml version="1.0" encoding="utf-8"?>
<!-- Generator: Adobe Illustrator 19.1.0, SVG Export Plug-In . SVG Version: 6.00 Build 0)  -->
<!DOCTYPE svg PUBLIC "-//W3C//DTD SVG 1.1//EN" "http://www.w3.org/Graphics/SVG/1.1/DTD/svg11.dtd">
<svg version="1.1" id="DESIGNS" xmlns="http://www.w3.org/2000/svg" xmlns:xlink="http://www.w3.org/1999/xlink" x="0px" y="0px"
	 width="64px" height="64px" viewBox="0 0 64 64" style="enable-background:new 0 0 64 64;" xml:space="preserve">
<style type="text/css">
	.fandom_een{fill:#FF786E;}
	.fandom_twee{fill:#BE5652;}
	.fandom_negen{fill:#685683;}
	.fandom_tien{fill:#8579A3;}
	.fandom_dertien{fill:#AA9991;}
	.fandom_veertien{fill:#EFEAE0;}
	.st0{fill:#6BC4D2;}
	.st1{fill:#508D9B;}
	.st2{fill:#4B322A;}
	.st3{fill:#644638;}
	.st4{fill:#4D4D4D;}
	.st5{fill:#3A3A3A;}
	.st6{fill:#CCCCCC;}
	.st7{fill:#00B3AA;}
	.st8{fill:#018273;}
	.st9{fill:#FFC865;}
	.st10{fill:#BE9148;}
	.st11{fill:#808080;}
	.st12{fill:#666666;}
	.st13{fill:#FFFAFA;}
</style>
<g>
	<g>
		<path class="fandom_tien" d="M32,7C18.193,7,7,18.193,7,32h50C57,18.193,45.807,7,32,7z"/>
		<path class="fandom_negen" d="M32,57c13.807,0,25-11.193,25-25H7C7,45.807,18.193,57,32,57z"/>
	</g>
	<g>
		<path class="fandom_twee" d="M56.725,29.285L46.63,24.139c-1.43-0.729-3.091-0.854-4.614-0.349l-25.905,8.595
			C13.656,33.199,12,35.494,12,38.08v2.475c0,2.255,1.265,4.32,3.273,5.345l10.474,5.343c1.44,0.735,3.116,0.857,4.647,0.34
			l25.526-8.625C58.359,42.133,60,39.846,60,37.273V34.63C60,32.374,58.735,30.309,56.725,29.285z"/>
		<path class="fandom_een" d="M15.812,36c2.928,1.4,7.498,3.895,10.131,5.353C27.215,42.058,28,43.395,28,44.85v5.025
			c0,1.812-1.172,1.781-1.172,1.781c1.062,0.266,1.984,0.422,3.567-0.074l25.526-8.625C58.359,42.133,60,39.846,60,37.273V34.63
			c0-2.256-1.265-4.321-3.275-5.346L46.63,24.139c-1.43-0.729-3.091-0.854-4.614-0.349l-25.905,8.595
			C16.111,32.385,11.5,33.938,15.812,36z"/>
		<path class="fandom_dertien" d="M22.567,24.775C21.911,26.089,20.568,27,19,27c-2.209,0-4-1.791-4-4
			c0-1.568,0.911-2.911,2.225-3.567C15.513,22.862,19.139,26.486,22.567,24.775z M12.39,13.271C11.569,13.68,11,14.52,11,15.5
			c0,1.381,1.119,2.5,2.5,2.5c0.98,0,1.82-0.569,2.229-1.39C13.587,17.679,11.321,15.414,12.39,13.271z M36.932,47.271
			c-0.821,0.41-1.39,1.249-1.39,2.229c0,1.381,1.119,2.5,2.5,2.5c0.98,0,1.82-0.569,2.229-1.39
			C38.129,51.679,35.862,49.414,36.932,47.271z M49.501,45.162c-0.493,0.246-0.834,0.75-0.834,1.338c0,0.828,0.672,1.5,1.5,1.5
			c0.588,0,1.092-0.342,1.338-0.834C50.219,47.807,48.859,46.448,49.501,45.162z M46.099,44.271c-0.821,0.41-1.39,1.249-1.39,2.229
			c0,1.381,1.119,2.5,2.5,2.5c0.98,0,1.82-0.569,2.229-1.39C47.295,48.679,45.029,46.414,46.099,44.271z M40.225,43.433
			C38.911,44.089,38,45.432,38,47c0,2.209,1.791,4,4,4c1.568,0,2.911-0.911,3.567-2.225C42.139,50.486,38.513,46.862,40.225,43.433z
			"/>
		<path class="fandom_veertien" d="M23,23c0,0.641-0.165,1.238-0.433,1.775c-3.429,1.711-7.053-1.914-5.342-5.342
			C17.762,19.165,18.359,19,19,19C21.209,19,23,20.791,23,23z M13.5,13c-0.401,0-0.774,0.103-1.11,0.271
			c-1.069,2.143,1.196,4.409,3.339,3.339C15.897,16.274,16,15.901,16,15.5C16,14.119,14.881,13,13.5,13z M50.167,45
			c-0.24,0-0.464,0.062-0.666,0.162c-0.642,1.286,0.718,2.645,2.003,2.003c0.101-0.201,0.162-0.425,0.162-0.666
			C51.667,45.672,50.995,45,50.167,45z M47.208,44c-0.401,0-0.774,0.103-1.11,0.271c-1.069,2.143,1.196,4.409,3.339,3.339
			c0.168-0.336,0.271-0.709,0.271-1.11C49.708,45.119,48.589,44,47.208,44z M38.001,47.005c-0.385,0.007-0.745,0.104-1.068,0.265
			c-1.069,2.143,1.196,4.409,3.339,3.339c0.002-0.005,0.003-0.01,0.005-0.014C38.935,49.951,38.003,48.592,38.001,47.005z M42,43
			c-0.641,0-1.238,0.165-1.775,0.433c-1.711,3.428,1.913,7.054,5.342,5.342C45.835,48.238,46,47.641,46,47
			C46,44.791,44.209,43,42,43z"/>
	</g>
</g>
</svg>