<?xml version="1.0" encoding="utf-8"?>
<!-- Generator: Adobe Illustrator 19.1.0, SVG Export Plug-In . SVG Version: 6.00 Build 0)  -->
<!DOCTYPE svg PUBLIC "-//W3C//DTD SVG 1.1//EN" "http://www.w3.org/Graphics/SVG/1.1/DTD/svg11.dtd">
<svg version="1.1" id="DESIGNS" xmlns="http://www.w3.org/2000/svg" xmlns:xlink="http://www.w3.org/1999/xlink" x="0px" y="0px"
	 width="64px" height="64px" viewBox="0 0 64 64" style="enable-background:new 0 0 64 64;" xml:space="preserve">
<style type="text/css">
	.fandom_een{fill:#FF786E;}
	.fandom_twee{fill:#BE5652;}
	.fandom_zeven{fill:#508D9B;}
	.fandom_acht{fill:#6BC4D2;}
	.fandom_veertien{fill:#EFEAE0;}
	.st0{fill:#00B3AA;}
	.st1{fill:#018273;}
	.st2{fill:#FFC865;}
	.st3{fill:#BE9148;}
	.st4{fill:#644638;}
	.st5{fill:#8579A3;}
	.st6{fill:#808080;}
	.st7{fill:#666666;}
	.st8{fill:#685683;}
	.st9{fill:#AA9991;}
	.st10{fill:#4D4D4D;}
	.st11{fill:#FFFAFA;}
	.st12{fill:#CCCCCC;}
	.st13{fill:#4B322A;}
	.st14{fill:#3A3A3A;}
</style>
<g>
	<g>
		<path class="fandom_acht" d="M32,7c13.807,0,25,11.193,25,25H7C7,18.193,18.193,7,32,7z"/>
		<path class="fandom_zeven" d="M32,57C18.193,57,7,45.807,7,32h50C57,45.807,45.807,57,32,57z"/>
	</g>
	<g>
		<path class="fandom_een" d="M60.104,28.165c-0.609-0.426-1.187-3.435-1.812-4.278c-1.016-1.371-2.264-2.346-3.855-2.981
			c-3.103-1.238-6.09-1.126-8.638-2.622c1.244-2.528,1.583-4.496,0.713-5.361c-0.573-0.569-1.603-0.591-2.935-0.166
			c-0.255-2.08-1.059-3.924-2.452-5.321C36.706,3,27.683,4.832,21.174,11.628l-1.708,2.121c1.317,5.271,5.002,14.673,17.293,16.273
			c0.462-0.452,0.924-0.914,1.384-1.395c0.151-0.157,0.292-0.315,0.439-0.472c0.556,0.549,1.165,1.005,1.844,1.299
			c0.995,0.432,1.977,0.409,3.039,0.342c2.944-0.186,4.296,0.726,5.768,3.231c1.305,2.221,4.784,0.246,3.479-1.975
			c-1.448-2.464-3.251-4.999-6.307-5.419c-1.219-0.167-2.687,0.507-3.822,0.238c-0.485-0.115-0.927-0.39-1.333-0.761
			c0.915-1.124,1.735-2.226,2.455-3.286c1.394,0.927,2.964,1.602,4.758,1.977c3.777,0.789,5.82,0.571,7.679,4.671
			c0.655,1.444,0.676,2.256,1.986,3.173C60.233,33.118,62.201,29.633,60.104,28.165z"/>
		<path class="fandom_veertien" d="M32,12.682c0.001-0.665-0.074-1.294-0.286-1.714c-0.492-0.978-1.682-1.148-2.623-0.808
			c-1.525,0.551-3.025,2.319-3.975,3.573c-0.886,1.169-1.368,2.469-0.981,3.827c0.621,2.181,4.698,0.796,5.992,0.018
			c0.873-0.525,1.38-1.476,1.598-2.452C31.86,14.52,31.998,13.569,32,12.682z M35,12c-1.011,1.011-1.551,5.259,0.671,4.987
			c0.8-0.098,1.617-0.665,2.176-1.198c1.078-1.026,1.16-2.624,0.435-3.889C37.719,10.918,36.011,10.989,35,12z M30.771,19.43
			c-1.262,0.454-4.103,1.012-3.739,2.866c0.32,1.274,2.001,3.171,3.411,2.599c0.824-0.334,1.554-1.133,2.177-1.746
			c0.55-0.541,1.277-1.157,1.369-1.984c0.075-0.675-0.258-1.48-0.786-1.897C32.494,18.707,31.52,19.159,30.771,19.43z"/>
		<path class="fandom_twee" d="M23.044,37.509c0.828,0.808,2.599,0.512,4.878-0.63c0.545,1.366,1.295,2.637,2.404,3.718
			c2.838,2.765,9.197,3.5,6.962,8.238c-1.465,3.106,2.888,4.459,3.9,1.008c1.089-3.711,0.523-6.312-2.598-8.664
			c-1.396-1.052-3.044-1.68-4.441-2.694c-1.393-1.011-2.201-2.315-2.715-3.76c0.832-0.589,1.694-1.253,2.573-1.978
			c1.247,1.342,2.702,2.509,4.384,3.448c2.003,1.119,4.236,1.606,6.343,2.469C49.322,40.544,51.009,43.542,52,48
			c0.706,3.176,4.294,1.824,3.935-0.471c-0.698-4.458-2.823-8.795-6.915-11.302c-1.912-1.171-4.121-1.655-6.187-2.468
			c-2.245-0.883-4.521-2.171-6.07-3.737C24.469,28.424,20.783,19.02,19.466,13.749c-5.053,6.493-6.006,14.277-1.894,18.287
			c1.402,1.367,3.231,2.13,5.282,2.344C22.41,35.822,22.442,36.921,23.044,37.509z"/>
	</g>
</g>
</svg>