<?xml version="1.0" encoding="utf-8"?>
<!-- Generator: Adobe Illustrator 19.1.0, SVG Export Plug-In . SVG Version: 6.00 Build 0)  -->
<!DOCTYPE svg PUBLIC "-//W3C//DTD SVG 1.1//EN" "http://www.w3.org/Graphics/SVG/1.1/DTD/svg11.dtd">
<svg version="1.1" id="DESIGNS" xmlns="http://www.w3.org/2000/svg" xmlns:xlink="http://www.w3.org/1999/xlink" x="0px" y="0px"
	 width="64px" height="64px" viewBox="0 0 64 64" style="enable-background:new 0 0 64 64;" xml:space="preserve">
<style type="text/css">
	.fandom_een{fill:#FF786E;}
	.fandom_twee{fill:#BE5652;}
	.fandom_zeven{fill:#508D9B;}
	.fandom_acht{fill:#6BC4D2;}
	.fandom_dertien{fill:#AA9991;}
	.fandom_veertien{fill:#EFEAE0;}
	.fandom_vijftien{fill:#3A3A3A;}
	.fandom_zestien{fill:#4D4D4D;}
	.st0{fill:#644638;}
	.st1{fill:#4B322A;}
	.st2{fill:#FFC865;}
	.st3{fill:#BE9148;}
	.st4{fill:#808080;}
	.st5{fill:#666666;}
	.st6{fill:#CCCCCC;}
	.st7{fill:#018273;}
	.st8{fill:#FFFAFA;}
	.st9{fill:#8579A3;}
	.st10{fill:#685683;}
	.st11{fill:#00B3AA;}
</style>
<g>
	<g>
		<path class="fandom_acht" d="M32,7C18.193,7,7,18.193,7,32h50C57,18.193,45.807,7,32,7z"/>
		<path class="fandom_zeven" d="M32,57c13.807,0,25-11.193,25-25H7C7,45.807,18.193,57,32,57z"/>
	</g>
	<g>
		<path class="fandom_zestien" d="M36.643,35.952L32,8.5C31.994,7.671,27.967,7,23,7s-8.994,0.671-9,1.5l-0.73,7.869
			c-0.097,1.042-0.067,2.092,0.088,3.127l2.448,16.34c0.128,0.857,0.155,1.725,0.08,2.588l-1.791,20.489
			C14.044,59.497,14.505,60,15.091,60h5.032c0.502,0,0.926-0.372,0.991-0.87l2.817-21.422c0.046-0.347,0.082-0.695,0.109-1.044
			l0.625-7.967c0.024-0.303,0.431-0.383,0.567-0.111l4.053,8.058c0.465,0.924,0.631,1.968,0.478,2.991l-2.633,17.497
			c-0.075,0.497,0.231,0.972,0.714,1.11l5.046,1.442c0.585,0.167,1.183-0.223,1.266-0.826l2.554-18.674
			C36.902,38.778,36.88,37.351,36.643,35.952z"/>
		<path class="fandom_vijftien" d="M36.71,40.183l-2.554,18.674c-0.082,0.603-0.68,0.993-1.266,0.826l-5.046-1.442
			c-0.483-0.138-0.789-0.613-0.714-1.11l0.83-5.516c0.466,0.812,0.939,1.756,1.811,2.102c0.402,0.159,0.558-0.157,0.57-0.383
			c0.054-1.054-0.631-2.004-0.954-2.967c-0.086-0.258-0.28-0.636,0.017-0.805c0.167-0.095,0.504,0.022,0.643,0.126
			c0.375,0.28,0.793,0.502,1.234,0.657c0.703,0.246,0.823-0.242,0.732-0.787c-0.115-0.686-0.619-1.615-0.951-2.213
			c-0.547-0.983-1.718-3.199-1.932-3.5l0.634-4.21c0.154-1.022-0.013-2.067-0.478-2.991l-4.053-8.058
			c-0.136-0.271-0.543-0.191-0.567,0.111l-0.532-6.103c-0.036-0.412,0.499-0.603,0.73-0.259c0,0,6.213,9.416,7.574,12.916
			c0.718,1.846,0.941,4.382,3.692,4.621C36.376,39.871,36.57,40.017,36.71,40.183z M19.461,37.755
			c-0.754-1.212-0.798-2.72-0.819-4.148L18.292,9.78C15.72,9.515,14,9.043,14,8.5l-0.73,7.869c-0.097,1.042-0.067,2.092,0.088,3.127
			l2.448,16.34c0.097,0.645,0.117,1.296,0.098,1.947c1.033,2.594,2.129,5.168,3.2,7.736c0.156,0.373,0.286,0.865-0.019,1.13
			c-0.591,0.512-1.771-1.139-2.159-0.46c-0.302,0.53,1.178,2.999,1.372,3.664c0.131,0.452,0.719,2.491-0.311,2.572
			c-0.956,0.075-3.004-3.672-3.004-3.672l-0.888,10.16C14.044,59.497,14.505,60,15.091,60h5.032c0.502,0,0.926-0.372,0.991-0.87
			l2.581-19.623C22.107,39.86,20.323,39.141,19.461,37.755z M31.992,8.528c-0.043-0.599-2.139-1.113-5.153-1.354
			c-0.529,0.969-1.689,2.19-3.179,2.824C28.269,9.942,31.911,9.308,31.992,8.528z"/>
		<path class="fandom_twee" d="M31.844,11.417L19,13v4l1,0.455v7.165c0,0.341,0.174,0.659,0.461,0.842l9.059,5.794
			c0.147,0.094,0.311,0.152,0.48,0.176V18l14-3L31.844,11.417z"/>
		<polygon class="fandom_dertien" points="38.87,13.488 35.721,12.56 30.839,13.496 27.025,12.011 24.04,12.379 28.03,14.035 23,15 
			23,15.014 26.012,16.433 31.034,15.282 35,16.929 38,16.286 33.799,14.649 		"/>
		<path class="fandom_een" d="M30,18v13.431c0.18,0.025,0.365,0.011,0.541-0.047l11.771-3.867C42.723,27.383,43,27,43,26.568v-7.353
			L44,19v-4L30,18z"/>
		<path class="fandom_veertien" d="M35,16.929l3-0.643h0v12.648l-3,0.988V16.929z M38.051,13.957
			c-1.284,1.284-3.955,1.421-5.647,1.598C30.256,15.78,28.159,16.766,26,16.92v12.091l-3-1.926v-10.73
			c-0.893-0.547-1.469-1.449-1.567-2.567c-0.144-1.641,0.793-3.208,2.227-3.728c2.014-0.729,4.619,1.12,6.791,3.015
			c0.582-1.683,1.91-4.247,4.625-4.34c2.496-0.077,3.365,1.262,3.619,1.846C39.174,11.685,38.903,13.104,38.051,13.957z
			 M28.825,14.315c-1.013-0.859-2.144-1.819-3.418-2.268c-1.122-0.396-2.09,0.341-1.982,1.567c0.043,0.489,0.295,1.108,1.254,1.276
			C25.816,15.088,27.516,14.713,28.825,14.315z M36.86,11.378c-0.434-0.997-2.123-0.714-2.817-0.233
			c-0.426,0.295-0.759,0.71-1.031,1.147c-0.087,0.14-0.535,1.242-0.599,1.25c2.054-0.256,3.869-0.672,4.225-1
			C36.881,12.298,37.036,11.783,36.86,11.378z"/>
	</g>
</g>
</svg>