<?xml version="1.0" encoding="utf-8"?>
<!-- Generator: Adobe Illustrator 19.1.0, SVG Export Plug-In . SVG Version: 6.00 Build 0)  -->
<!DOCTYPE svg PUBLIC "-//W3C//DTD SVG 1.1//EN" "http://www.w3.org/Graphics/SVG/1.1/DTD/svg11.dtd">
<svg version="1.1" id="DESIGNS" xmlns="http://www.w3.org/2000/svg" xmlns:xlink="http://www.w3.org/1999/xlink" x="0px" y="0px"
	 width="64px" height="64px" viewBox="0 0 64 64" style="enable-background:new 0 0 64 64;" xml:space="preserve">
<style type="text/css">
	.fandom_vijf{fill:#018273;}
	.fandom_zes{fill:#00B3AA;}
	.fandom_zeven{fill:#508D9B;}
	.fandom_acht{fill:#6BC4D2;}
	.fandom_zestien{fill:#4D4D4D;}
	.fandom_zeventien{fill:#666666;}
	.fandom_achttien{fill:#808080;}
	.fandom_negentien{fill:#CCCCCC;}
	.fandom_twintig{fill:#FFFAFA;}
	.st0{fill:#4B322A;}
	.st1{fill:#EFEAE0;}
	.st2{fill:#BE5652;}
	.st3{fill:#FF786E;}
	.st4{fill:#644638;}
	.st5{fill:#8579A3;}
	.st6{fill:#685683;}
	.st7{fill:#3A3A3A;}
	.st8{fill:#AA9991;}
	.st9{fill:#FFC865;}
	.st10{fill:#BE9148;}
</style>
<g>
	<g>
		<path class="fandom_zes" d="M32,7C18.193,7,7,18.193,7,32h50C57,18.193,45.807,7,32,7z"/>
		<path class="fandom_vijf" d="M32,57c13.807,0,25-11.193,25-25H7C7,45.807,18.193,57,32,57z"/>
	</g>
	<g>
		<path class="fandom_zestien" d="M24.409,40.663c-2.485-1.23-4.65-2.751-6.367-4.868c0.244-0.133,0.487-0.276,0.728-0.43
			c1.063,0.201,2.082,0.21,3.028,0.063c0.352,0.309,0.736,0.613,1.147,0.908C23.186,38.024,23.813,39.535,24.409,40.663z
			 M54.947,54.01c-0.535,0.176-2.382-0.361-3.198-1.177c-0.783-0.783-1.472-2.711-1.343-3.363l-2.162-2.162
			c-0.631,0.505-3.485-0.288-4.723-1.526c-1.261-1.261-2.225-4.337-1.754-4.952l-2.189-2.189c-2.46,2.415-7.403,1.968-11.772,0.278
			c-0.468,1.244-1.156,2.455-1.324,2.659c4.151,1.625,8.83,2.25,12.331,0.96c0.373,2.16,1.665,4.393,2.612,5.34
			c1.204,1.204,3.797,2.486,6.061,2.516c0.255,1.821,1.346,3.715,2.167,4.535c1.51,1.51,5.455,3.096,7.412,1.198L54.947,54.01z
			 M12.627,16.98c-0.437,1.54-0.537,3.347-0.293,5.363c0.91-0.277,1.909-0.472,2.953-0.496c-0.148-1.307-0.131-2.536,0.096-3.603
			c-1.062-1.492-1.669-3.13-2.006-4.356c-0.784,0.242-1.673,0.055-2.293-0.565c-0.882-0.882-0.888-2.308-0.027-3.202L8.939,8.002
			c-2.029,2.063-2.022,5.39,0.027,7.439C9.977,16.453,11.299,16.961,12.627,16.98z"/>
		<path class="fandom_zeventien" d="M14.32,10.087c-0.892-0.892-2.371-0.858-3.263,0.034c-0.01,0.01-2.118-2.119-2.118-2.119
			c2.06-2.061,5.44-2.093,7.5-0.033c1.011,1.011,1.519,2.334,1.538,3.662c1.54-0.437,3.347-0.537,5.363-0.293
			c-0.277,0.91-0.472,1.908-0.496,2.951c-1.308-0.149-2.538-0.131-3.605,0.096c-1.49-1.061-3.125-1.666-4.35-2.003
			C15.129,11.596,14.94,10.706,14.32,10.087z M36.793,17.044c-0.133,0.244-0.276,0.487-0.43,0.728
			c0.201,1.063,0.21,2.082,0.063,3.028c0.309,0.352,0.613,0.736,0.908,1.147c1.687,0.241,3.199,0.868,4.327,1.465
			C40.424,20.913,38.9,18.753,36.793,17.044z M57.065,56.128l-2.111-2.111c0.253-0.081-0.069-2.212-1.123-3.265
			c-0.803-0.803-2.818-1.457-3.419-1.281c-0.005,0.015-2.177-2.152-2.167-2.162c0.561-0.561-0.206-3.525-1.465-4.784
			c-1.284-1.284-4.48-2.226-5.012-1.693c-0.01,0.01-2.199-2.179-2.189-2.189c2.449-2.449,2.037-7.445,0.34-11.834
			c1.241-0.468,2.453-1.154,2.658-1.324c1.625,4.151,2.25,8.83,0.96,12.331c2.16,0.373,4.393,1.665,5.34,2.612
			c1.204,1.204,2.486,3.797,2.516,6.061c1.821,0.255,3.715,1.346,4.535,2.167C57.679,50.407,58.952,54.546,57.065,56.128z
			 M34.635,44.613l7.314,3.705c-0.187-0.147-0.356-0.296-0.505-0.444c-0.949-0.945-2.246-3.175-2.625-5.334
			C38.82,42.541,36.884,43.658,34.635,44.613z"/>
		<path class="fandom_achttien" d="M21.575,23.621c-1.31-0.752-3.288-1.636-5.53-1.762c2.217-0.078,4.47,0.391,6.54,1.222
			C21.968,23.244,21.796,23.433,21.575,23.621z M29.441,25.569c-0.328-0.202-0.487-0.543-0.478-0.88
			c-0.099,0.761-0.219,1.232-0.366,1.78c0.986,0.336,1.979,0.385,2.912,0.166C30.689,26.291,29.985,25.905,29.441,25.569z
			 M26.571,7.979c0.847,1.403,2.015,3.829,2.015,6.534c0,2.122-0.719,4.049-1.438,5.446c0.315,0.13,0.616,0.333,0.858,0.562
			c0.467-1.524,1.329-3.489,2.892-5.051c0.974-0.974,2.11-1.682,3.202-2.194c-2.089-2.958-4.744-5.979-4.126-8.588
			c0.298-1.255-0.681-2.37-1.57-1.174c-0.935,1.258-1.963,2.595-2.871,3.995C25.919,7.438,26.339,7.595,26.571,7.979z
			 M24.622,20.589c-0.753-1.31-1.64-3.296-1.765-5.54c-0.078,2.225,0.394,4.485,1.23,6.562
			C24.189,21.224,24.375,20.876,24.622,20.589z M36.362,17.773c-0.392,0.613-0.855,1.212-1.402,1.759
			c-1.9,1.9-4.394,2.764-5.968,3.142c0.076,0.586,0.062,1.21-0.007,1.827c0.055-0.251,0.206-0.485,0.455-0.638
			c1.375-0.847,3.768-2.019,6.477-2.019c0.092,0,0.184,0.002,0.276,0.004C36.551,20.625,36.64,19.24,36.362,17.773z M25.666,27.966
			c0.344-0.016,0.694,0.143,0.9,0.478c0.335,0.544,0.721,1.248,1.066,2.068c0.218-0.931,0.187-1.92-0.146-2.904
			C26.928,27.755,26.304,27.887,25.666,27.966z M23.673,27.988c-0.378,1.573-1.241,4.072-3.144,5.975
			c-0.547,0.547-1.146,1.01-1.759,1.402c1.467,0.277,2.852,0.189,4.075-0.169c-0.069-2.353,0.77-4.732,2.015-6.753
			c0.159-0.258,0.404-0.412,0.666-0.461C24.902,28.051,24.268,28.065,23.673,27.988z M20.959,26.149
			c-1.397,0.719-3.326,1.44-5.449,1.44c-2.705,0-5.131-1.169-6.534-2.015c-0.384-0.231-0.54-0.652-0.47-1.038
			c-1.399,0.908-2.736,1.936-3.995,2.871c-1.196,0.889-0.081,1.867,1.174,1.57c2.608-0.618,5.63,2.036,8.588,4.126
			c0.513-1.091,1.221-2.228,2.194-3.201c1.561-1.561,3.524-2.423,5.048-2.891C21.276,26.758,21.088,26.463,20.959,26.149z"/>
		<path class="fandom_negentien" d="M38.747,42.562c-1.056,0.694-10.326,5.625-10.95,2.125c-0.198-1.112,0.456-1.787,1.531-2.179
			C32.641,43.38,36.04,43.537,38.747,42.562z M43.536,37.816c2.16,0.373,4.393,1.665,5.34,2.612
			c0.148,0.148,0.297,0.317,0.445,0.504l-3.722-7.305C44.648,35.877,43.536,37.816,43.536,37.816z M36.943,37.158
			c-1.59-0.393-4.133-1.283-6.045-3.195c-1.916-1.916-2.779-4.437-3.152-6.008c-0.034-0.143-0.036-0.283-0.012-0.415
			c0.213-0.06,0.414-0.121,0.601-0.181c0.063-0.193,0.128-0.401,0.191-0.62c0.135-0.026,0.279-0.025,0.427,0.01
			c1.571,0.373,4.092,1.236,6.008,3.152c1.913,1.913,2.802,4.455,3.195,6.045C38.337,36.681,37.678,37.34,36.943,37.158z
			 M20.959,26.149c-1.397,0.719-3.326,1.44-5.449,1.44c-2.705,0-5.131-1.169-6.534-2.015c-0.649-0.391-0.649-1.323,0-1.715
			c1.403-0.846,3.829-2.015,6.534-2.015c2.453,0,4.647,0.961,6.06,1.772C20.877,24.206,20.546,25.149,20.959,26.149z M23.673,27.988
			c-0.378,1.573-1.241,4.072-3.144,5.975c-1.913,1.913-4.455,2.802-6.045,3.195c-0.735,0.182-1.394-0.477-1.213-1.213
			c0.393-1.59,1.283-4.133,3.195-6.045c1.561-1.561,3.524-2.423,5.048-2.891C22.065,27.588,22.83,27.88,23.673,27.988z
			 M26.567,28.443c0.847,1.375,2.019,3.768,2.019,6.477c0,2.705-1.169,5.131-2.015,6.534c-0.391,0.649-1.323,0.649-1.715,0
			c-0.847-1.403-2.015-3.829-2.015-6.534c0-2.709,1.173-5.102,2.019-6.477C25.254,27.805,26.173,27.805,26.567,28.443z"/>
		<path class="fandom_twintig" d="M43.536,37.816c1.004-2.725,0.847-6.165-0.038-9.514c0.395-1.04,1.066-1.667,2.157-1.472
			C49.451,27.506,43.536,37.816,43.536,37.816z M27.148,19.958c0.719-1.397,1.438-3.324,1.438-5.446
			c0-2.705-1.169-5.131-2.015-6.534c-0.391-0.648-1.323-0.648-1.715,0c-0.847,1.403-2.015,3.829-2.015,6.534
			c0,2.462,0.969,4.663,1.781,6.076C25.222,19.89,26.179,19.558,27.148,19.958z M22.475,22.684c0.73,0.173,1.38-0.477,1.206-1.206
			c-0.373-1.571-1.236-4.092-3.152-6.008c-1.912-1.912-4.455-2.802-6.045-3.195c-0.735-0.182-1.394,0.477-1.213,1.213
			c0.393,1.59,1.283,4.133,3.195,6.045C18.383,21.448,20.904,22.311,22.475,22.684z M29.441,23.863
			c-0.639,0.393-0.639,1.313,0,1.706c1.375,0.847,3.768,2.019,6.477,2.019c2.705,0,5.131-1.169,6.534-2.015
			c0.649-0.391,0.649-1.323,0-1.715c-1.403-0.846-3.829-2.015-6.534-2.015C33.208,21.844,30.815,23.016,29.441,23.863z
			 M36.943,12.275c-1.59,0.393-4.133,1.283-6.045,3.195c-1.562,1.562-2.424,3.527-2.892,5.051c0.583,0.554,0.877,1.316,0.986,2.154
			c1.573-0.378,4.068-1.242,5.968-3.142c1.913-1.913,2.802-4.455,3.195-6.045C38.337,12.752,37.678,12.093,36.943,12.275z"/>
		<path class="fandom_acht" d="M21.709,23.498c0.003,0,0.006,0,0.009,0c-0.064,0.486,0.037,1.02,0.369,1.56
			c1.602,2.609,6.622,0.985,6.622,0.985c0.685-3.037,0.252-4.741-0.859-5.645c-1.737-1.499-4.422-0.007-3.725,2.726
			C23.231,22.842,22.345,23.031,21.709,23.498z"/>
		<path class="fandom_zeven" d="M22.087,25.058c-0.331-0.54-0.433-1.074-0.369-1.56c-0.891,0.651-1.298,1.842-0.552,3.058
			c1.372,2.235,5.143,1.456,7.168,0.803c0.129-0.393,0.262-0.848,0.378-1.335C26.616,26.622,23.345,27.107,22.087,25.058z"/>
	</g>
</g>
</svg>