<?xml version="1.0" encoding="utf-8"?>
<!-- Generator: Adobe Illustrator 19.1.0, SVG Export Plug-In . SVG Version: 6.00 Build 0)  -->
<!DOCTYPE svg PUBLIC "-//W3C//DTD SVG 1.1//EN" "http://www.w3.org/Graphics/SVG/1.1/DTD/svg11.dtd">
<svg version="1.1" id="DESIGNS" xmlns="http://www.w3.org/2000/svg" xmlns:xlink="http://www.w3.org/1999/xlink" x="0px" y="0px"
	 width="64px" height="64px" viewBox="0 0 64 64" style="enable-background:new 0 0 64 64;" xml:space="preserve">
<style type="text/css">
	.fandom_drie{fill:#BE9148;}
	.fandom_vier{fill:#FFC865;}
	.fandom_negen{fill:#685683;}
	.fandom_tien{fill:#8579A3;}
	.fandom_vijftien{fill:#3A3A3A;}
	.st0{fill:#6BC4D2;}
	.st1{fill:#508D9B;}
	.st2{fill:#4B322A;}
	.st3{fill:#EFEAE0;}
	.st4{fill:#BE5652;}
	.st5{fill:#FF786E;}
	.st6{fill:#644638;}
	.st7{fill:#4D4D4D;}
	.st8{fill:#CCCCCC;}
	.st9{fill:#AA9991;}
	.st10{fill:#00B3AA;}
	.st11{fill:#018273;}
	.st12{fill:#808080;}
	.st13{fill:#666666;}
	.st14{fill:#FFFAFA;}
</style>
<g>
	<g>
		<path class="fandom_tien" d="M32,7C18.193,7,7,18.193,7,32h50C57,18.193,45.807,7,32,7z"/>
		<path class="fandom_negen" d="M32,57c13.807,0,25-11.193,25-25H7C7,45.807,18.193,57,32,57z"/>
	</g>
	<g>
		<path class="fandom_vier" d="M39.395,45.99c4.473-4.872,4.154-12.451-0.713-16.928c-3.894-3.582-9.951-3.326-13.53,0.57
			c-1.396,1.52-2.042,3.61-1.862,5.666c0.574,6.543,6.579,8.278,10.174,5.536c1.718-1.31,2.378-3.492,1.772-5.567
			c-1.01-3.46-4.827-4.017-6.802-1.868c-0.578,0.629-0.84,1.486-0.762,2.337c0.262,2.879,3.098,3.473,4.495,1.953
			c0,0,0.441-0.419,0.768-0.075c0.327,0.344-0.031,0.75-0.031,0.75c-2.312,2.518-7.023,1.513-7.407-3.298
			c-0.11-1.381,0.324-2.742,1.261-3.762c3.598-3.917,10.911-2.376,11.564,5.061c0.19,2.167-0.491,4.368-1.961,5.97
			c-3.771,4.106-10.152,4.375-14.255,0.601c-0.703-0.647-1.829-2.113-1.829-2.113c-0.965,0.134-3.681,1.325-4.993,2.343l1.569,1.962
			c2.12,2.652,5.026,4.643,8.343,5.362C30.218,51.58,35.667,50.049,39.395,45.99z"/>
		<path class="fandom_drie" d="M15.282,43.163l1.572,1.966c2.12,2.652,5.026,4.643,8.343,5.362
			c5.021,1.089,10.471-0.442,14.199-4.501c4.473-4.872,4.154-12.451-0.713-16.928c-3.894-3.582-9.951-3.326-13.53,0.57
			c-1.396,1.52-2.042,3.609-1.862,5.666c0.574,6.543,6.579,8.278,10.174,5.536c1.718-1.31,2.378-3.492,1.772-5.567
			c-1.01-3.46-4.827-4.017-6.802-1.868c-0.578,0.629-0.84,1.486-0.762,2.337c0.262,2.879,3.098,3.473,4.495,1.953
			c0,0,0.441-0.419,0.768-0.075c0.327,0.344-0.031,0.75-0.031,0.75c-2.312,2.518-7.023,1.513-7.407-3.298
			c-0.11-1.381,0.324-2.741,1.261-3.762c3.598-3.917,10.911-2.376,11.564,5.061c0.19,2.167-0.491,4.368-1.961,5.97
			c-3.771,4.106-10.152,4.375-14.255,0.601c-5.128-4.717-5.464-12.703-0.751-17.835c5.891-6.416,15.864-6.837,22.274-0.94
			c8.013,7.371,8.538,19.848,1.174,27.868C35.598,62.054,20.016,62.712,10,53.498C10,53.498,10.489,46.678,15.282,43.163z"/>
		<path class="fandom_vijftien" d="M51.912,4.086l-8.438,19.947c-0.782-0.701-1.613-1.314-2.484-1.831l8.158-19.285
			c0.323-0.762,1.202-1.122,1.966-0.797C51.878,2.443,52.234,3.323,51.912,4.086z M21.105,25.403
			c0.086-0.099,1.599-1.624,2.334-2.184L14.852,2.917c-0.322-0.762-1.202-1.122-1.966-0.797c-0.764,0.323-1.12,1.203-0.798,1.966
			L21.105,25.403z"/>
	</g>
</g>
</svg>