<?xml version="1.0" encoding="utf-8"?>
<!-- Generator: Adobe Illustrator 19.1.0, SVG Export Plug-In . SVG Version: 6.00 Build 0)  -->
<!DOCTYPE svg PUBLIC "-//W3C//DTD SVG 1.1//EN" "http://www.w3.org/Graphics/SVG/1.1/DTD/svg11.dtd">
<svg version="1.1" id="DESIGNS" xmlns="http://www.w3.org/2000/svg" xmlns:xlink="http://www.w3.org/1999/xlink" x="0px" y="0px"
	 width="64px" height="64px" viewBox="0 0 64 64" style="enable-background:new 0 0 64 64;" xml:space="preserve">
<style type="text/css">
	.fandom_een{fill:#FF786E;}
	.fandom_twee{fill:#BE5652;}
	.fandom_zeven{fill:#508D9B;}
	.fandom_acht{fill:#6BC4D2;}
	.fandom_elf{fill:#4B322A;}
	.fandom_twaalf{fill:#644638;}
	.fandom_veertien{fill:#EFEAE0;}
	.st0{fill:#8579A3;}
	.st1{fill:#685683;}
	.st2{fill:#4D4D4D;}
	.st3{fill:#3A3A3A;}
	.st4{fill:#CCCCCC;}
	.st5{fill:#AA9991;}
	.st6{fill:#00B3AA;}
	.st7{fill:#018273;}
	.st8{fill:#FFC865;}
	.st9{fill:#BE9148;}
	.st10{fill:#808080;}
	.st11{fill:#666666;}
	.st12{fill:#FFFAFA;}
</style>
<g>
	<g>
		<path class="fandom_acht" d="M32,7C18.193,7,7,18.193,7,32h50C57,18.193,45.807,7,32,7z"/>
		<path class="fandom_zeven" d="M32,57c13.807,0,25-11.193,25-25H7C7,45.807,18.193,57,32,57z"/>
	</g>
	<g>
		<path class="fandom_elf" d="M52.812,14.117l-21.819,4.098c-0.023,0.421-0.117,0.822-0.263,1.198
			c4.062,0.445,1.934,4.11-0.389,4.264c-0.628,0.042-1.256-0.093-1.926-0.003c-0.83,0.112-1.277,0.785-2.009,1.073
			c-1.129,0.443-3.046,0.008-3.953-1.734c-0.179-0.344-0.265-1.239-0.596-1.43c-0.672-0.388-1.217-0.91-1.525-1.549
			C19.52,20.176,16.021,20.945,16,21.57v22.25c-0.004,1,5.739,6.496,14,4.188l23.362-10.862c0.345-0.167,0.638-0.517,0.638-0.9
			V15.008C54,15.008,53.779,13.905,52.812,14.117z"/>
		<path class="fandom_veertien" d="M30.731,19.413c-0.05,0.129-0.107,0.256-0.168,0.379c-0.657,1.309-1.998,2.216-3.562,2.216
			c-2.209,0-4-1.791-4-4c0-0.231,0.02-0.457,0.058-0.677c0.006-0.033-1.002,0.005-1.098,0.019c-1.315,0.203-2.229,1.685-1.514,2.898
			c0.334,0.566,0.846,1.008,1.411,1.334c0.331,0.191,0.418,1.087,0.596,1.43c0.907,1.742,2.824,2.177,3.953,1.734
			c0.732-0.287,1.18-0.961,2.009-1.073c0.67-0.09,1.298,0.044,1.926,0.003C32.662,23.523,34.798,19.858,30.731,19.413z"/>
		<path class="fandom_twee" d="M25.215,14.445C23.907,15.103,23,16.443,23,18.008c0,2.209,1.791,4,4,4
			c1.564,0,2.905-0.907,3.562-2.215C27.128,21.517,23.491,17.878,25.215,14.445z"/>
		<path class="fandom_een" d="M30.107,15.488c-0.489,0.854-1.026,1.413-1.08,1.468c-0.906,0.931-2.37-0.432-1.432-1.396
			c0.013-0.014,0.506-0.534,0.884-1.27c-1.019-0.406-2.174-0.393-3.264,0.155c-1.725,3.434,1.914,7.071,5.347,5.347
			C30.833,19.253,31,18.652,31,18.008C31,17.053,30.665,16.176,30.107,15.488z"/>
		<path class="fandom_twaalf" d="M27.596,15.561c0.027-0.029,2.11-2.227,0.975-4.018c-0.713-1.125,0.985-2.184,1.689-1.071
			c1.985,3.133-1.1,6.349-1.232,6.484C28.121,17.887,26.657,16.524,27.596,15.561z M30,48.008l23.362-10.862
			c0.345-0.167,0.638-0.517,0.638-0.9v-4.238L30,42.792V48.008z M53.437,15.789L30.792,26.008c-0.357,0.16-0.789,0.334-0.792,0.725
			v4.807l24-10.838v-5.694C54,15.008,53.955,15.534,53.437,15.789z M30,39.792l24-10.784v-5.306L30,34.54V39.792z"/>
	</g>
</g>
</svg>