<?xml version="1.0" encoding="utf-8"?>
<!-- Generator: Adobe Illustrator 19.1.0, SVG Export Plug-In . SVG Version: 6.00 Build 0)  -->
<!DOCTYPE svg PUBLIC "-//W3C//DTD SVG 1.1//EN" "http://www.w3.org/Graphics/SVG/1.1/DTD/svg11.dtd">
<svg version="1.1" id="DESIGNS" xmlns="http://www.w3.org/2000/svg" xmlns:xlink="http://www.w3.org/1999/xlink" x="0px" y="0px"
	 width="64px" height="64px" viewBox="0 0 64 64" style="enable-background:new 0 0 64 64;" xml:space="preserve">
<style type="text/css">
	.fandom_twee{fill:#BE5652;}
	.fandom_negen{fill:#685683;}
	.fandom_tien{fill:#8579A3;}
	.fandom_vijftien{fill:#3A3A3A;}
	.fandom_zestien{fill:#4D4D4D;}
	.fandom_zeventien{fill:#666666;}
	.fandom_achttien{fill:#808080;}
	.st0{fill:#FF786E;}
	.st1{fill:#EFEAE0;}
	.st2{fill:#AA9991;}
	.st3{fill:#FFFAFA;}
	.st4{fill:#644638;}
	.st5{fill:#6BC4D2;}
	.st6{fill:#508D9B;}
	.st7{fill:#4B322A;}
	.st8{fill:#FFC865;}
	.st9{fill:#BE9148;}
	.st10{fill:#CCCCCC;}
	.st11{fill:#018273;}
	.st12{fill:#00B3AA;}
</style>
<g>
	<g>
		<path class="fandom_tien" d="M32,6.534C18.193,6.534,7,18.193,7,32h50C57,18.193,45.807,6.534,32,6.534z"/>
		<path class="fandom_negen" d="M32,57c13.807,0,25-11.193,25-25H7C7,45.807,18.193,57,32,57z"/>
	</g>
	<g>
		<path class="fandom_zeventien" d="M40.451,25.418c-3.441,5.801-4.351,15.479-4.583,19.537c-0.061,1.057-0.888,1.879-1.891,1.879
			h-1.938h-0.078h-1.938c-1.003,0-1.83-0.821-1.891-1.879c-0.233-4.058-1.143-13.735-4.583-19.537l7.628,5.323
			C31.424,30.914,31.712,31,32,31s0.575-0.086,0.823-0.258L40.451,25.418z M23.258,19.258l8.738,6.099l8.746-6.099
			c0.329-0.229,0.721-0.3,1.087-0.232C41.678,11.039,35.462,8.503,32.993,8c-0.659-0.134-1.327-0.134-1.986,0
			c-2.469,0.503-8.685,3.039-8.836,11.026C22.537,18.958,22.929,19.029,23.258,19.258z M50.38,34.361
			c-1.313-0.791-2.152-2.175-2.322-3.699C47.33,24.137,44.135,4.096,32,4.096v1.438c9.625,0.167,13.125,13.172,13.125,22.8
			c0,7.338-5.546,13.226-9.239,16.34c-0.006,0.092-0.013,0.195-0.018,0.282c-0.061,1.057-0.888,1.879-1.891,1.879H32V48h3.105
			c0.51,0,0.938,0.383,0.994,0.89l0.845,7.604c9.828-1.974,17.578-9.696,19.56-19.522C55.237,36.585,52.583,35.688,50.38,34.361z"/>
		<g>
			<g>
				<path class="fandom_achttien" d="M34.848,46.601c-0.122,0.067-0.252,0.119-0.387,0.158
					C34.597,46.721,34.726,46.668,34.848,46.601z"/>
				<polygon class="fandom_achttien" points="34.848,46.601 34.848,46.601 34.848,46.601 				"/>
				<path class="fandom_achttien" d="M32.993,8C32.664,7.933,32.332,7.899,32,7.899l0.005,17.456l8.737-6.097
					c0.329-0.229,0.721-0.3,1.087-0.232C41.678,11.039,35.462,8.503,32.993,8z"/>
				<path class="fandom_achttien" d="M32,31v2h0.472c0.51,0,0.939,0.384,0.994,0.892l1.381,12.709
					c0.572-0.314,0.978-0.921,1.02-1.646c0.233-4.058,1.143-13.736,4.583-19.537l-7.629,5.324C32.575,30.914,32.288,31,32,31z"/>
				<path class="fandom_achttien" d="M34.417,46.773c-0.141,0.038-0.287,0.06-0.44,0.06C34.129,46.833,34.275,46.809,34.417,46.773z
					"/>
				<path class="fandom_achttien" d="M34.461,46.759c-0.015,0.004-0.029,0.01-0.044,0.014
					C34.432,46.769,34.446,46.764,34.461,46.759z"/>
			</g>
			<g>
				<path class="fandom_achttien" d="M34.848,46.601c-0.122,0.067-0.252,0.119-0.387,0.158
					C34.597,46.721,34.726,46.668,34.848,46.601z"/>
				<polygon class="fandom_achttien" points="34.848,46.601 34.848,46.601 34.848,46.601 				"/>
				<path class="fandom_achttien" d="M32.993,8C32.664,7.933,32.332,7.899,32,7.899l0.005,17.456l8.737-6.097
					c0.329-0.229,0.721-0.3,1.087-0.232C41.678,11.039,35.462,8.503,32.993,8z"/>
				<path class="fandom_achttien" d="M32,31v2h0.472c0.51,0,0.939,0.384,0.994,0.892l1.381,12.709
					c0.572-0.314,0.978-0.921,1.02-1.646c0.233-4.058,1.143-13.736,4.583-19.537l-7.629,5.324C32.575,30.914,32.288,31,32,31z"/>
				<path class="fandom_achttien" d="M34.417,46.773c-0.141,0.038-0.287,0.06-0.44,0.06C34.129,46.833,34.275,46.809,34.417,46.773z
					"/>
				<path class="fandom_achttien" d="M34.461,46.759c-0.015,0.004-0.029,0.01-0.044,0.014
					C34.432,46.769,34.446,46.764,34.461,46.759z"/>
			</g>
		</g>
		<path class="fandom_vijftien" d="M32,5.534c-9.625,0.167-13.125,13.172-13.125,22.8c0,7.338,5.546,13.226,9.239,16.34
			c-0.257-4.202-1.198-13.578-4.565-19.255l7.628,5.323C31.424,30.914,31.712,31,32,31s0.575-0.086,0.823-0.258l7.629-5.324
			c-3.367,5.677-4.309,15.053-4.566,19.255c3.694-3.114,9.239-9.002,9.239-16.34C45.125,18.706,41.625,5.7,32,5.534z M40.742,19.258
			L32,25.359l-0.004-0.002l-8.738-6.099c-0.329-0.229-0.721-0.3-1.087-0.232C22.322,11.039,28.538,8.503,31.007,8
			c0.659-0.134,1.327-0.134,1.986,0c2.469,0.503,8.685,3.039,8.836,11.026C41.464,18.958,41.071,19.029,40.742,19.258z M33.804,37
			l0.217,2h-4.044l0.217-2H33.804z M29.761,41h4.478l0.217,2h-4.913L29.761,41z M34.848,46.601
			c-0.262,0.144-0.556,0.233-0.871,0.233h-3.954c-0.315,0-0.609-0.089-0.871-0.233L29.326,45h5.348L34.848,46.601z M30.533,33.892
			C30.589,33.384,31.017,33,31.528,33h0.945c0.51,0,0.939,0.384,0.994,0.892L33.587,35h-3.174L30.533,33.892z M36.945,56.509
			C35.347,56.83,33.693,57,32,57s-3.347-0.17-4.945-0.491l0.847-7.619c0.056-0.506,0.484-0.89,0.994-0.89h6.21
			c0.51,0,0.938,0.383,0.994,0.89L36.945,56.509z"/>
		<path class="fandom_zestien" d="M42.388,21.602c0.649-0.453,0.807-1.345,0.352-1.993c-0.452-0.646-1.348-0.803-1.998-0.352
			L32,25.359l-8.742-6.101c-0.648-0.451-1.545-0.296-1.998,0.352c-0.455,0.647-0.297,1.54,0.352,1.993c0,0-0.232,0.299-0.352,0.471
			c-0.455,0.647-0.297,1.54,0.352,1.993l9.565,6.675C31.424,30.914,31.712,31,32,31s0.575-0.086,0.823-0.258l9.565-6.675
			c0.649-0.453,0.807-1.345,0.352-1.993C42.62,21.901,42.388,21.602,42.388,21.602z M39.716,23.823L37.57,25.31
			c-0.174,0.121-0.373,0.178-0.569,0.178c-0.317,0-0.629-0.15-0.822-0.43c-0.315-0.454-0.202-1.077,0.251-1.392l2.146-1.488
			c0.455-0.316,1.078-0.202,1.392,0.252C40.282,22.885,40.169,23.508,39.716,23.823z M32,46.833V48h-3.105
			c-0.51,0-0.938,0.383-0.994,0.89l-0.845,7.604c-9.828-1.974-17.578-9.696-19.56-19.522c1.267-0.386,3.921-1.283,6.124-2.61
			c1.313-0.791,2.152-2.175,2.322-3.699C16.67,24.137,19.865,4.096,32,4.096v1.438c-9.625,0.167-13.125,13.172-13.125,22.8
			c0,7.338,5.546,13.226,9.239,16.34c0.006,0.092,0.013,0.195,0.018,0.282c0.061,1.057,0.888,1.879,1.891,1.879H32z"/>
		<path class="fandom_twee" d="M37.001,25.489c-0.317,0-0.629-0.15-0.822-0.43c-0.315-0.454-0.202-1.077,0.251-1.392l2.146-1.488
			c0.455-0.316,1.078-0.202,1.392,0.252c0.315,0.454,0.202,1.077-0.251,1.392L37.57,25.31
			C37.397,25.431,37.197,25.489,37.001,25.489z"/>
	</g>
</g>
</svg>