<?xml version="1.0" encoding="utf-8"?>
<!-- Generator: Adobe Illustrator 19.1.0, SVG Export Plug-In . SVG Version: 6.00 Build 0)  -->
<!DOCTYPE svg PUBLIC "-//W3C//DTD SVG 1.1//EN" "http://www.w3.org/Graphics/SVG/1.1/DTD/svg11.dtd">
<svg version="1.1" id="DESIGNS" xmlns="http://www.w3.org/2000/svg" xmlns:xlink="http://www.w3.org/1999/xlink" x="0px" y="0px"
	 width="64px" height="64px" viewBox="0 0 64 64" style="enable-background:new 0 0 64 64;" xml:space="preserve">
<style type="text/css">
	.fandom_een{fill:#FF786E;}
	.fandom_twee{fill:#BE5652;}
	.fandom_drie{fill:#BE9148;}
	.fandom_vier{fill:#FFC865;}
	.fandom_zeven{fill:#508D9B;}
	.fandom_acht{fill:#6BC4D2;}
	.fandom_elf{fill:#4B322A;}
	.fandom_twaalf{fill:#644638;}
	.fandom_dertien{fill:#AA9991;}
	.fandom_veertien{fill:#EFEAE0;}
	.st0{fill:#808080;}
	.st1{fill:#666666;}
	.st2{fill:#CCCCCC;}
	.st3{fill:#018273;}
	.st4{fill:#3A3A3A;}
	.st5{fill:#FFFAFA;}
	.st6{fill:#4D4D4D;}
	.st7{fill:#8579A3;}
	.st8{fill:#685683;}
	.st9{fill:#00B3AA;}
</style>
<g>
	<g>
		<path class="fandom_acht" d="M32,7C18.193,7,7,18.193,7,32h50C57,18.193,45.807,7,32,7z"/>
		<path class="fandom_zeven" d="M32,57c13.807,0,25-11.193,25-25H7C7,45.807,18.193,57,32,57z"/>
	</g>
	<g>
		<path class="fandom_een" d="M15,18.976c-0.552,0.102-1.075,0.285-1.556,0.538c-0.41-0.543-0.738-0.995-0.967-1.316
			c0.77-0.749,1.613-1.507,2.523-2.244V18.976z M52.452,19.722L45,15.95v3.027c2.56,0.47,4.5,2.713,4.5,5.409
			c0,1.779-0.845,3.36-2.155,4.366L53,25.952v-5.337C53,20.238,52.788,19.893,52.452,19.722z M44,29.885c-3.038,0-5.5-2.462-5.5-5.5
			c0-2.696,1.94-4.939,4.5-5.409v-4.039l-4.292-2.173c-1.182-0.675-2.227-1.263-3.313-1.722H31v4.021c0,1.323-2,1.325-2,0v-5.036
			c-1.889,0.1-3.824,0.509-5.531,1.082C23.783,11.278,24,11.577,24,11.958V14c0,0.552-0.323,1-0.875,1H17v3.976
			c2.56,0.47,4.5,2.713,4.5,5.409c0,1.08-0.311,2.086-0.849,2.936c3.765,3.159,8.568,5.929,13.831,5.929
			c4.349,0,7.249-1.72,10.955-3.555C44.98,29.819,44.498,29.885,44,29.885z"/>
		<path class="fandom_twee" d="M52,11.958V14c0,0.552-0.364,1-0.917,1H45v-4h6.083C51.636,11,52,11.406,52,11.958z M23,11h-6v4
			h6.125C23.677,15,24,14.552,24,14v-2.042C24,11.406,23.552,11,23,11z M47.345,28.751c-0.56,0.43-1.206,0.755-1.907,0.944
			c-3.694,1.829-6.592,3.555-10.955,3.555c-5.264,0-10.066-2.77-13.831-5.929c-0.975,1.541-2.693,2.564-4.651,2.564
			c-3.038,0-5.5-2.462-5.5-5.5c0-2.115,1.194-3.95,2.944-4.871c-0.415-0.55-0.746-1.006-0.975-1.327
			c-2.438,2.587-4.365,4.976-5.057,6.136c-0.247,0.415-0.224,0.926,0.055,1.32c1.017,1.436,3.731,5.031,7.532,8.264
			C18.793,37.134,24.645,40,30,40c2.707,0,4.285-0.741,6.622-1.893l15.821-7.831C52.784,30.107,53,29.759,53,29.379v-3.427
			L47.345,28.751z M37,7h-6v4.042h6c0.552,0,1-0.448,1-1V8C38,7.448,37.552,7,37,7z"/>
		<path class="fandom_elf" d="M11.236,42.485l4.223,1.636c-0.116,0.565-0.404,1.067-0.803,1.455l-2.999-1.607
			C11.016,43.626,10.924,42.956,11.236,42.485z M37.953,52.266l3.526,1.809C42.116,53.413,43.011,53,44,53c1.93,0,3.5,1.57,3.5,3.5
			S45.93,60,44,60c-2.187,0-3.852-1.997-3.437-4.161L37.046,54c0,0-11.3,0-11.303,0c1.033,2.913-1.134,6-4.243,6
			c-2.481,0-4.5-2.019-4.5-4.5c0-2.146,1.51-3.946,3.524-4.393c-0.909-1.522-0.549-2.587-4.083-4.555
			c0.393-0.49,0.688-1.052,0.866-1.67c5.22,2.148,12.85,6.781,18.173,7.5C36.359,52.5,37.078,52.453,37.953,52.266z M24,55.5
			c0-1.381-1.119-2.5-2.5-2.5c-1.381,0-2.5,1.119-2.5,2.5c0,1.381,1.119,2.5,2.5,2.5C22.881,58,24,56.881,24,55.5z M42.5,56.5
			c0,0.828,0.672,1.5,1.5,1.5s1.5-0.672,1.5-1.5S44.828,55,44,55S42.5,55.672,42.5,56.5z"/>
		<path class="fandom_twaalf" d="M45,10.618v12.465c0,1.325-2,1.323-2,0V10.618c-0.307-0.275-0.5-0.674-0.5-1.118
			c0-1.986,3-1.984,3,0C45.5,9.944,45.307,10.343,45,10.618z M17.5,9.5c0-1.984-3-1.986-3,0c0,0.444,0.193,0.843,0.5,1.118v12.465
			c0,1.323,2,1.325,2,0V10.618C17.307,10.343,17.5,9.944,17.5,9.5z M31.5,5.5c0-1.984-3-1.986-3,0c0,0.444,0.193,0.843,0.5,1.118
			v8.445c0,1.323,2,1.325,2,0V6.618C31.307,6.343,31.5,5.944,31.5,5.5z M15.33,42.575l-3.092-0.505
			c-0.455-0.084-0.803,0.116-1.002,0.416l4.223,1.636C15.57,43.575,15.515,43.071,15.33,42.575z M47.458,45.787l-8.31,7.092
			l-1.195-0.613c-0.875,0.188-1.594,0.234-2.474,0.116c-5.33-0.719-12.971-5.359-18.173-7.5c0.28-0.968,0.228-1.341,0.145-1.96
			L21,43.501V37.75c0.653,0.309,1.322,0.594,2,0.85v5.228l1.193,0.195c0.735,0.161,0.786,0.707,0.786,1.344
			c0,0.552,0.469,1.664,1.021,1.664h5.839c0.633,0,1.148-0.51,1.153-1.143C33.001,44.902,32.934,44,34,44h1v-5.139
			c0.65-0.292,1.359-0.644,2-0.962V44c0,0-0.03,0.006,9.817,0.006C47.742,44.006,48.141,45.204,47.458,45.787z M44.152,45.994
			h-5.218c-1.595,1.734-2.283,3.462-1.333,5.591L44.152,45.994z"/>
		<path class="fandom_vier" d="M15.33,42.575l2.122,0.347c0.083,0.619,0.135,0.992-0.145,1.96l-1.848-0.76
			C15.57,43.575,15.515,43.071,15.33,42.575z M16,18.885c-3.038,0-5.5,2.462-5.5,5.5s2.462,5.5,5.5,5.5s5.5-2.462,5.5-5.5
			S19.038,18.885,16,18.885z M49.5,24.385c0,3.038-2.462,5.5-5.5,5.5s-5.5-2.462-5.5-5.5s2.462-5.5,5.5-5.5S49.5,21.348,49.5,24.385
			z"/>
		<path class="fandom_drie" d="M17.307,44.882c-0.179,0.618-0.474,1.181-0.866,1.67l-1.785-0.976c0.4-0.388,0.688-0.889,0.803-1.455
			L17.307,44.882z M13.546,19.466c-1.807,0.907-3.059,2.755-3.059,4.913c0,3.047,2.472,5.517,5.522,5.517
			c2.16,0,4.01-1.251,4.918-3.056C16.187,29.22,11.165,24.2,13.546,19.466z M48.927,26.84c-0.908,1.805-2.758,3.056-4.918,3.056
			c-3.05,0-5.522-2.47-5.522-5.517c0-2.158,1.252-4.007,3.059-4.913C39.165,24.2,44.187,29.22,48.927,26.84z"/>
		<path class="fandom_veertien" d="M53,20.615c0-0.238-0.084-0.462-0.231-0.639C53.769,19.601,55,20,56,19
			c0.878-0.878,2.819-4.314,5.517-4.334c0.731-0.006,1.201,0.776,0.873,1.429c-0.532,1.058-1.155,2.628-0.727,3.507
			c0.145,0.297,0.209,0.626,0.071,0.926c-0.417,0.91-1.1,2.787-0.282,3.953c0.216,0.308,0.216,0.73,0,1.038
			c-0.818,1.166-0.136,3.043,0.282,3.953c0.138,0.301,0.074,0.629-0.071,0.926c-0.285,0.584-0.105,1.473,0.204,2.314
			c-3.128-2.228-5.144-7.305-8.867-6.761V20.615z M53.526,53.013c0.981,0.198-1.1-2.787-0.282-3.953c0.216-0.308,0.216-0.73,0-1.038
			c-0.818-1.166-0.136-3.043,0.282-3.953c0.138-0.301,0.074-0.629-0.071-0.926c-0.429-0.88,0.195-2.449,0.727-3.507
			c0.328-0.653-0.142-1.435-0.873-1.429c-2.58,0.02-5.898,4.162-6.36,6.545C46.028,49.496,48.771,52.055,53.526,53.013z"/>
		<path class="fandom_dertien" d="M61.517,35.334C58.819,35.314,56.878,31.878,56,31c-1-1-3.235-0.977-3.235-0.978
			C52.915,29.845,53,29.613,53,29.379v-3.427c3.722-0.544,5.741,4.534,8.867,6.761c0.156,0.425,0.345,0.838,0.523,1.193
			C62.718,34.559,62.248,35.34,61.517,35.334z M53.526,53.013c0.781,0.157-0.378-1.701-0.471-3.054
			c-3.574-1.338-5.281-3.672-6.078-5.348C45.92,49.393,48.737,52.048,53.526,53.013z"/>
	</g>
</g>
</svg>