<?xml version="1.0" encoding="utf-8"?>
<!-- Generator: Adobe Illustrator 19.1.0, SVG Export Plug-In . SVG Version: 6.00 Build 0)  -->
<!DOCTYPE svg PUBLIC "-//W3C//DTD SVG 1.1//EN" "http://www.w3.org/Graphics/SVG/1.1/DTD/svg11.dtd">
<svg version="1.1" id="DESIGNS" xmlns="http://www.w3.org/2000/svg" xmlns:xlink="http://www.w3.org/1999/xlink" x="0px" y="0px"
	 width="64px" height="64px" viewBox="0 0 64 64" style="enable-background:new 0 0 64 64;" xml:space="preserve">
<style type="text/css">
	.fandom_een{fill:#FF786E;}
	.fandom_twee{fill:#BE5652;}
	.fandom_drie{fill:#BE9148;}
	.fandom_vier{fill:#FFC865;}
	.fandom_vijftien{fill:#3A3A3A;}
	.fandom_zestien{fill:#4D4D4D;}
	.fandom_zeventien{fill:#666666;}
	.fandom_negentien{fill:#CCCCCC;}
	.fandom_twintig{fill:#FFFAFA;}
	.st0{fill:#644638;}
	.st1{fill:#4B322A;}
	.st2{fill:#EFEAE0;}
	.st3{fill:#AA9991;}
	.st4{fill:#808080;}
	.st5{fill:#6BC4D2;}
	.st6{fill:#508D9B;}
	.st7{fill:#018273;}
	.st8{fill:#8579A3;}
	.st9{fill:#685683;}
	.st10{fill:#00B3AA;}
</style>
<g>
	<g>
		<path class="fandom_vier" d="M32,7C18.193,7,7,18.193,7,32h50C57,18.193,45.807,7,32,7z"/>
		<path class="fandom_drie" d="M32,57c13.807,0,25-11.193,25-25H7C7,45.807,18.193,57,32,57z"/>
	</g>
	<g>
		<path class="fandom_zestien" d="M60.189,25.494c0.406,0.11,0.497,0.538,0.201,0.949l-14.549,20.22
			c-0.296,0.411-0.871,0.658-1.278,0.547L2.375,35.742c-0.406-0.11-0.497-0.538-0.201-0.949l14.549-20.22
			c0.296-0.411,0.871-0.658,1.278-0.547L60.189,25.494z M55.811,27.882c0.296-0.411,0.212-0.837-0.201-0.949l-0.739-0.201
			c-0.406-0.11-0.982,0.136-1.278,0.547L42.274,43.01c-0.296,0.411-0.205,0.839,0.201,0.949l0.739,0.201
			c0.413,0.112,0.982-0.136,1.278-0.547L55.811,27.882z"/>
		<path class="fandom_negentien" d="M28.415,20.527l0.81,1.287c1.285,2.041,1,5.046-1.067,7.999
			c-3.117,4.454-9.115,7.095-13.396,5.898c-1.451-0.406-2.519-1.198-3.177-2.243l-0.81-1.287c0.657,1.044,1.726,1.837,3.177,2.243
			c4.281,1.196,10.279-1.444,13.396-5.898C29.415,25.574,29.7,22.568,28.415,20.527z M44.351,33.528
			c-3.117,4.454-9.12,7.093-13.401,5.896c-1.449-0.405-2.516-1.198-3.173-2.242l0.81,1.287c0.657,1.044,1.725,1.837,3.173,2.242
			c4.281,1.197,10.284-1.442,13.401-5.896c2.066-2.952,2.348-5.957,1.063-7.999l-0.81-1.287
			C46.699,27.571,46.416,30.576,44.351,33.528z"/>
		<path class="fandom_zeventien" d="M55.61,26.933c0.413,0.112,0.497,0.538,0.201,0.949L44.492,43.613
			c-0.296,0.411-0.865,0.659-1.278,0.547l-0.739-0.201c-0.406-0.11-0.497-0.538-0.201-0.949l11.319-15.731
			c0.296-0.411,0.871-0.658,1.278-0.547L55.61,26.933z"/>
		<path class="fandom_twee" d="M51.926,35.474L51.11,34.23c0.122,0.187,0.096,0.461-0.103,0.734l-1.623,2.224
			c-0.302,0.414-0.876,0.652-1.284,0.542l-3.721-0.997c-0.139-0.037-0.242-0.11-0.305-0.206l0.816,1.243
			c0.063,0.096,0.166,0.169,0.305,0.206l3.721,0.997c0.408,0.109,0.982-0.128,1.284-0.542l1.623-2.224
			C52.022,35.934,52.048,35.66,51.926,35.474z"/>
		<path class="fandom_een" d="M50.805,34.024c0.408,0.109,0.504,0.526,0.202,0.94l-1.623,2.224
			c-0.302,0.414-0.876,0.652-1.284,0.542l-3.721-0.997c-0.408-0.109-0.504-0.526-0.202-0.94l1.623-2.224
			c0.302-0.414,0.876-0.652,1.284-0.542L50.805,34.024z"/>
		<path class="fandom_twintig" d="M20.942,24.437c1.017,0.284,1.241,1.372,0.496,2.437c-0.741,1.058-2.165,1.685-3.182,1.401
			c-1.024-0.286-1.248-1.374-0.507-2.432C18.493,24.779,19.918,24.151,20.942,24.437z M34.745,30.843
			c-0.741,1.058-0.516,2.146,0.507,2.432c1.017,0.284,2.448-0.341,3.189-1.399c0.745-1.065,0.515-2.155-0.502-2.439
			C36.915,29.151,35.49,29.778,34.745,30.843z M28.835,29.191c-3.117,4.454-2.167,9.036,2.114,10.233
			c4.281,1.197,10.284-1.442,13.401-5.896c3.122-4.461,2.172-9.043-2.109-10.24C37.96,22.092,31.957,24.73,28.835,29.191z
			 M32.024,37.889c-3.484-0.891-4.23-4.688-1.713-8.285c2.522-3.604,7.392-5.748,10.856-4.78c3.463,0.968,4.341,4.772,1.701,8.29
			C40.469,36.312,34.781,38.594,32.024,37.889z M11.837,24.192c-3.117,4.454-2.174,9.034,2.114,10.233
			c4.281,1.196,10.279-1.444,13.396-5.898c3.122-4.461,2.179-9.041-2.103-10.238C20.957,17.09,14.96,19.731,11.837,24.192z
			 M15.027,32.889c-3.464-0.965-4.23-4.688-1.713-8.285c2.522-3.603,7.393-5.748,10.857-4.78c3.457,0.966,4.142,4.544,1.702,8.29
			C24.107,30.824,19.125,34.031,15.027,32.889z"/>
		<path class="fandom_vijftien" d="M41.167,24.824c3.463,0.968,4.324,4.759,1.701,8.29c-2.399,3.23-8.149,5.511-10.844,4.775
			c-3.469-0.948-4.23-4.688-1.713-8.285C32.833,26,37.703,23.856,41.167,24.824z M38.441,31.876
			c0.778-1.064,0.515-2.155-0.502-2.439c-1.024-0.286-2.448,0.341-3.194,1.406c-0.741,1.058-0.516,2.146,0.507,2.432
			C36.276,33.562,37.719,33,38.441,31.876z M24.169,19.824c3.463,0.968,4.223,4.687,1.701,8.29
			c-2.517,3.597-7.381,5.743-10.844,4.775c-3.463-0.968-4.23-4.688-1.713-8.285C15.835,21.001,20.706,18.856,24.169,19.824z
			 M21.443,26.876c0.778-1.064,0.515-2.155-0.503-2.439c-1.024-0.286-2.448,0.341-3.194,1.406c-0.741,1.058-0.516,2.146,0.507,2.432
			C19.278,28.562,20.721,28,21.443,26.876z M2.375,35.742c-0.137-0.037-0.238-0.111-0.301-0.207l2.436,3.764
			c0.062,0.097,0.164,0.17,0.301,0.207L47,50.974c0.406,0.11,0.982-0.136,1.278-0.547l14.549-20.22
			c0.196-0.273,0.222-0.552,0.1-0.742l-2.436-3.764c0.123,0.19,0.096,0.469-0.1,0.742l-14.549,20.22
			c-0.296,0.411-0.871,0.658-1.278,0.547L2.375,35.742z"/>
	</g>
</g>
</svg>