<?xml version="1.0" encoding="utf-8"?>
<!-- Generator: Adobe Illustrator 19.1.0, SVG Export Plug-In . SVG Version: 6.00 Build 0)  -->
<!DOCTYPE svg PUBLIC "-//W3C//DTD SVG 1.1//EN" "http://www.w3.org/Graphics/SVG/1.1/DTD/svg11.dtd">
<svg version="1.1" id="DESIGNS" xmlns="http://www.w3.org/2000/svg" xmlns:xlink="http://www.w3.org/1999/xlink" x="0px" y="0px"
	 width="64px" height="64px" viewBox="0 0 64 64" style="enable-background:new 0 0 64 64;" xml:space="preserve">
<style type="text/css">
	.fandom_een{fill:#FF786E;}
	.fandom_twee{fill:#BE5652;}
	.fandom_vijf{fill:#018273;}
	.fandom_zes{fill:#00B3AA;}
	.fandom_dertien{fill:#AA9991;}
	.fandom_veertien{fill:#EFEAE0;}
	.st0{fill:#FFC865;}
	.st1{fill:#BE9148;}
	.st2{fill:#644638;}
	.st3{fill:#8579A3;}
	.st4{fill:#808080;}
	.st5{fill:#666666;}
	.st6{fill:#685683;}
	.st7{fill:#4D4D4D;}
	.st8{fill:#FFFAFA;}
	.st9{fill:#6BC4D2;}
	.st10{fill:#508D9B;}
	.st11{fill:#CCCCCC;}
	.st12{fill:#4B322A;}
	.st13{fill:#3A3A3A;}
</style>
<g>
	<g>
		<path class="fandom_zes" d="M32,7C18.193,7,7,18.193,7,32h50C57,18.193,45.807,7,32,7z"/>
		<path class="fandom_vijf" d="M32,57c13.807,0,25-11.193,25-25H7C7,45.807,18.193,57,32,57z"/>
	</g>
	<g>
		<path class="fandom_dertien" d="M26.032,26.471c-0.308,1.341-1.262,2.506-2.649,3.02l-4.787,1.773
			c-2.188,0.81-4.618-0.307-5.429-2.494c-0.146-0.394-0.224-0.579-0.302-1.007c0.475-0.658,1.021-1.267,1.626-1.822
			c0.017,0.053,0.158,0.471,0.158,0.471c0.81,2.188,3.241,3.305,5.429,2.494C24.348,27.324,25.157,27.17,26.032,26.471z
			 M45.252,50.624l-6.681-1.971c-3.053-0.901-4.798-4.107-3.897-7.16c0.26-0.881,0.074-0.245,0.212-0.644
			c-1.115,0.113-2.209,0.332-3.265,0.664c-0.264,0.532-0.33,0.797-0.492,1.348c-0.901,3.053,0.844,6.259,3.897,7.16l6.681,1.971
			c1.935,0.571,3.93,0.077,5.362-1.138C46.47,50.874,45.858,50.803,45.252,50.624z"/>
		<path class="fandom_een" d="M26.669,13.077c-6.08-5.763-17.395-5.279-20.783,5.614c0.113,0.706,0.314,1.395,0.619,2.051
			c1.692-0.078,3.313,0.934,3.933,2.607c0.114,0.308,0.188,0.621,0.224,0.933c3.559,0.921,13.051-2.731,15.089-4.034
			C22.952,18.461,23.528,14.1,26.669,13.077z M58.695,36.683c-2.965-0.992-6.143,0.68-7.021,3.658
			c-0.35,1.188-0.281,2.399,0.121,3.476c-3.275-0.247-16.566-3.988-19.714-7.874c0.221-0.378,0.401-0.788,0.53-1.227
			c0.696-2.36-0.264-4.814-2.202-6.119c0.204-0.948,0.542-1.849,0.988-2.699C43.604,16.957,56.656,25.079,58.695,36.683z"/>
		<path class="fandom_veertien" d="M26.018,26.481c-0.871,0.69-1.652,0.837-5.94,2.425c-2.248,0.833-4.865-0.349-5.581-2.945
			c3.121-2.869,7.229-3.756,10.954-2.859c0.12,0.205,0.427,0.961,0.427,0.961C26.176,24.868,26.2,25.703,26.018,26.481z
			 M10.437,23.349c0.702,1.896-0.125,3.985-1.86,4.913c-0.683-0.408-1.305-0.967-1.83-1.714c-1.17-1.664-1.539-3.62-1.333-5.601
			C7.453,20.26,9.684,21.315,10.437,23.349z M26.669,13.077c2.021,1.915,3.293,4.884,2.349,7.644
			c-1.14,0.332-2.325,0.131-3.268-0.472C22.952,18.461,23.528,14.1,26.669,13.077z M16.039,12c-2.208-0.022-4.017,1.75-4.039,3.958
			c-0.022,2.208,1.75,4.017,3.958,4.039s4.017-1.75,4.039-3.958S18.248,12.023,16.039,12z M34.884,40.853
			c-1.329,3.773,0.724,6.926,3.687,7.8l6.681,1.971c0.598,0.177,1.202,0.246,1.793,0.229c1.303-1.098,1.97-2.67,2.14-4.158
			C45.666,42.457,40.298,40.304,34.884,40.853z M57.403,44.477c1.992-3.284,1.652-7.692,1.103-7.854
			c-2.913-0.86-5.972,0.805-6.832,3.719c-0.819,2.775,0.653,5.682,3.312,6.694C55.913,46.412,56.736,45.576,57.403,44.477z
			 M29.069,27.941c-1.859,2.004-3.066,4.457-3.146,7.247c-0.036,1.265,0.194,2.399,0.621,3.415c2.666,0.392,5.283-1.227,6.068-3.886
			C33.454,31.863,31.873,28.87,29.069,27.941z M43.664,26.003c-3.036-0.091-5.571,2.297-5.662,5.333
			c-0.091,3.036,2.297,5.571,5.333,5.662c3.036,0.091,5.571-2.297,5.662-5.333S46.701,26.093,43.664,26.003z"/>
		<path class="fandom_twee" d="M5.414,20.947c0.078-0.754,0.24-1.512,0.472-2.259c0.113,0.707,0.314,1.396,0.619,2.054
			C6.141,20.759,5.774,20.826,5.414,20.947z M25.751,20.248c-2.039,1.303-11.531,4.955-15.09,4.034
			c0.185,1.608-0.628,3.196-2.076,3.974c1.417,0.844,3.1,1.038,4.75,0.903c-0.179-0.366-0.387-0.948-0.469-1.398
			c0.475-0.658,1.021-1.267,1.626-1.822c0,0,4.394-4.42,10.959-2.839c0.123,0.211,0.439,0.922,0.554,1.372
			c1.335-0.966,2.483-2.201,3.014-3.753C27.879,21.052,26.694,20.851,25.751,20.248z M51.795,43.818
			c-3.275-0.247-16.566-3.988-19.714-7.874c-1.12,1.912-3.311,2.987-5.537,2.66c0.866,2.062,2.542,3.636,4.447,4.828
			c0.102-0.541,0.35-1.354,0.63-1.918c6.356-1.994,13.309,0.058,17.564,5.183c-0.071,0.624-0.304,1.442-0.513,1.953
			c2.23,0.033,4.475-0.373,6.314-1.612C53.465,46.457,52.333,45.258,51.795,43.818z M30.41,28.598
			c0.205-0.951,0.544-1.854,0.991-2.705c-0.85,0.617-1.635,1.302-2.328,2.049C29.557,28.102,30.005,28.325,30.41,28.598z"/>
	</g>
</g>
</svg>