<?xml version="1.0" encoding="utf-8"?>
<!-- Generator: Adobe Illustrator 19.1.0, SVG Export Plug-In . SVG Version: 6.00 Build 0)  -->
<!DOCTYPE svg PUBLIC "-//W3C//DTD SVG 1.1//EN" "http://www.w3.org/Graphics/SVG/1.1/DTD/svg11.dtd">
<svg version="1.1" id="DESIGNS" xmlns="http://www.w3.org/2000/svg" xmlns:xlink="http://www.w3.org/1999/xlink" x="0px" y="0px"
	 width="64px" height="64px" viewBox="0 0 64 64" style="enable-background:new 0 0 64 64;" xml:space="preserve">
<style type="text/css">
	.fandom_drie{fill:#BE9148;}
	.fandom_vier{fill:#FFC865;}
	.fandom_vijftien{fill:#3A3A3A;}
	.fandom_zestien{fill:#4D4D4D;}
	.fandom_zeventien{fill:#666666;}
	.st0{fill:#FF786E;}
	.st1{fill:#BE5652;}
	.st2{fill:#EFEAE0;}
	.st3{fill:#AA9991;}
	.st4{fill:#FFFAFA;}
	.st5{fill:#644638;}
	.st6{fill:#6BC4D2;}
	.st7{fill:#508D9B;}
	.st8{fill:#4B322A;}
	.st9{fill:#8579A3;}
	.st10{fill:#685683;}
	.st11{fill:#808080;}
	.st12{fill:#CCCCCC;}
	.st13{fill:#018273;}
	.st14{fill:#00B3AA;}
</style>
<g>
	<g>
		<path class="fandom_vier" d="M32,7C18.193,7,7,18.193,7,32h50C57,18.193,45.807,7,32,7z"/>
		<path class="fandom_drie" d="M32,57c13.807,0,25-11.193,25-25H7C7,45.807,18.193,57,32,57z"/>
	</g>
	<g>
		<path class="fandom_zestien" d="M36,29h-8c-0.552,0-1-0.448-1-1v-3c0-0.552,0.448-1,1-1h8c0.552,0,1,0.448,1,1v3
			C37,28.552,36.552,29,36,29z M32,20h2c0.552,0,1-0.447,1-0.998V8.998C35,8.447,34.552,8,34,8V0h-2V20z"/>
		<path class="fandom_zeventien" d="M20.886,27.62L29,13.703v3.973l-4.477,7.679C23.395,25.815,22.114,26.531,20.886,27.62z
			 M43.204,27.775L35,13.703v3.973l4.502,7.721C40.657,25.881,41.963,26.633,43.204,27.775z"/>
		<path class="fandom_vijftien" d="M33,20v4h-2v-4l-1,0c-0.552,0-1-0.448-1-1V9c0-0.552,0.448-1,1-1V0h2v20H33z M44.139,28.72
			c-2.568-2.916-5.705-3.821-7.215-4.098C36.972,24.739,37,24.866,37,25v3c0,0.252-0.101,0.475-0.255,0.651
			c2.38,0.556,7.97,3.051,7.18,14.208c-0.187,2.639,3.802,2.924,3.99,0.283C48.355,36.919,47.085,32.066,44.139,28.72z M32.408,29
			h-4.395c-0.187,0-0.352-0.065-0.501-0.154c-2.35,3.566-4.824,10.029-2.48,17.454c0.79,2.502,4.636,1.274,3.797-1.256
			C26.142,36.928,30.785,30.814,32.408,29z M27.244,28.634C27.098,28.461,27,28.245,27,28v-3c0-0.14,0.029-0.272,0.081-0.393
			c-1.473,0.257-4.681,1.139-7.3,4.112c-2.946,3.347-4.217,8.199-3.776,14.422c0.188,2.638,4.178,2.358,3.99-0.283
			C19.197,31.594,24.904,29.158,27.244,28.634z"/>
	</g>
</g>
</svg>