<?xml version="1.0" encoding="utf-8"?>
<!-- Generator: Adobe Illustrator 19.1.0, SVG Export Plug-In . SVG Version: 6.00 Build 0)  -->
<!DOCTYPE svg PUBLIC "-//W3C//DTD SVG 1.1//EN" "http://www.w3.org/Graphics/SVG/1.1/DTD/svg11.dtd">
<svg version="1.1" id="DESIGNS" xmlns="http://www.w3.org/2000/svg" xmlns:xlink="http://www.w3.org/1999/xlink" x="0px" y="0px"
	 width="64px" height="64px" viewBox="0 0 64 64" style="enable-background:new 0 0 64 64;" xml:space="preserve">
<style type="text/css">
	.fandom_een{fill:#FF786E;}
	.fandom_twee{fill:#BE5652;}
	.fandom_drie{fill:#BE9148;}
	.fandom_vier{fill:#FFC865;}
	.fandom_vijf{fill:#018273;}
	.fandom_zes{fill:#00B3AA;}
	.fandom_dertien{fill:#AA9991;}
	.fandom_veertien{fill:#EFEAE0;}
	.st0{fill:#FFFAFA;}
	.st1{fill:#644638;}
	.st2{fill:#6BC4D2;}
	.st3{fill:#508D9B;}
	.st4{fill:#4B322A;}
	.st5{fill:#8579A3;}
	.st6{fill:#685683;}
	.st7{fill:#4D4D4D;}
	.st8{fill:#3A3A3A;}
	.st9{fill:#808080;}
	.st10{fill:#CCCCCC;}
	.st11{fill:#666666;}
</style>
<g>
	<g>
		<path class="fandom_zes" d="M32,7C18.193,7,7,18.193,7,32h50C57,18.193,45.807,7,32,7z"/>
		<path class="fandom_vijf" d="M32,57c13.807,0,25-11.193,25-25H7C7,45.807,18.193,57,32,57z"/>
	</g>
	<g>
		<path class="fandom_vier" d="M11.456,42.348c-0.503,0.231-0.724,0.827-0.493,1.33l3.334,7.262c0.231,0.503,0.827,0.724,1.33,0.493
			l9.852-4.523c-0.001-0.003-0.001-0.005-0.002-0.008c0.136-0.053,0.476-0.141,0.822,0.018c3.344,1.531,6.535,2.115,10.238,0.415
			l16.181-7.429c1.774-0.814,3.319-2.015,4.551-3.487c2.296-3.216,2.576-4.734,3.858-8.487c0.516-1.978-0.72-5.862-5.61-3.617
			l-1.847,0.848c0.143,0.682,0.257,2.083-1.141,2.724l-15.898,7.299c-0.872,0.4-1.369,1.302-1.135,2.247
			c0.263,1.079-0.161,1.833-1.336,2.372c-3.841,1.763-6.793,0.679-9.032-3.739L11.456,42.348z M34.395,25.211l-0.417-0.909
			l1.392-0.639l0.417,0.909L34.395,25.211z M29.181,13.897c0,0-0.188-1.922,1.527-2.71c1.255-0.576,2.739-0.026,3.315,1.229
			c0.505,1.099,0.145,2.374-0.795,3.061l2.69,5.861c-0.158-0.009-0.32,0.019-0.474,0.09l-2.3,1.056L29.181,13.897z M27.699,25.03
			l-1.44-3.136c-1.134,0.266-2.335-0.293-2.84-1.392c-0.576-1.255-0.026-2.739,1.229-3.315c1.218-0.559,2.644-0.051,3.254,1.125
			l2.516,5.429l-2.245,1.026C27.999,24.846,27.841,24.934,27.699,25.03z M31.668,26.462l-2.726,1.252l-0.347-0.74
			c0.062-0.277,0.236-0.31,0.412-0.39l2.254-1.03L31.668,26.462z"/>
		<path class="fandom_veertien" d="M12.214,46.402c-1.658,1.1-6.99-2.436-9.885-2.989c-0.319-0.321-0.663-0.618-0.973-0.866
			c-0.571-0.457-0.469-1.363,0.197-1.663c3.642-1.638,4.234,2.394,9.992,1.423c-0.655,0.301-0.802,0.891-0.582,1.371L12.214,46.402z
			 M53.671,25.164l-2.608,1.197c-0.242,0.111-0.518,0.121-0.767,0.029l-2.304-0.493c-0.249-0.092-0.525-0.082-0.767,0.029
			l-5.298,2.432c-0.503,0.231-1.099,0.01-1.33-0.493l-1.668-3.632c-0.231-0.503-0.827-0.724-1.33-0.493l-8.174,3.753l2.086,4.544
			c0.23,0.502,0.01,1.096-0.492,1.326l-5.889,2.707c2.239,4.416,5.191,5.5,9.031,3.737c1.175-0.539,1.599-1.293,1.336-2.372
			c-0.234-0.945,0.263-1.847,1.135-2.247l15.898-7.299C53.928,27.246,53.814,25.845,53.671,25.164z"/>
		<path class="fandom_dertien" d="M15.51,51.461c-0.799,0.45-1.829,1.16-2.128,1.966c-0.431,1.164-0.762,5.097-3.205,6.241
			c-0.662,0.31-1.415-0.204-1.39-0.934c0.042-1.184-0.046-2.87-0.803-3.491c-0.256-0.21-0.451-0.481-0.451-0.812
			c0-1.001-0.163-2.992-1.393-3.71c-0.325-0.19-0.501-0.573-0.433-0.943c0.257-1.401-1.146-2.822-1.905-3.475
			c-0.251-0.216-0.33-0.541-0.322-0.872c0.025-1.089-1.84-2.712-1.151-2.018c2.89,0.552,8.227,4.089,9.885,2.989l2.085,4.541
			C14.512,51.408,15.034,51.613,15.51,51.461z M31.511,32.036l-2.086-4.544l-2.721,1.249c-0.503,0.231-0.724,0.827-0.493,1.33
			l1.668,3.632c0.229,0.499,0.013,1.085-0.481,1.321l3.622-1.663C31.521,33.132,31.741,32.538,31.511,32.036z"/>
		<path class="fandom_twee" d="M43.495,38.051c-0.019,0.549-0.334,1.068-0.867,1.312c-0.753,0.346-1.643,0.016-1.989-0.737
			c-0.245-0.533-0.146-1.132,0.198-1.561C40.786,38.505,42.595,39.176,43.495,38.051z M46.956,36.479
			c-0.753,0.346-1.643,0.016-1.989-0.737c-0.101-0.22-0.138-0.45-0.13-0.677c-0.343,0.429-0.442,1.028-0.198,1.561
			c0.346,0.753,1.236,1.083,1.989,0.737c0.533-0.245,0.848-0.764,0.867-1.312C47.354,36.228,47.176,36.378,46.956,36.479z
			 M48.837,33.065c-0.343,0.429-0.442,1.028-0.198,1.561c0.346,0.753,1.236,1.083,1.989,0.737c0.533-0.245,0.848-0.764,0.867-1.312
			C50.595,35.176,48.786,34.505,48.837,33.065z M26.773,28.71l1.863-0.855c-0.196-1.137,0.085-1.139,0.372-1.271l-0.834-1.818
			C26.546,25.513,26.337,26.966,26.773,28.71z"/>
		<path class="fandom_drie" d="M33.977,24.302l0.417,0.909l-2.726,1.252l-0.417-0.909L33.977,24.302z M33.143,22.484L26.579,8.258
			c0,0-1.243-1.888-3.204-0.987c-1.255,0.576-1.805,2.06-1.229,3.315c0.505,1.099,1.706,1.657,2.84,1.392l5.431,11.758
			L33.143,22.484z M23.662,47.744c-0.372-0.81-0.384-1.699-0.009-2.516c0.489-1.064,1.601-1.963,2.826-2.683
			c-0.981-0.461-1.761-0.921-2.213-1.198c-0.284-0.174-0.632-0.192-0.934-0.053l-11.119,5.105l2.085,4.541
			c0.231,0.503,0.827,0.724,1.33,0.493l8.326-3.823L23.662,47.744z M35.64,43.345c-2.194,1.007-4.599,0.772-6.665,0.16
			c-1.576,0.712-3.083,1.636-3.505,2.557c-0.132,0.29-0.121,0.564,0.009,0.847c-0.254,0.116,0.28-0.238,0.82,0.01
			c3.344,1.531,6.535,2.115,10.238,0.415l16.181-7.429c1.774-0.814,3.319-2.015,4.551-3.487c1.495-2.094,1.267-1.66,2.394-4.103
			L35.64,43.345z"/>
		<path class="fandom_een" d="M40.837,37.065c0.141-0.177,0.32-0.328,0.54-0.428c0.753-0.346,1.643-0.016,1.989,0.737
			c0.101,0.22,0.138,0.45,0.13,0.677C42.595,39.176,40.786,38.505,40.837,37.065z M47.495,36.051
			c0.008-0.226-0.029-0.457-0.13-0.677c-0.346-0.753-1.236-1.083-1.989-0.737c-0.22,0.101-0.398,0.252-0.54,0.428
			C44.786,36.506,46.595,37.175,47.495,36.051z M51.495,34.051c0.008-0.226-0.029-0.457-0.13-0.677
			c-0.346-0.753-1.236-1.083-1.989-0.737c-0.22,0.101-0.398,0.252-0.54,0.428C48.786,34.506,50.596,35.175,51.495,34.051z
			 M28.173,24.766l0.834,1.818l6.362-2.921l0.417,0.909c0,0,1.816-0.833,1.818-0.833l-0.835-1.819
			c-0.231-0.502-0.824-0.722-1.326-0.492L28.173,24.766z M53.671,25.163c0.143,0.682,0.257,2.083-1.141,2.724l-15.898,7.299
			c-0.872,0.4-1.369,1.302-1.135,2.247c0.263,1.079-0.161,1.833-1.336,2.372c-3.841,1.764-6.793,0.679-9.032-3.739L23.315,36.9
			c1.403,2.793,2.91,4.105,4.552,4.915c-1.702,0.8-3.544,1.953-4.215,3.414c-0.374,0.817-0.363,1.705,0.009,2.516l1.818-0.834
			c-0.13-0.283-0.142-0.557-0.009-0.847c0.661-1.443,3.981-2.894,6.061-3.523c1.32-0.085,2.524-0.484,3.465-0.916
			c2.909-1.336,2.678-3.707,2.436-4.695L53.33,29.63c2.674-1.227,2.626-3.851,2.188-5.315L53.671,25.163z"/>
	</g>
</g>
</svg>