<?xml version="1.0" encoding="utf-8"?>
<!-- Generator: Adobe Illustrator 19.1.0, SVG Export Plug-In . SVG Version: 6.00 Build 0)  -->
<!DOCTYPE svg PUBLIC "-//W3C//DTD SVG 1.1//EN" "http://www.w3.org/Graphics/SVG/1.1/DTD/svg11.dtd">
<svg version="1.1" id="DESIGNS" xmlns="http://www.w3.org/2000/svg" xmlns:xlink="http://www.w3.org/1999/xlink" x="0px" y="0px"
	 width="64px" height="64px" viewBox="0 0 64 64" style="enable-background:new 0 0 64 64;" xml:space="preserve">
<style type="text/css">
	.fandom_een{fill:#FF786E;}
	.fandom_twee{fill:#BE5652;}
	.fandom_negen{fill:#685683;}
	.fandom_tien{fill:#8579A3;}
	.fandom_vijftien{fill:#3A3A3A;}
	.fandom_zestien{fill:#4D4D4D;}
	.fandom_negentien{fill:#CCCCCC;}
	.st0{fill:#6BC4D2;}
	.st1{fill:#508D9B;}
	.st2{fill:#4B322A;}
	.st3{fill:#EFEAE0;}
	.st4{fill:#644638;}
	.st5{fill:#AA9991;}
	.st6{fill:#00B3AA;}
	.st7{fill:#018273;}
	.st8{fill:#FFC865;}
	.st9{fill:#BE9148;}
	.st10{fill:#808080;}
	.st11{fill:#666666;}
	.st12{fill:#FFFAFA;}
</style>
<g>
	<g>
		<path class="fandom_tien" d="M32,7C18.193,7,7,18.193,7,32h50C57,18.193,45.807,7,32,7z"/>
		<path class="fandom_negen" d="M32,57c13.807,0,25-11.193,25-25H7C7,45.807,18.193,57,32,57z"/>
	</g>
	<g>
		
			<rect x="27.063" y="13.305" transform="matrix(0.705 0.7093 -0.7093 0.705 31.6582 -20.7894)" class="fandom_zestien" width="27.507" height="28.703"/>
		<path class="fandom_vijftien" d="M33.266,21.779l-1.689-1.715c-0.208,0.253-0.405,0.512-0.589,0.777
			c-0.429,0.618-1.3,0.708-1.83,0.174l-0.563-0.567l-1.705,1.679l1.927,1.938c0.29,0.291,0.396,0.708,0.311,1.11
			c-0.34,1.611-0.346,3.277-0.015,4.891c0.082,0.402-0.026,0.819-0.318,1.108l-2.363,2.349l1.679,1.704l1.007-1.001
			c0.533-0.53,1.404-0.435,1.829,0.186c0.183,0.268,0.38,0.53,0.588,0.785l1.707-1.697C30.576,30.055,30.587,25.212,33.266,21.779z"
			/>
		<path class="fandom_vijftien" d="M47.632,17.828c-0.618-0.429-0.708-1.3-0.174-1.83l0.999-0.994l-1.691-1.691l-2.358,2.344
			c-0.291,0.29-0.708,0.396-1.11,0.311c-1.611-0.34-3.277-0.346-4.891-0.015c-0.402,0.083-0.819-0.026-1.108-0.318l-1.939-1.932
			l-1.688,1.688l0.576,0.566c0.53,0.533,0.435,1.404-0.186,1.829c-0.26,0.178-0.514,0.368-0.763,0.569l1.688,1.713
			c3.449-2.657,8.29-2.638,11.719,0.048l1.707-1.696L47.632,17.828z"/>
		<path class="fandom_negentien" d="M43.298,15.967c-1.611-0.34-3.277-0.346-4.891-0.015c-0.402,0.082-0.819-0.026-1.108-0.318
			l-3.201-3.221c-0.466-0.468-0.463-1.226,0.005-1.691l5.938-5.902c0.468-0.466,1.226-0.463,1.691,0.005l5.902,5.938
			c0.466,0.468,0.463,1.226-0.005,1.691l-3.221,3.201C44.116,15.946,43.699,16.052,43.298,15.967z M37.226,39.657l-3.221,3.201
			c-0.468,0.466-0.471,1.223-0.005,1.691l5.902,5.938c0.466,0.468,1.223,0.471,1.691,0.005l5.938-5.902
			c0.468-0.466,0.471-1.223,0.005-1.691l-3.201-3.221c-0.29-0.291-0.706-0.4-1.108-0.318c-1.613,0.331-3.279,0.326-4.891-0.015
			C37.934,39.261,37.517,39.367,37.226,39.657z M56.059,20.937l-3.221,3.201c-0.291,0.29-0.4,0.706-0.318,1.108
			c0.331,1.613,0.326,3.279-0.015,4.891c-0.085,0.402,0.021,0.819,0.311,1.11l3.201,3.221c0.466,0.468,1.223,0.471,1.691,0.005
			l5.938-5.902c0.468-0.466,0.471-1.223,0.005-1.691l-5.902-5.938C57.285,20.474,56.528,20.472,56.059,20.937z M28.816,24.066
			l-3.201-3.221c-0.466-0.468-1.223-0.471-1.691-0.005l-5.938,5.902c-0.468,0.466-0.471,1.223-0.005,1.691l5.902,5.938
			c0.466,0.468,1.223,0.471,1.691,0.005l3.221-3.201c0.291-0.29,0.4-0.706,0.318-1.108c-0.331-1.613-0.326-3.279,0.015-4.891
			C29.212,24.774,29.106,24.357,28.816,24.066z M52.516,21.087l1.857-1.846c0.468-0.466,0.471-1.223,0.005-1.691l-3.372-3.393
			c-0.466-0.468-1.223-0.471-1.691-0.005l-1.857,1.846c-0.533,0.53-0.443,1.401,0.174,1.83c1.193,0.828,2.234,1.875,3.055,3.074
			C51.112,21.521,51.983,21.617,52.516,21.087z M34.247,15.957L32.402,14.1c-0.466-0.468-1.223-0.471-1.691-0.005l-3.393,3.372
			c-0.468,0.466-0.471,1.223-0.005,1.691l1.846,1.857c0.53,0.533,1.401,0.443,1.83-0.174c0.828-1.193,1.875-2.233,3.074-3.055
			C34.682,17.361,34.778,16.49,34.247,15.957z M32.319,41.162l1.857-1.846c0.533-0.53,0.443-1.401-0.174-1.83
			c-1.194-0.829-2.234-1.875-3.055-3.074c-0.425-0.62-1.296-0.716-1.829-0.186l-1.857,1.846c-0.468,0.466-0.471,1.223-0.005,1.691
			l3.372,3.393C31.093,41.625,31.85,41.627,32.319,41.162z M54.322,36.154l-1.846-1.857c-0.53-0.533-1.402-0.443-1.83,0.174
			c-0.829,1.194-1.876,2.235-3.074,3.055c-0.62,0.425-0.716,1.296-0.186,1.829l1.846,1.857c0.466,0.468,1.223,0.471,1.691,0.005
			l3.393-3.373C54.785,37.38,54.787,36.623,54.322,36.154z M45.032,31.898c-2.342,2.328-6.129,2.317-8.457-0.026
			c-2.328-2.342-2.317-6.129,0.026-8.457c2.342-2.328,6.129-2.317,8.457,0.026C47.386,25.783,47.375,29.57,45.032,31.898z"/>
		<path class="fandom_een" d="M48.357,36.939l-4.258-4.283c0.686-0.452,1.262-1.034,1.696-1.686l4.258,4.283
			C49.541,35.876,48.983,36.431,48.357,36.939z M48.413,18.42l-4.283,4.258c0.652,0.435,1.235,1.01,1.686,1.697l4.283-4.258
			C49.59,19.49,49.037,18.933,48.413,18.42z M35.817,30.939l-4.283,4.257c0.492,0.604,1.042,1.166,1.686,1.696l4.283-4.257
			C36.848,32.199,36.267,31.623,35.817,30.939z M37.534,22.657l-4.221-4.313c-0.678,0.551-1.326,1.203-1.75,1.719l4.275,4.281
			C36.272,23.691,36.848,23.109,37.534,22.657z M42.089,26.392c0.458-1.345-0.375-2.41-0.375-2.41
			c-1.459-0.192-4.194,1.165-2.53,7.004c1.941,0.463,4.461,0.656,5.685-0.909C46.472,28.029,44.364,25.69,42.089,26.392z"/>
		<path class="fandom_twee" d="M41.714,23.982c-0.651-0.892-1.844-1.3-3.062-0.553c-2.238,1.374-1.458,5.15-0.804,7.178
			c0.393,0.129,0.849,0.262,1.337,0.379C37.545,25.235,40.187,23.782,41.714,23.982z"/>
	</g>
</g>
</svg>