<?xml version="1.0" encoding="utf-8"?>
<!-- Generator: Adobe Illustrator 19.1.0, SVG Export Plug-In . SVG Version: 6.00 Build 0)  -->
<!DOCTYPE svg PUBLIC "-//W3C//DTD SVG 1.1//EN" "http://www.w3.org/Graphics/SVG/1.1/DTD/svg11.dtd">
<svg version="1.1" id="DESIGNS" xmlns="http://www.w3.org/2000/svg" xmlns:xlink="http://www.w3.org/1999/xlink" x="0px" y="0px"
	 width="64px" height="64px" viewBox="0 0 64 64" style="enable-background:new 0 0 64 64;" xml:space="preserve">
<style type="text/css">
	.fandom_drie{fill:#BE9148;}
	.fandom_vier{fill:#FFC865;}
	.fandom_zeven{fill:#508D9B;}
	.fandom_acht{fill:#6BC4D2;}
	.fandom_twaalf{fill:#644638;}
	.fandom_veertien{fill:#EFEAE0;}
	.st0{fill:#4B322A;}
	.st1{fill:#BE5652;}
	.st2{fill:#FF786E;}
	.st3{fill:#8579A3;}
	.st4{fill:#685683;}
	.st5{fill:#4D4D4D;}
	.st6{fill:#3A3A3A;}
	.st7{fill:#CCCCCC;}
	.st8{fill:#AA9991;}
	.st9{fill:#00B3AA;}
	.st10{fill:#018273;}
	.st11{fill:#808080;}
	.st12{fill:#666666;}
	.st13{fill:#FFFAFA;}
</style>
<path class="fandom_zeven" d="M32,57c13.807,0,25-11.193,25-25H7C7,45.807,18.193,57,32,57z"/>
<g>
	<path class="fandom_acht" d="M32,7C18.193,7,7,18.193,7,32h50C57,18.193,45.807,7,32,7z"/>
	<path class="fandom_twaalf" d="M42.5,33c0,5.799-4.701,10.5-10.5,10.5S21.5,38.799,21.5,33S26.201,22.5,32,22.5
		S42.5,27.201,42.5,33z M52.5,32.9c0,11.304-9.196,20.5-20.5,20.5c-11.304,0-20.5-9.196-20.5-20.5c0-6.734,3.264-12.72,8.293-16.46
		c-0.201-0.636-0.225-1.144-0.199-1.574c-0.999-0.91-1.571-2.389-1.497-3.671c-0.947-0.867-1.568-2.324-1.481-3.678
		c-1.009-0.915-1.575-2.394-1.503-3.667c-0.167-0.153-0.339-0.332-0.507-0.555c-0.397-0.524-0.201-1.285,0.406-1.539l0.797-0.333
		c0.617-0.258,1.306,0.155,1.383,0.818c0.032,0.279,0.032,0.529,0.017,0.757c1.01,0.915,1.576,2.395,1.503,3.667
		c0.96,0.881,1.563,2.344,1.48,3.677c0.997,0.905,1.576,2.379,1.498,3.674c0.223,0.204,0.455,0.454,0.676,0.79
		C25.241,13.272,28.521,12.4,32,12.4s6.759,0.872,9.632,2.407c0.222-0.337,0.453-0.586,0.676-0.79
		c-0.078-1.294,0.501-2.769,1.498-3.674c-0.083-1.334,0.52-2.796,1.48-3.677c-0.073-1.272,0.493-2.752,1.503-3.667
		c-0.015-0.228-0.015-0.478,0.017-0.757c0.077-0.664,0.766-1.076,1.383-0.819l0.798,0.333c0.607,0.253,0.804,1.015,0.407,1.539
		c-0.169,0.222-0.341,0.401-0.508,0.555c0.074,1.298-0.51,2.767-1.503,3.667c0.086,1.354-0.534,2.812-1.481,3.678
		c0.076,1.313-0.519,2.78-1.497,3.671c0.026,0.43,0.002,0.937-0.199,1.573C49.236,20.18,52.5,26.166,52.5,32.9z M49.5,32.9
		c0-9.665-7.835-17.5-17.5-17.5s-17.5,7.835-17.5,17.5c0,9.665,7.835,17.5,17.5,17.5S49.5,42.565,49.5,32.9z"/>
</g>
<path class="fandom_vier" d="M40.522,46.196c0.299-0.18,0.439-0.513,0.439-0.862v-4.312h-8V31.65
	c0.149-0.374,0.413-0.724,0.717-1.028l7.055-6.47c0.548-0.589,0.351-2.13-0.732-2.13h-8.039V15.4c4.152,0.009,8.004,1.464,11,3.889
	v4.972c0,0.291-0.115,0.569-0.321,0.775l-7.462,7.002c-0.428,0.428-0.428,1.122,0,1.549l7.462,6.998
	c0.206,0.206,0.321,0.484,0.321,0.775v5.153c-2.996,2.424-6.848,3.879-11,3.889v-2C34.892,48.4,37.99,47.72,40.522,46.196z"/>
<path class="fandom_drie" d="M23.439,46.196C23.139,46.016,23,45.684,23,45.335v-4.312h8V31.65
	c-0.149-0.374-0.413-0.724-0.717-1.028l-7.055-6.47c-0.548-0.589-0.351-2.13,0.732-2.13H32V15.4c-4.152,0.009-8.004,1.464-11,3.889
	v4.972c0,0.291,0.115,0.569,0.321,0.775l7.462,7.002c0.428,0.428,0.428,1.122,0,1.549l-7.462,6.998
	C21.115,40.789,21,41.068,21,41.359v5.153c2.996,2.424,6.848,3.879,11,3.889v-2C29.069,48.4,25.971,47.72,23.439,46.196z"/>
<path class="fandom_veertien" d="M33.677,30.623l7.03-6.444c0.542-0.542,0.429-2.156-0.707-2.156H23.961
	c-1.185,0-1.219,1.644-0.707,2.156l7.03,6.444c0.303,0.303,0.568,0.654,0.717,1.028v9.372h-8v4.312c0,0.349,0.139,0.682,0.439,0.862
	c4.879,2.936,12.209,2.933,17.084,0C40.822,46.016,41,45.684,41,45.335v-4.312h-8V31.65C33.149,31.276,33.374,30.926,33.677,30.623z
	"/>
</svg>