<?xml version="1.0" encoding="utf-8"?>
<!-- Generator: Adobe Illustrator 19.1.0, SVG Export Plug-In . SVG Version: 6.00 Build 0)  -->
<!DOCTYPE svg PUBLIC "-//W3C//DTD SVG 1.1//EN" "http://www.w3.org/Graphics/SVG/1.1/DTD/svg11.dtd">
<svg version="1.1" id="DESIGNS" xmlns="http://www.w3.org/2000/svg" xmlns:xlink="http://www.w3.org/1999/xlink" x="0px" y="0px"
	 width="64px" height="64px" viewBox="0 0 64 64" style="enable-background:new 0 0 64 64;" xml:space="preserve">
<style type="text/css">
	.fandom_een{fill:#FF786E;}
	.fandom_drie{fill:#BE9148;}
	.fandom_vier{fill:#FFC865;}
	.fandom_vijf{fill:#018273;}
	.fandom_zeven{fill:#508D9B;}
	.fandom_acht{fill:#6BC4D2;}
	.fandom_dertien{fill:#AA9991;}
	.fandom_veertien{fill:#EFEAE0;}
	.fandom_vijftien{fill:#3A3A3A;}
	.fandom_zeventien{fill:#666666;}
	.fandom_achttien{fill:#808080;}
	.fandom_negentien{fill:#CCCCCC;}
	.st0{fill:#BE5652;}
	.st1{fill:#644638;}
	.st2{fill:#4B322A;}
	.st3{fill:#FFFAFA;}
	.st4{fill:#4D4D4D;}
	.st5{fill:#8579A3;}
	.st6{fill:#685683;}
	.st7{fill:#00B3AA;}
</style>
<g>
	<g>
		<path class="fandom_vier" d="M32,7C18.193,7,7,18.193,7,32h50C57,18.193,45.807,7,32,7z"/>
		<path class="fandom_drie" d="M32,57c13.807,0,25-11.193,25-25H7C7,45.807,18.193,57,32,57z"/>
	</g>
	<g>
		<path class="fandom_achttien" d="M51.147,24.674l6.038-7.085c-1.274-1.05-3.157-0.891-4.232,0.37l-2.06,3.156L51.147,24.674z"/>
		<path class="fandom_zeventien" d="M32.805,28.298c0.334,0.758,0.968,1.345,1.768,1.618l-3.167,1.49L32.805,28.298z M31.328,38.806
			l-2.565,1.188c0.944-0.271,1.85-0.276,2.654-0.059L31.328,38.806z"/>
		<path class="fandom_een" d="M23.324,23.147l4.148,0.912c0.643,0.141,0.976,0.854,0.673,1.438l-8.201,15.774
			c-0.23,0.443-0.752,0.648-1.222,0.481l-8.072-2.867c-0.666-0.237-0.883-1.071-0.417-1.602l12.125-13.819
			C22.598,23.19,22.968,23.069,23.324,23.147z"/>
		<path class="fandom_dertien" d="M34.003,23.453c-0.242-0.182-2.046-1.576-2.327-1.686L19.199,46.028l5.304-2.373
			c-0.343,0.686,0.592-1.75,2.842-3.054l7.017-15.811C34.62,24.32,34.462,23.73,34.003,23.453z"/>
		<path class="fandom_negentien" d="M47.645,40.792c-0.302,0.6-0.802,1.098-1.44,1.387l-10.216,4.633
			c-0.658,0.299-1.367,0.341-2.016,0.164c0.273-0.617,0.457-1.267,0.533-1.926c0.227,0.058,0.454,0.032,0.657-0.059l10.216-4.633
			c0.27-0.123,0.465-0.355,0.546-0.629C46.426,40.183,47.006,40.542,47.645,40.792z M51.17,25.004
			c0.023,0.322-0.007,0.641-0.085,0.946c0.764-0.182,1.507-0.237,2.209-0.176l4.273-3.883c1.995-2.245-0.382-4.302-0.382-4.302
			l-6.038,7.085L51.17,25.004z M31.274,38.116c-0.098-1.254,0.606-2.446,1.752-2.966l10.216-4.633
			c0.665-0.302,1.395-0.346,2.067-0.151c-0.358,0.601-0.652,1.236-0.872,1.891c-0.068,0.014-0.209,0.044-0.369,0.081l-10.216,4.633
			c-0.383,0.174-0.617,0.569-0.584,0.989l0.261,3.338c-0.542-0.664-1.271-1.135-2.113-1.362L31.274,38.116z"/>
		<path class="fandom_acht" d="M19.227,49.554L4.711,44.115C4.342,43.978,4.026,43.638,4,43.245v-1.314
			c-0.049-0.722,0.634-1.255,1.314-1.006l13.913,5.091L19.227,49.554z M44.002,35.599c-0.09-1.126,0.072-2.265,0.438-3.35
			c-0.124,0.005-0.249,0.034-0.372,0.089l-10.216,4.633c-0.383,0.174-0.617,0.569-0.584,0.989l0.261,3.338
			c0.557,0.682,0.917,1.569,1,2.605c0.03,0.382,0.022,0.766-0.023,1.147c0.209,0.053,0.438,0.039,0.657-0.06l10.216-4.633
			c0.27-0.123,0.465-0.355,0.546-0.629C44.849,38.75,44.14,37.328,44.002,35.599z M39.609,22.889l9.566,2.164l-0.63-8.838
			c-0.035-0.436-0.349-0.799-0.776-0.896l-7.598-1.716c-0.658-0.148-1.271,0.383-1.217,1.055
			C38.953,14.658,39.608,22.877,39.609,22.889z"/>
		<path class="fandom_zeven" d="M23.878,47.576l-4.679,1.973l0-3.521l5.304-2.373C23.834,44.997,23.656,46.38,23.878,47.576z
			 M49.175,25.052l-0.001-0.011l-9.566-2.153c0.017,0.374-0.176,0.728-0.503,0.914l-4.054,2.314
			c-0.792,0.452-0.615,1.641,0.273,1.844l6.695,1.526c0.244,0.056,0.5,0.018,0.718-0.107l5.935-3.387
			C49.007,25.801,49.203,25.436,49.175,25.052z"/>
		<path class="fandom_veertien" d="M31.534,21.711l-7.246-1.576c-0.352-0.073-0.716,0.048-0.953,0.318
			c-0.026,0.03-18.021,20.472-18.021,20.472l13.895,5.085l12.467-24.243C31.629,21.748,31.582,21.73,31.534,21.711z M28.144,25.497
			l-8.201,15.775c-0.23,0.443-0.752,0.648-1.222,0.481l-8.072-2.867c-0.666-0.237-0.883-1.071-0.417-1.602l12.125-13.819
			c0.24-0.274,0.611-0.395,0.966-0.317l4.148,0.912C28.114,24.2,28.448,24.913,28.144,25.497z M45.309,30.366
			c-0.5,1,1.204-3.089,5.393-4.314c0.128-0.038,0.256-0.071,0.383-0.102c0.078-0.305,0.108-0.624,0.085-0.946l-0.63-8.838
			c-0.106-1.333-1.042-2.414-2.331-2.705l-8.262-1.79c-1.738,0-3.127,1.487-2.988,3.239l0.603,7.564l-3.08,1.758
			c0.014,0.187-0.024,0.381-0.121,0.557l-1.557,3.509c0.376,0.852,1.132,1.49,2.076,1.705l6.416,1.395l1.945-0.882
			C43.909,30.214,44.638,30.171,45.309,30.366z M42.739,29.379c-0.218,0.124-0.474,0.162-0.718,0.107l-6.695-1.526
			c-0.889-0.203-1.065-1.392-0.273-1.844l4.054-2.314c0.337-0.192,0.532-0.562,0.501-0.948l-0.654-8.197
			c-0.054-0.672,0.56-1.203,1.217-1.055l7.598,1.716c0.427,0.096,0.742,0.459,0.776,0.896l0.63,8.838
			c0.027,0.384-0.168,0.749-0.502,0.94L42.739,29.379z"/>
		<path class="fandom_vijf" d="M51.648,37.908c-2.399,0.696-4.509-0.724-4.704-3.165s1.598-4.996,3.997-5.696
			c2.399-0.7,4.509,0.719,4.704,3.165C55.84,34.657,54.047,37.212,51.648,37.908z M31.587,44.759
			c-0.108-1.36-1.283-2.15-2.617-1.761c-1.335,0.389-2.332,1.811-2.224,3.169c0.108,1.358,1.282,2.148,2.617,1.761
			C30.698,47.54,31.696,46.119,31.587,44.759z"/>
		<path class="fandom_vijftien" d="M50.941,29.047c2.399-0.7,4.509,0.719,4.704,3.165s-1.598,5.001-3.997,5.696
			c-2.399,0.696-4.509-0.724-4.704-3.165C46.749,32.303,48.542,29.747,50.941,29.047z M50.702,26.052
			c-4.027,1.178-7.026,5.453-6.699,9.547s3.857,6.469,7.884,5.304s7.027-5.44,6.699-9.547S54.728,24.874,50.702,26.052z
			 M28.729,40.003l2.599-1.197l-0.054-0.69c-0.098-1.254,0.606-2.446,1.752-2.966l8.271-3.751l-6.416-1.395
			c-0.105-0.024-0.208-0.054-0.308-0.088l-3.136,1.474l-4.085,9.206C27.786,40.346,28.248,40.144,28.729,40.003z M31.569,15.024
			c-2.245-1.545-4.753-1.799-5.601-0.567c-0.74,1.074,0.027,2.924,1.725,4.405l-1.211,1.75l2.114,0.46l0.742-1.073
			c2,1.073,4.018,1.135,4.762,0.055C34.947,18.821,33.815,16.57,31.569,15.024z M28.731,40.003c-2.961,0.866-5.166,4.009-4.926,7.02
			c0.24,3.011,2.836,4.757,5.797,3.9s5.167-4,4.926-7.02S31.692,39.136,28.731,40.003z M28.97,42.998
			c1.335-0.389,2.509,0.401,2.617,1.761s-0.889,2.782-2.224,3.169c-1.335,0.387-2.509-0.403-2.617-1.761
			C26.638,44.809,27.636,43.387,28.97,42.998z"/>
	</g>
</g>
</svg>