<?xml version="1.0" encoding="utf-8"?>
<!-- Generator: Adobe Illustrator 19.1.0, SVG Export Plug-In . SVG Version: 6.00 Build 0)  -->
<!DOCTYPE svg PUBLIC "-//W3C//DTD SVG 1.1//EN" "http://www.w3.org/Graphics/SVG/1.1/DTD/svg11.dtd">
<svg version="1.1" id="DESIGNS" xmlns="http://www.w3.org/2000/svg" xmlns:xlink="http://www.w3.org/1999/xlink" x="0px" y="0px"
	 width="64px" height="64px" viewBox="0 0 64 64" style="enable-background:new 0 0 64 64;" xml:space="preserve">
<style type="text/css">
	.fandom_zeven{fill:#508D9B;}
	.fandom_acht{fill:#6BC4D2;}
	.fandom_elf{fill:#4B322A;}
	.fandom_twaalf{fill:#644638;}
	.fandom_veertien{fill:#EFEAE0;}
	.fandom_zeventien{fill:#666666;}
	.fandom_twintig{fill:#FFFAFA;}
	.st0{fill:#FF786E;}
	.st1{fill:#BE5652;}
	.st2{fill:#AA9991;}
	.st3{fill:#FFC865;}
	.st4{fill:#BE9148;}
	.st5{fill:#8579A3;}
	.st6{fill:#685683;}
	.st7{fill:#4D4D4D;}
	.st8{fill:#3A3A3A;}
	.st9{fill:#808080;}
	.st10{fill:#CCCCCC;}
	.st11{fill:#018273;}
	.st12{fill:#00B3AA;}
</style>
<g>
	<g>
		<path class="fandom_acht" d="M32,7C18.193,7,7,18.193,7,32h50C57,18.193,45.807,7,32,7z"/>
		<path class="fandom_zeven" d="M32,57c13.807,0,25-11.193,25-25H7C7,45.807,18.193,57,32,57z"/>
	</g>
	<g>
		<path class="fandom_zeventien" d="M52.715,49.404L30.833,27.535C32.814,25.055,34,21.914,34,18.5C34,10.505,27.495,4,19.5,4
			S5,10.505,5,18.5C5,26.495,11.505,33,19.5,33c3.076,0,5.931-0.963,8.281-2.603l21.948,21.994c0.391,0.391,0.897,0.518,1.131,0.284
			l2.14-2.14C53.232,50.301,53.105,49.795,52.715,49.404z M19.5,29C13.701,29,9,24.299,9,18.5S13.701,8,19.5,8
			C25.299,8,30,12.701,30,18.5S25.299,29,19.5,29z"/>
		<path class="fandom_twintig" d="M26.201,19.88c0.318-3.967-3.341-8.749-8.945-7.857c-1.31,0.252-1.673-1.705-0.39-1.961
			c7.921-1.591,11.918,6.426,11.308,10.143C27.975,21.421,26.088,21.291,26.201,19.88z"/>
		<path class="fandom_twaalf" d="M13.702,40.336c2.178,1.768,8.167,5.914,11.798,1.476c1.754-2.144,5.765-8.016,5.765-8.016
			s-1.468-1.077-2.136-0.992l-4.22,4.845c-2.084,2.218-3.522,1.037-7.096-1.305L13.702,40.336z"/>
		<path class="fandom_veertien" d="M19.5,8C13.701,8,9,12.701,9,18.5S13.701,29,19.5,29C25.299,29,30,24.299,30,18.5
			S25.299,8,19.5,8z M26.201,19.88c0.368-3.892-3.32-8.752-8.945-7.857c-1.31,0.252-1.673-1.705-0.39-1.961
			c7.921-1.591,11.918,6.426,11.308,10.143C27.974,21.427,26.069,21.282,26.201,19.88z M34.606,31.434l-2.187,3.606
			c-0.743-1.248-2.955-2.396-3.29-2.237c0.88-1.057,1.772-2.119,2.675-3.171C32.852,30.088,33.804,30.667,34.606,31.434z"/>
		<path class="fandom_elf" d="M32.42,35.042c0,0-4.617,8.135-7.476,11.839c-2.066,2.677-5.39,6.821-9.383,6.017
			c-2.997-0.604-6.519-3.827-7.481-7.101l5.622-5.461c2.178,1.768,8.167,5.914,11.798,1.476c1.754-2.144,5.765-8.016,5.765-8.016
			C31.717,34.124,32.112,34.526,32.42,35.042z M55.189,13.532c-1.086-0.117-12.545,3.289-23.399,16.094
			c1.055,0.457,2.014,1.04,2.82,1.812c4.291-6.639,13.228-14.078,20.896-16.351C56.219,14.876,56.215,13.643,55.189,13.532z"/>
	</g>
</g>
</svg>