<?xml version="1.0" encoding="utf-8"?>
<!-- Generator: Adobe Illustrator 19.1.0, SVG Export Plug-In . SVG Version: 6.00 Build 0)  -->
<!DOCTYPE svg PUBLIC "-//W3C//DTD SVG 1.1//EN" "http://www.w3.org/Graphics/SVG/1.1/DTD/svg11.dtd">
<svg version="1.1" id="DESIGNS" xmlns="http://www.w3.org/2000/svg" xmlns:xlink="http://www.w3.org/1999/xlink" x="0px" y="0px"
	 width="64px" height="64px" viewBox="0 0 64 64" style="enable-background:new 0 0 64 64;" xml:space="preserve">
<style type="text/css">
	.fandom_een{fill:#FF786E;}
	.fandom_twee{fill:#BE5652;}
	.fandom_elf{fill:#4B322A;}
	.fandom_twaalf{fill:#644638;}
	.fandom_dertien{fill:#AA9991;}
	.fandom_veertien{fill:#EFEAE0;}
	.st0{fill:#FFC865;}
	.st1{fill:#BE9148;}
	.st2{fill:#808080;}
	.st3{fill:#666666;}
	.st4{fill:#CCCCCC;}
	.st5{fill:#6BC4D2;}
	.st6{fill:#508D9B;}
	.st7{fill:#018273;}
	.st8{fill:#3A3A3A;}
	.st9{fill:#FFFAFA;}
	.st10{fill:#4D4D4D;}
	.st11{fill:#8579A3;}
	.st12{fill:#685683;}
	.st13{fill:#00B3AA;}
</style>
<g>
	<g>
		<path class="fandom_een" d="M32,7C18.193,7,7,18.193,7,32h50C57,18.193,45.807,7,32,7z"/>
		<path class="fandom_twee" d="M32,57c13.807,0,25-11.193,25-25H7C7,45.807,18.193,57,32,57z"/>
	</g>
	<g>
		<path class="fandom_twaalf" d="M8.417,31.75c-0.283-1.209,9.42-10.259,16.682-11.805c1.748-0.372,3.635-0.512,5.068,0.055
			c2.993,1.183-7.27,7.483-10.732,9.526c-0.307,0.181-0.648,0.059-0.919-0.172C17.339,28.355,8.754,33.192,8.417,31.75z
			 M22.493,43.642l-1.865,3.335l33.041-19.191l1.194-3.078L22.493,43.642z"/>
		<path class="fandom_elf" d="M3.404,53.125c0.15,0.791,0.44,1.396,0.787,1.849l16.441-8.003l1.862-3.329L3.404,53.125z"/>
		<path class="fandom_veertien" d="M18.05,51.773c-6.586,0.686-7.909,5.036-11.883,4.539c0,0-1.133-0.237-1.976-1.339
			c0.058-0.028,16.482-8.003,16.482-8.003L18.05,51.773z M29.167,33.417c3.375-3.605,32.001-21.031,32.001-21.031
			c-0.446-0.869-1.355-1.126-2.076-0.773c-1.551,0.759-5.193,2.638-5.193,2.638C36.2,23.554,22.402,34.054,15.467,39.73
			c-0.112,0.092-4.738,4.02-4.738,4.02c-4.167,3.227-8.487,3.233-7.325,9.375l19.088-9.482
			C24.845,39.543,27.632,35.056,29.167,33.417z"/>
		<path class="fandom_dertien" d="M12.954,39.067c-0.539-0.902-0.28-2.077,0.59-2.672l4.845-3.312l-2.238-3.468
			c0.939-0.301,1.717-0.472,2.143-0.366l1.746,2.705l5.996-4.099l-1.138-1.764c0.557-0.377,1.11-0.762,1.641-1.147l1.149,1.781
			l23.476-16.05c0.453-0.309,0.996-0.419,1.533-0.308c0.536,0.11,0.992,0.426,1.285,0.888l1.406,2.217
			c-0.598,0.308-1.191,0.617-1.78,0.928l-1.316-2.075l-37.62,25.72l0.933,1.57c-0.565,0.461-1.085,0.892-1.56,1.288L12.954,39.067z
			 M53.669,27.786L20.688,46.942l-2.639,4.833c2.094-0.218,4.318-0.271,6.118-0.838C27.542,49.875,42.604,42.5,47.042,39.5
			C49.243,38.012,53.669,27.786,53.669,27.786z M61.179,12.379c0,0-28.623,17.417-32.013,21.038
			c-1.535,1.64-4.322,6.127-6.675,10.226l32.372-18.935l2.928-8.458l2.863-1.982C61.27,13.842,61.476,13.045,61.179,12.379z"/>
	</g>
</g>
</svg>