<?xml version="1.0" encoding="utf-8"?>
<!-- Generator: Adobe Illustrator 19.1.0, SVG Export Plug-In . SVG Version: 6.00 Build 0)  -->
<!DOCTYPE svg PUBLIC "-//W3C//DTD SVG 1.1//EN" "http://www.w3.org/Graphics/SVG/1.1/DTD/svg11.dtd">
<svg version="1.1" id="DESIGNS" xmlns="http://www.w3.org/2000/svg" xmlns:xlink="http://www.w3.org/1999/xlink" x="0px" y="0px"
	 width="64px" height="64px" viewBox="0 0 64 64" style="enable-background:new 0 0 64 64;" xml:space="preserve">
<style type="text/css">
	.fandom_een{fill:#FF786E;}
	.fandom_twee{fill:#BE5652;}
	.fandom_vijf{fill:#018273;}
	.fandom_zes{fill:#00B3AA;}
	.fandom_veertien{fill:#EFEAE0;}
	.fandom_negentien{fill:#CCCCCC;}
	.fandom_twintig{fill:#FFFAFA;}
	.st0{fill:#AA9991;}
	.st1{fill:#644638;}
	.st2{fill:#6BC4D2;}
	.st3{fill:#508D9B;}
	.st4{fill:#4B322A;}
	.st5{fill:#FFC865;}
	.st6{fill:#BE9148;}
	.st7{fill:#8579A3;}
	.st8{fill:#685683;}
	.st9{fill:#4D4D4D;}
	.st10{fill:#3A3A3A;}
	.st11{fill:#808080;}
	.st12{fill:#666666;}
</style>
<g>
	<g>
		<path class="fandom_twee" d="M32,57c13.807,0,25-11.193,25-25H7C7,45.807,18.193,57,32,57z"/>
		<path class="fandom_een" d="M32,7C18.193,7,7,18.193,7,32h50C57,18.193,45.807,7,32,7z"/>
	</g>
	<g>
		<path class="fandom_negentien" d="M39.95,24.572C39.98,25.041,40,25.516,40,26c0,6.627-2.938,12-6.533,11.997
			c-6.373,0-10.869-2.146-16.617-2.195C14.469,35.781,13.687,36,11,36c-1.893,0-4.612-0.837-4.961-3.428
			C5.374,33.606,5.007,34.698,5,35.829c-0.039,6.627,12.018,12.075,26.929,12.169C46.841,48.093,58.961,42.797,59,36.171
			C59.032,30.763,51.007,26.141,39.95,24.572z"/>
		<path class="fandom_veertien" d="M51.5,35.548c-0.011,4.694-8.751,8.478-19.52,8.452c-10.368-0.026-18.813-3.576-19.421-8.029
			c1.554-0.058,2.447-0.185,4.291-0.169c5.748,0.049,10.307,2.195,16.617,2.195c3.314,0,5.995-4.45,6.456-10.243
			C46.747,29.093,51.508,32.081,51.5,35.548z M33.5,22c-0.828,0-1.5,1.567-1.5,3.5s0.672,3.5,1.5,3.5s1.5-1.567,1.5-3.5
			S34.328,22,33.5,22z"/>
		<path class="fandom_twintig" d="M37.182,39.621c2.447-0.79,5.969-0.642,8.527-0.535c1.509,0.063,4.546,0.212,5.181,1.922
			c0.618,1.665-1.509,2.741-2.922,2.928c-2.456,0.323-4.644-0.696-7.255-0.162C37.426,44.446,31.914,41.323,37.182,39.621z
			 M52.133,35.873c1.321,0.172,3.11,0.318,4.186-0.614c1.204-1.044,0.719-2.554-0.716-3.003c-2.218-0.694-5.018,0.248-7.314,0.182
			c-1.466-0.042-3.47-0.562-4.719,0.464c-1.429,1.175,0.122,2.724,1.5,2.954C47.355,36.238,49.809,35.571,52.133,35.873z"/>
		<path class="fandom_vijf" d="M33.467,37.997c-6.748-0.033-10.869-2.146-16.618-2.195C14.469,35.781,13.687,36,11,36
			c-2.026,0-5-0.958-5-4c0-3,1.042-5.042,3.729-5.095c3.267-0.065,3.236-1.475,10.9-6.763c8.685-5.993,12.511-6.118,12.499-6.107
			C29.712,14.393,27,19.605,27,26C27,32.607,29.893,37.964,33.467,37.997z M41.092,41.873c-0.288-0.522-0.466-1.102-0.466-1.726
			c0-0.623,0.177-1.203,0.464-1.724c-0.898,0.411-1.613,1.099-2.007,1.943c-0.261,0.56,0.116,1.202,0.77,1.324
			C40.251,41.763,40.665,41.824,41.092,41.873z M47.831,33.873c-0.252-0.522-0.408-1.102-0.408-1.726
			c0-0.623,0.155-1.203,0.406-1.724c-0.786,0.411-1.412,1.099-1.756,1.943c-0.229,0.56,0.102,1.202,0.674,1.324
			C47.095,33.763,47.457,33.824,47.831,33.873z"/>
		<path class="fandom_zes" d="M41.092,41.873c-0.288-0.522-0.466-1.102-0.466-1.726c0-0.623,0.177-1.202,0.464-1.723
			C41.662,38.161,42.299,38,42.983,38c1.808,0,3.339,1.033,3.945,2.485c0.245,0.586-0.158,1.226-0.838,1.323
			C45.226,41.932,44.298,42,43.331,42C42.554,42,41.806,41.953,41.092,41.873z M49.789,34c0.846,0,1.658-0.068,2.414-0.192
			c0.595-0.097,0.948-0.737,0.734-1.323C52.407,31.033,51.067,30,49.485,30c-0.598,0-1.155,0.161-1.656,0.423
			c-0.251,0.521-0.406,1.101-0.406,1.723c0,0.624,0.155,1.205,0.408,1.726C48.455,33.953,49.11,34,49.789,34z M40,26
			c0,6.627-2.91,12-6.5,12S27,32.627,27,26c0-6.627,2.91-12,6.5-12S40,19.373,40,26z M35,25.5c0-1.933-0.672-3.5-1.5-3.5
			S32,23.567,32,25.5s0.672,3.5,1.5,3.5S35,27.433,35,25.5z"/>
	</g>
</g>
</svg>